<svg xmlns="http://www.w3.org/2000/svg" width="300" height="300" viewBox="0 0 300 300">
<path d="M 139.08 89.02 L 139.53 89.91 C 140.08 90.98 141.38 91.40 142.44 90.86 C 143.51 90.31 143.93 89.01 143.38 87.95 L 142.93 87.05 C 142.38 85.99 141.08 85.57 140.02 86.11 C 138.95 86.65 138.53 87.96 139.08 89.02 Z M 139.59 90.01 L 140.09 90.88 C 140.69 91.91 142.01 92.26 143.04 91.66 C 144.07 91.07 144.42 89.75 143.83 88.71 L 143.33 87.85 C 142.73 86.82 141.41 86.47 140.38 87.06 C 139.35 87.66 138.99 88.98 139.59 90.01 Z M 140.22 91.06 L 140.80 91.87 C 141.50 92.83 142.85 93.04 143.81 92.34 C 144.77 91.64 144.99 90.29 144.29 89.33 L 143.70 88.53 C 143.00 87.56 141.65 87.35 140.69 88.05 C 139.73 88.75 139.51 90.10 140.22 91.06 Z M 141.01 92.11 L 141.67 92.77 C 142.50 93.62 143.86 93.63 144.71 92.80 C 145.55 91.97 145.57 90.61 144.73 89.76 L 144.07 89.09 C 143.24 88.24 141.88 88.23 141.04 89.07 C 140.19 89.90 140.18 91.26 141.01 92.11 Z M 141.88 92.95 L 142.62 93.52 C 143.55 94.25 144.89 94.09 145.61 93.16 C 146.34 92.23 146.18 90.89 145.25 90.17 L 144.52 89.59 C 143.59 88.86 142.25 89.02 141.52 89.95 C 140.80 90.88 140.96 92.22 141.88 92.95 Z M 142.75 93.59 L 143.58 94.16 C 144.54 94.81 145.86 94.56 146.51 93.59 C 147.17 92.63 146.92 91.31 145.95 90.66 L 145.12 90.09 C 144.16 89.44 142.84 89.69 142.19 90.66 C 141.53 91.62 141.78 92.94 142.75 93.59 Z M 143.62 94.16 L 144.53 94.75 C 145.50 95.38 146.80 95.11 147.43 94.14 C 148.06 93.17 147.78 91.87 146.81 91.24 L 145.91 90.65 C 144.94 90.02 143.64 90.29 143.01 91.26 C 142.38 92.23 142.65 93.53 143.62 94.16 Z M 144.51 94.72 L 145.37 95.29 C 146.32 95.93 147.61 95.68 148.25 94.73 C 148.89 93.78 148.64 92.50 147.69 91.85 L 146.83 91.28 C 145.88 90.63 144.59 90.89 143.95 91.84 C 143.31 92.78 143.56 94.07 144.51 94.72 Z M 145.33 95.24 L 146.17 95.84 C 147.09 96.50 148.37 96.29 149.03 95.37 C 149.69 94.45 149.48 93.17 148.56 92.51 L 147.72 91.91 C 146.81 91.25 145.53 91.46 144.87 92.38 C 144.20 93.30 144.41 94.58 145.33 95.24 Z M 146.13 95.77 L 146.94 96.40 C 147.83 97.09 149.10 96.93 149.78 96.04 C 150.46 95.16 150.30 93.89 149.42 93.21 L 148.60 92.58 C 147.72 91.89 146.45 92.05 145.77 92.94 C 145.08 93.82 145.24 95.09 146.13 95.77 Z M 146.89 96.32 L 147.64 96.97 C 148.48 97.69 149.74 97.59 150.46 96.75 C 151.17 95.91 151.07 94.65 150.23 93.94 L 149.47 93.29 C 148.64 92.57 147.38 92.67 146.66 93.51 C 145.95 94.35 146.05 95.61 146.89 96.32 Z M 147.56 96.86 L 148.26 97.54 C 149.04 98.30 150.28 98.28 151.04 97.51 C 151.80 96.73 151.78 95.49 151.01 94.73 L 150.31 94.05 C 149.54 93.29 148.29 93.30 147.53 94.08 C 146.77 94.85 146.79 96.10 147.56 96.86 Z M 148.14 97.35 L 148.82 98.18 C 149.49 99.01 150.71 99.13 151.53 98.45 C 152.36 97.78 152.48 96.57 151.80 95.74 L 151.12 94.91 C 150.45 94.09 149.24 93.97 148.41 94.64 C 147.59 95.31 147.47 96.53 148.14 97.35 Z M 148.69 97.91 L 149.19 98.75 C 149.71 99.65 150.86 99.95 151.76 99.42 C 152.65 98.90 152.95 97.75 152.43 96.85 L 151.93 96.01 C 151.41 95.12 150.26 94.82 149.36 95.34 C 148.47 95.87 148.17 97.02 148.69 97.91 Z M 149.09 98.45 L 149.43 99.33 C 149.79 100.27 150.84 100.75 151.79 100.39 C 152.73 100.03 153.21 98.98 152.85 98.03 L 152.52 97.15 C 152.16 96.21 151.10 95.73 150.16 96.09 C 149.21 96.45 148.74 97.51 149.09 98.45 Z M 149.39 99.04 L 149.59 99.98 C 149.79 100.95 150.73 101.57 151.70 101.37 C 152.66 101.17 153.28 100.23 153.08 99.26 L 152.89 98.32 C 152.69 97.35 151.74 96.73 150.78 96.93 C 149.81 97.13 149.19 98.08 149.39 99.04 Z M 149.60 99.71 L 149.64 100.70 C 149.69 101.66 150.50 102.40 151.46 102.35 C 152.42 102.31 153.17 101.49 153.12 100.53 L 153.07 99.54 C 153.03 98.58 152.21 97.84 151.25 97.88 C 150.29 97.93 149.55 98.75 149.60 99.71 Z M 149.70 100.39 L 149.57 101.39 C 149.45 102.32 150.10 103.17 151.03 103.30 C 151.96 103.42 152.81 102.76 152.93 101.83 L 153.06 100.83 C 153.19 99.90 152.53 99.05 151.60 98.93 C 150.67 98.81 149.82 99.46 149.70 100.39 Z M 149.68 101.07 L 149.35 102.02 C 149.05 102.88 149.51 103.83 150.38 104.13 C 151.25 104.43 152.19 103.97 152.49 103.10 L 152.82 102.15 C 153.12 101.29 152.66 100.34 151.79 100.04 C 150.93 99.74 149.98 100.20 149.68 101.07 Z M 149.51 101.73 L 149.02 102.55 C 148.56 103.33 148.82 104.34 149.60 104.80 C 150.39 105.26 151.39 105.00 151.85 104.22 L 152.34 103.39 C 152.80 102.61 152.54 101.60 151.76 101.14 C 150.97 100.68 149.97 100.94 149.51 101.73 Z M 149.16 102.35 L 148.53 103.13 C 147.96 103.83 148.07 104.86 148.77 105.43 C 149.48 106.00 150.51 105.90 151.08 105.19 L 151.71 104.42 C 152.28 103.72 152.17 102.68 151.47 102.11 C 150.77 101.54 149.73 101.65 149.16 102.35 Z M 148.66 102.99 L 147.93 103.71 C 147.28 104.35 147.27 105.39 147.91 106.03 C 148.54 106.68 149.58 106.68 150.23 106.05 L 150.96 105.33 C 151.60 104.69 151.61 103.65 150.98 103.01 C 150.34 102.36 149.30 102.36 148.66 102.99 Z M 148.02 103.63 L 147.23 104.29 C 146.54 104.87 146.45 105.91 147.03 106.60 C 147.61 107.29 148.64 107.38 149.33 106.80 L 150.13 106.14 C 150.82 105.55 150.91 104.52 150.33 103.83 C 149.75 103.14 148.72 103.05 148.02 103.63 Z M 147.31 104.23 L 146.48 104.84 C 145.76 105.38 145.60 106.41 146.14 107.13 C 146.68 107.86 147.70 108.01 148.43 107.47 L 149.26 106.86 C 149.98 106.32 150.14 105.30 149.60 104.57 C 149.06 103.85 148.03 103.69 147.31 104.23 Z M 146.55 104.80 L 145.71 105.35 C 144.96 105.86 144.75 106.87 145.26 107.62 C 145.76 108.38 146.77 108.58 147.52 108.08 L 148.36 107.52 C 149.12 107.02 149.32 106.00 148.82 105.25 C 148.32 104.50 147.30 104.29 146.55 104.80 Z M 145.77 105.32 L 144.93 105.82 C 144.16 106.29 143.91 107.30 144.38 108.07 C 144.85 108.85 145.86 109.09 146.63 108.62 L 147.47 108.12 C 148.24 107.65 148.49 106.64 148.02 105.87 C 147.55 105.09 146.54 104.85 145.77 105.32 Z M 144.98 105.79 L 144.12 106.28 C 143.33 106.72 143.05 107.72 143.49 108.51 C 143.93 109.30 144.93 109.58 145.72 109.14 L 146.58 108.65 C 147.37 108.21 147.65 107.21 147.21 106.43 C 146.77 105.64 145.77 105.35 144.98 105.79 Z M 144.17 106.25 L 143.28 106.71 C 142.47 107.12 142.16 108.11 142.57 108.91 C 142.98 109.72 143.97 110.04 144.78 109.62 L 145.67 109.17 C 146.47 108.75 146.79 107.76 146.37 106.96 C 145.96 106.15 144.97 105.84 144.17 106.25 Z M 143.33 106.68 L 142.44 107.10 C 141.62 107.49 141.27 108.47 141.65 109.29 C 142.04 110.11 143.02 110.46 143.84 110.07 L 144.73 109.65 C 145.55 109.26 145.90 108.28 145.51 107.46 C 145.12 106.64 144.15 106.29 143.33 106.68 Z M 142.48 107.08 L 141.57 107.48 C 140.73 107.85 140.36 108.82 140.72 109.65 C 141.09 110.48 142.06 110.86 142.89 110.49 L 143.80 110.09 C 144.63 109.72 145.01 108.75 144.64 107.92 C 144.28 107.09 143.31 106.72 142.48 107.08 Z M 141.59 107.47 L 140.72 107.83 C 139.89 108.18 139.49 109.15 139.84 109.98 C 140.19 110.82 141.16 111.22 142.00 110.87 L 142.86 110.50 C 143.70 110.15 144.10 109.19 143.75 108.35 C 143.39 107.51 142.43 107.12 141.59 107.47 Z M 140.74 107.82 L 139.83 108.20 C 138.98 108.54 138.58 109.50 138.93 110.34 C 139.27 111.19 140.23 111.59 141.07 111.25 L 141.98 110.87 C 142.83 110.53 143.23 109.57 142.88 108.73 C 142.54 107.88 141.58 107.48 140.74 107.82 Z M 139.83 108.19 L 138.87 108.58 C 138.03 108.93 137.63 109.89 137.97 110.73 C 138.32 111.58 139.28 111.98 140.12 111.64 L 141.07 111.25 C 141.92 110.90 142.32 109.94 141.98 109.10 C 141.63 108.25 140.67 107.85 139.83 108.19 Z M 138.86 108.59 L 137.90 108.99 C 137.06 109.34 136.66 110.30 137.01 111.15 C 137.36 111.99 138.33 112.39 139.17 112.04 L 140.13 111.63 C 140.98 111.28 141.37 110.32 141.02 109.47 C 140.67 108.63 139.71 108.23 138.86 108.59 Z M 137.88 108.99 L 136.98 109.38 C 136.14 109.74 135.75 110.71 136.11 111.55 C 136.47 112.39 137.45 112.78 138.29 112.42 L 139.19 112.03 C 140.03 111.67 140.42 110.70 140.06 109.86 C 139.70 109.02 138.72 108.63 137.88 108.99 Z M 136.97 109.38 L 136.05 109.78 C 135.21 110.15 134.83 111.13 135.20 111.96 C 135.57 112.80 136.54 113.19 137.38 112.82 L 138.30 112.42 C 139.14 112.05 139.52 111.07 139.15 110.23 C 138.79 109.39 137.81 109.01 136.97 109.38 Z M 136.04 109.78 L 135.11 110.20 C 134.27 110.57 133.90 111.55 134.27 112.39 C 134.65 113.23 135.63 113.61 136.47 113.23 L 137.40 112.82 C 138.23 112.44 138.61 111.46 138.23 110.62 C 137.86 109.78 136.88 109.41 136.04 109.78 Z M 135.10 110.20 L 134.18 110.62 C 133.34 111.00 132.97 111.99 133.35 112.83 C 133.73 113.66 134.72 114.03 135.56 113.65 L 136.48 113.23 C 137.32 112.85 137.69 111.86 137.31 111.02 C 136.93 110.18 135.94 109.81 135.10 110.20 Z M 134.17 110.62 L 133.24 111.05 C 132.40 111.44 132.04 112.43 132.43 113.27 C 132.81 114.11 133.81 114.47 134.65 114.08 L 135.57 113.65 C 136.41 113.26 136.77 112.27 136.39 111.43 C 136.00 110.59 135.00 110.23 134.17 110.62 Z M 133.23 111.04 L 132.32 111.47 C 131.48 111.87 131.12 112.87 131.51 113.71 C 131.90 114.55 132.90 114.91 133.74 114.51 L 134.66 114.08 C 135.50 113.69 135.86 112.69 135.46 111.85 C 135.07 111.01 134.07 110.65 133.23 111.04 Z M 132.31 111.47 L 131.41 111.89 C 130.57 112.29 130.21 113.30 130.60 114.14 C 131.00 114.98 132.01 115.34 132.85 114.94 L 133.75 114.52 C 134.59 114.12 134.95 113.11 134.55 112.27 C 134.16 111.43 133.15 111.07 132.31 111.47 Z M 131.41 111.89 L 130.52 112.31 C 129.67 112.71 129.31 113.72 129.71 114.56 C 130.11 115.41 131.12 115.77 131.96 115.37 L 132.85 114.95 C 133.70 114.55 134.06 113.54 133.66 112.70 C 133.26 111.85 132.25 111.49 131.41 111.89 Z M 130.52 112.30 L 129.67 112.70 C 128.82 113.09 128.46 114.11 128.86 114.96 C 129.25 115.81 130.27 116.17 131.12 115.77 L 131.96 115.38 C 132.81 114.98 133.18 113.97 132.78 113.12 C 132.38 112.27 131.37 111.90 130.52 112.30 Z M 129.67 112.69 L 128.84 113.08 C 127.99 113.48 127.62 114.49 128.02 115.35 C 128.42 116.20 129.44 116.57 130.30 116.17 L 131.12 115.78 C 131.98 115.38 132.34 114.36 131.94 113.51 C 131.54 112.65 130.52 112.29 129.67 112.69 Z M 128.83 113.07 L 127.97 113.48 C 127.11 113.89 126.75 114.92 127.16 115.78 C 127.57 116.63 128.59 116.99 129.45 116.58 L 130.31 116.17 C 131.17 115.76 131.53 114.74 131.12 113.88 C 130.71 113.03 129.68 112.66 128.83 113.07 Z M 127.94 113.49 L 127.02 113.94 C 126.16 114.36 125.81 115.40 126.23 116.25 C 126.65 117.11 127.69 117.46 128.54 117.04 L 129.47 116.58 C 130.33 116.16 130.68 115.13 130.26 114.27 C 129.83 113.42 128.80 113.06 127.94 113.49 Z M 126.99 113.95 L 125.97 114.47 C 125.12 114.91 124.78 115.95 125.21 116.80 C 125.65 117.66 126.70 118.00 127.55 117.56 L 128.57 117.04 C 129.42 116.60 129.76 115.55 129.32 114.70 C 128.89 113.85 127.84 113.51 126.99 113.95 Z M 125.92 114.44 L 124.87 114.99 C 124.00 115.46 123.67 116.54 124.13 117.41 C 124.59 118.28 125.68 118.61 126.55 118.15 L 127.60 117.59 C 128.47 117.13 128.80 116.05 128.34 115.17 C 127.87 114.30 126.79 113.97 125.92 114.44 Z M 124.80 114.92 L 123.74 115.51 C 122.83 116.01 122.50 117.16 123.00 118.07 C 123.51 118.98 124.65 119.31 125.57 118.81 L 126.62 118.22 C 127.53 117.72 127.86 116.57 127.36 115.66 C 126.86 114.75 125.71 114.42 124.80 114.92 Z M 123.65 115.44 L 122.69 116.00 C 121.74 116.55 121.42 117.77 121.98 118.72 C 122.53 119.66 123.74 119.99 124.69 119.43 L 125.65 118.87 C 126.60 118.32 126.92 117.10 126.37 116.16 C 125.82 115.21 124.60 114.89 123.65 115.44 Z M 122.57 115.96 L 121.81 116.44 C 120.84 117.06 120.55 118.35 121.17 119.32 C 121.79 120.29 123.08 120.58 124.05 119.96 L 124.81 119.48 C 125.78 118.86 126.07 117.57 125.45 116.60 C 124.83 115.62 123.54 115.34 122.57 115.96 Z M 121.58 116.48 L 121.12 116.84 C 120.17 117.59 120.00 118.96 120.74 119.91 C 121.49 120.86 122.86 121.03 123.81 120.29 L 124.28 119.92 C 125.23 119.18 125.40 117.80 124.65 116.85 C 123.91 115.90 122.53 115.73 121.58 116.48 Z M 120.61 119.92 L 120.79 120.16 C 121.53 121.18 122.97 121.41 124.00 120.66 C 125.02 119.91 125.24 118.48 124.50 117.45 L 124.32 117.21 C 123.57 116.19 122.14 115.96 121.11 116.71 C 120.09 117.46 119.86 118.89 120.61 119.92 Z M 123.06 121.18 L 124.18 120.98 C 125.49 120.75 126.37 119.50 126.14 118.19 C 125.91 116.88 124.66 116.00 123.34 116.23 L 122.22 116.43 C 120.91 116.66 120.03 117.91 120.27 119.22 C 120.50 120.54 121.75 121.41 123.06 121.18 Z M 124.38 121.03 L 125.50 120.75 C 126.84 120.41 127.65 119.04 127.31 117.71 C 126.97 116.37 125.60 115.56 124.26 115.90 L 123.15 116.18 C 121.81 116.52 121.00 117.89 121.34 119.23 C 121.68 120.56 123.04 121.37 124.38 121.03 Z M 125.54 120.78 L 126.49 120.52 C 127.85 120.16 128.65 118.76 128.29 117.41 C 127.92 116.05 126.53 115.25 125.17 115.61 L 124.22 115.87 C 122.87 116.23 122.06 117.63 122.43 118.98 C 122.79 120.34 124.19 121.14 125.54 120.78 Z M 126.47 120.55 L 127.44 120.30 C 128.81 119.95 129.63 118.55 129.28 117.18 C 128.92 115.80 127.52 114.98 126.15 115.33 L 125.19 115.58 C 123.81 115.94 122.99 117.34 123.34 118.71 C 123.70 120.08 125.10 120.91 126.47 120.55 Z M 127.37 120.34 L 128.36 120.12 C 129.75 119.80 130.62 118.41 130.30 117.01 C 129.98 115.62 128.59 114.75 127.20 115.07 L 126.21 115.30 C 124.82 115.62 123.95 117.00 124.27 118.40 C 124.59 119.79 125.98 120.66 127.37 120.34 Z M 128.28 120.15 L 129.20 119.96 C 130.61 119.69 131.53 118.32 131.25 116.91 C 130.97 115.50 129.61 114.58 128.20 114.86 L 127.28 115.04 C 125.87 115.32 124.95 116.69 125.23 118.10 C 125.50 119.51 126.87 120.42 128.28 120.15 Z M 129.16 119.98 L 130.13 119.81 C 131.55 119.55 132.49 118.20 132.24 116.78 C 131.98 115.36 130.63 114.42 129.21 114.67 L 128.24 114.84 C 126.82 115.10 125.88 116.45 126.13 117.87 C 126.38 119.29 127.74 120.23 129.16 119.98 Z M 130.11 119.81 L 131.13 119.64 C 132.55 119.39 133.51 118.04 133.26 116.62 C 133.02 115.20 131.67 114.24 130.24 114.49 L 129.23 114.66 C 127.80 114.91 126.85 116.26 127.09 117.68 C 127.34 119.10 128.69 120.06 130.11 119.81 Z M 131.14 119.64 L 132.17 119.46 C 133.60 119.21 134.55 117.85 134.30 116.43 C 134.05 115.01 132.69 114.05 131.27 114.30 L 130.23 114.48 C 128.81 114.73 127.86 116.09 128.11 117.52 C 128.36 118.94 129.72 119.89 131.14 119.64 Z M 132.20 119.46 L 133.13 119.29 C 134.55 119.02 135.50 117.66 135.23 116.23 C 134.97 114.81 133.60 113.87 132.18 114.13 L 131.24 114.30 C 129.82 114.57 128.88 115.94 129.14 117.36 C 129.41 118.78 130.77 119.72 132.20 119.46 Z M 133.15 119.28 L 134.12 119.10 C 135.54 118.82 136.47 117.45 136.19 116.02 C 135.91 114.60 134.54 113.67 133.12 113.95 L 132.15 114.14 C 130.73 114.41 129.80 115.79 130.08 117.21 C 130.36 118.63 131.73 119.56 133.15 119.28 Z M 134.14 119.09 L 135.13 118.89 C 136.55 118.61 137.46 117.22 137.18 115.80 C 136.89 114.38 135.50 113.46 134.08 113.75 L 133.09 113.95 C 131.68 114.24 130.76 115.62 131.05 117.04 C 131.33 118.46 132.72 119.38 134.14 119.09 Z M 135.15 118.89 L 136.16 118.68 C 137.58 118.38 138.49 116.99 138.19 115.57 C 137.89 114.15 136.50 113.24 135.08 113.54 L 134.06 113.76 C 132.65 114.05 131.74 115.45 132.04 116.86 C 132.34 118.28 133.73 119.19 135.15 118.89 Z M 136.18 118.67 L 137.17 118.46 C 138.59 118.15 139.48 116.75 139.17 115.33 C 138.87 113.92 137.47 113.02 136.05 113.33 L 135.06 113.55 C 133.65 113.85 132.75 115.25 133.06 116.67 C 133.37 118.08 134.77 118.98 136.18 118.67 Z M 137.19 118.45 L 138.14 118.24 C 139.55 117.92 140.43 116.51 140.12 115.10 C 139.80 113.69 138.39 112.80 136.98 113.12 L 136.03 113.33 C 134.62 113.65 133.73 115.06 134.05 116.47 C 134.37 117.88 135.78 118.77 137.19 118.45 Z M 138.16 118.23 L 139.12 118.00 C 140.53 117.67 141.41 116.26 141.07 114.85 C 140.74 113.44 139.33 112.57 137.92 112.90 L 136.95 113.13 C 135.55 113.46 134.67 114.87 135.01 116.28 C 135.34 117.69 136.75 118.56 138.16 118.23 Z M 139.16 117.99 L 140.13 117.75 C 141.54 117.40 142.39 115.98 142.04 114.57 C 141.69 113.17 140.27 112.31 138.86 112.66 L 137.89 112.91 C 136.48 113.26 135.63 114.68 135.98 116.08 C 136.33 117.49 137.75 118.34 139.16 117.99 Z M 140.17 117.74 L 141.16 117.48 C 142.56 117.11 143.39 115.67 143.02 114.27 C 142.65 112.88 141.22 112.04 139.82 112.41 L 138.83 112.68 C 137.43 113.05 136.60 114.48 136.97 115.88 C 137.34 117.27 138.77 118.11 140.17 117.74 Z M 141.20 117.46 L 142.20 117.18 C 143.59 116.79 144.39 115.34 144.00 113.95 C 143.61 112.56 142.16 111.75 140.77 112.14 L 139.78 112.43 C 138.38 112.82 137.58 114.27 137.97 115.66 C 138.36 117.05 139.81 117.86 141.20 117.46 Z M 142.24 117.16 L 143.23 116.86 C 144.61 116.45 145.39 114.99 144.98 113.61 C 144.56 112.23 143.10 111.45 141.72 111.86 L 140.73 112.16 C 139.35 112.58 138.57 114.04 138.98 115.42 C 139.40 116.80 140.86 117.58 142.24 117.16 Z M 143.27 116.84 L 144.25 116.53 C 145.62 116.09 146.38 114.63 145.94 113.26 C 145.50 111.89 144.04 111.13 142.67 111.57 L 141.68 111.88 C 140.31 112.32 139.56 113.79 140.00 115.16 C 140.43 116.52 141.90 117.28 143.27 116.84 Z M 144.28 116.51 L 145.25 116.19 C 146.61 115.73 147.34 114.26 146.88 112.90 C 146.43 111.54 144.96 110.81 143.60 111.27 L 142.63 111.59 C 141.28 112.04 140.54 113.51 141.00 114.87 C 141.45 116.23 142.93 116.96 144.28 116.51 Z M 145.28 116.17 L 146.21 115.84 C 147.55 115.37 148.27 113.90 147.79 112.55 C 147.32 111.20 145.85 110.49 144.50 110.96 L 143.57 111.28 C 142.22 111.76 141.51 113.23 141.98 114.58 C 142.45 115.93 143.93 116.64 145.28 116.17 Z M 146.23 115.82 L 147.12 115.50 C 148.46 115.02 149.15 113.54 148.66 112.20 C 148.18 110.86 146.70 110.17 145.36 110.66 L 144.47 110.98 C 143.14 111.46 142.44 112.94 142.93 114.28 C 143.42 115.62 144.90 116.31 146.23 115.82 Z M 147.15 115.48 L 148.15 115.09 C 149.48 114.59 150.14 113.12 149.64 111.79 C 149.14 110.47 147.66 109.80 146.34 110.30 L 145.33 110.68 C 144.01 111.18 143.34 112.66 143.84 113.98 C 144.34 115.31 145.82 115.98 147.15 115.48 Z M 148.18 115.06 L 149.15 114.67 C 150.46 114.16 151.10 112.68 150.58 111.38 C 150.06 110.07 148.59 109.44 147.28 109.95 L 146.31 110.34 C 145.01 110.85 144.37 112.33 144.89 113.63 C 145.40 114.94 146.88 115.57 148.18 115.06 Z M 149.18 114.63 L 150.09 114.26 C 151.37 113.73 151.97 112.25 151.44 110.97 C 150.91 109.69 149.44 109.08 148.16 109.62 L 147.25 109.99 C 145.97 110.52 145.37 112.00 145.90 113.28 C 146.43 114.56 147.90 115.17 149.18 114.63 Z M 150.12 114.22 L 150.96 113.85 C 152.22 113.30 152.80 111.83 152.25 110.57 C 151.70 109.31 150.23 108.74 148.97 109.29 L 148.13 109.66 C 146.87 110.21 146.29 111.67 146.84 112.93 C 147.39 114.19 148.86 114.77 150.12 114.22 Z M 150.99 113.81 L 151.85 113.41 C 153.09 112.85 153.63 111.39 153.07 110.15 C 152.50 108.91 151.04 108.37 149.80 108.94 L 148.94 109.33 C 147.71 109.89 147.16 111.36 147.73 112.59 C 148.29 113.83 149.75 114.37 150.99 113.81 Z M 151.88 113.37 L 152.76 112.95 C 153.97 112.37 154.48 110.91 153.89 109.70 C 153.31 108.49 151.85 107.98 150.64 108.56 L 149.77 108.98 C 148.56 109.56 148.05 111.02 148.63 112.23 C 149.22 113.44 150.67 113.95 151.88 113.37 Z M 152.79 112.90 L 153.67 112.45 C 154.86 111.85 155.33 110.40 154.73 109.21 C 154.12 108.03 152.67 107.56 151.49 108.16 L 150.61 108.61 C 149.42 109.21 148.95 110.66 149.55 111.85 C 150.16 113.03 151.61 113.51 152.79 112.90 Z M 153.71 112.41 L 154.62 111.91 C 155.78 111.29 156.22 109.85 155.60 108.69 C 154.98 107.53 153.53 107.09 152.37 107.71 L 151.45 108.21 C 150.29 108.83 149.86 110.27 150.48 111.43 C 151.10 112.59 152.55 113.03 153.71 112.41 Z M 154.65 111.87 L 155.50 111.39 C 156.64 110.76 157.04 109.32 156.41 108.18 C 155.77 107.05 154.34 106.64 153.20 107.28 L 152.35 107.76 C 151.21 108.39 150.81 109.83 151.44 110.97 C 152.08 112.10 153.51 112.51 154.65 111.87 Z M 155.53 111.35 L 156.39 110.84 C 157.50 110.19 157.88 108.76 157.23 107.65 C 156.58 106.54 155.15 106.17 154.04 106.82 L 153.18 107.32 C 152.07 107.97 151.69 109.40 152.34 110.51 C 152.99 111.62 154.42 112.00 155.53 111.35 Z M 156.43 110.79 L 157.29 110.26 C 158.38 109.59 158.71 108.17 158.05 107.09 C 157.38 106.00 155.96 105.67 154.88 106.33 L 154.01 106.87 C 152.92 107.54 152.59 108.96 153.26 110.04 C 153.92 111.12 155.34 111.46 156.43 110.79 Z M 157.34 110.20 L 158.19 109.64 C 159.24 108.95 159.53 107.54 158.84 106.49 C 158.15 105.44 156.74 105.14 155.69 105.83 L 154.84 106.39 C 153.78 107.08 153.49 108.49 154.18 109.54 C 154.87 110.60 156.29 110.89 157.34 110.20 Z M 158.24 109.57 L 159.07 108.97 C 160.08 108.25 160.32 106.85 159.60 105.84 C 158.88 104.83 157.47 104.59 156.46 105.31 L 155.63 105.91 C 154.62 106.63 154.39 108.03 155.11 109.04 C 155.83 110.05 157.23 110.29 158.24 109.57 Z M 159.12 108.89 L 159.93 108.25 C 160.90 107.51 161.07 106.12 160.32 105.16 C 159.57 104.20 158.19 104.02 157.22 104.77 L 156.41 105.40 C 155.45 106.15 155.28 107.54 156.03 108.50 C 156.77 109.46 158.16 109.63 159.12 108.89 Z M 159.96 108.17 L 160.73 107.53 C 161.64 106.77 161.76 105.40 161.00 104.49 C 160.23 103.58 158.87 103.45 157.96 104.22 L 157.19 104.86 C 156.28 105.62 156.16 106.98 156.92 107.90 C 157.69 108.81 159.05 108.93 159.96 108.17 Z M 160.73 107.46 L 161.47 106.82 C 162.34 106.05 162.43 104.72 161.66 103.84 C 160.89 102.96 159.56 102.88 158.68 103.65 L 157.95 104.29 C 157.07 105.06 156.99 106.39 157.75 107.27 C 158.52 108.14 159.86 108.23 160.73 107.46 Z M 161.45 106.78 L 161.93 106.35 C 162.78 105.59 162.86 104.28 162.10 103.43 C 161.34 102.57 160.03 102.50 159.17 103.26 L 158.70 103.69 C 157.84 104.45 157.77 105.76 158.53 106.61 C 159.29 107.47 160.60 107.54 161.45 106.78 Z"
      fill="black"
      fill-rule="nonzero" /><path d="M 136.83 119.86 L 136.60 120.82 C 136.33 121.93 137.01 123.05 138.12 123.32 C 139.23 123.60 140.35 122.92 140.62 121.80 L 140.86 120.84 C 141.13 119.73 140.45 118.61 139.34 118.34 C 138.23 118.06 137.11 118.74 136.83 119.86 Z M 136.58 120.88 L 136.38 121.86 C 136.14 122.98 136.86 124.08 137.98 124.31 C 139.10 124.55 140.20 123.83 140.43 122.71 L 140.64 121.74 C 140.88 120.62 140.16 119.52 139.04 119.28 C 137.92 119.05 136.82 119.76 136.58 120.88 Z M 136.35 121.98 L 136.21 122.97 C 136.04 124.10 136.82 125.16 137.96 125.33 C 139.09 125.49 140.14 124.71 140.31 123.58 L 140.46 122.59 C 140.62 121.45 139.84 120.40 138.71 120.23 C 137.57 120.06 136.52 120.85 136.35 121.98 Z M 136.19 123.16 L 136.13 124.16 C 136.07 125.31 136.94 126.29 138.09 126.35 C 139.23 126.41 140.21 125.54 140.28 124.39 L 140.33 123.39 C 140.40 122.24 139.52 121.26 138.37 121.20 C 137.23 121.14 136.25 122.01 136.19 123.16 Z M 136.13 124.37 L 136.17 125.35 C 136.22 126.49 137.19 127.38 138.34 127.33 C 139.49 127.28 140.37 126.31 140.32 125.16 L 140.28 124.18 C 140.23 123.04 139.26 122.15 138.11 122.20 C 136.96 122.25 136.08 123.22 136.13 124.37 Z M 136.19 125.51 L 136.31 126.51 C 136.45 127.64 137.49 128.45 138.63 128.31 C 139.77 128.16 140.58 127.13 140.43 125.99 L 140.31 125.00 C 140.16 123.86 139.13 123.05 137.99 123.19 C 136.85 123.34 136.04 124.38 136.19 125.51 Z M 136.33 126.63 L 136.52 127.63 C 136.73 128.75 137.82 129.49 138.94 129.28 C 140.07 129.07 140.81 127.98 140.60 126.86 L 140.41 125.86 C 140.20 124.73 139.12 123.99 137.99 124.21 C 136.86 124.42 136.12 125.50 136.33 126.63 Z M 136.54 127.72 L 136.77 128.70 C 137.03 129.82 138.15 130.51 139.26 130.25 C 140.38 129.99 141.07 128.87 140.81 127.75 L 140.58 126.77 C 140.32 125.65 139.20 124.96 138.08 125.22 C 136.97 125.48 136.28 126.60 136.54 127.72 Z M 136.79 128.77 L 137.05 129.73 C 137.34 130.84 138.48 131.49 139.59 131.20 C 140.69 130.90 141.35 129.76 141.05 128.66 L 140.79 127.69 C 140.50 126.58 139.36 125.93 138.25 126.23 C 137.15 126.52 136.49 127.66 136.79 128.77 Z M 137.07 129.78 L 137.35 130.74 C 137.68 131.83 138.83 132.45 139.92 132.13 C 141.02 131.80 141.64 130.65 141.31 129.56 L 141.03 128.60 C 140.70 127.51 139.55 126.89 138.46 127.21 C 137.37 127.54 136.74 128.69 137.07 129.78 Z M 137.37 130.78 L 137.68 131.73 C 138.03 132.81 139.19 133.41 140.27 133.06 C 141.36 132.71 141.95 131.55 141.60 130.46 L 141.29 129.51 C 140.94 128.43 139.78 127.84 138.70 128.19 C 137.62 128.54 137.02 129.70 137.37 130.78 Z M 137.70 131.76 L 138.03 132.72 C 138.40 133.79 139.56 134.36 140.64 133.99 C 141.71 133.62 142.28 132.45 141.91 131.38 L 141.58 130.43 C 141.21 129.36 140.05 128.79 138.97 129.15 C 137.90 129.52 137.33 130.69 137.70 131.76 Z M 138.04 132.74 L 138.38 133.68 C 138.76 134.74 139.93 135.29 141.00 134.91 C 142.06 134.53 142.61 133.35 142.23 132.29 L 141.89 131.36 C 141.51 130.29 140.34 129.74 139.28 130.12 C 138.21 130.51 137.66 131.68 138.04 132.74 Z M 138.40 133.69 L 138.75 134.63 C 139.14 135.68 140.31 136.22 141.36 135.83 C 142.41 135.44 142.95 134.27 142.56 133.22 L 142.21 132.28 C 141.82 131.23 140.65 130.69 139.60 131.08 C 138.55 131.47 138.01 132.64 138.40 133.69 Z M 138.76 134.63 L 139.12 135.57 C 139.51 136.62 140.67 137.15 141.71 136.75 C 142.76 136.36 143.29 135.20 142.89 134.16 L 142.54 133.22 C 142.15 132.17 140.99 131.64 139.94 132.03 C 138.90 132.43 138.37 133.59 138.76 134.63 Z M 139.13 135.57 L 139.48 136.51 C 139.87 137.54 141.03 138.07 142.06 137.68 C 143.10 137.29 143.62 136.13 143.23 135.10 L 142.88 134.16 C 142.49 133.12 141.34 132.60 140.30 132.99 C 139.26 133.38 138.74 134.53 139.13 135.57 Z M 139.49 136.49 L 139.82 137.38 C 140.21 138.41 141.35 138.94 142.38 138.55 C 143.41 138.17 143.94 137.03 143.55 136.00 L 143.22 135.11 C 142.84 134.08 141.69 133.55 140.66 133.94 C 139.63 134.32 139.11 135.46 139.49 136.49 Z M 139.84 137.38 L 140.17 138.26 C 140.55 139.28 141.68 139.80 142.71 139.42 C 143.73 139.04 144.24 137.91 143.86 136.88 L 143.53 136.00 C 143.15 134.98 142.02 134.46 141.00 134.84 C 139.98 135.22 139.46 136.36 139.84 137.38 Z M 140.19 138.27 L 140.54 139.19 C 140.93 140.19 142.05 140.70 143.06 140.31 C 144.07 139.93 144.58 138.80 144.19 137.79 L 143.84 136.88 C 143.46 135.87 142.33 135.36 141.32 135.75 C 140.31 136.13 139.81 137.26 140.19 138.27 Z M 140.57 139.20 L 140.95 140.17 C 141.34 141.17 142.47 141.65 143.46 141.26 C 144.46 140.86 144.94 139.74 144.55 138.75 L 144.16 137.78 C 143.77 136.78 142.65 136.30 141.65 136.69 C 140.66 137.08 140.17 138.21 140.57 139.20 Z M 140.98 140.19 L 141.39 141.19 C 141.80 142.17 142.92 142.63 143.90 142.23 C 144.88 141.82 145.34 140.70 144.93 139.72 L 144.52 138.73 C 144.11 137.75 142.99 137.28 142.02 137.69 C 141.04 138.10 140.58 139.22 140.98 140.19 Z M 141.43 141.22 L 141.84 142.15 C 142.25 143.11 143.37 143.55 144.33 143.13 C 145.29 142.71 145.73 141.59 145.31 140.63 L 144.90 139.70 C 144.48 138.74 143.36 138.30 142.40 138.72 C 141.44 139.14 141.01 140.26 141.43 141.22 Z M 141.87 142.19 L 142.32 143.14 C 142.75 144.08 143.87 144.48 144.81 144.05 C 145.75 143.61 146.16 142.49 145.72 141.55 L 145.27 140.60 C 144.84 139.66 143.72 139.25 142.78 139.69 C 141.84 140.13 141.43 141.25 141.87 142.19 Z M 142.36 143.19 L 142.83 144.11 C 143.30 145.03 144.42 145.39 145.33 144.92 C 146.25 144.46 146.61 143.34 146.14 142.43 L 145.67 141.50 C 145.21 140.59 144.09 140.22 143.17 140.69 C 142.26 141.16 141.90 142.27 142.36 143.19 Z M 142.89 144.18 L 143.38 145.04 C 143.89 145.92 145.01 146.23 145.89 145.72 C 146.77 145.22 147.08 144.10 146.57 143.21 L 146.08 142.36 C 145.58 141.48 144.46 141.17 143.58 141.67 C 142.69 142.18 142.39 143.30 142.89 144.18 Z M 143.47 145.14 L 143.97 145.89 C 144.53 146.73 145.66 146.95 146.50 146.39 C 147.33 145.83 147.55 144.70 146.99 143.87 L 146.49 143.11 C 145.93 142.28 144.80 142.06 143.97 142.62 C 143.13 143.18 142.91 144.31 143.47 145.14 Z M 144.14 146.06 L 144.89 146.92 C 145.54 147.66 146.67 147.74 147.41 147.09 C 148.16 146.44 148.23 145.31 147.58 144.57 L 146.83 143.70 C 146.18 142.96 145.05 142.88 144.31 143.53 C 143.56 144.18 143.49 145.31 144.14 146.06 Z M 145.13 147.09 L 145.90 147.72 C 146.64 148.33 147.74 148.22 148.35 147.48 C 148.96 146.74 148.86 145.64 148.11 145.03 L 147.35 144.40 C 146.60 143.79 145.51 143.89 144.89 144.63 C 144.28 145.38 144.39 146.47 145.13 147.09 Z M 146.10 147.81 L 146.87 148.30 C 147.66 148.80 148.71 148.56 149.21 147.77 C 149.71 146.98 149.48 145.93 148.68 145.43 L 147.91 144.94 C 147.12 144.44 146.07 144.68 145.57 145.47 C 145.07 146.26 145.31 147.31 146.10 147.81 Z M 146.96 148.31 L 147.42 148.57 C 148.22 149.02 149.23 148.73 149.68 147.93 C 150.13 147.13 149.85 146.12 149.05 145.67 L 148.59 145.41 C 147.79 144.97 146.78 145.25 146.33 146.05 C 145.88 146.85 146.16 147.86 146.96 148.31 Z"
      fill="black"
      fill-rule="nonzero" /><path d="M 155.92 113.51 L 155.89 114.52 C 155.85 115.80 156.85 116.87 158.14 116.91 C 159.42 116.95 160.50 115.95 160.54 114.66 L 160.57 113.65 C 160.61 112.37 159.60 111.29 158.31 111.25 C 157.03 111.21 155.96 112.22 155.92 113.51 Z M 155.89 114.48 L 155.84 115.49 C 155.79 116.77 156.78 117.86 158.06 117.92 C 159.34 117.98 160.43 116.98 160.49 115.70 L 160.53 114.69 C 160.59 113.41 159.60 112.33 158.32 112.27 C 157.03 112.21 155.95 113.20 155.89 114.48 Z M 155.85 115.42 L 155.78 116.42 C 155.68 117.70 156.64 118.82 157.92 118.91 C 159.20 119.01 160.31 118.05 160.41 116.77 L 160.48 115.77 C 160.57 114.49 159.62 113.38 158.34 113.28 C 157.06 113.19 155.95 114.15 155.85 115.42 Z M 155.79 116.32 L 155.67 117.31 C 155.52 118.58 156.43 119.73 157.70 119.88 C 158.97 120.04 160.12 119.13 160.28 117.86 L 160.39 116.87 C 160.54 115.60 159.64 114.45 158.36 114.29 C 157.09 114.14 155.94 115.05 155.79 116.32 Z M 155.70 117.17 L 155.52 118.14 C 155.30 119.40 156.13 120.61 157.39 120.83 C 158.65 121.06 159.85 120.22 160.08 118.96 L 160.25 117.99 C 160.48 116.73 159.64 115.53 158.38 115.30 C 157.13 115.08 155.92 115.92 155.70 117.17 Z M 155.56 117.97 L 155.31 118.97 C 154.99 120.20 155.73 121.46 156.96 121.78 C 158.20 122.10 159.46 121.36 159.78 120.13 L 160.04 119.13 C 160.35 117.90 159.61 116.64 158.38 116.32 C 157.14 116.00 155.88 116.74 155.56 117.97 Z M 155.36 118.81 L 155.03 119.79 C 154.62 121.00 155.27 122.30 156.47 122.71 C 157.68 123.12 158.98 122.47 159.39 121.27 L 159.72 120.28 C 160.13 119.08 159.48 117.77 158.28 117.37 C 157.08 116.96 155.77 117.61 155.36 118.81 Z M 155.09 119.67 L 154.70 120.62 C 154.23 121.79 154.80 123.13 155.97 123.60 C 157.14 124.07 158.48 123.51 158.95 122.33 L 159.33 121.39 C 159.81 120.21 159.24 118.88 158.07 118.41 C 156.89 117.93 155.56 118.50 155.09 119.67 Z M 154.75 120.54 L 154.34 121.44 C 153.82 122.58 154.33 123.94 155.48 124.45 C 156.62 124.97 157.98 124.47 158.50 123.32 L 158.90 122.42 C 159.42 121.27 158.92 119.92 157.77 119.40 C 156.62 118.88 155.27 119.39 154.75 120.54 Z M 154.38 121.39 L 153.96 122.24 C 153.42 123.36 153.89 124.72 155.01 125.27 C 156.14 125.82 157.50 125.35 158.05 124.22 L 158.46 123.37 C 159.01 122.24 158.54 120.89 157.41 120.34 C 156.28 119.79 154.93 120.26 154.38 121.39 Z M 153.99 122.22 L 153.54 123.12 C 152.98 124.23 153.43 125.59 154.54 126.15 C 155.65 126.71 157.01 126.26 157.56 125.15 L 158.02 124.24 C 158.58 123.13 158.13 121.77 157.02 121.21 C 155.91 120.65 154.55 121.10 153.99 122.22 Z M 153.57 123.11 L 153.11 124.00 C 152.54 125.10 152.97 126.44 154.07 127.01 C 155.16 127.57 156.51 127.14 157.07 126.05 L 157.53 125.16 C 158.10 124.06 157.67 122.72 156.57 122.15 C 155.48 121.59 154.13 122.02 153.57 123.11 Z M 153.14 123.99 L 152.69 124.85 C 152.11 125.92 152.52 127.26 153.60 127.83 C 154.67 128.40 156.01 128.00 156.58 126.92 L 157.04 126.06 C 157.61 124.99 157.20 123.65 156.13 123.08 C 155.05 122.51 153.72 122.91 153.14 123.99 Z M 152.73 124.83 L 152.25 125.68 C 151.67 126.74 152.05 128.06 153.10 128.65 C 154.15 129.23 155.48 128.85 156.06 127.80 L 156.54 126.94 C 157.12 125.89 156.74 124.56 155.69 123.98 C 154.64 123.39 153.31 123.77 152.73 124.83 Z M 152.29 125.66 L 151.82 126.49 C 151.22 127.52 151.58 128.84 152.61 129.43 C 153.64 130.03 154.96 129.67 155.55 128.64 L 156.03 127.82 C 156.62 126.78 156.27 125.47 155.23 124.87 C 154.20 124.28 152.88 124.63 152.29 125.66 Z M 151.85 126.47 L 151.36 127.28 C 150.76 128.30 151.09 129.61 152.10 130.21 C 153.12 130.82 154.43 130.48 155.03 129.47 L 155.52 128.66 C 156.12 127.64 155.79 126.33 154.78 125.73 C 153.77 125.12 152.45 125.45 151.85 126.47 Z M 151.39 127.26 L 150.87 128.11 C 150.26 129.10 150.57 130.41 151.57 131.02 C 152.56 131.64 153.87 131.33 154.48 130.33 L 155.00 129.49 C 155.62 128.49 155.31 127.19 154.31 126.57 C 153.32 125.96 152.01 126.27 151.39 127.26 Z M 150.91 128.09 L 150.35 128.96 C 149.72 129.94 150.01 131.24 150.99 131.87 C 151.97 132.49 153.27 132.20 153.89 131.22 L 154.45 130.35 C 155.08 129.37 154.79 128.07 153.81 127.45 C 152.83 126.82 151.53 127.11 150.91 128.09 Z M 150.38 128.94 L 149.79 129.84 C 149.15 130.80 149.42 132.09 150.38 132.73 C 151.34 133.36 152.64 133.10 153.27 132.14 L 153.86 131.24 C 154.50 130.28 154.23 128.99 153.27 128.35 C 152.31 127.72 151.02 127.98 150.38 128.94 Z M 149.82 129.82 L 149.27 130.63 C 148.63 131.57 148.87 132.86 149.82 133.50 C 150.76 134.15 152.05 133.90 152.69 132.96 L 153.24 132.15 C 153.88 131.21 153.64 129.92 152.70 129.28 C 151.75 128.64 150.46 128.88 149.82 129.82 Z M 149.30 130.61 L 148.73 131.42 C 148.08 132.35 148.31 133.63 149.23 134.28 C 150.16 134.93 151.44 134.71 152.09 133.78 L 152.66 132.97 C 153.31 132.05 153.09 130.77 152.16 130.12 C 151.23 129.46 149.95 129.69 149.30 130.61 Z M 148.77 131.41 L 148.18 132.22 C 147.52 133.13 147.72 134.40 148.63 135.06 C 149.54 135.72 150.81 135.52 151.47 134.61 L 152.06 133.80 C 152.72 132.89 152.52 131.62 151.61 130.96 C 150.70 130.30 149.42 130.50 148.77 131.41 Z M 148.21 132.21 L 147.60 133.02 C 146.93 133.91 147.11 135.17 148.01 135.84 C 148.90 136.51 150.16 136.33 150.83 135.44 L 151.44 134.63 C 152.10 133.73 151.92 132.47 151.03 131.80 C 150.14 131.13 148.88 131.32 148.21 132.21 Z M 147.63 133.00 L 147.01 133.81 C 146.33 134.68 146.49 135.94 147.37 136.61 C 148.24 137.29 149.50 137.13 150.17 136.26 L 150.80 135.45 C 151.47 134.58 151.31 133.32 150.44 132.65 C 149.57 131.97 148.31 132.13 147.63 133.00 Z M 147.05 133.79 L 146.41 134.58 C 145.73 135.43 145.86 136.68 146.72 137.36 C 147.57 138.05 148.82 137.91 149.51 137.06 L 150.14 136.27 C 150.82 135.42 150.69 134.17 149.83 133.49 C 148.98 132.80 147.73 132.94 147.05 133.79 Z M 146.45 134.56 L 145.81 135.32 C 145.11 136.16 145.22 137.40 146.06 138.10 C 146.89 138.79 148.13 138.68 148.83 137.85 L 149.47 137.08 C 150.17 136.24 150.06 135.00 149.22 134.31 C 148.39 133.61 147.15 133.72 146.45 134.56 Z M 145.84 135.30 L 145.19 136.06 C 144.48 136.87 144.57 138.10 145.38 138.81 C 146.20 139.52 147.43 139.43 148.14 138.62 L 148.80 137.87 C 149.50 137.05 149.42 135.82 148.60 135.11 C 147.79 134.40 146.55 134.49 145.84 135.30 Z M 145.23 136.03 L 144.56 136.77 C 143.84 137.57 143.90 138.80 144.69 139.51 C 145.49 140.23 146.72 140.17 147.43 139.38 L 148.10 138.64 C 148.82 137.85 148.76 136.62 147.97 135.90 C 147.17 135.18 145.95 135.24 145.23 136.03 Z M 144.60 136.75 L 143.91 137.48 C 143.18 138.25 143.21 139.47 143.99 140.20 C 144.76 140.93 145.98 140.90 146.71 140.13 L 147.40 139.40 C 148.13 138.63 148.09 137.41 147.32 136.68 C 146.55 135.95 145.33 135.98 144.60 136.75 Z M 143.95 137.46 L 143.24 138.17 C 142.50 138.93 142.51 140.14 143.26 140.88 C 144.01 141.62 145.22 141.61 145.97 140.86 L 146.67 140.15 C 147.41 139.40 147.40 138.19 146.65 137.44 C 145.90 136.70 144.69 136.71 143.95 137.46 Z M 143.28 138.15 L 142.57 138.85 C 141.81 139.58 141.80 140.78 142.53 141.53 C 143.26 142.29 144.46 142.30 145.21 141.57 L 145.93 140.88 C 146.68 140.15 146.70 138.95 145.97 138.19 C 145.24 137.44 144.04 137.42 143.28 138.15 Z M 142.61 138.83 L 141.87 139.51 C 141.11 140.22 141.06 141.41 141.77 142.18 C 142.48 142.94 143.68 142.98 144.44 142.27 L 145.17 141.59 C 145.94 140.88 145.98 139.69 145.27 138.93 C 144.56 138.16 143.37 138.12 142.61 138.83 Z M 141.91 139.49 L 141.16 140.15 C 140.39 140.84 140.32 142.03 141.01 142.80 C 141.69 143.58 142.88 143.65 143.66 142.96 L 144.40 142.29 C 145.18 141.60 145.25 140.42 144.56 139.64 C 143.87 138.87 142.68 138.80 141.91 139.49 Z M 141.20 140.14 L 140.43 140.79 C 139.65 141.45 139.56 142.63 140.22 143.42 C 140.89 144.20 142.07 144.30 142.85 143.63 L 143.62 142.98 C 144.40 142.31 144.50 141.13 143.83 140.35 C 143.16 139.56 141.98 139.47 141.20 140.14 Z M 140.47 140.77 L 139.70 141.40 C 138.90 142.05 138.78 143.21 139.43 144.01 C 140.08 144.80 141.24 144.92 142.04 144.28 L 142.82 143.64 C 143.61 143.00 143.73 141.83 143.08 141.04 C 142.44 140.24 141.27 140.12 140.47 140.77 Z M 139.74 141.38 L 138.92 142.02 C 138.11 142.64 137.97 143.80 138.59 144.61 C 139.22 145.41 140.38 145.55 141.18 144.93 L 142.00 144.29 C 142.80 143.67 142.95 142.51 142.32 141.71 C 141.70 140.90 140.54 140.76 139.74 141.38 Z M 138.96 142.00 L 138.12 142.62 C 137.31 143.22 137.14 144.37 137.74 145.18 C 138.34 146.00 139.49 146.17 140.31 145.57 L 141.14 144.95 C 141.96 144.35 142.13 143.20 141.53 142.38 C 140.92 141.57 139.77 141.40 138.96 142.00 Z M 138.16 142.60 L 137.33 143.19 C 136.51 143.77 136.31 144.90 136.89 145.73 C 137.47 146.55 138.61 146.75 139.43 146.17 L 140.26 145.59 C 141.09 145.01 141.29 143.87 140.71 143.04 C 140.13 142.22 138.99 142.02 138.16 142.60 Z M 137.37 143.17 L 136.55 143.72 C 135.71 144.27 135.49 145.40 136.04 146.23 C 136.60 147.07 137.73 147.30 138.56 146.74 L 139.39 146.19 C 140.22 145.63 140.45 144.51 139.89 143.67 C 139.34 142.84 138.21 142.61 137.37 143.17 Z M 136.60 143.70 L 135.79 144.20 C 134.94 144.73 134.69 145.85 135.22 146.69 C 135.75 147.54 136.86 147.80 137.71 147.27 L 138.51 146.76 C 139.36 146.23 139.62 145.11 139.09 144.27 C 138.56 143.42 137.44 143.17 136.60 143.70 Z M 135.84 144.18 L 134.97 144.69 C 134.11 145.19 133.82 146.29 134.32 147.15 C 134.82 148.00 135.92 148.29 136.77 147.80 L 137.65 147.29 C 138.51 146.79 138.80 145.69 138.30 144.83 C 137.80 143.97 136.70 143.68 135.84 144.18 Z M 135.04 144.67 L 134.11 145.17 C 133.24 145.63 132.91 146.71 133.37 147.57 C 133.83 148.44 134.91 148.77 135.78 148.31 L 136.71 147.81 C 137.57 147.35 137.90 146.27 137.44 145.41 C 136.98 144.54 135.90 144.21 135.04 144.67 Z M 134.17 145.16 L 133.28 145.59 C 132.40 146.02 132.04 147.07 132.47 147.94 C 132.89 148.82 133.94 149.18 134.81 148.75 L 135.71 148.32 C 136.58 147.89 136.95 146.84 136.52 145.97 C 136.10 145.10 135.05 144.73 134.17 145.16 Z M 133.34 145.59 L 132.47 145.98 C 131.59 146.37 131.20 147.40 131.59 148.27 C 131.98 149.15 133.01 149.54 133.89 149.15 L 134.75 148.76 C 135.63 148.37 136.02 147.34 135.63 146.47 C 135.24 145.59 134.21 145.20 133.34 145.59 Z M 132.52 145.98 L 131.63 146.35 C 130.75 146.71 130.34 147.72 130.70 148.60 C 131.07 149.47 132.08 149.89 132.95 149.52 L 133.84 149.15 C 134.72 148.78 135.13 147.78 134.76 146.90 C 134.40 146.02 133.39 145.61 132.52 145.98 Z M 131.66 146.34 L 130.71 146.72 C 129.83 147.07 129.39 148.06 129.74 148.94 C 130.09 149.82 131.08 150.25 131.96 149.90 L 132.92 149.52 C 133.80 149.18 134.23 148.19 133.88 147.31 C 133.54 146.43 132.54 146.00 131.66 146.34 Z M 130.73 146.71 L 129.80 147.06 C 128.91 147.40 128.47 148.38 128.80 149.26 C 129.13 150.14 130.11 150.59 131.00 150.26 L 131.93 149.91 C 132.81 149.58 133.26 148.59 132.93 147.71 C 132.60 146.83 131.61 146.38 130.73 146.71 Z M 129.82 147.06 L 128.90 147.39 C 128.02 147.71 127.56 148.69 127.88 149.57 C 128.20 150.46 129.18 150.91 130.07 150.59 L 130.98 150.26 C 131.86 149.94 132.32 148.97 132.00 148.08 C 131.68 147.20 130.70 146.74 129.82 147.06 Z M 128.91 147.39 L 127.97 147.73 C 127.09 148.04 126.62 149.01 126.94 149.90 C 127.25 150.78 128.23 151.25 129.11 150.93 L 130.06 150.59 C 130.94 150.28 131.40 149.31 131.09 148.42 C 130.77 147.54 129.80 147.08 128.91 147.39 Z M 127.98 147.73 L 127.03 148.06 C 126.14 148.37 125.68 149.34 125.99 150.23 C 126.30 151.11 127.27 151.58 128.16 151.27 L 129.11 150.93 C 129.99 150.62 130.46 149.65 130.14 148.76 C 129.83 147.88 128.86 147.41 127.98 147.73 Z M 127.03 148.06 L 126.10 148.39 C 125.21 148.70 124.75 149.67 125.06 150.55 C 125.37 151.44 126.34 151.90 127.22 151.59 L 128.16 151.27 C 129.04 150.96 129.51 149.99 129.20 149.10 C 128.89 148.22 127.92 147.75 127.03 148.06 Z M 126.10 148.39 L 125.19 148.70 C 124.30 149.01 123.83 149.99 124.14 150.87 C 124.45 151.76 125.42 152.23 126.31 151.91 L 127.22 151.60 C 128.11 151.29 128.58 150.32 128.27 149.43 C 127.96 148.54 126.99 148.07 126.10 148.39 Z M 125.17 148.70 L 124.28 149.02 C 123.39 149.33 122.93 150.31 123.24 151.20 C 123.56 152.09 124.54 152.56 125.43 152.24 L 126.32 151.92 C 127.21 151.60 127.68 150.63 127.36 149.74 C 127.04 148.85 126.06 148.38 125.17 148.70 Z M 124.25 149.01 L 123.32 149.36 C 122.43 149.69 121.97 150.69 122.31 151.58 C 122.64 152.47 123.64 152.93 124.53 152.59 L 125.46 152.24 C 126.35 151.91 126.80 150.92 126.47 150.02 C 126.14 149.13 125.14 148.68 124.25 149.01 Z M 123.27 149.36 L 122.28 149.76 C 121.39 150.12 120.96 151.14 121.32 152.03 C 121.68 152.92 122.70 153.35 123.59 152.99 L 124.58 152.59 C 125.47 152.23 125.90 151.22 125.54 150.32 C 125.18 149.43 124.16 149.00 123.27 149.36 Z M 122.17 149.65 L 120.96 150.19 C 120.00 150.61 119.58 151.73 120.00 152.68 C 120.42 153.64 121.54 154.06 122.49 153.64 L 123.70 153.10 C 124.66 152.68 125.09 151.56 124.66 150.61 C 124.24 149.65 123.12 149.22 122.17 149.65 Z M 120.70 149.98 L 119.72 150.50 C 118.65 151.06 118.24 152.39 118.80 153.46 C 119.36 154.53 120.69 154.94 121.76 154.37 L 122.75 153.85 C 123.82 153.29 124.23 151.96 123.66 150.89 C 123.10 149.82 121.77 149.41 120.70 149.98 Z M 118.91 150.71 L 118.59 151.06 C 117.64 152.06 117.69 153.65 118.69 154.60 C 119.70 155.55 121.29 155.51 122.24 154.50 L 122.56 154.16 C 123.51 153.15 123.47 151.56 122.46 150.61 C 121.45 149.66 119.86 149.71 118.91 150.71 Z M 120.06 155.44 L 120.52 155.50 C 121.99 155.70 123.35 154.66 123.54 153.19 C 123.74 151.72 122.70 150.37 121.23 150.17 L 120.77 150.11 C 119.30 149.92 117.94 150.95 117.75 152.42 C 117.55 153.90 118.59 155.25 120.06 155.44 Z M 121.15 155.55 L 122.12 155.45 C 123.62 155.30 124.71 153.96 124.55 152.46 C 124.40 150.97 123.06 149.88 121.57 150.03 L 120.60 150.13 C 119.10 150.28 118.01 151.62 118.16 153.11 C 118.32 154.61 119.66 155.70 121.15 155.55 Z M 122.26 155.46 L 123.50 155.27 C 125.00 155.04 126.04 153.64 125.81 152.14 C 125.58 150.63 124.18 149.60 122.68 149.83 L 121.43 150.02 C 119.93 150.25 118.89 151.65 119.12 153.15 C 119.35 154.65 120.75 155.69 122.26 155.46 Z M 123.54 155.29 L 124.78 155.09 C 126.29 154.84 127.32 153.41 127.07 151.90 C 126.82 150.39 125.39 149.36 123.88 149.61 L 122.64 149.81 C 121.13 150.06 120.10 151.49 120.35 153.00 C 120.60 154.51 122.02 155.54 123.54 155.29 Z M 124.78 155.10 L 125.82 154.93 C 127.34 154.68 128.37 153.25 128.12 151.73 C 127.88 150.21 126.45 149.18 124.93 149.43 L 123.88 149.60 C 122.37 149.85 121.34 151.28 121.58 152.79 C 121.83 154.31 123.26 155.34 124.78 155.10 Z M 125.83 154.93 L 126.82 154.76 C 128.33 154.51 129.36 153.08 129.11 151.56 C 128.86 150.04 127.43 149.02 125.91 149.27 L 124.92 149.43 C 123.40 149.68 122.38 151.11 122.63 152.63 C 122.88 154.15 124.31 155.18 125.83 154.93 Z M 126.84 154.76 L 127.79 154.59 C 129.30 154.33 130.32 152.89 130.06 151.38 C 129.79 149.86 128.35 148.84 126.84 149.11 L 125.89 149.27 C 124.37 149.53 123.36 150.97 123.62 152.49 C 123.88 154.01 125.32 155.02 126.84 154.76 Z M 127.83 154.59 L 128.75 154.41 C 130.26 154.13 131.26 152.68 130.97 151.16 C 130.69 149.65 129.23 148.66 127.72 148.94 L 126.80 149.11 C 125.29 149.40 124.29 150.85 124.58 152.36 C 124.86 153.88 126.31 154.87 127.83 154.59 Z M 128.79 154.40 L 129.65 154.23 C 131.15 153.92 132.12 152.45 131.81 150.94 C 131.51 149.44 130.03 148.47 128.53 148.78 L 127.67 148.95 C 126.17 149.26 125.20 150.73 125.51 152.24 C 125.82 153.74 127.29 154.71 128.79 154.40 Z M 129.68 154.22 L 130.57 154.03 C 132.07 153.70 133.02 152.21 132.69 150.71 C 132.36 149.21 130.88 148.26 129.38 148.59 L 128.49 148.78 C 126.99 149.11 126.04 150.60 126.37 152.10 C 126.70 153.60 128.18 154.55 129.68 154.22 Z M 130.59 154.02 L 131.55 153.80 C 133.05 153.46 133.99 151.97 133.65 150.48 C 133.31 148.98 131.82 148.04 130.32 148.38 L 129.36 148.60 C 127.86 148.94 126.92 150.43 127.26 151.92 C 127.60 153.42 129.09 154.36 130.59 154.02 Z M 131.56 153.80 L 132.64 153.55 C 134.13 153.21 135.07 151.72 134.73 150.22 C 134.38 148.73 132.89 147.79 131.40 148.13 L 130.32 148.38 C 128.82 148.72 127.89 150.21 128.23 151.71 C 128.57 153.21 130.06 154.14 131.56 153.80 Z M 132.63 153.55 L 133.66 153.32 C 135.15 152.98 136.09 151.49 135.75 150.00 C 135.41 148.50 133.92 147.56 132.43 147.90 L 131.40 148.14 C 129.91 148.47 128.97 149.96 129.31 151.46 C 129.65 152.95 131.14 153.89 132.63 153.55 Z M 133.65 153.32 L 134.48 153.13 C 135.98 152.79 136.91 151.31 136.58 149.81 C 136.24 148.32 134.76 147.38 133.26 147.72 L 132.43 147.90 C 130.94 148.24 130.00 149.73 130.33 151.22 C 130.67 152.72 132.16 153.65 133.65 153.32 Z M 134.48 153.13 L 135.37 152.93 C 136.86 152.59 137.80 151.11 137.47 149.61 C 137.13 148.12 135.64 147.18 134.15 147.52 L 133.26 147.72 C 131.77 148.06 130.83 149.54 131.17 151.03 C 131.50 152.53 132.99 153.47 134.48 153.13 Z M 135.37 152.93 L 136.32 152.71 C 137.81 152.37 138.75 150.89 138.41 149.40 C 138.07 147.90 136.59 146.97 135.09 147.31 L 134.15 147.52 C 132.66 147.86 131.72 149.34 132.06 150.84 C 132.40 152.33 133.88 153.26 135.37 152.93 Z M 136.32 152.71 L 137.32 152.48 C 138.81 152.14 139.74 150.65 139.40 149.16 C 139.06 147.67 137.57 146.74 136.08 147.08 L 135.09 147.31 C 133.60 147.65 132.67 149.14 133.01 150.63 C 133.35 152.12 134.83 153.05 136.32 152.71 Z M 137.33 152.48 L 138.36 152.23 C 139.85 151.89 140.78 150.40 140.43 148.91 C 140.09 147.43 138.60 146.50 137.11 146.85 L 136.07 147.09 C 134.59 147.43 133.66 148.92 134.01 150.41 C 134.35 151.90 135.84 152.82 137.33 152.48 Z M 138.38 152.23 L 139.45 151.98 C 140.94 151.62 141.86 150.13 141.51 148.65 C 141.15 147.16 139.67 146.24 138.18 146.60 L 137.10 146.85 C 135.62 147.20 134.70 148.69 135.05 150.18 C 135.40 151.66 136.89 152.58 138.38 152.23 Z M 139.47 151.97 L 140.58 151.70 C 142.06 151.34 142.97 149.85 142.61 148.37 C 142.25 146.88 140.76 145.97 139.28 146.33 L 138.17 146.60 C 136.68 146.96 135.77 148.45 136.13 149.93 C 136.49 151.42 137.98 152.33 139.47 151.97 Z M 140.59 151.69 L 141.64 151.43 C 143.12 151.07 144.02 149.57 143.65 148.09 C 143.29 146.61 141.79 145.71 140.31 146.08 L 139.26 146.34 C 137.79 146.70 136.88 148.20 137.25 149.68 C 137.62 151.16 139.11 152.06 140.59 151.69 Z M 141.65 151.43 L 142.70 151.16 C 144.17 150.79 145.07 149.29 144.70 147.82 C 144.32 146.34 142.83 145.45 141.35 145.82 L 140.30 146.09 C 138.83 146.46 137.93 147.96 138.31 149.43 C 138.68 150.90 140.18 151.80 141.65 151.43 Z M 142.71 151.15 L 143.76 150.88 C 145.23 150.51 146.11 149.01 145.73 147.54 C 145.36 146.07 143.86 145.18 142.39 145.56 L 141.34 145.83 C 139.87 146.21 138.99 147.71 139.37 149.17 C 139.74 150.64 141.24 151.53 142.71 151.15 Z M 143.76 150.88 L 144.79 150.61 C 146.26 150.23 147.14 148.73 146.75 147.26 C 146.37 145.80 144.87 144.92 143.41 145.30 L 142.38 145.57 C 140.92 145.95 140.04 147.45 140.42 148.91 C 140.80 150.38 142.30 151.26 143.76 150.88 Z M 144.80 150.60 L 145.79 150.34 C 147.26 149.95 148.13 148.45 147.74 146.99 C 147.35 145.53 145.86 144.66 144.40 145.05 L 143.40 145.31 C 141.94 145.70 141.07 147.19 141.45 148.65 C 141.84 150.12 143.34 150.99 144.80 150.60 Z M 145.80 150.33 L 146.75 150.08 C 148.21 149.69 149.07 148.19 148.68 146.73 C 148.29 145.27 146.79 144.41 145.34 144.80 L 144.39 145.05 C 142.93 145.44 142.07 146.94 142.46 148.40 C 142.85 149.86 144.34 150.72 145.80 150.33 Z M 146.76 150.07 L 147.64 149.83 C 149.10 149.43 149.95 147.94 149.56 146.48 C 149.17 145.03 147.67 144.17 146.22 144.57 L 145.33 144.81 C 143.88 145.20 143.02 146.70 143.41 148.15 C 143.81 149.60 145.30 150.46 146.76 150.07 Z M 147.65 149.82 L 148.46 149.60 C 149.91 149.20 150.76 147.70 150.36 146.25 C 149.96 144.80 148.47 143.95 147.02 144.35 L 146.21 144.57 C 144.76 144.97 143.91 146.47 144.31 147.92 C 144.70 149.37 146.20 150.22 147.65 149.82 Z M 148.47 149.58 L 149.56 149.28 C 151.00 148.87 151.84 147.38 151.44 145.94 C 151.03 144.50 149.54 143.66 148.10 144.06 L 147.01 144.36 C 145.57 144.77 144.73 146.27 145.13 147.71 C 145.53 149.15 147.03 149.99 148.47 149.58 Z M 149.58 149.26 L 150.61 148.96 C 152.04 148.54 152.86 147.05 152.44 145.62 C 152.03 144.19 150.53 143.37 149.11 143.78 L 148.08 144.08 C 146.65 144.50 145.83 145.99 146.24 147.42 C 146.66 148.85 148.15 149.67 149.58 149.26 Z M 150.63 148.93 L 151.52 148.66 C 152.94 148.23 153.74 146.74 153.31 145.32 C 152.88 143.91 151.38 143.11 149.97 143.54 L 149.08 143.81 C 147.67 144.24 146.87 145.73 147.30 147.15 C 147.72 148.56 149.22 149.36 150.63 148.93 Z M 151.55 148.64 L 152.39 148.37 C 153.79 147.93 154.56 146.43 154.12 145.03 C 153.68 143.63 152.18 142.86 150.78 143.30 L 149.94 143.57 C 148.54 144.01 147.77 145.50 148.21 146.90 C 148.65 148.30 150.15 149.08 151.55 148.64 Z M 152.40 148.35 L 153.26 148.07 C 154.65 147.62 155.41 146.13 154.96 144.74 C 154.51 143.35 153.02 142.59 151.63 143.04 L 150.77 143.32 C 149.38 143.77 148.62 145.26 149.07 146.65 C 149.52 148.04 151.01 148.80 152.40 148.35 Z M 153.27 148.06 L 154.05 147.80 C 155.44 147.34 156.19 145.86 155.73 144.48 C 155.28 143.10 153.79 142.34 152.41 142.80 L 151.62 143.06 C 150.24 143.51 149.49 145.00 149.95 146.38 C 150.40 147.76 151.89 148.51 153.27 148.06 Z M 154.05 147.79 L 154.92 147.51 C 156.30 147.05 157.05 145.57 156.59 144.19 C 156.14 142.81 154.66 142.06 153.28 142.52 L 152.41 142.80 C 151.04 143.26 150.29 144.74 150.74 146.12 C 151.19 147.50 152.68 148.25 154.05 147.79 Z M 154.91 147.50 L 155.85 147.20 C 157.23 146.75 157.98 145.27 157.53 143.89 C 157.08 142.51 155.59 141.76 154.22 142.21 L 153.28 142.52 C 151.91 142.97 151.16 144.45 151.61 145.83 C 152.06 147.21 153.54 147.95 154.91 147.50 Z M 155.84 147.19 L 156.85 146.87 C 158.23 146.42 158.98 144.94 158.53 143.57 C 158.08 142.19 156.61 141.44 155.23 141.89 L 154.23 142.22 C 152.85 142.66 152.10 144.14 152.55 145.52 C 152.99 146.89 154.47 147.64 155.84 147.19 Z M 156.84 146.86 L 157.92 146.52 C 159.29 146.08 160.04 144.60 159.60 143.23 C 159.16 141.86 157.69 141.10 156.31 141.55 L 155.24 141.89 C 153.87 142.33 153.11 143.81 153.56 145.18 C 154.00 146.55 155.47 147.31 156.84 146.86 Z M 157.91 146.52 L 158.97 146.18 C 160.34 145.74 161.10 144.28 160.66 142.90 C 160.22 141.53 158.76 140.77 157.39 141.21 L 156.33 141.55 C 154.95 141.99 154.20 143.45 154.63 144.82 C 155.07 146.19 156.53 146.95 157.91 146.52 Z M 158.96 146.17 L 159.94 145.86 C 161.31 145.43 162.07 143.97 161.64 142.61 C 161.21 141.24 159.75 140.48 158.38 140.91 L 157.40 141.22 C 156.03 141.65 155.27 143.10 155.70 144.47 C 156.13 145.84 157.59 146.60 158.96 146.17 Z M 159.93 145.86 L 160.93 145.54 C 162.30 145.12 163.06 143.67 162.64 142.30 C 162.21 140.94 160.76 140.17 159.39 140.60 L 158.39 140.91 C 157.03 141.34 156.27 142.79 156.69 144.16 C 157.12 145.52 158.57 146.28 159.93 145.86 Z M 160.93 145.54 L 161.93 145.23 C 163.29 144.81 164.05 143.36 163.63 142.00 C 163.21 140.64 161.76 139.88 160.40 140.30 L 159.40 140.61 C 158.04 141.03 157.28 142.47 157.70 143.84 C 158.12 145.20 159.57 145.96 160.93 145.54 Z M 161.92 145.22 L 162.90 144.92 C 164.26 144.50 165.02 143.06 164.60 141.70 C 164.18 140.35 162.74 139.59 161.39 140.00 L 160.41 140.30 C 159.05 140.72 158.29 142.16 158.71 143.52 C 159.12 144.88 160.56 145.64 161.92 145.22 Z M 162.89 144.91 L 163.83 144.62 C 165.19 144.21 165.95 142.77 165.53 141.42 C 165.12 140.07 163.68 139.31 162.33 139.72 L 161.39 140.01 C 160.04 140.43 159.28 141.86 159.69 143.21 C 160.11 144.57 161.54 145.33 162.89 144.91 Z M 163.83 144.62 L 164.71 144.35 C 166.06 143.93 166.82 142.51 166.41 141.16 C 166.00 139.81 164.57 139.05 163.22 139.46 L 162.34 139.73 C 160.99 140.14 160.23 141.57 160.64 142.92 C 161.05 144.27 162.48 145.03 163.83 144.62 Z M 164.71 144.33 L 165.75 144.02 C 167.09 143.61 167.85 142.19 167.44 140.84 C 167.03 139.50 165.61 138.75 164.26 139.16 L 163.22 139.47 C 161.88 139.88 161.13 141.30 161.54 142.65 C 161.94 143.99 163.36 144.74 164.71 144.33 Z M 165.74 143.99 L 166.82 143.67 C 168.15 143.26 168.90 141.86 168.50 140.53 C 168.09 139.19 166.69 138.44 165.36 138.85 L 164.27 139.18 C 162.94 139.58 162.19 140.99 162.60 142.32 C 163.00 143.65 164.41 144.40 165.74 143.99 Z M 166.80 143.64 L 167.74 143.36 C 169.06 142.97 169.81 141.58 169.42 140.26 C 169.02 138.95 167.63 138.20 166.32 138.59 L 165.38 138.87 C 164.06 139.26 163.31 140.65 163.70 141.97 C 164.10 143.29 165.48 144.04 166.80 143.64 Z M 167.72 143.34 L 168.56 143.10 C 169.86 142.72 170.62 141.35 170.24 140.05 C 169.86 138.74 168.49 137.99 167.19 138.37 L 166.34 138.61 C 165.04 138.99 164.29 140.36 164.67 141.66 C 165.04 142.97 166.41 143.72 167.72 143.34 Z M 168.52 143.08 L 169.35 142.85 C 170.65 142.49 171.41 141.15 171.05 139.85 C 170.69 138.56 169.35 137.80 168.06 138.16 L 167.22 138.39 C 165.93 138.74 165.17 140.08 165.53 141.38 C 165.89 142.68 167.23 143.43 168.52 143.08 Z M 169.30 142.83 L 170.28 142.57 C 171.57 142.25 172.34 140.94 172.02 139.66 C 171.69 138.37 170.38 137.60 169.10 137.92 L 168.11 138.18 C 166.83 138.50 166.05 139.81 166.38 141.09 C 166.71 142.38 168.02 143.15 169.30 142.83 Z M 170.20 142.56 L 171.17 142.34 C 172.45 142.06 173.25 140.80 172.97 139.52 C 172.69 138.25 171.42 137.45 170.15 137.73 L 169.18 137.94 C 167.91 138.22 167.10 139.49 167.38 140.76 C 167.67 142.03 168.93 142.84 170.20 142.56 Z M 171.06 142.32 L 172.04 142.15 C 173.30 141.93 174.14 140.73 173.92 139.46 C 173.70 138.20 172.49 137.35 171.23 137.57 L 170.26 137.74 C 168.99 137.97 168.15 139.17 168.37 140.44 C 168.59 141.70 169.80 142.55 171.06 142.32 Z M 171.91 142.12 L 172.89 142.00 C 174.14 141.85 175.03 140.71 174.88 139.46 C 174.72 138.22 173.59 137.33 172.34 137.48 L 171.35 137.60 C 170.11 137.76 169.22 138.89 169.37 140.14 C 169.53 141.39 170.66 142.28 171.91 142.12 Z M 172.79 141.95 L 173.79 141.87 C 175.01 141.77 175.92 140.70 175.82 139.48 C 175.72 138.26 174.65 137.36 173.43 137.45 L 172.44 137.53 C 171.22 137.63 170.31 138.70 170.41 139.92 C 170.51 141.14 171.58 142.05 172.79 141.95 Z M 173.73 141.81 L 174.73 141.75 C 175.92 141.69 176.83 140.67 176.76 139.49 C 176.70 138.30 175.68 137.39 174.50 137.46 L 173.49 137.52 C 172.31 137.58 171.40 138.59 171.47 139.78 C 171.53 140.97 172.54 141.87 173.73 141.81 Z M 174.71 141.70 L 175.27 141.68 C 176.43 141.62 177.33 140.64 177.27 139.48 C 177.22 138.33 176.24 137.43 175.08 137.48 L 174.52 137.51 C 173.36 137.56 172.46 138.55 172.52 139.70 C 172.57 140.86 173.55 141.76 174.71 141.70 Z"
      fill="black"
      fill-rule="nonzero" /><path d="M 131.00 162.15 L 130.91 163.11 C 130.80 164.30 131.67 165.36 132.86 165.47 C 134.05 165.58 135.10 164.71 135.21 163.52 L 135.30 162.55 C 135.41 161.36 134.54 160.31 133.35 160.20 C 132.16 160.09 131.11 160.96 131.00 162.15 Z M 130.85 163.13 L 130.77 164.11 C 130.67 165.33 131.57 166.41 132.79 166.51 C 134.01 166.61 135.09 165.70 135.19 164.48 L 135.27 163.50 C 135.37 162.28 134.47 161.21 133.24 161.10 C 132.02 161.00 130.95 161.91 130.85 163.13 Z M 130.71 164.15 L 130.64 165.17 C 130.56 166.43 131.51 167.51 132.77 167.59 C 134.02 167.67 135.10 166.72 135.18 165.47 L 135.25 164.44 C 135.33 163.19 134.38 162.11 133.12 162.03 C 131.87 161.95 130.79 162.90 130.71 164.15 Z M 130.61 165.23 L 130.57 166.22 C 130.52 167.49 131.51 168.56 132.78 168.61 C 134.05 168.67 135.13 167.68 135.18 166.40 L 135.22 165.41 C 135.27 164.14 134.28 163.07 133.01 163.02 C 131.73 162.96 130.66 163.95 130.61 165.23 Z M 130.57 166.26 L 130.55 167.25 C 130.52 168.52 131.53 169.57 132.81 169.60 C 134.08 169.62 135.13 168.61 135.16 167.34 L 135.18 166.36 C 135.20 165.08 134.19 164.03 132.92 164.00 C 131.65 163.98 130.59 164.99 130.57 166.26 Z M 130.56 167.27 L 130.55 168.29 C 130.54 169.55 131.56 170.59 132.83 170.60 C 134.09 170.61 135.13 169.59 135.14 168.32 L 135.15 167.31 C 135.16 166.04 134.14 165.01 132.87 165.00 C 131.60 164.99 130.57 166.01 130.56 167.27 Z M 130.56 168.30 L 130.56 169.33 C 130.56 170.59 131.58 171.61 132.84 171.61 C 134.10 171.62 135.12 170.60 135.12 169.34 L 135.12 168.31 C 135.13 167.05 134.11 166.03 132.85 166.02 C 131.59 166.02 130.57 167.04 130.56 168.30 Z M 130.58 169.33 L 130.58 170.33 C 130.58 171.58 131.59 172.59 132.84 172.59 C 134.09 172.59 135.11 171.58 135.10 170.33 L 135.10 169.33 C 135.10 168.08 134.09 167.07 132.84 167.07 C 131.59 167.07 130.58 168.08 130.58 169.33 Z M 130.61 170.34 L 130.61 171.33 C 130.61 172.56 131.61 173.56 132.85 173.56 C 134.08 173.56 135.08 172.55 135.08 171.32 L 135.08 170.33 C 135.08 169.09 134.07 168.09 132.84 168.10 C 131.60 168.10 130.60 169.10 130.61 170.34 Z M 130.63 171.34 L 130.64 172.34 C 130.65 173.56 131.64 174.54 132.86 174.53 C 134.08 174.53 135.07 173.53 135.06 172.31 L 135.05 171.31 C 135.05 170.09 134.05 169.11 132.83 169.11 C 131.61 169.12 130.63 170.12 130.63 171.34 Z M 130.67 172.35 L 130.68 173.36 C 130.69 174.57 131.68 175.53 132.89 175.52 C 134.10 175.50 135.06 174.51 135.05 173.31 L 135.03 172.30 C 135.02 171.09 134.03 170.12 132.82 170.14 C 131.62 170.15 130.65 171.14 130.67 172.35 Z M 130.71 173.38 L 130.73 174.36 C 130.75 175.55 131.74 176.50 132.93 176.48 C 134.12 176.45 135.06 175.47 135.04 174.28 L 135.02 173.29 C 135.00 172.10 134.01 171.15 132.82 171.18 C 131.63 171.20 130.68 172.19 130.71 173.38 Z M 130.75 174.39 L 130.78 175.37 C 130.82 176.55 131.80 177.47 132.98 177.43 C 134.16 177.40 135.08 176.41 135.05 175.24 L 135.01 174.25 C 134.98 173.08 133.99 172.15 132.82 172.19 C 131.64 172.22 130.71 173.21 130.75 174.39 Z M 130.81 175.40 L 130.85 176.40 C 130.91 177.56 131.89 178.46 133.06 178.41 C 134.22 178.35 135.12 177.37 135.06 176.21 L 135.02 175.21 C 134.97 174.04 133.98 173.14 132.82 173.20 C 131.65 173.25 130.76 174.24 130.81 175.40 Z M 130.88 176.43 L 130.94 177.45 C 131.02 178.60 132.01 179.47 133.15 179.40 C 134.30 179.32 135.17 178.33 135.10 177.19 L 135.04 176.17 C 134.97 175.02 133.98 174.15 132.83 174.22 C 131.68 174.30 130.81 175.29 130.88 176.43 Z M 130.97 177.49 L 131.06 178.51 C 131.15 179.64 132.15 180.48 133.28 180.39 C 134.41 180.29 135.25 179.30 135.16 178.17 L 135.07 177.15 C 134.98 176.01 133.98 175.17 132.85 175.27 C 131.72 175.36 130.88 176.36 130.97 177.49 Z M 131.09 178.55 L 131.19 179.56 C 131.31 180.68 132.31 181.49 133.43 181.37 C 134.54 181.25 135.35 180.25 135.23 179.14 L 135.13 178.13 C 135.01 177.01 134.01 176.20 132.90 176.32 C 131.78 176.43 130.97 177.43 131.09 178.55 Z M 131.23 179.59 L 131.35 180.60 C 131.49 181.70 132.49 182.48 133.58 182.34 C 134.68 182.21 135.46 181.21 135.33 180.11 L 135.20 179.10 C 135.07 178.01 134.07 177.22 132.97 177.36 C 131.87 177.50 131.09 178.50 131.23 179.59 Z M 131.38 180.63 L 131.52 181.62 C 131.67 182.70 132.67 183.45 133.75 183.30 C 134.83 183.15 135.59 182.15 135.44 181.07 L 135.30 180.08 C 135.14 179.00 134.14 178.25 133.06 178.40 C 131.98 178.55 131.23 179.55 131.38 180.63 Z M 131.55 181.65 L 131.70 182.61 C 131.87 183.67 132.87 184.40 133.93 184.23 C 135.00 184.06 135.72 183.06 135.55 182.00 L 135.40 181.04 C 135.24 179.98 134.24 179.25 133.17 179.42 C 132.11 179.59 131.39 180.58 131.55 181.65 Z M 131.74 182.63 L 131.91 183.61 C 132.09 184.66 133.09 185.36 134.13 185.17 C 135.18 184.99 135.88 183.99 135.69 182.95 L 135.52 181.97 C 135.34 180.92 134.34 180.22 133.30 180.41 C 132.25 180.59 131.55 181.59 131.74 182.63 Z M 131.94 183.65 L 132.13 184.61 C 132.34 185.63 133.34 186.30 134.36 186.09 C 135.39 185.89 136.06 184.89 135.85 183.86 L 135.66 182.91 C 135.45 181.88 134.46 181.21 133.43 181.42 C 132.40 181.63 131.74 182.62 131.94 183.65 Z M 132.17 184.65 L 132.39 185.62 C 132.62 186.62 133.63 187.25 134.63 187.02 C 135.64 186.79 136.27 185.78 136.04 184.78 L 135.81 183.82 C 135.58 182.81 134.58 182.18 133.57 182.41 C 132.57 182.64 131.94 183.65 132.17 184.65 Z M 132.43 185.66 L 132.69 186.66 C 132.95 187.64 133.96 188.23 134.94 187.97 C 135.93 187.72 136.52 186.71 136.26 185.72 L 136.00 184.73 C 135.74 183.74 134.73 183.15 133.74 183.41 C 132.76 183.67 132.17 184.68 132.43 185.66 Z M 132.73 186.71 L 133.03 187.70 C 133.31 188.67 134.32 189.21 135.29 188.93 C 136.25 188.64 136.80 187.63 136.51 186.67 L 136.22 185.67 C 135.93 184.71 134.92 184.16 133.96 184.45 C 132.99 184.73 132.45 185.75 132.73 186.71 Z M 133.07 187.77 L 133.41 188.77 C 133.74 189.70 134.76 190.20 135.70 189.88 C 136.64 189.55 137.14 188.53 136.81 187.59 L 136.47 186.60 C 136.14 185.66 135.12 185.16 134.18 185.49 C 133.24 185.81 132.75 186.84 133.07 187.77 Z M 133.48 188.88 L 133.89 189.82 C 134.27 190.73 135.32 191.14 136.22 190.76 C 137.12 190.37 137.54 189.33 137.15 188.42 L 136.75 187.48 C 136.36 186.58 135.31 186.16 134.41 186.55 C 133.51 186.93 133.09 187.98 133.48 188.88 Z M 133.99 189.99 L 134.47 190.83 C 134.95 191.67 136.02 191.97 136.86 191.49 C 137.70 191.01 138.00 189.94 137.52 189.10 L 137.04 188.26 C 136.57 187.41 135.49 187.12 134.65 187.60 C 133.81 188.08 133.51 189.15 133.99 189.99 Z M 134.67 191.08 L 135.28 191.80 C 135.90 192.53 136.99 192.63 137.72 192.01 C 138.45 191.39 138.55 190.30 137.93 189.56 L 137.32 188.84 C 136.70 188.11 135.61 188.02 134.88 188.64 C 134.15 189.26 134.05 190.35 134.67 191.08 Z M 135.63 192.09 L 136.46 192.66 C 137.23 193.19 138.30 193.00 138.83 192.22 C 139.37 191.45 139.18 190.38 138.40 189.84 L 137.58 189.28 C 136.80 188.74 135.73 188.94 135.20 189.71 C 134.66 190.49 134.86 191.55 135.63 192.09 Z M 136.81 192.82 L 137.72 193.18 C 138.58 193.52 139.56 193.09 139.90 192.23 C 140.24 191.36 139.82 190.39 138.95 190.04 L 138.05 189.69 C 137.18 189.34 136.20 189.77 135.86 190.63 C 135.52 191.50 135.94 192.48 136.81 192.82 Z M 137.92 193.22 L 138.88 193.46 C 139.76 193.69 140.67 193.16 140.90 192.27 C 141.12 191.38 140.59 190.48 139.70 190.25 L 138.75 190.00 C 137.86 189.78 136.96 190.31 136.73 191.20 C 136.50 192.08 137.04 192.99 137.92 193.22 Z M 138.92 193.46 L 139.10 193.50 C 139.98 193.70 140.86 193.14 141.06 192.26 C 141.27 191.37 140.71 190.49 139.83 190.29 L 139.66 190.25 C 138.77 190.05 137.89 190.61 137.69 191.49 C 137.49 192.38 138.04 193.26 138.92 193.46 Z"
      fill="black"
      fill-rule="nonzero" /><path d="M 135.23 163.95 L 136.23 163.98 C 137.45 164.03 138.47 163.07 138.52 161.85 C 138.56 160.63 137.61 159.61 136.38 159.56 L 135.38 159.53 C 134.16 159.48 133.14 160.44 133.09 161.66 C 133.05 162.88 134.00 163.91 135.23 163.95 Z M 136.24 163.98 L 137.24 164.01 C 138.46 164.05 139.48 163.09 139.51 161.87 C 139.55 160.65 138.59 159.63 137.37 159.59 L 136.37 159.56 C 135.15 159.53 134.13 160.49 134.10 161.71 C 134.06 162.93 135.02 163.95 136.24 163.98 Z M 137.27 164.01 L 138.27 164.03 C 139.49 164.05 140.49 163.08 140.51 161.86 C 140.53 160.64 139.56 159.63 138.34 159.61 L 137.34 159.60 C 136.12 159.58 135.12 160.55 135.10 161.77 C 135.08 162.98 136.05 163.99 137.27 164.01 Z M 138.31 164.02 L 139.31 164.02 C 140.53 164.02 141.51 163.03 141.51 161.81 C 141.51 160.59 140.52 159.61 139.30 159.61 L 138.30 159.61 C 137.08 159.62 136.10 160.61 136.10 161.83 C 136.10 163.04 137.09 164.03 138.31 164.02 Z M 139.36 164.02 L 140.34 163.99 C 141.56 163.96 142.52 162.94 142.48 161.73 C 142.45 160.51 141.44 159.56 140.22 159.59 L 139.24 159.62 C 138.03 159.65 137.07 160.66 137.10 161.88 C 137.14 163.09 138.15 164.05 139.36 164.02 Z M 140.40 163.98 L 141.38 163.93 C 142.59 163.86 143.52 162.83 143.45 161.62 C 143.39 160.40 142.35 159.48 141.14 159.54 L 140.16 159.60 C 138.95 159.66 138.02 160.70 138.09 161.91 C 138.15 163.12 139.19 164.05 140.40 163.98 Z M 141.44 163.92 L 142.44 163.84 C 143.64 163.74 144.54 162.68 144.44 161.47 C 144.34 160.26 143.28 159.37 142.07 159.47 L 141.08 159.55 C 139.87 159.65 138.98 160.71 139.08 161.92 C 139.18 163.12 140.24 164.02 141.44 163.92 Z M 142.50 163.83 L 143.52 163.71 C 144.72 163.58 145.58 162.50 145.45 161.30 C 145.31 160.10 144.23 159.23 143.03 159.37 L 142.01 159.48 C 140.81 159.61 139.95 160.70 140.08 161.90 C 140.21 163.10 141.30 163.96 142.50 163.83 Z M 143.57 163.70 L 144.56 163.57 C 145.76 163.40 146.59 162.30 146.43 161.10 C 146.26 159.91 145.16 159.07 143.96 159.24 L 142.97 159.38 C 141.78 159.54 140.94 160.65 141.11 161.84 C 141.27 163.04 142.38 163.87 143.57 163.70 Z M 144.61 163.56 L 145.58 163.40 C 146.77 163.21 147.58 162.09 147.39 160.90 C 147.20 159.71 146.08 158.90 144.89 159.09 L 143.92 159.25 C 142.73 159.44 141.92 160.56 142.11 161.75 C 142.30 162.94 143.42 163.75 144.61 163.56 Z M 145.60 163.40 L 146.59 163.23 C 147.78 163.02 148.58 161.90 148.37 160.71 C 148.17 159.53 147.05 158.73 145.86 158.93 L 144.87 159.10 C 143.68 159.30 142.89 160.43 143.09 161.61 C 143.29 162.80 144.42 163.60 145.60 163.40 Z M 146.60 163.22 L 147.60 163.05 C 148.78 162.84 149.58 161.72 149.37 160.53 C 149.16 159.35 148.04 158.55 146.85 158.76 L 145.85 158.93 C 144.67 159.14 143.88 160.27 144.08 161.45 C 144.29 162.64 145.42 163.43 146.60 163.22 Z M 147.59 163.05 L 148.59 162.88 C 149.77 162.68 150.57 161.55 150.37 160.37 C 150.17 159.19 149.04 158.39 147.86 158.59 L 146.86 158.76 C 145.68 158.96 144.88 160.09 145.08 161.27 C 145.28 162.45 146.41 163.25 147.59 163.05 Z M 148.57 162.88 L 149.61 162.71 C 150.80 162.53 151.61 161.41 151.42 160.23 C 151.23 159.04 150.12 158.23 148.93 158.42 L 147.88 158.59 C 146.70 158.78 145.89 159.89 146.08 161.08 C 146.27 162.26 147.38 163.07 148.57 162.88 Z M 149.59 162.72 L 150.62 162.57 C 151.81 162.39 152.63 161.29 152.46 160.10 C 152.28 158.91 151.18 158.09 149.99 158.26 L 148.95 158.42 C 147.77 158.59 146.94 159.70 147.12 160.89 C 147.29 162.07 148.40 162.90 149.59 162.72 Z M 150.60 162.57 L 151.60 162.44 C 152.79 162.27 153.62 161.17 153.46 159.98 C 153.30 158.79 152.20 157.96 151.01 158.12 L 150.01 158.26 C 148.82 158.42 147.98 159.52 148.15 160.71 C 148.31 161.90 149.41 162.74 150.60 162.57 Z M 151.58 162.44 L 152.52 162.32 C 153.72 162.17 154.56 161.07 154.41 159.88 C 154.25 158.69 153.16 157.84 151.97 158.00 L 151.02 158.12 C 149.83 158.27 148.99 159.36 149.14 160.56 C 149.29 161.75 150.38 162.59 151.58 162.44 Z M 152.50 162.32 L 153.48 162.21 C 154.68 162.06 155.53 160.98 155.39 159.78 C 155.24 158.58 154.16 157.73 152.96 157.87 L 151.98 157.99 C 150.79 158.14 149.93 159.22 150.08 160.42 C 150.22 161.61 151.31 162.47 152.50 162.32 Z M 153.45 162.21 L 154.47 162.10 C 155.67 161.97 156.54 160.90 156.41 159.70 C 156.28 158.50 155.20 157.63 154.00 157.76 L 152.99 157.87 C 151.79 158.00 150.92 159.07 151.05 160.27 C 151.18 161.47 152.25 162.34 153.45 162.21 Z M 154.43 162.11 L 155.39 162.03 C 156.60 161.92 157.49 160.86 157.38 159.66 C 157.28 158.45 156.22 157.56 155.01 157.67 L 154.05 157.75 C 152.84 157.85 151.95 158.92 152.06 160.12 C 152.16 161.33 153.22 162.22 154.43 162.11 Z M 155.34 162.04 L 156.30 161.98 C 157.51 161.91 158.43 160.87 158.36 159.66 C 158.28 158.45 157.24 157.53 156.04 157.60 L 155.07 157.66 C 153.86 157.73 152.94 158.77 153.01 159.98 C 153.09 161.19 154.13 162.11 155.34 162.04 Z M 156.24 161.99 L 157.20 161.96 C 158.41 161.92 159.36 160.90 159.32 159.68 C 159.28 158.47 158.27 157.52 157.05 157.56 L 156.09 157.59 C 154.88 157.63 153.93 158.65 153.97 159.86 C 154.01 161.08 155.03 162.03 156.24 161.99 Z M 157.15 161.96 L 158.14 161.95 C 159.36 161.94 160.34 160.94 160.33 159.72 C 160.31 158.50 159.31 157.52 158.09 157.54 L 157.10 157.55 C 155.88 157.56 154.90 158.56 154.92 159.78 C 154.93 161.00 155.93 161.98 157.15 161.96 Z M 158.11 161.96 L 159.13 161.97 C 160.35 161.97 161.35 160.99 161.36 159.76 C 161.36 158.54 160.38 157.54 159.15 157.54 L 158.13 157.53 C 156.91 157.52 155.91 158.51 155.90 159.73 C 155.90 160.96 156.88 161.95 158.11 161.96 Z M 159.10 161.97 L 160.12 161.99 C 161.35 162.02 162.36 161.04 162.39 159.81 C 162.41 158.59 161.43 157.57 160.21 157.55 L 159.18 157.53 C 157.96 157.50 156.94 158.48 156.92 159.71 C 156.89 160.94 157.87 161.95 159.10 161.97 Z M 160.05 162.00 L 161.05 162.05 C 162.28 162.12 163.33 161.17 163.39 159.94 C 163.46 158.71 162.51 157.66 161.28 157.59 L 160.28 157.54 C 159.05 157.48 158.00 158.42 157.94 159.66 C 157.87 160.89 158.82 161.94 160.05 162.00 Z M 160.86 162.04 L 161.84 162.18 C 163.07 162.35 164.20 161.49 164.37 160.26 C 164.54 159.04 163.68 157.91 162.45 157.74 L 161.47 157.60 C 160.24 157.43 159.11 158.29 158.94 159.52 C 158.77 160.74 159.63 161.87 160.86 162.04 Z M 161.53 162.12 L 162.49 162.39 C 163.68 162.73 164.93 162.04 165.27 160.85 C 165.61 159.65 164.92 158.41 163.72 158.07 L 162.77 157.80 C 161.57 157.45 160.33 158.15 159.99 159.34 C 159.65 160.53 160.34 161.78 161.53 162.12 Z M 162.09 162.25 L 162.98 162.69 C 164.09 163.25 165.45 162.81 166.01 161.69 C 166.57 160.58 166.12 159.23 165.01 158.67 L 164.12 158.22 C 163.01 157.66 161.65 158.10 161.09 159.22 C 160.53 160.33 160.98 161.68 162.09 162.25 Z M 162.63 162.49 L 163.44 163.10 C 164.44 163.85 165.86 163.65 166.61 162.65 C 167.36 161.65 167.16 160.23 166.17 159.48 L 165.36 158.87 C 164.36 158.12 162.94 158.32 162.19 159.32 C 161.44 160.32 161.64 161.73 162.63 162.49 Z M 163.19 162.88 L 163.91 163.61 C 164.79 164.50 166.22 164.51 167.11 163.63 C 168.00 162.75 168.01 161.31 167.13 160.42 L 166.42 159.70 C 165.54 158.81 164.10 158.80 163.21 159.68 C 162.32 160.56 162.31 161.99 163.19 162.88 Z M 163.71 163.38 L 164.30 164.17 C 165.06 165.17 166.49 165.37 167.49 164.61 C 168.49 163.86 168.68 162.43 167.93 161.43 L 167.33 160.65 C 166.58 159.64 165.15 159.45 164.15 160.20 C 163.15 160.96 162.95 162.38 163.71 163.38 Z M 164.13 163.90 L 164.61 164.77 C 165.21 165.87 166.60 166.27 167.70 165.66 C 168.80 165.05 169.20 163.67 168.59 162.57 L 168.11 161.70 C 167.50 160.60 166.11 160.20 165.01 160.81 C 163.91 161.42 163.52 162.81 164.13 163.90 Z M 164.46 164.45 L 164.79 165.37 C 165.23 166.55 166.53 167.16 167.72 166.72 C 168.90 166.29 169.50 164.98 169.07 163.80 L 168.73 162.89 C 168.30 161.71 166.99 161.10 165.81 161.53 C 164.63 161.96 164.03 163.27 164.46 164.45 Z M 164.71 165.09 L 164.93 166.04 C 165.20 167.27 166.42 168.04 167.65 167.76 C 168.87 167.49 169.65 166.27 169.37 165.04 L 169.15 164.08 C 168.88 162.86 167.66 162.09 166.43 162.36 C 165.20 162.64 164.43 163.86 164.71 165.09 Z M 164.89 165.86 L 165.04 166.86 C 165.21 168.11 166.37 168.97 167.61 168.80 C 168.86 168.62 169.72 167.46 169.55 166.22 L 169.40 165.22 C 169.22 163.97 168.07 163.11 166.82 163.29 C 165.58 163.46 164.71 164.62 164.89 165.86 Z M 165.02 166.78 L 165.12 167.69 C 165.26 168.94 166.38 169.85 167.63 169.71 C 168.88 169.58 169.79 168.46 169.65 167.21 L 169.56 166.30 C 169.42 165.05 168.30 164.14 167.05 164.28 C 165.80 164.41 164.89 165.53 165.02 166.78 Z M 165.12 167.64 L 165.20 168.61 C 165.30 169.86 166.40 170.79 167.65 170.69 C 168.91 170.59 169.84 169.49 169.74 168.23 L 169.66 167.26 C 169.55 166.01 168.45 165.07 167.20 165.18 C 165.95 165.28 165.01 166.38 165.12 167.64 Z M 165.19 168.56 L 165.26 169.59 C 165.33 170.85 166.41 171.80 167.67 171.72 C 168.93 171.65 169.88 170.57 169.81 169.31 L 169.74 168.28 C 169.66 167.02 168.58 166.07 167.33 166.15 C 166.07 166.22 165.12 167.30 165.19 168.56 Z M 165.25 169.55 L 165.30 170.63 C 165.35 171.89 166.42 172.87 167.67 172.81 C 168.93 172.76 169.91 171.70 169.85 170.44 L 169.81 169.35 C 169.75 168.10 168.69 167.12 167.43 167.17 C 166.18 167.23 165.20 168.29 165.25 169.55 Z M 165.30 170.60 L 165.33 171.60 C 165.36 172.86 166.41 173.86 167.67 173.82 C 168.92 173.79 169.92 172.74 169.88 171.48 L 169.86 170.47 C 169.82 169.22 168.77 168.22 167.52 168.26 C 166.26 168.29 165.27 169.34 165.30 170.60 Z M 165.33 171.58 L 165.34 172.59 C 165.36 173.85 166.40 174.86 167.66 174.84 C 168.92 174.82 169.92 173.78 169.90 172.52 L 169.88 171.51 C 169.86 170.25 168.83 169.24 167.57 169.26 C 166.31 169.28 165.31 170.32 165.33 171.58 Z M 165.34 172.58 L 165.35 173.59 C 165.36 174.85 166.39 175.86 167.65 175.85 C 168.91 175.84 169.92 174.81 169.91 173.56 L 169.90 172.54 C 169.89 171.28 168.86 170.27 167.60 170.28 C 166.34 170.29 165.33 171.32 165.34 172.58 Z M 165.35 173.58 L 165.35 174.58 C 165.36 175.84 166.38 176.86 167.64 176.86 C 168.90 176.85 169.91 175.83 169.91 174.57 L 169.91 173.57 C 169.90 172.31 168.88 171.29 167.62 171.30 C 166.36 171.30 165.35 172.32 165.35 173.58 Z M 165.35 174.58 L 165.35 175.55 C 165.36 176.81 166.38 177.83 167.63 177.83 C 168.89 177.83 169.91 176.81 169.91 175.55 L 169.91 174.58 C 169.91 173.32 168.89 172.30 167.63 172.30 C 166.37 172.30 165.35 173.32 165.35 174.58 Z M 165.36 175.55 L 165.36 176.61 C 165.36 177.87 166.38 178.88 167.63 178.88 C 168.89 178.88 169.91 177.87 169.91 176.61 L 169.91 175.55 C 169.91 174.29 168.89 173.27 167.63 173.27 C 166.38 173.27 165.36 174.29 165.36 175.55 Z M 165.36 176.61 L 165.36 177.62 C 165.36 178.87 166.38 179.89 167.63 179.89 C 168.89 179.89 169.91 178.87 169.91 177.62 L 169.91 176.61 C 169.91 175.35 168.89 174.33 167.63 174.33 C 166.38 174.33 165.36 175.35 165.36 176.61 Z M 165.36 177.62 L 165.36 178.59 C 165.36 179.85 166.38 180.87 167.63 180.87 C 168.89 180.87 169.90 179.85 169.90 178.59 L 169.90 177.62 C 169.90 176.36 168.89 175.34 167.63 175.34 C 166.38 175.34 165.36 176.36 165.36 177.62 Z M 165.36 178.59 L 165.36 179.56 C 165.36 180.81 166.38 181.83 167.63 181.83 C 168.89 181.83 169.90 180.81 169.90 179.56 L 169.90 178.59 C 169.90 177.34 168.89 176.32 167.63 176.32 C 166.38 176.32 165.36 177.34 165.36 178.59 Z M 165.37 179.56 L 165.37 180.56 C 165.37 181.82 166.38 182.83 167.63 182.83 C 168.88 182.83 169.90 181.82 169.90 180.56 L 169.90 179.56 C 169.90 178.30 168.88 177.29 167.63 177.29 C 166.38 177.29 165.37 178.30 165.37 179.56 Z M 165.37 180.56 L 165.37 181.58 C 165.37 182.83 166.38 183.85 167.63 183.85 C 168.88 183.85 169.89 182.83 169.89 181.58 L 169.89 180.56 C 169.89 179.32 168.88 178.30 167.63 178.30 C 166.38 178.30 165.37 179.32 165.37 180.56 Z M 165.38 181.58 L 165.38 182.59 C 165.38 183.83 166.39 184.84 167.63 184.84 C 168.88 184.84 169.89 183.83 169.89 182.59 L 169.89 181.58 C 169.89 180.34 168.88 179.33 167.63 179.33 C 166.39 179.33 165.38 180.34 165.38 181.58 Z M 165.38 182.59 L 165.38 183.56 C 165.38 184.80 166.39 185.81 167.63 185.81 C 168.88 185.81 169.88 184.80 169.88 183.56 L 169.88 182.59 C 169.88 181.34 168.88 180.33 167.63 180.33 C 166.39 180.33 165.38 181.34 165.38 182.59 Z M 165.39 183.56 L 165.39 184.55 C 165.39 185.79 166.39 186.80 167.63 186.80 C 168.87 186.80 169.88 185.80 169.88 184.56 L 169.88 183.56 C 169.88 182.32 168.87 181.32 167.63 181.32 C 166.39 181.31 165.39 182.32 165.39 183.56 Z M 165.40 184.54 L 165.39 185.52 C 165.38 186.75 166.37 187.76 167.61 187.77 C 168.84 187.78 169.85 186.79 169.86 185.56 L 169.86 184.57 C 169.87 183.34 168.88 182.33 167.65 182.32 C 166.42 182.31 165.41 183.30 165.40 184.54 Z M 165.40 185.48 L 165.38 186.47 C 165.35 187.70 166.32 188.72 167.54 188.75 C 168.77 188.78 169.79 187.81 169.82 186.58 L 169.84 185.59 C 169.87 184.37 168.91 183.35 167.68 183.32 C 166.45 183.29 165.43 184.26 165.40 185.48 Z M 165.39 186.42 L 165.34 187.44 C 165.28 188.65 166.22 189.69 167.44 189.75 C 168.66 189.81 169.69 188.87 169.75 187.65 L 169.80 186.64 C 169.86 185.42 168.93 184.38 167.71 184.32 C 166.49 184.26 165.45 185.20 165.39 186.42 Z M 165.37 187.37 L 165.29 188.38 C 165.19 189.58 166.10 190.64 167.30 190.73 C 168.51 190.82 169.56 189.92 169.65 188.72 L 169.73 187.71 C 169.83 186.51 168.92 185.46 167.72 185.36 C 166.51 185.27 165.46 186.17 165.37 187.37 Z M 165.32 188.31 L 165.20 189.33 C 165.07 190.52 165.93 191.59 167.12 191.72 C 168.31 191.85 169.38 191.00 169.51 189.81 L 169.62 188.79 C 169.76 187.60 168.90 186.53 167.71 186.40 C 166.52 186.26 165.45 187.12 165.32 188.31 Z M 165.24 189.24 L 165.09 190.23 C 164.90 191.40 165.71 192.50 166.87 192.68 C 168.04 192.86 169.14 192.06 169.32 190.89 L 169.48 189.90 C 169.66 188.73 168.86 187.63 167.69 187.45 C 166.52 187.27 165.42 188.07 165.24 189.24 Z M 165.14 190.11 L 164.92 191.09 C 164.67 192.23 165.40 193.36 166.54 193.61 C 167.68 193.86 168.81 193.13 169.06 191.99 L 169.27 191.01 C 169.52 189.87 168.80 188.74 167.65 188.49 C 166.51 188.24 165.38 188.97 165.14 190.11 Z M 165.04 190.85 L 164.67 191.90 C 164.29 192.98 164.85 194.16 165.93 194.54 C 167.00 194.92 168.18 194.36 168.57 193.28 L 168.94 192.23 C 169.32 191.16 168.76 189.97 167.68 189.59 C 166.60 189.21 165.42 189.78 165.04 190.85 Z M 165.04 191.36 L 164.48 192.08 C 163.80 192.95 163.96 194.21 164.83 194.89 C 165.70 195.57 166.95 195.41 167.63 194.54 L 168.19 193.82 C 168.87 192.95 168.72 191.69 167.85 191.01 C 166.98 190.34 165.72 190.49 165.04 191.36 Z M 165.43 191.48 L 164.66 191.75 C 163.65 192.09 163.11 193.19 163.45 194.20 C 163.80 195.21 164.89 195.75 165.90 195.40 L 166.68 195.14 C 167.69 194.80 168.23 193.70 167.88 192.69 C 167.54 191.68 166.44 191.14 165.43 191.48 Z M 165.52 191.73 L 164.71 191.62 C 163.69 191.49 162.76 192.21 162.62 193.23 C 162.49 194.25 163.21 195.18 164.22 195.31 L 165.04 195.42 C 166.06 195.56 166.99 194.84 167.13 193.82 C 167.26 192.80 166.54 191.87 165.52 191.73 Z M 165.04 191.77 L 164.10 191.45 C 163.16 191.14 162.15 191.64 161.83 192.58 C 161.51 193.51 162.01 194.53 162.95 194.85 L 163.89 195.17 C 164.83 195.48 165.85 194.98 166.16 194.04 C 166.48 193.11 165.98 192.09 165.04 191.77 Z M 164.22 191.58 L 163.20 191.12 C 162.33 190.74 161.31 191.13 160.93 192.00 C 160.54 192.87 160.94 193.89 161.81 194.27 L 162.83 194.73 C 163.70 195.11 164.72 194.71 165.10 193.85 C 165.48 192.98 165.09 191.96 164.22 191.58 Z M 163.22 191.20 L 162.50 190.86 C 161.67 190.46 160.68 190.81 160.28 191.64 C 159.89 192.47 160.24 193.46 161.07 193.86 L 161.79 194.20 C 162.61 194.59 163.61 194.24 164.00 193.41 C 164.40 192.59 164.05 191.59 163.22 191.20 Z"
      fill="black"
      fill-rule="nonzero" /><path d="M 137.96 181.84 L 138.80 182.47 C 139.79 183.22 141.20 183.02 141.94 182.03 C 142.69 181.04 142.49 179.63 141.50 178.89 L 140.66 178.25 C 139.67 177.51 138.26 177.71 137.51 178.70 C 136.77 179.69 136.97 181.09 137.96 181.84 Z M 138.86 182.51 L 139.71 183.10 C 140.72 183.81 142.11 183.56 142.82 182.55 C 143.53 181.54 143.28 180.15 142.27 179.44 L 141.43 178.85 C 140.42 178.14 139.03 178.39 138.32 179.40 C 137.61 180.41 137.85 181.80 138.86 182.51 Z M 139.85 183.18 L 140.69 183.68 C 141.74 184.31 143.11 183.97 143.74 182.92 C 144.37 181.86 144.03 180.49 142.97 179.86 L 142.13 179.36 C 141.08 178.73 139.71 179.07 139.08 180.13 C 138.45 181.18 138.79 182.55 139.85 183.18 Z M 140.93 183.80 L 141.78 184.18 C 142.90 184.67 144.21 184.17 144.71 183.05 C 145.21 181.93 144.70 180.62 143.58 180.12 L 142.73 179.75 C 141.61 179.25 140.30 179.76 139.80 180.88 C 139.31 182.00 139.81 183.30 140.93 183.80 Z M 142.14 184.29 L 143.07 184.52 C 144.25 184.82 145.45 184.10 145.75 182.92 C 146.05 181.74 145.33 180.54 144.14 180.24 L 143.22 180.01 C 142.04 179.71 140.84 180.43 140.54 181.61 C 140.24 182.80 140.96 184.00 142.14 184.29 Z M 143.40 184.57 L 144.36 184.67 C 145.57 184.78 146.65 183.89 146.76 182.68 C 146.87 181.47 145.99 180.39 144.78 180.28 L 143.81 180.19 C 142.60 180.07 141.53 180.96 141.41 182.17 C 141.30 183.39 142.19 184.46 143.40 184.57 Z M 144.57 184.67 L 145.61 184.67 C 146.82 184.67 147.80 183.68 147.80 182.47 C 147.80 181.26 146.82 180.28 145.60 180.28 L 144.57 180.28 C 143.35 180.28 142.37 181.26 142.37 182.47 C 142.37 183.69 143.36 184.67 144.57 184.67 Z M 145.69 184.66 L 146.68 184.62 C 147.88 184.57 148.82 183.55 148.78 182.35 C 148.73 181.14 147.71 180.20 146.51 180.25 L 145.52 180.29 C 144.31 180.33 143.37 181.35 143.42 182.56 C 143.47 183.76 144.48 184.71 145.69 184.66 Z M 146.72 184.61 L 147.68 184.55 C 148.88 184.48 149.80 183.45 149.73 182.25 C 149.66 181.05 148.62 180.13 147.42 180.20 L 146.46 180.26 C 145.26 180.33 144.34 181.36 144.41 182.56 C 144.49 183.76 145.52 184.68 146.72 184.61 Z M 147.73 184.54 L 148.74 184.46 C 149.93 184.36 150.82 183.30 150.72 182.11 C 150.62 180.91 149.57 180.02 148.37 180.13 L 147.37 180.21 C 146.17 180.31 145.28 181.36 145.38 182.56 C 145.48 183.76 146.54 184.64 147.73 184.54 Z M 148.81 184.44 L 149.84 184.32 C 151.03 184.18 151.88 183.10 151.74 181.91 C 151.60 180.73 150.52 179.88 149.33 180.02 L 148.30 180.14 C 147.11 180.28 146.26 181.36 146.40 182.55 C 146.54 183.74 147.62 184.58 148.81 184.44 Z M 149.93 184.30 L 150.97 184.14 C 152.14 183.95 152.95 182.84 152.76 181.66 C 152.57 180.48 151.46 179.68 150.28 179.87 L 149.24 180.04 C 148.06 180.23 147.26 181.33 147.45 182.51 C 147.64 183.69 148.75 184.49 149.93 184.30 Z M 151.06 184.11 L 152.06 183.90 C 153.23 183.66 153.98 182.52 153.74 181.36 C 153.49 180.19 152.35 179.44 151.19 179.69 L 150.19 179.89 C 149.02 180.14 148.27 181.28 148.51 182.44 C 148.76 183.61 149.90 184.35 151.06 184.11 Z M 152.13 183.88 L 153.12 183.64 C 154.27 183.36 154.98 182.20 154.70 181.05 C 154.43 179.90 153.27 179.19 152.11 179.47 L 151.12 179.71 C 149.97 179.99 149.26 181.15 149.54 182.30 C 149.82 183.45 150.98 184.16 152.13 183.88 Z M 153.16 183.63 L 154.13 183.37 C 155.27 183.07 155.96 181.90 155.66 180.76 C 155.36 179.62 154.19 178.93 153.05 179.23 L 152.08 179.48 C 150.93 179.78 150.25 180.95 150.55 182.10 C 150.85 183.24 152.02 183.93 153.16 183.63 Z M 154.14 183.36 L 155.08 183.11 C 156.22 182.81 156.90 181.64 156.59 180.50 C 156.29 179.36 155.12 178.68 153.98 178.99 L 153.04 179.24 C 151.90 179.54 151.22 180.71 151.53 181.85 C 151.83 182.99 153.00 183.67 154.14 183.36 Z M 155.05 183.11 L 156.13 182.84 C 157.26 182.55 157.95 181.40 157.67 180.26 C 157.38 179.12 156.22 178.43 155.09 178.72 L 154.01 178.99 C 152.87 179.27 152.18 180.43 152.47 181.57 C 152.76 182.71 153.91 183.40 155.05 183.11 Z M 156.02 182.86 L 157.18 182.63 C 158.33 182.40 159.07 181.28 158.84 180.14 C 158.62 178.99 157.50 178.24 156.36 178.47 L 155.19 178.70 C 154.05 178.93 153.30 180.04 153.53 181.19 C 153.76 182.34 154.87 183.08 156.02 182.86 Z M 156.88 182.65 L 157.81 182.60 C 158.98 182.54 159.87 181.55 159.81 180.39 C 159.75 179.22 158.75 178.33 157.59 178.39 L 156.65 178.44 C 155.49 178.51 154.60 179.50 154.66 180.66 C 154.72 181.82 155.72 182.71 156.88 182.65 Z M 156.97 182.46 L 157.59 182.69 C 158.67 183.09 159.88 182.54 160.28 181.46 C 160.69 180.38 160.14 179.18 159.06 178.77 L 158.43 178.54 C 157.35 178.14 156.15 178.69 155.75 179.77 C 155.34 180.85 155.89 182.05 156.97 182.46 Z M 156.37 181.24 L 156.56 181.98 C 156.84 183.06 157.95 183.70 159.03 183.42 C 160.10 183.14 160.75 182.04 160.47 180.96 L 160.28 180.22 C 160.00 179.14 158.89 178.50 157.82 178.78 C 156.74 179.06 156.09 180.16 156.37 181.24 Z M 156.68 180.96 L 156.39 182.02 C 156.11 183.03 156.70 184.08 157.71 184.36 C 158.72 184.64 159.77 184.05 160.05 183.04 L 160.35 181.98 C 160.63 180.97 160.04 179.92 159.03 179.64 C 158.01 179.36 156.97 179.95 156.68 180.96 Z M 156.59 181.74 L 156.13 182.69 C 155.69 183.59 156.07 184.67 156.96 185.11 C 157.86 185.55 158.95 185.18 159.38 184.28 L 159.85 183.32 C 160.29 182.43 159.91 181.34 159.01 180.90 C 158.12 180.47 157.03 180.84 156.59 181.74 Z M 156.25 182.58 L 155.75 183.40 C 155.25 184.23 155.52 185.31 156.35 185.81 C 157.19 186.32 158.27 186.05 158.77 185.21 L 159.26 184.39 C 159.77 183.56 159.50 182.48 158.66 181.98 C 157.83 181.48 156.75 181.74 156.25 182.58 Z M 155.84 183.34 L 155.26 184.17 C 154.73 184.96 154.93 186.04 155.72 186.57 C 156.51 187.11 157.58 186.91 158.12 186.12 L 158.69 185.28 C 159.22 184.49 159.02 183.42 158.23 182.88 C 157.45 182.34 156.37 182.55 155.84 183.34 Z M 155.33 184.14 L 154.70 185.00 C 154.14 185.75 154.30 186.81 155.05 187.36 C 155.80 187.92 156.86 187.76 157.42 187.01 L 158.05 186.15 C 158.61 185.40 158.45 184.34 157.70 183.78 C 156.94 183.23 155.88 183.39 155.33 184.14 Z M 154.73 184.98 L 154.12 185.77 C 153.55 186.50 153.68 187.56 154.42 188.12 C 155.15 188.69 156.21 188.56 156.77 187.82 L 157.39 187.03 C 157.95 186.30 157.82 185.24 157.09 184.67 C 156.35 184.11 155.30 184.24 154.73 184.98 Z M 154.13 185.74 L 153.49 186.52 C 152.91 187.25 153.03 188.32 153.76 188.90 C 154.48 189.49 155.55 189.37 156.13 188.64 L 156.76 187.85 C 157.35 187.13 157.23 186.06 156.50 185.48 C 155.77 184.89 154.71 185.01 154.13 185.74 Z M 153.50 186.49 L 152.86 187.27 C 152.25 187.99 152.35 189.07 153.08 189.67 C 153.80 190.27 154.87 190.17 155.48 189.45 L 156.12 188.67 C 156.73 187.95 156.63 186.88 155.90 186.27 C 155.18 185.67 154.11 185.77 153.50 186.49 Z M 152.87 187.23 L 152.22 187.98 C 151.59 188.70 151.67 189.79 152.39 190.41 C 153.11 191.03 154.19 190.95 154.81 190.24 L 155.46 189.49 C 156.09 188.77 156.01 187.68 155.29 187.06 C 154.58 186.44 153.49 186.52 152.87 187.23 Z M 152.22 187.94 L 151.55 188.68 C 150.90 189.40 150.95 190.50 151.66 191.15 C 152.38 191.80 153.48 191.74 154.13 191.03 L 154.81 190.28 C 155.45 189.57 155.40 188.47 154.69 187.82 C 153.97 187.17 152.87 187.23 152.22 187.94 Z M 151.54 188.63 L 150.86 189.35 C 150.18 190.07 150.21 191.20 150.93 191.88 C 151.64 192.56 152.77 192.52 153.45 191.81 L 154.14 191.08 C 154.81 190.37 154.78 189.24 154.07 188.56 C 153.35 187.88 152.22 187.91 151.54 188.63 Z M 150.84 189.30 L 150.15 190.01 C 149.44 190.74 149.46 191.90 150.19 192.60 C 150.92 193.31 152.08 193.29 152.78 192.57 L 153.47 191.86 C 154.17 191.13 154.16 189.97 153.43 189.26 C 152.70 188.56 151.54 188.58 150.84 189.30 Z M 150.12 189.97 L 149.42 190.69 C 148.70 191.43 148.71 192.62 149.45 193.35 C 150.19 194.07 151.39 194.06 152.11 193.32 L 152.81 192.60 C 153.54 191.86 153.52 190.67 152.78 189.94 C 152.04 189.22 150.85 189.23 150.12 189.97 Z M 149.39 190.67 L 148.68 191.40 C 147.94 192.16 147.96 193.38 148.72 194.11 C 149.49 194.85 150.70 194.83 151.44 194.07 L 152.15 193.34 C 152.89 192.58 152.87 191.36 152.10 190.62 C 151.34 189.88 150.12 189.90 149.39 190.67 Z M 148.64 191.38 L 147.93 192.13 C 147.19 192.91 147.22 194.15 148.00 194.90 C 148.79 195.64 150.03 195.61 150.77 194.83 L 151.48 194.08 C 152.23 193.30 152.19 192.06 151.41 191.31 C 150.63 190.57 149.39 190.60 148.64 191.38 Z M 147.89 192.12 L 147.21 192.86 C 146.46 193.67 146.51 194.93 147.32 195.68 C 148.12 196.43 149.39 196.38 150.14 195.57 L 150.82 194.83 C 151.57 194.02 151.52 192.76 150.71 192.01 C 149.90 191.26 148.64 191.31 147.89 192.12 Z M 147.15 192.87 L 146.51 193.59 C 145.77 194.42 145.84 195.71 146.68 196.45 C 147.52 197.20 148.80 197.12 149.55 196.29 L 150.19 195.57 C 150.93 194.73 150.86 193.44 150.02 192.70 C 149.18 191.95 147.90 192.03 147.15 192.87 Z M 146.40 193.63 L 145.62 194.60 C 144.90 195.50 145.04 196.81 145.94 197.54 C 146.84 198.26 148.16 198.11 148.88 197.21 L 149.66 196.24 C 150.38 195.34 150.24 194.03 149.34 193.31 C 148.44 192.58 147.12 192.73 146.40 193.63 Z M 145.26 195.03 L 144.90 195.86 C 144.42 196.96 144.92 198.24 146.01 198.72 C 147.11 199.20 148.40 198.70 148.88 197.61 L 149.24 196.78 C 149.72 195.68 149.22 194.40 148.13 193.92 C 147.03 193.43 145.75 193.93 145.26 195.03 Z M 145.05 198.03 L 145.40 198.52 C 146.12 199.54 147.53 199.78 148.54 199.06 C 149.55 198.34 149.79 196.94 149.07 195.92 L 148.72 195.43 C 148.01 194.42 146.60 194.18 145.59 194.90 C 144.58 195.62 144.34 197.02 145.05 198.03 Z M 146.73 199.45 L 147.46 199.62 C 148.69 199.90 149.92 199.13 150.20 197.91 C 150.48 196.68 149.72 195.45 148.49 195.17 L 147.75 195.00 C 146.52 194.72 145.30 195.49 145.02 196.71 C 144.73 197.94 145.50 199.16 146.73 199.45 Z M 147.93 199.67 L 148.95 199.70 C 150.21 199.72 151.25 198.73 151.28 197.47 C 151.31 196.21 150.31 195.16 149.05 195.14 L 148.03 195.11 C 146.77 195.09 145.72 196.08 145.70 197.34 C 145.67 198.60 146.67 199.65 147.93 199.67 Z M 149.21 199.69 L 150.38 199.58 C 151.63 199.47 152.56 198.36 152.44 197.10 C 152.33 195.85 151.22 194.92 149.96 195.04 L 148.79 195.15 C 147.54 195.26 146.61 196.37 146.73 197.62 C 146.84 198.88 147.95 199.80 149.21 199.69 Z M 150.58 199.55 L 151.73 199.33 C 152.97 199.11 153.79 197.92 153.56 196.69 C 153.33 195.45 152.15 194.64 150.91 194.86 L 149.76 195.07 C 148.53 195.30 147.71 196.48 147.94 197.72 C 148.16 198.95 149.35 199.77 150.58 199.55 Z M 151.91 199.26 L 152.94 198.98 C 154.14 198.66 154.84 197.42 154.52 196.23 C 154.19 195.03 152.96 194.33 151.76 194.65 L 150.73 194.93 C 149.54 195.26 148.83 196.49 149.16 197.69 C 149.48 198.88 150.72 199.59 151.91 199.26 Z M 153.08 198.90 L 154.04 198.56 C 155.19 198.16 155.79 196.91 155.39 195.76 C 154.99 194.61 153.73 194.00 152.59 194.40 L 151.63 194.74 C 150.48 195.14 149.87 196.40 150.27 197.54 C 150.67 198.69 151.93 199.30 153.08 198.90 Z M 154.14 198.48 L 155.03 198.11 C 156.13 197.65 156.66 196.39 156.20 195.29 C 155.74 194.19 154.48 193.66 153.38 194.12 L 152.49 194.49 C 151.38 194.94 150.86 196.21 151.31 197.31 C 151.77 198.41 153.03 198.94 154.14 198.48 Z M 155.09 198.04 L 155.93 197.65 C 156.99 197.16 157.46 195.90 156.97 194.84 C 156.48 193.78 155.22 193.31 154.16 193.80 L 153.32 194.19 C 152.25 194.68 151.79 195.94 152.28 197.00 C 152.77 198.06 154.03 198.53 155.09 198.04 Z M 155.96 197.56 L 156.92 197.09 C 157.93 196.58 158.34 195.35 157.84 194.33 C 157.33 193.32 156.10 192.91 155.09 193.41 L 154.13 193.89 C 153.12 194.39 152.70 195.63 153.21 196.64 C 153.72 197.66 154.95 198.07 155.96 197.56 Z M 156.93 196.99 L 157.80 196.52 C 158.76 196.01 159.13 194.81 158.61 193.86 C 158.10 192.90 156.91 192.53 155.95 193.04 L 155.07 193.51 C 154.12 194.02 153.75 195.22 154.26 196.17 C 154.78 197.13 155.97 197.50 156.93 196.99 Z M 157.80 196.43 L 158.62 195.97 C 159.53 195.46 159.86 194.31 159.35 193.40 C 158.84 192.49 157.69 192.17 156.78 192.67 L 155.96 193.14 C 155.05 193.64 154.72 194.79 155.23 195.70 C 155.74 196.61 156.89 196.94 157.80 196.43 Z M 158.61 195.89 L 159.43 195.42 C 160.30 194.92 160.60 193.81 160.10 192.94 C 159.60 192.07 158.49 191.77 157.62 192.27 L 156.80 192.74 C 155.93 193.24 155.63 194.35 156.13 195.22 C 156.63 196.09 157.74 196.39 158.61 195.89 Z M 159.43 195.36 L 160.26 194.87 C 161.10 194.37 161.37 193.29 160.88 192.45 C 160.38 191.61 159.29 191.34 158.46 191.83 L 157.62 192.33 C 156.79 192.83 156.51 193.91 157.01 194.75 C 157.51 195.59 158.59 195.86 159.43 195.36 Z M 160.27 194.81 L 161.14 194.26 C 161.94 193.76 162.19 192.70 161.68 191.90 C 161.18 191.09 160.12 190.85 159.31 191.35 L 158.45 191.89 C 157.64 192.40 157.40 193.46 157.90 194.26 C 158.41 195.07 159.47 195.31 160.27 194.81 Z M 161.16 194.21 L 161.99 193.65 C 162.77 193.14 162.98 192.10 162.46 191.32 C 161.95 190.55 160.90 190.34 160.13 190.85 L 159.29 191.41 C 158.52 191.92 158.31 192.97 158.82 193.74 C 159.34 194.51 160.38 194.72 161.16 194.21 Z M 162.01 193.62 L 162.80 193.07 C 163.56 192.55 163.74 191.51 163.22 190.75 C 162.70 190.00 161.66 189.81 160.90 190.34 L 160.11 190.89 C 159.36 191.41 159.17 192.45 159.69 193.20 C 160.22 193.96 161.25 194.14 162.01 193.62 Z M 162.81 193.05 L 163.64 192.46 C 164.38 191.93 164.56 190.90 164.03 190.15 C 163.49 189.41 162.46 189.24 161.72 189.77 L 160.89 190.35 C 160.15 190.89 159.98 191.92 160.51 192.66 C 161.04 193.41 162.07 193.58 162.81 193.05 Z M 163.64 192.45 L 164.48 191.84 C 165.22 191.31 165.39 190.28 164.85 189.54 C 164.32 188.81 163.29 188.64 162.55 189.17 L 161.71 189.78 C 160.98 190.31 160.81 191.34 161.34 192.08 C 161.88 192.82 162.91 192.98 163.64 192.45 Z M 164.48 191.83 L 164.90 191.53 C 165.63 191.00 165.80 189.97 165.26 189.24 C 164.73 188.51 163.71 188.34 162.97 188.88 L 162.55 189.18 C 161.82 189.71 161.66 190.74 162.19 191.47 C 162.72 192.20 163.75 192.37 164.48 191.83 Z"
      fill="black"
      fill-rule="nonzero" /></svg>