<svg xmlns="http://www.w3.org/2000/svg" width="300" height="300" viewBox="0 0 300 300">
<path d="M 112.81 139.78 L 112.44 140.64 C 111.96 141.75 112.47 143.05 113.59 143.53 C 114.70 144.01 116.00 143.50 116.48 142.38 L 116.85 141.53 C 117.33 140.42 116.82 139.12 115.70 138.64 C 114.59 138.16 113.30 138.67 112.81 139.78 Z M 112.39 140.75 L 112.06 141.66 C 111.64 142.80 112.23 144.07 113.37 144.49 C 114.51 144.91 115.78 144.32 116.19 143.18 L 116.53 142.27 C 116.95 141.13 116.36 139.86 115.22 139.44 C 114.08 139.02 112.81 139.61 112.39 140.75 Z M 111.99 141.87 L 111.72 142.89 C 111.42 144.07 112.13 145.28 113.31 145.58 C 114.49 145.89 115.69 145.18 116.00 144.00 L 116.26 142.97 C 116.57 141.79 115.86 140.59 114.68 140.28 C 113.50 139.98 112.30 140.69 111.99 141.87 Z M 111.68 143.12 L 111.53 144.08 C 111.35 145.29 112.19 146.41 113.40 146.59 C 114.60 146.77 115.73 145.94 115.91 144.73 L 116.05 143.77 C 116.23 142.56 115.39 141.44 114.19 141.26 C 112.98 141.08 111.85 141.91 111.68 143.12 Z M 111.51 144.25 L 111.45 145.22 C 111.36 146.44 112.28 147.49 113.50 147.58 C 114.72 147.67 115.77 146.75 115.86 145.53 L 115.93 144.56 C 116.01 143.34 115.09 142.29 113.88 142.20 C 112.66 142.11 111.60 143.03 111.51 144.25 Z M 111.44 145.34 L 111.42 146.36 C 111.40 147.58 112.38 148.59 113.60 148.61 C 114.82 148.63 115.83 147.65 115.85 146.43 L 115.86 145.41 C 115.88 144.19 114.91 143.18 113.69 143.16 C 112.47 143.14 111.46 144.12 111.44 145.34 Z M 111.42 146.45 L 111.45 147.50 C 111.49 148.72 112.50 149.68 113.72 149.65 C 114.94 149.62 115.91 148.60 115.88 147.38 L 115.85 146.33 C 115.81 145.11 114.80 144.15 113.58 144.18 C 112.36 144.22 111.39 145.23 111.42 146.45 Z M 111.46 147.58 L 111.52 148.58 C 111.59 149.80 112.64 150.72 113.86 150.65 C 115.08 150.57 116.01 149.52 115.93 148.30 L 115.87 147.30 C 115.80 146.08 114.75 145.16 113.53 145.23 C 112.31 145.31 111.38 146.36 111.46 147.58 Z M 111.52 148.64 L 111.61 149.56 C 111.72 150.77 112.79 151.67 114.01 151.56 C 115.23 151.45 116.12 150.37 116.01 149.16 L 115.93 148.24 C 115.82 147.02 114.74 146.13 113.53 146.24 C 112.31 146.35 111.41 147.42 111.52 148.64 Z M 111.61 149.61 L 111.72 150.54 C 111.86 151.76 112.95 152.63 114.17 152.49 C 115.38 152.35 116.25 151.25 116.11 150.04 L 116.01 149.10 C 115.87 147.89 114.77 147.02 113.56 147.16 C 112.34 147.30 111.47 148.39 111.61 149.61 Z M 111.72 150.58 L 111.85 151.57 C 112.01 152.78 113.12 153.63 114.33 153.47 C 115.54 153.31 116.40 152.20 116.24 150.99 L 116.11 150.00 C 115.95 148.79 114.84 147.94 113.63 148.10 C 112.42 148.26 111.56 149.37 111.72 150.58 Z M 111.86 151.59 L 112.01 152.65 C 112.18 153.86 113.29 154.71 114.50 154.53 C 115.71 154.36 116.56 153.25 116.39 152.04 L 116.24 150.97 C 116.07 149.76 114.95 148.92 113.74 149.09 C 112.53 149.26 111.68 150.38 111.86 151.59 Z M 112.01 152.66 L 112.16 153.72 C 112.33 154.92 113.46 155.76 114.66 155.59 C 115.87 155.41 116.71 154.29 116.54 153.08 L 116.38 152.03 C 116.21 150.82 115.09 149.98 113.88 150.16 C 112.67 150.33 111.83 151.45 112.01 152.66 Z M 112.16 153.72 L 112.30 154.68 C 112.48 155.89 113.60 156.73 114.81 156.55 C 116.02 156.37 116.85 155.25 116.68 154.04 L 116.54 153.08 C 116.36 151.87 115.24 151.03 114.03 151.21 C 112.82 151.39 111.98 152.51 112.16 153.72 Z M 112.30 154.68 L 112.45 155.69 C 112.63 156.90 113.75 157.73 114.96 157.55 C 116.17 157.37 117.00 156.25 116.82 155.04 L 116.67 154.04 C 116.50 152.83 115.37 152.00 114.17 152.17 C 112.96 152.35 112.12 153.48 112.30 154.68 Z M 112.45 155.69 L 112.60 156.72 C 112.79 157.92 113.91 158.76 115.12 158.58 C 116.32 158.39 117.16 157.27 116.97 156.06 L 116.82 155.04 C 116.64 153.83 115.52 153.00 114.31 153.18 C 113.10 153.36 112.27 154.49 112.45 155.69 Z M 112.61 156.73 L 112.76 157.75 C 112.95 158.95 114.08 159.78 115.28 159.60 C 116.49 159.41 117.31 158.28 117.13 157.08 L 116.97 156.06 C 116.79 154.85 115.66 154.02 114.45 154.21 C 113.25 154.39 112.42 155.52 112.61 156.73 Z M 112.77 157.76 L 112.92 158.76 C 113.11 159.96 114.24 160.78 115.45 160.59 C 116.65 160.40 117.48 159.27 117.28 158.07 L 117.13 157.07 C 116.94 155.86 115.81 155.04 114.60 155.23 C 113.40 155.42 112.58 156.55 112.77 157.76 Z M 112.93 158.77 L 113.08 159.72 C 113.28 160.92 114.42 161.74 115.62 161.54 C 116.82 161.34 117.64 160.21 117.44 159.00 L 117.28 158.05 C 117.08 156.85 115.95 156.04 114.75 156.23 C 113.54 156.43 112.73 157.57 112.93 158.77 Z M 113.09 159.74 L 113.29 160.88 C 113.50 162.08 114.64 162.88 115.84 162.67 C 117.04 162.46 117.84 161.32 117.63 160.12 L 117.43 158.98 C 117.22 157.78 116.08 156.98 114.88 157.19 C 113.68 157.40 112.88 158.54 113.09 159.74 Z M 113.30 160.90 L 113.49 161.95 C 113.72 163.15 114.86 163.94 116.06 163.71 C 117.25 163.49 118.04 162.34 117.82 161.15 L 117.62 160.10 C 117.40 158.90 116.25 158.12 115.06 158.34 C 113.86 158.56 113.07 159.71 113.30 160.90 Z M 113.50 161.98 L 113.69 162.94 C 113.93 164.13 115.09 164.90 116.28 164.67 C 117.46 164.43 118.24 163.27 118.00 162.09 L 117.81 161.12 C 117.57 159.93 116.42 159.16 115.23 159.40 C 114.04 159.63 113.26 160.79 113.50 161.98 Z M 113.70 162.97 L 113.89 163.86 C 114.14 165.05 115.31 165.80 116.49 165.55 C 117.67 165.30 118.43 164.14 118.18 162.96 L 117.99 162.06 C 117.74 160.88 116.58 160.12 115.39 160.37 C 114.21 160.62 113.45 161.78 113.70 162.97 Z M 113.90 163.89 L 114.09 164.74 C 114.35 165.92 115.52 166.66 116.70 166.40 C 117.88 166.14 118.62 164.97 118.36 163.79 L 118.17 162.94 C 117.91 161.76 116.74 161.01 115.56 161.28 C 114.38 161.54 113.64 162.71 113.90 163.89 Z M 114.10 164.76 L 114.35 165.80 C 114.62 166.98 115.79 167.71 116.96 167.43 C 118.14 167.16 118.87 165.99 118.59 164.81 L 118.35 163.77 C 118.08 162.60 116.90 161.87 115.73 162.14 C 114.56 162.42 113.83 163.59 114.10 164.76 Z M 114.36 165.83 L 114.61 166.82 C 114.90 167.99 116.07 168.70 117.24 168.41 C 118.40 168.12 119.11 166.94 118.82 165.77 L 118.58 164.78 C 118.29 163.62 117.11 162.91 115.94 163.20 C 114.78 163.49 114.07 164.67 114.36 165.83 Z M 114.62 166.86 L 114.87 167.79 C 115.18 168.95 116.37 169.63 117.53 169.32 C 118.68 169.01 119.37 167.82 119.06 166.67 L 118.81 165.73 C 118.50 164.58 117.31 163.89 116.15 164.20 C 115.00 164.51 114.31 165.70 114.62 166.86 Z M 114.90 167.84 L 115.17 168.76 C 115.50 169.90 116.70 170.55 117.85 170.21 C 118.99 169.88 119.64 168.68 119.31 167.53 L 119.04 166.62 C 118.70 165.48 117.50 164.82 116.36 165.16 C 115.21 165.50 114.56 166.70 114.90 167.84 Z M 115.21 168.84 L 115.54 169.80 C 115.92 170.92 117.14 171.52 118.26 171.13 C 119.38 170.75 119.98 169.53 119.59 168.41 L 119.27 167.45 C 118.88 166.33 117.66 165.73 116.54 166.11 C 115.42 166.50 114.82 167.72 115.21 168.84 Z M 115.62 169.96 L 116.01 170.86 C 116.49 171.94 117.75 172.43 118.82 171.95 C 119.90 171.48 120.38 170.22 119.91 169.14 L 119.51 168.24 C 119.04 167.17 117.78 166.68 116.70 167.16 C 115.63 167.63 115.14 168.89 115.62 169.96 Z M 116.15 171.09 L 116.66 171.94 C 117.26 172.94 118.56 173.26 119.56 172.66 C 120.56 172.06 120.88 170.76 120.28 169.76 L 119.77 168.92 C 119.17 167.92 117.87 167.59 116.87 168.19 C 115.87 168.79 115.55 170.09 116.15 171.09 Z M 116.84 172.18 L 117.45 172.92 C 118.18 173.82 119.51 173.95 120.41 173.22 C 121.30 172.49 121.44 171.16 120.70 170.27 L 120.10 169.52 C 119.36 168.62 118.04 168.49 117.14 169.22 C 116.24 169.96 116.11 171.28 116.84 172.18 Z M 117.67 173.14 L 118.41 173.81 C 119.26 174.58 120.58 174.52 121.36 173.67 C 122.13 172.81 122.07 171.49 121.22 170.71 L 120.48 170.05 C 119.63 169.27 118.31 169.33 117.53 170.19 C 116.75 171.04 116.82 172.36 117.67 173.14 Z M 118.68 174.01 L 119.53 174.56 C 120.50 175.19 121.79 174.91 122.41 173.95 C 123.04 172.98 122.76 171.69 121.80 171.07 L 120.94 170.51 C 119.98 169.89 118.69 170.16 118.06 171.13 C 117.44 172.09 117.71 173.38 118.68 174.01 Z M 119.86 174.72 L 120.79 175.11 C 121.84 175.56 123.06 175.07 123.50 174.01 C 123.95 172.96 123.45 171.74 122.40 171.30 L 121.47 170.91 C 120.42 170.46 119.20 170.95 118.76 172.01 C 118.31 173.06 118.81 174.28 119.86 174.72 Z M 121.13 175.22 L 122.07 175.43 C 123.18 175.69 124.29 174.99 124.55 173.88 C 124.80 172.77 124.11 171.67 123.00 171.41 L 122.05 171.20 C 120.94 170.94 119.84 171.63 119.58 172.74 C 119.33 173.85 120.02 174.96 121.13 175.22 Z M 122.42 175.47 L 123.41 175.53 C 124.54 175.59 125.51 174.73 125.58 173.60 C 125.65 172.47 124.78 171.50 123.65 171.43 L 122.66 171.37 C 121.53 171.31 120.55 172.17 120.49 173.30 C 120.42 174.43 121.29 175.40 122.42 175.47 Z M 123.76 175.51 L 124.78 175.39 C 125.90 175.27 126.70 174.25 126.58 173.13 C 126.45 172.01 125.44 171.21 124.32 171.34 L 123.30 171.45 C 122.18 171.58 121.38 172.59 121.50 173.71 C 121.63 174.83 122.64 175.64 123.76 175.51 Z M 125.12 175.31 L 126.09 175.02 C 127.17 174.71 127.78 173.58 127.46 172.50 C 127.15 171.43 126.02 170.81 124.94 171.13 L 123.97 171.42 C 122.90 171.74 122.28 172.87 122.60 173.94 C 122.92 175.02 124.05 175.63 125.12 175.31 Z M 126.37 174.91 L 127.27 174.49 C 128.28 174.01 128.72 172.81 128.25 171.80 C 127.77 170.79 126.57 170.36 125.56 170.83 L 124.66 171.25 C 123.65 171.72 123.22 172.92 123.69 173.93 C 124.16 174.94 125.36 175.38 126.37 174.91 Z M 127.46 174.37 L 128.32 173.85 C 129.27 173.27 129.57 172.04 129.00 171.09 C 128.43 170.15 127.19 169.84 126.24 170.42 L 125.38 170.94 C 124.43 171.52 124.13 172.75 124.70 173.70 C 125.28 174.64 126.51 174.95 127.46 174.37 Z M 128.45 173.75 L 129.27 173.16 C 130.16 172.52 130.37 171.27 129.73 170.38 C 129.08 169.48 127.84 169.28 126.94 169.92 L 126.12 170.51 C 125.23 171.16 125.02 172.40 125.67 173.30 C 126.31 174.19 127.55 174.39 128.45 173.75 Z M 129.35 173.08 L 130.13 172.46 C 130.98 171.77 131.11 170.52 130.43 169.67 C 129.74 168.82 128.49 168.69 127.64 169.37 L 126.86 170.00 C 126.01 170.68 125.88 171.93 126.56 172.78 C 127.25 173.64 128.50 173.77 129.35 173.08 Z M 130.18 172.40 L 130.96 171.71 C 131.78 171.00 131.86 169.75 131.14 168.93 C 130.43 168.11 129.18 168.03 128.36 168.75 L 127.58 169.43 C 126.76 170.15 126.68 171.40 127.40 172.22 C 128.12 173.03 129.36 173.12 130.18 172.40 Z M 131.02 171.65 L 131.74 170.96 C 132.52 170.21 132.55 168.97 131.80 168.19 C 131.05 167.40 129.81 167.38 129.02 168.13 L 128.31 168.81 C 127.52 169.56 127.49 170.81 128.24 171.59 C 128.99 172.37 130.24 172.40 131.02 171.65 Z M 131.79 170.90 L 132.47 170.19 C 133.22 169.42 133.19 168.18 132.41 167.43 C 131.63 166.68 130.40 166.71 129.65 167.49 L 128.97 168.19 C 128.22 168.97 128.25 170.21 129.03 170.96 C 129.81 171.70 131.04 171.68 131.79 170.90 Z M 132.51 170.13 L 133.16 169.40 C 133.88 168.60 133.80 167.37 133.00 166.65 C 132.20 165.94 130.96 166.01 130.25 166.82 L 129.60 167.55 C 128.89 168.35 128.96 169.58 129.76 170.30 C 130.57 171.01 131.80 170.94 132.51 170.13 Z M 133.20 169.35 L 133.82 168.61 C 134.50 167.78 134.39 166.56 133.57 165.87 C 132.75 165.19 131.52 165.30 130.84 166.12 L 130.22 166.87 C 129.53 167.69 129.64 168.92 130.46 169.60 C 131.29 170.29 132.51 170.18 133.20 169.35 Z M 133.84 168.57 L 134.46 167.79 C 135.12 166.95 134.98 165.74 134.15 165.07 C 133.31 164.41 132.09 164.55 131.43 165.39 L 130.81 166.16 C 130.15 167.00 130.29 168.22 131.13 168.88 C 131.96 169.54 133.18 169.40 133.84 168.57 Z M 134.47 167.76 L 135.09 166.96 C 135.74 166.11 135.58 164.90 134.74 164.26 C 133.89 163.61 132.68 163.77 132.04 164.61 L 131.42 165.41 C 130.77 166.26 130.93 167.47 131.77 168.12 C 132.62 168.76 133.82 168.60 134.47 167.76 Z M 135.10 166.94 L 135.71 166.12 C 136.35 165.27 136.18 164.07 135.34 163.43 C 134.49 162.79 133.29 162.96 132.65 163.81 L 132.03 164.63 C 131.39 165.47 131.56 166.68 132.41 167.32 C 133.25 167.95 134.46 167.78 135.10 166.94 Z M 135.71 166.10 L 136.31 165.30 C 136.95 164.45 136.77 163.26 135.93 162.63 C 135.08 161.99 133.88 162.17 133.25 163.01 L 132.65 163.82 C 132.02 164.66 132.19 165.86 133.04 166.49 C 133.88 167.12 135.08 166.95 135.71 166.10 Z M 136.31 165.29 L 136.91 164.48 C 137.54 163.63 137.36 162.44 136.51 161.81 C 135.67 161.19 134.47 161.37 133.85 162.21 L 133.25 163.03 C 132.63 163.87 132.81 165.06 133.65 165.69 C 134.50 166.31 135.69 166.13 136.31 165.29 Z M 136.91 164.46 L 137.51 163.65 C 138.12 162.80 137.94 161.62 137.09 161.00 C 136.24 160.38 135.06 160.57 134.44 161.42 L 133.85 162.23 C 133.23 163.08 133.42 164.26 134.27 164.88 C 135.11 165.49 136.30 165.31 136.91 164.46 Z M 137.51 163.63 L 138.08 162.83 C 138.69 161.98 138.49 160.80 137.64 160.19 C 136.80 159.59 135.62 159.78 135.01 160.63 L 134.44 161.44 C 133.83 162.28 134.03 163.46 134.87 164.07 C 135.72 164.68 136.90 164.48 137.51 163.63 Z M 138.09 162.81 L 138.65 162.00 C 139.25 161.15 139.04 159.98 138.18 159.38 C 137.33 158.79 136.16 159.00 135.56 159.85 L 135.00 160.65 C 134.41 161.51 134.62 162.68 135.47 163.27 C 136.32 163.87 137.50 163.66 138.09 162.81 Z M 138.66 161.98 L 139.21 161.17 C 139.79 160.32 139.57 159.15 138.71 158.57 C 137.85 157.99 136.68 158.21 136.10 159.07 L 135.55 159.87 C 134.97 160.73 135.20 161.90 136.05 162.48 C 136.91 163.06 138.08 162.84 138.66 161.98 Z M 139.22 161.15 L 139.76 160.32 C 140.33 159.46 140.09 158.30 139.23 157.73 C 138.36 157.16 137.20 157.40 136.63 158.27 L 136.09 159.09 C 135.52 159.96 135.76 161.12 136.63 161.69 C 137.49 162.25 138.65 162.01 139.22 161.15 Z M 139.77 160.30 L 140.33 159.42 C 140.88 158.55 140.62 157.40 139.75 156.85 C 138.88 156.29 137.73 156.55 137.18 157.42 L 136.62 158.29 C 136.07 159.16 136.33 160.32 137.20 160.87 C 138.07 161.42 139.22 161.17 139.77 160.30 Z M 140.34 159.40 L 140.87 158.53 C 141.41 157.66 141.14 156.51 140.27 155.97 C 139.39 155.43 138.24 155.70 137.70 156.58 L 137.17 157.44 C 136.63 158.32 136.90 159.47 137.77 160.01 C 138.65 160.55 139.80 160.28 140.34 159.40 Z M 140.88 158.52 L 141.41 157.64 C 141.94 156.76 141.66 155.62 140.78 155.09 C 139.90 154.55 138.76 154.84 138.23 155.71 L 137.70 156.59 C 137.17 157.47 137.45 158.61 138.33 159.14 C 139.20 159.67 140.34 159.39 140.88 158.52 Z M 141.41 157.63 L 141.94 156.74 C 142.46 155.87 142.18 154.73 141.30 154.20 C 140.43 153.68 139.29 153.96 138.76 154.84 L 138.23 155.72 C 137.71 156.60 137.99 157.74 138.87 158.26 C 139.74 158.79 140.88 158.50 141.41 157.63 Z M 141.93 156.74 L 142.45 155.88 C 142.97 155.01 142.69 153.87 141.81 153.35 C 140.94 152.83 139.80 153.11 139.28 153.98 L 138.77 154.84 C 138.24 155.72 138.53 156.85 139.40 157.37 C 140.28 157.90 141.41 157.61 141.93 156.74 Z M 142.44 155.89 L 142.94 155.07 C 143.46 154.20 143.18 153.06 142.31 152.54 C 141.44 152.01 140.31 152.29 139.78 153.16 L 139.29 153.98 C 138.76 154.85 139.04 155.98 139.91 156.51 C 140.78 157.04 141.91 156.76 142.44 155.89 Z M 142.93 155.08 L 143.51 154.14 C 144.04 153.27 143.77 152.14 142.91 151.61 C 142.04 151.07 140.91 151.34 140.38 152.21 L 139.79 153.15 C 139.26 154.01 139.53 155.15 140.39 155.68 C 141.26 156.21 142.39 155.94 142.93 155.08 Z M 143.50 154.15 L 144.03 153.31 C 144.57 152.44 144.30 151.31 143.44 150.77 C 142.58 150.23 141.44 150.49 140.90 151.36 L 140.38 152.20 C 139.84 153.06 140.10 154.20 140.97 154.73 C 141.83 155.27 142.97 155.01 143.50 154.15 Z M 144.03 153.30 L 144.52 152.51 C 145.05 151.65 144.79 150.51 143.92 149.98 C 143.05 149.44 141.92 149.71 141.38 150.58 L 140.90 151.36 C 140.36 152.23 140.63 153.37 141.50 153.90 C 142.36 154.44 143.50 154.17 144.03 153.30 Z M 144.54 152.49 L 145.03 151.66 C 145.56 150.79 145.27 149.65 144.39 149.13 C 143.52 148.60 142.38 148.89 141.86 149.77 L 141.36 150.60 C 140.84 151.48 141.13 152.61 142.00 153.14 C 142.88 153.66 144.02 153.37 144.54 152.49 Z M 145.07 151.64 L 145.56 150.76 C 146.07 149.87 145.76 148.73 144.86 148.22 C 143.96 147.71 142.83 148.03 142.32 148.92 L 141.82 149.80 C 141.32 150.69 141.63 151.83 142.53 152.34 C 143.42 152.85 144.56 152.53 145.07 151.64 Z M 145.60 150.73 L 146.07 149.85 C 146.56 148.93 146.22 147.79 145.30 147.30 C 144.38 146.81 143.24 147.16 142.75 148.07 L 142.28 148.96 C 141.79 149.87 142.14 151.01 143.05 151.50 C 143.97 151.99 145.11 151.65 145.60 150.73 Z M 146.13 149.83 L 146.65 148.79 C 147.13 147.84 146.75 146.68 145.80 146.20 C 144.85 145.72 143.69 146.11 143.21 147.06 L 142.69 148.10 C 142.21 149.05 142.60 150.20 143.55 150.68 C 144.50 151.16 145.65 150.78 146.13 149.83 Z M 146.65 148.98 L 147.21 148.07 C 147.79 147.12 147.50 145.88 146.55 145.30 C 145.60 144.71 144.35 145.01 143.77 145.96 L 143.21 146.87 C 142.63 147.82 142.93 149.06 143.88 149.64 C 144.83 150.23 146.07 149.93 146.65 148.98 Z M 145.64 149.14 L 146.10 149.10 C 147.27 149.02 148.15 148.00 148.07 146.83 C 147.98 145.66 146.97 144.78 145.80 144.86 L 145.34 144.90 C 144.17 144.98 143.29 146.00 143.37 147.17 C 143.46 148.34 144.47 149.22 145.64 149.14 Z M 143.99 147.93 L 144.30 148.55 C 144.82 149.63 146.12 150.08 147.20 149.56 C 148.28 149.03 148.73 147.73 148.20 146.65 L 147.90 146.03 C 147.38 144.95 146.08 144.50 145.00 145.03 C 143.92 145.55 143.47 146.85 143.99 147.93 Z M 144.16 148.20 L 144.45 149.23 C 144.78 150.38 145.99 151.05 147.15 150.72 C 148.30 150.38 148.97 149.18 148.64 148.02 L 148.34 147.00 C 148.01 145.85 146.80 145.18 145.65 145.51 C 144.49 145.84 143.83 147.05 144.16 148.20 Z M 144.42 149.13 L 144.72 150.39 C 145.01 151.56 146.18 152.28 147.35 152.00 C 148.53 151.72 149.25 150.54 148.97 149.37 L 148.66 148.11 C 148.38 146.94 147.21 146.22 146.03 146.50 C 144.86 146.78 144.14 147.96 144.42 149.13 Z M 144.72 150.39 L 144.98 151.44 C 145.26 152.61 146.43 153.33 147.61 153.05 C 148.78 152.77 149.50 151.59 149.22 150.42 L 148.97 149.37 C 148.69 148.20 147.51 147.48 146.34 147.76 C 145.17 148.04 144.44 149.22 144.72 150.39 Z M 144.98 151.45 L 145.23 152.45 C 145.52 153.61 146.70 154.33 147.87 154.04 C 149.03 153.75 149.75 152.57 149.46 151.40 L 149.21 150.41 C 148.92 149.24 147.74 148.53 146.57 148.82 C 145.41 149.11 144.69 150.29 144.98 151.45 Z M 145.24 152.46 L 145.49 153.44 C 145.78 154.60 146.96 155.31 148.13 155.01 C 149.29 154.72 149.99 153.54 149.70 152.37 L 149.45 151.39 C 149.15 150.23 147.97 149.52 146.81 149.82 C 145.65 150.11 144.94 151.29 145.24 152.46 Z M 145.49 153.45 L 145.74 154.40 C 146.04 155.56 147.22 156.26 148.38 155.96 C 149.54 155.67 150.23 154.48 149.94 153.33 L 149.69 152.37 C 149.39 151.21 148.21 150.51 147.05 150.81 C 145.89 151.11 145.20 152.29 145.49 153.45 Z M 145.75 154.41 L 145.99 155.35 C 146.29 156.50 147.47 157.20 148.62 156.90 C 149.78 156.60 150.47 155.42 150.17 154.26 L 149.93 153.32 C 149.63 152.17 148.45 151.48 147.30 151.77 C 146.14 152.07 145.45 153.25 145.75 154.41 Z M 146.01 155.35 L 146.27 156.34 C 146.57 157.49 147.74 158.17 148.88 157.87 C 150.03 157.58 150.71 156.41 150.41 155.26 L 150.15 154.26 C 149.86 153.12 148.69 152.44 147.54 152.73 C 146.40 153.03 145.71 154.20 146.01 155.35 Z M 146.30 156.35 L 146.56 157.30 C 146.86 158.43 148.02 159.10 149.14 158.80 C 150.27 158.50 150.94 157.34 150.64 156.21 L 150.38 155.26 C 150.08 154.13 148.92 153.46 147.80 153.76 C 146.67 154.06 146.00 155.22 146.30 156.35 Z M 146.59 157.32 L 146.85 158.26 C 147.16 159.37 148.31 160.02 149.42 159.71 C 150.53 159.40 151.18 158.24 150.87 157.13 L 150.61 156.19 C 150.30 155.08 149.15 154.44 148.04 154.75 C 146.93 155.06 146.28 156.21 146.59 157.32 Z M 146.89 158.28 L 147.17 159.23 C 147.49 160.32 148.63 160.95 149.72 160.62 C 150.82 160.30 151.44 159.16 151.12 158.07 L 150.84 157.11 C 150.51 156.02 149.37 155.40 148.28 155.72 C 147.19 156.04 146.56 157.19 146.89 158.28 Z M 147.21 159.26 L 147.52 160.23 C 147.86 161.30 149.00 161.89 150.07 161.55 C 151.13 161.21 151.72 160.07 151.38 159.00 L 151.07 158.03 C 150.73 156.97 149.59 156.38 148.53 156.72 C 147.46 157.06 146.87 158.20 147.21 159.26 Z M 147.58 160.29 L 147.93 161.25 C 148.30 162.29 149.44 162.82 150.47 162.45 C 151.51 162.07 152.04 160.93 151.67 159.90 L 151.32 158.94 C 150.95 157.91 149.81 157.37 148.77 157.75 C 147.74 158.12 147.21 159.26 147.58 160.29 Z M 148.01 161.35 L 148.40 162.27 C 148.83 163.26 149.98 163.71 150.97 163.28 C 151.96 162.86 152.41 161.71 151.98 160.72 L 151.59 159.80 C 151.16 158.81 150.01 158.36 149.02 158.79 C 148.03 159.21 147.58 160.36 148.01 161.35 Z M 148.52 162.41 L 148.98 163.26 C 149.49 164.19 150.65 164.53 151.58 164.02 C 152.51 163.52 152.85 162.36 152.34 161.43 L 151.87 160.58 C 151.36 159.65 150.20 159.31 149.28 159.82 C 148.35 160.32 148.01 161.48 148.52 162.41 Z M 149.15 163.44 L 149.76 164.27 C 150.36 165.11 151.52 165.29 152.35 164.69 C 153.19 164.09 153.37 162.93 152.77 162.10 L 152.17 161.26 C 151.57 160.43 150.41 160.24 149.57 160.84 C 148.74 161.44 148.55 162.60 149.15 163.44 Z M 149.93 164.39 L 150.59 165.12 C 151.26 165.86 152.39 165.92 153.13 165.26 C 153.87 164.59 153.93 163.46 153.26 162.72 L 152.60 161.98 C 151.94 161.24 150.80 161.18 150.06 161.85 C 149.32 162.51 149.27 163.65 149.93 164.39 Z M 150.72 165.16 L 151.41 165.84 C 152.10 166.51 153.20 166.50 153.87 165.81 C 154.54 165.12 154.52 164.02 153.84 163.36 L 153.14 162.68 C 152.45 162.01 151.35 162.02 150.69 162.71 C 150.02 163.40 150.03 164.50 150.72 165.16 Z M 151.47 165.83 L 151.69 166.05 C 152.38 166.69 153.45 166.66 154.09 165.97 C 154.73 165.29 154.70 164.22 154.01 163.58 L 153.78 163.36 C 153.10 162.72 152.03 162.76 151.39 163.44 C 150.75 164.12 150.78 165.19 151.47 165.83 Z"
      fill="black"
      fill-rule="nonzero" /><path d="M 172.34 125.52 L 171.79 126.37 C 171.16 127.34 171.43 128.64 172.41 129.27 C 173.38 129.90 174.68 129.62 175.31 128.65 L 175.86 127.80 C 176.49 126.82 176.21 125.53 175.24 124.90 C 174.27 124.27 172.97 124.54 172.34 125.52 Z M 171.73 126.36 L 171.20 127.21 C 170.56 128.21 170.86 129.54 171.86 130.17 C 172.86 130.80 174.19 130.51 174.82 129.50 L 175.36 128.65 C 175.99 127.65 175.69 126.33 174.69 125.69 C 173.69 125.06 172.37 125.36 171.73 126.36 Z M 171.13 127.23 L 170.62 128.08 C 169.99 129.12 170.33 130.46 171.37 131.09 C 172.40 131.71 173.75 131.38 174.38 130.34 L 174.89 129.49 C 175.51 128.45 175.18 127.10 174.14 126.48 C 173.10 125.86 171.76 126.19 171.13 127.23 Z M 170.55 128.12 L 170.07 128.98 C 169.47 130.06 169.86 131.41 170.94 132.01 C 172.01 132.61 173.37 132.23 173.97 131.15 L 174.45 130.29 C 175.05 129.22 174.66 127.86 173.58 127.26 C 172.50 126.66 171.15 127.05 170.55 128.12 Z M 170.01 129.04 L 169.57 129.91 C 169.01 131.02 169.45 132.38 170.56 132.94 C 171.68 133.51 173.03 133.06 173.60 131.95 L 174.03 131.08 C 174.60 129.97 174.15 128.61 173.04 128.05 C 171.93 127.49 170.57 127.93 170.01 129.04 Z M 169.53 129.97 L 169.11 130.87 C 168.58 132.00 169.07 133.35 170.20 133.88 C 171.34 134.41 172.69 133.92 173.22 132.79 L 173.64 131.89 C 174.17 130.76 173.68 129.41 172.54 128.88 C 171.41 128.35 170.06 128.84 169.53 129.97 Z M 169.08 130.90 L 168.66 131.85 C 168.15 133.00 168.67 134.34 169.82 134.85 C 170.97 135.36 172.32 134.85 172.83 133.70 L 173.25 132.75 C 173.76 131.60 173.24 130.25 172.09 129.74 C 170.94 129.23 169.59 129.75 169.08 130.90 Z M 168.65 131.86 L 168.31 132.64 C 167.81 133.79 168.34 135.14 169.50 135.64 C 170.66 136.15 172.00 135.62 172.51 134.46 L 172.84 133.68 C 173.35 132.52 172.81 131.17 171.66 130.67 C 170.50 130.17 169.15 130.70 168.65 131.86 Z M 168.30 132.64 L 167.97 133.42 C 167.46 134.58 168.00 135.93 169.16 136.43 C 170.33 136.93 171.68 136.40 172.18 135.23 L 172.51 134.45 C 173.02 133.29 172.48 131.94 171.32 131.44 C 170.15 130.94 168.80 131.47 168.30 132.64 Z M 167.96 133.41 L 167.59 134.28 C 167.08 135.45 167.62 136.80 168.78 137.30 C 169.95 137.81 171.30 137.27 171.81 136.11 L 172.18 135.24 C 172.69 134.07 172.15 132.72 170.98 132.22 C 169.82 131.71 168.47 132.25 167.96 133.41 Z M 167.59 134.27 L 167.16 135.26 C 166.65 136.42 167.18 137.78 168.35 138.29 C 169.51 138.80 170.87 138.26 171.38 137.10 L 171.81 136.11 C 172.32 134.95 171.78 133.59 170.62 133.08 C 169.45 132.57 168.09 133.11 167.59 134.27 Z M 167.16 135.24 L 166.66 136.37 C 166.14 137.54 166.67 138.90 167.84 139.41 C 169.01 139.93 170.37 139.40 170.88 138.23 L 171.38 137.11 C 171.89 135.94 171.37 134.58 170.20 134.06 C 169.03 133.55 167.67 134.08 167.16 135.24 Z M 166.66 136.36 L 166.26 137.26 C 165.74 138.43 166.27 139.79 167.43 140.31 C 168.60 140.83 169.96 140.31 170.48 139.14 L 170.88 138.24 C 171.40 137.08 170.88 135.71 169.71 135.19 C 168.55 134.67 167.18 135.20 166.66 136.36 Z M 166.26 137.25 L 165.87 138.12 C 165.35 139.28 165.87 140.65 167.04 141.17 C 168.20 141.70 169.57 141.17 170.09 140.01 L 170.48 139.15 C 171.00 137.98 170.48 136.61 169.32 136.09 C 168.15 135.57 166.78 136.09 166.26 137.25 Z M 165.88 138.11 L 165.47 139.02 C 164.94 140.18 165.46 141.55 166.62 142.08 C 167.79 142.60 169.16 142.09 169.68 140.92 L 170.09 140.01 C 170.62 138.85 170.10 137.48 168.94 136.95 C 167.77 136.43 166.40 136.95 165.88 138.11 Z M 165.47 139.02 L 165.04 139.95 C 164.51 141.12 165.03 142.49 166.20 143.02 C 167.36 143.54 168.73 143.03 169.26 141.86 L 169.68 140.93 C 170.21 139.76 169.69 138.39 168.53 137.86 C 167.37 137.33 165.99 137.85 165.47 139.02 Z M 165.04 139.95 L 164.61 140.90 C 164.08 142.06 164.59 143.44 165.76 143.97 C 166.92 144.50 168.30 143.98 168.83 142.82 L 169.26 141.87 C 169.79 140.70 169.27 139.33 168.11 138.80 C 166.95 138.27 165.57 138.78 165.04 139.95 Z M 164.61 140.90 L 164.18 141.85 C 163.64 143.01 164.16 144.39 165.32 144.92 C 166.48 145.45 167.86 144.94 168.39 143.77 L 168.82 142.82 C 169.36 141.66 168.84 140.28 167.68 139.75 C 166.52 139.22 165.14 139.73 164.61 140.90 Z M 164.18 141.84 L 163.75 142.78 C 163.21 143.95 163.72 145.32 164.89 145.85 C 166.05 146.39 167.43 145.88 167.96 144.71 L 168.39 143.78 C 168.92 142.61 168.41 141.24 167.25 140.70 C 166.09 140.17 164.71 140.68 164.18 141.84 Z M 163.75 142.78 L 163.33 143.69 C 162.79 144.85 163.30 146.23 164.47 146.76 C 165.63 147.30 167.01 146.79 167.54 145.63 L 167.96 144.72 C 168.50 143.55 167.99 142.18 166.82 141.64 C 165.66 141.11 164.28 141.61 163.75 142.78 Z M 163.33 143.68 L 162.84 144.74 C 162.30 145.90 162.81 147.28 163.97 147.82 C 165.13 148.36 166.51 147.85 167.05 146.69 L 167.54 145.63 C 168.08 144.47 167.57 143.09 166.41 142.55 C 165.25 142.01 163.87 142.52 163.33 143.68 Z M 162.84 144.74 L 162.37 145.76 C 161.82 146.92 162.33 148.30 163.49 148.84 C 164.65 149.38 166.03 148.88 166.57 147.72 L 167.05 146.70 C 167.59 145.53 167.09 144.15 165.92 143.61 C 164.76 143.07 163.38 143.57 162.84 144.74 Z M 162.37 145.75 L 161.92 146.70 C 161.38 147.86 161.88 149.25 163.04 149.79 C 164.19 150.33 165.58 149.84 166.12 148.68 L 166.57 147.72 C 167.11 146.56 166.61 145.18 165.45 144.64 C 164.29 144.09 162.91 144.59 162.37 145.75 Z M 161.93 146.70 L 161.51 147.58 C 160.96 148.74 161.45 150.12 162.61 150.67 C 163.77 151.22 165.15 150.73 165.70 149.57 L 166.12 148.68 C 166.67 147.53 166.17 146.14 165.01 145.59 C 163.86 145.05 162.47 145.54 161.93 146.70 Z M 161.51 147.57 L 161.12 148.39 C 160.56 149.55 161.05 150.93 162.21 151.49 C 163.36 152.04 164.75 151.55 165.30 150.40 L 165.69 149.58 C 166.25 148.42 165.76 147.04 164.60 146.48 C 163.45 145.93 162.06 146.42 161.51 147.57 Z M 161.12 148.38 L 160.76 149.14 C 160.20 150.29 160.68 151.68 161.83 152.24 C 162.98 152.80 164.37 152.32 164.93 151.16 L 165.30 150.41 C 165.86 149.25 165.37 147.87 164.22 147.31 C 163.07 146.75 161.68 147.23 161.12 148.38 Z M 160.76 149.12 L 160.31 150.04 C 159.74 151.19 160.22 152.58 161.36 153.15 C 162.51 153.71 163.90 153.24 164.47 152.09 L 164.92 151.18 C 165.49 150.03 165.02 148.64 163.87 148.07 C 162.72 147.50 161.33 147.98 160.76 149.12 Z M 160.32 150.03 L 159.84 150.98 C 159.26 152.12 159.72 153.52 160.87 154.09 C 162.01 154.67 163.40 154.21 163.98 153.06 L 164.46 152.11 C 165.03 150.97 164.57 149.57 163.43 149.00 C 162.29 148.42 160.90 148.88 160.32 150.03 Z M 159.85 150.97 L 159.41 151.83 C 158.82 152.97 159.28 154.36 160.41 154.95 C 161.55 155.53 162.95 155.08 163.53 153.94 L 163.97 153.08 C 164.55 151.94 164.10 150.54 162.96 149.96 C 161.83 149.38 160.43 149.83 159.85 150.97 Z M 159.41 151.83 L 159.00 152.63 C 158.41 153.77 158.86 155.16 159.99 155.75 C 161.13 156.33 162.52 155.89 163.11 154.75 L 163.52 153.94 C 164.11 152.81 163.66 151.41 162.53 150.83 C 161.39 150.24 160.00 150.69 159.41 151.83 Z M 158.99 152.64 L 158.56 153.49 C 157.98 154.63 158.43 156.02 159.56 156.60 C 160.70 157.18 162.09 156.74 162.67 155.60 L 163.11 154.75 C 163.69 153.61 163.24 152.22 162.11 151.63 C 160.97 151.05 159.58 151.50 158.99 152.64 Z M 158.56 153.50 L 158.10 154.39 C 157.52 155.53 157.98 156.92 159.11 157.50 C 160.25 158.08 161.64 157.62 162.22 156.49 L 162.67 155.59 C 163.25 154.46 162.80 153.07 161.66 152.49 C 160.53 151.91 159.14 152.36 158.56 153.50 Z M 158.11 154.39 L 157.65 155.27 C 157.07 156.41 157.52 157.80 158.66 158.38 C 159.79 158.96 161.18 158.51 161.76 157.38 L 162.21 156.49 C 162.80 155.35 162.35 153.97 161.21 153.39 C 160.08 152.81 158.69 153.25 158.11 154.39 Z M 157.66 155.26 L 157.20 156.14 C 156.62 157.27 157.06 158.66 158.19 159.25 C 159.31 159.84 160.71 159.40 161.29 158.27 L 161.75 157.39 C 162.34 156.26 161.90 154.87 160.77 154.28 C 159.64 153.69 158.25 154.13 157.66 155.26 Z M 157.22 156.13 L 156.75 157.01 C 156.15 158.13 156.58 159.52 157.70 160.12 C 158.82 160.72 160.21 160.29 160.81 159.17 L 161.28 158.29 C 161.88 157.17 161.45 155.77 160.33 155.18 C 159.21 154.58 157.81 155.01 157.22 156.13 Z M 156.76 157.00 L 156.28 157.89 C 155.68 159.00 156.10 160.39 157.22 161.00 C 158.34 161.60 159.73 161.18 160.33 160.06 L 160.80 159.18 C 161.40 158.06 160.98 156.67 159.87 156.07 C 158.75 155.47 157.36 155.89 156.76 157.00 Z M 156.28 157.89 L 155.81 158.77 C 155.22 159.89 155.64 161.28 156.75 161.88 C 157.87 162.47 159.26 162.05 159.85 160.93 L 160.33 160.05 C 160.92 158.94 160.50 157.55 159.39 156.95 C 158.27 156.35 156.88 156.78 156.28 157.89 Z M 155.81 158.79 L 155.34 159.69 C 154.76 160.80 155.19 162.19 156.31 162.77 C 157.42 163.36 158.81 162.93 159.39 161.81 L 159.86 160.92 C 160.45 159.80 160.01 158.41 158.89 157.83 C 157.78 157.24 156.39 157.67 155.81 158.79 Z M 155.34 159.70 L 154.88 160.60 C 154.30 161.72 154.74 163.10 155.87 163.67 C 156.99 164.25 158.36 163.80 158.94 162.68 L 159.40 161.79 C 159.97 160.67 159.53 159.29 158.41 158.72 C 157.29 158.14 155.91 158.58 155.34 159.70 Z M 154.88 160.61 L 154.43 161.50 C 153.86 162.62 154.30 163.99 155.42 164.56 C 156.54 165.13 157.91 164.68 158.48 163.56 L 158.94 162.67 C 159.51 161.55 159.06 160.18 157.94 159.61 C 156.82 159.04 155.45 159.49 154.88 160.61 Z M 154.43 161.50 L 153.98 162.38 C 153.41 163.50 153.85 164.87 154.97 165.44 C 156.09 166.01 157.45 165.56 158.02 164.45 L 158.48 163.56 C 159.05 162.45 158.61 161.08 157.49 160.51 C 156.37 159.94 155.00 160.38 154.43 161.50 Z M 154.00 162.37 L 153.53 163.27 C 152.95 164.38 153.39 165.75 154.50 166.32 C 155.60 166.90 156.97 166.46 157.55 165.35 L 158.01 164.46 C 158.59 163.35 158.15 161.98 157.04 161.41 C 155.94 160.83 154.57 161.26 154.00 162.37 Z M 153.55 163.26 L 153.08 164.15 C 152.50 165.25 152.92 166.61 154.02 167.19 C 155.12 167.77 156.48 167.35 157.06 166.25 L 157.53 165.36 C 158.11 164.26 157.69 162.90 156.59 162.32 C 155.49 161.74 154.13 162.16 153.55 163.26 Z M 153.10 164.14 L 152.63 165.01 C 152.05 166.10 152.46 167.46 153.55 168.04 C 154.64 168.63 156.00 168.21 156.58 167.12 L 157.05 166.25 C 157.63 165.16 157.22 163.81 156.13 163.22 C 155.04 162.64 153.68 163.05 153.10 164.14 Z M 152.65 165.00 L 152.17 165.88 C 151.59 166.96 151.99 168.31 153.07 168.90 C 154.15 169.49 155.50 169.08 156.09 168.00 L 156.56 167.13 C 157.15 166.05 156.75 164.70 155.67 164.11 C 154.59 163.52 153.24 163.92 152.65 165.00 Z M 152.19 165.88 L 151.71 166.75 C 151.13 167.83 151.52 169.17 152.60 169.76 C 153.67 170.34 155.01 169.95 155.60 168.87 L 156.08 168.00 C 156.66 166.93 156.26 165.58 155.19 165.00 C 154.12 164.41 152.77 164.81 152.19 165.88 Z M 151.72 166.77 L 151.24 167.65 C 150.66 168.72 151.07 170.06 152.14 170.64 C 153.21 171.21 154.54 170.81 155.12 169.74 L 155.59 168.86 C 156.17 167.79 155.77 166.45 154.70 165.87 C 153.63 165.30 152.29 165.70 151.72 166.77 Z M 151.24 167.68 L 150.80 168.53 C 150.24 169.60 150.65 170.92 151.72 171.48 C 152.79 172.04 154.11 171.63 154.67 170.56 L 155.12 169.71 C 155.68 168.64 155.27 167.32 154.20 166.76 C 153.13 166.20 151.80 166.61 151.24 167.68 Z M 150.80 168.55 L 150.36 169.40 C 149.82 170.47 150.24 171.78 151.30 172.33 C 152.37 172.88 153.68 172.46 154.23 171.39 L 154.67 170.54 C 155.22 169.47 154.80 168.16 153.73 167.61 C 152.66 167.06 151.35 167.48 150.80 168.55 Z M 150.37 169.42 L 149.91 170.32 C 149.37 171.38 149.80 172.68 150.86 173.22 C 151.92 173.76 153.22 173.34 153.76 172.28 L 154.22 171.37 C 154.76 170.31 154.34 169.01 153.28 168.47 C 152.21 167.93 150.91 168.35 150.37 169.42 Z M 149.93 170.32 L 149.44 171.29 C 148.90 172.34 149.32 173.63 150.38 174.17 C 151.43 174.71 152.72 174.29 153.26 173.23 L 153.75 172.27 C 154.29 171.21 153.87 169.92 152.81 169.39 C 151.76 168.85 150.47 169.27 149.93 170.32 Z M 149.45 171.29 L 149.01 172.16 C 148.47 173.21 148.88 174.49 149.93 175.03 C 150.98 175.56 152.26 175.15 152.80 174.10 L 153.25 173.23 C 153.78 172.18 153.37 170.90 152.32 170.36 C 151.27 169.83 149.99 170.24 149.45 171.29 Z M 149.02 172.17 L 148.55 173.07 C 148.02 174.11 148.44 175.39 149.48 175.92 C 150.52 176.45 151.80 176.04 152.33 175.00 L 152.79 174.09 C 153.32 173.05 152.91 171.78 151.87 171.24 C 150.82 170.71 149.55 171.13 149.02 172.17 Z M 148.56 173.09 L 148.10 174.00 C 147.58 175.04 148.00 176.30 149.03 176.83 C 150.07 177.35 151.34 176.93 151.86 175.89 L 152.32 174.98 C 152.84 173.94 152.43 172.68 151.39 172.16 C 150.35 171.63 149.09 172.05 148.56 173.09 Z M 148.11 174.02 L 147.67 174.91 C 147.16 175.95 147.58 177.20 148.62 177.72 C 149.65 178.23 150.91 177.80 151.42 176.76 L 151.86 175.87 C 152.37 174.83 151.94 173.58 150.91 173.07 C 149.87 172.56 148.62 172.99 148.11 174.02 Z M 147.67 174.95 L 147.23 175.89 C 146.74 176.93 147.18 178.16 148.21 178.65 C 149.25 179.14 150.48 178.70 150.97 177.66 L 151.41 176.72 C 151.90 175.69 151.46 174.46 150.43 173.97 C 149.39 173.48 148.16 173.92 147.67 174.95 Z M 147.24 175.95 L 146.83 176.87 C 146.37 177.90 146.83 179.10 147.85 179.56 C 148.88 180.02 150.08 179.56 150.54 178.53 L 150.95 177.61 C 151.41 176.59 150.95 175.38 149.93 174.92 C 148.90 174.46 147.70 174.92 147.24 175.95 Z M 146.85 176.93 L 146.47 177.82 C 146.04 178.84 146.51 180.01 147.53 180.44 C 148.54 180.87 149.72 180.39 150.14 179.38 L 150.52 178.48 C 150.95 177.46 150.48 176.29 149.46 175.86 C 148.45 175.43 147.27 175.91 146.85 176.93 Z M 146.49 177.88 L 146.13 178.77 C 145.73 179.78 146.22 180.92 147.23 181.32 C 148.23 181.71 149.37 181.22 149.77 180.22 L 150.12 179.32 C 150.52 178.32 150.03 177.18 149.03 176.78 C 148.02 176.38 146.89 176.87 146.49 177.88 Z M 146.15 178.82 L 145.80 179.74 C 145.42 180.74 145.93 181.85 146.92 182.22 C 147.92 182.60 149.03 182.09 149.40 181.10 L 149.75 180.18 C 150.13 179.18 149.62 178.07 148.63 177.69 C 147.63 177.32 146.52 177.82 146.15 178.82 Z M 145.81 179.77 L 145.47 180.71 C 145.11 181.70 145.63 182.79 146.61 183.15 C 147.60 183.51 148.70 183.00 149.05 182.01 L 149.39 181.07 C 149.75 180.08 149.24 178.99 148.25 178.63 C 147.26 178.27 146.17 178.78 145.81 179.77 Z M 145.49 180.73 L 145.15 181.68 C 144.81 182.67 145.32 183.74 146.30 184.08 C 147.28 184.43 148.36 183.91 148.70 182.93 L 149.04 181.98 C 149.38 181.00 148.87 179.93 147.89 179.58 C 146.91 179.24 145.83 179.75 145.49 180.73 Z M 145.17 181.70 L 144.94 182.36 C 144.60 183.33 145.11 184.39 146.08 184.73 C 147.06 185.07 148.12 184.55 148.46 183.58 L 148.69 182.92 C 149.02 181.95 148.51 180.89 147.54 180.55 C 146.57 180.21 145.51 180.73 145.17 181.70 Z"
      fill="black"
      fill-rule="nonzero" /><path d="M 154.81 156.46 L 154.86 157.48 C 154.92 158.61 155.88 159.48 157.02 159.42 C 158.15 159.37 159.02 158.40 158.96 157.27 L 158.90 156.25 C 158.85 155.12 157.88 154.25 156.75 154.30 C 155.62 154.36 154.75 155.33 154.81 156.46 Z M 154.80 157.59 L 154.90 158.60 C 155.02 159.76 156.06 160.61 157.23 160.49 C 158.39 160.37 159.24 159.33 159.12 158.16 L 159.02 157.16 C 158.90 156.00 157.86 155.15 156.69 155.27 C 155.53 155.39 154.68 156.43 154.80 157.59 Z M 154.87 158.83 L 155.07 159.79 C 155.32 160.97 156.48 161.73 157.66 161.48 C 158.85 161.23 159.61 160.07 159.36 158.89 L 159.16 157.93 C 158.91 156.75 157.75 155.99 156.56 156.23 C 155.38 156.48 154.62 157.64 154.87 158.83 Z M 155.12 160.15 L 155.47 161.04 C 155.91 162.19 157.22 162.77 158.37 162.32 C 159.53 161.87 160.10 160.57 159.65 159.41 L 159.31 158.52 C 158.86 157.37 157.56 156.80 156.40 157.25 C 155.24 157.69 154.67 158.99 155.12 160.15 Z M 155.62 161.39 L 156.12 162.22 C 156.76 163.29 158.15 163.64 159.22 162.99 C 160.29 162.35 160.64 160.95 159.99 159.88 L 159.50 159.06 C 158.85 157.99 157.46 157.64 156.39 158.29 C 155.32 158.93 154.97 160.32 155.62 161.39 Z M 156.28 162.46 L 156.90 163.25 C 157.68 164.23 159.11 164.40 160.09 163.62 C 161.07 162.84 161.24 161.42 160.46 160.43 L 159.83 159.64 C 159.06 158.66 157.63 158.50 156.65 159.27 C 155.67 160.05 155.50 161.48 156.28 162.46 Z M 157.02 163.39 L 157.72 164.15 C 158.58 165.07 160.02 165.12 160.94 164.26 C 161.85 163.41 161.91 161.97 161.05 161.05 L 160.34 160.29 C 159.49 159.37 158.05 159.32 157.13 160.18 C 156.21 161.03 156.16 162.47 157.02 163.39 Z M 157.79 164.22 L 158.43 164.85 C 159.32 165.73 160.76 165.72 161.64 164.83 C 162.52 163.94 162.52 162.50 161.62 161.62 L 160.99 160.99 C 160.09 160.10 158.65 160.11 157.77 161.00 C 156.89 161.90 156.90 163.34 157.79 164.22 Z M 158.47 164.89 L 159.17 165.54 C 160.08 166.40 161.52 166.35 162.38 165.44 C 163.24 164.52 163.19 163.08 162.28 162.22 L 161.58 161.57 C 160.66 160.71 159.22 160.76 158.37 161.68 C 157.51 162.59 157.55 164.03 158.47 164.89 Z M 159.20 165.57 L 159.96 166.26 C 160.90 167.10 162.33 167.02 163.17 166.09 C 164.01 165.15 163.94 163.72 163.00 162.88 L 162.24 162.19 C 161.31 161.35 159.87 161.43 159.03 162.36 C 158.19 163.30 158.27 164.74 159.20 165.57 Z M 159.99 166.28 L 160.82 167.01 C 161.77 167.83 163.20 167.74 164.03 166.79 C 164.85 165.84 164.76 164.41 163.81 163.58 L 162.98 162.85 C 162.03 162.03 160.59 162.13 159.77 163.07 C 158.94 164.02 159.04 165.46 159.99 166.28 Z M 160.84 167.02 L 161.61 167.68 C 162.56 168.50 164.00 168.39 164.81 167.44 C 165.63 166.48 165.52 165.05 164.57 164.23 L 163.79 163.57 C 162.84 162.75 161.41 162.86 160.59 163.82 C 159.77 164.77 159.88 166.21 160.84 167.02 Z M 161.62 167.69 L 162.40 168.35 C 163.35 169.16 164.79 169.04 165.60 168.08 C 166.41 167.12 166.29 165.69 165.33 164.88 L 164.56 164.22 C 163.60 163.41 162.16 163.53 161.35 164.49 C 160.54 165.45 160.66 166.88 161.62 167.69 Z M 162.40 168.35 L 163.20 169.02 C 164.16 169.82 165.59 169.70 166.39 168.73 C 167.20 167.77 167.07 166.34 166.11 165.54 L 165.32 164.87 C 164.36 164.07 162.93 164.19 162.12 165.15 C 161.32 166.12 161.44 167.55 162.40 168.35 Z M 163.20 169.02 L 163.99 169.67 C 164.95 170.47 166.38 170.34 167.19 169.38 C 167.99 168.41 167.85 166.98 166.89 166.18 L 166.10 165.53 C 165.14 164.73 163.71 164.86 162.91 165.83 C 162.11 166.79 162.24 168.22 163.20 169.02 Z M 164.00 169.68 L 164.76 170.30 C 165.72 171.10 167.15 170.96 167.95 169.99 C 168.74 169.03 168.61 167.60 167.64 166.80 L 166.88 166.18 C 165.91 165.38 164.49 165.52 163.69 166.49 C 162.89 167.45 163.03 168.88 164.00 169.68 Z M 164.77 170.31 L 165.57 170.96 C 166.53 171.75 167.96 171.60 168.75 170.64 C 169.54 169.67 169.40 168.24 168.43 167.45 L 167.63 166.80 C 166.66 166.01 165.23 166.15 164.44 167.12 C 163.65 168.09 163.80 169.52 164.77 170.31 Z M 165.58 170.96 L 166.40 171.63 C 167.37 172.41 168.79 172.26 169.58 171.29 C 170.36 170.32 170.21 168.89 169.24 168.11 L 168.42 167.45 C 167.44 166.66 166.02 166.81 165.24 167.79 C 164.46 168.76 164.61 170.18 165.58 170.96 Z M 166.41 171.63 L 167.18 172.24 C 168.15 173.02 169.57 172.86 170.34 171.89 C 171.12 170.92 170.96 169.50 169.99 168.72 L 169.23 168.11 C 168.26 167.33 166.84 167.49 166.06 168.46 C 165.28 169.43 165.44 170.85 166.41 171.63 Z M 167.19 172.24 L 167.92 172.82 C 168.89 173.60 170.30 173.44 171.08 172.47 C 171.85 171.50 171.69 170.09 170.72 169.31 L 169.98 168.73 C 169.01 167.95 167.60 168.11 166.83 169.08 C 166.06 170.05 166.22 171.46 167.19 172.24 Z M 167.92 172.82 L 168.67 173.41 C 169.63 174.18 171.04 174.02 171.81 173.06 C 172.58 172.09 172.43 170.68 171.46 169.91 L 170.72 169.32 C 169.75 168.55 168.34 168.71 167.57 169.67 C 166.80 170.64 166.96 172.05 167.92 172.82 Z M 168.67 173.40 L 169.44 174.02 C 170.40 174.79 171.80 174.64 172.58 173.68 C 173.35 172.72 173.19 171.31 172.23 170.54 L 171.46 169.92 C 170.50 169.15 169.09 169.30 168.32 170.26 C 167.55 171.23 167.71 172.63 168.67 173.40 Z M 169.44 174.01 L 170.22 174.64 C 171.18 175.42 172.58 175.26 173.35 174.31 C 174.12 173.35 173.97 171.95 173.01 171.18 L 172.23 170.55 C 171.27 169.78 169.87 169.93 169.10 170.89 C 168.33 171.84 168.48 173.24 169.44 174.01 Z M 170.23 174.64 L 171.01 175.27 C 171.96 176.04 173.36 175.89 174.13 174.94 C 174.90 173.98 174.75 172.59 173.80 171.82 L 173.01 171.18 C 172.06 170.41 170.66 170.56 169.89 171.52 C 169.12 172.47 169.27 173.87 170.23 174.64 Z M 171.02 175.27 L 171.80 175.90 C 172.75 176.67 174.15 176.52 174.91 175.56 C 175.68 174.61 175.53 173.22 174.58 172.45 L 173.79 171.82 C 172.84 171.05 171.45 171.20 170.68 172.16 C 169.91 173.11 170.06 174.50 171.02 175.27 Z M 171.81 175.90 L 172.60 176.53 C 173.55 177.29 174.94 177.14 175.70 176.19 C 176.46 175.24 176.31 173.85 175.36 173.09 L 174.57 172.46 C 173.62 171.69 172.23 171.85 171.47 172.80 C 170.71 173.75 170.86 175.14 171.81 175.90 Z M 172.61 176.53 L 173.39 177.15 C 174.34 177.91 175.72 177.75 176.48 176.80 C 177.24 175.85 177.08 174.47 176.13 173.71 L 175.35 173.09 C 174.40 172.33 173.02 172.49 172.26 173.44 C 171.50 174.39 171.66 175.77 172.61 176.53 Z M 173.41 177.15 L 174.19 177.77 C 175.14 178.52 176.51 178.35 177.26 177.40 C 178.01 176.45 177.85 175.08 176.90 174.33 L 176.12 173.71 C 175.17 172.97 173.79 173.13 173.04 174.08 C 172.29 175.03 172.46 176.40 173.41 177.15 Z M 174.20 177.77 L 174.99 178.38 C 175.94 179.12 177.31 178.95 178.05 178.00 C 178.79 177.04 178.62 175.67 177.66 174.94 L 176.88 174.33 C 175.93 173.59 174.56 173.76 173.82 174.71 C 173.08 175.66 173.25 177.03 174.20 177.77 Z M 175.01 178.38 L 175.81 179.00 C 176.76 179.73 178.12 179.55 178.85 178.59 C 179.58 177.64 179.40 176.28 178.45 175.55 L 177.65 174.93 C 176.69 174.20 175.33 174.38 174.60 175.34 C 173.87 176.29 174.05 177.65 175.01 178.38 Z M 175.83 179.00 L 176.63 179.60 C 177.58 180.32 178.93 180.13 179.65 179.18 C 180.37 178.23 180.19 176.87 179.23 176.15 L 178.43 175.55 C 177.48 174.83 176.12 175.02 175.40 175.97 C 174.68 176.92 174.87 178.28 175.83 179.00 Z M 176.64 179.60 L 177.43 180.20 C 178.38 180.91 179.73 180.71 180.45 179.76 C 181.16 178.81 180.97 177.46 180.01 176.75 L 179.22 176.15 C 178.27 175.44 176.92 175.63 176.20 176.59 C 175.49 177.54 175.69 178.89 176.64 179.60 Z M 177.44 180.19 L 178.24 180.79 C 179.20 181.50 180.54 181.30 181.25 180.35 C 181.95 179.40 181.76 178.05 180.80 177.35 L 180.00 176.75 C 179.05 176.04 177.71 176.24 177.00 177.19 C 176.29 178.14 176.49 179.49 177.44 180.19 Z M 178.25 180.78 L 179.06 181.39 C 180.01 182.09 181.35 181.89 182.05 180.94 C 182.76 179.99 182.56 178.66 181.61 177.95 L 180.80 177.35 C 179.85 176.65 178.51 176.85 177.81 177.79 C 177.11 178.74 177.30 180.08 178.25 180.78 Z M 179.07 181.38 L 179.87 181.97 C 180.81 182.67 182.14 182.48 182.85 181.53 C 183.55 180.59 183.35 179.26 182.41 178.56 L 181.61 177.96 C 180.66 177.26 179.33 177.45 178.63 178.40 C 177.93 179.34 178.12 180.68 179.07 181.38 Z M 179.86 181.96 L 180.65 182.55 C 181.59 183.26 182.92 183.07 183.62 182.13 C 184.33 181.19 184.14 179.86 183.20 179.16 L 182.41 178.57 C 181.47 177.86 180.14 178.05 179.44 178.99 C 178.74 179.93 178.93 181.26 179.86 181.96 Z M 180.65 182.54 L 181.46 183.15 C 182.38 183.86 183.71 183.68 184.42 182.75 C 185.12 181.82 184.94 180.49 184.01 179.79 L 183.20 179.17 C 182.27 178.47 180.95 178.65 180.24 179.58 C 179.54 180.51 179.72 181.83 180.65 182.54 Z M 181.46 183.14 L 182.26 183.75 C 183.18 184.46 184.50 184.28 185.21 183.36 C 185.91 182.44 185.74 181.11 184.81 180.41 L 184.01 179.80 C 183.09 179.09 181.77 179.27 181.06 180.19 C 180.36 181.11 180.53 182.44 181.46 183.14 Z M 182.27 183.75 L 183.06 184.35 C 183.98 185.05 185.29 184.87 185.99 183.95 C 186.69 183.03 186.51 181.71 185.59 181.01 L 184.80 180.41 C 183.88 179.71 182.57 179.89 181.87 180.81 C 181.17 181.74 181.35 183.05 182.27 183.75 Z M 183.08 184.35 L 183.84 184.92 C 184.76 185.61 186.07 185.42 186.76 184.50 C 187.45 183.57 187.26 182.27 186.33 181.58 L 185.57 181.01 C 184.65 180.32 183.34 180.51 182.65 181.43 C 181.96 182.36 182.16 183.66 183.08 184.35 Z M 183.86 184.92 L 184.60 185.46 C 185.53 186.14 186.82 185.93 187.50 185.01 C 188.17 184.09 187.97 182.79 187.05 182.12 L 186.31 181.58 C 185.39 180.90 184.09 181.10 183.41 182.03 C 182.74 182.95 182.94 184.25 183.86 184.92 Z M 184.62 185.45 L 185.40 186.02 C 186.32 186.69 187.60 186.49 188.27 185.57 C 188.94 184.65 188.74 183.36 187.82 182.69 L 187.03 182.12 C 186.11 181.46 184.83 181.66 184.16 182.58 C 183.49 183.50 183.70 184.78 184.62 185.45 Z M 185.40 186.00 L 186.27 186.64 C 187.18 187.31 188.46 187.11 189.13 186.20 C 189.79 185.29 189.60 184.02 188.69 183.35 L 187.82 182.71 C 186.91 182.04 185.63 182.24 184.96 183.15 C 184.29 184.06 184.49 185.34 185.40 186.00 Z M 186.27 186.62 L 187.09 187.23 C 187.98 187.90 189.26 187.72 189.93 186.82 C 190.59 185.92 190.41 184.65 189.51 183.98 L 188.69 183.37 C 187.79 182.70 186.52 182.89 185.85 183.78 C 185.18 184.68 185.37 185.95 186.27 186.62 Z M 187.08 187.22 L 187.87 187.81 C 188.76 188.48 190.03 188.31 190.70 187.42 C 191.37 186.53 191.19 185.26 190.30 184.59 L 189.51 184.00 C 188.62 183.33 187.36 183.50 186.69 184.39 C 186.02 185.28 186.19 186.55 187.08 187.22 Z M 187.87 187.80 L 188.69 188.42 C 189.57 189.09 190.83 188.92 191.50 188.04 C 192.17 187.16 192.00 185.90 191.12 185.23 L 190.30 184.61 C 189.42 183.94 188.16 184.11 187.49 184.99 C 186.82 185.87 186.99 187.13 187.87 187.80 Z M 188.69 188.41 L 189.52 189.04 C 190.39 189.71 191.64 189.54 192.31 188.67 C 192.98 187.80 192.82 186.54 191.94 185.87 L 191.12 185.24 C 190.25 184.57 188.99 184.74 188.32 185.61 C 187.65 186.49 187.82 187.74 188.69 188.41 Z M 189.52 189.03 L 190.32 189.64 C 191.18 190.31 192.43 190.15 193.10 189.28 C 193.77 188.42 193.60 187.17 192.74 186.50 L 191.94 185.89 C 191.07 185.22 189.83 185.38 189.16 186.25 C 188.49 187.11 188.65 188.36 189.52 189.03 Z M 190.32 189.62 L 191.14 190.26 C 192.00 190.92 193.23 190.77 193.90 189.91 C 194.56 189.05 194.41 187.82 193.55 187.15 L 192.73 186.52 C 191.87 185.85 190.64 186.01 189.97 186.87 C 189.31 187.72 189.46 188.96 190.32 189.62 Z M 191.14 190.23 L 191.94 190.86 C 192.78 191.52 194.00 191.37 194.66 190.53 C 195.32 189.69 195.18 188.48 194.34 187.81 L 193.54 187.19 C 192.70 186.52 191.49 186.67 190.82 187.51 C 190.16 188.35 190.30 189.57 191.14 190.23 Z M 191.94 190.81 L 192.69 191.42 C 193.51 192.09 194.71 191.96 195.37 191.15 C 196.03 190.33 195.91 189.13 195.09 188.47 L 194.34 187.86 C 193.53 187.19 192.33 187.32 191.66 188.13 C 191.00 188.95 191.12 190.15 191.94 190.81 Z M 192.68 191.37 L 193.42 192.00 C 194.21 192.67 195.39 192.57 196.06 191.79 C 196.73 191.00 196.63 189.82 195.84 189.15 L 195.11 188.52 C 194.32 187.85 193.14 187.95 192.47 188.73 C 191.80 189.52 191.89 190.70 192.68 191.37 Z M 193.40 191.94 L 194.13 192.59 C 194.88 193.27 196.05 193.21 196.73 192.45 C 197.40 191.69 197.34 190.53 196.58 189.85 L 195.86 189.20 C 195.10 188.53 193.94 188.59 193.26 189.35 C 192.58 190.10 192.65 191.27 193.40 191.94 Z M 194.12 192.54 L 194.81 193.19 C 195.54 193.88 196.69 193.84 197.37 193.11 C 198.06 192.38 198.02 191.23 197.29 190.55 L 196.59 189.90 C 195.86 189.21 194.72 189.25 194.03 189.98 C 193.35 190.71 193.39 191.86 194.12 192.54 Z M 194.81 193.16 L 195.52 193.85 C 196.23 194.53 197.36 194.51 198.05 193.80 C 198.73 193.09 198.71 191.96 198.00 191.27 L 197.29 190.59 C 196.58 189.90 195.45 189.92 194.76 190.63 C 194.08 191.34 194.10 192.47 194.81 193.16 Z M 195.53 193.82 L 196.26 194.53 C 196.95 195.21 198.06 195.21 198.75 194.51 C 199.43 193.82 199.42 192.70 198.73 192.02 L 198.00 191.31 C 197.31 190.62 196.19 190.63 195.51 191.33 C 194.83 192.02 194.84 193.13 195.53 193.82 Z M 196.27 194.51 L 197.00 195.24 C 197.68 195.92 198.78 195.91 199.46 195.24 C 200.14 194.56 200.13 193.46 199.45 192.78 L 198.72 192.05 C 198.04 191.37 196.94 191.37 196.26 192.05 C 195.59 192.73 195.59 193.83 196.27 194.51 Z M 197.01 195.23 L 197.36 195.57 C 198.03 196.24 199.12 196.24 199.79 195.57 C 200.46 194.90 200.46 193.81 199.79 193.14 L 199.44 192.80 C 198.77 192.13 197.68 192.13 197.01 192.80 C 196.34 193.47 196.34 194.55 197.01 195.23 Z"
      fill="black"
      fill-rule="nonzero" /></svg>