<svg xmlns="http://www.w3.org/2000/svg" width="300" height="300" viewBox="0 0 300 300">
<path d="M 127.06 126.21 L 126.56 126.91 C 125.81 127.98 126.07 129.46 127.14 130.22 C 128.21 130.97 129.69 130.71 130.44 129.64 L 130.93 128.94 C 131.69 127.87 131.43 126.40 130.36 125.64 C 129.29 124.89 127.81 125.14 127.06 126.21 Z M 126.58 126.88 L 126.05 127.61 C 125.27 128.67 125.51 130.16 126.57 130.93 C 127.64 131.71 129.12 131.47 129.90 130.41 L 130.43 129.68 C 131.20 128.61 130.96 127.13 129.90 126.35 C 128.84 125.58 127.35 125.82 126.58 126.88 Z M 126.07 127.56 L 125.47 128.35 C 124.67 129.40 124.87 130.89 125.92 131.70 C 126.96 132.50 128.46 132.30 129.26 131.25 L 129.87 130.46 C 130.67 129.41 130.47 127.91 129.42 127.11 C 128.37 126.31 126.88 126.51 126.07 127.56 Z M 125.51 128.29 L 124.79 129.17 C 123.96 130.19 124.11 131.70 125.14 132.54 C 126.17 133.37 127.68 133.22 128.51 132.19 L 129.23 131.31 C 130.06 130.28 129.91 128.77 128.88 127.94 C 127.85 127.10 126.34 127.26 125.51 128.29 Z M 124.83 129.11 L 124.15 129.90 C 123.29 130.91 123.40 132.43 124.41 133.29 C 125.42 134.15 126.93 134.04 127.80 133.03 L 128.47 132.24 C 129.34 131.24 129.22 129.72 128.22 128.86 C 127.21 127.99 125.69 128.11 124.83 129.11 Z M 124.18 129.88 L 123.57 130.57 C 122.69 131.56 122.78 133.07 123.76 133.95 C 124.75 134.83 126.27 134.74 127.15 133.75 L 127.76 133.06 C 128.64 132.07 128.55 130.56 127.57 129.68 C 126.58 128.80 125.06 128.89 124.18 129.88 Z M 123.59 130.56 L 122.93 131.29 C 122.04 132.26 122.11 133.77 123.09 134.66 C 124.06 135.54 125.57 135.47 126.46 134.50 L 127.12 133.77 C 128.01 132.79 127.94 131.28 126.96 130.40 C 125.99 129.51 124.48 129.58 123.59 130.56 Z M 122.95 131.28 L 122.25 132.04 C 121.36 133.00 121.42 134.50 122.39 135.39 C 123.35 136.28 124.85 136.22 125.74 135.26 L 126.44 134.50 C 127.33 133.54 127.27 132.04 126.30 131.15 C 125.34 130.26 123.84 130.32 122.95 131.28 Z M 122.27 132.04 L 121.55 132.80 C 120.66 133.76 120.71 135.25 121.67 136.14 C 122.62 137.03 124.12 136.98 125.01 136.03 L 125.73 135.26 C 126.62 134.30 126.56 132.81 125.61 131.92 C 124.65 131.03 123.16 131.08 122.27 132.04 Z M 121.56 132.80 L 120.85 133.57 C 119.96 134.52 120.01 136.01 120.95 136.90 C 121.90 137.79 123.39 137.74 124.28 136.79 L 125.00 136.02 C 125.89 135.08 125.84 133.59 124.89 132.70 C 123.94 131.81 122.45 131.86 121.56 132.80 Z M 120.86 133.57 L 120.15 134.32 C 119.26 135.27 119.31 136.75 120.25 137.64 C 121.20 138.52 122.68 138.48 123.57 137.54 L 124.27 136.78 C 125.16 135.84 125.11 134.36 124.17 133.47 C 123.23 132.58 121.74 132.63 120.86 133.57 Z M 120.16 134.34 L 119.39 135.15 C 118.51 136.09 118.56 137.57 119.50 138.45 C 120.44 139.33 121.91 139.28 122.79 138.34 L 123.56 137.52 C 124.44 136.59 124.39 135.11 123.45 134.23 C 122.51 133.35 121.04 133.40 120.16 134.34 Z M 119.41 135.17 L 118.65 135.98 C 117.78 136.91 117.83 138.37 118.76 139.24 C 119.69 140.11 121.15 140.06 122.02 139.13 L 122.78 138.32 C 123.65 137.39 123.60 135.93 122.67 135.06 C 121.74 134.19 120.28 134.24 119.41 135.17 Z M 118.67 136.00 L 117.95 136.77 C 117.09 137.69 117.15 139.13 118.07 139.99 C 118.99 140.85 120.44 140.80 121.29 139.88 L 122.01 139.11 C 122.87 138.19 122.81 136.74 121.89 135.89 C 120.97 135.03 119.52 135.08 118.67 136.00 Z M 117.97 136.79 L 117.30 137.50 C 116.45 138.42 116.51 139.85 117.42 140.70 C 118.34 141.55 119.77 141.49 120.61 140.58 L 121.28 139.86 C 122.13 138.94 122.07 137.51 121.16 136.66 C 120.24 135.82 118.82 135.87 117.97 136.79 Z M 117.31 137.53 L 116.69 138.20 C 115.86 139.11 115.91 140.52 116.82 141.36 C 117.73 142.19 119.14 142.14 119.98 141.23 L 120.60 140.56 C 121.44 139.65 121.38 138.23 120.47 137.40 C 119.56 136.56 118.15 136.62 117.31 137.53 Z M 116.71 138.22 L 116.13 138.84 C 115.31 139.74 115.37 141.14 116.27 141.97 C 117.17 142.79 118.57 142.73 119.40 141.83 L 119.97 141.21 C 120.79 140.31 120.73 138.91 119.83 138.08 C 118.93 137.26 117.53 137.32 116.71 138.22 Z M 116.15 138.87 L 115.40 139.69 C 114.58 140.59 114.65 141.97 115.55 142.78 C 116.44 143.59 117.82 143.53 118.64 142.63 L 119.39 141.81 C 120.20 140.91 120.13 139.53 119.24 138.72 C 118.34 137.91 116.96 137.97 116.15 138.87 Z M 115.41 139.72 L 114.73 140.47 C 113.93 141.36 114.00 142.73 114.88 143.52 C 115.77 144.32 117.13 144.26 117.93 143.37 L 118.62 142.61 C 119.42 141.73 119.35 140.36 118.46 139.56 C 117.58 138.76 116.21 138.83 115.41 139.72 Z M 114.75 140.49 L 114.12 141.18 C 113.33 142.05 113.39 143.40 114.26 144.20 C 115.13 144.99 116.48 144.93 117.28 144.05 L 117.91 143.36 C 118.70 142.49 118.64 141.14 117.77 140.34 C 116.89 139.55 115.55 139.61 114.75 140.49 Z M 114.15 141.19 L 113.54 141.85 C 112.74 142.70 112.79 144.04 113.65 144.83 C 114.50 145.62 115.83 145.57 116.62 144.72 L 117.24 144.05 C 118.03 143.20 117.98 141.87 117.13 141.07 C 116.28 140.28 114.94 140.33 114.15 141.19 Z M 113.57 141.84 L 112.88 142.56 C 112.09 143.39 112.12 144.72 112.95 145.51 C 113.78 146.31 115.10 146.28 115.90 145.45 L 116.59 144.73 C 117.39 143.89 117.36 142.57 116.52 141.77 C 115.69 140.98 114.37 141.01 113.57 141.84 Z M 112.91 142.56 L 112.21 143.27 C 111.41 144.09 111.43 145.40 112.25 146.20 C 113.07 147.00 114.38 146.99 115.18 146.17 L 115.88 145.45 C 116.68 144.63 116.66 143.32 115.84 142.52 C 115.02 141.72 113.71 141.74 112.91 142.56 Z M 112.22 143.28 L 111.52 143.99 C 110.73 144.81 110.74 146.11 111.55 146.91 C 112.37 147.70 113.67 147.69 114.47 146.88 L 115.17 146.16 C 115.96 145.35 115.95 144.04 115.14 143.25 C 114.32 142.45 113.02 142.46 112.22 143.28 Z M 111.52 144.01 L 110.83 144.73 C 110.05 145.54 110.07 146.83 110.88 147.62 C 111.69 148.41 112.98 148.39 113.77 147.57 L 114.46 146.86 C 115.25 146.05 115.23 144.75 114.42 143.97 C 113.61 143.18 112.31 143.20 111.52 144.01 Z M 110.83 144.75 L 110.14 145.47 C 109.37 146.28 109.40 147.57 110.21 148.34 C 111.02 149.12 112.31 149.08 113.09 148.27 L 113.77 147.55 C 114.55 146.74 114.52 145.45 113.70 144.68 C 112.89 143.90 111.60 143.94 110.83 144.75 Z M 110.14 145.49 L 109.46 146.22 C 108.69 147.03 108.73 148.31 109.55 149.07 C 110.36 149.84 111.64 149.80 112.40 148.98 L 113.09 148.25 C 113.85 147.44 113.81 146.16 113.00 145.40 C 112.18 144.63 110.90 144.67 110.14 145.49 Z M 109.45 146.24 L 108.77 146.98 C 108.02 147.80 108.07 149.07 108.88 149.82 C 109.70 150.57 110.97 150.52 111.72 149.71 L 112.41 148.96 C 113.16 148.15 113.11 146.88 112.29 146.12 C 111.48 145.37 110.21 145.42 109.45 146.24 Z M 108.77 147.00 L 108.08 147.75 C 107.34 148.57 107.40 149.83 108.22 150.57 C 109.03 151.31 110.29 151.25 111.04 150.44 L 111.72 149.69 C 112.46 148.87 112.40 147.61 111.59 146.87 C 110.77 146.13 109.51 146.19 108.77 147.00 Z M 108.09 147.77 L 107.41 148.52 C 106.68 149.33 106.74 150.59 107.55 151.32 C 108.37 152.05 109.62 151.99 110.35 151.18 L 111.03 150.42 C 111.77 149.61 111.70 148.36 110.89 147.62 C 110.07 146.89 108.82 146.95 108.09 147.77 Z M 107.42 148.53 L 106.75 149.27 C 106.02 150.07 106.09 151.32 106.90 152.05 C 107.71 152.78 108.95 152.71 109.68 151.90 L 110.35 151.17 C 111.07 150.36 111.01 149.11 110.20 148.38 C 109.39 147.65 108.15 147.72 107.42 148.53 Z M 106.77 149.27 L 106.12 149.98 C 105.39 150.78 105.45 152.02 106.25 152.75 C 107.05 153.48 108.29 153.42 109.02 152.62 L 109.67 151.90 C 110.39 151.10 110.33 149.86 109.53 149.14 C 108.73 148.41 107.49 148.47 106.77 149.27 Z M 106.13 149.99 L 105.49 150.69 C 104.76 151.48 104.82 152.71 105.61 153.44 C 106.40 154.16 107.63 154.11 108.36 153.32 L 109.00 152.61 C 109.73 151.82 109.67 150.59 108.88 149.87 C 108.09 149.14 106.86 149.19 106.13 149.99 Z M 105.50 150.70 L 104.84 151.42 C 104.12 152.21 104.17 153.43 104.96 154.15 C 105.74 154.87 106.97 154.82 107.69 154.03 L 108.35 153.31 C 109.07 152.52 109.02 151.30 108.23 150.58 C 107.44 149.86 106.22 149.91 105.50 150.70 Z M 104.84 151.43 L 104.13 152.22 C 103.42 153.00 103.48 154.22 104.26 154.93 C 105.05 155.64 106.26 155.58 106.97 154.80 L 107.68 154.01 C 108.40 153.23 108.34 152.02 107.55 151.30 C 106.77 150.59 105.55 150.65 104.84 151.43 Z M 104.13 152.24 L 103.48 152.96 C 102.78 153.75 102.85 154.96 103.63 155.66 C 104.42 156.36 105.63 156.29 106.33 155.50 L 106.97 154.78 C 107.68 153.99 107.61 152.79 106.82 152.09 C 106.04 151.38 104.83 151.45 104.13 152.24 Z M 103.47 152.99 L 102.82 153.74 C 102.13 154.53 102.22 155.73 103.01 156.42 C 103.80 157.10 105.00 157.02 105.68 156.23 L 106.34 155.48 C 107.02 154.69 106.94 153.49 106.15 152.80 C 105.36 152.11 104.16 152.20 103.47 152.99 Z M 102.80 153.78 L 102.15 154.57 C 101.48 155.37 101.59 156.56 102.39 157.22 C 103.19 157.89 104.38 157.78 105.05 156.98 L 105.70 156.19 C 106.37 155.39 106.26 154.20 105.46 153.53 C 104.66 152.87 103.47 152.98 102.80 153.78 Z M 102.12 154.62 L 101.49 155.43 C 100.85 156.25 101.00 157.43 101.81 158.06 C 102.63 158.70 103.81 158.55 104.45 157.74 L 105.08 156.93 C 105.71 156.11 105.57 154.93 104.75 154.29 C 103.93 153.66 102.75 153.80 102.12 154.62 Z M 101.45 155.50 L 100.85 156.34 C 100.26 157.18 100.45 158.34 101.29 158.94 C 102.13 159.53 103.29 159.34 103.89 158.50 L 104.48 157.66 C 105.08 156.82 104.88 155.66 104.05 155.06 C 103.21 154.47 102.04 154.66 101.45 155.50 Z M 100.82 156.43 L 100.26 157.30 C 99.72 158.16 99.97 159.30 100.83 159.84 C 101.69 160.39 102.83 160.14 103.37 159.28 L 103.93 158.41 C 104.47 157.55 104.22 156.41 103.36 155.86 C 102.50 155.32 101.36 155.57 100.82 156.43 Z M 100.24 157.38 L 99.74 158.24 C 99.24 159.11 99.54 160.22 100.41 160.73 C 101.28 161.23 102.39 160.93 102.90 160.06 L 103.40 159.20 C 103.90 158.33 103.60 157.21 102.73 156.71 C 101.86 156.21 100.74 156.50 100.24 157.38 Z M 99.74 158.29 L 99.27 159.15 C 98.80 160.03 99.13 161.12 100.00 161.59 C 100.88 162.06 101.97 161.74 102.44 160.86 L 102.90 160.01 C 103.38 159.13 103.05 158.04 102.18 157.57 C 101.30 157.09 100.21 157.42 99.74 158.29 Z M 99.28 159.18 L 98.94 159.83 C 98.48 160.70 98.82 161.78 99.69 162.24 C 100.56 162.69 101.64 162.36 102.09 161.49 L 102.43 160.83 C 102.89 159.96 102.55 158.89 101.68 158.43 C 100.81 157.97 99.74 158.31 99.28 159.18 Z"
      fill="black"
      fill-rule="nonzero" /><path d="M 117.94 145.76 L 118.03 146.72 C 118.13 147.89 119.16 148.76 120.33 148.66 C 121.50 148.55 122.37 147.52 122.27 146.35 L 122.19 145.40 C 122.09 144.23 121.06 143.36 119.88 143.46 C 118.71 143.56 117.84 144.59 117.94 145.76 Z M 117.95 146.70 L 118.03 147.68 C 118.12 148.89 119.18 149.80 120.39 149.70 C 121.61 149.61 122.51 148.55 122.42 147.34 L 122.34 146.36 C 122.25 145.15 121.19 144.24 119.98 144.34 C 118.76 144.43 117.86 145.49 117.95 146.70 Z M 117.95 147.65 L 118.01 148.67 C 118.09 149.92 119.17 150.88 120.43 150.80 C 121.68 150.72 122.64 149.64 122.56 148.38 L 122.50 147.37 C 122.42 146.11 121.34 145.16 120.08 145.23 C 118.82 145.31 117.87 146.39 117.95 147.65 Z M 117.95 148.62 L 117.99 149.65 C 118.05 150.94 119.14 151.94 120.43 151.89 C 121.72 151.83 122.73 150.74 122.67 149.44 L 122.63 148.42 C 122.57 147.13 121.48 146.13 120.19 146.18 C 118.89 146.24 117.89 147.33 117.95 148.62 Z M 117.96 149.60 L 117.99 150.54 C 118.02 151.84 119.11 152.88 120.41 152.85 C 121.72 152.81 122.76 151.73 122.72 150.42 L 122.70 149.49 C 122.67 148.18 121.58 147.14 120.27 147.18 C 118.96 147.21 117.93 148.30 117.96 149.60 Z M 117.98 150.51 L 118.00 151.49 C 118.01 152.80 119.09 153.84 120.40 153.83 C 121.71 153.81 122.75 152.73 122.74 151.43 L 122.72 150.45 C 122.71 149.14 121.63 148.09 120.32 148.11 C 119.01 148.12 117.97 149.20 117.98 150.51 Z M 118.00 151.47 L 118.00 152.49 C 118.01 153.80 119.08 154.86 120.38 154.85 C 121.69 154.84 122.75 153.78 122.74 152.47 L 122.74 151.44 C 122.73 150.13 121.66 149.08 120.35 149.09 C 119.05 149.09 117.99 150.16 118.00 151.47 Z M 118.00 152.48 L 118.00 153.55 C 118.00 154.86 119.07 155.92 120.38 155.92 C 121.69 155.91 122.75 154.85 122.74 153.54 L 122.74 152.48 C 122.74 151.17 121.68 150.11 120.37 150.11 C 119.06 150.11 118.00 151.17 118.00 152.48 Z M 118.00 153.55 L 118.00 154.59 C 118.00 155.89 119.06 156.96 120.37 156.96 C 121.68 156.96 122.74 155.89 122.74 154.59 L 122.74 153.55 C 122.74 152.24 121.68 151.18 120.37 151.18 C 119.06 151.18 118.00 152.24 118.00 153.55 Z M 118.01 154.59 L 118.01 155.62 C 118.01 156.92 119.07 157.98 120.37 157.98 C 121.68 157.98 122.74 156.92 122.74 155.62 L 122.74 154.59 C 122.74 153.28 121.68 152.22 120.37 152.22 C 119.07 152.22 118.01 153.28 118.01 154.59 Z M 118.01 155.62 L 118.01 156.64 C 118.01 157.95 119.07 159.01 120.37 159.01 C 121.68 159.01 122.74 157.95 122.74 156.64 L 122.74 155.62 C 122.74 154.31 121.68 153.25 120.37 153.25 C 119.07 153.25 118.01 154.31 118.01 155.62 Z M 118.01 156.64 L 118.01 157.64 C 118.01 158.95 119.07 160.01 120.37 160.01 C 121.68 160.01 122.74 158.95 122.74 157.64 L 122.74 156.64 C 122.74 155.34 121.68 154.28 120.37 154.28 C 119.07 154.28 118.01 155.34 118.01 156.64 Z M 118.01 157.64 L 118.01 158.59 C 118.01 159.90 119.07 160.95 120.37 160.95 C 121.68 160.95 122.73 159.90 122.73 158.59 L 122.73 157.64 C 122.73 156.34 121.68 155.28 120.37 155.28 C 119.07 155.28 118.01 156.34 118.01 157.64 Z M 118.02 158.59 L 118.02 159.65 C 118.02 160.95 119.07 162.00 120.37 162.00 C 121.67 162.00 122.73 160.95 122.73 159.65 L 122.73 158.59 C 122.73 157.29 121.67 156.24 120.37 156.24 C 119.07 156.24 118.02 157.29 118.02 158.59 Z M 118.03 159.64 L 118.02 160.67 C 118.02 161.96 119.07 163.01 120.37 163.02 C 121.66 163.02 122.71 161.97 122.72 160.68 L 122.72 159.65 C 122.72 158.36 121.67 157.30 120.38 157.30 C 119.08 157.30 118.03 158.35 118.03 159.64 Z M 118.03 160.65 L 118.03 161.62 C 118.02 162.91 119.06 163.96 120.35 163.97 C 121.64 163.98 122.69 162.94 122.70 161.65 L 122.71 160.69 C 122.72 159.40 121.68 158.34 120.39 158.33 C 119.10 158.32 118.04 159.36 118.03 160.65 Z M 118.04 161.60 L 118.02 162.54 C 118.00 163.83 119.03 164.89 120.32 164.91 C 121.60 164.93 122.66 163.90 122.68 162.61 L 122.69 161.67 C 122.71 160.38 121.68 159.33 120.40 159.31 C 119.11 159.29 118.06 160.32 118.04 161.60 Z M 118.03 162.52 L 118.01 163.49 C 117.98 164.77 118.99 165.84 120.27 165.87 C 121.55 165.90 122.61 164.89 122.65 163.61 L 122.67 162.64 C 122.70 161.35 121.69 160.29 120.41 160.26 C 119.13 160.23 118.06 161.24 118.03 162.52 Z M 118.02 163.48 L 117.99 164.47 C 117.94 165.74 118.95 166.81 120.22 166.85 C 121.50 166.89 122.56 165.89 122.60 164.62 L 122.64 163.62 C 122.68 162.35 121.68 161.28 120.40 161.24 C 119.13 161.20 118.06 162.20 118.02 163.48 Z M 117.99 164.46 L 117.96 165.46 C 117.91 166.74 118.90 167.80 120.17 167.85 C 121.44 167.90 122.51 166.91 122.56 165.63 L 122.60 164.63 C 122.64 163.36 121.65 162.29 120.38 162.24 C 119.11 162.19 118.04 163.19 117.99 164.46 Z M 117.96 165.46 L 117.92 166.48 C 117.87 167.75 118.86 168.81 120.13 168.86 C 121.40 168.91 122.46 167.92 122.51 166.66 L 122.55 165.64 C 122.60 164.37 121.61 163.30 120.35 163.26 C 119.08 163.21 118.01 164.19 117.96 165.46 Z M 117.93 166.48 L 117.89 167.46 C 117.85 168.73 118.83 169.79 120.09 169.84 C 121.35 169.89 122.42 168.90 122.46 167.64 L 122.50 166.66 C 122.55 165.40 121.57 164.33 120.31 164.28 C 119.05 164.23 117.98 165.22 117.93 166.48 Z M 117.90 167.47 L 117.87 168.46 C 117.82 169.72 118.80 170.78 120.05 170.82 C 121.31 170.87 122.37 169.89 122.42 168.64 L 122.46 167.64 C 122.50 166.38 121.52 165.33 120.27 165.28 C 119.01 165.23 117.95 166.21 117.90 167.47 Z M 117.87 168.46 L 117.84 169.47 C 117.79 170.72 118.76 171.77 120.02 171.82 C 121.27 171.87 122.32 170.89 122.37 169.64 L 122.41 168.63 C 122.46 167.38 121.48 166.33 120.23 166.28 C 118.98 166.23 117.92 167.21 117.87 168.46 Z M 117.84 169.47 L 117.81 170.48 C 117.76 171.73 118.73 172.78 119.98 172.82 C 121.23 172.87 122.27 171.90 122.32 170.65 L 122.36 169.64 C 122.41 168.39 121.44 167.34 120.19 167.29 C 118.94 167.25 117.89 168.22 117.84 169.47 Z M 117.82 170.48 L 117.78 171.48 C 117.73 172.72 118.70 173.76 119.94 173.81 C 121.18 173.86 122.23 172.89 122.27 171.65 L 122.31 170.65 C 122.36 169.41 121.39 168.37 120.15 168.32 C 118.91 168.27 117.86 169.24 117.82 170.48 Z M 117.79 171.48 L 117.75 172.48 C 117.71 173.72 118.67 174.75 119.91 174.80 C 121.14 174.85 122.18 173.88 122.23 172.65 L 122.26 171.65 C 122.31 170.41 121.35 169.37 120.11 169.33 C 118.88 169.28 117.84 170.24 117.79 171.48 Z M 117.76 172.48 L 117.73 173.48 C 117.68 174.71 118.64 175.74 119.87 175.79 C 121.10 175.84 122.13 174.88 122.18 173.65 L 122.21 172.65 C 122.26 171.42 121.30 170.39 120.07 170.34 C 118.84 170.29 117.81 171.25 117.76 172.48 Z M 117.74 173.48 L 117.70 174.48 C 117.66 175.70 118.61 176.73 119.83 176.78 C 121.05 176.82 122.08 175.87 122.13 174.65 L 122.16 173.65 C 122.21 172.43 121.26 171.40 120.03 171.35 C 118.81 171.31 117.78 172.26 117.74 173.48 Z M 117.71 174.48 L 117.68 175.49 C 117.63 176.71 118.58 177.73 119.79 177.78 C 121.01 177.82 122.03 176.87 122.08 175.66 L 122.11 174.65 C 122.16 173.43 121.21 172.41 120.00 172.36 C 118.78 172.32 117.76 173.27 117.71 174.48 Z M 117.69 175.50 L 117.65 176.50 C 117.61 177.71 118.55 178.72 119.76 178.77 C 120.97 178.81 121.98 177.87 122.03 176.66 L 122.06 175.65 C 122.11 174.45 121.16 173.43 119.95 173.39 C 118.75 173.35 117.73 174.29 117.69 175.50 Z M 117.67 176.51 L 117.64 177.51 C 117.60 178.71 118.54 179.71 119.74 179.75 C 120.94 179.79 121.94 178.84 121.98 177.64 L 122.01 176.65 C 122.05 175.45 121.11 174.45 119.91 174.41 C 118.71 174.37 117.71 175.31 117.67 176.51 Z M 117.65 177.52 L 117.63 178.51 C 117.60 179.70 118.54 180.69 119.73 180.72 C 120.92 180.75 121.91 179.81 121.94 178.62 L 121.97 177.63 C 122.00 176.44 121.05 175.45 119.86 175.42 C 118.67 175.39 117.68 176.33 117.65 177.52 Z M 117.64 178.53 L 117.63 179.53 C 117.61 180.71 118.55 181.69 119.74 181.71 C 120.92 181.72 121.89 180.78 121.91 179.60 L 121.93 178.60 C 121.95 177.41 121.00 176.44 119.82 176.42 C 118.64 176.40 117.66 177.35 117.64 178.53 Z M 117.65 179.55 L 117.64 180.54 C 117.63 181.72 118.57 182.68 119.74 182.68 C 120.92 182.69 121.88 181.75 121.88 180.58 L 121.89 179.58 C 121.90 178.41 120.96 177.45 119.79 177.44 C 118.61 177.43 117.65 178.37 117.65 179.55 Z M 117.66 180.55 L 117.65 181.55 C 117.65 182.71 118.59 183.66 119.75 183.66 C 120.91 183.67 121.86 182.73 121.86 181.56 L 121.87 180.57 C 121.87 179.40 120.93 178.46 119.77 178.46 C 118.60 178.45 117.66 179.39 117.66 180.55 Z M 117.67 181.56 L 117.67 182.56 C 117.67 183.71 118.60 184.64 119.76 184.65 C 120.91 184.65 121.84 183.71 121.84 182.56 L 121.84 181.56 C 121.84 180.41 120.91 179.47 119.76 179.47 C 118.61 179.47 117.67 180.41 117.67 181.56 Z M 117.69 182.56 L 117.69 183.50 C 117.69 184.64 118.62 185.57 119.76 185.57 C 120.90 185.57 121.82 184.64 121.82 183.50 L 121.82 182.56 C 121.82 181.42 120.90 180.49 119.76 180.49 C 118.62 180.49 117.69 181.42 117.69 182.56 Z M 117.71 183.50 L 117.71 184.47 C 117.71 185.60 118.63 186.51 119.76 186.51 C 120.89 186.51 121.80 185.60 121.80 184.47 L 121.80 183.50 C 121.80 182.37 120.89 181.45 119.76 181.45 C 118.63 181.45 117.71 182.37 117.71 183.50 Z M 117.73 184.47 L 117.73 185.47 C 117.73 186.59 118.64 187.50 119.76 187.50 C 120.88 187.50 121.78 186.59 121.78 185.47 L 121.78 184.47 C 121.78 183.35 120.88 182.44 119.76 182.44 C 118.64 182.44 117.73 183.35 117.73 184.47 Z M 117.75 185.47 L 117.75 186.54 C 117.75 187.65 118.65 188.55 119.76 188.55 C 120.87 188.55 121.76 187.65 121.76 186.54 L 121.76 185.47 C 121.76 184.37 120.87 183.47 119.76 183.47 C 118.65 183.47 117.75 184.37 117.75 185.47 Z M 117.77 186.54 L 117.77 187.52 C 117.77 188.62 118.66 189.51 119.76 189.51 C 120.86 189.51 121.75 188.62 121.75 187.52 L 121.75 186.54 C 121.75 185.44 120.86 184.55 119.76 184.55 C 118.66 184.55 117.77 185.44 117.77 186.54 Z M 117.79 187.52 L 117.79 188.51 C 117.79 189.60 118.67 190.48 119.76 190.48 C 120.85 190.48 121.73 189.59 121.73 188.50 L 121.73 187.52 C 121.73 186.43 120.84 185.55 119.76 185.55 C 118.67 185.55 117.79 186.43 117.79 187.52 Z M 117.81 188.51 L 117.81 189.52 C 117.81 190.60 118.69 191.48 119.77 191.47 C 120.85 191.47 121.72 190.59 121.72 189.51 L 121.71 188.50 C 121.71 187.42 120.83 186.55 119.75 186.55 C 118.67 186.56 117.80 187.43 117.81 188.51 Z M 117.83 189.53 L 117.83 190.55 C 117.84 191.62 118.71 192.48 119.78 192.48 C 120.85 192.47 121.71 191.60 121.71 190.53 L 121.70 189.51 C 121.69 188.44 120.82 187.57 119.75 187.58 C 118.68 187.59 117.82 188.46 117.83 189.53 Z M 117.85 190.56 L 117.86 191.58 C 117.87 192.64 118.74 193.49 119.80 193.48 C 120.86 193.47 121.71 192.60 121.70 191.54 L 121.69 190.52 C 121.68 189.46 120.81 188.61 119.75 188.62 C 118.69 188.63 117.84 189.50 117.85 190.56 Z M 117.88 191.60 L 117.91 192.71 C 117.93 193.75 118.79 194.59 119.84 194.57 C 120.88 194.55 121.72 193.68 121.70 192.63 L 121.68 191.52 C 121.66 190.48 120.79 189.64 119.74 189.66 C 118.70 189.68 117.86 190.55 117.88 191.60 Z M 117.94 192.76 L 117.99 193.85 C 118.04 194.88 118.92 195.67 119.94 195.62 C 120.97 195.57 121.76 194.70 121.72 193.67 L 121.66 192.58 C 121.61 191.55 120.74 190.76 119.71 190.81 C 118.68 190.86 117.89 191.73 117.94 192.76 Z M 118.04 193.97 L 118.15 194.97 C 118.26 195.97 119.17 196.69 120.17 196.58 C 121.17 196.47 121.90 195.56 121.78 194.56 L 121.67 193.56 C 121.56 192.55 120.65 191.83 119.65 191.94 C 118.65 192.06 117.92 192.96 118.04 193.97 Z M 118.22 195.16 L 118.42 196.04 C 118.64 197.01 119.60 197.61 120.57 197.39 C 121.54 197.17 122.14 196.20 121.92 195.24 L 121.72 194.36 C 121.49 193.39 120.53 192.79 119.56 193.01 C 118.60 193.23 117.99 194.20 118.22 195.16 Z M 118.58 196.40 L 119.00 197.27 C 119.41 198.14 120.46 198.51 121.34 198.09 C 122.22 197.68 122.59 196.62 122.17 195.75 L 121.75 194.88 C 121.34 194.00 120.29 193.63 119.41 194.05 C 118.53 194.47 118.16 195.52 118.58 196.40 Z M 119.44 197.79 L 120.22 198.48 C 120.92 199.12 122.01 199.06 122.64 198.35 C 123.28 197.64 123.22 196.55 122.51 195.92 L 121.73 195.22 C 121.02 194.59 119.93 194.65 119.30 195.36 C 118.67 196.07 118.73 197.16 119.44 197.79 Z M 121.13 198.86 L 122.00 198.98 C 122.92 199.11 123.77 198.46 123.89 197.55 C 124.01 196.63 123.37 195.78 122.45 195.66 L 121.59 195.54 C 120.67 195.41 119.82 196.06 119.70 196.98 C 119.57 197.89 120.22 198.74 121.13 198.86 Z M 123.09 198.72 L 123.77 198.30 C 124.55 197.83 124.79 196.81 124.31 196.03 C 123.83 195.26 122.81 195.02 122.04 195.50 L 121.36 195.91 C 120.58 196.39 120.34 197.41 120.82 198.19 C 121.30 198.96 122.32 199.20 123.09 198.72 Z M 124.24 197.85 L 124.79 197.09 C 125.31 196.35 125.14 195.33 124.40 194.80 C 123.66 194.27 122.64 194.45 122.11 195.18 L 121.57 195.95 C 121.04 196.69 121.21 197.71 121.95 198.24 C 122.69 198.76 123.72 198.59 124.24 197.85 Z M 124.92 196.87 L 125.41 195.89 C 125.81 195.07 125.48 194.09 124.67 193.69 C 123.86 193.28 122.87 193.61 122.47 194.43 L 121.98 195.41 C 121.58 196.22 121.91 197.20 122.72 197.61 C 123.53 198.01 124.51 197.68 124.92 196.87 Z M 125.44 195.82 L 125.72 195.17 C 126.09 194.34 125.71 193.38 124.88 193.01 C 124.05 192.65 123.09 193.02 122.72 193.85 L 122.44 194.50 C 122.07 195.32 122.45 196.29 123.28 196.65 C 124.11 197.02 125.07 196.64 125.44 195.82 Z"
      fill="black"
      fill-rule="nonzero" /><path d="M 133.73 147.60 L 133.40 148.54 C 132.99 149.75 133.63 151.07 134.84 151.49 C 136.05 151.91 137.37 151.26 137.79 150.05 L 138.11 149.11 C 138.53 147.89 137.89 146.57 136.68 146.16 C 135.46 145.74 134.14 146.39 133.73 147.60 Z M 133.38 148.61 L 133.09 149.57 C 132.71 150.79 133.39 152.09 134.62 152.47 C 135.84 152.84 137.14 152.16 137.52 150.93 L 137.81 149.98 C 138.19 148.76 137.50 147.46 136.28 147.08 C 135.06 146.70 133.76 147.39 133.38 148.61 Z M 133.05 149.71 L 132.81 150.68 C 132.52 151.93 133.29 153.18 134.53 153.48 C 135.78 153.78 137.03 153.01 137.32 151.76 L 137.56 150.79 C 137.85 149.54 137.09 148.29 135.84 148.00 C 134.59 147.70 133.34 148.47 133.05 149.71 Z M 132.78 150.89 L 132.64 151.88 C 132.46 153.15 133.34 154.32 134.60 154.50 C 135.86 154.68 137.03 153.80 137.21 152.54 L 137.35 151.55 C 137.54 150.29 136.66 149.12 135.40 148.94 C 134.14 148.76 132.97 149.63 132.78 150.89 Z M 132.65 152.06 L 132.58 153.07 C 132.50 154.33 133.46 155.41 134.72 155.49 C 135.97 155.58 137.06 154.62 137.14 153.36 L 137.21 152.36 C 137.29 151.10 136.33 150.01 135.07 149.93 C 133.82 149.85 132.73 150.81 132.65 152.06 Z M 132.61 153.17 L 132.59 154.18 C 132.56 155.42 133.56 156.45 134.80 156.47 C 136.05 156.50 137.08 155.50 137.10 154.26 L 137.12 153.26 C 137.14 152.01 136.15 150.98 134.90 150.96 C 133.66 150.94 132.63 151.93 132.61 153.17 Z M 132.62 154.21 L 132.61 155.21 C 132.61 156.44 133.61 157.44 134.84 157.44 C 136.07 157.44 137.07 156.44 137.07 155.21 L 137.07 154.22 C 137.07 152.99 136.08 151.99 134.85 151.99 C 133.61 151.99 132.62 152.98 132.62 154.21 Z M 132.65 155.22 L 132.65 156.21 C 132.66 157.43 133.64 158.40 134.86 158.40 C 136.07 158.39 137.05 157.40 137.05 156.19 L 137.04 155.20 C 137.04 153.99 136.05 153.01 134.83 153.01 C 133.62 153.02 132.64 154.01 132.65 155.22 Z M 132.68 156.24 L 132.70 157.24 C 132.72 158.43 133.71 159.38 134.91 159.36 C 136.10 159.34 137.05 158.35 137.03 157.16 L 137.01 156.16 C 136.99 154.97 136.00 154.01 134.81 154.04 C 133.61 154.06 132.66 155.04 132.68 156.24 Z M 132.74 157.28 L 132.77 158.26 C 132.82 159.44 133.81 160.36 134.99 160.31 C 136.17 160.26 137.08 159.27 137.04 158.10 L 137.00 157.11 C 136.95 155.93 135.96 155.02 134.78 155.06 C 133.61 155.11 132.69 156.10 132.74 157.28 Z M 132.81 158.31 L 132.86 159.22 C 132.93 160.37 133.93 161.26 135.09 161.18 C 136.25 161.11 137.13 160.12 137.06 158.96 L 137.00 158.05 C 136.93 156.89 135.94 156.01 134.78 156.08 C 133.62 156.15 132.74 157.15 132.81 158.31 Z M 132.89 159.24 L 132.97 160.21 C 133.05 161.36 134.05 162.21 135.19 162.13 C 136.33 162.04 137.19 161.04 137.10 159.90 L 137.03 158.93 C 136.94 157.79 135.95 156.93 134.80 157.02 C 133.66 157.11 132.81 158.10 132.89 159.24 Z M 133.00 160.23 L 133.09 161.29 C 133.18 162.41 134.17 163.25 135.29 163.16 C 136.42 163.06 137.26 162.07 137.16 160.95 L 137.07 159.89 C 136.98 158.76 135.99 157.93 134.86 158.02 C 133.74 158.11 132.90 159.10 133.00 160.23 Z M 133.11 161.29 L 133.20 162.33 C 133.30 163.44 134.28 164.27 135.39 164.17 C 136.50 164.07 137.32 163.10 137.22 161.99 L 137.13 160.95 C 137.04 159.84 136.06 159.01 134.95 159.11 C 133.84 159.20 133.02 160.18 133.11 161.29 Z M 133.23 162.33 L 133.31 163.30 C 133.41 164.39 134.37 165.20 135.47 165.11 C 136.56 165.01 137.38 164.05 137.28 162.95 L 137.20 161.99 C 137.10 160.89 136.14 160.08 135.04 160.18 C 133.95 160.27 133.13 161.24 133.23 162.33 Z M 133.34 163.30 L 133.42 164.30 C 133.52 165.38 134.47 166.18 135.56 166.09 C 136.64 166.00 137.44 165.04 137.34 163.96 L 137.26 162.95 C 137.16 161.87 136.21 161.07 135.13 161.16 C 134.04 161.26 133.24 162.21 133.34 163.30 Z M 133.45 164.30 L 133.54 165.33 C 133.63 166.40 134.58 167.19 135.65 167.09 C 136.72 167.00 137.51 166.05 137.41 164.98 L 137.32 163.96 C 137.23 162.89 136.28 162.10 135.21 162.19 C 134.14 162.29 133.35 163.23 133.45 164.30 Z M 133.56 165.33 L 133.66 166.35 C 133.75 167.41 134.69 168.18 135.74 168.09 C 136.80 167.99 137.58 167.06 137.48 166.00 L 137.39 164.98 C 137.29 163.93 136.36 163.15 135.30 163.24 C 134.25 163.34 133.47 164.27 133.56 165.33 Z M 133.68 166.35 L 133.78 167.40 C 133.88 168.44 134.80 169.20 135.84 169.10 C 136.88 169.01 137.65 168.08 137.55 167.04 L 137.45 166.00 C 137.35 164.96 136.43 164.19 135.39 164.29 C 134.35 164.39 133.59 165.31 133.68 166.35 Z M 133.82 167.42 L 133.93 168.46 C 134.04 169.48 134.96 170.22 135.98 170.11 C 137.00 170.00 137.73 169.09 137.63 168.07 L 137.51 167.02 C 137.40 166.00 136.49 165.26 135.47 165.37 C 134.45 165.48 133.71 166.40 133.82 167.42 Z M 133.98 168.51 L 134.11 169.51 C 134.25 170.51 135.17 171.20 136.16 171.07 C 137.16 170.93 137.86 170.01 137.72 169.02 L 137.58 168.02 C 137.44 167.02 136.53 166.33 135.53 166.46 C 134.54 166.60 133.84 167.52 133.98 168.51 Z M 134.17 169.60 L 134.35 170.54 C 134.53 171.51 135.46 172.15 136.43 171.96 C 137.39 171.78 138.03 170.85 137.85 169.88 L 137.67 168.93 C 137.48 167.97 136.55 167.33 135.58 167.51 C 134.62 167.70 133.98 168.63 134.17 169.60 Z M 134.41 170.66 L 134.65 171.56 C 134.90 172.49 135.86 173.04 136.79 172.79 C 137.72 172.55 138.27 171.59 138.02 170.66 L 137.78 169.76 C 137.53 168.83 136.58 168.28 135.65 168.53 C 134.72 168.78 134.16 169.73 134.41 170.66 Z M 134.73 171.71 L 135.09 172.66 C 135.42 173.55 136.40 174.00 137.29 173.67 C 138.18 173.34 138.63 172.35 138.30 171.47 L 137.94 170.51 C 137.61 169.63 136.62 169.17 135.74 169.50 C 134.85 169.83 134.40 170.82 134.73 171.71 Z M 135.16 172.79 L 135.59 173.69 C 135.99 174.54 137.00 174.90 137.84 174.50 C 138.69 174.10 139.05 173.09 138.65 172.24 L 138.22 171.34 C 137.82 170.50 136.81 170.13 135.97 170.53 C 135.12 170.93 134.76 171.94 135.16 172.79 Z M 135.65 173.77 L 136.13 174.64 C 136.57 175.45 137.59 175.75 138.40 175.30 C 139.21 174.86 139.50 173.84 139.06 173.03 L 138.59 172.17 C 138.14 171.36 137.13 171.06 136.32 171.50 C 135.51 171.94 135.21 172.96 135.65 173.77 Z M 136.17 174.67 L 136.65 175.50 C 137.11 176.28 138.12 176.55 138.91 176.09 C 139.70 175.63 139.96 174.62 139.50 173.83 L 139.02 173.00 C 138.56 172.22 137.55 171.95 136.76 172.41 C 135.97 172.87 135.71 173.88 136.17 174.67 Z"
      fill="black"
      fill-rule="nonzero" /><path d="M 151.41 106.32 L 151.32 107.32 C 151.22 108.54 152.13 109.62 153.36 109.72 C 154.58 109.82 155.66 108.91 155.76 107.68 L 155.84 106.68 C 155.94 105.46 155.03 104.38 153.81 104.28 C 152.58 104.18 151.51 105.09 151.41 106.32 Z M 151.34 107.29 L 151.25 108.28 C 151.13 109.50 152.02 110.58 153.23 110.69 C 154.45 110.81 155.53 109.92 155.64 108.71 L 155.74 107.71 C 155.86 106.50 154.97 105.42 153.75 105.30 C 152.54 105.18 151.46 106.07 151.34 107.29 Z M 151.27 108.23 L 151.15 109.22 C 151.00 110.42 151.85 111.51 153.05 111.66 C 154.25 111.81 155.35 110.96 155.50 109.76 L 155.62 108.76 C 155.77 107.56 154.92 106.47 153.72 106.32 C 152.52 106.17 151.42 107.03 151.27 108.23 Z M 151.18 109.13 L 151.02 110.10 C 150.82 111.28 151.62 112.40 152.81 112.60 C 153.99 112.80 155.11 112.00 155.31 110.81 L 155.47 109.84 C 155.66 108.66 154.86 107.54 153.68 107.34 C 152.49 107.15 151.38 107.95 151.18 109.13 Z M 151.05 110.01 L 150.86 110.90 C 150.61 112.06 151.36 113.21 152.52 113.46 C 153.69 113.71 154.84 112.96 155.09 111.80 L 155.28 110.91 C 155.53 109.74 154.78 108.59 153.61 108.34 C 152.44 108.09 151.30 108.84 151.05 110.01 Z M 150.88 110.83 L 150.65 111.75 C 150.37 112.91 151.08 114.08 152.24 114.36 C 153.39 114.65 154.56 113.94 154.84 112.78 L 155.07 111.86 C 155.35 110.70 154.64 109.53 153.49 109.25 C 152.33 108.97 151.16 109.68 150.88 110.83 Z M 150.66 111.73 L 150.41 112.71 C 150.11 113.87 150.80 115.04 151.96 115.34 C 153.11 115.63 154.28 114.94 154.58 113.79 L 154.83 112.81 C 155.13 111.65 154.44 110.48 153.29 110.18 C 152.14 109.88 150.96 110.58 150.66 111.73 Z M 150.41 112.72 L 150.13 113.80 C 149.84 114.95 150.53 116.12 151.68 116.42 C 152.83 116.71 154.00 116.02 154.30 114.87 L 154.57 113.79 C 154.87 112.64 154.18 111.47 153.03 111.17 C 151.88 110.88 150.71 111.57 150.41 112.72 Z M 150.14 113.83 L 149.88 114.90 C 149.60 116.05 150.31 117.20 151.45 117.48 C 152.60 117.76 153.76 117.05 154.04 115.90 L 154.30 114.84 C 154.57 113.69 153.87 112.53 152.72 112.26 C 151.57 111.98 150.41 112.68 150.14 113.83 Z M 149.87 114.97 L 149.65 116.06 C 149.41 117.21 150.15 118.33 151.30 118.57 C 152.45 118.81 153.58 118.07 153.82 116.92 L 154.04 115.83 C 154.28 114.68 153.54 113.56 152.39 113.32 C 151.24 113.08 150.11 113.82 149.87 114.97 Z M 149.64 116.19 L 149.49 117.24 C 149.32 118.40 150.13 119.47 151.28 119.63 C 152.44 119.80 153.51 119.00 153.68 117.84 L 153.83 116.79 C 153.99 115.63 153.19 114.56 152.03 114.40 C 150.88 114.23 149.80 115.03 149.64 116.19 Z M 149.48 117.47 L 149.45 118.41 C 149.41 119.57 150.32 120.54 151.48 120.58 C 152.65 120.62 153.62 119.71 153.65 118.55 L 153.68 117.61 C 153.72 116.45 152.81 115.48 151.65 115.44 C 150.49 115.40 149.52 116.31 149.48 117.47 Z M 149.50 118.87 L 149.64 119.64 C 149.86 120.77 150.95 121.52 152.08 121.31 C 153.22 121.10 153.96 120.00 153.75 118.87 L 153.61 118.10 C 153.39 116.96 152.30 116.22 151.17 116.43 C 150.03 116.64 149.29 117.73 149.50 118.87 Z M 150.11 120.58 L 150.69 121.28 C 151.42 122.16 152.73 122.27 153.61 121.54 C 154.48 120.80 154.60 119.50 153.87 118.62 L 153.28 117.93 C 152.55 117.05 151.24 116.93 150.37 117.67 C 149.49 118.40 149.37 119.71 150.11 120.58 Z M 151.64 121.90 L 152.54 122.19 C 153.61 122.54 154.77 121.95 155.12 120.88 C 155.47 119.80 154.89 118.65 153.81 118.30 L 152.91 118.00 C 151.84 117.65 150.68 118.24 150.33 119.31 C 149.98 120.39 150.57 121.54 151.64 121.90 Z M 153.03 122.26 L 154.09 122.34 C 155.21 122.42 156.18 121.58 156.26 120.46 C 156.34 119.35 155.50 118.38 154.38 118.30 L 153.32 118.22 C 152.21 118.14 151.24 118.98 151.16 120.10 C 151.08 121.21 151.92 122.18 153.03 122.26 Z M 154.20 122.33 L 155.22 122.35 C 156.34 122.37 157.25 121.48 157.27 120.37 C 157.29 119.26 156.40 118.34 155.29 118.32 L 154.27 118.30 C 153.16 118.29 152.24 119.17 152.22 120.29 C 152.20 121.40 153.09 122.32 154.20 122.33 Z M 155.27 122.36 L 156.27 122.35 C 157.39 122.34 158.28 121.43 158.28 120.31 C 158.27 119.20 157.36 118.30 156.24 118.31 L 155.24 118.32 C 154.13 118.32 153.23 119.23 153.24 120.35 C 153.24 121.47 154.15 122.36 155.27 122.36 Z M 156.34 122.35 L 157.33 122.31 C 158.45 122.26 159.32 121.32 159.27 120.20 C 159.23 119.08 158.28 118.21 157.16 118.26 L 156.17 118.30 C 155.05 118.35 154.18 119.30 154.23 120.41 C 154.28 121.53 155.22 122.40 156.34 122.35 Z M 157.43 122.31 L 158.43 122.23 C 159.55 122.13 160.38 121.14 160.28 120.02 C 160.18 118.90 159.19 118.07 158.07 118.17 L 157.07 118.26 C 155.95 118.36 155.12 119.35 155.22 120.47 C 155.32 121.59 156.31 122.41 157.43 122.31 Z M 158.53 122.23 L 159.53 122.09 C 160.66 121.94 161.44 120.90 161.29 119.77 C 161.13 118.65 160.09 117.86 158.97 118.02 L 157.96 118.16 C 156.84 118.32 156.05 119.36 156.21 120.48 C 156.37 121.61 157.41 122.39 158.53 122.23 Z M 159.63 122.10 L 160.61 121.92 C 161.74 121.71 162.49 120.62 162.28 119.49 C 162.07 118.37 160.98 117.62 159.85 117.83 L 158.87 118.01 C 157.74 118.22 157.00 119.31 157.20 120.44 C 157.41 121.57 158.50 122.31 159.63 122.10 Z M 160.70 121.93 L 161.65 121.71 C 162.78 121.45 163.49 120.33 163.23 119.19 C 162.98 118.06 161.85 117.35 160.71 117.61 L 159.77 117.82 C 158.63 118.08 157.92 119.21 158.18 120.34 C 158.44 121.48 159.57 122.18 160.70 121.93 Z M 161.73 121.73 L 162.61 121.50 C 163.75 121.20 164.44 120.03 164.14 118.88 C 163.84 117.74 162.66 117.05 161.52 117.35 L 160.64 117.58 C 159.49 117.88 158.80 119.06 159.11 120.20 C 159.41 121.35 160.58 122.04 161.73 121.73 Z M 162.65 121.55 L 163.57 121.29 C 164.74 120.97 165.43 119.76 165.10 118.58 C 164.78 117.41 163.56 116.73 162.39 117.05 L 161.47 117.31 C 160.30 117.63 159.61 118.84 159.94 120.02 C 160.26 121.19 161.48 121.87 162.65 121.55 Z M 163.57 121.35 L 164.60 121.07 C 165.80 120.74 166.51 119.50 166.18 118.30 C 165.86 117.10 164.62 116.39 163.41 116.71 L 162.39 116.99 C 161.18 117.32 160.47 118.56 160.80 119.77 C 161.13 120.97 162.37 121.68 163.57 121.35 Z M 164.57 121.13 L 165.68 120.85 C 166.92 120.54 167.67 119.28 167.35 118.05 C 167.04 116.81 165.78 116.06 164.55 116.37 L 163.44 116.65 C 162.20 116.97 161.45 118.22 161.77 119.46 C 162.08 120.70 163.34 121.44 164.57 121.13 Z M 165.61 120.91 L 166.73 120.67 C 168.00 120.40 168.81 119.15 168.54 117.88 C 168.27 116.61 167.02 115.80 165.75 116.07 L 164.62 116.31 C 163.35 116.58 162.54 117.83 162.81 119.10 C 163.09 120.38 164.34 121.19 165.61 120.91 Z M 166.56 120.75 L 167.62 120.60 C 168.93 120.43 169.85 119.23 169.68 117.91 C 169.50 116.60 168.30 115.68 166.99 115.86 L 165.93 116.00 C 164.61 116.17 163.69 117.38 163.87 118.69 C 164.04 120.00 165.25 120.92 166.56 120.75 Z M 167.21 120.66 L 168.07 120.70 C 169.41 120.75 170.55 119.70 170.60 118.36 C 170.65 117.01 169.60 115.88 168.26 115.83 L 167.40 115.80 C 166.06 115.75 164.92 116.79 164.87 118.14 C 164.82 119.48 165.87 120.61 167.21 120.66 Z M 166.94 120.40 L 167.47 120.71 C 168.65 121.38 170.16 120.98 170.83 119.79 C 171.51 118.61 171.10 117.11 169.92 116.43 L 169.39 116.12 C 168.21 115.45 166.70 115.86 166.03 117.04 C 165.35 118.22 165.76 119.73 166.94 120.40 Z M 166.25 118.95 L 166.35 119.60 C 166.56 120.95 167.83 121.87 169.18 121.66 C 170.53 121.45 171.45 120.18 171.24 118.83 L 171.14 118.19 C 170.93 116.84 169.67 115.91 168.31 116.12 C 166.96 116.33 166.04 117.60 166.25 118.95 Z M 166.43 118.48 L 166.14 119.43 C 165.73 120.74 166.47 122.13 167.77 122.53 C 169.08 122.93 170.47 122.20 170.87 120.90 L 171.16 119.95 C 171.57 118.64 170.83 117.25 169.53 116.85 C 168.22 116.45 166.83 117.18 166.43 118.48 Z M 166.29 119.06 L 165.68 120.28 C 165.07 121.51 165.57 122.99 166.79 123.60 C 168.02 124.21 169.50 123.71 170.11 122.49 L 170.72 121.27 C 171.33 120.04 170.83 118.56 169.61 117.95 C 168.38 117.34 166.90 117.84 166.29 119.06 Z M 165.75 120.16 L 165.24 121.04 C 164.57 122.23 164.98 123.74 166.17 124.42 C 167.36 125.10 168.87 124.68 169.55 123.49 L 170.05 122.61 C 170.72 121.42 170.31 119.91 169.12 119.23 C 167.93 118.56 166.42 118.97 165.75 120.16 Z M 165.27 121.00 L 164.78 121.82 C 164.08 122.99 164.46 124.51 165.63 125.22 C 166.80 125.92 168.32 125.54 169.02 124.36 L 169.52 123.54 C 170.22 122.37 169.84 120.85 168.67 120.14 C 167.49 119.44 165.97 119.82 165.27 121.00 Z M 164.80 121.79 L 164.27 122.65 C 163.55 123.81 163.91 125.34 165.07 126.06 C 166.23 126.78 167.75 126.42 168.47 125.25 L 169.00 124.39 C 169.72 123.23 169.36 121.71 168.20 120.99 C 167.04 120.27 165.52 120.63 164.80 121.79 Z M 164.28 122.63 L 163.72 123.51 C 162.99 124.66 163.34 126.19 164.49 126.92 C 165.64 127.65 167.17 127.31 167.90 126.16 L 168.46 125.28 C 169.19 124.12 168.85 122.60 167.69 121.86 C 166.54 121.13 165.01 121.48 164.28 122.63 Z M 163.74 123.49 L 163.17 124.37 C 162.43 125.52 162.76 127.05 163.90 127.79 C 165.05 128.53 166.58 128.20 167.32 127.05 L 167.89 126.17 C 168.63 125.02 168.30 123.49 167.15 122.75 C 166.01 122.01 164.48 122.34 163.74 123.49 Z M 163.18 124.36 L 162.61 125.22 C 161.87 126.36 162.19 127.89 163.33 128.64 C 164.47 129.39 166.00 129.07 166.75 127.93 L 167.31 127.06 C 168.06 125.92 167.74 124.39 166.60 123.64 C 165.46 122.90 163.92 123.22 163.18 124.36 Z M 162.62 125.21 L 162.07 126.05 C 161.31 127.19 161.63 128.72 162.77 129.47 C 163.90 130.22 165.44 129.91 166.19 128.77 L 166.74 127.93 C 167.49 126.80 167.18 125.26 166.04 124.51 C 164.90 123.76 163.37 124.07 162.62 125.21 Z M 162.07 126.05 L 161.45 126.98 C 160.70 128.11 161.01 129.64 162.14 130.40 C 163.28 131.15 164.81 130.84 165.56 129.71 L 166.18 128.78 C 166.94 127.64 166.63 126.11 165.49 125.36 C 164.36 124.60 162.83 124.91 162.07 126.05 Z M 161.46 126.97 L 160.88 127.84 C 160.12 128.97 160.42 130.50 161.55 131.26 C 162.68 132.02 164.21 131.72 164.97 130.59 L 165.56 129.72 C 166.31 128.58 166.01 127.05 164.88 126.29 C 163.75 125.54 162.22 125.84 161.46 126.97 Z M 160.88 127.84 L 160.33 128.66 C 159.57 129.79 159.86 131.32 160.99 132.08 C 162.12 132.84 163.65 132.54 164.41 131.42 L 164.97 130.59 C 165.73 129.47 165.43 127.93 164.30 127.17 C 163.18 126.41 161.64 126.71 160.88 127.84 Z M 160.33 128.65 L 159.80 129.44 C 159.03 130.56 159.32 132.09 160.45 132.86 C 161.57 133.62 163.10 133.33 163.87 132.21 L 164.40 131.42 C 165.17 130.30 164.88 128.77 163.75 128.00 C 162.63 127.24 161.10 127.53 160.33 128.65 Z M 159.81 129.43 L 159.28 130.20 C 158.51 131.32 158.80 132.85 159.92 133.61 C 161.04 134.38 162.57 134.10 163.34 132.98 L 163.86 132.21 C 164.63 131.10 164.34 129.57 163.22 128.80 C 162.10 128.03 160.57 128.31 159.81 129.43 Z M 159.29 130.19 L 158.74 130.98 C 157.97 132.10 158.25 133.63 159.37 134.40 C 160.48 135.17 162.01 134.89 162.78 133.77 L 163.33 132.98 C 164.10 131.87 163.82 130.34 162.70 129.57 C 161.59 128.80 160.06 129.08 159.29 130.19 Z M 158.75 130.97 L 158.17 131.80 C 157.40 132.92 157.67 134.44 158.78 135.22 C 159.90 135.99 161.42 135.72 162.20 134.61 L 162.78 133.78 C 163.55 132.67 163.28 131.14 162.17 130.36 C 161.05 129.59 159.53 129.86 158.75 130.97 Z M 158.18 131.80 L 157.60 132.62 C 156.83 133.73 157.09 135.25 158.20 136.03 C 159.31 136.81 160.83 136.54 161.61 135.44 L 162.19 134.61 C 162.97 133.51 162.70 131.98 161.59 131.20 C 160.49 130.42 158.96 130.69 158.18 131.80 Z M 157.61 132.61 L 157.04 133.43 C 156.25 134.53 156.51 136.05 157.61 136.84 C 158.71 137.62 160.24 137.36 161.02 136.26 L 161.60 135.45 C 162.38 134.34 162.13 132.82 161.02 132.04 C 159.92 131.25 158.40 131.51 157.61 132.61 Z M 157.05 133.42 L 156.47 134.22 C 155.68 135.31 155.93 136.84 157.03 137.63 C 158.12 138.42 159.65 138.17 160.43 137.07 L 161.01 136.27 C 161.80 135.17 161.55 133.65 160.46 132.86 C 159.36 132.07 157.84 132.32 157.05 133.42 Z M 156.48 134.21 L 155.89 135.02 C 155.10 136.10 155.34 137.63 156.42 138.42 C 157.51 139.22 159.04 138.98 159.83 137.89 L 160.42 137.08 C 161.21 136.00 160.98 134.47 159.89 133.68 C 158.80 132.88 157.28 133.12 156.48 134.21 Z M 155.91 135.01 L 155.30 135.83 C 154.50 136.91 154.73 138.43 155.81 139.23 C 156.89 140.03 158.41 139.80 159.21 138.72 L 159.82 137.90 C 160.62 136.82 160.39 135.30 159.31 134.50 C 158.23 133.70 156.71 133.93 155.91 135.01 Z M 155.31 135.82 L 154.71 136.63 C 153.90 137.70 154.12 139.22 155.20 140.03 C 156.27 140.83 157.79 140.61 158.59 139.54 L 159.20 138.73 C 160.00 137.65 159.78 136.13 158.71 135.33 C 157.63 134.53 156.11 134.75 155.31 135.82 Z M 154.71 136.63 L 154.12 137.42 C 153.31 138.49 153.53 140.01 154.60 140.81 C 155.67 141.62 157.18 141.40 157.99 140.33 L 158.59 139.54 C 159.39 138.47 159.18 136.95 158.11 136.15 C 157.04 135.34 155.52 135.56 154.71 136.63 Z M 154.12 137.42 L 153.53 138.21 C 152.73 139.27 152.94 140.79 154.01 141.59 C 155.08 142.39 156.59 142.18 157.40 141.11 L 157.98 140.33 C 158.79 139.26 158.57 137.75 157.51 136.95 C 156.44 136.14 154.92 136.36 154.12 137.42 Z M 153.54 138.21 L 152.92 139.04 C 152.12 140.10 152.34 141.61 153.40 142.41 C 154.47 143.21 155.98 142.99 156.77 141.93 L 157.39 141.11 C 158.19 140.04 157.98 138.53 156.91 137.73 C 155.85 136.93 154.33 137.15 153.54 138.21 Z M 152.92 139.05 L 152.29 139.89 C 151.50 140.95 151.72 142.46 152.78 143.25 C 153.84 144.04 155.35 143.83 156.14 142.76 L 156.77 141.92 C 157.56 140.86 157.34 139.35 156.28 138.56 C 155.22 137.77 153.71 137.98 152.92 139.05 Z M 152.30 139.90 L 151.70 140.71 C 150.91 141.77 151.13 143.27 152.19 144.06 C 153.25 144.84 154.74 144.62 155.53 143.56 L 156.13 142.75 C 156.92 141.69 156.70 140.20 155.64 139.41 C 154.58 138.62 153.09 138.84 152.30 139.90 Z M 151.70 140.72 L 151.13 141.49 C 150.35 142.54 150.57 144.03 151.62 144.82 C 152.68 145.60 154.17 145.38 154.95 144.33 L 155.52 143.56 C 156.31 142.50 156.09 141.01 155.03 140.23 C 153.98 139.44 152.49 139.66 151.70 140.72 Z M 151.14 141.49 L 150.57 142.27 C 149.79 143.32 150.00 144.80 151.05 145.58 C 152.10 146.36 153.58 146.14 154.36 145.10 L 154.94 144.32 C 155.72 143.27 155.50 141.79 154.46 141.01 C 153.41 140.23 151.92 140.45 151.14 141.49 Z M 150.60 142.26 L 149.97 143.09 C 149.18 144.12 149.38 145.59 150.41 146.38 C 151.45 147.16 152.92 146.96 153.70 145.93 L 154.33 145.10 C 155.12 144.07 154.92 142.60 153.89 141.82 C 152.86 141.03 151.38 141.23 150.60 142.26 Z M 150.05 143.03 L 149.43 143.78 C 148.61 144.77 148.75 146.23 149.74 147.05 C 150.73 147.87 152.19 147.73 153.01 146.74 L 153.63 145.99 C 154.44 145.00 154.30 143.53 153.32 142.72 C 152.33 141.90 150.86 142.04 150.05 143.03 Z M 149.55 143.68 L 148.89 144.37 C 148.02 145.29 148.06 146.75 148.98 147.62 C 149.90 148.49 151.35 148.45 152.23 147.53 L 152.88 146.84 C 153.76 145.92 153.72 144.47 152.80 143.59 C 151.88 142.72 150.42 142.76 149.55 143.68 Z M 149.05 144.26 L 148.32 144.91 C 147.39 145.75 147.31 147.18 148.14 148.11 C 148.98 149.05 150.41 149.13 151.34 148.29 L 152.07 147.64 C 153.00 146.81 153.08 145.37 152.25 144.44 C 151.42 143.51 149.98 143.43 149.05 144.26 Z M 148.45 144.85 L 147.67 145.47 C 146.70 146.24 146.53 147.64 147.30 148.60 C 148.06 149.57 149.47 149.74 150.43 148.97 L 151.22 148.35 C 152.18 147.59 152.35 146.19 151.58 145.22 C 150.82 144.25 149.42 144.09 148.45 144.85 Z M 147.75 145.46 L 146.93 146.06 C 145.95 146.78 145.75 148.15 146.46 149.13 C 147.18 150.10 148.56 150.31 149.53 149.59 L 150.35 148.99 C 151.33 148.27 151.53 146.89 150.82 145.92 C 150.10 144.94 148.72 144.74 147.75 145.46 Z M 146.96 146.07 L 146.66 146.28 C 145.69 146.99 145.47 148.34 146.17 149.31 C 146.87 150.29 148.23 150.50 149.20 149.80 L 149.50 149.58 C 150.47 148.88 150.69 147.53 149.99 146.55 C 149.29 145.58 147.93 145.36 146.96 146.07 Z"
      fill="black"
      fill-rule="nonzero" /><path d="M 146.42 134.17 L 147.23 134.53 C 148.32 135.02 149.60 134.54 150.09 133.45 C 150.58 132.36 150.10 131.08 149.01 130.59 L 148.20 130.22 C 147.11 129.73 145.83 130.22 145.34 131.31 C 144.85 132.39 145.34 133.67 146.42 134.17 Z M 147.25 134.58 L 148.10 134.95 C 149.21 135.44 150.51 134.92 151.00 133.81 C 151.48 132.69 150.97 131.40 149.85 130.91 L 149.00 130.54 C 147.89 130.06 146.59 130.57 146.10 131.68 C 145.62 132.80 146.13 134.10 147.25 134.58 Z M 148.13 135.01 L 149.07 135.39 C 150.22 135.85 151.52 135.30 151.99 134.15 C 152.45 133.00 151.90 131.69 150.75 131.23 L 149.82 130.85 C 148.67 130.39 147.36 130.94 146.90 132.09 C 146.43 133.24 146.98 134.55 148.13 135.01 Z M 149.12 135.45 L 150.18 135.84 C 151.36 136.28 152.67 135.67 153.11 134.49 C 153.55 133.31 152.94 131.99 151.76 131.56 L 150.70 131.17 C 149.52 130.73 148.20 131.33 147.77 132.52 C 147.33 133.70 147.93 135.02 149.12 135.45 Z M 150.23 135.88 L 151.09 136.17 C 152.29 136.58 153.60 135.94 154.01 134.73 C 154.42 133.52 153.77 132.22 152.57 131.81 L 151.71 131.52 C 150.50 131.11 149.19 131.75 148.78 132.96 C 148.38 134.17 149.02 135.47 150.23 135.88 Z M 151.13 136.18 L 151.97 136.45 C 153.18 136.84 154.47 136.17 154.86 134.96 C 155.25 133.75 154.58 132.46 153.37 132.07 L 152.53 131.80 C 151.32 131.42 150.02 132.08 149.64 133.29 C 149.25 134.50 149.92 135.80 151.13 136.18 Z M 152.00 136.45 L 152.91 136.72 C 154.12 137.09 155.40 136.41 155.76 135.20 C 156.13 134.00 155.45 132.72 154.24 132.35 L 153.34 132.07 C 152.13 131.70 150.85 132.38 150.48 133.59 C 150.11 134.80 150.79 136.08 152.00 136.45 Z M 152.93 136.72 L 153.90 137.00 C 155.10 137.36 156.37 136.67 156.73 135.47 C 157.08 134.26 156.39 133.00 155.19 132.64 L 154.22 132.35 C 153.02 132.00 151.75 132.69 151.39 133.89 C 151.04 135.10 151.73 136.36 152.93 136.72 Z M 153.92 137.00 L 154.94 137.29 C 156.14 137.64 157.39 136.95 157.74 135.75 C 158.09 134.54 157.39 133.29 156.19 132.94 L 155.17 132.65 C 153.97 132.30 152.71 132.99 152.37 134.19 C 152.02 135.40 152.71 136.65 153.92 137.00 Z M 154.95 137.28 L 156.02 137.59 C 157.22 137.93 158.47 137.23 158.80 136.04 C 159.14 134.84 158.45 133.60 157.25 133.26 L 156.18 132.95 C 154.98 132.61 153.74 133.31 153.40 134.50 C 153.06 135.70 153.75 136.94 154.95 137.28 Z M 156.03 137.58 L 157.10 137.88 C 158.29 138.21 159.53 137.52 159.86 136.33 C 160.20 135.14 159.51 133.91 158.32 133.57 L 157.24 133.27 C 156.06 132.93 154.82 133.63 154.48 134.82 C 154.15 136.01 154.84 137.24 156.03 137.58 Z M 157.11 137.85 L 158.07 138.12 C 159.25 138.45 160.47 137.77 160.80 136.59 C 161.13 135.41 160.44 134.19 159.27 133.86 L 158.31 133.60 C 157.13 133.27 155.91 133.95 155.58 135.13 C 155.25 136.30 155.94 137.52 157.11 137.85 Z M 158.09 138.09 L 159.07 138.36 C 160.22 138.68 161.42 138.01 161.74 136.85 C 162.07 135.69 161.39 134.49 160.23 134.17 L 159.26 133.90 C 158.10 133.58 156.90 134.25 156.58 135.41 C 156.25 136.57 156.93 137.76 158.09 138.09 Z M 159.08 138.33 L 160.07 138.60 C 161.21 138.92 162.38 138.25 162.70 137.11 C 163.02 135.97 162.35 134.80 161.21 134.48 L 160.22 134.21 C 159.08 133.89 157.91 134.56 157.59 135.69 C 157.27 136.83 157.94 138.01 159.08 138.33 Z M 160.08 138.57 L 161.07 138.84 C 162.19 139.15 163.35 138.49 163.65 137.37 C 163.96 136.25 163.31 135.10 162.19 134.79 L 161.20 134.51 C 160.08 134.21 158.92 134.86 158.61 135.98 C 158.30 137.10 158.96 138.26 160.08 138.57 Z M 161.08 138.81 L 162.06 139.07 C 163.16 139.38 164.30 138.73 164.60 137.63 C 164.90 136.53 164.25 135.39 163.15 135.09 L 162.17 134.82 C 161.07 134.52 159.94 135.17 159.63 136.27 C 159.33 137.37 159.98 138.51 161.08 138.81 Z M 162.08 139.04 L 163.04 139.30 C 164.12 139.59 165.23 138.95 165.53 137.87 C 165.82 136.79 165.18 135.68 164.10 135.38 L 163.14 135.12 C 162.06 134.83 160.94 135.47 160.65 136.55 C 160.35 137.63 160.99 138.75 162.08 139.04 Z M 163.05 139.27 L 163.99 139.52 C 165.05 139.80 166.14 139.17 166.43 138.11 C 166.71 137.04 166.08 135.95 165.02 135.67 L 164.08 135.42 C 163.02 135.13 161.93 135.76 161.64 136.83 C 161.36 137.89 161.99 138.98 163.05 139.27 Z M 164.00 139.49 L 164.99 139.76 C 166.05 140.03 167.12 139.41 167.40 138.36 C 167.68 137.30 167.05 136.23 166.00 135.95 L 165.00 135.69 C 163.95 135.41 162.88 136.04 162.60 137.09 C 162.32 138.14 162.95 139.22 164.00 139.49 Z M 165.00 139.76 L 166.09 140.04 C 167.14 140.31 168.21 139.68 168.48 138.63 C 168.76 137.58 168.13 136.50 167.07 136.23 L 165.99 135.95 C 164.94 135.68 163.87 136.31 163.59 137.36 C 163.32 138.41 163.95 139.48 165.00 139.76 Z M 166.09 140.05 L 167.11 140.32 C 168.17 140.59 169.25 139.95 169.52 138.89 C 169.79 137.83 169.15 136.75 168.09 136.48 L 167.07 136.22 C 166.01 135.94 164.93 136.58 164.66 137.64 C 164.39 138.70 165.03 139.78 166.09 140.05 Z M 167.11 140.33 L 168.08 140.58 C 169.14 140.85 170.23 140.21 170.50 139.14 C 170.77 138.07 170.13 136.98 169.06 136.71 L 168.10 136.46 C 167.03 136.19 165.94 136.84 165.67 137.90 C 165.40 138.97 166.04 140.06 167.11 140.33 Z M 168.07 140.59 L 168.99 140.83 C 170.06 141.10 171.15 140.46 171.43 139.38 C 171.71 138.31 171.06 137.21 169.99 136.94 L 169.07 136.70 C 168.00 136.42 166.90 137.07 166.62 138.14 C 166.35 139.22 166.99 140.31 168.07 140.59 Z M 168.97 140.84 L 169.85 141.07 C 170.93 141.35 172.03 140.70 172.32 139.62 C 172.60 138.54 171.95 137.44 170.87 137.15 L 170.00 136.92 C 168.92 136.64 167.81 137.29 167.53 138.37 C 167.25 139.45 167.89 140.55 168.97 140.84 Z M 169.83 141.07 L 170.73 141.31 C 171.81 141.60 172.92 140.96 173.21 139.88 C 173.51 138.80 172.87 137.69 171.79 137.40 L 170.89 137.15 C 169.81 136.86 168.70 137.50 168.40 138.58 C 168.11 139.66 168.75 140.77 169.83 141.07 Z M 170.71 141.28 L 171.72 141.57 C 172.78 141.87 173.89 141.25 174.19 140.18 C 174.49 139.12 173.87 138.01 172.81 137.71 L 171.80 137.42 C 170.74 137.12 169.63 137.74 169.33 138.81 C 169.03 139.87 169.65 140.98 170.71 141.28 Z M 171.71 141.52 L 172.68 141.80 C 173.72 142.11 174.81 141.51 175.11 140.47 C 175.42 139.43 174.82 138.35 173.78 138.04 L 172.82 137.76 C 171.78 137.45 170.69 138.05 170.38 139.08 C 170.08 140.12 170.67 141.21 171.71 141.52 Z M 172.68 141.75 L 173.62 142.04 C 174.63 142.34 175.70 141.77 176.00 140.76 C 176.31 139.75 175.74 138.68 174.73 138.37 L 173.79 138.09 C 172.77 137.78 171.70 138.35 171.40 139.37 C 171.09 140.38 171.66 141.45 172.68 141.75 Z M 173.62 141.99 L 174.54 142.28 C 175.53 142.58 176.58 142.03 176.88 141.04 C 177.19 140.05 176.63 139.01 175.65 138.70 L 174.72 138.42 C 173.73 138.11 172.69 138.67 172.38 139.65 C 172.08 140.64 172.63 141.69 173.62 141.99 Z M 174.55 142.24 L 175.09 142.41 C 176.06 142.71 177.09 142.17 177.39 141.20 C 177.69 140.23 177.15 139.21 176.18 138.91 L 175.64 138.74 C 174.67 138.44 173.64 138.98 173.34 139.95 C 173.04 140.91 173.58 141.94 174.55 142.24 Z"
      fill="black"
      fill-rule="nonzero" /><path d="M 159.30 146.10 L 158.84 147.00 C 158.28 148.12 158.73 149.48 159.85 150.05 C 160.96 150.61 162.32 150.16 162.89 149.04 L 163.34 148.14 C 163.91 147.02 163.46 145.66 162.34 145.10 C 161.22 144.53 159.86 144.98 159.30 146.10 Z M 158.92 146.99 L 158.45 147.88 C 157.88 148.96 158.29 150.29 159.37 150.86 C 160.44 151.43 161.77 151.02 162.34 149.94 L 162.81 149.05 C 163.38 147.98 162.97 146.65 161.90 146.08 C 160.82 145.51 159.49 145.92 158.92 146.99 Z M 158.55 147.84 L 158.05 148.70 C 157.45 149.72 157.80 151.03 158.82 151.62 C 159.84 152.21 161.15 151.87 161.74 150.85 L 162.24 149.99 C 162.84 148.97 162.49 147.66 161.47 147.07 C 160.45 146.47 159.14 146.82 158.55 147.84 Z M 158.17 148.62 L 157.62 149.43 C 156.98 150.39 157.24 151.68 158.19 152.32 C 159.15 152.96 160.44 152.70 161.08 151.74 L 161.62 150.93 C 162.26 149.97 162.00 148.68 161.05 148.04 C 160.09 147.41 158.80 147.66 158.17 148.62 Z M 157.73 149.34 L 157.13 150.11 C 156.44 151.01 156.60 152.29 157.50 152.98 C 158.39 153.67 159.67 153.51 160.36 152.62 L 160.96 151.84 C 161.66 150.95 161.49 149.67 160.60 148.97 C 159.71 148.28 158.43 148.45 157.73 149.34 Z M 157.21 150.04 L 156.57 150.79 C 155.84 151.64 155.93 152.92 156.78 153.65 C 157.63 154.38 158.91 154.29 159.64 153.44 L 160.28 152.69 C 161.01 151.84 160.92 150.56 160.07 149.83 C 159.22 149.10 157.94 149.20 157.21 150.04 Z M 156.62 150.77 L 155.93 151.52 C 155.19 152.34 155.25 153.60 156.07 154.35 C 156.89 155.10 158.16 155.04 158.90 154.22 L 159.59 153.47 C 160.33 152.65 160.27 151.38 159.45 150.63 C 158.63 149.89 157.36 149.95 156.62 150.77 Z M 155.96 151.52 L 155.27 152.27 C 154.53 153.08 154.58 154.34 155.39 155.08 C 156.20 155.82 157.45 155.77 158.20 154.96 L 158.88 154.21 C 159.62 153.40 159.57 152.14 158.76 151.40 C 157.95 150.66 156.70 150.71 155.96 151.52 Z M 155.28 152.29 L 154.60 153.04 C 153.87 153.85 153.93 155.09 154.73 155.82 C 155.53 156.55 156.77 156.49 157.50 155.69 L 158.18 154.94 C 158.91 154.13 158.86 152.89 158.05 152.16 C 157.25 151.43 156.01 151.49 155.28 152.29 Z M 154.61 153.07 L 153.93 153.82 C 153.21 154.61 153.28 155.84 154.07 156.56 C 154.87 157.28 156.09 157.21 156.81 156.42 L 157.49 155.66 C 158.21 154.87 158.14 153.64 157.35 152.92 C 156.55 152.21 155.33 152.27 154.61 153.07 Z M 153.94 153.84 L 153.28 154.57 C 152.58 155.36 152.65 156.58 153.43 157.28 C 154.22 157.99 155.44 157.92 156.14 157.13 L 156.80 156.39 C 157.51 155.61 157.44 154.39 156.65 153.69 C 155.86 152.98 154.65 153.05 153.94 153.84 Z M 153.30 154.60 L 152.63 155.35 C 151.93 156.14 152.01 157.33 152.79 158.02 C 153.57 158.72 154.76 158.65 155.46 157.86 L 156.13 157.11 C 156.82 156.33 156.75 155.13 155.97 154.44 C 155.19 153.75 153.99 153.82 153.30 154.60 Z M 152.64 155.39 L 151.98 156.14 C 151.30 156.92 151.39 158.09 152.16 158.77 C 152.94 159.44 154.11 159.36 154.79 158.59 L 155.45 157.83 C 156.12 157.06 156.04 155.88 155.26 155.20 C 154.49 154.53 153.31 154.61 152.64 155.39 Z M 151.98 156.19 L 151.35 156.94 C 150.70 157.72 150.80 158.87 151.58 159.52 C 152.35 160.17 153.51 160.07 154.16 159.29 L 154.79 158.54 C 155.44 157.77 155.34 156.61 154.56 155.96 C 153.79 155.31 152.63 155.41 151.98 156.19 Z M 151.34 156.99 L 150.69 157.81 C 150.07 158.59 150.21 159.73 150.99 160.35 C 151.77 160.97 152.90 160.83 153.52 160.05 L 154.17 159.24 C 154.79 158.46 154.66 157.32 153.88 156.70 C 153.09 156.08 151.96 156.21 151.34 156.99 Z M 150.65 157.90 L 149.94 158.91 C 149.37 159.71 149.56 160.83 150.36 161.40 C 151.16 161.97 152.28 161.78 152.85 160.97 L 153.56 159.96 C 154.13 159.16 153.94 158.05 153.14 157.48 C 152.34 156.91 151.22 157.10 150.65 157.90 Z M 149.79 159.19 L 149.40 160.02 C 148.98 160.90 149.36 161.96 150.25 162.37 C 151.14 162.79 152.19 162.41 152.61 161.52 L 153.00 160.70 C 153.41 159.81 153.03 158.75 152.14 158.34 C 151.26 157.92 150.20 158.30 149.79 159.19 Z M 149.45 161.58 L 149.67 162.01 C 150.12 162.87 151.18 163.20 152.04 162.75 C 152.90 162.30 153.23 161.24 152.78 160.39 L 152.56 159.96 C 152.11 159.10 151.05 158.77 150.19 159.22 C 149.33 159.67 149.00 160.73 149.45 161.58 Z M 151.34 162.91 L 152.21 162.86 C 153.16 162.79 153.88 161.97 153.81 161.03 C 153.75 160.08 152.93 159.36 151.99 159.42 L 151.11 159.48 C 150.17 159.54 149.45 160.36 149.51 161.31 C 149.57 162.26 150.39 162.98 151.34 162.91 Z M 152.64 162.73 L 153.80 162.33 C 154.68 162.03 155.15 161.08 154.85 160.20 C 154.55 159.32 153.59 158.85 152.72 159.16 L 151.56 159.55 C 150.68 159.85 150.21 160.81 150.51 161.68 C 150.81 162.56 151.77 163.03 152.64 162.73 Z M 154.01 162.22 L 154.94 161.75 C 155.76 161.33 156.08 160.34 155.67 159.52 C 155.26 158.71 154.27 158.38 153.45 158.79 L 152.51 159.27 C 151.70 159.68 151.37 160.67 151.78 161.49 C 152.20 162.30 153.19 162.63 154.01 162.22 Z M 155.08 161.66 L 155.91 161.14 C 156.68 160.65 156.91 159.63 156.43 158.86 C 155.94 158.09 154.92 157.86 154.15 158.35 L 153.32 158.88 C 152.55 159.36 152.32 160.38 152.80 161.15 C 153.29 161.92 154.31 162.15 155.08 161.66 Z M 155.98 161.09 L 156.79 160.52 C 157.54 159.99 157.72 158.97 157.19 158.22 C 156.67 157.48 155.64 157.30 154.90 157.82 L 154.08 158.40 C 153.34 158.92 153.16 159.95 153.68 160.69 C 154.21 161.43 155.23 161.61 155.98 161.09 Z M 156.81 160.52 L 157.62 159.94 C 158.37 159.41 158.54 158.37 158.01 157.63 C 157.48 156.88 156.45 156.71 155.70 157.24 L 154.89 157.82 C 154.14 158.35 153.97 159.38 154.50 160.13 C 155.03 160.88 156.06 161.05 156.81 160.52 Z M 157.62 159.98 L 158.45 159.40 C 159.22 158.87 159.41 157.82 158.88 157.05 C 158.35 156.29 157.30 156.10 156.53 156.63 L 155.70 157.20 C 154.94 157.73 154.74 158.78 155.27 159.55 C 155.81 160.32 156.86 160.51 157.62 159.98 Z M 158.45 159.45 L 159.29 158.89 C 160.08 158.36 160.30 157.28 159.76 156.49 C 159.23 155.70 158.16 155.49 157.37 156.02 L 156.53 156.58 C 155.74 157.11 155.53 158.18 156.06 158.98 C 156.59 159.77 157.66 159.98 158.45 159.45 Z M 159.30 158.95 L 160.18 158.39 C 161.01 157.85 161.24 156.75 160.71 155.92 C 160.18 155.09 159.07 154.85 158.24 155.39 L 157.36 155.95 C 156.53 156.49 156.30 157.59 156.83 158.42 C 157.36 159.25 158.47 159.49 159.30 158.95 Z M 160.14 158.57 L 161.14 158.02 C 162.06 157.50 162.40 156.34 161.89 155.41 C 161.38 154.48 160.21 154.14 159.28 154.66 L 158.28 155.21 C 157.36 155.72 157.02 156.89 157.53 157.81 C 158.04 158.74 159.21 159.08 160.14 158.57 Z M 160.66 158.40 L 161.51 158.21 C 162.65 157.96 163.37 156.83 163.12 155.69 C 162.87 154.56 161.74 153.84 160.60 154.09 L 159.75 154.27 C 158.62 154.52 157.90 155.65 158.15 156.79 C 158.40 157.93 159.52 158.65 160.66 158.40 Z M 159.90 158.06 L 160.47 158.40 C 161.52 159.04 162.90 158.70 163.53 157.65 C 164.17 156.59 163.83 155.22 162.78 154.58 L 162.21 154.24 C 161.16 153.60 159.79 153.94 159.15 154.99 C 158.51 156.05 158.85 157.42 159.90 158.06 Z M 159.50 157.18 L 159.76 157.97 C 160.13 159.15 161.39 159.79 162.56 159.41 C 163.74 159.04 164.38 157.78 164.00 156.61 L 163.75 155.81 C 163.37 154.64 162.12 153.99 160.94 154.37 C 159.77 154.75 159.12 156.00 159.50 157.18 Z M 159.71 157.03 L 159.57 158.19 C 159.43 159.39 160.29 160.48 161.49 160.62 C 162.69 160.76 163.78 159.90 163.92 158.70 L 164.05 157.54 C 164.19 156.34 163.33 155.26 162.14 155.12 C 160.94 154.98 159.85 155.84 159.71 157.03 Z M 159.75 157.64 L 159.34 158.66 C 158.89 159.76 159.42 161.01 160.52 161.46 C 161.62 161.91 162.87 161.38 163.32 160.28 L 163.74 159.26 C 164.18 158.16 163.66 156.90 162.56 156.45 C 161.45 156.01 160.20 156.54 159.75 157.64 Z M 159.49 158.40 L 159.01 159.24 C 158.42 160.25 158.76 161.56 159.78 162.14 C 160.80 162.73 162.10 162.39 162.69 161.37 L 163.17 160.53 C 163.76 159.52 163.41 158.22 162.40 157.63 C 161.38 157.04 160.08 157.39 159.49 158.40 Z M 159.10 159.12 L 158.52 159.98 C 157.87 160.95 158.12 162.26 159.09 162.91 C 160.05 163.56 161.36 163.31 162.01 162.34 L 162.59 161.48 C 163.24 160.52 162.99 159.21 162.02 158.56 C 161.06 157.90 159.75 158.16 159.10 159.12 Z M 158.58 159.93 L 157.96 160.78 C 157.27 161.71 157.47 163.02 158.40 163.70 C 159.33 164.38 160.64 164.18 161.33 163.25 L 161.95 162.40 C 162.63 161.47 162.43 160.16 161.50 159.48 C 160.57 158.79 159.26 158.99 158.58 159.93 Z M 157.99 160.76 L 157.37 161.58 C 156.67 162.49 156.85 163.79 157.76 164.48 C 158.67 165.18 159.97 165.00 160.66 164.09 L 161.29 163.27 C 161.98 162.36 161.81 161.06 160.90 160.37 C 159.99 159.67 158.69 159.85 157.99 160.76 Z M 157.38 161.60 L 156.74 162.44 C 156.06 163.35 156.24 164.63 157.14 165.31 C 158.04 166.00 159.33 165.82 160.01 164.92 L 160.65 164.07 C 161.33 163.17 161.15 161.89 160.25 161.20 C 159.35 160.52 158.06 160.70 157.38 161.60 Z M 156.72 162.56 L 155.98 163.65 C 155.36 164.56 155.59 165.81 156.51 166.43 C 157.42 167.05 158.66 166.81 159.28 165.90 L 160.03 164.80 C 160.65 163.89 160.41 162.65 159.50 162.03 C 158.59 161.41 157.34 161.64 156.72 162.56 Z M 155.86 164.01 L 155.50 164.86 C 155.07 165.83 155.52 166.97 156.50 167.39 C 157.48 167.81 158.62 167.36 159.04 166.38 L 159.40 165.54 C 159.82 164.56 159.37 163.43 158.40 163.00 C 157.42 162.58 156.28 163.03 155.86 164.01 Z M 155.44 165.99 L 155.56 166.58 C 155.77 167.59 156.75 168.24 157.75 168.04 C 158.76 167.83 159.41 166.85 159.21 165.85 L 159.09 165.25 C 158.89 164.25 157.91 163.60 156.90 163.80 C 155.89 164.00 155.24 164.98 155.44 165.99 Z M 156.55 167.80 L 157.19 168.14 C 158.07 168.60 159.16 168.27 159.62 167.39 C 160.08 166.51 159.75 165.43 158.87 164.97 L 158.22 164.63 C 157.35 164.16 156.26 164.50 155.80 165.38 C 155.34 166.25 155.67 167.34 156.55 167.80 Z M 157.80 168.28 L 158.81 168.41 C 159.77 168.54 160.64 167.87 160.77 166.92 C 160.89 165.96 160.22 165.09 159.27 164.96 L 158.26 164.83 C 157.31 164.70 156.43 165.37 156.31 166.33 C 156.18 167.28 156.85 168.15 157.80 168.28 Z M 159.08 168.37 L 160.24 168.35 C 161.17 168.33 161.91 167.55 161.89 166.62 C 161.87 165.69 161.10 164.96 160.17 164.98 L 159.00 165.00 C 158.07 165.02 157.34 165.80 157.36 166.73 C 157.38 167.66 158.15 168.39 159.08 168.37 Z M 160.41 168.30 L 161.48 168.17 C 162.38 168.05 163.02 167.23 162.91 166.32 C 162.80 165.42 161.97 164.78 161.07 164.89 L 160.00 165.02 C 159.10 165.14 158.45 165.96 158.57 166.87 C 158.68 167.77 159.51 168.41 160.41 168.30 Z M 161.62 168.13 L 162.60 167.92 C 163.48 167.73 164.04 166.85 163.85 165.97 C 163.66 165.08 162.78 164.52 161.90 164.71 L 160.92 164.92 C 160.04 165.12 159.48 165.99 159.67 166.88 C 159.86 167.76 160.74 168.32 161.62 168.13 Z M 162.71 167.89 L 163.65 167.61 C 164.52 167.35 165.01 166.44 164.76 165.57 C 164.50 164.71 163.59 164.21 162.72 164.47 L 161.78 164.74 C 160.91 165.00 160.42 165.91 160.68 166.78 C 160.93 167.65 161.84 168.14 162.71 167.89 Z M 163.72 167.58 L 164.65 167.26 C 165.50 166.96 165.95 166.03 165.65 165.18 C 165.36 164.32 164.42 163.87 163.57 164.17 L 162.64 164.49 C 161.79 164.79 161.34 165.72 161.64 166.58 C 161.94 167.43 162.87 167.88 163.72 167.58 Z M 164.69 167.25 L 165.60 166.90 C 166.45 166.58 166.88 165.63 166.55 164.79 C 166.23 163.94 165.29 163.52 164.44 163.84 L 163.53 164.19 C 162.68 164.51 162.26 165.45 162.58 166.30 C 162.90 167.14 163.84 167.57 164.69 167.25 Z M 165.63 166.89 L 166.57 166.51 C 167.41 166.18 167.81 165.22 167.47 164.38 C 167.14 163.54 166.18 163.14 165.35 163.48 L 164.41 163.85 C 163.57 164.19 163.17 165.14 163.51 165.98 C 163.84 166.82 164.80 167.22 165.63 166.89 Z M 166.59 166.50 L 167.53 166.11 C 168.36 165.76 168.76 164.80 168.41 163.97 C 168.05 163.13 167.10 162.74 166.26 163.09 L 165.32 163.49 C 164.49 163.84 164.10 164.79 164.45 165.63 C 164.80 166.46 165.76 166.85 166.59 166.50 Z M 167.55 166.10 L 168.47 165.70 C 169.30 165.34 169.68 164.38 169.32 163.55 C 168.96 162.72 168.00 162.34 167.17 162.70 L 166.24 163.10 C 165.42 163.46 165.03 164.42 165.39 165.25 C 165.75 166.08 166.72 166.46 167.55 166.10 Z M 168.48 165.70 L 169.40 165.29 C 170.22 164.93 170.60 163.97 170.24 163.14 C 169.88 162.31 168.91 161.93 168.08 162.30 L 167.16 162.70 C 166.34 163.06 165.96 164.03 166.32 164.86 C 166.69 165.68 167.65 166.06 168.48 165.70 Z M 169.39 165.30 L 170.31 164.90 C 171.14 164.54 171.52 163.57 171.16 162.75 C 170.80 161.92 169.84 161.54 169.01 161.90 L 168.09 162.29 C 167.26 162.65 166.88 163.62 167.24 164.45 C 167.60 165.28 168.56 165.66 169.39 165.30 Z M 170.29 164.91 L 171.21 164.52 C 172.04 164.17 172.43 163.21 172.09 162.38 C 171.74 161.55 170.78 161.15 169.94 161.50 L 169.02 161.89 C 168.19 162.24 167.80 163.20 168.15 164.03 C 168.50 164.86 169.46 165.26 170.29 164.91 Z M 171.18 164.54 L 172.10 164.17 C 172.95 163.84 173.36 162.88 173.02 162.04 C 172.69 161.20 171.74 160.79 170.89 161.12 L 169.97 161.49 C 169.13 161.82 168.72 162.77 169.05 163.62 C 169.39 164.46 170.34 164.87 171.18 164.54 Z M 172.08 164.19 L 173.01 163.84 C 173.86 163.52 174.29 162.57 173.97 161.72 C 173.65 160.86 172.70 160.43 171.85 160.75 L 170.92 161.10 C 170.07 161.43 169.64 162.37 169.96 163.23 C 170.28 164.08 171.23 164.51 172.08 164.19 Z M 172.99 163.85 L 173.93 163.51 C 174.79 163.20 175.24 162.25 174.93 161.40 C 174.62 160.54 173.67 160.09 172.81 160.40 L 171.87 160.74 C 171.01 161.05 170.57 162.00 170.88 162.86 C 171.19 163.71 172.13 164.16 172.99 163.85 Z M 173.92 163.52 L 174.85 163.20 C 175.72 162.90 176.17 161.95 175.87 161.08 C 175.57 160.22 174.62 159.76 173.75 160.06 L 172.82 160.39 C 171.96 160.69 171.50 161.64 171.80 162.50 C 172.11 163.37 173.05 163.83 173.92 163.52 Z M 174.84 163.23 L 175.73 162.93 C 176.61 162.63 177.09 161.68 176.79 160.80 C 176.50 159.91 175.54 159.44 174.66 159.73 L 173.76 160.03 C 172.88 160.33 172.41 161.29 172.70 162.17 C 173.00 163.05 173.95 163.53 174.84 163.23 Z M 175.70 162.97 L 176.64 162.68 C 177.54 162.40 178.05 161.44 177.77 160.53 C 177.49 159.63 176.53 159.12 175.62 159.40 L 174.69 159.69 C 173.78 159.97 173.27 160.93 173.55 161.84 C 173.84 162.75 174.80 163.25 175.70 162.97 Z M 176.59 162.73 L 177.59 162.45 C 178.52 162.20 179.07 161.23 178.81 160.30 C 178.56 159.37 177.60 158.83 176.67 159.08 L 175.67 159.36 C 174.74 159.61 174.19 160.57 174.44 161.50 C 174.70 162.44 175.66 162.98 176.59 162.73 Z M 177.53 162.51 L 178.60 162.26 C 179.56 162.03 180.16 161.07 179.93 160.11 C 179.71 159.15 178.75 158.55 177.79 158.78 L 176.72 159.03 C 175.76 159.25 175.16 160.21 175.39 161.17 C 175.61 162.13 176.57 162.73 177.53 162.51 Z M 178.52 162.34 L 179.60 162.15 C 180.61 161.97 181.28 161.01 181.10 160.00 C 180.92 158.99 179.96 158.32 178.95 158.50 L 177.87 158.69 C 176.86 158.87 176.19 159.84 176.37 160.84 C 176.54 161.85 177.51 162.52 178.52 162.34 Z M 179.43 162.26 L 180.49 162.18 C 181.56 162.09 182.36 161.15 182.27 160.08 C 182.18 159.01 181.25 158.22 180.18 158.30 L 179.12 158.39 C 178.05 158.48 177.25 159.41 177.34 160.48 C 177.43 161.55 178.36 162.35 179.43 162.26 Z M 180.16 162.26 L 181.10 162.35 C 182.22 162.45 183.21 161.62 183.31 160.50 C 183.41 159.39 182.58 158.40 181.46 158.30 L 180.52 158.22 C 179.40 158.12 178.41 158.94 178.31 160.06 C 178.21 161.18 179.04 162.16 180.16 162.26 Z M 180.46 162.27 L 181.21 162.59 C 182.29 163.05 183.53 162.55 183.99 161.47 C 184.44 160.39 183.94 159.15 182.86 158.69 L 182.11 158.37 C 181.03 157.92 179.79 158.42 179.33 159.50 C 178.88 160.58 179.38 161.82 180.46 162.27 Z M 180.29 162.03 L 180.83 162.71 C 181.59 163.67 182.99 163.83 183.96 163.07 C 184.92 162.31 185.09 160.91 184.32 159.94 L 183.78 159.26 C 183.02 158.30 181.62 158.14 180.66 158.90 C 179.69 159.66 179.53 161.06 180.29 162.03 Z M 180.30 161.93 L 180.55 162.86 C 180.88 164.12 182.17 164.87 183.43 164.53 C 184.69 164.20 185.44 162.91 185.10 161.65 L 184.85 160.72 C 184.52 159.46 183.23 158.71 181.97 159.05 C 180.71 159.38 179.97 160.67 180.30 161.93 Z M 180.34 162.30 L 180.36 163.36 C 180.39 164.74 181.52 165.83 182.89 165.80 C 184.27 165.78 185.36 164.64 185.33 163.27 L 185.31 162.21 C 185.28 160.84 184.15 159.74 182.78 159.77 C 181.41 159.80 180.31 160.93 180.34 162.30 Z M 180.27 162.97 L 180.13 164.00 C 179.94 165.43 180.94 166.74 182.36 166.93 C 183.79 167.12 185.10 166.12 185.29 164.69 L 185.42 163.66 C 185.62 162.24 184.62 160.93 183.19 160.74 C 181.77 160.55 180.46 161.55 180.27 162.97 Z M 180.13 163.70 L 179.91 164.56 C 179.55 165.98 180.42 167.43 181.84 167.79 C 183.27 168.14 184.71 167.28 185.07 165.86 L 185.29 165.00 C 185.64 163.57 184.78 162.13 183.36 161.77 C 181.93 161.41 180.49 162.27 180.13 163.70 Z M 179.98 164.31 L 179.67 165.17 C 179.17 166.56 179.90 168.09 181.29 168.58 C 182.68 169.08 184.20 168.36 184.70 166.97 L 185.01 166.10 C 185.50 164.72 184.78 163.19 183.39 162.69 C 182.00 162.19 180.47 162.92 179.98 164.31 Z M 179.73 164.98 L 179.32 165.90 C 178.72 167.26 179.34 168.84 180.69 169.44 C 182.05 170.04 183.63 169.43 184.23 168.07 L 184.64 167.15 C 185.24 165.80 184.62 164.21 183.27 163.61 C 181.91 163.02 180.33 163.63 179.73 164.98 Z M 179.37 165.78 L 178.86 166.81 C 178.19 168.14 178.73 169.76 180.06 170.42 C 181.40 171.09 183.02 170.54 183.68 169.21 L 184.19 168.19 C 184.85 166.86 184.31 165.24 182.98 164.57 C 181.65 163.91 180.03 164.45 179.37 165.78 Z M 178.87 166.76 L 178.43 167.60 C 177.74 168.92 178.25 170.55 179.57 171.24 C 180.89 171.94 182.53 171.43 183.22 170.11 L 183.66 169.27 C 184.35 167.94 183.84 166.31 182.52 165.62 C 181.20 164.92 179.57 165.43 178.87 166.76 Z M 178.44 167.57 L 178.02 168.35 C 177.32 169.67 177.81 171.31 179.13 172.02 C 180.45 172.72 182.09 172.23 182.79 170.91 L 183.21 170.13 C 183.92 168.81 183.42 167.17 182.11 166.47 C 180.79 165.76 179.15 166.25 178.44 167.57 Z M 178.03 168.33 L 177.58 169.17 C 176.86 170.48 177.34 172.12 178.66 172.84 C 179.97 173.56 181.61 173.07 182.33 171.76 L 182.78 170.93 C 183.50 169.62 183.02 167.97 181.71 167.26 C 180.39 166.54 178.75 167.02 178.03 168.33 Z M 177.59 169.15 L 177.10 170.02 C 176.37 171.33 176.84 172.98 178.15 173.71 C 179.46 174.43 181.11 173.96 181.83 172.65 L 182.32 171.78 C 183.05 170.47 182.58 168.82 181.27 168.10 C 179.96 167.37 178.31 167.84 177.59 169.15 Z M 177.11 170.01 L 176.59 170.92 C 175.86 172.22 176.32 173.87 177.62 174.61 C 178.92 175.34 180.58 174.88 181.31 173.58 L 181.83 172.67 C 182.56 171.37 182.10 169.72 180.80 168.98 C 179.50 168.24 177.84 168.70 177.11 170.01 Z M 176.60 170.90 L 176.07 171.83 C 175.32 173.13 175.77 174.79 177.07 175.53 C 178.37 176.28 180.02 175.83 180.77 174.53 L 181.30 173.60 C 182.05 172.30 181.60 170.64 180.30 169.90 C 179.00 169.15 177.35 169.60 176.60 170.90 Z M 176.07 171.82 L 175.52 172.77 C 174.77 174.06 175.20 175.72 176.50 176.48 C 177.79 177.23 179.45 176.79 180.20 175.50 L 180.76 174.55 C 181.51 173.26 181.08 171.60 179.78 170.84 C 178.49 170.09 176.83 170.52 176.07 171.82 Z M 175.53 172.75 L 174.98 173.68 C 174.22 174.97 174.64 176.63 175.93 177.40 C 177.22 178.16 178.88 177.74 179.64 176.45 L 180.20 175.52 C 180.96 174.23 180.53 172.57 179.25 171.80 C 177.96 171.04 176.29 171.46 175.53 172.75 Z M 174.99 173.67 L 174.46 174.55 C 173.68 175.84 174.10 177.50 175.38 178.27 C 176.66 179.04 178.33 178.63 179.10 177.35 L 179.63 176.46 C 180.41 175.18 179.99 173.51 178.71 172.74 C 177.43 171.97 175.76 172.38 174.99 173.67 Z M 174.47 174.54 L 173.93 175.42 C 173.15 176.70 173.55 178.37 174.83 179.14 C 176.10 179.92 177.77 179.52 178.55 178.24 L 179.09 177.36 C 179.87 176.09 179.47 174.42 178.19 173.64 C 176.91 172.86 175.25 173.26 174.47 174.54 Z M 173.94 175.41 L 173.40 176.28 C 172.61 177.56 173.00 179.22 174.28 180.01 C 175.55 180.79 177.21 180.40 178.00 179.13 L 178.54 178.26 C 179.32 176.99 178.93 175.32 177.66 174.53 C 176.39 173.75 174.72 174.14 173.94 175.41 Z M 173.41 176.27 L 172.87 177.13 C 172.08 178.40 172.46 180.07 173.73 180.86 C 174.99 181.65 176.66 181.27 177.45 180.00 L 177.99 179.14 C 178.78 177.88 178.40 176.21 177.13 175.42 C 175.87 174.63 174.20 175.01 173.41 176.27 Z M 172.88 177.12 L 172.35 177.97 C 171.55 179.23 171.92 180.89 173.18 181.69 C 174.44 182.49 176.11 182.11 176.91 180.85 L 177.44 180.01 C 178.24 178.75 177.86 177.09 176.60 176.29 C 175.34 175.49 173.68 175.86 172.88 177.12 Z M 172.36 177.96 L 171.83 178.77 C 171.03 180.03 171.39 181.70 172.65 182.50 C 173.90 183.30 175.57 182.94 176.37 181.68 L 176.90 180.86 C 177.70 179.61 177.33 177.94 176.08 177.14 C 174.83 176.34 173.16 176.70 172.36 177.96 Z M 171.84 178.77 L 171.33 179.56 C 170.52 180.81 170.88 182.47 172.13 183.28 C 173.37 184.09 175.04 183.73 175.85 182.48 L 176.36 181.69 C 177.17 180.44 176.81 178.78 175.57 177.97 C 174.32 177.16 172.65 177.52 171.84 178.77 Z M 171.34 179.55 L 170.76 180.44 C 169.95 181.68 170.29 183.34 171.53 184.16 C 172.78 184.97 174.44 184.62 175.25 183.38 L 175.84 182.49 C 176.65 181.25 176.30 179.59 175.06 178.77 C 173.82 177.96 172.15 178.31 171.34 179.55 Z M 170.78 180.43 L 170.15 181.38 C 169.34 182.61 169.67 184.27 170.90 185.08 C 172.13 185.90 173.79 185.56 174.60 184.34 L 175.23 183.39 C 176.05 182.16 175.71 180.50 174.48 179.69 C 173.25 178.87 171.60 179.20 170.78 180.43 Z M 170.18 181.38 L 169.58 182.26 C 168.76 183.48 169.09 185.13 170.30 185.94 C 171.51 186.76 173.16 186.44 173.98 185.23 L 174.57 184.34 C 175.39 183.12 175.07 181.48 173.86 180.66 C 172.64 179.84 171.00 180.16 170.18 181.38 Z M 169.61 182.26 L 169.05 183.08 C 168.23 184.28 168.53 185.92 169.73 186.74 C 170.93 187.56 172.57 187.25 173.39 186.05 L 173.95 185.23 C 174.77 184.03 174.46 182.39 173.26 181.57 C 172.06 180.75 170.43 181.06 169.61 182.26 Z M 169.07 183.08 L 168.55 183.84 C 167.73 185.02 168.02 186.65 169.20 187.47 C 170.39 188.29 172.01 188.00 172.83 186.81 L 173.36 186.06 C 174.18 184.87 173.89 183.25 172.70 182.42 C 171.52 181.60 169.89 181.90 169.07 183.08 Z M 168.57 183.84 L 168.08 184.53 C 167.26 185.70 167.54 187.32 168.71 188.14 C 169.88 188.96 171.49 188.68 172.32 187.51 L 172.81 186.82 C 173.63 185.65 173.35 184.03 172.18 183.21 C 171.01 182.39 169.40 182.67 168.57 183.84 Z M 168.12 184.53 L 167.57 185.30 C 166.74 186.45 167.01 188.05 168.16 188.87 C 169.31 189.70 170.91 189.44 171.73 188.29 L 172.28 187.52 C 173.11 186.37 172.84 184.77 171.69 183.94 C 170.55 183.12 168.94 183.38 168.12 184.53 Z M 167.62 185.30 L 167.04 186.08 C 166.21 187.20 166.46 188.78 167.58 189.61 C 168.70 190.43 170.28 190.19 171.11 189.07 L 171.68 188.29 C 172.51 187.16 172.27 185.58 171.14 184.76 C 170.02 183.93 168.44 184.17 167.62 185.30 Z M 167.09 186.08 L 166.52 186.84 C 165.70 187.93 165.92 189.49 167.01 190.31 C 168.10 191.14 169.66 190.92 170.48 189.82 L 171.05 189.07 C 171.88 187.98 171.66 186.42 170.57 185.59 C 169.47 184.77 167.92 184.99 167.09 186.08 Z M 166.57 186.84 L 165.97 187.63 C 165.14 188.70 165.34 190.23 166.41 191.05 C 167.48 191.87 169.01 191.67 169.83 190.61 L 170.44 189.82 C 171.26 188.75 171.06 187.22 169.99 186.40 C 168.92 185.58 167.39 185.78 166.57 186.84 Z M 166.01 187.64 L 165.38 188.44 C 164.57 189.49 164.76 190.99 165.80 191.81 C 166.85 192.62 168.35 192.43 169.17 191.39 L 169.79 190.59 C 170.60 189.55 170.42 188.04 169.37 187.23 C 168.33 186.41 166.82 186.60 166.01 187.64 Z M 165.41 188.45 L 164.85 189.16 C 164.04 190.19 164.22 191.68 165.25 192.49 C 166.28 193.30 167.77 193.12 168.58 192.09 L 169.14 191.38 C 169.95 190.35 169.77 188.86 168.74 188.05 C 167.71 187.24 166.22 187.42 165.41 188.45 Z M 164.87 189.16 L 164.27 189.93 C 163.46 190.94 163.63 192.42 164.65 193.23 C 165.66 194.04 167.14 193.87 167.95 192.86 L 168.56 192.09 C 169.37 191.08 169.20 189.60 168.18 188.79 C 167.16 187.98 165.68 188.15 164.87 189.16 Z M 164.30 189.92 L 163.65 190.72 C 162.84 191.72 163.00 193.19 164.00 194.00 C 165.00 194.81 166.47 194.66 167.28 193.65 L 167.92 192.86 C 168.74 191.86 168.58 190.39 167.58 189.58 C 166.58 188.77 165.11 188.92 164.30 189.92 Z M 163.68 190.71 L 163.01 191.52 C 162.20 192.51 162.33 193.96 163.32 194.78 C 164.30 195.60 165.76 195.46 166.58 194.47 L 167.25 193.66 C 168.06 192.68 167.93 191.22 166.94 190.40 C 165.96 189.59 164.50 189.73 163.68 190.71 Z M 163.05 191.51 L 162.36 192.32 C 161.54 193.28 161.65 194.73 162.62 195.55 C 163.58 196.38 165.03 196.26 165.85 195.30 L 166.54 194.49 C 167.36 193.52 167.25 192.07 166.28 191.25 C 165.32 190.43 163.87 190.54 163.05 191.51 Z M 162.40 192.30 L 161.71 193.09 C 160.88 194.03 160.96 195.47 161.90 196.30 C 162.84 197.13 164.28 197.04 165.11 196.10 L 165.81 195.31 C 166.64 194.37 166.55 192.94 165.61 192.10 C 164.67 191.27 163.23 191.36 162.40 192.30 Z M 161.76 193.08 L 161.06 193.84 C 160.23 194.75 160.29 196.17 161.20 197.00 C 162.10 197.84 163.52 197.78 164.35 196.87 L 165.05 196.11 C 165.89 195.20 165.83 193.79 164.92 192.95 C 164.01 192.11 162.60 192.17 161.76 193.08 Z M 161.12 193.84 L 160.42 194.58 C 159.58 195.45 159.61 196.84 160.49 197.68 C 161.37 198.52 162.76 198.48 163.59 197.61 L 164.30 196.87 C 165.13 195.99 165.10 194.61 164.22 193.77 C 163.35 192.93 161.96 192.96 161.12 193.84 Z M 160.48 194.58 L 159.77 195.29 C 158.94 196.13 158.94 197.50 159.79 198.33 C 160.64 199.17 162.00 199.16 162.84 198.32 L 163.54 197.61 C 164.37 196.76 164.37 195.40 163.52 194.56 C 162.68 193.72 161.31 193.73 160.48 194.58 Z M 159.83 195.29 L 159.13 195.98 C 158.29 196.79 158.28 198.13 159.09 198.97 C 159.91 199.80 161.25 199.81 162.08 199.00 L 162.78 198.31 C 163.62 197.50 163.63 196.16 162.81 195.32 C 162.00 194.49 160.66 194.48 159.83 195.29 Z M 159.18 195.98 L 158.48 196.65 C 157.65 197.43 157.61 198.75 158.40 199.58 C 159.19 200.41 160.50 200.44 161.33 199.65 L 162.03 198.99 C 162.86 198.20 162.89 196.89 162.11 196.06 C 161.32 195.23 160.01 195.20 159.18 195.98 Z M 158.53 196.65 L 157.77 197.35 C 156.94 198.11 156.89 199.40 157.65 200.22 C 158.41 201.05 159.70 201.10 160.52 200.34 L 161.28 199.65 C 162.11 198.89 162.16 197.60 161.40 196.78 C 160.64 195.95 159.35 195.89 158.53 196.65 Z M 157.82 197.36 L 157.04 198.06 C 156.21 198.79 156.14 200.05 156.88 200.87 C 157.61 201.69 158.87 201.77 159.69 201.03 L 160.47 200.33 C 161.30 199.60 161.37 198.34 160.63 197.52 C 159.90 196.70 158.64 196.62 157.82 197.36 Z M 157.08 198.07 L 156.31 198.73 C 155.49 199.44 155.41 200.68 156.12 201.50 C 156.82 202.31 158.06 202.40 158.88 201.69 L 159.65 201.02 C 160.46 200.32 160.55 199.08 159.84 198.26 C 159.13 197.44 157.90 197.36 157.08 198.07 Z M 156.35 198.74 L 155.60 199.38 C 154.79 200.07 154.69 201.28 155.38 202.09 C 156.06 202.90 157.27 203.00 158.08 202.31 L 158.83 201.68 C 159.65 200.99 159.75 199.78 159.06 198.97 C 158.38 198.16 157.16 198.06 156.35 198.74 Z M 155.64 199.39 L 154.91 200.00 C 154.11 200.66 154.00 201.85 154.66 202.65 C 155.32 203.45 156.51 203.57 157.31 202.90 L 158.04 202.30 C 158.85 201.64 158.96 200.45 158.30 199.65 C 157.63 198.85 156.45 198.73 155.64 199.39 Z M 154.95 200.01 L 154.16 200.65 C 153.37 201.29 153.25 202.45 153.89 203.25 C 154.53 204.04 155.69 204.17 156.48 203.52 L 157.27 202.89 C 158.07 202.25 158.19 201.08 157.55 200.29 C 156.91 199.50 155.75 199.37 154.95 200.01 Z M 154.22 200.65 L 153.38 201.30 C 152.58 201.91 152.44 203.05 153.05 203.84 C 153.66 204.64 154.80 204.78 155.59 204.17 L 156.43 203.52 C 157.22 202.91 157.37 201.77 156.76 200.98 C 156.15 200.19 155.01 200.04 154.22 200.65 Z M 153.46 201.28 L 152.64 201.86 C 151.84 202.42 151.65 203.53 152.21 204.34 C 152.78 205.14 153.89 205.33 154.69 204.76 L 155.51 204.19 C 156.31 203.62 156.50 202.51 155.94 201.71 C 155.37 200.91 154.26 200.72 153.46 201.28 Z M 152.76 201.82 L 151.96 202.31 C 151.14 202.81 150.87 203.88 151.37 204.70 C 151.87 205.53 152.94 205.79 153.77 205.29 L 154.57 204.80 C 155.39 204.30 155.66 203.23 155.16 202.41 C 154.66 201.58 153.59 201.32 152.76 201.82 Z M 152.13 202.25 L 151.27 202.66 C 150.41 203.07 150.05 204.09 150.46 204.94 C 150.86 205.80 151.89 206.16 152.74 205.75 L 153.60 205.34 C 154.45 204.94 154.81 203.92 154.41 203.06 C 154.00 202.21 152.98 201.85 152.13 202.25 Z M 151.46 202.61 L 150.50 202.94 C 149.62 203.24 149.15 204.19 149.45 205.08 C 149.75 205.96 150.71 206.43 151.59 206.13 L 152.55 205.81 C 153.43 205.51 153.90 204.55 153.60 203.66 C 153.30 202.78 152.34 202.31 151.46 202.61 Z M 150.65 202.91 L 149.69 203.14 C 148.79 203.36 148.24 204.27 148.46 205.16 C 148.68 206.06 149.58 206.61 150.48 206.39 L 151.44 206.16 C 152.34 205.94 152.89 205.03 152.67 204.14 C 152.45 203.24 151.55 202.69 150.65 202.91 Z M 149.77 203.15 L 148.81 203.33 C 147.91 203.50 147.32 204.37 147.50 205.26 C 147.67 206.16 148.53 206.75 149.43 206.57 L 150.40 206.39 C 151.29 206.22 151.88 205.35 151.71 204.46 C 151.53 203.56 150.67 202.97 149.77 203.15 Z M 148.82 203.34 L 148.71 203.36 C 147.82 203.52 147.23 204.38 147.39 205.27 C 147.55 206.16 148.41 206.75 149.30 206.59 L 149.41 206.57 C 150.30 206.40 150.89 205.55 150.73 204.66 C 150.57 203.77 149.72 203.18 148.82 203.34 Z"
      fill="black"
      fill-rule="nonzero" /></svg>