<svg xmlns="http://www.w3.org/2000/svg" width="300" height="300" viewBox="0 0 300 300">
<path d="M 130.74 125.39 L 129.86 125.90 C 128.74 126.55 128.35 127.99 129.00 129.11 C 129.65 130.24 131.09 130.62 132.22 129.97 L 133.10 129.46 C 134.22 128.81 134.61 127.37 133.95 126.25 C 133.30 125.12 131.86 124.74 130.74 125.39 Z M 129.82 125.90 L 128.95 126.42 C 127.83 127.09 127.46 128.54 128.13 129.67 C 128.80 130.80 130.26 131.16 131.39 130.49 L 132.25 129.97 C 133.38 129.30 133.75 127.84 133.08 126.72 C 132.41 125.59 130.95 125.23 129.82 125.90 Z M 128.89 126.43 L 128.05 126.97 C 126.93 127.67 126.59 129.15 127.30 130.27 C 128.01 131.39 129.49 131.72 130.60 131.01 L 131.45 130.48 C 132.57 129.77 132.90 128.29 132.19 127.17 C 131.49 126.06 130.01 125.72 128.89 126.43 Z M 127.95 127.00 L 127.14 127.56 C 126.04 128.32 125.77 129.82 126.53 130.92 C 127.28 132.02 128.79 132.29 129.88 131.54 L 130.70 130.98 C 131.79 130.22 132.07 128.71 131.31 127.62 C 130.55 126.52 129.05 126.24 127.95 127.00 Z M 127.03 127.63 L 126.26 128.22 C 125.20 129.04 125.00 130.57 125.83 131.63 C 126.65 132.69 128.17 132.88 129.23 132.06 L 130.00 131.47 C 131.06 130.65 131.26 129.12 130.44 128.06 C 129.61 127.00 128.09 126.81 127.03 127.63 Z M 126.15 128.31 L 125.42 128.94 C 124.41 129.82 124.31 131.36 125.19 132.37 C 126.07 133.38 127.61 133.49 128.62 132.61 L 129.35 131.97 C 130.36 131.09 130.46 129.55 129.58 128.54 C 128.70 127.53 127.16 127.43 126.15 128.31 Z M 125.34 129.02 L 124.64 129.70 C 123.67 130.62 123.64 132.16 124.56 133.13 C 125.49 134.10 127.03 134.13 128.00 133.20 L 128.70 132.53 C 129.67 131.60 129.70 130.06 128.77 129.09 C 127.85 128.13 126.31 128.09 125.34 129.02 Z M 124.58 129.76 L 123.88 130.48 C 122.94 131.43 122.96 132.97 123.92 133.90 C 124.87 134.84 126.41 134.82 127.34 133.87 L 128.05 133.14 C 128.98 132.19 128.97 130.65 128.01 129.72 C 127.05 128.78 125.52 128.80 124.58 129.76 Z M 123.85 130.51 L 123.12 131.28 C 122.21 132.25 122.25 133.78 123.22 134.70 C 124.19 135.62 125.72 135.57 126.64 134.60 L 127.37 133.83 C 128.29 132.86 128.24 131.33 127.27 130.41 C 126.30 129.50 124.77 129.54 123.85 130.51 Z M 123.12 131.29 L 122.43 132.04 C 121.52 133.01 121.57 134.54 122.54 135.45 C 123.52 136.36 125.04 136.30 125.95 135.33 L 126.65 134.59 C 127.56 133.62 127.50 132.09 126.53 131.18 C 125.56 130.27 124.03 130.32 123.12 131.29 Z M 122.43 132.04 L 121.72 132.80 C 120.82 133.77 120.87 135.30 121.84 136.20 C 122.81 137.11 124.34 137.05 125.24 136.08 L 125.95 135.32 C 126.85 134.35 126.80 132.83 125.83 131.92 C 124.86 131.02 123.33 131.07 122.43 132.04 Z M 121.73 132.81 L 121.02 133.57 C 120.12 134.54 120.18 136.05 121.15 136.96 C 122.12 137.86 123.63 137.80 124.54 136.83 L 125.24 136.08 C 126.14 135.11 126.09 133.59 125.12 132.69 C 124.15 131.78 122.63 131.84 121.73 132.81 Z M 121.03 133.57 L 120.35 134.30 C 119.45 135.27 119.51 136.78 120.47 137.68 C 121.44 138.58 122.95 138.52 123.85 137.56 L 124.53 136.83 C 125.43 135.86 125.37 134.35 124.41 133.45 C 123.44 132.55 121.93 132.60 121.03 133.57 Z M 120.35 134.31 L 119.72 134.99 C 118.82 135.95 118.88 137.46 119.85 138.36 C 120.81 139.26 122.32 139.20 123.21 138.23 L 123.85 137.55 C 124.74 136.59 124.69 135.08 123.72 134.18 C 122.76 133.29 121.25 133.34 120.35 134.31 Z M 119.73 134.99 L 118.97 135.82 C 118.07 136.78 118.13 138.28 119.09 139.17 C 120.04 140.06 121.55 140.01 122.44 139.05 L 123.20 138.23 C 124.10 137.27 124.04 135.77 123.08 134.87 C 122.12 133.98 120.62 134.04 119.73 134.99 Z M 118.99 135.82 L 118.29 136.55 C 117.40 137.50 117.45 138.99 118.40 139.88 C 119.34 140.78 120.84 140.73 121.73 139.78 L 122.42 139.05 C 123.31 138.10 123.27 136.61 122.32 135.72 C 121.37 134.82 119.88 134.87 118.99 135.82 Z M 118.32 136.54 L 117.68 137.21 C 116.78 138.14 116.81 139.63 117.74 140.52 C 118.68 141.42 120.16 141.39 121.06 140.46 L 121.70 139.79 C 122.60 138.86 122.57 137.38 121.64 136.48 C 120.70 135.58 119.22 135.61 118.32 136.54 Z M 117.72 137.19 L 117.07 137.85 C 116.16 138.76 116.17 140.23 117.08 141.14 C 117.99 142.05 119.46 142.04 120.37 141.13 L 121.02 140.48 C 121.93 139.57 121.92 138.09 121.01 137.18 C 120.10 136.28 118.62 136.28 117.72 137.19 Z M 117.10 137.83 L 116.41 138.51 C 115.49 139.40 115.47 140.87 116.37 141.78 C 117.26 142.70 118.73 142.72 119.64 141.82 L 120.34 141.15 C 121.25 140.25 121.27 138.79 120.38 137.87 C 119.49 136.96 118.02 136.94 117.10 137.83 Z M 116.43 138.50 L 115.71 139.20 C 114.79 140.08 114.76 141.54 115.64 142.45 C 116.52 143.37 117.98 143.40 118.90 142.52 L 119.62 141.83 C 120.54 140.95 120.57 139.49 119.69 138.57 C 118.81 137.65 117.35 137.62 116.43 138.50 Z M 115.71 139.20 L 114.97 139.92 C 114.05 140.80 114.02 142.26 114.90 143.17 C 115.78 144.08 117.23 144.11 118.15 143.23 L 118.90 142.51 C 119.81 141.63 119.84 140.18 118.96 139.27 C 118.08 138.35 116.63 138.33 115.71 139.20 Z M 114.96 139.94 L 114.25 140.64 C 113.35 141.52 113.33 142.96 114.21 143.87 C 115.09 144.77 116.54 144.79 117.44 143.91 L 118.15 143.21 C 119.05 142.33 119.07 140.88 118.19 139.98 C 117.31 139.08 115.86 139.06 114.96 139.94 Z M 114.25 140.65 L 113.53 141.36 C 112.64 142.24 112.63 143.68 113.51 144.58 C 114.39 145.47 115.83 145.48 116.73 144.60 L 117.44 143.89 C 118.34 143.01 118.35 141.57 117.46 140.67 C 116.58 139.78 115.14 139.77 114.25 140.65 Z M 113.53 141.37 L 112.82 142.09 C 111.93 142.97 111.93 144.40 112.81 145.29 C 113.69 146.17 115.13 146.18 116.01 145.29 L 116.73 144.58 C 117.61 143.70 117.62 142.27 116.73 141.38 C 115.85 140.50 114.42 140.49 113.53 141.37 Z M 112.82 142.10 L 112.11 142.81 C 111.23 143.68 111.23 145.11 112.11 145.99 C 112.99 146.87 114.42 146.87 115.30 145.99 L 116.01 145.28 C 116.89 144.40 116.89 142.98 116.01 142.10 C 115.13 141.22 113.70 141.22 112.82 142.10 Z M 112.12 142.81 L 111.40 143.54 C 110.52 144.41 110.52 145.83 111.40 146.70 C 112.27 147.58 113.69 147.58 114.57 146.71 L 115.29 145.98 C 116.16 145.11 116.16 143.69 115.29 142.82 C 114.42 141.94 113.00 141.94 112.12 142.81 Z M 111.41 143.55 L 110.70 144.25 C 109.83 145.12 109.83 146.53 110.70 147.40 C 111.57 148.27 112.98 148.27 113.85 147.40 L 114.56 146.70 C 115.43 145.83 115.43 144.42 114.56 143.55 C 113.69 142.68 112.28 142.68 111.41 143.55 Z M 110.71 144.26 L 110.02 144.96 C 109.15 145.82 109.15 147.22 110.01 148.09 C 110.88 148.95 112.28 148.95 113.15 148.09 L 113.84 147.39 C 114.71 146.53 114.71 145.13 113.84 144.26 C 112.98 143.40 111.58 143.40 110.71 144.26 Z M 110.02 144.96 L 109.37 145.62 C 108.51 146.48 108.51 147.88 109.37 148.74 C 110.23 149.60 111.62 149.60 112.48 148.74 L 113.14 148.08 C 114.00 147.22 114.00 145.83 113.14 144.97 C 112.28 144.10 110.88 144.10 110.02 144.96 Z M 109.37 145.63 L 108.73 146.28 C 107.87 147.14 107.88 148.53 108.73 149.38 C 109.59 150.23 110.98 150.23 111.83 149.37 L 112.48 148.72 C 113.33 147.87 113.33 146.48 112.47 145.63 C 111.61 144.77 110.23 144.78 109.37 145.63 Z M 108.73 146.30 L 108.04 147.00 C 107.19 147.86 107.20 149.24 108.06 150.08 C 108.92 150.92 110.30 150.91 111.14 150.06 L 111.83 149.35 C 112.67 148.50 112.66 147.12 111.81 146.28 C 110.95 145.43 109.57 145.44 108.73 146.30 Z M 108.03 147.02 L 107.27 147.81 C 106.44 148.67 106.46 150.04 107.32 150.87 C 108.18 151.70 109.55 151.68 110.38 150.82 L 111.14 150.04 C 111.97 149.18 111.95 147.81 111.09 146.98 C 110.24 146.14 108.87 146.17 108.03 147.02 Z M 107.27 147.83 L 106.58 148.55 C 105.76 149.41 105.79 150.77 106.65 151.60 C 107.51 152.42 108.87 152.38 109.69 151.53 L 110.38 150.80 C 111.20 149.94 111.17 148.58 110.31 147.76 C 109.45 146.94 108.09 146.97 107.27 147.83 Z M 106.58 148.57 L 105.92 149.26 C 105.11 150.12 105.15 151.48 106.01 152.29 C 106.87 153.10 108.22 153.06 109.04 152.20 L 109.69 151.51 C 110.50 150.65 110.46 149.29 109.61 148.48 C 108.75 147.67 107.39 147.71 106.58 148.57 Z M 105.92 149.28 L 105.23 150.01 C 104.43 150.87 104.48 152.22 105.33 153.03 C 106.19 153.83 107.54 153.78 108.35 152.93 L 109.03 152.19 C 109.84 151.33 109.79 149.98 108.93 149.18 C 108.07 148.37 106.73 148.42 105.92 149.28 Z M 105.24 150.03 L 104.53 150.79 C 103.73 151.65 103.79 152.99 104.64 153.78 C 105.50 154.58 106.85 154.53 107.64 153.67 L 108.35 152.91 C 109.14 152.05 109.09 150.71 108.23 149.91 C 107.37 149.12 106.03 149.17 105.24 150.03 Z M 104.53 150.80 L 103.83 151.57 C 103.04 152.43 103.09 153.76 103.95 154.55 C 104.81 155.34 106.15 155.28 106.93 154.42 L 107.64 153.66 C 108.43 152.80 108.37 151.46 107.52 150.67 C 106.66 149.89 105.32 149.94 104.53 150.80 Z M 103.83 151.58 L 103.13 152.35 C 102.35 153.21 102.41 154.54 103.27 155.32 C 104.12 156.10 105.45 156.04 106.23 155.18 L 106.93 154.41 C 107.71 153.55 107.65 152.23 106.79 151.44 C 105.94 150.66 104.61 150.73 103.83 151.58 Z M 103.13 152.37 L 102.41 153.17 C 101.64 154.03 101.71 155.35 102.57 156.12 C 103.42 156.88 104.74 156.81 105.51 155.96 L 106.23 155.16 C 107.00 154.30 106.93 152.99 106.07 152.22 C 105.22 151.45 103.90 151.52 103.13 152.37 Z M 102.41 153.21 L 101.73 153.98 C 100.98 154.84 101.06 156.14 101.92 156.89 C 102.77 157.65 104.07 157.56 104.83 156.71 L 105.51 155.93 C 106.26 155.07 106.18 153.77 105.32 153.02 C 104.47 152.27 103.16 152.35 102.41 153.21 Z M 101.72 154.03 L 101.08 154.79 C 100.35 155.65 100.45 156.93 101.31 157.66 C 102.17 158.39 103.46 158.28 104.19 157.42 L 104.83 156.66 C 105.56 155.80 105.46 154.52 104.60 153.79 C 103.74 153.06 102.45 153.17 101.72 154.03 Z M 101.06 154.84 L 100.46 155.58 C 99.76 156.45 99.90 157.72 100.76 158.42 C 101.63 159.12 102.90 158.98 103.60 158.12 L 104.20 157.37 C 104.90 156.50 104.77 155.23 103.90 154.53 C 103.03 153.83 101.76 153.97 101.06 154.84 Z M 100.44 155.65 L 99.87 156.40 C 99.20 157.29 99.38 158.54 100.26 159.20 C 101.14 159.87 102.39 159.69 103.06 158.81 L 103.63 158.05 C 104.29 157.17 104.12 155.92 103.24 155.25 C 102.35 154.59 101.10 154.76 100.44 155.65 Z M 99.81 156.52 L 99.08 157.64 C 98.48 158.55 98.73 159.78 99.64 160.38 C 100.55 160.98 101.77 160.72 102.37 159.81 L 103.11 158.69 C 103.71 157.78 103.46 156.56 102.54 155.96 C 101.63 155.36 100.41 155.61 99.81 156.52 Z M 98.94 157.97 L 98.56 158.86 C 98.14 159.85 98.60 160.99 99.58 161.41 C 100.57 161.83 101.71 161.37 102.13 160.38 L 102.51 159.49 C 102.93 158.50 102.47 157.36 101.48 156.94 C 100.50 156.52 99.35 156.98 98.94 157.97 Z M 98.55 160.30 L 98.73 160.78 C 99.11 161.77 100.21 162.27 101.20 161.90 C 102.19 161.53 102.69 160.42 102.32 159.43 L 102.13 158.95 C 101.76 157.96 100.66 157.46 99.67 157.83 C 98.68 158.20 98.18 159.31 98.55 160.30 Z M 100.48 161.98 L 101.03 161.99 C 102.06 162.01 102.92 161.20 102.94 160.16 C 102.96 159.13 102.14 158.27 101.11 158.25 L 100.57 158.24 C 99.53 158.21 98.68 159.03 98.65 160.06 C 98.63 161.10 99.45 161.95 100.48 161.98 Z M 101.53 161.88 L 102.33 161.67 C 103.31 161.42 103.89 160.42 103.64 159.45 C 103.38 158.48 102.39 157.90 101.42 158.15 L 100.61 158.36 C 99.64 158.61 99.05 159.60 99.31 160.58 C 99.56 161.55 100.55 162.13 101.53 161.88 Z M 102.48 161.57 L 103.49 161.20 C 104.41 160.86 104.88 159.85 104.55 158.93 C 104.21 158.02 103.20 157.55 102.28 157.88 L 101.27 158.25 C 100.35 158.59 99.88 159.60 100.22 160.51 C 100.55 161.43 101.56 161.90 102.48 161.57 Z M 103.54 161.12 L 104.69 160.65 C 105.56 160.29 105.98 159.29 105.62 158.41 C 105.25 157.54 104.25 157.12 103.38 157.48 L 102.24 157.96 C 101.36 158.32 100.95 159.32 101.31 160.19 C 101.67 161.07 102.67 161.48 103.54 161.12 Z M 104.69 160.60 L 105.64 160.19 C 106.48 159.83 106.87 158.85 106.51 158.00 C 106.14 157.16 105.17 156.77 104.32 157.13 L 103.38 157.54 C 102.53 157.90 102.14 158.88 102.50 159.72 C 102.87 160.57 103.85 160.96 104.69 160.60 Z"
      fill="black"
      fill-rule="nonzero" /><path d="M 121.58 143.12 L 121.58 144.19 C 121.58 145.31 122.48 146.22 123.61 146.22 C 124.73 146.22 125.64 145.31 125.64 144.19 L 125.64 143.12 C 125.64 142.00 124.73 141.09 123.61 141.09 C 122.49 141.09 121.58 142.00 121.58 143.12 Z M 121.55 144.19 L 121.55 145.25 C 121.55 146.39 122.47 147.31 123.60 147.31 C 124.74 147.31 125.66 146.39 125.66 145.25 L 125.66 144.19 C 125.66 143.05 124.74 142.13 123.61 142.13 C 122.47 142.13 121.55 143.05 121.55 144.19 Z M 121.52 145.25 L 121.52 146.30 C 121.52 147.45 122.45 148.39 123.60 148.39 C 124.75 148.39 125.69 147.46 125.69 146.31 L 125.69 145.26 C 125.69 144.11 124.76 143.17 123.61 143.17 C 122.46 143.17 121.52 144.10 121.52 145.25 Z M 121.49 146.30 L 121.49 147.34 C 121.49 148.50 122.43 149.45 123.59 149.46 C 124.76 149.46 125.71 148.52 125.71 147.35 L 125.71 146.31 C 125.72 145.15 124.78 144.20 123.61 144.20 C 122.45 144.19 121.50 145.13 121.49 146.30 Z M 121.46 147.33 L 121.46 148.35 C 121.45 149.53 122.40 150.50 123.58 150.50 C 124.76 150.51 125.72 149.56 125.73 148.38 L 125.74 147.36 C 125.74 146.18 124.79 145.21 123.61 145.21 C 122.43 145.20 121.47 146.15 121.46 147.33 Z M 121.43 148.35 L 121.42 149.34 C 121.41 150.54 122.37 151.51 123.57 151.52 C 124.76 151.53 125.74 150.57 125.75 149.38 L 125.76 148.38 C 125.77 147.19 124.81 146.21 123.61 146.20 C 122.42 146.19 121.44 147.15 121.43 148.35 Z M 121.39 149.33 L 121.38 150.30 C 121.37 151.51 122.33 152.50 123.54 152.52 C 124.75 152.53 125.75 151.56 125.76 150.35 L 125.78 149.39 C 125.79 148.18 124.82 147.18 123.61 147.17 C 122.40 147.15 121.41 148.12 121.39 149.33 Z M 121.35 150.28 L 121.34 151.22 C 121.32 152.44 122.29 153.45 123.52 153.47 C 124.74 153.50 125.75 152.52 125.77 151.30 L 125.79 150.36 C 125.81 149.14 124.84 148.13 123.61 148.11 C 122.39 148.09 121.38 149.06 121.35 150.28 Z M 121.31 151.20 L 121.29 152.09 C 121.26 153.33 122.24 154.36 123.48 154.39 C 124.72 154.42 125.75 153.44 125.78 152.20 L 125.80 151.31 C 125.83 150.07 124.85 149.04 123.61 149.01 C 122.37 148.98 121.34 149.96 121.31 151.20 Z M 121.27 152.07 L 121.24 153.22 C 121.20 154.47 122.17 155.52 123.42 155.56 C 124.67 155.60 125.71 154.62 125.76 153.37 L 125.79 152.22 C 125.83 150.97 124.86 149.93 123.61 149.89 C 122.36 149.85 121.32 150.82 121.27 152.07 Z M 121.24 153.20 L 121.19 154.34 C 121.13 155.59 122.10 156.65 123.35 156.70 C 124.60 156.76 125.65 155.79 125.71 154.54 L 125.76 153.40 C 125.81 152.15 124.84 151.09 123.59 151.04 C 122.35 150.98 121.29 151.95 121.24 153.20 Z M 121.19 154.32 L 121.13 155.38 C 121.07 156.62 122.02 157.69 123.27 157.75 C 124.51 157.82 125.58 156.87 125.65 155.62 L 125.70 154.56 C 125.77 153.32 124.82 152.25 123.57 152.18 C 122.32 152.12 121.26 153.07 121.19 154.32 Z M 121.14 155.35 L 121.07 156.33 C 120.99 157.58 121.94 158.65 123.18 158.73 C 124.43 158.81 125.50 157.86 125.58 156.62 L 125.64 155.64 C 125.72 154.40 124.78 153.32 123.53 153.24 C 122.29 153.16 121.21 154.11 121.14 155.35 Z M 121.08 156.31 L 121.01 157.21 C 120.92 158.46 121.86 159.54 123.10 159.63 C 124.35 159.71 125.43 158.78 125.51 157.54 L 125.58 156.63 C 125.67 155.39 124.73 154.31 123.49 154.22 C 122.24 154.13 121.16 155.07 121.08 156.31 Z M 121.01 157.20 L 120.95 158.04 C 120.86 159.28 121.79 160.36 123.03 160.46 C 124.27 160.55 125.35 159.62 125.45 158.38 L 125.51 157.55 C 125.61 156.31 124.68 155.22 123.44 155.13 C 122.19 155.03 121.11 155.96 121.01 157.20 Z M 120.95 158.03 L 120.88 159.00 C 120.78 160.24 121.70 161.32 122.94 161.42 C 124.18 161.52 125.27 160.59 125.37 159.35 L 125.44 158.39 C 125.54 157.15 124.62 156.06 123.38 155.96 C 122.14 155.86 121.05 156.79 120.95 158.03 Z M 120.88 159.00 L 120.80 160.04 C 120.70 161.28 121.62 162.36 122.86 162.46 C 124.09 162.56 125.18 161.64 125.28 160.40 L 125.36 159.36 C 125.46 158.12 124.54 157.04 123.30 156.94 C 122.07 156.84 120.98 157.76 120.88 159.00 Z M 120.80 160.04 L 120.73 161.02 C 120.63 162.25 121.55 163.33 122.78 163.43 C 124.01 163.53 125.09 162.61 125.19 161.38 L 125.27 160.40 C 125.37 159.17 124.45 158.09 123.22 157.99 C 121.99 157.89 120.90 158.81 120.80 160.04 Z M 120.73 161.02 L 120.66 161.96 C 120.56 163.19 121.48 164.26 122.71 164.36 C 123.93 164.46 125.01 163.54 125.11 162.31 L 125.19 161.38 C 125.28 160.15 124.37 159.07 123.14 158.97 C 121.91 158.87 120.83 159.79 120.73 161.02 Z M 120.66 161.96 L 120.59 162.90 C 120.49 164.13 121.41 165.20 122.64 165.30 C 123.86 165.39 124.93 164.48 125.03 163.25 L 125.10 162.31 C 125.20 161.08 124.29 160.01 123.06 159.92 C 121.83 159.82 120.76 160.73 120.66 161.96 Z M 120.60 162.91 L 120.52 163.87 C 120.43 165.09 121.34 166.16 122.57 166.25 C 123.79 166.35 124.86 165.43 124.95 164.21 L 125.02 163.24 C 125.12 162.02 124.20 160.95 122.98 160.86 C 121.76 160.77 120.69 161.68 120.60 162.91 Z M 120.53 163.88 L 120.45 164.87 C 120.36 166.09 121.28 167.15 122.50 167.24 C 123.72 167.33 124.78 166.42 124.87 165.20 L 124.95 164.20 C 125.04 162.98 124.12 161.92 122.90 161.83 C 121.68 161.74 120.62 162.66 120.53 163.88 Z M 120.46 164.87 L 120.38 165.89 C 120.30 167.11 121.21 168.16 122.43 168.25 C 123.65 168.34 124.70 167.43 124.79 166.21 L 124.87 165.19 C 124.95 163.97 124.04 162.92 122.82 162.83 C 121.61 162.74 120.55 163.65 120.46 164.87 Z M 120.39 165.89 L 120.32 166.92 C 120.23 168.14 121.15 169.19 122.36 169.28 C 123.57 169.36 124.63 168.45 124.71 167.24 L 124.79 166.20 C 124.87 164.99 123.96 163.94 122.74 163.85 C 121.53 163.77 120.48 164.68 120.39 165.89 Z M 120.32 166.93 L 120.26 167.92 C 120.17 169.13 121.08 170.18 122.29 170.26 C 123.50 170.35 124.55 169.43 124.64 168.22 L 124.71 167.23 C 124.79 166.02 123.88 164.97 122.67 164.89 C 121.46 164.81 120.41 165.72 120.32 166.93 Z M 120.26 167.92 L 120.19 168.93 C 120.11 170.13 121.02 171.18 122.23 171.26 C 123.43 171.34 124.48 170.43 124.56 169.23 L 124.63 168.22 C 124.71 167.02 123.80 165.97 122.60 165.89 C 121.39 165.81 120.35 166.72 120.26 167.92 Z M 120.20 168.93 L 120.13 169.93 C 120.05 171.13 120.96 172.17 122.16 172.26 C 123.36 172.34 124.40 171.43 124.48 170.23 L 124.55 169.23 C 124.63 168.03 123.73 166.98 122.53 166.90 C 121.33 166.82 120.29 167.73 120.20 168.93 Z M 120.14 169.93 L 120.07 170.93 C 119.99 172.12 120.89 173.16 122.09 173.24 C 123.29 173.33 124.32 172.42 124.41 171.23 L 124.48 170.23 C 124.56 169.04 123.66 168.00 122.46 167.92 C 121.26 167.83 120.22 168.74 120.14 169.93 Z M 120.08 170.92 L 120.01 171.94 C 119.93 173.13 120.82 174.17 122.02 174.25 C 123.21 174.34 124.24 173.44 124.33 172.25 L 124.40 171.23 C 124.48 170.04 123.58 169.00 122.39 168.92 C 121.20 168.84 120.17 169.73 120.08 170.92 Z M 120.02 171.94 L 119.95 172.96 C 119.87 174.14 120.76 175.17 121.95 175.25 C 123.13 175.34 124.16 174.44 124.24 173.26 L 124.31 172.25 C 124.40 171.06 123.50 170.03 122.32 169.95 C 121.13 169.87 120.11 170.76 120.02 171.94 Z M 119.96 172.96 L 119.89 173.95 C 119.81 175.13 120.70 176.15 121.88 176.23 C 123.06 176.31 124.08 175.42 124.16 174.25 L 124.23 173.25 C 124.31 172.07 123.42 171.05 122.24 170.97 C 121.06 170.89 120.04 171.78 119.96 172.96 Z M 119.91 173.96 L 119.84 174.94 C 119.77 176.12 120.66 177.13 121.83 177.20 C 123.00 177.28 124.02 176.39 124.09 175.21 L 124.15 174.23 C 124.23 173.06 123.34 172.05 122.16 171.98 C 120.99 171.90 119.98 172.79 119.91 173.96 Z M 119.85 174.96 L 119.80 175.95 C 119.73 177.12 120.62 178.12 121.79 178.19 C 122.96 178.25 123.96 177.36 124.02 176.19 L 124.08 175.20 C 124.14 174.03 123.25 173.03 122.09 172.97 C 120.92 172.90 119.92 173.79 119.85 174.96 Z M 119.81 175.97 L 119.76 176.98 C 119.71 178.14 120.60 179.13 121.76 179.19 C 122.92 179.24 123.90 178.35 123.96 177.19 L 124.01 176.18 C 124.06 175.02 123.17 174.03 122.01 173.98 C 120.85 173.92 119.87 174.81 119.81 175.97 Z M 119.78 177.00 L 119.73 178.00 C 119.68 179.15 120.58 180.12 121.73 180.17 C 122.88 180.22 123.85 179.33 123.90 178.18 L 123.94 177.18 C 123.99 176.03 123.10 175.06 121.95 175.01 C 120.80 174.95 119.83 175.85 119.78 177.00 Z M 119.75 178.00 L 119.71 178.99 C 119.66 180.13 120.55 181.09 121.69 181.14 C 122.83 181.19 123.80 180.30 123.84 179.16 L 123.88 178.17 C 123.93 177.03 123.04 176.07 121.90 176.02 C 120.76 175.97 119.80 176.86 119.75 178.00 Z M 119.73 178.99 L 119.69 179.99 C 119.64 181.13 120.52 182.08 121.65 182.13 C 122.79 182.17 123.74 181.29 123.79 180.16 L 123.83 179.15 C 123.87 178.02 122.99 177.07 121.86 177.02 C 120.73 176.98 119.77 177.86 119.73 178.99 Z M 119.71 179.99 L 119.66 181.01 C 119.62 182.13 120.49 183.08 121.61 183.13 C 122.73 183.17 123.68 182.30 123.73 181.18 L 123.77 180.16 C 123.81 179.04 122.94 178.09 121.82 178.05 C 120.70 178.00 119.75 178.87 119.71 179.99 Z M 119.68 181.01 L 119.64 182.01 C 119.60 183.12 120.46 184.05 121.57 184.10 C 122.68 184.15 123.62 183.28 123.67 182.17 L 123.71 181.18 C 123.75 180.07 122.89 179.13 121.78 179.08 C 120.67 179.04 119.73 179.90 119.68 181.01 Z M 119.66 182.00 L 119.62 182.98 C 119.57 184.08 120.43 185.01 121.53 185.05 C 122.63 185.10 123.56 184.25 123.60 183.15 L 123.65 182.18 C 123.69 181.08 122.84 180.15 121.74 180.10 C 120.64 180.05 119.71 180.90 119.66 182.00 Z M 119.64 182.98 L 119.60 183.91 C 119.55 184.99 120.40 185.92 121.49 185.96 C 122.58 186.01 123.50 185.17 123.54 184.08 L 123.58 183.15 C 123.63 182.06 122.79 181.14 121.70 181.09 C 120.61 181.04 119.69 181.89 119.64 182.98 Z M 119.62 183.91 L 119.58 184.85 C 119.54 185.93 120.38 186.84 121.46 186.88 C 122.53 186.93 123.44 186.09 123.48 185.01 L 123.52 184.07 C 123.57 182.99 122.73 182.08 121.65 182.04 C 120.57 182.00 119.66 182.84 119.62 183.91 Z M 119.60 184.87 L 119.57 185.87 C 119.54 186.94 120.37 187.83 121.44 187.87 C 122.50 187.90 123.40 187.07 123.43 186.00 L 123.46 184.99 C 123.50 183.93 122.66 183.04 121.60 183.00 C 120.53 182.97 119.64 183.80 119.60 184.87 Z M 119.59 185.89 L 119.57 187.01 C 119.54 188.06 120.38 188.94 121.43 188.96 C 122.49 188.99 123.36 188.15 123.39 187.10 L 123.41 185.98 C 123.43 184.92 122.60 184.05 121.54 184.03 C 120.49 184.00 119.61 184.84 119.59 185.89 Z M 119.58 187.03 L 119.57 187.99 C 119.56 189.03 120.40 189.89 121.44 189.90 C 122.49 189.91 123.35 189.08 123.36 188.03 L 123.37 187.07 C 123.38 186.03 122.54 185.17 121.50 185.16 C 120.45 185.15 119.60 185.99 119.58 187.03 Z M 119.59 188.02 L 119.59 189.03 C 119.60 190.07 120.44 190.90 121.48 190.90 C 122.51 190.90 123.35 190.05 123.35 189.02 L 123.34 188.00 C 123.34 186.96 122.49 186.13 121.46 186.13 C 120.42 186.14 119.58 186.98 119.59 188.02 Z M 119.61 189.07 L 119.64 190.11 C 119.67 191.14 120.52 191.95 121.55 191.92 C 122.58 191.89 123.39 191.03 123.36 190.01 L 123.33 188.97 C 123.30 187.94 122.45 187.13 121.42 187.16 C 120.39 187.19 119.58 188.05 119.61 189.07 Z M 119.65 190.17 L 119.72 191.19 C 119.78 192.20 120.65 192.98 121.67 192.92 C 122.69 192.86 123.46 191.98 123.40 190.97 L 123.34 189.95 C 123.28 188.93 122.41 188.15 121.39 188.21 C 120.37 188.28 119.59 189.15 119.65 190.17 Z M 119.74 191.27 L 119.84 192.25 C 119.95 193.25 120.85 193.98 121.86 193.87 C 122.86 193.76 123.59 192.86 123.48 191.86 L 123.38 190.88 C 123.27 189.88 122.37 189.15 121.36 189.26 C 120.36 189.36 119.63 190.26 119.74 191.27 Z M 119.88 192.37 L 120.07 193.44 C 120.25 194.43 121.18 195.08 122.17 194.91 C 123.15 194.73 123.81 193.80 123.63 192.81 L 123.44 191.74 C 123.27 190.75 122.33 190.10 121.35 190.27 C 120.37 190.44 119.71 191.38 119.88 192.37 Z M 120.13 193.56 L 120.37 194.54 C 120.61 195.49 121.58 196.07 122.53 195.83 C 123.49 195.59 124.06 194.63 123.82 193.67 L 123.58 192.69 C 123.34 191.74 122.37 191.16 121.42 191.40 C 120.47 191.64 119.89 192.61 120.13 193.56 Z M 120.43 194.62 L 120.71 195.54 C 121.00 196.46 121.98 196.98 122.90 196.69 C 123.82 196.40 124.34 195.42 124.05 194.50 L 123.77 193.59 C 123.48 192.67 122.50 192.15 121.58 192.44 C 120.66 192.72 120.14 193.70 120.43 194.62 Z M 120.76 195.58 L 121.06 196.45 C 121.36 197.35 122.34 197.83 123.24 197.52 C 124.14 197.21 124.62 196.24 124.31 195.34 L 124.01 194.46 C 123.70 193.57 122.72 193.09 121.83 193.39 C 120.93 193.70 120.45 194.68 120.76 195.58 Z"
      fill="black"
      fill-rule="nonzero" /><path d="M 133.99 144.29 L 133.90 145.28 C 133.79 146.51 134.69 147.61 135.93 147.72 C 137.16 147.84 138.26 146.93 138.37 145.70 L 138.46 144.71 C 138.58 143.48 137.67 142.38 136.44 142.27 C 135.20 142.15 134.11 143.06 133.99 144.29 Z M 133.87 145.30 L 133.79 146.29 C 133.68 147.54 134.61 148.64 135.86 148.74 C 137.11 148.85 138.21 147.92 138.32 146.67 L 138.40 145.68 C 138.51 144.43 137.58 143.33 136.33 143.22 C 135.08 143.12 133.98 144.05 133.87 145.30 Z M 133.76 146.33 L 133.69 147.34 C 133.61 148.60 134.57 149.70 135.84 149.78 C 137.10 149.86 138.20 148.90 138.28 147.64 L 138.35 146.63 C 138.43 145.36 137.47 144.27 136.20 144.18 C 134.94 144.10 133.84 145.06 133.76 146.33 Z M 133.67 147.39 L 133.63 148.38 C 133.58 149.66 134.57 150.74 135.85 150.79 C 137.13 150.85 138.21 149.85 138.26 148.57 L 138.30 147.58 C 138.36 146.30 137.36 145.22 136.08 145.17 C 134.80 145.12 133.72 146.11 133.67 147.39 Z M 133.63 148.43 L 133.61 149.43 C 133.58 150.71 134.60 151.77 135.88 151.80 C 137.17 151.82 138.23 150.80 138.25 149.52 L 138.27 148.52 C 138.29 147.24 137.27 146.18 135.99 146.16 C 134.71 146.13 133.65 147.15 133.63 148.43 Z M 133.60 149.46 L 133.60 150.47 C 133.59 151.75 134.62 152.80 135.91 152.81 C 137.19 152.81 138.24 151.78 138.24 150.50 L 138.25 149.49 C 138.26 148.21 137.23 147.16 135.94 147.15 C 134.66 147.14 133.61 148.18 133.60 149.46 Z M 133.60 150.48 L 133.60 151.50 C 133.60 152.78 134.64 153.82 135.92 153.82 C 137.20 153.82 138.24 152.78 138.24 151.50 L 138.24 150.48 C 138.24 149.20 137.21 148.16 135.92 148.16 C 134.64 148.16 133.60 149.20 133.60 150.48 Z M 133.61 151.50 L 133.61 152.52 C 133.61 153.79 134.64 154.83 135.92 154.83 C 137.20 154.83 138.23 153.79 138.23 152.52 L 138.23 151.50 C 138.23 150.22 137.20 149.18 135.92 149.18 C 134.64 149.18 133.61 150.22 133.61 151.50 Z M 133.62 152.52 L 133.62 153.52 C 133.62 154.79 134.65 155.82 135.92 155.82 C 137.19 155.82 138.22 154.79 138.22 153.52 L 138.22 152.52 C 138.22 151.25 137.19 150.22 135.92 150.22 C 134.65 150.22 133.62 151.25 133.62 152.52 Z M 133.64 153.52 L 133.64 154.50 C 133.64 155.76 134.66 156.78 135.92 156.78 C 137.18 156.78 138.20 155.76 138.20 154.50 L 138.20 153.52 C 138.20 152.26 137.18 151.24 135.92 151.24 C 134.66 151.24 133.64 152.26 133.64 153.52 Z M 133.66 154.50 L 133.66 155.51 C 133.66 156.76 134.67 157.77 135.92 157.77 C 137.17 157.77 138.19 156.76 138.19 155.51 L 138.19 154.50 C 138.19 153.25 137.17 152.24 135.92 152.24 C 134.67 152.24 133.66 153.25 133.66 154.50 Z M 133.68 155.51 L 133.68 156.50 C 133.68 157.74 134.68 158.75 135.92 158.75 C 137.16 158.75 138.17 157.74 138.17 156.50 L 138.17 155.51 C 138.17 154.27 137.16 153.26 135.92 153.26 C 134.68 153.26 133.68 154.27 133.68 155.51 Z M 133.70 156.50 L 133.70 157.49 C 133.70 158.72 134.69 159.72 135.92 159.72 C 137.15 159.72 138.15 158.72 138.15 157.49 L 138.15 156.50 C 138.15 155.27 137.15 154.28 135.92 154.28 C 134.69 154.28 133.70 155.27 133.70 156.50 Z M 133.72 157.49 L 133.72 158.48 C 133.72 159.70 134.70 160.68 135.92 160.68 C 137.14 160.68 138.12 159.70 138.12 158.48 L 138.12 157.49 C 138.12 156.28 137.14 155.29 135.92 155.29 C 134.70 155.29 133.72 156.28 133.72 157.49 Z M 133.74 158.48 L 133.74 159.47 C 133.74 160.68 134.72 161.65 135.92 161.65 C 137.13 161.65 138.10 160.68 138.10 159.47 L 138.10 158.48 C 138.10 157.28 137.13 156.30 135.92 156.30 C 134.72 156.30 133.74 157.28 133.74 158.48 Z M 133.76 159.47 L 133.76 160.48 C 133.76 161.67 134.73 162.64 135.92 162.64 C 137.11 162.64 138.08 161.67 138.08 160.48 L 138.08 159.47 C 138.08 158.28 137.11 157.32 135.92 157.32 C 134.73 157.32 133.76 158.28 133.76 159.47 Z M 133.79 160.48 L 133.79 161.48 C 133.79 162.66 134.74 163.62 135.92 163.62 C 137.10 163.62 138.06 162.66 138.06 161.48 L 138.06 160.48 C 138.06 159.30 137.10 158.35 135.92 158.35 C 134.74 158.35 133.79 159.30 133.79 160.48 Z M 133.81 161.48 L 133.81 162.44 C 133.81 163.60 134.76 164.55 135.92 164.55 C 137.08 164.55 138.03 163.60 138.03 162.44 L 138.03 161.48 C 138.03 160.32 137.08 159.37 135.92 159.37 C 134.76 159.37 133.81 160.32 133.81 161.48 Z M 133.84 162.44 L 133.84 163.42 C 133.84 164.57 134.77 165.50 135.92 165.50 C 137.07 165.50 138.00 164.57 138.00 163.42 L 138.00 162.44 C 138.00 161.29 137.07 160.36 135.92 160.36 C 134.77 160.36 133.84 161.29 133.84 162.44 Z M 133.87 163.42 L 133.87 164.46 C 133.87 165.59 134.79 166.51 135.92 166.51 C 137.05 166.51 137.97 165.59 137.97 164.46 L 137.97 163.42 C 137.97 162.29 137.05 161.38 135.92 161.38 C 134.79 161.38 133.87 162.29 133.87 163.42 Z M 133.90 164.46 L 133.90 165.47 C 133.91 166.58 134.81 167.48 135.92 167.48 C 137.04 167.48 137.94 166.58 137.94 165.46 L 137.94 164.46 C 137.94 163.35 137.03 162.45 135.92 162.45 C 134.81 162.45 133.90 163.35 133.90 164.46 Z M 133.93 165.47 L 133.94 166.46 C 133.94 167.56 134.83 168.45 135.93 168.45 C 137.03 168.44 137.91 167.55 137.91 166.45 L 137.91 165.46 C 137.91 164.36 137.01 163.47 135.92 163.48 C 134.82 163.48 133.93 164.37 133.93 165.47 Z M 133.97 166.48 L 133.98 167.49 C 133.99 168.58 134.87 169.44 135.95 169.43 C 137.03 169.42 137.90 168.54 137.89 167.46 L 137.88 166.44 C 137.87 165.36 136.99 164.49 135.91 164.50 C 134.82 164.51 133.96 165.40 133.97 166.48 Z M 134.01 167.51 L 134.03 168.53 C 134.05 169.60 134.93 170.44 136.00 170.42 C 137.06 170.40 137.91 169.52 137.88 168.45 L 137.86 167.43 C 137.84 166.37 136.96 165.52 135.89 165.55 C 134.83 165.57 133.98 166.45 134.01 167.51 Z M 134.06 168.56 L 134.10 169.58 C 134.14 170.63 135.02 171.45 136.06 171.41 C 137.11 171.37 137.93 170.49 137.89 169.44 L 137.85 168.42 C 137.81 167.37 136.93 166.56 135.89 166.60 C 134.84 166.63 134.02 167.51 134.06 168.56 Z M 134.14 169.61 L 134.19 170.63 C 134.25 171.65 135.12 172.44 136.15 172.38 C 137.17 172.33 137.96 171.45 137.90 170.43 L 137.85 169.41 C 137.79 168.39 136.92 167.60 135.89 167.66 C 134.87 167.71 134.08 168.59 134.14 169.61 Z M 134.24 170.65 L 134.30 171.64 C 134.37 172.65 135.24 173.40 136.24 173.33 C 137.24 173.26 138.00 172.40 137.93 171.40 L 137.86 170.40 C 137.79 169.40 136.93 168.65 135.92 168.72 C 134.92 168.78 134.17 169.65 134.24 170.65 Z M 134.35 171.66 L 134.42 172.63 C 134.50 173.61 135.35 174.34 136.33 174.27 C 137.31 174.19 138.04 173.34 137.96 172.36 L 137.89 171.38 C 137.81 170.41 136.96 169.67 135.98 169.75 C 135.00 169.83 134.27 170.68 134.35 171.66 Z M 134.45 172.64 L 134.49 173.11 C 134.57 174.07 135.41 174.78 136.37 174.71 C 137.33 174.63 138.04 173.79 137.97 172.83 L 137.93 172.36 C 137.85 171.40 137.01 170.68 136.05 170.76 C 135.09 170.83 134.38 171.68 134.45 172.64 Z"
      fill="black"
      fill-rule="nonzero" /><path d="M 153.37 102.52 L 153.24 103.50 C 153.08 104.66 153.89 105.73 155.05 105.89 C 156.21 106.05 157.28 105.24 157.44 104.08 L 157.57 103.09 C 157.73 101.94 156.92 100.87 155.76 100.71 C 154.60 100.55 153.53 101.36 153.37 102.52 Z M 153.25 103.50 L 153.11 104.48 C 152.95 105.64 153.75 106.70 154.91 106.87 C 156.06 107.03 157.13 106.22 157.29 105.07 L 157.43 104.08 C 157.59 102.93 156.78 101.86 155.63 101.70 C 154.48 101.54 153.41 102.34 153.25 103.50 Z M 153.12 104.47 L 152.98 105.47 C 152.81 106.61 153.60 107.68 154.75 107.85 C 155.89 108.02 156.96 107.22 157.13 106.08 L 157.28 105.08 C 157.44 103.93 156.65 102.87 155.50 102.70 C 154.36 102.53 153.29 103.33 153.12 104.47 Z M 152.98 105.45 L 152.83 106.40 C 152.66 107.55 153.44 108.62 154.58 108.80 C 155.72 108.97 156.79 108.19 156.97 107.05 L 157.12 106.09 C 157.30 104.95 156.52 103.88 155.38 103.70 C 154.23 103.52 153.16 104.31 152.98 105.45 Z M 152.84 106.38 L 152.68 107.32 C 152.48 108.46 153.25 109.54 154.39 109.73 C 155.54 109.93 156.62 109.16 156.81 108.02 L 156.97 107.08 C 157.16 105.94 156.40 104.85 155.25 104.66 C 154.11 104.47 153.03 105.24 152.84 106.38 Z M 152.68 107.28 L 152.49 108.26 C 152.28 109.40 153.03 110.50 154.18 110.71 C 155.32 110.93 156.42 110.17 156.63 109.03 L 156.81 108.05 C 157.03 106.91 156.27 105.81 155.13 105.60 C 153.99 105.38 152.89 106.14 152.68 107.28 Z M 152.49 108.22 L 152.28 109.26 C 152.04 110.40 152.78 111.52 153.92 111.75 C 155.06 111.99 156.18 111.26 156.41 110.12 L 156.63 109.07 C 156.86 107.93 156.13 106.81 154.99 106.58 C 153.85 106.34 152.73 107.08 152.49 108.22 Z M 152.28 109.22 L 152.06 110.21 C 151.80 111.35 152.52 112.48 153.66 112.74 C 154.79 113.00 155.93 112.28 156.18 111.14 L 156.41 110.15 C 156.67 109.02 155.95 107.88 154.81 107.62 C 153.67 107.37 152.54 108.08 152.28 109.22 Z M 152.06 110.19 L 151.83 111.18 C 151.56 112.32 152.26 113.46 153.40 113.73 C 154.54 114.00 155.68 113.29 155.94 112.16 L 156.18 111.16 C 156.45 110.03 155.75 108.89 154.61 108.62 C 153.47 108.35 152.33 109.05 152.06 110.19 Z M 151.83 111.18 L 151.59 112.18 C 151.32 113.31 152.02 114.45 153.16 114.72 C 154.29 114.99 155.43 114.29 155.70 113.16 L 155.94 112.16 C 156.21 111.02 155.51 109.88 154.38 109.61 C 153.24 109.34 152.10 110.04 151.83 111.18 Z M 151.59 112.19 L 151.36 113.16 C 151.10 114.30 151.81 115.43 152.95 115.70 C 154.08 115.96 155.22 115.25 155.48 114.12 L 155.71 113.14 C 155.97 112.01 155.26 110.87 154.13 110.61 C 152.99 110.35 151.85 111.05 151.59 112.19 Z M 151.36 113.20 L 151.14 114.24 C 150.90 115.38 151.63 116.50 152.76 116.74 C 153.90 116.98 155.02 116.25 155.27 115.11 L 155.49 114.08 C 155.73 112.94 155.00 111.82 153.86 111.58 C 152.72 111.34 151.60 112.06 151.36 113.20 Z M 151.13 114.40 L 150.98 115.52 C 150.82 116.66 151.63 117.72 152.77 117.87 C 153.92 118.02 154.98 117.22 155.13 116.07 L 155.28 114.95 C 155.43 113.81 154.63 112.75 153.48 112.60 C 152.33 112.45 151.28 113.25 151.13 114.40 Z M 150.99 116.04 L 151.10 116.94 C 151.23 118.07 152.26 118.89 153.40 118.75 C 154.54 118.62 155.36 117.59 155.22 116.45 L 155.12 115.55 C 154.98 114.41 153.95 113.60 152.81 113.73 C 151.67 113.87 150.86 114.90 150.99 116.04 Z M 151.53 117.95 L 152.00 118.56 C 152.70 119.46 153.99 119.63 154.89 118.93 C 155.79 118.24 155.96 116.95 155.26 116.04 L 154.79 115.43 C 154.10 114.53 152.80 114.36 151.90 115.06 C 151.00 115.75 150.83 117.05 151.53 117.95 Z M 152.86 119.20 L 153.61 119.50 C 154.65 119.93 155.85 119.43 156.28 118.39 C 156.71 117.34 156.20 116.15 155.16 115.72 L 154.41 115.41 C 153.36 114.98 152.17 115.48 151.74 116.53 C 151.31 117.57 151.81 118.77 152.86 119.20 Z M 154.13 119.63 L 155.12 119.75 C 156.24 119.89 157.25 119.10 157.39 117.99 C 157.53 116.87 156.74 115.85 155.62 115.72 L 154.64 115.59 C 153.52 115.45 152.50 116.24 152.37 117.36 C 152.23 118.47 153.02 119.49 154.13 119.63 Z M 155.43 119.76 L 156.56 119.72 C 157.67 119.69 158.55 118.76 158.52 117.64 C 158.49 116.53 157.56 115.65 156.44 115.68 L 155.31 115.71 C 154.20 115.74 153.32 116.67 153.35 117.79 C 153.38 118.91 154.31 119.79 155.43 119.76 Z M 156.76 119.70 L 157.87 119.56 C 158.97 119.41 159.75 118.40 159.60 117.29 C 159.46 116.19 158.44 115.41 157.34 115.56 L 156.23 115.70 C 155.13 115.85 154.35 116.86 154.50 117.97 C 154.65 119.07 155.66 119.85 156.76 119.70 Z M 158.02 119.53 L 159.03 119.32 C 160.12 119.09 160.82 118.02 160.59 116.92 C 160.36 115.83 159.28 115.13 158.19 115.37 L 157.18 115.58 C 156.09 115.81 155.39 116.88 155.62 117.97 C 155.86 119.07 156.93 119.76 158.02 119.53 Z M 159.15 119.30 L 160.13 119.03 C 161.21 118.74 161.84 117.62 161.55 116.54 C 161.25 115.45 160.13 114.82 159.05 115.12 L 158.07 115.38 C 156.99 115.68 156.35 116.80 156.65 117.88 C 156.95 118.96 158.07 119.60 159.15 119.30 Z M 160.22 119.01 L 161.16 118.71 C 162.23 118.36 162.82 117.21 162.47 116.14 C 162.12 115.07 160.97 114.48 159.90 114.83 L 158.96 115.13 C 157.89 115.48 157.30 116.63 157.65 117.70 C 158.00 118.78 159.15 119.36 160.22 119.01 Z M 161.23 118.70 L 162.14 118.37 C 163.21 117.98 163.75 116.80 163.37 115.74 C 162.98 114.67 161.80 114.12 160.73 114.51 L 159.82 114.84 C 158.76 115.23 158.21 116.41 158.60 117.47 C 158.99 118.54 160.16 119.09 161.23 118.70 Z M 162.20 118.38 L 163.19 117.99 C 164.26 117.56 164.78 116.35 164.36 115.28 C 163.93 114.21 162.72 113.69 161.65 114.11 L 160.67 114.50 C 159.60 114.92 159.08 116.13 159.50 117.20 C 159.92 118.27 161.13 118.80 162.20 118.38 Z M 163.24 118.01 L 164.16 117.63 C 165.24 117.17 165.75 115.92 165.30 114.84 C 164.84 113.76 163.60 113.25 162.51 113.70 L 161.60 114.09 C 160.51 114.54 160.00 115.79 160.46 116.87 C 160.91 117.96 162.16 118.47 163.24 118.01 Z M 164.19 117.66 L 165.07 117.28 C 166.17 116.81 166.68 115.53 166.21 114.43 C 165.74 113.33 164.46 112.82 163.36 113.29 L 162.48 113.67 C 161.37 114.14 160.87 115.42 161.34 116.52 C 161.81 117.63 163.09 118.13 164.19 117.66 Z M 165.08 117.34 L 165.97 116.96 C 167.10 116.48 167.63 115.18 167.15 114.05 C 166.67 112.91 165.37 112.38 164.24 112.86 L 163.35 113.24 C 162.22 113.72 161.69 115.02 162.16 116.15 C 162.64 117.28 163.95 117.81 165.08 117.34 Z M 165.94 117.04 L 166.86 116.68 C 168.03 116.22 168.61 114.89 168.15 113.71 C 167.68 112.54 166.35 111.96 165.18 112.42 L 164.26 112.78 C 163.09 113.25 162.51 114.58 162.97 115.75 C 163.44 116.93 164.77 117.50 165.94 117.04 Z M 166.79 116.78 L 167.74 116.45 C 168.97 116.02 169.62 114.68 169.19 113.45 C 168.76 112.22 167.42 111.57 166.19 112.00 L 165.24 112.32 C 164.01 112.75 163.36 114.10 163.79 115.33 C 164.22 116.55 165.56 117.20 166.79 116.78 Z M 167.63 116.55 L 168.64 116.26 C 169.93 115.89 170.67 114.55 170.30 113.27 C 169.94 111.98 168.60 111.24 167.31 111.60 L 166.30 111.89 C 165.01 112.26 164.27 113.60 164.64 114.89 C 165.00 116.17 166.34 116.92 167.63 116.55 Z M 168.45 116.35 L 169.56 116.13 C 170.89 115.87 171.76 114.58 171.50 113.24 C 171.24 111.90 169.94 111.03 168.61 111.30 L 167.50 111.51 C 166.17 111.78 165.30 113.07 165.56 114.41 C 165.82 115.74 167.12 116.61 168.45 116.35 Z M 169.14 116.21 L 170.14 116.18 C 171.51 116.15 172.61 115.01 172.57 113.64 C 172.54 112.26 171.40 111.17 170.03 111.20 L 169.03 111.22 C 167.65 111.25 166.56 112.39 166.59 113.77 C 166.62 115.15 167.76 116.24 169.14 116.21 Z M 169.19 116.05 L 169.94 116.33 C 171.24 116.83 172.69 116.17 173.19 114.87 C 173.68 113.57 173.03 112.11 171.72 111.62 L 170.98 111.34 C 169.67 110.84 168.22 111.50 167.73 112.80 C 167.23 114.10 167.89 115.55 169.19 116.05 Z M 168.64 115.25 L 169.02 115.91 C 169.73 117.12 171.28 117.53 172.49 116.83 C 173.70 116.12 174.11 114.57 173.41 113.36 L 173.02 112.70 C 172.32 111.49 170.77 111.08 169.56 111.78 C 168.35 112.49 167.94 114.04 168.64 115.25 Z M 168.68 114.78 L 168.74 115.75 C 168.82 117.15 170.02 118.22 171.42 118.14 C 172.82 118.06 173.89 116.86 173.81 115.46 L 173.75 114.49 C 173.67 113.09 172.47 112.02 171.07 112.10 C 169.67 112.18 168.60 113.38 168.68 114.78 Z M 168.76 115.17 L 168.56 116.34 C 168.32 117.73 169.25 119.04 170.63 119.28 C 172.02 119.52 173.33 118.60 173.57 117.21 L 173.78 116.04 C 174.02 114.65 173.09 113.34 171.71 113.10 C 170.32 112.86 169.00 113.78 168.76 115.17 Z M 168.62 116.06 L 168.36 116.97 C 167.96 118.32 168.73 119.73 170.08 120.13 C 171.43 120.53 172.85 119.75 173.24 118.41 L 173.51 117.50 C 173.91 116.15 173.14 114.73 171.79 114.33 C 170.44 113.94 169.02 114.71 168.62 116.06 Z M 168.41 116.81 L 168.08 117.70 C 167.60 119.02 168.28 120.48 169.60 120.97 C 170.92 121.45 172.39 120.77 172.87 119.45 L 173.19 118.56 C 173.68 117.24 173.00 115.78 171.67 115.29 C 170.35 114.81 168.89 115.49 168.41 116.81 Z M 168.12 117.59 L 167.74 118.51 C 167.20 119.81 167.81 121.31 169.11 121.85 C 170.41 122.39 171.90 121.78 172.44 120.48 L 172.83 119.55 C 173.37 118.26 172.76 116.76 171.46 116.22 C 170.16 115.68 168.67 116.29 168.12 117.59 Z M 167.77 118.44 L 167.33 119.40 C 166.75 120.68 167.31 122.19 168.60 122.77 C 169.88 123.36 171.39 122.79 171.97 121.51 L 172.41 120.55 C 173.00 119.27 172.43 117.76 171.15 117.18 C 169.87 116.59 168.36 117.16 167.77 118.44 Z M 167.36 119.34 L 166.88 120.33 C 166.27 121.60 166.80 123.12 168.07 123.74 C 169.34 124.35 170.86 123.82 171.48 122.55 L 171.95 121.56 C 172.56 120.30 172.03 118.77 170.76 118.16 C 169.50 117.54 167.97 118.08 167.36 119.34 Z M 166.90 120.30 L 166.48 121.12 C 165.85 122.39 166.36 123.92 167.62 124.55 C 168.88 125.18 170.42 124.67 171.05 123.41 L 171.46 122.58 C 172.09 121.32 171.58 119.79 170.32 119.16 C 169.06 118.53 167.53 119.04 166.90 120.30 Z M 166.50 121.10 L 166.06 121.95 C 165.41 123.20 165.91 124.74 167.16 125.38 C 168.41 126.03 169.95 125.54 170.60 124.28 L 171.03 123.43 C 171.68 122.18 171.19 120.64 169.93 120.00 C 168.68 119.35 167.14 119.84 166.50 121.10 Z M 166.07 121.92 L 165.61 122.79 C 164.95 124.04 165.43 125.58 166.67 126.24 C 167.92 126.90 169.46 126.43 170.12 125.18 L 170.58 124.31 C 171.24 123.06 170.77 121.52 169.52 120.86 C 168.28 120.20 166.73 120.67 166.07 121.92 Z M 165.63 122.76 L 165.14 123.65 C 164.46 124.89 164.92 126.44 166.15 127.12 C 167.39 127.79 168.94 127.34 169.62 126.10 L 170.11 125.21 C 170.78 123.97 170.33 122.42 169.09 121.75 C 167.85 121.07 166.30 121.52 165.63 122.76 Z M 165.16 123.62 L 164.64 124.54 C 163.95 125.77 164.38 127.32 165.61 128.01 C 166.84 128.71 168.39 128.27 169.09 127.05 L 169.60 126.13 C 170.29 124.90 169.86 123.35 168.63 122.65 C 167.40 121.96 165.85 122.40 165.16 123.62 Z M 164.66 124.51 L 164.12 125.44 C 163.41 126.65 163.82 128.22 165.04 128.93 C 166.26 129.63 167.82 129.22 168.53 128.00 L 169.07 127.08 C 169.78 125.86 169.36 124.30 168.15 123.59 C 166.93 122.88 165.37 123.29 164.66 124.51 Z M 164.13 125.41 L 163.61 126.28 C 162.89 127.49 163.28 129.06 164.49 129.78 C 165.70 130.51 167.26 130.12 167.99 128.91 L 168.51 128.03 C 169.24 126.82 168.84 125.26 167.63 124.53 C 166.43 123.81 164.86 124.20 164.13 125.41 Z M 163.63 126.26 L 163.08 127.14 C 162.35 128.34 162.72 129.91 163.92 130.65 C 165.12 131.39 166.69 131.01 167.43 129.81 L 167.97 128.93 C 168.71 127.73 168.34 126.16 167.14 125.42 C 165.93 124.68 164.36 125.06 163.63 126.26 Z M 163.10 127.11 L 162.55 127.99 C 161.80 129.18 162.16 130.75 163.35 131.51 C 164.54 132.26 166.11 131.90 166.87 130.71 L 167.42 129.83 C 168.17 128.64 167.81 127.07 166.62 126.32 C 165.43 125.57 163.85 125.92 163.10 127.11 Z M 162.56 127.97 L 162.01 128.82 C 161.25 130.00 161.59 131.58 162.77 132.35 C 163.96 133.11 165.54 132.77 166.30 131.58 L 166.85 130.73 C 167.61 129.55 167.27 127.97 166.09 127.20 C 164.91 126.44 163.33 126.78 162.56 127.97 Z M 162.03 128.80 L 161.48 129.62 C 160.71 130.80 161.03 132.38 162.21 133.15 C 163.38 133.93 164.96 133.61 165.74 132.43 L 166.28 131.61 C 167.06 130.43 166.74 128.85 165.56 128.07 C 164.39 127.30 162.80 127.62 162.03 128.80 Z M 161.50 129.60 L 160.97 130.38 C 160.18 131.55 160.49 133.13 161.65 133.92 C 162.82 134.71 164.40 134.40 165.19 133.24 L 165.72 132.46 C 166.51 131.29 166.21 129.71 165.04 128.92 C 163.88 128.13 162.29 128.43 161.50 129.60 Z M 160.99 130.35 L 160.39 131.22 C 159.58 132.37 159.87 133.96 161.02 134.76 C 162.17 135.57 163.76 135.29 164.56 134.13 L 165.17 133.27 C 165.97 132.11 165.69 130.53 164.54 129.72 C 163.39 128.92 161.80 129.20 160.99 130.35 Z M 160.42 131.19 L 159.79 132.06 C 158.97 133.19 159.22 134.78 160.36 135.60 C 161.49 136.42 163.08 136.17 163.90 135.03 L 164.53 134.16 C 165.35 133.03 165.10 131.44 163.97 130.62 C 162.83 129.80 161.24 130.05 160.42 131.19 Z M 159.82 132.03 L 159.22 132.83 C 158.39 133.94 158.61 135.53 159.73 136.37 C 160.85 137.21 162.43 136.98 163.27 135.86 L 163.87 135.06 C 164.71 133.95 164.48 132.36 163.36 131.52 C 162.25 130.69 160.66 130.91 159.82 132.03 Z M 159.25 132.80 L 158.67 133.55 C 157.82 134.65 158.02 136.24 159.12 137.09 C 160.23 137.94 161.81 137.74 162.66 136.64 L 163.24 135.89 C 164.09 134.79 163.89 133.20 162.79 132.35 C 161.69 131.50 160.11 131.70 159.25 132.80 Z M 158.70 133.54 L 158.13 134.25 C 157.27 135.34 157.45 136.92 158.54 137.78 C 159.63 138.64 161.21 138.46 162.07 137.37 L 162.64 136.65 C 163.50 135.57 163.31 133.99 162.23 133.13 C 161.14 132.27 159.56 132.45 158.70 133.54 Z M 158.15 134.25 L 157.54 135.01 C 156.67 136.09 156.84 137.66 157.92 138.53 C 159.00 139.39 160.57 139.22 161.44 138.14 L 162.05 137.38 C 162.92 136.30 162.74 134.72 161.67 133.86 C 160.59 132.99 159.01 133.17 158.15 134.25 Z M 157.55 135.00 L 156.92 135.78 C 156.05 136.85 156.21 138.42 157.28 139.29 C 158.35 140.16 159.92 140.00 160.79 138.93 L 161.43 138.15 C 162.29 137.08 162.13 135.51 161.06 134.64 C 159.99 133.77 158.42 133.93 157.55 135.00 Z M 156.93 135.77 L 156.30 136.54 C 155.42 137.60 155.57 139.17 156.64 140.05 C 157.70 140.92 159.27 140.77 160.14 139.71 L 160.78 138.94 C 161.65 137.88 161.50 136.31 160.44 135.43 C 159.38 134.56 157.81 134.71 156.93 135.77 Z M 156.32 136.53 L 155.68 137.29 C 154.79 138.34 154.93 139.91 155.98 140.79 C 157.03 141.67 158.60 141.54 159.48 140.48 L 160.12 139.72 C 161.01 138.67 160.87 137.10 159.82 136.22 C 158.77 135.34 157.20 135.47 156.32 136.53 Z M 155.70 137.27 L 155.06 138.02 C 154.17 139.06 154.29 140.62 155.33 141.51 C 156.37 142.40 157.93 142.28 158.82 141.24 L 159.46 140.50 C 160.35 139.46 160.23 137.90 159.19 137.00 C 158.15 136.11 156.59 136.23 155.70 137.27 Z M 155.09 138.00 L 154.46 138.72 C 153.56 139.74 153.66 141.30 154.68 142.20 C 155.70 143.10 157.26 143.00 158.16 141.98 L 158.79 141.26 C 159.69 140.24 159.59 138.68 158.57 137.78 C 157.55 136.88 155.99 136.98 155.09 138.00 Z M 154.50 138.70 L 153.84 139.42 C 152.93 140.42 153.00 141.97 154.00 142.88 C 155.00 143.79 156.55 143.72 157.46 142.72 L 158.12 142.00 C 159.03 141.00 158.96 139.45 157.96 138.54 C 156.96 137.63 155.41 137.70 154.50 138.70 Z M 153.89 139.39 L 153.19 140.12 C 152.27 141.09 152.30 142.63 153.27 143.56 C 154.25 144.49 155.79 144.45 156.72 143.48 L 157.41 142.75 C 158.34 141.78 158.30 140.24 157.33 139.31 C 156.36 138.38 154.82 138.42 153.89 139.39 Z M 153.25 140.09 L 152.50 140.83 C 151.56 141.77 151.55 143.30 152.50 144.25 C 153.44 145.19 154.97 145.20 155.92 144.25 L 156.66 143.51 C 157.61 142.57 157.61 141.04 156.67 140.09 C 155.72 139.15 154.19 139.14 153.25 140.09 Z M 152.56 140.80 L 151.79 141.52 C 150.83 142.43 150.78 143.95 151.69 144.92 C 152.60 145.88 154.12 145.92 155.08 145.01 L 155.86 144.29 C 156.82 143.38 156.86 141.86 155.95 140.90 C 155.05 139.93 153.53 139.89 152.56 140.80 Z M 151.87 141.48 L 151.07 142.19 C 150.08 143.05 149.99 144.55 150.85 145.54 C 151.72 146.52 153.22 146.62 154.20 145.76 L 155.00 145.06 C 155.99 144.19 156.09 142.69 155.22 141.70 C 154.36 140.72 152.86 140.62 151.87 141.48 Z M 151.18 142.12 L 150.36 142.77 C 149.34 143.57 149.16 145.05 149.97 146.07 C 150.77 147.09 152.25 147.27 153.27 146.47 L 154.09 145.82 C 155.11 145.02 155.29 143.54 154.49 142.52 C 153.68 141.50 152.21 141.32 151.18 142.12 Z M 150.53 142.68 L 149.71 143.22 C 148.64 143.93 148.35 145.37 149.06 146.44 C 149.77 147.52 151.21 147.81 152.29 147.10 L 153.10 146.56 C 154.17 145.85 154.46 144.40 153.75 143.33 C 153.04 142.26 151.60 141.97 150.53 142.68 Z M 149.97 143.10 L 149.18 143.49 C 148.04 144.06 147.58 145.44 148.15 146.58 C 148.72 147.72 150.10 148.18 151.24 147.61 L 152.03 147.22 C 153.16 146.65 153.63 145.27 153.06 144.13 C 152.49 142.99 151.11 142.53 149.97 143.10 Z M 149.68 143.37 L 148.66 143.62 C 147.45 143.91 146.71 145.13 147.01 146.33 C 147.30 147.54 148.51 148.27 149.72 147.98 L 150.74 147.73 C 151.94 147.44 152.68 146.23 152.39 145.02 C 152.10 143.82 150.88 143.08 149.68 143.37 Z M 149.26 143.66 L 148.29 143.62 C 147.10 143.58 146.11 144.50 146.06 145.69 C 146.02 146.87 146.95 147.87 148.13 147.91 L 149.11 147.95 C 150.29 147.99 151.29 147.06 151.33 145.88 C 151.38 144.69 150.45 143.70 149.26 143.66 Z M 148.67 143.77 L 147.74 143.56 C 146.63 143.31 145.54 144.00 145.29 145.10 C 145.03 146.20 145.72 147.30 146.83 147.55 L 147.76 147.76 C 148.86 148.01 149.95 147.32 150.21 146.22 C 150.46 145.12 149.77 144.02 148.67 143.77 Z M 147.84 143.66 L 147.41 143.53 C 146.36 143.23 145.27 143.82 144.96 144.87 C 144.65 145.92 145.25 147.01 146.29 147.32 L 146.72 147.45 C 147.77 147.75 148.87 147.16 149.17 146.11 C 149.48 145.07 148.88 143.97 147.84 143.66 Z"
      fill="black"
      fill-rule="nonzero" /><path d="M 148.40 131.66 L 149.16 132.24 C 150.14 133.00 151.55 132.82 152.30 131.84 C 153.06 130.86 152.88 129.45 151.90 128.70 L 151.15 128.11 C 150.17 127.36 148.76 127.54 148.00 128.52 C 147.24 129.50 147.43 130.90 148.40 131.66 Z M 149.19 132.27 L 149.97 132.85 C 150.96 133.59 152.37 133.39 153.11 132.39 C 153.85 131.40 153.65 129.99 152.65 129.25 L 151.87 128.67 C 150.88 127.93 149.47 128.14 148.73 129.13 C 147.99 130.12 148.20 131.53 149.19 132.27 Z M 150.03 132.89 L 150.87 133.48 C 151.88 134.18 153.28 133.93 153.99 132.92 C 154.70 131.90 154.45 130.50 153.43 129.79 L 152.59 129.21 C 151.58 128.50 150.18 128.75 149.47 129.77 C 148.76 130.79 149.01 132.19 150.03 132.89 Z M 150.94 133.53 L 151.80 134.07 C 152.84 134.74 154.23 134.43 154.89 133.38 C 155.56 132.34 155.25 130.95 154.21 130.29 L 153.35 129.74 C 152.31 129.08 150.92 129.38 150.25 130.43 C 149.59 131.48 149.90 132.86 150.94 133.53 Z M 151.87 134.11 L 152.65 134.57 C 153.72 135.19 155.09 134.83 155.71 133.76 C 156.34 132.69 155.98 131.32 154.91 130.70 L 154.13 130.24 C 153.06 129.62 151.69 129.98 151.06 131.05 C 150.44 132.12 150.80 133.49 151.87 134.11 Z M 152.71 134.60 L 153.55 135.06 C 154.63 135.65 155.99 135.25 156.58 134.16 C 157.18 133.08 156.78 131.72 155.69 131.13 L 154.85 130.67 C 153.76 130.07 152.40 130.47 151.81 131.56 C 151.22 132.65 151.62 134.00 152.71 134.60 Z M 153.59 135.08 L 154.50 135.55 C 155.60 136.11 156.95 135.68 157.51 134.58 C 158.08 133.49 157.65 132.14 156.55 131.57 L 155.64 131.10 C 154.55 130.54 153.20 130.97 152.63 132.07 C 152.07 133.16 152.50 134.51 153.59 135.08 Z M 154.54 135.56 L 155.52 136.04 C 156.63 136.59 157.96 136.14 158.51 135.03 C 159.05 133.92 158.60 132.59 157.49 132.04 L 156.52 131.56 C 155.41 131.01 154.07 131.47 153.53 132.57 C 152.98 133.68 153.44 135.02 154.54 135.56 Z M 155.55 136.05 L 156.49 136.50 C 157.60 137.03 158.93 136.56 159.46 135.45 C 159.99 134.34 159.52 133.01 158.41 132.48 L 157.47 132.03 C 156.36 131.50 155.03 131.98 154.50 133.08 C 153.97 134.19 154.44 135.52 155.55 136.05 Z M 156.52 136.50 L 157.41 136.92 C 158.52 137.44 159.84 136.96 160.36 135.85 C 160.87 134.74 160.39 133.42 159.28 132.90 L 158.39 132.48 C 157.28 131.97 155.96 132.45 155.44 133.56 C 154.93 134.67 155.41 135.99 156.52 136.50 Z M 157.43 136.92 L 158.35 137.34 C 159.46 137.84 160.77 137.36 161.28 136.25 C 161.78 135.14 161.30 133.83 160.19 133.33 L 159.26 132.91 C 158.16 132.40 156.85 132.89 156.34 133.99 C 155.84 135.10 156.32 136.41 157.43 136.92 Z M 158.37 137.33 L 159.30 137.75 C 160.41 138.25 161.71 137.76 162.20 136.65 C 162.70 135.55 162.21 134.25 161.10 133.75 L 160.17 133.33 C 159.07 132.83 157.77 133.33 157.27 134.43 C 156.77 135.54 157.27 136.84 158.37 137.33 Z M 159.32 137.75 L 160.25 138.16 C 161.35 138.65 162.64 138.15 163.13 137.05 C 163.62 135.95 163.12 134.66 162.02 134.17 L 161.09 133.76 C 159.99 133.27 158.70 133.77 158.21 134.87 C 157.72 135.97 158.22 137.26 159.32 137.75 Z M 160.26 138.15 L 161.17 138.55 C 162.27 139.03 163.55 138.53 164.03 137.43 C 164.51 136.33 164.01 135.05 162.91 134.57 L 162.00 134.17 C 160.90 133.69 159.62 134.19 159.14 135.29 C 158.66 136.39 159.16 137.67 160.26 138.15 Z M 161.19 138.54 L 162.16 138.96 C 163.26 139.43 164.53 138.93 165.00 137.84 C 165.47 136.74 164.96 135.47 163.87 135.00 L 162.89 134.58 C 161.80 134.11 160.53 134.61 160.06 135.71 C 159.59 136.80 160.09 138.07 161.19 138.54 Z M 162.18 138.95 L 163.16 139.36 C 164.24 139.82 165.49 139.32 165.96 138.24 C 166.42 137.15 165.91 135.90 164.83 135.44 L 163.85 135.02 C 162.77 134.56 161.52 135.06 161.05 136.15 C 160.59 137.23 161.10 138.48 162.18 138.95 Z M 163.17 139.34 L 164.10 139.74 C 165.17 140.19 166.41 139.69 166.86 138.62 C 167.32 137.54 166.82 136.30 165.74 135.85 L 164.82 135.46 C 163.74 135.00 162.50 135.50 162.05 136.57 C 161.59 137.65 162.10 138.89 163.17 139.34 Z M 164.11 139.71 L 164.99 140.09 C 166.05 140.54 167.28 140.04 167.73 138.98 C 168.18 137.92 167.68 136.70 166.62 136.25 L 165.74 135.87 C 164.68 135.42 163.45 135.92 163.00 136.98 C 162.55 138.04 163.04 139.26 164.11 139.71 Z M 164.99 140.06 L 165.84 140.43 C 166.89 140.88 168.10 140.39 168.55 139.34 C 169.00 138.30 168.51 137.08 167.47 136.63 L 166.62 136.27 C 165.57 135.82 164.36 136.31 163.91 137.36 C 163.46 138.40 163.95 139.62 164.99 140.06 Z M 165.84 140.40 L 166.77 140.80 C 167.80 141.25 169.00 140.78 169.45 139.75 C 169.90 138.72 169.43 137.52 168.40 137.07 L 167.47 136.66 C 166.44 136.21 165.24 136.68 164.79 137.72 C 164.34 138.75 164.81 139.95 165.84 140.40 Z M 166.77 140.77 L 167.70 141.19 C 168.72 141.64 169.91 141.18 170.36 140.17 C 170.81 139.16 170.35 137.97 169.34 137.52 L 168.40 137.10 C 167.39 136.65 166.20 137.11 165.75 138.12 C 165.30 139.13 165.75 140.32 166.77 140.77 Z M 167.71 141.16 L 168.61 141.56 C 169.61 142.01 170.78 141.57 171.23 140.58 C 171.68 139.58 171.23 138.41 170.24 137.96 L 169.34 137.55 C 168.34 137.10 167.17 137.54 166.72 138.54 C 166.27 139.53 166.71 140.71 167.71 141.16 Z M 168.62 141.53 L 169.49 141.93 C 170.47 142.38 171.63 141.95 172.07 140.97 C 172.52 139.99 172.09 138.83 171.11 138.39 L 170.23 137.99 C 169.25 137.54 168.10 137.98 167.65 138.95 C 167.21 139.93 167.64 141.09 168.62 141.53 Z M 169.51 141.90 L 170.42 142.32 C 171.38 142.76 172.52 142.33 172.96 141.37 C 173.40 140.41 172.97 139.28 172.01 138.84 L 171.10 138.42 C 170.13 137.98 169.00 138.40 168.56 139.37 C 168.12 140.33 168.54 141.46 169.51 141.90 Z M 170.43 142.28 L 171.37 142.71 C 172.31 143.14 173.42 142.73 173.85 141.79 C 174.29 140.85 173.87 139.73 172.93 139.30 L 172.00 138.87 C 171.06 138.44 169.94 138.85 169.51 139.79 C 169.08 140.74 169.49 141.85 170.43 142.28 Z M 171.37 142.67 L 172.27 143.09 C 173.19 143.52 174.28 143.13 174.71 142.21 C 175.14 141.29 174.75 140.19 173.83 139.76 L 172.93 139.34 C 172.01 138.91 170.91 139.31 170.48 140.23 C 170.05 141.15 170.45 142.24 171.37 142.67 Z M 172.26 143.05 L 173.12 143.46 C 174.02 143.90 175.09 143.52 175.53 142.63 C 175.96 141.74 175.59 140.66 174.70 140.23 L 173.83 139.81 C 172.94 139.38 171.86 139.75 171.43 140.64 C 171.00 141.54 171.37 142.61 172.26 143.05 Z M 173.10 143.41 L 174.02 143.88 C 174.88 144.33 175.95 143.99 176.39 143.12 C 176.84 142.26 176.50 141.20 175.63 140.75 L 174.72 140.28 C 173.85 139.84 172.79 140.18 172.34 141.04 C 171.90 141.91 172.24 142.97 173.10 143.41 Z M 173.97 143.82 L 174.85 144.31 C 175.68 144.78 176.73 144.49 177.20 143.66 C 177.67 142.83 177.38 141.77 176.55 141.30 L 175.67 140.81 C 174.84 140.34 173.79 140.64 173.32 141.47 C 172.85 142.30 173.14 143.35 173.97 143.82 Z M 174.78 144.23 L 175.60 144.76 C 176.39 145.27 177.44 145.04 177.94 144.25 C 178.45 143.46 178.22 142.41 177.43 141.91 L 176.61 141.38 C 175.82 140.88 174.77 141.11 174.27 141.89 C 173.76 142.68 173.99 143.73 174.78 144.23 Z M 175.52 144.67 L 176.31 145.26 C 177.05 145.81 178.10 145.66 178.65 144.92 C 179.20 144.18 179.04 143.14 178.30 142.59 L 177.51 142.00 C 176.77 141.45 175.73 141.60 175.18 142.34 C 174.63 143.08 174.78 144.12 175.52 144.67 Z M 176.24 145.19 L 177.00 145.83 C 177.70 146.42 178.75 146.33 179.34 145.64 C 179.93 144.94 179.84 143.89 179.14 143.30 L 178.38 142.66 C 177.68 142.07 176.63 142.16 176.04 142.86 C 175.45 143.56 175.54 144.60 176.24 145.19 Z M 176.96 145.79 L 177.71 146.46 C 178.38 147.07 179.42 147.02 180.03 146.35 C 180.64 145.68 180.59 144.63 179.92 144.02 L 179.18 143.35 C 178.51 142.74 177.46 142.79 176.85 143.46 C 176.24 144.13 176.29 145.18 176.96 145.79 Z M 177.70 146.44 L 178.06 146.78 C 178.72 147.40 179.76 147.36 180.38 146.70 C 180.99 146.04 180.96 145.00 180.30 144.38 L 179.93 144.04 C 179.27 143.42 178.23 143.46 177.61 144.12 C 177.00 144.79 177.03 145.82 177.70 146.44 Z"
      fill="black"
      fill-rule="nonzero" /><path d="M 158.15 145.49 L 157.55 146.29 C 156.82 147.28 157.03 148.67 158.01 149.41 C 159.00 150.14 160.39 149.93 161.13 148.94 L 161.72 148.14 C 162.45 147.15 162.25 145.76 161.26 145.02 C 160.27 144.29 158.88 144.50 158.15 145.49 Z M 157.58 146.28 L 156.97 147.08 C 156.23 148.05 156.42 149.43 157.39 150.17 C 158.36 150.91 159.75 150.73 160.49 149.75 L 161.10 148.96 C 161.84 147.99 161.65 146.60 160.68 145.86 C 159.71 145.12 158.32 145.31 157.58 146.28 Z M 157.02 147.04 L 156.40 147.81 C 155.63 148.76 155.78 150.14 156.73 150.90 C 157.67 151.66 159.05 151.51 159.82 150.57 L 160.44 149.79 C 161.20 148.85 161.05 147.47 160.11 146.71 C 159.17 145.94 157.78 146.09 157.02 147.04 Z M 156.46 147.75 L 155.81 148.49 C 155.02 149.40 155.11 150.78 156.02 151.57 C 156.93 152.37 158.31 152.28 159.10 151.37 L 159.75 150.63 C 160.54 149.72 160.45 148.34 159.54 147.55 C 158.64 146.75 157.26 146.85 156.46 147.75 Z M 155.88 148.43 L 155.21 149.13 C 154.39 150.00 154.42 151.38 155.29 152.21 C 156.16 153.04 157.54 153.00 158.37 152.13 L 159.03 151.43 C 159.86 150.56 159.83 149.18 158.96 148.35 C 158.09 147.53 156.71 147.56 155.88 148.43 Z M 155.25 149.10 L 154.55 149.80 C 153.71 150.65 153.71 152.02 154.55 152.87 C 155.40 153.72 156.78 153.72 157.63 152.87 L 158.33 152.17 C 159.17 151.32 159.17 149.94 158.33 149.10 C 157.48 148.25 156.10 148.25 155.25 149.10 Z M 154.57 149.79 L 153.83 150.52 C 152.98 151.36 152.97 152.73 153.81 153.58 C 154.65 154.43 156.03 154.44 156.88 153.60 L 157.61 152.88 C 158.46 152.04 158.47 150.66 157.63 149.81 C 156.79 148.96 155.42 148.95 154.57 149.79 Z M 153.83 150.53 L 153.12 151.24 C 152.28 152.09 152.28 153.45 153.13 154.29 C 153.97 155.14 155.34 155.13 156.18 154.29 L 156.88 153.58 C 157.73 152.74 157.72 151.37 156.88 150.53 C 156.04 149.69 154.67 149.69 153.83 150.53 Z M 153.12 151.27 L 152.42 151.98 C 151.59 152.82 151.61 154.18 152.46 155.01 C 153.31 155.84 154.66 155.82 155.49 154.97 L 156.18 154.26 C 157.01 153.42 157.00 152.06 156.15 151.23 C 155.30 150.40 153.94 150.42 153.12 151.27 Z M 152.42 152.00 L 151.72 152.73 C 150.90 153.57 150.93 154.92 151.78 155.74 C 152.62 156.55 153.97 156.53 154.79 155.68 L 155.49 154.95 C 156.31 154.11 156.28 152.76 155.43 151.94 C 154.59 151.12 153.24 151.15 152.42 152.00 Z M 151.73 152.74 L 151.02 153.48 C 150.22 154.32 150.25 155.66 151.09 156.47 C 151.94 157.27 153.28 157.24 154.08 156.40 L 154.78 155.66 C 155.59 154.82 155.56 153.48 154.71 152.67 C 153.87 151.87 152.53 151.90 151.73 152.74 Z M 151.03 153.49 L 150.32 154.24 C 149.52 155.08 149.56 156.41 150.40 157.21 C 151.24 158.01 152.56 157.97 153.36 157.13 L 154.07 156.38 C 154.87 155.54 154.84 154.22 154.00 153.42 C 153.16 152.62 151.83 152.65 151.03 153.49 Z M 150.32 154.28 L 149.61 155.06 C 148.83 155.90 148.88 157.21 149.72 157.98 C 150.56 158.76 151.87 158.71 152.65 157.87 L 153.36 157.09 C 154.14 156.25 154.09 154.94 153.25 154.17 C 152.41 153.39 151.09 153.44 150.32 154.28 Z M 149.56 155.15 L 148.92 155.92 C 148.19 156.78 148.30 158.07 149.17 158.80 C 150.03 159.52 151.32 159.41 152.05 158.54 L 152.69 157.77 C 153.42 156.91 153.31 155.62 152.44 154.90 C 151.58 154.17 150.29 154.28 149.56 155.15 Z M 148.83 156.07 L 148.28 156.86 C 147.65 157.77 147.87 159.02 148.78 159.66 C 149.69 160.30 150.95 160.08 151.58 159.17 L 152.13 158.39 C 152.77 157.48 152.55 156.22 151.64 155.58 C 150.73 154.94 149.47 155.16 148.83 156.07 Z M 148.17 157.11 L 147.73 157.97 C 147.23 158.94 147.62 160.14 148.59 160.63 C 149.57 161.13 150.76 160.75 151.26 159.77 L 151.70 158.91 C 152.20 157.94 151.81 156.74 150.84 156.25 C 149.86 155.75 148.67 156.14 148.17 157.11 Z M 147.65 158.27 L 147.34 159.22 C 147.01 160.24 147.57 161.33 148.59 161.66 C 149.61 161.99 150.70 161.44 151.03 160.42 L 151.34 159.47 C 151.67 158.45 151.11 157.36 150.10 157.03 C 149.08 156.70 147.98 157.25 147.65 158.27 Z M 147.33 159.44 L 147.14 160.42 C 146.93 161.44 147.59 162.44 148.61 162.65 C 149.64 162.85 150.63 162.19 150.84 161.17 L 151.04 160.20 C 151.25 159.17 150.59 158.17 149.56 157.97 C 148.54 157.76 147.54 158.42 147.33 159.44 Z M 147.16 160.53 L 147.03 161.47 C 146.88 162.48 147.58 163.42 148.59 163.56 C 149.59 163.71 150.53 163.01 150.68 162.00 L 150.81 161.06 C 150.96 160.05 150.26 159.11 149.26 158.97 C 148.25 158.82 147.31 159.52 147.16 160.53 Z"
      fill="black"
      fill-rule="nonzero" /><path d="M 166.01 153.91 L 165.60 154.85 C 165.11 156.00 165.64 157.34 166.79 157.84 C 167.94 158.33 169.28 157.80 169.78 156.65 L 170.18 155.71 C 170.68 154.56 170.15 153.22 169.00 152.73 C 167.84 152.23 166.50 152.76 166.01 153.91 Z M 165.62 154.83 L 165.21 155.75 C 164.70 156.89 165.22 158.23 166.36 158.74 C 167.50 159.25 168.84 158.73 169.35 157.59 L 169.76 156.67 C 170.27 155.53 169.75 154.19 168.61 153.68 C 167.47 153.17 166.13 153.69 165.62 154.83 Z M 165.25 155.70 L 164.82 156.59 C 164.29 157.71 164.76 159.05 165.88 159.59 C 167.00 160.13 168.35 159.65 168.88 158.53 L 169.31 157.64 C 169.85 156.52 169.37 155.18 168.25 154.64 C 167.13 154.10 165.79 154.58 165.25 155.70 Z M 164.87 156.51 L 164.42 157.36 C 163.84 158.45 164.26 159.81 165.35 160.39 C 166.45 160.97 167.80 160.55 168.38 159.46 L 168.83 158.61 C 169.41 157.52 169.00 156.16 167.90 155.58 C 166.81 155.00 165.45 155.42 164.87 156.51 Z M 164.48 157.28 L 164.00 158.10 C 163.37 159.16 163.73 160.53 164.79 161.15 C 165.85 161.78 167.21 161.42 167.84 160.36 L 168.32 159.54 C 168.95 158.48 168.60 157.11 167.54 156.49 C 166.47 155.86 165.11 156.22 164.48 157.28 Z M 164.05 158.04 L 163.51 158.89 C 162.85 159.92 163.16 161.29 164.19 161.95 C 165.23 162.60 166.60 162.30 167.26 161.26 L 167.79 160.42 C 168.45 159.39 168.14 158.02 167.11 157.36 C 166.07 156.70 164.70 157.01 164.05 158.04 Z M 163.54 158.86 L 162.96 159.74 C 162.29 160.76 162.57 162.13 163.58 162.80 C 164.60 163.47 165.97 163.19 166.64 162.18 L 167.22 161.29 C 167.90 160.28 167.62 158.91 166.60 158.23 C 165.58 157.56 164.22 157.84 163.54 158.86 Z M 162.97 159.73 L 162.44 160.52 C 161.77 161.53 162.03 162.90 163.04 163.58 C 164.05 164.25 165.42 163.98 166.09 162.98 L 166.63 162.18 C 167.30 161.18 167.03 159.81 166.03 159.13 C 165.02 158.46 163.65 158.72 162.97 159.73 Z M 162.45 160.52 L 161.89 161.35 C 161.21 162.35 161.47 163.72 162.47 164.40 C 163.48 165.08 164.84 164.82 165.52 163.81 L 166.08 162.98 C 166.76 161.98 166.50 160.61 165.50 159.93 C 164.50 159.25 163.13 159.52 162.45 160.52 Z M 161.90 161.34 L 161.32 162.19 C 160.63 163.19 160.89 164.55 161.89 165.24 C 162.89 165.92 164.25 165.66 164.93 164.67 L 165.51 163.82 C 166.19 162.82 165.94 161.46 164.94 160.77 C 163.94 160.09 162.58 160.35 161.90 161.34 Z M 161.33 162.19 L 160.75 163.03 C 160.06 164.02 160.31 165.38 161.30 166.07 C 162.29 166.75 163.65 166.51 164.34 165.51 L 164.92 164.67 C 165.61 163.68 165.36 162.32 164.37 161.63 C 163.37 160.95 162.01 161.20 161.33 162.19 Z M 160.76 163.03 L 160.17 163.87 C 159.48 164.86 159.72 166.21 160.71 166.90 C 161.69 167.59 163.05 167.35 163.74 166.36 L 164.33 165.52 C 165.01 164.53 164.77 163.18 163.79 162.49 C 162.80 161.80 161.45 162.04 160.76 163.03 Z M 160.18 163.87 L 159.60 164.69 C 158.91 165.67 159.15 167.02 160.13 167.71 C 161.10 168.40 162.46 168.17 163.14 167.19 L 163.72 166.36 C 164.41 165.39 164.18 164.03 163.20 163.35 C 162.22 162.66 160.87 162.89 160.18 163.87 Z M 159.61 164.70 L 159.04 165.50 C 158.35 166.48 158.59 167.82 159.56 168.51 C 160.53 169.20 161.88 168.96 162.56 167.99 L 163.13 167.18 C 163.82 166.21 163.59 164.86 162.62 164.18 C 161.64 163.49 160.30 163.72 159.61 164.70 Z M 159.05 165.51 L 158.48 166.32 C 157.80 167.29 158.04 168.62 159.00 169.31 C 159.97 169.99 161.31 169.75 161.99 168.78 L 162.56 167.98 C 163.24 167.01 163.01 165.67 162.04 164.99 C 161.07 164.31 159.73 164.54 159.05 165.51 Z M 158.49 166.33 L 157.90 167.17 C 157.23 168.14 157.47 169.47 158.44 170.14 C 159.41 170.82 160.73 170.58 161.41 169.61 L 161.99 168.77 C 162.66 167.80 162.42 166.47 161.46 165.80 C 160.49 165.13 159.16 165.37 158.49 166.33 Z M 157.90 167.21 L 157.32 168.06 C 156.67 169.03 156.93 170.35 157.90 171.00 C 158.87 171.66 160.19 171.40 160.84 170.43 L 161.41 169.57 C 162.07 168.60 161.81 167.29 160.84 166.63 C 159.87 165.98 158.55 166.24 157.90 167.21 Z M 157.30 168.12 L 156.77 168.97 C 156.15 169.95 156.44 171.25 157.42 171.87 C 158.41 172.49 159.71 172.20 160.32 171.21 L 160.86 170.37 C 161.48 169.38 161.18 168.09 160.20 167.47 C 159.22 166.85 157.92 167.14 157.30 168.12 Z M 156.73 169.06 L 156.26 169.89 C 155.69 170.89 156.04 172.17 157.05 172.74 C 158.05 173.31 159.32 172.95 159.89 171.95 L 160.36 171.12 C 160.93 170.12 160.58 168.84 159.58 168.28 C 158.57 167.71 157.30 168.06 156.73 169.06 Z M 156.20 170.08 L 155.73 171.14 C 155.27 172.17 155.73 173.39 156.76 173.85 C 157.80 174.32 159.01 173.85 159.48 172.82 L 159.95 171.76 C 160.41 170.73 159.95 169.51 158.92 169.05 C 157.88 168.58 156.67 169.05 156.20 170.08 Z M 155.63 171.67 L 155.48 172.62 C 155.31 173.71 156.06 174.73 157.15 174.90 C 158.24 175.07 159.26 174.32 159.43 173.23 L 159.57 172.28 C 159.74 171.20 159.00 170.18 157.91 170.01 C 156.82 169.84 155.80 170.58 155.63 171.67 Z M 155.79 173.92 L 156.19 174.58 C 156.74 175.50 157.92 175.80 158.84 175.25 C 159.76 174.71 160.06 173.52 159.51 172.60 L 159.12 171.94 C 158.57 171.02 157.38 170.72 156.46 171.27 C 155.55 171.81 155.25 173.00 155.79 173.92 Z M 157.19 175.35 L 157.95 175.63 C 158.92 175.99 160.00 175.50 160.36 174.53 C 160.72 173.56 160.23 172.48 159.26 172.12 L 158.51 171.84 C 157.54 171.47 156.46 171.96 156.10 172.93 C 155.73 173.90 156.22 174.98 157.19 175.35 Z M 158.43 175.68 L 159.45 175.78 C 160.45 175.87 161.33 175.14 161.43 174.14 C 161.52 173.14 160.79 172.26 159.79 172.16 L 158.78 172.07 C 157.78 171.97 156.89 172.70 156.80 173.70 C 156.70 174.70 157.43 175.59 158.43 175.68 Z M 159.70 175.73 L 160.82 175.67 C 161.79 175.63 162.54 174.80 162.50 173.83 C 162.45 172.87 161.63 172.12 160.66 172.16 L 159.54 172.21 C 158.57 172.26 157.82 173.08 157.87 174.05 C 157.91 175.02 158.73 175.77 159.70 175.73 Z M 161.01 175.61 L 162.10 175.43 C 163.04 175.29 163.67 174.41 163.52 173.48 C 163.38 172.55 162.50 171.91 161.57 172.06 L 160.47 172.23 C 159.54 172.38 158.91 173.25 159.05 174.18 C 159.20 175.12 160.07 175.75 161.01 175.61 Z M 162.28 175.37 L 163.28 175.09 C 164.17 174.85 164.70 173.93 164.46 173.03 C 164.21 172.13 163.29 171.61 162.39 171.85 L 161.39 172.12 C 160.50 172.37 159.97 173.29 160.22 174.19 C 160.46 175.08 161.38 175.61 162.28 175.37 Z M 163.43 175.03 L 164.33 174.68 C 165.19 174.36 165.62 173.39 165.29 172.53 C 164.97 171.67 164.00 171.24 163.15 171.57 L 162.24 171.92 C 161.38 172.24 160.95 173.21 161.28 174.07 C 161.61 174.92 162.57 175.36 163.43 175.03 Z M 164.43 174.62 L 165.29 174.23 C 166.11 173.85 166.47 172.87 166.09 172.04 C 165.71 171.21 164.73 170.85 163.90 171.24 L 163.05 171.63 C 162.22 172.01 161.86 172.99 162.24 173.82 C 162.63 174.65 163.61 175.01 164.43 174.62 Z M 165.34 174.20 L 166.22 173.75 C 167.03 173.34 167.35 172.35 166.94 171.54 C 166.53 170.73 165.54 170.41 164.74 170.82 L 163.85 171.27 C 163.04 171.68 162.72 172.67 163.13 173.47 C 163.54 174.28 164.53 174.61 165.34 174.20 Z M 166.25 173.73 L 167.13 173.26 C 167.93 172.83 168.23 171.84 167.81 171.04 C 167.38 170.24 166.39 169.94 165.59 170.37 L 164.71 170.84 C 163.91 171.26 163.61 172.26 164.03 173.05 C 164.46 173.85 165.45 174.16 166.25 173.73 Z M 167.14 173.25 L 168.03 172.77 C 168.82 172.34 169.12 171.35 168.69 170.55 C 168.25 169.76 167.26 169.46 166.46 169.89 L 165.58 170.37 C 164.78 170.80 164.49 171.80 164.92 172.59 C 165.35 173.39 166.35 173.69 167.14 173.25 Z M 168.02 172.78 L 168.89 172.31 C 169.69 171.88 169.99 170.89 169.56 170.09 C 169.13 169.29 168.14 168.99 167.34 169.42 L 166.47 169.89 C 165.67 170.32 165.37 171.31 165.80 172.11 C 166.23 172.91 167.22 173.20 168.02 172.78 Z M 168.88 172.32 L 169.76 171.85 C 170.56 171.43 170.87 170.44 170.45 169.64 C 170.03 168.84 169.04 168.53 168.24 168.95 L 167.36 169.41 C 166.56 169.83 166.25 170.82 166.67 171.62 C 167.09 172.43 168.08 172.74 168.88 172.32 Z M 169.74 171.86 L 170.64 171.41 C 171.45 171.00 171.77 170.01 171.36 169.21 C 170.95 168.40 169.97 168.08 169.16 168.49 L 168.26 168.94 C 167.46 169.35 167.13 170.33 167.54 171.14 C 167.95 171.95 168.94 172.27 169.74 171.86 Z M 170.62 171.42 L 171.53 170.98 C 172.34 170.58 172.68 169.60 172.29 168.79 C 171.89 167.98 170.91 167.64 170.10 168.03 L 169.19 168.47 C 168.37 168.87 168.03 169.85 168.43 170.66 C 168.82 171.48 169.80 171.82 170.62 171.42 Z M 171.50 170.99 L 172.42 170.56 C 173.24 170.18 173.59 169.21 173.21 168.39 C 172.83 167.57 171.85 167.21 171.03 167.59 L 170.12 168.02 C 169.30 168.40 168.94 169.38 169.33 170.20 C 169.71 171.02 170.68 171.37 171.50 170.99 Z M 172.40 170.57 L 173.31 170.16 C 174.14 169.78 174.50 168.81 174.13 167.99 C 173.75 167.16 172.78 166.80 171.96 167.17 L 171.05 167.59 C 170.23 167.96 169.86 168.93 170.23 169.76 C 170.61 170.58 171.58 170.95 172.40 170.57 Z M 173.31 170.16 L 174.19 169.77 C 175.01 169.40 175.38 168.43 175.01 167.60 C 174.64 166.78 173.67 166.41 172.84 166.78 L 171.97 167.17 C 171.14 167.54 170.77 168.51 171.14 169.34 C 171.51 170.16 172.48 170.53 173.31 170.16 Z M 174.17 169.78 L 175.02 169.40 C 175.85 169.04 176.23 168.07 175.86 167.24 C 175.50 166.41 174.53 166.03 173.70 166.40 L 172.86 166.77 C 172.03 167.13 171.65 168.10 172.01 168.93 C 172.38 169.76 173.34 170.14 174.17 169.78 Z M 174.99 169.42 L 175.89 169.05 C 176.73 168.70 177.13 167.74 176.78 166.90 C 176.43 166.06 175.47 165.66 174.63 166.01 L 173.73 166.38 C 172.90 166.73 172.50 167.69 172.84 168.53 C 173.19 169.37 174.15 169.77 174.99 169.42 Z M 175.84 169.07 L 176.86 168.68 C 177.71 168.36 178.14 167.41 177.82 166.56 C 177.50 165.71 176.55 165.28 175.70 165.61 L 174.68 165.99 C 173.83 166.31 173.40 167.26 173.72 168.11 C 174.05 168.96 174.99 169.39 175.84 169.07 Z M 176.82 168.70 L 177.70 168.40 C 178.56 168.10 179.02 167.16 178.72 166.30 C 178.42 165.44 177.49 164.98 176.63 165.28 L 175.74 165.59 C 174.88 165.88 174.43 166.82 174.72 167.68 C 175.02 168.54 175.96 169.00 176.82 168.70 Z M 177.67 168.41 L 178.57 168.13 C 179.44 167.85 179.92 166.92 179.64 166.05 C 179.37 165.18 178.44 164.70 177.57 164.97 L 176.66 165.26 C 175.79 165.54 175.31 166.47 175.59 167.34 C 175.87 168.21 176.80 168.69 177.67 168.41 Z M 178.54 168.14 L 179.51 167.86 C 180.39 167.60 180.89 166.68 180.63 165.80 C 180.37 164.92 179.45 164.41 178.57 164.67 L 177.60 164.96 C 176.72 165.22 176.22 166.14 176.48 167.02 C 176.73 167.90 177.66 168.40 178.54 168.14 Z M 179.47 167.88 L 180.49 167.60 C 181.38 167.36 181.90 166.45 181.66 165.56 C 181.43 164.67 180.51 164.14 179.62 164.38 L 178.61 164.65 C 177.72 164.89 177.19 165.81 177.43 166.70 C 177.66 167.59 178.58 168.11 179.47 167.88 Z M 180.44 167.62 L 181.49 167.37 C 182.39 167.15 182.95 166.25 182.73 165.35 C 182.51 164.45 181.61 163.90 180.71 164.11 L 179.66 164.36 C 178.76 164.58 178.21 165.48 178.42 166.38 C 178.64 167.28 179.54 167.84 180.44 167.62 Z M 181.45 167.46 L 182.66 167.22 C 183.62 167.02 184.23 166.09 184.04 165.14 C 183.84 164.19 182.91 163.58 181.96 163.77 L 180.75 164.02 C 179.80 164.21 179.19 165.14 179.38 166.09 C 179.57 167.04 180.50 167.66 181.45 167.46 Z M 182.59 167.40 L 183.75 167.23 C 184.80 167.08 185.53 166.10 185.38 165.05 C 185.23 164.00 184.25 163.27 183.20 163.42 L 182.04 163.59 C 180.99 163.74 180.26 164.72 180.41 165.77 C 180.56 166.82 181.54 167.55 182.59 167.40 Z M 183.55 167.43 L 184.54 167.39 C 185.70 167.35 186.61 166.38 186.57 165.22 C 186.52 164.06 185.55 163.15 184.39 163.19 L 183.40 163.23 C 182.24 163.27 181.33 164.24 181.38 165.40 C 181.42 166.56 182.39 167.47 183.55 167.43 Z M 184.01 167.53 L 184.72 167.67 C 185.96 167.92 187.16 167.12 187.41 165.88 C 187.66 164.65 186.86 163.45 185.63 163.20 L 184.92 163.06 C 183.68 162.81 182.48 163.61 182.23 164.84 C 181.98 166.07 182.78 167.28 184.01 167.53 Z M 183.28 166.93 L 183.64 167.39 C 184.46 168.44 185.98 168.62 187.03 167.80 C 188.08 166.97 188.26 165.45 187.44 164.40 L 187.07 163.94 C 186.25 162.89 184.73 162.71 183.68 163.53 C 182.63 164.36 182.45 165.88 183.28 166.93 Z M 183.08 165.49 L 182.95 166.31 C 182.72 167.66 183.64 168.94 185.00 169.17 C 186.35 169.39 187.63 168.47 187.86 167.12 L 187.99 166.30 C 188.22 164.95 187.30 163.67 185.94 163.44 C 184.59 163.22 183.31 164.13 183.08 165.49 Z M 183.10 165.65 L 182.62 166.69 C 182.03 167.97 182.59 169.47 183.87 170.06 C 185.14 170.64 186.64 170.09 187.23 168.81 L 187.71 167.77 C 188.29 166.50 187.73 164.99 186.46 164.41 C 185.19 163.82 183.68 164.38 183.10 165.65 Z M 182.65 166.55 L 182.13 167.53 C 181.46 168.79 181.94 170.35 183.20 171.01 C 184.46 171.68 186.02 171.20 186.68 169.94 L 187.20 168.96 C 187.87 167.70 187.39 166.14 186.13 165.47 C 184.87 164.81 183.31 165.29 182.65 166.55 Z M 182.10 167.54 L 181.70 168.31 C 181.04 169.58 181.53 171.14 182.81 171.81 C 184.08 172.47 185.64 171.97 186.31 170.70 L 186.71 169.93 C 187.37 168.66 186.88 167.09 185.60 166.43 C 184.33 165.77 182.77 166.26 182.10 167.54 Z M 181.69 168.32 L 181.27 169.14 C 180.61 170.42 181.12 171.98 182.40 172.64 C 183.68 173.29 185.24 172.79 185.90 171.51 L 186.32 170.69 C 186.97 169.41 186.47 167.84 185.19 167.19 C 183.91 166.54 182.35 167.04 181.69 168.32 Z M 181.26 169.15 L 180.81 170.04 C 180.15 171.33 180.67 172.89 181.95 173.54 C 183.23 174.20 184.80 173.68 185.45 172.40 L 185.91 171.51 C 186.56 170.22 186.05 168.65 184.76 168.00 C 183.48 167.35 181.91 167.86 181.26 169.15 Z M 180.80 170.04 L 180.30 171.04 C 179.65 172.32 180.16 173.89 181.45 174.55 C 182.73 175.20 184.30 174.68 184.95 173.40 L 185.46 172.40 C 186.11 171.11 185.59 169.54 184.31 168.89 C 183.02 168.24 181.45 168.76 180.80 170.04 Z M 180.29 171.04 L 179.79 172.03 C 179.14 173.32 179.65 174.89 180.94 175.55 C 182.23 176.20 183.80 175.68 184.45 174.40 L 184.96 173.40 C 185.61 172.11 185.09 170.54 183.81 169.89 C 182.52 169.23 180.95 169.75 180.29 171.04 Z M 179.79 172.03 L 179.36 172.87 C 178.71 174.16 179.22 175.74 180.51 176.39 C 181.79 177.04 183.37 176.53 184.02 175.24 L 184.45 174.40 C 185.11 173.11 184.59 171.54 183.30 170.88 C 182.02 170.23 180.44 170.74 179.79 172.03 Z M 179.36 172.87 L 178.91 173.76 C 178.25 175.05 178.76 176.62 180.05 177.28 C 181.34 177.93 182.91 177.42 183.57 176.13 L 184.02 175.25 C 184.68 173.96 184.17 172.38 182.88 171.73 C 181.59 171.07 180.02 171.58 179.36 172.87 Z M 178.91 173.76 L 178.44 174.67 C 177.78 175.96 178.29 177.54 179.58 178.19 C 180.87 178.85 182.44 178.34 183.10 177.05 L 183.57 176.14 C 184.22 174.85 183.71 173.27 182.43 172.62 C 181.14 171.96 179.57 172.47 178.91 173.76 Z M 178.44 174.67 L 177.97 175.60 C 177.31 176.88 177.82 178.46 179.10 179.12 C 180.39 179.78 181.97 179.27 182.62 177.98 L 183.10 177.06 C 183.76 175.77 183.25 174.19 181.96 173.54 C 180.68 172.88 179.10 173.39 178.44 174.67 Z M 177.97 175.60 L 177.50 176.52 C 176.84 177.80 177.34 179.38 178.63 180.04 C 179.91 180.70 181.49 180.19 182.15 178.91 L 182.62 177.99 C 183.28 176.70 182.78 175.12 181.49 174.46 C 180.21 173.80 178.63 174.31 177.97 175.60 Z M 177.50 176.51 L 177.03 177.41 C 176.37 178.70 176.88 180.27 178.16 180.94 C 179.44 181.60 181.02 181.09 181.68 179.81 L 182.15 178.91 C 182.81 177.63 182.31 176.05 181.02 175.39 C 179.74 174.72 178.16 175.23 177.50 176.51 Z M 177.04 177.41 L 176.58 178.29 C 175.92 179.57 176.42 181.15 177.70 181.81 C 178.98 182.48 180.56 181.98 181.23 180.69 L 181.68 179.81 C 182.35 178.53 181.85 176.95 180.56 176.29 C 179.28 175.62 177.70 176.12 177.04 177.41 Z M 176.59 178.28 L 176.03 179.35 C 175.36 180.63 175.86 182.21 177.14 182.87 C 178.42 183.54 180.00 183.04 180.66 181.76 L 181.22 180.70 C 181.89 179.42 181.39 177.84 180.11 177.17 C 178.83 176.51 177.25 177.00 176.59 178.28 Z M 176.04 179.35 L 175.53 180.32 C 174.86 181.59 175.35 183.17 176.63 183.84 C 177.90 184.51 179.48 184.01 180.14 182.74 L 180.65 181.77 C 181.32 180.49 180.83 178.92 179.56 178.25 C 178.28 177.58 176.71 178.07 176.04 179.35 Z M 175.54 180.32 L 175.07 181.21 C 174.40 182.48 174.89 184.05 176.16 184.72 C 177.43 185.39 179.00 184.90 179.67 183.63 L 180.14 182.74 C 180.80 181.47 180.32 179.90 179.05 179.23 C 177.78 178.56 176.21 179.05 175.54 180.32 Z M 175.08 181.21 L 174.65 182.02 C 173.98 183.29 174.47 184.85 175.74 185.52 C 177.00 186.19 178.57 185.70 179.23 184.44 L 179.66 183.63 C 180.33 182.36 179.84 180.79 178.58 180.13 C 177.31 179.46 175.74 179.95 175.08 181.21 Z M 174.66 182.03 L 174.27 182.77 C 173.61 184.03 174.09 185.59 175.36 186.25 C 176.62 186.92 178.18 186.43 178.84 185.17 L 179.23 184.43 C 179.89 183.17 179.41 181.60 178.14 180.94 C 176.88 180.28 175.32 180.77 174.66 182.03 Z M 174.27 182.78 L 173.87 183.55 C 173.22 184.81 173.71 186.36 174.97 187.02 C 176.23 187.68 177.78 187.19 178.43 185.93 L 178.84 185.15 C 179.49 183.89 179.00 182.34 177.74 181.69 C 176.48 181.03 174.93 181.52 174.27 182.78 Z M 173.89 183.56 L 173.48 184.35 C 172.83 185.60 173.32 187.14 174.57 187.79 C 175.82 188.44 177.36 187.95 178.01 186.70 L 178.42 185.92 C 179.07 184.67 178.58 183.12 177.33 182.47 C 176.08 181.82 174.54 182.31 173.89 183.56 Z M 173.51 184.34 L 173.07 185.16 C 172.42 186.39 172.89 187.93 174.13 188.58 C 175.36 189.24 176.90 188.76 177.55 187.53 L 177.98 186.71 C 178.64 185.47 178.17 183.94 176.93 183.29 C 175.69 182.63 174.16 183.10 173.51 184.34 Z M 173.11 185.14 L 172.60 186.07 C 171.93 187.29 172.38 188.81 173.60 189.48 C 174.82 190.14 176.34 189.70 177.01 188.48 L 177.52 187.55 C 178.18 186.33 177.73 184.80 176.52 184.14 C 175.30 183.47 173.77 183.92 173.11 185.14 Z M 172.63 186.05 L 172.07 187.04 C 171.40 188.24 171.82 189.76 173.02 190.44 C 174.22 191.11 175.74 190.69 176.42 189.49 L 176.98 188.50 C 177.65 187.30 177.23 185.78 176.03 185.10 C 174.83 184.42 173.31 184.85 172.63 186.05 Z M 172.09 187.03 L 171.65 187.80 C 170.97 188.98 171.38 190.50 172.57 191.18 C 173.76 191.87 175.28 191.46 175.96 190.27 L 176.40 189.50 C 177.08 188.31 176.67 186.79 175.48 186.11 C 174.29 185.43 172.78 185.84 172.09 187.03 Z M 171.67 187.79 L 171.18 188.62 C 170.50 189.80 170.90 191.32 172.08 192.00 C 173.26 192.69 174.77 192.29 175.46 191.11 L 175.94 190.27 C 176.63 189.09 176.23 187.58 175.05 186.89 C 173.87 186.21 172.35 186.61 171.67 187.79 Z M 171.20 188.62 L 170.68 189.50 C 169.99 190.67 170.38 192.18 171.56 192.87 C 172.73 193.56 174.24 193.16 174.93 191.99 L 175.45 191.11 C 176.13 189.94 175.74 188.43 174.57 187.74 C 173.40 187.05 171.89 187.44 171.20 188.62 Z M 170.69 189.49 L 170.16 190.40 C 169.47 191.56 169.85 193.07 171.02 193.76 C 172.18 194.45 173.69 194.07 174.38 192.90 L 174.92 191.99 C 175.61 190.83 175.22 189.32 174.06 188.63 C 172.89 187.94 171.39 188.33 170.69 189.49 Z M 170.17 190.39 L 169.63 191.30 C 168.93 192.46 169.31 193.97 170.47 194.66 C 171.63 195.35 173.13 194.97 173.82 193.81 L 174.37 192.90 C 175.06 191.74 174.68 190.24 173.52 189.55 C 172.37 188.86 170.86 189.23 170.17 190.39 Z M 169.64 191.30 L 169.10 192.20 C 168.40 193.35 168.77 194.85 169.92 195.54 C 171.08 196.24 172.57 195.87 173.27 194.72 L 173.81 193.82 C 174.51 192.67 174.14 191.17 172.98 190.47 C 171.83 189.78 170.33 190.15 169.64 191.30 Z M 169.11 192.20 L 168.58 193.06 C 167.88 194.21 168.25 195.70 169.39 196.40 C 170.54 197.10 172.03 196.73 172.73 195.59 L 173.25 194.72 C 173.95 193.58 173.59 192.08 172.44 191.39 C 171.30 190.69 169.81 191.05 169.11 192.20 Z M 168.61 193.07 L 167.98 194.09 C 167.29 195.22 167.64 196.69 168.76 197.39 C 169.89 198.09 171.37 197.74 172.06 196.61 L 172.70 195.59 C 173.39 194.46 173.04 192.98 171.91 192.28 C 170.79 191.59 169.31 191.94 168.61 193.07 Z M 168.03 194.10 L 167.44 195.05 C 166.75 196.15 167.08 197.60 168.18 198.29 C 169.28 198.98 170.73 198.64 171.42 197.55 L 172.01 196.60 C 172.70 195.50 172.37 194.05 171.27 193.36 C 170.17 192.67 168.72 193.00 168.03 194.10 Z M 167.49 195.06 L 166.93 195.93 C 166.25 197.00 166.57 198.43 167.64 199.11 C 168.71 199.79 170.13 199.48 170.81 198.40 L 171.37 197.53 C 172.05 196.46 171.73 195.04 170.66 194.36 C 169.59 193.68 168.17 193.99 167.49 195.06 Z M 166.99 195.94 L 166.47 196.74 C 165.79 197.78 166.09 199.17 167.13 199.85 C 168.18 200.53 169.57 200.23 170.25 199.19 L 170.76 198.39 C 171.44 197.35 171.14 195.96 170.10 195.28 C 169.05 194.60 167.66 194.90 166.99 195.94 Z M 166.52 196.75 L 166.05 197.47 C 165.38 198.48 165.65 199.85 166.67 200.52 C 167.68 201.19 169.05 200.91 169.72 199.90 L 170.19 199.18 C 170.86 198.16 170.59 196.80 169.57 196.13 C 168.56 195.46 167.19 195.74 166.52 196.75 Z M 166.10 197.48 L 165.62 198.20 C 164.95 199.18 165.21 200.51 166.19 201.18 C 167.17 201.85 168.51 201.59 169.17 200.61 L 169.66 199.89 C 170.33 198.91 170.07 197.57 169.09 196.90 C 168.10 196.24 166.77 196.49 166.10 197.48 Z M 165.68 198.20 L 165.07 199.07 C 164.40 200.01 164.63 201.32 165.58 201.99 C 166.52 202.65 167.83 202.42 168.50 201.48 L 169.11 200.61 C 169.78 199.66 169.55 198.35 168.60 197.69 C 167.65 197.02 166.35 197.25 165.68 198.20 Z M 165.15 199.06 L 164.57 199.83 C 163.90 200.74 164.08 202.01 164.99 202.69 C 165.89 203.36 167.17 203.17 167.84 202.27 L 168.42 201.49 C 169.09 200.59 168.90 199.31 168.00 198.63 C 167.10 197.96 165.82 198.15 165.15 199.06 Z M 164.65 199.82 L 164.06 200.56 C 163.38 201.42 163.53 202.67 164.39 203.35 C 165.25 204.03 166.49 203.88 167.17 203.02 L 167.76 202.28 C 168.44 201.42 168.30 200.17 167.44 199.49 C 166.58 198.81 165.33 198.96 164.65 199.82 Z M 164.13 200.55 L 163.51 201.29 C 162.82 202.11 162.93 203.33 163.75 204.02 C 164.57 204.71 165.79 204.60 166.48 203.78 L 167.10 203.03 C 167.79 202.21 167.68 200.99 166.86 200.31 C 166.04 199.62 164.82 199.73 164.13 200.55 Z M 163.57 201.28 L 162.90 202.03 C 162.21 202.82 162.29 204.02 163.08 204.72 C 163.87 205.41 165.07 205.33 165.76 204.55 L 166.43 203.79 C 167.12 203.00 167.04 201.80 166.25 201.10 C 165.46 200.41 164.26 200.49 163.57 201.28 Z M 162.96 202.01 L 162.26 202.76 C 161.55 203.52 161.59 204.71 162.35 205.41 C 163.12 206.12 164.31 206.08 165.01 205.32 L 165.71 204.57 C 166.42 203.81 166.38 202.62 165.62 201.91 C 164.85 201.20 163.66 201.24 162.96 202.01 Z M 162.32 202.72 L 161.61 203.44 C 160.89 204.16 160.89 205.34 161.61 206.06 C 162.34 206.79 163.51 206.79 164.24 206.06 L 164.95 205.35 C 165.68 204.62 165.67 203.45 164.95 202.72 C 164.22 202.00 163.05 202.00 162.32 202.72 Z M 161.70 203.39 L 160.94 204.08 C 160.19 204.76 160.13 205.92 160.81 206.67 C 161.49 207.42 162.64 207.47 163.39 206.79 L 164.15 206.10 C 164.90 205.43 164.96 204.27 164.28 203.52 C 163.60 202.77 162.45 202.72 161.70 203.39 Z M 161.06 204.03 L 160.26 204.66 C 159.48 205.27 159.34 206.39 159.95 207.17 C 160.56 207.95 161.69 208.09 162.47 207.48 L 163.27 206.85 C 164.05 206.24 164.18 205.11 163.57 204.34 C 162.96 203.56 161.84 203.42 161.06 204.03 Z M 160.42 204.60 L 159.60 205.12 C 158.79 205.64 158.55 206.73 159.07 207.54 C 159.60 208.35 160.68 208.59 161.49 208.06 L 162.31 207.54 C 163.12 207.01 163.36 205.93 162.83 205.12 C 162.31 204.31 161.23 204.07 160.42 204.60 Z M 159.77 205.07 L 158.91 205.50 C 158.07 205.93 157.74 206.96 158.16 207.80 C 158.59 208.64 159.62 208.98 160.46 208.55 L 161.32 208.12 C 162.16 207.69 162.50 206.66 162.07 205.82 C 161.64 204.98 160.61 204.64 159.77 205.07 Z M 159.07 205.46 L 158.16 205.82 C 157.30 206.16 156.87 207.14 157.21 208.00 C 157.55 208.87 158.53 209.29 159.39 208.95 L 160.30 208.59 C 161.17 208.25 161.59 207.28 161.25 206.41 C 160.91 205.55 159.93 205.12 159.07 205.46 Z M 158.27 205.80 L 157.31 206.11 C 156.44 206.39 155.96 207.33 156.24 208.20 C 156.52 209.08 157.46 209.56 158.33 209.28 L 159.29 208.97 C 160.16 208.69 160.64 207.75 160.36 206.88 C 160.08 206.00 159.14 205.52 158.27 205.80 Z M 157.37 206.11 L 156.39 206.38 C 155.52 206.63 155.01 207.54 155.26 208.42 C 155.50 209.30 156.42 209.81 157.29 209.56 L 158.27 209.28 C 159.15 209.03 159.66 208.12 159.41 207.24 C 159.16 206.37 158.25 205.86 157.37 206.11 Z M 156.41 206.39 L 156.12 206.47 C 155.24 206.71 154.73 207.61 154.97 208.48 C 155.21 209.36 156.11 209.87 156.98 209.63 L 157.28 209.55 C 158.15 209.31 158.66 208.41 158.43 207.54 C 158.19 206.66 157.29 206.15 156.41 206.39 Z"
      fill="black"
      fill-rule="nonzero" /></svg>