<svg xmlns="http://www.w3.org/2000/svg" width="300" height="300" viewBox="0 0 300 300">
<path d="M 123.79 123.88 L 123.17 124.62 C 122.41 125.54 122.53 126.91 123.45 127.67 C 124.37 128.44 125.74 128.32 126.50 127.40 L 127.12 126.66 C 127.89 125.74 127.76 124.37 126.84 123.61 C 125.92 122.84 124.56 122.96 123.79 123.88 Z M 122.99 124.79 L 122.45 125.61 C 121.78 126.63 122.07 128.00 123.09 128.67 C 124.11 129.34 125.49 129.06 126.16 128.04 L 126.69 127.22 C 127.36 126.20 127.08 124.83 126.05 124.16 C 125.03 123.49 123.66 123.77 122.99 124.79 Z M 122.20 126.01 L 121.83 126.97 C 121.38 128.14 121.96 129.44 123.12 129.89 C 124.28 130.34 125.59 129.76 126.04 128.60 L 126.41 127.63 C 126.86 126.47 126.28 125.16 125.12 124.71 C 123.95 124.26 122.65 124.84 122.20 126.01 Z M 121.67 127.45 L 121.54 128.33 C 121.36 129.58 122.22 130.74 123.47 130.92 C 124.72 131.11 125.88 130.24 126.07 128.99 L 126.19 128.12 C 126.38 126.87 125.51 125.71 124.27 125.52 C 123.02 125.34 121.86 126.20 121.67 127.45 Z M 121.52 128.66 L 121.52 129.58 C 121.52 130.85 122.54 131.87 123.81 131.87 C 125.07 131.87 126.09 130.84 126.09 129.58 L 126.09 128.66 C 126.09 127.40 125.07 126.37 123.80 126.37 C 122.54 126.38 121.52 127.40 121.52 128.66 Z M 121.53 129.81 L 121.64 130.82 C 121.76 132.07 122.88 132.99 124.13 132.86 C 125.39 132.73 126.30 131.62 126.18 130.36 L 126.08 129.35 C 125.95 128.10 124.83 127.18 123.58 127.31 C 122.32 127.44 121.41 128.55 121.53 129.81 Z M 121.66 130.98 L 121.85 132.05 C 122.06 133.29 123.24 134.12 124.48 133.91 C 125.72 133.69 126.55 132.52 126.34 131.28 L 126.15 130.20 C 125.94 128.96 124.76 128.13 123.52 128.34 C 122.28 128.56 121.45 129.74 121.66 130.98 Z M 121.87 132.17 L 122.12 133.25 C 122.40 134.48 123.62 135.24 124.84 134.96 C 126.07 134.69 126.84 133.47 126.56 132.24 L 126.31 131.16 C 126.03 129.93 124.81 129.17 123.59 129.45 C 122.36 129.72 121.60 130.94 121.87 132.17 Z M 122.14 133.33 L 122.41 134.32 C 122.73 135.53 123.97 136.25 125.18 135.93 C 126.40 135.61 127.12 134.37 126.80 133.16 L 126.53 132.16 C 126.21 130.95 124.97 130.23 123.76 130.55 C 122.55 130.87 121.82 132.12 122.14 133.33 Z M 122.43 134.37 L 122.72 135.37 C 123.07 136.57 124.33 137.25 125.53 136.90 C 126.73 136.55 127.41 135.30 127.06 134.10 L 126.77 133.10 C 126.42 131.90 125.17 131.21 123.97 131.56 C 122.77 131.92 122.08 133.17 122.43 134.37 Z M 122.74 135.40 L 123.04 136.38 C 123.41 137.57 124.67 138.23 125.86 137.86 C 127.05 137.49 127.72 136.23 127.35 135.04 L 127.05 134.06 C 126.68 132.87 125.41 132.21 124.22 132.58 C 123.03 132.95 122.37 134.21 122.74 135.40 Z M 123.05 136.40 L 123.36 137.34 C 123.74 138.52 125.01 139.17 126.19 138.79 C 127.37 138.41 128.02 137.14 127.64 135.96 L 127.34 135.02 C 126.96 133.83 125.69 133.18 124.50 133.57 C 123.32 133.95 122.67 135.22 123.05 136.40 Z M 123.36 137.35 L 123.65 138.23 C 124.04 139.40 125.31 140.05 126.49 139.66 C 127.66 139.27 128.31 138.01 127.92 136.83 L 127.63 135.95 C 127.24 134.77 125.98 134.13 124.80 134.51 C 123.62 134.90 122.98 136.17 123.36 137.35 Z M 123.66 138.22 L 124.01 139.29 C 124.39 140.46 125.66 141.10 126.83 140.72 C 128.00 140.34 128.64 139.08 128.26 137.90 L 127.91 136.83 C 127.53 135.66 126.27 135.02 125.09 135.40 C 123.92 135.79 123.28 137.05 123.66 138.22 Z M 124.02 139.28 L 124.34 140.25 C 124.72 141.42 125.97 142.05 127.14 141.67 C 128.30 141.29 128.94 140.04 128.56 138.87 L 128.25 137.91 C 127.87 136.74 126.61 136.10 125.45 136.48 C 124.28 136.86 123.64 138.12 124.02 139.28 Z M 124.35 140.25 L 124.65 141.15 C 125.03 142.31 126.28 142.94 127.43 142.56 C 128.59 142.18 129.22 140.93 128.84 139.77 L 128.55 138.87 C 128.17 137.71 126.92 137.08 125.76 137.46 C 124.60 137.84 123.97 139.09 124.35 140.25 Z M 124.66 141.16 L 124.95 142.03 C 125.34 143.18 126.59 143.79 127.74 143.41 C 128.89 143.02 129.50 141.77 129.12 140.63 L 128.83 139.76 C 128.44 138.61 127.19 137.99 126.04 138.38 C 124.89 138.76 124.28 140.01 124.66 141.16 Z M 124.97 142.04 L 125.29 142.96 C 125.69 144.10 126.93 144.70 128.07 144.31 C 129.21 143.91 129.81 142.67 129.42 141.53 L 129.10 140.61 C 128.71 139.47 127.46 138.87 126.32 139.26 C 125.18 139.66 124.58 140.90 124.97 142.04 Z M 125.30 142.96 L 125.63 143.90 C 126.03 145.03 127.27 145.63 128.40 145.23 C 129.53 144.83 130.13 143.59 129.73 142.46 L 129.41 141.53 C 129.01 140.39 127.77 139.80 126.64 140.19 C 125.50 140.59 124.91 141.83 125.30 142.96 Z M 125.64 143.89 L 125.97 144.84 C 126.36 145.97 127.59 146.57 128.72 146.18 C 129.85 145.79 130.45 144.56 130.06 143.43 L 129.73 142.47 C 129.33 141.34 128.10 140.74 126.97 141.13 C 125.84 141.52 125.25 142.76 125.64 143.89 Z M 125.97 144.82 L 126.30 145.79 C 126.67 146.91 127.89 147.52 129.02 147.14 C 130.15 146.76 130.76 145.54 130.38 144.42 L 130.05 143.45 C 129.68 142.32 128.46 141.72 127.33 142.10 C 126.20 142.47 125.59 143.69 125.97 144.82 Z M 126.30 145.76 L 126.61 146.71 C 126.97 147.83 128.18 148.45 129.30 148.09 C 130.43 147.72 131.04 146.52 130.68 145.39 L 130.37 144.44 C 130.01 143.32 128.80 142.70 127.68 143.06 C 126.55 143.43 125.94 144.63 126.30 145.76 Z M 126.61 146.69 L 126.91 147.65 C 127.27 148.77 128.46 149.40 129.59 149.04 C 130.71 148.69 131.33 147.50 130.98 146.37 L 130.68 145.41 C 130.32 144.29 129.13 143.66 128.00 144.02 C 126.88 144.37 126.26 145.57 126.61 146.69 Z M 126.92 147.64 L 127.22 148.60 C 127.57 149.72 128.75 150.34 129.87 150.00 C 130.99 149.65 131.61 148.47 131.27 147.35 L 130.97 146.39 C 130.62 145.27 129.44 144.64 128.32 144.99 C 127.20 145.33 126.58 146.52 126.92 147.64 Z M 127.23 148.59 L 127.53 149.56 C 127.87 150.67 129.04 151.30 130.16 150.95 C 131.27 150.61 131.90 149.44 131.55 148.32 L 131.26 147.36 C 130.92 146.24 129.74 145.62 128.63 145.96 C 127.51 146.30 126.89 147.48 127.23 148.59 Z M 127.54 149.55 L 127.84 150.53 C 128.18 151.64 129.35 152.26 130.45 151.92 C 131.56 151.58 132.18 150.41 131.84 149.30 L 131.54 148.33 C 131.20 147.22 130.03 146.60 128.93 146.94 C 127.82 147.28 127.20 148.45 127.54 149.55 Z M 127.85 150.54 L 128.15 151.49 C 128.49 152.58 129.66 153.20 130.76 152.85 C 131.85 152.51 132.46 151.34 132.12 150.25 L 131.83 149.30 C 131.48 148.20 130.32 147.59 129.22 147.93 C 128.12 148.27 127.51 149.44 127.85 150.54 Z M 128.17 151.50 L 128.47 152.43 C 128.82 153.52 129.98 154.12 131.07 153.77 C 132.15 153.42 132.75 152.25 132.40 151.17 L 132.10 150.24 C 131.75 149.15 130.59 148.55 129.50 148.90 C 128.42 149.25 127.82 150.41 128.17 151.50 Z M 128.49 152.45 L 128.81 153.40 C 129.17 154.47 130.33 155.05 131.40 154.69 C 132.48 154.33 133.06 153.17 132.70 152.09 L 132.38 151.15 C 132.02 150.07 130.86 149.49 129.78 149.85 C 128.71 150.21 128.13 151.38 128.49 152.45 Z M 128.83 153.41 L 129.16 154.37 C 129.53 155.43 130.69 155.99 131.75 155.62 C 132.81 155.25 133.38 154.09 133.01 153.03 L 132.68 152.08 C 132.31 151.01 131.15 150.45 130.08 150.82 C 129.02 151.19 128.46 152.35 128.83 153.41 Z M 129.18 154.37 L 129.51 155.31 C 129.88 156.36 131.04 156.92 132.09 156.55 C 133.14 156.17 133.69 155.02 133.32 153.97 L 132.99 153.02 C 132.62 151.97 131.46 151.42 130.41 151.79 C 129.36 152.16 128.81 153.32 129.18 154.37 Z M 129.52 155.30 L 129.85 156.23 C 130.22 157.28 131.36 157.83 132.41 157.46 C 133.45 157.09 134.00 155.95 133.64 154.90 L 133.31 153.97 C 132.94 152.93 131.80 152.38 130.75 152.75 C 129.70 153.11 129.16 154.26 129.52 155.30 Z M 129.86 156.22 L 130.20 157.19 C 130.56 158.22 131.69 158.78 132.73 158.42 C 133.77 158.06 134.32 156.93 133.96 155.89 L 133.62 154.92 C 133.27 153.88 132.13 153.33 131.09 153.69 C 130.05 154.05 129.50 155.18 129.86 156.22 Z M 130.21 157.17 L 130.54 158.13 C 130.89 159.16 132.01 159.71 133.04 159.35 C 134.07 159.00 134.62 157.88 134.27 156.85 L 133.94 155.90 C 133.59 154.87 132.47 154.32 131.44 154.67 C 130.41 155.02 129.86 156.14 130.21 157.17 Z M 130.55 158.12 L 130.87 159.05 C 131.22 160.07 132.34 160.62 133.36 160.27 C 134.38 159.92 134.92 158.80 134.57 157.78 L 134.25 156.85 C 133.90 155.83 132.79 155.29 131.77 155.64 C 130.75 155.99 130.20 157.10 130.55 158.12 Z M 130.89 159.06 L 131.20 159.94 C 131.56 160.95 132.66 161.48 133.67 161.12 C 134.68 160.77 135.21 159.66 134.86 158.65 L 134.55 157.77 C 134.20 156.76 133.09 156.23 132.08 156.59 C 131.07 156.94 130.54 158.05 130.89 159.06 Z M 131.22 159.95 L 131.54 160.82 C 131.90 161.82 133.01 162.33 134.00 161.97 C 135.00 161.61 135.51 160.50 135.15 159.51 L 134.84 158.64 C 134.47 157.64 133.37 157.12 132.37 157.49 C 131.38 157.85 130.86 158.95 131.22 159.95 Z M 131.56 160.84 L 131.92 161.77 C 132.29 162.76 133.39 163.25 134.37 162.88 C 135.36 162.51 135.85 161.41 135.48 160.43 L 135.13 159.49 C 134.76 158.50 133.66 158.01 132.67 158.38 C 131.69 158.75 131.19 159.85 131.56 160.84 Z M 131.94 161.79 L 132.35 162.84 C 132.73 163.81 133.83 164.29 134.80 163.91 C 135.77 163.53 136.25 162.43 135.87 161.46 L 135.46 160.41 C 135.08 159.44 133.98 158.96 133.01 159.34 C 132.04 159.72 131.56 160.82 131.94 161.79 Z M 132.37 162.85 L 132.73 163.73 C 133.11 164.69 134.20 165.16 135.16 164.77 C 136.12 164.39 136.59 163.30 136.20 162.34 L 135.85 161.45 C 135.46 160.49 134.37 160.03 133.41 160.41 C 132.45 160.80 131.99 161.89 132.37 162.85 Z M 132.74 163.74 L 133.13 164.68 C 133.52 165.63 134.60 166.09 135.55 165.70 C 136.50 165.31 136.96 164.22 136.57 163.27 L 136.19 162.33 C 135.80 161.38 134.71 160.92 133.76 161.31 C 132.81 161.70 132.35 162.79 132.74 163.74 Z M 133.14 164.69 L 133.54 165.65 C 133.94 166.59 135.02 167.03 135.96 166.64 C 136.90 166.25 137.35 165.17 136.95 164.22 L 136.55 163.26 C 136.16 162.32 135.08 161.88 134.14 162.27 C 133.20 162.66 132.75 163.74 133.14 164.69 Z M 133.56 165.65 L 133.96 166.59 C 134.36 167.53 135.44 167.96 136.37 167.56 C 137.30 167.16 137.74 166.09 137.34 165.15 L 136.94 164.21 C 136.54 163.28 135.46 162.85 134.53 163.25 C 133.60 163.64 133.16 164.72 133.56 165.65 Z M 133.98 166.61 L 134.39 167.53 C 134.79 168.45 135.87 168.87 136.79 168.46 C 137.71 168.06 138.13 166.98 137.72 166.06 L 137.32 165.14 C 136.91 164.22 135.84 163.80 134.92 164.21 C 134.00 164.61 133.58 165.69 133.98 166.61 Z M 134.43 167.56 L 134.90 168.57 C 135.32 169.46 136.39 169.85 137.29 169.43 C 138.19 169.01 138.58 167.94 138.16 167.04 L 137.68 166.03 C 137.26 165.13 136.19 164.75 135.29 165.17 C 134.39 165.59 134.01 166.66 134.43 167.56 Z M 134.97 168.65 L 135.45 169.52 C 135.92 170.38 136.99 170.70 137.85 170.23 C 138.71 169.76 139.03 168.69 138.56 167.83 L 138.08 166.95 C 137.61 166.10 136.54 165.78 135.68 166.25 C 134.82 166.71 134.51 167.79 134.97 168.65 Z M 135.57 169.66 L 136.09 170.42 C 136.63 171.21 137.71 171.41 138.51 170.87 C 139.30 170.33 139.50 169.24 138.96 168.45 L 138.44 167.69 C 137.90 166.90 136.81 166.70 136.02 167.24 C 135.23 167.78 135.02 168.86 135.57 169.66 Z M 136.26 170.59 L 136.88 171.27 C 137.52 171.97 138.61 172.02 139.30 171.38 C 140.00 170.74 140.05 169.66 139.41 168.96 L 138.79 168.28 C 138.15 167.58 137.06 167.53 136.37 168.17 C 135.67 168.81 135.62 169.89 136.26 170.59 Z M 137.07 171.42 L 137.82 172.05 C 138.54 172.64 139.61 172.54 140.21 171.82 C 140.80 171.10 140.70 170.03 139.98 169.44 L 139.23 168.81 C 138.50 168.21 137.44 168.32 136.84 169.04 C 136.25 169.76 136.35 170.83 137.07 171.42 Z M 137.96 172.13 L 138.79 172.69 C 139.56 173.21 140.60 173.01 141.12 172.25 C 141.64 171.48 141.44 170.44 140.68 169.92 L 139.84 169.35 C 139.08 168.83 138.04 169.03 137.52 169.80 C 137.00 170.56 137.20 171.61 137.96 172.13 Z M 138.87 172.72 L 139.74 173.25 C 140.52 173.73 141.54 173.49 142.02 172.71 C 142.50 171.92 142.25 170.90 141.47 170.42 L 140.60 169.89 C 139.82 169.41 138.80 169.66 138.32 170.44 C 137.84 171.22 138.09 172.24 138.87 172.72 Z M 139.76 173.25 L 139.85 173.31 C 140.63 173.77 141.64 173.52 142.11 172.74 C 142.58 171.96 142.32 170.95 141.54 170.48 L 141.45 170.43 C 140.67 169.96 139.66 170.21 139.19 170.99 C 138.72 171.77 138.98 172.79 139.76 173.25 Z"
      fill="black"
      fill-rule="nonzero" /><path d="M 128.65 131.73 L 127.36 131.66 C 126.17 131.59 125.14 132.50 125.08 133.69 C 125.01 134.88 125.92 135.90 127.11 135.97 L 128.41 136.04 C 129.60 136.11 130.62 135.20 130.69 134.01 C 130.76 132.82 129.85 131.80 128.65 131.73 Z M 127.60 131.68 L 126.65 131.52 C 125.48 131.32 124.36 132.11 124.16 133.29 C 123.96 134.47 124.75 135.59 125.93 135.79 L 126.87 135.95 C 128.05 136.15 129.17 135.35 129.37 134.18 C 129.57 133.00 128.77 131.88 127.60 131.68 Z M 128.07 132.43 L 127.84 132.09 C 127.16 131.10 125.82 130.85 124.83 131.53 C 123.85 132.21 123.60 133.56 124.28 134.54 L 124.51 134.88 C 125.19 135.86 126.53 136.11 127.52 135.44 C 128.50 134.76 128.75 133.41 128.07 132.43 Z M 127.49 134.93 L 128.10 134.40 C 128.99 133.61 129.08 132.24 128.29 131.35 C 127.50 130.45 126.13 130.37 125.24 131.16 L 124.63 131.69 C 123.73 132.48 123.65 133.85 124.44 134.74 C 125.23 135.64 126.59 135.72 127.49 134.93 Z M 127.67 134.69 L 128.83 134.08 C 129.88 133.53 130.29 132.23 129.74 131.17 C 129.19 130.11 127.88 129.70 126.83 130.26 L 125.67 130.86 C 124.61 131.41 124.20 132.72 124.75 133.78 C 125.31 134.83 126.61 135.24 127.67 134.69 Z M 128.66 134.16 L 129.54 133.79 C 130.64 133.33 131.16 132.07 130.70 130.97 C 130.24 129.87 128.98 129.35 127.88 129.81 L 127.00 130.18 C 125.90 130.64 125.38 131.90 125.83 133.00 C 126.29 134.10 127.56 134.62 128.66 134.16 Z M 129.44 133.83 L 130.35 133.50 C 131.47 133.10 132.05 131.86 131.64 130.74 C 131.24 129.62 130.00 129.04 128.88 129.45 L 127.98 129.77 C 126.86 130.18 126.28 131.41 126.68 132.53 C 127.09 133.65 128.32 134.23 129.44 133.83 Z M 130.28 133.52 L 131.25 133.21 C 132.38 132.85 133.00 131.63 132.64 130.50 C 132.27 129.37 131.06 128.75 129.93 129.11 L 128.96 129.42 C 127.82 129.79 127.20 131.00 127.57 132.13 C 127.93 133.27 129.14 133.89 130.28 133.52 Z M 131.19 133.23 L 132.23 132.92 C 133.37 132.59 134.02 131.39 133.69 130.25 C 133.35 129.11 132.16 128.46 131.02 128.79 L 129.98 129.10 C 128.84 129.43 128.19 130.63 128.52 131.77 C 128.86 132.91 130.05 133.56 131.19 133.23 Z M 132.20 132.93 L 133.12 132.68 C 134.26 132.36 134.94 131.18 134.62 130.03 C 134.30 128.89 133.12 128.21 131.97 128.53 L 131.05 128.78 C 129.91 129.10 129.23 130.29 129.55 131.43 C 129.87 132.57 131.05 133.25 132.20 132.93 Z M 133.09 132.68 L 134.03 132.43 C 135.17 132.13 135.86 130.96 135.56 129.81 C 135.25 128.66 134.08 127.98 132.93 128.28 L 132.00 128.53 C 130.85 128.83 130.17 130.00 130.47 131.15 C 130.77 132.30 131.95 132.98 133.09 132.68 Z M 134.00 132.44 L 134.97 132.19 C 136.12 131.91 136.82 130.74 136.53 129.59 C 136.24 128.44 135.08 127.75 133.93 128.03 L 132.96 128.28 C 131.81 128.57 131.11 129.73 131.40 130.88 C 131.69 132.03 132.85 132.73 134.00 132.44 Z M 134.95 132.20 L 135.95 131.96 C 137.10 131.68 137.81 130.53 137.53 129.38 C 137.26 128.23 136.10 127.52 134.95 127.79 L 133.95 128.03 C 132.80 128.31 132.09 129.46 132.37 130.61 C 132.64 131.76 133.80 132.47 134.95 132.20 Z M 135.92 131.96 L 136.95 131.72 C 138.11 131.46 138.83 130.32 138.56 129.17 C 138.30 128.01 137.16 127.29 136.01 127.56 L 134.97 127.79 C 133.82 128.05 133.10 129.20 133.37 130.35 C 133.63 131.50 134.77 132.22 135.92 131.96 Z M 136.93 131.72 L 137.88 131.52 C 139.04 131.27 139.77 130.13 139.52 128.98 C 139.27 127.83 138.13 127.10 136.98 127.35 L 136.03 127.56 C 134.88 127.81 134.15 128.94 134.40 130.09 C 134.65 131.24 135.78 131.97 136.93 131.72 Z M 137.86 131.52 L 138.82 131.32 C 139.97 131.08 140.70 129.95 140.47 128.80 C 140.23 127.65 139.10 126.92 137.95 127.15 L 137.00 127.35 C 135.85 127.59 135.11 128.72 135.35 129.87 C 135.59 131.02 136.71 131.75 137.86 131.52 Z M 138.80 131.31 L 139.77 131.12 C 140.92 130.89 141.66 129.78 141.44 128.63 C 141.21 127.48 140.09 126.74 138.94 126.96 L 137.97 127.16 C 136.82 127.39 136.08 128.50 136.31 129.65 C 136.53 130.80 137.65 131.54 138.80 131.31 Z M 139.75 131.12 L 140.74 130.93 C 141.89 130.71 142.64 129.61 142.42 128.46 C 142.21 127.31 141.10 126.56 139.95 126.78 L 138.96 126.97 C 137.82 127.19 137.06 128.29 137.28 129.44 C 137.50 130.58 138.61 131.34 139.75 131.12 Z M 140.72 130.93 L 141.74 130.74 C 142.88 130.53 143.64 129.44 143.43 128.30 C 143.22 127.15 142.13 126.39 140.98 126.60 L 139.97 126.78 C 138.83 126.99 138.07 128.09 138.28 129.23 C 138.49 130.37 139.58 131.13 140.72 130.93 Z M 141.72 130.74 L 142.73 130.56 C 143.87 130.36 144.64 129.28 144.44 128.14 C 144.24 127.00 143.16 126.23 142.02 126.43 L 141.00 126.60 C 139.86 126.80 139.10 127.89 139.29 129.03 C 139.49 130.17 140.58 130.94 141.72 130.74 Z M 142.72 130.56 L 143.68 130.40 C 144.82 130.21 145.59 129.13 145.40 127.99 C 145.21 126.86 144.14 126.09 143.00 126.27 L 142.03 126.43 C 140.89 126.62 140.12 127.70 140.31 128.84 C 140.50 129.97 141.58 130.74 142.72 130.56 Z M 143.66 130.39 L 144.64 130.23 C 145.78 130.06 146.55 128.99 146.37 127.86 C 146.20 126.72 145.13 125.95 144.00 126.13 L 143.02 126.28 C 141.88 126.46 141.11 127.52 141.29 128.66 C 141.47 129.79 142.53 130.57 143.66 130.39 Z M 144.63 130.23 L 145.62 130.08 C 146.75 129.91 147.53 128.86 147.36 127.73 C 147.19 126.60 146.14 125.82 145.01 125.99 L 144.02 126.13 C 142.89 126.30 142.11 127.35 142.27 128.49 C 142.44 129.62 143.50 130.40 144.63 130.23 Z M 145.60 130.07 L 146.59 129.93 C 147.72 129.78 148.51 128.74 148.35 127.61 C 148.19 126.48 147.15 125.70 146.03 125.85 L 145.03 125.99 C 143.90 126.15 143.12 127.19 143.27 128.32 C 143.43 129.44 144.47 130.23 145.60 130.07 Z M 146.57 129.93 L 147.58 129.80 C 148.70 129.65 149.49 128.63 149.35 127.50 C 149.20 126.38 148.17 125.59 147.05 125.73 L 146.05 125.86 C 144.93 126.01 144.13 127.03 144.28 128.16 C 144.42 129.28 145.45 130.07 146.57 129.93 Z M 147.55 129.79 L 148.56 129.67 C 149.68 129.54 150.48 128.53 150.35 127.41 C 150.22 126.29 149.21 125.49 148.09 125.62 L 147.08 125.74 C 145.96 125.87 145.16 126.88 145.29 128.00 C 145.42 129.12 146.43 129.92 147.55 129.79 Z M 148.54 129.67 L 149.61 129.56 C 150.73 129.44 151.54 128.44 151.42 127.32 C 151.30 126.20 150.30 125.39 149.19 125.51 L 148.11 125.62 C 147.00 125.74 146.19 126.74 146.30 127.86 C 146.42 128.98 147.42 129.79 148.54 129.67 Z M 149.59 129.55 L 150.65 129.45 C 151.76 129.35 152.58 128.36 152.48 127.24 C 152.37 126.13 151.38 125.31 150.27 125.41 L 149.21 125.51 C 148.09 125.62 147.27 126.61 147.38 127.72 C 147.48 128.84 148.47 129.66 149.59 129.55 Z M 150.63 129.45 L 151.66 129.36 C 152.77 129.27 153.60 128.29 153.50 127.17 C 153.41 126.06 152.43 125.23 151.31 125.33 L 150.29 125.41 C 149.17 125.51 148.34 126.49 148.44 127.61 C 148.53 128.72 149.51 129.55 150.63 129.45 Z M 151.64 129.36 L 152.62 129.29 C 153.73 129.20 154.57 128.23 154.48 127.11 C 154.40 126.00 153.42 125.17 152.31 125.25 L 151.33 125.33 C 150.21 125.42 149.38 126.39 149.47 127.50 C 149.55 128.62 150.53 129.45 151.64 129.36 Z M 152.61 129.28 L 153.53 129.22 C 154.64 129.14 155.48 128.17 155.40 127.06 C 155.32 125.95 154.36 125.11 153.24 125.19 L 152.32 125.26 C 151.21 125.34 150.37 126.30 150.45 127.41 C 150.53 128.52 151.50 129.36 152.61 129.28 Z M 153.52 129.22 L 154.51 129.15 C 155.62 129.08 156.46 128.12 156.39 127.01 C 156.31 125.90 155.36 125.06 154.25 125.13 L 153.26 125.19 C 152.15 125.27 151.30 126.22 151.38 127.34 C 151.45 128.45 152.41 129.29 153.52 129.22 Z M 154.49 129.15 L 155.59 129.09 C 156.70 129.02 157.55 128.07 157.49 126.96 C 157.42 125.85 156.47 125.01 155.36 125.07 L 154.26 125.13 C 153.15 125.20 152.30 126.15 152.37 127.26 C 152.43 128.37 153.38 129.21 154.49 129.15 Z M 155.57 129.08 L 156.55 129.04 C 157.66 128.99 158.51 128.04 158.46 126.94 C 158.41 125.83 157.47 124.97 156.36 125.03 L 155.38 125.07 C 154.28 125.12 153.42 126.06 153.47 127.17 C 153.52 128.28 154.46 129.14 155.57 129.08 Z M 156.53 129.04 L 157.42 129.00 C 158.53 128.96 159.40 128.04 159.36 126.93 C 159.32 125.82 158.39 124.96 157.28 125.00 L 156.38 125.03 C 155.28 125.07 154.41 126.00 154.45 127.10 C 154.49 128.21 155.42 129.07 156.53 129.04 Z M 157.40 129.00 L 158.34 128.98 C 159.44 128.96 160.32 128.04 160.29 126.93 C 160.27 125.83 159.35 124.95 158.25 124.98 L 157.31 125.00 C 156.20 125.02 155.33 125.94 155.35 127.04 C 155.38 128.15 156.29 129.03 157.40 129.00 Z M 158.31 128.98 L 159.31 128.97 C 160.41 128.96 161.30 128.05 161.29 126.95 C 161.27 125.84 160.37 124.95 159.26 124.97 L 158.27 124.98 C 157.16 124.99 156.28 125.90 156.29 127.00 C 156.30 128.11 157.21 128.99 158.31 128.98 Z M 159.29 128.97 L 160.29 128.97 C 161.40 128.96 162.29 128.06 162.29 126.96 C 162.28 125.85 161.38 124.96 160.28 124.96 L 159.28 124.96 C 158.17 124.97 157.28 125.87 157.28 126.97 C 157.28 128.08 158.18 128.98 159.29 128.97 Z M 160.28 128.97 L 161.26 128.97 C 162.37 128.97 163.27 128.07 163.27 126.96 C 163.27 125.86 162.37 124.96 161.26 124.96 L 160.28 124.96 C 159.17 124.96 158.28 125.86 158.28 126.96 C 158.28 128.07 159.18 128.97 160.28 128.97 Z M 161.26 128.97 L 162.16 128.97 C 163.27 128.97 164.16 128.07 164.16 126.96 C 164.16 125.86 163.27 124.96 162.16 124.96 L 161.26 124.96 C 160.16 124.96 159.26 125.86 159.26 126.96 C 159.26 128.07 160.16 128.97 161.26 128.97 Z M 162.16 128.97 L 163.12 128.97 C 164.23 128.97 165.13 128.07 165.13 126.96 C 165.13 125.85 164.23 124.95 163.12 124.95 L 162.16 124.95 C 161.05 124.95 160.15 125.85 160.15 126.96 C 160.15 128.07 161.05 128.97 162.16 128.97 Z M 163.12 128.98 L 164.18 128.98 C 165.29 128.98 166.19 128.08 166.19 126.96 C 166.19 125.85 165.29 124.95 164.18 124.95 L 163.12 124.95 C 162.00 124.95 161.10 125.85 161.10 126.96 C 161.10 128.08 162.00 128.98 163.12 128.98 Z M 164.18 128.98 L 165.26 128.98 C 166.37 128.98 167.27 128.08 167.27 126.96 C 167.27 125.85 166.37 124.95 165.26 124.95 L 164.18 124.95 C 163.06 124.95 162.16 125.85 162.16 126.96 C 162.16 128.08 163.06 128.98 164.18 128.98 Z M 165.26 128.98 L 166.19 128.98 C 167.30 128.98 168.21 128.08 168.21 126.96 C 168.21 125.85 167.30 124.94 166.19 124.94 L 165.26 124.94 C 164.14 124.94 163.24 125.85 163.24 126.96 C 163.24 128.08 164.14 128.98 165.26 128.98 Z M 166.19 128.98 L 167.18 128.98 C 168.30 128.98 169.20 128.08 169.20 126.96 C 169.20 125.85 168.30 124.94 167.18 124.94 L 166.19 124.94 C 165.07 124.94 164.17 125.85 164.17 126.96 C 164.17 128.08 165.07 128.98 166.19 128.98 Z M 167.18 128.98 L 168.21 128.98 C 169.32 128.98 170.23 128.08 170.23 126.96 C 170.23 125.85 169.32 124.94 168.21 124.94 L 167.18 124.94 C 166.06 124.94 165.16 125.85 165.16 126.96 C 165.16 128.08 166.06 128.98 167.18 128.98 Z M 168.21 128.99 L 169.25 128.99 C 170.37 128.99 171.27 128.08 171.27 126.96 C 171.27 125.85 170.37 124.94 169.25 124.94 L 168.21 124.94 C 167.09 124.94 166.18 125.85 166.18 126.96 C 166.18 128.08 167.09 128.99 168.21 128.99 Z M 169.25 128.99 L 170.29 128.99 C 171.41 128.99 172.31 128.08 172.31 126.96 C 172.31 125.85 171.41 124.94 170.29 124.94 L 169.25 124.94 C 168.13 124.94 167.23 125.85 167.23 126.96 C 167.23 128.08 168.13 128.99 169.25 128.99 Z M 170.29 128.99 L 171.34 128.99 C 172.45 128.99 173.36 128.08 173.36 126.97 C 173.36 125.85 172.46 124.94 171.34 124.94 L 170.29 124.94 C 169.17 124.94 168.27 125.84 168.27 126.96 C 168.26 128.08 169.17 128.99 170.29 128.99 Z M 171.32 128.99 L 172.35 128.99 C 173.47 129.00 174.38 128.10 174.39 126.98 C 174.39 125.86 173.49 124.95 172.38 124.95 L 171.35 124.94 C 170.23 124.93 169.32 125.83 169.31 126.95 C 169.31 128.07 170.21 128.98 171.32 128.99 Z M 172.33 128.99 L 173.33 129.01 C 174.45 129.03 175.37 128.14 175.39 127.02 C 175.41 125.91 174.52 124.98 173.40 124.96 L 172.40 124.95 C 171.28 124.93 170.36 125.82 170.34 126.93 C 170.32 128.05 171.21 128.97 172.33 128.99 Z M 173.29 129.01 L 174.27 129.05 C 175.39 129.09 176.33 128.21 176.37 127.10 C 176.41 125.98 175.54 125.04 174.42 125.00 L 173.44 124.97 C 172.32 124.93 171.38 125.80 171.34 126.91 C 171.30 128.03 172.18 128.97 173.29 129.01 Z M 174.22 129.04 L 175.18 129.10 C 176.30 129.17 177.26 128.32 177.33 127.21 C 177.40 126.09 176.55 125.13 175.44 125.06 L 174.47 125.00 C 173.36 124.93 172.40 125.78 172.33 126.90 C 172.26 128.01 173.11 128.97 174.22 129.04 Z M 175.12 129.10 L 176.11 129.19 C 177.22 129.30 178.21 128.49 178.32 127.37 C 178.43 126.26 177.61 125.27 176.50 125.16 L 175.50 125.07 C 174.39 124.96 173.40 125.78 173.29 126.89 C 173.19 128.00 174.00 128.99 175.12 129.10 Z M 176.03 129.19 L 177.04 129.33 C 178.15 129.48 179.17 128.70 179.32 127.59 C 179.47 126.48 178.70 125.46 177.59 125.31 L 176.58 125.17 C 175.47 125.02 174.45 125.79 174.29 126.90 C 174.14 128.01 174.92 129.04 176.03 129.19 Z M 176.95 129.32 L 177.94 129.50 C 179.04 129.70 180.10 128.96 180.30 127.86 C 180.50 126.76 179.77 125.70 178.66 125.50 L 177.68 125.32 C 176.57 125.12 175.51 125.85 175.31 126.95 C 175.11 128.06 175.85 129.12 176.95 129.32 Z M 177.84 129.48 L 178.81 129.70 C 179.90 129.95 181.00 129.27 181.25 128.18 C 181.50 127.08 180.82 125.99 179.72 125.74 L 178.76 125.51 C 177.66 125.26 176.57 125.94 176.32 127.04 C 176.06 128.13 176.75 129.23 177.84 129.48 Z M 178.71 129.68 L 179.65 129.95 C 180.73 130.25 181.86 129.62 182.17 128.54 C 182.47 127.46 181.84 126.33 180.76 126.02 L 179.82 125.76 C 178.74 125.45 177.61 126.08 177.30 127.16 C 177.00 128.25 177.63 129.37 178.71 129.68 Z M 179.54 129.92 L 180.52 130.25 C 181.58 130.62 182.75 130.05 183.11 128.98 C 183.48 127.91 182.91 126.75 181.84 126.38 L 180.87 126.05 C 179.80 125.68 178.64 126.25 178.27 127.32 C 177.90 128.39 178.47 129.55 179.54 129.92 Z M 180.39 130.22 L 181.35 130.61 C 182.40 131.05 183.60 130.55 184.04 129.50 C 184.47 128.45 183.97 127.25 182.92 126.81 L 181.96 126.42 C 180.91 125.98 179.71 126.48 179.28 127.53 C 178.84 128.58 179.34 129.79 180.39 130.22 Z M 181.22 130.57 L 182.12 131.01 C 183.14 131.52 184.38 131.10 184.89 130.08 C 185.40 129.06 184.98 127.81 183.96 127.31 L 183.05 126.86 C 182.03 126.35 180.79 126.77 180.28 127.80 C 179.78 128.82 180.19 130.06 181.22 130.57 Z M 181.97 130.95 L 182.80 131.44 C 183.79 132.03 185.07 131.71 185.66 130.72 C 186.24 129.74 185.92 128.46 184.94 127.87 L 184.10 127.37 C 183.12 126.78 181.84 127.11 181.25 128.09 C 180.66 129.08 180.98 130.36 181.97 130.95 Z M 182.63 131.35 L 183.42 131.92 C 184.35 132.61 185.66 132.41 186.35 131.47 C 187.03 130.54 186.83 129.23 185.90 128.55 L 185.11 127.97 C 184.17 127.28 182.86 127.49 182.18 128.42 C 181.50 129.35 181.70 130.66 182.63 131.35 Z M 183.22 131.78 L 183.99 132.50 C 184.84 133.29 186.18 133.25 186.97 132.40 C 187.77 131.54 187.72 130.21 186.87 129.41 L 186.10 128.69 C 185.25 127.90 183.91 127.94 183.12 128.80 C 182.32 129.65 182.37 130.98 183.22 131.78 Z M 183.78 132.30 L 184.41 133.07 C 185.16 133.98 186.50 134.12 187.41 133.38 C 188.32 132.63 188.45 131.29 187.71 130.38 L 187.08 129.61 C 186.34 128.70 184.99 128.56 184.08 129.31 C 183.17 130.05 183.04 131.39 183.78 132.30 Z M 184.22 132.83 L 184.71 133.64 C 185.31 134.66 186.63 134.99 187.65 134.38 C 188.67 133.77 189.00 132.46 188.39 131.44 L 187.90 130.63 C 187.29 129.61 185.98 129.28 184.96 129.89 C 183.94 130.50 183.61 131.81 184.22 132.83 Z M 184.54 133.35 L 184.89 134.23 C 185.33 135.34 186.60 135.88 187.71 135.44 C 188.82 135.00 189.36 133.73 188.91 132.62 L 188.56 131.74 C 188.12 130.63 186.85 130.09 185.74 130.53 C 184.63 130.97 184.09 132.24 184.54 133.35 Z M 184.77 133.92 L 184.98 134.87 C 185.26 136.05 186.43 136.78 187.61 136.51 C 188.79 136.24 189.53 135.07 189.26 133.89 L 189.04 132.94 C 188.77 131.76 187.59 131.02 186.41 131.29 C 185.23 131.56 184.50 132.74 184.77 133.92 Z M 184.92 134.62 L 185.02 135.61 C 185.15 136.83 186.25 137.71 187.47 137.58 C 188.68 137.45 189.56 136.35 189.43 135.13 L 189.33 134.14 C 189.19 132.92 188.10 132.04 186.88 132.17 C 185.66 132.30 184.78 133.40 184.92 134.62 Z M 184.99 135.45 L 185.02 136.47 C 185.07 137.70 186.11 138.67 187.34 138.63 C 188.58 138.59 189.55 137.55 189.51 136.31 L 189.47 135.29 C 189.43 134.06 188.39 133.09 187.15 133.13 C 185.91 133.17 184.94 134.21 184.99 135.45 Z M 185.00 136.36 L 184.99 137.31 C 184.98 138.56 185.98 139.58 187.23 139.60 C 188.48 139.61 189.50 138.61 189.52 137.36 L 189.53 136.41 C 189.54 135.16 188.54 134.14 187.29 134.12 C 186.04 134.11 185.01 135.11 185.00 136.36 Z M 184.98 137.17 L 184.91 138.16 C 184.82 139.41 185.77 140.50 187.02 140.59 C 188.28 140.68 189.37 139.74 189.46 138.48 L 189.53 137.50 C 189.62 136.24 188.67 135.15 187.42 135.06 C 186.16 134.97 185.07 135.92 184.98 137.17 Z M 184.91 137.98 L 184.76 138.99 C 184.57 140.25 185.43 141.42 186.68 141.61 C 187.94 141.80 189.11 140.94 189.30 139.68 L 189.45 138.67 C 189.64 137.41 188.78 136.24 187.53 136.05 C 186.28 135.86 185.10 136.72 184.91 137.98 Z M 184.79 138.78 L 184.53 139.79 C 184.22 141.03 184.97 142.28 186.21 142.59 C 187.45 142.90 188.70 142.15 189.01 140.91 L 189.27 139.90 C 189.58 138.67 188.83 137.41 187.59 137.10 C 186.35 136.79 185.10 137.54 184.79 138.78 Z M 184.58 139.59 L 184.26 140.53 C 183.84 141.74 184.47 143.06 185.68 143.48 C 186.89 143.90 188.22 143.26 188.64 142.05 L 188.97 141.11 C 189.39 139.90 188.75 138.58 187.54 138.16 C 186.33 137.74 185.00 138.38 184.58 139.59 Z M 184.30 140.40 L 183.91 141.33 C 183.42 142.52 183.98 143.88 185.16 144.37 C 186.35 144.87 187.71 144.31 188.20 143.12 L 188.59 142.18 C 189.09 141.00 188.53 139.64 187.34 139.14 C 186.16 138.65 184.79 139.21 184.30 140.40 Z M 183.94 141.25 L 183.52 142.17 C 182.98 143.34 183.49 144.73 184.66 145.27 C 185.83 145.81 187.21 145.29 187.75 144.12 L 188.18 143.20 C 188.71 142.03 188.20 140.65 187.03 140.11 C 185.86 139.57 184.48 140.08 183.94 141.25 Z M 183.53 142.14 L 183.10 143.03 C 182.54 144.19 183.03 145.59 184.19 146.15 C 185.36 146.71 186.76 146.21 187.31 145.05 L 187.74 144.16 C 188.30 143.00 187.81 141.60 186.65 141.04 C 185.48 140.48 184.08 140.97 183.53 142.14 Z M 183.09 143.03 L 182.67 143.92 C 182.11 145.08 182.61 146.48 183.78 147.04 C 184.94 147.60 186.34 147.10 186.90 145.93 L 187.32 145.05 C 187.88 143.88 187.38 142.48 186.21 141.93 C 185.05 141.37 183.65 141.86 183.09 143.03 Z M 182.66 143.93 L 182.25 144.80 C 181.70 145.97 182.21 147.37 183.38 147.92 C 184.55 148.47 185.95 147.96 186.50 146.79 L 186.91 145.92 C 187.46 144.75 186.95 143.35 185.78 142.80 C 184.61 142.25 183.21 142.76 182.66 143.93 Z M 182.25 144.81 L 181.84 145.70 C 181.29 146.87 181.80 148.26 182.98 148.81 C 184.15 149.35 185.55 148.84 186.09 147.67 L 186.50 146.78 C 187.05 145.61 186.54 144.21 185.36 143.67 C 184.19 143.12 182.79 143.64 182.25 144.81 Z M 181.84 145.70 L 181.40 146.63 C 180.86 147.81 181.37 149.20 182.55 149.75 C 183.72 150.29 185.12 149.78 185.66 148.60 L 186.09 147.67 C 186.64 146.49 186.13 145.10 184.95 144.55 C 183.77 144.01 182.38 144.52 181.84 145.70 Z M 181.40 146.63 L 180.98 147.55 C 180.43 148.73 180.94 150.12 182.12 150.67 C 183.29 151.21 184.69 150.70 185.23 149.53 L 185.66 148.61 C 186.21 147.43 185.70 146.04 184.52 145.49 C 183.34 144.95 181.95 145.46 181.40 146.63 Z M 180.98 147.55 L 180.56 148.45 C 180.01 149.63 180.51 151.02 181.69 151.57 C 182.86 152.12 184.26 151.61 184.81 150.44 L 185.23 149.53 C 185.78 148.36 185.27 146.96 184.10 146.41 C 182.92 145.86 181.53 146.37 180.98 147.55 Z M 180.56 148.45 L 180.12 149.38 C 179.57 150.56 180.08 151.95 181.25 152.50 C 182.42 153.05 183.82 152.54 184.37 151.37 L 184.81 150.44 C 185.36 149.26 184.85 147.87 183.68 147.32 C 182.50 146.77 181.11 147.28 180.56 148.45 Z M 180.12 149.38 L 179.68 150.31 C 179.14 151.49 179.64 152.88 180.82 153.43 C 181.99 153.98 183.39 153.47 183.93 152.30 L 184.37 151.37 C 184.92 150.20 184.41 148.80 183.24 148.25 C 182.07 147.70 180.67 148.21 180.12 149.38 Z M 179.68 150.31 L 179.26 151.22 C 178.71 152.39 179.22 153.79 180.40 154.34 C 181.57 154.88 182.97 154.38 183.51 153.20 L 183.94 152.30 C 184.48 151.13 183.98 149.73 182.80 149.18 C 181.63 148.63 180.23 149.14 179.68 150.31 Z M 179.26 151.22 L 178.83 152.16 C 178.28 153.34 178.79 154.73 179.96 155.28 C 181.14 155.82 182.53 155.31 183.08 154.14 L 183.51 153.20 C 184.06 152.02 183.55 150.63 182.38 150.08 C 181.20 149.54 179.81 150.05 179.26 151.22 Z M 178.83 152.17 L 178.39 153.13 C 177.84 154.30 178.36 155.69 179.53 156.23 C 180.70 156.77 182.09 156.26 182.63 155.09 L 183.07 154.13 C 183.62 152.96 183.10 151.57 181.93 151.03 C 180.76 150.49 179.37 151.00 178.83 152.17 Z M 178.39 153.13 L 177.98 154.03 C 177.44 155.20 177.95 156.58 179.12 157.12 C 180.29 157.66 181.68 157.15 182.21 155.98 L 182.63 155.09 C 183.16 153.92 182.65 152.53 181.48 151.99 C 180.31 151.45 178.93 151.97 178.39 153.13 Z M 177.99 154.03 L 177.59 154.88 C 177.06 156.05 177.56 157.43 178.73 157.97 C 179.89 158.50 181.27 158.00 181.81 156.83 L 182.21 155.98 C 182.75 154.81 182.24 153.43 181.07 152.89 C 179.91 152.35 178.53 152.86 177.99 154.03 Z M 177.60 154.88 L 177.21 155.73 C 176.67 156.89 177.17 158.27 178.33 158.81 C 179.48 159.35 180.86 158.85 181.40 157.69 L 181.80 156.83 C 182.34 155.68 181.84 154.30 180.68 153.76 C 179.52 153.22 178.14 153.72 177.60 154.88 Z M 177.22 155.73 L 176.80 156.61 C 176.26 157.77 176.76 159.14 177.91 159.68 C 179.06 160.22 180.44 159.72 180.98 158.57 L 181.39 157.69 C 181.93 156.54 181.44 155.17 180.28 154.62 C 179.13 154.08 177.76 154.58 177.22 155.73 Z M 176.81 156.62 L 176.39 157.52 C 175.86 158.67 176.35 160.04 177.50 160.57 C 178.65 161.11 180.02 160.61 180.55 159.46 L 180.97 158.56 C 181.50 157.41 181.01 156.05 179.86 155.51 C 178.71 154.98 177.35 155.48 176.81 156.62 Z M 176.40 157.55 L 175.97 158.47 C 175.45 159.62 175.95 160.97 177.10 161.50 C 178.25 162.02 179.60 161.52 180.12 160.37 L 180.55 159.44 C 181.07 158.29 180.57 156.94 179.42 156.42 C 178.27 155.89 176.92 156.40 176.40 157.55 Z M 175.97 158.50 L 175.56 159.42 C 175.06 160.57 175.58 161.91 176.72 162.42 C 177.87 162.92 179.21 162.41 179.72 161.26 L 180.12 160.34 C 180.63 159.19 180.11 157.85 178.97 157.35 C 177.82 156.84 176.48 157.36 175.97 158.50 Z M 175.57 159.45 L 175.19 160.34 C 174.70 161.49 175.23 162.81 176.37 163.30 C 177.51 163.79 178.84 163.26 179.33 162.12 L 179.71 161.23 C 180.20 160.09 179.67 158.76 178.53 158.27 C 177.38 157.78 176.06 158.31 175.57 159.45 Z M 175.20 160.36 L 174.81 161.27 C 174.33 162.41 174.86 163.73 176.00 164.21 C 177.14 164.69 178.46 164.16 178.94 163.02 L 179.32 162.10 C 179.80 160.96 179.27 159.65 178.13 159.17 C 176.99 158.69 175.68 159.22 175.20 160.36 Z M 174.82 161.28 L 174.43 162.22 C 173.95 163.35 174.48 164.66 175.62 165.13 C 176.75 165.61 178.05 165.08 178.53 163.95 L 178.92 163.01 C 179.40 161.88 178.87 160.57 177.74 160.10 C 176.60 159.62 175.30 160.15 174.82 161.28 Z M 174.45 162.22 L 174.04 163.18 C 173.56 164.30 174.09 165.60 175.21 166.07 C 176.33 166.55 177.63 166.03 178.11 164.90 L 178.51 163.95 C 178.99 162.82 178.46 161.53 177.34 161.05 C 176.22 160.57 174.92 161.10 174.45 162.22 Z M 174.07 163.17 L 173.66 164.11 C 173.18 165.22 173.69 166.50 174.79 166.99 C 175.90 167.47 177.19 166.96 177.67 165.85 L 178.08 164.91 C 178.56 163.80 178.05 162.51 176.94 162.03 C 175.83 161.55 174.55 162.06 174.07 163.17 Z M 173.70 164.09 L 173.28 165.03 C 172.79 166.11 173.27 167.39 174.36 167.88 C 175.44 168.37 176.72 167.89 177.21 166.80 L 177.63 165.87 C 178.12 164.78 177.64 163.50 176.55 163.01 C 175.47 162.52 174.19 163.01 173.70 164.09 Z M 173.32 165.00 L 172.89 165.91 C 172.38 166.97 172.83 168.24 173.89 168.75 C 174.95 169.25 176.22 168.80 176.73 167.74 L 177.16 166.83 C 177.67 165.77 177.22 164.50 176.16 163.99 C 175.10 163.49 173.83 163.94 173.32 165.00 Z M 172.94 165.86 L 172.49 166.73 C 171.96 167.76 172.37 169.03 173.40 169.56 C 174.42 170.09 175.69 169.69 176.22 168.66 L 176.67 167.79 C 177.20 166.76 176.80 165.49 175.77 164.96 C 174.74 164.43 173.48 164.83 172.94 165.86 Z M 172.57 166.67 L 172.06 167.55 C 171.49 168.54 171.83 169.80 172.82 170.37 C 173.81 170.94 175.07 170.60 175.64 169.61 L 176.14 168.73 C 176.71 167.74 176.37 166.48 175.39 165.91 C 174.40 165.34 173.14 165.68 172.57 166.67 Z M 172.19 167.44 L 171.57 168.35 C 170.94 169.27 171.17 170.52 172.08 171.15 C 172.99 171.78 174.25 171.55 174.87 170.63 L 175.50 169.72 C 176.13 168.81 175.90 167.56 174.99 166.93 C 174.07 166.30 172.82 166.53 172.19 167.44 Z M 171.80 168.16 L 171.13 168.88 C 170.39 169.67 170.44 170.90 171.22 171.63 C 172.00 172.36 173.23 172.32 173.97 171.54 L 174.64 170.82 C 175.37 170.04 175.33 168.81 174.55 168.07 C 173.77 167.34 172.54 167.38 171.80 168.16 Z M 171.53 168.63 L 170.79 169.11 C 169.92 169.67 169.67 170.83 170.23 171.71 C 170.79 172.58 171.96 172.83 172.83 172.27 L 173.57 171.79 C 174.44 171.23 174.69 170.07 174.13 169.19 C 173.56 168.32 172.40 168.07 171.53 168.63 Z M 171.42 168.91 L 170.55 169.10 C 169.57 169.32 168.95 170.29 169.17 171.27 C 169.38 172.25 170.35 172.87 171.33 172.65 L 172.20 172.46 C 173.18 172.25 173.80 171.28 173.58 170.30 C 173.37 169.32 172.40 168.70 171.42 168.91 Z M 171.10 169.13 L 170.14 169.04 C 169.17 168.95 168.32 169.67 168.23 170.63 C 168.14 171.60 168.86 172.45 169.82 172.54 L 170.78 172.63 C 171.75 172.72 172.60 172.00 172.69 171.04 C 172.78 170.07 172.07 169.21 171.10 169.13 Z M 170.40 169.15 L 169.40 168.89 C 168.49 168.65 167.56 169.20 167.33 170.11 C 167.09 171.02 167.64 171.94 168.55 172.18 L 169.56 172.44 C 170.47 172.67 171.39 172.12 171.63 171.22 C 171.86 170.31 171.31 169.38 170.40 169.15 Z M 169.47 168.95 L 168.90 168.78 C 168.02 168.50 167.10 168.99 166.82 169.86 C 166.55 170.73 167.04 171.66 167.91 171.93 L 168.48 172.11 C 169.35 172.38 170.28 171.90 170.55 171.03 C 170.82 170.15 170.34 169.23 169.47 168.95 Z"
      fill="black"
      fill-rule="nonzero" /><path d="M 139.33 147.34 L 138.26 148.09 C 137.19 148.85 136.94 150.32 137.69 151.39 C 138.44 152.46 139.92 152.71 140.99 151.96 L 142.05 151.21 C 143.12 150.46 143.38 148.98 142.63 147.91 C 141.87 146.84 140.40 146.59 139.33 147.34 Z M 138.15 148.17 L 137.26 148.88 C 136.24 149.69 136.07 151.18 136.88 152.21 C 137.70 153.23 139.19 153.40 140.21 152.59 L 141.10 151.88 C 142.12 151.07 142.29 149.58 141.48 148.55 C 140.67 147.53 139.17 147.36 138.15 148.17 Z M 136.94 149.18 L 136.41 149.79 C 135.56 150.79 135.67 152.29 136.66 153.14 C 137.66 154.00 139.16 153.88 140.02 152.89 L 140.54 152.28 C 141.39 151.29 141.28 149.79 140.29 148.93 C 139.29 148.07 137.79 148.19 136.94 149.18 Z M 135.84 151.46 L 135.86 151.94 C 135.93 153.25 137.05 154.26 138.36 154.19 C 139.67 154.12 140.68 153.00 140.61 151.69 L 140.59 151.22 C 140.52 149.91 139.40 148.90 138.09 148.97 C 136.78 149.03 135.77 150.15 135.84 151.46 Z M 137.18 153.94 L 137.82 154.26 C 139.00 154.84 140.42 154.36 141.00 153.19 C 141.59 152.02 141.11 150.60 139.94 150.01 L 139.30 149.69 C 138.12 149.11 136.70 149.58 136.12 150.76 C 135.53 151.93 136.01 153.35 137.18 153.94 Z M 138.46 154.46 L 139.53 154.65 C 140.81 154.88 142.04 154.03 142.27 152.75 C 142.50 151.47 141.65 150.24 140.37 150.01 L 139.30 149.81 C 138.02 149.58 136.79 150.43 136.56 151.71 C 136.33 152.99 137.18 154.22 138.46 154.46 Z M 139.73 154.67 L 141.00 154.78 C 142.29 154.90 143.43 153.95 143.55 152.66 C 143.67 151.37 142.72 150.22 141.43 150.11 L 140.16 149.99 C 138.87 149.87 137.73 150.82 137.61 152.12 C 137.49 153.41 138.44 154.55 139.73 154.67 Z M 141.06 154.77 L 142.03 154.83 C 143.32 154.92 144.43 153.94 144.51 152.66 C 144.59 151.37 143.62 150.26 142.33 150.18 L 141.36 150.12 C 140.08 150.03 138.97 151.01 138.89 152.29 C 138.80 153.58 139.78 154.69 141.06 154.77 Z M 142.06 154.82 L 143.00 154.86 C 144.27 154.93 145.36 153.95 145.42 152.67 C 145.49 151.39 144.51 150.31 143.23 150.24 L 142.30 150.20 C 141.02 150.13 139.93 151.11 139.87 152.39 C 139.81 153.67 140.79 154.75 142.06 154.82 Z M 143.03 154.85 L 143.99 154.88 C 145.26 154.93 146.33 153.94 146.37 152.68 C 146.42 151.41 145.43 150.34 144.17 150.30 L 143.20 150.26 C 141.93 150.21 140.87 151.20 140.82 152.47 C 140.77 153.73 141.76 154.80 143.03 154.85 Z M 144.02 154.87 L 145.06 154.89 C 146.32 154.93 147.36 153.93 147.40 152.68 C 147.43 151.42 146.44 150.37 145.18 150.34 L 144.14 150.31 C 142.88 150.28 141.84 151.27 141.80 152.53 C 141.77 153.79 142.76 154.83 144.02 154.87 Z M 145.08 154.88 L 146.19 154.89 C 147.44 154.91 148.47 153.92 148.49 152.67 C 148.51 151.42 147.52 150.40 146.27 150.38 L 145.16 150.36 C 143.91 150.34 142.88 151.33 142.86 152.58 C 142.84 153.83 143.83 154.85 145.08 154.88 Z M 146.21 154.88 L 147.14 154.89 C 148.38 154.91 149.40 153.91 149.41 152.67 C 149.43 151.43 148.43 150.41 147.19 150.40 L 146.25 150.39 C 145.01 150.37 144.00 151.37 143.98 152.61 C 143.97 153.85 144.97 154.87 146.21 154.88 Z M 147.15 154.88 L 148.14 154.89 C 149.38 154.90 150.39 153.90 150.40 152.67 C 150.41 151.43 149.41 150.42 148.17 150.41 L 147.18 150.41 C 145.95 150.40 144.94 151.39 144.93 152.63 C 144.92 153.87 145.91 154.88 147.15 154.88 Z M 148.15 154.88 L 149.17 154.89 C 150.40 154.89 151.41 153.90 151.41 152.66 C 151.42 151.43 150.42 150.43 149.19 150.42 L 148.17 150.42 C 146.93 150.41 145.93 151.41 145.93 152.64 C 145.92 153.88 146.92 154.88 148.15 154.88 Z M 149.18 154.88 L 150.21 154.88 C 151.44 154.89 152.44 153.89 152.44 152.66 C 152.44 151.43 151.45 150.44 150.22 150.43 L 149.19 150.43 C 147.96 150.43 146.96 151.42 146.96 152.65 C 146.95 153.88 147.95 154.88 149.18 154.88 Z M 150.22 154.88 L 151.24 154.88 C 152.47 154.88 153.46 153.89 153.46 152.66 C 153.46 151.44 152.47 150.44 151.25 150.44 L 150.22 150.44 C 149.00 150.44 148.00 151.43 148.00 152.66 C 148.00 153.88 148.99 154.87 150.22 154.88 Z M 151.25 154.87 L 152.25 154.87 C 153.47 154.87 154.46 153.88 154.46 152.66 C 154.46 151.44 153.47 150.45 152.25 150.45 L 151.25 150.45 C 150.03 150.45 149.04 151.44 149.04 152.66 C 149.04 153.88 150.03 154.87 151.25 154.87 Z M 152.25 154.86 L 153.34 154.86 C 154.55 154.86 155.54 153.87 155.54 152.66 C 155.54 151.44 154.55 150.46 153.34 150.46 L 152.25 150.46 C 151.03 150.46 150.05 151.44 150.05 152.66 C 150.05 153.87 151.03 154.86 152.25 154.86 Z M 153.34 154.85 L 154.40 154.85 C 155.61 154.85 156.59 153.87 156.59 152.66 C 156.59 151.45 155.61 150.47 154.40 150.47 L 153.34 150.47 C 152.13 150.47 151.15 151.45 151.15 152.66 C 151.15 153.87 152.13 154.85 153.34 154.85 Z M 154.40 154.84 L 155.41 154.84 C 156.62 154.84 157.59 153.86 157.59 152.66 C 157.59 151.46 156.62 150.48 155.41 150.48 L 154.40 150.48 C 153.20 150.48 152.23 151.46 152.23 152.66 C 152.23 153.86 153.20 154.84 154.40 154.84 Z M 155.41 154.82 L 156.38 154.82 C 157.57 154.82 158.54 153.85 158.54 152.66 C 158.54 151.46 157.57 150.49 156.38 150.49 L 155.41 150.49 C 154.22 150.49 153.25 151.46 153.25 152.66 C 153.25 153.85 154.22 154.82 155.41 154.82 Z M 156.38 154.81 L 157.30 154.81 C 158.49 154.81 159.45 153.85 159.45 152.66 C 159.45 151.47 158.49 150.51 157.30 150.51 L 156.38 150.51 C 155.19 150.51 154.22 151.47 154.22 152.66 C 154.22 153.85 155.19 154.81 156.38 154.81 Z M 157.30 154.80 L 158.26 154.80 C 159.44 154.80 160.40 153.84 160.40 152.66 C 160.40 151.48 159.44 150.52 158.26 150.52 L 157.30 150.52 C 156.12 150.52 155.16 151.48 155.16 152.66 C 155.16 153.84 156.12 154.80 157.30 154.80 Z M 158.27 154.79 L 159.30 154.79 C 160.47 154.79 161.42 153.83 161.42 152.65 C 161.42 151.48 160.47 150.53 159.29 150.53 L 158.26 150.53 C 157.08 150.53 156.13 151.49 156.13 152.66 C 156.13 153.84 157.09 154.79 158.27 154.79 Z M 159.31 154.78 L 160.31 154.77 C 161.48 154.76 162.42 153.81 162.42 152.64 C 162.41 151.47 161.45 150.53 160.28 150.53 L 159.28 150.54 C 158.11 150.55 157.17 151.50 157.17 152.67 C 157.18 153.84 158.14 154.78 159.31 154.78 Z M 160.33 154.76 L 161.31 154.74 C 162.48 154.73 163.40 153.77 163.39 152.61 C 163.37 151.44 162.41 150.51 161.25 150.53 L 160.27 150.54 C 159.10 150.56 158.17 151.52 158.19 152.68 C 158.21 153.85 159.17 154.78 160.33 154.76 Z M 161.34 154.73 L 162.30 154.71 C 163.46 154.68 164.37 153.71 164.34 152.56 C 164.31 151.40 163.35 150.49 162.19 150.52 L 161.23 150.54 C 160.07 150.57 159.16 151.54 159.19 152.69 C 159.22 153.85 160.18 154.76 161.34 154.73 Z M 162.33 154.69 L 163.36 154.65 C 164.51 154.60 165.40 153.63 165.35 152.48 C 165.30 151.33 164.33 150.44 163.18 150.49 L 162.16 150.53 C 161.01 150.58 160.12 151.55 160.16 152.70 C 160.21 153.85 161.18 154.74 162.33 154.69 Z M 163.39 154.63 L 164.40 154.58 C 165.54 154.51 166.42 153.53 166.35 152.39 C 166.29 151.25 165.31 150.38 164.17 150.44 L 163.15 150.50 C 162.01 150.57 161.14 151.54 161.20 152.69 C 161.27 153.83 162.25 154.70 163.39 154.63 Z M 164.42 154.56 L 165.42 154.49 C 166.55 154.42 167.40 153.44 167.33 152.30 C 167.25 151.17 166.27 150.31 165.14 150.39 L 164.14 150.46 C 163.01 150.54 162.16 151.52 162.23 152.65 C 162.31 153.78 163.29 154.64 164.42 154.56 Z M 165.43 154.48 L 166.40 154.41 C 167.52 154.32 168.37 153.34 168.28 152.22 C 168.20 151.09 167.22 150.25 166.09 150.33 L 165.12 150.41 C 164.00 150.49 163.16 151.47 163.24 152.60 C 163.32 153.72 164.31 154.56 165.43 154.48 Z M 166.40 154.39 L 167.40 154.31 C 168.51 154.23 169.35 153.25 169.26 152.13 C 169.17 151.01 168.20 150.18 167.08 150.27 L 166.08 150.35 C 164.97 150.43 164.13 151.41 164.22 152.53 C 164.31 153.65 165.29 154.48 166.40 154.39 Z M 167.39 154.30 L 168.39 154.23 C 169.50 154.14 170.33 153.17 170.24 152.06 C 170.15 150.95 169.18 150.12 168.07 150.20 L 167.08 150.28 C 165.97 150.37 165.14 151.34 165.23 152.45 C 165.31 153.56 166.28 154.39 167.39 154.30 Z M 168.38 154.21 L 169.37 154.14 C 170.47 154.06 171.30 153.10 171.22 151.99 C 171.14 150.89 170.18 150.06 169.07 150.14 L 168.08 150.21 C 166.98 150.29 166.15 151.26 166.23 152.36 C 166.31 153.47 167.27 154.30 168.38 154.21 Z M 169.35 154.13 L 170.35 154.07 C 171.45 153.99 172.28 153.04 172.21 151.95 C 172.14 150.85 171.19 150.01 170.09 150.09 L 169.09 150.15 C 167.99 150.22 167.16 151.17 167.23 152.27 C 167.30 153.37 168.25 154.20 169.35 154.13 Z M 170.31 154.06 L 171.55 154.00 C 172.64 153.96 173.49 153.03 173.45 151.94 C 173.40 150.84 172.47 149.99 171.38 150.04 L 170.13 150.10 C 169.04 150.14 168.19 151.07 168.24 152.16 C 168.29 153.26 169.21 154.10 170.31 154.06 Z M 171.35 153.99 L 172.42 154.05 C 173.51 154.12 174.44 153.29 174.51 152.20 C 174.57 151.11 173.74 150.18 172.65 150.12 L 171.58 150.05 C 170.49 149.99 169.56 150.82 169.50 151.91 C 169.43 152.99 170.26 153.93 171.35 153.99 Z M 171.68 153.84 L 172.28 154.14 C 173.25 154.61 174.43 154.21 174.90 153.24 C 175.38 152.27 174.97 151.09 174.00 150.62 L 173.40 150.32 C 172.43 149.85 171.25 150.25 170.78 151.22 C 170.30 152.20 170.71 153.37 171.68 153.84 Z M 171.23 152.22 L 171.19 152.73 C 171.10 153.78 171.88 154.71 172.94 154.80 C 173.99 154.89 174.92 154.10 175.01 153.05 L 175.05 152.54 C 175.14 151.48 174.36 150.56 173.30 150.47 C 172.24 150.38 171.32 151.16 171.23 152.22 Z M 171.60 151.81 L 171.11 152.50 C 170.51 153.32 170.69 154.47 171.52 155.07 C 172.34 155.67 173.50 155.48 174.09 154.66 L 174.59 153.97 C 175.19 153.14 175.00 151.99 174.18 151.39 C 173.35 150.80 172.20 150.98 171.60 151.81 Z M 171.37 152.32 L 170.53 153.14 C 169.83 153.82 169.82 154.93 170.50 155.63 C 171.18 156.33 172.30 156.34 172.99 155.66 L 173.83 154.84 C 174.53 154.16 174.54 153.04 173.86 152.34 C 173.18 151.65 172.06 151.64 171.37 152.32 Z M 170.68 153.10 L 169.68 153.94 C 168.96 154.53 168.86 155.60 169.46 156.31 C 170.05 157.03 171.12 157.13 171.84 156.53 L 172.84 155.70 C 173.56 155.10 173.65 154.03 173.06 153.32 C 172.46 152.60 171.40 152.50 170.68 153.10 Z M 169.75 153.92 L 169.01 154.49 C 168.28 155.04 168.14 156.08 168.70 156.81 C 169.25 157.53 170.29 157.67 171.01 157.12 L 171.76 156.55 C 172.48 155.99 172.62 154.96 172.07 154.23 C 171.51 153.50 170.48 153.37 169.75 153.92 Z M 169.04 154.47 L 168.25 155.04 C 167.52 155.58 167.35 156.61 167.89 157.35 C 168.42 158.08 169.45 158.25 170.19 157.71 L 170.98 157.14 C 171.72 156.60 171.88 155.57 171.34 154.83 C 170.81 154.10 169.78 153.93 169.04 154.47 Z M 168.28 155.03 L 167.46 155.60 C 166.71 156.12 166.53 157.15 167.05 157.90 C 167.57 158.64 168.60 158.82 169.34 158.30 L 170.17 157.73 C 170.91 157.20 171.09 156.18 170.57 155.43 C 170.05 154.69 169.02 154.51 168.28 155.03 Z M 167.47 155.59 L 166.63 156.17 C 165.88 156.68 165.68 157.71 166.19 158.46 C 166.71 159.21 167.73 159.40 168.48 158.89 L 169.33 158.31 C 170.08 157.80 170.27 156.78 169.76 156.03 C 169.25 155.28 168.22 155.08 167.47 155.59 Z M 166.64 156.17 L 165.77 156.75 C 165.02 157.25 164.82 158.27 165.33 159.02 C 165.83 159.78 166.85 159.98 167.60 159.47 L 168.47 158.89 C 169.22 158.39 169.42 157.37 168.91 156.62 C 168.41 155.86 167.39 155.66 166.64 156.17 Z M 165.78 156.75 L 165.18 157.14 C 164.43 157.65 164.23 158.66 164.73 159.41 C 165.23 160.17 166.25 160.37 167.00 159.87 L 167.60 159.47 C 168.35 158.97 168.55 157.95 168.05 157.20 C 167.55 156.45 166.53 156.24 165.78 156.75 Z"
      fill="black"
      fill-rule="nonzero" /><path d="M 142.99 170.68 L 142.04 171.55 C 141.20 172.33 141.15 173.64 141.92 174.47 C 142.70 175.31 144.00 175.37 144.84 174.59 L 145.79 173.72 C 146.63 172.94 146.68 171.64 145.91 170.80 C 145.13 169.96 143.83 169.91 142.99 170.68 Z M 141.86 171.53 L 141.08 172.33 C 140.23 173.21 140.25 174.61 141.12 175.46 C 142.00 176.31 143.40 176.29 144.25 175.41 L 145.02 174.61 C 145.87 173.74 145.85 172.34 144.98 171.49 C 144.11 170.64 142.71 170.66 141.86 171.53 Z M 140.72 172.56 L 140.28 173.21 C 139.55 174.29 139.84 175.75 140.91 176.47 C 141.99 177.20 143.45 176.91 144.17 175.84 L 144.61 175.19 C 145.34 174.11 145.05 172.65 143.98 171.93 C 142.90 171.20 141.44 171.49 140.72 172.56 Z M 139.83 175.07 L 139.94 175.55 C 140.24 176.87 141.55 177.70 142.88 177.40 C 144.20 177.10 145.03 175.78 144.73 174.46 L 144.62 173.98 C 144.32 172.66 143.00 171.83 141.68 172.13 C 140.36 172.43 139.53 173.75 139.83 175.07 Z M 141.69 177.42 L 142.52 177.64 C 143.85 177.99 145.22 177.20 145.57 175.86 C 145.92 174.53 145.13 173.16 143.79 172.81 L 142.97 172.59 C 141.64 172.24 140.27 173.03 139.92 174.37 C 139.57 175.70 140.36 177.07 141.69 177.42 Z M 143.13 177.73 L 144.36 177.74 C 145.74 177.76 146.88 176.65 146.89 175.26 C 146.91 173.88 145.80 172.75 144.41 172.73 L 143.18 172.72 C 141.80 172.70 140.66 173.81 140.65 175.20 C 140.63 176.58 141.74 177.72 143.13 177.73 Z M 144.50 177.75 L 145.56 177.70 C 146.94 177.63 148.01 176.45 147.95 175.07 C 147.88 173.68 146.70 172.61 145.32 172.68 L 144.26 172.73 C 142.88 172.79 141.81 173.97 141.87 175.36 C 141.94 176.74 143.12 177.81 144.50 177.75 Z M 145.61 177.69 L 146.59 177.63 C 147.98 177.53 149.02 176.33 148.93 174.94 C 148.83 173.56 147.63 172.51 146.24 172.61 L 145.26 172.68 C 143.88 172.78 142.83 173.98 142.93 175.36 C 143.03 176.75 144.23 177.79 145.61 177.69 Z M 146.63 177.62 L 147.63 177.54 C 149.01 177.42 150.04 176.20 149.92 174.82 C 149.80 173.44 148.59 172.41 147.20 172.53 L 146.20 172.61 C 144.82 172.73 143.80 173.95 143.92 175.33 C 144.03 176.72 145.25 177.74 146.63 177.62 Z M 147.66 177.53 L 148.68 177.43 C 150.06 177.30 151.07 176.07 150.94 174.69 C 150.81 173.31 149.58 172.30 148.20 172.43 L 147.18 172.53 C 145.79 172.67 144.78 173.89 144.92 175.27 C 145.05 176.66 146.28 177.67 147.66 177.53 Z M 148.70 177.43 L 149.70 177.32 C 151.08 177.18 152.08 175.95 151.94 174.57 C 151.80 173.20 150.57 172.20 149.19 172.34 L 148.18 172.44 C 146.81 172.58 145.81 173.81 145.95 175.19 C 146.09 176.57 147.32 177.57 148.70 177.43 Z M 149.71 177.31 L 150.73 177.20 C 152.09 177.05 153.09 175.83 152.94 174.46 C 152.79 173.09 151.57 172.10 150.20 172.24 L 149.18 172.35 C 147.81 172.50 146.82 173.73 146.97 175.09 C 147.11 176.46 148.34 177.45 149.71 177.31 Z M 150.73 177.19 L 151.72 177.08 C 153.08 176.93 154.07 175.71 153.92 174.35 C 153.78 172.99 152.55 172.00 151.19 172.15 L 150.20 172.26 C 148.83 172.40 147.85 173.63 148.00 174.99 C 148.14 176.35 149.37 177.33 150.73 177.19 Z M 151.72 177.07 L 152.70 176.96 C 154.05 176.82 155.03 175.60 154.89 174.25 C 154.74 172.89 153.53 171.91 152.17 172.06 L 151.19 172.16 C 149.84 172.31 148.86 173.52 149.01 174.88 C 149.15 176.23 150.37 177.21 151.72 177.07 Z M 152.69 176.94 L 153.72 176.83 C 155.06 176.69 156.03 175.49 155.89 174.15 C 155.75 172.81 154.55 171.84 153.21 171.98 L 152.18 172.08 C 150.84 172.22 149.87 173.42 150.01 174.76 C 150.15 176.10 151.35 177.08 152.69 176.94 Z M 153.71 176.80 L 154.68 176.70 C 156.01 176.57 156.97 175.39 156.84 174.06 C 156.70 172.74 155.52 171.78 154.20 171.91 L 153.23 172.01 C 151.90 172.14 150.94 173.32 151.07 174.64 C 151.21 175.96 152.38 176.93 153.71 176.80 Z M 154.67 176.67 L 155.64 176.57 C 156.94 176.45 157.89 175.29 157.77 173.98 C 157.64 172.68 156.48 171.72 155.18 171.85 L 154.21 171.94 C 152.91 172.07 151.96 173.23 152.08 174.53 C 152.21 175.84 153.37 176.79 154.67 176.67 Z M 155.63 176.54 L 156.53 176.45 C 157.81 176.33 158.75 175.19 158.63 173.90 C 158.51 172.62 157.37 171.68 156.09 171.80 L 155.19 171.89 C 153.90 172.01 152.96 173.15 153.08 174.43 C 153.20 175.72 154.34 176.66 155.63 176.54 Z M 156.53 176.41 L 157.47 176.32 C 158.74 176.20 159.66 175.07 159.53 173.81 C 159.41 172.55 158.29 171.62 157.02 171.75 L 156.08 171.84 C 154.82 171.96 153.90 173.09 154.02 174.35 C 154.14 175.61 155.27 176.54 156.53 176.41 Z M 157.49 176.28 L 158.52 176.17 C 159.76 176.04 160.65 174.92 160.52 173.68 C 160.39 172.44 159.28 171.54 158.03 171.68 L 157.01 171.79 C 155.77 171.92 154.87 173.03 155.00 174.27 C 155.13 175.51 156.25 176.41 157.49 176.28 Z M 158.54 176.13 L 159.63 176.00 C 160.85 175.85 161.72 174.75 161.57 173.53 C 161.43 172.31 160.32 171.44 159.11 171.59 L 158.01 171.72 C 156.80 171.86 155.93 172.97 156.07 174.18 C 156.21 175.40 157.32 176.27 158.54 176.13 Z M 159.64 175.96 L 160.61 175.83 C 161.80 175.68 162.65 174.59 162.49 173.39 C 162.34 172.20 161.25 171.35 160.05 171.51 L 159.09 171.63 C 157.90 171.78 157.05 172.88 157.20 174.07 C 157.36 175.27 158.45 176.11 159.64 175.96 Z M 160.61 175.79 L 161.62 175.66 C 162.79 175.50 163.62 174.43 163.46 173.26 C 163.31 172.08 162.23 171.26 161.06 171.42 L 160.05 171.55 C 158.88 171.70 158.05 172.78 158.21 173.95 C 158.36 175.12 159.44 175.95 160.61 175.79 Z M 161.61 175.62 L 162.64 175.48 C 163.79 175.33 164.60 174.28 164.44 173.13 C 164.29 171.98 163.24 171.17 162.09 171.32 L 161.06 171.46 C 159.91 171.61 159.11 172.66 159.26 173.81 C 159.41 174.96 160.46 175.77 161.61 175.62 Z M 162.62 175.44 L 163.63 175.32 C 164.76 175.17 165.55 174.14 165.41 173.01 C 165.26 171.88 164.23 171.09 163.10 171.23 L 162.10 171.36 C 160.97 171.50 160.17 172.54 160.32 173.66 C 160.46 174.79 161.50 175.59 162.62 175.44 Z M 163.60 175.27 L 164.57 175.16 C 165.67 175.03 166.46 174.02 166.33 172.92 C 166.20 171.81 165.19 171.02 164.09 171.16 L 163.13 171.27 C 162.02 171.41 161.23 172.41 161.37 173.51 C 161.50 174.62 162.50 175.41 163.60 175.27 Z M 164.54 175.10 L 165.47 175.00 C 166.55 174.89 167.33 173.92 167.21 172.84 C 167.09 171.77 166.13 170.99 165.05 171.11 L 164.12 171.21 C 163.04 171.33 162.27 172.29 162.38 173.37 C 162.50 174.45 163.47 175.22 164.54 175.10 Z M 165.46 174.94 L 166.39 174.85 C 167.43 174.74 168.19 173.81 168.08 172.77 C 167.97 171.73 167.04 170.97 166.00 171.07 L 165.07 171.17 C 164.03 171.28 163.27 172.21 163.38 173.25 C 163.48 174.29 164.41 175.05 165.46 174.94 Z M 166.38 174.78 L 167.36 174.69 C 168.37 174.58 169.10 173.68 169.00 172.68 C 168.90 171.67 168.00 170.94 166.99 171.04 L 166.01 171.14 C 165.00 171.24 164.27 172.14 164.37 173.14 C 164.47 174.15 165.37 174.89 166.38 174.78 Z M 167.36 174.62 L 168.45 174.51 C 169.42 174.41 170.13 173.54 170.03 172.56 C 169.93 171.59 169.06 170.88 168.08 170.99 L 166.99 171.10 C 166.02 171.20 165.31 172.07 165.41 173.05 C 165.52 174.02 166.39 174.72 167.36 174.62 Z M 168.46 174.46 L 169.39 174.36 C 170.33 174.26 171.02 173.40 170.91 172.46 C 170.81 171.51 169.96 170.82 169.01 170.93 L 168.08 171.03 C 167.13 171.13 166.45 171.99 166.55 172.94 C 166.66 173.88 167.51 174.57 168.46 174.46 Z M 169.39 174.34 L 170.29 174.24 C 171.23 174.13 171.90 173.28 171.79 172.35 C 171.69 171.41 170.84 170.74 169.90 170.84 L 169.00 170.95 C 168.07 171.05 167.39 171.90 167.50 172.84 C 167.61 173.78 168.45 174.45 169.39 174.34 Z M 170.29 174.23 L 171.25 174.11 C 172.18 174.01 172.85 173.16 172.74 172.23 C 172.63 171.30 171.79 170.63 170.85 170.74 L 169.90 170.86 C 168.97 170.97 168.30 171.81 168.41 172.74 C 168.52 173.67 169.36 174.34 170.29 174.23 Z M 171.25 174.10 L 172.26 173.98 C 173.18 173.87 173.84 173.03 173.73 172.11 C 173.62 171.18 172.78 170.53 171.86 170.64 L 170.85 170.76 C 169.93 170.87 169.27 171.70 169.38 172.63 C 169.49 173.55 170.33 174.21 171.25 174.10 Z M 172.26 173.97 L 173.30 173.84 C 174.22 173.73 174.87 172.90 174.76 171.98 C 174.65 171.06 173.82 170.41 172.90 170.52 L 171.86 170.65 C 170.94 170.76 170.29 171.59 170.40 172.51 C 170.51 173.43 171.34 174.08 172.26 173.97 Z M 173.30 173.83 L 174.37 173.70 C 175.28 173.59 175.93 172.76 175.82 171.85 C 175.71 170.94 174.88 170.29 173.97 170.40 L 172.90 170.53 C 171.99 170.64 171.34 171.47 171.45 172.38 C 171.56 173.30 172.39 173.94 173.30 173.83 Z M 174.37 173.69 L 175.45 173.56 C 176.36 173.45 177.00 172.63 176.89 171.72 C 176.78 170.82 175.95 170.17 175.05 170.28 L 173.97 170.41 C 173.06 170.53 172.42 171.35 172.53 172.25 C 172.64 173.16 173.46 173.80 174.37 173.69 Z M 175.45 173.55 L 175.68 173.52 C 176.58 173.41 177.23 172.59 177.12 171.69 C 177.00 170.79 176.19 170.15 175.28 170.26 L 175.05 170.29 C 174.15 170.40 173.51 171.22 173.62 172.12 C 173.73 173.02 174.55 173.66 175.45 173.55 Z"
      fill="black"
      fill-rule="nonzero" /></svg>