<svg xmlns="http://www.w3.org/2000/svg" width="300" height="300" viewBox="0 0 300 300">
<path d="M 126.91 120.40 L 126.29 121.15 C 125.47 122.13 125.60 123.58 126.58 124.40 C 127.56 125.22 129.02 125.09 129.84 124.11 L 130.46 123.37 C 131.28 122.39 131.15 120.93 130.17 120.11 C 129.19 119.29 127.73 119.42 126.91 120.40 Z M 126.33 121.16 L 125.70 121.91 C 124.88 122.87 125.00 124.30 125.96 125.11 C 126.91 125.92 128.35 125.81 129.16 124.85 L 129.80 124.10 C 130.61 123.14 130.49 121.71 129.53 120.90 C 128.58 120.09 127.14 120.20 126.33 121.16 Z M 125.75 121.91 L 125.08 122.67 C 124.27 123.60 124.36 125.01 125.29 125.82 C 126.22 126.63 127.63 126.54 128.44 125.61 L 129.11 124.85 C 129.92 123.92 129.83 122.51 128.90 121.70 C 127.97 120.89 126.56 120.98 125.75 121.91 Z M 125.14 122.66 L 124.46 123.41 C 123.64 124.30 123.71 125.69 124.60 126.51 C 125.50 127.33 126.89 127.26 127.71 126.37 L 128.38 125.62 C 129.20 124.72 129.14 123.33 128.24 122.52 C 127.34 121.70 125.95 121.77 125.14 122.66 Z M 124.51 123.39 L 123.87 124.06 C 123.05 124.93 123.08 126.30 123.95 127.13 C 124.82 127.95 126.19 127.92 127.02 127.05 L 127.65 126.38 C 128.48 125.51 128.45 124.14 127.58 123.31 C 126.71 122.49 125.34 122.52 124.51 123.39 Z M 123.92 124.05 L 123.23 124.74 C 122.40 125.58 122.41 126.94 123.25 127.78 C 124.09 128.61 125.45 128.60 126.29 127.76 L 126.97 127.07 C 127.81 126.23 127.80 124.86 126.96 124.03 C 126.11 123.19 124.75 123.20 123.92 124.05 Z M 123.28 124.72 L 122.54 125.44 C 121.70 126.26 121.68 127.60 122.50 128.45 C 123.32 129.29 124.67 129.31 125.51 128.49 L 126.25 127.78 C 127.09 126.95 127.11 125.61 126.29 124.76 C 125.47 123.92 124.12 123.90 123.28 124.72 Z M 122.58 125.42 L 121.79 126.16 C 120.94 126.96 120.90 128.30 121.70 129.15 C 122.49 130.00 123.83 130.04 124.68 129.24 L 125.47 128.50 C 126.32 127.70 126.36 126.37 125.57 125.52 C 124.77 124.67 123.43 124.63 122.58 125.42 Z M 121.83 126.15 L 121.16 126.76 C 120.30 127.54 120.24 128.86 121.02 129.72 C 121.80 130.58 123.12 130.64 123.98 129.86 L 124.65 129.25 C 125.50 128.47 125.56 127.15 124.79 126.29 C 124.01 125.44 122.68 125.38 121.83 126.15 Z M 121.18 126.76 L 120.52 127.35 C 119.66 128.12 119.58 129.43 120.35 130.29 C 121.11 131.15 122.43 131.23 123.29 130.46 L 123.96 129.86 C 124.81 129.10 124.89 127.78 124.12 126.92 C 123.36 126.07 122.04 125.99 121.18 126.76 Z M 120.53 127.35 L 119.82 127.98 C 118.96 128.73 118.88 130.04 119.64 130.90 C 120.39 131.76 121.70 131.84 122.56 131.09 L 123.27 130.46 C 124.13 129.71 124.21 128.40 123.46 127.54 C 122.70 126.68 121.39 126.60 120.53 127.35 Z M 119.84 127.98 L 119.08 128.64 C 118.22 129.39 118.13 130.69 118.88 131.55 C 119.63 132.41 120.93 132.49 121.78 131.75 L 122.54 131.08 C 123.40 130.34 123.49 129.03 122.74 128.18 C 121.99 127.32 120.69 127.23 119.84 127.98 Z M 119.09 128.65 L 118.27 129.36 C 117.42 130.10 117.33 131.39 118.07 132.25 C 118.81 133.10 120.11 133.19 120.96 132.45 L 121.77 131.74 C 122.63 131.00 122.72 129.70 121.97 128.85 C 121.23 128.00 119.94 127.91 119.09 128.65 Z M 118.28 129.37 L 117.41 130.13 C 116.56 130.87 116.47 132.15 117.21 133.00 C 117.95 133.85 119.23 133.94 120.08 133.20 L 120.95 132.44 C 121.80 131.70 121.89 130.41 121.15 129.57 C 120.41 128.72 119.13 128.63 118.28 129.37 Z M 117.41 130.14 L 116.68 130.78 C 115.84 131.51 115.75 132.79 116.49 133.63 C 117.22 134.47 118.50 134.56 119.34 133.83 L 120.07 133.19 C 120.92 132.45 121.00 131.17 120.27 130.33 C 119.53 129.49 118.25 129.40 117.41 130.14 Z M 116.69 130.79 L 115.96 131.42 C 115.12 132.15 115.04 133.42 115.77 134.26 C 116.50 135.10 117.78 135.18 118.61 134.45 L 119.34 133.82 C 120.18 133.08 120.26 131.81 119.53 130.97 C 118.80 130.14 117.52 130.05 116.69 130.79 Z M 115.97 131.43 L 115.22 132.08 C 114.39 132.81 114.30 134.08 115.03 134.91 C 115.76 135.74 117.02 135.83 117.86 135.10 L 118.61 134.44 C 119.44 133.72 119.52 132.45 118.80 131.62 C 118.07 130.78 116.80 130.70 115.97 131.43 Z M 115.23 132.09 L 114.46 132.76 C 113.63 133.48 113.55 134.74 114.27 135.57 C 114.99 136.40 116.25 136.48 117.08 135.76 L 117.85 135.09 C 118.68 134.37 118.76 133.11 118.04 132.28 C 117.32 131.45 116.06 131.36 115.23 132.09 Z M 114.47 132.76 L 113.70 133.43 C 112.87 134.15 112.78 135.40 113.50 136.23 C 114.21 137.06 115.47 137.15 116.29 136.43 L 117.07 135.76 C 117.90 135.04 117.99 133.79 117.27 132.96 C 116.55 132.13 115.30 132.04 114.47 132.76 Z M 113.71 133.44 L 112.93 134.11 C 112.10 134.82 112.01 136.07 112.72 136.89 C 113.43 137.72 114.68 137.81 115.50 137.10 L 116.28 136.43 C 117.11 135.72 117.20 134.47 116.49 133.64 C 115.78 132.82 114.53 132.73 113.71 133.44 Z M 112.94 134.11 L 112.16 134.78 C 111.34 135.48 111.24 136.72 111.94 137.54 C 112.65 138.37 113.88 138.47 114.71 137.76 L 115.49 137.10 C 116.31 136.39 116.41 135.16 115.71 134.33 C 115.00 133.51 113.76 133.41 112.94 134.11 Z M 112.18 134.78 L 111.41 135.42 C 110.58 136.12 110.48 137.35 111.17 138.18 C 111.87 139.00 113.10 139.10 113.92 138.41 L 114.69 137.76 C 115.52 137.07 115.62 135.83 114.93 135.01 C 114.23 134.19 113.00 134.08 112.18 134.78 Z M 111.43 135.43 L 110.57 136.14 C 109.75 136.82 109.63 138.04 110.32 138.87 C 111.00 139.69 112.22 139.81 113.04 139.12 L 113.90 138.41 C 114.73 137.73 114.84 136.50 114.16 135.68 C 113.47 134.86 112.25 134.74 111.43 135.43 Z M 110.59 136.14 L 109.74 136.84 C 108.92 137.51 108.80 138.72 109.47 139.54 C 110.14 140.36 111.34 140.48 112.17 139.81 L 113.02 139.12 C 113.84 138.45 113.96 137.24 113.29 136.42 C 112.62 135.60 111.42 135.47 110.59 136.14 Z M 109.76 136.84 L 108.94 137.51 C 108.12 138.16 107.99 139.36 108.65 140.18 C 109.30 141.00 110.50 141.13 111.32 140.47 L 112.14 139.81 C 112.96 139.15 113.09 137.96 112.43 137.14 C 111.78 136.32 110.58 136.19 109.76 136.84 Z M 108.96 137.51 L 108.17 138.14 C 107.35 138.78 107.22 139.97 107.86 140.78 C 108.50 141.60 109.69 141.74 110.50 141.09 L 111.29 140.46 C 112.11 139.82 112.25 138.64 111.60 137.82 C 110.96 137.01 109.78 136.87 108.96 137.51 Z M 108.19 138.15 L 107.43 138.74 C 106.62 139.37 106.48 140.54 107.11 141.35 C 107.74 142.16 108.91 142.31 109.72 141.67 L 110.48 141.08 C 111.29 140.45 111.44 139.28 110.80 138.47 C 110.17 137.66 109.00 137.51 108.19 138.15 Z M 107.45 138.75 L 106.74 139.30 C 105.93 139.92 105.78 141.08 106.40 141.88 C 107.02 142.69 108.18 142.84 108.99 142.22 L 109.70 141.67 C 110.51 141.04 110.66 139.89 110.04 139.08 C 109.42 138.27 108.26 138.12 107.45 138.75 Z M 106.76 139.31 L 106.08 139.82 C 105.28 140.43 105.13 141.58 105.74 142.38 C 106.35 143.18 107.49 143.33 108.29 142.72 L 108.97 142.21 C 109.77 141.60 109.92 140.45 109.31 139.65 C 108.70 138.85 107.56 138.70 106.76 139.31 Z M 106.10 139.83 L 105.19 140.52 C 104.40 141.12 104.24 142.25 104.84 143.04 C 105.44 143.84 106.57 144.00 107.36 143.40 L 108.27 142.71 C 109.07 142.11 109.23 140.98 108.63 140.19 C 108.03 139.39 106.90 139.23 106.10 139.83 Z M 105.21 140.53 L 104.38 141.15 C 103.59 141.74 103.43 142.85 104.01 143.64 C 104.60 144.43 105.72 144.59 106.50 144.01 L 107.34 143.39 C 108.13 142.80 108.29 141.69 107.71 140.90 C 107.12 140.11 106.00 139.94 105.21 140.53 Z M 104.40 141.16 L 103.62 141.73 C 102.84 142.31 102.67 143.41 103.25 144.19 C 103.82 144.97 104.92 145.14 105.71 144.57 L 106.48 144.00 C 107.27 143.42 107.43 142.32 106.86 141.54 C 106.28 140.75 105.18 140.59 104.40 141.16 Z M 103.64 141.75 L 102.90 142.29 C 102.12 142.86 101.95 143.94 102.52 144.72 C 103.08 145.49 104.17 145.66 104.95 145.09 L 105.69 144.55 C 106.46 143.99 106.63 142.90 106.07 142.13 C 105.50 141.35 104.42 141.18 103.64 141.75 Z M 102.91 142.30 L 102.43 142.65 C 101.66 143.21 101.49 144.29 102.05 145.05 C 102.61 145.82 103.68 145.99 104.45 145.43 L 104.93 145.08 C 105.70 144.52 105.87 143.45 105.31 142.68 C 104.75 141.92 103.68 141.75 102.91 142.30 Z"
      fill="black"
      fill-rule="nonzero" /><path d="M 125.22 140.47 L 124.44 140.95 C 123.40 141.59 123.07 142.95 123.71 143.99 C 124.35 145.03 125.71 145.35 126.75 144.71 L 127.53 144.23 C 128.57 143.59 128.90 142.23 128.26 141.19 C 127.62 140.16 126.26 139.83 125.22 140.47 Z M 124.40 140.95 L 123.59 141.47 C 122.55 142.13 122.25 143.50 122.91 144.54 C 123.57 145.58 124.94 145.88 125.98 145.22 L 126.79 144.71 C 127.82 144.05 128.13 142.67 127.47 141.64 C 126.81 140.60 125.44 140.30 124.40 140.95 Z M 123.53 141.49 L 122.67 142.07 C 121.64 142.77 121.37 144.16 122.06 145.18 C 122.75 146.21 124.15 146.48 125.17 145.79 L 126.04 145.20 C 127.06 144.51 127.33 143.12 126.64 142.09 C 125.95 141.07 124.56 140.80 123.53 141.49 Z M 122.60 142.10 L 121.75 142.72 C 120.74 143.44 120.51 144.85 121.24 145.86 C 121.97 146.87 123.38 147.10 124.39 146.37 L 125.24 145.76 C 126.25 145.03 126.47 143.62 125.75 142.61 C 125.02 141.60 123.61 141.37 122.60 142.10 Z M 121.70 142.74 L 120.92 143.34 C 119.92 144.09 119.73 145.51 120.48 146.51 C 121.24 147.50 122.66 147.70 123.65 146.94 L 124.44 146.34 C 125.43 145.59 125.62 144.17 124.87 143.18 C 124.11 142.18 122.70 141.99 121.70 142.74 Z M 120.89 143.36 L 120.08 143.99 C 119.10 144.76 118.92 146.19 119.70 147.17 C 120.47 148.15 121.89 148.33 122.87 147.55 L 123.68 146.92 C 124.66 146.15 124.84 144.73 124.07 143.74 C 123.29 142.76 121.87 142.59 120.89 143.36 Z M 120.06 144.00 L 119.26 144.65 C 118.28 145.43 118.12 146.86 118.91 147.83 C 119.69 148.81 121.12 148.97 122.09 148.18 L 122.90 147.54 C 123.87 146.76 124.03 145.33 123.25 144.35 C 122.46 143.38 121.04 143.22 120.06 144.00 Z M 119.24 144.65 L 118.47 145.28 C 117.50 146.07 117.35 147.50 118.14 148.48 C 118.93 149.45 120.36 149.60 121.34 148.80 L 122.11 148.18 C 123.08 147.39 123.23 145.96 122.44 144.98 C 121.65 144.01 120.22 143.86 119.24 144.65 Z M 118.46 145.29 L 117.67 145.94 C 116.70 146.74 116.56 148.17 117.35 149.14 C 118.15 150.10 119.58 150.25 120.54 149.45 L 121.34 148.80 C 122.31 148.00 122.45 146.57 121.66 145.60 C 120.86 144.64 119.43 144.49 118.46 145.29 Z M 117.67 145.95 L 116.90 146.58 C 115.94 147.38 115.81 148.80 116.60 149.77 C 117.39 150.73 118.82 150.86 119.78 150.07 L 120.54 149.44 C 121.51 148.65 121.64 147.22 120.85 146.26 C 120.05 145.30 118.63 145.16 117.67 145.95 Z M 116.91 146.59 L 116.16 147.22 C 115.20 148.01 115.07 149.43 115.86 150.39 C 116.66 151.34 118.08 151.47 119.03 150.68 L 119.78 150.06 C 120.74 149.26 120.87 147.85 120.08 146.89 C 119.28 145.93 117.86 145.80 116.91 146.59 Z M 116.16 147.22 L 115.39 147.86 C 114.44 148.65 114.31 150.07 115.11 151.02 C 115.90 151.97 117.31 152.10 118.26 151.31 L 119.03 150.67 C 119.98 149.88 120.11 148.47 119.32 147.51 C 118.53 146.56 117.11 146.43 116.16 147.22 Z M 115.40 147.87 L 114.68 148.47 C 113.73 149.26 113.61 150.67 114.39 151.61 C 115.18 152.56 116.59 152.69 117.54 151.90 L 118.26 151.30 C 119.20 150.51 119.33 149.10 118.54 148.16 C 117.75 147.21 116.35 147.08 115.40 147.87 Z M 114.69 148.48 L 113.95 149.10 C 113.01 149.89 112.88 151.28 113.67 152.22 C 114.45 153.16 115.85 153.29 116.79 152.50 L 117.53 151.89 C 118.47 151.10 118.60 149.70 117.81 148.76 C 117.02 147.82 115.63 147.70 114.69 148.48 Z M 113.95 149.11 L 113.18 149.76 C 112.25 150.54 112.13 151.93 112.91 152.87 C 113.70 153.80 115.09 153.92 116.02 153.14 L 116.79 152.49 C 117.72 151.71 117.84 150.32 117.06 149.38 C 116.28 148.45 114.88 148.33 113.95 149.11 Z M 113.18 149.78 L 112.39 150.45 C 111.47 151.23 111.35 152.61 112.13 153.54 C 112.92 154.46 114.30 154.58 115.22 153.79 L 116.02 153.12 C 116.94 152.34 117.06 150.96 116.27 150.03 C 115.49 149.11 114.11 148.99 113.18 149.78 Z M 112.39 150.47 L 111.60 151.14 C 110.69 151.92 110.58 153.30 111.36 154.21 C 112.14 155.13 113.52 155.23 114.43 154.45 L 115.22 153.78 C 116.14 152.99 116.24 151.62 115.46 150.70 C 114.68 149.79 113.30 149.68 112.39 150.47 Z M 111.60 151.16 L 110.97 151.71 C 110.06 152.49 109.96 153.86 110.74 154.76 C 111.53 155.67 112.89 155.76 113.80 154.98 L 114.43 154.43 C 115.33 153.65 115.43 152.29 114.65 151.38 C 113.87 150.48 112.50 150.38 111.60 151.16 Z M 110.97 151.73 L 110.31 152.31 C 109.42 153.09 109.32 154.44 110.10 155.34 C 110.88 156.23 112.24 156.32 113.13 155.54 L 113.79 154.96 C 114.69 154.18 114.78 152.83 114.00 151.93 C 113.22 151.04 111.86 150.95 110.97 151.73 Z M 110.31 152.33 L 109.61 152.95 C 108.73 153.73 108.65 155.07 109.42 155.95 C 110.20 156.83 111.55 156.92 112.43 156.14 L 113.13 155.52 C 114.01 154.74 114.09 153.40 113.32 152.51 C 112.54 151.63 111.19 151.55 110.31 152.33 Z M 109.61 152.97 L 108.86 153.64 C 107.99 154.42 107.91 155.75 108.69 156.62 C 109.46 157.49 110.80 157.57 111.67 156.79 L 112.42 156.12 C 113.30 155.34 113.37 154.01 112.60 153.14 C 111.82 152.27 110.48 152.19 109.61 152.97 Z M 108.86 153.66 L 108.03 154.40 C 107.17 155.18 107.10 156.50 107.88 157.36 C 108.65 158.22 109.98 158.29 110.84 157.52 L 111.66 156.78 C 112.52 156.00 112.59 154.68 111.82 153.82 C 111.05 152.96 109.72 152.89 108.86 153.66 Z M 108.04 154.42 L 107.13 155.25 C 106.28 156.02 106.21 157.33 106.98 158.18 C 107.75 159.03 109.07 159.10 109.92 158.33 L 110.83 157.50 C 111.68 156.73 111.75 155.42 110.98 154.57 C 110.20 153.72 108.89 153.65 108.04 154.42 Z M 107.13 155.26 L 106.47 155.87 C 105.63 156.63 105.57 157.94 106.34 158.78 C 107.10 159.62 108.41 159.68 109.25 158.92 L 109.91 158.31 C 110.75 157.55 110.81 156.24 110.05 155.40 C 109.28 154.56 107.97 154.50 107.13 155.26 Z M 106.48 155.88 L 105.79 156.51 C 104.96 157.27 104.90 158.57 105.66 159.40 C 106.42 160.24 107.72 160.29 108.56 159.53 L 109.24 158.90 C 110.08 158.14 110.14 156.84 109.37 156.01 C 108.61 155.17 107.31 155.11 106.48 155.88 Z M 105.80 156.52 L 105.08 157.18 C 104.25 157.94 104.20 159.23 104.96 160.06 C 105.72 160.88 107.01 160.94 107.83 160.18 L 108.55 159.52 C 109.38 158.76 109.43 157.47 108.67 156.64 C 107.91 155.81 106.62 155.76 105.80 156.52 Z M 105.08 157.19 L 104.34 157.88 C 103.52 158.64 103.47 159.91 104.23 160.73 C 104.99 161.55 106.27 161.60 107.09 160.85 L 107.83 160.16 C 108.65 159.41 108.70 158.13 107.94 157.31 C 107.18 156.49 105.90 156.44 105.08 157.19 Z M 104.35 157.89 L 103.59 158.59 C 102.78 159.35 102.74 160.62 103.49 161.43 C 104.25 162.24 105.52 162.29 106.33 161.53 L 107.08 160.83 C 107.90 160.08 107.94 158.81 107.19 157.99 C 106.43 157.18 105.16 157.14 104.35 157.89 Z M 103.60 158.61 L 102.84 159.32 C 102.03 160.08 101.99 161.34 102.75 162.14 C 103.50 162.94 104.76 162.99 105.56 162.23 L 106.33 161.52 C 107.13 160.77 107.17 159.50 106.42 158.70 C 105.66 157.90 104.40 157.86 103.60 158.61 Z M 102.84 159.34 L 102.08 160.06 C 101.28 160.81 101.25 162.06 102.00 162.86 C 102.75 163.65 104.00 163.69 104.80 162.94 L 105.56 162.22 C 106.36 161.47 106.39 160.21 105.64 159.42 C 104.89 158.62 103.64 158.59 102.84 159.34 Z M 102.08 160.08 L 101.33 160.80 C 100.54 161.55 100.51 162.79 101.26 163.58 C 102.01 164.36 103.26 164.39 104.04 163.64 L 104.80 162.92 C 105.58 162.17 105.61 160.93 104.86 160.14 C 104.11 159.35 102.87 159.33 102.08 160.08 Z M 101.33 160.81 L 100.59 161.53 C 99.81 162.28 99.79 163.51 100.54 164.29 C 101.29 165.07 102.52 165.09 103.30 164.34 L 104.04 163.62 C 104.82 162.87 104.84 161.64 104.09 160.86 C 103.34 160.09 102.10 160.07 101.33 160.81 Z M 100.59 161.55 L 99.84 162.29 C 99.07 163.04 99.06 164.26 99.81 165.02 C 100.55 165.79 101.78 165.80 102.54 165.05 L 103.30 164.32 C 104.06 163.57 104.07 162.34 103.33 161.58 C 102.58 160.82 101.35 160.80 100.59 161.55 Z M 99.84 162.32 L 99.09 163.06 C 98.34 163.80 98.34 165.01 99.08 165.76 C 99.82 166.51 101.03 166.52 101.78 165.77 L 102.53 165.03 C 103.28 164.28 103.29 163.07 102.54 162.33 C 101.80 161.58 100.59 161.57 99.84 162.32 Z M 99.10 163.09 L 98.37 163.82 C 97.64 164.56 97.64 165.75 98.38 166.49 C 99.12 167.22 100.31 167.22 101.04 166.48 L 101.77 165.75 C 102.51 165.01 102.50 163.81 101.77 163.08 C 101.03 162.35 99.83 162.35 99.10 163.09 Z M 98.38 163.85 L 97.67 164.57 C 96.95 165.30 96.97 166.48 97.70 167.20 C 98.43 167.92 99.61 167.91 100.33 167.17 L 101.03 166.45 C 101.75 165.72 101.74 164.54 101.01 163.82 C 100.28 163.11 99.10 163.12 98.38 163.85 Z M 97.69 164.60 L 96.99 165.31 C 96.29 166.03 96.31 167.19 97.03 167.90 C 97.76 168.60 98.92 168.59 99.62 167.86 L 100.31 167.15 C 101.02 166.42 101.00 165.26 100.28 164.56 C 99.55 163.85 98.39 163.87 97.69 164.60 Z M 97.01 165.33 L 96.33 166.04 C 95.64 166.75 95.66 167.90 96.38 168.59 C 97.10 169.28 98.24 169.26 98.93 168.54 L 99.61 167.84 C 100.30 167.12 100.28 165.98 99.56 165.28 C 98.84 164.59 97.70 164.61 97.01 165.33 Z M 96.34 166.06 L 95.68 166.76 C 95.00 167.47 95.02 168.59 95.73 169.27 C 96.44 169.95 97.57 169.93 98.25 169.22 L 98.92 168.52 C 99.59 167.81 99.57 166.68 98.86 166.00 C 98.15 165.32 97.02 165.35 96.34 166.06 Z M 95.69 166.78 L 95.03 167.47 C 94.36 168.17 94.39 169.28 95.09 169.95 C 95.79 170.62 96.90 170.59 97.57 169.89 L 98.23 169.20 C 98.90 168.49 98.87 167.38 98.17 166.72 C 97.47 166.05 96.36 166.08 95.69 166.78 Z M 95.05 167.49 L 94.39 168.19 C 93.73 168.88 93.76 169.97 94.45 170.63 C 95.15 171.28 96.24 171.25 96.89 170.56 L 97.55 169.87 C 98.21 169.18 98.18 168.09 97.49 167.43 C 96.80 166.77 95.71 166.80 95.05 167.49 Z M 94.40 168.20 L 94.35 168.25 C 93.70 168.94 93.72 170.02 94.41 170.67 C 95.10 171.32 96.18 171.29 96.83 170.61 L 96.88 170.55 C 97.54 169.87 97.51 168.78 96.82 168.13 C 96.14 167.48 95.05 167.51 94.40 168.20 Z"
      fill="black"
      fill-rule="nonzero" /><path d="M 115.94 152.52 L 115.81 153.48 C 115.65 154.65 116.47 155.73 117.65 155.89 C 118.82 156.05 119.90 155.23 120.06 154.05 L 120.19 153.10 C 120.35 151.93 119.53 150.85 118.35 150.69 C 117.18 150.53 116.10 151.35 115.94 152.52 Z M 115.81 153.48 L 115.68 154.45 C 115.52 155.63 116.35 156.71 117.52 156.86 C 118.70 157.02 119.77 156.19 119.93 155.02 L 120.06 154.05 C 120.22 152.87 119.39 151.80 118.22 151.64 C 117.04 151.48 115.97 152.31 115.81 153.48 Z M 115.68 154.47 L 115.55 155.48 C 115.40 156.65 116.23 157.73 117.40 157.88 C 118.58 158.03 119.66 157.20 119.81 156.02 L 119.93 155.01 C 120.09 153.83 119.25 152.76 118.08 152.61 C 116.90 152.46 115.83 153.29 115.68 154.47 Z M 115.54 155.49 L 115.42 156.50 C 115.28 157.68 116.12 158.75 117.30 158.89 C 118.47 159.04 119.54 158.20 119.69 157.02 L 119.81 156.01 C 119.95 154.83 119.11 153.76 117.93 153.62 C 116.76 153.47 115.69 154.31 115.54 155.49 Z M 115.42 156.52 L 115.31 157.50 C 115.17 158.68 116.02 159.74 117.20 159.88 C 118.38 160.01 119.44 159.16 119.58 157.98 L 119.69 157.00 C 119.82 155.82 118.98 154.76 117.80 154.63 C 116.62 154.49 115.55 155.34 115.42 156.52 Z M 115.31 157.51 L 115.20 158.52 C 115.07 159.70 115.92 160.76 117.10 160.88 C 118.28 161.01 119.34 160.16 119.47 158.98 L 119.58 157.97 C 119.71 156.79 118.85 155.73 117.67 155.60 C 116.49 155.48 115.43 156.33 115.31 157.51 Z M 115.20 158.53 L 115.09 159.54 C 114.97 160.72 115.83 161.78 117.01 161.90 C 118.19 162.02 119.25 161.16 119.37 159.98 L 119.47 158.96 C 119.59 157.78 118.73 156.73 117.55 156.61 C 116.37 156.49 115.32 157.35 115.20 158.53 Z M 115.09 159.55 L 115.00 160.51 C 114.89 161.70 115.75 162.74 116.93 162.86 C 118.12 162.97 119.16 162.10 119.28 160.92 L 119.37 159.96 C 119.48 158.78 118.62 157.73 117.44 157.62 C 116.25 157.51 115.21 158.37 115.09 159.55 Z M 115.00 160.53 L 114.92 161.41 C 114.82 162.59 115.69 163.63 116.87 163.73 C 118.05 163.84 119.09 162.97 119.20 161.79 L 119.27 160.91 C 119.38 159.73 118.51 158.69 117.33 158.58 C 116.15 158.48 115.11 159.35 115.00 160.53 Z M 114.93 161.41 L 114.85 162.33 C 114.75 163.51 115.62 164.55 116.79 164.65 C 117.97 164.75 119.01 163.88 119.11 162.71 L 119.19 161.79 C 119.29 160.61 118.42 159.57 117.25 159.47 C 116.07 159.37 115.03 160.24 114.93 161.41 Z M 114.86 162.33 L 114.77 163.34 C 114.67 164.51 115.53 165.55 116.71 165.65 C 117.88 165.75 118.91 164.88 119.02 163.71 L 119.10 162.70 C 119.21 161.53 118.34 160.50 117.16 160.40 C 115.99 160.29 114.96 161.16 114.86 162.33 Z M 114.77 163.34 L 114.67 164.48 C 114.57 165.65 115.43 166.68 116.60 166.78 C 117.77 166.89 118.80 166.02 118.91 164.85 L 119.01 163.71 C 119.11 162.54 118.25 161.51 117.08 161.41 C 115.91 161.30 114.88 162.17 114.77 163.34 Z M 114.68 164.47 L 114.58 165.50 C 114.48 166.67 115.34 167.70 116.50 167.81 C 117.67 167.91 118.70 167.06 118.81 165.89 L 118.90 164.86 C 119.01 163.69 118.15 162.66 116.98 162.55 C 115.82 162.45 114.79 163.31 114.68 164.47 Z M 114.59 165.50 L 114.50 166.50 C 114.39 167.66 115.25 168.69 116.41 168.80 C 117.57 168.91 118.60 168.05 118.71 166.89 L 118.80 165.89 C 118.91 164.73 118.05 163.70 116.89 163.59 C 115.73 163.48 114.70 164.34 114.59 165.50 Z M 114.51 166.50 L 114.41 167.54 C 114.30 168.70 115.15 169.72 116.31 169.83 C 117.47 169.94 118.49 169.09 118.60 167.93 L 118.70 166.89 C 118.81 165.73 117.96 164.71 116.80 164.60 C 115.64 164.49 114.61 165.34 114.51 166.50 Z M 114.41 167.54 L 114.31 168.59 C 114.20 169.74 115.05 170.77 116.21 170.88 C 117.36 170.99 118.39 170.14 118.50 168.99 L 118.60 167.93 C 118.71 166.78 117.86 165.75 116.70 165.64 C 115.55 165.53 114.52 166.38 114.41 167.54 Z M 114.32 168.59 L 114.22 169.62 C 114.11 170.77 114.96 171.79 116.11 171.90 C 117.26 172.01 118.28 171.17 118.39 170.02 L 118.49 168.99 C 118.60 167.83 117.76 166.81 116.60 166.70 C 115.45 166.59 114.43 167.44 114.32 168.59 Z M 114.23 169.62 L 114.13 170.60 C 114.02 171.74 114.87 172.76 116.01 172.87 C 117.16 172.98 118.18 172.14 118.29 170.99 L 118.39 170.02 C 118.50 168.87 117.65 167.85 116.51 167.74 C 115.36 167.63 114.34 168.47 114.23 169.62 Z M 114.14 170.60 L 114.05 171.55 C 113.94 172.69 114.78 173.71 115.92 173.82 C 117.07 173.93 118.08 173.09 118.19 171.95 L 118.28 170.99 C 118.39 169.85 117.56 168.83 116.41 168.73 C 115.27 168.62 114.25 169.45 114.14 170.60 Z M 114.08 171.55 L 113.97 172.68 C 113.86 173.81 114.69 174.81 115.82 174.92 C 116.95 175.03 117.95 174.20 118.06 173.07 L 118.17 171.95 C 118.28 170.82 117.45 169.81 116.32 169.70 C 115.19 169.59 114.18 170.42 114.08 171.55 Z M 114.00 172.68 L 113.91 173.66 C 113.80 174.77 114.61 175.75 115.72 175.86 C 116.83 175.97 117.82 175.16 117.93 174.05 L 118.02 173.07 C 118.13 171.96 117.32 170.97 116.21 170.86 C 115.10 170.76 114.11 171.57 114.00 172.68 Z M 113.95 173.66 L 113.86 174.57 C 113.75 175.66 114.54 176.63 115.63 176.74 C 116.72 176.84 117.69 176.05 117.80 174.96 L 117.89 174.05 C 118.00 172.96 117.20 171.99 116.11 171.88 C 115.02 171.77 114.05 172.57 113.95 173.66 Z M 113.89 174.57 L 113.80 175.50 C 113.69 176.57 114.47 177.52 115.54 177.63 C 116.61 177.74 117.56 176.96 117.67 175.89 L 117.76 174.96 C 117.87 173.89 117.09 172.94 116.03 172.83 C 114.96 172.72 114.00 173.50 113.89 174.57 Z M 113.83 175.50 L 113.73 176.41 C 113.62 177.46 114.39 178.41 115.44 178.52 C 116.49 178.62 117.44 177.86 117.55 176.81 L 117.64 175.89 C 117.75 174.84 116.99 173.90 115.93 173.79 C 114.88 173.68 113.94 174.45 113.83 175.50 Z M 113.75 176.41 L 113.65 177.36 C 113.54 178.40 114.30 179.33 115.34 179.44 C 116.39 179.55 117.32 178.79 117.43 177.75 L 117.53 176.81 C 117.64 175.76 116.88 174.83 115.84 174.72 C 114.79 174.61 113.86 175.37 113.75 176.41 Z M 113.67 177.36 L 113.56 178.36 C 113.46 179.40 114.21 180.32 115.25 180.43 C 116.28 180.54 117.21 179.78 117.31 178.75 L 117.42 177.75 C 117.52 176.71 116.77 175.79 115.73 175.68 C 114.70 175.57 113.77 176.33 113.67 177.36 Z M 113.58 178.37 L 113.48 179.41 C 113.37 180.43 114.13 181.35 115.15 181.45 C 116.18 181.55 117.10 180.80 117.20 179.77 L 117.30 178.74 C 117.40 177.71 116.65 176.79 115.62 176.69 C 114.59 176.59 113.68 177.34 113.58 178.37 Z M 113.49 179.42 L 113.39 180.47 C 113.30 181.49 114.05 182.39 115.07 182.49 C 116.09 182.58 116.99 181.83 117.09 180.81 L 117.19 179.76 C 117.28 178.74 116.53 177.84 115.51 177.74 C 114.49 177.65 113.58 178.40 113.49 179.42 Z M 113.41 180.48 L 113.32 181.54 C 113.23 182.55 113.98 183.44 114.99 183.52 C 116.01 183.61 116.90 182.86 116.98 181.85 L 117.07 180.80 C 117.16 179.78 116.41 178.89 115.39 178.81 C 114.38 178.72 113.49 179.47 113.41 180.48 Z M 113.34 181.55 L 113.26 182.59 C 113.18 183.59 113.93 184.47 114.94 184.54 C 115.94 184.62 116.81 183.87 116.88 182.87 L 116.96 181.83 C 117.04 180.83 116.29 179.95 115.29 179.88 C 114.29 179.80 113.41 180.55 113.34 181.55 Z M 113.28 182.61 L 113.22 183.63 C 113.15 184.62 113.90 185.47 114.89 185.54 C 115.88 185.60 116.73 184.85 116.79 183.86 L 116.86 182.85 C 116.93 181.86 116.18 181.01 115.19 180.94 C 114.20 180.88 113.35 181.62 113.28 182.61 Z M 113.24 183.65 L 113.18 184.64 C 113.13 185.62 113.88 186.45 114.85 186.50 C 115.83 186.56 116.66 185.81 116.72 184.84 L 116.77 183.85 C 116.83 182.87 116.08 182.04 115.10 181.98 C 114.13 181.93 113.29 182.67 113.24 183.65 Z M 113.21 184.66 L 113.16 185.62 C 113.12 186.58 113.87 187.40 114.83 187.44 C 115.79 187.49 116.60 186.74 116.65 185.78 L 116.69 184.82 C 116.74 183.86 115.99 183.04 115.03 183.00 C 114.07 182.95 113.25 183.70 113.21 184.66 Z M 113.19 185.64 L 113.15 186.63 C 113.12 187.58 113.86 188.38 114.81 188.41 C 115.76 188.44 116.56 187.70 116.59 186.75 L 116.63 185.76 C 116.66 184.81 115.91 184.01 114.97 183.98 C 114.02 183.95 113.22 184.69 113.19 185.64 Z M 113.17 186.65 L 113.15 187.73 C 113.13 188.67 113.87 189.45 114.81 189.47 C 115.75 189.49 116.53 188.75 116.55 187.81 L 116.57 186.73 C 116.59 185.79 115.85 185.01 114.91 184.99 C 113.97 184.97 113.19 185.71 113.17 186.65 Z M 113.16 187.75 L 113.15 188.77 C 113.14 189.70 113.89 190.46 114.82 190.47 C 115.75 190.49 116.51 189.74 116.52 188.81 L 116.53 187.79 C 116.54 186.86 115.80 186.09 114.87 186.08 C 113.94 186.07 113.18 186.82 113.16 187.75 Z M 113.17 188.78 L 113.16 189.74 C 113.16 190.67 113.90 191.42 114.82 191.42 C 115.75 191.42 116.50 190.68 116.50 189.76 L 116.50 188.80 C 116.51 187.88 115.77 187.13 114.84 187.12 C 113.92 187.12 113.17 187.86 113.17 188.78 Z M 113.18 189.75 L 113.18 190.66 C 113.18 191.57 113.92 192.31 114.83 192.31 C 115.74 192.31 116.48 191.57 116.48 190.66 L 116.48 189.75 C 116.48 188.84 115.75 188.10 114.83 188.10 C 113.92 188.10 113.18 188.84 113.18 189.75 Z M 113.19 190.66 L 113.19 191.73 C 113.19 192.64 113.92 193.37 114.83 193.37 C 115.74 193.37 116.47 192.64 116.47 191.73 L 116.47 190.66 C 116.47 189.75 115.74 189.02 114.83 189.02 C 113.92 189.02 113.19 189.75 113.19 190.66 Z M 113.19 191.73 L 113.19 192.72 C 113.19 193.63 113.93 194.36 114.83 194.36 C 115.74 194.36 116.47 193.63 116.47 192.72 L 116.47 191.73 C 116.47 190.82 115.74 190.09 114.83 190.09 C 113.93 190.09 113.19 190.82 113.19 191.73 Z M 113.19 192.72 L 113.19 193.67 C 113.19 194.58 113.93 195.31 114.83 195.31 C 115.74 195.31 116.47 194.58 116.47 193.67 L 116.47 192.72 C 116.47 191.82 115.74 191.08 114.83 191.08 C 113.93 191.08 113.19 191.82 113.19 192.72 Z M 113.19 193.67 L 113.19 193.89 C 113.19 194.80 113.93 195.53 114.83 195.53 C 115.74 195.53 116.47 194.80 116.47 193.89 L 116.47 193.67 C 116.47 192.77 115.74 192.03 114.83 192.03 C 113.93 192.03 113.19 192.77 113.19 193.67 Z"
      fill="black"
      fill-rule="nonzero" /><path d="M 143.92 119.89 L 143.69 120.71 C 143.35 121.90 144.05 123.14 145.24 123.47 C 146.43 123.81 147.67 123.12 148.01 121.93 L 148.24 121.11 C 148.58 119.92 147.88 118.68 146.69 118.34 C 145.50 118.01 144.26 118.70 143.92 119.89 Z M 143.70 120.67 L 143.45 121.52 C 143.09 122.71 143.76 123.96 144.94 124.32 C 146.13 124.67 147.38 124.00 147.74 122.82 L 148.00 121.97 C 148.36 120.78 147.68 119.53 146.50 119.17 C 145.31 118.81 144.06 119.48 143.70 120.67 Z M 143.47 121.46 L 143.16 122.38 C 142.76 123.56 143.40 124.83 144.57 125.22 C 145.75 125.61 147.02 124.98 147.41 123.80 L 147.72 122.88 C 148.11 121.71 147.48 120.43 146.30 120.04 C 145.13 119.65 143.86 120.28 143.47 121.46 Z M 143.18 122.31 L 142.80 123.34 C 142.36 124.50 142.95 125.79 144.11 126.23 C 145.27 126.66 146.56 126.07 147.00 124.91 L 147.39 123.88 C 147.82 122.72 147.23 121.43 146.07 120.99 C 144.91 120.56 143.62 121.15 143.18 122.31 Z M 142.82 123.26 L 142.39 124.31 C 141.91 125.46 142.46 126.77 143.60 127.25 C 144.75 127.72 146.06 127.18 146.53 126.03 L 146.97 124.98 C 147.45 123.84 146.90 122.53 145.76 122.05 C 144.61 121.58 143.30 122.12 142.82 123.26 Z M 142.41 124.27 L 142.07 125.04 C 141.57 126.17 142.08 127.50 143.21 128.00 C 144.34 128.50 145.67 127.99 146.17 126.86 L 146.51 126.08 C 147.01 124.95 146.50 123.63 145.37 123.12 C 144.24 122.62 142.91 123.13 142.41 124.27 Z M 142.09 125.01 L 141.71 125.84 C 141.19 126.96 141.68 128.29 142.80 128.81 C 143.92 129.33 145.25 128.83 145.77 127.71 L 146.15 126.88 C 146.67 125.76 146.18 124.43 145.06 123.92 C 143.93 123.40 142.60 123.89 142.09 125.01 Z M 141.72 125.82 L 141.31 126.69 C 140.78 127.81 141.25 129.14 142.37 129.67 C 143.48 130.20 144.82 129.72 145.34 128.60 L 145.76 127.73 C 146.29 126.62 145.81 125.28 144.69 124.76 C 143.58 124.23 142.25 124.70 141.72 125.82 Z M 141.32 126.68 L 140.88 127.59 C 140.34 128.70 140.80 130.03 141.91 130.57 C 143.02 131.11 144.36 130.64 144.89 129.53 L 145.33 128.62 C 145.87 127.51 145.40 126.17 144.29 125.64 C 143.19 125.10 141.85 125.57 141.32 126.68 Z M 140.88 127.58 L 140.42 128.53 C 139.88 129.63 140.34 130.97 141.44 131.51 C 142.55 132.05 143.88 131.59 144.42 130.48 L 144.89 129.54 C 145.43 128.43 144.97 127.10 143.86 126.56 C 142.76 126.02 141.42 126.48 140.88 127.58 Z M 140.43 128.52 L 139.95 129.49 C 139.41 130.59 139.86 131.93 140.96 132.47 C 142.06 133.01 143.39 132.56 143.94 131.46 L 144.42 130.49 C 144.96 129.39 144.51 128.05 143.41 127.51 C 142.30 126.97 140.97 127.42 140.43 128.52 Z M 139.95 129.49 L 139.46 130.48 C 138.92 131.58 139.37 132.91 140.47 133.45 C 141.57 134.00 142.90 133.55 143.44 132.45 L 143.93 131.46 C 144.48 130.36 144.03 129.03 142.93 128.49 C 141.83 127.94 140.50 128.39 139.95 129.49 Z M 139.47 130.48 L 138.99 131.44 C 138.45 132.54 138.90 133.87 139.99 134.41 C 141.09 134.95 142.42 134.51 142.96 133.41 L 143.44 132.45 C 143.98 131.35 143.53 130.02 142.44 129.48 C 141.34 128.94 140.01 129.39 139.47 130.48 Z M 139.01 131.45 L 138.56 132.35 C 138.02 133.43 138.47 134.75 139.56 135.29 C 140.65 135.83 141.97 135.39 142.51 134.30 L 142.95 133.40 C 143.49 132.31 143.04 130.99 141.95 130.45 C 140.86 129.92 139.54 130.36 139.01 131.45 Z M 138.58 132.36 L 138.14 133.25 C 137.60 134.33 138.05 135.64 139.12 136.17 C 140.20 136.71 141.51 136.26 142.04 135.19 L 142.49 134.29 C 143.02 133.21 142.58 131.90 141.50 131.37 C 140.42 130.83 139.11 131.28 138.58 132.36 Z M 138.15 133.26 L 137.71 134.16 C 137.18 135.23 137.62 136.53 138.69 137.06 C 139.76 137.59 141.05 137.15 141.58 136.08 L 142.03 135.18 C 142.56 134.11 142.12 132.81 141.05 132.28 C 139.98 131.75 138.68 132.19 138.15 133.26 Z M 137.73 134.17 L 137.28 135.07 C 136.76 136.13 137.19 137.42 138.25 137.94 C 139.31 138.46 140.60 138.03 141.12 136.97 L 141.56 136.07 C 142.09 135.01 141.65 133.72 140.59 133.20 C 139.53 132.68 138.25 133.11 137.73 134.17 Z M 137.30 135.08 L 136.85 135.98 C 136.33 137.03 136.76 138.30 137.81 138.82 C 138.86 139.34 140.14 138.91 140.66 137.86 L 141.10 136.96 C 141.62 135.91 141.19 134.64 140.14 134.12 C 139.09 133.60 137.82 134.03 137.30 135.08 Z M 136.87 135.99 L 136.43 136.89 C 135.91 137.93 136.34 139.19 137.38 139.70 C 138.42 140.22 139.68 139.79 140.19 138.75 L 140.64 137.85 C 141.15 136.81 140.73 135.55 139.69 135.04 C 138.65 134.52 137.39 134.95 136.87 135.99 Z M 136.45 136.89 L 136.00 137.79 C 135.49 138.82 135.91 140.07 136.94 140.58 C 137.97 141.09 139.22 140.67 139.73 139.64 L 140.17 138.75 C 140.69 137.72 140.27 136.47 139.24 135.96 C 138.21 135.44 136.96 135.86 136.45 136.89 Z M 136.02 137.80 L 135.58 138.68 C 135.07 139.70 135.48 140.94 136.50 141.45 C 137.52 141.96 138.76 141.54 139.27 140.52 L 139.71 139.63 C 140.22 138.61 139.80 137.38 138.79 136.87 C 137.77 136.36 136.53 136.78 136.02 137.80 Z M 135.60 138.69 L 135.14 139.60 C 134.64 140.61 135.05 141.84 136.05 142.34 C 137.06 142.85 138.29 142.44 138.79 141.43 L 139.25 140.52 C 139.75 139.51 139.35 138.28 138.34 137.78 C 137.33 137.27 136.10 137.68 135.60 138.69 Z M 135.16 139.61 L 134.69 140.55 C 134.19 141.55 134.59 142.76 135.59 143.26 C 136.59 143.76 137.80 143.36 138.30 142.36 L 138.77 141.42 C 139.27 140.42 138.87 139.21 137.87 138.71 C 136.88 138.21 135.66 138.61 135.16 139.61 Z M 134.71 140.56 L 134.24 141.49 C 133.75 142.47 134.15 143.67 135.13 144.17 C 136.12 144.67 137.32 144.27 137.82 143.28 L 138.28 142.35 C 138.78 141.37 138.38 140.16 137.39 139.67 C 136.41 139.17 135.21 139.57 134.71 140.56 Z M 134.26 141.50 L 133.80 142.41 C 133.31 143.39 133.71 144.58 134.68 145.07 C 135.66 145.56 136.85 145.16 137.34 144.19 L 137.80 143.27 C 138.29 142.29 137.89 141.11 136.92 140.62 C 135.94 140.13 134.75 140.52 134.26 141.50 Z M 133.82 142.43 L 133.37 143.33 C 132.89 144.30 133.28 145.47 134.24 145.95 C 135.21 146.43 136.38 146.04 136.87 145.08 L 137.32 144.17 C 137.80 143.21 137.41 142.03 136.44 141.55 C 135.48 141.07 134.30 141.46 133.82 142.43 Z M 133.39 143.34 L 132.95 144.23 C 132.47 145.19 132.86 146.35 133.82 146.82 C 134.78 147.30 135.94 146.91 136.41 145.95 L 136.85 145.06 C 137.32 144.11 136.93 142.95 135.98 142.47 C 135.02 142.00 133.86 142.39 133.39 143.34 Z M 132.96 144.25 L 132.53 145.12 C 132.07 146.07 132.46 147.21 133.41 147.68 C 134.36 148.14 135.50 147.75 135.97 146.80 L 136.39 145.93 C 136.86 144.98 136.47 143.84 135.52 143.37 C 134.57 142.91 133.43 143.30 132.96 144.25 Z M 132.55 145.14 L 132.14 145.99 C 131.68 146.93 132.08 148.06 133.01 148.52 C 133.95 148.97 135.08 148.58 135.54 147.64 L 135.95 146.78 C 136.41 145.85 136.01 144.72 135.07 144.26 C 134.13 143.81 133.00 144.20 132.55 145.14 Z M 132.15 146.01 L 131.74 146.87 C 131.30 147.81 131.70 148.92 132.63 149.36 C 133.56 149.81 134.67 149.41 135.12 148.48 L 135.52 147.62 C 135.97 146.69 135.57 145.57 134.64 145.13 C 133.71 144.69 132.59 145.08 132.15 146.01 Z M 131.75 146.90 L 131.31 147.86 C 130.88 148.79 131.28 149.88 132.20 150.31 C 133.13 150.74 134.23 150.34 134.66 149.42 L 135.10 148.45 C 135.53 147.53 135.13 146.43 134.21 146.00 C 133.28 145.57 132.18 145.97 131.75 146.90 Z M 131.32 147.89 L 130.89 148.82 C 130.48 149.74 130.89 150.82 131.80 151.24 C 132.72 151.65 133.80 151.25 134.22 150.33 L 134.64 149.39 C 135.06 148.48 134.65 147.39 133.74 146.98 C 132.82 146.56 131.74 146.97 131.32 147.89 Z M 130.91 148.85 L 130.50 149.77 C 130.10 150.68 130.51 151.74 131.42 152.14 C 132.33 152.55 133.39 152.14 133.79 151.23 L 134.20 150.31 C 134.61 149.40 134.20 148.34 133.29 147.93 C 132.38 147.53 131.31 147.94 130.91 148.85 Z M 130.52 149.78 L 130.12 150.69 C 129.73 151.59 130.14 152.64 131.04 153.03 C 131.94 153.43 132.99 153.01 133.38 152.11 L 133.78 151.21 C 134.17 150.31 133.76 149.26 132.86 148.87 C 131.96 148.47 130.91 148.88 130.52 149.78 Z M 130.14 150.71 L 129.75 151.60 C 129.37 152.49 129.78 153.52 130.67 153.91 C 131.56 154.29 132.60 153.88 132.98 152.99 L 133.37 152.10 C 133.75 151.21 133.34 150.17 132.45 149.79 C 131.56 149.40 130.52 149.81 130.14 150.71 Z M 129.77 151.61 L 129.39 152.50 C 129.02 153.38 129.43 154.40 130.31 154.78 C 131.19 155.15 132.21 154.74 132.59 153.86 L 132.96 152.98 C 133.34 152.09 132.93 151.07 132.05 150.70 C 131.17 150.32 130.15 150.73 129.77 151.61 Z M 129.41 152.51 L 129.11 153.22 C 128.74 154.09 129.14 155.10 130.02 155.47 C 130.89 155.84 131.90 155.43 132.27 154.56 L 132.57 153.85 C 132.94 152.98 132.53 151.97 131.66 151.60 C 130.79 151.23 129.78 151.63 129.41 152.51 Z"
      fill="black"
      fill-rule="nonzero" /><path d="M 138.56 141.78 L 139.03 142.67 C 139.57 143.67 140.82 144.05 141.83 143.51 C 142.83 142.98 143.21 141.73 142.68 140.72 L 142.21 139.84 C 141.67 138.83 140.42 138.45 139.41 138.99 C 138.41 139.53 138.03 140.78 138.56 141.78 Z M 139.08 142.75 L 139.59 143.60 C 140.17 144.58 141.44 144.91 142.42 144.32 C 143.40 143.74 143.72 142.48 143.14 141.50 L 142.63 140.64 C 142.05 139.66 140.78 139.34 139.80 139.92 C 138.82 140.50 138.50 141.77 139.08 142.75 Z M 139.70 143.76 L 140.28 144.57 C 140.95 145.49 142.24 145.69 143.16 145.02 C 144.08 144.36 144.29 143.07 143.62 142.14 L 143.03 141.34 C 142.36 140.42 141.07 140.21 140.15 140.88 C 139.23 141.55 139.03 142.84 139.70 143.76 Z M 140.46 144.78 L 141.14 145.49 C 141.92 146.31 143.23 146.34 144.05 145.56 C 144.87 144.77 144.90 143.47 144.12 142.65 L 143.44 141.93 C 142.66 141.11 141.35 141.08 140.53 141.87 C 139.71 142.65 139.67 143.95 140.46 144.78 Z M 141.36 145.68 L 142.11 146.28 C 143.00 146.98 144.29 146.83 145.00 145.94 C 145.70 145.05 145.55 143.76 144.66 143.05 L 143.90 142.46 C 143.01 141.75 141.72 141.91 141.02 142.79 C 140.31 143.68 140.47 144.98 141.36 145.68 Z M 142.31 146.40 L 143.16 146.93 C 144.12 147.52 145.38 147.23 145.97 146.27 C 146.57 145.31 146.27 144.05 145.31 143.45 L 144.46 142.93 C 143.50 142.33 142.24 142.63 141.65 143.59 C 141.05 144.55 141.35 145.81 142.31 146.40 Z M 143.33 147.01 L 144.25 147.47 C 145.25 147.97 146.47 147.56 146.98 146.56 C 147.48 145.55 147.07 144.33 146.06 143.83 L 145.14 143.37 C 144.13 142.87 142.91 143.28 142.41 144.28 C 141.91 145.29 142.32 146.51 143.33 147.01 Z M 144.39 147.52 L 145.35 147.91 C 146.38 148.33 147.56 147.83 147.98 146.80 C 148.40 145.77 147.91 144.59 146.87 144.17 L 145.92 143.78 C 144.88 143.36 143.71 143.86 143.29 144.89 C 142.87 145.92 143.36 147.10 144.39 147.52 Z M 145.48 147.91 L 146.45 148.24 C 147.48 148.59 148.61 148.03 148.96 147.00 C 149.30 145.96 148.75 144.84 147.71 144.49 L 146.75 144.16 C 145.71 143.81 144.59 144.37 144.24 145.41 C 143.89 146.44 144.44 147.56 145.48 147.91 Z M 146.56 148.22 L 147.54 148.50 C 148.57 148.78 149.63 148.18 149.92 147.15 C 150.20 146.13 149.60 145.06 148.57 144.78 L 147.60 144.51 C 146.57 144.22 145.51 144.82 145.22 145.85 C 144.94 146.88 145.54 147.94 146.56 148.22 Z M 147.65 148.47 L 148.61 148.69 C 149.62 148.91 150.63 148.28 150.85 147.26 C 151.08 146.25 150.44 145.25 149.43 145.02 L 148.47 144.80 C 147.45 144.58 146.45 145.21 146.22 146.23 C 146.00 147.24 146.63 148.24 147.65 148.47 Z M 148.71 148.66 L 149.69 148.82 C 150.68 148.99 151.63 148.32 151.80 147.33 C 151.97 146.33 151.30 145.39 150.30 145.21 L 149.33 145.05 C 148.33 144.88 147.39 145.55 147.22 146.54 C 147.05 147.54 147.72 148.49 148.71 148.66 Z M 149.80 148.80 L 150.82 148.91 C 151.80 149.02 152.68 148.31 152.79 147.33 C 152.90 146.35 152.19 145.47 151.21 145.36 L 150.19 145.24 C 149.21 145.13 148.33 145.84 148.22 146.82 C 148.11 147.80 148.82 148.69 149.80 148.80 Z M 150.94 148.88 L 151.92 148.92 C 152.88 148.97 153.70 148.22 153.75 147.26 C 153.79 146.29 153.04 145.48 152.08 145.43 L 151.10 145.39 C 150.13 145.34 149.31 146.09 149.27 147.05 C 149.23 148.02 149.97 148.83 150.94 148.88 Z M 152.04 148.89 L 153.01 148.87 C 153.95 148.85 154.70 148.07 154.68 147.12 C 154.66 146.18 153.88 145.43 152.94 145.45 L 151.97 145.47 C 151.02 145.49 150.27 146.27 150.29 147.21 C 150.31 148.16 151.09 148.90 152.04 148.89 Z M 153.11 148.83 L 154.09 148.75 C 155.01 148.67 155.70 147.86 155.62 146.94 C 155.55 146.02 154.74 145.33 153.81 145.41 L 152.83 145.49 C 151.91 145.56 151.22 146.37 151.30 147.30 C 151.38 148.22 152.19 148.91 153.11 148.83 Z M 154.17 148.73 L 155.15 148.60 C 156.06 148.48 156.71 147.65 156.59 146.74 C 156.47 145.82 155.64 145.18 154.73 145.30 L 153.74 145.43 C 152.83 145.55 152.18 146.38 152.30 147.29 C 152.42 148.20 153.25 148.85 154.17 148.73 Z M 155.20 148.58 L 156.19 148.42 C 157.09 148.28 157.71 147.43 157.57 146.53 C 157.42 145.63 156.57 145.02 155.67 145.16 L 154.68 145.32 C 153.78 145.46 153.16 146.31 153.31 147.21 C 153.45 148.11 154.30 148.73 155.20 148.58 Z M 156.21 148.41 L 156.98 148.28 C 157.88 148.12 158.48 147.27 158.32 146.38 C 158.17 145.49 157.32 144.89 156.42 145.04 L 155.65 145.17 C 154.76 145.33 154.16 146.18 154.32 147.07 C 154.47 147.96 155.32 148.56 156.21 148.41 Z"
      fill="black"
      fill-rule="nonzero" /><path d="M 168.72 114.89 L 168.14 115.81 C 167.51 116.83 167.82 118.17 168.84 118.80 C 169.86 119.43 171.19 119.12 171.83 118.11 L 172.40 117.18 C 173.03 116.17 172.72 114.83 171.70 114.20 C 170.69 113.57 169.35 113.88 168.72 114.89 Z M 168.14 115.81 L 167.57 116.72 C 166.94 117.74 167.25 119.08 168.27 119.72 C 169.29 120.35 170.63 120.04 171.27 119.02 L 171.83 118.11 C 172.46 117.09 172.15 115.75 171.13 115.11 C 170.11 114.48 168.77 114.79 168.14 115.81 Z M 167.57 116.72 L 167.02 117.61 C 166.39 118.63 166.70 119.98 167.73 120.61 C 168.75 121.24 170.09 120.92 170.72 119.90 L 171.27 119.01 C 171.90 117.99 171.59 116.65 170.57 116.02 C 169.54 115.39 168.20 115.70 167.57 116.72 Z M 167.01 117.61 L 166.49 118.47 C 165.86 119.49 166.18 120.84 167.20 121.47 C 168.23 122.10 169.57 121.78 170.20 120.75 L 170.73 119.90 C 171.36 118.87 171.04 117.53 170.01 116.90 C 168.99 116.27 167.64 116.59 167.01 117.61 Z M 166.48 118.47 L 165.99 119.28 C 165.36 120.31 165.68 121.66 166.71 122.29 C 167.74 122.91 169.09 122.59 169.72 121.56 L 170.21 120.75 C 170.84 119.72 170.52 118.37 169.49 117.74 C 168.45 117.12 167.11 117.44 166.48 118.47 Z M 165.98 119.29 L 165.52 120.04 C 164.90 121.08 165.23 122.42 166.27 123.05 C 167.30 123.67 168.65 123.34 169.27 122.30 L 169.73 121.55 C 170.35 120.52 170.02 119.17 168.98 118.54 C 167.95 117.92 166.60 118.25 165.98 119.29 Z M 165.53 120.07 L 164.98 121.00 C 164.37 122.03 164.71 123.36 165.74 123.97 C 166.78 124.58 168.11 124.24 168.72 123.21 L 169.27 122.28 C 169.88 121.25 169.53 119.92 168.50 119.31 C 167.47 118.70 166.14 119.04 165.53 120.07 Z M 165.01 121.05 L 164.51 121.93 C 163.92 122.94 164.27 124.24 165.29 124.82 C 166.30 125.40 167.59 125.05 168.18 124.04 L 168.69 123.16 C 169.27 122.14 168.92 120.85 167.91 120.27 C 166.89 119.68 165.60 120.03 165.01 121.05 Z M 164.54 121.98 L 164.08 122.80 C 163.52 123.80 163.88 125.06 164.87 125.61 C 165.86 126.17 167.12 125.81 167.68 124.82 L 168.14 123.99 C 168.70 123.00 168.34 121.74 167.35 121.18 C 166.36 120.63 165.10 120.98 164.54 121.98 Z M 164.12 122.85 L 163.67 123.67 C 163.13 124.64 163.49 125.86 164.46 126.40 C 165.43 126.93 166.65 126.57 167.19 125.60 L 167.64 124.78 C 168.17 123.80 167.81 122.58 166.84 122.05 C 165.87 121.52 164.65 121.88 164.12 122.85 Z M 163.70 123.70 L 163.28 124.49 C 162.76 125.44 163.12 126.63 164.07 127.14 C 165.02 127.66 166.21 127.31 166.72 126.36 L 167.15 125.57 C 167.66 124.62 167.31 123.43 166.36 122.91 C 165.41 122.40 164.22 122.75 163.70 123.70 Z M 163.31 124.51 L 162.89 125.29 C 162.39 126.22 162.74 127.39 163.67 127.89 C 164.61 128.40 165.78 128.05 166.28 127.11 L 166.70 126.33 C 167.20 125.40 166.85 124.23 165.91 123.73 C 164.98 123.22 163.81 123.58 163.31 124.51 Z M 162.91 125.31 L 162.46 126.15 C 161.97 127.07 162.32 128.22 163.25 128.71 C 164.17 129.20 165.32 128.85 165.81 127.93 L 166.26 127.09 C 166.75 126.16 166.40 125.02 165.47 124.52 C 164.55 124.03 163.40 124.38 162.91 125.31 Z M 162.48 126.17 L 162.01 127.08 C 161.53 127.99 161.88 129.12 162.79 129.60 C 163.71 130.08 164.84 129.73 165.31 128.82 L 165.79 127.90 C 166.27 126.99 165.92 125.86 165.01 125.38 C 164.09 124.90 162.96 125.26 162.48 126.17 Z M 162.02 127.10 L 161.51 128.10 C 161.04 129.00 161.40 130.11 162.30 130.58 C 163.21 131.04 164.32 130.69 164.78 129.79 L 165.30 128.79 C 165.76 127.89 165.41 126.78 164.50 126.31 C 163.60 125.85 162.49 126.20 162.02 127.10 Z M 161.53 128.12 L 161.03 129.10 C 160.58 129.99 160.94 131.08 161.83 131.54 C 162.72 131.99 163.82 131.63 164.27 130.74 L 164.76 129.77 C 165.22 128.87 164.86 127.78 163.97 127.32 C 163.07 126.87 161.98 127.23 161.53 128.12 Z M 161.05 129.11 L 160.60 130.00 C 160.16 130.88 160.52 131.96 161.40 132.41 C 162.29 132.85 163.37 132.49 163.81 131.61 L 164.26 130.72 C 164.70 129.84 164.34 128.76 163.46 128.31 C 162.57 127.87 161.49 128.23 161.05 129.11 Z M 160.61 130.01 L 160.16 130.93 C 159.72 131.81 160.08 132.88 160.96 133.31 C 161.85 133.75 162.91 133.39 163.35 132.51 L 163.80 131.59 C 164.24 130.71 163.88 129.64 163.00 129.21 C 162.12 128.77 161.05 129.13 160.61 130.01 Z M 160.17 130.94 L 159.72 131.88 C 159.29 132.75 159.65 133.81 160.52 134.23 C 161.40 134.66 162.45 134.30 162.88 133.42 L 163.34 132.49 C 163.76 131.62 163.40 130.56 162.53 130.13 C 161.65 129.71 160.60 130.07 160.17 130.94 Z M 159.73 131.89 L 159.28 132.82 C 158.86 133.69 159.22 134.73 160.09 135.15 C 160.96 135.57 162.00 135.21 162.42 134.34 L 162.87 133.41 C 163.29 132.54 162.93 131.50 162.06 131.08 C 161.19 130.66 160.15 131.02 159.73 131.89 Z M 159.29 132.84 L 158.86 133.74 C 158.45 134.61 158.81 135.64 159.68 136.05 C 160.54 136.46 161.57 136.09 161.98 135.23 L 162.41 134.32 C 162.82 133.46 162.46 132.43 161.59 132.02 C 160.73 131.61 159.70 131.97 159.29 132.84 Z M 158.87 133.76 L 158.46 134.63 C 158.06 135.49 158.43 136.51 159.29 136.91 C 160.15 137.31 161.17 136.94 161.57 136.08 L 161.97 135.21 C 162.37 134.35 162.00 133.33 161.14 132.93 C 160.29 132.53 159.27 132.90 158.87 133.76 Z M 158.47 134.65 L 158.00 135.68 C 157.61 136.53 157.99 137.54 158.84 137.93 C 159.70 138.32 160.70 137.94 161.09 137.08 L 161.56 136.06 C 161.95 135.20 161.57 134.20 160.72 133.81 C 159.86 133.42 158.86 133.80 158.47 134.65 Z M 158.00 135.70 L 157.56 136.71 C 157.19 137.57 157.57 138.56 158.43 138.94 C 159.28 139.31 160.27 138.92 160.65 138.07 L 161.09 137.06 C 161.46 136.21 161.08 135.21 160.22 134.84 C 159.37 134.46 158.38 134.85 158.00 135.70 Z M 157.56 136.74 L 157.17 137.66 C 156.81 138.51 157.21 139.49 158.06 139.85 C 158.91 140.21 159.89 139.82 160.25 138.97 L 160.64 138.05 C 161.00 137.20 160.61 136.21 159.76 135.85 C 158.91 135.49 157.92 135.89 157.56 136.74 Z M 157.18 137.68 L 156.83 138.53 C 156.48 139.38 156.89 140.35 157.73 140.70 C 158.58 141.04 159.55 140.64 159.90 139.79 L 160.25 138.94 C 160.60 138.10 160.19 137.13 159.34 136.78 C 158.50 136.43 157.53 136.83 157.18 137.68 Z M 156.84 138.55 L 156.52 139.34 C 156.18 140.18 156.59 141.14 157.44 141.48 C 158.28 141.82 159.24 141.41 159.58 140.56 L 159.89 139.77 C 160.23 138.93 159.82 137.97 158.98 137.63 C 158.13 137.29 157.17 137.70 156.84 138.55 Z M 156.52 139.35 L 156.14 140.31 C 155.81 141.15 156.23 142.11 157.07 142.44 C 157.91 142.77 158.86 142.35 159.20 141.51 L 159.57 140.55 C 159.91 139.71 159.49 138.75 158.65 138.42 C 157.81 138.09 156.85 138.51 156.52 139.35 Z M 156.14 140.32 L 155.78 141.26 C 155.45 142.10 155.87 143.05 156.71 143.38 C 157.56 143.71 158.51 143.29 158.83 142.44 L 159.20 141.50 C 159.52 140.66 159.11 139.71 158.26 139.38 C 157.42 139.06 156.47 139.48 156.14 140.32 Z M 155.78 141.27 L 155.43 142.17 C 155.11 143.02 155.53 143.96 156.37 144.29 C 157.22 144.61 158.16 144.19 158.49 143.34 L 158.84 142.44 C 159.16 141.59 158.74 140.65 157.89 140.32 C 157.05 140.00 156.10 140.42 155.78 141.27 Z M 155.43 142.17 L 155.17 142.84 C 154.85 143.69 155.27 144.63 156.12 144.96 C 156.96 145.28 157.91 144.86 158.23 144.01 L 158.49 143.34 C 158.81 142.50 158.39 141.55 157.54 141.23 C 156.70 140.91 155.75 141.33 155.43 142.17 Z"
      fill="black"
      fill-rule="nonzero" /><path d="M 162.20 134.82 L 163.07 134.90 C 164.26 135.01 165.32 134.13 165.43 132.94 C 165.54 131.75 164.66 130.69 163.47 130.58 L 162.60 130.50 C 161.41 130.38 160.35 131.26 160.24 132.45 C 160.13 133.65 161.00 134.71 162.20 134.82 Z M 163.03 134.89 L 163.95 135.00 C 165.14 135.13 166.21 134.27 166.34 133.08 C 166.48 131.89 165.62 130.82 164.43 130.68 L 163.51 130.58 C 162.32 130.45 161.24 131.31 161.11 132.50 C 160.98 133.69 161.84 134.76 163.03 134.89 Z M 163.89 134.99 L 164.91 135.13 C 166.09 135.30 167.19 134.47 167.36 133.28 C 167.52 132.10 166.69 131.00 165.51 130.83 L 164.49 130.69 C 163.30 130.53 162.20 131.35 162.04 132.54 C 161.87 133.73 162.70 134.82 163.89 134.99 Z M 164.84 135.12 L 165.98 135.32 C 167.16 135.52 168.28 134.73 168.49 133.55 C 168.69 132.37 167.90 131.25 166.72 131.04 L 165.58 130.85 C 164.40 130.64 163.28 131.43 163.07 132.61 C 162.87 133.79 163.66 134.91 164.84 135.12 Z M 165.93 135.28 L 166.82 135.46 C 167.98 135.69 169.11 134.94 169.35 133.78 C 169.58 132.61 168.82 131.48 167.66 131.25 L 166.77 131.08 C 165.61 130.84 164.48 131.60 164.25 132.76 C 164.02 133.92 164.77 135.05 165.93 135.28 Z M 166.80 135.41 L 167.75 135.62 C 168.89 135.87 170.01 135.14 170.25 134.01 C 170.50 132.87 169.78 131.75 168.64 131.51 L 167.69 131.30 C 166.55 131.05 165.43 131.77 165.18 132.91 C 164.94 134.05 165.66 135.17 166.80 135.41 Z M 167.73 135.58 L 168.73 135.81 C 169.84 136.06 170.95 135.37 171.20 134.26 C 171.46 133.14 170.77 132.04 169.65 131.78 L 168.66 131.55 C 167.55 131.29 166.44 131.99 166.18 133.10 C 165.93 134.21 166.62 135.32 167.73 135.58 Z M 168.71 135.76 L 169.73 136.01 C 170.81 136.27 171.91 135.60 172.17 134.52 C 172.44 133.43 171.77 132.34 170.68 132.07 L 169.67 131.82 C 168.58 131.56 167.49 132.23 167.22 133.31 C 166.96 134.40 167.62 135.50 168.71 135.76 Z M 169.72 135.96 L 170.73 136.22 C 171.79 136.49 172.87 135.85 173.14 134.79 C 173.41 133.72 172.77 132.64 171.71 132.37 L 170.70 132.12 C 169.63 131.84 168.55 132.49 168.28 133.55 C 168.01 134.61 168.65 135.69 169.72 135.96 Z M 170.72 136.18 L 171.73 136.45 C 172.77 136.72 173.83 136.11 174.11 135.07 C 174.39 134.03 173.77 132.96 172.73 132.69 L 171.72 132.42 C 170.68 132.14 169.61 132.76 169.34 133.80 C 169.06 134.83 169.68 135.90 170.72 136.18 Z M 171.71 136.40 L 172.78 136.70 C 173.79 136.98 174.84 136.40 175.12 135.38 C 175.41 134.37 174.82 133.32 173.81 133.04 L 172.75 132.74 C 171.73 132.45 170.68 133.04 170.40 134.05 C 170.11 135.06 170.70 136.11 171.71 136.40 Z M 172.75 136.65 L 173.75 136.95 C 174.74 137.25 175.78 136.70 176.08 135.71 C 176.37 134.73 175.82 133.69 174.84 133.39 L 173.83 133.09 C 172.85 132.79 171.81 133.34 171.51 134.33 C 171.21 135.31 171.77 136.35 172.75 136.65 Z M 173.72 136.89 L 174.66 137.21 C 175.61 137.53 176.64 137.02 176.96 136.07 C 177.28 135.12 176.77 134.09 175.81 133.77 L 174.87 133.45 C 173.92 133.13 172.89 133.64 172.57 134.59 C 172.25 135.55 172.77 136.58 173.72 136.89 Z M 174.61 137.15 L 175.49 137.48 C 176.40 137.82 177.42 137.36 177.77 136.44 C 178.12 135.53 177.65 134.50 176.74 134.16 L 175.86 133.83 C 174.95 133.48 173.92 133.95 173.58 134.86 C 173.23 135.78 173.69 136.80 174.61 137.15 Z M 175.42 137.41 L 176.25 137.76 C 177.12 138.14 178.14 137.74 178.52 136.86 C 178.90 135.98 178.50 134.97 177.62 134.59 L 176.80 134.23 C 175.92 133.85 174.90 134.25 174.52 135.13 C 174.14 136.01 174.55 137.03 175.42 137.41 Z M 176.16 137.69 L 177.11 138.17 C 177.94 138.60 178.97 138.27 179.40 137.43 C 179.82 136.60 179.49 135.57 178.66 135.15 L 177.71 134.66 C 176.87 134.23 175.85 134.56 175.42 135.40 C 174.99 136.24 175.32 137.26 176.16 137.69 Z M 177.02 138.10 L 177.88 138.62 C 178.68 139.09 179.71 138.83 180.19 138.03 C 180.66 137.24 180.40 136.20 179.61 135.73 L 178.74 135.21 C 177.94 134.74 176.91 135.00 176.44 135.80 C 175.96 136.60 176.22 137.63 177.02 138.10 Z M 177.83 138.56 L 178.63 139.09 C 179.40 139.60 180.43 139.39 180.94 138.62 C 181.44 137.86 181.23 136.83 180.47 136.32 L 179.66 135.79 C 178.89 135.28 177.86 135.49 177.36 136.26 C 176.85 137.02 177.06 138.05 177.83 138.56 Z M 178.61 139.06 L 179.32 139.55 C 180.06 140.07 181.09 139.88 181.61 139.13 C 182.13 138.39 181.94 137.36 181.19 136.84 L 180.49 136.36 C 179.74 135.84 178.72 136.02 178.20 136.77 C 177.68 137.51 177.87 138.54 178.61 139.06 Z"
      fill="black"
      fill-rule="nonzero" /><path d="M 153.79 158.41 L 153.54 159.36 C 153.23 160.54 153.94 161.75 155.12 162.06 C 156.31 162.37 157.52 161.67 157.83 160.48 L 158.08 159.53 C 158.38 158.35 157.68 157.14 156.49 156.83 C 155.31 156.52 154.10 157.22 153.79 158.41 Z M 153.54 159.38 L 153.29 160.34 C 152.99 161.53 153.71 162.73 154.89 163.03 C 156.08 163.34 157.28 162.62 157.58 161.43 L 157.83 160.47 C 158.13 159.28 157.41 158.08 156.23 157.78 C 155.04 157.48 153.84 158.19 153.54 159.38 Z M 153.28 160.38 L 153.05 161.36 C 152.77 162.55 153.50 163.75 154.69 164.03 C 155.88 164.31 157.08 163.58 157.36 162.39 L 157.59 161.40 C 157.87 160.21 157.14 159.02 155.95 158.73 C 154.76 158.45 153.57 159.19 153.28 160.38 Z M 153.05 161.41 L 152.85 162.33 C 152.59 163.52 153.35 164.69 154.54 164.95 C 155.73 165.21 156.91 164.45 157.16 163.26 L 157.36 162.34 C 157.62 161.15 156.86 159.97 155.67 159.72 C 154.48 159.46 153.30 160.22 153.05 161.41 Z M 152.85 162.38 L 152.67 163.34 C 152.44 164.53 153.22 165.67 154.41 165.90 C 155.60 166.13 156.75 165.35 156.98 164.16 L 157.16 163.20 C 157.39 162.01 156.61 160.86 155.42 160.64 C 154.23 160.41 153.08 161.19 152.85 162.38 Z M 152.67 163.39 L 152.50 164.42 C 152.31 165.60 153.11 166.73 154.30 166.92 C 155.49 167.12 156.61 166.32 156.81 165.13 L 156.97 164.10 C 157.17 162.92 156.37 161.79 155.18 161.60 C 153.99 161.40 152.87 162.20 152.67 163.39 Z M 152.51 164.47 L 152.37 165.50 C 152.20 166.68 153.02 167.77 154.21 167.94 C 155.39 168.11 156.48 167.28 156.65 166.10 L 156.80 165.07 C 156.96 163.89 156.14 162.80 154.96 162.63 C 153.77 162.46 152.68 163.29 152.51 164.47 Z M 152.39 165.53 L 152.26 166.53 C 152.12 167.70 152.95 168.77 154.12 168.92 C 155.29 169.06 156.36 168.23 156.51 167.06 L 156.63 166.06 C 156.78 164.89 155.95 163.82 154.77 163.68 C 153.60 163.53 152.53 164.36 152.39 165.53 Z M 152.29 166.55 L 152.17 167.57 C 152.04 168.73 152.87 169.77 154.02 169.91 C 155.18 170.04 156.23 169.21 156.36 168.06 L 156.48 167.04 C 156.62 165.88 155.79 164.83 154.63 164.70 C 153.47 164.56 152.42 165.39 152.29 166.55 Z M 152.20 167.57 L 152.08 168.57 C 151.95 169.72 152.77 170.75 153.92 170.88 C 155.06 171.01 156.09 170.19 156.22 169.05 L 156.34 168.05 C 156.47 166.91 155.65 165.87 154.50 165.74 C 153.36 165.61 152.33 166.43 152.20 167.57 Z M 152.12 168.57 L 152.00 169.58 C 151.86 170.71 152.66 171.73 153.79 171.86 C 154.91 172.00 155.93 171.20 156.07 170.07 L 156.19 169.06 C 156.32 167.93 155.52 166.91 154.40 166.78 C 153.27 166.64 152.25 167.44 152.12 168.57 Z M 152.04 169.57 L 151.91 170.60 C 151.77 171.70 152.55 172.70 153.65 172.84 C 154.74 172.98 155.75 172.21 155.89 171.11 L 156.02 170.08 C 156.16 168.98 155.38 167.98 154.29 167.84 C 153.19 167.70 152.18 168.48 152.04 169.57 Z M 151.97 170.61 L 151.84 171.58 C 151.70 172.64 152.46 173.62 153.52 173.76 C 154.59 173.90 155.56 173.14 155.70 172.08 L 155.83 171.11 C 155.97 170.04 155.22 169.07 154.15 168.93 C 153.09 168.79 152.11 169.54 151.97 170.61 Z M 151.90 171.59 L 151.78 172.53 C 151.65 173.57 152.38 174.51 153.42 174.64 C 154.46 174.77 155.40 174.04 155.53 173.00 L 155.65 172.06 C 155.78 171.03 155.04 170.08 154.01 169.95 C 152.97 169.82 152.03 170.56 151.90 171.59 Z M 151.82 172.56 L 151.72 173.46 C 151.61 174.47 152.34 175.39 153.35 175.50 C 154.36 175.61 155.28 174.88 155.39 173.87 L 155.49 172.97 C 155.60 171.96 154.87 171.05 153.86 170.93 C 152.85 170.82 151.94 171.55 151.82 172.56 Z M 151.75 173.50 L 151.67 174.44 C 151.58 175.44 152.31 176.32 153.31 176.41 C 154.30 176.50 155.18 175.77 155.27 174.77 L 155.36 173.83 C 155.45 172.83 154.71 171.95 153.72 171.86 C 152.72 171.77 151.84 172.51 151.75 173.50 Z M 151.70 174.49 L 151.63 175.53 C 151.57 176.51 152.31 177.35 153.29 177.42 C 154.26 177.48 155.11 176.74 155.17 175.76 L 155.24 174.72 C 155.30 173.75 154.56 172.90 153.59 172.84 C 152.61 172.77 151.76 173.52 151.70 174.49 Z M 151.66 175.58 L 151.62 176.64 C 151.58 177.60 152.33 178.41 153.29 178.45 C 154.25 178.49 155.06 177.74 155.10 176.78 L 155.14 175.72 C 155.18 174.75 154.43 173.94 153.47 173.90 C 152.51 173.87 151.70 174.61 151.66 175.58 Z M 151.64 176.67 L 151.62 177.58 C 151.59 178.53 152.35 179.32 153.30 179.34 C 154.25 179.36 155.04 178.61 155.06 177.66 L 155.08 176.75 C 155.10 175.80 154.35 175.01 153.40 174.99 C 152.45 174.96 151.66 175.72 151.64 176.67 Z M 151.63 177.60 L 151.62 178.58 C 151.61 179.52 152.36 180.30 153.30 180.31 C 154.25 180.32 155.02 179.57 155.03 178.62 L 155.04 177.64 C 155.06 176.70 154.30 175.93 153.36 175.92 C 152.42 175.90 151.64 176.66 151.63 177.60 Z M 151.63 178.59 L 151.63 179.62 C 151.62 180.55 152.37 181.32 153.31 181.32 C 154.24 181.33 155.00 180.57 155.01 179.64 L 155.02 178.61 C 155.02 177.68 154.27 176.92 153.34 176.91 C 152.40 176.91 151.64 177.66 151.63 178.59 Z M 151.64 179.63 L 151.64 180.69 C 151.64 181.61 152.39 182.36 153.31 182.37 C 154.24 182.37 154.99 181.62 154.99 180.69 L 155.00 179.63 C 155.00 178.71 154.25 177.96 153.32 177.95 C 152.40 177.95 151.64 178.70 151.64 179.63 Z M 151.65 180.69 L 151.65 181.59 C 151.65 182.50 152.40 183.25 153.32 183.25 C 154.23 183.25 154.98 182.50 154.98 181.59 L 154.98 180.69 C 154.98 179.77 154.24 179.03 153.32 179.03 C 152.40 179.03 151.65 179.77 151.65 180.69 Z"
      fill="black"
      fill-rule="nonzero" /><path d="M 156.18 172.20 L 156.96 171.66 C 157.89 171.01 158.12 169.73 157.47 168.80 C 156.82 167.86 155.54 167.63 154.61 168.28 L 153.83 168.82 C 152.90 169.47 152.67 170.75 153.32 171.68 C 153.97 172.62 155.25 172.84 156.18 172.20 Z M 156.88 171.69 L 157.70 171.16 C 158.65 170.55 158.92 169.29 158.31 168.34 C 157.71 167.39 156.44 167.12 155.50 167.73 L 154.68 168.25 C 153.73 168.86 153.46 170.13 154.07 171.07 C 154.67 172.02 155.94 172.30 156.88 171.69 Z M 157.58 171.21 L 158.49 170.71 C 159.46 170.17 159.82 168.94 159.28 167.96 C 158.74 166.99 157.51 166.63 156.53 167.17 L 155.62 167.67 C 154.64 168.21 154.29 169.45 154.83 170.42 C 155.37 171.40 156.60 171.76 157.58 171.21 Z M 158.34 170.77 L 159.24 170.36 C 160.25 169.90 160.69 168.71 160.23 167.70 C 159.77 166.70 158.59 166.25 157.58 166.71 L 156.68 167.12 C 155.67 167.58 155.23 168.77 155.69 169.77 C 156.14 170.78 157.33 171.22 158.34 170.77 Z M 159.12 170.38 L 160.01 170.04 C 161.03 169.65 161.54 168.50 161.15 167.48 C 160.75 166.46 159.61 165.95 158.59 166.34 L 157.70 166.68 C 156.68 167.08 156.17 168.22 156.56 169.24 C 156.95 170.26 158.10 170.77 159.12 170.38 Z M 159.93 170.04 L 160.88 169.72 C 161.90 169.37 162.45 168.26 162.10 167.24 C 161.75 166.21 160.64 165.67 159.62 166.01 L 158.67 166.34 C 157.65 166.69 157.10 167.80 157.45 168.82 C 157.79 169.84 158.91 170.39 159.93 170.04 Z M 160.82 169.71 L 161.82 169.40 C 162.84 169.08 163.41 168.00 163.09 166.98 C 162.78 165.97 161.69 165.40 160.68 165.71 L 159.68 166.02 C 158.66 166.34 158.09 167.42 158.41 168.44 C 158.72 169.46 159.81 170.03 160.82 169.71 Z M 161.78 169.39 L 162.79 169.09 C 163.80 168.80 164.38 167.74 164.09 166.73 C 163.79 165.72 162.73 165.14 161.72 165.43 L 160.71 165.73 C 159.70 166.02 159.12 167.08 159.42 168.09 C 159.71 169.10 160.77 169.68 161.78 169.39 Z M 162.77 169.07 L 163.73 168.80 C 164.73 168.52 165.31 167.48 165.03 166.48 C 164.74 165.48 163.70 164.90 162.70 165.18 L 161.75 165.45 C 160.75 165.73 160.16 166.77 160.45 167.77 C 160.73 168.77 161.77 169.36 162.77 169.07 Z M 163.71 168.78 L 164.67 168.52 C 165.66 168.24 166.24 167.22 165.97 166.23 C 165.70 165.24 164.67 164.66 163.68 164.93 L 162.72 165.20 C 161.73 165.47 161.15 166.49 161.42 167.48 C 161.70 168.47 162.72 169.06 163.71 168.78 Z M 164.66 168.50 L 165.63 168.23 C 166.60 167.97 167.18 166.96 166.92 165.98 C 166.65 165.01 165.64 164.43 164.67 164.69 L 163.70 164.95 C 162.72 165.22 162.14 166.23 162.41 167.20 C 162.67 168.18 163.68 168.76 164.66 168.50 Z M 165.61 168.21 L 166.58 167.95 C 167.55 167.70 168.12 166.70 167.86 165.74 C 167.61 164.77 166.61 164.20 165.65 164.45 L 164.68 164.71 C 163.71 164.97 163.14 165.97 163.40 166.93 C 163.65 167.90 164.65 168.47 165.61 168.21 Z M 166.58 167.94 L 167.17 167.78 C 168.13 167.52 168.70 166.54 168.44 165.58 C 168.19 164.63 167.20 164.06 166.25 164.31 L 165.65 164.47 C 164.70 164.73 164.13 165.71 164.38 166.67 C 164.64 167.62 165.62 168.19 166.58 167.94 Z"
      fill="black"
      fill-rule="nonzero" /><path d="M 138.62 164.77 L 137.63 165.05 C 136.58 165.34 135.97 166.43 136.27 167.47 C 136.56 168.52 137.65 169.13 138.69 168.83 L 139.69 168.55 C 140.73 168.26 141.34 167.17 141.05 166.13 C 140.75 165.08 139.67 164.47 138.62 164.77 Z M 137.40 165.03 L 136.48 165.40 C 135.42 165.82 134.91 167.01 135.33 168.06 C 135.74 169.12 136.94 169.63 137.99 169.22 L 138.92 168.85 C 139.97 168.43 140.49 167.24 140.07 166.18 C 139.65 165.13 138.46 164.61 137.40 165.03 Z M 136.02 165.55 L 135.24 166.09 C 134.27 166.76 134.02 168.08 134.69 169.06 C 135.36 170.03 136.69 170.28 137.66 169.61 L 138.44 169.07 C 139.42 168.40 139.66 167.07 138.99 166.10 C 138.33 165.12 137.00 164.88 136.02 165.55 Z M 134.74 166.50 L 134.15 167.24 C 133.41 168.18 133.56 169.55 134.50 170.30 C 135.45 171.04 136.81 170.89 137.56 169.95 L 138.15 169.20 C 138.90 168.26 138.74 166.89 137.80 166.14 C 136.86 165.40 135.49 165.55 134.74 166.50 Z M 133.90 167.64 L 133.46 168.55 C 132.93 169.63 133.39 170.93 134.47 171.46 C 135.55 171.98 136.85 171.53 137.37 170.45 L 137.81 169.54 C 138.34 168.46 137.89 167.16 136.81 166.64 C 135.72 166.11 134.42 166.56 133.90 167.64 Z M 133.35 168.83 L 133.03 169.81 C 132.66 170.95 133.28 172.18 134.42 172.55 C 135.57 172.92 136.79 172.30 137.17 171.16 L 137.49 170.17 C 137.86 169.03 137.23 167.80 136.09 167.43 C 134.95 167.06 133.72 167.68 133.35 168.83 Z M 132.98 169.98 L 132.76 170.91 C 132.48 172.08 133.20 173.25 134.37 173.53 C 135.53 173.81 136.71 173.09 136.99 171.92 L 137.21 170.99 C 137.49 169.82 136.77 168.65 135.60 168.37 C 134.44 168.09 133.26 168.81 132.98 169.98 Z M 132.74 171.00 L 132.55 171.97 C 132.32 173.15 133.08 174.29 134.26 174.52 C 135.44 174.75 136.58 173.99 136.81 172.81 L 137.00 171.84 C 137.24 170.66 136.47 169.52 135.29 169.29 C 134.12 169.05 132.97 169.82 132.74 171.00 Z M 132.55 171.98 L 132.36 173.01 C 132.13 174.18 132.91 175.32 134.08 175.54 C 135.26 175.77 136.40 174.99 136.62 173.82 L 136.81 172.79 C 137.04 171.62 136.26 170.48 135.09 170.26 C 133.91 170.03 132.77 170.81 132.55 171.98 Z M 132.37 172.97 L 132.18 173.90 C 131.94 175.07 132.69 176.21 133.86 176.46 C 135.03 176.70 136.17 175.95 136.41 174.78 L 136.61 173.85 C 136.85 172.68 136.10 171.54 134.93 171.29 C 133.76 171.05 132.61 171.80 132.37 172.97 Z M 132.20 173.87 L 131.99 174.82 C 131.73 175.98 132.46 177.13 133.62 177.39 C 134.78 177.64 135.93 176.91 136.18 175.75 L 136.39 174.80 C 136.65 173.64 135.92 172.50 134.76 172.24 C 133.60 171.98 132.46 172.72 132.20 173.87 Z M 132.01 174.82 L 131.78 175.81 C 131.52 176.96 132.24 178.10 133.39 178.36 C 134.53 178.63 135.68 177.91 135.94 176.76 L 136.17 175.76 C 136.43 174.61 135.71 173.47 134.56 173.21 C 133.41 172.95 132.27 173.67 132.01 174.82 Z M 131.79 175.82 L 131.56 176.86 C 131.30 178.00 132.02 179.13 133.16 179.39 C 134.30 179.65 135.43 178.93 135.69 177.79 L 135.92 176.75 C 136.18 175.61 135.47 174.48 134.33 174.22 C 133.18 173.96 132.05 174.68 131.79 175.82 Z M 131.58 176.88 L 131.36 177.86 C 131.12 178.99 131.83 180.10 132.96 180.35 C 134.09 180.60 135.21 179.88 135.45 178.76 L 135.67 177.77 C 135.92 176.64 135.20 175.53 134.07 175.28 C 132.94 175.03 131.83 175.75 131.58 176.88 Z M 131.40 177.88 L 131.19 178.88 C 130.95 179.99 131.66 181.08 132.77 181.32 C 133.88 181.55 134.98 180.84 135.21 179.73 L 135.42 178.73 C 135.66 177.62 134.95 176.53 133.84 176.29 C 132.72 176.06 131.63 176.77 131.40 177.88 Z M 131.22 178.90 L 131.01 179.89 C 130.79 180.98 131.49 182.05 132.59 182.27 C 133.68 182.50 134.75 181.79 134.98 180.70 L 135.18 179.71 C 135.40 178.61 134.70 177.55 133.61 177.32 C 132.51 177.10 131.44 177.80 131.22 178.90 Z M 131.05 179.90 L 130.85 180.87 C 130.64 181.95 131.34 182.99 132.42 183.21 C 133.49 183.42 134.54 182.72 134.75 181.65 L 134.94 180.68 C 135.16 179.60 134.46 178.56 133.38 178.34 C 132.31 178.13 131.26 178.83 131.05 179.90 Z M 130.89 180.89 L 130.70 181.89 C 130.50 182.95 131.19 183.97 132.25 184.17 C 133.30 184.38 134.32 183.68 134.53 182.62 L 134.72 181.62 C 134.92 180.57 134.23 179.55 133.17 179.34 C 132.11 179.14 131.09 179.84 130.89 180.89 Z M 130.74 181.92 L 130.56 182.92 C 130.37 183.96 131.06 184.94 132.10 185.13 C 133.13 185.31 134.12 184.63 134.31 183.59 L 134.49 182.59 C 134.67 181.56 133.98 180.57 132.95 180.39 C 131.91 180.20 130.92 180.89 130.74 181.92 Z M 130.60 182.96 L 130.44 183.93 C 130.28 184.94 130.97 185.89 131.98 186.06 C 132.99 186.22 133.95 185.53 134.11 184.52 L 134.27 183.55 C 134.43 182.54 133.74 181.59 132.73 181.42 C 131.72 181.26 130.76 181.95 130.60 182.96 Z M 130.48 183.97 L 130.35 184.94 C 130.21 185.93 130.90 186.84 131.89 186.98 C 132.88 187.12 133.80 186.43 133.93 185.44 L 134.07 184.48 C 134.21 183.49 133.52 182.57 132.53 182.43 C 131.54 182.29 130.62 182.98 130.48 183.97 Z M 130.38 184.98 L 130.27 185.96 C 130.16 186.93 130.85 187.81 131.82 187.92 C 132.79 188.04 133.67 187.34 133.78 186.37 L 133.90 185.40 C 134.01 184.43 133.32 183.55 132.35 183.43 C 131.38 183.32 130.50 184.01 130.38 184.98 Z M 130.30 186.00 L 130.20 186.99 C 130.11 187.94 130.80 188.79 131.76 188.89 C 132.71 188.98 133.56 188.28 133.66 187.33 L 133.76 186.34 C 133.85 185.38 133.15 184.53 132.20 184.44 C 131.24 184.34 130.39 185.04 130.30 186.00 Z M 130.23 187.01 L 130.14 188.01 C 130.06 188.95 130.76 189.78 131.70 189.86 C 132.63 189.94 133.46 189.25 133.54 188.31 L 133.63 187.31 C 133.71 186.37 133.01 185.54 132.08 185.46 C 131.14 185.38 130.31 186.07 130.23 187.01 Z M 130.17 188.03 L 130.10 188.99 C 130.02 189.91 130.71 190.72 131.63 190.79 C 132.55 190.87 133.36 190.18 133.43 189.26 L 133.51 188.30 C 133.59 187.37 132.90 186.57 131.98 186.49 C 131.06 186.42 130.25 187.10 130.17 188.03 Z"
      fill="black"
      fill-rule="nonzero" /><path d="M 134.92 179.03 L 135.83 179.43 C 136.72 179.82 137.75 179.41 138.13 178.52 C 138.52 177.64 138.11 176.61 137.22 176.23 L 136.31 175.83 C 135.42 175.45 134.39 175.85 134.01 176.74 C 133.63 177.62 134.03 178.65 134.92 179.03 Z M 135.80 179.50 L 136.71 179.90 C 137.63 180.31 138.71 179.89 139.12 178.96 C 139.52 178.04 139.10 176.96 138.18 176.56 L 137.26 176.16 C 136.34 175.75 135.26 176.17 134.86 177.10 C 134.45 178.02 134.87 179.10 135.80 179.50 Z M 136.67 179.97 L 137.58 180.38 C 138.54 180.81 139.67 180.38 140.10 179.42 C 140.52 178.46 140.09 177.33 139.13 176.90 L 138.22 176.49 C 137.26 176.06 136.13 176.49 135.71 177.45 C 135.28 178.41 135.71 179.54 136.67 179.97 Z M 137.53 180.44 L 138.43 180.86 C 139.43 181.32 140.61 180.88 141.07 179.89 C 141.53 178.89 141.09 177.71 140.10 177.26 L 139.19 176.84 C 138.19 176.38 137.01 176.81 136.55 177.81 C 136.10 178.80 136.53 179.98 137.53 180.44 Z M 138.37 180.92 L 139.28 181.35 C 140.30 181.84 141.54 181.41 142.03 180.38 C 142.52 179.35 142.09 178.12 141.06 177.63 L 140.16 177.20 C 139.13 176.70 137.90 177.14 137.40 178.16 C 136.91 179.19 137.35 180.42 138.37 180.92 Z M 139.22 181.38 L 140.12 181.83 C 141.17 182.35 142.43 181.93 142.96 180.89 C 143.48 179.85 143.06 178.58 142.02 178.05 L 141.12 177.60 C 140.07 177.08 138.80 177.50 138.28 178.54 C 137.76 179.59 138.18 180.86 139.22 181.38 Z M 140.08 181.83 L 140.98 182.30 C 142.02 182.84 143.31 182.43 143.85 181.39 C 144.40 180.35 143.99 179.06 142.95 178.52 L 142.05 178.05 C 141.01 177.51 139.72 177.91 139.18 178.96 C 138.64 180.00 139.04 181.29 140.08 181.83 Z M 140.95 182.30 L 141.83 182.77 C 142.88 183.33 144.18 182.94 144.74 181.89 C 145.30 180.85 144.91 179.55 143.86 178.99 L 142.98 178.51 C 141.93 177.95 140.63 178.35 140.07 179.39 C 139.51 180.44 139.90 181.74 140.95 182.30 Z M 141.81 182.78 L 142.68 183.26 C 143.73 183.83 145.05 183.45 145.62 182.40 C 146.19 181.35 145.81 180.03 144.76 179.46 L 143.88 178.98 C 142.84 178.41 141.52 178.79 140.95 179.84 C 140.37 180.89 140.76 182.21 141.81 182.78 Z M 142.67 183.27 L 143.53 183.75 C 144.59 184.33 145.91 183.94 146.50 182.89 C 147.08 181.83 146.70 180.51 145.64 179.92 L 144.78 179.45 C 143.72 178.87 142.39 179.25 141.81 180.30 C 141.23 181.36 141.61 182.69 142.67 183.27 Z M 143.52 183.76 L 144.39 184.23 C 145.45 184.82 146.78 184.44 147.37 183.37 C 147.95 182.31 147.57 180.98 146.51 180.39 L 145.65 179.92 C 144.59 179.33 143.25 179.71 142.67 180.77 C 142.08 181.83 142.46 183.17 143.52 183.76 Z M 144.38 184.24 L 145.24 184.71 C 146.31 185.30 147.65 184.92 148.23 183.85 C 148.82 182.79 148.44 181.45 147.37 180.86 L 146.51 180.39 C 145.45 179.80 144.11 180.18 143.52 181.25 C 142.93 182.31 143.32 183.65 144.38 184.24 Z M 145.25 184.72 L 146.11 185.20 C 147.18 185.78 148.52 185.39 149.11 184.33 C 149.70 183.26 149.31 181.91 148.24 181.33 L 147.37 180.85 C 146.30 180.27 144.96 180.66 144.37 181.73 C 143.79 182.79 144.18 184.14 145.25 184.72 Z M 146.12 185.21 L 147.00 185.69 C 148.08 186.27 149.42 185.88 150.00 184.80 C 150.59 183.73 150.19 182.38 149.12 181.80 L 148.23 181.32 C 147.16 180.73 145.81 181.13 145.23 182.21 C 144.65 183.28 145.04 184.62 146.12 185.21 Z M 147.01 185.70 L 147.92 186.19 C 149.00 186.77 150.35 186.36 150.93 185.28 C 151.51 184.20 151.10 182.86 150.02 182.28 L 149.11 181.79 C 148.03 181.21 146.68 181.61 146.10 182.69 C 145.52 183.77 145.93 185.12 147.01 185.70 Z M 147.93 186.20 L 148.83 186.68 C 149.92 187.25 151.27 186.84 151.84 185.75 C 152.41 184.67 152.00 183.32 150.92 182.75 L 150.01 182.27 C 148.92 181.69 147.58 182.11 147.00 183.19 C 146.43 184.28 146.84 185.62 147.93 186.20 Z M 148.84 186.69 L 149.76 187.16 C 150.85 187.73 152.20 187.31 152.77 186.22 C 153.33 185.13 152.91 183.79 151.82 183.22 L 150.90 182.74 C 149.81 182.17 148.47 182.59 147.90 183.68 C 147.33 184.77 147.76 186.12 148.84 186.69 Z M 149.78 187.17 L 150.69 187.64 C 151.78 188.20 153.13 187.77 153.69 186.68 C 154.25 185.58 153.82 184.24 152.72 183.68 L 151.81 183.21 C 150.72 182.65 149.37 183.08 148.81 184.17 C 148.25 185.27 148.68 186.61 149.78 187.17 Z M 150.71 187.65 L 151.59 188.10 C 152.69 188.65 154.03 188.21 154.59 187.11 C 155.14 186.01 154.70 184.67 153.60 184.12 L 152.71 183.67 C 151.61 183.12 150.27 183.56 149.72 184.66 C 149.16 185.76 149.61 187.10 150.71 187.65 Z M 151.61 188.11 L 152.46 188.52 C 153.56 189.07 154.90 188.61 155.44 187.51 C 155.99 186.40 155.53 185.07 154.43 184.52 L 153.58 184.11 C 152.48 183.56 151.14 184.02 150.60 185.12 C 150.05 186.23 150.51 187.57 151.61 188.11 Z M 152.48 188.54 L 153.47 189.00 C 154.58 189.53 155.91 189.06 156.44 187.95 C 156.97 186.83 156.49 185.50 155.38 184.98 L 154.40 184.51 C 153.29 183.98 151.96 184.45 151.43 185.57 C 150.90 186.68 151.37 188.01 152.48 188.54 Z M 153.50 189.02 L 154.44 189.45 C 155.56 189.96 156.88 189.47 157.39 188.35 C 157.91 187.23 157.41 185.91 156.29 185.40 L 155.35 184.96 C 154.23 184.45 152.91 184.95 152.40 186.06 C 151.89 187.18 152.38 188.51 153.50 189.02 Z M 154.47 189.46 L 155.34 189.84 C 156.46 190.34 157.78 189.83 158.28 188.71 C 158.77 187.59 158.27 186.27 157.14 185.77 L 156.27 185.39 C 155.15 184.89 153.83 185.40 153.33 186.52 C 152.83 187.64 153.34 188.96 154.47 189.46 Z M 155.35 189.85 L 156.18 190.21 C 157.30 190.70 158.62 190.19 159.11 189.06 C 159.60 187.94 159.09 186.63 157.96 186.13 L 157.13 185.77 C 156.01 185.28 154.70 185.79 154.20 186.92 C 153.71 188.04 154.22 189.35 155.35 189.85 Z M 156.17 190.20 L 157.08 190.61 C 158.21 191.10 159.52 190.59 160.01 189.47 C 160.51 188.35 160.00 187.03 158.88 186.54 L 157.97 186.14 C 156.84 185.64 155.53 186.15 155.04 187.28 C 154.54 188.40 155.05 189.71 156.17 190.20 Z M 157.08 190.60 L 157.99 191.01 C 159.11 191.50 160.42 191.00 160.92 189.88 C 161.42 188.76 160.91 187.45 159.79 186.95 L 158.88 186.54 C 157.76 186.05 156.45 186.55 155.95 187.67 C 155.45 188.79 155.96 190.10 157.08 190.60 Z M 157.99 191.00 L 158.91 191.41 C 160.02 191.90 161.33 191.40 161.83 190.28 C 162.33 189.16 161.82 187.85 160.70 187.35 L 159.79 186.95 C 158.67 186.45 157.36 186.96 156.86 188.08 C 156.37 189.20 156.87 190.51 157.99 191.00 Z M 158.91 191.41 L 159.82 191.81 C 160.94 192.30 162.25 191.79 162.74 190.67 C 163.23 189.55 162.72 188.24 161.60 187.75 L 160.69 187.35 C 159.57 186.86 158.27 187.37 157.78 188.49 C 157.28 189.61 157.79 190.92 158.91 191.41 Z M 159.84 191.81 L 160.75 192.20 C 161.87 192.69 163.17 192.17 163.65 191.05 C 164.14 189.93 163.62 188.63 162.50 188.15 L 161.59 187.75 C 160.47 187.27 159.17 187.78 158.69 188.90 C 158.20 190.02 158.72 191.32 159.84 191.81 Z M 160.76 192.20 L 161.68 192.60 C 162.80 193.08 164.10 192.56 164.57 191.43 C 165.05 190.31 164.53 189.02 163.41 188.54 L 162.49 188.15 C 161.37 187.67 160.07 188.19 159.59 189.31 C 159.12 190.43 159.64 191.73 160.76 192.20 Z M 161.69 192.60 L 162.62 192.99 C 163.75 193.46 165.04 192.94 165.51 191.82 C 165.98 190.70 165.46 189.40 164.33 188.93 L 163.40 188.54 C 162.28 188.07 160.99 188.59 160.52 189.71 C 160.04 190.83 160.57 192.13 161.69 192.60 Z M 162.64 192.99 L 163.55 193.37 C 164.68 193.84 165.96 193.31 166.43 192.19 C 166.89 191.07 166.36 189.78 165.24 189.31 L 164.32 188.93 C 163.20 188.47 161.92 189.00 161.45 190.12 C 160.98 191.24 161.52 192.53 162.64 192.99 Z M 163.57 193.37 L 164.50 193.75 C 165.62 194.21 166.90 193.67 167.36 192.55 C 167.81 191.43 167.28 190.15 166.15 189.69 L 165.23 189.31 C 164.11 188.86 162.83 189.39 162.37 190.51 C 161.91 191.64 162.45 192.92 163.57 193.37 Z M 164.51 193.76 L 165.45 194.13 C 166.57 194.58 167.84 194.03 168.29 192.91 C 168.74 191.78 168.19 190.51 167.07 190.06 L 166.14 189.69 C 165.01 189.24 163.74 189.79 163.29 190.91 C 162.84 192.03 163.39 193.31 164.51 193.76 Z M 165.47 194.13 L 166.40 194.49 C 167.53 194.93 168.79 194.37 169.23 193.25 C 169.67 192.12 169.11 190.86 167.98 190.42 L 167.05 190.06 C 165.92 189.62 164.66 190.18 164.22 191.30 C 163.78 192.43 164.34 193.69 165.47 194.13 Z M 166.43 194.50 L 167.37 194.85 C 168.49 195.27 169.75 194.70 170.17 193.58 C 170.59 192.45 170.02 191.19 168.90 190.77 L 167.96 190.42 C 166.83 190.00 165.58 190.57 165.15 191.69 C 164.73 192.82 165.30 194.07 166.43 194.50 Z M 167.39 194.85 L 168.33 195.19 C 169.46 195.60 170.70 195.02 171.11 193.89 C 171.52 192.76 170.94 191.52 169.81 191.11 L 168.87 190.77 C 167.75 190.36 166.50 190.94 166.09 192.07 C 165.68 193.20 166.26 194.44 167.39 194.85 Z M 168.36 195.19 L 169.30 195.52 C 170.42 195.92 171.66 195.32 172.05 194.20 C 172.45 193.07 171.86 191.83 170.73 191.44 L 169.79 191.11 C 168.66 190.71 167.43 191.31 167.03 192.44 C 166.63 193.56 167.23 194.80 168.36 195.19 Z M 169.32 195.52 L 170.26 195.84 C 171.39 196.22 172.62 195.62 173.00 194.49 C 173.38 193.36 172.77 192.14 171.64 191.76 L 170.70 191.44 C 169.57 191.06 168.35 191.66 167.97 192.79 C 167.59 193.92 168.19 195.14 169.32 195.52 Z M 170.28 195.84 L 171.23 196.15 C 172.35 196.52 173.57 195.91 173.94 194.78 C 174.31 193.66 173.70 192.44 172.57 192.07 L 171.63 191.76 C 170.50 191.39 169.28 192.00 168.91 193.13 C 168.54 194.25 169.15 195.47 170.28 195.84 Z M 171.23 196.14 L 172.18 196.46 C 173.31 196.82 174.52 196.21 174.88 195.09 C 175.25 193.96 174.64 192.75 173.52 192.39 L 172.57 192.08 C 171.44 191.71 170.23 192.32 169.86 193.44 C 169.50 194.57 170.11 195.78 171.23 196.14 Z M 172.18 196.45 L 173.12 196.76 C 174.24 197.13 175.45 196.52 175.82 195.40 C 176.19 194.29 175.58 193.08 174.46 192.71 L 173.52 192.40 C 172.40 192.03 171.19 192.63 170.82 193.75 C 170.45 194.87 171.06 196.08 172.18 196.45 Z M 173.12 196.75 L 174.00 197.04 C 175.11 197.42 176.31 196.82 176.69 195.71 C 177.06 194.59 176.46 193.39 175.35 193.01 L 174.47 192.72 C 173.36 192.35 172.15 192.94 171.78 194.06 C 171.41 195.17 172.00 196.37 173.12 196.75 Z M 174.00 197.04 L 174.91 197.35 C 176.02 197.72 177.22 197.12 177.60 196.01 C 177.97 194.90 177.37 193.70 176.26 193.33 L 175.35 193.02 C 174.24 192.65 173.04 193.25 172.67 194.35 C 172.29 195.46 172.89 196.66 174.00 197.04 Z M 174.93 197.34 L 175.90 197.66 C 177.01 198.03 178.20 197.43 178.57 196.32 C 178.94 195.21 178.33 194.02 177.23 193.66 L 176.25 193.33 C 175.14 192.97 173.95 193.57 173.58 194.68 C 173.22 195.78 173.82 196.98 174.93 197.34 Z M 175.92 197.66 L 176.95 197.99 C 178.06 198.35 179.24 197.74 179.60 196.63 C 179.95 195.52 179.34 194.34 178.24 193.99 L 177.21 193.66 C 176.10 193.30 174.92 193.91 174.56 195.02 C 174.21 196.13 174.82 197.31 175.92 197.66 Z M 176.98 197.99 L 177.89 198.28 C 179.00 198.62 180.17 198.00 180.52 196.89 C 180.86 195.78 180.24 194.61 179.13 194.27 L 178.21 193.99 C 177.11 193.64 175.93 194.26 175.59 195.37 C 175.25 196.48 175.87 197.65 176.98 197.99 Z M 177.91 198.28 L 178.87 198.56 C 179.98 198.89 181.15 198.26 181.48 197.16 C 181.81 196.05 181.18 194.89 180.07 194.56 L 179.11 194.27 C 178.00 193.94 176.84 194.57 176.51 195.67 C 176.18 196.78 176.81 197.95 177.91 198.28 Z M 178.90 198.56 L 179.88 198.85 C 180.99 199.17 182.14 198.53 182.46 197.42 C 182.78 196.31 182.14 195.16 181.03 194.84 L 180.05 194.56 C 178.94 194.24 177.79 194.88 177.47 195.98 C 177.15 197.09 177.79 198.24 178.90 198.56 Z M 179.90 198.85 L 180.89 199.12 C 181.99 199.43 183.14 198.78 183.45 197.67 C 183.75 196.56 183.10 195.42 182.00 195.11 L 181.01 194.84 C 179.90 194.53 178.76 195.18 178.45 196.29 C 178.15 197.40 178.80 198.54 179.90 198.85 Z M 180.92 199.12 L 181.90 199.38 C 183.01 199.67 184.14 199.01 184.43 197.90 C 184.72 196.80 184.06 195.66 182.95 195.37 L 181.97 195.11 C 180.86 194.82 179.73 195.48 179.44 196.59 C 179.15 197.70 179.81 198.83 180.92 199.12 Z M 181.93 199.38 L 182.98 199.63 C 184.08 199.91 185.20 199.23 185.47 198.12 C 185.75 197.02 185.07 195.90 183.96 195.63 L 182.92 195.37 C 181.81 195.10 180.70 195.78 180.43 196.88 C 180.15 197.99 180.83 199.10 181.93 199.38 Z M 183.02 199.63 L 184.02 199.86 C 185.12 200.11 186.22 199.42 186.47 198.32 C 186.72 197.21 186.03 196.11 184.93 195.86 L 183.93 195.64 C 182.82 195.38 181.73 196.07 181.47 197.18 C 181.22 198.28 181.91 199.38 183.02 199.63 Z M 184.05 199.85 L 185.01 200.05 C 186.11 200.28 187.19 199.58 187.42 198.48 C 187.65 197.38 186.95 196.30 185.85 196.07 L 184.89 195.87 C 183.79 195.64 182.71 196.34 182.48 197.44 C 182.25 198.54 182.95 199.62 184.05 199.85 Z M 185.05 200.05 L 185.96 200.22 C 187.06 200.43 188.12 199.71 188.33 198.61 C 188.54 197.52 187.82 196.46 186.72 196.25 L 185.81 196.07 C 184.71 195.87 183.65 196.58 183.44 197.68 C 183.23 198.78 183.95 199.84 185.05 200.05 Z M 186.01 200.21 L 187.02 200.39 C 188.11 200.57 189.15 199.84 189.33 198.75 C 189.52 197.65 188.79 196.62 187.69 196.43 L 186.68 196.26 C 185.59 196.07 184.55 196.81 184.37 197.90 C 184.18 198.99 184.91 200.03 186.01 200.21 Z M 187.07 200.37 L 188.08 200.52 C 189.17 200.68 190.18 199.93 190.34 198.85 C 190.50 197.77 189.75 196.76 188.66 196.60 L 187.65 196.45 C 186.56 196.28 185.55 197.03 185.39 198.12 C 185.23 199.20 185.98 200.21 187.07 200.37 Z M 188.13 200.51 L 189.10 200.63 C 190.17 200.76 191.16 200.00 191.29 198.92 C 191.42 197.85 190.66 196.87 189.59 196.73 L 188.62 196.61 C 187.54 196.48 186.56 197.24 186.43 198.32 C 186.29 199.39 187.05 200.37 188.13 200.51 Z M 189.15 200.61 L 190.09 200.71 C 191.15 200.82 192.11 200.04 192.21 198.97 C 192.32 197.91 191.55 196.95 190.48 196.84 L 189.54 196.75 C 188.47 196.64 187.52 197.42 187.41 198.48 C 187.30 199.55 188.08 200.50 189.15 200.61 Z M 190.13 200.69 L 191.16 200.77 C 192.21 200.85 193.14 200.06 193.22 199.00 C 193.30 197.95 192.51 197.02 191.45 196.94 L 190.43 196.86 C 189.37 196.78 188.45 197.57 188.37 198.63 C 188.29 199.68 189.08 200.61 190.13 200.69 Z M 191.21 200.75 L 192.21 200.80 C 193.25 200.85 194.14 200.04 194.19 199.00 C 194.24 197.95 193.43 197.06 192.39 197.01 L 191.40 196.96 C 190.35 196.91 189.46 197.72 189.41 198.76 C 189.36 199.81 190.17 200.70 191.21 200.75 Z M 192.26 200.77 L 193.24 200.79 C 194.27 200.81 195.13 199.99 195.14 198.95 C 195.16 197.92 194.34 197.07 193.31 197.05 L 192.33 197.03 C 191.30 197.02 190.45 197.84 190.43 198.87 C 190.41 199.90 191.23 200.75 192.26 200.77 Z M 193.33 200.76 L 194.31 200.73 C 195.33 200.70 196.13 199.86 196.10 198.84 C 196.07 197.83 195.23 197.03 194.21 197.05 L 193.22 197.08 C 192.21 197.11 191.41 197.96 191.44 198.97 C 191.46 199.99 192.31 200.79 193.33 200.76 Z M 194.55 200.67 L 195.52 200.52 C 196.50 200.36 197.17 199.44 197.01 198.45 C 196.86 197.47 195.93 196.80 194.95 196.96 L 193.98 197.11 C 192.99 197.27 192.32 198.19 192.48 199.18 C 192.64 200.16 193.56 200.83 194.55 200.67 Z M 195.91 200.37 L 196.84 199.99 C 197.74 199.61 198.17 198.58 197.79 197.67 C 197.42 196.77 196.39 196.34 195.48 196.72 L 194.55 197.10 C 193.65 197.48 193.22 198.51 193.60 199.42 C 193.97 200.32 195.01 200.75 195.91 200.37 Z M 197.22 199.73 L 197.94 199.18 C 198.70 198.60 198.85 197.51 198.26 196.74 C 197.68 195.98 196.59 195.84 195.83 196.42 L 195.11 196.97 C 194.34 197.56 194.20 198.65 194.78 199.41 C 195.36 200.17 196.45 200.31 197.22 199.73 Z M 198.13 198.97 L 198.79 198.26 C 199.43 197.57 199.40 196.49 198.71 195.85 C 198.02 195.20 196.94 195.24 196.29 195.93 L 195.63 196.63 C 194.99 197.32 195.02 198.40 195.71 199.05 C 196.40 199.69 197.49 199.66 198.13 198.97 Z M 198.87 198.13 L 199.51 197.31 C 200.08 196.58 199.94 195.52 199.21 194.95 C 198.47 194.38 197.42 194.51 196.85 195.24 L 196.21 196.06 C 195.64 196.80 195.77 197.86 196.51 198.43 C 197.24 199.00 198.30 198.86 198.87 198.13 Z M 199.53 197.24 L 200.15 196.36 C 200.68 195.61 200.51 194.57 199.76 194.04 C 199.01 193.51 197.98 193.69 197.45 194.44 L 196.82 195.32 C 196.29 196.07 196.47 197.10 197.22 197.63 C 197.96 198.16 199.00 197.98 199.53 197.24 Z M 200.15 196.34 L 200.23 196.22 C 200.75 195.47 200.57 194.45 199.82 193.93 C 199.08 193.41 198.05 193.59 197.53 194.34 L 197.45 194.46 C 196.93 195.20 197.12 196.23 197.86 196.75 C 198.61 197.26 199.63 197.08 200.15 196.34 Z"
      fill="black"
      fill-rule="nonzero" /></svg>