<svg xmlns="http://www.w3.org/2000/svg" width="300" height="300" viewBox="0 0 300 300">
<path d="M 118.23 147.06 L 117.35 147.99 C 116.64 148.75 116.68 149.94 117.44 150.66 C 118.20 151.37 119.39 151.34 120.11 150.58 L 120.98 149.64 C 121.70 148.88 121.66 147.69 120.90 146.97 C 120.14 146.26 118.94 146.30 118.23 147.06 Z M 117.18 147.97 L 116.46 148.81 C 115.74 149.67 115.84 150.95 116.70 151.68 C 117.56 152.40 118.84 152.30 119.56 151.44 L 120.28 150.59 C 121.01 149.74 120.90 148.46 120.04 147.73 C 119.19 147.01 117.90 147.11 117.18 147.97 Z M 116.14 149.02 L 115.74 149.70 C 115.13 150.73 115.47 152.07 116.51 152.68 C 117.54 153.29 118.87 152.95 119.48 151.91 L 119.89 151.24 C 120.50 150.20 120.16 148.87 119.12 148.26 C 118.09 147.64 116.75 147.99 116.14 149.02 Z M 115.41 151.45 L 115.56 151.94 C 115.91 153.15 117.19 153.85 118.40 153.49 C 119.62 153.13 120.31 151.86 119.96 150.65 L 119.81 150.16 C 119.46 148.94 118.18 148.25 116.97 148.60 C 115.75 148.96 115.06 150.24 115.41 151.45 Z M 117.40 153.63 L 118.29 153.77 C 119.58 153.97 120.79 153.08 120.99 151.79 C 121.19 150.50 120.30 149.29 119.01 149.09 L 118.12 148.95 C 116.82 148.75 115.62 149.64 115.42 150.93 C 115.22 152.22 116.10 153.43 117.40 153.63 Z M 118.88 153.84 L 120.11 153.72 C 121.44 153.59 122.42 152.41 122.29 151.08 C 122.16 149.75 120.98 148.77 119.65 148.90 L 118.42 149.02 C 117.09 149.15 116.11 150.33 116.24 151.66 C 116.37 152.99 117.55 153.97 118.88 153.84 Z M 120.27 153.73 L 121.14 153.59 C 122.47 153.37 123.38 152.11 123.16 150.78 C 122.94 149.44 121.68 148.53 120.35 148.75 L 119.48 148.89 C 118.15 149.11 117.24 150.37 117.46 151.71 C 117.68 153.04 118.94 153.95 120.27 153.73 Z M 121.19 153.59 L 122.12 153.42 C 123.45 153.17 124.34 151.88 124.09 150.55 C 123.84 149.21 122.55 148.33 121.22 148.58 L 120.29 148.75 C 118.95 149.00 118.07 150.29 118.32 151.62 C 118.57 152.96 119.86 153.84 121.19 153.59 Z M 122.13 153.43 L 123.16 153.23 C 124.50 152.97 125.38 151.68 125.13 150.34 C 124.87 149.00 123.58 148.12 122.24 148.38 L 121.21 148.57 C 119.86 148.83 118.98 150.12 119.24 151.46 C 119.50 152.80 120.79 153.68 122.13 153.43 Z M 123.14 153.24 L 124.25 153.04 C 125.60 152.80 126.49 151.51 126.25 150.16 C 126.01 148.82 124.72 147.92 123.37 148.16 L 122.26 148.36 C 120.91 148.60 120.02 149.89 120.26 151.24 C 120.50 152.59 121.79 153.48 123.14 153.24 Z M 124.22 153.05 L 125.15 152.90 C 126.50 152.67 127.42 151.39 127.19 150.04 C 126.97 148.69 125.69 147.77 124.33 148.00 L 123.40 148.15 C 122.05 148.38 121.14 149.66 121.36 151.01 C 121.59 152.36 122.86 153.28 124.22 153.05 Z M 125.13 152.90 L 126.12 152.75 C 127.47 152.53 128.40 151.26 128.19 149.91 C 127.98 148.55 126.70 147.62 125.35 147.84 L 124.36 147.99 C 123.00 148.20 122.07 149.48 122.29 150.83 C 122.50 152.19 123.77 153.12 125.13 152.90 Z M 126.10 152.75 L 127.12 152.60 C 128.48 152.40 129.42 151.13 129.22 149.77 C 129.01 148.41 127.75 147.48 126.39 147.68 L 125.37 147.83 C 124.01 148.03 123.07 149.30 123.27 150.66 C 123.48 152.02 124.74 152.95 126.10 152.75 Z M 127.11 152.60 L 128.13 152.46 C 129.50 152.26 130.44 151.00 130.25 149.64 C 130.05 148.28 128.79 147.34 127.43 147.53 L 126.41 147.68 C 125.05 147.87 124.10 149.13 124.29 150.49 C 124.49 151.85 125.75 152.80 127.11 152.60 Z M 128.12 152.46 L 129.12 152.32 C 130.48 152.14 131.44 150.88 131.25 149.52 C 131.07 148.16 129.81 147.20 128.45 147.39 L 127.45 147.53 C 126.09 147.71 125.13 148.97 125.32 150.33 C 125.50 151.69 126.76 152.65 128.12 152.46 Z M 129.10 152.33 L 130.15 152.19 C 131.51 152.02 132.48 150.77 132.30 149.40 C 132.13 148.04 130.88 147.08 129.51 147.25 L 128.47 147.39 C 127.10 147.56 126.14 148.81 126.31 150.18 C 126.49 151.54 127.74 152.50 129.10 152.33 Z M 130.13 152.19 L 131.16 152.07 C 132.53 151.90 133.50 150.66 133.34 149.29 C 133.17 147.93 131.93 146.96 130.56 147.12 L 129.53 147.25 C 128.16 147.42 127.19 148.66 127.36 150.02 C 127.53 151.39 128.77 152.36 130.13 152.19 Z M 131.15 152.07 L 132.13 151.95 C 133.50 151.79 134.48 150.56 134.32 149.19 C 134.16 147.82 132.92 146.85 131.55 147.01 L 130.57 147.12 C 129.21 147.28 128.23 148.52 128.39 149.89 C 128.55 151.25 129.79 152.23 131.15 152.07 Z M 132.13 151.96 L 133.08 151.85 C 134.45 151.69 135.43 150.45 135.27 149.09 C 135.11 147.72 133.88 146.74 132.51 146.90 L 131.56 147.01 C 130.19 147.16 129.21 148.40 129.37 149.77 C 129.53 151.13 130.76 152.11 132.13 151.96 Z M 133.08 151.85 L 134.03 151.73 C 135.40 151.58 136.38 150.34 136.22 148.97 C 136.06 147.61 134.82 146.63 133.46 146.79 L 132.51 146.90 C 131.14 147.06 130.16 148.29 130.32 149.66 C 130.48 151.03 131.72 152.00 133.08 151.85 Z M 134.04 151.73 L 134.99 151.62 C 136.36 151.46 137.33 150.21 137.17 148.85 C 137.00 147.48 135.76 146.51 134.40 146.67 L 133.45 146.79 C 132.08 146.95 131.11 148.19 131.27 149.56 C 131.43 150.92 132.67 151.90 134.04 151.73 Z M 135.00 151.62 L 135.97 151.50 C 137.33 151.33 138.30 150.09 138.13 148.72 C 137.96 147.36 136.72 146.39 135.36 146.56 L 134.39 146.68 C 133.02 146.84 132.05 148.09 132.22 149.45 C 132.39 150.82 133.63 151.79 135.00 151.62 Z M 135.97 151.50 L 136.96 151.37 C 138.32 151.20 139.29 149.96 139.12 148.60 C 138.95 147.23 137.71 146.26 136.34 146.43 L 135.35 146.56 C 133.99 146.73 133.02 147.97 133.19 149.33 C 133.36 150.70 134.60 151.67 135.97 151.50 Z M 136.96 151.37 L 137.97 151.25 C 139.34 151.08 140.30 149.84 140.14 148.47 C 139.97 147.11 138.72 146.14 137.36 146.31 L 136.35 146.44 C 134.98 146.60 134.01 147.85 134.18 149.21 C 134.35 150.57 135.59 151.54 136.96 151.37 Z M 137.97 151.25 L 139.01 151.12 C 140.37 150.95 141.34 149.71 141.17 148.35 C 141.01 146.99 139.77 146.02 138.40 146.18 L 137.36 146.31 C 136.00 146.48 135.03 147.72 135.20 149.08 C 135.36 150.44 136.61 151.41 137.97 151.25 Z M 139.00 151.12 L 140.04 150.99 C 141.40 150.83 142.37 149.59 142.21 148.23 C 142.05 146.87 140.81 145.90 139.45 146.06 L 138.41 146.18 C 137.05 146.35 136.07 147.58 136.24 148.95 C 136.40 150.31 137.64 151.28 139.00 151.12 Z M 140.04 150.99 L 141.07 150.87 C 142.43 150.71 143.41 149.47 143.25 148.11 C 143.08 146.75 141.85 145.78 140.49 145.94 L 139.45 146.06 C 138.09 146.22 137.12 147.46 137.28 148.82 C 137.44 150.18 138.67 151.15 140.04 150.99 Z M 141.07 150.86 L 142.09 150.74 C 143.45 150.58 144.42 149.35 144.26 147.99 C 144.09 146.63 142.86 145.66 141.50 145.82 L 140.49 145.94 C 139.13 146.10 138.16 147.34 138.32 148.70 C 138.48 150.06 139.71 151.03 141.07 150.86 Z M 142.09 150.74 L 143.06 150.62 C 144.41 150.46 145.38 149.23 145.22 147.87 C 145.05 146.51 143.82 145.54 142.46 145.71 L 141.50 145.83 C 140.14 145.99 139.17 147.22 139.34 148.58 C 139.50 149.94 140.73 150.90 142.09 150.74 Z M 143.07 150.62 L 143.97 150.51 C 145.32 150.34 146.28 149.10 146.12 147.75 C 145.95 146.39 144.71 145.43 143.36 145.60 L 142.45 145.71 C 141.10 145.88 140.14 147.12 140.31 148.47 C 140.47 149.83 141.71 150.79 143.07 150.62 Z M 143.98 150.50 L 144.90 150.38 C 146.25 150.20 147.20 148.96 147.02 147.61 C 146.84 146.26 145.60 145.31 144.25 145.49 L 143.34 145.61 C 141.99 145.78 141.04 147.02 141.22 148.38 C 141.39 149.73 142.63 150.68 143.98 150.50 Z M 144.91 150.37 L 145.80 150.25 C 147.15 150.07 148.09 148.82 147.91 147.48 C 147.72 146.13 146.48 145.19 145.14 145.37 L 144.24 145.49 C 142.89 145.68 141.95 146.92 142.14 148.27 C 142.32 149.62 143.56 150.56 144.91 150.37 Z M 145.81 150.24 L 146.77 150.11 C 148.12 149.92 149.06 148.68 148.87 147.34 C 148.68 145.99 147.44 145.06 146.10 145.24 L 145.13 145.38 C 143.79 145.56 142.85 146.80 143.04 148.15 C 143.22 149.49 144.46 150.43 145.81 150.24 Z M 146.77 150.11 L 147.89 149.95 C 149.24 149.77 150.17 148.53 149.99 147.19 C 149.81 145.85 148.57 144.91 147.23 145.09 L 146.10 145.25 C 144.76 145.43 143.82 146.67 144.01 148.01 C 144.19 149.35 145.43 150.29 146.77 150.11 Z M 147.89 149.95 L 148.84 149.82 C 150.18 149.64 151.12 148.41 150.94 147.07 C 150.76 145.73 149.52 144.79 148.18 144.97 L 147.23 145.10 C 145.89 145.28 144.95 146.51 145.13 147.85 C 145.31 149.19 146.55 150.13 147.89 149.95 Z M 148.83 149.82 L 149.75 149.70 C 151.09 149.52 152.03 148.29 151.85 146.95 C 151.68 145.61 150.45 144.67 149.11 144.85 L 148.19 144.97 C 146.85 145.15 145.91 146.38 146.09 147.72 C 146.26 149.06 147.49 150.00 148.83 149.82 Z M 149.75 149.69 L 150.73 149.56 C 152.07 149.39 153.01 148.16 152.84 146.82 C 152.66 145.48 151.43 144.54 150.09 144.72 L 149.11 144.85 C 147.77 145.03 146.83 146.25 147.01 147.59 C 147.18 148.93 148.41 149.87 149.75 149.69 Z M 150.73 149.56 L 151.76 149.43 C 153.10 149.25 154.04 148.03 153.86 146.69 C 153.69 145.35 152.46 144.41 151.12 144.59 L 150.10 144.72 C 148.76 144.90 147.82 146.12 147.99 147.46 C 148.17 148.80 149.39 149.74 150.73 149.56 Z M 151.76 149.43 L 152.81 149.29 C 154.15 149.11 155.09 147.89 154.91 146.55 C 154.74 145.22 153.51 144.28 152.18 144.45 L 151.13 144.59 C 149.79 144.76 148.85 145.99 149.02 147.32 C 149.20 148.66 150.42 149.60 151.76 149.43 Z M 152.81 149.29 L 153.86 149.15 C 155.19 148.97 156.13 147.75 155.96 146.42 C 155.78 145.08 154.56 144.14 153.22 144.31 L 152.18 144.45 C 150.84 144.63 149.90 145.85 150.07 147.19 C 150.25 148.52 151.47 149.46 152.81 149.29 Z M 153.86 149.15 L 154.88 149.01 C 156.22 148.84 157.16 147.61 156.98 146.28 C 156.81 144.95 155.58 144.01 154.25 144.18 L 153.22 144.32 C 151.89 144.49 150.95 145.72 151.13 147.05 C 151.30 148.38 152.52 149.32 153.86 149.15 Z M 154.89 149.01 L 155.91 148.87 C 157.25 148.70 158.18 147.48 158.01 146.14 C 157.83 144.81 156.61 143.87 155.28 144.05 L 154.25 144.19 C 152.92 144.36 151.98 145.58 152.15 146.92 C 152.33 148.25 153.55 149.19 154.89 149.01 Z M 155.91 148.87 L 156.92 148.74 C 158.25 148.56 159.18 147.34 159.01 146.01 C 158.83 144.68 157.61 143.75 156.28 143.92 L 155.28 144.06 C 153.95 144.23 153.01 145.45 153.19 146.78 C 153.36 148.11 154.58 149.04 155.91 148.87 Z M 156.91 148.73 L 157.89 148.60 C 159.21 148.43 160.15 147.21 159.97 145.89 C 159.80 144.56 158.59 143.63 157.26 143.80 L 156.29 143.93 C 154.96 144.10 154.03 145.32 154.20 146.64 C 154.37 147.97 155.59 148.90 156.91 148.73 Z M 157.88 148.60 L 158.84 148.47 C 160.16 148.31 161.10 147.10 160.93 145.77 C 160.76 144.45 159.55 143.51 158.23 143.68 L 157.27 143.81 C 155.94 143.98 155.01 145.19 155.18 146.51 C 155.35 147.83 156.56 148.77 157.88 148.60 Z M 158.83 148.47 L 159.80 148.35 C 161.12 148.19 162.06 146.98 161.89 145.66 C 161.73 144.34 160.53 143.40 159.20 143.57 L 158.24 143.69 C 156.92 143.85 155.98 145.06 156.14 146.38 C 156.31 147.70 157.51 148.63 158.83 148.47 Z M 159.79 148.35 L 160.77 148.23 C 162.09 148.07 163.03 146.87 162.88 145.56 C 162.72 144.24 161.52 143.30 160.21 143.46 L 159.22 143.57 C 157.90 143.73 156.96 144.93 157.12 146.24 C 157.27 147.56 158.47 148.50 159.79 148.35 Z M 160.76 148.22 L 161.78 148.11 C 163.10 147.96 164.04 146.77 163.89 145.46 C 163.74 144.14 162.56 143.19 161.24 143.34 L 160.22 143.46 C 158.91 143.61 157.96 144.80 158.11 146.11 C 158.26 147.43 159.45 148.37 160.76 148.22 Z M 161.77 148.10 L 162.76 148.00 C 164.07 147.85 165.02 146.67 164.88 145.36 C 164.74 144.05 163.56 143.10 162.25 143.24 L 161.26 143.35 C 159.94 143.49 158.99 144.67 159.13 145.98 C 159.28 147.30 160.46 148.25 161.77 148.10 Z M 162.75 147.99 L 163.77 147.89 C 165.08 147.75 166.04 146.58 165.90 145.27 C 165.76 143.95 164.59 143.00 163.28 143.14 L 162.26 143.24 C 160.95 143.38 159.99 144.55 160.13 145.86 C 160.26 147.18 161.44 148.13 162.75 147.99 Z M 163.76 147.89 L 164.80 147.78 C 166.11 147.65 167.06 146.48 166.93 145.17 C 166.80 143.86 165.63 142.91 164.32 143.04 L 163.29 143.14 C 161.98 143.27 161.02 144.44 161.15 145.75 C 161.28 147.06 162.45 148.02 163.76 147.89 Z M 164.79 147.78 L 165.82 147.68 C 167.13 147.56 168.09 146.39 167.96 145.08 C 167.83 143.77 166.67 142.81 165.36 142.94 L 164.33 143.04 C 163.02 143.16 162.06 144.33 162.19 145.64 C 162.31 146.95 163.48 147.91 164.79 147.78 Z M 165.81 147.68 L 166.82 147.58 C 168.13 147.46 169.09 146.30 168.97 145.00 C 168.85 143.69 167.69 142.73 166.38 142.85 L 165.37 142.94 C 164.06 143.06 163.10 144.22 163.22 145.53 C 163.34 146.84 164.50 147.80 165.81 147.68 Z M 166.81 147.58 L 167.78 147.49 C 169.09 147.38 170.06 146.22 169.94 144.92 C 169.82 143.61 168.66 142.65 167.36 142.76 L 166.39 142.85 C 165.08 142.97 164.12 144.12 164.23 145.43 C 164.35 146.74 165.51 147.70 166.81 147.58 Z M 167.78 147.49 L 168.70 147.41 C 170.00 147.30 170.97 146.15 170.85 144.84 C 170.74 143.54 169.59 142.57 168.28 142.69 L 167.37 142.77 C 166.06 142.88 165.10 144.03 165.21 145.33 C 165.32 146.64 166.47 147.61 167.78 147.49 Z M 168.69 147.41 L 169.85 147.31 C 171.15 147.20 172.12 146.06 172.01 144.76 C 171.90 143.45 170.76 142.48 169.45 142.59 L 168.29 142.69 C 166.99 142.80 166.02 143.94 166.13 145.24 C 166.24 146.55 167.38 147.52 168.69 147.41 Z M 169.83 147.31 L 170.90 147.23 C 172.20 147.13 173.18 145.99 173.08 144.69 C 172.98 143.39 171.84 142.42 170.54 142.52 L 169.47 142.60 C 168.17 142.70 167.20 143.83 167.30 145.13 C 167.40 146.43 168.53 147.41 169.83 147.31 Z M 170.88 147.22 L 171.86 147.15 C 173.16 147.07 174.14 145.94 174.05 144.64 C 173.96 143.35 172.84 142.37 171.54 142.45 L 170.56 142.52 C 169.26 142.61 168.28 143.73 168.37 145.03 C 168.46 146.33 169.58 147.31 170.88 147.22 Z M 171.83 147.15 L 172.74 147.10 C 174.04 147.03 175.03 145.92 174.96 144.62 C 174.89 143.32 173.78 142.33 172.48 142.41 L 171.57 142.46 C 170.27 142.53 169.28 143.64 169.35 144.94 C 169.42 146.23 170.54 147.22 171.83 147.15 Z M 172.71 147.10 L 173.59 147.06 C 174.89 147.00 175.89 145.91 175.83 144.61 C 175.78 143.32 174.68 142.31 173.39 142.37 L 172.51 142.41 C 171.22 142.47 170.21 143.56 170.27 144.85 C 170.33 146.15 171.42 147.15 172.71 147.10 Z M 173.56 147.05 L 174.59 147.02 C 175.88 146.99 176.90 145.91 176.86 144.62 C 176.82 143.32 175.74 142.31 174.45 142.34 L 173.42 142.37 C 172.13 142.41 171.11 143.49 171.15 144.78 C 171.19 146.07 172.27 147.09 173.56 147.05 Z M 174.56 147.02 L 175.59 147.00 C 176.88 146.98 177.91 145.92 177.89 144.63 C 177.87 143.34 176.81 142.31 175.51 142.33 L 174.48 142.35 C 173.19 142.37 172.16 143.43 172.18 144.72 C 172.20 146.01 173.27 147.04 174.56 147.02 Z M 175.57 147.00 L 176.57 146.99 C 177.86 146.99 178.89 145.93 178.89 144.64 C 178.88 143.35 177.82 142.32 176.53 142.32 L 175.54 142.33 C 174.25 142.34 173.21 143.39 173.22 144.68 C 173.23 145.97 174.28 147.01 175.57 147.00 Z M 176.55 146.99 L 177.50 146.99 C 178.79 146.99 179.83 145.94 179.83 144.65 C 179.83 143.37 178.78 142.32 177.49 142.33 L 176.55 142.33 C 175.26 142.33 174.22 143.38 174.22 144.66 C 174.22 145.95 175.27 146.99 176.55 146.99 Z M 177.49 146.99 L 178.50 146.99 C 179.78 146.99 180.83 145.95 180.83 144.66 C 180.83 143.38 179.79 142.33 178.51 142.33 L 177.50 142.33 C 176.21 142.33 175.17 143.37 175.17 144.65 C 175.17 145.94 176.21 146.98 177.49 146.99 Z M 178.45 146.98 L 179.44 147.00 C 180.73 147.03 181.79 146.01 181.82 144.73 C 181.84 143.45 180.83 142.39 179.54 142.36 L 178.55 142.34 C 177.27 142.31 176.21 143.33 176.18 144.61 C 176.15 145.89 177.17 146.95 178.45 146.98 Z M 179.33 146.99 L 180.30 147.06 C 181.58 147.15 182.69 146.19 182.78 144.91 C 182.86 143.63 181.90 142.53 180.63 142.44 L 179.65 142.37 C 178.38 142.28 177.27 143.24 177.18 144.52 C 177.09 145.80 178.06 146.90 179.33 146.99 Z M 180.15 147.04 L 181.11 147.17 C 182.38 147.35 183.54 146.47 183.72 145.20 C 183.90 143.94 183.02 142.77 181.75 142.60 L 180.78 142.46 C 179.52 142.29 178.35 143.17 178.18 144.43 C 178.00 145.69 178.88 146.86 180.15 147.04 Z M 180.97 147.14 L 181.91 147.33 C 183.16 147.59 184.38 146.79 184.63 145.54 C 184.89 144.29 184.08 143.07 182.84 142.82 L 181.90 142.63 C 180.65 142.37 179.43 143.18 179.18 144.42 C 178.92 145.67 179.72 146.89 180.97 147.14 Z M 181.82 147.31 L 182.80 147.55 C 184.03 147.85 185.28 147.10 185.58 145.87 C 185.89 144.64 185.13 143.39 183.90 143.09 L 182.93 142.85 C 181.69 142.54 180.45 143.29 180.14 144.53 C 179.84 145.76 180.59 147.00 181.82 147.31 Z M 182.75 147.53 L 183.75 147.80 C 184.97 148.13 186.23 147.41 186.56 146.19 C 186.89 144.97 186.17 143.71 184.95 143.38 L 183.95 143.10 C 182.73 142.77 181.47 143.50 181.14 144.72 C 180.81 145.94 181.53 147.20 182.75 147.53 Z M 183.73 147.79 L 184.26 147.94 C 185.48 148.28 186.74 147.57 187.08 146.35 C 187.42 145.13 186.71 143.87 185.49 143.53 L 184.96 143.38 C 183.75 143.04 182.48 143.76 182.14 144.97 C 181.80 146.19 182.51 147.45 183.73 147.79 Z"
      fill="black"
      fill-rule="nonzero" /></svg>