<svg xmlns="http://www.w3.org/2000/svg" width="300" height="300" viewBox="0 0 300 300">
<path d="M 142.89 100.29 L 143.80 100.61 C 144.91 101.01 146.14 100.42 146.53 99.30 C 146.93 98.19 146.34 96.96 145.22 96.57 L 144.32 96.25 C 143.20 95.85 141.98 96.44 141.58 97.55 C 141.19 98.67 141.77 99.90 142.89 100.29 Z M 143.77 100.58 L 144.69 100.93 C 145.79 101.34 147.02 100.78 147.43 99.67 C 147.84 98.57 147.28 97.35 146.17 96.94 L 145.25 96.59 C 144.15 96.18 142.92 96.74 142.51 97.84 C 142.10 98.95 142.66 100.17 143.77 100.58 Z M 144.63 100.89 L 145.58 101.28 C 146.66 101.72 147.90 101.20 148.34 100.12 C 148.78 99.04 148.26 97.81 147.18 97.36 L 146.23 96.97 C 145.15 96.53 143.92 97.05 143.47 98.13 C 143.03 99.21 143.55 100.45 144.63 100.89 Z M 145.51 101.23 L 146.43 101.65 C 147.49 102.14 148.73 101.67 149.22 100.62 C 149.70 99.56 149.23 98.32 148.18 97.83 L 147.25 97.41 C 146.20 96.93 144.95 97.39 144.47 98.45 C 143.99 99.50 144.45 100.75 145.51 101.23 Z M 146.36 101.60 L 147.26 102.06 C 148.28 102.58 149.54 102.18 150.06 101.15 C 150.59 100.12 150.18 98.87 149.15 98.34 L 148.25 97.88 C 147.23 97.36 145.97 97.77 145.45 98.80 C 144.92 99.82 145.33 101.08 146.36 101.60 Z M 147.18 102.01 L 148.07 102.51 C 149.06 103.08 150.33 102.73 150.89 101.73 C 151.46 100.73 151.11 99.47 150.12 98.90 L 149.23 98.40 C 148.23 97.83 146.97 98.18 146.40 99.18 C 145.84 100.17 146.18 101.44 147.18 102.01 Z M 147.98 102.44 L 148.81 102.98 C 149.77 103.59 151.05 103.32 151.66 102.36 C 152.28 101.40 152.00 100.12 151.04 99.51 L 150.21 98.97 C 149.25 98.35 147.97 98.63 147.36 99.59 C 146.74 100.55 147.02 101.82 147.98 102.44 Z M 148.69 102.89 L 149.52 103.51 C 150.43 104.19 151.71 104.00 152.40 103.10 C 153.08 102.19 152.89 100.90 151.99 100.22 L 151.16 99.60 C 150.25 98.92 148.97 99.10 148.28 100.01 C 147.60 100.92 147.79 102.21 148.69 102.89 Z M 149.35 103.37 L 150.09 104.05 C 150.92 104.83 152.22 104.78 153.00 103.95 C 153.77 103.11 153.72 101.81 152.89 101.04 L 152.15 100.35 C 151.32 99.58 150.02 99.63 149.24 100.46 C 148.47 101.29 148.52 102.60 149.35 103.37 Z M 149.89 103.85 L 150.51 104.60 C 151.23 105.48 152.53 105.61 153.41 104.89 C 154.29 104.17 154.42 102.87 153.70 101.99 L 153.08 101.24 C 152.36 100.36 151.06 100.23 150.18 100.95 C 149.30 101.67 149.17 102.97 149.89 103.85 Z M 150.33 104.35 L 150.82 105.18 C 151.40 106.16 152.67 106.48 153.65 105.90 C 154.63 105.32 154.95 104.06 154.37 103.07 L 153.88 102.24 C 153.30 101.26 152.03 100.94 151.05 101.52 C 150.07 102.10 149.75 103.37 150.33 104.35 Z M 150.69 104.91 L 151.06 105.81 C 151.49 106.87 152.70 107.37 153.75 106.94 C 154.81 106.50 155.31 105.29 154.88 104.24 L 154.51 103.34 C 154.07 102.29 152.86 101.78 151.81 102.22 C 150.75 102.65 150.25 103.86 150.69 104.91 Z M 150.98 105.59 L 151.26 106.56 C 151.57 107.65 152.71 108.29 153.80 107.98 C 154.90 107.67 155.54 106.53 155.23 105.43 L 154.95 104.47 C 154.64 103.37 153.50 102.73 152.41 103.04 C 151.31 103.35 150.67 104.49 150.98 105.59 Z M 151.21 106.37 L 151.40 107.38 C 151.61 108.50 152.68 109.24 153.80 109.03 C 154.92 108.82 155.66 107.75 155.46 106.63 L 155.27 105.62 C 155.06 104.50 153.99 103.76 152.87 103.97 C 151.75 104.17 151.01 105.25 151.21 106.37 Z M 151.39 107.22 L 151.50 108.24 C 151.62 109.36 152.63 110.18 153.76 110.05 C 154.88 109.93 155.70 108.92 155.58 107.80 L 155.47 106.78 C 155.35 105.66 154.33 104.84 153.21 104.97 C 152.08 105.09 151.27 106.10 151.39 107.22 Z M 151.51 108.10 L 151.55 109.11 C 151.60 110.23 152.54 111.10 153.66 111.05 C 154.78 111.00 155.65 110.06 155.60 108.94 L 155.56 107.93 C 155.51 106.81 154.57 105.94 153.45 105.99 C 152.33 106.04 151.47 106.98 151.51 108.10 Z M 151.58 108.99 L 151.56 109.99 C 151.54 111.09 152.42 112.00 153.53 112.02 C 154.63 112.04 155.54 111.16 155.56 110.06 L 155.58 109.06 C 155.60 107.96 154.72 107.04 153.61 107.02 C 152.51 107.01 151.60 107.89 151.58 108.99 Z M 151.59 109.88 L 151.52 110.86 C 151.44 111.95 152.26 112.89 153.35 112.97 C 154.43 113.05 155.38 112.23 155.46 111.15 L 155.53 110.16 C 155.61 109.08 154.79 108.13 153.70 108.05 C 152.62 107.97 151.67 108.79 151.59 109.88 Z M 151.56 110.75 L 151.43 111.74 C 151.29 112.81 152.04 113.79 153.11 113.93 C 154.17 114.07 155.15 113.31 155.29 112.25 L 155.42 111.26 C 155.56 110.19 154.81 109.21 153.74 109.07 C 152.68 108.93 151.70 109.68 151.56 110.75 Z M 151.48 111.61 L 151.28 112.58 C 151.07 113.62 151.74 114.64 152.78 114.85 C 153.82 115.06 154.83 114.39 155.05 113.35 L 155.24 112.38 C 155.45 111.34 154.78 110.32 153.74 110.11 C 152.70 109.90 151.69 110.57 151.48 111.61 Z M 151.34 112.44 L 151.07 113.41 C 150.78 114.42 151.36 115.46 152.37 115.75 C 153.37 116.04 154.42 115.45 154.71 114.45 L 154.98 113.48 C 155.27 112.48 154.69 111.43 153.68 111.14 C 152.68 110.86 151.63 111.44 151.34 112.44 Z M 151.13 113.28 L 150.82 114.13 C 150.46 115.10 150.96 116.18 151.93 116.53 C 152.90 116.89 153.98 116.39 154.34 115.42 L 154.65 114.58 C 155.00 113.60 154.51 112.53 153.54 112.17 C 152.56 111.81 151.49 112.31 151.13 113.28 Z M 150.87 114.02 L 150.50 114.86 C 150.09 115.80 150.52 116.90 151.46 117.32 C 152.40 117.73 153.49 117.30 153.91 116.36 L 154.28 115.52 C 154.69 114.58 154.27 113.49 153.33 113.07 C 152.39 112.66 151.29 113.08 150.87 114.02 Z M 150.55 114.78 L 150.10 115.68 C 149.65 116.59 150.02 117.70 150.93 118.16 C 151.84 118.62 152.95 118.25 153.41 117.34 L 153.86 116.44 C 154.32 115.53 153.95 114.42 153.04 113.96 C 152.12 113.50 151.01 113.87 150.55 114.78 Z M 150.15 115.62 L 149.61 116.60 C 149.12 117.49 149.45 118.61 150.33 119.10 C 151.22 119.59 152.34 119.26 152.83 118.37 L 153.37 117.39 C 153.86 116.50 153.53 115.39 152.64 114.90 C 151.75 114.41 150.64 114.73 150.15 115.62 Z M 149.64 116.57 L 149.13 117.45 C 148.62 118.32 148.92 119.44 149.79 119.95 C 150.66 120.45 151.78 120.16 152.29 119.28 L 152.80 118.41 C 153.31 117.53 153.01 116.41 152.14 115.91 C 151.27 115.40 150.15 115.69 149.64 116.57 Z M 149.15 117.42 L 148.64 118.26 C 148.12 119.12 148.40 120.24 149.27 120.76 C 150.13 121.28 151.25 121.00 151.77 120.14 L 152.27 119.31 C 152.79 118.44 152.51 117.32 151.65 116.80 C 150.79 116.28 149.67 116.56 149.15 117.42 Z M 148.66 118.24 L 148.13 119.10 C 147.60 119.96 147.86 121.08 148.71 121.61 C 149.56 122.14 150.69 121.88 151.22 121.02 L 151.75 120.16 C 152.28 119.31 152.02 118.18 151.17 117.65 C 150.31 117.12 149.19 117.39 148.66 118.24 Z M 148.14 119.08 L 147.58 119.96 C 147.04 120.80 147.29 121.92 148.14 122.46 C 148.98 123.00 150.10 122.76 150.64 121.91 L 151.20 121.04 C 151.74 120.20 151.49 119.07 150.65 118.53 C 149.80 117.99 148.68 118.24 148.14 119.08 Z M 147.60 119.94 L 147.04 120.79 C 146.49 121.63 146.72 122.75 147.55 123.30 C 148.38 123.85 149.51 123.62 150.06 122.79 L 150.62 121.93 C 151.18 121.10 150.94 119.97 150.11 119.42 C 149.28 118.87 148.15 119.10 147.60 119.94 Z M 147.06 120.77 L 146.49 121.60 C 145.93 122.42 146.14 123.55 146.96 124.11 C 147.79 124.67 148.91 124.46 149.47 123.64 L 150.04 122.81 C 150.60 121.99 150.39 120.86 149.57 120.30 C 148.74 119.74 147.62 119.95 147.06 120.77 Z M 146.51 121.57 L 145.88 122.46 C 145.30 123.27 145.49 124.40 146.30 124.98 C 147.11 125.56 148.24 125.37 148.82 124.55 L 149.45 123.67 C 150.03 122.85 149.84 121.73 149.03 121.15 C 148.22 120.57 147.09 120.76 146.51 121.57 Z M 145.91 122.43 L 145.29 123.25 C 144.69 124.05 144.85 125.18 145.65 125.78 C 146.44 126.37 147.57 126.21 148.17 125.42 L 148.79 124.59 C 149.39 123.79 149.23 122.66 148.43 122.07 C 147.64 121.47 146.51 121.63 145.91 122.43 Z M 145.32 123.21 L 144.70 123.98 C 144.08 124.76 144.21 125.90 144.99 126.52 C 145.77 127.14 146.90 127.01 147.52 126.23 L 148.14 125.46 C 148.76 124.68 148.63 123.54 147.85 122.92 C 147.07 122.30 145.94 122.43 145.32 123.21 Z M 144.74 123.94 L 144.12 124.67 C 143.48 125.43 143.57 126.56 144.33 127.21 C 145.09 127.85 146.23 127.76 146.87 127.00 L 147.49 126.27 C 148.13 125.51 148.04 124.38 147.28 123.73 C 146.52 123.09 145.38 123.18 144.74 123.94 Z M 144.16 124.62 L 143.54 125.31 C 142.87 126.05 142.93 127.19 143.67 127.86 C 144.40 128.52 145.54 128.47 146.21 127.73 L 146.83 127.04 C 147.50 126.30 147.44 125.17 146.71 124.50 C 145.97 123.83 144.83 123.89 144.16 124.62 Z M 143.58 125.27 L 142.93 125.94 C 142.23 126.65 142.25 127.80 142.97 128.49 C 143.68 129.18 144.82 129.16 145.51 128.45 L 146.17 127.78 C 146.86 127.06 146.84 125.92 146.13 125.23 C 145.41 124.53 144.27 124.55 143.58 125.27 Z M 142.97 125.90 L 142.28 126.56 C 141.57 127.25 141.55 128.39 142.24 129.11 C 142.93 129.83 144.07 129.85 144.79 129.15 L 145.48 128.49 C 146.19 127.80 146.21 126.66 145.52 125.94 C 144.83 125.22 143.68 125.20 142.97 125.90 Z M 142.32 126.52 L 141.59 127.18 C 140.85 127.86 140.80 129.00 141.47 129.74 C 142.14 130.48 143.29 130.53 144.03 129.86 L 144.76 129.19 C 145.49 128.52 145.55 127.37 144.87 126.64 C 144.20 125.90 143.06 125.84 142.32 126.52 Z M 141.62 127.15 L 140.83 127.84 C 140.07 128.50 139.99 129.64 140.65 130.40 C 141.31 131.15 142.45 131.23 143.21 130.57 L 144.00 129.89 C 144.75 129.23 144.83 128.09 144.17 127.33 C 143.52 126.58 142.37 126.50 141.62 127.15 Z M 140.85 127.82 L 140.03 128.51 C 139.26 129.15 139.16 130.30 139.81 131.07 C 140.45 131.83 141.60 131.93 142.37 131.29 L 143.19 130.60 C 143.95 129.95 144.05 128.81 143.41 128.04 C 142.76 127.27 141.62 127.17 140.85 127.82 Z M 140.04 128.49 L 139.27 129.13 C 138.50 129.76 138.38 130.91 139.02 131.68 C 139.66 132.46 140.80 132.57 141.58 131.94 L 142.35 131.30 C 143.13 130.66 143.24 129.52 142.60 128.74 C 141.96 127.97 140.82 127.86 140.04 128.49 Z M 139.29 129.11 L 138.48 129.76 C 137.70 130.39 137.57 131.53 138.20 132.32 C 138.83 133.10 139.97 133.22 140.76 132.60 L 141.56 131.95 C 142.34 131.32 142.47 130.18 141.84 129.39 C 141.21 128.61 140.07 128.49 139.29 129.11 Z M 138.50 129.75 L 137.68 130.39 C 136.89 131.00 136.75 132.15 137.37 132.94 C 137.99 133.73 139.13 133.87 139.92 133.25 L 140.74 132.61 C 141.53 131.99 141.67 130.85 141.05 130.06 C 140.43 129.27 139.29 129.13 138.50 129.75 Z M 137.70 130.37 L 136.89 130.98 C 136.09 131.59 135.94 132.73 136.54 133.53 C 137.15 134.33 138.29 134.49 139.09 133.88 L 139.90 133.27 C 140.70 132.66 140.86 131.52 140.25 130.72 C 139.64 129.92 138.50 129.76 137.70 130.37 Z M 136.92 130.96 L 136.14 131.53 C 135.33 132.12 135.15 133.26 135.74 134.07 C 136.33 134.88 137.47 135.06 138.28 134.47 L 139.06 133.90 C 139.87 133.31 140.05 132.17 139.46 131.36 C 138.87 130.55 137.73 130.37 136.92 130.96 Z M 136.18 131.50 L 135.33 132.08 C 134.50 132.65 134.29 133.79 134.86 134.61 C 135.42 135.44 136.56 135.66 137.39 135.09 L 138.24 134.50 C 139.07 133.93 139.28 132.80 138.71 131.97 C 138.14 131.14 137.01 130.93 136.18 131.50 Z M 135.38 132.04 L 134.49 132.60 C 133.64 133.14 133.39 134.27 133.92 135.12 C 134.46 135.98 135.59 136.23 136.44 135.69 L 137.33 135.13 C 138.19 134.59 138.44 133.46 137.90 132.61 C 137.36 131.76 136.23 131.50 135.38 132.04 Z M 134.54 132.56 L 133.71 133.05 C 132.83 133.56 132.54 134.69 133.05 135.56 C 133.56 136.43 134.68 136.73 135.55 136.22 L 136.39 135.73 C 137.27 135.22 137.56 134.10 137.05 133.22 C 136.54 132.35 135.42 132.05 134.54 132.56 Z M 133.74 133.02 L 132.92 133.48 C 132.03 133.97 131.71 135.09 132.20 135.98 C 132.69 136.87 133.81 137.19 134.70 136.70 L 135.52 136.25 C 136.41 135.76 136.73 134.64 136.24 133.75 C 135.75 132.86 134.63 132.53 133.74 133.02 Z M 132.93 133.46 L 132.09 133.92 C 131.19 134.40 130.86 135.52 131.34 136.42 C 131.83 137.32 132.95 137.65 133.85 137.17 L 134.69 136.71 C 135.59 136.23 135.92 135.11 135.43 134.21 C 134.95 133.31 133.83 132.98 132.93 133.46 Z M 132.08 133.91 L 131.21 134.38 C 130.31 134.88 129.98 136.01 130.47 136.91 C 130.96 137.81 132.09 138.14 132.99 137.65 L 133.86 137.18 C 134.76 136.68 135.09 135.55 134.60 134.65 C 134.11 133.75 132.98 133.42 132.08 133.91 Z M 131.20 134.38 L 130.31 134.87 C 129.40 135.36 129.07 136.50 129.57 137.41 C 130.07 138.32 131.21 138.65 132.12 138.15 L 133.01 137.66 C 133.91 137.16 134.24 136.02 133.74 135.11 C 133.24 134.21 132.10 133.88 131.20 134.38 Z M 130.30 134.86 L 129.41 135.35 C 128.50 135.86 128.17 137.01 128.67 137.92 C 129.18 138.83 130.33 139.16 131.24 138.65 L 132.13 138.16 C 133.04 137.65 133.37 136.50 132.86 135.59 C 132.36 134.68 131.21 134.35 130.30 134.86 Z M 129.40 135.34 L 128.53 135.83 C 127.61 136.34 127.28 137.50 127.80 138.42 C 128.31 139.33 129.47 139.66 130.39 139.15 L 131.25 138.66 C 132.17 138.15 132.50 136.99 131.99 136.07 C 131.47 135.15 130.31 134.83 129.40 135.34 Z M 128.51 135.81 L 127.61 136.32 C 126.68 136.85 126.36 138.02 126.88 138.95 C 127.41 139.87 128.58 140.20 129.51 139.67 L 130.41 139.16 C 131.33 138.64 131.66 137.46 131.13 136.54 C 130.61 135.61 129.43 135.29 128.51 135.81 Z M 127.54 136.32 L 126.68 136.84 C 125.76 137.40 125.46 138.61 126.02 139.53 C 126.58 140.46 127.79 140.75 128.71 140.19 L 129.57 139.67 C 130.50 139.11 130.79 137.91 130.23 136.98 C 129.67 136.05 128.47 135.76 127.54 136.32 Z M 126.56 136.88 L 125.76 137.44 C 124.85 138.07 124.63 139.32 125.26 140.22 C 125.89 141.12 127.14 141.34 128.04 140.71 L 128.84 140.15 C 129.74 139.52 129.96 138.28 129.33 137.37 C 128.70 136.47 127.46 136.25 126.56 136.88 Z M 125.58 137.54 L 124.84 138.17 C 123.98 138.90 123.89 140.18 124.62 141.03 C 125.35 141.88 126.63 141.98 127.48 141.25 L 128.22 140.62 C 129.07 139.89 129.17 138.61 128.44 137.76 C 127.71 136.90 126.43 136.81 125.58 137.54 Z M 124.57 138.30 L 123.76 139.21 C 122.98 140.09 123.05 141.43 123.93 142.21 C 124.80 142.99 126.15 142.92 126.93 142.04 L 127.74 141.13 C 128.52 140.25 128.45 138.91 127.57 138.13 C 126.70 137.34 125.35 137.42 124.57 138.30 Z M 123.41 139.40 L 122.81 140.34 C 122.14 141.40 122.45 142.82 123.52 143.50 C 124.59 144.17 126.00 143.86 126.68 142.79 L 127.28 141.85 C 127.95 140.78 127.64 139.37 126.57 138.69 C 125.50 138.02 124.09 138.33 123.41 139.40 Z M 122.35 140.99 L 122.18 141.69 C 121.87 143.02 122.68 144.35 124.00 144.66 C 125.33 144.98 126.66 144.17 126.97 142.84 L 127.14 142.14 C 127.46 140.82 126.64 139.49 125.32 139.17 C 124.00 138.85 122.67 139.67 122.35 140.99 Z M 123.14 144.40 L 123.55 144.68 C 124.73 145.47 126.33 145.16 127.12 143.98 C 127.91 142.80 127.60 141.20 126.42 140.41 L 126.01 140.13 C 124.84 139.34 123.24 139.65 122.44 140.83 C 121.65 142.01 121.96 143.61 123.14 144.40 Z M 125.30 145.12 L 126.20 145.01 C 127.63 144.84 128.64 143.54 128.47 142.12 C 128.30 140.69 127.00 139.68 125.58 139.85 L 124.67 139.96 C 123.25 140.14 122.23 141.43 122.40 142.86 C 122.58 144.28 123.87 145.30 125.30 145.12 Z M 126.56 144.95 L 127.77 144.63 C 129.16 144.26 129.99 142.83 129.62 141.44 C 129.25 140.05 127.82 139.22 126.43 139.59 L 125.22 139.91 C 123.83 140.28 123.00 141.71 123.37 143.10 C 123.74 144.50 125.17 145.32 126.56 144.95 Z M 127.81 144.63 L 128.85 144.33 C 130.24 143.94 131.05 142.50 130.66 141.11 C 130.27 139.72 128.83 138.91 127.44 139.30 L 126.39 139.60 C 125.00 139.99 124.19 141.43 124.58 142.82 C 124.97 144.21 126.42 145.02 127.81 144.63 Z M 128.82 144.34 L 129.76 144.09 C 131.16 143.72 131.99 142.29 131.62 140.89 C 131.25 139.50 129.81 138.67 128.42 139.04 L 127.48 139.29 C 126.08 139.66 125.25 141.09 125.62 142.49 C 125.99 143.88 127.43 144.71 128.82 144.34 Z M 129.74 144.10 L 130.71 143.85 C 132.10 143.50 132.95 142.07 132.59 140.67 C 132.24 139.27 130.81 138.43 129.41 138.79 L 128.45 139.03 C 127.05 139.39 126.20 140.81 126.56 142.21 C 126.92 143.61 128.34 144.46 129.74 144.10 Z M 130.68 143.86 L 131.67 143.61 C 133.08 143.27 133.93 141.85 133.59 140.45 C 133.25 139.05 131.83 138.19 130.43 138.54 L 129.44 138.78 C 128.03 139.12 127.18 140.54 127.52 141.94 C 127.87 143.35 129.28 144.20 130.68 143.86 Z M 131.66 143.62 L 132.67 143.38 C 134.07 143.04 134.94 141.63 134.60 140.23 C 134.27 138.82 132.86 137.96 131.45 138.29 L 130.44 138.53 C 129.04 138.87 128.17 140.28 128.51 141.68 C 128.84 143.09 130.25 143.95 131.66 143.62 Z M 132.66 143.38 L 133.67 143.14 C 135.07 142.81 135.95 141.41 135.62 140.00 C 135.29 138.60 133.89 137.72 132.48 138.05 L 131.47 138.29 C 130.06 138.62 129.19 140.02 129.52 141.43 C 129.84 142.83 131.25 143.71 132.66 143.38 Z M 133.66 143.14 L 134.66 142.91 C 136.07 142.59 136.95 141.19 136.63 139.78 C 136.31 138.38 134.90 137.50 133.50 137.82 L 132.49 138.05 C 131.09 138.37 130.21 139.77 130.53 141.18 C 130.85 142.59 132.25 143.47 133.66 143.14 Z M 134.65 142.91 L 135.63 142.70 C 137.04 142.38 137.92 140.98 137.61 139.58 C 137.29 138.17 135.89 137.28 134.49 137.60 L 133.51 137.82 C 132.10 138.14 131.22 139.53 131.53 140.94 C 131.85 142.35 133.25 143.23 134.65 142.91 Z M 135.62 142.70 L 136.54 142.49 C 137.95 142.18 138.84 140.79 138.53 139.39 C 138.22 137.98 136.83 137.09 135.42 137.40 L 134.50 137.60 C 133.09 137.91 132.20 139.30 132.51 140.71 C 132.82 142.12 134.21 143.01 135.62 142.70 Z M 136.53 142.49 L 137.55 142.27 C 138.96 141.97 139.85 140.59 139.55 139.18 C 139.25 137.77 137.86 136.88 136.46 137.18 L 135.44 137.40 C 134.03 137.70 133.13 139.08 133.44 140.49 C 133.74 141.90 135.12 142.79 136.53 142.49 Z M 137.54 142.27 L 138.54 142.06 C 139.94 141.76 140.83 140.38 140.54 138.98 C 140.24 137.57 138.86 136.68 137.46 136.98 L 136.46 137.19 C 135.06 137.48 134.17 138.86 134.46 140.27 C 134.76 141.67 136.14 142.56 137.54 142.27 Z M 138.55 142.04 L 139.48 141.84 C 140.88 141.54 141.76 140.16 141.46 138.76 C 141.15 137.36 139.78 136.48 138.38 136.78 L 137.45 136.99 C 136.05 137.29 135.16 138.67 135.47 140.07 C 135.77 141.46 137.15 142.35 138.55 142.04 Z M 139.51 141.82 L 140.44 141.61 C 141.83 141.29 142.69 139.90 142.37 138.51 C 142.05 137.12 140.66 136.26 139.27 136.58 L 138.35 136.80 C 136.96 137.12 136.10 138.51 136.42 139.90 C 136.74 141.28 138.13 142.15 139.51 141.82 Z M 140.48 141.59 L 141.44 141.35 C 142.82 141.01 143.66 139.61 143.31 138.23 C 142.97 136.85 141.57 136.02 140.19 136.36 L 139.23 136.60 C 137.86 136.95 137.02 138.34 137.36 139.72 C 137.71 141.10 139.10 141.94 140.48 141.59 Z M 141.46 141.34 L 142.44 141.09 C 143.81 140.73 144.63 139.33 144.27 137.96 C 143.92 136.59 142.52 135.76 141.15 136.12 L 140.17 136.37 C 138.80 136.73 137.98 138.13 138.34 139.50 C 138.69 140.87 140.09 141.69 141.46 141.34 Z M 142.44 141.08 L 143.41 140.83 C 144.78 140.47 145.60 139.07 145.24 137.71 C 144.89 136.34 143.49 135.52 142.12 135.87 L 141.15 136.13 C 139.78 136.48 138.96 137.88 139.32 139.25 C 139.67 140.61 141.07 141.43 142.44 141.08 Z M 143.39 140.82 L 144.38 140.57 C 145.74 140.22 146.57 138.84 146.22 137.48 C 145.88 136.11 144.49 135.29 143.13 135.63 L 142.14 135.88 C 140.78 136.23 139.95 137.61 140.30 138.97 C 140.64 140.34 142.03 141.16 143.39 140.82 Z M 144.36 140.56 L 145.33 140.32 C 146.69 139.98 147.52 138.61 147.18 137.26 C 146.85 135.90 145.48 135.07 144.12 135.40 L 143.15 135.64 C 141.79 135.98 140.96 137.35 141.30 138.70 C 141.63 140.06 143.00 140.89 144.36 140.56 Z M 145.32 140.30 L 146.28 140.07 C 147.63 139.74 148.46 138.38 148.13 137.03 C 147.80 135.69 146.45 134.86 145.10 135.19 L 144.14 135.42 C 142.79 135.75 141.96 137.10 142.29 138.45 C 142.61 139.80 143.97 140.63 145.32 140.30 Z M 146.28 140.05 L 147.25 139.82 C 148.59 139.49 149.41 138.14 149.08 136.80 C 148.76 135.46 147.40 134.64 146.06 134.97 L 145.10 135.20 C 143.76 135.53 142.94 136.88 143.26 138.22 C 143.59 139.56 144.94 140.38 146.28 140.05 Z M 147.26 139.81 L 148.23 139.57 C 149.57 139.23 150.38 137.88 150.05 136.55 C 149.71 135.21 148.36 134.40 147.03 134.73 L 146.05 134.97 C 144.72 135.31 143.91 136.66 144.24 137.99 C 144.57 139.33 145.92 140.14 147.26 139.81 Z M 148.25 139.56 L 149.22 139.31 C 150.55 138.97 151.35 137.61 151.01 136.28 C 150.66 134.94 149.30 134.14 147.97 134.49 L 147.01 134.74 C 145.67 135.08 144.87 136.44 145.22 137.77 C 145.56 139.11 146.92 139.91 148.25 139.56 Z M 149.25 139.30 L 150.20 139.05 C 151.53 138.69 152.31 137.32 151.95 135.99 C 151.59 134.66 150.22 133.88 148.90 134.24 L 147.94 134.50 C 146.61 134.86 145.83 136.22 146.19 137.55 C 146.55 138.88 147.92 139.67 149.25 139.30 Z M 150.23 139.04 L 151.17 138.77 C 152.50 138.39 153.26 137.01 152.89 135.69 C 152.51 134.37 151.13 133.60 149.80 133.98 L 148.86 134.24 C 147.54 134.62 146.77 136.00 147.15 137.32 C 147.53 138.65 148.91 139.42 150.23 139.04 Z M 151.19 138.76 L 152.15 138.48 C 153.47 138.09 154.23 136.71 153.84 135.38 C 153.45 134.06 152.06 133.31 150.74 133.70 L 149.78 133.98 C 148.46 134.37 147.71 135.76 148.10 137.08 C 148.49 138.40 149.87 139.15 151.19 138.76 Z M 152.16 138.48 L 153.15 138.18 C 154.47 137.79 155.22 136.39 154.82 135.07 C 154.42 133.75 153.03 133.01 151.71 133.40 L 150.73 133.70 C 149.41 134.10 148.66 135.49 149.06 136.81 C 149.45 138.13 150.84 138.88 152.16 138.48 Z M 153.16 138.19 L 154.11 137.90 C 155.43 137.50 156.18 136.10 155.78 134.78 C 155.38 133.46 153.98 132.71 152.66 133.11 L 151.71 133.40 C 150.39 133.80 149.64 135.19 150.04 136.52 C 150.44 137.84 151.83 138.59 153.16 138.19 Z M 154.10 137.91 L 155.07 137.62 C 156.40 137.22 157.16 135.83 156.76 134.50 C 156.36 133.17 154.96 132.41 153.63 132.81 L 152.67 133.10 C 151.34 133.50 150.58 134.90 150.98 136.23 C 151.38 137.55 152.78 138.31 154.10 137.91 Z M 155.06 137.64 L 156.02 137.36 C 157.36 136.97 158.13 135.57 157.74 134.23 C 157.35 132.89 155.95 132.12 154.61 132.51 L 153.65 132.79 C 152.31 133.18 151.54 134.59 151.93 135.92 C 152.32 137.26 153.72 138.03 155.06 137.64 Z M 156.00 137.37 L 156.92 137.12 C 158.26 136.74 159.05 135.34 158.67 134.00 C 158.30 132.65 156.90 131.86 155.55 132.24 L 154.64 132.50 C 153.29 132.87 152.50 134.27 152.88 135.62 C 153.25 136.96 154.65 137.75 156.00 137.37 Z M 156.87 137.14 L 157.76 136.92 C 159.12 136.57 159.94 135.18 159.59 133.82 C 159.24 132.46 157.85 131.64 156.49 131.99 L 155.60 132.21 C 154.24 132.56 153.42 133.95 153.77 135.31 C 154.12 136.67 155.51 137.49 156.87 137.14 Z M 157.68 136.95 L 158.62 136.74 C 160.00 136.43 160.87 135.07 160.57 133.69 C 160.26 132.31 158.90 131.44 157.52 131.74 L 156.57 131.95 C 155.19 132.26 154.32 133.62 154.62 135.00 C 154.93 136.38 156.30 137.25 157.68 136.95 Z M 158.53 136.77 L 159.60 136.57 C 161.00 136.32 161.93 134.98 161.67 133.58 C 161.42 132.19 160.08 131.26 158.69 131.51 L 157.61 131.71 C 156.21 131.96 155.29 133.30 155.54 134.70 C 155.79 136.10 157.13 137.02 158.53 136.77 Z M 159.52 136.62 L 160.57 136.47 C 161.99 136.26 162.98 134.94 162.78 133.52 C 162.57 132.10 161.25 131.11 159.82 131.31 L 158.77 131.47 C 157.35 131.67 156.36 132.99 156.57 134.42 C 156.77 135.84 158.09 136.83 159.52 136.62 Z M 160.42 136.55 L 161.47 136.46 C 162.94 136.34 164.03 135.05 163.91 133.58 C 163.78 132.11 162.49 131.02 161.03 131.15 L 159.98 131.24 C 158.51 131.36 157.42 132.65 157.54 134.12 C 157.66 135.58 158.95 136.67 160.42 136.55 Z M 161.18 136.54 L 162.22 136.57 C 163.73 136.61 164.98 135.42 165.02 133.91 C 165.07 132.39 163.87 131.14 162.36 131.10 L 161.32 131.07 C 159.81 131.03 158.56 132.22 158.51 133.73 C 158.47 135.24 159.67 136.50 161.18 136.54 Z M 161.68 136.57 L 162.62 136.78 C 164.14 137.11 165.64 136.16 165.97 134.65 C 166.31 133.13 165.35 131.63 163.84 131.30 L 162.89 131.09 C 161.38 130.76 159.88 131.71 159.55 133.23 C 159.21 134.74 160.17 136.24 161.68 136.57 Z M 161.76 136.51 L 162.52 136.96 C 163.88 137.78 165.65 137.33 166.46 135.96 C 167.27 134.60 166.83 132.83 165.46 132.02 L 164.70 131.57 C 163.34 130.76 161.57 131.20 160.76 132.57 C 159.95 133.93 160.39 135.70 161.76 136.51 Z M 161.61 136.19 L 162.11 136.88 C 163.04 138.19 164.87 138.49 166.18 137.56 C 167.49 136.62 167.79 134.80 166.86 133.48 L 166.36 132.80 C 165.43 131.48 163.60 131.18 162.29 132.12 C 160.98 133.05 160.68 134.88 161.61 136.19 Z M 161.70 136.11 L 162.00 137.00 C 162.51 138.54 164.17 139.37 165.71 138.85 C 167.24 138.34 168.07 136.68 167.56 135.14 L 167.26 134.25 C 166.75 132.72 165.09 131.89 163.55 132.40 C 162.02 132.92 161.19 134.58 161.70 136.11 Z M 161.87 136.50 L 162.02 137.52 C 162.26 139.13 163.75 140.24 165.36 140.00 C 166.97 139.77 168.08 138.27 167.84 136.66 L 167.69 135.64 C 167.45 134.03 165.96 132.92 164.35 133.16 C 162.74 133.40 161.63 134.90 161.87 136.50 Z M 161.98 137.23 L 162.03 138.30 C 162.11 139.93 163.49 141.19 165.12 141.12 C 166.75 141.04 168.01 139.66 167.93 138.03 L 167.88 136.95 C 167.80 135.32 166.42 134.07 164.79 134.14 C 163.16 134.22 161.90 135.60 161.98 137.23 Z M 162.02 138.16 L 162.01 139.21 C 162.01 140.85 163.33 142.18 164.97 142.18 C 166.60 142.19 167.94 140.87 167.94 139.23 L 167.95 138.18 C 167.95 136.54 166.63 135.21 164.99 135.20 C 163.35 135.19 162.02 136.52 162.02 138.16 Z M 162.02 139.16 L 162.00 140.23 C 161.97 141.86 163.26 143.21 164.90 143.24 C 166.53 143.27 167.88 141.98 167.91 140.35 L 167.93 139.28 C 167.96 137.65 166.67 136.30 165.04 136.26 C 163.41 136.23 162.06 137.53 162.02 139.16 Z M 162.04 140.18 L 162.00 141.18 C 161.94 142.79 163.20 144.14 164.82 144.20 C 166.43 144.26 167.78 143.00 167.84 141.39 L 167.88 140.39 C 167.93 138.78 166.67 137.43 165.06 137.37 C 163.45 137.31 162.09 138.57 162.04 140.18 Z M 162.04 141.11 L 161.98 142.07 C 161.89 143.66 163.10 145.03 164.69 145.12 C 166.29 145.22 167.65 144.00 167.75 142.41 L 167.80 141.45 C 167.90 139.86 166.68 138.49 165.09 138.40 C 163.50 138.31 162.13 139.52 162.04 141.11 Z M 162.02 142.00 L 161.94 142.96 C 161.80 144.53 162.96 145.92 164.53 146.05 C 166.11 146.19 167.49 145.02 167.62 143.45 L 167.71 142.49 C 167.84 140.92 166.68 139.53 165.11 139.40 C 163.54 139.26 162.16 140.42 162.02 142.00 Z M 161.98 142.89 L 161.87 143.84 C 161.69 145.38 162.80 146.78 164.35 146.96 C 165.90 147.14 167.30 146.03 167.48 144.48 L 167.58 143.53 C 167.76 141.98 166.65 140.58 165.10 140.40 C 163.55 140.23 162.15 141.34 161.98 142.89 Z M 161.90 143.78 L 161.78 144.70 C 161.57 146.23 162.64 147.64 164.17 147.85 C 165.70 148.05 167.11 146.99 167.31 145.46 L 167.44 144.54 C 167.65 143.01 166.58 141.60 165.05 141.39 C 163.52 141.18 162.11 142.25 161.90 143.78 Z M 161.81 144.65 L 161.66 145.62 C 161.43 147.13 162.46 148.55 163.97 148.78 C 165.49 149.01 166.90 147.98 167.13 146.46 L 167.28 145.50 C 167.52 143.99 166.48 142.57 164.97 142.34 C 163.46 142.11 162.04 143.14 161.81 144.65 Z M 161.69 145.59 L 161.52 146.59 C 161.27 148.09 162.28 149.50 163.77 149.75 C 165.27 150.01 166.68 149.00 166.94 147.50 L 167.10 146.50 C 167.36 145.00 166.35 143.59 164.85 143.33 C 163.36 143.08 161.94 144.09 161.69 145.59 Z M 161.55 146.57 L 161.36 147.61 C 161.10 149.09 162.08 150.50 163.56 150.76 C 165.04 151.03 166.46 150.04 166.72 148.56 L 166.91 147.53 C 167.17 146.05 166.19 144.63 164.71 144.37 C 163.23 144.10 161.81 145.09 161.55 146.57 Z M 161.39 147.59 L 161.19 148.65 C 160.92 150.11 161.89 151.52 163.35 151.79 C 164.81 152.07 166.22 151.10 166.49 149.64 L 166.69 148.58 C 166.97 147.12 166.00 145.71 164.54 145.44 C 163.07 145.16 161.67 146.13 161.39 147.59 Z M 161.23 148.64 L 161.03 149.68 C 160.75 151.12 161.69 152.52 163.14 152.80 C 164.59 153.08 165.98 152.14 166.26 150.69 L 166.46 149.65 C 166.74 148.20 165.80 146.80 164.35 146.53 C 162.90 146.25 161.50 147.19 161.23 148.64 Z M 161.06 149.67 L 160.85 150.70 C 160.57 152.13 161.50 153.52 162.93 153.80 C 164.35 154.09 165.74 153.16 166.02 151.73 L 166.23 150.70 C 166.51 149.27 165.59 147.88 164.16 147.60 C 162.73 147.31 161.34 148.24 161.06 149.67 Z M 160.89 150.70 L 160.68 151.71 C 160.39 153.12 161.30 154.49 162.71 154.78 C 164.12 155.07 165.50 154.16 165.79 152.75 L 165.99 151.74 C 166.28 150.33 165.37 148.95 163.96 148.66 C 162.55 148.38 161.17 149.29 160.89 150.70 Z M 160.71 151.70 L 160.51 152.67 C 160.22 154.06 161.11 155.42 162.51 155.71 C 163.90 156.00 165.26 155.11 165.55 153.72 L 165.75 152.75 C 166.04 151.36 165.15 150.00 163.76 149.71 C 162.37 149.42 161.00 150.31 160.71 151.70 Z M 160.55 152.66 L 160.35 153.55 C 160.06 154.93 160.93 156.28 162.31 156.58 C 163.68 156.87 165.03 156.00 165.33 154.62 L 165.52 153.73 C 165.81 152.35 164.94 151.00 163.57 150.70 C 162.19 150.41 160.84 151.28 160.55 152.66 Z M 160.40 153.55 L 160.16 154.59 C 159.86 155.94 160.71 157.28 162.06 157.58 C 163.41 157.88 164.75 157.03 165.05 155.68 L 165.28 154.63 C 165.58 153.28 164.73 151.95 163.38 151.65 C 162.03 151.35 160.70 152.20 160.40 153.55 Z M 160.22 154.58 L 159.98 155.62 C 159.68 156.93 160.49 158.25 161.81 158.55 C 163.13 158.86 164.44 158.04 164.75 156.73 L 164.99 155.69 C 165.30 154.38 164.48 153.06 163.16 152.75 C 161.84 152.45 160.53 153.27 160.22 154.58 Z M 160.05 155.61 L 159.83 156.52 C 159.52 157.80 160.30 159.09 161.58 159.40 C 162.86 159.71 164.15 158.93 164.46 157.65 L 164.68 156.73 C 164.99 155.45 164.21 154.17 162.93 153.85 C 161.65 153.54 160.36 154.33 160.05 155.61 Z M 159.89 156.52 L 159.68 157.37 C 159.37 158.62 160.13 159.88 161.37 160.19 C 162.62 160.50 163.88 159.74 164.19 158.50 L 164.40 157.65 C 164.71 156.40 163.95 155.14 162.70 154.83 C 161.46 154.52 160.20 155.28 159.89 156.52 Z M 159.73 157.38 L 159.51 158.23 C 159.21 159.45 159.95 160.68 161.17 160.99 C 162.38 161.30 163.62 160.56 163.92 159.34 L 164.14 158.49 C 164.44 157.27 163.70 156.04 162.49 155.73 C 161.27 155.42 160.03 156.16 159.73 157.38 Z M 159.55 158.23 L 159.32 159.13 C 159.01 160.33 159.73 161.55 160.93 161.86 C 162.13 162.17 163.35 161.44 163.66 160.24 L 163.89 159.34 C 164.20 158.14 163.47 156.92 162.27 156.61 C 161.08 156.31 159.85 157.03 159.55 158.23 Z M 159.35 159.12 L 159.08 160.14 C 158.77 161.32 159.48 162.53 160.65 162.84 C 161.83 163.15 163.04 162.45 163.35 161.27 L 163.62 160.25 C 163.93 159.07 163.23 157.87 162.05 157.55 C 160.87 157.24 159.66 157.95 159.35 159.12 Z M 159.12 160.13 L 158.83 161.19 C 158.51 162.35 159.19 163.55 160.35 163.87 C 161.51 164.19 162.71 163.50 163.03 162.34 L 163.32 161.28 C 163.64 160.12 162.95 158.92 161.79 158.60 C 160.63 158.29 159.44 158.97 159.12 160.13 Z M 158.86 161.19 L 158.60 162.10 C 158.28 163.25 158.94 164.43 160.09 164.76 C 161.23 165.08 162.42 164.41 162.74 163.27 L 163.00 162.35 C 163.32 161.21 162.65 160.02 161.51 159.70 C 160.37 159.38 159.18 160.04 158.86 161.19 Z M 158.62 162.09 L 158.34 163.07 C 158.02 164.20 158.67 165.38 159.80 165.70 C 160.93 166.03 162.11 165.38 162.44 164.25 L 162.72 163.27 C 163.04 162.14 162.39 160.96 161.26 160.64 C 160.13 160.31 158.95 160.96 158.62 162.09 Z M 158.37 163.06 L 158.07 164.06 C 157.74 165.18 158.38 166.35 159.50 166.68 C 160.62 167.01 161.79 166.37 162.12 165.25 L 162.41 164.25 C 162.74 163.14 162.10 161.96 160.99 161.63 C 159.87 161.30 158.70 161.94 158.37 163.06 Z M 158.10 164.05 L 157.80 165.04 C 157.46 166.14 158.09 167.31 159.19 167.64 C 160.30 167.98 161.46 167.35 161.80 166.25 L 162.10 165.26 C 162.43 164.15 161.81 162.99 160.70 162.66 C 159.60 162.32 158.43 162.95 158.10 164.05 Z M 157.82 165.03 L 157.53 165.98 C 157.19 167.07 157.79 168.23 158.88 168.57 C 159.97 168.91 161.13 168.30 161.47 167.22 L 161.77 166.26 C 162.11 165.17 161.50 164.01 160.41 163.67 C 159.32 163.33 158.16 163.94 157.82 165.03 Z M 157.57 165.96 L 157.22 167.01 C 156.87 168.08 157.45 169.23 158.52 169.58 C 159.58 169.93 160.73 169.35 161.08 168.28 L 161.43 167.23 C 161.78 166.17 161.20 165.02 160.13 164.67 C 159.07 164.32 157.92 164.90 157.57 165.96 Z M 157.29 166.97 L 156.94 167.93 C 156.56 168.96 157.09 170.10 158.12 170.48 C 159.15 170.85 160.30 170.32 160.67 169.29 L 161.02 168.33 C 161.40 167.30 160.87 166.16 159.83 165.78 C 158.80 165.41 157.66 165.94 157.29 166.97 Z M 157.01 167.86 L 156.64 168.74 C 156.22 169.73 156.68 170.87 157.67 171.29 C 158.66 171.71 159.80 171.24 160.22 170.26 L 160.59 169.37 C 161.01 168.38 160.55 167.24 159.56 166.82 C 158.57 166.40 157.43 166.87 157.01 167.86 Z M 156.74 168.64 L 156.32 169.47 C 155.84 170.40 156.22 171.55 157.15 172.02 C 158.09 172.49 159.23 172.12 159.70 171.18 L 160.12 170.36 C 160.59 169.42 160.22 168.28 159.29 167.81 C 158.35 167.33 157.21 167.71 156.74 168.64 Z M 156.43 169.35 L 155.92 170.17 C 155.38 171.04 155.65 172.18 156.52 172.72 C 157.40 173.26 158.54 172.99 159.08 172.12 L 159.59 171.30 C 160.13 170.43 159.86 169.29 158.99 168.75 C 158.11 168.21 156.97 168.48 156.43 169.35 Z M 156.03 170.07 L 155.44 170.87 C 154.85 171.68 155.02 172.82 155.84 173.42 C 156.65 174.01 157.79 173.84 158.38 173.02 L 158.97 172.22 C 159.57 171.41 159.39 170.27 158.58 169.68 C 157.77 169.08 156.63 169.26 156.03 170.07 Z M 155.53 170.81 L 154.89 171.58 C 154.26 172.34 154.37 173.47 155.14 174.10 C 155.90 174.73 157.03 174.62 157.66 173.86 L 158.30 173.09 C 158.93 172.32 158.82 171.19 158.05 170.56 C 157.29 169.93 156.16 170.04 155.53 170.81 Z M 154.96 171.55 L 154.29 172.31 C 153.65 173.04 153.72 174.15 154.45 174.80 C 155.18 175.44 156.29 175.37 156.93 174.64 L 157.60 173.88 C 158.24 173.15 158.17 172.04 157.44 171.40 C 156.71 170.75 155.60 170.82 154.96 171.55 Z M 154.32 172.31 L 154.01 172.65 C 153.37 173.37 153.43 174.47 154.14 175.11 C 154.86 175.75 155.96 175.69 156.60 174.98 L 156.90 174.64 C 157.55 173.92 157.49 172.82 156.77 172.18 C 156.06 171.54 154.96 171.60 154.32 172.31 Z"
      fill="black"
      fill-rule="nonzero" /><path d="M 143.66 110.00 L 143.55 110.89 C 143.40 112.05 144.22 113.11 145.38 113.26 C 146.54 113.40 147.60 112.58 147.74 111.42 L 147.86 110.54 C 148.00 109.38 147.18 108.32 146.03 108.17 C 144.87 108.03 143.81 108.85 143.66 110.00 Z M 143.48 110.92 L 143.37 111.85 C 143.24 113.05 144.11 114.13 145.31 114.26 C 146.51 114.39 147.59 113.52 147.72 112.32 L 147.82 111.39 C 147.95 110.19 147.08 109.12 145.88 108.99 C 144.68 108.86 143.61 109.72 143.48 110.92 Z M 143.30 111.92 L 143.22 112.93 C 143.13 114.18 144.06 115.26 145.30 115.35 C 146.54 115.45 147.62 114.52 147.72 113.28 L 147.79 112.26 C 147.89 111.02 146.96 109.94 145.72 109.84 C 144.48 109.75 143.39 110.68 143.30 111.92 Z M 143.15 113.02 L 143.10 114.16 C 143.06 115.45 144.06 116.52 145.34 116.57 C 146.62 116.62 147.70 115.62 147.75 114.33 L 147.79 113.19 C 147.84 111.91 146.84 110.83 145.55 110.78 C 144.27 110.74 143.19 111.74 143.15 113.02 Z M 143.05 114.24 L 143.05 115.18 C 143.05 116.49 144.11 117.55 145.42 117.56 C 146.73 117.56 147.79 116.50 147.80 115.19 L 147.80 114.26 C 147.80 112.95 146.74 111.88 145.43 111.88 C 144.12 111.87 143.06 112.93 143.05 114.24 Z M 143.03 115.22 L 143.04 116.21 C 143.06 117.54 144.15 118.59 145.48 118.57 C 146.80 118.55 147.86 117.46 147.84 116.14 L 147.82 115.14 C 147.80 113.82 146.71 112.76 145.39 112.78 C 144.06 112.81 143.00 113.90 143.03 115.22 Z M 143.02 116.24 L 143.05 117.27 C 143.08 118.61 144.20 119.66 145.54 119.62 C 146.87 119.59 147.93 118.47 147.89 117.13 L 147.86 116.11 C 147.83 114.77 146.71 113.71 145.37 113.75 C 144.03 113.79 142.98 114.90 143.02 116.24 Z M 143.02 117.28 L 143.05 118.32 C 143.10 119.67 144.23 120.73 145.59 120.69 C 146.94 120.64 148.00 119.51 147.95 118.16 L 147.92 117.12 C 147.87 115.77 146.74 114.71 145.39 114.75 C 144.03 114.80 142.97 115.93 143.02 117.28 Z M 143.03 118.32 L 143.06 119.34 C 143.11 120.71 144.26 121.78 145.62 121.73 C 146.99 121.69 148.06 120.54 148.01 119.17 L 147.98 118.15 C 147.93 116.79 146.79 115.72 145.42 115.76 C 144.05 115.81 142.98 116.96 143.03 118.32 Z M 143.04 119.33 L 143.07 120.35 C 143.11 121.73 144.26 122.82 145.64 122.78 C 147.02 122.74 148.10 121.59 148.06 120.21 L 148.03 119.19 C 147.99 117.81 146.84 116.72 145.47 116.76 C 144.09 116.80 143.00 117.95 143.04 119.33 Z M 143.06 120.33 L 143.08 121.36 C 143.11 122.74 144.25 123.84 145.64 123.82 C 147.02 123.79 148.12 122.64 148.09 121.26 L 148.07 120.23 C 148.04 118.85 146.90 117.75 145.52 117.78 C 144.13 117.81 143.04 118.95 143.06 120.33 Z M 143.08 121.34 L 143.09 122.33 C 143.11 123.71 144.24 124.82 145.63 124.81 C 147.01 124.79 148.12 123.65 148.11 122.27 L 148.09 121.28 C 148.08 119.90 146.94 118.79 145.56 118.80 C 144.17 118.82 143.06 119.96 143.08 121.34 Z M 143.09 122.31 L 143.10 123.28 C 143.10 124.67 144.23 125.79 145.62 125.78 C 147.00 125.77 148.12 124.64 148.11 123.26 L 148.11 122.29 C 148.10 120.90 146.97 119.78 145.59 119.79 C 144.20 119.80 143.08 120.93 143.09 122.31 Z M 143.09 123.27 L 143.09 124.25 C 143.10 125.64 144.22 126.76 145.61 126.76 C 147.00 126.76 148.12 125.63 148.12 124.25 L 148.12 123.27 C 148.11 121.88 146.99 120.76 145.60 120.76 C 144.21 120.76 143.09 121.89 143.09 123.27 Z M 143.09 124.25 L 143.09 125.26 C 143.09 126.65 144.22 127.77 145.61 127.77 C 146.99 127.77 148.12 126.65 148.12 125.26 L 148.12 124.25 C 148.12 122.86 146.99 121.74 145.61 121.74 C 144.22 121.74 143.09 122.86 143.09 124.25 Z M 143.09 125.26 L 143.09 126.29 C 143.09 127.68 144.22 128.81 145.61 128.81 C 146.99 128.81 148.12 127.68 148.12 126.29 L 148.12 125.26 C 148.12 123.87 146.99 122.74 145.61 122.74 C 144.22 122.74 143.09 123.87 143.09 125.26 Z M 143.09 126.29 L 143.09 127.33 C 143.09 128.72 144.22 129.84 145.61 129.84 C 146.99 129.84 148.12 128.72 148.12 127.33 L 148.12 126.29 C 148.12 124.90 146.99 123.78 145.61 123.78 C 144.22 123.78 143.09 124.90 143.09 126.29 Z M 143.09 127.33 L 143.09 128.34 C 143.09 129.73 144.22 130.85 145.61 130.85 C 146.99 130.85 148.12 129.73 148.12 128.34 L 148.12 127.33 C 148.12 125.94 146.99 124.81 145.61 124.81 C 144.22 124.81 143.09 125.94 143.09 127.33 Z M 143.09 128.34 L 143.09 129.30 C 143.09 130.69 144.22 131.81 145.61 131.81 C 146.99 131.81 148.12 130.69 148.12 129.30 L 148.12 128.34 C 148.12 126.95 146.99 125.82 145.61 125.82 C 144.22 125.82 143.09 126.95 143.09 128.34 Z M 143.09 129.30 L 143.09 130.33 C 143.09 131.72 144.22 132.85 145.61 132.85 C 146.99 132.85 148.12 131.72 148.12 130.33 L 148.12 129.30 C 148.12 127.91 146.99 126.78 145.61 126.78 C 144.22 126.78 143.09 127.91 143.09 129.30 Z M 143.09 130.32 L 143.09 131.38 C 143.08 132.76 144.20 133.89 145.59 133.90 C 146.97 133.91 148.10 132.79 148.11 131.40 L 148.12 130.35 C 148.12 128.96 147.01 127.83 145.62 127.82 C 144.23 127.82 143.10 128.93 143.09 130.32 Z M 143.09 131.34 L 143.07 132.30 C 143.04 133.68 144.14 134.83 145.53 134.86 C 146.91 134.88 148.06 133.78 148.09 132.40 L 148.11 131.44 C 148.14 130.06 147.04 128.91 145.65 128.88 C 144.27 128.85 143.12 129.95 143.09 131.34 Z M 143.08 132.23 L 143.03 133.14 C 142.97 134.52 144.03 135.70 145.42 135.76 C 146.80 135.83 147.97 134.76 148.04 133.38 L 148.08 132.47 C 148.15 131.09 147.08 129.91 145.70 129.84 C 144.32 129.78 143.14 130.84 143.08 132.23 Z M 143.04 133.05 L 142.96 134.01 C 142.85 135.39 143.87 136.60 145.25 136.72 C 146.62 136.83 147.83 135.81 147.95 134.43 L 148.03 133.47 C 148.15 132.09 147.12 130.88 145.75 130.77 C 144.37 130.65 143.16 131.67 143.04 133.05 Z M 142.97 133.94 L 142.86 134.92 C 142.70 136.29 143.69 137.53 145.06 137.69 C 146.43 137.85 147.67 136.86 147.83 135.49 L 147.94 134.51 C 148.10 133.14 147.11 131.90 145.74 131.74 C 144.37 131.58 143.13 132.56 142.97 133.94 Z M 142.87 134.86 L 142.73 135.87 C 142.54 137.24 143.50 138.49 144.86 138.68 C 146.23 138.87 147.49 137.92 147.68 136.55 L 147.82 135.55 C 148.00 134.18 147.05 132.92 145.68 132.73 C 144.32 132.54 143.06 133.50 142.87 134.86 Z M 142.74 135.84 L 142.59 136.82 C 142.38 138.18 143.32 139.45 144.68 139.66 C 146.04 139.87 147.31 138.93 147.52 137.57 L 147.67 136.58 C 147.88 135.22 146.94 133.95 145.58 133.75 C 144.22 133.54 142.95 134.48 142.74 135.84 Z M 142.60 136.81 L 142.45 137.76 C 142.23 139.12 143.16 140.40 144.52 140.61 C 145.87 140.82 147.15 139.90 147.36 138.54 L 147.51 137.58 C 147.73 136.23 146.80 134.95 145.44 134.74 C 144.09 134.52 142.81 135.45 142.60 136.81 Z M 142.45 137.76 L 142.29 138.75 C 142.08 140.10 143.00 141.38 144.36 141.59 C 145.71 141.81 146.98 140.89 147.20 139.53 L 147.36 138.54 C 147.57 137.19 146.65 135.92 145.30 135.70 C 143.94 135.48 142.67 136.41 142.45 137.76 Z M 142.30 138.75 L 142.14 139.77 C 141.92 141.13 142.85 142.40 144.20 142.61 C 145.55 142.82 146.82 141.90 147.04 140.55 L 147.20 139.53 C 147.41 138.17 146.49 136.90 145.13 136.69 C 143.78 136.47 142.51 137.40 142.30 138.75 Z M 142.14 139.78 L 141.99 140.78 C 141.78 142.14 142.71 143.40 144.06 143.61 C 145.41 143.81 146.67 142.89 146.88 141.53 L 147.03 140.53 C 147.24 139.18 146.31 137.92 144.96 137.71 C 143.61 137.51 142.35 138.43 142.14 139.78 Z M 141.99 140.79 L 141.84 141.78 C 141.64 143.13 142.56 144.39 143.91 144.60 C 145.26 144.80 146.52 143.87 146.73 142.52 L 146.88 141.53 C 147.08 140.18 146.15 138.92 144.80 138.72 C 143.45 138.51 142.19 139.44 141.99 140.79 Z M 141.84 141.78 L 141.69 142.78 C 141.48 144.12 142.41 145.38 143.76 145.59 C 145.10 145.80 146.36 144.87 146.57 143.53 L 146.72 142.53 C 146.93 141.18 146.00 139.92 144.66 139.71 C 143.31 139.51 142.05 140.43 141.84 141.78 Z M 141.70 142.76 L 141.54 143.75 C 141.32 145.09 142.24 146.36 143.58 146.57 C 144.92 146.79 146.19 145.87 146.40 144.53 L 146.56 143.54 C 146.78 142.20 145.86 140.94 144.52 140.72 C 143.18 140.50 141.91 141.42 141.70 142.76 Z M 141.55 143.72 L 141.38 144.72 C 141.14 146.06 142.04 147.33 143.38 147.56 C 144.72 147.79 145.99 146.90 146.22 145.56 L 146.39 144.56 C 146.62 143.22 145.73 141.95 144.39 141.72 C 143.05 141.49 141.78 142.38 141.55 143.72 Z M 141.39 144.69 L 141.20 145.68 C 140.95 147.02 141.83 148.30 143.16 148.55 C 144.49 148.80 145.77 147.92 146.02 146.59 L 146.21 145.59 C 146.46 144.26 145.58 142.98 144.25 142.73 C 142.92 142.48 141.64 143.35 141.39 144.69 Z M 141.21 145.66 L 141.02 146.63 C 140.75 147.96 141.61 149.25 142.94 149.51 C 144.26 149.77 145.55 148.91 145.81 147.59 L 146.01 146.62 C 146.27 145.29 145.41 144.00 144.09 143.74 C 142.76 143.48 141.48 144.34 141.21 145.66 Z M 141.03 146.62 L 140.83 147.58 C 140.56 148.90 141.41 150.19 142.73 150.46 C 144.04 150.73 145.33 149.88 145.61 148.56 L 145.80 147.60 C 146.08 146.29 145.23 145.00 143.91 144.72 C 142.59 144.45 141.30 145.30 141.03 146.62 Z M 140.84 147.57 L 140.63 148.55 C 140.36 149.86 141.20 151.15 142.52 151.43 C 143.83 151.70 145.12 150.86 145.40 149.54 L 145.60 148.57 C 145.87 147.25 145.03 145.96 143.71 145.69 C 142.40 145.42 141.11 146.26 140.84 147.57 Z M 140.64 148.55 L 140.44 149.53 C 140.16 150.84 141.00 152.13 142.31 152.40 C 143.62 152.68 144.91 151.83 145.18 150.52 L 145.39 149.54 C 145.66 148.23 144.82 146.95 143.51 146.67 C 142.20 146.40 140.92 147.24 140.64 148.55 Z M 140.44 149.53 L 140.24 150.51 C 139.96 151.82 140.80 153.10 142.11 153.37 C 143.41 153.65 144.70 152.81 144.97 151.50 L 145.17 150.52 C 145.45 149.22 144.61 147.94 143.31 147.66 C 142.00 147.39 140.72 148.23 140.44 149.53 Z M 140.25 150.51 L 140.04 151.48 C 139.77 152.78 140.60 154.06 141.90 154.34 C 143.20 154.61 144.48 153.78 144.76 152.48 L 144.96 151.51 C 145.24 150.20 144.40 148.93 143.10 148.65 C 141.80 148.37 140.52 149.21 140.25 150.51 Z M 140.05 151.48 L 139.84 152.47 C 139.56 153.76 140.39 155.04 141.68 155.32 C 142.98 155.59 144.26 154.77 144.54 153.47 L 144.75 152.48 C 145.02 151.18 144.20 149.91 142.90 149.63 C 141.60 149.35 140.33 150.18 140.05 151.48 Z M 139.85 152.46 L 139.64 153.44 C 139.36 154.74 140.18 156.01 141.47 156.29 C 142.76 156.57 144.03 155.75 144.31 154.46 L 144.53 153.47 C 144.80 152.18 143.98 150.91 142.69 150.63 C 141.40 150.35 140.13 151.17 139.85 152.46 Z M 139.65 153.44 L 139.43 154.41 C 139.15 155.70 139.97 156.97 141.25 157.25 C 142.54 157.53 143.81 156.72 144.09 155.43 L 144.30 154.46 C 144.58 153.17 143.77 151.90 142.48 151.62 C 141.20 151.34 139.93 152.15 139.65 153.44 Z M 139.44 154.41 L 139.23 155.38 C 138.94 156.66 139.75 157.93 141.03 158.21 C 142.31 158.49 143.58 157.69 143.86 156.41 L 144.08 155.43 C 144.36 154.15 143.56 152.89 142.28 152.60 C 141.00 152.32 139.73 153.13 139.44 154.41 Z M 139.24 155.37 L 139.02 156.37 C 138.73 157.64 139.53 158.91 140.80 159.19 C 142.08 159.48 143.34 158.68 143.63 157.40 L 143.85 156.41 C 144.14 155.14 143.34 153.87 142.06 153.59 C 140.79 153.30 139.53 154.10 139.24 155.37 Z M 139.03 156.36 L 138.80 157.34 C 138.51 158.60 139.31 159.87 140.57 160.16 C 141.84 160.45 143.10 159.65 143.39 158.39 L 143.62 157.41 C 143.91 156.14 143.12 154.88 141.85 154.59 C 140.58 154.30 139.32 155.09 139.03 156.36 Z M 138.82 157.33 L 138.59 158.28 C 138.30 159.54 139.08 160.80 140.34 161.10 C 141.60 161.39 142.86 160.61 143.16 159.35 L 143.38 158.40 C 143.68 157.13 142.89 155.87 141.63 155.58 C 140.37 155.28 139.11 156.07 138.82 157.33 Z M 138.61 158.27 L 138.37 159.25 C 138.07 160.50 138.84 161.76 140.09 162.06 C 141.35 162.37 142.61 161.59 142.91 160.34 L 143.14 159.36 C 143.45 158.11 142.67 156.85 141.42 156.55 C 140.17 156.25 138.91 157.02 138.61 158.27 Z M 138.39 159.23 L 138.15 160.20 C 137.84 161.45 138.59 162.71 139.84 163.02 C 141.08 163.33 142.34 162.57 142.65 161.33 L 142.89 160.36 C 143.20 159.12 142.45 157.86 141.20 157.54 C 139.96 157.23 138.70 157.99 138.39 159.23 Z M 138.16 160.18 L 137.91 161.14 C 137.59 162.37 138.33 163.63 139.56 163.96 C 140.80 164.28 142.06 163.54 142.38 162.31 L 142.63 161.35 C 142.95 160.12 142.22 158.86 140.98 158.53 C 139.75 158.21 138.49 158.95 138.16 160.18 Z M 137.93 161.11 L 137.68 162.04 C 137.34 163.26 138.06 164.53 139.28 164.87 C 140.50 165.21 141.77 164.49 142.10 163.27 L 142.36 162.34 C 142.70 161.11 141.98 159.85 140.76 159.51 C 139.54 159.17 138.27 159.89 137.93 161.11 Z M 137.70 162.01 L 137.43 162.94 C 137.07 164.15 137.77 165.42 138.98 165.77 C 140.19 166.13 141.46 165.43 141.81 164.22 L 142.08 163.29 C 142.44 162.08 141.74 160.81 140.53 160.46 C 139.32 160.11 138.05 160.80 137.70 162.01 Z M 137.45 162.91 L 137.15 163.88 C 136.78 165.08 137.46 166.35 138.66 166.72 C 139.85 167.09 141.13 166.41 141.49 165.21 L 141.79 164.25 C 142.16 163.05 141.49 161.78 140.29 161.41 C 139.09 161.04 137.82 161.71 137.45 162.91 Z M 137.17 163.85 L 136.85 164.85 C 136.47 166.03 137.12 167.31 138.31 167.69 C 139.50 168.07 140.77 167.42 141.15 166.23 L 141.47 165.24 C 141.86 164.05 141.20 162.78 140.02 162.39 C 138.83 162.01 137.55 162.66 137.17 163.85 Z M 136.87 164.82 L 136.56 165.75 C 136.16 166.92 136.80 168.20 137.97 168.60 C 139.15 168.99 140.43 168.36 140.82 167.18 L 141.13 166.26 C 141.53 165.08 140.90 163.80 139.72 163.41 C 138.54 163.01 137.27 163.64 136.87 164.82 Z M 136.58 165.71 L 136.24 166.66 C 135.83 167.82 136.43 169.11 137.60 169.52 C 138.76 169.94 140.04 169.33 140.46 168.17 L 140.80 167.22 C 141.22 166.06 140.61 164.77 139.45 164.36 C 138.28 163.94 137.00 164.54 136.58 165.71 Z M 136.27 166.61 L 135.90 167.56 C 135.46 168.70 136.02 169.99 137.17 170.44 C 138.32 170.89 139.61 170.32 140.06 169.17 L 140.43 168.22 C 140.87 167.08 140.31 165.79 139.16 165.34 C 138.01 164.89 136.72 165.46 136.27 166.61 Z M 135.95 167.48 L 135.54 168.42 C 135.05 169.55 135.57 170.85 136.69 171.34 C 137.81 171.83 139.12 171.31 139.61 170.19 L 140.01 169.25 C 140.50 168.12 139.99 166.82 138.86 166.33 C 137.74 165.84 136.43 166.36 135.95 167.48 Z M 135.61 168.32 L 135.13 169.27 C 134.59 170.35 135.03 171.67 136.11 172.22 C 137.20 172.76 138.52 172.32 139.06 171.24 L 139.54 170.29 C 140.08 169.21 139.64 167.88 138.56 167.34 C 137.47 166.80 136.15 167.24 135.61 168.32 Z M 135.24 169.13 L 134.72 169.99 C 134.09 171.01 134.42 172.35 135.45 172.97 C 136.48 173.59 137.81 173.27 138.44 172.24 L 138.96 171.38 C 139.58 170.35 139.25 169.02 138.22 168.39 C 137.20 167.77 135.86 168.10 135.24 169.13 Z M 134.87 169.80 L 134.29 170.55 C 133.57 171.49 133.74 172.84 134.69 173.57 C 135.63 174.29 136.98 174.12 137.70 173.18 L 138.28 172.42 C 139.01 171.48 138.83 170.13 137.89 169.41 C 136.95 168.68 135.60 168.86 134.87 169.80 Z M 134.53 170.33 L 133.84 170.99 C 132.99 171.80 132.96 173.14 133.77 173.99 C 134.58 174.84 135.92 174.87 136.77 174.06 L 137.46 173.40 C 138.31 172.59 138.34 171.25 137.53 170.40 C 136.72 169.55 135.38 169.52 134.53 170.33 Z M 134.15 170.80 L 133.34 171.34 C 132.39 171.97 132.13 173.26 132.77 174.22 C 133.40 175.17 134.69 175.43 135.65 174.79 L 136.46 174.25 C 137.41 173.62 137.67 172.33 137.03 171.37 C 136.40 170.42 135.11 170.16 134.15 170.80 Z M 133.64 171.22 L 132.73 171.65 C 131.71 172.12 131.27 173.33 131.75 174.35 C 132.22 175.36 133.43 175.80 134.45 175.33 L 135.35 174.90 C 136.37 174.43 136.81 173.22 136.34 172.21 C 135.86 171.19 134.65 170.75 133.64 171.22 Z M 132.95 171.61 L 132.00 171.94 C 130.96 172.29 130.41 173.42 130.76 174.46 C 131.12 175.49 132.25 176.05 133.28 175.69 L 134.23 175.36 C 135.27 175.01 135.82 173.88 135.47 172.84 C 135.11 171.81 133.98 171.26 132.95 171.61 Z M 132.13 171.94 L 131.21 172.19 C 130.17 172.47 129.56 173.53 129.84 174.57 C 130.12 175.60 131.18 176.21 132.21 175.93 L 133.14 175.68 C 134.18 175.41 134.79 174.34 134.51 173.31 C 134.23 172.27 133.17 171.66 132.13 171.94 Z M 131.30 172.22 L 130.32 172.44 C 129.29 172.66 128.65 173.68 128.88 174.70 C 129.11 175.72 130.12 176.36 131.14 176.13 L 132.12 175.91 C 133.14 175.68 133.78 174.67 133.56 173.65 C 133.33 172.63 132.32 171.99 131.30 172.22 Z M 130.38 172.47 L 129.36 172.67 C 128.36 172.86 127.70 173.83 127.90 174.83 C 128.09 175.83 129.06 176.49 130.06 176.29 L 131.08 176.10 C 132.08 175.90 132.74 174.93 132.54 173.93 C 132.35 172.93 131.38 172.28 130.38 172.47 Z M 129.40 172.70 L 128.38 172.88 C 127.40 173.05 126.74 173.99 126.92 174.97 C 127.09 175.95 128.03 176.61 129.01 176.44 L 130.02 176.26 C 131.01 176.09 131.66 175.15 131.49 174.17 C 131.32 173.18 130.38 172.53 129.40 172.70 Z M 128.42 172.90 L 127.41 173.06 C 126.44 173.22 125.78 174.13 125.94 175.10 C 126.10 176.07 127.01 176.73 127.98 176.58 L 128.98 176.41 C 129.95 176.26 130.61 175.35 130.46 174.38 C 130.30 173.41 129.39 172.74 128.42 172.90 Z M 127.45 173.08 L 126.46 173.22 C 125.50 173.35 124.83 174.24 124.96 175.20 C 125.10 176.16 125.98 176.83 126.94 176.70 L 127.94 176.56 C 128.90 176.42 129.57 175.54 129.44 174.58 C 129.30 173.61 128.41 172.95 127.45 173.08 Z M 126.51 173.24 L 125.53 173.35 C 124.58 173.45 123.89 174.31 124.00 175.26 C 124.11 176.21 124.96 176.89 125.91 176.79 L 126.89 176.68 C 127.84 176.57 128.53 175.72 128.42 174.76 C 128.32 173.81 127.46 173.13 126.51 173.24 Z M 125.59 173.36 L 124.61 173.43 C 123.66 173.50 122.95 174.33 123.03 175.27 C 123.10 176.22 123.92 176.92 124.87 176.85 L 125.85 176.78 C 126.80 176.70 127.50 175.88 127.43 174.94 C 127.36 173.99 126.54 173.28 125.59 173.36 Z M 124.66 173.43 L 123.68 173.48 C 122.73 173.52 122.00 174.32 122.04 175.26 C 122.09 176.21 122.89 176.94 123.83 176.90 L 124.82 176.85 C 125.76 176.81 126.49 176.01 126.45 175.06 C 126.40 174.12 125.60 173.39 124.66 173.43 Z M 123.70 173.48 L 122.71 173.51 C 121.77 173.53 121.03 174.32 121.05 175.27 C 121.08 176.21 121.87 176.95 122.81 176.92 L 123.80 176.90 C 124.75 176.87 125.49 176.08 125.46 175.14 C 125.43 174.19 124.65 173.45 123.70 173.48 Z M 122.71 173.51 L 121.69 173.54 C 120.75 173.57 120.01 174.36 120.04 175.30 C 120.07 176.24 120.86 176.98 121.80 176.96 L 122.82 176.92 C 123.76 176.89 124.50 176.11 124.47 175.16 C 124.44 174.22 123.65 173.48 122.71 173.51 Z M 121.67 173.54 L 120.70 173.58 C 119.76 173.63 119.03 174.42 119.07 175.37 C 119.12 176.31 119.91 177.04 120.86 177.00 L 121.82 176.95 C 122.76 176.91 123.49 176.11 123.45 175.17 C 123.41 174.23 122.61 173.50 121.67 173.54 Z M 120.68 173.59 L 119.69 173.64 C 118.75 173.70 118.03 174.50 118.09 175.45 C 118.14 176.39 118.95 177.11 119.89 177.05 L 120.88 177.00 C 121.82 176.94 122.54 176.13 122.49 175.19 C 122.43 174.25 121.62 173.53 120.68 173.59 Z M 119.68 173.64 L 118.67 173.71 C 117.73 173.77 117.02 174.58 117.08 175.53 C 117.14 176.47 117.95 177.18 118.89 177.12 L 119.90 177.05 C 120.85 176.99 121.56 176.18 121.50 175.24 C 121.44 174.29 120.62 173.58 119.68 173.64 Z M 118.66 173.71 L 117.64 173.78 C 116.70 173.85 115.99 174.66 116.05 175.61 C 116.12 176.55 116.94 177.26 117.88 177.19 L 118.90 177.12 C 119.84 177.05 120.55 176.24 120.49 175.29 C 120.42 174.35 119.60 173.64 118.66 173.71 Z M 117.64 173.78 L 117.31 173.80 C 116.37 173.87 115.66 174.69 115.73 175.63 C 115.80 176.57 116.62 177.28 117.56 177.21 L 117.88 177.19 C 118.82 177.12 119.53 176.31 119.46 175.36 C 119.39 174.42 118.58 173.71 117.64 173.78 Z"
      fill="black"
      fill-rule="nonzero" /><path d="M 103.59 174.27 L 102.28 174.48 C 101.25 174.65 100.56 175.62 100.72 176.64 C 100.89 177.66 101.86 178.36 102.88 178.19 L 104.19 177.98 C 105.21 177.81 105.91 176.85 105.74 175.82 C 105.57 174.80 104.61 174.10 103.59 174.27 Z M 102.23 174.30 L 101.04 174.50 C 99.91 174.69 99.15 175.76 99.34 176.88 C 99.53 178.01 100.60 178.77 101.72 178.58 L 102.92 178.37 C 104.04 178.18 104.80 177.12 104.61 175.99 C 104.42 174.87 103.36 174.11 102.23 174.30 Z M 100.97 174.32 L 100.00 174.50 C 98.78 174.73 97.97 175.90 98.19 177.13 C 98.42 178.35 99.59 179.16 100.82 178.93 L 101.79 178.75 C 103.01 178.53 103.82 177.36 103.59 176.13 C 103.37 174.91 102.20 174.10 100.97 174.32 Z M 99.87 174.34 L 99.24 174.48 C 97.93 174.78 97.10 176.09 97.40 177.40 C 97.70 178.72 99.01 179.54 100.32 179.24 L 100.95 179.10 C 102.26 178.80 103.09 177.49 102.79 176.18 C 102.49 174.86 101.18 174.04 99.87 174.34 Z M 97.48 175.67 L 97.41 175.81 C 96.75 177.08 97.25 178.64 98.52 179.30 C 99.78 179.96 101.35 179.46 102.00 178.19 L 102.08 178.05 C 102.74 176.79 102.24 175.22 100.97 174.56 C 99.70 173.91 98.14 174.40 97.48 175.67 Z M 99.62 179.68 L 100.68 179.71 C 102.16 179.76 103.40 178.60 103.44 177.12 C 103.49 175.64 102.33 174.40 100.85 174.35 L 99.79 174.32 C 98.31 174.28 97.08 175.44 97.03 176.92 C 96.98 178.40 98.15 179.63 99.62 179.68 Z M 100.82 179.77 L 101.99 179.75 C 103.50 179.71 104.70 178.46 104.67 176.95 C 104.63 175.44 103.38 174.24 101.87 174.27 L 100.71 174.30 C 99.19 174.33 98.00 175.58 98.03 177.09 C 98.06 178.60 99.31 179.80 100.82 179.77 Z M 102.02 179.77 L 102.96 179.74 C 104.49 179.69 105.68 178.41 105.63 176.89 C 105.58 175.36 104.31 174.17 102.78 174.22 L 101.84 174.25 C 100.32 174.30 99.12 175.57 99.17 177.10 C 99.22 178.62 100.50 179.82 102.02 179.77 Z M 102.96 179.75 L 103.96 179.71 C 105.49 179.66 106.69 178.39 106.64 176.86 C 106.59 175.33 105.31 174.13 103.79 174.18 L 102.78 174.21 C 101.25 174.26 100.05 175.54 100.10 177.07 C 100.15 178.60 101.43 179.79 102.96 179.75 Z M 103.94 179.72 L 105.04 179.70 C 106.57 179.66 107.78 178.39 107.75 176.85 C 107.71 175.32 106.44 174.10 104.90 174.14 L 103.81 174.17 C 102.27 174.21 101.06 175.48 101.10 177.01 C 101.13 178.55 102.41 179.76 103.94 179.72 Z M 105.01 179.70 L 105.97 179.69 C 107.51 179.67 108.74 178.40 108.72 176.87 C 108.69 175.33 107.43 174.10 105.89 174.12 L 104.93 174.14 C 103.39 174.16 102.16 175.42 102.19 176.96 C 102.21 178.49 103.47 179.72 105.01 179.70 Z M 105.95 179.69 L 106.97 179.68 C 108.50 179.67 109.74 178.41 109.73 176.88 C 109.72 175.34 108.46 174.10 106.93 174.11 L 105.91 174.12 C 104.37 174.13 103.14 175.39 103.15 176.93 C 103.16 178.46 104.42 179.70 105.95 179.69 Z M 106.96 179.68 L 107.98 179.68 C 109.52 179.67 110.76 178.42 110.76 176.89 C 110.75 175.35 109.50 174.10 107.97 174.11 L 106.94 174.11 C 105.40 174.12 104.16 175.37 104.16 176.91 C 104.17 178.44 105.42 179.69 106.96 179.68 Z M 107.98 179.68 L 108.98 179.68 C 110.52 179.68 111.77 178.43 111.77 176.89 C 111.77 175.35 110.52 174.11 108.98 174.11 L 107.97 174.11 C 106.43 174.11 105.19 175.36 105.19 176.90 C 105.19 178.43 106.44 179.68 107.98 179.68 Z M 108.98 179.68 L 110.02 179.68 C 111.55 179.68 112.80 178.43 112.80 176.89 C 112.80 175.35 111.55 174.11 110.02 174.11 L 108.98 174.11 C 107.44 174.11 106.20 175.35 106.20 176.89 C 106.20 178.43 107.44 179.68 108.98 179.68 Z M 110.02 179.68 L 111.03 179.68 C 112.57 179.68 113.82 178.43 113.82 176.89 C 113.82 175.36 112.57 174.11 111.03 174.11 L 110.02 174.11 C 108.48 174.11 107.23 175.36 107.23 176.89 C 107.23 178.43 108.48 179.68 110.02 179.68 Z M 111.03 179.68 L 112.01 179.68 C 113.55 179.68 114.79 178.43 114.79 176.89 C 114.79 175.36 113.55 174.11 112.01 174.11 L 111.03 174.11 C 109.50 174.11 108.25 175.36 108.25 176.89 C 108.25 178.43 109.50 179.68 111.03 179.68 Z M 112.01 179.68 L 112.98 179.68 C 114.51 179.68 115.76 178.43 115.76 176.89 C 115.76 175.36 114.51 174.11 112.98 174.11 L 112.01 174.11 C 110.47 174.11 109.23 175.36 109.23 176.89 C 109.23 178.43 110.47 179.68 112.01 179.68 Z M 112.98 179.68 L 113.93 179.68 C 115.46 179.68 116.71 178.43 116.71 176.89 C 116.71 175.36 115.46 174.11 113.93 174.11 L 112.98 174.11 C 111.44 174.11 110.19 175.36 110.19 176.89 C 110.19 178.43 111.44 179.68 112.98 179.68 Z M 113.93 179.67 L 114.90 179.67 C 116.43 179.67 117.68 178.43 117.68 176.89 C 117.68 175.36 116.43 174.11 114.90 174.11 L 113.93 174.11 C 112.39 174.11 111.15 175.36 111.15 176.89 C 111.15 178.43 112.39 179.67 113.93 179.67 Z M 114.90 179.67 L 115.90 179.67 C 117.44 179.67 118.68 178.43 118.68 176.89 C 118.68 175.36 117.44 174.12 115.90 174.12 L 114.90 174.12 C 113.36 174.12 112.12 175.36 112.12 176.89 C 112.12 178.43 113.36 179.67 114.90 179.67 Z M 115.90 179.67 L 116.95 179.67 C 118.48 179.67 119.73 178.43 119.73 176.89 C 119.73 175.36 118.48 174.12 116.95 174.12 L 115.90 174.12 C 114.37 174.12 113.13 175.36 113.13 176.89 C 113.13 178.43 114.37 179.67 115.90 179.67 Z M 116.95 179.67 L 117.94 179.67 C 119.47 179.67 120.71 178.43 120.71 176.89 C 120.71 175.36 119.47 174.12 117.94 174.12 L 116.95 174.12 C 115.42 174.12 114.18 175.36 114.18 176.89 C 114.17 178.43 115.42 179.67 116.95 179.67 Z M 117.93 179.67 L 118.91 179.67 C 120.44 179.67 121.68 178.43 121.69 176.90 C 121.69 175.37 120.45 174.13 118.92 174.12 L 117.94 174.12 C 116.41 174.12 115.17 175.36 115.16 176.89 C 115.16 178.42 116.40 179.66 117.93 179.67 Z M 118.90 179.66 L 119.91 179.67 C 121.44 179.67 122.68 178.44 122.69 176.91 C 122.69 175.38 121.46 174.14 119.93 174.13 L 118.92 174.13 C 117.40 174.12 116.15 175.36 116.15 176.88 C 116.14 178.41 117.37 179.66 118.90 179.66 Z M 119.90 179.66 L 120.92 179.67 C 122.44 179.68 123.69 178.46 123.70 176.93 C 123.72 175.40 122.49 174.15 120.96 174.14 L 119.94 174.13 C 118.41 174.12 117.16 175.35 117.15 176.88 C 117.14 178.40 118.37 179.65 119.90 179.66 Z M 120.90 179.67 L 121.93 179.68 C 123.46 179.70 124.71 178.48 124.73 176.96 C 124.75 175.43 123.53 174.18 122.00 174.16 L 120.97 174.14 C 119.45 174.12 118.20 175.34 118.18 176.87 C 118.16 178.40 119.38 179.65 120.90 179.67 Z M 121.92 179.68 L 122.88 179.70 C 124.40 179.73 125.66 178.52 125.69 176.99 C 125.72 175.47 124.51 174.21 122.99 174.18 L 122.02 174.16 C 120.50 174.13 119.24 175.34 119.21 176.87 C 119.18 178.39 120.39 179.65 121.92 179.68 Z M 122.86 179.69 L 123.84 179.72 C 125.36 179.76 126.62 178.55 126.66 177.03 C 126.70 175.51 125.50 174.25 123.98 174.21 L 123.00 174.18 C 121.48 174.15 120.22 175.35 120.18 176.87 C 120.14 178.39 121.34 179.65 122.86 179.69 Z M 123.82 179.71 L 124.82 179.74 C 126.34 179.79 127.60 178.60 127.65 177.08 C 127.70 175.56 126.50 174.29 124.99 174.24 L 123.99 174.21 C 122.47 174.17 121.20 175.36 121.16 176.88 C 121.11 178.40 122.30 179.67 123.82 179.71 Z M 124.80 179.74 L 125.82 179.78 C 127.34 179.83 128.61 178.64 128.66 177.13 C 128.72 175.61 127.53 174.34 126.02 174.28 L 125.00 174.25 C 123.48 174.19 122.21 175.38 122.16 176.89 C 122.10 178.41 123.29 179.68 124.80 179.74 Z M 125.81 179.77 L 126.86 179.81 C 128.37 179.87 129.65 178.70 129.71 177.18 C 129.77 175.67 128.59 174.39 127.08 174.33 L 126.03 174.29 C 124.52 174.23 123.24 175.40 123.18 176.92 C 123.12 178.43 124.29 179.71 125.81 179.77 Z M 126.85 179.81 L 127.80 179.85 C 129.31 179.92 130.59 178.75 130.65 177.24 C 130.72 175.73 129.55 174.45 128.04 174.38 L 127.09 174.34 C 125.58 174.27 124.30 175.44 124.23 176.95 C 124.16 178.46 125.33 179.74 126.85 179.81 Z M 127.79 179.84 L 128.76 179.89 C 130.27 179.96 131.55 178.80 131.62 177.29 C 131.69 175.79 130.53 174.51 129.02 174.43 L 128.05 174.39 C 126.54 174.31 125.26 175.48 125.19 176.98 C 125.12 178.49 126.28 179.77 127.79 179.84 Z M 128.75 179.88 L 129.75 179.94 C 131.25 180.01 132.53 178.86 132.61 177.35 C 132.69 175.85 131.53 174.57 130.03 174.49 L 129.03 174.44 C 127.53 174.36 126.25 175.52 126.17 177.02 C 126.09 178.52 127.25 179.81 128.75 179.88 Z M 129.74 179.93 L 130.75 179.99 C 132.25 180.07 133.53 178.92 133.62 177.42 C 133.70 175.92 132.55 174.64 131.05 174.55 L 130.04 174.50 C 128.54 174.41 127.25 175.56 127.17 177.06 C 127.09 178.56 128.24 179.85 129.74 179.93 Z M 130.74 179.98 L 131.77 180.04 C 133.27 180.13 134.55 178.99 134.64 177.49 C 134.73 175.99 133.59 174.71 132.09 174.62 L 131.06 174.56 C 129.57 174.47 128.28 175.61 128.19 177.11 C 128.10 178.61 129.24 179.89 130.74 179.98 Z M 131.76 180.03 L 132.78 180.10 C 134.28 180.19 135.56 179.06 135.66 177.57 C 135.75 176.07 134.62 174.79 133.13 174.69 L 132.10 174.63 C 130.61 174.53 129.32 175.67 129.23 177.16 C 129.13 178.65 130.27 179.94 131.76 180.03 Z M 132.78 180.09 L 133.76 180.16 C 135.25 180.26 136.53 179.13 136.63 177.64 C 136.73 176.15 135.61 174.86 134.12 174.76 L 133.13 174.70 C 131.64 174.60 130.36 175.73 130.26 177.22 C 130.16 178.71 131.29 179.99 132.78 180.09 Z M 133.75 180.15 L 134.74 180.22 C 136.23 180.32 137.51 179.20 137.62 177.72 C 137.72 176.23 136.60 174.94 135.11 174.84 L 134.12 174.77 C 132.64 174.67 131.35 175.79 131.25 177.27 C 131.14 178.76 132.26 180.05 133.75 180.15 Z M 134.73 180.21 L 135.73 180.28 C 137.21 180.39 138.50 179.27 138.61 177.79 C 138.71 176.31 137.60 175.02 136.11 174.92 L 135.12 174.85 C 133.64 174.74 132.35 175.86 132.24 177.34 C 132.14 178.82 133.25 180.11 134.73 180.21 Z M 135.73 180.28 L 136.73 180.35 C 138.21 180.46 139.50 179.35 139.60 177.87 C 139.71 176.39 138.60 175.10 137.12 175.00 L 136.12 174.92 C 134.64 174.82 133.35 175.93 133.25 177.41 C 133.14 178.88 134.25 180.17 135.73 180.28 Z M 136.73 180.35 L 137.74 180.42 C 139.21 180.53 140.50 179.42 140.60 177.95 C 140.71 176.47 139.61 175.19 138.13 175.08 L 137.12 175.00 C 135.65 174.89 134.36 176.00 134.25 177.48 C 134.15 178.95 135.25 180.24 136.73 180.35 Z M 137.74 180.41 L 138.75 180.49 C 140.22 180.60 141.50 179.49 141.61 178.02 C 141.72 176.55 140.61 175.27 139.14 175.16 L 138.13 175.08 C 136.66 174.97 135.38 176.08 135.27 177.55 C 135.16 179.02 136.26 180.30 137.74 180.41 Z M 138.75 180.48 L 139.73 180.56 C 141.20 180.66 142.48 179.56 142.59 178.09 C 142.70 176.62 141.60 175.34 140.13 175.24 L 139.14 175.16 C 137.67 175.06 136.39 176.16 136.28 177.63 C 136.18 179.10 137.28 180.37 138.75 180.48 Z M 139.74 180.55 L 140.73 180.62 C 142.19 180.73 143.47 179.63 143.58 178.16 C 143.68 176.70 142.58 175.42 141.12 175.31 L 140.12 175.24 C 138.66 175.14 137.38 176.24 137.28 177.70 C 137.17 179.17 138.27 180.44 139.74 180.55 Z M 140.73 180.62 L 141.73 180.69 C 143.19 180.79 144.46 179.69 144.57 178.23 C 144.67 176.76 143.57 175.49 142.11 175.39 L 141.11 175.32 C 139.65 175.22 138.38 176.32 138.27 177.78 C 138.17 179.24 139.27 180.51 140.73 180.62 Z M 141.74 180.68 L 142.73 180.75 C 144.19 180.85 145.46 179.75 145.56 178.29 C 145.66 176.83 144.56 175.57 143.10 175.47 L 142.10 175.40 C 140.64 175.30 139.38 176.40 139.28 177.86 C 139.17 179.32 140.28 180.58 141.74 180.68 Z M 142.74 180.74 L 143.75 180.81 C 145.20 180.91 146.46 179.81 146.56 178.35 C 146.65 176.89 145.55 175.63 144.10 175.54 L 143.09 175.47 C 141.64 175.37 140.38 176.48 140.28 177.93 C 140.18 179.39 141.29 180.65 142.74 180.74 Z M 143.75 180.81 L 144.76 180.87 C 146.21 180.96 147.47 179.86 147.56 178.40 C 147.65 176.95 146.55 175.70 145.09 175.61 L 144.09 175.54 C 142.63 175.45 141.38 176.56 141.29 178.01 C 141.20 179.46 142.30 180.71 143.75 180.81 Z M 144.77 180.86 L 145.75 180.92 C 147.20 181.01 148.45 179.90 148.53 178.45 C 148.62 177.00 147.51 175.76 146.06 175.67 L 145.08 175.61 C 143.63 175.53 142.39 176.63 142.30 178.08 C 142.21 179.53 143.32 180.78 144.77 180.86 Z M 145.76 180.92 L 146.73 180.97 C 148.18 181.05 149.42 179.94 149.50 178.50 C 149.58 177.05 148.47 175.81 147.03 175.73 L 146.05 175.68 C 144.60 175.59 143.37 176.70 143.29 178.15 C 143.20 179.60 144.31 180.84 145.76 180.92 Z M 146.74 180.97 L 147.73 181.02 C 149.17 181.09 150.40 179.98 150.48 178.54 C 150.55 177.10 149.44 175.86 148.00 175.79 L 147.02 175.74 C 145.57 175.66 144.34 176.77 144.27 178.21 C 144.19 179.66 145.30 180.89 146.74 180.97 Z M 147.73 181.01 L 148.73 181.06 C 150.17 181.13 151.39 180.02 151.47 178.58 C 151.54 177.14 150.43 175.91 148.99 175.84 L 147.99 175.79 C 146.55 175.72 145.33 176.83 145.25 178.27 C 145.18 179.71 146.29 180.94 147.73 181.01 Z M 148.73 181.05 L 149.74 181.10 C 151.18 181.17 152.40 180.06 152.47 178.62 C 152.54 177.19 151.43 175.96 149.99 175.90 L 148.98 175.85 C 147.54 175.78 146.32 176.89 146.25 178.33 C 146.18 179.76 147.29 180.99 148.73 181.05 Z M 149.74 181.10 L 150.77 181.14 C 152.20 181.21 153.42 180.10 153.48 178.67 C 153.55 177.23 152.44 176.02 151.01 175.95 L 149.98 175.90 C 148.55 175.84 147.33 176.95 147.27 178.38 C 147.20 179.81 148.31 181.03 149.74 181.10 Z M 150.77 181.14 L 151.80 181.18 C 153.23 181.25 154.45 180.14 154.51 178.71 C 154.57 177.28 153.47 176.07 152.03 176.00 L 151.00 175.95 C 149.57 175.89 148.36 177.00 148.29 178.43 C 148.23 179.86 149.34 181.07 150.77 181.14 Z M 151.80 181.18 L 152.80 181.22 C 154.22 181.28 155.43 180.18 155.50 178.75 C 155.56 177.32 154.45 176.11 153.02 176.05 L 152.03 176.01 C 150.60 175.94 149.39 177.05 149.33 178.48 C 149.27 179.91 150.38 181.12 151.80 181.18 Z M 152.80 181.22 L 153.80 181.26 C 155.23 181.32 156.43 180.21 156.49 178.79 C 156.55 177.36 155.45 176.16 154.02 176.10 L 153.02 176.06 C 151.60 176.00 150.39 177.10 150.33 178.53 C 150.27 179.95 151.37 181.16 152.80 181.22 Z M 153.81 181.25 L 154.82 181.30 C 156.24 181.35 157.44 180.25 157.50 178.83 C 157.56 177.41 156.45 176.21 155.03 176.15 L 154.02 176.10 C 152.60 176.05 151.40 177.15 151.34 178.57 C 151.28 179.99 152.38 181.19 153.81 181.25 Z M 154.82 181.29 L 155.83 181.33 C 157.25 181.39 158.45 180.28 158.50 178.87 C 158.56 177.45 157.46 176.25 156.04 176.19 L 155.03 176.15 C 153.61 176.10 152.41 177.20 152.35 178.62 C 152.30 180.04 153.40 181.23 154.82 181.29 Z M 155.83 181.32 L 156.84 181.36 C 158.26 181.42 159.45 180.32 159.50 178.90 C 159.56 177.48 158.45 176.29 157.04 176.24 L 156.03 176.20 C 154.62 176.14 153.43 177.25 153.37 178.66 C 153.32 180.08 154.42 181.27 155.83 181.32 Z M 156.85 181.36 L 157.84 181.39 C 159.25 181.45 160.44 180.34 160.49 178.93 C 160.54 177.52 159.44 176.33 158.03 176.28 L 157.03 176.24 C 155.62 176.19 154.43 177.29 154.38 178.71 C 154.33 180.12 155.43 181.31 156.85 181.36 Z M 157.85 181.39 L 158.83 181.42 C 160.24 181.47 161.42 180.37 161.47 178.96 C 161.52 177.55 160.42 176.37 159.01 176.32 L 158.02 176.29 C 156.61 176.24 155.43 177.34 155.38 178.75 C 155.33 180.16 156.44 181.34 157.85 181.39 Z M 158.84 181.42 L 159.88 181.45 C 161.29 181.50 162.46 180.39 162.51 178.99 C 162.56 177.58 161.45 176.41 160.05 176.36 L 159.00 176.33 C 157.60 176.28 156.42 177.38 156.38 178.79 C 156.33 180.20 157.43 181.37 158.84 181.42 Z M 159.89 181.44 L 160.91 181.47 C 162.31 181.51 163.48 180.41 163.53 179.01 C 163.57 177.61 162.46 176.44 161.06 176.40 L 160.04 176.37 C 158.64 176.33 157.47 177.43 157.43 178.83 C 157.39 180.23 158.49 181.40 159.89 181.44 Z M 160.92 181.47 L 161.92 181.49 C 163.32 181.53 164.48 180.43 164.52 179.03 C 164.56 177.64 163.46 176.47 162.06 176.43 L 161.06 176.41 C 159.66 176.37 158.50 177.47 158.46 178.86 C 158.42 180.26 159.52 181.43 160.92 181.47 Z M 161.92 181.49 L 162.91 181.51 C 164.31 181.55 165.47 180.45 165.50 179.06 C 165.54 177.66 164.44 176.50 163.05 176.47 L 162.06 176.44 C 160.67 176.40 159.51 177.50 159.47 178.90 C 159.43 180.29 160.53 181.45 161.92 181.49 Z M 162.92 181.50 L 163.89 181.53 C 165.28 181.56 166.44 180.47 166.47 179.08 C 166.51 177.69 165.41 176.53 164.02 176.50 L 163.04 176.47 C 161.66 176.44 160.50 177.54 160.47 178.93 C 160.43 180.31 161.53 181.47 162.92 181.50 Z M 163.90 181.52 L 164.86 181.55 C 166.25 181.58 167.40 180.49 167.43 179.10 C 167.47 177.72 166.37 176.57 164.99 176.53 L 164.02 176.51 C 162.63 176.47 161.48 177.57 161.45 178.95 C 161.42 180.34 162.51 181.49 163.90 181.52 Z M 164.86 181.54 L 165.86 181.56 C 167.24 181.60 168.38 180.51 168.42 179.12 C 168.45 177.74 167.36 176.60 165.98 176.56 L 164.99 176.54 C 163.61 176.51 162.46 177.60 162.43 178.98 C 162.39 180.36 163.48 181.50 164.86 181.54 Z M 165.86 181.55 L 166.87 181.58 C 168.24 181.61 169.38 180.52 169.42 179.15 C 169.45 177.77 168.36 176.63 166.99 176.60 L 165.98 176.57 C 164.60 176.54 163.46 177.63 163.43 179.00 C 163.40 180.38 164.48 181.52 165.86 181.55 Z M 166.87 181.57 L 167.87 181.59 C 169.24 181.63 170.38 180.54 170.41 179.17 C 170.44 177.80 169.36 176.66 167.99 176.63 L 166.99 176.61 C 165.61 176.57 164.48 177.66 164.45 179.03 C 164.41 180.40 165.50 181.54 166.87 181.57 Z M 167.88 181.58 L 168.88 181.61 C 170.24 181.64 171.37 180.55 171.40 179.19 C 171.43 177.82 170.35 176.69 168.98 176.66 L 167.98 176.64 C 166.62 176.61 165.49 177.69 165.46 179.06 C 165.43 180.42 166.51 181.55 167.88 181.58 Z M 168.88 181.60 L 169.88 181.62 C 171.24 181.64 172.36 180.56 172.39 179.20 C 172.42 177.84 171.33 176.71 169.97 176.69 L 168.98 176.67 C 167.62 176.64 166.49 177.72 166.47 179.09 C 166.44 180.45 167.52 181.57 168.88 181.60 Z M 169.89 181.61 L 170.88 181.62 C 172.23 181.65 173.35 180.56 173.37 179.21 C 173.39 177.85 172.31 176.74 170.96 176.71 L 169.97 176.70 C 168.61 176.67 167.49 177.76 167.47 179.11 C 167.45 180.47 168.53 181.59 169.89 181.61 Z M 170.89 181.61 L 171.89 181.63 C 173.24 181.64 174.35 180.56 174.37 179.21 C 174.38 177.86 173.30 176.75 171.95 176.74 L 170.95 176.72 C 169.60 176.71 168.49 177.79 168.47 179.14 C 168.45 180.49 169.54 181.60 170.89 181.61 Z M 171.90 181.62 L 172.92 181.63 C 174.26 181.64 175.36 180.56 175.37 179.21 C 175.39 177.87 174.30 176.77 172.96 176.75 L 171.94 176.74 C 170.60 176.73 169.50 177.81 169.48 179.16 C 169.47 180.51 170.55 181.61 171.90 181.62 Z M 172.92 181.62 L 173.93 181.62 C 175.27 181.63 176.37 180.55 176.37 179.21 C 176.38 177.87 175.30 176.78 173.96 176.77 L 172.95 176.76 C 171.61 176.76 170.52 177.84 170.51 179.18 C 170.50 180.52 171.58 181.61 172.92 181.62 Z M 173.94 181.61 L 174.94 181.62 C 176.28 181.62 177.36 180.54 177.37 179.21 C 177.37 177.87 176.29 176.79 174.96 176.78 L 173.96 176.78 C 172.62 176.77 171.53 177.85 171.53 179.19 C 171.53 180.52 172.60 181.61 173.94 181.61 Z M 174.95 181.61 L 175.94 181.61 C 177.27 181.61 178.35 180.53 178.35 179.20 C 178.35 177.88 177.28 176.80 175.95 176.79 L 174.95 176.79 C 173.62 176.79 172.54 177.87 172.54 179.20 C 172.54 180.53 173.62 181.60 174.95 181.61 Z M 175.94 181.60 L 176.92 181.60 C 178.25 181.60 179.32 180.53 179.32 179.20 C 179.32 177.88 178.25 176.80 176.93 176.80 L 175.94 176.80 C 174.62 176.80 173.55 177.88 173.55 179.20 C 173.54 180.52 174.62 181.60 175.94 181.60 Z M 176.92 181.59 L 177.93 181.59 C 179.25 181.59 180.32 180.52 180.32 179.20 C 180.32 177.88 179.25 176.81 177.93 176.81 L 176.92 176.81 C 175.60 176.81 174.54 177.88 174.54 179.20 C 174.54 180.52 175.60 181.59 176.92 181.59 Z M 177.93 181.59 L 178.96 181.59 C 180.27 181.59 181.34 180.52 181.34 179.20 C 181.34 177.89 180.27 176.82 178.96 176.82 L 177.93 176.82 C 176.62 176.82 175.55 177.88 175.55 179.20 C 175.55 180.52 176.61 181.58 177.93 181.59 Z M 178.95 181.58 L 179.96 181.58 C 181.28 181.59 182.35 180.52 182.35 179.21 C 182.35 177.89 181.29 176.83 179.97 176.82 L 178.96 176.82 C 177.65 176.82 176.58 177.88 176.58 179.20 C 176.57 180.51 177.64 181.58 178.95 181.58 Z M 179.96 181.58 L 180.95 181.59 C 182.27 181.59 183.34 180.53 183.34 179.22 C 183.35 177.90 182.29 176.84 180.97 176.83 L 179.98 176.83 C 178.67 176.82 177.60 177.88 177.59 179.19 C 177.59 180.51 178.65 181.58 179.96 181.58 Z M 180.95 181.58 L 181.93 181.59 C 183.24 181.60 184.31 180.54 184.32 179.23 C 184.33 177.92 183.27 176.85 181.96 176.84 L 180.98 176.83 C 179.67 176.82 178.60 177.88 178.59 179.19 C 178.58 180.50 179.64 181.57 180.95 181.58 Z M 181.92 181.59 L 182.88 181.60 C 184.19 181.61 185.27 180.56 185.28 179.25 C 185.30 177.95 184.25 176.87 182.94 176.86 L 181.97 176.84 C 180.66 176.83 179.59 177.88 179.57 179.19 C 179.56 180.50 180.61 181.57 181.92 181.59 Z M 182.87 181.59 L 183.89 181.60 C 185.19 181.63 186.27 180.59 186.29 179.28 C 186.31 177.98 185.27 176.91 183.97 176.88 L 182.95 176.87 C 181.65 176.84 180.57 177.88 180.55 179.19 C 180.53 180.49 181.57 181.57 182.87 181.59 Z M 183.88 181.59 L 184.88 181.61 C 186.17 181.64 187.25 180.61 187.28 179.32 C 187.30 178.02 186.28 176.95 184.98 176.92 L 183.98 176.90 C 182.68 176.87 181.61 177.90 181.58 179.19 C 181.56 180.49 182.58 181.56 183.88 181.59 Z M 184.87 181.59 L 185.87 181.62 C 187.15 181.65 188.22 180.64 188.25 179.35 C 188.29 178.07 187.27 177.00 185.99 176.97 L 184.99 176.94 C 183.71 176.91 182.64 177.92 182.60 179.21 C 182.57 180.49 183.59 181.56 184.87 181.59 Z M 185.86 181.60 L 186.85 181.63 C 188.13 181.67 189.19 180.66 189.23 179.39 C 189.26 178.11 188.26 177.05 186.98 177.01 L 185.99 176.98 C 184.72 176.95 183.65 177.95 183.62 179.23 C 183.58 180.50 184.59 181.56 185.86 181.60 Z M 186.85 181.61 L 187.84 181.64 C 189.11 181.68 190.17 180.68 190.20 179.42 C 190.24 178.15 189.24 177.09 187.98 177.06 L 186.99 177.03 C 185.72 176.99 184.66 177.99 184.63 179.25 C 184.59 180.52 185.58 181.57 186.85 181.61 Z M 187.84 181.62 L 188.88 181.65 C 190.13 181.69 191.18 180.70 191.22 179.45 C 191.26 178.19 190.27 177.15 189.01 177.11 L 187.98 177.08 C 186.72 177.04 185.68 178.03 185.64 179.28 C 185.60 180.54 186.59 181.58 187.84 181.62 Z M 188.88 181.63 L 189.92 181.66 C 191.16 181.70 192.20 180.72 192.24 179.48 C 192.27 178.24 191.30 177.20 190.06 177.16 L 189.01 177.13 C 187.77 177.09 186.74 178.07 186.70 179.31 C 186.66 180.55 187.64 181.59 188.88 181.63 Z M 189.92 181.64 L 190.94 181.67 C 192.17 181.70 193.19 180.74 193.23 179.51 C 193.27 178.28 192.30 177.26 191.08 177.22 L 190.06 177.19 C 188.83 177.15 187.80 178.11 187.76 179.34 C 187.73 180.57 188.69 181.60 189.92 181.64 Z M 190.94 181.64 L 191.92 181.67 C 193.14 181.71 194.15 180.76 194.19 179.54 C 194.23 178.33 193.28 177.31 192.06 177.27 L 191.08 177.24 C 189.86 177.20 188.85 178.16 188.81 179.37 C 188.77 180.59 189.72 181.60 190.94 181.64 Z M 191.92 181.65 L 192.85 181.68 C 194.05 181.72 195.06 180.78 195.10 179.58 C 195.14 178.38 194.20 177.37 192.99 177.33 L 192.06 177.30 C 190.86 177.26 189.86 178.20 189.82 179.40 C 189.78 180.60 190.72 181.61 191.92 181.65 Z M 192.84 181.66 L 193.86 181.69 C 195.05 181.74 196.04 180.81 196.09 179.62 C 196.13 178.43 195.20 177.44 194.02 177.39 L 193.00 177.35 C 191.81 177.31 190.81 178.24 190.77 179.43 C 190.73 180.61 191.66 181.61 192.84 181.66 Z M 193.85 181.67 L 194.83 181.71 C 196.00 181.76 197.00 180.85 197.05 179.68 C 197.10 178.50 196.19 177.51 195.01 177.46 L 194.03 177.42 C 192.85 177.37 191.86 178.28 191.81 179.45 C 191.76 180.63 192.67 181.62 193.85 181.67 Z M 194.81 181.69 L 195.78 181.74 C 196.94 181.80 197.93 180.90 197.99 179.74 C 198.05 178.58 197.16 177.59 196.00 177.53 L 195.03 177.48 C 193.87 177.42 192.88 178.31 192.82 179.47 C 192.76 180.64 193.65 181.63 194.81 181.69 Z M 195.76 181.71 L 196.76 181.77 C 197.91 181.85 198.90 180.98 198.97 179.83 C 199.04 178.68 198.17 177.69 197.02 177.62 L 196.02 177.56 C 194.87 177.49 193.88 178.36 193.81 179.50 C 193.74 180.65 194.61 181.64 195.76 181.71 Z M 196.74 181.75 L 197.69 181.82 C 198.83 181.91 199.81 181.05 199.90 179.92 C 199.98 178.79 199.13 177.80 198.00 177.72 L 197.04 177.65 C 195.91 177.56 194.92 178.41 194.84 179.55 C 194.75 180.68 195.61 181.67 196.74 181.75 Z M 197.67 181.80 L 198.65 181.88 C 199.77 181.98 200.75 181.15 200.85 180.02 C 200.95 178.90 200.11 177.92 198.99 177.82 L 198.02 177.74 C 196.90 177.64 195.91 178.47 195.81 179.60 C 195.72 180.72 196.55 181.70 197.67 181.80 Z M 198.62 181.86 L 199.63 181.96 C 200.74 182.07 201.73 181.26 201.84 180.15 C 201.95 179.04 201.13 178.05 200.02 177.94 L 199.02 177.84 C 197.91 177.73 196.92 178.54 196.81 179.65 C 196.70 180.76 197.51 181.75 198.62 181.86 Z M 199.60 181.94 L 200.63 182.05 C 201.72 182.18 202.71 181.39 202.84 180.29 C 202.96 179.20 202.17 178.21 201.08 178.08 L 200.05 177.96 C 198.96 177.84 197.97 178.63 197.84 179.72 C 197.72 180.82 198.51 181.81 199.60 181.94 Z M 200.59 182.03 L 201.62 182.16 C 202.70 182.31 203.69 181.55 203.84 180.46 C 203.98 179.38 203.22 178.38 202.14 178.24 L 201.11 178.10 C 200.03 177.96 199.03 178.72 198.89 179.81 C 198.75 180.89 199.51 181.89 200.59 182.03 Z M 201.58 182.13 L 202.59 182.28 C 203.65 182.45 204.65 181.72 204.81 180.65 C 204.97 179.59 204.24 178.59 203.18 178.43 L 202.17 178.27 C 201.11 178.11 200.11 178.84 199.95 179.91 C 199.78 180.97 200.51 181.97 201.58 182.13 Z M 202.56 182.24 L 203.55 182.41 C 204.59 182.59 205.58 181.89 205.76 180.85 C 205.94 179.81 205.24 178.82 204.20 178.64 L 203.21 178.47 C 202.17 178.29 201.18 178.99 201.00 180.03 C 200.82 181.07 201.52 182.06 202.56 182.24 Z M 203.53 182.37 L 204.51 182.55 C 205.53 182.74 206.51 182.07 206.70 181.05 C 206.88 180.04 206.21 179.06 205.20 178.87 L 204.22 178.68 C 203.20 178.49 202.22 179.17 202.03 180.18 C 201.84 181.20 202.51 182.18 203.53 182.37 Z M 204.50 182.51 L 205.47 182.70 C 206.47 182.90 207.43 182.25 207.63 181.25 C 207.82 180.26 207.17 179.29 206.18 179.10 L 205.20 178.91 C 204.21 178.71 203.24 179.36 203.05 180.36 C 202.85 181.35 203.50 182.32 204.50 182.51 Z M 205.47 182.67 L 206.21 182.82 C 207.19 183.01 208.14 182.38 208.34 181.40 C 208.53 180.42 207.90 179.47 206.92 179.28 L 206.18 179.13 C 205.20 178.94 204.25 179.57 204.05 180.55 C 203.86 181.52 204.49 182.47 205.47 182.67 Z"
      fill="black"
      fill-rule="nonzero" /></svg>