<svg xmlns="http://www.w3.org/2000/svg" width="300" height="300" viewBox="0 0 300 300">
<path d="M 138.39 122.17 L 139.25 122.54 C 140.38 123.04 141.70 122.53 142.20 121.40 C 142.70 120.26 142.18 118.94 141.05 118.44 L 140.20 118.07 C 139.06 117.57 137.74 118.08 137.25 119.22 C 136.75 120.35 137.26 121.67 138.39 122.17 Z M 139.35 122.56 L 140.25 122.91 C 141.39 123.35 142.67 122.78 143.12 121.64 C 143.56 120.50 142.99 119.21 141.85 118.77 L 140.95 118.42 C 139.80 117.98 138.52 118.55 138.08 119.69 C 137.63 120.84 138.20 122.12 139.35 122.56 Z M 140.43 122.95 L 141.41 123.24 C 142.58 123.58 143.80 122.92 144.14 121.75 C 144.49 120.58 143.82 119.36 142.65 119.02 L 141.66 118.73 C 140.50 118.39 139.28 119.05 138.93 120.22 C 138.59 121.39 139.26 122.61 140.43 122.95 Z M 141.63 123.28 L 142.66 123.47 C 143.85 123.69 144.99 122.91 145.21 121.72 C 145.43 120.54 144.65 119.39 143.46 119.17 L 142.43 118.98 C 141.25 118.76 140.11 119.54 139.89 120.73 C 139.66 121.92 140.45 123.06 141.63 123.28 Z M 142.84 123.48 L 143.80 123.58 C 145.00 123.70 146.06 122.83 146.19 121.64 C 146.31 120.45 145.44 119.38 144.24 119.26 L 143.28 119.16 C 142.09 119.04 141.02 119.91 140.90 121.10 C 140.78 122.29 141.64 123.36 142.84 123.48 Z M 143.92 123.58 L 144.93 123.63 C 146.13 123.69 147.15 122.77 147.20 121.57 C 147.26 120.38 146.34 119.36 145.14 119.30 L 144.13 119.25 C 142.93 119.20 141.92 120.12 141.86 121.32 C 141.80 122.51 142.72 123.53 143.92 123.58 Z M 145.02 123.63 L 146.05 123.64 C 147.24 123.65 148.22 122.69 148.23 121.50 C 148.24 120.31 147.29 119.33 146.09 119.32 L 145.06 119.31 C 143.87 119.30 142.89 120.25 142.88 121.45 C 142.87 122.64 143.82 123.62 145.02 123.63 Z M 146.11 123.63 L 147.12 123.61 C 148.31 123.59 149.26 122.61 149.24 121.42 C 149.22 120.23 148.24 119.29 147.05 119.31 L 146.03 119.32 C 144.84 119.35 143.90 120.33 143.92 121.52 C 143.94 122.71 144.92 123.65 146.11 123.63 Z M 147.17 123.61 L 148.23 123.56 C 149.42 123.52 150.34 122.52 150.30 121.34 C 150.25 120.15 149.25 119.23 148.07 119.27 L 147.00 119.31 C 145.82 119.36 144.89 120.36 144.94 121.54 C 144.98 122.73 145.98 123.65 147.17 123.61 Z M 148.28 123.56 L 149.32 123.50 C 150.50 123.43 151.40 122.41 151.33 121.23 C 151.26 120.05 150.24 119.15 149.06 119.22 L 148.03 119.28 C 146.85 119.35 145.94 120.37 146.01 121.55 C 146.08 122.73 147.10 123.63 148.28 123.56 Z M 149.37 123.49 L 150.34 123.41 C 151.52 123.31 152.39 122.28 152.29 121.10 C 152.20 119.93 151.17 119.05 149.99 119.15 L 149.02 119.23 C 147.84 119.33 146.97 120.36 147.06 121.53 C 147.16 122.71 148.19 123.58 149.37 123.49 Z M 150.39 123.39 L 151.32 123.29 C 152.49 123.17 153.34 122.12 153.21 120.95 C 153.09 119.78 152.04 118.94 150.87 119.06 L 149.94 119.16 C 148.77 119.29 147.93 120.34 148.05 121.50 C 148.18 122.67 149.22 123.52 150.39 123.39 Z M 151.37 123.28 L 152.28 123.16 C 153.45 123.01 154.26 121.94 154.11 120.78 C 153.96 119.62 152.89 118.80 151.73 118.95 L 150.82 119.07 C 149.66 119.23 148.84 120.29 148.99 121.46 C 149.14 122.62 150.21 123.44 151.37 123.28 Z M 152.33 123.16 L 153.24 123.02 C 154.40 122.84 155.20 121.76 155.02 120.60 C 154.84 119.44 153.76 118.64 152.60 118.82 L 151.68 118.96 C 150.53 119.14 149.73 120.22 149.91 121.38 C 150.08 122.54 151.17 123.33 152.33 123.16 Z M 153.27 123.01 L 154.24 122.85 C 155.40 122.66 156.18 121.57 155.99 120.41 C 155.80 119.26 154.71 118.48 153.55 118.67 L 152.58 118.83 C 151.42 119.02 150.64 120.11 150.83 121.26 C 151.02 122.42 152.11 123.20 153.27 123.01 Z M 154.25 122.85 L 155.32 122.67 C 156.48 122.48 157.26 121.38 157.06 120.23 C 156.87 119.07 155.78 118.30 154.63 118.49 L 153.55 118.67 C 152.39 118.86 151.61 119.95 151.81 121.11 C 152.00 122.26 153.09 123.04 154.25 122.85 Z M 155.32 122.67 L 156.30 122.51 C 157.46 122.32 158.24 121.23 158.06 120.08 C 157.87 118.92 156.78 118.13 155.62 118.32 L 154.63 118.48 C 153.48 118.67 152.69 119.76 152.88 120.92 C 153.07 122.08 154.16 122.86 155.32 122.67 Z M 156.29 122.52 L 157.27 122.37 C 158.44 122.19 159.23 121.10 159.05 119.94 C 158.87 118.77 157.78 117.98 156.62 118.16 L 155.63 118.31 C 154.47 118.49 153.68 119.58 153.86 120.75 C 154.04 121.91 155.13 122.70 156.29 122.52 Z M 157.26 122.38 L 158.28 122.23 C 159.45 122.06 160.26 120.97 160.08 119.80 C 159.91 118.63 158.83 117.83 157.66 118.00 L 156.64 118.15 C 155.47 118.32 154.66 119.40 154.83 120.57 C 155.00 121.74 156.09 122.55 157.26 122.38 Z M 158.25 122.25 L 159.28 122.11 C 160.46 121.95 161.28 120.87 161.12 119.69 C 160.97 118.51 159.88 117.69 158.71 117.85 L 157.68 117.98 C 156.50 118.14 155.68 119.22 155.84 120.40 C 155.99 121.58 157.08 122.40 158.25 122.25 Z M 159.24 122.12 L 160.24 122.00 C 161.43 121.87 162.27 120.79 162.14 119.61 C 162.00 118.42 160.92 117.58 159.74 117.71 L 158.74 117.83 C 157.56 117.97 156.71 119.04 156.85 120.23 C 156.99 121.41 158.06 122.26 159.24 122.12 Z M 160.19 122.03 L 161.34 121.92 C 162.54 121.82 163.42 120.76 163.31 119.56 C 163.21 118.37 162.15 117.48 160.95 117.59 L 159.80 117.69 C 158.60 117.80 157.72 118.86 157.82 120.05 C 157.93 121.25 158.99 122.13 160.19 122.03 Z M 161.19 121.96 L 162.38 121.94 C 163.60 121.91 164.57 120.91 164.55 119.70 C 164.52 118.48 163.52 117.51 162.31 117.53 L 161.11 117.55 C 159.89 117.58 158.92 118.58 158.94 119.80 C 158.97 121.01 159.97 121.98 161.19 121.96 Z M 161.96 121.94 L 162.85 122.09 C 164.07 122.31 165.23 121.50 165.44 120.28 C 165.66 119.07 164.84 117.91 163.63 117.69 L 162.73 117.53 C 161.52 117.32 160.36 118.13 160.14 119.35 C 159.93 120.56 160.74 121.72 161.96 121.94 Z M 161.82 121.66 L 162.33 122.07 C 163.30 122.85 164.73 122.70 165.51 121.72 C 166.30 120.74 166.14 119.32 165.17 118.53 L 164.66 118.12 C 163.68 117.34 162.26 117.50 161.47 118.47 C 160.69 119.45 160.84 120.88 161.82 121.66 Z M 161.48 120.54 L 161.55 121.21 C 161.68 122.46 162.80 123.37 164.06 123.24 C 165.31 123.11 166.22 121.98 166.09 120.73 L 166.02 120.06 C 165.89 118.81 164.76 117.90 163.51 118.03 C 162.25 118.16 161.34 119.28 161.48 120.54 Z M 161.64 120.27 L 161.36 121.16 C 160.98 122.36 161.64 123.64 162.84 124.03 C 164.04 124.41 165.33 123.75 165.71 122.55 L 165.99 121.66 C 166.38 120.46 165.71 119.18 164.51 118.79 C 163.31 118.41 162.03 119.07 161.64 120.27 Z M 161.52 120.77 L 160.97 121.80 C 160.37 122.91 160.79 124.29 161.90 124.89 C 163.01 125.49 164.39 125.08 164.99 123.97 L 165.54 122.94 C 166.14 121.83 165.73 120.44 164.62 119.84 C 163.51 119.24 162.12 119.66 161.52 120.77 Z M 161.09 121.61 L 160.46 122.55 C 159.76 123.59 160.04 125.01 161.09 125.71 C 162.13 126.41 163.55 126.13 164.25 125.09 L 164.87 124.15 C 165.57 123.11 165.29 121.69 164.25 120.99 C 163.20 120.29 161.79 120.57 161.09 121.61 Z M 160.54 122.45 L 160.02 123.14 C 159.27 124.15 159.47 125.57 160.48 126.32 C 161.48 127.07 162.90 126.87 163.65 125.87 L 164.17 125.18 C 164.92 124.18 164.72 122.75 163.72 122.00 C 162.71 121.25 161.29 121.45 160.54 122.45 Z M 160.08 123.09 L 159.51 123.81 C 158.73 124.77 158.88 126.19 159.85 126.97 C 160.82 127.75 162.24 127.60 163.02 126.63 L 163.59 125.92 C 164.37 124.95 164.22 123.53 163.25 122.75 C 162.28 121.97 160.86 122.12 160.08 123.09 Z M 159.56 123.77 L 158.92 124.52 C 158.12 125.46 158.24 126.87 159.18 127.67 C 160.12 128.47 161.53 128.36 162.33 127.42 L 162.97 126.67 C 163.77 125.73 163.65 124.32 162.71 123.52 C 161.77 122.72 160.36 122.83 159.56 123.77 Z M 158.96 124.50 L 158.26 125.29 C 157.45 126.21 157.54 127.61 158.46 128.42 C 159.38 129.23 160.78 129.15 161.59 128.23 L 162.29 127.44 C 163.10 126.52 163.02 125.11 162.10 124.30 C 161.18 123.49 159.77 123.58 158.96 124.50 Z M 158.29 125.28 L 157.53 126.13 C 156.71 127.03 156.78 128.42 157.69 129.24 C 158.59 130.06 159.98 129.99 160.80 129.08 L 161.56 128.24 C 162.38 127.33 162.31 125.94 161.41 125.12 C 160.50 124.31 159.11 124.38 158.29 125.28 Z M 157.55 126.13 L 156.81 126.94 C 155.99 127.83 156.06 129.21 156.95 130.03 C 157.84 130.84 159.23 130.78 160.04 129.89 L 160.78 129.08 C 161.60 128.19 161.53 126.80 160.64 125.99 C 159.75 125.17 158.36 125.24 157.55 126.13 Z M 156.82 126.94 L 156.14 127.68 C 155.33 128.56 155.39 129.94 156.27 130.75 C 157.15 131.57 158.53 131.51 159.35 130.63 L 160.03 129.89 C 160.84 129.00 160.78 127.63 159.90 126.81 C 159.01 126.00 157.64 126.06 156.82 126.94 Z M 156.16 127.68 L 155.45 128.44 C 154.64 129.32 154.69 130.69 155.57 131.50 C 156.44 132.31 157.81 132.26 158.63 131.39 L 159.33 130.62 C 160.14 129.75 160.09 128.38 159.21 127.57 C 158.34 126.75 156.97 126.81 156.16 127.68 Z M 155.47 128.45 L 154.75 129.21 C 153.94 130.08 153.99 131.44 154.85 132.25 C 155.72 133.07 157.08 133.02 157.89 132.15 L 158.61 131.38 C 159.42 130.51 159.38 129.15 158.51 128.34 C 157.64 127.53 156.28 127.58 155.47 128.45 Z M 154.77 129.22 L 154.05 129.97 C 153.24 130.83 153.28 132.19 154.14 133.00 C 155.00 133.81 156.35 133.77 157.16 132.91 L 157.88 132.15 C 158.69 131.29 158.65 129.94 157.79 129.13 C 156.93 128.32 155.58 128.36 154.77 129.22 Z M 154.07 129.97 L 153.37 130.71 C 152.56 131.56 152.59 132.91 153.44 133.72 C 154.29 134.53 155.63 134.49 156.44 133.64 L 157.15 132.91 C 157.96 132.06 157.92 130.71 157.07 129.90 C 156.22 129.09 154.88 129.12 154.07 129.97 Z M 153.39 130.71 L 152.71 131.41 C 151.90 132.24 151.92 133.58 152.76 134.40 C 153.60 135.21 154.94 135.18 155.75 134.35 L 156.42 133.65 C 157.24 132.81 157.21 131.47 156.37 130.66 C 155.54 129.85 154.20 129.87 153.39 130.71 Z M 152.73 131.40 L 152.10 132.05 C 151.28 132.87 151.29 134.20 152.12 135.02 C 152.94 135.83 154.27 135.82 155.09 135.00 L 155.73 134.35 C 156.54 133.52 156.53 132.19 155.70 131.38 C 154.88 130.56 153.55 130.57 152.73 131.40 Z M 152.13 132.03 L 151.28 132.87 C 150.45 133.68 150.44 135.00 151.25 135.82 C 152.06 136.65 153.38 136.66 154.21 135.85 L 155.06 135.01 C 155.88 134.20 155.89 132.88 155.08 132.06 C 154.27 131.23 152.95 131.22 152.13 132.03 Z M 151.32 132.84 L 150.52 133.59 C 149.69 134.37 149.64 135.69 150.43 136.53 C 151.21 137.36 152.53 137.41 153.37 136.62 L 154.16 135.88 C 155.00 135.09 155.04 133.77 154.26 132.94 C 153.47 132.10 152.16 132.06 151.32 132.84 Z M 150.58 133.55 L 149.85 134.19 C 149.00 134.95 148.92 136.26 149.67 137.11 C 150.43 137.97 151.74 138.05 152.59 137.29 L 153.32 136.65 C 154.17 135.90 154.25 134.59 153.50 133.73 C 152.74 132.88 151.43 132.80 150.58 133.55 Z M 149.91 134.16 L 149.22 134.73 C 148.35 135.46 148.23 136.75 148.96 137.63 C 149.69 138.50 150.98 138.62 151.86 137.89 L 152.54 137.33 C 153.41 136.60 153.53 135.30 152.80 134.43 C 152.08 133.55 150.78 133.44 149.91 134.16 Z M 149.28 134.70 L 148.61 135.23 C 147.72 135.93 147.56 137.22 148.26 138.10 C 148.96 138.99 150.25 139.15 151.14 138.45 L 151.81 137.92 C 152.70 137.22 152.85 135.93 152.15 135.05 C 151.45 134.16 150.16 134.00 149.28 134.70 Z M 148.65 135.21 L 147.85 135.80 C 146.95 136.48 146.77 137.76 147.44 138.66 C 148.12 139.56 149.40 139.74 150.30 139.07 L 151.10 138.47 C 152.00 137.79 152.18 136.52 151.50 135.61 C 150.83 134.71 149.55 134.53 148.65 135.21 Z M 147.89 135.77 L 147.07 136.35 C 146.16 137.01 145.94 138.28 146.59 139.20 C 147.25 140.12 148.52 140.33 149.44 139.68 L 150.26 139.10 C 151.18 138.44 151.39 137.17 150.74 136.25 C 150.09 135.33 148.81 135.12 147.89 135.77 Z M 147.12 136.32 L 146.29 136.88 C 145.35 137.51 145.10 138.77 145.73 139.71 C 146.35 140.65 147.62 140.90 148.56 140.27 L 149.39 139.71 C 150.33 139.09 150.58 137.82 149.95 136.88 C 149.33 135.95 148.06 135.70 147.12 136.32 Z M 146.34 136.85 L 145.50 137.37 C 144.55 137.97 144.25 139.22 144.85 140.18 C 145.45 141.14 146.70 141.43 147.66 140.83 L 148.50 140.31 C 149.46 139.71 149.75 138.45 149.15 137.50 C 148.56 136.54 147.30 136.25 146.34 136.85 Z M 145.57 137.33 L 144.69 137.83 C 143.71 138.39 143.37 139.64 143.93 140.62 C 144.49 141.59 145.74 141.93 146.72 141.37 L 147.59 140.87 C 148.57 140.31 148.91 139.07 148.35 138.09 C 147.79 137.11 146.54 136.77 145.57 137.33 Z M 144.76 137.79 L 143.87 138.26 C 142.87 138.78 142.48 140.01 143.00 141.01 C 143.52 142.01 144.76 142.40 145.76 141.88 L 146.65 141.41 C 147.65 140.89 148.03 139.66 147.51 138.66 C 146.99 137.66 145.76 137.27 144.76 137.79 Z M 143.94 138.22 L 143.04 138.64 C 142.02 139.12 141.59 140.34 142.07 141.36 C 142.55 142.38 143.77 142.82 144.79 142.34 L 145.68 141.91 C 146.70 141.43 147.14 140.22 146.66 139.20 C 146.18 138.18 144.96 137.74 143.94 138.22 Z M 143.11 138.61 L 142.20 139.00 C 141.16 139.44 140.68 140.64 141.12 141.68 C 141.57 142.72 142.77 143.20 143.81 142.76 L 144.72 142.37 C 145.75 141.93 146.24 140.73 145.80 139.69 C 145.35 138.65 144.15 138.17 143.11 138.61 Z M 142.27 138.97 L 141.35 139.32 C 140.29 139.73 139.77 140.92 140.18 141.97 C 140.58 143.03 141.77 143.55 142.82 143.14 L 143.74 142.79 C 144.80 142.38 145.32 141.19 144.91 140.14 C 144.51 139.09 143.32 138.56 142.27 138.97 Z M 141.39 139.30 L 140.46 139.63 C 139.39 140.02 138.84 141.19 139.22 142.26 C 139.60 143.32 140.77 143.88 141.84 143.50 L 142.77 143.17 C 143.84 142.78 144.40 141.61 144.02 140.54 C 143.64 139.48 142.46 138.92 141.39 139.30 Z M 140.49 139.62 L 139.54 139.94 C 138.47 140.30 137.89 141.47 138.25 142.55 C 138.62 143.62 139.79 144.20 140.86 143.84 L 141.81 143.51 C 142.89 143.15 143.46 141.98 143.10 140.91 C 142.73 139.83 141.57 139.25 140.49 139.62 Z M 139.55 139.93 L 138.59 140.25 C 137.51 140.61 136.92 141.78 137.28 142.86 C 137.64 143.94 138.81 144.52 139.89 144.16 L 140.85 143.85 C 141.93 143.49 142.52 142.32 142.16 141.24 C 141.80 140.16 140.63 139.57 139.55 139.93 Z M 138.58 140.24 L 137.60 140.57 C 136.52 140.93 135.94 142.11 136.30 143.19 C 136.66 144.27 137.83 144.86 138.92 144.50 L 139.90 144.17 C 140.98 143.81 141.57 142.63 141.20 141.55 C 140.84 140.47 139.67 139.88 138.58 140.24 Z M 137.60 140.56 L 136.62 140.89 C 135.53 141.26 134.94 142.44 135.31 143.53 C 135.68 144.62 136.86 145.20 137.95 144.84 L 138.93 144.51 C 140.01 144.14 140.60 142.96 140.23 141.87 C 139.87 140.78 138.69 140.19 137.60 140.56 Z M 136.62 140.88 L 135.67 141.20 C 134.57 141.56 133.98 142.75 134.34 143.84 C 134.71 144.94 135.89 145.53 136.99 145.17 L 137.95 144.85 C 139.04 144.48 139.64 143.30 139.27 142.20 C 138.90 141.10 137.72 140.51 136.62 140.88 Z M 135.68 141.18 L 134.77 141.47 C 133.66 141.83 133.05 143.02 133.41 144.13 C 133.77 145.23 134.96 145.84 136.06 145.48 L 136.98 145.19 C 138.08 144.83 138.69 143.64 138.33 142.53 C 137.97 141.43 136.79 140.82 135.68 141.18 Z M 134.80 141.45 L 133.85 141.74 C 132.74 142.08 132.11 143.27 132.45 144.39 C 132.79 145.50 133.98 146.13 135.10 145.79 L 136.04 145.50 C 137.15 145.16 137.78 143.97 137.44 142.86 C 137.10 141.74 135.91 141.11 134.80 141.45 Z M 133.88 141.72 L 132.94 142.00 C 131.82 142.33 131.17 143.51 131.50 144.64 C 131.83 145.76 133.01 146.41 134.14 146.08 L 135.07 145.81 C 136.20 145.48 136.85 144.29 136.52 143.17 C 136.19 142.04 135.00 141.39 133.88 141.72 Z M 132.94 141.99 L 131.99 142.27 C 130.86 142.60 130.22 143.79 130.55 144.92 C 130.88 146.05 132.07 146.70 133.20 146.37 L 134.15 146.09 C 135.28 145.75 135.93 144.57 135.59 143.43 C 135.26 142.30 134.07 141.65 132.94 141.99 Z M 131.96 142.27 L 130.90 142.60 C 129.77 142.96 129.14 144.16 129.49 145.29 C 129.85 146.42 131.05 147.05 132.18 146.70 L 133.24 146.37 C 134.37 146.01 135.00 144.81 134.65 143.68 C 134.29 142.54 133.09 141.91 131.96 142.27 Z M 130.81 142.62 L 129.59 143.06 C 128.47 143.46 127.89 144.69 128.29 145.81 C 128.69 146.93 129.93 147.52 131.05 147.11 L 132.27 146.68 C 133.39 146.28 133.97 145.04 133.57 143.92 C 133.17 142.80 131.93 142.22 130.81 142.62 Z M 129.31 143.17 L 128.53 143.59 C 127.48 144.15 127.08 145.45 127.64 146.51 C 128.19 147.57 129.50 147.97 130.56 147.41 L 131.33 147.00 C 132.39 146.44 132.79 145.13 132.23 144.07 C 131.67 143.02 130.36 142.62 129.31 143.17 Z M 127.47 146.13 L 127.55 146.40 C 127.90 147.55 129.12 148.19 130.26 147.84 C 131.41 147.49 132.05 146.28 131.70 145.13 L 131.62 144.86 C 131.27 143.72 130.06 143.07 128.91 143.42 C 127.77 143.77 127.12 144.98 127.47 146.13 Z M 129.25 147.90 L 129.90 148.02 C 131.08 148.23 132.21 147.44 132.42 146.26 C 132.63 145.08 131.85 143.95 130.66 143.74 L 130.01 143.63 C 128.83 143.42 127.70 144.20 127.49 145.38 C 127.28 146.57 128.07 147.69 129.25 147.90 Z M 130.16 148.05 L 131.19 148.11 C 132.38 148.17 133.41 147.26 133.48 146.06 C 133.54 144.86 132.62 143.83 131.43 143.77 L 130.40 143.71 C 129.20 143.65 128.18 144.56 128.11 145.76 C 128.05 146.96 128.97 147.99 130.16 148.05 Z M 131.28 148.11 L 132.51 148.13 C 133.71 148.14 134.70 147.18 134.71 145.98 C 134.72 144.78 133.76 143.79 132.56 143.78 L 131.33 143.76 C 130.13 143.75 129.15 144.71 129.13 145.91 C 129.12 147.12 130.08 148.10 131.28 148.11 Z M 132.56 148.13 L 133.83 148.11 C 135.04 148.10 136.00 147.12 135.99 145.92 C 135.98 144.72 135.00 143.76 133.79 143.77 L 132.52 143.78 C 131.32 143.79 130.35 144.77 130.36 145.97 C 130.37 147.17 131.36 148.14 132.56 148.13 Z M 133.85 148.11 L 134.99 148.09 C 136.19 148.07 137.14 147.08 137.12 145.88 C 137.10 144.68 136.11 143.72 134.91 143.75 L 133.77 143.77 C 132.57 143.79 131.62 144.78 131.64 145.98 C 131.66 147.18 132.65 148.14 133.85 148.11 Z M 135.00 148.09 L 136.05 148.06 C 137.25 148.03 138.20 147.03 138.17 145.83 C 138.14 144.63 137.14 143.69 135.94 143.72 L 134.89 143.75 C 133.69 143.78 132.74 144.78 132.77 145.98 C 132.80 147.18 133.80 148.13 135.00 148.09 Z M 136.08 148.06 L 137.05 148.03 C 138.25 147.98 139.19 146.98 139.14 145.78 C 139.10 144.58 138.09 143.64 136.89 143.68 L 135.92 143.72 C 134.72 143.76 133.78 144.77 133.82 145.97 C 133.87 147.17 134.88 148.11 136.08 148.06 Z M 137.07 148.03 L 137.98 147.98 C 139.18 147.93 140.10 146.91 140.05 145.71 C 139.99 144.51 138.97 143.58 137.77 143.64 L 136.87 143.68 C 135.67 143.74 134.74 144.76 134.80 145.96 C 134.86 147.16 135.87 148.08 137.07 148.03 Z M 138.01 147.98 L 138.90 147.93 C 140.10 147.86 141.02 146.83 140.94 145.63 C 140.87 144.43 139.84 143.52 138.64 143.59 L 137.75 143.64 C 136.55 143.71 135.63 144.74 135.71 145.94 C 135.78 147.14 136.81 148.05 138.01 147.98 Z M 138.93 147.92 L 139.86 147.86 C 141.05 147.77 141.95 146.73 141.86 145.53 C 141.77 144.33 140.73 143.44 139.53 143.53 L 138.61 143.59 C 137.42 143.68 136.52 144.72 136.61 145.92 C 136.70 147.11 137.74 148.01 138.93 147.92 Z M 139.88 147.85 L 140.83 147.77 C 142.02 147.67 142.91 146.62 142.80 145.42 C 142.70 144.23 141.65 143.35 140.46 143.45 L 139.51 143.53 C 138.32 143.63 137.43 144.68 137.54 145.87 C 137.64 147.07 138.69 147.95 139.88 147.85 Z M 140.84 147.76 L 141.89 147.67 C 143.08 147.56 143.96 146.50 143.85 145.31 C 143.74 144.12 142.69 143.25 141.50 143.36 L 140.45 143.45 C 139.26 143.56 138.38 144.62 138.49 145.81 C 138.60 147.00 139.65 147.87 140.84 147.76 Z M 141.90 147.66 L 142.93 147.57 C 144.12 147.46 144.99 146.40 144.88 145.21 C 144.77 144.03 143.72 143.15 142.53 143.26 L 141.49 143.36 C 140.31 143.47 139.43 144.53 139.54 145.71 C 139.66 146.90 140.71 147.78 141.90 147.66 Z M 142.93 147.56 L 143.87 147.48 C 145.05 147.37 145.93 146.32 145.82 145.13 C 145.71 143.95 144.66 143.07 143.47 143.18 L 142.53 143.27 C 141.35 143.38 140.47 144.43 140.58 145.61 C 140.69 146.80 141.74 147.67 142.93 147.56 Z M 143.86 147.47 L 144.86 147.39 C 146.04 147.28 146.92 146.24 146.82 145.06 C 146.71 143.87 145.67 143.00 144.48 143.10 L 143.48 143.19 C 142.30 143.29 141.42 144.33 141.53 145.52 C 141.63 146.70 142.67 147.58 143.86 147.47 Z M 144.84 147.38 L 145.88 147.30 C 147.06 147.21 147.94 146.17 147.85 144.99 C 147.75 143.81 146.72 142.92 145.54 143.02 L 144.50 143.10 C 143.32 143.20 142.44 144.23 142.53 145.41 C 142.62 146.60 143.66 147.48 144.84 147.38 Z M 145.85 147.30 L 146.90 147.23 C 148.08 147.14 148.97 146.12 148.89 144.94 C 148.81 143.76 147.78 142.87 146.60 142.95 L 145.56 143.02 C 144.38 143.10 143.49 144.13 143.57 145.31 C 143.65 146.49 144.67 147.38 145.85 147.30 Z M 146.87 147.22 L 147.89 147.17 C 149.07 147.10 149.97 146.09 149.91 144.91 C 149.84 143.73 148.83 142.83 147.65 142.90 L 146.63 142.95 C 145.45 143.02 144.55 144.03 144.61 145.21 C 144.68 146.38 145.69 147.29 146.87 147.22 Z M 147.84 147.17 L 149.10 147.13 C 150.28 147.10 151.21 146.11 151.18 144.92 C 151.14 143.74 150.15 142.81 148.96 142.85 L 147.70 142.89 C 146.52 142.92 145.59 143.91 145.63 145.10 C 145.67 146.28 146.66 147.21 147.84 147.17 Z M 148.99 147.16 L 150.20 147.18 C 151.40 147.21 152.39 146.26 152.41 145.06 C 152.44 143.87 151.49 142.88 150.29 142.85 L 149.08 142.83 C 147.88 142.80 146.89 143.75 146.87 144.95 C 146.84 146.14 147.79 147.13 148.99 147.16 Z M 149.95 147.19 L 150.91 147.32 C 152.11 147.48 153.21 146.64 153.37 145.44 C 153.54 144.24 152.70 143.14 151.50 142.98 L 150.54 142.85 C 149.35 142.68 148.24 143.52 148.08 144.72 C 147.92 145.92 148.76 147.02 149.95 147.19 Z M 150.31 147.17 L 150.92 147.44 C 152.04 147.94 153.35 147.43 153.84 146.31 C 154.33 145.19 153.83 143.88 152.71 143.39 L 152.10 143.12 C 150.98 142.63 149.67 143.13 149.18 144.25 C 148.68 145.37 149.19 146.68 150.31 147.17 Z M 149.69 146.11 L 149.87 146.64 C 150.25 147.81 151.52 148.45 152.69 148.07 C 153.86 147.68 154.49 146.42 154.11 145.25 L 153.93 144.72 C 153.55 143.55 152.29 142.91 151.12 143.30 C 149.94 143.68 149.31 144.94 149.69 146.11 Z M 149.98 144.96 L 149.60 145.73 C 149.05 146.84 149.51 148.18 150.61 148.73 C 151.72 149.27 153.06 148.82 153.61 147.71 L 153.99 146.94 C 154.54 145.83 154.08 144.49 152.98 143.94 C 151.87 143.40 150.53 143.85 149.98 144.96 Z M 149.92 145.25 L 149.15 146.14 C 148.33 147.07 148.43 148.48 149.36 149.29 C 150.29 150.10 151.70 150.01 152.51 149.08 L 153.29 148.19 C 154.10 147.26 154.00 145.85 153.07 145.04 C 152.15 144.23 150.73 144.32 149.92 145.25 Z M 149.31 145.98 L 148.49 146.75 C 147.59 147.59 147.54 149.00 148.38 149.90 C 149.22 150.80 150.63 150.84 151.53 150.00 L 152.35 149.24 C 153.25 148.40 153.30 146.99 152.46 146.09 C 151.62 145.19 150.21 145.14 149.31 145.98 Z M 148.59 146.68 L 147.85 147.30 C 146.91 148.08 146.79 149.48 147.57 150.42 C 148.36 151.36 149.76 151.48 150.70 150.69 L 151.43 150.07 C 152.37 149.29 152.49 147.89 151.71 146.95 C 150.92 146.01 149.52 145.89 148.59 146.68 Z M 147.92 147.26 L 147.14 147.87 C 146.18 148.61 146.01 149.99 146.75 150.95 C 147.50 151.91 148.88 152.08 149.84 151.34 L 150.62 150.73 C 151.58 149.99 151.75 148.61 151.01 147.65 C 150.26 146.69 148.88 146.51 147.92 147.26 Z M 147.20 147.84 L 146.38 148.44 C 145.41 149.15 145.19 150.52 145.90 151.49 C 146.61 152.46 147.98 152.68 148.95 151.97 L 149.77 151.36 C 150.75 150.65 150.96 149.29 150.25 148.32 C 149.54 147.34 148.18 147.13 147.20 147.84 Z M 146.43 148.43 L 145.56 149.03 C 144.58 149.71 144.34 151.06 145.03 152.04 C 145.71 153.02 147.06 153.26 148.04 152.58 L 148.90 151.98 C 149.88 151.30 150.12 149.95 149.44 148.97 C 148.76 147.99 147.41 147.75 146.43 148.43 Z M 145.60 149.02 L 144.75 149.59 C 143.77 150.26 143.51 151.59 144.17 152.58 C 144.84 153.56 146.17 153.82 147.16 153.16 L 148.00 152.59 C 148.99 151.92 149.25 150.59 148.58 149.60 C 147.92 148.62 146.58 148.36 145.60 149.02 Z M 144.78 149.59 L 143.92 150.15 C 142.93 150.80 142.65 152.12 143.30 153.11 C 143.95 154.10 145.28 154.38 146.26 153.73 L 147.13 153.17 C 148.12 152.52 148.39 151.19 147.74 150.20 C 147.10 149.21 145.77 148.94 144.78 149.59 Z M 143.95 150.14 L 143.09 150.69 C 142.10 151.32 141.81 152.63 142.44 153.63 C 143.07 154.62 144.38 154.91 145.38 154.28 L 146.23 153.74 C 147.23 153.11 147.52 151.79 146.89 150.80 C 146.26 149.81 144.94 149.51 143.95 150.14 Z M 143.13 150.68 L 142.29 151.19 C 141.30 151.80 140.98 153.11 141.59 154.10 C 142.21 155.10 143.51 155.42 144.51 154.80 L 145.34 154.29 C 146.34 153.68 146.65 152.38 146.04 151.38 C 145.43 150.38 144.13 150.07 143.13 150.68 Z M 142.33 151.17 L 141.48 151.67 C 140.47 152.26 140.13 153.56 140.72 154.56 C 141.31 155.57 142.61 155.91 143.61 155.32 L 144.47 154.82 C 145.48 154.23 145.81 152.93 145.22 151.93 C 144.63 150.92 143.34 150.58 142.33 151.17 Z M 141.53 151.65 L 140.61 152.16 C 139.60 152.72 139.23 154.00 139.79 155.02 C 140.35 156.04 141.64 156.41 142.65 155.85 L 143.57 155.34 C 144.59 154.78 144.95 153.50 144.39 152.48 C 143.83 151.46 142.55 151.09 141.53 151.65 Z M 140.66 152.13 L 139.79 152.59 C 138.76 153.13 138.36 154.40 138.90 155.43 C 139.44 156.46 140.71 156.86 141.74 156.32 L 142.61 155.87 C 143.64 155.33 144.04 154.06 143.50 153.03 C 142.96 152.00 141.69 151.60 140.66 152.13 Z M 139.83 152.57 L 138.97 153.00 C 137.93 153.52 137.51 154.78 138.03 155.82 C 138.55 156.86 139.81 157.29 140.85 156.77 L 141.71 156.34 C 142.75 155.82 143.17 154.55 142.65 153.51 C 142.13 152.47 140.87 152.05 139.83 152.57 Z M 138.99 152.99 L 138.12 153.41 C 137.07 153.92 136.64 155.18 137.15 156.23 C 137.66 157.28 138.92 157.71 139.96 157.20 L 140.83 156.78 C 141.88 156.27 142.31 155.00 141.80 153.96 C 141.29 152.91 140.03 152.48 138.99 152.99 Z M 138.13 153.40 L 137.23 153.83 C 136.18 154.33 135.74 155.60 136.24 156.65 C 136.74 157.70 138.01 158.15 139.06 157.64 L 139.95 157.21 C 141.01 156.71 141.45 155.45 140.94 154.39 C 140.44 153.34 139.18 152.90 138.13 153.40 Z M 137.25 153.81 L 136.33 154.24 C 135.27 154.74 134.82 156.00 135.31 157.06 C 135.81 158.12 137.07 158.58 138.13 158.08 L 139.04 157.66 C 140.10 157.16 140.56 155.90 140.07 154.84 C 139.57 153.78 138.31 153.32 137.25 153.81 Z M 136.36 154.22 L 135.43 154.64 C 134.36 155.12 133.89 156.38 134.37 157.45 C 134.85 158.52 136.11 159.00 137.18 158.52 L 138.11 158.10 C 139.18 157.62 139.66 156.36 139.17 155.29 C 138.69 154.22 137.43 153.74 136.36 154.22 Z M 135.47 154.61 L 134.56 155.01 C 133.47 155.47 132.97 156.73 133.44 157.81 C 133.90 158.90 135.16 159.40 136.24 158.93 L 137.15 158.54 C 138.24 158.08 138.74 156.82 138.27 155.73 C 137.81 154.65 136.55 154.15 135.47 154.61 Z M 134.59 154.98 L 133.68 155.36 C 132.58 155.80 132.05 157.05 132.50 158.15 C 132.95 159.25 134.20 159.77 135.30 159.33 L 136.21 158.95 C 137.31 158.51 137.83 157.26 137.38 156.16 C 136.94 155.06 135.68 154.54 134.59 154.98 Z M 133.71 155.33 L 132.78 155.69 C 131.67 156.13 131.12 157.37 131.55 158.48 C 131.98 159.59 133.23 160.14 134.34 159.71 L 135.27 159.35 C 136.37 158.92 136.92 157.67 136.49 156.56 C 136.06 155.45 134.82 154.90 133.71 155.33 Z M 132.81 155.68 L 131.85 156.03 C 130.73 156.45 130.16 157.69 130.57 158.81 C 130.99 159.93 132.23 160.50 133.35 160.08 L 134.31 159.73 C 135.43 159.31 136.00 158.07 135.58 156.95 C 135.17 155.83 133.92 155.26 132.81 155.68 Z M 131.87 156.01 L 130.95 156.34 C 129.82 156.74 129.23 157.98 129.64 159.11 C 130.04 160.24 131.28 160.83 132.41 160.43 L 133.33 160.10 C 134.46 159.70 135.05 158.46 134.64 157.33 C 134.24 156.20 133.00 155.61 131.87 156.01 Z M 130.96 156.32 L 130.03 156.64 C 128.90 157.04 128.29 158.29 128.69 159.43 C 129.09 160.57 130.33 161.17 131.47 160.77 L 132.40 160.45 C 133.54 160.05 134.14 158.80 133.74 157.66 C 133.35 156.53 132.10 155.92 130.96 156.32 Z M 130.03 156.63 L 129.08 156.96 C 127.93 157.36 127.33 158.61 127.73 159.76 C 128.13 160.91 129.38 161.51 130.52 161.11 L 131.48 160.78 C 132.62 160.38 133.23 159.13 132.83 157.99 C 132.43 156.84 131.18 156.23 130.03 156.63 Z M 129.07 156.95 L 128.10 157.29 C 126.95 157.70 126.34 158.96 126.75 160.11 C 127.16 161.27 128.42 161.87 129.57 161.46 L 130.54 161.12 C 131.69 160.72 132.29 159.45 131.89 158.30 C 131.48 157.15 130.22 156.55 129.07 156.95 Z M 128.08 157.29 L 127.11 157.64 C 125.96 158.06 125.36 159.33 125.78 160.49 C 126.20 161.64 127.48 162.24 128.63 161.82 L 129.59 161.47 C 130.75 161.05 131.34 159.77 130.92 158.62 C 130.51 157.47 129.23 156.87 128.08 157.29 Z M 127.09 157.64 L 126.13 158.00 C 124.98 158.43 124.39 159.72 124.83 160.87 C 125.26 162.03 126.55 162.61 127.70 162.18 L 128.65 161.82 C 129.81 161.39 130.40 160.10 129.96 158.95 C 129.53 157.79 128.24 157.21 127.09 157.64 Z M 126.11 157.99 L 125.17 158.35 C 124.01 158.80 123.43 160.10 123.88 161.25 C 124.32 162.41 125.62 162.99 126.78 162.54 L 127.72 162.18 C 128.88 161.74 129.46 160.44 129.01 159.28 C 128.57 158.13 127.27 157.55 126.11 157.99 Z M 125.15 158.35 L 124.23 158.71 C 123.07 159.16 122.49 160.47 122.94 161.63 C 123.40 162.79 124.70 163.36 125.86 162.91 L 126.79 162.55 C 127.95 162.10 128.52 160.79 128.07 159.63 C 127.62 158.47 126.31 157.90 125.15 158.35 Z M 124.22 158.70 L 123.32 159.06 C 122.15 159.51 121.58 160.82 122.04 161.99 C 122.49 163.15 123.81 163.73 124.97 163.27 L 125.87 162.92 C 127.03 162.46 127.61 161.15 127.15 159.99 C 126.70 158.82 125.38 158.25 124.22 158.70 Z M 123.31 159.05 L 122.40 159.41 C 121.23 159.87 120.66 161.19 121.12 162.35 C 121.57 163.52 122.89 164.10 124.06 163.64 L 124.98 163.28 C 126.14 162.82 126.72 161.50 126.26 160.33 C 125.80 159.17 124.48 158.59 123.31 159.05 Z M 122.38 159.41 L 121.48 159.78 C 120.31 160.25 119.75 161.57 120.22 162.74 C 120.69 163.90 122.01 164.47 123.18 164.00 L 124.08 163.63 C 125.24 163.17 125.81 161.84 125.34 160.67 C 124.87 159.51 123.54 158.94 122.38 159.41 Z M 121.44 159.78 L 120.53 160.17 C 119.37 160.66 118.83 161.99 119.31 163.15 C 119.80 164.31 121.14 164.86 122.30 164.37 L 123.21 163.99 C 124.37 163.50 124.92 162.16 124.43 161.00 C 123.94 159.84 122.60 159.30 121.44 159.78 Z M 120.49 160.18 L 119.54 160.61 C 118.38 161.12 117.86 162.47 118.38 163.62 C 118.89 164.77 120.24 165.29 121.39 164.78 L 122.34 164.36 C 123.49 163.84 124.01 162.49 123.50 161.34 C 122.99 160.19 121.64 159.67 120.49 160.18 Z M 119.47 160.63 L 118.33 161.17 C 117.19 161.72 116.70 163.09 117.25 164.23 C 117.80 165.37 119.17 165.85 120.31 165.31 L 121.45 164.76 C 122.59 164.21 123.08 162.84 122.53 161.70 C 121.98 160.56 120.62 160.08 119.47 160.63 Z M 118.20 161.23 L 117.16 161.81 C 116.04 162.42 115.64 163.82 116.25 164.93 C 116.87 166.05 118.27 166.45 119.38 165.83 L 120.43 165.26 C 121.54 164.64 121.95 163.24 121.33 162.13 C 120.72 161.02 119.32 160.61 118.20 161.23 Z M 116.84 162.00 L 116.18 162.52 C 115.17 163.31 115.00 164.76 115.78 165.77 C 116.57 166.77 118.03 166.95 119.03 166.16 L 119.69 165.64 C 120.70 164.85 120.88 163.40 120.09 162.39 C 119.30 161.39 117.85 161.21 116.84 162.00 Z M 115.29 164.17 L 115.26 164.54 C 115.16 165.82 116.12 166.94 117.40 167.03 C 118.68 167.13 119.79 166.17 119.89 164.89 L 119.92 164.52 C 120.02 163.24 119.06 162.12 117.78 162.03 C 116.50 161.93 115.39 162.89 115.29 164.17 Z M 116.84 166.93 L 117.44 167.13 C 118.66 167.53 119.98 166.87 120.39 165.65 C 120.79 164.43 120.13 163.11 118.91 162.71 L 118.31 162.51 C 117.09 162.10 115.77 162.76 115.37 163.98 C 114.96 165.20 115.62 166.52 116.84 166.93 Z M 117.99 167.24 L 119.01 167.33 C 120.30 167.43 121.42 166.47 121.53 165.19 C 121.63 163.90 120.68 162.78 119.39 162.67 L 118.36 162.59 C 117.08 162.49 115.95 163.44 115.85 164.73 C 115.75 166.01 116.70 167.14 117.99 167.24 Z M 119.20 167.34 L 120.46 167.34 C 121.75 167.34 122.79 166.29 122.79 165.00 C 122.79 163.71 121.75 162.66 120.45 162.66 L 119.20 162.66 C 117.91 162.66 116.86 163.71 116.86 165.00 C 116.86 166.29 117.91 167.34 119.20 167.34 Z M 120.55 167.34 L 121.77 167.29 C 123.07 167.24 124.07 166.15 124.02 164.86 C 123.97 163.56 122.88 162.56 121.59 162.61 L 120.36 162.66 C 119.07 162.71 118.06 163.80 118.11 165.09 C 118.17 166.39 119.26 167.39 120.55 167.34 Z M 121.84 167.29 L 122.88 167.22 C 124.18 167.14 125.15 166.02 125.07 164.73 C 124.98 163.43 123.86 162.45 122.57 162.54 L 121.52 162.61 C 120.23 162.70 119.25 163.81 119.34 165.11 C 119.43 166.40 120.54 167.38 121.84 167.29 Z M 122.94 167.22 L 123.93 167.13 C 125.22 167.01 126.18 165.87 126.06 164.58 C 125.94 163.29 124.80 162.34 123.51 162.45 L 122.52 162.54 C 121.22 162.66 120.27 163.80 120.39 165.09 C 120.51 166.38 121.65 167.34 122.94 167.22 Z M 123.98 167.13 L 124.95 167.02 C 126.24 166.87 127.16 165.71 127.02 164.42 C 126.87 163.13 125.71 162.20 124.42 162.35 L 123.46 162.46 C 122.17 162.60 121.24 163.77 121.39 165.05 C 121.53 166.34 122.70 167.27 123.98 167.13 Z M 124.99 167.01 L 125.94 166.89 C 127.23 166.72 128.13 165.54 127.96 164.25 C 127.79 162.96 126.61 162.06 125.32 162.23 L 124.37 162.35 C 123.09 162.52 122.18 163.70 122.35 164.99 C 122.52 166.28 123.70 167.18 124.99 167.01 Z M 125.97 166.88 L 126.92 166.75 C 128.21 166.56 129.10 165.36 128.91 164.08 C 128.72 162.79 127.53 161.90 126.24 162.09 L 125.29 162.23 C 124.01 162.42 123.12 163.61 123.30 164.90 C 123.49 166.18 124.69 167.07 125.97 166.88 Z M 126.95 166.74 L 127.91 166.59 C 129.20 166.39 130.08 165.19 129.87 163.90 C 129.67 162.62 128.47 161.74 127.18 161.94 L 126.22 162.09 C 124.93 162.29 124.06 163.50 124.26 164.78 C 124.46 166.07 125.66 166.95 126.95 166.74 Z M 127.93 166.59 L 128.91 166.43 C 130.20 166.22 131.07 165.01 130.86 163.73 C 130.65 162.44 129.44 161.57 128.16 161.78 L 127.17 161.94 C 125.89 162.15 125.01 163.36 125.22 164.64 C 125.43 165.93 126.64 166.80 127.93 166.59 Z M 128.92 166.43 L 129.93 166.27 C 131.21 166.06 132.08 164.84 131.87 163.56 C 131.66 162.27 130.45 161.40 129.16 161.61 L 128.15 161.78 C 126.87 161.99 126.00 163.20 126.21 164.49 C 126.42 165.77 127.63 166.64 128.92 166.43 Z M 129.92 166.27 L 130.91 166.11 C 132.20 165.90 133.07 164.69 132.86 163.40 C 132.65 162.12 131.44 161.24 130.15 161.45 L 129.17 161.61 C 127.88 161.82 127.00 163.03 127.21 164.32 C 127.42 165.61 128.63 166.48 129.92 166.27 Z M 130.90 166.11 L 131.78 165.97 C 133.07 165.77 133.95 164.56 133.74 163.27 C 133.54 161.98 132.33 161.10 131.04 161.31 L 130.16 161.45 C 128.87 161.65 128.00 162.86 128.20 164.15 C 128.41 165.44 129.62 166.32 130.90 166.11 Z M 131.78 165.97 L 132.70 165.83 C 133.98 165.62 134.86 164.41 134.66 163.12 C 134.45 161.84 133.24 160.96 131.95 161.16 L 131.04 161.31 C 129.75 161.51 128.87 162.72 129.08 164.01 C 129.28 165.30 130.49 166.18 131.78 165.97 Z M 132.70 165.83 L 133.67 165.67 C 134.95 165.46 135.83 164.25 135.62 162.96 C 135.42 161.68 134.21 160.80 132.92 161.01 L 131.95 161.16 C 130.66 161.37 129.79 162.58 129.99 163.87 C 130.20 165.16 131.41 166.03 132.70 165.83 Z M 133.68 165.67 L 134.71 165.50 C 136.00 165.29 136.87 164.07 136.66 162.79 C 136.44 161.50 135.23 160.63 133.94 160.84 L 132.91 161.01 C 131.62 161.22 130.75 162.44 130.96 163.72 C 131.17 165.01 132.39 165.88 133.68 165.67 Z M 134.72 165.50 L 135.84 165.31 C 137.12 165.09 137.99 163.87 137.77 162.59 C 137.55 161.30 136.33 160.43 135.05 160.65 L 133.93 160.84 C 132.65 161.06 131.78 162.28 132.00 163.56 C 132.22 164.85 133.44 165.72 134.72 165.50 Z M 135.85 165.31 L 136.81 165.14 C 138.09 164.91 138.95 163.69 138.73 162.41 C 138.50 161.12 137.28 160.26 135.99 160.49 L 135.03 160.65 C 133.75 160.88 132.89 162.10 133.11 163.39 C 133.34 164.67 134.56 165.53 135.85 165.31 Z M 136.82 165.14 L 137.72 164.98 C 139.01 164.74 139.86 163.52 139.63 162.23 C 139.40 160.95 138.17 160.10 136.89 160.33 L 135.98 160.49 C 134.70 160.72 133.85 161.95 134.08 163.23 C 134.31 164.51 135.53 165.37 136.82 165.14 Z M 137.73 164.97 L 138.67 164.80 C 139.96 164.56 140.81 163.33 140.57 162.05 C 140.34 160.77 139.10 159.92 137.82 160.15 L 136.88 160.33 C 135.60 160.56 134.75 161.79 134.98 163.08 C 135.22 164.36 136.45 165.21 137.73 164.97 Z M 138.68 164.80 L 139.66 164.62 C 140.94 164.38 141.79 163.14 141.55 161.86 C 141.31 160.58 140.07 159.73 138.79 159.97 L 137.81 160.16 C 136.53 160.40 135.69 161.63 135.93 162.91 C 136.17 164.19 137.40 165.04 138.68 164.80 Z M 139.67 164.61 L 140.67 164.42 C 141.95 164.18 142.79 162.94 142.55 161.66 C 142.30 160.38 141.07 159.54 139.79 159.78 L 138.78 159.97 C 137.50 160.22 136.66 161.46 136.91 162.74 C 137.15 164.02 138.39 164.86 139.67 164.61 Z M 140.68 164.42 L 141.71 164.22 C 142.99 163.97 143.82 162.73 143.57 161.45 C 143.32 160.17 142.08 159.33 140.80 159.58 L 139.78 159.78 C 138.50 160.03 137.66 161.27 137.91 162.55 C 138.16 163.83 139.40 164.67 140.68 164.42 Z M 141.72 164.22 L 142.76 164.01 C 144.04 163.76 144.87 162.51 144.61 161.23 C 144.36 159.96 143.12 159.12 141.84 159.38 L 140.80 159.59 C 139.52 159.84 138.69 161.08 138.94 162.36 C 139.19 163.64 140.44 164.47 141.72 164.22 Z M 142.77 164.01 L 143.82 163.80 C 145.10 163.54 145.92 162.29 145.66 161.01 C 145.41 159.73 144.16 158.91 142.88 159.17 L 141.83 159.38 C 140.55 159.64 139.72 160.89 139.98 162.16 C 140.24 163.44 141.49 164.27 142.77 164.01 Z M 143.83 163.79 L 144.90 163.57 C 146.18 163.31 147.00 162.06 146.74 160.78 C 146.47 159.50 145.22 158.68 143.95 158.95 L 142.87 159.17 C 141.59 159.43 140.77 160.68 141.04 161.96 C 141.30 163.24 142.55 164.06 143.83 163.79 Z M 144.91 163.57 L 145.98 163.34 C 147.26 163.08 148.08 161.82 147.81 160.55 C 147.54 159.27 146.29 158.45 145.01 158.72 L 143.94 158.95 C 142.66 159.22 141.85 160.47 142.12 161.75 C 142.38 163.02 143.64 163.84 144.91 163.57 Z M 145.99 163.34 L 147.04 163.12 C 148.32 162.85 149.13 161.59 148.86 160.32 C 148.59 159.04 147.33 158.23 146.06 158.50 L 145.00 158.72 C 143.73 159.00 142.92 160.25 143.19 161.53 C 143.46 162.80 144.71 163.61 145.99 163.34 Z M 147.05 163.12 L 148.07 162.90 C 149.34 162.62 150.15 161.37 149.88 160.09 C 149.61 158.82 148.35 158.01 147.08 158.28 L 146.05 158.50 C 144.78 158.78 143.97 160.03 144.24 161.30 C 144.52 162.58 145.77 163.39 147.05 163.12 Z M 148.07 162.90 L 149.05 162.68 C 150.32 162.41 151.13 161.15 150.86 159.88 C 150.58 158.61 149.33 157.80 148.05 158.07 L 147.07 158.28 C 145.80 158.56 144.99 159.81 145.26 161.09 C 145.54 162.36 146.80 163.17 148.07 162.90 Z M 149.05 162.68 L 149.98 162.48 C 151.25 162.21 152.06 160.95 151.79 159.68 C 151.51 158.41 150.26 157.60 148.98 157.87 L 148.05 158.07 C 146.78 158.35 145.97 159.60 146.25 160.88 C 146.52 162.15 147.78 162.96 149.05 162.68 Z M 149.97 162.48 L 150.84 162.30 C 152.11 162.03 152.92 160.77 152.65 159.50 C 152.38 158.22 151.12 157.41 149.85 157.69 L 148.99 157.87 C 147.71 158.14 146.90 159.40 147.17 160.67 C 147.45 161.95 148.70 162.76 149.97 162.48 Z M 150.83 162.30 L 151.73 162.11 C 153.00 161.84 153.82 160.59 153.55 159.32 C 153.28 158.04 152.03 157.23 150.76 157.50 L 149.85 157.69 C 148.58 157.95 147.77 159.21 148.03 160.48 C 148.30 161.75 149.55 162.57 150.83 162.30 Z M 151.71 162.11 L 152.82 161.89 C 154.09 161.63 154.91 160.38 154.65 159.11 C 154.39 157.83 153.15 157.01 151.87 157.27 L 150.77 157.49 C 149.50 157.76 148.67 159.00 148.93 160.27 C 149.20 161.55 150.44 162.37 151.71 162.11 Z M 152.79 161.89 L 153.76 161.70 C 155.03 161.45 155.87 160.22 155.62 158.94 C 155.37 157.67 154.14 156.83 152.86 157.08 L 151.90 157.27 C 150.62 157.52 149.79 158.75 150.03 160.03 C 150.28 161.30 151.52 162.13 152.79 161.89 Z M 153.73 161.70 L 154.64 161.53 C 155.91 161.30 156.76 160.08 156.52 158.80 C 156.29 157.53 155.07 156.68 153.79 156.91 L 152.89 157.08 C 151.61 157.31 150.77 158.54 151.00 159.81 C 151.23 161.09 152.46 161.93 153.73 161.70 Z M 154.61 161.53 L 155.53 161.38 C 156.80 161.16 157.66 159.94 157.44 158.67 C 157.21 157.39 156.00 156.54 154.73 156.76 L 153.81 156.91 C 152.54 157.14 151.68 158.35 151.90 159.62 C 152.12 160.90 153.34 161.76 154.61 161.53 Z M 155.51 161.38 L 156.46 161.22 C 157.73 161.01 158.59 159.80 158.38 158.52 C 158.17 157.25 156.96 156.39 155.69 156.60 L 154.74 156.76 C 153.47 156.97 152.60 158.18 152.82 159.45 C 153.03 160.73 154.23 161.59 155.51 161.38 Z M 156.45 161.22 L 157.44 161.06 C 158.71 160.85 159.58 159.65 159.37 158.37 C 159.17 157.10 157.96 156.23 156.69 156.44 L 155.70 156.60 C 154.42 156.81 153.56 158.01 153.76 159.28 C 153.97 160.56 155.17 161.43 156.45 161.22 Z M 157.43 161.06 L 158.45 160.90 C 159.73 160.70 160.60 159.50 160.40 158.22 C 160.20 156.95 159.00 156.08 157.72 156.28 L 156.70 156.44 C 155.42 156.64 154.55 157.84 154.75 159.11 C 154.95 160.39 156.15 161.26 157.43 161.06 Z M 158.44 160.90 L 159.46 160.74 C 160.74 160.55 161.62 159.36 161.42 158.08 C 161.23 156.80 160.04 155.93 158.76 156.12 L 157.74 156.28 C 156.46 156.47 155.58 157.66 155.78 158.94 C 155.97 160.22 157.16 161.09 158.44 160.90 Z M 159.45 160.75 L 160.42 160.60 C 161.70 160.42 162.59 159.23 162.40 157.95 C 162.22 156.68 161.03 155.79 159.75 155.98 L 158.77 156.12 C 157.50 156.30 156.61 157.49 156.80 158.77 C 156.98 160.05 158.17 160.93 159.45 160.75 Z M 160.40 160.61 L 161.45 160.46 C 162.73 160.29 163.63 159.12 163.45 157.84 C 163.28 156.56 162.11 155.66 160.83 155.83 L 159.78 155.97 C 158.50 156.15 157.60 157.32 157.77 158.60 C 157.95 159.88 159.12 160.78 160.40 160.61 Z M 161.42 160.47 L 162.49 160.34 C 163.77 160.18 164.68 159.02 164.52 157.74 C 164.37 156.46 163.21 155.55 161.93 155.70 L 160.86 155.83 C 159.58 155.99 158.67 157.15 158.82 158.43 C 158.97 159.71 160.14 160.62 161.42 160.47 Z M 162.45 160.34 L 163.41 160.24 C 164.69 160.10 165.62 158.95 165.48 157.67 C 165.34 156.39 164.19 155.46 162.91 155.60 L 161.96 155.70 C 160.68 155.84 159.75 156.99 159.89 158.27 C 160.02 159.55 161.17 160.48 162.45 160.34 Z M 163.39 160.24 L 164.28 160.15 C 165.56 160.03 166.49 158.89 166.37 157.61 C 166.24 156.33 165.10 155.39 163.82 155.51 L 162.93 155.60 C 161.65 155.73 160.72 156.86 160.84 158.14 C 160.97 159.43 162.11 160.36 163.39 160.24 Z M 164.27 160.15 L 165.24 160.06 C 166.52 159.94 167.45 158.80 167.33 157.52 C 167.21 156.24 166.08 155.30 164.80 155.42 L 163.83 155.52 C 162.55 155.64 161.61 156.77 161.73 158.05 C 161.86 159.33 162.99 160.27 164.27 160.15 Z M 165.23 160.06 L 166.22 159.96 C 167.50 159.85 168.44 158.72 168.32 157.44 C 168.21 156.16 167.08 155.22 165.80 155.33 L 164.81 155.43 C 163.53 155.54 162.58 156.67 162.70 157.95 C 162.82 159.23 163.95 160.17 165.23 160.06 Z M 166.20 159.96 L 167.20 159.88 C 168.48 159.78 169.43 158.66 169.32 157.38 C 169.22 156.10 168.10 155.15 166.82 155.25 L 165.82 155.34 C 164.54 155.44 163.59 156.56 163.69 157.84 C 163.80 159.12 164.92 160.07 166.20 159.96 Z M 167.17 159.88 L 168.15 159.81 C 169.43 159.72 170.39 158.62 170.30 157.34 C 170.22 156.06 169.11 155.10 167.83 155.19 L 166.85 155.25 C 165.57 155.34 164.61 156.45 164.69 157.73 C 164.78 159.01 165.89 159.97 167.17 159.88 Z M 168.12 159.81 L 169.10 159.76 C 170.37 159.68 171.35 158.59 171.28 157.31 C 171.20 156.03 170.11 155.06 168.83 155.13 L 167.86 155.19 C 166.58 155.26 165.61 156.35 165.68 157.63 C 165.75 158.91 166.85 159.88 168.12 159.81 Z M 169.08 159.75 L 170.08 159.71 C 171.35 159.64 172.34 158.56 172.28 157.28 C 172.22 156.01 171.13 155.02 169.86 155.08 L 168.85 155.13 C 167.58 155.19 166.59 156.28 166.65 157.55 C 166.72 158.83 167.80 159.82 169.08 159.75 Z M 170.07 159.70 L 171.11 159.66 C 172.38 159.60 173.37 158.53 173.31 157.25 C 173.26 155.98 172.18 154.99 170.91 155.04 L 169.87 155.09 C 168.59 155.14 167.61 156.22 167.66 157.49 C 167.71 158.77 168.79 159.76 170.07 159.70 Z M 171.10 159.66 L 172.10 159.62 C 173.37 159.56 174.36 158.49 174.31 157.22 C 174.26 155.94 173.18 154.95 171.91 155.01 L 170.91 155.05 C 169.64 155.10 168.65 156.17 168.70 157.44 C 168.75 158.72 169.83 159.71 171.10 159.66 Z M 172.09 159.61 L 173.10 159.58 C 174.38 159.53 175.37 158.46 175.32 157.19 C 175.28 155.92 174.21 154.92 172.93 154.97 L 171.92 155.01 C 170.65 155.05 169.65 156.12 169.70 157.39 C 169.75 158.67 170.82 159.66 172.09 159.61 Z M 173.09 159.57 L 174.09 159.54 C 175.37 159.50 176.36 158.44 176.32 157.17 C 176.28 155.90 175.22 154.90 173.95 154.94 L 172.95 154.97 C 171.68 155.01 170.68 156.07 170.72 157.34 C 170.76 158.62 171.82 159.61 173.09 159.57 Z M 174.08 159.54 L 175.08 159.52 C 176.35 159.49 177.35 158.44 177.32 157.17 C 177.30 155.89 176.24 154.89 174.97 154.92 L 173.97 154.94 C 172.70 154.97 171.69 156.02 171.72 157.30 C 171.75 158.57 172.81 159.57 174.08 159.54 Z M 175.05 159.52 L 176.09 159.50 C 177.36 159.49 178.37 158.44 178.35 157.17 C 178.34 155.90 177.29 154.89 176.02 154.91 L 174.99 154.92 C 173.72 154.94 172.71 155.98 172.72 157.25 C 172.74 158.52 173.78 159.54 175.05 159.52 Z M 176.07 159.50 L 177.05 159.50 C 178.33 159.49 179.35 158.46 179.34 157.19 C 179.34 155.92 178.30 154.89 177.03 154.90 L 176.04 154.90 C 174.77 154.91 173.75 155.95 173.75 157.22 C 173.76 158.49 174.80 159.51 176.07 159.50 Z M 177.04 159.50 L 178.01 159.50 C 179.28 159.50 180.31 158.47 180.31 157.20 C 180.31 155.93 179.28 154.90 178.01 154.90 L 177.04 154.90 C 175.77 154.90 174.74 155.93 174.74 157.20 C 174.74 158.47 175.77 159.50 177.04 159.50 Z M 178.01 159.49 L 178.91 159.49 C 180.18 159.50 181.21 158.47 181.21 157.20 C 181.21 155.93 180.18 154.90 178.92 154.90 L 178.01 154.90 C 176.74 154.90 175.71 155.93 175.71 157.20 C 175.71 158.47 176.74 159.49 178.01 159.49 Z M 178.91 159.48 L 179.85 159.49 C 181.11 159.49 182.14 158.47 182.14 157.21 C 182.15 155.95 181.13 154.92 179.87 154.92 L 178.92 154.91 C 177.66 154.91 176.63 155.93 176.63 157.19 C 176.62 158.45 177.64 159.48 178.91 159.48 Z M 179.84 159.48 L 180.88 159.49 C 182.13 159.50 183.16 158.49 183.17 157.23 C 183.18 155.98 182.17 154.95 180.92 154.94 L 179.88 154.93 C 178.62 154.92 177.60 155.92 177.58 157.18 C 177.57 158.44 178.58 159.47 179.84 159.48 Z M 180.86 159.48 L 181.93 159.49 C 183.18 159.51 184.21 158.52 184.23 157.27 C 184.25 156.01 183.25 154.98 182.00 154.96 L 180.93 154.95 C 179.68 154.93 178.65 155.92 178.63 157.18 C 178.61 158.43 179.61 159.46 180.86 159.48 Z M 181.91 159.49 L 182.84 159.51 C 184.08 159.54 185.12 158.55 185.15 157.31 C 185.18 156.06 184.20 155.02 182.95 154.99 L 182.02 154.97 C 180.78 154.94 179.74 155.93 179.71 157.17 C 179.68 158.42 180.66 159.46 181.91 159.49 Z M 182.80 159.50 L 183.79 159.54 C 185.03 159.59 186.08 158.62 186.13 157.38 C 186.18 156.14 185.21 155.09 183.97 155.04 L 182.98 155.00 C 181.74 154.95 180.69 155.92 180.64 157.16 C 180.59 158.41 181.56 159.45 182.80 159.50 Z M 183.74 159.54 L 184.77 159.60 C 186.01 159.68 187.07 158.73 187.15 157.50 C 187.23 156.26 186.28 155.19 185.05 155.11 L 184.02 155.05 C 182.78 154.97 181.71 155.91 181.63 157.15 C 181.56 158.39 182.50 159.46 183.74 159.54 Z M 184.70 159.59 L 185.75 159.69 C 186.98 159.80 188.07 158.89 188.19 157.66 C 188.30 156.42 187.39 155.33 186.16 155.22 L 185.11 155.12 C 183.88 155.01 182.79 155.92 182.67 157.15 C 182.56 158.38 183.47 159.48 184.70 159.59 Z M 185.66 159.67 L 186.70 159.81 C 187.93 159.97 189.05 159.11 189.21 157.88 C 189.38 156.66 188.51 155.53 187.29 155.37 L 186.24 155.23 C 185.02 155.07 183.89 155.93 183.73 157.16 C 183.57 158.39 184.43 159.51 185.66 159.67 Z M 186.60 159.79 L 187.61 159.97 C 188.83 160.19 189.99 159.38 190.21 158.16 C 190.42 156.95 189.62 155.79 188.40 155.57 L 187.39 155.39 C 186.17 155.17 185.01 155.98 184.79 157.20 C 184.58 158.41 185.39 159.57 186.60 159.79 Z M 187.51 159.95 L 188.50 160.18 C 189.70 160.45 190.90 159.70 191.17 158.50 C 191.45 157.29 190.70 156.09 189.49 155.82 L 188.51 155.59 C 187.30 155.32 186.10 156.07 185.83 157.27 C 185.55 158.47 186.30 159.67 187.51 159.95 Z M 188.39 160.15 L 189.35 160.42 C 190.54 160.76 191.77 160.07 192.11 158.88 C 192.44 157.69 191.75 156.46 190.57 156.12 L 189.60 155.85 C 188.42 155.51 187.18 156.20 186.85 157.39 C 186.51 158.58 187.20 159.81 188.39 160.15 Z M 189.23 160.38 L 190.16 160.70 C 191.33 161.10 192.60 160.48 193.00 159.31 C 193.40 158.14 192.78 156.87 191.61 156.47 L 190.68 156.16 C 189.51 155.76 188.24 156.38 187.84 157.55 C 187.44 158.71 188.07 159.98 189.23 160.38 Z M 190.05 160.66 L 190.94 161.02 C 192.09 161.49 193.39 160.94 193.85 159.79 C 194.32 158.65 193.77 157.35 192.63 156.88 L 191.73 156.52 C 190.59 156.05 189.28 156.60 188.82 157.75 C 188.35 158.89 188.90 160.19 190.05 160.66 Z M 190.81 160.97 L 191.78 161.44 C 192.89 161.98 194.24 161.52 194.78 160.40 C 195.31 159.29 194.85 157.95 193.74 157.41 L 192.76 156.94 C 191.65 156.40 190.31 156.86 189.77 157.98 C 189.23 159.09 189.69 160.43 190.81 160.97 Z M 191.63 161.38 L 192.54 161.90 C 193.62 162.53 195.00 162.15 195.62 161.07 C 196.24 159.99 195.87 158.61 194.79 157.99 L 193.89 157.47 C 192.80 156.84 191.42 157.22 190.80 158.30 C 190.18 159.38 190.55 160.76 191.63 161.38 Z M 192.38 161.83 L 193.20 162.39 C 194.24 163.09 195.66 162.83 196.36 161.79 C 197.07 160.75 196.81 159.33 195.77 158.63 L 194.95 158.07 C 193.91 157.36 192.49 157.62 191.78 158.66 C 191.07 159.70 191.34 161.12 192.38 161.83 Z M 193.04 162.28 L 193.76 162.87 C 194.74 163.68 196.19 163.53 196.99 162.55 C 197.79 161.57 197.64 160.12 196.66 159.32 L 195.93 158.73 C 194.95 157.93 193.51 158.07 192.71 159.06 C 191.91 160.04 192.05 161.48 193.04 162.28 Z M 193.57 162.72 L 194.23 163.40 C 195.13 164.31 196.60 164.31 197.50 163.42 C 198.41 162.52 198.42 161.05 197.52 160.14 L 196.85 159.47 C 195.95 158.56 194.49 158.55 193.58 159.45 C 192.67 160.35 192.67 161.82 193.57 162.72 Z M 193.99 163.15 L 194.56 163.93 C 195.32 164.97 196.79 165.20 197.83 164.44 C 198.87 163.67 199.10 162.21 198.33 161.17 L 197.76 160.39 C 197.00 159.35 195.54 159.12 194.49 159.88 C 193.45 160.65 193.23 162.11 193.99 163.15 Z M 194.32 163.58 L 194.73 164.45 C 195.30 165.62 196.72 166.11 197.90 165.55 C 199.07 164.98 199.56 163.56 199.00 162.38 L 198.58 161.52 C 198.01 160.34 196.59 159.85 195.42 160.42 C 194.24 160.99 193.75 162.40 194.32 163.58 Z M 194.56 164.07 L 194.84 165.06 C 195.20 166.33 196.53 167.07 197.80 166.71 C 199.07 166.35 199.81 165.03 199.45 163.76 L 199.17 162.76 C 198.81 161.49 197.49 160.75 196.21 161.11 C 194.94 161.47 194.20 162.79 194.56 164.07 Z M 194.75 164.76 L 194.89 165.74 C 195.08 167.06 196.31 167.98 197.64 167.79 C 198.96 167.59 199.88 166.37 199.68 165.04 L 199.54 164.06 C 199.35 162.74 198.12 161.82 196.80 162.01 C 195.48 162.21 194.56 163.43 194.75 164.76 Z M 194.85 165.54 L 194.91 166.54 C 194.99 167.89 196.15 168.92 197.50 168.83 C 198.84 168.75 199.87 167.60 199.79 166.25 L 199.73 165.24 C 199.65 163.90 198.49 162.87 197.14 162.95 C 195.79 163.03 194.77 164.19 194.85 165.54 Z M 194.88 166.39 L 194.88 167.43 C 194.88 168.79 195.99 169.90 197.35 169.90 C 198.71 169.90 199.81 168.80 199.81 167.44 L 199.81 166.40 C 199.82 165.03 198.71 163.93 197.35 163.93 C 195.99 163.93 194.88 165.03 194.88 166.39 Z M 194.86 167.31 L 194.81 168.33 C 194.74 169.70 195.80 170.87 197.17 170.94 C 198.54 171.01 199.71 169.96 199.78 168.59 L 199.83 167.56 C 199.90 166.19 198.85 165.02 197.48 164.95 C 196.10 164.88 194.93 165.93 194.86 167.31 Z M 194.80 168.21 L 194.70 169.17 C 194.56 170.55 195.57 171.78 196.95 171.92 C 198.33 172.06 199.56 171.05 199.70 169.67 L 199.79 168.71 C 199.93 167.33 198.93 166.10 197.55 165.96 C 196.17 165.82 194.94 166.83 194.80 168.21 Z M 194.71 169.03 L 194.55 170.04 C 194.33 171.41 195.27 172.70 196.64 172.92 C 198.02 173.14 199.31 172.20 199.53 170.83 L 199.69 169.82 C 199.91 168.44 198.97 167.15 197.59 166.93 C 196.22 166.71 194.93 167.65 194.71 169.03 Z M 194.58 169.87 L 194.37 170.80 C 194.06 172.16 194.91 173.51 196.26 173.82 C 197.62 174.13 198.97 173.28 199.28 171.93 L 199.50 170.99 C 199.81 169.64 198.96 168.28 197.60 167.97 C 196.24 167.66 194.89 168.51 194.58 169.87 Z M 194.40 170.66 L 194.13 171.59 C 193.74 172.92 194.51 174.32 195.85 174.71 C 197.19 175.10 198.59 174.34 198.98 173.00 L 199.25 172.07 C 199.64 170.73 198.87 169.33 197.53 168.94 C 196.20 168.55 194.80 169.32 194.40 170.66 Z M 194.16 171.49 L 193.83 172.49 C 193.39 173.81 194.10 175.24 195.42 175.68 C 196.75 176.12 198.17 175.41 198.62 174.09 L 198.95 173.09 C 199.39 171.77 198.68 170.34 197.35 169.90 C 196.03 169.46 194.60 170.17 194.16 171.49 Z M 193.84 172.45 L 193.54 173.31 C 193.08 174.63 193.77 176.07 195.09 176.53 C 196.40 176.99 197.84 176.30 198.30 174.98 L 198.60 174.12 C 199.06 172.81 198.37 171.37 197.06 170.91 C 195.74 170.45 194.30 171.14 193.84 172.45 Z M 193.55 173.30 L 193.22 174.22 C 192.75 175.54 193.43 176.98 194.74 177.45 C 196.06 177.92 197.50 177.23 197.97 175.92 L 198.30 175.00 C 198.77 173.68 198.08 172.24 196.77 171.77 C 195.46 171.30 194.01 171.99 193.55 173.30 Z M 193.22 174.22 L 192.87 175.19 C 192.40 176.50 193.08 177.94 194.40 178.41 C 195.71 178.88 197.15 178.20 197.62 176.89 L 197.97 175.92 C 198.44 174.61 197.75 173.17 196.44 172.70 C 195.13 172.23 193.69 172.91 193.22 174.22 Z M 192.87 175.19 L 192.52 176.18 C 192.05 177.49 192.74 178.93 194.06 179.40 C 195.37 179.86 196.81 179.18 197.28 177.86 L 197.62 176.88 C 198.09 175.57 197.40 174.12 196.09 173.66 C 194.78 173.19 193.33 173.88 192.87 175.19 Z M 192.51 176.19 L 192.17 177.18 C 191.72 178.49 192.42 179.93 193.73 180.39 C 195.05 180.84 196.49 180.14 196.94 178.83 L 197.28 177.85 C 197.74 176.53 197.04 175.09 195.72 174.64 C 194.41 174.18 192.97 174.88 192.51 176.19 Z M 192.17 177.20 L 191.85 178.14 C 191.41 179.46 192.13 180.88 193.45 181.33 C 194.77 181.77 196.19 181.06 196.64 179.74 L 196.95 178.80 C 197.39 177.48 196.68 176.05 195.36 175.61 C 194.04 175.17 192.61 175.88 192.17 177.20 Z M 191.85 178.16 L 191.55 179.08 C 191.13 180.40 191.85 181.82 193.17 182.25 C 194.49 182.68 195.91 181.95 196.34 180.63 L 196.64 179.71 C 197.07 178.39 196.34 176.97 195.02 176.54 C 193.70 176.11 192.28 176.84 191.85 178.16 Z M 191.56 179.09 L 191.26 180.02 C 190.84 181.34 191.57 182.75 192.89 183.17 C 194.21 183.59 195.62 182.86 196.05 181.54 L 196.34 180.62 C 196.76 179.30 196.03 177.88 194.71 177.46 C 193.39 177.04 191.98 177.77 191.56 179.09 Z M 191.26 180.02 L 190.96 180.97 C 190.54 182.29 191.27 183.70 192.59 184.12 C 193.91 184.54 195.32 183.81 195.74 182.49 L 196.04 181.54 C 196.46 180.22 195.73 178.81 194.41 178.39 C 193.09 177.97 191.68 178.70 191.26 180.02 Z M 190.97 180.96 L 190.65 181.95 C 190.23 183.27 190.95 184.68 192.26 185.10 C 193.58 185.52 194.99 184.80 195.41 183.49 L 195.73 182.49 C 196.16 181.18 195.43 179.77 194.12 179.35 C 192.80 178.92 191.39 179.65 190.97 180.96 Z M 190.66 181.94 L 190.34 182.91 C 189.91 184.22 190.62 185.63 191.93 186.06 C 193.24 186.49 194.65 185.78 195.08 184.47 L 195.40 183.50 C 195.83 182.19 195.12 180.78 193.81 180.35 C 192.50 179.92 191.09 180.63 190.66 181.94 Z M 190.35 182.90 L 190.04 183.84 C 189.60 185.14 190.30 186.55 191.60 186.99 C 192.91 187.43 194.32 186.73 194.76 185.42 L 195.07 184.48 C 195.51 183.18 194.81 181.77 193.51 181.33 C 192.20 180.89 190.79 181.59 190.35 182.90 Z M 190.05 183.83 L 189.72 184.79 C 189.27 186.09 189.97 187.50 191.27 187.94 C 192.56 188.39 193.98 187.69 194.42 186.39 L 194.75 185.43 C 195.19 184.13 194.50 182.72 193.20 182.28 C 191.90 181.83 190.49 182.53 190.05 183.83 Z M 189.73 184.78 L 189.39 185.75 C 188.94 187.05 189.63 188.46 190.92 188.90 C 192.21 189.35 193.62 188.67 194.07 187.37 L 194.41 186.40 C 194.86 185.11 194.17 183.70 192.88 183.25 C 191.59 182.80 190.18 183.49 189.73 184.78 Z M 189.40 185.75 L 189.06 186.71 C 188.61 188.00 189.29 189.41 190.57 189.86 C 191.86 190.31 193.27 189.63 193.72 188.35 L 194.06 187.38 C 194.51 186.09 193.84 184.68 192.55 184.23 C 191.26 183.78 189.85 184.46 189.40 185.75 Z M 189.07 186.70 L 188.74 187.64 C 188.28 188.92 188.95 190.33 190.23 190.79 C 191.52 191.24 192.92 190.57 193.38 189.29 L 193.71 188.35 C 194.17 187.07 193.50 185.66 192.22 185.21 C 190.94 184.75 189.53 185.42 189.07 186.70 Z M 188.75 187.63 L 188.41 188.57 C 187.95 189.85 188.61 191.26 189.89 191.72 C 191.16 192.18 192.57 191.51 193.03 190.24 L 193.37 189.30 C 193.83 188.02 193.17 186.61 191.89 186.16 C 190.62 185.70 189.21 186.36 188.75 187.63 Z M 188.43 188.57 L 188.06 189.58 C 187.59 190.85 188.24 192.25 189.51 192.71 C 190.78 193.18 192.18 192.53 192.64 191.26 L 193.01 190.25 C 193.48 188.98 192.83 187.58 191.56 187.11 C 190.29 186.65 188.89 187.30 188.43 188.57 Z M 188.08 189.57 L 187.72 190.53 C 187.25 191.78 187.89 193.18 189.14 193.65 C 190.40 194.12 191.80 193.48 192.27 192.22 L 192.62 191.27 C 193.09 190.01 192.45 188.62 191.20 188.15 C 189.94 187.68 188.55 188.32 188.08 189.57 Z M 187.74 190.51 L 187.39 191.43 C 186.92 192.67 187.54 194.06 188.79 194.54 C 190.03 195.01 191.42 194.39 191.90 193.15 L 192.24 192.23 C 192.72 190.99 192.10 189.60 190.85 189.12 C 189.61 188.65 188.22 189.27 187.74 190.51 Z M 187.42 191.41 L 187.07 192.30 C 186.59 193.53 187.20 194.92 188.43 195.40 C 189.66 195.88 191.04 195.27 191.53 194.04 L 191.87 193.16 C 192.35 191.93 191.75 190.54 190.52 190.06 C 189.29 189.58 187.90 190.18 187.42 191.41 Z M 187.10 192.28 L 186.74 193.16 C 186.25 194.38 186.84 195.76 188.06 196.25 C 189.28 196.74 190.66 196.15 191.15 194.93 L 191.50 194.06 C 191.99 192.84 191.40 191.46 190.19 190.97 C 188.97 190.48 187.58 191.07 187.10 192.28 Z M 186.77 193.15 L 186.37 194.09 C 185.88 195.30 186.45 196.68 187.65 197.17 C 188.86 197.67 190.24 197.10 190.73 195.89 L 191.13 194.95 C 191.62 193.75 191.05 192.37 189.85 191.87 C 188.64 191.37 187.26 191.94 186.77 193.15 Z M 186.40 194.08 L 186.00 195.02 C 185.49 196.21 186.05 197.58 187.24 198.09 C 188.43 198.59 189.81 198.04 190.31 196.85 L 190.71 195.91 C 191.22 194.72 190.66 193.34 189.47 192.84 C 188.28 192.33 186.90 192.89 186.40 194.08 Z M 186.02 195.00 L 185.62 195.92 C 185.10 197.10 185.64 198.47 186.82 198.99 C 188.00 199.50 189.37 198.97 189.88 197.79 L 190.29 196.87 C 190.80 195.69 190.27 194.32 189.09 193.80 C 187.91 193.29 186.54 193.82 186.02 195.00 Z M 185.65 195.91 L 185.24 196.80 C 184.72 197.97 185.23 199.33 186.40 199.86 C 187.56 200.38 188.93 199.87 189.45 198.70 L 189.86 197.81 C 190.38 196.64 189.87 195.28 188.70 194.75 C 187.54 194.22 186.17 194.74 185.65 195.91 Z M 185.27 196.78 L 184.85 197.68 C 184.31 198.83 184.81 200.19 185.95 200.73 C 187.10 201.27 188.47 200.77 189.01 199.62 L 189.43 198.73 C 189.96 197.58 189.47 196.21 188.32 195.67 C 187.17 195.14 185.80 195.63 185.27 196.78 Z M 184.88 197.65 L 184.40 198.62 C 183.85 199.75 184.32 201.11 185.45 201.67 C 186.58 202.22 187.95 201.75 188.50 200.62 L 188.97 199.65 C 189.53 198.52 189.06 197.16 187.93 196.60 C 186.80 196.05 185.43 196.52 184.88 197.65 Z M 184.44 198.58 L 183.97 199.48 C 183.40 200.59 183.83 201.96 184.94 202.53 C 186.05 203.11 187.42 202.68 188.00 201.56 L 188.46 200.66 C 189.04 199.55 188.61 198.18 187.50 197.61 C 186.38 197.03 185.02 197.47 184.44 198.58 Z M 184.02 199.43 L 183.55 200.26 C 182.95 201.35 183.34 202.72 184.43 203.32 C 185.52 203.93 186.89 203.54 187.49 202.45 L 187.95 201.61 C 188.56 200.53 188.17 199.16 187.08 198.55 C 185.99 197.95 184.62 198.34 184.02 199.43 Z M 183.61 200.20 L 183.12 201.00 C 182.48 202.06 182.82 203.44 183.88 204.07 C 184.94 204.71 186.31 204.37 186.95 203.31 L 187.44 202.51 C 188.07 201.45 187.73 200.08 186.68 199.44 C 185.62 198.80 184.24 199.14 183.61 200.20 Z M 183.20 200.92 L 182.63 201.76 C 181.94 202.78 182.21 204.16 183.22 204.84 C 184.24 205.53 185.61 205.26 186.30 204.25 L 186.87 203.40 C 187.56 202.39 187.29 201.01 186.28 200.32 C 185.26 199.64 183.89 199.90 183.20 200.92 Z M 182.74 201.64 L 182.13 202.41 C 181.38 203.36 181.54 204.74 182.49 205.49 C 183.44 206.25 184.82 206.09 185.57 205.14 L 186.18 204.37 C 186.94 203.42 186.78 202.04 185.83 201.29 C 184.88 200.53 183.50 200.69 182.74 201.64 Z M 182.28 202.27 L 181.61 202.98 C 180.77 203.84 180.80 205.22 181.67 206.05 C 182.53 206.88 183.91 206.85 184.74 205.99 L 185.42 205.28 C 186.25 204.41 186.22 203.04 185.36 202.21 C 184.49 201.38 183.12 201.40 182.28 202.27 Z M 181.78 202.84 L 181.04 203.48 C 180.13 204.24 180.02 205.60 180.79 206.51 C 181.56 207.41 182.92 207.52 183.82 206.75 L 184.57 206.12 C 185.47 205.35 185.58 203.99 184.81 203.09 C 184.04 202.19 182.69 202.08 181.78 202.84 Z M 181.26 203.34 L 180.43 203.89 C 179.45 204.54 179.18 205.86 179.83 206.83 C 180.48 207.81 181.79 208.08 182.77 207.43 L 183.60 206.88 C 184.58 206.24 184.85 204.92 184.20 203.94 C 183.55 202.97 182.24 202.70 181.26 203.34 Z M 180.72 203.77 L 179.80 204.19 C 178.75 204.68 178.30 205.92 178.78 206.97 C 179.27 208.02 180.52 208.48 181.56 207.99 L 182.48 207.56 C 183.53 207.07 183.98 205.83 183.50 204.78 C 183.01 203.73 181.76 203.28 180.72 203.77 Z M 180.16 204.10 L 179.17 204.36 C 178.07 204.65 177.41 205.77 177.70 206.87 C 177.99 207.97 179.12 208.63 180.22 208.34 L 181.21 208.08 C 182.31 207.79 182.96 206.67 182.67 205.57 C 182.38 204.47 181.26 203.81 180.16 204.10 Z M 179.54 204.33 L 178.52 204.41 C 177.41 204.50 176.58 205.47 176.66 206.58 C 176.75 207.70 177.72 208.53 178.83 208.44 L 179.85 208.36 C 180.96 208.28 181.80 207.31 181.71 206.19 C 181.63 205.08 180.65 204.25 179.54 204.33 Z M 178.88 204.46 L 177.88 204.36 C 176.79 204.25 175.82 205.04 175.71 206.13 C 175.60 207.22 176.40 208.19 177.48 208.30 L 178.48 208.40 C 179.57 208.50 180.54 207.71 180.65 206.63 C 180.75 205.54 179.96 204.57 178.88 204.46 Z M 178.24 204.48 L 177.33 204.20 C 176.31 203.89 175.23 204.47 174.92 205.49 C 174.61 206.51 175.19 207.59 176.21 207.90 L 177.12 208.18 C 178.14 208.49 179.22 207.91 179.53 206.89 C 179.84 205.87 179.26 204.79 178.24 204.48 Z M 177.70 204.41 L 176.95 203.98 C 176.04 203.47 174.88 203.79 174.37 204.69 C 173.86 205.60 174.18 206.76 175.08 207.27 L 175.84 207.70 C 176.75 208.21 177.90 207.89 178.41 206.98 C 178.93 206.07 178.61 204.92 177.70 204.41 Z M 177.21 204.22 L 176.51 203.62 C 175.74 202.96 174.57 203.05 173.91 203.82 C 173.25 204.60 173.34 205.76 174.11 206.43 L 174.82 207.03 C 175.59 207.69 176.76 207.60 177.42 206.82 C 178.08 206.05 177.99 204.88 177.21 204.22 Z M 176.64 203.81 L 175.93 203.02 C 175.26 202.29 174.12 202.23 173.38 202.90 C 172.65 203.57 172.59 204.71 173.26 205.44 L 173.98 206.23 C 174.65 206.97 175.79 207.03 176.52 206.36 C 177.26 205.69 177.31 204.55 176.64 203.81 Z M 175.97 203.12 L 175.29 202.29 C 174.68 201.53 173.57 201.42 172.81 202.03 C 172.05 202.64 171.94 203.75 172.55 204.51 L 173.22 205.34 C 173.83 206.10 174.94 206.22 175.70 205.60 C 176.46 204.99 176.58 203.88 175.97 203.12 Z M 175.30 202.33 L 174.77 201.65 C 174.18 200.89 173.08 200.75 172.32 201.34 C 171.56 201.93 171.42 203.03 172.01 203.79 L 172.54 204.47 C 173.13 205.23 174.23 205.37 174.99 204.78 C 175.75 204.19 175.89 203.09 175.30 202.33 Z M 174.78 201.66 L 174.21 200.92 C 173.63 200.15 172.53 200.01 171.77 200.59 C 171.00 201.17 170.86 202.26 171.44 203.03 L 172.01 203.77 C 172.59 204.54 173.68 204.69 174.45 204.10 C 175.21 203.52 175.36 202.43 174.78 201.66 Z M 174.21 200.93 L 173.60 200.13 C 173.03 199.36 171.94 199.21 171.18 199.79 C 170.41 200.36 170.26 201.45 170.83 202.22 L 171.44 203.02 C 172.01 203.78 173.10 203.94 173.87 203.36 C 174.63 202.78 174.79 201.69 174.21 200.93 Z M 173.60 200.13 L 172.97 199.29 C 172.39 198.52 171.31 198.37 170.55 198.94 C 169.78 199.51 169.63 200.60 170.20 201.36 L 170.84 202.21 C 171.41 202.97 172.49 203.13 173.26 202.55 C 174.02 201.98 174.17 200.90 173.60 200.13 Z M 172.96 199.29 L 172.30 198.40 C 171.73 197.64 170.65 197.49 169.89 198.06 C 169.13 198.63 168.97 199.71 169.54 200.47 L 170.20 201.36 C 170.78 202.12 171.85 202.27 172.62 201.70 C 173.38 201.13 173.53 200.05 172.96 199.29 Z M 172.29 198.41 L 171.64 197.53 C 171.07 196.78 169.99 196.62 169.23 197.19 C 168.47 197.77 168.32 198.84 168.89 199.60 L 169.55 200.47 C 170.12 201.23 171.19 201.38 171.95 200.81 C 172.71 200.24 172.86 199.16 172.29 198.41 Z M 171.63 197.53 L 171.05 196.76 C 170.48 196.01 169.40 195.86 168.65 196.43 C 167.89 197.00 167.74 198.08 168.31 198.83 L 168.90 199.60 C 169.47 200.36 170.54 200.51 171.30 199.93 C 172.05 199.36 172.20 198.29 171.63 197.53 Z M 171.05 196.76 L 170.45 195.98 C 169.88 195.22 168.80 195.08 168.05 195.65 C 167.30 196.22 167.15 197.30 167.72 198.05 L 168.32 198.83 C 168.89 199.59 169.97 199.73 170.72 199.16 C 171.47 198.59 171.62 197.51 171.05 196.76 Z M 170.45 195.98 L 169.84 195.18 C 169.27 194.43 168.20 194.29 167.44 194.86 C 166.69 195.44 166.55 196.51 167.12 197.26 L 167.73 198.05 C 168.30 198.81 169.37 198.95 170.13 198.38 C 170.88 197.80 171.02 196.73 170.45 195.98 Z M 169.84 195.18 L 169.23 194.38 C 168.65 193.63 167.58 193.49 166.83 194.07 C 166.08 194.64 165.94 195.72 166.51 196.47 L 167.12 197.26 C 167.70 198.02 168.77 198.16 169.52 197.58 C 170.27 197.01 170.42 195.93 169.84 195.18 Z M 169.23 194.38 L 168.61 193.58 C 168.03 192.83 166.96 192.69 166.21 193.26 C 165.46 193.84 165.32 194.91 165.90 195.66 L 166.51 196.47 C 167.09 197.22 168.16 197.36 168.91 196.78 C 169.66 196.21 169.80 195.13 169.23 194.38 Z M 168.61 193.58 L 167.99 192.77 C 167.41 192.02 166.34 191.88 165.59 192.46 C 164.84 193.03 164.70 194.10 165.28 194.85 L 165.90 195.66 C 166.47 196.41 167.55 196.55 168.29 195.98 C 169.04 195.40 169.18 194.33 168.61 193.58 Z M 167.98 192.77 L 167.36 191.96 C 166.78 191.21 165.71 191.07 164.96 191.65 C 164.22 192.22 164.08 193.29 164.65 194.04 L 165.28 194.85 C 165.85 195.60 166.92 195.74 167.67 195.17 C 168.42 194.59 168.56 193.52 167.98 192.77 Z M 167.36 191.96 L 167.28 191.85 C 166.70 191.11 165.63 190.97 164.88 191.54 C 164.14 192.12 164.00 193.19 164.57 193.94 L 164.65 194.04 C 165.23 194.79 166.30 194.93 167.05 194.35 C 167.80 193.78 167.94 192.71 167.36 191.96 Z"
      fill="black"
      fill-rule="nonzero" /><path d="M 149.64 120.03 L 149.60 120.89 C 149.55 121.98 150.39 122.90 151.48 122.95 C 152.57 123.00 153.50 122.16 153.55 121.07 L 153.58 120.21 C 153.63 119.11 152.79 118.19 151.70 118.14 C 150.61 118.09 149.68 118.94 149.64 120.03 Z M 149.45 120.90 L 149.41 121.81 C 149.37 122.98 150.28 123.97 151.45 124.02 C 152.63 124.06 153.61 123.15 153.66 121.98 L 153.69 121.06 C 153.74 119.89 152.83 118.90 151.65 118.85 C 150.48 118.81 149.49 119.72 149.45 120.90 Z M 149.26 121.83 L 149.23 122.86 C 149.19 124.11 150.18 125.16 151.44 125.20 C 152.69 125.23 153.74 124.25 153.78 122.99 L 153.81 121.96 C 153.85 120.71 152.86 119.66 151.60 119.62 C 150.35 119.58 149.30 120.57 149.26 121.83 Z M 149.09 122.88 L 149.06 124.07 C 149.04 125.40 150.10 126.51 151.43 126.53 C 152.77 126.56 153.87 125.50 153.90 124.16 L 153.92 122.97 C 153.95 121.64 152.89 120.53 151.55 120.50 C 150.22 120.48 149.11 121.54 149.09 122.88 Z M 148.99 124.08 L 148.98 125.03 C 148.96 126.41 150.06 127.54 151.44 127.55 C 152.82 127.57 153.95 126.47 153.96 125.09 L 153.97 124.14 C 153.99 122.77 152.89 121.64 151.51 121.62 C 150.13 121.60 149.01 122.71 148.99 124.08 Z M 148.98 125.04 L 148.97 126.06 C 148.96 127.43 150.07 128.56 151.45 128.57 C 152.82 128.58 153.94 127.47 153.95 126.09 L 153.96 125.08 C 153.97 123.70 152.86 122.58 151.49 122.57 C 150.11 122.56 148.99 123.67 148.98 125.04 Z M 148.97 126.07 L 148.97 127.11 C 148.96 128.49 150.07 129.61 151.45 129.61 C 152.82 129.62 153.94 128.51 153.95 127.13 L 153.95 126.09 C 153.96 124.71 152.85 123.59 151.47 123.58 C 150.10 123.58 148.98 124.69 148.97 126.07 Z M 148.97 127.12 L 148.97 128.16 C 148.96 129.53 150.08 130.65 151.45 130.65 C 152.83 130.66 153.94 129.54 153.95 128.17 L 153.95 127.13 C 153.95 125.75 152.84 124.64 151.46 124.63 C 150.09 124.63 148.97 125.74 148.97 127.12 Z M 148.97 128.16 L 148.97 129.16 C 148.97 130.54 150.08 131.65 151.45 131.65 C 152.83 131.65 153.94 130.54 153.94 129.17 L 153.95 128.17 C 153.95 126.79 152.83 125.68 151.46 125.68 C 150.08 125.67 148.97 126.79 148.97 128.16 Z M 148.97 129.16 L 148.97 130.18 C 148.97 131.56 150.08 132.67 151.46 132.67 C 152.83 132.67 153.94 131.56 153.94 130.19 L 153.94 129.16 C 153.94 127.79 152.83 126.68 151.46 126.68 C 150.08 126.68 148.97 127.79 148.97 129.16 Z M 148.97 130.18 L 148.97 131.32 C 148.97 132.69 150.09 133.80 151.46 133.80 C 152.83 133.80 153.94 132.69 153.94 131.32 L 153.94 130.18 C 153.94 128.81 152.83 127.70 151.46 127.70 C 150.09 127.70 148.97 128.81 148.97 130.18 Z M 148.98 131.32 L 148.98 132.30 C 148.98 133.67 150.09 134.78 151.46 134.78 C 152.82 134.78 153.93 133.67 153.93 132.30 L 153.93 131.32 C 153.93 129.95 152.82 128.84 151.46 128.84 C 150.09 128.84 148.98 129.95 148.98 131.32 Z M 148.99 132.30 L 148.99 133.21 C 148.99 134.57 150.10 135.67 151.46 135.67 C 152.82 135.67 153.92 134.57 153.92 133.21 L 153.92 132.30 C 153.92 130.94 152.82 129.84 151.46 129.84 C 150.10 129.84 148.99 130.94 148.99 132.30 Z M 149.00 133.21 L 149.00 134.10 C 149.00 135.46 150.10 136.56 151.46 136.56 C 152.81 136.56 153.91 135.46 153.91 134.10 L 153.91 133.21 C 153.91 131.85 152.81 130.75 151.46 130.75 C 150.10 130.75 149.00 131.85 149.00 133.21 Z M 149.01 134.10 L 149.01 135.07 C 149.01 136.43 150.10 137.52 151.46 137.52 C 152.81 137.52 153.90 136.43 153.90 135.07 L 153.90 134.10 C 153.90 132.75 152.81 131.66 151.46 131.66 C 150.10 131.66 149.01 132.75 149.01 134.10 Z M 149.01 135.07 L 149.01 136.07 C 149.01 137.42 150.11 138.51 151.46 138.51 C 152.81 138.51 153.90 137.42 153.90 136.07 L 153.90 135.07 C 153.90 133.72 152.81 132.63 151.46 132.63 C 150.11 132.63 149.01 133.72 149.01 135.07 Z M 149.02 136.07 L 149.02 137.09 C 149.02 138.44 150.11 139.53 151.46 139.53 C 152.80 139.53 153.89 138.44 153.89 137.09 L 153.89 136.07 C 153.89 134.72 152.80 133.63 151.46 133.63 C 150.11 133.63 149.02 134.72 149.02 136.07 Z M 149.02 137.09 L 149.02 138.09 C 149.02 139.44 150.11 140.53 151.46 140.53 C 152.80 140.53 153.89 139.44 153.89 138.09 L 153.89 137.09 C 153.89 135.75 152.80 134.66 151.46 134.66 C 150.11 134.66 149.02 135.75 149.02 137.09 Z M 149.03 138.09 L 149.03 139.07 C 149.03 140.41 150.11 141.50 151.46 141.50 C 152.80 141.50 153.89 140.41 153.89 139.07 L 153.89 138.09 C 153.89 136.75 152.80 135.66 151.46 135.66 C 150.11 135.66 149.03 136.75 149.03 138.09 Z M 149.03 139.07 L 149.03 140.07 C 149.03 141.41 150.12 142.49 151.46 142.49 C 152.79 142.49 153.88 141.41 153.88 140.07 L 153.88 139.07 C 153.88 137.73 152.79 136.65 151.46 136.65 C 150.12 136.65 149.03 137.73 149.03 139.07 Z M 149.04 140.07 L 149.04 141.09 C 149.04 142.43 150.12 143.51 151.46 143.51 C 152.79 143.51 153.88 142.43 153.88 141.09 L 153.88 140.07 C 153.88 138.73 152.79 137.65 151.46 137.65 C 150.12 137.65 149.04 138.73 149.04 140.07 Z M 149.04 141.09 L 149.04 142.10 C 149.04 143.43 150.12 144.51 151.46 144.51 C 152.79 144.51 153.87 143.43 153.87 142.10 L 153.87 141.09 C 153.87 139.76 152.79 138.68 151.46 138.68 C 150.12 138.68 149.04 139.76 149.04 141.09 Z M 149.05 142.10 L 149.05 143.07 C 149.05 144.40 150.12 145.48 151.46 145.48 C 152.79 145.48 153.87 144.40 153.87 143.07 L 153.87 142.10 C 153.87 140.77 152.79 139.69 151.46 139.69 C 150.12 139.69 149.05 140.77 149.05 142.10 Z M 149.05 143.07 L 149.05 144.06 C 149.05 145.39 150.13 146.46 151.46 146.46 C 152.78 146.46 153.86 145.39 153.86 144.06 L 153.86 143.07 C 153.86 141.74 152.78 140.66 151.46 140.66 C 150.13 140.66 149.05 141.74 149.05 143.07 Z M 149.06 144.06 L 149.06 145.07 C 149.06 146.40 150.13 147.47 151.46 147.47 C 152.78 147.47 153.86 146.40 153.86 145.07 L 153.86 144.06 C 153.86 142.73 152.78 141.66 151.46 141.66 C 150.13 141.66 149.06 142.73 149.06 144.06 Z M 149.06 145.07 L 149.06 146.11 C 149.06 147.43 150.13 148.50 151.46 148.50 C 152.78 148.50 153.85 147.43 153.85 146.11 L 153.85 145.07 C 153.85 143.75 152.78 142.67 151.46 142.67 C 150.13 142.67 149.06 143.75 149.06 145.07 Z M 149.07 146.11 L 149.07 147.10 C 149.07 148.42 150.14 149.49 151.46 149.49 C 152.78 149.49 153.85 148.42 153.85 147.10 L 153.85 146.11 C 153.85 144.79 152.78 143.72 151.46 143.72 C 150.14 143.72 149.07 144.79 149.07 146.11 Z M 149.07 147.10 L 149.07 148.10 C 149.07 149.42 150.14 150.49 151.46 150.49 C 152.77 150.49 153.84 149.42 153.84 148.10 L 153.84 147.10 C 153.84 145.78 152.77 144.72 151.46 144.72 C 150.14 144.72 149.07 145.78 149.07 147.10 Z M 149.08 148.10 L 149.08 149.11 C 149.08 150.42 150.14 151.49 151.46 151.49 C 152.77 151.49 153.84 150.42 153.84 149.11 L 153.84 148.10 C 153.84 146.79 152.77 145.72 151.46 145.72 C 150.14 145.72 149.08 146.79 149.08 148.10 Z M 149.08 149.11 L 149.08 150.12 C 149.08 151.43 150.14 152.49 151.46 152.49 C 152.77 152.49 153.83 151.43 153.83 150.12 L 153.83 149.11 C 153.83 147.80 152.77 146.73 151.46 146.73 C 150.14 146.73 149.08 147.80 149.08 149.11 Z M 149.09 150.12 L 149.09 151.12 C 149.09 152.42 150.15 153.48 151.46 153.48 C 152.76 153.48 153.83 152.42 153.83 151.12 L 153.83 150.12 C 153.83 148.81 152.76 147.75 151.46 147.75 C 150.15 147.75 149.09 148.81 149.09 150.12 Z M 149.09 151.12 L 149.09 152.13 C 149.09 153.44 150.15 154.50 151.46 154.50 C 152.76 154.50 153.82 153.44 153.82 152.13 L 153.82 151.12 C 153.82 149.81 152.76 148.75 151.46 148.75 C 150.15 148.75 149.09 149.81 149.09 151.12 Z M 149.10 152.13 L 149.10 153.14 C 149.10 154.44 150.15 155.49 151.46 155.49 C 152.76 155.49 153.81 154.44 153.81 153.14 L 153.81 152.13 C 153.81 150.83 152.76 149.78 151.46 149.78 C 150.15 149.78 149.10 150.83 149.10 152.13 Z M 149.10 153.14 L 149.10 154.13 C 149.10 155.43 150.16 156.48 151.46 156.48 C 152.75 156.48 153.81 155.43 153.81 154.13 L 153.81 153.14 C 153.81 151.84 152.75 150.78 151.46 150.78 C 150.16 150.78 149.10 151.84 149.10 153.14 Z M 149.11 154.13 L 149.11 155.12 C 149.11 156.42 150.16 157.47 151.46 157.47 C 152.75 157.47 153.80 156.42 153.80 155.12 L 153.80 154.13 C 153.80 152.83 152.75 151.78 151.46 151.78 C 150.16 151.78 149.11 152.83 149.11 154.13 Z M 149.12 155.12 L 149.12 156.11 C 149.12 157.40 150.16 158.45 151.46 158.45 C 152.75 158.45 153.80 157.40 153.80 156.11 L 153.80 155.12 C 153.80 153.83 152.75 152.78 151.46 152.78 C 150.16 152.78 149.12 153.83 149.12 155.12 Z M 149.12 156.11 L 149.12 157.10 C 149.12 158.39 150.17 159.43 151.46 159.43 C 152.74 159.43 153.79 158.39 153.79 157.10 L 153.79 156.11 C 153.79 154.82 152.74 153.78 151.46 153.78 C 150.17 153.78 149.12 154.82 149.12 156.11 Z M 149.13 157.10 L 149.13 158.10 C 149.13 159.38 150.17 160.42 151.46 160.42 C 152.74 160.42 153.78 159.38 153.78 158.10 L 153.78 157.10 C 153.78 155.82 152.74 154.78 151.46 154.78 C 150.17 154.78 149.13 155.82 149.13 157.10 Z M 149.14 158.10 L 149.14 159.10 C 149.14 160.38 150.18 161.42 151.46 161.42 C 152.74 161.42 153.77 160.38 153.77 159.10 L 153.77 158.10 C 153.77 156.82 152.74 155.78 151.46 155.78 C 150.18 155.78 149.14 156.82 149.14 158.10 Z M 149.15 159.10 L 149.15 160.11 C 149.15 161.38 150.18 162.42 151.46 162.42 C 152.73 162.42 153.77 161.38 153.77 160.11 L 153.77 159.10 C 153.77 157.82 152.73 156.79 151.46 156.79 C 150.18 156.79 149.15 157.82 149.15 159.10 Z M 149.15 160.11 L 149.15 161.11 C 149.15 162.38 150.18 163.41 151.46 163.41 C 152.73 163.41 153.76 162.38 153.76 161.11 L 153.76 160.11 C 153.76 158.84 152.73 157.81 151.46 157.81 C 150.18 157.81 149.15 158.84 149.15 160.11 Z M 149.16 161.11 L 149.16 162.11 C 149.16 163.37 150.19 164.40 151.46 164.40 C 152.72 164.40 153.75 163.37 153.75 162.11 L 153.75 161.11 C 153.75 159.84 152.72 158.82 151.46 158.82 C 150.19 158.82 149.16 159.84 149.16 161.11 Z M 149.17 162.11 L 149.17 163.11 C 149.17 164.37 150.19 165.39 151.46 165.39 C 152.72 165.39 153.74 164.37 153.74 163.11 L 153.74 162.11 C 153.74 160.84 152.72 159.82 151.46 159.82 C 150.19 159.82 149.17 160.84 149.17 162.11 Z M 149.18 163.11 L 149.18 164.11 C 149.18 165.37 150.20 166.39 151.46 166.39 C 152.71 166.39 153.74 165.37 153.74 164.11 L 153.74 163.11 C 153.74 161.85 152.71 160.83 151.46 160.83 C 150.20 160.83 149.18 161.85 149.18 163.11 Z M 149.18 164.11 L 149.18 165.11 C 149.18 166.37 150.20 167.39 151.46 167.39 C 152.71 167.39 153.73 166.37 153.73 165.11 L 153.73 164.11 C 153.73 162.85 152.71 161.84 151.46 161.84 C 150.20 161.84 149.18 162.85 149.18 164.11 Z M 149.19 165.11 L 149.19 166.12 C 149.19 167.37 150.21 168.38 151.46 168.38 C 152.71 168.38 153.72 167.37 153.72 166.12 L 153.72 165.11 C 153.72 163.86 152.71 162.85 151.46 162.85 C 150.21 162.85 149.19 163.86 149.19 165.11 Z M 149.20 166.12 L 149.20 167.12 C 149.20 168.36 150.21 169.37 151.46 169.37 C 152.70 169.37 153.71 168.36 153.71 167.12 L 153.71 166.12 C 153.71 164.87 152.70 163.86 151.46 163.86 C 150.21 163.86 149.20 164.87 149.20 166.12 Z M 149.21 167.12 L 149.21 168.12 C 149.21 169.36 150.21 170.36 151.46 170.36 C 152.70 170.36 153.70 169.36 153.70 168.12 L 153.70 167.12 C 153.70 165.87 152.70 164.87 151.46 164.87 C 150.21 164.87 149.21 165.87 149.21 167.12 Z M 149.21 168.12 L 149.21 169.12 C 149.21 170.35 150.22 171.36 151.46 171.36 C 152.69 171.36 153.70 170.35 153.70 169.12 L 153.70 168.12 C 153.70 166.88 152.69 165.87 151.46 165.87 C 150.22 165.87 149.21 166.88 149.21 168.12 Z M 149.22 169.12 L 149.22 170.12 C 149.22 171.35 150.22 172.35 151.46 172.35 C 152.69 172.35 153.69 171.35 153.69 170.12 L 153.69 169.12 C 153.69 167.88 152.69 166.88 151.46 166.88 C 150.22 166.88 149.22 167.88 149.22 169.12 Z M 149.23 170.12 L 149.23 171.10 C 149.23 172.33 150.23 173.33 151.46 173.33 C 152.69 173.33 153.68 172.33 153.68 171.10 L 153.68 170.12 C 153.68 168.89 152.69 167.89 151.46 167.89 C 150.23 167.89 149.23 168.89 149.23 170.12 Z M 149.24 171.10 L 149.24 172.09 C 149.24 173.32 150.23 174.31 151.46 174.31 C 152.68 174.31 153.67 173.32 153.67 172.09 L 153.67 171.10 C 153.67 169.88 152.68 168.89 151.46 168.89 C 150.23 168.89 149.24 169.88 149.24 171.10 Z M 149.25 172.09 L 149.25 173.09 C 149.25 174.31 150.24 175.30 151.46 175.30 C 152.68 175.30 153.67 174.31 153.67 173.09 L 153.67 172.09 C 153.67 170.87 152.68 169.88 151.46 169.88 C 150.24 169.88 149.25 170.87 149.25 172.09 Z M 149.25 173.09 L 149.25 174.09 C 149.25 175.31 150.24 176.29 151.46 176.29 C 152.67 176.29 153.66 175.31 153.66 174.09 L 153.66 173.09 C 153.66 171.87 152.67 170.88 151.46 170.88 C 150.24 170.88 149.25 171.87 149.25 173.09 Z M 149.26 174.09 L 149.26 175.11 C 149.26 176.32 150.24 177.30 151.46 177.30 C 152.67 177.30 153.65 176.32 153.65 175.11 L 153.65 174.09 C 153.65 172.88 152.67 171.89 151.46 171.89 C 150.24 171.89 149.26 172.88 149.26 174.09 Z M 149.27 175.11 L 149.27 176.13 C 149.27 177.34 150.25 178.32 151.46 178.32 C 152.66 178.32 153.64 177.34 153.64 176.13 L 153.64 175.11 C 153.64 173.90 152.66 172.92 151.46 172.92 C 150.25 172.92 149.27 173.90 149.27 175.11 Z M 149.28 176.13 L 149.27 177.15 C 149.27 178.35 150.25 179.33 151.45 179.33 C 152.65 179.34 153.63 178.36 153.63 177.16 L 153.64 176.13 C 153.64 174.93 152.66 173.95 151.46 173.95 C 150.26 173.95 149.28 174.92 149.28 176.13 Z M 149.28 177.14 L 149.28 178.16 C 149.27 179.36 150.24 180.34 151.44 180.35 C 152.64 180.35 153.61 179.39 153.62 178.19 L 153.63 177.17 C 153.63 175.97 152.67 174.99 151.47 174.98 C 150.27 174.98 149.29 175.94 149.28 177.14 Z M 149.28 178.15 L 149.27 179.15 C 149.26 180.34 150.21 181.32 151.41 181.34 C 152.61 181.35 153.59 180.40 153.60 179.20 L 153.61 178.20 C 153.63 177.00 152.67 176.02 151.47 176.01 C 150.28 176.00 149.30 176.95 149.28 178.15 Z M 149.28 179.13 L 149.26 180.09 C 149.23 181.29 150.18 182.27 151.37 182.30 C 152.56 182.32 153.55 181.38 153.57 180.19 L 153.59 179.22 C 153.62 178.03 152.67 177.04 151.48 177.02 C 150.29 176.99 149.30 177.94 149.28 179.13 Z M 149.27 180.06 L 149.23 181.09 C 149.19 182.28 150.12 183.28 151.30 183.32 C 152.49 183.36 153.49 182.43 153.53 181.25 L 153.56 180.22 C 153.61 179.03 152.68 178.03 151.49 177.99 C 150.30 177.95 149.31 178.88 149.27 180.06 Z M 149.24 181.06 L 149.19 182.10 C 149.13 183.28 150.04 184.29 151.22 184.35 C 152.40 184.41 153.40 183.50 153.46 182.32 L 153.52 181.28 C 153.58 180.10 152.67 179.09 151.49 179.03 C 150.31 178.97 149.30 179.88 149.24 181.06 Z M 149.20 182.07 L 149.14 183.06 C 149.06 184.23 149.95 185.24 151.13 185.32 C 152.30 185.40 153.31 184.51 153.39 183.33 L 153.45 182.35 C 153.53 181.17 152.64 180.16 151.46 180.08 C 150.29 180.01 149.28 180.90 149.20 182.07 Z M 149.15 183.04 L 149.08 183.99 C 148.99 185.16 149.87 186.17 151.04 186.26 C 152.20 186.35 153.22 185.47 153.31 184.30 L 153.38 183.35 C 153.46 182.18 152.59 181.17 151.42 181.08 C 150.25 180.99 149.23 181.87 149.15 183.04 Z M 149.09 183.98 L 149.01 184.96 C 148.92 186.12 149.79 187.13 150.95 187.22 C 152.11 187.32 153.13 186.45 153.22 185.28 L 153.30 184.31 C 153.39 183.15 152.52 182.13 151.36 182.04 C 150.19 181.95 149.18 182.82 149.09 183.98 Z M 149.02 184.95 L 148.94 185.98 C 148.85 187.13 149.71 188.14 150.87 188.24 C 152.02 188.33 153.03 187.47 153.13 186.31 L 153.21 185.29 C 153.30 184.13 152.44 183.12 151.28 183.03 C 150.13 182.94 149.12 183.80 149.02 184.95 Z M 148.96 185.98 L 148.87 186.98 C 148.78 188.12 149.64 189.13 150.78 189.22 C 151.93 189.32 152.94 188.46 153.03 187.31 L 153.11 186.31 C 153.21 185.16 152.35 184.16 151.20 184.07 C 150.06 183.97 149.05 184.83 148.96 185.98 Z M 148.89 186.97 L 148.81 187.94 C 148.71 189.08 149.56 190.09 150.70 190.18 C 151.84 190.28 152.84 189.43 152.94 188.29 L 153.02 187.32 C 153.11 186.18 152.27 185.18 151.13 185.08 C 149.99 184.98 148.98 185.83 148.89 186.97 Z M 148.82 187.94 L 148.74 188.89 C 148.64 190.02 149.48 191.02 150.61 191.12 C 151.74 191.22 152.74 190.38 152.84 189.25 L 152.92 188.30 C 153.02 187.16 152.18 186.16 151.05 186.06 C 149.92 185.97 148.92 186.80 148.82 187.94 Z M 148.75 188.88 L 148.66 189.83 C 148.56 190.95 149.39 191.95 150.51 192.05 C 151.64 192.16 152.63 191.33 152.74 190.21 L 152.82 189.26 C 152.93 188.13 152.10 187.14 150.98 187.03 C 149.85 186.93 148.86 187.75 148.75 188.88 Z M 148.68 189.81 L 148.58 190.80 C 148.47 191.91 149.28 192.91 150.40 193.02 C 151.52 193.13 152.51 192.32 152.62 191.20 L 152.72 190.22 C 152.83 189.10 152.02 188.11 150.90 188.00 C 149.79 187.88 148.79 188.70 148.68 189.81 Z M 148.60 190.79 L 148.48 191.85 C 148.36 192.96 149.17 193.95 150.27 194.07 C 151.38 194.19 152.37 193.39 152.49 192.28 L 152.61 191.22 C 152.72 190.11 151.92 189.12 150.82 189.00 C 149.71 188.88 148.72 189.68 148.60 190.79 Z M 148.50 191.84 L 148.40 192.75 C 148.27 193.85 149.06 194.84 150.16 194.97 C 151.26 195.09 152.25 194.30 152.37 193.20 L 152.48 192.29 C 152.60 191.20 151.81 190.20 150.71 190.08 C 149.61 189.96 148.62 190.75 148.50 191.84 Z M 148.41 192.75 L 148.30 193.71 C 148.17 194.80 148.95 195.78 150.04 195.91 C 151.13 196.04 152.12 195.26 152.25 194.17 L 152.36 193.21 C 152.49 192.12 151.71 191.13 150.61 191.00 C 149.52 190.87 148.54 191.66 148.41 192.75 Z M 148.31 193.70 L 148.19 194.71 C 148.06 195.79 148.84 196.78 149.92 196.91 C 151.00 197.03 151.99 196.26 152.11 195.18 L 152.23 194.17 C 152.36 193.08 151.59 192.10 150.51 191.97 C 149.42 191.85 148.44 192.62 148.31 193.70 Z M 148.20 194.71 L 148.08 195.75 C 147.95 196.83 148.72 197.81 149.80 197.94 C 150.87 198.07 151.85 197.30 151.98 196.22 L 152.10 195.18 C 152.23 194.10 151.46 193.12 150.39 193.00 C 149.31 192.87 148.33 193.63 148.20 194.71 Z M 148.09 195.76 L 147.97 196.81 C 147.84 197.88 148.60 198.85 149.67 198.98 C 150.74 199.10 151.71 198.34 151.84 197.27 L 151.96 196.22 C 152.09 195.15 151.33 194.18 150.26 194.05 C 149.19 193.92 148.22 194.69 148.09 195.76 Z M 147.99 196.81 L 147.87 197.80 C 147.74 198.86 148.50 199.82 149.56 199.94 C 150.62 200.07 151.58 199.31 151.70 198.26 L 151.82 197.27 C 151.95 196.21 151.19 195.25 150.13 195.12 C 149.07 195.00 148.11 195.75 147.99 196.81 Z M 147.89 197.80 L 147.77 198.79 C 147.65 199.84 148.40 200.79 149.44 200.91 C 150.49 201.04 151.44 200.29 151.56 199.24 L 151.68 198.25 C 151.80 197.21 151.06 196.26 150.01 196.13 C 148.96 196.01 148.01 196.76 147.89 197.80 Z M 147.80 198.80 L 147.68 199.79 C 147.56 200.82 148.30 201.76 149.33 201.88 C 150.36 202.01 151.30 201.27 151.42 200.23 L 151.54 199.24 C 151.66 198.21 150.92 197.27 149.89 197.15 C 148.85 197.02 147.92 197.76 147.80 198.80 Z M 147.70 199.79 L 147.58 200.79 C 147.46 201.81 148.19 202.74 149.21 202.86 C 150.24 202.98 151.16 202.25 151.28 201.23 L 151.40 200.23 C 151.52 199.21 150.79 198.28 149.77 198.16 C 148.75 198.04 147.82 198.77 147.70 199.79 Z M 147.61 200.79 L 147.49 201.79 C 147.37 202.80 148.09 203.71 149.10 203.83 C 150.11 203.95 151.02 203.23 151.14 202.22 L 151.26 201.22 C 151.38 200.22 150.66 199.30 149.65 199.18 C 148.64 199.06 147.73 199.79 147.61 200.79 Z M 147.50 201.79 L 147.49 201.91 C 147.37 202.92 148.09 203.82 149.09 203.94 C 150.09 204.06 151.00 203.34 151.11 202.34 L 151.13 202.22 C 151.25 201.22 150.53 200.31 149.53 200.19 C 148.53 200.08 147.62 200.79 147.50 201.79 Z"
      fill="black"
      fill-rule="nonzero" /></svg>