<svg xmlns="http://www.w3.org/2000/svg" width="300" height="300" viewBox="0 0 300 300">
<path d="M 127.66 132.36 L 127.59 133.35 C 127.51 134.52 128.38 135.53 129.55 135.61 C 130.71 135.69 131.72 134.81 131.80 133.65 L 131.87 132.65 C 131.95 131.49 131.07 130.48 129.91 130.40 C 128.75 130.31 127.74 131.19 127.66 132.36 Z M 127.45 133.40 L 127.40 134.40 C 127.35 135.64 128.31 136.69 129.55 136.74 C 130.79 136.80 131.84 135.84 131.90 134.60 L 131.94 133.60 C 131.99 132.36 131.03 131.31 129.79 131.26 C 128.55 131.20 127.50 132.16 127.45 133.40 Z M 127.27 134.51 L 127.27 135.51 C 127.28 136.83 128.36 137.89 129.67 137.88 C 130.99 137.87 132.05 136.79 132.04 135.48 L 132.03 134.48 C 132.02 133.17 130.95 132.11 129.63 132.12 C 128.32 132.12 127.26 133.20 127.27 134.51 Z M 127.15 135.71 L 127.23 136.70 C 127.35 138.09 128.57 139.12 129.95 139.00 C 131.34 138.88 132.37 137.67 132.25 136.28 L 132.17 135.28 C 132.05 133.90 130.83 132.87 129.45 132.99 C 128.06 133.10 127.03 134.32 127.15 135.71 Z M 127.19 136.95 L 127.36 137.90 C 127.61 139.31 128.96 140.25 130.37 140.00 C 131.78 139.74 132.72 138.39 132.47 136.98 L 132.30 136.03 C 132.04 134.62 130.69 133.68 129.28 133.94 C 127.87 134.19 126.93 135.54 127.19 136.95 Z M 127.39 138.11 L 127.64 139.06 C 128.02 140.45 129.44 141.27 130.84 140.90 C 132.23 140.53 133.05 139.10 132.68 137.71 L 132.43 136.77 C 132.06 135.38 130.63 134.55 129.24 134.92 C 127.85 135.29 127.02 136.72 127.39 138.11 Z M 127.69 139.22 L 128.01 140.16 C 128.47 141.53 129.95 142.26 131.32 141.80 C 132.68 141.34 133.41 139.86 132.95 138.50 L 132.63 137.55 C 132.17 136.18 130.69 135.45 129.33 135.91 C 127.97 136.37 127.23 137.85 127.69 139.22 Z M 128.05 140.28 L 128.43 141.24 C 128.95 142.58 130.46 143.24 131.80 142.72 C 133.15 142.20 133.81 140.68 133.29 139.34 L 132.91 138.38 C 132.39 137.04 130.88 136.38 129.54 136.90 C 128.19 137.43 127.53 138.94 128.05 140.28 Z M 128.46 141.31 L 128.87 142.27 C 129.43 143.60 130.96 144.21 132.29 143.65 C 133.61 143.09 134.23 141.55 133.66 140.23 L 133.25 139.27 C 132.69 137.94 131.16 137.33 129.84 137.89 C 128.51 138.46 127.90 139.99 128.46 141.31 Z M 128.89 142.31 L 129.32 143.27 C 129.90 144.58 131.44 145.17 132.76 144.58 C 134.07 143.99 134.65 142.45 134.07 141.14 L 133.64 140.19 C 133.05 138.88 131.51 138.29 130.20 138.88 C 128.89 139.46 128.30 141.00 128.89 142.31 Z M 129.33 143.29 L 129.77 144.23 C 130.37 145.53 131.91 146.10 133.21 145.50 C 134.52 144.90 135.08 143.35 134.48 142.05 L 134.05 141.11 C 133.45 139.81 131.90 139.24 130.60 139.85 C 129.30 140.45 128.73 141.99 129.33 143.29 Z M 129.78 144.24 L 130.20 145.14 C 130.81 146.44 132.36 146.99 133.65 146.39 C 134.95 145.78 135.50 144.23 134.89 142.94 L 134.47 142.04 C 133.86 140.74 132.32 140.19 131.02 140.79 C 129.73 141.40 129.17 142.95 129.78 144.24 Z M 130.21 145.14 L 130.61 145.98 C 131.22 147.28 132.76 147.83 134.05 147.22 C 135.34 146.61 135.89 145.07 135.28 143.78 L 134.89 142.94 C 134.28 141.65 132.74 141.09 131.45 141.70 C 130.15 142.31 129.60 143.85 130.21 145.14 Z M 130.61 145.97 L 131.06 146.94 C 131.66 148.23 133.19 148.79 134.48 148.19 C 135.78 147.59 136.34 146.06 135.74 144.77 L 135.28 143.80 C 134.68 142.51 133.15 141.95 131.86 142.55 C 130.57 143.15 130.01 144.68 130.61 145.97 Z M 131.07 146.93 L 131.48 147.84 C 132.07 149.12 133.60 149.69 134.89 149.10 C 136.17 148.51 136.74 146.98 136.15 145.69 L 135.73 144.79 C 135.14 143.50 133.61 142.93 132.33 143.52 C 131.04 144.12 130.47 145.64 131.07 146.93 Z M 131.50 147.84 L 131.89 148.69 C 132.48 149.97 134.00 150.53 135.28 149.94 C 136.56 149.35 137.12 147.83 136.53 146.55 L 136.14 145.69 C 135.54 144.41 134.03 143.85 132.74 144.45 C 131.46 145.04 130.90 146.56 131.50 147.84 Z M 131.91 148.71 L 132.31 149.56 C 132.91 150.83 134.43 151.37 135.70 150.77 C 136.97 150.17 137.51 148.65 136.91 147.38 L 136.51 146.53 C 135.91 145.26 134.39 144.72 133.12 145.32 C 131.85 145.92 131.31 147.44 131.91 148.71 Z M 132.33 149.57 L 132.75 150.44 C 133.36 151.70 134.87 152.23 136.13 151.62 C 137.39 151.01 137.92 149.49 137.31 148.23 L 136.89 147.36 C 136.28 146.10 134.77 145.58 133.51 146.19 C 132.25 146.80 131.72 148.31 132.33 149.57 Z M 132.75 150.43 L 133.19 151.34 C 133.80 152.60 135.31 153.12 136.57 152.51 C 137.82 151.91 138.35 150.39 137.74 149.14 L 137.30 148.23 C 136.70 146.98 135.19 146.45 133.93 147.06 C 132.67 147.67 132.15 149.18 132.75 150.43 Z M 133.19 151.32 L 133.65 152.28 C 134.24 153.53 135.75 154.07 137.00 153.47 C 138.26 152.87 138.79 151.37 138.20 150.11 L 137.74 149.16 C 137.15 147.90 135.64 147.37 134.39 147.96 C 133.13 148.56 132.59 150.06 133.19 151.32 Z M 133.64 152.25 L 134.05 153.13 C 134.63 154.39 136.12 154.94 137.38 154.36 C 138.64 153.78 139.19 152.29 138.61 151.03 L 138.20 150.15 C 137.62 148.89 136.13 148.33 134.87 148.91 C 133.61 149.49 133.06 150.99 133.64 152.25 Z M 134.05 153.10 L 134.45 154.01 C 135.02 155.27 136.49 155.84 137.76 155.28 C 139.02 154.71 139.58 153.23 139.02 151.97 L 138.61 151.06 C 138.05 149.80 136.57 149.23 135.31 149.80 C 134.05 150.36 133.48 151.84 134.05 153.10 Z M 134.45 153.98 L 134.85 154.91 C 135.40 156.17 136.86 156.76 138.13 156.21 C 139.39 155.66 139.97 154.20 139.43 152.94 L 139.02 152.00 C 138.48 150.74 137.01 150.16 135.75 150.71 C 134.49 151.25 133.90 152.72 134.45 153.98 Z M 134.85 154.88 L 135.24 155.82 C 135.77 157.08 137.22 157.68 138.49 157.15 C 139.75 156.62 140.35 155.17 139.82 153.91 L 139.43 152.97 C 138.90 151.70 137.45 151.11 136.18 151.63 C 134.92 152.16 134.32 153.62 134.85 154.88 Z M 135.24 155.78 L 135.62 156.72 C 136.13 157.99 137.56 158.60 138.83 158.09 C 140.10 157.58 140.71 156.14 140.20 154.88 L 139.82 153.94 C 139.31 152.67 137.87 152.06 136.61 152.57 C 135.34 153.08 134.73 154.52 135.24 155.78 Z M 135.62 156.70 L 135.99 157.63 C 136.48 158.89 137.91 159.52 139.17 159.02 C 140.43 158.52 141.06 157.10 140.56 155.84 L 140.20 154.90 C 139.70 153.64 138.27 153.02 137.01 153.51 C 135.75 154.01 135.13 155.43 135.62 156.70 Z M 136.00 157.62 L 136.36 158.54 C 136.84 159.80 138.26 160.43 139.52 159.94 C 140.78 159.45 141.40 158.03 140.91 156.78 L 140.55 155.85 C 140.06 154.59 138.65 153.97 137.39 154.45 C 136.13 154.94 135.51 156.36 136.00 157.62 Z M 136.37 158.55 L 136.73 159.47 C 137.22 160.72 138.63 161.34 139.88 160.85 C 141.13 160.36 141.75 158.95 141.26 157.70 L 140.90 156.77 C 140.41 155.52 139.00 154.91 137.75 155.40 C 136.50 155.88 135.88 157.30 136.37 158.55 Z M 136.75 159.48 L 137.12 160.41 C 137.62 161.65 139.03 162.25 140.27 161.76 C 141.51 161.26 142.11 159.86 141.61 158.62 L 141.24 157.69 C 140.74 156.45 139.34 155.84 138.10 156.34 C 136.86 156.84 136.26 158.24 136.75 159.48 Z M 137.15 160.42 L 137.53 161.35 C 138.03 162.58 139.43 163.17 140.66 162.66 C 141.88 162.16 142.47 160.76 141.97 159.53 L 141.59 158.61 C 141.09 157.38 139.69 156.79 138.46 157.29 C 137.23 157.80 136.64 159.20 137.15 160.42 Z M 137.55 161.36 L 137.93 162.28 C 138.44 163.50 139.84 164.07 141.05 163.57 C 142.26 163.06 142.84 161.66 142.33 160.45 L 141.95 159.53 C 141.44 158.31 140.05 157.74 138.83 158.24 C 137.62 158.75 137.04 160.14 137.55 161.36 Z M 137.95 162.29 L 138.34 163.20 C 138.85 164.41 140.24 164.97 141.44 164.46 C 142.65 163.95 143.21 162.56 142.70 161.36 L 142.31 160.44 C 141.80 159.24 140.41 158.68 139.21 159.19 C 138.01 159.70 137.44 161.08 137.95 162.29 Z M 138.36 163.21 L 138.76 164.14 C 139.27 165.34 140.65 165.89 141.84 165.38 C 143.04 164.87 143.59 163.49 143.08 162.30 L 142.68 161.36 C 142.17 160.17 140.79 159.61 139.60 160.12 C 138.41 160.63 137.85 162.01 138.36 163.21 Z M 138.78 164.14 L 139.18 165.07 C 139.69 166.25 141.06 166.79 142.24 166.28 C 143.42 165.78 143.97 164.41 143.46 163.23 L 143.06 162.30 C 142.55 161.12 141.18 160.58 140.00 161.08 C 138.82 161.59 138.28 162.96 138.78 164.14 Z M 139.20 165.06 L 139.60 165.97 C 140.10 167.14 141.46 167.68 142.63 167.18 C 143.80 166.67 144.34 165.31 143.83 164.14 L 143.44 163.23 C 142.93 162.06 141.57 161.53 140.41 162.03 C 139.24 162.54 138.70 163.89 139.20 165.06 Z M 139.62 165.97 L 140.00 166.86 C 140.50 168.01 141.85 168.55 143.01 168.05 C 144.17 167.55 144.70 166.20 144.20 165.04 L 143.81 164.15 C 143.31 162.99 141.97 162.46 140.81 162.96 C 139.65 163.46 139.12 164.81 139.62 165.97 Z M 140.02 166.85 L 140.39 167.70 C 140.89 168.85 142.22 169.38 143.37 168.88 C 144.52 168.39 145.04 167.06 144.55 165.91 L 144.18 165.05 C 143.68 163.90 142.35 163.37 141.20 163.87 C 140.05 164.37 139.53 165.70 140.02 166.85 Z M 140.42 167.70 L 140.80 168.58 C 141.30 169.72 142.62 170.23 143.75 169.74 C 144.89 169.24 145.40 167.92 144.91 166.79 L 144.52 165.91 C 144.03 164.77 142.71 164.26 141.57 164.75 C 140.44 165.25 139.92 166.57 140.42 167.70 Z M 140.83 168.59 L 141.25 169.52 C 141.75 170.64 143.06 171.14 144.18 170.64 C 145.30 170.14 145.80 168.83 145.30 167.71 L 144.88 166.78 C 144.38 165.66 143.07 165.16 141.95 165.66 C 140.83 166.16 140.33 167.47 140.83 168.59 Z M 141.28 169.53 L 141.72 170.51 C 142.23 171.62 143.54 172.10 144.64 171.59 C 145.74 171.09 146.22 169.78 145.72 168.68 L 145.27 167.70 C 144.76 166.60 143.46 166.12 142.36 166.62 C 141.25 167.13 140.77 168.43 141.28 169.53 Z M 141.75 170.53 L 142.17 171.41 C 142.68 172.49 143.98 172.96 145.06 172.45 C 146.15 171.93 146.62 170.64 146.11 169.55 L 145.69 168.67 C 145.18 167.58 143.88 167.12 142.79 167.63 C 141.71 168.14 141.24 169.44 141.75 170.53 Z M 142.19 171.42 L 142.64 172.34 C 143.16 173.41 144.45 173.86 145.52 173.34 C 146.60 172.82 147.04 171.52 146.52 170.45 L 146.08 169.54 C 145.56 168.46 144.27 168.02 143.19 168.54 C 142.12 169.06 141.67 170.35 142.19 171.42 Z M 142.67 172.36 L 143.13 173.28 C 143.66 174.33 144.95 174.76 146.01 174.23 C 147.06 173.70 147.49 172.41 146.96 171.36 L 146.49 170.43 C 145.96 169.38 144.68 168.95 143.62 169.48 C 142.56 170.01 142.14 171.30 142.67 172.36 Z M 143.17 173.30 L 143.64 174.20 C 144.18 175.24 145.46 175.64 146.50 175.09 C 147.54 174.55 147.94 173.26 147.39 172.23 L 146.92 171.33 C 146.38 170.29 145.10 169.89 144.06 170.44 C 143.02 170.98 142.62 172.27 143.17 173.30 Z M 143.68 174.24 L 144.22 175.19 C 144.78 176.20 146.06 176.57 147.07 176.00 C 148.08 175.43 148.45 174.15 147.88 173.14 L 147.35 172.19 C 146.78 171.18 145.50 170.82 144.49 171.38 C 143.48 171.95 143.12 173.23 143.68 174.24 Z M 144.31 175.27 L 145.02 176.39 C 145.63 177.35 146.90 177.63 147.86 177.02 C 148.82 176.42 149.10 175.14 148.50 174.18 L 147.79 173.07 C 147.18 172.10 145.91 171.82 144.95 172.43 C 143.99 173.04 143.70 174.31 144.31 175.27 Z M 145.24 176.60 L 145.85 177.30 C 146.57 178.13 147.84 178.22 148.67 177.50 C 149.51 176.78 149.60 175.51 148.88 174.67 L 148.27 173.97 C 147.55 173.14 146.28 173.05 145.45 173.77 C 144.61 174.49 144.52 175.76 145.24 176.60 Z M 146.91 177.88 L 147.36 177.99 C 148.41 178.24 149.46 177.59 149.71 176.54 C 149.95 175.50 149.31 174.45 148.26 174.20 L 147.81 174.09 C 146.77 173.84 145.72 174.49 145.47 175.53 C 145.22 176.58 145.86 177.63 146.91 177.88 Z M 149.55 176.80 L 149.81 176.16 C 150.20 175.20 149.74 174.10 148.78 173.71 C 147.82 173.32 146.72 173.78 146.33 174.74 L 146.07 175.38 C 145.68 176.34 146.14 177.44 147.10 177.83 C 148.06 178.22 149.16 177.76 149.55 176.80 Z M 149.87 175.56 L 149.94 174.41 C 150.00 173.42 149.24 172.56 148.24 172.51 C 147.25 172.45 146.39 173.21 146.34 174.20 L 146.27 175.34 C 146.21 176.34 146.97 177.19 147.97 177.25 C 148.96 177.31 149.81 176.55 149.87 175.56 Z M 149.88 174.22 L 149.82 173.02 C 149.77 172.06 148.95 171.32 147.99 171.37 C 147.03 171.42 146.29 172.24 146.34 173.20 L 146.40 174.39 C 146.45 175.36 147.26 176.10 148.23 176.05 C 149.19 176.00 149.93 175.18 149.88 174.22 Z M 149.78 172.92 L 149.67 171.91 C 149.56 170.97 148.71 170.29 147.77 170.40 C 146.83 170.51 146.15 171.36 146.26 172.30 L 146.37 173.30 C 146.48 174.25 147.33 174.92 148.27 174.82 C 149.21 174.71 149.89 173.86 149.78 172.92 Z M 149.66 171.84 L 149.51 170.86 C 149.36 169.93 148.49 169.29 147.55 169.43 C 146.62 169.58 145.97 170.45 146.12 171.39 L 146.27 172.37 C 146.42 173.30 147.29 173.94 148.23 173.80 C 149.16 173.66 149.80 172.78 149.66 171.84 Z M 149.50 170.83 L 149.32 169.86 C 149.16 168.93 148.27 168.31 147.34 168.47 C 146.41 168.64 145.79 169.52 145.96 170.45 L 146.13 171.42 C 146.29 172.35 147.18 172.97 148.11 172.81 C 149.04 172.64 149.66 171.76 149.50 170.83 Z M 149.32 169.85 L 149.30 169.74 C 149.13 168.81 148.24 168.20 147.32 168.37 C 146.39 168.53 145.77 169.42 145.94 170.35 L 145.96 170.46 C 146.13 171.39 147.02 172.00 147.95 171.84 C 148.87 171.67 149.49 170.78 149.32 169.85 Z"
      fill="black"
      fill-rule="nonzero" /><path d="M 140.84 147.14 L 139.84 147.14 C 138.40 147.14 137.24 148.31 137.24 149.74 C 137.25 151.18 138.41 152.34 139.84 152.33 L 140.85 152.33 C 142.29 152.33 143.45 151.17 143.44 149.73 C 143.44 148.30 142.28 147.14 140.84 147.14 Z M 139.81 147.05 L 138.81 147.06 C 137.32 147.08 136.13 148.29 136.15 149.78 C 136.17 151.26 137.38 152.45 138.87 152.44 L 139.87 152.43 C 141.35 152.41 142.54 151.19 142.53 149.71 C 142.51 148.22 141.30 147.03 139.81 147.05 Z M 138.76 146.97 L 137.76 147.00 C 136.23 147.04 135.02 148.33 135.07 149.86 C 135.11 151.39 136.39 152.60 137.93 152.56 L 138.92 152.53 C 140.46 152.48 141.66 151.20 141.62 149.67 C 141.57 148.13 140.29 146.92 138.76 146.97 Z M 137.68 146.94 L 136.35 147.02 C 134.79 147.11 133.59 148.45 133.68 150.02 C 133.78 151.58 135.12 152.78 136.68 152.69 L 138.01 152.61 C 139.57 152.52 140.77 151.18 140.68 149.61 C 140.59 148.05 139.25 146.85 137.68 146.94 Z M 136.41 147.00 L 135.59 147.03 C 134.02 147.10 132.79 148.42 132.85 150.00 C 132.91 151.57 134.24 152.80 135.81 152.74 L 136.63 152.71 C 138.21 152.65 139.43 151.32 139.37 149.74 C 139.31 148.17 137.98 146.94 136.41 147.00 Z M 136.75 152.55 L 137.05 152.43 C 138.52 151.85 139.24 150.19 138.66 148.72 C 138.08 147.25 136.42 146.53 134.95 147.11 L 134.66 147.23 C 133.19 147.80 132.46 149.46 133.04 150.93 C 133.62 152.40 135.28 153.13 136.75 152.55 Z M 136.67 152.55 L 137.66 152.31 C 139.19 151.94 140.14 150.40 139.77 148.87 C 139.40 147.33 137.86 146.39 136.33 146.75 L 135.33 146.99 C 133.80 147.36 132.85 148.90 133.22 150.44 C 133.59 151.97 135.13 152.92 136.67 152.55 Z M 137.70 152.30 L 139.00 151.96 C 140.53 151.58 141.45 150.02 141.06 148.50 C 140.68 146.97 139.12 146.05 137.60 146.43 L 136.29 146.77 C 134.76 147.16 133.84 148.71 134.23 150.24 C 134.62 151.76 136.17 152.69 137.70 152.30 Z M 139.11 151.93 L 139.99 151.66 C 141.50 151.22 142.35 149.64 141.91 148.13 C 141.46 146.63 139.88 145.77 138.38 146.21 L 137.49 146.47 C 135.99 146.92 135.13 148.50 135.57 150.01 C 136.02 151.51 137.60 152.37 139.11 151.93 Z M 140.08 151.62 L 140.97 151.32 C 142.45 150.83 143.25 149.23 142.76 147.75 C 142.27 146.27 140.66 145.47 139.18 145.96 L 138.29 146.26 C 136.81 146.75 136.01 148.35 136.50 149.83 C 136.99 151.31 138.59 152.11 140.08 151.62 Z M 141.03 151.28 L 141.98 150.94 C 143.44 150.41 144.20 148.80 143.67 147.34 C 143.14 145.88 141.53 145.13 140.07 145.65 L 139.12 146.00 C 137.66 146.53 136.91 148.14 137.43 149.60 C 137.96 151.06 139.58 151.81 141.03 151.28 Z M 142.02 150.91 L 143.06 150.51 C 144.51 149.96 145.23 148.34 144.68 146.90 C 144.13 145.46 142.51 144.74 141.07 145.29 L 140.03 145.69 C 138.59 146.24 137.86 147.85 138.41 149.29 C 138.97 150.74 140.58 151.46 142.02 150.91 Z M 143.08 150.49 L 143.97 150.14 C 145.40 149.58 146.10 147.97 145.54 146.54 C 144.98 145.11 143.37 144.40 141.94 144.96 L 141.05 145.31 C 139.62 145.87 138.92 147.48 139.48 148.91 C 140.04 150.34 141.65 151.05 143.08 150.49 Z M 143.98 150.13 L 144.90 149.76 C 146.32 149.20 147.01 147.58 146.45 146.16 C 145.88 144.74 144.27 144.04 142.85 144.61 L 141.93 144.97 C 140.51 145.54 139.81 147.15 140.38 148.58 C 140.94 150.00 142.55 150.69 143.98 150.13 Z M 144.90 149.75 L 145.85 149.37 C 147.27 148.80 147.96 147.19 147.39 145.77 C 146.82 144.36 145.21 143.67 143.79 144.24 L 142.84 144.62 C 141.43 145.19 140.74 146.80 141.31 148.21 C 141.87 149.63 143.48 150.32 144.90 149.75 Z M 145.86 149.36 L 146.82 148.97 C 148.23 148.40 148.91 146.80 148.34 145.38 C 147.77 143.97 146.16 143.29 144.75 143.86 L 143.79 144.25 C 142.38 144.82 141.70 146.42 142.27 147.84 C 142.84 149.25 144.44 149.93 145.86 149.36 Z M 146.82 148.96 L 147.76 148.58 C 149.17 148.01 149.84 146.41 149.27 145.00 C 148.70 143.60 147.10 142.92 145.70 143.49 L 144.75 143.87 C 143.34 144.44 142.67 146.04 143.24 147.45 C 143.81 148.85 145.41 149.53 146.82 148.96 Z M 147.76 148.57 L 148.72 148.18 C 150.12 147.61 150.80 146.01 150.23 144.61 C 149.66 143.21 148.06 142.54 146.66 143.10 L 145.70 143.50 C 144.30 144.07 143.62 145.66 144.19 147.06 C 144.76 148.47 146.36 149.14 147.76 148.57 Z M 148.72 148.17 L 149.69 147.77 C 151.08 147.21 151.76 145.62 151.19 144.22 C 150.63 142.83 149.04 142.16 147.64 142.72 L 146.67 143.12 C 145.27 143.68 144.60 145.27 145.17 146.67 C 145.73 148.06 147.32 148.73 148.72 148.17 Z M 149.68 147.76 L 150.61 147.39 C 152.00 146.83 152.67 145.25 152.11 143.86 C 151.55 142.47 149.97 141.80 148.58 142.36 L 147.65 142.73 C 146.26 143.29 145.59 144.87 146.15 146.26 C 146.71 147.65 148.29 148.32 149.68 147.76 Z M 150.59 147.38 L 151.49 147.03 C 152.88 146.48 153.55 144.91 153.00 143.52 C 152.45 142.13 150.88 141.46 149.50 142.01 L 148.60 142.37 C 147.21 142.92 146.53 144.48 147.08 145.87 C 147.64 147.26 149.20 147.93 150.59 147.38 Z M 151.47 147.02 L 152.35 146.67 C 153.74 146.14 154.42 144.58 153.88 143.20 C 153.34 141.81 151.79 141.13 150.40 141.67 L 149.52 142.01 C 148.14 142.55 147.45 144.11 147.99 145.49 C 148.53 146.87 150.09 147.56 151.47 147.02 Z M 152.33 146.67 L 153.25 146.32 C 154.63 145.80 155.32 144.25 154.80 142.87 C 154.28 141.49 152.73 140.80 151.35 141.32 L 150.43 141.67 C 149.05 142.20 148.36 143.74 148.88 145.12 C 149.40 146.50 150.95 147.19 152.33 146.67 Z M 153.22 146.32 L 154.16 145.97 C 155.54 145.46 156.25 143.93 155.74 142.55 C 155.23 141.17 153.70 140.47 152.32 140.98 L 151.38 141.32 C 150.00 141.83 149.29 143.37 149.80 144.74 C 150.31 146.12 151.84 146.83 153.22 146.32 Z M 154.14 145.97 L 155.09 145.63 C 156.46 145.13 157.18 143.61 156.68 142.23 C 156.18 140.86 154.66 140.14 153.28 140.64 L 152.34 140.98 C 150.96 141.48 150.25 143.00 150.75 144.37 C 151.24 145.75 152.76 146.47 154.14 145.97 Z M 155.07 145.63 L 156.01 145.29 C 157.38 144.81 158.11 143.30 157.62 141.92 C 157.13 140.54 155.62 139.82 154.25 140.31 L 153.30 140.64 C 151.93 141.13 151.21 142.64 151.69 144.01 C 152.18 145.39 153.69 146.11 155.07 145.63 Z M 155.99 145.29 L 156.93 144.96 C 158.31 144.48 159.03 142.98 158.56 141.61 C 158.08 140.24 156.58 139.51 155.21 139.99 L 154.26 140.31 C 152.89 140.79 152.16 142.29 152.64 143.66 C 153.12 145.04 154.62 145.77 155.99 145.29 Z M 156.92 144.96 L 157.88 144.63 C 159.26 144.16 159.99 142.67 159.52 141.30 C 159.05 139.93 157.56 139.19 156.19 139.66 L 155.22 139.99 C 153.85 140.46 153.12 141.95 153.59 143.32 C 154.06 144.69 155.55 145.42 156.92 144.96 Z M 157.87 144.62 L 158.82 144.30 C 160.19 143.84 160.93 142.36 160.47 141.00 C 160.01 139.63 158.54 138.89 157.17 139.35 L 156.21 139.67 C 154.84 140.12 154.10 141.60 154.56 142.97 C 155.02 144.34 156.50 145.08 157.87 144.62 Z M 158.80 144.30 L 159.75 143.99 C 161.11 143.54 161.86 142.08 161.41 140.71 C 160.97 139.35 159.50 138.60 158.14 139.04 L 157.19 139.35 C 155.82 139.80 155.08 141.26 155.52 142.63 C 155.97 143.99 157.43 144.74 158.80 144.30 Z M 159.72 143.98 L 160.65 143.69 C 162.01 143.26 162.77 141.81 162.34 140.44 C 161.91 139.08 160.46 138.32 159.09 138.75 L 158.16 139.05 C 156.80 139.48 156.04 140.93 156.47 142.29 C 156.90 143.66 158.36 144.41 159.72 143.98 Z M 160.62 143.69 L 161.56 143.41 C 162.92 142.99 163.69 141.55 163.28 140.19 C 162.86 138.83 161.42 138.06 160.06 138.47 L 159.12 138.75 C 157.76 139.17 156.99 140.61 157.40 141.97 C 157.82 143.33 159.26 144.10 160.62 143.69 Z M 161.52 143.41 L 162.46 143.14 C 163.82 142.74 164.61 141.32 164.22 139.96 C 163.83 138.59 162.40 137.81 161.04 138.20 L 160.10 138.47 C 158.74 138.86 157.95 140.28 158.34 141.65 C 158.73 143.01 160.16 143.80 161.52 143.41 Z M 162.41 143.14 L 163.37 142.88 C 164.74 142.52 165.55 141.11 165.18 139.75 C 164.81 138.38 163.41 137.57 162.04 137.94 L 161.09 138.19 C 159.72 138.56 158.91 139.97 159.28 141.33 C 159.64 142.70 161.05 143.51 162.41 143.14 Z M 163.32 142.89 L 164.31 142.64 C 165.68 142.30 166.51 140.92 166.18 139.55 C 165.84 138.18 164.45 137.35 163.09 137.69 L 162.09 137.93 C 160.73 138.27 159.89 139.66 160.23 141.02 C 160.57 142.39 161.95 143.23 163.32 142.89 Z M 164.26 142.65 L 165.26 142.43 C 166.63 142.11 167.49 140.75 167.18 139.38 C 166.87 138.00 165.50 137.14 164.13 137.45 L 163.14 137.68 C 161.76 137.99 160.90 139.36 161.21 140.73 C 161.52 142.10 162.89 142.96 164.26 142.65 Z M 165.21 142.44 L 166.21 142.24 C 167.59 141.95 168.48 140.60 168.20 139.22 C 167.91 137.84 166.56 136.95 165.18 137.23 L 164.18 137.44 C 162.80 137.72 161.91 139.07 162.19 140.46 C 162.48 141.84 163.83 142.73 165.21 142.44 Z M 166.16 142.26 L 167.17 142.07 C 168.56 141.82 169.49 140.48 169.23 139.08 C 168.97 137.69 167.63 136.76 166.24 137.02 L 165.23 137.21 C 163.83 137.46 162.91 138.80 163.17 140.20 C 163.43 141.59 164.77 142.52 166.16 142.26 Z M 167.11 142.10 L 168.10 141.94 C 169.51 141.72 170.47 140.39 170.24 138.99 C 170.02 137.58 168.70 136.62 167.29 136.84 L 166.30 137.00 C 164.89 137.22 163.93 138.55 164.15 139.95 C 164.38 141.36 165.70 142.32 167.11 142.10 Z M 168.02 141.96 L 168.97 141.84 C 170.40 141.66 171.40 140.36 171.22 138.94 C 171.04 137.52 169.74 136.51 168.32 136.70 L 167.36 136.82 C 165.94 137.00 164.94 138.30 165.12 139.72 C 165.30 141.14 166.60 142.15 168.02 141.96 Z M 168.83 141.89 L 170.01 141.81 C 171.46 141.71 172.55 140.45 172.45 139.01 C 172.35 137.56 171.09 136.46 169.64 136.56 L 168.46 136.64 C 167.01 136.74 165.92 138.00 166.02 139.45 C 166.12 140.90 167.38 141.99 168.83 141.89 Z M 169.61 141.87 L 170.61 141.95 C 172.09 142.07 173.39 140.96 173.51 139.48 C 173.62 138.00 172.52 136.70 171.04 136.58 L 170.04 136.50 C 168.56 136.39 167.26 137.49 167.14 138.97 C 167.03 140.46 168.13 141.75 169.61 141.87 Z M 169.80 141.82 L 170.57 142.13 C 171.98 142.70 173.59 142.02 174.15 140.61 C 174.72 139.20 174.04 137.60 172.63 137.03 L 171.85 136.71 C 170.44 136.15 168.84 136.83 168.27 138.24 C 167.70 139.65 168.39 141.25 169.80 141.82 Z M 169.49 141.42 L 170.00 142.01 C 171.01 143.17 172.78 143.30 173.95 142.28 C 175.12 141.27 175.24 139.50 174.23 138.33 L 173.72 137.74 C 172.70 136.58 170.93 136.45 169.77 137.46 C 168.60 138.48 168.47 140.25 169.49 141.42 Z M 169.44 141.11 L 169.74 141.96 C 170.26 143.44 171.88 144.22 173.35 143.70 C 174.83 143.18 175.61 141.56 175.09 140.08 L 174.79 139.23 C 174.27 137.75 172.65 136.97 171.17 137.49 C 169.70 138.01 168.92 139.63 169.44 141.11 Z M 169.57 141.42 L 169.72 142.49 C 169.94 144.06 171.39 145.15 172.96 144.93 C 174.53 144.71 175.62 143.26 175.40 141.69 L 175.25 140.62 C 175.03 139.05 173.58 137.96 172.02 138.18 C 170.45 138.40 169.35 139.85 169.57 141.42 Z M 169.67 142.23 L 169.73 143.36 C 169.81 144.96 171.16 146.19 172.76 146.11 C 174.36 146.03 175.59 144.68 175.51 143.08 L 175.45 141.95 C 175.38 140.35 174.02 139.12 172.42 139.20 C 170.83 139.28 169.59 140.64 169.67 142.23 Z M 169.71 143.25 L 169.72 144.20 C 169.74 145.81 171.05 147.10 172.66 147.08 C 174.26 147.07 175.55 145.75 175.54 144.15 L 175.53 143.19 C 175.51 141.59 174.19 140.30 172.59 140.31 C 170.98 140.33 169.69 141.64 169.71 143.25 Z M 169.72 144.12 L 169.70 145.12 C 169.67 146.72 170.94 148.05 172.55 148.08 C 174.16 148.12 175.49 146.84 175.52 145.23 L 175.54 144.23 C 175.57 142.63 174.29 141.30 172.69 141.26 C 171.08 141.23 169.75 142.51 169.72 144.12 Z M 169.70 145.02 L 169.65 146.05 C 169.56 147.66 170.80 149.03 172.41 149.11 C 174.01 149.19 175.38 147.95 175.47 146.35 L 175.52 145.32 C 175.60 143.71 174.36 142.35 172.76 142.26 C 171.15 142.18 169.78 143.42 169.70 145.02 Z M 169.65 145.95 L 169.56 146.98 C 169.43 148.59 170.62 150.00 172.22 150.13 C 173.83 150.27 175.24 149.08 175.38 147.47 L 175.46 146.44 C 175.60 144.84 174.41 143.43 172.80 143.29 C 171.20 143.15 169.78 144.35 169.65 145.95 Z M 169.57 146.87 L 169.45 147.84 C 169.26 149.44 170.40 150.89 172.00 151.09 C 173.60 151.29 175.05 150.15 175.25 148.55 L 175.37 147.58 C 175.56 145.98 174.42 144.52 172.82 144.33 C 171.22 144.13 169.77 145.27 169.57 146.87 Z M 169.47 147.73 L 169.32 148.62 C 169.07 150.21 170.15 151.71 171.74 151.97 C 173.34 152.23 174.83 151.14 175.09 149.55 L 175.23 148.66 C 175.49 147.06 174.41 145.56 172.81 145.31 C 171.22 145.05 169.72 146.13 169.47 147.73 Z M 169.34 148.52 L 169.16 149.43 C 168.85 151.01 169.88 152.55 171.46 152.86 C 173.04 153.18 174.58 152.15 174.89 150.56 L 175.07 149.65 C 175.39 148.07 174.36 146.53 172.77 146.22 C 171.19 145.91 169.65 146.94 169.34 148.52 Z M 169.18 149.34 L 168.96 150.30 C 168.60 151.87 169.58 153.44 171.15 153.80 C 172.72 154.16 174.29 153.18 174.65 151.61 L 174.87 150.65 C 175.24 149.08 174.26 147.51 172.68 147.15 C 171.11 146.79 169.54 147.77 169.18 149.34 Z M 168.98 150.22 L 168.71 151.25 C 168.31 152.81 169.25 154.41 170.81 154.81 C 172.38 155.21 173.97 154.27 174.37 152.71 L 174.64 151.68 C 175.04 150.12 174.10 148.52 172.54 148.12 C 170.97 147.72 169.38 148.66 168.98 150.22 Z M 168.73 151.20 L 168.41 152.32 C 167.98 153.87 168.89 155.48 170.45 155.92 C 172.00 156.35 173.61 155.44 174.05 153.88 L 174.36 152.76 C 174.79 151.20 173.88 149.59 172.32 149.16 C 170.77 148.73 169.16 149.64 168.73 151.20 Z M 168.42 152.29 L 168.17 153.17 C 167.72 154.72 168.61 156.35 170.16 156.80 C 171.71 157.25 173.33 156.35 173.78 154.80 L 174.04 153.92 C 174.49 152.37 173.60 150.74 172.05 150.29 C 170.50 149.84 168.87 150.73 168.42 152.29 Z M 168.17 153.15 L 167.89 154.09 C 167.43 155.63 168.31 157.26 169.86 157.72 C 171.40 158.19 173.03 157.31 173.49 155.76 L 173.77 154.83 C 174.24 153.28 173.36 151.65 171.81 151.19 C 170.26 150.73 168.63 151.61 168.17 153.15 Z M 167.90 154.07 L 167.60 155.03 C 167.13 156.58 168.00 158.21 169.54 158.68 C 171.08 159.16 172.72 158.29 173.19 156.75 L 173.49 155.78 C 173.96 154.24 173.09 152.60 171.55 152.13 C 170.01 151.65 168.37 152.52 167.90 154.07 Z M 167.61 155.01 L 167.30 156.00 C 166.81 157.54 167.67 159.18 169.21 159.67 C 170.75 160.15 172.39 159.29 172.88 157.75 L 173.19 156.77 C 173.67 155.23 172.81 153.59 171.27 153.10 C 169.73 152.62 168.09 153.47 167.61 155.01 Z M 167.30 155.98 L 166.99 156.97 C 166.49 158.51 167.34 160.15 168.87 160.65 C 170.41 161.14 172.06 160.30 172.55 158.76 L 172.87 157.77 C 173.36 156.23 172.52 154.59 170.98 154.09 C 169.44 153.60 167.80 154.44 167.30 155.98 Z M 166.99 156.95 L 166.67 157.93 C 166.16 159.46 167.00 161.12 168.53 161.62 C 170.07 162.13 171.72 161.29 172.22 159.76 L 172.54 158.78 C 173.05 157.25 172.22 155.59 170.68 155.09 C 169.15 154.58 167.50 155.42 166.99 156.95 Z M 166.68 157.91 L 166.36 158.86 C 165.84 160.39 166.66 162.05 168.19 162.57 C 169.72 163.08 171.38 162.26 171.89 160.73 L 172.22 159.78 C 172.73 158.25 171.91 156.59 170.38 156.07 C 168.85 155.56 167.19 156.38 166.68 157.91 Z M 166.36 158.83 L 166.02 159.83 C 165.49 161.35 166.29 163.02 167.82 163.55 C 169.34 164.08 171.01 163.27 171.54 161.75 L 171.88 160.76 C 172.42 159.23 171.61 157.57 170.09 157.04 C 168.56 156.51 166.90 157.31 166.36 158.83 Z M 166.03 159.80 L 165.66 160.83 C 165.11 162.35 165.90 164.02 167.42 164.57 C 168.93 165.12 170.60 164.33 171.15 162.81 L 171.53 161.78 C 172.07 160.26 171.29 158.59 169.77 158.04 C 168.25 157.49 166.58 158.28 166.03 159.80 Z M 165.68 160.80 L 165.31 161.78 C 164.75 163.29 165.51 164.96 167.02 165.53 C 168.53 166.09 170.21 165.33 170.77 163.82 L 171.13 162.84 C 171.70 161.34 170.93 159.66 169.43 159.09 C 167.92 158.53 166.24 159.30 165.68 160.80 Z M 165.33 161.75 L 164.97 162.68 C 164.39 164.17 165.14 165.86 166.64 166.44 C 168.13 167.02 169.82 166.27 170.40 164.77 L 170.75 163.85 C 171.33 162.35 170.59 160.67 169.09 160.09 C 167.59 159.51 165.91 160.25 165.33 161.75 Z M 164.99 162.65 L 164.64 163.54 C 164.04 165.02 164.77 166.71 166.26 167.31 C 167.75 167.90 169.44 167.17 170.03 165.68 L 170.38 164.80 C 170.97 163.31 170.25 161.62 168.76 161.03 C 167.27 160.44 165.58 161.16 164.99 162.65 Z M 164.65 163.51 L 164.30 164.37 C 163.70 165.85 164.41 167.54 165.89 168.14 C 167.37 168.75 169.06 168.04 169.66 166.56 L 170.01 165.70 C 170.62 164.22 169.91 162.53 168.43 161.93 C 166.95 161.32 165.25 162.03 164.65 163.51 Z M 164.31 164.35 L 163.96 165.21 C 163.34 166.69 164.04 168.38 165.51 168.99 C 166.99 169.61 168.68 168.91 169.29 167.44 L 169.65 166.57 C 170.26 165.10 169.57 163.41 168.09 162.79 C 166.62 162.18 164.93 162.88 164.31 164.35 Z M 163.97 165.20 L 163.57 166.15 C 162.95 167.61 163.64 169.30 165.10 169.92 C 166.56 170.54 168.25 169.86 168.87 168.40 L 169.28 167.45 C 169.90 165.98 169.21 164.29 167.75 163.67 C 166.28 163.05 164.59 163.74 163.97 165.20 Z M 163.60 166.13 L 163.19 167.06 C 162.56 168.51 163.23 170.20 164.68 170.83 C 166.13 171.46 167.82 170.79 168.45 169.34 L 168.85 168.41 C 169.48 166.96 168.81 165.28 167.36 164.65 C 165.91 164.02 164.23 164.68 163.60 166.13 Z M 163.22 167.04 L 162.81 167.95 C 162.17 169.39 162.81 171.07 164.25 171.71 C 165.68 172.36 167.37 171.71 168.01 170.28 L 168.42 169.37 C 169.06 167.93 168.42 166.25 166.98 165.60 C 165.55 164.96 163.86 165.60 163.22 167.04 Z M 162.84 167.92 L 162.43 168.81 C 161.77 170.23 162.38 171.92 163.80 172.58 C 165.22 173.24 166.91 172.62 167.57 171.20 L 167.98 170.31 C 168.64 168.89 168.02 167.20 166.60 166.54 C 165.18 165.89 163.50 166.50 162.84 167.92 Z M 162.46 168.78 L 162.04 169.65 C 161.36 171.05 161.94 172.74 163.34 173.42 C 164.74 174.10 166.43 173.51 167.11 172.11 L 167.53 171.24 C 168.21 169.84 167.63 168.15 166.22 167.47 C 164.82 166.79 163.14 167.38 162.46 168.78 Z M 162.08 169.61 L 161.62 170.51 C 160.92 171.88 161.47 173.57 162.84 174.27 C 164.22 174.97 165.91 174.43 166.61 173.05 L 167.07 172.15 C 167.77 170.78 167.22 169.09 165.84 168.39 C 164.47 167.69 162.78 168.23 162.08 169.61 Z M 161.68 170.45 L 161.20 171.34 C 160.47 172.68 160.97 174.37 162.31 175.10 C 163.66 175.83 165.34 175.33 166.07 173.98 L 166.55 173.10 C 167.28 171.75 166.78 170.07 165.44 169.34 C 164.09 168.61 162.41 169.11 161.68 170.45 Z M 161.26 171.28 L 160.76 172.14 C 160.00 173.45 160.44 175.13 161.75 175.89 C 163.06 176.65 164.74 176.21 165.51 174.90 L 166.01 174.04 C 166.77 172.73 166.33 171.05 165.02 170.29 C 163.71 169.52 162.03 169.97 161.26 171.28 Z M 160.84 172.07 L 160.31 172.91 C 159.50 174.18 159.88 175.85 161.15 176.66 C 162.42 177.46 164.10 177.08 164.90 175.81 L 165.43 174.97 C 166.24 173.70 165.86 172.02 164.59 171.22 C 163.32 170.42 161.64 170.80 160.84 172.07 Z M 160.39 172.83 L 159.82 173.65 C 158.98 174.87 159.29 176.55 160.51 177.39 C 161.74 178.24 163.41 177.93 164.26 176.71 L 164.82 175.89 C 165.67 174.66 165.36 172.99 164.13 172.14 C 162.91 171.30 161.23 171.61 160.39 172.83 Z M 159.92 173.57 L 159.30 174.39 C 158.41 175.56 158.64 177.23 159.82 178.12 C 160.99 179.00 162.66 178.77 163.54 177.60 L 164.16 176.78 C 165.05 175.61 164.82 173.94 163.65 173.06 C 162.47 172.17 160.80 172.40 159.92 173.57 Z M 159.40 174.32 L 158.74 175.12 C 157.82 176.23 157.97 177.88 159.09 178.81 C 160.20 179.73 161.85 179.58 162.78 178.47 L 163.44 177.67 C 164.36 176.56 164.21 174.90 163.10 173.98 C 161.98 173.05 160.33 173.21 159.40 174.32 Z M 158.85 175.05 L 158.17 175.80 C 157.21 176.86 157.28 178.49 158.34 179.45 C 159.39 180.41 161.02 180.34 161.99 179.28 L 162.67 178.53 C 163.63 177.48 163.56 175.84 162.50 174.88 C 161.45 173.92 159.81 174.00 158.85 175.05 Z M 158.28 175.74 L 157.58 176.43 C 156.58 177.43 156.58 179.04 157.57 180.03 C 158.56 181.03 160.17 181.03 161.17 180.04 L 161.87 179.35 C 162.87 178.36 162.87 176.75 161.88 175.75 C 160.89 174.75 159.28 174.75 158.28 175.74 Z M 157.71 176.37 L 157.00 177.00 C 155.97 177.92 155.88 179.50 156.80 180.53 C 157.72 181.57 159.30 181.66 160.33 180.74 L 161.04 180.11 C 162.07 179.19 162.17 177.61 161.25 176.57 C 160.33 175.54 158.74 175.45 157.71 176.37 Z M 157.18 176.93 L 156.31 177.60 C 155.24 178.42 155.04 179.95 155.86 181.02 C 156.69 182.09 158.22 182.29 159.29 181.47 L 160.16 180.81 C 161.23 179.98 161.43 178.45 160.61 177.38 C 159.78 176.31 158.25 176.11 157.18 176.93 Z M 156.55 177.54 L 155.67 178.09 C 154.57 178.79 154.24 180.24 154.93 181.34 C 155.62 182.44 157.07 182.77 158.18 182.08 L 159.05 181.53 C 160.16 180.84 160.49 179.38 159.79 178.28 C 159.10 177.18 157.65 176.85 156.55 177.54 Z M 155.93 178.05 L 155.07 178.47 C 153.94 179.02 153.48 180.37 154.02 181.49 C 154.57 182.62 155.92 183.09 157.05 182.54 L 157.91 182.12 C 159.03 181.58 159.50 180.22 158.96 179.10 C 158.41 177.97 157.06 177.51 155.93 178.05 Z M 155.36 178.45 L 154.52 178.73 C 153.38 179.12 152.77 180.35 153.15 181.49 C 153.53 182.62 154.77 183.23 155.90 182.85 L 156.75 182.56 C 157.89 182.18 158.50 180.95 158.12 179.81 C 157.73 178.68 156.50 178.07 155.36 178.45 Z M 154.89 178.74 L 153.82 178.91 C 152.68 179.08 151.91 180.14 152.08 181.28 C 152.26 182.41 153.32 183.19 154.45 183.01 L 155.53 182.84 C 156.66 182.67 157.44 181.61 157.26 180.48 C 157.09 179.34 156.03 178.57 154.89 178.74 Z M 154.33 178.99 L 153.35 178.89 C 152.27 178.78 151.30 179.58 151.19 180.66 C 151.08 181.75 151.87 182.72 152.96 182.83 L 153.94 182.93 C 155.02 183.03 155.99 182.24 156.10 181.15 C 156.21 180.07 155.42 179.10 154.33 178.99 Z M 153.97 179.16 L 153.15 178.77 C 152.21 178.33 151.09 178.72 150.64 179.66 C 150.20 180.59 150.59 181.72 151.53 182.16 L 152.35 182.56 C 153.28 183.00 154.40 182.61 154.85 181.67 C 155.30 180.74 154.91 179.61 153.97 179.16 Z M 153.68 179.25 L 153.05 178.57 C 152.38 177.83 151.23 177.78 150.49 178.45 C 149.76 179.12 149.70 180.27 150.38 181.01 L 151.00 181.69 C 151.68 182.43 152.82 182.48 153.56 181.81 C 154.30 181.13 154.35 179.99 153.68 179.25 Z M 153.26 178.93 L 152.77 178.05 C 152.30 177.19 151.23 176.88 150.37 177.35 C 149.52 177.83 149.21 178.90 149.68 179.76 L 150.17 180.64 C 150.64 181.50 151.72 181.81 152.57 181.33 C 153.43 180.86 153.74 179.79 153.26 178.93 Z M 152.81 178.21 L 152.44 177.36 C 152.06 176.48 151.04 176.08 150.16 176.46 C 149.29 176.84 148.89 177.86 149.27 178.74 L 149.64 179.59 C 150.02 180.47 151.04 180.87 151.92 180.49 C 152.79 180.10 153.19 179.09 152.81 178.21 Z"
      fill="black"
      fill-rule="nonzero" /><path d="M 145.24 160.12 L 144.32 160.97 C 143.26 161.94 143.19 163.59 144.16 164.66 C 145.14 165.72 146.79 165.79 147.85 164.81 L 148.77 163.97 C 149.83 162.99 149.90 161.34 148.93 160.28 C 147.95 159.22 146.30 159.15 145.24 160.12 Z M 143.83 161.54 L 143.42 162.23 C 142.67 163.48 143.08 165.09 144.32 165.84 C 145.57 166.58 147.18 166.17 147.93 164.93 L 148.34 164.24 C 149.08 162.99 148.68 161.38 147.43 160.64 C 146.19 159.89 144.58 160.30 143.83 161.54 Z M 143.88 165.51 L 144.27 165.88 C 145.34 166.87 147.01 166.80 148.00 165.73 C 148.98 164.67 148.92 163.00 147.85 162.01 L 147.46 161.65 C 146.39 160.66 144.73 160.72 143.74 161.79 C 142.75 162.86 142.81 164.53 143.88 165.51 Z M 145.63 166.54 L 146.55 166.70 C 147.99 166.94 149.35 165.97 149.59 164.54 C 149.83 163.10 148.87 161.74 147.43 161.50 L 146.50 161.34 C 145.06 161.10 143.70 162.07 143.46 163.51 C 143.22 164.94 144.19 166.30 145.63 166.54 Z M 146.89 166.74 L 148.13 166.78 C 149.59 166.84 150.81 165.70 150.87 164.24 C 150.92 162.79 149.78 161.57 148.33 161.51 L 147.09 161.47 C 145.63 161.41 144.41 162.55 144.36 164.00 C 144.30 165.46 145.44 166.68 146.89 166.74 Z M 148.24 166.78 L 149.32 166.78 C 150.78 166.77 151.95 165.59 151.95 164.13 C 151.94 162.68 150.76 161.50 149.30 161.51 L 148.22 161.51 C 146.76 161.52 145.59 162.70 145.59 164.16 C 145.60 165.61 146.78 166.79 148.24 166.78 Z M 149.37 166.78 L 150.38 166.75 C 151.83 166.72 152.98 165.51 152.95 164.05 C 152.91 162.60 151.70 161.45 150.25 161.48 L 149.25 161.51 C 147.79 161.54 146.64 162.75 146.68 164.21 C 146.71 165.66 147.92 166.81 149.37 166.78 Z M 150.43 166.75 L 151.43 166.71 C 152.88 166.64 154.01 165.41 153.94 163.96 C 153.88 162.50 152.65 161.38 151.20 161.44 L 150.20 161.49 C 148.74 161.55 147.62 162.78 147.68 164.23 C 147.74 165.69 148.97 166.81 150.43 166.75 Z M 151.48 166.70 L 152.48 166.64 C 153.93 166.55 155.03 165.29 154.94 163.84 C 154.85 162.39 153.59 161.29 152.14 161.38 L 151.14 161.45 C 149.69 161.54 148.59 162.79 148.68 164.24 C 148.78 165.69 150.03 166.79 151.48 166.70 Z M 152.53 166.63 L 153.55 166.55 C 155.00 166.42 156.08 165.15 155.96 163.70 C 155.83 162.26 154.56 161.18 153.11 161.30 L 152.09 161.39 C 150.64 161.51 149.57 162.78 149.69 164.23 C 149.81 165.68 151.08 166.75 152.53 166.63 Z M 153.59 166.54 L 154.60 166.44 C 156.05 166.30 157.10 165.01 156.96 163.57 C 156.82 162.13 155.54 161.07 154.09 161.21 L 153.08 161.31 C 151.64 161.45 150.58 162.74 150.72 164.18 C 150.86 165.62 152.15 166.68 153.59 166.54 Z M 154.61 166.43 L 155.60 166.33 C 157.04 166.19 158.09 164.90 157.94 163.46 C 157.80 162.02 156.51 160.97 155.07 161.12 L 154.08 161.22 C 152.65 161.36 151.60 162.65 151.74 164.09 C 151.89 165.53 153.17 166.58 154.61 166.43 Z M 155.58 166.33 L 156.54 166.24 C 157.97 166.10 159.03 164.83 158.89 163.39 C 158.76 161.95 157.48 160.90 156.05 161.03 L 155.09 161.12 C 153.65 161.26 152.60 162.53 152.74 163.97 C 152.87 165.41 154.15 166.46 155.58 166.33 Z M 156.49 166.23 L 157.53 166.16 C 158.97 166.05 160.04 164.80 159.93 163.36 C 159.83 161.92 158.57 160.85 157.14 160.96 L 156.10 161.03 C 154.66 161.14 153.58 162.40 153.69 163.83 C 153.80 165.27 155.05 166.34 156.49 166.23 Z M 157.47 166.15 L 158.47 166.10 C 159.90 166.03 161.00 164.81 160.93 163.37 C 160.86 161.94 159.64 160.84 158.20 160.91 L 157.20 160.96 C 155.77 161.03 154.66 162.25 154.74 163.69 C 154.81 165.12 156.03 166.23 157.47 166.15 Z M 158.39 166.10 L 159.36 166.07 C 160.79 166.04 161.93 164.85 161.89 163.42 C 161.86 161.99 160.67 160.86 159.24 160.89 L 158.27 160.91 C 156.84 160.95 155.71 162.13 155.74 163.57 C 155.77 165.00 156.96 166.13 158.39 166.10 Z M 159.26 166.07 L 160.34 166.08 C 161.76 166.11 162.94 164.97 162.96 163.54 C 162.98 162.11 161.84 160.94 160.41 160.91 L 159.34 160.90 C 157.91 160.88 156.74 162.02 156.72 163.44 C 156.70 164.87 157.83 166.04 159.26 166.07 Z M 159.96 166.04 L 160.97 166.20 C 162.37 166.43 163.70 165.48 163.92 164.08 C 164.15 162.67 163.20 161.35 161.80 161.12 L 160.79 160.96 C 159.38 160.73 158.06 161.68 157.83 163.09 C 157.61 164.49 158.56 165.81 159.96 166.04 Z M 160.00 165.82 L 160.72 166.29 C 161.91 167.05 163.50 166.71 164.27 165.51 C 165.03 164.32 164.68 162.74 163.49 161.97 L 162.77 161.51 C 161.58 160.74 159.99 161.09 159.23 162.28 C 158.46 163.47 158.81 165.05 160.00 165.82 Z M 159.79 165.05 L 160.09 165.81 C 160.60 167.08 162.05 167.71 163.33 167.20 C 164.61 166.69 165.23 165.23 164.72 163.96 L 164.42 163.20 C 163.91 161.93 162.46 161.30 161.18 161.81 C 159.91 162.32 159.28 163.77 159.79 165.05 Z M 160.05 164.85 L 160.04 165.84 C 160.02 167.14 161.07 168.20 162.37 168.22 C 163.67 168.24 164.74 167.20 164.75 165.89 L 164.76 164.91 C 164.78 163.61 163.74 162.54 162.44 162.53 C 161.14 162.51 160.07 163.55 160.05 164.85 Z M 160.25 165.30 L 159.97 166.40 C 159.66 167.58 160.36 168.79 161.55 169.10 C 162.73 169.41 163.94 168.70 164.25 167.52 L 164.54 166.43 C 164.85 165.24 164.14 164.03 162.96 163.72 C 161.77 163.41 160.56 164.12 160.25 165.30 Z M 160.17 166.06 L 159.75 166.96 C 159.25 168.03 159.72 169.30 160.79 169.80 C 161.86 170.30 163.13 169.84 163.63 168.76 L 164.05 167.86 C 164.55 166.79 164.08 165.52 163.01 165.02 C 161.94 164.52 160.67 164.98 160.17 166.06 Z M 159.87 166.72 L 159.35 167.54 C 158.72 168.55 159.02 169.87 160.03 170.51 C 161.03 171.14 162.36 170.84 162.99 169.83 L 163.51 169.01 C 164.14 168.00 163.84 166.68 162.83 166.04 C 161.83 165.41 160.50 165.71 159.87 166.72 Z M 159.44 167.37 L 158.82 168.18 C 158.10 169.13 158.29 170.50 159.24 171.23 C 160.20 171.95 161.56 171.77 162.29 170.81 L 162.90 170.00 C 163.63 169.05 163.44 167.68 162.49 166.95 C 161.53 166.23 160.16 166.41 159.44 167.37 Z M 158.88 168.06 L 158.21 168.85 C 157.42 169.78 157.53 171.17 158.45 171.96 C 159.38 172.75 160.77 172.64 161.56 171.71 L 162.23 170.92 C 163.02 170.00 162.91 168.61 161.99 167.82 C 161.06 167.03 159.67 167.14 158.88 168.06 Z M 158.23 168.77 L 157.54 169.53 C 156.70 170.45 156.77 171.86 157.68 172.69 C 158.59 173.53 160.01 173.47 160.84 172.55 L 161.53 171.79 C 162.37 170.88 162.30 169.46 161.39 168.63 C 160.48 167.80 159.06 167.86 158.23 168.77 Z M 157.54 169.46 L 156.84 170.20 C 155.96 171.11 155.99 172.55 156.90 173.43 C 157.81 174.30 159.26 174.27 160.13 173.36 L 160.84 172.62 C 161.71 171.71 161.68 170.27 160.77 169.40 C 159.86 168.52 158.42 168.55 157.54 169.46 Z M 156.84 170.12 L 156.13 170.83 C 155.21 171.74 155.21 173.21 156.11 174.13 C 157.02 175.04 158.49 175.05 159.41 174.14 L 160.12 173.43 C 161.04 172.53 161.04 171.05 160.14 170.14 C 159.23 169.22 157.75 169.22 156.84 170.12 Z M 156.14 170.76 L 155.42 171.43 C 154.47 172.33 154.42 173.83 155.32 174.79 C 156.22 175.75 157.73 175.79 158.69 174.89 L 159.40 174.22 C 160.35 173.32 160.40 171.81 159.50 170.86 C 158.60 169.90 157.09 169.86 156.14 170.76 Z M 155.45 171.35 L 154.70 172.01 C 153.70 172.90 153.61 174.43 154.50 175.43 C 155.39 176.43 156.92 176.52 157.92 175.63 L 158.66 174.97 C 159.66 174.08 159.75 172.55 158.87 171.55 C 157.98 170.55 156.45 170.46 155.45 171.35 Z M 154.74 171.93 L 153.97 172.57 C 152.93 173.43 152.78 174.98 153.65 176.03 C 154.52 177.07 156.07 177.22 157.11 176.35 L 157.88 175.71 C 158.92 174.85 159.07 173.30 158.20 172.25 C 157.34 171.21 155.79 171.06 154.74 171.93 Z M 154.02 172.49 L 153.24 173.09 C 152.15 173.92 151.95 175.49 152.79 176.58 C 153.63 177.67 155.19 177.87 156.28 177.03 L 157.06 176.43 C 158.15 175.59 158.35 174.03 157.51 172.94 C 156.68 171.85 155.11 171.65 154.02 172.49 Z M 153.29 173.01 L 152.48 173.59 C 151.35 174.40 151.09 175.97 151.90 177.10 C 152.71 178.24 154.28 178.50 155.42 177.69 L 156.23 177.11 C 157.36 176.30 157.62 174.72 156.81 173.59 C 156.00 172.46 154.43 172.20 153.29 173.01 Z M 152.52 173.50 L 151.44 174.23 C 150.26 175.02 149.94 176.61 150.73 177.79 C 151.52 178.97 153.12 179.29 154.30 178.50 L 155.38 177.77 C 156.56 176.98 156.87 175.39 156.08 174.21 C 155.30 173.03 153.70 172.72 152.52 173.50 Z M 151.39 174.19 L 150.46 174.82 C 149.26 175.63 148.94 177.27 149.76 178.47 C 150.57 179.67 152.21 179.98 153.41 179.17 L 154.34 178.54 C 155.54 177.73 155.86 176.09 155.04 174.89 C 154.23 173.69 152.60 173.37 151.39 174.19 Z M 150.08 175.04 L 149.72 175.38 C 148.64 176.41 148.60 178.11 149.62 179.19 C 150.64 180.27 152.34 180.31 153.42 179.29 L 153.78 178.95 C 154.86 177.93 154.91 176.22 153.89 175.14 C 152.87 174.07 151.16 174.02 150.08 175.04 Z M 151.94 180.03 L 152.47 179.96 C 153.95 179.76 155.00 178.39 154.79 176.90 C 154.59 175.41 153.22 174.37 151.73 174.57 L 151.21 174.64 C 149.72 174.85 148.68 176.22 148.88 177.70 C 149.08 179.19 150.45 180.23 151.94 180.03 Z M 152.97 179.84 L 154.13 179.44 C 155.55 178.96 156.31 177.42 155.83 176.00 C 155.35 174.58 153.81 173.82 152.39 174.30 L 151.23 174.69 C 149.81 175.18 149.05 176.72 149.53 178.14 C 150.01 179.56 151.55 180.32 152.97 179.84 Z M 154.23 179.39 L 155.31 178.97 C 156.70 178.44 157.40 176.88 156.86 175.49 C 156.33 174.10 154.77 173.40 153.38 173.94 L 152.29 174.35 C 150.90 174.89 150.21 176.45 150.74 177.84 C 151.27 179.23 152.84 179.92 154.23 179.39 Z M 155.35 178.91 L 156.21 178.55 C 157.57 178.00 158.22 176.45 157.66 175.09 C 157.10 173.74 155.56 173.09 154.20 173.65 L 153.34 174.00 C 151.98 174.56 151.33 176.11 151.89 177.46 C 152.45 178.82 153.99 179.46 155.35 178.91 Z M 156.24 178.48 L 157.14 178.08 C 158.45 177.51 159.05 175.98 158.48 174.67 C 157.91 173.36 156.38 172.76 155.07 173.33 L 154.17 173.73 C 152.86 174.30 152.26 175.82 152.83 177.14 C 153.40 178.45 154.93 179.05 156.24 178.48 Z M 157.17 178.01 L 158.14 177.56 C 159.41 176.97 159.96 175.47 159.37 174.20 C 158.79 172.93 157.29 172.38 156.02 172.96 L 155.05 173.41 C 153.78 174.00 153.22 175.50 153.81 176.77 C 154.39 178.04 155.90 178.59 157.17 178.01 Z M 158.15 177.48 L 159.08 177.03 C 160.30 176.44 160.82 174.97 160.23 173.74 C 159.63 172.52 158.16 172.00 156.94 172.59 L 156.01 173.04 C 154.78 173.63 154.27 175.11 154.86 176.33 C 155.45 177.56 156.92 178.07 158.15 177.48 Z M 159.08 176.94 L 159.98 176.49 C 161.16 175.90 161.64 174.47 161.04 173.29 C 160.45 172.11 159.02 171.63 157.84 172.23 L 156.94 172.68 C 155.76 173.27 155.28 174.70 155.87 175.88 C 156.47 177.06 157.90 177.54 159.08 176.94 Z M 159.98 176.40 L 160.90 175.92 C 162.03 175.33 162.46 173.94 161.87 172.81 C 161.28 171.68 159.89 171.24 158.76 171.83 L 157.84 172.32 C 156.71 172.91 156.28 174.30 156.87 175.43 C 157.46 176.56 158.85 176.99 159.98 176.40 Z M 160.90 175.83 L 161.80 175.33 C 162.88 174.74 163.27 173.39 162.68 172.31 C 162.08 171.23 160.73 170.84 159.66 171.43 L 158.76 171.93 C 157.68 172.52 157.29 173.87 157.88 174.95 C 158.48 176.03 159.83 176.42 160.90 175.83 Z M 161.82 175.23 L 162.66 174.74 C 163.68 174.13 164.02 172.82 163.41 171.80 C 162.81 170.78 161.50 170.44 160.48 171.04 L 159.64 171.54 C 158.62 172.14 158.28 173.45 158.88 174.47 C 159.48 175.49 160.80 175.83 161.82 175.23 Z M 162.69 174.61 L 163.60 174.02 C 164.55 173.40 164.82 172.12 164.20 171.17 C 163.58 170.22 162.31 169.95 161.35 170.57 L 160.45 171.17 C 159.49 171.79 159.23 173.06 159.85 174.01 C 160.47 174.96 161.74 175.23 162.69 174.61 Z M 163.64 173.87 L 164.48 173.25 C 165.35 172.61 165.53 171.39 164.89 170.52 C 164.25 169.65 163.02 169.46 162.15 170.10 L 161.32 170.72 C 160.45 171.36 160.26 172.59 160.90 173.46 C 161.54 174.33 162.77 174.51 163.64 173.87 Z M 164.49 173.12 L 165.22 172.52 C 166.02 171.87 166.13 170.70 165.48 169.90 C 164.84 169.11 163.67 168.99 162.87 169.64 L 162.14 170.24 C 161.34 170.89 161.23 172.06 161.88 172.85 C 162.53 173.65 163.70 173.77 164.49 173.12 Z M 165.20 172.41 L 165.86 171.84 C 166.59 171.20 166.67 170.09 166.04 169.36 C 165.40 168.62 164.29 168.54 163.56 169.18 L 162.90 169.75 C 162.16 170.39 162.08 171.50 162.72 172.23 C 163.35 172.97 164.46 173.04 165.20 172.41 Z"
      fill="black"
      fill-rule="nonzero" /><path d="M 123.59 198.20 L 124.49 198.40 C 125.67 198.66 126.85 197.91 127.11 196.73 C 127.38 195.54 126.63 194.36 125.44 194.10 L 124.55 193.90 C 123.36 193.64 122.18 194.38 121.92 195.57 C 121.65 196.76 122.40 197.93 123.59 198.20 Z M 124.48 198.68 L 125.42 198.86 C 126.76 199.13 128.06 198.26 128.33 196.92 C 128.60 195.58 127.72 194.27 126.38 194.01 L 125.45 193.82 C 124.11 193.55 122.80 194.42 122.54 195.77 C 122.27 197.11 123.14 198.41 124.48 198.68 Z M 125.48 199.15 L 126.49 199.31 C 127.99 199.55 129.40 198.52 129.63 197.02 C 129.87 195.51 128.84 194.11 127.34 193.87 L 126.32 193.72 C 124.82 193.48 123.42 194.51 123.18 196.01 C 122.95 197.51 123.98 198.92 125.48 199.15 Z M 126.60 199.58 L 127.69 199.69 C 129.33 199.86 130.81 198.66 130.98 197.01 C 131.15 195.37 129.95 193.89 128.31 193.72 L 127.22 193.61 C 125.58 193.44 124.10 194.63 123.93 196.28 C 123.76 197.93 124.96 199.41 126.60 199.58 Z M 127.81 199.81 L 128.78 199.87 C 130.50 199.97 131.97 198.67 132.08 196.95 C 132.18 195.23 130.87 193.76 129.16 193.66 L 128.18 193.60 C 126.47 193.49 124.99 194.80 124.89 196.52 C 124.78 198.23 126.09 199.71 127.81 199.81 Z M 128.87 199.88 L 129.89 199.91 C 131.61 199.97 133.05 198.62 133.10 196.90 C 133.16 195.18 131.81 193.74 130.09 193.68 L 129.07 193.65 C 127.35 193.59 125.91 194.94 125.85 196.66 C 125.80 198.38 127.14 199.82 128.87 199.88 Z M 129.94 199.92 L 130.97 199.93 C 132.70 199.96 134.12 198.58 134.14 196.86 C 134.17 195.14 132.79 193.72 131.07 193.69 L 130.04 193.68 C 128.31 193.65 126.90 195.03 126.87 196.75 C 126.84 198.47 128.22 199.89 129.94 199.92 Z M 131.01 199.94 L 132.02 199.94 C 133.74 199.95 135.15 198.56 135.16 196.83 C 135.16 195.11 133.77 193.70 132.05 193.69 L 131.04 193.69 C 129.31 193.68 127.91 195.07 127.90 196.80 C 127.89 198.52 129.28 199.93 131.01 199.94 Z M 132.03 199.95 L 133.05 199.95 C 134.78 199.95 136.18 198.55 136.18 196.82 C 136.18 195.09 134.78 193.69 133.06 193.69 L 132.03 193.69 C 130.30 193.69 128.90 195.09 128.90 196.82 C 128.90 198.54 130.30 199.94 132.03 199.95 Z M 133.05 199.95 L 134.12 199.95 C 135.85 199.95 137.25 198.55 137.25 196.82 C 137.25 195.09 135.85 193.69 134.12 193.69 L 133.05 193.69 C 131.33 193.69 129.93 195.09 129.93 196.82 C 129.93 198.55 131.33 199.95 133.05 199.95 Z M 134.12 199.95 L 135.11 199.95 C 136.84 199.95 138.24 198.55 138.24 196.82 C 138.24 195.09 136.84 193.69 135.11 193.69 L 134.12 193.69 C 132.39 193.69 130.99 195.09 130.99 196.82 C 130.99 198.55 132.39 199.95 134.12 199.95 Z M 135.11 199.95 L 136.05 199.95 C 137.77 199.95 139.17 198.55 139.17 196.82 C 139.17 195.09 137.77 193.69 136.05 193.69 L 135.11 193.69 C 133.38 193.69 131.98 195.09 131.98 196.82 C 131.98 198.55 133.38 199.95 135.11 199.95 Z M 136.05 199.95 L 136.99 199.95 C 138.72 199.95 140.12 198.55 140.12 196.82 C 140.12 195.09 138.72 193.69 136.99 193.69 L 136.05 193.69 C 134.32 193.69 132.92 195.09 132.92 196.82 C 132.92 198.55 134.32 199.95 136.05 199.95 Z M 136.99 199.94 L 137.97 199.94 C 139.70 199.94 141.10 198.54 141.10 196.82 C 141.10 195.09 139.70 193.69 137.97 193.69 L 136.99 193.69 C 135.27 193.69 133.87 195.09 133.87 196.82 C 133.87 198.54 135.27 199.94 136.99 199.94 Z M 137.97 199.94 L 138.97 199.94 C 140.69 199.94 142.09 198.54 142.09 196.82 C 142.09 195.09 140.69 193.70 138.97 193.70 L 137.97 193.70 C 136.25 193.70 134.85 195.09 134.85 196.82 C 134.85 198.54 136.25 199.94 137.97 199.94 Z M 138.97 199.94 L 139.99 199.94 C 141.72 199.94 143.11 198.54 143.11 196.82 C 143.11 195.09 141.72 193.70 139.99 193.70 L 138.97 193.70 C 137.25 193.70 135.85 195.09 135.85 196.82 C 135.85 198.54 137.25 199.94 138.97 199.94 Z M 139.99 199.94 L 140.99 199.94 C 142.71 199.94 144.10 198.54 144.10 196.82 C 144.10 195.10 142.71 193.70 140.99 193.70 L 139.99 193.70 C 138.27 193.70 136.88 195.10 136.88 196.82 C 136.88 198.54 138.27 199.94 139.99 199.94 Z M 140.99 199.93 L 141.98 199.93 C 143.69 199.93 145.09 198.54 145.09 196.82 C 145.09 195.10 143.69 193.71 141.98 193.71 L 140.99 193.71 C 139.27 193.71 137.87 195.10 137.87 196.82 C 137.87 198.54 139.27 199.93 140.99 199.93 Z M 141.98 199.93 L 142.98 199.93 C 144.70 199.93 146.09 198.53 146.09 196.82 C 146.09 195.10 144.70 193.71 142.98 193.71 L 141.98 193.71 C 140.26 193.71 138.87 195.10 138.87 196.82 C 138.87 198.53 140.26 199.93 141.98 199.93 Z M 142.98 199.92 L 144.00 199.92 C 145.71 199.92 147.10 198.53 147.10 196.82 C 147.10 195.10 145.71 193.72 144.00 193.72 L 142.98 193.72 C 141.27 193.72 139.88 195.10 139.88 196.82 C 139.88 198.53 141.27 199.92 142.98 199.92 Z M 144.00 199.91 L 145.00 199.91 C 146.71 199.91 148.10 198.53 148.10 196.82 C 148.10 195.11 146.71 193.72 145.00 193.72 L 144.00 193.72 C 142.29 193.72 140.90 195.11 140.90 196.82 C 140.90 198.53 142.29 199.91 144.00 199.91 Z M 145.00 199.90 L 146.00 199.90 C 147.70 199.90 149.08 198.52 149.08 196.82 C 149.08 195.11 147.70 193.73 146.00 193.73 L 145.00 193.73 C 143.30 193.73 141.92 195.11 141.92 196.82 C 141.92 198.52 143.30 199.90 145.00 199.90 Z M 146.00 199.89 L 147.00 199.89 C 148.69 199.89 150.07 198.52 150.07 196.82 C 150.07 195.12 148.69 193.74 147.00 193.74 L 146.00 193.74 C 144.30 193.74 142.92 195.12 142.92 196.82 C 142.92 198.52 144.30 199.89 146.00 199.89 Z M 147.00 199.88 L 148.00 199.88 C 149.69 199.88 151.06 198.51 151.06 196.82 C 151.06 195.13 149.69 193.76 148.00 193.76 L 147.00 193.76 C 145.30 193.76 143.93 195.13 143.93 196.82 C 143.93 198.51 145.30 199.88 147.00 199.88 Z M 148.00 199.87 L 149.00 199.87 C 150.68 199.87 152.05 198.50 152.05 196.82 C 152.05 195.13 150.68 193.77 149.00 193.77 L 148.00 193.77 C 146.31 193.77 144.95 195.13 144.95 196.82 C 144.95 198.50 146.31 199.87 148.00 199.87 Z M 149.00 199.86 L 149.99 199.86 C 151.67 199.86 153.03 198.50 153.03 196.82 C 153.03 195.14 151.67 193.78 149.99 193.78 L 149.00 193.78 C 147.32 193.78 145.96 195.14 145.96 196.82 C 145.96 198.50 147.32 199.86 149.00 199.86 Z M 149.99 199.84 L 150.99 199.84 C 152.66 199.84 154.01 198.49 154.01 196.82 C 154.01 195.15 152.66 193.80 150.99 193.80 L 149.99 193.80 C 148.32 193.80 146.97 195.15 146.97 196.82 C 146.97 198.49 148.32 199.84 149.99 199.84 Z M 150.99 199.83 L 151.99 199.83 C 153.65 199.83 155.00 198.48 155.00 196.82 C 155.00 195.16 153.65 193.81 151.99 193.81 L 150.99 193.81 C 149.32 193.81 147.98 195.16 147.98 196.82 C 147.98 198.48 149.32 199.83 150.99 199.83 Z M 151.99 199.81 L 153.00 199.81 C 154.66 199.81 156.00 198.47 156.00 196.82 C 156.00 195.16 154.66 193.82 153.00 193.82 L 151.99 193.82 C 150.34 193.82 149.00 195.16 149.00 196.82 C 149.00 198.47 150.34 199.81 151.99 199.81 Z M 153.00 199.80 L 154.00 199.80 C 155.64 199.80 156.97 198.46 156.97 196.82 C 156.97 195.17 155.64 193.84 154.00 193.84 L 153.00 193.84 C 151.36 193.84 150.03 195.17 150.03 196.82 C 150.03 198.46 151.36 199.80 153.00 199.80 Z M 154.00 199.78 L 155.00 199.78 C 156.63 199.78 157.95 198.45 157.95 196.82 C 157.95 195.18 156.63 193.86 155.00 193.86 L 154.00 193.86 C 152.36 193.86 151.04 195.18 151.04 196.82 C 151.04 198.45 152.36 199.78 154.00 199.78 Z M 155.00 199.76 L 156.00 199.76 C 157.62 199.76 158.94 198.44 158.94 196.82 C 158.94 195.20 157.62 193.88 156.00 193.88 L 155.00 193.88 C 153.37 193.88 152.06 195.20 152.06 196.82 C 152.06 198.44 153.37 199.76 155.00 199.76 Z M 156.00 199.74 L 157.00 199.74 C 158.62 199.74 159.92 198.43 159.92 196.82 C 159.92 195.21 158.62 193.90 157.00 193.90 L 156.00 193.90 C 154.39 193.90 153.08 195.21 153.08 196.82 C 153.08 198.43 154.39 199.74 156.00 199.74 Z M 157.00 199.72 L 158.01 199.72 C 159.61 199.72 160.91 198.42 160.91 196.82 C 160.91 195.22 159.61 193.92 158.01 193.92 L 157.00 193.92 C 155.40 193.92 154.10 195.22 154.10 196.82 C 154.10 198.42 155.40 199.72 157.00 199.72 Z M 158.01 199.70 L 159.01 199.70 C 160.60 199.70 161.89 198.41 161.89 196.82 C 161.89 195.23 160.60 193.94 159.01 193.94 L 158.01 193.94 C 156.41 193.94 155.13 195.23 155.13 196.82 C 155.13 198.41 156.41 199.70 158.01 199.70 Z M 159.01 199.68 L 160.01 199.68 C 161.58 199.68 162.87 198.40 162.87 196.82 C 162.87 195.24 161.58 193.96 160.01 193.96 L 159.01 193.96 C 157.43 193.96 156.15 195.24 156.15 196.82 C 156.15 198.40 157.43 199.68 159.01 199.68 Z M 160.01 199.66 L 161.01 199.66 C 162.57 199.66 163.85 198.39 163.85 196.82 C 163.85 195.25 162.57 193.98 161.01 193.98 L 160.01 193.98 C 158.44 193.98 157.17 195.25 157.17 196.82 C 157.17 198.39 158.44 199.66 160.01 199.66 Z M 161.01 199.64 L 162.00 199.64 C 163.56 199.64 164.82 198.38 164.82 196.82 C 164.82 195.26 163.56 194.00 162.00 194.00 L 161.01 194.00 C 159.45 194.00 158.19 195.26 158.19 196.82 C 158.19 198.38 159.45 199.64 161.01 199.64 Z M 162.00 199.62 L 162.98 199.62 C 164.53 199.62 165.78 198.37 165.79 196.82 C 165.79 195.27 164.53 194.02 162.99 194.02 L 162.00 194.02 C 160.46 194.02 159.20 195.27 159.20 196.82 C 159.20 198.36 160.45 199.62 162.00 199.62 Z M 162.98 199.60 L 163.97 199.60 C 165.50 199.60 166.75 198.36 166.76 196.83 C 166.76 195.29 165.52 194.05 163.98 194.04 L 162.99 194.04 C 161.46 194.04 160.21 195.28 160.21 196.81 C 160.20 198.35 161.44 199.59 162.98 199.60 Z M 163.96 199.58 L 164.96 199.59 C 166.49 199.60 167.73 198.37 167.74 196.84 C 167.75 195.32 166.52 194.08 165.00 194.07 L 163.99 194.06 C 162.47 194.05 161.23 195.28 161.22 196.80 C 161.21 198.33 162.44 199.57 163.96 199.58 Z M 164.95 199.57 L 165.96 199.58 C 167.48 199.59 168.72 198.38 168.73 196.87 C 168.75 195.36 167.54 194.12 166.03 194.10 L 165.01 194.09 C 163.50 194.07 162.26 195.28 162.24 196.80 C 162.22 198.31 163.43 199.55 164.95 199.57 Z M 165.95 199.56 L 166.96 199.57 C 168.46 199.60 169.70 198.41 169.73 196.90 C 169.75 195.40 168.56 194.17 167.06 194.14 L 166.04 194.12 C 164.54 194.10 163.30 195.29 163.28 196.79 C 163.25 198.29 164.45 199.53 165.95 199.56 Z M 166.94 199.55 L 167.96 199.57 C 169.45 199.61 170.68 198.43 170.72 196.95 C 170.75 195.46 169.58 194.22 168.09 194.19 L 167.07 194.16 C 165.59 194.13 164.35 195.30 164.32 196.79 C 164.28 198.28 165.46 199.51 166.94 199.55 Z M 167.94 199.55 L 168.95 199.58 C 170.43 199.63 171.66 198.47 171.70 197.00 C 171.75 195.52 170.59 194.29 169.12 194.25 L 168.11 194.21 C 166.63 194.17 165.40 195.33 165.36 196.80 C 165.31 198.27 166.47 199.50 167.94 199.55 Z M 168.93 199.55 L 169.93 199.59 C 171.39 199.65 172.62 198.51 172.68 197.05 C 172.73 195.59 171.59 194.37 170.14 194.31 L 169.14 194.27 C 167.68 194.21 166.45 195.35 166.39 196.81 C 166.34 198.27 167.47 199.50 168.93 199.55 Z M 169.91 199.57 L 170.88 199.61 C 172.33 199.68 173.55 198.56 173.62 197.12 C 173.69 195.68 172.57 194.45 171.13 194.38 L 170.16 194.34 C 168.71 194.27 167.49 195.38 167.42 196.83 C 167.35 198.27 168.47 199.50 169.91 199.57 Z M 170.86 199.58 L 171.91 199.64 C 173.33 199.72 174.56 198.63 174.64 197.20 C 174.72 195.78 173.63 194.56 172.20 194.47 L 171.15 194.41 C 169.72 194.33 168.50 195.42 168.42 196.85 C 168.34 198.28 169.43 199.50 170.86 199.58 Z M 171.88 199.60 L 172.89 199.67 C 174.30 199.76 175.51 198.70 175.61 197.30 C 175.70 195.90 174.64 194.68 173.24 194.58 L 172.23 194.51 C 170.82 194.42 169.61 195.48 169.51 196.88 C 169.42 198.29 170.48 199.50 171.88 199.60 Z M 172.87 199.63 L 173.84 199.70 C 175.22 199.82 176.43 198.78 176.54 197.40 C 176.65 196.02 175.62 194.81 174.24 194.70 L 173.26 194.62 C 171.88 194.51 170.67 195.55 170.56 196.93 C 170.45 198.31 171.48 199.52 172.87 199.63 Z M 173.82 199.66 L 174.78 199.75 C 176.13 199.87 177.34 198.87 177.46 197.51 C 177.58 196.16 176.58 194.95 175.22 194.83 L 174.27 194.74 C 172.91 194.62 171.71 195.62 171.58 196.98 C 171.46 198.34 172.46 199.54 173.82 199.66 Z M 174.75 199.71 L 175.75 199.81 C 177.09 199.94 178.28 198.97 178.41 197.64 C 178.55 196.30 177.58 195.11 176.24 194.98 L 175.24 194.88 C 173.91 194.74 172.72 195.71 172.58 197.05 C 172.45 198.38 173.42 199.57 174.75 199.71 Z M 175.74 199.76 L 176.74 199.87 C 178.04 200.01 179.22 199.07 179.36 197.76 C 179.51 196.46 178.57 195.28 177.26 195.14 L 176.26 195.03 C 174.95 194.88 173.78 195.82 173.63 197.13 C 173.49 198.44 174.43 199.61 175.74 199.76 Z M 176.73 199.82 L 177.72 199.94 C 179.00 200.09 180.16 199.17 180.31 197.89 C 180.46 196.61 179.54 195.45 178.26 195.30 L 177.27 195.18 C 175.99 195.03 174.83 195.95 174.68 197.23 C 174.53 198.51 175.45 199.67 176.73 199.82 Z M 177.71 199.89 L 178.69 200.01 C 179.95 200.16 181.09 199.27 181.24 198.01 C 181.39 196.76 180.50 195.62 179.24 195.47 L 178.26 195.35 C 177.01 195.20 175.87 196.09 175.72 197.34 C 175.57 198.60 176.46 199.74 177.71 199.89 Z M 178.69 199.96 L 179.71 200.08 C 180.94 200.23 182.05 199.36 182.20 198.14 C 182.36 196.91 181.49 195.80 180.26 195.64 L 179.24 195.52 C 178.02 195.37 176.90 196.24 176.75 197.46 C 176.60 198.69 177.47 199.81 178.69 199.96 Z M 179.71 200.03 L 180.71 200.16 C 181.90 200.31 183.00 199.47 183.15 198.27 C 183.31 197.08 182.46 195.98 181.27 195.83 L 180.26 195.70 C 179.07 195.55 177.97 196.39 177.82 197.58 C 177.67 198.78 178.51 199.87 179.71 200.03 Z M 180.70 200.10 L 181.68 200.24 C 182.84 200.40 183.91 199.58 184.07 198.42 C 184.23 197.25 183.42 196.18 182.26 196.02 L 181.28 195.88 C 180.11 195.72 179.04 196.54 178.88 197.70 C 178.72 198.87 179.53 199.94 180.70 200.10 Z M 181.65 200.18 L 182.63 200.33 C 183.76 200.50 184.82 199.72 184.99 198.59 C 185.17 197.46 184.39 196.40 183.26 196.23 L 182.28 196.08 C 181.15 195.90 180.09 196.68 179.92 197.82 C 179.74 198.95 180.52 200.01 181.65 200.18 Z M 182.61 200.27 L 183.62 200.44 C 184.72 200.63 185.76 199.88 185.95 198.78 C 186.13 197.68 185.39 196.64 184.29 196.45 L 183.28 196.28 C 182.18 196.10 181.13 196.84 180.95 197.94 C 180.76 199.04 181.51 200.09 182.61 200.27 Z M 183.61 200.39 L 184.59 200.56 C 185.66 200.75 186.69 200.04 186.88 198.96 C 187.06 197.89 186.35 196.86 185.27 196.67 L 184.30 196.50 C 183.22 196.31 182.20 197.03 182.01 198.10 C 181.82 199.18 182.54 200.20 183.61 200.39 Z M 184.60 200.51 L 185.56 200.68 C 186.60 200.87 187.60 200.17 187.78 199.12 C 187.97 198.07 187.27 197.07 186.22 196.89 L 185.26 196.72 C 184.22 196.54 183.22 197.24 183.04 198.29 C 182.85 199.33 183.55 200.33 184.60 200.51 Z M 185.58 200.64 L 186.57 200.81 C 187.59 200.98 188.56 200.28 188.73 199.26 C 188.90 198.23 188.21 197.26 187.18 197.09 L 186.20 196.93 C 185.17 196.76 184.20 197.45 184.03 198.48 C 183.86 199.50 184.55 200.47 185.58 200.64 Z M 186.58 200.77 L 187.57 200.93 C 188.57 201.09 189.52 200.41 189.68 199.40 C 189.84 198.40 189.16 197.45 188.15 197.29 L 187.17 197.13 C 186.16 196.97 185.22 197.65 185.05 198.66 C 184.89 199.66 185.58 200.61 186.58 200.77 Z M 187.57 200.89 L 188.55 201.05 C 189.54 201.22 190.47 200.55 190.63 199.56 C 190.79 198.58 190.12 197.65 189.14 197.49 L 188.15 197.32 C 187.17 197.16 186.24 197.83 186.07 198.82 C 185.91 199.80 186.58 200.73 187.57 200.89 Z M 188.54 201.02 L 189.50 201.19 C 190.46 201.36 191.38 200.71 191.55 199.74 C 191.72 198.77 191.07 197.85 190.10 197.68 L 189.15 197.52 C 188.18 197.35 187.26 198.00 187.09 198.97 C 186.92 199.93 187.57 200.85 188.54 201.02 Z M 189.49 201.17 L 190.45 201.34 C 191.41 201.51 192.33 200.88 192.50 199.92 C 192.67 198.97 192.04 198.05 191.08 197.88 L 190.11 197.70 C 189.16 197.53 188.24 198.17 188.07 199.12 C 187.90 200.08 188.53 201.00 189.49 201.17 Z M 190.46 201.33 L 191.46 201.51 C 192.41 201.68 193.31 201.05 193.49 200.10 C 193.66 199.15 193.03 198.25 192.08 198.07 L 191.08 197.89 C 190.13 197.72 189.22 198.35 189.05 199.30 C 188.88 200.25 189.51 201.16 190.46 201.33 Z M 191.47 201.49 L 192.47 201.67 C 193.41 201.83 194.31 201.20 194.47 200.26 C 194.63 199.32 194.00 198.42 193.06 198.26 L 192.07 198.09 C 191.13 197.92 190.23 198.55 190.07 199.49 C 189.90 200.43 190.53 201.33 191.47 201.49 Z M 192.48 201.66 L 193.45 201.83 C 194.39 201.98 195.27 201.35 195.43 200.41 C 195.59 199.47 194.96 198.59 194.02 198.43 L 193.05 198.27 C 192.11 198.11 191.23 198.74 191.07 199.68 C 190.91 200.62 191.54 201.51 192.48 201.66 Z M 193.46 201.82 L 194.45 201.98 C 195.39 202.14 196.27 201.50 196.42 200.57 C 196.58 199.63 195.94 198.75 195.00 198.59 L 194.01 198.43 C 193.07 198.28 192.19 198.91 192.04 199.85 C 191.88 200.79 192.52 201.67 193.46 201.82 Z M 194.45 201.98 L 195.46 202.14 C 196.40 202.29 197.28 201.66 197.43 200.72 C 197.58 199.79 196.94 198.91 196.01 198.76 L 195.00 198.60 C 194.06 198.45 193.18 199.08 193.03 200.02 C 192.88 200.95 193.52 201.83 194.45 201.98 Z M 195.47 202.14 L 195.84 202.20 C 196.77 202.35 197.65 201.71 197.80 200.78 C 197.95 199.85 197.31 198.97 196.38 198.82 L 196.01 198.76 C 195.07 198.61 194.20 199.25 194.05 200.18 C 193.90 201.11 194.53 201.99 195.47 202.14 Z"
      fill="black"
      fill-rule="nonzero" /></svg>