<svg xmlns="http://www.w3.org/2000/svg" width="300" height="300" viewBox="0 0 300 300">
<path d="M 126.10 108.15 L 124.73 108.42 C 123.56 108.65 122.80 109.78 123.03 110.95 C 123.25 112.12 124.39 112.89 125.56 112.66 L 126.93 112.39 C 128.10 112.16 128.86 111.03 128.64 109.86 C 128.41 108.69 127.27 107.92 126.10 108.15 Z M 124.66 108.35 L 123.64 108.57 C 122.43 108.84 121.67 110.04 121.94 111.25 C 122.21 112.46 123.41 113.23 124.62 112.96 L 125.63 112.73 C 126.84 112.46 127.61 111.26 127.34 110.05 C 127.07 108.84 125.87 108.08 124.66 108.35 Z M 123.11 108.68 L 122.82 108.82 C 121.67 109.38 121.19 110.77 121.75 111.92 C 122.32 113.08 123.71 113.56 124.86 112.99 L 125.15 112.85 C 126.30 112.29 126.78 110.90 126.22 109.75 C 125.66 108.59 124.27 108.12 123.11 108.68 Z M 123.75 113.26 L 124.39 113.28 C 125.69 113.33 126.78 112.32 126.83 111.02 C 126.88 109.72 125.86 108.63 124.56 108.58 L 123.93 108.55 C 122.63 108.50 121.54 109.52 121.49 110.82 C 121.44 112.12 122.45 113.21 123.75 113.26 Z M 124.67 113.28 L 125.93 113.17 C 127.23 113.06 128.19 111.92 128.08 110.63 C 127.97 109.33 126.83 108.37 125.54 108.48 L 124.28 108.58 C 122.98 108.69 122.02 109.83 122.13 111.13 C 122.24 112.42 123.38 113.38 124.67 113.28 Z M 126.08 113.15 L 127.22 112.98 C 128.50 112.79 129.39 111.59 129.20 110.31 C 129.01 109.03 127.82 108.14 126.53 108.33 L 125.39 108.50 C 124.11 108.69 123.22 109.88 123.41 111.17 C 123.60 112.45 124.80 113.34 126.08 113.15 Z M 127.34 112.95 L 128.21 112.78 C 129.48 112.52 130.31 111.29 130.05 110.02 C 129.80 108.75 128.56 107.93 127.29 108.18 L 126.42 108.36 C 125.15 108.61 124.32 109.85 124.58 111.12 C 124.83 112.38 126.07 113.21 127.34 112.95 Z M 128.30 112.75 L 129.23 112.53 C 130.48 112.23 131.26 110.97 130.96 109.71 C 130.66 108.46 129.39 107.68 128.14 107.98 L 127.21 108.21 C 125.96 108.51 125.18 109.77 125.48 111.02 C 125.78 112.28 127.04 113.05 128.30 112.75 Z M 129.29 112.51 L 130.29 112.24 C 131.53 111.90 132.27 110.62 131.93 109.38 C 131.60 108.14 130.32 107.40 129.08 107.74 L 128.07 108.01 C 126.83 108.34 126.10 109.62 126.43 110.87 C 126.77 112.11 128.05 112.84 129.29 112.51 Z M 130.34 112.21 L 131.44 111.89 C 132.67 111.53 133.37 110.24 133.01 109.01 C 132.65 107.78 131.36 107.07 130.13 107.44 L 129.03 107.76 C 127.80 108.12 127.10 109.41 127.46 110.64 C 127.82 111.87 129.11 112.58 130.34 112.21 Z M 131.47 111.88 L 132.42 111.58 C 133.64 111.21 134.32 109.91 133.95 108.69 C 133.57 107.47 132.27 106.78 131.05 107.16 L 130.10 107.45 C 128.88 107.83 128.19 109.12 128.57 110.35 C 128.95 111.57 130.24 112.25 131.47 111.88 Z M 132.43 111.57 L 133.38 111.27 C 134.60 110.89 135.27 109.59 134.89 108.37 C 134.50 107.15 133.20 106.48 131.98 106.87 L 131.03 107.17 C 129.82 107.55 129.14 108.85 129.53 110.07 C 129.92 111.29 131.22 111.96 132.43 111.57 Z M 133.39 111.26 L 134.37 110.95 C 135.58 110.56 136.25 109.26 135.86 108.04 C 135.46 106.83 134.17 106.17 132.95 106.56 L 131.97 106.88 C 130.76 107.27 130.10 108.57 130.49 109.78 C 130.88 110.99 132.18 111.66 133.39 111.26 Z M 134.38 110.94 L 135.37 110.62 C 136.57 110.22 137.23 108.92 136.84 107.71 C 136.44 106.51 135.14 105.85 133.93 106.24 L 132.95 106.57 C 131.74 106.96 131.08 108.26 131.48 109.47 C 131.87 110.68 133.17 111.34 134.38 110.94 Z M 135.37 110.61 L 136.34 110.29 C 137.55 109.89 138.20 108.59 137.80 107.39 C 137.40 106.18 136.10 105.53 134.90 105.93 L 133.93 106.25 C 132.72 106.65 132.07 107.95 132.47 109.15 C 132.87 110.36 134.17 111.01 135.37 110.61 Z M 136.34 110.28 L 137.28 109.97 C 138.48 109.57 139.13 108.28 138.73 107.07 C 138.33 105.87 137.03 105.22 135.83 105.62 L 134.90 105.93 C 133.70 106.33 133.05 107.63 133.45 108.83 C 133.84 110.03 135.14 110.68 136.34 110.28 Z M 137.28 109.97 L 138.28 109.63 C 139.48 109.23 140.13 107.94 139.73 106.74 C 139.33 105.54 138.03 104.90 136.84 105.29 L 135.83 105.63 C 134.63 106.03 133.99 107.32 134.39 108.52 C 134.79 109.72 136.08 110.37 137.28 109.97 Z M 138.28 109.62 L 139.31 109.28 C 140.51 108.88 141.15 107.59 140.75 106.40 C 140.35 105.20 139.06 104.56 137.87 104.96 L 136.84 105.30 C 135.64 105.70 135.00 106.99 135.40 108.18 C 135.80 109.38 137.09 110.02 138.28 109.62 Z M 139.31 109.27 L 140.26 108.95 C 141.45 108.55 142.09 107.26 141.69 106.08 C 141.29 104.89 140.01 104.25 138.82 104.65 L 137.87 104.97 C 136.68 105.37 136.04 106.65 136.44 107.84 C 136.84 109.03 138.13 109.67 139.31 109.27 Z M 140.27 108.94 L 141.16 108.64 C 142.35 108.23 142.98 106.95 142.58 105.77 C 142.17 104.59 140.89 103.95 139.71 104.35 L 138.81 104.66 C 137.63 105.06 137.00 106.34 137.40 107.53 C 137.80 108.71 139.09 109.34 140.27 108.94 Z M 141.17 108.62 L 142.03 108.32 C 143.21 107.92 143.83 106.64 143.43 105.46 C 143.02 104.29 141.74 103.66 140.56 104.07 L 139.70 104.37 C 138.53 104.77 137.90 106.06 138.31 107.23 C 138.71 108.41 140.00 109.03 141.17 108.62 Z M 142.04 108.31 L 142.98 107.98 C 144.15 107.57 144.76 106.29 144.35 105.12 C 143.94 103.95 142.66 103.34 141.49 103.75 L 140.55 104.08 C 139.38 104.49 138.77 105.78 139.18 106.94 C 139.60 108.11 140.88 108.72 142.04 108.31 Z M 142.99 107.97 L 143.96 107.62 C 145.12 107.20 145.73 105.93 145.31 104.76 C 144.90 103.60 143.62 103.00 142.46 103.42 L 141.48 103.76 C 140.32 104.18 139.72 105.46 140.13 106.62 C 140.55 107.78 141.83 108.38 142.99 107.97 Z M 143.96 107.61 L 144.91 107.27 C 146.07 106.85 146.67 105.58 146.25 104.43 C 145.84 103.27 144.57 102.67 143.41 103.08 L 142.46 103.42 C 141.31 103.84 140.70 105.11 141.12 106.27 C 141.53 107.42 142.81 108.02 143.96 107.61 Z M 144.90 107.26 L 145.81 106.94 C 146.97 106.53 147.57 105.27 147.16 104.12 C 146.76 102.96 145.49 102.36 144.34 102.77 L 143.43 103.09 C 142.27 103.50 141.67 104.76 142.08 105.91 C 142.48 107.07 143.75 107.67 144.90 107.26 Z M 145.79 106.94 L 146.69 106.63 C 147.84 106.24 148.46 104.99 148.06 103.84 C 147.67 102.68 146.42 102.07 145.27 102.46 L 144.37 102.77 C 143.22 103.16 142.60 104.41 142.99 105.56 C 143.38 106.71 144.64 107.33 145.79 106.94 Z M 146.65 106.63 L 147.56 106.33 C 148.71 105.97 149.35 104.74 148.98 103.59 C 148.61 102.44 147.38 101.80 146.23 102.17 L 145.32 102.46 C 144.17 102.83 143.53 104.06 143.90 105.21 C 144.27 106.36 145.50 106.99 146.65 106.63 Z M 147.51 106.33 L 148.43 106.06 C 149.58 105.73 150.24 104.52 149.91 103.37 C 149.57 102.23 148.37 101.57 147.22 101.90 L 146.29 102.17 C 145.14 102.51 144.48 103.71 144.82 104.86 C 145.15 106.01 146.36 106.67 147.51 106.33 Z M 148.37 106.06 L 149.37 105.80 C 150.52 105.50 151.21 104.32 150.90 103.17 C 150.60 102.03 149.43 101.34 148.28 101.64 L 147.28 101.90 C 146.13 102.20 145.45 103.38 145.75 104.53 C 146.05 105.68 147.22 106.36 148.37 106.06 Z M 149.32 105.80 L 150.39 105.54 C 151.54 105.27 152.25 104.12 151.98 102.98 C 151.71 101.83 150.56 101.12 149.41 101.39 L 148.34 101.64 C 147.19 101.91 146.48 103.06 146.75 104.21 C 147.02 105.36 148.17 106.07 149.32 105.80 Z M 150.30 105.55 L 151.41 105.34 C 152.56 105.12 153.32 104.01 153.10 102.85 C 152.88 101.70 151.77 100.95 150.62 101.17 L 149.50 101.38 C 148.35 101.60 147.60 102.71 147.82 103.86 C 148.04 105.02 149.15 105.77 150.30 105.55 Z M 151.23 105.35 L 152.26 105.25 C 153.42 105.13 154.27 104.10 154.15 102.93 C 154.03 101.77 153.00 100.93 151.84 101.05 L 150.80 101.15 C 149.64 101.27 148.79 102.31 148.91 103.47 C 149.03 104.63 150.07 105.47 151.23 105.35 Z M 151.87 105.24 L 152.71 105.31 C 153.86 105.41 154.88 104.56 154.98 103.40 C 155.08 102.24 154.22 101.23 153.07 101.13 L 152.23 101.05 C 151.07 100.95 150.06 101.81 149.96 102.97 C 149.86 104.12 150.71 105.14 151.87 105.24 Z M 151.67 104.90 L 152.27 105.33 C 153.20 106.00 154.49 105.80 155.17 104.87 C 155.84 103.94 155.63 102.64 154.70 101.97 L 154.10 101.54 C 153.17 100.87 151.88 101.08 151.20 102.00 C 150.53 102.93 150.74 104.23 151.67 104.90 Z M 151.47 103.90 L 151.58 104.76 C 151.72 105.87 152.73 106.66 153.84 106.52 C 154.95 106.38 155.73 105.37 155.60 104.26 L 155.49 103.40 C 155.36 102.29 154.35 101.51 153.24 101.64 C 152.13 101.78 151.34 102.79 151.47 103.90 Z M 151.70 103.99 L 151.39 105.09 C 151.10 106.14 151.71 107.22 152.76 107.51 C 153.81 107.80 154.89 107.19 155.18 106.14 L 155.48 105.03 C 155.77 103.99 155.16 102.91 154.11 102.62 C 153.07 102.33 151.99 102.94 151.70 103.99 Z M 151.53 104.84 L 151.13 105.76 C 150.70 106.73 151.13 107.86 152.10 108.29 C 153.07 108.71 154.20 108.28 154.63 107.31 L 155.03 106.39 C 155.46 105.43 155.03 104.30 154.06 103.87 C 153.09 103.44 151.96 103.87 151.53 104.84 Z M 151.22 105.66 L 150.76 106.52 C 150.28 107.43 150.63 108.57 151.54 109.06 C 152.46 109.54 153.60 109.19 154.08 108.27 L 154.54 107.41 C 155.02 106.50 154.67 105.36 153.75 104.88 C 152.84 104.39 151.70 104.74 151.22 105.66 Z M 150.83 106.47 L 150.32 107.35 C 149.81 108.23 150.10 109.36 150.98 109.87 C 151.87 110.38 152.99 110.08 153.51 109.20 L 154.02 108.32 C 154.53 107.44 154.23 106.31 153.35 105.80 C 152.47 105.29 151.34 105.59 150.83 106.47 Z M 150.36 107.33 L 149.82 108.23 C 149.30 109.08 149.57 110.19 150.43 110.71 C 151.28 111.23 152.40 110.96 152.91 110.11 L 153.46 109.21 C 153.98 108.36 153.70 107.25 152.85 106.73 C 152.00 106.21 150.88 106.48 150.36 107.33 Z M 149.85 108.24 L 149.32 109.09 C 148.81 109.93 149.07 111.03 149.91 111.54 C 150.75 112.06 151.85 111.79 152.37 110.95 L 152.89 110.10 C 153.40 109.26 153.14 108.16 152.30 107.65 C 151.46 107.13 150.36 107.40 149.85 108.24 Z M 149.34 109.10 L 148.83 109.93 C 148.32 110.76 148.58 111.85 149.42 112.36 C 150.25 112.87 151.34 112.61 151.85 111.77 L 152.35 110.94 C 152.86 110.11 152.60 109.02 151.77 108.51 C 150.93 108.00 149.85 108.27 149.34 109.10 Z M 148.84 109.93 L 148.32 110.77 C 147.81 111.60 148.07 112.68 148.89 113.19 C 149.72 113.70 150.80 113.44 151.31 112.62 L 151.83 111.78 C 152.34 110.95 152.09 109.87 151.26 109.35 C 150.44 108.84 149.35 109.10 148.84 109.93 Z M 148.34 110.76 L 147.80 111.62 C 147.28 112.44 147.53 113.52 148.34 114.03 C 149.16 114.55 150.24 114.30 150.76 113.48 L 151.30 112.63 C 151.81 111.81 151.57 110.73 150.75 110.21 C 149.93 109.70 148.85 109.94 148.34 110.76 Z M 147.82 111.60 L 147.25 112.48 C 146.73 113.29 146.95 114.36 147.76 114.89 C 148.57 115.41 149.64 115.18 150.17 114.38 L 150.74 113.50 C 151.26 112.69 151.03 111.62 150.22 111.09 C 149.42 110.57 148.34 110.80 147.82 111.60 Z M 147.27 112.46 L 146.72 113.28 C 146.18 114.08 146.40 115.16 147.19 115.69 C 147.99 116.22 149.06 116.01 149.60 115.22 L 150.15 114.39 C 150.68 113.60 150.47 112.52 149.67 111.99 C 148.88 111.45 147.80 111.67 147.27 112.46 Z M 146.73 113.27 L 146.16 114.10 C 145.62 114.89 145.82 115.97 146.61 116.51 C 147.40 117.05 148.47 116.85 149.02 116.06 L 149.59 115.23 C 150.13 114.44 149.93 113.36 149.14 112.82 C 148.35 112.28 147.27 112.48 146.73 113.27 Z M 146.16 114.09 L 145.59 114.92 C 145.04 115.71 145.23 116.79 146.02 117.33 C 146.80 117.88 147.88 117.69 148.43 116.90 L 149.01 116.07 C 149.56 115.28 149.36 114.20 148.58 113.66 C 147.79 113.11 146.71 113.30 146.16 114.09 Z M 145.59 114.92 L 145.01 115.74 C 144.46 116.53 144.66 117.61 145.44 118.16 C 146.22 118.70 147.30 118.51 147.85 117.73 L 148.43 116.90 C 148.98 116.12 148.79 115.04 148.00 114.49 C 147.22 113.94 146.14 114.13 145.59 114.92 Z M 145.01 115.75 L 144.45 116.55 C 143.90 117.34 144.09 118.42 144.88 118.97 C 145.66 119.51 146.74 119.32 147.29 118.53 L 147.85 117.72 C 148.40 116.94 148.21 115.86 147.42 115.31 C 146.64 114.77 145.56 114.96 145.01 115.75 Z M 144.44 116.56 L 143.83 117.44 C 143.28 118.23 143.48 119.32 144.28 119.86 C 145.07 120.41 146.15 120.21 146.70 119.41 L 147.30 118.53 C 147.85 117.74 147.65 116.65 146.85 116.11 C 146.06 115.57 144.98 115.77 144.44 116.56 Z M 143.80 117.44 L 143.23 118.30 C 142.68 119.10 142.89 120.20 143.70 120.74 C 144.50 121.28 145.60 121.07 146.14 120.27 L 146.72 119.41 C 147.26 118.61 147.05 117.52 146.25 116.97 C 145.44 116.43 144.35 116.64 143.80 117.44 Z M 143.20 118.30 L 142.66 119.13 C 142.12 119.94 142.34 121.04 143.16 121.59 C 143.97 122.13 145.07 121.91 145.62 121.09 L 146.16 120.26 C 146.70 119.45 146.48 118.35 145.66 117.80 C 144.85 117.26 143.75 117.48 143.20 118.30 Z M 142.63 119.13 L 142.12 119.92 C 141.58 120.75 141.81 121.86 142.64 122.40 C 143.47 122.94 144.58 122.71 145.12 121.88 L 145.64 121.08 C 146.18 120.25 145.94 119.14 145.11 118.60 C 144.28 118.06 143.17 118.30 142.63 119.13 Z M 142.09 119.93 L 141.57 120.74 C 141.04 121.59 141.29 122.71 142.13 123.25 C 142.98 123.78 144.10 123.53 144.64 122.69 L 145.15 121.87 C 145.69 121.03 145.44 119.90 144.59 119.37 C 143.75 118.83 142.63 119.08 142.09 119.93 Z M 141.53 120.75 L 141.02 121.59 C 140.49 122.46 140.76 123.60 141.63 124.13 C 142.50 124.66 143.63 124.38 144.17 123.51 L 144.68 122.68 C 145.21 121.81 144.93 120.67 144.07 120.14 C 143.20 119.61 142.06 119.88 141.53 120.75 Z M 140.96 121.62 L 140.48 122.47 C 139.96 123.37 140.27 124.51 141.17 125.03 C 142.07 125.55 143.21 125.24 143.73 124.34 L 144.22 123.49 C 144.74 122.59 144.43 121.44 143.53 120.92 C 142.63 120.41 141.48 120.72 140.96 121.62 Z M 140.42 122.51 L 139.94 123.40 C 139.45 124.33 139.80 125.49 140.73 125.98 C 141.67 126.48 142.82 126.12 143.32 125.19 L 143.79 124.30 C 144.29 123.37 143.93 122.21 143.00 121.72 C 142.07 121.22 140.91 121.58 140.42 122.51 Z M 139.88 123.45 L 139.45 124.34 C 138.98 125.30 139.38 126.47 140.34 126.94 C 141.31 127.41 142.48 127.01 142.95 126.04 L 143.38 125.15 C 143.85 124.18 143.45 123.02 142.48 122.55 C 141.51 122.08 140.35 122.48 139.88 123.45 Z M 139.38 124.38 L 138.98 125.28 C 138.53 126.28 138.98 127.46 139.98 127.90 C 140.98 128.35 142.16 127.90 142.60 126.90 L 143.01 126.00 C 143.46 125.00 143.01 123.82 142.01 123.37 C 141.01 122.93 139.83 123.37 139.38 124.38 Z M 138.92 125.32 L 138.53 126.25 C 138.10 127.29 138.59 128.48 139.63 128.90 C 140.66 129.33 141.85 128.84 142.28 127.80 L 142.67 126.87 C 143.10 125.83 142.60 124.64 141.57 124.22 C 140.53 123.79 139.34 124.28 138.92 125.32 Z M 138.47 126.30 L 138.10 127.25 C 137.70 128.32 138.24 129.52 139.31 129.92 C 140.38 130.33 141.57 129.79 141.98 128.72 L 142.34 127.76 C 142.75 126.69 142.21 125.50 141.14 125.09 C 140.07 124.69 138.87 125.22 138.47 126.30 Z M 138.04 127.30 L 137.71 128.26 C 137.34 129.36 137.93 130.56 139.03 130.94 C 140.13 131.32 141.34 130.73 141.71 129.62 L 142.04 128.67 C 142.42 127.56 141.83 126.36 140.73 125.98 C 139.62 125.61 138.42 126.19 138.04 127.30 Z M 137.66 128.32 L 137.36 129.32 C 137.02 130.46 137.66 131.65 138.80 131.99 C 139.93 132.33 141.13 131.69 141.47 130.56 L 141.77 129.56 C 142.11 128.42 141.47 127.23 140.33 126.89 C 139.20 126.55 138.00 127.19 137.66 128.32 Z M 137.31 129.40 L 137.06 130.38 C 136.76 131.54 137.46 132.72 138.62 133.02 C 139.78 133.31 140.96 132.62 141.26 131.46 L 141.51 130.48 C 141.81 129.32 141.11 128.14 139.95 127.84 C 138.80 127.54 137.61 128.24 137.31 129.40 Z M 137.02 130.45 L 136.81 131.41 C 136.56 132.60 137.31 133.76 138.49 134.02 C 139.68 134.27 140.84 133.52 141.10 132.34 L 141.30 131.38 C 141.56 130.20 140.81 129.03 139.63 128.77 C 138.44 128.52 137.28 129.27 137.02 130.45 Z M 136.77 131.49 L 136.61 132.44 C 136.39 133.64 137.20 134.79 138.40 135.00 C 139.61 135.22 140.76 134.41 140.97 133.21 L 141.14 132.26 C 141.35 131.06 140.55 129.91 139.34 129.69 C 138.14 129.48 136.99 130.28 136.77 131.49 Z M 136.58 132.51 L 136.44 133.49 C 136.27 134.71 137.12 135.84 138.34 136.01 C 139.56 136.18 140.69 135.33 140.86 134.11 L 141.00 133.13 C 141.17 131.91 140.32 130.78 139.10 130.61 C 137.88 130.44 136.75 131.29 136.58 132.51 Z M 136.42 133.57 L 136.32 134.55 C 136.19 135.78 137.08 136.88 138.31 137.01 C 139.54 137.14 140.65 136.25 140.78 135.02 L 140.88 134.03 C 141.01 132.80 140.12 131.70 138.89 131.57 C 137.65 131.44 136.55 132.33 136.42 133.57 Z M 136.30 134.61 L 136.23 135.61 C 136.14 136.85 137.07 137.93 138.31 138.02 C 139.55 138.12 140.63 137.18 140.72 135.94 L 140.79 134.95 C 140.89 133.71 139.96 132.63 138.71 132.54 C 137.47 132.44 136.39 133.37 136.30 134.61 Z M 136.21 135.67 L 136.16 136.69 C 136.10 137.94 137.07 139.00 138.31 139.06 C 139.56 139.12 140.62 138.16 140.68 136.91 L 140.73 135.89 C 140.79 134.64 139.83 133.58 138.58 133.52 C 137.34 133.46 136.27 134.42 136.21 135.67 Z M 136.16 136.73 L 136.13 137.75 C 136.09 139.00 137.08 140.04 138.33 140.08 C 139.58 140.12 140.62 139.13 140.66 137.88 L 140.69 136.86 C 140.73 135.61 139.74 134.57 138.49 134.53 C 137.24 134.50 136.19 135.48 136.16 136.73 Z M 136.13 137.78 L 136.11 138.80 C 136.09 140.05 137.09 141.08 138.34 141.10 C 139.60 141.12 140.63 140.12 140.65 138.87 L 140.66 137.85 C 140.68 136.60 139.68 135.56 138.43 135.55 C 137.18 135.53 136.15 136.53 136.13 137.78 Z M 136.11 138.82 L 136.10 139.83 C 136.10 141.08 137.11 142.10 138.36 142.11 C 139.61 142.12 140.63 141.11 140.64 139.86 L 140.65 138.85 C 140.65 137.60 139.65 136.58 138.39 136.57 C 137.14 136.56 136.12 137.57 136.11 138.82 Z M 136.10 139.84 L 136.10 140.81 C 136.10 142.06 137.12 143.08 138.37 143.08 C 139.62 143.08 140.64 142.07 140.64 140.82 L 140.64 139.85 C 140.64 138.60 139.63 137.58 138.37 137.58 C 137.12 137.58 136.11 138.59 136.10 139.84 Z M 136.11 140.81 L 136.11 141.85 C 136.11 143.10 137.12 144.11 138.37 144.11 C 139.62 144.11 140.64 143.10 140.64 141.85 L 140.64 140.81 C 140.64 139.56 139.62 138.55 138.37 138.55 C 137.12 138.55 136.11 139.56 136.11 140.81 Z M 136.11 141.85 L 136.12 142.85 C 136.12 144.10 137.13 145.11 138.38 145.10 C 139.63 145.10 140.64 144.09 140.63 142.84 L 140.63 141.84 C 140.62 140.59 139.61 139.59 138.36 139.59 C 137.12 139.59 136.11 140.61 136.11 141.85 Z M 136.12 142.87 L 136.13 143.84 C 136.15 145.08 137.16 146.08 138.41 146.07 C 139.65 146.05 140.65 145.04 140.63 143.79 L 140.62 142.82 C 140.61 141.58 139.59 140.58 138.35 140.60 C 137.11 140.61 136.11 141.63 136.12 142.87 Z M 136.14 143.86 L 136.16 144.82 C 136.19 146.06 137.21 147.04 138.45 147.01 C 139.69 146.99 140.67 145.97 140.64 144.73 L 140.63 143.77 C 140.60 142.53 139.58 141.55 138.34 141.58 C 137.10 141.60 136.12 142.62 136.14 143.86 Z M 136.17 144.85 L 136.20 145.78 C 136.24 147.01 137.28 147.98 138.51 147.94 C 139.74 147.90 140.71 146.86 140.67 145.63 L 140.63 144.70 C 140.59 143.47 139.56 142.50 138.33 142.54 C 137.10 142.58 136.13 143.62 136.17 144.85 Z M 136.21 145.83 L 136.27 146.81 C 136.33 148.03 137.38 148.98 138.61 148.91 C 139.83 148.84 140.77 147.80 140.71 146.57 L 140.65 145.59 C 140.59 144.36 139.54 143.42 138.32 143.49 C 137.09 143.55 136.15 144.60 136.21 145.83 Z M 136.28 146.86 L 136.36 147.91 C 136.46 149.13 137.52 150.04 138.74 149.94 C 139.96 149.85 140.87 148.78 140.78 147.56 L 140.69 146.52 C 140.60 145.30 139.53 144.39 138.31 144.48 C 137.10 144.58 136.18 145.64 136.28 146.86 Z M 136.38 147.97 L 136.48 148.99 C 136.61 150.20 137.70 151.08 138.91 150.95 C 140.12 150.82 140.99 149.74 140.87 148.53 L 140.76 147.51 C 140.63 146.30 139.55 145.42 138.34 145.54 C 137.13 145.67 136.25 146.76 136.38 147.97 Z M 136.50 149.04 L 136.62 150.00 C 136.78 151.20 137.88 152.05 139.08 151.90 C 140.28 151.74 141.13 150.65 140.98 149.44 L 140.85 148.48 C 140.70 147.28 139.60 146.43 138.40 146.58 C 137.20 146.74 136.35 147.84 136.50 149.04 Z M 136.64 150.04 L 136.78 151.03 C 136.96 152.23 138.06 153.05 139.26 152.88 C 140.45 152.71 141.28 151.60 141.11 150.40 L 140.96 149.41 C 140.79 148.21 139.68 147.39 138.49 147.56 C 137.29 147.73 136.46 148.84 136.64 150.04 Z M 136.80 151.06 L 136.96 152.07 C 137.15 153.26 138.26 154.06 139.45 153.88 C 140.63 153.69 141.44 152.57 141.25 151.39 L 141.09 150.37 C 140.90 149.19 139.79 148.38 138.60 148.57 C 137.42 148.76 136.61 149.87 136.80 151.06 Z M 136.97 152.10 L 137.15 153.11 C 137.35 154.28 138.47 155.07 139.65 154.87 C 140.82 154.67 141.61 153.55 141.41 152.37 L 141.24 151.36 C 141.04 150.18 139.92 149.39 138.74 149.60 C 137.56 149.80 136.77 150.92 136.97 152.10 Z M 137.17 153.13 L 137.36 154.20 C 137.58 155.37 138.70 156.14 139.87 155.92 C 141.04 155.70 141.81 154.58 141.59 153.42 L 141.39 152.35 C 141.18 151.18 140.05 150.41 138.89 150.63 C 137.72 150.84 136.95 151.96 137.17 153.13 Z M 137.40 154.26 L 137.63 155.31 C 137.88 156.45 139.01 157.18 140.16 156.93 C 141.31 156.68 142.04 155.54 141.78 154.40 L 141.56 153.35 C 141.30 152.21 140.17 151.48 139.02 151.73 C 137.88 151.98 137.15 153.12 137.40 154.26 Z M 137.68 155.43 L 137.96 156.39 C 138.28 157.51 139.45 158.16 140.56 157.84 C 141.68 157.51 142.33 156.35 142.01 155.23 L 141.73 154.27 C 141.41 153.15 140.24 152.51 139.13 152.83 C 138.01 153.15 137.36 154.32 137.68 155.43 Z M 138.06 156.60 L 138.40 157.45 C 138.83 158.51 140.05 159.02 141.11 158.59 C 142.18 158.15 142.69 156.94 142.25 155.87 L 141.91 155.03 C 141.48 153.96 140.26 153.45 139.20 153.89 C 138.13 154.32 137.62 155.53 138.06 156.60 Z M 138.60 157.77 L 139.11 158.57 C 139.73 159.53 141.00 159.80 141.95 159.19 C 142.91 158.58 143.18 157.31 142.57 156.35 L 142.06 155.55 C 141.44 154.60 140.17 154.32 139.22 154.93 C 138.26 155.54 137.99 156.82 138.60 157.77 Z M 139.44 158.92 L 140.16 159.61 C 140.97 160.38 142.24 160.36 143.02 159.55 C 143.79 158.75 143.76 157.47 142.96 156.70 L 142.24 156.01 C 141.44 155.23 140.16 155.26 139.39 156.06 C 138.61 156.87 138.64 158.15 139.44 158.92 Z M 140.46 159.80 L 141.27 160.34 C 142.18 160.95 143.41 160.71 144.02 159.80 C 144.63 158.89 144.38 157.66 143.47 157.05 L 142.66 156.51 C 141.75 155.90 140.52 156.14 139.92 157.05 C 139.31 157.96 139.55 159.19 140.46 159.80 Z M 141.41 160.39 L 142.03 160.74 C 142.96 161.27 144.15 160.94 144.68 160.01 C 145.21 159.07 144.88 157.88 143.95 157.35 L 143.33 157.00 C 142.40 156.47 141.21 156.80 140.68 157.74 C 140.15 158.67 140.48 159.86 141.41 160.39 Z"
      fill="black"
      fill-rule="nonzero" /><path d="M 135.66 125.93 L 134.99 126.95 C 134.29 128.02 134.59 129.46 135.67 130.16 C 136.74 130.86 138.18 130.56 138.88 129.48 L 139.54 128.46 C 140.24 127.39 139.94 125.95 138.87 125.25 C 137.80 124.55 136.36 124.86 135.66 125.93 Z M 134.80 127.31 L 134.42 128.20 C 133.92 129.38 134.47 130.74 135.64 131.24 C 136.82 131.74 138.19 131.20 138.69 130.02 L 139.07 129.13 C 139.57 127.95 139.02 126.59 137.84 126.08 C 136.67 125.58 135.30 126.13 134.80 127.31 Z M 134.33 129.76 L 134.51 130.37 C 134.87 131.60 136.16 132.30 137.39 131.94 C 138.62 131.58 139.32 130.29 138.96 129.06 L 138.78 128.45 C 138.42 127.22 137.13 126.52 135.90 126.88 C 134.67 127.24 133.97 128.53 134.33 129.76 Z M 135.90 131.88 L 136.60 132.14 C 137.79 132.60 139.13 132.01 139.59 130.82 C 140.05 129.62 139.46 128.28 138.26 127.82 L 137.57 127.55 C 136.37 127.09 135.03 127.69 134.57 128.88 C 134.11 130.08 134.71 131.42 135.90 131.88 Z M 137.29 132.29 L 138.34 132.35 C 139.61 132.43 140.71 131.46 140.78 130.19 C 140.86 128.92 139.89 127.82 138.62 127.75 L 137.57 127.68 C 136.30 127.60 135.21 128.57 135.13 129.84 C 135.05 131.12 136.02 132.21 137.29 132.29 Z M 138.65 132.34 L 139.87 132.25 C 141.13 132.15 142.08 131.05 141.99 129.79 C 141.89 128.52 140.79 127.57 139.52 127.67 L 138.31 127.76 C 137.04 127.85 136.10 128.95 136.19 130.22 C 136.28 131.48 137.39 132.43 138.65 132.34 Z M 140.05 132.22 L 141.09 132.06 C 142.34 131.86 143.19 130.69 143.00 129.44 C 142.80 128.19 141.63 127.33 140.38 127.53 L 139.34 127.69 C 138.09 127.89 137.24 129.06 137.43 130.31 C 137.63 131.56 138.80 132.42 140.05 132.22 Z M 141.22 132.03 L 142.20 131.82 C 143.44 131.55 144.22 130.33 143.95 129.09 C 143.68 127.86 142.46 127.07 141.23 127.34 L 140.24 127.56 C 139.01 127.83 138.22 129.05 138.49 130.28 C 138.76 131.52 139.98 132.30 141.22 132.03 Z M 142.30 131.79 L 143.26 131.54 C 144.48 131.21 145.21 129.96 144.89 128.74 C 144.56 127.52 143.31 126.79 142.09 127.11 L 141.13 127.37 C 139.91 127.69 139.18 128.94 139.50 130.17 C 139.83 131.39 141.08 132.12 142.30 131.79 Z M 143.33 131.52 L 144.27 131.24 C 145.48 130.87 146.17 129.60 145.81 128.39 C 145.44 127.18 144.17 126.49 142.96 126.85 L 142.02 127.13 C 140.81 127.50 140.12 128.77 140.49 129.98 C 140.85 131.19 142.12 131.88 143.33 131.52 Z M 144.31 131.22 L 145.28 130.91 C 146.49 130.53 147.15 129.24 146.77 128.04 C 146.38 126.84 145.10 126.17 143.90 126.56 L 142.92 126.87 C 141.72 127.25 141.05 128.54 141.44 129.74 C 141.82 130.94 143.11 131.61 144.31 131.22 Z M 145.31 130.90 L 146.27 130.58 C 147.47 130.19 148.12 128.89 147.72 127.69 C 147.32 126.50 146.03 125.85 144.83 126.25 L 143.87 126.57 C 142.67 126.96 142.02 128.26 142.42 129.45 C 142.82 130.65 144.11 131.30 145.31 130.90 Z M 146.28 130.58 L 147.22 130.26 C 148.42 129.85 149.06 128.56 148.65 127.36 C 148.24 126.17 146.95 125.53 145.75 125.93 L 144.81 126.25 C 143.62 126.66 142.98 127.96 143.39 129.15 C 143.79 130.35 145.09 130.98 146.28 130.58 Z M 147.22 130.26 L 148.13 129.95 C 149.33 129.54 149.97 128.24 149.56 127.05 C 149.15 125.85 147.85 125.22 146.66 125.62 L 145.75 125.93 C 144.55 126.34 143.92 127.64 144.32 128.84 C 144.73 130.03 146.03 130.67 147.22 130.26 Z M 148.12 129.95 L 149.00 129.66 C 150.19 129.26 150.84 127.96 150.44 126.77 C 150.04 125.57 148.74 124.93 147.54 125.33 L 146.67 125.62 C 145.47 126.02 144.83 127.32 145.23 128.51 C 145.63 129.71 146.92 130.35 148.12 129.95 Z M 148.96 129.67 L 149.87 129.38 C 151.08 129.00 151.74 127.72 151.36 126.51 C 150.98 125.31 149.69 124.64 148.49 125.03 L 147.58 125.32 C 146.38 125.70 145.71 126.98 146.09 128.18 C 146.47 129.39 147.76 130.05 148.96 129.67 Z M 149.82 129.40 L 150.82 129.11 C 152.03 128.75 152.72 127.48 152.37 126.27 C 152.02 125.06 150.75 124.37 149.54 124.72 L 148.54 125.01 C 147.33 125.36 146.63 126.63 146.99 127.84 C 147.34 129.06 148.61 129.75 149.82 129.40 Z M 150.76 129.12 L 151.81 128.85 C 153.03 128.52 153.75 127.27 153.43 126.05 C 153.11 124.83 151.86 124.11 150.64 124.43 L 149.59 124.71 C 148.37 125.03 147.64 126.28 147.97 127.50 C 148.29 128.72 149.54 129.45 150.76 129.12 Z M 151.76 128.86 L 152.72 128.62 C 153.95 128.33 154.70 127.09 154.41 125.87 C 154.11 124.64 152.88 123.89 151.65 124.18 L 150.68 124.42 C 149.46 124.71 148.70 125.95 149.00 127.17 C 149.30 128.40 150.53 129.15 151.76 128.86 Z M 152.68 128.63 L 153.70 128.41 C 154.93 128.13 155.70 126.91 155.43 125.68 C 155.15 124.45 153.93 123.68 152.70 123.95 L 151.69 124.18 C 150.46 124.45 149.69 125.67 149.96 126.90 C 150.23 128.13 151.45 128.90 152.68 128.63 Z M 153.65 128.41 L 154.67 128.21 C 155.90 127.96 156.70 126.76 156.45 125.52 C 156.20 124.29 155.00 123.49 153.77 123.74 L 152.75 123.94 C 151.51 124.19 150.72 125.39 150.96 126.63 C 151.21 127.86 152.42 128.66 153.65 128.41 Z M 154.62 128.22 L 155.59 128.04 C 156.83 127.82 157.66 126.64 157.44 125.40 C 157.22 124.16 156.04 123.33 154.80 123.55 L 153.82 123.73 C 152.58 123.95 151.75 125.13 151.97 126.37 C 152.19 127.61 153.38 128.44 154.62 128.22 Z M 155.52 128.05 L 156.54 127.91 C 157.79 127.73 158.66 126.58 158.48 125.33 C 158.30 124.08 157.15 123.22 155.90 123.40 L 154.87 123.54 C 153.63 123.72 152.76 124.87 152.94 126.12 C 153.12 127.37 154.27 128.23 155.52 128.05 Z M 156.39 127.93 L 157.49 127.85 C 158.75 127.76 159.69 126.66 159.60 125.41 C 159.51 124.15 158.42 123.21 157.16 123.30 L 156.06 123.38 C 154.80 123.47 153.86 124.56 153.95 125.82 C 154.04 127.07 155.13 128.02 156.39 127.93 Z M 157.18 127.85 L 158.13 127.91 C 159.39 127.99 160.48 127.03 160.55 125.77 C 160.63 124.51 159.67 123.43 158.41 123.35 L 157.46 123.29 C 156.20 123.21 155.12 124.17 155.04 125.43 C 154.97 126.69 155.92 127.78 157.18 127.85 Z M 157.69 127.85 L 158.53 128.07 C 159.76 128.39 161.01 127.66 161.33 126.43 C 161.65 125.21 160.92 123.96 159.70 123.64 L 158.86 123.42 C 157.63 123.09 156.38 123.82 156.06 125.05 C 155.74 126.27 156.47 127.52 157.69 127.85 Z M 158.03 127.87 L 158.83 128.30 C 159.95 128.90 161.34 128.48 161.94 127.36 C 162.54 126.25 162.11 124.86 161.00 124.26 L 160.20 123.83 C 159.08 123.23 157.69 123.65 157.09 124.77 C 156.50 125.89 156.92 127.28 158.03 127.87 Z M 158.35 127.96 L 159.05 128.61 C 159.98 129.47 161.43 129.42 162.29 128.50 C 163.16 127.57 163.11 126.12 162.18 125.26 L 161.48 124.60 C 160.55 123.74 159.10 123.79 158.24 124.72 C 157.38 125.64 157.43 127.09 158.35 127.96 Z M 158.66 128.12 L 159.20 129.02 C 159.86 130.10 161.27 130.44 162.35 129.79 C 163.43 129.13 163.78 127.72 163.12 126.64 L 162.58 125.74 C 161.92 124.66 160.51 124.32 159.43 124.97 C 158.34 125.63 158.00 127.04 158.66 128.12 Z M 158.97 128.51 L 159.27 129.46 C 159.64 130.67 160.93 131.34 162.14 130.97 C 163.34 130.59 164.02 129.31 163.64 128.10 L 163.35 127.15 C 162.97 125.94 161.69 125.26 160.48 125.64 C 159.27 126.01 158.60 127.30 158.97 128.51 Z M 159.19 129.08 L 159.31 130.03 C 159.48 131.28 160.63 132.16 161.88 131.99 C 163.14 131.83 164.02 130.67 163.85 129.42 L 163.72 128.48 C 163.56 127.23 162.41 126.35 161.15 126.51 C 159.90 126.68 159.02 127.83 159.19 129.08 Z M 159.30 129.76 L 159.31 130.77 C 159.33 132.04 160.37 133.04 161.63 133.02 C 162.89 133.00 163.90 131.96 163.88 130.70 L 163.86 129.69 C 163.84 128.43 162.81 127.42 161.55 127.44 C 160.28 127.46 159.28 128.50 159.30 129.76 Z M 159.33 130.56 L 159.24 131.60 C 159.14 132.86 160.08 133.95 161.33 134.05 C 162.59 134.16 163.68 133.22 163.78 131.97 L 163.87 130.92 C 163.97 129.67 163.03 128.57 161.78 128.47 C 160.53 128.37 159.43 129.30 159.33 130.56 Z M 159.27 131.40 L 159.10 132.43 C 158.89 133.67 159.72 134.85 160.96 135.06 C 162.20 135.26 163.37 134.43 163.58 133.19 L 163.76 132.16 C 163.97 130.92 163.13 129.75 161.89 129.54 C 160.65 129.33 159.48 130.16 159.27 131.40 Z M 159.14 132.25 L 158.91 133.16 C 158.59 134.37 159.32 135.61 160.54 135.92 C 161.75 136.23 162.99 135.50 163.30 134.29 L 163.54 133.38 C 163.85 132.16 163.12 130.93 161.90 130.61 C 160.69 130.30 159.45 131.03 159.14 132.25 Z M 158.96 132.99 L 158.66 133.88 C 158.25 135.06 158.88 136.35 160.07 136.75 C 161.25 137.16 162.54 136.53 162.94 135.34 L 163.25 134.46 C 163.65 133.27 163.02 131.98 161.84 131.58 C 160.65 131.17 159.37 131.81 158.96 132.99 Z M 158.72 133.74 L 158.34 134.63 C 157.86 135.78 158.40 137.11 159.55 137.59 C 160.71 138.07 162.03 137.53 162.51 136.38 L 162.89 135.48 C 163.37 134.33 162.83 133.01 161.67 132.52 C 160.52 132.04 159.20 132.58 158.72 133.74 Z M 158.39 134.53 L 157.95 135.46 C 157.41 136.58 157.88 137.93 159.00 138.47 C 160.13 139.01 161.48 138.53 162.01 137.41 L 162.46 136.48 C 163.00 135.36 162.53 134.01 161.40 133.47 C 160.28 132.93 158.93 133.40 158.39 134.53 Z M 157.98 135.39 L 157.46 136.38 C 156.89 137.49 157.31 138.85 158.42 139.42 C 159.52 140.00 160.88 139.57 161.46 138.47 L 161.98 137.48 C 162.55 136.37 162.13 135.01 161.02 134.44 C 159.92 133.86 158.56 134.29 157.98 135.39 Z M 157.49 136.35 L 157.04 137.19 C 156.44 138.27 156.84 139.64 157.93 140.23 C 159.02 140.83 160.38 140.43 160.97 139.34 L 161.43 138.50 C 162.02 137.42 161.62 136.05 160.54 135.46 C 159.45 134.86 158.09 135.26 157.49 136.35 Z M 157.06 137.17 L 156.57 138.04 C 155.96 139.11 156.35 140.47 157.42 141.08 C 158.49 141.68 159.85 141.30 160.46 140.23 L 160.95 139.36 C 161.55 138.28 161.17 136.92 160.10 136.32 C 159.02 135.71 157.66 136.09 157.06 137.17 Z M 156.59 138.02 L 156.08 138.91 C 155.46 139.98 155.83 141.33 156.89 141.95 C 157.95 142.56 159.31 142.20 159.92 141.13 L 160.44 140.24 C 161.05 139.18 160.69 137.83 159.62 137.21 C 158.56 136.60 157.21 136.96 156.59 138.02 Z M 156.10 138.90 L 155.57 139.79 C 154.95 140.84 155.30 142.19 156.35 142.81 C 157.39 143.44 158.75 143.09 159.37 142.04 L 159.90 141.15 C 160.52 140.10 160.17 138.75 159.12 138.13 C 158.08 137.50 156.72 137.85 156.10 138.90 Z M 155.60 139.77 L 155.07 140.65 C 154.44 141.68 154.76 143.03 155.80 143.66 C 156.83 144.29 158.18 143.96 158.81 142.93 L 159.35 142.06 C 159.98 141.02 159.65 139.67 158.61 139.04 C 157.58 138.41 156.23 138.74 155.60 139.77 Z M 155.09 140.63 L 154.57 141.46 C 153.93 142.48 154.24 143.83 155.26 144.47 C 156.28 145.11 157.63 144.80 158.27 143.78 L 158.79 142.95 C 159.43 141.93 159.12 140.58 158.10 139.94 C 157.08 139.30 155.73 139.61 155.09 140.63 Z M 154.61 141.44 L 154.01 142.35 C 153.36 143.35 153.65 144.69 154.64 145.34 C 155.64 145.99 156.98 145.71 157.63 144.71 L 158.23 143.80 C 158.88 142.80 158.59 141.46 157.60 140.81 C 156.60 140.16 155.26 140.44 154.61 141.44 Z M 154.08 142.33 L 153.46 143.23 C 152.80 144.20 153.04 145.51 154.00 146.18 C 154.97 146.84 156.28 146.60 156.95 145.63 L 157.57 144.73 C 158.23 143.77 157.99 142.45 157.02 141.79 C 156.06 141.13 154.74 141.37 154.08 142.33 Z M 153.54 143.20 L 152.94 144.02 C 152.26 144.94 152.46 146.23 153.38 146.91 C 154.30 147.59 155.59 147.39 156.27 146.47 L 156.87 145.66 C 157.55 144.74 157.35 143.44 156.43 142.77 C 155.51 142.09 154.22 142.28 153.54 143.20 Z M 153.03 143.98 L 152.44 144.72 C 151.74 145.59 151.88 146.86 152.75 147.56 C 153.63 148.26 154.90 148.11 155.60 147.24 L 156.18 146.51 C 156.88 145.63 156.74 144.36 155.87 143.66 C 155.00 142.97 153.72 143.11 153.03 143.98 Z M 152.53 144.68 L 151.95 145.35 C 151.23 146.17 151.31 147.41 152.13 148.13 C 152.95 148.85 154.20 148.77 154.92 147.95 L 155.50 147.28 C 156.22 146.46 156.14 145.21 155.32 144.49 C 154.50 143.77 153.25 143.86 152.53 144.68 Z M 152.05 145.30 L 151.36 146.01 C 150.62 146.77 150.63 147.99 151.40 148.73 C 152.16 149.48 153.38 149.46 154.12 148.70 L 154.81 147.99 C 155.55 147.23 155.54 146.01 154.78 145.27 C 154.02 144.52 152.79 144.54 152.05 145.30 Z M 151.47 145.97 L 150.72 146.65 C 149.96 147.36 149.91 148.55 150.62 149.32 C 151.32 150.08 152.51 150.13 153.28 149.42 L 154.02 148.74 C 154.78 148.03 154.83 146.84 154.13 146.08 C 153.42 145.31 152.23 145.26 151.47 145.97 Z M 150.81 146.64 L 150.05 147.28 C 149.28 147.94 149.19 149.10 149.85 149.87 C 150.50 150.64 151.66 150.74 152.44 150.08 L 153.19 149.44 C 153.96 148.78 154.06 147.62 153.40 146.85 C 152.74 146.07 151.58 145.98 150.81 146.64 Z M 150.12 147.29 L 149.36 147.91 C 148.59 148.53 148.47 149.66 149.09 150.43 C 149.72 151.20 150.85 151.31 151.61 150.69 L 152.37 150.07 C 153.14 149.45 153.26 148.32 152.64 147.55 C 152.01 146.78 150.88 146.66 150.12 147.29 Z M 149.38 147.92 L 149.12 148.13 C 148.36 148.74 148.24 149.85 148.85 150.61 C 149.46 151.37 150.57 151.49 151.33 150.88 L 151.59 150.67 C 152.35 150.07 152.47 148.96 151.86 148.20 C 151.25 147.44 150.14 147.31 149.38 147.92 Z"
      fill="black"
      fill-rule="nonzero" /><path d="M 141.87 141.93 L 142.76 142.37 C 143.85 142.90 145.16 142.45 145.70 141.37 C 146.23 140.28 145.78 138.97 144.69 138.44 L 143.80 138.00 C 142.71 137.47 141.40 137.92 140.87 139.00 C 140.34 140.09 140.78 141.40 141.87 141.93 Z M 142.87 142.37 L 143.79 142.77 C 144.87 143.24 146.13 142.74 146.61 141.66 C 147.08 140.57 146.58 139.31 145.50 138.84 L 144.58 138.44 C 143.50 137.97 142.24 138.46 141.76 139.55 C 141.29 140.63 141.79 141.90 142.87 142.37 Z M 143.98 142.79 L 144.93 143.10 C 146.03 143.47 147.21 142.88 147.58 141.78 C 147.94 140.68 147.35 139.49 146.25 139.13 L 145.30 138.81 C 144.20 138.45 143.02 139.04 142.65 140.14 C 142.29 141.24 142.88 142.42 143.98 142.79 Z M 145.20 143.13 L 146.17 143.32 C 147.29 143.54 148.36 142.81 148.58 141.70 C 148.80 140.59 148.07 139.51 146.96 139.29 L 145.98 139.10 C 144.87 138.88 143.79 139.61 143.57 140.72 C 143.36 141.84 144.08 142.91 145.20 143.13 Z M 146.42 143.32 L 147.42 143.40 C 148.53 143.48 149.50 142.64 149.58 141.53 C 149.66 140.41 148.82 139.44 147.71 139.36 L 146.71 139.29 C 145.60 139.21 144.63 140.05 144.55 141.16 C 144.47 142.28 145.31 143.24 146.42 143.32 Z M 147.60 143.38 L 148.61 143.36 C 149.71 143.34 150.59 142.43 150.57 141.33 C 150.55 140.23 149.64 139.35 148.54 139.37 L 147.53 139.38 C 146.43 139.40 145.55 140.31 145.57 141.41 C 145.59 142.52 146.49 143.39 147.60 143.38 Z M 148.73 143.33 L 149.73 143.25 C 150.81 143.16 151.62 142.21 151.54 141.13 C 151.45 140.04 150.50 139.23 149.41 139.32 L 148.42 139.40 C 147.33 139.49 146.52 140.44 146.61 141.52 C 146.70 142.61 147.65 143.41 148.73 143.33 Z M 149.81 143.22 L 150.81 143.10 C 151.88 142.97 152.64 141.99 152.51 140.92 C 152.38 139.85 151.40 139.09 150.33 139.22 L 149.33 139.34 C 148.26 139.48 147.50 140.45 147.63 141.52 C 147.76 142.59 148.74 143.35 149.81 143.22 Z M 150.85 143.09 L 151.83 142.94 C 152.89 142.79 153.63 141.80 153.47 140.74 C 153.32 139.67 152.33 138.94 151.27 139.09 L 150.29 139.23 C 149.23 139.39 148.49 140.38 148.64 141.44 C 148.80 142.50 149.79 143.24 150.85 143.09 Z M 151.82 142.94 L 152.80 142.80 C 153.86 142.65 154.60 141.67 154.45 140.61 C 154.30 139.55 153.32 138.81 152.26 138.96 L 151.28 139.10 C 150.22 139.25 149.48 140.23 149.63 141.29 C 149.78 142.35 150.76 143.09 151.82 142.94 Z M 152.74 142.80 L 153.80 142.69 C 154.86 142.57 155.63 141.62 155.51 140.56 C 155.40 139.50 154.44 138.73 153.38 138.84 L 152.32 138.96 C 151.26 139.07 150.50 140.03 150.61 141.09 C 150.73 142.15 151.68 142.92 152.74 142.80 Z M 153.64 142.69 L 154.74 142.66 C 155.80 142.63 156.64 141.75 156.61 140.68 C 156.58 139.62 155.70 138.78 154.64 138.81 L 153.54 138.84 C 152.47 138.87 151.64 139.75 151.67 140.82 C 151.69 141.88 152.58 142.72 153.64 142.69 Z M 154.37 142.63 L 155.31 142.79 C 156.36 142.96 157.35 142.26 157.52 141.22 C 157.70 140.17 157.00 139.18 155.95 139.01 L 155.01 138.85 C 153.96 138.67 152.97 139.37 152.80 140.42 C 152.62 141.46 153.32 142.45 154.37 142.63 Z M 154.54 142.45 L 155.19 142.91 C 156.05 143.52 157.24 143.31 157.85 142.45 C 158.45 141.59 158.24 140.40 157.38 139.80 L 156.73 139.34 C 155.87 138.73 154.68 138.94 154.07 139.80 C 153.47 140.66 153.68 141.85 154.54 142.45 Z M 154.49 141.93 L 154.76 142.76 C 155.08 143.75 156.14 144.29 157.13 143.97 C 158.12 143.65 158.67 142.59 158.35 141.60 L 158.08 140.78 C 157.76 139.79 156.70 139.24 155.71 139.56 C 154.72 139.88 154.17 140.94 154.49 141.93 Z M 154.71 141.99 L 154.60 143.02 C 154.50 144.04 155.24 144.96 156.26 145.06 C 157.28 145.16 158.19 144.42 158.30 143.40 L 158.40 142.36 C 158.50 141.34 157.76 140.43 156.74 140.33 C 155.72 140.23 154.81 140.97 154.71 141.99 Z M 154.73 142.59 L 154.36 143.62 C 154.01 144.57 154.50 145.62 155.45 145.96 C 156.40 146.31 157.45 145.82 157.79 144.87 L 158.17 143.83 C 158.51 142.89 158.02 141.84 157.07 141.49 C 156.12 141.15 155.07 141.64 154.73 142.59 Z M 154.51 143.34 L 154.03 144.18 C 153.53 145.04 153.82 146.14 154.69 146.64 C 155.55 147.14 156.66 146.85 157.15 145.98 L 157.64 145.15 C 158.14 144.28 157.84 143.18 156.98 142.68 C 156.11 142.18 155.01 142.48 154.51 143.34 Z M 154.17 144.00 L 153.57 144.79 C 152.97 145.57 153.12 146.69 153.90 147.29 C 154.68 147.89 155.80 147.74 156.40 146.96 L 157.01 146.17 C 157.61 145.38 157.46 144.26 156.68 143.66 C 155.89 143.06 154.77 143.21 154.17 144.00 Z M 153.70 144.66 L 152.99 145.41 C 152.33 146.12 152.36 147.24 153.07 147.91 C 153.78 148.58 154.90 148.54 155.57 147.83 L 156.27 147.08 C 156.94 146.37 156.90 145.25 156.19 144.59 C 155.48 143.92 154.36 143.95 153.70 144.66 Z M 153.10 145.32 L 152.35 146.01 C 151.63 146.67 151.58 147.78 152.23 148.49 C 152.89 149.21 154.00 149.26 154.72 148.60 L 155.47 147.92 C 156.18 147.26 156.23 146.15 155.58 145.44 C 154.92 144.72 153.81 144.67 153.10 145.32 Z M 152.42 145.93 L 151.64 146.56 C 150.88 147.17 150.76 148.29 151.37 149.05 C 151.99 149.81 153.10 149.93 153.86 149.31 L 154.64 148.68 C 155.40 148.07 155.52 146.96 154.91 146.20 C 154.30 145.44 153.18 145.32 152.42 145.93 Z M 151.71 146.48 L 150.89 147.07 C 150.09 147.64 149.91 148.76 150.48 149.56 C 151.06 150.36 152.17 150.55 152.97 149.97 L 153.79 149.39 C 154.59 148.81 154.78 147.70 154.20 146.90 C 153.63 146.09 152.51 145.91 151.71 146.48 Z M 150.96 147.00 L 150.12 147.54 C 149.28 148.07 149.03 149.19 149.57 150.03 C 150.11 150.87 151.23 151.12 152.07 150.58 L 152.91 150.04 C 153.75 149.51 153.99 148.39 153.46 147.55 C 152.92 146.71 151.80 146.46 150.96 147.00 Z M 150.19 147.47 L 149.35 147.94 C 148.47 148.44 148.17 149.56 148.67 150.44 C 149.17 151.32 150.29 151.63 151.17 151.13 L 152.00 150.65 C 152.88 150.15 153.19 149.03 152.69 148.15 C 152.18 147.27 151.07 146.96 150.19 147.47 Z M 149.42 147.87 L 148.57 148.29 C 147.64 148.76 147.27 149.88 147.74 150.80 C 148.20 151.73 149.33 152.10 150.25 151.63 L 151.10 151.20 C 152.02 150.74 152.39 149.62 151.93 148.69 C 151.46 147.77 150.34 147.40 149.42 147.87 Z M 148.64 148.22 L 147.74 148.61 C 146.77 149.04 146.33 150.16 146.76 151.13 C 147.18 152.09 148.30 152.53 149.27 152.11 L 150.17 151.71 C 151.14 151.29 151.58 150.16 151.15 149.20 C 150.73 148.23 149.60 147.79 148.64 148.22 Z M 147.81 148.54 L 146.82 148.92 C 145.82 149.30 145.32 150.42 145.70 151.43 C 146.08 152.43 147.21 152.94 148.21 152.55 L 149.20 152.18 C 150.20 151.80 150.70 150.67 150.32 149.67 C 149.94 148.66 148.81 148.16 147.81 148.54 Z M 146.89 148.84 L 145.70 149.23 C 144.66 149.58 144.09 150.71 144.44 151.76 C 144.79 152.81 145.92 153.37 146.97 153.02 L 148.15 152.63 C 149.20 152.28 149.76 151.15 149.41 150.10 C 149.07 149.06 147.93 148.49 146.89 148.84 Z M 145.71 149.16 L 144.50 149.54 C 143.42 149.88 142.81 151.05 143.16 152.13 C 143.50 153.22 144.66 153.83 145.75 153.48 L 146.96 153.10 C 148.05 152.76 148.65 151.59 148.31 150.51 C 147.96 149.42 146.80 148.81 145.71 149.16 Z M 144.41 149.49 L 143.50 149.82 C 142.39 150.21 141.81 151.44 142.20 152.55 C 142.60 153.67 143.82 154.25 144.94 153.85 L 145.85 153.53 C 146.96 153.13 147.54 151.91 147.15 150.79 C 146.75 149.68 145.53 149.10 144.41 149.49 Z M 142.94 150.03 L 142.60 150.27 C 141.61 150.98 141.37 152.36 142.08 153.36 C 142.79 154.35 144.17 154.58 145.17 153.87 L 145.50 153.64 C 146.50 152.93 146.73 151.55 146.02 150.55 C 145.31 149.55 143.93 149.32 142.94 150.03 Z M 143.25 154.23 L 143.74 154.37 C 144.93 154.72 146.18 154.04 146.53 152.85 C 146.88 151.66 146.20 150.41 145.01 150.06 L 144.52 149.91 C 143.33 149.57 142.08 150.25 141.73 151.44 C 141.38 152.63 142.06 153.88 143.25 154.23 Z M 144.27 154.47 L 145.38 154.52 C 146.62 154.58 147.68 153.62 147.74 152.37 C 147.80 151.13 146.84 150.08 145.59 150.02 L 144.48 149.96 C 143.24 149.91 142.18 150.87 142.12 152.11 C 142.07 153.35 143.03 154.41 144.27 154.47 Z M 145.47 154.53 L 146.84 154.53 C 148.09 154.54 149.10 153.53 149.11 152.29 C 149.12 151.04 148.11 150.02 146.86 150.02 L 145.50 150.01 C 144.25 150.00 143.23 151.01 143.23 152.26 C 143.22 153.50 144.23 154.52 145.47 154.53 Z M 146.86 154.53 L 147.85 154.53 C 149.10 154.52 150.10 153.51 150.10 152.27 C 150.10 151.03 149.09 150.02 147.85 150.02 L 146.85 150.02 C 145.61 150.02 144.60 151.03 144.60 152.28 C 144.60 153.52 145.61 154.53 146.86 154.53 Z M 147.87 154.51 L 148.85 154.50 C 150.08 154.49 151.07 153.48 151.06 152.24 C 151.05 151.01 150.04 150.01 148.80 150.03 L 147.83 150.04 C 146.59 150.05 145.60 151.06 145.61 152.30 C 145.62 153.53 146.64 154.52 147.87 154.51 Z M 148.88 154.49 L 149.87 154.46 C 151.10 154.43 152.06 153.41 152.03 152.18 C 152.00 150.95 150.98 149.98 149.75 150.02 L 148.77 150.04 C 147.54 150.07 146.57 151.10 146.60 152.32 C 146.64 153.55 147.66 154.52 148.88 154.49 Z M 149.92 154.44 L 150.94 154.39 C 152.16 154.33 153.10 153.30 153.04 152.08 C 152.98 150.86 151.95 149.92 150.73 149.98 L 149.70 150.03 C 148.48 150.09 147.55 151.13 147.61 152.35 C 147.67 153.56 148.70 154.50 149.92 154.44 Z M 151.00 154.36 L 152.00 154.29 C 153.20 154.20 154.10 153.15 154.01 151.95 C 153.92 150.75 152.88 149.85 151.68 149.94 L 150.68 150.01 C 149.48 150.10 148.57 151.15 148.66 152.35 C 148.75 153.55 149.80 154.45 151.00 154.36 Z M 152.04 154.24 L 153.05 154.15 C 154.23 154.03 155.09 152.99 154.98 151.82 C 154.87 150.64 153.83 149.78 152.65 149.89 L 151.64 149.99 C 150.46 150.10 149.60 151.14 149.71 152.31 C 149.82 153.49 150.86 154.35 152.04 154.24 Z M 153.08 154.10 L 154.10 153.98 C 155.25 153.86 156.08 152.82 155.95 151.68 C 155.82 150.53 154.79 149.70 153.64 149.83 L 152.62 149.94 C 151.48 150.07 150.65 151.10 150.77 152.25 C 150.90 153.39 151.93 154.22 153.08 154.10 Z M 154.12 153.93 L 155.12 153.81 C 156.24 153.67 157.04 152.65 156.90 151.53 C 156.76 150.41 155.74 149.62 154.62 149.76 L 153.62 149.88 C 152.50 150.02 151.71 151.04 151.85 152.16 C 151.98 153.28 153.00 154.07 154.12 153.93 Z M 155.14 153.76 L 156.10 153.63 C 157.19 153.48 157.96 152.47 157.81 151.38 C 157.66 150.29 156.65 149.52 155.56 149.67 L 154.60 149.81 C 153.51 149.96 152.75 150.96 152.90 152.05 C 153.04 153.14 154.05 153.91 155.14 153.76 Z M 156.12 153.56 L 157.20 153.40 C 158.26 153.24 158.99 152.25 158.83 151.20 C 158.67 150.14 157.68 149.41 156.62 149.57 L 155.54 149.74 C 154.48 149.90 153.76 150.88 153.92 151.94 C 154.08 153.00 155.06 153.72 156.12 153.56 Z M 157.22 153.33 L 158.21 153.16 C 159.23 152.99 159.91 152.03 159.74 151.02 C 159.58 150.00 158.61 149.31 157.60 149.48 L 156.61 149.65 C 155.59 149.81 154.90 150.78 155.07 151.79 C 155.24 152.81 156.20 153.50 157.22 153.33 Z M 158.22 153.09 L 159.15 152.93 C 160.12 152.75 160.78 151.82 160.60 150.85 C 160.43 149.87 159.50 149.22 158.52 149.39 L 157.59 149.55 C 156.61 149.73 155.96 150.66 156.14 151.63 C 156.31 152.61 157.24 153.26 158.22 153.09 Z M 159.14 152.87 L 159.77 152.75 C 160.71 152.58 161.34 151.68 161.17 150.73 C 161.00 149.79 160.09 149.16 159.15 149.33 L 158.52 149.45 C 157.58 149.62 156.95 150.52 157.13 151.47 C 157.30 152.41 158.20 153.04 159.14 152.87 Z"
      fill="black"
      fill-rule="nonzero" /><path d="M 131.81 166.08 L 132.70 166.32 C 133.87 166.63 135.07 165.93 135.38 164.77 C 135.69 163.60 134.99 162.40 133.83 162.09 L 132.93 161.86 C 131.76 161.55 130.56 162.24 130.25 163.41 C 129.94 164.57 130.64 165.77 131.81 166.08 Z M 132.74 166.32 L 133.67 166.55 C 134.84 166.84 136.02 166.12 136.30 164.95 C 136.59 163.78 135.87 162.60 134.71 162.32 L 133.78 162.09 C 132.61 161.80 131.43 162.52 131.15 163.69 C 130.86 164.86 131.58 166.04 132.74 166.32 Z M 133.74 166.56 L 134.72 166.76 C 135.89 167.01 137.04 166.25 137.29 165.08 C 137.53 163.90 136.78 162.75 135.60 162.51 L 134.63 162.31 C 133.45 162.06 132.30 162.82 132.06 163.99 C 131.81 165.17 132.57 166.32 133.74 166.56 Z M 134.82 166.78 L 135.87 166.94 C 137.05 167.13 138.16 166.32 138.35 165.14 C 138.54 163.96 137.73 162.85 136.55 162.66 L 135.50 162.49 C 134.32 162.31 133.21 163.11 133.02 164.30 C 132.83 165.48 133.64 166.59 134.82 166.78 Z M 135.98 166.95 L 136.96 167.06 C 138.15 167.19 139.21 166.33 139.34 165.14 C 139.47 163.95 138.61 162.89 137.42 162.76 L 136.44 162.65 C 135.25 162.52 134.19 163.38 134.06 164.57 C 133.93 165.76 134.79 166.82 135.98 166.95 Z M 137.05 167.06 L 137.94 167.12 C 139.13 167.20 140.16 166.30 140.24 165.11 C 140.32 163.92 139.42 162.89 138.23 162.81 L 137.33 162.75 C 136.14 162.67 135.12 163.57 135.04 164.76 C 134.96 165.95 135.86 166.98 137.05 167.06 Z M 138.01 167.12 L 138.96 167.16 C 140.15 167.20 141.15 166.27 141.19 165.07 C 141.23 163.88 140.30 162.89 139.11 162.84 L 138.16 162.81 C 136.97 162.77 135.97 163.70 135.93 164.89 C 135.89 166.08 136.82 167.08 138.01 167.12 Z M 139.01 167.15 L 140.01 167.16 C 141.20 167.17 142.18 166.22 142.19 165.03 C 142.20 163.84 141.24 162.86 140.05 162.85 L 139.05 162.85 C 137.86 162.84 136.89 163.79 136.88 164.98 C 136.87 166.17 137.82 167.14 139.01 167.15 Z M 140.06 167.16 L 141.11 167.14 C 142.30 167.13 143.25 166.15 143.23 164.96 C 143.22 163.77 142.24 162.82 141.05 162.84 L 140.00 162.86 C 138.81 162.87 137.86 163.85 137.88 165.04 C 137.90 166.23 138.88 167.18 140.06 167.16 Z M 141.15 167.14 L 142.25 167.10 C 143.44 167.06 144.37 166.07 144.32 164.88 C 144.28 163.69 143.29 162.77 142.10 162.81 L 141.01 162.84 C 139.82 162.88 138.89 163.88 138.93 165.07 C 138.97 166.25 139.97 167.18 141.15 167.14 Z M 142.29 167.10 L 143.38 167.04 C 144.56 166.98 145.47 165.97 145.41 164.79 C 145.35 163.61 144.34 162.69 143.16 162.75 L 142.07 162.81 C 140.88 162.87 139.97 163.88 140.03 165.06 C 140.09 166.25 141.10 167.16 142.29 167.10 Z M 143.40 167.04 L 144.43 166.97 C 145.61 166.90 146.50 165.88 146.43 164.70 C 146.35 163.52 145.33 162.62 144.15 162.70 L 143.13 162.76 C 141.95 162.84 141.05 163.86 141.13 165.04 C 141.20 166.22 142.22 167.11 143.40 167.04 Z M 144.45 166.96 L 145.48 166.89 C 146.66 166.80 147.54 165.78 147.46 164.60 C 147.37 163.43 146.35 162.54 145.17 162.63 L 144.14 162.70 C 142.96 162.79 142.08 163.81 142.16 164.99 C 142.25 166.16 143.27 167.05 144.45 166.96 Z M 145.49 166.88 L 146.53 166.80 C 147.70 166.71 148.58 165.68 148.49 164.51 C 148.39 163.34 147.37 162.46 146.20 162.55 L 145.16 162.64 C 143.99 162.73 143.11 163.75 143.21 164.92 C 143.30 166.10 144.32 166.97 145.49 166.88 Z M 146.53 166.79 L 147.55 166.71 C 148.72 166.62 149.59 165.60 149.50 164.43 C 149.41 163.26 148.38 162.39 147.21 162.48 L 146.19 162.56 C 145.03 162.66 144.15 163.68 144.25 164.85 C 144.34 166.02 145.36 166.89 146.53 166.79 Z M 147.55 166.71 L 148.54 166.63 C 149.70 166.54 150.57 165.52 150.48 164.35 C 150.39 163.19 149.37 162.32 148.21 162.41 L 147.22 162.49 C 146.05 162.58 145.18 163.60 145.27 164.76 C 145.37 165.93 146.38 166.80 147.55 166.71 Z M 148.53 166.62 L 149.47 166.55 C 150.64 166.47 151.51 165.45 151.42 164.29 C 151.34 163.13 150.32 162.26 149.16 162.34 L 148.22 162.41 C 147.05 162.50 146.18 163.51 146.27 164.67 C 146.35 165.84 147.37 166.71 148.53 166.62 Z M 149.45 166.55 L 150.44 166.48 C 151.60 166.41 152.48 165.41 152.40 164.25 C 152.33 163.09 151.33 162.21 150.17 162.29 L 149.18 162.35 C 148.02 162.42 147.15 163.42 147.22 164.58 C 147.30 165.74 148.29 166.62 149.45 166.55 Z M 150.40 166.47 L 151.55 166.42 C 152.70 166.37 153.59 165.39 153.54 164.23 C 153.48 163.08 152.51 162.19 151.35 162.24 L 150.21 162.30 C 149.05 162.35 148.16 163.33 148.22 164.48 C 148.27 165.64 149.25 166.53 150.40 166.47 Z M 151.50 166.41 L 152.53 166.38 C 153.68 166.36 154.59 165.41 154.56 164.26 C 154.54 163.11 153.59 162.20 152.44 162.23 L 151.40 162.25 C 150.25 162.28 149.35 163.23 149.37 164.38 C 149.40 165.53 150.35 166.43 151.50 166.41 Z M 152.48 166.37 L 153.43 166.38 C 154.57 166.38 155.50 165.46 155.50 164.32 C 155.51 163.18 154.59 162.25 153.45 162.25 L 152.50 162.24 C 151.36 162.24 150.43 163.16 150.42 164.30 C 150.42 165.44 151.34 166.37 152.48 166.37 Z M 153.37 166.36 L 154.26 166.39 C 155.39 166.43 156.34 165.55 156.38 164.42 C 156.42 163.28 155.54 162.33 154.41 162.29 L 153.51 162.26 C 152.38 162.22 151.43 163.11 151.39 164.24 C 151.35 165.37 152.23 166.32 153.37 166.36 Z M 154.19 166.38 L 155.15 166.44 C 156.27 166.52 157.25 165.67 157.32 164.55 C 157.40 163.43 156.55 162.45 155.43 162.38 L 154.47 162.31 C 153.35 162.23 152.38 163.08 152.30 164.20 C 152.22 165.33 153.07 166.30 154.19 166.38 Z M 155.04 166.42 L 156.15 166.56 C 157.26 166.70 158.27 165.91 158.41 164.80 C 158.55 163.69 157.76 162.67 156.65 162.53 L 155.54 162.40 C 154.43 162.26 153.42 163.05 153.28 164.16 C 153.14 165.27 153.93 166.28 155.04 166.42 Z M 155.92 166.51 L 156.90 166.75 C 157.98 167.02 159.08 166.35 159.34 165.27 C 159.61 164.18 158.95 163.09 157.86 162.82 L 156.88 162.58 C 155.79 162.32 154.70 162.98 154.43 164.07 C 154.17 165.15 154.83 166.25 155.92 166.51 Z M 156.49 166.60 L 157.28 166.98 C 158.28 167.47 159.48 167.06 159.97 166.06 C 160.46 165.06 160.05 163.85 159.05 163.36 L 158.27 162.98 C 157.27 162.49 156.06 162.90 155.57 163.90 C 155.08 164.90 155.49 166.11 156.49 166.60 Z M 156.64 166.47 L 157.23 167.16 C 157.94 168.00 159.21 168.10 160.05 167.39 C 160.89 166.67 160.99 165.41 160.28 164.56 L 159.69 163.87 C 158.97 163.03 157.71 162.93 156.86 163.65 C 156.02 164.36 155.92 165.63 156.64 166.47 Z M 156.82 166.28 L 157.02 167.23 C 157.25 168.30 158.31 168.98 159.37 168.75 C 160.44 168.51 161.12 167.46 160.89 166.39 L 160.68 165.44 C 160.45 164.38 159.40 163.70 158.33 163.93 C 157.26 164.16 156.59 165.21 156.82 166.28 Z M 157.04 166.45 L 156.85 167.45 C 156.65 168.51 157.35 169.53 158.41 169.73 C 159.47 169.93 160.49 169.23 160.69 168.17 L 160.87 167.17 C 161.07 166.11 160.37 165.09 159.31 164.89 C 158.25 164.70 157.23 165.39 157.04 166.45 Z M 157.10 166.89 L 156.64 167.71 C 156.13 168.63 156.47 169.80 157.39 170.31 C 158.32 170.82 159.48 170.48 159.99 169.56 L 160.44 168.74 C 160.95 167.81 160.62 166.65 159.69 166.14 C 158.77 165.63 157.61 165.97 157.10 166.89 Z M 156.94 167.39 L 156.29 168.12 C 155.60 168.88 155.66 170.05 156.42 170.73 C 157.18 171.42 158.35 171.36 159.03 170.60 L 159.69 169.87 C 160.37 169.11 160.31 167.95 159.55 167.26 C 158.80 166.58 157.63 166.64 156.94 167.39 Z M 156.51 167.99 L 155.71 168.66 C 154.95 169.29 154.85 170.42 155.48 171.18 C 156.12 171.94 157.24 172.04 158.00 171.40 L 158.81 170.73 C 159.56 170.10 159.67 168.97 159.03 168.21 C 158.40 167.46 157.27 167.35 156.51 167.99 Z M 155.84 168.62 L 155.06 169.18 C 154.27 169.75 154.10 170.84 154.66 171.62 C 155.23 172.40 156.32 172.57 157.10 172.01 L 157.88 171.45 C 158.66 170.88 158.83 169.79 158.27 169.01 C 157.71 168.23 156.62 168.05 155.84 168.62 Z M 155.13 169.15 L 154.35 169.66 C 153.55 170.19 153.32 171.26 153.85 172.06 C 154.37 172.85 155.44 173.08 156.24 172.55 L 157.02 172.04 C 157.82 171.52 158.04 170.45 157.52 169.65 C 157.00 168.85 155.93 168.63 155.13 169.15 Z M 154.41 169.63 L 153.55 170.14 C 152.74 170.63 152.47 171.68 152.95 172.50 C 153.44 173.32 154.50 173.59 155.31 173.10 L 156.17 172.59 C 156.99 172.10 157.26 171.05 156.77 170.23 C 156.29 169.41 155.23 169.14 154.41 169.63 Z M 153.62 170.11 L 152.66 170.63 C 151.83 171.08 151.52 172.12 151.97 172.95 C 152.42 173.78 153.46 174.09 154.29 173.64 L 155.25 173.13 C 156.08 172.68 156.39 171.64 155.94 170.81 C 155.49 169.97 154.45 169.66 153.62 170.11 Z M 152.72 170.60 L 151.84 171.04 C 150.99 171.46 150.64 172.49 151.06 173.33 C 151.48 174.18 152.51 174.53 153.35 174.11 L 154.24 173.67 C 155.09 173.25 155.43 172.22 155.01 171.38 C 154.59 170.53 153.57 170.18 152.72 170.60 Z M 151.88 171.02 L 151.01 171.42 C 150.16 171.82 149.78 172.83 150.18 173.69 C 150.57 174.55 151.59 174.92 152.44 174.53 L 153.31 174.13 C 154.17 173.73 154.54 172.72 154.15 171.86 C 153.75 171.00 152.74 170.63 151.88 171.02 Z M 151.05 171.40 L 150.14 171.80 C 149.27 172.17 148.87 173.17 149.24 174.04 C 149.61 174.91 150.62 175.31 151.49 174.94 L 152.40 174.54 C 153.27 174.17 153.67 173.16 153.30 172.30 C 152.93 171.43 151.92 171.03 151.05 171.40 Z M 150.18 171.78 L 149.22 172.16 C 148.35 172.51 147.92 173.51 148.27 174.38 C 148.62 175.26 149.62 175.69 150.49 175.34 L 151.45 174.95 C 152.32 174.60 152.75 173.61 152.40 172.73 C 152.05 171.86 151.05 171.43 150.18 171.78 Z M 149.26 172.15 L 148.28 172.51 C 147.39 172.84 146.94 173.82 147.27 174.71 C 147.60 175.59 148.58 176.04 149.47 175.72 L 150.45 175.35 C 151.33 175.02 151.79 174.04 151.46 173.16 C 151.13 172.27 150.15 171.82 149.26 172.15 Z M 148.32 172.50 L 147.33 172.83 C 146.44 173.14 145.96 174.11 146.26 175.00 C 146.57 175.89 147.54 176.37 148.43 176.07 L 149.42 175.73 C 150.32 175.43 150.79 174.46 150.49 173.56 C 150.19 172.67 149.22 172.19 148.32 172.50 Z M 147.37 172.82 L 146.38 173.13 C 145.48 173.41 144.98 174.37 145.26 175.27 C 145.54 176.17 146.50 176.67 147.40 176.39 L 148.39 176.08 C 149.29 175.80 149.79 174.84 149.51 173.94 C 149.23 173.04 148.27 172.54 147.37 172.82 Z M 146.41 173.12 L 145.43 173.41 C 144.52 173.68 144.01 174.63 144.27 175.53 C 144.54 176.44 145.49 176.96 146.39 176.69 L 147.38 176.40 C 148.28 176.13 148.80 175.18 148.53 174.28 C 148.27 173.37 147.32 172.85 146.41 173.12 Z M 145.44 173.40 L 144.48 173.68 C 143.57 173.94 143.04 174.88 143.30 175.79 C 143.56 176.70 144.51 177.23 145.41 176.97 L 146.38 176.69 C 147.29 176.44 147.81 175.49 147.56 174.58 C 147.30 173.67 146.35 173.15 145.44 173.40 Z M 144.48 173.68 L 143.54 173.94 C 142.63 174.20 142.11 175.14 142.36 176.05 C 142.62 176.96 143.56 177.49 144.47 177.23 L 145.41 176.97 C 146.32 176.71 146.85 175.77 146.59 174.86 C 146.33 173.95 145.39 173.42 144.48 173.68 Z M 143.53 173.94 L 142.61 174.21 C 141.70 174.48 141.18 175.43 141.44 176.33 C 141.71 177.24 142.65 177.76 143.56 177.50 L 144.49 177.23 C 145.39 176.97 145.92 176.02 145.65 175.11 C 145.39 174.20 144.44 173.68 143.53 173.94 Z M 142.58 174.22 L 141.55 174.53 C 140.64 174.81 140.13 175.77 140.41 176.68 C 140.69 177.58 141.65 178.09 142.56 177.81 L 143.59 177.50 C 144.50 177.22 145.00 176.26 144.73 175.35 C 144.45 174.45 143.49 173.94 142.58 174.22 Z M 141.52 174.53 L 140.54 174.85 C 139.64 175.15 139.14 176.12 139.44 177.03 C 139.74 177.93 140.71 178.43 141.62 178.13 L 142.59 177.81 C 143.49 177.52 143.99 176.54 143.69 175.64 C 143.39 174.73 142.42 174.24 141.52 174.53 Z M 140.51 174.85 L 139.59 175.17 C 138.69 175.48 138.21 176.47 138.52 177.38 C 138.84 178.28 139.82 178.76 140.73 178.45 L 141.65 178.13 C 142.55 177.82 143.03 176.83 142.72 175.92 C 142.41 175.02 141.42 174.54 140.51 174.85 Z M 139.57 175.17 L 138.69 175.49 C 137.79 175.82 137.32 176.82 137.65 177.72 C 137.98 178.63 138.98 179.09 139.88 178.77 L 140.76 178.45 C 141.66 178.12 142.13 177.12 141.80 176.21 C 141.47 175.31 140.47 174.84 139.57 175.17 Z M 138.66 175.48 L 137.71 175.84 C 136.81 176.19 136.35 177.21 136.69 178.11 C 137.04 179.02 138.06 179.48 138.96 179.13 L 139.91 178.77 C 140.82 178.43 141.28 177.41 140.93 176.50 C 140.59 175.59 139.57 175.14 138.66 175.48 Z M 137.67 175.83 L 136.73 176.21 C 135.81 176.58 135.37 177.62 135.74 178.54 C 136.11 179.45 137.15 179.89 138.07 179.52 L 139.01 179.14 C 139.92 178.77 140.36 177.73 139.99 176.82 C 139.62 175.90 138.58 175.46 137.67 175.83 Z M 136.67 176.21 L 135.77 176.60 C 134.85 177.01 134.43 178.08 134.84 179.00 C 135.24 179.91 136.31 180.33 137.23 179.93 L 138.13 179.53 C 139.05 179.13 139.46 178.06 139.06 177.14 C 138.66 176.22 137.58 175.80 136.67 176.21 Z M 135.69 176.61 L 134.80 177.04 C 133.89 177.49 133.51 178.59 133.95 179.51 C 134.40 180.42 135.50 180.80 136.42 180.35 L 137.31 179.92 C 138.22 179.48 138.60 178.37 138.15 177.46 C 137.71 176.54 136.60 176.16 135.69 176.61 Z M 134.66 177.05 L 133.54 177.70 C 132.64 178.22 132.33 179.38 132.85 180.29 C 133.37 181.20 134.53 181.51 135.44 180.99 L 136.56 180.34 C 137.47 179.82 137.78 178.66 137.26 177.75 C 136.73 176.84 135.57 176.53 134.66 177.05 Z M 133.17 177.88 L 132.52 178.47 C 131.71 179.20 131.64 180.45 132.37 181.25 C 133.10 182.06 134.35 182.13 135.16 181.40 L 135.82 180.81 C 136.63 180.08 136.69 178.83 135.96 178.02 C 135.23 177.21 133.98 177.15 133.17 177.88 Z M 131.89 180.54 L 132.01 180.94 C 132.35 182.01 133.49 182.62 134.57 182.28 C 135.65 181.95 136.25 180.80 135.91 179.72 L 135.79 179.33 C 135.45 178.25 134.31 177.65 133.23 177.98 C 132.15 178.32 131.55 179.46 131.89 180.54 Z M 133.40 182.35 L 134.18 182.56 C 135.30 182.87 136.45 182.22 136.76 181.10 C 137.07 179.99 136.41 178.83 135.30 178.52 L 134.52 178.31 C 133.40 178.00 132.25 178.66 131.94 179.77 C 131.63 180.89 132.29 182.04 133.40 182.35 Z M 134.54 182.68 L 135.74 182.79 C 136.92 182.90 137.96 182.03 138.07 180.85 C 138.18 179.68 137.31 178.63 136.14 178.52 L 134.94 178.41 C 133.76 178.30 132.71 179.17 132.61 180.35 C 132.50 181.52 133.36 182.57 134.54 182.68 Z M 135.85 182.83 L 137.06 182.88 C 138.27 182.93 139.28 181.99 139.33 180.79 C 139.37 179.59 138.44 178.58 137.24 178.53 L 136.03 178.48 C 134.82 178.43 133.81 179.37 133.76 180.57 C 133.72 181.77 134.65 182.78 135.85 182.83 Z M 137.11 182.90 L 138.13 182.92 C 139.34 182.94 140.34 181.98 140.37 180.77 C 140.39 179.55 139.43 178.55 138.22 178.53 L 137.19 178.51 C 135.98 178.49 134.98 179.45 134.96 180.66 C 134.93 181.87 135.90 182.87 137.11 182.90 Z M 138.17 182.92 L 139.19 182.93 C 140.41 182.93 141.40 181.95 141.40 180.73 C 141.41 179.52 140.42 178.53 139.21 178.53 L 138.18 178.52 C 136.97 178.52 135.98 179.50 135.97 180.72 C 135.97 181.93 136.95 182.92 138.17 182.92 Z M 139.23 182.93 L 140.23 182.92 C 141.45 182.90 142.42 181.90 142.40 180.68 C 142.39 179.47 141.39 178.49 140.17 178.51 L 139.17 178.52 C 137.95 178.54 136.98 179.54 136.99 180.76 C 137.01 181.97 138.01 182.95 139.23 182.93 Z M 140.27 182.92 L 141.23 182.89 C 142.45 182.86 143.41 181.83 143.37 180.61 C 143.33 179.39 142.31 178.43 141.09 178.47 L 140.13 178.50 C 138.91 178.54 137.95 179.56 137.99 180.78 C 138.03 182.01 139.05 182.96 140.27 182.92 Z M 141.28 182.89 L 142.32 182.84 C 143.54 182.77 144.47 181.72 144.41 180.50 C 144.34 179.28 143.29 178.34 142.07 178.41 L 141.04 178.47 C 139.81 178.54 138.88 179.58 138.95 180.81 C 139.02 182.03 140.06 182.96 141.28 182.89 Z M 142.37 182.83 L 143.34 182.76 C 144.56 182.66 145.47 181.59 145.37 180.37 C 145.28 179.15 144.21 178.24 142.99 178.34 L 142.02 178.42 C 140.80 178.51 139.89 179.58 139.98 180.80 C 140.08 182.02 141.15 182.93 142.37 182.83 Z M 143.38 182.75 L 144.35 182.66 C 145.57 182.54 146.46 181.45 146.34 180.23 C 146.22 179.01 145.13 178.12 143.92 178.24 L 142.95 178.34 C 141.73 178.46 140.84 179.55 140.96 180.76 C 141.08 181.98 142.16 182.87 143.38 182.75 Z M 144.37 182.66 L 145.34 182.55 C 146.56 182.42 147.44 181.33 147.31 180.11 C 147.18 178.90 146.09 178.01 144.87 178.14 L 143.90 178.25 C 142.68 178.38 141.80 179.47 141.93 180.69 C 142.06 181.90 143.15 182.79 144.37 182.66 Z M 145.35 182.55 L 146.34 182.45 C 147.56 182.31 148.44 181.22 148.31 180.00 C 148.17 178.78 147.08 177.90 145.86 178.04 L 144.87 178.14 C 143.65 178.27 142.77 179.37 142.90 180.59 C 143.03 181.80 144.13 182.68 145.35 182.55 Z M 146.34 182.45 L 147.35 182.34 C 148.57 182.21 149.45 181.11 149.32 179.89 C 149.19 178.68 148.09 177.80 146.88 177.93 L 145.86 178.04 C 144.64 178.17 143.76 179.26 143.89 180.48 C 144.03 181.70 145.12 182.58 146.34 182.45 Z M 147.35 182.34 L 148.35 182.23 C 149.57 182.10 150.45 181.01 150.32 179.79 C 150.20 178.58 149.10 177.69 147.89 177.82 L 146.88 177.93 C 145.66 178.05 144.78 179.15 144.91 180.36 C 145.04 181.58 146.13 182.47 147.35 182.34 Z M 148.34 182.23 L 149.28 182.13 C 150.50 182.01 151.39 180.93 151.26 179.71 C 151.14 178.49 150.06 177.61 148.84 177.73 L 147.90 177.82 C 146.68 177.95 145.79 179.03 145.92 180.25 C 146.04 181.46 147.12 182.35 148.34 182.23 Z M 149.26 182.12 L 150.18 182.04 C 151.39 181.93 152.29 180.86 152.18 179.65 C 152.07 178.44 151.00 177.55 149.79 177.65 L 148.87 177.74 C 147.65 177.85 146.76 178.91 146.87 180.13 C 146.98 181.34 148.04 182.23 149.26 182.12 Z M 150.14 182.03 L 151.12 181.96 C 152.32 181.88 153.23 180.83 153.15 179.63 C 153.06 178.42 152.02 177.51 150.81 177.60 L 149.83 177.66 C 148.63 177.75 147.72 178.80 147.80 180.00 C 147.89 181.21 148.94 182.12 150.14 182.03 Z M 151.07 181.95 L 152.15 181.90 C 153.35 181.84 154.28 180.82 154.22 179.62 C 154.16 178.42 153.14 177.49 151.94 177.55 L 150.86 177.61 C 149.66 177.66 148.73 178.69 148.79 179.89 C 148.85 181.09 149.87 182.01 151.07 181.95 Z M 152.11 181.89 L 153.07 181.86 C 154.26 181.82 155.20 180.83 155.16 179.63 C 155.13 178.44 154.13 177.50 152.94 177.54 L 151.98 177.57 C 150.79 177.60 149.85 178.60 149.89 179.79 C 149.92 180.98 150.92 181.92 152.11 181.89 Z M 153.04 181.83 L 153.97 181.82 C 155.15 181.80 156.09 180.82 156.07 179.64 C 156.04 178.46 155.07 177.52 153.89 177.55 L 152.97 177.56 C 151.79 177.58 150.85 178.56 150.87 179.74 C 150.89 180.92 151.86 181.86 153.04 181.83 Z M 153.95 181.79 L 154.94 181.78 C 156.10 181.77 157.04 180.82 157.03 179.65 C 157.01 178.48 156.06 177.55 154.89 177.56 L 153.91 177.57 C 152.74 177.58 151.81 178.54 151.82 179.70 C 151.83 180.87 152.79 181.81 153.95 181.79 Z M 154.93 181.76 L 155.96 181.75 C 157.11 181.75 158.04 180.81 158.03 179.65 C 158.03 178.50 157.09 177.57 155.94 177.58 L 154.90 177.58 C 153.75 177.59 152.82 178.53 152.83 179.68 C 152.83 180.83 153.77 181.76 154.93 181.76 Z M 155.95 181.73 L 157.01 181.73 C 158.15 181.72 159.08 180.80 159.07 179.66 C 159.07 178.52 158.15 177.60 157.01 177.60 L 155.94 177.60 C 154.80 177.61 153.88 178.53 153.88 179.67 C 153.89 180.81 154.81 181.73 155.95 181.73 Z M 157.01 181.70 L 158.09 181.70 C 159.22 181.70 160.13 180.79 160.13 179.66 C 160.13 178.54 159.22 177.62 158.09 177.62 L 157.01 177.63 C 155.88 177.63 154.97 178.54 154.97 179.66 C 154.97 180.79 155.89 181.70 157.01 181.70 Z M 158.09 181.69 L 158.23 181.69 C 159.35 181.69 160.25 180.78 160.25 179.66 C 160.25 178.55 159.35 177.64 158.23 177.64 L 158.09 177.64 C 156.97 177.64 156.07 178.55 156.07 179.66 C 156.07 180.78 156.97 181.69 158.09 181.69 Z"
      fill="black"
      fill-rule="nonzero" /><path d="M 145.47 172.86 L 145.53 173.83 C 145.60 175.01 146.61 175.91 147.78 175.84 C 148.96 175.77 149.86 174.76 149.80 173.59 L 149.74 172.62 C 149.67 171.44 148.66 170.54 147.49 170.61 C 146.31 170.67 145.41 171.68 145.47 172.86 Z M 145.53 173.92 L 145.63 174.90 C 145.75 176.08 146.80 176.94 147.97 176.82 C 149.15 176.70 150.01 175.65 149.89 174.48 L 149.79 173.49 C 149.68 172.32 148.63 171.46 147.45 171.58 C 146.27 171.69 145.41 172.74 145.53 173.92 Z M 145.65 175.08 L 145.83 176.09 C 146.05 177.25 147.16 178.03 148.33 177.81 C 149.50 177.60 150.27 176.48 150.06 175.32 L 149.87 174.31 C 149.66 173.14 148.54 172.37 147.38 172.58 C 146.21 172.79 145.44 173.91 145.65 175.08 Z M 145.87 176.29 L 146.13 177.22 C 146.46 178.37 147.65 179.04 148.80 178.71 C 149.94 178.39 150.61 177.20 150.29 176.05 L 150.02 175.12 C 149.70 173.97 148.50 173.30 147.36 173.63 C 146.21 173.95 145.55 175.14 145.87 176.29 Z M 146.16 177.34 L 146.48 178.28 C 146.87 179.42 148.10 180.02 149.24 179.63 C 150.37 179.24 150.98 178.00 150.59 176.87 L 150.26 175.93 C 149.87 174.80 148.64 174.19 147.50 174.58 C 146.37 174.97 145.77 176.21 146.16 177.34 Z M 146.47 178.31 L 146.81 179.27 C 147.21 180.41 148.47 181.00 149.60 180.60 C 150.74 180.20 151.34 178.95 150.94 177.81 L 150.60 176.84 C 150.19 175.71 148.94 175.11 147.80 175.51 C 146.66 175.92 146.07 177.17 146.47 178.31 Z M 146.77 179.21 L 147.08 180.18 C 147.46 181.34 148.70 181.98 149.86 181.61 C 151.02 181.24 151.65 180.00 151.28 178.84 L 150.97 177.87 C 150.60 176.71 149.36 176.07 148.20 176.44 C 147.04 176.81 146.40 178.05 146.77 179.21 Z M 147.04 180.05 L 147.28 180.99 C 147.58 182.18 148.79 182.89 149.97 182.59 C 151.15 182.29 151.87 181.09 151.57 179.90 L 151.33 178.96 C 151.03 177.78 149.82 177.06 148.64 177.37 C 147.45 177.67 146.74 178.87 147.04 180.05 Z M 147.25 180.86 L 147.44 181.83 C 147.66 183.03 148.82 183.82 150.02 183.59 C 151.22 183.36 152.01 182.20 151.78 181.00 L 151.60 180.03 C 151.37 178.83 150.21 178.05 149.01 178.28 C 147.81 178.51 147.02 179.66 147.25 180.86 Z M 147.41 181.71 L 147.55 182.71 C 147.71 183.92 148.83 184.77 150.04 184.61 C 151.25 184.45 152.10 183.33 151.94 182.12 L 151.80 181.12 C 151.64 179.91 150.53 179.06 149.31 179.22 C 148.10 179.38 147.25 180.50 147.41 181.71 Z M 147.54 182.61 L 147.63 183.63 C 147.73 184.85 148.80 185.75 150.02 185.65 C 151.24 185.54 152.14 184.47 152.03 183.25 L 151.95 182.23 C 151.84 181.01 150.77 180.11 149.55 180.21 C 148.34 180.32 147.43 181.39 147.54 182.61 Z M 147.63 183.54 L 147.67 184.52 C 147.72 185.74 148.75 186.69 149.97 186.63 C 151.19 186.58 152.13 185.55 152.08 184.33 L 152.04 183.35 C 151.98 182.13 150.95 181.18 149.73 181.24 C 148.52 181.29 147.57 182.32 147.63 183.54 Z M 147.67 184.42 L 147.67 185.43 C 147.67 186.64 148.65 187.63 149.86 187.64 C 151.08 187.64 152.06 186.66 152.07 185.44 L 152.07 184.44 C 152.08 183.22 151.10 182.23 149.88 182.23 C 148.67 182.22 147.68 183.21 147.67 184.42 Z M 147.68 185.30 L 147.62 186.31 C 147.55 187.52 148.47 188.56 149.67 188.63 C 150.88 188.71 151.92 187.79 151.99 186.58 L 152.06 185.57 C 152.13 184.36 151.21 183.32 150.00 183.25 C 148.79 183.18 147.76 184.10 147.68 185.30 Z M 147.64 186.16 L 147.51 187.15 C 147.36 188.35 148.20 189.45 149.39 189.60 C 150.59 189.76 151.68 188.92 151.84 187.73 L 151.97 186.73 C 152.13 185.54 151.29 184.44 150.09 184.28 C 148.90 184.13 147.80 184.97 147.64 186.16 Z M 147.56 186.98 L 147.34 188.00 C 147.08 189.17 147.82 190.32 148.99 190.58 C 150.15 190.84 151.31 190.10 151.56 188.93 L 151.79 187.90 C 152.05 186.74 151.31 185.58 150.14 185.33 C 148.97 185.07 147.82 185.81 147.56 186.98 Z M 147.41 187.85 L 147.11 188.83 C 146.77 189.96 147.41 191.15 148.53 191.49 C 149.66 191.83 150.85 191.20 151.19 190.07 L 151.49 189.09 C 151.83 187.96 151.20 186.77 150.07 186.43 C 148.95 186.09 147.76 186.72 147.41 187.85 Z M 147.19 188.72 L 146.84 189.65 C 146.44 190.73 146.99 191.94 148.07 192.34 C 149.16 192.75 150.37 192.19 150.77 191.11 L 151.12 190.18 C 151.52 189.10 150.97 187.89 149.88 187.49 C 148.80 187.08 147.59 187.63 147.19 188.72 Z M 146.91 189.58 L 146.54 190.44 C 146.10 191.49 146.59 192.70 147.64 193.14 C 148.69 193.59 149.90 193.09 150.34 192.04 L 150.71 191.18 C 151.15 190.13 150.66 188.92 149.61 188.48 C 148.56 188.03 147.35 188.53 146.91 189.58 Z M 146.60 190.40 L 146.18 191.31 C 145.72 192.33 146.17 193.53 147.19 193.99 C 148.21 194.46 149.41 194.01 149.87 192.99 L 150.29 192.08 C 150.75 191.06 150.30 189.86 149.28 189.40 C 148.26 188.93 147.06 189.38 146.60 190.40 Z M 146.25 191.26 L 145.81 192.13 C 145.32 193.11 145.72 194.31 146.70 194.80 C 147.69 195.29 148.88 194.89 149.37 193.91 L 149.81 193.04 C 150.30 192.06 149.90 190.86 148.92 190.37 C 147.94 189.88 146.74 190.28 146.25 191.26 Z M 145.89 192.07 L 145.41 192.93 C 144.88 193.87 145.21 195.06 146.15 195.59 C 147.09 196.11 148.28 195.78 148.81 194.84 L 149.29 193.98 C 149.82 193.04 149.49 191.85 148.55 191.32 C 147.61 190.79 146.42 191.13 145.89 192.07 Z M 145.48 192.87 L 144.97 193.70 C 144.40 194.59 144.68 195.78 145.57 196.34 C 146.47 196.90 147.65 196.63 148.21 195.73 L 148.73 194.90 C 149.29 194.01 149.02 192.82 148.12 192.26 C 147.23 191.70 146.05 191.97 145.48 192.87 Z M 145.03 193.64 L 144.51 194.40 C 143.91 195.26 144.13 196.44 144.99 197.03 C 145.85 197.63 147.02 197.41 147.62 196.55 L 148.14 195.79 C 148.74 194.93 148.52 193.75 147.66 193.16 C 146.80 192.56 145.63 192.78 145.03 193.64 Z M 144.58 194.34 L 143.98 195.12 C 143.35 195.94 143.50 197.12 144.32 197.75 C 145.14 198.38 146.32 198.22 146.95 197.40 L 147.55 196.61 C 148.18 195.79 148.02 194.62 147.20 193.99 C 146.38 193.36 145.20 193.52 144.58 194.34 Z M 144.06 195.05 L 143.37 195.85 C 142.71 196.62 142.80 197.79 143.57 198.46 C 144.35 199.13 145.52 199.04 146.19 198.26 L 146.87 197.47 C 147.53 196.69 147.44 195.52 146.67 194.85 C 145.89 194.19 144.72 194.28 144.06 195.05 Z M 143.46 195.78 L 142.71 196.56 C 142.00 197.28 142.02 198.44 142.75 199.15 C 143.48 199.85 144.64 199.84 145.34 199.11 L 146.10 198.33 C 146.80 197.60 146.78 196.44 146.06 195.74 C 145.33 195.03 144.17 195.05 143.46 195.78 Z M 142.80 196.49 L 142.08 197.15 C 141.34 197.83 141.28 198.98 141.96 199.72 C 142.64 200.46 143.78 200.51 144.52 199.83 L 145.25 199.17 C 145.99 198.50 146.04 197.35 145.37 196.61 C 144.69 195.87 143.54 195.82 142.80 196.49 Z M 142.17 197.10 L 141.39 197.73 C 140.62 198.36 140.50 199.49 141.13 200.26 C 141.75 201.03 142.88 201.15 143.66 200.52 L 144.43 199.89 C 145.21 199.26 145.32 198.13 144.70 197.36 C 144.07 196.59 142.94 196.47 142.17 197.10 Z M 141.48 197.68 L 140.66 198.27 C 139.86 198.84 139.68 199.96 140.25 200.76 C 140.83 201.56 141.94 201.74 142.74 201.16 L 143.56 200.57 C 144.36 200.00 144.54 198.89 143.97 198.09 C 143.39 197.29 142.28 197.11 141.48 197.68 Z M 140.77 198.22 L 139.91 198.76 C 139.08 199.27 138.83 200.36 139.35 201.19 C 139.86 202.01 140.95 202.26 141.77 201.75 L 142.63 201.21 C 143.46 200.70 143.71 199.61 143.19 198.78 C 142.68 197.96 141.59 197.71 140.77 198.22 Z M 140.03 198.71 L 139.15 199.17 C 138.29 199.62 137.97 200.68 138.42 201.53 C 138.87 202.38 139.92 202.71 140.77 202.26 L 141.66 201.80 C 142.51 201.35 142.84 200.29 142.39 199.44 C 141.94 198.59 140.88 198.26 140.03 198.71 Z M 139.28 199.12 L 138.34 199.52 C 137.46 199.90 137.05 200.92 137.43 201.80 C 137.81 202.68 138.82 203.09 139.71 202.71 L 140.64 202.31 C 141.52 201.93 141.93 200.92 141.56 200.03 C 141.18 199.15 140.16 198.74 139.28 199.12 Z M 138.46 199.48 L 137.51 199.81 C 136.61 200.12 136.13 201.11 136.44 202.01 C 136.76 202.91 137.74 203.39 138.64 203.08 L 139.59 202.75 C 140.49 202.44 140.97 201.45 140.66 200.55 C 140.35 199.65 139.36 199.17 138.46 199.48 Z M 137.60 199.79 L 136.65 200.06 C 135.73 200.33 135.20 201.28 135.47 202.19 C 135.73 203.11 136.68 203.64 137.60 203.37 L 138.55 203.10 C 139.47 202.84 139.99 201.88 139.73 200.97 C 139.47 200.05 138.52 199.53 137.60 199.79 Z M 136.70 200.05 L 135.75 200.29 C 134.83 200.52 134.27 201.46 134.50 202.38 C 134.73 203.29 135.66 203.85 136.58 203.62 L 137.54 203.38 C 138.46 203.15 139.02 202.22 138.79 201.30 C 138.56 200.38 137.62 199.82 136.70 200.05 Z M 135.77 200.29 L 135.05 200.46 C 134.14 200.68 133.56 201.60 133.78 202.52 C 134.00 203.44 134.92 204.01 135.84 203.79 L 136.55 203.62 C 137.47 203.41 138.04 202.49 137.83 201.57 C 137.61 200.65 136.69 200.08 135.77 200.29 Z"
      fill="black"
      fill-rule="nonzero" /><path d="M 105.85 202.21 L 106.75 202.37 C 107.81 202.56 108.83 201.85 109.02 200.78 C 109.21 199.72 108.50 198.71 107.44 198.52 L 106.54 198.36 C 105.48 198.17 104.46 198.87 104.27 199.94 C 104.08 201.00 104.79 202.02 105.85 202.21 Z M 106.76 202.54 L 107.70 202.68 C 108.86 202.87 109.94 202.08 110.13 200.92 C 110.31 199.76 109.52 198.68 108.36 198.49 L 107.43 198.35 C 106.27 198.16 105.18 198.95 105.00 200.11 C 104.81 201.27 105.60 202.35 106.76 202.54 Z M 107.75 202.86 L 108.77 202.99 C 110.03 203.14 111.17 202.25 111.32 201.00 C 111.48 199.74 110.59 198.60 109.33 198.44 L 108.31 198.32 C 107.06 198.16 105.92 199.05 105.76 200.31 C 105.61 201.56 106.50 202.70 107.75 202.86 Z M 108.85 203.15 L 109.95 203.24 C 111.29 203.35 112.47 202.35 112.58 201.00 C 112.69 199.66 111.69 198.48 110.34 198.37 L 109.25 198.28 C 107.91 198.17 106.73 199.17 106.62 200.52 C 106.51 201.86 107.51 203.04 108.85 203.15 Z M 110.03 203.31 L 110.99 203.35 C 112.37 203.42 113.55 202.35 113.61 200.97 C 113.68 199.59 112.61 198.41 111.23 198.35 L 110.26 198.30 C 108.88 198.24 107.71 199.30 107.64 200.69 C 107.58 202.07 108.64 203.24 110.03 203.31 Z M 111.04 203.36 L 112.06 203.38 C 113.45 203.42 114.60 202.33 114.63 200.95 C 114.67 199.56 113.58 198.41 112.20 198.37 L 111.18 198.35 C 109.79 198.31 108.64 199.40 108.61 200.78 C 108.57 202.17 109.66 203.32 111.04 203.36 Z M 112.10 203.38 L 113.13 203.40 C 114.52 203.41 115.65 202.31 115.67 200.92 C 115.69 199.54 114.58 198.40 113.20 198.39 L 112.16 198.37 C 110.78 198.36 109.64 199.46 109.62 200.85 C 109.61 202.23 110.71 203.37 112.10 203.38 Z M 113.15 203.40 L 114.17 203.40 C 115.55 203.41 116.68 202.29 116.69 200.91 C 116.69 199.52 115.58 198.40 114.19 198.39 L 113.17 198.39 C 111.79 198.38 110.66 199.50 110.66 200.88 C 110.65 202.26 111.77 203.39 113.15 203.40 Z M 114.18 203.40 L 115.19 203.40 C 116.57 203.40 117.69 202.28 117.69 200.90 C 117.69 199.51 116.57 198.39 115.19 198.39 L 114.18 198.39 C 112.80 198.39 111.68 199.51 111.68 200.89 C 111.67 202.28 112.80 203.40 114.18 203.40 Z M 115.19 203.40 L 116.27 203.40 C 117.65 203.40 118.77 202.28 118.77 200.90 C 118.77 199.51 117.65 198.39 116.27 198.39 L 115.19 198.39 C 113.81 198.39 112.69 199.51 112.69 200.90 C 112.69 202.28 113.81 203.40 115.19 203.40 Z M 116.27 203.40 L 117.27 203.40 C 118.65 203.40 119.77 202.28 119.77 200.90 C 119.77 199.52 118.65 198.40 117.27 198.40 L 116.27 198.40 C 114.89 198.40 113.77 199.52 113.77 200.90 C 113.77 202.28 114.89 203.40 116.27 203.40 Z M 117.27 203.39 L 118.22 203.39 C 119.59 203.39 120.71 202.27 120.71 200.90 C 120.71 199.52 119.59 198.40 118.22 198.40 L 117.27 198.40 C 115.89 198.40 114.77 199.52 114.77 200.90 C 114.77 202.27 115.89 203.39 117.27 203.39 Z M 118.22 203.39 L 119.15 203.39 C 120.53 203.39 121.65 202.27 121.65 200.90 C 121.65 199.52 120.53 198.40 119.15 198.40 L 118.22 198.40 C 116.84 198.40 115.72 199.52 115.72 200.90 C 115.72 202.27 116.84 203.39 118.22 203.39 Z M 119.15 203.38 L 120.14 203.38 C 121.52 203.38 122.63 202.27 122.63 200.90 C 122.63 199.52 121.52 198.41 120.14 198.41 L 119.15 198.41 C 117.78 198.41 116.67 199.52 116.67 200.90 C 116.67 202.27 117.78 203.38 119.15 203.38 Z M 120.14 203.38 L 121.14 203.38 C 122.51 203.38 123.62 202.27 123.62 200.90 C 123.62 199.53 122.51 198.41 121.14 198.41 L 120.14 198.41 C 118.77 198.41 117.66 199.53 117.66 200.90 C 117.66 202.27 118.77 203.38 120.14 203.38 Z M 121.14 203.37 L 122.15 203.37 C 123.52 203.37 124.62 202.27 124.62 200.90 C 124.62 199.53 123.52 198.42 122.15 198.42 L 121.14 198.42 C 119.77 198.42 118.66 199.53 118.66 200.90 C 118.66 202.27 119.77 203.37 121.14 203.37 Z M 122.15 203.37 L 123.15 203.37 C 124.51 203.37 125.62 202.26 125.62 200.90 C 125.62 199.53 124.51 198.42 123.15 198.42 L 122.15 198.42 C 120.78 198.42 119.67 199.53 119.67 200.90 C 119.67 202.26 120.78 203.37 122.15 203.37 Z M 123.15 203.37 L 124.12 203.37 C 125.48 203.37 126.59 202.26 126.59 200.90 C 126.59 199.53 125.48 198.43 124.12 198.43 L 123.15 198.43 C 121.78 198.43 120.68 199.53 120.68 200.90 C 120.68 202.26 121.78 203.37 123.15 203.37 Z M 124.12 203.36 L 125.11 203.36 C 126.47 203.36 127.57 202.26 127.57 200.90 C 127.57 199.54 126.47 198.43 125.11 198.43 L 124.12 198.43 C 122.76 198.43 121.65 199.54 121.65 200.90 C 121.65 202.26 122.76 203.36 124.12 203.36 Z M 125.11 203.36 L 126.12 203.36 C 127.48 203.36 128.58 202.25 128.58 200.90 C 128.58 199.54 127.48 198.44 126.12 198.44 L 125.11 198.44 C 123.75 198.44 122.65 199.54 122.65 200.90 C 122.65 202.25 123.75 203.36 125.11 203.36 Z M 126.12 203.35 L 127.14 203.35 C 128.50 203.35 129.60 202.25 129.60 200.90 C 129.60 199.54 128.50 198.44 127.14 198.44 L 126.12 198.44 C 124.77 198.44 123.67 199.54 123.67 200.90 C 123.67 202.25 124.77 203.35 126.12 203.35 Z M 127.14 203.35 L 128.10 203.35 C 129.46 203.35 130.55 202.25 130.55 200.90 C 130.55 199.54 129.46 198.45 128.10 198.45 L 127.14 198.45 C 125.79 198.45 124.70 199.54 124.70 200.90 C 124.70 202.25 125.79 203.35 127.14 203.35 Z M 128.10 203.34 L 129.09 203.34 C 130.44 203.34 131.53 202.25 131.53 200.90 C 131.53 199.55 130.44 198.45 129.09 198.45 L 128.10 198.45 C 126.75 198.45 125.66 199.55 125.66 200.90 C 125.66 202.25 126.75 203.34 128.10 203.34 Z M 129.09 203.33 L 130.10 203.33 C 131.45 203.33 132.54 202.24 132.54 200.90 C 132.54 199.55 131.45 198.46 130.10 198.46 L 129.09 198.46 C 127.74 198.46 126.65 199.55 126.65 200.90 C 126.65 202.24 127.74 203.33 129.09 203.33 Z M 130.10 203.33 L 131.14 203.33 C 132.48 203.33 133.57 202.24 133.57 200.90 C 133.57 199.55 132.48 198.46 131.14 198.46 L 130.10 198.46 C 128.76 198.46 127.67 199.55 127.67 200.90 C 127.67 202.24 128.76 203.33 130.10 203.33 Z M 131.14 203.32 L 132.14 203.32 C 133.48 203.32 134.56 202.24 134.56 200.90 C 134.56 199.56 133.48 198.47 132.14 198.47 L 131.14 198.47 C 129.80 198.47 128.71 199.56 128.71 200.90 C 128.71 202.24 129.80 203.32 131.14 203.32 Z M 132.14 203.32 L 133.12 203.32 C 134.46 203.32 135.54 202.23 135.54 200.90 C 135.54 199.56 134.46 198.48 133.12 198.48 L 132.14 198.48 C 130.80 198.48 129.72 199.56 129.72 200.90 C 129.72 202.23 130.80 203.32 132.14 203.32 Z M 133.12 203.31 L 134.12 203.31 C 135.45 203.31 136.53 202.23 136.53 200.90 C 136.53 199.56 135.45 198.48 134.12 198.48 L 133.12 198.48 C 131.79 198.48 130.71 199.56 130.71 200.90 C 130.71 202.23 131.79 203.31 133.12 203.31 Z M 134.12 203.31 L 135.13 203.31 C 136.46 203.31 137.54 202.23 137.54 200.90 C 137.54 199.57 136.46 198.49 135.13 198.49 L 134.12 198.49 C 132.79 198.49 131.71 199.57 131.71 200.90 C 131.71 202.23 132.79 203.31 134.12 203.31 Z M 135.13 203.30 L 136.15 203.30 C 137.48 203.30 138.55 202.22 138.55 200.90 C 138.55 199.57 137.48 198.49 136.15 198.49 L 135.13 198.49 C 133.80 198.49 132.73 199.57 132.73 200.90 C 132.73 202.22 133.80 203.30 135.13 203.30 Z M 136.15 203.29 L 137.14 203.29 C 138.47 203.29 139.54 202.22 139.54 200.90 C 139.54 199.57 138.47 198.50 137.14 198.50 L 136.15 198.50 C 134.82 198.50 133.75 199.57 133.75 200.90 C 133.75 202.22 134.82 203.29 136.15 203.29 Z M 137.14 203.29 L 138.12 203.29 C 139.44 203.29 140.51 202.22 140.51 200.90 C 140.51 199.58 139.44 198.50 138.12 198.50 L 137.14 198.50 C 135.82 198.50 134.75 199.58 134.75 200.90 C 134.75 202.22 135.82 203.29 137.14 203.29 Z M 138.12 203.28 L 139.11 203.28 C 140.43 203.28 141.50 202.21 141.50 200.90 C 141.50 199.58 140.43 198.51 139.11 198.51 L 138.12 198.51 C 136.80 198.51 135.73 199.58 135.73 200.90 C 135.73 202.21 136.80 203.28 138.12 203.28 Z M 139.11 203.28 L 140.11 203.28 C 141.43 203.28 142.49 202.21 142.49 200.90 C 142.49 199.58 141.43 198.52 140.11 198.52 L 139.11 198.52 C 137.80 198.52 136.73 199.58 136.73 200.90 C 136.73 202.21 137.80 203.28 139.11 203.28 Z M 140.11 203.27 L 141.13 203.27 C 142.44 203.27 143.51 202.21 143.51 200.90 C 143.51 199.59 142.44 198.52 141.13 198.52 L 140.11 198.52 C 138.80 198.52 137.74 199.59 137.74 200.90 C 137.74 202.21 138.80 203.27 140.11 203.27 Z M 141.13 203.27 L 142.15 203.27 C 143.46 203.27 144.52 202.20 144.52 200.90 C 144.52 199.59 143.46 198.53 142.15 198.53 L 141.13 198.53 C 139.82 198.53 138.76 199.59 138.76 200.90 C 138.76 202.20 139.82 203.27 141.13 203.27 Z M 142.15 203.26 L 143.14 203.26 C 144.45 203.26 145.51 202.20 145.51 200.90 C 145.51 199.59 144.45 198.53 143.14 198.53 L 142.15 198.53 C 140.85 198.53 139.79 199.59 139.79 200.90 C 139.79 202.20 140.85 203.26 142.15 203.26 Z M 143.14 203.26 L 144.14 203.26 C 145.45 203.26 146.50 202.20 146.50 200.90 C 146.50 199.59 145.45 198.54 144.14 198.54 L 143.14 198.54 C 141.84 198.54 140.78 199.59 140.78 200.90 C 140.78 202.20 141.84 203.26 143.14 203.26 Z M 144.14 203.25 L 145.15 203.25 C 146.45 203.25 147.51 202.20 147.51 200.90 C 147.51 199.59 146.45 198.54 145.15 198.54 L 144.14 198.54 C 142.84 198.54 141.79 199.59 141.79 200.90 C 141.79 202.20 142.84 203.25 144.14 203.25 Z M 145.15 203.25 L 146.16 203.25 C 147.46 203.25 148.51 202.20 148.51 200.90 C 148.51 199.60 147.46 198.54 146.16 198.54 L 145.15 198.54 C 143.85 198.54 142.80 199.60 142.80 200.90 C 142.80 202.20 143.85 203.25 145.15 203.25 Z M 146.16 203.25 L 147.16 203.25 C 148.46 203.25 149.51 202.19 149.51 200.90 C 149.51 199.60 148.46 198.55 147.16 198.55 L 146.16 198.55 C 144.86 198.55 143.81 199.60 143.81 200.90 C 143.81 202.19 144.86 203.25 146.16 203.25 Z M 147.16 203.24 L 148.17 203.24 C 149.46 203.24 150.51 202.19 150.51 200.90 C 150.51 199.60 149.46 198.55 148.17 198.55 L 147.16 198.55 C 145.86 198.55 144.81 199.60 144.81 200.90 C 144.81 202.19 145.86 203.24 147.16 203.24 Z M 148.17 203.24 L 149.17 203.24 C 150.47 203.24 151.52 202.19 151.52 200.90 C 151.52 199.60 150.47 198.55 149.17 198.55 L 148.17 198.55 C 146.87 198.55 145.82 199.60 145.82 200.90 C 145.82 202.19 146.87 203.24 148.17 203.24 Z M 149.17 203.24 L 150.17 203.24 C 151.46 203.24 152.52 202.19 152.52 200.90 C 152.52 199.60 151.46 198.55 150.17 198.55 L 149.17 198.55 C 147.87 198.55 146.82 199.60 146.82 200.90 C 146.82 202.19 147.87 203.24 149.17 203.24 Z M 150.17 203.24 L 151.16 203.24 C 152.46 203.24 153.51 202.19 153.51 200.90 C 153.51 199.60 152.46 198.55 151.16 198.55 L 150.17 198.55 C 148.87 198.55 147.82 199.60 147.82 200.90 C 147.82 202.19 148.87 203.24 150.17 203.24 Z M 151.16 203.25 L 152.16 203.25 C 153.45 203.25 154.51 202.19 154.51 200.90 C 154.51 199.60 153.45 198.55 152.16 198.55 L 151.16 198.55 C 149.86 198.55 148.81 199.60 148.81 200.90 C 148.81 202.19 149.86 203.25 151.16 203.25 Z M 152.16 203.25 L 153.16 203.25 C 154.45 203.25 155.50 202.19 155.50 200.90 C 155.50 199.60 154.45 198.55 153.16 198.55 L 152.16 198.55 C 150.86 198.55 149.81 199.60 149.81 200.90 C 149.81 202.19 150.86 203.25 152.16 203.25 Z M 153.16 203.24 L 154.14 203.24 C 155.44 203.24 156.49 202.19 156.49 200.90 C 156.49 199.60 155.44 198.55 154.14 198.55 L 153.16 198.55 C 151.86 198.55 150.81 199.60 150.81 200.90 C 150.81 202.19 151.86 203.24 153.16 203.24 Z M 154.14 203.24 L 155.13 203.24 C 156.42 203.24 157.47 202.19 157.47 200.90 C 157.47 199.60 156.42 198.55 155.13 198.55 L 154.14 198.55 C 152.84 198.55 151.79 199.60 151.79 200.90 C 151.79 202.19 152.84 203.24 154.14 203.24 Z M 155.13 203.24 L 156.13 203.24 C 157.42 203.24 158.47 202.19 158.47 200.90 C 158.47 199.60 157.42 198.56 156.13 198.56 L 155.13 198.56 C 153.84 198.56 152.79 199.60 152.79 200.90 C 152.79 202.19 153.84 203.24 155.13 203.24 Z M 156.13 203.23 L 157.14 203.23 C 158.43 203.23 159.47 202.19 159.47 200.90 C 159.47 199.61 158.43 198.56 157.14 198.56 L 156.13 198.56 C 154.84 198.56 153.79 199.61 153.79 200.90 C 153.79 202.19 154.84 203.23 156.13 203.23 Z M 157.14 203.23 L 158.15 203.23 C 159.44 203.23 160.48 202.19 160.48 200.90 C 160.48 199.61 159.44 198.56 158.15 198.56 L 157.14 198.56 C 155.85 198.56 154.80 199.61 154.80 200.90 C 154.80 202.19 155.85 203.23 157.14 203.23 Z M 158.15 203.22 L 159.15 203.22 C 160.44 203.22 161.48 202.18 161.48 200.90 C 161.48 199.61 160.44 198.57 159.15 198.57 L 158.15 198.57 C 156.86 198.57 155.82 199.61 155.82 200.90 C 155.82 202.18 156.86 203.22 158.15 203.22 Z M 159.15 203.21 L 160.14 203.21 C 161.42 203.21 162.46 202.18 162.46 200.90 C 162.46 199.62 161.42 198.58 160.14 198.58 L 159.15 198.58 C 157.87 198.58 156.84 199.62 156.84 200.90 C 156.83 202.18 157.87 203.21 159.15 203.21 Z M 160.14 203.20 L 161.14 203.20 C 162.41 203.20 163.44 202.17 163.44 200.90 C 163.44 199.63 162.41 198.60 161.14 198.60 L 160.15 198.59 C 158.88 198.59 157.84 199.62 157.84 200.89 C 157.84 202.16 158.87 203.20 160.14 203.20 Z M 161.13 203.19 L 162.13 203.19 C 163.39 203.19 164.42 202.17 164.43 200.91 C 164.43 199.65 163.41 198.62 162.15 198.61 L 161.15 198.61 C 159.88 198.61 158.86 199.63 158.85 200.89 C 158.85 202.15 159.87 203.18 161.13 203.19 Z M 162.13 203.18 L 163.13 203.18 C 164.39 203.19 165.41 202.18 165.42 200.92 C 165.42 199.67 164.41 198.64 163.16 198.63 L 162.15 198.63 C 160.90 198.62 159.87 199.63 159.87 200.89 C 159.86 202.14 160.87 203.17 162.13 203.18 Z M 163.12 203.17 L 164.13 203.18 C 165.38 203.19 166.40 202.19 166.41 200.94 C 166.42 199.69 165.42 198.67 164.17 198.66 L 163.16 198.65 C 161.92 198.64 160.90 199.64 160.88 200.89 C 160.87 202.13 161.87 203.15 163.12 203.17 Z M 164.12 203.16 L 165.12 203.18 C 166.36 203.19 167.38 202.20 167.40 200.96 C 167.41 199.72 166.42 198.70 165.18 198.69 L 164.18 198.67 C 162.94 198.66 161.92 199.65 161.91 200.89 C 161.89 202.13 162.88 203.15 164.12 203.16 Z M 165.11 203.16 L 166.10 203.18 C 167.34 203.20 168.35 202.22 168.37 200.99 C 168.40 199.75 167.41 198.74 166.18 198.72 L 165.19 198.70 C 163.96 198.68 162.94 199.66 162.92 200.89 C 162.90 202.12 163.88 203.14 165.11 203.16 Z M 166.09 203.17 L 167.09 203.19 C 168.32 203.22 169.33 202.24 169.36 201.02 C 169.38 199.79 168.41 198.78 167.19 198.75 L 166.19 198.73 C 164.96 198.70 163.95 199.67 163.92 200.90 C 163.90 202.13 164.87 203.14 166.09 203.17 Z M 167.08 203.18 L 168.08 203.20 C 169.30 203.23 170.31 202.27 170.34 201.05 C 170.38 199.83 169.41 198.82 168.20 198.79 L 167.20 198.76 C 165.98 198.73 164.96 199.69 164.93 200.91 C 164.90 202.13 165.86 203.14 167.08 203.18 Z M 168.07 203.19 L 169.08 203.22 C 170.29 203.26 171.30 202.30 171.34 201.09 C 171.37 199.88 170.42 198.87 169.21 198.83 L 168.20 198.80 C 166.99 198.76 165.98 199.72 165.94 200.93 C 165.91 202.14 166.86 203.15 168.07 203.19 Z M 169.07 203.21 L 170.08 203.24 C 171.28 203.28 172.29 202.34 172.33 201.13 C 172.37 199.93 171.43 198.92 170.23 198.88 L 169.22 198.84 C 168.01 198.80 167.00 199.75 166.96 200.95 C 166.92 202.16 167.86 203.17 169.07 203.21 Z M 170.07 203.23 L 171.06 203.27 C 172.26 203.31 173.27 202.38 173.32 201.18 C 173.36 199.98 172.43 198.97 171.23 198.93 L 170.23 198.89 C 169.04 198.84 168.03 199.78 167.98 200.98 C 167.93 202.18 168.87 203.18 170.07 203.23 Z M 171.05 203.26 L 172.04 203.30 C 173.24 203.35 174.24 202.43 174.29 201.23 C 174.34 200.04 173.42 199.03 172.22 198.98 L 171.24 198.94 C 170.04 198.89 169.03 199.81 168.98 201.01 C 168.93 202.20 169.86 203.21 171.05 203.26 Z M 172.03 203.29 L 173.03 203.34 C 174.22 203.40 175.22 202.47 175.28 201.28 C 175.33 200.09 174.41 199.09 173.22 199.03 L 172.23 198.99 C 171.04 198.93 170.03 199.85 169.98 201.04 C 169.92 202.23 170.84 203.24 172.03 203.29 Z M 173.02 203.33 L 174.02 203.38 C 175.20 203.44 176.21 202.53 176.27 201.34 C 176.33 200.16 175.42 199.15 174.23 199.09 L 173.23 199.04 C 172.05 198.98 171.04 199.89 170.98 201.08 C 170.92 202.26 171.83 203.27 173.02 203.33 Z M 174.01 203.38 L 175.01 203.43 C 176.19 203.49 177.20 202.59 177.27 201.40 C 177.33 200.22 176.42 199.21 175.24 199.15 L 174.24 199.09 C 173.05 199.03 172.05 199.94 171.98 201.12 C 171.92 202.30 172.83 203.31 174.01 203.38 Z M 175.00 203.42 L 176.02 203.48 C 177.19 203.55 178.20 202.65 178.27 201.47 C 178.34 200.29 177.44 199.28 176.26 199.21 L 175.25 199.16 C 174.07 199.09 173.06 199.99 172.99 201.17 C 172.93 202.35 173.83 203.35 175.00 203.42 Z M 176.01 203.47 L 177.03 203.53 C 178.20 203.61 179.21 202.71 179.28 201.54 C 179.35 200.36 178.46 199.35 177.28 199.28 L 176.27 199.22 C 175.09 199.15 174.08 200.04 174.01 201.22 C 173.94 202.39 174.83 203.40 176.01 203.47 Z M 177.02 203.53 L 178.04 203.59 C 179.21 203.67 180.22 202.78 180.30 201.61 C 180.37 200.44 179.48 199.43 178.31 199.35 L 177.29 199.29 C 176.12 199.21 175.11 200.10 175.04 201.27 C 174.96 202.44 175.85 203.45 177.02 203.53 Z M 178.04 203.59 L 179.06 203.65 C 180.22 203.73 181.23 202.85 181.31 201.68 C 181.39 200.52 180.51 199.51 179.34 199.43 L 178.32 199.36 C 177.15 199.28 176.14 200.17 176.07 201.33 C 175.99 202.50 176.87 203.51 178.04 203.59 Z M 179.05 203.65 L 180.06 203.72 C 181.22 203.80 182.23 202.92 182.31 201.76 C 182.40 200.60 181.52 199.59 180.36 199.51 L 179.35 199.44 C 178.18 199.36 177.17 200.23 177.09 201.39 C 177.01 202.56 177.89 203.57 179.05 203.65 Z M 180.06 203.71 L 181.05 203.78 C 182.21 203.87 183.22 203.00 183.30 201.84 C 183.39 200.68 182.52 199.67 181.36 199.59 L 180.36 199.51 C 179.20 199.43 178.20 200.30 178.11 201.46 C 178.03 202.62 178.90 203.63 180.06 203.71 Z M 181.05 203.78 L 182.02 203.85 C 183.17 203.94 184.18 203.07 184.27 201.92 C 184.36 200.76 183.49 199.76 182.34 199.67 L 181.36 199.59 C 180.21 199.51 179.20 200.37 179.11 201.53 C 179.02 202.68 179.89 203.69 181.05 203.78 Z M 182.01 203.84 L 182.99 203.92 C 184.14 204.01 185.14 203.15 185.23 202.00 C 185.33 200.85 184.47 199.84 183.32 199.75 L 182.34 199.68 C 181.19 199.58 180.18 200.44 180.09 201.59 C 180.00 202.75 180.86 203.75 182.01 203.84 Z M 182.98 203.91 L 184.05 204.00 C 185.19 204.09 186.20 203.24 186.29 202.10 C 186.38 200.95 185.53 199.95 184.39 199.85 L 183.32 199.76 C 182.18 199.67 181.17 200.52 181.08 201.67 C 180.98 202.81 181.83 203.82 182.98 203.91 Z M 184.04 203.98 L 185.06 204.07 C 186.20 204.17 187.20 203.33 187.30 202.19 C 187.40 201.05 186.55 200.05 185.42 199.95 L 184.39 199.86 C 183.26 199.77 182.25 200.61 182.16 201.75 C 182.06 202.89 182.90 203.89 184.04 203.98 Z M 185.06 204.06 L 186.04 204.15 C 187.17 204.25 188.17 203.41 188.27 202.28 C 188.37 201.15 187.54 200.15 186.41 200.05 L 185.42 199.97 C 184.29 199.86 183.29 200.70 183.19 201.83 C 183.09 202.96 183.93 203.96 185.06 204.06 Z M 186.04 204.13 L 187.00 204.22 C 188.12 204.32 189.11 203.50 189.22 202.37 C 189.32 201.25 188.49 200.26 187.37 200.15 L 186.41 200.07 C 185.29 199.96 184.30 200.79 184.19 201.91 C 184.09 203.04 184.92 204.03 186.04 204.13 Z M 186.99 204.21 L 187.93 204.30 C 189.04 204.40 190.03 203.58 190.14 202.47 C 190.24 201.35 189.42 200.36 188.31 200.26 L 187.37 200.17 C 186.26 200.06 185.27 200.88 185.16 202.00 C 185.06 203.11 185.88 204.10 186.99 204.21 Z M 187.92 204.28 L 188.96 204.38 C 190.07 204.49 191.05 203.68 191.16 202.57 C 191.26 201.46 190.45 200.47 189.34 200.37 L 188.31 200.27 C 187.20 200.16 186.22 200.97 186.11 202.08 C 186.00 203.19 186.81 204.18 187.92 204.28 Z M 188.95 204.37 L 189.97 204.47 C 191.07 204.58 192.05 203.77 192.16 202.67 C 192.27 201.57 191.46 200.59 190.36 200.48 L 189.35 200.38 C 188.24 200.27 187.26 201.08 187.16 202.18 C 187.05 203.28 187.85 204.26 188.95 204.37 Z M 189.97 204.46 L 190.96 204.56 C 192.05 204.67 193.03 203.87 193.14 202.77 C 193.25 201.68 192.45 200.71 191.36 200.60 L 190.37 200.50 C 189.27 200.38 188.30 201.18 188.19 202.28 C 188.08 203.37 188.87 204.35 189.97 204.46 Z M 190.96 204.54 L 191.92 204.64 C 193.01 204.75 193.98 203.96 194.09 202.88 C 194.21 201.79 193.42 200.82 192.33 200.71 L 191.36 200.61 C 190.28 200.50 189.31 201.29 189.19 202.37 C 189.08 203.46 189.87 204.43 190.96 204.54 Z M 191.92 204.63 L 192.83 204.73 C 193.91 204.84 194.88 204.06 195.00 202.98 C 195.11 201.90 194.33 200.93 193.25 200.82 L 192.33 200.72 C 191.26 200.61 190.29 201.39 190.17 202.47 C 190.06 203.55 190.84 204.51 191.92 204.63 Z M 192.83 204.71 L 193.69 204.81 C 194.76 204.92 195.73 204.15 195.84 203.08 C 195.96 202.00 195.18 201.04 194.11 200.92 L 193.25 200.83 C 192.18 200.71 191.22 201.49 191.10 202.56 C 190.98 203.63 191.76 204.60 192.83 204.71 Z M 193.69 204.80 L 194.59 204.89 C 195.66 205.01 196.61 204.24 196.73 203.17 C 196.84 202.10 196.07 201.15 195.01 201.03 L 194.11 200.93 C 193.04 200.82 192.08 201.59 191.97 202.66 C 191.85 203.73 192.63 204.68 193.69 204.80 Z M 194.60 204.88 L 195.58 204.99 C 196.64 205.10 197.59 204.33 197.70 203.26 C 197.81 202.20 197.04 201.25 195.98 201.14 L 195.00 201.04 C 193.94 200.93 192.99 201.70 192.88 202.76 C 192.76 203.82 193.54 204.77 194.60 204.88 Z M 195.59 204.98 L 196.70 205.09 C 197.76 205.19 198.70 204.42 198.80 203.36 C 198.91 202.31 198.14 201.37 197.08 201.26 L 195.97 201.15 C 194.91 201.05 193.97 201.82 193.86 202.87 C 193.76 203.93 194.53 204.87 195.59 204.98 Z M 196.71 205.08 L 197.82 205.19 C 198.87 205.28 199.80 204.51 199.90 203.46 C 200.00 202.41 199.23 201.47 198.18 201.37 L 197.07 201.27 C 196.02 201.17 195.08 201.94 194.98 203.00 C 194.88 204.05 195.66 204.98 196.71 205.08 Z M 197.83 205.18 L 198.67 205.26 C 199.72 205.35 200.65 204.58 200.75 203.53 C 200.84 202.48 200.07 201.55 199.02 201.45 L 198.17 201.38 C 197.12 201.28 196.19 202.06 196.10 203.11 C 196.00 204.16 196.78 205.09 197.83 205.18 Z M 198.68 205.26 L 199.58 205.34 C 200.63 205.43 201.56 204.65 201.65 203.60 C 201.75 202.55 200.97 201.63 199.92 201.54 L 199.01 201.46 C 197.96 201.36 197.04 202.14 196.94 203.19 C 196.85 204.24 197.63 205.16 198.68 205.26 Z M 199.59 205.34 L 200.55 205.42 C 201.60 205.51 202.52 204.73 202.62 203.68 C 202.71 202.64 201.93 201.71 200.88 201.62 L 199.92 201.54 C 198.87 201.45 197.94 202.22 197.85 203.27 C 197.76 204.32 198.54 205.25 199.59 205.34 Z M 200.55 205.42 L 201.56 205.50 C 202.61 205.59 203.53 204.82 203.62 203.77 C 203.71 202.72 202.93 201.80 201.89 201.71 L 200.88 201.62 C 199.83 201.53 198.91 202.31 198.82 203.36 C 198.73 204.41 199.50 205.33 200.55 205.42 Z M 201.56 205.50 L 202.61 205.59 C 203.65 205.68 204.58 204.90 204.66 203.86 C 204.75 202.81 203.97 201.89 202.93 201.80 L 201.88 201.71 C 200.84 201.62 199.91 202.40 199.83 203.45 C 199.74 204.49 200.51 205.42 201.56 205.50 Z M 202.61 205.59 L 203.68 205.68 C 204.72 205.77 205.65 204.99 205.73 203.94 C 205.82 202.90 205.04 201.98 204.00 201.89 L 202.93 201.80 C 201.88 201.71 200.96 202.49 200.87 203.54 C 200.78 204.58 201.56 205.50 202.61 205.59 Z M 203.68 205.68 L 204.77 205.77 C 205.81 205.86 206.73 205.08 206.82 204.03 C 206.91 202.99 206.13 202.07 205.08 201.98 L 204.00 201.89 C 202.95 201.80 202.03 202.58 201.94 203.63 C 201.85 204.67 202.63 205.59 203.68 205.68 Z M 204.77 205.77 L 205.87 205.86 C 206.91 205.95 207.83 205.17 207.92 204.12 C 208.00 203.08 207.23 202.16 206.18 202.07 L 205.08 201.98 C 204.04 201.89 203.12 202.67 203.03 203.72 C 202.94 204.76 203.72 205.68 204.77 205.77 Z M 205.87 205.86 L 205.95 205.87 C 206.99 205.95 207.91 205.18 208.00 204.13 C 208.08 203.09 207.31 202.17 206.26 202.08 L 206.18 202.07 C 205.14 201.99 204.22 202.76 204.13 203.81 C 204.04 204.85 204.82 205.77 205.87 205.86 Z"
      fill="black"
      fill-rule="nonzero" /></svg>