<svg xmlns="http://www.w3.org/2000/svg" width="300" height="300" viewBox="0 0 300 300">
<path d="M 139.05 119.51 L 138.48 120.21 C 137.59 121.28 137.74 122.88 138.82 123.76 C 139.89 124.65 141.48 124.50 142.37 123.42 L 142.95 122.73 C 143.84 121.65 143.68 120.06 142.61 119.17 C 141.53 118.28 139.94 118.43 139.05 119.51 Z M 138.49 120.19 L 137.88 120.92 C 136.98 121.99 137.12 123.59 138.19 124.48 C 139.26 125.38 140.86 125.24 141.75 124.17 L 142.36 123.44 C 143.26 122.37 143.12 120.77 142.05 119.88 C 140.98 118.98 139.38 119.12 138.49 120.19 Z M 137.89 120.90 L 137.22 121.68 C 136.31 122.75 136.44 124.34 137.50 125.25 C 138.56 126.16 140.16 126.04 141.06 124.97 L 141.74 124.19 C 142.64 123.13 142.52 121.53 141.46 120.62 C 140.40 119.71 138.80 119.84 137.89 120.90 Z M 137.24 121.66 L 136.52 122.48 C 135.60 123.53 135.70 125.13 136.75 126.05 C 137.80 126.97 139.40 126.87 140.32 125.82 L 141.04 125.00 C 141.97 123.95 141.86 122.35 140.81 121.43 C 139.76 120.51 138.16 120.61 137.24 121.66 Z M 136.54 122.46 L 135.90 123.17 C 134.96 124.21 135.05 125.81 136.09 126.75 C 137.13 127.68 138.73 127.59 139.67 126.55 L 140.31 125.84 C 141.24 124.80 141.16 123.20 140.12 122.26 C 139.07 121.33 137.47 121.41 136.54 122.46 Z M 135.90 123.16 L 135.23 123.91 C 134.28 124.94 134.36 126.55 135.40 127.49 C 136.44 128.43 138.04 128.35 138.98 127.31 L 139.66 126.56 C 140.60 125.53 140.52 123.93 139.48 122.98 C 138.45 122.04 136.85 122.12 135.90 123.16 Z M 135.23 123.90 L 134.53 124.67 C 133.59 125.70 133.66 127.31 134.70 128.25 C 135.74 129.19 137.34 129.12 138.28 128.08 L 138.98 127.32 C 139.92 126.28 139.84 124.68 138.81 123.74 C 137.77 122.79 136.17 122.87 135.23 123.90 Z M 134.53 124.67 L 133.84 125.43 C 132.90 126.47 132.98 128.07 134.02 129.01 C 135.05 129.95 136.66 129.87 137.60 128.84 L 138.29 128.08 C 139.23 127.04 139.15 125.44 138.11 124.50 C 137.07 123.56 135.47 123.63 134.53 124.67 Z M 133.84 125.44 L 133.15 126.20 C 132.22 127.24 132.31 128.84 133.35 129.78 C 134.39 130.71 135.99 130.62 136.92 129.58 L 137.60 128.82 C 138.54 127.78 138.45 126.18 137.41 125.25 C 136.37 124.32 134.77 124.40 133.84 125.44 Z M 133.17 126.25 L 132.45 127.06 C 131.54 128.09 131.64 129.66 132.68 130.57 C 133.71 131.48 135.28 131.38 136.19 130.35 L 136.91 129.54 C 137.82 128.51 137.72 126.93 136.69 126.02 C 135.65 125.11 134.08 125.21 133.17 126.25 Z M 132.48 127.12 L 131.82 127.88 C 130.95 128.90 131.06 130.43 132.07 131.31 C 133.09 132.18 134.62 132.07 135.50 131.06 L 136.16 130.29 C 137.04 129.28 136.93 127.74 135.91 126.86 C 134.89 125.99 133.36 126.10 132.48 127.12 Z M 131.86 127.94 L 131.24 128.67 C 130.39 129.67 130.52 131.16 131.51 132.01 C 132.51 132.85 134.01 132.73 134.85 131.73 L 135.47 131.00 C 136.31 130.00 136.19 128.51 135.19 127.66 C 134.19 126.82 132.70 126.94 131.86 127.94 Z M 131.27 128.73 L 130.68 129.44 C 129.87 130.42 130.00 131.87 130.98 132.69 C 131.96 133.50 133.41 133.36 134.23 132.38 L 134.82 131.67 C 135.63 130.69 135.49 129.24 134.51 128.43 C 133.53 127.62 132.08 127.75 131.27 128.73 Z M 130.72 129.50 L 130.09 130.27 C 129.31 131.23 129.45 132.64 130.41 133.42 C 131.37 134.20 132.78 134.06 133.56 133.10 L 134.19 132.33 C 134.97 131.37 134.83 129.96 133.87 129.18 C 132.91 128.40 131.50 128.54 130.72 129.50 Z M 130.14 130.32 L 129.51 131.09 C 128.76 132.02 128.91 133.39 129.84 134.14 C 130.77 134.90 132.14 134.75 132.89 133.82 L 133.52 133.05 C 134.27 132.11 134.12 130.75 133.19 129.99 C 132.26 129.24 130.89 129.38 130.14 130.32 Z M 129.57 131.13 L 128.94 131.90 C 128.21 132.81 128.35 134.13 129.25 134.86 C 130.16 135.60 131.48 135.46 132.21 134.55 L 132.84 133.78 C 133.57 132.87 133.43 131.55 132.53 130.82 C 131.62 130.09 130.30 130.22 129.57 131.13 Z M 129.00 131.94 L 128.37 132.70 C 127.65 133.58 127.78 134.86 128.65 135.58 C 129.53 136.29 130.81 136.16 131.52 135.29 L 132.15 134.52 C 132.87 133.65 132.74 132.36 131.87 131.65 C 131.00 130.94 129.71 131.06 129.00 131.94 Z M 128.41 132.72 L 127.90 133.34 C 127.20 134.18 127.32 135.44 128.16 136.14 C 129.01 136.85 130.27 136.73 130.97 135.88 L 131.48 135.27 C 132.18 134.42 132.07 133.17 131.22 132.46 C 130.37 131.76 129.12 131.88 128.41 132.72 Z M 127.92 133.35 L 127.38 134.02 C 126.68 134.85 126.80 136.09 127.63 136.79 C 128.47 137.48 129.71 137.36 130.40 136.53 L 130.95 135.87 C 131.64 135.03 131.53 133.79 130.69 133.10 C 129.86 132.40 128.62 132.52 127.92 133.35 Z M 127.39 134.04 L 126.78 134.79 C 126.10 135.62 126.22 136.84 127.05 137.52 C 127.88 138.19 129.10 138.07 129.78 137.24 L 130.39 136.50 C 131.07 135.67 130.95 134.45 130.12 133.77 C 129.29 133.09 128.07 133.22 127.39 134.04 Z M 126.79 134.82 L 126.10 135.68 C 125.44 136.51 125.57 137.71 126.40 138.37 C 127.22 139.03 128.42 138.89 129.08 138.07 L 129.77 137.21 C 130.43 136.39 130.30 135.18 129.47 134.52 C 128.65 133.86 127.45 134.00 126.79 134.82 Z M 126.11 135.72 L 125.32 136.73 C 124.68 137.55 124.82 138.73 125.64 139.37 C 126.46 140.01 127.65 139.87 128.29 139.05 L 129.08 138.04 C 129.72 137.22 129.57 136.03 128.75 135.39 C 127.93 134.75 126.75 134.90 126.11 135.72 Z M 125.32 136.76 L 124.76 137.49 C 124.13 138.31 124.29 139.48 125.10 140.10 C 125.92 140.73 127.09 140.57 127.72 139.76 L 128.28 139.02 C 128.91 138.20 128.75 137.03 127.93 136.41 C 127.12 135.78 125.95 135.94 125.32 136.76 Z M 124.76 137.51 L 124.17 138.28 C 123.56 139.10 123.72 140.26 124.54 140.88 C 125.35 141.49 126.51 141.33 127.13 140.52 L 127.71 139.74 C 128.33 138.93 128.17 137.76 127.35 137.15 C 126.54 136.53 125.38 136.69 124.76 137.51 Z M 124.18 138.30 L 123.57 139.12 C 122.96 139.93 123.13 141.08 123.94 141.69 C 124.76 142.30 125.91 142.13 126.52 141.32 L 127.13 140.50 C 127.73 139.69 127.57 138.53 126.75 137.93 C 125.94 137.32 124.78 137.49 124.18 138.30 Z M 123.57 139.13 L 122.95 139.98 C 122.35 140.79 122.52 141.93 123.34 142.53 C 124.15 143.13 125.29 142.96 125.89 142.14 L 126.51 141.30 C 127.11 140.49 126.94 139.34 126.13 138.75 C 125.31 138.15 124.17 138.32 123.57 139.13 Z M 122.95 139.99 L 122.33 140.84 C 121.74 141.66 121.92 142.79 122.73 143.38 C 123.54 143.97 124.68 143.79 125.27 142.98 L 125.89 142.13 C 126.48 141.32 126.30 140.18 125.49 139.59 C 124.68 139.00 123.54 139.18 122.95 139.99 Z M 122.33 140.86 L 121.73 141.71 C 121.14 142.52 121.33 143.65 122.14 144.23 C 122.95 144.81 124.08 144.62 124.66 143.81 L 125.27 142.96 C 125.85 142.16 125.66 141.03 124.85 140.45 C 124.04 139.87 122.92 140.05 122.33 140.86 Z M 121.73 141.73 L 121.14 142.56 C 120.57 143.36 120.76 144.48 121.57 145.05 C 122.38 145.63 123.50 145.43 124.07 144.62 L 124.66 143.80 C 125.23 142.99 125.03 141.87 124.23 141.30 C 123.42 140.73 122.30 140.92 121.73 141.73 Z M 121.14 142.58 L 120.59 143.37 C 120.03 144.18 120.23 145.29 121.04 145.85 C 121.85 146.41 122.96 146.21 123.52 145.40 L 124.07 144.60 C 124.63 143.80 124.43 142.69 123.62 142.13 C 122.81 141.57 121.70 141.77 121.14 142.58 Z M 120.59 143.39 L 119.95 144.34 C 119.41 145.15 119.62 146.25 120.43 146.80 C 121.24 147.34 122.34 147.13 122.89 146.32 L 123.52 145.37 C 124.07 144.56 123.86 143.46 123.05 142.92 C 122.24 142.37 121.14 142.58 120.59 143.39 Z M 119.95 144.37 L 119.33 145.32 C 118.80 146.14 119.03 147.23 119.84 147.76 C 120.66 148.28 121.75 148.05 122.28 147.24 L 122.90 146.29 C 123.42 145.47 123.19 144.38 122.38 143.85 C 121.56 143.32 120.47 143.56 119.95 144.37 Z M 119.32 145.36 L 118.78 146.23 C 118.26 147.05 118.51 148.12 119.33 148.63 C 120.15 149.15 121.23 148.90 121.74 148.08 L 122.28 147.21 C 122.80 146.39 122.55 145.31 121.73 144.80 C 120.91 144.29 119.83 144.54 119.32 145.36 Z M 118.77 146.26 L 118.28 147.07 C 117.79 147.89 118.05 148.96 118.88 149.45 C 119.70 149.94 120.77 149.68 121.26 148.86 L 121.75 148.05 C 122.24 147.22 121.98 146.16 121.15 145.66 C 120.33 145.17 119.26 145.43 118.77 146.26 Z M 118.28 147.09 L 117.83 147.86 C 117.35 148.68 117.63 149.74 118.45 150.22 C 119.28 150.70 120.33 150.42 120.81 149.60 L 121.26 148.83 C 121.74 148.01 121.47 146.95 120.64 146.47 C 119.82 145.99 118.76 146.27 118.28 147.09 Z M 117.84 147.88 L 117.41 148.62 C 116.94 149.44 117.22 150.49 118.04 150.96 C 118.86 151.43 119.91 151.15 120.38 150.33 L 120.81 149.58 C 121.28 148.76 121.00 147.71 120.18 147.24 C 119.36 146.77 118.31 147.05 117.84 147.88 Z M 117.41 148.63 L 117.35 148.73 C 116.88 149.55 117.17 150.60 117.99 151.07 C 118.81 151.53 119.85 151.25 120.32 150.43 L 120.38 150.32 C 120.85 149.50 120.56 148.46 119.74 147.99 C 118.92 147.52 117.88 147.81 117.41 148.63 Z"
      fill="black"
      fill-rule="nonzero" /><path d="M 119.77 147.37 L 119.56 148.26 C 119.27 149.44 119.99 150.63 121.18 150.92 C 122.36 151.20 123.55 150.48 123.83 149.30 L 124.05 148.41 C 124.34 147.23 123.61 146.04 122.43 145.75 C 121.25 145.46 120.06 146.19 119.77 147.37 Z M 119.50 148.32 L 119.31 149.26 C 119.05 150.47 119.83 151.66 121.05 151.91 C 122.26 152.16 123.44 151.38 123.70 150.17 L 123.89 149.23 C 124.14 148.02 123.36 146.83 122.15 146.58 C 120.94 146.33 119.75 147.11 119.50 148.32 Z M 119.24 149.39 L 119.09 150.43 C 118.91 151.67 119.77 152.83 121.02 153.01 C 122.27 153.20 123.43 152.33 123.61 151.09 L 123.76 150.05 C 123.94 148.80 123.08 147.64 121.83 147.46 C 120.58 147.28 119.42 148.14 119.24 149.39 Z M 119.04 150.57 L 118.96 151.58 C 118.86 152.86 119.81 153.98 121.09 154.08 C 122.36 154.18 123.48 153.22 123.58 151.95 L 123.66 150.94 C 123.76 149.66 122.81 148.55 121.53 148.45 C 120.26 148.35 119.14 149.30 119.04 150.57 Z M 118.93 151.71 L 118.91 152.65 C 118.88 153.94 119.90 155.01 121.19 155.04 C 122.48 155.07 123.56 154.05 123.59 152.76 L 123.61 151.82 C 123.64 150.53 122.62 149.46 121.33 149.43 C 120.03 149.40 118.96 150.42 118.93 151.71 Z M 118.89 152.76 L 118.92 153.75 C 118.95 155.05 120.03 156.08 121.33 156.05 C 122.63 156.02 123.66 154.94 123.62 153.64 L 123.60 152.65 C 123.57 151.35 122.49 150.32 121.19 150.35 C 119.89 150.38 118.86 151.46 118.89 152.76 Z M 118.91 153.86 L 118.98 154.90 C 119.07 156.20 120.20 157.19 121.51 157.10 C 122.81 157.01 123.80 155.87 123.71 154.57 L 123.64 153.53 C 123.54 152.23 122.41 151.24 121.11 151.33 C 119.80 151.42 118.82 152.56 118.91 153.86 Z M 118.97 155.01 L 119.10 156.07 C 119.26 157.38 120.44 158.31 121.75 158.16 C 123.06 158.00 123.99 156.82 123.84 155.51 L 123.71 154.45 C 123.56 153.14 122.37 152.21 121.06 152.36 C 119.75 152.52 118.82 153.71 118.97 155.01 Z M 119.11 156.19 L 119.28 157.21 C 119.50 158.51 120.74 159.39 122.05 159.17 C 123.35 158.95 124.23 157.71 124.00 156.40 L 123.83 155.39 C 123.61 154.08 122.37 153.21 121.07 153.43 C 119.76 153.65 118.88 154.89 119.11 156.19 Z M 119.30 157.31 L 119.51 158.30 C 119.79 159.60 121.07 160.42 122.36 160.14 C 123.66 159.86 124.48 158.58 124.20 157.29 L 123.99 156.30 C 123.71 155.01 122.43 154.18 121.14 154.46 C 119.84 154.74 119.02 156.02 119.30 157.31 Z M 119.53 158.37 L 119.77 159.35 C 120.09 160.64 121.39 161.42 122.68 161.10 C 123.96 160.78 124.74 159.48 124.42 158.19 L 124.18 157.22 C 123.86 155.93 122.56 155.15 121.28 155.47 C 119.99 155.79 119.21 157.09 119.53 158.37 Z M 119.78 159.39 L 120.04 160.36 C 120.39 161.64 121.70 162.40 122.98 162.05 C 124.26 161.71 125.02 160.40 124.67 159.12 L 124.41 158.15 C 124.07 156.87 122.76 156.11 121.48 156.46 C 120.20 156.80 119.44 158.12 119.78 159.39 Z M 120.05 160.38 L 120.31 161.33 C 120.66 162.60 121.98 163.35 123.26 163.00 C 124.53 162.65 125.28 161.33 124.93 160.05 L 124.67 159.10 C 124.32 157.83 123.00 157.08 121.72 157.43 C 120.45 157.78 119.70 159.10 120.05 160.38 Z M 120.31 161.31 L 120.58 162.31 C 120.92 163.59 122.24 164.34 123.51 164.00 C 124.79 163.65 125.54 162.34 125.20 161.06 L 124.93 160.07 C 124.59 158.79 123.27 158.04 122.00 158.38 C 120.72 158.73 119.97 160.04 120.31 161.31 Z M 120.58 162.28 L 120.85 163.32 C 121.17 164.60 122.48 165.36 123.75 165.04 C 125.03 164.71 125.80 163.41 125.47 162.13 L 125.20 161.09 C 124.87 159.82 123.57 159.05 122.29 159.38 C 121.02 159.70 120.25 161.01 120.58 162.28 Z M 120.85 163.30 L 121.10 164.29 C 121.41 165.57 122.70 166.35 123.98 166.03 C 125.25 165.71 126.03 164.42 125.71 163.15 L 125.46 162.15 C 125.15 160.88 123.86 160.10 122.58 160.42 C 121.31 160.73 120.53 162.02 120.85 163.30 Z M 121.10 164.28 L 121.33 165.22 C 121.64 166.49 122.92 167.27 124.19 166.97 C 125.46 166.66 126.24 165.38 125.94 164.10 L 125.71 163.16 C 125.40 161.89 124.12 161.11 122.84 161.42 C 121.57 161.73 120.79 163.01 121.10 164.28 Z M 121.34 165.22 L 121.55 166.09 C 121.86 167.36 123.13 168.14 124.40 167.83 C 125.67 167.52 126.45 166.25 126.14 164.98 L 125.93 164.11 C 125.62 162.84 124.34 162.06 123.08 162.37 C 121.81 162.68 121.03 163.95 121.34 165.22 Z M 121.56 166.10 L 121.78 166.98 C 122.09 168.23 123.37 169.00 124.62 168.69 C 125.88 168.38 126.65 167.11 126.34 165.85 L 126.13 164.97 C 125.81 163.71 124.54 162.95 123.28 163.26 C 122.02 163.57 121.25 164.84 121.56 166.10 Z M 121.79 166.97 L 122.01 167.84 C 122.32 169.09 123.59 169.86 124.84 169.55 C 126.09 169.23 126.85 167.97 126.54 166.72 L 126.33 165.85 C 126.02 164.60 124.75 163.83 123.50 164.15 C 122.25 164.46 121.48 165.72 121.79 166.97 Z M 122.02 167.83 L 122.25 168.78 C 122.56 170.02 123.81 170.78 125.06 170.48 C 126.30 170.18 127.07 168.92 126.76 167.68 L 126.53 166.73 C 126.23 165.48 124.97 164.72 123.73 165.02 C 122.48 165.33 121.72 166.58 122.02 167.83 Z M 122.26 168.75 L 122.53 169.87 C 122.82 171.11 124.06 171.88 125.30 171.59 C 126.54 171.30 127.31 170.06 127.02 168.82 L 126.75 167.70 C 126.46 166.46 125.22 165.69 123.98 165.98 C 122.74 166.27 121.97 167.51 122.26 168.75 Z M 122.53 169.85 L 122.75 170.80 C 123.03 172.03 124.26 172.81 125.49 172.53 C 126.73 172.25 127.50 171.02 127.22 169.78 L 127.01 168.84 C 126.73 167.60 125.50 166.83 124.26 167.11 C 123.03 167.39 122.25 168.62 122.53 169.85 Z M 122.75 170.79 L 122.96 171.71 C 123.24 172.94 124.46 173.72 125.69 173.45 C 126.92 173.17 127.70 171.95 127.42 170.72 L 127.22 169.79 C 126.94 168.56 125.72 167.78 124.49 168.06 C 123.26 168.33 122.48 169.55 122.75 170.79 Z M 122.97 171.70 L 123.18 172.69 C 123.45 173.92 124.67 174.70 125.90 174.43 C 127.13 174.16 127.90 172.94 127.63 171.72 L 127.42 170.73 C 127.15 169.50 125.93 168.72 124.70 168.99 C 123.47 169.26 122.70 170.47 122.97 171.70 Z M 123.19 172.68 L 123.41 173.71 C 123.68 174.94 124.89 175.71 126.11 175.45 C 127.34 175.18 128.12 173.97 127.85 172.75 L 127.63 171.72 C 127.36 170.50 126.15 169.72 124.93 169.99 C 123.70 170.25 122.92 171.46 123.19 172.68 Z M 123.42 173.70 L 123.64 174.74 C 123.90 175.96 125.10 176.74 126.33 176.48 C 127.55 176.21 128.33 175.01 128.07 173.79 L 127.84 172.76 C 127.58 171.53 126.38 170.75 125.16 171.02 C 123.94 171.28 123.16 172.48 123.42 173.70 Z M 123.65 174.73 L 123.86 175.75 C 124.12 176.96 125.31 177.74 126.53 177.49 C 127.75 177.23 128.53 176.03 128.27 174.81 L 128.06 173.80 C 127.80 172.58 126.60 171.80 125.39 172.06 C 124.17 172.31 123.39 173.51 123.65 174.73 Z M 123.87 175.74 L 124.08 176.74 C 124.33 177.95 125.52 178.73 126.73 178.48 C 127.95 178.22 128.73 177.03 128.47 175.82 L 128.27 174.82 C 128.01 173.61 126.82 172.83 125.61 173.08 C 124.39 173.33 123.62 174.52 123.87 175.74 Z M 124.10 176.72 L 124.33 177.86 C 124.58 179.07 125.75 179.84 126.96 179.59 C 128.16 179.35 128.93 178.17 128.69 176.97 L 128.45 175.83 C 128.21 174.63 127.03 173.85 125.83 174.10 C 124.63 174.35 123.85 175.52 124.10 176.72 Z M 124.37 177.85 L 124.58 178.89 C 124.82 180.08 125.97 180.84 127.15 180.60 C 128.33 180.37 129.10 179.21 128.86 178.03 L 128.65 176.99 C 128.41 175.80 127.26 175.04 126.08 175.28 C 124.90 175.52 124.13 176.67 124.37 177.85 Z M 124.61 178.88 L 124.81 179.85 C 125.04 181.01 126.17 181.76 127.33 181.53 C 128.49 181.30 129.25 180.17 129.02 179.01 L 128.83 178.05 C 128.59 176.88 127.46 176.13 126.30 176.36 C 125.14 176.59 124.38 177.72 124.61 178.88 Z M 124.84 179.84 L 125.02 180.73 C 125.24 181.88 126.35 182.62 127.50 182.40 C 128.64 182.17 129.38 181.06 129.16 179.92 L 128.98 179.02 C 128.76 177.88 127.65 177.13 126.50 177.36 C 125.36 177.58 124.62 178.69 124.84 179.84 Z M 125.06 180.73 L 125.22 181.57 C 125.44 182.70 126.53 183.43 127.65 183.21 C 128.78 182.99 129.51 181.90 129.29 180.78 L 129.12 179.93 C 128.90 178.81 127.81 178.07 126.69 178.29 C 125.57 178.51 124.84 179.60 125.06 180.73 Z M 125.26 181.57 L 125.47 182.61 C 125.69 183.71 126.76 184.43 127.86 184.21 C 128.96 183.99 129.68 182.92 129.46 181.81 L 129.25 180.78 C 129.03 179.68 127.96 178.96 126.86 179.18 C 125.76 179.40 125.04 180.47 125.26 181.57 Z M 125.51 182.63 L 125.73 183.64 C 125.96 184.72 127.02 185.40 128.10 185.17 C 129.18 184.94 129.86 183.88 129.63 182.80 L 129.41 181.79 C 129.18 180.71 128.12 180.03 127.04 180.26 C 125.96 180.49 125.28 181.56 125.51 182.63 Z M 125.78 183.71 L 126.02 184.65 C 126.29 185.70 127.36 186.33 128.41 186.06 C 129.45 185.79 130.09 184.73 129.82 183.68 L 129.58 182.74 C 129.31 181.69 128.24 181.06 127.19 181.32 C 126.15 181.59 125.52 182.66 125.78 183.71 Z M 126.09 184.75 L 126.38 185.63 C 126.70 186.64 127.78 187.19 128.79 186.87 C 129.80 186.55 130.35 185.46 130.03 184.46 L 129.75 183.58 C 129.42 182.57 128.34 182.01 127.33 182.34 C 126.32 182.66 125.77 183.74 126.09 184.75 Z M 126.49 185.81 L 127.01 186.96 C 127.43 187.90 128.54 188.32 129.49 187.90 C 130.43 187.47 130.85 186.36 130.43 185.42 L 129.91 184.27 C 129.49 183.33 128.38 182.91 127.43 183.33 C 126.49 183.76 126.07 184.87 126.49 185.81 Z M 127.28 187.31 L 127.86 188.06 C 128.48 188.85 129.63 188.99 130.43 188.37 C 131.22 187.75 131.36 186.60 130.74 185.81 L 130.16 185.06 C 129.54 184.27 128.39 184.13 127.59 184.75 C 126.80 185.37 126.66 186.52 127.28 187.31 Z M 129.15 188.71 L 129.67 188.75 C 130.65 188.83 131.52 188.11 131.60 187.13 C 131.68 186.15 130.96 185.28 129.98 185.20 L 129.45 185.16 C 128.47 185.07 127.61 185.80 127.53 186.78 C 127.44 187.76 128.17 188.62 129.15 188.71 Z M 131.28 187.95 L 131.69 187.34 C 132.23 186.53 132.01 185.44 131.20 184.91 C 130.40 184.37 129.31 184.59 128.77 185.40 L 128.37 186.01 C 127.83 186.81 128.05 187.90 128.86 188.44 C 129.66 188.97 130.75 188.75 131.28 187.95 Z M 131.89 186.86 L 132.22 185.75 C 132.49 184.84 131.97 183.87 131.05 183.60 C 130.13 183.33 129.17 183.85 128.90 184.77 L 128.57 185.87 C 128.30 186.79 128.82 187.75 129.74 188.03 C 130.66 188.30 131.62 187.77 131.89 186.86 Z M 132.25 185.56 L 132.45 184.38 C 132.62 183.44 131.99 182.55 131.06 182.39 C 130.13 182.23 129.24 182.85 129.08 183.78 L 128.87 184.97 C 128.71 185.90 129.33 186.79 130.26 186.95 C 131.20 187.11 132.08 186.49 132.25 185.56 Z M 132.46 184.28 L 132.57 183.37 C 132.68 182.43 132.02 181.58 131.08 181.47 C 130.14 181.35 129.29 182.02 129.18 182.96 L 129.07 183.88 C 128.96 184.81 129.62 185.66 130.56 185.78 C 131.50 185.89 132.35 185.22 132.46 184.28 Z M 132.58 183.32 L 132.67 182.34 C 132.75 181.40 132.06 180.57 131.12 180.48 C 130.18 180.39 129.35 181.09 129.26 182.03 L 129.17 183.01 C 129.09 183.95 129.78 184.78 130.72 184.86 C 131.66 184.95 132.49 184.26 132.58 183.32 Z M 132.67 182.30 L 132.74 181.28 C 132.81 180.34 132.10 179.52 131.16 179.45 C 130.22 179.38 129.40 180.09 129.34 181.03 L 129.26 182.06 C 129.19 183.00 129.90 183.82 130.84 183.89 C 131.78 183.95 132.60 183.25 132.67 182.30 Z M 132.74 181.26 L 132.81 180.20 C 132.87 179.26 132.15 178.45 131.21 178.39 C 130.26 178.34 129.46 179.05 129.40 179.99 L 129.33 181.05 C 129.28 181.99 129.99 182.80 130.94 182.86 C 131.88 182.92 132.69 182.20 132.74 181.26 Z M 132.81 180.19 L 132.85 179.37 C 132.91 178.43 132.19 177.63 131.24 177.57 C 130.30 177.52 129.50 178.24 129.44 179.18 L 129.40 180.00 C 129.34 180.94 130.07 181.75 131.01 181.80 C 131.95 181.86 132.76 181.14 132.81 180.19 Z"
      fill="black"
      fill-rule="nonzero" /><path d="M 129.59 159.40 L 128.98 158.33 C 128.46 157.41 127.28 157.09 126.35 157.61 C 125.43 158.14 125.11 159.32 125.63 160.24 L 126.24 161.31 C 126.77 162.23 127.95 162.55 128.87 162.03 C 129.80 161.50 130.12 160.32 129.59 159.40 Z M 129.14 158.31 L 128.60 157.29 C 128.05 156.27 126.79 155.89 125.78 156.44 C 124.77 156.98 124.39 158.24 124.93 159.25 L 125.48 160.27 C 126.02 161.28 127.28 161.66 128.29 161.12 C 129.30 160.58 129.68 159.32 129.14 158.31 Z M 128.79 157.34 L 128.37 156.41 C 127.86 155.29 126.53 154.80 125.41 155.31 C 124.29 155.82 123.80 157.15 124.31 158.27 L 124.73 159.20 C 125.25 160.32 126.57 160.81 127.69 160.30 C 128.81 159.79 129.30 158.46 128.79 157.34 Z M 128.62 156.64 L 128.37 155.85 C 127.99 154.59 126.66 153.88 125.40 154.26 C 124.14 154.65 123.43 155.98 123.82 157.24 L 124.06 158.03 C 124.44 159.29 125.77 160.00 127.03 159.62 C 128.29 159.23 129.00 157.90 128.62 156.64 Z M 128.61 156.63 L 128.63 155.94 C 128.68 154.55 127.60 153.39 126.21 153.34 C 124.82 153.29 123.65 154.38 123.61 155.76 L 123.58 156.45 C 123.53 157.84 124.62 159.01 126.01 159.06 C 127.40 159.11 128.56 158.02 128.61 156.63 Z M 127.91 157.71 L 128.48 157.16 C 129.50 156.18 129.53 154.54 128.54 153.52 C 127.56 152.49 125.93 152.46 124.90 153.45 L 124.33 154.00 C 123.31 154.98 123.27 156.61 124.26 157.64 C 125.25 158.67 126.88 158.70 127.91 157.71 Z M 127.27 157.83 L 128.26 157.60 C 129.65 157.28 130.52 155.89 130.20 154.50 C 129.88 153.11 128.49 152.24 127.10 152.56 L 126.11 152.78 C 124.71 153.10 123.84 154.49 124.16 155.89 C 124.48 157.28 125.87 158.15 127.27 157.83 Z M 127.84 157.67 L 128.98 157.60 C 130.41 157.51 131.50 156.28 131.42 154.85 C 131.33 153.42 130.10 152.33 128.67 152.42 L 127.52 152.49 C 126.09 152.57 125.00 153.81 125.09 155.24 C 125.18 156.67 126.41 157.76 127.84 157.67 Z M 128.89 157.60 L 129.90 157.58 C 131.34 157.54 132.47 156.35 132.43 154.91 C 132.39 153.48 131.20 152.35 129.77 152.39 L 128.76 152.41 C 127.32 152.45 126.19 153.64 126.23 155.08 C 126.27 156.51 127.46 157.64 128.89 157.60 Z M 129.87 157.57 L 130.88 157.56 C 132.31 157.54 133.45 156.37 133.43 154.94 C 133.42 153.51 132.24 152.36 130.81 152.38 L 129.80 152.39 C 128.37 152.41 127.23 153.58 127.25 155.01 C 127.26 156.44 128.44 157.59 129.87 157.57 Z M 130.85 157.55 L 131.85 157.55 C 133.27 157.55 134.43 156.39 134.42 154.96 C 134.42 153.53 133.26 152.38 131.83 152.38 L 130.84 152.39 C 129.41 152.39 128.26 153.55 128.26 154.98 C 128.27 156.40 129.43 157.56 130.85 157.55 Z M 131.84 157.54 L 132.83 157.54 C 134.25 157.54 135.40 156.39 135.40 154.97 C 135.40 153.55 134.25 152.40 132.83 152.40 L 131.84 152.40 C 130.42 152.40 129.27 153.55 129.27 154.97 C 129.27 156.39 130.42 157.54 131.84 157.54 Z M 132.83 157.50 L 133.83 157.50 C 135.23 157.50 136.36 156.37 136.36 154.97 C 136.36 153.57 135.23 152.43 133.83 152.43 L 132.83 152.43 C 131.43 152.43 130.29 153.57 130.29 154.97 C 130.29 156.37 131.43 157.50 132.83 157.50 Z M 133.83 157.47 L 134.81 157.47 C 136.19 157.47 137.31 156.35 137.31 154.97 C 137.31 153.59 136.19 152.47 134.81 152.47 L 133.83 152.47 C 132.45 152.47 131.33 153.59 131.33 154.97 C 131.33 156.35 132.45 157.47 133.83 157.47 Z M 134.81 157.43 L 135.82 157.43 C 137.18 157.43 138.28 156.33 138.28 154.97 C 138.28 153.61 137.18 152.51 135.82 152.51 L 134.81 152.51 C 133.45 152.51 132.35 153.61 132.35 154.97 C 132.35 156.33 133.45 157.43 134.81 157.43 Z M 135.81 157.38 L 136.81 157.39 C 138.15 157.39 139.23 156.31 139.24 154.98 C 139.24 153.64 138.16 152.56 136.83 152.55 L 135.83 152.55 C 134.49 152.55 133.41 153.62 133.40 154.96 C 133.40 156.29 134.48 157.38 135.81 157.38 Z M 136.77 157.34 L 137.78 157.36 C 139.09 157.39 140.17 156.35 140.20 155.04 C 140.23 153.73 139.19 152.65 137.88 152.62 L 136.87 152.60 C 135.56 152.57 134.48 153.61 134.45 154.92 C 134.42 156.23 135.46 157.31 136.77 157.34 Z M 137.70 157.31 L 138.70 157.37 C 139.98 157.44 141.08 156.46 141.15 155.18 C 141.22 153.90 140.24 152.80 138.96 152.73 L 137.96 152.68 C 136.68 152.60 135.59 153.58 135.52 154.86 C 135.45 156.14 136.43 157.24 137.70 157.31 Z M 138.58 157.30 L 139.60 157.42 C 140.84 157.56 141.96 156.66 142.11 155.42 C 142.25 154.18 141.35 153.05 140.11 152.91 L 139.09 152.80 C 137.85 152.66 136.72 153.55 136.58 154.79 C 136.44 156.04 137.33 157.16 138.58 157.30 Z M 139.40 157.31 L 140.41 157.53 C 141.60 157.78 142.76 157.01 143.01 155.83 C 143.26 154.64 142.50 153.47 141.31 153.22 L 140.31 153.01 C 139.12 152.76 137.95 153.52 137.70 154.71 C 137.45 155.90 138.21 157.06 139.40 157.31 Z M 140.14 157.37 L 141.05 157.70 C 142.15 158.10 143.37 157.53 143.77 156.43 C 144.17 155.33 143.60 154.11 142.50 153.71 L 141.59 153.38 C 140.49 152.98 139.27 153.55 138.87 154.65 C 138.47 155.75 139.04 156.97 140.14 157.37 Z M 140.72 157.46 L 141.53 157.94 C 142.50 158.53 143.75 158.22 144.33 157.25 C 144.92 156.28 144.60 155.03 143.64 154.45 L 142.83 153.96 C 141.86 153.38 140.61 153.69 140.02 154.65 C 139.44 155.62 139.75 156.87 140.72 157.46 Z M 141.22 157.60 L 141.92 158.27 C 142.70 159.02 143.93 159.01 144.68 158.23 C 145.43 157.46 145.42 156.22 144.64 155.47 L 143.94 154.79 C 143.17 154.04 141.93 154.06 141.18 154.84 C 140.43 155.61 140.45 156.84 141.22 157.60 Z M 141.72 157.88 L 142.27 158.72 C 142.82 159.58 143.97 159.83 144.83 159.27 C 145.69 158.72 145.94 157.57 145.38 156.71 L 144.84 155.87 C 144.28 155.01 143.14 154.76 142.28 155.31 C 141.42 155.87 141.17 157.02 141.72 157.88 Z M 142.17 158.34 L 142.53 159.29 C 142.87 160.20 143.89 160.66 144.81 160.31 C 145.72 159.97 146.18 158.95 145.84 158.03 L 145.48 157.09 C 145.13 156.17 144.11 155.71 143.20 156.06 C 142.28 156.40 141.82 157.43 142.17 158.34 Z M 142.48 158.96 L 142.65 159.91 C 142.82 160.85 143.72 161.48 144.66 161.31 C 145.60 161.14 146.22 160.24 146.05 159.30 L 145.88 158.35 C 145.71 157.41 144.82 156.79 143.88 156.96 C 142.94 157.13 142.31 158.02 142.48 158.96 Z M 142.63 159.61 L 142.63 160.61 C 142.64 161.56 143.41 162.33 144.36 162.33 C 145.31 162.33 146.08 161.55 146.08 160.60 L 146.07 159.60 C 146.07 158.65 145.30 157.88 144.35 157.88 C 143.40 157.89 142.63 158.66 142.63 159.61 Z M 142.67 160.30 L 142.48 161.32 C 142.32 162.25 142.93 163.15 143.86 163.31 C 144.80 163.48 145.69 162.86 145.86 161.93 L 146.04 160.91 C 146.21 159.98 145.59 159.09 144.66 158.92 C 143.73 158.75 142.84 159.37 142.67 160.30 Z M 142.57 161.02 L 142.22 161.95 C 141.89 162.83 142.33 163.82 143.21 164.15 C 144.09 164.49 145.08 164.04 145.42 163.16 L 145.77 162.23 C 146.10 161.35 145.66 160.37 144.78 160.03 C 143.89 159.70 142.91 160.14 142.57 161.02 Z M 142.33 161.72 L 141.84 162.59 C 141.38 163.41 141.67 164.45 142.49 164.92 C 143.31 165.38 144.35 165.09 144.81 164.27 L 145.31 163.39 C 145.77 162.57 145.48 161.53 144.66 161.07 C 143.84 160.60 142.79 160.89 142.33 161.72 Z M 141.95 162.42 L 141.35 163.23 C 140.79 164.00 140.96 165.06 141.72 165.62 C 142.48 166.18 143.55 166.02 144.10 165.25 L 144.70 164.44 C 145.26 163.68 145.10 162.61 144.34 162.05 C 143.58 161.49 142.51 161.66 141.95 162.42 Z M 141.46 163.10 L 140.79 163.85 C 140.16 164.55 140.21 165.63 140.91 166.26 C 141.62 166.89 142.70 166.83 143.33 166.13 L 144.00 165.39 C 144.63 164.69 144.57 163.61 143.87 162.97 C 143.17 162.34 142.09 162.40 141.46 163.10 Z M 140.90 163.73 L 140.13 164.44 C 139.44 165.08 139.40 166.16 140.04 166.85 C 140.68 167.55 141.76 167.59 142.46 166.95 L 143.22 166.25 C 143.91 165.61 143.95 164.52 143.31 163.83 C 142.67 163.14 141.59 163.09 140.90 163.73 Z M 140.25 164.34 L 139.45 164.95 C 138.70 165.53 138.56 166.61 139.14 167.36 C 139.72 168.11 140.80 168.24 141.55 167.67 L 142.35 167.05 C 143.09 166.47 143.23 165.39 142.65 164.64 C 142.07 163.89 140.99 163.76 140.25 164.34 Z M 139.55 164.87 L 138.74 165.41 C 137.94 165.93 137.72 167.00 138.25 167.80 C 138.77 168.59 139.84 168.81 140.63 168.28 L 141.45 167.74 C 142.24 167.22 142.46 166.15 141.94 165.36 C 141.41 164.57 140.35 164.35 139.55 164.87 Z M 138.82 165.35 L 138.00 165.82 C 137.18 166.30 136.89 167.36 137.37 168.18 C 137.85 169.01 138.90 169.29 139.73 168.82 L 140.55 168.35 C 141.37 167.87 141.66 166.81 141.18 165.98 C 140.70 165.16 139.65 164.87 138.82 165.35 Z M 138.07 165.76 L 137.26 166.17 C 136.40 166.61 136.06 167.66 136.50 168.52 C 136.94 169.38 137.99 169.72 138.85 169.29 L 139.66 168.88 C 140.52 168.44 140.86 167.39 140.42 166.53 C 139.99 165.67 138.93 165.32 138.07 165.76 Z M 137.34 166.11 L 136.46 166.50 C 135.57 166.89 135.16 167.94 135.55 168.83 C 135.95 169.73 136.99 170.13 137.89 169.74 L 138.77 169.35 C 139.66 168.96 140.07 167.91 139.68 167.02 C 139.28 166.12 138.24 165.72 137.34 166.11 Z M 136.54 166.44 L 135.54 166.82 C 134.61 167.17 134.14 168.20 134.49 169.13 C 134.84 170.06 135.88 170.53 136.81 170.18 L 137.81 169.80 C 138.73 169.45 139.20 168.41 138.85 167.49 C 138.50 166.56 137.47 166.09 136.54 166.44 Z M 135.60 166.75 L 134.47 167.12 C 133.51 167.44 132.98 168.48 133.30 169.44 C 133.62 170.40 134.65 170.93 135.61 170.61 L 136.74 170.24 C 137.71 169.92 138.23 168.89 137.92 167.93 C 137.60 166.96 136.56 166.44 135.60 166.75 Z M 134.50 167.03 L 133.32 167.38 C 132.31 167.68 131.73 168.74 132.03 169.75 C 132.33 170.77 133.39 171.35 134.40 171.05 L 135.58 170.70 C 136.59 170.41 137.17 169.34 136.88 168.33 C 136.58 167.32 135.52 166.74 134.50 167.03 Z M 133.35 167.27 L 132.27 167.56 C 131.20 167.84 130.56 168.94 130.84 170.01 C 131.12 171.08 132.22 171.72 133.29 171.44 L 134.38 171.15 C 135.45 170.87 136.09 169.77 135.80 168.70 C 135.52 167.63 134.42 166.99 133.35 167.27 Z M 132.33 167.45 L 131.52 167.62 C 130.39 167.87 129.67 169.00 129.92 170.13 C 130.17 171.26 131.29 171.98 132.42 171.73 L 133.23 171.55 C 134.37 171.30 135.08 170.18 134.83 169.05 C 134.58 167.91 133.46 167.20 132.33 167.45 Z M 132.00 167.50 L 131.63 167.50 C 130.43 167.48 129.44 168.44 129.43 169.65 C 129.41 170.85 130.37 171.84 131.58 171.85 L 131.95 171.85 C 133.15 171.87 134.13 170.91 134.15 169.70 C 134.16 168.50 133.20 167.52 132.00 167.50 Z M 132.65 171.62 L 133.32 171.26 C 134.40 170.68 134.80 169.34 134.23 168.27 C 133.65 167.19 132.31 166.79 131.23 167.36 L 130.56 167.73 C 129.48 168.30 129.08 169.64 129.66 170.72 C 130.23 171.79 131.57 172.20 132.65 171.62 Z M 133.07 171.38 L 134.32 170.90 C 135.46 170.46 136.03 169.18 135.60 168.04 C 135.16 166.89 133.87 166.32 132.73 166.76 L 131.48 167.24 C 130.34 167.68 129.77 168.96 130.21 170.11 C 130.65 171.25 131.93 171.82 133.07 171.38 Z M 134.20 170.94 L 135.16 170.63 C 136.32 170.26 136.96 169.01 136.59 167.85 C 136.22 166.68 134.97 166.04 133.80 166.42 L 132.85 166.73 C 131.68 167.10 131.04 168.35 131.42 169.51 C 131.79 170.67 133.04 171.31 134.20 170.94 Z M 135.05 170.65 L 136.02 170.39 C 137.19 170.07 137.89 168.87 137.58 167.70 C 137.26 166.52 136.06 165.83 134.88 166.14 L 133.91 166.40 C 132.74 166.72 132.04 167.92 132.36 169.09 C 132.67 170.27 133.88 170.96 135.05 170.65 Z M 135.90 170.40 L 136.87 170.20 C 138.05 169.95 138.81 168.79 138.56 167.61 C 138.31 166.43 137.16 165.68 135.98 165.93 L 135.00 166.13 C 133.83 166.38 133.07 167.53 133.32 168.71 C 133.56 169.89 134.72 170.65 135.90 170.40 Z M 136.71 170.17 L 137.77 170.03 C 138.94 169.87 139.76 168.80 139.60 167.63 C 139.44 166.46 138.37 165.65 137.20 165.81 L 136.14 165.95 C 134.97 166.11 134.15 167.18 134.31 168.35 C 134.47 169.51 135.54 170.33 136.71 170.17 Z M 137.44 169.95 L 138.46 169.97 C 139.58 170.00 140.51 169.11 140.54 167.99 C 140.56 166.87 139.67 165.94 138.55 165.91 L 137.54 165.89 C 136.41 165.86 135.48 166.75 135.46 167.87 C 135.43 168.99 136.32 169.92 137.44 169.95 Z M 137.84 169.74 L 138.69 170.05 C 139.68 170.42 140.78 169.92 141.15 168.92 C 141.52 167.93 141.01 166.82 140.02 166.45 L 139.17 166.14 C 138.18 165.77 137.07 166.28 136.71 167.27 C 136.34 168.27 136.84 169.37 137.84 169.74 Z M 137.96 169.48 L 138.53 170.13 C 139.21 170.89 140.38 170.97 141.15 170.29 C 141.91 169.62 141.99 168.45 141.31 167.68 L 140.74 167.03 C 140.07 166.26 138.90 166.19 138.13 166.86 C 137.36 167.54 137.29 168.71 137.96 169.48 Z M 138.20 169.55 L 138.54 170.46 C 138.90 171.41 139.96 171.89 140.91 171.54 C 141.87 171.18 142.35 170.12 141.99 169.16 L 141.65 168.25 C 141.29 167.30 140.23 166.82 139.27 167.18 C 138.32 167.54 137.84 168.60 138.20 169.55 Z M 138.44 170.08 L 138.60 171.14 C 138.74 172.15 139.68 172.84 140.69 172.70 C 141.69 172.55 142.39 171.61 142.24 170.61 L 142.09 169.55 C 141.94 168.54 141.01 167.84 140.00 167.99 C 138.99 168.14 138.29 169.07 138.44 170.08 Z M 138.57 170.87 L 138.57 171.92 C 138.57 172.94 139.39 173.77 140.42 173.77 C 141.44 173.77 142.27 172.94 142.27 171.92 L 142.27 170.88 C 142.27 169.85 141.45 169.03 140.42 169.02 C 139.40 169.02 138.57 169.85 138.57 170.87 Z M 138.57 171.69 L 138.45 172.67 C 138.32 173.70 139.05 174.63 140.07 174.75 C 141.09 174.88 142.02 174.15 142.15 173.13 L 142.27 172.15 C 142.40 171.12 141.67 170.19 140.65 170.07 C 139.62 169.94 138.69 170.67 138.57 171.69 Z M 138.46 172.48 L 138.24 173.45 C 138.01 174.46 138.64 175.47 139.65 175.71 C 140.67 175.94 141.68 175.31 141.91 174.29 L 142.13 173.32 C 142.37 172.31 141.73 171.30 140.72 171.07 C 139.71 170.83 138.70 171.46 138.46 172.48 Z M 138.26 173.29 L 137.95 174.25 C 137.63 175.25 138.18 176.32 139.18 176.64 C 140.18 176.97 141.25 176.42 141.57 175.42 L 141.88 174.46 C 142.21 173.46 141.66 172.39 140.66 172.06 C 139.66 171.74 138.59 172.29 138.26 173.29 Z M 137.98 174.12 L 137.64 174.97 C 137.25 175.95 137.73 177.07 138.72 177.46 C 139.70 177.85 140.82 177.37 141.21 176.39 L 141.55 175.54 C 141.94 174.56 141.46 173.44 140.47 173.05 C 139.49 172.65 138.37 173.14 137.98 174.12 Z M 137.66 174.87 L 137.27 175.74 C 136.82 176.72 137.26 177.87 138.23 178.31 C 139.21 178.75 140.36 178.32 140.80 177.35 L 141.19 176.48 C 141.64 175.50 141.21 174.35 140.23 173.91 C 139.26 173.47 138.11 173.90 137.66 174.87 Z M 137.28 175.67 L 136.83 176.59 C 136.34 177.55 136.74 178.73 137.70 179.21 C 138.67 179.69 139.85 179.30 140.33 178.33 L 140.78 177.42 C 141.27 176.45 140.87 175.27 139.91 174.79 C 138.94 174.31 137.76 174.70 137.28 175.67 Z M 136.83 176.54 L 136.31 177.52 C 135.80 178.49 136.17 179.68 137.13 180.19 C 138.10 180.70 139.29 180.33 139.80 179.37 L 140.32 178.38 C 140.83 177.42 140.46 176.22 139.50 175.71 C 138.53 175.20 137.34 175.57 136.83 176.54 Z M 136.30 177.50 L 135.70 178.61 C 135.18 179.57 135.54 180.78 136.51 181.31 C 137.48 181.83 138.69 181.47 139.21 180.50 L 139.81 179.39 C 140.33 178.43 139.97 177.22 139.01 176.69 C 138.04 176.17 136.83 176.53 136.30 177.50 Z M 135.68 178.61 L 135.12 179.66 C 134.60 180.64 134.97 181.86 135.95 182.38 C 136.93 182.91 138.14 182.54 138.67 181.56 L 139.23 180.50 C 139.75 179.52 139.38 178.30 138.40 177.78 C 137.42 177.26 136.21 177.63 135.68 178.61 Z M 135.07 179.71 L 134.66 180.55 C 134.17 181.56 134.58 182.77 135.58 183.27 C 136.59 183.76 137.80 183.35 138.30 182.34 L 138.71 181.51 C 139.21 180.50 138.79 179.29 137.79 178.79 C 136.79 178.30 135.57 178.71 135.07 179.71 Z M 134.53 180.84 L 134.38 181.31 C 134.05 182.39 134.65 183.54 135.72 183.87 C 136.80 184.21 137.95 183.61 138.28 182.53 L 138.43 182.06 C 138.77 180.98 138.17 179.83 137.09 179.50 C 136.01 179.16 134.87 179.76 134.53 180.84 Z M 137.30 183.73 L 137.67 183.53 C 138.67 183.00 139.05 181.76 138.51 180.76 C 137.98 179.76 136.74 179.39 135.75 179.92 L 135.37 180.12 C 134.37 180.65 134.00 181.89 134.53 182.89 C 135.06 183.88 136.30 184.26 137.30 183.73 Z M 138.23 183.08 L 139.04 182.17 C 139.79 181.33 139.72 180.05 138.88 179.30 C 138.04 178.55 136.75 178.62 136.00 179.46 L 135.19 180.37 C 134.44 181.21 134.51 182.49 135.35 183.24 C 136.19 183.99 137.48 183.92 138.23 183.08 Z M 139.12 182.05 L 139.86 181.09 C 140.54 180.20 140.37 178.93 139.48 178.25 C 138.60 177.57 137.33 177.74 136.65 178.63 L 135.91 179.59 C 135.23 180.47 135.40 181.74 136.29 182.42 C 137.17 183.10 138.44 182.93 139.12 182.05 Z M 139.89 181.01 L 140.46 180.19 C 141.10 179.29 140.88 178.04 139.97 177.41 C 139.07 176.77 137.83 176.99 137.19 177.89 L 136.62 178.71 C 135.99 179.61 136.20 180.86 137.11 181.49 C 138.01 182.13 139.25 181.91 139.89 181.01 Z M 140.47 180.13 L 141.03 179.28 C 141.63 178.37 141.38 177.15 140.47 176.55 C 139.57 175.95 138.35 176.20 137.75 177.11 L 137.19 177.96 C 136.59 178.86 136.84 180.08 137.74 180.68 C 138.65 181.28 139.87 181.03 140.47 180.13 Z M 141.02 179.23 L 141.56 178.38 C 142.14 177.47 141.87 176.28 140.96 175.70 C 140.06 175.13 138.87 175.40 138.29 176.30 L 137.75 177.16 C 137.18 178.06 137.45 179.26 138.35 179.83 C 139.26 180.40 140.45 180.13 141.02 179.23 Z M 141.55 178.33 L 142.07 177.50 C 142.62 176.60 142.33 175.43 141.44 174.88 C 140.54 174.33 139.37 174.61 138.82 175.51 L 138.30 176.34 C 137.75 177.24 138.04 178.42 138.93 178.96 C 139.83 179.51 141.01 179.23 141.55 178.33 Z M 142.06 177.46 L 142.54 176.64 C 143.07 175.75 142.77 174.60 141.88 174.07 C 140.99 173.54 139.84 173.84 139.31 174.73 L 138.82 175.55 C 138.30 176.44 138.59 177.59 139.49 178.12 C 140.38 178.65 141.53 178.35 142.06 177.46 Z M 142.54 176.59 L 143.01 175.75 C 143.51 174.86 143.19 173.73 142.30 173.23 C 141.40 172.73 140.28 173.05 139.78 173.94 L 139.31 174.78 C 138.81 175.67 139.13 176.80 140.02 177.30 C 140.91 177.80 142.04 177.48 142.54 176.59 Z M 143.01 175.69 L 143.48 174.80 C 143.94 173.90 143.60 172.80 142.70 172.33 C 141.81 171.87 140.71 172.22 140.24 173.11 L 139.77 174.01 C 139.31 174.90 139.65 176.00 140.55 176.47 C 141.44 176.93 142.55 176.59 143.01 175.69 Z M 143.48 174.74 L 143.95 173.76 C 144.38 172.86 144.01 171.79 143.11 171.35 C 142.22 170.92 141.14 171.30 140.71 172.19 L 140.24 173.17 C 139.81 174.07 140.18 175.14 141.08 175.58 C 141.97 176.01 143.05 175.63 143.48 174.74 Z M 143.96 173.71 L 144.34 172.86 C 144.74 171.96 144.35 170.90 143.45 170.50 C 142.55 170.09 141.50 170.49 141.09 171.39 L 140.71 172.24 C 140.30 173.14 140.70 174.19 141.60 174.60 C 142.50 175.00 143.55 174.61 143.96 173.71 Z M 144.34 172.82 L 144.73 171.91 C 145.12 171.01 144.70 169.97 143.80 169.59 C 142.90 169.20 141.86 169.62 141.48 170.52 L 141.09 171.42 C 140.70 172.32 141.12 173.37 142.02 173.75 C 142.92 174.14 143.96 173.72 144.34 172.82 Z M 144.74 171.88 L 145.12 170.94 C 145.49 170.04 145.06 169.01 144.16 168.64 C 143.26 168.27 142.23 168.70 141.86 169.60 L 141.47 170.55 C 141.11 171.45 141.54 172.48 142.44 172.85 C 143.34 173.21 144.37 172.78 144.74 171.88 Z M 145.12 170.91 L 145.50 169.95 C 145.86 169.04 145.41 168.03 144.51 167.67 C 143.61 167.32 142.59 167.76 142.24 168.66 L 141.86 169.63 C 141.51 170.53 141.95 171.55 142.85 171.90 C 143.75 172.25 144.77 171.81 145.12 170.91 Z M 145.50 169.92 L 145.86 168.96 C 146.20 168.06 145.75 167.05 144.85 166.72 C 143.94 166.38 142.94 166.83 142.60 167.73 L 142.24 168.69 C 141.90 169.59 142.36 170.60 143.26 170.94 C 144.16 171.27 145.17 170.82 145.50 169.92 Z M 145.87 168.93 L 146.22 167.95 C 146.54 167.05 146.07 166.05 145.17 165.73 C 144.26 165.41 143.27 165.88 142.95 166.78 L 142.60 167.76 C 142.28 168.67 142.75 169.66 143.65 169.98 C 144.55 170.30 145.54 169.83 145.87 168.93 Z M 146.22 167.92 L 146.55 166.93 C 146.86 166.03 146.37 165.05 145.47 164.74 C 144.56 164.44 143.58 164.92 143.28 165.83 L 142.95 166.81 C 142.64 167.72 143.13 168.70 144.03 169.00 C 144.93 169.31 145.91 168.82 146.22 167.92 Z M 146.56 166.90 L 146.86 165.95 C 147.15 165.04 146.65 164.07 145.75 163.78 C 144.84 163.49 143.87 163.99 143.58 164.90 L 143.27 165.86 C 142.98 166.76 143.48 167.73 144.39 168.02 C 145.30 168.31 146.27 167.81 146.56 166.90 Z M 146.86 165.92 L 147.15 164.99 C 147.43 164.08 146.91 163.12 146.01 162.85 C 145.10 162.57 144.14 163.08 143.86 163.99 L 143.58 164.92 C 143.30 165.83 143.81 166.79 144.72 167.07 C 145.63 167.34 146.59 166.83 146.86 165.92 Z M 147.15 164.97 L 147.42 164.05 C 147.68 163.14 147.16 162.19 146.26 161.92 C 145.35 161.66 144.40 162.18 144.13 163.09 L 143.86 164.01 C 143.60 164.92 144.12 165.87 145.02 166.13 C 145.93 166.40 146.88 165.88 147.15 164.97 Z M 147.42 164.03 L 147.69 163.09 C 147.94 162.18 147.42 161.24 146.51 160.98 C 145.60 160.72 144.65 161.25 144.40 162.16 L 144.13 163.10 C 143.87 164.01 144.40 164.95 145.31 165.21 C 146.22 165.47 147.16 164.94 147.42 164.03 Z M 147.69 163.08 L 147.96 162.12 C 148.21 161.21 147.67 160.27 146.77 160.01 C 145.86 159.76 144.91 160.29 144.66 161.20 L 144.40 162.17 C 144.14 163.08 144.68 164.02 145.59 164.27 C 146.49 164.52 147.44 163.99 147.69 163.08 Z M 147.96 162.11 L 148.22 161.14 C 148.47 160.23 147.93 159.30 147.02 159.05 C 146.11 158.80 145.17 159.34 144.92 160.25 L 144.66 161.21 C 144.41 162.12 144.95 163.06 145.86 163.31 C 146.77 163.56 147.71 163.02 147.96 162.11 Z M 148.22 161.14 L 148.48 160.17 C 148.73 159.26 148.19 158.33 147.28 158.08 C 146.36 157.84 145.43 158.38 145.18 159.29 L 144.92 160.25 C 144.68 161.16 145.22 162.10 146.13 162.35 C 147.04 162.59 147.98 162.05 148.22 161.14 Z M 148.48 160.17 L 148.74 159.21 C 148.98 158.30 148.44 157.36 147.53 157.12 C 146.62 156.87 145.68 157.41 145.44 158.32 L 145.18 159.29 C 144.94 160.20 145.48 161.14 146.39 161.38 C 147.30 161.62 148.24 161.08 148.48 160.17 Z M 148.74 159.21 L 148.81 158.95 C 149.05 158.03 148.51 157.10 147.60 156.86 C 146.69 156.61 145.75 157.15 145.51 158.07 L 145.44 158.33 C 145.20 159.24 145.74 160.17 146.65 160.42 C 147.56 160.66 148.50 160.12 148.74 159.21 Z"
      fill="black"
      fill-rule="nonzero" /><path d="M 151.80 117.30 L 151.43 118.18 C 150.93 119.36 151.48 120.71 152.66 121.21 C 153.84 121.70 155.19 121.15 155.69 119.98 L 156.06 119.09 C 156.56 117.92 156.01 116.56 154.83 116.06 C 153.65 115.57 152.30 116.12 151.80 117.30 Z M 151.40 118.26 L 151.05 119.17 C 150.60 120.36 151.19 121.70 152.39 122.15 C 153.58 122.61 154.91 122.01 155.37 120.82 L 155.72 119.90 C 156.17 118.71 155.57 117.38 154.38 116.92 C 153.19 116.47 151.85 117.06 151.40 118.26 Z M 151.00 119.31 L 150.70 120.28 C 150.33 121.50 151.01 122.80 152.23 123.17 C 153.45 123.55 154.74 122.86 155.12 121.64 L 155.42 120.67 C 155.79 119.45 155.11 118.16 153.89 117.78 C 152.67 117.41 151.38 118.09 151.00 119.31 Z M 150.65 120.48 L 150.44 121.46 C 150.17 122.71 150.96 123.94 152.21 124.21 C 153.46 124.48 154.69 123.69 154.96 122.44 L 155.17 121.45 C 155.44 120.20 154.65 118.97 153.40 118.70 C 152.15 118.43 150.92 119.23 150.65 120.48 Z M 150.40 121.64 L 150.28 122.57 C 150.10 123.84 150.99 125.00 152.26 125.18 C 153.53 125.35 154.70 124.46 154.87 123.19 L 155.00 122.26 C 155.17 120.99 154.28 119.83 153.01 119.65 C 151.74 119.48 150.57 120.37 150.40 121.64 Z M 150.25 122.68 L 150.17 123.67 C 150.06 124.95 151.01 126.07 152.29 126.18 C 153.57 126.29 154.70 125.34 154.81 124.06 L 154.89 123.07 C 155.00 121.79 154.05 120.67 152.77 120.56 C 151.49 120.45 150.36 121.40 150.25 122.68 Z M 150.16 123.74 L 150.11 124.77 C 150.04 126.06 151.03 127.16 152.31 127.22 C 153.60 127.29 154.70 126.30 154.77 125.01 L 154.82 123.98 C 154.89 122.70 153.90 121.60 152.61 121.53 C 151.32 121.47 150.23 122.46 150.16 123.74 Z M 150.10 124.81 L 150.06 125.87 C 150.01 127.16 151.02 128.25 152.31 128.30 C 153.61 128.34 154.69 127.33 154.74 126.04 L 154.77 124.98 C 154.82 123.68 153.81 122.60 152.52 122.55 C 151.23 122.51 150.14 123.52 150.10 124.81 Z M 150.05 125.88 L 150.02 126.91 C 149.98 128.21 150.99 129.29 152.29 129.33 C 153.59 129.38 154.67 128.36 154.71 127.06 L 154.75 126.03 C 154.79 124.73 153.77 123.65 152.47 123.61 C 151.18 123.57 150.09 124.58 150.05 125.88 Z M 150.01 126.91 L 149.97 127.94 C 149.93 129.24 150.95 130.33 152.25 130.37 C 153.56 130.41 154.65 129.39 154.69 128.09 L 154.72 127.06 C 154.77 125.76 153.74 124.67 152.44 124.63 C 151.14 124.59 150.05 125.61 150.01 126.91 Z M 149.96 127.93 L 149.93 128.94 C 149.88 130.25 150.90 131.35 152.21 131.40 C 153.52 131.44 154.62 130.42 154.66 129.11 L 154.70 128.10 C 154.75 126.79 153.72 125.69 152.42 125.65 C 151.11 125.60 150.01 126.62 149.96 127.93 Z M 149.92 128.93 L 149.88 129.92 C 149.82 131.23 150.85 132.34 152.16 132.39 C 153.47 132.45 154.58 131.43 154.63 130.11 L 154.67 129.13 C 154.73 127.81 153.71 126.70 152.39 126.65 C 151.08 126.60 149.97 127.62 149.92 128.93 Z M 149.87 129.90 L 149.82 130.86 C 149.76 132.18 150.77 133.30 152.09 133.36 C 153.41 133.43 154.53 132.41 154.59 131.09 L 154.64 130.13 C 154.71 128.81 153.69 127.69 152.37 127.63 C 151.05 127.57 149.93 128.58 149.87 129.90 Z M 149.81 130.83 L 149.75 131.93 C 149.67 133.25 150.68 134.39 152.00 134.46 C 153.32 134.54 154.46 133.53 154.54 132.21 L 154.60 131.12 C 154.68 129.79 153.67 128.66 152.35 128.58 C 151.03 128.50 149.89 129.51 149.81 130.83 Z M 149.74 131.91 L 149.67 132.93 C 149.59 134.25 150.59 135.40 151.92 135.49 C 153.25 135.57 154.39 134.57 154.48 133.24 L 154.55 132.23 C 154.63 130.90 153.63 129.75 152.30 129.67 C 150.97 129.58 149.83 130.59 149.74 131.91 Z M 149.67 132.93 L 149.61 133.88 C 149.52 135.21 150.53 136.36 151.87 136.44 C 153.20 136.53 154.35 135.52 154.43 134.18 L 154.49 133.24 C 154.57 131.90 153.56 130.75 152.23 130.67 C 150.90 130.59 149.75 131.60 149.67 132.93 Z M 149.59 133.91 L 149.55 134.84 C 149.48 136.18 150.51 137.32 151.85 137.38 C 153.19 137.45 154.33 136.42 154.39 135.08 L 154.44 134.15 C 154.51 132.81 153.48 131.68 152.14 131.61 C 150.80 131.54 149.66 132.57 149.59 133.91 Z M 149.54 134.89 L 149.51 135.88 C 149.47 137.22 150.53 138.34 151.87 138.38 C 153.22 138.42 154.34 137.36 154.38 136.02 L 154.40 135.03 C 154.44 133.69 153.38 132.57 152.04 132.53 C 150.70 132.49 149.58 133.55 149.54 134.89 Z M 149.50 135.92 L 149.49 136.90 C 149.48 138.25 150.56 139.36 151.91 139.37 C 153.25 139.38 154.36 138.30 154.37 136.96 L 154.38 135.97 C 154.40 134.63 153.32 133.52 151.97 133.51 C 150.62 133.49 149.52 134.57 149.50 135.92 Z M 149.49 136.93 L 149.48 137.95 C 149.48 139.30 150.58 140.40 151.93 140.40 C 153.28 140.40 154.38 139.31 154.38 137.96 L 154.38 136.93 C 154.38 135.58 153.29 134.49 151.94 134.48 C 150.59 134.48 149.49 135.57 149.49 136.93 Z M 149.48 137.95 L 149.48 138.94 C 149.48 140.30 150.58 141.39 151.93 141.39 C 153.28 141.39 154.38 140.30 154.38 138.94 L 154.38 137.95 C 154.38 136.60 153.28 135.50 151.93 135.50 C 150.58 135.50 149.48 136.60 149.48 137.95 Z M 149.48 138.94 L 149.48 139.96 C 149.48 141.31 150.58 142.41 151.93 142.41 C 153.28 142.41 154.38 141.31 154.38 139.96 L 154.38 138.94 C 154.38 137.59 153.28 136.49 151.93 136.49 C 150.58 136.49 149.48 137.59 149.48 138.94 Z M 149.48 139.96 L 149.48 140.97 C 149.48 142.32 150.58 143.42 151.93 143.42 C 153.28 143.42 154.38 142.32 154.38 140.97 L 154.38 139.96 C 154.38 138.60 153.28 137.51 151.93 137.51 C 150.58 137.51 149.48 138.60 149.48 139.96 Z M 149.48 140.97 L 149.48 141.99 C 149.48 143.35 150.58 144.45 151.93 144.44 C 153.29 144.44 154.38 143.35 154.38 141.99 L 154.38 140.97 C 154.38 139.62 153.28 138.52 151.93 138.52 C 150.58 138.52 149.48 139.62 149.48 140.97 Z M 149.48 142.10 L 149.53 143.19 C 149.58 144.54 150.73 145.59 152.08 145.53 C 153.44 145.48 154.49 144.33 154.43 142.98 L 154.38 141.89 C 154.32 140.53 153.18 139.48 151.83 139.54 C 150.47 139.60 149.42 140.74 149.48 142.10 Z M 149.60 143.70 L 149.83 144.61 C 150.17 145.92 151.51 146.71 152.83 146.37 C 154.14 146.03 154.93 144.69 154.59 143.37 L 154.36 142.46 C 154.02 141.15 152.68 140.36 151.36 140.70 C 150.05 141.04 149.26 142.38 149.60 143.70 Z M 150.34 145.59 L 150.90 146.24 C 151.78 147.28 153.33 147.40 154.37 146.51 C 155.40 145.63 155.53 144.08 154.64 143.04 L 154.09 142.39 C 153.20 141.35 151.65 141.23 150.61 142.12 C 149.58 143.00 149.46 144.55 150.34 145.59 Z M 151.78 146.90 L 152.61 147.27 C 153.86 147.82 155.31 147.25 155.86 146.00 C 156.41 144.75 155.84 143.29 154.59 142.74 L 153.76 142.38 C 152.51 141.83 151.05 142.40 150.51 143.65 C 149.96 144.90 150.53 146.36 151.78 146.90 Z M 153.20 147.45 L 154.22 147.62 C 155.57 147.84 156.85 146.92 157.07 145.57 C 157.29 144.22 156.37 142.94 155.02 142.72 L 154.00 142.56 C 152.65 142.34 151.37 143.25 151.15 144.61 C 150.93 145.96 151.85 147.23 153.20 147.45 Z M 154.64 147.66 L 155.71 147.65 C 157.09 147.64 158.19 146.52 158.18 145.15 C 158.17 143.77 157.05 142.67 155.68 142.68 L 154.60 142.68 C 153.23 142.69 152.12 143.81 152.13 145.19 C 152.14 146.56 153.26 147.67 154.64 147.66 Z M 156.08 147.63 L 157.09 147.47 C 158.45 147.26 159.38 145.99 159.17 144.62 C 158.96 143.26 157.68 142.33 156.32 142.54 L 155.31 142.70 C 153.95 142.91 153.02 144.18 153.23 145.55 C 153.44 146.91 154.72 147.84 156.08 147.63 Z M 157.41 147.41 L 158.35 147.13 C 159.67 146.74 160.43 145.35 160.04 144.02 C 159.65 142.70 158.26 141.94 156.94 142.33 L 156.00 142.61 C 154.67 143.00 153.91 144.39 154.30 145.71 C 154.69 147.04 156.08 147.80 157.41 147.41 Z M 158.57 147.06 L 159.49 146.69 C 160.78 146.18 161.40 144.72 160.89 143.44 C 160.38 142.15 158.92 141.52 157.64 142.04 L 156.72 142.40 C 155.43 142.91 154.80 144.37 155.32 145.66 C 155.83 146.94 157.28 147.57 158.57 147.06 Z M 159.59 146.66 L 160.50 146.25 C 161.76 145.68 162.33 144.20 161.76 142.93 C 161.19 141.67 159.71 141.10 158.44 141.67 L 157.54 142.07 C 156.27 142.64 155.71 144.13 156.27 145.39 C 156.84 146.66 158.33 147.22 159.59 146.66 Z M 160.53 146.24 L 161.42 145.83 C 162.68 145.24 163.23 143.75 162.64 142.49 C 162.06 141.23 160.56 140.68 159.30 141.26 L 158.41 141.68 C 157.15 142.26 156.60 143.76 157.19 145.02 C 157.77 146.28 159.27 146.83 160.53 146.24 Z M 161.44 145.82 L 162.35 145.39 C 163.61 144.79 164.15 143.29 163.55 142.03 C 162.95 140.77 161.45 140.24 160.19 140.83 L 159.28 141.27 C 158.02 141.86 157.48 143.37 158.08 144.63 C 158.68 145.88 160.18 146.42 161.44 145.82 Z M 162.37 145.39 L 163.29 144.94 C 164.55 144.34 165.08 142.83 164.47 141.57 C 163.86 140.31 162.35 139.78 161.09 140.39 L 160.17 140.84 C 158.92 141.44 158.39 142.95 159.00 144.21 C 159.60 145.47 161.11 146.00 162.37 145.39 Z M 163.31 144.95 L 164.23 144.49 C 165.49 143.88 166.01 142.36 165.39 141.10 C 164.78 139.84 163.26 139.32 162.00 139.94 L 161.08 140.39 C 159.82 141.00 159.30 142.52 159.91 143.78 C 160.53 145.04 162.05 145.56 163.31 144.95 Z M 164.24 144.50 L 165.15 144.06 C 166.41 143.44 166.94 141.91 166.32 140.65 C 165.70 139.38 164.17 138.86 162.91 139.48 L 161.99 139.93 C 160.73 140.55 160.21 142.07 160.83 143.34 C 161.45 144.60 162.97 145.12 164.24 144.50 Z M 165.14 144.07 L 166.04 143.64 C 167.31 143.03 167.85 141.50 167.23 140.22 C 166.62 138.95 165.09 138.42 163.82 139.03 L 162.92 139.46 C 161.64 140.08 161.11 141.61 161.72 142.88 C 162.34 144.15 163.87 144.69 165.14 144.07 Z M 166.01 143.67 L 166.89 143.26 C 168.18 142.66 168.74 141.13 168.14 139.84 C 167.54 138.55 166.01 137.99 164.72 138.59 L 163.84 139.00 C 162.55 139.60 162.00 141.13 162.60 142.42 C 163.20 143.71 164.73 144.27 166.01 143.67 Z M 166.85 143.30 L 167.78 142.89 C 169.09 142.31 169.69 140.78 169.11 139.47 C 168.54 138.16 167.01 137.57 165.70 138.14 L 164.77 138.55 C 163.46 139.13 162.86 140.66 163.44 141.97 C 164.01 143.28 165.54 143.87 166.85 143.30 Z M 167.72 142.94 L 168.65 142.56 C 169.99 142.02 170.63 140.50 170.09 139.16 C 169.55 137.82 168.03 137.18 166.69 137.72 L 165.77 138.09 C 164.43 138.63 163.78 140.15 164.32 141.49 C 164.86 142.83 166.38 143.48 167.72 142.94 Z M 168.57 142.62 L 169.49 142.28 C 170.86 141.79 171.57 140.28 171.07 138.91 C 170.58 137.54 169.07 136.83 167.70 137.33 L 166.77 137.66 C 165.41 138.16 164.70 139.67 165.19 141.04 C 165.69 142.40 167.20 143.11 168.57 142.62 Z M 169.40 142.34 L 170.34 142.04 C 171.74 141.60 172.52 140.11 172.08 138.71 C 171.64 137.31 170.15 136.53 168.75 136.97 L 167.80 137.27 C 166.40 137.71 165.62 139.20 166.06 140.60 C 166.50 142.00 167.99 142.78 169.40 142.34 Z M 170.23 142.10 L 171.21 141.85 C 172.64 141.47 173.50 140.00 173.12 138.56 C 172.74 137.13 171.27 136.27 169.84 136.65 L 168.86 136.91 C 167.42 137.28 166.57 138.75 166.95 140.19 C 167.32 141.63 168.79 142.48 170.23 142.10 Z M 171.07 141.91 L 172.05 141.71 C 173.52 141.41 174.47 139.97 174.16 138.50 C 173.86 137.03 172.42 136.08 170.95 136.38 L 169.97 136.58 C 168.50 136.89 167.55 138.32 167.86 139.80 C 168.16 141.27 169.60 142.22 171.07 141.91 Z M 171.88 141.77 L 172.86 141.64 C 174.37 141.43 175.42 140.04 175.21 138.53 C 175.00 137.03 173.61 135.98 172.10 136.19 L 171.12 136.32 C 169.61 136.53 168.56 137.92 168.77 139.43 C 168.98 140.93 170.37 141.98 171.88 141.77 Z M 172.58 141.69 L 173.58 141.65 C 175.12 141.60 176.32 140.31 176.27 138.78 C 176.21 137.25 174.93 136.05 173.39 136.10 L 172.39 136.13 C 170.85 136.19 169.65 137.47 169.71 139.01 C 169.76 140.54 171.04 141.74 172.58 141.69 Z M 173.03 141.64 L 174.00 141.80 C 175.52 142.05 176.97 141.02 177.22 139.49 C 177.47 137.96 176.43 136.52 174.91 136.27 L 173.94 136.11 C 172.42 135.86 170.98 136.89 170.72 138.42 C 170.47 139.95 171.51 141.39 173.03 141.64 Z M 173.22 141.57 L 174.10 142.00 C 175.50 142.68 177.19 142.10 177.87 140.69 C 178.55 139.29 177.97 137.60 176.56 136.92 L 175.69 136.50 C 174.28 135.81 172.59 136.40 171.91 137.80 C 171.23 139.20 171.82 140.89 173.22 141.57 Z M 173.45 141.58 L 174.16 142.21 C 175.33 143.25 177.12 143.14 178.16 141.97 C 179.20 140.80 179.09 139.01 177.92 137.97 L 177.21 137.34 C 176.04 136.30 174.25 136.41 173.21 137.58 C 172.17 138.75 172.28 140.54 173.45 141.58 Z M 173.81 141.85 L 174.45 142.65 C 175.42 143.88 177.20 144.08 178.43 143.11 C 179.66 142.14 179.87 140.35 178.89 139.12 L 178.26 138.33 C 177.29 137.10 175.50 136.89 174.28 137.87 C 173.05 138.84 172.84 140.62 173.81 141.85 Z M 174.25 142.37 L 174.79 143.26 C 175.61 144.59 177.36 145.01 178.70 144.19 C 180.03 143.38 180.45 141.63 179.64 140.29 L 179.09 139.40 C 178.27 138.06 176.52 137.64 175.19 138.46 C 173.85 139.28 173.43 141.03 174.25 142.37 Z M 174.66 143.03 L 175.11 143.94 C 175.80 145.35 177.50 145.93 178.91 145.23 C 180.32 144.54 180.91 142.84 180.21 141.43 L 179.77 140.52 C 179.07 139.11 177.37 138.53 175.96 139.22 C 174.55 139.91 173.97 141.62 174.66 143.03 Z M 175.01 143.73 L 175.37 144.64 C 175.95 146.10 177.60 146.82 179.07 146.24 C 180.53 145.66 181.25 144.01 180.67 142.55 L 180.31 141.64 C 179.73 140.17 178.08 139.45 176.61 140.03 C 175.15 140.61 174.43 142.27 175.01 143.73 Z M 175.31 144.47 L 175.61 145.41 C 176.10 146.91 177.71 147.73 179.20 147.24 C 180.70 146.76 181.52 145.15 181.04 143.65 L 180.73 142.71 C 180.25 141.21 178.64 140.39 177.14 140.88 C 175.64 141.37 174.82 142.98 175.31 144.47 Z M 175.58 145.31 L 175.86 146.30 C 176.29 147.81 177.87 148.69 179.39 148.26 C 180.91 147.83 181.78 146.24 181.35 144.73 L 181.07 143.75 C 180.64 142.23 179.06 141.35 177.54 141.78 C 176.02 142.22 175.14 143.80 175.58 145.31 Z M 175.84 146.26 L 176.08 147.15 C 176.50 148.67 178.07 149.57 179.59 149.16 C 181.12 148.75 182.02 147.18 181.61 145.65 L 181.36 144.76 C 180.95 143.24 179.38 142.34 177.86 142.75 C 176.33 143.16 175.43 144.74 175.84 146.26 Z M 176.07 147.12 L 176.32 148.06 C 176.72 149.59 178.28 150.51 179.81 150.12 C 181.34 149.72 182.26 148.16 181.86 146.63 L 181.62 145.68 C 181.22 144.15 179.66 143.23 178.13 143.63 C 176.60 144.03 175.68 145.59 176.07 147.12 Z M 176.31 148.03 L 176.55 149.02 C 176.93 150.56 178.48 151.50 180.02 151.12 C 181.56 150.74 182.50 149.19 182.12 147.66 L 181.87 146.66 C 181.49 145.12 179.94 144.18 178.41 144.56 C 176.87 144.94 175.93 146.49 176.31 148.03 Z M 176.54 148.99 L 176.78 150.03 C 177.14 151.57 178.68 152.53 180.22 152.18 C 181.77 151.82 182.73 150.28 182.37 148.74 L 182.13 147.69 C 181.77 146.15 180.23 145.19 178.69 145.55 C 177.15 145.90 176.18 147.44 176.54 148.99 Z M 176.77 149.99 L 176.97 150.93 C 177.31 152.48 178.83 153.46 180.38 153.13 C 181.93 152.79 182.92 151.27 182.58 149.72 L 182.38 148.78 C 182.05 147.23 180.52 146.24 178.97 146.58 C 177.42 146.91 176.44 148.44 176.77 149.99 Z M 176.96 150.89 L 177.15 151.84 C 177.47 153.39 178.98 154.40 180.54 154.08 C 182.09 153.77 183.10 152.25 182.79 150.70 L 182.60 149.75 C 182.28 148.20 180.77 147.19 179.21 147.51 C 177.65 147.82 176.65 149.34 176.96 150.89 Z M 177.14 151.80 L 177.33 152.78 C 177.62 154.34 179.13 155.36 180.69 155.07 C 182.25 154.77 183.28 153.27 182.98 151.71 L 182.80 150.73 C 182.50 149.17 181.00 148.14 179.44 148.44 C 177.87 148.74 176.85 150.24 177.14 151.80 Z M 177.32 152.74 L 177.50 153.75 C 177.77 155.32 179.27 156.36 180.83 156.09 C 182.40 155.81 183.44 154.32 183.17 152.75 L 182.99 151.74 C 182.71 150.17 181.22 149.13 179.65 149.41 C 178.09 149.68 177.04 151.18 177.32 152.74 Z M 177.49 153.72 L 177.66 154.76 C 177.92 156.34 179.40 157.40 180.97 157.14 C 182.54 156.88 183.61 155.40 183.35 153.83 L 183.18 152.78 C 182.92 151.21 181.43 150.15 179.86 150.41 C 178.29 150.67 177.23 152.15 177.49 153.72 Z M 177.65 154.74 L 177.81 155.77 C 178.06 157.35 179.53 158.43 181.10 158.18 C 182.68 157.94 183.76 156.47 183.52 154.89 L 183.36 153.86 C 183.11 152.28 181.64 151.20 180.07 151.45 C 178.49 151.69 177.41 153.16 177.65 154.74 Z M 177.81 155.75 L 177.96 156.79 C 178.19 158.37 179.65 159.46 181.23 159.23 C 182.81 159.00 183.90 157.54 183.67 155.96 L 183.52 154.92 C 183.29 153.34 181.83 152.25 180.25 152.48 C 178.67 152.71 177.58 154.17 177.81 155.75 Z M 177.95 156.77 L 178.10 157.80 C 178.31 159.38 179.77 160.48 181.35 160.26 C 182.93 160.05 184.04 158.59 183.82 157.01 L 183.68 155.98 C 183.46 154.40 182.00 153.29 180.42 153.51 C 178.84 153.73 177.74 155.19 177.95 156.77 Z M 178.09 157.78 L 178.22 158.77 C 178.43 160.35 179.88 161.47 181.47 161.26 C 183.05 161.05 184.16 159.60 183.96 158.02 L 183.82 157.02 C 183.62 155.44 182.16 154.33 180.58 154.54 C 179.00 154.74 177.88 156.20 178.09 157.78 Z M 178.22 158.76 L 178.33 159.68 C 178.53 161.27 179.98 162.39 181.57 162.19 C 183.15 161.99 184.28 160.55 184.08 158.96 L 183.96 158.03 C 183.76 156.45 182.31 155.32 180.73 155.52 C 179.14 155.72 178.02 157.17 178.22 158.76 Z M 178.33 159.67 L 178.45 160.70 C 178.64 162.28 180.09 163.42 181.67 163.23 C 183.26 163.04 184.39 161.59 184.20 160.01 L 184.08 158.98 C 183.89 157.39 182.45 156.26 180.86 156.45 C 179.27 156.64 178.14 158.08 178.33 159.67 Z M 178.45 160.67 L 178.57 161.72 C 178.75 163.31 180.18 164.46 181.77 164.28 C 183.36 164.10 184.50 162.67 184.33 161.08 L 184.21 160.03 C 184.03 158.44 182.60 157.29 181.01 157.47 C 179.42 157.65 178.27 159.08 178.45 160.67 Z M 178.57 161.70 L 178.66 162.64 C 178.83 164.23 180.25 165.39 181.84 165.23 C 183.43 165.06 184.59 163.64 184.43 162.05 L 184.33 161.10 C 184.16 159.51 182.74 158.36 181.15 158.52 C 179.56 158.68 178.40 160.11 178.57 161.70 Z M 178.66 162.62 L 178.75 163.53 C 178.90 165.12 180.32 166.29 181.91 166.13 C 183.50 165.98 184.67 164.56 184.52 162.97 L 184.43 162.07 C 184.28 160.48 182.86 159.31 181.27 159.46 C 179.67 159.61 178.51 161.03 178.66 162.62 Z M 178.75 163.51 L 178.84 164.49 C 178.98 166.08 180.39 167.25 181.99 167.11 C 183.58 166.96 184.75 165.55 184.61 163.96 L 184.52 162.98 C 184.37 161.39 182.96 160.22 181.37 160.36 C 179.77 160.51 178.60 161.92 178.75 163.51 Z M 178.83 164.48 L 178.92 165.48 C 179.07 167.08 180.48 168.25 182.07 168.11 C 183.66 167.97 184.84 166.56 184.70 164.96 L 184.61 163.96 C 184.46 162.37 183.06 161.19 181.46 161.34 C 179.87 161.48 178.69 162.89 178.83 164.48 Z M 178.92 165.48 L 179.01 166.49 C 179.16 168.08 180.56 169.26 182.16 169.11 C 183.75 168.97 184.93 167.56 184.79 165.97 L 184.70 164.96 C 184.55 163.37 183.15 162.19 181.55 162.34 C 179.96 162.48 178.78 163.89 178.92 165.48 Z M 179.01 166.49 L 179.11 167.49 C 179.25 169.09 180.66 170.26 182.25 170.12 C 183.85 169.97 185.02 168.56 184.88 166.97 L 184.79 165.97 C 184.64 164.37 183.23 163.20 181.64 163.34 C 180.04 163.49 178.87 164.90 179.01 166.49 Z M 179.10 167.49 L 179.20 168.49 C 179.34 170.09 180.75 171.26 182.34 171.12 C 183.94 170.97 185.11 169.56 184.97 167.97 L 184.88 166.97 C 184.73 165.37 183.32 164.20 181.73 164.34 C 180.14 164.49 178.96 165.90 179.10 167.49 Z M 179.19 168.48 L 179.28 169.47 C 179.41 171.06 180.82 172.24 182.41 172.11 C 184.01 171.97 185.19 170.57 185.06 168.97 L 184.97 167.98 C 184.83 166.39 183.43 165.21 181.84 165.34 C 180.24 165.48 179.06 166.88 179.19 168.48 Z M 179.28 169.44 L 179.35 170.43 C 179.47 172.02 180.86 173.22 182.46 173.10 C 184.05 172.98 185.25 171.59 185.13 170.00 L 185.06 169.00 C 184.94 167.41 183.55 166.21 181.95 166.33 C 180.35 166.45 179.16 167.84 179.28 169.44 Z M 179.35 170.39 L 179.41 171.39 C 179.51 172.99 180.88 174.20 182.48 174.10 C 184.08 174.00 185.29 172.63 185.20 171.03 L 185.13 170.03 C 185.04 168.44 183.66 167.22 182.06 167.32 C 180.47 167.42 179.25 168.79 179.35 170.39 Z M 179.41 171.36 L 179.46 172.36 C 179.54 173.96 180.91 175.19 182.51 175.11 C 184.10 175.02 185.33 173.66 185.25 172.06 L 185.20 171.06 C 185.11 169.46 183.75 168.23 182.15 168.31 C 180.55 168.40 179.32 169.76 179.41 171.36 Z M 179.46 172.35 L 179.51 173.35 C 179.58 174.95 180.94 176.18 182.54 176.11 C 184.14 176.03 185.37 174.67 185.30 173.07 L 185.25 172.07 C 185.17 170.47 183.82 169.24 182.22 169.32 C 180.62 169.39 179.38 170.75 179.46 172.35 Z M 179.51 173.34 L 179.55 174.25 C 179.62 175.85 180.98 177.09 182.58 177.01 C 184.18 176.94 185.41 175.58 185.34 173.98 L 185.30 173.08 C 185.22 171.48 183.87 170.24 182.27 170.31 C 180.67 170.39 179.43 171.74 179.51 173.34 Z M 179.55 174.24 L 179.59 175.16 C 179.65 176.76 181.00 178.00 182.60 177.93 C 184.20 177.87 185.45 176.51 185.38 174.92 L 185.34 173.99 C 185.27 172.39 183.92 171.15 182.32 171.22 C 180.72 171.29 179.48 172.64 179.55 174.24 Z M 179.59 175.13 L 179.62 176.15 C 179.67 177.75 181.01 179.00 182.61 178.95 C 184.21 178.90 185.46 177.56 185.41 175.96 L 185.38 174.94 C 185.33 173.34 183.99 172.09 182.39 172.14 C 180.79 172.19 179.53 173.53 179.59 175.13 Z M 179.62 176.11 L 179.64 177.26 C 179.68 178.86 181.00 180.13 182.60 180.10 C 184.20 180.06 185.47 178.74 185.44 177.14 L 185.41 175.99 C 185.38 174.39 184.05 173.12 182.45 173.15 C 180.85 173.19 179.58 174.51 179.62 176.11 Z M 179.64 177.24 L 179.65 178.19 C 179.67 179.79 180.99 181.07 182.59 181.05 C 184.19 181.03 185.47 179.72 185.45 178.12 L 185.44 177.16 C 185.42 175.56 184.10 174.28 182.50 174.30 C 180.90 174.32 179.62 175.64 179.64 177.24 Z M 179.65 178.17 L 179.66 179.19 C 179.67 180.79 180.98 182.08 182.58 182.07 C 184.18 182.06 185.47 180.75 185.46 179.15 L 185.45 178.13 C 185.44 176.53 184.13 175.24 182.53 175.26 C 180.93 175.27 179.64 176.57 179.65 178.17 Z M 179.66 179.18 L 179.67 180.23 C 179.67 181.83 180.97 183.12 182.57 183.11 C 184.17 183.11 185.47 181.81 185.46 180.21 L 185.46 179.16 C 185.45 177.56 184.15 176.27 182.55 176.27 C 180.95 176.28 179.66 177.58 179.66 179.18 Z M 179.67 180.22 L 179.67 181.25 C 179.67 182.85 180.97 184.14 182.57 184.14 C 184.17 184.14 185.46 182.84 185.46 181.24 L 185.46 180.21 C 185.46 178.61 184.16 177.32 182.56 177.32 C 180.96 177.32 179.66 178.62 179.67 180.22 Z M 179.67 181.25 L 179.67 182.22 C 179.67 183.82 180.97 185.11 182.57 185.11 C 184.17 185.11 185.46 183.82 185.46 182.22 L 185.46 181.24 C 185.46 179.64 184.16 178.35 182.56 178.35 C 180.96 178.35 179.67 179.65 179.67 181.25 Z M 179.67 182.22 L 179.67 183.30 C 179.67 184.90 180.96 186.20 182.56 186.20 C 184.16 186.20 185.46 184.90 185.46 183.30 L 185.46 182.22 C 185.46 180.62 184.16 179.32 182.57 179.32 C 180.97 179.32 179.67 180.62 179.67 182.22 Z M 179.67 183.29 L 179.67 184.30 C 179.67 185.90 180.96 187.20 182.56 187.20 C 184.15 187.20 185.45 185.91 185.45 184.31 L 185.46 183.31 C 185.46 181.71 184.17 180.41 182.57 180.41 C 180.97 180.41 179.68 181.70 179.67 183.29 Z M 179.67 184.29 L 179.67 185.24 C 179.66 186.83 180.94 188.13 182.54 188.14 C 184.13 188.16 185.43 186.87 185.44 185.28 L 185.45 184.33 C 185.46 182.73 184.18 181.43 182.58 181.42 C 180.99 181.41 179.69 182.69 179.67 184.29 Z M 179.67 185.22 L 179.66 186.17 C 179.64 187.76 180.91 189.07 182.50 189.09 C 184.10 189.11 185.40 187.84 185.43 186.25 L 185.44 185.30 C 185.46 183.70 184.19 182.40 182.60 182.37 C 181.00 182.35 179.69 183.63 179.67 185.22 Z M 179.66 186.15 L 179.64 187.11 C 179.61 188.71 180.87 190.02 182.46 190.06 C 184.05 190.09 185.37 188.83 185.40 187.24 L 185.42 186.27 C 185.46 184.68 184.20 183.37 182.61 183.33 C 181.02 183.29 179.70 184.55 179.66 186.15 Z M 179.65 187.07 L 179.61 188.08 C 179.55 189.67 180.79 191.00 182.38 191.06 C 183.97 191.12 185.30 189.88 185.36 188.29 L 185.40 187.28 C 185.45 185.70 184.21 184.36 182.63 184.30 C 181.04 184.25 179.70 185.49 179.65 187.07 Z M 179.62 188.02 L 179.56 189.04 C 179.46 190.62 180.67 191.98 182.26 192.07 C 183.84 192.16 185.20 190.96 185.29 189.37 L 185.35 188.35 C 185.45 186.77 184.24 185.41 182.65 185.32 C 181.07 185.22 179.71 186.43 179.62 188.02 Z M 179.57 188.95 L 179.48 189.95 C 179.33 191.53 180.50 192.92 182.08 193.07 C 183.66 193.21 185.05 192.04 185.19 190.46 L 185.28 189.46 C 185.43 187.88 184.26 186.49 182.68 186.34 C 181.10 186.20 179.71 187.37 179.57 188.95 Z M 179.50 189.82 L 179.36 190.83 C 179.14 192.40 180.24 193.84 181.81 194.06 C 183.37 194.27 184.82 193.18 185.03 191.61 L 185.17 190.60 C 185.39 189.03 184.29 187.58 182.72 187.37 C 181.16 187.15 179.71 188.25 179.50 189.82 Z M 179.40 190.66 L 179.20 191.66 C 178.89 193.21 179.90 194.71 181.44 195.02 C 182.99 195.33 184.49 194.32 184.80 192.78 L 185.00 191.78 C 185.30 190.23 184.30 188.73 182.75 188.42 C 181.21 188.11 179.70 189.12 179.40 190.66 Z M 179.25 191.48 L 179.00 192.43 C 178.59 193.95 179.49 195.51 181.01 195.92 C 182.52 196.32 184.08 195.42 184.49 193.91 L 184.74 192.96 C 185.15 191.44 184.25 189.88 182.73 189.47 C 181.22 189.07 179.66 189.97 179.25 191.48 Z M 179.06 192.25 L 178.75 193.17 C 178.24 194.65 179.03 196.26 180.51 196.77 C 181.99 197.27 183.60 196.49 184.11 195.01 L 184.42 194.09 C 184.93 192.61 184.14 191.00 182.66 190.49 C 181.18 189.99 179.57 190.77 179.06 192.25 Z M 178.84 193.00 L 178.45 193.93 C 177.84 195.36 178.52 197.01 179.95 197.61 C 181.38 198.21 183.02 197.54 183.62 196.11 L 184.02 195.18 C 184.62 193.75 183.95 192.10 182.52 191.50 C 181.09 190.90 179.44 191.57 178.84 193.00 Z M 178.57 193.74 L 178.10 194.65 C 177.40 196.01 177.92 197.68 179.28 198.39 C 180.64 199.10 182.32 198.57 183.02 197.21 L 183.50 196.30 C 184.20 194.94 183.67 193.27 182.32 192.56 C 180.96 191.85 179.28 192.38 178.57 193.74 Z M 178.29 194.41 L 177.74 195.24 C 176.90 196.49 177.24 198.19 178.49 199.03 C 179.75 199.87 181.45 199.53 182.29 198.27 L 182.84 197.45 C 183.68 196.19 183.34 194.49 182.08 193.65 C 180.82 192.81 179.13 193.15 178.29 194.41 Z M 178.01 194.95 L 177.36 195.67 C 176.37 196.78 176.46 198.48 177.56 199.48 C 178.67 200.47 180.38 200.38 181.37 199.28 L 182.02 198.56 C 183.01 197.45 182.92 195.75 181.82 194.75 C 180.71 193.75 179.00 193.84 178.01 194.95 Z M 177.76 195.36 L 176.94 195.98 C 175.78 196.87 175.55 198.54 176.44 199.70 C 177.33 200.87 178.99 201.10 180.16 200.21 L 180.98 199.58 C 182.14 198.70 182.37 197.03 181.48 195.86 C 180.59 194.70 178.92 194.47 177.76 195.36 Z M 177.39 195.76 L 176.50 196.20 C 175.21 196.84 174.68 198.41 175.32 199.70 C 175.96 200.99 177.53 201.52 178.82 200.88 L 179.71 200.43 C 181.00 199.79 181.53 198.22 180.89 196.93 C 180.25 195.64 178.68 195.12 177.39 195.76 Z M 176.94 196.08 L 176.00 196.35 C 174.64 196.75 173.86 198.18 174.26 199.54 C 174.66 200.89 176.09 201.67 177.44 201.27 L 178.38 201.00 C 179.74 200.60 180.52 199.18 180.12 197.82 C 179.72 196.46 178.29 195.68 176.94 196.08 Z M 176.45 196.36 L 175.44 196.47 C 174.08 196.62 173.10 197.85 173.25 199.20 C 173.41 200.56 174.63 201.54 175.99 201.39 L 177.00 201.27 C 178.36 201.12 179.33 199.89 179.18 198.54 C 179.03 197.18 177.80 196.20 176.45 196.36 Z M 175.90 196.61 L 174.91 196.53 C 173.63 196.42 172.50 197.38 172.40 198.66 C 172.29 199.94 173.25 201.06 174.53 201.17 L 175.52 201.25 C 176.80 201.35 177.93 200.40 178.03 199.12 C 178.14 197.84 177.18 196.71 175.90 196.61 Z M 175.36 196.77 L 174.43 196.48 C 173.29 196.12 172.07 196.76 171.71 197.91 C 171.35 199.05 171.99 200.27 173.14 200.63 L 174.07 200.92 C 175.22 201.28 176.44 200.64 176.79 199.49 C 177.15 198.35 176.51 197.13 175.36 196.77 Z M 174.82 196.80 L 174.03 196.33 C 173.06 195.76 171.81 196.08 171.24 197.05 C 170.66 198.02 170.98 199.27 171.95 199.84 L 172.75 200.31 C 173.71 200.89 174.97 200.56 175.54 199.60 C 176.12 198.63 175.79 197.37 174.82 196.80 Z M 174.27 196.63 L 173.55 195.99 C 172.74 195.29 171.52 195.37 170.81 196.17 C 170.11 196.98 170.19 198.20 170.99 198.90 L 171.71 199.54 C 172.52 200.25 173.74 200.17 174.45 199.36 C 175.15 198.56 175.07 197.34 174.27 196.63 Z M 173.64 196.22 L 172.94 195.44 C 172.26 194.68 171.10 194.62 170.34 195.30 C 169.58 195.97 169.52 197.13 170.20 197.89 L 170.90 198.68 C 171.57 199.43 172.74 199.50 173.49 198.82 C 174.25 198.14 174.31 196.98 173.64 196.22 Z M 172.95 195.57 L 172.33 194.78 C 171.72 194.02 170.61 193.88 169.85 194.49 C 169.08 195.09 168.95 196.20 169.56 196.97 L 170.18 197.76 C 170.78 198.52 171.89 198.65 172.66 198.05 C 173.42 197.45 173.56 196.34 172.95 195.57 Z M 172.34 194.84 L 171.76 194.06 C 171.19 193.29 170.10 193.13 169.33 193.70 C 168.56 194.27 168.40 195.36 168.97 196.13 L 169.55 196.91 C 170.12 197.68 171.21 197.84 171.98 197.27 C 172.75 196.70 172.91 195.61 172.34 194.84 Z M 171.77 194.09 L 171.18 193.27 C 170.62 192.49 169.54 192.31 168.77 192.87 C 167.99 193.42 167.81 194.50 168.37 195.28 L 168.96 196.10 C 169.51 196.88 170.59 197.06 171.37 196.50 C 172.15 195.94 172.32 194.87 171.77 194.09 Z M 171.18 193.29 L 170.59 192.44 C 170.04 191.66 168.97 191.47 168.19 192.02 C 167.42 192.56 167.23 193.63 167.77 194.41 L 168.37 195.26 C 168.91 196.04 169.98 196.22 170.76 195.68 C 171.54 195.13 171.73 194.06 171.18 193.29 Z M 170.58 192.45 L 170.27 191.99 C 169.73 191.22 168.66 191.03 167.89 191.57 C 167.11 192.11 166.92 193.17 167.46 193.95 L 167.77 194.40 C 168.31 195.18 169.38 195.37 170.16 194.83 C 170.93 194.29 171.12 193.22 170.58 192.45 Z"
      fill="black"
      fill-rule="nonzero" /><path d="M 154.01 167.10 L 154.99 167.27 C 156.17 167.48 157.29 166.70 157.50 165.52 C 157.71 164.35 156.93 163.22 155.75 163.01 L 154.77 162.84 C 153.60 162.63 152.47 163.41 152.26 164.59 C 152.05 165.76 152.84 166.89 154.01 167.10 Z M 154.91 167.39 L 155.89 167.59 C 157.13 167.84 158.34 167.04 158.59 165.80 C 158.85 164.57 158.05 163.36 156.81 163.10 L 155.83 162.90 C 154.60 162.65 153.39 163.44 153.13 164.68 C 152.88 165.92 153.67 167.13 154.91 167.39 Z M 155.74 167.68 L 156.71 167.93 C 158.00 168.27 159.32 167.50 159.65 166.21 C 159.99 164.92 159.22 163.60 157.93 163.26 L 156.96 163.01 C 155.67 162.67 154.35 163.44 154.01 164.73 C 153.67 166.02 154.45 167.34 155.74 167.68 Z M 156.50 167.96 L 157.45 168.28 C 158.76 168.73 160.18 168.04 160.63 166.73 C 161.08 165.43 160.38 164.01 159.08 163.56 L 158.13 163.23 C 156.82 162.79 155.40 163.48 154.96 164.78 C 154.51 166.09 155.20 167.51 156.50 167.96 Z M 157.28 168.19 L 158.20 168.59 C 159.45 169.13 160.90 168.56 161.45 167.30 C 161.99 166.05 161.42 164.60 160.17 164.06 L 159.25 163.66 C 158.00 163.12 156.55 163.69 156.00 164.94 C 155.46 166.19 156.03 167.64 157.28 168.19 Z M 158.11 168.44 L 159.01 168.89 C 160.18 169.48 161.61 169.01 162.20 167.85 C 162.79 166.68 162.32 165.25 161.15 164.66 L 160.25 164.21 C 159.09 163.62 157.66 164.08 157.07 165.25 C 156.48 166.42 156.95 167.84 158.11 168.44 Z M 158.98 168.76 L 159.85 169.25 C 160.95 169.86 162.33 169.46 162.94 168.37 C 163.55 167.27 163.16 165.89 162.06 165.28 L 161.19 164.79 C 160.09 164.18 158.71 164.58 158.10 165.67 C 157.49 166.77 157.88 168.15 158.98 168.76 Z M 159.86 169.13 L 160.72 169.64 C 161.75 170.24 163.08 169.90 163.68 168.87 C 164.29 167.84 163.95 166.51 162.92 165.91 L 162.05 165.40 C 161.02 164.79 159.70 165.13 159.09 166.16 C 158.48 167.19 158.83 168.52 159.86 169.13 Z M 160.74 169.52 L 161.59 170.04 C 162.56 170.63 163.82 170.33 164.41 169.37 C 165.00 168.40 164.70 167.14 163.74 166.55 L 162.89 166.03 C 161.93 165.43 160.67 165.73 160.07 166.70 C 159.48 167.66 159.78 168.92 160.74 169.52 Z M 161.62 169.91 L 162.45 170.45 C 163.35 171.03 164.54 170.77 165.12 169.88 C 165.70 168.98 165.44 167.79 164.55 167.21 L 163.71 166.67 C 162.82 166.09 161.62 166.35 161.04 167.25 C 160.47 168.14 160.72 169.34 161.62 169.91 Z M 162.48 170.33 L 163.31 170.90 C 164.14 171.46 165.27 171.24 165.83 170.41 C 166.40 169.58 166.18 168.45 165.35 167.89 L 164.52 167.33 C 163.69 166.77 162.56 166.98 162.00 167.81 C 161.43 168.64 161.65 169.77 162.48 170.33 Z M 163.32 170.82 L 164.12 171.39 C 164.91 171.95 166.00 171.76 166.56 170.97 C 167.12 170.18 166.93 169.09 166.14 168.53 L 165.34 167.96 C 164.55 167.40 163.46 167.59 162.90 168.38 C 162.34 169.17 162.53 170.27 163.32 170.82 Z M 164.10 171.37 L 164.91 171.95 C 165.69 172.52 166.78 172.35 167.34 171.57 C 167.91 170.80 167.74 169.71 166.96 169.14 L 166.16 168.55 C 165.38 167.99 164.29 168.16 163.72 168.93 C 163.16 169.71 163.33 170.80 164.10 171.37 Z M 164.91 171.93 L 165.72 172.54 C 166.48 173.11 167.56 172.95 168.13 172.18 C 168.70 171.42 168.54 170.34 167.78 169.77 L 166.97 169.16 C 166.20 168.60 165.12 168.75 164.55 169.52 C 163.98 170.28 164.14 171.37 164.91 171.93 Z M 165.72 172.52 L 166.30 172.96 C 167.05 173.52 168.13 173.37 168.70 172.61 C 169.26 171.85 169.11 170.78 168.35 170.21 L 167.78 169.78 C 167.02 169.21 165.94 169.37 165.38 170.13 C 164.81 170.88 164.96 171.96 165.72 172.52 Z"
      fill="black"
      fill-rule="nonzero" /></svg>