<svg xmlns="http://www.w3.org/2000/svg" width="300" height="300" viewBox="0 0 300 300">
<path d="M 126.57 124.63 L 125.65 125.04 C 124.40 125.61 123.85 127.08 124.42 128.33 C 124.98 129.58 126.45 130.13 127.70 129.56 L 128.62 129.15 C 129.87 128.58 130.42 127.11 129.86 125.86 C 129.29 124.62 127.82 124.06 126.57 124.63 Z M 125.60 125.03 L 124.69 125.45 C 123.43 126.05 122.90 127.55 123.49 128.81 C 124.09 130.07 125.59 130.61 126.85 130.01 L 127.75 129.58 C 129.01 128.99 129.55 127.49 128.95 126.23 C 128.36 124.97 126.86 124.43 125.60 125.03 Z M 124.60 125.46 L 123.72 125.91 C 122.46 126.56 121.96 128.10 122.61 129.36 C 123.26 130.61 124.80 131.11 126.06 130.46 L 126.94 130.01 C 128.20 129.36 128.69 127.82 128.04 126.56 C 127.40 125.31 125.85 124.81 124.60 125.46 Z M 123.56 125.97 L 122.52 126.59 C 121.29 127.32 120.89 128.91 121.62 130.13 C 122.35 131.36 123.94 131.76 125.16 131.03 L 126.21 130.41 C 127.43 129.68 127.84 128.09 127.11 126.86 C 126.38 125.64 124.79 125.24 123.56 125.97 Z M 122.15 126.85 L 121.38 127.51 C 120.30 128.44 120.18 130.08 121.11 131.16 C 122.05 132.24 123.68 132.36 124.76 131.43 L 125.53 130.77 C 126.61 129.84 126.73 128.20 125.80 127.12 C 124.87 126.04 123.23 125.92 122.15 126.85 Z M 120.51 129.81 L 120.57 130.26 C 120.76 131.68 122.06 132.67 123.47 132.49 C 124.89 132.30 125.88 131.00 125.70 129.59 L 125.64 129.13 C 125.45 127.72 124.15 126.72 122.73 126.91 C 121.32 127.10 120.32 128.39 120.51 129.81 Z M 122.46 132.41 L 123.22 132.62 C 124.59 132.98 126.00 132.17 126.37 130.80 C 126.74 129.42 125.93 128.01 124.56 127.64 L 123.80 127.44 C 122.43 127.07 121.02 127.88 120.65 129.26 C 120.28 130.63 121.09 132.04 122.46 132.41 Z M 123.71 132.68 L 124.86 132.76 C 126.27 132.86 127.49 131.80 127.59 130.39 C 127.69 128.98 126.63 127.75 125.22 127.65 L 124.07 127.57 C 122.66 127.47 121.43 128.54 121.33 129.95 C 121.23 131.36 122.30 132.58 123.71 132.68 Z M 125.01 132.75 L 126.21 132.76 C 127.62 132.78 128.77 131.65 128.78 130.24 C 128.79 128.84 127.66 127.69 126.26 127.68 L 125.06 127.67 C 123.65 127.65 122.50 128.78 122.49 130.19 C 122.48 131.59 123.61 132.74 125.01 132.75 Z M 126.30 132.73 L 127.31 132.71 C 128.70 132.68 129.80 131.52 129.76 130.14 C 129.73 128.75 128.58 127.65 127.19 127.68 L 126.18 127.71 C 124.79 127.74 123.69 128.89 123.72 130.28 C 123.76 131.67 124.91 132.76 126.30 132.73 Z M 127.41 132.66 L 128.40 132.60 C 129.76 132.51 130.79 131.33 130.70 129.97 C 130.61 128.61 129.43 127.57 128.07 127.66 L 127.09 127.73 C 125.72 127.82 124.69 129.00 124.78 130.36 C 124.87 131.72 126.05 132.75 127.41 132.66 Z M 128.53 132.54 L 129.51 132.42 C 130.84 132.26 131.79 131.05 131.63 129.71 C 131.46 128.38 130.25 127.43 128.92 127.60 L 127.94 127.72 C 126.61 127.88 125.66 129.09 125.82 130.43 C 125.99 131.76 127.20 132.71 128.53 132.54 Z M 129.65 132.37 L 130.62 132.19 C 131.92 131.95 132.78 130.69 132.54 129.39 C 132.29 128.09 131.04 127.23 129.74 127.47 L 128.77 127.65 C 127.47 127.89 126.61 129.15 126.85 130.45 C 127.10 131.75 128.35 132.61 129.65 132.37 Z M 130.73 132.15 L 131.70 131.92 C 132.98 131.61 133.77 130.33 133.46 129.05 C 133.16 127.77 131.87 126.98 130.59 127.28 L 129.62 127.51 C 128.34 127.82 127.55 129.10 127.86 130.39 C 128.16 131.67 129.45 132.46 130.73 132.15 Z M 131.77 131.89 L 132.75 131.62 C 134.01 131.27 134.75 129.97 134.41 128.71 C 134.06 127.44 132.76 126.70 131.49 127.05 L 130.52 127.31 C 129.25 127.66 128.51 128.96 128.86 130.23 C 129.20 131.49 130.51 132.23 131.77 131.89 Z M 132.78 131.60 L 133.75 131.31 C 135.00 130.94 135.72 129.63 135.35 128.38 C 134.99 127.13 133.68 126.42 132.43 126.78 L 131.46 127.07 C 130.21 127.44 129.49 128.75 129.86 130.00 C 130.22 131.25 131.53 131.96 132.78 131.60 Z M 133.76 131.30 L 134.68 131.02 C 135.93 130.65 136.63 129.34 136.26 128.10 C 135.89 126.86 134.58 126.15 133.34 126.52 L 132.42 126.80 C 131.18 127.17 130.47 128.48 130.84 129.72 C 131.21 130.96 132.52 131.67 133.76 131.30 Z M 134.67 131.01 L 135.61 130.74 C 136.84 130.38 137.55 129.08 137.19 127.84 C 136.82 126.60 135.53 125.89 134.29 126.26 L 133.35 126.53 C 132.12 126.89 131.41 128.19 131.77 129.43 C 132.14 130.67 133.43 131.38 134.67 131.01 Z M 135.58 130.74 L 136.55 130.46 C 137.79 130.11 138.51 128.83 138.15 127.59 C 137.80 126.35 136.52 125.63 135.28 125.98 L 134.31 126.26 C 133.08 126.61 132.36 127.90 132.71 129.13 C 133.06 130.37 134.34 131.09 135.58 130.74 Z M 136.51 130.46 L 137.53 130.19 C 138.77 129.86 139.51 128.59 139.17 127.35 C 138.84 126.12 137.57 125.38 136.34 125.71 L 135.32 125.98 C 134.08 126.32 133.35 127.59 133.68 128.82 C 134.01 130.06 135.28 130.79 136.51 130.46 Z M 137.50 130.19 L 138.46 129.95 C 139.70 129.64 140.45 128.39 140.14 127.15 C 139.83 125.91 138.58 125.16 137.34 125.47 L 136.38 125.71 C 135.14 126.02 134.39 127.27 134.70 128.51 C 135.01 129.75 136.26 130.50 137.50 130.19 Z M 138.43 129.95 L 139.42 129.71 C 140.66 129.42 141.42 128.18 141.13 126.94 C 140.84 125.71 139.60 124.94 138.36 125.23 L 137.37 125.47 C 136.13 125.76 135.37 127.00 135.66 128.24 C 135.95 129.48 137.19 130.24 138.43 129.95 Z M 139.40 129.71 L 140.39 129.49 C 141.63 129.21 142.40 127.98 142.12 126.74 C 141.85 125.51 140.62 124.73 139.38 125.01 L 138.39 125.24 C 137.15 125.52 136.38 126.74 136.65 127.98 C 136.93 129.22 138.16 129.99 139.40 129.71 Z M 140.37 129.48 L 141.34 129.28 C 142.57 129.01 143.35 127.79 143.09 126.56 C 142.82 125.32 141.60 124.54 140.37 124.81 L 139.40 125.01 C 138.17 125.28 137.39 126.50 137.65 127.73 C 137.92 128.97 139.14 129.75 140.37 129.48 Z M 141.31 129.28 L 142.34 129.07 C 143.58 128.81 144.38 127.61 144.12 126.37 C 143.87 125.13 142.66 124.34 141.43 124.59 L 140.39 124.80 C 139.16 125.06 138.36 126.26 138.61 127.50 C 138.87 128.74 140.08 129.53 141.31 129.28 Z M 142.30 129.09 L 143.33 128.89 C 144.58 128.66 145.40 127.46 145.17 126.22 C 144.94 124.97 143.74 124.15 142.49 124.38 L 141.47 124.57 C 140.22 124.80 139.40 126.00 139.63 127.25 C 139.86 128.49 141.06 129.32 142.30 129.09 Z M 143.26 128.92 L 144.21 128.78 C 145.47 128.58 146.34 127.41 146.15 126.15 C 145.96 124.89 144.78 124.02 143.52 124.21 L 142.57 124.36 C 141.31 124.55 140.44 125.72 140.63 126.98 C 140.82 128.24 142.00 129.11 143.26 128.92 Z M 144.10 128.80 L 145.01 128.71 C 146.29 128.58 147.22 127.44 147.09 126.17 C 146.96 124.89 145.82 123.96 144.54 124.09 L 143.63 124.18 C 142.36 124.31 141.43 125.45 141.56 126.73 C 141.69 128.00 142.83 128.93 144.10 128.80 Z M 144.82 128.74 L 145.91 128.72 C 147.20 128.70 148.23 127.64 148.21 126.34 C 148.19 125.05 147.12 124.02 145.83 124.04 L 144.74 124.06 C 143.45 124.08 142.42 125.15 142.44 126.44 C 142.46 127.73 143.53 128.76 144.82 128.74 Z M 145.46 128.71 L 146.43 128.88 C 147.72 129.11 148.94 128.25 149.17 126.96 C 149.40 125.67 148.53 124.45 147.25 124.22 L 146.28 124.05 C 144.99 123.83 143.76 124.69 143.54 125.97 C 143.31 127.26 144.17 128.49 145.46 128.71 Z M 145.62 128.61 L 146.38 129.06 C 147.52 129.74 148.98 129.36 149.66 128.22 C 150.33 127.09 149.96 125.62 148.82 124.95 L 148.06 124.49 C 146.92 123.82 145.45 124.20 144.78 125.33 C 144.11 126.47 144.48 127.94 145.62 128.61 Z M 145.60 128.34 L 146.09 129.08 C 146.83 130.19 148.32 130.49 149.43 129.76 C 150.54 129.02 150.84 127.53 150.10 126.42 L 149.60 125.67 C 148.87 124.57 147.38 124.27 146.27 125.00 C 145.16 125.74 144.86 127.23 145.60 128.34 Z M 145.80 128.47 L 146.10 129.44 C 146.50 130.71 147.85 131.42 149.12 131.02 C 150.39 130.62 151.10 129.27 150.70 128.00 L 150.40 127.03 C 150.00 125.76 148.65 125.06 147.38 125.46 C 146.11 125.85 145.40 127.20 145.80 128.47 Z M 146.02 129.10 L 146.19 130.16 C 146.39 131.47 147.62 132.37 148.94 132.17 C 150.26 131.96 151.16 130.73 150.95 129.42 L 150.78 128.35 C 150.58 127.04 149.35 126.14 148.03 126.34 C 146.72 126.55 145.82 127.78 146.02 129.10 Z M 146.16 129.98 L 146.24 130.92 C 146.34 132.25 147.51 133.24 148.83 133.13 C 150.16 133.03 151.15 131.86 151.05 130.54 L 150.97 129.60 C 150.87 128.27 149.71 127.28 148.38 127.38 C 147.05 127.49 146.06 128.65 146.16 129.98 Z M 146.23 130.81 L 146.27 131.79 C 146.31 133.12 147.43 134.16 148.76 134.12 C 150.09 134.07 151.13 132.95 151.09 131.62 L 151.05 130.65 C 151.01 129.31 149.89 128.27 148.56 128.32 C 147.23 128.36 146.19 129.48 146.23 130.81 Z M 146.26 131.72 L 146.27 132.76 C 146.28 134.10 147.37 135.17 148.70 135.16 C 150.04 135.15 151.11 134.06 151.10 132.73 L 151.09 131.69 C 151.08 130.35 149.99 129.28 148.66 129.29 C 147.32 129.30 146.25 130.39 146.26 131.72 Z M 146.27 132.75 L 146.27 133.73 C 146.28 135.06 147.35 136.14 148.69 136.14 C 150.02 136.14 151.09 135.06 151.09 133.73 L 151.09 132.74 C 151.09 131.41 150.02 130.33 148.68 130.33 C 147.35 130.34 146.27 131.41 146.27 132.75 Z M 146.28 133.72 L 146.28 134.65 C 146.27 135.98 147.35 137.06 148.67 137.07 C 150.00 137.07 151.08 136.00 151.09 134.67 L 151.09 133.74 C 151.09 132.41 150.02 131.33 148.69 131.32 C 147.36 131.32 146.28 132.39 146.28 133.72 Z M 146.28 134.64 L 146.27 135.62 C 146.26 136.95 147.32 138.03 148.65 138.05 C 149.97 138.06 151.06 137.00 151.07 135.67 L 151.08 134.69 C 151.10 133.36 150.03 132.27 148.71 132.26 C 147.38 132.25 146.30 133.31 146.28 134.64 Z M 146.28 135.60 L 146.26 136.64 C 146.23 137.96 147.28 139.06 148.60 139.08 C 149.92 139.11 151.02 138.06 151.04 136.74 L 151.07 135.70 C 151.09 134.38 150.05 133.28 148.72 133.25 C 147.40 133.22 146.31 134.27 146.28 135.60 Z M 146.26 136.60 L 146.22 137.70 C 146.18 139.02 147.21 140.12 148.52 140.17 C 149.84 140.22 150.95 139.19 151.00 137.87 L 151.04 136.77 C 151.08 135.46 150.05 134.35 148.74 134.30 C 147.42 134.25 146.31 135.28 146.26 136.60 Z M 146.23 137.66 L 146.18 138.69 C 146.11 140.01 147.12 141.13 148.43 141.20 C 149.75 141.26 150.87 140.25 150.94 138.94 L 150.99 137.91 C 151.06 136.59 150.05 135.47 148.73 135.40 C 147.42 135.34 146.30 136.35 146.23 137.66 Z M 146.18 138.66 L 146.12 139.70 C 146.03 141.01 147.03 142.14 148.34 142.23 C 149.65 142.31 150.78 141.32 150.86 140.01 L 150.93 138.97 C 151.01 137.66 150.02 136.53 148.71 136.44 C 147.40 136.36 146.27 137.35 146.18 138.66 Z M 146.13 139.68 L 146.05 140.71 C 145.95 142.01 146.93 143.15 148.23 143.25 C 149.54 143.35 150.68 142.37 150.78 141.07 L 150.85 140.04 C 150.95 138.73 149.98 137.59 148.67 137.49 C 147.36 137.39 146.23 138.37 146.13 139.68 Z M 146.06 140.68 L 145.97 141.67 C 145.86 142.97 146.82 144.12 148.12 144.23 C 149.42 144.34 150.57 143.38 150.68 142.08 L 150.77 141.09 C 150.88 139.79 149.92 138.64 148.62 138.53 C 147.32 138.42 146.17 139.38 146.06 140.68 Z M 145.98 141.64 L 145.89 142.56 C 145.76 143.86 146.71 145.01 148.01 145.14 C 149.30 145.27 150.46 144.32 150.58 143.02 L 150.67 142.10 C 150.80 140.81 149.85 139.65 148.56 139.53 C 147.26 139.40 146.10 140.35 145.98 141.64 Z M 145.90 142.53 L 145.78 143.65 C 145.63 144.94 146.56 146.10 147.85 146.24 C 149.14 146.39 150.30 145.46 150.45 144.17 L 150.57 143.05 C 150.72 141.76 149.79 140.60 148.50 140.46 C 147.21 140.31 146.05 141.24 145.90 142.53 Z M 145.79 143.61 L 145.66 144.62 C 145.50 145.90 146.40 147.07 147.68 147.24 C 148.96 147.40 150.13 146.50 150.30 145.22 L 150.43 144.21 C 150.59 142.93 149.69 141.75 148.41 141.59 C 147.13 141.42 145.96 142.33 145.79 143.61 Z M 145.68 144.59 L 145.55 145.50 C 145.37 146.77 146.25 147.95 147.52 148.13 C 148.79 148.31 149.97 147.43 150.15 146.16 L 150.28 145.25 C 150.46 143.98 149.58 142.80 148.31 142.62 C 147.04 142.44 145.86 143.32 145.68 144.59 Z M 145.56 145.49 L 145.43 146.40 C 145.24 147.66 146.11 148.84 147.37 149.02 C 148.64 149.21 149.81 148.34 150.00 147.08 L 150.14 146.17 C 150.33 144.91 149.46 143.73 148.19 143.54 C 146.93 143.35 145.75 144.23 145.56 145.49 Z M 145.44 146.40 L 145.29 147.38 C 145.11 148.64 145.97 149.81 147.23 150.00 C 148.49 150.19 149.66 149.32 149.85 148.06 L 149.99 147.07 C 150.18 145.82 149.31 144.65 148.05 144.46 C 146.79 144.27 145.62 145.14 145.44 146.40 Z M 145.30 147.40 L 145.16 148.39 C 144.98 149.65 145.86 150.81 147.11 150.98 C 148.37 151.16 149.53 150.29 149.70 149.03 L 149.84 148.04 C 150.02 146.79 149.14 145.63 147.89 145.45 C 146.63 145.27 145.47 146.15 145.30 147.40 Z M 145.16 148.42 L 145.04 149.42 C 144.88 150.67 145.76 151.82 147.02 151.98 C 148.27 152.14 149.41 151.25 149.57 150.00 L 149.70 149.00 C 149.86 147.75 148.97 146.60 147.72 146.45 C 146.47 146.29 145.32 147.17 145.16 148.42 Z M 145.04 149.46 L 144.93 150.44 C 144.79 151.69 145.69 152.82 146.94 152.96 C 148.19 153.10 149.32 152.20 149.46 150.95 L 149.57 149.96 C 149.71 148.71 148.81 147.59 147.56 147.45 C 146.31 147.31 145.18 148.21 145.04 149.46 Z M 144.94 150.47 L 144.83 151.46 C 144.71 152.71 145.62 153.82 146.86 153.95 C 148.11 154.08 149.22 153.17 149.35 151.92 L 149.45 150.93 C 149.58 149.68 148.67 148.57 147.42 148.44 C 146.18 148.31 145.06 149.22 144.94 150.47 Z M 144.84 151.48 L 144.74 152.48 C 144.62 153.72 145.54 154.83 146.78 154.95 C 148.02 155.07 149.13 154.16 149.25 152.91 L 149.34 151.91 C 149.46 150.67 148.55 149.56 147.31 149.44 C 146.07 149.32 144.96 150.23 144.84 151.48 Z M 144.75 152.48 L 144.66 153.48 C 144.54 154.72 145.45 155.82 146.69 155.93 C 147.93 156.05 149.03 155.14 149.14 153.90 L 149.24 152.91 C 149.36 151.67 148.45 150.57 147.21 150.45 C 145.97 150.33 144.87 151.24 144.75 152.48 Z M 144.67 153.48 L 144.57 154.47 C 144.45 155.71 145.36 156.80 146.59 156.92 C 147.83 157.04 148.92 156.13 149.04 154.90 L 149.14 153.90 C 149.25 152.67 148.35 151.57 147.11 151.46 C 145.88 151.34 144.78 152.24 144.67 153.48 Z M 144.58 154.47 L 144.48 155.47 C 144.37 156.70 145.27 157.79 146.50 157.91 C 147.73 158.03 148.82 157.12 148.94 155.89 L 149.03 154.90 C 149.15 153.67 148.25 152.58 147.02 152.46 C 145.79 152.34 144.70 153.24 144.58 154.47 Z M 144.49 155.47 L 144.40 156.38 C 144.29 157.60 145.19 158.69 146.41 158.81 C 147.64 158.92 148.73 158.03 148.84 156.80 L 148.93 155.89 C 149.05 154.67 148.15 153.58 146.92 153.46 C 145.70 153.35 144.61 154.25 144.49 155.47 Z M 144.41 156.39 L 144.33 157.30 C 144.22 158.52 145.12 159.60 146.34 159.71 C 147.56 159.82 148.65 158.92 148.76 157.70 L 148.84 156.79 C 148.95 155.57 148.05 154.49 146.83 154.37 C 145.60 154.26 144.52 155.17 144.41 156.39 Z M 144.33 157.32 L 144.25 158.32 C 144.15 159.54 145.06 160.61 146.28 160.71 C 147.50 160.81 148.57 159.90 148.67 158.69 L 148.75 157.68 C 148.85 156.46 147.94 155.39 146.72 155.29 C 145.50 155.19 144.43 156.10 144.33 157.32 Z M 144.26 158.35 L 144.17 159.51 C 144.09 160.72 145.00 161.78 146.22 161.87 C 147.44 161.95 148.49 161.04 148.58 159.82 L 148.66 158.66 C 148.75 157.44 147.83 156.39 146.62 156.30 C 145.40 156.21 144.34 157.13 144.26 158.35 Z M 144.18 159.53 L 144.12 160.44 C 144.05 161.65 144.97 162.70 146.18 162.77 C 147.40 162.85 148.44 161.93 148.52 160.71 L 148.58 159.80 C 148.65 158.59 147.73 157.54 146.51 157.46 C 145.30 157.39 144.25 158.31 144.18 159.53 Z M 144.13 160.45 L 144.07 161.43 C 144.01 162.64 144.93 163.68 146.14 163.75 C 147.36 163.81 148.39 162.89 148.46 161.68 L 148.51 160.70 C 148.58 159.49 147.65 158.45 146.44 158.38 C 145.23 158.31 144.19 159.24 144.13 160.45 Z M 144.08 161.45 L 144.03 162.47 C 143.97 163.68 144.90 164.71 146.11 164.77 C 147.32 164.83 148.34 163.89 148.40 162.69 L 148.46 161.66 C 148.52 160.45 147.58 159.42 146.37 159.36 C 145.17 159.30 144.14 160.24 144.08 161.45 Z M 144.03 162.48 L 143.99 163.53 C 143.93 164.73 144.87 165.75 146.08 165.80 C 147.28 165.86 148.30 164.92 148.36 163.71 L 148.40 162.67 C 148.45 161.46 147.52 160.44 146.31 160.39 C 145.10 160.34 144.08 161.28 144.03 162.48 Z M 143.99 163.54 L 143.95 164.58 C 143.91 165.78 144.85 166.79 146.05 166.84 C 147.26 166.88 148.27 165.94 148.31 164.73 L 148.35 163.70 C 148.39 162.49 147.45 161.48 146.25 161.44 C 145.05 161.40 144.03 162.34 143.99 163.54 Z M 143.96 164.60 L 143.93 165.67 C 143.90 166.87 144.84 167.87 146.04 167.90 C 147.24 167.93 148.24 166.99 148.28 165.79 L 148.31 164.72 C 148.34 163.51 147.39 162.51 146.19 162.48 C 144.99 162.45 143.99 163.39 143.96 164.60 Z M 143.94 165.69 L 143.92 166.76 C 143.90 167.96 144.85 168.95 146.04 168.97 C 147.24 168.99 148.22 168.04 148.25 166.84 L 148.27 165.77 C 148.29 164.57 147.34 163.59 146.14 163.56 C 144.95 163.54 143.96 164.49 143.94 165.69 Z M 143.93 166.78 L 143.92 167.80 C 143.91 168.99 144.86 169.96 146.05 169.97 C 147.24 169.99 148.21 169.03 148.22 167.85 L 148.23 166.83 C 148.25 165.64 147.29 164.67 146.11 164.65 C 144.92 164.64 143.95 165.59 143.93 166.78 Z M 143.94 167.81 L 143.93 168.78 C 143.93 169.96 144.88 170.92 146.06 170.92 C 147.24 170.93 148.20 169.98 148.21 168.80 L 148.21 167.83 C 148.22 166.65 147.26 165.69 146.08 165.69 C 144.90 165.68 143.94 166.63 143.94 167.81 Z M 143.94 168.78 L 143.94 169.69 C 143.94 170.86 144.89 171.82 146.07 171.82 C 147.24 171.82 148.19 170.87 148.19 169.70 L 148.19 168.79 C 148.19 167.62 147.24 166.66 146.07 166.66 C 144.90 166.66 143.95 167.61 143.94 168.78 Z M 143.96 169.69 L 143.96 170.70 C 143.96 171.87 144.90 172.81 146.07 172.81 C 147.23 172.81 148.18 171.87 148.18 170.70 L 148.18 169.69 C 148.18 168.53 147.23 167.58 146.07 167.58 C 144.90 167.58 143.96 168.53 143.96 169.69 Z M 143.98 170.70 L 143.98 171.71 C 143.98 172.87 144.91 173.80 146.07 173.80 C 147.22 173.80 148.16 172.87 148.16 171.71 L 148.16 170.70 C 148.16 169.55 147.22 168.61 146.07 168.61 C 144.91 168.61 143.98 169.55 143.98 170.70 Z M 143.99 171.71 L 143.99 172.69 C 143.99 173.83 144.92 174.76 146.07 174.76 C 147.21 174.76 148.14 173.83 148.14 172.69 L 148.14 171.71 C 148.14 170.57 147.21 169.64 146.07 169.64 C 144.92 169.64 143.99 170.57 143.99 171.71 Z M 144.01 172.69 L 144.01 173.66 C 144.01 174.80 144.93 175.72 146.07 175.72 C 147.20 175.72 148.12 174.80 148.12 173.66 L 148.12 172.69 C 148.12 171.55 147.20 170.63 146.07 170.63 C 144.93 170.63 144.01 171.55 144.01 172.69 Z M 144.04 173.64 L 144.02 174.93 C 144.01 176.05 144.90 176.97 146.02 176.99 C 147.15 177.00 148.07 176.10 148.08 174.98 L 148.10 173.69 C 148.11 172.57 147.22 171.64 146.09 171.63 C 144.97 171.62 144.05 172.51 144.04 173.64 Z M 144.07 174.68 L 143.93 175.67 C 143.78 176.77 144.55 177.78 145.65 177.93 C 146.74 178.08 147.75 177.31 147.90 176.21 L 148.04 175.23 C 148.19 174.13 147.42 173.12 146.32 172.97 C 145.23 172.82 144.22 173.59 144.07 174.68 Z M 144.82 174.31 L 144.46 174.55 C 143.56 175.15 143.32 176.38 143.92 177.28 C 144.53 178.19 145.75 178.43 146.66 177.82 L 147.02 177.58 C 147.92 176.97 148.16 175.75 147.55 174.84 C 146.95 173.94 145.72 173.70 144.82 174.31 Z M 146.86 174.76 L 146.42 174.37 C 145.64 173.65 144.42 173.71 143.70 174.49 C 142.99 175.28 143.04 176.50 143.83 177.21 L 144.26 177.61 C 145.05 178.32 146.27 178.27 146.98 177.48 C 147.70 176.69 147.64 175.48 146.86 174.76 Z M 146.64 174.70 L 146.09 173.93 C 145.49 173.09 144.33 172.90 143.49 173.50 C 142.65 174.10 142.46 175.26 143.06 176.10 L 143.61 176.87 C 144.21 177.71 145.37 177.91 146.21 177.31 C 147.05 176.71 147.24 175.54 146.64 174.70 Z M 146.11 174.07 L 145.48 173.04 C 144.95 172.20 143.84 171.93 142.99 172.46 C 142.14 172.98 141.88 174.09 142.40 174.94 L 143.04 175.97 C 143.56 176.81 144.67 177.08 145.52 176.55 C 146.37 176.03 146.63 174.92 146.11 174.07 Z M 145.45 173.11 L 144.80 172.01 C 144.32 171.18 143.25 170.90 142.41 171.39 C 141.58 171.87 141.30 172.94 141.79 173.78 L 142.43 174.88 C 142.92 175.71 143.99 175.99 144.82 175.50 C 145.66 175.01 145.94 173.94 145.45 173.11 Z"
      fill="black"
      fill-rule="nonzero" /><path d="M 122.48 157.49 L 123.35 157.69 C 124.53 157.97 125.71 157.23 125.98 156.05 C 126.26 154.87 125.52 153.69 124.34 153.42 L 123.47 153.22 C 122.29 152.94 121.12 153.68 120.84 154.86 C 120.57 156.04 121.30 157.21 122.48 157.49 Z M 123.42 157.65 L 124.34 157.84 C 125.50 158.08 126.63 157.33 126.87 156.17 C 127.10 155.01 126.35 153.88 125.20 153.65 L 124.27 153.46 C 123.12 153.22 121.99 153.97 121.75 155.13 C 121.51 156.29 122.26 157.42 123.42 157.65 Z M 124.45 157.81 L 125.48 157.96 C 126.62 158.14 127.68 157.36 127.86 156.22 C 128.03 155.08 127.25 154.02 126.11 153.84 L 125.09 153.68 C 123.95 153.50 122.88 154.28 122.71 155.42 C 122.53 156.56 123.31 157.63 124.45 157.81 Z M 125.59 157.93 L 126.69 158.04 C 127.81 158.15 128.81 157.33 128.92 156.21 C 129.03 155.09 128.21 154.09 127.09 153.98 L 126.00 153.87 C 124.88 153.76 123.88 154.58 123.77 155.70 C 123.65 156.82 124.47 157.82 125.59 157.93 Z M 126.77 158.02 L 127.72 158.08 C 128.83 158.14 129.78 157.29 129.85 156.18 C 129.91 155.07 129.06 154.12 127.95 154.06 L 127.01 154.00 C 125.90 153.94 124.95 154.78 124.88 155.89 C 124.82 157.00 125.66 157.96 126.77 158.02 Z M 127.76 158.07 L 128.77 158.11 C 129.87 158.15 130.80 157.28 130.85 156.18 C 130.89 155.07 130.03 154.14 128.92 154.10 L 127.91 154.06 C 126.81 154.02 125.88 154.89 125.83 155.99 C 125.79 157.10 126.66 158.03 127.76 158.07 Z M 128.79 158.10 L 129.82 158.13 C 130.93 158.16 131.84 157.29 131.87 156.19 C 131.90 155.09 131.04 154.17 129.94 154.14 L 128.90 154.11 C 127.80 154.08 126.88 154.95 126.85 156.05 C 126.82 157.15 127.69 158.07 128.79 158.10 Z M 129.83 158.12 L 130.86 158.15 C 131.95 158.18 132.87 157.31 132.90 156.22 C 132.93 155.12 132.06 154.21 130.97 154.18 L 129.94 154.15 C 128.84 154.12 127.93 154.98 127.90 156.08 C 127.87 157.17 128.73 158.09 129.83 158.12 Z M 130.84 158.13 L 131.84 158.17 C 132.93 158.21 133.84 157.36 133.89 156.27 C 133.93 155.18 133.08 154.27 131.99 154.23 L 130.99 154.19 C 129.90 154.15 128.98 155.00 128.94 156.09 C 128.90 157.18 129.75 158.09 130.84 158.13 Z M 131.79 158.17 L 132.96 158.24 C 134.05 158.31 134.99 157.48 135.06 156.40 C 135.12 155.31 134.30 154.37 133.21 154.30 L 132.04 154.23 C 130.95 154.16 130.01 154.99 129.94 156.08 C 129.87 157.16 130.70 158.10 131.79 158.17 Z M 132.85 158.24 L 133.91 158.37 C 134.99 158.50 135.98 157.72 136.11 156.63 C 136.24 155.54 135.46 154.56 134.37 154.43 L 133.32 154.30 C 132.23 154.17 131.24 154.95 131.11 156.04 C 130.99 157.13 131.76 158.11 132.85 158.24 Z M 133.72 158.35 L 134.64 158.55 C 135.72 158.78 136.78 158.10 137.01 157.02 C 137.25 155.94 136.56 154.88 135.48 154.65 L 134.56 154.45 C 133.48 154.21 132.42 154.90 132.19 155.98 C 131.96 157.05 132.64 158.11 133.72 158.35 Z M 134.35 158.47 L 135.13 158.77 C 136.16 159.16 137.32 158.65 137.72 157.61 C 138.11 156.58 137.59 155.42 136.56 155.02 L 135.78 154.72 C 134.74 154.33 133.59 154.85 133.19 155.88 C 132.79 156.92 133.31 158.07 134.35 158.47 Z M 134.68 158.54 L 135.47 159.11 C 136.38 159.75 137.64 159.54 138.28 158.63 C 138.93 157.72 138.72 156.46 137.81 155.82 L 137.01 155.25 C 136.11 154.61 134.85 154.82 134.20 155.73 C 133.56 156.64 133.77 157.89 134.68 158.54 Z M 135.02 158.68 L 135.60 159.46 C 136.27 160.35 137.54 160.54 138.44 159.86 C 139.34 159.19 139.52 157.92 138.85 157.02 L 138.27 156.24 C 137.59 155.34 136.32 155.16 135.42 155.84 C 134.52 156.51 134.34 157.78 135.02 158.68 Z M 135.32 159.00 L 135.70 159.94 C 136.12 160.98 137.31 161.49 138.36 161.07 C 139.41 160.65 139.92 159.46 139.50 158.41 L 139.12 157.47 C 138.70 156.43 137.51 155.92 136.46 156.34 C 135.41 156.76 134.90 157.95 135.32 159.00 Z M 135.58 159.57 L 135.77 160.54 C 135.99 161.66 137.07 162.38 138.19 162.16 C 139.31 161.94 140.03 160.86 139.81 159.74 L 139.62 158.77 C 139.40 157.66 138.31 156.93 137.20 157.15 C 136.08 157.37 135.36 158.46 135.58 159.57 Z M 135.73 160.25 L 135.78 161.25 C 135.84 162.39 136.80 163.27 137.94 163.21 C 139.08 163.16 139.96 162.19 139.90 161.05 L 139.85 160.04 C 139.80 158.90 138.83 158.03 137.69 158.08 C 136.55 158.14 135.67 159.11 135.73 160.25 Z M 135.78 160.96 L 135.69 161.97 C 135.59 163.11 136.43 164.12 137.56 164.22 C 138.70 164.32 139.71 163.48 139.81 162.34 L 139.90 161.34 C 140.00 160.20 139.16 159.19 138.03 159.09 C 136.89 158.99 135.88 159.83 135.78 160.96 Z M 135.74 161.66 L 135.50 162.63 C 135.22 163.74 135.90 164.87 137.01 165.14 C 138.13 165.42 139.25 164.74 139.52 163.63 L 139.76 162.65 C 140.04 161.54 139.36 160.42 138.25 160.14 C 137.13 159.87 136.01 160.55 135.74 161.66 Z M 135.59 162.33 L 135.21 163.24 C 134.77 164.30 135.26 165.52 136.32 165.96 C 137.38 166.41 138.60 165.91 139.04 164.85 L 139.43 163.93 C 139.87 162.87 139.37 161.66 138.31 161.21 C 137.26 160.77 136.04 161.27 135.59 162.33 Z M 135.32 163.01 L 134.83 163.88 C 134.26 164.87 134.60 166.14 135.60 166.71 C 136.60 167.29 137.87 166.94 138.44 165.94 L 138.93 165.08 C 139.50 164.08 139.16 162.81 138.16 162.24 C 137.16 161.67 135.89 162.02 135.32 163.01 Z M 134.91 163.73 L 134.35 164.56 C 133.70 165.51 133.94 166.81 134.89 167.46 C 135.84 168.11 137.14 167.86 137.78 166.91 L 138.35 166.08 C 139.00 165.14 138.76 163.84 137.81 163.19 C 136.86 162.54 135.56 162.78 134.91 163.73 Z M 134.40 164.48 L 133.80 165.28 C 133.10 166.20 133.29 167.51 134.21 168.21 C 135.13 168.90 136.44 168.71 137.13 167.79 L 137.73 166.99 C 138.43 166.07 138.24 164.76 137.32 164.07 C 136.40 163.38 135.09 163.56 134.40 164.48 Z M 133.83 165.22 L 133.20 166.01 C 132.48 166.91 132.62 168.23 133.52 168.95 C 134.42 169.68 135.74 169.53 136.46 168.63 L 137.09 167.85 C 137.82 166.95 137.68 165.63 136.78 164.91 C 135.88 164.18 134.56 164.32 133.83 165.22 Z M 133.23 165.96 L 132.59 166.72 C 131.84 167.60 131.94 168.93 132.83 169.68 C 133.71 170.43 135.04 170.32 135.79 169.44 L 136.43 168.68 C 137.19 167.80 137.08 166.47 136.19 165.72 C 135.31 164.97 133.98 165.08 133.23 165.96 Z M 132.61 166.68 L 131.99 167.39 C 131.21 168.26 131.29 169.59 132.16 170.36 C 133.03 171.13 134.36 171.06 135.14 170.19 L 135.76 169.48 C 136.54 168.61 136.46 167.28 135.59 166.50 C 134.72 165.73 133.39 165.81 132.61 166.68 Z M 132.03 167.32 L 131.37 168.01 C 130.57 168.86 130.59 170.19 131.44 171.00 C 132.28 171.81 133.62 171.78 134.43 170.94 L 135.09 170.25 C 135.90 169.41 135.87 168.07 135.02 167.26 C 134.18 166.45 132.84 166.48 132.03 167.32 Z M 131.45 167.93 L 130.71 168.62 C 129.85 169.42 129.81 170.76 130.61 171.62 C 131.41 172.48 132.75 172.52 133.60 171.72 L 134.35 171.02 C 135.21 170.22 135.25 168.88 134.45 168.03 C 133.65 167.17 132.31 167.12 131.45 167.93 Z M 130.80 168.53 L 129.91 169.26 C 129.01 170.01 128.87 171.35 129.62 172.26 C 130.37 173.16 131.71 173.29 132.62 172.55 L 133.51 171.81 C 134.41 171.07 134.55 169.73 133.80 168.82 C 133.05 167.91 131.71 167.78 130.80 168.53 Z M 130.01 169.18 L 129.00 169.92 C 128.05 170.61 127.84 171.94 128.53 172.89 C 129.22 173.85 130.55 174.06 131.50 173.36 L 132.52 172.63 C 133.47 171.93 133.68 170.60 132.99 169.65 C 132.29 168.70 130.96 168.49 130.01 169.18 Z M 129.12 169.84 L 128.22 170.41 C 127.23 171.03 126.93 172.34 127.55 173.34 C 128.18 174.33 129.49 174.63 130.49 174.01 L 131.38 173.44 C 132.38 172.82 132.68 171.50 132.05 170.51 C 131.43 169.52 130.11 169.22 129.12 169.84 Z M 128.55 170.24 L 128.00 170.46 C 126.91 170.91 126.39 172.15 126.83 173.24 C 127.28 174.32 128.52 174.84 129.61 174.40 L 130.16 174.17 C 131.24 173.73 131.77 172.49 131.32 171.40 C 130.88 170.32 129.64 169.79 128.55 170.24 Z M 130.91 172.75 L 130.97 172.34 C 131.14 171.18 130.34 170.10 129.18 169.92 C 128.02 169.74 126.93 170.54 126.76 171.71 L 126.70 172.11 C 126.52 173.28 127.32 174.36 128.48 174.54 C 129.65 174.71 130.73 173.91 130.91 172.75 Z M 130.53 173.37 L 131.28 172.44 C 132.02 171.52 131.88 170.18 130.96 169.44 C 130.04 168.69 128.69 168.84 127.95 169.75 L 127.20 170.68 C 126.46 171.60 126.60 172.94 127.52 173.69 C 128.44 174.43 129.78 174.29 130.53 173.37 Z M 131.13 172.61 L 131.94 171.80 C 132.78 170.96 132.78 169.60 131.94 168.77 C 131.11 167.93 129.75 167.93 128.91 168.77 L 128.10 169.58 C 127.26 170.42 127.26 171.78 128.10 172.61 C 128.93 173.45 130.29 173.45 131.13 172.61 Z M 131.84 171.90 L 132.57 171.25 C 133.47 170.47 133.56 169.12 132.78 168.23 C 132.00 167.34 130.64 167.25 129.75 168.03 L 129.02 168.67 C 128.12 169.45 128.03 170.80 128.81 171.69 C 129.59 172.59 130.95 172.68 131.84 171.90 Z M 132.50 171.31 L 133.28 170.69 C 134.21 169.94 134.36 168.60 133.62 167.67 C 132.88 166.75 131.53 166.60 130.60 167.34 L 129.82 167.97 C 128.90 168.71 128.75 170.06 129.49 170.98 C 130.23 171.90 131.58 172.05 132.50 171.31 Z M 133.24 170.72 L 134.07 170.09 C 135.01 169.37 135.19 168.03 134.48 167.09 C 133.76 166.15 132.42 165.96 131.48 166.68 L 130.65 167.31 C 129.71 168.03 129.52 169.37 130.24 170.31 C 130.96 171.25 132.30 171.43 133.24 170.72 Z M 134.05 170.10 L 134.69 169.61 C 135.64 168.91 135.84 167.57 135.13 166.63 C 134.43 165.68 133.09 165.48 132.14 166.19 L 131.50 166.67 C 130.55 167.37 130.36 168.71 131.06 169.66 C 131.77 170.61 133.10 170.80 134.05 170.10 Z M 134.68 169.61 L 135.38 169.10 C 136.33 168.40 136.53 167.07 135.83 166.12 C 135.13 165.18 133.80 164.98 132.85 165.68 L 132.15 166.19 C 131.21 166.89 131.01 168.22 131.71 169.17 C 132.41 170.11 133.74 170.31 134.68 169.61 Z M 135.37 169.09 L 136.15 168.52 C 137.10 167.82 137.30 166.50 136.60 165.55 C 135.91 164.61 134.58 164.41 133.64 165.11 L 132.86 165.68 C 131.92 166.37 131.71 167.70 132.41 168.64 C 133.10 169.59 134.43 169.79 135.37 169.09 Z M 136.15 168.51 L 137.04 167.85 C 137.98 167.16 138.18 165.84 137.49 164.90 C 136.79 163.96 135.47 163.76 134.53 164.46 L 133.64 165.11 C 132.70 165.81 132.50 167.13 133.20 168.07 C 133.89 169.00 135.21 169.20 136.15 168.51 Z M 137.04 167.84 L 138.04 167.10 C 138.97 166.41 139.17 165.10 138.48 164.16 C 137.78 163.23 136.47 163.03 135.53 163.72 L 134.53 164.46 C 133.60 165.16 133.40 166.47 134.10 167.41 C 134.79 168.34 136.11 168.54 137.04 167.84 Z M 138.03 167.09 L 138.77 166.55 C 139.69 165.86 139.89 164.55 139.20 163.62 C 138.51 162.69 137.19 162.50 136.27 163.19 L 135.53 163.73 C 134.61 164.43 134.41 165.74 135.10 166.66 C 135.80 167.59 137.11 167.79 138.03 167.09 Z M 138.76 166.54 L 139.54 165.96 C 140.47 165.27 140.65 163.96 139.97 163.04 C 139.28 162.12 137.97 161.93 137.05 162.62 L 136.27 163.20 C 135.35 163.89 135.16 165.20 135.85 166.12 C 136.54 167.04 137.84 167.23 138.76 166.54 Z M 139.54 165.94 L 140.36 165.33 C 141.27 164.64 141.46 163.34 140.77 162.43 C 140.08 161.51 138.78 161.33 137.87 162.02 L 137.05 162.63 C 136.14 163.32 135.95 164.62 136.64 165.53 C 137.33 166.45 138.63 166.63 139.54 165.94 Z M 140.36 165.32 L 141.19 164.69 C 142.10 164.00 142.27 162.71 141.59 161.80 C 140.90 160.89 139.61 160.71 138.70 161.40 L 137.87 162.03 C 136.96 162.72 136.78 164.01 137.47 164.92 C 138.15 165.83 139.45 166.01 140.36 165.32 Z M 141.19 164.67 L 142.02 164.04 C 142.92 163.35 143.09 162.06 142.41 161.16 C 141.72 160.26 140.43 160.09 139.53 160.78 L 138.70 161.41 C 137.80 162.10 137.63 163.39 138.31 164.29 C 139.00 165.19 140.29 165.36 141.19 164.67 Z M 142.02 164.02 L 142.84 163.39 C 143.73 162.70 143.90 161.42 143.21 160.53 C 142.52 159.64 141.24 159.47 140.35 160.16 L 139.53 160.79 C 138.64 161.48 138.48 162.76 139.16 163.65 C 139.85 164.55 141.13 164.71 142.02 164.02 Z M 142.85 163.37 L 143.64 162.76 C 144.52 162.07 144.68 160.79 143.99 159.91 C 143.30 159.03 142.02 158.87 141.14 159.56 L 140.35 160.18 C 139.47 160.87 139.31 162.14 140.00 163.02 C 140.69 163.91 141.96 164.06 142.85 163.37 Z M 143.64 162.73 L 144.46 162.08 C 145.33 161.39 145.47 160.13 144.78 159.26 C 144.09 158.38 142.82 158.24 141.95 158.93 L 141.13 159.58 C 140.26 160.27 140.12 161.54 140.81 162.41 C 141.50 163.28 142.77 163.43 143.64 162.73 Z M 144.46 162.05 L 145.35 161.32 C 146.19 160.63 146.32 159.38 145.63 158.53 C 144.94 157.68 143.69 157.56 142.84 158.25 L 141.95 158.97 C 141.10 159.66 140.97 160.91 141.67 161.76 C 142.36 162.61 143.61 162.74 144.46 162.05 Z M 145.34 161.28 L 146.15 160.60 C 146.97 159.90 147.08 158.68 146.39 157.85 C 145.69 157.03 144.47 156.92 143.64 157.62 L 142.84 158.30 C 142.01 158.99 141.91 160.22 142.60 161.04 C 143.29 161.86 144.52 161.97 145.34 161.28 Z M 146.15 160.55 L 146.89 159.90 C 147.69 159.21 147.77 158.00 147.08 157.21 C 146.39 156.41 145.18 156.33 144.38 157.02 L 143.64 157.67 C 142.85 158.36 142.76 159.57 143.46 160.36 C 144.15 161.16 145.36 161.24 146.15 160.55 Z M 146.90 159.85 L 147.59 159.23 C 148.35 158.53 148.41 157.35 147.72 156.58 C 147.02 155.81 145.84 155.75 145.07 156.45 L 144.38 157.07 C 143.61 157.77 143.55 158.95 144.25 159.72 C 144.94 160.49 146.13 160.55 146.90 159.85 Z M 147.59 159.18 L 148.24 158.56 C 148.98 157.87 149.01 156.71 148.32 155.97 C 147.62 155.23 146.46 155.19 145.72 155.89 L 145.07 156.50 C 144.33 157.19 144.29 158.36 144.99 159.10 C 145.68 159.84 146.85 159.87 147.59 159.18 Z M 148.24 158.52 L 148.90 157.87 C 149.62 157.17 149.63 156.03 148.93 155.32 C 148.24 154.60 147.09 154.59 146.38 155.29 L 145.72 155.93 C 145.00 156.63 144.99 157.77 145.69 158.49 C 146.38 159.20 147.53 159.21 148.24 158.52 Z M 148.91 157.83 L 149.61 157.12 C 150.30 156.42 150.29 155.29 149.59 154.60 C 148.89 153.91 147.76 153.92 147.07 154.62 L 146.37 155.33 C 145.68 156.03 145.69 157.16 146.39 157.85 C 147.09 158.54 148.22 158.53 148.91 157.83 Z M 149.62 157.08 L 150.31 156.36 C 150.98 155.65 150.94 154.53 150.23 153.86 C 149.52 153.19 148.40 153.22 147.73 153.94 L 147.05 154.66 C 146.38 155.37 146.41 156.49 147.12 157.16 C 147.83 157.83 148.95 157.80 149.62 157.08 Z M 150.32 156.33 L 150.99 155.59 C 151.64 154.87 151.58 153.76 150.87 153.11 C 150.15 152.46 149.04 152.52 148.39 153.23 L 147.72 153.97 C 147.07 154.69 147.12 155.80 147.84 156.45 C 148.56 157.10 149.67 157.05 150.32 156.33 Z M 151.00 155.56 L 151.66 154.80 C 152.29 154.07 152.21 152.97 151.49 152.34 C 150.77 151.71 149.67 151.79 149.04 152.51 L 148.38 153.27 C 147.74 153.99 147.82 155.09 148.54 155.72 C 149.27 156.36 150.37 156.28 151.00 155.56 Z M 151.67 154.76 L 152.32 153.99 C 152.93 153.26 152.83 152.18 152.10 151.56 C 151.37 150.95 150.28 151.05 149.67 151.78 L 149.02 152.55 C 148.41 153.28 148.51 154.36 149.24 154.98 C 149.97 155.59 151.06 155.49 151.67 154.76 Z M 152.33 153.97 L 152.94 153.22 C 153.54 152.48 153.42 151.40 152.68 150.80 C 151.95 150.20 150.86 150.31 150.27 151.05 L 149.66 151.80 C 149.06 152.54 149.17 153.62 149.91 154.22 C 150.65 154.82 151.73 154.71 152.33 153.97 Z M 152.95 153.20 L 153.56 152.42 C 154.15 151.68 154.02 150.60 153.27 150.01 C 152.53 149.42 151.45 149.55 150.86 150.30 L 150.25 151.07 C 149.67 151.82 149.79 152.90 150.54 153.48 C 151.28 154.07 152.36 153.94 152.95 153.20 Z M 153.57 152.40 L 154.18 151.61 C 154.76 150.86 154.61 149.78 153.86 149.20 C 153.11 148.63 152.03 148.77 151.46 149.52 L 150.85 150.32 C 150.27 151.07 150.42 152.15 151.17 152.72 C 151.92 153.30 153.00 153.16 153.57 152.40 Z M 154.19 151.59 L 154.80 150.78 C 155.37 150.02 155.21 148.95 154.45 148.38 C 153.70 147.81 152.62 147.97 152.06 148.73 L 151.45 149.54 C 150.88 150.30 151.04 151.37 151.79 151.94 C 152.55 152.50 153.62 152.35 154.19 151.59 Z M 154.81 150.76 L 155.42 149.93 C 155.97 149.17 155.81 148.10 155.05 147.54 C 154.29 146.98 153.22 147.15 152.66 147.91 L 152.05 148.74 C 151.49 149.50 151.66 150.57 152.42 151.13 C 153.18 151.69 154.25 151.52 154.81 150.76 Z M 155.42 149.92 L 156.01 149.11 C 156.56 148.34 156.39 147.27 155.62 146.72 C 154.85 146.17 153.79 146.35 153.23 147.11 L 152.65 147.92 C 152.10 148.69 152.27 149.76 153.04 150.31 C 153.80 150.86 154.87 150.69 155.42 149.92 Z M 156.01 149.10 L 156.59 148.29 C 157.13 147.52 156.95 146.45 156.18 145.91 C 155.41 145.36 154.35 145.54 153.80 146.31 L 153.23 147.12 C 152.68 147.89 152.86 148.96 153.63 149.50 C 154.40 150.05 155.47 149.87 156.01 149.10 Z M 156.59 148.28 L 157.17 147.47 C 157.71 146.69 157.52 145.63 156.75 145.09 C 155.97 144.54 154.91 144.73 154.37 145.50 L 153.80 146.32 C 153.25 147.09 153.44 148.16 154.21 148.70 C 154.99 149.24 156.05 149.06 156.59 148.28 Z M 157.17 147.46 L 157.74 146.64 C 158.28 145.86 158.09 144.80 157.31 144.26 C 156.54 143.72 155.47 143.91 154.94 144.69 L 154.36 145.51 C 153.83 146.29 154.02 147.35 154.79 147.89 C 155.57 148.43 156.63 148.23 157.17 147.46 Z M 157.74 146.63 L 158.32 145.80 C 158.85 145.03 158.66 143.96 157.88 143.43 C 157.11 142.89 156.04 143.08 155.51 143.86 L 154.93 144.69 C 154.40 145.47 154.59 146.53 155.37 147.07 C 156.14 147.60 157.21 147.41 157.74 146.63 Z M 158.32 145.80 L 158.89 144.97 C 159.43 144.19 159.23 143.13 158.45 142.59 C 157.68 142.06 156.61 142.25 156.08 143.03 L 155.51 143.86 C 154.97 144.64 155.17 145.70 155.94 146.24 C 156.72 146.77 157.78 146.58 158.32 145.80 Z M 158.89 144.97 L 159.02 144.78 C 159.56 144.00 159.36 142.94 158.58 142.41 C 157.80 141.87 156.74 142.07 156.21 142.84 L 156.08 143.03 C 155.54 143.81 155.74 144.87 156.52 145.41 C 157.29 145.94 158.36 145.74 158.89 144.97 Z"
      fill="black"
      fill-rule="nonzero" /><path d="M 158.41 108.21 L 157.34 107.63 C 156.20 107.02 154.78 107.45 154.17 108.59 C 153.56 109.73 153.99 111.15 155.13 111.76 L 156.20 112.33 C 157.34 112.94 158.76 112.52 159.37 111.38 C 159.98 110.24 159.55 108.82 158.41 108.21 Z M 157.84 107.98 L 157.20 107.38 C 156.25 106.50 154.77 106.55 153.88 107.50 C 153.00 108.44 153.05 109.93 154.00 110.81 L 154.63 111.41 C 155.58 112.29 157.06 112.24 157.95 111.30 C 158.83 110.35 158.78 108.87 157.84 107.98 Z M 157.88 109.60 L 158.00 109.05 C 158.28 107.79 157.48 106.54 156.22 106.26 C 154.95 105.99 153.71 106.79 153.43 108.05 L 153.31 108.60 C 153.03 109.86 153.83 111.11 155.10 111.39 C 156.36 111.66 157.61 110.86 157.88 109.60 Z M 157.09 110.42 L 157.77 109.92 C 158.80 109.16 159.03 107.71 158.27 106.68 C 157.51 105.64 156.06 105.42 155.02 106.18 L 154.34 106.68 C 153.31 107.43 153.08 108.89 153.84 109.92 C 154.60 110.96 156.06 111.18 157.09 110.42 Z M 157.31 110.16 L 158.39 109.69 C 159.55 109.19 160.09 107.83 159.58 106.67 C 159.07 105.50 157.72 104.97 156.56 105.47 L 155.48 105.94 C 154.31 106.45 153.78 107.80 154.29 108.97 C 154.79 110.13 156.15 110.66 157.31 110.16 Z M 158.14 109.76 L 159.28 109.41 C 160.48 109.05 161.16 107.77 160.79 106.57 C 160.43 105.36 159.15 104.69 157.95 105.05 L 156.80 105.40 C 155.60 105.77 154.92 107.04 155.29 108.25 C 155.66 109.45 156.93 110.13 158.14 109.76 Z M 159.13 109.45 L 160.12 109.21 C 161.34 108.93 162.10 107.71 161.81 106.48 C 161.53 105.26 160.31 104.50 159.08 104.79 L 158.10 105.02 C 156.87 105.31 156.11 106.53 156.40 107.75 C 156.69 108.97 157.91 109.73 159.13 109.45 Z M 160.03 109.23 L 161.04 109.04 C 162.27 108.80 163.08 107.61 162.85 106.38 C 162.61 105.15 161.42 104.34 160.19 104.58 L 159.18 104.77 C 157.94 105.01 157.14 106.20 157.37 107.43 C 157.61 108.66 158.80 109.47 160.03 109.23 Z M 160.98 109.05 L 161.98 108.89 C 163.21 108.69 164.05 107.52 163.86 106.29 C 163.66 105.05 162.49 104.21 161.25 104.41 L 160.25 104.57 C 159.02 104.77 158.18 105.93 158.38 107.17 C 158.57 108.41 159.74 109.25 160.98 109.05 Z M 161.93 108.89 L 162.88 108.76 C 164.12 108.59 164.98 107.44 164.81 106.20 C 164.63 104.96 163.49 104.09 162.25 104.27 L 161.30 104.40 C 160.06 104.58 159.20 105.72 159.37 106.96 C 159.54 108.20 160.69 109.07 161.93 108.89 Z M 162.85 108.76 L 163.84 108.64 C 165.08 108.48 165.96 107.35 165.81 106.11 C 165.65 104.86 164.52 103.98 163.27 104.14 L 162.28 104.26 C 161.04 104.42 160.16 105.56 160.31 106.80 C 160.47 108.04 161.60 108.92 162.85 108.76 Z M 163.79 108.65 L 164.74 108.55 C 165.99 108.42 166.90 107.30 166.77 106.05 C 166.64 104.81 165.52 103.90 164.27 104.03 L 163.32 104.13 C 162.07 104.26 161.17 105.38 161.30 106.63 C 161.43 107.87 162.55 108.78 163.79 108.65 Z M 164.68 108.56 L 165.65 108.48 C 166.90 108.39 167.84 107.30 167.74 106.04 C 167.65 104.79 166.56 103.85 165.30 103.95 L 164.34 104.02 C 163.08 104.12 162.14 105.21 162.24 106.46 C 162.33 107.71 163.43 108.65 164.68 108.56 Z M 165.58 108.49 L 166.64 108.44 C 167.90 108.38 168.87 107.32 168.81 106.06 C 168.75 104.80 167.68 103.83 166.43 103.89 L 165.37 103.94 C 164.11 104.00 163.14 105.07 163.20 106.32 C 163.26 107.58 164.32 108.55 165.58 108.49 Z M 166.59 108.45 L 167.55 108.42 C 168.81 108.39 169.80 107.34 169.77 106.08 C 169.74 104.82 168.69 103.82 167.43 103.86 L 166.47 103.88 C 165.21 103.92 164.22 104.97 164.25 106.23 C 164.28 107.49 165.33 108.48 166.59 108.45 Z M 167.52 108.43 L 168.54 108.42 C 169.81 108.40 170.82 107.36 170.80 106.09 C 170.78 104.83 169.74 103.82 168.47 103.84 L 167.45 103.85 C 166.19 103.87 165.18 104.91 165.20 106.17 C 165.22 107.44 166.26 108.45 167.52 108.43 Z M 168.52 108.42 L 169.57 108.41 C 170.83 108.41 171.86 107.37 171.85 106.10 C 171.84 104.83 170.80 103.81 169.53 103.82 L 168.49 103.83 C 167.22 103.84 166.20 104.87 166.21 106.14 C 166.22 107.41 167.26 108.43 168.52 108.42 Z M 169.56 108.42 L 170.57 108.42 C 171.85 108.42 172.87 107.38 172.87 106.11 C 172.87 104.84 171.83 103.81 170.56 103.81 L 169.54 103.82 C 168.27 103.82 167.25 104.85 167.25 106.12 C 167.25 107.40 168.28 108.42 169.56 108.42 Z M 170.57 108.42 L 171.56 108.42 C 172.83 108.42 173.86 107.39 173.86 106.12 C 173.86 104.84 172.83 103.81 171.56 103.81 L 170.57 103.81 C 169.29 103.81 168.26 104.84 168.26 106.12 C 168.26 107.39 169.29 108.42 170.57 108.42 Z M 171.55 108.43 L 172.60 108.43 C 173.88 108.43 174.91 107.40 174.91 106.12 C 174.92 104.85 173.88 103.81 172.61 103.81 L 171.56 103.81 C 170.28 103.80 169.25 104.84 169.25 106.11 C 169.24 107.39 170.28 108.42 171.55 108.43 Z M 172.58 108.43 L 173.55 108.44 C 174.82 108.45 175.87 107.43 175.88 106.15 C 175.90 104.88 174.87 103.83 173.60 103.82 L 172.63 103.81 C 171.35 103.79 170.31 104.82 170.29 106.09 C 170.28 107.37 171.30 108.41 172.58 108.43 Z M 173.51 108.44 L 174.46 108.47 C 175.74 108.50 176.80 107.50 176.84 106.22 C 176.88 104.95 175.87 103.88 174.60 103.85 L 173.64 103.82 C 172.36 103.78 171.30 104.79 171.26 106.06 C 171.23 107.34 172.23 108.40 173.51 108.44 Z M 174.41 108.46 L 175.41 108.51 C 176.69 108.58 177.77 107.60 177.84 106.32 C 177.90 105.05 176.92 103.96 175.64 103.90 L 174.65 103.85 C 173.37 103.78 172.29 104.76 172.22 106.04 C 172.16 107.31 173.14 108.40 174.41 108.46 Z M 175.34 108.51 L 176.36 108.59 C 177.63 108.70 178.75 107.75 178.85 106.47 C 178.95 105.20 178.00 104.08 176.73 103.98 L 175.71 103.90 C 174.44 103.80 173.32 104.75 173.22 106.02 C 173.12 107.30 174.07 108.41 175.34 108.51 Z M 176.24 108.59 L 177.28 108.72 C 178.55 108.89 179.71 107.99 179.88 106.72 C 180.04 105.45 179.15 104.29 177.88 104.12 L 176.84 103.99 C 175.57 103.82 174.41 104.72 174.24 105.99 C 174.08 107.26 174.97 108.42 176.24 108.59 Z M 177.09 108.70 L 178.07 108.91 C 179.33 109.18 180.57 108.38 180.83 107.12 C 181.10 105.86 180.30 104.63 179.05 104.36 L 178.06 104.15 C 176.81 103.88 175.57 104.68 175.30 105.94 C 175.03 107.19 175.83 108.43 177.09 108.70 Z M 177.78 108.83 L 178.66 109.14 C 179.87 109.57 181.21 108.94 181.64 107.72 C 182.07 106.51 181.43 105.18 180.22 104.75 L 179.34 104.44 C 178.13 104.01 176.80 104.64 176.37 105.86 C 175.94 107.07 176.57 108.40 177.78 108.83 Z M 178.20 108.93 L 179.06 109.47 C 180.15 110.15 181.60 109.82 182.28 108.72 C 182.97 107.62 182.63 106.18 181.54 105.49 L 180.68 104.96 C 179.58 104.27 178.14 104.61 177.45 105.70 C 176.77 106.80 177.10 108.25 178.20 108.93 Z M 178.59 109.11 L 179.26 109.80 C 180.15 110.75 181.65 110.78 182.59 109.88 C 183.53 108.99 183.57 107.49 182.67 106.55 L 182.00 105.85 C 181.10 104.91 179.61 104.88 178.67 105.77 C 177.73 106.67 177.69 108.16 178.59 109.11 Z M 178.96 109.45 L 179.49 110.29 C 180.20 111.40 181.66 111.72 182.77 111.02 C 183.88 110.32 184.20 108.85 183.50 107.74 L 182.96 106.90 C 182.26 105.80 180.79 105.47 179.69 106.17 C 178.58 106.88 178.26 108.35 178.96 109.45 Z M 179.35 110.07 L 179.77 110.93 C 180.35 112.12 181.78 112.61 182.97 112.03 C 184.15 111.45 184.65 110.02 184.07 108.84 L 183.64 107.97 C 183.06 106.78 181.63 106.29 180.45 106.87 C 179.26 107.45 178.77 108.88 179.35 110.07 Z M 179.70 110.79 L 180.05 111.67 C 180.56 112.90 181.96 113.49 183.19 112.98 C 184.42 112.48 185.01 111.08 184.50 109.85 L 184.14 108.97 C 183.64 107.74 182.24 107.16 181.01 107.66 C 179.78 108.16 179.19 109.57 179.70 110.79 Z M 179.99 111.55 L 180.32 112.50 C 180.76 113.76 182.14 114.43 183.40 113.99 C 184.66 113.55 185.33 112.17 184.89 110.91 L 184.56 109.97 C 184.12 108.71 182.75 108.04 181.48 108.48 C 180.22 108.92 179.56 110.29 179.99 111.55 Z M 180.27 112.39 L 180.57 113.40 C 180.95 114.69 182.30 115.43 183.59 115.05 C 184.88 114.67 185.61 113.32 185.24 112.03 L 184.94 111.02 C 184.56 109.73 183.21 109.00 181.92 109.37 C 180.63 109.75 179.90 111.10 180.27 112.39 Z M 180.53 113.30 L 180.78 114.31 C 181.10 115.62 182.43 116.42 183.74 116.09 C 185.05 115.77 185.85 114.44 185.52 113.13 L 185.27 112.13 C 184.95 110.82 183.63 110.02 182.32 110.35 C 181.01 110.67 180.21 111.99 180.53 113.30 Z M 180.75 114.23 L 180.96 115.18 C 181.23 116.50 182.53 117.35 183.86 117.07 C 185.18 116.79 186.03 115.49 185.75 114.17 L 185.55 113.22 C 185.27 111.89 183.97 111.05 182.65 111.32 C 181.32 111.60 180.48 112.90 180.75 114.23 Z M 180.94 115.12 L 181.12 116.10 C 181.36 117.43 182.64 118.31 183.98 118.07 C 185.31 117.82 186.19 116.54 185.95 115.21 L 185.77 114.23 C 185.52 112.90 184.24 112.02 182.91 112.26 C 181.58 112.50 180.69 113.78 180.94 115.12 Z M 181.11 116.05 L 181.27 117.05 C 181.49 118.39 182.75 119.30 184.09 119.08 C 185.43 118.86 186.34 117.60 186.12 116.26 L 185.96 115.26 C 185.74 113.92 184.48 113.01 183.14 113.23 C 181.80 113.45 180.89 114.71 181.11 116.05 Z M 181.26 117.02 L 181.41 118.03 C 181.61 119.37 182.87 120.30 184.21 120.10 C 185.56 119.90 186.48 118.65 186.28 117.30 L 186.13 116.29 C 185.93 114.95 184.68 114.02 183.33 114.22 C 181.99 114.42 181.06 115.67 181.26 117.02 Z M 181.40 118.01 L 181.55 119.04 C 181.74 120.39 182.99 121.33 184.34 121.14 C 185.68 120.95 186.62 119.71 186.44 118.36 L 186.29 117.32 C 186.10 115.97 184.85 115.03 183.50 115.22 C 182.15 115.41 181.21 116.66 181.40 118.01 Z M 181.54 119.03 L 181.68 120.07 C 181.87 121.43 183.11 122.38 184.46 122.19 C 185.82 122.01 186.77 120.77 186.58 119.41 L 186.44 118.37 C 186.26 117.02 185.01 116.07 183.66 116.25 C 182.31 116.43 181.36 117.68 181.54 119.03 Z M 181.68 120.07 L 181.81 121.08 C 181.99 122.44 183.23 123.39 184.59 123.22 C 185.95 123.04 186.90 121.79 186.72 120.44 L 186.59 119.42 C 186.41 118.06 185.17 117.11 183.81 117.29 C 182.45 117.47 181.50 118.71 181.68 120.07 Z M 181.80 121.08 L 181.93 122.05 C 182.11 123.41 183.35 124.37 184.71 124.19 C 186.07 124.02 187.03 122.77 186.85 121.41 L 186.73 120.44 C 186.55 119.08 185.31 118.12 183.95 118.30 C 182.59 118.47 181.63 119.72 181.80 121.08 Z M 181.93 122.05 L 182.05 122.97 C 182.22 124.33 183.47 125.29 184.83 125.11 C 186.20 124.94 187.16 123.69 186.98 122.33 L 186.86 121.41 C 186.68 120.05 185.43 119.09 184.07 119.27 C 182.71 119.44 181.75 120.69 181.93 122.05 Z M 182.04 122.98 L 182.18 124.04 C 182.37 125.40 183.62 126.36 184.98 126.18 C 186.35 126.00 187.31 124.75 187.12 123.38 L 186.98 122.32 C 186.80 120.95 185.55 120.00 184.18 120.18 C 182.82 120.36 181.86 121.61 182.04 122.98 Z M 182.18 124.04 L 182.32 125.04 C 182.50 126.41 183.76 127.37 185.12 127.18 C 186.49 127.00 187.44 125.74 187.26 124.38 L 187.13 123.38 C 186.94 122.01 185.69 121.05 184.32 121.24 C 182.96 121.42 182.00 122.68 182.18 124.04 Z M 182.31 125.03 L 182.43 125.97 C 182.61 127.34 183.86 128.31 185.23 128.13 C 186.60 127.95 187.57 126.70 187.39 125.33 L 187.27 124.39 C 187.09 123.02 185.84 122.06 184.47 122.23 C 183.10 122.41 182.13 123.66 182.31 125.03 Z M 182.43 125.95 L 182.54 126.89 C 182.70 128.26 183.95 129.24 185.32 129.08 C 186.69 128.91 187.67 127.67 187.51 126.30 L 187.39 125.36 C 187.23 123.99 185.99 123.01 184.62 123.17 C 183.24 123.33 182.26 124.58 182.43 125.95 Z M 182.53 126.86 L 182.64 127.84 C 182.79 129.22 184.02 130.21 185.39 130.07 C 186.77 129.92 187.76 128.68 187.62 127.31 L 187.51 126.33 C 187.36 124.95 186.13 123.96 184.76 124.11 C 183.38 124.25 182.39 125.49 182.53 126.86 Z M 182.64 127.83 L 182.74 128.83 C 182.88 130.20 184.11 131.21 185.49 131.06 C 186.86 130.92 187.86 129.69 187.72 128.32 L 187.62 127.32 C 187.48 125.95 186.25 124.94 184.87 125.09 C 183.50 125.23 182.50 126.46 182.64 127.83 Z M 182.74 128.84 L 182.84 129.85 C 182.99 131.22 184.22 132.22 185.60 132.07 C 186.98 131.93 187.98 130.69 187.83 129.32 L 187.72 128.31 C 187.58 126.93 186.34 125.93 184.97 126.08 C 183.59 126.23 182.59 127.46 182.74 128.84 Z M 182.85 129.87 L 182.96 130.84 C 183.11 132.21 184.36 133.20 185.73 133.04 C 187.11 132.88 188.10 131.64 187.94 130.27 L 187.83 129.30 C 187.67 127.92 186.43 126.93 185.05 127.09 C 183.68 127.25 182.69 128.49 182.85 129.87 Z M 182.96 130.85 L 183.07 131.83 C 183.24 133.20 184.48 134.19 185.86 134.02 C 187.24 133.86 188.22 132.61 188.06 131.24 L 187.94 130.26 C 187.78 128.88 186.53 127.90 185.15 128.06 C 183.78 128.22 182.79 129.47 182.96 130.85 Z M 183.07 131.82 L 183.19 132.82 C 183.35 134.20 184.59 135.19 185.97 135.03 C 187.34 134.87 188.33 133.63 188.17 132.25 L 188.06 131.25 C 187.90 129.87 186.65 128.88 185.28 129.04 C 183.90 129.20 182.91 130.44 183.07 131.82 Z M 183.18 132.80 L 183.29 133.81 C 183.43 135.19 184.67 136.19 186.05 136.04 C 187.43 135.90 188.43 134.66 188.28 133.28 L 188.18 132.28 C 188.03 130.90 186.80 129.90 185.42 130.04 C 184.04 130.19 183.04 131.42 183.18 132.80 Z M 183.29 133.78 L 183.38 134.75 C 183.51 136.13 184.73 137.14 186.11 137.01 C 187.49 136.88 188.51 135.66 188.38 134.28 L 188.29 133.31 C 188.16 131.93 186.93 130.91 185.55 131.04 C 184.17 131.17 183.16 132.40 183.29 133.78 Z M 183.37 134.73 L 183.46 135.72 C 183.58 137.11 184.80 138.13 186.18 138.01 C 187.57 137.89 188.59 136.67 188.47 135.28 L 188.38 134.29 C 188.26 132.91 187.04 131.89 185.66 132.01 C 184.27 132.13 183.25 133.35 183.37 134.73 Z M 183.46 135.72 L 183.55 136.74 C 183.67 138.12 184.89 139.14 186.27 139.02 C 187.65 138.90 188.68 137.68 188.56 136.30 L 188.47 135.29 C 188.35 133.90 187.13 132.88 185.75 133.00 C 184.36 133.12 183.34 134.34 183.46 135.72 Z M 183.55 136.75 L 183.64 137.76 C 183.77 139.14 184.99 140.16 186.37 140.04 C 187.76 139.91 188.77 138.69 188.65 137.30 L 188.56 136.29 C 188.43 134.91 187.21 133.89 185.82 134.02 C 184.44 134.14 183.42 135.37 183.55 136.75 Z M 183.64 137.78 L 183.74 138.75 C 183.87 140.13 185.10 141.14 186.48 141.01 C 187.87 140.87 188.88 139.64 188.74 138.26 L 188.65 137.29 C 188.51 135.91 187.28 134.89 185.90 135.03 C 184.52 135.16 183.51 136.39 183.64 137.78 Z M 183.74 138.76 L 183.84 139.75 C 183.98 141.13 185.21 142.14 186.59 142.00 C 187.98 141.86 188.98 140.62 188.84 139.24 L 188.74 138.25 C 188.60 136.87 187.37 135.86 185.98 136.00 C 184.60 136.14 183.60 137.38 183.74 138.76 Z M 183.84 139.75 L 183.94 140.76 C 184.08 142.14 185.32 143.14 186.70 143.00 C 188.09 142.86 189.09 141.62 188.95 140.24 L 188.84 139.23 C 188.70 137.85 187.46 136.85 186.08 136.99 C 184.70 137.13 183.69 138.37 183.84 139.75 Z M 183.94 140.76 L 184.05 141.78 C 184.19 143.16 185.43 144.17 186.81 144.02 C 188.19 143.88 189.20 142.64 189.05 141.26 L 188.95 140.24 C 188.80 138.86 187.57 137.85 186.18 138.00 C 184.80 138.14 183.80 139.38 183.94 140.76 Z M 184.05 141.78 L 184.14 142.73 C 184.29 144.12 185.52 145.12 186.91 144.98 C 188.29 144.84 189.30 143.60 189.15 142.22 L 189.05 141.26 C 188.91 139.88 187.68 138.87 186.29 139.02 C 184.91 139.16 183.90 140.40 184.05 141.78 Z M 184.14 142.73 L 184.24 143.70 C 184.39 145.09 185.62 146.09 187.00 145.95 C 188.39 145.81 189.39 144.57 189.25 143.19 L 189.15 142.22 C 189.01 140.84 187.77 139.83 186.39 139.97 C 185.01 140.11 184.00 141.35 184.14 142.73 Z M 184.24 143.71 L 184.35 144.70 C 184.49 146.08 185.73 147.09 187.11 146.94 C 188.49 146.80 189.50 145.56 189.35 144.18 L 189.25 143.19 C 189.11 141.81 187.87 140.80 186.49 140.94 C 185.11 141.09 184.10 142.32 184.24 143.71 Z M 184.35 144.70 L 184.45 145.72 C 184.60 147.10 185.84 148.11 187.22 147.96 C 188.60 147.82 189.60 146.58 189.46 145.20 L 189.35 144.18 C 189.21 142.80 187.97 141.79 186.59 141.94 C 185.21 142.08 184.20 143.32 184.35 144.70 Z M 184.46 145.73 L 184.57 146.76 C 184.71 148.14 185.95 149.14 187.34 148.99 C 188.72 148.84 189.72 147.60 189.57 146.22 L 189.46 145.19 C 189.31 143.81 188.07 142.81 186.69 142.96 C 185.31 143.11 184.31 144.35 184.46 145.73 Z M 184.57 146.76 L 184.67 147.74 C 184.83 149.13 186.07 150.12 187.45 149.97 C 188.83 149.82 189.83 148.58 189.68 147.20 L 189.57 146.21 C 189.42 144.83 188.18 143.84 186.79 143.99 C 185.41 144.14 184.42 145.38 184.57 146.76 Z M 184.67 147.75 L 184.79 148.75 C 184.94 150.13 186.18 151.12 187.56 150.97 C 188.94 150.82 189.94 149.57 189.79 148.19 L 189.67 147.19 C 189.52 145.81 188.28 144.82 186.90 144.97 C 185.52 145.12 184.52 146.37 184.67 147.75 Z M 184.79 148.75 L 184.90 149.75 C 185.05 151.13 186.29 152.13 187.67 151.97 C 189.05 151.82 190.05 150.58 189.90 149.20 L 189.78 148.19 C 189.63 146.81 188.39 145.82 187.01 145.97 C 185.63 146.12 184.63 147.37 184.79 148.75 Z M 184.90 149.75 L 185.01 150.75 C 185.16 152.13 186.40 153.13 187.78 152.98 C 189.16 152.82 190.16 151.58 190.01 150.20 L 189.90 149.20 C 189.74 147.82 188.50 146.82 187.12 146.98 C 185.74 147.13 184.75 148.37 184.90 149.75 Z M 185.01 150.74 L 185.11 151.74 C 185.26 153.12 186.50 154.11 187.88 153.97 C 189.26 153.82 190.26 152.58 190.11 151.20 L 190.01 150.21 C 189.86 148.83 188.62 147.83 187.24 147.98 C 185.86 148.12 184.86 149.36 185.01 150.74 Z M 185.11 151.73 L 185.22 152.75 C 185.36 154.13 186.60 155.13 187.98 154.99 C 189.36 154.84 190.36 153.61 190.22 152.23 L 190.11 151.21 C 189.97 149.83 188.73 148.82 187.35 148.97 C 185.97 149.11 184.97 150.35 185.11 151.73 Z M 185.22 152.73 L 185.32 153.74 C 185.46 155.12 186.69 156.12 188.07 155.99 C 189.45 155.85 190.46 154.62 190.32 153.24 L 190.22 152.24 C 190.08 150.86 188.85 149.85 187.47 149.99 C 186.09 150.12 185.08 151.35 185.22 152.73 Z M 185.32 153.72 L 185.41 154.71 C 185.54 156.09 186.77 157.10 188.15 156.97 C 189.53 156.84 190.54 155.62 190.41 154.24 L 190.32 153.25 C 190.19 151.87 188.96 150.86 187.58 150.99 C 186.20 151.12 185.19 152.34 185.32 153.72 Z M 185.41 154.70 L 185.50 155.68 C 185.62 157.06 186.84 158.08 188.22 157.96 C 189.60 157.84 190.62 156.62 190.50 155.24 L 190.41 154.25 C 190.29 152.87 189.07 151.85 187.69 151.98 C 186.31 152.10 185.29 153.32 185.41 154.70 Z M 185.50 155.66 L 185.58 156.65 C 185.69 158.03 186.90 159.06 188.28 158.94 C 189.66 158.83 190.69 157.62 190.58 156.24 L 190.50 155.25 C 190.39 153.87 189.17 152.84 187.79 152.96 C 186.41 153.07 185.39 154.28 185.50 155.66 Z M 185.58 156.63 L 185.65 157.63 C 185.76 159.01 186.96 160.04 188.34 159.94 C 189.72 159.83 190.76 158.63 190.65 157.25 L 190.58 156.25 C 190.47 154.87 189.27 153.84 187.89 153.94 C 186.51 154.05 185.47 155.25 185.58 156.63 Z M 185.66 157.62 L 185.73 158.62 C 185.83 160.00 187.03 161.04 188.41 160.94 C 189.79 160.84 190.82 159.64 190.73 158.26 L 190.65 157.26 C 190.55 155.88 189.35 154.84 187.97 154.94 C 186.59 155.04 185.56 156.24 185.66 157.62 Z M 185.73 158.61 L 185.80 159.61 C 185.90 160.99 187.10 162.03 188.47 161.93 C 189.85 161.84 190.89 160.64 190.79 159.26 L 190.72 158.26 C 190.63 156.88 189.43 155.84 188.05 155.94 C 186.67 156.04 185.63 157.23 185.73 158.61 Z M 185.80 159.62 L 185.87 160.62 C 185.97 162.00 187.17 163.03 188.55 162.93 C 189.93 162.83 190.97 161.63 190.87 160.25 L 190.79 159.25 C 190.69 157.88 189.49 156.84 188.11 156.94 C 186.74 157.04 185.70 158.24 185.80 159.62 Z M 185.88 160.63 L 185.95 161.63 C 186.06 163.00 187.26 164.03 188.64 163.93 C 190.02 163.82 191.05 162.61 190.94 161.24 L 190.86 160.24 C 190.76 158.86 189.55 157.83 188.18 157.94 C 186.80 158.05 185.77 159.25 185.88 160.63 Z M 185.96 161.64 L 186.04 162.64 C 186.16 164.02 187.37 165.04 188.74 164.92 C 190.12 164.81 191.14 163.60 191.02 162.23 L 190.94 161.22 C 190.82 159.85 189.61 158.83 188.24 158.94 C 186.86 159.06 185.84 160.26 185.96 161.64 Z M 186.04 162.65 L 186.13 163.65 C 186.25 165.02 187.46 166.04 188.84 165.92 C 190.21 165.80 191.23 164.59 191.11 163.21 L 191.02 162.22 C 190.90 160.84 189.69 159.83 188.31 159.95 C 186.94 160.07 185.92 161.28 186.04 162.65 Z M 186.13 163.65 L 186.22 164.64 C 186.34 166.02 187.55 167.03 188.93 166.91 C 190.30 166.79 191.31 165.58 191.19 164.21 L 191.11 163.21 C 190.98 161.84 189.77 160.82 188.40 160.95 C 187.03 161.07 186.01 162.28 186.13 163.65 Z M 186.22 164.64 L 186.31 165.63 C 186.43 167.00 187.63 168.02 189.01 167.90 C 190.38 167.78 191.39 166.58 191.28 165.20 L 191.19 164.21 C 191.07 162.84 189.87 161.82 188.49 161.94 C 187.12 162.06 186.10 163.27 186.22 164.64 Z M 186.31 165.62 L 186.39 166.61 C 186.50 167.99 187.70 169.01 189.07 168.90 C 190.45 168.79 191.47 167.58 191.36 166.21 L 191.28 165.22 C 191.16 163.84 189.96 162.82 188.59 162.93 C 187.22 163.04 186.20 164.25 186.31 165.62 Z M 186.39 166.60 L 186.46 167.60 C 186.57 168.97 187.76 170.00 189.13 169.90 C 190.51 169.80 191.53 168.60 191.43 167.23 L 191.36 166.23 C 191.25 164.86 190.06 163.83 188.69 163.93 C 187.31 164.03 186.29 165.23 186.39 166.60 Z M 186.47 167.59 L 186.54 168.59 C 186.63 169.96 187.82 170.99 189.19 170.90 C 190.56 170.80 191.60 169.61 191.50 168.24 L 191.43 167.24 C 191.33 165.87 190.14 164.84 188.77 164.93 C 187.40 165.03 186.37 166.22 186.47 167.59 Z M 186.54 168.58 L 186.60 169.58 C 186.70 170.95 187.88 171.99 189.25 171.89 C 190.62 171.80 191.66 170.62 191.57 169.25 L 191.50 168.25 C 191.41 166.88 190.22 165.84 188.85 165.94 C 187.48 166.03 186.45 167.21 186.54 168.58 Z M 186.61 169.58 L 186.67 170.57 C 186.76 171.94 187.94 172.97 189.31 172.88 C 190.68 172.79 191.72 171.61 191.63 170.24 L 191.56 169.25 C 191.47 167.88 190.29 166.84 188.92 166.93 C 187.55 167.02 186.52 168.21 186.61 169.58 Z M 186.67 170.57 L 186.74 171.56 C 186.83 172.93 188.01 173.97 189.38 173.88 C 190.75 173.79 191.78 172.60 191.69 171.24 L 191.63 170.24 C 191.54 168.87 190.36 167.84 188.99 167.93 C 187.62 168.02 186.58 169.20 186.67 170.57 Z M 186.74 171.56 L 186.80 172.55 C 186.89 173.92 188.07 174.96 189.44 174.87 C 190.81 174.78 191.85 173.60 191.76 172.23 L 191.69 171.24 C 191.60 169.87 190.42 168.83 189.06 168.92 C 187.69 169.01 186.65 170.19 186.74 171.56 Z M 186.80 172.55 L 186.87 173.54 C 186.95 174.91 188.13 175.95 189.50 175.86 C 190.86 175.78 191.90 174.60 191.82 173.23 L 191.76 172.24 C 191.67 170.87 190.49 169.83 189.13 169.91 C 187.76 170.00 186.72 171.18 186.80 172.55 Z M 186.86 173.53 L 186.92 174.53 C 187.00 175.90 188.18 176.94 189.54 176.86 C 190.91 176.78 191.96 175.61 191.88 174.24 L 191.82 173.24 C 191.74 171.87 190.57 170.83 189.20 170.91 C 187.83 170.99 186.79 172.16 186.86 173.53 Z M 186.92 174.51 L 186.97 175.52 C 187.05 176.89 188.21 177.94 189.58 177.87 C 190.95 177.80 192.00 176.63 191.93 175.26 L 191.88 174.25 C 191.81 172.89 190.64 171.83 189.27 171.91 C 187.90 171.98 186.85 173.14 186.92 174.51 Z M 186.97 175.50 L 187.02 176.53 C 187.08 177.90 188.24 178.96 189.61 178.90 C 190.98 178.84 192.04 177.68 191.98 176.31 L 191.93 175.28 C 191.87 173.91 190.71 172.85 189.34 172.91 C 187.97 172.98 186.91 174.13 186.97 175.50 Z M 187.02 176.52 L 187.06 177.55 C 187.12 178.92 188.27 179.98 189.64 179.93 C 191.01 179.88 192.07 178.72 192.02 177.35 L 191.98 176.32 C 191.92 174.96 190.77 173.89 189.40 173.94 C 188.03 174.00 186.97 175.15 187.02 176.52 Z M 187.06 177.54 L 187.10 178.55 C 187.15 179.92 188.30 180.99 189.67 180.94 C 191.04 180.89 192.11 179.74 192.06 178.37 L 192.02 177.36 C 191.97 175.99 190.82 174.92 189.45 174.97 C 188.08 175.02 187.01 176.17 187.06 177.54 Z M 187.10 178.55 L 187.13 179.52 C 187.18 180.89 188.33 181.96 189.70 181.91 C 191.07 181.87 192.14 180.72 192.09 179.35 L 192.06 178.37 C 192.01 177.00 190.86 175.93 189.49 175.98 C 188.12 176.03 187.05 177.18 187.10 178.55 Z M 187.13 179.52 L 187.17 180.52 C 187.22 181.89 188.37 182.96 189.74 182.91 C 191.11 182.86 192.18 181.71 192.13 180.34 L 192.09 179.34 C 192.04 177.98 190.89 176.91 189.52 176.95 C 188.15 177.00 187.08 178.15 187.13 179.52 Z M 187.17 180.53 L 187.21 181.59 C 187.26 182.96 188.42 184.02 189.78 183.97 C 191.15 183.92 192.22 182.76 192.17 181.39 L 192.13 180.33 C 192.07 178.96 190.92 177.90 189.55 177.95 C 188.18 178.00 187.11 179.16 187.17 180.53 Z M 187.21 181.59 L 187.25 182.58 C 187.31 183.95 188.46 185.01 189.83 184.96 C 191.20 184.90 192.26 183.74 192.21 182.38 L 192.17 181.39 C 192.11 180.02 190.95 178.96 189.58 179.01 C 188.22 179.07 187.15 180.23 187.21 181.59 Z M 187.25 182.59 L 187.29 183.53 C 187.35 184.90 188.51 185.96 189.88 185.90 C 191.25 185.83 192.31 184.68 192.25 183.31 L 192.21 182.37 C 192.15 181.00 190.99 179.94 189.62 180.00 C 188.25 180.06 187.19 181.22 187.25 182.59 Z M 187.29 183.53 L 187.33 184.41 C 187.40 185.78 188.56 186.84 189.92 186.78 C 191.29 186.72 192.35 185.56 192.29 184.19 L 192.25 183.31 C 192.19 181.94 191.03 180.88 189.66 180.94 C 188.29 181.00 187.23 182.16 187.29 183.53 Z M 187.33 184.41 L 187.37 185.30 C 187.43 186.67 188.59 187.73 189.95 187.67 C 191.32 187.61 192.38 186.46 192.32 185.09 L 192.29 184.20 C 192.23 182.83 191.07 181.77 189.71 181.83 C 188.34 181.88 187.28 183.04 187.33 184.41 Z M 187.37 185.28 L 187.41 186.26 C 187.45 187.62 188.60 188.69 189.97 188.65 C 191.33 188.60 192.41 187.45 192.36 186.09 L 192.32 185.11 C 192.28 183.74 191.13 182.67 189.76 182.72 C 188.40 182.76 187.33 183.91 187.37 185.28 Z M 187.41 186.23 L 187.43 187.37 C 187.46 188.73 188.60 189.82 189.97 189.78 C 191.33 189.75 192.42 188.62 192.39 187.25 L 192.36 186.11 C 192.33 184.75 191.19 183.66 189.82 183.70 C 188.46 183.73 187.37 184.86 187.41 186.23 Z M 187.43 187.34 L 187.45 188.35 C 187.47 189.72 188.59 190.81 189.96 190.79 C 191.33 190.77 192.42 189.65 192.40 188.28 L 192.39 187.27 C 192.37 185.90 191.24 184.81 189.87 184.83 C 188.51 184.85 187.41 185.97 187.43 187.34 Z M 187.45 188.34 L 187.45 189.32 C 187.47 190.68 188.58 191.78 189.95 191.77 C 191.32 191.76 192.42 190.64 192.41 189.28 L 192.40 188.30 C 192.39 186.93 191.27 185.83 189.90 185.84 C 188.54 185.85 187.44 186.97 187.45 188.34 Z M 187.45 189.30 L 187.46 190.33 C 187.46 191.70 188.57 192.81 189.94 192.80 C 191.31 192.80 192.41 191.69 192.41 190.32 L 192.41 189.29 C 192.40 187.92 191.29 186.82 189.92 186.82 C 188.56 186.82 187.45 187.94 187.45 189.30 Z M 187.46 190.32 L 187.46 191.37 C 187.45 192.74 188.56 193.85 189.93 193.85 C 191.30 193.85 192.41 192.74 192.41 191.38 L 192.41 190.33 C 192.41 188.96 191.30 187.85 189.94 187.85 C 188.57 187.85 187.46 188.96 187.46 190.32 Z M 187.46 191.36 L 187.45 192.39 C 187.44 193.76 188.55 194.87 189.91 194.88 C 191.28 194.89 192.39 193.79 192.40 192.42 L 192.41 191.39 C 192.42 190.02 191.31 188.91 189.95 188.90 C 188.58 188.89 187.46 189.99 187.46 191.36 Z M 187.45 192.38 L 187.44 193.36 C 187.43 194.73 188.52 195.85 189.89 195.86 C 191.26 195.88 192.38 194.78 192.39 193.42 L 192.40 192.43 C 192.42 191.07 191.32 189.95 189.95 189.93 C 188.59 189.92 187.47 191.01 187.45 192.38 Z M 187.44 193.34 L 187.42 194.53 C 187.39 195.89 188.48 197.02 189.84 197.05 C 191.21 197.08 192.34 195.99 192.36 194.63 L 192.39 193.44 C 192.42 192.07 191.33 190.94 189.97 190.92 C 188.60 190.89 187.47 191.97 187.44 193.34 Z M 187.43 194.44 L 187.37 195.52 C 187.29 196.88 188.34 198.04 189.70 198.12 C 191.06 198.19 192.22 197.15 192.30 195.79 L 192.36 194.71 C 192.43 193.35 191.39 192.19 190.03 192.11 C 188.67 192.04 187.50 193.08 187.43 194.44 Z M 187.39 195.34 L 187.27 196.28 C 187.10 197.63 188.05 198.86 189.40 199.03 C 190.75 199.21 191.98 198.26 192.15 196.91 L 192.28 195.97 C 192.45 194.62 191.50 193.38 190.15 193.21 C 188.80 193.04 187.56 193.99 187.39 195.34 Z M 187.33 195.98 L 187.12 196.79 C 186.78 198.11 187.57 199.45 188.89 199.79 C 190.20 200.13 191.54 199.34 191.88 198.03 L 192.09 197.21 C 192.43 195.89 191.64 194.55 190.33 194.21 C 189.01 193.87 187.67 194.66 187.33 195.98 Z M 187.30 196.34 L 186.90 197.15 C 186.31 198.37 186.82 199.84 188.04 200.43 C 189.26 201.02 190.72 200.51 191.31 199.29 L 191.71 198.48 C 192.30 197.26 191.79 195.79 190.57 195.20 C 189.35 194.62 187.88 195.12 187.30 196.34 Z M 187.27 196.62 L 186.65 197.33 C 185.76 198.35 185.87 199.89 186.88 200.78 C 187.90 201.66 189.44 201.55 190.33 200.54 L 190.95 199.82 C 191.83 198.81 191.73 197.27 190.71 196.38 C 189.69 195.50 188.15 195.60 187.27 196.62 Z M 187.17 196.89 L 186.33 197.43 C 185.20 198.16 184.88 199.67 185.61 200.80 C 186.34 201.92 187.84 202.25 188.97 201.52 L 189.81 200.97 C 190.93 200.25 191.26 198.74 190.53 197.61 C 189.80 196.49 188.29 196.16 187.17 196.89 Z M 186.86 197.19 L 185.86 197.54 C 184.60 197.98 183.93 199.36 184.37 200.62 C 184.81 201.88 186.18 202.54 187.44 202.11 L 188.44 201.76 C 189.71 201.32 190.37 199.94 189.93 198.68 C 189.50 197.42 188.12 196.75 186.86 197.19 Z M 186.25 197.46 L 185.30 197.62 C 184.00 197.84 183.12 199.08 183.34 200.38 C 183.56 201.69 184.79 202.56 186.10 202.34 L 187.05 202.18 C 188.35 201.96 189.23 200.73 189.01 199.42 C 188.79 198.12 187.56 197.24 186.25 197.46 Z M 185.59 197.62 L 184.57 197.67 C 183.27 197.73 182.26 198.84 182.32 200.14 C 182.38 201.44 183.48 202.45 184.79 202.39 L 185.81 202.34 C 187.11 202.28 188.12 201.18 188.06 199.87 C 188.00 198.57 186.89 197.56 185.59 197.62 Z M 184.84 197.70 L 183.80 197.63 C 182.52 197.55 181.41 198.52 181.32 199.80 C 181.23 201.09 182.20 202.20 183.49 202.29 L 184.52 202.36 C 185.81 202.45 186.92 201.47 187.01 200.19 C 187.09 198.90 186.12 197.79 184.84 197.70 Z M 184.08 197.70 L 183.10 197.51 C 181.85 197.27 180.64 198.08 180.40 199.33 C 180.16 200.58 180.98 201.79 182.23 202.03 L 183.21 202.22 C 184.46 202.46 185.67 201.65 185.91 200.40 C 186.15 199.15 185.33 197.94 184.08 197.70 Z M 183.43 197.66 L 182.43 197.30 C 181.27 196.87 179.98 197.48 179.56 198.64 C 179.13 199.81 179.73 201.09 180.90 201.52 L 181.90 201.88 C 183.06 202.30 184.35 201.70 184.77 200.54 C 185.20 199.37 184.60 198.08 183.43 197.66 Z M 182.73 197.53 L 181.84 197.03 C 180.80 196.44 179.49 196.81 178.90 197.84 C 178.32 198.88 178.68 200.19 179.72 200.78 L 180.60 201.28 C 181.64 201.87 182.95 201.50 183.54 200.47 C 184.13 199.43 183.76 198.12 182.73 197.53 Z M 182.02 197.27 L 181.25 196.68 C 180.34 195.99 179.05 196.17 178.37 197.07 C 177.68 197.97 177.85 199.26 178.76 199.95 L 179.53 200.54 C 180.44 201.23 181.73 201.05 182.41 200.15 C 183.10 199.24 182.92 197.95 182.02 197.27 Z M 181.32 196.87 L 180.64 196.24 C 179.84 195.51 178.60 195.57 177.87 196.37 C 177.14 197.17 177.20 198.40 178.00 199.13 L 178.68 199.76 C 179.48 200.49 180.72 200.43 181.45 199.64 C 182.18 198.84 182.12 197.60 181.32 196.87 Z M 180.66 196.37 L 179.95 195.64 C 179.22 194.90 178.02 194.89 177.28 195.62 C 176.54 196.35 176.53 197.54 177.26 198.29 L 177.97 199.01 C 178.70 199.75 179.90 199.77 180.64 199.03 C 181.38 198.30 181.39 197.11 180.66 196.37 Z M 179.98 195.74 L 179.33 195.00 C 178.65 194.24 177.49 194.17 176.73 194.85 C 175.97 195.52 175.89 196.69 176.57 197.45 L 177.22 198.19 C 177.90 198.95 179.06 199.02 179.83 198.34 C 180.59 197.67 180.66 196.50 179.98 195.74 Z M 179.36 195.10 L 178.74 194.33 C 178.12 193.55 176.98 193.42 176.21 194.04 C 175.43 194.66 175.30 195.80 175.92 196.57 L 176.54 197.35 C 177.16 198.13 178.30 198.25 179.07 197.63 C 179.85 197.01 179.98 195.88 179.36 195.10 Z M 178.76 194.41 L 178.18 193.62 C 177.61 192.83 176.50 192.66 175.71 193.23 C 174.92 193.81 174.75 194.92 175.33 195.70 L 175.90 196.49 C 176.48 197.28 177.58 197.45 178.37 196.88 C 179.16 196.30 179.33 195.20 178.76 194.41 Z M 178.20 193.68 L 177.65 192.86 C 177.11 192.06 176.02 191.85 175.22 192.39 C 174.42 192.93 174.21 194.02 174.75 194.82 L 175.30 195.64 C 175.84 196.44 176.93 196.65 177.73 196.11 C 178.53 195.57 178.74 194.48 178.20 193.68 Z M 177.67 192.92 L 177.13 192.06 C 176.62 191.24 175.55 191.00 174.74 191.50 C 173.93 192.01 173.68 193.08 174.19 193.90 L 174.73 194.76 C 175.23 195.57 176.30 195.82 177.12 195.31 C 177.93 194.80 178.18 193.73 177.67 192.92 Z M 177.15 192.12 L 176.64 191.23 C 176.17 190.41 175.11 190.13 174.29 190.60 C 173.47 191.08 173.18 192.13 173.66 192.96 L 174.17 193.84 C 174.64 194.66 175.70 194.94 176.52 194.47 C 177.34 193.99 177.63 192.94 177.15 192.12 Z M 176.66 191.29 L 176.20 190.41 C 175.75 189.58 174.71 189.26 173.88 189.71 C 173.04 190.15 172.72 191.19 173.17 192.03 L 173.64 192.90 C 174.08 193.74 175.12 194.06 175.96 193.61 C 176.80 193.16 177.11 192.12 176.66 191.29 Z M 176.21 190.44 L 175.76 189.56 C 175.33 188.71 174.30 188.38 173.46 188.81 C 172.61 189.24 172.28 190.27 172.71 191.11 L 173.16 192.00 C 173.59 192.84 174.62 193.18 175.46 192.75 C 176.30 192.32 176.64 191.29 176.21 190.44 Z M 175.76 189.57 L 175.31 188.67 C 174.89 187.82 173.86 187.48 173.01 187.91 C 172.17 188.33 171.83 189.36 172.25 190.20 L 172.70 191.10 C 173.13 191.95 174.16 192.29 175.00 191.86 C 175.84 191.44 176.19 190.41 175.76 189.57 Z M 175.30 188.66 L 174.85 187.77 C 174.42 186.93 173.39 186.60 172.55 187.03 C 171.71 187.46 171.38 188.49 171.81 189.33 L 172.26 190.21 C 172.69 191.05 173.72 191.39 174.56 190.96 C 175.40 190.53 175.73 189.50 175.30 188.66 Z M 174.84 187.75 L 174.37 186.87 C 173.93 186.04 172.90 185.72 172.07 186.16 C 171.23 186.60 170.91 187.63 171.35 188.47 L 171.82 189.35 C 172.26 190.18 173.29 190.50 174.12 190.06 C 174.96 189.62 175.28 188.58 174.84 187.75 Z M 174.37 186.86 L 173.89 185.98 C 173.44 185.15 172.41 184.83 171.58 185.28 C 170.75 185.73 170.44 186.77 170.88 187.60 L 171.36 188.48 C 171.81 189.31 172.84 189.62 173.67 189.17 C 174.50 188.73 174.81 187.69 174.37 186.86 Z M 173.89 185.97 L 173.40 185.08 C 172.95 184.25 171.92 183.95 171.09 184.40 C 170.26 184.85 169.95 185.89 170.40 186.71 L 170.89 187.60 C 171.34 188.43 172.37 188.74 173.20 188.29 C 174.03 187.84 174.34 186.80 173.89 185.97 Z M 173.40 185.08 L 173.28 184.85 C 172.82 184.02 171.79 183.71 170.96 184.16 C 170.13 184.62 169.82 185.65 170.28 186.48 L 170.40 186.72 C 170.86 187.54 171.89 187.85 172.72 187.40 C 173.55 186.95 173.85 185.91 173.40 185.08 Z"
      fill="black"
      fill-rule="nonzero" /><path d="M 162.69 145.61 L 163.67 145.41 C 164.92 145.15 165.72 143.93 165.47 142.69 C 165.21 141.44 163.99 140.64 162.75 140.89 L 161.77 141.09 C 160.52 141.35 159.72 142.57 159.98 143.81 C 160.23 145.06 161.45 145.86 162.69 145.61 Z M 163.61 145.29 L 164.59 145.11 C 165.78 144.89 166.56 143.75 166.34 142.57 C 166.11 141.38 164.98 140.60 163.79 140.82 L 162.81 141.01 C 161.63 141.23 160.85 142.37 161.07 143.55 C 161.29 144.73 162.43 145.51 163.61 145.29 Z M 164.50 145.00 L 165.49 144.85 C 166.61 144.68 167.38 143.63 167.22 142.51 C 167.05 141.39 166.00 140.61 164.87 140.78 L 163.89 140.93 C 162.76 141.10 161.99 142.15 162.16 143.27 C 162.33 144.40 163.38 145.17 164.50 145.00 Z M 165.37 144.75 L 166.38 144.66 C 167.45 144.55 168.23 143.60 168.13 142.53 C 168.02 141.46 167.07 140.68 166.00 140.78 L 164.99 140.88 C 163.92 140.98 163.14 141.94 163.24 143.01 C 163.35 144.08 164.30 144.86 165.37 144.75 Z M 166.19 144.61 L 167.22 144.61 C 168.27 144.61 169.12 143.76 169.12 142.71 C 169.12 141.67 168.27 140.82 167.22 140.82 L 166.19 140.82 C 165.14 140.82 164.29 141.67 164.29 142.72 C 164.29 143.77 165.14 144.62 166.19 144.61 Z M 166.84 144.57 L 167.79 144.77 C 168.81 144.98 169.81 144.32 170.02 143.30 C 170.24 142.28 169.58 141.28 168.56 141.07 L 167.61 140.87 C 166.59 140.65 165.59 141.31 165.37 142.33 C 165.16 143.35 165.81 144.35 166.84 144.57 Z M 167.16 144.50 L 167.96 145.01 C 168.84 145.57 170.00 145.31 170.56 144.43 C 171.12 143.55 170.86 142.39 169.98 141.83 L 169.18 141.33 C 168.31 140.77 167.14 141.03 166.59 141.91 C 166.03 142.78 166.29 143.95 167.16 144.50 Z M 167.41 144.46 L 167.91 145.21 C 168.49 146.07 169.65 146.31 170.51 145.73 C 171.37 145.16 171.60 144.00 171.03 143.14 L 170.53 142.39 C 169.95 141.53 168.79 141.29 167.93 141.86 C 167.07 142.44 166.84 143.60 167.41 144.46 Z M 167.71 144.75 L 168.01 145.66 C 168.33 146.63 169.37 147.16 170.34 146.84 C 171.32 146.52 171.84 145.48 171.53 144.51 L 171.23 143.60 C 170.91 142.63 169.87 142.10 168.90 142.42 C 167.92 142.74 167.40 143.78 167.71 144.75 Z M 167.97 145.37 L 168.13 146.41 C 168.29 147.40 169.23 148.08 170.22 147.92 C 171.22 147.76 171.90 146.82 171.74 145.83 L 171.57 144.80 C 171.41 143.80 170.48 143.12 169.48 143.28 C 168.49 143.44 167.81 144.38 167.97 145.37 Z M 168.14 146.20 L 168.18 147.26 C 168.23 148.26 169.07 149.03 170.06 148.98 C 171.06 148.93 171.83 148.09 171.78 147.10 L 171.73 146.04 C 171.69 145.04 170.85 144.27 169.85 144.32 C 168.86 144.36 168.09 145.21 168.14 146.20 Z M 168.21 147.09 L 168.16 148.10 C 168.10 149.07 168.86 149.91 169.84 149.96 C 170.81 150.01 171.65 149.26 171.70 148.28 L 171.76 147.28 C 171.81 146.30 171.06 145.46 170.08 145.41 C 169.10 145.36 168.26 146.11 168.21 147.09 Z M 168.19 147.88 L 167.99 149.00 C 167.82 149.96 168.47 150.88 169.43 151.04 C 170.39 151.21 171.31 150.57 171.48 149.61 L 171.67 148.49 C 171.84 147.53 171.20 146.61 170.23 146.45 C 169.27 146.28 168.36 146.92 168.19 147.88 Z M 168.04 148.75 L 167.74 149.69 C 167.43 150.62 167.94 151.63 168.88 151.93 C 169.81 152.24 170.82 151.73 171.12 150.79 L 171.43 149.85 C 171.73 148.92 171.22 147.91 170.29 147.61 C 169.35 147.30 168.35 147.81 168.04 148.75 Z M 167.80 149.50 L 167.41 150.34 C 167.00 151.24 167.40 152.30 168.30 152.71 C 169.20 153.12 170.27 152.73 170.68 151.83 L 171.06 150.98 C 171.47 150.08 171.07 149.02 170.17 148.61 C 169.27 148.20 168.21 148.60 167.80 149.50 Z M 167.44 150.24 L 167.01 151.06 C 166.55 151.95 166.89 153.04 167.78 153.50 C 168.66 153.97 169.76 153.62 170.22 152.74 L 170.65 151.92 C 171.11 151.03 170.77 149.94 169.88 149.48 C 169.00 149.02 167.91 149.36 167.44 150.24 Z M 167.01 151.03 L 166.55 151.87 C 166.07 152.76 166.39 153.87 167.28 154.36 C 168.17 154.84 169.28 154.51 169.76 153.62 L 170.22 152.78 C 170.71 151.89 170.38 150.78 169.49 150.30 C 168.60 149.81 167.49 150.14 167.01 151.03 Z M 166.55 151.82 L 166.05 152.69 C 165.54 153.58 165.84 154.72 166.73 155.23 C 167.62 155.74 168.76 155.43 169.27 154.54 L 169.77 153.67 C 170.28 152.78 169.97 151.65 169.08 151.14 C 168.19 150.63 167.06 150.93 166.55 151.82 Z M 166.05 152.63 L 165.50 153.53 C 164.96 154.41 165.24 155.57 166.12 156.12 C 167.01 156.66 168.17 156.38 168.71 155.50 L 169.26 154.60 C 169.81 153.72 169.53 152.56 168.64 152.01 C 167.76 151.47 166.60 151.75 166.05 152.63 Z M 165.50 153.46 L 164.96 154.28 C 164.38 155.17 164.63 156.36 165.51 156.94 C 166.40 157.52 167.59 157.28 168.17 156.39 L 168.71 155.57 C 169.29 154.68 169.05 153.49 168.16 152.91 C 167.28 152.33 166.09 152.57 165.50 153.46 Z M 164.94 154.22 L 164.38 155.04 C 163.76 155.94 163.99 157.16 164.89 157.78 C 165.78 158.40 167.01 158.17 167.62 157.27 L 168.19 156.45 C 168.80 155.56 168.58 154.33 167.68 153.71 C 166.79 153.10 165.56 153.33 164.94 154.22 Z M 164.35 155.00 L 163.77 155.83 C 163.13 156.74 163.35 158.00 164.26 158.64 C 165.17 159.28 166.43 159.06 167.07 158.15 L 167.65 157.32 C 168.29 156.41 168.07 155.15 167.16 154.51 C 166.25 153.87 164.99 154.09 164.35 155.00 Z M 163.73 155.80 L 163.14 156.62 C 162.49 157.56 162.71 158.85 163.64 159.51 C 164.58 160.16 165.87 159.94 166.53 159.01 L 167.11 158.18 C 167.77 157.24 167.54 155.95 166.61 155.30 C 165.67 154.64 164.38 154.86 163.73 155.80 Z M 163.06 156.61 L 162.36 157.64 C 161.69 158.62 161.94 159.96 162.92 160.62 C 163.90 161.29 165.24 161.04 165.90 160.06 L 166.61 159.02 C 167.28 158.04 167.02 156.71 166.04 156.04 C 165.06 155.37 163.73 155.63 163.06 156.61 Z M 162.17 157.72 L 161.62 158.67 C 161.00 159.75 161.37 161.13 162.46 161.76 C 163.54 162.38 164.92 162.01 165.55 160.92 L 166.09 159.98 C 166.71 158.90 166.34 157.51 165.26 156.89 C 164.18 156.27 162.79 156.64 162.17 157.72 Z M 161.27 159.22 L 161.10 159.90 C 160.79 161.18 161.56 162.47 162.84 162.79 C 164.12 163.11 165.41 162.33 165.73 161.05 L 165.90 160.37 C 166.21 159.10 165.44 157.80 164.16 157.48 C 162.89 157.17 161.59 157.94 161.27 159.22 Z M 162.04 162.51 L 162.51 162.83 C 163.63 163.59 165.16 163.30 165.92 162.18 C 166.68 161.06 166.39 159.53 165.27 158.77 L 164.79 158.44 C 163.67 157.68 162.14 157.98 161.38 159.10 C 160.62 160.22 160.91 161.75 162.04 162.51 Z M 164.21 163.26 L 165.25 163.12 C 166.61 162.95 167.57 161.71 167.39 160.35 C 167.22 158.99 165.98 158.03 164.62 158.21 L 163.57 158.34 C 162.22 158.52 161.26 159.76 161.43 161.11 C 161.61 162.47 162.85 163.43 164.21 163.26 Z M 165.71 163.02 L 166.76 162.68 C 168.06 162.25 168.77 160.85 168.35 159.55 C 167.92 158.24 166.51 157.53 165.21 157.96 L 164.16 158.31 C 162.86 158.73 162.15 160.14 162.58 161.44 C 163.00 162.74 164.41 163.45 165.71 163.02 Z M 166.97 162.60 L 167.75 162.26 C 169.01 161.72 169.58 160.25 169.04 159.00 C 168.49 157.74 167.03 157.16 165.77 157.71 L 165.00 158.04 C 163.74 158.59 163.16 160.05 163.71 161.31 C 164.26 162.56 165.72 163.14 166.97 162.60 Z M 167.85 162.20 L 168.70 161.78 C 169.93 161.18 170.43 159.70 169.83 158.47 C 169.22 157.25 167.74 156.75 166.51 157.35 L 165.67 157.77 C 164.44 158.37 163.94 159.85 164.54 161.08 C 165.15 162.30 166.63 162.81 167.85 162.20 Z M 168.74 161.76 L 169.74 161.24 C 170.94 160.61 171.42 159.13 170.79 157.92 C 170.17 156.71 168.68 156.24 167.47 156.86 L 166.48 157.38 C 165.27 158.00 164.79 159.49 165.42 160.70 C 166.05 161.91 167.53 162.38 168.74 161.76 Z M 169.73 161.23 L 170.71 160.72 C 171.92 160.10 172.39 158.62 171.77 157.42 C 171.14 156.21 169.66 155.74 168.46 156.36 L 167.48 156.87 C 166.27 157.49 165.80 158.97 166.42 160.18 C 167.05 161.38 168.53 161.85 169.73 161.23 Z M 170.69 160.71 L 171.55 160.28 C 172.75 159.67 173.22 158.20 172.61 157.00 C 172.00 155.80 170.53 155.33 169.33 155.94 L 168.48 156.37 C 167.28 156.99 166.80 158.45 167.42 159.65 C 168.03 160.85 169.50 161.33 170.69 160.71 Z M 171.53 160.27 L 172.44 159.80 C 173.64 159.20 174.11 157.74 173.51 156.55 C 172.90 155.36 171.45 154.89 170.25 155.49 L 169.34 155.95 C 168.15 156.56 167.68 158.01 168.28 159.20 C 168.89 160.39 170.34 160.87 171.53 160.27 Z M 172.43 159.79 L 173.37 159.31 C 174.55 158.71 175.03 157.27 174.43 156.09 C 173.83 154.90 172.39 154.43 171.20 155.03 L 170.26 155.51 C 169.08 156.10 168.61 157.55 169.21 158.73 C 169.81 159.91 171.25 160.39 172.43 159.79 Z M 173.36 159.30 L 174.30 158.82 C 175.47 158.23 175.94 156.79 175.35 155.62 C 174.75 154.45 173.32 153.98 172.15 154.57 L 171.21 155.05 C 170.04 155.64 169.57 157.08 170.16 158.25 C 170.76 159.42 172.19 159.89 173.36 159.30 Z M 174.29 158.80 L 175.20 158.35 C 176.36 157.75 176.82 156.33 176.23 155.17 C 175.64 154.00 174.21 153.54 173.05 154.13 L 172.15 154.59 C 170.99 155.18 170.52 156.61 171.12 157.77 C 171.71 158.93 173.13 159.40 174.29 158.80 Z M 175.19 158.31 L 176.10 157.84 C 177.25 157.26 177.70 155.85 177.11 154.70 C 176.52 153.56 175.12 153.11 173.97 153.70 L 173.06 154.16 C 171.91 154.75 171.46 156.16 172.05 157.30 C 172.64 158.45 174.04 158.90 175.19 158.31 Z M 176.08 157.77 L 177.09 157.24 C 178.20 156.66 178.62 155.30 178.05 154.20 C 177.47 153.10 176.11 152.67 175.01 153.24 L 174.00 153.77 C 172.89 154.35 172.46 155.71 173.04 156.81 C 173.61 157.91 174.98 158.34 176.08 157.77 Z M 177.05 157.13 L 177.95 156.65 C 178.99 156.10 179.39 154.81 178.84 153.77 C 178.28 152.72 176.99 152.33 175.95 152.88 L 175.05 153.35 C 174.01 153.90 173.61 155.20 174.16 156.24 C 174.72 157.28 176.01 157.68 177.05 157.13 Z M 177.90 156.55 L 178.72 156.11 C 179.70 155.58 180.07 154.36 179.55 153.38 C 179.02 152.39 177.80 152.02 176.81 152.55 L 176.00 152.98 C 175.01 153.51 174.64 154.73 175.17 155.72 C 175.69 156.70 176.92 157.07 177.90 156.55 Z M 178.66 156.01 L 179.44 155.59 C 180.37 155.09 180.72 153.94 180.22 153.01 C 179.72 152.09 178.57 151.74 177.64 152.24 L 176.87 152.65 C 175.94 153.15 175.59 154.30 176.09 155.23 C 176.58 156.15 177.74 156.50 178.66 156.01 Z M 179.40 155.52 L 180.25 155.07 C 181.13 154.60 181.47 153.49 181.00 152.61 C 180.53 151.72 179.43 151.38 178.54 151.85 L 177.69 152.31 C 176.80 152.78 176.46 153.88 176.94 154.77 C 177.41 155.65 178.51 155.99 179.40 155.52 Z M 180.22 155.04 L 181.11 154.57 C 181.98 154.11 182.31 153.04 181.85 152.17 C 181.39 151.29 180.32 150.96 179.44 151.42 L 178.56 151.88 C 177.69 152.34 177.36 153.42 177.82 154.29 C 178.28 155.16 179.35 155.50 180.22 155.04 Z M 181.09 154.55 L 181.98 154.09 C 182.84 153.64 183.17 152.58 182.72 151.72 C 182.27 150.86 181.21 150.53 180.35 150.98 L 179.46 151.44 C 178.60 151.89 178.27 152.95 178.72 153.81 C 179.17 154.67 180.23 155.00 181.09 154.55 Z M 181.96 154.06 L 182.85 153.60 C 183.70 153.16 184.03 152.11 183.59 151.27 C 183.15 150.42 182.10 150.09 181.26 150.53 L 180.36 151.00 C 179.52 151.44 179.19 152.48 179.63 153.33 C 180.07 154.18 181.12 154.50 181.96 154.06 Z M 182.85 153.58 L 183.04 153.49 C 183.87 153.05 184.20 152.01 183.76 151.18 C 183.32 150.34 182.29 150.01 181.45 150.45 L 181.26 150.55 C 180.42 150.99 180.10 152.02 180.54 152.86 C 180.97 153.70 182.01 154.02 182.85 153.58 Z"
      fill="black"
      fill-rule="nonzero" /></svg>