<svg xmlns="http://www.w3.org/2000/svg" width="300" height="300" viewBox="0 0 300 300">
<path d="M 120.67 125.09 L 119.56 125.78 C 118.48 126.47 118.16 127.89 118.84 128.97 C 119.52 130.05 120.95 130.37 122.03 129.69 L 123.13 129.00 C 124.21 128.31 124.53 126.89 123.85 125.81 C 123.17 124.73 121.75 124.41 120.67 125.09 Z M 119.22 125.88 L 118.56 126.44 C 117.54 127.31 117.41 128.85 118.28 129.87 C 119.16 130.90 120.69 131.02 121.72 130.15 L 122.37 129.60 C 123.40 128.72 123.52 127.19 122.65 126.16 C 121.78 125.13 120.24 125.01 119.22 125.88 Z M 118.05 129.71 L 118.24 129.98 C 119.02 131.14 120.59 131.44 121.75 130.65 C 122.90 129.87 123.20 128.30 122.41 127.14 L 122.23 126.87 C 121.45 125.72 119.87 125.42 118.72 126.20 C 117.57 126.99 117.27 128.56 118.05 129.71 Z M 120.36 131.12 L 121.30 131.10 C 122.71 131.08 123.84 129.92 123.82 128.51 C 123.79 127.10 122.63 125.97 121.22 126.00 L 120.29 126.01 C 118.88 126.03 117.75 127.19 117.77 128.60 C 117.79 130.01 118.95 131.14 120.36 131.12 Z M 121.73 131.07 L 123.08 130.82 C 124.47 130.56 125.39 129.23 125.14 127.83 C 124.88 126.44 123.55 125.52 122.15 125.78 L 120.80 126.03 C 119.41 126.29 118.49 127.62 118.74 129.01 C 119.00 130.41 120.33 131.33 121.73 131.07 Z M 123.27 130.78 L 124.19 130.54 C 125.56 130.18 126.38 128.78 126.02 127.41 C 125.66 126.04 124.26 125.22 122.89 125.58 L 121.97 125.82 C 120.60 126.18 119.78 127.58 120.14 128.95 C 120.50 130.32 121.90 131.14 123.27 130.78 Z M 124.28 130.51 L 125.25 130.22 C 126.61 129.82 127.38 128.39 126.97 127.03 C 126.57 125.67 125.14 124.90 123.78 125.31 L 122.81 125.60 C 121.45 126.01 120.68 127.44 121.08 128.79 C 121.49 130.15 122.92 130.92 124.28 130.51 Z M 125.30 130.21 L 126.29 129.89 C 127.63 129.46 128.38 128.01 127.94 126.66 C 127.51 125.31 126.06 124.57 124.71 125.01 L 123.73 125.32 C 122.38 125.76 121.64 127.20 122.07 128.55 C 122.51 129.90 123.95 130.64 125.30 130.21 Z M 126.31 129.88 L 127.27 129.56 C 128.62 129.12 129.34 127.66 128.90 126.32 C 128.45 124.97 127.00 124.25 125.65 124.69 L 124.69 125.01 C 123.35 125.46 122.62 126.91 123.07 128.26 C 123.51 129.60 124.97 130.33 126.31 129.88 Z M 127.27 129.56 L 128.26 129.23 C 129.61 128.78 130.33 127.33 129.89 125.99 C 129.44 124.65 127.99 123.92 126.65 124.37 L 125.65 124.70 C 124.31 125.14 123.58 126.59 124.03 127.94 C 124.48 129.28 125.93 130.01 127.27 129.56 Z M 128.25 129.23 L 129.23 128.91 C 130.57 128.47 131.31 127.03 130.87 125.69 C 130.43 124.34 128.99 123.61 127.65 124.05 L 126.66 124.37 C 125.32 124.80 124.59 126.25 125.02 127.59 C 125.46 128.93 126.90 129.67 128.25 129.23 Z M 129.21 128.91 L 130.14 128.61 C 131.48 128.19 132.23 126.75 131.80 125.41 C 131.37 124.07 129.94 123.32 128.59 123.75 L 127.66 124.05 C 126.32 124.47 125.58 125.91 126.01 127.25 C 126.43 128.59 127.87 129.34 129.21 128.91 Z M 130.12 128.61 L 131.03 128.33 C 132.37 127.91 133.12 126.49 132.71 125.15 C 132.29 123.81 130.86 123.05 129.52 123.47 L 128.61 123.75 C 127.27 124.17 126.52 125.59 126.94 126.94 C 127.35 128.28 128.78 129.03 130.12 128.61 Z M 131.01 128.33 L 131.93 128.05 C 133.27 127.64 134.03 126.23 133.62 124.89 C 133.22 123.54 131.80 122.79 130.46 123.19 L 129.54 123.47 C 128.20 123.88 127.44 125.30 127.85 126.64 C 128.25 127.98 129.67 128.74 131.01 128.33 Z M 131.92 128.05 L 132.86 127.76 C 134.20 127.36 134.96 125.95 134.56 124.61 C 134.16 123.27 132.75 122.51 131.41 122.91 L 130.47 123.20 C 129.13 123.60 128.37 125.01 128.77 126.35 C 129.17 127.69 130.58 128.45 131.92 128.05 Z M 132.87 127.76 L 133.83 127.47 C 135.17 127.06 135.92 125.65 135.52 124.31 C 135.11 122.98 133.70 122.22 132.36 122.63 L 131.40 122.92 C 130.07 123.33 129.31 124.74 129.72 126.07 C 130.12 127.41 131.53 128.16 132.87 127.76 Z M 133.85 127.46 L 134.83 127.15 C 136.16 126.74 136.90 125.32 136.49 123.99 C 136.07 122.66 134.66 121.92 133.33 122.33 L 132.35 122.64 C 131.02 123.05 130.27 124.47 130.69 125.80 C 131.10 127.13 132.52 127.87 133.85 127.46 Z M 134.85 127.14 L 135.81 126.83 C 137.13 126.40 137.86 124.98 137.43 123.66 C 137.00 122.33 135.58 121.61 134.26 122.04 L 133.30 122.35 C 131.98 122.77 131.26 124.19 131.68 125.52 C 132.11 126.84 133.53 127.56 134.85 127.14 Z M 135.83 126.81 L 136.79 126.50 C 138.10 126.06 138.81 124.63 138.37 123.32 C 137.93 122.00 136.51 121.29 135.19 121.73 L 134.24 122.05 C 132.92 122.49 132.21 123.91 132.65 125.23 C 133.09 126.54 134.52 127.25 135.83 126.81 Z M 136.80 126.49 L 137.75 126.16 C 139.06 125.71 139.76 124.29 139.32 122.98 C 138.87 121.67 137.44 120.97 136.13 121.42 L 135.18 121.74 C 133.87 122.19 133.17 123.61 133.62 124.92 C 134.07 126.23 135.49 126.93 136.80 126.49 Z M 137.76 126.15 L 138.70 125.83 C 140.01 125.38 140.70 123.95 140.25 122.65 C 139.80 121.34 138.37 120.65 137.07 121.10 L 136.13 121.42 C 134.82 121.87 134.13 123.30 134.58 124.60 C 135.03 125.91 136.45 126.60 137.76 126.15 Z M 138.70 125.82 L 139.66 125.49 C 140.96 125.04 141.65 123.62 141.20 122.31 C 140.75 121.01 139.33 120.32 138.02 120.77 L 137.06 121.10 C 135.76 121.56 135.07 122.98 135.52 124.28 C 135.98 125.59 137.40 126.28 138.70 125.82 Z M 139.66 125.49 L 140.61 125.16 C 141.91 124.71 142.60 123.29 142.15 121.99 C 141.70 120.68 140.27 119.99 138.97 120.44 L 138.02 120.77 C 136.72 121.22 136.03 122.65 136.48 123.95 C 136.93 125.25 138.35 125.94 139.66 125.49 Z M 140.60 125.16 L 141.54 124.84 C 142.84 124.39 143.54 122.97 143.09 121.67 C 142.64 120.36 141.22 119.67 139.91 120.12 L 138.97 120.44 C 137.67 120.89 136.98 122.31 137.43 123.62 C 137.88 124.92 139.30 125.61 140.60 125.16 Z M 141.53 124.84 L 142.47 124.52 C 143.77 124.08 144.47 122.66 144.02 121.35 C 143.58 120.05 142.16 119.35 140.85 119.80 L 139.92 120.12 C 138.61 120.56 137.92 121.98 138.36 123.29 C 138.81 124.59 140.23 125.29 141.53 124.84 Z M 142.46 124.52 L 143.40 124.21 C 144.71 123.76 145.41 122.35 144.96 121.04 C 144.52 119.73 143.10 119.03 141.80 119.48 L 140.86 119.79 C 139.55 120.24 138.85 121.66 139.30 122.96 C 139.74 124.27 141.16 124.97 142.46 124.52 Z M 143.40 124.21 L 144.34 123.89 C 145.65 123.45 146.35 122.04 145.91 120.73 C 145.47 119.42 144.06 118.72 142.75 119.15 L 141.80 119.47 C 140.50 119.91 139.79 121.33 140.23 122.64 C 140.67 123.95 142.09 124.65 143.40 124.21 Z M 144.34 123.89 L 145.29 123.58 C 146.60 123.14 147.31 121.72 146.87 120.41 C 146.43 119.10 145.01 118.40 143.70 118.83 L 142.75 119.15 C 141.44 119.59 140.74 121.01 141.17 122.32 C 141.61 123.63 143.03 124.33 144.34 123.89 Z M 145.29 123.58 L 146.24 123.26 C 147.55 122.82 148.26 121.41 147.82 120.10 C 147.39 118.79 145.97 118.08 144.66 118.51 L 143.71 118.83 C 142.40 119.27 141.69 120.69 142.12 122.00 C 142.56 123.31 143.98 124.02 145.29 123.58 Z M 146.24 123.26 L 147.19 122.94 C 148.50 122.51 149.21 121.09 148.77 119.78 C 148.33 118.47 146.92 117.76 145.61 118.20 L 144.66 118.52 C 143.35 118.95 142.64 120.37 143.08 121.68 C 143.52 122.99 144.93 123.69 146.24 123.26 Z M 147.19 122.94 L 148.14 122.62 C 149.44 122.19 150.15 120.77 149.71 119.47 C 149.28 118.16 147.87 117.45 146.56 117.89 L 145.61 118.21 C 144.31 118.64 143.60 120.05 144.03 121.36 C 144.47 122.67 145.88 123.37 147.19 122.94 Z M 148.14 122.61 L 149.08 122.30 C 150.39 121.86 151.09 120.46 150.66 119.15 C 150.22 117.85 148.81 117.14 147.51 117.58 L 146.56 117.90 C 145.26 118.33 144.55 119.74 144.99 121.04 C 145.42 122.34 146.83 123.05 148.14 122.61 Z M 149.08 122.29 L 150.03 121.98 C 151.33 121.54 152.03 120.14 151.60 118.84 C 151.17 117.54 149.76 116.84 148.46 117.27 L 147.51 117.58 C 146.21 118.02 145.51 119.42 145.94 120.72 C 146.38 122.02 147.78 122.73 149.08 122.29 Z M 150.03 121.97 L 150.98 121.65 C 152.28 121.22 152.98 119.82 152.55 118.53 C 152.12 117.23 150.72 116.53 149.42 116.96 L 148.47 117.27 C 147.17 117.71 146.47 119.11 146.90 120.40 C 147.33 121.70 148.73 122.40 150.03 121.97 Z M 150.96 121.65 L 151.92 121.34 C 153.21 120.92 153.92 119.53 153.50 118.23 C 153.07 116.94 151.68 116.23 150.39 116.65 L 149.44 116.96 C 148.14 117.38 147.43 118.78 147.86 120.07 C 148.28 121.36 149.67 122.07 150.96 121.65 Z M 151.89 121.34 L 152.84 121.04 C 154.13 120.63 154.85 119.25 154.45 117.96 C 154.04 116.67 152.66 115.95 151.37 116.35 L 150.42 116.65 C 149.12 117.06 148.40 118.44 148.81 119.73 C 149.22 121.03 150.59 121.75 151.89 121.34 Z M 152.80 121.04 L 153.75 120.76 C 155.05 120.37 155.79 119.01 155.40 117.72 C 155.02 116.42 153.66 115.68 152.36 116.07 L 151.41 116.35 C 150.11 116.74 149.37 118.10 149.76 119.39 C 150.14 120.69 151.51 121.43 152.80 121.04 Z M 153.71 120.76 L 154.67 120.49 C 155.97 120.13 156.72 118.79 156.36 117.49 C 156.00 116.20 154.66 115.44 153.37 115.80 L 152.41 116.07 C 151.11 116.43 150.35 117.77 150.71 119.07 C 151.07 120.36 152.42 121.12 153.71 120.76 Z M 154.64 120.49 L 155.60 120.23 C 156.89 119.89 157.66 118.56 157.32 117.27 C 156.98 115.98 155.65 115.21 154.36 115.55 L 153.40 115.81 C 152.10 116.15 151.34 117.48 151.68 118.77 C 152.02 120.06 153.35 120.83 154.64 120.49 Z M 155.59 120.22 L 156.56 119.96 C 157.84 119.63 158.61 118.31 158.28 117.03 C 157.94 115.74 156.63 114.97 155.34 115.31 L 154.37 115.56 C 153.09 115.90 152.32 117.21 152.65 118.50 C 152.99 119.78 154.30 120.55 155.59 120.22 Z M 156.56 119.95 L 157.50 119.70 C 158.78 119.36 159.54 118.05 159.20 116.78 C 158.87 115.50 157.56 114.74 156.28 115.08 L 155.34 115.33 C 154.06 115.66 153.30 116.97 153.64 118.25 C 153.98 119.52 155.28 120.29 156.56 119.95 Z M 157.51 119.68 L 158.41 119.44 C 159.68 119.10 160.43 117.80 160.09 116.53 C 159.75 115.26 158.45 114.51 157.18 114.85 L 156.28 115.09 C 155.01 115.43 154.26 116.73 154.60 118.00 C 154.94 119.27 156.24 120.02 157.51 119.68 Z M 158.39 119.43 L 159.33 119.18 C 160.60 118.85 161.35 117.56 161.02 116.30 C 160.69 115.04 159.40 114.29 158.13 114.62 L 157.19 114.86 C 155.93 115.19 155.18 116.49 155.51 117.75 C 155.84 119.01 157.13 119.76 158.39 119.43 Z M 159.30 119.18 L 160.30 118.92 C 161.56 118.61 162.32 117.34 162.01 116.08 C 161.70 114.82 160.42 114.06 159.16 114.37 L 158.16 114.62 C 156.91 114.94 156.14 116.21 156.46 117.47 C 156.77 118.73 158.05 119.49 159.30 119.18 Z M 160.26 118.92 L 161.32 118.67 C 162.58 118.38 163.36 117.13 163.06 115.87 C 162.77 114.62 161.52 113.84 160.26 114.13 L 159.20 114.38 C 157.95 114.67 157.17 115.93 157.46 117.18 C 157.76 118.43 159.01 119.21 160.26 118.92 Z M 161.28 118.67 L 162.23 118.46 C 163.49 118.19 164.28 116.96 164.01 115.71 C 163.74 114.45 162.51 113.66 161.25 113.93 L 160.30 114.14 C 159.05 114.41 158.26 115.64 158.53 116.89 C 158.80 118.14 160.03 118.94 161.28 118.67 Z M 162.20 118.46 L 163.19 118.26 C 164.44 118.01 165.25 116.79 165.00 115.54 C 164.75 114.29 163.53 113.48 162.28 113.73 L 161.29 113.93 C 160.04 114.19 159.23 115.40 159.48 116.65 C 159.73 117.91 160.95 118.71 162.20 118.46 Z M 163.16 118.26 L 164.17 118.07 C 165.42 117.83 166.24 116.62 166.00 115.38 C 165.77 114.13 164.56 113.31 163.31 113.54 L 162.31 113.74 C 161.06 113.97 160.24 115.18 160.47 116.43 C 160.71 117.67 161.91 118.49 163.16 118.26 Z M 164.14 118.06 L 165.14 117.88 C 166.39 117.66 167.22 116.47 167.00 115.23 C 166.78 113.98 165.59 113.15 164.34 113.37 L 163.34 113.55 C 162.10 113.77 161.27 114.96 161.49 116.21 C 161.71 117.45 162.90 118.28 164.14 118.06 Z M 165.12 117.88 L 166.09 117.72 C 167.33 117.51 168.17 116.34 167.97 115.10 C 167.76 113.85 166.59 113.01 165.35 113.22 L 164.37 113.38 C 163.13 113.58 162.29 114.75 162.49 116.00 C 162.70 117.24 163.87 118.08 165.12 117.88 Z M 166.05 117.71 L 167.11 117.55 C 168.35 117.37 169.20 116.22 169.02 114.98 C 168.84 113.74 167.68 112.88 166.44 113.07 L 165.38 113.22 C 164.15 113.41 163.29 114.56 163.47 115.80 C 163.66 117.04 164.81 117.89 166.05 117.71 Z M 167.04 117.54 L 168.05 117.43 C 169.29 117.28 170.17 116.16 170.03 114.93 C 169.88 113.70 168.76 112.81 167.53 112.96 L 166.51 113.08 C 165.28 113.22 164.40 114.34 164.54 115.57 C 164.69 116.81 165.80 117.69 167.04 117.54 Z M 167.95 117.42 L 168.92 117.35 C 170.15 117.26 171.08 116.20 170.99 114.97 C 170.90 113.74 169.84 112.81 168.61 112.90 L 167.63 112.97 C 166.41 113.05 165.48 114.12 165.57 115.35 C 165.65 116.58 166.72 117.50 167.95 117.42 Z M 168.78 117.33 L 169.74 117.33 C 170.96 117.32 171.94 116.32 171.93 115.10 C 171.92 113.88 170.92 112.89 169.70 112.90 L 168.75 112.91 C 167.53 112.92 166.55 113.92 166.56 115.14 C 166.57 116.36 167.56 117.34 168.78 117.33 Z M 169.56 117.30 L 170.66 117.38 C 171.86 117.47 172.91 116.56 173.00 115.36 C 173.09 114.15 172.19 113.10 170.98 113.01 L 169.88 112.93 C 168.67 112.84 167.62 113.75 167.54 114.95 C 167.45 116.16 168.35 117.21 169.56 117.30 Z M 170.42 117.32 L 171.62 117.55 C 172.80 117.77 173.93 116.99 174.15 115.82 C 174.37 114.64 173.59 113.51 172.42 113.29 L 171.22 113.07 C 170.04 112.85 168.91 113.62 168.69 114.80 C 168.47 115.97 169.25 117.10 170.42 117.32 Z M 171.20 117.40 L 172.06 117.75 C 173.15 118.20 174.40 117.68 174.85 116.59 C 175.30 115.50 174.78 114.25 173.69 113.80 L 172.83 113.45 C 171.74 113.00 170.49 113.52 170.04 114.61 C 169.59 115.70 170.11 116.95 171.20 117.40 Z M 171.04 116.80 L 171.29 117.25 C 171.85 118.27 173.14 118.63 174.15 118.07 C 175.17 117.50 175.53 116.22 174.97 115.21 L 174.71 114.75 C 174.15 113.74 172.87 113.37 171.85 113.94 C 170.84 114.50 170.47 115.78 171.04 116.80 Z M 171.52 114.99 L 171.12 115.50 C 170.44 116.39 170.60 117.67 171.49 118.35 C 172.38 119.04 173.66 118.87 174.34 117.98 L 174.74 117.47 C 175.42 116.58 175.26 115.30 174.37 114.62 C 173.48 113.93 172.20 114.10 171.52 114.99 Z M 171.65 115.14 L 170.81 115.71 C 169.92 116.30 169.68 117.50 170.28 118.39 C 170.88 119.28 172.08 119.51 172.97 118.92 L 173.81 118.35 C 174.70 117.75 174.94 116.55 174.34 115.66 C 173.74 114.78 172.54 114.54 171.65 115.14 Z M 171.01 115.70 L 169.90 116.30 C 169.01 116.79 168.68 117.90 169.17 118.79 C 169.65 119.68 170.77 120.01 171.66 119.53 L 172.77 118.92 C 173.66 118.44 173.99 117.32 173.50 116.43 C 173.01 115.54 171.90 115.21 171.01 115.70 Z M 169.96 116.34 L 169.57 116.55 C 168.71 117.00 168.37 118.07 168.82 118.93 C 169.27 119.80 170.34 120.14 171.21 119.69 L 171.60 119.49 C 172.47 119.04 172.80 117.97 172.35 117.10 C 171.90 116.23 170.83 115.89 169.96 116.34 Z"
      fill="black"
      fill-rule="nonzero" /><path d="M 151.17 119.37 L 150.87 120.26 C 150.46 121.52 151.15 122.88 152.41 123.30 C 153.68 123.72 155.04 123.03 155.45 121.76 L 155.75 120.87 C 156.16 119.60 155.47 118.24 154.21 117.83 C 152.94 117.41 151.58 118.10 151.17 119.37 Z M 150.85 120.32 L 150.58 121.25 C 150.20 122.52 150.92 123.87 152.20 124.25 C 153.47 124.63 154.82 123.90 155.20 122.63 L 155.47 121.70 C 155.85 120.42 155.13 119.08 153.85 118.70 C 152.58 118.32 151.24 119.04 150.85 120.32 Z M 150.55 121.36 L 150.30 122.36 C 149.98 123.65 150.77 124.96 152.07 125.28 C 153.36 125.59 154.66 124.80 154.98 123.51 L 155.23 122.51 C 155.55 121.22 154.76 119.91 153.46 119.60 C 152.17 119.28 150.86 120.07 150.55 121.36 Z M 150.27 122.50 L 150.09 123.50 C 149.85 124.81 150.72 126.06 152.03 126.30 C 153.33 126.54 154.59 125.67 154.83 124.37 L 155.01 123.37 C 155.25 122.06 154.38 120.81 153.07 120.57 C 151.77 120.33 150.51 121.20 150.27 122.50 Z M 150.09 123.62 L 149.97 124.52 C 149.80 125.83 150.72 127.03 152.03 127.21 C 153.34 127.38 154.54 126.46 154.71 125.15 L 154.83 124.25 C 155.00 122.94 154.08 121.74 152.77 121.56 C 151.46 121.39 150.26 122.31 150.09 123.62 Z M 149.98 124.60 L 149.89 125.57 C 149.76 126.87 150.71 128.03 152.01 128.16 C 153.31 128.29 154.47 127.34 154.60 126.04 L 154.70 125.07 C 154.83 123.77 153.88 122.61 152.58 122.48 C 151.27 122.35 150.11 123.30 149.98 124.60 Z M 149.90 125.61 L 149.82 126.64 C 149.72 127.93 150.68 129.06 151.97 129.17 C 153.26 129.27 154.40 128.31 154.50 127.02 L 154.58 125.99 C 154.69 124.70 153.73 123.57 152.43 123.46 C 151.14 123.36 150.01 124.32 149.90 125.61 Z M 149.84 126.66 L 149.76 127.74 C 149.67 129.02 150.64 130.13 151.92 130.22 C 153.20 130.32 154.31 129.35 154.40 128.07 L 154.48 126.99 C 154.57 125.71 153.61 124.60 152.33 124.51 C 151.05 124.41 149.93 125.38 149.84 126.66 Z M 149.79 127.74 L 149.71 128.80 C 149.62 130.07 150.58 131.17 151.85 131.26 C 153.12 131.35 154.22 130.40 154.31 129.13 L 154.38 128.07 C 154.47 126.80 153.51 125.70 152.25 125.61 C 150.98 125.52 149.88 126.47 149.79 127.74 Z M 149.74 128.80 L 149.66 129.82 C 149.57 131.08 150.51 132.17 151.77 132.26 C 153.03 132.35 154.12 131.41 154.21 130.15 L 154.28 129.13 C 154.37 127.87 153.43 126.78 152.17 126.69 C 150.92 126.60 149.83 127.54 149.74 128.80 Z M 149.69 129.82 L 149.61 130.85 C 149.52 132.09 150.45 133.17 151.69 133.26 C 152.93 133.36 154.01 132.43 154.11 131.18 L 154.18 130.15 C 154.28 128.91 153.34 127.83 152.10 127.74 C 150.86 127.65 149.78 128.58 149.69 129.82 Z M 149.63 130.85 L 149.56 131.86 C 149.46 133.09 150.38 134.16 151.61 134.26 C 152.84 134.35 153.91 133.43 154.01 132.20 L 154.08 131.18 C 154.18 129.96 153.26 128.89 152.03 128.79 C 150.80 128.70 149.73 129.62 149.63 130.85 Z M 149.58 131.86 L 149.51 132.84 C 149.41 134.06 150.32 135.12 151.54 135.21 C 152.75 135.31 153.81 134.40 153.90 133.18 L 153.98 132.20 C 154.07 130.99 153.17 129.93 151.95 129.83 C 150.74 129.74 149.68 130.65 149.58 131.86 Z M 149.53 132.84 L 149.46 133.78 C 149.36 134.98 150.26 136.03 151.46 136.13 C 152.66 136.22 153.71 135.32 153.81 134.12 L 153.88 133.18 C 153.97 131.98 153.08 130.93 151.87 130.84 C 150.67 130.75 149.62 131.64 149.53 132.84 Z M 149.50 133.78 L 149.41 134.87 C 149.32 136.05 150.20 137.09 151.38 137.18 C 152.56 137.27 153.59 136.39 153.68 135.21 L 153.77 134.12 C 153.86 132.94 152.98 131.91 151.80 131.81 C 150.62 131.72 149.59 132.60 149.50 133.78 Z M 149.46 134.88 L 149.38 135.88 C 149.29 137.04 150.15 138.04 151.30 138.13 C 152.46 138.22 153.46 137.36 153.55 136.21 L 153.63 135.21 C 153.72 134.05 152.86 133.05 151.71 132.96 C 150.56 132.87 149.55 133.73 149.46 134.88 Z M 149.43 135.89 L 149.36 136.85 C 149.27 137.97 150.11 138.95 151.23 139.04 C 152.36 139.13 153.34 138.29 153.43 137.17 L 153.50 136.21 C 153.59 135.08 152.75 134.10 151.63 134.01 C 150.50 133.93 149.52 134.77 149.43 135.89 Z M 149.41 136.85 L 149.34 137.80 C 149.25 138.89 150.07 139.85 151.17 139.93 C 152.26 140.02 153.22 139.20 153.31 138.10 L 153.38 137.16 C 153.46 136.06 152.64 135.11 151.55 135.02 C 150.45 134.94 149.49 135.76 149.41 136.85 Z M 149.38 137.80 L 149.31 138.75 C 149.23 139.82 150.03 140.75 151.10 140.84 C 152.17 140.92 153.11 140.11 153.19 139.04 L 153.26 138.10 C 153.34 137.02 152.54 136.09 151.47 136.01 C 150.40 135.92 149.46 136.73 149.38 137.80 Z M 149.34 138.73 L 149.26 139.70 C 149.17 140.75 149.94 141.68 151.00 141.77 C 152.05 141.86 152.98 141.08 153.07 140.03 L 153.16 139.06 C 153.25 138.01 152.47 137.08 151.41 136.99 C 150.36 136.90 149.43 137.68 149.34 138.73 Z M 149.29 139.65 L 149.18 140.64 C 149.06 141.67 149.80 142.61 150.84 142.73 C 151.87 142.84 152.80 142.10 152.92 141.07 L 153.04 140.08 C 153.15 139.04 152.41 138.11 151.38 137.99 C 150.35 137.87 149.41 138.61 149.29 139.65 Z M 149.22 140.57 L 149.06 141.58 C 148.90 142.60 149.59 143.54 150.60 143.70 C 151.61 143.86 152.56 143.17 152.72 142.16 L 152.88 141.14 C 153.04 140.13 152.35 139.18 151.34 139.03 C 150.33 138.87 149.38 139.56 149.22 140.57 Z M 149.11 141.49 L 148.90 142.49 C 148.69 143.47 149.32 144.44 150.30 144.65 C 151.29 144.86 152.25 144.23 152.46 143.24 L 152.67 142.25 C 152.88 141.27 152.25 140.30 151.27 140.09 C 150.28 139.88 149.32 140.51 149.11 141.49 Z M 148.94 142.40 L 148.69 143.34 C 148.44 144.30 149.01 145.29 149.97 145.54 C 150.93 145.80 151.91 145.23 152.17 144.27 L 152.42 143.33 C 152.67 142.37 152.10 141.38 151.14 141.13 C 150.18 140.87 149.20 141.44 148.94 142.40 Z M 148.73 143.28 L 148.44 144.24 C 148.15 145.18 148.68 146.17 149.62 146.46 C 150.56 146.74 151.55 146.21 151.84 145.27 L 152.13 144.32 C 152.42 143.38 151.89 142.39 150.95 142.10 C 150.01 141.82 149.02 142.34 148.73 143.28 Z M 148.47 144.20 L 148.15 145.16 C 147.85 146.08 148.34 147.08 149.27 147.39 C 150.19 147.69 151.18 147.19 151.49 146.27 L 151.81 145.31 C 152.11 144.39 151.62 143.39 150.69 143.09 C 149.77 142.78 148.78 143.28 148.47 144.20 Z M 148.18 145.14 L 147.84 146.11 C 147.53 147.02 148.00 148.01 148.91 148.32 C 149.82 148.64 150.81 148.16 151.12 147.26 L 151.46 146.29 C 151.78 145.38 151.30 144.39 150.39 144.08 C 149.49 143.76 148.50 144.24 148.18 145.14 Z M 147.86 146.11 L 147.68 146.62 C 147.36 147.52 147.83 148.50 148.73 148.82 C 149.62 149.14 150.60 148.67 150.92 147.77 L 151.10 147.26 C 151.42 146.36 150.95 145.38 150.06 145.06 C 149.16 144.74 148.18 145.21 147.86 146.11 Z"
      fill="black"
      fill-rule="nonzero" /><path d="M 132.62 158.24 L 133.59 158.15 C 135.02 158.01 136.06 156.74 135.92 155.31 C 135.78 153.88 134.51 152.84 133.08 152.98 L 132.11 153.08 C 130.69 153.22 129.64 154.49 129.78 155.91 C 129.93 157.34 131.20 158.38 132.62 158.24 Z M 133.64 158.14 L 134.62 158.03 C 136.05 157.86 137.06 156.57 136.90 155.14 C 136.73 153.72 135.44 152.70 134.01 152.87 L 133.03 152.99 C 131.61 153.16 130.59 154.45 130.76 155.87 C 130.93 157.29 132.22 158.31 133.64 158.14 Z M 134.72 158.01 L 135.73 157.85 C 137.14 157.63 138.11 156.31 137.89 154.89 C 137.67 153.47 136.34 152.51 134.93 152.73 L 133.92 152.88 C 132.50 153.11 131.53 154.43 131.76 155.85 C 131.98 157.27 133.30 158.23 134.72 158.01 Z M 135.85 157.83 L 136.82 157.63 C 138.22 157.34 139.12 155.97 138.83 154.57 C 138.54 153.16 137.17 152.26 135.77 152.55 L 134.80 152.75 C 133.40 153.04 132.50 154.41 132.79 155.82 C 133.08 157.22 134.45 158.12 135.85 157.83 Z M 136.91 157.61 L 137.87 157.37 C 139.26 157.03 140.10 155.63 139.76 154.24 C 139.42 152.85 138.02 152.00 136.63 152.34 L 135.67 152.58 C 134.28 152.92 133.43 154.32 133.78 155.71 C 134.12 157.10 135.52 157.95 136.91 157.61 Z M 137.91 157.36 L 138.89 157.10 C 140.27 156.73 141.09 155.31 140.73 153.93 C 140.36 152.55 138.94 151.73 137.56 152.10 L 136.58 152.36 C 135.20 152.72 134.38 154.14 134.75 155.52 C 135.11 156.90 136.53 157.73 137.91 157.36 Z M 138.90 157.09 L 139.89 156.82 C 141.27 156.45 142.09 155.03 141.72 153.65 C 141.34 152.28 139.92 151.46 138.55 151.83 L 137.55 152.10 C 136.17 152.47 135.36 153.89 135.73 155.27 C 136.10 156.65 137.52 157.46 138.90 157.09 Z M 139.87 156.82 L 140.82 156.58 C 142.20 156.22 143.02 154.81 142.66 153.43 C 142.31 152.05 140.90 151.23 139.52 151.59 L 138.57 151.83 C 137.19 152.19 136.37 153.60 136.73 154.98 C 137.08 156.36 138.49 157.18 139.87 156.82 Z M 140.80 156.57 L 141.75 156.33 C 143.13 155.99 143.96 154.59 143.62 153.21 C 143.27 151.84 141.88 151.00 140.50 151.35 L 139.54 151.59 C 138.17 151.93 137.33 153.33 137.68 154.71 C 138.02 156.08 139.42 156.92 140.80 156.57 Z M 141.74 156.33 L 142.71 156.09 C 144.09 155.75 144.93 154.36 144.59 152.99 C 144.25 151.62 142.86 150.78 141.49 151.11 L 140.51 151.35 C 139.14 151.69 138.30 153.08 138.64 154.45 C 138.98 155.83 140.36 156.66 141.74 156.33 Z M 142.71 156.08 L 143.70 155.84 C 145.07 155.50 145.91 154.12 145.58 152.75 C 145.24 151.38 143.86 150.54 142.49 150.88 L 141.49 151.12 C 140.13 151.46 139.29 152.84 139.62 154.21 C 139.96 155.58 141.34 156.41 142.71 156.08 Z M 143.71 155.82 L 144.67 155.58 C 146.04 155.25 146.87 153.87 146.53 152.51 C 146.20 151.15 144.82 150.32 143.46 150.65 L 142.49 150.89 C 141.13 151.23 140.30 152.60 140.63 153.96 C 140.97 155.32 142.34 156.16 143.71 155.82 Z M 144.67 155.57 L 145.65 155.32 C 147.00 154.99 147.83 153.62 147.49 152.27 C 147.16 150.92 145.79 150.09 144.44 150.43 L 143.46 150.67 C 142.11 151.00 141.29 152.37 141.62 153.72 C 141.95 155.08 143.32 155.90 144.67 155.57 Z M 145.64 155.31 L 146.62 155.06 C 147.97 154.73 148.78 153.38 148.45 152.03 C 148.12 150.69 146.76 149.87 145.42 150.20 L 144.44 150.45 C 143.10 150.78 142.28 152.14 142.61 153.48 C 142.95 154.82 144.30 155.64 145.64 155.31 Z M 146.62 155.05 L 147.59 154.81 C 148.92 154.48 149.73 153.13 149.41 151.80 C 149.08 150.47 147.73 149.65 146.40 149.98 L 145.43 150.22 C 144.09 150.55 143.28 151.90 143.61 153.23 C 143.94 154.56 145.29 155.38 146.62 155.05 Z M 147.58 154.79 L 148.53 154.56 C 149.85 154.24 150.66 152.90 150.34 151.58 C 150.01 150.25 148.68 149.44 147.35 149.77 L 146.41 150.00 C 145.08 150.32 144.27 151.66 144.60 152.98 C 144.92 154.31 146.26 155.12 147.58 154.79 Z M 148.51 154.55 L 149.45 154.32 C 150.76 154.01 151.57 152.68 151.26 151.37 C 150.94 150.05 149.62 149.24 148.30 149.56 L 147.37 149.78 C 146.05 150.10 145.24 151.42 145.56 152.73 C 145.87 154.05 147.19 154.86 148.51 154.55 Z M 149.42 154.31 L 150.37 154.09 C 151.68 153.79 152.50 152.49 152.20 151.18 C 151.90 149.87 150.60 149.05 149.29 149.35 L 148.33 149.57 C 147.02 149.87 146.20 151.17 146.50 152.48 C 146.80 153.79 148.11 154.61 149.42 154.31 Z M 150.34 154.08 L 151.34 153.87 C 152.64 153.59 153.47 152.30 153.19 151.00 C 152.91 149.69 151.62 148.86 150.32 149.14 L 149.32 149.36 C 148.02 149.64 147.19 150.93 147.47 152.23 C 147.75 153.53 149.03 154.36 150.34 154.08 Z M 151.30 153.86 L 152.33 153.65 C 153.63 153.39 154.48 152.13 154.21 150.83 C 153.95 149.53 152.69 148.68 151.39 148.94 L 150.36 149.15 C 149.06 149.41 148.21 150.68 148.47 151.98 C 148.73 153.28 150.00 154.12 151.30 153.86 Z M 152.30 153.65 L 153.30 153.47 C 154.60 153.23 155.46 151.98 155.21 150.68 C 154.97 149.38 153.72 148.52 152.42 148.76 L 151.42 148.94 C 150.12 149.18 149.26 150.43 149.50 151.74 C 149.75 153.04 151.00 153.90 152.30 153.65 Z M 153.26 153.47 L 154.29 153.30 C 155.59 153.08 156.47 151.84 156.24 150.53 C 156.02 149.23 154.78 148.35 153.48 148.58 L 152.45 148.75 C 151.15 148.97 150.27 150.21 150.50 151.52 C 150.72 152.82 151.96 153.70 153.26 153.47 Z M 154.25 153.31 L 155.26 153.15 C 156.57 152.94 157.47 151.72 157.26 150.41 C 157.06 149.11 155.84 148.21 154.53 148.41 L 153.52 148.57 C 152.21 148.77 151.31 150.00 151.52 151.31 C 151.72 152.61 152.94 153.51 154.25 153.31 Z M 155.22 153.15 L 156.19 153.02 C 157.50 152.84 158.42 151.64 158.24 150.33 C 158.06 149.01 156.85 148.10 155.54 148.27 L 154.57 148.41 C 153.26 148.58 152.34 149.79 152.52 151.10 C 152.70 152.41 153.91 153.33 155.22 153.15 Z M 156.12 153.04 L 157.22 152.92 C 158.53 152.78 159.49 151.60 159.35 150.28 C 159.21 148.96 158.03 148.00 156.71 148.14 L 155.61 148.26 C 154.29 148.40 153.34 149.58 153.48 150.90 C 153.62 152.22 154.80 153.18 156.12 153.04 Z M 157.02 152.96 L 158.21 152.93 C 159.55 152.89 160.61 151.78 160.57 150.44 C 160.54 149.10 159.43 148.04 158.09 148.08 L 156.90 148.11 C 155.56 148.14 154.50 149.25 154.54 150.59 C 154.57 151.93 155.68 152.99 157.02 152.96 Z M 157.60 152.90 L 158.42 153.08 C 159.74 153.39 161.06 152.56 161.36 151.23 C 161.66 149.91 160.83 148.59 159.51 148.29 L 158.70 148.10 C 157.37 147.80 156.05 148.63 155.75 149.96 C 155.45 151.28 156.28 152.60 157.60 152.90 Z M 156.97 152.16 L 157.35 152.67 C 158.16 153.77 159.72 154.00 160.82 153.19 C 161.92 152.37 162.15 150.82 161.33 149.72 L 160.95 149.21 C 160.14 148.11 158.59 147.88 157.49 148.69 C 156.39 149.51 156.16 151.06 156.97 152.16 Z M 156.88 150.91 L 156.78 151.79 C 156.62 153.15 157.60 154.37 158.95 154.53 C 160.31 154.69 161.54 153.72 161.70 152.36 L 161.80 151.48 C 161.96 150.13 160.98 148.90 159.63 148.74 C 158.27 148.58 157.04 149.55 156.88 150.91 Z M 156.99 151.10 L 156.53 152.17 C 155.99 153.42 156.56 154.86 157.81 155.39 C 159.05 155.93 160.49 155.36 161.03 154.12 L 161.49 153.04 C 162.02 151.80 161.45 150.36 160.21 149.82 C 158.97 149.29 157.52 149.86 156.99 151.10 Z M 156.69 151.94 L 156.22 152.75 C 155.55 153.91 155.95 155.38 157.10 156.05 C 158.26 156.72 159.73 156.32 160.40 155.16 L 160.87 154.35 C 161.53 153.19 161.14 151.72 159.98 151.05 C 158.83 150.39 157.35 150.79 156.69 151.94 Z M 156.34 152.67 L 155.83 153.44 C 155.12 154.53 155.42 155.99 156.51 156.70 C 157.60 157.42 159.06 157.11 159.77 156.02 L 160.28 155.25 C 160.99 154.16 160.69 152.70 159.60 151.99 C 158.51 151.27 157.05 151.58 156.34 152.67 Z M 155.92 153.41 L 155.34 154.24 C 154.61 155.28 154.86 156.71 155.89 157.44 C 156.93 158.17 158.37 157.92 159.10 156.89 L 159.68 156.05 C 160.41 155.02 160.16 153.58 159.12 152.85 C 158.09 152.12 156.65 152.37 155.92 153.41 Z M 155.40 154.25 L 154.73 155.17 C 154.01 156.18 154.23 157.58 155.23 158.30 C 156.24 159.03 157.64 158.80 158.36 157.80 L 159.03 156.88 C 159.76 155.87 159.53 154.47 158.53 153.75 C 157.53 153.02 156.13 153.25 155.40 154.25 Z M 154.77 155.20 L 154.19 156.00 C 153.48 156.98 153.70 158.35 154.68 159.07 C 155.66 159.78 157.03 159.56 157.74 158.58 L 158.32 157.78 C 159.04 156.79 158.82 155.42 157.84 154.71 C 156.85 154.00 155.48 154.22 154.77 155.20 Z M 154.21 156.02 L 153.62 156.84 C 152.92 157.81 153.14 159.16 154.11 159.86 C 155.07 160.56 156.43 160.35 157.13 159.38 L 157.72 158.56 C 158.42 157.59 158.20 156.23 157.24 155.53 C 156.27 154.83 154.91 155.05 154.21 156.02 Z M 153.64 156.86 L 153.03 157.70 C 152.34 158.65 152.56 159.99 153.52 160.68 C 154.47 161.37 155.81 161.16 156.50 160.20 L 157.11 159.36 C 157.80 158.40 157.58 157.07 156.63 156.37 C 155.67 155.68 154.33 155.90 153.64 156.86 Z M 153.06 157.71 L 152.46 158.55 C 151.77 159.49 151.99 160.81 152.93 161.49 C 153.87 162.17 155.19 161.96 155.88 161.02 L 156.48 160.18 C 157.16 159.24 156.95 157.92 156.00 157.24 C 155.06 156.56 153.74 156.77 153.06 157.71 Z M 152.48 158.56 L 151.90 159.36 C 151.23 160.29 151.44 161.59 152.37 162.27 C 153.30 162.94 154.60 162.73 155.27 161.80 L 155.85 161.00 C 156.53 160.07 156.32 158.77 155.39 158.09 C 154.45 157.42 153.15 157.63 152.48 158.56 Z M 151.93 159.37 L 151.29 160.24 C 150.63 161.16 150.83 162.44 151.75 163.11 C 152.67 163.78 153.95 163.57 154.62 162.66 L 155.25 161.79 C 155.92 160.87 155.71 159.58 154.80 158.92 C 153.88 158.25 152.59 158.45 151.93 159.37 Z M 151.32 160.25 L 150.70 161.11 C 150.04 162.01 150.23 163.28 151.14 163.94 C 152.04 164.60 153.31 164.40 153.97 163.50 L 154.59 162.64 C 155.25 161.74 155.05 160.47 154.15 159.81 C 153.25 159.15 151.98 159.35 151.32 160.25 Z M 150.72 161.12 L 150.15 161.90 C 149.50 162.79 149.69 164.04 150.58 164.69 C 151.47 165.35 152.72 165.15 153.37 164.27 L 153.94 163.48 C 154.59 162.60 154.40 161.35 153.51 160.69 C 152.62 160.04 151.38 160.23 150.72 161.12 Z M 150.18 161.92 L 149.63 162.66 C 148.99 163.53 149.17 164.76 150.05 165.41 C 150.92 166.05 152.16 165.86 152.80 164.99 L 153.34 164.25 C 153.99 163.38 153.80 162.14 152.93 161.50 C 152.05 160.86 150.82 161.04 150.18 161.92 Z M 149.65 162.67 L 149.12 163.39 C 148.48 164.26 148.66 165.47 149.53 166.11 C 150.39 166.75 151.61 166.56 152.24 165.70 L 152.78 164.98 C 153.42 164.11 153.23 162.90 152.37 162.26 C 151.51 161.62 150.29 161.81 149.65 162.67 Z M 149.14 163.40 L 148.58 164.13 C 147.95 164.99 148.13 166.20 148.98 166.83 C 149.83 167.47 151.04 167.29 151.68 166.44 L 152.23 165.70 C 152.86 164.84 152.69 163.64 151.83 163.00 C 150.98 162.37 149.77 162.54 149.14 163.40 Z M 148.61 164.12 L 148.01 164.90 C 147.37 165.75 147.53 166.95 148.37 167.59 C 149.21 168.23 150.42 168.07 151.06 167.23 L 151.65 166.45 C 152.30 165.61 152.13 164.40 151.29 163.76 C 150.45 163.12 149.25 163.28 148.61 164.12 Z M 148.04 164.89 L 147.37 165.73 C 146.72 166.56 146.86 167.76 147.69 168.41 C 148.51 169.06 149.71 168.92 150.36 168.09 L 151.03 167.25 C 151.68 166.42 151.54 165.22 150.71 164.57 C 149.89 163.92 148.69 164.06 148.04 164.89 Z M 147.40 165.71 L 146.73 166.53 C 146.07 167.34 146.19 168.53 147.00 169.19 C 147.82 169.86 149.01 169.74 149.67 168.92 L 150.34 168.11 C 151.00 167.30 150.88 166.11 150.07 165.44 C 149.26 164.78 148.06 164.90 147.40 165.71 Z M 146.75 166.51 L 146.11 167.27 C 145.44 168.07 145.54 169.27 146.34 169.94 C 147.14 170.62 148.34 170.51 149.01 169.71 L 149.66 168.94 C 150.33 168.14 150.22 166.95 149.42 166.27 C 148.62 165.60 147.43 165.71 146.75 166.51 Z M 146.12 167.25 L 145.45 168.04 C 144.76 168.83 144.85 170.03 145.65 170.71 C 146.44 171.40 147.64 171.31 148.32 170.51 L 149.00 169.73 C 149.68 168.94 149.59 167.74 148.80 167.05 C 148.01 166.37 146.81 166.46 146.12 167.25 Z M 145.46 168.02 L 144.78 168.79 C 144.08 169.58 144.16 170.78 144.94 171.47 C 145.73 172.17 146.93 172.09 147.62 171.31 L 148.31 170.53 C 149.00 169.75 148.93 168.55 148.14 167.85 C 147.36 167.16 146.16 167.23 145.46 168.02 Z M 144.79 168.77 L 144.12 169.51 C 143.41 170.28 143.47 171.49 144.25 172.19 C 145.02 172.90 146.22 172.85 146.93 172.07 L 147.61 171.33 C 148.31 170.56 148.26 169.35 147.48 168.64 C 146.71 167.94 145.50 167.99 144.79 168.77 Z M 144.15 169.48 L 143.44 170.22 C 142.72 170.98 142.75 172.19 143.51 172.91 C 144.28 173.63 145.48 173.60 146.21 172.84 L 146.91 172.10 C 147.63 171.34 147.60 170.13 146.84 169.41 C 146.08 168.68 144.87 168.71 144.15 169.48 Z M 143.48 170.17 L 142.69 170.96 C 141.94 171.70 141.94 172.91 142.68 173.66 C 143.42 174.41 144.63 174.41 145.38 173.67 L 146.17 172.88 C 146.92 172.14 146.92 170.93 146.18 170.19 C 145.44 169.44 144.23 169.43 143.48 170.17 Z M 142.74 170.91 L 142.01 171.58 C 141.23 172.29 141.18 173.50 141.90 174.28 C 142.61 175.06 143.82 175.11 144.60 174.39 L 145.33 173.72 C 146.11 173.00 146.16 171.80 145.44 171.02 C 144.73 170.24 143.52 170.19 142.74 170.91 Z M 142.06 171.53 L 141.37 172.12 C 140.56 172.80 140.47 174.01 141.16 174.82 C 141.84 175.62 143.05 175.72 143.86 175.03 L 144.55 174.44 C 145.35 173.76 145.45 172.55 144.76 171.74 C 144.08 170.94 142.87 170.84 142.06 171.53 Z M 141.41 172.07 L 140.68 172.65 C 139.85 173.31 139.71 174.52 140.38 175.36 C 141.04 176.19 142.25 176.32 143.08 175.66 L 143.81 175.08 C 144.64 174.42 144.78 173.21 144.12 172.38 C 143.46 171.54 142.25 171.41 141.41 172.07 Z M 140.72 172.60 L 139.91 173.20 C 139.05 173.84 138.88 175.06 139.52 175.92 C 140.16 176.78 141.37 176.96 142.23 176.32 L 143.04 175.71 C 143.90 175.07 144.08 173.86 143.44 173.00 C 142.80 172.14 141.58 171.96 140.72 172.60 Z M 139.96 173.15 L 139.14 173.71 C 138.25 174.33 138.03 175.55 138.64 176.44 C 139.26 177.33 140.48 177.55 141.37 176.94 L 142.19 176.37 C 143.08 175.76 143.30 174.53 142.68 173.64 C 142.07 172.75 140.85 172.53 139.96 173.15 Z M 139.18 173.66 L 138.36 174.19 C 137.44 174.78 137.17 176.01 137.77 176.93 C 138.36 177.85 139.59 178.12 140.51 177.52 L 141.33 176.99 C 142.25 176.40 142.52 175.17 141.92 174.25 C 141.33 173.33 140.10 173.07 139.18 173.66 Z M 138.41 174.12 L 137.58 174.60 C 136.63 175.17 136.31 176.41 136.87 177.37 C 137.44 178.33 138.68 178.64 139.63 178.08 L 140.46 177.59 C 141.42 177.03 141.74 175.79 141.17 174.83 C 140.60 173.87 139.37 173.55 138.41 174.12 Z M 137.66 174.51 L 136.79 174.97 C 135.78 175.49 135.38 176.73 135.90 177.74 C 136.43 178.75 137.67 179.15 138.68 178.62 L 139.56 178.17 C 140.57 177.65 140.96 176.40 140.44 175.39 C 139.91 174.38 138.67 173.99 137.66 174.51 Z M 136.90 174.87 L 135.93 175.28 C 134.87 175.75 134.38 176.98 134.84 178.05 C 135.31 179.11 136.54 179.60 137.61 179.14 L 138.57 178.72 C 139.63 178.26 140.12 177.02 139.66 175.96 C 139.20 174.89 137.96 174.41 136.90 174.87 Z M 136.06 175.18 L 134.86 175.59 C 133.74 175.99 133.14 177.21 133.53 178.34 C 133.92 179.46 135.15 180.06 136.28 179.67 L 137.48 179.25 C 138.60 178.86 139.20 177.63 138.81 176.51 C 138.42 175.38 137.19 174.79 136.06 175.18 Z M 134.99 175.49 L 133.89 175.78 C 132.70 176.10 132.00 177.32 132.32 178.51 C 132.64 179.69 133.86 180.39 135.05 180.07 L 136.15 179.78 C 137.33 179.46 138.03 178.24 137.71 177.05 C 137.39 175.87 136.17 175.17 134.99 175.49 Z M 134.20 175.65 L 133.59 175.72 C 132.34 175.87 131.44 177.01 131.59 178.27 C 131.73 179.52 132.87 180.42 134.13 180.27 L 134.74 180.20 C 135.99 180.05 136.89 178.92 136.74 177.66 C 136.60 176.40 135.46 175.50 134.20 175.65 Z M 135.58 179.60 L 135.85 179.30 C 136.73 178.36 136.68 176.87 135.73 175.99 C 134.79 175.11 133.30 175.16 132.42 176.11 L 132.15 176.40 C 131.26 177.35 131.32 178.83 132.26 179.71 C 133.21 180.60 134.69 180.54 135.58 179.60 Z M 135.25 179.80 L 136.33 179.23 C 137.49 178.61 137.93 177.17 137.31 176.01 C 136.70 174.85 135.26 174.41 134.10 175.03 L 133.02 175.60 C 131.86 176.22 131.42 177.66 132.04 178.82 C 132.65 179.98 134.09 180.42 135.25 179.80 Z M 136.25 179.30 L 137.20 178.85 C 138.40 178.28 138.91 176.84 138.33 175.64 C 137.76 174.44 136.33 173.93 135.13 174.51 L 134.18 174.96 C 132.98 175.53 132.47 176.97 133.04 178.17 C 133.61 179.36 135.05 179.87 136.25 179.30 Z M 137.16 178.88 L 137.93 178.53 C 139.14 177.98 139.68 176.55 139.13 175.33 C 138.58 174.11 137.15 173.57 135.93 174.13 L 135.16 174.47 C 133.94 175.03 133.41 176.46 133.96 177.68 C 134.51 178.89 135.94 179.43 137.16 178.88 Z M 137.90 178.56 L 138.76 178.18 C 139.99 177.65 140.56 176.21 140.02 174.98 C 139.48 173.75 138.05 173.19 136.82 173.73 L 135.96 174.10 C 134.73 174.64 134.17 176.07 134.70 177.30 C 135.24 178.53 136.67 179.09 137.90 178.56 Z M 138.74 178.20 L 139.74 177.78 C 140.98 177.26 141.57 175.83 141.04 174.58 C 140.52 173.34 139.09 172.76 137.85 173.28 L 136.85 173.71 C 135.60 174.23 135.02 175.66 135.55 176.90 C 136.07 178.14 137.50 178.72 138.74 178.20 Z M 139.73 177.79 L 140.89 177.32 C 142.14 176.80 142.73 175.37 142.22 174.12 C 141.71 172.87 140.27 172.28 139.02 172.79 L 137.87 173.27 C 136.61 173.78 136.02 175.21 136.53 176.46 C 137.05 177.71 138.48 178.31 139.73 177.79 Z M 140.88 177.33 L 141.76 176.97 C 143.01 176.46 143.62 175.03 143.11 173.78 C 142.60 172.52 141.17 171.91 139.92 172.42 L 139.03 172.78 C 137.78 173.29 137.17 174.72 137.68 175.98 C 138.19 177.23 139.62 177.84 140.88 177.33 Z M 141.75 176.97 L 142.70 176.60 C 143.96 176.09 144.57 174.66 144.06 173.40 C 143.56 172.14 142.13 171.53 140.87 172.04 L 139.92 172.42 C 138.67 172.92 138.05 174.35 138.56 175.61 C 139.06 176.87 140.49 177.48 141.75 176.97 Z M 142.69 176.60 L 143.67 176.21 C 144.93 175.71 145.55 174.28 145.05 173.02 C 144.55 171.76 143.12 171.14 141.86 171.64 L 140.88 172.03 C 139.61 172.54 139.00 173.96 139.50 175.23 C 140.00 176.49 141.43 177.10 142.69 176.60 Z M 143.67 176.21 L 144.65 175.82 C 145.92 175.33 146.54 173.90 146.04 172.64 C 145.54 171.37 144.11 170.75 142.85 171.25 L 141.86 171.64 C 140.60 172.14 139.98 173.57 140.48 174.83 C 140.98 176.09 142.40 176.71 143.67 176.21 Z M 144.65 175.83 L 145.61 175.45 C 146.88 174.96 147.50 173.53 147.01 172.27 C 146.52 171.00 145.09 170.38 143.82 170.87 L 142.86 171.25 C 141.59 171.74 140.97 173.17 141.46 174.43 C 141.95 175.70 143.38 176.32 144.65 175.83 Z M 145.60 175.46 L 146.52 175.11 C 147.78 174.62 148.42 173.19 147.93 171.93 C 147.44 170.66 146.02 170.02 144.75 170.51 L 143.83 170.86 C 142.56 171.35 141.93 172.78 142.42 174.05 C 142.91 175.31 144.33 175.95 145.60 175.46 Z M 146.50 175.11 L 147.37 174.79 C 148.64 174.31 149.28 172.88 148.80 171.61 C 148.32 170.34 146.90 169.70 145.62 170.18 L 144.76 170.51 C 143.49 170.99 142.85 172.41 143.33 173.68 C 143.81 174.95 145.23 175.59 146.50 175.11 Z M 147.34 174.79 L 148.53 174.36 C 149.81 173.89 150.46 172.48 149.99 171.20 C 149.52 169.92 148.11 169.27 146.83 169.74 L 145.65 170.17 C 144.37 170.64 143.72 172.05 144.18 173.33 C 144.65 174.61 146.07 175.26 147.34 174.79 Z M 148.50 174.36 L 149.47 174.02 C 150.75 173.57 151.42 172.17 150.97 170.89 C 150.51 169.61 149.11 168.94 147.83 169.39 L 146.86 169.73 C 145.58 170.18 144.91 171.59 145.36 172.87 C 145.82 174.14 147.22 174.82 148.50 174.36 Z M 149.45 174.02 L 150.28 173.74 C 151.56 173.30 152.24 171.90 151.80 170.62 C 151.36 169.34 149.96 168.66 148.68 169.10 L 147.85 169.39 C 146.57 169.83 145.89 171.23 146.33 172.51 C 146.77 173.79 148.17 174.47 149.45 174.02 Z M 150.29 173.73 L 151.06 173.46 C 152.34 173.01 153.01 171.62 152.57 170.34 C 152.12 169.07 150.73 168.39 149.45 168.84 L 148.67 169.11 C 147.40 169.55 146.72 170.95 147.17 172.23 C 147.62 173.50 149.01 174.18 150.29 173.73 Z M 151.09 173.44 L 152.01 173.10 C 153.27 172.64 153.92 171.25 153.46 169.98 C 153.00 168.72 151.60 168.07 150.34 168.53 L 149.42 168.86 C 148.16 169.32 147.51 170.72 147.97 171.98 C 148.43 173.25 149.83 173.90 151.09 173.44 Z M 152.02 173.08 L 152.97 172.73 C 154.22 172.26 154.86 170.86 154.39 169.61 C 153.92 168.36 152.53 167.73 151.28 168.19 L 150.33 168.55 C 149.07 169.02 148.44 170.41 148.91 171.66 C 149.37 172.91 150.77 173.55 152.02 173.08 Z M 152.96 172.71 L 153.91 172.36 C 155.15 171.90 155.78 170.51 155.32 169.27 C 154.86 168.03 153.47 167.40 152.23 167.86 L 151.28 168.21 C 150.04 168.67 149.41 170.05 149.87 171.30 C 150.34 172.54 151.72 173.17 152.96 172.71 Z M 153.87 172.36 L 154.96 171.98 C 156.20 171.53 156.85 170.16 156.40 168.92 C 155.96 167.67 154.59 167.02 153.35 167.47 L 152.26 167.85 C 151.02 168.30 150.37 169.67 150.81 170.91 C 151.26 172.16 152.63 172.81 153.87 172.36 Z M 154.83 172.04 L 155.97 171.71 C 157.25 171.34 157.99 169.99 157.62 168.71 C 157.25 167.43 155.90 166.70 154.62 167.07 L 153.48 167.40 C 152.19 167.77 151.46 169.12 151.83 170.40 C 152.20 171.68 153.54 172.41 154.83 172.04 Z M 155.04 171.83 L 155.56 171.89 C 156.91 172.03 158.12 171.06 158.27 169.71 C 158.41 168.35 157.43 167.14 156.08 167.00 L 155.56 166.94 C 154.21 166.80 153.00 167.78 152.85 169.13 C 152.71 170.48 153.69 171.69 155.04 171.83 Z M 153.57 168.31 L 153.30 168.85 C 152.67 170.09 153.17 171.61 154.41 172.24 C 155.65 172.87 157.17 172.37 157.80 171.13 L 158.07 170.58 C 158.70 169.34 158.20 167.82 156.96 167.19 C 155.72 166.57 154.20 167.07 153.57 168.31 Z M 153.53 168.35 L 152.78 169.28 C 151.88 170.40 152.05 172.03 153.16 172.93 C 154.28 173.84 155.91 173.66 156.81 172.55 L 157.56 171.62 C 158.47 170.51 158.30 168.87 157.18 167.97 C 156.07 167.07 154.43 167.24 153.53 168.35 Z M 152.68 169.32 L 151.99 170.23 C 151.11 171.40 151.34 173.06 152.51 173.94 C 153.67 174.83 155.34 174.60 156.22 173.43 L 156.91 172.51 C 157.79 171.35 157.56 169.68 156.39 168.80 C 155.23 167.92 153.56 168.15 152.68 169.32 Z M 151.86 170.39 L 151.33 171.21 C 150.54 172.45 150.90 174.10 152.14 174.90 C 153.38 175.70 155.03 175.34 155.82 174.09 L 156.35 173.27 C 157.15 172.03 156.79 170.38 155.55 169.58 C 154.31 168.79 152.66 169.15 151.86 170.39 Z M 151.22 171.40 L 150.75 172.29 C 150.05 173.60 150.55 175.21 151.85 175.90 C 153.15 176.60 154.77 176.10 155.46 174.80 L 155.93 173.91 C 156.63 172.60 156.13 170.99 154.83 170.30 C 153.52 169.60 151.91 170.10 151.22 171.40 Z M 150.63 172.52 L 150.24 173.47 C 149.68 174.84 150.32 176.40 151.69 176.97 C 153.05 177.53 154.61 176.88 155.18 175.52 L 155.57 174.57 C 156.14 173.20 155.49 171.64 154.13 171.08 C 152.76 170.51 151.20 171.16 150.63 172.52 Z M 150.15 173.74 L 149.86 174.70 C 149.44 176.11 150.25 177.60 151.66 178.02 C 153.08 178.44 154.57 177.63 154.99 176.22 L 155.27 175.26 C 155.69 173.84 154.89 172.35 153.47 171.93 C 152.05 171.51 150.57 172.32 150.15 173.74 Z M 149.80 174.93 L 149.61 175.91 C 149.31 177.36 150.25 178.77 151.70 179.06 C 153.14 179.35 154.55 178.42 154.85 176.97 L 155.04 175.99 C 155.34 174.54 154.40 173.13 152.95 172.84 C 151.51 172.55 150.10 173.48 149.80 174.93 Z M 149.58 176.09 L 149.44 177.09 C 149.25 178.55 150.28 179.89 151.74 180.09 C 153.20 180.28 154.55 179.26 154.74 177.79 L 154.87 176.80 C 155.07 175.33 154.04 173.99 152.58 173.79 C 151.12 173.60 149.77 174.63 149.58 176.09 Z M 149.43 177.22 L 149.35 178.21 C 149.22 179.68 150.31 180.97 151.78 181.10 C 153.25 181.22 154.55 180.13 154.67 178.66 L 154.75 177.67 C 154.88 176.19 153.79 174.90 152.32 174.78 C 150.85 174.65 149.55 175.75 149.43 177.22 Z M 149.35 178.30 L 149.30 179.27 C 149.23 180.74 150.35 181.99 151.82 182.06 C 153.29 182.14 154.54 181.01 154.61 179.55 L 154.67 178.57 C 154.74 177.10 153.61 175.85 152.15 175.78 C 150.68 175.70 149.43 176.83 149.35 178.30 Z M 149.33 179.33 L 149.30 180.30 C 149.25 181.75 150.40 182.96 151.85 183.01 C 153.30 183.05 154.52 181.91 154.56 180.46 L 154.59 179.49 C 154.63 178.03 153.49 176.82 152.04 176.77 C 150.58 176.73 149.37 177.87 149.33 179.33 Z M 149.32 180.33 L 149.31 181.32 C 149.28 182.76 150.43 183.94 151.87 183.97 C 153.30 184.00 154.49 182.85 154.52 181.41 L 154.53 180.42 C 154.56 178.98 153.41 177.80 151.97 177.77 C 150.54 177.75 149.35 178.89 149.32 180.33 Z M 149.34 181.33 L 149.32 182.37 C 149.30 183.79 150.44 184.96 151.86 184.98 C 153.28 185.00 154.45 183.87 154.47 182.44 L 154.49 181.40 C 154.51 179.98 153.37 178.81 151.95 178.79 C 150.53 178.77 149.36 179.91 149.34 181.33 Z M 149.35 182.36 L 149.33 183.37 C 149.31 184.77 150.42 185.93 151.83 185.96 C 153.23 185.98 154.39 184.87 154.42 183.46 L 154.44 182.45 C 154.47 181.05 153.35 179.89 151.94 179.86 C 150.54 179.84 149.38 180.95 149.35 182.36 Z M 149.37 183.36 L 149.34 184.37 C 149.31 185.76 150.41 186.91 151.80 186.94 C 153.18 186.97 154.33 185.87 154.36 184.49 L 154.39 183.47 C 154.42 182.09 153.32 180.94 151.94 180.91 C 150.55 180.87 149.40 181.97 149.37 183.36 Z M 149.38 184.37 L 149.35 185.40 C 149.32 186.76 150.40 187.90 151.77 187.93 C 153.13 187.96 154.27 186.88 154.30 185.52 L 154.33 184.49 C 154.36 183.13 153.28 181.99 151.91 181.96 C 150.55 181.92 149.41 183.00 149.38 184.37 Z M 149.39 185.40 L 149.37 186.40 C 149.33 187.75 150.40 188.87 151.75 188.90 C 153.09 188.93 154.21 187.87 154.24 186.52 L 154.27 185.51 C 154.30 184.17 153.23 183.05 151.89 183.02 C 150.54 182.99 149.42 184.05 149.39 185.40 Z M 149.40 186.41 L 149.38 187.41 C 149.36 188.74 150.41 189.83 151.74 189.86 C 153.06 189.88 154.16 188.83 154.19 187.50 L 154.21 186.51 C 154.23 185.18 153.18 184.09 151.85 184.06 C 150.53 184.03 149.43 185.09 149.40 186.41 Z M 149.44 187.43 L 149.42 188.51 C 149.41 189.81 150.44 190.88 151.74 190.89 C 153.04 190.91 154.10 189.87 154.12 188.58 L 154.13 187.49 C 154.15 186.19 153.11 185.13 151.82 185.11 C 150.52 185.09 149.45 186.13 149.44 187.43 Z M 149.49 188.53 L 149.48 189.52 C 149.47 190.79 150.49 191.81 151.75 191.82 C 153.01 191.83 154.04 190.81 154.05 189.55 L 154.05 188.56 C 154.06 187.30 153.05 186.27 151.79 186.26 C 150.52 186.25 149.50 187.27 149.49 188.53 Z M 149.55 189.54 L 149.55 190.46 C 149.55 191.69 150.54 192.68 151.76 192.68 C 152.98 192.69 153.98 191.70 153.98 190.47 L 153.98 189.54 C 153.98 188.32 152.99 187.32 151.77 187.32 C 150.54 187.32 149.55 188.31 149.55 189.54 Z M 149.61 190.47 L 149.61 191.43 C 149.61 192.62 150.57 193.58 151.76 193.58 C 152.95 193.58 153.92 192.62 153.92 191.43 L 153.92 190.47 C 153.92 189.28 152.95 188.31 151.76 188.31 C 150.57 188.31 149.61 189.28 149.61 190.47 Z M 149.67 191.43 L 149.67 192.43 C 149.67 193.58 150.61 194.52 151.76 194.52 C 152.92 194.52 153.86 193.58 153.86 192.43 L 153.86 191.43 C 153.86 190.27 152.92 189.34 151.76 189.34 C 150.61 189.34 149.67 190.27 149.67 191.43 Z M 149.73 192.43 L 149.73 193.42 C 149.73 194.55 150.64 195.46 151.76 195.46 C 152.89 195.46 153.80 194.55 153.80 193.42 L 153.80 192.43 C 153.80 191.30 152.89 190.39 151.76 190.39 C 150.64 190.39 149.73 191.30 149.73 192.43 Z M 149.78 193.42 L 149.78 194.42 C 149.78 195.51 150.67 196.40 151.76 196.40 C 152.86 196.40 153.74 195.51 153.74 194.42 L 153.74 193.42 C 153.74 192.33 152.86 191.44 151.76 191.44 C 150.67 191.44 149.78 192.33 149.78 193.42 Z M 149.83 194.42 L 149.83 195.41 C 149.83 196.47 150.70 197.34 151.76 197.34 C 152.83 197.34 153.69 196.47 153.69 195.41 L 153.69 194.42 C 153.69 193.35 152.83 192.49 151.76 192.49 C 150.70 192.49 149.83 193.35 149.83 194.42 Z M 149.88 195.41 L 149.88 196.41 C 149.88 197.45 150.72 198.30 151.76 198.30 C 152.80 198.30 153.65 197.45 153.65 196.41 L 153.65 195.41 C 153.65 194.37 152.80 193.52 151.76 193.52 C 150.72 193.52 149.88 194.37 149.88 195.41 Z M 149.93 196.41 L 149.93 197.36 C 149.93 198.37 150.75 199.20 151.76 199.20 C 152.78 199.20 153.60 198.37 153.60 197.36 L 153.60 196.41 C 153.60 195.40 152.78 194.57 151.76 194.57 C 150.75 194.57 149.93 195.40 149.93 196.41 Z"
      fill="black"
      fill-rule="nonzero" /><path d="M 128.22 131.08 L 127.95 132.09 C 127.64 133.27 128.34 134.49 129.53 134.80 C 130.71 135.12 131.93 134.42 132.24 133.23 L 132.51 132.23 C 132.83 131.05 132.12 129.83 130.94 129.51 C 129.75 129.20 128.54 129.90 128.22 131.08 Z M 127.92 132.11 L 127.67 133.10 C 127.37 134.30 128.09 135.53 129.30 135.83 C 130.50 136.13 131.72 135.41 132.02 134.20 L 132.28 133.21 C 132.58 132.01 131.85 130.79 130.65 130.48 C 129.45 130.18 128.23 130.91 127.92 132.11 Z M 127.63 133.16 L 127.41 134.12 C 127.14 135.35 127.91 136.56 129.13 136.84 C 130.36 137.11 131.57 136.34 131.85 135.12 L 132.06 134.15 C 132.34 132.92 131.57 131.71 130.34 131.44 C 129.12 131.16 127.90 131.93 127.63 133.16 Z M 127.37 134.22 L 127.20 135.15 C 126.98 136.40 127.81 137.59 129.06 137.82 C 130.31 138.04 131.51 137.21 131.73 135.96 L 131.89 135.02 C 132.12 133.77 131.28 132.58 130.03 132.36 C 128.78 132.13 127.59 132.97 127.37 134.22 Z M 127.15 135.30 L 127.04 136.35 C 126.90 137.62 127.82 138.77 129.09 138.91 C 130.37 139.05 131.52 138.13 131.66 136.86 L 131.77 135.81 C 131.92 134.53 131.00 133.38 129.72 133.24 C 128.44 133.10 127.30 134.02 127.15 135.30 Z M 127.00 136.49 L 126.95 137.48 C 126.89 138.78 127.89 139.88 129.18 139.94 C 130.48 140.01 131.58 139.01 131.65 137.71 L 131.69 136.72 C 131.76 135.42 130.76 134.32 129.46 134.26 C 128.17 134.19 127.07 135.19 127.00 136.49 Z M 126.93 137.57 L 126.92 138.53 C 126.90 139.84 127.95 140.92 129.26 140.93 C 130.57 140.95 131.65 139.90 131.66 138.59 L 131.67 137.63 C 131.69 136.32 130.64 135.24 129.33 135.23 C 128.02 135.21 126.94 136.26 126.93 137.57 Z M 126.90 138.56 L 126.90 139.55 C 126.90 140.87 127.97 141.94 129.29 141.94 C 130.61 141.94 131.68 140.87 131.68 139.55 L 131.68 138.56 C 131.68 137.24 130.61 136.17 129.29 136.17 C 127.97 136.17 126.90 137.24 126.90 138.56 Z M 126.89 139.57 L 126.90 140.57 C 126.91 141.89 127.99 142.96 129.31 142.95 C 130.64 142.94 131.70 141.86 131.69 140.53 L 131.68 139.53 C 131.67 138.21 130.59 137.15 129.27 137.16 C 127.95 137.17 126.88 138.25 126.89 139.57 Z M 126.90 140.61 L 126.93 141.61 C 126.96 142.93 128.06 143.97 129.38 143.94 C 130.70 143.91 131.75 142.81 131.72 141.49 L 131.69 140.49 C 131.66 139.17 130.56 138.12 129.24 138.16 C 127.91 138.19 126.87 139.29 126.90 140.61 Z M 126.93 141.67 L 126.98 142.64 C 127.05 143.96 128.17 144.98 129.50 144.91 C 130.82 144.84 131.83 143.71 131.77 142.39 L 131.72 141.42 C 131.65 140.10 130.52 139.08 129.20 139.15 C 127.88 139.22 126.86 140.35 126.93 141.67 Z M 126.98 142.70 L 127.06 143.66 C 127.16 144.98 128.31 145.97 129.63 145.87 C 130.95 145.77 131.94 144.62 131.83 143.30 L 131.76 142.33 C 131.66 141.01 130.51 140.02 129.19 140.12 C 127.87 140.22 126.88 141.38 126.98 142.70 Z M 127.06 143.69 L 127.15 144.70 C 127.26 146.02 128.42 146.99 129.74 146.88 C 131.06 146.76 132.04 145.60 131.92 144.28 L 131.83 143.27 C 131.72 141.95 130.55 140.98 129.24 141.09 C 127.92 141.21 126.94 142.37 127.06 143.69 Z M 127.15 144.70 L 127.23 145.68 C 127.35 146.99 128.51 147.97 129.83 147.85 C 131.15 147.74 132.12 146.58 132.01 145.26 L 131.92 144.28 C 131.80 142.96 130.64 141.99 129.32 142.10 C 128.01 142.22 127.03 143.38 127.15 144.70 Z M 127.23 145.66 L 127.30 146.51 C 127.41 147.83 128.57 148.81 129.89 148.70 C 131.20 148.59 132.18 147.44 132.08 146.12 L 132.00 145.27 C 131.90 143.95 130.74 142.97 129.42 143.08 C 128.11 143.19 127.13 144.35 127.23 145.66 Z M 127.31 146.50 L 127.38 147.44 C 127.48 148.75 128.63 149.74 129.95 149.64 C 131.26 149.53 132.25 148.38 132.15 147.07 L 132.07 146.13 C 131.97 144.82 130.82 143.83 129.50 143.93 C 128.19 144.04 127.20 145.19 127.31 146.50 Z M 127.38 147.43 L 127.46 148.48 C 127.55 149.79 128.70 150.78 130.01 150.68 C 131.33 150.59 132.32 149.44 132.22 148.13 L 132.14 147.08 C 132.05 145.76 130.90 144.78 129.59 144.87 C 128.27 144.97 127.28 146.11 127.38 147.43 Z M 127.46 148.47 L 127.54 149.66 C 127.63 150.97 128.77 151.97 130.09 151.87 C 131.40 151.78 132.39 150.64 132.30 149.33 L 132.22 148.14 C 132.13 146.82 130.99 145.83 129.67 145.92 C 128.36 146.01 127.37 147.15 127.46 148.47 Z M 127.54 149.65 L 127.61 150.58 C 127.69 151.90 128.83 152.89 130.14 152.80 C 131.46 152.71 132.45 151.58 132.36 150.26 L 132.30 149.34 C 132.21 148.02 131.08 147.03 129.76 147.12 C 128.45 147.20 127.46 148.34 127.54 149.65 Z M 127.61 150.58 L 127.67 151.53 C 127.76 152.84 128.89 153.84 130.20 153.75 C 131.51 153.67 132.50 152.54 132.42 151.23 L 132.36 150.27 C 132.27 148.96 131.14 147.97 129.83 148.05 C 128.52 148.13 127.53 149.26 127.61 150.58 Z M 127.67 151.52 L 127.74 152.52 C 127.81 153.83 128.94 154.83 130.25 154.75 C 131.56 154.67 132.56 153.55 132.48 152.24 L 132.42 151.24 C 132.34 149.93 131.21 148.93 129.90 149.01 C 128.59 149.09 127.60 150.21 127.67 151.52 Z M 127.74 152.51 L 127.80 153.54 C 127.87 154.85 128.99 155.85 130.30 155.78 C 131.60 155.70 132.60 154.58 132.53 153.28 L 132.47 152.25 C 132.40 150.94 131.28 149.94 129.97 150.01 C 128.67 150.09 127.67 151.20 127.74 152.51 Z M 127.80 153.53 L 127.85 154.57 C 127.92 155.88 129.03 156.88 130.34 156.82 C 131.64 156.75 132.65 155.64 132.58 154.33 L 132.53 153.29 C 132.46 151.98 131.35 150.98 130.04 151.05 C 128.74 151.11 127.73 152.22 127.80 153.53 Z M 127.86 154.56 L 127.90 155.60 C 127.96 156.90 129.06 157.91 130.37 157.85 C 131.67 157.80 132.68 156.69 132.62 155.39 L 132.58 154.35 C 132.52 153.04 131.42 152.03 130.11 152.09 C 128.81 152.15 127.80 153.25 127.86 154.56 Z M 127.91 155.58 L 127.94 156.64 C 127.99 157.94 129.08 158.96 130.39 158.91 C 131.69 158.87 132.70 157.77 132.66 156.47 L 132.62 155.41 C 132.57 154.11 131.48 153.09 130.18 153.14 C 128.88 153.18 127.86 154.28 127.91 155.58 Z M 127.95 156.62 L 127.98 157.75 C 128.02 159.04 129.10 160.07 130.39 160.03 C 131.69 160.00 132.71 158.92 132.68 157.62 L 132.65 156.50 C 132.62 155.20 131.54 154.17 130.24 154.21 C 128.94 154.24 127.92 155.32 127.95 156.62 Z M 127.99 157.73 L 128.01 158.80 C 128.03 160.09 129.10 161.12 130.39 161.10 C 131.68 161.08 132.71 160.01 132.69 158.72 L 132.67 157.64 C 132.65 156.35 131.58 155.32 130.29 155.35 C 129.00 155.37 127.97 156.44 127.99 157.73 Z M 128.02 158.79 L 128.03 159.80 C 128.04 161.09 129.10 162.12 130.38 162.10 C 131.67 162.09 132.70 161.04 132.69 159.75 L 132.68 158.74 C 132.67 157.45 131.61 156.42 130.33 156.43 C 129.04 156.45 128.01 157.50 128.02 158.79 Z M 128.04 159.79 L 128.05 160.73 C 128.05 162.01 129.10 163.05 130.38 163.04 C 131.66 163.03 132.69 161.99 132.68 160.71 L 132.68 159.76 C 132.67 158.48 131.63 157.45 130.35 157.46 C 129.07 157.46 128.04 158.51 128.04 159.79 Z M 128.06 160.72 L 128.06 161.59 C 128.06 162.87 129.09 163.90 130.37 163.90 C 131.64 163.90 132.68 162.86 132.67 161.59 L 132.67 160.72 C 132.67 159.44 131.64 158.41 130.36 158.41 C 129.09 158.42 128.06 159.45 128.06 160.72 Z M 128.07 161.59 L 128.07 162.63 C 128.07 163.90 129.10 164.92 130.37 164.92 C 131.63 164.92 132.66 163.90 132.66 162.63 L 132.66 161.59 C 132.66 160.32 131.63 159.29 130.37 159.29 C 129.10 159.29 128.07 160.32 128.07 161.59 Z M 128.09 162.63 L 128.09 163.69 C 128.09 164.95 129.11 165.98 130.37 165.98 C 131.63 165.98 132.65 164.95 132.65 163.69 L 132.65 162.63 C 132.65 161.37 131.63 160.35 130.37 160.35 C 129.11 160.35 128.09 161.37 128.09 162.63 Z M 128.10 163.69 L 128.10 164.63 C 128.10 165.88 129.12 166.90 130.37 166.90 C 131.62 166.90 132.63 165.88 132.63 164.63 L 132.63 163.69 C 132.63 162.44 131.62 161.43 130.37 161.43 C 129.12 161.43 128.10 162.44 128.10 163.69 Z M 128.12 164.63 L 128.12 165.51 C 128.12 166.75 129.12 167.76 130.37 167.76 C 131.61 167.76 132.61 166.75 132.61 165.51 L 132.61 164.63 C 132.61 163.39 131.61 162.39 130.37 162.39 C 129.12 162.39 128.12 163.39 128.12 164.63 Z M 128.13 165.51 L 128.13 166.50 C 128.13 167.73 129.13 168.74 130.37 168.74 C 131.60 168.74 132.60 167.73 132.60 166.50 L 132.60 165.51 C 132.60 164.27 131.60 163.27 130.37 163.27 C 129.13 163.27 128.13 164.27 128.13 165.51 Z M 128.14 166.50 L 128.14 167.50 C 128.14 168.73 129.14 169.72 130.37 169.72 C 131.60 169.72 132.59 168.73 132.59 167.50 L 132.59 166.50 C 132.59 165.27 131.60 164.27 130.37 164.27 C 129.14 164.27 128.14 165.27 128.14 166.50 Z M 128.15 167.50 L 128.15 168.51 C 128.15 169.73 129.14 170.72 130.37 170.72 C 131.59 170.72 132.58 169.73 132.58 168.51 L 132.58 167.50 C 132.58 166.27 131.59 165.28 130.37 165.28 C 129.14 165.28 128.15 166.27 128.15 167.50 Z M 128.16 168.50 L 128.16 169.49 C 128.15 170.71 129.14 171.70 130.36 171.70 C 131.58 171.70 132.58 170.71 132.58 169.49 L 132.58 168.51 C 132.58 167.29 131.59 166.30 130.37 166.30 C 129.15 166.30 128.16 167.28 128.16 168.50 Z M 128.16 169.48 L 128.16 170.48 C 128.15 171.69 129.13 172.69 130.35 172.69 C 131.57 172.70 132.56 171.72 132.56 170.50 L 132.57 169.50 C 132.57 168.29 131.59 167.30 130.38 167.29 C 129.16 167.28 128.17 168.27 128.16 169.48 Z M 128.17 170.46 L 128.15 171.47 C 128.14 172.68 129.11 173.68 130.32 173.69 C 131.53 173.71 132.53 172.74 132.54 171.53 L 132.55 170.52 C 132.57 169.31 131.60 168.31 130.39 168.29 C 129.18 168.28 128.18 169.25 128.17 170.46 Z M 128.16 171.44 L 128.14 172.45 C 128.11 173.66 129.06 174.66 130.27 174.69 C 131.47 174.72 132.48 173.77 132.51 172.56 L 132.53 171.56 C 132.56 170.35 131.61 169.35 130.40 169.31 C 129.20 169.28 128.19 170.24 128.16 171.44 Z M 128.14 172.42 L 128.10 173.42 C 128.06 174.62 128.99 175.64 130.20 175.68 C 131.40 175.73 132.41 174.79 132.46 173.59 L 132.50 172.59 C 132.55 171.39 131.61 170.37 130.41 170.33 C 129.20 170.28 128.19 171.22 128.14 172.42 Z M 128.11 173.39 L 128.06 174.39 C 128.00 175.59 128.92 176.61 130.11 176.68 C 131.31 176.74 132.34 175.82 132.40 174.62 L 132.45 173.62 C 132.52 172.42 131.60 171.40 130.40 171.33 C 129.20 171.27 128.18 172.19 128.11 173.39 Z M 128.07 174.36 L 128.00 175.31 C 127.92 176.51 128.83 177.54 130.02 177.62 C 131.22 177.70 132.25 176.80 132.33 175.60 L 132.39 174.65 C 132.47 173.46 131.57 172.42 130.37 172.34 C 129.18 172.26 128.15 173.17 128.07 174.36 Z M 128.01 175.28 L 127.94 176.16 C 127.84 177.35 128.72 178.40 129.91 178.50 C 131.10 178.59 132.15 177.71 132.25 176.52 L 132.32 175.64 C 132.42 174.45 131.54 173.40 130.35 173.30 C 129.16 173.21 128.11 174.09 128.01 175.28 Z M 127.95 176.12 L 127.85 177.07 C 127.73 178.25 128.59 179.31 129.77 179.44 C 130.96 179.56 132.02 178.70 132.14 177.51 L 132.24 176.56 C 132.36 175.38 131.50 174.32 130.32 174.20 C 129.13 174.07 128.07 174.93 127.95 176.12 Z M 127.86 177.03 L 127.72 178.11 C 127.58 179.29 128.41 180.36 129.59 180.51 C 130.77 180.66 131.85 179.82 131.99 178.64 L 132.13 177.56 C 132.28 176.38 131.44 175.30 130.26 175.16 C 129.08 175.01 128.01 175.85 127.86 177.03 Z M 127.73 178.07 L 127.59 179.11 C 127.42 180.28 128.24 181.37 129.41 181.54 C 130.58 181.70 131.67 180.88 131.84 179.71 L 131.98 178.68 C 132.15 177.50 131.33 176.41 130.16 176.25 C 128.99 176.08 127.90 176.90 127.73 178.07 Z M 127.59 179.08 L 127.45 180.01 C 127.27 181.18 128.07 182.27 129.24 182.45 C 130.41 182.63 131.51 181.83 131.69 180.66 L 131.83 179.74 C 132.01 178.57 131.21 177.47 130.04 177.29 C 128.87 177.11 127.77 177.91 127.59 179.08 Z M 127.46 179.98 L 127.29 180.96 C 127.10 182.13 127.89 183.23 129.06 183.43 C 130.22 183.62 131.33 182.83 131.52 181.66 L 131.68 180.68 C 131.88 179.51 131.09 178.41 129.92 178.22 C 128.75 178.03 127.65 178.81 127.46 179.98 Z M 127.30 180.94 L 127.12 181.96 C 126.91 183.12 127.69 184.23 128.85 184.44 C 130.01 184.65 131.13 183.87 131.33 182.71 L 131.51 181.69 C 131.72 180.53 130.95 179.41 129.78 179.21 C 128.62 179.00 127.51 179.78 127.30 180.94 Z M 127.13 181.93 L 126.93 182.96 C 126.70 184.12 127.46 185.24 128.62 185.46 C 129.78 185.69 130.90 184.93 131.13 183.77 L 131.32 182.74 C 131.55 181.58 130.79 180.46 129.63 180.23 C 128.47 180.01 127.35 180.77 127.13 181.93 Z M 126.94 182.93 L 126.72 183.95 C 126.48 185.10 127.22 186.23 128.37 186.48 C 129.53 186.72 130.66 185.98 130.90 184.83 L 131.12 183.81 C 131.36 182.65 130.62 181.52 129.47 181.28 C 128.31 181.03 127.18 181.77 126.94 182.93 Z M 126.73 183.90 L 126.49 184.95 C 126.22 186.10 126.94 187.24 128.09 187.51 C 129.23 187.78 130.38 187.06 130.65 185.92 L 130.89 184.87 C 131.16 183.72 130.44 182.58 129.30 182.31 C 128.15 182.04 127.00 182.76 126.73 183.90 Z M 126.50 184.90 L 126.24 185.92 C 125.95 187.06 126.63 188.22 127.77 188.52 C 128.91 188.81 130.08 188.13 130.37 186.99 L 130.63 185.96 C 130.93 184.82 130.24 183.66 129.10 183.37 C 127.96 183.08 126.80 183.76 126.50 184.90 Z M 126.26 185.88 L 125.98 186.85 C 125.66 187.98 126.32 189.16 127.45 189.48 C 128.58 189.80 129.76 189.14 130.08 188.01 L 130.35 187.03 C 130.67 185.90 130.01 184.73 128.88 184.41 C 127.75 184.09 126.58 184.75 126.26 185.88 Z M 126.00 186.81 L 125.71 187.74 C 125.37 188.86 126.00 190.05 127.12 190.40 C 128.24 190.74 129.43 190.11 129.78 188.99 L 130.06 188.05 C 130.41 186.93 129.77 185.74 128.65 185.40 C 127.53 185.06 126.34 185.69 126.00 186.81 Z M 125.73 187.70 L 125.43 188.59 C 125.07 189.71 125.67 190.91 126.78 191.27 C 127.90 191.64 129.10 191.04 129.46 189.92 L 129.76 189.03 C 130.13 187.92 129.52 186.72 128.41 186.35 C 127.30 185.98 126.10 186.59 125.73 187.70 Z M 125.45 188.55 L 125.12 189.47 C 124.73 190.58 125.31 191.79 126.41 192.18 C 127.52 192.57 128.73 191.99 129.12 190.89 L 129.45 189.97 C 129.84 188.86 129.26 187.65 128.16 187.26 C 127.05 186.87 125.84 187.45 125.45 188.55 Z M 125.14 189.43 L 124.77 190.41 C 124.35 191.51 124.90 192.73 125.99 193.15 C 127.08 193.56 128.31 193.02 128.72 191.92 L 129.10 190.94 C 129.52 189.84 128.97 188.62 127.88 188.20 C 126.78 187.79 125.56 188.34 125.14 189.43 Z M 124.79 190.36 L 124.40 191.29 C 123.96 192.37 124.47 193.61 125.55 194.06 C 126.63 194.50 127.86 193.99 128.31 192.91 L 128.70 191.98 C 129.14 190.90 128.63 189.66 127.55 189.22 C 126.48 188.77 125.24 189.28 124.79 190.36 Z M 124.43 191.23 L 124.03 192.11 C 123.55 193.18 124.02 194.43 125.09 194.91 C 126.15 195.39 127.40 194.92 127.88 193.86 L 128.28 192.97 C 128.76 191.91 128.29 190.66 127.23 190.18 C 126.17 189.70 124.92 190.17 124.43 191.23 Z M 124.07 192.05 L 123.66 192.88 C 123.14 193.92 123.56 195.19 124.60 195.71 C 125.65 196.22 126.91 195.80 127.43 194.76 L 127.84 193.92 C 128.36 192.88 127.94 191.62 126.90 191.10 C 125.85 190.58 124.59 191.00 124.07 192.05 Z M 123.71 192.80 L 123.19 193.73 C 122.63 194.75 123.00 196.02 124.01 196.58 C 125.02 197.14 126.30 196.78 126.86 195.77 L 127.37 194.83 C 127.94 193.82 127.57 192.55 126.56 191.99 C 125.55 191.42 124.27 191.79 123.71 192.80 Z M 123.28 193.64 L 122.73 194.50 C 122.12 195.47 122.41 196.74 123.37 197.36 C 124.34 197.97 125.62 197.68 126.23 196.72 L 126.77 195.86 C 127.38 194.89 127.10 193.62 126.13 193.00 C 125.17 192.39 123.89 192.68 123.28 193.64 Z M 122.84 194.39 L 122.26 195.17 C 121.59 196.08 121.78 197.36 122.69 198.03 C 123.60 198.70 124.88 198.51 125.55 197.60 L 126.13 196.82 C 126.80 195.92 126.60 194.64 125.70 193.96 C 124.79 193.29 123.51 193.49 122.84 194.39 Z M 122.39 195.05 L 121.76 195.76 C 121.03 196.59 121.10 197.87 121.94 198.61 C 122.78 199.35 124.05 199.27 124.79 198.44 L 125.42 197.72 C 126.16 196.89 126.08 195.61 125.25 194.87 C 124.41 194.13 123.13 194.21 122.39 195.05 Z M 121.95 195.60 L 121.22 196.24 C 120.39 196.98 120.32 198.24 121.05 199.07 C 121.78 199.90 123.05 199.98 123.88 199.24 L 124.61 198.59 C 125.43 197.86 125.51 196.59 124.78 195.77 C 124.04 194.94 122.78 194.86 121.95 195.60 Z M 121.49 196.06 L 120.66 196.58 C 119.73 197.17 119.45 198.40 120.04 199.32 C 120.62 200.25 121.85 200.53 122.78 199.95 L 123.61 199.43 C 124.54 198.84 124.82 197.61 124.23 196.68 C 123.65 195.75 122.42 195.48 121.49 196.06 Z M 120.99 196.43 L 120.00 196.82 C 118.99 197.23 118.50 198.38 118.90 199.39 C 119.31 200.41 120.46 200.90 121.47 200.49 L 122.45 200.10 C 123.47 199.70 123.96 198.55 123.56 197.53 C 123.15 196.52 122.00 196.02 120.99 196.43 Z M 120.29 196.64 L 118.98 196.94 C 117.87 197.19 117.17 198.29 117.42 199.40 C 117.67 200.52 118.77 201.21 119.89 200.96 L 121.19 200.67 C 122.30 200.42 123.00 199.32 122.75 198.20 C 122.50 197.09 121.40 196.39 120.29 196.64 Z M 119.09 196.73 L 118.06 196.89 C 116.84 197.08 116.00 198.23 116.19 199.45 C 116.38 200.68 117.53 201.52 118.75 201.33 L 119.78 201.17 C 121.00 200.98 121.84 199.83 121.65 198.61 C 121.46 197.38 120.31 196.55 119.09 196.73 Z M 117.61 196.84 L 117.36 196.93 C 116.11 197.37 115.45 198.74 115.89 200.00 C 116.33 201.25 117.70 201.90 118.95 201.46 L 119.20 201.38 C 120.45 200.94 121.11 199.56 120.67 198.31 C 120.23 197.06 118.86 196.40 117.61 196.84 Z M 117.86 201.68 L 118.41 201.75 C 119.78 201.91 121.03 200.93 121.19 199.56 C 121.36 198.19 120.38 196.95 119.01 196.78 L 118.45 196.72 C 117.08 196.55 115.84 197.53 115.67 198.90 C 115.51 200.27 116.49 201.52 117.86 201.68 Z M 118.53 201.81 L 119.66 201.89 C 121.06 201.99 122.29 200.93 122.39 199.53 C 122.49 198.12 121.43 196.90 120.02 196.80 L 118.89 196.72 C 117.48 196.62 116.26 197.68 116.16 199.08 C 116.06 200.49 117.12 201.71 118.53 201.81 Z M 119.64 201.95 L 121.16 202.06 C 122.60 202.17 123.85 201.10 123.96 199.66 C 124.07 198.22 122.99 196.97 121.55 196.86 L 120.03 196.74 C 118.60 196.63 117.34 197.71 117.23 199.15 C 117.12 200.59 118.20 201.84 119.64 201.95 Z M 121.12 202.09 L 122.11 202.18 C 123.57 202.31 124.85 201.24 124.98 199.79 C 125.11 198.34 124.04 197.05 122.59 196.92 L 121.60 196.83 C 120.14 196.70 118.86 197.77 118.73 199.22 C 118.60 200.67 119.67 201.96 121.12 202.09 Z M 122.09 202.18 L 123.12 202.29 C 124.58 202.43 125.87 201.37 126.02 199.92 C 126.16 198.46 125.10 197.16 123.65 197.02 L 122.62 196.92 C 121.16 196.77 119.86 197.83 119.72 199.29 C 119.57 200.74 120.63 202.04 122.09 202.18 Z M 123.11 202.29 L 124.15 202.40 C 125.60 202.56 126.91 201.50 127.06 200.04 C 127.22 198.59 126.16 197.28 124.71 197.13 L 123.67 197.01 C 122.21 196.86 120.90 197.92 120.75 199.37 C 120.59 200.83 121.65 202.14 123.11 202.29 Z M 124.14 202.41 L 125.15 202.52 C 126.61 202.68 127.93 201.63 128.09 200.17 C 128.25 198.71 127.19 197.39 125.73 197.23 L 124.72 197.12 C 123.26 196.96 121.94 198.01 121.78 199.47 C 121.62 200.93 122.68 202.25 124.14 202.41 Z M 125.15 202.52 L 126.11 202.63 C 127.57 202.79 128.89 201.74 129.05 200.28 C 129.21 198.82 128.16 197.50 126.70 197.33 L 125.74 197.23 C 124.28 197.06 122.96 198.12 122.79 199.58 C 122.63 201.04 123.68 202.36 125.15 202.52 Z M 126.11 202.64 L 127.12 202.75 C 128.58 202.91 129.90 201.86 130.07 200.39 C 130.23 198.92 129.17 197.60 127.71 197.44 L 126.70 197.33 C 125.23 197.17 123.91 198.22 123.75 199.69 C 123.59 201.15 124.64 202.47 126.11 202.64 Z M 127.13 202.75 L 128.25 202.87 C 129.72 203.03 131.03 201.97 131.19 200.50 C 131.35 199.04 130.29 197.72 128.82 197.56 L 127.70 197.44 C 126.23 197.28 124.91 198.34 124.76 199.81 C 124.60 201.28 125.66 202.59 127.13 202.75 Z M 128.26 202.87 L 129.22 202.97 C 130.69 203.13 132.00 202.06 132.15 200.59 C 132.31 199.12 131.24 197.81 129.77 197.66 L 128.81 197.56 C 127.34 197.41 126.03 198.47 125.88 199.94 C 125.72 201.41 126.79 202.72 128.26 202.87 Z M 129.23 202.98 L 130.10 203.06 C 131.57 203.21 132.88 202.14 133.03 200.67 C 133.17 199.20 132.10 197.89 130.63 197.74 L 129.76 197.66 C 128.29 197.51 126.98 198.58 126.84 200.05 C 126.69 201.52 127.76 202.83 129.23 202.98 Z M 130.11 203.06 L 131.03 203.15 C 132.50 203.30 133.81 202.22 133.95 200.75 C 134.09 199.28 133.02 197.97 131.55 197.83 L 130.63 197.74 C 129.16 197.60 127.85 198.67 127.71 200.14 C 127.56 201.61 128.64 202.92 130.11 203.06 Z M 131.03 203.15 L 132.02 203.25 C 133.49 203.39 134.79 202.31 134.93 200.84 C 135.07 199.37 134.00 198.07 132.53 197.92 L 131.54 197.83 C 130.07 197.69 128.77 198.77 128.63 200.24 C 128.49 201.71 129.56 203.01 131.03 203.15 Z M 132.02 203.25 L 133.03 203.34 C 134.50 203.48 135.80 202.40 135.94 200.93 C 136.07 199.46 134.99 198.16 133.53 198.02 L 132.52 197.92 C 131.05 197.79 129.75 198.87 129.61 200.34 C 129.47 201.81 130.55 203.11 132.02 203.25 Z M 133.03 203.34 L 134.03 203.43 C 135.50 203.57 136.80 202.48 136.94 201.01 C 137.07 199.54 135.99 198.24 134.52 198.11 L 133.52 198.02 C 132.05 197.88 130.75 198.97 130.62 200.44 C 130.48 201.91 131.56 203.21 133.03 203.34 Z M 134.04 203.43 L 135.01 203.52 C 136.48 203.65 137.77 202.56 137.90 201.09 C 138.04 199.62 136.95 198.33 135.48 198.20 L 134.51 198.11 C 133.04 197.98 131.75 199.07 131.62 200.53 C 131.49 202.00 132.57 203.30 134.04 203.43 Z M 135.01 203.52 L 136.01 203.60 C 137.48 203.73 138.77 202.64 138.90 201.17 C 139.03 199.70 137.94 198.41 136.47 198.28 L 135.47 198.20 C 134.00 198.07 132.71 199.16 132.58 200.63 C 132.46 202.10 133.55 203.39 135.01 203.52 Z M 136.02 203.60 L 137.05 203.69 C 138.51 203.81 139.80 202.72 139.93 201.25 C 140.05 199.78 138.96 198.49 137.49 198.37 L 136.46 198.28 C 134.99 198.16 133.70 199.25 133.58 200.72 C 133.46 202.19 134.55 203.48 136.02 203.60 Z M 137.05 203.69 L 138.04 203.77 C 139.50 203.89 140.79 202.79 140.91 201.32 C 141.03 199.86 139.93 198.57 138.47 198.45 L 137.48 198.37 C 136.02 198.25 134.73 199.35 134.61 200.81 C 134.49 202.28 135.58 203.57 137.05 203.69 Z M 138.04 203.76 L 139.03 203.84 C 140.49 203.96 141.78 202.86 141.89 201.40 C 142.01 199.93 140.91 198.65 139.45 198.53 L 138.46 198.45 C 136.99 198.34 135.71 199.43 135.60 200.90 C 135.48 202.37 136.58 203.65 138.04 203.76 Z M 139.03 203.84 L 140.04 203.92 C 141.50 204.03 142.78 202.93 142.89 201.47 C 143.01 200.00 141.91 198.73 140.45 198.61 L 139.44 198.53 C 137.98 198.42 136.70 199.52 136.58 200.98 C 136.47 202.45 137.57 203.73 139.03 203.84 Z M 140.04 203.91 L 141.06 203.99 C 142.52 204.10 143.80 203.01 143.91 201.54 C 144.02 200.08 142.93 198.80 141.46 198.69 L 140.44 198.62 C 138.98 198.50 137.70 199.60 137.59 201.06 C 137.48 202.53 138.58 203.80 140.04 203.91 Z M 141.06 203.99 L 142.06 204.06 C 143.52 204.17 144.79 203.08 144.90 201.62 C 145.01 200.16 143.91 198.88 142.45 198.77 L 141.46 198.70 C 140.00 198.59 138.73 199.68 138.62 201.14 C 138.51 202.60 139.60 203.88 141.06 203.99 Z M 142.06 204.05 L 143.05 204.13 C 144.50 204.24 145.77 203.14 145.88 201.69 C 145.99 200.23 144.90 198.96 143.44 198.85 L 142.45 198.78 C 140.99 198.67 139.72 199.76 139.62 201.22 C 139.51 202.68 140.60 203.95 142.06 204.05 Z M 143.05 204.12 L 144.05 204.20 C 145.50 204.30 146.77 203.21 146.88 201.76 C 146.98 200.30 145.89 199.04 144.44 198.93 L 143.44 198.86 C 141.99 198.75 140.72 199.84 140.61 201.30 C 140.50 202.75 141.60 204.02 143.05 204.12 Z M 144.05 204.19 L 145.06 204.26 C 146.51 204.37 147.77 203.28 147.88 201.83 C 147.98 200.38 146.89 199.12 145.44 199.01 L 144.44 198.94 C 142.99 198.83 141.72 199.92 141.62 201.37 C 141.51 202.82 142.60 204.08 144.05 204.19 Z M 145.06 204.26 L 146.04 204.33 C 147.49 204.43 148.75 203.35 148.85 201.90 C 148.96 200.45 147.87 199.19 146.42 199.09 L 145.44 199.02 C 143.99 198.91 142.74 200.00 142.63 201.45 C 142.53 202.89 143.61 204.15 145.06 204.26 Z M 146.04 204.32 L 147.01 204.39 C 148.46 204.50 149.71 203.41 149.82 201.97 C 149.92 200.52 148.83 199.27 147.39 199.17 L 146.42 199.10 C 144.98 198.99 143.72 200.08 143.62 201.52 C 143.51 202.97 144.60 204.22 146.04 204.32 Z M 147.02 204.39 L 148.01 204.45 C 149.45 204.56 150.70 203.47 150.80 202.03 C 150.90 200.59 149.81 199.34 148.38 199.24 L 147.39 199.17 C 145.95 199.07 144.70 200.16 144.60 201.60 C 144.49 203.04 145.58 204.28 147.02 204.39 Z M 148.01 204.45 L 149.03 204.52 C 150.47 204.62 151.71 203.53 151.81 202.10 C 151.91 200.66 150.82 199.42 149.39 199.32 L 148.37 199.25 C 146.93 199.15 145.69 200.23 145.59 201.67 C 145.49 203.11 146.58 204.35 148.01 204.45 Z M 149.04 204.51 L 150.07 204.58 C 151.50 204.67 152.74 203.59 152.83 202.16 C 152.93 200.73 151.84 199.49 150.41 199.39 L 149.38 199.33 C 147.95 199.23 146.71 200.31 146.62 201.75 C 146.52 203.18 147.61 204.42 149.04 204.51 Z M 150.07 204.57 L 151.06 204.63 C 152.49 204.73 153.72 203.64 153.81 202.21 C 153.90 200.79 152.82 199.55 151.39 199.46 L 150.40 199.40 C 148.98 199.31 147.75 200.39 147.65 201.82 C 147.56 203.25 148.65 204.48 150.07 204.57 Z M 151.07 204.63 L 152.07 204.69 C 153.50 204.78 154.72 203.69 154.81 202.27 C 154.89 200.84 153.81 199.62 152.39 199.53 L 151.38 199.47 C 149.96 199.38 148.73 200.47 148.65 201.89 C 148.56 203.32 149.64 204.54 151.07 204.63 Z M 152.08 204.68 L 153.09 204.74 C 154.51 204.82 155.73 203.74 155.81 202.32 C 155.89 200.90 154.81 199.68 153.39 199.60 L 152.38 199.54 C 150.96 199.46 149.74 200.54 149.66 201.96 C 149.58 203.38 150.66 204.60 152.08 204.68 Z M 153.10 204.73 L 154.11 204.79 C 155.52 204.86 156.73 203.78 156.81 202.36 C 156.88 200.95 155.80 199.74 154.38 199.66 L 153.38 199.61 C 151.96 199.53 150.75 200.62 150.68 202.03 C 150.60 203.45 151.69 204.66 153.10 204.73 Z M 154.12 204.78 L 155.12 204.83 C 156.53 204.90 157.73 203.81 157.80 202.40 C 157.87 200.99 156.78 199.79 155.37 199.72 L 154.37 199.67 C 152.96 199.60 151.76 200.69 151.69 202.10 C 151.62 203.51 152.71 204.71 154.12 204.78 Z M 155.14 204.82 L 156.15 204.86 C 157.55 204.93 158.74 203.84 158.81 202.43 C 158.87 201.02 157.78 199.83 156.37 199.77 L 155.36 199.73 C 153.95 199.66 152.76 200.75 152.70 202.16 C 152.64 203.57 153.73 204.76 155.14 204.82 Z M 156.16 204.85 L 157.15 204.89 C 158.56 204.95 159.74 203.86 159.79 202.46 C 159.85 201.06 158.76 199.87 157.36 199.82 L 156.36 199.78 C 154.96 199.72 153.78 200.82 153.72 202.22 C 153.67 203.62 154.76 204.80 156.16 204.85 Z M 157.16 204.88 L 158.15 204.92 C 159.55 204.97 160.72 203.88 160.77 202.48 C 160.82 201.09 159.73 199.92 158.34 199.86 L 157.35 199.83 C 155.95 199.78 154.78 200.87 154.73 202.26 C 154.68 203.66 155.77 204.83 157.16 204.88 Z M 158.16 204.91 L 159.15 204.94 C 160.54 204.99 161.70 203.90 161.75 202.51 C 161.80 201.12 160.71 199.96 159.32 199.91 L 158.33 199.88 C 156.94 199.83 155.77 200.92 155.73 202.31 C 155.68 203.70 156.77 204.86 158.16 204.91 Z M 159.15 204.93 L 160.14 204.96 C 161.53 205.01 162.69 203.93 162.73 202.54 C 162.78 201.16 161.69 200.00 160.31 199.95 L 159.32 199.92 C 157.93 199.87 156.77 200.96 156.73 202.34 C 156.68 203.73 157.77 204.89 159.15 204.93 Z M 160.14 204.95 L 161.14 204.99 C 162.52 205.03 163.67 203.95 163.72 202.57 C 163.76 201.20 162.68 200.04 161.30 200.00 L 160.31 199.96 C 158.93 199.92 157.78 201.00 157.73 202.38 C 157.69 203.75 158.77 204.91 160.14 204.95 Z M 161.14 204.97 L 162.14 205.01 C 163.52 205.05 164.66 203.98 164.71 202.61 C 164.75 201.23 163.68 200.09 162.31 200.04 L 161.30 200.01 C 159.93 199.96 158.78 201.04 158.74 202.41 C 158.69 203.78 159.77 204.93 161.14 204.97 Z M 162.14 205.00 L 163.15 205.03 C 164.51 205.07 165.66 204.00 165.70 202.64 C 165.75 201.27 164.68 200.13 163.31 200.08 L 162.31 200.05 C 160.94 200.01 159.80 201.08 159.75 202.44 C 159.71 203.81 160.78 204.95 162.14 205.00 Z M 163.15 205.02 L 164.15 205.05 C 165.51 205.09 166.65 204.03 166.69 202.67 C 166.74 201.31 165.67 200.17 164.31 200.13 L 163.31 200.10 C 161.95 200.05 160.81 201.12 160.77 202.48 C 160.72 203.84 161.79 204.97 163.15 205.02 Z M 164.15 205.04 L 165.16 205.07 C 166.51 205.12 167.64 204.05 167.69 202.70 C 167.73 201.35 166.67 200.22 165.32 200.17 L 164.31 200.14 C 162.96 200.10 161.83 201.16 161.78 202.51 C 161.74 203.86 162.80 204.99 164.15 205.04 Z M 165.16 205.06 L 166.16 205.09 C 167.51 205.13 168.63 204.08 168.68 202.73 C 168.72 201.38 167.66 200.26 166.32 200.22 L 165.32 200.19 C 163.97 200.14 162.84 201.20 162.80 202.55 C 162.76 203.89 163.82 205.02 165.16 205.06 Z M 166.17 205.08 L 167.17 205.11 C 168.51 205.14 169.62 204.09 169.66 202.75 C 169.70 201.41 168.65 200.30 167.31 200.26 L 166.31 200.23 C 164.97 200.19 163.85 201.25 163.82 202.59 C 163.78 203.92 164.83 205.04 166.17 205.08 Z M 167.18 205.09 L 168.18 205.12 C 169.51 205.15 170.61 204.09 170.65 202.76 C 170.68 201.43 169.62 200.33 168.29 200.29 L 167.30 200.27 C 165.96 200.24 164.86 201.29 164.83 202.62 C 164.79 203.96 165.85 205.06 167.18 205.09 Z M 168.19 205.11 L 169.19 205.12 C 170.52 205.15 171.61 204.09 171.63 202.76 C 171.66 201.44 170.60 200.35 169.28 200.32 L 168.28 200.31 C 166.95 200.28 165.86 201.34 165.83 202.66 C 165.81 203.99 166.87 205.08 168.19 205.11 Z M 169.21 205.11 L 170.22 205.12 C 171.54 205.14 172.62 204.08 172.63 202.76 C 172.65 201.44 171.59 200.36 170.27 200.35 L 169.26 200.34 C 167.94 200.32 166.86 201.38 166.85 202.70 C 166.83 204.02 167.89 205.10 169.21 205.11 Z M 170.23 205.11 L 171.24 205.11 C 172.55 205.12 173.62 204.06 173.62 202.75 C 173.63 201.44 172.57 200.37 171.26 200.37 L 170.26 200.36 C 168.95 200.35 167.88 201.41 167.87 202.72 C 167.86 204.03 168.92 205.10 170.23 205.11 Z M 171.24 205.10 L 172.24 205.10 C 173.55 205.11 174.60 204.05 174.61 202.75 C 174.61 201.44 173.56 200.38 172.25 200.38 L 171.25 200.38 C 169.95 200.38 168.89 201.43 168.89 202.73 C 168.89 204.04 169.94 205.10 171.24 205.10 Z M 172.25 205.09 L 173.23 205.09 C 174.53 205.09 175.58 204.04 175.58 202.74 C 175.58 201.45 174.53 200.40 173.23 200.39 L 172.25 200.39 C 170.95 200.39 169.90 201.44 169.90 202.74 C 169.90 204.04 170.95 205.09 172.25 205.09 Z M 173.23 205.07 L 174.23 205.07 C 175.52 205.07 176.57 204.03 176.57 202.74 C 176.57 201.45 175.52 200.41 174.23 200.41 L 173.23 200.41 C 171.95 200.41 170.90 201.45 170.90 202.74 C 170.90 204.03 171.95 205.07 173.23 205.07 Z M 174.23 205.06 L 175.23 205.06 C 176.51 205.06 177.55 204.02 177.55 202.74 C 177.55 201.47 176.51 200.43 175.23 200.43 L 174.23 200.43 C 172.96 200.43 171.92 201.47 171.92 202.74 C 171.92 204.02 172.96 205.06 174.23 205.06 Z M 175.23 205.04 L 176.23 205.04 C 177.49 205.04 178.52 204.01 178.52 202.74 C 178.52 201.48 177.49 200.45 176.23 200.45 L 175.23 200.45 C 173.96 200.45 172.94 201.48 172.94 202.74 C 172.94 204.01 173.96 205.04 175.23 205.04 Z M 176.23 205.02 L 177.23 205.02 C 178.48 205.02 179.50 204.00 179.50 202.74 C 179.50 201.49 178.48 200.47 177.23 200.47 L 176.23 200.47 C 174.97 200.47 173.95 201.49 173.95 202.74 C 173.95 204.00 174.97 205.02 176.23 205.02 Z M 177.23 205.00 L 178.24 205.00 C 179.49 205.00 180.49 203.99 180.49 202.74 C 180.49 201.50 179.49 200.49 178.24 200.49 L 177.23 200.49 C 175.98 200.49 174.97 201.50 174.97 202.74 C 174.97 203.99 175.98 205.00 177.23 205.00 Z M 178.24 204.98 L 179.27 204.98 C 180.50 204.98 181.50 203.98 181.50 202.74 C 181.50 201.51 180.50 200.51 179.27 200.51 L 178.24 200.51 C 177.01 200.51 176.01 201.51 176.01 202.74 C 176.01 203.98 177.01 204.98 178.24 204.98 Z M 179.27 204.96 L 180.29 204.96 C 181.51 204.96 182.50 203.97 182.50 202.74 C 182.50 201.52 181.51 200.53 180.29 200.53 L 179.27 200.53 C 178.05 200.53 177.06 201.52 177.06 202.74 C 177.06 203.97 178.05 204.96 179.27 204.96 Z M 180.29 204.93 L 181.28 204.93 C 182.49 204.93 183.47 203.95 183.47 202.74 C 183.47 201.53 182.49 200.55 181.28 200.55 L 180.29 200.55 C 179.08 200.55 178.10 201.53 178.10 202.74 C 178.10 203.95 179.08 204.93 180.29 204.93 Z M 181.28 204.91 L 182.23 204.91 C 183.43 204.91 184.40 203.94 184.40 202.74 C 184.40 201.54 183.43 200.57 182.23 200.57 L 181.28 200.57 C 180.08 200.57 179.11 201.54 179.11 202.74 C 179.11 203.94 180.08 204.91 181.28 204.91 Z M 182.23 204.90 L 183.23 204.90 C 184.42 204.90 185.38 203.93 185.38 202.74 C 185.38 201.55 184.42 200.59 183.23 200.59 L 182.23 200.59 C 181.04 200.59 180.08 201.55 180.08 202.74 C 180.08 203.93 181.04 204.90 182.23 204.90 Z M 183.23 204.88 L 184.20 204.88 C 185.38 204.88 186.34 203.92 186.34 202.74 C 186.34 201.56 185.38 200.61 184.20 200.61 L 183.23 200.61 C 182.05 200.61 181.09 201.56 181.09 202.74 C 181.09 203.92 182.05 204.88 183.23 204.88 Z M 184.20 204.86 L 185.19 204.86 C 186.36 204.86 187.31 203.91 187.31 202.74 C 187.31 201.57 186.36 200.62 185.19 200.62 L 184.20 200.62 C 183.03 200.62 182.08 201.57 182.08 202.74 C 182.08 203.91 183.03 204.86 184.20 204.86 Z M 185.19 204.85 L 186.22 204.85 C 187.38 204.85 188.33 203.91 188.33 202.74 C 188.33 201.58 187.38 200.64 186.22 200.64 L 185.19 200.64 C 184.02 200.64 183.08 201.58 183.08 202.74 C 183.08 203.91 184.02 204.85 185.19 204.85 Z M 186.22 204.84 L 187.20 204.84 C 188.36 204.84 189.30 203.90 189.30 202.74 C 189.30 201.59 188.36 200.65 187.20 200.65 L 186.22 200.65 C 185.06 200.65 184.13 201.59 184.13 202.74 C 184.13 203.90 185.06 204.84 186.22 204.84 Z M 187.20 204.83 L 188.23 204.83 C 189.38 204.83 190.31 203.89 190.31 202.74 C 190.31 201.59 189.38 200.66 188.23 200.66 L 187.20 200.66 C 186.05 200.66 185.12 201.59 185.12 202.74 C 185.12 203.89 186.05 204.83 187.20 204.83 Z M 188.23 204.81 L 189.25 204.81 C 190.40 204.81 191.33 203.89 191.33 202.74 C 191.33 201.60 190.40 200.67 189.25 200.67 L 188.23 200.67 C 187.08 200.67 186.15 201.60 186.15 202.74 C 186.15 203.89 187.08 204.81 188.23 204.81 Z M 189.25 204.80 L 190.25 204.80 C 191.38 204.80 192.31 203.88 192.31 202.74 C 192.31 201.60 191.38 200.68 190.25 200.68 L 189.25 200.68 C 188.12 200.68 187.19 201.60 187.19 202.74 C 187.19 203.88 188.12 204.80 189.25 204.80 Z M 190.25 204.79 L 191.32 204.79 C 192.45 204.78 193.36 203.87 193.36 202.74 C 193.36 201.61 192.44 200.69 191.31 200.70 L 190.24 200.70 C 189.11 200.70 188.20 201.62 188.20 202.75 C 188.20 203.88 189.12 204.79 190.25 204.79 Z M 191.36 204.76 L 192.40 204.74 C 193.52 204.71 194.40 203.78 194.38 202.67 C 194.35 201.55 193.42 200.67 192.31 200.69 L 191.27 200.72 C 190.15 200.75 189.27 201.67 189.29 202.79 C 189.32 203.91 190.25 204.79 191.36 204.76 Z M 192.53 204.71 L 193.48 204.62 C 194.58 204.53 195.40 203.56 195.30 202.46 C 195.20 201.36 194.23 200.55 193.13 200.64 L 192.18 200.73 C 191.08 200.82 190.27 201.79 190.36 202.89 C 190.46 203.99 191.43 204.80 192.53 204.71 Z M 193.70 204.57 L 194.59 204.39 C 195.66 204.17 196.35 203.13 196.14 202.06 C 195.92 201.00 194.88 200.30 193.82 200.52 L 192.92 200.70 C 191.85 200.91 191.16 201.95 191.37 203.02 C 191.59 204.09 192.63 204.78 193.70 204.57 Z M 194.85 204.29 L 195.78 203.96 C 196.79 203.61 197.33 202.49 196.97 201.48 C 196.61 200.46 195.50 199.93 194.48 200.29 L 193.56 200.61 C 192.54 200.97 192.01 202.09 192.37 203.10 C 192.72 204.12 193.84 204.65 194.85 204.29 Z M 195.97 203.86 L 196.87 203.43 C 197.82 202.97 198.23 201.82 197.77 200.86 C 197.31 199.90 196.16 199.50 195.20 199.96 L 194.30 200.39 C 193.34 200.85 192.94 202.00 193.40 202.96 C 193.86 203.92 195.01 204.32 195.97 203.86 Z M 196.96 203.35 L 197.84 202.86 C 198.76 202.35 199.09 201.19 198.58 200.28 C 198.06 199.36 196.91 199.03 195.99 199.54 L 195.11 200.03 C 194.19 200.54 193.86 201.70 194.37 202.62 C 194.88 203.54 196.04 203.87 196.96 203.35 Z M 197.86 202.83 L 198.12 202.68 C 199.02 202.16 199.33 201.01 198.81 200.11 C 198.29 199.20 197.13 198.90 196.23 199.42 L 195.97 199.57 C 195.07 200.09 194.76 201.24 195.28 202.15 C 195.80 203.05 196.96 203.36 197.86 202.83 Z"
      fill="black"
      fill-rule="nonzero" /></svg>