<svg xmlns="http://www.w3.org/2000/svg" width="300" height="300" viewBox="0 0 300 300">
<path d="M 116.67 126.32 L 116.05 127.43 C 115.48 128.45 115.84 129.74 116.86 130.31 C 117.88 130.87 119.16 130.51 119.73 129.49 L 120.35 128.38 C 120.92 127.36 120.56 126.08 119.54 125.51 C 118.53 124.94 117.24 125.30 116.67 126.32 Z M 115.99 127.49 L 115.46 128.52 C 114.93 129.57 115.34 130.86 116.39 131.39 C 117.44 131.93 118.72 131.52 119.26 130.47 L 119.79 129.44 C 120.32 128.39 119.91 127.10 118.86 126.57 C 117.81 126.03 116.53 126.44 115.99 127.49 Z M 115.35 128.71 L 115.01 129.58 C 114.58 130.69 115.13 131.94 116.23 132.37 C 117.34 132.81 118.59 132.26 119.02 131.15 L 119.37 130.28 C 119.80 129.17 119.25 127.92 118.14 127.49 C 117.04 127.06 115.79 127.60 115.35 128.71 Z M 114.85 130.17 L 114.79 130.80 C 114.68 131.99 115.56 133.05 116.76 133.16 C 117.96 133.27 119.02 132.39 119.13 131.20 L 119.18 130.57 C 119.30 129.37 118.41 128.31 117.22 128.20 C 116.02 128.09 114.96 128.97 114.85 130.17 Z M 115.63 132.69 L 116.10 133.06 C 117.03 133.80 118.39 133.64 119.13 132.71 C 119.87 131.77 119.70 130.41 118.77 129.68 L 118.30 129.30 C 117.36 128.57 116.00 128.73 115.27 129.66 C 114.53 130.60 114.69 131.96 115.63 132.69 Z M 117.60 133.46 L 118.57 133.38 C 119.72 133.29 120.58 132.28 120.49 131.12 C 120.40 129.97 119.39 129.11 118.24 129.21 L 117.27 129.28 C 116.11 129.38 115.25 130.39 115.35 131.54 C 115.44 132.69 116.45 133.55 117.60 133.46 Z M 118.99 133.23 L 120.18 132.87 C 121.25 132.55 121.86 131.41 121.53 130.34 C 121.21 129.27 120.07 128.67 119.00 128.99 L 117.81 129.35 C 116.74 129.68 116.14 130.81 116.46 131.88 C 116.79 132.95 117.92 133.56 118.99 133.23 Z M 120.33 132.78 L 121.29 132.39 C 122.30 131.98 122.80 130.83 122.39 129.81 C 121.98 128.79 120.82 128.29 119.80 128.70 L 118.85 129.09 C 117.83 129.50 117.34 130.66 117.75 131.67 C 118.16 132.69 119.31 133.19 120.33 132.78 Z M 121.38 132.34 L 122.29 131.91 C 123.28 131.45 123.70 130.27 123.24 129.29 C 122.78 128.30 121.60 127.87 120.61 128.33 L 119.71 128.76 C 118.72 129.22 118.29 130.40 118.76 131.39 C 119.22 132.38 120.39 132.80 121.38 132.34 Z M 122.36 131.87 L 123.24 131.41 C 124.20 130.91 124.57 129.72 124.07 128.76 C 123.57 127.80 122.39 127.42 121.42 127.92 L 120.54 128.38 C 119.58 128.88 119.21 130.07 119.71 131.03 C 120.21 131.99 121.40 132.37 122.36 131.87 Z M 123.28 131.38 L 124.14 130.90 C 125.08 130.38 125.42 129.19 124.90 128.24 C 124.37 127.30 123.18 126.96 122.24 127.48 L 121.38 127.96 C 120.44 128.48 120.10 129.67 120.62 130.61 C 121.15 131.56 122.34 131.90 123.28 131.38 Z M 124.16 130.88 L 125.00 130.39 C 125.93 129.86 126.25 128.66 125.72 127.73 C 125.18 126.80 123.99 126.48 123.06 127.02 L 122.22 127.50 C 121.28 128.04 120.96 129.23 121.50 130.16 C 122.04 131.10 123.23 131.42 124.16 130.88 Z M 125.03 130.37 L 125.87 129.87 C 126.80 129.32 127.10 128.12 126.55 127.20 C 125.99 126.28 124.80 125.98 123.88 126.53 L 123.03 127.04 C 122.11 127.59 121.81 128.78 122.36 129.70 C 122.91 130.62 124.10 130.92 125.03 130.37 Z M 125.90 129.85 L 126.77 129.31 C 127.68 128.75 127.96 127.55 127.40 126.64 C 126.83 125.73 125.64 125.45 124.73 126.01 L 123.86 126.55 C 122.95 127.11 122.66 128.31 123.23 129.22 C 123.79 130.13 124.99 130.41 125.90 129.85 Z M 126.79 129.30 L 127.65 128.75 C 128.55 128.17 128.82 126.98 128.24 126.07 C 127.67 125.17 126.47 124.90 125.57 125.48 L 124.71 126.02 C 123.80 126.60 123.54 127.80 124.11 128.70 C 124.69 129.60 125.88 129.87 126.79 129.30 Z M 127.66 128.75 L 128.51 128.20 C 129.41 127.62 129.67 126.42 129.09 125.51 C 128.51 124.61 127.30 124.35 126.40 124.93 L 125.55 125.48 C 124.65 126.06 124.39 127.26 124.97 128.17 C 125.56 129.07 126.76 129.33 127.66 128.75 Z M 128.51 128.21 L 129.36 127.66 C 130.27 127.08 130.54 125.87 129.95 124.97 C 129.37 124.06 128.17 123.79 127.26 124.38 L 126.40 124.92 C 125.50 125.51 125.23 126.71 125.81 127.62 C 126.39 128.53 127.60 128.79 128.51 128.21 Z M 129.35 127.68 L 130.20 127.15 C 131.11 126.58 131.39 125.37 130.82 124.45 C 130.25 123.53 129.04 123.25 128.12 123.83 L 127.28 124.36 C 126.36 124.93 126.08 126.14 126.65 127.05 C 127.22 127.97 128.43 128.25 129.35 127.68 Z M 130.16 127.19 L 131.13 126.62 C 132.07 126.06 132.38 124.86 131.83 123.92 C 131.27 122.98 130.07 122.67 129.13 123.22 L 128.16 123.79 C 127.22 124.34 126.91 125.55 127.46 126.49 C 128.01 127.43 129.22 127.74 130.16 127.19 Z M 131.00 126.72 L 132.06 126.20 C 133.05 125.72 133.46 124.52 132.98 123.53 C 132.50 122.54 131.30 122.12 130.31 122.61 L 129.25 123.12 C 128.26 123.60 127.85 124.80 128.33 125.79 C 128.81 126.79 130.01 127.20 131.00 126.72 Z M 131.56 126.40 L 132.37 126.25 C 133.47 126.04 134.20 124.98 133.99 123.87 C 133.78 122.77 132.71 122.04 131.61 122.25 L 130.80 122.40 C 129.70 122.61 128.97 123.68 129.18 124.78 C 129.39 125.89 130.46 126.61 131.56 126.40 Z M 130.66 125.83 L 131.09 126.19 C 131.96 126.93 133.26 126.82 134.00 125.95 C 134.73 125.08 134.62 123.78 133.75 123.04 L 133.32 122.68 C 132.45 121.94 131.15 122.05 130.42 122.92 C 129.68 123.79 129.79 125.09 130.66 125.83 Z M 130.36 124.77 L 130.43 125.62 C 130.51 126.76 131.50 127.61 132.64 127.53 C 133.78 127.45 134.63 126.45 134.55 125.32 L 134.48 124.46 C 134.40 123.33 133.41 122.47 132.27 122.56 C 131.13 122.64 130.28 123.63 130.36 124.77 Z M 130.46 125.08 L 130.24 126.24 C 130.02 127.36 130.75 128.45 131.87 128.66 C 132.99 128.88 134.07 128.14 134.29 127.02 L 134.51 125.86 C 134.73 124.74 134.00 123.66 132.88 123.44 C 131.76 123.23 130.68 123.96 130.46 125.08 Z M 130.30 126.01 L 129.97 127.03 C 129.63 128.12 130.23 129.28 131.31 129.62 C 132.39 129.97 133.55 129.37 133.89 128.29 L 134.22 127.26 C 134.57 126.18 133.97 125.02 132.89 124.67 C 131.80 124.33 130.65 124.93 130.30 126.01 Z M 130.03 126.91 L 129.68 127.79 C 129.27 128.85 129.79 130.03 130.84 130.45 C 131.90 130.86 133.09 130.34 133.50 129.29 L 133.84 128.41 C 134.25 127.35 133.73 126.17 132.68 125.75 C 131.63 125.34 130.44 125.86 130.03 126.91 Z M 129.72 127.72 L 129.32 128.63 C 128.87 129.67 129.35 130.87 130.38 131.32 C 131.41 131.77 132.61 131.30 133.06 130.26 L 133.46 129.35 C 133.91 128.32 133.44 127.12 132.41 126.67 C 131.37 126.22 130.17 126.69 129.72 127.72 Z M 129.35 128.60 L 128.91 129.54 C 128.44 130.56 128.89 131.76 129.90 132.24 C 130.92 132.71 132.13 132.26 132.60 131.25 L 133.03 130.30 C 133.50 129.29 133.06 128.08 132.05 127.61 C 131.03 127.14 129.82 127.58 129.35 128.60 Z M 128.93 129.53 L 128.47 130.50 C 127.99 131.51 128.42 132.71 129.43 133.19 C 130.44 133.67 131.64 133.24 132.12 132.23 L 132.58 131.26 C 133.06 130.25 132.63 129.05 131.62 128.57 C 130.61 128.09 129.41 128.52 128.93 129.53 Z M 128.48 130.51 L 128.07 131.37 C 127.59 132.38 128.02 133.58 129.02 134.05 C 130.03 134.53 131.23 134.10 131.70 133.09 L 132.11 132.23 C 132.59 131.22 132.16 130.03 131.15 129.55 C 130.15 129.08 128.95 129.50 128.48 130.51 Z M 128.07 131.38 L 127.65 132.27 C 127.18 133.27 127.61 134.47 128.61 134.94 C 129.61 135.41 130.81 134.98 131.28 133.98 L 131.70 133.09 C 132.17 132.09 131.74 130.89 130.74 130.42 C 129.74 129.95 128.54 130.38 128.07 131.38 Z M 127.65 132.28 L 127.23 133.18 C 126.76 134.18 127.19 135.37 128.19 135.84 C 129.19 136.31 130.38 135.88 130.85 134.88 L 131.27 133.97 C 131.74 132.97 131.31 131.78 130.31 131.31 C 129.31 130.85 128.12 131.28 127.65 132.28 Z M 127.23 133.19 L 126.80 134.11 C 126.34 135.11 126.77 136.30 127.77 136.76 C 128.76 137.23 129.95 136.80 130.41 135.80 L 130.84 134.87 C 131.31 133.88 130.88 132.69 129.88 132.23 C 128.88 131.76 127.70 132.19 127.23 133.19 Z M 126.81 134.12 L 126.37 135.05 C 125.91 136.05 126.34 137.23 127.34 137.69 C 128.33 138.15 129.52 137.72 129.98 136.73 L 130.41 135.79 C 130.87 134.80 130.44 133.61 129.44 133.15 C 128.45 132.69 127.27 133.12 126.81 134.12 Z M 126.38 135.06 L 125.94 135.99 C 125.49 136.99 125.92 138.17 126.91 138.62 C 127.91 139.08 129.08 138.65 129.54 137.65 L 129.97 136.72 C 130.43 135.73 130.00 134.55 129.01 134.09 C 128.01 133.63 126.83 134.07 126.38 135.06 Z M 125.95 136.00 L 125.52 136.93 C 125.06 137.93 125.50 139.10 126.49 139.55 C 127.48 140.01 128.66 139.57 129.11 138.58 L 129.54 137.65 C 129.99 136.66 129.56 135.48 128.57 135.03 C 127.58 134.57 126.40 135.01 125.95 136.00 Z M 125.52 136.94 L 125.10 137.86 C 124.65 138.85 125.08 140.02 126.07 140.47 C 127.06 140.93 128.23 140.49 128.68 139.50 L 129.11 138.58 C 129.56 137.59 129.12 136.42 128.14 135.97 C 127.15 135.51 125.98 135.95 125.52 136.94 Z M 125.11 137.87 L 124.69 138.77 C 124.24 139.76 124.67 140.93 125.66 141.38 C 126.65 141.83 127.81 141.39 128.26 140.41 L 128.68 139.50 C 129.13 138.51 128.70 137.35 127.71 136.90 C 126.72 136.45 125.56 136.88 125.11 137.87 Z M 124.70 138.78 L 124.29 139.66 C 123.84 140.64 124.27 141.81 125.26 142.26 C 126.24 142.71 127.41 142.27 127.85 141.29 L 128.26 140.41 C 128.71 139.42 128.28 138.26 127.29 137.81 C 126.31 137.36 125.14 137.79 124.70 138.78 Z M 124.30 139.66 L 123.88 140.58 C 123.43 141.56 123.86 142.72 124.84 143.17 C 125.82 143.62 126.98 143.18 127.43 142.20 L 127.85 141.29 C 128.30 140.31 127.87 139.15 126.89 138.70 C 125.91 138.25 124.75 138.68 124.30 139.66 Z M 123.88 140.58 L 123.44 141.56 C 122.99 142.53 123.42 143.69 124.39 144.14 C 125.37 144.59 126.53 144.16 126.97 143.18 L 127.42 142.20 C 127.87 141.23 127.44 140.07 126.47 139.62 C 125.49 139.17 124.33 139.60 123.88 140.58 Z M 123.44 141.56 L 123.02 142.48 C 122.57 143.46 123.00 144.61 123.97 145.06 C 124.94 145.51 126.10 145.08 126.54 144.10 L 126.97 143.18 C 127.42 142.21 126.99 141.05 126.02 140.61 C 125.04 140.16 123.89 140.58 123.44 141.56 Z M 123.02 142.49 L 122.62 143.36 C 122.17 144.33 122.60 145.48 123.57 145.93 C 124.54 146.37 125.69 145.95 126.14 144.98 L 126.54 144.10 C 126.98 143.13 126.56 141.98 125.59 141.54 C 124.62 141.09 123.47 141.52 123.02 142.49 Z M 122.62 143.37 L 122.25 144.19 C 121.80 145.16 122.23 146.30 123.20 146.75 C 124.17 147.19 125.31 146.77 125.75 145.80 L 126.13 144.97 C 126.57 144.00 126.15 142.86 125.18 142.42 C 124.21 141.97 123.07 142.40 122.62 143.37 Z M 122.25 144.20 L 121.86 145.07 C 121.42 146.03 121.85 147.17 122.81 147.61 C 123.78 148.05 124.92 147.62 125.36 146.65 L 125.75 145.79 C 126.19 144.82 125.76 143.68 124.79 143.24 C 123.83 142.80 122.69 143.23 122.25 144.20 Z M 121.85 145.10 L 121.47 145.97 C 121.05 146.94 121.50 148.07 122.47 148.49 C 123.45 148.91 124.58 148.46 125.00 147.49 L 125.37 146.62 C 125.79 145.65 125.34 144.52 124.37 144.10 C 123.40 143.68 122.27 144.13 121.85 145.10 Z M 121.45 146.02 L 121.09 146.95 C 120.70 147.93 121.18 149.04 122.17 149.43 C 123.15 149.82 124.26 149.34 124.65 148.35 L 125.02 147.43 C 125.41 146.45 124.92 145.33 123.94 144.94 C 122.95 144.56 121.84 145.04 121.45 146.02 Z M 121.06 147.02 L 120.70 148.05 C 120.35 149.05 120.88 150.14 121.87 150.49 C 122.87 150.84 123.96 150.32 124.31 149.32 L 124.67 148.28 C 125.02 147.29 124.50 146.19 123.50 145.84 C 122.51 145.49 121.41 146.02 121.06 147.02 Z M 120.66 148.12 L 120.34 149.15 C 120.02 150.17 120.60 151.26 121.62 151.57 C 122.64 151.89 123.72 151.31 124.03 150.29 L 124.35 149.25 C 124.67 148.23 124.10 147.15 123.08 146.84 C 122.06 146.52 120.97 147.10 120.66 148.12 Z M 120.27 149.24 L 120.00 150.32 C 119.73 151.37 120.37 152.45 121.43 152.72 C 122.49 152.99 123.56 152.35 123.83 151.29 L 124.10 150.21 C 124.37 149.15 123.73 148.07 122.67 147.81 C 121.61 147.54 120.54 148.18 120.27 149.24 Z M 119.92 150.46 L 119.74 151.50 C 119.56 152.60 120.30 153.64 121.40 153.83 C 122.50 154.02 123.55 153.27 123.73 152.17 L 123.91 151.14 C 124.09 150.04 123.35 148.99 122.25 148.81 C 121.15 148.62 120.10 149.36 119.92 150.46 Z M 119.67 151.79 L 119.65 152.68 C 119.62 153.82 120.53 154.77 121.67 154.80 C 122.81 154.83 123.76 153.92 123.79 152.78 L 123.81 151.88 C 123.83 150.74 122.93 149.79 121.79 149.76 C 120.64 149.74 119.70 150.64 119.67 151.79 Z M 119.70 153.39 L 119.96 154.16 C 120.33 155.28 121.52 155.88 122.64 155.51 C 123.75 155.15 124.35 153.95 123.98 152.84 L 123.73 152.07 C 123.36 150.95 122.17 150.35 121.05 150.72 C 119.94 151.08 119.34 152.28 119.70 153.39 Z M 120.78 155.32 L 121.50 155.79 C 122.51 156.45 123.86 156.17 124.51 155.17 C 125.17 154.16 124.89 152.81 123.89 152.16 L 123.16 151.68 C 122.16 151.02 120.81 151.31 120.15 152.31 C 119.50 153.31 119.78 154.66 120.78 155.32 Z M 122.42 156.19 L 123.43 156.32 C 124.66 156.47 125.77 155.60 125.92 154.38 C 126.07 153.15 125.21 152.04 123.98 151.88 L 122.97 151.76 C 121.75 151.61 120.63 152.48 120.48 153.70 C 120.33 154.93 121.20 156.04 122.42 156.19 Z M 123.74 156.38 L 124.81 156.36 C 126.07 156.34 127.07 155.31 127.05 154.05 C 127.03 152.79 126.00 151.79 124.74 151.81 L 123.67 151.82 C 122.42 151.84 121.41 152.88 121.43 154.13 C 121.45 155.39 122.48 156.40 123.74 156.38 Z M 124.89 156.37 L 125.89 156.32 C 127.15 156.26 128.12 155.18 128.06 153.92 C 127.99 152.66 126.92 151.69 125.66 151.75 L 124.66 151.80 C 123.40 151.86 122.43 152.94 122.49 154.20 C 122.55 155.46 123.63 156.43 124.89 156.37 Z M 126.02 156.30 L 127.01 156.19 C 128.26 156.06 129.16 154.93 129.03 153.68 C 128.89 152.43 127.77 151.53 126.52 151.67 L 125.53 151.77 C 124.28 151.91 123.37 153.03 123.51 154.28 C 123.65 155.53 124.77 156.43 126.02 156.30 Z M 127.21 156.15 L 128.19 155.95 C 129.42 155.71 130.21 154.51 129.97 153.29 C 129.72 152.06 128.53 151.26 127.30 151.51 L 126.32 151.71 C 125.09 151.95 124.30 153.15 124.54 154.37 C 124.79 155.60 125.98 156.40 127.21 156.15 Z M 128.42 155.88 L 129.34 155.59 C 130.53 155.21 131.19 153.95 130.82 152.77 C 130.44 151.58 129.18 150.92 127.99 151.29 L 127.07 151.58 C 125.89 151.96 125.23 153.22 125.60 154.41 C 125.97 155.59 127.23 156.25 128.42 155.88 Z M 129.51 155.51 L 130.43 155.13 C 131.57 154.66 132.12 153.36 131.65 152.22 C 131.19 151.08 129.89 150.54 128.74 151.00 L 127.83 151.38 C 126.69 151.84 126.14 153.14 126.60 154.28 C 127.07 155.42 128.37 155.97 129.51 155.51 Z M 130.53 155.06 L 131.46 154.63 C 132.56 154.10 133.03 152.79 132.51 151.68 C 131.98 150.58 130.67 150.11 129.56 150.63 L 128.64 151.07 C 127.54 151.59 127.07 152.91 127.59 154.01 C 128.11 155.12 129.43 155.59 130.53 155.06 Z M 131.51 154.59 L 132.42 154.12 C 133.50 153.57 133.93 152.25 133.38 151.17 C 132.83 150.09 131.50 149.66 130.42 150.21 L 129.51 150.67 C 128.43 151.22 128.00 152.55 128.55 153.63 C 129.10 154.71 130.43 155.14 131.51 154.59 Z M 132.44 154.10 L 133.34 153.63 C 134.41 153.07 134.82 151.74 134.26 150.67 C 133.69 149.60 132.37 149.19 131.30 149.75 L 130.40 150.23 C 129.33 150.79 128.92 152.12 129.48 153.19 C 130.05 154.26 131.37 154.67 132.44 154.10 Z M 133.36 153.62 L 134.25 153.14 C 135.31 152.57 135.71 151.24 135.14 150.17 C 134.56 149.11 133.23 148.71 132.17 149.28 L 131.28 149.76 C 130.21 150.33 129.82 151.66 130.39 152.73 C 130.96 153.80 132.29 154.20 133.36 153.62 Z M 134.26 153.14 L 135.12 152.67 C 136.18 152.09 136.57 150.75 135.99 149.69 C 135.41 148.63 134.08 148.24 133.02 148.82 L 132.16 149.29 C 131.09 149.87 130.70 151.20 131.28 152.26 C 131.86 153.33 133.20 153.72 134.26 153.14 Z M 135.13 152.68 L 136.01 152.20 C 137.08 151.61 137.47 150.27 136.88 149.20 C 136.30 148.12 134.95 147.73 133.88 148.32 L 133.00 148.80 C 131.93 149.39 131.54 150.74 132.13 151.81 C 132.72 152.88 134.06 153.27 135.13 152.68 Z M 136.01 152.25 L 136.88 151.78 C 137.98 151.19 138.39 149.83 137.80 148.73 C 137.21 147.63 135.84 147.22 134.75 147.81 L 133.88 148.27 C 132.78 148.86 132.37 150.23 132.95 151.33 C 133.54 152.43 134.91 152.84 136.01 152.25 Z M 136.85 151.86 L 137.74 151.41 C 138.88 150.83 139.33 149.45 138.76 148.31 C 138.18 147.17 136.80 146.71 135.66 147.29 L 134.77 147.73 C 133.63 148.31 133.18 149.70 133.75 150.84 C 134.33 151.97 135.72 152.43 136.85 151.86 Z M 137.68 151.49 L 138.61 151.06 C 139.79 150.52 140.31 149.12 139.77 147.94 C 139.23 146.76 137.83 146.24 136.65 146.78 L 135.72 147.21 C 134.54 147.75 134.02 149.15 134.56 150.33 C 135.10 151.51 136.50 152.03 137.68 151.49 Z M 138.43 151.16 L 139.40 150.81 C 140.64 150.37 141.28 149.01 140.84 147.78 C 140.40 146.54 139.04 145.90 137.81 146.34 L 136.83 146.69 C 135.60 147.13 134.96 148.48 135.40 149.72 C 135.84 150.95 137.19 151.60 138.43 151.16 Z M 138.91 150.93 L 139.87 150.81 C 141.18 150.65 142.10 149.45 141.93 148.15 C 141.77 146.85 140.58 145.92 139.27 146.09 L 138.31 146.21 C 137.00 146.38 136.08 147.57 136.24 148.87 C 136.41 150.18 137.60 151.10 138.91 150.93 Z M 138.91 150.74 L 139.81 151.00 C 141.07 151.37 142.40 150.64 142.76 149.37 C 143.13 148.10 142.40 146.78 141.13 146.41 L 140.23 146.16 C 138.97 145.79 137.64 146.52 137.28 147.79 C 136.91 149.06 137.64 150.38 138.91 150.74 Z M 138.87 150.48 L 139.48 151.04 C 140.46 151.93 141.98 151.85 142.86 150.87 C 143.74 149.89 143.67 148.37 142.69 147.49 L 142.07 146.93 C 141.09 146.05 139.58 146.13 138.69 147.11 C 137.81 148.09 137.89 149.60 138.87 150.48 Z M 139.09 150.57 L 139.60 151.36 C 140.32 152.47 141.80 152.78 142.90 152.06 C 144.01 151.34 144.32 149.86 143.60 148.76 L 143.09 147.96 C 142.37 146.86 140.89 146.55 139.78 147.27 C 138.68 147.98 138.37 149.46 139.09 150.57 Z M 139.44 151.05 L 139.87 152.01 C 140.42 153.20 141.83 153.73 143.03 153.18 C 144.22 152.64 144.75 151.22 144.21 150.03 L 143.77 149.07 C 143.22 147.87 141.81 147.35 140.61 147.89 C 139.42 148.44 138.89 149.85 139.44 151.05 Z M 139.79 151.79 L 140.15 152.83 C 140.58 154.07 141.93 154.73 143.18 154.30 C 144.42 153.87 145.07 152.51 144.64 151.27 L 144.29 150.24 C 143.86 149.00 142.50 148.34 141.26 148.77 C 140.02 149.20 139.36 150.55 139.79 151.79 Z M 140.13 152.67 L 140.42 153.72 C 140.76 154.97 142.05 155.71 143.30 155.36 C 144.55 155.02 145.29 153.73 144.95 152.48 L 144.66 151.43 C 144.32 150.18 143.03 149.44 141.78 149.79 C 140.53 150.13 139.79 151.42 140.13 152.67 Z M 140.48 153.58 L 140.70 154.60 C 140.97 155.82 142.17 156.59 143.38 156.33 C 144.60 156.07 145.37 154.87 145.11 153.65 L 144.89 152.62 C 144.63 151.41 143.43 150.63 142.21 150.90 C 140.99 151.16 140.22 152.36 140.48 153.58 Z M 140.81 154.48 L 140.98 155.46 C 141.17 156.62 142.27 157.40 143.42 157.20 C 144.58 157.01 145.36 155.91 145.16 154.76 L 145.00 153.78 C 144.81 152.62 143.71 151.84 142.55 152.03 C 141.40 152.23 140.62 153.32 140.81 154.48 Z M 141.10 155.37 L 141.23 156.33 C 141.37 157.42 142.37 158.18 143.46 158.03 C 144.55 157.89 145.32 156.89 145.17 155.80 L 145.04 154.84 C 144.90 153.75 143.90 152.99 142.81 153.14 C 141.72 153.28 140.95 154.28 141.10 155.37 Z M 141.35 156.28 L 141.44 157.11 C 141.57 158.13 142.49 158.86 143.52 158.74 C 144.54 158.62 145.27 157.70 145.15 156.67 L 145.05 155.84 C 144.93 154.82 144.00 154.09 142.98 154.21 C 141.96 154.33 141.23 155.26 141.35 156.28 Z"
      fill="black"
      fill-rule="nonzero" /><path d="M 118.33 174.60 L 119.19 174.28 C 120.30 173.87 120.87 172.64 120.46 171.53 C 120.05 170.42 118.82 169.85 117.71 170.26 L 116.85 170.57 C 115.74 170.98 115.17 172.22 115.58 173.33 C 115.99 174.44 117.22 175.01 118.33 174.60 Z M 119.20 174.27 L 120.10 173.93 C 121.20 173.52 121.77 172.29 121.35 171.18 C 120.94 170.08 119.71 169.52 118.61 169.93 L 117.70 170.27 C 116.60 170.68 116.04 171.91 116.45 173.01 C 116.86 174.12 118.09 174.68 119.20 174.27 Z M 120.11 173.92 L 121.10 173.54 C 122.19 173.13 122.75 171.90 122.33 170.80 C 121.91 169.70 120.68 169.15 119.58 169.57 L 118.60 169.94 C 117.50 170.36 116.95 171.59 117.36 172.69 C 117.78 173.78 119.01 174.34 120.11 173.92 Z M 121.10 173.53 L 122.06 173.16 C 123.15 172.74 123.69 171.51 123.27 170.42 C 122.85 169.33 121.62 168.79 120.53 169.21 L 119.57 169.58 C 118.48 170.01 117.94 171.23 118.37 172.32 C 118.79 173.41 120.01 173.95 121.10 173.53 Z M 122.07 173.14 L 122.99 172.77 C 124.07 172.35 124.60 171.13 124.17 170.05 C 123.75 168.97 122.53 168.44 121.45 168.87 L 120.53 169.23 C 119.45 169.66 118.92 170.88 119.34 171.96 C 119.77 173.04 120.99 173.57 122.07 173.14 Z M 123.00 172.75 L 123.95 172.37 C 125.02 171.94 125.54 170.72 125.10 169.66 C 124.67 168.59 123.46 168.07 122.39 168.50 L 121.44 168.89 C 120.37 169.32 119.86 170.53 120.29 171.60 C 120.72 172.67 121.93 173.18 123.00 172.75 Z M 123.96 172.35 L 124.91 171.95 C 125.96 171.52 126.47 170.31 126.03 169.26 C 125.59 168.20 124.39 167.70 123.33 168.13 L 122.38 168.53 C 121.33 168.96 120.83 170.17 121.26 171.22 C 121.70 172.28 122.91 172.78 123.96 172.35 Z M 124.92 171.93 L 125.84 171.54 C 126.89 171.09 127.37 169.89 126.93 168.85 C 126.48 167.81 125.28 167.32 124.24 167.77 L 123.32 168.16 C 122.28 168.60 121.79 169.81 122.24 170.85 C 122.68 171.89 123.88 172.37 124.92 171.93 Z M 125.86 171.50 L 126.81 171.09 C 127.83 170.63 128.29 169.44 127.84 168.41 C 127.38 167.39 126.19 166.93 125.16 167.38 L 124.22 167.80 C 123.20 168.25 122.74 169.45 123.19 170.47 C 123.64 171.50 124.84 171.96 125.86 171.50 Z M 126.82 171.05 L 127.72 170.64 C 128.72 170.17 129.16 168.99 128.69 167.99 C 128.23 166.98 127.05 166.55 126.04 167.01 L 125.15 167.42 C 124.15 167.88 123.71 169.07 124.17 170.07 C 124.63 171.07 125.82 171.51 126.82 171.05 Z M 127.73 170.60 L 128.61 170.18 C 129.59 169.71 130.01 168.54 129.54 167.56 C 129.07 166.57 127.90 166.16 126.91 166.62 L 126.03 167.04 C 125.05 167.51 124.63 168.69 125.10 169.67 C 125.57 170.65 126.74 171.07 127.73 170.60 Z M 128.61 170.15 L 129.50 169.72 C 130.46 169.25 130.87 168.08 130.40 167.12 C 129.93 166.15 128.76 165.75 127.80 166.22 L 126.91 166.66 C 125.94 167.12 125.54 168.29 126.01 169.25 C 126.48 170.22 127.65 170.62 128.61 170.15 Z M 129.50 169.69 L 130.37 169.26 C 131.32 168.79 131.72 167.64 131.25 166.69 C 130.78 165.74 129.63 165.35 128.67 165.82 L 127.80 166.25 C 126.85 166.72 126.46 167.87 126.93 168.82 C 127.40 169.77 128.55 170.16 129.50 169.69 Z M 130.37 169.24 L 131.27 168.79 C 132.21 168.32 132.59 167.18 132.12 166.24 C 131.65 165.30 130.51 164.92 129.57 165.39 L 128.67 165.84 C 127.73 166.31 127.35 167.45 127.82 168.39 C 128.29 169.33 129.44 169.71 130.37 169.24 Z M 131.28 168.76 L 132.18 168.30 C 133.11 167.83 133.47 166.70 133.00 165.77 C 132.53 164.85 131.40 164.48 130.47 164.95 L 129.57 165.41 C 128.64 165.89 128.27 167.02 128.75 167.94 C 129.22 168.87 130.35 169.24 131.28 168.76 Z M 132.19 168.28 L 133.09 167.81 C 134.00 167.33 134.35 166.21 133.87 165.30 C 133.40 164.39 132.27 164.03 131.36 164.51 L 130.47 164.98 C 129.56 165.45 129.20 166.58 129.68 167.49 C 130.15 168.40 131.28 168.75 132.19 168.28 Z M 133.10 167.77 L 134.02 167.28 C 134.91 166.79 135.24 165.68 134.76 164.79 C 134.28 163.89 133.16 163.56 132.27 164.04 L 131.35 164.54 C 130.46 165.02 130.13 166.14 130.61 167.03 C 131.09 167.92 132.21 168.26 133.10 167.77 Z M 134.05 167.23 L 134.94 166.72 C 135.80 166.21 136.10 165.10 135.59 164.24 C 135.09 163.37 133.98 163.08 133.12 163.58 L 132.23 164.09 C 131.37 164.60 131.07 165.71 131.58 166.57 C 132.08 167.44 133.19 167.73 134.05 167.23 Z M 135.00 166.65 L 135.83 166.11 C 136.66 165.57 136.89 164.46 136.35 163.63 C 135.81 162.81 134.70 162.57 133.87 163.11 L 133.05 163.65 C 132.22 164.19 131.99 165.30 132.53 166.13 C 133.07 166.95 134.18 167.18 135.00 166.65 Z M 135.93 166.01 L 136.68 165.43 C 137.45 164.83 137.60 163.73 137.00 162.95 C 136.41 162.18 135.31 162.04 134.53 162.63 L 133.78 163.21 C 133.01 163.80 132.86 164.91 133.45 165.68 C 134.05 166.45 135.15 166.60 135.93 166.01 Z M 136.80 165.30 L 137.54 164.60 C 138.24 163.94 138.27 162.84 137.61 162.14 C 136.95 161.44 135.84 161.41 135.14 162.07 L 134.41 162.76 C 133.71 163.42 133.68 164.53 134.34 165.23 C 135.00 165.93 136.10 165.96 136.80 165.30 Z M 137.64 164.48 L 138.30 163.74 C 138.93 163.02 138.87 161.92 138.15 161.29 C 137.43 160.66 136.34 160.72 135.70 161.44 L 135.04 162.19 C 134.41 162.91 134.48 164.00 135.19 164.64 C 135.91 165.27 137.01 165.20 137.64 164.48 Z M 138.36 163.65 L 138.97 162.87 C 139.56 162.12 139.42 161.04 138.67 160.45 C 137.92 159.86 136.84 160.00 136.26 160.75 L 135.64 161.53 C 135.06 162.28 135.19 163.36 135.94 163.95 C 136.69 164.53 137.77 164.40 138.36 163.65 Z M 138.99 162.83 L 139.44 162.22 C 140.00 161.46 139.84 160.39 139.08 159.82 C 138.32 159.26 137.25 159.42 136.69 160.18 L 136.24 160.79 C 135.67 161.55 135.83 162.62 136.59 163.18 C 137.35 163.75 138.42 163.59 138.99 162.83 Z"
      fill="black"
      fill-rule="nonzero" /><path d="M 128.16 154.53 L 127.95 155.41 C 127.67 156.63 128.42 157.85 129.65 158.14 C 130.87 158.42 132.09 157.66 132.37 156.44 L 132.58 155.56 C 132.86 154.34 132.10 153.12 130.88 152.83 C 129.66 152.55 128.44 153.31 128.16 154.53 Z M 127.94 155.47 L 127.75 156.40 C 127.49 157.63 128.29 158.83 129.52 159.08 C 130.74 159.33 131.94 158.54 132.20 157.31 L 132.39 156.38 C 132.64 155.15 131.85 153.95 130.62 153.70 C 129.39 153.45 128.19 154.24 127.94 155.47 Z M 127.72 156.50 L 127.56 157.53 C 127.37 158.77 128.22 159.93 129.46 160.13 C 130.70 160.32 131.86 159.47 132.06 158.23 L 132.22 157.20 C 132.41 155.96 131.56 154.80 130.32 154.61 C 129.08 154.42 127.92 155.26 127.72 156.50 Z M 127.55 157.65 L 127.44 158.73 C 127.31 159.98 128.23 161.10 129.48 161.22 C 130.73 161.35 131.84 160.44 131.97 159.19 L 132.07 158.11 C 132.20 156.86 131.29 155.74 130.04 155.62 C 128.79 155.49 127.67 156.41 127.55 157.65 Z M 127.43 158.83 L 127.38 159.80 C 127.30 161.06 128.26 162.13 129.52 162.20 C 130.77 162.28 131.85 161.32 131.92 160.06 L 131.97 159.09 C 132.05 157.83 131.09 156.76 129.83 156.69 C 128.58 156.62 127.50 157.58 127.43 158.83 Z M 127.37 159.86 L 127.34 160.89 C 127.30 162.14 128.29 163.19 129.55 163.23 C 130.80 163.27 131.85 162.28 131.89 161.03 L 131.92 160.00 C 131.96 158.75 130.97 157.70 129.72 157.66 C 128.46 157.62 127.41 158.61 127.37 159.86 Z M 127.34 160.92 L 127.32 161.96 C 127.31 163.22 128.31 164.25 129.57 164.27 C 130.83 164.29 131.86 163.28 131.88 162.03 L 131.89 160.99 C 131.91 159.73 130.91 158.70 129.65 158.68 C 128.39 158.66 127.36 159.67 127.34 160.92 Z M 127.32 161.98 L 127.32 162.99 C 127.31 164.25 128.33 165.28 129.59 165.28 C 130.84 165.29 131.87 164.27 131.87 163.01 L 131.88 162.00 C 131.88 160.74 130.87 159.72 129.61 159.72 C 128.35 159.71 127.33 160.73 127.32 161.98 Z M 127.32 163.00 L 127.32 164.03 C 127.32 165.29 128.34 166.31 129.60 166.31 C 130.85 166.31 131.87 165.29 131.87 164.03 L 131.87 163.00 C 131.87 161.75 130.85 160.73 129.60 160.73 C 128.34 160.73 127.32 161.75 127.32 163.00 Z M 127.33 164.03 L 127.33 165.10 C 127.33 166.35 128.35 167.36 129.60 167.36 C 130.85 167.36 131.86 166.35 131.86 165.10 L 131.86 164.03 C 131.86 162.78 130.85 161.77 129.60 161.77 C 128.35 161.77 127.33 162.78 127.33 164.03 Z M 127.36 165.10 L 127.36 166.08 C 127.36 167.32 128.36 168.32 129.60 168.32 C 130.83 168.32 131.84 167.32 131.84 166.08 L 131.84 165.10 C 131.84 163.86 130.83 162.86 129.60 162.86 C 128.36 162.86 127.36 163.86 127.36 165.10 Z M 127.38 166.08 L 127.38 167.02 C 127.38 168.25 128.37 169.24 129.60 169.24 C 130.82 169.24 131.82 168.25 131.82 167.02 L 131.82 166.08 C 131.82 164.85 130.82 163.86 129.60 163.86 C 128.37 163.86 127.38 164.85 127.38 166.08 Z M 127.40 167.02 L 127.40 167.96 C 127.40 169.18 128.38 170.16 129.60 170.16 C 130.81 170.16 131.80 169.18 131.80 167.96 L 131.80 167.02 C 131.80 165.81 130.81 164.82 129.60 164.82 C 128.38 164.82 127.40 165.81 127.40 167.02 Z M 127.42 167.96 L 127.42 168.94 C 127.42 170.14 128.40 171.11 129.60 171.11 C 130.80 171.11 131.77 170.14 131.77 168.94 L 131.77 167.96 C 131.77 166.76 130.80 165.79 129.60 165.79 C 128.40 165.79 127.42 166.76 127.42 167.96 Z M 127.45 168.94 L 127.45 169.93 C 127.45 171.12 128.41 172.08 129.60 172.08 C 130.78 172.08 131.74 171.12 131.74 169.93 L 131.74 168.94 C 131.74 167.75 130.78 166.79 129.60 166.79 C 128.41 166.79 127.45 167.75 127.45 168.94 Z M 127.48 169.93 L 127.48 170.96 C 127.48 172.13 128.43 173.07 129.60 173.07 C 130.76 173.07 131.71 172.13 131.71 170.96 L 131.71 169.93 C 131.71 168.77 130.76 167.82 129.60 167.82 C 128.43 167.82 127.48 168.77 127.48 169.93 Z M 127.51 170.96 L 127.51 171.96 C 127.51 173.11 128.44 174.05 129.60 174.05 C 130.75 174.05 131.68 173.11 131.68 171.96 L 131.68 170.96 C 131.68 169.81 130.75 168.87 129.60 168.87 C 128.44 168.87 127.51 169.81 127.51 170.96 Z M 127.54 171.96 L 127.54 172.94 C 127.54 174.08 128.46 175.00 129.59 175.00 C 130.73 175.00 131.65 174.08 131.65 172.95 L 131.65 171.96 C 131.66 170.83 130.74 169.90 129.60 169.90 C 128.46 169.90 127.54 170.82 127.54 171.96 Z M 127.56 172.93 L 127.56 173.94 C 127.56 175.06 128.46 175.97 129.58 175.98 C 130.70 175.98 131.62 175.07 131.62 173.95 L 131.63 172.95 C 131.63 171.83 130.73 170.92 129.60 170.91 C 128.48 170.91 127.57 171.81 127.56 172.93 Z M 127.59 173.93 L 127.58 174.94 C 127.57 176.05 128.46 176.95 129.56 176.96 C 130.67 176.98 131.58 176.09 131.59 174.98 L 131.59 173.96 C 131.60 172.86 130.72 171.95 129.61 171.94 C 128.50 171.93 127.60 172.82 127.59 173.93 Z M 127.60 174.93 L 127.59 175.95 C 127.57 177.04 128.44 177.94 129.53 177.95 C 130.63 177.97 131.53 177.10 131.54 176.01 L 131.56 174.99 C 131.58 173.90 130.71 173.00 129.61 172.98 C 128.52 172.97 127.62 173.84 127.60 174.93 Z M 127.61 175.92 L 127.58 176.92 C 127.55 178.00 128.40 178.90 129.48 178.93 C 130.56 178.96 131.46 178.11 131.49 177.03 L 131.52 176.03 C 131.55 174.95 130.70 174.05 129.62 174.02 C 128.54 173.99 127.64 174.84 127.61 175.92 Z M 127.60 176.87 L 127.55 177.86 C 127.49 178.93 128.31 179.84 129.38 179.90 C 130.44 179.96 131.36 179.14 131.42 178.08 L 131.47 177.08 C 131.53 176.01 130.71 175.10 129.64 175.04 C 128.57 174.98 127.66 175.80 127.60 176.87 Z M 127.57 177.79 L 127.48 178.78 C 127.38 179.84 128.15 180.77 129.21 180.88 C 130.26 180.98 131.20 180.20 131.30 179.15 L 131.39 178.15 C 131.49 177.10 130.72 176.16 129.66 176.06 C 128.61 175.96 127.67 176.73 127.57 177.79 Z M 127.51 178.68 L 127.36 179.68 C 127.21 180.71 127.92 181.68 128.96 181.84 C 129.99 181.99 130.96 181.28 131.11 180.24 L 131.26 179.25 C 131.42 178.21 130.71 177.25 129.67 177.09 C 128.63 176.93 127.67 177.65 127.51 178.68 Z M 127.39 179.56 L 127.19 180.50 C 126.96 181.52 127.61 182.52 128.63 182.75 C 129.65 182.97 130.66 182.32 130.88 181.30 L 131.08 180.36 C 131.31 179.34 130.66 178.34 129.64 178.11 C 128.62 177.89 127.61 178.54 127.39 179.56 Z M 127.21 180.37 L 126.94 181.29 C 126.65 182.30 127.22 183.35 128.23 183.65 C 129.24 183.94 130.29 183.36 130.58 182.36 L 130.85 181.43 C 131.15 180.42 130.57 179.37 129.56 179.08 C 128.56 178.78 127.51 179.36 127.21 180.37 Z M 126.98 181.16 L 126.63 182.09 C 126.27 183.08 126.77 184.17 127.75 184.54 C 128.74 184.91 129.84 184.40 130.20 183.42 L 130.55 182.49 C 130.91 181.50 130.41 180.41 129.42 180.04 C 128.44 179.67 127.34 180.18 126.98 181.16 Z M 126.68 181.96 L 126.25 182.90 C 125.81 183.86 126.24 184.99 127.20 185.43 C 128.17 185.87 129.30 185.44 129.74 184.48 L 130.16 183.54 C 130.60 182.58 130.17 181.45 129.21 181.01 C 128.25 180.57 127.11 181.00 126.68 181.96 Z M 126.30 182.77 L 125.78 183.74 C 125.27 184.68 125.62 185.84 126.55 186.35 C 127.49 186.86 128.66 186.51 129.16 185.57 L 129.69 184.60 C 130.19 183.67 129.85 182.50 128.91 181.99 C 127.97 181.49 126.80 181.84 126.30 182.77 Z M 125.79 183.62 L 125.12 184.71 C 124.55 185.63 124.84 186.85 125.76 187.42 C 126.69 187.99 127.90 187.70 128.47 186.78 L 129.15 185.69 C 129.72 184.77 129.43 183.55 128.51 182.98 C 127.58 182.41 126.37 182.69 125.79 183.62 Z M 125.08 184.64 L 124.45 185.62 C 123.84 186.57 124.11 187.83 125.06 188.44 C 126.00 189.05 127.26 188.78 127.88 187.83 L 128.51 186.85 C 129.12 185.90 128.85 184.64 127.90 184.03 C 126.96 183.42 125.70 183.69 125.08 184.64 Z M 124.35 185.65 L 123.89 186.43 C 123.29 187.43 123.62 188.73 124.62 189.32 C 125.62 189.92 126.92 189.59 127.51 188.59 L 127.97 187.81 C 128.57 186.81 128.24 185.51 127.24 184.92 C 126.24 184.32 124.94 184.65 124.35 185.65 Z M 123.63 186.85 L 123.47 187.33 C 123.11 188.48 123.75 189.70 124.89 190.06 C 126.03 190.42 127.26 189.79 127.62 188.64 L 127.77 188.17 C 128.13 187.02 127.50 185.80 126.36 185.44 C 125.21 185.07 123.99 185.71 123.63 186.85 Z M 125.30 190.18 L 125.71 190.23 C 126.93 190.36 128.02 189.49 128.15 188.28 C 128.29 187.07 127.42 185.98 126.21 185.84 L 125.79 185.79 C 124.58 185.66 123.49 186.53 123.35 187.74 C 123.22 188.95 124.09 190.04 125.30 190.18 Z M 126.87 190.05 L 127.81 189.63 C 128.93 189.13 129.43 187.82 128.93 186.71 C 128.43 185.59 127.12 185.09 126.00 185.59 L 125.06 186.02 C 123.94 186.51 123.44 187.82 123.94 188.94 C 124.44 190.05 125.75 190.55 126.87 190.05 Z M 127.95 189.57 L 129.20 188.90 C 130.28 188.33 130.69 186.99 130.11 185.91 C 129.53 184.82 128.19 184.42 127.11 184.99 L 125.87 185.65 C 124.79 186.23 124.38 187.57 124.95 188.65 C 125.53 189.73 126.87 190.14 127.95 189.57 Z M 129.19 188.90 L 130.08 188.43 C 131.15 187.85 131.56 186.52 130.99 185.44 C 130.41 184.36 129.08 183.95 128.00 184.53 L 127.11 185.00 C 126.04 185.57 125.63 186.91 126.20 187.99 C 126.78 189.06 128.12 189.47 129.19 188.90 Z M 130.06 188.42 L 130.97 187.94 C 132.04 187.37 132.45 186.04 131.89 184.97 C 131.32 183.90 129.99 183.49 128.92 184.06 L 128.01 184.54 C 126.94 185.10 126.53 186.43 127.10 187.50 C 127.66 188.57 128.99 188.98 130.06 188.42 Z M 130.97 187.92 L 131.87 187.44 C 132.94 186.88 133.34 185.56 132.77 184.49 C 132.21 183.43 130.89 183.03 129.83 183.59 L 128.92 184.07 C 127.86 184.64 127.46 185.96 128.02 187.02 C 128.59 188.08 129.91 188.49 130.97 187.92 Z M 131.88 187.42 L 132.75 186.95 C 133.80 186.38 134.20 185.07 133.63 184.02 C 133.06 182.97 131.75 182.57 130.70 183.14 L 129.82 183.61 C 128.77 184.18 128.38 185.49 128.95 186.54 C 129.51 187.59 130.83 187.99 131.88 187.42 Z M 132.76 186.92 L 133.63 186.44 C 134.66 185.86 135.03 184.56 134.46 183.53 C 133.89 182.49 132.58 182.12 131.55 182.69 L 130.69 183.17 C 129.65 183.75 129.28 185.05 129.85 186.08 C 130.43 187.12 131.73 187.49 132.76 186.92 Z M 133.64 186.37 L 134.57 185.83 C 135.56 185.25 135.90 183.97 135.32 182.97 C 134.74 181.98 133.46 181.64 132.46 182.22 L 131.53 182.76 C 130.54 183.34 130.20 184.62 130.78 185.62 C 131.36 186.62 132.64 186.95 133.64 186.37 Z M 134.58 185.74 L 135.42 185.22 C 136.37 184.63 136.66 183.39 136.07 182.44 C 135.48 181.49 134.24 181.20 133.29 181.79 L 132.45 182.31 C 131.50 182.90 131.21 184.14 131.80 185.09 C 132.39 186.04 133.63 186.33 134.58 185.74 Z M 135.43 185.13 L 136.22 184.61 C 137.11 184.01 137.36 182.80 136.76 181.91 C 136.17 181.01 134.96 180.77 134.07 181.36 L 133.28 181.88 C 132.38 182.48 132.14 183.68 132.73 184.58 C 133.33 185.48 134.53 185.72 135.43 185.13 Z M 136.23 184.52 L 136.99 183.98 C 137.84 183.38 138.05 182.20 137.45 181.36 C 136.85 180.51 135.67 180.30 134.82 180.90 L 134.06 181.45 C 133.21 182.05 133.01 183.22 133.60 184.07 C 134.20 184.92 135.38 185.12 136.23 184.52 Z M 137.01 183.91 L 137.78 183.33 C 138.59 182.72 138.76 181.57 138.15 180.76 C 137.54 179.95 136.39 179.79 135.58 180.40 L 134.81 180.97 C 134.00 181.58 133.83 182.73 134.44 183.54 C 135.05 184.35 136.20 184.52 137.01 183.91 Z M 137.80 183.27 L 138.58 182.65 C 139.36 182.03 139.48 180.90 138.86 180.12 C 138.24 179.34 137.11 179.21 136.33 179.84 L 135.55 180.46 C 134.78 181.08 134.65 182.21 135.27 182.99 C 135.89 183.77 137.02 183.89 137.80 183.27 Z M 138.60 182.59 L 139.39 181.92 C 140.13 181.29 140.22 180.17 139.59 179.43 C 138.96 178.68 137.84 178.59 137.10 179.23 L 136.31 179.90 C 135.57 180.53 135.48 181.65 136.11 182.39 C 136.74 183.13 137.86 183.22 138.60 182.59 Z M 139.41 181.87 L 140.15 181.20 C 140.87 180.55 140.93 179.45 140.28 178.74 C 139.64 178.02 138.54 177.96 137.82 178.61 L 137.08 179.28 C 136.36 179.92 136.31 181.02 136.95 181.74 C 137.60 182.45 138.70 182.51 139.41 181.87 Z M 140.17 181.16 L 140.88 180.49 C 141.58 179.84 141.61 178.74 140.96 178.05 C 140.30 177.35 139.21 177.32 138.51 177.97 L 137.80 178.64 C 137.10 179.30 137.07 180.40 137.73 181.09 C 138.38 181.79 139.48 181.82 140.17 181.16 Z M 140.90 180.47 L 141.62 179.77 C 142.30 179.11 142.32 178.01 141.65 177.33 C 140.99 176.65 139.90 176.63 139.22 177.30 L 138.50 178.00 C 137.81 178.66 137.80 179.75 138.46 180.43 C 139.13 181.12 140.22 181.13 140.90 180.47 Z M 141.63 179.75 L 142.35 179.03 C 143.03 178.37 143.03 177.28 142.37 176.60 C 141.70 175.93 140.61 175.93 139.94 176.59 L 139.21 177.31 C 138.54 177.98 138.53 179.07 139.20 179.74 C 139.87 180.41 140.95 180.42 141.63 179.75 Z M 142.35 179.02 L 142.97 178.41 C 143.64 177.74 143.64 176.66 142.97 175.99 C 142.30 175.32 141.22 175.32 140.55 175.99 L 139.94 176.60 C 139.27 177.27 139.27 178.35 139.93 179.02 C 140.60 179.69 141.69 179.69 142.35 179.02 Z"
      fill="black"
      fill-rule="nonzero" /><path d="M 161.27 101.12 L 161.01 102.02 C 160.62 103.32 161.36 104.68 162.66 105.06 C 163.95 105.44 165.31 104.70 165.69 103.41 L 165.96 102.50 C 166.34 101.21 165.60 99.85 164.31 99.46 C 163.01 99.08 161.66 99.82 161.27 101.12 Z M 160.99 102.08 L 160.73 103.02 C 160.38 104.33 161.16 105.67 162.46 106.02 C 163.77 106.37 165.11 105.60 165.46 104.29 L 165.71 103.35 C 166.06 102.04 165.29 100.70 163.98 100.35 C 162.68 100.00 161.34 100.78 160.99 102.08 Z M 160.71 103.13 L 160.48 104.15 C 160.19 105.47 161.03 106.77 162.35 107.06 C 163.67 107.35 164.98 106.51 165.27 105.19 L 165.49 104.18 C 165.78 102.86 164.94 101.56 163.62 101.27 C 162.30 100.98 160.99 101.81 160.71 103.13 Z M 160.47 104.28 L 160.31 105.26 C 160.09 106.59 161.00 107.84 162.33 108.05 C 163.66 108.27 164.91 107.37 165.13 106.04 L 165.28 105.06 C 165.50 103.73 164.59 102.48 163.26 102.26 C 161.93 102.05 160.68 102.95 160.47 104.28 Z M 160.32 105.36 L 160.20 106.31 C 160.04 107.63 160.99 108.84 162.31 109.00 C 163.64 109.16 164.84 108.21 165.00 106.89 L 165.12 105.93 C 165.28 104.61 164.33 103.41 163.01 103.25 C 161.68 103.09 160.48 104.03 160.32 105.36 Z M 160.23 106.36 L 160.13 107.36 C 160.00 108.68 160.95 109.85 162.27 109.98 C 163.58 110.11 164.75 109.15 164.88 107.84 L 164.98 106.83 C 165.11 105.52 164.15 104.35 162.84 104.22 C 161.53 104.09 160.36 105.05 160.23 106.36 Z M 160.16 107.38 L 160.06 108.42 C 159.94 109.72 160.89 110.87 162.19 110.99 C 163.48 111.11 164.63 110.15 164.75 108.86 L 164.85 107.82 C 164.97 106.52 164.02 105.37 162.72 105.25 C 161.42 105.13 160.28 106.09 160.16 107.38 Z M 160.09 108.41 L 159.98 109.43 C 159.86 110.71 160.79 111.86 162.07 111.98 C 163.35 112.11 164.50 111.18 164.62 109.89 L 164.73 108.87 C 164.85 107.59 163.92 106.45 162.64 106.32 C 161.35 106.19 160.21 107.13 160.09 108.41 Z M 160.00 109.41 L 159.89 110.37 C 159.75 111.64 160.67 112.78 161.94 112.93 C 163.21 113.07 164.35 112.15 164.50 110.88 L 164.61 109.92 C 164.75 108.65 163.83 107.50 162.56 107.36 C 161.29 107.22 160.15 108.13 160.00 109.41 Z M 159.90 110.34 L 159.78 111.32 C 159.63 112.58 160.52 113.73 161.79 113.89 C 163.05 114.05 164.21 113.15 164.37 111.89 L 164.49 110.91 C 164.64 109.65 163.75 108.49 162.48 108.33 C 161.22 108.18 160.06 109.07 159.90 110.34 Z M 159.79 111.29 L 159.66 112.29 C 159.49 113.55 160.37 114.71 161.63 114.88 C 162.89 115.05 164.05 114.17 164.22 112.91 L 164.35 111.91 C 164.53 110.65 163.64 109.49 162.38 109.32 C 161.12 109.15 159.96 110.03 159.79 111.29 Z M 159.67 112.27 L 159.52 113.29 C 159.34 114.54 160.21 115.70 161.46 115.89 C 162.71 116.07 163.88 115.20 164.06 113.95 L 164.21 112.93 C 164.39 111.67 163.52 110.51 162.27 110.33 C 161.02 110.14 159.85 111.01 159.67 112.27 Z M 159.53 113.27 L 159.38 114.26 C 159.18 115.51 160.04 116.68 161.29 116.87 C 162.54 117.07 163.71 116.21 163.90 114.96 L 164.05 113.97 C 164.24 112.72 163.39 111.55 162.14 111.36 C 160.89 111.16 159.72 112.02 159.53 113.27 Z M 159.38 114.25 L 159.22 115.22 C 159.02 116.47 159.87 117.64 161.12 117.84 C 162.37 118.04 163.54 117.19 163.74 115.95 L 163.89 114.97 C 164.09 113.73 163.25 112.55 162.00 112.35 C 160.75 112.15 159.58 113.00 159.38 114.25 Z M 159.23 115.21 L 159.06 116.20 C 158.86 117.44 159.70 118.62 160.94 118.83 C 162.19 119.03 163.37 118.19 163.57 116.95 L 163.74 115.96 C 163.94 114.71 163.10 113.54 161.86 113.33 C 160.61 113.12 159.43 113.96 159.23 115.21 Z M 159.06 116.19 L 158.90 117.19 C 158.68 118.43 159.52 119.61 160.76 119.82 C 162.01 120.03 163.19 119.20 163.40 117.95 L 163.57 116.96 C 163.78 115.71 162.94 114.53 161.70 114.32 C 160.46 114.11 159.28 114.95 159.06 116.19 Z M 158.90 117.18 L 158.72 118.18 C 158.51 119.42 159.34 120.60 160.58 120.82 C 161.83 121.03 163.01 120.20 163.22 118.96 L 163.40 117.96 C 163.61 116.72 162.78 115.53 161.54 115.32 C 160.30 115.10 159.11 115.94 158.90 117.18 Z M 158.73 118.17 L 158.55 119.15 C 158.33 120.39 159.16 121.58 160.41 121.80 C 161.65 122.01 162.83 121.19 163.05 119.94 L 163.22 118.96 C 163.44 117.72 162.61 116.54 161.37 116.32 C 160.13 116.10 158.94 116.93 158.73 118.17 Z M 158.55 119.15 L 158.39 120.08 C 158.16 121.32 158.99 122.51 160.23 122.73 C 161.47 122.95 162.66 122.13 162.88 120.89 L 163.05 119.95 C 163.27 118.71 162.45 117.52 161.20 117.30 C 159.96 117.08 158.78 117.90 158.55 119.15 Z M 158.39 120.07 L 158.21 121.01 C 157.98 122.25 158.80 123.45 160.04 123.68 C 161.29 123.91 162.48 123.08 162.71 121.84 L 162.88 120.90 C 163.11 119.66 162.29 118.47 161.05 118.24 C 159.81 118.01 158.62 118.83 158.39 120.07 Z M 158.21 120.99 L 158.03 121.96 C 157.79 123.20 158.60 124.40 159.84 124.64 C 161.08 124.88 162.28 124.07 162.52 122.83 L 162.71 121.86 C 162.95 120.62 162.14 119.42 160.89 119.18 C 159.65 118.94 158.45 119.75 158.21 120.99 Z M 158.03 121.93 L 157.83 122.93 C 157.57 124.17 158.37 125.38 159.61 125.63 C 160.85 125.89 162.06 125.09 162.31 123.85 L 162.52 122.85 C 162.77 121.61 161.97 120.40 160.73 120.15 C 159.49 119.89 158.28 120.69 158.03 121.93 Z M 157.83 122.90 L 157.60 123.95 C 157.33 125.18 158.12 126.40 159.36 126.67 C 160.59 126.94 161.81 126.16 162.08 124.92 L 162.31 123.88 C 162.58 122.64 161.79 121.42 160.56 121.15 C 159.32 120.88 158.10 121.67 157.83 122.90 Z M 157.61 123.92 L 157.37 124.93 C 157.09 126.17 157.86 127.40 159.09 127.68 C 160.33 127.97 161.56 127.20 161.85 125.96 L 162.08 124.95 C 162.36 123.71 161.59 122.48 160.36 122.20 C 159.12 121.91 157.89 122.68 157.61 123.92 Z M 157.37 124.91 L 157.13 125.92 C 156.83 127.16 157.59 128.40 158.83 128.69 C 160.06 128.99 161.30 128.23 161.60 127.00 L 161.84 125.99 C 162.14 124.75 161.38 123.51 160.15 123.21 C 158.91 122.92 157.67 123.68 157.37 124.91 Z M 157.13 125.90 L 156.88 126.92 C 156.57 128.16 157.32 129.41 158.55 129.72 C 159.79 130.02 161.04 129.27 161.35 128.04 L 161.60 127.02 C 161.91 125.78 161.16 124.53 159.92 124.23 C 158.69 123.92 157.44 124.67 157.13 125.90 Z M 156.88 126.91 L 156.62 127.92 C 156.30 129.15 157.05 130.41 158.28 130.72 C 159.52 131.04 160.77 130.29 161.09 129.06 L 161.35 128.05 C 161.66 126.82 160.92 125.56 159.68 125.25 C 158.45 124.93 157.19 125.68 156.88 126.91 Z M 156.62 127.90 L 156.37 128.87 C 156.04 130.10 156.78 131.37 158.02 131.69 C 159.25 132.01 160.51 131.27 160.84 130.04 L 161.09 129.07 C 161.41 127.84 160.67 126.58 159.44 126.25 C 158.20 125.93 156.94 126.67 156.62 127.90 Z M 156.36 128.86 L 156.12 129.76 C 155.79 131.00 156.53 132.26 157.76 132.59 C 159.00 132.92 160.26 132.19 160.59 130.96 L 160.84 130.05 C 161.17 128.82 160.43 127.55 159.20 127.22 C 157.96 126.89 156.69 127.62 156.36 128.86 Z M 156.12 129.75 L 155.85 130.76 C 155.51 131.99 156.24 133.27 157.47 133.60 C 158.71 133.94 159.98 133.21 160.32 131.98 L 160.59 130.97 C 160.93 129.73 160.20 128.46 158.97 128.12 C 157.73 127.79 156.46 128.51 156.12 129.75 Z M 155.85 130.74 L 155.55 131.83 C 155.20 133.06 155.92 134.34 157.15 134.69 C 158.38 135.03 159.66 134.31 160.01 133.08 L 160.32 132.00 C 160.66 130.76 159.94 129.48 158.71 129.14 C 157.48 128.79 156.20 129.51 155.85 130.74 Z M 155.55 131.81 L 155.28 132.74 C 154.93 133.97 155.64 135.25 156.87 135.61 C 158.10 135.96 159.38 135.25 159.74 134.02 L 160.01 133.10 C 160.36 131.87 159.65 130.58 158.42 130.23 C 157.19 129.87 155.91 130.58 155.55 131.81 Z M 155.29 132.73 L 155.04 133.56 C 154.68 134.79 155.39 136.08 156.62 136.44 C 157.84 136.80 159.13 136.09 159.49 134.86 L 159.74 134.03 C 160.10 132.80 159.39 131.51 158.16 131.15 C 156.93 130.79 155.65 131.50 155.29 132.73 Z M 155.05 133.57 L 154.75 134.59 C 154.40 135.81 155.11 137.09 156.33 137.45 C 157.56 137.80 158.84 137.10 159.19 135.87 L 159.49 134.85 C 159.84 133.63 159.14 132.35 157.91 131.99 C 156.68 131.64 155.40 132.34 155.05 133.57 Z M 154.74 134.75 L 154.50 135.85 C 154.24 137.09 155.03 138.30 156.26 138.57 C 157.50 138.83 158.71 138.04 158.98 136.81 L 159.21 135.71 C 159.47 134.47 158.69 133.26 157.45 132.99 C 156.22 132.73 155.00 133.52 154.74 134.75 Z M 154.51 136.68 L 154.62 137.38 C 154.82 138.61 155.97 139.45 157.21 139.25 C 158.44 139.05 159.27 137.90 159.08 136.67 L 158.97 135.97 C 158.77 134.74 157.61 133.90 156.38 134.10 C 155.15 134.30 154.31 135.45 154.51 136.68 Z M 156.56 139.22 L 157.16 139.31 C 158.38 139.47 159.50 138.61 159.66 137.40 C 159.82 136.18 158.97 135.06 157.75 134.90 L 157.14 134.82 C 155.93 134.66 154.81 135.51 154.65 136.73 C 154.49 137.95 155.34 139.06 156.56 139.22 Z M 158.27 139.13 L 159.26 138.73 C 160.38 138.28 160.92 137.01 160.47 135.89 C 160.02 134.77 158.75 134.23 157.63 134.68 L 156.64 135.08 C 155.52 135.53 154.98 136.80 155.43 137.92 C 155.88 139.04 157.15 139.58 158.27 139.13 Z M 159.50 138.58 L 160.54 138.00 C 161.57 137.42 161.94 136.11 161.36 135.07 C 160.78 134.03 159.46 133.67 158.43 134.25 L 157.39 134.83 C 156.36 135.41 155.99 136.72 156.57 137.76 C 157.15 138.79 158.46 139.16 159.50 138.58 Z M 160.61 137.95 L 161.40 137.46 C 162.40 136.84 162.71 135.52 162.09 134.51 C 161.47 133.50 160.15 133.19 159.14 133.81 L 158.36 134.30 C 157.35 134.92 157.04 136.24 157.66 137.25 C 158.28 138.26 159.60 138.57 160.61 137.95 Z M 161.42 137.45 L 162.25 136.92 C 163.25 136.28 163.55 134.95 162.91 133.95 C 162.27 132.95 160.94 132.66 159.94 133.30 L 159.11 133.83 C 158.11 134.46 157.82 135.79 158.46 136.79 C 159.10 137.79 160.42 138.09 161.42 137.45 Z M 162.26 136.93 L 163.14 136.36 C 164.14 135.72 164.43 134.39 163.79 133.39 C 163.15 132.38 161.82 132.09 160.82 132.73 L 159.94 133.29 C 158.93 133.93 158.64 135.27 159.28 136.27 C 159.92 137.27 161.25 137.57 162.26 136.93 Z M 163.12 136.38 L 164.04 135.81 C 165.05 135.18 165.36 133.85 164.73 132.83 C 164.10 131.82 162.77 131.51 161.75 132.14 L 160.83 132.71 C 159.82 133.34 159.51 134.68 160.14 135.69 C 160.77 136.70 162.11 137.01 163.12 136.38 Z M 164.01 135.84 L 164.88 135.32 C 165.91 134.71 166.24 133.37 165.63 132.34 C 165.01 131.31 163.68 130.98 162.65 131.59 L 161.78 132.11 C 160.75 132.72 160.41 134.06 161.03 135.09 C 161.65 136.12 162.98 136.46 164.01 135.84 Z M 164.84 135.36 L 165.73 134.86 C 166.79 134.26 167.16 132.93 166.56 131.88 C 165.97 130.82 164.63 130.45 163.58 131.05 L 162.68 131.55 C 161.63 132.15 161.26 133.48 161.86 134.54 C 162.45 135.59 163.79 135.96 164.84 135.36 Z M 165.68 134.90 L 166.58 134.43 C 167.66 133.87 168.08 132.53 167.51 131.45 C 166.95 130.38 165.61 129.96 164.54 130.53 L 163.63 131.00 C 162.55 131.57 162.14 132.90 162.70 133.98 C 163.27 135.05 164.60 135.47 165.68 134.90 Z M 166.51 134.49 L 167.40 134.07 C 168.51 133.54 168.98 132.22 168.46 131.11 C 167.93 130.00 166.61 129.53 165.50 130.05 L 164.61 130.47 C 163.50 131.00 163.03 132.32 163.55 133.43 C 164.08 134.54 165.40 135.01 166.51 134.49 Z M 167.28 134.15 L 168.28 133.75 C 169.43 133.29 169.99 131.99 169.53 130.83 C 169.08 129.68 167.77 129.12 166.62 129.58 L 165.62 129.97 C 164.47 130.43 163.90 131.73 164.36 132.89 C 164.82 134.04 166.13 134.60 167.28 134.15 Z M 168.03 133.89 L 169.15 133.59 C 170.38 133.27 171.11 132.01 170.78 130.78 C 170.46 129.55 169.20 128.82 167.97 129.14 L 166.86 129.44 C 165.63 129.76 164.90 131.02 165.22 132.25 C 165.55 133.48 166.81 134.21 168.03 133.89 Z M 168.60 133.74 L 169.52 133.73 C 170.84 133.71 171.88 132.63 171.86 131.32 C 171.84 130.00 170.76 128.96 169.45 128.98 L 168.52 128.99 C 167.21 129.02 166.16 130.10 166.18 131.41 C 166.20 132.72 167.29 133.76 168.60 133.74 Z M 168.41 133.55 L 169.09 133.88 C 170.30 134.48 171.76 133.98 172.36 132.77 C 172.96 131.56 172.46 130.09 171.25 129.49 L 170.57 129.16 C 169.35 128.56 167.89 129.06 167.29 130.27 C 166.70 131.49 167.19 132.95 168.41 133.55 Z M 168.00 132.91 L 168.40 133.62 C 169.08 134.81 170.59 135.23 171.78 134.56 C 172.98 133.89 173.40 132.37 172.73 131.18 L 172.33 130.47 C 171.66 129.27 170.14 128.85 168.95 129.53 C 167.75 130.20 167.33 131.71 168.00 132.91 Z M 168.12 132.87 L 168.31 133.85 C 168.57 135.20 169.88 136.08 171.23 135.82 C 172.58 135.56 173.46 134.26 173.20 132.91 L 173.01 131.93 C 172.75 130.58 171.44 129.69 170.09 129.95 C 168.74 130.21 167.86 131.52 168.12 132.87 Z M 168.26 133.52 L 168.33 134.64 C 168.41 136.02 169.59 137.07 170.96 136.99 C 172.34 136.91 173.39 135.73 173.31 134.36 L 173.25 133.24 C 173.17 131.86 171.99 130.81 170.61 130.89 C 169.24 130.97 168.18 132.15 168.26 133.52 Z M 168.32 134.54 L 168.34 135.57 C 168.36 136.95 169.50 138.05 170.88 138.02 C 172.26 138.00 173.36 136.86 173.34 135.48 L 173.32 134.46 C 173.29 133.08 172.16 131.98 170.78 132.00 C 169.40 132.03 168.30 133.16 168.32 134.54 Z M 168.34 135.50 L 168.33 136.47 C 168.32 137.86 169.43 138.98 170.81 139.00 C 172.19 139.01 173.32 137.90 173.33 136.52 L 173.34 135.54 C 173.35 134.16 172.24 133.04 170.86 133.02 C 169.48 133.01 168.35 134.12 168.34 135.50 Z M 168.33 136.36 L 168.28 137.35 C 168.21 138.73 169.26 139.91 170.64 139.98 C 172.02 140.06 173.20 139.00 173.27 137.62 L 173.33 136.63 C 173.40 135.25 172.34 134.07 170.96 134.00 C 169.58 133.93 168.40 134.98 168.33 136.36 Z M 168.29 137.20 L 168.17 138.23 C 168.02 139.61 169.00 140.85 170.38 141.00 C 171.75 141.16 172.99 140.17 173.14 138.80 L 173.26 137.77 C 173.42 136.39 172.43 135.16 171.06 135.00 C 169.69 134.84 168.45 135.83 168.29 137.20 Z M 168.20 138.08 L 168.02 139.07 C 167.77 140.43 168.68 141.73 170.04 141.98 C 171.40 142.22 172.70 141.31 172.94 139.95 L 173.12 138.96 C 173.37 137.60 172.46 136.30 171.10 136.05 C 169.74 135.81 168.44 136.72 168.20 138.08 Z M 168.04 138.95 L 167.81 139.95 C 167.50 141.30 168.35 142.64 169.69 142.95 C 171.04 143.26 172.38 142.42 172.69 141.07 L 172.92 140.07 C 173.23 138.72 172.39 137.38 171.04 137.07 C 169.69 136.76 168.35 137.61 168.04 138.95 Z M 167.83 139.87 L 167.57 140.87 C 167.22 142.20 168.02 143.57 169.35 143.93 C 170.69 144.28 172.06 143.48 172.41 142.14 L 172.67 141.15 C 173.03 139.81 172.23 138.44 170.89 138.09 C 169.55 137.74 168.18 138.54 167.83 139.87 Z M 167.58 140.82 L 167.31 141.77 C 166.93 143.10 167.70 144.49 169.03 144.87 C 170.36 145.25 171.74 144.48 172.13 143.15 L 172.40 142.19 C 172.78 140.86 172.01 139.48 170.68 139.10 C 169.35 138.72 167.96 139.49 167.58 140.82 Z M 167.32 141.74 L 167.03 142.71 C 166.63 144.04 167.38 145.44 168.71 145.83 C 170.03 146.23 171.43 145.48 171.83 144.15 L 172.12 143.18 C 172.51 141.85 171.76 140.46 170.44 140.06 C 169.11 139.66 167.71 140.42 167.32 141.74 Z M 167.03 142.70 L 166.72 143.71 C 166.31 145.04 167.05 146.44 168.38 146.84 C 169.70 147.25 171.10 146.51 171.51 145.19 L 171.82 144.17 C 172.23 142.85 171.49 141.44 170.16 141.04 C 168.84 140.63 167.44 141.37 167.03 142.70 Z M 166.73 143.69 L 166.43 144.61 C 166.01 145.93 166.74 147.34 168.06 147.76 C 169.38 148.18 170.79 147.45 171.21 146.13 L 171.50 145.21 C 171.92 143.89 171.20 142.48 169.88 142.06 C 168.56 141.64 167.15 142.37 166.73 143.69 Z M 166.44 144.58 L 166.15 145.45 C 165.71 146.76 166.42 148.18 167.73 148.62 C 169.05 149.06 170.47 148.35 170.91 147.04 L 171.20 146.16 C 171.64 144.85 170.93 143.43 169.61 142.99 C 168.30 142.55 166.88 143.26 166.44 144.58 Z M 166.16 145.41 L 165.84 146.34 C 165.38 147.64 166.07 149.08 167.38 149.53 C 168.69 149.99 170.12 149.30 170.58 147.99 L 170.90 147.07 C 171.35 145.76 170.66 144.33 169.36 143.87 C 168.05 143.41 166.62 144.10 166.16 145.41 Z M 165.85 146.31 L 165.51 147.24 C 165.04 148.55 165.71 149.99 167.01 150.46 C 168.32 150.93 169.76 150.26 170.23 148.95 L 170.57 148.02 C 171.04 146.72 170.36 145.28 169.06 144.80 C 167.76 144.33 166.32 145.01 165.85 146.31 Z M 165.51 147.22 L 165.16 148.18 C 164.68 149.48 165.34 150.92 166.64 151.41 C 167.94 151.89 169.39 151.23 169.87 149.93 L 170.22 148.97 C 170.70 147.67 170.04 146.23 168.74 145.74 C 167.44 145.26 166.00 145.92 165.51 147.22 Z M 165.16 148.17 L 164.82 149.09 C 164.33 150.38 164.99 151.83 166.28 152.32 C 167.58 152.81 169.03 152.15 169.52 150.86 L 169.86 149.94 C 170.35 148.64 169.70 147.19 168.40 146.70 C 167.10 146.21 165.65 146.87 165.16 148.17 Z M 164.82 149.08 L 164.47 150.00 C 163.98 151.30 164.63 152.75 165.92 153.24 C 167.22 153.74 168.67 153.09 169.16 151.79 L 169.51 150.86 C 170.01 149.57 169.36 148.12 168.06 147.63 C 166.77 147.13 165.32 147.78 164.82 149.08 Z M 164.48 149.99 L 164.11 150.94 C 163.61 152.23 164.25 153.68 165.54 154.18 C 166.83 154.68 168.29 154.04 168.79 152.75 L 169.15 151.80 C 169.65 150.51 169.01 149.06 167.72 148.56 C 166.43 148.06 164.98 148.70 164.48 149.99 Z M 164.12 150.93 L 163.75 151.87 C 163.24 153.15 163.87 154.61 165.16 155.11 C 166.45 155.62 167.90 154.99 168.41 153.70 L 168.78 152.76 C 169.28 151.48 168.65 150.02 167.37 149.52 C 166.08 149.01 164.63 149.64 164.12 150.93 Z M 163.76 151.85 L 163.39 152.77 C 162.88 154.05 163.50 155.51 164.78 156.02 C 166.06 156.54 167.52 155.91 168.03 154.63 L 168.40 153.71 C 168.91 152.43 168.29 150.98 167.01 150.46 C 165.73 149.95 164.27 150.57 163.76 151.85 Z M 163.39 152.77 L 163.02 153.70 C 162.50 154.97 163.12 156.43 164.40 156.95 C 165.68 157.46 167.13 156.84 167.65 155.56 L 168.03 154.64 C 168.54 153.36 167.92 151.90 166.64 151.39 C 165.37 150.87 163.91 151.49 163.39 152.77 Z M 163.02 153.70 L 162.64 154.64 C 162.13 155.92 162.75 157.37 164.02 157.88 C 165.30 158.40 166.75 157.78 167.27 156.50 L 167.65 155.56 C 168.16 154.28 167.54 152.83 166.27 152.32 C 164.99 151.80 163.54 152.42 163.02 153.70 Z M 162.64 154.65 L 162.27 155.57 C 161.76 156.85 162.39 158.30 163.66 158.81 C 164.94 159.32 166.39 158.70 166.90 157.42 L 167.27 156.49 C 167.78 155.22 167.16 153.77 165.88 153.26 C 164.60 152.75 163.15 153.37 162.64 154.65 Z M 162.27 155.58 L 161.91 156.51 C 161.40 157.79 162.03 159.23 163.30 159.74 C 164.58 160.24 166.03 159.62 166.53 158.34 L 166.90 157.41 C 167.40 156.14 166.78 154.69 165.50 154.19 C 164.22 153.68 162.78 154.31 162.27 155.58 Z M 161.91 156.52 L 161.54 157.45 C 161.04 158.73 161.67 160.17 162.94 160.67 C 164.22 161.17 165.66 160.54 166.16 159.27 L 166.53 158.33 C 167.03 157.06 166.40 155.62 165.13 155.11 C 163.85 154.61 162.41 155.24 161.91 156.52 Z M 161.54 157.45 L 161.18 158.39 C 160.68 159.67 161.31 161.10 162.58 161.60 C 163.86 162.10 165.30 161.48 165.79 160.20 L 166.16 159.26 C 166.66 157.99 166.03 156.55 164.76 156.05 C 163.48 155.55 162.04 156.18 161.54 157.45 Z M 161.18 158.39 L 160.82 159.30 C 160.32 160.58 160.95 162.01 162.22 162.51 C 163.50 163.01 164.94 162.38 165.43 161.11 L 165.79 160.20 C 166.29 158.93 165.66 157.49 164.39 156.99 C 163.12 156.49 161.68 157.12 161.18 158.39 Z M 160.83 159.30 L 160.47 160.22 C 159.96 161.49 160.59 162.93 161.86 163.43 C 163.13 163.93 164.57 163.30 165.07 162.03 L 165.43 161.11 C 165.93 159.84 165.31 158.41 164.03 157.91 C 162.76 157.41 161.33 158.03 160.83 159.30 Z M 160.47 160.21 L 160.10 161.14 C 159.60 162.41 160.21 163.85 161.48 164.35 C 162.75 164.86 164.18 164.24 164.69 162.97 L 165.06 162.04 C 165.57 160.77 164.95 159.34 163.68 158.83 C 162.41 158.33 160.98 158.94 160.47 160.21 Z M 160.11 161.13 L 159.72 162.09 C 159.21 163.35 159.82 164.79 161.08 165.30 C 162.35 165.81 163.78 165.20 164.29 163.94 L 164.68 162.98 C 165.19 161.72 164.58 160.28 163.32 159.77 C 162.06 159.26 160.62 159.87 160.11 161.13 Z M 159.73 162.07 L 159.35 163.00 C 158.83 164.25 159.43 165.69 160.69 166.21 C 161.95 166.73 163.39 166.13 163.91 164.87 L 164.29 163.95 C 164.80 162.69 164.20 161.25 162.95 160.74 C 161.69 160.22 160.25 160.82 159.73 162.07 Z M 159.36 162.99 L 158.97 163.92 C 158.45 165.18 159.04 166.62 160.29 167.14 C 161.55 167.66 162.99 167.07 163.51 165.81 L 163.90 164.88 C 164.42 163.63 163.83 162.19 162.57 161.67 C 161.32 161.14 159.88 161.74 159.36 162.99 Z M 158.98 163.92 L 158.59 164.85 C 158.06 166.10 158.65 167.54 159.90 168.06 C 161.15 168.58 162.59 168.00 163.11 166.75 L 163.50 165.82 C 164.03 164.57 163.44 163.13 162.19 162.61 C 160.94 162.08 159.50 162.67 158.98 163.92 Z M 158.59 164.85 L 158.21 165.76 C 157.69 167.01 158.28 168.45 159.52 168.97 C 160.77 169.49 162.21 168.90 162.73 167.65 L 163.11 166.74 C 163.63 165.50 163.04 164.06 161.80 163.54 C 160.55 163.02 159.11 163.61 158.59 164.85 Z M 158.21 165.77 L 157.81 166.73 C 157.29 167.98 157.88 169.41 159.13 169.93 C 160.38 170.45 161.81 169.86 162.32 168.61 L 162.73 167.65 C 163.24 166.40 162.65 164.97 161.41 164.45 C 160.16 163.93 158.73 164.52 158.21 165.77 Z M 157.82 166.74 L 157.43 167.67 C 156.91 168.92 157.50 170.34 158.75 170.86 C 159.99 171.38 161.42 170.79 161.93 169.54 L 162.32 168.61 C 162.84 167.36 162.25 165.94 161.00 165.42 C 159.76 164.91 158.33 165.49 157.82 166.74 Z M 157.44 167.67 L 157.06 168.57 C 156.54 169.81 157.12 171.24 158.36 171.75 C 159.60 172.27 161.03 171.69 161.55 170.45 L 161.92 169.55 C 162.44 168.31 161.86 166.88 160.62 166.36 C 159.38 165.85 157.95 166.43 157.44 167.67 Z M 157.07 168.56 L 156.69 169.45 C 156.17 170.68 156.74 172.11 157.97 172.63 C 159.21 173.16 160.63 172.58 161.16 171.35 L 161.54 170.46 C 162.06 169.23 161.49 167.80 160.25 167.28 C 159.02 166.75 157.60 167.33 157.07 168.56 Z M 156.71 169.43 L 156.30 170.36 C 155.77 171.59 156.33 173.01 157.55 173.55 C 158.78 174.08 160.20 173.52 160.74 172.29 L 161.14 171.37 C 161.68 170.14 161.12 168.72 159.89 168.18 C 158.67 167.65 157.24 168.21 156.71 169.43 Z M 156.32 170.35 L 155.91 171.26 C 155.37 172.48 155.92 173.90 157.14 174.44 C 158.35 174.98 159.78 174.44 160.32 173.22 L 160.72 172.31 C 161.26 171.09 160.72 169.66 159.50 169.12 C 158.28 168.58 156.86 169.13 156.32 170.35 Z M 155.92 171.25 L 155.52 172.16 C 154.97 173.37 155.51 174.79 156.72 175.33 C 157.94 175.88 159.36 175.34 159.90 174.13 L 160.31 173.22 C 160.85 172.01 160.31 170.59 159.10 170.05 C 157.89 169.50 156.47 170.04 155.92 171.25 Z M 155.53 172.16 L 155.15 173.00 C 154.60 174.20 155.14 175.62 156.34 176.17 C 157.55 176.71 158.97 176.17 159.51 174.97 L 159.89 174.13 C 160.44 172.92 159.90 171.50 158.69 170.96 C 157.49 170.41 156.07 170.95 155.53 172.16 Z M 155.16 172.98 L 154.77 173.83 C 154.22 175.03 154.74 176.45 155.94 177.00 C 157.14 177.55 158.56 177.03 159.11 175.83 L 159.50 174.98 C 160.05 173.78 159.53 172.36 158.33 171.81 C 157.13 171.26 155.71 171.78 155.16 172.98 Z M 154.79 173.80 L 154.35 174.71 C 153.79 175.90 154.29 177.32 155.47 177.89 C 156.66 178.46 158.08 177.96 158.65 176.77 L 159.09 175.86 C 159.65 174.68 159.15 173.25 157.97 172.69 C 156.78 172.12 155.36 172.62 154.79 173.80 Z M 154.38 174.67 L 153.88 175.68 C 153.28 176.85 153.75 178.27 154.92 178.87 C 156.09 179.46 157.52 178.99 158.11 177.82 L 158.62 176.81 C 159.21 175.65 158.74 174.22 157.57 173.63 C 156.40 173.03 154.98 173.50 154.38 174.67 Z M 153.90 175.64 L 153.47 176.46 C 152.86 177.61 153.30 179.05 154.45 179.66 C 155.61 180.27 157.04 179.83 157.65 178.67 L 158.08 177.85 C 158.69 176.70 158.25 175.27 157.10 174.66 C 155.95 174.05 154.51 174.49 153.90 175.64 Z M 153.49 176.44 L 153.02 177.30 C 152.39 178.45 152.81 179.88 153.95 180.50 C 155.10 181.13 156.53 180.71 157.15 179.56 L 157.63 178.70 C 158.25 177.55 157.83 176.12 156.69 175.50 C 155.55 174.87 154.11 175.29 153.49 176.44 Z M 153.04 177.29 L 152.53 178.18 C 151.90 179.31 152.30 180.74 153.43 181.38 C 154.57 182.01 156.00 181.61 156.63 180.48 L 157.13 179.58 C 157.77 178.45 157.37 177.02 156.23 176.39 C 155.10 175.75 153.67 176.15 153.04 177.29 Z M 152.55 178.16 L 152.04 179.06 C 151.39 180.18 151.78 181.61 152.90 182.26 C 154.02 182.90 155.45 182.52 156.10 181.39 L 156.61 180.50 C 157.26 179.37 156.87 177.94 155.75 177.30 C 154.63 176.65 153.20 177.04 152.55 178.16 Z M 152.06 179.04 L 151.54 179.93 C 150.88 181.04 151.25 182.47 152.36 183.12 C 153.48 183.77 154.91 183.40 155.56 182.29 L 156.08 181.41 C 156.73 180.30 156.36 178.87 155.25 178.22 C 154.14 177.56 152.71 177.93 152.06 179.04 Z M 151.57 179.90 L 151.00 180.83 C 150.34 181.93 150.69 183.35 151.78 184.02 C 152.88 184.68 154.30 184.33 154.97 183.24 L 155.53 182.31 C 156.20 181.22 155.85 179.79 154.75 179.13 C 153.66 178.46 152.23 178.81 151.57 179.90 Z M 151.06 180.78 L 150.49 181.65 C 149.80 182.71 150.10 184.14 151.16 184.83 C 152.22 185.53 153.65 185.23 154.34 184.16 L 154.91 183.29 C 155.61 182.23 155.31 180.80 154.24 180.11 C 153.18 179.42 151.75 179.71 151.06 180.78 Z M 150.58 181.55 L 150.00 182.34 C 149.25 183.36 149.46 184.78 150.47 185.53 C 151.49 186.28 152.91 186.07 153.66 185.06 L 154.25 184.26 C 155.00 183.25 154.78 181.82 153.77 181.07 C 152.76 180.32 151.33 180.54 150.58 181.55 Z M 150.14 182.20 L 149.51 182.91 C 148.69 183.84 148.77 185.27 149.71 186.10 C 150.64 186.92 152.07 186.84 152.90 185.90 L 153.52 185.20 C 154.35 184.26 154.26 182.84 153.33 182.01 C 152.39 181.18 150.96 181.27 150.14 182.20 Z M 149.73 182.73 L 148.98 183.39 C 148.05 184.20 147.96 185.62 148.77 186.54 C 149.59 187.47 151.00 187.56 151.93 186.75 L 152.68 186.09 C 153.61 185.27 153.70 183.86 152.88 182.93 C 152.07 182.00 150.66 181.91 149.73 182.73 Z M 149.29 183.19 L 148.33 183.78 C 147.29 184.42 146.97 185.78 147.61 186.82 C 148.25 187.86 149.61 188.18 150.65 187.54 L 151.61 186.95 C 152.65 186.31 152.97 184.95 152.33 183.91 C 151.69 182.87 150.33 182.55 149.29 183.19 Z M 148.76 183.61 L 147.82 183.95 C 146.69 184.35 146.10 185.59 146.50 186.72 C 146.90 187.85 148.14 188.44 149.28 188.04 L 150.22 187.71 C 151.35 187.31 151.94 186.06 151.54 184.93 C 151.14 183.80 149.89 183.21 148.76 183.61 Z M 148.47 183.86 L 147.65 183.89 C 146.47 183.93 145.54 184.91 145.58 186.10 C 145.62 187.28 146.61 188.20 147.79 188.16 L 148.62 188.13 C 149.80 188.09 150.73 187.10 150.69 185.92 C 150.65 184.74 149.66 183.82 148.47 183.86 Z M 148.73 184.22 L 148.01 183.81 C 147.01 183.25 145.75 183.61 145.19 184.60 C 144.63 185.60 144.98 186.86 145.98 187.42 L 146.71 187.83 C 147.70 188.39 148.96 188.03 149.52 187.04 C 150.08 186.04 149.73 184.78 148.73 184.22 Z M 148.67 184.61 L 148.18 183.79 C 147.62 182.87 146.42 182.57 145.50 183.12 C 144.57 183.67 144.27 184.87 144.83 185.79 L 145.32 186.62 C 145.87 187.54 147.07 187.84 147.99 187.29 C 148.92 186.74 149.22 185.54 148.67 184.61 Z M 148.25 184.27 L 147.93 183.19 C 147.64 182.22 146.62 181.68 145.65 181.97 C 144.68 182.26 144.14 183.28 144.43 184.24 L 144.75 185.32 C 145.04 186.29 146.06 186.83 147.03 186.54 C 147.99 186.25 148.54 185.23 148.25 184.27 Z M 147.90 183.37 L 147.70 182.42 C 147.51 181.47 146.58 180.85 145.63 181.05 C 144.68 181.24 144.07 182.17 144.26 183.12 L 144.46 184.07 C 144.65 185.02 145.58 185.63 146.53 185.44 C 147.48 185.24 148.09 184.32 147.90 183.37 Z M 147.70 182.49 L 147.54 181.51 C 147.39 180.56 146.50 179.91 145.55 180.07 C 144.60 180.22 143.95 181.11 144.11 182.06 L 144.26 183.05 C 144.42 184.00 145.31 184.64 146.26 184.49 C 147.21 184.34 147.85 183.44 147.70 182.49 Z M 147.53 181.55 L 147.40 180.54 C 147.27 179.60 146.40 178.94 145.46 179.06 C 144.51 179.19 143.85 180.06 143.98 181.01 L 144.11 182.02 C 144.24 182.96 145.11 183.62 146.06 183.50 C 147.00 183.37 147.66 182.50 147.53 181.55 Z M 147.39 180.56 L 147.31 179.91 C 147.19 178.97 146.33 178.31 145.39 178.42 C 144.45 178.54 143.79 179.40 143.91 180.34 L 143.99 180.99 C 144.11 181.93 144.96 182.59 145.90 182.47 C 146.84 182.36 147.51 181.50 147.39 180.56 Z"
      fill="black"
      fill-rule="nonzero" /><path d="M 147.32 155.12 L 148.00 155.83 C 148.73 156.58 149.92 156.61 150.67 155.88 C 151.43 155.16 151.45 153.97 150.73 153.21 L 150.05 152.51 C 149.32 151.75 148.13 151.73 147.38 152.45 C 146.62 153.17 146.60 154.37 147.32 155.12 Z M 147.96 155.88 L 148.65 156.59 C 149.40 157.37 150.64 157.38 151.41 156.63 C 152.19 155.88 152.21 154.64 151.46 153.87 L 150.77 153.16 C 150.02 152.39 148.78 152.37 148.00 153.12 C 147.23 153.87 147.21 155.11 147.96 155.88 Z M 148.62 156.65 L 149.32 157.36 C 150.11 158.15 151.39 158.16 152.18 157.37 C 152.97 156.58 152.97 155.31 152.19 154.51 L 151.49 153.81 C 150.70 153.02 149.42 153.01 148.63 153.80 C 147.84 154.58 147.84 155.86 148.62 156.65 Z M 149.30 157.43 L 150.02 158.13 C 150.84 158.93 152.16 158.92 152.97 158.09 C 153.77 157.27 153.75 155.95 152.93 155.15 L 152.21 154.44 C 151.39 153.64 150.07 153.66 149.26 154.48 C 148.46 155.31 148.47 156.62 149.30 157.43 Z M 150.01 158.21 L 150.75 158.91 C 151.62 159.72 152.98 159.67 153.79 158.81 C 154.60 157.94 154.56 156.58 153.69 155.77 L 152.94 155.07 C 152.08 154.26 150.72 154.30 149.90 155.17 C 149.09 156.04 149.14 157.40 150.01 158.21 Z M 150.76 158.97 L 151.53 159.65 C 152.43 160.46 153.81 160.38 154.62 159.47 C 155.42 158.57 155.34 157.18 154.44 156.38 L 153.68 155.70 C 152.77 154.90 151.39 154.98 150.59 155.88 C 149.78 156.78 149.86 158.17 150.76 158.97 Z M 151.55 159.69 L 152.33 160.36 C 153.26 161.14 154.65 161.03 155.44 160.11 C 156.23 159.18 156.12 157.79 155.19 157.00 L 154.41 156.34 C 153.49 155.55 152.10 155.66 151.31 156.59 C 150.52 157.51 150.63 158.90 151.55 159.69 Z M 152.36 160.38 L 153.15 161.03 C 154.09 161.81 155.48 161.67 156.25 160.73 C 157.03 159.79 156.89 158.40 155.95 157.62 L 155.16 156.98 C 154.22 156.20 152.83 156.34 152.06 157.28 C 151.29 158.22 151.42 159.61 152.36 160.38 Z M 153.17 161.06 L 153.96 161.68 C 154.91 162.44 156.30 162.29 157.06 161.33 C 157.82 160.38 157.67 158.99 156.71 158.23 L 155.93 157.60 C 154.98 156.84 153.59 157.00 152.82 157.95 C 152.06 158.90 152.22 160.29 153.17 161.06 Z M 153.97 161.70 L 154.74 162.30 C 155.70 163.05 157.10 162.88 157.85 161.91 C 158.60 160.95 158.43 159.56 157.46 158.81 L 156.70 158.21 C 155.73 157.46 154.34 157.63 153.59 158.59 C 152.84 159.56 153.01 160.95 153.97 161.70 Z M 154.75 162.31 L 155.54 162.91 C 156.51 163.66 157.90 163.47 158.65 162.50 C 159.39 161.53 159.21 160.14 158.23 159.39 L 157.45 158.79 C 156.48 158.05 155.08 158.23 154.34 159.21 C 153.60 160.18 153.78 161.57 154.75 162.31 Z M 155.56 162.93 L 156.36 163.53 C 157.34 164.27 158.73 164.07 159.47 163.09 C 160.20 162.11 160.01 160.72 159.03 159.99 L 158.22 159.38 C 157.24 158.64 155.85 158.84 155.11 159.82 C 154.38 160.80 154.58 162.19 155.56 162.93 Z M 156.38 163.54 L 157.17 164.13 C 158.16 164.85 159.54 164.64 160.27 163.66 C 161.00 162.67 160.78 161.28 159.80 160.56 L 159.01 159.97 C 158.02 159.25 156.64 159.46 155.91 160.44 C 155.18 161.43 155.39 162.82 156.38 163.54 Z M 157.19 164.14 L 157.98 164.71 C 158.97 165.43 160.36 165.20 161.07 164.21 C 161.79 163.22 161.57 161.84 160.58 161.12 L 159.78 160.55 C 158.79 159.83 157.41 160.05 156.69 161.04 C 155.97 162.03 156.19 163.42 157.19 164.14 Z M 157.99 164.72 L 158.81 165.30 C 159.81 166.01 161.19 165.78 161.90 164.78 C 162.61 163.78 162.38 162.40 161.38 161.69 L 160.56 161.11 C 159.57 160.40 158.18 160.63 157.47 161.63 C 156.76 162.63 157.00 164.01 157.99 164.72 Z M 158.82 165.31 L 159.58 165.84 C 160.58 166.55 161.96 166.31 162.67 165.31 C 163.37 164.31 163.13 162.93 162.13 162.22 L 161.37 161.68 C 160.37 160.98 158.99 161.22 158.28 162.22 C 157.58 163.22 157.82 164.60 158.82 165.31 Z M 159.59 165.85 L 160.37 166.39 C 161.37 167.09 162.75 166.84 163.45 165.84 C 164.15 164.84 163.90 163.46 162.90 162.76 L 162.12 162.22 C 161.12 161.52 159.74 161.76 159.04 162.76 C 158.34 163.77 158.59 165.15 159.59 165.85 Z M 160.37 166.39 L 161.18 166.95 C 162.18 167.65 163.56 167.41 164.26 166.40 C 164.96 165.40 164.71 164.02 163.71 163.32 L 162.90 162.76 C 161.89 162.06 160.52 162.31 159.82 163.31 C 159.12 164.31 159.37 165.69 160.37 166.39 Z M 161.18 166.96 L 162.02 167.54 C 163.03 168.24 164.40 167.99 165.10 166.99 C 165.80 165.98 165.55 164.60 164.55 163.91 L 163.71 163.32 C 162.70 162.63 161.32 162.87 160.63 163.88 C 159.93 164.88 160.18 166.26 161.18 166.96 Z M 162.02 167.54 L 162.89 168.15 C 163.90 168.84 165.27 168.60 165.97 167.59 C 166.67 166.59 166.42 165.21 165.42 164.52 L 164.55 163.91 C 163.55 163.21 162.17 163.46 161.47 164.46 C 160.77 165.46 161.02 166.84 162.02 167.54 Z M 162.89 168.14 L 163.73 168.73 C 164.73 169.43 166.11 169.18 166.81 168.18 C 167.51 167.18 167.26 165.80 166.26 165.10 L 165.42 164.52 C 164.42 163.82 163.04 164.06 162.34 165.07 C 161.65 166.07 161.89 167.44 162.89 168.14 Z M 163.73 168.72 L 164.51 169.27 C 165.50 169.97 166.88 169.72 167.58 168.73 C 168.28 167.73 168.04 166.35 167.04 165.65 L 166.26 165.11 C 165.26 164.41 163.89 164.65 163.19 165.65 C 162.49 166.65 162.73 168.02 163.73 168.72 Z M 164.50 169.26 L 165.30 169.82 C 166.29 170.52 167.67 170.28 168.37 169.29 C 169.07 168.29 168.83 166.92 167.84 166.22 L 167.04 165.66 C 166.04 164.95 164.67 165.19 163.97 166.19 C 163.27 167.19 163.51 168.56 164.50 169.26 Z M 165.29 169.82 L 166.11 170.39 C 167.10 171.09 168.47 170.86 169.18 169.86 C 169.88 168.87 169.64 167.50 168.65 166.79 L 167.84 166.22 C 166.85 165.52 165.47 165.75 164.77 166.75 C 164.07 167.74 164.30 169.11 165.29 169.82 Z M 166.10 170.39 L 166.93 170.98 C 167.92 171.68 169.30 171.45 170.00 170.46 C 170.70 169.47 170.47 168.09 169.48 167.39 L 168.65 166.80 C 167.66 166.10 166.29 166.33 165.59 167.32 C 164.88 168.31 165.11 169.68 166.10 170.39 Z M 166.93 170.97 L 167.77 171.57 C 168.76 172.28 170.13 172.05 170.84 171.07 C 171.55 170.08 171.32 168.71 170.33 168.00 L 169.49 167.40 C 168.50 166.69 167.13 166.92 166.42 167.90 C 165.71 168.89 165.94 170.26 166.93 170.97 Z M 167.77 171.57 L 168.63 172.18 C 169.61 172.89 170.98 172.67 171.69 171.69 C 172.40 170.70 172.18 169.33 171.19 168.62 L 170.34 168.01 C 169.35 167.30 167.98 167.52 167.27 168.50 C 166.56 169.49 166.79 170.86 167.77 171.57 Z M 168.62 172.18 L 169.40 172.74 C 170.38 173.45 171.75 173.23 172.46 172.25 C 173.17 171.27 172.95 169.90 171.97 169.19 L 171.20 168.63 C 170.22 167.92 168.84 168.14 168.13 169.12 C 167.42 170.10 167.64 171.47 168.62 172.18 Z M 169.40 172.73 L 170.18 173.31 C 171.16 174.02 172.53 173.80 173.24 172.83 C 173.95 171.85 173.74 170.48 172.76 169.77 L 171.97 169.20 C 171.00 168.48 169.63 168.70 168.92 169.68 C 168.20 170.65 168.42 172.02 169.40 172.73 Z M 170.18 173.30 L 170.97 173.89 C 171.95 174.60 173.32 174.39 174.03 173.41 C 174.75 172.44 174.53 171.07 173.56 170.36 L 172.76 169.77 C 171.79 169.06 170.42 169.27 169.71 170.24 C 168.99 171.22 169.20 172.59 170.18 173.30 Z M 170.97 173.88 L 171.78 174.47 C 172.75 175.19 174.11 174.98 174.83 174.01 C 175.55 173.04 175.34 171.67 174.37 170.96 L 173.56 170.36 C 172.59 169.65 171.23 169.85 170.51 170.82 C 169.79 171.80 170.00 173.16 170.97 173.88 Z M 171.77 174.47 L 172.59 175.07 C 173.55 175.79 174.92 175.59 175.64 174.62 C 176.36 173.65 176.16 172.29 175.19 171.57 L 174.37 170.96 C 173.41 170.25 172.04 170.45 171.32 171.41 C 170.60 172.38 170.80 173.75 171.77 174.47 Z M 172.58 175.07 L 173.40 175.68 C 174.37 176.40 175.73 176.20 176.45 175.24 C 177.18 174.28 176.98 172.91 176.01 172.19 L 175.19 171.57 C 174.23 170.85 172.86 171.05 172.14 172.02 C 171.42 172.98 171.62 174.35 172.58 175.07 Z M 173.40 175.67 L 174.23 176.30 C 175.19 177.02 176.55 176.83 177.28 175.87 C 178.00 174.91 177.81 173.54 176.85 172.82 L 176.02 172.19 C 175.06 171.47 173.69 171.66 172.97 172.63 C 172.25 173.59 172.44 174.95 173.40 175.67 Z M 174.22 176.29 L 175.00 176.88 C 175.96 177.61 177.32 177.42 178.05 176.46 C 178.77 175.50 178.59 174.14 177.63 173.41 L 176.85 172.82 C 175.89 172.10 174.53 172.29 173.80 173.24 C 173.08 174.20 173.27 175.57 174.22 176.29 Z M 175.00 176.88 L 175.77 177.47 C 176.73 178.19 178.09 178.01 178.82 177.05 C 179.54 176.10 179.36 174.73 178.40 174.01 L 177.63 173.42 C 176.68 172.69 175.31 172.87 174.59 173.83 C 173.86 174.79 174.04 176.15 175.00 176.88 Z M 175.77 177.46 L 176.55 178.06 C 177.50 178.79 178.86 178.60 179.59 177.65 C 180.32 176.70 180.14 175.33 179.19 174.60 L 178.41 174.01 C 177.45 173.28 176.09 173.46 175.36 174.42 C 174.63 175.37 174.81 176.73 175.77 177.46 Z M 176.55 178.06 L 177.33 178.66 C 178.28 179.39 179.65 179.21 180.38 178.26 C 181.11 177.30 180.93 175.94 179.98 175.21 L 179.19 174.61 C 178.24 173.88 176.87 174.06 176.14 175.01 C 175.41 175.96 175.59 177.33 176.55 178.06 Z M 177.33 178.66 L 178.13 179.27 C 179.08 180.00 180.44 179.82 181.17 178.87 C 181.90 177.92 181.72 176.55 180.77 175.82 L 179.98 175.21 C 179.02 174.48 177.66 174.66 176.93 175.61 C 176.20 176.56 176.38 177.93 177.33 178.66 Z M 178.13 179.27 L 178.93 179.88 C 179.88 180.61 181.25 180.44 181.98 179.48 C 182.70 178.53 182.53 177.17 181.58 176.44 L 180.77 175.82 C 179.82 175.09 178.46 175.27 177.73 176.22 C 177.00 177.17 177.18 178.54 178.13 179.27 Z M 178.93 179.88 L 179.75 180.51 C 180.70 181.24 182.06 181.06 182.79 180.11 C 183.52 179.16 183.34 177.80 182.39 177.07 L 181.57 176.44 C 180.62 175.71 179.26 175.89 178.53 176.84 C 177.80 177.79 177.98 179.16 178.93 179.88 Z M 179.75 180.51 L 180.58 181.14 C 181.53 181.87 182.89 181.69 183.62 180.74 C 184.35 179.79 184.17 178.43 183.21 177.70 L 182.39 177.07 C 181.44 176.34 180.08 176.52 179.35 177.47 C 178.62 178.42 178.80 179.78 179.75 180.51 Z M 180.58 181.14 L 181.38 181.75 C 182.33 182.48 183.69 182.29 184.41 181.34 C 185.14 180.39 184.96 179.03 184.00 178.31 L 183.21 177.70 C 182.26 176.97 180.90 177.16 180.17 178.11 C 179.45 179.06 179.63 180.42 180.58 181.14 Z M 181.38 181.75 L 182.18 182.36 C 183.13 183.08 184.49 182.90 185.21 181.95 C 185.94 181.00 185.75 179.64 184.80 178.91 L 184.00 178.31 C 183.05 177.58 181.69 177.76 180.97 178.71 C 180.24 179.67 180.43 181.03 181.38 181.75 Z M 182.18 182.36 L 182.98 182.97 C 183.93 183.70 185.29 183.51 186.02 182.56 C 186.74 181.61 186.56 180.25 185.61 179.53 L 184.80 178.92 C 183.85 178.19 182.49 178.37 181.77 179.33 C 181.04 180.28 181.23 181.64 182.18 182.36 Z M 182.98 182.97 L 183.79 183.58 C 184.74 184.31 186.10 184.13 186.82 183.18 C 187.55 182.23 187.36 180.87 186.41 180.14 L 185.61 179.53 C 184.66 178.80 183.30 178.99 182.57 179.94 C 181.85 180.89 182.03 182.25 182.98 182.97 Z M 183.79 183.58 L 184.59 184.20 C 185.54 184.92 186.90 184.74 187.62 183.79 C 188.35 182.84 188.16 181.48 187.22 180.76 L 186.41 180.15 C 185.46 179.42 184.11 179.60 183.38 180.55 C 182.66 181.50 182.84 182.86 183.79 183.58 Z M 184.59 184.19 L 185.38 184.80 C 186.33 185.53 187.69 185.35 188.41 184.40 C 189.14 183.46 188.96 182.10 188.01 181.37 L 187.22 180.76 C 186.27 180.03 184.91 180.21 184.19 181.16 C 183.46 182.11 183.64 183.47 184.59 184.19 Z M 185.38 184.80 L 186.17 185.41 C 187.11 186.13 188.47 185.96 189.20 185.01 C 189.92 184.07 189.75 182.71 188.80 181.98 L 188.02 181.38 C 187.07 180.65 185.71 180.82 184.99 181.77 C 184.26 182.71 184.43 184.07 185.38 184.80 Z M 186.16 185.40 L 186.93 186.00 C 187.88 186.73 189.23 186.56 189.97 185.62 C 190.70 184.67 190.52 183.32 189.58 182.59 L 188.81 181.99 C 187.87 181.26 186.51 181.43 185.78 182.37 C 185.05 183.31 185.22 184.67 186.16 185.40 Z M 186.93 185.99 L 187.74 186.62 C 188.68 187.36 190.03 187.19 190.77 186.25 C 191.50 185.31 191.33 183.96 190.40 183.23 L 189.59 182.59 C 188.65 181.86 187.29 182.03 186.56 182.96 C 185.83 183.90 185.99 185.26 186.93 185.99 Z M 187.74 186.61 L 188.55 187.26 C 189.48 187.99 190.84 187.83 191.57 186.90 C 192.30 185.97 192.14 184.62 191.21 183.88 L 190.40 183.24 C 189.47 182.50 188.12 182.66 187.38 183.60 C 186.65 184.53 186.81 185.88 187.74 186.61 Z M 188.55 187.24 L 189.35 187.88 C 190.27 188.61 191.62 188.46 192.35 187.54 C 193.09 186.61 192.94 185.27 192.01 184.53 L 191.21 183.90 C 190.29 183.16 188.95 183.31 188.21 184.24 C 187.48 185.16 187.63 186.51 188.55 187.24 Z M 189.35 187.86 L 190.13 188.49 C 191.05 189.23 192.39 189.08 193.12 188.16 C 193.86 187.25 193.71 185.91 192.80 185.17 L 192.01 184.54 C 191.10 183.81 189.76 183.95 189.02 184.87 C 188.29 185.79 188.43 187.13 189.35 187.86 Z M 190.13 188.48 L 190.90 189.10 C 191.81 189.84 193.14 189.70 193.88 188.79 C 194.61 187.88 194.47 186.55 193.56 185.81 L 192.80 185.19 C 191.89 184.45 190.55 184.59 189.82 185.50 C 189.08 186.41 189.22 187.74 190.13 188.48 Z M 190.90 189.09 L 191.65 189.70 C 192.55 190.44 193.88 190.31 194.62 189.41 C 195.36 188.50 195.22 187.18 194.32 186.44 L 193.56 185.82 C 192.66 185.08 191.34 185.22 190.60 186.12 C 189.86 187.02 189.99 188.35 190.90 189.09 Z M 191.65 189.69 L 192.40 190.31 C 193.29 191.04 194.62 190.92 195.35 190.02 C 196.09 189.13 195.96 187.81 195.07 187.07 L 194.32 186.45 C 193.43 185.72 192.10 185.84 191.37 186.74 C 190.63 187.63 190.76 188.95 191.65 189.69 Z M 192.40 190.29 L 193.15 190.91 C 194.03 191.65 195.35 191.53 196.09 190.64 C 196.82 189.76 196.70 188.44 195.82 187.70 L 195.07 187.08 C 194.18 186.34 192.86 186.47 192.13 187.35 C 191.39 188.24 191.51 189.56 192.40 190.29 Z M 193.15 190.90 L 193.93 191.56 C 194.81 192.30 196.12 192.18 196.86 191.30 C 197.59 190.42 197.48 189.11 196.60 188.37 L 195.81 187.72 C 194.93 186.98 193.62 187.10 192.89 187.98 C 192.15 188.85 192.27 190.17 193.15 190.90 Z M 193.93 191.54 L 194.71 192.20 C 195.58 192.94 196.89 192.83 197.62 191.95 C 198.36 191.08 198.25 189.78 197.38 189.04 L 196.60 188.39 C 195.73 187.65 194.42 187.76 193.69 188.63 C 192.95 189.51 193.06 190.81 193.93 191.54 Z M 194.71 192.19 L 195.48 192.84 C 196.35 193.58 197.64 193.47 198.38 192.61 C 199.11 191.74 199.01 190.45 198.14 189.71 L 197.37 189.06 C 196.51 188.32 195.21 188.43 194.48 189.29 C 193.74 190.16 193.85 191.45 194.71 192.19 Z M 195.48 192.83 L 196.24 193.48 C 197.10 194.21 198.39 194.11 199.12 193.26 C 199.86 192.40 199.76 191.11 198.90 190.38 L 198.14 189.73 C 197.28 188.99 196.00 189.09 195.26 189.95 C 194.53 190.80 194.63 192.09 195.48 192.83 Z M 196.25 193.46 L 197.00 194.11 C 197.85 194.84 199.13 194.75 199.86 193.90 C 200.59 193.05 200.50 191.77 199.65 191.04 L 198.90 190.39 C 198.05 189.66 196.77 189.75 196.04 190.60 C 195.30 191.45 195.40 192.73 196.25 193.46 Z M 197.00 194.10 L 197.74 194.74 C 198.58 195.47 199.85 195.38 200.59 194.54 C 201.32 193.70 201.23 192.43 200.39 191.69 L 199.65 191.05 C 198.81 190.32 197.53 190.41 196.80 191.25 C 196.07 192.09 196.16 193.37 197.00 194.10 Z M 197.74 194.73 L 198.48 195.37 C 199.31 196.10 200.58 196.02 201.31 195.19 C 202.04 194.35 201.96 193.08 201.12 192.35 L 200.39 191.71 C 199.55 190.98 198.28 191.06 197.55 191.90 C 196.82 192.73 196.91 194.00 197.74 194.73 Z M 198.48 195.36 L 199.25 196.04 C 200.08 196.77 201.34 196.70 202.07 195.87 C 202.80 195.04 202.72 193.78 201.90 193.05 L 201.12 192.36 C 200.29 191.63 199.03 191.71 198.30 192.54 C 197.57 193.37 197.65 194.63 198.48 195.36 Z M 199.25 196.03 L 200.01 196.71 C 200.84 197.44 202.09 197.37 202.82 196.54 C 203.55 195.72 203.48 194.46 202.66 193.73 L 201.89 193.06 C 201.07 192.33 199.81 192.40 199.08 193.22 C 198.35 194.05 198.43 195.30 199.25 196.03 Z M 200.02 196.70 L 200.77 197.37 C 201.58 198.10 202.84 198.03 203.57 197.21 C 204.29 196.39 204.22 195.14 203.40 194.41 L 202.65 193.74 C 201.84 193.01 200.58 193.09 199.85 193.90 C 199.13 194.72 199.20 195.97 200.02 196.70 Z M 200.77 197.36 L 201.51 198.03 C 202.33 198.75 203.57 198.68 204.30 197.87 C 205.03 197.05 204.96 195.80 204.14 195.08 L 203.40 194.42 C 202.59 193.69 201.34 193.76 200.61 194.58 C 199.89 195.39 199.96 196.64 200.77 197.36 Z M 201.52 198.02 L 202.25 198.67 C 203.06 199.40 204.31 199.33 205.03 198.51 C 205.75 197.70 205.68 196.46 204.87 195.74 L 204.14 195.08 C 203.32 194.36 202.08 194.43 201.36 195.24 C 200.63 196.05 200.71 197.30 201.52 198.02 Z M 202.26 198.67 L 202.99 199.32 C 203.79 200.04 205.03 199.96 205.75 199.15 C 206.47 198.35 206.40 197.11 205.59 196.39 L 204.86 195.74 C 204.05 195.02 202.81 195.09 202.10 195.90 C 201.38 196.71 201.45 197.95 202.26 198.67 Z M 202.99 199.32 L 203.75 199.98 C 204.56 200.70 205.79 200.62 206.51 199.81 C 207.22 199.00 207.14 197.77 206.34 197.06 L 205.58 196.39 C 204.77 195.67 203.54 195.75 202.82 196.56 C 202.11 197.37 202.19 198.60 202.99 199.32 Z M 203.76 199.98 L 204.53 200.66 C 205.34 201.37 206.57 201.29 207.28 200.48 C 207.98 199.67 207.90 198.44 207.09 197.73 L 206.33 197.05 C 205.52 196.35 204.29 196.43 203.58 197.24 C 202.87 198.04 202.95 199.28 203.76 199.98 Z M 204.54 200.66 L 205.30 201.32 C 206.11 202.03 207.34 201.94 208.04 201.13 C 208.75 200.32 208.66 199.09 207.85 198.39 L 207.08 197.72 C 206.27 197.02 205.05 197.11 204.34 197.92 C 203.64 198.73 203.73 199.96 204.54 200.66 Z M 205.31 201.33 L 206.07 201.98 C 206.89 202.67 208.11 202.58 208.81 201.77 C 209.50 200.95 209.41 199.73 208.59 199.03 L 207.83 198.38 C 207.02 197.69 205.80 197.78 205.10 198.59 C 204.40 199.41 204.50 200.63 205.31 201.33 Z M 206.09 201.98 L 206.84 202.62 C 207.66 203.31 208.88 203.21 209.57 202.39 C 210.26 201.57 210.15 200.35 209.34 199.66 L 208.58 199.03 C 207.76 198.34 206.54 198.44 205.85 199.26 C 205.17 200.08 205.27 201.30 206.09 201.98 Z M 206.86 202.63 L 207.61 203.25 C 208.43 203.93 209.65 203.82 210.33 203.00 C 211.01 202.18 210.89 200.96 210.07 200.28 L 209.32 199.66 C 208.50 198.98 207.28 199.09 206.60 199.91 C 205.92 200.73 206.04 201.95 206.86 202.63 Z M 207.63 203.26 L 208.39 203.88 C 209.22 204.55 210.43 204.43 211.10 203.60 C 211.77 202.78 211.65 201.56 210.82 200.89 L 210.05 200.27 C 209.23 199.60 208.01 199.73 207.34 200.55 C 206.67 201.38 206.80 202.59 207.63 203.26 Z M 208.41 203.90 L 209.19 204.52 C 210.02 205.18 211.24 205.04 211.90 204.20 C 212.56 203.37 212.42 202.16 211.58 201.50 L 210.80 200.88 C 209.97 200.22 208.76 200.36 208.10 201.19 C 207.44 202.03 207.58 203.24 208.41 203.90 Z M 209.21 204.53 L 209.99 205.14 C 210.84 205.79 212.05 205.63 212.70 204.79 C 213.35 203.94 213.19 202.73 212.35 202.08 L 211.56 201.48 C 210.72 200.83 209.51 200.99 208.86 201.83 C 208.21 202.67 208.37 203.88 209.21 204.53 Z M 210.02 205.15 L 210.81 205.75 C 211.66 206.39 212.87 206.21 213.51 205.36 C 214.15 204.51 213.97 203.30 213.12 202.66 L 212.33 202.07 C 211.47 201.43 210.27 201.60 209.63 202.45 C 208.99 203.31 209.16 204.52 210.02 205.15 Z M 210.83 205.77 L 211.64 206.35 C 212.50 206.98 213.71 206.79 214.33 205.93 C 214.96 205.06 214.77 203.86 213.91 203.23 L 213.10 202.64 C 212.24 202.02 211.03 202.21 210.40 203.07 C 209.78 203.93 209.97 205.14 210.83 205.77 Z M 211.66 206.37 L 212.49 206.95 C 213.36 207.57 214.57 207.36 215.18 206.49 C 215.80 205.61 215.59 204.41 214.71 203.80 L 213.88 203.21 C 213.01 202.60 211.81 202.81 211.20 203.68 C 210.58 204.55 210.79 205.76 211.66 206.37 Z M 212.52 206.97 L 213.36 207.55 C 214.24 208.15 215.44 207.92 216.04 207.04 C 216.64 206.16 216.42 204.95 215.53 204.35 L 214.69 203.78 C 213.81 203.18 212.61 203.41 212.01 204.29 C 211.41 205.17 211.63 206.37 212.52 206.97 Z M 213.38 207.57 L 214.23 208.13 C 215.13 208.72 216.33 208.48 216.92 207.59 C 217.51 206.69 217.26 205.49 216.37 204.90 L 215.51 204.33 C 214.62 203.74 213.42 203.99 212.83 204.88 C 212.24 205.77 212.49 206.98 213.38 207.57 Z M 214.25 208.15 L 215.12 208.71 C 216.02 209.29 217.22 209.02 217.80 208.12 C 218.38 207.22 218.12 206.02 217.22 205.44 L 216.35 204.88 C 215.45 204.30 214.25 204.56 213.67 205.47 C 213.09 206.37 213.35 207.57 214.25 208.15 Z M 215.13 208.72 L 215.99 209.26 C 216.91 209.83 218.11 209.55 218.68 208.64 C 219.25 207.73 218.97 206.53 218.06 205.96 L 217.20 205.42 C 216.29 204.85 215.08 205.13 214.51 206.04 C 213.94 206.95 214.22 208.15 215.13 208.72 Z M 216.01 209.28 L 216.86 209.79 C 217.78 210.35 218.98 210.05 219.54 209.13 C 220.10 208.21 219.80 207.01 218.88 206.45 L 218.04 205.94 C 217.11 205.38 215.91 205.67 215.35 206.60 C 214.80 207.52 215.09 208.72 216.01 209.28 Z M 216.88 209.81 L 217.69 210.29 C 218.63 210.83 219.83 210.52 220.37 209.59 C 220.92 208.66 220.61 207.46 219.68 206.91 L 218.86 206.43 C 217.93 205.88 216.73 206.19 216.18 207.13 C 215.63 208.06 215.94 209.26 216.88 209.81 Z M 217.72 210.31 L 218.66 210.84 C 219.61 211.38 220.81 211.04 221.34 210.09 C 221.87 209.15 221.54 207.95 220.59 207.41 L 219.65 206.88 C 218.70 206.35 217.50 206.68 216.97 207.63 C 216.44 208.58 216.77 209.78 217.72 210.31 Z M 218.69 210.88 L 219.61 211.37 C 220.58 211.88 221.78 211.52 222.29 210.55 C 222.81 209.59 222.45 208.39 221.48 207.87 L 220.56 207.38 C 219.59 206.86 218.39 207.23 217.88 208.19 C 217.36 209.16 217.73 210.36 218.69 210.88 Z M 219.65 211.40 L 220.53 211.85 C 221.52 212.34 222.72 211.95 223.21 210.96 C 223.71 209.97 223.31 208.77 222.32 208.28 L 221.44 207.83 C 220.46 207.34 219.26 207.74 218.76 208.72 C 218.26 209.71 218.66 210.91 219.65 211.40 Z M 220.57 211.88 L 221.43 212.29 C 222.44 212.76 223.63 212.33 224.11 211.32 C 224.58 210.31 224.15 209.12 223.14 208.64 L 222.28 208.24 C 221.28 207.77 220.08 208.20 219.60 209.21 C 219.13 210.21 219.57 211.41 220.57 211.88 Z M 221.47 212.32 L 222.33 212.70 C 223.36 213.14 224.55 212.67 225.00 211.65 C 225.44 210.62 224.98 209.43 223.95 208.98 L 223.09 208.61 C 222.07 208.16 220.87 208.63 220.43 209.66 C 219.98 210.68 220.45 211.88 221.47 212.32 Z M 222.38 212.73 L 223.32 213.10 C 224.36 213.52 225.55 213.02 225.97 211.98 C 226.39 210.93 225.88 209.75 224.84 209.33 L 223.90 208.95 C 222.86 208.53 221.67 209.03 221.25 210.08 C 220.83 211.12 221.34 212.31 222.38 212.73 Z M 223.36 213.13 L 224.30 213.48 C 225.35 213.87 226.53 213.34 226.92 212.29 C 227.32 211.23 226.79 210.06 225.73 209.66 L 224.80 209.31 C 223.74 208.91 222.56 209.44 222.17 210.50 C 221.77 211.55 222.30 212.73 223.36 213.13 Z M 224.33 213.49 L 225.26 213.83 C 226.33 214.21 227.50 213.66 227.88 212.59 C 228.26 211.53 227.70 210.36 226.64 209.98 L 225.70 209.64 C 224.64 209.26 223.47 209.82 223.09 210.88 C 222.71 211.94 223.26 213.11 224.33 213.49 Z M 225.28 213.84 L 226.21 214.16 C 227.28 214.54 228.45 213.97 228.82 212.90 C 229.20 211.83 228.63 210.67 227.56 210.29 L 226.62 209.97 C 225.56 209.60 224.39 210.16 224.02 211.23 C 223.64 212.30 224.21 213.47 225.28 213.84 Z M 226.22 214.17 L 226.37 214.22 C 227.44 214.59 228.61 214.02 228.98 212.95 C 229.35 211.88 228.78 210.71 227.71 210.34 L 227.56 210.29 C 226.49 209.92 225.32 210.49 224.95 211.56 C 224.58 212.63 225.15 213.80 226.22 214.17 Z"
      fill="black"
      fill-rule="nonzero" /></svg>