<svg xmlns="http://www.w3.org/2000/svg" width="300" height="300" viewBox="0 0 300 300">
<path d="M 144.67 144.47 L 143.64 144.70 C 142.44 144.97 141.68 146.17 141.95 147.37 C 142.22 148.58 143.41 149.34 144.62 149.07 L 145.64 148.84 C 146.85 148.57 147.61 147.38 147.34 146.17 C 147.07 144.97 145.88 144.21 144.67 144.47 Z M 143.34 144.79 L 142.42 145.14 C 141.26 145.58 140.68 146.87 141.11 148.03 C 141.55 149.18 142.84 149.76 143.99 149.33 L 144.92 148.98 C 146.08 148.54 146.66 147.25 146.22 146.10 C 145.79 144.94 144.50 144.36 143.34 144.79 Z M 141.79 145.50 L 141.07 146.09 C 140.12 146.87 139.97 148.28 140.75 149.23 C 141.53 150.19 142.94 150.33 143.90 149.55 L 144.62 148.97 C 145.57 148.19 145.72 146.78 144.94 145.82 C 144.16 144.87 142.75 144.72 141.79 145.50 Z M 140.51 146.79 L 140.09 147.58 C 139.52 148.67 139.95 150.02 141.04 150.59 C 142.14 151.16 143.49 150.74 144.06 149.64 L 144.47 148.85 C 145.04 147.76 144.61 146.41 143.52 145.84 C 142.43 145.27 141.08 145.69 140.51 146.79 Z M 139.90 148.13 L 139.68 149.10 C 139.41 150.31 140.17 151.50 141.38 151.77 C 142.58 152.03 143.77 151.28 144.04 150.07 L 144.25 149.09 C 144.52 147.89 143.76 146.70 142.56 146.43 C 141.36 146.17 140.16 146.92 139.90 148.13 Z M 139.63 149.45 L 139.57 150.53 C 139.49 151.76 140.43 152.81 141.66 152.89 C 142.89 152.96 143.95 152.03 144.02 150.80 L 144.08 149.72 C 144.16 148.49 143.22 147.44 141.99 147.36 C 140.76 147.29 139.71 148.23 139.63 149.45 Z M 139.57 150.76 L 139.62 151.79 C 139.67 153.02 140.70 153.97 141.93 153.92 C 143.16 153.87 144.11 152.83 144.06 151.61 L 144.01 150.57 C 143.96 149.35 142.93 148.39 141.70 148.44 C 140.48 148.50 139.52 149.53 139.57 150.76 Z M 139.65 151.99 L 139.79 152.99 C 139.95 154.20 141.06 155.04 142.27 154.88 C 143.47 154.72 144.32 153.61 144.16 152.40 L 144.02 151.40 C 143.86 150.20 142.75 149.35 141.54 149.51 C 140.34 149.68 139.49 150.79 139.65 151.99 Z M 139.84 153.21 L 140.08 154.17 C 140.36 155.35 141.54 156.07 142.71 155.79 C 143.89 155.51 144.61 154.32 144.33 153.15 L 144.10 152.18 C 143.82 151.01 142.64 150.29 141.46 150.57 C 140.29 150.85 139.56 152.03 139.84 153.21 Z M 140.16 154.40 L 140.50 155.33 C 140.91 156.46 142.16 157.04 143.29 156.63 C 144.41 156.22 144.99 154.97 144.58 153.85 L 144.24 152.92 C 143.83 151.79 142.59 151.21 141.46 151.62 C 140.33 152.03 139.75 153.28 140.16 154.40 Z M 140.62 155.57 L 141.07 156.47 C 141.61 157.53 142.91 157.95 143.97 157.41 C 145.04 156.87 145.46 155.58 144.92 154.51 L 144.47 153.61 C 143.93 152.55 142.63 152.13 141.57 152.67 C 140.50 153.21 140.08 154.50 140.62 155.57 Z M 141.20 156.67 L 141.75 157.51 C 142.40 158.50 143.73 158.77 144.73 158.12 C 145.72 157.47 146.00 156.14 145.34 155.15 L 144.79 154.31 C 144.14 153.32 142.81 153.04 141.82 153.69 C 140.83 154.34 140.55 155.68 141.20 156.67 Z M 141.89 157.68 L 142.51 158.45 C 143.26 159.36 144.60 159.50 145.52 158.76 C 146.44 158.01 146.58 156.67 145.83 155.75 L 145.21 154.98 C 144.46 154.06 143.12 153.92 142.20 154.67 C 141.28 155.41 141.14 156.76 141.89 157.68 Z M 142.66 158.59 L 143.36 159.30 C 144.18 160.14 145.53 160.15 146.37 159.33 C 147.21 158.50 147.22 157.15 146.39 156.31 L 145.69 155.60 C 144.86 154.76 143.52 154.75 142.68 155.58 C 141.84 156.41 141.83 157.75 142.66 158.59 Z M 143.52 159.44 L 144.28 160.08 C 145.18 160.83 146.52 160.71 147.27 159.81 C 148.02 158.91 147.90 157.57 147.00 156.82 L 146.24 156.18 C 145.34 155.43 144.00 155.55 143.25 156.45 C 142.50 157.35 142.62 158.68 143.52 159.44 Z M 144.45 160.19 L 145.27 160.75 C 146.23 161.41 147.54 161.17 148.20 160.21 C 148.86 159.25 148.62 157.93 147.65 157.27 L 146.83 156.71 C 145.87 156.05 144.56 156.29 143.90 157.26 C 143.24 158.22 143.49 159.53 144.45 160.19 Z M 145.43 160.84 L 146.30 161.33 C 147.31 161.90 148.59 161.54 149.16 160.53 C 149.73 159.52 149.37 158.24 148.36 157.67 L 147.49 157.18 C 146.48 156.61 145.20 156.97 144.63 157.98 C 144.06 159.00 144.42 160.28 145.43 160.84 Z M 146.47 161.41 L 147.38 161.82 C 148.43 162.29 149.67 161.83 150.15 160.77 C 150.62 159.72 150.15 158.48 149.10 158.01 L 148.19 157.59 C 147.14 157.12 145.90 157.59 145.42 158.64 C 144.95 159.69 145.42 160.93 146.47 161.41 Z M 147.55 161.88 L 148.49 162.21 C 149.58 162.59 150.77 162.02 151.15 160.94 C 151.53 159.85 150.96 158.66 149.88 158.28 L 148.93 157.95 C 147.85 157.56 146.66 158.13 146.27 159.22 C 145.89 160.31 146.46 161.50 147.55 161.88 Z M 148.68 162.26 L 149.65 162.50 C 150.76 162.78 151.89 162.11 152.17 161.00 C 152.45 159.89 151.78 158.76 150.67 158.48 L 149.70 158.23 C 148.58 157.95 147.46 158.62 147.17 159.73 C 146.89 160.85 147.56 161.97 148.68 162.26 Z M 149.84 162.54 L 150.82 162.69 C 151.95 162.87 153.01 162.10 153.19 160.97 C 153.37 159.84 152.60 158.77 151.46 158.60 L 150.48 158.44 C 149.35 158.26 148.29 159.04 148.11 160.17 C 147.93 161.30 148.70 162.36 149.84 162.54 Z M 151.00 162.72 L 152.00 162.78 C 153.14 162.86 154.13 162.00 154.21 160.86 C 154.29 159.71 153.43 158.72 152.28 158.64 L 151.29 158.57 C 150.14 158.50 149.15 159.36 149.07 160.50 C 148.99 161.65 149.86 162.64 151.00 162.72 Z M 152.16 162.79 L 153.16 162.78 C 154.31 162.77 155.23 161.83 155.22 160.69 C 155.21 159.54 154.27 158.62 153.12 158.63 L 152.12 158.64 C 150.97 158.65 150.05 159.59 150.06 160.73 C 150.07 161.88 151.01 162.80 152.16 162.79 Z M 153.31 162.78 L 154.30 162.70 C 155.45 162.61 156.30 161.60 156.21 160.46 C 156.12 159.31 155.12 158.46 153.97 158.55 L 152.97 158.63 C 151.83 158.72 150.97 159.73 151.06 160.87 C 151.16 162.02 152.16 162.87 153.31 162.78 Z M 154.48 162.68 L 155.47 162.52 C 156.60 162.33 157.37 161.25 157.18 160.11 C 156.99 158.98 155.91 158.21 154.77 158.40 L 153.79 158.57 C 152.65 158.76 151.89 159.83 152.08 160.97 C 152.27 162.11 153.35 162.87 154.48 162.68 Z M 155.70 162.47 L 156.66 162.19 C 157.77 161.87 158.41 160.71 158.09 159.60 C 157.77 158.49 156.61 157.85 155.50 158.17 L 154.54 158.45 C 153.43 158.77 152.79 159.93 153.11 161.04 C 153.43 162.15 154.59 162.79 155.70 162.47 Z M 156.95 162.09 L 157.85 161.68 C 158.91 161.20 159.37 159.96 158.89 158.90 C 158.42 157.85 157.17 157.38 156.12 157.86 L 155.21 158.27 C 154.16 158.75 153.69 159.99 154.17 161.05 C 154.65 162.10 155.89 162.57 156.95 162.09 Z M 158.13 161.54 L 158.95 161.00 C 159.93 160.37 160.20 159.07 159.57 158.09 C 158.94 157.12 157.63 156.84 156.66 157.47 L 155.84 158.00 C 154.86 158.64 154.58 159.94 155.22 160.92 C 155.85 161.89 157.15 162.17 158.13 161.54 Z M 159.17 160.85 L 159.93 160.20 C 160.83 159.45 160.94 158.12 160.18 157.22 C 159.43 156.33 158.09 156.22 157.20 156.98 L 156.44 157.62 C 155.55 158.38 155.44 159.71 156.19 160.60 C 156.95 161.49 158.28 161.60 159.17 160.85 Z M 160.11 160.05 L 160.81 159.31 C 161.62 158.46 161.58 157.12 160.73 156.31 C 159.88 155.51 158.54 155.54 157.73 156.39 L 157.03 157.13 C 156.22 157.98 156.26 159.32 157.11 160.13 C 157.96 160.93 159.30 160.90 160.11 160.05 Z M 160.95 159.16 L 161.58 158.36 C 162.30 157.43 162.14 156.10 161.21 155.37 C 160.29 154.65 158.95 154.81 158.22 155.73 L 157.59 156.54 C 156.87 157.46 157.03 158.80 157.96 159.53 C 158.88 160.25 160.22 160.09 160.95 159.16 Z M 161.70 158.21 L 162.25 157.36 C 162.89 156.37 162.61 155.04 161.61 154.40 C 160.62 153.76 159.29 154.04 158.65 155.03 L 158.10 155.89 C 157.46 156.88 157.75 158.20 158.74 158.85 C 159.73 159.49 161.06 159.20 161.70 158.21 Z M 162.36 157.19 L 162.82 156.31 C 163.37 155.26 162.96 153.96 161.91 153.41 C 160.86 152.86 159.56 153.26 159.01 154.32 L 158.54 155.20 C 157.99 156.25 158.40 157.55 159.45 158.10 C 160.51 158.65 161.81 158.25 162.36 157.19 Z M 162.92 156.12 L 163.28 155.22 C 163.73 154.11 163.20 152.85 162.09 152.40 C 160.98 151.95 159.72 152.49 159.27 153.60 L 158.91 154.50 C 158.46 155.61 158.99 156.87 160.10 157.32 C 161.21 157.77 162.47 157.23 162.92 156.12 Z M 163.37 155.00 L 163.64 154.03 C 163.97 152.88 163.31 151.68 162.15 151.35 C 161.00 151.02 159.80 151.69 159.47 152.84 L 159.19 153.81 C 158.86 154.96 159.53 156.17 160.68 156.50 C 161.84 156.82 163.04 156.16 163.37 155.00 Z M 163.70 153.83 L 163.88 152.85 C 164.10 151.67 163.31 150.53 162.13 150.31 C 160.95 150.10 159.81 150.88 159.59 152.06 L 159.41 153.04 C 159.20 154.22 159.98 155.36 161.16 155.58 C 162.35 155.80 163.48 155.01 163.70 153.83 Z M 163.91 152.69 L 164.02 151.71 C 164.15 150.51 163.28 149.43 162.08 149.30 C 160.88 149.17 159.80 150.04 159.67 151.24 L 159.56 152.22 C 159.43 153.42 160.30 154.50 161.50 154.63 C 162.70 154.76 163.78 153.89 163.91 152.69 Z M 164.03 151.59 L 164.08 150.58 C 164.15 149.37 163.22 148.34 162.02 148.28 C 160.81 148.21 159.78 149.14 159.71 150.34 L 159.66 151.35 C 159.59 152.56 160.52 153.59 161.72 153.66 C 162.93 153.72 163.96 152.80 164.03 151.59 Z M 164.09 150.41 L 164.06 149.40 C 164.03 148.19 163.03 147.23 161.82 147.26 C 160.61 147.30 159.65 148.30 159.68 149.51 L 159.71 150.52 C 159.74 151.73 160.74 152.68 161.95 152.65 C 163.16 152.62 164.12 151.62 164.09 150.41 Z M 164.04 149.11 L 163.88 148.14 C 163.69 146.94 162.57 146.13 161.37 146.32 C 160.18 146.51 159.36 147.63 159.55 148.82 L 159.71 149.80 C 159.90 150.99 161.02 151.81 162.22 151.62 C 163.41 151.43 164.23 150.31 164.04 149.11 Z M 163.78 147.74 L 163.47 146.87 C 163.06 145.73 161.81 145.13 160.67 145.54 C 159.53 145.95 158.94 147.20 159.34 148.34 L 159.65 149.22 C 160.06 150.35 161.31 150.95 162.45 150.54 C 163.59 150.14 164.19 148.88 163.78 147.74 Z M 163.27 146.47 L 162.80 145.68 C 162.17 144.65 160.83 144.33 159.79 144.95 C 158.76 145.58 158.43 146.92 159.06 147.95 L 159.54 148.74 C 160.16 149.77 161.51 150.10 162.54 149.47 C 163.57 148.84 163.90 147.50 163.27 146.47 Z M 162.55 145.37 L 161.89 144.63 C 161.09 143.73 159.71 143.65 158.82 144.45 C 157.92 145.25 157.84 146.63 158.64 147.53 L 159.30 148.27 C 160.10 149.17 161.48 149.25 162.38 148.44 C 163.28 147.64 163.35 146.27 162.55 145.37 Z M 161.65 144.41 L 160.79 143.69 C 159.87 142.92 158.50 143.05 157.73 143.97 C 156.97 144.89 157.09 146.26 158.01 147.03 L 158.88 147.75 C 159.80 148.51 161.17 148.39 161.94 147.46 C 162.70 146.54 162.58 145.17 161.65 144.41 Z M 160.60 143.57 L 159.81 143.04 C 158.82 142.38 157.48 142.64 156.82 143.63 C 156.16 144.61 156.42 145.95 157.41 146.61 L 158.20 147.15 C 159.19 147.81 160.53 147.54 161.19 146.56 C 161.85 145.57 161.59 144.23 160.60 143.57 Z M 159.67 142.99 L 158.81 142.50 C 157.79 141.91 156.50 142.26 155.91 143.27 C 155.33 144.28 155.68 145.58 156.69 146.16 L 157.55 146.66 C 158.56 147.25 159.86 146.90 160.44 145.89 C 161.03 144.87 160.68 143.58 159.67 142.99 Z M 158.68 142.47 L 157.77 142.01 C 156.74 141.49 155.49 141.90 154.97 142.93 C 154.45 143.96 154.87 145.21 155.89 145.73 L 156.81 146.19 C 157.84 146.71 159.09 146.29 159.61 145.27 C 160.13 144.24 159.71 142.99 158.68 142.47 Z M 157.65 141.99 L 156.70 141.58 C 155.67 141.12 154.46 141.60 154.01 142.63 C 153.55 143.67 154.03 144.88 155.06 145.33 L 156.01 145.74 C 157.05 146.20 158.25 145.72 158.71 144.69 C 159.16 143.65 158.69 142.44 157.65 141.99 Z M 156.58 141.57 L 155.63 141.22 C 154.59 140.83 153.43 141.36 153.05 142.40 C 152.66 143.45 153.20 144.60 154.24 144.99 L 155.18 145.34 C 156.23 145.73 157.38 145.19 157.77 144.15 C 158.16 143.11 157.62 141.95 156.58 141.57 Z M 155.50 141.22 L 154.48 140.92 C 153.44 140.61 152.35 141.20 152.04 142.24 C 151.73 143.28 152.32 144.37 153.36 144.68 L 154.38 144.98 C 155.41 145.29 156.51 144.70 156.82 143.66 C 157.13 142.63 156.53 141.53 155.50 141.22 Z M 154.35 140.95 L 153.37 140.72 C 152.35 140.48 151.33 141.12 151.09 142.14 C 150.85 143.16 151.49 144.18 152.51 144.42 L 153.49 144.65 C 154.51 144.89 155.53 144.25 155.77 143.23 C 156.01 142.21 155.37 141.19 154.35 140.95 Z M 153.27 140.77 L 152.31 140.59 C 151.31 140.40 150.36 141.06 150.17 142.06 C 149.99 143.06 150.65 144.01 151.64 144.20 L 152.60 144.38 C 153.60 144.56 154.56 143.90 154.74 142.91 C 154.93 141.91 154.27 140.95 153.27 140.77 Z M 152.25 140.64 L 151.30 140.49 C 150.33 140.34 149.43 141.00 149.28 141.97 C 149.12 142.94 149.78 143.84 150.75 143.99 L 151.70 144.14 C 152.67 144.30 153.57 143.63 153.73 142.67 C 153.88 141.70 153.22 140.79 152.25 140.64 Z M 151.28 140.53 L 150.95 140.49 C 150.01 140.35 149.13 141.00 148.99 141.94 C 148.85 142.89 149.50 143.77 150.45 143.91 L 150.77 143.95 C 151.72 144.10 152.60 143.44 152.74 142.50 C 152.88 141.55 152.22 140.68 151.28 140.53 Z"
      fill="black"
      fill-rule="nonzero" /></svg>