<svg xmlns="http://www.w3.org/2000/svg" width="300" height="300" viewBox="0 0 300 300">
<path d="M 163.99 124.94 L 164.17 123.84 C 164.32 122.87 163.66 121.97 162.70 121.81 C 161.73 121.66 160.83 122.32 160.67 123.28 L 160.50 124.38 C 160.34 125.34 161.00 126.25 161.97 126.40 C 162.93 126.56 163.84 125.90 163.99 124.94 Z M 164.24 123.77 L 164.36 122.71 C 164.48 121.71 163.76 120.80 162.75 120.68 C 161.75 120.56 160.84 121.29 160.72 122.29 L 160.60 123.35 C 160.48 124.35 161.20 125.26 162.21 125.38 C 163.21 125.50 164.12 124.78 164.24 123.77 Z M 164.44 122.54 L 164.46 121.56 C 164.48 120.51 163.64 119.65 162.59 119.63 C 161.55 119.61 160.68 120.44 160.66 121.49 L 160.65 122.47 C 160.63 123.52 161.46 124.38 162.51 124.40 C 163.56 124.42 164.42 123.59 164.44 122.54 Z M 164.50 121.21 L 164.36 120.35 C 164.18 119.28 163.17 118.56 162.10 118.73 C 161.04 118.91 160.31 119.92 160.48 120.99 L 160.62 121.84 C 160.80 122.91 161.81 123.64 162.88 123.46 C 163.95 123.29 164.67 122.28 164.50 121.21 Z M 164.21 119.73 L 163.77 118.89 C 163.25 117.91 162.02 117.53 161.04 118.05 C 160.05 118.57 159.67 119.79 160.19 120.77 L 160.63 121.61 C 161.15 122.60 162.38 122.98 163.36 122.46 C 164.35 121.94 164.73 120.71 164.21 119.73 Z M 163.35 118.29 L 162.63 117.64 C 161.78 116.89 160.47 116.96 159.71 117.81 C 158.95 118.67 159.03 119.97 159.88 120.73 L 160.61 121.38 C 161.46 122.14 162.76 122.06 163.52 121.21 C 164.28 120.36 164.21 119.05 163.35 118.29 Z M 162.22 117.31 L 161.32 116.85 C 160.28 116.31 159.01 116.72 158.48 117.76 C 157.94 118.80 158.35 120.07 159.39 120.61 L 160.29 121.07 C 161.33 121.60 162.60 121.19 163.13 120.15 C 163.67 119.12 163.26 117.84 162.22 117.31 Z M 161.04 116.69 L 160.07 116.36 C 158.94 115.99 157.72 116.59 157.35 117.72 C 156.97 118.85 157.58 120.06 158.70 120.44 L 159.67 120.77 C 160.80 121.14 162.02 120.53 162.40 119.41 C 162.77 118.28 162.16 117.06 161.04 116.69 Z M 159.86 116.29 L 158.88 116.06 C 157.71 115.80 156.55 116.53 156.29 117.70 C 156.02 118.87 156.76 120.03 157.92 120.29 L 158.91 120.52 C 160.08 120.78 161.24 120.05 161.50 118.88 C 161.76 117.71 161.03 116.55 159.86 116.29 Z M 158.71 116.03 L 157.72 115.88 C 156.54 115.71 155.43 116.54 155.26 117.72 C 155.09 118.91 155.91 120.02 157.10 120.19 L 158.09 120.33 C 159.28 120.51 160.38 119.68 160.55 118.49 C 160.73 117.30 159.90 116.20 158.71 116.03 Z M 157.60 115.86 L 156.63 115.78 C 155.42 115.67 154.37 116.56 154.26 117.76 C 154.16 118.96 155.05 120.02 156.25 120.13 L 157.22 120.21 C 158.43 120.32 159.48 119.43 159.59 118.23 C 159.69 117.02 158.80 115.97 157.60 115.86 Z M 156.51 115.77 L 155.54 115.73 C 154.34 115.69 153.32 116.63 153.28 117.84 C 153.24 119.05 154.18 120.06 155.39 120.10 L 156.36 120.14 C 157.57 120.18 158.58 119.24 158.62 118.03 C 158.67 116.82 157.72 115.81 156.51 115.77 Z M 155.37 115.73 L 154.39 115.77 C 153.18 115.83 152.25 116.85 152.30 118.06 C 152.35 119.27 153.38 120.20 154.58 120.15 L 155.56 120.11 C 156.77 120.05 157.71 119.03 157.66 117.82 C 157.60 116.61 156.58 115.68 155.37 115.73 Z M 154.17 115.79 L 153.14 115.94 C 151.94 116.12 151.11 117.23 151.29 118.43 C 151.47 119.63 152.58 120.46 153.78 120.28 L 154.81 120.13 C 156.00 119.95 156.83 118.84 156.66 117.64 C 156.48 116.45 155.37 115.62 154.17 115.79 Z M 152.93 115.98 L 152.06 116.20 C 150.88 116.49 150.17 117.68 150.46 118.86 C 150.75 120.03 151.94 120.75 153.11 120.46 L 153.99 120.24 C 155.16 119.95 155.88 118.76 155.59 117.58 C 155.30 116.41 154.11 115.69 152.93 115.98 Z M 151.89 116.25 L 151.00 116.54 C 149.85 116.93 149.23 118.17 149.62 119.32 C 150.00 120.47 151.25 121.09 152.40 120.71 L 153.28 120.41 C 154.43 120.03 155.05 118.78 154.67 117.63 C 154.28 116.48 153.04 115.86 151.89 116.25 Z M 150.85 116.60 L 149.92 116.99 C 148.80 117.46 148.27 118.75 148.74 119.87 C 149.21 120.98 150.49 121.51 151.61 121.04 L 152.55 120.65 C 153.67 120.18 154.19 118.90 153.73 117.78 C 153.26 116.66 151.97 116.13 150.85 116.60 Z M 149.78 117.05 L 148.80 117.54 C 147.72 118.09 147.28 119.41 147.82 120.49 C 148.37 121.58 149.69 122.02 150.77 121.47 L 151.75 120.98 C 152.84 120.44 153.27 119.12 152.73 118.03 C 152.19 116.95 150.87 116.51 149.78 117.05 Z M 148.69 117.60 L 147.77 118.13 C 146.72 118.74 146.36 120.09 146.97 121.14 C 147.58 122.19 148.92 122.55 149.97 121.94 L 150.89 121.41 C 151.94 120.80 152.30 119.46 151.69 118.40 C 151.08 117.35 149.74 116.99 148.69 117.60 Z M 147.68 118.19 L 146.83 118.73 C 145.81 119.39 145.51 120.75 146.17 121.77 C 146.83 122.79 148.19 123.09 149.21 122.43 L 150.06 121.89 C 151.08 121.23 151.38 119.87 150.72 118.85 C 150.07 117.83 148.71 117.53 147.68 118.19 Z M 146.77 118.77 L 145.92 119.36 C 144.92 120.05 144.67 121.42 145.37 122.42 C 146.06 123.42 147.43 123.67 148.43 122.98 L 149.28 122.39 C 150.27 121.70 150.52 120.33 149.83 119.33 C 149.14 118.33 147.77 118.08 146.77 118.77 Z M 145.87 119.40 L 145.04 120.01 C 144.07 120.73 143.86 122.11 144.58 123.09 C 145.30 124.06 146.68 124.27 147.66 123.55 L 148.48 122.94 C 149.46 122.22 149.67 120.84 148.95 119.86 C 148.22 118.88 146.85 118.68 145.87 119.40 Z M 145.00 120.04 L 144.22 120.65 C 143.26 121.40 143.09 122.78 143.84 123.74 C 144.58 124.70 145.97 124.87 146.93 124.12 L 147.71 123.51 C 148.66 122.76 148.83 121.38 148.09 120.42 C 147.34 119.47 145.96 119.29 145.00 120.04 Z M 144.17 120.69 L 143.40 121.32 C 142.46 122.10 142.33 123.49 143.10 124.42 C 143.88 125.36 145.26 125.49 146.20 124.72 L 146.97 124.09 C 147.91 123.31 148.04 121.92 147.27 120.99 C 146.50 120.05 145.11 119.92 144.17 120.69 Z M 143.35 121.37 L 142.54 122.07 C 141.63 122.88 141.54 124.27 142.34 125.18 C 143.14 126.10 144.53 126.19 145.45 125.38 L 146.25 124.68 C 147.17 123.88 147.26 122.48 146.46 121.57 C 145.65 120.66 144.26 120.57 143.35 121.37 Z M 142.50 122.12 L 141.77 122.79 C 140.88 123.62 140.83 125.02 141.66 125.91 C 142.49 126.80 143.88 126.84 144.77 126.01 L 145.50 125.34 C 146.39 124.51 146.44 123.12 145.61 122.23 C 144.78 121.34 143.38 121.29 142.50 122.12 Z M 141.74 122.83 L 141.06 123.49 C 140.19 124.34 140.17 125.73 141.02 126.60 C 141.87 127.47 143.26 127.49 144.13 126.64 L 144.81 125.98 C 145.68 125.13 145.70 123.74 144.85 122.87 C 144.00 122.00 142.61 121.98 141.74 122.83 Z M 141.04 123.51 L 140.37 124.17 C 139.51 125.03 139.51 126.42 140.37 127.28 C 141.23 128.15 142.62 128.15 143.48 127.29 L 144.15 126.62 C 145.01 125.77 145.01 124.37 144.15 123.51 C 143.29 122.65 141.90 122.65 141.04 123.51 Z M 140.37 124.18 L 139.69 124.86 C 138.83 125.72 138.83 127.12 139.69 127.97 C 140.55 128.83 141.94 128.83 142.80 127.97 L 143.48 127.28 C 144.34 126.42 144.34 125.03 143.48 124.17 C 142.62 123.32 141.23 123.32 140.37 124.18 Z M 139.67 124.88 L 138.98 125.59 C 138.13 126.45 138.14 127.85 139.01 128.70 C 139.88 129.55 141.27 129.53 142.12 128.66 L 142.82 127.95 C 143.66 127.09 143.65 125.69 142.78 124.84 C 141.91 124.00 140.52 124.01 139.67 124.88 Z M 138.95 125.61 L 138.26 126.35 C 137.42 127.23 137.46 128.62 138.34 129.46 C 139.22 130.29 140.61 130.25 141.45 129.37 L 142.15 128.64 C 142.98 127.76 142.94 126.36 142.06 125.53 C 141.18 124.69 139.79 124.73 138.95 125.61 Z M 138.22 126.39 L 137.53 127.15 C 136.72 128.05 136.79 129.44 137.69 130.26 C 138.59 131.07 139.98 131.00 140.79 130.10 L 141.48 129.33 C 142.30 128.43 142.23 127.05 141.33 126.23 C 140.43 125.42 139.04 125.49 138.22 126.39 Z M 137.49 127.20 L 136.87 127.92 C 136.08 128.84 136.19 130.23 137.11 131.02 C 138.03 131.81 139.41 131.70 140.20 130.78 L 140.83 130.06 C 141.62 129.14 141.51 127.75 140.59 126.96 C 139.67 126.17 138.28 126.28 137.49 127.20 Z M 136.85 127.96 L 136.22 128.71 C 135.45 129.65 135.59 131.03 136.52 131.80 C 137.46 132.57 138.84 132.44 139.61 131.50 L 140.23 130.75 C 141.00 129.81 140.87 128.43 139.93 127.66 C 139.00 126.89 137.62 127.02 136.85 127.96 Z M 136.21 128.74 L 135.58 129.52 C 134.82 130.46 134.98 131.84 135.92 132.60 C 136.87 133.36 138.25 133.20 139.00 132.26 L 139.63 131.47 C 140.39 130.53 140.23 129.15 139.29 128.39 C 138.34 127.64 136.96 127.79 136.21 128.74 Z M 135.57 129.53 L 134.93 130.35 C 134.18 131.30 134.35 132.68 135.30 133.42 C 136.25 134.17 137.63 134.01 138.37 133.06 L 139.01 132.24 C 139.76 131.29 139.60 129.91 138.64 129.17 C 137.69 128.42 136.32 128.58 135.57 129.53 Z M 134.93 130.35 L 134.30 131.16 C 133.56 132.11 133.73 133.49 134.68 134.23 C 135.63 134.97 137.01 134.80 137.75 133.85 L 138.38 133.05 C 139.12 132.10 138.95 130.72 138.00 129.98 C 137.05 129.23 135.67 129.40 134.93 130.35 Z M 134.30 131.16 L 133.69 131.94 C 132.95 132.89 133.12 134.27 134.08 135.01 C 135.03 135.75 136.40 135.58 137.15 134.63 L 137.75 133.85 C 138.49 132.89 138.32 131.52 137.37 130.78 C 136.41 130.04 135.04 130.21 134.30 131.16 Z M 133.69 131.95 L 133.08 132.74 C 132.34 133.70 132.51 135.07 133.47 135.81 C 134.42 136.55 135.80 136.37 136.54 135.41 L 137.15 134.62 C 137.89 133.66 137.71 132.29 136.76 131.55 C 135.80 130.82 134.43 130.99 133.69 131.95 Z M 133.07 132.75 L 132.46 133.56 C 131.72 134.51 131.91 135.88 132.87 136.62 C 133.82 137.35 135.19 137.17 135.93 136.21 L 136.54 135.40 C 137.27 134.44 137.09 133.07 136.13 132.34 C 135.17 131.61 133.80 131.79 133.07 132.75 Z M 132.45 133.57 L 131.84 134.38 C 131.12 135.34 131.31 136.71 132.27 137.43 C 133.24 138.16 134.60 137.96 135.33 137.00 L 135.94 136.19 C 136.66 135.23 136.47 133.86 135.50 133.14 C 134.54 132.41 133.17 132.61 132.45 133.57 Z M 131.83 134.39 L 131.23 135.20 C 130.52 136.17 130.72 137.54 131.69 138.25 C 132.66 138.97 134.03 138.76 134.74 137.79 L 135.34 136.98 C 136.05 136.01 135.85 134.65 134.88 133.93 C 133.91 133.22 132.54 133.42 131.83 134.39 Z M 131.22 135.22 L 130.63 136.03 C 129.93 137.01 130.15 138.37 131.13 139.08 C 132.11 139.78 133.47 139.56 134.17 138.58 L 134.76 137.77 C 135.46 136.79 135.24 135.43 134.26 134.73 C 133.29 134.02 131.92 134.24 131.22 135.22 Z M 130.62 136.05 L 130.05 136.87 C 129.36 137.85 129.59 139.21 130.58 139.90 C 131.57 140.60 132.93 140.36 133.62 139.37 L 134.19 138.56 C 134.88 137.57 134.64 136.21 133.66 135.52 C 132.67 134.83 131.31 135.07 130.62 136.05 Z M 130.03 136.89 L 129.47 137.71 C 128.79 138.70 129.05 140.06 130.04 140.74 C 131.04 141.42 132.40 141.17 133.08 140.17 L 133.64 139.35 C 134.32 138.35 134.06 137.00 133.06 136.32 C 132.07 135.64 130.71 135.89 130.03 136.89 Z M 129.45 137.73 L 128.90 138.57 C 128.23 139.57 128.51 140.93 129.51 141.59 C 130.52 142.26 131.87 141.99 132.54 140.98 L 133.09 140.15 C 133.76 139.14 133.49 137.79 132.48 137.12 C 131.48 136.45 130.12 136.73 129.45 137.73 Z M 128.88 138.59 L 128.34 139.43 C 127.69 140.44 127.98 141.79 128.99 142.45 C 130.01 143.10 131.36 142.81 132.01 141.80 L 132.55 140.96 C 133.21 139.95 132.92 138.60 131.90 137.94 C 130.89 137.29 129.54 137.58 128.88 138.59 Z M 128.33 139.45 L 127.81 140.28 C 127.17 141.30 127.47 142.65 128.50 143.29 C 129.52 143.93 130.87 143.63 131.51 142.60 L 132.03 141.77 C 132.67 140.75 132.36 139.40 131.34 138.76 C 130.32 138.12 128.97 138.43 128.33 139.45 Z M 127.79 140.30 L 127.27 141.15 C 126.65 142.18 126.97 143.53 128.00 144.16 C 129.03 144.79 130.38 144.46 131.01 143.43 L 131.52 142.58 C 132.15 141.55 131.83 140.21 130.80 139.58 C 129.77 138.95 128.42 139.27 127.79 140.30 Z M 127.26 141.17 L 126.75 142.04 C 126.13 143.08 126.47 144.42 127.51 145.04 C 128.55 145.65 129.89 145.31 130.51 144.27 L 131.02 143.41 C 131.64 142.37 131.29 141.02 130.26 140.41 C 129.22 139.79 127.87 140.14 127.26 141.17 Z M 126.73 142.06 L 126.22 142.94 C 125.62 143.99 125.98 145.33 127.03 145.93 C 128.08 146.53 129.42 146.17 130.02 145.13 L 130.52 144.25 C 131.13 143.20 130.77 141.86 129.72 141.26 C 128.67 140.66 127.33 141.02 126.73 142.06 Z M 126.21 142.97 L 125.71 143.86 C 125.12 144.92 125.50 146.25 126.56 146.84 C 127.62 147.43 128.95 147.05 129.54 145.99 L 130.03 145.10 C 130.62 144.04 130.24 142.71 129.19 142.12 C 128.13 141.53 126.80 141.91 126.21 142.97 Z M 125.70 143.89 L 125.23 144.75 C 124.66 145.82 125.06 147.15 126.12 147.72 C 127.19 148.29 128.51 147.90 129.09 146.83 L 129.56 145.96 C 130.13 144.90 129.73 143.57 128.66 143.00 C 127.60 142.42 126.27 142.82 125.70 143.89 Z M 125.22 144.78 L 124.76 145.66 C 124.20 146.73 124.61 148.05 125.69 148.61 C 126.76 149.17 128.09 148.76 128.65 147.68 L 129.10 146.81 C 129.66 145.73 129.25 144.41 128.17 143.85 C 127.10 143.29 125.78 143.70 125.22 144.78 Z M 124.74 145.68 L 124.29 146.57 C 123.75 147.65 124.18 148.97 125.26 149.52 C 126.34 150.06 127.66 149.63 128.21 148.55 L 128.66 147.66 C 129.21 146.58 128.77 145.26 127.69 144.71 C 126.61 144.17 125.29 144.60 124.74 145.68 Z M 124.28 146.59 L 123.84 147.50 C 123.31 148.58 123.76 149.90 124.84 150.43 C 125.93 150.97 127.25 150.52 127.78 149.43 L 128.22 148.52 C 128.76 147.44 128.31 146.12 127.22 145.59 C 126.13 145.06 124.81 145.50 124.28 146.59 Z M 123.83 147.52 L 123.39 148.43 C 122.87 149.53 123.34 150.84 124.43 151.36 C 125.53 151.88 126.84 151.42 127.36 150.32 L 127.79 149.40 C 128.31 148.31 127.85 147.00 126.75 146.48 C 125.66 145.96 124.35 146.42 123.83 147.52 Z M 123.38 148.46 L 122.96 149.37 C 122.45 150.47 122.93 151.78 124.03 152.29 C 125.13 152.79 126.44 152.31 126.94 151.21 L 127.37 150.30 C 127.88 149.20 127.40 147.89 126.30 147.38 C 125.19 146.87 123.89 147.35 123.38 148.46 Z M 122.95 149.39 L 122.54 150.30 C 122.04 151.41 122.53 152.71 123.64 153.21 C 124.75 153.71 126.05 153.21 126.55 152.10 L 126.96 151.19 C 127.45 150.09 126.96 148.78 125.85 148.29 C 124.75 147.79 123.44 148.28 122.95 149.39 Z M 122.53 150.32 L 122.12 151.24 C 121.64 152.36 122.15 153.65 123.26 154.14 C 124.37 154.62 125.67 154.12 126.16 153.00 L 126.56 152.08 C 127.04 150.97 126.53 149.67 125.42 149.19 C 124.31 148.70 123.01 149.21 122.53 150.32 Z M 122.11 151.27 L 121.72 152.19 C 121.25 153.31 121.78 154.60 122.89 155.08 C 124.01 155.55 125.30 155.02 125.78 153.90 L 126.17 152.98 C 126.64 151.86 126.11 150.57 124.99 150.10 C 123.88 149.62 122.58 150.15 122.11 151.27 Z M 121.71 152.22 L 121.33 153.15 C 120.88 154.28 121.42 155.56 122.54 156.02 C 123.67 156.47 124.95 155.93 125.41 154.81 L 125.79 153.88 C 126.25 152.75 125.70 151.47 124.58 151.01 C 123.45 150.55 122.17 151.09 121.71 152.22 Z M 121.32 153.18 L 120.96 154.11 C 120.52 155.24 121.08 156.52 122.21 156.96 C 123.35 157.40 124.62 156.84 125.06 155.70 L 125.42 154.78 C 125.87 153.64 125.31 152.37 124.17 151.93 C 123.04 151.48 121.76 152.04 121.32 153.18 Z M 120.95 154.14 L 120.60 155.08 C 120.17 156.22 120.75 157.49 121.89 157.91 C 123.04 158.33 124.30 157.75 124.73 156.61 L 125.08 155.67 C 125.50 154.53 124.92 153.26 123.78 152.84 C 122.64 152.42 121.37 153.00 120.95 154.14 Z M 120.58 155.11 L 120.25 156.05 C 119.84 157.20 120.45 158.46 121.59 158.86 C 122.74 159.27 124.00 158.67 124.41 157.52 L 124.74 156.58 C 125.15 155.43 124.55 154.17 123.40 153.77 C 122.25 153.36 120.99 153.96 120.58 155.11 Z M 120.24 156.08 L 119.92 157.02 C 119.53 158.18 120.15 159.43 121.31 159.82 C 122.46 160.21 123.71 159.59 124.10 158.43 L 124.42 157.49 C 124.81 156.34 124.19 155.09 123.03 154.70 C 121.88 154.31 120.63 154.93 120.24 156.08 Z M 119.91 157.05 L 119.60 158.00 C 119.23 159.16 119.87 160.40 121.03 160.77 C 122.19 161.15 123.43 160.51 123.80 159.35 L 124.11 158.41 C 124.49 157.25 123.85 156.00 122.69 155.63 C 121.53 155.25 120.29 155.89 119.91 157.05 Z M 119.60 158.02 L 119.30 158.98 C 118.94 160.14 119.59 161.38 120.75 161.74 C 121.92 162.10 123.16 161.45 123.52 160.28 L 123.81 159.33 C 124.17 158.16 123.52 156.93 122.36 156.57 C 121.19 156.21 119.96 156.86 119.60 158.02 Z M 119.29 159.00 L 119.00 159.96 C 118.65 161.13 119.32 162.36 120.49 162.71 C 121.65 163.06 122.89 162.40 123.24 161.23 L 123.52 160.26 C 123.87 159.09 123.21 157.86 122.04 157.51 C 120.87 157.16 119.64 157.83 119.29 159.00 Z M 119.00 159.98 L 118.71 160.96 C 118.37 162.14 119.05 163.36 120.22 163.70 C 121.39 164.04 122.62 163.36 122.96 162.19 L 123.24 161.21 C 123.58 160.04 122.91 158.81 121.73 158.47 C 120.56 158.14 119.33 158.81 119.00 159.98 Z M 118.71 160.99 L 118.43 161.97 C 118.11 163.15 118.79 164.37 119.97 164.69 C 121.15 165.02 122.37 164.33 122.69 163.15 L 122.97 162.17 C 123.29 160.99 122.60 159.77 121.43 159.45 C 120.25 159.12 119.03 159.81 118.71 160.99 Z M 118.42 162.00 L 118.16 162.98 C 117.85 164.16 118.56 165.37 119.74 165.68 C 120.92 165.99 122.13 165.29 122.44 164.11 L 122.70 163.13 C 123.01 161.95 122.31 160.74 121.13 160.42 C 119.95 160.11 118.74 160.82 118.42 162.00 Z M 118.16 163.01 L 117.92 163.98 C 117.62 165.16 118.34 166.36 119.53 166.66 C 120.72 166.95 121.92 166.23 122.21 165.04 L 122.45 164.08 C 122.75 162.89 122.02 161.69 120.84 161.39 C 119.65 161.10 118.45 161.82 118.16 163.01 Z M 117.91 164.01 L 117.69 164.96 C 117.41 166.15 118.16 167.34 119.35 167.61 C 120.54 167.89 121.73 167.14 122.00 165.95 L 122.22 165.00 C 122.49 163.81 121.75 162.62 120.56 162.35 C 119.37 162.08 118.18 162.82 117.91 164.01 Z M 117.68 165.01 L 117.47 166.01 C 117.22 167.20 117.99 168.38 119.19 168.62 C 120.39 168.87 121.56 168.10 121.81 166.90 L 122.01 165.90 C 122.26 164.70 121.49 163.53 120.29 163.29 C 119.10 163.04 117.92 163.81 117.68 165.01 Z M 117.46 166.06 L 117.27 167.09 C 117.06 168.30 117.86 169.45 119.06 169.66 C 120.27 169.88 121.42 169.08 121.64 167.88 L 121.82 166.85 C 122.04 165.64 121.23 164.49 120.03 164.27 C 118.83 164.06 117.67 164.86 117.46 166.06 Z M 117.26 167.15 L 117.11 168.14 C 116.93 169.35 117.76 170.48 118.97 170.67 C 120.18 170.85 121.31 170.02 121.49 168.81 L 121.65 167.82 C 121.83 166.61 121.00 165.48 119.79 165.29 C 118.58 165.11 117.45 165.94 117.26 167.15 Z M 117.10 168.20 L 116.98 169.16 C 116.83 170.38 117.69 171.49 118.90 171.64 C 120.12 171.79 121.23 170.93 121.38 169.72 L 121.50 168.76 C 121.66 167.54 120.80 166.43 119.58 166.28 C 118.37 166.12 117.26 166.99 117.10 168.20 Z M 116.98 169.22 L 116.88 170.16 C 116.75 171.38 117.64 172.47 118.86 172.59 C 120.08 172.71 121.17 171.83 121.29 170.61 L 121.39 169.67 C 121.51 168.45 120.63 167.36 119.41 167.24 C 118.19 167.11 117.10 168.00 116.98 169.22 Z M 116.87 170.21 L 116.79 171.22 C 116.69 172.44 117.60 173.51 118.83 173.60 C 120.05 173.70 121.12 172.79 121.22 171.57 L 121.30 170.56 C 121.39 169.34 120.48 168.27 119.26 168.17 C 118.04 168.07 116.97 168.98 116.87 170.21 Z M 116.79 171.26 L 116.73 172.28 C 116.65 173.50 117.59 174.55 118.81 174.63 C 120.03 174.70 121.08 173.77 121.16 172.54 L 121.22 171.53 C 121.29 170.30 120.36 169.25 119.14 169.18 C 117.91 169.10 116.86 170.04 116.79 171.26 Z M 116.72 172.31 L 116.68 173.31 C 116.63 174.54 117.58 175.57 118.80 175.63 C 120.03 175.68 121.06 174.73 121.12 173.50 L 121.16 172.51 C 121.21 171.28 120.26 170.25 119.04 170.19 C 117.81 170.14 116.78 171.09 116.72 172.31 Z M 116.68 173.34 L 116.65 174.32 C 116.61 175.54 117.58 176.57 118.80 176.60 C 120.03 176.64 121.05 175.68 121.09 174.45 L 121.12 173.47 C 121.15 172.25 120.19 171.23 118.96 171.19 C 117.74 171.15 116.72 172.12 116.68 173.34 Z M 116.65 174.34 L 116.63 175.34 C 116.61 176.57 117.58 177.58 118.81 177.61 C 120.04 177.63 121.05 176.65 121.07 175.43 L 121.09 174.43 C 121.11 173.20 120.14 172.19 118.91 172.16 C 117.69 172.14 116.67 173.12 116.65 174.34 Z M 116.63 175.36 L 116.62 176.39 C 116.61 177.62 117.59 178.63 118.82 178.64 C 120.05 178.65 121.05 177.66 121.06 176.44 L 121.07 175.41 C 121.08 174.18 120.10 173.18 118.87 173.16 C 117.65 173.15 116.64 174.14 116.63 175.36 Z M 116.62 176.42 L 116.62 177.42 C 116.62 178.64 117.62 179.64 118.84 179.64 C 120.07 179.64 121.06 178.64 121.06 177.41 L 121.06 176.41 C 121.06 175.19 120.07 174.19 118.84 174.19 C 117.61 174.19 116.62 175.19 116.62 176.42 Z M 116.62 177.44 L 116.63 178.41 C 116.64 179.63 117.65 180.62 118.88 180.60 C 120.11 180.59 121.09 179.58 121.07 178.36 L 121.06 177.39 C 121.05 176.16 120.04 175.18 118.82 175.19 C 117.59 175.21 116.61 176.21 116.62 177.44 Z M 116.63 178.44 L 116.65 179.45 C 116.68 180.67 117.70 181.64 118.93 181.61 C 120.16 181.59 121.13 180.57 121.10 179.34 L 121.07 178.33 C 121.05 177.10 120.03 176.13 118.80 176.16 C 117.57 176.19 116.60 177.21 116.63 178.44 Z M 116.66 179.50 L 116.71 180.52 C 116.77 181.75 117.81 182.69 119.04 182.63 C 120.26 182.57 121.21 181.53 121.15 180.30 L 121.10 179.28 C 121.04 178.06 119.99 177.11 118.77 177.17 C 117.54 177.23 116.60 178.28 116.66 179.50 Z M 116.71 180.63 L 116.81 181.61 C 116.93 182.83 118.02 183.72 119.24 183.60 C 120.46 183.48 121.36 182.39 121.24 181.17 L 121.14 180.19 C 121.02 178.97 119.93 178.08 118.71 178.20 C 117.49 178.32 116.60 179.41 116.71 180.63 Z M 116.83 181.77 L 116.99 182.72 C 117.20 183.93 118.35 184.74 119.56 184.53 C 120.77 184.33 121.59 183.18 121.38 181.97 L 121.22 181.01 C 121.01 179.80 119.86 178.99 118.65 179.20 C 117.44 179.40 116.62 180.55 116.83 181.77 Z M 117.04 182.91 L 117.29 183.87 C 117.60 185.06 118.82 185.77 120.01 185.45 C 121.20 185.14 121.90 183.92 121.59 182.73 L 121.34 181.77 C 121.02 180.59 119.81 179.88 118.62 180.19 C 117.43 180.50 116.72 181.72 117.04 182.91 Z M 117.34 184.03 L 117.67 184.97 C 118.07 186.13 119.34 186.74 120.50 186.34 C 121.66 185.94 122.27 184.67 121.87 183.51 L 121.54 182.57 C 121.14 181.41 119.87 180.80 118.71 181.20 C 117.55 181.61 116.94 182.87 117.34 184.03 Z M 117.71 185.09 L 118.10 186.02 C 118.56 187.16 119.87 187.70 121.00 187.23 C 122.14 186.76 122.68 185.46 122.21 184.32 L 121.82 183.39 C 121.35 182.26 120.05 181.72 118.92 182.18 C 117.78 182.65 117.24 183.95 117.71 185.09 Z M 118.13 186.11 L 118.52 186.95 C 119.04 188.06 120.36 188.55 121.48 188.03 C 122.59 187.52 123.08 186.19 122.56 185.08 L 122.17 184.24 C 121.65 183.12 120.33 182.64 119.22 183.15 C 118.10 183.67 117.62 184.99 118.13 186.11 Z M 118.59 187.08 L 119.05 187.93 C 119.64 189.01 120.99 189.41 122.07 188.82 C 123.15 188.24 123.55 186.89 122.96 185.81 L 122.50 184.95 C 121.91 183.87 120.56 183.47 119.48 184.06 C 118.40 184.65 118.00 186.00 118.59 187.08 Z M 119.15 188.10 L 119.72 188.96 C 120.40 189.99 121.78 190.27 122.81 189.59 C 123.83 188.91 124.11 187.53 123.43 186.51 L 122.86 185.64 C 122.18 184.62 120.80 184.34 119.78 185.01 C 118.75 185.69 118.47 187.07 119.15 188.10 Z M 119.85 189.14 L 120.49 189.93 C 121.27 190.88 122.67 191.03 123.62 190.25 C 124.58 189.48 124.72 188.08 123.95 187.13 L 123.31 186.33 C 122.53 185.38 121.13 185.23 120.18 186.01 C 119.22 186.78 119.08 188.18 119.85 189.14 Z M 120.61 190.06 L 121.27 190.75 C 122.12 191.64 123.53 191.67 124.41 190.82 C 125.30 189.97 125.33 188.56 124.48 187.67 L 123.83 186.99 C 122.98 186.10 121.57 186.07 120.68 186.92 C 119.80 187.77 119.77 189.18 120.61 190.06 Z M 121.38 190.85 L 122.11 191.52 C 123.02 192.35 124.42 192.29 125.25 191.38 C 126.08 190.48 126.02 189.07 125.11 188.24 L 124.38 187.57 C 123.47 186.74 122.06 186.80 121.24 187.71 C 120.41 188.62 120.47 190.02 121.38 190.85 Z M 122.21 191.61 L 123.02 192.26 C 123.97 193.03 125.37 192.89 126.14 191.93 C 126.91 190.98 126.77 189.58 125.81 188.81 L 125.01 188.16 C 124.06 187.39 122.66 187.53 121.89 188.49 C 121.11 189.44 121.26 190.84 122.21 191.61 Z M 123.12 192.34 L 123.97 192.95 C 124.97 193.67 126.36 193.44 127.07 192.44 C 127.79 191.45 127.56 190.06 126.57 189.34 L 125.71 188.73 C 124.71 188.01 123.33 188.24 122.61 189.24 C 121.90 190.23 122.12 191.62 123.12 192.34 Z M 124.08 193.02 L 124.91 193.55 C 125.94 194.21 127.31 193.90 127.97 192.87 C 128.63 191.83 128.32 190.46 127.29 189.80 L 126.46 189.28 C 125.43 188.62 124.06 188.92 123.40 189.96 C 122.74 190.99 123.04 192.36 124.08 193.02 Z M 125.00 193.60 L 125.85 194.08 C 126.91 194.69 128.27 194.32 128.87 193.25 C 129.48 192.19 129.11 190.83 128.04 190.23 L 127.19 189.75 C 126.13 189.14 124.78 189.52 124.17 190.58 C 123.57 191.64 123.94 193.00 125.00 193.60 Z M 125.94 194.13 L 126.82 194.58 C 127.91 195.14 129.24 194.70 129.80 193.62 C 130.36 192.53 129.92 191.19 128.83 190.64 L 127.95 190.19 C 126.86 189.63 125.53 190.06 124.97 191.15 C 124.42 192.24 124.85 193.57 125.94 194.13 Z M 126.90 194.61 L 127.81 195.04 C 128.92 195.55 130.24 195.07 130.75 193.96 C 131.26 192.85 130.78 191.54 129.67 191.02 L 128.76 190.60 C 127.65 190.09 126.33 190.57 125.82 191.68 C 125.31 192.79 125.79 194.10 126.90 194.61 Z M 127.88 195.07 L 128.84 195.47 C 129.96 195.95 131.26 195.42 131.73 194.30 C 132.21 193.18 131.69 191.88 130.56 191.40 L 129.61 191.00 C 128.48 190.52 127.19 191.05 126.71 192.17 C 126.23 193.29 126.76 194.59 127.88 195.07 Z M 128.89 195.49 L 129.76 195.83 C 130.89 196.28 132.17 195.72 132.62 194.59 C 133.07 193.45 132.51 192.17 131.38 191.73 L 130.51 191.38 C 129.38 190.94 128.09 191.49 127.65 192.63 C 127.20 193.76 127.76 195.04 128.89 195.49 Z M 129.81 195.85 L 130.66 196.16 C 131.81 196.58 133.07 196.00 133.49 194.85 C 133.91 193.71 133.33 192.45 132.18 192.03 L 131.33 191.71 C 130.18 191.29 128.92 191.88 128.50 193.02 C 128.08 194.16 128.66 195.43 129.81 195.85 Z M 130.72 196.18 L 131.62 196.48 C 132.77 196.88 134.02 196.26 134.41 195.11 C 134.80 193.96 134.18 192.71 133.03 192.32 L 132.13 192.01 C 130.98 191.62 129.73 192.24 129.34 193.39 C 128.95 194.54 129.57 195.79 130.72 196.18 Z M 131.67 196.50 L 132.62 196.80 C 133.78 197.16 135.02 196.51 135.38 195.35 C 135.74 194.19 135.09 192.96 133.93 192.60 L 132.98 192.30 C 131.82 191.94 130.59 192.59 130.23 193.75 C 129.87 194.91 130.51 196.14 131.67 196.50 Z M 132.68 196.81 L 133.69 197.09 C 134.86 197.42 136.07 196.74 136.40 195.58 C 136.73 194.41 136.05 193.20 134.88 192.87 L 133.87 192.58 C 132.71 192.25 131.49 192.93 131.16 194.10 C 130.83 195.27 131.51 196.48 132.68 196.81 Z M 133.75 197.11 L 134.82 197.38 C 136.00 197.68 137.19 196.97 137.49 195.80 C 137.79 194.62 137.08 193.43 135.90 193.13 L 134.83 192.86 C 133.65 192.56 132.46 193.27 132.16 194.44 C 131.86 195.61 132.57 196.81 133.75 197.11 Z M 134.88 197.39 L 135.88 197.62 C 137.06 197.89 138.23 197.15 138.50 195.98 C 138.77 194.80 138.04 193.62 136.86 193.35 L 135.85 193.12 C 134.67 192.85 133.50 193.59 133.23 194.77 C 132.96 195.94 133.70 197.12 134.88 197.39 Z M 135.92 197.63 L 136.89 197.83 C 138.07 198.07 139.23 197.32 139.48 196.14 C 139.72 194.95 138.97 193.80 137.78 193.55 L 136.82 193.35 C 135.64 193.10 134.48 193.86 134.23 195.04 C 133.98 196.22 134.74 197.38 135.92 197.63 Z M 136.92 197.83 L 137.92 198.02 C 139.10 198.25 140.25 197.48 140.47 196.29 C 140.70 195.11 139.93 193.97 138.74 193.74 L 137.75 193.55 C 136.57 193.32 135.42 194.09 135.19 195.28 C 134.97 196.46 135.74 197.60 136.92 197.83 Z M 137.95 198.02 L 138.96 198.20 C 140.15 198.42 141.28 197.63 141.49 196.44 C 141.70 195.26 140.91 194.13 139.73 193.92 L 138.71 193.74 C 137.53 193.52 136.40 194.31 136.19 195.50 C 135.98 196.68 136.77 197.81 137.95 198.02 Z M 138.99 198.21 L 140.01 198.37 C 141.19 198.57 142.31 197.77 142.51 196.58 C 142.70 195.40 141.90 194.28 140.71 194.08 L 139.70 193.91 C 138.51 193.72 137.39 194.52 137.20 195.71 C 137.00 196.89 137.80 198.01 138.99 198.21 Z M 140.03 198.37 L 141.04 198.53 C 142.23 198.71 143.33 197.89 143.51 196.71 C 143.69 195.52 142.88 194.41 141.69 194.23 L 140.69 194.08 C 139.50 193.90 138.39 194.72 138.21 195.90 C 138.03 197.09 138.85 198.19 140.03 198.37 Z M 141.07 198.53 L 142.05 198.67 C 143.24 198.83 144.33 198.00 144.50 196.82 C 144.66 195.63 143.84 194.54 142.65 194.37 L 141.67 194.23 C 140.48 194.07 139.38 194.90 139.22 196.08 C 139.05 197.27 139.88 198.36 141.07 198.53 Z M 142.08 198.67 L 143.03 198.79 C 144.22 198.94 145.30 198.10 145.45 196.91 C 145.60 195.72 144.76 194.64 143.57 194.49 L 142.62 194.37 C 141.44 194.22 140.35 195.06 140.20 196.25 C 140.05 197.43 140.89 198.52 142.08 198.67 Z M 143.06 198.78 L 144.18 198.91 C 145.36 199.04 146.43 198.18 146.56 197.00 C 146.69 195.82 145.84 194.75 144.65 194.62 L 143.54 194.49 C 142.35 194.36 141.29 195.21 141.16 196.40 C 141.02 197.58 141.88 198.65 143.06 198.78 Z M 144.22 198.90 L 145.27 199.00 C 146.45 199.11 147.50 198.24 147.61 197.06 C 147.72 195.88 146.85 194.83 145.67 194.72 L 144.62 194.62 C 143.44 194.51 142.39 195.38 142.28 196.56 C 142.17 197.74 143.03 198.79 144.22 198.90 Z M 145.31 198.99 L 146.31 199.07 C 147.49 199.16 148.52 198.28 148.61 197.10 C 148.70 195.92 147.82 194.90 146.64 194.81 L 145.64 194.73 C 144.46 194.64 143.43 195.52 143.34 196.70 C 143.25 197.87 144.13 198.90 145.31 198.99 Z M 146.35 199.06 L 147.31 199.12 C 148.49 199.19 149.49 198.30 149.57 197.12 C 149.64 195.95 148.74 194.94 147.57 194.87 L 146.60 194.81 C 145.43 194.74 144.42 195.64 144.35 196.81 C 144.28 197.98 145.17 198.99 146.35 199.06 Z M 147.34 199.11 L 148.28 199.16 C 149.45 199.21 150.44 198.31 150.49 197.14 C 150.55 195.97 149.64 194.98 148.47 194.92 L 147.54 194.88 C 146.37 194.83 145.38 195.73 145.32 196.90 C 145.27 198.07 146.17 199.06 147.34 199.11 Z M 148.31 199.15 L 149.22 199.18 C 150.39 199.22 151.37 198.31 151.40 197.14 C 151.44 195.98 150.53 195.00 149.37 194.96 L 148.45 194.93 C 147.28 194.89 146.31 195.80 146.27 196.97 C 146.23 198.13 147.14 199.11 148.31 199.15 Z M 149.25 199.17 L 150.25 199.19 C 151.41 199.22 152.37 198.30 152.40 197.14 C 152.43 195.98 151.51 195.02 150.35 195.00 L 149.35 194.97 C 148.19 194.94 147.22 195.86 147.20 197.02 C 147.17 198.18 148.09 199.14 149.25 199.17 Z M 150.28 199.18 L 151.29 199.20 C 152.44 199.21 153.39 198.28 153.40 197.13 C 153.42 195.98 152.49 195.03 151.34 195.02 L 150.32 195.00 C 149.17 194.99 148.22 195.92 148.21 197.07 C 148.20 198.22 149.12 199.17 150.28 199.18 Z M 151.32 199.19 L 152.33 199.18 C 153.48 199.18 154.40 198.24 154.40 197.10 C 154.40 195.95 153.46 195.02 152.31 195.02 L 151.31 195.03 C 150.16 195.03 149.23 195.97 149.23 197.11 C 149.24 198.26 150.17 199.19 151.32 199.19 Z M 152.36 199.17 L 153.36 199.15 C 154.50 199.12 155.41 198.18 155.38 197.04 C 155.36 195.89 154.41 194.99 153.27 195.01 L 152.27 195.03 C 151.13 195.06 150.23 196.00 150.25 197.15 C 150.28 198.29 151.22 199.20 152.36 199.17 Z M 153.40 199.14 L 154.39 199.10 C 155.52 199.05 156.40 198.09 156.36 196.95 C 156.31 195.81 155.35 194.93 154.21 194.98 L 153.23 195.02 C 152.09 195.07 151.21 196.03 151.26 197.17 C 151.31 198.31 152.27 199.19 153.40 199.14 Z M 154.44 199.08 L 155.42 199.01 C 156.55 198.94 157.40 197.96 157.33 196.83 C 157.25 195.70 156.27 194.85 155.14 194.93 L 154.16 194.99 C 153.03 195.07 152.18 196.05 152.25 197.18 C 152.33 198.31 153.31 199.16 154.44 199.08 Z M 155.48 199.00 L 156.48 198.90 C 157.60 198.79 158.41 197.79 158.30 196.67 C 158.19 195.55 157.20 194.73 156.08 194.85 L 155.08 194.94 C 153.96 195.05 153.14 196.05 153.25 197.17 C 153.37 198.29 154.36 199.11 155.48 199.00 Z M 156.55 198.88 L 157.53 198.74 C 158.64 198.59 159.42 197.57 159.27 196.47 C 159.12 195.36 158.10 194.58 156.99 194.73 L 156.00 194.87 C 154.90 195.02 154.12 196.04 154.27 197.14 C 154.42 198.25 155.44 199.03 156.55 198.88 Z M 157.61 198.72 L 158.59 198.55 C 159.68 198.35 160.41 197.31 160.22 196.21 C 160.02 195.12 158.98 194.39 157.89 194.59 L 156.91 194.76 C 155.82 194.95 155.09 196.00 155.28 197.09 C 155.47 198.18 156.52 198.91 157.61 198.72 Z M 158.68 198.52 L 159.65 198.30 C 160.73 198.06 161.40 196.99 161.16 195.91 C 160.92 194.83 159.85 194.16 158.78 194.40 L 157.80 194.62 C 156.72 194.86 156.05 195.93 156.29 197.00 C 156.53 198.08 157.60 198.76 158.68 198.52 Z M 159.74 198.26 L 160.71 197.99 C 161.77 197.70 162.39 196.61 162.10 195.55 C 161.81 194.50 160.71 193.87 159.66 194.17 L 158.69 194.43 C 157.63 194.72 157.01 195.82 157.30 196.87 C 157.59 197.93 158.68 198.55 159.74 198.26 Z M 160.80 197.95 L 161.71 197.65 C 162.75 197.32 163.31 196.20 162.97 195.17 C 162.64 194.13 161.52 193.57 160.49 193.91 L 159.57 194.21 C 158.54 194.54 157.97 195.66 158.31 196.69 C 158.65 197.73 159.76 198.29 160.80 197.95 Z M 161.78 197.61 L 162.70 197.27 C 163.71 196.90 164.23 195.77 163.85 194.76 C 163.48 193.75 162.35 193.23 161.34 193.61 L 160.42 193.95 C 159.41 194.32 158.89 195.45 159.27 196.46 C 159.64 197.47 160.77 197.99 161.78 197.61 Z M 162.75 197.24 L 163.67 196.86 C 164.67 196.46 165.14 195.33 164.74 194.33 C 164.34 193.34 163.20 192.86 162.21 193.27 L 161.29 193.64 C 160.29 194.05 159.82 195.18 160.22 196.17 C 160.63 197.16 161.76 197.64 162.75 197.24 Z M 163.71 196.83 L 164.64 196.42 C 165.62 196.00 166.06 194.86 165.64 193.89 C 165.21 192.91 164.08 192.47 163.10 192.89 L 162.17 193.30 C 161.20 193.73 160.75 194.86 161.18 195.84 C 161.60 196.81 162.74 197.25 163.71 196.83 Z M 164.67 196.39 L 165.60 195.96 C 166.56 195.52 166.98 194.39 166.54 193.43 C 166.10 192.47 164.97 192.05 164.01 192.49 L 163.07 192.92 C 162.12 193.36 161.70 194.50 162.14 195.46 C 162.58 196.42 163.71 196.83 164.67 196.39 Z M 165.62 195.94 L 166.54 195.50 C 167.49 195.05 167.89 193.92 167.44 192.97 C 166.99 192.03 165.86 191.63 164.91 192.08 L 163.99 192.52 C 163.05 192.97 162.65 194.10 163.10 195.04 C 163.55 195.99 164.68 196.39 165.62 195.94 Z M 166.55 195.47 L 167.46 195.03 C 168.39 194.58 168.77 193.45 168.32 192.52 C 167.86 191.59 166.74 191.21 165.81 191.66 L 164.90 192.10 C 163.97 192.56 163.59 193.69 164.04 194.62 C 164.50 195.55 165.62 195.93 166.55 195.47 Z M 167.47 195.00 L 168.37 194.55 C 169.29 194.09 169.65 192.97 169.19 192.05 C 168.73 191.14 167.61 190.77 166.69 191.23 L 165.79 191.69 C 164.88 192.15 164.51 193.27 164.97 194.18 C 165.44 195.10 166.55 195.47 167.47 195.00 Z M 168.38 194.52 L 169.28 194.05 C 170.18 193.58 170.52 192.47 170.05 191.57 C 169.58 190.67 168.47 190.32 167.57 190.79 L 166.68 191.26 C 165.78 191.73 165.43 192.84 165.90 193.74 C 166.37 194.64 167.48 194.99 168.38 194.52 Z M 169.29 194.02 L 170.17 193.55 C 171.06 193.07 171.38 191.96 170.90 191.08 C 170.42 190.19 169.32 189.87 168.43 190.35 L 167.55 190.82 C 166.67 191.31 166.34 192.41 166.82 193.29 C 167.30 194.18 168.41 194.50 169.29 194.02 Z M 170.19 193.51 L 171.05 193.03 C 171.92 192.54 172.22 191.44 171.73 190.57 C 171.24 189.70 170.14 189.40 169.27 189.89 L 168.41 190.38 C 167.55 190.87 167.24 191.97 167.74 192.84 C 168.23 193.70 169.33 194.01 170.19 193.51 Z M 171.07 192.99 L 171.95 192.47 C 172.79 191.97 173.07 190.87 172.57 190.03 C 172.06 189.18 170.97 188.90 170.12 189.41 L 169.25 189.93 C 168.40 190.43 168.13 191.53 168.63 192.37 C 169.13 193.22 170.23 193.50 171.07 192.99 Z M 171.97 192.44 L 172.85 191.89 C 173.68 191.37 173.93 190.28 173.41 189.45 C 172.89 188.63 171.80 188.38 170.98 188.90 L 170.10 189.44 C 169.27 189.96 169.02 191.05 169.54 191.88 C 170.06 192.70 171.15 192.95 171.97 192.44 Z M 172.87 191.85 L 173.72 191.29 C 174.52 190.76 174.75 189.68 174.22 188.88 C 173.69 188.07 172.61 187.85 171.80 188.38 L 170.96 188.93 C 170.15 189.46 169.93 190.54 170.46 191.35 C 170.98 192.15 172.07 192.38 172.87 191.85 Z M 173.74 191.26 L 174.56 190.69 C 175.34 190.15 175.54 189.08 175.00 188.29 C 174.46 187.51 173.39 187.31 172.60 187.85 L 171.78 188.41 C 171.00 188.95 170.80 190.03 171.34 190.81 C 171.88 191.60 172.95 191.80 173.74 191.26 Z M 174.57 190.66 L 175.36 190.09 C 176.13 189.54 176.30 188.48 175.76 187.71 C 175.21 186.95 174.14 186.77 173.38 187.32 L 172.59 187.88 C 171.82 188.43 171.64 189.50 172.19 190.26 C 172.74 191.03 173.81 191.21 174.57 190.66 Z M 175.38 190.06 L 176.15 189.48 C 176.90 188.93 177.05 187.87 176.50 187.12 C 175.94 186.37 174.88 186.22 174.14 186.78 L 173.36 187.35 C 172.62 187.91 172.46 188.96 173.02 189.71 C 173.57 190.46 174.63 190.61 175.38 190.06 Z M 176.17 189.45 L 177.00 188.81 C 177.73 188.24 177.86 187.19 177.30 186.46 C 176.74 185.73 175.69 185.60 174.96 186.16 L 174.12 186.81 C 173.39 187.37 173.26 188.42 173.82 189.15 C 174.39 189.88 175.44 190.01 176.17 189.45 Z M 177.02 188.78 L 177.82 188.13 C 178.53 187.56 178.64 186.51 178.07 185.80 C 177.49 185.09 176.45 184.98 175.74 185.55 L 174.94 186.19 C 174.22 186.77 174.11 187.81 174.69 188.52 C 175.26 189.24 176.30 189.35 177.02 188.78 Z M 177.83 188.10 L 178.60 187.46 C 179.29 186.88 179.38 185.84 178.80 185.14 C 178.21 184.45 177.17 184.36 176.48 184.94 L 175.72 185.58 C 175.02 186.17 174.93 187.20 175.52 187.90 C 176.10 188.60 177.14 188.69 177.83 188.10 Z M 178.61 187.43 L 179.34 186.79 C 180.01 186.20 180.08 185.17 179.49 184.49 C 178.89 183.81 177.86 183.75 177.18 184.34 L 176.46 184.98 C 175.78 185.57 175.72 186.60 176.31 187.28 C 176.91 187.96 177.94 188.02 178.61 187.43 Z M 179.36 186.76 L 180.08 186.10 C 180.73 185.49 180.78 184.46 180.17 183.81 C 179.56 183.15 178.54 183.11 177.88 183.71 L 177.16 184.37 C 176.50 184.98 176.46 186.01 177.07 186.67 C 177.68 187.32 178.70 187.37 179.36 186.76 Z M 180.10 186.07 L 180.84 185.35 C 181.48 184.73 181.50 183.71 180.88 183.07 C 180.26 182.42 179.23 182.41 178.59 183.03 L 177.85 183.75 C 177.21 184.37 177.20 185.39 177.82 186.03 C 178.44 186.67 179.46 186.69 180.10 186.07 Z M 180.86 185.33 L 181.57 184.62 C 182.19 183.98 182.19 182.96 181.55 182.33 C 180.92 181.71 179.90 181.71 179.27 182.34 L 178.57 183.05 C 177.94 183.69 177.95 184.71 178.58 185.34 C 179.21 185.97 180.24 185.96 180.86 185.33 Z M 181.58 184.60 L 182.26 183.89 C 182.88 183.25 182.86 182.23 182.21 181.61 C 181.57 180.99 180.55 181.01 179.93 181.66 L 179.25 182.36 C 178.64 183.00 178.66 184.03 179.30 184.64 C 179.94 185.26 180.96 185.24 181.58 184.60 Z M 182.27 183.88 L 182.81 183.31 C 183.42 182.67 183.40 181.65 182.75 181.03 C 182.11 180.42 181.09 180.45 180.47 181.09 L 179.93 181.66 C 179.31 182.31 179.34 183.33 179.99 183.94 C 180.63 184.56 181.65 184.53 182.27 183.88 Z"
      fill="black"
      fill-rule="nonzero" /></svg>