<svg xmlns="http://www.w3.org/2000/svg" width="300" height="300" viewBox="0 0 300 300">
<path d="M 125.91 187.36 L 126.75 187.88 C 127.73 188.47 129.01 188.17 129.61 187.19 C 130.21 186.21 129.90 184.93 128.92 184.33 L 128.08 183.81 C 127.10 183.21 125.82 183.52 125.22 184.50 C 124.62 185.48 124.93 186.76 125.91 187.36 Z M 126.90 187.97 L 127.78 188.41 C 128.81 188.93 130.07 188.51 130.59 187.48 C 131.11 186.45 130.69 185.19 129.65 184.67 L 128.77 184.23 C 127.74 183.71 126.48 184.13 125.96 185.17 C 125.45 186.20 125.87 187.46 126.90 187.97 Z M 128.11 188.56 L 129.06 188.85 C 130.17 189.19 131.35 188.56 131.69 187.44 C 132.03 186.33 131.40 185.15 130.28 184.81 L 129.33 184.53 C 128.21 184.19 127.04 184.82 126.70 185.93 C 126.36 187.05 126.99 188.22 128.11 188.56 Z M 129.52 188.95 L 130.48 189.01 C 131.65 189.10 132.66 188.22 132.75 187.05 C 132.83 185.88 131.95 184.87 130.78 184.78 L 129.82 184.72 C 128.65 184.63 127.64 185.51 127.55 186.68 C 127.47 187.85 128.35 188.86 129.52 188.95 Z M 130.88 189.01 L 131.82 188.90 C 132.99 188.77 133.82 187.71 133.69 186.54 C 133.55 185.38 132.49 184.54 131.33 184.67 L 130.38 184.78 C 129.22 184.92 128.38 185.98 128.51 187.15 C 128.65 188.31 129.71 189.15 130.88 189.01 Z M 132.08 188.86 L 133.06 188.62 C 134.21 188.34 134.91 187.19 134.63 186.04 C 134.35 184.89 133.19 184.19 132.05 184.47 L 131.06 184.72 C 129.92 185.00 129.22 186.15 129.50 187.30 C 129.78 188.44 130.94 189.14 132.08 188.86 Z M 133.25 188.57 L 134.24 188.23 C 135.36 187.85 135.96 186.63 135.57 185.51 C 135.19 184.40 133.97 183.80 132.85 184.18 L 131.86 184.52 C 130.74 184.91 130.15 186.12 130.53 187.24 C 130.91 188.36 132.13 188.96 133.25 188.57 Z M 134.37 188.19 L 135.33 187.79 C 136.43 187.33 136.94 186.07 136.49 184.98 C 136.03 183.89 134.77 183.37 133.68 183.83 L 132.72 184.23 C 131.62 184.69 131.11 185.94 131.57 187.04 C 132.02 188.13 133.28 188.65 134.37 188.19 Z M 135.44 187.75 L 136.33 187.32 C 137.40 186.80 137.85 185.52 137.34 184.45 C 136.83 183.38 135.54 182.93 134.47 183.44 L 133.58 183.87 C 132.51 184.38 132.06 185.67 132.57 186.74 C 133.08 187.81 134.37 188.26 135.44 187.75 Z M 136.42 187.27 L 137.29 186.81 C 138.33 186.25 138.73 184.94 138.17 183.90 C 137.61 182.85 136.31 182.46 135.26 183.02 L 134.39 183.48 C 133.34 184.04 132.95 185.35 133.51 186.39 C 134.07 187.44 135.37 187.83 136.42 187.27 Z M 137.36 186.77 L 138.22 186.27 C 139.24 185.67 139.59 184.35 138.99 183.33 C 138.39 182.30 137.08 181.96 136.05 182.55 L 135.19 183.05 C 134.17 183.65 133.82 184.97 134.42 185.99 C 135.02 187.02 136.33 187.37 137.36 186.77 Z M 138.27 186.24 L 139.13 185.70 C 140.14 185.07 140.45 183.75 139.82 182.74 C 139.20 181.73 137.87 181.42 136.86 182.05 L 136.00 182.58 C 134.99 183.21 134.68 184.53 135.31 185.54 C 135.94 186.55 137.26 186.86 138.27 186.24 Z M 139.17 185.68 L 140.03 185.12 C 141.02 184.47 141.31 183.14 140.66 182.15 C 140.02 181.15 138.69 180.87 137.69 181.51 L 136.83 182.07 C 135.83 182.72 135.55 184.05 136.19 185.04 C 136.84 186.04 138.17 186.32 139.17 185.68 Z M 140.06 185.10 L 140.91 184.52 C 141.90 183.86 142.16 182.53 141.50 181.54 C 140.84 180.56 139.50 180.30 138.52 180.96 L 137.66 181.53 C 136.68 182.19 136.41 183.53 137.08 184.51 C 137.74 185.50 139.07 185.76 140.06 185.10 Z M 140.94 184.50 L 141.78 183.92 C 142.75 183.24 142.99 181.91 142.31 180.93 C 141.63 179.96 140.30 179.72 139.32 180.40 L 138.49 180.98 C 137.52 181.66 137.28 182.99 137.95 183.97 C 138.63 184.94 139.97 185.18 140.94 184.50 Z M 141.81 183.90 L 142.60 183.33 C 143.56 182.63 143.77 181.29 143.08 180.33 C 142.39 179.37 141.04 179.15 140.08 179.85 L 139.29 180.42 C 138.33 181.12 138.12 182.46 138.81 183.42 C 139.51 184.38 140.85 184.59 141.81 183.90 Z M 142.63 183.30 L 143.41 182.71 C 144.35 182.00 144.54 180.65 143.82 179.71 C 143.11 178.77 141.76 178.58 140.82 179.29 L 140.05 179.88 C 139.10 180.59 138.92 181.94 139.63 182.88 C 140.35 183.82 141.69 184.01 142.63 183.30 Z M 143.45 182.67 L 144.23 182.05 C 145.15 181.31 145.29 179.97 144.56 179.05 C 143.82 178.12 142.47 177.98 141.55 178.71 L 140.78 179.33 C 139.86 180.07 139.71 181.42 140.45 182.34 C 141.18 183.26 142.53 183.41 143.45 182.67 Z M 144.26 182.01 L 145.00 181.38 C 145.90 180.62 146.01 179.28 145.25 178.38 C 144.49 177.49 143.15 177.37 142.25 178.13 L 141.51 178.76 C 140.62 179.52 140.50 180.86 141.26 181.76 C 142.02 182.65 143.37 182.77 144.26 182.01 Z M 145.03 181.35 L 145.78 180.69 C 146.66 179.92 146.74 178.58 145.97 177.70 C 145.19 176.82 143.85 176.73 142.97 177.51 L 142.23 178.17 C 141.35 178.94 141.26 180.28 142.04 181.16 C 142.81 182.04 144.15 182.12 145.03 181.35 Z M 145.79 180.67 L 146.53 180.00 C 147.40 179.22 147.47 177.89 146.69 177.02 C 145.91 176.15 144.57 176.08 143.70 176.86 L 142.96 177.53 C 142.09 178.31 142.02 179.64 142.80 180.51 C 143.58 181.38 144.92 181.45 145.79 180.67 Z M 146.53 179.99 L 147.26 179.33 C 148.12 178.55 148.19 177.21 147.40 176.35 C 146.62 175.49 145.29 175.43 144.42 176.21 L 143.70 176.87 C 142.83 177.66 142.77 178.99 143.55 179.85 C 144.34 180.71 145.67 180.78 146.53 179.99 Z M 147.27 179.32 L 148.02 178.62 C 148.88 177.84 148.93 176.50 148.14 175.65 C 147.35 174.80 146.02 174.74 145.17 175.53 L 144.42 176.22 C 143.56 177.01 143.51 178.34 144.30 179.20 C 145.08 180.05 146.42 180.10 147.27 179.32 Z M 148.03 178.61 L 148.78 177.91 C 149.63 177.11 149.67 175.78 148.87 174.94 C 148.08 174.09 146.75 174.05 145.90 174.84 L 145.16 175.55 C 144.31 176.34 144.27 177.67 145.06 178.52 C 145.86 179.36 147.19 179.40 148.03 178.61 Z M 148.80 177.89 L 149.52 177.19 C 150.35 176.39 150.38 175.06 149.57 174.23 C 148.77 173.39 147.44 173.37 146.61 174.17 L 145.89 174.86 C 145.05 175.67 145.03 176.99 145.83 177.83 C 146.63 178.66 147.96 178.69 148.80 177.89 Z M 149.54 177.17 L 150.29 176.42 C 151.11 175.60 151.12 174.28 150.30 173.46 C 149.49 172.64 148.16 172.63 147.34 173.45 L 146.59 174.20 C 145.77 175.01 145.76 176.34 146.58 177.16 C 147.39 177.98 148.72 177.98 149.54 177.17 Z M 150.32 176.38 L 151.02 175.66 C 151.82 174.82 151.80 173.50 150.97 172.70 C 150.14 171.90 148.81 171.92 148.01 172.75 L 147.31 173.48 C 146.51 174.31 146.54 175.64 147.37 176.44 C 148.20 177.24 149.52 177.21 150.32 176.38 Z M 151.06 175.62 L 151.71 174.90 C 152.49 174.05 152.44 172.73 151.59 171.95 C 150.73 171.17 149.41 171.23 148.63 172.08 L 147.98 172.79 C 147.20 173.64 147.26 174.97 148.11 175.75 C 148.96 176.52 150.28 176.47 151.06 175.62 Z M 151.75 174.86 L 152.38 174.13 C 153.13 173.26 153.04 171.95 152.17 171.19 C 151.30 170.43 149.98 170.53 149.22 171.40 L 148.60 172.12 C 147.84 172.99 147.94 174.31 148.81 175.07 C 149.68 175.82 151.00 175.73 151.75 174.86 Z M 152.41 174.08 L 153.04 173.31 C 153.76 172.42 153.63 171.12 152.75 170.39 C 151.86 169.66 150.55 169.79 149.82 170.68 L 149.19 171.45 C 148.47 172.34 148.60 173.65 149.48 174.37 C 150.37 175.10 151.68 174.97 152.41 174.08 Z M 153.06 173.26 L 153.67 172.47 C 154.37 171.57 154.20 170.28 153.31 169.58 C 152.41 168.89 151.12 169.05 150.42 169.95 L 149.81 170.73 C 149.11 171.63 149.27 172.92 150.17 173.62 C 151.07 174.32 152.36 174.16 153.06 173.26 Z M 153.68 172.42 L 154.28 171.62 C 154.95 170.72 154.76 169.44 153.86 168.77 C 152.95 168.10 151.68 168.28 151.00 169.19 L 150.41 169.99 C 149.73 170.90 149.92 172.17 150.83 172.84 C 151.73 173.52 153.01 173.33 153.68 172.42 Z M 154.28 171.58 L 154.87 170.76 C 155.52 169.86 155.31 168.60 154.40 167.95 C 153.49 167.30 152.23 167.51 151.58 168.41 L 151.00 169.23 C 150.35 170.14 150.56 171.40 151.46 172.05 C 152.37 172.70 153.63 172.49 154.28 171.58 Z M 154.87 170.73 L 155.43 169.92 C 156.07 169.01 155.84 167.76 154.93 167.13 C 154.02 166.50 152.78 166.72 152.15 167.63 L 151.58 168.45 C 150.95 169.35 151.17 170.60 152.08 171.23 C 152.99 171.86 154.24 171.64 154.87 170.73 Z M 155.43 169.89 L 155.99 169.06 C 156.61 168.15 156.37 166.92 155.46 166.31 C 154.56 165.69 153.32 165.93 152.71 166.84 L 152.15 167.66 C 151.53 168.57 151.77 169.80 152.68 170.41 C 153.59 171.03 154.82 170.79 155.43 169.89 Z M 155.99 169.03 L 156.54 168.20 C 157.14 167.29 156.90 166.07 155.99 165.47 C 155.09 164.87 153.87 165.12 153.27 166.03 L 152.71 166.86 C 152.11 167.76 152.36 168.98 153.26 169.58 C 154.17 170.18 155.39 169.94 155.99 169.03 Z M 156.53 168.18 L 157.09 167.33 C 157.68 166.43 157.42 165.22 156.52 164.63 C 155.62 164.05 154.42 164.30 153.83 165.20 L 153.28 166.05 C 152.69 166.95 152.94 168.15 153.84 168.74 C 154.74 169.33 155.95 169.08 156.53 168.18 Z M 157.08 167.31 L 157.63 166.44 C 158.21 165.55 157.95 164.36 157.05 163.78 C 156.16 163.20 154.96 163.47 154.39 164.36 L 153.84 165.22 C 153.26 166.12 153.52 167.31 154.42 167.89 C 155.31 168.46 156.51 168.20 157.08 167.31 Z M 157.64 166.41 L 158.17 165.55 C 158.73 164.65 158.45 163.47 157.55 162.92 C 156.65 162.36 155.47 162.64 154.92 163.54 L 154.38 164.40 C 153.83 165.30 154.11 166.47 155.01 167.03 C 155.90 167.59 157.08 167.31 157.64 166.41 Z M 158.18 165.50 L 158.68 164.64 C 159.20 163.74 158.90 162.58 157.99 162.05 C 157.09 161.52 155.93 161.83 155.40 162.74 L 154.90 163.59 C 154.38 164.49 154.68 165.66 155.59 166.18 C 156.50 166.71 157.66 166.40 158.18 165.50 Z M 158.70 164.57 L 159.14 163.74 C 159.63 162.82 159.28 161.68 158.36 161.20 C 157.44 160.71 156.30 161.06 155.82 161.98 L 155.38 162.81 C 154.89 163.73 155.24 164.87 156.16 165.35 C 157.08 165.84 158.21 165.49 158.70 164.57 Z M 159.18 163.65 L 159.56 162.82 C 160.00 161.89 159.59 160.77 158.65 160.33 C 157.71 159.90 156.60 160.31 156.16 161.25 L 155.78 162.07 C 155.34 163.01 155.75 164.12 156.69 164.56 C 157.63 165.00 158.74 164.59 159.18 163.65 Z M 159.60 162.72 L 159.95 161.83 C 160.33 160.87 159.86 159.78 158.89 159.41 C 157.93 159.03 156.85 159.50 156.47 160.46 L 156.12 161.35 C 155.74 162.31 156.22 163.40 157.18 163.78 C 158.14 164.15 159.23 163.68 159.60 162.72 Z M 159.98 161.73 L 160.32 160.72 C 160.64 159.74 160.10 158.69 159.12 158.37 C 158.14 158.04 157.09 158.58 156.77 159.56 L 156.44 160.57 C 156.12 161.55 156.65 162.60 157.63 162.92 C 158.61 163.24 159.66 162.71 159.98 161.73 Z M 160.34 160.64 L 160.65 159.54 C 160.93 158.54 160.35 157.51 159.35 157.23 C 158.36 156.96 157.32 157.54 157.05 158.53 L 156.74 159.64 C 156.46 160.63 157.04 161.66 158.04 161.94 C 159.03 162.22 160.07 161.64 160.34 160.64 Z M 160.69 159.48 L 160.96 158.37 C 161.20 157.35 160.57 156.33 159.55 156.08 C 158.54 155.84 157.51 156.47 157.27 157.49 L 157.01 158.59 C 156.76 159.61 157.39 160.64 158.41 160.88 C 159.43 161.12 160.45 160.49 160.69 159.48 Z M 161.01 158.29 L 161.22 157.18 C 161.42 156.13 160.73 155.12 159.68 154.92 C 158.64 154.72 157.63 155.41 157.43 156.46 L 157.22 157.57 C 157.02 158.61 157.71 159.62 158.75 159.82 C 159.80 160.02 160.81 159.33 161.01 158.29 Z M 161.28 157.04 L 161.39 156.04 C 161.51 154.96 160.74 153.99 159.66 153.87 C 158.58 153.75 157.60 154.52 157.48 155.60 L 157.37 156.60 C 157.25 157.68 158.03 158.65 159.10 158.77 C 160.18 158.89 161.16 158.12 161.28 157.04 Z M 161.44 155.75 L 161.41 154.97 C 161.37 153.86 160.44 153.00 159.33 153.04 C 158.23 153.09 157.37 154.01 157.41 155.12 L 157.44 155.90 C 157.48 157.00 158.41 157.86 159.51 157.82 C 160.62 157.78 161.48 156.85 161.44 155.75 Z M 161.06 153.85 L 160.63 153.27 C 159.97 152.36 158.70 152.15 157.79 152.81 C 156.88 153.47 156.68 154.74 157.34 155.65 L 157.76 156.23 C 158.42 157.14 159.69 157.35 160.60 156.69 C 161.51 156.03 161.71 154.76 161.06 153.85 Z M 158.47 152.46 L 157.62 152.68 C 156.51 152.96 155.85 154.08 156.13 155.19 C 156.41 156.29 157.53 156.96 158.64 156.68 L 159.50 156.46 C 160.60 156.17 161.26 155.05 160.98 153.95 C 160.70 152.84 159.58 152.18 158.47 152.46 Z M 156.77 153.09 L 155.90 153.84 C 155.02 154.59 154.92 155.91 155.68 156.78 C 156.43 157.66 157.74 157.76 158.62 157.01 L 159.49 156.26 C 160.36 155.51 160.46 154.19 159.71 153.32 C 158.96 152.44 157.64 152.34 156.77 153.09 Z M 155.57 154.17 L 155.00 154.94 C 154.31 155.87 154.51 157.19 155.45 157.88 C 156.38 158.57 157.70 158.37 158.39 157.44 L 158.95 156.67 C 159.64 155.74 159.44 154.42 158.51 153.73 C 157.57 153.04 156.26 153.24 155.57 154.17 Z M 154.83 155.20 L 154.37 156.08 C 153.82 157.11 154.21 158.39 155.24 158.93 C 156.27 159.48 157.54 159.09 158.09 158.06 L 158.56 157.17 C 159.10 156.15 158.71 154.87 157.68 154.33 C 156.65 153.78 155.38 154.17 154.83 155.20 Z M 154.26 156.29 L 153.88 157.26 C 153.45 158.35 153.98 159.57 155.06 160.00 C 156.15 160.43 157.37 159.90 157.80 158.82 L 158.19 157.85 C 158.62 156.77 158.09 155.54 157.01 155.11 C 155.92 154.68 154.69 155.21 154.26 156.29 Z M 153.82 157.41 L 153.52 158.38 C 153.17 159.49 153.80 160.68 154.91 161.03 C 156.03 161.38 157.22 160.75 157.57 159.63 L 157.86 158.67 C 158.21 157.55 157.59 156.36 156.47 156.02 C 155.35 155.67 154.17 156.29 153.82 157.41 Z M 153.48 158.49 L 153.23 159.46 C 152.95 160.60 153.64 161.75 154.78 162.04 C 155.92 162.33 157.07 161.64 157.36 160.50 L 157.61 159.52 C 157.89 158.38 157.20 157.23 156.06 156.94 C 154.92 156.65 153.77 157.35 153.48 158.49 Z M 153.21 159.54 L 153.00 160.53 C 152.76 161.68 153.50 162.81 154.65 163.06 C 155.81 163.30 156.94 162.56 157.18 161.40 L 157.39 160.41 C 157.63 159.26 156.89 158.13 155.73 157.89 C 154.58 157.64 153.45 158.38 153.21 159.54 Z M 152.98 160.59 L 152.80 161.57 C 152.59 162.73 153.37 163.85 154.54 164.06 C 155.70 164.27 156.82 163.49 157.03 162.32 L 157.20 161.34 C 157.41 160.17 156.64 159.06 155.47 158.85 C 154.30 158.64 153.19 159.42 152.98 160.59 Z M 152.79 161.61 L 152.64 162.51 C 152.46 163.69 153.26 164.79 154.43 164.98 C 155.61 165.16 156.71 164.36 156.90 163.19 L 157.04 162.28 C 157.23 161.11 156.43 160.00 155.25 159.82 C 154.08 159.63 152.97 160.43 152.79 161.61 Z M 152.63 162.56 L 152.51 163.49 C 152.34 164.67 153.17 165.76 154.35 165.92 C 155.53 166.08 156.62 165.25 156.78 164.07 L 156.91 163.14 C 157.07 161.96 156.25 160.87 155.06 160.71 C 153.88 160.55 152.79 161.38 152.63 162.56 Z M 152.49 163.54 L 152.38 164.53 C 152.25 165.72 153.10 166.79 154.29 166.93 C 155.48 167.06 156.55 166.21 156.68 165.02 L 156.80 164.02 C 156.93 162.83 156.08 161.76 154.89 161.63 C 153.70 161.49 152.63 162.35 152.49 163.54 Z M 152.37 164.58 L 152.27 165.69 C 152.16 166.89 153.04 167.94 154.24 168.05 C 155.43 168.16 156.49 167.28 156.59 166.08 L 156.69 164.97 C 156.80 163.78 155.92 162.72 154.73 162.61 C 153.53 162.51 152.48 163.39 152.37 164.58 Z M 152.26 165.73 L 152.20 166.63 C 152.11 167.83 153.01 168.87 154.20 168.96 C 155.40 169.05 156.44 168.15 156.53 166.96 L 156.60 166.05 C 156.69 164.85 155.79 163.81 154.59 163.72 C 153.39 163.63 152.35 164.53 152.26 165.73 Z M 152.19 166.66 L 152.13 167.59 C 152.06 168.79 152.97 169.82 154.17 169.90 C 155.37 169.97 156.41 169.06 156.48 167.86 L 156.54 166.93 C 156.61 165.73 155.70 164.70 154.50 164.62 C 153.30 164.55 152.27 165.46 152.19 166.66 Z M 152.13 167.61 L 152.08 168.59 C 152.01 169.79 152.94 170.82 154.14 170.89 C 155.34 170.95 156.37 170.03 156.43 168.82 L 156.49 167.84 C 156.55 166.63 155.63 165.61 154.42 165.54 C 153.22 165.48 152.19 166.40 152.13 167.61 Z M 152.07 168.61 L 152.03 169.64 C 151.97 170.85 152.91 171.87 154.11 171.92 C 155.32 171.98 156.34 171.04 156.39 169.84 L 156.44 168.80 C 156.49 167.60 155.56 166.58 154.35 166.52 C 153.15 166.47 152.12 167.40 152.07 168.61 Z M 152.02 169.66 L 151.98 170.73 C 151.94 171.94 152.88 172.95 154.09 172.99 C 155.30 173.04 156.31 172.09 156.36 170.89 L 156.40 169.82 C 156.44 168.61 155.50 167.60 154.29 167.55 C 153.08 167.51 152.06 168.45 152.02 169.66 Z M 151.98 170.75 L 151.95 171.84 C 151.91 173.05 152.87 174.06 154.08 174.09 C 155.29 174.13 156.30 173.17 156.33 171.96 L 156.36 170.87 C 156.40 169.66 155.44 168.65 154.23 168.62 C 153.02 168.58 152.01 169.53 151.98 170.75 Z M 151.94 171.85 L 151.92 172.87 C 151.90 174.08 152.86 175.08 154.07 175.11 C 155.29 175.13 156.29 174.17 156.31 172.96 L 156.33 171.94 C 156.36 170.73 155.40 169.73 154.18 169.70 C 152.97 169.68 151.97 170.64 151.94 171.85 Z M 151.92 172.88 L 151.91 173.90 C 151.89 175.11 152.86 176.11 154.07 176.12 C 155.29 176.14 156.28 175.17 156.30 173.96 L 156.32 172.94 C 156.33 171.73 155.36 170.73 154.15 170.72 C 152.94 170.70 151.94 171.67 151.92 172.88 Z M 151.90 173.91 L 151.89 174.92 C 151.88 176.14 152.86 177.13 154.07 177.14 C 155.29 177.15 156.28 176.18 156.29 174.96 L 156.30 173.95 C 156.32 172.73 155.34 171.74 154.12 171.73 C 152.91 171.72 151.91 172.69 151.90 173.91 Z M 151.89 174.93 L 151.89 175.94 C 151.88 177.15 152.86 178.15 154.08 178.15 C 155.29 178.16 156.29 177.18 156.29 175.96 L 156.30 174.95 C 156.30 173.74 155.32 172.74 154.11 172.74 C 152.89 172.73 151.90 173.71 151.89 174.93 Z M 151.88 175.94 L 151.88 176.94 C 151.88 178.16 152.86 179.15 154.08 179.15 C 155.30 179.15 156.29 178.17 156.29 176.95 L 156.29 175.95 C 156.30 174.74 155.31 173.75 154.09 173.74 C 152.88 173.74 151.89 174.73 151.88 175.94 Z M 151.88 176.94 L 151.88 177.93 C 151.88 179.14 152.87 180.13 154.08 180.13 C 155.30 180.13 156.29 179.15 156.29 177.93 L 156.29 176.95 C 156.29 175.73 155.31 174.74 154.09 174.74 C 152.87 174.74 151.88 175.73 151.88 176.94 Z M 151.88 177.93 L 151.88 178.92 C 151.88 180.14 152.87 181.13 154.09 181.13 C 155.31 181.13 156.30 180.14 156.30 178.92 L 156.30 177.93 C 156.30 176.71 155.31 175.72 154.09 175.72 C 152.87 175.72 151.88 176.71 151.88 177.93 Z M 151.87 178.92 L 151.87 179.94 C 151.87 181.16 152.86 182.15 154.09 182.15 C 155.31 182.15 156.30 181.16 156.30 179.94 L 156.30 178.92 C 156.30 177.70 155.31 176.71 154.09 176.71 C 152.86 176.71 151.87 177.70 151.87 178.92 Z M 151.87 179.94 L 151.87 180.94 C 151.87 182.16 152.86 183.16 154.09 183.16 C 155.31 183.16 156.30 182.16 156.30 180.94 L 156.30 179.94 C 156.30 178.72 155.31 177.72 154.09 177.72 C 152.86 177.72 151.87 178.72 151.87 179.94 Z M 151.87 180.94 L 151.87 181.93 C 151.87 183.15 152.86 184.15 154.09 184.15 C 155.31 184.15 156.30 183.15 156.30 181.93 L 156.30 180.94 C 156.30 179.72 155.31 178.72 154.09 178.72 C 152.86 178.72 151.87 179.72 151.87 180.94 Z M 151.87 181.93 L 151.87 182.91 C 151.87 184.14 152.86 185.14 154.09 185.14 C 155.31 185.14 156.31 184.14 156.31 182.91 L 156.31 181.93 C 156.31 180.70 155.31 179.71 154.09 179.71 C 152.86 179.71 151.87 180.70 151.87 181.93 Z M 151.86 182.91 L 151.86 183.91 C 151.86 185.13 152.86 186.13 154.09 186.13 C 155.31 186.13 156.31 185.13 156.31 183.91 L 156.31 182.91 C 156.31 181.69 155.31 180.69 154.09 180.69 C 152.86 180.69 151.86 181.69 151.86 182.91 Z M 151.86 183.91 L 151.86 184.93 C 151.86 186.16 152.86 187.16 154.09 187.16 C 155.32 187.16 156.31 186.16 156.31 184.93 L 156.31 183.91 C 156.31 182.68 155.32 181.68 154.09 181.68 C 152.86 181.68 151.86 182.68 151.86 183.91 Z M 151.86 184.93 L 151.86 186.00 C 151.86 187.23 152.86 188.23 154.09 188.23 C 155.32 188.23 156.31 187.23 156.31 186.00 L 156.31 184.93 C 156.31 183.70 155.32 182.71 154.09 182.71 C 152.86 182.71 151.86 183.70 151.86 184.93 Z M 151.85 186.00 L 151.85 187.06 C 151.85 188.29 152.85 189.29 154.09 189.29 C 155.32 189.29 156.32 188.29 156.32 187.06 L 156.32 186.00 C 156.32 184.77 155.32 183.77 154.09 183.77 C 152.85 183.77 151.85 184.77 151.85 186.00 Z M 151.85 187.06 L 151.85 188.08 C 151.85 189.31 152.85 190.31 154.09 190.31 C 155.32 190.31 156.32 189.31 156.32 188.08 L 156.32 187.06 C 156.32 185.82 155.32 184.82 154.09 184.82 C 152.85 184.82 151.85 185.82 151.85 187.06 Z M 151.85 188.08 L 151.85 189.05 C 151.85 190.28 152.85 191.28 154.09 191.28 C 155.32 191.28 156.32 190.28 156.32 189.05 L 156.32 188.08 C 156.32 186.84 155.32 185.84 154.09 185.84 C 152.85 185.84 151.85 186.84 151.85 188.08 Z M 151.85 189.05 L 151.85 189.94 C 151.85 191.18 152.85 192.18 154.09 192.18 C 155.32 192.18 156.32 191.18 156.32 189.94 L 156.32 189.05 C 156.32 187.81 155.32 186.81 154.09 186.81 C 152.85 186.81 151.85 187.81 151.85 189.05 Z M 151.85 189.94 L 151.85 191.07 C 151.85 192.31 152.85 193.31 154.09 193.31 C 155.32 193.31 156.33 192.31 156.33 191.07 L 156.33 189.94 C 156.33 188.70 155.32 187.70 154.09 187.70 C 152.85 187.70 151.85 188.70 151.85 189.94 Z M 151.85 191.07 L 151.85 192.11 C 151.85 193.35 152.85 194.35 154.09 194.35 C 155.32 194.35 156.33 193.35 156.33 192.11 L 156.33 191.07 C 156.33 189.83 155.32 188.83 154.09 188.83 C 152.85 188.83 151.85 189.83 151.85 191.07 Z M 151.84 192.11 L 151.84 193.02 C 151.84 194.26 152.85 195.26 154.09 195.26 C 155.32 195.26 156.33 194.26 156.33 193.02 L 156.33 192.11 C 156.33 190.87 155.32 189.87 154.09 189.87 C 152.85 189.87 151.84 190.87 151.84 192.11 Z M 151.84 193.02 L 151.84 193.88 C 151.84 195.12 152.85 196.12 154.09 196.12 C 155.32 196.12 156.33 195.12 156.33 193.88 L 156.33 193.02 C 156.33 191.79 155.32 190.78 154.09 190.78 C 152.85 190.78 151.84 191.79 151.84 193.02 Z M 151.84 193.88 L 151.84 194.76 C 151.84 196.00 152.85 197.01 154.09 197.01 C 155.32 197.01 156.33 196.00 156.33 194.76 L 156.33 193.88 C 156.33 192.65 155.32 191.64 154.09 191.64 C 152.85 191.64 151.84 192.65 151.84 193.88 Z M 151.84 194.76 L 151.84 195.72 C 151.84 196.96 152.85 197.96 154.09 197.96 C 155.32 197.96 156.33 196.96 156.33 195.72 L 156.33 194.76 C 156.33 193.53 155.32 192.52 154.09 192.52 C 152.85 192.52 151.84 193.53 151.84 194.76 Z M 151.84 195.72 L 151.84 196.81 C 151.84 198.05 152.85 199.06 154.09 199.06 C 155.32 199.06 156.33 198.05 156.33 196.81 L 156.33 195.72 C 156.33 194.48 155.32 193.48 154.09 193.48 C 152.85 193.48 151.84 194.48 151.84 195.72 Z M 151.84 196.81 L 151.84 197.86 C 151.84 199.10 152.85 200.11 154.09 200.11 C 155.32 200.11 156.33 199.10 156.33 197.86 L 156.33 196.81 C 156.33 195.58 155.32 194.57 154.09 194.57 C 152.85 194.57 151.84 195.58 151.84 196.81 Z M 151.84 197.87 L 151.84 198.86 C 151.85 200.10 152.85 201.10 154.09 201.10 C 155.33 201.10 156.33 200.10 156.33 198.86 L 156.33 197.86 C 156.33 196.62 155.32 195.62 154.08 195.62 C 152.85 195.62 151.84 196.63 151.84 197.87 Z M 151.85 198.87 L 151.85 199.91 C 151.85 201.14 152.86 202.14 154.10 202.14 C 155.33 202.14 156.33 201.13 156.33 199.89 L 156.33 198.85 C 156.33 197.62 155.32 196.61 154.08 196.62 C 152.84 196.62 151.84 197.63 151.85 198.87 Z M 151.85 199.91 L 151.85 200.95 C 151.86 202.19 152.87 203.19 154.11 203.18 C 155.35 203.17 156.34 202.16 156.34 200.93 L 156.33 199.89 C 156.32 198.65 155.32 197.65 154.08 197.66 C 152.84 197.66 151.84 198.67 151.85 199.91 Z M 151.85 200.96 L 151.86 201.96 C 151.88 203.19 152.89 204.19 154.13 204.18 C 155.37 204.16 156.36 203.15 156.35 201.91 L 156.34 200.92 C 156.32 199.68 155.31 198.69 154.07 198.70 C 152.83 198.71 151.84 199.72 151.85 200.96 Z M 151.87 201.97 L 151.88 203.01 C 151.91 204.25 152.93 205.23 154.16 205.21 C 155.40 205.19 156.39 204.17 156.36 202.93 L 156.35 201.89 C 156.32 200.66 155.30 199.67 154.07 199.69 C 152.83 199.72 151.84 200.74 151.87 201.97 Z M 151.89 203.04 L 151.92 204.06 C 151.95 205.30 152.98 206.27 154.22 206.23 C 155.45 206.20 156.43 205.17 156.39 203.93 L 156.36 202.91 C 156.33 201.67 155.29 200.70 154.06 200.74 C 152.82 200.77 151.85 201.80 151.89 203.04 Z M 151.92 204.09 L 151.96 205.04 C 152.01 206.28 153.05 207.24 154.29 207.18 C 155.52 207.13 156.48 206.09 156.43 204.86 L 156.39 203.90 C 156.34 202.67 155.29 201.71 154.06 201.76 C 152.83 201.81 151.87 202.85 151.92 204.09 Z M 151.96 205.07 L 152.01 206.02 C 152.08 207.25 153.13 208.20 154.36 208.14 C 155.59 208.07 156.54 207.02 156.47 205.79 L 156.42 204.83 C 156.36 203.60 155.31 202.65 154.08 202.72 C 152.85 202.78 151.90 203.83 151.96 205.07 Z M 152.01 206.03 L 152.07 206.95 C 152.14 208.18 153.19 209.12 154.42 209.05 C 155.66 208.98 156.60 207.92 156.52 206.69 L 156.47 205.78 C 156.40 204.54 155.35 203.60 154.11 203.68 C 152.88 203.75 151.94 204.80 152.01 206.03 Z M 152.07 206.95 L 152.12 207.87 C 152.20 209.10 153.25 210.04 154.48 209.96 C 155.71 209.89 156.65 208.83 156.58 207.60 L 156.52 206.69 C 156.45 205.46 155.39 204.52 154.16 204.59 C 152.93 204.67 152.00 205.72 152.07 206.95 Z M 152.12 207.86 L 152.18 208.85 C 152.25 210.08 153.30 211.01 154.53 210.94 C 155.76 210.87 156.70 209.82 156.63 208.59 L 156.58 207.61 C 156.51 206.38 155.45 205.44 154.22 205.51 C 152.99 205.58 152.05 206.63 152.12 207.86 Z M 152.18 208.84 L 152.24 209.88 C 152.30 211.11 153.35 212.05 154.58 211.99 C 155.81 211.92 156.75 210.87 156.69 209.64 L 156.63 208.60 C 156.57 207.37 155.52 206.43 154.29 206.49 C 153.06 206.56 152.12 207.61 152.18 208.84 Z M 152.24 209.87 L 152.29 210.98 C 152.35 212.21 153.39 213.16 154.62 213.10 C 155.85 213.04 156.80 212.00 156.74 210.77 L 156.69 209.66 C 156.63 208.43 155.59 207.48 154.36 207.54 C 153.13 207.60 152.18 208.64 152.24 209.87 Z M 152.29 210.96 L 152.33 211.99 C 152.38 213.22 153.42 214.17 154.64 214.12 C 155.87 214.08 156.83 213.04 156.78 211.81 L 156.74 210.78 C 156.69 209.56 155.65 208.60 154.43 208.65 C 153.20 208.70 152.24 209.73 152.29 210.96 Z M 152.33 211.98 L 152.37 213.01 C 152.41 214.23 153.44 215.19 154.67 215.15 C 155.89 215.11 156.85 214.08 156.81 212.86 L 156.78 211.83 C 156.74 210.60 155.71 209.64 154.48 209.68 C 153.25 209.72 152.29 210.75 152.33 211.98 Z M 152.37 213.00 L 152.40 214.03 C 152.44 215.25 153.46 216.22 154.69 216.18 C 155.91 216.15 156.88 215.13 156.84 213.90 L 156.81 212.87 C 156.78 211.64 155.75 210.67 154.53 210.71 C 153.30 210.75 152.33 211.77 152.37 213.00 Z M 152.40 214.02 L 152.43 215.03 C 152.46 216.26 153.48 217.23 154.70 217.20 C 155.93 217.17 156.89 216.15 156.86 214.92 L 156.84 213.91 C 156.81 212.68 155.79 211.72 154.57 211.75 C 153.34 211.78 152.37 212.79 152.40 214.02 Z M 152.43 215.02 L 152.45 215.99 C 152.47 217.22 153.49 218.19 154.71 218.16 C 155.93 218.14 156.91 217.13 156.88 215.90 L 156.86 214.93 C 156.84 213.71 155.82 212.74 154.60 212.76 C 153.38 212.79 152.40 213.80 152.43 215.02 Z M 152.45 215.98 L 152.47 216.98 C 152.49 218.20 153.49 219.18 154.72 219.16 C 155.94 219.14 156.92 218.13 156.90 216.91 L 156.88 215.91 C 156.86 214.69 155.85 213.71 154.63 213.73 C 153.41 213.75 152.43 214.76 152.45 215.98 Z M 152.47 216.97 L 152.48 218.05 C 152.50 219.27 153.50 220.25 154.72 220.24 C 155.94 220.23 156.92 219.22 156.90 218.00 L 156.89 216.92 C 156.88 215.70 155.88 214.72 154.66 214.74 C 153.44 214.75 152.46 215.75 152.47 216.97 Z M 152.49 218.04 L 152.49 219.03 C 152.50 220.25 153.49 221.23 154.71 221.23 C 155.93 221.22 156.91 220.22 156.91 219.01 L 156.90 218.01 C 156.89 216.80 155.90 215.81 154.68 215.82 C 153.46 215.83 152.48 216.82 152.49 218.04 Z M 152.50 219.02 L 152.50 219.96 C 152.50 221.18 153.49 222.16 154.71 222.16 C 155.92 222.16 156.91 221.17 156.90 219.95 L 156.90 219.01 C 156.90 217.80 155.91 216.81 154.69 216.82 C 153.48 216.82 152.49 217.81 152.50 219.02 Z M 152.50 219.96 L 152.50 220.89 C 152.50 222.11 153.49 223.09 154.70 223.09 C 155.92 223.09 156.90 222.11 156.90 220.89 L 156.90 219.96 C 156.90 218.74 155.92 217.76 154.70 217.76 C 153.49 217.76 152.50 218.74 152.50 219.96 Z M 152.50 220.89 L 152.50 221.91 C 152.50 223.12 153.49 224.11 154.70 224.11 C 155.92 224.11 156.90 223.12 156.90 221.91 L 156.90 220.89 C 156.90 219.68 155.92 218.70 154.70 218.70 C 153.49 218.70 152.50 219.68 152.50 220.89 Z M 152.50 221.91 L 152.50 222.92 C 152.50 224.14 153.49 225.12 154.70 225.12 C 155.92 225.12 156.90 224.14 156.90 222.92 L 156.90 221.91 C 156.90 220.70 155.92 219.71 154.70 219.71 C 153.49 219.71 152.50 220.70 152.50 221.91 Z M 152.50 222.92 L 152.50 223.92 C 152.50 225.13 153.49 226.11 154.70 226.11 C 155.92 226.11 156.90 225.13 156.90 223.92 L 156.90 222.92 C 156.90 221.71 155.92 220.73 154.70 220.73 C 153.49 220.73 152.50 221.71 152.50 222.92 Z M 152.51 223.92 L 152.50 224.92 C 152.50 226.13 153.49 227.11 154.70 227.11 C 155.91 227.11 156.90 226.13 156.90 224.92 L 156.90 223.92 C 156.90 222.70 155.92 221.72 154.70 221.72 C 153.49 221.72 152.51 222.70 152.51 223.92 Z M 152.51 224.90 L 152.50 225.93 C 152.49 227.14 153.46 228.13 154.68 228.14 C 155.89 228.15 156.88 227.18 156.89 225.97 L 156.89 224.94 C 156.90 223.72 155.93 222.73 154.72 222.72 C 153.51 222.71 152.52 223.69 152.51 224.90 Z M 152.51 225.87 L 152.47 226.85 C 152.42 228.06 153.37 229.08 154.58 229.12 C 155.78 229.16 156.80 228.22 156.84 227.01 L 156.88 226.03 C 156.93 224.82 155.98 223.81 154.77 223.76 C 153.57 223.72 152.55 224.66 152.51 225.87 Z M 152.48 226.74 L 152.40 227.69 C 152.29 228.89 153.18 229.96 154.38 230.06 C 155.58 230.17 156.64 229.28 156.75 228.08 L 156.83 227.13 C 156.94 225.92 156.05 224.86 154.85 224.76 C 153.65 224.65 152.59 225.54 152.48 226.74 Z M 152.42 227.54 L 152.27 228.49 C 152.07 229.68 152.89 230.80 154.08 230.99 C 155.27 231.18 156.38 230.37 156.58 229.18 L 156.73 228.23 C 156.92 227.04 156.11 225.92 154.92 225.73 C 153.73 225.54 152.61 226.35 152.42 227.54 Z M 152.29 228.34 L 152.07 229.30 C 151.80 230.47 152.53 231.64 153.71 231.92 C 154.88 232.19 156.05 231.45 156.33 230.28 L 156.55 229.32 C 156.82 228.15 156.09 226.98 154.91 226.71 C 153.74 226.43 152.56 227.17 152.29 228.34 Z M 152.10 229.18 L 151.81 230.17 C 151.48 231.33 152.14 232.54 153.30 232.88 C 154.45 233.22 155.67 232.55 156.00 231.39 L 156.29 230.40 C 156.63 229.24 155.97 228.03 154.81 227.69 C 153.65 227.36 152.44 228.02 152.10 229.18 Z M 151.84 230.08 L 151.53 231.00 C 151.14 232.15 151.75 233.39 152.89 233.77 C 154.03 234.16 155.27 233.55 155.66 232.41 L 155.98 231.48 C 156.36 230.34 155.75 229.10 154.61 228.71 C 153.47 228.33 152.23 228.94 151.84 230.08 Z M 151.56 230.93 L 151.21 231.83 C 150.78 232.96 151.34 234.22 152.47 234.65 C 153.59 235.08 154.86 234.52 155.29 233.39 L 155.63 232.49 C 156.07 231.36 155.50 230.10 154.38 229.67 C 153.25 229.24 151.99 229.80 151.56 230.93 Z M 151.24 231.74 L 150.84 232.67 C 150.36 233.78 150.87 235.07 151.98 235.54 C 153.09 236.02 154.37 235.51 154.85 234.41 L 155.25 233.48 C 155.73 232.37 155.22 231.09 154.12 230.61 C 153.01 230.13 151.72 230.64 151.24 231.74 Z M 150.89 232.58 L 150.43 233.51 C 149.89 234.60 150.34 235.91 151.42 236.44 C 152.50 236.97 153.81 236.53 154.34 235.44 L 154.81 234.51 C 155.34 233.42 154.89 232.11 153.81 231.58 C 152.73 231.05 151.42 231.49 150.89 232.58 Z M 150.48 233.41 L 149.97 234.32 C 149.38 235.37 149.75 236.70 150.80 237.29 C 151.85 237.88 153.18 237.51 153.77 236.46 L 154.29 235.55 C 154.88 234.50 154.51 233.17 153.46 232.58 C 152.41 231.98 151.07 232.36 150.48 233.41 Z M 150.04 234.20 L 149.47 235.07 C 148.82 236.08 149.11 237.44 150.12 238.09 C 151.13 238.75 152.49 238.46 153.14 237.45 L 153.70 236.58 C 154.36 235.56 154.07 234.21 153.06 233.56 C 152.05 232.90 150.69 233.19 150.04 234.20 Z M 149.57 234.94 L 148.95 235.75 C 148.23 236.71 148.42 238.08 149.38 238.81 C 150.34 239.54 151.71 239.35 152.44 238.38 L 153.05 237.58 C 153.78 236.61 153.59 235.24 152.63 234.52 C 151.66 233.79 150.29 233.98 149.57 234.94 Z M 149.08 235.60 L 148.43 236.31 C 147.62 237.21 147.69 238.59 148.58 239.40 C 149.47 240.21 150.85 240.14 151.66 239.25 L 152.31 238.54 C 153.12 237.64 153.06 236.26 152.17 235.45 C 151.27 234.64 149.89 234.71 149.08 235.60 Z M 148.62 236.13 L 147.90 236.75 C 146.99 237.53 146.89 238.91 147.67 239.83 C 148.46 240.74 149.84 240.84 150.75 240.06 L 151.47 239.44 C 152.39 238.65 152.49 237.27 151.70 236.36 C 150.91 235.44 149.54 235.34 148.62 236.13 Z M 148.19 236.54 L 147.39 237.03 C 146.36 237.66 146.03 239.00 146.66 240.03 C 147.29 241.06 148.63 241.38 149.66 240.75 L 150.46 240.26 C 151.49 239.63 151.82 238.29 151.19 237.27 C 150.56 236.24 149.22 235.91 148.19 236.54 Z M 147.73 236.87 L 146.83 237.22 C 145.71 237.65 145.16 238.91 145.59 240.03 C 146.03 241.15 147.29 241.71 148.41 241.27 L 149.31 240.92 C 150.43 240.49 150.99 239.23 150.55 238.11 C 150.11 236.98 148.85 236.43 147.73 236.87 Z M 147.16 237.12 L 146.13 237.35 C 144.95 237.61 144.21 238.76 144.47 239.94 C 144.73 241.11 145.89 241.85 147.06 241.59 L 148.09 241.36 C 149.26 241.11 150.00 239.95 149.74 238.78 C 149.49 237.61 148.33 236.86 147.16 237.12 Z M 146.35 237.32 L 145.37 237.43 C 144.19 237.56 143.33 238.63 143.46 239.82 C 143.59 241.00 144.66 241.86 145.85 241.73 L 146.83 241.62 C 148.02 241.49 148.87 240.42 148.74 239.23 C 148.61 238.04 147.54 237.19 146.35 237.32 Z M 145.53 237.43 L 144.55 237.46 C 143.36 237.51 142.43 238.51 142.48 239.70 C 142.52 240.88 143.52 241.81 144.71 241.77 L 145.69 241.73 C 146.88 241.69 147.81 240.69 147.77 239.50 C 147.72 238.31 146.72 237.38 145.53 237.43 Z M 144.69 237.47 L 143.67 237.45 C 142.48 237.41 141.50 238.35 141.47 239.53 C 141.44 240.71 142.37 241.70 143.55 241.73 L 144.58 241.76 C 145.76 241.79 146.74 240.86 146.77 239.67 C 146.81 238.49 145.87 237.50 144.69 237.47 Z M 143.81 237.47 L 142.78 237.37 C 141.60 237.26 140.57 238.12 140.46 239.29 C 140.35 240.46 141.21 241.50 142.38 241.61 L 143.41 241.71 C 144.58 241.82 145.62 240.96 145.73 239.79 C 145.84 238.61 144.98 237.58 143.81 237.47 Z M 142.93 237.40 L 141.93 237.23 C 140.78 237.03 139.68 237.81 139.49 238.96 C 139.29 240.12 140.07 241.21 141.22 241.41 L 142.22 241.58 C 143.38 241.78 144.47 241.00 144.67 239.85 C 144.86 238.69 144.09 237.60 142.93 237.40 Z M 142.12 237.29 L 141.07 237.01 C 139.95 236.70 138.80 237.36 138.49 238.48 C 138.19 239.61 138.85 240.76 139.97 241.06 L 141.02 241.35 C 142.15 241.65 143.30 240.99 143.60 239.87 C 143.91 238.75 143.25 237.59 142.12 237.29 Z M 141.29 237.10 L 140.30 236.71 C 139.23 236.29 138.03 236.81 137.60 237.88 C 137.18 238.94 137.70 240.15 138.77 240.57 L 139.76 240.97 C 140.83 241.39 142.03 240.87 142.45 239.80 C 142.88 238.73 142.35 237.53 141.29 237.10 Z M 140.51 236.84 L 139.63 236.37 C 138.64 235.83 137.39 236.20 136.86 237.20 C 136.32 238.19 136.69 239.44 137.69 239.97 L 138.56 240.45 C 139.56 240.98 140.80 240.61 141.34 239.62 C 141.87 238.62 141.50 237.38 140.51 236.84 Z M 139.83 236.52 L 139.08 235.99 C 138.17 235.34 136.91 235.56 136.26 236.47 C 135.61 237.38 135.83 238.64 136.74 239.29 L 137.49 239.82 C 138.40 240.47 139.66 240.25 140.31 239.34 C 140.95 238.43 140.74 237.17 139.83 236.52 Z M 139.28 236.19 L 138.59 235.53 C 137.79 234.78 136.53 234.81 135.77 235.61 C 135.01 236.40 135.04 237.66 135.84 238.42 L 136.54 239.08 C 137.34 239.84 138.60 239.81 139.35 239.01 C 140.11 238.21 140.08 236.95 139.28 236.19 Z M 138.79 235.82 L 138.19 235.01 C 137.55 234.14 136.33 233.95 135.46 234.59 C 134.59 235.23 134.40 236.46 135.04 237.33 L 135.64 238.14 C 136.28 239.01 137.51 239.19 138.37 238.55 C 139.24 237.91 139.43 236.69 138.79 235.82 Z M 138.34 235.33 L 137.92 234.46 C 137.45 233.50 136.30 233.11 135.35 233.57 C 134.40 234.03 134.00 235.18 134.47 236.13 L 134.89 237.01 C 135.36 237.96 136.50 238.36 137.46 237.89 C 138.41 237.43 138.80 236.28 138.34 235.33 Z M 137.99 234.73 L 137.70 233.81 C 137.39 232.82 136.33 232.27 135.34 232.58 C 134.35 232.89 133.80 233.94 134.11 234.93 L 134.40 235.85 C 134.71 236.85 135.76 237.40 136.75 237.09 C 137.74 236.78 138.30 235.73 137.99 234.73 Z M 137.72 234.01 L 137.54 233.10 C 137.34 232.10 136.37 231.45 135.36 231.65 C 134.36 231.85 133.71 232.82 133.91 233.83 L 134.09 234.73 C 134.29 235.74 135.26 236.39 136.26 236.19 C 137.27 235.99 137.92 235.01 137.72 234.01 Z M 137.54 233.24 L 137.43 232.27 C 137.30 231.26 136.39 230.55 135.38 230.67 C 134.38 230.79 133.66 231.70 133.78 232.71 L 133.90 233.69 C 134.02 234.69 134.94 235.41 135.94 235.29 C 136.95 235.16 137.67 234.25 137.54 233.24 Z M 137.42 232.37 L 137.34 231.31 C 137.28 230.31 136.41 229.55 135.41 229.62 C 134.41 229.69 133.65 230.56 133.72 231.56 L 133.79 232.61 C 133.86 233.61 134.73 234.37 135.73 234.30 C 136.73 234.23 137.49 233.37 137.42 232.37 Z M 137.33 231.37 L 137.29 230.34 C 137.26 229.35 136.42 228.57 135.43 228.61 C 134.43 228.64 133.66 229.48 133.69 230.47 L 133.73 231.50 C 133.77 232.50 134.61 233.27 135.60 233.23 C 136.59 233.20 137.37 232.36 137.33 231.37 Z M 137.29 230.38 L 137.27 229.39 C 137.25 228.40 136.44 227.61 135.45 227.63 C 134.46 227.64 133.67 228.46 133.69 229.45 L 133.70 230.44 C 133.72 231.43 134.54 232.22 135.53 232.20 C 136.52 232.18 137.30 231.37 137.29 230.38 Z M 137.26 229.42 L 137.26 228.41 C 137.27 227.42 136.47 226.62 135.48 226.62 C 134.49 226.62 133.69 227.42 133.69 228.40 L 133.69 229.42 C 133.69 230.40 134.49 231.20 135.48 231.21 C 136.46 231.21 137.26 230.41 137.26 229.42 Z M 137.26 228.44 L 137.28 227.42 C 137.30 226.44 136.52 225.63 135.54 225.61 C 134.55 225.58 133.74 226.37 133.72 227.35 L 133.70 228.37 C 133.68 229.35 134.46 230.16 135.44 230.18 C 136.42 230.20 137.24 229.42 137.26 228.44 Z M 137.27 227.46 L 137.31 226.46 C 137.36 225.48 136.60 224.65 135.62 224.61 C 134.64 224.57 133.81 225.33 133.77 226.31 L 133.73 227.31 C 133.68 228.29 134.44 229.12 135.42 229.16 C 136.40 229.20 137.23 228.44 137.27 227.46 Z M 137.31 226.51 L 137.37 225.55 C 137.44 224.58 136.71 223.73 135.74 223.66 C 134.76 223.59 133.91 224.33 133.85 225.30 L 133.78 226.26 C 133.71 227.23 134.44 228.08 135.42 228.15 C 136.39 228.22 137.24 227.49 137.31 226.51 Z M 137.36 225.62 L 137.47 224.67 C 137.58 223.70 136.88 222.83 135.91 222.72 C 134.94 222.61 134.07 223.31 133.96 224.28 L 133.86 225.23 C 133.75 226.20 134.45 227.07 135.41 227.18 C 136.38 227.29 137.26 226.59 137.36 225.62 Z M 137.45 224.75 L 137.61 223.78 C 137.77 222.82 137.11 221.92 136.15 221.76 C 135.19 221.61 134.29 222.26 134.14 223.22 L 133.98 224.19 C 133.82 225.15 134.48 226.06 135.44 226.21 C 136.40 226.37 137.30 225.71 137.45 224.75 Z M 137.59 223.87 L 137.81 222.84 C 138.02 221.90 137.42 220.96 136.47 220.76 C 135.52 220.55 134.59 221.15 134.38 222.10 L 134.16 223.13 C 133.95 224.07 134.55 225.01 135.50 225.21 C 136.45 225.42 137.38 224.82 137.59 223.87 Z M 137.79 222.93 L 138.05 221.96 C 138.30 221.02 137.74 220.06 136.81 219.81 C 135.88 219.56 134.92 220.12 134.66 221.05 L 134.41 222.02 C 134.15 222.95 134.71 223.91 135.64 224.16 C 136.58 224.41 137.54 223.86 137.79 222.93 Z M 138.03 222.02 L 138.31 221.09 C 138.60 220.16 138.08 219.19 137.16 218.90 C 136.23 218.62 135.26 219.14 134.97 220.06 L 134.69 220.99 C 134.40 221.91 134.92 222.89 135.84 223.18 C 136.76 223.46 137.74 222.94 138.03 222.02 Z M 138.30 221.13 L 138.62 220.17 C 138.93 219.26 138.44 218.27 137.52 217.96 C 136.61 217.65 135.62 218.14 135.31 219.06 L 134.99 220.02 C 134.68 220.93 135.17 221.92 136.08 222.23 C 137.00 222.53 137.99 222.04 138.30 221.13 Z M 138.60 220.21 L 138.95 219.24 C 139.28 218.33 138.81 217.33 137.91 217.01 C 137.00 216.68 136.01 217.15 135.68 218.05 L 135.33 219.02 C 135.00 219.93 135.47 220.92 136.37 221.25 C 137.28 221.58 138.28 221.11 138.60 220.21 Z M 138.94 219.27 L 139.31 218.31 C 139.65 217.41 139.20 216.41 138.30 216.06 C 137.41 215.72 136.40 216.17 136.06 217.07 L 135.69 218.02 C 135.35 218.92 135.80 219.93 136.70 220.27 C 137.59 220.61 138.60 220.16 138.94 219.27 Z M 139.29 218.33 L 139.67 217.40 C 140.02 216.52 139.59 215.50 138.70 215.15 C 137.81 214.79 136.80 215.22 136.44 216.11 L 136.07 217.04 C 135.72 217.93 136.15 218.94 137.04 219.30 C 137.93 219.66 138.94 219.22 139.29 218.33 Z M 139.65 217.43 L 140.06 216.46 C 140.43 215.58 140.01 214.56 139.13 214.19 C 138.25 213.82 137.23 214.24 136.86 215.12 L 136.46 216.09 C 136.09 216.97 136.50 217.99 137.39 218.36 C 138.27 218.73 139.28 218.31 139.65 217.43 Z M 140.04 216.48 L 140.45 215.56 C 140.83 214.69 140.43 213.67 139.56 213.28 C 138.69 212.90 137.67 213.30 137.29 214.17 L 136.88 215.09 C 136.50 215.97 136.89 216.98 137.77 217.37 C 138.64 217.75 139.66 217.36 140.04 216.48 Z M 140.43 215.58 L 140.84 214.69 C 141.24 213.83 140.86 212.81 140.00 212.41 C 139.14 212.01 138.12 212.39 137.72 213.25 L 137.31 214.14 C 136.91 215.01 137.28 216.03 138.15 216.43 C 139.01 216.82 140.03 216.45 140.43 215.58 Z M 140.82 214.72 L 141.25 213.84 C 141.66 212.99 141.30 211.96 140.45 211.55 C 139.60 211.14 138.57 211.49 138.16 212.35 L 137.74 213.22 C 137.32 214.08 137.68 215.10 138.53 215.51 C 139.39 215.93 140.41 215.57 140.82 214.72 Z M 141.23 213.86 L 141.67 212.99 C 142.10 212.15 141.76 211.12 140.92 210.69 C 140.07 210.27 139.05 210.61 138.62 211.45 L 138.18 212.32 C 137.75 213.16 138.09 214.19 138.93 214.62 C 139.78 215.04 140.80 214.71 141.23 213.86 Z M 141.66 213.01 L 142.08 212.21 C 142.51 211.38 142.19 210.35 141.36 209.91 C 140.53 209.47 139.50 209.79 139.06 210.63 L 138.64 211.43 C 138.20 212.26 138.52 213.29 139.35 213.73 C 140.19 214.17 141.22 213.85 141.66 213.01 Z M 142.06 212.23 L 142.50 211.42 C 142.95 210.60 142.65 209.57 141.82 209.12 C 141.00 208.67 139.97 208.97 139.52 209.79 L 139.07 210.60 C 138.62 211.43 138.93 212.46 139.75 212.91 C 140.58 213.36 141.61 213.06 142.06 212.23 Z M 142.48 211.45 L 142.96 210.61 C 143.42 209.79 143.14 208.76 142.32 208.30 C 141.51 207.83 140.47 208.12 140.01 208.93 L 139.53 209.77 C 139.07 210.59 139.36 211.62 140.17 212.08 C 140.98 212.55 142.02 212.26 142.48 211.45 Z M 142.94 210.63 L 143.46 209.76 C 143.94 208.95 143.67 207.92 142.87 207.44 C 142.06 206.96 141.02 207.23 140.55 208.03 L 140.03 208.91 C 139.55 209.71 139.82 210.75 140.62 211.23 C 141.43 211.70 142.47 211.44 142.94 210.63 Z M 143.44 209.78 L 144.01 208.86 C 144.50 208.07 144.25 207.03 143.46 206.54 C 142.66 206.05 141.62 206.30 141.13 207.09 L 140.57 208.01 C 140.08 208.80 140.32 209.85 141.12 210.33 C 141.91 210.82 142.95 210.58 143.44 209.78 Z M 143.99 208.88 L 144.57 207.97 C 145.07 207.19 144.84 206.14 144.06 205.64 C 143.27 205.14 142.23 205.37 141.73 206.16 L 141.15 207.07 C 140.65 207.85 140.88 208.89 141.66 209.40 C 142.45 209.90 143.49 209.67 143.99 208.88 Z M 144.56 207.99 L 145.06 207.22 C 145.57 206.45 145.35 205.40 144.58 204.89 C 143.80 204.39 142.76 204.60 142.25 205.38 L 141.75 206.14 C 141.24 206.92 141.45 207.96 142.23 208.47 C 143.01 208.98 144.05 208.76 144.56 207.99 Z M 145.05 207.23 L 145.58 206.44 C 146.09 205.67 145.89 204.63 145.12 204.12 C 144.35 203.60 143.31 203.81 142.79 204.57 L 142.26 205.37 C 141.75 206.14 141.95 207.18 142.72 207.69 C 143.49 208.21 144.53 208.00 145.05 207.23 Z M 145.56 206.45 L 146.12 205.64 C 146.64 204.87 146.45 203.83 145.69 203.31 C 144.92 202.79 143.88 202.99 143.36 203.75 L 142.80 204.56 C 142.28 205.33 142.48 206.37 143.24 206.89 C 144.00 207.41 145.04 207.21 145.56 206.45 Z M 146.11 205.65 L 146.69 204.81 C 147.22 204.06 147.03 203.02 146.27 202.49 C 145.52 201.97 144.48 202.15 143.95 202.91 L 143.37 203.74 C 142.85 204.50 143.03 205.54 143.79 206.06 C 144.55 206.59 145.58 206.40 146.11 205.65 Z M 146.68 204.82 L 147.28 203.98 C 147.81 203.23 147.63 202.19 146.88 201.66 C 146.13 201.13 145.09 201.30 144.56 202.05 L 143.96 202.90 C 143.43 203.65 143.61 204.69 144.36 205.22 C 145.11 205.75 146.15 205.57 146.68 204.82 Z M 147.27 203.98 L 147.88 203.13 C 148.41 202.39 148.24 201.35 147.50 200.82 C 146.75 200.28 145.72 200.45 145.18 201.20 L 144.57 202.05 C 144.04 202.79 144.21 203.83 144.95 204.36 C 145.69 204.90 146.73 204.73 147.27 203.98 Z M 147.87 203.14 L 148.49 202.29 C 149.03 201.55 148.87 200.51 148.13 199.97 C 147.39 199.43 146.35 199.60 145.82 200.33 L 145.19 201.19 C 144.66 201.93 144.82 202.96 145.56 203.50 C 146.29 204.04 147.33 203.88 147.87 203.14 Z M 148.48 202.29 L 149.09 201.47 C 149.63 200.74 149.48 199.70 148.74 199.16 C 148.01 198.62 146.98 198.77 146.43 199.51 L 145.83 200.33 C 145.28 201.06 145.44 202.09 146.17 202.64 C 146.90 203.18 147.94 203.02 148.48 202.29 Z M 149.08 201.48 L 149.68 200.68 C 150.22 199.95 150.08 198.92 149.35 198.37 C 148.62 197.83 147.59 197.97 147.04 198.70 L 146.44 199.50 C 145.90 200.23 146.05 201.26 146.77 201.81 C 147.50 202.35 148.53 202.20 149.08 201.48 Z M 149.67 200.68 L 150.27 199.88 C 150.82 199.16 150.68 198.13 149.96 197.58 C 149.23 197.03 148.21 197.18 147.66 197.90 L 147.05 198.70 C 146.51 199.42 146.65 200.45 147.37 201.00 C 148.09 201.54 149.12 201.40 149.67 200.68 Z M 150.27 199.88 L 150.87 199.09 C 151.42 198.37 151.29 197.35 150.57 196.80 C 149.85 196.25 148.82 196.38 148.27 197.10 L 147.67 197.90 C 147.12 198.61 147.25 199.64 147.97 200.19 C 148.69 200.74 149.72 200.60 150.27 199.88 Z M 150.87 199.09 L 151.48 198.30 C 152.03 197.59 151.89 196.56 151.18 196.01 C 150.47 195.46 149.44 195.59 148.89 196.31 L 148.28 197.10 C 147.73 197.81 147.86 198.84 148.58 199.39 C 149.29 199.94 150.32 199.81 150.87 199.09 Z M 151.47 198.30 L 152.08 197.51 C 152.63 196.80 152.50 195.78 151.79 195.23 C 151.08 194.68 150.06 194.81 149.51 195.52 L 148.90 196.31 C 148.35 197.02 148.48 198.04 149.19 198.59 C 149.90 199.14 150.92 199.01 151.47 198.30 Z M 152.08 197.51 L 152.69 196.72 C 153.24 196.02 153.11 195.00 152.41 194.45 C 151.70 193.90 150.68 194.02 150.13 194.73 L 149.52 195.52 C 148.97 196.23 149.09 197.24 149.80 197.80 C 150.51 198.35 151.53 198.22 152.08 197.51 Z M 152.69 196.72 L 153.30 195.93 C 153.85 195.23 153.72 194.21 153.02 193.66 C 152.31 193.11 151.30 193.24 150.75 193.94 L 150.13 194.73 C 149.58 195.44 149.71 196.45 150.41 197.00 C 151.12 197.55 152.14 197.43 152.69 196.72 Z M 153.30 195.93 L 153.51 195.66 C 154.06 194.96 153.94 193.94 153.23 193.39 C 152.53 192.84 151.51 192.97 150.97 193.67 L 150.75 193.95 C 150.20 194.65 150.33 195.66 151.03 196.21 C 151.73 196.76 152.75 196.64 153.30 195.93 Z"
      fill="black"
      fill-rule="nonzero" /><path d="M 147.14 126.78 L 147.40 127.66 C 147.72 128.78 148.89 129.42 150.01 129.09 C 151.12 128.77 151.76 127.60 151.44 126.48 L 151.18 125.60 C 150.85 124.49 149.68 123.85 148.57 124.18 C 147.45 124.50 146.81 125.67 147.14 126.78 Z M 147.42 127.73 L 147.72 128.64 C 148.08 129.74 149.27 130.34 150.38 129.98 C 151.48 129.61 152.08 128.42 151.72 127.32 L 151.42 126.41 C 151.05 125.31 149.86 124.71 148.76 125.07 C 147.65 125.44 147.05 126.63 147.42 127.73 Z M 147.76 128.76 L 148.14 129.72 C 148.57 130.80 149.80 131.33 150.88 130.90 C 151.97 130.46 152.49 129.23 152.06 128.15 L 151.68 127.19 C 151.24 126.11 150.01 125.58 148.93 126.02 C 147.85 126.45 147.32 127.68 147.76 128.76 Z M 148.20 129.86 L 148.67 130.82 C 149.18 131.87 150.44 132.30 151.49 131.79 C 152.54 131.28 152.98 130.02 152.46 128.97 L 152.00 128.01 C 151.49 126.96 150.22 126.53 149.17 127.04 C 148.13 127.55 147.69 128.81 148.20 129.86 Z M 148.73 130.92 L 149.19 131.74 C 149.76 132.76 151.04 133.12 152.05 132.55 C 153.07 131.98 153.43 130.70 152.86 129.68 L 152.40 128.86 C 151.83 127.85 150.55 127.49 149.54 128.06 C 148.52 128.62 148.16 129.91 148.73 130.92 Z M 149.23 131.79 L 149.75 132.65 C 150.35 133.64 151.63 133.96 152.62 133.36 C 153.61 132.76 153.93 131.47 153.33 130.48 L 152.82 129.63 C 152.22 128.64 150.93 128.32 149.94 128.92 C 148.95 129.52 148.64 130.81 149.23 131.79 Z M 149.78 132.68 L 150.33 133.55 C 150.95 134.52 152.23 134.81 153.20 134.20 C 154.17 133.58 154.46 132.30 153.85 131.33 L 153.30 130.46 C 152.69 129.48 151.40 129.19 150.43 129.81 C 149.46 130.42 149.17 131.71 149.78 132.68 Z M 150.35 133.56 L 150.92 134.43 C 151.54 135.39 152.82 135.67 153.78 135.05 C 154.74 134.43 155.01 133.15 154.39 132.19 L 153.83 131.32 C 153.21 130.36 151.93 130.08 150.97 130.70 C 150.01 131.32 149.74 132.60 150.35 133.56 Z M 150.94 134.42 L 151.51 135.31 C 152.12 136.26 153.38 136.53 154.33 135.92 C 155.28 135.31 155.56 134.04 154.95 133.09 L 154.38 132.21 C 153.76 131.26 152.50 130.98 151.55 131.59 C 150.60 132.21 150.32 133.47 150.94 134.42 Z M 151.54 135.27 L 152.12 136.18 C 152.71 137.11 153.94 137.39 154.87 136.80 C 155.80 136.20 156.08 134.97 155.49 134.04 L 154.91 133.13 C 154.32 132.20 153.09 131.92 152.16 132.51 C 151.22 133.10 150.95 134.34 151.54 135.27 Z M 152.17 136.13 L 152.71 137.00 C 153.27 137.91 154.46 138.18 155.37 137.62 C 156.27 137.06 156.55 135.87 155.98 134.97 L 155.44 134.09 C 154.88 133.19 153.69 132.91 152.79 133.47 C 151.88 134.03 151.61 135.22 152.17 136.13 Z M 152.76 136.95 L 153.27 137.79 C 153.80 138.66 154.95 138.94 155.82 138.41 C 156.70 137.87 156.98 136.73 156.44 135.86 L 155.93 135.02 C 155.40 134.14 154.26 133.87 153.38 134.40 C 152.51 134.93 152.23 136.07 152.76 136.95 Z M 153.32 137.73 L 153.79 138.52 C 154.29 139.37 155.39 139.65 156.24 139.15 C 157.09 138.65 157.37 137.55 156.86 136.70 L 156.39 135.91 C 155.89 135.06 154.80 134.78 153.95 135.29 C 153.10 135.79 152.82 136.88 153.32 137.73 Z M 153.83 138.47 L 154.34 139.36 C 154.81 140.19 155.87 140.48 156.70 140.00 C 157.52 139.53 157.81 138.47 157.34 137.64 L 156.83 136.75 C 156.35 135.93 155.30 135.64 154.47 136.11 C 153.64 136.59 153.35 137.64 153.83 138.47 Z M 154.36 139.32 L 154.85 140.21 C 155.30 141.03 156.33 141.33 157.15 140.88 C 157.96 140.43 158.26 139.40 157.81 138.58 L 157.31 137.69 C 156.86 136.87 155.84 136.57 155.02 137.02 C 154.20 137.47 153.91 138.50 154.36 139.32 Z M 154.87 140.18 L 155.33 141.03 C 155.76 141.84 156.76 142.14 157.57 141.71 C 158.38 141.28 158.68 140.27 158.25 139.47 L 157.79 138.62 C 157.36 137.81 156.36 137.51 155.55 137.94 C 154.74 138.37 154.44 139.37 154.87 140.18 Z M 155.35 141.01 L 155.73 141.72 C 156.15 142.52 157.13 142.82 157.92 142.40 C 158.72 141.98 159.02 141.00 158.60 140.21 L 158.23 139.49 C 157.81 138.70 156.82 138.39 156.03 138.81 C 155.23 139.23 154.93 140.21 155.35 141.01 Z"
      fill="black"
      fill-rule="nonzero" /></svg>