<svg xmlns="http://www.w3.org/2000/svg" width="300" height="300" viewBox="0 0 300 300">
<path d="M 135.65 147.50 L 136.57 147.66 C 137.88 147.89 139.14 147.02 139.37 145.71 C 139.60 144.40 138.73 143.14 137.42 142.91 L 136.50 142.74 C 135.19 142.51 133.93 143.38 133.70 144.70 C 133.46 146.01 134.34 147.26 135.65 147.50 Z M 136.61 147.68 L 137.56 147.83 C 138.89 148.04 140.13 147.14 140.34 145.82 C 140.55 144.50 139.65 143.25 138.33 143.04 L 137.38 142.89 C 136.05 142.68 134.81 143.58 134.60 144.90 C 134.39 146.22 135.29 147.47 136.61 147.68 Z M 137.64 147.85 L 138.66 147.98 C 140.00 148.14 141.21 147.20 141.38 145.87 C 141.54 144.53 140.60 143.32 139.27 143.15 L 138.25 143.02 C 136.92 142.86 135.70 143.80 135.53 145.13 C 135.37 146.47 136.31 147.68 137.64 147.85 Z M 138.76 147.99 L 139.81 148.08 C 141.16 148.19 142.33 147.20 142.45 145.85 C 142.56 144.51 141.56 143.33 140.22 143.22 L 139.17 143.13 C 137.83 143.02 136.65 144.02 136.54 145.36 C 136.42 146.70 137.42 147.88 138.76 147.99 Z M 139.90 148.09 L 140.87 148.13 C 142.21 148.20 143.36 147.16 143.42 145.81 C 143.48 144.47 142.45 143.33 141.10 143.26 L 140.13 143.22 C 138.79 143.15 137.64 144.19 137.58 145.54 C 137.52 146.88 138.56 148.02 139.90 148.09 Z M 140.92 148.13 L 141.94 148.15 C 143.28 148.19 144.40 147.13 144.43 145.78 C 144.46 144.44 143.40 143.32 142.06 143.29 L 141.05 143.26 C 139.70 143.23 138.59 144.29 138.55 145.64 C 138.52 146.98 139.58 148.10 140.92 148.13 Z M 141.97 148.15 L 143.00 148.16 C 144.34 148.18 145.44 147.10 145.45 145.76 C 145.47 144.42 144.39 143.32 143.05 143.30 L 142.02 143.29 C 140.68 143.28 139.58 144.36 139.57 145.70 C 139.55 147.04 140.63 148.14 141.97 148.15 Z M 143.02 148.16 L 144.03 148.16 C 145.37 148.16 146.46 147.08 146.46 145.74 C 146.47 144.40 145.38 143.31 144.04 143.31 L 143.03 143.31 C 141.69 143.31 140.60 144.39 140.60 145.73 C 140.60 147.07 141.68 148.15 143.02 148.16 Z M 144.04 148.15 L 145.07 148.15 C 146.41 148.15 147.49 147.07 147.49 145.74 C 147.49 144.40 146.41 143.32 145.07 143.32 L 144.04 143.32 C 142.70 143.32 141.62 144.40 141.62 145.74 C 141.62 147.07 142.70 148.15 144.04 148.15 Z M 145.07 148.14 L 146.09 148.14 C 147.42 148.14 148.50 147.06 148.50 145.74 C 148.50 144.41 147.42 143.33 146.09 143.33 L 145.07 143.33 C 143.75 143.33 142.67 144.41 142.67 145.74 C 142.67 147.06 143.75 148.14 145.07 148.14 Z M 146.09 148.13 L 147.08 148.13 C 148.40 148.13 149.48 147.06 149.48 145.74 C 149.48 144.41 148.40 143.34 147.08 143.34 L 146.09 143.34 C 144.77 143.34 143.70 144.41 143.70 145.74 C 143.70 147.06 144.77 148.13 146.09 148.13 Z M 147.08 148.12 L 148.05 148.12 C 149.37 148.12 150.43 147.05 150.43 145.74 C 150.43 144.42 149.37 143.35 148.05 143.35 L 147.08 143.35 C 145.77 143.35 144.70 144.42 144.70 145.74 C 144.70 147.05 145.77 148.12 147.08 148.12 Z M 148.05 148.10 L 149.03 148.10 C 150.33 148.10 151.39 147.04 151.39 145.74 C 151.39 144.43 150.33 143.37 149.03 143.37 L 148.05 143.37 C 146.74 143.37 145.68 144.43 145.68 145.74 C 145.68 147.04 146.74 148.10 148.05 148.10 Z M 149.03 148.09 L 150.02 148.09 C 151.32 148.09 152.37 147.04 152.37 145.74 C 152.37 144.43 151.32 143.38 150.02 143.38 L 149.03 143.38 C 147.73 143.38 146.67 144.43 146.67 145.74 C 146.67 147.04 147.73 148.09 149.03 148.09 Z M 150.02 148.08 L 151.02 148.08 C 152.31 148.08 153.36 147.03 153.36 145.74 C 153.36 144.44 152.31 143.39 151.02 143.39 L 150.02 143.39 C 148.72 143.39 147.67 144.44 147.67 145.74 C 147.67 147.03 148.72 148.08 150.02 148.08 Z M 151.02 148.06 L 152.02 148.06 C 153.31 148.06 154.35 147.02 154.35 145.74 C 154.35 144.45 153.31 143.41 152.02 143.41 L 151.02 143.41 C 149.73 143.41 148.69 144.45 148.69 145.74 C 148.69 147.02 149.73 148.06 151.02 148.06 Z M 152.02 148.05 L 153.03 148.05 C 154.31 148.05 155.35 147.01 155.35 145.74 C 155.35 144.46 154.31 143.42 153.03 143.42 L 152.02 143.42 C 150.74 143.42 149.71 144.46 149.71 145.74 C 149.71 147.01 150.74 148.05 152.02 148.05 Z M 153.03 148.04 L 154.03 148.04 C 155.30 148.04 156.33 147.01 156.33 145.74 C 156.33 144.46 155.30 143.43 154.03 143.43 L 153.03 143.43 C 151.76 143.43 150.73 144.46 150.73 145.74 C 150.73 147.01 151.76 148.04 153.03 148.04 Z M 154.03 148.02 L 155.03 148.02 C 156.29 148.02 157.31 147.00 157.31 145.74 C 157.31 144.47 156.29 143.45 155.03 143.45 L 154.03 143.45 C 152.76 143.45 151.74 144.47 151.74 145.74 C 151.74 147.00 152.76 148.02 154.03 148.02 Z M 155.03 148.01 L 156.03 148.01 C 157.28 148.01 158.30 146.99 158.30 145.74 C 158.30 144.48 157.28 143.46 156.03 143.46 L 155.03 143.46 C 153.77 143.46 152.75 144.48 152.75 145.74 C 152.75 146.99 153.77 148.01 155.03 148.01 Z M 156.03 147.99 L 157.03 147.99 C 158.28 147.99 159.29 146.98 159.29 145.74 C 159.29 144.49 158.28 143.48 157.03 143.48 L 156.03 143.48 C 154.78 143.48 153.77 144.49 153.77 145.74 C 153.77 146.98 154.78 147.99 156.03 147.99 Z M 157.03 147.97 L 157.98 147.97 C 159.22 147.97 160.22 146.97 160.22 145.73 C 160.22 144.50 159.21 143.50 157.98 143.50 L 157.03 143.50 C 155.80 143.50 154.79 144.50 154.79 145.74 C 154.80 146.97 155.80 147.97 157.03 147.97 Z M 157.99 147.96 L 158.95 147.95 C 160.18 147.95 161.17 146.95 161.16 145.72 C 161.16 144.50 160.16 143.51 158.93 143.51 L 157.97 143.51 C 156.74 143.52 155.75 144.52 155.76 145.74 C 155.76 146.97 156.76 147.96 157.99 147.96 Z M 158.97 147.93 L 159.96 147.92 C 161.18 147.91 162.15 146.91 162.14 145.70 C 162.13 144.48 161.13 143.51 159.92 143.52 L 158.92 143.53 C 157.70 143.54 156.73 144.54 156.74 145.75 C 156.75 146.97 157.75 147.95 158.97 147.93 Z M 159.98 147.90 L 161.03 147.88 C 162.23 147.86 163.19 146.86 163.17 145.66 C 163.14 144.45 162.15 143.49 160.94 143.52 L 159.90 143.54 C 158.69 143.56 157.73 144.56 157.75 145.76 C 157.78 146.97 158.77 147.93 159.98 147.90 Z M 161.05 147.87 L 162.10 147.83 C 163.29 147.80 164.24 146.80 164.20 145.61 C 164.16 144.41 163.17 143.47 161.97 143.50 L 160.92 143.54 C 159.72 143.57 158.78 144.57 158.82 145.76 C 158.85 146.96 159.85 147.90 161.05 147.87 Z M 162.12 147.82 L 163.14 147.78 C 164.33 147.73 165.25 146.73 165.21 145.55 C 165.16 144.36 164.17 143.44 162.98 143.48 L 161.95 143.52 C 160.77 143.57 159.84 144.57 159.89 145.75 C 159.93 146.94 160.93 147.86 162.12 147.82 Z M 163.15 147.76 L 164.19 147.71 C 165.37 147.66 166.28 146.67 166.23 145.50 C 166.18 144.32 165.19 143.41 164.02 143.46 L 162.97 143.50 C 161.80 143.55 160.89 144.55 160.94 145.72 C 160.99 146.89 161.98 147.81 163.15 147.76 Z M 164.20 147.69 L 165.22 147.65 C 166.38 147.60 167.28 146.61 167.23 145.45 C 167.18 144.29 166.20 143.38 165.03 143.43 L 164.01 143.48 C 162.85 143.53 161.95 144.51 162.00 145.68 C 162.05 146.84 163.03 147.74 164.20 147.69 Z M 165.21 147.63 L 166.18 147.59 C 167.34 147.54 168.23 146.57 168.19 145.41 C 168.14 144.26 167.16 143.36 166.01 143.41 L 165.04 143.45 C 163.89 143.50 162.99 144.48 163.04 145.63 C 163.09 146.78 164.06 147.68 165.21 147.63 Z M 166.17 147.56 L 167.32 147.52 C 168.46 147.48 169.35 146.53 169.31 145.39 C 169.28 144.25 168.32 143.36 167.18 143.40 L 166.02 143.44 C 164.89 143.48 164.00 144.43 164.04 145.57 C 164.07 146.71 165.03 147.60 166.17 147.56 Z M 167.29 147.46 L 168.58 147.44 C 169.69 147.42 170.57 146.50 170.55 145.40 C 170.52 144.29 169.61 143.41 168.51 143.44 L 167.22 143.46 C 166.11 143.48 165.23 144.40 165.25 145.50 C 165.27 146.61 166.19 147.48 167.29 147.46 Z M 168.49 147.35 L 168.91 147.37 C 169.97 147.39 170.85 146.56 170.88 145.50 C 170.91 144.44 170.07 143.56 169.01 143.53 L 168.59 143.52 C 167.54 143.49 166.65 144.33 166.63 145.39 C 166.60 146.45 167.44 147.33 168.49 147.35 Z M 168.85 143.61 L 168.41 143.64 C 167.40 143.70 166.62 144.57 166.68 145.58 C 166.75 146.60 167.62 147.37 168.63 147.31 L 169.07 147.29 C 170.09 147.23 170.86 146.35 170.80 145.34 C 170.74 144.32 169.87 143.55 168.85 143.61 Z M 168.46 143.70 L 167.55 143.74 C 166.57 143.77 165.81 144.60 165.84 145.57 C 165.88 146.55 166.70 147.31 167.68 147.28 L 168.59 147.24 C 169.57 147.21 170.33 146.39 170.29 145.41 C 170.26 144.43 169.43 143.67 168.46 143.70 Z M 167.56 143.81 L 166.34 143.85 C 165.40 143.88 164.66 144.66 164.69 145.60 C 164.72 146.54 165.51 147.28 166.45 147.25 L 167.67 147.21 C 168.61 147.18 169.34 146.39 169.31 145.45 C 169.28 144.51 168.49 143.78 167.56 143.81 Z M 166.34 143.91 L 165.27 143.94 C 164.37 143.97 163.66 144.73 163.68 145.63 C 163.71 146.54 164.47 147.25 165.38 147.22 L 166.44 147.19 C 167.35 147.16 168.06 146.40 168.03 145.50 C 168.00 144.59 167.24 143.88 166.34 143.91 Z"
      fill="black"
      fill-rule="nonzero" /><path d="M 136.42 167.02 L 137.33 167.24 C 138.63 167.56 139.95 166.77 140.27 165.47 C 140.59 164.17 139.79 162.85 138.49 162.53 L 137.58 162.31 C 136.28 161.99 134.96 162.78 134.64 164.08 C 134.32 165.38 135.12 166.70 136.42 167.02 Z M 137.38 167.26 L 138.32 167.47 C 139.63 167.76 140.93 166.94 141.23 165.63 C 141.52 164.32 140.70 163.02 139.39 162.73 L 138.45 162.51 C 137.14 162.22 135.84 163.04 135.54 164.35 C 135.25 165.66 136.07 166.96 137.38 167.26 Z M 138.41 167.49 L 139.40 167.68 C 140.73 167.92 142.00 167.05 142.24 165.73 C 142.49 164.40 141.61 163.13 140.29 162.88 L 139.30 162.70 C 137.98 162.45 136.70 163.33 136.46 164.65 C 136.21 165.98 137.09 167.25 138.41 167.49 Z M 139.52 167.70 L 140.59 167.85 C 141.93 168.03 143.16 167.08 143.34 165.75 C 143.52 164.41 142.57 163.18 141.24 163.00 L 140.17 162.86 C 138.83 162.68 137.60 163.62 137.42 164.96 C 137.24 166.30 138.18 167.53 139.52 167.70 Z M 140.71 167.86 L 141.68 167.94 C 143.03 168.05 144.21 167.05 144.32 165.70 C 144.43 164.36 143.43 163.18 142.08 163.06 L 141.11 162.99 C 139.77 162.87 138.59 163.88 138.48 165.22 C 138.36 166.57 139.37 167.75 140.71 167.86 Z M 141.77 167.94 L 142.77 167.99 C 144.12 168.05 145.26 167.01 145.33 165.67 C 145.39 164.32 144.35 163.17 143.00 163.11 L 142.00 163.06 C 140.65 163.00 139.51 164.04 139.44 165.39 C 139.38 166.74 140.42 167.88 141.77 167.94 Z M 142.83 167.99 L 143.85 168.01 C 145.20 168.04 146.32 166.98 146.35 165.63 C 146.38 164.28 145.32 163.17 143.97 163.13 L 142.94 163.11 C 141.60 163.08 140.48 164.15 140.45 165.49 C 140.42 166.84 141.48 167.96 142.83 167.99 Z M 143.89 168.01 L 144.91 168.02 C 146.25 168.03 147.35 166.95 147.37 165.60 C 147.38 164.26 146.29 163.16 144.95 163.15 L 143.93 163.14 C 142.59 163.13 141.49 164.21 141.47 165.55 C 141.46 166.90 142.55 168.00 143.89 168.01 Z M 144.93 168.02 L 145.92 168.02 C 147.26 168.02 148.35 166.93 148.35 165.59 C 148.36 164.24 147.27 163.15 145.92 163.15 L 144.93 163.15 C 143.59 163.15 142.50 164.24 142.50 165.58 C 142.49 166.92 143.58 168.01 144.93 168.02 Z M 145.92 168.01 L 146.98 168.01 C 148.32 168.01 149.41 166.92 149.41 165.58 C 149.41 164.24 148.32 163.16 146.98 163.16 L 145.92 163.16 C 144.58 163.16 143.50 164.24 143.50 165.58 C 143.50 166.92 144.58 168.01 145.92 168.01 Z M 146.98 168.00 L 147.99 168.00 C 149.33 168.00 150.41 166.92 150.41 165.58 C 150.41 164.25 149.33 163.17 147.99 163.17 L 146.98 163.17 C 145.65 163.17 144.57 164.25 144.57 165.58 C 144.57 166.92 145.65 168.00 146.98 168.00 Z M 147.99 167.99 L 148.97 167.99 C 150.29 167.99 151.37 166.91 151.37 165.58 C 151.37 164.26 150.29 163.18 148.97 163.18 L 147.99 163.18 C 146.67 163.18 145.59 164.26 145.59 165.58 C 145.59 166.91 146.67 167.99 147.99 167.99 Z M 148.97 167.97 L 149.92 167.97 C 151.24 167.97 152.31 166.90 152.31 165.58 C 152.31 164.26 151.24 163.19 149.92 163.19 L 148.97 163.19 C 147.65 163.19 146.58 164.26 146.58 165.58 C 146.58 166.90 147.65 167.97 148.97 167.97 Z M 149.92 167.96 L 150.90 167.96 C 152.21 167.96 153.27 166.90 153.27 165.58 C 153.27 164.27 152.21 163.21 150.90 163.21 L 149.92 163.21 C 148.61 163.21 147.55 164.27 147.55 165.58 C 147.55 166.90 148.61 167.96 149.92 167.96 Z M 150.90 167.95 L 151.89 167.95 C 153.19 167.95 154.25 166.89 154.25 165.58 C 154.25 164.28 153.19 163.22 151.89 163.22 L 150.90 163.22 C 149.59 163.22 148.54 164.28 148.54 165.58 C 148.54 166.89 149.59 167.95 150.90 167.95 Z M 151.89 167.93 L 152.89 167.93 C 154.18 167.93 155.24 166.88 155.24 165.58 C 155.24 164.29 154.18 163.24 152.89 163.24 L 151.89 163.24 C 150.59 163.24 149.54 164.29 149.54 165.58 C 149.54 166.88 150.59 167.93 151.89 167.93 Z M 152.89 167.92 L 153.90 167.92 C 155.19 167.92 156.24 166.87 156.24 165.58 C 156.24 164.30 155.19 163.25 153.90 163.25 L 152.89 163.25 C 151.60 163.25 150.56 164.30 150.56 165.58 C 150.56 166.87 151.60 167.92 152.89 167.92 Z M 153.90 167.90 L 154.92 167.90 C 156.20 167.90 157.24 166.86 157.24 165.58 C 157.24 164.31 156.20 163.27 154.92 163.27 L 153.90 163.27 C 152.63 163.27 151.59 164.31 151.59 165.58 C 151.59 166.86 152.63 167.90 153.90 167.90 Z M 154.92 167.88 L 155.94 167.88 C 157.20 167.88 158.23 166.85 158.23 165.58 C 158.23 164.32 157.20 163.29 155.94 163.29 L 154.92 163.29 C 153.65 163.29 152.63 164.32 152.63 165.58 C 152.63 166.85 153.65 167.88 154.92 167.88 Z M 155.94 167.86 L 156.95 167.86 C 158.20 167.86 159.22 166.84 159.22 165.58 C 159.22 164.33 158.20 163.31 156.95 163.31 L 155.94 163.31 C 154.68 163.31 153.66 164.33 153.66 165.58 C 153.66 166.84 154.68 167.86 155.94 167.86 Z M 156.95 167.84 L 157.94 167.84 C 159.18 167.84 160.19 166.83 160.19 165.58 C 160.19 164.34 159.18 163.33 157.94 163.33 L 156.95 163.33 C 155.70 163.33 154.69 164.34 154.69 165.58 C 154.69 166.83 155.70 167.84 156.95 167.84 Z M 157.94 167.81 L 158.94 167.81 C 160.17 167.81 161.17 166.82 161.17 165.58 C 161.17 164.35 160.17 163.35 158.94 163.35 L 157.94 163.35 C 156.71 163.35 155.71 164.35 155.71 165.58 C 155.71 166.82 156.71 167.81 157.94 167.81 Z M 158.95 167.79 L 159.99 167.78 C 161.21 167.78 162.19 166.79 162.19 165.58 C 162.19 164.36 161.20 163.38 159.98 163.38 L 158.94 163.38 C 157.72 163.38 156.74 164.37 156.74 165.59 C 156.74 166.80 157.73 167.79 158.95 167.79 Z M 160.01 167.75 L 161.01 167.74 C 162.21 167.73 163.17 166.75 163.15 165.55 C 163.14 164.35 162.16 163.39 160.96 163.40 L 159.97 163.41 C 158.77 163.42 157.81 164.41 157.82 165.60 C 157.83 166.80 158.81 167.76 160.01 167.75 Z M 161.04 167.71 L 162.00 167.68 C 163.18 167.65 164.11 166.67 164.08 165.49 C 164.05 164.31 163.07 163.38 161.89 163.41 L 160.93 163.44 C 159.75 163.46 158.82 164.44 158.85 165.62 C 158.88 166.80 159.86 167.74 161.04 167.71 Z M 162.04 167.65 L 162.95 167.61 C 164.11 167.55 165.01 166.57 164.95 165.41 C 164.90 164.25 163.91 163.35 162.75 163.40 L 161.84 163.45 C 160.68 163.50 159.79 164.49 159.84 165.65 C 159.90 166.81 160.88 167.70 162.04 167.65 Z M 163.00 167.57 L 163.91 167.50 C 165.05 167.42 165.90 166.43 165.82 165.29 C 165.74 164.15 164.75 163.29 163.61 163.38 L 162.70 163.44 C 161.56 163.53 160.71 164.52 160.79 165.66 C 160.88 166.79 161.87 167.65 163.00 167.57 Z M 163.96 167.46 L 164.93 167.36 C 166.05 167.25 166.86 166.26 166.76 165.14 C 166.65 164.03 165.65 163.21 164.54 163.32 L 163.56 163.42 C 162.45 163.53 161.63 164.52 161.74 165.64 C 161.85 166.75 162.84 167.57 163.96 167.46 Z M 164.97 167.32 L 166.08 167.19 C 167.17 167.06 167.95 166.07 167.82 164.98 C 167.69 163.89 166.70 163.11 165.61 163.23 L 164.50 163.37 C 163.41 163.49 162.63 164.48 162.76 165.58 C 162.89 166.67 163.88 167.45 164.97 167.32 Z M 166.10 167.15 L 167.03 167.03 C 168.11 166.89 168.86 165.91 168.72 164.84 C 168.58 163.76 167.60 163.01 166.53 163.15 L 165.59 163.27 C 164.52 163.41 163.76 164.39 163.90 165.47 C 164.04 166.54 165.02 167.29 166.10 167.15 Z M 167.04 167.01 L 167.96 166.88 C 169.02 166.74 169.76 165.76 169.61 164.70 C 169.47 163.64 168.49 162.90 167.43 163.05 L 166.52 163.17 C 165.46 163.32 164.72 164.29 164.87 165.35 C 165.01 166.41 165.99 167.15 167.04 167.01 Z M 167.96 166.85 L 168.94 166.72 C 169.98 166.57 170.71 165.60 170.56 164.56 C 170.42 163.52 169.45 162.79 168.41 162.94 L 167.43 163.07 C 166.39 163.22 165.66 164.19 165.81 165.23 C 165.95 166.27 166.92 167.00 167.96 166.85 Z M 168.94 166.69 L 169.97 166.55 C 171.00 166.40 171.71 165.44 171.56 164.41 C 171.42 163.38 170.46 162.67 169.43 162.81 L 168.41 162.96 C 167.38 163.11 166.66 164.06 166.81 165.09 C 166.96 166.13 167.91 166.84 168.94 166.69 Z M 169.97 166.52 L 171.02 166.37 C 172.04 166.22 172.75 165.28 172.60 164.26 C 172.45 163.24 171.51 162.54 170.49 162.68 L 169.43 162.84 C 168.41 162.99 167.71 163.93 167.86 164.95 C 168.00 165.96 168.95 166.67 169.97 166.52 Z M 171.02 166.34 L 172.10 166.19 C 173.10 166.04 173.79 165.11 173.65 164.10 C 173.50 163.10 172.57 162.41 171.56 162.55 L 170.49 162.71 C 169.49 162.86 168.79 163.79 168.94 164.79 C 169.09 165.80 170.02 166.49 171.02 166.34 Z M 172.09 166.17 L 172.21 166.16 C 173.20 166.01 173.89 165.09 173.75 164.09 C 173.60 163.09 172.68 162.40 171.68 162.55 L 171.57 162.57 C 170.57 162.71 169.88 163.64 170.03 164.63 C 170.17 165.63 171.10 166.32 172.09 166.17 Z"
      fill="black"
      fill-rule="nonzero" /></svg>