<svg xmlns="http://www.w3.org/2000/svg" width="300" height="300" viewBox="0 0 300 300">
<path d="M 137.97 133.19 L 137.67 134.11 C 137.29 135.27 137.92 136.52 139.08 136.91 C 140.24 137.29 141.49 136.66 141.88 135.50 L 142.18 134.58 C 142.57 133.42 141.94 132.17 140.77 131.78 C 139.61 131.40 138.36 132.03 137.97 133.19 Z M 137.64 134.12 L 137.34 135.06 C 136.97 136.24 137.62 137.50 138.80 137.87 C 139.98 138.25 141.24 137.59 141.61 136.42 L 141.91 135.48 C 142.28 134.30 141.63 133.04 140.45 132.67 C 139.27 132.29 138.01 132.95 137.64 134.12 Z M 137.30 135.10 L 137.02 136.07 C 136.67 137.27 137.36 138.52 138.56 138.87 C 139.76 139.23 141.02 138.54 141.37 137.34 L 141.65 136.37 C 142.00 135.17 141.31 133.91 140.11 133.56 C 138.91 133.21 137.66 133.90 137.30 135.10 Z M 136.98 136.13 L 136.72 137.14 C 136.40 138.37 137.14 139.62 138.36 139.93 C 139.59 140.25 140.83 139.51 141.15 138.29 L 141.41 137.27 C 141.73 136.05 140.99 134.80 139.77 134.49 C 138.54 134.17 137.29 134.91 136.98 136.13 Z M 136.69 137.22 L 136.47 138.20 C 136.20 139.44 136.98 140.67 138.22 140.95 C 139.46 141.22 140.69 140.44 140.96 139.20 L 141.18 138.21 C 141.45 136.97 140.67 135.74 139.43 135.47 C 138.19 135.20 136.96 135.98 136.69 137.22 Z M 136.46 138.26 L 136.26 139.27 C 136.02 140.52 136.84 141.72 138.09 141.96 C 139.33 142.21 140.54 141.39 140.78 140.14 L 140.97 139.14 C 141.21 137.89 140.40 136.68 139.15 136.44 C 137.91 136.20 136.70 137.02 136.46 138.26 Z M 136.26 139.31 L 136.08 140.32 C 135.87 141.57 136.70 142.76 137.95 142.97 C 139.20 143.19 140.39 142.35 140.61 141.10 L 140.79 140.10 C 141.00 138.85 140.17 137.66 138.91 137.44 C 137.66 137.23 136.48 138.06 136.26 139.31 Z M 136.08 140.35 L 135.93 141.31 C 135.72 142.57 136.58 143.74 137.83 143.94 C 139.08 144.15 140.26 143.29 140.46 142.04 L 140.61 141.07 C 140.82 139.82 139.96 138.64 138.71 138.44 C 137.46 138.24 136.28 139.09 136.08 140.35 Z M 135.92 141.33 L 135.77 142.34 C 135.58 143.60 136.44 144.77 137.69 144.96 C 138.94 145.15 140.11 144.29 140.30 143.04 L 140.46 142.03 C 140.65 140.77 139.79 139.60 138.54 139.41 C 137.29 139.22 136.12 140.08 135.92 141.33 Z M 135.77 142.36 L 135.62 143.38 C 135.44 144.63 136.30 145.79 137.56 145.98 C 138.81 146.16 139.97 145.29 140.16 144.04 L 140.31 143.02 C 140.49 141.77 139.62 140.61 138.37 140.42 C 137.12 140.24 135.95 141.11 135.77 142.36 Z M 135.62 143.40 L 135.49 144.36 C 135.32 145.61 136.20 146.77 137.45 146.94 C 138.70 147.11 139.86 146.23 140.03 144.98 L 140.16 144.02 C 140.33 142.76 139.45 141.61 138.20 141.44 C 136.94 141.27 135.79 142.15 135.62 143.40 Z M 135.48 144.39 L 135.37 145.33 C 135.22 146.59 136.11 147.73 137.37 147.88 C 138.62 148.04 139.76 147.14 139.92 145.89 L 140.03 144.95 C 140.18 143.69 139.29 142.55 138.03 142.40 C 136.78 142.24 135.64 143.14 135.48 144.39 Z M 135.37 145.37 L 135.26 146.33 C 135.13 147.58 136.04 148.71 137.30 148.84 C 138.55 148.98 139.68 148.07 139.82 146.81 L 139.92 145.85 C 140.05 144.60 139.14 143.47 137.89 143.34 C 136.63 143.20 135.50 144.11 135.37 145.37 Z M 135.26 146.35 L 135.17 147.34 C 135.05 148.59 135.97 149.71 137.23 149.83 C 138.49 149.95 139.60 149.03 139.72 147.77 L 139.82 146.78 C 139.94 145.53 139.01 144.41 137.76 144.29 C 136.50 144.17 135.38 145.09 135.26 146.35 Z M 135.17 147.36 L 135.08 148.37 C 134.97 149.63 135.90 150.74 137.16 150.85 C 138.42 150.96 139.53 150.02 139.64 148.77 L 139.73 147.75 C 139.83 146.49 138.90 145.38 137.64 145.28 C 136.39 145.17 135.28 146.10 135.17 147.36 Z M 135.08 148.38 L 135.00 149.39 C 134.89 150.65 135.83 151.75 137.09 151.85 C 138.35 151.96 139.45 151.02 139.55 149.76 L 139.64 148.76 C 139.74 147.50 138.80 146.39 137.55 146.29 C 136.29 146.19 135.18 147.12 135.08 148.38 Z M 135.00 149.40 L 134.92 150.37 C 134.82 151.63 135.76 152.72 137.02 152.82 C 138.28 152.92 139.38 151.98 139.48 150.72 L 139.55 149.75 C 139.65 148.50 138.71 147.40 137.45 147.30 C 136.20 147.20 135.10 148.14 135.00 149.40 Z M 134.92 150.38 L 134.85 151.38 C 134.76 152.63 135.70 153.73 136.96 153.82 C 138.22 153.91 139.31 152.97 139.40 151.71 L 139.48 150.71 C 139.57 149.45 138.62 148.36 137.37 148.27 C 136.11 148.18 135.01 149.12 134.92 150.38 Z M 134.85 151.39 L 134.78 152.41 C 134.70 153.67 135.65 154.76 136.91 154.84 C 138.17 154.92 139.25 153.97 139.34 152.71 L 139.40 151.69 C 139.49 150.43 138.53 149.35 137.28 149.27 C 136.02 149.18 134.93 150.14 134.85 151.39 Z M 134.78 152.43 L 134.73 153.45 C 134.65 154.71 135.62 155.79 136.87 155.86 C 138.13 155.93 139.21 154.97 139.28 153.71 L 139.34 152.69 C 139.41 151.43 138.45 150.36 137.19 150.29 C 135.93 150.21 134.85 151.18 134.78 152.43 Z M 134.73 153.47 L 134.68 154.47 C 134.62 155.73 135.59 156.80 136.85 156.86 C 138.11 156.92 139.17 155.94 139.23 154.69 L 139.28 153.69 C 139.34 152.43 138.37 151.36 137.11 151.30 C 135.85 151.24 134.78 152.22 134.73 153.47 Z M 134.68 154.49 L 134.64 155.50 C 134.59 156.75 135.57 157.81 136.83 157.86 C 138.09 157.91 139.15 156.93 139.19 155.67 L 139.23 154.67 C 139.28 153.41 138.30 152.35 137.04 152.30 C 135.78 152.25 134.73 153.24 134.68 154.49 Z M 134.64 155.52 L 134.61 156.52 C 134.58 157.78 135.56 158.83 136.82 158.86 C 138.08 158.90 139.13 157.91 139.16 156.65 L 139.19 155.65 C 139.23 154.39 138.24 153.35 136.98 153.31 C 135.73 153.27 134.68 154.26 134.64 155.52 Z M 134.61 156.54 L 134.59 157.54 C 134.57 158.80 135.56 159.84 136.82 159.86 C 138.08 159.89 139.12 158.89 139.14 157.63 L 139.16 156.63 C 139.19 155.38 138.19 154.34 136.94 154.31 C 135.68 154.29 134.64 155.28 134.61 156.54 Z M 134.59 157.56 L 134.58 158.58 C 134.56 159.83 135.57 160.86 136.82 160.88 C 138.08 160.90 139.11 159.89 139.13 158.64 L 139.14 157.62 C 139.16 156.36 138.15 155.33 136.90 155.31 C 135.64 155.30 134.61 156.30 134.59 157.56 Z M 134.58 158.59 L 134.58 159.59 C 134.57 160.85 135.58 161.87 136.83 161.88 C 138.09 161.89 139.11 160.88 139.12 159.62 L 139.13 158.62 C 139.13 157.37 138.12 156.34 136.87 156.33 C 135.61 156.33 134.59 157.34 134.58 158.59 Z M 134.58 159.60 L 134.58 160.59 C 134.57 161.85 135.59 162.87 136.84 162.87 C 138.09 162.87 139.11 161.86 139.11 160.60 L 139.12 159.61 C 139.12 158.36 138.11 157.34 136.85 157.34 C 135.60 157.34 134.58 158.35 134.58 159.60 Z M 134.58 160.60 L 134.58 161.58 C 134.58 162.84 135.59 163.85 136.84 163.85 C 138.10 163.85 139.11 162.84 139.11 161.58 L 139.11 160.60 C 139.11 159.35 138.10 158.33 136.85 158.33 C 135.59 158.33 134.58 159.35 134.58 160.60 Z M 134.58 161.58 L 134.58 162.60 C 134.58 163.85 135.59 164.86 136.84 164.86 C 138.10 164.86 139.11 163.85 139.11 162.60 L 139.11 161.58 C 139.11 160.33 138.10 159.32 136.84 159.32 C 135.59 159.32 134.58 160.33 134.58 161.58 Z M 134.58 162.60 L 134.58 163.60 C 134.58 164.85 135.60 165.86 136.84 165.86 C 138.09 165.86 139.11 164.85 139.11 163.60 L 139.11 162.60 C 139.11 161.35 138.09 160.33 136.84 160.33 C 135.60 160.33 134.58 161.35 134.58 162.60 Z M 134.58 163.60 L 134.58 164.59 C 134.58 165.84 135.60 166.85 136.84 166.85 C 138.09 166.85 139.11 165.84 139.11 164.59 L 139.11 163.60 C 139.11 162.35 138.09 161.34 136.84 161.34 C 135.60 161.34 134.58 162.35 134.58 163.60 Z M 134.59 164.59 L 134.59 165.59 C 134.59 166.84 135.60 167.85 136.84 167.85 C 138.09 167.85 139.10 166.84 139.10 165.59 L 139.10 164.59 C 139.10 163.34 138.09 162.33 136.84 162.33 C 135.60 162.33 134.59 163.34 134.59 164.59 Z M 134.59 165.59 L 134.59 166.61 C 134.59 167.85 135.60 168.86 136.84 168.86 C 138.09 168.86 139.10 167.85 139.10 166.61 L 139.10 165.59 C 139.10 164.34 138.09 163.33 136.84 163.33 C 135.60 163.33 134.59 164.34 134.59 165.59 Z M 134.59 166.61 L 134.59 167.61 C 134.59 168.85 135.60 169.86 136.84 169.86 C 138.09 169.86 139.10 168.85 139.10 167.61 L 139.10 166.61 C 139.10 165.36 138.09 164.35 136.84 164.35 C 135.60 164.35 134.59 165.36 134.59 166.61 Z M 134.59 167.61 L 134.59 168.59 C 134.59 169.84 135.60 170.84 136.84 170.84 C 138.09 170.84 139.10 169.84 139.10 168.59 L 139.10 167.61 C 139.10 166.36 138.09 165.36 136.84 165.36 C 135.60 165.36 134.59 166.36 134.59 167.61 Z M 134.59 168.59 L 134.60 169.52 C 134.60 170.77 135.61 171.77 136.85 171.77 C 138.09 171.77 139.10 170.76 139.10 169.52 L 139.10 168.59 C 139.09 167.35 138.08 166.34 136.84 166.34 C 135.60 166.34 134.59 167.35 134.59 168.59 Z M 134.60 169.57 L 134.62 170.49 C 134.64 171.73 135.67 172.71 136.91 172.69 C 138.15 172.66 139.14 171.64 139.11 170.40 L 139.09 169.47 C 139.07 168.23 138.04 167.25 136.80 167.27 C 135.56 167.30 134.57 168.32 134.60 169.57 Z M 134.62 170.58 L 134.69 171.57 C 134.76 172.81 135.83 173.75 137.07 173.67 C 138.31 173.59 139.25 172.52 139.17 171.28 L 139.11 170.30 C 139.03 169.06 137.96 168.12 136.72 168.20 C 135.48 168.28 134.54 169.35 134.62 170.58 Z M 134.70 171.70 L 134.83 172.79 C 134.98 174.02 136.10 174.90 137.33 174.75 C 138.56 174.60 139.44 173.49 139.29 172.26 L 139.16 171.16 C 139.01 169.93 137.89 169.05 136.66 169.20 C 135.43 169.35 134.55 170.46 134.70 171.70 Z M 134.85 172.91 L 135.02 173.89 C 135.23 175.11 136.39 175.92 137.61 175.71 C 138.83 175.50 139.65 174.34 139.44 173.12 L 139.27 172.14 C 139.06 170.92 137.89 170.10 136.67 170.31 C 135.45 170.53 134.64 171.69 134.85 172.91 Z M 135.04 173.97 L 135.25 174.94 C 135.51 176.15 136.70 176.92 137.91 176.66 C 139.12 176.40 139.89 175.21 139.63 174.00 L 139.42 173.03 C 139.16 171.82 137.97 171.05 136.76 171.31 C 135.55 171.57 134.78 172.76 135.04 173.97 Z M 135.27 175.01 L 135.52 176.02 C 135.82 177.22 137.03 177.95 138.23 177.65 C 139.43 177.35 140.16 176.13 139.86 174.93 L 139.61 173.93 C 139.31 172.73 138.10 172.00 136.90 172.30 C 135.70 172.60 134.97 173.81 135.27 175.01 Z M 135.54 176.09 L 135.82 177.09 C 136.16 178.27 137.40 178.96 138.59 178.62 C 139.77 178.28 140.46 177.05 140.12 175.86 L 139.84 174.86 C 139.50 173.67 138.26 172.98 137.07 173.32 C 135.89 173.66 135.20 174.90 135.54 176.09 Z M 135.85 177.16 L 136.16 178.12 C 136.54 179.30 137.80 179.94 138.98 179.56 C 140.15 179.17 140.79 177.91 140.41 176.74 L 140.10 175.78 C 139.72 174.61 138.45 173.96 137.28 174.35 C 136.11 174.73 135.47 175.99 135.85 177.16 Z M 136.20 178.22 L 136.57 179.22 C 137.01 180.37 138.30 180.95 139.45 180.51 C 140.61 180.08 141.19 178.79 140.75 177.64 L 140.37 176.64 C 139.94 175.49 138.65 174.91 137.49 175.34 C 136.34 175.78 135.76 177.07 136.20 178.22 Z M 136.64 179.36 L 137.09 180.35 C 137.61 181.47 138.93 181.96 140.05 181.45 C 141.16 180.93 141.66 179.61 141.14 178.49 L 140.69 177.50 C 140.17 176.38 138.85 175.89 137.73 176.40 C 136.62 176.91 136.12 178.24 136.64 179.36 Z M 137.18 180.52 L 137.67 181.38 C 138.28 182.45 139.63 182.82 140.70 182.22 C 141.77 181.61 142.15 180.26 141.54 179.19 L 141.05 178.33 C 140.45 177.26 139.09 176.88 138.02 177.49 C 136.96 178.09 136.58 179.45 137.18 180.52 Z M 137.79 181.56 L 138.32 182.31 C 139.03 183.31 140.41 183.55 141.41 182.85 C 142.41 182.14 142.65 180.76 141.95 179.76 L 141.42 179.01 C 140.72 178.01 139.33 177.77 138.33 178.47 C 137.33 179.18 137.09 180.56 137.79 181.56 Z M 138.48 182.50 L 139.09 183.19 C 139.90 184.10 141.29 184.19 142.21 183.38 C 143.12 182.57 143.21 181.18 142.40 180.26 L 141.79 179.57 C 140.98 178.66 139.59 178.57 138.67 179.38 C 137.76 180.19 137.67 181.58 138.48 182.50 Z M 139.29 183.38 L 140.05 184.05 C 140.96 184.85 142.35 184.76 143.16 183.84 C 143.96 182.93 143.87 181.54 142.95 180.73 L 142.20 180.07 C 141.28 179.27 139.89 179.36 139.09 180.27 C 138.29 181.19 138.38 182.58 139.29 183.38 Z M 140.29 184.22 L 141.11 184.77 C 142.12 185.44 143.48 185.16 144.15 184.15 C 144.82 183.14 144.55 181.78 143.54 181.11 L 142.72 180.56 C 141.71 179.89 140.34 180.16 139.67 181.17 C 139.00 182.19 139.28 183.55 140.29 184.22 Z M 141.35 184.90 L 142.24 185.34 C 143.33 185.87 144.64 185.43 145.17 184.35 C 145.71 183.27 145.27 181.95 144.19 181.42 L 143.30 180.97 C 142.21 180.44 140.90 180.88 140.36 181.96 C 139.83 183.05 140.27 184.36 141.35 184.90 Z M 142.46 185.43 L 143.32 185.74 C 144.45 186.15 145.70 185.57 146.12 184.44 C 146.53 183.31 145.95 182.06 144.82 181.64 L 143.96 181.33 C 142.83 180.91 141.58 181.49 141.17 182.63 C 140.75 183.76 141.33 185.01 142.46 185.43 Z M 143.52 185.80 L 144.44 186.03 C 145.60 186.34 146.79 185.64 147.09 184.48 C 147.39 183.32 146.70 182.13 145.53 181.82 L 144.62 181.58 C 143.45 181.28 142.27 181.98 141.96 183.14 C 141.66 184.30 142.36 185.49 143.52 185.80 Z M 144.62 186.07 L 145.63 186.24 C 146.81 186.44 147.93 185.65 148.13 184.46 C 148.34 183.28 147.54 182.16 146.36 181.96 L 145.35 181.79 C 144.17 181.59 143.05 182.38 142.85 183.57 C 142.64 184.75 143.44 185.87 144.62 186.07 Z M 145.79 186.25 L 146.89 186.36 C 148.08 186.47 149.14 185.60 149.25 184.41 C 149.36 183.22 148.49 182.17 147.30 182.05 L 146.20 181.95 C 145.01 181.83 143.96 182.71 143.84 183.89 C 143.73 185.08 144.60 186.14 145.79 186.25 Z M 147.01 186.36 L 147.89 186.40 C 149.08 186.45 150.08 185.52 150.13 184.33 C 150.18 183.14 149.25 182.13 148.06 182.08 L 147.18 182.05 C 145.99 182.00 144.99 182.93 144.94 184.12 C 144.89 185.31 145.82 186.31 147.01 186.36 Z M 148.00 186.40 L 148.94 186.38 C 150.13 186.37 151.09 185.39 151.07 184.20 C 151.06 183.01 150.08 182.06 148.89 182.07 L 147.95 182.09 C 146.76 182.10 145.80 183.08 145.82 184.27 C 145.83 185.46 146.81 186.41 148.00 186.40 Z M 149.08 186.38 L 150.07 186.30 C 151.25 186.21 152.14 185.18 152.05 184.00 C 151.97 182.81 150.93 181.92 149.75 182.01 L 148.75 182.08 C 147.57 182.17 146.68 183.20 146.77 184.39 C 146.86 185.57 147.89 186.46 149.08 186.38 Z M 150.22 186.28 L 151.25 186.13 C 152.43 185.96 153.24 184.87 153.07 183.69 C 152.90 182.52 151.81 181.71 150.64 181.88 L 149.60 182.03 C 148.42 182.20 147.61 183.29 147.78 184.46 C 147.95 185.64 149.04 186.45 150.22 186.28 Z M 151.42 186.10 L 152.49 185.85 C 153.65 185.59 154.37 184.44 154.11 183.29 C 153.85 182.13 152.70 181.41 151.55 181.67 L 150.47 181.91 C 149.32 182.17 148.59 183.32 148.85 184.48 C 149.11 185.63 150.26 186.36 151.42 186.10 Z M 152.65 185.81 L 153.63 185.50 C 154.76 185.15 155.39 183.96 155.04 182.83 C 154.69 181.70 153.49 181.06 152.36 181.41 L 151.39 181.72 C 150.26 182.07 149.62 183.27 149.97 184.40 C 150.32 185.52 151.52 186.16 152.65 185.81 Z M 153.76 185.45 L 154.68 185.10 C 155.79 184.68 156.34 183.44 155.92 182.34 C 155.49 181.24 154.26 180.69 153.16 181.11 L 152.23 181.47 C 151.13 181.89 150.58 183.12 151.00 184.22 C 151.42 185.32 152.66 185.88 153.76 185.45 Z M 154.79 185.05 L 155.71 184.64 C 156.79 184.16 157.27 182.90 156.80 181.83 C 156.32 180.75 155.06 180.27 153.98 180.75 L 153.06 181.16 C 151.98 181.64 151.50 182.89 151.97 183.97 C 152.45 185.04 153.71 185.53 154.79 185.05 Z M 155.80 184.59 L 156.71 184.14 C 157.76 183.61 158.19 182.34 157.66 181.29 C 157.14 180.24 155.86 179.81 154.81 180.33 L 153.90 180.79 C 152.85 181.32 152.42 182.59 152.95 183.64 C 153.47 184.69 154.75 185.12 155.80 184.59 Z M 156.78 184.09 L 157.68 183.60 C 158.70 183.04 159.08 181.75 158.51 180.72 C 157.95 179.70 156.66 179.32 155.63 179.89 L 154.74 180.38 C 153.72 180.94 153.34 182.23 153.91 183.26 C 154.47 184.28 155.76 184.66 156.78 184.09 Z M 157.74 183.56 L 158.60 183.05 C 159.60 182.45 159.93 181.15 159.33 180.15 C 158.73 179.15 157.43 178.82 156.43 179.42 L 155.57 179.93 C 154.57 180.53 154.24 181.83 154.84 182.83 C 155.44 183.83 156.74 184.16 157.74 183.56 Z M 158.65 183.01 L 159.49 182.47 C 160.47 181.84 160.75 180.54 160.12 179.56 C 159.49 178.58 158.19 178.29 157.21 178.92 L 156.37 179.46 C 155.39 180.09 155.11 181.39 155.74 182.37 C 156.37 183.35 157.67 183.64 158.65 183.01 Z M 159.55 182.42 L 160.42 181.82 C 161.37 181.16 161.61 179.85 160.94 178.89 C 160.28 177.94 158.97 177.70 158.02 178.36 L 157.15 178.97 C 156.19 179.63 155.96 180.94 156.62 181.90 C 157.28 182.85 158.59 183.09 159.55 182.42 Z M 160.48 181.77 L 161.29 181.16 C 162.22 180.46 162.40 179.14 161.70 178.22 C 161.00 177.29 159.69 177.11 158.76 177.81 L 157.95 178.42 C 157.03 179.12 156.84 180.43 157.54 181.36 C 158.24 182.28 159.55 182.47 160.48 181.77 Z M 161.35 181.10 L 162.11 180.48 C 163.01 179.74 163.14 178.42 162.41 177.53 C 161.67 176.64 160.35 176.51 159.46 177.24 L 158.70 177.86 C 157.80 178.60 157.67 179.92 158.41 180.81 C 159.14 181.70 160.46 181.83 161.35 181.10 Z M 162.17 180.42 L 162.90 179.78 C 163.76 179.01 163.84 177.69 163.07 176.83 C 162.31 175.96 160.99 175.89 160.12 176.65 L 159.40 177.30 C 158.54 178.06 158.46 179.38 159.23 180.25 C 159.99 181.11 161.31 181.19 162.17 180.42 Z M 162.95 179.72 L 163.65 179.05 C 164.48 178.25 164.51 176.94 163.71 176.10 C 162.92 175.27 161.60 175.24 160.77 176.04 L 160.07 176.71 C 159.24 177.51 159.21 178.82 160.01 179.66 C 160.80 180.49 162.12 180.52 162.95 179.72 Z M 163.70 179.00 L 164.37 178.31 C 165.17 177.49 165.16 176.17 164.34 175.37 C 163.51 174.57 162.20 174.58 161.40 175.40 L 160.72 176.09 C 159.92 176.91 159.94 178.23 160.76 179.03 C 161.58 179.84 162.89 179.82 163.70 179.00 Z M 164.41 178.26 L 165.07 177.55 C 165.84 176.71 165.79 175.39 164.95 174.62 C 164.10 173.84 162.79 173.89 162.01 174.74 L 161.36 175.45 C 160.58 176.29 160.63 177.61 161.48 178.38 C 162.32 179.16 163.63 179.11 164.41 178.26 Z M 165.10 177.51 L 165.75 176.76 C 166.50 175.90 166.41 174.59 165.55 173.84 C 164.69 173.09 163.38 173.18 162.63 174.04 L 161.98 174.78 C 161.23 175.64 161.32 176.95 162.18 177.70 C 163.04 178.46 164.35 178.37 165.10 177.51 Z M 165.78 176.72 L 166.42 175.95 C 167.15 175.07 167.03 173.77 166.15 173.04 C 165.28 172.31 163.97 172.43 163.24 173.31 L 162.60 174.08 C 161.87 174.95 161.99 176.26 162.87 176.99 C 163.74 177.72 165.05 177.60 165.78 176.72 Z M 166.45 175.91 L 167.08 175.12 C 167.79 174.23 167.64 172.93 166.75 172.22 C 165.86 171.51 164.56 171.65 163.85 172.54 L 163.22 173.34 C 162.51 174.23 162.65 175.53 163.54 176.24 C 164.44 176.95 165.74 176.81 166.45 175.91 Z M 167.10 175.08 L 167.73 174.26 C 168.42 173.36 168.25 172.06 167.35 171.37 C 166.45 170.68 165.15 170.85 164.46 171.76 L 163.83 172.58 C 163.14 173.48 163.31 174.78 164.21 175.47 C 165.12 176.16 166.41 175.99 167.10 175.08 Z M 167.75 174.23 L 168.35 173.42 C 169.03 172.51 168.83 171.22 167.92 170.54 C 167.00 169.87 165.72 170.06 165.04 170.98 L 164.44 171.79 C 163.77 172.70 163.96 173.99 164.87 174.66 C 165.79 175.34 167.08 175.14 167.75 174.23 Z M 168.37 173.39 L 168.95 172.57 C 169.61 171.64 169.39 170.36 168.47 169.70 C 167.54 169.05 166.26 169.26 165.60 170.19 L 165.02 171.01 C 164.36 171.93 164.58 173.21 165.50 173.87 C 166.43 174.53 167.71 174.31 168.37 173.39 Z M 168.97 172.53 L 169.54 171.70 C 170.18 170.76 169.94 169.49 169.00 168.85 C 168.06 168.21 166.79 168.45 166.15 169.39 L 165.58 170.22 C 164.95 171.16 165.19 172.44 166.12 173.07 C 167.06 173.71 168.34 173.47 168.97 172.53 Z M 169.57 171.65 L 170.11 170.81 C 170.73 169.86 170.45 168.59 169.50 167.98 C 168.56 167.36 167.29 167.64 166.67 168.59 L 166.13 169.43 C 165.51 170.38 165.79 171.65 166.74 172.26 C 167.68 172.88 168.95 172.60 169.57 171.65 Z M 170.14 170.76 L 170.66 169.91 C 171.25 168.94 170.94 167.68 169.98 167.10 C 169.01 166.51 167.75 166.82 167.17 167.78 L 166.65 168.63 C 166.06 169.60 166.37 170.86 167.33 171.44 C 168.30 172.03 169.55 171.72 170.14 170.76 Z M 170.69 169.85 L 171.17 168.99 C 171.73 168.01 171.38 166.76 170.40 166.21 C 169.42 165.65 168.18 166.00 167.62 166.98 L 167.14 167.84 C 166.58 168.82 166.93 170.06 167.91 170.62 C 168.89 171.17 170.13 170.83 170.69 169.85 Z M 171.21 168.92 L 171.68 168.02 C 172.19 167.02 171.80 165.79 170.80 165.27 C 169.81 164.76 168.58 165.15 168.06 166.14 L 167.59 167.05 C 167.07 168.05 167.46 169.28 168.46 169.79 C 169.46 170.31 170.69 169.92 171.21 168.92 Z M 171.71 167.95 L 172.14 167.03 C 172.62 166.01 172.18 164.80 171.17 164.32 C 170.15 163.84 168.94 164.28 168.46 165.30 L 168.03 166.22 C 167.55 167.23 167.98 168.45 169.00 168.92 C 170.02 169.40 171.23 168.97 171.71 167.95 Z M 172.17 166.96 L 172.56 166.03 C 173.00 165.00 172.52 163.81 171.49 163.37 C 170.46 162.93 169.26 163.41 168.82 164.44 L 168.43 165.37 C 167.99 166.40 168.47 167.59 169.50 168.03 C 170.54 168.47 171.73 167.99 172.17 166.96 Z M 172.59 165.97 L 172.94 165.04 C 173.35 164.00 172.82 162.82 171.78 162.42 C 170.73 162.02 169.56 162.54 169.16 163.58 L 168.80 164.51 C 168.40 165.55 168.92 166.73 169.96 167.13 C 171.01 167.53 172.18 167.01 172.59 165.97 Z M 172.96 164.98 L 173.29 164.05 C 173.66 163.00 173.10 161.84 172.04 161.47 C 170.98 161.10 169.83 161.66 169.46 162.72 L 169.14 163.64 C 168.77 164.70 169.32 165.86 170.38 166.23 C 171.44 166.59 172.59 166.04 172.96 164.98 Z M 173.30 164.00 L 173.60 163.06 C 173.94 162.00 173.35 160.86 172.28 160.52 C 171.22 160.18 170.08 160.77 169.74 161.84 L 169.44 162.77 C 169.11 163.84 169.70 164.97 170.76 165.31 C 171.83 165.65 172.96 165.06 173.30 164.00 Z M 173.61 163.01 L 173.89 162.05 C 174.20 160.98 173.58 159.86 172.51 159.55 C 171.44 159.24 170.32 159.85 170.01 160.93 L 169.73 161.89 C 169.42 162.96 170.03 164.08 171.11 164.39 C 172.18 164.70 173.30 164.09 173.61 163.01 Z M 173.90 162.00 L 174.16 161.03 C 174.44 159.95 173.79 158.85 172.72 158.57 C 171.64 158.28 170.53 158.93 170.25 160.01 L 169.99 160.98 C 169.71 162.06 170.36 163.16 171.44 163.44 C 172.52 163.73 173.62 163.08 173.90 162.00 Z M 174.17 160.98 L 174.40 160.01 C 174.65 158.92 173.98 157.84 172.89 157.58 C 171.81 157.33 170.72 158.00 170.47 159.09 L 170.24 160.06 C 169.98 161.14 170.66 162.23 171.74 162.49 C 172.83 162.74 173.91 162.07 174.17 160.98 Z M 174.41 159.96 L 174.61 158.98 C 174.84 157.89 174.14 156.82 173.05 156.59 C 171.95 156.37 170.89 157.07 170.66 158.16 L 170.46 159.14 C 170.23 160.23 170.93 161.30 172.02 161.52 C 173.11 161.75 174.18 161.05 174.41 159.96 Z M 174.62 158.93 L 174.80 157.95 C 175.00 156.85 174.27 155.80 173.17 155.60 C 172.08 155.40 171.03 156.13 170.83 157.23 L 170.65 158.21 C 170.45 159.31 171.18 160.36 172.27 160.55 C 173.37 160.75 174.42 160.03 174.62 158.93 Z M 174.80 157.90 L 174.96 156.89 C 175.13 155.79 174.38 154.76 173.28 154.59 C 172.18 154.42 171.15 155.18 170.98 156.28 L 170.82 157.28 C 170.65 158.38 171.40 159.41 172.50 159.58 C 173.60 159.75 174.63 159.00 174.80 157.90 Z M 174.97 156.84 L 175.10 155.82 C 175.24 154.72 174.46 153.71 173.36 153.56 C 172.25 153.42 171.24 154.20 171.10 155.30 L 170.97 156.32 C 170.82 157.43 171.60 158.44 172.71 158.58 C 173.81 158.73 174.83 157.95 174.97 156.84 Z M 175.11 155.78 L 175.22 154.77 C 175.33 153.66 174.53 152.66 173.42 152.54 C 172.32 152.42 171.32 153.23 171.20 154.34 L 171.09 155.35 C 170.97 156.46 171.78 157.45 172.89 157.57 C 173.99 157.69 174.99 156.89 175.11 155.78 Z M 175.22 154.73 L 175.31 153.73 C 175.40 152.62 174.58 151.64 173.47 151.54 C 172.36 151.44 171.38 152.27 171.28 153.38 L 171.20 154.38 C 171.10 155.49 171.92 156.47 173.03 156.56 C 174.15 156.66 175.13 155.84 175.22 154.73 Z M 175.31 153.69 L 175.38 152.71 C 175.46 151.60 174.61 150.64 173.50 150.56 C 172.39 150.48 171.42 151.32 171.34 152.44 L 171.28 153.41 C 171.20 154.53 172.04 155.49 173.16 155.57 C 174.27 155.65 175.24 154.80 175.31 153.69 Z M 175.38 152.68 L 175.43 151.71 C 175.49 150.60 174.63 149.64 173.52 149.59 C 172.40 149.53 171.45 150.39 171.39 151.50 L 171.34 152.47 C 171.28 153.59 172.14 154.54 173.26 154.60 C 174.37 154.66 175.33 153.80 175.38 152.68 Z M 175.44 151.67 L 175.47 150.60 C 175.51 149.48 174.63 148.54 173.51 148.51 C 172.39 148.47 171.45 149.35 171.42 150.47 L 171.38 151.54 C 171.35 152.66 172.23 153.60 173.35 153.64 C 174.47 153.67 175.41 152.79 175.44 151.67 Z M 175.48 150.52 L 175.47 149.50 C 175.47 148.38 174.55 147.47 173.43 147.48 C 172.30 147.49 171.40 148.40 171.40 149.53 L 171.41 150.55 C 171.42 151.67 172.33 152.58 173.46 152.57 C 174.58 152.57 175.49 151.65 175.48 150.52 Z M 175.48 149.39 L 175.42 148.41 C 175.35 147.29 174.38 146.43 173.25 146.50 C 172.13 146.57 171.27 147.54 171.34 148.67 L 171.40 149.64 C 171.47 150.77 172.44 151.62 173.57 151.55 C 174.69 151.48 175.55 150.51 175.48 149.39 Z M 175.41 148.26 L 175.28 147.32 C 175.12 146.20 174.09 145.42 172.97 145.58 C 171.84 145.73 171.06 146.77 171.22 147.89 L 171.35 148.82 C 171.50 149.94 172.54 150.72 173.66 150.57 C 174.78 150.41 175.56 149.38 175.41 148.26 Z M 175.25 147.12 L 175.02 146.18 C 174.75 145.08 173.64 144.40 172.54 144.67 C 171.44 144.93 170.76 146.04 171.02 147.15 L 171.25 148.09 C 171.52 149.19 172.63 149.87 173.73 149.60 C 174.83 149.34 175.51 148.23 175.25 147.12 Z M 174.96 145.98 L 174.63 145.04 C 174.26 143.97 173.08 143.41 172.00 143.79 C 170.93 144.17 170.37 145.35 170.75 146.42 L 171.08 147.35 C 171.46 148.42 172.64 148.99 173.71 148.61 C 174.78 148.23 175.34 147.05 174.96 145.98 Z M 174.57 144.87 L 174.15 143.97 C 173.68 142.93 172.45 142.48 171.41 142.95 C 170.38 143.43 169.92 144.66 170.40 145.69 L 170.81 146.60 C 171.29 147.63 172.52 148.09 173.56 147.61 C 174.59 147.13 175.05 145.90 174.57 144.87 Z M 174.09 143.82 L 173.60 142.94 C 173.05 141.94 171.78 141.58 170.78 142.14 C 169.78 142.69 169.42 143.95 169.98 144.95 L 170.46 145.83 C 171.02 146.84 172.28 147.20 173.28 146.64 C 174.28 146.09 174.64 144.83 174.09 143.82 Z M 173.54 142.84 L 173.00 141.99 C 172.39 141.02 171.11 140.73 170.14 141.34 C 169.17 141.96 168.88 143.24 169.49 144.21 L 170.03 145.06 C 170.65 146.03 171.93 146.32 172.90 145.70 C 173.87 145.09 174.16 143.81 173.54 142.84 Z M 172.95 141.91 L 172.38 141.09 C 171.72 140.15 170.43 139.92 169.48 140.58 C 168.54 141.24 168.32 142.53 168.97 143.47 L 169.55 144.29 C 170.21 145.23 171.50 145.46 172.44 144.80 C 173.38 144.14 173.61 142.85 172.95 141.91 Z M 172.32 141.01 L 171.71 140.21 C 171.01 139.30 169.70 139.14 168.80 139.84 C 167.89 140.54 167.72 141.84 168.42 142.75 L 169.03 143.55 C 169.73 144.46 171.04 144.63 171.94 143.93 C 172.85 143.23 173.02 141.92 172.32 141.01 Z M 171.65 140.14 L 171.00 139.37 C 170.26 138.50 168.95 138.39 168.07 139.13 C 167.19 139.87 167.09 141.18 167.83 142.06 L 168.48 142.83 C 169.22 143.70 170.53 143.81 171.41 143.07 C 172.28 142.33 172.39 141.02 171.65 140.14 Z M 170.93 139.30 L 170.25 138.57 C 169.47 137.73 168.15 137.69 167.32 138.47 C 166.48 139.25 166.43 140.57 167.22 141.41 L 167.89 142.14 C 168.68 142.97 169.99 143.02 170.83 142.24 C 171.67 141.45 171.72 140.14 170.93 139.30 Z M 170.18 138.49 L 169.46 137.80 C 168.63 137.00 167.32 137.03 166.52 137.85 C 165.72 138.68 165.75 139.99 166.57 140.79 L 167.29 141.48 C 168.12 142.28 169.43 142.26 170.23 141.43 C 171.03 140.61 171.00 139.29 170.18 138.49 Z M 169.38 137.73 L 168.64 137.08 C 167.78 136.33 166.47 136.41 165.71 137.27 C 164.96 138.13 165.04 139.44 165.90 140.20 L 166.65 140.85 C 167.51 141.61 168.82 141.52 169.58 140.66 C 170.33 139.80 170.24 138.49 169.38 137.73 Z M 168.57 137.03 L 167.79 136.40 C 166.90 135.69 165.60 135.83 164.88 136.72 C 164.16 137.61 164.30 138.91 165.20 139.63 L 165.97 140.25 C 166.86 140.97 168.17 140.83 168.88 139.94 C 169.60 139.05 169.46 137.74 168.57 137.03 Z M 167.73 136.36 L 166.93 135.76 C 166.01 135.07 164.72 135.26 164.03 136.17 C 163.35 137.09 163.53 138.38 164.45 139.07 L 165.26 139.67 C 166.17 140.36 167.47 140.17 168.15 139.25 C 168.83 138.34 168.65 137.04 167.73 136.36 Z M 166.88 135.73 L 166.13 135.20 C 165.20 134.54 163.91 134.76 163.26 135.69 C 162.60 136.62 162.82 137.91 163.75 138.57 L 164.50 139.09 C 165.43 139.75 166.71 139.53 167.37 138.60 C 168.03 137.67 167.81 136.39 166.88 135.73 Z M 166.08 135.18 L 165.32 134.67 C 164.38 134.04 163.10 134.29 162.47 135.22 C 161.84 136.16 162.09 137.44 163.03 138.07 L 163.79 138.58 C 164.73 139.21 166.01 138.96 166.64 138.03 C 167.27 137.09 167.02 135.81 166.08 135.18 Z M 165.27 134.65 L 164.45 134.13 C 163.51 133.52 162.25 133.80 161.64 134.74 C 161.03 135.69 161.31 136.95 162.26 137.56 L 163.07 138.08 C 164.02 138.69 165.28 138.41 165.89 137.47 C 166.49 136.52 166.22 135.26 165.27 134.65 Z M 164.41 134.12 L 163.52 133.58 C 162.57 132.99 161.32 133.29 160.74 134.24 C 160.16 135.19 160.46 136.44 161.41 137.02 L 162.30 137.57 C 163.25 138.15 164.49 137.85 165.08 136.90 C 165.66 135.95 165.36 134.70 164.41 134.12 Z M 163.48 133.57 L 162.51 133.00 C 161.56 132.43 160.32 132.75 159.76 133.71 C 159.20 134.66 159.52 135.90 160.47 136.46 L 161.45 137.03 C 162.40 137.59 163.63 137.27 164.20 136.32 C 164.76 135.36 164.44 134.13 163.48 133.57 Z M 162.48 133.00 L 161.61 132.50 C 160.66 131.96 159.44 132.29 158.89 133.25 C 158.35 134.20 158.68 135.42 159.64 135.96 L 160.51 136.46 C 161.46 137.00 162.68 136.67 163.22 135.71 C 163.77 134.76 163.44 133.54 162.48 133.00 Z M 161.58 132.51 L 160.70 132.01 C 159.74 131.48 158.54 131.83 158.01 132.78 C 157.48 133.73 157.83 134.93 158.78 135.46 L 159.67 135.96 C 160.62 136.49 161.82 136.14 162.35 135.19 C 162.88 134.24 162.54 133.04 161.58 132.51 Z M 160.67 132.02 L 159.75 131.53 C 158.81 131.01 157.62 131.37 157.11 132.31 C 156.59 133.26 156.95 134.45 157.89 134.96 L 158.81 135.46 C 159.76 135.97 160.94 135.62 161.45 134.67 C 161.97 133.72 161.62 132.54 160.67 132.02 Z M 159.73 131.53 L 158.81 131.05 C 157.87 130.55 156.70 130.91 156.20 131.86 C 155.70 132.80 156.06 133.97 157.01 134.47 L 157.92 134.95 C 158.87 135.45 160.04 135.09 160.53 134.15 C 161.03 133.20 160.67 132.03 159.73 131.53 Z M 158.78 131.06 L 157.89 130.60 C 156.95 130.12 155.79 130.49 155.31 131.43 C 154.83 132.37 155.20 133.52 156.14 134.01 L 157.04 134.47 C 157.98 134.95 159.13 134.58 159.61 133.63 C 160.10 132.69 159.72 131.54 158.78 131.06 Z M 157.85 130.60 L 157.00 130.18 C 156.06 129.72 154.92 130.10 154.46 131.04 C 153.99 131.98 154.38 133.11 155.32 133.58 L 156.17 134.00 C 157.11 134.46 158.25 134.08 158.71 133.14 C 159.18 132.20 158.79 131.07 157.85 130.60 Z M 156.95 130.19 L 155.93 129.71 C 155.00 129.28 153.89 129.68 153.45 130.61 C 153.02 131.55 153.42 132.66 154.35 133.09 L 155.37 133.57 C 156.30 134.00 157.41 133.60 157.85 132.67 C 158.28 131.74 157.88 130.63 156.95 130.19 Z M 155.86 129.73 L 154.85 129.30 C 153.93 128.90 152.86 129.33 152.47 130.25 C 152.07 131.18 152.50 132.25 153.42 132.64 L 154.42 133.07 C 155.34 133.47 156.41 133.04 156.81 132.12 C 157.21 131.20 156.78 130.13 155.86 129.73 Z M 154.77 129.32 L 153.86 128.97 C 152.95 128.62 151.92 129.08 151.57 129.99 C 151.23 130.90 151.68 131.93 152.59 132.27 L 153.50 132.62 C 154.42 132.97 155.44 132.51 155.79 131.60 C 156.14 130.69 155.68 129.67 154.77 129.32 Z M 153.76 128.99 L 152.92 128.71 C 152.02 128.42 151.05 128.91 150.75 129.81 C 150.45 130.71 150.94 131.68 151.85 131.98 L 152.69 132.25 C 153.59 132.55 154.56 132.06 154.86 131.16 C 155.15 130.26 154.66 129.29 153.76 128.99 Z M 152.82 128.73 L 151.94 128.49 C 151.05 128.25 150.13 128.77 149.89 129.67 C 149.65 130.56 150.17 131.48 151.06 131.72 L 151.94 131.96 C 152.83 132.20 153.75 131.68 154.00 130.79 C 154.24 129.89 153.71 128.97 152.82 128.73 Z M 151.85 128.50 L 150.85 128.28 C 149.96 128.09 149.09 128.65 148.89 129.54 C 148.70 130.43 149.27 131.31 150.16 131.50 L 151.16 131.72 C 152.05 131.91 152.92 131.34 153.11 130.45 C 153.30 129.56 152.74 128.69 151.85 128.50 Z M 150.78 128.28 L 149.80 128.11 C 148.92 127.96 148.07 128.56 147.92 129.45 C 147.77 130.34 148.37 131.18 149.26 131.33 L 150.23 131.50 C 151.12 131.65 151.96 131.05 152.11 130.16 C 152.27 129.28 151.67 128.43 150.78 128.28 Z M 149.77 128.12 L 148.80 127.98 C 147.92 127.85 147.10 128.46 146.97 129.35 C 146.84 130.23 147.45 131.05 148.33 131.18 L 149.29 131.33 C 150.18 131.46 151.00 130.84 151.13 129.96 C 151.26 129.08 150.65 128.25 149.77 128.12 Z"
      fill="black"
      fill-rule="nonzero" /></svg>