<svg xmlns="http://www.w3.org/2000/svg" width="300" height="300" viewBox="0 0 300 300">
<path d="M 137.16 119.34 L 138.13 119.28 C 139.45 119.19 140.44 118.06 140.36 116.74 C 140.27 115.43 139.13 114.43 137.82 114.52 L 136.84 114.58 C 135.53 114.67 134.53 115.81 134.62 117.12 C 134.71 118.43 135.84 119.43 137.16 119.34 Z M 138.13 119.28 L 139.11 119.22 C 140.42 119.14 141.42 118.00 141.34 116.69 C 141.26 115.37 140.13 114.37 138.81 114.45 L 137.83 114.52 C 136.51 114.60 135.51 115.73 135.59 117.05 C 135.68 118.36 136.81 119.36 138.13 119.28 Z M 139.09 119.22 L 140.09 119.16 C 141.41 119.09 142.41 117.96 142.34 116.65 C 142.26 115.33 141.14 114.32 139.82 114.40 L 138.83 114.45 C 137.51 114.53 136.50 115.65 136.58 116.97 C 136.65 118.29 137.78 119.29 139.09 119.22 Z M 140.07 119.17 L 141.08 119.12 C 142.40 119.06 143.41 117.94 143.35 116.62 C 143.29 115.31 142.17 114.29 140.86 114.35 L 139.84 114.40 C 138.53 114.46 137.51 115.57 137.57 116.89 C 137.63 118.21 138.75 119.23 140.07 119.17 Z M 141.05 119.12 L 142.08 119.08 C 143.40 119.04 144.43 117.93 144.38 116.62 C 144.34 115.30 143.23 114.27 141.92 114.31 L 140.89 114.35 C 139.57 114.39 138.54 115.50 138.58 116.82 C 138.63 118.13 139.73 119.16 141.05 119.12 Z M 142.04 119.07 L 143.08 119.05 C 144.39 119.03 145.43 117.94 145.41 116.63 C 145.38 115.32 144.30 114.28 142.98 114.30 L 141.95 114.32 C 140.64 114.35 139.60 115.43 139.62 116.74 C 139.65 118.06 140.73 119.10 142.04 119.07 Z M 143.04 119.04 L 144.07 119.04 C 145.37 119.04 146.43 117.98 146.43 116.67 C 146.42 115.37 145.36 114.31 144.06 114.31 L 143.03 114.31 C 141.72 114.32 140.67 115.38 140.67 116.68 C 140.67 117.99 141.73 119.04 143.04 119.04 Z M 144.02 119.03 L 145.02 119.05 C 146.32 119.07 147.39 118.04 147.42 116.74 C 147.45 115.45 146.42 114.37 145.12 114.35 L 144.11 114.33 C 142.81 114.30 141.74 115.33 141.71 116.63 C 141.69 117.93 142.72 119.00 144.02 119.03 Z M 144.96 119.03 L 145.92 119.08 C 147.21 119.14 148.31 118.15 148.37 116.86 C 148.43 115.57 147.44 114.47 146.15 114.41 L 145.19 114.36 C 143.90 114.30 142.80 115.29 142.74 116.58 C 142.68 117.87 143.67 118.97 144.96 119.03 Z M 145.83 119.06 L 146.84 119.15 C 148.11 119.26 149.24 118.32 149.36 117.04 C 149.47 115.76 148.53 114.64 147.25 114.52 L 146.24 114.43 C 144.97 114.32 143.84 115.26 143.72 116.54 C 143.61 117.81 144.55 118.94 145.83 119.06 Z M 146.71 119.12 L 147.75 119.27 C 149.01 119.46 150.19 118.59 150.37 117.33 C 150.56 116.06 149.69 114.89 148.43 114.70 L 147.38 114.55 C 146.12 114.36 144.95 115.24 144.76 116.50 C 144.57 117.76 145.45 118.93 146.71 119.12 Z M 147.61 119.23 L 148.56 119.44 C 149.80 119.70 151.02 118.91 151.29 117.68 C 151.56 116.44 150.77 115.22 149.53 114.95 L 148.57 114.74 C 147.33 114.48 146.11 115.27 145.85 116.51 C 145.58 117.75 146.37 118.97 147.61 119.23 Z M 148.42 119.39 L 149.32 119.64 C 150.53 119.99 151.79 119.28 152.14 118.07 C 152.48 116.86 151.77 115.59 150.56 115.25 L 149.67 115.00 C 148.45 114.66 147.19 115.36 146.85 116.57 C 146.51 117.78 147.21 119.05 148.42 119.39 Z M 149.19 119.59 L 150.12 119.91 C 151.31 120.33 152.60 119.70 153.01 118.52 C 153.43 117.33 152.80 116.04 151.62 115.63 L 150.69 115.30 C 149.50 114.89 148.21 115.52 147.80 116.70 C 147.38 117.89 148.01 119.18 149.19 119.59 Z M 150.01 119.86 L 150.94 120.24 C 152.10 120.72 153.42 120.16 153.89 119.01 C 154.37 117.85 153.81 116.53 152.66 116.06 L 151.73 115.68 C 150.57 115.20 149.25 115.76 148.78 116.91 C 148.30 118.07 148.86 119.39 150.01 119.86 Z M 150.85 120.19 L 151.75 120.61 C 152.87 121.14 154.22 120.65 154.74 119.53 C 155.27 118.40 154.78 117.06 153.65 116.53 L 152.75 116.11 C 151.63 115.58 150.28 116.07 149.76 117.20 C 149.23 118.33 149.72 119.67 150.85 120.19 Z M 151.67 120.57 L 152.55 121.03 C 153.65 121.60 155.01 121.17 155.58 120.07 C 156.15 118.97 155.72 117.61 154.62 117.04 L 153.74 116.58 C 152.64 116.01 151.28 116.44 150.71 117.54 C 150.14 118.64 150.56 119.99 151.67 120.57 Z M 152.47 120.98 L 153.34 121.48 C 154.41 122.09 155.78 121.72 156.40 120.65 C 157.02 119.58 156.65 118.21 155.57 117.59 L 154.70 117.09 C 153.63 116.47 152.26 116.84 151.64 117.91 C 151.02 118.99 151.39 120.36 152.47 120.98 Z M 153.24 121.41 L 154.07 121.95 C 155.11 122.63 156.50 122.33 157.17 121.29 C 157.84 120.26 157.55 118.87 156.51 118.20 L 155.67 117.65 C 154.64 116.98 153.25 117.28 152.58 118.31 C 151.91 119.35 152.20 120.74 153.24 121.41 Z M 153.96 121.87 L 154.75 122.46 C 155.74 123.19 157.14 122.99 157.88 122.00 C 158.62 121.01 158.41 119.61 157.42 118.87 L 156.63 118.28 C 155.64 117.54 154.23 117.75 153.50 118.74 C 152.76 119.73 152.97 121.13 153.96 121.87 Z M 154.62 122.35 L 155.33 122.97 C 156.26 123.78 157.67 123.68 158.48 122.75 C 159.29 121.82 159.20 120.41 158.27 119.60 L 157.56 118.98 C 156.63 118.17 155.21 118.26 154.40 119.19 C 153.59 120.12 153.69 121.54 154.62 122.35 Z M 155.15 122.80 L 155.81 123.52 C 156.64 124.42 158.06 124.48 158.97 123.65 C 159.88 122.81 159.94 121.40 159.10 120.49 L 158.44 119.77 C 157.61 118.86 156.19 118.80 155.28 119.64 C 154.37 120.47 154.31 121.89 155.15 122.80 Z M 155.62 123.28 L 156.22 124.14 C 156.92 125.15 158.32 125.40 159.33 124.69 C 160.35 123.99 160.60 122.59 159.89 121.58 L 159.29 120.72 C 158.59 119.71 157.19 119.46 156.18 120.17 C 155.16 120.87 154.91 122.27 155.62 123.28 Z M 156.07 123.89 L 156.51 124.73 C 157.08 125.83 158.43 126.26 159.53 125.68 C 160.62 125.11 161.05 123.76 160.48 122.66 L 160.04 121.82 C 159.47 120.73 158.11 120.30 157.02 120.87 C 155.92 121.45 155.50 122.80 156.07 123.89 Z M 156.41 124.53 L 156.75 125.38 C 157.21 126.53 158.52 127.09 159.67 126.63 C 160.81 126.17 161.37 124.87 160.91 123.72 L 160.57 122.87 C 160.11 121.72 158.81 121.16 157.66 121.62 C 156.51 122.08 155.95 123.38 156.41 124.53 Z M 156.69 125.21 L 156.98 126.16 C 157.35 127.34 158.61 128.00 159.79 127.64 C 160.97 127.27 161.63 126.02 161.27 124.83 L 160.97 123.89 C 160.61 122.71 159.35 122.04 158.17 122.41 C 156.99 122.78 156.32 124.03 156.69 125.21 Z M 156.94 126.00 L 157.18 127.03 C 157.46 128.24 158.66 128.99 159.87 128.71 C 161.08 128.43 161.83 127.22 161.55 126.02 L 161.31 124.99 C 161.03 123.78 159.82 123.03 158.62 123.31 C 157.41 123.59 156.66 124.80 156.94 126.00 Z M 157.15 126.89 L 157.33 127.99 C 157.53 129.22 158.68 130.05 159.91 129.85 C 161.13 129.65 161.96 128.49 161.76 127.27 L 161.58 126.16 C 161.38 124.94 160.23 124.11 159.00 124.31 C 157.78 124.51 156.95 125.66 157.15 126.89 Z M 157.31 127.87 L 157.41 128.85 C 157.55 130.08 158.65 130.98 159.88 130.84 C 161.12 130.71 162.01 129.61 161.88 128.37 L 161.78 127.39 C 161.65 126.16 160.54 125.27 159.31 125.40 C 158.07 125.53 157.18 126.63 157.31 127.87 Z M 157.41 128.74 L 157.47 129.75 C 157.54 130.99 158.60 131.93 159.84 131.86 C 161.08 131.78 162.02 130.72 161.95 129.48 L 161.89 128.48 C 161.82 127.24 160.75 126.30 159.52 126.37 C 158.28 126.44 157.33 127.51 157.41 128.74 Z M 157.46 129.65 L 157.48 130.67 C 157.50 131.91 158.52 132.90 159.76 132.88 C 161.00 132.86 161.99 131.84 161.97 130.60 L 161.95 129.58 C 161.93 128.34 160.91 127.35 159.67 127.37 C 158.43 127.39 157.44 128.41 157.46 129.65 Z M 157.48 130.57 L 157.45 131.59 C 157.42 132.83 158.40 133.86 159.64 133.89 C 160.88 133.93 161.91 132.95 161.94 131.71 L 161.97 130.69 C 162.00 129.45 161.02 128.42 159.78 128.39 C 158.54 128.36 157.51 129.33 157.48 130.57 Z M 157.46 131.49 L 157.39 132.49 C 157.30 133.72 158.23 134.80 159.47 134.89 C 160.70 134.97 161.78 134.04 161.87 132.80 L 161.94 131.81 C 162.02 130.57 161.09 129.50 159.85 129.41 C 158.62 129.32 157.54 130.25 157.46 131.49 Z M 157.40 132.38 L 157.28 133.37 C 157.13 134.60 158.01 135.72 159.24 135.87 C 160.47 136.01 161.59 135.14 161.74 133.90 L 161.85 132.91 C 162.00 131.68 161.12 130.56 159.89 130.42 C 158.66 130.27 157.54 131.15 157.40 132.38 Z M 157.30 133.25 L 157.12 134.27 C 156.91 135.49 157.72 136.65 158.94 136.86 C 160.16 137.08 161.32 136.26 161.54 135.04 L 161.72 134.03 C 161.93 132.81 161.12 131.64 159.90 131.43 C 158.68 131.22 157.51 132.03 157.30 133.25 Z M 157.15 134.14 L 156.92 135.11 C 156.63 136.31 157.38 137.52 158.58 137.81 C 159.78 138.09 160.99 137.35 161.28 136.15 L 161.51 135.17 C 161.79 133.97 161.05 132.76 159.85 132.48 C 158.64 132.19 157.44 132.94 157.15 134.14 Z M 156.96 134.99 L 156.67 135.93 C 156.32 137.11 156.99 138.36 158.17 138.71 C 159.35 139.07 160.60 138.40 160.96 137.21 L 161.24 136.27 C 161.59 135.09 160.92 133.84 159.74 133.49 C 158.56 133.13 157.31 133.80 156.96 134.99 Z M 156.72 135.81 L 156.38 136.73 C 155.96 137.89 156.56 139.17 157.72 139.59 C 158.88 140.01 160.16 139.41 160.58 138.25 L 160.91 137.33 C 161.33 136.17 160.73 134.89 159.57 134.47 C 158.41 134.05 157.13 134.65 156.72 135.81 Z M 156.43 136.63 L 156.05 137.53 C 155.57 138.67 156.11 139.98 157.24 140.45 C 158.38 140.93 159.69 140.39 160.16 139.25 L 160.54 138.35 C 161.01 137.21 160.48 135.91 159.34 135.43 C 158.21 134.96 156.90 135.49 156.43 136.63 Z M 156.09 137.45 L 155.67 138.33 C 155.15 139.45 155.63 140.77 156.75 141.29 C 157.86 141.82 159.18 141.34 159.70 140.22 L 160.12 139.34 C 160.64 138.22 160.16 136.90 159.05 136.38 C 157.94 135.86 156.61 136.34 156.09 137.45 Z M 155.71 138.27 L 155.26 139.15 C 154.70 140.24 155.13 141.58 156.23 142.14 C 157.32 142.70 158.66 142.27 159.21 141.17 L 159.67 140.29 C 160.22 139.20 159.79 137.86 158.70 137.30 C 157.61 136.74 156.27 137.18 155.71 138.27 Z M 155.29 139.10 L 154.81 139.98 C 154.22 141.05 154.62 142.40 155.69 142.99 C 156.76 143.57 158.11 143.18 158.70 142.11 L 159.18 141.23 C 159.77 140.15 159.38 138.81 158.30 138.22 C 157.23 137.63 155.88 138.02 155.29 139.10 Z M 154.84 139.94 L 154.33 140.82 C 153.72 141.87 154.08 143.22 155.14 143.84 C 156.20 144.45 157.55 144.08 158.16 143.03 L 158.67 142.15 C 159.28 141.09 158.92 139.74 157.86 139.13 C 156.80 138.52 155.45 138.88 154.84 139.94 Z M 154.36 140.78 L 153.83 141.66 C 153.20 142.70 153.54 144.06 154.59 144.68 C 155.63 145.31 156.99 144.97 157.61 143.93 L 158.14 143.06 C 158.77 142.01 158.43 140.66 157.38 140.03 C 156.34 139.40 154.98 139.74 154.36 140.78 Z M 153.85 141.63 L 153.35 142.44 C 152.71 143.48 153.03 144.83 154.06 145.47 C 155.09 146.11 156.45 145.80 157.09 144.76 L 157.59 143.95 C 158.24 142.92 157.92 141.56 156.88 140.92 C 155.85 140.28 154.49 140.60 153.85 141.63 Z M 153.38 142.41 L 152.85 143.22 C 152.19 144.24 152.49 145.60 153.51 146.26 C 154.53 146.92 155.89 146.62 156.55 145.60 L 157.07 144.80 C 157.73 143.78 157.44 142.42 156.42 141.76 C 155.40 141.10 154.03 141.39 153.38 142.41 Z M 152.89 143.17 L 152.33 143.98 C 151.65 144.98 151.91 146.35 152.91 147.03 C 153.91 147.72 155.28 147.46 155.96 146.46 L 156.51 145.65 C 157.20 144.65 156.94 143.28 155.94 142.60 C 154.94 141.91 153.57 142.17 152.89 143.17 Z M 152.37 143.93 L 151.78 144.74 C 151.07 145.72 151.28 147.09 152.26 147.81 C 153.24 148.52 154.61 148.31 155.32 147.33 L 155.92 146.51 C 156.63 145.53 156.42 144.16 155.44 143.45 C 154.46 142.73 153.09 142.95 152.37 143.93 Z M 151.83 144.68 L 151.18 145.51 C 150.44 146.46 150.60 147.84 151.55 148.58 C 152.51 149.33 153.88 149.16 154.63 148.21 L 155.28 147.39 C 156.02 146.43 155.86 145.06 154.90 144.31 C 153.95 143.56 152.58 143.73 151.83 144.68 Z M 151.24 145.45 L 150.56 146.24 C 149.78 147.16 149.90 148.54 150.82 149.32 C 151.75 150.10 153.13 149.99 153.91 149.06 L 154.58 148.27 C 155.36 147.35 155.24 145.97 154.32 145.19 C 153.40 144.41 152.02 144.52 151.24 145.45 Z M 150.61 146.19 L 149.94 146.93 C 149.13 147.82 149.20 149.20 150.10 150.01 C 151.00 150.82 152.38 150.75 153.19 149.86 L 153.86 149.12 C 154.67 148.22 154.60 146.84 153.70 146.03 C 152.81 145.22 151.42 145.29 150.61 146.19 Z M 149.99 146.88 L 149.28 147.62 C 148.45 148.49 148.48 149.87 149.35 150.71 C 150.22 151.54 151.60 151.51 152.44 150.64 L 153.14 149.90 C 153.98 149.03 153.95 147.65 153.08 146.81 C 152.21 145.98 150.82 146.01 149.99 146.88 Z M 149.33 147.58 L 148.60 148.30 C 147.74 149.15 147.73 150.53 148.58 151.39 C 149.43 152.24 150.81 152.25 151.67 151.40 L 152.40 150.68 C 153.26 149.83 153.26 148.45 152.41 147.59 C 151.57 146.73 150.18 146.73 149.33 147.58 Z M 148.64 148.26 L 147.90 148.95 C 147.02 149.78 146.97 151.16 147.80 152.04 C 148.63 152.92 150.01 152.96 150.89 152.14 L 151.63 151.44 C 152.51 150.61 152.55 149.23 151.72 148.35 C 150.90 147.48 149.52 147.43 148.64 148.26 Z M 147.94 148.92 L 147.20 149.58 C 146.30 150.38 146.22 151.76 147.02 152.66 C 147.82 153.56 149.20 153.64 150.10 152.84 L 150.84 152.18 C 151.74 151.37 151.82 149.99 151.02 149.09 C 150.22 148.19 148.84 148.12 147.94 148.92 Z M 147.24 149.54 L 146.51 150.16 C 145.59 150.93 145.47 152.31 146.24 153.23 C 147.02 154.15 148.40 154.27 149.32 153.49 L 150.05 152.88 C 150.97 152.10 151.09 150.73 150.32 149.80 C 149.54 148.88 148.17 148.76 147.24 149.54 Z M 146.57 150.11 L 145.69 150.79 C 144.74 151.53 144.58 152.91 145.32 153.86 C 146.06 154.81 147.43 154.97 148.38 154.23 L 149.26 153.54 C 150.21 152.80 150.38 151.43 149.63 150.48 C 148.89 149.53 147.52 149.36 146.57 150.11 Z M 145.77 150.73 L 144.92 151.34 C 143.93 152.04 143.71 153.41 144.41 154.39 C 145.11 155.37 146.48 155.60 147.46 154.90 L 148.31 154.29 C 149.29 153.59 149.52 152.22 148.82 151.24 C 148.11 150.26 146.75 150.03 145.77 150.73 Z M 145.00 151.28 L 144.17 151.81 C 143.15 152.47 142.86 153.83 143.51 154.84 C 144.17 155.86 145.53 156.15 146.55 155.50 L 147.38 154.96 C 148.39 154.30 148.69 152.95 148.03 151.93 C 147.37 150.91 146.02 150.62 145.00 151.28 Z M 144.26 151.75 L 143.44 152.23 C 142.39 152.83 142.03 154.18 142.63 155.23 C 143.24 156.28 144.59 156.64 145.64 156.03 L 146.46 155.56 C 147.51 154.95 147.87 153.61 147.26 152.55 C 146.65 151.50 145.31 151.14 144.26 151.75 Z M 143.53 152.17 L 142.71 152.59 C 141.63 153.14 141.21 154.47 141.76 155.55 C 142.32 156.63 143.64 157.06 144.72 156.51 L 145.54 156.09 C 146.62 155.53 147.05 154.21 146.50 153.12 C 145.94 152.04 144.61 151.61 143.53 152.17 Z M 142.81 152.53 L 141.89 152.95 C 140.78 153.45 140.29 154.75 140.79 155.87 C 141.29 156.98 142.59 157.47 143.71 156.97 L 144.63 156.56 C 145.74 156.06 146.23 154.75 145.73 153.64 C 145.23 152.53 143.93 152.03 142.81 152.53 Z M 141.99 152.90 L 141.05 153.27 C 139.91 153.71 139.35 155.00 139.80 156.14 C 140.24 157.28 141.53 157.84 142.67 157.39 L 143.61 157.02 C 144.75 156.58 145.31 155.29 144.86 154.15 C 144.42 153.01 143.13 152.45 141.99 152.90 Z M 141.14 153.23 L 140.19 153.55 C 139.03 153.95 138.41 155.22 138.81 156.38 C 139.21 157.54 140.48 158.16 141.64 157.76 L 142.58 157.43 C 143.74 157.03 144.36 155.77 143.96 154.61 C 143.56 153.45 142.30 152.83 141.14 153.23 Z M 140.26 153.52 L 139.32 153.81 C 138.14 154.17 137.48 155.42 137.84 156.59 C 138.20 157.77 139.45 158.43 140.62 158.07 L 141.57 157.79 C 142.74 157.43 143.41 156.18 143.05 155.00 C 142.69 153.82 141.44 153.16 140.26 153.52 Z M 139.38 153.78 L 138.42 154.05 C 137.23 154.38 136.53 155.61 136.86 156.80 C 137.19 157.99 138.42 158.69 139.61 158.36 L 140.57 158.10 C 141.76 157.77 142.46 156.54 142.13 155.34 C 141.80 154.15 140.57 153.46 139.38 153.78 Z M 138.46 154.03 L 137.47 154.28 C 136.27 154.59 135.54 155.81 135.85 157.01 C 136.15 158.21 137.37 158.94 138.58 158.63 L 139.57 158.38 C 140.77 158.08 141.50 156.86 141.19 155.65 C 140.89 154.45 139.67 153.73 138.46 154.03 Z M 137.52 154.26 L 136.54 154.49 C 135.32 154.77 134.57 155.98 134.85 157.19 C 135.13 158.40 136.34 159.16 137.55 158.88 L 138.53 158.65 C 139.74 158.37 140.50 157.17 140.22 155.95 C 139.94 154.74 138.73 153.98 137.52 154.26 Z M 136.59 154.47 L 135.62 154.67 C 134.39 154.92 133.61 156.12 133.86 157.34 C 134.11 158.56 135.31 159.35 136.53 159.10 L 137.50 158.90 C 138.72 158.65 139.51 157.45 139.26 156.23 C 139.00 155.00 137.81 154.22 136.59 154.47 Z M 135.67 154.65 L 134.71 154.83 C 133.48 155.05 132.66 156.23 132.88 157.47 C 133.11 158.70 134.29 159.52 135.52 159.29 L 136.48 159.12 C 137.72 158.89 138.53 157.71 138.31 156.48 C 138.08 155.24 136.90 154.43 135.67 154.65 Z M 134.76 154.81 L 133.75 154.97 C 132.51 155.17 131.66 156.33 131.85 157.57 C 132.05 158.82 133.21 159.66 134.46 159.47 L 135.47 159.31 C 136.71 159.11 137.56 157.95 137.37 156.71 C 137.17 155.46 136.00 154.61 134.76 154.81 Z M 133.81 154.95 L 132.81 155.08 C 131.56 155.24 130.68 156.39 130.84 157.64 C 131.00 158.89 132.15 159.78 133.40 159.61 L 134.40 159.49 C 135.65 159.32 136.53 158.18 136.37 156.92 C 136.21 155.67 135.06 154.79 133.81 154.95 Z M 132.88 155.07 L 131.89 155.16 C 130.63 155.29 129.71 156.42 129.84 157.68 C 129.97 158.94 131.09 159.86 132.35 159.73 L 133.34 159.63 C 134.60 159.50 135.52 158.38 135.39 157.12 C 135.26 155.86 134.14 154.94 132.88 155.07 Z M 131.96 155.15 L 130.91 155.22 C 129.64 155.31 128.68 156.41 128.77 157.68 C 128.86 158.95 129.96 159.91 131.23 159.82 L 132.28 159.74 C 133.55 159.66 134.51 158.56 134.42 157.29 C 134.33 156.02 133.23 155.06 131.96 155.15 Z M 131.01 155.21 L 129.69 155.24 C 128.42 155.27 127.41 156.33 127.44 157.60 C 127.47 158.88 128.52 159.89 129.80 159.86 L 131.12 159.83 C 132.40 159.80 133.41 158.74 133.38 157.47 C 133.35 156.19 132.29 155.18 131.01 155.21 Z M 129.99 155.25 L 129.17 155.16 C 127.89 155.02 126.75 155.94 126.61 157.22 C 126.48 158.49 127.40 159.63 128.67 159.77 L 129.50 159.86 C 130.77 159.99 131.92 159.07 132.05 157.80 C 132.19 156.53 131.27 155.38 129.99 155.25 Z M 131.21 157.87 L 131.25 157.62 C 131.48 156.36 130.64 155.15 129.37 154.93 C 128.11 154.70 126.90 155.54 126.68 156.80 L 126.63 157.05 C 126.41 158.32 127.25 159.52 128.51 159.75 C 129.77 159.98 130.98 159.14 131.21 157.87 Z M 129.87 159.35 L 130.75 158.98 C 131.93 158.48 132.48 157.11 131.98 155.93 C 131.48 154.75 130.11 154.20 128.93 154.70 L 128.05 155.07 C 126.87 155.58 126.32 156.94 126.82 158.12 C 127.33 159.30 128.69 159.86 129.87 159.35 Z M 130.51 159.07 L 131.80 158.68 C 133.03 158.31 133.72 157.01 133.35 155.78 C 132.98 154.55 131.69 153.86 130.46 154.23 L 129.17 154.62 C 127.94 154.99 127.25 156.28 127.62 157.51 C 127.99 158.74 129.28 159.44 130.51 159.07 Z M 131.68 158.71 L 132.64 158.48 C 133.88 158.17 134.64 156.91 134.34 155.66 C 134.03 154.42 132.77 153.66 131.53 153.96 L 130.57 154.20 C 129.33 154.50 128.56 155.76 128.87 157.01 C 129.18 158.26 130.44 159.02 131.68 158.71 Z M 132.57 158.49 L 133.53 158.28 C 134.79 158.01 135.58 156.78 135.31 155.52 C 135.04 154.27 133.81 153.47 132.55 153.74 L 131.59 153.95 C 130.34 154.22 129.54 155.45 129.81 156.71 C 130.08 157.96 131.31 158.76 132.57 158.49 Z M 133.50 158.29 L 134.49 158.09 C 135.75 157.84 136.56 156.61 136.31 155.35 C 136.05 154.10 134.83 153.28 133.57 153.53 L 132.58 153.73 C 131.32 153.99 130.51 155.21 130.76 156.47 C 131.02 157.73 132.24 158.54 133.50 158.29 Z M 134.49 158.09 L 135.42 157.90 C 136.67 157.65 137.49 156.42 137.23 155.16 C 136.98 153.90 135.75 153.09 134.49 153.35 L 133.57 153.53 C 132.31 153.79 131.50 155.02 131.75 156.27 C 132.01 157.53 133.23 158.35 134.49 158.09 Z M 135.43 157.90 L 136.23 157.73 C 137.49 157.47 138.29 156.24 138.03 154.98 C 137.77 153.73 136.54 152.92 135.28 153.18 L 134.48 153.35 C 133.22 153.61 132.42 154.84 132.68 156.10 C 132.94 157.36 134.17 158.16 135.43 157.90 Z M 136.23 157.73 L 137.11 157.55 C 138.37 157.29 139.17 156.05 138.91 154.80 C 138.65 153.54 137.41 152.73 136.16 153.00 L 135.28 153.18 C 134.02 153.45 133.21 154.68 133.48 155.94 C 133.74 157.19 134.98 158.00 136.23 157.73 Z M 137.11 157.55 L 138.10 157.34 C 139.36 157.08 140.17 155.85 139.90 154.60 C 139.64 153.34 138.41 152.53 137.16 152.79 L 136.16 153.00 C 134.90 153.26 134.10 154.49 134.36 155.75 C 134.62 157.00 135.85 157.81 137.11 157.55 Z M 138.09 157.35 L 139.23 157.12 C 140.49 156.86 141.30 155.63 141.05 154.38 C 140.80 153.12 139.57 152.30 138.31 152.56 L 137.17 152.79 C 135.91 153.04 135.09 154.27 135.35 155.53 C 135.60 156.79 136.83 157.60 138.09 157.35 Z M 139.22 157.12 L 140.33 156.90 C 141.59 156.65 142.41 155.43 142.16 154.17 C 141.91 152.91 140.69 152.09 139.43 152.34 L 138.32 152.56 C 137.06 152.80 136.24 154.02 136.49 155.28 C 136.74 156.54 137.96 157.37 139.22 157.12 Z M 140.32 156.90 L 141.21 156.73 C 142.47 156.49 143.29 155.27 143.05 154.01 C 142.81 152.75 141.59 151.92 140.33 152.17 L 139.44 152.34 C 138.18 152.58 137.35 153.80 137.60 155.06 C 137.84 156.32 139.06 157.14 140.32 156.90 Z M 141.20 156.73 L 142.14 156.55 C 143.40 156.32 144.23 155.10 144.00 153.84 C 143.76 152.58 142.54 151.75 141.28 151.99 L 140.34 152.17 C 139.08 152.40 138.25 153.62 138.49 154.88 C 138.72 156.14 139.94 156.97 141.20 156.73 Z M 142.14 156.55 L 143.13 156.37 C 144.39 156.14 145.22 154.93 144.99 153.67 C 144.75 152.41 143.54 151.57 142.28 151.81 L 141.29 151.99 C 140.03 152.22 139.20 153.43 139.43 154.69 C 139.67 155.95 140.88 156.79 142.14 156.55 Z M 143.12 156.37 L 144.14 156.18 C 145.40 155.96 146.23 154.75 146.01 153.49 C 145.78 152.23 144.57 151.39 143.31 151.62 L 142.29 151.81 C 141.03 152.03 140.19 153.24 140.42 154.50 C 140.65 155.76 141.86 156.60 143.12 156.37 Z M 144.13 156.18 L 145.16 156.00 C 146.42 155.78 147.26 154.57 147.04 153.31 C 146.82 152.05 145.61 151.21 144.35 151.44 L 143.32 151.62 C 142.06 151.84 141.22 153.05 141.44 154.31 C 141.67 155.57 142.87 156.41 144.13 156.18 Z M 145.15 156.00 L 146.19 155.82 C 147.45 155.60 148.29 154.40 148.07 153.14 C 147.85 151.88 146.66 151.04 145.40 151.26 L 144.36 151.44 C 143.10 151.66 142.26 152.86 142.48 154.12 C 142.70 155.38 143.89 156.22 145.15 156.00 Z M 146.18 155.82 L 147.20 155.65 C 148.46 155.43 149.31 154.24 149.10 152.98 C 148.88 151.72 147.69 150.87 146.43 151.08 L 145.41 151.26 C 144.15 151.47 143.30 152.67 143.51 153.93 C 143.72 155.19 144.92 156.03 146.18 155.82 Z M 147.19 155.65 L 148.23 155.47 C 149.49 155.27 150.35 154.08 150.14 152.82 C 149.93 151.56 148.74 150.71 147.48 150.91 L 146.44 151.08 C 145.18 151.29 144.33 152.48 144.53 153.74 C 144.74 155.00 145.93 155.85 147.19 155.65 Z M 148.22 155.47 L 149.34 155.29 C 150.60 155.09 151.45 153.91 151.25 152.66 C 151.06 151.40 149.88 150.54 148.62 150.74 L 147.50 150.92 C 146.24 151.12 145.38 152.30 145.58 153.55 C 145.78 154.81 146.96 155.67 148.22 155.47 Z M 149.32 155.28 L 150.39 155.12 C 151.64 154.93 152.51 153.76 152.32 152.51 C 152.13 151.26 150.96 150.40 149.70 150.59 L 148.64 150.75 C 147.38 150.94 146.52 152.11 146.71 153.36 C 146.90 154.61 148.07 155.47 149.32 155.28 Z M 150.38 155.11 L 151.40 154.96 C 152.64 154.78 153.51 153.63 153.33 152.38 C 153.15 151.13 151.99 150.27 150.74 150.45 L 149.72 150.60 C 148.47 150.78 147.61 151.94 147.79 153.18 C 147.97 154.43 149.13 155.29 150.38 155.11 Z M 151.38 154.96 L 152.35 154.82 C 153.60 154.65 154.46 153.50 154.29 152.26 C 154.12 151.02 152.97 150.15 151.73 150.32 L 150.76 150.46 C 149.51 150.63 148.65 151.78 148.82 153.02 C 148.99 154.26 150.14 155.13 151.38 154.96 Z M 152.34 154.81 L 153.26 154.69 C 154.50 154.52 155.37 153.39 155.20 152.15 C 155.04 150.91 153.90 150.04 152.66 150.21 L 151.74 150.33 C 150.50 150.49 149.63 151.63 149.80 152.87 C 149.96 154.11 151.10 154.98 152.34 154.81 Z M 153.25 154.68 L 154.12 154.57 C 155.36 154.41 156.23 153.28 156.07 152.05 C 155.91 150.82 154.79 149.95 153.56 150.10 L 152.68 150.22 C 151.45 150.37 150.57 151.50 150.73 152.73 C 150.89 153.97 152.01 154.84 153.25 154.68 Z M 154.11 154.56 L 155.05 154.45 C 156.28 154.30 157.15 153.18 157.00 151.95 C 156.85 150.72 155.74 149.85 154.51 150.00 L 153.57 150.11 C 152.34 150.26 151.47 151.38 151.62 152.61 C 151.77 153.84 152.88 154.71 154.11 154.56 Z M 155.03 154.44 L 156.07 154.32 C 157.30 154.18 158.18 153.08 158.04 151.85 C 157.90 150.63 156.79 149.75 155.57 149.88 L 154.53 150.00 C 153.30 150.14 152.42 151.25 152.56 152.47 C 152.70 153.70 153.81 154.58 155.03 154.44 Z M 156.05 154.32 L 157.04 154.22 C 158.26 154.09 159.15 153.00 159.03 151.78 C 158.90 150.55 157.81 149.66 156.59 149.79 L 155.60 149.89 C 154.37 150.01 153.48 151.11 153.61 152.33 C 153.73 153.55 154.82 154.44 156.05 154.32 Z M 157.01 154.21 L 157.97 154.13 C 159.19 154.02 160.10 152.95 159.99 151.73 C 159.89 150.50 158.81 149.60 157.59 149.71 L 156.62 149.79 C 155.40 149.90 154.50 150.97 154.60 152.19 C 154.71 153.42 155.79 154.32 157.01 154.21 Z M 157.93 154.13 L 158.89 154.06 C 160.11 153.98 161.03 152.92 160.95 151.70 C 160.86 150.48 159.81 149.56 158.59 149.64 L 157.63 149.71 C 156.41 149.79 155.49 150.85 155.57 152.07 C 155.66 153.29 156.71 154.21 157.93 154.13 Z M 158.85 154.06 L 159.84 154.01 C 161.05 153.95 161.99 152.91 161.93 151.69 C 161.87 150.47 160.83 149.53 159.61 149.60 L 158.63 149.65 C 157.41 149.71 156.47 150.74 156.53 151.96 C 156.60 153.18 157.63 154.12 158.85 154.06 Z M 159.79 154.01 L 160.82 153.98 C 162.04 153.94 163.00 152.92 162.96 151.70 C 162.93 150.48 161.91 149.52 160.69 149.56 L 159.66 149.59 C 158.44 149.63 157.48 150.65 157.52 151.87 C 157.55 153.09 158.57 154.05 159.79 154.01 Z M 160.78 153.99 L 161.82 153.97 C 163.04 153.96 164.02 152.96 164.01 151.73 C 163.99 150.51 162.99 149.53 161.76 149.54 L 160.73 149.55 C 159.50 149.57 158.52 150.57 158.54 151.80 C 158.55 153.02 159.56 154.00 160.78 153.99 Z M 161.77 153.98 L 162.79 153.99 C 164.02 154.00 165.02 153.01 165.03 151.79 C 165.04 150.56 164.05 149.56 162.83 149.54 L 161.81 149.54 C 160.58 149.53 159.58 150.51 159.57 151.74 C 159.56 152.97 160.54 153.97 161.77 153.98 Z M 162.74 153.99 L 163.71 154.03 C 164.94 154.06 165.97 153.10 166.01 151.87 C 166.05 150.64 165.08 149.61 163.85 149.57 L 162.88 149.54 C 161.65 149.50 160.62 150.47 160.58 151.70 C 160.54 152.93 161.51 153.96 162.74 153.99 Z M 163.65 154.03 L 164.62 154.09 C 165.86 154.16 166.92 153.23 166.99 151.99 C 167.07 150.76 166.13 149.70 164.90 149.63 L 163.92 149.57 C 162.69 149.49 161.63 150.43 161.55 151.66 C 161.48 152.89 162.41 153.95 163.65 154.03 Z M 164.51 154.10 L 165.61 154.22 C 166.84 154.36 167.96 153.47 168.10 152.23 C 168.23 151.00 167.35 149.88 166.11 149.74 L 165.01 149.62 C 163.78 149.48 162.66 150.37 162.52 151.60 C 162.38 152.84 163.27 153.96 164.51 154.10 Z M 165.38 154.21 L 166.35 154.41 C 167.58 154.67 168.79 153.89 169.05 152.66 C 169.31 151.43 168.53 150.22 167.30 149.96 L 166.33 149.76 C 165.10 149.50 163.90 150.28 163.63 151.51 C 163.37 152.74 164.16 153.94 165.38 154.21 Z M 166.03 154.34 L 166.89 154.66 C 168.07 155.10 169.39 154.49 169.83 153.30 C 170.27 152.11 169.67 150.79 168.48 150.35 L 167.62 150.03 C 166.43 149.59 165.11 150.20 164.67 151.39 C 164.23 152.58 164.84 153.90 166.03 154.34 Z M 166.48 154.49 L 167.28 154.97 C 168.38 155.63 169.81 155.28 170.47 154.18 C 171.13 153.08 170.77 151.66 169.68 151.00 L 168.88 150.52 C 167.78 149.85 166.35 150.21 165.69 151.31 C 165.03 152.41 165.39 153.83 166.48 154.49 Z M 166.88 154.72 L 167.61 155.38 C 168.56 156.26 170.05 156.20 170.93 155.24 C 171.81 154.28 171.75 152.79 170.79 151.91 L 170.07 151.25 C 169.11 150.37 167.62 150.43 166.74 151.39 C 165.86 152.35 165.93 153.84 166.88 154.72 Z M 167.26 155.06 L 167.85 155.87 C 168.63 156.94 170.13 157.17 171.20 156.39 C 172.27 155.62 172.50 154.12 171.72 153.05 L 171.13 152.24 C 170.36 151.17 168.86 150.93 167.79 151.71 C 166.72 152.49 166.49 153.99 167.26 155.06 Z M 167.58 155.48 L 168.02 156.41 C 168.58 157.63 170.02 158.16 171.24 157.60 C 172.46 157.03 172.99 155.59 172.43 154.37 L 172.00 153.44 C 171.43 152.22 169.99 151.69 168.77 152.25 C 167.55 152.82 167.02 154.26 167.58 155.48 Z M 167.84 156.01 L 168.09 156.96 C 168.44 158.28 169.78 159.06 171.09 158.72 C 172.41 158.38 173.19 157.03 172.85 155.72 L 172.60 154.77 C 172.26 153.45 170.91 152.67 169.60 153.01 C 168.29 153.35 167.50 154.70 167.84 156.01 Z M 168.01 156.66 L 168.14 157.66 C 168.32 159.02 169.56 159.98 170.91 159.80 C 172.27 159.63 173.23 158.39 173.06 157.03 L 172.93 156.03 C 172.75 154.67 171.51 153.71 170.15 153.89 C 168.80 154.06 167.84 155.30 168.01 156.66 Z M 168.10 157.44 L 168.15 158.45 C 168.20 159.83 169.36 160.90 170.74 160.85 C 172.12 160.79 173.19 159.63 173.13 158.25 L 173.09 157.24 C 173.04 155.87 171.88 154.79 170.50 154.85 C 169.12 154.91 168.05 156.07 168.10 157.44 Z M 168.13 158.32 L 168.11 159.31 C 168.09 160.70 169.20 161.84 170.59 161.86 C 171.97 161.88 173.12 160.77 173.14 159.38 L 173.15 158.39 C 173.17 157.00 172.07 155.86 170.68 155.84 C 169.29 155.82 168.15 156.93 168.13 158.32 Z M 168.11 159.18 L 168.04 160.15 C 167.95 161.54 169.00 162.74 170.39 162.84 C 171.78 162.93 172.98 161.88 173.08 160.49 L 173.14 159.52 C 173.24 158.13 172.19 156.92 170.79 156.83 C 169.40 156.73 168.20 157.79 168.11 159.18 Z M 168.06 159.94 L 167.91 160.90 C 167.70 162.28 168.65 163.58 170.03 163.79 C 171.41 164.00 172.70 163.05 172.91 161.67 L 173.06 160.70 C 173.27 159.32 172.32 158.03 170.94 157.82 C 169.56 157.61 168.27 158.56 168.06 159.94 Z M 167.96 160.64 L 167.70 161.63 C 167.34 162.98 168.14 164.37 169.50 164.73 C 170.85 165.09 172.24 164.28 172.60 162.93 L 172.86 161.94 C 173.22 160.58 172.41 159.19 171.06 158.83 C 169.71 158.48 168.32 159.28 167.96 160.64 Z M 167.77 161.38 L 167.45 162.24 C 166.95 163.55 167.62 165.01 168.93 165.51 C 170.24 166.00 171.71 165.34 172.20 164.03 L 172.52 163.17 C 173.02 161.86 172.36 160.40 171.04 159.90 C 169.73 159.41 168.27 160.07 167.77 161.38 Z M 167.52 162.07 L 167.13 162.92 C 166.55 164.19 167.10 165.70 168.38 166.28 C 169.65 166.87 171.16 166.31 171.75 165.04 L 172.13 164.19 C 172.72 162.92 172.16 161.41 170.89 160.83 C 169.61 160.24 168.10 160.80 167.52 162.07 Z M 167.19 162.81 L 166.73 163.69 C 166.08 164.94 166.56 166.47 167.81 167.11 C 169.05 167.76 170.58 167.28 171.23 166.03 L 171.69 165.15 C 172.34 163.90 171.85 162.37 170.61 161.72 C 169.37 161.08 167.83 161.56 167.19 162.81 Z M 166.77 163.62 L 166.24 164.54 C 165.56 165.77 165.99 167.31 167.21 168.00 C 168.43 168.69 169.98 168.26 170.67 167.03 L 171.19 166.11 C 171.88 164.89 171.44 163.34 170.22 162.65 C 169.00 161.96 167.45 162.40 166.77 163.62 Z M 166.27 164.50 L 165.71 165.45 C 165.00 166.65 165.40 168.21 166.60 168.92 C 167.81 169.64 169.36 169.24 170.08 168.03 L 170.64 167.08 C 171.35 165.88 170.95 164.32 169.75 163.61 C 168.54 162.89 166.99 163.29 166.27 164.50 Z M 165.73 165.42 L 165.24 166.23 C 164.51 167.43 164.89 168.99 166.08 169.71 C 167.28 170.44 168.84 170.06 169.56 168.87 L 170.06 168.06 C 170.78 166.86 170.40 165.30 169.21 164.58 C 168.01 163.85 166.46 164.23 165.73 165.42 Z M 165.25 166.21 L 164.74 167.04 C 164.00 168.23 164.36 169.79 165.54 170.53 C 166.73 171.27 168.29 170.90 169.03 169.72 L 169.55 168.89 C 170.28 167.70 169.92 166.14 168.74 165.40 C 167.55 164.67 165.99 165.03 165.25 166.21 Z M 164.76 167.02 L 164.21 167.87 C 163.46 169.04 163.81 170.60 164.98 171.35 C 166.16 172.10 167.72 171.76 168.47 170.59 L 169.01 169.74 C 169.76 168.57 169.42 167.01 168.24 166.25 C 167.07 165.50 165.51 165.85 164.76 167.02 Z M 164.24 167.84 L 163.67 168.69 C 162.91 169.86 163.23 171.42 164.40 172.18 C 165.56 172.95 167.12 172.63 167.89 171.46 L 168.45 170.61 C 169.21 169.45 168.89 167.88 167.73 167.12 C 166.56 166.36 165.00 166.68 164.24 167.84 Z M 163.70 168.67 L 163.12 169.52 C 162.34 170.67 162.64 172.24 163.79 173.02 C 164.94 173.79 166.51 173.49 167.29 172.34 L 167.86 171.49 C 168.64 170.34 168.34 168.77 167.19 167.99 C 166.04 167.22 164.48 167.52 163.70 168.67 Z M 163.14 169.49 L 162.54 170.35 C 161.75 171.49 162.03 173.06 163.16 173.85 C 164.30 174.65 165.86 174.37 166.66 173.23 L 167.26 172.37 C 168.06 171.23 167.78 169.67 166.64 168.87 C 165.50 168.08 163.94 168.36 163.14 169.49 Z M 162.57 170.33 L 161.94 171.20 C 161.13 172.32 161.38 173.89 162.50 174.70 C 163.63 175.51 165.19 175.26 166.00 174.13 L 166.63 173.26 C 167.44 172.14 167.19 170.57 166.07 169.76 C 164.95 168.95 163.38 169.21 162.57 170.33 Z M 161.96 171.18 L 161.33 172.03 C 160.51 173.14 160.74 174.70 161.85 175.52 C 162.96 176.35 164.52 176.11 165.35 175.01 L 165.98 174.16 C 166.80 173.05 166.57 171.48 165.46 170.66 C 164.35 169.84 162.78 170.07 161.96 171.18 Z M 161.35 172.01 L 160.74 172.83 C 159.91 173.92 160.12 175.49 161.22 176.32 C 162.32 177.15 163.88 176.93 164.71 175.84 L 165.33 175.02 C 166.16 173.93 165.94 172.36 164.84 171.53 C 163.75 170.70 162.18 170.92 161.35 172.01 Z M 160.76 172.81 L 160.17 173.58 C 159.33 174.66 159.53 176.22 160.62 177.06 C 161.70 177.90 163.26 177.70 164.10 176.61 L 164.69 175.85 C 165.53 174.76 165.33 173.20 164.24 172.36 C 163.15 171.53 161.59 171.73 160.76 172.81 Z M 160.18 173.57 L 159.63 174.27 C 158.79 175.35 158.98 176.91 160.06 177.75 C 161.14 178.59 162.69 178.40 163.54 177.33 L 164.09 176.62 C 164.93 175.54 164.74 173.99 163.66 173.14 C 162.58 172.30 161.02 172.49 160.18 173.57 Z M 159.65 174.27 L 159.07 175.00 C 158.23 176.07 158.41 177.62 159.48 178.46 C 160.55 179.31 162.10 179.13 162.94 178.06 L 163.52 177.33 C 164.36 176.26 164.18 174.71 163.11 173.86 C 162.04 173.02 160.49 173.20 159.65 174.27 Z M 159.10 174.99 L 158.53 175.69 C 157.68 176.75 157.84 178.29 158.90 179.14 C 159.95 179.99 161.50 179.83 162.35 178.77 L 162.91 178.07 C 163.77 177.01 163.60 175.47 162.55 174.62 C 161.49 173.77 159.95 173.94 159.10 174.99 Z M 158.57 175.67 L 157.98 176.38 C 157.12 177.42 157.26 178.95 158.29 179.81 C 159.32 180.67 160.86 180.53 161.72 179.50 L 162.31 178.79 C 163.17 177.76 163.03 176.22 162.00 175.36 C 160.96 174.50 159.43 174.64 158.57 175.67 Z M 158.02 176.36 L 157.34 177.14 C 156.47 178.15 156.58 179.68 157.59 180.55 C 158.61 181.42 160.13 181.31 161.01 180.30 L 161.68 179.52 C 162.55 178.51 162.44 176.99 161.43 176.11 C 160.42 175.24 158.89 175.35 158.02 176.36 Z M 157.38 177.13 L 156.62 177.98 C 155.74 178.98 155.82 180.49 156.82 181.37 C 157.81 182.26 159.33 182.17 160.21 181.18 L 160.97 180.32 C 161.85 179.33 161.76 177.81 160.77 176.93 C 159.78 176.05 158.26 176.13 157.38 177.13 Z M 156.64 177.98 L 156.03 178.65 C 155.15 179.62 155.22 181.14 156.20 182.02 C 157.18 182.91 158.69 182.83 159.58 181.85 L 160.18 181.18 C 161.07 180.20 160.99 178.69 160.02 177.81 C 159.04 176.92 157.53 177.00 156.64 177.98 Z M 156.05 178.64 L 155.39 179.36 C 154.50 180.33 154.56 181.84 155.53 182.73 C 156.50 183.62 158.01 183.55 158.90 182.58 L 159.56 181.86 C 160.45 180.89 160.39 179.38 159.42 178.49 C 158.44 177.60 156.94 177.67 156.05 178.64 Z M 155.40 179.36 L 154.70 180.12 C 153.81 181.08 153.86 182.58 154.82 183.47 C 155.79 184.37 157.29 184.31 158.18 183.35 L 158.88 182.59 C 159.78 181.63 159.72 180.12 158.76 179.23 C 157.79 178.34 156.29 178.40 155.40 179.36 Z M 154.71 180.11 L 153.99 180.88 C 153.09 181.84 153.14 183.33 154.09 184.23 C 155.05 185.12 156.55 185.08 157.44 184.12 L 158.16 183.35 C 159.06 182.40 159.01 180.90 158.06 180.01 C 157.11 179.11 155.61 179.16 154.71 180.11 Z M 154.01 180.88 L 153.28 181.64 C 152.38 182.58 152.42 184.08 153.36 184.98 C 154.30 185.88 155.80 185.84 156.70 184.89 L 157.42 184.13 C 158.32 183.19 158.29 181.69 157.34 180.79 C 156.40 179.90 154.90 179.93 154.01 180.88 Z M 153.30 181.63 L 152.58 182.37 C 151.68 183.30 151.71 184.79 152.64 185.69 C 153.57 186.60 155.06 186.57 155.97 185.64 L 156.68 184.90 C 157.58 183.97 157.56 182.48 156.62 181.58 C 155.69 180.67 154.20 180.70 153.30 181.63 Z M 152.61 182.36 L 151.93 183.04 C 151.02 183.97 151.03 185.45 151.95 186.36 C 152.87 187.27 154.35 187.26 155.26 186.34 L 155.94 185.65 C 156.85 184.73 156.84 183.25 155.92 182.34 C 155.00 181.43 153.52 181.43 152.61 182.36 Z M 151.97 183.04 L 151.12 183.87 C 150.21 184.77 150.19 186.23 151.09 187.15 C 151.98 188.06 153.45 188.08 154.37 187.18 L 155.22 186.35 C 156.13 185.45 156.15 183.98 155.25 183.07 C 154.36 182.15 152.89 182.14 151.97 183.04 Z M 151.19 183.86 L 150.41 184.59 C 149.49 185.45 149.44 186.89 150.30 187.81 C 151.16 188.73 152.60 188.78 153.52 187.92 L 154.30 187.19 C 155.22 186.33 155.26 184.89 154.41 183.97 C 153.55 183.05 152.11 183.00 151.19 183.86 Z M 150.48 184.58 L 149.76 185.23 C 148.83 186.04 148.74 187.45 149.56 188.38 C 150.38 189.30 151.79 189.39 152.71 188.57 L 153.44 187.93 C 154.37 187.11 154.45 185.70 153.64 184.78 C 152.82 183.85 151.41 183.76 150.48 184.58 Z M 149.83 185.21 L 149.13 185.80 C 148.20 186.57 148.08 187.95 148.85 188.88 C 149.62 189.81 151.00 189.94 151.93 189.17 L 152.64 188.58 C 153.57 187.81 153.69 186.43 152.92 185.50 C 152.15 184.57 150.76 184.44 149.83 185.21 Z M 149.21 185.79 L 148.52 186.33 C 147.58 187.06 147.42 188.41 148.15 189.35 C 148.88 190.28 150.23 190.45 151.16 189.72 L 151.86 189.17 C 152.79 188.44 152.96 187.09 152.23 186.16 C 151.50 185.22 150.15 185.06 149.21 185.79 Z M 148.59 186.33 L 147.78 186.93 C 146.84 187.62 146.64 188.94 147.33 189.87 C 148.02 190.81 149.34 191.01 150.27 190.32 L 151.09 189.72 C 152.02 189.03 152.22 187.71 151.53 186.78 C 150.84 185.84 149.53 185.64 148.59 186.33 Z M 147.86 186.93 L 146.99 187.52 C 146.06 188.17 145.82 189.45 146.47 190.39 C 147.11 191.32 148.40 191.56 149.33 190.92 L 150.19 190.32 C 151.13 189.68 151.37 188.39 150.72 187.46 C 150.08 186.52 148.79 186.28 147.86 186.93 Z M 147.08 187.51 L 146.22 188.06 C 145.28 188.66 145.01 189.90 145.60 190.85 C 146.20 191.79 147.45 192.06 148.39 191.47 L 149.25 190.92 C 150.19 190.32 150.46 189.08 149.87 188.14 C 149.27 187.19 148.02 186.92 147.08 187.51 Z M 146.32 188.05 L 145.49 188.53 C 144.54 189.07 144.22 190.28 144.76 191.23 C 145.30 192.17 146.51 192.50 147.46 191.95 L 148.29 191.47 C 149.24 190.93 149.56 189.72 149.02 188.78 C 148.47 187.83 147.27 187.51 146.32 188.05 Z M 145.62 188.52 L 144.73 188.96 C 143.78 189.43 143.39 190.58 143.86 191.54 C 144.34 192.49 145.49 192.88 146.44 192.41 L 147.33 191.97 C 148.28 191.49 148.67 190.34 148.20 189.39 C 147.72 188.44 146.57 188.05 145.62 188.52 Z M 144.90 188.95 L 143.92 189.34 C 142.97 189.72 142.50 190.80 142.88 191.76 C 143.26 192.71 144.34 193.18 145.30 192.80 L 146.27 192.41 C 147.23 192.03 147.69 190.95 147.31 189.99 C 146.93 189.04 145.85 188.57 144.90 188.95 Z M 144.07 189.37 L 143.15 189.66 C 142.21 189.96 141.69 190.96 141.99 191.89 C 142.28 192.83 143.28 193.35 144.22 193.06 L 145.14 192.77 C 146.08 192.48 146.60 191.48 146.31 190.54 C 146.01 189.60 145.01 189.08 144.07 189.37 Z M 143.24 189.71 L 142.40 189.94 C 141.49 190.18 140.95 191.12 141.20 192.03 C 141.45 192.94 142.38 193.48 143.29 193.24 L 144.13 193.01 C 145.04 192.76 145.58 191.82 145.34 190.91 C 145.09 190.00 144.15 189.47 143.24 189.71 Z"
      fill="black"
      fill-rule="nonzero" /></svg>