<svg xmlns="http://www.w3.org/2000/svg" width="300" height="300" viewBox="0 0 300 300">
<path d="M 160.06 112.27 L 159.11 112.00 C 157.97 111.67 156.77 112.34 156.45 113.49 C 156.12 114.64 156.79 115.83 157.94 116.16 L 158.89 116.43 C 160.03 116.75 161.23 116.08 161.55 114.94 C 161.88 113.79 161.21 112.59 160.06 112.27 Z M 159.08 112.01 L 158.12 111.76 C 156.98 111.45 155.81 112.13 155.50 113.27 C 155.20 114.41 155.87 115.58 157.01 115.89 L 157.97 116.14 C 159.11 116.45 160.29 115.77 160.59 114.63 C 160.90 113.49 160.22 112.32 159.08 112.01 Z M 158.06 111.76 L 157.07 111.53 C 155.94 111.26 154.80 111.96 154.53 113.10 C 154.26 114.24 154.96 115.38 156.10 115.65 L 157.08 115.88 C 158.21 116.15 159.35 115.45 159.62 114.31 C 159.89 113.17 159.19 112.03 158.06 111.76 Z M 156.99 111.53 L 156.02 111.34 C 154.88 111.12 153.78 111.85 153.55 112.99 C 153.33 114.13 154.07 115.23 155.20 115.45 L 156.18 115.65 C 157.32 115.87 158.42 115.13 158.64 113.99 C 158.87 112.86 158.13 111.75 156.99 111.53 Z M 155.93 111.33 L 154.96 111.18 C 153.82 111.00 152.75 111.78 152.57 112.92 C 152.39 114.06 153.17 115.13 154.31 115.31 L 155.29 115.46 C 156.43 115.64 157.49 114.86 157.67 113.72 C 157.85 112.58 157.07 111.51 155.93 111.33 Z M 154.89 111.17 L 153.89 111.05 C 152.75 110.91 151.71 111.72 151.57 112.86 C 151.42 114.01 152.24 115.05 153.38 115.19 L 154.38 115.31 C 155.52 115.46 156.56 114.64 156.70 113.50 C 156.85 112.36 156.04 111.32 154.89 111.17 Z M 153.84 111.05 L 152.82 110.95 C 151.67 110.84 150.66 111.68 150.55 112.82 C 150.44 113.97 151.27 114.98 152.42 115.09 L 153.44 115.19 C 154.58 115.30 155.60 114.46 155.71 113.32 C 155.82 112.17 154.98 111.16 153.84 111.05 Z M 152.77 110.95 L 151.75 110.87 C 150.60 110.79 149.61 111.65 149.52 112.80 C 149.44 113.94 150.30 114.94 151.45 115.02 L 152.47 115.09 C 153.61 115.18 154.61 114.32 154.69 113.17 C 154.77 112.03 153.91 111.03 152.77 110.95 Z M 151.71 110.87 L 150.69 110.82 C 149.55 110.76 148.57 111.64 148.51 112.78 C 148.45 113.93 149.32 114.90 150.47 114.96 L 151.48 115.02 C 152.63 115.08 153.61 114.20 153.67 113.06 C 153.73 111.91 152.85 110.94 151.71 110.87 Z M 150.66 110.82 L 149.67 110.78 C 148.52 110.74 147.56 111.63 147.52 112.78 C 147.47 113.92 148.36 114.88 149.51 114.93 L 150.50 114.96 C 151.64 115.01 152.61 114.12 152.65 112.97 C 152.69 111.83 151.80 110.87 150.66 110.82 Z M 149.64 110.79 L 148.67 110.76 C 147.53 110.73 146.58 111.63 146.55 112.78 C 146.52 113.92 147.42 114.87 148.57 114.90 L 149.53 114.92 C 150.68 114.95 151.63 114.05 151.66 112.91 C 151.68 111.76 150.78 110.81 149.64 110.79 Z M 148.65 110.76 L 147.66 110.75 C 146.52 110.73 145.58 111.64 145.56 112.79 C 145.54 113.93 146.46 114.87 147.60 114.88 L 148.59 114.90 C 149.73 114.92 150.67 114.00 150.69 112.86 C 150.70 111.72 149.79 110.78 148.65 110.76 Z M 147.64 110.74 L 146.66 110.74 C 145.52 110.73 144.58 111.65 144.58 112.80 C 144.57 113.94 145.49 114.87 146.64 114.88 L 147.62 114.89 C 148.76 114.89 149.69 113.97 149.70 112.83 C 149.71 111.68 148.79 110.75 147.64 110.74 Z M 146.65 110.73 L 145.63 110.73 C 144.49 110.73 143.56 111.66 143.56 112.81 C 143.56 113.95 144.48 114.88 145.63 114.88 L 146.65 114.88 C 147.79 114.89 148.72 113.96 148.72 112.81 C 148.73 111.67 147.80 110.74 146.65 110.73 Z M 145.62 110.72 L 144.51 110.73 C 143.36 110.74 142.44 111.68 142.44 112.83 C 142.45 113.98 143.39 114.91 144.54 114.90 L 145.65 114.89 C 146.80 114.89 147.73 113.95 147.72 112.79 C 147.71 111.64 146.77 110.71 145.62 110.72 Z M 144.38 110.71 L 143.30 110.79 C 142.14 110.87 141.27 111.88 141.35 113.04 C 141.43 114.20 142.44 115.08 143.60 114.99 L 144.68 114.92 C 145.84 114.84 146.71 113.83 146.63 112.67 C 146.55 111.51 145.54 110.63 144.38 110.71 Z M 142.92 110.83 L 142.03 111.06 C 140.89 111.35 140.20 112.51 140.50 113.65 C 140.79 114.79 141.95 115.48 143.09 115.19 L 143.98 114.96 C 145.12 114.66 145.81 113.50 145.52 112.36 C 145.22 111.22 144.06 110.54 142.92 110.83 Z M 141.13 111.51 L 140.54 112.03 C 139.65 112.82 139.57 114.18 140.36 115.07 C 141.15 115.96 142.51 116.05 143.40 115.26 L 143.99 114.74 C 144.88 113.95 144.96 112.59 144.17 111.70 C 143.39 110.80 142.03 110.72 141.13 111.51 Z M 139.84 113.21 L 139.66 114.09 C 139.42 115.27 140.18 116.42 141.35 116.66 C 142.53 116.90 143.68 116.14 143.93 114.96 L 144.11 114.08 C 144.35 112.90 143.59 111.75 142.41 111.51 C 141.23 111.27 140.08 112.03 139.84 113.21 Z M 139.60 114.74 L 139.71 115.82 C 139.82 117.03 140.90 117.92 142.11 117.80 C 143.32 117.68 144.21 116.61 144.09 115.40 L 143.98 114.31 C 143.86 113.10 142.79 112.22 141.58 112.33 C 140.37 112.45 139.48 113.53 139.60 114.74 Z M 139.71 115.98 L 139.88 117.00 C 140.08 118.21 141.23 119.03 142.43 118.82 C 143.64 118.62 144.46 117.48 144.26 116.27 L 144.09 115.25 C 143.88 114.04 142.74 113.22 141.53 113.42 C 140.32 113.62 139.51 114.77 139.71 115.98 Z M 139.87 117.00 L 140.04 117.99 C 140.24 119.20 141.39 120.02 142.60 119.82 C 143.81 119.62 144.63 118.47 144.43 117.26 L 144.26 116.27 C 144.06 115.06 142.92 114.24 141.70 114.44 C 140.49 114.64 139.67 115.79 139.87 117.00 Z M 140.03 117.96 L 140.18 118.95 C 140.36 120.17 141.50 121.01 142.72 120.83 C 143.94 120.64 144.77 119.50 144.59 118.29 L 144.44 117.29 C 144.26 116.07 143.12 115.23 141.90 115.42 C 140.68 115.60 139.84 116.74 140.03 117.96 Z M 140.16 118.89 L 140.28 119.88 C 140.43 121.11 141.55 121.98 142.77 121.83 C 144.00 121.68 144.87 120.57 144.72 119.34 L 144.60 118.35 C 144.45 117.13 143.34 116.25 142.12 116.40 C 140.89 116.55 140.02 117.66 140.16 118.89 Z M 140.27 119.80 L 140.36 120.79 C 140.46 122.03 141.55 122.94 142.78 122.83 C 144.01 122.73 144.92 121.64 144.82 120.41 L 144.73 119.42 C 144.63 118.19 143.54 117.28 142.31 117.38 C 141.08 117.49 140.17 118.57 140.27 119.80 Z M 140.35 120.74 L 140.41 121.73 C 140.49 122.97 141.55 123.91 142.78 123.83 C 144.02 123.76 144.96 122.70 144.88 121.46 L 144.82 120.47 C 144.75 119.23 143.69 118.29 142.45 118.37 C 141.22 118.44 140.28 119.50 140.35 120.74 Z M 140.41 121.70 L 140.46 122.71 C 140.52 123.94 141.57 124.90 142.80 124.84 C 144.04 124.78 144.99 123.73 144.93 122.49 L 144.89 121.49 C 144.83 120.25 143.78 119.30 142.54 119.36 C 141.31 119.42 140.35 120.47 140.41 121.70 Z M 140.46 122.70 L 140.50 123.61 C 140.55 124.84 141.60 125.80 142.84 125.75 C 144.07 125.69 145.03 124.65 144.97 123.41 L 144.93 122.50 C 144.88 121.27 143.83 120.31 142.60 120.36 C 141.36 120.42 140.40 121.46 140.46 122.70 Z M 140.50 123.59 L 140.54 124.55 C 140.58 125.79 141.62 126.75 142.86 126.71 C 144.10 126.66 145.06 125.62 145.01 124.38 L 144.97 123.42 C 144.93 122.19 143.89 121.22 142.65 121.27 C 141.41 121.32 140.45 122.36 140.50 123.59 Z M 140.53 124.54 L 140.57 125.57 C 140.60 126.81 141.64 127.78 142.87 127.75 C 144.11 127.71 145.08 126.68 145.04 125.44 L 145.01 124.40 C 144.98 123.16 143.94 122.19 142.71 122.23 C 141.47 122.27 140.50 123.30 140.53 124.54 Z M 140.57 125.55 L 140.59 126.64 C 140.61 127.87 141.63 128.86 142.87 128.83 C 144.11 128.81 145.09 127.78 145.07 126.55 L 145.04 125.46 C 145.02 124.22 144.00 123.24 142.76 123.27 C 141.52 123.29 140.54 124.31 140.57 125.55 Z M 140.59 126.62 L 140.60 127.61 C 140.61 128.85 141.63 129.84 142.86 129.83 C 144.10 129.81 145.09 128.80 145.08 127.56 L 145.07 126.57 C 145.05 125.33 144.04 124.34 142.80 124.35 C 141.56 124.37 140.57 125.38 140.59 126.62 Z M 140.60 127.60 L 140.60 128.63 C 140.61 129.87 141.62 130.87 142.86 130.86 C 144.10 130.85 145.09 129.84 145.09 128.60 L 145.08 127.57 C 145.07 126.34 144.06 125.34 142.82 125.35 C 141.59 125.35 140.59 126.36 140.60 127.60 Z M 140.60 128.62 L 140.61 129.65 C 140.61 130.89 141.62 131.89 142.85 131.89 C 144.09 131.88 145.09 130.88 145.09 129.64 L 145.09 128.61 C 145.08 127.37 144.08 126.37 142.84 126.38 C 141.60 126.38 140.60 127.39 140.60 128.62 Z M 140.61 129.65 L 140.61 130.64 C 140.61 131.87 141.61 132.88 142.85 132.87 C 144.09 132.87 145.09 131.87 145.09 130.63 L 145.09 129.64 C 145.09 128.41 144.08 127.40 142.85 127.41 C 141.61 127.41 140.61 128.41 140.61 129.65 Z M 140.61 130.63 L 140.61 131.69 C 140.61 132.93 141.61 133.93 142.85 133.93 C 144.09 133.93 145.09 132.93 145.09 131.69 L 145.09 130.63 C 145.09 129.40 144.09 128.39 142.85 128.39 C 141.61 128.39 140.61 129.40 140.61 130.63 Z M 140.61 131.69 L 140.61 132.74 C 140.61 133.98 141.61 134.98 142.85 134.98 C 144.09 134.98 145.09 133.98 145.09 132.74 L 145.09 131.69 C 145.09 130.45 144.09 129.45 142.85 129.45 C 141.61 129.45 140.61 130.45 140.61 131.69 Z M 140.61 132.74 L 140.61 133.70 C 140.61 134.94 141.61 135.94 142.85 135.94 C 144.09 135.94 145.09 134.94 145.09 133.70 L 145.09 132.74 C 145.09 131.50 144.09 130.50 142.85 130.50 C 141.61 130.50 140.61 131.50 140.61 132.74 Z M 140.61 133.70 L 140.61 134.61 C 140.61 135.85 141.61 136.85 142.85 136.85 C 144.09 136.85 145.09 135.85 145.09 134.61 L 145.09 133.70 C 145.09 132.46 144.09 131.46 142.85 131.46 C 141.61 131.46 140.61 132.46 140.61 133.70 Z M 140.61 134.61 L 140.61 135.60 C 140.61 136.84 141.61 137.85 142.85 137.85 C 144.09 137.85 145.09 136.84 145.09 135.60 L 145.09 134.61 C 145.09 133.37 144.09 132.37 142.85 132.37 C 141.61 132.37 140.61 133.37 140.61 134.61 Z M 140.60 135.60 L 140.60 136.60 C 140.60 137.84 141.61 138.85 142.85 138.85 C 144.09 138.85 145.09 137.84 145.09 136.60 L 145.09 135.60 C 145.09 134.36 144.09 133.36 142.85 133.36 C 141.61 133.36 140.60 134.36 140.60 135.60 Z M 140.60 136.60 L 140.60 137.60 C 140.60 138.84 141.61 139.85 142.85 139.85 C 144.09 139.85 145.09 138.84 145.09 137.60 L 145.09 136.60 C 145.09 135.36 144.09 134.36 142.85 134.36 C 141.61 134.36 140.60 135.36 140.60 136.60 Z M 140.60 137.60 L 140.60 138.59 C 140.60 139.83 141.61 140.84 142.85 140.84 C 144.09 140.84 145.10 139.83 145.10 138.59 L 145.10 137.60 C 145.10 136.36 144.09 135.35 142.85 135.35 C 141.61 135.35 140.60 136.36 140.60 137.60 Z M 140.60 138.59 L 140.60 139.58 C 140.60 140.83 141.60 141.84 142.85 141.84 C 144.09 141.84 145.10 140.83 145.10 139.58 L 145.10 138.59 C 145.10 137.35 144.09 136.34 142.85 136.34 C 141.60 136.34 140.60 137.35 140.60 138.59 Z M 140.59 139.58 L 140.59 140.59 C 140.59 141.84 141.60 142.84 142.85 142.84 C 144.09 142.84 145.10 141.84 145.10 140.59 L 145.10 139.58 C 145.10 138.34 144.09 137.33 142.85 137.33 C 141.60 137.33 140.59 138.34 140.59 139.58 Z M 140.59 140.59 L 140.59 141.57 C 140.59 142.82 141.60 143.83 142.85 143.83 C 144.10 143.83 145.11 142.82 145.11 141.57 L 145.11 140.59 C 145.11 139.34 144.10 138.33 142.85 138.33 C 141.60 138.33 140.59 139.34 140.59 140.59 Z M 140.59 141.57 L 140.59 142.52 C 140.59 143.77 141.60 144.78 142.85 144.78 C 144.10 144.78 145.11 143.77 145.11 142.52 L 145.11 141.57 C 145.11 140.32 144.10 139.31 142.85 139.31 C 141.60 139.31 140.59 140.32 140.59 141.57 Z M 140.58 142.52 L 140.58 143.51 C 140.58 144.76 141.60 145.78 142.85 145.78 C 144.10 145.78 145.12 144.76 145.12 143.51 L 145.12 142.52 C 145.12 141.26 144.10 140.25 142.85 140.25 C 141.60 140.25 140.58 141.26 140.58 142.52 Z M 140.58 143.51 L 140.58 144.57 C 140.58 145.83 141.59 146.84 142.85 146.84 C 144.10 146.84 145.12 145.83 145.12 144.57 L 145.12 143.51 C 145.12 142.26 144.10 141.24 142.85 141.24 C 141.59 141.24 140.58 142.26 140.58 143.51 Z M 140.57 144.57 L 140.57 145.59 C 140.57 146.85 141.59 147.87 142.85 147.87 C 144.10 147.87 145.12 146.85 145.12 145.59 L 145.12 144.57 C 145.12 143.32 144.10 142.30 142.85 142.30 C 141.59 142.30 140.57 143.32 140.57 144.57 Z M 140.57 145.59 L 140.57 146.61 C 140.57 147.87 141.59 148.89 142.85 148.89 C 144.11 148.89 145.13 147.87 145.13 146.61 L 145.13 145.59 C 145.13 144.33 144.11 143.31 142.85 143.31 C 141.59 143.31 140.57 144.33 140.57 145.59 Z M 140.57 146.61 L 140.57 147.64 C 140.57 148.89 141.59 149.91 142.85 149.91 C 144.11 149.91 145.13 148.89 145.13 147.64 L 145.13 146.61 C 145.13 145.35 144.11 144.33 142.85 144.33 C 141.59 144.33 140.57 145.35 140.57 146.61 Z M 140.57 147.64 L 140.57 148.63 C 140.57 149.89 141.59 150.91 142.85 150.91 C 144.11 150.91 145.13 149.89 145.13 148.63 L 145.13 147.64 C 145.13 146.37 144.11 145.35 142.85 145.35 C 141.59 145.35 140.57 146.37 140.57 147.64 Z M 140.56 148.63 L 140.56 149.65 C 140.56 150.91 141.59 151.94 142.85 151.94 C 144.11 151.94 145.13 150.91 145.13 149.65 L 145.13 148.63 C 145.13 147.37 144.11 146.35 142.85 146.35 C 141.59 146.35 140.56 147.37 140.56 148.63 Z M 140.56 149.65 L 140.56 150.69 C 140.56 151.95 141.59 152.98 142.85 152.98 C 144.11 152.98 145.13 151.95 145.13 150.69 L 145.13 149.65 C 145.13 148.39 144.11 147.37 142.85 147.37 C 141.59 147.37 140.56 148.39 140.56 149.65 Z M 140.56 150.69 L 140.56 151.67 C 140.56 152.93 141.59 153.95 142.85 153.95 C 144.11 153.95 145.13 152.93 145.13 151.67 L 145.13 150.69 C 145.13 149.43 144.11 148.41 142.85 148.41 C 141.59 148.41 140.56 149.43 140.56 150.69 Z M 140.56 151.67 L 140.56 152.61 C 140.56 153.87 141.59 154.89 142.85 154.89 C 144.11 154.89 145.13 153.87 145.13 152.61 L 145.13 151.67 C 145.13 150.40 144.11 149.38 142.85 149.38 C 141.59 149.38 140.56 150.40 140.56 151.67 Z M 140.56 152.61 L 140.56 153.60 C 140.56 154.86 141.59 155.89 142.85 155.89 C 144.11 155.89 145.14 154.86 145.14 153.60 L 145.14 152.61 C 145.14 151.34 144.11 150.32 142.85 150.32 C 141.59 150.32 140.56 151.34 140.56 152.61 Z M 140.56 153.60 L 140.56 154.60 C 140.56 155.87 141.58 156.89 142.85 156.89 C 144.11 156.89 145.14 155.87 145.14 154.60 L 145.14 153.60 C 145.14 152.34 144.11 151.31 142.85 151.31 C 141.58 151.31 140.56 152.34 140.56 153.60 Z M 140.56 154.60 L 140.56 155.60 C 140.56 156.87 141.58 157.89 142.85 157.89 C 144.11 157.89 145.14 156.87 145.14 155.60 L 145.14 154.60 C 145.14 153.34 144.11 152.32 142.85 152.32 C 141.58 152.32 140.56 153.34 140.56 154.60 Z M 140.56 155.60 L 140.56 156.56 C 140.56 157.82 141.58 158.85 142.85 158.85 C 144.11 158.85 145.14 157.82 145.14 156.56 L 145.14 155.60 C 145.14 154.34 144.11 153.32 142.85 153.32 C 141.58 153.32 140.56 154.34 140.56 155.60 Z M 140.56 156.56 L 140.56 157.50 C 140.56 158.77 141.58 159.79 142.85 159.79 C 144.11 159.79 145.14 158.77 145.14 157.50 L 145.14 156.56 C 145.14 155.30 144.11 154.27 142.85 154.27 C 141.58 154.27 140.56 155.30 140.56 156.56 Z M 140.56 157.50 L 140.56 158.50 C 140.56 159.77 141.58 160.79 142.85 160.79 C 144.11 160.79 145.14 159.77 145.14 158.50 L 145.14 157.50 C 145.14 156.24 144.11 155.21 142.85 155.21 C 141.58 155.21 140.56 156.24 140.56 157.50 Z M 140.56 158.50 L 140.56 159.60 C 140.56 160.87 141.58 161.89 142.85 161.89 C 144.11 161.89 145.14 160.87 145.14 159.60 L 145.14 158.50 C 145.14 157.24 144.11 156.21 142.85 156.21 C 141.58 156.21 140.56 157.24 140.56 158.50 Z M 140.56 159.60 L 140.56 160.52 C 140.56 161.79 141.58 162.82 142.85 162.82 C 144.11 162.82 145.14 161.79 145.14 160.53 L 145.14 159.60 C 145.14 158.34 144.12 157.31 142.85 157.31 C 141.58 157.31 140.56 158.33 140.56 159.60 Z M 140.56 160.52 L 140.55 161.50 C 140.55 162.77 141.57 163.80 142.84 163.80 C 144.10 163.81 145.13 162.79 145.14 161.52 L 145.14 160.53 C 145.14 159.27 144.12 158.24 142.86 158.23 C 141.59 158.23 140.56 159.25 140.56 160.52 Z M 140.55 161.49 L 140.54 162.51 C 140.53 163.78 141.55 164.82 142.81 164.83 C 144.08 164.84 145.12 163.82 145.13 162.56 L 145.14 161.53 C 145.15 160.27 144.13 159.23 142.87 159.22 C 141.60 159.21 140.56 160.22 140.55 161.49 Z M 140.54 162.49 L 140.52 163.54 C 140.50 164.80 141.51 165.85 142.78 165.87 C 144.04 165.89 145.09 164.88 145.11 163.62 L 145.13 162.58 C 145.15 161.31 144.14 160.27 142.88 160.24 C 141.61 160.22 140.57 161.23 140.54 162.49 Z M 140.52 163.51 L 140.49 164.54 C 140.46 165.81 141.45 166.87 142.72 166.90 C 143.98 166.94 145.04 165.94 145.08 164.68 L 145.11 163.64 C 145.15 162.38 144.15 161.32 142.88 161.29 C 141.62 161.25 140.56 162.24 140.52 163.51 Z M 140.49 164.52 L 140.45 165.53 C 140.40 166.80 141.38 167.87 142.65 167.92 C 143.91 167.97 144.98 166.99 145.03 165.72 L 145.08 164.71 C 145.13 163.44 144.15 162.37 142.88 162.32 C 141.62 162.27 140.55 163.25 140.49 164.52 Z M 140.45 165.52 L 140.41 166.52 C 140.34 167.78 141.32 168.86 142.59 168.92 C 143.85 168.98 144.92 168.00 144.99 166.74 L 145.03 165.74 C 145.09 164.47 144.12 163.40 142.85 163.34 C 141.59 163.28 140.51 164.25 140.45 165.52 Z M 140.41 166.52 L 140.36 167.51 C 140.30 168.77 141.27 169.85 142.54 169.91 C 143.80 169.97 144.88 169.00 144.94 167.73 L 144.99 166.74 C 145.05 165.48 144.07 164.40 142.81 164.34 C 141.54 164.28 140.47 165.25 140.41 166.52 Z M 140.36 167.52 L 140.31 168.51 C 140.26 169.77 141.24 170.84 142.51 170.89 C 143.77 170.95 144.84 169.97 144.90 168.70 L 144.94 167.72 C 144.99 166.45 144.01 165.38 142.75 165.33 C 141.48 165.27 140.41 166.26 140.36 167.52 Z M 140.31 168.53 L 140.28 169.56 C 140.24 170.83 141.24 171.89 142.50 171.93 C 143.77 171.96 144.82 170.97 144.86 169.71 L 144.90 168.68 C 144.94 167.41 143.94 166.35 142.68 166.31 C 141.41 166.27 140.35 167.27 140.31 168.53 Z M 140.28 169.59 L 140.26 170.63 C 140.23 171.90 141.24 172.95 142.51 172.97 C 143.77 173.00 144.82 171.99 144.84 170.73 L 144.86 169.68 C 144.89 168.41 143.88 167.37 142.62 167.34 C 141.35 167.32 140.31 168.32 140.28 169.59 Z M 140.26 170.65 L 140.25 171.66 C 140.23 172.93 141.24 173.97 142.51 173.99 C 143.77 174.00 144.81 172.99 144.83 171.73 L 144.84 170.71 C 144.86 169.44 143.85 168.40 142.58 168.39 C 141.32 168.37 140.28 169.38 140.26 170.65 Z M 140.25 171.67 L 140.23 172.63 C 140.22 173.90 141.23 174.94 142.50 174.95 C 143.76 174.97 144.80 173.96 144.82 172.69 L 144.83 171.72 C 144.85 170.46 143.83 169.42 142.57 169.40 C 141.30 169.39 140.26 170.40 140.25 171.67 Z M 140.23 172.62 L 140.22 173.58 C 140.19 174.84 141.20 175.89 142.47 175.91 C 143.73 175.93 144.78 174.92 144.80 173.66 L 144.82 172.70 C 144.84 171.44 143.83 170.39 142.57 170.37 C 141.30 170.35 140.26 171.36 140.23 172.62 Z M 140.22 173.55 L 140.19 174.57 C 140.15 175.84 141.15 176.89 142.41 176.93 C 143.68 176.96 144.73 175.97 144.77 174.70 L 144.80 173.68 C 144.84 172.42 143.84 171.36 142.57 171.33 C 141.31 171.29 140.25 172.29 140.22 173.55 Z M 140.19 174.56 L 140.16 175.53 C 140.11 176.80 141.11 177.85 142.37 177.90 C 143.63 177.94 144.69 176.95 144.74 175.68 L 144.77 174.71 C 144.81 173.45 143.82 172.39 142.56 172.35 C 141.29 172.30 140.23 173.30 140.19 174.56 Z M 140.16 175.54 L 140.13 176.52 C 140.09 177.79 141.09 178.84 142.35 178.88 C 143.62 178.92 144.67 177.92 144.71 176.66 L 144.74 175.67 C 144.77 174.41 143.78 173.35 142.51 173.32 C 141.25 173.28 140.19 174.28 140.16 175.54 Z M 140.13 176.55 L 140.11 177.53 C 140.08 178.80 141.09 179.84 142.36 179.87 C 143.62 179.89 144.67 178.88 144.69 177.62 L 144.71 176.63 C 144.73 175.37 143.73 174.32 142.46 174.30 C 141.19 174.27 140.15 175.28 140.13 176.55 Z M 140.10 177.55 L 140.09 178.56 C 140.08 179.83 141.10 180.87 142.37 180.88 C 143.64 180.89 144.68 179.87 144.69 178.60 L 144.70 177.59 C 144.71 176.32 143.69 175.28 142.42 175.27 C 141.15 175.26 140.11 176.28 140.10 177.55 Z M 140.08 178.57 L 140.08 179.59 C 140.08 180.87 141.10 181.91 142.38 181.91 C 143.65 181.91 144.69 180.88 144.69 179.61 L 144.70 178.59 C 144.70 177.32 143.67 176.28 142.40 176.27 C 141.12 176.27 140.09 177.30 140.08 178.57 Z M 140.07 179.60 L 140.07 180.60 C 140.07 181.87 141.11 182.91 142.39 182.91 C 143.66 182.91 144.70 181.88 144.70 180.60 L 144.70 179.60 C 144.70 178.32 143.67 177.29 142.39 177.29 C 141.11 177.29 140.07 178.32 140.07 179.60 Z M 140.07 180.60 L 140.07 181.65 C 140.07 182.93 141.11 183.97 142.39 183.97 C 143.67 183.97 144.70 182.93 144.70 181.65 L 144.70 180.60 C 144.70 179.32 143.67 178.28 142.39 178.28 C 141.11 178.28 140.07 179.32 140.07 180.60 Z M 140.07 181.65 L 140.07 182.66 C 140.07 183.94 141.11 184.97 142.39 184.97 C 143.67 184.97 144.70 183.94 144.70 182.66 L 144.70 181.65 C 144.70 180.38 143.67 179.34 142.39 179.34 C 141.11 179.34 140.07 180.38 140.07 181.65 Z M 140.07 182.66 L 140.07 183.62 C 140.07 184.90 141.11 185.93 142.39 185.93 C 143.66 185.93 144.70 184.90 144.70 183.62 L 144.70 182.66 C 144.70 181.38 143.66 180.34 142.39 180.34 C 141.11 180.34 140.07 181.38 140.07 182.66 Z M 140.07 183.62 L 140.08 184.61 C 140.08 185.88 141.11 186.92 142.39 186.92 C 143.67 186.92 144.70 185.88 144.70 184.60 L 144.70 183.62 C 144.70 182.34 143.66 181.31 142.38 181.31 C 141.11 181.31 140.07 182.34 140.07 183.62 Z M 140.08 184.65 L 140.10 185.65 C 140.12 186.93 141.18 187.95 142.45 187.92 C 143.73 187.90 144.74 186.84 144.72 185.57 L 144.70 184.56 C 144.67 183.28 143.62 182.27 142.34 182.29 C 141.07 182.32 140.05 183.37 140.08 184.65 Z M 140.10 185.77 L 140.17 186.76 C 140.26 188.03 141.36 188.99 142.64 188.91 C 143.91 188.82 144.87 187.71 144.78 186.44 L 144.71 185.45 C 144.63 184.18 143.52 183.21 142.25 183.30 C 140.97 183.39 140.01 184.50 140.10 185.77 Z M 140.19 186.95 L 140.34 187.92 C 140.53 189.19 141.71 190.06 142.97 189.86 C 144.24 189.67 145.11 188.49 144.91 187.23 L 144.77 186.25 C 144.57 184.98 143.39 184.12 142.13 184.31 C 140.86 184.50 139.99 185.68 140.19 186.95 Z M 140.36 188.10 L 140.58 189.07 C 140.87 190.32 142.13 191.10 143.38 190.81 C 144.63 190.52 145.41 189.27 145.12 188.02 L 144.89 187.05 C 144.60 185.80 143.35 185.02 142.10 185.31 C 140.85 185.60 140.07 186.85 140.36 188.10 Z M 140.59 189.15 L 140.85 190.12 C 141.18 191.37 142.47 192.11 143.72 191.77 C 144.97 191.44 145.71 190.15 145.37 188.91 L 145.11 187.94 C 144.78 186.69 143.49 185.95 142.24 186.28 C 140.99 186.62 140.25 187.90 140.59 189.15 Z M 140.83 190.10 L 141.08 191.05 C 141.40 192.31 142.69 193.07 143.95 192.74 C 145.20 192.42 145.96 191.13 145.64 189.87 L 145.39 188.92 C 145.06 187.66 143.78 186.91 142.52 187.23 C 141.26 187.56 140.51 188.84 140.83 190.10 Z M 141.05 191.01 L 141.28 191.95 C 141.58 193.22 142.85 194.00 144.13 193.70 C 145.40 193.40 146.18 192.12 145.88 190.85 L 145.66 189.92 C 145.36 188.65 144.08 187.86 142.81 188.16 C 141.54 188.46 140.75 189.74 141.05 191.01 Z M 141.27 191.96 L 141.51 192.94 C 141.82 194.21 143.10 195.00 144.38 194.69 C 145.65 194.37 146.44 193.09 146.13 191.81 L 145.89 190.84 C 145.58 189.56 144.29 188.78 143.02 189.09 C 141.74 189.40 140.96 190.69 141.27 191.96 Z M 141.51 193.01 L 141.79 194.03 C 142.14 195.30 143.46 196.05 144.73 195.70 C 146.00 195.35 146.75 194.04 146.40 192.77 L 146.12 191.75 C 145.77 190.47 144.46 189.73 143.19 190.07 C 141.91 190.42 141.17 191.74 141.51 193.01 Z M 141.83 194.15 L 142.15 195.14 C 142.57 196.39 143.92 197.07 145.18 196.66 C 146.43 196.24 147.11 194.89 146.69 193.63 L 146.37 192.64 C 145.95 191.39 144.60 190.71 143.34 191.13 C 142.09 191.54 141.41 192.90 141.83 194.15 Z M 142.24 195.37 L 142.66 196.31 C 143.21 197.51 144.62 198.05 145.83 197.51 C 147.03 196.97 147.57 195.55 147.03 194.34 L 146.61 193.41 C 146.06 192.20 144.65 191.66 143.44 192.21 C 142.24 192.75 141.70 194.16 142.24 195.37 Z M 142.88 196.69 L 143.42 197.47 C 144.17 198.56 145.66 198.83 146.75 198.08 C 147.84 197.33 148.11 195.83 147.36 194.75 L 146.81 193.96 C 146.06 192.88 144.57 192.61 143.48 193.36 C 142.40 194.11 142.13 195.60 142.88 196.69 Z M 143.92 198.00 L 144.61 198.53 C 145.65 199.35 147.16 199.16 147.97 198.12 C 148.78 197.07 148.59 195.57 147.55 194.76 L 146.86 194.22 C 145.82 193.41 144.31 193.60 143.50 194.64 C 142.69 195.68 142.88 197.19 143.92 198.00 Z M 145.30 198.91 L 146.15 199.20 C 147.40 199.63 148.76 198.97 149.19 197.72 C 149.62 196.47 148.95 195.11 147.71 194.67 L 146.86 194.38 C 145.61 193.95 144.25 194.62 143.81 195.87 C 143.38 197.12 144.05 198.48 145.30 198.91 Z M 146.63 199.31 L 147.63 199.44 C 148.95 199.60 150.14 198.67 150.31 197.36 C 150.47 196.05 149.54 194.85 148.23 194.69 L 147.22 194.56 C 145.91 194.40 144.71 195.33 144.55 196.64 C 144.39 197.95 145.32 199.15 146.63 199.31 Z M 147.85 199.45 L 149.00 199.49 C 150.32 199.54 151.43 198.50 151.47 197.18 C 151.52 195.86 150.48 194.75 149.16 194.71 L 148.01 194.67 C 146.69 194.63 145.58 195.66 145.54 196.98 C 145.50 198.30 146.53 199.41 147.85 199.45 Z M 149.05 199.48 L 150.02 199.50 C 151.34 199.51 152.42 198.46 152.43 197.14 C 152.45 195.83 151.40 194.75 150.08 194.73 L 149.11 194.72 C 147.79 194.70 146.71 195.75 146.70 197.07 C 146.68 198.39 147.73 199.47 149.05 199.48 Z M 150.04 199.48 L 151.06 199.48 C 152.37 199.49 153.43 198.44 153.44 197.13 C 153.44 195.83 152.39 194.76 151.09 194.75 L 150.06 194.75 C 148.76 194.74 147.69 195.79 147.69 197.10 C 147.68 198.41 148.73 199.47 150.04 199.48 Z M 151.08 199.46 L 152.11 199.46 C 153.40 199.46 154.45 198.41 154.45 197.11 C 154.45 195.82 153.40 194.77 152.10 194.77 L 151.07 194.77 C 149.77 194.78 148.73 195.83 148.73 197.12 C 148.73 198.42 149.78 199.47 151.08 199.46 Z M 152.13 199.44 L 153.13 199.44 C 154.42 199.43 155.45 198.38 155.44 197.09 C 155.43 195.81 154.38 194.77 153.09 194.78 L 152.09 194.79 C 150.80 194.80 149.77 195.85 149.78 197.14 C 149.79 198.42 150.84 199.46 152.13 199.44 Z M 153.15 199.42 L 154.15 199.40 C 155.43 199.38 156.44 198.33 156.42 197.06 C 156.40 195.78 155.35 194.77 154.08 194.79 L 153.08 194.80 C 151.80 194.82 150.79 195.87 150.81 197.15 C 150.83 198.42 151.88 199.44 153.15 199.42 Z M 154.17 199.38 L 155.20 199.35 C 156.46 199.32 157.46 198.27 157.43 197.01 C 157.40 195.75 156.35 194.75 155.09 194.78 L 154.06 194.81 C 152.80 194.84 151.80 195.89 151.83 197.15 C 151.86 198.41 152.91 199.41 154.17 199.38 Z M 155.21 199.33 L 156.18 199.30 C 157.43 199.26 158.41 198.22 158.38 196.97 C 158.34 195.72 157.30 194.74 156.05 194.78 L 155.08 194.81 C 153.83 194.85 152.85 195.89 152.89 197.14 C 152.92 198.38 153.97 199.36 155.21 199.33 Z M 156.18 199.27 L 157.15 199.24 C 158.38 199.21 159.35 198.18 159.32 196.95 C 159.28 195.71 158.25 194.74 157.02 194.78 L 156.05 194.80 C 154.82 194.84 153.85 195.87 153.88 197.10 C 153.92 198.33 154.95 199.31 156.18 199.27 Z M 157.13 199.22 L 158.12 199.20 C 159.34 199.18 160.31 198.17 160.28 196.95 C 160.26 195.73 159.25 194.76 158.03 194.78 L 157.04 194.80 C 155.82 194.83 154.85 195.84 154.87 197.06 C 154.90 198.28 155.91 199.24 157.13 199.22 Z M 158.10 199.17 L 159.11 199.16 C 160.31 199.15 161.28 198.16 161.27 196.95 C 161.25 195.75 160.26 194.78 159.06 194.80 L 158.05 194.81 C 156.84 194.82 155.88 195.81 155.89 197.02 C 155.90 198.22 156.89 199.19 158.10 199.17 Z M 159.09 199.14 L 160.12 199.13 C 161.31 199.12 162.27 198.15 162.27 196.96 C 162.26 195.77 161.29 194.81 160.10 194.82 L 159.07 194.82 C 157.88 194.83 156.92 195.80 156.93 196.99 C 156.93 198.18 157.90 199.14 159.09 199.14 Z M 160.11 199.10 L 161.12 199.10 C 162.30 199.10 163.25 198.15 163.25 196.97 C 163.24 195.79 162.29 194.84 161.11 194.84 L 160.11 194.84 C 158.93 194.85 157.98 195.80 157.98 196.98 C 157.98 198.15 158.94 199.11 160.11 199.10 Z M 161.12 199.07 L 162.11 199.07 C 163.27 199.07 164.21 198.13 164.21 196.97 C 164.21 195.81 163.27 194.87 162.11 194.87 L 161.11 194.87 C 159.96 194.87 159.02 195.81 159.02 196.97 C 159.02 198.13 159.96 199.07 161.12 199.07 Z M 162.13 199.02 L 163.18 199.01 C 164.31 199.00 165.22 198.07 165.21 196.94 C 165.20 195.81 164.27 194.90 163.14 194.91 L 162.09 194.92 C 160.96 194.93 160.05 195.86 160.06 196.99 C 160.07 198.13 161.00 199.04 162.13 199.02 Z M 163.27 198.95 L 164.24 198.89 C 165.34 198.83 166.18 197.89 166.12 196.79 C 166.06 195.69 165.11 194.85 164.02 194.92 L 163.04 194.97 C 161.95 195.03 161.11 195.98 161.17 197.07 C 161.23 198.17 162.17 199.01 163.27 198.95 Z M 164.40 198.82 L 165.35 198.68 C 166.40 198.53 167.14 197.56 166.99 196.50 C 166.84 195.44 165.86 194.71 164.80 194.86 L 163.86 194.99 C 162.80 195.14 162.07 196.12 162.22 197.18 C 162.37 198.23 163.34 198.97 164.40 198.82 Z M 165.53 198.60 L 166.46 198.36 C 167.47 198.11 168.08 197.09 167.83 196.08 C 167.57 195.08 166.55 194.46 165.55 194.72 L 164.62 194.95 C 163.61 195.20 163.00 196.22 163.25 197.23 C 163.50 198.24 164.52 198.85 165.53 198.60 Z M 166.59 198.28 L 167.53 197.97 C 168.49 197.65 169.01 196.60 168.69 195.64 C 168.36 194.68 167.32 194.16 166.36 194.48 L 165.42 194.80 C 164.45 195.12 163.93 196.16 164.26 197.12 C 164.58 198.09 165.62 198.61 166.59 198.28 Z M 167.59 197.90 L 168.54 197.53 C 169.47 197.18 169.93 196.13 169.57 195.21 C 169.22 194.28 168.17 193.82 167.25 194.18 L 166.29 194.55 C 165.37 194.90 164.91 195.95 165.26 196.87 C 165.62 197.80 166.66 198.26 167.59 197.90 Z M 168.56 197.49 L 169.22 197.22 C 170.13 196.86 170.56 195.83 170.19 194.92 C 169.83 194.02 168.79 193.58 167.89 193.95 L 167.23 194.22 C 166.33 194.59 165.89 195.62 166.26 196.52 C 166.63 197.42 167.66 197.86 168.56 197.49 Z"
      fill="black"
      fill-rule="nonzero" /></svg>