<svg xmlns="http://www.w3.org/2000/svg" version="1.0" width="937.000000pt" height="937.000000pt" viewBox="0 0 937.000000 937.000000" preserveAspectRatio="xMidYMid meet">
  <defs/>
  <path fill="#000000" d="M516,371.7 C494.5,373.2 471.8,377.5 444.5,385.3 C433.3,388.5 422.8,390.9 419,391.1 L412.6,391.5 L412.9,386.8 C413.1,383.2 412.7,381.7 411.1,380.1 C408.5,377.5 405.6,377.4 403.1,379.9 C400.7,382.3 398.6,394.6 399.4,401.7 C401,415.6 420.6,458.7 430.1,469.3 L435.3,475.1 L438.4,474.8 C440.7,474.6 441.7,473.8 442.4,471.9 L443.3,469.3 L439.2,463.8 C434.4,457.5 426,439.5 418.5,419.5 L413.2,405.5 L422.5,404.3 C427.6,403.7 438.7,401.1 447.1,398.6 C463.6,393.6 483.9,389.1 501.1,386.6 C511.5,385 542,384.3 542,385.6 C542,386 540.5,388.6 538.6,391.4 C528.6,406.6 514.7,443.8 501.1,492.2 C491,527.8 484,565.3 481.9,594.8 C480.5,613.5 481.5,622.3 486.3,631.9 L489.5,638.5 L492.9,638.5 C498.3,638.5 498.9,636.3 496,628.3 L493.5,621.5 L493.7,610.9 C494.2,583.1 504.3,533.5 519.8,482 C535,431.8 544.8,407.8 555.6,393.9 C560.2,388.1 561.3,383.3 559,378.9 C555.7,372.8 539.2,370 516,371.7 Z"/>
</svg>

