<svg xmlns="http://www.w3.org/2000/svg" version="1.0" width="937.000000pt" height="937.000000pt" viewBox="0 0 937.000000 937.000000" preserveAspectRatio="xMidYMid meet">
  <defs/>
  <path fill="#000000" d="M486.9,263.1 C485.2,264.8 484.9,266 485.4,268.8 C486,272.6 486.9,288.1 489.6,340 C490.5,357.7 491.6,371 492.2,371.7 C493.5,373.4 498.4,373.4 499.8,371.7 C501,370.2 501.7,277.4 500.5,271.5 C499.5,266.3 497.5,262.4 495.5,261.6 C492.4,260.4 489,261 486.9,263.1 Z"/>
  <path fill="#000000" d="M439.5,275.2 L436.9,277.5 L436.3,285 C435.7,293.3 438.3,314.7 442.6,336 C445.3,349.9 447,355.8 450.7,364.2 C453.3,370.1 455.4,371.6 459,370.5 C462.2,369.5 462.4,365.7 459.7,358.8 C458.3,355.3 456.7,348.7 456.1,344 C453.4,322.5 451,295.6 451,286.8 L451,277.1 L448.4,275.1 C445,272.4 442.7,272.5 439.5,275.2 Z"/>
</svg>

