<svg xmlns="http://www.w3.org/2000/svg" width="300" height="300" viewBox="0 0 300 300">
<path d="M 112.46 122.50 L 112.46 123.45 C 112.46 124.67 113.45 125.66 114.68 125.66 C 115.90 125.66 116.89 124.67 116.89 123.45 L 116.89 122.50 C 116.89 121.28 115.90 120.29 114.68 120.29 C 113.45 120.29 112.46 121.28 112.46 122.50 Z M 112.46 123.45 L 112.46 124.41 C 112.46 125.64 113.45 126.63 114.68 126.63 C 115.90 126.63 116.89 125.64 116.89 124.41 L 116.89 123.45 C 116.89 122.22 115.90 121.23 114.68 121.23 C 113.45 121.23 112.46 122.22 112.46 123.45 Z M 112.46 124.41 L 112.46 125.43 C 112.46 126.65 113.45 127.64 114.68 127.64 C 115.90 127.64 116.89 126.65 116.89 125.43 L 116.89 124.41 C 116.89 123.19 115.90 122.20 114.68 122.20 C 113.45 122.20 112.46 123.19 112.46 124.41 Z M 112.46 125.43 L 112.46 126.50 C 112.46 127.72 113.45 128.71 114.68 128.71 C 115.90 128.71 116.89 127.72 116.89 126.50 L 116.89 125.43 C 116.89 124.20 115.90 123.21 114.68 123.21 C 113.45 123.21 112.46 124.20 112.46 125.43 Z M 112.46 126.50 L 112.46 127.44 C 112.46 128.66 113.45 129.65 114.68 129.65 C 115.90 129.65 116.89 128.66 116.89 127.44 L 116.89 126.50 C 116.89 125.27 115.90 124.28 114.68 124.28 C 113.45 124.28 112.46 125.27 112.46 126.50 Z M 112.46 127.44 L 112.46 128.42 C 112.46 129.65 113.45 130.64 114.68 130.64 C 115.90 130.64 116.89 129.65 116.89 128.42 L 116.89 127.44 C 116.89 126.21 115.90 125.22 114.68 125.22 C 113.45 125.22 112.46 126.21 112.46 127.44 Z M 112.46 128.42 L 112.46 129.44 C 112.46 130.66 113.45 131.66 114.68 131.66 C 115.90 131.66 116.89 130.66 116.89 129.44 L 116.89 128.42 C 116.89 127.20 115.90 126.20 114.68 126.20 C 113.45 126.20 112.46 127.20 112.46 128.42 Z M 112.46 129.44 L 112.46 130.47 C 112.46 131.70 113.45 132.69 114.68 132.69 C 115.90 132.69 116.89 131.70 116.89 130.47 L 116.89 129.44 C 116.89 128.21 115.90 127.22 114.68 127.22 C 113.45 127.22 112.46 128.21 112.46 129.44 Z M 112.46 130.47 L 112.46 131.52 C 112.46 132.74 113.45 133.74 114.68 133.74 C 115.90 133.74 116.90 132.74 116.90 131.52 L 116.90 130.47 C 116.90 129.25 115.90 128.26 114.68 128.26 C 113.45 128.26 112.46 129.25 112.46 130.47 Z M 112.46 131.52 L 112.46 132.58 C 112.46 133.81 113.46 134.80 114.68 134.80 C 115.91 134.80 116.90 133.80 116.90 132.58 L 116.90 131.52 C 116.89 130.29 115.90 129.30 114.68 129.30 C 113.45 129.30 112.46 130.30 112.46 131.52 Z M 112.46 132.59 L 112.47 133.63 C 112.47 134.85 113.47 135.84 114.69 135.83 C 115.92 135.83 116.91 134.83 116.90 133.61 L 116.90 132.57 C 116.89 131.35 115.89 130.36 114.67 130.36 C 113.44 130.37 112.46 131.37 112.46 132.59 Z M 112.47 133.64 L 112.48 134.64 C 112.49 135.86 113.50 136.84 114.72 136.83 C 115.95 136.81 116.93 135.81 116.91 134.58 L 116.90 133.59 C 116.89 132.37 115.88 131.38 114.66 131.40 C 113.43 131.41 112.45 132.42 112.47 133.64 Z M 112.48 134.66 L 112.50 135.60 C 112.53 136.82 113.54 137.79 114.77 137.76 C 115.99 137.74 116.96 136.72 116.93 135.50 L 116.91 134.56 C 116.88 133.33 115.87 132.36 114.64 132.39 C 113.42 132.42 112.45 133.44 112.48 134.66 Z M 112.50 135.64 L 112.54 136.67 C 112.59 137.89 113.63 138.84 114.85 138.79 C 116.07 138.74 117.03 137.71 116.97 136.48 L 116.93 135.46 C 116.88 134.23 115.85 133.28 114.63 133.33 C 113.40 133.38 112.45 134.41 112.50 135.64 Z M 112.55 136.72 L 112.62 137.76 C 112.70 138.98 113.75 139.91 114.98 139.83 C 116.20 139.74 117.12 138.69 117.04 137.47 L 116.97 136.43 C 116.89 135.21 115.83 134.28 114.61 134.36 C 113.39 134.44 112.46 135.50 112.55 136.72 Z M 112.62 137.82 L 112.71 138.77 C 112.82 139.99 113.90 140.89 115.12 140.78 C 116.34 140.66 117.24 139.58 117.12 138.36 L 117.04 137.41 C 116.92 136.19 115.84 135.29 114.62 135.40 C 113.40 135.52 112.51 136.60 112.62 137.82 Z M 112.71 138.82 L 112.82 139.74 C 112.96 140.96 114.06 141.83 115.27 141.69 C 116.49 141.55 117.36 140.45 117.23 139.24 L 117.12 138.32 C 116.98 137.10 115.88 136.23 114.66 136.37 C 113.45 136.51 112.57 137.60 112.71 138.82 Z M 112.82 139.78 L 112.95 140.76 C 113.11 141.98 114.23 142.83 115.44 142.67 C 116.66 142.51 117.51 141.40 117.35 140.18 L 117.22 139.20 C 117.06 137.98 115.95 137.13 114.73 137.29 C 113.52 137.45 112.66 138.56 112.82 139.78 Z M 112.96 140.79 L 113.10 141.78 C 113.28 142.99 114.41 143.83 115.62 143.65 C 116.83 143.47 117.67 142.34 117.49 141.13 L 117.35 140.15 C 117.17 138.94 116.04 138.10 114.83 138.28 C 113.62 138.46 112.78 139.58 112.96 140.79 Z M 113.11 141.81 L 113.27 142.80 C 113.46 144.01 114.60 144.84 115.81 144.64 C 117.02 144.45 117.84 143.31 117.65 142.10 L 117.49 141.10 C 117.29 139.90 116.15 139.07 114.95 139.27 C 113.74 139.46 112.91 140.60 113.11 141.81 Z M 113.27 142.83 L 113.44 143.80 C 113.64 145.01 114.79 145.82 116.00 145.61 C 117.20 145.41 118.01 144.26 117.81 143.06 L 117.64 142.08 C 117.44 140.87 116.29 140.06 115.08 140.27 C 113.88 140.47 113.06 141.62 113.27 142.83 Z M 113.44 143.82 L 113.62 144.81 C 113.84 146.02 114.99 146.81 116.20 146.60 C 117.40 146.38 118.20 145.22 117.98 144.02 L 117.80 143.03 C 117.58 141.83 116.43 141.03 115.23 141.25 C 114.02 141.47 113.22 142.62 113.44 143.82 Z M 113.63 144.84 L 113.82 145.83 C 114.05 147.03 115.22 147.81 116.42 147.58 C 117.62 147.35 118.40 146.18 118.17 144.98 L 117.98 143.99 C 117.74 142.79 116.58 142.00 115.38 142.24 C 114.18 142.47 113.39 143.64 113.63 144.84 Z M 113.83 145.86 L 114.03 146.85 C 114.29 148.05 115.46 148.82 116.66 148.57 C 117.86 148.32 118.62 147.14 118.37 145.94 L 118.16 144.95 C 117.91 143.75 116.74 142.98 115.54 143.24 C 114.34 143.49 113.57 144.66 113.83 145.86 Z M 114.04 146.89 L 114.26 147.87 C 114.53 149.07 115.72 149.82 116.91 149.55 C 118.11 149.28 118.86 148.09 118.59 146.90 L 118.36 145.91 C 118.10 144.72 116.91 143.97 115.72 144.24 C 114.52 144.51 113.77 145.69 114.04 146.89 Z M 114.27 147.90 L 114.50 148.87 C 114.78 150.06 115.98 150.79 117.17 150.51 C 118.36 150.23 119.09 149.03 118.81 147.84 L 118.58 146.87 C 118.30 145.68 117.10 144.95 115.91 145.23 C 114.72 145.51 113.99 146.71 114.27 147.90 Z M 114.51 148.89 L 114.74 149.84 C 115.04 151.03 116.24 151.75 117.43 151.46 C 118.61 151.16 119.34 149.96 119.04 148.78 L 118.81 147.82 C 118.51 146.63 117.31 145.91 116.12 146.20 C 114.94 146.50 114.21 147.70 114.51 148.89 Z M 114.75 149.86 L 115.00 150.83 C 115.30 152.02 116.51 152.73 117.69 152.43 C 118.88 152.12 119.59 150.92 119.29 149.73 L 119.04 148.76 C 118.73 147.57 117.53 146.86 116.34 147.16 C 115.16 147.47 114.44 148.68 114.75 149.86 Z M 115.00 150.85 L 115.26 151.81 C 115.57 152.99 116.79 153.70 117.97 153.38 C 119.15 153.07 119.85 151.85 119.54 150.67 L 119.28 149.71 C 118.97 148.53 117.75 147.83 116.57 148.14 C 115.39 148.46 114.69 149.67 115.00 150.85 Z M 115.27 151.83 L 115.53 152.79 C 115.86 153.97 117.08 154.66 118.26 154.33 C 119.44 154.00 120.13 152.78 119.80 151.61 L 119.53 150.65 C 119.20 149.47 117.98 148.78 116.81 149.11 C 115.63 149.44 114.94 150.66 115.27 151.83 Z M 115.54 152.82 L 115.81 153.76 C 116.15 154.93 117.38 155.61 118.56 155.27 C 119.73 154.92 120.41 153.70 120.06 152.52 L 119.79 151.58 C 119.45 150.41 118.22 149.73 117.05 150.07 C 115.87 150.41 115.20 151.64 115.54 152.82 Z M 115.82 153.79 L 116.12 154.75 C 116.47 155.91 117.71 156.57 118.88 156.21 C 120.05 155.85 120.71 154.61 120.35 153.45 L 120.05 152.49 C 119.70 151.32 118.46 150.66 117.29 151.02 C 116.12 151.38 115.46 152.62 115.82 153.79 Z M 116.13 154.79 L 116.45 155.76 C 116.83 156.92 118.08 157.55 119.24 157.17 C 120.40 156.79 121.03 155.54 120.65 154.38 L 120.34 153.41 C 119.95 152.24 118.70 151.61 117.54 151.99 C 116.38 152.37 115.75 153.62 116.13 154.79 Z M 116.46 155.80 L 116.79 156.74 C 117.20 157.89 118.46 158.49 119.62 158.08 C 120.77 157.68 121.37 156.41 120.97 155.26 L 120.64 154.33 C 120.23 153.18 118.96 152.57 117.81 152.98 C 116.66 153.39 116.06 154.65 116.46 155.80 Z M 116.82 156.81 L 117.19 157.73 C 117.63 158.87 118.92 159.43 120.05 158.98 C 121.19 158.54 121.75 157.26 121.30 156.12 L 120.94 155.19 C 120.49 154.05 119.21 153.49 118.07 153.94 C 116.94 154.39 116.38 155.67 116.82 156.81 Z M 117.23 157.83 L 117.64 158.75 C 118.14 159.86 119.45 160.36 120.56 159.86 C 121.67 159.36 122.17 158.06 121.67 156.94 L 121.26 156.02 C 120.76 154.91 119.45 154.41 118.34 154.91 C 117.23 155.41 116.73 156.72 117.23 157.83 Z M 117.71 158.87 L 118.18 159.77 C 118.74 160.85 120.08 161.26 121.16 160.70 C 122.23 160.13 122.65 158.80 122.08 157.72 L 121.61 156.82 C 121.04 155.74 119.71 155.33 118.63 155.90 C 117.55 156.46 117.14 157.80 117.71 158.87 Z M 118.26 159.91 L 118.80 160.77 C 119.44 161.80 120.80 162.12 121.83 161.47 C 122.87 160.83 123.18 159.47 122.53 158.44 L 122.00 157.58 C 121.35 156.55 119.99 156.23 118.96 156.88 C 117.93 157.52 117.62 158.88 118.26 159.91 Z M 118.91 160.93 L 119.51 161.73 C 120.24 162.70 121.62 162.89 122.59 162.16 C 123.56 161.43 123.76 160.05 123.02 159.08 L 122.42 158.28 C 121.69 157.31 120.31 157.11 119.34 157.85 C 118.37 158.58 118.18 159.96 118.91 160.93 Z M 119.66 161.90 L 120.33 162.62 C 121.16 163.51 122.55 163.55 123.44 162.73 C 124.33 161.90 124.37 160.51 123.54 159.62 L 122.87 158.90 C 122.05 158.01 120.65 157.97 119.77 158.79 C 118.88 159.62 118.83 161.01 119.66 161.90 Z M 120.53 162.80 L 121.29 163.45 C 122.22 164.22 123.61 164.10 124.39 163.17 C 125.17 162.24 125.05 160.86 124.12 160.08 L 123.35 159.43 C 122.42 158.65 121.03 158.78 120.25 159.71 C 119.47 160.64 119.60 162.02 120.53 162.80 Z M 121.50 163.59 L 122.33 164.14 C 123.34 164.81 124.70 164.53 125.37 163.52 C 126.03 162.50 125.75 161.14 124.74 160.48 L 123.91 159.93 C 122.90 159.26 121.54 159.54 120.87 160.55 C 120.20 161.57 120.48 162.93 121.50 163.59 Z M 122.51 164.25 L 123.39 164.71 C 124.46 165.28 125.79 164.87 126.36 163.80 C 126.92 162.73 126.52 161.41 125.45 160.84 L 124.56 160.37 C 123.49 159.80 122.16 160.21 121.60 161.28 C 121.03 162.35 121.44 163.68 122.51 164.25 Z M 123.54 164.78 L 124.45 165.19 C 125.56 165.67 126.85 165.17 127.34 164.06 C 127.83 162.95 127.32 161.66 126.21 161.17 L 125.30 160.77 C 124.19 160.28 122.90 160.79 122.41 161.90 C 121.92 163.00 122.43 164.30 123.54 164.78 Z M 124.57 165.23 L 125.51 165.58 C 126.64 166.01 127.90 165.43 128.33 164.30 C 128.75 163.16 128.18 161.90 127.04 161.48 L 126.10 161.13 C 124.97 160.70 123.70 161.28 123.28 162.41 C 122.86 163.55 123.43 164.81 124.57 165.23 Z M 125.59 165.61 L 126.55 165.92 C 127.70 166.30 128.93 165.67 129.31 164.52 C 129.69 163.37 129.06 162.13 127.91 161.76 L 126.95 161.45 C 125.80 161.07 124.57 161.70 124.19 162.85 C 123.81 164.00 124.44 165.24 125.59 165.61 Z M 126.61 165.95 L 127.57 166.23 C 128.73 166.57 129.95 165.90 130.29 164.74 C 130.63 163.58 129.97 162.36 128.81 162.02 L 127.84 161.74 C 126.68 161.40 125.46 162.06 125.12 163.22 C 124.78 164.38 125.45 165.60 126.61 165.95 Z M 127.61 166.24 L 128.58 166.51 C 129.75 166.83 130.96 166.14 131.28 164.97 C 131.60 163.80 130.91 162.59 129.74 162.27 L 128.77 162.01 C 127.60 161.69 126.39 162.37 126.07 163.54 C 125.75 164.71 126.44 165.92 127.61 166.24 Z M 128.59 166.51 L 129.55 166.77 C 130.73 167.08 131.93 166.39 132.24 165.21 C 132.56 164.04 131.86 162.83 130.68 162.52 L 129.72 162.26 C 128.55 161.95 127.34 162.65 127.03 163.82 C 126.72 165.00 127.42 166.20 128.59 166.51 Z M 129.54 166.77 L 130.50 167.03 C 131.67 167.35 132.88 166.66 133.20 165.48 C 133.52 164.31 132.83 163.10 131.65 162.78 L 130.70 162.52 C 129.52 162.20 128.31 162.89 127.99 164.07 C 127.67 165.24 128.37 166.45 129.54 166.77 Z M 130.47 167.03 L 131.42 167.30 C 132.60 167.63 133.82 166.95 134.15 165.77 C 134.48 164.60 133.80 163.38 132.62 163.05 L 131.67 162.78 C 130.50 162.45 129.28 163.13 128.95 164.30 C 128.62 165.48 129.30 166.70 130.47 167.03 Z M 131.42 167.30 L 132.38 167.57 C 133.56 167.90 134.78 167.22 135.11 166.05 C 135.44 164.87 134.76 163.65 133.59 163.32 L 132.62 163.05 C 131.45 162.72 130.23 163.40 129.90 164.57 C 129.57 165.75 130.25 166.97 131.42 167.30 Z M 132.41 167.58 L 133.39 167.84 C 134.57 168.16 135.78 167.47 136.10 166.29 C 136.42 165.11 135.72 163.90 134.55 163.58 L 133.56 163.31 C 132.39 162.99 131.17 163.69 130.85 164.87 C 130.53 166.04 131.23 167.26 132.41 167.58 Z M 133.43 167.86 L 134.38 168.10 C 135.57 168.40 136.77 167.68 137.07 166.49 C 137.37 165.31 136.65 164.10 135.46 163.81 L 134.51 163.57 C 133.32 163.27 132.12 163.99 131.82 165.17 C 131.52 166.36 132.24 167.56 133.43 167.86 Z M 134.42 168.11 L 135.39 168.34 C 136.59 168.61 137.78 167.87 138.05 166.68 C 138.33 165.49 137.59 164.30 136.40 164.02 L 135.43 163.79 C 134.24 163.52 133.04 164.26 132.77 165.45 C 132.49 166.64 133.23 167.83 134.42 168.11 Z M 135.43 168.35 L 136.41 168.56 C 137.61 168.82 138.79 168.06 139.05 166.86 C 139.31 165.67 138.55 164.49 137.35 164.23 L 136.37 164.01 C 135.17 163.75 133.99 164.51 133.73 165.71 C 133.47 166.90 134.23 168.09 135.43 168.35 Z M 136.44 168.57 L 137.43 168.77 C 138.63 169.01 139.81 168.24 140.05 167.04 C 140.29 165.84 139.52 164.66 138.32 164.42 L 137.33 164.22 C 136.12 163.97 134.95 164.75 134.71 165.95 C 134.46 167.15 135.24 168.32 136.44 168.57 Z M 137.47 168.78 L 138.46 168.96 C 139.67 169.19 140.83 168.39 141.05 167.18 C 141.27 165.98 140.48 164.82 139.27 164.60 L 138.28 164.41 C 137.07 164.19 135.92 164.98 135.69 166.19 C 135.47 167.40 136.26 168.55 137.47 168.78 Z M 138.51 168.97 L 139.50 169.13 C 140.71 169.33 141.85 168.50 142.05 167.29 C 142.24 166.08 141.42 164.94 140.20 164.74 L 139.22 164.58 C 138.01 164.39 136.87 165.21 136.67 166.43 C 136.48 167.64 137.30 168.78 138.51 168.97 Z M 139.57 169.14 L 140.54 169.27 C 141.76 169.43 142.88 168.57 143.03 167.35 C 143.19 166.13 142.33 165.01 141.11 164.86 L 140.13 164.73 C 138.92 164.57 137.80 165.44 137.64 166.65 C 137.49 167.87 138.35 168.99 139.57 169.14 Z M 140.62 169.28 L 141.60 169.37 C 142.82 169.48 143.90 168.58 144.02 167.35 C 144.13 166.13 143.23 165.05 142.00 164.94 L 141.03 164.85 C 139.80 164.74 138.72 165.64 138.61 166.86 C 138.50 168.09 139.40 169.17 140.62 169.28 Z M 141.67 169.38 L 142.66 169.43 C 143.88 169.51 144.94 168.57 145.01 167.34 C 145.08 166.11 144.14 165.06 142.92 164.99 L 141.93 164.93 C 140.70 164.86 139.65 165.79 139.58 167.02 C 139.50 168.25 140.44 169.30 141.67 169.38 Z M 142.71 169.44 L 143.73 169.47 C 144.96 169.51 145.99 168.55 146.04 167.32 C 146.08 166.09 145.12 165.06 143.89 165.02 L 142.86 164.98 C 141.63 164.94 140.60 165.90 140.56 167.13 C 140.52 168.36 141.48 169.39 142.71 169.44 Z M 143.77 169.47 L 144.77 169.49 C 146.00 169.52 147.02 168.54 147.04 167.30 C 147.06 166.07 146.08 165.06 144.85 165.03 L 143.85 165.02 C 142.62 164.99 141.60 165.97 141.58 167.20 C 141.56 168.44 142.54 169.45 143.77 169.47 Z M 144.79 169.50 L 145.80 169.51 C 147.04 169.52 148.05 168.53 148.06 167.29 C 148.07 166.06 147.08 165.05 145.84 165.04 L 144.83 165.03 C 143.60 165.02 142.59 166.01 142.58 167.24 C 142.56 168.48 143.56 169.49 144.79 169.50 Z M 145.81 169.51 L 146.83 169.52 C 148.06 169.52 149.07 168.52 149.08 167.28 C 149.08 166.05 148.08 165.04 146.84 165.04 L 145.83 165.03 C 144.59 165.03 143.58 166.03 143.58 167.27 C 143.58 168.50 144.58 169.51 145.81 169.51 Z M 146.83 169.52 L 147.82 169.52 C 149.06 169.52 150.07 168.52 150.07 167.28 C 150.07 166.04 149.07 165.03 147.83 165.03 L 146.84 165.03 C 145.60 165.03 144.59 166.03 144.59 167.27 C 144.59 168.52 145.59 169.52 146.83 169.52 Z M 147.82 169.53 L 148.87 169.53 C 150.11 169.53 151.12 168.52 151.12 167.28 C 151.12 166.03 150.11 165.03 148.87 165.03 L 147.82 165.03 C 146.58 165.03 145.58 166.03 145.58 167.28 C 145.58 168.52 146.58 169.53 147.82 169.53 Z M 148.87 169.53 L 149.87 169.53 C 151.11 169.53 152.12 168.52 152.12 167.28 C 152.12 166.03 151.11 165.03 149.87 165.03 L 148.87 165.03 C 147.63 165.03 146.62 166.03 146.62 167.28 C 146.62 168.52 147.63 169.53 148.87 169.53 Z M 149.87 169.53 L 150.84 169.53 C 152.08 169.53 153.09 168.52 153.09 167.28 C 153.09 166.03 152.08 165.03 150.84 165.03 L 149.87 165.03 C 148.62 165.03 147.62 166.03 147.62 167.28 C 147.62 168.52 148.62 169.53 149.87 169.53 Z M 150.84 169.53 L 151.83 169.53 C 153.07 169.53 154.08 168.52 154.08 167.28 C 154.08 166.03 153.07 165.02 151.83 165.02 L 150.84 165.02 C 149.59 165.02 148.58 166.03 148.58 167.28 C 148.58 168.52 149.59 169.53 150.84 169.53 Z M 151.83 169.54 L 152.83 169.54 C 154.08 169.54 155.09 168.53 155.09 167.28 C 155.09 166.03 154.08 165.01 152.83 165.01 L 151.83 165.01 C 150.58 165.01 149.57 166.03 149.57 167.28 C 149.57 168.53 150.58 169.54 151.83 169.54 Z M 152.83 169.55 L 153.83 169.55 C 155.08 169.55 156.10 168.53 156.10 167.28 C 156.10 166.02 155.08 165.01 153.83 165.01 L 152.83 165.01 C 151.58 165.01 150.56 166.02 150.56 167.28 C 150.56 168.53 151.58 169.55 152.83 169.55 Z M 153.83 169.55 L 154.83 169.55 C 156.08 169.55 157.10 168.53 157.10 167.28 C 157.10 166.02 156.08 165.00 154.82 165.00 L 153.83 165.00 C 152.57 165.00 151.55 166.02 151.55 167.28 C 151.55 168.53 152.57 169.55 153.83 169.55 Z M 154.84 169.55 L 155.84 169.55 C 157.10 169.54 158.11 168.51 158.10 167.25 C 158.09 165.99 157.06 164.98 155.81 164.99 L 154.81 165.00 C 153.55 165.01 152.54 166.03 152.55 167.29 C 152.56 168.55 153.58 169.56 154.84 169.55 Z M 155.89 169.55 L 156.89 169.52 C 158.14 169.48 159.13 168.43 159.10 167.17 C 159.06 165.91 158.01 164.93 156.75 164.96 L 155.76 164.99 C 154.50 165.03 153.51 166.08 153.55 167.34 C 153.58 168.59 154.63 169.58 155.89 169.55 Z M 156.97 169.51 L 157.97 169.45 C 159.22 169.36 160.17 168.28 160.09 167.02 C 160.01 165.77 158.92 164.82 157.67 164.90 L 156.67 164.97 C 155.41 165.05 154.46 166.13 154.55 167.39 C 154.63 168.64 155.71 169.59 156.97 169.51 Z M 158.07 169.44 L 159.06 169.33 C 160.31 169.19 161.21 168.06 161.08 166.82 C 160.94 165.57 159.81 164.66 158.56 164.80 L 157.57 164.91 C 156.32 165.05 155.42 166.17 155.56 167.42 C 155.69 168.67 156.82 169.57 158.07 169.44 Z M 159.16 169.31 L 160.16 169.15 C 161.40 168.96 162.24 167.80 162.05 166.56 C 161.86 165.32 160.70 164.47 159.46 164.66 L 158.46 164.82 C 157.22 165.01 156.37 166.17 156.57 167.41 C 156.76 168.65 157.92 169.50 159.16 169.31 Z M 160.26 169.13 L 161.24 168.93 C 162.47 168.68 163.26 167.48 163.01 166.25 C 162.75 165.02 161.55 164.23 160.33 164.48 L 159.35 164.69 C 158.12 164.94 157.33 166.14 157.58 167.37 C 157.83 168.59 159.03 169.38 160.26 169.13 Z M 161.36 168.90 L 162.34 168.64 C 163.55 168.33 164.27 167.08 163.95 165.87 C 163.64 164.66 162.39 163.94 161.18 164.26 L 160.21 164.51 C 158.99 164.83 158.27 166.07 158.59 167.29 C 158.91 168.50 160.15 169.22 161.36 168.90 Z M 162.48 168.60 L 163.43 168.28 C 164.62 167.89 165.25 166.60 164.86 165.41 C 164.46 164.22 163.17 163.58 161.98 163.98 L 161.04 164.30 C 159.85 164.70 159.21 165.99 159.61 167.17 C 160.01 168.36 161.30 169.00 162.48 168.60 Z M 163.59 168.22 L 164.50 167.84 C 165.66 167.34 166.19 166.01 165.70 164.86 C 165.21 163.70 163.88 163.17 162.73 163.66 L 161.82 164.04 C 160.66 164.54 160.12 165.87 160.62 167.02 C 161.11 168.18 162.44 168.71 163.59 168.22 Z M 164.67 167.76 L 165.53 167.31 C 166.64 166.72 167.07 165.35 166.48 164.24 C 165.90 163.13 164.53 162.70 163.42 163.29 L 162.56 163.74 C 161.45 164.32 161.02 165.69 161.60 166.80 C 162.19 167.91 163.56 168.34 164.67 167.76 Z M 165.65 167.23 L 166.50 166.72 C 167.57 166.07 167.91 164.67 167.26 163.60 C 166.61 162.53 165.21 162.19 164.14 162.84 L 163.29 163.36 C 162.22 164.01 161.88 165.41 162.53 166.48 C 163.19 167.55 164.58 167.89 165.65 167.23 Z M 166.58 166.67 L 167.44 166.09 C 168.48 165.40 168.76 163.99 168.06 162.94 C 167.37 161.90 165.96 161.62 164.91 162.32 L 164.06 162.89 C 163.02 163.59 162.74 165.00 163.43 166.04 C 164.13 167.08 165.54 167.36 166.58 166.67 Z M 167.48 166.06 L 168.30 165.49 C 169.33 164.77 169.58 163.35 168.86 162.32 C 168.13 161.30 166.72 161.05 165.69 161.77 L 164.87 162.35 C 163.84 163.07 163.60 164.48 164.32 165.51 C 165.04 166.54 166.46 166.79 167.48 166.06 Z M 168.33 165.47 L 169.15 164.88 C 170.17 164.15 170.40 162.73 169.66 161.71 C 168.93 160.69 167.50 160.46 166.48 161.19 L 165.67 161.79 C 164.65 162.52 164.42 163.94 165.15 164.96 C 165.89 165.98 167.31 166.21 168.33 165.47 Z M 169.17 164.87 L 169.98 164.28 C 170.99 163.53 171.21 162.11 170.46 161.09 C 169.72 160.08 168.29 159.86 167.28 160.61 L 166.47 161.20 C 165.45 161.95 165.24 163.37 165.98 164.39 C 166.73 165.40 168.15 165.62 169.17 164.87 Z M 169.99 164.27 L 170.80 163.67 C 171.81 162.92 172.02 161.49 171.27 160.48 C 170.52 159.47 169.09 159.26 168.08 160.01 L 167.27 160.61 C 166.26 161.36 166.04 162.79 166.80 163.80 C 167.55 164.81 168.97 165.03 169.99 164.27 Z M 170.82 163.66 L 171.63 163.04 C 172.63 162.28 172.82 160.85 172.06 159.84 C 171.29 158.84 169.86 158.65 168.86 159.41 L 168.05 160.03 C 167.05 160.79 166.86 162.22 167.62 163.22 C 168.39 164.23 169.82 164.42 170.82 163.66 Z M 171.69 162.99 L 172.45 162.36 C 173.42 161.56 173.57 160.13 172.77 159.15 C 171.97 158.18 170.53 158.04 169.56 158.84 L 168.80 159.47 C 167.82 160.26 167.68 161.70 168.48 162.67 C 169.28 163.65 170.72 163.79 171.69 162.99 Z M 172.56 162.27 L 173.27 161.60 C 174.20 160.75 174.25 159.31 173.39 158.38 C 172.54 157.46 171.09 157.41 170.17 158.26 L 169.45 158.93 C 168.53 159.79 168.48 161.23 169.33 162.15 C 170.19 163.07 171.63 163.13 172.56 162.27 Z M 173.39 161.49 L 174.07 160.75 C 174.93 159.83 174.88 158.39 173.96 157.53 C 173.03 156.68 171.59 156.73 170.73 157.65 L 170.05 158.38 C 169.20 159.30 169.25 160.75 170.17 161.60 C 171.09 162.46 172.53 162.41 173.39 161.49 Z M 174.17 160.64 L 174.80 159.87 C 175.60 158.89 175.45 157.45 174.48 156.66 C 173.50 155.86 172.07 156.01 171.27 156.98 L 170.64 157.76 C 169.84 158.74 169.99 160.17 170.96 160.97 C 171.94 161.76 173.37 161.62 174.17 160.64 Z M 174.88 159.76 L 175.47 158.96 C 176.21 157.94 175.98 156.51 174.96 155.77 C 173.95 155.03 172.52 155.26 171.78 156.28 L 171.19 157.08 C 170.45 158.10 170.68 159.53 171.70 160.27 C 172.72 161.01 174.14 160.78 174.88 159.76 Z M 175.53 158.86 L 176.08 158.02 C 176.77 156.97 176.47 155.56 175.42 154.87 C 174.36 154.18 172.95 154.48 172.26 155.53 L 171.72 156.37 C 171.03 157.43 171.33 158.84 172.38 159.53 C 173.43 160.21 174.85 159.92 175.53 158.86 Z M 176.14 157.92 L 176.64 157.05 C 177.27 155.96 176.90 154.57 175.81 153.94 C 174.72 153.31 173.33 153.69 172.70 154.77 L 172.20 155.64 C 171.57 156.73 171.95 158.12 173.03 158.75 C 174.12 159.38 175.51 159.00 176.14 157.92 Z M 176.70 156.94 L 177.15 156.05 C 177.72 154.93 177.27 153.56 176.14 152.99 C 175.02 152.43 173.66 152.88 173.09 154.00 L 172.64 154.89 C 172.08 156.01 172.53 157.38 173.65 157.94 C 174.77 158.51 176.14 158.06 176.70 156.94 Z M 177.20 155.93 L 177.59 155.04 C 178.09 153.89 177.57 152.55 176.42 152.05 C 175.27 151.55 173.93 152.08 173.42 153.23 L 173.04 154.12 C 172.54 155.27 173.06 156.61 174.21 157.11 C 175.36 157.61 176.70 157.08 177.20 155.93 Z M 177.63 154.94 L 177.98 154.01 C 178.43 152.84 177.84 151.53 176.67 151.08 C 175.49 150.64 174.18 151.23 173.73 152.40 L 173.38 153.33 C 172.94 154.50 173.53 155.82 174.70 156.26 C 175.88 156.71 177.19 156.11 177.63 154.94 Z M 178.02 153.93 L 178.34 152.95 C 178.74 151.76 178.09 150.47 176.90 150.07 C 175.71 149.68 174.43 150.32 174.03 151.51 L 173.70 152.49 C 173.31 153.68 173.95 154.97 175.14 155.36 C 176.33 155.76 177.62 155.12 178.02 153.93 Z M 178.36 152.88 L 178.64 151.95 C 179.00 150.75 178.32 149.49 177.12 149.13 C 175.91 148.77 174.65 149.45 174.29 150.65 L 174.01 151.58 C 173.65 152.78 174.33 154.04 175.53 154.40 C 176.74 154.76 178.00 154.08 178.36 152.88 Z M 178.65 151.91 L 178.92 150.96 C 179.25 149.75 178.54 148.50 177.33 148.16 C 176.13 147.83 174.87 148.53 174.54 149.74 L 174.28 150.70 C 173.94 151.90 174.65 153.16 175.86 153.49 C 177.07 153.83 178.32 153.12 178.65 151.91 Z M 178.92 150.92 L 179.18 149.94 C 179.50 148.72 178.77 147.48 177.56 147.17 C 176.35 146.85 175.11 147.58 174.79 148.79 L 174.53 149.78 C 174.21 150.99 174.94 152.23 176.15 152.55 C 177.37 152.86 178.61 152.14 178.92 150.92 Z M 179.19 149.92 L 179.44 148.91 C 179.75 147.70 179.01 146.46 177.79 146.16 C 176.58 145.85 175.34 146.59 175.04 147.80 L 174.78 148.81 C 174.48 150.02 175.22 151.26 176.43 151.56 C 177.65 151.87 178.88 151.13 179.19 149.92 Z M 179.44 148.90 L 179.69 147.90 C 179.98 146.69 179.24 145.46 178.02 145.16 C 176.80 144.86 175.57 145.61 175.28 146.83 L 175.03 147.82 C 174.74 149.04 175.48 150.27 176.70 150.56 C 177.92 150.86 179.15 150.11 179.44 148.90 Z M 179.69 147.87 L 179.92 146.89 C 180.20 145.66 179.44 144.45 178.22 144.17 C 177.00 143.89 175.78 144.65 175.50 145.87 L 175.27 146.86 C 174.99 148.08 175.75 149.30 176.97 149.58 C 178.19 149.86 179.41 149.10 179.69 147.87 Z M 179.93 146.84 L 180.13 145.88 C 180.39 144.65 179.60 143.45 178.37 143.19 C 177.15 142.94 175.95 143.72 175.69 144.95 L 175.49 145.91 C 175.23 147.14 176.02 148.34 177.25 148.60 C 178.47 148.85 179.67 148.07 179.93 146.84 Z M 180.14 145.81 L 180.32 144.83 C 180.53 143.60 179.71 142.42 178.48 142.20 C 177.24 141.98 176.07 142.81 175.85 144.04 L 175.68 145.02 C 175.46 146.25 176.28 147.43 177.51 147.64 C 178.75 147.86 179.92 147.04 180.14 145.81 Z M 180.33 144.75 L 180.46 143.76 C 180.64 142.52 179.77 141.38 178.54 141.20 C 177.30 141.03 176.15 141.89 175.98 143.13 L 175.84 144.12 C 175.67 145.36 176.53 146.50 177.77 146.68 C 179.01 146.85 180.15 145.99 180.33 144.75 Z M 180.47 143.69 L 180.58 142.72 C 180.72 141.48 179.82 140.36 178.58 140.22 C 177.34 140.08 176.22 140.98 176.08 142.22 L 175.97 143.20 C 175.83 144.44 176.73 145.56 177.97 145.69 C 179.21 145.83 180.33 144.94 180.47 143.69 Z M 180.58 142.68 L 180.67 141.69 C 180.79 140.45 179.88 139.35 178.63 139.23 C 177.39 139.11 176.29 140.02 176.17 141.27 L 176.08 142.26 C 175.96 143.50 176.87 144.60 178.12 144.72 C 179.36 144.84 180.46 143.92 180.58 142.68 Z M 180.67 141.68 L 180.76 140.70 C 180.87 139.45 179.95 138.36 178.71 138.25 C 177.46 138.14 176.37 139.06 176.26 140.30 L 176.17 141.28 C 176.06 142.52 176.98 143.62 178.23 143.73 C 179.47 143.84 180.56 142.92 180.67 141.68 Z M 180.75 140.68 L 180.84 139.68 C 180.94 138.44 180.01 137.35 178.77 137.25 C 177.53 137.15 176.44 138.07 176.34 139.31 L 176.26 140.32 C 176.16 141.56 177.08 142.64 178.33 142.75 C 179.57 142.85 180.65 141.92 180.75 140.68 Z M 180.84 139.66 L 180.91 138.65 C 181.00 137.41 180.07 136.33 178.83 136.24 C 177.59 136.15 176.51 137.08 176.42 138.32 L 176.34 139.33 C 176.25 140.57 177.18 141.65 178.42 141.74 C 179.66 141.83 180.74 140.90 180.84 139.66 Z M 180.91 138.63 L 180.97 137.61 C 181.05 136.38 180.11 135.31 178.87 135.23 C 177.63 135.15 176.57 136.09 176.49 137.33 L 176.42 138.34 C 176.34 139.58 177.28 140.65 178.52 140.73 C 179.76 140.81 180.83 139.87 180.91 138.63 Z M 180.97 137.59 L 181.02 136.59 C 181.09 135.35 180.14 134.30 178.91 134.23 C 177.67 134.16 176.61 135.11 176.55 136.34 L 176.49 137.35 C 176.42 138.58 177.37 139.64 178.61 139.71 C 179.84 139.78 180.90 138.83 180.97 137.59 Z M 181.02 136.58 L 181.06 135.58 C 181.12 134.35 180.17 133.30 178.94 133.24 C 177.71 133.18 176.66 134.13 176.60 135.37 L 176.55 136.36 C 176.49 137.59 177.44 138.64 178.68 138.70 C 179.91 138.76 180.96 137.81 181.02 136.58 Z M 181.06 135.58 L 181.10 134.63 C 181.16 133.41 180.21 132.36 178.98 132.31 C 177.75 132.25 176.71 133.20 176.65 134.43 L 176.61 135.37 C 176.55 136.60 177.50 137.65 178.73 137.70 C 179.96 137.76 181.00 136.81 181.06 135.58 Z M 181.10 134.63 L 181.13 133.88 C 181.19 132.65 180.24 131.61 179.01 131.55 C 177.78 131.50 176.74 132.45 176.69 133.68 L 176.65 134.43 C 176.60 135.66 177.55 136.70 178.78 136.75 C 180.00 136.81 181.04 135.86 181.10 134.63 Z M 181.13 133.88 L 181.17 133.03 C 181.22 131.81 180.27 130.77 179.05 130.71 C 177.82 130.66 176.78 131.61 176.73 132.83 L 176.69 133.68 C 176.64 134.90 177.58 135.94 178.81 136.00 C 180.04 136.05 181.07 135.10 181.13 133.88 Z M 181.16 133.03 L 181.21 132.03 C 181.26 130.80 180.32 129.77 179.09 129.71 C 177.87 129.66 176.83 130.60 176.78 131.83 L 176.73 132.83 C 176.68 134.06 177.63 135.09 178.85 135.15 C 180.07 135.20 181.11 134.26 181.16 133.03 Z M 181.21 132.03 L 181.26 130.78 C 181.32 129.56 180.37 128.53 179.15 128.47 C 177.92 128.42 176.89 129.37 176.83 130.59 L 176.78 131.83 C 176.73 133.05 177.67 134.09 178.90 134.14 C 180.12 134.20 181.15 133.25 181.21 132.03 Z M 181.26 130.78 L 181.31 129.72 C 181.36 128.50 180.41 127.47 179.19 127.42 C 177.97 127.36 176.94 128.31 176.88 129.53 L 176.84 130.59 C 176.78 131.81 177.73 132.84 178.95 132.90 C 180.17 132.95 181.21 132.01 181.26 130.78 Z M 181.31 129.72 L 181.34 128.90 C 181.39 127.68 180.45 126.65 179.23 126.59 C 178.01 126.54 176.97 127.48 176.92 128.71 L 176.88 129.53 C 176.83 130.75 177.78 131.78 179.00 131.84 C 180.22 131.89 181.25 130.94 181.31 129.72 Z M 181.34 128.90 L 181.38 128.01 C 181.43 126.79 180.49 125.75 179.27 125.70 C 178.05 125.65 177.01 126.59 176.96 127.81 L 176.92 128.71 C 176.87 129.93 177.81 130.96 179.03 131.01 C 180.25 131.06 181.29 130.12 181.34 128.90 Z M 181.38 128.01 L 181.42 127.05 C 181.47 125.83 180.53 124.80 179.31 124.75 C 178.09 124.69 177.06 125.64 177.00 126.86 L 176.96 127.81 C 176.91 129.03 177.85 130.06 179.07 130.12 C 180.29 130.17 181.33 129.22 181.38 128.01 Z M 181.42 127.05 L 181.46 126.05 C 181.52 124.83 180.57 123.80 179.35 123.75 C 178.13 123.69 177.10 124.64 177.05 125.86 L 177.00 126.86 C 176.95 128.08 177.90 129.11 179.12 129.16 C 180.33 129.22 181.37 128.27 181.42 127.05 Z M 181.46 126.05 L 181.51 125.00 C 181.56 123.79 180.62 122.76 179.40 122.70 C 178.18 122.65 177.15 123.59 177.09 124.81 L 177.05 125.86 C 177.00 127.08 177.94 128.11 179.16 128.16 C 180.38 128.21 181.41 127.27 181.46 126.05 Z M 181.51 125.00 L 181.55 123.93 C 181.61 122.71 180.66 121.68 179.44 121.63 C 178.23 121.57 177.20 122.52 177.14 123.73 L 177.10 124.81 C 177.04 126.03 177.99 127.06 179.20 127.11 C 180.42 127.17 181.45 126.22 181.51 125.00 Z M 181.55 123.93 L 181.60 122.82 C 181.65 121.61 180.71 120.58 179.49 120.52 C 178.27 120.47 177.24 121.41 177.19 122.63 L 177.14 123.73 C 177.09 124.95 178.03 125.98 179.25 126.03 C 180.47 126.09 181.50 125.14 181.55 123.93 Z M 181.60 122.82 L 181.65 121.70 C 181.70 120.49 180.76 119.46 179.54 119.41 C 178.32 119.35 177.29 120.30 177.24 121.51 L 177.19 122.63 C 177.14 123.85 178.08 124.88 179.30 124.93 C 180.52 124.98 181.55 124.04 181.60 122.82 Z M 181.65 121.70 L 181.69 120.75 C 181.74 119.53 180.80 118.51 179.58 118.45 C 178.37 118.40 177.34 119.34 177.28 120.56 L 177.24 121.51 C 177.19 122.73 178.13 123.76 179.35 123.81 C 180.57 123.86 181.59 122.92 181.65 121.70 Z"
      fill="black"
      fill-rule="nonzero" /><path d="M 143.26 123.83 L 143.31 124.77 C 143.36 125.98 144.39 126.93 145.61 126.87 C 146.82 126.81 147.77 125.78 147.71 124.57 L 147.67 123.63 C 147.61 122.42 146.58 121.47 145.37 121.53 C 144.15 121.59 143.21 122.62 143.26 123.83 Z M 143.31 124.79 L 143.36 125.75 C 143.43 126.97 144.47 127.90 145.68 127.83 C 146.90 127.76 147.83 126.72 147.76 125.51 L 147.71 124.54 C 147.64 123.33 146.60 122.40 145.39 122.47 C 144.17 122.53 143.24 123.57 143.31 124.79 Z M 143.36 125.79 L 143.44 126.81 C 143.53 128.03 144.59 128.94 145.80 128.85 C 147.02 128.76 147.93 127.70 147.84 126.48 L 147.76 125.47 C 147.67 124.25 146.61 123.34 145.40 123.43 C 144.18 123.52 143.27 124.58 143.36 125.79 Z M 143.44 126.87 L 143.55 127.93 C 143.67 129.14 144.75 130.03 145.96 129.91 C 147.17 129.79 148.06 128.71 147.94 127.50 L 147.83 126.43 C 147.71 125.22 146.63 124.33 145.42 124.45 C 144.21 124.57 143.32 125.65 143.44 126.87 Z M 143.55 127.98 L 143.67 128.97 C 143.82 130.18 144.92 131.04 146.13 130.90 C 147.33 130.75 148.20 129.65 148.05 128.44 L 147.93 127.45 C 147.79 126.24 146.69 125.38 145.48 125.53 C 144.27 125.67 143.41 126.77 143.55 127.98 Z M 143.68 129.00 L 143.81 130.02 C 143.97 131.23 145.08 132.08 146.29 131.92 C 147.50 131.76 148.34 130.65 148.18 129.44 L 148.05 128.42 C 147.89 127.21 146.78 126.36 145.57 126.52 C 144.36 126.68 143.52 127.79 143.68 129.00 Z M 143.81 130.03 L 143.95 131.05 C 144.12 132.25 145.23 133.10 146.44 132.93 C 147.65 132.76 148.49 131.65 148.32 130.44 L 148.18 129.43 C 148.02 128.22 146.90 127.38 145.70 127.55 C 144.49 127.71 143.65 128.83 143.81 130.03 Z M 143.95 131.05 L 144.09 132.01 C 144.25 133.22 145.37 134.06 146.57 133.90 C 147.78 133.73 148.62 132.62 148.46 131.41 L 148.32 130.44 C 148.16 129.24 147.04 128.39 145.84 128.56 C 144.63 128.73 143.79 129.84 143.95 131.05 Z M 144.09 132.00 L 144.21 132.97 C 144.37 134.18 145.47 135.03 146.68 134.88 C 147.89 134.72 148.74 133.61 148.58 132.41 L 148.46 131.43 C 148.30 130.22 147.20 129.37 145.99 129.53 C 144.78 129.68 143.93 130.79 144.09 132.00 Z M 144.21 132.95 L 144.32 133.90 C 144.47 135.11 145.57 135.97 146.77 135.83 C 147.98 135.68 148.85 134.59 148.70 133.38 L 148.59 132.43 C 148.44 131.22 147.35 130.35 146.14 130.50 C 144.93 130.64 144.06 131.74 144.21 132.95 Z M 144.32 133.89 L 144.43 134.84 C 144.57 136.05 145.66 136.92 146.87 136.78 C 148.08 136.64 148.95 135.55 148.81 134.34 L 148.70 133.39 C 148.56 132.18 147.47 131.31 146.26 131.45 C 145.05 131.59 144.18 132.68 144.32 133.89 Z M 144.43 134.85 L 144.55 135.88 C 144.69 137.09 145.79 137.96 147.00 137.82 C 148.21 137.68 149.07 136.58 148.93 135.37 L 148.81 134.34 C 148.67 133.13 147.58 132.26 146.37 132.40 C 145.16 132.54 144.29 133.64 144.43 134.85 Z M 144.55 135.89 L 144.67 136.85 C 144.82 138.06 145.92 138.92 147.13 138.78 C 148.33 138.63 149.20 137.53 149.05 136.32 L 148.93 135.36 C 148.78 134.15 147.69 133.29 146.48 133.44 C 145.27 133.59 144.41 134.69 144.55 135.89 Z M 144.67 136.86 L 144.79 137.84 C 144.94 139.04 146.04 139.90 147.25 139.75 C 148.46 139.60 149.32 138.50 149.17 137.29 L 149.05 136.32 C 148.90 135.11 147.80 134.25 146.59 134.40 C 145.38 134.55 144.52 135.65 144.67 136.86 Z M 144.79 137.83 L 144.92 138.85 C 145.06 140.06 146.16 140.92 147.37 140.78 C 148.58 140.63 149.44 139.53 149.29 138.32 L 149.17 137.30 C 149.02 136.09 147.92 135.23 146.71 135.38 C 145.51 135.52 144.64 136.62 144.79 137.83 Z M 144.91 138.84 L 145.03 139.88 C 145.17 141.09 146.27 141.95 147.48 141.81 C 148.69 141.67 149.56 140.58 149.42 139.37 L 149.30 138.33 C 149.16 137.12 148.06 136.26 146.85 136.40 C 145.64 136.54 144.77 137.63 144.91 138.84 Z M 145.03 139.85 L 145.14 140.86 C 145.27 142.07 146.35 142.95 147.56 142.82 C 148.78 142.70 149.65 141.61 149.52 140.40 L 149.42 139.39 C 149.29 138.18 148.20 137.30 146.99 137.43 C 145.78 137.56 144.90 138.64 145.03 139.85 Z M 145.13 140.83 L 145.23 141.90 C 145.34 143.12 146.41 144.01 147.63 143.90 C 148.84 143.79 149.73 142.72 149.63 141.51 L 149.53 140.43 C 149.42 139.22 148.35 138.32 147.13 138.43 C 145.92 138.54 145.03 139.62 145.13 140.83 Z M 145.23 141.86 L 145.30 142.92 C 145.39 144.13 146.44 145.05 147.66 144.96 C 148.87 144.88 149.79 143.82 149.70 142.61 L 149.63 141.55 C 149.54 140.34 148.49 139.42 147.28 139.51 C 146.06 139.59 145.14 140.64 145.23 141.86 Z M 145.30 142.87 L 145.35 143.86 C 145.41 145.07 146.45 146.01 147.66 145.95 C 148.88 145.89 149.82 144.85 149.75 143.63 L 149.71 142.65 C 149.64 141.43 148.61 140.50 147.39 140.56 C 146.17 140.62 145.24 141.66 145.30 142.87 Z M 145.35 143.82 L 145.38 144.75 C 145.42 145.97 146.44 146.92 147.66 146.88 C 148.87 146.84 149.83 145.82 149.79 144.60 L 149.76 143.67 C 149.72 142.45 148.70 141.50 147.48 141.54 C 146.26 141.58 145.31 142.60 145.35 143.82 Z M 145.38 144.72 L 145.40 145.68 C 145.42 146.90 146.43 147.86 147.65 147.84 C 148.87 147.81 149.83 146.80 149.81 145.59 L 149.79 144.63 C 149.76 143.41 148.75 142.44 147.54 142.47 C 146.32 142.49 145.35 143.50 145.38 144.72 Z M 145.40 145.66 L 145.41 146.68 C 145.42 147.90 146.42 148.87 147.64 148.86 C 148.86 148.84 149.84 147.85 149.82 146.63 L 149.81 145.61 C 149.80 144.39 148.80 143.41 147.58 143.43 C 146.36 143.44 145.38 144.44 145.40 145.66 Z M 145.41 146.66 L 145.41 147.66 C 145.42 148.88 146.41 149.86 147.63 149.85 C 148.85 149.85 149.83 148.85 149.83 147.64 L 149.82 146.64 C 149.82 145.42 148.82 144.44 147.60 144.45 C 146.39 144.45 145.40 145.44 145.41 146.66 Z M 145.41 147.65 L 145.41 148.62 C 145.41 149.84 146.40 150.83 147.62 150.83 C 148.84 150.83 149.83 149.84 149.83 148.62 L 149.83 147.64 C 149.83 146.43 148.84 145.44 147.62 145.44 C 146.40 145.44 145.41 146.43 145.41 147.65 Z M 145.41 148.62 L 145.41 149.62 C 145.41 150.84 146.40 151.83 147.62 151.83 C 148.84 151.83 149.83 150.84 149.83 149.62 L 149.83 148.62 C 149.83 147.40 148.84 146.41 147.62 146.41 C 146.40 146.41 145.41 147.40 145.41 148.62 Z M 145.41 149.62 L 145.41 150.62 C 145.41 151.84 146.40 152.83 147.62 152.83 C 148.84 152.83 149.83 151.84 149.83 150.62 L 149.83 149.62 C 149.83 148.40 148.84 147.42 147.62 147.42 C 146.40 147.42 145.41 148.40 145.41 149.62 Z M 145.41 150.62 L 145.41 151.62 C 145.41 152.84 146.40 153.82 147.62 153.82 C 148.84 153.82 149.83 152.84 149.83 151.62 L 149.83 150.62 C 149.83 149.41 148.84 148.42 147.62 148.42 C 146.40 148.42 145.41 149.41 145.41 150.62 Z M 145.42 151.62 L 145.42 152.62 C 145.42 153.84 146.40 154.83 147.62 154.83 C 148.84 154.83 149.83 153.84 149.83 152.62 L 149.83 151.62 C 149.83 150.40 148.84 149.41 147.62 149.41 C 146.40 149.41 145.42 150.40 145.42 151.62 Z M 145.42 152.62 L 145.42 153.63 C 145.42 154.85 146.40 155.84 147.62 155.84 C 148.84 155.84 149.83 154.85 149.83 153.63 L 149.83 152.62 C 149.83 151.40 148.84 150.42 147.62 150.42 C 146.40 150.42 145.42 151.40 145.42 152.62 Z M 145.42 153.63 L 145.42 154.63 C 145.42 155.85 146.40 156.84 147.62 156.84 C 148.84 156.84 149.82 155.85 149.82 154.63 L 149.82 153.63 C 149.82 152.42 148.84 151.43 147.62 151.43 C 146.40 151.43 145.42 152.42 145.42 153.63 Z M 145.42 154.63 L 145.42 155.62 C 145.42 156.83 146.40 157.82 147.62 157.82 C 148.84 157.82 149.82 156.83 149.82 155.62 L 149.82 154.63 C 149.82 153.42 148.84 152.43 147.62 152.43 C 146.40 152.43 145.42 153.42 145.42 154.63 Z M 145.42 155.62 L 145.42 156.63 C 145.42 157.84 146.40 158.83 147.62 158.83 C 148.84 158.83 149.82 157.84 149.82 156.63 L 149.82 155.62 C 149.82 154.40 148.84 153.41 147.62 153.41 C 146.40 153.41 145.42 154.40 145.42 155.62 Z M 145.42 156.63 L 145.42 157.62 C 145.42 158.84 146.40 159.82 147.62 159.82 C 148.84 159.82 149.82 158.84 149.82 157.62 L 149.82 156.63 C 149.82 155.41 148.84 154.42 147.62 154.42 C 146.40 154.42 145.42 155.41 145.42 156.63 Z M 145.42 157.62 L 145.42 158.61 C 145.42 159.83 146.41 160.82 147.62 160.82 C 148.84 160.82 149.82 159.83 149.82 158.61 L 149.82 157.62 C 149.82 156.40 148.84 155.42 147.62 155.42 C 146.41 155.42 145.42 156.40 145.42 157.62 Z M 145.42 158.61 L 145.42 159.60 C 145.42 160.81 146.41 161.80 147.62 161.80 C 148.84 161.80 149.82 160.81 149.82 159.60 L 149.82 158.61 C 149.82 157.40 148.84 156.41 147.62 156.41 C 146.41 156.41 145.42 157.40 145.42 158.61 Z M 145.42 159.60 L 145.42 160.60 C 145.42 161.81 146.41 162.80 147.62 162.80 C 148.84 162.80 149.82 161.81 149.82 160.60 L 149.82 159.60 C 149.82 158.38 148.84 157.40 147.62 157.40 C 146.41 157.40 145.42 158.38 145.42 159.60 Z M 145.42 160.60 L 145.42 161.61 C 145.42 162.82 146.41 163.81 147.62 163.81 C 148.84 163.81 149.82 162.82 149.82 161.61 L 149.82 160.60 C 149.82 159.38 148.84 158.40 147.62 158.40 C 146.41 158.40 145.42 159.38 145.42 160.60 Z M 145.42 161.61 L 145.42 162.62 C 145.42 163.83 146.41 164.82 147.62 164.82 C 148.84 164.82 149.82 163.83 149.82 162.62 L 149.82 161.61 C 149.82 160.39 148.84 159.41 147.62 159.41 C 146.41 159.41 145.42 160.39 145.42 161.61 Z M 145.42 162.62 L 145.42 163.62 C 145.42 164.84 146.41 165.82 147.62 165.82 C 148.84 165.82 149.82 164.84 149.82 163.62 L 149.82 162.62 C 149.82 161.40 148.84 160.42 147.62 160.42 C 146.41 160.42 145.42 161.40 145.42 162.62 Z M 145.42 163.62 L 145.42 164.62 C 145.42 165.84 146.41 166.82 147.62 166.82 C 148.84 166.82 149.82 165.84 149.82 164.62 L 149.82 163.62 C 149.82 162.41 148.84 161.43 147.62 161.43 C 146.41 161.43 145.42 162.41 145.42 163.62 Z M 145.42 164.62 L 145.42 165.62 C 145.42 166.84 146.41 167.82 147.62 167.82 C 148.83 167.82 149.82 166.84 149.82 165.62 L 149.82 164.62 C 149.82 163.41 148.83 162.43 147.62 162.43 C 146.41 162.43 145.42 163.41 145.42 164.62 Z M 145.42 165.62 L 145.42 166.63 C 145.42 167.85 146.41 168.83 147.62 168.83 C 148.83 168.83 149.82 167.85 149.82 166.63 L 149.82 165.62 C 149.82 164.41 148.83 163.43 147.62 163.43 C 146.41 163.43 145.42 164.41 145.42 165.62 Z M 145.42 166.63 L 145.42 167.63 C 145.42 168.84 146.41 169.82 147.62 169.82 C 148.83 169.82 149.82 168.84 149.82 167.63 L 149.82 166.63 C 149.82 165.42 148.83 164.44 147.62 164.44 C 146.41 164.44 145.42 165.42 145.42 166.63 Z M 145.42 167.63 L 145.42 168.61 C 145.42 169.82 146.41 170.81 147.62 170.81 C 148.83 170.81 149.82 169.82 149.82 168.61 L 149.82 167.63 C 149.82 166.41 148.83 165.43 147.62 165.43 C 146.41 165.43 145.42 166.41 145.42 167.63 Z M 145.42 168.61 L 145.42 169.59 C 145.42 170.80 146.41 171.79 147.62 171.79 C 148.83 171.79 149.82 170.80 149.82 169.59 L 149.82 168.61 C 149.82 167.39 148.83 166.41 147.62 166.41 C 146.41 166.41 145.42 167.39 145.42 168.61 Z M 145.42 169.59 L 145.42 170.59 C 145.42 171.80 146.41 172.79 147.62 172.79 C 148.83 172.79 149.82 171.80 149.82 170.59 L 149.82 169.59 C 149.82 168.37 148.83 167.39 147.62 167.39 C 146.41 167.39 145.42 168.37 145.42 169.59 Z M 145.42 170.59 L 145.42 171.61 C 145.42 172.83 146.41 173.81 147.62 173.81 C 148.83 173.81 149.82 172.83 149.82 171.61 L 149.82 170.59 C 149.82 169.37 148.83 168.39 147.62 168.39 C 146.41 168.39 145.42 169.37 145.42 170.59 Z M 145.42 171.61 L 145.42 172.61 C 145.42 173.82 146.41 174.81 147.62 174.81 C 148.84 174.81 149.82 173.82 149.82 172.61 L 149.82 171.61 C 149.82 170.40 148.83 169.41 147.62 169.41 C 146.40 169.42 145.42 170.40 145.42 171.61 Z M 145.42 172.62 L 145.43 173.63 C 145.44 174.84 146.42 175.82 147.64 175.82 C 148.85 175.81 149.83 174.82 149.82 173.61 L 149.82 172.60 C 149.81 171.38 148.82 170.40 147.61 170.41 C 146.40 170.42 145.42 171.41 145.42 172.62 Z M 145.43 173.65 L 145.44 174.65 C 145.46 175.86 146.46 176.83 147.67 176.82 C 148.88 176.80 149.85 175.80 149.84 174.59 L 149.82 173.59 C 149.81 172.37 148.81 171.40 147.60 171.42 C 146.38 171.44 145.41 172.43 145.43 173.65 Z M 145.44 174.68 L 145.47 175.69 C 145.50 176.90 146.51 177.86 147.73 177.83 C 148.94 177.80 149.90 176.79 149.86 175.57 L 149.84 174.56 C 149.81 173.35 148.80 172.39 147.58 172.42 C 146.37 172.45 145.41 173.46 145.44 174.68 Z M 145.47 175.72 L 145.51 176.72 C 145.56 177.93 146.58 178.87 147.79 178.83 C 149.01 178.78 149.95 177.76 149.90 176.55 L 149.86 175.55 C 149.82 174.33 148.79 173.39 147.58 173.44 C 146.37 173.48 145.42 174.50 145.47 175.72 Z M 145.51 176.73 L 145.56 177.72 C 145.61 178.93 146.64 179.87 147.85 179.81 C 149.07 179.76 150.00 178.73 149.95 177.51 L 149.90 176.53 C 149.85 175.32 148.82 174.38 147.60 174.44 C 146.39 174.49 145.45 175.52 145.51 176.73 Z M 145.56 177.72 L 145.60 178.71 C 145.66 179.92 146.69 180.86 147.91 180.80 C 149.12 180.74 150.06 179.71 150.00 178.50 L 149.95 177.51 C 149.89 176.30 148.86 175.36 147.65 175.42 C 146.43 175.48 145.50 176.51 145.56 177.72 Z M 145.60 178.71 L 145.65 179.71 C 145.71 180.92 146.74 181.85 147.95 181.80 C 149.17 181.74 150.10 180.71 150.04 179.49 L 150.00 178.50 C 149.94 177.29 148.91 176.35 147.69 176.41 C 146.48 176.47 145.55 177.50 145.60 178.71 Z M 145.65 179.71 L 145.70 180.71 C 145.76 181.92 146.79 182.86 148.00 182.80 C 149.21 182.74 150.15 181.71 150.09 180.50 L 150.05 179.50 C 149.99 178.28 148.96 177.35 147.74 177.40 C 146.53 177.46 145.59 178.49 145.65 179.71 Z M 145.70 180.71 L 145.75 181.71 C 145.80 182.92 146.84 183.86 148.05 183.80 C 149.26 183.74 150.20 182.71 150.14 181.50 L 150.09 180.50 C 150.04 179.29 149.01 178.35 147.79 178.41 C 146.58 178.46 145.64 179.49 145.70 180.71 Z M 145.75 181.71 L 145.79 182.70 C 145.85 183.92 146.88 184.85 148.10 184.80 C 149.31 184.74 150.25 183.71 150.19 182.49 L 150.14 181.50 C 150.08 180.29 149.05 179.35 147.84 179.41 C 146.63 179.46 145.69 180.50 145.75 181.71 Z M 145.79 182.70 L 145.84 183.70 C 145.90 184.91 146.93 185.85 148.14 185.79 C 149.36 185.74 150.29 184.71 150.24 183.49 L 150.19 182.49 C 150.13 181.28 149.10 180.34 147.89 180.40 C 146.67 180.46 145.74 181.49 145.79 182.70 Z M 145.84 183.70 L 145.89 184.71 C 145.94 185.92 146.97 186.86 148.19 186.80 C 149.40 186.75 150.34 185.72 150.28 184.50 L 150.24 183.49 C 150.18 182.28 149.15 181.34 147.94 181.40 C 146.72 181.45 145.78 182.49 145.84 183.70 Z M 145.89 184.70 L 145.93 185.71 C 145.99 186.92 147.02 187.86 148.23 187.81 C 149.45 187.75 150.39 186.72 150.33 185.51 L 150.28 184.50 C 150.23 183.29 149.20 182.35 147.99 182.41 C 146.77 182.46 145.83 183.49 145.89 184.70 Z M 145.93 185.70 L 145.97 186.70 C 146.02 187.92 147.05 188.86 148.26 188.81 C 149.48 188.76 150.42 187.74 150.37 186.52 L 150.33 185.52 C 150.28 184.30 149.26 183.36 148.04 183.41 C 146.83 183.46 145.88 184.48 145.93 185.70 Z M 145.97 186.69 L 146.00 187.68 C 146.04 188.89 147.06 189.85 148.28 189.81 C 149.49 189.77 150.44 188.75 150.40 187.54 L 150.37 186.54 C 150.33 185.33 149.32 184.37 148.10 184.41 C 146.89 184.45 145.93 185.47 145.97 186.69 Z M 146.00 187.65 L 146.02 188.66 C 146.05 189.88 147.05 190.84 148.27 190.82 C 149.49 190.79 150.45 189.79 150.43 188.57 L 150.41 187.56 C 150.38 186.35 149.38 185.38 148.16 185.41 C 146.94 185.43 145.98 186.44 146.00 187.65 Z M 146.02 188.64 L 146.03 189.64 C 146.04 190.85 147.04 191.83 148.25 191.82 C 149.47 191.81 150.45 190.82 150.43 189.60 L 150.43 188.60 C 150.42 187.38 149.42 186.41 148.21 186.42 C 146.99 186.43 146.01 187.42 146.02 188.64 Z M 146.03 189.62 L 146.04 190.61 C 146.04 191.83 147.03 192.81 148.24 192.81 C 149.46 192.81 150.44 191.82 150.44 190.60 L 150.44 189.62 C 150.43 188.40 149.44 187.42 148.23 187.42 C 147.01 187.42 146.03 188.41 146.03 189.62 Z M 146.03 190.61 L 146.04 191.60 C 146.04 192.81 147.02 193.80 148.24 193.80 C 149.45 193.80 150.44 192.81 150.44 191.60 L 150.44 190.61 C 150.44 189.39 149.45 188.41 148.24 188.41 C 147.02 188.41 146.03 189.39 146.03 190.61 Z M 146.03 191.60 L 146.03 192.59 C 146.03 193.81 147.02 194.79 148.24 194.79 C 149.45 194.79 150.44 193.81 150.44 192.59 L 150.44 191.60 C 150.44 190.38 149.45 189.39 148.24 189.39 C 147.02 189.39 146.03 190.38 146.03 191.60 Z M 146.03 192.59 L 146.03 193.60 C 146.03 194.81 147.02 195.80 148.24 195.80 C 149.45 195.80 150.44 194.81 150.44 193.60 L 150.44 192.59 C 150.44 191.37 149.45 190.39 148.24 190.39 C 147.02 190.39 146.03 191.37 146.03 192.59 Z M 146.03 193.60 L 146.03 194.48 C 146.03 195.69 147.02 196.68 148.24 196.68 C 149.45 196.68 150.44 195.69 150.44 194.48 L 150.44 193.60 C 150.44 192.38 149.45 191.39 148.24 191.39 C 147.02 191.39 146.03 192.38 146.03 193.60 Z M 146.03 194.48 L 146.04 195.30 C 146.04 196.51 147.03 197.50 148.25 197.49 C 149.46 197.49 150.45 196.50 150.44 195.28 L 150.44 194.47 C 150.44 193.25 149.45 192.27 148.23 192.27 C 147.01 192.28 146.03 193.27 146.03 194.48 Z M 146.04 195.31 L 146.04 196.25 C 146.06 197.47 147.05 198.44 148.27 198.43 C 149.49 198.42 150.46 197.42 150.45 196.21 L 150.44 195.27 C 150.43 194.05 149.43 193.08 148.22 193.09 C 147.00 193.10 146.02 194.09 146.04 195.31 Z M 146.05 196.27 L 146.07 197.41 C 146.09 198.63 147.09 199.60 148.31 199.57 C 149.52 199.55 150.49 198.55 150.47 197.33 L 150.45 196.19 C 150.43 194.97 149.43 194.01 148.21 194.03 C 146.99 194.05 146.02 195.05 146.05 196.27 Z M 146.07 197.42 L 146.09 198.57 C 146.12 199.79 147.13 200.75 148.35 200.72 C 149.56 200.69 150.53 199.68 150.50 198.47 L 150.47 197.32 C 150.44 196.10 149.43 195.14 148.21 195.17 C 147.00 195.20 146.04 196.21 146.07 197.42 Z M 146.09 198.58 L 146.12 199.41 C 146.15 200.63 147.16 201.59 148.38 201.55 C 149.59 201.52 150.55 200.51 150.52 199.29 L 150.50 198.46 C 150.46 197.24 149.45 196.28 148.23 196.32 C 147.02 196.35 146.06 197.36 146.09 198.58 Z M 146.12 199.42 L 146.15 200.33 C 146.18 201.54 147.20 202.50 148.41 202.46 C 149.63 202.43 150.58 201.41 150.55 200.20 L 150.52 199.29 C 150.48 198.07 149.47 197.12 148.25 197.15 C 147.04 197.19 146.08 198.20 146.12 199.42 Z M 146.15 200.33 L 146.18 201.30 C 146.21 202.52 147.23 203.47 148.45 203.43 C 149.66 203.40 150.61 202.38 150.58 201.16 L 150.55 200.19 C 150.51 198.98 149.49 198.02 148.28 198.06 C 147.06 198.10 146.11 199.12 146.15 200.33 Z M 146.18 201.31 L 146.21 202.33 C 146.25 203.54 147.27 204.50 148.48 204.46 C 149.70 204.42 150.65 203.40 150.61 202.19 L 150.58 201.16 C 150.54 199.95 149.52 199.00 148.30 199.03 C 147.09 199.07 146.14 200.09 146.18 201.31 Z M 146.21 202.33 L 146.25 203.39 C 146.29 204.61 147.30 205.56 148.52 205.52 C 149.73 205.48 150.68 204.46 150.64 203.25 L 150.61 202.18 C 150.57 200.97 149.55 200.02 148.34 200.06 C 147.12 200.10 146.17 201.12 146.21 202.33 Z M 146.25 203.40 L 146.28 204.49 C 146.33 205.70 147.34 206.65 148.56 206.61 C 149.77 206.57 150.72 205.55 150.68 204.34 L 150.64 203.25 C 150.60 202.03 149.58 201.08 148.37 201.12 C 147.16 201.16 146.21 202.18 146.25 203.40 Z M 146.28 204.49 L 146.32 205.60 C 146.36 206.81 147.38 207.76 148.60 207.72 C 149.81 207.68 150.76 206.66 150.72 205.45 L 150.68 204.34 C 150.64 203.13 149.62 202.17 148.41 202.22 C 147.19 202.26 146.24 203.28 146.28 204.49 Z M 146.32 205.60 L 146.35 206.28 C 146.39 207.49 147.41 208.44 148.62 208.40 C 149.83 208.36 150.78 207.34 150.74 206.13 L 150.72 205.45 C 150.68 204.24 149.66 203.29 148.44 203.33 C 147.23 203.37 146.28 204.39 146.32 205.60 Z"
      fill="black"
      fill-rule="nonzero" /></svg>