<svg xmlns="http://www.w3.org/2000/svg" version="1.0" width="937.000000pt" height="937.000000pt" viewBox="0 0 937.000000 937.000000" preserveAspectRatio="xMidYMid meet">
  <defs/>
  <path fill="#000000" d="M401.7,315.1 C400.8,315.7 398.7,318.7 397.1,321.8 C395.5,324.9 392.1,331 389.6,335.3 C384.4,344.1 376.2,360.2 370.5,372.9 L366.8,381.2 L367.9,383.6 C369.3,386.8 374.3,386.9 376.5,383.7 C377.3,382.5 382.4,374.3 387.6,365.5 C392.9,356.7 399.6,346.2 402.5,342 C409,332.8 413,324.9 413,321.5 C413,316.2 406.3,312.4 401.7,315.1 Z"/>
  <path fill="#000000" d="M433.5,322.5 C432.1,323.8 431,325.8 431,326.8 C431,329.5 436.9,340.4 446,354.5 C454.8,368.1 467.2,389.2 478.5,409.6 C482.8,417.2 487.1,424.8 488.2,426.3 C489.4,427.9 490.4,431.1 490.6,433.5 C490.7,435.8 491.7,439.5 492.8,441.7 C496.7,449.2 497.1,455.1 498.1,517.5 C498.6,551 499.4,581.4 499.9,585 C501.1,593.4 504.6,602.7 507.2,604.1 C509.8,605.5 513.7,604.5 515,602 C515.8,600.6 515.6,598.2 514.1,592.8 L512.2,585.5 L512.6,517.6 C512.8,480.2 513.2,449.4 513.5,449.2 C515.1,447.6 513.5,442.9 510,438.5 C507.8,435.7 506,433.1 506,432.5 C506,429.3 525.4,401.9 553.1,365.9 C563.9,351.9 573,339.5 573.4,338.3 C574.3,335.5 572.3,331.5 569.3,330.1 C565.9,328.6 564.6,328.7 561.8,331 C557.1,334.6 510.9,396 500.6,412.2 C498.6,415.4 496.8,418 496.5,418 C496.3,418 490.7,407.3 483.9,394.2 C469.8,366.8 466.5,360.9 456,344.5 C451.8,337.9 447,330.1 445.4,327.1 C442.9,322.4 440,320 436.9,320 C436.4,320 434.8,321.1 433.5,322.5 Z"/>
</svg>

