<svg xmlns="http://www.w3.org/2000/svg" width="300" height="300" viewBox="0 0 300 300">
<path d="M 127.87 106.46 L 128.86 106.41 C 130.03 106.36 130.93 105.36 130.87 104.19 C 130.81 103.02 129.82 102.12 128.65 102.18 L 127.66 102.23 C 126.49 102.29 125.59 103.28 125.65 104.45 C 125.70 105.62 126.70 106.52 127.87 106.46 Z M 128.85 106.41 L 129.84 106.37 C 131.01 106.32 131.92 105.33 131.87 104.16 C 131.82 102.99 130.83 102.08 129.66 102.14 L 128.66 102.18 C 127.49 102.23 126.59 103.22 126.64 104.39 C 126.69 105.56 127.68 106.47 128.85 106.41 Z M 129.82 106.37 L 130.83 106.34 C 132.00 106.30 132.92 105.32 132.88 104.15 C 132.84 102.98 131.86 102.06 130.69 102.10 L 129.68 102.13 C 128.51 102.17 127.59 103.15 127.63 104.32 C 127.67 105.49 128.65 106.41 129.82 106.37 Z M 130.80 106.34 L 131.78 106.32 C 132.95 106.30 133.89 105.33 133.86 104.16 C 133.84 102.99 132.87 102.06 131.70 102.08 L 130.72 102.10 C 129.55 102.12 128.62 103.09 128.64 104.26 C 128.66 105.43 129.63 106.36 130.80 106.34 Z M 131.76 106.32 L 132.76 106.31 C 133.93 106.30 134.87 105.35 134.86 104.18 C 134.85 103.01 133.89 102.07 132.72 102.07 L 131.73 102.08 C 130.56 102.09 129.62 103.05 129.62 104.22 C 129.63 105.39 130.59 106.33 131.76 106.32 Z M 132.74 106.31 L 133.76 106.31 C 134.93 106.31 135.87 105.36 135.87 104.19 C 135.87 103.02 134.92 102.07 133.75 102.07 L 132.74 102.07 C 131.57 102.08 130.62 103.03 130.62 104.20 C 130.62 105.37 131.57 106.31 132.74 106.31 Z M 133.75 106.31 L 134.76 106.31 C 135.93 106.31 136.88 105.37 136.88 104.20 C 136.88 103.03 135.93 102.08 134.76 102.07 L 133.76 102.07 C 132.59 102.07 131.64 103.02 131.63 104.19 C 131.63 105.36 132.58 106.31 133.75 106.31 Z M 134.72 106.31 L 135.72 106.33 C 136.89 106.36 137.86 105.43 137.88 104.26 C 137.91 103.09 136.98 102.12 135.81 102.10 L 134.80 102.08 C 133.63 102.05 132.67 102.98 132.64 104.15 C 132.62 105.32 133.55 106.29 134.72 106.31 Z M 135.62 106.33 L 136.61 106.40 C 137.78 106.48 138.79 105.60 138.87 104.43 C 138.96 103.27 138.08 102.25 136.91 102.17 L 135.91 102.10 C 134.74 102.02 133.73 102.90 133.65 104.07 C 133.57 105.23 134.45 106.25 135.62 106.33 Z M 136.44 106.38 L 137.43 106.53 C 138.59 106.70 139.67 105.91 139.84 104.75 C 140.02 103.60 139.22 102.51 138.06 102.34 L 137.08 102.19 C 135.92 102.01 134.84 102.81 134.67 103.97 C 134.49 105.12 135.29 106.20 136.44 106.38 Z M 137.21 106.48 L 138.18 106.74 C 139.31 107.03 140.47 106.36 140.77 105.23 C 141.06 104.09 140.39 102.93 139.25 102.64 L 138.28 102.38 C 137.15 102.09 135.99 102.76 135.70 103.90 C 135.40 105.03 136.08 106.19 137.21 106.48 Z M 137.94 106.66 L 138.87 107.02 C 139.96 107.45 141.19 106.91 141.62 105.82 C 142.04 104.73 141.51 103.50 140.41 103.08 L 139.49 102.71 C 138.40 102.29 137.17 102.83 136.74 103.92 C 136.32 105.01 136.85 106.24 137.94 106.66 Z M 138.63 106.91 L 139.51 107.39 C 140.54 107.95 141.83 107.57 142.38 106.54 C 142.94 105.51 142.56 104.22 141.53 103.66 L 140.65 103.19 C 139.62 102.63 138.34 103.01 137.78 104.04 C 137.22 105.07 137.60 106.36 138.63 106.91 Z M 139.28 107.25 L 140.10 107.83 C 141.05 108.52 142.37 108.30 143.06 107.35 C 143.74 106.40 143.52 105.07 142.57 104.39 L 141.76 103.80 C 140.81 103.12 139.48 103.34 138.80 104.29 C 138.11 105.24 138.33 106.56 139.28 107.25 Z M 139.90 107.68 L 140.64 108.36 C 141.51 109.15 142.85 109.09 143.64 108.22 C 144.43 107.35 144.37 106.01 143.51 105.22 L 142.77 104.54 C 141.90 103.75 140.56 103.81 139.77 104.68 C 138.98 105.55 139.04 106.89 139.90 107.68 Z M 140.48 108.19 L 141.13 108.94 C 141.91 109.82 143.25 109.91 144.13 109.13 C 145.01 108.36 145.10 107.02 144.33 106.13 L 143.67 105.39 C 142.90 104.51 141.56 104.42 140.68 105.19 C 139.79 105.96 139.71 107.31 140.48 108.19 Z M 140.99 108.75 L 141.56 109.57 C 142.23 110.54 143.56 110.77 144.52 110.10 C 145.48 109.43 145.72 108.10 145.05 107.14 L 144.47 106.32 C 143.80 105.36 142.48 105.12 141.52 105.79 C 140.55 106.46 140.32 107.79 140.99 108.75 Z M 141.44 109.37 L 141.91 110.25 C 142.47 111.28 143.77 111.66 144.80 111.10 C 145.83 110.54 146.21 109.24 145.65 108.21 L 145.17 107.34 C 144.61 106.31 143.32 105.93 142.29 106.49 C 141.26 107.05 140.88 108.34 141.44 109.37 Z M 141.82 110.05 L 142.20 110.97 C 142.66 112.05 143.90 112.57 144.98 112.11 C 146.07 111.66 146.58 110.42 146.13 109.33 L 145.74 108.41 C 145.29 107.33 144.04 106.82 142.96 107.27 C 141.88 107.72 141.37 108.97 141.82 110.05 Z M 142.14 110.79 L 142.43 111.73 C 142.78 112.85 143.98 113.47 145.10 113.12 C 146.22 112.76 146.84 111.57 146.49 110.45 L 146.19 109.51 C 145.84 108.39 144.65 107.77 143.53 108.12 C 142.41 108.48 141.78 109.67 142.14 110.79 Z M 142.39 111.57 L 142.61 112.53 C 142.88 113.68 144.02 114.39 145.17 114.12 C 146.31 113.85 147.02 112.71 146.76 111.57 L 146.53 110.60 C 146.26 109.46 145.12 108.75 143.98 109.01 C 142.83 109.28 142.12 110.43 142.39 111.57 Z M 142.58 112.40 L 142.75 113.40 C 142.95 114.56 144.05 115.34 145.21 115.15 C 146.37 114.95 147.15 113.85 146.95 112.69 L 146.78 111.70 C 146.59 110.54 145.49 109.75 144.33 109.95 C 143.17 110.15 142.39 111.24 142.58 112.40 Z M 142.74 113.30 L 142.86 114.31 C 142.99 115.47 144.05 116.31 145.22 116.17 C 146.39 116.04 147.22 114.98 147.09 113.81 L 146.97 112.80 C 146.83 111.63 145.77 110.80 144.60 110.93 C 143.44 111.07 142.60 112.13 142.74 113.30 Z M 142.85 114.22 L 142.93 115.22 C 143.02 116.40 144.04 117.27 145.22 117.18 C 146.39 117.09 147.27 116.06 147.18 114.89 L 147.10 113.89 C 147.00 112.72 145.98 111.84 144.80 111.93 C 143.63 112.02 142.75 113.05 142.85 114.22 Z M 142.92 115.16 L 142.97 116.17 C 143.03 117.35 144.03 118.25 145.21 118.19 C 146.39 118.13 147.29 117.13 147.23 115.95 L 147.18 114.95 C 147.12 113.77 146.12 112.87 144.94 112.93 C 143.77 112.99 142.86 113.99 142.92 115.16 Z M 142.97 116.13 L 143.00 117.12 C 143.03 118.30 144.02 119.22 145.20 119.19 C 146.37 119.15 147.30 118.17 147.26 116.99 L 147.23 116.00 C 147.20 114.82 146.21 113.89 145.04 113.93 C 143.86 113.96 142.93 114.95 142.97 116.13 Z M 143.00 117.08 L 143.01 118.09 C 143.03 119.27 144.00 120.21 145.17 120.20 C 146.35 120.18 147.30 119.21 147.28 118.04 L 147.27 117.03 C 147.25 115.85 146.28 114.90 145.10 114.92 C 143.92 114.94 142.98 115.90 143.00 117.08 Z M 143.01 118.03 L 142.99 119.02 C 142.97 120.20 143.91 121.17 145.09 121.19 C 146.27 121.21 147.24 120.27 147.26 119.10 L 147.28 118.10 C 147.30 116.92 146.36 115.95 145.18 115.93 C 144.00 115.91 143.03 116.85 143.01 118.03 Z M 143.00 118.92 L 142.93 119.91 C 142.86 121.09 143.75 122.10 144.92 122.18 C 146.10 122.26 147.12 121.37 147.19 120.19 L 147.26 119.20 C 147.34 118.02 146.44 117.01 145.27 116.93 C 144.09 116.85 143.07 117.74 143.00 118.92 Z M 142.94 119.78 L 142.82 120.75 C 142.67 121.92 143.50 122.99 144.67 123.14 C 145.84 123.29 146.91 122.46 147.06 121.29 L 147.18 120.32 C 147.33 119.15 146.50 118.08 145.33 117.93 C 144.16 117.78 143.09 118.61 142.94 119.78 Z M 142.84 120.63 L 142.66 121.60 C 142.44 122.76 143.21 123.88 144.37 124.09 C 145.53 124.31 146.64 123.54 146.86 122.38 L 147.04 121.41 C 147.26 120.25 146.49 119.14 145.33 118.92 C 144.17 118.71 143.06 119.47 142.84 120.63 Z M 142.68 121.50 L 142.45 122.48 C 142.18 123.63 142.89 124.78 144.03 125.05 C 145.18 125.32 146.33 124.62 146.60 123.47 L 146.84 122.48 C 147.11 121.34 146.40 120.19 145.25 119.91 C 144.10 119.64 142.95 120.35 142.68 121.50 Z M 142.47 122.40 L 142.20 123.38 C 141.88 124.52 142.55 125.70 143.68 126.01 C 144.82 126.33 146.00 125.66 146.31 124.53 L 146.58 123.55 C 146.90 122.41 146.23 121.23 145.10 120.92 C 143.96 120.60 142.78 121.27 142.47 122.40 Z M 142.21 123.32 L 141.93 124.25 C 141.58 125.38 142.21 126.57 143.33 126.92 C 144.46 127.27 145.66 126.64 146.00 125.52 L 146.29 124.59 C 146.64 123.46 146.01 122.26 144.89 121.91 C 143.76 121.56 142.56 122.19 142.21 123.32 Z M 141.94 124.20 L 141.62 125.14 C 141.25 126.26 141.85 127.47 142.97 127.85 C 144.08 128.22 145.30 127.62 145.67 126.51 L 145.99 125.56 C 146.37 124.45 145.76 123.23 144.65 122.86 C 143.53 122.48 142.32 123.08 141.94 124.20 Z M 141.64 125.11 L 141.29 126.07 C 140.90 127.18 141.47 128.40 142.59 128.80 C 143.70 129.19 144.92 128.61 145.32 127.50 L 145.66 126.54 C 146.06 125.43 145.48 124.21 144.37 123.81 C 143.26 123.42 142.04 124.00 141.64 125.11 Z M 141.30 126.04 L 140.96 126.95 C 140.55 128.05 141.11 129.28 142.22 129.70 C 143.32 130.11 144.55 129.55 144.96 128.45 L 145.30 127.53 C 145.72 126.43 145.16 125.20 144.05 124.78 C 142.95 124.37 141.72 124.93 141.30 126.04 Z M 140.97 126.92 L 140.64 127.78 C 140.21 128.88 140.76 130.12 141.86 130.54 C 142.96 130.97 144.19 130.42 144.62 129.33 L 144.95 128.47 C 145.38 127.37 144.84 126.13 143.74 125.71 C 142.64 125.28 141.40 125.83 140.97 126.92 Z M 140.65 127.75 L 140.29 128.65 C 139.85 129.74 140.37 130.99 141.47 131.43 C 142.56 131.87 143.80 131.34 144.25 130.25 L 144.61 129.35 C 145.05 128.26 144.53 127.02 143.43 126.57 C 142.34 126.13 141.10 126.66 140.65 127.75 Z M 140.30 128.62 L 139.90 129.57 C 139.44 130.66 139.95 131.91 141.03 132.37 C 142.12 132.83 143.37 132.32 143.83 131.24 L 144.23 130.28 C 144.69 129.20 144.19 127.94 143.10 127.48 C 142.02 127.02 140.76 127.53 140.30 128.62 Z M 139.91 129.54 L 139.46 130.57 C 138.98 131.65 139.47 132.91 140.54 133.39 C 141.62 133.86 142.88 133.38 143.36 132.30 L 143.82 131.27 C 144.29 130.19 143.81 128.93 142.73 128.45 C 141.65 127.97 140.39 128.46 139.91 129.54 Z M 139.47 130.54 L 139.07 131.41 C 138.58 132.48 139.05 133.75 140.12 134.24 C 141.19 134.73 142.46 134.26 142.95 133.19 L 143.35 132.32 C 143.84 131.25 143.37 129.99 142.30 129.49 C 141.23 129.00 139.96 129.47 139.47 130.54 Z M 139.08 131.39 L 138.65 132.29 C 138.15 133.36 138.60 134.63 139.67 135.13 C 140.73 135.64 142.01 135.18 142.51 134.12 L 142.94 133.21 C 143.44 132.15 142.99 130.88 141.92 130.37 C 140.86 129.87 139.58 130.32 139.08 131.39 Z M 138.66 132.27 L 138.21 133.19 C 137.70 134.25 138.14 135.53 139.20 136.05 C 140.26 136.56 141.53 136.12 142.05 135.06 L 142.50 134.14 C 143.02 133.08 142.58 131.80 141.52 131.29 C 140.46 130.77 139.18 131.21 138.66 132.27 Z M 138.23 133.17 L 137.76 134.08 C 137.23 135.14 137.66 136.42 138.71 136.95 C 139.76 137.48 141.05 137.06 141.58 136.00 L 142.04 135.09 C 142.57 134.03 142.15 132.75 141.09 132.22 C 140.04 131.69 138.76 132.11 138.23 133.17 Z M 137.78 134.05 L 137.31 134.95 C 136.76 135.99 137.17 137.28 138.21 137.83 C 139.26 138.38 140.55 137.97 141.10 136.93 L 141.56 136.03 C 142.11 134.99 141.70 133.70 140.66 133.15 C 139.61 132.60 138.32 133.01 137.78 134.05 Z M 137.33 134.91 L 136.83 135.82 C 136.27 136.86 136.65 138.16 137.68 138.72 C 138.72 139.29 140.02 138.90 140.58 137.87 L 141.08 136.96 C 141.64 135.92 141.26 134.63 140.23 134.06 C 139.19 133.50 137.89 133.88 137.33 134.91 Z M 136.86 135.78 L 136.31 136.73 C 135.72 137.76 136.07 139.06 137.09 139.65 C 138.12 140.24 139.42 139.89 140.01 138.86 L 140.56 137.91 C 141.15 136.89 140.80 135.58 139.77 135.00 C 138.75 134.41 137.44 134.76 136.86 135.78 Z M 136.33 136.69 L 135.80 137.57 C 135.19 138.57 135.51 139.89 136.52 140.50 C 137.52 141.11 138.84 140.79 139.45 139.79 L 139.98 138.91 C 140.60 137.90 140.28 136.59 139.27 135.97 C 138.26 135.36 136.95 135.68 136.33 136.69 Z M 135.83 137.52 L 135.31 138.33 C 134.67 139.33 134.96 140.65 135.95 141.28 C 136.95 141.92 138.27 141.63 138.91 140.64 L 139.42 139.83 C 140.06 138.83 139.77 137.51 138.78 136.88 C 137.79 136.24 136.46 136.53 135.83 137.52 Z M 135.33 138.29 L 134.83 139.04 C 134.17 140.02 134.43 141.35 135.41 142.01 C 136.39 142.67 137.72 142.41 138.37 141.43 L 138.88 140.68 C 139.54 139.70 139.28 138.37 138.30 137.71 C 137.32 137.05 135.99 137.31 135.33 138.29 Z M 134.86 139.01 L 134.28 139.82 C 133.60 140.79 133.83 142.12 134.79 142.80 C 135.76 143.48 137.09 143.25 137.77 142.29 L 138.35 141.47 C 139.03 140.50 138.80 139.17 137.83 138.49 C 136.87 137.81 135.54 138.04 134.86 139.01 Z M 134.31 139.78 L 133.70 140.60 C 133.00 141.55 133.20 142.89 134.15 143.59 C 135.10 144.29 136.44 144.09 137.14 143.14 L 137.74 142.32 C 138.44 141.38 138.24 140.04 137.29 139.34 C 136.35 138.64 135.01 138.84 134.31 139.78 Z M 133.73 140.57 L 133.13 141.34 C 132.41 142.28 132.58 143.62 133.52 144.34 C 134.45 145.06 135.79 144.89 136.51 143.95 L 137.11 143.18 C 137.83 142.24 137.66 140.90 136.72 140.18 C 135.79 139.46 134.45 139.63 133.73 140.57 Z M 133.15 141.32 L 132.55 142.07 C 131.82 142.99 131.97 144.34 132.89 145.07 C 133.82 145.81 135.16 145.65 135.90 144.73 L 136.49 143.98 C 137.23 143.05 137.08 141.71 136.15 140.98 C 135.23 140.24 133.89 140.39 133.15 141.32 Z M 132.57 142.05 L 131.93 142.84 C 131.19 143.75 131.32 145.10 132.24 145.84 C 133.15 146.59 134.50 146.45 135.24 145.53 L 135.88 144.75 C 136.62 143.83 136.49 142.49 135.57 141.74 C 134.66 141.00 133.31 141.14 132.57 142.05 Z M 131.94 142.82 L 131.30 143.60 C 130.55 144.50 130.67 145.85 131.58 146.60 C 132.48 147.36 133.83 147.23 134.58 146.33 L 135.23 145.55 C 135.98 144.64 135.86 143.30 134.95 142.54 C 134.04 141.79 132.70 141.91 131.94 142.82 Z M 131.32 143.58 L 130.67 144.33 C 129.91 145.23 130.02 146.58 130.91 147.34 C 131.81 148.10 133.15 148.00 133.92 147.10 L 134.56 146.34 C 135.33 145.45 135.22 144.10 134.32 143.34 C 133.43 142.57 132.08 142.68 131.32 143.58 Z M 130.69 144.31 L 130.04 145.06 C 129.26 145.94 129.35 147.29 130.23 148.07 C 131.12 148.84 132.46 148.76 133.24 147.87 L 133.90 147.12 C 134.67 146.24 134.59 144.89 133.70 144.12 C 132.82 143.34 131.47 143.43 130.69 144.31 Z M 130.06 145.04 L 129.38 145.78 C 128.59 146.65 128.66 148.00 129.53 148.79 C 130.40 149.58 131.75 149.52 132.54 148.64 L 133.21 147.90 C 134.00 147.03 133.94 145.68 133.07 144.89 C 132.20 144.10 130.85 144.16 130.06 145.04 Z M 129.41 145.76 L 128.73 146.48 C 127.93 147.34 127.97 148.69 128.83 149.49 C 129.69 150.29 131.03 150.25 131.84 149.39 L 132.51 148.67 C 133.32 147.81 133.27 146.46 132.41 145.66 C 131.56 144.86 130.21 144.90 129.41 145.76 Z M 128.75 146.46 L 128.07 147.17 C 127.25 148.02 127.28 149.37 128.13 150.18 C 128.98 150.99 130.32 150.97 131.13 150.12 L 131.82 149.41 C 132.63 148.56 132.60 147.22 131.76 146.40 C 130.91 145.59 129.56 145.62 128.75 146.46 Z M 128.09 147.15 L 127.39 147.86 C 126.57 148.70 126.58 150.04 127.41 150.87 C 128.25 151.69 129.60 151.68 130.42 150.84 L 131.12 150.14 C 131.94 149.30 131.93 147.96 131.09 147.13 C 130.26 146.31 128.91 146.32 128.09 147.15 Z M 127.42 147.83 L 126.70 148.53 C 125.87 149.36 125.85 150.70 126.67 151.54 C 127.50 152.38 128.84 152.39 129.68 151.57 L 130.39 150.87 C 131.23 150.05 131.24 148.70 130.42 147.86 C 129.60 147.03 128.26 147.01 127.42 147.83 Z M 126.74 148.50 L 126.00 149.19 C 125.15 149.99 125.10 151.34 125.90 152.19 C 126.70 153.05 128.05 153.09 128.90 152.29 L 129.64 151.60 C 130.50 150.80 130.54 149.46 129.74 148.60 C 128.94 147.74 127.60 147.70 126.74 148.50 Z M 126.04 149.15 L 125.30 149.82 C 124.42 150.59 124.34 151.93 125.12 152.81 C 125.89 153.69 127.24 153.77 128.11 152.99 L 128.86 152.33 C 129.74 151.55 129.82 150.21 129.04 149.33 C 128.26 148.46 126.92 148.38 126.04 149.15 Z M 125.33 149.79 L 124.56 150.44 C 123.67 151.20 123.57 152.54 124.33 153.44 C 125.09 154.33 126.43 154.43 127.32 153.67 L 128.08 153.02 C 128.98 152.26 129.08 150.92 128.32 150.02 C 127.56 149.13 126.22 149.03 125.33 149.79 Z M 124.57 150.43 L 123.81 151.08 C 122.91 151.83 122.80 153.17 123.55 154.07 C 124.31 154.97 125.65 155.08 126.55 154.32 L 127.31 153.68 C 128.21 152.92 128.32 151.58 127.57 150.69 C 126.81 149.79 125.47 149.68 124.57 150.43 Z M 123.80 151.08 L 123.04 151.73 C 122.15 152.49 122.04 153.83 122.80 154.72 C 123.56 155.62 124.90 155.72 125.79 154.97 L 126.55 154.32 C 127.45 153.56 127.56 152.22 126.80 151.33 C 126.04 150.43 124.70 150.32 123.80 151.08 Z M 123.03 151.74 L 122.28 152.39 C 121.39 153.16 121.29 154.50 122.06 155.38 C 122.82 156.27 124.16 156.37 125.05 155.60 L 125.80 154.95 C 126.69 154.19 126.79 152.85 126.02 151.96 C 125.26 151.07 123.92 150.97 123.03 151.74 Z M 122.27 152.40 L 121.52 153.05 C 120.63 153.82 120.54 155.17 121.31 156.05 C 122.08 156.93 123.42 157.02 124.31 156.25 L 125.06 155.60 C 125.94 154.83 126.03 153.49 125.26 152.60 C 124.49 151.72 123.15 151.63 122.27 152.40 Z M 121.51 153.06 L 120.75 153.72 C 119.87 154.50 119.78 155.84 120.56 156.72 C 121.33 157.60 122.67 157.69 123.55 156.91 L 124.31 156.25 C 125.19 155.48 125.28 154.13 124.51 153.25 C 123.73 152.37 122.39 152.28 121.51 153.06 Z M 120.75 153.72 L 119.99 154.39 C 119.11 155.17 119.03 156.51 119.80 157.39 C 120.58 158.27 121.92 158.36 122.80 157.58 L 123.56 156.91 C 124.44 156.14 124.52 154.79 123.75 153.91 C 122.97 153.03 121.63 152.95 120.75 153.72 Z M 119.98 154.40 L 119.23 155.07 C 118.35 155.85 118.27 157.20 119.06 158.08 C 119.84 158.95 121.19 159.03 122.07 158.24 L 122.82 157.57 C 123.69 156.79 123.77 155.44 122.98 154.57 C 122.20 153.69 120.85 153.61 119.98 154.40 Z M 119.20 155.08 L 118.48 155.75 C 117.61 156.55 117.55 157.90 118.35 158.77 C 119.14 159.64 120.49 159.69 121.36 158.90 L 122.09 158.23 C 122.96 157.43 123.02 156.08 122.22 155.22 C 121.42 154.35 120.07 154.29 119.20 155.08 Z M 118.41 155.78 L 117.52 156.64 C 116.67 157.48 116.66 158.85 117.49 159.70 C 118.33 160.56 119.70 160.57 120.55 159.73 L 121.43 158.87 C 122.29 158.03 122.30 156.66 121.46 155.81 C 120.63 154.96 119.26 154.94 118.41 155.78 Z M 117.23 156.91 L 116.69 157.67 C 115.98 158.67 116.21 160.05 117.21 160.76 C 118.21 161.47 119.59 161.24 120.30 160.24 L 120.85 159.47 C 121.55 158.47 121.32 157.09 120.32 156.38 C 119.32 155.67 117.94 155.91 117.23 156.91 Z M 116.33 159.61 L 116.49 160.13 C 116.85 161.33 118.11 162.00 119.30 161.64 C 120.50 161.28 121.18 160.02 120.82 158.82 L 120.66 158.30 C 120.30 157.11 119.04 156.43 117.84 156.79 C 116.65 157.15 115.97 158.41 116.33 159.61 Z M 118.11 161.69 L 119.00 161.91 C 120.22 162.21 121.45 161.46 121.75 160.24 C 122.05 159.02 121.30 157.78 120.08 157.48 L 119.20 157.26 C 117.97 156.96 116.74 157.71 116.44 158.93 C 116.14 160.16 116.89 161.39 118.11 161.69 Z M 119.67 161.97 L 120.88 161.90 C 122.14 161.83 123.10 160.75 123.03 159.49 C 122.95 158.23 121.87 157.27 120.62 157.35 L 119.41 157.42 C 118.15 157.49 117.19 158.57 117.26 159.83 C 117.34 161.09 118.42 162.04 119.67 161.97 Z M 121.25 161.85 L 122.11 161.66 C 123.34 161.38 124.11 160.16 123.84 158.93 C 123.56 157.70 122.34 156.93 121.11 157.21 L 120.25 157.40 C 119.02 157.67 118.25 158.89 118.52 160.12 C 118.80 161.35 120.02 162.12 121.25 161.85 Z M 122.31 161.60 L 123.22 161.31 C 124.42 160.93 125.08 159.64 124.69 158.44 C 124.31 157.24 123.02 156.58 121.82 156.97 L 120.91 157.26 C 119.71 157.65 119.05 158.93 119.44 160.13 C 119.82 161.33 121.11 161.99 122.31 161.60 Z M 123.32 161.28 L 124.32 160.90 C 125.50 160.46 126.10 159.14 125.66 157.96 C 125.22 156.78 123.90 156.19 122.72 156.63 L 121.72 157.00 C 120.54 157.45 119.94 158.76 120.38 159.94 C 120.83 161.12 122.14 161.72 123.32 161.28 Z M 124.35 160.89 L 125.34 160.51 C 126.51 160.05 127.09 158.73 126.64 157.55 C 126.18 156.38 124.86 155.80 123.69 156.25 L 122.70 156.64 C 121.52 157.09 120.94 158.41 121.40 159.59 C 121.85 160.76 123.17 161.35 124.35 160.89 Z M 125.33 160.51 L 126.24 160.16 C 127.41 159.70 128.00 158.38 127.54 157.21 C 127.09 156.03 125.77 155.45 124.59 155.90 L 123.69 156.25 C 122.52 156.71 121.93 158.03 122.39 159.20 C 122.84 160.38 124.16 160.96 125.33 160.51 Z M 126.24 160.16 L 127.19 159.79 C 128.36 159.34 128.95 158.02 128.49 156.84 C 128.04 155.67 126.72 155.08 125.55 155.54 L 124.60 155.90 C 123.42 156.35 122.84 157.67 123.29 158.85 C 123.74 160.03 125.06 160.61 126.24 160.16 Z M 127.19 159.79 L 128.15 159.42 C 129.33 158.97 129.91 157.65 129.46 156.47 C 129.01 155.30 127.69 154.71 126.51 155.16 L 125.54 155.54 C 124.37 155.99 123.78 157.31 124.24 158.48 C 124.69 159.66 126.01 160.25 127.19 159.79 Z M 128.15 159.42 L 129.11 159.05 C 130.28 158.60 130.87 157.27 130.41 156.10 C 129.96 154.92 128.64 154.34 127.46 154.80 L 126.51 155.16 C 125.33 155.62 124.75 156.94 125.20 158.11 C 125.66 159.29 126.98 159.87 128.15 159.42 Z M 129.11 159.05 L 130.03 158.69 C 131.21 158.23 131.79 156.91 131.33 155.74 C 130.87 154.56 129.55 153.98 128.38 154.44 L 127.46 154.80 C 126.28 155.25 125.70 156.58 126.16 157.75 C 126.62 158.92 127.94 159.51 129.11 159.05 Z M 130.04 158.69 L 130.93 158.34 C 132.10 157.88 132.68 156.55 132.22 155.38 C 131.76 154.21 130.44 153.63 129.26 154.09 L 128.37 154.44 C 127.20 154.90 126.62 156.23 127.08 157.40 C 127.54 158.57 128.87 159.15 130.04 158.69 Z M 130.94 158.34 L 131.82 157.98 C 132.99 157.52 133.57 156.20 133.10 155.02 C 132.64 153.85 131.32 153.28 130.14 153.74 L 129.26 154.09 C 128.09 154.56 127.51 155.88 127.98 157.05 C 128.44 158.22 129.76 158.80 130.94 158.34 Z M 131.83 157.98 L 132.74 157.62 C 133.91 157.15 134.49 155.83 134.02 154.66 C 133.56 153.49 132.23 152.91 131.06 153.38 L 130.14 153.74 C 128.97 154.21 128.40 155.53 128.86 156.70 C 129.33 157.88 130.65 158.45 131.83 157.98 Z M 132.74 157.62 L 133.73 157.23 C 134.90 156.76 135.47 155.44 135.00 154.27 C 134.54 153.10 133.21 152.52 132.04 152.99 L 131.06 153.38 C 129.89 153.84 129.31 155.17 129.78 156.34 C 130.25 157.51 131.57 158.08 132.74 157.62 Z M 133.73 157.23 L 134.61 156.88 C 135.78 156.41 136.35 155.09 135.89 153.92 C 135.43 152.74 134.10 152.17 132.93 152.64 L 132.04 152.99 C 130.87 153.45 130.30 154.78 130.76 155.95 C 131.23 157.12 132.55 157.69 133.73 157.23 Z M 134.61 156.88 L 135.43 156.55 C 136.60 156.09 137.18 154.76 136.71 153.59 C 136.25 152.42 134.92 151.85 133.75 152.31 L 132.93 152.64 C 131.76 153.10 131.18 154.43 131.65 155.60 C 132.11 156.77 133.44 157.34 134.61 156.88 Z M 135.44 156.55 L 136.31 156.20 C 137.48 155.74 138.05 154.41 137.58 153.24 C 137.12 152.07 135.79 151.50 134.62 151.96 L 133.74 152.31 C 132.57 152.78 132.00 154.11 132.47 155.28 C 132.94 156.45 134.26 157.02 135.44 156.55 Z M 136.31 156.20 L 137.23 155.83 C 138.40 155.36 138.97 154.03 138.50 152.86 C 138.03 151.69 136.70 151.13 135.53 151.60 L 134.61 151.97 C 133.44 152.43 132.87 153.76 133.34 154.93 C 133.81 156.10 135.14 156.67 136.31 156.20 Z M 137.24 155.83 L 138.20 155.44 C 139.37 154.97 139.93 153.63 139.46 152.47 C 138.99 151.30 137.65 150.73 136.49 151.21 L 135.52 151.60 C 134.36 152.07 133.79 153.40 134.27 154.57 C 134.74 155.74 136.07 156.30 137.24 155.83 Z M 138.21 155.44 L 139.21 155.03 C 140.38 154.55 140.94 153.21 140.46 152.05 C 139.98 150.88 138.65 150.32 137.48 150.80 L 136.48 151.21 C 135.31 151.69 134.75 153.02 135.23 154.19 C 135.71 155.36 137.04 155.91 138.21 155.44 Z M 139.22 155.02 L 140.26 154.59 C 141.42 154.11 141.97 152.77 141.49 151.61 C 141.01 150.44 139.67 149.89 138.50 150.37 L 137.47 150.80 C 136.30 151.29 135.75 152.63 136.24 153.79 C 136.72 154.95 138.06 155.51 139.22 155.02 Z M 140.27 154.59 L 141.27 154.16 C 142.43 153.67 142.98 152.33 142.49 151.17 C 142.00 150.01 140.66 149.46 139.50 149.96 L 138.49 150.38 C 137.33 150.87 136.79 152.21 137.28 153.37 C 137.77 154.53 139.11 155.08 140.27 154.59 Z M 141.28 154.16 L 142.27 153.74 C 143.43 153.24 143.97 151.90 143.47 150.74 C 142.98 149.58 141.63 149.04 140.47 149.54 L 139.49 149.96 C 138.33 150.45 137.79 151.80 138.28 152.96 C 138.78 154.12 140.12 154.66 141.28 154.16 Z M 142.28 153.73 L 143.26 153.31 C 144.42 152.81 144.96 151.46 144.46 150.31 C 143.96 149.15 142.61 148.61 141.45 149.11 L 140.47 149.54 C 139.31 150.04 138.77 151.38 139.27 152.54 C 139.77 153.70 141.12 154.23 142.28 153.73 Z M 143.27 153.31 L 144.24 152.88 C 145.40 152.38 145.93 151.03 145.42 149.88 C 144.92 148.72 143.57 148.19 142.42 148.69 L 141.45 149.12 C 140.29 149.62 139.76 150.97 140.26 152.12 C 140.77 153.28 142.11 153.81 143.27 153.31 Z M 144.25 152.88 L 145.18 152.47 C 146.34 151.97 146.87 150.62 146.36 149.46 C 145.85 148.31 144.51 147.78 143.35 148.29 L 142.41 148.70 C 141.26 149.20 140.73 150.55 141.24 151.71 C 141.74 152.86 143.09 153.39 144.25 152.88 Z M 145.19 152.47 L 146.07 152.08 C 147.23 151.57 147.75 150.22 147.25 149.07 C 146.74 147.91 145.39 147.39 144.23 147.90 L 143.34 148.29 C 142.19 148.80 141.67 150.14 142.17 151.30 C 142.68 152.45 144.03 152.98 145.19 152.47 Z M 146.08 152.08 L 146.90 151.72 C 148.06 151.21 148.58 149.86 148.07 148.70 C 147.56 147.55 146.21 147.02 145.05 147.53 L 144.23 147.90 C 143.08 148.41 142.55 149.76 143.06 150.91 C 143.57 152.07 144.92 152.59 146.08 152.08 Z M 146.90 151.72 L 147.75 151.34 C 148.91 150.83 149.43 149.48 148.92 148.32 C 148.40 147.17 147.05 146.65 145.90 147.16 L 145.05 147.53 C 143.90 148.04 143.37 149.39 143.89 150.55 C 144.40 151.71 145.75 152.23 146.90 151.72 Z M 147.76 151.35 L 148.88 150.85 C 150.04 150.34 150.56 148.98 150.04 147.82 C 149.53 146.66 148.17 146.14 147.01 146.65 L 145.89 147.15 C 144.73 147.66 144.21 149.02 144.72 150.18 C 145.24 151.34 146.60 151.86 147.76 151.35 Z M 148.90 150.86 L 149.81 150.45 C 150.97 149.92 151.49 148.55 150.96 147.39 C 150.44 146.22 149.07 145.71 147.90 146.23 L 146.99 146.64 C 145.83 147.17 145.31 148.54 145.84 149.70 C 146.36 150.87 147.73 151.39 148.90 150.86 Z M 149.84 150.45 L 150.63 150.08 C 151.79 149.54 152.30 148.16 151.75 146.99 C 151.21 145.82 149.82 145.32 148.66 145.86 L 147.87 146.23 C 146.71 146.77 146.20 148.16 146.75 149.33 C 147.29 150.49 148.67 150.99 149.84 150.45 Z M 150.67 150.08 L 151.42 149.71 C 152.58 149.15 153.06 147.74 152.50 146.58 C 151.93 145.42 150.52 144.93 149.36 145.50 L 148.61 145.87 C 147.45 146.44 146.97 147.84 147.54 149.00 C 148.10 150.17 149.51 150.65 150.67 150.08 Z M 151.46 149.70 L 152.33 149.26 C 153.48 148.67 153.94 147.25 153.34 146.09 C 152.75 144.94 151.33 144.48 150.18 145.07 L 149.32 145.52 C 148.16 146.11 147.70 147.53 148.30 148.68 C 148.89 149.84 150.31 150.29 151.46 149.70 Z M 152.36 149.24 L 153.24 148.77 C 154.39 148.16 154.83 146.74 154.22 145.59 C 153.61 144.44 152.18 144.01 151.04 144.62 L 150.15 145.09 C 149.00 145.70 148.57 147.12 149.17 148.27 C 149.78 149.42 151.21 149.85 152.36 149.24 Z M 153.26 148.76 L 154.16 148.28 C 155.30 147.66 155.72 146.23 155.11 145.09 C 154.49 143.94 153.06 143.52 151.92 144.14 L 151.02 144.63 C 149.88 145.24 149.45 146.67 150.07 147.81 C 150.69 148.96 152.12 149.38 153.26 148.76 Z M 154.17 148.27 L 155.07 147.78 C 156.21 147.16 156.63 145.73 156.00 144.59 C 155.38 143.45 153.95 143.03 152.81 143.65 L 151.91 144.14 C 150.77 144.77 150.35 146.20 150.97 147.34 C 151.59 148.48 153.03 148.90 154.17 148.27 Z M 155.07 147.79 L 155.96 147.30 C 157.11 146.68 157.53 145.24 156.90 144.10 C 156.28 142.95 154.85 142.53 153.70 143.15 L 152.80 143.64 C 151.66 144.27 151.24 145.70 151.86 146.85 C 152.49 147.99 153.92 148.41 155.07 147.79 Z M 155.96 147.31 L 156.83 146.84 C 157.99 146.22 158.42 144.78 157.80 143.63 C 157.18 142.48 155.74 142.05 154.58 142.67 L 153.71 143.14 C 152.55 143.76 152.12 145.20 152.74 146.35 C 153.36 147.50 154.80 147.94 155.96 147.31 Z M 156.81 146.86 L 157.68 146.41 C 158.84 145.80 159.29 144.36 158.68 143.20 C 158.07 142.03 156.63 141.58 155.46 142.20 L 154.60 142.65 C 153.44 143.26 152.99 144.70 153.60 145.86 C 154.21 147.03 155.65 147.47 156.81 146.86 Z M 157.64 146.43 L 158.51 146.00 C 159.68 145.41 160.16 143.97 159.56 142.79 C 158.97 141.62 157.53 141.14 156.36 141.74 L 155.49 142.17 C 154.32 142.77 153.84 144.20 154.44 145.38 C 155.03 146.56 156.47 147.03 157.64 146.43 Z M 158.47 146.02 L 159.35 145.60 C 160.54 145.02 161.03 143.60 160.46 142.41 C 159.89 141.22 158.46 140.72 157.27 141.29 L 156.39 141.72 C 155.21 142.29 154.71 143.72 155.28 144.91 C 155.85 146.09 157.28 146.59 158.47 146.02 Z M 159.31 145.62 L 160.23 145.19 C 161.43 144.64 161.95 143.22 161.40 142.02 C 160.85 140.82 159.43 140.30 158.23 140.85 L 157.31 141.27 C 156.11 141.83 155.59 143.25 156.14 144.45 C 156.69 145.65 158.11 146.17 159.31 145.62 Z M 160.20 145.20 L 161.12 144.80 C 162.32 144.26 162.86 142.84 162.33 141.64 C 161.79 140.43 160.37 139.89 159.17 140.43 L 158.26 140.84 C 157.05 141.37 156.51 142.79 157.05 143.99 C 157.58 145.20 159.00 145.74 160.20 145.20 Z M 161.09 144.81 L 161.95 144.43 C 163.16 143.91 163.72 142.50 163.20 141.29 C 162.67 140.08 161.26 139.52 160.05 140.05 L 159.19 140.42 C 157.98 140.94 157.42 142.35 157.95 143.56 C 158.47 144.77 159.88 145.33 161.09 144.81 Z M 161.93 144.44 L 162.84 144.06 C 164.06 143.54 164.63 142.15 164.12 140.93 C 163.61 139.72 162.21 139.14 160.99 139.66 L 160.08 140.04 C 158.86 140.55 158.29 141.95 158.80 143.16 C 159.31 144.38 160.71 144.95 161.93 144.44 Z M 162.81 144.06 L 163.78 143.67 C 165.00 143.18 165.58 141.79 165.09 140.57 C 164.59 139.35 163.20 138.76 161.98 139.26 L 161.02 139.65 C 159.80 140.14 159.21 141.53 159.71 142.75 C 160.20 143.97 161.60 144.56 162.81 144.06 Z M 163.75 143.68 L 164.75 143.29 C 165.97 142.81 166.57 141.43 166.09 140.21 C 165.61 138.98 164.23 138.38 163.01 138.86 L 162.01 139.25 C 160.79 139.73 160.19 141.11 160.66 142.33 C 161.14 143.56 162.52 144.16 163.75 143.68 Z M 164.72 143.30 L 165.66 142.94 C 166.89 142.48 167.51 141.10 167.05 139.87 C 166.58 138.65 165.21 138.03 163.98 138.49 L 163.04 138.85 C 161.81 139.31 161.19 140.69 161.65 141.92 C 162.12 143.15 163.49 143.77 164.72 143.30 Z M 165.65 142.95 L 166.60 142.60 C 167.84 142.14 168.47 140.77 168.01 139.54 C 167.56 138.30 166.19 137.67 164.95 138.13 L 164.00 138.48 C 162.76 138.94 162.13 140.31 162.59 141.54 C 163.04 142.78 164.41 143.41 165.65 142.95 Z M 166.60 142.60 L 167.55 142.26 C 168.79 141.80 169.42 140.43 168.97 139.20 C 168.52 137.96 167.15 137.32 165.91 137.77 L 164.96 138.12 C 163.72 138.57 163.09 139.94 163.54 141.18 C 163.99 142.42 165.36 143.06 166.60 142.60 Z M 167.55 142.26 L 168.48 141.92 C 169.72 141.47 170.35 140.10 169.90 138.86 C 169.45 137.62 168.08 136.98 166.84 137.43 L 165.91 137.77 C 164.67 138.22 164.03 139.60 164.49 140.83 C 164.94 142.07 166.31 142.71 167.55 142.26 Z M 168.49 141.92 L 169.44 141.57 C 170.68 141.11 171.32 139.73 170.86 138.49 C 170.40 137.25 169.02 136.62 167.78 137.08 L 166.83 137.43 C 165.59 137.89 164.96 139.27 165.41 140.51 C 165.87 141.75 167.25 142.38 168.49 141.92 Z M 169.46 141.56 L 170.46 141.18 C 171.70 140.72 172.32 139.33 171.86 138.10 C 171.39 136.86 170.00 136.23 168.77 136.70 L 167.77 137.08 C 166.53 137.55 165.91 138.93 166.37 140.17 C 166.84 141.41 168.23 142.03 169.46 141.56 Z M 170.49 141.18 L 171.42 140.82 C 172.65 140.34 173.26 138.95 172.78 137.71 C 172.30 136.47 170.91 135.86 169.67 136.34 L 168.74 136.71 C 167.51 137.19 166.90 138.58 167.38 139.82 C 167.86 141.05 169.25 141.66 170.49 141.18 Z M 171.44 140.81 L 172.31 140.47 C 173.54 139.97 174.14 138.57 173.64 137.34 C 173.15 136.10 171.75 135.51 170.52 136.00 L 169.65 136.35 C 168.42 136.84 167.82 138.24 168.31 139.48 C 168.81 140.71 170.21 141.31 171.44 140.81 Z M 172.34 140.46 L 173.24 140.09 C 174.47 139.58 175.05 138.16 174.54 136.93 C 174.03 135.70 172.62 135.12 171.39 135.63 L 170.49 136.01 C 169.26 136.52 168.67 137.93 169.18 139.16 C 169.70 140.39 171.11 140.97 172.34 140.46 Z M 173.27 140.09 L 174.20 139.69 C 175.43 139.16 176.00 137.74 175.47 136.51 C 174.94 135.28 173.52 134.71 172.29 135.23 L 171.36 135.63 C 170.13 136.16 169.56 137.58 170.09 138.81 C 170.61 140.04 172.04 140.61 173.27 140.09 Z M 174.21 139.69 L 175.11 139.30 C 176.34 138.77 176.91 137.33 176.37 136.10 C 175.84 134.87 174.40 134.30 173.17 134.84 L 172.27 135.23 C 171.04 135.76 170.48 137.20 171.01 138.43 C 171.55 139.66 172.98 140.23 174.21 139.69 Z M 175.11 139.31 L 176.01 138.92 C 177.25 138.39 177.82 136.95 177.28 135.71 C 176.75 134.47 175.31 133.90 174.07 134.44 L 173.17 134.83 C 171.93 135.36 171.36 136.80 171.90 138.04 C 172.44 139.28 173.87 139.85 175.11 139.31 Z M 175.99 138.94 L 176.91 138.55 C 178.16 138.02 178.74 136.58 178.21 135.34 C 177.69 134.10 176.25 133.51 175.01 134.04 L 174.09 134.43 C 172.84 134.95 172.26 136.39 172.79 137.63 C 173.31 138.88 174.75 139.46 175.99 138.94 Z M 176.88 138.56 L 177.81 138.18 C 179.06 137.68 179.66 136.25 179.16 135.00 C 178.65 133.75 177.23 133.14 175.97 133.65 L 175.04 134.03 C 173.79 134.53 173.19 135.96 173.69 137.21 C 174.20 138.46 175.63 139.07 176.88 138.56 Z M 177.75 138.21 L 178.75 137.83 C 180.01 137.36 180.65 135.94 180.17 134.68 C 179.70 133.42 178.29 132.78 177.02 133.25 L 176.03 133.63 C 174.77 134.10 174.13 135.51 174.60 136.78 C 175.08 138.04 176.49 138.68 177.75 138.21 Z M 178.58 137.89 L 179.73 137.55 C 181.03 137.17 181.77 135.80 181.38 134.50 C 181.00 133.20 179.63 132.46 178.33 132.85 L 177.19 133.19 C 175.89 133.58 175.15 134.94 175.53 136.24 C 175.92 137.54 177.29 138.28 178.58 137.89 Z M 178.91 137.66 L 179.66 137.70 C 181.02 137.77 182.18 136.73 182.25 135.37 C 182.32 134.01 181.27 132.85 179.91 132.78 L 179.16 132.74 C 177.80 132.67 176.64 133.72 176.57 135.08 C 176.50 136.44 177.55 137.59 178.91 137.66 Z M 177.35 135.68 L 177.45 136.25 C 177.70 137.60 178.98 138.49 180.33 138.25 C 181.67 138.01 182.56 136.72 182.32 135.38 L 182.22 134.80 C 181.98 133.46 180.69 132.56 179.35 132.81 C 178.00 133.05 177.11 134.33 177.35 135.68 Z M 177.58 134.93 L 177.20 135.91 C 176.72 137.18 177.36 138.61 178.63 139.10 C 179.91 139.59 181.34 138.95 181.82 137.67 L 182.20 136.70 C 182.69 135.42 182.05 133.99 180.77 133.50 C 179.49 133.02 178.06 133.65 177.58 134.93 Z M 177.33 135.63 L 176.76 136.71 C 176.12 137.92 176.58 139.41 177.79 140.05 C 179.00 140.69 180.49 140.23 181.13 139.02 L 181.70 137.95 C 182.34 136.74 181.88 135.24 180.67 134.60 C 179.46 133.97 177.97 134.43 177.33 135.63 Z M 176.80 136.63 L 176.32 137.48 C 175.64 138.67 176.05 140.18 177.23 140.86 C 178.41 141.54 179.93 141.13 180.60 139.94 L 181.09 139.09 C 181.77 137.91 181.36 136.40 180.18 135.72 C 178.99 135.04 177.48 135.45 176.80 136.63 Z M 176.33 137.46 L 175.82 138.33 C 175.13 139.51 175.52 141.02 176.70 141.71 C 177.88 142.40 179.39 142.01 180.08 140.83 L 180.59 139.96 C 181.28 138.78 180.89 137.27 179.71 136.58 C 178.53 135.89 177.02 136.28 176.33 137.46 Z M 175.81 138.34 L 175.30 139.22 C 174.62 140.40 175.02 141.92 176.20 142.60 C 177.38 143.28 178.89 142.88 179.58 141.70 L 180.09 140.82 C 180.78 139.64 180.37 138.13 179.19 137.44 C 178.01 136.76 176.50 137.16 175.81 138.34 Z M 175.28 139.26 L 174.79 140.15 C 174.12 141.34 174.55 142.85 175.74 143.51 C 176.94 144.18 178.44 143.75 179.11 142.55 L 179.60 141.66 C 180.26 140.47 179.83 138.96 178.64 138.30 C 177.45 137.64 175.94 138.07 175.28 139.26 Z M 174.76 140.20 L 174.29 141.09 C 173.65 142.29 174.11 143.79 175.32 144.43 C 176.52 145.07 178.02 144.61 178.65 143.40 L 179.13 142.51 C 179.77 141.30 179.31 139.81 178.10 139.17 C 176.90 138.53 175.40 138.99 174.76 140.20 Z M 174.27 141.12 L 173.82 142.01 C 173.20 143.22 173.68 144.71 174.89 145.33 C 176.10 145.96 177.59 145.47 178.21 144.26 L 178.67 143.37 C 179.29 142.16 178.81 140.67 177.60 140.05 C 176.38 139.43 174.90 139.91 174.27 141.12 Z M 173.81 142.03 L 173.37 142.91 C 172.76 144.12 173.25 145.61 174.47 146.22 C 175.68 146.83 177.17 146.34 177.78 145.12 L 178.22 144.24 C 178.83 143.03 178.34 141.54 177.12 140.93 C 175.91 140.32 174.42 140.81 173.81 142.03 Z M 173.37 142.91 L 172.92 143.81 C 172.31 145.03 172.80 146.51 174.02 147.12 C 175.24 147.73 176.72 147.24 177.33 146.02 L 177.78 145.12 C 178.39 143.90 177.90 142.42 176.68 141.81 C 175.46 141.20 173.98 141.69 173.37 142.91 Z M 172.92 143.82 L 172.47 144.71 C 171.87 145.93 172.36 147.41 173.58 148.02 C 174.80 148.62 176.28 148.13 176.88 146.91 L 177.33 146.02 C 177.94 144.80 177.44 143.32 176.22 142.71 C 175.00 142.11 173.53 142.60 172.92 143.82 Z M 172.47 144.72 L 172.03 145.61 C 171.43 146.83 171.93 148.30 173.15 148.91 C 174.36 149.51 175.84 149.01 176.44 147.79 L 176.88 146.90 C 177.49 145.68 176.99 144.21 175.77 143.61 C 174.55 143.00 173.07 143.50 172.47 144.72 Z M 172.03 145.62 L 171.59 146.52 C 170.99 147.74 171.50 149.21 172.72 149.81 C 173.94 150.41 175.41 149.90 176.01 148.68 L 176.45 147.78 C 177.04 146.56 176.54 145.09 175.32 144.49 C 174.10 143.89 172.63 144.40 172.03 145.62 Z M 171.59 146.53 L 171.14 147.45 C 170.56 148.67 171.07 150.14 172.29 150.73 C 173.51 151.32 174.98 150.80 175.57 149.58 L 176.01 148.67 C 176.60 147.44 176.09 145.98 174.87 145.39 C 173.64 144.80 172.18 145.31 171.59 146.53 Z M 171.14 147.46 L 170.71 148.37 C 170.13 149.59 170.65 151.06 171.87 151.64 C 173.10 152.22 174.56 151.70 175.14 150.48 L 175.57 149.57 C 176.15 148.34 175.63 146.88 174.41 146.30 C 173.19 145.72 171.72 146.24 171.14 147.46 Z M 170.71 148.39 L 170.29 149.27 C 169.72 150.50 170.25 151.96 171.47 152.53 C 172.70 153.10 174.16 152.57 174.73 151.35 L 175.14 150.46 C 175.72 149.23 175.19 147.78 173.96 147.21 C 172.74 146.63 171.28 147.16 170.71 148.39 Z M 170.29 149.29 L 169.86 150.22 C 169.30 151.45 169.84 152.90 171.06 153.46 C 172.29 154.03 173.74 153.49 174.31 152.26 L 174.73 151.33 C 175.30 150.10 174.76 148.65 173.53 148.09 C 172.30 147.52 170.85 148.06 170.29 149.29 Z M 169.86 150.23 L 169.45 151.13 C 168.89 152.36 169.43 153.81 170.66 154.37 C 171.88 154.93 173.33 154.39 173.89 153.16 L 174.31 152.25 C 174.87 151.03 174.33 149.58 173.10 149.02 C 171.87 148.46 170.42 149.00 169.86 150.23 Z M 169.45 151.12 L 169.04 152.01 C 168.48 153.24 169.01 154.69 170.23 155.26 C 171.46 155.82 172.91 155.29 173.48 154.06 L 173.89 153.17 C 174.45 151.95 173.92 150.50 172.69 149.93 C 171.47 149.36 170.02 149.90 169.45 151.12 Z M 169.05 151.99 L 168.63 152.88 C 168.05 154.10 168.57 155.55 169.79 156.13 C 171.00 156.71 172.46 156.20 173.04 154.98 L 173.46 154.09 C 174.04 152.87 173.53 151.41 172.31 150.83 C 171.09 150.25 169.63 150.77 169.05 151.99 Z M 168.64 152.87 L 168.20 153.77 C 167.62 154.98 168.13 156.44 169.34 157.02 C 170.55 157.61 172.01 157.10 172.60 155.89 L 173.03 154.99 C 173.62 153.78 173.11 152.32 171.90 151.73 C 170.68 151.14 169.22 151.65 168.64 152.87 Z M 168.20 153.78 L 167.77 154.69 C 167.19 155.90 167.70 157.36 168.92 157.94 C 170.14 158.52 171.59 158.00 172.17 156.78 L 172.60 155.88 C 173.18 154.66 172.67 153.20 171.45 152.63 C 170.23 152.05 168.78 152.56 168.20 153.78 Z M 167.75 154.72 L 167.34 155.62 C 166.78 156.84 167.32 158.29 168.55 158.85 C 169.77 159.41 171.22 158.87 171.78 157.64 L 172.19 156.75 C 172.75 155.52 172.21 154.08 170.98 153.52 C 169.76 152.96 168.31 153.50 167.75 154.72 Z M 167.33 155.64 L 166.93 156.54 C 166.39 157.77 166.94 159.21 168.17 159.76 C 169.40 160.30 170.84 159.75 171.39 158.52 L 171.79 157.62 C 172.33 156.39 171.78 154.95 170.55 154.40 C 169.32 153.86 167.88 154.41 167.33 155.64 Z M 166.94 156.53 L 166.52 157.45 C 165.97 158.68 166.52 160.12 167.74 160.67 C 168.97 161.23 170.41 160.68 170.97 159.45 L 171.38 158.53 C 171.93 157.30 171.39 155.86 170.16 155.31 C 168.93 154.75 167.49 155.30 166.94 156.53 Z M 166.54 157.41 L 166.11 158.33 C 165.53 159.55 166.05 161.00 167.27 161.57 C 168.49 162.15 169.94 161.63 170.51 160.41 L 170.95 159.49 C 171.52 158.27 171.00 156.82 169.78 156.25 C 168.57 155.67 167.12 156.19 166.54 157.41 Z M 166.13 158.28 L 165.69 159.18 C 165.09 160.38 165.58 161.84 166.78 162.44 C 167.99 163.04 169.45 162.55 170.05 161.35 L 170.49 160.45 C 171.09 159.25 170.60 157.79 169.40 157.19 C 168.19 156.59 166.73 157.08 166.13 158.28 Z M 165.70 159.15 L 165.24 160.05 C 164.62 161.24 165.10 162.71 166.29 163.33 C 167.49 163.94 168.96 163.47 169.57 162.27 L 170.03 161.37 C 170.65 160.18 170.18 158.71 168.98 158.09 C 167.78 157.48 166.32 157.95 165.70 159.15 Z M 165.25 160.03 L 164.78 160.92 C 164.16 162.11 164.62 163.58 165.81 164.21 C 167.00 164.83 168.48 164.37 169.10 163.18 L 169.56 162.29 C 170.19 161.10 169.73 159.62 168.53 159.00 C 167.34 158.38 165.87 158.84 165.25 160.03 Z M 164.79 160.92 L 164.32 161.80 C 163.70 162.99 164.16 164.46 165.35 165.08 C 166.54 165.71 168.01 165.25 168.63 164.06 L 169.10 163.18 C 169.72 161.99 169.26 160.52 168.07 159.89 C 166.88 159.27 165.41 159.73 164.79 160.92 Z M 164.32 161.80 L 163.86 162.68 C 163.24 163.87 163.71 165.34 164.90 165.96 C 166.09 166.58 167.56 166.12 168.18 164.93 L 168.64 164.05 C 169.26 162.86 168.80 161.39 167.60 160.77 C 166.41 160.15 164.94 160.61 164.32 161.80 Z M 163.86 162.69 L 163.40 163.58 C 162.79 164.78 163.26 166.25 164.45 166.86 C 165.65 167.47 167.12 167.00 167.73 165.81 L 168.19 164.91 C 168.80 163.72 168.33 162.25 167.13 161.64 C 165.94 161.02 164.47 161.50 163.86 162.69 Z M 163.39 163.60 L 162.94 164.51 C 162.34 165.71 162.82 167.17 164.02 167.77 C 165.22 168.37 166.69 167.89 167.29 166.69 L 167.74 165.78 C 168.34 164.58 167.86 163.12 166.66 162.52 C 165.45 161.92 163.99 162.40 163.39 163.60 Z M 162.93 164.53 L 162.49 165.43 C 161.90 166.64 162.40 168.09 163.61 168.68 C 164.81 169.27 166.27 168.77 166.86 167.56 L 167.30 166.66 C 167.89 165.46 167.39 164.00 166.18 163.41 C 164.97 162.82 163.52 163.32 162.93 164.53 Z M 162.47 165.45 L 162.04 166.37 C 161.47 167.58 161.98 169.04 163.20 169.61 C 164.41 170.19 165.86 169.67 166.44 168.45 L 166.87 167.54 C 167.45 166.32 166.93 164.87 165.72 164.30 C 164.50 163.72 163.05 164.24 162.47 165.45 Z M 162.03 166.40 L 161.61 167.31 C 161.05 168.53 161.59 169.98 162.81 170.53 C 164.03 171.09 165.48 170.56 166.04 169.33 L 166.45 168.42 C 167.01 167.20 166.48 165.76 165.25 165.20 C 164.03 164.64 162.59 165.18 162.03 166.40 Z M 161.59 167.34 L 161.22 168.21 C 160.68 169.44 161.24 170.87 162.47 171.41 C 163.70 171.95 165.14 171.39 165.68 170.16 L 166.06 169.30 C 166.59 168.06 166.03 166.63 164.80 166.09 C 163.57 165.55 162.13 166.11 161.59 167.34 Z M 161.20 168.26 L 160.84 169.12 C 160.33 170.36 160.93 171.78 162.17 172.29 C 163.42 172.80 164.84 172.21 165.35 170.97 L 165.70 170.11 C 166.21 168.86 165.62 167.44 164.37 166.93 C 163.13 166.42 161.71 167.01 161.20 168.26 Z M 160.82 169.18 L 160.47 170.10 C 159.99 171.36 160.63 172.77 161.89 173.24 C 163.14 173.72 164.55 173.08 165.02 171.83 L 165.37 170.90 C 165.85 169.64 165.21 168.24 163.96 167.76 C 162.70 167.29 161.29 167.92 160.82 169.18 Z M 160.45 170.17 L 160.08 171.21 C 159.64 172.48 160.32 173.87 161.59 174.31 C 162.86 174.75 164.25 174.08 164.69 172.80 L 165.05 171.76 C 165.49 170.49 164.81 169.10 163.54 168.66 C 162.27 168.22 160.89 168.90 160.45 170.17 Z M 160.07 171.26 L 159.76 172.20 C 159.35 173.48 160.05 174.86 161.33 175.27 C 162.61 175.68 163.99 174.98 164.40 173.70 L 164.70 172.76 C 165.12 171.48 164.41 170.10 163.13 169.69 C 161.85 169.28 160.48 169.98 160.07 171.26 Z M 159.75 172.24 L 159.46 173.20 C 159.06 174.49 159.78 175.85 161.07 176.25 C 162.35 176.64 163.72 175.92 164.11 174.63 L 164.41 173.67 C 164.80 172.38 164.08 171.02 162.80 170.62 C 161.51 170.23 160.15 170.95 159.75 172.24 Z M 159.45 173.23 L 159.15 174.22 C 158.77 175.51 159.51 176.87 160.80 177.25 C 162.09 177.63 163.44 176.90 163.82 175.61 L 164.12 174.61 C 164.50 173.32 163.77 171.96 162.48 171.58 C 161.19 171.20 159.83 171.94 159.45 173.23 Z M 159.15 174.24 L 158.86 175.24 C 158.49 176.53 159.24 177.88 160.53 178.25 C 161.82 178.62 163.17 177.87 163.54 176.58 L 163.83 175.59 C 164.20 174.30 163.45 172.95 162.16 172.58 C 160.87 172.20 159.52 172.95 159.15 174.24 Z M 158.86 175.25 L 158.59 176.20 C 158.23 177.50 158.99 178.84 160.29 179.20 C 161.58 179.56 162.92 178.80 163.29 177.51 L 163.55 176.56 C 163.91 175.27 163.15 173.92 161.86 173.56 C 160.56 173.20 159.22 173.96 158.86 175.25 Z M 158.59 176.22 L 158.30 177.29 C 157.96 178.59 158.72 179.92 160.02 180.27 C 161.32 180.62 162.65 179.85 163.00 178.55 L 163.29 177.48 C 163.64 176.19 162.87 174.85 161.57 174.50 C 160.27 174.16 158.94 174.93 158.59 176.22 Z M 158.30 177.33 L 158.04 178.35 C 157.71 179.65 158.50 180.97 159.80 181.30 C 161.10 181.63 162.42 180.85 162.75 179.55 L 163.01 178.52 C 163.34 177.22 162.55 175.90 161.25 175.57 C 159.95 175.24 158.63 176.02 158.30 177.33 Z M 158.03 178.40 L 157.82 179.32 C 157.51 180.62 158.33 181.93 159.63 182.23 C 160.93 182.53 162.24 181.72 162.54 180.42 L 162.75 179.50 C 163.06 178.19 162.25 176.89 160.94 176.59 C 159.64 176.28 158.34 177.10 158.03 178.40 Z M 157.81 179.37 L 157.63 180.23 C 157.36 181.54 158.20 182.82 159.50 183.10 C 160.81 183.37 162.09 182.53 162.37 181.22 L 162.55 180.36 C 162.82 179.06 161.98 177.77 160.67 177.50 C 159.37 177.23 158.08 178.07 157.81 179.37 Z M 157.63 180.29 L 157.45 181.27 C 157.20 182.58 158.07 183.84 159.38 184.08 C 160.69 184.32 161.95 183.45 162.19 182.14 L 162.37 181.16 C 162.61 179.85 161.75 178.59 160.44 178.35 C 159.13 178.11 157.87 178.98 157.63 180.29 Z M 157.44 181.32 L 157.28 182.30 C 157.07 183.61 157.96 184.85 159.27 185.06 C 160.58 185.28 161.82 184.39 162.03 183.08 L 162.20 182.09 C 162.41 180.78 161.52 179.54 160.21 179.33 C 158.90 179.11 157.66 180.00 157.44 181.32 Z M 157.28 182.33 L 157.14 183.32 C 156.94 184.63 157.84 185.85 159.15 186.05 C 160.46 186.25 161.69 185.34 161.88 184.03 L 162.03 183.05 C 162.23 181.73 161.33 180.51 160.02 180.31 C 158.71 180.12 157.48 181.02 157.28 182.33 Z M 157.14 183.33 L 156.99 184.32 C 156.80 185.63 157.71 186.85 159.02 187.04 C 160.33 187.23 161.55 186.32 161.74 185.01 L 161.88 184.02 C 162.07 182.71 161.16 181.49 159.85 181.30 C 158.54 181.11 157.33 182.02 157.14 183.33 Z M 157.00 184.34 L 156.86 185.33 C 156.68 186.64 157.60 187.85 158.91 188.03 C 160.21 188.21 161.42 187.29 161.60 185.98 L 161.74 184.99 C 161.92 183.68 161.00 182.47 159.69 182.29 C 158.38 182.12 157.18 183.03 157.00 184.34 Z M 156.86 185.37 L 156.74 186.37 C 156.58 187.68 157.51 188.86 158.82 189.02 C 160.13 189.18 161.32 188.25 161.48 186.94 L 161.60 185.95 C 161.76 184.64 160.83 183.45 159.52 183.29 C 158.21 183.13 157.02 184.06 156.86 185.37 Z M 156.74 186.42 L 156.64 187.42 C 156.52 188.73 157.48 189.89 158.79 190.02 C 160.10 190.15 161.26 189.19 161.39 187.88 L 161.48 186.88 C 161.61 185.57 160.65 184.41 159.34 184.28 C 158.03 184.15 156.86 185.11 156.74 186.42 Z M 156.64 187.48 L 156.57 188.48 C 156.48 189.79 157.47 190.93 158.78 191.02 C 160.09 191.11 161.23 190.12 161.32 188.81 L 161.39 187.81 C 161.48 186.50 160.49 185.36 159.18 185.27 C 157.87 185.18 156.73 186.17 156.64 187.48 Z M 156.57 188.54 L 156.53 189.53 C 156.47 190.84 157.48 191.95 158.79 192.01 C 160.10 192.07 161.22 191.06 161.27 189.75 L 161.32 188.75 C 161.38 187.44 160.36 186.33 159.05 186.27 C 157.74 186.21 156.63 187.23 156.57 188.54 Z M 156.53 189.58 L 156.51 190.58 C 156.47 191.89 157.50 192.97 158.81 193.01 C 160.12 193.04 161.21 192.01 161.25 190.70 L 161.27 189.70 C 161.30 188.39 160.27 187.30 158.96 187.27 C 157.65 187.24 156.57 188.27 156.53 189.58 Z M 156.51 190.62 L 156.50 191.62 C 156.49 192.93 157.54 193.99 158.85 194.00 C 160.15 194.02 161.22 192.96 161.23 191.66 L 161.24 190.66 C 161.25 189.35 160.20 188.28 158.89 188.27 C 157.59 188.26 156.52 189.31 156.51 190.62 Z M 156.51 191.67 L 156.52 192.67 C 156.54 193.98 157.61 195.02 158.91 195.00 C 160.22 194.98 161.26 193.91 161.24 192.61 L 161.23 191.61 C 161.21 190.30 160.14 189.26 158.83 189.28 C 157.53 189.30 156.49 190.37 156.51 191.67 Z M 156.53 192.74 L 156.57 193.75 C 156.63 195.05 157.72 196.05 159.02 196.00 C 160.32 195.95 161.33 194.85 161.27 193.55 L 161.23 192.55 C 161.18 191.25 160.08 190.24 158.78 190.29 C 157.49 190.35 156.48 191.44 156.53 192.74 Z M 156.59 193.88 L 156.69 194.90 C 156.81 196.19 157.96 197.13 159.25 197.01 C 160.54 196.89 161.48 195.74 161.36 194.45 L 161.26 193.43 C 161.13 192.14 159.99 191.19 158.70 191.32 C 157.41 191.44 156.46 192.59 156.59 193.88 Z M 156.75 195.21 L 156.97 196.17 C 157.27 197.42 158.52 198.20 159.78 197.91 C 161.03 197.62 161.81 196.36 161.52 195.10 L 161.30 194.14 C 161.00 192.89 159.75 192.11 158.49 192.40 C 157.23 192.70 156.45 193.95 156.75 195.21 Z M 157.16 196.67 L 157.58 197.52 C 158.15 198.67 159.55 199.14 160.70 198.57 C 161.85 198.00 162.32 196.60 161.75 195.45 L 161.33 194.60 C 160.76 193.45 159.37 192.98 158.21 193.55 C 157.06 194.12 156.59 195.52 157.16 196.67 Z M 157.95 198.06 L 158.59 198.75 C 159.46 199.70 160.93 199.76 161.88 198.89 C 162.82 198.02 162.88 196.55 162.02 195.61 L 161.38 194.91 C 160.51 193.97 159.04 193.91 158.09 194.77 C 157.15 195.64 157.09 197.11 157.95 198.06 Z M 159.05 199.13 L 159.89 199.67 C 160.97 200.37 162.41 200.06 163.10 198.98 C 163.79 197.90 163.48 196.46 162.40 195.77 L 161.56 195.23 C 160.48 194.53 159.04 194.85 158.35 195.92 C 157.66 197.00 157.97 198.44 159.05 199.13 Z M 160.35 199.90 L 161.34 200.26 C 162.55 200.70 163.88 200.08 164.32 198.88 C 164.76 197.67 164.13 196.34 162.93 195.90 L 161.94 195.54 C 160.74 195.10 159.41 195.72 158.97 196.93 C 158.53 198.13 159.15 199.46 160.35 199.90 Z M 161.73 200.35 L 162.68 200.52 C 163.93 200.75 165.13 199.92 165.36 198.67 C 165.58 197.42 164.75 196.22 163.50 195.99 L 162.55 195.82 C 161.30 195.59 160.10 196.42 159.87 197.67 C 159.65 198.92 160.48 200.12 161.73 200.35 Z M 162.92 200.52 L 163.93 200.60 C 165.18 200.69 166.27 199.76 166.37 198.51 C 166.46 197.26 165.53 196.17 164.28 196.07 L 163.27 195.99 C 162.02 195.90 160.93 196.83 160.83 198.08 C 160.74 199.33 161.67 200.42 162.92 200.52 Z M 164.06 200.57 L 165.08 200.59 C 166.31 200.62 167.33 199.64 167.36 198.40 C 167.39 197.17 166.41 196.15 165.17 196.12 L 164.15 196.10 C 162.92 196.07 161.89 197.05 161.87 198.29 C 161.84 199.52 162.82 200.54 164.06 200.57 Z M 165.12 200.55 L 166.15 200.55 C 167.36 200.55 168.35 199.57 168.35 198.36 C 168.35 197.14 167.36 196.16 166.15 196.16 L 165.12 196.16 C 163.91 196.16 162.93 197.14 162.93 198.35 C 162.93 199.57 163.91 200.55 165.12 200.55 Z M 166.18 200.50 L 167.19 200.49 C 168.38 200.47 169.33 199.50 169.31 198.32 C 169.30 197.14 168.33 196.19 167.14 196.20 L 166.12 196.21 C 164.94 196.23 163.99 197.20 164.01 198.38 C 164.02 199.57 164.99 200.51 166.18 200.50 Z M 167.27 200.42 L 168.25 200.37 C 169.40 200.32 170.28 199.34 170.23 198.20 C 170.17 197.05 169.20 196.16 168.05 196.22 L 167.07 196.27 C 165.92 196.32 165.04 197.30 165.09 198.45 C 165.15 199.59 166.12 200.48 167.27 200.42 Z M 168.37 200.30 L 169.34 200.19 C 170.44 200.07 171.24 199.07 171.11 197.97 C 170.99 196.86 170.00 196.06 168.89 196.19 L 167.93 196.29 C 166.82 196.42 166.02 197.41 166.15 198.52 C 166.27 199.63 167.27 200.42 168.37 200.30 Z M 169.47 200.09 L 170.44 199.91 C 171.49 199.71 172.18 198.70 171.98 197.65 C 171.79 196.60 170.78 195.91 169.73 196.11 L 168.75 196.29 C 167.71 196.49 167.02 197.50 167.21 198.55 C 167.41 199.60 168.42 200.29 169.47 200.09 Z M 170.52 199.79 L 171.50 199.55 C 172.48 199.31 173.08 198.31 172.84 197.33 C 172.60 196.34 171.60 195.74 170.62 195.98 L 169.65 196.22 C 168.66 196.46 168.06 197.46 168.30 198.44 C 168.54 199.43 169.54 200.03 170.52 199.79 Z M 171.52 199.45 L 172.49 199.18 C 173.42 198.92 173.96 197.96 173.71 197.03 C 173.45 196.10 172.49 195.56 171.56 195.82 L 170.59 196.09 C 169.66 196.35 169.12 197.31 169.38 198.23 C 169.64 199.16 170.60 199.70 171.52 199.45 Z M 172.49 199.12 L 172.71 199.05 C 173.61 198.80 174.12 197.87 173.87 196.97 C 173.61 196.08 172.68 195.56 171.79 195.82 L 171.57 195.88 C 170.67 196.13 170.16 197.07 170.41 197.96 C 170.67 198.85 171.60 199.37 172.49 199.12 Z"
      fill="black"
      fill-rule="nonzero" /></svg>