<svg xmlns="http://www.w3.org/2000/svg" width="300" height="300" viewBox="0 0 300 300">
<path d="M 120.05 146.81 L 121.01 146.52 C 122.11 146.18 122.73 145.02 122.40 143.92 C 122.06 142.82 120.90 142.20 119.80 142.53 L 118.84 142.82 C 117.74 143.15 117.12 144.32 117.46 145.42 C 117.79 146.52 118.95 147.14 120.05 146.81 Z M 121.00 146.52 L 121.96 146.24 C 123.06 145.91 123.69 144.74 123.36 143.64 C 123.03 142.53 121.86 141.90 120.76 142.23 L 119.80 142.52 C 118.70 142.85 118.07 144.02 118.40 145.12 C 118.73 146.23 119.90 146.86 121.00 146.52 Z M 121.94 146.25 L 122.91 145.97 C 124.02 145.65 124.66 144.48 124.33 143.37 C 124.01 142.26 122.85 141.62 121.73 141.94 L 120.77 142.22 C 119.66 142.55 119.02 143.71 119.35 144.82 C 119.67 145.93 120.83 146.57 121.94 146.25 Z M 122.89 145.98 L 123.84 145.71 C 124.96 145.40 125.61 144.24 125.30 143.12 C 124.99 142.01 123.83 141.35 122.71 141.67 L 121.75 141.93 C 120.64 142.24 119.98 143.40 120.30 144.52 C 120.61 145.64 121.77 146.29 122.89 145.98 Z M 123.81 145.73 L 124.74 145.48 C 125.86 145.18 126.54 144.03 126.24 142.91 C 125.94 141.78 124.79 141.11 123.66 141.41 L 122.74 141.65 C 121.61 141.95 120.94 143.10 121.24 144.23 C 121.53 145.35 122.69 146.02 123.81 145.73 Z M 124.71 145.50 L 125.66 145.26 C 126.79 144.98 127.49 143.84 127.21 142.71 C 126.93 141.57 125.78 140.88 124.65 141.16 L 123.70 141.39 C 122.56 141.67 121.87 142.82 122.15 143.95 C 122.43 145.08 123.57 145.77 124.71 145.50 Z M 125.62 145.27 L 126.62 145.05 C 127.76 144.79 128.48 143.66 128.22 142.52 C 127.96 141.38 126.83 140.66 125.69 140.92 L 124.69 141.15 C 123.55 141.40 122.83 142.53 123.09 143.68 C 123.35 144.82 124.48 145.53 125.62 145.27 Z M 126.58 145.06 L 127.60 144.85 C 128.74 144.62 129.48 143.50 129.25 142.35 C 129.01 141.21 127.89 140.47 126.75 140.70 L 125.73 140.91 C 124.58 141.14 123.84 142.26 124.08 143.41 C 124.31 144.56 125.43 145.30 126.58 145.06 Z M 127.56 144.86 L 128.53 144.68 C 129.69 144.47 130.45 143.36 130.23 142.21 C 130.02 141.06 128.91 140.29 127.76 140.51 L 126.78 140.69 C 125.63 140.90 124.87 142.01 125.08 143.16 C 125.30 144.32 126.41 145.08 127.56 144.86 Z M 128.51 144.69 L 129.51 144.52 C 130.66 144.32 131.44 143.22 131.24 142.07 C 131.04 140.91 129.95 140.13 128.79 140.33 L 127.79 140.50 C 126.63 140.70 125.85 141.80 126.05 142.95 C 126.25 144.11 127.35 144.89 128.51 144.69 Z M 129.48 144.53 L 130.48 144.37 C 131.64 144.18 132.44 143.09 132.25 141.93 C 132.07 140.77 130.98 139.98 129.81 140.16 L 128.81 140.32 C 127.65 140.51 126.86 141.60 127.05 142.76 C 127.23 143.92 128.32 144.71 129.48 144.53 Z M 130.46 144.37 L 131.45 144.22 C 132.61 144.05 133.41 142.97 133.24 141.80 C 133.07 140.64 131.98 139.84 130.82 140.01 L 129.84 140.16 C 128.67 140.33 127.87 141.42 128.04 142.58 C 128.22 143.74 129.30 144.55 130.46 144.37 Z M 131.43 144.23 L 132.44 144.09 C 133.61 143.93 134.42 142.85 134.26 141.68 C 134.10 140.52 133.02 139.70 131.86 139.87 L 130.84 140.01 C 129.67 140.17 128.86 141.25 129.02 142.41 C 129.18 143.58 130.26 144.39 131.43 144.23 Z M 132.42 144.09 L 133.41 143.97 C 134.58 143.82 135.41 142.75 135.26 141.58 C 135.11 140.42 134.05 139.59 132.88 139.73 L 131.88 139.86 C 130.71 140.01 129.89 141.08 130.03 142.24 C 130.18 143.41 131.25 144.24 132.42 144.09 Z M 133.38 143.97 L 134.36 143.86 C 135.53 143.74 136.37 142.68 136.24 141.51 C 136.11 140.34 135.06 139.49 133.89 139.62 L 132.91 139.73 C 131.74 139.86 130.89 140.91 131.02 142.08 C 131.15 143.26 132.21 144.10 133.38 143.97 Z M 134.32 143.87 L 135.30 143.78 C 136.47 143.67 137.34 142.63 137.23 141.46 C 137.12 140.29 136.08 139.42 134.91 139.53 L 133.93 139.62 C 132.75 139.72 131.89 140.76 132.00 141.94 C 132.10 143.11 133.14 143.98 134.32 143.87 Z M 135.25 143.79 L 136.24 143.71 C 137.42 143.63 138.31 142.61 138.22 141.43 C 138.14 140.25 137.12 139.37 135.94 139.45 L 134.95 139.52 C 133.77 139.61 132.89 140.63 132.97 141.81 C 133.05 142.98 134.08 143.87 135.25 143.79 Z M 136.21 143.72 L 137.21 143.66 C 138.39 143.60 139.29 142.59 139.23 141.41 C 139.16 140.24 138.16 139.33 136.98 139.40 L 135.98 139.45 C 134.80 139.51 133.89 140.52 133.96 141.70 C 134.02 142.88 135.03 143.78 136.21 143.72 Z M 137.18 143.67 L 138.19 143.63 C 139.37 143.58 140.28 142.59 140.24 141.41 C 140.19 140.23 139.20 139.31 138.02 139.35 L 137.01 139.39 C 135.83 139.44 134.91 140.43 134.96 141.61 C 135.00 142.79 136.00 143.71 137.18 143.67 Z M 138.16 143.63 L 139.16 143.60 C 140.34 143.57 141.27 142.58 141.24 141.40 C 141.21 140.22 140.22 139.29 139.04 139.32 L 138.04 139.35 C 136.86 139.38 135.93 140.37 135.96 141.55 C 136.00 142.73 136.98 143.66 138.16 143.63 Z M 139.14 143.60 L 140.15 143.58 C 141.34 143.56 142.28 142.59 142.25 141.40 C 142.23 140.22 141.26 139.28 140.08 139.30 L 139.06 139.32 C 137.88 139.34 136.94 140.32 136.96 141.50 C 136.98 142.68 137.96 143.62 139.14 143.60 Z M 140.14 143.58 L 141.15 143.57 C 142.34 143.56 143.28 142.59 143.27 141.41 C 143.26 140.23 142.29 139.28 141.11 139.29 L 140.09 139.30 C 138.91 139.32 137.96 140.28 137.97 141.47 C 137.99 142.65 138.96 143.60 140.14 143.58 Z M 141.14 143.57 L 142.14 143.57 C 143.32 143.56 144.27 142.60 144.27 141.42 C 144.26 140.24 143.30 139.28 142.12 139.29 L 141.12 139.29 C 139.94 139.30 138.99 140.26 138.99 141.44 C 139.00 142.62 139.96 143.58 141.14 143.57 Z M 142.13 143.57 L 143.11 143.57 C 144.29 143.57 145.25 142.61 145.25 141.42 C 145.24 140.24 144.28 139.29 143.10 139.29 L 142.12 139.29 C 140.94 139.29 139.98 140.25 139.99 141.43 C 139.99 142.61 140.95 143.57 142.13 143.57 Z M 143.10 143.57 L 144.11 143.57 C 145.30 143.57 146.26 142.61 146.26 141.43 C 146.26 140.24 145.30 139.28 144.11 139.28 L 143.10 139.28 C 141.92 139.28 140.96 140.24 140.96 141.43 C 140.96 142.61 141.92 143.57 143.10 143.57 Z M 144.11 143.58 L 145.13 143.58 C 146.32 143.58 147.28 142.61 147.28 141.43 C 147.28 140.24 146.32 139.28 145.13 139.28 L 144.11 139.28 C 142.93 139.28 141.96 140.24 141.96 141.43 C 141.96 142.61 142.93 143.58 144.11 143.58 Z M 145.13 143.58 L 146.13 143.58 C 147.32 143.58 148.28 142.62 148.28 141.43 C 148.28 140.24 147.32 139.27 146.13 139.27 L 145.13 139.27 C 143.94 139.27 142.97 140.24 142.97 141.43 C 142.97 142.62 143.94 143.58 145.13 143.58 Z M 146.13 143.59 L 147.09 143.59 C 148.29 143.59 149.26 142.62 149.26 141.43 C 149.26 140.23 148.29 139.26 147.09 139.26 L 146.13 139.26 C 144.93 139.26 143.96 140.23 143.96 141.43 C 143.96 142.62 144.93 143.59 146.13 143.59 Z M 147.09 143.60 L 148.08 143.60 C 149.28 143.60 150.26 142.64 150.26 141.44 C 150.27 140.24 149.30 139.27 148.10 139.26 L 147.10 139.26 C 145.90 139.25 144.93 140.22 144.92 141.42 C 144.92 142.62 145.89 143.59 147.09 143.60 Z M 148.04 143.60 L 149.03 143.62 C 150.23 143.65 151.22 142.70 151.25 141.50 C 151.27 140.31 150.33 139.31 149.13 139.28 L 148.14 139.26 C 146.94 139.23 145.95 140.18 145.92 141.38 C 145.90 142.58 146.84 143.57 148.04 143.60 Z M 148.94 143.62 L 149.95 143.68 C 151.14 143.75 152.17 142.84 152.24 141.65 C 152.32 140.45 151.41 139.42 150.21 139.35 L 149.21 139.29 C 148.02 139.21 146.99 140.12 146.91 141.32 C 146.84 142.52 147.75 143.54 148.94 143.62 Z M 149.84 143.67 L 150.82 143.78 C 152.01 143.92 153.08 143.06 153.22 141.87 C 153.35 140.68 152.49 139.60 151.30 139.47 L 150.32 139.36 C 149.13 139.23 148.06 140.08 147.92 141.27 C 147.79 142.46 148.65 143.54 149.84 143.67 Z M 150.72 143.77 L 151.70 143.92 C 152.88 144.11 153.99 143.31 154.18 142.12 C 154.37 140.94 153.56 139.83 152.38 139.64 L 151.40 139.48 C 150.22 139.29 149.11 140.10 148.92 141.28 C 148.73 142.47 149.54 143.58 150.72 143.77 Z M 151.62 143.91 L 152.61 144.11 C 153.79 144.34 154.93 143.58 155.16 142.40 C 155.39 141.22 154.63 140.08 153.45 139.85 L 152.46 139.65 C 151.28 139.42 150.14 140.18 149.91 141.36 C 149.68 142.54 150.44 143.68 151.62 143.91 Z M 152.54 144.09 L 153.54 144.32 C 154.71 144.59 155.87 143.86 156.14 142.69 C 156.41 141.53 155.68 140.36 154.51 140.09 L 153.52 139.86 C 152.35 139.59 151.19 140.32 150.92 141.49 C 150.65 142.66 151.38 143.82 152.54 144.09 Z M 153.48 144.31 L 154.48 144.57 C 155.64 144.87 156.83 144.17 157.13 143.01 C 157.43 141.85 156.73 140.67 155.57 140.36 L 154.57 140.10 C 153.41 139.80 152.22 140.50 151.92 141.66 C 151.62 142.82 152.32 144.01 153.48 144.31 Z M 154.42 144.55 L 155.40 144.84 C 156.55 145.17 157.76 144.50 158.09 143.35 C 158.42 142.20 157.76 140.99 156.60 140.66 L 155.63 140.38 C 154.47 140.05 153.27 140.71 152.94 141.87 C 152.60 143.02 153.27 144.22 154.42 144.55 Z M 155.34 144.82 L 156.29 145.12 C 157.43 145.48 158.65 144.85 159.01 143.70 C 159.38 142.56 158.74 141.34 157.60 140.97 L 156.66 140.68 C 155.51 140.31 154.29 140.95 153.93 142.09 C 153.57 143.24 154.20 144.46 155.34 144.82 Z M 156.23 145.10 L 157.15 145.42 C 158.28 145.81 159.52 145.21 159.91 144.08 C 160.31 142.94 159.71 141.70 158.57 141.31 L 157.66 140.99 C 156.52 140.60 155.28 141.20 154.89 142.33 C 154.49 143.47 155.09 144.71 156.23 145.10 Z M 157.08 145.40 L 158.03 145.76 C 159.15 146.19 160.41 145.62 160.84 144.50 C 161.26 143.38 160.70 142.12 159.58 141.69 L 158.64 141.33 C 157.51 140.90 156.26 141.47 155.83 142.59 C 155.40 143.71 155.96 144.97 157.08 145.40 Z M 157.96 145.73 L 158.87 146.12 C 159.98 146.58 161.25 146.06 161.72 144.95 C 162.19 143.85 161.67 142.57 160.56 142.10 L 159.65 141.72 C 158.54 141.25 157.26 141.77 156.80 142.88 C 156.33 143.99 156.85 145.26 157.96 145.73 Z M 158.80 146.09 L 159.70 146.50 C 160.80 147.01 162.09 146.53 162.60 145.44 C 163.10 144.35 162.62 143.05 161.53 142.55 L 160.63 142.13 C 159.54 141.63 158.24 142.10 157.74 143.20 C 157.23 144.29 157.71 145.58 158.80 146.09 Z M 159.64 146.48 L 160.53 146.92 C 161.61 147.46 162.92 147.02 163.46 145.95 C 164.00 144.87 163.56 143.56 162.48 143.02 L 161.59 142.57 C 160.52 142.03 159.20 142.47 158.66 143.55 C 158.13 144.63 158.56 145.94 159.64 146.48 Z M 160.48 146.90 L 161.36 147.37 C 162.43 147.94 163.76 147.54 164.32 146.47 C 164.89 145.40 164.49 144.08 163.42 143.51 L 162.53 143.04 C 161.47 142.47 160.14 142.88 159.57 143.94 C 159.01 145.01 159.41 146.33 160.48 146.90 Z M 161.32 147.36 L 162.20 147.85 C 163.26 148.44 164.60 148.06 165.19 147.00 C 165.78 145.94 165.40 144.61 164.34 144.02 L 163.46 143.53 C 162.40 142.94 161.07 143.32 160.48 144.37 C 159.89 145.43 160.27 146.77 161.32 147.36 Z M 162.17 147.84 L 163.04 148.34 C 164.09 148.95 165.44 148.59 166.05 147.54 C 166.66 146.49 166.30 145.14 165.24 144.53 L 164.37 144.03 C 163.32 143.42 161.97 143.78 161.37 144.83 C 160.76 145.88 161.12 147.23 162.17 147.84 Z M 163.01 148.33 L 163.88 148.85 C 164.92 149.47 166.28 149.13 166.90 148.09 C 167.53 147.04 167.19 145.69 166.14 145.06 L 165.28 144.54 C 164.23 143.92 162.88 144.26 162.25 145.30 C 161.63 146.35 161.97 147.70 163.01 148.33 Z M 163.84 148.83 L 164.69 149.36 C 165.72 150.00 167.09 149.68 167.73 148.64 C 168.37 147.61 168.06 146.25 167.02 145.60 L 166.18 145.08 C 165.14 144.43 163.78 144.75 163.13 145.79 C 162.49 146.82 162.81 148.19 163.84 148.83 Z M 164.65 149.34 L 165.47 149.87 C 166.50 150.54 167.87 150.24 168.54 149.22 C 169.20 148.19 168.91 146.82 167.88 146.15 L 167.06 145.62 C 166.03 144.95 164.66 145.25 163.99 146.27 C 163.33 147.30 163.62 148.67 164.65 149.34 Z M 165.43 149.85 L 166.24 150.40 C 167.26 151.09 168.64 150.83 169.33 149.81 C 170.02 148.80 169.75 147.42 168.74 146.73 L 167.93 146.17 C 166.91 145.48 165.53 145.75 164.84 146.76 C 164.15 147.78 164.41 149.16 165.43 149.85 Z M 166.19 150.38 L 166.99 150.96 C 167.99 151.68 169.39 151.45 170.11 150.45 C 170.83 149.45 170.60 148.05 169.60 147.33 L 168.79 146.75 C 167.79 146.03 166.40 146.26 165.68 147.26 C 164.96 148.26 165.19 149.66 166.19 150.38 Z M 166.93 150.92 L 167.74 151.55 C 168.73 152.30 170.13 152.11 170.89 151.13 C 171.64 150.15 171.46 148.74 170.47 147.99 L 169.66 147.37 C 168.68 146.61 167.27 146.80 166.52 147.78 C 165.77 148.76 165.95 150.17 166.93 150.92 Z M 167.69 151.51 L 168.43 152.12 C 169.39 152.90 170.80 152.76 171.59 151.80 C 172.38 150.84 172.24 149.42 171.28 148.64 L 170.53 148.03 C 169.57 147.24 168.16 147.38 167.37 148.34 C 166.58 149.30 166.73 150.72 167.69 151.51 Z M 168.38 152.07 L 169.12 152.72 C 170.06 153.54 171.48 153.44 172.29 152.50 C 173.11 151.56 173.01 150.14 172.07 149.33 L 171.33 148.68 C 170.39 147.87 168.97 147.96 168.16 148.90 C 167.34 149.84 167.44 151.26 168.38 152.07 Z M 169.07 152.68 L 169.82 153.37 C 170.73 154.21 172.15 154.16 173.00 153.24 C 173.84 152.33 173.78 150.91 172.87 150.06 L 172.12 149.37 C 171.21 148.53 169.79 148.58 168.94 149.50 C 168.10 150.41 168.16 151.83 169.07 152.68 Z M 169.77 153.32 L 170.51 154.05 C 171.40 154.92 172.82 154.91 173.69 154.02 C 174.57 153.14 174.55 151.71 173.66 150.84 L 172.92 150.11 C 172.03 149.24 170.61 149.25 169.74 150.14 C 168.87 151.03 168.88 152.45 169.77 153.32 Z M 170.47 154.01 L 171.17 154.74 C 172.04 155.64 173.46 155.67 174.36 154.80 C 175.25 153.94 175.28 152.51 174.42 151.62 L 173.71 150.88 C 172.85 149.99 171.42 149.96 170.52 150.82 C 169.63 151.69 169.60 153.11 170.47 154.01 Z M 171.14 154.70 L 171.83 155.45 C 172.67 156.37 174.09 156.43 175.01 155.59 C 175.93 154.75 175.99 153.32 175.14 152.41 L 174.45 151.66 C 173.61 150.74 172.19 150.68 171.27 151.52 C 170.36 152.36 170.29 153.79 171.14 154.70 Z M 171.79 155.42 L 172.45 156.16 C 173.27 157.10 174.69 157.19 175.63 156.37 C 176.56 155.55 176.65 154.12 175.83 153.19 L 175.18 152.44 C 174.36 151.51 172.93 151.42 172.00 152.24 C 171.06 153.06 170.97 154.48 171.79 155.42 Z M 172.41 156.12 L 173.05 156.89 C 173.85 157.84 175.27 157.96 176.23 157.16 C 177.18 156.36 177.30 154.94 176.50 153.99 L 175.86 153.23 C 175.06 152.27 173.64 152.15 172.69 152.95 C 171.74 153.75 171.61 155.17 172.41 156.12 Z M 173.02 156.84 L 173.66 157.65 C 174.44 158.62 175.86 158.78 176.83 158.00 C 177.80 157.23 177.96 155.81 177.18 154.84 L 176.54 154.03 C 175.76 153.06 174.34 152.90 173.37 153.68 C 172.40 154.45 172.24 155.87 173.02 156.84 Z M 173.63 157.61 L 174.22 158.39 C 174.98 159.38 176.39 159.57 177.38 158.81 C 178.37 158.06 178.56 156.65 177.81 155.66 L 177.22 154.88 C 176.46 153.89 175.05 153.70 174.06 154.45 C 173.07 155.21 172.88 156.62 173.63 157.61 Z M 174.20 158.36 L 174.77 159.13 C 175.51 160.13 176.92 160.35 177.92 159.61 C 178.92 158.87 179.14 157.46 178.40 156.46 L 177.83 155.69 C 177.09 154.69 175.68 154.47 174.68 155.21 C 173.68 155.95 173.46 157.36 174.20 158.36 Z M 174.75 159.11 L 175.31 159.88 C 176.03 160.89 177.44 161.12 178.45 160.40 C 179.46 159.67 179.69 158.26 178.97 157.25 L 178.41 156.48 C 177.69 155.47 176.28 155.24 175.27 155.96 C 174.26 156.69 174.03 158.10 174.75 159.11 Z M 175.28 159.84 L 175.84 160.65 C 176.54 161.68 177.95 161.94 178.97 161.23 C 180.00 160.53 180.26 159.12 179.55 158.10 L 178.99 157.29 C 178.29 156.26 176.89 156.00 175.86 156.71 C 174.84 157.41 174.58 158.82 175.28 159.84 Z M 175.80 160.60 L 176.37 161.47 C 177.04 162.52 178.44 162.82 179.48 162.14 C 180.53 161.47 180.83 160.07 180.15 159.03 L 179.59 158.15 C 178.91 157.11 177.52 156.81 176.47 157.48 C 175.43 158.16 175.13 159.55 175.80 160.60 Z M 176.33 161.41 L 176.84 162.26 C 177.49 163.33 178.87 163.67 179.94 163.03 C 181.00 162.39 181.35 161.00 180.70 159.94 L 180.19 159.09 C 179.55 158.02 178.16 157.68 177.10 158.32 C 176.03 158.96 175.69 160.35 176.33 161.41 Z M 176.81 162.21 L 177.29 163.07 C 177.91 164.15 179.28 164.54 180.37 163.92 C 181.45 163.31 181.84 161.94 181.22 160.85 L 180.74 159.99 C 180.13 158.91 178.75 158.52 177.66 159.13 C 176.58 159.75 176.19 161.12 176.81 162.21 Z M 177.26 163.01 L 177.73 163.91 C 178.32 165.02 179.68 165.44 180.79 164.86 C 181.89 164.27 182.31 162.91 181.73 161.80 L 181.26 160.91 C 180.67 159.80 179.31 159.38 178.20 159.96 C 177.10 160.54 176.68 161.91 177.26 163.01 Z M 177.70 163.85 L 178.15 164.78 C 178.70 165.90 180.06 166.36 181.18 165.81 C 182.30 165.26 182.77 163.91 182.22 162.78 L 181.76 161.86 C 181.21 160.74 179.86 160.28 178.74 160.83 C 177.61 161.38 177.15 162.73 177.70 163.85 Z M 178.12 164.71 L 178.54 165.66 C 179.06 166.80 180.40 167.31 181.54 166.80 C 182.68 166.29 183.19 164.95 182.68 163.80 L 182.25 162.85 C 181.74 161.71 180.40 161.20 179.25 161.71 C 178.11 162.23 177.60 163.57 178.12 164.71 Z M 178.51 165.60 L 178.90 166.55 C 179.38 167.71 180.70 168.27 181.87 167.79 C 183.03 167.31 183.58 165.99 183.11 164.82 L 182.71 163.87 C 182.24 162.71 180.91 162.15 179.75 162.63 C 178.59 163.11 178.03 164.43 178.51 165.60 Z M 178.87 166.49 L 179.22 167.42 C 179.66 168.60 180.98 169.19 182.15 168.75 C 183.33 168.31 183.93 167.00 183.49 165.82 L 183.14 164.89 C 182.69 163.71 181.38 163.11 180.20 163.55 C 179.02 164.00 178.43 165.31 178.87 166.49 Z M 179.19 167.36 L 179.50 168.26 C 179.91 169.45 181.21 170.08 182.40 169.67 C 183.60 169.26 184.23 167.96 183.82 166.77 L 183.51 165.87 C 183.10 164.68 181.80 164.05 180.61 164.46 C 179.42 164.87 178.78 166.17 179.19 167.36 Z M 179.47 168.19 L 179.78 169.18 C 180.16 170.39 181.44 171.06 182.65 170.68 C 183.86 170.31 184.53 169.02 184.15 167.82 L 183.85 166.83 C 183.47 165.62 182.19 164.95 180.98 165.32 C 179.77 165.70 179.10 166.99 179.47 168.19 Z M 179.75 169.10 L 180.02 170.06 C 180.35 171.28 181.61 172.00 182.83 171.67 C 184.06 171.34 184.78 170.07 184.44 168.85 L 184.18 167.89 C 183.85 166.67 182.59 165.95 181.36 166.28 C 180.14 166.62 179.42 167.88 179.75 169.10 Z M 179.99 169.98 L 180.21 170.92 C 180.50 172.16 181.73 172.93 182.97 172.64 C 184.21 172.35 184.98 171.12 184.69 169.88 L 184.47 168.94 C 184.18 167.70 182.95 166.93 181.71 167.22 C 180.47 167.51 179.70 168.74 179.99 169.98 Z M 180.19 170.84 L 180.37 171.76 C 180.61 173.01 181.82 173.83 183.07 173.58 C 184.32 173.34 185.13 172.13 184.89 170.88 L 184.71 169.96 C 184.47 168.71 183.26 167.90 182.01 168.14 C 180.76 168.39 179.95 169.59 180.19 170.84 Z M 180.35 171.69 L 180.51 172.64 C 180.71 173.89 181.90 174.75 183.15 174.54 C 184.41 174.34 185.26 173.15 185.06 171.89 L 184.91 170.95 C 184.70 169.69 183.51 168.84 182.26 169.05 C 181.00 169.25 180.15 170.44 180.35 171.69 Z M 180.49 172.58 L 180.63 173.59 C 180.81 174.86 181.98 175.74 183.24 175.56 C 184.50 175.39 185.39 174.22 185.21 172.96 L 185.07 171.95 C 184.90 170.68 183.73 169.80 182.46 169.98 C 181.20 170.15 180.32 171.32 180.49 172.58 Z M 180.63 173.55 L 180.75 174.60 C 180.91 175.87 182.06 176.78 183.33 176.62 C 184.60 176.47 185.50 175.31 185.35 174.04 L 185.22 173.00 C 185.07 171.73 183.91 170.82 182.64 170.98 C 181.37 171.13 180.47 172.29 180.63 173.55 Z M 180.75 174.58 L 180.85 175.50 C 180.99 176.78 182.13 177.69 183.41 177.55 C 184.68 177.41 185.60 176.27 185.46 175.00 L 185.35 174.07 C 185.21 172.80 184.07 171.88 182.80 172.02 C 181.52 172.16 180.61 173.31 180.75 174.58 Z M 180.84 175.48 L 180.94 176.46 C 181.06 177.73 182.20 178.67 183.47 178.54 C 184.75 178.42 185.68 177.28 185.56 176.01 L 185.46 175.03 C 185.34 173.75 184.20 172.82 182.93 172.94 C 181.65 173.07 180.72 174.20 180.84 175.48 Z M 180.93 176.42 L 181.02 177.45 C 181.12 178.73 182.24 179.68 183.52 179.57 C 184.80 179.47 185.75 178.35 185.64 177.07 L 185.56 176.04 C 185.46 174.77 184.34 173.82 183.06 173.92 C 181.78 174.03 180.83 175.15 180.93 176.42 Z M 181.01 177.41 L 181.08 178.46 C 181.16 179.74 182.27 180.71 183.55 180.63 C 184.83 180.55 185.80 179.45 185.72 178.17 L 185.65 177.11 C 185.57 175.83 184.46 174.86 183.18 174.94 C 181.90 175.02 180.93 176.13 181.01 177.41 Z M 181.08 178.42 L 181.12 179.45 C 181.18 180.73 182.26 181.72 183.54 181.67 C 184.83 181.61 185.82 180.53 185.77 179.25 L 185.72 178.22 C 185.67 176.93 184.58 175.94 183.30 175.99 C 182.02 176.05 181.02 177.13 181.08 178.42 Z M 181.12 179.41 L 181.15 180.43 C 181.18 181.71 182.25 182.73 183.53 182.69 C 184.81 182.66 185.83 181.59 185.79 180.31 L 185.77 179.29 C 185.73 178.00 184.67 176.99 183.38 177.02 C 182.10 177.06 181.09 178.12 181.12 179.41 Z M 181.14 180.40 L 181.16 181.41 C 181.17 182.70 182.23 183.72 183.51 183.71 C 184.80 183.69 185.83 182.64 185.81 181.35 L 185.80 180.34 C 185.78 179.05 184.72 178.03 183.44 178.04 C 182.16 178.06 181.13 179.12 181.14 180.40 Z M 181.16 181.39 L 181.16 182.38 C 181.17 183.67 182.21 184.70 183.50 184.70 C 184.78 184.69 185.82 183.65 185.81 182.36 L 185.81 181.37 C 185.80 180.09 184.76 179.05 183.47 179.06 C 182.19 179.06 181.15 180.11 181.16 181.39 Z M 181.16 182.37 L 181.16 183.34 C 181.16 184.63 182.20 185.67 183.49 185.67 C 184.78 185.67 185.82 184.62 185.82 183.34 L 185.82 182.37 C 185.81 181.08 184.77 180.04 183.49 180.04 C 182.20 180.05 181.16 181.09 181.16 182.37 Z M 181.16 183.34 L 181.16 184.42 C 181.16 185.71 182.20 186.75 183.49 186.75 C 184.77 186.75 185.82 185.71 185.82 184.42 L 185.82 183.34 C 185.82 182.05 184.77 181.01 183.49 181.01 C 182.20 181.01 181.16 182.05 181.16 183.34 Z M 181.16 184.42 L 181.16 185.44 C 181.16 186.73 182.20 187.77 183.49 187.77 C 184.77 187.77 185.82 186.73 185.82 185.44 L 185.82 184.42 C 185.82 183.14 184.77 182.10 183.49 182.10 C 182.20 182.10 181.16 183.14 181.16 184.42 Z M 181.16 185.44 L 181.16 186.40 C 181.16 187.69 182.20 188.73 183.49 188.73 C 184.77 188.73 185.82 187.69 185.82 186.40 L 185.82 185.44 C 185.82 184.16 184.77 183.12 183.49 183.12 C 182.20 183.12 181.16 184.16 181.16 185.44 Z M 181.16 186.40 L 181.16 187.34 C 181.16 188.63 182.20 189.67 183.49 189.67 C 184.77 189.67 185.82 188.63 185.82 187.34 L 185.82 186.40 C 185.82 185.12 184.77 184.08 183.49 184.08 C 182.20 184.08 181.16 185.12 181.16 186.40 Z M 181.16 187.34 L 181.16 188.38 C 181.16 189.66 182.20 190.71 183.48 190.71 C 184.77 190.71 185.81 189.67 185.82 188.38 L 185.82 187.35 C 185.82 186.06 184.78 185.02 183.49 185.01 C 182.21 185.01 181.16 186.05 181.16 187.34 Z M 181.16 188.36 L 181.15 189.35 C 181.14 190.64 182.18 191.69 183.46 191.69 C 184.75 191.70 185.80 190.67 185.81 189.38 L 185.82 188.39 C 185.82 187.11 184.79 186.06 183.50 186.05 C 182.22 186.04 181.17 187.08 181.16 188.36 Z M 181.15 189.33 L 181.14 190.29 C 181.11 191.58 182.14 192.64 183.42 192.66 C 184.71 192.68 185.77 191.66 185.79 190.37 L 185.81 189.41 C 185.83 188.12 184.81 187.06 183.52 187.04 C 182.24 187.02 181.17 188.04 181.15 189.33 Z M 181.14 190.24 L 181.10 191.23 C 181.05 192.51 182.05 193.59 183.34 193.64 C 184.62 193.69 185.71 192.69 185.75 191.40 L 185.79 190.42 C 185.84 189.13 184.84 188.05 183.55 188.00 C 182.27 187.95 181.18 188.96 181.14 190.24 Z M 181.10 191.11 L 181.01 192.10 C 180.90 193.38 181.85 194.51 183.13 194.63 C 184.42 194.74 185.55 193.79 185.66 192.51 L 185.75 191.52 C 185.86 190.24 184.91 189.10 183.63 188.99 C 182.35 188.88 181.22 189.83 181.10 191.11 Z M 181.04 191.91 L 180.86 192.91 C 180.64 194.18 181.50 195.39 182.77 195.60 C 184.04 195.82 185.25 194.97 185.47 193.70 L 185.64 192.70 C 185.86 191.43 185.01 190.22 183.74 190.00 C 182.47 189.78 181.26 190.64 181.04 191.91 Z M 180.91 192.67 L 180.65 193.62 C 180.30 194.87 181.03 196.16 182.27 196.50 C 183.52 196.85 184.81 196.12 185.15 194.88 L 185.42 193.93 C 185.76 192.69 185.04 191.40 183.79 191.05 C 182.55 190.70 181.26 191.43 180.91 192.67 Z M 180.71 193.44 L 180.36 194.38 C 179.91 195.59 180.53 196.94 181.75 197.39 C 182.96 197.83 184.30 197.21 184.75 196.00 L 185.10 195.06 C 185.54 193.85 184.92 192.50 183.71 192.06 C 182.50 191.61 181.15 192.23 180.71 193.44 Z M 180.41 194.26 L 180.00 195.19 C 179.49 196.38 180.04 197.76 181.22 198.27 C 182.41 198.78 183.79 198.24 184.30 197.05 L 184.70 196.12 C 185.22 194.93 184.67 193.55 183.48 193.04 C 182.30 192.53 180.92 193.07 180.41 194.26 Z M 180.04 195.12 L 179.60 196.03 C 179.05 197.20 179.55 198.60 180.72 199.15 C 181.89 199.71 183.28 199.21 183.84 198.04 L 184.27 197.12 C 184.82 195.95 184.33 194.56 183.16 194.00 C 181.99 193.45 180.59 193.95 180.04 195.12 Z M 179.63 195.97 L 179.18 196.87 C 178.59 198.02 179.05 199.43 180.21 200.02 C 181.36 200.61 182.77 200.14 183.36 198.99 L 183.81 198.10 C 184.40 196.94 183.94 195.53 182.78 194.94 C 181.63 194.36 180.22 194.82 179.63 195.97 Z M 179.21 196.80 L 178.73 197.67 C 178.11 198.81 178.52 200.23 179.66 200.86 C 180.79 201.48 182.22 201.07 182.84 199.93 L 183.32 199.06 C 183.95 197.92 183.53 196.50 182.40 195.87 C 181.26 195.25 179.83 195.66 179.21 196.80 Z M 178.77 197.59 L 178.26 198.45 C 177.60 199.56 177.96 201.00 179.07 201.67 C 180.18 202.33 181.62 201.97 182.29 200.86 L 182.80 200.01 C 183.47 198.90 183.11 197.45 182.00 196.79 C 180.88 196.12 179.44 196.48 178.77 197.59 Z M 178.31 198.36 L 177.77 199.19 C 177.06 200.27 177.36 201.73 178.44 202.44 C 179.53 203.15 180.98 202.85 181.70 201.77 L 182.24 200.94 C 182.95 199.86 182.65 198.40 181.57 197.69 C 180.48 196.98 179.03 197.28 178.31 198.36 Z M 177.82 199.11 L 177.24 199.92 C 176.49 200.98 176.73 202.44 177.78 203.20 C 178.84 203.95 180.31 203.71 181.06 202.66 L 181.64 201.85 C 182.40 200.79 182.16 199.32 181.10 198.57 C 180.05 197.81 178.58 198.06 177.82 199.11 Z M 177.30 199.85 L 176.68 200.65 C 175.88 201.67 176.07 203.14 177.09 203.94 C 178.11 204.74 179.59 204.55 180.39 203.53 L 181.01 202.73 C 181.80 201.71 181.62 200.23 180.59 199.44 C 179.57 198.64 178.10 198.82 177.30 199.85 Z M 176.73 200.58 L 176.12 201.31 C 175.28 202.30 175.41 203.78 176.41 204.62 C 177.40 205.45 178.88 205.32 179.71 204.33 L 180.33 203.60 C 181.16 202.60 181.04 201.12 180.04 200.29 C 179.05 199.45 177.57 199.58 176.73 200.58 Z M 176.18 201.23 L 175.54 201.94 C 174.67 202.89 174.73 204.38 175.69 205.25 C 176.65 206.13 178.13 206.06 179.01 205.11 L 179.65 204.40 C 180.53 203.45 180.46 201.96 179.50 201.09 C 178.54 200.21 177.06 200.28 176.18 201.23 Z M 175.62 201.85 L 174.91 202.56 C 173.99 203.47 173.98 204.96 174.89 205.88 C 175.81 206.80 177.29 206.81 178.21 205.90 L 178.93 205.19 C 179.85 204.28 179.86 202.79 178.94 201.87 C 178.03 200.95 176.54 200.94 175.62 201.85 Z M 175.00 202.48 L 174.19 203.19 C 173.22 204.06 173.14 205.54 174.00 206.51 C 174.87 207.48 176.35 207.56 177.32 206.70 L 178.12 205.98 C 179.09 205.12 179.18 203.63 178.31 202.67 C 177.45 201.70 175.97 201.61 175.00 202.48 Z M 174.28 203.12 L 173.56 203.71 C 172.55 204.52 172.40 206.00 173.22 207.01 C 174.03 208.02 175.51 208.17 176.52 207.35 L 177.24 206.77 C 178.24 205.95 178.40 204.47 177.58 203.47 C 176.76 202.46 175.28 202.31 174.28 203.12 Z M 173.63 203.65 L 172.87 204.22 C 171.83 205.00 171.62 206.47 172.40 207.51 C 173.18 208.55 174.65 208.76 175.69 207.98 L 176.45 207.41 C 177.49 206.63 177.70 205.16 176.92 204.12 C 176.14 203.08 174.67 202.87 173.63 203.65 Z M 172.94 204.17 L 172.12 204.74 C 171.05 205.48 170.79 206.94 171.53 208.01 C 172.27 209.07 173.73 209.34 174.79 208.60 L 175.62 208.03 C 176.68 207.29 176.95 205.83 176.21 204.76 C 175.47 203.69 174.00 203.43 172.94 204.17 Z M 172.19 204.69 L 171.31 205.26 C 170.21 205.96 169.90 207.41 170.60 208.50 C 171.30 209.59 172.75 209.91 173.84 209.21 L 174.72 208.65 C 175.82 207.95 176.13 206.49 175.43 205.40 C 174.73 204.31 173.28 203.99 172.19 204.69 Z M 171.38 205.21 L 170.44 205.77 C 169.33 206.43 168.96 207.87 169.62 208.98 C 170.28 210.10 171.72 210.47 172.84 209.81 L 173.77 209.26 C 174.89 208.60 175.26 207.16 174.60 206.04 C 173.94 204.92 172.50 204.55 171.38 205.21 Z M 170.51 205.73 L 169.62 206.22 C 168.48 206.84 168.06 208.26 168.69 209.40 C 169.31 210.54 170.74 210.96 171.87 210.34 L 172.77 209.85 C 173.90 209.23 174.32 207.80 173.70 206.66 C 173.08 205.52 171.65 205.11 170.51 205.73 Z M 169.67 206.19 L 168.76 206.66 C 167.61 207.25 167.15 208.66 167.75 209.82 C 168.34 210.97 169.76 211.43 170.91 210.83 L 171.82 210.36 C 172.97 209.77 173.43 208.36 172.84 207.20 C 172.24 206.05 170.83 205.59 169.67 206.19 Z M 168.80 206.64 L 167.88 207.09 C 166.72 207.66 166.24 209.07 166.81 210.23 C 167.38 211.40 168.79 211.88 169.95 211.30 L 170.87 210.85 C 172.04 210.28 172.51 208.87 171.94 207.71 C 171.37 206.54 169.96 206.07 168.80 206.64 Z M 167.91 207.08 L 167.00 207.51 C 165.83 208.07 165.33 209.47 165.89 210.64 C 166.45 211.81 167.85 212.31 169.02 211.75 L 169.93 211.31 C 171.10 210.76 171.59 209.35 171.04 208.18 C 170.48 207.01 169.08 206.52 167.91 207.08 Z M 167.01 207.51 L 166.13 207.92 C 164.96 208.47 164.46 209.87 165.01 211.05 C 165.56 212.22 166.96 212.72 168.13 212.17 L 169.01 211.75 C 170.18 211.20 170.69 209.80 170.13 208.63 C 169.58 207.45 168.18 206.95 167.01 207.51 Z M 166.13 207.92 L 165.20 208.36 C 164.03 208.92 163.53 210.32 164.09 211.49 C 164.64 212.66 166.04 213.16 167.22 212.60 L 168.14 212.16 C 169.31 211.61 169.81 210.21 169.25 209.04 C 168.70 207.87 167.30 207.37 166.13 207.92 Z M 165.19 208.37 L 164.23 208.83 C 163.06 209.39 162.57 210.79 163.13 211.96 C 163.70 213.13 165.10 213.62 166.27 213.06 L 167.23 212.60 C 168.39 212.03 168.88 210.63 168.32 209.46 C 167.76 208.30 166.36 207.81 165.19 208.37 Z M 164.23 208.83 L 163.33 209.27 C 162.16 209.83 161.67 211.24 162.24 212.40 C 162.80 213.57 164.21 214.06 165.37 213.49 L 166.27 213.05 C 167.44 212.49 167.92 211.09 167.36 209.92 C 166.79 208.76 165.39 208.27 164.23 208.83 Z M 163.33 209.27 L 162.48 209.68 C 161.31 210.24 160.82 211.64 161.38 212.81 C 161.94 213.98 163.35 214.47 164.51 213.90 L 165.37 213.49 C 166.53 212.93 167.02 211.53 166.46 210.36 C 165.90 209.20 164.50 208.71 163.33 209.27 Z M 162.49 209.67 L 161.65 210.07 C 160.48 210.63 159.98 212.02 160.54 213.19 C 161.09 214.36 162.49 214.86 163.66 214.31 L 164.50 213.91 C 165.67 213.36 166.17 211.96 165.61 210.79 C 165.06 209.62 163.66 209.12 162.49 209.67 Z M 161.68 210.06 L 160.74 210.49 C 159.57 211.03 159.05 212.42 159.59 213.60 C 160.13 214.77 161.52 215.29 162.70 214.75 L 163.63 214.32 C 164.81 213.78 165.32 212.39 164.78 211.21 C 164.24 210.04 162.85 209.52 161.68 210.06 Z M 160.76 210.48 L 159.84 210.89 C 158.66 211.42 158.14 212.81 158.67 213.99 C 159.20 215.17 160.59 215.70 161.77 215.17 L 162.68 214.75 C 163.86 214.22 164.39 212.84 163.86 211.66 C 163.33 210.48 161.94 209.95 160.76 210.48 Z M 159.85 210.89 L 158.95 211.30 C 157.76 211.82 157.24 213.21 157.76 214.39 C 158.29 215.57 159.68 216.10 160.86 215.57 L 161.76 215.17 C 162.94 214.64 163.47 213.26 162.94 212.07 C 162.42 210.89 161.03 210.36 159.85 210.89 Z M 158.94 211.30 L 158.06 211.70 C 156.88 212.23 156.35 213.62 156.89 214.80 C 157.42 215.98 158.81 216.50 159.99 215.97 L 160.87 215.57 C 162.05 215.04 162.57 213.65 162.04 212.47 C 161.50 211.29 160.12 210.77 158.94 211.30 Z M 158.05 211.71 L 157.18 212.10 C 156.01 212.64 155.49 214.03 156.03 215.20 C 156.57 216.38 157.96 216.89 159.13 216.36 L 160.00 215.96 C 161.17 215.42 161.69 214.03 161.15 212.86 C 160.61 211.68 159.22 211.17 158.05 211.71 Z M 157.19 212.10 L 156.31 212.50 C 155.13 213.04 154.61 214.42 155.15 215.60 C 155.68 216.77 157.07 217.29 158.24 216.76 L 159.13 216.35 C 160.30 215.82 160.82 214.44 160.29 213.26 C 159.75 212.09 158.37 211.57 157.19 212.10 Z M 156.33 212.50 L 155.40 212.91 C 154.22 213.43 153.68 214.80 154.20 215.98 C 154.72 217.16 156.10 217.70 157.28 217.18 L 158.22 216.76 C 159.39 216.24 159.93 214.87 159.41 213.69 C 158.89 212.51 157.51 211.98 156.33 212.50 Z M 155.44 212.90 L 154.48 213.30 C 153.29 213.80 152.73 215.16 153.23 216.35 C 153.73 217.53 155.09 218.09 156.28 217.59 L 157.24 217.19 C 158.42 216.69 158.98 215.33 158.48 214.14 C 157.99 212.96 156.62 212.40 155.44 212.90 Z M 154.52 213.29 L 153.63 213.64 C 152.43 214.12 151.85 215.47 152.33 216.66 C 152.81 217.86 154.16 218.44 155.35 217.96 L 156.24 217.61 C 157.43 217.13 158.01 215.78 157.54 214.58 C 157.06 213.39 155.71 212.81 154.52 213.29 Z M 153.66 213.63 L 152.73 213.99 C 151.53 214.45 150.93 215.79 151.38 216.99 C 151.84 218.19 153.18 218.79 154.38 218.33 L 155.32 217.97 C 156.52 217.51 157.12 216.17 156.66 214.97 C 156.20 213.77 154.86 213.17 153.66 213.63 Z M 152.76 213.98 L 151.79 214.33 C 150.59 214.77 149.97 216.10 150.41 217.31 C 150.85 218.51 152.18 219.13 153.39 218.69 L 154.35 218.34 C 155.55 217.90 156.17 216.57 155.73 215.36 C 155.29 214.16 153.96 213.54 152.76 213.98 Z M 151.83 214.32 L 150.86 214.66 C 149.65 215.08 149.01 216.40 149.43 217.61 C 149.85 218.82 151.17 219.46 152.38 219.04 L 153.35 218.70 C 154.56 218.28 155.20 216.96 154.78 215.75 C 154.36 214.54 153.04 213.90 151.83 214.32 Z M 150.90 214.65 L 149.90 214.98 C 148.69 215.37 148.03 216.68 148.43 217.90 C 148.82 219.11 150.13 219.77 151.35 219.37 L 152.34 219.05 C 153.55 218.65 154.21 217.34 153.82 216.13 C 153.42 214.91 152.11 214.25 150.90 214.65 Z M 149.95 214.97 L 148.94 215.28 C 147.72 215.66 147.04 216.95 147.42 218.16 C 147.79 219.38 149.08 220.06 150.30 219.69 L 151.30 219.38 C 152.52 219.00 153.20 217.71 152.83 216.50 C 152.45 215.28 151.16 214.60 149.95 214.97 Z M 148.98 215.28 L 148.01 215.57 C 146.79 215.92 146.09 217.19 146.44 218.40 C 146.79 219.62 148.06 220.32 149.28 219.97 L 150.26 219.69 C 151.47 219.33 152.17 218.06 151.82 216.85 C 151.47 215.63 150.20 214.93 148.98 215.28 Z M 148.04 215.57 L 147.10 215.83 C 145.89 216.16 145.17 217.41 145.50 218.62 C 145.83 219.84 147.09 220.55 148.30 220.22 L 149.24 219.97 C 150.46 219.63 151.17 218.38 150.84 217.17 C 150.51 215.95 149.26 215.24 148.04 215.57 Z M 147.13 215.83 L 146.23 216.06 C 145.02 216.38 144.29 217.61 144.60 218.82 C 144.92 220.04 146.15 220.76 147.36 220.45 L 148.27 220.22 C 149.48 219.91 150.21 218.67 149.90 217.46 C 149.58 216.25 148.35 215.52 147.13 215.83 Z M 146.27 216.07 L 145.31 216.31 C 144.10 216.60 143.36 217.82 143.65 219.02 C 143.95 220.23 145.16 220.97 146.37 220.68 L 147.33 220.44 C 148.54 220.15 149.28 218.93 148.98 217.73 C 148.69 216.52 147.47 215.78 146.27 216.07 Z M 145.36 216.32 L 144.40 216.53 C 143.20 216.80 142.45 217.98 142.71 219.18 C 142.98 220.38 144.17 221.14 145.37 220.87 L 146.32 220.66 C 147.52 220.40 148.27 219.21 148.01 218.01 C 147.74 216.81 146.55 216.05 145.36 216.32 Z M 144.47 216.54 L 143.50 216.73 C 142.31 216.96 141.53 218.12 141.76 219.31 C 141.99 220.50 143.15 221.28 144.34 221.05 L 145.30 220.86 C 146.50 220.63 147.27 219.48 147.04 218.28 C 146.81 217.09 145.66 216.31 144.47 216.54 Z M 143.57 216.74 L 142.55 216.91 C 141.37 217.10 140.56 218.22 140.76 219.40 C 140.95 220.59 142.07 221.39 143.25 221.20 L 144.27 221.03 C 145.45 220.84 146.26 219.72 146.06 218.54 C 145.87 217.36 144.76 216.55 143.57 216.74 Z M 142.62 216.92 L 141.67 217.05 C 140.49 217.21 139.67 218.29 139.82 219.47 C 139.98 220.65 141.07 221.47 142.24 221.31 L 143.19 221.19 C 144.37 221.03 145.19 219.95 145.03 218.77 C 144.88 217.59 143.79 216.76 142.62 216.92 Z M 141.72 217.06 L 140.75 217.17 C 139.58 217.30 138.73 218.36 138.86 219.53 C 139.00 220.70 140.05 221.54 141.22 221.41 L 142.19 221.30 C 143.36 221.17 144.21 220.11 144.08 218.94 C 143.94 217.77 142.89 216.93 141.72 217.06 Z M 140.79 217.19 L 139.78 217.28 C 138.62 217.39 137.76 218.42 137.87 219.58 C 137.98 220.74 139.00 221.60 140.17 221.49 L 141.18 221.40 C 142.34 221.29 143.19 220.26 143.09 219.10 C 142.98 217.93 141.95 217.08 140.79 217.19 Z M 139.82 217.29 L 138.79 217.37 C 137.64 217.45 136.77 218.46 136.85 219.61 C 136.94 220.77 137.94 221.63 139.10 221.55 L 140.13 221.47 C 141.28 221.39 142.15 220.38 142.06 219.23 C 141.98 218.08 140.97 217.21 139.82 217.29 Z M 138.83 217.39 L 137.80 217.44 C 136.65 217.51 135.77 218.49 135.84 219.63 C 135.90 220.78 136.88 221.65 138.03 221.59 L 139.06 221.53 C 140.20 221.47 141.08 220.49 141.02 219.35 C 140.95 218.20 139.98 217.32 138.83 217.39 Z M 137.84 217.47 L 136.78 217.51 C 135.65 217.55 134.77 218.50 134.81 219.63 C 134.85 220.76 135.80 221.64 136.93 221.60 L 137.99 221.56 C 139.12 221.52 140.00 220.57 139.96 219.44 C 139.92 218.31 138.97 217.43 137.84 217.47 Z M 136.82 217.54 L 135.79 217.56 C 134.67 217.58 133.79 218.50 133.81 219.61 C 133.83 220.72 134.75 221.61 135.86 221.59 L 136.89 221.57 C 138.00 221.55 138.89 220.63 138.87 219.52 C 138.85 218.41 137.93 217.52 136.82 217.54 Z M 135.82 217.59 L 134.82 217.59 C 133.73 217.59 132.85 218.48 132.85 219.57 C 132.84 220.66 133.73 221.55 134.82 221.55 L 135.82 221.55 C 136.92 221.55 137.80 220.67 137.80 219.57 C 137.80 218.48 136.92 217.59 135.82 217.59 Z M 134.86 217.63 L 133.90 217.61 C 132.83 217.59 131.94 218.45 131.93 219.52 C 131.91 220.59 132.76 221.48 133.83 221.50 L 134.79 221.52 C 135.86 221.54 136.75 220.68 136.77 219.61 C 136.79 218.53 135.93 217.65 134.86 217.63 Z M 133.94 217.65 L 132.95 217.61 C 131.90 217.57 131.01 218.39 130.97 219.45 C 130.93 220.50 131.76 221.39 132.81 221.42 L 133.80 221.46 C 134.85 221.50 135.74 220.68 135.78 219.63 C 135.81 218.57 134.99 217.69 133.94 217.65 Z M 133.02 217.65 L 132.00 217.58 C 130.97 217.50 130.07 218.27 129.99 219.30 C 129.91 220.33 130.68 221.22 131.71 221.30 L 132.74 221.38 C 133.77 221.46 134.67 220.69 134.74 219.66 C 134.82 218.63 134.05 217.73 133.02 217.65 Z M 132.14 217.63 L 131.17 217.48 C 130.18 217.32 129.24 218.00 129.08 219.00 C 128.92 220.00 129.60 220.93 130.60 221.09 L 131.56 221.25 C 132.56 221.41 133.50 220.73 133.66 219.73 C 133.82 218.73 133.14 217.79 132.14 217.63 Z M 131.38 217.56 L 130.46 217.30 C 129.51 217.02 128.52 217.57 128.24 218.52 C 127.97 219.47 128.52 220.46 129.47 220.74 L 130.39 221.01 C 131.34 221.28 132.33 220.73 132.61 219.78 C 132.88 218.83 132.33 217.84 131.38 217.56 Z M 130.69 217.42 L 129.84 217.03 C 128.96 216.63 127.92 217.01 127.51 217.90 C 127.11 218.78 127.50 219.82 128.38 220.22 L 129.23 220.62 C 130.11 221.02 131.16 220.63 131.56 219.75 C 131.96 218.87 131.58 217.83 130.69 217.42 Z M 130.03 217.17 L 129.21 216.65 C 128.41 216.14 127.34 216.39 126.83 217.19 C 126.32 218.00 126.57 219.07 127.37 219.58 L 128.19 220.09 C 129.00 220.60 130.06 220.35 130.57 219.55 C 131.08 218.74 130.84 217.67 130.03 217.17 Z M 129.35 216.78 L 128.55 216.15 C 127.82 215.57 126.75 215.70 126.17 216.44 C 125.58 217.18 125.71 218.25 126.45 218.83 L 127.24 219.45 C 127.98 220.03 129.05 219.90 129.63 219.17 C 130.21 218.43 130.08 217.36 129.35 216.78 Z M 128.64 216.27 L 127.88 215.55 C 127.20 214.92 126.14 214.96 125.51 215.63 C 124.88 216.31 124.92 217.37 125.59 218.00 L 126.36 218.72 C 127.04 219.35 128.10 219.31 128.73 218.63 C 129.36 217.96 129.32 216.90 128.64 216.27 Z M 127.94 215.64 L 127.23 214.89 C 126.61 214.22 125.56 214.19 124.89 214.82 C 124.23 215.44 124.20 216.49 124.82 217.16 L 125.53 217.91 C 126.16 218.57 127.20 218.61 127.87 217.98 C 128.53 217.35 128.57 216.31 127.94 215.64 Z M 127.28 214.96 L 126.62 214.18 C 126.03 213.49 125.00 213.41 124.31 213.99 C 123.61 214.58 123.53 215.61 124.12 216.31 L 124.77 217.08 C 125.36 217.78 126.40 217.86 127.09 217.27 C 127.78 216.69 127.87 215.65 127.28 214.96 Z M 126.66 214.24 L 126.03 213.44 C 125.48 212.73 124.45 212.60 123.74 213.15 C 123.03 213.71 122.90 214.73 123.46 215.45 L 124.08 216.25 C 124.63 216.96 125.66 217.09 126.37 216.53 C 127.08 215.98 127.21 214.96 126.66 214.24 Z M 126.06 213.50 L 125.48 212.69 C 124.96 211.96 123.95 211.80 123.22 212.32 C 122.49 212.84 122.32 213.86 122.85 214.59 L 123.43 215.39 C 123.95 216.12 124.96 216.29 125.69 215.76 C 126.42 215.24 126.59 214.22 126.06 213.50 Z M 125.51 212.74 L 124.96 211.92 C 124.46 211.17 123.46 210.97 122.72 211.47 C 121.97 211.97 121.78 212.97 122.27 213.71 L 122.82 214.54 C 123.32 215.28 124.32 215.48 125.06 214.98 C 125.81 214.49 126.01 213.48 125.51 212.74 Z M 124.98 211.96 L 124.43 211.08 C 123.96 210.32 122.97 210.09 122.21 210.56 C 121.46 211.03 121.23 212.02 121.69 212.78 L 122.24 213.66 C 122.71 214.42 123.71 214.65 124.47 214.18 C 125.22 213.71 125.45 212.72 124.98 211.96 Z M 124.46 211.12 L 123.96 210.26 C 123.51 209.49 122.52 209.23 121.76 209.68 C 120.99 210.13 120.73 211.11 121.17 211.88 L 121.67 212.74 C 122.12 213.51 123.11 213.77 123.88 213.32 C 124.65 212.87 124.91 211.89 124.46 211.12 Z M 123.97 210.29 L 123.51 209.45 C 123.07 208.67 122.09 208.39 121.31 208.83 C 120.54 209.26 120.26 210.24 120.69 211.02 L 121.16 211.86 C 121.59 212.64 122.57 212.91 123.35 212.48 C 124.13 212.05 124.41 211.06 123.97 210.29 Z M 123.51 209.46 L 123.32 209.12 C 122.90 208.34 121.91 208.06 121.14 208.48 C 120.36 208.91 120.07 209.89 120.50 210.67 L 120.69 211.01 C 121.12 211.79 122.10 212.07 122.88 211.65 C 123.66 211.22 123.94 210.24 123.51 209.46 Z"
      fill="black"
      fill-rule="nonzero" /><path d="M 127.15 186.38 L 128.17 186.38 C 129.37 186.38 130.34 185.40 130.34 184.20 C 130.34 183.00 129.37 182.03 128.17 182.03 L 127.15 182.03 C 125.95 182.03 124.97 183.00 124.97 184.20 C 124.97 185.40 125.95 186.38 127.15 186.38 Z M 128.17 186.40 L 129.18 186.40 C 130.39 186.40 131.38 185.42 131.38 184.20 C 131.38 182.98 130.39 182.00 129.18 182.00 L 128.17 182.00 C 126.95 182.00 125.96 182.98 125.96 184.20 C 125.96 185.42 126.95 186.40 128.17 186.40 Z M 129.18 186.43 L 130.17 186.43 C 131.40 186.43 132.40 185.43 132.40 184.20 C 132.40 182.97 131.40 181.97 130.17 181.97 L 129.18 181.97 C 127.94 181.97 126.95 182.97 126.95 184.20 C 126.95 185.43 127.94 186.43 129.18 186.43 Z M 130.17 186.45 L 131.14 186.45 C 132.39 186.45 133.39 185.45 133.39 184.20 C 133.39 182.96 132.39 181.95 131.14 181.95 L 130.17 181.95 C 128.92 181.95 127.91 182.96 127.91 184.20 C 127.91 185.45 128.92 186.45 130.17 186.45 Z M 131.14 186.46 L 132.12 186.46 C 133.37 186.46 134.38 185.45 134.38 184.20 C 134.38 182.95 133.37 181.94 132.12 181.94 L 131.14 181.94 C 129.89 181.94 128.88 182.95 128.88 184.20 C 128.88 185.45 129.89 186.46 131.14 186.46 Z M 132.12 186.46 L 133.10 186.46 C 134.35 186.46 135.37 185.45 135.37 184.20 C 135.37 182.95 134.35 181.94 133.10 181.94 L 132.12 181.94 C 130.87 181.94 129.85 182.95 129.85 184.20 C 129.85 185.45 130.87 186.46 132.12 186.46 Z M 133.10 186.46 L 134.14 186.46 C 135.39 186.46 136.40 185.45 136.40 184.20 C 136.40 182.95 135.39 181.94 134.14 181.94 L 133.10 181.94 C 131.85 181.94 130.84 182.95 130.84 184.20 C 130.84 185.45 131.85 186.46 133.10 186.46 Z M 134.14 186.47 L 135.07 186.47 C 136.32 186.47 137.34 185.45 137.34 184.20 C 137.34 182.95 136.32 181.94 135.07 181.94 L 134.14 181.94 C 132.89 181.94 131.87 182.95 131.87 184.20 C 131.87 185.45 132.89 186.47 134.14 186.47 Z M 135.07 186.47 L 136.04 186.47 C 137.29 186.47 138.30 185.45 138.30 184.20 C 138.30 182.95 137.29 181.94 136.04 181.94 L 135.07 181.94 C 133.82 181.94 132.81 182.95 132.81 184.20 C 132.81 185.45 133.82 186.47 135.07 186.47 Z M 136.04 186.47 L 137.06 186.47 C 138.31 186.47 139.32 185.45 139.32 184.20 C 139.32 182.95 138.31 181.94 137.06 181.94 L 136.04 181.94 C 134.79 181.94 133.78 182.95 133.78 184.20 C 133.78 185.45 134.79 186.47 136.04 186.47 Z M 137.06 186.47 L 138.12 186.47 C 139.37 186.47 140.38 185.45 140.38 184.20 C 140.38 182.95 139.37 181.94 138.12 181.94 L 137.06 181.94 C 135.81 181.94 134.79 182.95 134.79 184.20 C 134.79 185.45 135.81 186.47 137.06 186.47 Z M 138.12 186.47 L 139.12 186.47 C 140.37 186.47 141.38 185.45 141.38 184.20 C 141.38 182.95 140.37 181.94 139.12 181.94 L 138.12 181.94 C 136.87 181.94 135.85 182.95 135.85 184.20 C 135.85 185.45 136.87 186.47 138.12 186.47 Z M 139.12 186.47 L 140.10 186.47 C 141.35 186.47 142.36 185.45 142.36 184.20 C 142.36 182.95 141.35 181.94 140.10 181.94 L 139.12 181.94 C 137.87 181.94 136.86 182.95 136.86 184.20 C 136.86 185.45 137.87 186.47 139.12 186.47 Z M 140.10 186.47 L 141.10 186.47 C 142.35 186.47 143.36 185.45 143.36 184.20 C 143.36 182.95 142.35 181.94 141.10 181.94 L 140.10 181.94 C 138.85 181.94 137.84 182.95 137.84 184.20 C 137.84 185.45 138.85 186.47 140.10 186.47 Z M 141.10 186.47 L 142.11 186.47 C 143.37 186.47 144.38 185.45 144.38 184.20 C 144.38 182.95 143.37 181.94 142.11 181.94 L 141.10 181.94 C 139.85 181.94 138.84 182.95 138.84 184.20 C 138.84 185.45 139.85 186.47 141.10 186.47 Z M 142.11 186.47 L 143.14 186.47 C 144.39 186.47 145.40 185.45 145.40 184.20 C 145.40 182.95 144.39 181.94 143.14 181.94 L 142.11 181.94 C 140.86 181.94 139.85 182.95 139.85 184.20 C 139.85 185.45 140.86 186.47 142.11 186.47 Z M 143.14 186.46 L 144.12 186.46 C 145.37 186.46 146.39 185.45 146.39 184.20 C 146.39 182.95 145.37 181.94 144.12 181.94 L 143.14 181.94 C 141.89 181.94 140.88 182.95 140.88 184.20 C 140.88 185.45 141.89 186.46 143.14 186.46 Z M 144.12 186.46 L 145.11 186.46 C 146.35 186.46 147.37 185.45 147.37 184.20 C 147.37 182.95 146.35 181.94 145.11 181.94 L 144.12 181.94 C 142.88 181.94 141.86 182.95 141.86 184.20 C 141.86 185.45 142.88 186.46 144.12 186.46 Z M 145.11 186.46 L 146.10 186.46 C 147.35 186.46 148.36 185.45 148.36 184.20 C 148.36 182.95 147.35 181.94 146.10 181.94 L 145.11 181.94 C 143.86 181.94 142.84 182.95 142.84 184.20 C 142.84 185.45 143.86 186.46 145.11 186.46 Z M 146.10 186.46 L 147.11 186.46 C 148.35 186.46 149.37 185.45 149.37 184.20 C 149.37 182.95 148.35 181.94 147.11 181.94 L 146.10 181.94 C 144.85 181.94 143.84 182.95 143.84 184.20 C 143.84 185.45 144.85 186.46 146.10 186.46 Z M 147.11 186.46 L 148.13 186.46 C 149.38 186.46 150.39 185.45 150.39 184.20 C 150.39 182.95 149.38 181.94 148.13 181.94 L 147.11 181.94 C 145.86 181.94 144.85 182.95 144.85 184.20 C 144.85 185.45 145.86 186.46 147.11 186.46 Z M 148.13 186.46 L 149.14 186.46 C 150.38 186.46 151.39 185.45 151.39 184.20 C 151.39 182.96 150.38 181.95 149.14 181.95 L 148.13 181.95 C 146.89 181.95 145.88 182.96 145.88 184.20 C 145.88 185.45 146.89 186.46 148.13 186.46 Z M 149.14 186.45 L 150.14 186.45 C 151.38 186.45 152.39 185.45 152.39 184.20 C 152.39 182.96 151.38 181.95 150.14 181.95 L 149.14 181.95 C 147.89 181.95 146.89 182.96 146.89 184.20 C 146.89 185.45 147.89 186.45 149.14 186.45 Z M 150.14 186.45 L 151.15 186.45 C 152.39 186.45 153.40 185.44 153.40 184.20 C 153.40 182.96 152.39 181.95 151.15 181.95 L 150.14 181.95 C 148.90 181.95 147.89 182.96 147.89 184.20 C 147.89 185.44 148.90 186.45 150.14 186.45 Z M 151.15 186.45 L 152.15 186.45 C 153.39 186.45 154.40 185.44 154.40 184.20 C 154.40 182.96 153.39 181.95 152.15 181.95 L 151.15 181.95 C 149.91 181.95 148.90 182.96 148.90 184.20 C 148.90 185.44 149.91 186.45 151.15 186.45 Z M 152.15 186.44 L 153.16 186.44 C 154.39 186.44 155.40 185.44 155.40 184.20 C 155.40 182.96 154.39 181.96 153.16 181.96 L 152.15 181.96 C 150.92 181.96 149.91 182.96 149.91 184.20 C 149.91 185.44 150.92 186.44 152.15 186.44 Z M 153.16 186.44 L 154.15 186.44 C 155.39 186.44 156.39 185.44 156.39 184.20 C 156.39 182.96 155.39 181.96 154.15 181.96 L 153.16 181.96 C 151.92 181.96 150.92 182.96 150.92 184.20 C 150.92 185.44 151.92 186.44 153.16 186.44 Z M 154.15 186.44 L 155.19 186.44 C 156.43 186.44 157.43 185.44 157.43 184.20 C 157.43 182.97 156.43 181.96 155.19 181.96 L 154.15 181.96 C 152.92 181.96 151.92 182.97 151.92 184.20 C 151.92 185.44 152.92 186.44 154.15 186.44 Z M 155.19 186.43 L 156.20 186.43 C 157.44 186.43 158.44 185.43 158.44 184.20 C 158.44 182.97 157.44 181.97 156.20 181.97 L 155.19 181.97 C 153.96 181.97 152.96 182.97 152.96 184.20 C 152.96 185.43 153.96 186.43 155.19 186.43 Z M 156.20 186.43 L 157.20 186.43 C 158.43 186.43 159.43 185.43 159.43 184.20 C 159.43 182.97 158.43 181.97 157.20 181.97 L 156.20 181.97 C 154.97 181.97 153.97 182.97 153.97 184.20 C 153.97 185.43 154.97 186.43 156.20 186.43 Z M 157.20 186.43 L 158.18 186.43 C 159.41 186.43 160.41 185.43 160.41 184.20 C 160.41 182.97 159.41 181.97 158.18 181.97 L 157.20 181.97 C 155.97 181.97 154.97 182.97 154.97 184.20 C 154.97 185.43 155.97 186.43 157.20 186.43 Z M 158.18 186.42 L 159.15 186.42 C 160.38 186.42 161.37 185.43 161.37 184.20 C 161.37 182.97 160.38 181.98 159.15 181.98 L 158.18 181.98 C 156.95 181.98 155.96 182.97 155.96 184.20 C 155.96 185.43 156.95 186.42 158.18 186.42 Z M 159.15 186.42 L 160.16 186.42 C 161.39 186.42 162.38 185.43 162.38 184.20 C 162.38 182.98 161.39 181.98 160.16 181.98 L 159.15 181.98 C 157.92 181.98 156.93 182.98 156.93 184.20 C 156.93 185.43 157.92 186.42 159.15 186.42 Z M 160.16 186.41 L 161.17 186.41 C 162.39 186.41 163.38 185.42 163.38 184.20 C 163.38 182.98 162.39 181.99 161.17 181.99 L 160.16 181.99 C 158.94 181.99 157.95 182.98 157.95 184.20 C 157.95 185.42 158.94 186.41 160.16 186.41 Z M 161.17 186.41 L 162.16 186.41 C 163.38 186.41 164.37 185.42 164.37 184.20 C 164.37 182.98 163.38 182.00 162.16 182.00 L 161.17 182.00 C 159.95 182.00 158.96 182.98 158.96 184.20 C 158.96 185.42 159.95 186.41 161.17 186.41 Z M 162.16 186.40 L 163.15 186.40 C 164.37 186.40 165.35 185.42 165.35 184.20 C 165.35 182.99 164.37 182.00 163.15 182.00 L 162.16 182.00 C 160.95 182.00 159.96 182.99 159.96 184.20 C 159.96 185.42 160.95 186.40 162.16 186.40 Z M 163.15 186.39 L 164.16 186.39 C 165.37 186.39 166.35 185.41 166.35 184.20 C 166.35 182.99 165.37 182.01 164.16 182.01 L 163.15 182.01 C 161.94 182.01 160.96 182.99 160.96 184.20 C 160.96 185.41 161.94 186.39 163.15 186.39 Z M 164.16 186.39 L 165.20 186.39 C 166.41 186.39 167.39 185.41 167.39 184.20 C 167.39 182.99 166.41 182.02 165.20 182.02 L 164.16 182.02 C 162.95 182.02 161.97 182.99 161.97 184.20 C 161.97 185.41 162.95 186.39 164.16 186.39 Z M 165.20 186.38 L 166.23 186.38 C 167.44 186.38 168.41 185.41 168.41 184.20 C 168.41 183.00 167.44 182.02 166.23 182.02 L 165.20 182.02 C 164.00 182.02 163.02 183.00 163.02 184.20 C 163.02 185.41 164.00 186.38 165.20 186.38 Z M 166.23 186.38 L 167.23 186.38 C 168.43 186.38 169.40 185.40 169.40 184.20 C 169.40 183.00 168.43 182.03 167.23 182.03 L 166.23 182.03 C 165.03 182.03 164.06 183.00 164.06 184.20 C 164.06 185.40 165.03 186.38 166.23 186.38 Z M 167.23 186.37 L 168.18 186.37 C 169.37 186.37 170.35 185.40 170.35 184.20 C 170.35 183.00 169.37 182.03 168.18 182.03 L 167.23 182.03 C 166.03 182.03 165.06 183.00 165.06 184.20 C 165.06 185.40 166.03 186.37 167.23 186.37 Z M 168.18 186.36 L 169.21 186.36 C 170.40 186.37 171.37 185.40 171.37 184.20 C 171.37 183.01 170.41 182.04 169.21 182.04 L 168.18 182.04 C 166.98 182.04 166.01 183.01 166.01 184.20 C 166.01 185.39 166.98 186.36 168.18 186.36 Z M 169.19 186.36 L 170.22 186.37 C 171.41 186.38 172.38 185.42 172.39 184.22 C 172.40 183.03 171.44 182.06 170.25 182.05 L 169.22 182.04 C 168.03 182.03 167.06 182.99 167.05 184.19 C 167.04 185.38 168.00 186.35 169.19 186.36 Z M 170.18 186.36 L 171.15 186.39 C 172.34 186.41 173.33 185.47 173.36 184.28 C 173.38 183.09 172.44 182.11 171.25 182.08 L 170.29 182.05 C 169.10 182.03 168.11 182.97 168.08 184.16 C 168.05 185.35 168.99 186.33 170.18 186.36 Z M 171.09 186.38 L 172.03 186.43 C 173.22 186.49 174.23 185.58 174.29 184.39 C 174.35 183.21 173.44 182.20 172.26 182.13 L 171.31 182.08 C 170.13 182.02 169.12 182.93 169.05 184.12 C 168.99 185.31 169.90 186.32 171.09 186.38 Z M 171.96 186.42 L 172.95 186.50 C 174.13 186.61 175.17 185.74 175.27 184.56 C 175.38 183.38 174.50 182.34 173.33 182.23 L 172.33 182.15 C 171.15 182.04 170.11 182.91 170.01 184.09 C 169.91 185.27 170.78 186.31 171.96 186.42 Z M 172.89 186.49 L 173.89 186.60 C 175.06 186.74 176.12 185.90 176.25 184.73 C 176.39 183.56 175.55 182.50 174.38 182.36 L 173.38 182.25 C 172.21 182.11 171.15 182.95 171.02 184.12 C 170.88 185.29 171.72 186.35 172.89 186.49 Z M 173.85 186.59 L 174.85 186.72 C 176.01 186.87 177.08 186.05 177.23 184.89 C 177.38 183.73 176.57 182.66 175.40 182.51 L 174.41 182.38 C 173.24 182.22 172.18 183.04 172.02 184.21 C 171.87 185.37 172.69 186.44 173.85 186.59 Z M 174.84 186.71 L 175.20 186.76 C 176.36 186.92 177.42 186.11 177.58 184.95 C 177.74 183.79 176.93 182.72 175.77 182.56 L 175.41 182.52 C 174.25 182.36 173.18 183.17 173.03 184.33 C 172.87 185.49 173.68 186.56 174.84 186.71 Z"
      fill="black"
      fill-rule="nonzero" /></svg>