<svg xmlns="http://www.w3.org/2000/svg" width="300" height="300" viewBox="0 0 300 300">
<path d="M 148.31 108.11 L 147.98 109.11 C 147.60 110.26 148.22 111.50 149.37 111.89 C 150.52 112.27 151.76 111.65 152.14 110.50 L 152.47 109.50 C 152.85 108.35 152.23 107.11 151.08 106.73 C 149.94 106.34 148.69 106.97 148.31 108.11 Z M 147.91 109.10 L 147.59 110.08 C 147.19 111.26 147.84 112.54 149.03 112.94 C 150.21 113.33 151.49 112.68 151.88 111.50 L 152.21 110.51 C 152.60 109.33 151.96 108.05 150.77 107.66 C 149.58 107.26 148.30 107.91 147.91 109.10 Z M 147.52 110.07 L 147.21 111.01 C 146.81 112.24 147.48 113.55 148.71 113.95 C 149.94 114.35 151.25 113.68 151.65 112.45 L 151.96 111.50 C 152.35 110.28 151.68 108.96 150.45 108.57 C 149.23 108.17 147.91 108.84 147.52 110.07 Z M 147.14 111.01 L 146.85 111.91 C 146.46 113.17 147.16 114.52 148.43 114.92 C 149.70 115.32 151.04 114.61 151.44 113.35 L 151.72 112.45 C 152.12 111.18 151.42 109.84 150.15 109.44 C 148.88 109.04 147.53 109.75 147.14 111.01 Z M 146.81 111.93 L 146.53 112.85 C 146.14 114.14 146.88 115.50 148.17 115.89 C 149.47 116.28 150.83 115.54 151.22 114.25 L 151.49 113.33 C 151.88 112.03 151.14 110.67 149.85 110.28 C 148.55 109.90 147.19 110.63 146.81 111.93 Z M 146.52 112.87 L 146.25 113.78 C 145.88 115.08 146.63 116.44 147.94 116.81 C 149.24 117.19 150.60 116.43 150.97 115.13 L 151.23 114.22 C 151.61 112.92 150.85 111.56 149.55 111.19 C 148.25 110.81 146.89 111.57 146.52 112.87 Z M 146.25 113.78 L 145.98 114.73 C 145.61 116.04 146.36 117.40 147.67 117.77 C 148.97 118.14 150.33 117.39 150.70 116.08 L 150.98 115.13 C 151.35 113.82 150.59 112.46 149.29 112.09 C 147.98 111.72 146.62 112.48 146.25 113.78 Z M 145.98 114.72 L 145.68 115.74 C 145.30 117.05 146.05 118.41 147.35 118.79 C 148.65 119.18 150.02 118.43 150.40 117.12 L 150.70 116.10 C 151.08 114.79 150.34 113.43 149.03 113.05 C 147.73 112.67 146.36 113.41 145.98 114.72 Z M 145.69 115.72 L 145.42 116.62 C 145.02 117.92 145.76 119.29 147.06 119.68 C 148.36 120.08 149.74 119.34 150.13 118.04 L 150.40 117.14 C 150.79 115.84 150.05 114.47 148.75 114.08 C 147.45 113.68 146.08 114.42 145.69 115.72 Z M 145.42 116.61 L 145.12 117.56 C 144.72 118.86 145.45 120.24 146.75 120.64 C 148.05 121.04 149.43 120.31 149.83 119.01 L 150.13 118.05 C 150.52 116.75 149.79 115.37 148.49 114.97 C 147.19 114.58 145.82 115.31 145.42 116.61 Z M 145.12 117.56 L 144.82 118.55 C 144.41 119.85 145.14 121.23 146.44 121.63 C 147.74 122.03 149.12 121.31 149.52 120.01 L 149.83 119.02 C 150.23 117.72 149.51 116.34 148.21 115.93 C 146.91 115.53 145.53 116.26 145.12 117.56 Z M 144.82 118.54 L 144.51 119.53 C 144.10 120.83 144.83 122.21 146.13 122.62 C 147.43 123.02 148.81 122.30 149.21 121.00 L 149.52 120.01 C 149.93 118.71 149.20 117.33 147.90 116.92 C 146.60 116.52 145.22 117.24 144.82 118.54 Z M 144.51 119.53 L 144.20 120.51 C 143.80 121.81 144.52 123.19 145.82 123.60 C 147.12 124.00 148.50 123.28 148.91 121.98 L 149.21 121.00 C 149.62 119.70 148.89 118.32 147.60 117.91 C 146.30 117.51 144.91 118.23 144.51 119.53 Z M 144.20 120.51 L 143.90 121.50 C 143.49 122.80 144.22 124.18 145.52 124.58 C 146.82 124.99 148.20 124.26 148.60 122.96 L 148.91 121.97 C 149.31 120.67 148.59 119.29 147.29 118.89 C 145.99 118.48 144.61 119.21 144.20 120.51 Z M 143.90 121.50 L 143.60 122.45 C 143.20 123.75 143.92 125.13 145.22 125.53 C 146.52 125.94 147.90 125.21 148.31 123.91 L 148.60 122.96 C 149.01 121.66 148.28 120.28 146.98 119.88 C 145.68 119.47 144.30 120.20 143.90 121.50 Z M 143.60 122.45 L 143.31 123.38 C 142.91 124.68 143.63 126.06 144.93 126.46 C 146.23 126.87 147.61 126.14 148.02 124.84 L 148.31 123.91 C 148.71 122.61 147.99 121.23 146.69 120.83 C 145.39 120.42 144.01 121.15 143.60 122.45 Z M 143.31 123.37 L 143.02 124.31 C 142.61 125.61 143.34 126.99 144.63 127.40 C 145.93 127.81 147.31 127.08 147.72 125.78 L 148.02 124.85 C 148.42 123.55 147.70 122.17 146.40 121.76 C 145.10 121.35 143.72 122.08 143.31 123.37 Z M 143.02 124.31 L 142.74 125.21 C 142.33 126.51 143.05 127.89 144.34 128.30 C 145.64 128.71 147.02 127.99 147.43 126.70 L 147.72 125.79 C 148.13 124.49 147.41 123.11 146.11 122.70 C 144.82 122.29 143.43 123.01 143.02 124.31 Z M 142.74 125.21 L 142.45 126.11 C 142.04 127.40 142.75 128.79 144.05 129.20 C 145.35 129.61 146.73 128.90 147.14 127.60 L 147.43 126.70 C 147.84 125.40 147.13 124.02 145.83 123.61 C 144.54 123.19 143.15 123.91 142.74 125.21 Z M 142.45 126.11 L 142.15 127.04 C 141.74 128.34 142.45 129.72 143.75 130.13 C 145.04 130.55 146.43 129.84 146.84 128.54 L 147.14 127.60 C 147.56 126.31 146.84 124.92 145.55 124.51 C 144.25 124.10 142.87 124.81 142.45 126.11 Z M 142.16 127.04 L 141.84 128.01 C 141.43 129.31 142.14 130.69 143.44 131.11 C 144.73 131.52 146.12 130.81 146.53 129.51 L 146.84 128.54 C 147.26 127.25 146.54 125.86 145.25 125.45 C 143.95 125.03 142.57 125.75 142.16 127.04 Z M 141.84 128.01 L 141.52 129.02 C 141.11 130.32 141.82 131.70 143.11 132.12 C 144.41 132.53 145.79 131.82 146.21 130.52 L 146.53 129.51 C 146.94 128.22 146.23 126.83 144.94 126.42 C 143.64 126.01 142.26 126.72 141.84 128.01 Z M 141.52 129.03 L 141.22 129.98 C 140.80 131.28 141.52 132.66 142.81 133.07 C 144.10 133.48 145.49 132.77 145.90 131.48 L 146.21 130.52 C 146.62 129.23 145.90 127.84 144.61 127.43 C 143.32 127.02 141.93 127.73 141.52 129.03 Z M 141.22 129.98 L 140.93 130.90 C 140.52 132.19 141.23 133.57 142.52 133.98 C 143.81 134.39 145.20 133.68 145.61 132.39 L 145.90 131.47 C 146.31 130.18 145.60 128.80 144.30 128.39 C 143.01 127.98 141.63 128.69 141.22 129.98 Z M 140.93 130.90 L 140.63 131.83 C 140.22 133.12 140.93 134.51 142.22 134.92 C 143.51 135.33 144.89 134.62 145.31 133.33 L 145.61 132.39 C 146.02 131.10 145.31 129.72 144.01 129.30 C 142.72 128.89 141.34 129.60 140.93 130.90 Z M 140.63 131.83 L 140.33 132.79 C 139.91 134.08 140.62 135.46 141.91 135.87 C 143.20 136.29 144.58 135.58 145.00 134.29 L 145.30 133.33 C 145.72 132.04 145.01 130.66 143.72 130.24 C 142.43 129.83 141.05 130.54 140.63 131.83 Z M 140.33 132.78 L 140.01 133.76 C 139.60 135.04 140.30 136.43 141.59 136.84 C 142.87 137.26 144.26 136.56 144.67 135.27 L 144.99 134.29 C 145.41 133.01 144.70 131.62 143.42 131.21 C 142.13 130.79 140.75 131.49 140.33 132.78 Z M 140.02 133.75 L 139.69 134.74 C 139.27 136.02 139.97 137.41 141.25 137.83 C 142.54 138.25 143.92 137.55 144.35 136.27 L 144.67 135.28 C 145.09 133.99 144.39 132.61 143.11 132.19 C 141.82 131.76 140.44 132.46 140.02 133.75 Z M 139.70 134.73 L 139.38 135.68 C 138.95 136.96 139.64 138.35 140.93 138.78 C 142.21 139.20 143.59 138.51 144.02 137.23 L 144.34 136.28 C 144.77 134.99 144.08 133.61 142.79 133.18 C 141.51 132.75 140.13 133.45 139.70 134.73 Z M 139.38 135.67 L 139.07 136.60 C 138.64 137.88 139.32 139.26 140.60 139.70 C 141.88 140.13 143.27 139.44 143.70 138.17 L 144.02 137.24 C 144.45 135.96 143.76 134.57 142.48 134.14 C 141.21 133.71 139.82 134.39 139.38 135.67 Z M 139.08 136.59 L 138.76 137.52 C 138.32 138.80 139.00 140.19 140.28 140.63 C 141.55 141.06 142.94 140.38 143.38 139.11 L 143.70 138.17 C 144.14 136.90 143.46 135.51 142.18 135.07 C 140.90 134.63 139.51 135.31 139.08 136.59 Z M 138.76 137.52 L 138.43 138.46 C 137.99 139.74 138.67 141.12 139.94 141.57 C 141.22 142.01 142.61 141.33 143.05 140.05 L 143.37 139.11 C 143.81 137.84 143.14 136.45 141.86 136.01 C 140.59 135.57 139.20 136.24 138.76 137.52 Z M 138.44 138.46 L 138.11 139.41 C 137.67 140.68 138.34 142.07 139.61 142.51 C 140.88 142.96 142.27 142.28 142.71 141.01 L 143.05 140.06 C 143.49 138.79 142.82 137.40 141.54 136.95 C 140.27 136.51 138.88 137.18 138.44 138.46 Z M 138.11 139.41 L 137.77 140.37 C 137.33 141.64 138.00 143.03 139.27 143.47 C 140.54 143.92 141.93 143.24 142.38 141.97 L 142.71 141.01 C 143.16 139.74 142.48 138.35 141.21 137.91 C 139.94 137.47 138.55 138.14 138.11 139.41 Z M 137.78 140.37 L 137.44 141.34 C 136.99 142.61 137.66 144.00 138.93 144.44 C 140.20 144.88 141.59 144.21 142.04 142.94 L 142.37 141.97 C 142.82 140.71 142.15 139.32 140.88 138.87 C 139.61 138.43 138.22 139.10 137.78 140.37 Z M 137.44 141.34 L 137.12 142.25 C 136.68 143.52 137.35 144.91 138.61 145.35 C 139.88 145.80 141.27 145.13 141.71 143.86 L 142.03 142.94 C 142.48 141.68 141.81 140.29 140.54 139.84 C 139.27 139.40 137.88 140.07 137.44 141.34 Z M 137.12 142.26 L 136.80 143.18 C 136.36 144.45 137.02 145.83 138.29 146.28 C 139.56 146.72 140.94 146.05 141.39 144.78 L 141.71 143.86 C 142.15 142.59 141.48 141.21 140.22 140.76 C 138.95 140.32 137.56 140.99 137.12 142.26 Z M 136.80 143.18 L 136.47 144.12 C 136.03 145.38 136.70 146.77 137.97 147.21 C 139.23 147.65 140.62 146.98 141.06 145.72 L 141.39 144.78 C 141.83 143.52 141.16 142.13 139.89 141.69 C 138.63 141.25 137.24 141.92 136.80 143.18 Z M 136.48 144.12 L 136.15 145.06 C 135.71 146.33 136.37 147.71 137.64 148.15 C 138.90 148.59 140.29 147.93 140.73 146.66 L 141.06 145.72 C 141.50 144.45 140.83 143.07 139.57 142.63 C 138.30 142.19 136.92 142.85 136.48 144.12 Z M 136.15 145.06 L 135.82 146.02 C 135.38 147.28 136.04 148.66 137.31 149.10 C 138.57 149.54 139.95 148.88 140.39 147.61 L 140.72 146.66 C 141.17 145.40 140.50 144.02 139.24 143.57 C 137.97 143.13 136.59 143.80 136.15 145.06 Z M 135.82 146.02 L 135.48 146.98 C 135.04 148.24 135.71 149.62 136.97 150.06 C 138.23 150.51 139.61 149.84 140.05 148.58 L 140.39 147.61 C 140.83 146.35 140.16 144.97 138.90 144.53 C 137.64 144.09 136.26 144.76 135.82 146.02 Z M 135.48 146.98 L 135.15 147.95 C 134.71 149.22 135.37 150.59 136.63 151.03 C 137.89 151.47 139.27 150.81 139.71 149.55 L 140.05 148.58 C 140.49 147.31 139.83 145.94 138.56 145.50 C 137.30 145.06 135.92 145.72 135.48 146.98 Z M 135.15 147.96 L 134.83 148.88 C 134.39 150.14 135.05 151.52 136.31 151.96 C 137.57 152.40 138.95 151.73 139.39 150.47 L 139.71 149.55 C 140.15 148.29 139.48 146.91 138.22 146.47 C 136.96 146.03 135.59 146.70 135.15 147.96 Z M 134.83 148.89 L 134.50 149.82 C 134.06 151.08 134.73 152.45 135.99 152.89 C 137.25 153.33 138.62 152.67 139.06 151.41 L 139.38 150.47 C 139.82 149.21 139.16 147.84 137.90 147.40 C 136.64 146.96 135.27 147.63 134.83 148.89 Z M 134.51 149.82 L 134.18 150.76 C 133.74 152.02 134.40 153.39 135.66 153.83 C 136.92 154.27 138.29 153.60 138.73 152.35 L 139.06 151.41 C 139.49 150.15 138.83 148.78 137.57 148.34 C 136.32 147.90 134.94 148.56 134.51 149.82 Z M 134.18 150.76 L 133.85 151.71 C 133.41 152.96 134.08 154.34 135.33 154.77 C 136.59 155.21 137.96 154.55 138.40 153.29 L 138.73 152.35 C 139.16 151.09 138.50 149.72 137.24 149.28 C 135.99 148.85 134.62 149.51 134.18 150.76 Z M 133.85 151.71 L 133.52 152.66 C 133.09 153.91 133.75 155.28 135.00 155.72 C 136.26 156.16 137.63 155.49 138.06 154.24 L 138.39 153.29 C 138.83 152.04 138.17 150.67 136.91 150.23 C 135.66 149.80 134.29 150.46 133.85 151.71 Z M 133.53 152.66 L 133.20 153.61 C 132.76 154.87 133.42 156.23 134.67 156.67 C 135.92 157.11 137.29 156.44 137.73 155.19 L 138.06 154.24 C 138.49 152.99 137.83 151.62 136.58 151.18 C 135.33 150.75 133.96 151.41 133.53 152.66 Z M 133.20 153.62 L 132.87 154.57 C 132.43 155.82 133.09 157.19 134.34 157.62 C 135.59 158.06 136.96 157.40 137.39 156.15 L 137.72 155.19 C 138.16 153.94 137.50 152.58 136.25 152.14 C 135.00 151.71 133.63 152.37 133.20 153.62 Z M 132.87 154.57 L 132.54 155.52 C 132.10 156.77 132.76 158.13 134.01 158.57 C 135.26 159.00 136.62 158.34 137.06 157.09 L 137.39 156.14 C 137.82 154.90 137.16 153.53 135.92 153.10 C 134.67 152.66 133.30 153.32 132.87 154.57 Z M 132.54 155.52 L 132.21 156.47 C 131.78 157.72 132.44 159.08 133.68 159.51 C 134.93 159.94 136.29 159.29 136.72 158.04 L 137.05 157.09 C 137.49 155.85 136.83 154.49 135.58 154.05 C 134.34 153.62 132.98 154.28 132.54 155.52 Z M 132.22 156.47 L 131.89 157.42 C 131.46 158.66 132.11 160.02 133.36 160.45 C 134.60 160.88 135.96 160.23 136.39 158.99 L 136.72 158.04 C 137.15 156.80 136.49 155.44 135.25 155.01 C 134.01 154.57 132.65 155.23 132.22 156.47 Z M 131.89 157.42 L 131.56 158.37 C 131.13 159.61 131.79 160.96 133.03 161.39 C 134.27 161.82 135.62 161.17 136.05 159.93 L 136.38 158.98 C 136.82 157.75 136.16 156.39 134.92 155.96 C 133.68 155.53 132.33 156.18 131.89 157.42 Z M 131.57 158.37 L 131.24 159.31 C 130.81 160.55 131.46 161.90 132.70 162.33 C 133.93 162.76 135.29 162.11 135.72 160.87 L 136.05 159.93 C 136.48 158.69 135.83 157.34 134.59 156.91 C 133.35 156.48 132.00 157.13 131.57 158.37 Z M 131.25 159.31 L 130.92 160.25 C 130.48 161.49 131.14 162.84 132.37 163.27 C 133.60 163.70 134.95 163.05 135.38 161.82 L 135.71 160.87 C 136.14 159.64 135.49 158.29 134.26 157.86 C 133.03 157.43 131.68 158.08 131.25 159.31 Z M 130.92 160.25 L 130.59 161.19 C 130.16 162.43 130.81 163.77 132.04 164.20 C 133.27 164.64 134.62 163.99 135.05 162.76 L 135.38 161.82 C 135.81 160.59 135.16 159.24 133.93 158.81 C 132.70 158.38 131.35 159.02 130.92 160.25 Z M 130.60 161.19 L 130.27 162.13 C 129.84 163.36 130.48 164.70 131.71 165.14 C 132.94 165.57 134.28 164.92 134.71 163.69 L 135.04 162.76 C 135.47 161.53 134.83 160.18 133.60 159.75 C 132.37 159.32 131.03 159.97 130.60 161.19 Z M 130.27 162.13 L 129.95 163.06 C 129.51 164.29 130.16 165.63 131.38 166.06 C 132.61 166.49 133.95 165.85 134.38 164.63 L 134.71 163.69 C 135.14 162.47 134.50 161.13 133.27 160.70 C 132.05 160.27 130.71 160.91 130.27 162.13 Z M 129.95 163.06 L 129.62 163.99 C 129.19 165.21 129.83 166.55 131.05 166.98 C 132.27 167.42 133.61 166.78 134.04 165.56 L 134.37 164.63 C 134.80 163.40 134.16 162.07 132.94 161.63 C 131.72 161.20 130.38 161.84 129.95 163.06 Z M 129.63 163.99 L 129.30 164.93 C 128.87 166.14 129.50 167.48 130.72 167.91 C 131.94 168.34 133.28 167.71 133.71 166.49 L 134.04 165.56 C 134.47 164.34 133.83 163.00 132.61 162.57 C 131.40 162.14 130.06 162.78 129.63 163.99 Z M 129.31 164.93 L 128.97 165.86 C 128.54 167.08 129.18 168.41 130.39 168.84 C 131.60 169.27 132.94 168.64 133.37 167.42 L 133.70 166.49 C 134.13 165.27 133.50 163.94 132.28 163.51 C 131.07 163.08 129.74 163.71 129.31 164.93 Z M 128.98 165.86 L 128.64 166.81 C 128.21 168.02 128.84 169.35 130.05 169.78 C 131.26 170.21 132.60 169.58 133.03 168.37 L 133.36 167.42 C 133.79 166.21 133.16 164.88 131.95 164.45 C 130.74 164.02 129.41 164.65 128.98 165.86 Z M 128.65 166.81 L 128.31 167.76 C 127.88 168.97 128.51 170.29 129.72 170.72 C 130.92 171.16 132.25 170.53 132.68 169.32 L 133.02 168.37 C 133.45 167.16 132.82 165.83 131.61 165.40 C 130.41 164.97 129.08 165.60 128.65 166.81 Z M 128.32 167.76 L 127.97 168.72 C 127.54 169.92 128.17 171.25 129.37 171.68 C 130.58 172.11 131.90 171.48 132.33 170.28 L 132.68 169.32 C 133.11 168.11 132.48 166.79 131.27 166.36 C 130.07 165.93 128.75 166.55 128.32 167.76 Z M 127.98 168.72 L 127.64 169.68 C 127.21 170.88 127.83 172.20 129.03 172.63 C 130.23 173.06 131.55 172.43 131.98 171.23 L 132.33 170.28 C 132.76 169.08 132.13 167.76 130.93 167.33 C 129.73 166.90 128.41 167.52 127.98 168.72 Z M 127.64 169.68 L 127.30 170.63 C 126.87 171.83 127.49 173.14 128.69 173.57 C 129.89 174.00 131.21 173.38 131.64 172.18 L 131.98 171.23 C 132.41 170.03 131.79 168.72 130.59 168.29 C 129.39 167.86 128.07 168.48 127.64 169.68 Z M 127.31 170.63 L 126.96 171.58 C 126.53 172.78 127.15 174.09 128.35 174.52 C 129.54 174.95 130.86 174.33 131.29 173.14 L 131.63 172.18 C 132.06 170.99 131.44 169.67 130.25 169.24 C 129.05 168.81 127.74 169.43 127.31 170.63 Z M 126.97 171.58 L 126.62 172.54 C 126.19 173.73 126.81 175.04 128.00 175.47 C 129.19 175.90 130.51 175.29 130.94 174.09 L 131.28 173.14 C 131.71 171.95 131.09 170.63 129.90 170.21 C 128.71 169.78 127.40 170.39 126.97 171.58 Z M 126.63 172.54 L 126.29 173.49 C 125.86 174.68 126.47 175.99 127.66 176.42 C 128.85 176.85 130.16 176.23 130.59 175.05 L 130.93 174.09 C 131.36 172.91 130.74 171.60 129.56 171.17 C 128.37 170.74 127.06 171.35 126.63 172.54 Z M 126.29 173.49 L 125.95 174.43 C 125.52 175.62 126.13 176.92 127.32 177.35 C 128.50 177.78 129.81 177.17 130.24 175.99 L 130.58 175.05 C 131.01 173.86 130.40 172.55 129.21 172.13 C 128.03 171.70 126.72 172.31 126.29 173.49 Z M 125.96 174.43 L 125.62 175.36 C 125.19 176.54 125.80 177.84 126.98 178.27 C 128.16 178.70 129.46 178.09 129.89 176.91 L 130.23 175.99 C 130.66 174.81 130.05 173.50 128.87 173.07 C 127.69 172.64 126.39 173.25 125.96 174.43 Z M 125.63 175.36 L 125.30 176.26 C 124.87 177.44 125.47 178.74 126.65 179.17 C 127.82 179.60 129.13 179.00 129.56 177.82 L 129.89 176.91 C 130.32 175.74 129.71 174.44 128.54 174.01 C 127.36 173.58 126.06 174.18 125.63 175.36 Z M 125.30 176.26 L 124.94 177.25 C 124.51 178.43 125.11 179.73 126.28 180.16 C 127.45 180.59 128.75 179.99 129.18 178.81 L 129.55 177.82 C 129.98 176.65 129.38 175.35 128.21 174.92 C 127.03 174.49 125.73 175.09 125.30 176.26 Z M 124.95 177.25 L 124.58 178.24 C 124.15 179.40 124.75 180.70 125.92 181.13 C 127.08 181.56 128.38 180.97 128.81 179.80 L 129.18 178.82 C 129.61 177.65 129.01 176.35 127.84 175.92 C 126.68 175.49 125.38 176.08 124.95 177.25 Z M 124.59 178.23 L 124.24 179.19 C 123.80 180.35 124.40 181.65 125.56 182.08 C 126.72 182.51 128.02 181.92 128.45 180.75 L 128.81 179.80 C 129.24 178.64 128.64 177.34 127.48 176.91 C 126.32 176.48 125.02 177.07 124.59 178.23 Z M 124.24 179.19 L 123.90 180.12 C 123.46 181.28 124.05 182.57 125.21 183.00 C 126.37 183.43 127.66 182.85 128.10 181.69 L 128.44 180.76 C 128.88 179.60 128.29 178.30 127.13 177.87 C 125.97 177.44 124.68 178.03 124.24 179.19 Z M 123.90 180.12 L 123.56 181.03 C 123.13 182.19 123.72 183.47 124.87 183.91 C 126.03 184.34 127.31 183.75 127.75 182.60 L 128.09 181.69 C 128.52 180.53 127.94 179.24 126.78 178.81 C 125.62 178.38 124.34 178.96 123.90 180.12 Z M 123.57 181.03 L 123.23 181.92 C 122.80 183.08 123.38 184.36 124.54 184.79 C 125.69 185.23 126.97 184.64 127.40 183.49 L 127.74 182.60 C 128.17 181.45 127.59 180.16 126.44 179.73 C 125.29 179.30 124.00 179.88 123.57 181.03 Z M 123.24 181.93 L 122.91 182.82 C 122.47 183.96 123.05 185.24 124.20 185.68 C 125.35 186.11 126.63 185.53 127.06 184.38 L 127.40 183.49 C 127.83 182.34 127.25 181.06 126.10 180.63 C 124.95 180.20 123.67 180.78 123.24 181.93 Z M 122.91 182.82 L 122.55 183.78 C 122.12 184.93 122.69 186.20 123.84 186.63 C 124.98 187.07 126.26 186.49 126.69 185.34 L 127.05 184.38 C 127.49 183.23 126.91 181.96 125.76 181.53 C 124.62 181.10 123.34 181.67 122.91 182.82 Z M 122.56 183.78 L 122.20 184.74 C 121.76 185.88 122.34 187.15 123.48 187.58 C 124.62 188.01 125.89 187.44 126.32 186.30 L 126.68 185.34 C 127.11 184.20 126.54 182.93 125.40 182.50 C 124.26 182.07 122.99 182.64 122.56 183.78 Z M 122.20 184.74 L 121.85 185.68 C 121.42 186.82 121.99 188.09 123.13 188.51 C 124.26 188.94 125.53 188.37 125.96 187.24 L 126.32 186.30 C 126.75 185.16 126.17 183.89 125.04 183.46 C 123.90 183.03 122.63 183.60 122.20 184.74 Z M 121.85 185.68 L 121.50 186.61 C 121.07 187.74 121.64 189.01 122.77 189.44 C 123.91 189.87 125.17 189.30 125.60 188.16 L 125.95 187.23 C 126.38 186.10 125.81 184.84 124.68 184.41 C 123.55 183.98 122.28 184.55 121.85 185.68 Z M 121.51 186.61 L 121.16 187.53 C 120.73 188.66 121.30 189.92 122.43 190.35 C 123.56 190.77 124.82 190.21 125.25 189.08 L 125.60 188.16 C 126.02 187.03 125.46 185.77 124.33 185.34 C 123.20 184.91 121.94 185.48 121.51 186.61 Z M 121.17 187.53 L 120.82 188.43 C 120.40 189.56 120.96 190.81 122.09 191.24 C 123.21 191.67 124.47 191.10 124.90 189.98 L 125.24 189.08 C 125.67 187.95 125.10 186.69 123.98 186.27 C 122.85 185.84 121.60 186.40 121.17 187.53 Z M 120.83 188.43 L 120.46 189.41 C 120.03 190.53 120.60 191.78 121.72 192.21 C 122.84 192.64 124.09 192.08 124.52 190.95 L 124.89 189.98 C 125.32 188.86 124.75 187.60 123.63 187.18 C 122.51 186.75 121.26 187.31 120.83 188.43 Z M 120.47 189.41 L 120.10 190.37 C 119.67 191.48 120.23 192.73 121.35 193.16 C 122.47 193.59 123.72 193.03 124.14 191.91 L 124.51 190.95 C 124.94 189.84 124.38 188.59 123.26 188.16 C 122.15 187.73 120.89 188.29 120.47 189.41 Z M 120.11 190.37 L 119.75 191.31 C 119.32 192.42 119.87 193.67 120.99 194.09 C 122.10 194.52 123.35 193.97 123.77 192.86 L 124.13 191.91 C 124.56 190.80 124.01 189.56 122.90 189.13 C 121.78 188.70 120.54 189.25 120.11 190.37 Z M 119.76 191.30 L 119.40 192.22 C 118.97 193.33 119.52 194.58 120.63 195.00 C 121.73 195.43 122.98 194.88 123.41 193.78 L 123.76 192.86 C 124.19 191.75 123.64 190.51 122.54 190.08 C 121.43 189.65 120.19 190.20 119.76 191.30 Z M 119.41 192.22 L 119.06 193.12 C 118.63 194.22 119.17 195.46 120.27 195.89 C 121.37 196.32 122.61 195.78 123.05 194.68 L 123.40 193.78 C 123.83 192.68 123.29 191.44 122.18 191.01 C 121.08 190.58 119.84 191.12 119.41 192.22 Z M 119.07 193.11 L 118.70 194.04 C 118.26 195.14 118.80 196.38 119.89 196.82 C 120.99 197.25 122.23 196.71 122.67 195.62 L 123.04 194.69 C 123.47 193.59 122.93 192.35 121.84 191.92 C 120.74 191.48 119.50 192.02 119.07 193.11 Z M 118.71 194.04 L 118.32 195.01 C 117.88 196.10 118.41 197.34 119.50 197.78 C 120.59 198.22 121.83 197.69 122.27 196.60 L 122.66 195.62 C 123.09 194.53 122.56 193.29 121.47 192.86 C 120.38 192.42 119.15 192.95 118.71 194.04 Z M 118.32 195.02 L 117.95 195.96 C 117.51 197.05 118.04 198.28 119.12 198.71 C 120.21 199.15 121.44 198.62 121.88 197.54 L 122.26 196.59 C 122.69 195.51 122.17 194.27 121.08 193.84 C 119.99 193.40 118.76 193.93 118.32 195.02 Z M 117.95 195.97 L 117.59 196.88 C 117.16 197.97 117.69 199.20 118.78 199.62 C 119.86 200.05 121.09 199.52 121.52 198.44 L 121.88 197.52 C 122.31 196.44 121.77 195.21 120.69 194.79 C 119.61 194.36 118.38 194.89 117.95 195.97 Z M 117.59 196.91 L 117.25 197.79 C 116.83 198.87 117.37 200.09 118.46 200.51 C 119.54 200.93 120.76 200.39 121.17 199.30 L 121.52 198.42 C 121.93 197.33 121.39 196.12 120.31 195.70 C 119.22 195.28 118.01 195.82 117.59 196.91 Z M 117.25 197.82 L 116.92 198.71 C 116.52 199.79 117.08 201.00 118.16 201.40 C 119.25 201.80 120.45 201.24 120.85 200.15 L 121.18 199.27 C 121.58 198.18 121.02 196.98 119.94 196.58 C 118.85 196.18 117.64 196.74 117.25 197.82 Z M 116.92 198.74 L 116.60 199.63 C 116.22 200.72 116.80 201.91 117.89 202.29 C 118.97 202.67 120.16 202.10 120.54 201.01 L 120.86 200.12 C 121.24 199.03 120.66 197.84 119.57 197.46 C 118.49 197.08 117.30 197.66 116.92 198.74 Z M 116.60 199.66 L 116.30 200.58 C 115.93 201.67 116.52 202.84 117.61 203.21 C 118.70 203.57 119.88 202.98 120.24 201.90 L 120.54 200.98 C 120.91 199.89 120.32 198.72 119.23 198.35 C 118.14 197.99 116.97 198.58 116.60 199.66 Z M 116.30 200.60 L 115.99 201.57 C 115.63 202.65 116.23 203.82 117.32 204.17 C 118.40 204.53 119.57 203.93 119.92 202.84 L 120.24 201.88 C 120.59 200.79 119.99 199.62 118.91 199.27 C 117.82 198.92 116.65 199.51 116.30 200.60 Z M 115.99 201.58 L 115.66 202.64 C 115.31 203.72 115.91 204.88 116.99 205.22 C 118.07 205.57 119.23 204.97 119.58 203.89 L 119.92 202.83 C 120.26 201.75 119.66 200.59 118.58 200.24 C 117.50 199.90 116.34 200.50 115.99 201.58 Z M 115.66 202.65 L 115.27 203.89 C 114.94 204.97 115.54 206.12 116.62 206.46 C 117.70 206.80 118.85 206.19 119.19 205.11 L 119.57 203.87 C 119.91 202.79 119.31 201.64 118.23 201.31 C 117.15 200.97 116.00 201.57 115.66 202.65 Z M 115.26 203.97 L 114.95 205.15 C 114.66 206.23 115.30 207.35 116.39 207.65 C 117.48 207.94 118.59 207.29 118.89 206.20 L 119.20 205.03 C 119.49 203.94 118.85 202.83 117.76 202.53 C 116.67 202.24 115.55 202.89 115.26 203.97 Z M 114.91 205.38 L 114.78 206.29 C 114.61 207.40 115.38 208.43 116.49 208.59 C 117.59 208.76 118.62 207.99 118.79 206.88 L 118.92 205.97 C 119.09 204.86 118.32 203.83 117.21 203.67 C 116.11 203.51 115.07 204.27 114.91 205.38 Z M 114.88 207.25 L 115.03 207.70 C 115.40 208.75 116.55 209.31 117.61 208.94 C 118.66 208.57 119.21 207.42 118.84 206.37 L 118.69 205.92 C 118.32 204.87 117.17 204.31 116.12 204.68 C 115.06 205.05 114.51 206.20 114.88 207.25 Z M 117.44 208.95 L 117.88 208.84 C 118.94 208.56 119.57 207.48 119.30 206.42 C 119.02 205.36 117.93 204.72 116.87 205.00 L 116.44 205.11 C 115.38 205.39 114.74 206.47 115.02 207.54 C 115.29 208.60 116.38 209.23 117.44 208.95 Z M 118.55 208.45 L 119.19 207.95 C 120.04 207.31 120.20 206.09 119.55 205.25 C 118.90 204.41 117.69 204.25 116.84 204.90 L 116.20 205.39 C 115.36 206.04 115.20 207.25 115.85 208.09 C 116.50 208.94 117.71 209.10 118.55 208.45 Z M 119.31 207.77 L 120.09 207.02 C 120.83 206.30 120.85 205.12 120.14 204.38 C 119.42 203.64 118.24 203.62 117.50 204.33 L 116.72 205.08 C 115.98 205.80 115.96 206.98 116.67 207.72 C 117.39 208.46 118.57 208.48 119.31 207.77 Z M 120.11 206.91 L 120.94 206.02 C 121.63 205.29 121.59 204.15 120.86 203.47 C 120.13 202.79 118.99 202.83 118.31 203.55 L 117.48 204.44 C 116.80 205.17 116.84 206.31 117.56 206.99 C 118.29 207.67 119.43 207.63 120.11 206.91 Z M 120.93 205.94 L 121.74 205.03 C 122.37 204.31 122.30 203.21 121.58 202.57 C 120.86 201.94 119.76 202.01 119.13 202.73 L 118.32 203.63 C 117.69 204.35 117.75 205.45 118.47 206.09 C 119.20 206.73 120.30 206.66 120.93 205.94 Z M 121.72 204.98 L 122.53 204.03 C 123.13 203.31 123.05 202.25 122.34 201.64 C 121.63 201.03 120.56 201.12 119.95 201.83 L 119.14 202.78 C 118.54 203.49 118.62 204.56 119.33 205.17 C 120.05 205.77 121.11 205.69 121.72 204.98 Z M 122.53 203.98 L 123.22 203.13 C 123.81 202.42 123.70 201.37 122.99 200.79 C 122.27 200.20 121.22 200.31 120.64 201.03 L 119.95 201.88 C 119.37 202.59 119.47 203.64 120.19 204.22 C 120.90 204.80 121.95 204.70 122.53 203.98 Z M 123.24 203.08 L 123.80 202.35 C 124.36 201.63 124.22 200.59 123.50 200.04 C 122.78 199.48 121.75 199.62 121.19 200.34 L 120.63 201.07 C 120.07 201.79 120.21 202.83 120.93 203.38 C 121.65 203.94 122.68 203.80 123.24 203.08 Z M 123.82 202.30 L 124.31 201.62 C 124.84 200.89 124.67 199.87 123.95 199.35 C 123.22 198.82 122.20 198.98 121.67 199.71 L 121.18 200.39 C 120.65 201.12 120.81 202.14 121.54 202.67 C 122.27 203.19 123.29 203.03 123.82 202.30 Z M 124.32 201.58 L 124.84 200.83 C 125.34 200.10 125.16 199.09 124.43 198.59 C 123.69 198.08 122.69 198.26 122.18 199.00 L 121.66 199.75 C 121.15 200.48 121.34 201.49 122.07 202.00 C 122.81 202.50 123.81 202.32 124.32 201.58 Z M 124.85 200.81 L 125.40 199.98 C 125.89 199.24 125.69 198.24 124.95 197.75 C 124.20 197.26 123.20 197.46 122.71 198.20 L 122.16 199.03 C 121.67 199.77 121.87 200.77 122.62 201.26 C 123.36 201.75 124.36 201.55 124.85 200.81 Z M 125.42 199.95 L 125.96 199.10 C 126.43 198.35 126.21 197.35 125.46 196.87 C 124.71 196.40 123.71 196.62 123.23 197.37 L 122.69 198.23 C 122.22 198.98 122.44 199.98 123.19 200.45 C 123.94 200.93 124.94 200.71 125.42 199.95 Z M 125.98 199.07 L 126.50 198.19 C 126.96 197.43 126.72 196.44 125.95 195.98 C 125.19 195.52 124.20 195.77 123.74 196.53 L 123.21 197.41 C 122.76 198.17 123.00 199.16 123.77 199.62 C 124.53 200.08 125.52 199.83 125.98 199.07 Z M 126.52 198.16 L 127.02 197.29 C 127.46 196.51 127.19 195.53 126.41 195.09 C 125.64 194.65 124.66 194.92 124.22 195.69 L 123.72 196.56 C 123.28 197.34 123.55 198.32 124.33 198.76 C 125.10 199.20 126.08 198.93 126.52 198.16 Z M 127.03 197.26 L 127.51 196.38 C 127.94 195.60 127.65 194.62 126.87 194.20 C 126.08 193.77 125.11 194.06 124.68 194.84 L 124.20 195.72 C 123.78 196.50 124.06 197.48 124.85 197.90 C 125.63 198.33 126.61 198.04 127.03 197.26 Z M 127.52 196.37 L 127.99 195.48 C 128.40 194.70 128.10 193.72 127.32 193.30 C 126.53 192.89 125.56 193.19 125.14 193.97 L 124.67 194.86 C 124.25 195.64 124.55 196.62 125.34 197.04 C 126.13 197.45 127.10 197.15 127.52 196.37 Z M 127.99 195.48 L 128.27 194.95 C 128.68 194.16 128.38 193.19 127.59 192.78 C 126.80 192.36 125.83 192.67 125.41 193.45 L 125.14 193.98 C 124.72 194.77 125.03 195.74 125.81 196.15 C 126.60 196.57 127.58 196.26 127.99 195.48 Z"
      fill="black"
      fill-rule="nonzero" /><path d="M 150.57 123.58 L 151.63 123.65 C 152.65 123.72 153.54 122.95 153.61 121.93 C 153.68 120.91 152.91 120.03 151.89 119.96 L 150.83 119.88 C 149.81 119.81 148.92 120.58 148.85 121.61 C 148.78 122.63 149.55 123.51 150.57 123.58 Z M 151.60 123.75 L 152.64 123.84 C 153.72 123.93 154.66 123.12 154.75 122.05 C 154.83 120.97 154.03 120.03 152.96 119.94 L 151.92 119.86 C 150.84 119.77 149.90 120.57 149.81 121.65 C 149.72 122.72 150.53 123.67 151.60 123.75 Z M 152.58 123.94 L 153.57 124.04 C 154.70 124.16 155.72 123.35 155.84 122.22 C 155.96 121.09 155.14 120.07 154.01 119.95 L 153.02 119.84 C 151.89 119.72 150.87 120.54 150.75 121.67 C 150.63 122.80 151.45 123.82 152.58 123.94 Z M 153.47 124.13 L 154.39 124.27 C 155.57 124.45 156.67 123.64 156.85 122.46 C 157.03 121.28 156.22 120.18 155.04 120.00 L 154.12 119.86 C 152.93 119.68 151.83 120.49 151.65 121.67 C 151.47 122.85 152.28 123.95 153.47 124.13 Z M 154.22 124.31 L 155.18 124.53 C 156.38 124.81 157.58 124.05 157.85 122.85 C 158.12 121.65 157.37 120.45 156.17 120.18 L 155.21 119.96 C 154.01 119.69 152.81 120.44 152.54 121.64 C 152.26 122.84 153.02 124.04 154.22 124.31 Z M 154.95 124.49 L 155.87 124.80 C 157.05 125.20 158.33 124.57 158.73 123.39 C 159.13 122.21 158.49 120.93 157.32 120.53 L 156.39 120.22 C 155.21 119.82 153.94 120.46 153.54 121.63 C 153.14 122.81 153.77 124.09 154.95 124.49 Z M 155.66 124.72 L 156.54 125.12 C 157.68 125.64 159.02 125.14 159.53 124.01 C 160.05 122.87 159.55 121.53 158.42 121.02 L 157.53 120.61 C 156.40 120.10 155.06 120.60 154.54 121.73 C 154.03 122.86 154.53 124.20 155.66 124.72 Z M 156.39 125.05 L 157.28 125.54 C 158.37 126.15 159.75 125.75 160.35 124.66 C 160.96 123.57 160.56 122.19 159.47 121.59 L 158.57 121.09 C 157.48 120.49 156.11 120.88 155.50 121.98 C 154.90 123.07 155.29 124.44 156.39 125.05 Z M 157.19 125.49 L 158.03 126.01 C 159.09 126.66 160.48 126.33 161.14 125.26 C 161.79 124.19 161.46 122.80 160.39 122.15 L 159.56 121.64 C 158.49 120.98 157.10 121.31 156.45 122.38 C 155.79 123.45 156.13 124.84 157.19 125.49 Z M 157.96 125.97 L 158.82 126.53 C 159.86 127.22 161.27 126.93 161.96 125.89 C 162.65 124.84 162.36 123.43 161.31 122.75 L 160.46 122.18 C 159.41 121.49 158.00 121.78 157.31 122.83 C 156.63 123.87 156.91 125.28 157.96 125.97 Z M 158.76 126.50 L 159.60 127.09 C 160.62 127.81 162.04 127.56 162.76 126.53 C 163.49 125.51 163.24 124.09 162.21 123.37 L 161.37 122.78 C 160.34 122.06 158.92 122.31 158.20 123.33 C 157.48 124.36 157.73 125.78 158.76 126.50 Z M 159.54 127.05 L 160.32 127.64 C 161.33 128.40 162.76 128.19 163.51 127.18 C 164.27 126.17 164.06 124.75 163.06 123.99 L 162.27 123.40 C 161.26 122.65 159.83 122.86 159.08 123.86 C 158.32 124.87 158.53 126.30 159.54 127.05 Z M 160.25 127.59 L 161.09 128.27 C 162.07 129.06 163.51 128.91 164.30 127.93 C 165.09 126.95 164.94 125.51 163.96 124.72 L 163.13 124.04 C 162.15 123.25 160.71 123.40 159.92 124.38 C 159.12 125.36 159.27 126.80 160.25 127.59 Z M 161.01 128.21 L 161.75 128.87 C 162.70 129.70 164.15 129.61 164.98 128.67 C 165.82 127.72 165.73 126.27 164.78 125.44 L 164.04 124.78 C 163.09 123.94 161.65 124.03 160.81 124.98 C 159.98 125.93 160.06 127.37 161.01 128.21 Z M 161.69 128.81 L 162.38 129.47 C 163.30 130.34 164.75 130.30 165.62 129.39 C 166.49 128.47 166.46 127.02 165.54 126.15 L 164.85 125.49 C 163.93 124.62 162.48 124.66 161.61 125.57 C 160.74 126.49 160.77 127.94 161.69 128.81 Z M 162.33 129.43 L 163.01 130.10 C 163.90 131.00 165.36 131.00 166.25 130.11 C 167.15 129.21 167.15 127.76 166.26 126.86 L 165.59 126.19 C 164.69 125.29 163.24 125.29 162.34 126.18 C 161.44 127.08 161.44 128.53 162.33 129.43 Z M 162.97 130.07 L 163.64 130.78 C 164.52 131.70 165.98 131.73 166.90 130.85 C 167.82 129.97 167.85 128.51 166.97 127.60 L 166.30 126.89 C 165.42 125.97 163.96 125.94 163.04 126.82 C 162.12 127.70 162.09 129.16 162.97 130.07 Z M 163.61 130.75 L 164.29 131.49 C 165.15 132.43 166.61 132.50 167.55 131.63 C 168.49 130.77 168.55 129.31 167.69 128.37 L 167.01 127.63 C 166.15 126.69 164.69 126.63 163.75 127.49 C 162.81 128.35 162.74 129.81 163.61 130.75 Z M 164.25 131.46 L 164.93 132.23 C 165.77 133.19 167.23 133.29 168.19 132.45 C 169.15 131.60 169.25 130.14 168.41 129.18 L 167.73 128.41 C 166.89 127.45 165.43 127.35 164.46 128.19 C 163.50 129.03 163.41 130.50 164.25 131.46 Z M 164.89 132.20 L 165.50 132.92 C 166.32 133.90 167.79 134.03 168.77 133.21 C 169.75 132.38 169.88 130.92 169.05 129.94 L 168.44 129.21 C 167.62 128.23 166.16 128.10 165.18 128.93 C 164.19 129.75 164.07 131.22 164.89 132.20 Z M 165.47 132.89 L 166.08 133.66 C 166.89 134.66 168.35 134.81 169.35 134.01 C 170.35 133.20 170.51 131.74 169.70 130.74 L 169.09 129.97 C 168.28 128.97 166.82 128.81 165.82 129.62 C 164.82 130.43 164.66 131.89 165.47 132.89 Z M 166.05 133.62 L 166.68 134.44 C 167.47 135.45 168.93 135.64 169.95 134.85 C 170.97 134.06 171.15 132.60 170.36 131.58 L 169.74 130.77 C 168.95 129.75 167.48 129.57 166.47 130.35 C 165.45 131.14 165.26 132.61 166.05 133.62 Z M 166.65 134.40 L 167.27 135.24 C 168.04 136.27 169.50 136.49 170.54 135.72 C 171.57 134.95 171.79 133.48 171.02 132.45 L 170.40 131.61 C 169.63 130.58 168.16 130.36 167.13 131.13 C 166.09 131.90 165.88 133.37 166.65 134.40 Z M 167.24 135.21 L 167.79 135.98 C 168.55 137.03 170.01 137.27 171.06 136.52 C 172.11 135.76 172.35 134.30 171.60 133.25 L 171.05 132.48 C 170.29 131.43 168.83 131.19 167.78 131.94 C 166.73 132.69 166.49 134.16 167.24 135.21 Z M 167.77 135.96 L 168.33 136.76 C 169.07 137.82 170.53 138.09 171.60 137.35 C 172.66 136.61 172.92 135.14 172.18 134.08 L 171.62 133.27 C 170.88 132.21 169.42 131.95 168.36 132.69 C 167.29 133.43 167.03 134.89 167.77 135.96 Z M 168.31 136.74 L 168.88 137.58 C 169.61 138.65 171.07 138.93 172.14 138.20 C 173.22 137.48 173.50 136.01 172.77 134.94 L 172.20 134.10 C 171.47 133.03 170.01 132.75 168.94 133.47 C 167.86 134.20 167.58 135.66 168.31 136.74 Z M 168.86 137.56 L 169.43 138.43 C 170.15 139.51 171.61 139.81 172.70 139.09 C 173.78 138.37 174.08 136.91 173.36 135.83 L 172.79 134.96 C 172.07 133.87 170.61 133.58 169.52 134.29 C 168.44 135.01 168.14 136.47 168.86 137.56 Z M 169.42 138.41 L 169.96 139.25 C 170.67 140.34 172.13 140.66 173.23 139.95 C 174.32 139.24 174.63 137.78 173.92 136.68 L 173.38 135.84 C 172.67 134.75 171.21 134.44 170.12 135.15 C 169.02 135.86 168.71 137.32 169.42 138.41 Z M 169.95 139.23 L 170.47 140.05 C 171.17 141.15 172.63 141.48 173.73 140.78 C 174.83 140.08 175.16 138.62 174.46 137.51 L 173.94 136.70 C 173.24 135.60 171.78 135.27 170.68 135.97 C 169.57 136.67 169.25 138.13 169.95 139.23 Z M 170.45 140.03 L 170.97 140.87 C 171.66 141.98 173.12 142.32 174.23 141.63 C 175.34 140.95 175.68 139.49 174.99 138.37 L 174.47 137.54 C 173.78 136.42 172.33 136.08 171.21 136.77 C 170.10 137.46 169.76 138.92 170.45 140.03 Z M 170.95 140.84 L 171.47 141.71 C 172.15 142.83 173.60 143.19 174.72 142.52 C 175.85 141.84 176.21 140.39 175.53 139.26 L 175.01 138.40 C 174.34 137.28 172.88 136.92 171.76 137.59 C 170.64 138.27 170.27 139.72 170.95 140.84 Z M 171.45 141.68 L 171.97 142.57 C 172.63 143.70 174.08 144.09 175.21 143.43 C 176.35 142.77 176.73 141.32 176.07 140.18 L 175.55 139.29 C 174.89 138.16 173.44 137.77 172.31 138.43 C 171.17 139.09 170.79 140.55 171.45 141.68 Z M 171.95 142.54 L 172.44 143.43 C 173.08 144.57 174.53 144.98 175.68 144.34 C 176.82 143.69 177.23 142.25 176.59 141.10 L 176.09 140.21 C 175.45 139.07 174.00 138.66 172.86 139.30 C 171.71 139.95 171.30 141.39 171.95 142.54 Z M 172.42 143.39 L 172.87 144.23 C 173.50 145.38 174.94 145.82 176.10 145.19 C 177.26 144.56 177.69 143.12 177.06 141.96 L 176.61 141.13 C 175.98 139.97 174.54 139.54 173.38 140.17 C 172.23 140.79 171.80 142.24 172.42 143.39 Z M 172.86 144.20 L 173.31 145.06 C 173.92 146.23 175.36 146.67 176.53 146.06 C 177.69 145.45 178.14 144.01 177.53 142.85 L 177.08 141.99 C 176.46 140.82 175.02 140.38 173.86 140.99 C 172.69 141.60 172.25 143.04 172.86 144.20 Z M 173.30 145.04 L 173.75 145.92 C 174.35 147.10 175.79 147.56 176.96 146.96 C 178.13 146.36 178.59 144.92 177.99 143.75 L 177.54 142.87 C 176.94 141.69 175.50 141.23 174.33 141.83 C 173.16 142.43 172.69 143.87 173.30 145.04 Z M 173.74 145.91 L 174.20 146.82 C 174.79 148.00 176.23 148.47 177.40 147.88 C 178.58 147.28 179.05 145.85 178.46 144.67 L 178.00 143.76 C 177.41 142.58 175.97 142.11 174.80 142.70 C 173.62 143.30 173.15 144.73 173.74 145.91 Z M 174.19 146.81 L 174.66 147.75 C 175.24 148.93 176.68 149.41 177.86 148.82 C 179.04 148.23 179.52 146.80 178.93 145.62 L 178.47 144.68 C 177.88 143.50 176.45 143.02 175.26 143.61 C 174.08 144.19 173.60 145.63 174.19 146.81 Z M 174.65 147.74 L 175.11 148.67 C 175.69 149.85 177.13 150.34 178.31 149.75 C 179.49 149.17 179.98 147.73 179.40 146.55 L 178.94 145.62 C 178.35 144.44 176.92 143.95 175.74 144.54 C 174.55 145.12 174.07 146.56 174.65 147.74 Z M 175.11 148.66 L 175.54 149.54 C 176.12 150.72 177.55 151.21 178.74 150.63 C 179.92 150.05 180.41 148.62 179.83 147.43 L 179.40 146.55 C 178.82 145.37 177.38 144.88 176.20 145.46 C 175.01 146.04 174.52 147.48 175.11 148.66 Z M 175.53 149.53 L 175.97 150.43 C 176.55 151.61 177.98 152.11 179.17 151.53 C 180.35 150.95 180.85 149.52 180.27 148.33 L 179.83 147.44 C 179.26 146.25 177.82 145.76 176.64 146.33 C 175.45 146.91 174.95 148.34 175.53 149.53 Z M 175.96 150.42 L 176.40 151.32 C 176.97 152.51 178.40 153.02 179.59 152.44 C 180.78 151.87 181.28 150.44 180.71 149.25 L 180.27 148.34 C 179.70 147.15 178.27 146.65 177.08 147.22 C 175.89 147.79 175.39 149.22 175.96 150.42 Z M 176.39 151.31 L 176.82 152.22 C 177.39 153.42 178.81 153.93 180.01 153.37 C 181.20 152.80 181.72 151.38 181.15 150.18 L 180.72 149.26 C 180.15 148.07 178.73 147.56 177.53 148.12 C 176.34 148.69 175.83 150.11 176.39 151.31 Z M 176.81 152.21 L 177.24 153.13 C 177.79 154.33 179.22 154.85 180.42 154.30 C 181.62 153.74 182.14 152.32 181.59 151.12 L 181.16 150.20 C 180.61 149.00 179.18 148.47 177.98 149.03 C 176.78 149.58 176.26 151.01 176.81 152.21 Z M 177.23 153.11 L 177.64 154.02 C 178.18 155.23 179.60 155.77 180.81 155.23 C 182.01 154.68 182.55 153.27 182.01 152.06 L 181.60 151.14 C 181.05 149.93 179.64 149.40 178.43 149.94 C 177.22 150.48 176.69 151.90 177.23 153.11 Z M 177.63 154.00 L 178.03 154.93 C 178.56 156.14 179.97 156.70 181.19 156.17 C 182.40 155.64 182.95 154.23 182.43 153.02 L 182.02 152.09 C 181.49 150.87 180.08 150.32 178.87 150.85 C 177.66 151.37 177.10 152.79 177.63 154.00 Z M 178.02 154.90 L 178.41 155.83 C 178.93 157.05 180.33 157.62 181.55 157.11 C 182.77 156.60 183.34 155.20 182.83 153.98 L 182.44 153.04 C 181.93 151.82 180.52 151.25 179.30 151.76 C 178.08 152.28 177.51 153.68 178.02 154.90 Z M 178.40 155.80 L 178.78 156.73 C 179.28 157.96 180.67 158.55 181.90 158.05 C 183.12 157.55 183.71 156.16 183.22 154.93 L 182.84 154.00 C 182.34 152.78 180.95 152.19 179.72 152.69 C 178.50 153.18 177.91 154.58 178.40 155.80 Z M 178.77 156.70 L 179.13 157.63 C 179.62 158.86 181.00 159.47 182.23 158.99 C 183.47 158.51 184.07 157.12 183.59 155.89 L 183.23 154.96 C 182.75 153.73 181.36 153.12 180.13 153.60 C 178.90 154.09 178.29 155.47 178.77 156.70 Z M 179.12 157.61 L 179.48 158.53 C 179.94 159.77 181.32 160.39 182.56 159.93 C 183.80 159.46 184.42 158.08 183.95 156.84 L 183.60 155.91 C 183.13 154.68 181.75 154.05 180.52 154.52 C 179.28 154.99 178.66 156.37 179.12 157.61 Z M 179.47 158.51 L 179.81 159.44 C 180.26 160.68 181.63 161.32 182.88 160.87 C 184.12 160.41 184.75 159.04 184.30 157.80 L 183.96 156.87 C 183.51 155.63 182.13 154.99 180.89 155.44 C 179.65 155.90 179.01 157.27 179.47 158.51 Z M 179.80 159.42 L 180.13 160.35 C 180.57 161.60 181.94 162.25 183.18 161.81 C 184.43 161.37 185.08 160.00 184.64 158.76 L 184.31 157.82 C 183.87 156.58 182.50 155.92 181.25 156.37 C 180.01 156.81 179.36 158.17 179.80 159.42 Z M 180.13 160.33 L 180.45 161.27 C 180.88 162.52 182.24 163.18 183.49 162.75 C 184.73 162.32 185.40 160.96 184.97 159.71 L 184.65 158.78 C 184.22 157.53 182.86 156.87 181.61 157.29 C 180.36 157.72 179.70 159.08 180.13 160.33 Z M 180.44 161.25 L 180.76 162.19 C 181.18 163.44 182.53 164.12 183.78 163.70 C 185.03 163.28 185.71 161.93 185.29 160.67 L 184.97 159.73 C 184.55 158.48 183.20 157.81 181.95 158.23 C 180.70 158.65 180.02 160.00 180.44 161.25 Z M 180.76 162.18 L 181.07 163.12 C 181.47 164.38 182.82 165.06 184.08 164.65 C 185.33 164.24 186.01 162.89 185.60 161.64 L 185.29 160.69 C 184.88 159.44 183.54 158.76 182.28 159.16 C 181.03 159.57 180.35 160.92 180.76 162.18 Z M 181.06 163.11 L 181.37 164.06 C 181.77 165.32 183.11 166.01 184.36 165.61 C 185.62 165.21 186.31 163.87 185.91 162.61 L 185.61 161.66 C 185.21 160.40 183.86 159.71 182.61 160.11 C 181.35 160.51 180.66 161.85 181.06 163.11 Z M 181.36 164.05 L 181.66 165.01 C 182.06 166.26 183.39 166.96 184.65 166.57 C 185.91 166.18 186.61 164.84 186.21 163.58 L 185.91 162.62 C 185.52 161.37 184.18 160.67 182.93 161.06 C 181.67 161.45 180.97 162.79 181.36 164.05 Z M 181.66 164.99 L 181.96 165.96 C 182.34 167.21 183.67 167.92 184.93 167.54 C 186.19 167.15 186.90 165.82 186.51 164.56 L 186.22 163.60 C 185.83 162.34 184.50 161.63 183.24 162.02 C 181.98 162.40 181.27 163.74 181.66 164.99 Z M 181.95 165.95 L 182.24 166.91 C 182.62 168.16 183.95 168.88 185.21 168.50 C 186.47 168.12 187.18 166.79 186.80 165.53 L 186.51 164.57 C 186.13 163.31 184.81 162.60 183.55 162.98 C 182.29 163.36 181.57 164.69 181.95 165.95 Z M 182.24 166.90 L 182.53 167.85 C 182.90 169.11 184.23 169.83 185.48 169.45 C 186.74 169.08 187.46 167.76 187.09 166.50 L 186.80 165.54 C 186.43 164.28 185.10 163.56 183.85 163.94 C 182.59 164.31 181.87 165.64 182.24 166.90 Z M 182.53 167.84 L 182.81 168.80 C 183.18 170.06 184.50 170.78 185.76 170.41 C 187.02 170.04 187.74 168.72 187.37 167.46 L 187.09 166.50 C 186.72 165.25 185.40 164.53 184.14 164.89 C 182.88 165.26 182.16 166.58 182.53 167.84 Z M 182.81 168.79 L 183.09 169.75 C 183.45 171.01 184.77 171.74 186.03 171.37 C 187.29 171.01 188.01 169.69 187.65 168.43 L 187.37 167.47 C 187.00 166.21 185.68 165.49 184.43 165.85 C 183.17 166.22 182.44 167.54 182.81 168.79 Z M 183.09 169.75 L 183.37 170.71 C 183.73 171.97 185.04 172.69 186.30 172.33 C 187.56 171.97 188.28 170.66 187.92 169.40 L 187.64 168.44 C 187.28 167.18 185.97 166.45 184.71 166.82 C 183.45 167.18 182.73 168.49 183.09 169.75 Z M 183.37 170.71 L 183.65 171.67 C 184.01 172.93 185.32 173.65 186.57 173.29 C 187.83 172.93 188.56 171.62 188.20 170.37 L 187.92 169.40 C 187.56 168.15 186.25 167.42 184.99 167.78 C 183.74 168.14 183.01 169.45 183.37 170.71 Z M 183.65 171.67 L 183.92 172.63 C 184.28 173.89 185.59 174.61 186.85 174.25 C 188.10 173.90 188.83 172.59 188.47 171.33 L 188.19 170.37 C 187.84 169.11 186.53 168.39 185.27 168.74 C 184.02 169.10 183.29 170.41 183.65 171.67 Z M 183.93 172.63 L 184.21 173.61 C 184.56 174.86 185.87 175.59 187.12 175.23 C 188.38 174.87 189.10 173.56 188.75 172.31 L 188.47 171.33 C 188.11 170.08 186.80 169.35 185.55 169.71 C 184.29 170.07 183.57 171.38 183.93 172.63 Z M 184.21 173.60 L 184.49 174.58 C 184.84 175.83 186.15 176.56 187.40 176.20 C 188.65 175.84 189.38 174.54 189.02 173.29 L 188.74 172.31 C 188.39 171.06 187.08 170.33 185.83 170.69 C 184.58 171.05 183.85 172.35 184.21 173.60 Z M 184.49 174.58 L 184.77 175.55 C 185.12 176.80 186.42 177.53 187.67 177.17 C 188.92 176.82 189.65 175.52 189.29 174.27 L 189.02 173.29 C 188.66 172.04 187.36 171.32 186.11 171.67 C 184.86 172.02 184.14 173.32 184.49 174.58 Z M 184.77 175.54 L 185.04 176.51 C 185.39 177.76 186.69 178.49 187.94 178.14 C 189.18 177.79 189.91 176.49 189.56 175.24 L 189.29 174.27 C 188.94 173.02 187.65 172.29 186.40 172.64 C 185.15 173.00 184.42 174.29 184.77 175.54 Z M 185.04 176.50 L 185.30 177.46 C 185.65 178.71 186.94 179.44 188.19 179.10 C 189.44 178.75 190.17 177.46 189.83 176.21 L 189.56 175.25 C 189.22 174.00 187.92 173.27 186.68 173.61 C 185.43 173.96 184.69 175.25 185.04 176.50 Z M 185.31 177.45 L 185.56 178.40 C 185.90 179.64 187.19 180.38 188.44 180.04 C 189.68 179.70 190.42 178.42 190.08 177.17 L 189.83 176.22 C 189.49 174.97 188.20 174.24 186.95 174.57 C 185.70 174.91 184.97 176.20 185.31 177.45 Z M 185.56 178.38 L 185.81 179.33 C 186.15 180.58 187.43 181.32 188.67 180.99 C 189.92 180.66 190.67 179.38 190.33 178.13 L 190.08 177.18 C 189.75 175.94 188.47 175.19 187.22 175.52 C 185.98 175.85 185.23 177.13 185.56 178.38 Z M 185.82 179.31 L 186.07 180.31 C 186.39 181.56 187.67 182.31 188.91 181.98 C 190.16 181.66 190.91 180.39 190.59 179.14 L 190.33 178.15 C 190.01 176.90 188.74 176.15 187.49 176.47 C 186.24 176.79 185.49 178.07 185.82 179.31 Z M 186.07 180.29 L 186.32 181.27 C 186.63 182.52 187.90 183.28 189.15 182.96 C 190.39 182.65 191.15 181.38 190.84 180.14 L 190.59 179.16 C 190.27 177.91 189.01 177.15 187.76 177.47 C 186.52 177.78 185.76 179.05 186.07 180.29 Z M 186.32 181.26 L 186.56 182.23 C 186.87 183.48 188.13 184.24 189.38 183.93 C 190.62 183.62 191.38 182.36 191.07 181.12 L 190.83 180.15 C 190.52 178.90 189.26 178.14 188.02 178.45 C 186.77 178.76 186.01 180.02 186.32 181.26 Z M 186.57 182.23 L 186.80 183.19 C 187.11 184.43 188.37 185.19 189.61 184.89 C 190.85 184.58 191.61 183.33 191.30 182.08 L 191.07 181.12 C 190.76 179.88 189.51 179.12 188.26 179.42 C 187.02 179.73 186.26 180.99 186.57 182.23 Z M 186.81 183.19 L 187.05 184.15 C 187.35 185.38 188.60 186.14 189.84 185.84 C 191.08 185.53 191.84 184.28 191.53 183.04 L 191.30 182.08 C 190.99 180.84 189.74 180.09 188.50 180.39 C 187.26 180.70 186.50 181.95 186.81 183.19 Z M 187.05 184.15 L 187.29 185.11 C 187.60 186.34 188.85 187.09 190.08 186.79 C 191.32 186.48 192.07 185.23 191.77 183.99 L 191.53 183.04 C 191.22 181.80 189.97 181.05 188.73 181.35 C 187.50 181.66 186.74 182.91 187.05 184.15 Z M 187.30 185.11 L 187.56 186.14 C 187.87 187.37 189.12 188.12 190.35 187.81 C 191.58 187.50 192.33 186.25 192.02 185.02 L 191.76 183.99 C 191.45 182.75 190.20 182.01 188.96 182.32 C 187.73 182.63 186.99 183.88 187.30 185.11 Z M 187.56 186.15 L 187.83 187.17 C 188.14 188.39 189.39 189.13 190.62 188.82 C 191.84 188.51 192.59 187.26 192.27 186.03 L 192.01 185.01 C 191.70 183.78 190.45 183.04 189.22 183.36 C 187.99 183.67 187.25 184.92 187.56 186.15 Z M 187.83 187.17 L 188.09 188.16 C 188.40 189.39 189.65 190.12 190.88 189.81 C 192.10 189.49 192.84 188.24 192.52 187.02 L 192.26 186.02 C 191.95 184.80 190.70 184.06 189.48 184.38 C 188.25 184.70 187.52 185.94 187.83 187.17 Z M 188.09 188.16 L 188.34 189.12 C 188.66 190.34 189.91 191.07 191.13 190.76 C 192.35 190.44 193.08 189.19 192.76 187.97 L 192.51 187.02 C 192.20 185.80 190.95 185.06 189.73 185.38 C 188.51 185.70 187.78 186.94 188.09 188.16 Z M 188.35 189.12 L 188.58 190.03 C 188.90 191.25 190.14 191.98 191.36 191.66 C 192.58 191.34 193.31 190.10 192.99 188.88 L 192.76 187.97 C 192.44 186.76 191.20 186.03 189.98 186.34 C 188.76 186.66 188.03 187.90 188.35 189.12 Z M 188.59 190.02 L 188.82 190.93 C 189.14 192.14 190.38 192.87 191.59 192.56 C 192.80 192.24 193.53 191.00 193.22 189.79 L 192.99 188.89 C 192.67 187.67 191.44 186.94 190.22 187.26 C 189.01 187.57 188.28 188.81 188.59 190.02 Z M 188.83 190.92 L 189.07 191.85 C 189.38 193.06 190.61 193.79 191.82 193.48 C 193.03 193.16 193.76 191.93 193.45 190.72 L 193.22 189.79 C 192.90 188.58 191.67 187.85 190.46 188.16 C 189.25 188.48 188.52 189.71 188.83 190.92 Z M 189.07 191.85 L 189.31 192.75 C 189.62 193.96 190.85 194.69 192.06 194.38 C 193.27 194.06 193.99 192.83 193.68 191.62 L 193.45 190.72 C 193.13 189.51 191.90 188.78 190.70 189.10 C 189.49 189.41 188.76 190.64 189.07 191.85 Z M 189.32 192.76 L 189.56 193.70 C 189.88 194.90 191.11 195.62 192.31 195.31 C 193.51 194.99 194.23 193.76 193.92 192.56 L 193.67 191.62 C 193.36 190.42 192.13 189.70 190.92 190.01 C 189.72 190.33 189.00 191.56 189.32 192.76 Z M 189.57 193.71 L 189.85 194.73 C 190.17 195.93 191.40 196.64 192.59 196.32 C 193.79 196.00 194.50 194.77 194.18 193.57 L 193.91 192.55 C 193.59 191.35 192.36 190.64 191.16 190.96 C 189.96 191.28 189.25 192.51 189.57 193.71 Z M 189.86 194.74 L 190.13 195.75 C 190.46 196.94 191.69 197.64 192.88 197.31 C 194.07 196.99 194.77 195.76 194.45 194.56 L 194.17 193.56 C 193.85 192.37 192.62 191.67 191.42 191.99 C 190.23 192.32 189.53 193.55 189.86 194.74 Z M 190.14 195.75 L 190.40 196.70 C 190.73 197.88 191.96 198.58 193.15 198.25 C 194.33 197.92 195.03 196.69 194.70 195.50 L 194.44 194.56 C 194.11 193.37 192.88 192.68 191.69 193.00 C 190.50 193.33 189.81 194.56 190.14 195.75 Z M 190.41 196.70 L 190.69 197.69 C 191.02 198.87 192.24 199.57 193.43 199.24 C 194.61 198.91 195.30 197.68 194.97 196.50 L 194.69 195.50 C 194.36 194.32 193.14 193.63 191.95 193.96 C 190.77 194.29 190.08 195.52 190.41 196.70 Z M 190.69 197.69 L 190.98 198.70 C 191.31 199.88 192.53 200.57 193.71 200.24 C 194.88 199.91 195.57 198.69 195.24 197.51 L 194.96 196.50 C 194.63 195.32 193.41 194.63 192.23 194.96 C 191.05 195.29 190.37 196.51 190.69 197.69 Z M 190.98 198.70 L 191.26 199.70 C 191.59 200.88 192.80 201.56 193.98 201.24 C 195.15 200.91 195.84 199.70 195.52 198.52 L 195.24 197.52 C 194.91 196.34 193.70 195.65 192.52 195.98 C 191.35 196.31 190.66 197.52 190.98 198.70 Z M 191.27 199.69 L 191.53 200.65 C 191.85 201.83 193.06 202.52 194.23 202.20 C 195.40 201.88 196.10 200.67 195.77 199.49 L 195.51 198.53 C 195.19 197.36 193.98 196.67 192.81 196.99 C 191.64 197.31 190.95 198.52 191.27 199.69 Z M 191.54 200.64 L 191.78 201.57 C 192.10 202.74 193.30 203.43 194.47 203.12 C 195.64 202.81 196.33 201.61 196.02 200.44 L 195.77 199.51 C 195.46 198.34 194.26 197.64 193.09 197.96 C 191.92 198.27 191.22 199.47 191.54 200.64 Z M 191.80 201.51 L 192.12 202.81 C 192.40 203.96 193.57 204.68 194.73 204.39 C 195.89 204.11 196.60 202.94 196.31 201.78 L 196.00 200.49 C 195.72 199.33 194.55 198.62 193.39 198.90 C 192.23 199.18 191.52 200.35 191.80 201.51 Z M 192.13 202.59 L 192.27 203.63 C 192.43 204.78 193.50 205.58 194.66 205.42 C 195.81 205.26 196.61 204.19 196.45 203.04 L 196.30 202.00 C 196.14 200.85 195.07 200.04 193.92 200.20 C 192.77 200.37 191.96 201.44 192.13 202.59 Z M 192.32 203.09 L 192.22 203.89 C 192.09 205.02 192.90 206.04 194.03 206.17 C 195.16 206.30 196.18 205.49 196.32 204.36 L 196.41 203.57 C 196.54 202.44 195.73 201.42 194.60 201.28 C 193.47 201.15 192.45 201.96 192.32 203.09 Z M 192.63 202.97 L 192.23 203.53 C 191.59 204.43 191.81 205.68 192.71 206.32 C 193.62 206.96 194.87 206.75 195.51 205.85 L 195.91 205.28 C 196.55 204.38 196.33 203.13 195.43 202.49 C 194.52 201.85 193.27 202.06 192.63 202.97 Z M 193.01 202.96 L 192.29 203.32 C 191.34 203.79 190.95 204.95 191.42 205.91 C 191.90 206.86 193.06 207.25 194.02 206.77 L 194.73 206.42 C 195.69 205.94 196.08 204.78 195.60 203.82 C 195.12 202.87 193.96 202.48 193.01 202.96 Z M 192.76 203.24 L 191.80 203.46 C 190.80 203.67 190.17 204.66 190.39 205.65 C 190.61 206.65 191.59 207.28 192.59 207.06 L 193.55 206.85 C 194.55 206.63 195.17 205.64 194.96 204.65 C 194.74 203.65 193.75 203.02 192.76 203.24 Z M 192.00 203.51 L 190.89 203.63 C 189.92 203.73 189.23 204.60 189.33 205.56 C 189.43 206.53 190.30 207.23 191.27 207.12 L 192.38 207.00 C 193.34 206.90 194.04 206.03 193.94 205.07 C 193.84 204.10 192.97 203.41 192.00 203.51 Z M 190.96 203.70 L 190.14 203.76 C 189.22 203.82 188.52 204.63 188.58 205.55 C 188.65 206.48 189.45 207.18 190.38 207.11 L 191.20 207.06 C 192.12 206.99 192.82 206.19 192.76 205.26 C 192.69 204.33 191.89 203.63 190.96 203.70 Z"
      fill="black"
      fill-rule="nonzero" /><path d="M 135.19 166.74 L 133.85 167.11 C 132.70 167.43 132.03 168.62 132.36 169.77 C 132.68 170.92 133.87 171.59 135.02 171.27 L 136.35 170.89 C 137.50 170.57 138.17 169.38 137.85 168.23 C 137.52 167.08 136.33 166.41 135.19 166.74 Z M 133.76 167.01 L 132.68 167.35 C 131.48 167.73 130.81 169.00 131.18 170.20 C 131.55 171.40 132.83 172.07 134.03 171.70 L 135.11 171.36 C 136.31 170.99 136.98 169.71 136.61 168.51 C 136.23 167.31 134.96 166.64 133.76 167.01 Z M 132.35 167.35 L 131.78 167.61 C 130.57 168.17 130.05 169.59 130.60 170.79 C 131.15 171.99 132.57 172.52 133.78 171.97 L 134.35 171.70 C 135.56 171.15 136.08 169.73 135.53 168.53 C 134.98 167.32 133.56 166.80 132.35 167.35 Z M 131.21 171.71 L 131.43 171.89 C 132.49 172.75 134.05 172.59 134.91 171.53 C 135.78 170.47 135.62 168.91 134.56 168.05 L 134.34 167.87 C 133.28 167.00 131.72 167.16 130.85 168.23 C 129.99 169.29 130.15 170.85 131.21 171.71 Z M 132.85 172.48 L 133.87 172.53 C 135.25 172.61 136.44 171.55 136.52 170.16 C 136.59 168.78 135.53 167.59 134.15 167.51 L 133.13 167.46 C 131.75 167.38 130.56 168.44 130.48 169.83 C 130.41 171.21 131.47 172.40 132.85 172.48 Z M 134.06 172.56 L 135.41 172.53 C 136.82 172.50 137.93 171.34 137.90 169.94 C 137.87 168.54 136.71 167.43 135.30 167.46 L 133.95 167.49 C 132.55 167.52 131.44 168.68 131.47 170.08 C 131.50 171.48 132.66 172.59 134.06 172.56 Z M 135.50 172.54 L 136.50 172.49 C 137.91 172.41 138.99 171.21 138.91 169.80 C 138.83 168.39 137.63 167.31 136.22 167.39 L 135.22 167.45 C 133.81 167.52 132.73 168.73 132.81 170.13 C 132.89 171.54 134.09 172.62 135.50 172.54 Z M 136.58 172.48 L 137.56 172.40 C 138.97 172.28 140.01 171.04 139.89 169.63 C 139.77 168.23 138.53 167.19 137.12 167.31 L 136.14 167.39 C 134.74 167.52 133.70 168.75 133.82 170.16 C 133.94 171.56 135.18 172.60 136.58 172.48 Z M 137.65 172.39 L 138.64 172.27 C 140.04 172.10 141.04 170.83 140.87 169.42 C 140.70 168.02 139.42 167.03 138.02 167.20 L 137.03 167.32 C 135.63 167.49 134.64 168.76 134.81 170.16 C 134.98 171.56 136.25 172.56 137.65 172.39 Z M 138.73 172.26 L 139.70 172.11 C 141.10 171.89 142.05 170.58 141.83 169.18 C 141.61 167.79 140.30 166.83 138.91 167.05 L 137.93 167.21 C 136.54 167.43 135.58 168.74 135.80 170.13 C 136.02 171.53 137.33 172.48 138.73 172.26 Z M 139.77 172.09 L 140.71 171.92 C 142.10 171.66 143.01 170.33 142.76 168.94 C 142.50 167.55 141.16 166.63 139.78 166.89 L 138.84 167.07 C 137.45 167.32 136.53 168.66 136.79 170.05 C 137.05 171.44 138.38 172.35 139.77 172.09 Z M 140.75 171.91 L 141.72 171.72 C 143.11 171.43 144.00 170.09 143.72 168.70 C 143.44 167.32 142.09 166.42 140.71 166.70 L 139.73 166.90 C 138.35 167.18 137.45 168.53 137.74 169.91 C 138.02 171.30 139.37 172.19 140.75 171.91 Z M 141.74 171.71 L 142.75 171.50 C 144.14 171.21 145.02 169.85 144.73 168.47 C 144.44 167.09 143.08 166.20 141.70 166.49 L 140.69 166.71 C 139.31 167.00 138.42 168.35 138.71 169.74 C 139.01 171.12 140.36 172.00 141.74 171.71 Z M 142.76 171.50 L 143.77 171.28 C 145.16 170.99 146.04 169.63 145.75 168.25 C 145.45 166.87 144.10 165.99 142.71 166.28 L 141.70 166.49 C 140.31 166.79 139.43 168.14 139.72 169.53 C 140.02 170.91 141.37 171.79 142.76 171.50 Z M 143.76 171.28 L 144.71 171.09 C 146.09 170.80 146.98 169.45 146.69 168.06 C 146.41 166.68 145.05 165.79 143.67 166.08 L 142.72 166.28 C 141.34 166.56 140.45 167.92 140.74 169.30 C 141.03 170.68 142.38 171.57 143.76 171.28 Z M 144.70 171.09 L 145.67 170.89 C 147.05 170.61 147.94 169.26 147.66 167.87 C 147.38 166.49 146.02 165.60 144.64 165.88 L 143.68 166.08 C 142.29 166.36 141.40 167.71 141.68 169.10 C 141.97 170.48 143.32 171.37 144.70 171.09 Z M 145.67 170.89 L 146.65 170.69 C 148.04 170.41 148.93 169.06 148.65 167.67 C 148.36 166.29 147.01 165.40 145.63 165.68 L 144.64 165.88 C 143.26 166.16 142.37 167.51 142.65 168.90 C 142.93 170.28 144.28 171.17 145.67 170.89 Z M 146.65 170.69 L 147.66 170.48 C 149.04 170.20 149.93 168.85 149.65 167.47 C 149.37 166.08 148.02 165.19 146.64 165.47 L 145.63 165.68 C 144.25 165.96 143.35 167.31 143.64 168.70 C 143.92 170.08 145.27 170.97 146.65 170.69 Z M 147.66 170.48 L 148.64 170.28 C 150.02 170.00 150.91 168.64 150.62 167.26 C 150.34 165.88 148.99 164.99 147.61 165.28 L 146.63 165.48 C 145.25 165.76 144.36 167.11 144.64 168.50 C 144.93 169.88 146.28 170.77 147.66 170.48 Z M 148.64 170.28 L 149.57 170.08 C 150.95 169.80 151.84 168.45 151.55 167.07 C 151.27 165.69 149.91 164.80 148.53 165.09 L 147.60 165.28 C 146.22 165.57 145.34 166.92 145.62 168.30 C 145.91 169.68 147.26 170.56 148.64 170.28 Z M 149.57 170.08 L 150.52 169.88 C 151.90 169.60 152.79 168.25 152.50 166.87 C 152.22 165.50 150.87 164.61 149.49 164.89 L 148.54 165.09 C 147.16 165.37 146.27 166.72 146.56 168.10 C 146.84 169.48 148.19 170.37 149.57 170.08 Z M 150.51 169.88 L 151.50 169.68 C 152.87 169.40 153.76 168.06 153.48 166.68 C 153.20 165.31 151.86 164.42 150.48 164.70 L 149.50 164.90 C 148.12 165.17 147.23 166.52 147.51 167.90 C 147.79 169.27 149.14 170.16 150.51 169.88 Z M 151.48 169.68 L 152.50 169.48 C 153.88 169.21 154.77 167.87 154.50 166.49 C 154.23 165.12 152.89 164.22 151.51 164.49 L 150.50 164.70 C 149.12 164.97 148.23 166.31 148.50 167.68 C 148.77 169.06 150.11 169.95 151.48 169.68 Z M 152.49 169.48 L 153.53 169.28 C 154.91 169.01 155.81 167.68 155.55 166.31 C 155.28 164.93 153.95 164.03 152.58 164.30 L 151.53 164.50 C 150.16 164.76 149.25 166.09 149.52 167.46 C 149.78 168.84 151.11 169.74 152.49 169.48 Z M 153.52 169.27 L 154.54 169.08 C 155.92 168.83 156.82 167.51 156.57 166.14 C 156.32 164.76 155.00 163.85 153.62 164.11 L 152.60 164.30 C 151.22 164.55 150.31 165.87 150.57 167.25 C 150.82 168.62 152.14 169.53 153.52 169.27 Z M 154.53 169.08 L 155.56 168.89 C 156.93 168.65 157.85 167.34 157.60 165.97 C 157.36 164.60 156.05 163.68 154.67 163.93 L 153.64 164.11 C 152.27 164.36 151.36 165.67 151.60 167.04 C 151.85 168.41 153.16 169.32 154.53 169.08 Z M 155.55 168.89 L 156.57 168.71 C 157.94 168.47 158.86 167.17 158.62 165.80 C 158.38 164.43 157.08 163.52 155.71 163.76 L 154.69 163.94 C 153.32 164.17 152.41 165.48 152.64 166.84 C 152.88 168.21 154.18 169.12 155.55 168.89 Z M 156.56 168.70 L 157.55 168.53 C 158.91 168.30 159.83 167.01 159.59 165.64 C 159.36 164.28 158.07 163.36 156.70 163.60 L 155.72 163.76 C 154.36 164.00 153.44 165.29 153.67 166.65 C 153.91 168.02 155.20 168.93 156.56 168.70 Z M 157.54 168.53 L 158.45 168.37 C 159.81 168.15 160.73 166.86 160.50 165.50 C 160.28 164.14 158.99 163.22 157.63 163.45 L 156.71 163.60 C 155.35 163.83 154.44 165.12 154.66 166.48 C 154.89 167.84 156.18 168.75 157.54 168.53 Z M 158.44 168.36 L 159.48 168.19 C 160.83 167.97 161.75 166.69 161.53 165.34 C 161.31 163.99 160.03 163.07 158.68 163.29 L 157.64 163.46 C 156.29 163.68 155.37 164.96 155.59 166.31 C 155.81 167.66 157.09 168.58 158.44 168.36 Z M 159.46 168.17 L 160.54 168.00 C 161.88 167.79 162.79 166.53 162.58 165.19 C 162.37 163.84 161.11 162.93 159.77 163.14 L 158.69 163.31 C 157.35 163.52 156.43 164.78 156.65 166.13 C 156.86 167.47 158.12 168.39 159.46 168.17 Z M 160.52 167.98 L 161.46 167.84 C 162.78 167.63 163.70 166.39 163.49 165.06 C 163.29 163.73 162.05 162.82 160.72 163.02 L 159.78 163.16 C 158.45 163.37 157.54 164.61 157.74 165.94 C 157.95 167.27 159.19 168.18 160.52 167.98 Z M 161.44 167.81 L 162.31 167.68 C 163.62 167.49 164.53 166.26 164.34 164.95 C 164.14 163.63 162.92 162.72 161.60 162.92 L 160.73 163.05 C 159.42 163.24 158.51 164.47 158.70 165.78 C 158.90 167.10 160.12 168.01 161.44 167.81 Z M 162.30 167.66 L 163.25 167.52 C 164.56 167.33 165.46 166.12 165.27 164.82 C 165.08 163.51 163.87 162.61 162.57 162.80 L 161.61 162.94 C 160.31 163.13 159.40 164.34 159.59 165.64 C 159.78 166.95 160.99 167.85 162.30 167.66 Z M 163.24 167.50 L 164.23 167.36 C 165.52 167.18 166.42 165.99 166.24 164.70 C 166.06 163.40 164.87 162.50 163.57 162.68 L 162.58 162.82 C 161.29 163.00 160.39 164.20 160.57 165.49 C 160.75 166.78 161.95 167.68 163.24 167.50 Z M 164.20 167.34 L 165.20 167.21 C 166.48 167.05 167.39 165.87 167.22 164.59 C 167.05 163.31 165.88 162.40 164.59 162.57 L 163.60 162.70 C 162.32 162.87 161.41 164.04 161.58 165.33 C 161.75 166.61 162.92 167.51 164.20 167.34 Z M 165.17 167.19 L 166.17 167.08 C 167.44 166.93 168.35 165.77 168.20 164.50 C 168.05 163.23 166.89 162.32 165.62 162.47 L 164.63 162.59 C 163.35 162.74 162.44 163.89 162.59 165.16 C 162.74 166.44 163.90 167.34 165.17 167.19 Z M 166.14 167.06 L 167.13 166.95 C 168.39 166.82 169.30 165.69 169.17 164.43 C 169.04 163.17 167.91 162.25 166.65 162.39 L 165.65 162.49 C 164.39 162.63 163.48 163.76 163.61 165.02 C 163.75 166.28 164.88 167.19 166.14 167.06 Z M 167.11 166.93 L 168.11 166.83 C 169.35 166.71 170.26 165.60 170.14 164.35 C 170.02 163.10 168.91 162.19 167.66 162.31 L 166.67 162.41 C 165.42 162.53 164.51 163.64 164.63 164.89 C 164.75 166.14 165.86 167.05 167.11 166.93 Z M 168.10 166.81 L 169.05 166.71 C 170.28 166.60 171.19 165.50 171.07 164.27 C 170.95 163.03 169.86 162.13 168.62 162.25 L 167.67 162.34 C 166.44 162.45 165.53 163.55 165.65 164.78 C 165.77 166.02 166.86 166.92 168.10 166.81 Z M 169.04 166.69 L 169.93 166.61 C 171.15 166.50 172.05 165.41 171.93 164.19 C 171.82 162.97 170.74 162.07 169.52 162.19 L 168.63 162.27 C 167.41 162.38 166.51 163.46 166.63 164.69 C 166.74 165.91 167.82 166.80 169.04 166.69 Z M 169.91 166.59 L 170.87 166.50 C 172.08 166.40 172.98 165.34 172.87 164.13 C 172.77 162.92 171.71 162.02 170.50 162.13 L 169.54 162.21 C 168.33 162.31 167.43 163.38 167.54 164.59 C 167.64 165.79 168.70 166.69 169.91 166.59 Z M 170.85 166.48 L 171.94 166.40 C 173.14 166.31 174.03 165.27 173.94 164.07 C 173.85 162.87 172.81 161.98 171.61 162.07 L 170.52 162.15 C 169.33 162.24 168.43 163.28 168.52 164.48 C 168.61 165.68 169.65 166.57 170.85 166.48 Z M 171.92 166.38 L 172.94 166.31 C 174.13 166.23 175.03 165.21 174.95 164.02 C 174.87 162.84 173.85 161.94 172.66 162.02 L 171.64 162.09 C 170.45 162.16 169.55 163.19 169.63 164.37 C 169.71 165.56 170.73 166.46 171.92 166.38 Z M 172.93 166.29 L 173.88 166.24 C 175.06 166.17 175.96 165.16 175.89 163.99 C 175.82 162.81 174.81 161.91 173.64 161.98 L 172.68 162.04 C 171.51 162.11 170.61 163.11 170.68 164.29 C 170.74 165.46 171.75 166.36 172.93 166.29 Z M 173.87 166.22 L 174.88 166.17 C 176.05 166.11 176.94 165.11 176.88 163.95 C 176.82 162.78 175.83 161.89 174.66 161.95 L 173.65 162.00 C 172.49 162.06 171.59 163.05 171.65 164.22 C 171.71 165.39 172.70 166.28 173.87 166.22 Z M 174.87 166.15 L 175.91 166.10 C 177.06 166.05 177.96 165.07 177.91 163.91 C 177.85 162.76 176.87 161.86 175.72 161.92 L 174.68 161.96 C 173.52 162.02 172.63 163.00 172.68 164.15 C 172.73 165.31 173.71 166.20 174.87 166.15 Z M 175.89 166.09 L 176.93 166.05 C 178.08 166.00 178.97 165.04 178.93 163.89 C 178.88 162.74 177.92 161.85 176.77 161.89 L 175.73 161.93 C 174.58 161.98 173.69 162.94 173.74 164.09 C 173.78 165.24 174.75 166.13 175.89 166.09 Z M 176.91 166.03 L 177.95 166.00 C 179.09 165.96 179.98 165.01 179.94 163.87 C 179.91 162.74 178.96 161.84 177.82 161.88 L 176.79 161.91 C 175.65 161.95 174.76 162.90 174.79 164.03 C 174.83 165.17 175.78 166.06 176.91 166.03 Z M 177.93 165.96 L 179.04 165.94 C 180.16 165.92 181.04 164.99 181.02 163.87 C 181.00 162.75 180.07 161.86 178.95 161.89 L 177.84 161.91 C 176.72 161.93 175.83 162.86 175.86 163.98 C 175.88 165.10 176.81 165.99 177.93 165.96 Z M 179.02 165.90 L 180.06 165.89 C 181.16 165.87 182.03 164.97 182.02 163.87 C 182.01 162.78 181.10 161.90 180.01 161.91 L 178.97 161.93 C 177.87 161.94 176.99 162.84 177.01 163.94 C 177.02 165.04 177.92 165.91 179.02 165.90 Z M 180.05 165.85 L 181.02 165.84 C 182.10 165.83 182.96 164.96 182.96 163.88 C 182.95 162.81 182.07 161.94 181.00 161.95 L 180.02 161.95 C 178.95 161.96 178.08 162.84 178.09 163.91 C 178.09 164.99 178.97 165.85 180.05 165.85 Z M 181.01 165.80 L 181.93 165.80 C 182.98 165.80 183.83 164.94 183.83 163.89 C 183.83 162.83 182.97 161.98 181.92 161.98 L 181.01 161.99 C 179.95 161.99 179.10 162.84 179.10 163.90 C 179.10 164.95 179.96 165.80 181.01 165.80 Z M 181.92 165.76 L 182.90 165.76 C 183.93 165.76 184.76 164.92 184.77 163.89 C 184.77 162.86 183.93 162.03 182.90 162.03 L 181.93 162.02 C 180.89 162.02 180.06 162.86 180.06 163.89 C 180.06 164.92 180.89 165.76 181.92 165.76 Z M 182.87 165.72 L 183.89 165.74 C 184.90 165.75 185.73 164.95 185.75 163.94 C 185.77 162.93 184.96 162.10 183.95 162.08 L 182.93 162.07 C 181.92 162.05 181.09 162.85 181.07 163.86 C 181.06 164.87 181.86 165.70 182.87 165.72 Z M 183.80 165.69 L 184.78 165.76 C 185.76 165.82 186.61 165.08 186.68 164.09 C 186.74 163.11 186.00 162.26 185.02 162.19 L 184.04 162.13 C 183.06 162.06 182.21 162.81 182.14 163.79 C 182.07 164.77 182.82 165.63 183.80 165.69 Z M 184.63 165.70 L 185.58 165.85 C 186.54 165.99 187.43 165.34 187.57 164.38 C 187.72 163.43 187.06 162.54 186.11 162.39 L 185.16 162.25 C 184.21 162.10 183.31 162.76 183.17 163.71 C 183.02 164.66 183.68 165.56 184.63 165.70 Z M 185.42 165.78 L 186.35 166.02 C 187.26 166.26 188.20 165.71 188.44 164.79 C 188.68 163.88 188.13 162.94 187.21 162.70 L 186.28 162.46 C 185.36 162.22 184.43 162.77 184.19 163.69 C 183.95 164.60 184.50 165.54 185.42 165.78 Z M 186.22 165.96 L 187.16 166.28 C 188.04 166.59 189.00 166.13 189.31 165.24 C 189.62 164.36 189.15 163.40 188.27 163.09 L 187.34 162.77 C 186.45 162.46 185.49 162.93 185.18 163.81 C 184.88 164.69 185.34 165.65 186.22 165.96 Z M 187.09 166.23 L 188.03 166.61 C 188.88 166.96 189.86 166.55 190.20 165.70 C 190.55 164.84 190.13 163.87 189.28 163.53 L 188.34 163.14 C 187.49 162.80 186.52 163.21 186.17 164.06 C 185.83 164.92 186.24 165.89 187.09 166.23 Z M 188.01 166.58 L 188.84 166.94 C 189.68 167.30 190.64 166.91 191.00 166.08 C 191.36 165.25 190.98 164.28 190.14 163.92 L 189.31 163.56 C 188.47 163.20 187.51 163.59 187.15 164.42 C 186.79 165.25 187.17 166.22 188.01 166.58 Z"
      fill="black"
      fill-rule="nonzero" /><path d="M 121.44 105.96 L 120.71 106.45 C 119.56 107.22 119.26 108.77 120.02 109.92 C 120.79 111.07 122.35 111.38 123.50 110.61 L 124.23 110.12 C 125.38 109.35 125.69 107.80 124.92 106.65 C 124.15 105.50 122.59 105.19 121.44 105.96 Z M 120.54 106.57 L 119.81 107.15 C 118.73 108.02 118.56 109.60 119.42 110.68 C 120.29 111.76 121.86 111.93 122.95 111.07 L 123.67 110.48 C 124.75 109.62 124.93 108.04 124.06 106.96 C 123.20 105.88 121.62 105.71 120.54 106.57 Z M 119.54 107.40 L 118.82 108.17 C 117.88 109.18 117.93 110.77 118.94 111.72 C 119.95 112.66 121.54 112.61 122.49 111.60 L 123.21 110.83 C 124.16 109.81 124.11 108.22 123.09 107.28 C 122.08 106.33 120.49 106.38 119.54 107.40 Z M 118.59 108.45 L 117.98 109.32 C 117.19 110.47 117.48 112.03 118.62 112.82 C 119.76 113.61 121.33 113.33 122.12 112.19 L 122.72 111.31 C 123.51 110.17 123.23 108.61 122.09 107.82 C 120.95 107.02 119.38 107.31 118.59 108.45 Z M 117.86 109.53 L 117.40 110.33 C 116.72 111.55 117.16 113.08 118.37 113.76 C 119.58 114.44 121.11 114.01 121.79 112.79 L 122.24 111.99 C 122.92 110.77 122.49 109.24 121.28 108.56 C 120.07 107.88 118.54 108.31 117.86 109.53 Z M 117.34 110.45 L 116.90 111.35 C 116.28 112.59 116.79 114.10 118.04 114.72 C 119.28 115.33 120.79 114.82 121.41 113.58 L 121.85 112.68 C 122.47 111.44 121.96 109.93 120.71 109.31 C 119.47 108.69 117.96 109.20 117.34 110.45 Z M 116.86 111.42 L 116.43 112.37 C 115.85 113.64 116.41 115.13 117.68 115.70 C 118.94 116.28 120.43 115.72 121.01 114.46 L 121.44 113.51 C 122.02 112.24 121.46 110.75 120.20 110.17 C 118.93 109.60 117.44 110.16 116.86 111.42 Z M 116.41 112.41 L 115.99 113.38 C 115.44 114.66 116.03 116.14 117.30 116.69 C 118.58 117.24 120.06 116.66 120.61 115.38 L 121.03 114.41 C 121.58 113.14 120.99 111.66 119.72 111.11 C 118.44 110.55 116.96 111.14 116.41 112.41 Z M 115.99 113.40 L 115.58 114.35 C 115.04 115.63 115.64 117.10 116.92 117.64 C 118.20 118.19 119.67 117.59 120.22 116.31 L 120.62 115.36 C 121.16 114.08 120.56 112.61 119.28 112.07 C 118.00 111.52 116.53 112.12 115.99 113.40 Z M 115.59 114.34 L 115.15 115.38 C 114.60 116.66 115.19 118.13 116.47 118.68 C 117.75 119.22 119.22 118.63 119.77 117.35 L 120.21 116.31 C 120.75 115.04 120.16 113.56 118.89 113.02 C 117.61 112.47 116.13 113.07 115.59 114.34 Z M 115.16 115.37 L 114.74 116.35 C 114.19 117.62 114.77 119.09 116.04 119.64 C 117.31 120.19 118.78 119.61 119.33 118.34 L 119.75 117.36 C 120.30 116.09 119.72 114.62 118.45 114.07 C 117.18 113.52 115.71 114.10 115.16 115.37 Z M 114.75 116.35 L 114.35 117.26 C 113.80 118.52 114.38 119.99 115.65 120.54 C 116.91 121.09 118.38 120.51 118.93 119.24 L 119.32 118.34 C 119.87 117.07 119.29 115.61 118.03 115.06 C 116.76 114.51 115.30 115.09 114.75 116.35 Z M 114.36 117.26 L 113.99 118.11 C 113.45 119.37 114.03 120.83 115.29 121.37 C 116.54 121.92 118.01 121.34 118.55 120.08 L 118.92 119.24 C 119.46 117.98 118.89 116.52 117.63 115.97 C 116.37 115.43 114.91 116.01 114.36 117.26 Z M 114.00 118.12 L 113.64 118.97 C 113.10 120.23 113.68 121.68 114.94 122.22 C 116.19 122.75 117.65 122.17 118.18 120.91 L 118.55 120.07 C 119.08 118.81 118.50 117.36 117.25 116.82 C 115.99 116.29 114.54 116.87 114.00 118.12 Z M 113.65 119.00 L 113.25 119.98 C 112.73 121.22 113.32 122.66 114.57 123.17 C 115.81 123.69 117.24 123.10 117.76 121.86 L 118.17 120.88 C 118.69 119.64 118.10 118.20 116.85 117.69 C 115.60 117.17 114.17 117.76 113.65 119.00 Z M 113.27 120.02 L 112.90 120.94 C 112.41 122.17 113.01 123.57 114.24 124.07 C 115.47 124.57 116.88 123.97 117.37 122.73 L 117.74 121.81 C 118.24 120.58 117.64 119.18 116.40 118.68 C 115.17 118.19 113.77 118.78 113.27 120.02 Z M 112.92 120.98 L 112.58 121.86 C 112.11 123.09 112.72 124.46 113.94 124.93 C 115.16 125.40 116.54 124.80 117.01 123.57 L 117.35 122.69 C 117.82 121.47 117.22 120.09 115.99 119.62 C 114.77 119.15 113.40 119.76 112.92 120.98 Z M 112.61 121.90 L 112.27 122.80 C 111.82 124.01 112.44 125.35 113.65 125.80 C 114.86 126.25 116.20 125.64 116.65 124.43 L 116.98 123.53 C 117.43 122.33 116.82 120.98 115.61 120.53 C 114.40 120.08 113.06 120.70 112.61 121.90 Z M 112.30 122.83 L 111.97 123.74 C 111.54 124.94 112.15 126.25 113.34 126.69 C 114.53 127.12 115.85 126.51 116.28 125.32 L 116.62 124.40 C 117.05 123.21 116.44 121.89 115.25 121.46 C 114.06 121.02 112.74 121.64 112.30 122.83 Z M 112.01 123.76 L 111.66 124.70 C 111.23 125.87 111.83 127.17 113.00 127.60 C 114.18 128.03 115.47 127.43 115.90 126.26 L 116.25 125.31 C 116.68 124.14 116.07 122.84 114.90 122.41 C 113.73 121.98 112.44 122.58 112.01 123.76 Z M 111.71 124.70 L 111.35 125.66 C 110.92 126.80 111.50 128.08 112.64 128.51 C 113.79 128.94 115.07 128.36 115.50 127.22 L 115.86 126.26 C 116.29 125.11 115.71 123.83 114.56 123.40 C 113.41 122.97 112.14 123.56 111.71 124.70 Z M 111.39 125.66 L 111.04 126.56 C 110.61 127.68 111.17 128.94 112.29 129.37 C 113.41 129.80 114.67 129.24 115.10 128.12 L 115.45 127.22 C 115.88 126.10 115.32 124.84 114.20 124.41 C 113.08 123.98 111.82 124.53 111.39 125.66 Z M 111.08 126.58 L 110.72 127.51 C 110.30 128.61 110.85 129.85 111.94 130.27 C 113.04 130.69 114.28 130.15 114.70 129.05 L 115.06 128.11 C 115.49 127.01 114.94 125.77 113.84 125.35 C 112.74 124.93 111.51 125.48 111.08 126.58 Z M 110.75 127.54 L 110.39 128.50 C 109.98 129.58 110.53 130.79 111.61 131.20 C 112.69 131.60 113.90 131.06 114.31 129.98 L 114.67 129.02 C 115.08 127.94 114.53 126.73 113.45 126.32 C 112.37 125.91 111.16 126.46 110.75 127.54 Z M 110.43 128.54 L 110.08 129.50 C 109.69 130.56 110.24 131.74 111.30 132.12 C 112.36 132.51 113.54 131.96 113.92 130.90 L 114.27 129.94 C 114.66 128.87 114.11 127.70 113.05 127.31 C 111.99 126.93 110.81 127.48 110.43 128.54 Z M 110.12 129.55 L 109.79 130.50 C 109.43 131.54 109.98 132.67 111.02 133.03 C 112.06 133.39 113.19 132.84 113.55 131.80 L 113.88 130.85 C 114.24 129.81 113.69 128.68 112.65 128.32 C 111.61 127.96 110.48 128.51 110.12 129.55 Z M 109.85 130.54 L 109.53 131.49 C 109.19 132.50 109.74 133.59 110.75 133.92 C 111.76 134.26 112.85 133.71 113.18 132.70 L 113.50 131.75 C 113.84 130.75 113.29 129.66 112.28 129.32 C 111.27 128.98 110.18 129.53 109.85 130.54 Z M 109.59 131.52 L 109.28 132.47 C 108.96 133.45 109.50 134.50 110.48 134.82 C 111.45 135.13 112.50 134.60 112.82 133.62 L 113.13 132.67 C 113.45 131.69 112.91 130.64 111.93 130.32 C 110.95 130.01 109.90 130.54 109.59 131.52 Z M 109.33 132.49 L 109.11 133.18 C 108.80 134.13 109.33 135.15 110.28 135.45 C 111.23 135.76 112.24 135.24 112.55 134.29 L 112.77 133.60 C 113.07 132.65 112.55 131.63 111.60 131.32 C 110.65 131.02 109.63 131.54 109.33 132.49 Z"
      fill="black"
      fill-rule="nonzero" /></svg>