<svg xmlns="http://www.w3.org/2000/svg" version="1.0" width="937.000000pt" height="937.000000pt" viewBox="0 0 937.000000 937.000000" preserveAspectRatio="xMidYMid meet">
  <defs/>
  <path fill="#000000" d="M462.5,295.7 C451.3,296.2 417.2,299.8 393.5,303 C385.3,304.1 374.3,305 369.2,305 C363,305 358.9,305.5 357.1,306.5 C352.2,309 351.6,313.7 355.6,317.7 L358.2,320.3 L371.4,319.6 C378.6,319.3 390.8,318.1 398.5,317 C412.9,314.9 441.8,311.6 455,310.4 L462.5,309.8 L455,315 C442.4,323.8 431.9,332.4 423.2,341 C403.8,360.3 398.4,374.8 399.2,405.4 L399.7,421.5 L402,428.4 C407.1,443.3 416,453.6 427.7,458 C432.2,459.7 444.5,461.7 452.2,462 C452.6,462 448,466.5 442,472.1 C417.7,494.3 408.1,510.8 402,540.8 C396.2,569.3 399.1,586.6 412.7,605.8 C422.1,619.2 426.8,624 450.4,643.8 C453.2,646.2 458.8,651 462.8,654.3 C466.8,657.7 474.9,665.7 480.7,672 C492.9,685.2 497,692.4 497,700.6 L497,705.6 L494,709.6 C490.4,714.4 490.3,716.9 493.4,719.9 C496.7,723.1 500,722.1 505.4,716.5 C511.2,710.6 512.7,705.2 511.2,695.8 C509.5,684.5 505.6,678 491.5,662.8 C484.6,655.4 475.3,646.2 470.7,642.4 C454.7,629.1 441.4,617.4 435.8,611.7 C428.7,604.6 418.9,590 416.1,582.6 C411.1,569.1 415.1,537.6 424.4,517.4 C428.7,508.3 432.5,502.6 440.3,494.3 C449.2,484.8 477.3,460.4 482.3,457.9 C496.1,450.9 501.1,443.7 496,438.2 C491.9,433.8 484.2,435.7 474.7,443.4 L469,448 L454.1,448 L439.1,448 L433.7,446 C424.2,442.4 418,434.3 414.4,420.7 C412.5,413.7 412.6,393.8 414.5,384.2 C417.1,371.3 421.9,363 433,352 C447.8,337.2 471.8,320.1 487.5,313 C496.1,309.1 498.2,306.4 496.7,300.7 C495.3,295.3 488.9,294.4 462.5,295.7 Z"/>
</svg>

