<svg xmlns="http://www.w3.org/2000/svg" width="300" height="300" viewBox="0 0 300 300">
<path d="M 135.07 157.45 L 134.12 157.89 C 133.11 158.36 132.67 159.56 133.14 160.57 C 133.61 161.58 134.80 162.02 135.81 161.55 L 136.77 161.10 C 137.78 160.64 138.22 159.44 137.75 158.43 C 137.28 157.42 136.08 156.98 135.07 157.45 Z M 134.06 157.92 L 133.14 158.38 C 132.14 158.88 131.74 160.10 132.24 161.09 C 132.75 162.09 133.96 162.49 134.96 161.99 L 135.88 161.52 C 136.87 161.02 137.27 159.81 136.77 158.81 C 136.27 157.81 135.05 157.41 134.06 157.92 Z M 133.01 158.44 L 132.17 158.95 C 131.21 159.52 130.90 160.76 131.47 161.72 C 132.04 162.68 133.28 162.99 134.24 162.42 L 135.08 161.92 C 136.04 161.35 136.36 160.11 135.79 159.15 C 135.21 158.19 133.97 157.87 133.01 158.44 Z M 131.97 159.08 L 131.22 159.65 C 130.34 160.33 130.17 161.61 130.86 162.49 C 131.54 163.38 132.81 163.55 133.70 162.86 L 134.44 162.29 C 135.33 161.61 135.49 160.33 134.81 159.45 C 134.13 158.56 132.86 158.39 131.97 159.08 Z M 130.96 159.89 L 130.28 160.63 C 129.52 161.46 129.59 162.75 130.42 163.51 C 131.25 164.26 132.54 164.20 133.29 163.37 L 133.97 162.63 C 134.72 161.79 134.66 160.51 133.83 159.75 C 133.00 159.00 131.71 159.06 130.96 159.89 Z M 130.05 160.92 L 129.53 161.75 C 128.93 162.71 129.22 163.97 130.18 164.57 C 131.14 165.17 132.40 164.88 133.00 163.92 L 133.52 163.08 C 134.12 162.13 133.83 160.86 132.87 160.27 C 131.91 159.67 130.65 159.96 130.05 160.92 Z M 129.38 162.00 L 128.98 162.91 C 128.52 163.95 128.99 165.17 130.03 165.63 C 131.06 166.09 132.28 165.62 132.74 164.58 L 133.14 163.67 C 133.61 162.63 133.14 161.41 132.10 160.95 C 131.06 160.49 129.85 160.96 129.38 162.00 Z M 128.90 163.09 L 128.60 163.98 C 128.24 165.06 128.82 166.23 129.91 166.60 C 130.99 166.96 132.16 166.37 132.52 165.29 L 132.82 164.40 C 133.18 163.32 132.60 162.15 131.52 161.79 C 130.43 161.43 129.26 162.01 128.90 163.09 Z M 128.55 164.11 L 128.31 165.05 C 128.02 166.16 128.69 167.29 129.80 167.58 C 130.91 167.87 132.04 167.21 132.33 166.10 L 132.57 165.16 C 132.86 164.05 132.20 162.92 131.09 162.63 C 129.98 162.34 128.84 163.00 128.55 164.11 Z M 128.27 165.16 L 128.07 166.16 C 127.84 167.29 128.57 168.39 129.70 168.62 C 130.83 168.85 131.93 168.12 132.16 167.00 L 132.36 165.99 C 132.59 164.86 131.86 163.76 130.73 163.53 C 129.61 163.30 128.50 164.03 128.27 165.16 Z M 128.05 166.24 L 127.88 167.28 C 127.69 168.42 128.47 169.50 129.61 169.68 C 130.75 169.87 131.83 169.09 132.01 167.95 L 132.18 166.91 C 132.37 165.77 131.59 164.70 130.45 164.51 C 129.31 164.33 128.23 165.10 128.05 166.24 Z M 127.86 167.34 L 127.74 168.24 C 127.59 169.39 128.39 170.45 129.54 170.61 C 130.69 170.76 131.75 169.95 131.91 168.80 L 132.03 167.90 C 132.18 166.74 131.37 165.69 130.22 165.53 C 129.07 165.38 128.02 166.19 127.86 167.34 Z M 127.73 168.29 L 127.63 169.25 C 127.50 170.41 128.33 171.45 129.49 171.58 C 130.64 171.70 131.68 170.87 131.81 169.71 L 131.91 168.75 C 132.04 167.60 131.21 166.56 130.05 166.43 C 128.90 166.30 127.86 167.14 127.73 168.29 Z M 127.62 169.30 L 127.53 170.31 C 127.43 171.47 128.29 172.49 129.45 172.60 C 130.60 172.70 131.63 171.84 131.73 170.68 L 131.82 169.67 C 131.92 168.51 131.06 167.49 129.90 167.38 C 128.74 167.28 127.72 168.14 127.62 169.30 Z M 127.52 170.36 L 127.45 171.43 C 127.38 172.59 128.26 173.59 129.42 173.67 C 130.59 173.74 131.59 172.86 131.67 171.70 L 131.73 170.63 C 131.81 169.47 130.93 168.47 129.77 168.39 C 128.60 168.31 127.60 169.20 127.52 170.36 Z M 127.45 171.47 L 127.40 172.50 C 127.35 173.67 128.25 174.66 129.42 174.71 C 130.59 174.76 131.57 173.86 131.62 172.69 L 131.67 171.66 C 131.72 170.49 130.82 169.50 129.65 169.45 C 128.49 169.40 127.50 170.30 127.45 171.47 Z M 127.40 172.54 L 127.37 173.52 C 127.34 174.69 128.26 175.67 129.42 175.70 C 130.59 175.73 131.57 174.81 131.60 173.64 L 131.63 172.66 C 131.66 171.49 130.74 170.51 129.57 170.48 C 128.40 170.45 127.43 171.37 127.40 172.54 Z M 127.37 173.55 L 127.35 174.56 C 127.33 175.73 128.26 176.69 129.43 176.71 C 130.60 176.73 131.57 175.80 131.59 174.63 L 131.60 173.62 C 131.62 172.45 130.69 171.48 129.52 171.46 C 128.35 171.44 127.39 172.38 127.37 173.55 Z M 127.35 174.57 L 127.34 175.59 C 127.33 176.76 128.27 177.72 129.44 177.73 C 130.61 177.74 131.57 176.80 131.58 175.63 L 131.59 174.61 C 131.60 173.44 130.66 172.48 129.49 172.47 C 128.31 172.46 127.36 173.40 127.35 174.57 Z M 127.33 175.60 L 127.33 176.61 C 127.33 177.79 128.28 178.74 129.45 178.75 C 130.62 178.75 131.58 177.80 131.58 176.63 L 131.59 175.61 C 131.59 174.44 130.64 173.49 129.47 173.48 C 128.29 173.48 127.34 174.43 127.33 175.60 Z M 127.33 176.62 L 127.33 177.62 C 127.33 178.79 128.28 179.74 129.45 179.74 C 130.63 179.75 131.58 178.79 131.58 177.62 L 131.58 176.62 C 131.59 175.45 130.63 174.49 129.46 174.49 C 128.28 174.49 127.33 175.44 127.33 176.62 Z M 127.33 177.62 L 127.33 178.67 C 127.33 179.85 128.28 180.80 129.46 180.80 C 130.63 180.80 131.59 179.85 131.59 178.67 L 131.59 177.62 C 131.59 176.44 130.63 175.49 129.46 175.49 C 128.28 175.49 127.33 176.44 127.33 177.62 Z M 127.32 178.67 L 127.32 179.69 C 127.32 180.87 128.28 181.82 129.46 181.82 C 130.63 181.82 131.59 180.87 131.59 179.69 L 131.59 178.67 C 131.59 177.49 130.63 176.54 129.46 176.54 C 128.28 176.54 127.32 177.49 127.32 178.67 Z M 127.32 179.69 L 127.32 180.69 C 127.32 181.86 128.28 182.82 129.46 182.82 C 130.63 182.82 131.59 181.86 131.59 180.69 L 131.59 179.69 C 131.59 178.51 130.63 177.56 129.46 177.56 C 128.28 177.56 127.32 178.51 127.32 179.69 Z M 127.32 180.69 L 127.32 181.66 C 127.32 182.84 128.28 183.79 129.46 183.79 C 130.63 183.79 131.59 182.84 131.59 181.66 L 131.59 180.69 C 131.59 179.51 130.63 178.55 129.46 178.55 C 128.28 178.55 127.32 179.51 127.32 180.69 Z M 127.32 181.66 L 127.32 182.61 C 127.32 183.79 128.28 184.75 129.46 184.75 C 130.63 184.75 131.59 183.79 131.59 182.61 L 131.59 181.66 C 131.59 180.48 130.63 179.52 129.46 179.52 C 128.28 179.52 127.32 180.48 127.32 181.66 Z M 127.32 182.62 L 127.32 183.63 C 127.32 184.81 128.28 185.76 129.46 185.76 C 130.64 185.76 131.60 184.80 131.59 183.62 L 131.59 182.61 C 131.59 181.43 130.63 180.48 129.45 180.48 C 128.27 180.48 127.32 181.44 127.32 182.62 Z M 127.32 183.65 L 127.33 184.64 C 127.34 185.82 128.31 186.77 129.49 186.76 C 130.67 186.75 131.62 185.78 131.60 184.60 L 131.59 183.60 C 131.58 182.42 130.62 181.47 129.44 181.49 C 128.26 181.50 127.31 182.47 127.32 183.65 Z M 127.33 184.68 L 127.36 185.68 C 127.39 186.86 128.38 187.79 129.56 187.75 C 130.74 187.72 131.67 186.74 131.63 185.56 L 131.60 184.56 C 131.57 183.38 130.59 182.45 129.41 182.49 C 128.23 182.52 127.30 183.50 127.33 184.68 Z M 127.36 185.74 L 127.42 186.73 C 127.48 187.91 128.49 188.81 129.67 188.75 C 130.85 188.68 131.75 187.67 131.69 186.49 L 131.63 185.50 C 131.57 184.32 130.56 183.42 129.38 183.48 C 128.20 183.55 127.30 184.56 127.36 185.74 Z M 127.42 186.80 L 127.51 187.79 C 127.62 188.97 128.66 189.83 129.83 189.73 C 131.01 189.62 131.88 188.58 131.77 187.40 L 131.68 186.42 C 131.58 185.24 130.53 184.37 129.36 184.48 C 128.18 184.59 127.31 185.63 127.42 186.80 Z M 127.52 187.87 L 127.64 188.84 C 127.79 190.01 128.87 190.84 130.04 190.69 C 131.21 190.54 132.04 189.47 131.89 188.29 L 131.76 187.33 C 131.61 186.15 130.54 185.33 129.37 185.48 C 128.20 185.63 127.37 186.70 127.52 187.87 Z M 127.65 188.91 L 127.81 189.89 C 128.00 191.05 129.10 191.84 130.27 191.66 C 131.43 191.47 132.22 190.37 132.04 189.20 L 131.88 188.22 C 131.69 187.06 130.59 186.27 129.42 186.45 C 128.26 186.64 127.46 187.74 127.65 188.91 Z M 127.82 189.94 L 128.01 190.93 C 128.23 192.09 129.35 192.85 130.51 192.63 C 131.67 192.41 132.43 191.29 132.21 190.13 L 132.03 189.14 C 131.80 187.98 130.68 187.22 129.52 187.44 C 128.36 187.66 127.60 188.78 127.82 189.94 Z M 128.02 190.98 L 128.23 191.98 C 128.48 193.13 129.62 193.87 130.77 193.62 C 131.93 193.37 132.67 192.23 132.42 191.08 L 132.20 190.08 C 131.96 188.93 130.82 188.19 129.66 188.44 C 128.51 188.68 127.77 189.82 128.02 190.98 Z M 128.24 192.01 L 128.47 193.01 C 128.74 194.16 129.89 194.88 131.04 194.61 C 132.19 194.34 132.91 193.19 132.64 192.04 L 132.41 191.04 C 132.14 189.89 130.99 189.17 129.84 189.44 C 128.69 189.71 127.97 190.86 128.24 192.01 Z M 128.48 193.04 L 128.73 194.02 C 129.01 195.17 130.17 195.87 131.32 195.58 C 132.47 195.30 133.17 194.13 132.88 192.99 L 132.63 192.00 C 132.35 190.86 131.19 190.16 130.04 190.45 C 128.89 190.73 128.19 191.89 128.48 193.04 Z M 128.73 194.06 L 129.00 195.04 C 129.30 196.18 130.48 196.86 131.62 196.55 C 132.76 196.25 133.44 195.08 133.13 193.93 L 132.87 192.95 C 132.57 191.81 131.39 191.13 130.25 191.44 C 129.11 191.74 128.43 192.92 128.73 194.06 Z M 129.01 195.08 L 129.28 196.04 C 129.61 197.18 130.80 197.84 131.93 197.51 C 133.07 197.18 133.73 196.00 133.40 194.86 L 133.12 193.90 C 132.80 192.76 131.61 192.10 130.47 192.43 C 129.34 192.76 128.68 193.94 129.01 195.08 Z M 129.30 196.09 L 129.59 197.03 C 129.94 198.16 131.14 198.79 132.27 198.44 C 133.40 198.09 134.03 196.89 133.68 195.76 L 133.39 194.82 C 133.04 193.69 131.84 193.06 130.71 193.41 C 129.58 193.76 128.95 194.96 129.30 196.09 Z M 129.61 197.08 L 129.93 198.03 C 130.30 199.15 131.52 199.75 132.64 199.37 C 133.76 199.00 134.36 197.78 133.98 196.66 L 133.66 195.71 C 133.28 194.59 132.07 193.99 130.95 194.37 C 129.83 194.74 129.23 195.96 129.61 197.08 Z M 129.95 198.09 L 130.31 199.06 C 130.72 200.17 131.95 200.74 133.06 200.33 C 134.16 199.92 134.73 198.69 134.32 197.58 L 133.96 196.61 C 133.55 195.50 132.32 194.93 131.21 195.34 C 130.10 195.75 129.54 196.98 129.95 198.09 Z M 130.33 199.12 L 130.71 200.05 C 131.15 201.15 132.40 201.68 133.49 201.24 C 134.59 200.79 135.12 199.55 134.67 198.45 L 134.30 197.52 C 133.86 196.43 132.61 195.90 131.51 196.34 C 130.42 196.78 129.89 198.03 130.33 199.12 Z M 130.73 200.11 L 131.12 201.01 C 131.60 202.09 132.86 202.58 133.94 202.11 C 135.02 201.63 135.52 200.37 135.04 199.29 L 134.65 198.40 C 134.18 197.31 132.91 196.82 131.83 197.30 C 130.75 197.77 130.26 199.03 130.73 200.11 Z M 131.15 201.06 L 131.56 201.92 C 132.06 202.99 133.34 203.45 134.40 202.94 C 135.47 202.44 135.93 201.17 135.42 200.10 L 135.02 199.23 C 134.51 198.17 133.24 197.71 132.17 198.21 C 131.10 198.72 130.65 199.99 131.15 201.06 Z M 131.58 201.98 L 132.02 202.83 C 132.55 203.89 133.84 204.31 134.89 203.77 C 135.94 203.24 136.36 201.95 135.83 200.90 L 135.40 200.04 C 134.86 198.99 133.58 198.57 132.52 199.10 C 131.47 199.64 131.05 200.92 131.58 201.98 Z M 132.06 202.90 L 132.52 203.75 C 133.09 204.78 134.39 205.15 135.42 204.58 C 136.46 204.01 136.83 202.71 136.26 201.68 L 135.79 200.84 C 135.22 199.81 133.92 199.43 132.89 200.00 C 131.86 200.57 131.49 201.87 132.06 202.90 Z M 132.57 203.82 L 133.09 204.67 C 133.70 205.68 135.01 205.99 136.02 205.38 C 137.02 204.77 137.34 203.46 136.73 202.45 L 136.21 201.61 C 135.60 200.60 134.29 200.28 133.28 200.90 C 132.28 201.51 131.96 202.82 132.57 203.82 Z M 133.15 204.75 L 133.73 205.62 C 134.39 206.59 135.71 206.85 136.68 206.19 C 137.66 205.53 137.91 204.21 137.25 203.23 L 136.67 202.37 C 136.01 201.40 134.69 201.14 133.72 201.80 C 132.74 202.46 132.49 203.78 133.15 204.75 Z M 133.79 205.70 L 134.41 206.53 C 135.11 207.47 136.44 207.66 137.38 206.96 C 138.32 206.26 138.52 204.92 137.81 203.98 L 137.20 203.15 C 136.49 202.21 135.16 202.02 134.22 202.72 C 133.28 203.42 133.09 204.75 133.79 205.70 Z M 134.46 206.59 L 135.11 207.39 C 135.85 208.30 137.19 208.44 138.10 207.70 C 139.01 206.97 139.15 205.63 138.41 204.72 L 137.76 203.92 C 137.02 203.01 135.69 202.87 134.78 203.61 C 133.87 204.34 133.73 205.68 134.46 206.59 Z M 135.17 207.45 L 135.85 208.23 C 136.62 209.11 137.95 209.20 138.84 208.43 C 139.72 207.67 139.81 206.33 139.04 205.45 L 138.36 204.67 C 137.59 203.79 136.25 203.69 135.37 204.46 C 134.49 205.23 134.40 206.57 135.17 207.45 Z M 135.91 208.29 L 136.60 209.02 C 137.40 209.87 138.73 209.91 139.58 209.11 C 140.43 208.32 140.47 206.98 139.67 206.13 L 138.98 205.39 C 138.18 204.54 136.85 204.50 136.00 205.30 C 135.15 206.10 135.11 207.44 135.91 208.29 Z M 136.66 209.08 L 137.34 209.74 C 138.17 210.56 139.51 210.54 140.32 209.71 C 141.13 208.87 141.12 207.54 140.28 206.73 L 139.61 206.07 C 138.78 205.25 137.44 205.27 136.63 206.10 C 135.82 206.94 135.83 208.27 136.66 209.08 Z M 137.44 209.83 L 138.24 210.51 C 139.12 211.27 140.44 211.17 141.20 210.29 C 141.96 209.41 141.86 208.08 140.98 207.33 L 140.18 206.64 C 139.30 205.88 137.98 205.98 137.22 206.86 C 136.46 207.74 136.56 209.07 137.44 209.83 Z M 138.39 210.63 L 139.20 211.21 C 140.14 211.88 141.45 211.66 142.13 210.71 C 142.80 209.77 142.58 208.46 141.64 207.79 L 140.83 207.21 C 139.88 206.54 138.57 206.76 137.90 207.70 C 137.22 208.65 137.44 209.96 138.39 210.63 Z M 139.38 211.32 L 140.20 211.79 C 141.21 212.36 142.49 212.01 143.06 211.00 C 143.64 210.00 143.28 208.72 142.28 208.14 L 141.45 207.68 C 140.45 207.10 139.17 207.45 138.60 208.46 C 138.02 209.47 138.37 210.75 139.38 211.32 Z M 140.36 211.86 L 141.24 212.27 C 142.29 212.76 143.53 212.30 144.02 211.25 C 144.50 210.20 144.05 208.96 143.00 208.47 L 142.12 208.07 C 141.07 207.58 139.83 208.04 139.34 209.09 C 138.86 210.14 139.31 211.38 140.36 211.86 Z M 141.35 212.31 L 142.23 212.66 C 143.30 213.08 144.51 212.55 144.93 211.48 C 145.36 210.41 144.83 209.20 143.76 208.78 L 142.89 208.44 C 141.82 208.01 140.61 208.54 140.18 209.61 C 139.76 210.68 140.28 211.89 141.35 212.31 Z M 142.34 212.68 L 143.28 213.00 C 144.36 213.36 145.54 212.78 145.90 211.69 C 146.27 210.61 145.68 209.44 144.60 209.07 L 143.65 208.76 C 142.57 208.39 141.40 208.98 141.03 210.06 C 140.67 211.14 141.25 212.32 142.34 212.68 Z M 143.40 213.02 L 144.39 213.29 C 145.49 213.59 146.62 212.94 146.92 211.85 C 147.22 210.75 146.57 209.62 145.47 209.32 L 144.48 209.05 C 143.39 208.75 142.26 209.40 141.96 210.50 C 141.66 211.59 142.30 212.72 143.40 213.02 Z M 144.53 213.31 L 145.55 213.51 C 146.66 213.74 147.73 213.02 147.96 211.92 C 148.18 210.81 147.47 209.73 146.36 209.51 L 145.34 209.30 C 144.23 209.08 143.16 209.80 142.93 210.90 C 142.71 212.01 143.42 213.08 144.53 213.31 Z M 145.71 213.53 L 146.76 213.66 C 147.87 213.79 148.89 213.00 149.02 211.89 C 149.16 210.77 148.37 209.76 147.25 209.62 L 146.20 209.50 C 145.09 209.36 144.08 210.15 143.94 211.27 C 143.80 212.38 144.60 213.39 145.71 213.53 Z M 146.93 213.67 L 147.96 213.71 C 149.08 213.75 150.02 212.88 150.06 211.76 C 150.11 210.64 149.24 209.70 148.12 209.66 L 147.09 209.62 C 145.97 209.57 145.03 210.44 144.98 211.56 C 144.94 212.68 145.81 213.62 146.93 213.67 Z M 148.14 213.70 L 149.13 213.65 C 150.24 213.59 151.10 212.65 151.04 211.53 C 150.99 210.42 150.04 209.56 148.92 209.62 L 147.94 209.67 C 146.83 209.72 145.97 210.67 146.02 211.78 C 146.08 212.90 147.03 213.75 148.14 213.70 Z M 149.34 213.62 L 150.25 213.48 C 151.34 213.31 152.10 212.28 151.92 211.18 C 151.75 210.08 150.72 209.33 149.63 209.50 L 148.72 209.64 C 147.62 209.82 146.87 210.84 147.04 211.94 C 147.21 213.04 148.24 213.79 149.34 213.62 Z M 150.52 213.41 L 151.53 213.10 C 152.59 212.78 153.19 211.65 152.87 210.59 C 152.54 209.53 151.42 208.93 150.35 209.26 L 149.35 209.57 C 148.28 209.89 147.69 211.02 148.01 212.08 C 148.34 213.14 149.46 213.74 150.52 213.41 Z M 151.84 212.99 L 152.72 212.55 C 153.72 212.05 154.13 210.84 153.63 209.85 C 153.14 208.85 151.93 208.45 150.93 208.94 L 150.05 209.38 C 149.05 209.87 148.65 211.08 149.14 212.08 C 149.63 213.07 150.84 213.48 151.84 212.99 Z M 152.97 212.41 L 153.76 211.86 C 154.68 211.23 154.91 209.98 154.28 209.06 C 153.65 208.14 152.40 207.91 151.48 208.54 L 150.69 209.08 C 149.77 209.71 149.54 210.96 150.17 211.88 C 150.79 212.80 152.05 213.04 152.97 212.41 Z M 153.93 211.74 L 154.66 211.12 C 155.51 210.40 155.62 209.12 154.89 208.27 C 154.17 207.42 152.90 207.32 152.05 208.04 L 151.31 208.66 C 150.46 209.38 150.36 210.66 151.08 211.51 C 151.80 212.36 153.08 212.46 153.93 211.74 Z M 154.78 211.01 L 155.48 210.32 C 156.27 209.53 156.28 208.25 155.49 207.46 C 154.70 206.66 153.42 206.66 152.63 207.45 L 151.93 208.14 C 151.14 208.93 151.13 210.21 151.92 211.00 C 152.71 211.80 153.99 211.80 154.78 211.01 Z M 155.57 210.23 L 156.25 209.47 C 156.99 208.64 156.92 207.36 156.09 206.61 C 155.25 205.86 153.97 205.93 153.22 206.77 L 152.54 207.53 C 151.80 208.37 151.87 209.65 152.70 210.40 C 153.54 211.14 154.82 211.07 155.57 210.23 Z M 156.31 209.41 L 156.91 208.68 C 157.62 207.81 157.50 206.53 156.63 205.82 C 155.76 205.10 154.48 205.23 153.77 206.10 L 153.16 206.83 C 152.45 207.70 152.58 208.98 153.44 209.69 C 154.31 210.41 155.59 210.28 156.31 209.41 Z M 156.95 208.63 L 157.52 207.90 C 158.20 207.01 158.03 205.73 157.14 205.04 C 156.25 204.36 154.97 204.52 154.28 205.42 L 153.72 206.15 C 153.04 207.04 153.20 208.32 154.10 209.00 C 154.99 209.69 156.27 209.52 156.95 208.63 Z M 157.56 207.85 L 158.14 207.04 C 158.80 206.13 158.59 204.85 157.68 204.19 C 156.76 203.53 155.48 203.74 154.82 204.66 L 154.24 205.46 C 153.58 206.38 153.79 207.66 154.71 208.31 C 155.62 208.97 156.90 208.77 157.56 207.85 Z M 158.18 207.00 L 158.79 206.09 C 159.43 205.15 159.18 203.88 158.25 203.24 C 157.31 202.61 156.04 202.86 155.40 203.79 L 154.79 204.70 C 154.15 205.64 154.40 206.91 155.33 207.54 C 156.27 208.18 157.54 207.93 158.18 207.00 Z M 158.82 206.05 L 159.38 205.18 C 159.99 204.23 159.72 202.96 158.76 202.35 C 157.81 201.74 156.54 202.01 155.93 202.97 L 155.37 203.83 C 154.76 204.78 155.04 206.05 155.99 206.66 C 156.94 207.27 158.21 207.00 158.82 206.05 Z M 159.40 205.16 L 159.93 204.30 C 160.53 203.33 160.23 202.07 159.27 201.47 C 158.31 200.88 157.04 201.17 156.44 202.13 L 155.91 202.99 C 155.31 203.96 155.61 205.22 156.57 205.82 C 157.54 206.41 158.80 206.12 159.40 205.16 Z M 159.94 204.27 L 160.48 203.39 C 161.06 202.42 160.75 201.16 159.78 200.57 C 158.81 199.99 157.55 200.30 156.96 201.27 L 156.43 202.16 C 155.85 203.13 156.16 204.39 157.13 204.97 C 158.10 205.56 159.36 205.24 159.94 204.27 Z M 160.49 203.37 L 161.01 202.48 C 161.58 201.51 161.25 200.25 160.28 199.68 C 159.30 199.10 158.04 199.43 157.47 200.41 L 156.95 201.29 C 156.38 202.27 156.71 203.53 157.68 204.10 C 158.66 204.67 159.92 204.35 160.49 203.37 Z M 161.02 202.46 L 161.51 201.62 C 162.07 200.63 161.73 199.38 160.74 198.82 C 159.76 198.25 158.50 198.60 157.94 199.58 L 157.46 200.43 C 156.89 201.41 157.24 202.67 158.22 203.23 C 159.21 203.79 160.46 203.45 161.02 202.46 Z M 161.52 201.59 L 162.02 200.68 C 162.57 199.69 162.21 198.44 161.22 197.90 C 160.22 197.35 158.98 197.71 158.43 198.70 L 157.93 199.60 C 157.38 200.60 157.74 201.85 158.73 202.39 C 159.72 202.94 160.97 202.58 161.52 201.59 Z M 162.04 200.64 L 162.51 199.76 C 163.03 198.75 162.64 197.51 161.64 196.99 C 160.64 196.46 159.39 196.85 158.87 197.85 L 158.41 198.74 C 157.88 199.74 158.27 200.99 159.27 201.51 C 160.28 202.04 161.52 201.65 162.04 200.64 Z M 162.53 199.70 L 162.95 198.84 C 163.45 197.82 163.02 196.59 162.00 196.10 C 160.98 195.60 159.76 196.03 159.26 197.05 L 158.84 197.91 C 158.35 198.93 158.77 200.16 159.79 200.65 C 160.81 201.15 162.04 200.72 162.53 199.70 Z M 162.98 198.78 L 163.38 197.88 C 163.84 196.85 163.37 195.63 162.34 195.17 C 161.30 194.71 160.09 195.18 159.63 196.22 L 159.23 197.11 C 158.77 198.14 159.24 199.36 160.27 199.82 C 161.31 200.28 162.52 199.81 162.98 198.78 Z M 163.40 197.83 L 163.77 196.92 C 164.20 195.87 163.70 194.67 162.65 194.24 C 161.60 193.81 160.41 194.32 159.98 195.37 L 159.61 196.27 C 159.18 197.32 159.68 198.52 160.73 198.95 C 161.78 199.38 162.97 198.88 163.40 197.83 Z M 163.79 196.88 L 164.15 195.94 C 164.55 194.89 164.02 193.70 162.96 193.30 C 161.91 192.89 160.72 193.42 160.32 194.48 L 159.96 195.41 C 159.56 196.47 160.09 197.65 161.14 198.06 C 162.20 198.46 163.38 197.93 163.79 196.88 Z M 164.16 195.91 L 164.51 194.94 C 164.89 193.88 164.34 192.71 163.28 192.32 C 162.21 191.94 161.04 192.49 160.66 193.55 L 160.31 194.51 C 159.92 195.58 160.47 196.75 161.54 197.13 C 162.60 197.52 163.77 196.97 164.16 195.91 Z M 164.51 194.91 L 164.84 193.94 C 165.21 192.88 164.64 191.71 163.57 191.35 C 162.50 190.98 161.34 191.55 160.98 192.62 L 160.65 193.58 C 160.28 194.65 160.85 195.81 161.92 196.18 C 162.99 196.54 164.15 195.98 164.51 194.91 Z M 164.85 193.91 L 165.16 192.96 C 165.50 191.89 164.92 190.74 163.84 190.39 C 162.77 190.05 161.62 190.64 161.27 191.71 L 160.97 192.65 C 160.62 193.73 161.21 194.88 162.28 195.22 C 163.36 195.57 164.51 194.98 164.85 193.91 Z M 165.17 192.92 L 165.48 191.88 C 165.81 190.81 165.19 189.67 164.12 189.34 C 163.04 189.02 161.90 189.63 161.57 190.71 L 161.26 191.75 C 160.94 192.83 161.55 193.97 162.63 194.29 C 163.71 194.61 164.85 194.00 165.17 192.92 Z M 165.50 191.83 L 165.76 190.85 C 166.06 189.76 165.41 188.64 164.32 188.35 C 163.23 188.06 162.11 188.70 161.82 189.79 L 161.55 190.77 C 161.26 191.86 161.91 192.98 163.00 193.27 C 164.09 193.56 165.21 192.92 165.50 191.83 Z M 165.78 190.78 L 166.00 189.85 C 166.26 188.75 165.57 187.65 164.47 187.40 C 163.37 187.14 162.27 187.83 162.01 188.93 L 161.80 189.86 C 161.54 190.96 162.23 192.06 163.33 192.32 C 164.43 192.57 165.53 191.89 165.78 190.78 Z M 166.02 189.77 L 166.20 188.84 C 166.41 187.73 165.68 186.66 164.56 186.45 C 163.45 186.24 162.38 186.97 162.17 188.08 L 161.99 189.01 C 161.78 190.12 162.51 191.19 163.63 191.41 C 164.74 191.62 165.81 190.88 166.02 189.77 Z M 166.21 188.76 L 166.35 187.76 C 166.52 186.64 165.74 185.60 164.62 185.44 C 163.50 185.28 162.46 186.06 162.30 187.18 L 162.15 188.17 C 161.99 189.29 162.77 190.33 163.89 190.49 C 165.01 190.65 166.05 189.88 166.21 188.76 Z M 166.37 187.68 L 166.47 186.69 C 166.58 185.56 165.76 184.55 164.63 184.44 C 163.51 184.32 162.50 185.14 162.39 186.27 L 162.29 187.26 C 162.17 188.39 162.99 189.40 164.12 189.51 C 165.24 189.62 166.25 188.80 166.37 187.68 Z M 166.47 186.61 L 166.54 185.62 C 166.61 184.49 165.76 183.51 164.63 183.44 C 163.50 183.36 162.52 184.22 162.45 185.35 L 162.38 186.34 C 162.30 187.47 163.16 188.45 164.29 188.53 C 165.42 188.60 166.40 187.74 166.47 186.61 Z M 166.54 185.56 L 166.58 184.58 C 166.62 183.44 165.74 182.49 164.61 182.45 C 163.47 182.40 162.52 183.29 162.48 184.42 L 162.44 185.41 C 162.40 186.54 163.28 187.49 164.41 187.54 C 165.55 187.58 166.50 186.70 166.54 185.56 Z M 166.59 184.52 L 166.60 183.53 C 166.61 182.39 165.70 181.46 164.57 181.45 C 163.43 181.43 162.50 182.34 162.48 183.48 L 162.47 184.47 C 162.46 185.61 163.37 186.54 164.50 186.56 C 165.64 186.57 166.57 185.66 166.59 184.52 Z M 166.61 183.48 L 166.60 182.47 C 166.58 181.33 165.64 180.42 164.50 180.43 C 163.36 180.45 162.45 181.38 162.46 182.52 L 162.47 183.53 C 162.49 184.67 163.42 185.58 164.57 185.57 C 165.71 185.56 166.62 184.62 166.61 183.48 Z M 166.60 182.42 L 166.56 181.41 C 166.52 180.27 165.56 179.37 164.42 179.41 C 163.27 179.46 162.38 180.42 162.42 181.56 L 162.46 182.57 C 162.50 183.72 163.46 184.61 164.60 184.57 C 165.75 184.53 166.64 183.57 166.60 182.42 Z M 166.57 181.35 L 166.50 180.35 C 166.43 179.20 165.44 178.33 164.29 178.41 C 163.14 178.48 162.27 179.48 162.35 180.62 L 162.41 181.62 C 162.49 182.77 163.48 183.64 164.63 183.56 C 165.78 183.49 166.65 182.50 166.57 181.35 Z M 166.50 180.24 L 166.39 179.25 C 166.25 178.10 165.21 177.28 164.06 177.41 C 162.92 177.55 162.09 178.59 162.23 179.74 L 162.35 180.73 C 162.48 181.88 163.52 182.70 164.67 182.57 C 165.82 182.43 166.64 181.39 166.50 180.24 Z M 166.37 179.09 L 166.18 178.11 C 165.96 176.97 164.86 176.23 163.72 176.45 C 162.58 176.67 161.83 177.77 162.05 178.91 L 162.24 179.89 C 162.47 181.03 163.57 181.78 164.71 181.56 C 165.85 181.33 166.60 180.23 166.37 179.09 Z M 166.14 177.90 L 165.86 176.95 C 165.52 175.84 164.34 175.20 163.23 175.54 C 162.11 175.87 161.47 177.05 161.81 178.17 L 162.09 179.12 C 162.43 180.24 163.61 180.87 164.73 180.54 C 165.84 180.20 166.48 179.02 166.14 177.90 Z M 165.79 176.75 L 165.41 175.83 C 164.96 174.75 163.72 174.24 162.64 174.69 C 161.56 175.13 161.05 176.37 161.49 177.46 L 161.88 178.37 C 162.32 179.46 163.56 179.97 164.64 179.52 C 165.73 179.07 166.24 177.83 165.79 176.75 Z M 165.34 175.67 L 164.88 174.78 C 164.34 173.73 163.06 173.33 162.01 173.87 C 160.97 174.41 160.56 175.69 161.10 176.73 L 161.56 177.62 C 162.11 178.66 163.39 179.07 164.43 178.53 C 165.47 177.99 165.88 176.71 165.34 175.67 Z M 164.81 174.65 L 164.29 173.79 C 163.68 172.78 162.37 172.46 161.36 173.07 C 160.35 173.68 160.03 175.00 160.65 176.00 L 161.17 176.86 C 161.78 177.87 163.09 178.19 164.10 177.58 C 165.11 176.97 165.42 175.65 164.81 174.65 Z M 164.23 173.69 L 163.69 172.89 C 163.02 171.92 161.70 171.66 160.72 172.33 C 159.75 172.99 159.49 174.32 160.16 175.30 L 160.70 176.10 C 161.37 177.07 162.69 177.32 163.67 176.66 C 164.65 176.00 164.90 174.67 164.23 173.69 Z M 163.64 172.82 L 163.06 172.03 C 162.36 171.08 161.02 170.88 160.07 171.58 C 159.12 172.28 158.92 173.62 159.62 174.57 L 160.20 175.36 C 160.90 176.31 162.24 176.52 163.19 175.81 C 164.14 175.11 164.35 173.77 163.64 172.82 Z M 163.03 171.99 L 162.41 171.19 C 161.68 170.26 160.34 170.09 159.40 170.81 C 158.47 171.54 158.30 172.89 159.03 173.82 L 159.65 174.62 C 160.38 175.55 161.72 175.72 162.65 174.99 C 163.59 174.27 163.76 172.92 163.03 171.99 Z M 162.39 171.16 L 161.75 170.37 C 161.01 169.44 159.66 169.29 158.74 170.03 C 157.82 170.78 157.67 172.12 158.41 173.05 L 159.04 173.84 C 159.78 174.77 161.13 174.92 162.06 174.18 C 162.98 173.44 163.13 172.09 162.39 171.16 Z M 161.74 170.35 L 161.17 169.65 C 160.42 168.73 159.07 168.59 158.15 169.34 C 157.23 170.09 157.10 171.44 157.84 172.36 L 158.42 173.06 C 159.17 173.98 160.52 174.12 161.44 173.37 C 162.35 172.62 162.49 171.27 161.74 170.35 Z M 161.15 169.62 L 160.54 168.89 C 159.77 167.99 158.42 167.87 157.51 168.63 C 156.61 169.40 156.49 170.75 157.25 171.66 L 157.87 172.39 C 158.63 173.29 159.98 173.41 160.89 172.65 C 161.80 171.88 161.91 170.53 161.15 169.62 Z M 160.50 168.85 L 159.83 168.10 C 159.05 167.21 157.69 167.12 156.80 167.91 C 155.92 168.69 155.83 170.05 156.62 170.94 L 157.29 171.70 C 158.07 172.59 159.43 172.67 160.32 171.88 C 161.20 171.10 161.29 169.74 160.50 168.85 Z M 159.79 168.05 L 159.05 167.26 C 158.24 166.39 156.88 166.35 156.01 167.16 C 155.15 167.97 155.11 169.33 155.92 170.20 L 156.66 170.99 C 157.47 171.85 158.83 171.89 159.69 171.08 C 160.56 170.27 160.60 168.91 159.79 168.05 Z M 159.00 167.21 L 158.29 166.50 C 157.45 165.66 156.09 165.66 155.25 166.50 C 154.42 167.34 154.42 168.70 155.26 169.54 L 155.97 170.25 C 156.80 171.08 158.16 171.08 159.00 170.25 C 159.84 169.41 159.84 168.05 159.00 167.21 Z M 158.25 166.46 L 157.57 165.82 C 156.71 165.00 155.35 165.04 154.53 165.90 C 153.72 166.76 153.76 168.12 154.62 168.94 L 155.30 169.58 C 156.16 170.39 157.52 170.36 158.33 169.49 C 159.15 168.63 159.11 167.27 158.25 166.46 Z M 157.53 165.78 L 156.81 165.13 C 155.93 164.33 154.57 164.40 153.78 165.28 C 152.98 166.16 153.05 167.52 153.93 168.31 L 154.65 168.97 C 155.53 169.76 156.89 169.69 157.69 168.81 C 158.48 167.93 158.41 166.58 157.53 165.78 Z M 156.77 165.10 L 156.01 164.43 C 155.11 163.66 153.75 163.76 152.98 164.65 C 152.20 165.55 152.30 166.91 153.20 167.68 L 153.96 168.34 C 154.86 169.12 156.22 169.02 156.99 168.12 C 157.77 167.23 157.67 165.87 156.77 165.10 Z M 155.97 164.41 L 155.17 163.74 C 154.26 162.99 152.90 163.11 152.15 164.03 C 151.39 164.94 151.52 166.29 152.43 167.05 L 153.23 167.71 C 154.15 168.47 155.50 168.34 156.25 167.43 C 157.01 166.51 156.88 165.16 155.97 164.41 Z M 155.13 163.71 L 154.30 163.06 C 153.38 162.32 152.03 162.47 151.29 163.40 C 150.55 164.33 150.71 165.68 151.64 166.42 L 152.47 167.08 C 153.40 167.81 154.75 167.66 155.48 166.73 C 156.22 165.80 156.06 164.45 155.13 163.71 Z M 154.27 163.03 L 153.42 162.39 C 152.48 161.67 151.13 161.85 150.42 162.80 C 149.70 163.74 149.88 165.08 150.83 165.80 L 151.67 166.44 C 152.62 167.16 153.96 166.98 154.68 166.03 C 155.39 165.09 155.21 163.75 154.27 163.03 Z M 153.38 162.36 L 152.53 161.74 C 151.57 161.05 150.23 161.26 149.54 162.21 C 148.84 163.17 149.05 164.50 150.01 165.20 L 150.87 165.82 C 151.82 166.52 153.16 166.31 153.85 165.35 C 154.55 164.40 154.34 163.06 153.38 162.36 Z M 152.49 161.72 L 151.63 161.12 C 150.66 160.45 149.33 160.69 148.66 161.65 C 147.99 162.62 148.22 163.95 149.19 164.62 L 150.05 165.22 C 151.02 165.89 152.35 165.66 153.02 164.69 C 153.69 163.72 153.45 162.39 152.49 161.72 Z M 151.59 161.10 L 150.74 160.54 C 149.76 159.88 148.44 160.15 147.79 161.13 C 147.14 162.11 147.40 163.43 148.38 164.08 L 149.23 164.64 C 150.21 165.29 151.53 165.03 152.18 164.05 C 152.83 163.07 152.57 161.75 151.59 161.10 Z M 150.69 160.51 L 149.86 159.99 C 148.87 159.36 147.56 159.66 146.93 160.65 C 146.31 161.64 146.60 162.95 147.59 163.57 L 148.43 164.10 C 149.42 164.72 150.73 164.43 151.35 163.44 C 151.98 162.45 151.68 161.14 150.69 160.51 Z M 149.81 159.96 L 149.01 159.49 C 148.01 158.89 146.71 159.22 146.11 160.22 C 145.51 161.23 145.84 162.52 146.85 163.12 L 147.65 163.60 C 148.65 164.20 149.95 163.87 150.54 162.86 C 151.14 161.86 150.81 160.56 149.81 159.96 Z M 148.94 159.46 L 148.09 158.99 C 147.07 158.43 145.79 158.80 145.23 159.82 C 144.67 160.83 145.04 162.11 146.06 162.67 L 146.91 163.15 C 147.93 163.71 149.21 163.34 149.77 162.32 C 150.33 161.30 149.96 160.02 148.94 159.46 Z M 147.99 158.97 L 147.04 158.51 C 146.01 158.00 144.77 158.43 144.26 159.46 C 143.76 160.49 144.18 161.73 145.21 162.23 L 146.16 162.70 C 147.19 163.20 148.43 162.78 148.94 161.75 C 149.44 160.72 149.02 159.47 147.99 158.97 Z M 146.91 158.49 L 146.01 158.11 C 144.97 157.68 143.77 158.17 143.34 159.21 C 142.91 160.25 143.40 161.44 144.44 161.88 L 145.34 162.25 C 146.38 162.69 147.58 162.20 148.01 161.16 C 148.45 160.12 147.95 158.92 146.91 158.49 Z M 145.88 158.10 L 144.97 157.79 C 143.93 157.43 142.79 157.98 142.43 159.03 C 142.07 160.08 142.62 161.22 143.67 161.58 L 144.57 161.89 C 145.62 162.25 146.76 161.69 147.12 160.64 C 147.48 159.60 146.92 158.46 145.88 158.10 Z M 144.85 157.79 L 143.92 157.53 C 142.87 157.23 141.79 157.85 141.49 158.89 C 141.20 159.94 141.81 161.03 142.86 161.32 L 143.79 161.58 C 144.84 161.87 145.93 161.26 146.22 160.21 C 146.51 159.16 145.90 158.08 144.85 157.79 Z M 143.82 157.54 L 142.87 157.32 C 141.83 157.09 140.80 157.74 140.56 158.78 C 140.32 159.82 140.97 160.85 142.01 161.09 L 142.96 161.31 C 144.00 161.54 145.04 160.89 145.27 159.85 C 145.51 158.81 144.86 157.78 143.82 157.54 Z M 142.80 157.35 L 141.82 157.16 C 140.79 156.96 139.80 157.64 139.60 158.67 C 139.41 159.69 140.08 160.68 141.11 160.88 L 142.09 161.07 C 143.12 161.26 144.11 160.59 144.30 159.56 C 144.50 158.53 143.83 157.54 142.80 157.35 Z M 141.75 157.19 L 140.75 157.03 C 139.74 156.87 138.79 157.55 138.62 158.56 C 138.46 159.58 139.15 160.53 140.16 160.69 L 141.17 160.85 C 142.18 161.01 143.13 160.32 143.29 159.31 C 143.45 158.30 142.76 157.35 141.75 157.19 Z M 140.70 157.06 L 139.69 156.93 C 138.69 156.79 137.78 157.49 137.65 158.48 C 137.52 159.47 138.21 160.39 139.21 160.52 L 140.21 160.66 C 141.21 160.79 142.12 160.09 142.25 159.10 C 142.39 158.11 141.69 157.19 140.70 157.06 Z M 139.64 156.96 L 138.66 156.85 C 137.68 156.74 136.80 157.44 136.70 158.42 C 136.59 159.39 137.29 160.27 138.26 160.38 L 139.25 160.49 C 140.23 160.59 141.10 159.89 141.21 158.92 C 141.32 157.94 140.62 157.07 139.64 156.96 Z M 138.61 156.88 L 137.56 156.79 C 136.60 156.71 135.76 157.41 135.68 158.37 C 135.59 159.33 136.30 160.17 137.26 160.25 L 138.31 160.35 C 139.26 160.43 140.11 159.72 140.19 158.77 C 140.28 157.81 139.57 156.97 138.61 156.88 Z M 137.52 156.82 L 136.51 156.75 C 135.57 156.69 134.76 157.40 134.69 158.34 C 134.63 159.28 135.34 160.09 136.28 160.16 L 137.30 160.22 C 138.24 160.29 139.05 159.57 139.11 158.63 C 139.17 157.69 138.46 156.88 137.52 156.82 Z M 136.48 156.78 L 135.50 156.73 C 134.58 156.69 133.79 157.40 133.74 158.32 C 133.70 159.24 134.41 160.03 135.33 160.08 L 136.31 160.13 C 137.24 160.17 138.02 159.46 138.07 158.54 C 138.11 157.62 137.40 156.83 136.48 156.78 Z M 135.48 156.77 L 134.52 156.73 C 133.61 156.69 132.85 157.39 132.81 158.30 C 132.78 159.21 133.48 159.97 134.39 160.01 L 135.35 160.04 C 136.26 160.08 137.02 159.38 137.06 158.47 C 137.09 157.57 136.39 156.80 135.48 156.77 Z M 134.51 156.75 L 134.13 156.74 C 133.24 156.70 132.49 157.40 132.46 158.29 C 132.42 159.18 133.12 159.94 134.01 159.97 L 134.39 159.98 C 135.29 160.02 136.04 159.32 136.07 158.43 C 136.10 157.53 135.41 156.78 134.51 156.75 Z"
      fill="black"
      fill-rule="nonzero" /></svg>