<svg xmlns="http://www.w3.org/2000/svg" version="1.0" width="937.000000pt" height="937.000000pt" viewBox="0 0 937.000000 937.000000" preserveAspectRatio="xMidYMid meet">
  <defs/>
  <path fill="#000000" d="M502.5,328.1 C496.5,329.2 478.7,332.6 463,335.6 L434.5,341.2 L418.8,341.7 C402,342.3 395.6,341.4 391.2,337.9 C385.9,333.8 379.6,336.8 380.2,343.2 L380.5,346.5 L385.3,349.7 C392.9,354.8 396.2,355.3 418.5,354.8 L438.5,354.3 L464.4,349.1 C478.6,346.2 490.4,344.1 490.6,344.3 C490.8,344.5 487.7,347.5 483.6,350.9 C464.6,366.6 454,384.1 435.2,431.5 C418.5,473.3 412.9,491.3 408.5,516.8 C405.5,534 405.1,554.1 407.5,563.4 C411.7,579.4 423.4,593.8 438.1,600.9 C450.9,607 459.8,609 475.2,609 L488,609 L490.1,611.1 L492.3,613.3 L491.7,619.4 C491.4,622.8 489.5,630.1 487.5,635.5 C483.4,646.8 483.4,649.8 487.1,651.9 L489.8,653.4 L492.4,651.6 C494.1,650.6 496.5,646.9 498.6,642.3 C508.1,621.4 507.1,605.1 496,599 L491.5,596.6 L474.5,595.9 C456.5,595.2 454.5,594.8 443.1,589 C434.3,584.6 427.7,577.7 423.2,568.2 L419.5,560.5 L419.5,544 L419.5,527.5 L421.8,516.5 C426.7,492.9 432,476.8 448.1,436.9 C470.1,382 478.4,370.4 511.7,348 C518.6,343.3 525.2,338.3 526.3,336.8 L528.3,334.1 L527,331 C524.7,325.5 520.5,325 502.5,328.1 Z"/>
</svg>

