<svg xmlns="http://www.w3.org/2000/svg" width="300" height="300" viewBox="0 0 300 300">
<path d="M 149.62 197.95 L 149.48 198.77 C 149.26 200.05 150.11 201.26 151.38 201.48 C 152.66 201.71 153.87 200.86 154.09 199.58 L 154.24 198.76 C 154.46 197.49 153.61 196.27 152.34 196.05 C 151.06 195.83 149.85 196.68 149.62 197.95 Z M 149.49 198.75 L 149.33 199.63 C 149.09 200.90 149.93 202.12 151.20 202.35 C 152.47 202.58 153.69 201.74 153.93 200.47 L 154.09 199.60 C 154.32 198.33 153.48 197.11 152.21 196.88 C 150.94 196.64 149.72 197.48 149.49 198.75 Z M 149.34 199.60 L 149.14 200.58 C 148.89 201.84 149.71 203.07 150.98 203.32 C 152.25 203.57 153.47 202.75 153.72 201.48 L 153.92 200.50 C 154.17 199.24 153.34 198.01 152.08 197.76 C 150.81 197.51 149.59 198.33 149.34 199.60 Z M 149.15 200.54 L 148.91 201.68 C 148.64 202.94 149.44 204.18 150.70 204.45 C 151.96 204.72 153.20 203.92 153.47 202.66 L 153.71 201.52 C 153.98 200.26 153.18 199.02 151.92 198.75 C 150.66 198.48 149.42 199.28 149.15 200.54 Z M 148.92 201.66 L 148.70 202.63 C 148.41 203.88 149.20 205.13 150.45 205.42 C 151.71 205.70 152.95 204.91 153.24 203.66 L 153.46 202.69 C 153.74 201.43 152.96 200.18 151.70 199.90 C 150.45 199.62 149.20 200.40 148.92 201.66 Z M 148.71 202.61 L 148.50 203.47 C 148.21 204.72 148.99 205.97 150.24 206.26 C 151.49 206.56 152.74 205.78 153.03 204.53 L 153.23 203.68 C 153.52 202.43 152.75 201.18 151.50 200.88 C 150.25 200.59 149.00 201.36 148.71 202.61 Z M 148.51 203.46 L 148.29 204.38 C 147.99 205.63 148.76 206.88 150.01 207.18 C 151.25 207.47 152.51 206.71 152.80 205.46 L 153.02 204.54 C 153.32 203.29 152.55 202.04 151.31 201.75 C 150.06 201.45 148.81 202.22 148.51 203.46 Z M 148.30 204.38 L 148.06 205.35 C 147.76 206.59 148.52 207.84 149.77 208.14 C 151.01 208.44 152.26 207.68 152.56 206.44 L 152.80 205.47 C 153.10 204.22 152.34 202.97 151.09 202.67 C 149.85 202.37 148.60 203.13 148.30 204.38 Z M 148.07 205.34 L 147.82 206.36 C 147.52 207.60 148.28 208.85 149.52 209.15 C 150.76 209.45 152.01 208.69 152.31 207.45 L 152.56 206.44 C 152.86 205.20 152.10 203.95 150.86 203.65 C 149.62 203.34 148.37 204.10 148.07 205.34 Z M 147.82 206.36 L 147.57 207.40 C 147.27 208.64 148.03 209.89 149.27 210.19 C 150.50 210.49 151.75 209.73 152.05 208.49 L 152.31 207.45 C 152.61 206.21 151.85 204.96 150.61 204.66 C 149.37 204.36 148.13 205.12 147.82 206.36 Z M 147.57 207.40 L 147.32 208.46 C 147.02 209.70 147.77 210.95 149.01 211.25 C 150.25 211.55 151.49 210.79 151.79 209.55 L 152.05 208.49 C 152.35 207.25 151.59 206.01 150.36 205.71 C 149.12 205.41 147.87 206.17 147.57 207.40 Z M 147.32 208.47 L 147.06 209.53 C 146.76 210.77 147.52 212.01 148.76 212.31 C 149.99 212.61 151.23 211.85 151.53 210.61 L 151.79 209.55 C 152.09 208.31 151.33 207.07 150.09 206.77 C 148.86 206.48 147.62 207.23 147.32 208.47 Z M 147.07 209.54 L 146.82 210.58 C 146.53 211.81 147.29 213.05 148.52 213.34 C 149.75 213.63 150.98 212.88 151.27 211.65 L 151.52 210.61 C 151.82 209.38 151.06 208.14 149.83 207.85 C 148.60 207.56 147.37 208.31 147.07 209.54 Z M 146.84 210.59 L 146.59 211.63 C 146.30 212.85 147.06 214.07 148.28 214.36 C 149.50 214.65 150.72 213.89 151.01 212.67 L 151.26 211.64 C 151.55 210.42 150.79 209.20 149.57 208.91 C 148.35 208.62 147.13 209.37 146.84 210.59 Z M 146.61 211.63 L 146.37 212.65 C 146.09 213.86 146.84 215.08 148.05 215.36 C 149.26 215.65 150.47 214.90 150.76 213.68 L 151.00 212.67 C 151.28 211.45 150.53 210.24 149.32 209.96 C 148.11 209.67 146.89 210.42 146.61 211.63 Z M 146.39 212.66 L 146.15 213.65 C 145.87 214.86 146.62 216.06 147.82 216.34 C 149.03 216.62 150.23 215.87 150.51 214.67 L 150.74 213.68 C 151.02 212.47 150.28 211.27 149.07 210.99 C 147.87 210.71 146.67 211.46 146.39 212.66 Z M 146.17 213.66 L 145.94 214.63 C 145.67 215.82 146.41 217.02 147.61 217.29 C 148.80 217.57 149.99 216.83 150.27 215.63 L 150.50 214.66 C 150.77 213.47 150.03 212.28 148.83 212.00 C 147.64 211.72 146.45 212.47 146.17 213.66 Z M 145.96 214.63 L 145.75 215.56 C 145.47 216.75 146.21 217.93 147.40 218.20 C 148.58 218.48 149.77 217.74 150.04 216.55 L 150.26 215.62 C 150.53 214.44 149.79 213.25 148.60 212.98 C 147.42 212.71 146.23 213.45 145.96 214.63 Z M 145.76 215.57 L 145.56 216.45 C 145.29 217.63 146.02 218.80 147.20 219.07 C 148.38 219.34 149.55 218.61 149.82 217.43 L 150.03 216.55 C 150.30 215.37 149.56 214.20 148.38 213.92 C 147.21 213.65 146.03 214.39 145.76 215.57 Z M 145.58 216.46 L 145.34 217.47 C 145.08 218.64 145.81 219.81 146.97 220.07 C 148.14 220.34 149.30 219.61 149.57 218.44 L 149.81 217.43 C 150.07 216.26 149.34 215.09 148.17 214.83 C 147.01 214.56 145.84 215.29 145.58 216.46 Z M 145.37 217.48 L 145.11 218.58 C 144.85 219.74 145.57 220.89 146.73 221.15 C 147.88 221.42 149.03 220.70 149.30 219.54 L 149.55 218.44 C 149.81 217.28 149.09 216.13 147.94 215.87 C 146.78 215.60 145.63 216.33 145.37 217.48 Z M 145.14 218.59 L 144.91 219.60 C 144.65 220.74 145.36 221.88 146.50 222.14 C 147.64 222.40 148.78 221.69 149.04 220.54 L 149.27 219.54 C 149.53 218.39 148.82 217.26 147.68 217.00 C 146.54 216.73 145.40 217.45 145.14 218.59 Z M 144.93 219.60 L 144.72 220.53 C 144.46 221.66 145.16 222.79 146.29 223.04 C 147.42 223.30 148.54 222.60 148.80 221.47 L 149.02 220.54 C 149.28 219.41 148.57 218.29 147.44 218.03 C 146.32 217.77 145.19 218.48 144.93 219.60 Z M 144.74 220.53 L 144.54 221.40 C 144.29 222.51 144.98 223.63 146.09 223.88 C 147.21 224.14 148.32 223.45 148.58 222.33 L 148.78 221.47 C 149.04 220.36 148.34 219.24 147.23 218.99 C 146.12 218.73 145.00 219.42 144.74 220.53 Z M 144.57 221.40 L 144.37 222.27 C 144.11 223.37 144.79 224.47 145.89 224.73 C 146.99 224.99 148.09 224.31 148.35 223.21 L 148.55 222.34 C 148.81 221.24 148.13 220.14 147.03 219.88 C 145.93 219.62 144.83 220.30 144.57 221.40 Z M 144.39 222.27 L 144.15 223.26 C 143.89 224.35 144.56 225.44 145.65 225.70 C 146.73 225.96 147.82 225.29 148.08 224.20 L 148.32 223.21 C 148.58 222.12 147.91 221.03 146.83 220.77 C 145.74 220.51 144.65 221.18 144.39 222.27 Z M 144.18 223.27 L 143.95 224.23 C 143.69 225.30 144.35 226.37 145.42 226.63 C 146.49 226.89 147.56 226.23 147.82 225.16 L 148.05 224.20 C 148.31 223.13 147.65 222.05 146.58 221.80 C 145.51 221.54 144.44 222.20 144.18 223.27 Z M 143.97 224.24 L 143.74 225.19 C 143.49 226.25 144.14 227.31 145.20 227.56 C 146.25 227.81 147.32 227.16 147.57 226.11 L 147.80 225.15 C 148.05 224.10 147.40 223.04 146.34 222.78 C 145.29 222.53 144.22 223.18 143.97 224.24 Z M 143.77 225.21 L 143.54 226.17 C 143.30 227.21 143.95 228.25 144.99 228.50 C 146.03 228.74 147.08 228.09 147.32 227.05 L 147.55 226.09 C 147.79 225.05 147.14 224.00 146.10 223.76 C 145.05 223.51 144.01 224.16 143.77 225.21 Z M 143.57 226.19 L 143.35 227.14 C 143.12 228.17 143.76 229.19 144.80 229.42 C 145.83 229.66 146.85 229.01 147.08 227.98 L 147.30 227.03 C 147.53 226.00 146.88 224.98 145.85 224.74 C 144.82 224.51 143.80 225.16 143.57 226.19 Z M 143.38 227.15 L 143.16 228.12 C 142.94 229.14 143.58 230.15 144.60 230.37 C 145.61 230.60 146.62 229.95 146.84 228.94 L 147.06 227.96 C 147.28 226.95 146.64 225.94 145.62 225.72 C 144.61 225.49 143.60 226.13 143.38 227.15 Z M 143.19 228.14 L 142.97 229.13 C 142.76 230.13 143.39 231.12 144.40 231.34 C 145.40 231.55 146.39 230.92 146.60 229.91 L 146.82 228.92 C 147.04 227.92 146.40 226.93 145.40 226.72 C 144.39 226.50 143.41 227.13 143.19 228.14 Z M 143.00 229.14 L 142.79 230.13 C 142.57 231.12 143.20 232.09 144.19 232.31 C 145.18 232.52 146.15 231.89 146.36 230.90 L 146.58 229.90 C 146.79 228.92 146.16 227.94 145.17 227.73 C 144.18 227.52 143.21 228.15 143.00 229.14 Z M 142.80 230.14 L 142.77 230.29 C 142.56 231.27 143.18 232.23 144.16 232.44 C 145.14 232.65 146.10 232.03 146.31 231.05 L 146.35 230.90 C 146.56 229.92 145.93 228.96 144.95 228.75 C 143.97 228.54 143.01 229.16 142.80 230.14 Z"
      fill="black"
      fill-rule="nonzero" /></svg>