<svg xmlns="http://www.w3.org/2000/svg" width="300" height="300" viewBox="0 0 300 300">
<path d="M 131.09 157.28 L 131.09 158.26 C 131.09 159.48 132.08 160.47 133.30 160.47 C 134.53 160.47 135.52 159.48 135.52 158.26 L 135.52 157.28 C 135.52 156.05 134.53 155.06 133.30 155.06 C 132.08 155.06 131.09 156.05 131.09 157.28 Z M 131.08 158.26 L 131.08 159.26 C 131.08 160.49 132.07 161.48 133.30 161.48 C 134.54 161.48 135.53 160.49 135.53 159.26 L 135.53 158.26 C 135.53 157.03 134.54 156.03 133.30 156.03 C 132.07 156.03 131.08 157.03 131.08 158.26 Z M 131.06 159.26 L 131.06 160.27 C 131.06 161.51 132.07 162.51 133.30 162.51 C 134.54 162.51 135.55 161.51 135.55 160.27 L 135.55 159.26 C 135.55 158.02 134.54 157.01 133.30 157.01 C 132.07 157.01 131.06 158.02 131.06 159.26 Z M 131.05 160.27 L 131.05 161.27 C 131.05 162.51 132.06 163.52 133.30 163.52 C 134.55 163.52 135.56 162.51 135.56 161.27 L 135.56 160.27 C 135.56 159.02 134.55 158.01 133.30 158.01 C 132.06 158.01 131.05 159.02 131.05 160.27 Z M 131.03 161.27 L 131.03 162.27 C 131.03 163.52 132.05 164.54 133.30 164.54 C 134.56 164.54 135.58 163.52 135.58 162.27 L 135.58 161.27 C 135.58 160.01 134.56 158.99 133.30 158.99 C 132.05 158.99 131.03 160.01 131.03 161.27 Z M 131.02 162.27 L 131.02 163.27 C 131.02 164.53 132.04 165.56 133.30 165.56 C 134.57 165.56 135.59 164.53 135.59 163.27 L 135.59 162.27 C 135.59 161.00 134.57 159.98 133.30 159.98 C 132.04 159.98 131.02 161.00 131.02 162.27 Z M 131.01 163.27 L 131.01 164.28 C 131.01 165.55 132.04 166.58 133.30 166.58 C 134.57 166.58 135.60 165.55 135.60 164.28 L 135.60 163.27 C 135.60 162.00 134.57 160.97 133.30 160.97 C 132.04 160.97 131.01 162.00 131.01 163.27 Z M 131.00 164.28 L 131.00 165.29 C 131.00 166.57 132.03 167.60 133.30 167.60 C 134.58 167.60 135.61 166.57 135.61 165.29 L 135.61 164.28 C 135.61 163.01 134.58 161.98 133.30 161.98 C 132.03 161.98 131.00 163.01 131.00 164.28 Z M 131.00 165.29 L 131.00 166.29 C 131.00 167.56 132.03 168.60 133.30 168.60 C 134.58 168.60 135.61 167.56 135.61 166.29 L 135.61 165.29 C 135.61 164.02 134.58 162.99 133.30 162.99 C 132.03 162.99 131.00 164.02 131.00 165.29 Z M 131.00 166.29 L 131.00 167.28 C 131.00 168.55 132.03 169.58 133.30 169.58 C 134.58 169.58 135.61 168.55 135.61 167.28 L 135.61 166.29 C 135.61 165.02 134.58 163.99 133.30 163.99 C 132.03 163.99 131.00 165.02 131.00 166.29 Z M 131.00 167.28 L 131.00 168.17 C 131.00 169.44 132.03 170.47 133.30 170.47 C 134.57 170.47 135.60 169.44 135.61 168.17 L 135.61 167.28 C 135.61 166.01 134.58 164.98 133.31 164.98 C 132.03 164.98 131.00 166.01 131.00 167.28 Z M 131.01 168.16 L 131.00 169.09 C 131.00 170.35 132.03 171.39 133.29 171.39 C 134.56 171.39 135.59 170.37 135.60 169.10 L 135.60 168.18 C 135.60 166.91 134.58 165.88 133.31 165.87 C 132.04 165.87 131.01 166.90 131.01 168.16 Z M 131.01 169.07 L 131.00 170.10 C 130.99 171.36 132.01 172.40 133.27 172.41 C 134.54 172.42 135.58 171.40 135.59 170.14 L 135.59 169.11 C 135.60 167.85 134.59 166.81 133.32 166.80 C 132.05 166.79 131.02 167.81 131.01 169.07 Z M 131.01 170.09 L 130.99 171.23 C 130.97 172.49 131.98 173.53 133.25 173.55 C 134.51 173.57 135.55 172.56 135.56 171.29 L 135.58 170.15 C 135.60 168.88 134.59 167.85 133.32 167.83 C 132.06 167.81 131.02 168.82 131.01 170.09 Z M 130.99 171.22 L 130.98 172.14 C 130.95 173.40 131.96 174.45 133.22 174.47 C 134.48 174.49 135.52 173.49 135.54 172.23 L 135.56 171.30 C 135.58 170.04 134.58 169.00 133.32 168.98 C 132.06 168.96 131.02 169.96 130.99 171.22 Z M 130.98 172.13 L 130.96 173.13 C 130.93 174.39 131.93 175.43 133.19 175.46 C 134.45 175.49 135.49 174.49 135.52 173.23 L 135.54 172.24 C 135.57 170.98 134.57 169.93 133.31 169.91 C 132.05 169.88 131.01 170.88 130.98 172.13 Z M 130.96 173.12 L 130.94 174.15 C 130.90 175.41 131.89 176.45 133.15 176.49 C 134.41 176.52 135.45 175.53 135.49 174.27 L 135.51 173.24 C 135.55 171.98 134.55 170.94 133.30 170.90 C 132.04 170.87 131.00 171.86 130.96 173.12 Z M 130.94 174.14 L 130.91 175.18 C 130.87 176.44 131.85 177.49 133.11 177.52 C 134.36 177.56 135.41 176.58 135.45 175.32 L 135.48 174.28 C 135.52 173.03 134.54 171.98 133.28 171.94 C 132.03 171.90 130.98 172.89 130.94 174.14 Z M 130.91 175.17 L 130.87 176.19 C 130.83 177.44 131.81 178.50 133.06 178.54 C 134.31 178.59 135.36 177.61 135.41 176.36 L 135.44 175.34 C 135.49 174.08 134.51 173.03 133.26 172.99 C 132.01 172.94 130.96 173.92 130.91 175.17 Z M 130.88 176.18 L 130.84 177.18 C 130.78 178.43 131.75 179.49 133.00 179.54 C 134.25 179.60 135.30 178.63 135.36 177.38 L 135.40 176.37 C 135.45 175.13 134.49 174.07 133.24 174.02 C 131.99 173.96 130.94 174.93 130.88 176.18 Z M 130.85 177.17 L 130.80 178.15 C 130.74 179.39 131.69 180.45 132.93 180.51 C 134.18 180.57 135.23 179.61 135.30 178.37 L 135.34 177.39 C 135.41 176.15 134.45 175.10 133.21 175.03 C 131.97 174.97 130.91 175.93 130.85 177.17 Z M 130.81 178.14 L 130.76 179.10 C 130.69 180.34 131.64 181.39 132.88 181.46 C 134.11 181.52 135.17 180.58 135.23 179.34 L 135.28 178.38 C 135.35 177.14 134.40 176.09 133.17 176.02 C 131.93 175.96 130.88 176.91 130.81 178.14 Z M 130.77 179.10 L 130.72 180.08 C 130.66 181.31 131.60 182.36 132.83 182.42 C 134.06 182.48 135.10 181.54 135.17 180.31 L 135.22 179.34 C 135.28 178.11 134.34 177.06 133.11 177.00 C 131.88 176.93 130.84 177.88 130.77 179.10 Z M 130.73 180.09 L 130.68 181.11 C 130.62 182.33 131.57 183.37 132.79 183.43 C 134.01 183.49 135.05 182.55 135.11 181.32 L 135.16 180.30 C 135.22 179.08 134.27 178.04 133.05 177.98 C 131.83 177.93 130.79 178.87 130.73 180.09 Z M 130.69 181.13 L 130.65 182.16 C 130.60 183.37 131.55 184.40 132.76 184.45 C 133.98 184.50 135.00 183.56 135.05 182.34 L 135.10 181.31 C 135.15 180.09 134.20 179.07 132.99 179.02 C 131.77 178.97 130.74 179.91 130.69 181.13 Z M 130.66 182.17 L 130.63 183.17 C 130.59 184.38 131.53 185.39 132.74 185.44 C 133.95 185.48 134.97 184.53 135.01 183.32 L 135.04 182.33 C 135.08 181.12 134.14 180.10 132.93 180.06 C 131.72 180.02 130.71 180.96 130.66 182.17 Z M 130.64 183.18 L 130.61 184.21 C 130.57 185.41 131.52 186.42 132.72 186.46 C 133.92 186.49 134.93 185.55 134.97 184.34 L 135.00 183.31 C 135.03 182.11 134.09 181.10 132.88 181.07 C 131.68 181.03 130.68 181.98 130.64 183.18 Z M 130.62 184.22 L 130.59 185.26 C 130.56 186.45 131.50 187.45 132.70 187.48 C 133.90 187.52 134.89 186.57 134.93 185.38 L 134.96 184.34 C 134.99 183.14 134.04 182.14 132.85 182.11 C 131.65 182.08 130.65 183.02 130.62 184.22 Z M 130.60 185.26 L 130.58 186.28 C 130.54 187.47 131.48 188.46 132.68 188.49 C 133.87 188.53 134.86 187.59 134.89 186.40 L 134.92 185.37 C 134.95 184.18 134.01 183.19 132.82 183.16 C 131.62 183.13 130.63 184.07 130.60 185.26 Z M 130.59 186.28 L 130.56 187.26 C 130.53 188.45 131.47 189.43 132.65 189.46 C 133.83 189.49 134.82 188.56 134.85 187.37 L 134.88 186.39 C 134.91 185.21 133.97 184.22 132.79 184.19 C 131.60 184.16 130.62 185.10 130.59 186.28 Z M 130.58 187.26 L 130.55 188.26 C 130.52 189.44 131.44 190.42 132.62 190.45 C 133.80 190.48 134.78 189.56 134.81 188.38 L 134.84 187.38 C 134.87 186.20 133.94 185.22 132.77 185.19 C 131.59 185.15 130.61 186.08 130.58 187.26 Z M 130.57 188.26 L 130.54 189.36 C 130.50 190.52 131.42 191.50 132.58 191.53 C 133.74 191.57 134.72 190.65 134.75 189.49 L 134.78 188.38 C 134.82 187.22 133.91 186.25 132.74 186.21 C 131.58 186.18 130.61 187.09 130.57 188.26 Z M 130.57 189.36 L 130.54 190.36 C 130.50 191.50 131.40 192.46 132.55 192.50 C 133.69 192.53 134.65 191.63 134.69 190.49 L 134.72 189.49 C 134.75 188.34 133.86 187.39 132.71 187.35 C 131.56 187.31 130.61 188.21 130.57 189.36 Z M 130.57 190.36 L 130.54 191.30 C 130.51 192.43 131.40 193.37 132.53 193.40 C 133.65 193.44 134.59 192.55 134.63 191.42 L 134.66 190.48 C 134.69 189.36 133.80 188.42 132.67 188.38 C 131.55 188.35 130.60 189.24 130.57 190.36 Z M 130.58 191.31 L 130.55 192.23 C 130.53 193.34 131.41 194.26 132.52 194.29 C 133.63 194.31 134.55 193.44 134.57 192.33 L 134.60 191.41 C 134.62 190.30 133.74 189.38 132.63 189.35 C 131.52 189.32 130.60 190.20 130.58 191.31 Z M 130.58 192.25 L 130.57 193.25 C 130.55 194.34 131.42 195.24 132.52 195.26 C 133.61 195.27 134.51 194.40 134.53 193.31 L 134.55 192.31 C 134.56 191.21 133.69 190.31 132.59 190.30 C 131.50 190.28 130.60 191.15 130.58 192.25 Z M 130.59 193.27 L 130.59 194.30 C 130.59 195.38 131.46 196.26 132.54 196.26 C 133.62 196.26 134.50 195.39 134.50 194.31 L 134.51 193.28 C 134.51 192.20 133.63 191.32 132.55 191.32 C 131.47 191.32 130.59 192.19 130.59 193.27 Z M 130.61 194.33 L 130.63 195.34 C 130.64 196.41 131.52 197.26 132.59 197.25 C 133.65 197.23 134.51 196.36 134.49 195.29 L 134.48 194.28 C 134.46 193.21 133.59 192.36 132.52 192.37 C 131.45 192.39 130.60 193.26 130.61 194.33 Z M 130.65 195.38 L 130.69 196.35 C 130.73 197.41 131.61 198.23 132.66 198.19 C 133.72 198.15 134.54 197.27 134.50 196.22 L 134.47 195.25 C 134.43 194.19 133.54 193.37 132.49 193.41 C 131.44 193.45 130.61 194.33 130.65 195.38 Z M 130.73 196.43 L 130.83 197.71 C 130.91 198.74 131.82 199.51 132.85 199.43 C 133.88 199.35 134.65 198.44 134.56 197.41 L 134.46 196.13 C 134.38 195.10 133.48 194.34 132.44 194.42 C 131.41 194.50 130.65 195.40 130.73 196.43 Z M 130.94 198.02 L 131.17 198.91 C 131.42 199.88 132.41 200.47 133.39 200.21 C 134.36 199.96 134.94 198.97 134.69 198.00 L 134.46 197.11 C 134.21 196.13 133.21 195.55 132.24 195.80 C 131.27 196.05 130.68 197.05 130.94 198.02 Z M 133.62 200.08 L 133.95 199.94 C 134.85 199.56 135.27 198.52 134.89 197.62 C 134.51 196.73 133.48 196.31 132.58 196.68 L 132.24 196.83 C 131.34 197.21 130.92 198.24 131.30 199.14 C 131.68 200.04 132.72 200.46 133.62 200.08 Z M 134.83 199.03 L 135.11 198.44 C 135.51 197.58 135.13 196.55 134.26 196.15 C 133.40 195.75 132.37 196.13 131.98 197.00 L 131.70 197.59 C 131.30 198.45 131.68 199.48 132.54 199.88 C 133.41 200.28 134.43 199.90 134.83 199.03 Z M 135.14 198.28 L 135.46 197.39 C 135.77 196.50 135.30 195.54 134.42 195.22 C 133.54 194.91 132.57 195.38 132.26 196.26 L 131.94 197.15 C 131.63 198.04 132.09 199.01 132.98 199.32 C 133.86 199.63 134.83 199.17 135.14 198.28 Z M 135.45 197.32 L 135.79 196.21 C 136.07 195.33 135.58 194.40 134.70 194.13 C 133.82 193.85 132.88 194.34 132.61 195.22 L 132.26 196.33 C 131.99 197.21 132.48 198.14 133.36 198.42 C 134.24 198.69 135.17 198.20 135.45 197.32 Z M 135.77 196.18 L 136.13 194.95 C 136.39 194.08 135.89 193.17 135.02 192.92 C 134.16 192.66 133.25 193.16 132.99 194.03 L 132.63 195.26 C 132.37 196.12 132.87 197.03 133.74 197.29 C 134.61 197.54 135.52 197.05 135.77 196.18 Z M 136.12 194.94 L 136.24 194.50 C 136.49 193.64 136.00 192.74 135.14 192.49 C 134.28 192.25 133.38 192.74 133.14 193.60 L 133.01 194.04 C 132.76 194.90 133.25 195.80 134.11 196.04 C 134.97 196.29 135.87 195.80 136.12 194.94 Z"
      fill="black"
      fill-rule="nonzero" /><path d="M 129.53 134.37 L 130.26 135.05 C 131.12 135.86 132.47 135.82 133.28 134.96 C 134.09 134.10 134.05 132.75 133.19 131.94 L 132.46 131.25 C 131.60 130.44 130.25 130.48 129.44 131.34 C 128.63 132.20 128.67 133.56 129.53 134.37 Z M 130.23 135.03 L 130.94 135.73 C 131.79 136.56 133.15 136.54 133.97 135.69 C 134.80 134.84 134.78 133.49 133.94 132.66 L 133.22 131.96 C 132.37 131.13 131.01 131.15 130.19 132.00 C 129.36 132.85 129.38 134.21 130.23 135.03 Z M 130.88 135.68 L 131.58 136.41 C 132.40 137.26 133.76 137.29 134.62 136.47 C 135.48 135.65 135.51 134.29 134.68 133.43 L 133.99 132.71 C 133.17 131.85 131.81 131.82 130.95 132.64 C 130.09 133.46 130.06 134.83 130.88 135.68 Z M 131.53 136.31 L 132.18 137.06 C 132.94 137.94 134.29 138.04 135.17 137.27 C 136.06 136.50 136.15 135.16 135.39 134.27 L 134.74 133.52 C 133.97 132.64 132.62 132.54 131.74 133.31 C 130.85 134.08 130.76 135.42 131.53 136.31 Z M 132.17 136.92 L 132.78 137.71 C 133.48 138.59 134.76 138.75 135.65 138.06 C 136.54 137.36 136.70 136.08 136.00 135.19 L 135.39 134.41 C 134.69 133.52 133.41 133.36 132.52 134.06 C 131.63 134.75 131.48 136.04 132.17 136.92 Z M 132.82 137.58 L 133.40 138.39 C 134.03 139.26 135.24 139.46 136.11 138.84 C 136.98 138.21 137.18 137.00 136.55 136.13 L 135.97 135.32 C 135.34 134.45 134.13 134.25 133.26 134.87 C 132.39 135.50 132.19 136.71 132.82 137.58 Z M 133.45 138.29 L 134.01 139.13 C 134.58 139.97 135.72 140.20 136.57 139.63 C 137.41 139.06 137.64 137.92 137.07 137.07 L 136.51 136.24 C 135.94 135.39 134.80 135.16 133.95 135.73 C 133.11 136.30 132.88 137.44 133.45 138.29 Z M 134.05 139.05 L 134.58 139.89 C 135.11 140.71 136.20 140.95 137.02 140.43 C 137.85 139.90 138.09 138.81 137.56 137.99 L 137.03 137.15 C 136.51 136.33 135.41 136.08 134.59 136.61 C 133.76 137.13 133.52 138.23 134.05 139.05 Z M 134.61 139.84 L 135.14 140.69 C 135.63 141.50 136.69 141.75 137.50 141.25 C 138.30 140.75 138.55 139.70 138.06 138.89 L 137.53 138.04 C 137.04 137.23 135.98 136.98 135.17 137.48 C 134.37 137.97 134.11 139.03 134.61 139.84 Z M 135.17 140.65 L 135.70 141.51 C 136.17 142.30 137.19 142.55 137.98 142.07 C 138.76 141.60 139.01 140.58 138.54 139.79 L 138.02 138.93 C 137.55 138.14 136.52 137.89 135.74 138.37 C 134.95 138.84 134.70 139.86 135.17 140.65 Z M 135.72 141.49 L 135.91 141.80 C 136.38 142.57 137.37 142.82 138.14 142.36 C 138.91 141.90 139.16 140.90 138.70 140.13 L 138.51 139.81 C 138.05 139.05 137.05 138.80 136.28 139.26 C 135.51 139.72 135.26 140.72 135.72 141.49 Z"
      fill="black"
      fill-rule="nonzero" /><path d="M 163.49 157.23 L 163.18 158.21 C 162.82 159.40 163.48 160.65 164.66 161.02 C 165.85 161.39 167.10 160.73 167.47 159.54 L 167.77 158.55 C 168.14 157.37 167.48 156.11 166.30 155.75 C 165.11 155.38 163.86 156.04 163.49 157.23 Z M 163.16 158.18 L 162.85 159.15 C 162.46 160.35 163.12 161.63 164.32 162.01 C 165.51 162.40 166.79 161.74 167.18 160.55 L 167.49 159.58 C 167.87 158.38 167.22 157.10 166.02 156.71 C 164.83 156.33 163.55 156.99 163.16 158.18 Z M 162.84 159.09 L 162.51 160.03 C 162.09 161.23 162.73 162.54 163.93 162.96 C 165.13 163.38 166.44 162.74 166.86 161.54 L 167.19 160.61 C 167.60 159.41 166.97 158.09 165.77 157.68 C 164.57 157.26 163.26 157.89 162.84 159.09 Z M 162.52 159.94 L 162.17 160.83 C 161.70 162.03 162.29 163.38 163.49 163.85 C 164.69 164.32 166.04 163.72 166.51 162.53 L 166.86 161.64 C 167.32 160.44 166.73 159.09 165.53 158.62 C 164.34 158.15 162.98 158.74 162.52 159.94 Z M 162.20 160.71 L 161.79 161.61 C 161.26 162.79 161.78 164.18 162.96 164.72 C 164.14 165.25 165.53 164.73 166.06 163.55 L 166.47 162.64 C 167.01 161.46 166.48 160.08 165.31 159.54 C 164.13 159.01 162.74 159.53 162.20 160.71 Z M 161.84 161.52 L 161.40 162.39 C 160.81 163.55 161.27 164.96 162.42 165.54 C 163.58 166.13 164.99 165.67 165.57 164.52 L 166.02 163.64 C 166.60 162.49 166.14 161.08 164.99 160.49 C 163.84 159.91 162.43 160.37 161.84 161.52 Z M 161.42 162.35 L 160.95 163.22 C 160.34 164.36 160.77 165.78 161.90 166.39 C 163.04 167.00 164.46 166.58 165.07 165.44 L 165.55 164.56 C 166.16 163.42 165.73 162.00 164.59 161.39 C 163.45 160.78 162.03 161.21 161.42 162.35 Z M 160.95 163.22 L 160.48 164.10 C 159.87 165.24 160.30 166.66 161.43 167.27 C 162.57 167.88 163.99 167.45 164.60 166.32 L 165.07 165.44 C 165.68 164.30 165.26 162.88 164.12 162.27 C 162.98 161.66 161.56 162.09 160.95 163.22 Z M 160.47 164.13 L 160.04 164.95 C 159.45 166.09 159.89 167.50 161.03 168.10 C 162.17 168.70 163.58 168.25 164.18 167.11 L 164.61 166.29 C 165.21 165.15 164.76 163.74 163.62 163.14 C 162.48 162.55 161.07 162.99 160.47 164.13 Z M 160.04 164.97 L 159.59 165.84 C 159.01 166.98 159.46 168.39 160.60 168.97 C 161.75 169.56 163.15 169.11 163.74 167.96 L 164.18 167.09 C 164.77 165.95 164.32 164.55 163.17 163.96 C 162.03 163.37 160.63 163.83 160.04 164.97 Z M 159.59 165.85 L 159.13 166.77 C 158.55 167.91 159.00 169.31 160.15 169.89 C 161.29 170.47 162.69 170.02 163.27 168.87 L 163.74 167.95 C 164.32 166.81 163.86 165.41 162.72 164.83 C 161.57 164.25 160.18 164.71 159.59 165.85 Z M 159.13 166.77 L 158.65 167.73 C 158.07 168.87 158.52 170.27 159.66 170.85 C 160.80 171.43 162.20 170.97 162.78 169.83 L 163.26 168.87 C 163.84 167.73 163.39 166.33 162.25 165.75 C 161.11 165.18 159.71 165.63 159.13 166.77 Z M 158.65 167.73 L 158.18 168.66 C 157.60 169.80 158.05 171.19 159.19 171.77 C 160.32 172.35 161.71 171.90 162.29 170.76 L 162.77 169.83 C 163.35 168.69 162.90 167.30 161.76 166.72 C 160.62 166.15 159.23 166.60 158.65 167.73 Z M 158.19 168.67 L 157.71 169.59 C 157.14 170.73 157.59 172.11 158.72 172.69 C 159.85 173.27 161.23 172.82 161.81 171.69 L 162.28 170.76 C 162.86 169.63 162.41 168.24 161.28 167.66 C 160.15 167.09 158.77 167.53 158.19 168.67 Z M 157.72 169.60 L 157.26 170.52 C 156.68 171.65 157.13 173.02 158.26 173.60 C 159.38 174.17 160.76 173.72 161.33 172.60 L 161.80 171.68 C 162.37 170.55 161.93 169.17 160.80 168.60 C 159.67 168.03 158.30 168.48 157.72 169.60 Z M 157.26 170.53 L 156.82 171.41 C 156.25 172.54 156.70 173.91 157.83 174.47 C 158.95 175.04 160.32 174.59 160.89 173.46 L 161.33 172.58 C 161.90 171.46 161.44 170.09 160.32 169.52 C 159.20 168.96 157.83 169.41 157.26 170.53 Z M 156.82 171.43 L 156.41 172.25 C 155.86 173.37 156.31 174.73 157.44 175.29 C 158.56 175.85 159.92 175.39 160.48 174.27 L 160.88 173.45 C 161.44 172.32 160.98 170.96 159.86 170.41 C 158.74 169.85 157.38 170.31 156.82 171.43 Z M 156.41 172.28 L 155.93 173.30 C 155.39 174.42 155.86 175.77 156.98 176.31 C 158.10 176.84 159.45 176.37 159.98 175.25 L 160.47 174.23 C 161.01 173.11 160.54 171.77 159.42 171.23 C 158.30 170.69 156.95 171.16 156.41 172.28 Z M 155.93 173.35 L 155.51 174.25 C 155.00 175.37 155.49 176.69 156.61 177.20 C 157.73 177.72 159.05 177.23 159.56 176.11 L 159.98 175.21 C 160.49 174.09 160.01 172.77 158.89 172.25 C 157.77 171.74 156.44 172.23 155.93 173.35 Z M 155.52 174.29 L 155.15 175.13 C 154.66 176.24 155.16 177.54 156.27 178.04 C 157.39 178.53 158.69 178.03 159.18 176.91 L 159.56 176.07 C 160.05 174.96 159.55 173.66 158.43 173.16 C 157.32 172.67 156.02 173.17 155.52 174.29 Z M 155.16 175.15 L 154.81 175.97 C 154.33 177.08 154.84 178.36 155.95 178.84 C 157.05 179.32 158.34 178.81 158.82 177.70 L 159.18 176.89 C 159.65 175.78 159.14 174.49 158.04 174.01 C 156.93 173.53 155.64 174.04 155.16 175.15 Z M 154.82 175.98 L 154.45 176.83 C 153.98 177.93 154.50 179.21 155.60 179.68 C 156.70 180.15 157.98 179.64 158.45 178.53 L 158.81 177.69 C 159.28 176.59 158.77 175.31 157.67 174.84 C 156.56 174.37 155.29 174.88 154.82 175.98 Z M 154.46 176.84 L 154.07 177.77 C 153.60 178.86 154.12 180.13 155.22 180.60 C 156.32 181.07 157.58 180.55 158.05 179.45 L 158.44 178.53 C 158.91 177.43 158.40 176.16 157.30 175.69 C 156.20 175.23 154.93 175.74 154.46 176.84 Z M 154.08 177.77 L 153.64 178.82 C 153.17 179.91 153.69 181.17 154.78 181.64 C 155.87 182.10 157.13 181.59 157.60 180.49 L 158.04 179.45 C 158.50 178.35 157.99 177.09 156.90 176.63 C 155.80 176.17 154.54 176.68 154.08 177.77 Z M 153.65 178.82 L 153.29 179.66 C 152.83 180.75 153.34 182.00 154.43 182.46 C 155.52 182.92 156.77 182.42 157.23 181.33 L 157.59 180.49 C 158.05 179.40 157.54 178.15 156.45 177.69 C 155.36 177.23 154.11 177.73 153.65 178.82 Z M 153.30 179.67 L 152.92 180.57 C 152.46 181.65 152.97 182.90 154.06 183.36 C 155.14 183.81 156.39 183.31 156.85 182.22 L 157.23 181.32 C 157.68 180.24 157.17 178.99 156.09 178.53 C 155.01 178.07 153.76 178.58 153.30 179.67 Z M 152.93 180.58 L 152.53 181.52 C 152.08 182.60 152.59 183.85 153.67 184.30 C 154.75 184.75 156.00 184.24 156.45 183.16 L 156.84 182.21 C 157.29 181.13 156.78 179.89 155.70 179.44 C 154.62 178.99 153.38 179.50 152.93 180.58 Z M 152.54 181.54 L 152.14 182.51 C 151.70 183.58 152.21 184.82 153.29 185.26 C 154.37 185.70 155.60 185.19 156.05 184.11 L 156.44 183.14 C 156.89 182.06 156.37 180.83 155.29 180.39 C 154.21 179.94 152.98 180.46 152.54 181.54 Z M 152.14 182.52 L 151.75 183.49 C 151.32 184.57 151.84 185.80 152.92 186.23 C 153.99 186.66 155.22 186.14 155.65 185.06 L 156.04 184.09 C 156.48 183.02 155.95 181.79 154.88 181.36 C 153.80 180.92 152.57 181.45 152.14 182.52 Z M 151.76 183.52 L 151.37 184.50 C 150.95 185.57 151.48 186.78 152.56 187.20 C 153.63 187.62 154.84 187.09 155.26 186.02 L 155.65 185.04 C 156.07 183.97 155.54 182.75 154.46 182.33 C 153.39 181.91 152.18 182.44 151.76 183.52 Z M 151.39 184.52 L 151.02 185.48 C 150.61 186.55 151.15 187.74 152.22 188.15 C 153.28 188.55 154.48 188.02 154.88 186.95 L 155.25 185.99 C 155.66 184.93 155.12 183.73 154.05 183.33 C 152.99 182.92 151.79 183.45 151.39 184.52 Z M 151.03 185.50 L 150.69 186.44 C 150.29 187.50 150.83 188.68 151.89 189.07 C 152.95 189.46 154.13 188.93 154.52 187.87 L 154.87 186.93 C 155.27 185.87 154.73 184.69 153.67 184.30 C 152.61 183.90 151.43 184.44 151.03 185.50 Z M 150.70 186.46 L 150.37 187.37 C 149.98 188.42 150.52 189.59 151.58 189.97 C 152.63 190.35 153.79 189.81 154.17 188.76 L 154.51 187.85 C 154.89 186.80 154.35 185.63 153.30 185.25 C 152.25 184.86 151.08 185.41 150.70 186.46 Z M 150.38 187.39 L 150.06 188.29 C 149.68 189.33 150.23 190.48 151.27 190.86 C 152.31 191.23 153.46 190.69 153.83 189.65 L 154.16 188.74 C 154.53 187.70 153.99 186.55 152.95 186.18 C 151.91 185.80 150.76 186.34 150.38 187.39 Z M 150.08 188.31 L 149.72 189.31 C 149.36 190.35 149.90 191.48 150.93 191.84 C 151.97 192.21 153.10 191.67 153.46 190.63 L 153.82 189.63 C 154.18 188.60 153.64 187.46 152.61 187.10 C 151.57 186.73 150.44 187.28 150.08 188.31 Z M 149.74 189.35 L 149.41 190.32 C 149.06 191.34 149.61 192.45 150.64 192.80 C 151.66 193.15 152.78 192.59 153.12 191.57 L 153.45 190.60 C 153.80 189.57 153.25 188.46 152.22 188.12 C 151.19 187.77 150.08 188.32 149.74 189.35 Z M 149.42 190.36 L 149.12 191.30 C 148.81 192.32 149.37 193.40 150.39 193.72 C 151.41 194.04 152.50 193.48 152.82 192.46 L 153.11 191.52 C 153.43 190.50 152.86 189.41 151.84 189.09 C 150.82 188.78 149.74 189.34 149.42 190.36 Z M 149.13 191.37 L 148.88 192.27 C 148.60 193.28 149.19 194.34 150.21 194.62 C 151.23 194.90 152.28 194.31 152.57 193.29 L 152.81 192.39 C 153.10 191.37 152.50 190.32 151.48 190.03 C 150.47 189.75 149.41 190.35 149.13 191.37 Z M 148.88 192.36 L 148.65 193.36 C 148.42 194.38 149.06 195.39 150.07 195.62 C 151.09 195.86 152.10 195.22 152.33 194.20 L 152.56 193.20 C 152.80 192.18 152.16 191.17 151.14 190.94 C 150.13 190.70 149.11 191.34 148.88 192.36 Z M 148.66 193.45 L 148.48 194.44 C 148.30 195.45 148.97 196.42 149.98 196.60 C 150.99 196.79 151.96 196.12 152.15 195.10 L 152.33 194.12 C 152.51 193.10 151.84 192.13 150.83 191.95 C 149.81 191.77 148.84 192.44 148.66 193.45 Z M 148.50 194.50 L 148.35 195.46 C 148.20 196.47 148.89 197.40 149.90 197.55 C 150.90 197.70 151.84 197.01 151.99 196.01 L 152.13 195.04 C 152.28 194.04 151.59 193.10 150.59 192.95 C 149.58 192.80 148.65 193.49 148.50 194.50 Z M 148.37 195.49 L 148.28 196.11 C 148.15 197.10 148.84 198.02 149.84 198.16 C 150.83 198.29 151.75 197.60 151.88 196.60 L 151.97 195.98 C 152.11 194.99 151.41 194.07 150.42 193.94 C 149.42 193.80 148.51 194.49 148.37 195.49 Z"
      fill="black"
      fill-rule="nonzero" /><path d="M 142.74 154.07 L 142.75 154.94 C 142.76 156.02 143.65 156.89 144.73 156.87 C 145.81 156.86 146.68 155.98 146.66 154.89 L 146.66 154.02 C 146.64 152.94 145.76 152.07 144.67 152.08 C 143.59 152.10 142.72 152.98 142.74 154.07 Z M 142.70 155.07 L 142.77 155.98 C 142.85 157.08 143.82 157.91 144.92 157.83 C 146.03 157.75 146.86 156.78 146.78 155.68 L 146.71 154.77 C 146.63 153.66 145.66 152.83 144.56 152.91 C 143.45 152.99 142.62 153.96 142.70 155.07 Z M 142.75 156.20 L 142.93 157.20 C 143.14 158.32 144.22 159.05 145.34 158.85 C 146.45 158.64 147.19 157.56 146.98 156.44 L 146.80 155.45 C 146.59 154.33 145.52 153.59 144.40 153.80 C 143.28 154.01 142.54 155.09 142.75 156.20 Z M 142.95 157.47 L 143.31 158.58 C 143.67 159.69 144.86 160.30 145.97 159.94 C 147.08 159.58 147.69 158.39 147.33 157.28 L 146.97 156.17 C 146.61 155.06 145.42 154.45 144.31 154.81 C 143.20 155.17 142.59 156.36 142.95 157.47 Z M 143.35 158.79 L 143.73 159.64 C 144.20 160.73 145.47 161.22 146.55 160.75 C 147.64 160.27 148.13 159.01 147.65 157.92 L 147.28 157.07 C 146.81 155.99 145.54 155.49 144.46 155.97 C 143.37 156.45 142.88 157.71 143.35 158.79 Z M 143.77 159.76 L 144.21 160.63 C 144.75 161.69 146.05 162.11 147.11 161.57 C 148.17 161.03 148.60 159.73 148.05 158.66 L 147.61 157.80 C 147.07 156.74 145.77 156.32 144.71 156.86 C 143.65 157.40 143.23 158.70 143.77 159.76 Z M 144.24 160.71 L 144.74 161.60 C 145.32 162.64 146.65 163.02 147.69 162.43 C 148.74 161.84 149.11 160.52 148.52 159.48 L 148.02 158.58 C 147.44 157.54 146.12 157.17 145.07 157.75 C 144.02 158.34 143.65 159.66 144.24 160.71 Z M 144.76 161.66 L 145.29 162.56 C 145.91 163.59 147.25 163.93 148.29 163.31 C 149.32 162.69 149.66 161.35 149.04 160.32 L 148.50 159.42 C 147.89 158.38 146.55 158.05 145.51 158.66 C 144.48 159.28 144.14 160.62 144.76 161.66 Z M 145.31 162.60 L 145.86 163.49 C 146.50 164.52 147.86 164.83 148.89 164.19 C 149.91 163.55 150.23 162.19 149.59 161.16 L 149.03 160.28 C 148.39 159.25 147.04 158.93 146.01 159.58 C 144.98 160.22 144.67 161.57 145.31 162.60 Z M 145.87 163.52 L 146.42 164.37 C 147.07 165.40 148.44 165.70 149.47 165.04 C 150.49 164.38 150.79 163.01 150.13 161.99 L 149.58 161.13 C 148.92 160.11 147.56 159.81 146.53 160.47 C 145.51 161.13 145.21 162.49 145.87 163.52 Z M 146.42 164.39 L 147.03 165.34 C 147.70 166.36 149.08 166.65 150.10 165.98 C 151.13 165.31 151.41 163.94 150.74 162.91 L 150.13 161.97 C 149.46 160.95 148.09 160.66 147.06 161.33 C 146.04 162.00 145.75 163.37 146.42 164.39 Z M 147.04 165.35 L 147.65 166.28 C 148.33 167.31 149.71 167.59 150.73 166.91 C 151.75 166.24 152.03 164.86 151.36 163.84 L 150.74 162.90 C 150.07 161.88 148.69 161.60 147.67 162.27 C 146.64 162.95 146.36 164.32 147.04 165.35 Z M 147.66 166.29 L 148.22 167.14 C 148.90 168.16 150.27 168.44 151.30 167.76 C 152.32 167.08 152.60 165.70 151.92 164.68 L 151.36 163.83 C 150.68 162.81 149.30 162.53 148.28 163.21 C 147.26 163.89 146.98 165.27 147.66 166.29 Z M 148.22 167.13 L 148.73 167.91 C 149.41 168.93 150.78 169.21 151.80 168.53 C 152.83 167.86 153.11 166.48 152.43 165.46 L 151.92 164.68 C 151.24 163.66 149.87 163.38 148.84 164.06 C 147.82 164.73 147.54 166.11 148.22 167.13 Z M 148.72 167.90 L 149.18 168.60 C 149.85 169.63 151.23 169.92 152.26 169.25 C 153.28 168.57 153.57 167.20 152.90 166.17 L 152.44 165.47 C 151.77 164.44 150.39 164.15 149.37 164.82 C 148.34 165.49 148.05 166.87 148.72 167.90 Z M 149.17 168.58 L 149.72 169.45 C 150.38 170.49 151.75 170.79 152.79 170.13 C 153.82 169.48 154.13 168.10 153.47 167.07 L 152.92 166.20 C 152.26 165.16 150.89 164.86 149.85 165.51 C 148.82 166.17 148.51 167.54 149.17 168.58 Z M 149.70 169.42 L 150.23 170.28 C 150.87 171.32 152.24 171.65 153.28 171.01 C 154.33 170.37 154.66 169.00 154.02 167.96 L 153.49 167.10 C 152.85 166.05 151.48 165.73 150.43 166.37 C 149.39 167.01 149.06 168.38 149.70 169.42 Z M 150.22 170.26 L 150.71 171.08 C 151.34 172.13 152.71 172.47 153.76 171.84 C 154.81 171.20 155.15 169.84 154.52 168.79 L 154.03 167.98 C 153.39 166.92 152.03 166.58 150.98 167.22 C 149.93 167.85 149.59 169.21 150.22 170.26 Z M 150.71 171.07 L 151.20 171.89 C 151.83 172.94 153.19 173.28 154.24 172.65 C 155.29 172.02 155.63 170.65 155.00 169.60 L 154.52 168.79 C 153.88 167.74 152.52 167.40 151.47 168.03 C 150.42 168.66 150.08 170.02 150.71 171.07 Z M 151.20 171.90 L 151.71 172.73 C 152.35 173.78 153.71 174.11 154.76 173.48 C 155.81 172.84 156.14 171.48 155.50 170.43 L 155.00 169.59 C 154.36 168.55 153.00 168.21 151.95 168.85 C 150.90 169.49 150.57 170.85 151.20 171.90 Z M 151.72 172.75 L 152.25 173.60 C 152.89 174.65 154.26 174.97 155.30 174.33 C 156.35 173.68 156.67 172.32 156.03 171.27 L 155.50 170.42 C 154.85 169.37 153.49 169.05 152.44 169.69 C 151.40 170.34 151.08 171.70 151.72 172.75 Z M 152.26 173.62 L 152.80 174.49 C 153.46 175.52 154.82 175.84 155.86 175.18 C 156.90 174.53 157.21 173.16 156.56 172.13 L 156.02 171.26 C 155.36 170.22 154.00 169.91 152.96 170.56 C 151.92 171.21 151.61 172.58 152.26 173.62 Z M 152.81 174.50 L 153.34 175.32 C 154.00 176.35 155.37 176.65 156.40 176.00 C 157.43 175.34 157.73 173.97 157.07 172.94 L 156.55 172.12 C 155.89 171.08 154.52 170.78 153.49 171.44 C 152.46 172.10 152.16 173.47 152.81 174.50 Z M 153.35 175.32 L 153.88 176.16 C 154.54 177.19 155.91 177.49 156.94 176.83 C 157.97 176.17 158.27 174.80 157.61 173.78 L 157.07 172.93 C 156.41 171.91 155.04 171.61 154.01 172.27 C 152.98 172.93 152.69 174.29 153.35 175.32 Z M 153.89 176.16 L 154.44 177.02 C 155.09 178.05 156.46 178.35 157.49 177.69 C 158.51 177.03 158.81 175.66 158.16 174.64 L 157.61 173.78 C 156.95 172.75 155.58 172.45 154.56 173.11 C 153.53 173.77 153.23 175.13 153.89 176.16 Z M 154.43 177.01 L 154.97 177.86 C 155.63 178.89 156.99 179.19 158.02 178.54 C 159.04 177.89 159.35 176.53 158.70 175.50 L 158.16 174.65 C 157.51 173.62 156.14 173.31 155.12 173.97 C 154.09 174.62 153.78 175.98 154.43 177.01 Z M 154.97 177.85 L 155.50 178.69 C 156.15 179.72 157.51 180.03 158.54 179.38 C 159.57 178.73 159.87 177.38 159.23 176.35 L 158.70 175.51 C 158.05 174.48 156.69 174.17 155.66 174.82 C 154.63 175.46 154.33 176.82 154.97 177.85 Z M 155.51 178.69 L 156.04 179.54 C 156.69 180.56 158.04 180.87 159.07 180.23 C 160.09 179.58 160.40 178.22 159.76 177.20 L 159.22 176.35 C 158.58 175.32 157.22 175.01 156.19 175.66 C 155.17 176.31 154.86 177.66 155.51 178.69 Z M 156.05 179.54 L 156.59 180.39 C 157.24 181.42 158.59 181.72 159.61 181.07 C 160.64 180.42 160.94 179.06 160.29 178.04 L 159.75 177.19 C 159.10 176.17 157.74 175.87 156.72 176.52 C 155.70 177.17 155.40 178.52 156.05 179.54 Z M 156.60 180.40 L 157.15 181.25 C 157.80 182.26 159.15 182.55 160.17 181.90 C 161.18 181.24 161.47 179.89 160.82 178.87 L 160.28 178.03 C 159.62 177.02 158.27 176.73 157.25 177.38 C 156.24 178.04 155.95 179.39 156.60 180.40 Z M 157.16 181.25 L 157.71 182.09 C 158.36 183.10 159.71 183.38 160.72 182.72 C 161.73 182.06 162.01 180.71 161.35 179.71 L 160.81 178.87 C 160.15 177.86 158.80 177.58 157.79 178.23 C 156.78 178.89 156.50 180.24 157.16 181.25 Z M 157.71 182.09 L 158.26 182.93 C 158.92 183.93 160.26 184.21 161.27 183.55 C 162.27 182.90 162.55 181.55 161.90 180.55 L 161.35 179.71 C 160.69 178.70 159.34 178.42 158.34 179.08 C 157.34 179.74 157.05 181.08 157.71 182.09 Z M 158.26 182.91 L 158.81 183.75 C 159.46 184.76 160.80 185.04 161.80 184.39 C 162.80 183.74 163.09 182.40 162.44 181.39 L 161.89 180.56 C 161.24 179.55 159.90 179.27 158.90 179.92 C 157.90 180.57 157.61 181.91 158.26 182.91 Z M 158.80 183.74 L 159.34 184.57 C 159.98 185.57 161.31 185.87 162.32 185.23 C 163.32 184.58 163.62 183.25 162.97 182.24 L 162.44 181.41 C 161.80 180.41 160.46 180.11 159.46 180.76 C 158.46 181.40 158.16 182.73 158.80 183.74 Z M 159.34 184.56 L 159.87 185.40 C 160.51 186.40 161.84 186.69 162.84 186.06 C 163.84 185.42 164.14 184.09 163.50 183.09 L 162.97 182.25 C 162.33 181.25 161.00 180.96 160.00 181.59 C 159.00 182.23 158.70 183.56 159.34 184.56 Z M 159.89 185.40 L 160.43 186.25 C 161.07 187.24 162.40 187.53 163.39 186.88 C 164.39 186.24 164.67 184.92 164.03 183.92 L 163.49 183.08 C 162.85 182.09 161.52 181.80 160.53 182.44 C 159.53 183.08 159.25 184.41 159.89 185.40 Z M 160.45 186.26 L 161.01 187.11 C 161.67 188.09 162.99 188.36 163.97 187.71 C 164.95 187.06 165.22 185.74 164.57 184.75 L 164.01 183.91 C 163.36 182.92 162.03 182.66 161.05 183.31 C 160.07 183.96 159.80 185.28 160.45 186.26 Z M 161.04 187.14 L 161.62 187.97 C 162.28 188.94 163.61 189.19 164.57 188.52 C 165.54 187.86 165.78 186.54 165.12 185.57 L 164.54 184.73 C 163.88 183.76 162.56 183.52 161.59 184.18 C 160.62 184.85 160.38 186.17 161.04 187.14 Z M 161.64 187.99 L 162.23 188.82 C 162.90 189.78 164.22 190.00 165.18 189.33 C 166.13 188.66 166.36 187.34 165.68 186.39 L 165.10 185.55 C 164.42 184.60 163.10 184.37 162.15 185.05 C 161.20 185.72 160.97 187.04 161.64 187.99 Z M 162.25 188.83 L 162.83 189.64 C 163.51 190.59 164.82 190.80 165.76 190.13 C 166.71 189.45 166.92 188.14 166.25 187.19 L 165.67 186.38 C 164.99 185.44 163.68 185.22 162.73 185.90 C 161.79 186.57 161.57 187.89 162.25 188.83 Z M 162.84 189.64 L 163.40 190.42 C 164.08 191.36 165.38 191.57 166.32 190.90 C 167.26 190.22 167.47 188.91 166.80 187.98 L 166.24 187.20 C 165.56 186.26 164.26 186.05 163.32 186.72 C 162.38 187.39 162.17 188.70 162.84 189.64 Z M 163.41 190.41 L 163.97 191.19 C 164.64 192.12 165.94 192.34 166.87 191.67 C 167.80 191.00 168.02 189.70 167.35 188.77 L 166.79 187.99 C 166.12 187.05 164.82 186.84 163.89 187.51 C 162.96 188.18 162.74 189.48 163.41 190.41 Z M 163.98 191.19 L 164.54 191.96 C 165.21 192.89 166.50 193.10 167.43 192.43 C 168.35 191.76 168.56 190.47 167.89 189.54 L 167.34 188.77 C 166.67 187.84 165.38 187.63 164.45 188.30 C 163.53 188.97 163.32 190.26 163.98 191.19 Z M 164.56 191.97 L 165.16 192.78 C 165.83 193.70 167.12 193.90 168.03 193.22 C 168.95 192.55 169.14 191.27 168.47 190.35 L 167.87 189.54 C 167.20 188.62 165.92 188.43 165.00 189.10 C 164.09 189.77 163.89 191.05 164.56 191.97 Z M 165.19 192.80 L 165.81 193.63 C 166.49 194.53 167.77 194.71 168.67 194.03 C 169.57 193.36 169.75 192.08 169.08 191.17 L 168.45 190.34 C 167.77 189.44 166.49 189.26 165.59 189.94 C 164.69 190.61 164.51 191.89 165.19 192.80 Z M 165.83 193.64 L 166.41 194.39 C 167.10 195.28 168.37 195.45 169.26 194.76 C 170.15 194.08 170.31 192.81 169.63 191.92 L 169.05 191.17 C 168.37 190.28 167.10 190.11 166.21 190.79 C 165.32 191.47 165.15 192.75 165.83 193.64 Z M 166.43 194.40 L 167.05 195.19 C 167.74 196.07 169.01 196.22 169.89 195.54 C 170.76 194.85 170.92 193.58 170.23 192.70 L 169.61 191.91 C 168.93 191.03 167.66 190.88 166.78 191.57 C 165.90 192.25 165.75 193.52 166.43 194.40 Z M 167.07 195.20 L 167.72 196.01 C 168.41 196.87 169.67 197.02 170.54 196.33 C 171.40 195.63 171.55 194.37 170.86 193.51 L 170.21 192.70 C 169.52 191.83 168.26 191.69 167.39 192.38 C 166.52 193.07 166.38 194.33 167.07 195.20 Z M 167.74 196.02 L 168.39 196.82 C 169.09 197.67 170.35 197.80 171.20 197.10 C 172.05 196.41 172.18 195.15 171.49 194.30 L 170.83 193.50 C 170.14 192.64 168.88 192.51 168.03 193.21 C 167.17 193.90 167.04 195.16 167.74 196.02 Z M 168.42 196.83 L 169.08 197.62 C 169.78 198.46 171.03 198.57 171.87 197.87 C 172.71 197.17 172.82 195.92 172.12 195.08 L 171.46 194.29 C 170.76 193.45 169.51 193.34 168.67 194.04 C 167.83 194.74 167.72 195.99 168.42 196.83 Z M 169.12 197.63 L 169.79 198.41 C 170.50 199.22 171.73 199.31 172.55 198.61 C 173.37 197.90 173.46 196.66 172.75 195.84 L 172.08 195.07 C 171.38 194.25 170.14 194.16 169.32 194.87 C 168.50 195.57 168.41 196.81 169.12 197.63 Z M 169.83 198.42 L 170.50 199.16 C 171.22 199.95 172.44 200.01 173.23 199.30 C 174.03 198.58 174.09 197.36 173.37 196.57 L 172.71 195.83 C 171.99 195.03 170.77 194.97 169.97 195.69 C 169.18 196.40 169.12 197.63 169.83 198.42 Z M 170.55 199.18 L 171.23 199.89 C 171.95 200.65 173.16 200.68 173.93 199.96 C 174.69 199.23 174.72 198.02 174.00 197.26 L 173.32 196.55 C 172.60 195.78 171.39 195.75 170.62 196.48 C 169.86 197.20 169.83 198.41 170.55 199.18 Z M 171.28 199.91 L 171.98 200.60 C 172.72 201.33 173.91 201.33 174.64 200.59 C 175.38 199.86 175.37 198.66 174.64 197.93 L 173.94 197.24 C 173.20 196.50 172.01 196.51 171.28 197.24 C 170.54 197.98 170.54 199.17 171.28 199.91 Z M 172.04 200.62 L 172.99 201.51 C 173.75 202.21 174.92 202.16 175.62 201.41 C 176.32 200.66 176.27 199.49 175.52 198.79 L 174.57 197.90 C 173.82 197.21 172.64 197.25 171.95 198.00 C 171.25 198.75 171.29 199.93 172.04 200.62 Z M 173.07 201.53 L 173.99 202.33 C 174.76 202.99 175.91 202.90 176.57 202.13 C 177.23 201.37 177.14 200.21 176.37 199.56 L 175.45 198.76 C 174.68 198.11 173.53 198.19 172.87 198.96 C 172.22 199.72 172.30 200.88 173.07 201.53 Z M 174.11 202.38 L 174.75 202.86 C 175.54 203.45 176.67 203.29 177.26 202.49 C 177.85 201.70 177.69 200.57 176.90 199.98 L 176.26 199.50 C 175.46 198.91 174.34 199.07 173.74 199.87 C 173.15 200.66 173.32 201.79 174.11 202.38 Z M 176.21 203.13 L 176.36 203.10 C 177.30 202.89 177.90 201.95 177.68 201.00 C 177.47 200.05 176.53 199.46 175.58 199.67 L 175.44 199.70 C 174.49 199.92 173.89 200.86 174.11 201.81 C 174.32 202.75 175.26 203.35 176.21 203.13 Z M 177.35 200.38 L 176.86 199.71 C 176.31 198.95 175.24 198.78 174.48 199.34 C 173.71 199.89 173.55 200.96 174.10 201.73 L 174.59 202.39 C 175.14 203.16 176.21 203.32 176.98 202.77 C 177.74 202.21 177.91 201.14 177.35 200.38 Z M 176.75 199.66 L 175.89 198.62 C 175.30 197.92 174.26 197.83 173.56 198.41 C 172.86 199.00 172.76 200.04 173.35 200.74 L 174.21 201.78 C 174.80 202.48 175.84 202.57 176.54 201.99 C 177.24 201.40 177.34 200.36 176.75 199.66 Z M 175.85 198.63 L 175.64 198.39 C 175.06 197.71 174.04 197.62 173.36 198.20 C 172.68 198.78 172.59 199.80 173.17 200.48 L 173.38 200.73 C 173.96 201.41 174.98 201.49 175.67 200.92 C 176.35 200.34 176.43 199.32 175.85 198.63 Z"
      fill="black"
      fill-rule="nonzero" /></svg>