<svg xmlns="http://www.w3.org/2000/svg" width="300" height="300" viewBox="0 0 300 300">
<path d="M 115.24 99.83 L 114.36 100.25 C 113.23 100.79 112.75 102.15 113.29 103.28 C 113.83 104.42 115.19 104.90 116.32 104.35 L 117.20 103.94 C 118.33 103.39 118.81 102.04 118.27 100.90 C 117.73 99.77 116.37 99.29 115.24 99.83 Z M 114.03 100.46 L 113.25 101.02 C 112.23 101.74 111.99 103.15 112.72 104.17 C 113.44 105.19 114.85 105.42 115.87 104.70 L 116.65 104.14 C 117.67 103.42 117.91 102.01 117.18 100.99 C 116.46 99.98 115.05 99.74 114.03 100.46 Z M 112.74 101.55 L 112.14 102.38 C 111.41 103.39 111.64 104.79 112.65 105.51 C 113.65 106.24 115.06 106.01 115.78 105.00 L 116.38 104.17 C 117.10 103.16 116.88 101.76 115.87 101.04 C 114.86 100.31 113.46 100.54 112.74 101.55 Z M 111.84 103.01 L 111.56 103.87 C 111.18 105.04 111.83 106.29 113.00 106.67 C 114.17 107.05 115.43 106.40 115.81 105.23 L 116.08 104.37 C 116.46 103.20 115.81 101.95 114.64 101.57 C 113.47 101.19 112.21 101.84 111.84 103.01 Z M 111.49 104.26 L 111.36 105.23 C 111.20 106.44 112.05 107.55 113.26 107.72 C 114.48 107.88 115.59 107.02 115.75 105.81 L 115.88 104.84 C 116.04 103.63 115.19 102.51 113.98 102.35 C 112.76 102.19 111.65 103.04 111.49 104.26 Z M 111.35 105.50 L 111.34 106.55 C 111.33 107.76 112.31 108.76 113.52 108.77 C 114.74 108.78 115.73 107.81 115.74 106.59 L 115.76 105.54 C 115.77 104.33 114.79 103.33 113.58 103.32 C 112.36 103.31 111.37 104.28 111.35 105.50 Z M 111.37 106.77 L 111.46 107.82 C 111.57 109.02 112.63 109.91 113.83 109.80 C 115.04 109.70 115.92 108.63 115.82 107.43 L 115.72 106.37 C 115.61 105.17 114.55 104.28 113.35 104.39 C 112.15 104.50 111.26 105.56 111.37 106.77 Z M 111.51 108.04 L 111.71 109.07 C 111.93 110.25 113.07 111.02 114.25 110.80 C 115.43 110.57 116.20 109.43 115.97 108.26 L 115.77 107.22 C 115.55 106.04 114.41 105.27 113.23 105.49 C 112.05 105.72 111.28 106.86 111.51 108.04 Z M 111.78 109.31 L 112.09 110.30 C 112.45 111.44 113.66 112.07 114.80 111.71 C 115.94 111.35 116.57 110.14 116.21 109.00 L 115.90 108.02 C 115.54 106.88 114.33 106.25 113.19 106.61 C 112.05 106.97 111.42 108.18 111.78 109.31 Z M 112.20 110.54 L 112.61 111.43 C 113.10 112.51 114.38 112.98 115.45 112.49 C 116.53 112.00 117.00 110.72 116.51 109.65 L 116.10 108.75 C 115.60 107.68 114.33 107.21 113.25 107.70 C 112.18 108.19 111.71 109.47 112.20 110.54 Z M 112.74 111.65 L 113.24 112.47 C 113.86 113.48 115.17 113.79 116.17 113.18 C 117.18 112.56 117.49 111.25 116.88 110.25 L 116.38 109.43 C 115.76 108.42 114.45 108.11 113.44 108.72 C 112.44 109.34 112.13 110.65 112.74 111.65 Z M 113.38 112.65 L 113.98 113.43 C 114.69 114.36 116.02 114.53 116.95 113.82 C 117.88 113.11 118.05 111.78 117.34 110.85 L 116.74 110.07 C 116.03 109.14 114.70 108.97 113.77 109.68 C 112.84 110.39 112.67 111.72 113.38 112.65 Z M 114.10 113.56 L 114.79 114.31 C 115.57 115.17 116.91 115.22 117.76 114.44 C 118.62 113.65 118.68 112.32 117.90 111.46 L 117.21 110.72 C 116.43 109.86 115.09 109.80 114.24 110.58 C 113.38 111.37 113.32 112.70 114.10 113.56 Z M 114.89 114.40 L 115.63 115.10 C 116.46 115.90 117.79 115.87 118.59 115.03 C 119.39 114.19 119.36 112.86 118.52 112.06 L 117.79 111.37 C 116.95 110.57 115.62 110.60 114.82 111.44 C 114.02 112.28 114.06 113.60 114.89 114.40 Z M 115.72 115.17 L 116.47 115.81 C 117.34 116.56 118.66 116.46 119.41 115.59 C 120.16 114.71 120.06 113.39 119.19 112.64 L 118.43 112.00 C 117.56 111.25 116.24 111.35 115.49 112.22 C 114.74 113.10 114.84 114.42 115.72 115.17 Z M 116.55 115.86 L 117.35 116.49 C 118.25 117.20 119.56 117.04 120.26 116.14 C 120.97 115.24 120.81 113.93 119.91 113.22 L 119.11 112.59 C 118.21 111.89 116.90 112.05 116.19 112.95 C 115.49 113.85 115.64 115.15 116.55 115.86 Z M 117.44 116.54 L 118.28 117.13 C 119.21 117.79 120.50 117.56 121.15 116.63 C 121.81 115.70 121.58 114.41 120.65 113.76 L 119.82 113.17 C 118.89 112.52 117.60 112.74 116.94 113.67 C 116.29 114.60 116.51 115.89 117.44 116.54 Z M 118.41 117.20 L 119.25 117.70 C 120.22 118.28 121.48 117.97 122.06 117.00 C 122.64 116.03 122.33 114.78 121.36 114.20 L 120.52 113.69 C 119.55 113.11 118.29 113.42 117.71 114.39 C 117.13 115.36 117.45 116.62 118.41 117.20 Z M 119.42 117.78 L 120.29 118.19 C 121.30 118.68 122.51 118.26 123.00 117.25 C 123.48 116.24 123.06 115.03 122.05 114.54 L 121.19 114.12 C 120.18 113.63 118.96 114.06 118.48 115.07 C 117.99 116.08 118.41 117.29 119.42 117.78 Z M 120.48 118.26 L 121.42 118.60 C 122.46 118.98 123.62 118.44 124.00 117.39 C 124.38 116.35 123.84 115.19 122.79 114.81 L 121.86 114.47 C 120.81 114.09 119.66 114.63 119.28 115.68 C 118.90 116.73 119.44 117.88 120.48 118.26 Z M 121.59 118.64 L 122.56 118.90 C 123.63 119.18 124.73 118.54 125.01 117.47 C 125.29 116.40 124.65 115.30 123.58 115.02 L 122.61 114.77 C 121.54 114.49 120.45 115.13 120.17 116.20 C 119.88 117.27 120.52 118.36 121.59 118.64 Z M 122.71 118.92 L 123.70 119.10 C 124.78 119.30 125.82 118.58 126.02 117.50 C 126.22 116.42 125.50 115.38 124.42 115.18 L 123.43 115.00 C 122.35 114.80 121.31 115.52 121.11 116.60 C 120.91 117.68 121.63 118.72 122.71 118.92 Z M 123.82 119.11 L 124.75 119.22 C 125.83 119.36 126.82 118.59 126.96 117.50 C 127.09 116.41 126.32 115.42 125.23 115.29 L 124.30 115.17 C 123.22 115.04 122.23 115.81 122.09 116.90 C 121.96 117.98 122.73 118.97 123.82 119.11 Z M 124.84 119.22 L 125.79 119.29 C 126.88 119.38 127.82 118.56 127.91 117.48 C 127.99 116.39 127.17 115.44 126.09 115.36 L 125.14 115.29 C 124.05 115.21 123.11 116.02 123.02 117.11 C 122.94 118.19 123.76 119.14 124.84 119.22 Z M 125.87 119.29 L 126.89 119.33 C 127.97 119.37 128.88 118.52 128.92 117.44 C 128.96 116.35 128.11 115.44 127.03 115.40 L 126.01 115.37 C 124.93 115.33 124.02 116.17 123.98 117.26 C 123.94 118.34 124.79 119.25 125.87 119.29 Z M 126.94 119.32 L 128.03 119.33 C 129.11 119.34 129.99 118.47 130.00 117.39 C 130.01 116.31 129.14 115.43 128.06 115.42 L 126.97 115.41 C 125.89 115.40 125.01 116.27 125.00 117.35 C 125.00 118.43 125.86 119.31 126.94 119.32 Z M 128.07 119.32 L 129.08 119.30 C 130.16 119.29 131.02 118.40 131.00 117.33 C 130.98 116.25 130.10 115.40 129.03 115.41 L 128.02 115.43 C 126.94 115.44 126.08 116.33 126.10 117.40 C 126.12 118.48 127.00 119.33 128.07 119.32 Z M 129.15 119.29 L 130.18 119.24 C 131.25 119.19 132.08 118.28 132.03 117.22 C 131.98 116.15 131.07 115.32 130.00 115.37 L 128.96 115.42 C 127.89 115.47 127.07 116.38 127.12 117.45 C 127.17 118.52 128.08 119.35 129.15 119.29 Z M 130.28 119.23 L 131.30 119.13 C 132.36 119.02 133.13 118.08 133.03 117.02 C 132.92 115.96 131.98 115.18 130.92 115.29 L 129.90 115.39 C 128.84 115.49 128.07 116.44 128.17 117.50 C 128.28 118.56 129.22 119.33 130.28 119.23 Z M 131.45 119.10 L 132.39 118.93 C 133.43 118.74 134.13 117.75 133.94 116.70 C 133.75 115.66 132.76 114.96 131.71 115.15 L 130.77 115.31 C 129.72 115.50 129.03 116.50 129.21 117.55 C 129.40 118.59 130.40 119.29 131.45 119.10 Z M 132.63 118.86 L 133.61 118.55 C 134.61 118.23 135.17 117.15 134.85 116.14 C 134.53 115.14 133.45 114.58 132.44 114.90 L 131.47 115.21 C 130.46 115.54 129.90 116.61 130.22 117.62 C 130.55 118.63 131.62 119.19 132.63 118.86 Z M 133.92 118.42 L 134.78 117.96 C 135.72 117.46 136.07 116.30 135.57 115.37 C 135.08 114.44 133.92 114.08 132.99 114.58 L 132.12 115.04 C 131.19 115.54 130.84 116.69 131.33 117.63 C 131.83 118.56 132.99 118.91 133.92 118.42 Z M 135.06 117.78 L 135.82 117.19 C 136.65 116.54 136.80 115.34 136.16 114.51 C 135.51 113.67 134.31 113.52 133.48 114.17 L 132.72 114.76 C 131.88 115.41 131.73 116.60 132.38 117.44 C 133.02 118.27 134.22 118.43 135.06 117.78 Z M 135.99 117.04 L 136.70 116.34 C 137.45 115.60 137.46 114.39 136.72 113.64 C 135.98 112.89 134.77 112.88 134.02 113.62 L 133.31 114.32 C 132.56 115.06 132.55 116.27 133.29 117.02 C 134.03 117.77 135.24 117.78 135.99 117.04 Z M 136.80 116.23 L 137.45 115.49 C 138.14 114.69 138.06 113.49 137.26 112.79 C 136.46 112.10 135.26 112.18 134.56 112.98 L 133.92 113.72 C 133.22 114.52 133.31 115.73 134.10 116.42 C 134.90 117.11 136.10 117.03 136.80 116.23 Z M 137.54 115.38 L 138.15 114.56 C 138.78 113.72 138.61 112.52 137.76 111.88 C 136.91 111.25 135.71 111.43 135.08 112.27 L 134.47 113.09 C 133.84 113.94 134.01 115.14 134.86 115.77 C 135.71 116.40 136.91 116.23 137.54 115.38 Z M 138.25 114.42 L 138.78 113.56 C 139.33 112.65 139.05 111.47 138.14 110.92 C 137.24 110.36 136.06 110.65 135.50 111.55 L 134.98 112.42 C 134.42 113.32 134.71 114.50 135.61 115.06 C 136.52 115.61 137.70 115.33 138.25 114.42 Z M 138.89 113.36 L 139.32 112.44 C 139.76 111.47 139.34 110.33 138.37 109.89 C 137.40 109.44 136.26 109.86 135.81 110.83 L 135.39 111.75 C 134.95 112.72 135.37 113.86 136.34 114.31 C 137.30 114.75 138.45 114.33 138.89 113.36 Z M 139.42 112.20 L 139.72 111.23 C 140.03 110.20 139.45 109.12 138.43 108.81 C 137.40 108.49 136.32 109.07 136.00 110.10 L 135.71 111.07 C 135.39 112.10 135.97 113.18 137.00 113.49 C 138.02 113.81 139.11 113.23 139.42 112.20 Z M 139.79 111.02 L 139.97 110.04 C 140.16 108.98 139.46 107.96 138.40 107.76 C 137.33 107.56 136.31 108.27 136.11 109.33 L 135.93 110.31 C 135.74 111.37 136.44 112.40 137.51 112.59 C 138.57 112.79 139.59 112.08 139.79 111.02 Z M 140.01 109.89 L 140.11 108.92 C 140.22 107.83 139.43 106.86 138.34 106.75 C 137.25 106.64 136.28 107.43 136.17 108.51 L 136.07 109.49 C 135.96 110.57 136.75 111.55 137.84 111.66 C 138.92 111.77 139.90 110.98 140.01 109.89 Z M 140.14 108.82 L 140.19 107.80 C 140.24 106.70 139.40 105.76 138.29 105.70 C 137.19 105.65 136.25 106.50 136.20 107.60 L 136.14 108.62 C 136.09 109.72 136.94 110.66 138.04 110.71 C 139.14 110.77 140.08 109.92 140.14 108.82 Z M 140.21 107.65 L 140.19 106.65 C 140.16 105.53 139.23 104.65 138.12 104.68 C 137.00 104.70 136.12 105.63 136.15 106.75 L 136.17 107.75 C 136.20 108.87 137.13 109.75 138.24 109.72 C 139.36 109.69 140.24 108.77 140.21 107.65 Z M 140.18 106.39 L 140.04 105.42 C 139.87 104.30 138.83 103.54 137.71 103.71 C 136.60 103.88 135.83 104.92 136.00 106.03 L 136.15 107.00 C 136.32 108.12 137.36 108.88 138.47 108.71 C 139.59 108.54 140.35 107.50 140.18 106.39 Z M 139.97 105.06 L 139.66 104.15 C 139.29 103.08 138.12 102.50 137.05 102.87 C 135.97 103.23 135.39 104.40 135.76 105.48 L 136.07 106.39 C 136.43 107.46 137.60 108.04 138.68 107.68 C 139.76 107.31 140.33 106.14 139.97 105.06 Z M 139.52 103.80 L 139.05 102.96 C 138.49 101.96 137.23 101.60 136.23 102.16 C 135.23 102.72 134.87 103.98 135.43 104.98 L 135.90 105.82 C 136.46 106.82 137.72 107.18 138.72 106.63 C 139.72 106.07 140.08 104.80 139.52 103.80 Z M 138.90 102.70 L 138.28 101.90 C 137.59 100.99 136.28 100.81 135.36 101.51 C 134.45 102.21 134.27 103.52 134.97 104.43 L 135.58 105.23 C 136.28 106.15 137.59 106.32 138.50 105.63 C 139.42 104.93 139.59 103.62 138.90 102.70 Z M 138.15 101.73 L 137.43 100.97 C 136.63 100.13 135.31 100.09 134.47 100.89 C 133.63 101.69 133.59 103.01 134.39 103.85 L 135.11 104.61 C 135.90 105.45 137.23 105.49 138.07 104.69 C 138.91 103.89 138.95 102.57 138.15 101.73 Z M 137.32 100.85 L 136.58 100.18 C 135.71 99.40 134.38 99.47 133.61 100.33 C 132.83 101.20 132.90 102.53 133.76 103.31 L 134.50 103.97 C 135.36 104.75 136.69 104.68 137.47 103.82 C 138.25 102.96 138.18 101.63 137.32 100.85 Z M 136.47 100.08 L 135.68 99.46 C 134.76 98.74 133.43 98.91 132.72 99.82 C 132.00 100.74 132.16 102.06 133.08 102.78 L 133.87 103.40 C 134.78 104.12 136.11 103.96 136.83 103.04 C 137.55 102.13 137.39 100.80 136.47 100.08 Z M 135.56 99.37 L 134.73 98.81 C 133.77 98.16 132.45 98.41 131.80 99.37 C 131.14 100.34 131.40 101.65 132.36 102.31 L 133.19 102.87 C 134.16 103.52 135.47 103.27 136.12 102.31 C 136.78 101.34 136.53 100.03 135.56 99.37 Z M 134.60 98.73 L 133.74 98.23 C 132.73 97.64 131.43 97.99 130.85 99.00 C 130.27 100.01 130.61 101.31 131.62 101.89 L 132.49 102.39 C 133.50 102.97 134.79 102.63 135.38 101.62 C 135.96 100.61 135.62 99.31 134.60 98.73 Z M 133.59 98.15 L 132.69 97.72 C 131.63 97.21 130.37 97.66 129.87 98.72 C 129.36 99.77 129.81 101.03 130.87 101.54 L 131.77 101.97 C 132.83 102.47 134.09 102.03 134.59 100.97 C 135.10 99.92 134.65 98.65 133.59 98.15 Z M 132.53 97.65 L 131.61 97.30 C 130.52 96.88 129.29 97.42 128.87 98.52 C 128.46 99.61 129.00 100.83 130.09 101.25 L 131.02 101.60 C 132.11 102.02 133.33 101.48 133.75 100.39 C 134.17 99.29 133.63 98.07 132.53 97.65 Z M 131.46 97.25 L 130.50 96.96 C 129.38 96.63 128.20 97.26 127.87 98.38 C 127.53 99.50 128.17 100.68 129.29 101.02 L 130.24 101.30 C 131.36 101.63 132.54 101.00 132.88 99.88 C 133.21 98.76 132.58 97.58 131.46 97.25 Z M 130.36 96.93 L 129.39 96.71 C 128.25 96.45 127.12 97.17 126.87 98.30 C 126.61 99.44 127.33 100.57 128.46 100.83 L 129.43 101.05 C 130.57 101.30 131.70 100.59 131.95 99.45 C 132.21 98.31 131.50 97.18 130.36 96.93 Z M 129.27 96.70 L 128.28 96.53 C 127.14 96.34 126.06 97.12 125.87 98.26 C 125.68 99.41 126.45 100.49 127.60 100.68 L 128.58 100.84 C 129.73 101.03 130.81 100.26 131.00 99.11 C 131.19 97.97 130.42 96.89 129.27 96.70 Z M 128.18 96.53 L 127.18 96.42 C 126.04 96.28 125.00 97.10 124.87 98.25 C 124.73 99.39 125.55 100.43 126.70 100.56 L 127.70 100.68 C 128.84 100.81 129.88 99.99 130.01 98.85 C 130.15 97.70 129.33 96.67 128.18 96.53 Z M 127.10 96.42 L 126.10 96.35 C 124.96 96.26 123.96 97.11 123.87 98.25 C 123.79 99.40 124.64 100.39 125.78 100.48 L 126.78 100.56 C 127.93 100.64 128.92 99.79 129.01 98.65 C 129.10 97.51 128.24 96.51 127.10 96.42 Z M 126.02 96.37 L 125.02 96.33 C 123.89 96.28 122.93 97.16 122.89 98.29 C 122.84 99.42 123.72 100.37 124.85 100.42 L 125.86 100.46 C 126.99 100.50 127.94 99.63 127.99 98.50 C 128.03 97.37 127.15 96.41 126.02 96.37 Z M 124.94 96.36 L 123.94 96.36 C 122.83 96.35 121.93 97.25 121.92 98.36 C 121.92 99.47 122.81 100.37 123.93 100.38 L 124.92 100.38 C 126.03 100.39 126.94 99.49 126.94 98.38 C 126.95 97.27 126.05 96.37 124.94 96.36 Z M 123.87 96.39 L 122.88 96.42 C 121.79 96.46 120.93 97.37 120.97 98.46 C 121.00 99.55 121.91 100.41 123.00 100.37 L 124.00 100.34 C 125.09 100.31 125.94 99.39 125.91 98.30 C 125.87 97.21 124.96 96.36 123.87 96.39 Z M 122.81 96.47 L 121.84 96.53 C 120.78 96.60 119.97 97.53 120.04 98.60 C 120.12 99.66 121.04 100.47 122.11 100.40 L 123.07 100.33 C 124.14 100.26 124.95 99.33 124.87 98.27 C 124.80 97.20 123.88 96.39 122.81 96.47 Z M 121.75 96.58 L 120.80 96.70 C 119.76 96.82 119.01 97.76 119.14 98.80 C 119.26 99.84 120.21 100.59 121.25 100.46 L 122.20 100.35 C 123.24 100.22 123.98 99.28 123.86 98.24 C 123.73 97.20 122.79 96.46 121.75 96.58 Z M 120.67 96.76 L 119.69 96.95 C 118.69 97.14 118.03 98.11 118.22 99.12 C 118.42 100.12 119.39 100.78 120.40 100.59 L 121.37 100.40 C 122.38 100.20 123.04 99.23 122.84 98.23 C 122.65 97.22 121.68 96.56 120.67 96.76 Z M 119.55 97.02 L 118.53 97.31 C 117.57 97.59 117.01 98.59 117.29 99.55 C 117.56 100.51 118.56 101.07 119.53 100.80 L 120.54 100.51 C 121.50 100.23 122.06 99.23 121.79 98.27 C 121.51 97.31 120.51 96.75 119.55 97.02 Z M 118.40 97.39 L 117.51 97.73 C 116.59 98.08 116.13 99.10 116.48 100.02 C 116.83 100.94 117.85 101.40 118.77 101.05 L 119.66 100.72 C 120.58 100.37 121.04 99.35 120.69 98.43 C 120.34 97.51 119.32 97.05 118.40 97.39 Z M 117.43 97.80 L 116.54 98.19 C 115.66 98.59 115.26 99.62 115.66 100.50 C 116.05 101.38 117.08 101.78 117.97 101.38 L 118.85 100.99 C 119.73 100.59 120.13 99.56 119.74 98.68 C 119.34 97.80 118.31 97.40 117.43 97.80 Z M 116.49 98.24 L 115.59 98.69 C 114.73 99.11 114.38 100.14 114.80 101.00 C 115.22 101.85 116.25 102.20 117.11 101.78 L 118.01 101.33 C 118.87 100.91 119.22 99.88 118.80 99.03 C 118.38 98.18 117.35 97.82 116.49 98.24 Z M 115.56 98.73 L 114.64 99.21 C 113.81 99.65 113.49 100.67 113.92 101.50 C 114.35 102.33 115.38 102.65 116.21 102.22 L 117.13 101.74 C 117.96 101.30 118.28 100.28 117.85 99.45 C 117.41 98.62 116.39 98.30 115.56 98.73 Z M 114.64 99.24 L 113.89 99.64 C 113.08 100.08 112.77 101.09 113.21 101.90 C 113.64 102.71 114.65 103.02 115.46 102.59 L 116.21 102.19 C 117.02 101.75 117.33 100.74 116.90 99.93 C 116.46 99.12 115.45 98.81 114.64 99.24 Z"
      fill="black"
      fill-rule="nonzero" /><path d="M 182.80 113.75 L 181.92 113.31 C 181.00 112.84 179.87 113.21 179.40 114.14 C 178.93 115.06 179.30 116.19 180.23 116.66 L 181.10 117.10 C 182.03 117.57 183.16 117.19 183.62 116.27 C 184.09 115.35 183.72 114.22 182.80 113.75 Z M 182.00 113.26 L 181.13 112.79 C 180.18 112.27 178.99 112.63 178.48 113.58 C 177.96 114.54 178.32 115.72 179.27 116.24 L 180.15 116.71 C 181.10 117.22 182.29 116.86 182.80 115.91 C 183.31 114.96 182.96 113.77 182.00 113.26 Z M 181.26 112.77 L 180.39 112.24 C 179.42 111.65 178.16 111.96 177.58 112.93 C 177.00 113.89 177.31 115.15 178.27 115.73 L 179.15 116.26 C 180.11 116.84 181.37 116.53 181.95 115.57 C 182.53 114.60 182.22 113.35 181.26 112.77 Z M 180.53 112.25 L 179.73 111.70 C 178.77 111.04 177.46 111.28 176.80 112.24 C 176.14 113.19 176.38 114.51 177.33 115.17 L 178.13 115.72 C 179.09 116.38 180.40 116.14 181.06 115.18 C 181.72 114.22 181.48 112.91 180.53 112.25 Z M 179.81 111.70 L 179.01 111.11 C 178.05 110.41 176.71 110.62 176.00 111.57 C 175.30 112.53 175.50 113.88 176.46 114.58 L 177.26 115.17 C 178.21 115.87 179.56 115.67 180.27 114.71 C 180.97 113.75 180.76 112.40 179.81 111.70 Z M 179.02 111.07 L 178.19 110.47 C 177.21 109.77 175.84 109.99 175.13 110.97 C 174.42 111.95 174.64 113.33 175.63 114.03 L 176.45 114.63 C 177.44 115.34 178.81 115.11 179.52 114.13 C 180.22 113.15 180.00 111.78 179.02 111.07 Z M 178.13 110.39 L 177.28 109.83 C 176.25 109.16 174.87 109.45 174.20 110.48 C 173.52 111.51 173.81 112.89 174.84 113.57 L 175.69 114.12 C 176.72 114.80 178.10 114.51 178.78 113.48 C 179.45 112.44 179.16 111.06 178.13 110.39 Z M 177.17 109.74 L 176.35 109.27 C 175.26 108.65 173.89 109.04 173.27 110.12 C 172.66 111.20 173.04 112.58 174.13 113.19 L 174.95 113.66 C 176.03 114.28 177.41 113.90 178.03 112.81 C 178.64 111.73 178.26 110.35 177.17 109.74 Z M 176.22 109.19 L 175.34 108.76 C 174.21 108.21 172.85 108.69 172.31 109.82 C 171.76 110.95 172.24 112.31 173.37 112.85 L 174.25 113.28 C 175.38 113.82 176.74 113.35 177.28 112.22 C 177.83 111.09 177.35 109.73 176.22 109.19 Z M 175.20 108.68 L 174.25 108.30 C 173.08 107.83 171.75 108.40 171.28 109.57 C 170.80 110.74 171.37 112.07 172.55 112.55 L 173.50 112.93 C 174.67 113.40 176.00 112.83 176.47 111.66 C 176.94 110.48 176.38 109.15 175.20 108.68 Z M 174.11 108.24 L 173.12 107.91 C 171.91 107.51 170.61 108.17 170.22 109.38 C 169.82 110.59 170.48 111.89 171.69 112.28 L 172.68 112.61 C 173.89 113.00 175.19 112.35 175.58 111.14 C 175.98 109.93 175.32 108.63 174.11 108.24 Z M 173.00 107.87 L 172.06 107.61 C 170.82 107.28 169.56 108.02 169.23 109.25 C 168.90 110.48 169.63 111.75 170.86 112.08 L 171.81 112.33 C 173.04 112.66 174.31 111.93 174.64 110.69 C 174.96 109.46 174.23 108.20 173.00 107.87 Z M 171.96 107.58 L 170.98 107.37 C 169.73 107.09 168.49 107.88 168.22 109.13 C 167.94 110.37 168.73 111.61 169.98 111.89 L 170.96 112.10 C 172.21 112.38 173.44 111.59 173.72 110.34 C 174.00 109.10 173.21 107.86 171.96 107.58 Z M 170.89 107.35 L 169.89 107.16 C 168.63 106.93 167.42 107.77 167.19 109.03 C 166.97 110.29 167.80 111.50 169.06 111.73 L 170.06 111.91 C 171.32 112.14 172.53 111.30 172.76 110.04 C 172.99 108.78 172.15 107.58 170.89 107.35 Z M 169.82 107.15 L 168.81 107.00 C 167.54 106.81 166.36 107.69 166.18 108.96 C 165.99 110.23 166.87 111.41 168.14 111.60 L 169.14 111.74 C 170.41 111.93 171.59 111.05 171.78 109.78 C 171.96 108.51 171.08 107.33 169.82 107.15 Z M 168.74 106.98 L 167.73 106.87 C 166.46 106.72 165.30 107.64 165.16 108.92 C 165.01 110.19 165.93 111.35 167.20 111.49 L 168.21 111.61 C 169.49 111.76 170.64 110.84 170.79 109.56 C 170.93 108.28 170.02 107.13 168.74 106.98 Z M 167.66 106.86 L 166.66 106.78 C 165.38 106.67 164.25 107.63 164.15 108.91 C 164.04 110.19 164.99 111.32 166.28 111.42 L 167.28 111.50 C 168.56 111.61 169.68 110.65 169.79 109.37 C 169.89 108.09 168.94 106.97 167.66 106.86 Z M 166.59 106.77 L 165.60 106.72 C 164.32 106.65 163.22 107.64 163.15 108.92 C 163.08 110.21 164.07 111.31 165.36 111.37 L 166.34 111.43 C 167.63 111.49 168.73 110.51 168.79 109.22 C 168.86 107.94 167.87 106.84 166.59 106.77 Z M 165.54 106.72 L 164.55 106.69 C 163.27 106.66 162.20 107.67 162.16 108.96 C 162.12 110.24 163.14 111.31 164.42 111.35 L 165.41 111.38 C 166.70 111.41 167.77 110.40 167.81 109.11 C 167.84 107.83 166.83 106.75 165.54 106.72 Z M 164.51 106.69 L 163.51 106.68 C 162.22 106.67 161.17 107.71 161.16 109.00 C 161.15 110.28 162.19 111.33 163.47 111.34 L 164.47 111.35 C 165.76 111.36 166.81 110.32 166.82 109.04 C 166.83 107.75 165.79 106.70 164.51 106.69 Z M 163.47 106.68 L 162.50 106.69 C 161.21 106.71 160.18 107.76 160.19 109.05 C 160.21 110.34 161.26 111.37 162.55 111.35 L 163.52 111.34 C 164.80 111.33 165.84 110.27 165.82 108.99 C 165.81 107.70 164.75 106.67 163.47 106.68 Z M 162.43 106.70 L 161.45 106.73 C 160.16 106.79 159.16 107.87 159.21 109.16 C 159.26 110.44 160.35 111.44 161.63 111.39 L 162.62 111.35 C 163.90 111.30 164.90 110.22 164.85 108.93 C 164.80 107.64 163.72 106.64 162.43 106.70 Z M 161.35 106.74 L 160.35 106.82 C 159.07 106.93 158.11 108.06 158.22 109.34 C 158.32 110.62 159.45 111.57 160.73 111.47 L 161.73 111.39 C 163.01 111.28 163.97 110.15 163.86 108.87 C 163.75 107.59 162.63 106.63 161.35 106.74 Z M 160.22 106.84 L 159.21 106.98 C 157.93 107.16 157.04 108.33 157.22 109.61 C 157.40 110.88 158.58 111.77 159.85 111.59 L 160.86 111.45 C 162.14 111.28 163.02 110.10 162.85 108.83 C 162.67 107.55 161.49 106.66 160.22 106.84 Z M 159.05 107.01 L 158.04 107.22 C 156.78 107.48 155.97 108.71 156.23 109.97 C 156.50 111.23 157.73 112.04 158.99 111.78 L 160.00 111.57 C 161.26 111.30 162.07 110.07 161.81 108.81 C 161.55 107.55 160.31 106.74 159.05 107.01 Z M 157.89 107.26 L 156.88 107.54 C 155.64 107.88 154.92 109.17 155.27 110.41 C 155.61 111.65 156.90 112.37 158.14 112.02 L 159.14 111.74 C 160.38 111.39 161.10 110.11 160.76 108.87 C 160.41 107.63 159.12 106.91 157.89 107.26 Z M 156.76 107.58 L 155.78 107.91 C 154.56 108.32 153.91 109.64 154.32 110.86 C 154.73 112.08 156.06 112.73 157.27 112.32 L 158.26 111.98 C 159.47 111.57 160.12 110.25 159.71 109.03 C 159.30 107.81 157.98 107.16 156.76 107.58 Z M 155.68 107.95 L 154.74 108.31 C 153.54 108.78 152.95 110.13 153.42 111.32 C 153.89 112.52 155.23 113.11 156.43 112.65 L 157.37 112.28 C 158.57 111.81 159.16 110.47 158.69 109.27 C 158.22 108.07 156.88 107.48 155.68 107.95 Z M 154.66 108.35 L 153.79 108.72 C 152.61 109.23 152.07 110.60 152.58 111.78 C 153.09 112.96 154.46 113.50 155.64 112.99 L 156.51 112.61 C 157.69 112.10 158.23 110.74 157.72 109.56 C 157.21 108.38 155.84 107.84 154.66 108.35 Z M 153.72 108.76 L 152.80 109.19 C 151.64 109.74 151.14 111.12 151.69 112.28 C 152.24 113.44 153.62 113.94 154.78 113.39 L 155.71 112.96 C 156.87 112.41 157.36 111.02 156.81 109.86 C 156.27 108.70 154.88 108.21 153.72 108.76 Z M 152.72 109.23 L 151.80 109.71 C 150.66 110.31 150.22 111.71 150.81 112.84 C 151.40 113.98 152.80 114.42 153.94 113.83 L 154.86 113.35 C 156.00 112.76 156.44 111.36 155.85 110.22 C 155.26 109.08 153.86 108.64 152.72 109.23 Z M 151.71 109.76 L 150.89 110.24 C 149.78 110.88 149.39 112.29 150.03 113.40 C 150.67 114.51 152.09 114.90 153.20 114.26 L 154.02 113.78 C 155.13 113.14 155.52 111.73 154.88 110.62 C 154.24 109.51 152.82 109.12 151.71 109.76 Z M 150.82 110.28 L 150.03 110.77 C 148.94 111.45 148.61 112.88 149.28 113.96 C 149.96 115.05 151.39 115.38 152.47 114.71 L 153.26 114.21 C 154.35 113.54 154.68 112.11 154.01 111.02 C 153.33 109.94 151.91 109.61 150.82 110.28 Z M 149.98 110.80 L 149.16 111.34 C 148.09 112.04 147.80 113.47 148.50 114.54 C 149.20 115.61 150.63 115.91 151.70 115.21 L 152.52 114.68 C 153.59 113.98 153.89 112.54 153.19 111.47 C 152.49 110.40 151.05 110.10 149.98 110.80 Z M 149.11 111.37 L 148.29 111.94 C 147.24 112.67 146.98 114.11 147.70 115.16 C 148.43 116.22 149.87 116.48 150.92 115.75 L 151.75 115.18 C 152.80 114.45 153.06 113.01 152.34 111.96 C 151.61 110.91 150.17 110.64 149.11 111.37 Z M 148.23 111.99 L 147.41 112.59 C 146.39 113.35 146.17 114.80 146.93 115.83 C 147.69 116.86 149.14 117.07 150.17 116.31 L 150.98 115.71 C 152.01 114.95 152.23 113.50 151.47 112.47 C 150.70 111.44 149.25 111.23 148.23 111.99 Z M 147.34 112.65 L 146.56 113.28 C 145.56 114.08 145.41 115.54 146.21 116.53 C 147.01 117.53 148.47 117.69 149.46 116.88 L 150.24 116.25 C 151.24 115.45 151.40 113.99 150.59 113.00 C 149.79 112.00 148.34 111.85 147.34 112.65 Z M 146.49 113.34 L 145.74 114.00 C 144.78 114.84 144.68 116.30 145.52 117.26 C 146.36 118.22 147.82 118.32 148.79 117.48 L 149.53 116.82 C 150.50 115.98 150.59 114.52 149.75 113.56 C 148.91 112.59 147.45 112.50 146.49 113.34 Z M 145.68 114.05 L 144.95 114.73 C 144.02 115.60 143.97 117.07 144.84 118.00 C 145.72 118.93 147.18 118.98 148.12 118.11 L 148.84 117.43 C 149.78 116.55 149.82 115.09 148.95 114.16 C 148.08 113.22 146.61 113.17 145.68 114.05 Z M 144.91 114.77 L 144.20 115.47 C 143.29 116.37 143.28 117.84 144.17 118.75 C 145.07 119.66 146.53 119.67 147.44 118.77 L 148.16 118.07 C 149.07 117.17 149.08 115.71 148.18 114.79 C 147.28 113.88 145.82 113.87 144.91 114.77 Z M 144.16 115.51 L 143.48 116.21 C 142.59 117.12 142.61 118.59 143.52 119.48 C 144.43 120.37 145.90 120.35 146.79 119.44 L 147.48 118.74 C 148.37 117.82 148.35 116.36 147.44 115.47 C 146.52 114.57 145.06 114.59 144.16 115.51 Z M 143.45 116.24 L 142.77 116.97 C 141.89 117.91 141.94 119.37 142.88 120.24 C 143.81 121.11 145.27 121.06 146.15 120.13 L 146.83 119.40 C 147.70 118.47 147.65 117.00 146.71 116.13 C 145.78 115.26 144.32 115.31 143.45 116.24 Z M 142.73 117.02 L 142.05 117.78 C 141.21 118.73 141.29 120.19 142.25 121.04 C 143.20 121.89 144.67 121.80 145.51 120.84 L 146.19 120.08 C 147.03 119.13 146.94 117.67 145.99 116.82 C 145.03 115.97 143.57 116.06 142.73 117.02 Z M 142.01 117.83 L 141.37 118.59 C 140.55 119.57 140.68 121.03 141.66 121.85 C 142.64 122.67 144.10 122.54 144.92 121.56 L 145.56 120.79 C 146.37 119.81 146.24 118.36 145.26 117.54 C 144.28 116.72 142.83 116.85 142.01 117.83 Z M 141.33 118.65 L 140.72 119.42 C 139.93 120.42 140.10 121.87 141.10 122.66 C 142.11 123.45 143.56 123.28 144.35 122.28 L 144.96 121.51 C 145.75 120.50 145.58 119.05 144.57 118.26 C 143.57 117.47 142.12 117.64 141.33 118.65 Z M 140.68 119.47 L 140.08 120.27 C 139.32 121.30 139.53 122.74 140.56 123.50 C 141.58 124.26 143.03 124.05 143.79 123.03 L 144.39 122.23 C 145.15 121.20 144.94 119.76 143.91 119.00 C 142.89 118.23 141.44 118.45 140.68 119.47 Z M 140.05 120.32 L 139.46 121.16 C 138.73 122.20 138.98 123.64 140.02 124.37 C 141.06 125.11 142.50 124.86 143.23 123.82 L 143.82 122.98 C 144.56 121.94 144.31 120.50 143.26 119.77 C 142.22 119.03 140.78 119.28 140.05 120.32 Z M 139.43 121.21 L 138.88 122.03 C 138.17 123.09 138.46 124.52 139.52 125.23 C 140.58 125.94 142.01 125.65 142.71 124.59 L 143.27 123.77 C 143.97 122.71 143.69 121.28 142.63 120.57 C 141.57 119.86 140.14 120.15 139.43 121.21 Z M 138.85 122.07 L 138.32 122.91 C 137.64 123.98 137.96 125.41 139.03 126.09 C 140.10 126.77 141.53 126.46 142.21 125.38 L 142.74 124.55 C 143.42 123.47 143.11 122.05 142.03 121.37 C 140.96 120.68 139.54 121.00 138.85 122.07 Z M 138.30 122.95 L 137.78 123.80 C 137.12 124.89 137.46 126.31 138.55 126.97 C 139.64 127.63 141.05 127.28 141.71 126.20 L 142.23 125.34 C 142.89 124.25 142.55 122.84 141.46 122.18 C 140.38 121.52 138.96 121.86 138.30 122.95 Z M 137.76 123.84 L 137.25 124.72 C 136.61 125.82 136.98 127.23 138.07 127.87 C 139.17 128.51 140.58 128.14 141.22 127.04 L 141.73 126.16 C 142.37 125.06 142.00 123.65 140.90 123.01 C 139.81 122.37 138.40 122.74 137.76 123.84 Z M 137.23 124.75 L 136.74 125.62 C 136.12 126.72 136.52 128.13 137.62 128.75 C 138.73 129.37 140.13 128.98 140.75 127.87 L 141.24 127.01 C 141.86 125.90 141.47 124.50 140.36 123.88 C 139.25 123.25 137.85 123.65 137.23 124.75 Z M 136.73 125.65 L 136.26 126.51 C 135.66 127.62 136.07 129.01 137.19 129.62 C 138.30 130.22 139.70 129.81 140.30 128.70 L 140.77 127.84 C 141.37 126.72 140.96 125.33 139.84 124.72 C 138.73 124.12 137.33 124.53 136.73 125.65 Z M 136.25 126.53 L 135.79 127.41 C 135.20 128.53 135.63 129.92 136.75 130.51 C 137.87 131.10 139.26 130.67 139.85 129.55 L 140.31 128.67 C 140.90 127.55 140.47 126.16 139.35 125.57 C 138.23 124.98 136.84 125.41 136.25 126.53 Z M 135.78 127.43 L 135.32 128.34 C 134.74 129.46 135.18 130.85 136.31 131.42 C 137.43 132.00 138.82 131.56 139.40 130.43 L 139.86 129.53 C 140.44 128.40 139.99 127.02 138.87 126.44 C 137.74 125.86 136.36 126.31 135.78 127.43 Z M 135.31 128.35 L 134.85 129.27 C 134.28 130.40 134.73 131.78 135.86 132.35 C 136.99 132.92 138.37 132.46 138.94 131.33 L 139.40 130.41 C 139.97 129.28 139.52 127.91 138.39 127.34 C 137.26 126.77 135.88 127.22 135.31 128.35 Z M 134.84 129.29 L 134.40 130.18 C 133.84 131.31 134.31 132.68 135.44 133.24 C 136.58 133.80 137.95 133.34 138.51 132.20 L 138.95 131.32 C 139.51 130.18 139.04 128.81 137.91 128.25 C 136.77 127.69 135.40 128.16 134.84 129.29 Z M 134.39 130.20 L 133.96 131.11 C 133.41 132.25 133.89 133.61 135.03 134.16 C 136.17 134.70 137.54 134.22 138.08 133.09 L 138.52 132.18 C 139.06 131.04 138.58 129.67 137.44 129.13 C 136.31 128.58 134.94 129.06 134.39 130.20 Z M 133.95 131.14 L 133.52 132.06 C 132.99 133.20 133.50 134.56 134.64 135.09 C 135.79 135.62 137.15 135.12 137.67 133.97 L 138.10 133.05 C 138.63 131.91 138.12 130.55 136.98 130.02 C 135.83 129.49 134.47 129.99 133.95 131.14 Z M 133.51 132.10 L 133.10 133.02 C 132.60 134.18 133.13 135.52 134.28 136.03 C 135.44 136.53 136.78 136.00 137.29 134.85 L 137.69 133.93 C 138.20 132.77 137.67 131.42 136.51 130.92 C 135.36 130.42 134.01 130.94 133.51 132.10 Z M 133.08 133.07 L 132.70 134.00 C 132.23 135.17 132.79 136.50 133.96 136.98 C 135.13 137.45 136.46 136.89 136.93 135.72 L 137.31 134.79 C 137.79 133.63 137.22 132.29 136.06 131.82 C 134.89 131.35 133.56 131.91 133.08 133.07 Z M 132.68 134.06 L 132.33 135.01 C 131.89 136.19 132.49 137.50 133.67 137.94 C 134.85 138.38 136.16 137.79 136.60 136.61 L 136.96 135.66 C 137.40 134.48 136.80 133.17 135.62 132.73 C 134.44 132.29 133.12 132.88 132.68 134.06 Z M 132.31 135.06 L 131.98 136.00 C 131.57 137.19 132.21 138.49 133.40 138.90 C 134.59 139.32 135.89 138.68 136.30 137.49 L 136.62 136.55 C 137.03 135.36 136.40 134.06 135.21 133.65 C 134.02 133.24 132.72 133.87 132.31 135.06 Z M 131.97 136.05 L 131.67 136.99 C 131.28 138.19 131.94 139.48 133.14 139.86 C 134.34 140.25 135.62 139.59 136.01 138.39 L 136.31 137.45 C 136.70 136.25 136.04 134.96 134.84 134.58 C 133.64 134.19 132.36 134.85 131.97 136.05 Z M 131.65 137.03 L 131.36 137.99 C 131.00 139.19 131.68 140.46 132.88 140.83 C 134.09 141.20 135.36 140.52 135.73 139.31 L 136.02 138.36 C 136.39 137.15 135.70 135.88 134.50 135.51 C 133.29 135.14 132.02 135.83 131.65 137.03 Z M 131.36 138.01 L 131.08 138.96 C 130.73 140.17 131.43 141.44 132.64 141.79 C 133.85 142.14 135.11 141.44 135.46 140.23 L 135.74 139.28 C 136.09 138.07 135.39 136.81 134.18 136.46 C 132.97 136.11 131.71 136.80 131.36 138.01 Z M 131.07 138.99 L 130.81 139.94 C 130.47 141.16 131.18 142.41 132.40 142.75 C 133.61 143.09 134.87 142.38 135.20 141.16 L 135.47 140.21 C 135.81 138.99 135.10 137.74 133.88 137.40 C 132.67 137.06 131.41 137.77 131.07 138.99 Z M 130.80 139.97 L 130.54 140.94 C 130.22 142.15 130.95 143.40 132.17 143.73 C 133.38 144.05 134.63 143.32 134.96 142.10 L 135.21 141.14 C 135.53 139.92 134.81 138.67 133.59 138.35 C 132.37 138.02 131.12 138.75 130.80 139.97 Z M 130.54 140.96 L 130.29 141.94 C 129.98 143.16 130.73 144.40 131.95 144.71 C 133.17 145.02 134.41 144.28 134.72 143.05 L 134.96 142.08 C 135.27 140.85 134.53 139.61 133.31 139.31 C 132.08 139.00 130.84 139.74 130.54 140.96 Z M 130.28 141.97 L 130.05 142.96 C 129.76 144.18 130.52 145.41 131.75 145.70 C 132.97 145.99 134.20 145.23 134.49 144.01 L 134.73 143.02 C 135.02 141.80 134.26 140.57 133.03 140.28 C 131.80 139.98 130.57 140.74 130.28 141.97 Z M 130.04 142.99 L 129.83 143.96 C 129.55 145.19 130.33 146.41 131.56 146.68 C 132.79 146.95 134.01 146.18 134.29 144.94 L 134.50 143.98 C 134.77 142.74 134.00 141.53 132.77 141.25 C 131.53 140.98 130.32 141.76 130.04 142.99 Z M 129.82 143.99 L 129.62 144.96 C 129.36 146.20 130.16 147.41 131.39 147.66 C 132.63 147.92 133.84 147.12 134.09 145.89 L 134.29 144.91 C 134.55 143.68 133.75 142.47 132.52 142.21 C 131.28 141.96 130.08 142.75 129.82 143.99 Z M 129.61 145.00 L 129.42 145.98 C 129.18 147.22 130.00 148.41 131.23 148.65 C 132.47 148.89 133.67 148.08 133.91 146.84 L 134.10 145.86 C 134.34 144.62 133.52 143.42 132.29 143.18 C 131.05 142.95 129.85 143.76 129.61 145.00 Z M 129.42 146.01 L 129.24 147.00 C 129.02 148.24 129.85 149.43 131.09 149.65 C 132.33 149.87 133.52 149.04 133.74 147.80 L 133.92 146.81 C 134.14 145.57 133.31 144.38 132.07 144.16 C 130.82 143.94 129.64 144.77 129.42 146.01 Z M 129.24 147.03 L 129.07 148.02 C 128.87 149.27 129.71 150.44 130.96 150.65 C 132.20 150.85 133.38 150.00 133.58 148.76 L 133.75 147.77 C 133.95 146.52 133.10 145.35 131.86 145.14 C 130.61 144.94 129.44 145.78 129.24 147.03 Z M 129.07 148.05 L 128.92 149.04 C 128.73 150.29 129.59 151.45 130.84 151.64 C 132.09 151.83 133.25 150.97 133.44 149.72 L 133.59 148.73 C 133.78 147.48 132.91 146.32 131.67 146.13 C 130.42 145.94 129.25 146.80 129.07 148.05 Z M 128.91 149.07 L 128.78 150.07 C 128.61 151.32 129.48 152.47 130.74 152.64 C 131.99 152.81 133.14 151.93 133.31 150.68 L 133.44 149.69 C 133.62 148.44 132.74 147.29 131.49 147.12 C 130.24 146.95 129.09 147.82 128.91 149.07 Z M 128.78 150.09 L 128.65 151.09 C 128.50 152.34 129.39 153.48 130.64 153.64 C 131.90 153.79 133.04 152.90 133.19 151.65 L 133.31 150.65 C 133.47 149.40 132.58 148.26 131.32 148.11 C 130.07 147.95 128.93 148.84 128.78 150.09 Z M 128.65 151.12 L 128.54 152.11 C 128.40 153.37 129.30 154.50 130.56 154.63 C 131.82 154.77 132.95 153.87 133.08 152.61 L 133.19 151.62 C 133.33 150.37 132.43 149.23 131.17 149.10 C 129.92 148.96 128.79 149.86 128.65 151.12 Z M 128.54 152.14 L 128.44 153.13 C 128.31 154.38 129.23 155.50 130.49 155.63 C 131.75 155.75 132.87 154.83 132.99 153.57 L 133.09 152.59 C 133.21 151.33 132.29 150.21 131.04 150.09 C 129.78 149.96 128.66 150.88 128.54 152.14 Z M 128.44 153.15 L 128.35 154.14 C 128.24 155.40 129.17 156.50 130.43 156.61 C 131.69 156.72 132.80 155.79 132.91 154.53 L 132.99 153.55 C 133.10 152.29 132.17 151.18 130.91 151.07 C 129.65 150.96 128.54 151.89 128.44 153.15 Z M 128.35 154.16 L 128.27 155.15 C 128.18 156.41 129.13 157.51 130.39 157.60 C 131.65 157.70 132.74 156.75 132.84 155.49 L 132.91 154.50 C 133.01 153.24 132.06 152.15 130.80 152.05 C 129.54 151.96 128.44 152.90 128.35 154.16 Z M 128.27 155.17 L 128.21 156.17 C 128.13 157.43 129.08 158.52 130.35 158.60 C 131.61 158.68 132.69 157.72 132.78 156.46 L 132.84 155.47 C 132.92 154.21 131.96 153.12 130.70 153.04 C 129.44 152.96 128.35 153.91 128.27 155.17 Z M 128.21 156.19 L 128.15 157.20 C 128.08 158.46 129.05 159.54 130.31 159.61 C 131.57 159.68 132.65 158.71 132.72 157.45 L 132.78 156.44 C 132.85 155.18 131.88 154.10 130.62 154.03 C 129.36 153.96 128.28 154.93 128.21 156.19 Z M 128.15 157.22 L 128.10 158.24 C 128.05 159.50 129.02 160.57 130.28 160.63 C 131.55 160.69 132.62 159.71 132.68 158.45 L 132.72 157.43 C 132.78 156.17 131.81 155.10 130.54 155.04 C 129.28 154.98 128.21 155.96 128.15 157.22 Z M 128.10 158.25 L 128.06 159.27 C 128.01 160.53 129.00 161.60 130.26 161.65 C 131.52 161.70 132.58 160.72 132.64 159.45 L 132.68 158.44 C 132.73 157.17 131.74 156.11 130.48 156.06 C 129.22 156.01 128.15 156.99 128.10 158.25 Z M 128.06 159.29 L 128.03 160.31 C 127.98 161.57 128.97 162.63 130.24 162.67 C 131.50 162.71 132.56 161.73 132.60 160.46 L 132.64 159.44 C 132.68 158.18 131.69 157.12 130.43 157.08 C 129.16 157.03 128.10 158.02 128.06 159.29 Z M 128.03 160.32 L 128.00 161.33 C 127.96 162.59 128.96 163.65 130.22 163.68 C 131.48 163.72 132.54 162.72 132.57 161.46 L 132.60 160.45 C 132.64 159.19 131.64 158.13 130.38 158.10 C 129.12 158.06 128.06 159.06 128.03 160.32 Z M 128.00 161.34 L 127.98 162.32 C 127.95 163.59 128.95 164.64 130.21 164.66 C 131.47 164.69 132.52 163.69 132.55 162.43 L 132.57 161.45 C 132.60 160.18 131.60 159.14 130.34 159.11 C 129.07 159.08 128.03 160.08 128.00 161.34 Z M 127.98 162.34 L 127.96 163.33 C 127.94 164.60 128.94 165.64 130.21 165.66 C 131.47 165.68 132.51 164.67 132.53 163.41 L 132.55 162.42 C 132.57 161.15 131.57 160.11 130.30 160.09 C 129.04 160.07 128.00 161.07 127.98 162.34 Z M 127.96 163.35 L 127.95 164.41 C 127.93 165.67 128.94 166.71 130.21 166.72 C 131.47 166.74 132.51 165.73 132.52 164.46 L 132.53 163.40 C 132.55 162.13 131.54 161.10 130.27 161.08 C 129.01 161.07 127.97 162.08 127.96 163.35 Z M 127.95 164.42 L 127.94 165.43 C 127.93 166.69 128.95 167.72 130.21 167.73 C 131.48 167.74 132.51 166.72 132.51 165.46 L 132.52 164.45 C 132.53 163.19 131.51 162.16 130.25 162.15 C 128.98 162.14 127.95 163.16 127.95 164.42 Z M 127.94 165.44 L 127.94 166.40 C 127.94 167.66 128.96 168.68 130.22 168.69 C 131.48 168.69 132.51 167.67 132.51 166.41 L 132.51 165.45 C 132.52 164.18 131.50 163.16 130.23 163.16 C 128.97 163.15 127.94 164.17 127.94 165.44 Z M 127.94 166.40 L 127.94 167.34 C 127.94 168.60 128.96 169.63 130.22 169.63 C 131.49 169.63 132.51 168.61 132.51 167.34 L 132.51 166.40 C 132.51 165.14 131.49 164.12 130.23 164.12 C 128.96 164.11 127.94 165.14 127.94 166.40 Z M 127.94 167.35 L 127.95 168.38 C 127.95 169.64 128.98 170.66 130.24 170.65 C 131.50 170.65 132.52 169.62 132.52 168.36 L 132.51 167.33 C 132.50 166.07 131.48 165.05 130.21 165.06 C 128.95 165.06 127.93 166.09 127.94 167.35 Z M 127.95 168.43 L 127.98 169.44 C 128.01 170.70 129.06 171.69 130.32 171.65 C 131.58 171.62 132.58 170.57 132.54 169.31 L 132.51 168.30 C 132.48 167.04 131.43 166.05 130.17 166.09 C 128.90 166.12 127.91 167.17 127.95 168.43 Z M 127.98 169.54 L 128.06 170.52 C 128.15 171.78 129.25 172.72 130.50 172.63 C 131.76 172.53 132.70 171.44 132.61 170.18 L 132.54 169.20 C 132.44 167.94 131.35 167.00 130.09 167.09 C 128.83 167.19 127.89 168.28 127.98 169.54 Z M 128.07 170.68 L 128.22 171.67 C 128.40 172.91 129.56 173.78 130.81 173.59 C 132.05 173.41 132.92 172.25 132.73 171.01 L 132.59 170.02 C 132.41 168.77 131.25 167.91 130.00 168.09 C 128.75 168.28 127.89 169.44 128.07 170.68 Z M 128.26 171.84 L 128.48 172.84 C 128.76 174.06 129.98 174.83 131.21 174.55 C 132.44 174.27 133.20 173.05 132.92 171.82 L 132.70 170.83 C 132.42 169.60 131.20 168.83 129.97 169.12 C 128.74 169.40 127.98 170.62 128.26 171.84 Z M 128.52 172.98 L 128.81 173.94 C 129.17 175.14 130.43 175.83 131.64 175.47 C 132.84 175.11 133.53 173.84 133.17 172.64 L 132.88 171.68 C 132.52 170.48 131.26 169.79 130.05 170.15 C 128.85 170.51 128.17 171.78 128.52 172.98 Z M 128.85 174.04 L 129.17 174.96 C 129.59 176.14 130.88 176.76 132.06 176.34 C 133.25 175.93 133.87 174.63 133.45 173.45 L 133.13 172.54 C 132.71 171.35 131.42 170.73 130.24 171.15 C 129.05 171.56 128.43 172.86 128.85 174.04 Z M 129.20 175.03 L 129.54 175.89 C 130.00 177.05 131.31 177.62 132.48 177.16 C 133.64 176.70 134.21 175.39 133.75 174.23 L 133.42 173.37 C 132.96 172.21 131.64 171.64 130.48 172.10 C 129.32 172.56 128.75 173.87 129.20 175.03 Z M 129.59 175.98 L 129.97 176.84 C 130.49 177.98 131.82 178.48 132.96 177.97 C 134.10 177.46 134.60 176.12 134.09 174.98 L 133.71 174.13 C 133.19 172.99 131.86 172.48 130.72 173.00 C 129.58 173.51 129.08 174.85 129.59 175.98 Z M 130.03 176.95 L 130.51 177.87 C 131.08 178.98 132.44 179.41 133.55 178.83 C 134.65 178.26 135.08 176.90 134.51 175.80 L 134.03 174.87 C 133.46 173.77 132.10 173.34 130.99 173.91 C 129.89 174.49 129.46 175.85 130.03 176.95 Z M 130.57 177.96 L 131.10 178.88 C 131.72 179.95 133.10 180.31 134.17 179.69 C 135.25 179.07 135.61 177.69 134.99 176.62 L 134.45 175.70 C 133.83 174.63 132.45 174.27 131.38 174.89 C 130.31 175.51 129.94 176.89 130.57 177.96 Z M 131.15 178.95 L 131.65 179.74 C 132.31 180.79 133.70 181.10 134.75 180.44 C 135.79 179.77 136.10 178.39 135.44 177.34 L 134.94 176.55 C 134.27 175.50 132.89 175.19 131.84 175.85 C 130.80 176.52 130.48 177.90 131.15 178.95 Z M 131.70 179.81 L 132.27 180.64 C 132.97 181.66 134.37 181.91 135.38 181.21 C 136.40 180.51 136.66 179.12 135.96 178.10 L 135.39 177.27 C 134.69 176.26 133.29 176.00 132.28 176.70 C 131.26 177.40 131.00 178.79 131.70 179.81 Z M 132.34 180.72 L 132.96 181.55 C 133.71 182.53 135.11 182.72 136.09 181.97 C 137.07 181.23 137.27 179.83 136.52 178.85 L 135.89 178.02 C 135.15 177.04 133.75 176.85 132.77 177.59 C 131.78 178.34 131.59 179.74 132.34 180.72 Z M 133.05 181.64 L 133.73 182.43 C 134.52 183.37 135.93 183.48 136.87 182.68 C 137.80 181.88 137.91 180.48 137.11 179.54 L 136.44 178.75 C 135.64 177.81 134.23 177.70 133.30 178.50 C 132.36 179.30 132.25 180.71 133.05 181.64 Z M 133.84 182.55 L 134.57 183.28 C 135.43 184.16 136.83 184.16 137.71 183.30 C 138.58 182.44 138.59 181.03 137.72 180.16 L 137.00 179.43 C 136.14 178.55 134.73 178.55 133.86 179.41 C 132.99 180.27 132.98 181.68 133.84 182.55 Z M 134.71 183.41 L 135.49 184.07 C 136.42 184.86 137.82 184.75 138.61 183.82 C 139.40 182.89 139.29 181.49 138.36 180.70 L 137.58 180.04 C 136.65 179.25 135.25 179.36 134.46 180.29 C 133.67 181.22 133.78 182.61 134.71 183.41 Z M 135.64 184.17 L 136.45 184.75 C 137.44 185.46 138.81 185.24 139.52 184.25 C 140.23 183.27 140.01 181.89 139.02 181.18 L 138.21 180.60 C 137.22 179.89 135.85 180.11 135.14 181.10 C 134.43 182.09 134.65 183.46 135.64 184.17 Z M 136.59 184.83 L 137.43 185.35 C 138.46 185.98 139.80 185.66 140.44 184.64 C 141.07 183.61 140.75 182.26 139.72 181.63 L 138.88 181.11 C 137.86 180.48 136.51 180.79 135.88 181.82 C 135.24 182.85 135.56 184.20 136.59 184.83 Z M 137.55 185.40 L 138.41 185.87 C 139.47 186.44 140.79 186.04 141.36 184.98 C 141.92 183.93 141.53 182.61 140.47 182.04 L 139.61 181.57 C 138.55 181.01 137.23 181.40 136.66 182.46 C 136.09 183.52 136.49 184.83 137.55 185.40 Z M 138.51 185.90 L 139.39 186.33 C 140.47 186.84 141.76 186.39 142.27 185.31 C 142.79 184.24 142.34 182.95 141.26 182.43 L 140.38 182.01 C 139.30 181.49 138.01 181.94 137.50 183.02 C 136.98 184.09 137.43 185.38 138.51 185.90 Z M 139.47 186.35 L 140.37 186.74 C 141.45 187.21 142.72 186.72 143.19 185.63 C 143.67 184.54 143.17 183.28 142.08 182.80 L 141.19 182.41 C 140.10 181.94 138.83 182.43 138.36 183.52 C 137.89 184.61 138.38 185.87 139.47 186.35 Z M 140.44 186.75 L 141.36 187.12 C 142.45 187.56 143.69 187.02 144.13 185.93 C 144.56 184.83 144.03 183.59 142.94 183.16 L 142.02 182.79 C 140.92 182.35 139.68 182.89 139.24 183.98 C 138.81 185.08 139.34 186.32 140.44 186.75 Z M 141.42 187.13 L 142.36 187.47 C 143.46 187.87 144.68 187.31 145.08 186.21 C 145.48 185.11 144.91 183.89 143.81 183.49 L 142.87 183.15 C 141.77 182.74 140.56 183.31 140.15 184.41 C 139.75 185.51 140.32 186.73 141.42 187.13 Z M 142.41 187.48 L 143.38 187.80 C 144.48 188.18 145.67 187.58 146.05 186.48 C 146.42 185.38 145.83 184.18 144.72 183.81 L 143.76 183.49 C 142.66 183.11 141.46 183.70 141.09 184.81 C 140.72 185.91 141.31 187.11 142.41 187.48 Z M 143.42 187.80 L 144.37 188.10 C 145.47 188.45 146.64 187.84 146.99 186.73 C 147.34 185.63 146.73 184.46 145.62 184.11 L 144.68 183.81 C 143.58 183.46 142.40 184.07 142.05 185.18 C 141.71 186.28 142.32 187.46 143.42 187.80 Z M 144.41 188.10 L 145.31 188.37 C 146.41 188.69 147.57 188.06 147.89 186.96 C 148.22 185.86 147.59 184.70 146.49 184.37 L 145.58 184.11 C 144.48 183.78 143.32 184.41 143.00 185.52 C 142.67 186.62 143.30 187.78 144.41 188.10 Z M 145.35 188.37 L 146.28 188.62 C 147.38 188.92 148.52 188.28 148.82 187.17 C 149.13 186.07 148.48 184.93 147.38 184.63 L 146.44 184.37 C 145.34 184.07 144.20 184.72 143.90 185.82 C 143.60 186.93 144.25 188.07 145.35 188.37 Z M 146.33 188.62 L 147.29 188.87 C 148.39 189.14 149.51 188.47 149.79 187.37 C 150.07 186.27 149.40 185.15 148.30 184.87 L 147.33 184.63 C 146.23 184.35 145.11 185.02 144.83 186.12 C 144.55 187.23 145.22 188.34 146.33 188.62 Z M 147.34 188.86 L 148.34 189.09 C 149.45 189.35 150.54 188.66 150.80 187.56 C 151.05 186.45 150.36 185.36 149.26 185.10 L 148.25 184.87 C 147.15 184.62 146.05 185.31 145.80 186.41 C 145.55 187.51 146.23 188.61 147.34 188.86 Z M 148.39 189.09 L 149.44 189.31 C 150.54 189.54 151.62 188.83 151.85 187.73 C 152.07 186.63 151.36 185.55 150.26 185.32 L 149.21 185.11 C 148.11 184.88 147.03 185.59 146.81 186.69 C 146.58 187.79 147.29 188.87 148.39 189.09 Z M 149.49 189.31 L 150.47 189.49 C 151.57 189.69 152.63 188.96 152.83 187.86 C 153.03 186.76 152.31 185.71 151.21 185.51 L 150.22 185.33 C 149.12 185.12 148.06 185.85 147.86 186.95 C 147.66 188.05 148.39 189.10 149.49 189.31 Z M 150.51 189.48 L 151.50 189.65 C 152.60 189.83 153.64 189.09 153.82 187.99 C 154.00 186.89 153.26 185.86 152.16 185.68 L 151.17 185.51 C 150.07 185.33 149.04 186.07 148.85 187.17 C 148.67 188.27 149.41 189.30 150.51 189.48 Z M 151.54 189.64 L 152.55 189.79 C 153.64 189.96 154.66 189.20 154.82 188.11 C 154.99 187.02 154.23 186.00 153.14 185.83 L 152.13 185.68 C 151.04 185.52 150.02 186.27 149.85 187.37 C 149.69 188.46 150.44 189.48 151.54 189.64 Z M 152.58 189.79 L 153.59 189.92 C 154.68 190.07 155.68 189.31 155.83 188.22 C 155.98 187.13 155.21 186.12 154.12 185.98 L 153.11 185.84 C 152.02 185.69 151.01 186.46 150.87 187.55 C 150.72 188.64 151.49 189.64 152.58 189.79 Z M 153.62 189.92 L 154.62 190.04 C 155.71 190.17 156.69 189.39 156.82 188.31 C 156.96 187.22 156.18 186.23 155.09 186.10 L 154.09 185.98 C 153.00 185.85 152.02 186.63 151.89 187.71 C 151.76 188.80 152.53 189.79 153.62 189.92 Z M 154.65 190.03 L 155.63 190.14 C 156.71 190.25 157.68 189.47 157.80 188.38 C 157.91 187.30 157.13 186.33 156.04 186.21 L 155.06 186.11 C 153.98 186.00 153.01 186.78 152.90 187.86 C 152.78 188.95 153.57 189.92 154.65 190.03 Z M 155.66 190.13 L 156.67 190.22 C 157.74 190.32 158.70 189.52 158.80 188.44 C 158.89 187.36 158.10 186.41 157.02 186.31 L 156.01 186.22 C 154.93 186.12 153.98 186.92 153.88 188.00 C 153.79 189.08 154.58 190.03 155.66 190.13 Z M 156.70 190.21 L 157.75 190.28 C 158.83 190.36 159.76 189.56 159.84 188.49 C 159.92 187.41 159.11 186.48 158.04 186.40 L 156.99 186.32 C 155.91 186.25 154.98 187.05 154.90 188.12 C 154.82 189.20 155.63 190.13 156.70 190.21 Z M 157.79 190.27 L 158.80 190.33 C 159.86 190.39 160.77 189.57 160.83 188.51 C 160.89 187.44 160.08 186.53 159.01 186.47 L 158.00 186.41 C 156.94 186.35 156.03 187.17 155.97 188.24 C 155.91 189.30 156.72 190.21 157.79 190.27 Z M 158.83 190.32 L 159.80 190.36 C 160.86 190.40 161.75 189.58 161.80 188.52 C 161.84 187.46 161.02 186.57 159.96 186.52 L 158.98 186.48 C 157.92 186.44 157.03 187.26 156.99 188.32 C 156.94 189.38 157.77 190.27 158.83 190.32 Z M 159.83 190.34 L 160.79 190.37 C 161.84 190.40 162.72 189.57 162.74 188.52 C 162.77 187.47 161.95 186.59 160.90 186.56 L 159.93 186.54 C 158.88 186.51 158.01 187.34 157.98 188.39 C 157.95 189.44 158.78 190.31 159.83 190.34 Z M 160.81 190.35 L 161.77 190.37 C 162.81 190.39 163.67 189.56 163.69 188.52 C 163.71 187.48 162.88 186.61 161.84 186.60 L 160.88 186.58 C 159.83 186.56 158.97 187.39 158.95 188.43 C 158.94 189.47 159.77 190.33 160.81 190.35 Z M 161.78 190.36 L 162.78 190.37 C 163.82 190.38 164.67 189.55 164.68 188.52 C 164.69 187.48 163.86 186.63 162.83 186.62 L 161.82 186.61 C 160.79 186.60 159.94 187.43 159.92 188.46 C 159.91 189.50 160.74 190.35 161.78 190.36 Z M 162.79 190.36 L 163.80 190.37 C 164.83 190.37 165.67 189.54 165.68 188.51 C 165.68 187.48 164.85 186.64 163.82 186.63 L 162.81 186.63 C 161.78 186.62 160.94 187.45 160.94 188.49 C 160.93 189.52 161.76 190.36 162.79 190.36 Z M 163.82 190.36 L 164.82 190.35 C 165.85 190.35 166.68 189.52 166.68 188.49 C 166.67 187.47 165.84 186.64 164.82 186.64 L 163.81 186.64 C 162.78 186.65 161.95 187.48 161.96 188.51 C 161.96 189.53 162.79 190.36 163.82 190.36 Z M 164.84 190.35 L 165.84 190.33 C 166.86 190.32 167.68 189.49 167.67 188.47 C 167.66 187.45 166.82 186.63 165.80 186.64 L 164.80 186.65 C 163.78 186.66 162.96 187.50 162.97 188.52 C 162.98 189.54 163.82 190.36 164.84 190.35 Z M 165.86 190.32 L 166.85 190.30 C 167.86 190.28 168.66 189.44 168.64 188.43 C 168.62 187.41 167.78 186.61 166.77 186.63 L 165.78 186.65 C 164.77 186.67 163.96 187.51 163.98 188.53 C 164.00 189.54 164.84 190.35 165.86 190.32 Z M 166.87 190.29 L 167.89 190.26 C 168.89 190.22 169.68 189.38 169.65 188.37 C 169.62 187.36 168.77 186.57 167.76 186.60 L 166.74 186.64 C 165.74 186.67 164.94 187.52 164.98 188.53 C 165.01 189.54 165.86 190.33 166.87 190.29 Z M 167.91 190.25 L 168.93 190.20 C 169.93 190.15 170.71 189.29 170.66 188.29 C 170.60 187.29 169.75 186.51 168.75 186.56 L 167.73 186.62 C 166.73 186.67 165.96 187.52 166.01 188.52 C 166.06 189.53 166.91 190.30 167.91 190.25 Z M 168.97 190.19 L 169.96 190.11 C 170.96 190.04 171.71 189.18 171.64 188.18 C 171.57 187.18 170.70 186.43 169.71 186.51 L 168.71 186.58 C 167.71 186.65 166.96 187.51 167.03 188.51 C 167.10 189.51 167.97 190.26 168.97 190.19 Z M 170.01 190.10 L 170.99 190.01 C 171.98 189.91 172.70 189.03 172.61 188.04 C 172.51 187.05 171.63 186.33 170.64 186.42 L 169.66 186.52 C 168.67 186.61 167.95 187.49 168.04 188.48 C 168.14 189.47 169.02 190.20 170.01 190.10 Z M 171.04 189.99 L 172.01 189.87 C 172.99 189.75 173.69 188.85 173.56 187.87 C 173.44 186.89 172.54 186.19 171.56 186.32 L 170.59 186.44 C 169.61 186.56 168.91 187.46 169.04 188.44 C 169.16 189.42 170.06 190.12 171.04 189.99 Z M 172.07 189.86 L 173.05 189.70 C 174.02 189.54 174.69 188.63 174.53 187.65 C 174.37 186.68 173.46 186.02 172.49 186.17 L 171.50 186.33 C 170.53 186.49 169.87 187.40 170.02 188.37 C 170.18 189.35 171.09 190.01 172.07 189.86 Z M 173.10 189.69 L 174.08 189.50 C 175.05 189.31 175.68 188.38 175.50 187.41 C 175.31 186.44 174.38 185.81 173.41 186.00 L 172.43 186.18 C 171.46 186.37 170.83 187.30 171.02 188.27 C 171.20 189.24 172.14 189.87 173.10 189.69 Z M 174.13 189.49 L 175.10 189.27 C 176.07 189.06 176.67 188.11 176.46 187.15 C 176.25 186.19 175.30 185.58 174.34 185.79 L 173.37 186.01 C 172.41 186.22 171.80 187.17 172.01 188.13 C 172.22 189.09 173.17 189.70 174.13 189.49 Z M 175.14 189.26 L 176.12 189.03 C 177.07 188.80 177.66 187.83 177.43 186.88 C 177.19 185.92 176.23 185.34 175.28 185.57 L 174.30 185.80 C 173.35 186.04 172.76 187.00 172.99 187.95 C 173.23 188.91 174.19 189.49 175.14 189.26 Z M 176.14 189.02 L 177.12 188.76 C 178.07 188.52 178.64 187.55 178.39 186.60 C 178.14 185.65 177.17 185.08 176.22 185.32 L 175.25 185.58 C 174.30 185.83 173.73 186.80 173.98 187.75 C 174.22 188.70 175.19 189.27 176.14 189.02 Z M 177.14 188.75 L 178.15 188.47 C 179.09 188.21 179.64 187.24 179.38 186.30 C 179.12 185.36 178.15 184.80 177.21 185.06 L 176.20 185.34 C 175.26 185.60 174.71 186.57 174.97 187.51 C 175.23 188.45 176.20 189.01 177.14 188.75 Z M 178.17 188.45 L 179.16 188.16 C 180.09 187.88 180.62 186.91 180.35 185.99 C 180.08 185.06 179.11 184.53 178.18 184.80 L 177.19 185.09 C 176.26 185.36 175.73 186.33 176.00 187.26 C 176.27 188.18 177.24 188.72 178.17 188.45 Z M 179.19 188.13 L 180.14 187.83 C 181.06 187.55 181.57 186.58 181.28 185.67 C 181.00 184.75 180.03 184.24 179.11 184.52 L 178.16 184.82 C 177.24 185.11 176.73 186.08 177.02 186.99 C 177.30 187.90 178.27 188.41 179.19 188.13 Z M 180.17 187.81 L 181.08 187.50 C 181.98 187.21 182.46 186.23 182.16 185.33 C 181.86 184.44 180.89 183.95 179.99 184.25 L 179.09 184.55 C 178.19 184.85 177.70 185.82 178.00 186.72 C 178.30 187.62 179.27 188.11 180.17 187.81 Z M 181.11 187.47 L 182.08 187.12 C 182.96 186.80 183.41 185.83 183.09 184.95 C 182.77 184.07 181.80 183.61 180.92 183.93 L 179.95 184.28 C 179.07 184.60 178.62 185.58 178.94 186.46 C 179.26 187.34 180.23 187.79 181.11 187.47 Z M 182.13 187.08 L 183.10 186.69 C 183.96 186.34 184.37 185.37 184.02 184.51 C 183.68 183.65 182.70 183.23 181.84 183.58 L 180.87 183.97 C 180.01 184.32 179.59 185.30 179.94 186.16 C 180.29 187.01 181.27 187.43 182.13 187.08 Z M 183.15 186.65 L 184.03 186.25 C 184.87 185.88 185.24 184.89 184.87 184.06 C 184.49 183.22 183.51 182.85 182.67 183.22 L 181.79 183.62 C 180.95 184.00 180.58 184.98 180.95 185.81 C 181.33 186.65 182.31 187.02 183.15 186.65 Z M 184.08 186.21 L 184.90 185.80 C 185.71 185.40 186.05 184.42 185.65 183.61 C 185.25 182.80 184.26 182.46 183.45 182.86 L 182.63 183.27 C 181.82 183.67 181.48 184.65 181.88 185.46 C 182.28 186.27 183.26 186.61 184.08 186.21 Z M 184.94 185.77 L 185.84 185.29 C 186.63 184.86 186.93 183.88 186.51 183.09 C 186.09 182.29 185.10 181.99 184.31 182.42 L 183.41 182.90 C 182.62 183.32 182.32 184.30 182.74 185.10 C 183.16 185.89 184.15 186.19 184.94 185.77 Z M 185.87 185.26 L 186.74 184.77 C 187.52 184.33 187.80 183.34 187.35 182.56 C 186.91 181.78 185.92 181.51 185.15 181.95 L 184.28 182.44 C 183.50 182.88 183.23 183.87 183.67 184.65 C 184.11 185.43 185.10 185.70 185.87 185.26 Z M 186.76 184.76 L 187.61 184.26 C 188.38 183.81 188.64 182.82 188.19 182.05 C 187.74 181.28 186.75 181.02 185.98 181.47 L 185.13 181.97 C 184.36 182.42 184.10 183.41 184.55 184.18 C 185.00 184.95 185.99 185.21 186.76 184.76 Z M 187.61 184.25 L 187.69 184.21 C 188.46 183.76 188.72 182.77 188.26 182.00 C 187.81 181.23 186.83 180.98 186.06 181.43 L 185.98 181.47 C 185.21 181.93 184.95 182.91 185.40 183.68 C 185.86 184.45 186.84 184.71 187.61 184.25 Z"
      fill="black"
      fill-rule="nonzero" /></svg>