<svg xmlns="http://www.w3.org/2000/svg" width="300" height="300" viewBox="0 0 300 300">
<path d="M 178.45 94.07 L 177.73 93.39 C 176.98 92.69 175.81 92.72 175.11 93.47 C 174.40 94.21 174.44 95.38 175.18 96.09 L 175.90 96.77 C 176.65 97.47 177.82 97.44 178.53 96.69 C 179.23 95.95 179.19 94.78 178.45 94.07 Z M 177.74 93.41 L 177.02 92.72 C 176.29 92.01 175.12 92.03 174.41 92.76 C 173.70 93.49 173.72 94.66 174.45 95.37 L 175.17 96.07 C 175.90 96.78 177.07 96.76 177.78 96.02 C 178.49 95.29 178.47 94.12 177.74 93.41 Z M 177.05 92.75 L 176.34 92.04 C 175.63 91.32 174.46 91.31 173.74 92.02 C 173.02 92.74 173.01 93.90 173.72 94.63 L 174.43 95.34 C 175.14 96.06 176.31 96.07 177.03 95.35 C 177.75 94.64 177.76 93.47 177.05 92.75 Z M 176.38 92.09 L 175.69 91.34 C 175.01 90.60 173.85 90.55 173.10 91.24 C 172.36 91.93 172.31 93.09 173.00 93.83 L 173.68 94.58 C 174.37 95.32 175.53 95.37 176.28 94.68 C 177.02 93.99 177.07 92.83 176.38 92.09 Z M 175.73 91.39 L 175.06 90.62 C 174.40 89.85 173.24 89.77 172.47 90.43 C 171.71 91.10 171.63 92.25 172.29 93.02 L 172.96 93.79 C 173.63 94.55 174.78 94.63 175.55 93.97 C 176.31 93.31 176.39 92.15 175.73 91.39 Z M 175.07 90.63 L 174.41 89.86 C 173.76 89.09 172.60 89.00 171.83 89.66 C 171.06 90.32 170.97 91.48 171.63 92.24 L 172.28 93.01 C 172.94 93.78 174.10 93.87 174.87 93.21 C 175.64 92.55 175.73 91.39 175.07 90.63 Z M 174.39 89.84 L 173.74 89.11 C 173.07 88.35 171.92 88.28 171.16 88.95 C 170.40 89.63 170.33 90.78 171.01 91.54 L 171.65 92.27 C 172.32 93.02 173.48 93.09 174.24 92.42 C 174.99 91.75 175.06 90.59 174.39 89.84 Z M 173.68 89.04 L 172.98 88.33 C 172.28 87.60 171.12 87.59 170.39 88.30 C 169.67 89.01 169.66 90.17 170.37 90.89 L 171.07 91.61 C 171.77 92.33 172.93 92.34 173.66 91.63 C 174.38 90.92 174.39 89.76 173.68 89.04 Z M 172.86 88.21 L 172.12 87.57 C 171.35 86.92 170.19 87.01 169.53 87.78 C 168.87 88.55 168.96 89.71 169.74 90.37 L 170.48 91.01 C 171.26 91.66 172.41 91.57 173.07 90.80 C 173.73 90.03 173.64 88.87 172.86 88.21 Z M 171.93 87.43 L 171.10 86.89 C 170.26 86.33 169.12 86.57 168.56 87.42 C 168.00 88.27 168.24 89.41 169.09 89.97 L 169.92 90.51 C 170.77 91.07 171.91 90.83 172.46 89.98 C 173.02 89.13 172.78 87.99 171.93 87.43 Z M 170.88 86.76 L 169.99 86.34 C 169.07 85.91 167.97 86.30 167.54 87.22 C 167.10 88.14 167.50 89.24 168.42 89.67 L 169.31 90.09 C 170.23 90.53 171.33 90.13 171.76 89.21 C 172.20 88.29 171.80 87.20 170.88 86.76 Z M 169.79 86.26 L 168.84 85.94 C 167.88 85.62 166.83 86.14 166.51 87.10 C 166.19 88.07 166.71 89.11 167.67 89.44 L 168.62 89.75 C 169.58 90.08 170.63 89.56 170.95 88.59 C 171.27 87.63 170.75 86.58 169.79 86.26 Z M 168.68 85.89 L 167.69 85.66 C 166.70 85.42 165.71 86.04 165.47 87.03 C 165.24 88.02 165.85 89.01 166.84 89.25 L 167.83 89.48 C 168.82 89.72 169.82 89.11 170.05 88.12 C 170.29 87.12 169.67 86.13 168.68 85.89 Z M 167.55 85.63 L 166.55 85.48 C 165.55 85.32 164.60 86.01 164.45 87.02 C 164.29 88.03 164.98 88.97 165.99 89.13 L 166.98 89.28 C 167.99 89.43 168.93 88.74 169.09 87.74 C 169.25 86.73 168.55 85.79 167.55 85.63 Z M 166.39 85.46 L 165.38 85.39 C 164.36 85.32 163.48 86.10 163.41 87.11 C 163.35 88.13 164.12 89.01 165.14 89.08 L 166.15 89.15 C 167.17 89.21 168.05 88.44 168.12 87.42 C 168.18 86.40 167.41 85.52 166.39 85.46 Z M 165.11 85.39 L 164.14 85.46 C 163.12 85.54 162.36 86.44 162.44 87.46 C 162.52 88.48 163.41 89.24 164.43 89.16 L 165.40 89.08 C 166.42 89.00 167.19 88.11 167.11 87.09 C 167.03 86.07 166.13 85.31 165.11 85.39 Z M 163.77 85.53 L 162.82 85.80 C 161.84 86.09 161.27 87.12 161.56 88.10 C 161.84 89.08 162.87 89.65 163.85 89.37 L 164.80 89.09 C 165.78 88.81 166.35 87.78 166.07 86.80 C 165.78 85.81 164.75 85.24 163.77 85.53 Z M 162.45 85.95 L 161.64 86.39 C 160.74 86.88 160.41 88.01 160.90 88.91 C 161.39 89.82 162.52 90.15 163.42 89.66 L 164.23 89.22 C 165.13 88.72 165.46 87.60 164.97 86.69 C 164.48 85.79 163.35 85.46 162.45 85.95 Z M 161.38 86.56 L 160.69 87.11 C 159.89 87.75 159.75 88.92 160.39 89.72 C 161.03 90.53 162.20 90.67 163.01 90.03 L 163.69 89.48 C 164.50 88.85 164.63 87.67 163.99 86.87 C 163.35 86.06 162.18 85.92 161.38 86.56 Z M 160.52 87.26 L 159.84 87.95 C 159.12 88.68 159.13 89.87 159.86 90.59 C 160.60 91.31 161.78 91.30 162.51 90.56 L 163.18 89.87 C 163.90 89.14 163.89 87.96 163.16 87.23 C 162.42 86.51 161.24 86.52 160.52 87.26 Z M 159.71 88.08 L 159.04 88.92 C 158.40 89.72 158.53 90.90 159.33 91.55 C 160.14 92.19 161.31 92.07 161.96 91.26 L 162.63 90.43 C 163.28 89.62 163.15 88.44 162.34 87.80 C 161.54 87.15 160.36 87.28 159.71 88.08 Z M 158.95 89.03 L 158.29 90.00 C 157.71 90.86 157.93 92.03 158.79 92.61 C 159.64 93.19 160.81 92.97 161.39 92.12 L 162.05 91.14 C 162.64 90.29 162.42 89.12 161.56 88.54 C 160.70 87.96 159.54 88.18 158.95 89.03 Z M 158.23 90.09 L 157.74 90.90 C 157.21 91.79 157.49 92.95 158.38 93.48 C 159.27 94.02 160.42 93.73 160.96 92.84 L 161.45 92.03 C 161.99 91.14 161.70 89.99 160.81 89.45 C 159.92 88.92 158.77 89.20 158.23 90.09 Z M 157.70 90.96 L 157.23 91.82 C 156.73 92.73 157.06 93.87 157.97 94.38 C 158.88 94.88 160.02 94.55 160.52 93.64 L 161.00 92.78 C 161.50 91.87 161.17 90.73 160.26 90.23 C 159.35 89.73 158.21 90.06 157.70 90.96 Z M 157.20 91.88 L 156.74 92.78 C 156.27 93.70 156.64 94.83 157.57 95.31 C 158.49 95.78 159.63 95.41 160.10 94.48 L 160.56 93.58 C 161.03 92.66 160.66 91.52 159.73 91.05 C 158.81 90.58 157.67 90.95 157.20 91.88 Z M 156.72 92.82 L 156.28 93.75 C 155.83 94.69 156.24 95.82 157.18 96.26 C 158.12 96.70 159.24 96.30 159.68 95.36 L 160.12 94.44 C 160.57 93.49 160.17 92.37 159.23 91.93 C 158.29 91.48 157.16 91.88 156.72 92.82 Z M 156.26 93.80 L 155.84 94.74 C 155.42 95.69 155.85 96.81 156.81 97.22 C 157.76 97.64 158.87 97.21 159.29 96.26 L 159.71 95.32 C 160.13 94.37 159.69 93.25 158.74 92.83 C 157.79 92.41 156.68 92.85 156.26 93.80 Z M 155.82 94.78 L 155.44 95.73 C 155.04 96.69 155.50 97.79 156.47 98.19 C 157.43 98.58 158.53 98.12 158.93 97.16 L 159.31 96.22 C 159.71 95.25 159.25 94.15 158.28 93.75 C 157.32 93.36 156.22 93.82 155.82 94.78 Z M 155.41 95.77 L 155.03 96.80 C 154.66 97.78 155.15 98.87 156.12 99.23 C 157.10 99.60 158.19 99.11 158.56 98.14 L 158.95 97.11 C 159.32 96.13 158.82 95.04 157.85 94.67 C 156.87 94.31 155.78 94.80 155.41 95.77 Z M 155.01 96.85 L 154.65 97.88 C 154.31 98.87 154.83 99.94 155.82 100.29 C 156.80 100.63 157.88 100.11 158.22 99.12 L 158.58 98.09 C 158.92 97.10 158.40 96.03 157.41 95.68 C 156.43 95.34 155.35 95.86 155.01 96.85 Z M 154.63 97.93 L 154.32 98.91 C 154.00 99.91 154.55 100.97 155.54 101.29 C 156.54 101.61 157.60 101.06 157.92 100.06 L 158.24 99.07 C 158.55 98.08 158.00 97.02 157.01 96.70 C 156.01 96.38 154.95 96.93 154.63 97.93 Z M 154.30 98.95 L 154.03 99.89 C 153.73 100.89 154.31 101.94 155.31 102.24 C 156.31 102.53 157.36 101.96 157.66 100.96 L 157.93 100.02 C 158.23 99.02 157.66 97.97 156.65 97.67 C 155.65 97.38 154.60 97.95 154.30 98.95 Z M 154.02 99.92 L 153.78 100.79 C 153.50 101.80 154.10 102.84 155.10 103.12 C 156.11 103.39 157.16 102.80 157.43 101.79 L 157.67 100.92 C 157.95 99.91 157.35 98.87 156.34 98.59 C 155.34 98.32 154.29 98.91 154.02 99.92 Z M 153.77 100.82 L 153.53 101.75 C 153.27 102.77 153.88 103.80 154.90 104.06 C 155.91 104.32 156.94 103.70 157.20 102.69 L 157.44 101.76 C 157.70 100.75 157.09 99.71 156.07 99.45 C 155.06 99.20 154.03 99.81 153.77 100.82 Z M 153.52 101.79 L 153.28 102.83 C 153.04 103.85 153.67 104.87 154.69 105.11 C 155.71 105.35 156.73 104.72 156.97 103.70 L 157.21 102.66 C 157.45 101.64 156.82 100.61 155.80 100.37 C 154.78 100.13 153.76 100.77 153.52 101.79 Z M 153.27 102.87 L 153.07 103.81 C 152.85 104.84 153.50 105.84 154.53 106.06 C 155.55 106.28 156.56 105.63 156.78 104.60 L 156.98 103.66 C 157.20 102.63 156.54 101.62 155.52 101.40 C 154.49 101.19 153.48 101.84 153.27 102.87 Z M 153.06 103.84 L 152.88 104.75 C 152.68 105.78 153.35 106.77 154.38 106.98 C 155.41 107.18 156.41 106.50 156.61 105.47 L 156.79 104.57 C 156.99 103.54 156.32 102.54 155.29 102.34 C 154.26 102.14 153.26 102.81 153.06 103.84 Z M 152.88 104.77 L 152.70 105.70 C 152.51 106.74 153.20 107.73 154.23 107.92 C 155.26 108.11 156.25 107.43 156.44 106.39 L 156.62 105.46 C 156.81 104.42 156.12 103.43 155.09 103.24 C 154.06 103.05 153.07 103.73 152.88 104.77 Z M 152.70 105.71 L 152.53 106.69 C 152.34 107.72 153.03 108.71 154.06 108.90 C 155.10 109.08 156.09 108.39 156.27 107.36 L 156.45 106.38 C 156.63 105.35 155.94 104.36 154.91 104.18 C 153.87 103.99 152.88 104.68 152.70 105.71 Z M 152.52 106.70 L 152.35 107.69 C 152.17 108.73 152.86 109.72 153.90 109.90 C 154.93 110.08 155.92 109.38 156.10 108.35 L 156.27 107.35 C 156.46 106.31 155.76 105.33 154.73 105.15 C 153.69 104.97 152.70 105.66 152.52 106.70 Z M 152.35 107.70 L 152.18 108.70 C 152.00 109.74 152.70 110.72 153.73 110.90 C 154.77 111.08 155.76 110.38 155.93 109.34 L 156.10 108.34 C 156.28 107.30 155.58 106.32 154.55 106.14 C 153.51 105.97 152.52 106.66 152.35 107.70 Z M 152.17 108.70 L 152.01 109.66 C 151.84 110.69 152.54 111.68 153.58 111.85 C 154.62 112.03 155.60 111.33 155.78 110.29 L 155.94 109.34 C 156.11 108.30 155.41 107.32 154.37 107.14 C 153.33 106.97 152.35 107.67 152.17 108.70 Z M 152.01 109.66 L 151.85 110.64 C 151.68 111.68 152.38 112.66 153.42 112.83 C 154.46 113.00 155.45 112.30 155.62 111.26 L 155.78 110.28 C 155.95 109.24 155.24 108.26 154.20 108.09 C 153.16 107.92 152.18 108.62 152.01 109.66 Z M 151.84 110.65 L 151.68 111.66 C 151.52 112.70 152.23 113.68 153.27 113.84 C 154.32 114.01 155.30 113.30 155.46 112.26 L 155.62 111.25 C 155.79 110.20 155.08 109.22 154.03 109.06 C 152.99 108.89 152.01 109.60 151.84 110.65 Z M 151.68 111.67 L 151.53 112.68 C 151.37 113.72 152.09 114.70 153.13 114.86 C 154.18 115.02 155.15 114.30 155.31 113.25 L 155.47 112.24 C 155.63 111.20 154.91 110.22 153.86 110.06 C 152.82 109.90 151.84 110.62 151.68 111.67 Z M 151.52 112.69 L 151.38 113.66 C 151.23 114.71 151.95 115.68 153.00 115.84 C 154.05 115.99 155.02 115.26 155.18 114.22 L 155.32 113.24 C 155.47 112.19 154.74 111.22 153.70 111.07 C 152.65 110.92 151.68 111.64 151.52 112.69 Z M 151.38 113.67 L 151.24 114.67 C 151.09 115.72 151.82 116.69 152.87 116.84 C 153.92 116.98 154.89 116.25 155.04 115.20 L 155.18 114.20 C 155.33 113.15 154.59 112.18 153.54 112.04 C 152.49 111.89 151.52 112.62 151.38 113.67 Z M 151.23 114.68 L 151.10 115.69 C 150.96 116.74 151.70 117.70 152.75 117.85 C 153.80 117.99 154.77 117.25 154.91 116.20 L 155.04 115.19 C 155.18 114.14 154.45 113.17 153.39 113.03 C 152.34 112.89 151.38 113.63 151.23 114.68 Z M 151.10 115.70 L 150.97 116.70 C 150.83 117.75 151.58 118.72 152.63 118.85 C 153.69 118.99 154.65 118.24 154.78 117.19 L 154.91 116.18 C 155.05 115.13 154.30 114.17 153.25 114.03 C 152.19 113.90 151.23 114.64 151.10 115.70 Z M 150.96 116.71 L 150.84 117.70 C 150.72 118.76 151.47 119.72 152.52 119.85 C 153.58 119.98 154.54 119.22 154.67 118.17 L 154.79 117.18 C 154.92 116.12 154.16 115.16 153.11 115.03 C 152.05 114.90 151.09 115.65 150.96 116.71 Z M 150.84 117.71 L 150.73 118.70 C 150.60 119.76 151.36 120.71 152.42 120.84 C 153.48 120.96 154.43 120.20 154.56 119.14 L 154.67 118.16 C 154.79 117.10 154.04 116.14 152.98 116.02 C 151.92 115.90 150.96 116.66 150.84 117.71 Z M 150.72 118.71 L 150.61 119.70 C 150.49 120.76 151.26 121.71 152.32 121.83 C 153.38 121.95 154.33 121.18 154.45 120.12 L 154.56 119.14 C 154.68 118.08 153.91 117.12 152.85 117.00 C 151.80 116.89 150.84 117.65 150.72 118.71 Z M 150.61 119.70 L 150.50 120.70 C 150.39 121.77 151.16 122.72 152.22 122.83 C 153.28 122.95 154.23 122.18 154.34 121.12 L 154.45 120.12 C 154.56 119.06 153.80 118.10 152.74 117.99 C 151.68 117.88 150.72 118.64 150.61 119.70 Z M 150.50 120.71 L 150.40 121.69 C 150.29 122.75 151.06 123.70 152.12 123.82 C 153.18 123.93 154.13 123.16 154.24 122.09 L 154.35 121.11 C 154.46 120.05 153.69 119.10 152.62 118.99 C 151.56 118.88 150.61 119.65 150.50 120.71 Z M 150.39 121.69 L 150.29 122.68 C 150.18 123.74 150.96 124.69 152.02 124.80 C 153.08 124.91 154.03 124.14 154.14 123.08 L 154.24 122.09 C 154.35 121.03 153.58 120.08 152.52 119.97 C 151.45 119.86 150.50 120.63 150.39 121.69 Z M 150.29 122.68 L 150.19 123.68 C 150.08 124.74 150.86 125.70 151.92 125.80 C 152.99 125.91 153.94 125.14 154.04 124.07 L 154.15 123.07 C 154.25 122.01 153.48 121.06 152.41 120.95 C 151.35 120.84 150.40 121.62 150.29 122.68 Z M 150.19 123.68 L 150.09 124.69 C 149.98 125.75 150.76 126.71 151.82 126.81 C 152.89 126.92 153.84 126.14 153.95 125.08 L 154.05 124.07 C 154.15 123.00 153.38 122.05 152.31 121.95 C 151.25 121.84 150.29 122.62 150.19 123.68 Z M 150.08 124.69 L 149.98 125.70 C 149.88 126.76 150.65 127.72 151.72 127.82 C 152.79 127.93 153.74 127.15 153.85 126.08 L 153.95 125.08 C 154.05 124.01 153.28 123.06 152.21 122.95 C 151.14 122.84 150.19 123.62 150.08 124.69 Z M 149.98 125.70 L 149.88 126.69 C 149.78 127.75 150.55 128.71 151.62 128.81 C 152.69 128.92 153.64 128.14 153.75 127.07 L 153.85 126.08 C 153.96 125.02 153.18 124.06 152.11 123.96 C 151.04 123.85 150.09 124.63 149.98 125.70 Z M 149.88 126.69 L 149.78 127.68 C 149.68 128.75 150.46 129.70 151.52 129.81 C 152.59 129.91 153.55 129.13 153.65 128.07 L 153.75 127.07 C 153.86 126.00 153.08 125.05 152.01 124.95 C 150.94 124.84 149.99 125.62 149.88 126.69 Z M 149.78 127.68 L 149.68 128.67 C 149.58 129.74 150.36 130.70 151.43 130.80 C 152.49 130.91 153.45 130.13 153.55 129.06 L 153.65 128.06 C 153.76 127.00 152.98 126.04 151.91 125.94 C 150.84 125.83 149.89 126.61 149.78 127.68 Z M 149.68 128.68 L 149.58 129.67 C 149.48 130.75 150.26 131.70 151.33 131.80 C 152.40 131.91 153.35 131.13 153.46 130.06 L 153.56 129.06 C 153.66 127.99 152.88 127.04 151.81 126.93 C 150.74 126.82 149.79 127.60 149.68 128.68 Z M 149.58 129.68 L 149.48 130.67 C 149.38 131.74 150.16 132.70 151.23 132.80 C 152.30 132.91 153.26 132.12 153.36 131.05 L 153.46 130.06 C 153.56 128.99 152.78 128.03 151.71 127.93 C 150.64 127.82 149.69 128.60 149.58 129.68 Z M 149.48 130.67 L 149.38 131.66 C 149.28 132.73 150.06 133.69 151.13 133.79 C 152.21 133.90 153.16 133.11 153.26 132.04 L 153.36 131.05 C 153.47 129.98 152.68 129.03 151.61 128.92 C 150.54 128.82 149.59 129.60 149.48 130.67 Z M 149.38 131.66 L 149.29 132.66 C 149.18 133.73 149.97 134.69 151.04 134.79 C 152.11 134.89 153.06 134.11 153.17 133.04 L 153.27 132.04 C 153.37 130.97 152.59 130.02 151.51 129.91 C 150.44 129.81 149.49 130.59 149.38 131.66 Z M 149.28 132.66 L 149.19 133.66 C 149.08 134.73 149.87 135.68 150.94 135.79 C 152.01 135.89 152.97 135.11 153.07 134.03 L 153.17 133.04 C 153.27 131.96 152.49 131.01 151.42 130.90 C 150.34 130.80 149.39 131.59 149.28 132.66 Z M 149.19 133.66 L 149.09 134.66 C 148.99 135.73 149.77 136.69 150.85 136.79 C 151.92 136.89 152.87 136.11 152.98 135.03 L 153.07 134.03 C 153.18 132.96 152.39 132.01 151.32 131.90 C 150.25 131.80 149.29 132.58 149.19 133.66 Z M 149.09 134.66 L 148.99 135.64 C 148.89 136.71 149.68 137.67 150.75 137.77 C 151.82 137.87 152.78 137.09 152.88 136.01 L 152.98 135.03 C 153.08 133.96 152.30 133.01 151.22 132.90 C 150.15 132.80 149.19 133.58 149.09 134.66 Z M 148.99 135.64 L 148.90 136.61 C 148.80 137.69 149.58 138.64 150.66 138.75 C 151.73 138.85 152.69 138.06 152.79 136.99 L 152.88 136.01 C 152.99 134.94 152.20 133.98 151.13 133.88 C 150.05 133.78 149.10 134.56 148.99 135.64 Z M 148.90 136.61 L 148.80 137.60 C 148.70 138.67 149.49 139.63 150.57 139.73 C 151.64 139.83 152.60 139.05 152.70 137.97 L 152.79 136.98 C 152.89 135.91 152.11 134.96 151.03 134.85 C 149.96 134.75 149.00 135.54 148.90 136.61 Z M 148.80 137.60 L 148.71 138.61 C 148.61 139.68 149.40 140.64 150.48 140.74 C 151.55 140.84 152.50 140.05 152.60 138.97 L 152.70 137.97 C 152.80 136.89 152.01 135.94 150.93 135.84 C 149.86 135.74 148.90 136.53 148.80 137.60 Z M 148.71 138.61 L 148.62 139.64 C 148.52 140.71 149.31 141.67 150.39 141.76 C 151.46 141.86 152.41 141.07 152.51 139.99 L 152.61 138.97 C 152.70 137.89 151.91 136.94 150.84 136.84 C 149.76 136.74 148.81 137.53 148.71 138.61 Z M 148.61 139.64 L 148.53 140.64 C 148.43 141.72 149.22 142.67 150.30 142.76 C 151.38 142.86 152.33 142.06 152.42 140.99 L 152.51 139.99 C 152.61 138.91 151.81 137.96 150.74 137.87 C 149.66 137.77 148.71 138.57 148.61 139.64 Z M 148.52 140.64 L 148.44 141.65 C 148.34 142.72 149.14 143.67 150.22 143.77 C 151.29 143.86 152.24 143.06 152.34 141.99 L 152.43 140.98 C 152.52 139.91 151.72 138.96 150.65 138.86 C 149.57 138.77 148.62 139.57 148.52 140.64 Z M 148.44 141.65 L 148.35 142.66 C 148.26 143.73 149.05 144.68 150.13 144.78 C 151.21 144.87 152.16 144.07 152.25 143.00 L 152.34 141.99 C 152.43 140.91 151.63 139.96 150.56 139.87 C 149.48 139.77 148.53 140.57 148.44 141.65 Z M 148.35 142.66 L 148.26 143.66 C 148.17 144.74 148.96 145.69 150.04 145.78 C 151.12 145.88 152.07 145.08 152.16 144.00 L 152.25 143.00 C 152.35 141.92 151.55 140.97 150.47 140.87 C 149.39 140.78 148.44 141.58 148.35 142.66 Z M 148.26 143.66 L 148.17 144.65 C 148.08 145.72 148.87 146.68 149.95 146.77 C 151.03 146.87 151.98 146.07 152.08 144.99 L 152.16 144.00 C 152.26 142.93 151.46 141.97 150.39 141.88 C 149.31 141.78 148.36 142.58 148.26 143.66 Z M 148.17 144.64 L 148.08 145.65 C 147.98 146.73 148.78 147.69 149.85 147.78 C 150.93 147.88 151.89 147.09 151.98 146.01 L 152.08 145.00 C 152.18 143.92 151.38 142.96 150.30 142.87 C 149.22 142.77 148.27 143.56 148.17 144.64 Z M 148.08 145.65 L 147.98 146.67 C 147.88 147.75 148.67 148.71 149.75 148.81 C 150.83 148.91 151.79 148.12 151.89 147.04 L 151.99 146.01 C 152.09 144.94 151.30 143.98 150.22 143.88 C 149.14 143.78 148.18 144.57 148.08 145.65 Z M 147.98 146.66 L 147.89 147.66 C 147.78 148.74 148.57 149.70 149.65 149.80 C 150.73 149.91 151.69 149.12 151.79 148.04 L 151.89 147.04 C 151.99 145.96 151.20 145.00 150.13 144.90 C 149.05 144.80 148.09 145.59 147.98 146.66 Z M 147.88 147.66 L 147.79 148.63 C 147.68 149.71 148.47 150.67 149.55 150.78 C 150.63 150.89 151.59 150.10 151.70 149.02 L 151.79 148.04 C 151.90 146.96 151.11 146.00 150.03 145.89 C 148.95 145.79 147.99 146.58 147.88 147.66 Z M 147.79 148.63 L 147.69 149.60 C 147.58 150.68 148.37 151.64 149.45 151.75 C 150.53 151.86 151.50 151.07 151.60 149.99 L 151.70 149.02 C 151.81 147.94 151.02 146.98 149.94 146.87 C 148.86 146.76 147.89 147.55 147.79 148.63 Z M 147.69 149.60 L 147.59 150.57 C 147.48 151.66 148.27 152.62 149.35 152.73 C 150.43 152.84 151.40 152.05 151.51 150.97 L 151.60 149.99 C 151.71 148.91 150.92 147.94 149.84 147.83 C 148.76 147.73 147.80 148.51 147.69 149.60 Z M 147.59 150.58 L 147.49 151.56 C 147.38 152.64 148.17 153.61 149.26 153.72 C 150.34 153.82 151.30 153.03 151.41 151.95 L 151.51 150.97 C 151.62 149.88 150.83 148.92 149.74 148.81 C 148.66 148.70 147.70 149.49 147.59 150.58 Z M 147.49 151.56 L 147.39 152.55 C 147.28 153.64 148.08 154.60 149.16 154.71 C 150.24 154.82 151.20 154.03 151.31 152.94 L 151.41 151.95 C 151.52 150.87 150.73 149.91 149.65 149.80 C 148.56 149.69 147.60 150.48 147.49 151.56 Z M 147.39 152.56 L 147.29 153.56 C 147.19 154.64 147.98 155.60 149.06 155.71 C 150.14 155.82 151.11 155.03 151.21 153.94 L 151.31 152.94 C 151.42 151.86 150.63 150.89 149.55 150.79 C 148.46 150.68 147.50 151.47 147.39 152.56 Z M 147.29 153.56 L 147.19 154.57 C 147.09 155.65 147.88 156.62 148.96 156.72 C 150.05 156.83 151.01 156.03 151.12 154.95 L 151.22 153.94 C 151.32 152.86 150.53 151.89 149.44 151.79 C 148.36 151.68 147.40 152.47 147.29 153.56 Z M 147.19 154.57 L 147.10 155.56 C 146.99 156.64 147.79 157.60 148.87 157.71 C 149.96 157.81 150.92 157.02 151.02 155.93 L 151.12 154.95 C 151.22 153.86 150.43 152.90 149.34 152.79 C 148.26 152.69 147.30 153.49 147.19 154.57 Z M 147.10 155.56 L 147.00 156.55 C 146.90 157.64 147.69 158.60 148.78 158.70 C 149.86 158.81 150.83 158.01 150.93 156.93 L 151.03 155.93 C 151.13 154.85 150.33 153.88 149.25 153.78 C 148.16 153.68 147.20 154.47 147.10 155.56 Z M 147.00 156.55 L 146.90 157.55 C 146.80 158.64 147.60 159.60 148.68 159.71 C 149.77 159.81 150.73 159.01 150.84 157.93 L 150.93 156.93 C 151.03 155.84 150.24 154.88 149.15 154.77 C 148.07 154.67 147.10 155.47 147.00 156.55 Z M 146.90 157.55 L 146.81 158.55 C 146.71 159.64 147.50 160.60 148.59 160.71 C 149.68 160.81 150.64 160.01 150.74 158.93 L 150.84 157.93 C 150.94 156.84 150.14 155.87 149.06 155.77 C 147.97 155.67 147.01 156.47 146.90 157.55 Z M 146.81 158.55 L 146.71 159.55 C 146.61 160.64 147.41 161.60 148.49 161.70 C 149.58 161.81 150.55 161.01 150.65 159.92 L 150.74 158.93 C 150.85 157.84 150.05 156.87 148.96 156.77 C 147.88 156.67 146.91 157.47 146.81 158.55 Z M 146.71 159.55 L 146.62 160.54 C 146.51 161.63 147.31 162.59 148.40 162.70 C 149.49 162.80 150.45 162.00 150.56 160.92 L 150.65 159.92 C 150.75 158.84 149.96 157.87 148.87 157.77 C 147.78 157.66 146.82 158.46 146.71 159.55 Z M 146.62 160.54 L 146.52 161.53 C 146.42 162.62 147.21 163.59 148.30 163.69 C 149.39 163.79 150.36 163.00 150.46 161.91 L 150.56 160.92 C 150.66 159.83 149.86 158.86 148.77 158.76 C 147.69 158.65 146.72 159.45 146.62 160.54 Z M 146.52 161.53 L 146.43 162.52 C 146.32 163.61 147.12 164.58 148.21 164.68 C 149.30 164.79 150.26 163.99 150.37 162.90 L 150.46 161.91 C 150.57 160.82 149.77 159.85 148.68 159.75 C 147.59 159.64 146.62 160.44 146.52 161.53 Z M 146.42 162.52 L 146.33 163.52 C 146.23 164.61 147.03 165.58 148.11 165.68 C 149.20 165.79 150.17 164.99 150.27 163.90 L 150.37 162.90 C 150.47 161.81 149.67 160.84 148.58 160.74 C 147.49 160.64 146.53 161.44 146.42 162.52 Z M 146.33 163.53 L 146.24 164.52 C 146.13 165.61 146.93 166.57 148.02 166.67 C 149.11 166.78 150.08 165.98 150.18 164.89 L 150.27 163.90 C 150.38 162.81 149.58 161.84 148.49 161.74 C 147.40 161.63 146.43 162.44 146.33 163.53 Z M 146.23 164.52 L 146.15 165.48 C 146.04 166.57 146.85 167.54 147.94 167.64 C 149.03 167.74 149.99 166.94 150.09 165.85 L 150.18 164.88 C 150.28 163.79 149.48 162.83 148.39 162.73 C 147.30 162.63 146.34 163.43 146.23 164.52 Z M 146.14 165.48 L 146.06 166.46 C 145.96 167.55 146.76 168.52 147.85 168.62 C 148.94 168.72 149.91 167.91 150.01 166.82 L 150.09 165.84 C 150.19 164.75 149.39 163.79 148.30 163.69 C 147.21 163.59 146.24 164.39 146.14 165.48 Z M 146.05 166.46 L 145.96 167.46 C 145.87 168.55 146.67 169.52 147.76 169.61 C 148.86 169.71 149.82 168.91 149.92 167.81 L 150.01 166.82 C 150.10 165.73 149.30 164.76 148.21 164.66 C 147.12 164.57 146.15 165.37 146.05 166.46 Z M 145.96 167.46 L 145.87 168.48 C 145.78 169.58 146.59 170.54 147.68 170.63 C 148.77 170.73 149.73 169.92 149.83 168.83 L 149.92 167.81 C 150.01 166.72 149.21 165.76 148.11 165.66 C 147.02 165.57 146.06 166.37 145.96 167.46 Z M 145.87 168.49 L 145.79 169.52 C 145.69 170.62 146.50 171.58 147.59 171.67 C 148.69 171.76 149.65 170.95 149.74 169.86 L 149.83 168.83 C 149.92 167.73 149.11 166.77 148.02 166.68 C 146.93 166.59 145.97 167.40 145.87 168.49 Z M 145.78 169.53 L 145.70 170.52 C 145.61 171.62 146.42 172.58 147.52 172.67 C 148.61 172.76 149.57 171.95 149.66 170.85 L 149.74 169.86 C 149.83 168.76 149.02 167.80 147.93 167.71 C 146.83 167.62 145.88 168.44 145.78 169.53 Z M 145.70 170.53 L 145.62 171.54 C 145.53 172.63 146.34 173.59 147.44 173.68 C 148.53 173.77 149.49 172.95 149.58 171.86 L 149.66 170.85 C 149.75 169.76 148.93 168.80 147.84 168.71 C 146.75 168.62 145.79 169.44 145.70 170.53 Z M 145.62 171.54 L 145.54 172.55 C 145.45 173.65 146.27 174.60 147.36 174.69 C 148.46 174.78 149.41 173.96 149.50 172.87 L 149.58 171.85 C 149.67 170.76 148.85 169.80 147.76 169.72 C 146.66 169.63 145.70 170.45 145.62 171.54 Z M 145.54 172.56 L 145.46 173.56 C 145.38 174.65 146.19 175.61 147.29 175.69 C 148.38 175.78 149.34 174.96 149.42 173.86 L 149.50 172.86 C 149.58 171.77 148.77 170.81 147.67 170.73 C 146.58 170.64 145.62 171.46 145.54 172.56 Z M 145.46 173.56 L 145.39 174.55 C 145.30 175.64 146.12 176.59 147.22 176.68 C 148.31 176.76 149.27 175.94 149.35 174.84 L 149.42 173.86 C 149.51 172.76 148.68 171.81 147.59 171.73 C 146.49 171.65 145.54 172.47 145.46 173.56 Z M 145.38 174.55 L 145.31 175.56 C 145.23 176.66 146.06 177.61 147.15 177.69 C 148.25 177.77 149.20 176.95 149.28 175.85 L 149.35 174.84 C 149.43 173.74 148.61 172.79 147.51 172.71 C 146.42 172.63 145.46 173.45 145.38 174.55 Z M 145.31 175.57 L 145.24 176.59 C 145.16 177.69 145.99 178.64 147.09 178.72 C 148.18 178.79 149.13 177.97 149.21 176.87 L 149.28 175.85 C 149.36 174.75 148.53 173.80 147.43 173.72 C 146.34 173.65 145.39 174.47 145.31 175.57 Z M 145.24 176.60 L 145.17 177.60 C 145.10 178.69 145.93 179.64 147.02 179.72 C 148.12 179.79 149.07 178.96 149.14 177.86 L 149.21 176.87 C 149.28 175.77 148.45 174.82 147.36 174.75 C 146.26 174.67 145.31 175.50 145.24 176.60 Z M 145.17 177.60 L 145.10 178.58 C 145.03 179.67 145.86 180.62 146.96 180.69 C 148.06 180.77 149.01 179.94 149.08 178.84 L 149.14 177.86 C 149.22 176.76 148.38 175.81 147.29 175.74 C 146.19 175.67 145.24 176.50 145.17 177.60 Z M 145.10 178.58 L 145.04 179.55 C 144.97 180.65 145.80 181.60 146.90 181.67 C 148.00 181.74 148.95 180.90 149.02 179.81 L 149.08 178.83 C 149.15 177.74 148.32 176.79 147.22 176.72 C 146.12 176.65 145.17 177.48 145.10 178.58 Z M 145.04 179.55 L 144.98 180.54 C 144.91 181.64 145.74 182.59 146.84 182.66 C 147.94 182.73 148.89 181.89 148.96 180.80 L 149.02 179.80 C 149.09 178.71 148.26 177.76 147.16 177.69 C 146.06 177.62 145.11 178.45 145.04 179.55 Z M 144.98 180.54 L 144.91 181.55 C 144.84 182.65 145.68 183.60 146.78 183.67 C 147.88 183.74 148.82 182.90 148.89 181.80 L 148.96 180.80 C 149.03 179.70 148.19 178.75 147.09 178.68 C 145.99 178.61 145.05 179.44 144.98 180.54 Z M 144.91 181.55 L 144.85 182.55 C 144.78 183.66 145.61 184.60 146.71 184.67 C 147.81 184.74 148.76 183.91 148.83 182.81 L 148.90 181.80 C 148.97 180.70 148.13 179.75 147.03 179.68 C 145.93 179.61 144.98 180.45 144.91 181.55 Z M 144.85 182.55 L 144.78 183.55 C 144.71 184.65 145.55 185.60 146.65 185.67 C 147.75 185.74 148.70 184.91 148.77 183.81 L 148.83 182.81 C 148.90 181.71 148.07 180.76 146.97 180.69 C 145.87 180.62 144.92 181.45 144.85 182.55 Z M 144.78 183.55 L 144.72 184.53 C 144.65 185.64 145.48 186.59 146.58 186.66 C 147.68 186.73 148.64 185.89 148.71 184.79 L 148.77 183.81 C 148.84 182.71 148.01 181.75 146.91 181.68 C 145.80 181.61 144.85 182.45 144.78 183.55 Z M 144.72 184.53 L 144.65 185.54 C 144.58 186.65 145.41 187.60 146.51 187.67 C 147.62 187.74 148.57 186.91 148.64 185.81 L 148.71 184.79 C 148.78 183.69 147.95 182.74 146.84 182.67 C 145.74 182.59 144.79 183.43 144.72 184.53 Z M 144.65 185.54 L 144.58 186.55 C 144.51 187.65 145.34 188.61 146.45 188.68 C 147.55 188.75 148.50 187.92 148.58 186.81 L 148.64 185.81 C 148.72 184.70 147.88 183.75 146.78 183.68 C 145.67 183.61 144.72 184.44 144.65 185.54 Z M 144.58 186.56 L 144.52 187.55 C 144.45 188.65 145.28 189.60 146.39 189.67 C 147.49 189.75 148.44 188.91 148.51 187.80 L 148.58 186.81 C 148.65 185.71 147.81 184.76 146.71 184.68 C 145.60 184.61 144.65 185.45 144.58 186.56 Z M 144.52 187.56 L 144.46 188.54 C 144.39 189.65 145.23 190.60 146.34 190.66 C 147.44 190.73 148.39 189.89 148.46 188.78 L 148.51 187.80 C 148.58 186.69 147.74 185.74 146.64 185.68 C 145.53 185.61 144.58 186.45 144.52 187.56 Z M 144.46 188.55 L 144.40 189.54 C 144.34 190.65 145.19 191.59 146.30 191.65 C 147.40 191.71 148.34 190.86 148.40 189.76 L 148.46 188.77 C 148.52 187.66 147.67 186.72 146.56 186.66 C 145.46 186.60 144.52 187.45 144.46 188.55 Z M 144.40 189.56 L 144.35 190.57 C 144.30 191.67 145.16 192.61 146.26 192.66 C 147.37 192.71 148.31 191.86 148.36 190.75 L 148.41 189.74 C 148.46 188.64 147.60 187.70 146.50 187.65 C 145.39 187.60 144.45 188.45 144.40 189.56 Z M 144.35 190.58 L 144.31 191.58 C 144.27 192.69 145.13 193.62 146.23 193.67 C 147.34 193.71 148.27 192.85 148.32 191.75 L 148.36 190.74 C 148.40 189.64 147.55 188.70 146.44 188.66 C 145.33 188.61 144.40 189.47 144.35 190.58 Z M 144.31 191.59 L 144.27 192.59 C 144.23 193.69 145.10 194.62 146.20 194.67 C 147.31 194.71 148.24 193.84 148.28 192.74 L 148.32 191.74 C 148.36 190.63 147.50 189.70 146.39 189.66 C 145.28 189.62 144.35 190.48 144.31 191.59 Z M 144.27 192.59 L 144.24 193.58 C 144.20 194.68 145.06 195.61 146.17 195.65 C 147.28 195.69 148.21 194.83 148.25 193.72 L 148.28 192.73 C 148.32 191.63 147.46 190.70 146.35 190.66 C 145.24 190.62 144.31 191.48 144.27 192.59 Z M 144.24 193.58 L 144.20 194.57 C 144.16 195.68 145.03 196.61 146.13 196.65 C 147.24 196.69 148.17 195.82 148.21 194.72 L 148.25 193.72 C 148.29 192.61 147.42 191.68 146.31 191.64 C 145.21 191.60 144.28 192.47 144.24 193.58 Z M 144.20 194.57 L 144.16 195.56 C 144.12 196.67 144.99 197.60 146.09 197.64 C 147.20 197.68 148.13 196.82 148.17 195.71 L 148.21 194.72 C 148.25 193.61 147.39 192.68 146.28 192.64 C 145.18 192.60 144.24 193.46 144.20 194.57 Z M 144.16 195.55 L 144.12 196.55 C 144.08 197.65 144.94 198.59 146.04 198.63 C 147.15 198.68 148.09 197.82 148.13 196.71 L 148.17 195.72 C 148.22 194.61 147.36 193.68 146.25 193.63 C 145.14 193.59 144.21 194.45 144.16 195.55 Z M 144.12 196.54 L 144.08 197.54 C 144.02 198.65 144.88 199.58 145.99 199.64 C 147.09 199.69 148.03 198.83 148.09 197.73 L 148.13 196.72 C 148.18 195.61 147.33 194.68 146.22 194.62 C 145.11 194.57 144.17 195.43 144.12 196.54 Z M 144.08 197.53 L 144.02 198.54 C 143.96 199.65 144.81 200.59 145.92 200.65 C 147.03 200.71 147.97 199.86 148.03 198.75 L 148.08 197.74 C 148.14 196.63 147.29 195.69 146.19 195.63 C 145.08 195.57 144.14 196.42 144.08 197.53 Z M 144.02 198.53 L 143.96 199.56 C 143.90 200.66 144.74 201.61 145.85 201.68 C 146.96 201.74 147.91 200.89 147.97 199.79 L 148.03 198.76 C 148.10 197.66 147.25 196.71 146.14 196.64 C 145.04 196.58 144.09 197.43 144.02 198.53 Z M 143.96 199.55 L 143.90 200.57 C 143.83 201.67 144.68 202.63 145.78 202.69 C 146.89 202.76 147.84 201.92 147.91 200.81 L 147.97 199.79 C 148.04 198.69 147.20 197.73 146.09 197.67 C 144.98 197.60 144.03 198.44 143.96 199.55 Z M 143.90 200.57 L 143.84 201.55 C 143.77 202.66 144.62 203.61 145.72 203.68 C 146.83 203.75 147.78 202.91 147.85 201.80 L 147.91 200.81 C 147.98 199.70 147.14 198.75 146.03 198.68 C 144.92 198.62 143.97 199.46 143.90 200.57 Z M 143.84 201.56 L 143.78 202.53 C 143.72 203.64 144.56 204.59 145.67 204.66 C 146.78 204.72 147.73 203.88 147.79 202.77 L 147.85 201.80 C 147.92 200.69 147.07 199.74 145.96 199.67 C 144.86 199.61 143.91 200.45 143.84 201.56 Z M 143.78 202.54 L 143.72 203.60 C 143.66 204.70 144.51 205.65 145.62 205.71 C 146.73 205.77 147.68 204.92 147.74 203.82 L 147.80 202.76 C 147.86 201.65 147.01 200.70 145.90 200.64 C 144.79 200.58 143.84 201.43 143.78 202.54 Z M 143.72 203.60 L 143.67 204.59 C 143.61 205.70 144.46 206.65 145.57 206.71 C 146.68 206.77 147.62 205.92 147.68 204.81 L 147.74 203.82 C 147.80 202.71 146.95 201.76 145.84 201.70 C 144.73 201.64 143.78 202.49 143.72 203.60 Z M 143.67 204.58 L 143.61 205.53 C 143.55 206.64 144.39 207.59 145.50 207.66 C 146.61 207.73 147.56 206.88 147.63 205.77 L 147.69 204.82 C 147.75 203.71 146.90 202.75 145.79 202.69 C 144.69 202.62 143.73 203.47 143.67 204.58 Z M 143.61 205.51 L 143.54 206.49 C 143.47 207.60 144.30 208.56 145.41 208.64 C 146.52 208.72 147.48 207.88 147.56 206.77 L 147.63 205.79 C 147.71 204.68 146.87 203.72 145.76 203.64 C 144.65 203.57 143.69 204.40 143.61 205.51 Z M 143.54 206.47 L 143.46 207.48 C 143.37 208.59 144.20 209.56 145.31 209.65 C 146.42 209.74 147.39 208.91 147.48 207.80 L 147.56 206.80 C 147.65 205.69 146.82 204.72 145.71 204.63 C 144.61 204.54 143.63 205.36 143.54 206.47 Z M 143.46 207.46 L 143.37 208.45 C 143.28 209.56 144.09 210.54 145.20 210.64 C 146.31 210.74 147.29 209.92 147.39 208.81 L 147.48 207.82 C 147.58 206.71 146.76 205.73 145.65 205.63 C 144.54 205.53 143.56 206.35 143.46 207.46 Z M 143.37 208.44 L 143.29 209.38 C 143.18 210.49 144.00 211.47 145.10 211.57 C 146.21 211.68 147.20 210.86 147.30 209.76 L 147.39 208.82 C 147.49 207.71 146.68 206.73 145.57 206.63 C 144.46 206.52 143.48 207.34 143.37 208.44 Z M 143.29 209.37 L 143.21 210.17 C 143.10 211.28 143.91 212.27 145.01 212.38 C 146.12 212.49 147.11 211.68 147.22 210.57 L 147.30 209.77 C 147.41 208.66 146.60 207.67 145.49 207.56 C 144.39 207.45 143.40 208.26 143.29 209.37 Z M 143.21 210.15 L 143.11 211.04 C 142.99 212.15 143.78 213.14 144.89 213.27 C 146.00 213.39 146.99 212.59 147.12 211.49 L 147.22 210.60 C 147.34 209.49 146.54 208.49 145.44 208.37 C 144.33 208.24 143.33 209.04 143.21 210.15 Z M 143.11 211.01 L 142.98 212.07 C 142.84 213.18 143.62 214.19 144.72 214.33 C 145.83 214.47 146.84 213.69 146.98 212.58 L 147.12 211.52 C 147.26 210.41 146.47 209.40 145.37 209.26 C 144.26 209.12 143.25 209.90 143.11 211.01 Z M 142.98 212.05 L 142.81 213.28 C 142.65 214.38 143.42 215.40 144.53 215.56 C 145.63 215.71 146.65 214.94 146.80 213.84 L 146.98 212.61 C 147.13 211.51 146.36 210.49 145.26 210.33 C 144.16 210.18 143.14 210.94 142.98 212.05 Z M 142.81 213.26 L 142.68 214.16 C 142.51 215.26 143.27 216.29 144.38 216.45 C 145.48 216.62 146.50 215.85 146.67 214.75 L 146.80 213.86 C 146.97 212.76 146.21 211.73 145.10 211.56 C 144.00 211.40 142.97 212.16 142.81 213.26 Z M 142.68 214.15 L 142.53 215.12 C 142.36 216.22 143.11 217.25 144.21 217.42 C 145.31 217.59 146.34 216.84 146.52 215.74 L 146.67 214.76 C 146.84 213.66 146.08 212.63 144.98 212.46 C 143.88 212.29 142.85 213.04 142.68 214.15 Z M 142.53 215.11 L 142.36 216.13 C 142.19 217.23 142.93 218.27 144.04 218.44 C 145.14 218.62 146.17 217.87 146.35 216.77 L 146.51 215.75 C 146.69 214.65 145.94 213.61 144.84 213.44 C 143.74 213.26 142.71 214.01 142.53 215.11 Z M 142.37 216.12 L 142.19 217.16 C 142.01 218.26 142.75 219.30 143.85 219.49 C 144.95 219.67 145.99 218.93 146.17 217.83 L 146.35 216.79 C 146.53 215.69 145.79 214.65 144.69 214.46 C 143.59 214.28 142.55 215.02 142.37 216.12 Z M 142.19 217.15 L 142.01 218.18 C 141.82 219.28 142.55 220.33 143.65 220.52 C 144.75 220.72 145.79 219.98 145.99 218.88 L 146.17 217.85 C 146.36 216.75 145.63 215.70 144.53 215.51 C 143.43 215.32 142.39 216.05 142.19 217.15 Z M 142.01 218.17 L 141.83 219.17 C 141.62 220.26 142.35 221.32 143.44 221.52 C 144.54 221.72 145.59 221.00 145.80 219.91 L 145.98 218.90 C 146.19 217.81 145.46 216.75 144.37 216.55 C 143.27 216.35 142.22 217.07 142.01 218.17 Z M 141.83 219.14 L 141.64 220.12 C 141.42 221.21 142.13 222.27 143.22 222.49 C 144.32 222.71 145.38 222.00 145.60 220.91 L 145.79 219.93 C 146.01 218.84 145.30 217.77 144.21 217.56 C 143.11 217.34 142.05 218.05 141.83 219.14 Z M 141.65 220.08 L 141.39 221.26 C 141.15 222.35 141.84 223.43 142.92 223.67 C 144.01 223.91 145.09 223.22 145.33 222.13 L 145.59 220.95 C 145.83 219.86 145.14 218.78 144.05 218.54 C 142.96 218.30 141.89 218.99 141.65 220.08 Z M 141.40 221.21 L 141.14 222.25 C 140.87 223.33 141.53 224.43 142.62 224.69 C 143.70 224.96 144.79 224.30 145.06 223.22 L 145.32 222.18 C 145.58 221.10 144.92 220.00 143.84 219.74 C 142.76 219.47 141.67 220.13 141.40 221.21 Z M 141.16 222.19 L 140.90 223.12 C 140.60 224.19 141.23 225.30 142.31 225.60 C 143.38 225.90 144.49 225.27 144.79 224.20 L 145.05 223.27 C 145.34 222.20 144.71 221.09 143.64 220.79 C 142.57 220.49 141.45 221.12 141.16 222.19 Z M 140.92 223.06 L 140.66 223.90 C 140.33 224.97 140.93 226.10 142.00 226.43 C 143.06 226.75 144.19 226.15 144.52 225.09 L 144.77 224.25 C 145.10 223.18 144.50 222.05 143.44 221.73 C 142.37 221.40 141.24 222.00 140.92 223.06 Z M 140.67 223.86 L 140.40 224.67 C 140.05 225.73 140.62 226.87 141.68 227.22 C 142.74 227.58 143.88 227.00 144.23 225.95 L 144.50 225.13 C 144.85 224.07 144.28 222.93 143.22 222.58 C 142.17 222.23 141.02 222.80 140.67 223.86 Z M 140.42 224.62 L 140.08 225.57 C 139.70 226.62 140.24 227.78 141.29 228.16 C 142.34 228.54 143.49 227.99 143.87 226.94 L 144.22 225.99 C 144.59 224.95 144.05 223.79 143.00 223.41 C 141.95 223.03 140.80 223.57 140.42 224.62 Z M 140.11 225.49 L 139.73 226.41 C 139.30 227.44 139.80 228.62 140.83 229.04 C 141.86 229.47 143.04 228.98 143.46 227.95 L 143.84 227.03 C 144.27 226.00 143.77 224.82 142.74 224.39 C 141.71 223.97 140.53 224.46 140.11 225.49 Z M 139.78 226.29 L 139.35 227.17 C 138.86 228.17 139.27 229.38 140.27 229.88 C 141.27 230.37 142.48 229.95 142.97 228.95 L 143.41 228.07 C 143.90 227.07 143.49 225.86 142.49 225.36 C 141.49 224.87 140.28 225.29 139.78 226.29 Z M 139.43 227.03 L 138.91 227.89 C 138.34 228.85 138.65 230.09 139.61 230.66 C 140.56 231.23 141.80 230.92 142.38 229.96 L 142.89 229.10 C 143.46 228.14 143.15 226.90 142.20 226.33 C 141.24 225.76 140.00 226.07 139.43 227.03 Z M 139.01 227.74 L 138.41 228.57 C 137.75 229.47 137.95 230.73 138.85 231.39 C 139.75 232.05 141.02 231.85 141.67 230.95 L 142.28 230.11 C 142.93 229.21 142.73 227.95 141.83 227.29 C 140.93 226.64 139.67 226.84 139.01 227.74 Z M 138.52 228.43 L 137.85 229.20 C 137.11 230.03 137.19 231.31 138.03 232.05 C 138.87 232.78 140.14 232.70 140.88 231.86 L 141.56 231.09 C 142.29 230.25 142.21 228.98 141.37 228.24 C 140.53 227.51 139.26 227.59 138.52 228.43 Z M 137.99 229.05 L 137.26 229.73 C 136.45 230.49 136.40 231.76 137.16 232.58 C 137.92 233.39 139.20 233.44 140.01 232.68 L 140.74 232.01 C 141.55 231.25 141.60 229.97 140.84 229.15 C 140.08 228.34 138.80 228.29 137.99 229.05 Z M 137.46 229.57 L 136.68 230.13 C 135.78 230.78 135.58 232.04 136.23 232.94 C 136.88 233.85 138.14 234.05 139.05 233.40 L 139.82 232.84 C 140.72 232.19 140.93 230.93 140.27 230.02 C 139.62 229.12 138.36 228.91 137.46 229.57 Z M 136.96 229.96 L 136.09 230.39 C 135.10 230.89 134.69 232.10 135.19 233.10 C 135.69 234.10 136.90 234.50 137.90 234.00 L 138.77 233.57 C 139.76 233.07 140.17 231.86 139.67 230.86 C 139.17 229.86 137.96 229.46 136.96 229.96 Z M 136.41 230.27 L 135.49 230.55 C 134.42 230.87 133.82 232.00 134.14 233.06 C 134.47 234.13 135.59 234.73 136.66 234.41 L 137.58 234.13 C 138.64 233.80 139.25 232.68 138.92 231.61 C 138.60 230.55 137.48 229.95 136.41 230.27 Z M 135.76 230.49 L 134.74 230.65 C 133.64 230.82 132.90 231.85 133.07 232.95 C 133.24 234.05 134.27 234.80 135.37 234.63 L 136.39 234.47 C 137.48 234.29 138.23 233.26 138.06 232.16 C 137.89 231.07 136.85 230.32 135.76 230.49 Z M 134.92 230.63 L 133.94 230.70 C 132.83 230.78 131.99 231.74 132.07 232.84 C 132.15 233.95 133.11 234.79 134.21 234.71 L 135.19 234.64 C 136.30 234.57 137.14 233.61 137.06 232.50 C 136.99 231.39 136.03 230.56 134.92 230.63 Z M 134.07 230.70 L 133.08 230.70 C 131.98 230.71 131.08 231.61 131.08 232.71 C 131.09 233.82 131.99 234.72 133.10 234.71 L 134.08 234.71 C 135.19 234.71 136.08 233.81 136.08 232.70 C 136.08 231.59 135.18 230.70 134.07 230.70 Z M 133.22 230.71 L 132.21 230.64 C 131.10 230.57 130.15 231.40 130.08 232.51 C 130.00 233.61 130.84 234.56 131.94 234.64 L 132.96 234.71 C 134.06 234.78 135.01 233.95 135.09 232.84 C 135.16 231.74 134.33 230.78 133.22 230.71 Z M 132.37 230.66 L 131.35 230.51 C 130.26 230.35 129.24 231.10 129.08 232.19 C 128.92 233.28 129.67 234.30 130.76 234.46 L 131.78 234.62 C 132.87 234.78 133.89 234.03 134.05 232.94 C 134.21 231.84 133.46 230.83 132.37 230.66 Z M 131.55 230.56 L 130.58 230.31 C 129.51 230.04 128.43 230.69 128.15 231.75 C 127.88 232.82 128.53 233.90 129.60 234.17 L 130.57 234.42 C 131.63 234.69 132.72 234.04 132.99 232.98 C 133.26 231.91 132.61 230.83 131.55 230.56 Z M 130.78 230.38 L 129.88 230.05 C 128.85 229.66 127.71 230.18 127.33 231.21 C 126.94 232.24 127.46 233.38 128.49 233.77 L 129.39 234.10 C 130.42 234.49 131.56 233.96 131.95 232.94 C 132.33 231.91 131.81 230.77 130.78 230.38 Z M 130.06 230.13 L 129.18 229.70 C 128.20 229.22 127.02 229.63 126.54 230.61 C 126.06 231.59 126.47 232.77 127.44 233.25 L 128.32 233.68 C 129.30 234.16 130.48 233.75 130.96 232.78 C 131.44 231.80 131.03 230.61 130.06 230.13 Z M 129.32 229.79 L 128.46 229.28 C 127.52 228.72 126.32 229.03 125.76 229.96 C 125.21 230.89 125.51 232.10 126.45 232.65 L 127.31 233.17 C 128.24 233.72 129.45 233.42 130.00 232.48 C 130.56 231.55 130.25 230.35 129.32 229.79 Z M 128.55 229.35 L 127.68 228.75 C 126.79 228.15 125.58 228.37 124.97 229.27 C 124.36 230.16 124.59 231.37 125.48 231.98 L 126.35 232.58 C 127.24 233.19 128.46 232.96 129.06 232.07 C 129.67 231.18 129.44 229.96 128.55 229.35 Z M 127.74 228.81 L 126.98 228.24 C 126.12 227.60 124.90 227.78 124.26 228.64 C 123.62 229.50 123.80 230.72 124.66 231.36 L 125.42 231.92 C 126.28 232.57 127.50 232.39 128.14 231.53 C 128.78 230.67 128.60 229.45 127.74 228.81 Z M 127.02 228.29 L 126.27 227.70 C 125.43 227.03 124.22 227.17 123.56 228.01 C 122.90 228.84 123.04 230.05 123.87 230.71 L 124.62 231.31 C 125.45 231.97 126.67 231.83 127.33 231.00 C 127.99 230.17 127.85 228.95 127.02 228.29 Z M 126.30 227.74 L 125.54 227.10 C 124.73 226.42 123.53 226.52 122.85 227.33 C 122.17 228.14 122.27 229.35 123.08 230.03 L 123.84 230.67 C 124.64 231.35 125.85 231.24 126.53 230.44 C 127.21 229.63 127.11 228.42 126.30 227.74 Z M 125.57 227.15 L 124.80 226.47 C 124.02 225.77 122.82 225.84 122.13 226.62 C 121.43 227.41 121.50 228.60 122.28 229.30 L 123.05 229.98 C 123.83 230.68 125.03 230.61 125.73 229.83 C 126.42 229.04 126.35 227.84 125.57 227.15 Z M 124.83 226.51 L 124.07 225.79 C 123.31 225.08 122.12 225.12 121.41 225.88 C 120.70 226.64 120.73 227.83 121.49 228.54 L 122.25 229.26 C 123.01 229.97 124.20 229.93 124.92 229.17 C 125.63 228.41 125.59 227.22 124.83 226.51 Z M 124.09 225.84 L 123.35 225.10 C 122.61 224.38 121.43 224.38 120.71 225.12 C 119.98 225.85 119.99 227.03 120.72 227.75 L 121.47 228.49 C 122.20 229.22 123.38 229.21 124.11 228.48 C 124.83 227.75 124.83 226.57 124.09 225.84 Z M 123.37 225.15 L 122.66 224.41 C 121.95 223.67 120.78 223.65 120.04 224.36 C 119.31 225.07 119.28 226.24 119.99 226.97 L 120.70 227.71 C 121.41 228.45 122.58 228.47 123.32 227.76 C 124.05 227.05 124.07 225.88 123.37 225.15 Z M 122.67 224.45 L 121.97 223.70 C 121.29 222.96 120.13 222.91 119.39 223.59 C 118.65 224.28 118.60 225.43 119.29 226.18 L 119.98 226.93 C 120.66 227.67 121.82 227.72 122.56 227.03 C 123.31 226.35 123.35 225.19 122.67 224.45 Z M 121.98 223.74 L 121.31 222.98 C 120.65 222.23 119.50 222.16 118.76 222.83 C 118.01 223.49 117.94 224.63 118.61 225.38 L 119.28 226.14 C 119.94 226.88 121.08 226.95 121.83 226.29 C 122.58 225.63 122.65 224.48 121.98 223.74 Z M 121.31 223.01 L 120.66 222.26 C 120.02 221.51 118.89 221.43 118.14 222.07 C 117.39 222.71 117.31 223.84 117.95 224.59 L 118.60 225.34 C 119.25 226.09 120.37 226.18 121.12 225.53 C 121.87 224.89 121.96 223.76 121.31 223.01 Z M 120.66 222.29 L 120.05 221.55 C 119.42 220.80 118.31 220.70 117.56 221.33 C 116.81 221.95 116.71 223.07 117.33 223.82 L 117.95 224.56 C 118.58 225.31 119.69 225.41 120.44 224.78 C 121.19 224.16 121.29 223.04 120.66 222.29 Z M 120.04 221.58 L 119.40 220.79 C 118.79 220.04 117.69 219.93 116.94 220.53 C 116.19 221.14 116.08 222.24 116.69 222.99 L 117.33 223.79 C 117.94 224.53 119.04 224.65 119.79 224.04 C 120.54 223.43 120.65 222.33 120.04 221.58 Z M 119.40 220.82 L 118.75 220.00 C 118.16 219.25 117.07 219.12 116.32 219.71 C 115.58 220.30 115.45 221.38 116.04 222.13 L 116.69 222.96 C 117.28 223.70 118.36 223.83 119.11 223.24 C 119.86 222.65 119.99 221.57 119.40 220.82 Z M 118.74 220.03 L 118.13 219.24 C 117.57 218.49 116.50 218.35 115.75 218.91 C 115.01 219.48 114.86 220.55 115.43 221.30 L 116.04 222.10 C 116.61 222.84 117.68 222.99 118.42 222.42 C 119.17 221.85 119.31 220.78 118.74 220.03 Z M 118.13 219.27 L 117.56 218.49 C 117.01 217.75 115.96 217.59 115.22 218.14 C 114.47 218.68 114.31 219.73 114.86 220.48 L 115.43 221.26 C 115.98 222.00 117.03 222.16 117.78 221.62 C 118.52 221.07 118.68 220.02 118.13 219.27 Z M 117.56 218.53 L 117.01 217.76 C 116.49 217.02 115.46 216.84 114.71 217.37 C 113.97 217.90 113.79 218.93 114.32 219.67 L 114.86 220.44 C 115.39 221.19 116.42 221.36 117.16 220.83 C 117.91 220.31 118.09 219.28 117.56 218.53 Z M 117.02 217.80 L 116.46 216.98 C 115.95 216.23 114.93 216.04 114.19 216.55 C 113.44 217.05 113.25 218.07 113.76 218.82 L 114.31 219.64 C 114.82 220.38 115.84 220.58 116.59 220.07 C 117.33 219.56 117.53 218.54 117.02 217.80 Z M 116.47 217.00 L 115.91 216.16 C 115.42 215.41 114.41 215.20 113.66 215.70 C 112.91 216.19 112.70 217.20 113.19 217.95 L 113.75 218.79 C 114.24 219.54 115.25 219.75 116.00 219.26 C 116.75 218.76 116.96 217.75 116.47 217.00 Z M 115.92 216.18 L 115.38 215.34 C 114.90 214.59 113.89 214.37 113.14 214.85 C 112.39 215.33 112.17 216.34 112.65 217.09 L 113.19 217.93 C 113.67 218.69 114.67 218.91 115.43 218.42 C 116.18 217.94 116.40 216.94 115.92 216.18 Z M 115.39 215.35 L 114.86 214.51 C 114.38 213.76 113.38 213.53 112.62 214.01 C 111.87 214.48 111.64 215.48 112.12 216.24 L 112.65 217.08 C 113.12 217.84 114.12 218.06 114.88 217.59 C 115.63 217.11 115.86 216.11 115.39 215.35 Z M 114.86 214.52 L 114.51 213.96 C 114.03 213.21 113.04 212.98 112.28 213.45 C 111.53 213.93 111.30 214.92 111.77 215.68 L 112.12 216.23 C 112.59 216.99 113.59 217.22 114.34 216.75 C 115.10 216.27 115.33 215.28 114.86 214.52 Z"
      fill="black"
      fill-rule="nonzero" /></svg>