<svg xmlns="http://www.w3.org/2000/svg" width="300" height="300" viewBox="0 0 300 300">
<path d="M 102.77 102.65 L 103.76 102.82 C 104.95 103.02 106.07 102.22 106.28 101.04 C 106.48 99.85 105.68 98.72 104.49 98.52 L 103.50 98.35 C 102.31 98.15 101.19 98.95 100.98 100.13 C 100.78 101.32 101.58 102.45 102.77 102.65 Z M 103.78 102.86 L 104.77 103.02 C 105.98 103.21 107.11 102.39 107.31 101.18 C 107.50 99.97 106.68 98.84 105.47 98.64 L 104.48 98.48 C 103.27 98.29 102.13 99.11 101.94 100.32 C 101.75 101.53 102.57 102.66 103.78 102.86 Z M 104.81 103.06 L 105.80 103.20 C 107.03 103.37 108.17 102.51 108.34 101.28 C 108.51 100.05 107.66 98.91 106.42 98.74 L 105.43 98.60 C 104.20 98.43 103.07 99.28 102.89 100.52 C 102.72 101.75 103.58 102.88 104.81 103.06 Z M 105.86 103.24 L 106.85 103.35 C 108.10 103.49 109.23 102.58 109.37 101.33 C 109.51 100.07 108.60 98.94 107.35 98.80 L 106.36 98.70 C 105.11 98.56 103.98 99.46 103.84 100.72 C 103.70 101.97 104.61 103.10 105.86 103.24 Z M 106.94 103.38 L 107.91 103.45 C 109.18 103.54 110.29 102.58 110.38 101.30 C 110.46 100.03 109.50 98.93 108.23 98.84 L 107.26 98.77 C 105.98 98.68 104.88 99.64 104.79 100.92 C 104.70 102.19 105.66 103.29 106.94 103.38 Z M 108.01 103.47 L 108.97 103.49 C 110.26 103.52 111.32 102.51 111.36 101.23 C 111.39 99.95 110.38 98.88 109.09 98.85 L 108.13 98.82 C 106.85 98.79 105.78 99.80 105.75 101.08 C 105.71 102.37 106.73 103.43 108.01 103.47 Z M 109.06 103.49 L 110.04 103.48 C 111.33 103.47 112.36 102.41 112.34 101.13 C 112.32 99.84 111.27 98.82 109.99 98.83 L 109.01 98.84 C 107.72 98.86 106.69 99.91 106.71 101.20 C 106.72 102.48 107.78 103.51 109.06 103.49 Z M 110.12 103.48 L 111.13 103.44 C 112.41 103.38 113.41 102.29 113.35 101.01 C 113.29 99.73 112.21 98.73 110.92 98.79 L 109.91 98.83 C 108.63 98.89 107.63 99.97 107.69 101.26 C 107.75 102.54 108.83 103.54 110.12 103.48 Z M 111.18 103.44 L 112.24 103.37 C 113.52 103.28 114.49 102.17 114.40 100.88 C 114.32 99.60 113.21 98.63 111.92 98.71 L 110.87 98.79 C 109.58 98.87 108.61 99.99 108.70 101.27 C 108.79 102.55 109.90 103.52 111.18 103.44 Z M 112.27 103.36 L 113.20 103.29 C 114.49 103.18 115.44 102.05 115.33 100.77 C 115.23 99.48 114.10 98.53 112.81 98.64 L 111.88 98.72 C 110.60 98.82 109.65 99.95 109.76 101.23 C 109.86 102.52 110.99 103.47 112.27 103.36 Z M 113.23 103.29 L 114.19 103.20 C 115.47 103.08 116.41 101.94 116.29 100.66 C 116.18 99.37 115.04 98.43 113.76 98.55 L 112.79 98.64 C 111.51 98.76 110.57 99.90 110.69 101.18 C 110.81 102.46 111.94 103.40 113.23 103.29 Z M 114.20 103.20 L 115.19 103.10 C 116.48 102.97 117.41 101.83 117.29 100.55 C 117.16 99.26 116.02 98.33 114.74 98.45 L 113.74 98.55 C 112.46 98.68 111.52 99.82 111.65 101.10 C 111.77 102.38 112.92 103.32 114.20 103.20 Z M 115.20 103.10 L 116.22 103.00 C 117.50 102.87 118.44 101.73 118.31 100.44 C 118.18 99.16 117.04 98.22 115.76 98.35 L 114.73 98.45 C 113.45 98.58 112.51 99.72 112.64 101.01 C 112.77 102.29 113.91 103.23 115.20 103.10 Z M 116.21 103.00 L 117.26 102.90 C 118.54 102.77 119.48 101.63 119.36 100.34 C 119.23 99.06 118.09 98.12 116.80 98.25 L 115.76 98.35 C 114.48 98.47 113.54 99.62 113.66 100.90 C 113.79 102.19 114.93 103.12 116.21 103.00 Z M 117.25 102.90 L 118.30 102.80 C 119.59 102.68 120.53 101.54 120.41 100.26 C 120.29 98.97 119.15 98.03 117.87 98.15 L 116.81 98.24 C 115.53 98.36 114.58 99.50 114.70 100.79 C 114.82 102.07 115.96 103.02 117.25 102.90 Z M 118.29 102.80 L 119.34 102.71 C 120.63 102.60 121.58 101.46 121.47 100.18 C 121.35 98.89 120.22 97.94 118.93 98.05 L 117.88 98.15 C 116.60 98.26 115.64 99.39 115.76 100.68 C 115.87 101.96 117.00 102.91 118.29 102.80 Z M 119.33 102.71 L 120.37 102.63 C 121.66 102.52 122.61 101.39 122.51 100.10 C 122.40 98.82 121.27 97.86 119.99 97.97 L 118.95 98.05 C 117.66 98.16 116.70 99.29 116.81 100.57 C 116.91 101.86 118.04 102.82 119.33 102.71 Z M 120.36 102.63 L 121.37 102.55 C 122.66 102.45 123.62 101.32 123.52 100.04 C 123.42 98.75 122.29 97.79 121.01 97.89 L 120.00 97.96 C 118.71 98.06 117.75 99.19 117.85 100.48 C 117.95 101.76 119.07 102.73 120.36 102.63 Z M 121.36 102.55 L 122.32 102.48 C 123.60 102.39 124.57 101.27 124.48 99.98 C 124.38 98.69 123.26 97.72 121.98 97.82 L 121.02 97.89 C 119.73 97.98 118.76 99.10 118.85 100.39 C 118.95 101.68 120.07 102.64 121.36 102.55 Z M 122.30 102.48 L 123.20 102.42 C 124.49 102.33 125.47 101.22 125.38 99.93 C 125.29 98.64 124.18 97.67 122.89 97.75 L 121.99 97.81 C 120.70 97.90 119.72 99.02 119.81 100.31 C 119.90 101.60 121.02 102.57 122.30 102.48 Z M 123.19 102.42 L 124.32 102.35 C 125.61 102.27 126.59 101.16 126.51 99.87 C 126.43 98.58 125.32 97.60 124.03 97.68 L 122.90 97.75 C 121.61 97.83 120.63 98.94 120.71 100.23 C 120.79 101.52 121.90 102.50 123.19 102.42 Z M 124.30 102.35 L 125.31 102.30 C 126.60 102.23 127.58 101.13 127.51 99.84 C 127.45 98.55 126.34 97.56 125.05 97.63 L 124.05 97.68 C 122.76 97.75 121.77 98.85 121.84 100.14 C 121.91 101.43 123.01 102.42 124.30 102.35 Z M 125.29 102.30 L 126.22 102.26 C 127.51 102.19 128.51 101.10 128.45 99.81 C 128.39 98.52 127.29 97.52 126.00 97.58 L 125.07 97.63 C 123.78 97.69 122.78 98.78 122.84 100.07 C 122.90 101.37 124.00 102.36 125.29 102.30 Z M 126.21 102.26 L 127.13 102.22 C 128.43 102.16 129.43 101.07 129.37 99.77 C 129.31 98.48 128.22 97.48 126.93 97.54 L 126.01 97.58 C 124.72 97.64 123.72 98.73 123.77 100.02 C 123.83 101.31 124.92 102.31 126.21 102.26 Z M 127.13 102.22 L 128.12 102.17 C 129.41 102.12 130.41 101.03 130.35 99.74 C 130.30 98.44 129.21 97.44 127.91 97.50 L 126.93 97.54 C 125.64 97.59 124.64 98.69 124.69 99.98 C 124.75 101.27 125.84 102.27 127.13 102.22 Z M 128.11 102.17 L 129.11 102.13 C 130.41 102.08 131.41 100.99 131.35 99.69 C 131.30 98.40 130.21 97.40 128.92 97.45 L 127.92 97.50 C 126.62 97.55 125.62 98.64 125.68 99.93 C 125.73 101.23 126.82 102.23 128.11 102.17 Z M 129.11 102.13 L 130.12 102.09 C 131.41 102.04 132.42 100.95 132.36 99.65 C 132.31 98.36 131.22 97.36 129.93 97.41 L 128.92 97.45 C 127.63 97.51 126.62 98.60 126.68 99.89 C 126.73 101.18 127.82 102.19 129.11 102.13 Z M 130.12 102.09 L 131.12 102.05 C 132.41 101.99 133.41 100.90 133.36 99.61 C 133.31 98.32 132.22 97.32 130.92 97.37 L 129.93 97.41 C 128.64 97.47 127.63 98.56 127.69 99.85 C 127.74 101.14 128.83 102.14 130.12 102.09 Z M 131.12 102.05 L 132.10 102.01 C 133.39 101.95 134.40 100.86 134.34 99.57 C 134.29 98.28 133.20 97.28 131.91 97.33 L 130.92 97.37 C 129.63 97.42 128.63 98.51 128.68 99.81 C 128.74 101.10 129.83 102.10 131.12 102.05 Z M 132.10 102.01 L 133.10 101.97 C 134.39 101.91 135.39 100.82 135.34 99.53 C 135.29 98.24 134.20 97.24 132.90 97.29 L 131.91 97.33 C 130.62 97.38 129.61 98.47 129.67 99.76 C 129.72 101.06 130.81 102.06 132.10 102.01 Z M 133.09 101.97 L 134.11 101.93 C 135.40 101.88 136.41 100.79 136.36 99.49 C 136.31 98.20 135.22 97.20 133.92 97.25 L 132.91 97.29 C 131.61 97.34 130.61 98.43 130.66 99.72 C 130.71 101.01 131.80 102.02 133.09 101.97 Z M 134.11 101.93 L 135.12 101.89 C 136.41 101.84 137.41 100.75 137.36 99.46 C 137.31 98.17 136.23 97.16 134.93 97.21 L 133.93 97.25 C 132.64 97.30 131.63 98.39 131.68 99.68 C 131.73 100.97 132.82 101.98 134.11 101.93 Z M 135.11 101.89 L 136.12 101.85 C 137.41 101.80 138.42 100.72 138.37 99.43 C 138.33 98.13 137.24 97.12 135.95 97.17 L 134.94 97.21 C 133.65 97.26 132.64 98.34 132.69 99.63 C 132.73 100.93 133.82 101.93 135.11 101.89 Z M 136.11 101.85 L 137.12 101.82 C 138.41 101.78 139.42 100.70 139.38 99.40 C 139.34 98.11 138.26 97.10 136.97 97.14 L 135.96 97.17 C 134.67 97.21 133.65 98.29 133.69 99.59 C 133.74 100.88 134.82 101.89 136.11 101.85 Z M 137.10 101.82 L 138.09 101.79 C 139.39 101.76 140.41 100.68 140.37 99.39 C 140.34 98.10 139.26 97.08 137.97 97.11 L 136.98 97.14 C 135.69 97.17 134.67 98.25 134.70 99.54 C 134.74 100.83 135.81 101.85 137.10 101.82 Z M 138.07 101.79 L 139.10 101.78 C 140.39 101.75 141.42 100.69 141.40 99.39 C 141.37 98.10 140.31 97.07 139.01 97.09 L 137.99 97.11 C 136.70 97.14 135.67 98.20 135.69 99.49 C 135.72 100.79 136.78 101.82 138.07 101.79 Z M 139.08 101.78 L 140.09 101.77 C 141.38 101.75 142.42 100.70 142.41 99.40 C 142.39 98.11 141.34 97.07 140.04 97.09 L 139.03 97.09 C 137.74 97.11 136.70 98.16 136.72 99.46 C 136.73 100.75 137.78 101.79 139.08 101.78 Z M 140.07 101.77 L 141.06 101.76 C 142.35 101.76 143.39 100.71 143.39 99.41 C 143.39 98.12 142.33 97.08 141.04 97.08 L 140.06 97.09 C 138.76 97.09 137.72 98.14 137.72 99.43 C 137.73 100.73 138.78 101.77 140.07 101.77 Z M 141.05 101.76 L 142.03 101.76 C 143.32 101.76 144.37 100.71 144.37 99.42 C 144.37 98.13 143.32 97.08 142.03 97.08 L 141.05 97.08 C 139.76 97.08 138.71 98.13 138.71 99.42 C 138.71 100.72 139.76 101.76 141.05 101.76 Z M 142.03 101.76 L 143.03 101.76 C 144.33 101.76 145.37 100.71 145.37 99.42 C 145.37 98.13 144.33 97.08 143.03 97.08 L 142.03 97.08 C 140.73 97.08 139.69 98.13 139.69 99.42 C 139.69 100.71 140.73 101.76 142.03 101.76 Z M 143.03 101.76 L 144.04 101.76 C 145.33 101.76 146.38 100.72 146.38 99.42 C 146.38 98.13 145.33 97.08 144.04 97.08 L 143.03 97.08 C 141.74 97.08 140.69 98.13 140.69 99.42 C 140.69 100.72 141.74 101.76 143.03 101.76 Z M 144.04 101.76 L 145.03 101.76 C 146.32 101.76 147.37 100.72 147.37 99.42 C 147.37 98.13 146.32 97.08 145.03 97.08 L 144.04 97.08 C 142.74 97.08 141.69 98.13 141.69 99.42 C 141.69 100.72 142.74 101.76 144.04 101.76 Z M 145.03 101.76 L 146.04 101.76 C 147.33 101.76 148.38 100.72 148.38 99.42 C 148.38 98.13 147.33 97.08 146.04 97.08 L 145.03 97.08 C 143.74 97.08 142.69 98.13 142.69 99.42 C 142.69 100.72 143.74 101.76 145.03 101.76 Z M 146.04 101.76 L 147.05 101.76 C 148.34 101.76 149.39 100.72 149.39 99.42 C 149.39 98.13 148.34 97.08 147.05 97.08 L 146.04 97.08 C 144.74 97.08 143.70 98.13 143.70 99.42 C 143.70 100.72 144.74 101.76 146.04 101.76 Z M 147.05 101.76 L 148.04 101.76 C 149.33 101.76 150.38 100.72 150.38 99.42 C 150.38 98.13 149.33 97.08 148.04 97.08 L 147.05 97.08 C 145.75 97.08 144.70 98.13 144.70 99.42 C 144.70 100.72 145.75 101.76 147.05 101.76 Z M 148.04 101.76 L 149.03 101.76 C 150.32 101.76 151.37 100.72 151.37 99.42 C 151.37 98.13 150.32 97.08 149.03 97.08 L 148.04 97.08 C 146.75 97.08 145.70 98.13 145.70 99.42 C 145.70 100.72 146.75 101.76 148.04 101.76 Z M 149.03 101.76 L 150.04 101.76 C 151.34 101.76 152.39 100.72 152.39 99.42 C 152.39 98.13 151.34 97.08 150.04 97.08 L 149.03 97.08 C 147.74 97.08 146.69 98.13 146.69 99.42 C 146.69 100.72 147.74 101.76 149.03 101.76 Z M 150.04 101.76 L 151.04 101.76 C 152.34 101.76 153.38 100.72 153.38 99.42 C 153.38 98.13 152.34 97.08 151.04 97.08 L 150.04 97.08 C 148.75 97.08 147.70 98.13 147.70 99.42 C 147.70 100.72 148.75 101.76 150.04 101.76 Z M 151.04 101.76 L 152.03 101.76 C 153.32 101.76 154.37 100.71 154.37 99.42 C 154.37 98.13 153.32 97.08 152.03 97.08 L 151.04 97.08 C 149.75 97.08 148.70 98.13 148.70 99.42 C 148.70 100.71 149.75 101.76 151.04 101.76 Z M 152.03 101.76 L 153.01 101.76 C 154.31 101.76 155.35 100.71 155.35 99.42 C 155.35 98.13 154.31 97.08 153.01 97.08 L 152.03 97.08 C 150.73 97.08 149.69 98.13 149.69 99.42 C 149.69 100.71 150.73 101.76 152.03 101.76 Z M 153.01 101.76 L 154.00 101.76 C 155.30 101.76 156.34 100.71 156.34 99.42 C 156.34 98.13 155.30 97.08 154.00 97.08 L 153.01 97.08 C 151.72 97.08 150.68 98.13 150.68 99.42 C 150.68 100.71 151.72 101.76 153.01 101.76 Z M 154.00 101.76 L 155.02 101.76 C 156.31 101.76 157.36 100.71 157.36 99.42 C 157.36 98.13 156.31 97.08 155.02 97.08 L 154.00 97.08 C 152.71 97.08 151.67 98.13 151.67 99.42 C 151.67 100.71 152.71 101.76 154.00 101.76 Z M 155.02 101.76 L 155.94 101.76 C 157.23 101.76 158.27 100.71 158.27 99.42 C 158.27 98.13 157.23 97.09 155.94 97.09 L 155.02 97.09 C 153.73 97.08 152.68 98.13 152.68 99.42 C 152.68 100.71 153.73 101.76 155.02 101.76 Z M 155.92 101.76 L 156.86 101.76 C 158.15 101.77 159.20 100.74 159.21 99.45 C 159.22 98.16 158.18 97.11 156.89 97.10 L 155.96 97.09 C 154.67 97.08 153.61 98.12 153.60 99.40 C 153.59 100.69 154.63 101.75 155.92 101.76 Z M 156.82 101.76 L 157.84 101.78 C 159.13 101.81 160.20 100.79 160.22 99.50 C 160.25 98.22 159.23 97.15 157.94 97.12 L 156.92 97.10 C 155.64 97.07 154.57 98.09 154.54 99.38 C 154.51 100.67 155.53 101.73 156.82 101.76 Z M 157.80 101.78 L 158.93 101.83 C 160.21 101.88 161.30 100.88 161.35 99.59 C 161.40 98.31 160.40 97.22 159.12 97.17 L 157.99 97.12 C 156.70 97.07 155.62 98.07 155.56 99.36 C 155.51 100.64 156.51 101.73 157.80 101.78 Z M 158.89 101.82 L 159.80 101.88 C 161.09 101.95 162.19 100.97 162.26 99.68 C 162.34 98.40 161.36 97.30 160.07 97.23 L 159.16 97.17 C 157.87 97.10 156.77 98.08 156.70 99.36 C 156.62 100.65 157.60 101.75 158.89 101.82 Z M 159.78 101.87 L 160.75 101.94 C 162.03 102.03 163.14 101.06 163.23 99.78 C 163.32 98.49 162.35 97.38 161.07 97.30 L 160.10 97.23 C 158.81 97.14 157.70 98.11 157.62 99.39 C 157.53 100.67 158.50 101.78 159.78 101.87 Z M 160.73 101.94 L 161.74 102.01 C 163.02 102.11 164.14 101.15 164.24 99.87 C 164.34 98.59 163.38 97.47 162.10 97.38 L 161.08 97.30 C 159.80 97.20 158.69 98.16 158.59 99.44 C 158.49 100.72 159.45 101.84 160.73 101.94 Z M 161.73 102.01 L 162.77 102.10 C 164.05 102.20 165.17 101.25 165.27 99.97 C 165.38 98.69 164.42 97.57 163.15 97.46 L 162.11 97.38 C 160.83 97.27 159.71 98.23 159.60 99.51 C 159.50 100.79 160.45 101.91 161.73 102.01 Z M 162.76 102.09 L 163.81 102.18 C 165.08 102.29 166.21 101.34 166.32 100.06 C 166.42 98.78 165.48 97.66 164.20 97.55 L 163.15 97.46 C 161.87 97.36 160.75 98.31 160.64 99.58 C 160.53 100.86 161.48 101.99 162.76 102.09 Z M 163.80 102.18 L 164.82 102.27 C 166.10 102.38 167.22 101.43 167.33 100.15 C 167.44 98.88 166.50 97.75 165.22 97.64 L 164.20 97.56 C 162.92 97.45 161.80 98.39 161.69 99.67 C 161.58 100.94 162.53 102.07 163.80 102.18 Z M 164.82 102.26 L 165.83 102.35 C 167.10 102.46 168.23 101.52 168.34 100.24 C 168.45 98.97 167.50 97.85 166.23 97.74 L 165.22 97.65 C 163.95 97.54 162.83 98.48 162.72 99.75 C 162.61 101.03 163.55 102.15 164.82 102.26 Z M 165.83 102.34 L 166.83 102.43 C 168.10 102.54 169.22 101.60 169.33 100.33 C 169.44 99.06 168.50 97.94 167.23 97.83 L 166.23 97.74 C 164.96 97.63 163.84 98.57 163.73 99.84 C 163.62 101.11 164.56 102.23 165.83 102.34 Z M 166.82 102.43 L 167.81 102.51 C 169.08 102.63 170.20 101.69 170.31 100.42 C 170.43 99.15 169.49 98.03 168.22 97.92 L 167.23 97.83 C 165.96 97.72 164.84 98.66 164.73 99.93 C 164.62 101.20 165.56 102.31 166.82 102.43 Z M 167.81 102.51 L 168.80 102.60 C 170.06 102.71 171.18 101.77 171.29 100.51 C 171.40 99.24 170.47 98.13 169.20 98.01 L 168.22 97.93 C 166.96 97.81 165.84 98.75 165.73 100.01 C 165.61 101.28 166.55 102.40 167.81 102.51 Z M 168.80 102.59 L 169.82 102.68 C 171.08 102.80 172.19 101.86 172.31 100.60 C 172.42 99.34 171.49 98.22 170.23 98.11 L 169.20 98.02 C 167.94 97.90 166.83 98.84 166.71 100.10 C 166.60 101.36 167.53 102.48 168.80 102.59 Z M 169.82 102.68 L 170.86 102.77 C 172.12 102.88 173.24 101.95 173.35 100.69 C 173.46 99.43 172.53 98.32 171.27 98.21 L 170.22 98.11 C 168.96 98.00 167.85 98.93 167.74 100.19 C 167.63 101.45 168.56 102.56 169.82 102.68 Z M 170.87 102.77 L 171.89 102.85 C 173.15 102.96 174.25 102.03 174.36 100.78 C 174.47 99.52 173.54 98.41 172.29 98.30 L 171.27 98.21 C 170.01 98.10 168.90 99.03 168.79 100.29 C 168.68 101.55 169.61 102.66 170.87 102.77 Z M 171.90 102.85 L 172.88 102.93 C 174.14 103.04 175.24 102.11 175.34 100.85 C 175.45 99.60 174.52 98.49 173.26 98.39 L 172.28 98.31 C 171.02 98.20 169.92 99.13 169.82 100.39 C 169.71 101.64 170.64 102.74 171.90 102.85 Z M 172.89 102.93 L 173.83 103.00 C 175.08 103.10 176.18 102.16 176.27 100.91 C 176.37 99.66 175.44 98.56 174.18 98.47 L 173.25 98.39 C 172.00 98.30 170.90 99.23 170.80 100.48 C 170.71 101.74 171.64 102.83 172.89 102.93 Z M 173.85 103.00 L 174.87 103.07 C 176.12 103.15 177.20 102.21 177.29 100.96 C 177.37 99.71 176.43 98.63 175.18 98.54 L 174.16 98.47 C 172.91 98.39 171.83 99.33 171.75 100.58 C 171.66 101.83 172.60 102.91 173.85 103.00 Z M 174.89 103.06 L 175.91 103.12 C 177.15 103.19 178.22 102.24 178.29 100.99 C 178.37 99.75 177.42 98.68 176.17 98.61 L 175.16 98.55 C 173.91 98.48 172.84 99.43 172.77 100.67 C 172.70 101.92 173.65 102.98 174.89 103.06 Z M 175.93 103.11 L 176.90 103.15 C 178.14 103.22 179.20 102.26 179.26 101.02 C 179.32 99.78 178.36 98.73 177.12 98.67 L 176.15 98.62 C 174.91 98.56 173.86 99.51 173.80 100.75 C 173.74 101.99 174.69 103.05 175.93 103.11 Z M 176.92 103.14 L 177.88 103.19 C 179.11 103.24 180.15 102.28 180.21 101.05 C 180.26 99.81 179.30 98.77 178.07 98.72 L 177.11 98.68 C 175.88 98.62 174.83 99.58 174.78 100.82 C 174.73 102.05 175.68 103.09 176.92 103.14 Z M 177.88 103.17 L 179.16 103.23 C 180.39 103.28 181.42 102.32 181.47 101.09 C 181.52 99.87 180.57 98.83 179.34 98.78 L 178.06 98.73 C 176.84 98.68 175.80 99.64 175.75 100.86 C 175.70 102.09 176.66 103.12 177.88 103.17 Z M 179.15 103.21 L 180.29 103.26 C 181.51 103.31 182.54 102.37 182.59 101.15 C 182.64 99.93 181.70 98.90 180.48 98.85 L 179.35 98.80 C 178.13 98.75 177.10 99.69 177.04 100.91 C 176.99 102.13 177.94 103.16 179.15 103.21 Z M 180.24 103.24 L 180.78 103.28 C 181.99 103.36 183.03 102.44 183.12 101.24 C 183.20 100.03 182.28 98.99 181.08 98.91 L 180.53 98.87 C 179.32 98.79 178.28 99.70 178.20 100.91 C 178.12 102.11 179.03 103.16 180.24 103.24 Z M 180.91 98.97 L 180.39 98.98 C 179.23 98.99 178.29 99.95 178.30 101.12 C 178.31 102.29 179.27 103.22 180.44 103.21 L 180.95 103.21 C 182.12 103.20 183.06 102.24 183.05 101.07 C 183.04 99.90 182.08 98.96 180.91 98.97 Z M 180.56 99.11 L 179.21 99.01 C 178.12 98.93 177.16 99.75 177.08 100.85 C 177.00 101.94 177.82 102.90 178.92 102.98 L 180.27 103.08 C 181.36 103.16 182.32 102.34 182.40 101.24 C 182.48 100.15 181.66 99.19 180.56 99.11 Z M 179.35 99.12 L 178.48 98.99 C 177.45 98.83 176.48 99.55 176.32 100.58 C 176.17 101.62 176.88 102.58 177.91 102.74 L 178.78 102.87 C 179.82 103.02 180.78 102.31 180.94 101.28 C 181.10 100.24 180.38 99.28 179.35 99.12 Z M 178.59 99.08 L 177.70 98.88 C 176.71 98.66 175.74 99.28 175.52 100.27 C 175.30 101.25 175.92 102.23 176.91 102.45 L 177.80 102.65 C 178.79 102.87 179.76 102.24 179.98 101.26 C 180.20 100.27 179.58 99.30 178.59 99.08 Z M 177.79 98.97 L 176.79 98.68 C 175.85 98.41 174.88 98.95 174.61 99.89 C 174.34 100.82 174.88 101.80 175.81 102.07 L 176.81 102.36 C 177.75 102.63 178.72 102.09 178.99 101.15 C 179.26 100.22 178.72 99.24 177.79 98.97 Z M 176.85 98.77 L 175.75 98.39 C 174.86 98.09 173.90 98.56 173.59 99.45 C 173.29 100.34 173.76 101.30 174.65 101.61 L 175.75 101.98 C 176.64 102.29 177.60 101.81 177.91 100.93 C 178.21 100.04 177.74 99.07 176.85 98.77 Z M 175.79 98.44 L 174.97 98.14 C 174.11 97.81 173.15 98.25 172.83 99.11 C 172.51 99.97 172.94 100.93 173.80 101.25 L 174.62 101.56 C 175.48 101.88 176.44 101.45 176.76 100.59 C 177.08 99.73 176.65 98.77 175.79 98.44 Z M 175.00 98.15 L 174.12 97.81 C 173.27 97.47 172.31 97.89 171.97 98.74 C 171.64 99.59 172.05 100.55 172.90 100.89 L 173.78 101.23 C 174.63 101.57 175.59 101.15 175.93 100.30 C 176.26 99.45 175.85 98.49 175.00 98.15 Z M 174.13 97.82 L 173.20 97.45 C 172.36 97.10 171.40 97.51 171.06 98.35 C 170.72 99.19 171.12 100.15 171.96 100.50 L 172.89 100.87 C 173.73 101.22 174.69 100.81 175.04 99.97 C 175.38 99.13 174.97 98.17 174.13 97.82 Z M 173.21 97.46 L 172.25 97.06 C 171.41 96.71 170.45 97.10 170.11 97.94 C 169.76 98.77 170.15 99.73 170.99 100.08 L 171.95 100.48 C 172.79 100.83 173.75 100.44 174.10 99.60 C 174.44 98.77 174.05 97.81 173.21 97.46 Z M 172.25 97.07 L 171.26 96.65 C 170.43 96.30 169.48 96.69 169.13 97.52 C 168.78 98.35 169.17 99.30 169.99 99.65 L 170.99 100.07 C 171.81 100.42 172.77 100.03 173.12 99.20 C 173.47 98.37 173.08 97.42 172.25 97.07 Z M 171.26 96.66 L 170.27 96.24 C 169.44 95.89 168.49 96.27 168.14 97.10 C 167.79 97.92 168.18 98.87 169.00 99.22 L 169.99 99.64 C 170.82 99.99 171.77 99.61 172.12 98.78 C 172.47 97.96 172.08 97.01 171.26 96.66 Z"
      fill="black"
      fill-rule="nonzero" /><path d="M 109.43 106.57 L 109.93 107.32 C 110.56 108.26 111.84 108.51 112.79 107.88 C 113.73 107.24 113.98 105.96 113.35 105.02 L 112.85 104.27 C 112.21 103.33 110.93 103.08 109.99 103.71 C 109.04 104.35 108.79 105.63 109.43 106.57 Z M 109.94 107.36 L 110.48 108.12 C 111.13 109.06 112.43 109.29 113.37 108.63 C 114.30 107.97 114.53 106.68 113.87 105.74 L 113.34 104.98 C 112.68 104.04 111.39 103.81 110.45 104.47 C 109.51 105.13 109.28 106.42 109.94 107.36 Z M 110.51 108.19 L 111.11 108.99 C 111.81 109.91 113.12 110.09 114.04 109.40 C 114.96 108.70 115.14 107.39 114.44 106.47 L 113.84 105.67 C 113.14 104.75 111.83 104.57 110.91 105.27 C 109.99 105.96 109.81 107.27 110.51 108.19 Z M 111.16 109.07 L 111.86 109.92 C 112.60 110.82 113.93 110.94 114.83 110.20 C 115.72 109.45 115.84 108.13 115.10 107.23 L 114.40 106.38 C 113.65 105.49 112.33 105.37 111.43 106.11 C 110.54 106.85 110.42 108.18 111.16 109.07 Z M 111.92 110.00 L 112.62 110.77 C 113.40 111.63 114.74 111.70 115.60 110.91 C 116.47 110.13 116.53 108.79 115.75 107.93 L 115.05 107.15 C 114.26 106.29 112.92 106.23 112.06 107.01 C 111.19 107.80 111.13 109.14 111.92 110.00 Z M 112.66 110.82 L 113.37 111.55 C 114.18 112.39 115.52 112.41 116.36 111.60 C 117.20 110.79 117.22 109.44 116.41 108.60 L 115.70 107.87 C 114.89 107.03 113.55 107.01 112.71 107.83 C 111.87 108.64 111.85 109.98 112.66 110.82 Z M 113.40 111.58 L 114.14 112.32 C 114.97 113.14 116.32 113.14 117.14 112.30 C 117.96 111.47 117.95 110.13 117.12 109.31 L 116.38 108.57 C 115.55 107.75 114.21 107.76 113.38 108.59 C 112.56 109.42 112.57 110.76 113.40 111.58 Z M 114.17 112.34 L 114.92 113.06 C 115.76 113.87 117.10 113.85 117.91 113.00 C 118.72 112.16 118.70 110.82 117.85 110.01 L 117.10 109.28 C 116.25 108.47 114.91 108.50 114.10 109.35 C 113.29 110.19 113.32 111.53 114.17 112.34 Z M 114.93 113.08 L 115.66 113.76 C 116.52 114.57 117.86 114.52 118.66 113.67 C 119.46 112.81 119.42 111.47 118.56 110.67 L 117.83 109.99 C 116.98 109.19 115.64 109.23 114.84 110.09 C 114.04 110.94 114.08 112.28 114.93 113.08 Z M 115.68 113.78 L 116.36 114.40 C 117.22 115.20 118.56 115.14 119.35 114.28 C 120.15 113.42 120.09 112.08 119.23 111.28 L 118.55 110.66 C 117.69 109.86 116.35 109.92 115.55 110.78 C 114.76 111.64 114.81 112.98 115.68 113.78 Z M 116.37 114.42 L 117.25 115.22 C 118.12 116.00 119.46 115.94 120.25 115.07 C 121.04 114.20 120.97 112.86 120.10 112.07 L 119.22 111.27 C 118.35 110.49 117.01 110.55 116.22 111.42 C 115.43 112.29 115.50 113.63 116.37 114.42 Z M 117.26 115.23 L 118.01 115.90 C 118.89 116.68 120.23 116.60 121.01 115.73 C 121.79 114.86 121.71 113.52 120.84 112.73 L 120.09 112.06 C 119.22 111.28 117.88 111.36 117.10 112.23 C 116.31 113.11 116.39 114.45 117.26 115.23 Z M 118.02 115.90 L 118.69 116.50 C 119.56 117.28 120.90 117.20 121.68 116.32 C 122.46 115.45 122.38 114.11 121.51 113.33 L 120.84 112.73 C 119.96 111.95 118.62 112.03 117.84 112.91 C 117.06 113.78 117.14 115.12 118.02 115.90 Z M 118.68 116.49 L 119.34 117.08 C 120.21 117.87 121.55 117.80 122.33 116.93 C 123.12 116.05 123.05 114.71 122.18 113.93 L 121.52 113.33 C 120.64 112.55 119.30 112.62 118.52 113.49 C 117.73 114.36 117.81 115.71 118.68 116.49 Z M 119.32 117.07 L 120.04 117.73 C 120.91 118.52 122.25 118.46 123.04 117.60 C 123.83 116.73 123.77 115.39 122.91 114.60 L 122.19 113.94 C 121.32 113.15 119.98 113.21 119.19 114.07 C 118.40 114.94 118.46 116.28 119.32 117.07 Z M 120.04 117.72 L 120.77 118.40 C 121.64 119.20 122.98 119.14 123.77 118.28 C 124.57 117.42 124.51 116.08 123.65 115.28 L 122.91 114.60 C 122.05 113.81 120.71 113.86 119.91 114.72 C 119.12 115.59 119.17 116.93 120.04 117.72 Z M 120.78 118.41 L 121.54 119.10 C 122.40 119.90 123.74 119.84 124.54 118.98 C 125.33 118.11 125.27 116.77 124.41 115.98 L 123.65 115.28 C 122.78 114.49 121.44 114.54 120.65 115.41 C 119.86 116.27 119.91 117.61 120.78 118.41 Z M 121.55 119.11 L 122.28 119.78 C 123.14 120.56 124.49 120.50 125.28 119.63 C 126.06 118.76 126.00 117.42 125.13 116.63 L 124.40 115.97 C 123.53 115.18 122.19 115.25 121.40 116.11 C 120.61 116.98 120.68 118.33 121.55 119.11 Z M 122.28 119.78 L 123.02 120.45 C 123.89 121.23 125.23 121.17 126.02 120.30 C 126.80 119.43 126.74 118.09 125.87 117.30 L 125.13 116.63 C 124.26 115.84 122.92 115.91 122.13 116.78 C 121.34 117.65 121.41 118.99 122.28 119.78 Z M 123.01 120.44 L 123.75 121.12 C 124.62 121.91 125.96 121.85 126.75 120.99 C 127.55 120.12 127.49 118.78 126.62 117.99 L 125.88 117.31 C 125.01 116.51 123.67 116.57 122.88 117.44 C 122.08 118.31 122.14 119.65 123.01 120.44 Z M 123.74 121.11 L 124.47 121.80 C 125.33 122.60 126.68 122.55 127.48 121.70 C 128.28 120.84 128.23 119.50 127.38 118.70 L 126.64 118.00 C 125.78 117.20 124.44 117.25 123.64 118.10 C 122.84 118.96 122.88 120.30 123.74 121.11 Z M 124.45 121.78 L 125.18 122.47 C 126.02 123.29 127.37 123.26 128.18 122.41 C 128.99 121.57 128.97 120.22 128.12 119.41 L 127.40 118.71 C 126.55 117.90 125.21 117.93 124.40 118.77 C 123.58 119.62 123.61 120.96 124.45 121.78 Z M 125.17 122.46 L 125.88 123.16 C 126.72 123.98 128.07 123.96 128.89 123.13 C 129.71 122.29 129.69 120.94 128.85 120.12 L 128.13 119.42 C 127.29 118.60 125.95 118.62 125.13 119.46 C 124.31 120.30 124.33 121.64 125.17 122.46 Z M 125.88 123.16 L 126.59 123.86 C 127.43 124.68 128.78 124.66 129.60 123.82 C 130.42 122.99 130.40 121.64 129.56 120.82 L 128.85 120.12 C 128.01 119.30 126.67 119.32 125.85 120.16 C 125.03 120.99 125.04 122.34 125.88 123.16 Z M 126.60 123.86 L 127.32 124.56 C 128.16 125.37 129.50 125.35 130.32 124.51 C 131.14 123.67 131.11 122.32 130.27 121.51 L 129.56 120.81 C 128.71 120.00 127.37 120.02 126.55 120.86 C 125.74 121.70 125.76 123.05 126.60 123.86 Z M 127.33 124.57 L 128.05 125.25 C 128.89 126.07 130.24 126.03 131.05 125.19 C 131.86 124.34 131.83 122.99 130.98 122.18 L 130.26 121.50 C 129.41 120.68 128.07 120.71 127.26 121.56 C 126.45 122.41 126.48 123.76 127.33 124.57 Z M 128.05 125.26 L 128.78 125.95 C 129.63 126.75 130.97 126.72 131.78 125.87 C 132.59 125.01 132.55 123.67 131.70 122.86 L 130.97 122.18 C 130.12 121.37 128.78 121.41 127.97 122.26 C 127.16 123.11 127.20 124.45 128.05 125.26 Z M 128.78 125.95 L 129.51 126.64 C 130.37 127.45 131.71 127.41 132.52 126.55 C 133.32 125.70 133.28 124.35 132.43 123.55 L 131.70 122.86 C 130.84 122.05 129.50 122.09 128.69 122.95 C 127.89 123.80 127.93 125.15 128.78 125.95 Z M 129.51 126.64 L 130.23 127.32 C 131.09 128.13 132.43 128.09 133.24 127.24 C 134.04 126.38 134.01 125.04 133.15 124.23 L 132.43 123.55 C 131.57 122.74 130.23 122.78 129.42 123.64 C 128.62 124.49 128.66 125.84 129.51 126.64 Z M 130.23 127.32 L 130.96 128.01 C 131.81 128.82 133.16 128.78 133.96 127.93 C 134.77 127.08 134.73 125.73 133.88 124.92 L 133.15 124.23 C 132.30 123.43 130.96 123.46 130.15 124.32 C 129.34 125.17 129.38 126.51 130.23 127.32 Z M 130.95 128.00 L 131.68 128.70 C 132.53 129.51 133.87 129.48 134.68 128.63 C 135.49 127.78 135.46 126.43 134.61 125.62 L 133.89 124.93 C 133.04 124.12 131.69 124.15 130.88 125.00 C 130.07 125.85 130.10 127.19 130.95 128.00 Z M 131.67 128.69 L 132.39 129.39 C 133.24 130.20 134.58 130.18 135.40 129.34 C 136.21 128.49 136.19 127.15 135.35 126.33 L 134.62 125.63 C 133.78 124.81 132.43 124.84 131.62 125.68 C 130.80 126.53 130.82 127.87 131.67 128.69 Z M 132.38 129.38 L 133.11 130.09 C 133.95 130.91 135.29 130.90 136.11 130.06 C 136.94 129.22 136.92 127.88 136.09 127.05 L 135.36 126.34 C 134.52 125.52 133.17 125.53 132.35 126.37 C 131.53 127.21 131.54 128.55 132.38 129.38 Z M 133.10 130.08 L 133.81 130.79 C 134.64 131.62 135.98 131.61 136.81 130.78 C 137.64 129.95 137.64 128.60 136.81 127.78 L 136.10 127.07 C 135.27 126.24 133.92 126.24 133.09 127.07 C 132.26 127.90 132.26 129.25 133.10 130.08 Z M 133.79 130.77 L 134.49 131.48 C 135.31 132.31 136.66 132.32 137.49 131.50 C 138.33 130.67 138.34 129.33 137.51 128.49 L 136.82 127.79 C 136.00 126.95 134.65 126.94 133.81 127.77 C 132.98 128.59 132.97 129.94 133.79 130.77 Z M 134.47 131.46 L 135.16 132.17 C 135.98 133.02 137.33 133.04 138.17 132.22 C 139.01 131.40 139.03 130.06 138.22 129.21 L 137.53 128.50 C 136.71 127.66 135.36 127.64 134.52 128.46 C 133.68 129.28 133.66 130.62 134.47 131.46 Z M 135.15 132.16 L 135.84 132.88 C 136.65 133.73 137.99 133.76 138.84 132.95 C 139.69 132.14 139.72 130.79 138.91 129.94 L 138.23 129.22 C 137.42 128.37 136.07 128.34 135.22 129.15 C 134.37 129.97 134.34 131.31 135.15 132.16 Z M 135.83 132.87 L 136.51 133.59 C 137.32 134.45 138.66 134.49 139.52 133.68 C 140.37 132.87 140.41 131.53 139.60 130.67 L 138.92 129.95 C 138.11 129.10 136.77 129.06 135.91 129.87 C 135.06 130.67 135.02 132.02 135.83 132.87 Z M 136.51 133.59 L 137.20 134.33 C 138.01 135.18 139.35 135.22 140.21 134.42 C 141.06 133.61 141.10 132.27 140.30 131.41 L 139.61 130.67 C 138.80 129.82 137.45 129.78 136.60 130.58 C 135.74 131.39 135.70 132.74 136.51 133.59 Z M 137.20 134.33 L 137.83 135.00 C 138.63 135.86 139.98 135.90 140.84 135.09 C 141.70 134.29 141.74 132.94 140.93 132.08 L 140.30 131.41 C 139.50 130.55 138.15 130.51 137.29 131.32 C 136.43 132.12 136.39 133.47 137.20 134.33 Z M 137.82 135.00 L 138.47 135.70 C 139.28 136.57 140.63 136.61 141.50 135.81 C 142.36 135.00 142.41 133.65 141.60 132.78 L 140.94 132.08 C 140.14 131.22 138.78 131.17 137.92 131.98 C 137.06 132.78 137.01 134.13 137.82 135.00 Z M 138.46 135.70 L 139.15 136.45 C 139.95 137.32 141.31 137.38 142.18 136.58 C 143.06 135.78 143.11 134.42 142.31 133.55 L 141.62 132.79 C 140.82 131.92 139.46 131.86 138.59 132.66 C 137.71 133.46 137.65 134.82 138.46 135.70 Z M 139.13 136.44 L 139.85 137.25 C 140.65 138.13 142.01 138.21 142.90 137.41 C 143.78 136.62 143.86 135.26 143.06 134.37 L 142.33 133.56 C 141.54 132.67 140.18 132.60 139.29 133.39 C 138.41 134.19 138.33 135.55 139.13 136.44 Z M 139.83 137.23 L 140.45 137.94 C 141.24 138.84 142.60 138.93 143.50 138.14 C 144.40 137.36 144.49 135.99 143.70 135.09 L 143.08 134.39 C 142.30 133.49 140.93 133.40 140.04 134.19 C 139.14 134.97 139.05 136.33 139.83 137.23 Z M 140.44 137.92 L 141.08 138.67 C 141.85 139.58 143.21 139.68 144.12 138.91 C 145.03 138.13 145.14 136.77 144.36 135.86 L 143.72 135.11 C 142.95 134.21 141.58 134.10 140.68 134.87 C 139.77 135.65 139.66 137.01 140.44 137.92 Z M 141.05 138.65 L 141.70 139.43 C 142.46 140.35 143.83 140.47 144.75 139.71 C 145.67 138.95 145.79 137.59 145.03 136.67 L 144.38 135.89 C 143.62 134.97 142.26 134.84 141.34 135.60 C 140.42 136.36 140.29 137.73 141.05 138.65 Z M 141.68 139.40 L 142.32 140.21 C 143.07 141.14 144.43 141.29 145.36 140.54 C 146.30 139.79 146.45 138.43 145.70 137.50 L 145.05 136.69 C 144.31 135.76 142.95 135.61 142.01 136.36 C 141.08 137.11 140.93 138.47 141.68 139.40 Z M 142.30 140.17 L 142.93 140.99 C 143.65 141.94 145.01 142.12 145.96 141.39 C 146.91 140.66 147.09 139.30 146.36 138.35 L 145.73 137.53 C 145.00 136.58 143.64 136.41 142.69 137.14 C 141.74 137.87 141.57 139.22 142.30 140.17 Z M 142.89 140.95 L 143.50 141.78 C 144.21 142.74 145.57 142.95 146.53 142.24 C 147.49 141.54 147.70 140.18 147.00 139.22 L 146.39 138.39 C 145.68 137.42 144.32 137.22 143.36 137.92 C 142.40 138.63 142.19 139.99 142.89 140.95 Z M 143.47 141.74 L 144.05 142.57 C 144.73 143.55 146.08 143.79 147.07 143.11 C 148.05 142.42 148.29 141.07 147.61 140.09 L 147.03 139.26 C 146.34 138.28 144.99 138.04 144.01 138.72 C 143.03 139.40 142.79 140.75 143.47 141.74 Z M 144.02 142.52 L 144.57 143.36 C 145.22 144.36 146.57 144.63 147.57 143.98 C 148.57 143.32 148.84 141.98 148.19 140.98 L 147.64 140.14 C 146.98 139.14 145.64 138.86 144.64 139.52 C 143.64 140.18 143.36 141.52 144.02 142.52 Z M 144.53 143.30 L 145.05 144.14 C 145.67 145.16 147.01 145.48 148.03 144.85 C 149.05 144.22 149.36 142.89 148.74 141.87 L 148.22 141.03 C 147.59 140.01 146.26 139.69 145.24 140.32 C 144.22 140.95 143.90 142.28 144.53 143.30 Z M 145.01 144.08 L 145.50 144.93 C 146.09 145.97 147.42 146.33 148.46 145.74 C 149.50 145.15 149.86 143.82 149.26 142.78 L 148.77 141.93 C 148.18 140.89 146.86 140.53 145.82 141.12 C 144.78 141.72 144.42 143.04 145.01 144.08 Z M 145.46 144.87 L 145.96 145.82 C 146.52 146.87 147.83 147.28 148.89 146.72 C 149.95 146.17 150.35 144.86 149.80 143.80 L 149.30 142.85 C 148.74 141.79 147.43 141.38 146.37 141.94 C 145.31 142.50 144.91 143.81 145.46 144.87 Z M 145.93 145.75 L 146.38 146.68 C 146.90 147.76 148.19 148.21 149.27 147.69 C 150.35 147.17 150.80 145.87 150.28 144.80 L 149.83 143.87 C 149.31 142.79 148.01 142.34 146.94 142.86 C 145.86 143.38 145.41 144.67 145.93 145.75 Z M 146.35 146.62 L 146.75 147.52 C 147.24 148.61 148.52 149.10 149.61 148.62 C 150.70 148.13 151.20 146.85 150.71 145.76 L 150.31 144.86 C 149.82 143.77 148.54 143.28 147.45 143.76 C 146.36 144.25 145.87 145.53 146.35 146.62 Z M 146.73 147.47 L 147.09 148.32 C 147.54 149.42 148.81 149.95 149.91 149.49 C 151.02 149.04 151.54 147.77 151.08 146.67 L 150.73 145.81 C 150.27 144.71 149.01 144.18 147.90 144.64 C 146.80 145.10 146.28 146.36 146.73 147.47 Z M 147.06 148.26 L 147.41 149.17 C 147.83 150.28 149.08 150.84 150.20 150.42 C 151.31 149.99 151.87 148.74 151.45 147.63 L 151.11 146.72 C 150.68 145.61 149.43 145.05 148.31 145.47 C 147.20 145.90 146.64 147.15 147.06 148.26 Z M 147.38 149.09 L 147.69 149.99 C 148.07 151.12 149.29 151.73 150.42 151.35 C 151.55 150.97 152.16 149.74 151.78 148.61 L 151.48 147.71 C 151.09 146.58 149.87 145.97 148.74 146.35 C 147.61 146.73 147.00 147.95 147.38 149.09 Z M 147.66 149.89 L 147.93 150.83 C 148.25 151.98 149.45 152.64 150.59 152.32 C 151.74 151.99 152.40 150.79 152.08 149.65 L 151.81 148.71 C 151.48 147.56 150.29 146.90 149.14 147.22 C 147.99 147.55 147.33 148.75 147.66 149.89 Z M 147.90 150.74 L 148.15 151.78 C 148.43 152.94 149.59 153.66 150.75 153.38 C 151.91 153.10 152.62 151.94 152.35 150.78 L 152.10 149.74 C 151.82 148.58 150.66 147.87 149.50 148.14 C 148.34 148.42 147.63 149.58 147.90 150.74 Z M 148.13 151.71 L 148.33 152.67 C 148.57 153.84 149.71 154.60 150.88 154.36 C 152.05 154.12 152.80 152.98 152.56 151.81 L 152.37 150.85 C 152.13 149.68 150.99 148.92 149.82 149.16 C 148.65 149.40 147.89 150.54 148.13 151.71 Z M 148.30 152.59 L 148.47 153.61 C 148.66 154.80 149.77 155.60 150.96 155.41 C 152.14 155.22 152.95 154.10 152.76 152.92 L 152.59 151.90 C 152.40 150.71 151.28 149.91 150.10 150.10 C 148.92 150.29 148.11 151.40 148.30 152.59 Z M 148.44 153.49 L 148.54 154.52 C 148.67 155.72 149.74 156.59 150.94 156.47 C 152.14 156.34 153.01 155.27 152.89 154.07 L 152.78 153.04 C 152.66 151.84 151.59 150.97 150.39 151.09 C 149.19 151.22 148.32 152.29 148.44 153.49 Z M 148.52 154.34 L 148.54 155.32 C 148.56 156.53 149.56 157.50 150.77 157.48 C 151.99 157.45 152.95 156.45 152.93 155.24 L 152.91 154.26 C 152.89 153.04 151.89 152.08 150.68 152.10 C 149.47 152.12 148.50 153.12 148.52 154.34 Z M 148.55 155.02 L 148.43 156.02 C 148.28 157.23 149.14 158.33 150.35 158.47 C 151.56 158.62 152.66 157.76 152.80 156.55 L 152.92 155.55 C 153.07 154.34 152.21 153.24 151.00 153.09 C 149.79 152.95 148.69 153.81 148.55 155.02 Z M 148.51 155.60 L 148.20 156.57 C 147.82 157.73 148.46 158.98 149.62 159.36 C 150.78 159.73 152.02 159.10 152.40 157.94 L 152.71 156.97 C 153.09 155.81 152.46 154.56 151.30 154.18 C 150.14 153.81 148.89 154.44 148.51 155.60 Z M 148.35 156.21 L 147.89 157.06 C 147.32 158.13 147.72 159.47 148.80 160.05 C 149.87 160.63 151.21 160.23 151.79 159.15 L 152.25 158.30 C 152.83 157.23 152.42 155.88 151.35 155.31 C 150.27 154.73 148.93 155.13 148.35 156.21 Z M 148.03 156.84 L 147.48 157.62 C 146.78 158.63 147.02 160.01 148.03 160.71 C 149.03 161.41 150.41 161.16 151.11 160.16 L 151.66 159.37 C 152.36 158.37 152.11 156.99 151.11 156.29 C 150.10 155.59 148.72 155.83 148.03 156.84 Z M 147.53 157.54 L 146.93 158.32 C 146.19 159.30 146.37 160.69 147.34 161.44 C 148.31 162.18 149.71 162.00 150.45 161.03 L 151.05 160.24 C 151.80 159.27 151.62 157.88 150.65 157.13 C 149.67 156.39 148.28 156.57 147.53 157.54 Z M 146.96 158.29 L 146.33 159.07 C 145.56 160.03 145.72 161.42 146.67 162.19 C 147.63 162.96 149.03 162.81 149.80 161.85 L 150.43 161.07 C 151.19 160.11 151.04 158.71 150.08 157.94 C 149.12 157.17 147.73 157.33 146.96 158.29 Z M 146.35 159.05 L 145.71 159.82 C 144.93 160.77 145.06 162.17 146.01 162.95 C 146.96 163.73 148.36 163.60 149.14 162.65 L 149.78 161.87 C 150.56 160.92 150.43 159.52 149.48 158.74 C 148.53 157.96 147.13 158.10 146.35 159.05 Z M 145.71 159.81 L 145.08 160.57 C 144.30 161.52 144.43 162.92 145.37 163.71 C 146.32 164.49 147.73 164.36 148.51 163.42 L 149.14 162.66 C 149.93 161.71 149.79 160.30 148.85 159.52 C 147.90 158.73 146.50 158.87 145.71 159.81 Z M 145.08 160.57 L 144.46 161.32 C 143.68 162.26 143.81 163.67 144.76 164.46 C 145.71 165.24 147.11 165.11 147.90 164.16 L 148.51 163.42 C 149.30 162.47 149.17 161.06 148.22 160.28 C 147.27 159.49 145.87 159.62 145.08 160.57 Z M 144.47 161.31 L 143.83 162.07 C 143.05 163.02 143.17 164.43 144.12 165.21 C 145.07 166.00 146.47 165.87 147.26 164.93 L 147.89 164.16 C 148.68 163.22 148.55 161.81 147.61 161.02 C 146.66 160.24 145.25 160.37 144.47 161.31 Z M 143.84 162.06 L 143.17 162.86 C 142.38 163.80 142.50 165.21 143.45 166.00 C 144.39 166.79 145.80 166.67 146.59 165.73 L 147.26 164.93 C 148.05 163.99 147.92 162.58 146.98 161.79 C 146.04 161.00 144.63 161.12 143.84 162.06 Z M 143.18 162.85 L 142.60 163.53 C 141.81 164.47 141.92 165.88 142.86 166.67 C 143.80 167.47 145.21 167.36 146.01 166.42 L 146.58 165.74 C 147.38 164.80 147.26 163.39 146.32 162.59 C 145.38 161.80 143.97 161.91 143.18 162.85 Z M 142.60 163.53 L 142.03 164.21 C 141.23 165.15 141.35 166.56 142.29 167.36 C 143.23 168.15 144.64 168.03 145.44 167.09 L 146.01 166.41 C 146.80 165.47 146.69 164.06 145.74 163.27 C 144.80 162.47 143.39 162.59 142.60 163.53 Z M 142.01 164.23 L 141.39 164.97 C 140.61 165.92 140.74 167.33 141.69 168.12 C 142.64 168.90 144.04 168.77 144.83 167.82 L 145.45 167.08 C 146.24 166.13 146.10 164.72 145.16 163.93 C 144.21 163.15 142.80 163.28 142.01 164.23 Z M 141.37 165.00 L 140.70 165.83 C 139.93 166.79 140.08 168.19 141.04 168.97 C 142.00 169.74 143.41 169.59 144.18 168.63 L 144.85 167.80 C 145.62 166.84 145.47 165.43 144.51 164.66 C 143.55 163.89 142.15 164.04 141.37 165.00 Z M 140.68 165.86 L 139.95 166.79 C 139.19 167.77 139.37 169.17 140.34 169.93 C 141.31 170.69 142.72 170.51 143.48 169.54 L 144.20 168.60 C 144.96 167.63 144.79 166.22 143.81 165.47 C 142.84 164.71 141.44 164.88 140.68 165.86 Z M 139.93 166.82 L 139.36 167.58 C 138.62 168.56 138.82 169.96 139.80 170.70 C 140.79 171.45 142.19 171.25 142.93 170.26 L 143.50 169.51 C 144.24 168.53 144.04 167.13 143.06 166.38 C 142.07 165.64 140.67 165.84 139.93 166.82 Z M 139.35 167.59 L 138.77 168.38 C 138.04 169.37 138.25 170.77 139.24 171.50 C 140.23 172.23 141.63 172.02 142.36 171.03 L 142.94 170.25 C 143.67 169.25 143.46 167.85 142.47 167.12 C 141.48 166.39 140.08 166.60 139.35 167.59 Z M 138.76 168.39 L 138.16 169.21 C 137.44 170.21 137.66 171.61 138.66 172.33 C 139.66 173.06 141.05 172.84 141.78 171.84 L 142.37 171.02 C 143.10 170.02 142.88 168.62 141.88 167.90 C 140.88 167.17 139.48 167.40 138.76 168.39 Z M 138.15 169.23 L 137.55 170.07 C 136.84 171.07 137.07 172.47 138.07 173.18 C 139.07 173.90 140.47 173.67 141.19 172.66 L 141.79 171.82 C 142.50 170.82 142.27 169.43 141.27 168.71 C 140.27 167.99 138.87 168.22 138.15 169.23 Z M 137.55 170.08 L 136.95 170.92 C 136.24 171.93 136.48 173.32 137.48 174.04 C 138.49 174.75 139.89 174.51 140.60 173.50 L 141.19 172.65 C 141.91 171.65 141.67 170.25 140.66 169.54 C 139.65 168.83 138.26 169.07 137.55 170.08 Z M 136.94 170.93 L 136.36 171.77 C 135.65 172.78 135.90 174.17 136.91 174.88 C 137.92 175.59 139.31 175.34 140.02 174.33 L 140.60 173.49 C 141.31 172.48 141.06 171.09 140.05 170.38 C 139.04 169.67 137.65 169.92 136.94 170.93 Z M 136.35 171.78 L 135.78 172.60 C 135.08 173.62 135.33 175.01 136.34 175.71 C 137.36 176.41 138.75 176.16 139.45 175.15 L 140.02 174.32 C 140.73 173.31 140.47 171.91 139.46 171.21 C 138.45 170.51 137.05 170.76 136.35 171.78 Z M 135.77 172.61 L 135.16 173.50 C 134.46 174.52 134.72 175.91 135.74 176.61 C 136.76 177.30 138.15 177.05 138.85 176.03 L 139.46 175.14 C 140.15 174.12 139.90 172.73 138.88 172.03 C 137.86 171.34 136.47 171.59 135.77 172.61 Z M 135.16 173.51 L 134.58 174.36 C 133.88 175.38 134.15 176.77 135.17 177.46 C 136.18 178.16 137.57 177.89 138.27 176.87 L 138.85 176.02 C 139.54 175.00 139.28 173.61 138.26 172.92 C 137.24 172.22 135.85 172.49 135.16 173.51 Z M 134.58 174.36 L 134.02 175.18 C 133.33 176.20 133.59 177.59 134.61 178.28 C 135.63 178.98 137.02 178.71 137.71 177.69 L 138.27 176.87 C 138.96 175.85 138.70 174.46 137.68 173.77 C 136.66 173.07 135.27 173.34 134.58 174.36 Z M 134.02 175.18 L 133.47 175.98 C 132.78 177.00 133.05 178.39 134.07 179.09 C 135.09 179.78 136.48 179.51 137.17 178.49 L 137.71 177.69 C 138.41 176.67 138.14 175.28 137.12 174.59 C 136.10 173.90 134.71 174.16 134.02 175.18 Z M 133.48 175.98 L 132.94 176.77 C 132.24 177.79 132.51 179.18 133.53 179.87 C 134.54 180.57 135.93 180.30 136.63 179.29 L 137.17 178.50 C 137.86 177.48 137.60 176.09 136.58 175.39 C 135.56 174.70 134.17 174.96 133.48 175.98 Z M 132.94 176.76 L 132.39 177.56 C 131.69 178.58 131.95 179.97 132.97 180.67 C 133.99 181.37 135.38 181.11 136.07 180.09 L 136.62 179.29 C 137.32 178.28 137.07 176.88 136.05 176.19 C 135.03 175.49 133.64 175.75 132.94 176.76 Z M 132.40 177.56 L 131.79 178.43 C 131.09 179.45 131.34 180.84 132.35 181.54 C 133.36 182.25 134.76 181.99 135.46 180.98 L 136.07 180.10 C 136.77 179.09 136.52 177.70 135.51 176.99 C 134.49 176.29 133.10 176.54 132.40 177.56 Z M 131.79 178.43 L 131.19 179.29 C 130.48 180.30 130.73 181.69 131.74 182.40 C 132.75 183.11 134.14 182.86 134.85 181.85 L 135.45 180.99 C 136.16 179.98 135.92 178.59 134.91 177.88 C 133.90 177.17 132.50 177.42 131.79 178.43 Z M 131.19 179.28 L 130.60 180.12 C 129.89 181.13 130.13 182.52 131.14 183.23 C 132.14 183.94 133.54 183.71 134.25 182.70 L 134.84 181.86 C 135.55 180.86 135.31 179.46 134.31 178.75 C 133.30 178.04 131.91 178.28 131.19 179.28 Z M 130.61 180.11 L 130.04 180.90 C 129.33 181.91 129.56 183.30 130.57 184.02 C 131.57 184.73 132.97 184.50 133.68 183.50 L 134.24 182.71 C 134.96 181.70 134.73 180.31 133.72 179.59 C 132.72 178.87 131.32 179.11 130.61 180.11 Z M 130.05 180.89 L 129.53 181.62 C 128.81 182.62 129.03 184.02 130.03 184.74 C 131.04 185.46 132.43 185.23 133.15 184.23 L 133.68 183.50 C 134.40 182.50 134.17 181.11 133.17 180.39 C 132.17 179.66 130.77 179.89 130.05 180.89 Z M 129.53 181.61 L 128.88 182.51 C 128.15 183.51 128.38 184.90 129.37 185.63 C 130.37 186.36 131.77 186.14 132.49 185.14 L 133.15 184.24 C 133.87 183.24 133.65 181.85 132.65 181.12 C 131.66 180.39 130.26 180.61 129.53 181.61 Z M 128.89 182.50 L 128.28 183.32 C 127.55 184.31 127.76 185.71 128.75 186.44 C 129.75 187.18 131.14 186.96 131.88 185.97 L 132.48 185.15 C 133.22 184.16 133.01 182.76 132.01 182.03 C 131.02 181.29 129.62 181.50 128.89 182.50 Z M 128.29 183.31 L 127.74 184.05 C 127.00 185.03 127.20 186.43 128.19 187.17 C 129.17 187.91 130.57 187.71 131.31 186.72 L 131.87 185.98 C 132.61 185.00 132.41 183.60 131.42 182.86 C 130.43 182.12 129.03 182.32 128.29 183.31 Z M 127.75 184.04 L 127.19 184.76 C 126.45 185.75 126.64 187.15 127.63 187.89 C 128.61 188.64 130.01 188.44 130.76 187.46 L 131.31 186.73 C 132.05 185.75 131.86 184.35 130.87 183.60 C 129.89 182.86 128.49 183.05 127.75 184.04 Z M 127.20 184.76 L 126.60 185.54 C 125.85 186.52 126.04 187.92 127.02 188.67 C 128.00 189.42 129.41 189.23 130.15 188.25 L 130.75 187.47 C 131.50 186.49 131.31 185.08 130.33 184.34 C 129.35 183.59 127.95 183.78 127.20 184.76 Z M 126.61 185.53 L 126.00 186.33 C 125.24 187.30 125.42 188.70 126.40 189.46 C 127.38 190.21 128.78 190.03 129.53 189.06 L 130.15 188.26 C 130.90 187.29 130.72 185.88 129.74 185.13 C 128.77 184.38 127.36 184.56 126.61 185.53 Z M 126.01 186.31 L 125.38 187.11 C 124.62 188.08 124.79 189.48 125.76 190.25 C 126.73 191.01 128.13 190.84 128.89 189.87 L 129.52 189.07 C 130.28 188.10 130.11 186.70 129.14 185.93 C 128.17 185.17 126.77 185.34 126.01 186.31 Z M 125.39 187.09 L 124.78 187.86 C 124.01 188.82 124.16 190.23 125.13 191.00 C 126.09 191.77 127.50 191.61 128.27 190.65 L 128.88 189.89 C 129.65 188.92 129.50 187.52 128.53 186.75 C 127.57 185.97 126.17 186.13 125.39 187.09 Z M 124.79 187.85 L 124.16 188.62 C 123.39 189.58 123.53 190.98 124.49 191.76 C 125.45 192.54 126.86 192.39 127.63 191.43 L 128.26 190.66 C 129.04 189.70 128.89 188.30 127.93 187.52 C 126.97 186.74 125.57 186.89 124.79 187.85 Z M 124.16 188.62 L 123.53 189.40 C 122.75 190.36 122.89 191.77 123.85 192.55 C 124.81 193.32 126.22 193.18 126.99 192.22 L 127.63 191.43 C 128.41 190.48 128.26 189.07 127.31 188.29 C 126.35 187.51 124.94 187.66 124.16 188.62 Z M 123.52 189.41 L 122.88 190.20 C 122.11 191.16 122.26 192.57 123.22 193.34 C 124.18 194.12 125.59 193.97 126.36 193.01 L 127.00 192.21 C 127.77 191.25 127.62 189.85 126.66 189.07 C 125.70 188.30 124.30 188.45 123.52 189.41 Z M 122.88 190.21 L 122.24 191.00 C 121.47 191.96 121.63 193.37 122.59 194.14 C 123.55 194.91 124.96 194.76 125.73 193.79 L 126.37 193.00 C 127.14 192.04 126.98 190.63 126.02 189.86 C 125.06 189.09 123.65 189.25 122.88 190.21 Z M 122.25 191.00 L 121.62 191.78 C 120.84 192.74 121.00 194.15 121.96 194.92 C 122.92 195.69 124.33 195.54 125.10 194.58 L 125.73 193.80 C 126.50 192.83 126.35 191.43 125.39 190.66 C 124.43 189.88 123.02 190.04 122.25 191.00 Z M 121.63 191.77 L 121.01 192.53 C 120.23 193.48 120.37 194.89 121.33 195.67 C 122.29 196.45 123.69 196.30 124.47 195.35 L 125.09 194.59 C 125.87 193.64 125.72 192.23 124.77 191.45 C 123.81 190.67 122.41 190.81 121.63 191.77 Z M 121.03 192.51 L 120.43 193.22 C 119.64 194.17 119.77 195.58 120.71 196.37 C 121.66 197.16 123.07 197.03 123.86 196.08 L 124.46 195.37 C 125.25 194.42 125.12 193.01 124.17 192.22 C 123.22 191.43 121.82 191.56 121.03 192.51 Z M 120.45 193.20 L 119.83 193.92 C 119.03 194.86 119.14 196.27 120.08 197.07 C 121.01 197.87 122.42 197.76 123.23 196.82 L 123.84 196.10 C 124.64 195.17 124.53 193.76 123.60 192.96 C 122.66 192.15 121.25 192.26 120.45 193.20 Z M 119.84 193.91 L 119.17 194.68 C 118.36 195.61 118.45 197.03 119.38 197.84 C 120.31 198.65 121.72 198.55 122.53 197.62 L 123.21 196.84 C 124.02 195.91 123.93 194.50 123.00 193.69 C 122.07 192.88 120.65 192.98 119.84 193.91 Z M 119.17 194.68 L 118.49 195.45 C 117.67 196.38 117.76 197.79 118.69 198.61 C 119.62 199.42 121.03 199.33 121.84 198.40 L 122.53 197.63 C 123.34 196.70 123.25 195.29 122.33 194.48 C 121.40 193.66 119.99 193.75 119.17 194.68 Z M 118.49 195.45 L 117.88 196.14 C 117.06 197.07 117.14 198.48 118.07 199.30 C 118.99 200.12 120.40 200.03 121.22 199.11 L 121.84 198.41 C 122.65 197.49 122.57 196.08 121.65 195.26 C 120.72 194.44 119.31 194.52 118.49 195.45 Z M 117.88 196.14 L 117.22 196.88 C 116.40 197.80 116.48 199.21 117.40 200.03 C 118.31 200.86 119.73 200.78 120.55 199.86 L 121.21 199.11 C 122.03 198.20 121.96 196.78 121.04 195.96 C 120.12 195.14 118.71 195.22 117.88 196.14 Z M 117.23 196.87 L 116.53 197.64 C 115.70 198.55 115.77 199.97 116.69 200.79 C 117.60 201.62 119.02 201.55 119.84 200.64 L 120.54 199.87 C 121.37 198.95 121.30 197.54 120.38 196.71 C 119.47 195.89 118.06 195.96 117.23 196.87 Z M 116.54 197.63 L 115.83 198.40 C 115.00 199.31 115.06 200.72 115.96 201.56 C 116.87 202.39 118.28 202.33 119.12 201.42 L 119.83 200.65 C 120.67 199.74 120.61 198.33 119.70 197.49 C 118.79 196.66 117.38 196.72 116.54 197.63 Z M 115.85 198.39 L 115.13 199.15 C 114.28 200.05 114.33 201.46 115.23 202.31 C 116.13 203.15 117.54 203.11 118.39 202.21 L 119.10 201.44 C 119.95 200.54 119.90 199.13 119.00 198.28 C 118.10 197.44 116.69 197.49 115.85 198.39 Z M 115.14 199.14 L 114.43 199.88 C 113.58 200.77 113.61 202.18 114.50 203.04 C 115.39 203.89 116.80 203.86 117.65 202.97 L 118.37 202.22 C 119.22 201.33 119.19 199.92 118.30 199.07 C 117.41 198.21 116.00 198.24 115.14 199.14 Z M 114.44 199.87 L 113.74 200.59 C 112.88 201.47 112.89 202.89 113.78 203.75 C 114.66 204.61 116.07 204.59 116.93 203.71 L 117.64 202.98 C 118.50 202.10 118.48 200.69 117.60 199.83 C 116.72 198.97 115.30 198.98 114.44 199.87 Z M 113.75 200.58 L 113.05 201.29 C 112.18 202.16 112.19 203.58 113.07 204.44 C 113.95 205.31 115.36 205.30 116.23 204.42 L 116.92 203.72 C 117.79 202.84 117.78 201.43 116.90 200.56 C 116.03 199.70 114.61 199.70 113.75 200.58 Z M 113.06 201.28 L 112.37 201.97 C 111.50 202.84 111.50 204.26 112.38 205.13 C 113.25 206.00 114.66 205.99 115.53 205.12 L 116.22 204.43 C 117.09 203.56 117.09 202.15 116.21 201.28 C 115.34 200.41 113.93 200.41 113.06 201.28 Z M 112.37 201.97 L 111.69 202.65 C 110.82 203.52 110.82 204.94 111.69 205.81 C 112.56 206.68 113.97 206.68 114.84 205.81 L 115.53 205.12 C 116.40 204.25 116.40 202.84 115.53 201.97 C 114.66 201.10 113.24 201.10 112.37 201.97 Z M 111.69 202.65 L 111.00 203.35 C 110.13 204.22 110.13 205.63 111.00 206.50 C 111.87 207.37 113.28 207.37 114.15 206.50 L 114.84 205.81 C 115.72 204.93 115.71 203.52 114.84 202.65 C 113.97 201.78 112.56 201.78 111.69 202.65 Z M 110.99 203.35 L 110.30 204.05 C 109.43 204.92 109.44 206.34 110.32 207.20 C 111.19 208.07 112.60 208.06 113.47 207.19 L 114.16 206.49 C 115.03 205.62 115.02 204.20 114.14 203.34 C 113.27 202.47 111.86 202.48 110.99 203.35 Z M 110.29 204.06 L 109.60 204.77 C 108.74 205.65 108.75 207.06 109.63 207.92 C 110.51 208.78 111.92 208.77 112.79 207.89 L 113.48 207.18 C 114.34 206.30 114.32 204.88 113.44 204.02 C 112.56 203.16 111.15 203.18 110.29 204.06 Z M 109.58 204.79 L 108.87 205.52 C 108.02 206.41 108.05 207.82 108.94 208.68 C 109.83 209.53 111.24 209.50 112.09 208.61 L 112.80 207.87 C 113.65 206.98 113.62 205.57 112.73 204.72 C 111.85 203.87 110.43 203.90 109.58 204.79 Z M 108.86 205.54 L 108.15 206.29 C 107.31 207.19 107.35 208.60 108.25 209.44 C 109.15 210.29 110.56 210.24 111.40 209.35 L 112.11 208.59 C 112.95 207.70 112.90 206.29 112.01 205.44 C 111.11 204.60 109.70 204.65 108.86 205.54 Z M 108.13 206.31 L 107.44 207.07 C 106.61 207.98 106.67 209.39 107.57 210.22 C 108.48 211.05 109.89 210.99 110.72 210.08 L 111.42 209.33 C 112.25 208.42 112.19 207.01 111.28 206.18 C 110.38 205.35 108.97 205.41 108.13 206.31 Z M 107.42 207.09 L 106.73 207.86 C 105.91 208.78 105.99 210.19 106.90 211.01 C 107.82 211.83 109.23 211.75 110.05 210.83 L 110.74 210.06 C 111.56 209.15 111.48 207.74 110.56 206.92 C 109.65 206.10 108.24 206.18 107.42 207.09 Z M 106.71 207.89 L 106.04 208.66 C 105.24 209.58 105.33 210.99 106.26 211.80 C 107.19 212.60 108.59 212.50 109.40 211.58 L 110.07 210.81 C 110.87 209.88 110.78 208.48 109.85 207.67 C 108.92 206.86 107.51 206.96 106.71 207.89 Z M 106.02 208.69 L 105.39 209.44 C 104.60 210.38 104.73 211.78 105.67 212.57 C 106.61 213.36 108.01 213.23 108.80 212.29 L 109.43 211.54 C 110.21 210.60 110.09 209.20 109.15 208.41 C 108.21 207.62 106.80 207.75 106.02 208.69 Z M 105.36 209.48 L 104.75 210.24 C 103.99 211.20 104.15 212.60 105.11 213.36 C 106.07 214.13 107.47 213.97 108.23 213.00 L 108.84 212.24 C 109.60 211.28 109.44 209.89 108.48 209.12 C 107.52 208.36 106.12 208.52 105.36 209.48 Z M 104.69 210.33 L 104.09 211.16 C 103.38 212.16 103.61 213.54 104.60 214.26 C 105.60 214.97 106.98 214.74 107.70 213.75 L 108.29 212.92 C 109.01 211.92 108.78 210.54 107.79 209.82 C 106.79 209.11 105.41 209.33 104.69 210.33 Z M 103.99 211.33 L 103.50 212.16 C 102.88 213.21 103.23 214.56 104.28 215.19 C 105.33 215.81 106.69 215.46 107.31 214.41 L 107.80 213.58 C 108.42 212.53 108.07 211.17 107.02 210.55 C 105.97 209.93 104.61 210.28 103.99 211.33 Z M 103.39 212.40 L 103.00 213.28 C 102.51 214.39 103.02 215.69 104.14 216.18 C 105.25 216.67 106.55 216.16 107.04 215.05 L 107.43 214.17 C 107.92 213.05 107.41 211.75 106.29 211.26 C 105.18 210.77 103.88 211.28 103.39 212.40 Z M 102.91 213.54 L 102.62 214.53 C 102.28 215.69 102.95 216.92 104.11 217.26 C 105.28 217.60 106.50 216.93 106.84 215.76 L 107.13 214.78 C 107.47 213.62 106.81 212.39 105.64 212.05 C 104.47 211.71 103.25 212.38 102.91 213.54 Z M 102.56 214.76 L 102.38 215.80 C 102.17 217.00 102.97 218.14 104.16 218.36 C 105.36 218.57 106.50 217.77 106.72 216.57 L 106.90 215.53 C 107.11 214.33 106.31 213.19 105.12 212.98 C 103.92 212.77 102.78 213.56 102.56 214.76 Z M 102.35 216.02 L 102.27 217.10 C 102.17 218.31 103.08 219.37 104.30 219.47 C 105.52 219.56 106.58 218.65 106.67 217.43 L 106.75 216.35 C 106.84 215.14 105.93 214.08 104.71 213.99 C 103.50 213.89 102.44 214.81 102.35 216.02 Z M 102.25 217.36 L 102.30 218.37 C 102.35 219.60 103.38 220.54 104.60 220.49 C 105.83 220.44 106.78 219.41 106.72 218.19 L 106.68 217.17 C 106.63 215.95 105.60 215.00 104.37 215.05 C 103.15 215.10 102.20 216.14 102.25 217.36 Z M 102.34 218.75 L 102.53 219.62 C 102.79 220.82 103.97 221.58 105.17 221.32 C 106.37 221.05 107.13 219.87 106.87 218.67 L 106.68 217.81 C 106.42 216.61 105.24 215.85 104.04 216.11 C 102.84 216.37 102.08 217.55 102.34 218.75 Z M 102.80 220.32 L 103.27 221.08 C 103.92 222.12 105.30 222.45 106.34 221.80 C 107.39 221.15 107.71 219.77 107.06 218.73 L 106.59 217.97 C 105.94 216.93 104.57 216.60 103.52 217.25 C 102.48 217.90 102.16 219.27 102.80 220.32 Z M 104.05 221.84 L 104.82 222.29 C 105.89 222.91 107.25 222.54 107.87 221.47 C 108.49 220.40 108.13 219.03 107.06 218.41 L 106.29 217.97 C 105.22 217.35 103.85 217.71 103.23 218.78 C 102.61 219.85 102.98 221.22 104.05 221.84 Z M 105.49 222.55 L 106.50 222.76 C 107.71 223.00 108.90 222.22 109.15 221.00 C 109.40 219.79 108.61 218.60 107.40 218.36 L 106.39 218.15 C 105.17 217.90 103.99 218.69 103.74 219.90 C 103.49 221.12 104.28 222.30 105.49 222.55 Z M 106.75 222.80 L 107.76 222.89 C 109.00 222.99 110.09 222.07 110.19 220.83 C 110.30 219.59 109.38 218.50 108.14 218.40 L 107.14 218.31 C 105.90 218.20 104.81 219.12 104.70 220.36 C 104.60 221.60 105.51 222.69 106.75 222.80 Z M 107.82 222.89 L 108.67 222.94 C 109.92 223.02 110.98 222.07 111.06 220.82 C 111.13 219.58 110.18 218.51 108.93 218.44 L 108.08 218.39 C 106.84 218.32 105.77 219.27 105.70 220.51 C 105.62 221.75 106.57 222.82 107.82 222.89 Z M 108.71 222.95 L 109.64 222.99 C 110.89 223.04 111.94 222.07 111.99 220.83 C 112.05 219.58 111.08 218.53 109.83 218.48 L 108.90 218.44 C 107.65 218.38 106.60 219.35 106.55 220.60 C 106.49 221.84 107.46 222.89 108.71 222.95 Z M 109.67 222.99 L 110.70 223.02 C 111.95 223.06 112.99 222.08 113.02 220.83 C 113.06 219.58 112.08 218.54 110.83 218.50 L 109.81 218.47 C 108.56 218.44 107.52 219.42 107.48 220.66 C 107.44 221.91 108.42 222.95 109.67 222.99 Z M 110.72 223.02 L 111.85 223.04 C 113.09 223.07 114.13 222.08 114.15 220.83 C 114.18 219.58 113.19 218.55 111.94 218.52 L 110.81 218.50 C 109.56 218.48 108.53 219.47 108.51 220.72 C 108.48 221.96 109.47 223.00 110.72 223.02 Z M 111.86 223.05 L 113.00 223.06 C 114.24 223.08 115.27 222.08 115.29 220.83 C 115.30 219.58 114.30 218.55 113.06 218.54 L 111.92 218.52 C 110.67 218.51 109.65 219.51 109.63 220.75 C 109.61 222.00 110.61 223.03 111.86 223.05 Z M 113.01 223.06 L 114.02 223.07 C 115.27 223.08 116.29 222.08 116.30 220.83 C 116.31 219.58 115.31 218.56 114.06 218.55 L 113.05 218.54 C 111.80 218.53 110.78 219.53 110.76 220.78 C 110.75 222.03 111.76 223.05 113.01 223.06 Z M 114.02 223.07 L 115.07 223.08 C 116.32 223.08 117.33 222.08 117.34 220.83 C 117.35 219.58 116.34 218.56 115.09 218.55 L 114.05 218.55 C 112.80 218.54 111.78 219.55 111.77 220.79 C 111.77 222.04 112.77 223.06 114.02 223.07 Z M 115.07 223.08 L 116.12 223.08 C 117.37 223.08 118.39 222.08 118.39 220.83 C 118.40 219.58 117.39 218.56 116.14 218.56 L 115.09 218.55 C 113.84 218.55 112.82 219.56 112.82 220.81 C 112.81 222.06 113.82 223.07 115.07 223.08 Z M 116.13 223.08 L 117.16 223.08 C 118.41 223.08 119.42 222.07 119.43 220.82 C 119.43 219.58 118.42 218.56 117.17 218.56 L 116.14 218.56 C 114.89 218.55 113.87 219.56 113.87 220.81 C 113.87 222.06 114.88 223.08 116.13 223.08 Z M 117.16 223.08 L 118.15 223.08 C 119.40 223.08 120.41 222.07 120.41 220.82 C 120.42 219.57 119.40 218.56 118.16 218.56 L 117.17 218.56 C 115.92 218.56 114.90 219.57 114.90 220.82 C 114.90 222.07 115.91 223.08 117.16 223.08 Z M 118.15 223.08 L 119.07 223.08 C 120.32 223.08 121.33 222.07 121.34 220.82 C 121.34 219.57 120.32 218.56 119.07 218.56 L 118.15 218.56 C 116.90 218.56 115.89 219.57 115.89 220.82 C 115.89 222.07 116.90 223.08 118.15 223.08 Z M 119.07 223.08 L 120.21 223.08 C 121.46 223.08 122.47 222.07 122.47 220.82 C 122.47 219.57 121.46 218.56 120.21 218.56 L 119.07 218.56 C 117.82 218.56 116.81 219.57 116.81 220.82 C 116.81 222.07 117.82 223.08 119.07 223.08 Z M 120.21 223.08 L 121.29 223.08 C 122.54 223.08 123.55 222.07 123.55 220.82 C 123.55 219.57 122.54 218.56 121.29 218.56 L 120.21 218.56 C 118.96 218.56 117.95 219.57 117.95 220.82 C 117.95 222.07 118.96 223.08 120.21 223.08 Z M 121.29 223.08 L 122.24 223.08 C 123.48 223.08 124.50 222.07 124.50 220.82 C 124.50 219.57 123.48 218.56 122.24 218.56 L 121.29 218.56 C 120.05 218.56 119.03 219.57 119.03 220.82 C 119.03 222.07 120.05 223.08 121.29 223.08 Z M 122.24 223.08 L 123.11 223.08 C 124.35 223.08 125.36 222.07 125.36 220.82 C 125.36 219.57 124.35 218.56 123.11 218.56 L 122.24 218.56 C 120.99 218.56 119.98 219.57 119.98 220.82 C 119.98 222.07 120.99 223.08 122.24 223.08 Z M 123.11 223.08 L 124.02 223.08 C 125.27 223.08 126.28 222.07 126.28 220.82 C 126.28 219.57 125.27 218.56 124.02 218.56 L 123.11 218.56 C 121.86 218.56 120.85 219.57 120.85 220.82 C 120.85 222.07 121.86 223.08 123.11 223.08 Z M 124.02 223.08 L 125.01 223.08 C 126.26 223.08 127.27 222.07 127.27 220.82 C 127.27 219.57 126.26 218.56 125.01 218.56 L 124.02 218.56 C 122.77 218.56 121.76 219.57 121.76 220.82 C 121.76 222.07 122.77 223.08 124.02 223.08 Z M 125.01 223.08 L 126.02 223.08 C 127.27 223.08 128.28 222.07 128.28 220.82 C 128.28 219.57 127.27 218.56 126.02 218.56 L 125.01 218.56 C 123.77 218.56 122.75 219.57 122.75 220.82 C 122.75 222.07 123.77 223.08 125.01 223.08 Z M 126.02 223.08 L 127.03 223.08 C 128.28 223.08 129.29 222.07 129.29 220.82 C 129.29 219.57 128.28 218.56 127.03 218.56 L 126.02 218.56 C 124.77 218.56 123.76 219.57 123.76 220.82 C 123.76 222.07 124.77 223.08 126.02 223.08 Z M 127.03 223.08 L 128.04 223.08 C 129.28 223.08 130.30 222.07 130.30 220.82 C 130.30 219.57 129.28 218.56 128.04 218.56 L 127.03 218.56 C 125.78 218.56 124.77 219.57 124.77 220.82 C 124.77 222.07 125.78 223.08 127.03 223.08 Z M 128.04 223.09 L 129.03 223.09 C 130.29 223.09 131.30 222.07 131.30 220.82 C 131.30 219.57 130.29 218.56 129.03 218.56 L 128.04 218.56 C 126.78 218.56 125.77 219.57 125.77 220.82 C 125.77 222.07 126.78 223.09 128.04 223.09 Z M 129.03 223.09 L 130.03 223.09 C 131.29 223.09 132.30 222.08 132.30 220.82 C 132.30 219.57 131.29 218.55 130.03 218.55 L 129.03 218.55 C 127.78 218.55 126.76 219.57 126.76 220.82 C 126.76 222.08 127.78 223.09 129.03 223.09 Z M 130.03 223.10 L 131.03 223.10 C 132.29 223.10 133.31 222.08 133.31 220.82 C 133.31 219.56 132.29 218.54 131.03 218.54 L 130.03 218.54 C 128.77 218.54 127.75 219.56 127.75 220.82 C 127.75 222.08 128.77 223.10 130.03 223.10 Z M 131.03 223.10 L 132.03 223.10 C 133.28 223.10 134.31 222.08 134.31 220.82 C 134.31 219.56 133.28 218.54 132.03 218.54 L 131.03 218.54 C 129.77 218.54 128.75 219.56 128.75 220.82 C 128.75 222.08 129.77 223.10 131.03 223.10 Z M 132.03 223.10 L 133.02 223.10 C 134.28 223.10 135.30 222.08 135.30 220.82 C 135.30 219.56 134.28 218.54 133.02 218.54 L 132.03 218.54 C 130.77 218.54 129.75 219.56 129.75 220.82 C 129.75 222.08 130.77 223.10 132.03 223.10 Z M 133.02 223.10 L 134.03 223.10 C 135.29 223.10 136.31 222.08 136.31 220.82 C 136.31 219.56 135.29 218.54 134.03 218.54 L 133.02 218.54 C 131.77 218.54 130.75 219.56 130.75 220.82 C 130.75 222.08 131.77 223.10 133.02 223.10 Z M 134.03 223.10 L 135.04 223.10 C 136.29 223.10 137.31 222.08 137.31 220.82 C 137.31 219.56 136.29 218.54 135.04 218.54 L 134.03 218.54 C 132.77 218.54 131.75 219.56 131.75 220.82 C 131.75 222.08 132.77 223.10 134.03 223.10 Z M 135.04 223.10 L 136.04 223.10 C 137.30 223.10 138.32 222.08 138.32 220.82 C 138.32 219.56 137.30 218.54 136.04 218.54 L 135.03 218.54 C 133.78 218.54 132.76 219.56 132.76 220.82 C 132.76 222.08 133.78 223.10 135.04 223.10 Z M 136.05 223.10 L 137.05 223.10 C 138.31 223.09 139.33 222.07 139.32 220.81 C 139.32 219.55 138.29 218.53 137.03 218.54 L 136.03 218.54 C 134.77 218.55 133.76 219.57 133.76 220.83 C 133.77 222.09 134.79 223.10 136.05 223.10 Z M 137.07 223.10 L 138.06 223.09 C 139.32 223.07 140.33 222.04 140.32 220.78 C 140.31 219.52 139.28 218.51 138.02 218.53 L 137.02 218.54 C 135.76 218.55 134.75 219.58 134.76 220.84 C 134.78 222.10 135.81 223.11 137.07 223.10 Z M 138.08 223.09 L 139.08 223.07 C 140.34 223.04 141.34 222.00 141.32 220.74 C 141.29 219.48 140.25 218.48 138.99 218.51 L 138.00 218.53 C 136.74 218.55 135.74 219.59 135.76 220.85 C 135.78 222.11 136.82 223.11 138.08 223.09 Z M 139.10 223.07 L 140.11 223.04 C 141.37 223.01 142.37 221.95 142.33 220.69 C 142.29 219.43 141.24 218.44 139.98 218.47 L 138.97 218.50 C 137.71 218.54 136.71 219.59 136.75 220.85 C 136.79 222.12 137.84 223.11 139.10 223.07 Z M 140.13 223.05 L 141.12 223.02 C 142.39 222.97 143.38 221.91 143.33 220.64 C 143.29 219.37 142.22 218.38 140.96 218.43 L 139.96 218.46 C 138.69 218.51 137.70 219.57 137.75 220.84 C 137.79 222.11 138.86 223.10 140.13 223.05 Z M 141.13 223.02 L 142.13 222.98 C 143.40 222.93 144.39 221.86 144.34 220.59 C 144.29 219.32 143.21 218.33 141.94 218.38 L 140.95 218.42 C 139.68 218.47 138.69 219.54 138.74 220.82 C 138.79 222.09 139.86 223.08 141.13 223.02 Z M 142.13 222.99 L 143.11 222.95 C 144.39 222.90 145.38 221.82 145.33 220.54 C 145.28 219.27 144.20 218.28 142.92 218.33 L 141.94 218.37 C 140.66 218.42 139.67 219.50 139.72 220.78 C 139.78 222.05 140.85 223.05 142.13 222.99 Z M 143.11 222.96 L 144.10 222.92 C 145.38 222.87 146.37 221.78 146.32 220.50 C 146.27 219.22 145.19 218.23 143.91 218.28 L 142.92 218.32 C 141.64 218.38 140.65 219.46 140.70 220.74 C 140.75 222.02 141.83 223.01 143.11 222.96 Z M 144.10 222.93 L 145.10 222.88 C 146.38 222.83 147.38 221.75 147.33 220.46 C 147.27 219.18 146.19 218.18 144.91 218.23 L 143.91 218.28 C 142.62 218.33 141.63 219.41 141.68 220.70 C 141.73 221.98 142.81 222.98 144.10 222.93 Z M 145.09 222.89 L 146.12 222.85 C 147.40 222.80 148.41 221.71 148.36 220.43 C 148.30 219.14 147.22 218.14 145.93 218.19 L 144.91 218.23 C 143.62 218.28 142.62 219.36 142.67 220.65 C 142.72 221.94 143.81 222.94 145.09 222.89 Z M 146.11 222.86 L 147.13 222.82 C 148.42 222.77 149.42 221.68 149.37 220.39 C 149.32 219.10 148.24 218.09 146.95 218.14 L 145.93 218.18 C 144.64 218.23 143.64 219.32 143.69 220.61 C 143.74 221.90 144.82 222.91 146.11 222.86 Z M 147.12 222.82 L 148.14 222.78 C 149.43 222.74 150.44 221.65 150.40 220.36 C 150.35 219.07 149.26 218.06 147.97 218.10 L 146.95 218.14 C 145.66 218.18 144.65 219.27 144.70 220.56 C 144.74 221.86 145.83 222.87 147.12 222.82 Z M 148.13 222.79 L 149.13 222.76 C 150.43 222.71 151.45 221.63 151.40 220.34 C 151.36 219.04 150.28 218.03 148.99 218.07 L 147.98 218.10 C 146.69 218.14 145.67 219.22 145.71 220.52 C 145.75 221.81 146.83 222.83 148.13 222.79 Z M 149.12 222.76 L 150.09 222.73 C 151.39 222.70 152.41 221.62 152.38 220.33 C 152.34 219.03 151.27 218.00 149.97 218.04 L 149.00 218.06 C 147.70 218.10 146.68 219.17 146.71 220.47 C 146.74 221.77 147.82 222.79 149.12 222.76 Z M 150.07 222.74 L 151.11 222.72 C 152.41 222.70 153.45 221.63 153.42 220.33 C 153.40 219.03 152.33 218.00 151.03 218.02 L 149.99 218.03 C 148.69 218.06 147.66 219.13 147.68 220.42 C 147.70 221.72 148.77 222.76 150.07 222.74 Z M 151.09 222.72 L 152.09 222.72 C 153.39 222.71 154.43 221.64 154.42 220.34 C 154.41 219.04 153.35 218.00 152.05 218.01 L 151.05 218.01 C 149.75 218.02 148.71 219.09 148.72 220.39 C 148.73 221.69 149.79 222.73 151.09 222.72 Z M 152.07 222.72 L 153.05 222.72 C 154.35 222.71 155.40 221.66 155.40 220.35 C 155.40 219.05 154.34 218.00 153.04 218.00 L 152.07 218.00 C 150.76 218.01 149.71 219.06 149.71 220.37 C 149.72 221.67 150.77 222.72 152.07 222.72 Z M 153.04 222.72 L 154.02 222.72 C 155.32 222.72 156.38 221.66 156.38 220.36 C 156.38 219.06 155.32 218.00 154.02 218.00 L 153.04 218.00 C 151.74 218.00 150.68 219.06 150.68 220.36 C 150.68 221.66 151.74 222.72 153.04 222.72 Z M 154.02 222.72 L 155.02 222.72 C 156.32 222.72 157.37 221.66 157.37 220.36 C 157.37 219.06 156.32 218.00 155.02 218.00 L 154.02 218.00 C 152.72 218.00 151.66 219.06 151.66 220.36 C 151.66 221.66 152.72 222.72 154.02 222.72 Z M 155.02 222.71 L 156.02 222.71 C 157.32 222.71 158.37 221.66 158.37 220.36 C 158.37 219.06 157.32 218.01 156.02 218.01 L 155.02 218.01 C 153.72 218.01 152.66 219.06 152.66 220.36 C 152.66 221.66 153.72 222.71 155.02 222.71 Z M 156.02 222.71 L 157.03 222.71 C 158.32 222.71 159.38 221.66 159.38 220.36 C 159.38 219.06 158.32 218.01 157.03 218.01 L 156.02 218.01 C 154.72 218.01 153.67 219.06 153.67 220.36 C 153.67 221.66 154.72 222.71 156.02 222.71 Z M 157.03 222.71 L 158.03 222.71 C 159.32 222.71 160.38 221.66 160.38 220.36 C 160.38 219.06 159.32 218.01 158.03 218.01 L 157.03 218.01 C 155.73 218.01 154.68 219.06 154.68 220.36 C 154.68 221.66 155.73 222.71 157.03 222.71 Z M 158.03 222.71 L 159.03 222.71 C 160.32 222.71 161.37 221.66 161.37 220.36 C 161.37 219.06 160.32 218.01 159.03 218.01 L 158.03 218.01 C 156.73 218.01 155.68 219.06 155.68 220.36 C 155.68 221.66 156.73 222.71 158.03 222.71 Z M 159.03 222.70 L 160.03 222.70 C 161.32 222.70 162.37 221.65 162.37 220.36 C 162.37 219.07 161.32 218.02 160.03 218.02 L 159.03 218.02 C 157.73 218.02 156.68 219.07 156.68 220.36 C 156.68 221.65 157.73 222.70 159.03 222.70 Z M 160.03 222.70 L 161.03 222.70 C 162.32 222.70 163.37 221.65 163.37 220.36 C 163.37 219.07 162.32 218.02 161.03 218.02 L 160.03 218.02 C 158.73 218.02 157.69 219.07 157.69 220.36 C 157.68 221.65 158.73 222.70 160.03 222.70 Z M 161.02 222.70 L 162.02 222.70 C 163.31 222.71 164.36 221.66 164.36 220.37 C 164.37 219.08 163.33 218.03 162.03 218.02 L 161.03 218.02 C 159.74 218.02 158.69 219.06 158.69 220.35 C 158.68 221.64 159.73 222.69 161.02 222.70 Z M 162.00 222.70 L 163.00 222.71 C 164.29 222.72 165.35 221.69 165.36 220.40 C 165.38 219.11 164.34 218.05 163.05 218.04 L 162.05 218.03 C 160.76 218.01 159.70 219.05 159.69 220.34 C 159.67 221.63 160.71 222.69 162.00 222.70 Z M 162.98 222.71 L 163.96 222.73 C 165.25 222.76 166.32 221.73 166.35 220.44 C 166.38 219.15 165.35 218.09 164.06 218.06 L 163.08 218.04 C 161.79 218.01 160.72 219.03 160.69 220.32 C 160.66 221.61 161.69 222.68 162.98 222.71 Z M 163.93 222.73 L 164.91 222.76 C 166.20 222.81 167.28 221.80 167.32 220.51 C 167.37 219.22 166.36 218.14 165.07 218.09 L 164.10 218.06 C 162.81 218.01 161.72 219.02 161.68 220.31 C 161.63 221.60 162.64 222.68 163.93 222.73 Z M 164.87 222.76 L 165.86 222.82 C 167.15 222.88 168.25 221.89 168.32 220.61 C 168.39 219.32 167.40 218.22 166.11 218.15 L 165.11 218.10 C 163.82 218.03 162.72 219.02 162.65 220.31 C 162.59 221.60 163.58 222.70 164.87 222.76 Z M 165.82 222.82 L 166.85 222.89 C 168.14 222.98 169.26 222.01 169.35 220.72 C 169.44 219.43 168.47 218.32 167.18 218.22 L 166.15 218.15 C 164.86 218.06 163.74 219.03 163.65 220.32 C 163.56 221.60 164.53 222.72 165.82 222.82 Z M 166.81 222.89 L 167.80 222.98 C 169.09 223.09 170.23 222.14 170.35 220.85 C 170.46 219.57 169.51 218.43 168.22 218.31 L 167.22 218.22 C 165.94 218.11 164.80 219.06 164.68 220.35 C 164.57 221.64 165.52 222.77 166.81 222.89 Z M 167.77 222.98 L 168.78 223.09 C 170.07 223.22 171.23 222.28 171.36 220.99 C 171.49 219.69 170.55 218.54 169.26 218.41 L 168.25 218.31 C 166.96 218.18 165.80 219.12 165.67 220.41 C 165.54 221.70 166.48 222.85 167.77 222.98 Z M 168.77 223.09 L 169.77 223.20 C 171.07 223.34 172.23 222.40 172.37 221.11 C 172.51 219.81 171.57 218.65 170.28 218.51 L 169.27 218.40 C 167.98 218.26 166.81 219.20 166.68 220.50 C 166.54 221.79 167.47 222.95 168.77 223.09 Z M 169.77 223.21 L 170.75 223.31 C 172.05 223.45 173.22 222.51 173.36 221.22 C 173.50 219.92 172.56 218.75 171.26 218.61 L 170.28 218.50 C 168.98 218.36 167.81 219.30 167.67 220.60 C 167.53 221.90 168.47 223.07 169.77 223.21 Z M 170.76 223.32 L 171.80 223.43 C 173.10 223.57 174.27 222.62 174.40 221.31 C 174.54 220.01 173.59 218.84 172.29 218.71 L 171.25 218.60 C 169.95 218.46 168.78 219.41 168.65 220.72 C 168.51 222.02 169.46 223.19 170.76 223.32 Z M 171.80 223.44 L 172.78 223.54 C 174.09 223.68 175.27 222.73 175.40 221.42 C 175.54 220.11 174.59 218.94 173.28 218.80 L 172.29 218.70 C 170.98 218.56 169.81 219.51 169.67 220.82 C 169.53 222.13 170.49 223.30 171.80 223.44 Z M 172.77 223.55 L 173.73 223.66 C 175.05 223.80 176.23 222.85 176.37 221.54 C 176.52 220.23 175.57 219.04 174.26 218.90 L 173.29 218.79 C 171.98 218.65 170.80 219.60 170.65 220.91 C 170.51 222.22 171.45 223.41 172.77 223.55 Z M 173.70 223.66 L 174.68 223.78 C 176.00 223.94 177.19 223.01 177.36 221.69 C 177.52 220.37 176.58 219.17 175.26 219.01 L 174.28 218.89 C 172.97 218.73 171.77 219.67 171.61 220.99 C 171.45 222.30 172.38 223.50 173.70 223.66 Z M 174.65 223.79 L 175.64 223.92 C 176.96 224.10 178.17 223.17 178.35 221.85 C 178.52 220.52 177.60 219.31 176.27 219.14 L 175.29 219.00 C 173.97 218.83 172.75 219.76 172.58 221.08 C 172.40 222.40 173.33 223.61 174.65 223.79 Z M 175.62 223.93 L 176.62 224.07 C 177.94 224.25 179.17 223.33 179.35 222.00 C 179.54 220.67 178.61 219.45 177.28 219.26 L 176.29 219.13 C 174.96 218.94 173.74 219.87 173.55 221.20 C 173.37 222.52 174.30 223.75 175.62 223.93 Z M 176.61 224.08 L 177.61 224.22 C 178.94 224.40 180.17 223.47 180.35 222.14 C 180.54 220.81 179.61 219.58 178.28 219.39 L 177.29 219.25 C 175.96 219.07 174.73 220.00 174.54 221.33 C 174.35 222.66 175.28 223.89 176.61 224.08 Z M 177.60 224.22 L 178.59 224.36 C 179.93 224.55 181.16 223.62 181.35 222.28 C 181.53 220.94 180.60 219.71 179.27 219.52 L 178.28 219.39 C 176.94 219.20 175.71 220.13 175.52 221.47 C 175.34 222.80 176.27 224.04 177.60 224.22 Z M 178.58 224.37 L 179.57 224.51 C 180.91 224.70 182.15 223.77 182.34 222.44 C 182.54 221.10 181.61 219.86 180.27 219.66 L 179.28 219.52 C 177.94 219.33 176.70 220.25 176.50 221.59 C 176.31 222.93 177.24 224.17 178.58 224.37 Z M 179.55 224.51 L 180.54 224.67 C 181.88 224.87 183.14 223.95 183.34 222.61 C 183.55 221.27 182.63 220.02 181.29 219.81 L 180.29 219.66 C 178.95 219.45 177.70 220.37 177.49 221.71 C 177.29 223.05 178.21 224.31 179.55 224.51 Z M 180.51 224.66 L 181.50 224.83 C 182.84 225.05 184.11 224.15 184.33 222.81 C 184.55 221.47 183.65 220.20 182.31 219.98 L 181.32 219.82 C 179.98 219.59 178.72 220.50 178.49 221.84 C 178.27 223.17 179.17 224.44 180.51 224.66 Z M 181.47 224.82 L 182.46 225.00 C 183.79 225.24 185.07 224.35 185.31 223.02 C 185.55 221.68 184.66 220.41 183.33 220.17 L 182.34 219.99 C 181.01 219.75 179.73 220.63 179.49 221.97 C 179.25 223.30 180.14 224.58 181.47 224.82 Z M 182.42 224.99 L 183.40 225.18 C 184.73 225.44 186.02 224.57 186.28 223.24 C 186.54 221.91 185.67 220.62 184.34 220.37 L 183.36 220.17 C 182.03 219.91 180.75 220.78 180.49 222.11 C 180.23 223.44 181.09 224.73 182.42 224.99 Z M 183.37 225.17 L 184.33 225.37 C 185.66 225.65 186.96 224.81 187.24 223.48 C 187.52 222.16 186.67 220.86 185.35 220.58 L 184.38 220.38 C 183.05 220.10 181.75 220.94 181.47 222.27 C 181.20 223.59 182.04 224.89 183.37 225.17 Z M 184.31 225.37 L 185.28 225.58 C 186.60 225.87 187.90 225.03 188.19 223.72 C 188.49 222.40 187.65 221.09 186.33 220.80 L 185.37 220.59 C 184.05 220.30 182.74 221.13 182.45 222.45 C 182.16 223.77 182.99 225.08 184.31 225.37 Z M 185.29 225.57 L 186.26 225.79 C 187.58 226.08 188.88 225.24 189.17 223.92 C 189.46 222.61 188.62 221.30 187.30 221.02 L 186.33 220.80 C 185.01 220.52 183.71 221.35 183.42 222.67 C 183.13 223.99 183.97 225.29 185.29 225.57 Z M 186.29 225.79 L 187.27 225.99 C 188.59 226.26 189.88 225.41 190.15 224.09 C 190.42 222.78 189.57 221.49 188.25 221.22 L 187.27 221.02 C 185.96 220.75 184.67 221.59 184.40 222.91 C 184.13 224.23 184.98 225.52 186.29 225.79 Z M 187.31 225.99 L 188.23 226.16 C 189.55 226.41 190.82 225.54 191.07 224.22 C 191.32 222.91 190.45 221.64 189.13 221.39 L 188.21 221.22 C 186.89 220.97 185.62 221.84 185.37 223.15 C 185.13 224.47 185.99 225.74 187.31 225.99 Z M 188.26 226.16 L 189.23 226.33 C 190.54 226.56 191.80 225.68 192.03 224.36 C 192.26 223.05 191.38 221.79 190.06 221.56 L 189.10 221.39 C 187.78 221.16 186.53 222.04 186.30 223.36 C 186.07 224.68 186.95 225.93 188.26 226.16 Z M 189.25 226.32 L 190.28 226.49 C 191.59 226.71 192.83 225.82 193.05 224.51 C 193.27 223.20 192.38 221.96 191.07 221.74 L 190.04 221.57 C 188.73 221.35 187.49 222.24 187.27 223.55 C 187.05 224.86 187.94 226.10 189.25 226.32 Z M 190.29 226.49 L 191.33 226.65 C 192.64 226.86 193.87 225.97 194.08 224.67 C 194.29 223.36 193.40 222.12 192.09 221.91 L 191.05 221.75 C 189.74 221.53 188.51 222.42 188.30 223.73 C 188.09 225.04 188.98 226.27 190.29 226.49 Z M 191.34 226.64 L 192.33 226.80 C 193.63 227.01 194.85 226.12 195.06 224.81 C 195.27 223.51 194.38 222.29 193.07 222.08 L 192.09 221.92 C 190.78 221.72 189.56 222.60 189.35 223.91 C 189.14 225.21 190.03 226.44 191.34 226.64 Z M 192.33 226.79 L 193.34 226.95 C 194.64 227.15 195.86 226.26 196.06 224.96 C 196.26 223.67 195.38 222.45 194.08 222.25 L 193.07 222.09 C 191.77 221.89 190.55 222.77 190.35 224.07 C 190.15 225.37 191.03 226.59 192.33 226.79 Z M 193.35 226.94 L 194.36 227.09 C 195.65 227.29 196.86 226.40 197.06 225.11 C 197.26 223.82 196.37 222.61 195.07 222.41 L 194.07 222.25 C 192.77 222.06 191.57 222.95 191.37 224.24 C 191.17 225.53 192.06 226.74 193.35 226.94 Z M 194.37 227.08 L 195.34 227.23 C 196.63 227.42 197.83 226.53 198.02 225.24 C 198.21 223.95 197.32 222.75 196.03 222.56 L 195.06 222.42 C 193.77 222.23 192.57 223.11 192.38 224.40 C 192.19 225.69 193.08 226.89 194.37 227.08 Z M 195.35 227.22 L 196.35 227.37 C 197.64 227.55 198.83 226.66 199.01 225.37 C 199.20 224.08 198.30 222.89 197.02 222.71 L 196.02 222.57 C 194.73 222.38 193.54 223.28 193.36 224.56 C 193.17 225.85 194.07 227.04 195.35 227.22 Z M 196.39 227.37 L 197.36 227.49 C 198.65 227.66 199.82 226.75 199.99 225.46 C 200.15 224.18 199.25 223.00 197.96 222.84 L 196.99 222.71 C 195.70 222.54 194.52 223.45 194.36 224.74 C 194.19 226.02 195.10 227.20 196.39 227.37 Z M 197.41 227.50 L 198.38 227.60 C 199.67 227.73 200.82 226.80 200.96 225.51 C 201.10 224.23 200.16 223.07 198.88 222.94 L 197.91 222.83 C 196.62 222.70 195.46 223.63 195.33 224.92 C 195.19 226.20 196.12 227.36 197.41 227.50 Z M 198.45 227.60 L 199.45 227.68 C 200.74 227.78 201.87 226.81 201.97 225.52 C 202.07 224.24 201.10 223.11 199.81 223.01 L 198.81 222.93 C 197.52 222.83 196.39 223.80 196.29 225.09 C 196.19 226.38 197.16 227.50 198.45 227.60 Z M 199.53 227.68 L 200.71 227.73 C 202.00 227.79 203.09 226.79 203.15 225.50 C 203.21 224.21 202.20 223.11 200.91 223.06 L 199.74 223.01 C 198.45 222.95 197.35 223.95 197.30 225.24 C 197.24 226.53 198.24 227.63 199.53 227.68 Z M 200.82 227.74 L 202.01 227.73 C 203.30 227.72 204.34 226.67 204.34 225.38 C 204.33 224.08 203.27 223.04 201.98 223.05 L 200.80 223.05 C 199.51 223.06 198.46 224.12 198.47 225.41 C 198.48 226.70 199.53 227.74 200.82 227.74 Z M 202.24 227.72 L 203.19 227.62 C 204.48 227.49 205.42 226.34 205.28 225.05 C 205.15 223.76 204.00 222.83 202.71 222.96 L 201.75 223.06 C 200.47 223.19 199.53 224.34 199.66 225.63 C 199.80 226.92 200.95 227.85 202.24 227.72 Z M 203.88 227.44 L 204.43 227.20 C 205.62 226.69 206.16 225.31 205.65 224.12 C 205.13 222.94 203.76 222.39 202.57 222.91 L 202.02 223.14 C 200.84 223.66 200.29 225.03 200.81 226.22 C 201.32 227.41 202.70 227.95 203.88 227.44 Z M 205.76 224.61 L 205.65 224.07 C 205.40 222.82 204.19 222.01 202.95 222.26 C 201.70 222.50 200.89 223.71 201.14 224.96 L 201.24 225.50 C 201.49 226.74 202.70 227.55 203.95 227.31 C 205.19 227.06 206.00 225.85 205.76 224.61 Z M 205.11 223.09 L 204.41 222.25 C 203.62 221.30 202.22 221.17 201.27 221.96 C 200.33 222.75 200.20 224.15 200.98 225.10 L 201.68 225.94 C 202.47 226.88 203.87 227.01 204.82 226.23 C 205.76 225.44 205.89 224.03 205.11 223.09 Z M 204.37 222.33 L 203.62 221.39 C 202.87 220.46 201.52 220.31 200.59 221.05 C 199.67 221.79 199.52 223.15 200.26 224.07 L 201.02 225.02 C 201.76 225.95 203.11 226.10 204.04 225.35 C 204.97 224.61 205.12 223.26 204.37 222.33 Z M 203.64 221.58 L 203.13 220.82 C 202.49 219.87 201.22 219.62 200.28 220.26 C 199.33 220.89 199.08 222.17 199.72 223.11 L 200.23 223.88 C 200.87 224.82 202.15 225.07 203.09 224.44 C 204.03 223.80 204.28 222.52 203.64 221.58 Z M 203.09 220.95 L 202.58 220.11 C 202.02 219.19 200.82 218.89 199.90 219.45 C 198.98 220.01 198.69 221.20 199.24 222.13 L 199.75 222.97 C 200.31 223.89 201.51 224.19 202.43 223.63 C 203.35 223.07 203.65 221.88 203.09 220.95 Z M 202.52 220.21 L 202.01 219.31 C 201.51 218.42 200.39 218.11 199.50 218.61 C 198.61 219.11 198.30 220.23 198.80 221.12 L 199.30 222.02 C 199.80 222.91 200.93 223.22 201.82 222.72 C 202.70 222.22 203.02 221.10 202.52 220.21 Z M 201.93 219.39 L 201.43 218.45 C 200.97 217.61 199.91 217.29 199.07 217.75 C 198.22 218.21 197.91 219.26 198.37 220.11 L 198.87 221.04 C 199.33 221.89 200.39 222.20 201.23 221.74 C 202.08 221.29 202.39 220.23 201.93 219.39 Z M 201.36 218.50 L 201.12 218.04 C 200.68 217.23 199.68 216.92 198.87 217.36 C 198.06 217.79 197.75 218.79 198.19 219.60 L 198.43 220.06 C 198.86 220.87 199.87 221.18 200.68 220.74 C 201.49 220.31 201.79 219.31 201.36 218.50 Z"
      fill="black"
      fill-rule="nonzero" /></svg>