<svg xmlns="http://www.w3.org/2000/svg" width="300" height="300" viewBox="0 0 300 300">
<path d="M 118.04 85.02 L 118.27 85.86 C 118.56 86.90 119.64 87.50 120.67 87.21 C 121.71 86.92 122.31 85.85 122.02 84.81 L 121.79 83.97 C 121.50 82.94 120.42 82.33 119.39 82.62 C 118.35 82.91 117.75 83.99 118.04 85.02 Z M 118.27 85.93 L 118.55 86.81 C 118.88 87.84 119.99 88.42 121.02 88.09 C 122.05 87.76 122.63 86.65 122.30 85.62 L 122.02 84.74 C 121.69 83.71 120.59 83.14 119.55 83.46 C 118.52 83.79 117.94 84.90 118.27 85.93 Z M 118.57 86.93 L 118.94 87.88 C 119.33 88.90 120.48 89.41 121.50 89.02 C 122.53 88.62 123.04 87.47 122.64 86.45 L 122.28 85.50 C 121.88 84.48 120.73 83.97 119.71 84.36 C 118.69 84.76 118.18 85.90 118.57 86.93 Z M 118.98 88.01 L 119.47 89.07 C 119.94 90.08 121.14 90.51 122.14 90.04 C 123.14 89.57 123.57 88.38 123.10 87.37 L 122.60 86.31 C 122.14 85.31 120.94 84.88 119.94 85.35 C 118.94 85.82 118.51 87.01 118.98 88.01 Z M 119.51 89.19 L 119.97 90.04 C 120.50 91.02 121.73 91.38 122.71 90.85 C 123.69 90.32 124.06 89.10 123.53 88.11 L 123.07 87.26 C 122.53 86.28 121.31 85.92 120.33 86.45 C 119.34 86.98 118.98 88.20 119.51 89.19 Z M 119.99 90.10 L 120.50 90.98 C 121.07 91.95 122.32 92.28 123.29 91.71 C 124.26 91.14 124.59 89.90 124.02 88.93 L 123.51 88.05 C 122.94 87.08 121.69 86.75 120.72 87.32 C 119.75 87.89 119.42 89.13 119.99 90.10 Z M 120.51 91.03 L 121.06 91.92 C 121.66 92.89 122.92 93.19 123.89 92.60 C 124.85 92.00 125.15 90.74 124.56 89.77 L 124.01 88.88 C 123.42 87.91 122.15 87.61 121.19 88.21 C 120.22 88.80 119.92 90.06 120.51 91.03 Z M 121.07 91.96 L 121.63 92.84 C 122.24 93.80 123.52 94.09 124.48 93.47 C 125.45 92.86 125.73 91.58 125.12 90.62 L 124.56 89.74 C 123.94 88.78 122.67 88.49 121.70 89.10 C 120.74 89.72 120.46 90.99 121.07 91.96 Z M 121.63 92.86 L 122.17 93.70 C 122.80 94.66 124.08 94.94 125.05 94.31 C 126.01 93.69 126.29 92.40 125.66 91.43 L 125.12 90.60 C 124.49 89.63 123.20 89.36 122.24 89.98 C 121.27 90.61 121.00 91.90 121.63 92.86 Z M 122.16 93.71 L 122.69 94.53 C 123.33 95.50 124.63 95.77 125.60 95.13 C 126.57 94.50 126.84 93.20 126.20 92.23 L 125.67 91.42 C 125.04 90.45 123.74 90.18 122.77 90.81 C 121.80 91.45 121.53 92.75 122.16 93.71 Z M 122.69 94.53 L 123.27 95.43 C 123.91 96.40 125.21 96.68 126.19 96.04 C 127.16 95.41 127.43 94.10 126.80 93.13 L 126.21 92.23 C 125.58 91.26 124.27 90.98 123.30 91.62 C 122.32 92.25 122.05 93.56 122.69 94.53 Z M 123.27 95.43 L 123.79 96.23 C 124.42 97.21 125.73 97.49 126.70 96.85 C 127.68 96.22 127.96 94.92 127.33 93.94 L 126.81 93.13 C 126.17 92.16 124.87 91.88 123.89 92.51 C 122.91 93.14 122.63 94.45 123.27 95.43 Z M 123.78 96.23 L 124.28 97.01 C 124.91 97.99 126.22 98.28 127.20 97.65 C 128.19 97.02 128.47 95.71 127.84 94.73 L 127.34 93.94 C 126.71 92.96 125.40 92.68 124.42 93.31 C 123.43 93.94 123.15 95.24 123.78 96.23 Z M 124.28 97.01 L 124.81 97.85 C 125.44 98.83 126.75 99.12 127.73 98.50 C 128.72 97.87 129.01 96.56 128.38 95.58 L 127.85 94.74 C 127.22 93.75 125.91 93.46 124.93 94.09 C 123.94 94.71 123.65 96.02 124.28 97.01 Z M 124.80 97.84 L 125.30 98.63 C 125.92 99.62 127.23 99.92 128.22 99.29 C 129.21 98.67 129.51 97.36 128.89 96.37 L 128.39 95.58 C 127.77 94.59 126.46 94.29 125.46 94.92 C 124.47 95.54 124.18 96.85 124.80 97.84 Z M 125.29 98.63 L 125.82 99.47 C 126.44 100.47 127.76 100.77 128.75 100.14 C 129.75 99.52 130.05 98.21 129.42 97.21 L 128.89 96.37 C 128.27 95.37 126.96 95.07 125.96 95.70 C 124.97 96.32 124.67 97.63 125.29 98.63 Z M 125.81 99.47 L 126.36 100.34 C 126.98 101.34 128.29 101.65 129.29 101.03 C 130.29 100.41 130.60 99.10 129.98 98.10 L 129.43 97.22 C 128.81 96.22 127.50 95.91 126.50 96.53 C 125.50 97.15 125.19 98.47 125.81 99.47 Z M 126.35 100.34 L 126.89 101.22 C 127.51 102.23 128.82 102.54 129.83 101.92 C 130.83 101.31 131.15 99.99 130.53 98.98 L 129.99 98.10 C 129.37 97.10 128.05 96.78 127.05 97.40 C 126.04 98.02 125.73 99.33 126.35 100.34 Z M 126.88 101.21 L 127.40 102.08 C 128.01 103.09 129.33 103.41 130.34 102.80 C 131.35 102.18 131.68 100.87 131.06 99.85 L 130.54 98.99 C 129.93 97.98 128.61 97.66 127.60 98.27 C 126.59 98.89 126.26 100.20 126.88 101.21 Z M 127.39 102.06 L 127.89 102.91 C 128.50 103.93 129.82 104.27 130.84 103.66 C 131.86 103.05 132.19 101.73 131.58 100.72 L 131.08 99.87 C 130.47 98.85 129.15 98.51 128.13 99.12 C 127.11 99.73 126.78 101.04 127.39 102.06 Z M 127.88 102.90 L 128.36 103.72 C 128.96 104.75 130.28 105.10 131.30 104.50 C 132.33 103.90 132.68 102.58 132.08 101.56 L 131.60 100.73 C 131.00 99.70 129.68 99.36 128.65 99.95 C 127.63 100.55 127.28 101.87 127.88 102.90 Z M 128.35 103.71 L 128.82 104.54 C 129.42 105.58 130.73 105.94 131.77 105.35 C 132.80 104.75 133.16 103.44 132.57 102.40 L 132.09 101.57 C 131.50 100.54 130.18 100.18 129.15 100.77 C 128.12 101.36 127.76 102.68 128.35 103.71 Z M 128.81 104.53 L 129.31 105.41 C 129.89 106.45 131.21 106.82 132.25 106.23 C 133.29 105.65 133.66 104.33 133.07 103.29 L 132.58 102.41 C 131.99 101.37 130.68 101.01 129.64 101.59 C 128.60 102.18 128.23 103.49 128.81 104.53 Z M 129.30 105.41 L 129.82 106.35 C 130.41 107.39 131.73 107.77 132.77 107.19 C 133.81 106.60 134.19 105.28 133.61 104.24 L 133.08 103.30 C 132.50 102.25 131.18 101.88 130.14 102.46 C 129.09 103.04 128.72 104.36 129.30 105.41 Z M 129.82 106.35 L 130.27 107.17 C 130.86 108.22 132.18 108.59 133.22 108.01 C 134.27 107.43 134.65 106.11 134.07 105.06 L 133.61 104.24 C 133.03 103.19 131.71 102.82 130.66 103.40 C 129.62 103.98 129.24 105.30 129.82 106.35 Z M 130.27 107.17 L 130.75 108.04 C 131.33 109.09 132.65 109.47 133.70 108.89 C 134.75 108.31 135.13 106.99 134.55 105.94 L 134.07 105.07 C 133.49 104.01 132.17 103.63 131.12 104.21 C 130.07 104.79 129.69 106.11 130.27 107.17 Z M 130.74 108.03 L 131.24 108.93 C 131.81 109.99 133.14 110.37 134.19 109.79 C 135.25 109.22 135.63 107.89 135.05 106.84 L 134.56 105.94 C 133.98 104.88 132.66 104.50 131.60 105.08 C 130.55 105.66 130.16 106.98 130.74 108.03 Z M 131.23 108.93 L 131.73 109.84 C 132.30 110.90 133.63 111.29 134.68 110.71 C 135.74 110.13 136.13 108.81 135.56 107.75 L 135.06 106.84 C 134.48 105.78 133.16 105.39 132.10 105.97 C 131.04 106.55 130.65 107.87 131.23 108.93 Z M 131.72 109.83 L 132.21 110.73 C 132.78 111.80 134.10 112.19 135.16 111.62 C 136.23 111.04 136.62 109.72 136.05 108.66 L 135.56 107.76 C 134.99 106.70 133.66 106.30 132.60 106.87 C 131.54 107.45 131.15 108.77 131.72 109.83 Z M 132.20 110.73 L 132.66 111.60 C 133.23 112.67 134.56 113.07 135.62 112.50 C 136.69 111.93 137.09 110.61 136.52 109.54 L 136.06 108.67 C 135.49 107.60 134.16 107.20 133.10 107.77 C 132.03 108.34 131.63 109.66 132.20 110.73 Z M 132.65 111.59 L 133.16 112.55 C 133.72 113.62 135.05 114.04 136.12 113.47 C 137.19 112.91 137.60 111.58 137.04 110.51 L 136.53 109.55 C 135.97 108.48 134.64 108.07 133.57 108.63 C 132.50 109.19 132.09 110.52 132.65 111.59 Z M 133.15 112.54 L 133.63 113.46 C 134.19 114.54 135.51 114.96 136.58 114.40 C 137.66 113.85 138.08 112.53 137.53 111.45 L 137.05 110.53 C 136.49 109.45 135.17 109.03 134.09 109.59 C 133.02 110.14 132.60 111.46 133.15 112.54 Z M 133.62 113.45 L 134.07 114.33 C 134.62 115.41 135.94 115.85 137.02 115.30 C 138.10 114.75 138.53 113.43 137.98 112.35 L 137.53 111.46 C 136.99 110.38 135.66 109.95 134.58 110.50 C 133.50 111.05 133.07 112.37 133.62 113.45 Z M 134.06 114.32 L 134.49 115.18 C 135.03 116.26 136.35 116.70 137.44 116.16 C 138.52 115.62 138.96 114.30 138.42 113.21 L 137.99 112.36 C 137.45 111.27 136.13 110.83 135.04 111.38 C 133.96 111.92 133.52 113.24 134.06 114.32 Z M 134.48 115.17 L 134.90 116.01 C 135.44 117.10 136.76 117.55 137.85 117.01 C 138.94 116.47 139.38 115.15 138.84 114.06 L 138.43 113.22 C 137.89 112.13 136.57 111.69 135.48 112.22 C 134.39 112.76 133.95 114.08 134.48 115.17 Z M 134.90 116.01 L 135.33 116.88 C 135.86 117.97 137.18 118.42 138.27 117.89 C 139.36 117.35 139.81 116.03 139.28 114.94 L 138.85 114.07 C 138.31 112.98 136.99 112.53 135.90 113.06 C 134.81 113.60 134.36 114.92 134.90 116.01 Z M 135.32 116.87 L 135.76 117.77 C 136.29 118.86 137.61 119.31 138.70 118.78 C 139.79 118.25 140.25 116.93 139.71 115.84 L 139.28 114.95 C 138.75 113.85 137.43 113.40 136.34 113.93 C 135.24 114.47 134.79 115.78 135.32 116.87 Z M 135.76 117.76 L 136.19 118.66 C 136.72 119.75 138.03 120.21 139.13 119.68 C 140.22 119.15 140.68 117.84 140.15 116.74 L 139.72 115.85 C 139.19 114.75 137.87 114.29 136.78 114.82 C 135.68 115.35 135.23 116.67 135.76 117.76 Z M 136.19 118.65 L 136.62 119.56 C 137.15 120.65 138.46 121.12 139.56 120.59 C 140.65 120.06 141.11 118.75 140.59 117.65 L 140.15 116.75 C 139.63 115.65 138.31 115.19 137.22 115.72 C 136.12 116.25 135.66 117.56 136.19 118.65 Z M 136.62 119.55 L 137.06 120.47 C 137.58 121.56 138.89 122.03 139.99 121.50 C 141.08 120.98 141.55 119.67 141.02 118.57 L 140.59 117.66 C 140.07 116.56 138.75 116.10 137.66 116.62 C 136.56 117.15 136.10 118.46 136.62 119.55 Z M 137.05 120.46 L 137.47 121.34 C 137.99 122.43 139.30 122.90 140.40 122.38 C 141.49 121.86 141.96 120.55 141.44 119.45 L 141.03 118.58 C 140.51 117.48 139.20 117.01 138.10 117.53 C 137.00 118.05 136.53 119.36 137.05 120.46 Z M 137.47 121.33 L 137.88 122.20 C 138.39 123.30 139.70 123.77 140.80 123.26 C 141.90 122.74 142.37 121.43 141.85 120.33 L 141.44 119.46 C 140.93 118.36 139.62 117.89 138.52 118.41 C 137.42 118.92 136.95 120.23 137.47 121.33 Z M 137.87 122.19 L 138.29 123.08 C 138.80 124.18 140.10 124.66 141.20 124.15 C 142.31 123.64 142.78 122.33 142.27 121.23 L 141.86 120.34 C 141.35 119.24 140.04 118.76 138.94 119.27 C 137.84 119.78 137.36 121.09 137.87 122.19 Z M 138.28 123.07 L 138.70 123.99 C 139.21 125.09 140.51 125.58 141.61 125.07 C 142.72 124.57 143.20 123.26 142.70 122.16 L 142.28 121.24 C 141.77 120.14 140.47 119.66 139.36 120.16 C 138.26 120.66 137.78 121.97 138.28 123.07 Z M 138.69 123.98 L 139.12 124.92 C 139.62 126.03 140.92 126.52 142.03 126.03 C 143.13 125.53 143.63 124.23 143.13 123.12 L 142.70 122.17 C 142.20 121.07 140.90 120.57 139.80 121.07 C 138.69 121.57 138.20 122.87 138.69 123.98 Z M 139.12 124.91 L 139.53 125.85 C 140.02 126.96 141.32 127.46 142.43 126.97 C 143.54 126.48 144.04 125.18 143.55 124.07 L 143.13 123.14 C 142.64 122.03 141.35 121.52 140.24 122.01 C 139.13 122.51 138.63 123.80 139.12 124.91 Z M 139.53 125.84 L 139.92 126.74 C 140.40 127.85 141.70 128.36 142.81 127.88 C 143.92 127.39 144.43 126.10 143.95 124.99 L 143.55 124.08 C 143.07 122.97 141.77 122.46 140.66 122.95 C 139.55 123.43 139.04 124.72 139.53 125.84 Z M 139.92 126.73 L 140.31 127.65 C 140.79 128.77 142.08 129.28 143.20 128.80 C 144.31 128.32 144.83 127.03 144.35 125.92 L 143.95 124.99 C 143.47 123.88 142.18 123.37 141.06 123.85 C 139.95 124.33 139.44 125.62 139.92 126.73 Z M 140.31 127.65 L 140.71 128.58 C 141.19 129.70 142.48 130.21 143.59 129.74 C 144.71 129.26 145.22 127.97 144.75 126.86 L 144.35 125.92 C 143.87 124.81 142.58 124.29 141.47 124.77 C 140.35 125.24 139.83 126.54 140.31 127.65 Z M 140.71 128.58 L 141.11 129.51 C 141.58 130.63 142.87 131.15 143.99 130.67 C 145.10 130.20 145.62 128.91 145.15 127.79 L 144.75 126.86 C 144.27 125.74 142.98 125.22 141.87 125.70 C 140.75 126.18 140.23 127.47 140.71 128.58 Z M 141.11 129.51 L 141.50 130.44 C 141.98 131.55 143.27 132.07 144.38 131.59 C 145.50 131.12 146.02 129.83 145.54 128.71 L 145.15 127.79 C 144.67 126.68 143.38 126.16 142.27 126.63 C 141.15 127.11 140.63 128.40 141.11 129.51 Z M 141.50 130.44 L 141.91 131.40 C 142.39 132.51 143.68 133.03 144.80 132.55 C 145.91 132.07 146.43 130.78 145.95 129.67 L 145.54 128.71 C 145.06 127.60 143.77 127.08 142.66 127.56 C 141.54 128.03 141.03 129.32 141.50 130.44 Z M 141.92 131.40 L 142.34 132.38 C 142.82 133.50 144.11 134.01 145.23 133.53 C 146.34 133.05 146.85 131.76 146.37 130.64 L 145.95 129.66 C 145.46 128.55 144.17 128.04 143.06 128.52 C 141.95 129.00 141.44 130.29 141.92 131.40 Z M 142.34 132.39 L 142.76 133.34 C 143.24 134.45 144.53 134.95 145.64 134.47 C 146.76 133.99 147.26 132.69 146.78 131.58 L 146.37 130.64 C 145.88 129.53 144.59 129.02 143.48 129.50 C 142.37 129.99 141.86 131.28 142.34 132.39 Z M 142.76 133.34 L 143.16 134.25 C 143.65 135.36 144.94 135.86 146.05 135.37 C 147.16 134.88 147.66 133.59 147.17 132.48 L 146.78 131.58 C 146.29 130.47 144.99 129.96 143.88 130.45 C 142.78 130.94 142.27 132.24 142.76 133.34 Z M 143.16 134.26 L 143.55 135.12 C 144.04 136.23 145.34 136.72 146.44 136.23 C 147.55 135.73 148.05 134.44 147.55 133.33 L 147.17 132.47 C 146.68 131.36 145.38 130.87 144.27 131.36 C 143.17 131.85 142.67 133.15 143.16 134.26 Z M 143.55 135.13 L 143.94 135.99 C 144.44 137.09 145.74 137.58 146.84 137.08 C 147.95 136.58 148.44 135.28 147.94 134.18 L 147.55 133.32 C 147.05 132.22 145.75 131.73 144.65 132.23 C 143.54 132.73 143.05 134.03 143.55 135.13 Z M 143.95 136.00 L 144.40 136.98 C 144.91 138.07 146.21 138.55 147.31 138.04 C 148.41 137.53 148.89 136.23 148.38 135.13 L 147.93 134.16 C 147.42 133.06 146.11 132.58 145.02 133.09 C 143.92 133.60 143.44 134.91 143.95 136.00 Z M 144.42 137.01 L 144.86 137.92 C 145.38 139.01 146.70 139.46 147.79 138.93 C 148.87 138.40 149.33 137.09 148.80 136.00 L 148.36 135.10 C 147.83 134.01 146.52 133.55 145.43 134.08 C 144.34 134.61 143.89 135.92 144.42 137.01 Z M 144.88 137.97 L 145.32 138.82 C 145.88 139.90 147.20 140.32 148.28 139.76 C 149.35 139.21 149.77 137.88 149.22 136.81 L 148.78 135.95 C 148.22 134.88 146.90 134.46 145.82 135.01 C 144.75 135.57 144.33 136.89 144.88 137.97 Z M 145.36 138.88 L 145.82 139.70 C 146.41 140.76 147.74 141.14 148.80 140.55 C 149.86 139.96 150.23 138.62 149.64 137.56 L 149.18 136.74 C 148.59 135.69 147.26 135.31 146.20 135.90 C 145.14 136.49 144.77 137.83 145.36 138.88 Z M 145.86 139.78 L 146.39 140.66 C 147.02 141.69 148.37 142.02 149.41 141.39 C 150.44 140.76 150.77 139.41 150.14 138.38 L 149.60 137.49 C 148.97 136.46 147.62 136.13 146.59 136.76 C 145.55 137.39 145.23 138.74 145.86 139.78 Z M 146.41 140.69 L 146.95 141.55 C 147.60 142.57 148.96 142.88 149.98 142.23 C 151.01 141.58 151.31 140.22 150.66 139.20 L 150.12 138.34 C 149.47 137.32 148.11 137.01 147.09 137.66 C 146.07 138.31 145.76 139.67 146.41 140.69 Z M 146.94 141.53 L 147.46 142.37 C 148.10 143.40 149.46 143.71 150.49 143.07 C 151.52 142.43 151.84 141.07 151.19 140.04 L 150.68 139.21 C 150.03 138.18 148.68 137.86 147.65 138.50 C 146.61 139.15 146.30 140.50 146.94 141.53 Z M 147.41 142.30 L 147.90 143.15 C 148.50 144.21 149.85 144.58 150.91 143.98 C 151.96 143.37 152.33 142.03 151.73 140.97 L 151.24 140.11 C 150.64 139.06 149.29 138.69 148.23 139.29 C 147.18 139.89 146.81 141.24 147.41 142.30 Z M 147.83 143.05 L 148.28 143.95 C 148.82 145.05 150.15 145.50 151.25 144.95 C 152.35 144.41 152.79 143.08 152.25 141.98 L 151.80 141.08 C 151.26 139.98 149.93 139.53 148.83 140.08 C 147.73 140.62 147.29 141.95 147.83 143.05 Z M 148.22 143.86 L 148.62 144.77 C 149.11 145.89 150.42 146.41 151.55 145.92 C 152.68 145.43 153.20 144.11 152.70 142.98 L 152.31 142.08 C 151.82 140.95 150.50 140.43 149.37 140.92 C 148.24 141.42 147.73 142.73 148.22 143.86 Z M 148.57 144.70 L 148.93 145.61 C 149.39 146.76 150.69 147.32 151.84 146.87 C 153.00 146.41 153.56 145.11 153.11 143.95 L 152.75 143.05 C 152.29 141.90 150.99 141.33 149.83 141.79 C 148.68 142.24 148.12 143.55 148.57 144.70 Z M 148.90 145.57 L 149.22 146.45 C 149.66 147.62 150.96 148.22 152.13 147.78 C 153.30 147.34 153.90 146.04 153.47 144.87 L 153.14 143.99 C 152.70 142.82 151.40 142.22 150.23 142.66 C 149.06 143.09 148.46 144.40 148.90 145.57 Z M 149.19 146.41 L 149.51 147.33 C 149.93 148.52 151.23 149.15 152.42 148.74 C 153.61 148.32 154.24 147.02 153.82 145.83 L 153.50 144.91 C 153.09 143.72 151.78 143.09 150.59 143.50 C 149.40 143.92 148.78 145.22 149.19 146.41 Z M 149.48 147.29 L 149.80 148.29 C 150.20 149.50 151.49 150.16 152.70 149.77 C 153.91 149.38 154.57 148.08 154.18 146.87 L 153.86 145.87 C 153.46 144.66 152.16 144.00 150.96 144.39 C 149.75 144.79 149.09 146.09 149.48 147.29 Z M 149.77 148.26 L 150.07 149.24 C 150.44 150.47 151.74 151.17 152.96 150.79 C 154.19 150.42 154.89 149.12 154.51 147.90 L 154.21 146.91 C 153.84 145.68 152.55 144.99 151.32 145.36 C 150.09 145.73 149.40 147.03 149.77 148.26 Z M 150.02 149.17 L 150.29 150.16 C 150.62 151.41 151.91 152.16 153.16 151.82 C 154.41 151.49 155.15 150.21 154.82 148.95 L 154.56 147.97 C 154.22 146.72 152.94 145.97 151.69 146.30 C 150.44 146.64 149.69 147.92 150.02 149.17 Z M 150.23 150.03 L 150.43 151.03 C 150.69 152.31 151.94 153.14 153.22 152.89 C 154.51 152.63 155.34 151.38 155.08 150.09 L 154.88 149.09 C 154.62 147.81 153.37 146.98 152.09 147.24 C 150.80 147.49 149.97 148.74 150.23 150.03 Z M 150.38 150.80 L 150.47 151.78 C 150.61 153.10 151.78 154.06 153.10 153.92 C 154.41 153.79 155.37 152.62 155.24 151.30 L 155.14 150.32 C 155.01 149.01 153.83 148.05 152.52 148.18 C 151.20 148.31 150.24 149.49 150.38 150.80 Z M 150.45 151.41 L 150.39 152.39 C 150.32 153.72 151.34 154.86 152.67 154.93 C 154.00 155.00 155.13 153.99 155.21 152.66 L 155.26 151.68 C 155.34 150.35 154.32 149.21 152.99 149.14 C 151.66 149.06 150.52 150.08 150.45 151.41 Z M 150.45 151.94 L 150.22 152.90 C 149.90 154.19 150.69 155.50 151.99 155.82 C 153.28 156.14 154.59 155.35 154.91 154.06 L 155.15 153.10 C 155.47 151.81 154.68 150.50 153.38 150.18 C 152.08 149.86 150.77 150.65 150.45 151.94 Z M 150.33 152.56 L 149.96 153.47 C 149.45 154.71 150.04 156.12 151.28 156.62 C 152.51 157.13 153.92 156.54 154.43 155.30 L 154.80 154.39 C 155.31 153.16 154.72 151.75 153.48 151.24 C 152.25 150.74 150.83 151.33 150.33 152.56 Z M 150.04 153.29 L 149.58 154.19 C 148.97 155.38 149.45 156.84 150.64 157.44 C 151.83 158.05 153.28 157.58 153.89 156.39 L 154.35 155.48 C 154.95 154.29 154.48 152.84 153.29 152.23 C 152.10 151.63 150.65 152.10 150.04 153.29 Z M 149.61 154.14 L 149.19 154.92 C 148.55 156.09 148.99 157.56 150.16 158.19 C 151.34 158.83 152.80 158.39 153.44 157.22 L 153.86 156.44 C 154.49 155.26 154.06 153.80 152.88 153.16 C 151.71 152.53 150.24 152.97 149.61 154.14 Z M 149.19 154.91 L 148.75 155.72 C 148.11 156.89 148.53 158.36 149.70 159.00 C 150.87 159.64 152.34 159.21 152.98 158.04 L 153.43 157.23 C 154.07 156.06 153.64 154.59 152.48 153.95 C 151.31 153.31 149.84 153.74 149.19 154.91 Z M 148.75 155.71 L 148.27 156.59 C 147.62 157.76 148.05 159.23 149.22 159.88 C 150.38 160.52 151.85 160.09 152.50 158.93 L 152.98 158.05 C 153.63 156.88 153.20 155.41 152.03 154.76 C 150.86 154.12 149.39 154.55 148.75 155.71 Z M 148.26 156.60 L 147.73 157.57 C 147.09 158.74 147.52 160.20 148.69 160.84 C 149.86 161.49 151.33 161.06 151.97 159.89 L 152.50 158.92 C 153.14 157.75 152.71 156.28 151.54 155.64 C 150.37 155.00 148.90 155.43 148.26 156.60 Z M 147.73 157.58 L 147.24 158.48 C 146.60 159.66 147.04 161.12 148.21 161.76 C 149.38 162.39 150.85 161.96 151.49 160.78 L 151.98 159.88 C 152.61 158.70 152.18 157.24 151.00 156.60 C 149.83 155.97 148.36 156.40 147.73 157.58 Z M 147.23 158.49 L 146.78 159.33 C 146.15 160.50 146.60 161.97 147.77 162.60 C 148.95 163.23 150.41 162.79 151.04 161.61 L 151.49 160.77 C 152.12 159.60 151.68 158.13 150.50 157.50 C 149.33 156.87 147.86 157.32 147.23 158.49 Z M 146.78 159.34 L 146.31 160.21 C 145.69 161.39 146.14 162.85 147.31 163.48 C 148.49 164.11 149.95 163.66 150.58 162.48 L 151.05 161.60 C 151.67 160.43 151.23 158.96 150.05 158.34 C 148.87 157.71 147.41 158.16 146.78 159.34 Z M 146.31 160.22 L 145.83 161.12 C 145.21 162.30 145.66 163.76 146.84 164.39 C 148.02 165.01 149.48 164.56 150.10 163.38 L 150.58 162.47 C 151.21 161.30 150.76 159.83 149.58 159.21 C 148.40 158.59 146.93 159.04 146.31 160.22 Z M 145.83 161.13 L 145.35 162.05 C 144.73 163.23 145.18 164.69 146.36 165.31 C 147.54 165.93 149.00 165.48 149.62 164.29 L 150.11 163.38 C 150.73 162.19 150.27 160.73 149.09 160.11 C 147.91 159.49 146.45 159.95 145.83 161.13 Z M 145.35 162.05 L 144.87 162.97 C 144.25 164.15 144.70 165.61 145.89 166.23 C 147.07 166.85 148.53 166.39 149.15 165.21 L 149.63 164.29 C 150.24 163.11 149.79 161.65 148.61 161.03 C 147.42 160.41 145.96 160.87 145.35 162.05 Z M 144.86 162.97 L 144.37 163.93 C 143.75 165.11 144.21 166.57 145.39 167.19 C 146.57 167.80 148.03 167.34 148.65 166.16 L 149.15 165.21 C 149.76 164.02 149.30 162.56 148.12 161.95 C 146.94 161.33 145.48 161.79 144.86 162.97 Z M 144.36 163.93 L 143.86 164.90 C 143.24 166.09 143.70 167.54 144.89 168.16 C 146.07 168.77 147.53 168.31 148.14 167.13 L 148.65 166.16 C 149.27 164.97 148.81 163.52 147.62 162.90 C 146.44 162.29 144.98 162.75 144.36 163.93 Z M 143.86 164.90 L 143.37 165.84 C 142.76 167.02 143.22 168.48 144.40 169.09 C 145.59 169.71 147.05 169.25 147.66 168.06 L 148.14 167.13 C 148.76 165.95 148.30 164.49 147.12 163.87 C 145.93 163.26 144.47 163.72 143.86 164.90 Z M 143.37 165.83 L 142.92 166.72 C 142.30 167.90 142.76 169.36 143.94 169.97 C 145.13 170.59 146.58 170.13 147.20 168.95 L 147.66 168.06 C 148.28 166.88 147.82 165.42 146.63 164.81 C 145.45 164.19 143.99 164.65 143.37 165.83 Z M 142.92 166.71 L 142.49 167.54 C 141.87 168.72 142.33 170.18 143.51 170.79 C 144.69 171.41 146.15 170.96 146.77 169.77 L 147.20 168.95 C 147.82 167.77 147.36 166.31 146.18 165.69 C 144.99 165.07 143.54 165.53 142.92 166.71 Z M 142.49 167.53 L 142.08 168.31 C 141.46 169.49 141.91 170.95 143.09 171.57 C 144.27 172.19 145.73 171.74 146.35 170.56 L 146.76 169.78 C 147.39 168.60 146.93 167.14 145.75 166.52 C 144.57 165.90 143.11 166.35 142.49 167.53 Z M 142.09 168.30 L 141.56 169.29 C 140.93 170.46 141.37 171.92 142.55 172.55 C 143.73 173.18 145.19 172.74 145.82 171.56 L 146.35 170.57 C 146.98 169.40 146.53 167.93 145.36 167.30 C 144.18 166.68 142.72 167.12 142.09 168.30 Z M 141.56 169.28 L 141.09 170.15 C 140.46 171.32 140.89 172.79 142.07 173.42 C 143.24 174.06 144.71 173.62 145.34 172.45 L 145.81 171.57 C 146.45 170.40 146.01 168.93 144.84 168.30 C 143.66 167.66 142.20 168.10 141.56 169.28 Z M 141.09 170.15 L 140.65 170.97 C 140.02 172.14 140.46 173.60 141.63 174.24 C 142.81 174.87 144.27 174.43 144.91 173.25 L 145.34 172.44 C 145.97 171.27 145.53 169.80 144.36 169.17 C 143.19 168.54 141.72 168.98 141.09 170.15 Z M 140.64 170.98 L 140.21 171.81 C 139.58 172.99 140.04 174.45 141.22 175.07 C 142.40 175.70 143.86 175.24 144.48 174.06 L 144.92 173.24 C 145.54 172.06 145.09 170.59 143.91 169.97 C 142.73 169.35 141.26 169.80 140.64 170.98 Z M 140.20 171.83 L 139.74 172.71 C 139.13 173.89 139.60 175.35 140.78 175.96 C 141.97 176.57 143.42 176.11 144.04 174.92 L 144.49 174.04 C 145.10 172.86 144.64 171.40 143.45 170.79 C 142.26 170.18 140.81 170.64 140.20 171.83 Z M 139.74 172.71 L 139.28 173.61 C 138.67 174.79 139.14 176.25 140.33 176.86 C 141.51 177.47 142.97 177.00 143.58 175.81 L 144.04 174.92 C 144.65 173.73 144.18 172.28 142.99 171.67 C 141.81 171.06 140.35 171.53 139.74 172.71 Z M 139.29 173.60 L 138.82 174.50 C 138.20 175.68 138.66 177.14 139.85 177.75 C 141.03 178.37 142.49 177.91 143.10 176.73 L 143.57 175.82 C 144.19 174.64 143.73 173.18 142.54 172.57 C 141.36 171.95 139.90 172.41 139.29 173.60 Z M 138.83 174.48 L 138.37 175.34 C 137.74 176.52 138.19 177.98 139.37 178.61 C 140.55 179.23 142.01 178.78 142.64 177.61 L 143.09 176.75 C 143.72 175.57 143.27 174.11 142.10 173.48 C 140.92 172.85 139.45 173.30 138.83 174.48 Z M 138.38 175.33 L 137.91 176.20 C 137.27 177.37 137.71 178.84 138.89 179.47 C 140.06 180.10 141.53 179.67 142.16 178.49 L 142.63 177.62 C 143.26 176.44 142.82 174.98 141.65 174.35 C 140.48 173.71 139.01 174.15 138.38 175.33 Z M 137.91 176.20 L 137.43 177.09 C 136.79 178.26 137.23 179.73 138.40 180.36 C 139.58 181.00 141.04 180.56 141.68 179.38 L 142.16 178.49 C 142.79 177.32 142.36 175.85 141.18 175.22 C 140.01 174.59 138.54 175.02 137.91 176.20 Z M 137.42 177.10 L 136.94 177.99 C 136.31 179.17 136.75 180.63 137.93 181.26 C 139.11 181.89 140.57 181.45 141.20 180.28 L 141.68 179.38 C 142.31 178.20 141.87 176.74 140.69 176.11 C 139.52 175.48 138.05 175.92 137.42 177.10 Z M 136.94 178.00 L 136.46 178.90 C 135.84 180.08 136.29 181.54 137.47 182.16 C 138.65 182.79 140.11 182.34 140.73 181.16 L 141.21 180.27 C 141.83 179.09 141.38 177.62 140.20 177.00 C 139.02 176.38 137.56 176.83 136.94 178.00 Z M 136.46 178.90 L 135.99 179.80 C 135.37 180.98 135.82 182.44 137.00 183.06 C 138.19 183.68 139.65 183.23 140.27 182.05 L 140.74 181.15 C 141.36 179.97 140.90 178.51 139.72 177.89 C 138.54 177.27 137.08 177.72 136.46 178.90 Z M 135.99 179.80 L 135.53 180.68 C 134.91 181.86 135.36 183.32 136.55 183.94 C 137.73 184.56 139.19 184.10 139.81 182.92 L 140.27 182.04 C 140.89 180.86 140.43 179.40 139.25 178.78 C 138.07 178.16 136.61 178.62 135.99 179.80 Z M 135.53 180.68 L 135.05 181.59 C 134.43 182.77 134.89 184.23 136.07 184.85 C 137.25 185.47 138.71 185.01 139.33 183.83 L 139.81 182.92 C 140.43 181.74 139.97 180.28 138.79 179.66 C 137.61 179.04 136.15 179.50 135.53 180.68 Z M 135.05 181.58 L 134.58 182.48 C 133.96 183.66 134.41 185.12 135.59 185.75 C 136.77 186.37 138.23 185.91 138.85 184.73 L 139.33 183.84 C 139.95 182.66 139.50 181.19 138.32 180.57 C 137.14 179.95 135.68 180.40 135.05 181.58 Z M 134.58 182.47 L 134.13 183.34 C 133.50 184.52 133.95 185.98 135.12 186.61 C 136.30 187.23 137.76 186.78 138.39 185.61 L 138.85 184.74 C 139.48 183.56 139.03 182.10 137.85 181.47 C 136.67 180.85 135.21 181.30 134.58 182.47 Z M 134.13 183.33 L 133.67 184.18 C 133.04 185.36 133.48 186.82 134.65 187.46 C 135.82 188.09 137.29 187.65 137.92 186.48 L 138.39 185.62 C 139.02 184.44 138.58 182.98 137.40 182.35 C 136.23 181.71 134.76 182.15 134.13 183.33 Z M 133.68 184.17 L 133.19 185.06 C 132.55 186.23 132.98 187.69 134.15 188.34 C 135.32 188.98 136.79 188.55 137.43 187.38 L 137.92 186.49 C 138.56 185.32 138.13 183.85 136.96 183.21 C 135.79 182.57 134.32 183.00 133.68 184.17 Z M 133.20 185.04 L 132.71 185.91 C 132.06 187.08 132.48 188.55 133.65 189.20 C 134.81 189.85 136.29 189.43 136.94 188.26 L 137.42 187.39 C 138.07 186.23 137.65 184.76 136.49 184.11 C 135.32 183.46 133.85 183.87 133.20 185.04 Z M 132.72 185.90 L 132.24 186.75 C 131.58 187.91 131.99 189.38 133.15 190.04 C 134.31 190.70 135.79 190.29 136.44 189.13 L 136.93 188.28 C 137.59 187.12 137.18 185.64 136.02 184.99 C 134.86 184.33 133.38 184.73 132.72 185.90 Z M 132.25 186.73 L 131.79 187.52 C 131.13 188.68 131.52 190.16 132.68 190.82 C 133.84 191.49 135.32 191.09 135.98 189.93 L 136.44 189.14 C 137.10 187.99 136.70 186.51 135.55 185.84 C 134.39 185.18 132.91 185.58 132.25 186.73 Z M 131.79 187.53 L 131.31 188.36 C 130.65 189.52 131.05 191.00 132.20 191.66 C 133.36 192.33 134.84 191.93 135.50 190.77 L 135.98 189.93 C 136.65 188.77 136.25 187.30 135.09 186.63 C 133.93 185.97 132.46 186.37 131.79 187.53 Z M 131.30 188.38 L 130.77 189.31 C 130.12 190.47 130.53 191.95 131.69 192.60 C 132.85 193.26 134.33 192.85 134.98 191.69 L 135.51 190.75 C 136.17 189.59 135.76 188.12 134.60 187.46 C 133.43 186.80 131.96 187.21 131.30 188.38 Z M 130.76 189.33 L 130.29 190.18 C 129.65 191.35 130.07 192.82 131.24 193.47 C 132.41 194.11 133.88 193.69 134.52 192.52 L 135.00 191.67 C 135.64 190.50 135.22 189.03 134.05 188.38 C 132.88 187.74 131.41 188.16 130.76 189.33 Z M 130.29 190.19 L 129.84 191.01 C 129.20 192.19 129.63 193.65 130.80 194.29 C 131.97 194.93 133.44 194.50 134.08 193.33 L 134.53 192.51 C 135.17 191.34 134.74 189.87 133.57 189.23 C 132.39 188.59 130.93 189.02 130.29 190.19 Z M 129.84 191.02 L 129.36 191.90 C 128.72 193.07 129.15 194.54 130.33 195.17 C 131.50 195.81 132.97 195.38 133.61 194.21 L 134.08 193.33 C 134.72 192.16 134.29 190.69 133.12 190.05 C 131.94 189.41 130.48 189.84 129.84 191.02 Z M 129.36 191.89 L 128.86 192.81 C 128.22 193.98 128.65 195.45 129.82 196.09 C 130.99 196.73 132.46 196.30 133.10 195.13 L 133.60 194.21 C 134.24 193.04 133.81 191.57 132.64 190.93 C 131.47 190.29 130.00 190.72 129.36 191.89 Z M 128.86 192.80 L 128.34 193.75 C 127.70 194.92 128.12 196.39 129.29 197.03 C 130.46 197.68 131.93 197.25 132.58 196.08 L 133.10 195.14 C 133.74 193.97 133.32 192.50 132.15 191.85 C 130.98 191.21 129.51 191.63 128.86 192.80 Z M 128.35 193.74 L 127.83 194.67 C 127.18 195.83 127.59 197.30 128.76 197.96 C 129.92 198.61 131.40 198.19 132.05 197.03 L 132.57 196.10 C 133.22 194.93 132.80 193.46 131.64 192.81 C 130.47 192.15 129.00 192.57 128.35 193.74 Z M 127.84 194.65 L 127.32 195.57 C 126.66 196.73 127.06 198.20 128.22 198.86 C 129.38 199.52 130.86 199.12 131.52 197.96 L 132.04 197.04 C 132.70 195.88 132.29 194.40 131.13 193.75 C 129.97 193.09 128.50 193.49 127.84 194.65 Z M 127.32 195.56 L 126.81 196.45 C 126.14 197.61 126.54 199.09 127.70 199.75 C 128.86 200.42 130.33 200.02 131.00 198.86 L 131.51 197.97 C 132.18 196.81 131.78 195.33 130.62 194.67 C 129.47 194.00 127.99 194.40 127.32 195.56 Z M 126.81 196.44 L 126.32 197.29 C 125.65 198.45 126.04 199.93 127.19 200.60 C 128.35 201.27 129.83 200.88 130.50 199.73 L 130.99 198.87 C 131.66 197.72 131.27 196.24 130.12 195.57 C 128.97 194.90 127.49 195.29 126.81 196.44 Z M 126.32 197.29 L 125.85 198.08 C 125.18 199.24 125.56 200.72 126.71 201.39 C 127.86 202.07 129.35 201.68 130.02 200.53 L 130.49 199.73 C 131.17 198.58 130.78 197.10 129.63 196.43 C 128.48 195.75 127.00 196.13 126.32 197.29 Z M 125.86 198.08 L 125.32 198.98 C 124.64 200.13 125.02 201.61 126.17 202.29 C 127.31 202.97 128.80 202.59 129.48 201.45 L 130.01 200.54 C 130.70 199.39 130.32 197.91 129.17 197.23 C 128.02 196.55 126.54 196.93 125.86 198.08 Z M 125.33 198.98 L 124.80 199.87 C 124.12 201.02 124.49 202.50 125.64 203.18 C 126.78 203.86 128.26 203.48 128.94 202.34 L 129.47 201.45 C 130.15 200.30 129.78 198.83 128.63 198.15 C 127.49 197.46 126.01 197.84 125.33 198.98 Z M 124.80 199.89 L 124.31 200.71 C 123.64 201.86 124.03 203.33 125.17 204.00 C 126.32 204.67 127.79 204.29 128.46 203.14 L 128.94 202.32 C 129.61 201.18 129.23 199.71 128.09 199.03 C 126.94 198.36 125.47 198.75 124.80 199.89 Z M 124.30 200.74 L 123.85 201.54 C 123.20 202.69 123.60 204.16 124.76 204.81 C 125.91 205.46 127.37 205.06 128.02 203.90 L 128.47 203.11 C 129.13 201.96 128.72 200.49 127.57 199.84 C 126.42 199.19 124.95 199.59 124.30 200.74 Z M 123.83 201.59 L 123.46 202.29 C 122.83 203.45 123.27 204.90 124.43 205.52 C 125.59 206.15 127.04 205.72 127.66 204.56 L 128.04 203.86 C 128.67 202.69 128.23 201.24 127.07 200.62 C 125.91 199.99 124.46 200.43 123.83 201.59 Z M 123.44 202.34 L 123.05 203.11 C 122.45 204.28 122.91 205.72 124.08 206.31 C 125.25 206.91 126.68 206.45 127.28 205.28 L 127.68 204.50 C 128.28 203.33 127.81 201.90 126.64 201.30 C 125.47 200.71 124.04 201.17 123.44 202.34 Z M 123.04 203.16 L 122.59 204.07 C 122.02 205.25 122.51 206.66 123.69 207.23 C 124.86 207.81 126.28 207.32 126.85 206.14 L 127.29 205.23 C 127.86 204.06 127.38 202.64 126.20 202.07 C 125.02 201.50 123.61 201.99 123.04 203.16 Z M 122.59 204.11 L 122.07 205.21 C 121.52 206.39 122.03 207.79 123.21 208.34 C 124.38 208.89 125.79 208.39 126.34 207.21 L 126.85 206.11 C 127.41 204.93 126.90 203.53 125.72 202.97 C 124.54 202.42 123.14 202.93 122.59 204.11 Z M 122.07 205.23 L 121.67 206.11 C 121.13 207.29 121.65 208.68 122.82 209.22 C 124.00 209.76 125.40 209.24 125.94 208.07 L 126.34 207.19 C 126.88 206.01 126.36 204.61 125.18 204.07 C 124.00 203.53 122.61 204.05 122.07 205.23 Z M 121.67 206.12 L 121.31 206.91 C 120.77 208.09 121.30 209.48 122.48 210.02 C 123.66 210.55 125.04 210.03 125.58 208.85 L 125.94 208.05 C 126.47 206.88 125.95 205.49 124.77 204.95 C 123.59 204.42 122.20 204.94 121.67 206.12 Z M 121.31 206.92 L 120.92 207.78 C 120.39 208.96 120.92 210.34 122.10 210.87 C 123.28 211.40 124.66 210.88 125.19 209.70 L 125.58 208.84 C 126.11 207.66 125.58 206.28 124.40 205.75 C 123.22 205.22 121.84 205.74 121.31 206.92 Z M 120.92 207.78 L 120.52 208.69 C 119.99 209.87 120.52 211.25 121.70 211.78 C 122.88 212.31 124.26 211.78 124.79 210.60 L 125.19 209.69 C 125.72 208.51 125.19 207.13 124.01 206.60 C 122.83 206.08 121.45 206.60 120.92 207.78 Z M 120.52 208.69 L 120.10 209.64 C 119.57 210.82 120.10 212.20 121.28 212.73 C 122.46 213.25 123.84 212.72 124.36 211.54 L 124.79 210.59 C 125.31 209.42 124.78 208.04 123.60 207.51 C 122.42 206.99 121.04 207.52 120.52 208.69 Z M 120.10 209.65 L 119.66 210.63 C 119.14 211.81 119.67 213.19 120.85 213.71 C 122.03 214.23 123.40 213.70 123.93 212.52 L 124.36 211.54 C 124.89 210.36 124.35 208.98 123.18 208.46 C 122.00 207.94 120.62 208.47 120.10 209.65 Z M 119.66 210.63 L 119.22 211.64 C 118.70 212.81 119.23 214.19 120.41 214.71 C 121.58 215.23 122.96 214.70 123.48 213.52 L 123.93 212.52 C 124.45 211.34 123.92 209.97 122.74 209.44 C 121.56 208.92 120.19 209.45 119.66 210.63 Z M 119.22 211.64 L 118.77 212.65 C 118.25 213.83 118.78 215.20 119.96 215.72 C 121.13 216.24 122.51 215.71 123.03 214.54 L 123.48 213.52 C 124.00 212.35 123.47 210.97 122.29 210.45 C 121.12 209.93 119.74 210.46 119.22 211.64 Z M 118.77 212.65 L 118.71 212.80 C 118.19 213.98 118.72 215.35 119.89 215.87 C 121.07 216.39 122.44 215.86 122.96 214.68 L 123.03 214.54 C 123.55 213.36 123.02 211.99 121.84 211.47 C 120.67 210.95 119.29 211.48 118.77 212.65 Z"
      fill="black"
      fill-rule="nonzero" /><path d="M 142.00 87.43 L 142.30 88.37 C 142.65 89.43 143.79 90.01 144.85 89.67 C 145.91 89.33 146.50 88.19 146.15 87.12 L 145.85 86.18 C 145.51 85.12 144.37 84.54 143.30 84.88 C 142.24 85.22 141.66 86.36 142.00 87.43 Z M 142.32 88.44 L 142.66 89.37 C 143.04 90.43 144.21 90.97 145.26 90.59 C 146.32 90.21 146.86 89.04 146.48 87.99 L 146.14 87.05 C 145.76 86.00 144.59 85.45 143.54 85.84 C 142.48 86.22 141.94 87.38 142.32 88.44 Z M 142.71 89.51 L 143.12 90.43 C 143.58 91.46 144.78 91.92 145.81 91.47 C 146.84 91.01 147.30 89.81 146.84 88.78 L 146.43 87.85 C 145.97 86.82 144.77 86.36 143.74 86.82 C 142.71 87.28 142.25 88.48 142.71 89.51 Z M 143.19 90.59 L 143.61 91.36 C 144.16 92.35 145.40 92.71 146.39 92.16 C 147.38 91.62 147.74 90.37 147.19 89.39 L 146.77 88.62 C 146.22 87.63 144.98 87.27 143.99 87.82 C 143.00 88.36 142.65 89.60 143.19 90.59 Z M 143.67 91.47 L 144.16 92.25 C 144.77 93.20 146.03 93.49 146.99 92.88 C 147.95 92.28 148.23 91.02 147.63 90.06 L 147.13 89.28 C 146.53 88.32 145.27 88.04 144.31 88.64 C 143.35 89.24 143.07 90.51 143.67 91.47 Z M 144.19 92.30 L 144.77 93.16 C 145.40 94.10 146.68 94.35 147.62 93.72 C 148.56 93.08 148.81 91.81 148.18 90.87 L 147.60 90.01 C 146.97 89.07 145.69 88.82 144.75 89.45 C 143.81 90.08 143.56 91.36 144.19 92.30 Z M 144.77 93.17 L 145.42 94.13 C 146.06 95.07 147.34 95.31 148.28 94.67 C 149.22 94.04 149.47 92.76 148.83 91.82 L 148.18 90.86 C 147.54 89.92 146.26 89.67 145.32 90.31 C 144.38 90.95 144.13 92.23 144.77 93.17 Z M 145.41 94.11 L 145.93 94.89 C 146.56 95.84 147.84 96.10 148.79 95.47 C 149.74 94.83 149.99 93.55 149.36 92.61 L 148.84 91.83 C 148.21 90.88 146.93 90.62 145.98 91.25 C 145.03 91.89 144.78 93.17 145.41 94.11 Z M 145.92 94.88 L 146.47 95.72 C 147.09 96.67 148.37 96.94 149.33 96.31 C 150.28 95.69 150.55 94.41 149.92 93.45 L 149.37 92.62 C 148.74 91.66 147.46 91.40 146.51 92.02 C 145.56 92.65 145.29 93.93 145.92 94.88 Z M 146.45 95.71 L 147.02 96.58 C 147.64 97.54 148.92 97.81 149.88 97.19 C 150.84 96.57 151.11 95.29 150.49 94.33 L 149.93 93.46 C 149.31 92.50 148.03 92.23 147.07 92.85 C 146.11 93.47 145.83 94.75 146.45 95.71 Z M 147.01 96.57 L 147.57 97.44 C 148.18 98.41 149.46 98.69 150.43 98.07 C 151.39 97.46 151.68 96.17 151.06 95.21 L 150.50 94.34 C 149.88 93.37 148.60 93.09 147.64 93.71 C 146.67 94.32 146.39 95.60 147.01 96.57 Z M 147.55 97.43 L 148.09 98.29 C 148.70 99.26 149.99 99.55 150.96 98.94 C 151.93 98.33 152.22 97.05 151.61 96.07 L 151.07 95.22 C 150.46 94.25 149.18 93.96 148.21 94.57 C 147.23 95.18 146.94 96.46 147.55 97.43 Z M 148.08 98.28 L 148.62 99.15 C 149.23 100.13 150.51 100.43 151.49 99.83 C 152.46 99.22 152.77 97.94 152.16 96.96 L 151.62 96.09 C 151.02 95.11 149.73 94.81 148.76 95.41 C 147.78 96.02 147.48 97.30 148.08 98.28 Z M 148.61 99.13 L 149.13 100.00 C 149.72 100.98 151.00 101.30 151.99 100.70 C 152.98 100.11 153.29 98.83 152.70 97.84 L 152.18 96.98 C 151.58 95.99 150.30 95.68 149.31 96.27 C 148.33 96.87 148.01 98.15 148.61 99.13 Z M 149.11 99.97 L 149.60 100.82 C 150.19 101.81 151.47 102.15 152.46 101.56 C 153.46 100.98 153.79 99.70 153.21 98.70 L 152.72 97.86 C 152.13 96.87 150.85 96.53 149.86 97.11 C 148.86 97.70 148.53 98.98 149.11 99.97 Z M 149.58 100.79 L 150.06 101.64 C 150.63 102.64 151.91 103.00 152.92 102.43 C 153.92 101.86 154.28 100.58 153.71 99.57 L 153.23 98.73 C 152.66 97.72 151.38 97.37 150.37 97.94 C 149.37 98.51 149.01 99.78 149.58 100.79 Z M 150.04 101.61 L 150.52 102.49 C 151.08 103.51 152.36 103.88 153.37 103.33 C 154.39 102.77 154.76 101.49 154.21 100.48 L 153.73 99.60 C 153.17 98.58 151.89 98.21 150.88 98.76 C 149.86 99.32 149.49 100.60 150.04 101.61 Z M 150.51 102.47 L 150.98 103.35 C 151.52 104.37 152.79 104.76 153.82 104.22 C 154.84 103.68 155.23 102.40 154.69 101.38 L 154.22 100.50 C 153.68 99.47 152.41 99.08 151.38 99.63 C 150.36 100.17 149.97 101.44 150.51 102.47 Z M 150.97 103.33 L 151.43 104.23 C 151.97 105.26 153.23 105.66 154.26 105.13 C 155.29 104.60 155.70 103.33 155.16 102.30 L 154.70 101.40 C 154.16 100.37 152.90 99.96 151.87 100.50 C 150.84 101.03 150.43 102.30 150.97 103.33 Z M 151.42 104.21 L 151.89 105.13 C 152.41 106.17 153.68 106.58 154.71 106.06 C 155.75 105.53 156.16 104.27 155.64 103.23 L 155.17 102.32 C 154.65 101.28 153.38 100.87 152.35 101.39 C 151.32 101.91 150.90 103.18 151.42 104.21 Z M 151.88 105.11 L 152.33 106.03 C 152.85 107.06 154.11 107.49 155.15 106.97 C 156.18 106.46 156.61 105.20 156.09 104.16 L 155.64 103.25 C 155.13 102.21 153.87 101.79 152.83 102.30 C 151.79 102.82 151.37 104.08 151.88 105.11 Z M 152.33 106.01 L 152.75 106.89 C 153.26 107.93 154.51 108.37 155.56 107.86 C 156.60 107.36 157.03 106.10 156.53 105.06 L 156.10 104.18 C 155.60 103.14 154.34 102.70 153.30 103.21 C 152.26 103.71 151.82 104.97 152.33 106.01 Z M 152.75 106.87 L 153.19 107.81 C 153.69 108.86 154.94 109.31 155.98 108.81 C 157.03 108.32 157.48 107.07 156.98 106.02 L 156.54 105.08 C 156.04 104.03 154.79 103.59 153.75 104.08 C 152.70 104.58 152.25 105.83 152.75 106.87 Z M 153.18 107.80 L 153.63 108.76 C 154.11 109.81 155.36 110.27 156.41 109.78 C 157.46 109.30 157.92 108.05 157.43 107.00 L 156.99 106.04 C 156.51 104.99 155.26 104.53 154.21 105.01 C 153.16 105.50 152.70 106.74 153.18 107.80 Z M 153.62 108.75 L 154.03 109.64 C 154.51 110.70 155.75 111.16 156.81 110.69 C 157.86 110.21 158.33 108.96 157.85 107.91 L 157.44 107.01 C 156.96 105.96 155.72 105.49 154.66 105.97 C 153.61 106.45 153.14 107.69 153.62 108.75 Z M 154.03 109.65 L 154.42 110.50 C 154.90 111.55 156.14 112.02 157.20 111.54 C 158.25 111.06 158.71 109.82 158.23 108.76 L 157.85 107.91 C 157.37 106.86 156.12 106.39 155.07 106.87 C 154.02 107.35 153.55 108.59 154.03 109.65 Z M 154.43 110.52 L 154.82 111.37 C 155.31 112.42 156.56 112.87 157.61 112.39 C 158.66 111.90 159.11 110.65 158.63 109.60 L 158.23 108.75 C 157.74 107.70 156.49 107.24 155.44 107.73 C 154.39 108.22 153.94 109.47 154.43 110.52 Z M 154.83 111.39 L 155.25 112.28 C 155.76 113.33 157.01 113.77 158.06 113.27 C 159.10 112.77 159.55 111.51 159.04 110.47 L 158.62 109.58 C 158.12 108.53 156.86 108.09 155.82 108.59 C 154.77 109.09 154.33 110.35 154.83 111.39 Z M 155.26 112.30 L 155.69 113.19 C 156.20 114.24 157.46 114.67 158.51 114.16 C 159.56 113.65 159.99 112.39 159.48 111.34 L 159.04 110.45 C 158.53 109.40 157.27 108.97 156.23 109.48 C 155.18 109.99 154.75 111.25 155.26 112.30 Z M 155.69 113.20 L 156.14 114.11 C 156.65 115.15 157.92 115.58 158.96 115.07 C 160.01 114.55 160.44 113.29 159.93 112.24 L 159.48 111.33 C 158.97 110.29 157.70 109.85 156.65 110.37 C 155.61 110.88 155.17 112.15 155.69 113.20 Z M 156.13 114.10 L 156.58 115.02 C 157.09 116.07 158.36 116.50 159.41 115.99 C 160.46 115.47 160.89 114.20 160.38 113.15 L 159.93 112.24 C 159.42 111.19 158.15 110.76 157.10 111.27 C 156.05 111.78 155.61 113.05 156.13 114.10 Z M 156.57 115.01 L 157.01 115.92 C 157.52 116.97 158.79 117.41 159.84 116.90 C 160.90 116.39 161.34 115.12 160.83 114.07 L 160.39 113.16 C 159.88 112.10 158.61 111.66 157.55 112.17 C 156.50 112.68 156.06 113.95 156.57 115.01 Z M 157.00 115.91 L 157.44 116.82 C 157.94 117.88 159.21 118.33 160.27 117.83 C 161.33 117.32 161.78 116.05 161.27 114.99 L 160.84 114.08 C 160.33 113.02 159.06 112.57 158.00 113.07 C 156.94 113.58 156.49 114.85 157.00 115.91 Z M 157.43 116.81 L 157.85 117.71 C 158.35 118.78 159.62 119.24 160.68 118.74 C 161.75 118.24 162.20 116.97 161.70 115.91 L 161.28 115.00 C 160.78 113.94 159.52 113.48 158.45 113.98 C 157.39 114.48 156.93 115.75 157.43 116.81 Z M 157.84 117.70 L 158.23 118.56 C 158.72 119.63 159.99 120.10 161.06 119.61 C 162.13 119.12 162.60 117.86 162.11 116.78 L 161.72 115.92 C 161.22 114.85 159.96 114.38 158.89 114.87 C 157.82 115.36 157.35 116.63 157.84 117.70 Z M 158.23 118.54 L 158.60 119.38 C 159.08 120.45 160.34 120.93 161.42 120.45 C 162.49 119.97 162.97 118.71 162.49 117.63 L 162.12 116.80 C 161.64 115.73 160.37 115.24 159.30 115.73 C 158.22 116.21 157.74 117.47 158.23 118.54 Z M 158.60 119.37 L 158.99 120.24 C 159.46 121.32 160.72 121.80 161.80 121.32 C 162.88 120.84 163.36 119.58 162.88 118.51 L 162.49 117.64 C 162.01 116.56 160.75 116.08 159.68 116.56 C 158.60 117.04 158.12 118.30 158.60 119.37 Z M 158.99 120.25 L 159.41 121.20 C 159.90 122.27 161.16 122.75 162.23 122.27 C 163.31 121.79 163.79 120.53 163.30 119.45 L 162.88 118.50 C 162.40 117.43 161.13 116.95 160.06 117.43 C 158.99 117.91 158.51 119.17 158.99 120.25 Z M 159.42 121.21 L 159.88 122.21 C 160.36 123.28 161.63 123.75 162.70 123.26 C 163.77 122.77 164.24 121.51 163.75 120.44 L 163.30 119.44 C 162.81 118.37 161.54 117.90 160.47 118.39 C 159.40 118.87 158.93 120.14 159.42 121.21 Z M 159.88 122.22 L 160.26 123.04 C 160.76 124.11 162.02 124.57 163.09 124.08 C 164.16 123.58 164.62 122.31 164.13 121.25 L 163.75 120.42 C 163.25 119.36 161.99 118.89 160.92 119.39 C 159.85 119.88 159.38 121.15 159.88 122.22 Z M 160.26 123.05 L 160.68 123.93 C 161.17 124.99 162.44 125.45 163.51 124.95 C 164.58 124.46 165.04 123.19 164.54 122.12 L 164.13 121.24 C 163.63 120.17 162.36 119.71 161.29 120.21 C 160.22 120.71 159.76 121.98 160.26 123.05 Z M 160.68 123.93 L 161.11 124.85 C 161.61 125.92 162.88 126.38 163.95 125.87 C 165.01 125.37 165.47 124.10 164.97 123.04 L 164.54 122.11 C 164.03 121.05 162.76 120.59 161.70 121.09 C 160.63 121.59 160.17 122.87 160.68 123.93 Z M 161.11 124.86 L 161.56 125.80 C 162.06 126.87 163.33 127.32 164.40 126.82 C 165.46 126.32 165.92 125.04 165.42 123.98 L 164.97 123.03 C 164.47 121.97 163.19 121.51 162.13 122.01 C 161.06 122.52 160.61 123.79 161.11 124.86 Z M 161.56 125.80 L 162.01 126.75 C 162.51 127.82 163.79 128.28 164.85 127.77 C 165.92 127.27 166.37 125.99 165.87 124.93 L 165.42 123.98 C 164.91 122.91 163.64 122.46 162.57 122.96 C 161.51 123.46 161.05 124.74 161.56 125.80 Z M 162.01 126.76 L 162.46 127.71 C 162.96 128.77 164.23 129.23 165.30 128.72 C 166.37 128.22 166.82 126.94 166.32 125.88 L 165.87 124.93 C 165.36 123.86 164.09 123.41 163.02 123.91 C 161.96 124.42 161.50 125.69 162.01 126.76 Z M 162.45 127.71 L 162.92 128.69 C 163.42 129.75 164.70 130.21 165.76 129.70 C 166.83 129.20 167.29 127.93 166.78 126.86 L 166.32 125.88 C 165.82 124.81 164.54 124.35 163.47 124.86 C 162.41 125.36 161.95 126.64 162.45 127.71 Z M 162.92 128.69 L 163.36 129.63 C 163.87 130.70 165.14 131.16 166.21 130.66 C 167.28 130.15 167.74 128.87 167.23 127.81 L 166.79 126.86 C 166.28 125.79 165.01 125.33 163.94 125.84 C 162.87 126.34 162.41 127.62 162.92 128.69 Z M 163.36 129.64 L 163.79 130.55 C 164.30 131.62 165.58 132.08 166.65 131.57 C 167.72 131.07 168.17 129.79 167.67 128.72 L 167.24 127.80 C 166.73 126.73 165.45 126.28 164.38 126.78 C 163.31 127.29 162.86 128.57 163.36 129.64 Z M 163.79 130.55 L 164.21 131.43 C 164.71 132.50 165.99 132.96 167.06 132.45 C 168.13 131.95 168.59 130.67 168.09 129.60 L 167.67 128.72 C 167.16 127.65 165.89 127.19 164.81 127.70 C 163.74 128.20 163.28 129.48 163.79 130.55 Z M 164.20 131.43 L 164.60 132.27 C 165.11 133.34 166.39 133.80 167.46 133.29 C 168.53 132.79 168.99 131.51 168.48 130.43 L 168.09 129.59 C 167.58 128.52 166.30 128.06 165.23 128.57 C 164.15 129.08 163.70 130.36 164.20 131.43 Z M 164.60 132.28 L 165.03 133.18 C 165.54 134.26 166.82 134.71 167.90 134.20 C 168.97 133.69 169.43 132.41 168.92 131.34 L 168.49 130.43 C 167.98 129.36 166.69 128.90 165.62 129.41 C 164.55 129.92 164.09 131.20 164.60 132.28 Z M 165.03 133.19 L 165.51 134.17 C 166.02 135.24 167.30 135.70 168.37 135.18 C 169.44 134.67 169.90 133.39 169.38 132.32 L 168.91 131.33 C 168.40 130.26 167.12 129.81 166.05 130.32 C 164.98 130.83 164.52 132.12 165.03 133.19 Z M 165.51 134.18 L 165.95 135.10 C 166.47 136.16 167.76 136.61 168.83 136.09 C 169.90 135.57 170.34 134.29 169.82 133.22 L 169.38 132.31 C 168.86 131.24 167.57 130.79 166.51 131.31 C 165.44 131.83 164.99 133.12 165.51 134.18 Z M 165.96 135.11 L 166.38 135.96 C 166.91 137.02 168.20 137.45 169.27 136.92 C 170.33 136.39 170.76 135.10 170.23 134.04 L 169.81 133.20 C 169.28 132.14 167.99 131.70 166.93 132.23 C 165.87 132.76 165.43 134.05 165.96 135.11 Z M 166.40 135.98 L 166.81 136.79 C 167.36 137.84 168.65 138.26 169.71 137.71 C 170.76 137.17 171.18 135.87 170.63 134.82 L 170.22 134.01 C 169.67 132.96 168.38 132.54 167.32 133.09 C 166.27 133.63 165.85 134.93 166.40 135.98 Z M 166.83 136.83 L 167.33 137.76 C 167.90 138.81 169.21 139.19 170.25 138.63 C 171.30 138.06 171.69 136.76 171.12 135.71 L 170.62 134.78 C 170.05 133.73 168.74 133.34 167.70 133.91 C 166.65 134.47 166.26 135.78 166.83 136.83 Z M 167.34 137.79 L 167.82 138.65 C 168.40 139.69 169.72 140.06 170.76 139.48 C 171.80 138.90 172.17 137.58 171.59 136.54 L 171.11 135.68 C 170.53 134.64 169.22 134.27 168.17 134.85 C 167.13 135.43 166.76 136.75 167.34 137.79 Z M 167.81 138.65 L 168.27 139.48 C 168.85 140.52 170.17 140.90 171.22 140.32 C 172.27 139.74 172.64 138.42 172.06 137.37 L 171.60 136.54 C 171.02 135.50 169.70 135.12 168.65 135.70 C 167.61 136.28 167.23 137.60 167.81 138.65 Z M 168.25 139.45 L 168.71 140.31 C 169.27 141.37 170.59 141.77 171.65 141.20 C 172.71 140.64 173.11 139.32 172.54 138.26 L 172.09 137.40 C 171.52 136.34 170.20 135.94 169.14 136.50 C 168.08 137.07 167.68 138.39 168.25 139.45 Z M 168.68 140.28 L 169.14 141.16 C 169.69 142.24 171.00 142.66 172.08 142.11 C 173.15 141.56 173.57 140.24 173.02 139.17 L 172.57 138.28 C 172.02 137.21 170.70 136.79 169.63 137.34 C 168.55 137.89 168.13 139.21 168.68 140.28 Z M 169.12 141.15 L 169.57 142.06 C 170.12 143.14 171.44 143.58 172.52 143.03 C 173.60 142.49 174.04 141.17 173.50 140.09 L 173.04 139.18 C 172.49 138.10 171.18 137.66 170.09 138.21 C 169.01 138.75 168.57 140.07 169.12 141.15 Z M 169.56 142.06 L 169.98 142.89 C 170.53 143.98 171.85 144.42 172.94 143.87 C 174.03 143.33 174.47 142.00 173.92 140.91 L 173.51 140.09 C 172.96 139.00 171.64 138.56 170.55 139.10 C 169.46 139.65 169.02 140.97 169.56 142.06 Z M 169.98 142.91 L 170.40 143.74 C 170.96 144.83 172.29 145.26 173.38 144.70 C 174.47 144.15 174.90 142.82 174.34 141.73 L 173.92 140.90 C 173.37 139.81 172.03 139.38 170.94 139.93 C 169.86 140.49 169.42 141.82 169.98 142.91 Z M 170.41 143.77 L 170.89 144.67 C 171.46 145.75 172.80 146.17 173.89 145.59 C 174.97 145.02 175.39 143.67 174.81 142.59 L 174.34 141.69 C 173.76 140.61 172.42 140.19 171.33 140.77 C 170.25 141.34 169.84 142.69 170.41 143.77 Z M 170.90 144.71 L 171.45 145.70 C 172.05 146.78 173.40 147.17 174.48 146.57 C 175.56 145.97 175.95 144.62 175.35 143.54 L 174.80 142.55 C 174.20 141.47 172.84 141.08 171.77 141.68 C 170.69 142.28 170.30 143.63 170.90 144.71 Z M 171.45 145.74 L 171.94 146.60 C 172.56 147.67 173.94 148.04 175.01 147.43 C 176.09 146.81 176.46 145.43 175.84 144.36 L 175.35 143.50 C 174.73 142.43 173.35 142.06 172.28 142.67 C 171.20 143.29 170.83 144.67 171.45 145.74 Z M 171.92 146.60 L 172.43 147.50 C 173.05 148.59 174.44 148.97 175.53 148.35 C 176.62 147.73 177.00 146.34 176.38 145.25 L 175.87 144.35 C 175.25 143.26 173.86 142.88 172.77 143.50 C 171.68 144.12 171.30 145.51 171.92 146.60 Z M 172.38 147.46 L 172.87 148.38 C 173.47 149.49 174.86 149.91 175.98 149.31 C 177.10 148.71 177.52 147.32 176.92 146.21 L 176.43 145.29 C 175.83 144.17 174.43 143.75 173.32 144.35 C 172.20 144.95 171.78 146.34 172.38 147.46 Z M 172.80 148.29 L 173.23 149.19 C 173.78 150.35 175.16 150.84 176.32 150.29 C 177.48 149.74 177.97 148.35 177.42 147.19 L 176.99 146.29 C 176.44 145.14 175.05 144.64 173.89 145.19 C 172.74 145.75 172.25 147.13 172.80 148.29 Z M 173.13 149.02 L 173.47 149.92 C 173.92 151.13 175.28 151.75 176.49 151.29 C 177.70 150.83 178.31 149.48 177.86 148.27 L 177.51 147.36 C 177.06 146.15 175.71 145.54 174.50 146.00 C 173.28 146.45 172.67 147.80 173.13 149.02 Z M 173.36 149.60 L 173.59 150.61 C 173.87 151.88 175.12 152.68 176.39 152.40 C 177.66 152.13 178.46 150.87 178.18 149.60 L 177.96 148.59 C 177.68 147.32 176.43 146.52 175.16 146.80 C 173.89 147.08 173.08 148.33 173.36 149.60 Z M 173.53 150.20 L 173.57 151.17 C 173.63 152.46 174.72 153.47 176.02 153.42 C 177.32 153.36 178.33 152.27 178.28 150.97 L 178.24 150.01 C 178.18 148.71 177.09 147.70 175.79 147.75 C 174.49 147.81 173.48 148.91 173.53 150.20 Z M 173.59 150.80 L 173.48 151.76 C 173.33 153.06 174.26 154.22 175.55 154.37 C 176.84 154.51 178.01 153.59 178.16 152.29 L 178.26 151.33 C 178.41 150.04 177.48 148.87 176.19 148.73 C 174.90 148.58 173.73 149.51 173.59 150.80 Z M 173.52 151.52 L 173.31 152.48 C 173.02 153.75 173.83 155.01 175.10 155.29 C 176.37 155.57 177.62 154.76 177.90 153.49 L 178.11 152.54 C 178.40 151.27 177.59 150.01 176.32 149.73 C 175.05 149.45 173.80 150.25 173.52 151.52 Z M 173.34 152.34 L 173.07 153.29 C 172.71 154.54 173.44 155.85 174.69 156.20 C 175.94 156.56 177.24 155.84 177.60 154.59 L 177.87 153.63 C 178.23 152.38 177.50 151.08 176.25 150.72 C 175.00 150.37 173.70 151.09 173.34 152.34 Z M 173.10 153.20 L 172.78 154.17 C 172.37 155.41 173.04 156.74 174.27 157.15 C 175.51 157.55 176.84 156.88 177.25 155.65 L 177.57 154.68 C 177.98 153.44 177.30 152.11 176.07 151.70 C 174.84 151.30 173.50 151.97 173.10 153.20 Z M 172.80 154.11 L 172.45 155.07 C 172.01 156.29 172.64 157.64 173.86 158.08 C 175.09 158.52 176.44 157.89 176.88 156.67 L 177.23 155.71 C 177.67 154.49 177.04 153.14 175.81 152.70 C 174.59 152.25 173.24 152.89 172.80 154.11 Z M 172.47 155.02 L 172.11 155.96 C 171.64 157.18 172.24 158.54 173.46 159.01 C 174.67 159.47 176.03 158.87 176.50 157.66 L 176.86 156.71 C 177.33 155.50 176.72 154.14 175.51 153.67 C 174.30 153.20 172.94 153.81 172.47 155.02 Z M 172.12 155.93 L 171.74 156.87 C 171.26 158.07 171.84 159.45 173.05 159.93 C 174.25 160.42 175.63 159.83 176.11 158.62 L 176.49 157.69 C 176.97 156.48 176.39 155.11 175.18 154.62 C 173.97 154.14 172.60 154.72 172.12 155.93 Z M 171.75 156.84 L 171.37 157.75 C 170.87 158.95 171.44 160.33 172.64 160.83 C 173.85 161.33 175.23 160.76 175.73 159.56 L 176.10 158.65 C 176.60 157.45 176.03 156.07 174.83 155.57 C 173.63 155.07 172.25 155.64 171.75 156.84 Z M 171.38 157.73 L 170.99 158.64 C 170.48 159.84 171.04 161.23 172.24 161.74 C 173.44 162.24 174.83 161.68 175.34 160.48 L 175.72 159.57 C 176.23 158.37 175.67 156.99 174.47 156.48 C 173.27 155.97 171.88 156.53 171.38 157.73 Z M 170.99 158.64 L 170.63 159.49 C 170.12 160.69 170.67 162.08 171.88 162.59 C 173.08 163.10 174.46 162.54 174.98 161.34 L 175.34 160.49 C 175.85 159.29 175.29 157.90 174.09 157.39 C 172.89 156.88 171.50 157.44 170.99 158.64 Z M 170.62 159.49 L 170.28 160.31 C 169.77 161.51 170.33 162.90 171.54 163.40 C 172.74 163.91 174.13 163.35 174.63 162.15 L 174.98 161.33 C 175.49 160.13 174.92 158.75 173.72 158.24 C 172.52 157.73 171.13 158.29 170.62 159.49 Z M 170.28 160.32 L 169.91 161.20 C 169.41 162.40 169.98 163.79 171.18 164.29 C 172.39 164.79 173.77 164.22 174.27 163.02 L 174.64 162.14 C 175.14 160.93 174.57 159.55 173.37 159.05 C 172.16 158.54 170.78 159.11 170.28 160.32 Z M 169.90 161.21 L 169.51 162.18 C 169.01 163.38 169.59 164.76 170.80 165.26 C 172.01 165.75 173.39 165.17 173.88 163.97 L 174.28 163.00 C 174.77 161.79 174.19 160.41 172.99 159.92 C 171.78 159.43 170.40 160.00 169.90 161.21 Z M 169.50 162.19 L 169.07 163.26 C 168.59 164.48 169.18 165.85 170.39 166.34 C 171.60 166.82 172.97 166.23 173.46 165.02 L 173.89 163.95 C 174.37 162.74 173.79 161.36 172.57 160.88 C 171.36 160.39 169.99 160.98 169.50 162.19 Z M 169.07 163.28 L 168.71 164.19 C 168.23 165.41 168.83 166.78 170.04 167.26 C 171.26 167.73 172.63 167.14 173.11 165.92 L 173.47 165.01 C 173.94 163.79 173.35 162.42 172.13 161.94 C 170.92 161.47 169.54 162.06 169.07 163.28 Z M 168.70 164.20 L 168.35 165.11 C 167.88 166.32 168.48 167.69 169.70 168.16 C 170.92 168.64 172.29 168.03 172.76 166.82 L 173.11 165.91 C 173.58 164.70 172.98 163.33 171.76 162.85 C 170.55 162.38 169.18 162.99 168.70 164.20 Z M 168.35 165.11 L 167.99 166.05 C 167.52 167.27 168.12 168.64 169.34 169.11 C 170.56 169.58 171.93 168.97 172.40 167.75 L 172.76 166.81 C 173.23 165.60 172.63 164.23 171.41 163.76 C 170.19 163.29 168.82 163.89 168.35 165.11 Z M 167.99 166.05 L 167.61 167.01 C 167.14 168.23 167.75 169.60 168.97 170.07 C 170.19 170.54 171.56 169.93 172.03 168.72 L 172.40 167.75 C 172.87 166.54 172.26 165.17 171.04 164.70 C 169.83 164.23 168.46 164.83 167.99 166.05 Z M 167.62 167.01 L 167.24 167.97 C 166.77 169.19 167.37 170.56 168.59 171.03 C 169.81 171.51 171.18 170.90 171.65 169.68 L 172.03 168.72 C 172.50 167.50 171.89 166.13 170.68 165.66 C 169.46 165.19 168.09 165.79 167.62 167.01 Z M 167.24 167.97 L 166.87 168.92 C 166.39 170.14 167.00 171.51 168.21 171.99 C 169.43 172.46 170.80 171.86 171.28 170.64 L 171.65 169.69 C 172.13 168.47 171.52 167.10 170.31 166.62 C 169.09 166.15 167.72 166.75 167.24 167.97 Z M 166.87 168.91 L 166.49 169.87 C 166.01 171.09 166.61 172.47 167.82 172.95 C 169.04 173.43 170.41 172.83 170.89 171.62 L 171.27 170.65 C 171.76 169.44 171.16 168.06 169.95 167.58 C 168.73 167.10 167.35 167.69 166.87 168.91 Z M 166.50 169.86 L 166.07 170.92 C 165.58 172.13 166.17 173.51 167.38 174.00 C 168.59 174.49 169.97 173.90 170.46 172.69 L 170.89 171.63 C 171.38 170.42 170.79 169.04 169.58 168.55 C 168.36 168.06 166.99 168.65 166.50 169.86 Z M 166.07 170.91 L 165.67 171.90 C 165.17 173.11 165.75 174.50 166.96 174.99 C 168.17 175.49 169.56 174.91 170.05 173.70 L 170.46 172.70 C 170.95 171.49 170.37 170.11 169.16 169.61 C 167.95 169.12 166.57 169.70 166.07 170.91 Z M 165.67 171.90 L 165.29 172.83 C 164.79 174.03 165.36 175.42 166.57 175.92 C 167.78 176.42 169.17 175.84 169.67 174.63 L 170.05 173.70 C 170.55 172.49 169.97 171.11 168.76 170.61 C 167.55 170.11 166.17 170.69 165.67 171.90 Z M 165.29 172.82 L 164.93 173.68 C 164.43 174.89 165.01 176.28 166.22 176.78 C 167.43 177.28 168.81 176.70 169.31 175.49 L 169.67 174.63 C 170.17 173.42 169.59 172.04 168.38 171.54 C 167.17 171.04 165.78 171.61 165.29 172.82 Z M 164.93 173.69 L 164.60 174.48 C 164.11 175.69 164.69 177.07 165.90 177.57 C 167.11 178.07 168.50 177.49 168.99 176.27 L 169.32 175.49 C 169.81 174.27 169.23 172.89 168.02 172.39 C 166.81 171.90 165.42 172.48 164.93 173.69 Z M 164.60 174.49 L 164.22 175.43 C 163.74 176.64 164.33 178.02 165.55 178.51 C 166.76 179.00 168.14 178.40 168.63 177.19 L 169.00 176.26 C 169.49 175.04 168.90 173.66 167.68 173.17 C 166.46 172.69 165.08 173.28 164.60 174.49 Z M 164.22 175.45 L 163.86 176.35 C 163.39 177.57 163.99 178.95 165.21 179.43 C 166.43 179.90 167.81 179.30 168.28 178.08 L 168.64 177.17 C 169.11 175.95 168.51 174.57 167.29 174.10 C 166.07 173.62 164.69 174.22 164.22 175.45 Z M 163.86 176.36 L 163.51 177.25 C 163.04 178.48 163.65 179.85 164.88 180.32 C 166.10 180.79 167.47 180.18 167.94 178.96 L 168.29 178.07 C 168.76 176.85 168.15 175.47 166.92 175.00 C 165.70 174.53 164.33 175.14 163.86 176.36 Z M 163.52 177.25 L 163.15 178.20 C 162.67 179.42 163.28 180.79 164.50 181.27 C 165.72 181.74 167.10 181.14 167.57 179.91 L 167.94 178.97 C 168.41 177.74 167.81 176.37 166.59 175.90 C 165.36 175.42 163.99 176.03 163.52 177.25 Z M 163.15 178.18 L 162.86 178.94 C 162.37 180.16 162.97 181.53 164.19 182.01 C 165.41 182.50 166.79 181.90 167.27 180.68 L 167.57 179.93 C 168.05 178.71 167.45 177.33 166.23 176.85 C 165.01 176.37 163.63 176.96 163.15 178.18 Z M 162.86 178.93 L 162.54 179.72 C 162.06 180.94 162.65 182.32 163.87 182.81 C 165.08 183.29 166.46 182.70 166.95 181.48 L 167.27 180.69 C 167.75 179.47 167.16 178.09 165.94 177.60 C 164.73 177.12 163.35 177.71 162.86 178.93 Z M 162.54 179.72 L 162.19 180.59 C 161.70 181.81 162.29 183.19 163.51 183.68 C 164.72 184.17 166.11 183.58 166.60 182.37 L 166.95 181.49 C 167.44 180.27 166.85 178.89 165.63 178.40 C 164.42 177.91 163.03 178.50 162.54 179.72 Z M 162.19 180.59 L 161.80 181.56 C 161.31 182.78 161.90 184.16 163.11 184.65 C 164.33 185.14 165.71 184.56 166.20 183.34 L 166.59 182.37 C 167.09 181.15 166.50 179.77 165.28 179.28 C 164.07 178.79 162.68 179.37 162.19 180.59 Z M 161.80 181.56 L 161.37 182.63 C 160.87 183.85 161.46 185.23 162.68 185.72 C 163.89 186.22 165.28 185.63 165.77 184.41 L 166.20 183.34 C 166.69 182.13 166.11 180.74 164.89 180.25 C 163.68 179.76 162.29 180.34 161.80 181.56 Z M 161.37 182.63 L 160.92 183.72 C 160.43 184.94 161.02 186.32 162.24 186.81 C 163.45 187.31 164.84 186.72 165.33 185.50 L 165.77 184.41 C 166.26 183.20 165.67 181.81 164.46 181.32 C 163.24 180.83 161.86 181.42 161.37 182.63 Z M 160.92 183.72 L 160.56 184.62 C 160.07 185.83 160.66 187.22 161.87 187.71 C 163.09 188.20 164.47 187.61 164.97 186.40 L 165.33 185.50 C 165.82 184.29 165.23 182.90 164.02 182.41 C 162.80 181.92 161.42 182.51 160.92 183.72 Z M 160.56 184.62 L 160.18 185.55 C 159.69 186.77 160.28 188.15 161.50 188.65 C 162.71 189.14 164.10 188.55 164.59 187.33 L 164.97 186.40 C 165.46 185.18 164.87 183.80 163.65 183.30 C 162.44 182.81 161.05 183.40 160.56 184.62 Z M 160.18 185.56 L 159.80 186.52 C 159.31 187.73 159.90 189.12 161.11 189.61 C 162.33 190.10 163.71 189.51 164.20 188.29 L 164.59 187.33 C 165.08 186.11 164.49 184.73 163.27 184.24 C 162.06 183.75 160.67 184.34 160.18 185.56 Z M 159.80 186.52 L 159.41 187.49 C 158.92 188.71 159.51 190.09 160.73 190.58 C 161.94 191.07 163.33 190.48 163.81 189.26 L 164.20 188.29 C 164.69 187.07 164.10 185.69 162.88 185.20 C 161.67 184.71 160.28 185.30 159.80 186.52 Z M 159.41 187.49 L 159.02 188.45 C 158.53 189.67 159.13 191.05 160.34 191.54 C 161.56 192.03 162.94 191.44 163.43 190.22 L 163.82 189.25 C 164.30 188.04 163.71 186.65 162.49 186.17 C 161.27 185.68 159.89 186.27 159.41 187.49 Z M 159.02 188.46 L 158.64 189.40 C 158.16 190.62 158.75 192.00 159.97 192.48 C 161.19 192.97 162.57 192.37 163.06 191.16 L 163.43 190.21 C 163.92 189.00 163.32 187.61 162.10 187.13 C 160.88 186.64 159.50 187.24 159.02 188.46 Z M 158.64 189.40 L 158.28 190.31 C 157.80 191.53 158.40 192.91 159.62 193.39 C 160.84 193.87 162.22 193.27 162.70 192.05 L 163.06 191.15 C 163.54 189.93 162.94 188.55 161.72 188.07 C 160.50 187.59 159.12 188.18 158.64 189.40 Z M 158.28 190.31 L 157.91 191.26 C 157.43 192.48 158.04 193.86 159.26 194.34 C 160.48 194.81 161.86 194.21 162.34 192.99 L 162.71 192.05 C 163.18 190.83 162.58 189.45 161.36 188.97 C 160.14 188.49 158.76 189.09 158.28 190.31 Z M 157.91 191.27 L 157.48 192.38 C 157.01 193.60 157.61 194.98 158.84 195.45 C 160.06 195.92 161.44 195.32 161.91 194.09 L 162.34 192.98 C 162.81 191.76 162.20 190.38 160.98 189.91 C 159.76 189.44 158.38 190.04 157.91 191.27 Z M 157.48 192.39 L 157.09 193.39 C 156.63 194.62 157.24 195.99 158.47 196.46 C 159.69 196.92 161.06 196.31 161.53 195.08 L 161.91 194.08 C 162.38 192.86 161.77 191.48 160.54 191.02 C 159.32 190.55 157.94 191.16 157.48 192.39 Z M 157.09 193.40 L 156.75 194.31 C 156.28 195.53 156.90 196.91 158.13 197.37 C 159.35 197.83 160.73 197.21 161.19 195.99 L 161.53 195.08 C 162.00 193.85 161.38 192.48 160.15 192.01 C 158.93 191.55 157.55 192.17 157.09 193.40 Z M 156.75 194.31 L 156.43 195.15 C 155.97 196.38 156.59 197.75 157.81 198.21 C 159.04 198.67 160.41 198.05 160.87 196.83 L 161.19 195.99 C 161.65 194.76 161.03 193.39 159.81 192.92 C 158.58 192.46 157.21 193.08 156.75 194.31 Z M 156.43 195.15 L 156.13 195.94 C 155.67 197.16 156.28 198.53 157.51 199.00 C 158.74 199.46 160.11 198.85 160.57 197.62 L 160.87 196.83 C 161.34 195.60 160.72 194.23 159.49 193.77 C 158.26 193.30 156.89 193.92 156.43 195.15 Z M 156.13 195.93 L 155.78 196.85 C 155.31 198.08 155.92 199.45 157.15 199.92 C 158.37 200.39 159.75 199.78 160.22 198.55 L 160.57 197.63 C 161.04 196.40 160.43 195.03 159.20 194.56 C 157.98 194.09 156.60 194.70 156.13 195.93 Z M 155.78 196.85 L 155.41 197.80 C 154.94 199.03 155.55 200.40 156.77 200.87 C 158.00 201.35 159.37 200.74 159.84 199.51 L 160.21 198.56 C 160.69 197.33 160.08 195.96 158.85 195.49 C 157.63 195.01 156.25 195.62 155.78 196.85 Z M 155.41 197.81 L 155.06 198.74 C 154.59 199.97 155.20 201.34 156.43 201.81 C 157.65 202.27 159.03 201.66 159.49 200.43 L 159.85 199.51 C 160.31 198.28 159.70 196.91 158.47 196.44 C 157.25 195.97 155.88 196.59 155.41 197.81 Z M 155.05 198.77 L 154.71 199.67 C 154.26 200.90 154.89 202.27 156.12 202.72 C 157.35 203.17 158.72 202.54 159.17 201.31 L 159.50 200.41 C 159.96 199.18 159.33 197.81 158.10 197.36 C 156.86 196.90 155.50 197.53 155.05 198.77 Z M 154.70 199.71 L 154.37 200.66 C 153.94 201.90 154.60 203.25 155.84 203.68 C 157.08 204.11 158.43 203.45 158.86 202.21 L 159.18 201.27 C 159.61 200.03 158.96 198.68 157.72 198.25 C 156.48 197.82 155.13 198.48 154.70 199.71 Z M 154.35 200.71 L 154.04 201.68 C 153.64 202.93 154.33 204.27 155.58 204.67 C 156.82 205.07 158.16 204.38 158.56 203.14 L 158.87 202.16 C 159.28 200.91 158.59 199.57 157.34 199.17 C 156.09 198.77 154.75 199.46 154.35 200.71 Z M 154.03 201.73 L 153.74 202.69 C 153.37 203.95 154.08 205.27 155.34 205.64 C 156.59 206.02 157.91 205.30 158.29 204.05 L 158.57 203.09 C 158.95 201.83 158.24 200.51 156.98 200.14 C 155.72 199.76 154.40 200.48 154.03 201.73 Z M 153.73 202.73 L 153.47 203.66 C 153.12 204.92 153.85 206.23 155.12 206.59 C 156.38 206.94 157.69 206.20 158.04 204.94 L 158.30 204.01 C 158.65 202.75 157.91 201.44 156.65 201.08 C 155.39 200.73 154.08 201.47 153.73 202.73 Z M 153.46 203.70 L 153.21 204.68 C 152.87 205.94 153.63 207.24 154.89 207.57 C 156.16 207.90 157.45 207.15 157.78 205.89 L 158.04 204.91 C 158.38 203.64 157.62 202.35 156.36 202.01 C 155.09 201.68 153.80 202.43 153.46 203.70 Z M 153.21 204.71 L 152.96 205.69 C 152.64 206.95 153.41 208.23 154.67 208.55 C 155.94 208.87 157.22 208.10 157.54 206.84 L 157.78 205.86 C 158.10 204.59 157.33 203.31 156.07 202.99 C 154.81 202.68 153.53 203.44 153.21 204.71 Z M 152.97 205.70 L 152.73 206.66 C 152.42 207.92 153.20 209.19 154.46 209.50 C 155.72 209.81 156.99 209.04 157.30 207.78 L 157.53 206.82 C 157.84 205.56 157.07 204.29 155.81 203.98 C 154.55 203.67 153.27 204.44 152.97 205.70 Z M 152.74 206.66 L 152.51 207.62 C 152.20 208.87 152.97 210.14 154.23 210.45 C 155.48 210.75 156.75 209.98 157.06 208.73 L 157.29 207.77 C 157.59 206.52 156.82 205.25 155.57 204.94 C 154.31 204.64 153.05 205.41 152.74 206.66 Z M 152.52 207.61 L 152.27 208.59 C 151.96 209.85 152.73 211.11 153.98 211.42 C 155.23 211.73 156.50 210.96 156.81 209.71 L 157.05 208.73 C 157.36 207.48 156.59 206.21 155.34 205.91 C 154.09 205.60 152.83 206.36 152.52 207.61 Z M 152.28 208.59 L 152.04 209.55 C 151.72 210.80 152.48 212.07 153.73 212.38 C 154.98 212.69 156.24 211.94 156.56 210.69 L 156.80 209.72 C 157.11 208.47 156.36 207.21 155.11 206.89 C 153.86 206.58 152.59 207.34 152.28 208.59 Z M 152.04 209.55 L 151.80 210.50 C 151.48 211.74 152.24 213.01 153.48 213.33 C 154.72 213.64 155.99 212.89 156.31 211.65 L 156.55 210.70 C 156.87 209.45 156.12 208.18 154.87 207.87 C 153.63 207.55 152.36 208.30 152.04 209.55 Z M 151.82 210.48 L 151.57 211.43 C 151.25 212.66 151.99 213.92 153.22 214.25 C 154.45 214.57 155.72 213.83 156.04 212.60 L 156.29 211.66 C 156.61 210.42 155.88 209.16 154.64 208.84 C 153.41 208.51 152.14 209.25 151.82 210.48 Z M 151.60 211.39 L 151.34 212.34 C 150.99 213.56 151.70 214.83 152.92 215.17 C 154.13 215.51 155.40 214.80 155.74 213.59 L 156.01 212.63 C 156.35 211.42 155.65 210.15 154.43 209.81 C 153.21 209.47 151.95 210.17 151.60 211.39 Z M 151.37 212.29 L 151.07 213.28 C 150.69 214.47 151.36 215.74 152.55 216.12 C 153.75 216.49 155.02 215.83 155.39 214.63 L 155.70 213.64 C 156.08 212.45 155.41 211.18 154.22 210.80 C 153.02 210.43 151.75 211.09 151.37 212.29 Z M 151.11 213.22 L 150.79 214.12 C 150.39 215.30 151.01 216.57 152.18 216.98 C 153.35 217.39 154.63 216.77 155.03 215.60 L 155.35 214.69 C 155.76 213.52 155.14 212.24 153.97 211.83 C 152.79 211.43 151.52 212.05 151.11 213.22 Z M 150.83 214.09 L 150.48 215.02 C 150.06 216.17 150.64 217.45 151.79 217.88 C 152.94 218.31 154.22 217.72 154.65 216.57 L 155.00 215.63 C 155.42 214.48 154.84 213.21 153.69 212.78 C 152.54 212.35 151.26 212.94 150.83 214.09 Z M 150.51 215.00 L 150.15 215.96 C 149.71 217.09 150.27 218.37 151.41 218.80 C 152.54 219.24 153.81 218.67 154.25 217.54 L 154.62 216.59 C 155.06 215.45 154.49 214.18 153.36 213.74 C 152.22 213.31 150.95 213.87 150.51 215.00 Z M 150.17 215.96 L 149.90 216.64 C 149.46 217.76 150.02 219.03 151.14 219.47 C 152.26 219.90 153.52 219.35 153.96 218.23 L 154.23 217.54 C 154.67 216.42 154.11 215.16 152.99 214.72 C 151.87 214.28 150.61 214.83 150.17 215.96 Z"
      fill="black"
      fill-rule="nonzero" /></svg>