<svg xmlns="http://www.w3.org/2000/svg" width="300" height="300" viewBox="0 0 300 300">
<path d="M 93.63 173.13 L 94.39 173.72 C 95.24 174.38 96.47 174.22 97.13 173.37 C 97.78 172.51 97.63 171.29 96.77 170.63 L 96.01 170.04 C 95.16 169.38 93.93 169.54 93.28 170.39 C 92.62 171.24 92.78 172.47 93.63 173.13 Z M 94.32 173.71 L 95.08 174.34 C 95.93 175.04 97.18 174.91 97.88 174.06 C 98.58 173.21 98.46 171.96 97.61 171.26 L 96.85 170.64 C 96.00 169.94 94.74 170.06 94.04 170.91 C 93.35 171.76 93.47 173.01 94.32 173.71 Z M 94.96 174.29 L 95.72 174.99 C 96.54 175.75 97.83 175.70 98.59 174.87 C 99.35 174.04 99.30 172.76 98.47 172.00 L 97.72 171.30 C 96.90 170.54 95.61 170.59 94.85 171.42 C 94.09 172.25 94.14 173.53 94.96 174.29 Z M 95.59 174.91 L 96.26 175.63 C 97.04 176.46 98.35 176.50 99.18 175.72 C 100.02 174.94 100.06 173.63 99.28 172.80 L 98.60 172.08 C 97.82 171.24 96.51 171.20 95.68 171.98 C 94.85 172.77 94.81 174.07 95.59 174.91 Z M 96.16 175.54 L 96.78 176.29 C 97.52 177.17 98.83 177.30 99.72 176.56 C 100.61 175.82 100.73 174.51 99.99 173.62 L 99.38 172.88 C 98.64 171.99 97.32 171.87 96.44 172.60 C 95.55 173.34 95.43 174.66 96.16 175.54 Z M 96.71 176.23 L 97.32 177.03 C 98.03 177.95 99.35 178.13 100.27 177.43 C 101.19 176.72 101.37 175.40 100.67 174.48 L 100.06 173.68 C 99.35 172.76 98.03 172.58 97.11 173.28 C 96.19 173.98 96.01 175.30 96.71 176.23 Z M 97.28 176.99 L 97.89 177.84 C 98.57 178.79 99.89 179.00 100.84 178.32 C 101.79 177.63 102.01 176.31 101.32 175.36 L 100.72 174.52 C 100.03 173.57 98.71 173.35 97.76 174.04 C 96.81 174.72 96.60 176.04 97.28 176.99 Z M 97.86 177.82 L 98.43 178.63 C 99.10 179.60 100.42 179.83 101.39 179.16 C 102.35 178.49 102.59 177.16 101.92 176.20 L 101.35 175.38 C 100.68 174.42 99.35 174.18 98.39 174.85 C 97.42 175.52 97.19 176.85 97.86 177.82 Z M 98.41 178.62 L 98.94 179.40 C 99.61 180.37 100.93 180.63 101.91 179.96 C 102.88 179.30 103.13 177.97 102.47 177.00 L 101.93 176.21 C 101.27 175.24 99.95 174.99 98.97 175.65 C 98.00 176.32 97.75 177.64 98.41 178.62 Z M 98.93 179.38 L 99.47 180.19 C 100.12 181.18 101.45 181.44 102.43 180.79 C 103.41 180.14 103.68 178.82 103.03 177.84 L 102.48 177.02 C 101.83 176.04 100.51 175.77 99.53 176.42 C 98.55 177.07 98.28 178.40 98.93 179.38 Z M 99.46 180.17 L 100.01 181.03 C 100.65 182.02 101.97 182.30 102.96 181.66 C 103.95 181.03 104.23 179.71 103.59 178.72 L 103.04 177.86 C 102.40 176.87 101.08 176.58 100.09 177.22 C 99.10 177.86 98.82 179.18 99.46 180.17 Z M 99.99 181.00 L 100.56 181.91 C 101.19 182.91 102.50 183.22 103.50 182.59 C 104.50 181.96 104.80 180.65 104.18 179.65 L 103.61 178.74 C 102.98 177.74 101.67 177.44 100.67 178.06 C 99.67 178.69 99.37 180.01 99.99 181.00 Z M 100.55 181.89 L 101.08 182.76 C 101.69 183.77 103.00 184.09 104.01 183.48 C 105.02 182.86 105.34 181.55 104.72 180.55 L 104.19 179.67 C 103.58 178.67 102.27 178.35 101.26 178.96 C 100.25 179.57 99.93 180.88 100.55 181.89 Z M 101.07 182.74 L 101.60 183.63 C 102.20 184.65 103.51 184.98 104.52 184.38 C 105.53 183.78 105.87 182.47 105.26 181.45 L 104.74 180.56 C 104.13 179.55 102.82 179.22 101.81 179.82 C 100.80 180.42 100.47 181.73 101.07 182.74 Z M 101.59 183.62 L 102.11 184.51 C 102.70 185.53 104.01 185.87 105.03 185.28 C 106.04 184.69 106.39 183.38 105.79 182.36 L 105.27 181.47 C 104.68 180.45 103.37 180.11 102.36 180.70 C 101.34 181.30 100.99 182.60 101.59 183.62 Z M 102.10 184.50 L 102.60 185.37 C 103.19 186.39 104.49 186.75 105.51 186.16 C 106.54 185.57 106.89 184.27 106.30 183.25 L 105.80 182.38 C 105.22 181.35 103.91 181.00 102.89 181.59 C 101.87 182.17 101.52 183.48 102.10 184.50 Z M 102.60 185.36 L 103.06 186.18 C 103.64 187.21 104.94 187.57 105.97 186.99 C 106.99 186.41 107.35 185.11 106.78 184.09 L 106.31 183.26 C 105.73 182.24 104.43 181.87 103.40 182.45 C 102.38 183.03 102.02 184.33 102.60 185.36 Z M 103.06 186.17 L 103.58 187.12 C 104.15 188.14 105.45 188.52 106.48 187.94 C 107.51 187.37 107.88 186.07 107.31 185.05 L 106.78 184.10 C 106.21 183.07 104.91 182.70 103.88 183.27 C 102.85 183.84 102.48 185.14 103.06 186.17 Z M 103.57 187.10 L 104.07 188.02 C 104.64 189.05 105.93 189.43 106.97 188.87 C 108.00 188.30 108.38 187.01 107.82 185.98 L 107.32 185.06 C 106.75 184.02 105.46 183.64 104.42 184.21 C 103.39 184.77 103.01 186.07 103.57 187.10 Z M 104.07 188.01 L 104.52 188.85 C 105.08 189.88 106.38 190.27 107.41 189.71 C 108.45 189.14 108.83 187.85 108.27 186.81 L 107.82 185.98 C 107.26 184.95 105.96 184.56 104.93 185.12 C 103.89 185.68 103.51 186.98 104.07 188.01 Z M 104.52 188.85 L 104.96 189.64 C 105.52 190.68 106.82 191.06 107.85 190.49 C 108.89 189.93 109.27 188.63 108.70 187.60 L 108.27 186.81 C 107.70 185.77 106.41 185.39 105.37 185.96 C 104.34 186.52 103.96 187.82 104.52 188.85 Z M 104.96 189.66 L 105.44 190.52 C 106.02 191.55 107.32 191.92 108.35 191.34 C 109.38 190.77 109.75 189.47 109.17 188.44 L 108.69 187.58 C 108.12 186.55 106.82 186.18 105.79 186.76 C 104.76 187.33 104.39 188.63 104.96 189.66 Z M 105.45 190.53 L 105.94 191.40 C 106.52 192.43 107.83 192.79 108.86 192.20 C 109.88 191.62 110.24 190.32 109.66 189.29 L 109.17 188.42 C 108.58 187.40 107.28 187.04 106.25 187.62 C 105.23 188.20 104.87 189.51 105.45 190.53 Z M 105.94 191.40 L 106.44 192.28 C 107.02 193.31 108.33 193.66 109.36 193.08 C 110.38 192.50 110.74 191.19 110.16 190.16 L 109.66 189.29 C 109.08 188.26 107.77 187.90 106.74 188.49 C 105.72 189.07 105.36 190.38 105.94 191.40 Z M 106.43 192.27 L 106.92 193.14 C 107.50 194.17 108.81 194.53 109.84 193.95 C 110.87 193.37 111.23 192.07 110.65 191.04 L 110.16 190.17 C 109.58 189.14 108.28 188.78 107.25 189.36 C 106.22 189.94 105.85 191.24 106.43 192.27 Z M 106.92 193.13 L 107.40 194.00 C 107.98 195.03 109.28 195.40 110.31 194.82 C 111.35 194.25 111.72 192.94 111.14 191.91 L 110.66 191.04 C 110.08 190.01 108.78 189.64 107.74 190.22 C 106.71 190.79 106.34 192.10 106.92 193.13 Z M 107.40 193.99 L 107.89 194.87 C 108.46 195.90 109.77 196.28 110.80 195.70 C 111.83 195.12 112.20 193.82 111.63 192.79 L 111.14 191.91 C 110.57 190.88 109.26 190.51 108.23 191.08 C 107.19 191.66 106.82 192.96 107.40 193.99 Z M 107.89 194.87 L 108.38 195.76 C 108.96 196.79 110.27 197.16 111.30 196.59 C 112.33 196.01 112.70 194.70 112.12 193.67 L 111.63 192.78 C 111.05 191.75 109.75 191.38 108.71 191.96 C 107.68 192.54 107.31 193.84 107.89 194.87 Z M 108.39 195.77 L 108.87 196.62 C 109.45 197.65 110.76 198.02 111.79 197.44 C 112.82 196.86 113.18 195.55 112.60 194.52 L 112.12 193.66 C 111.54 192.63 110.23 192.27 109.20 192.85 C 108.17 193.43 107.81 194.74 108.39 195.77 Z M 108.87 196.63 L 109.36 197.49 C 109.95 198.52 111.25 198.89 112.28 198.30 C 113.31 197.72 113.67 196.42 113.09 195.39 L 112.60 194.52 C 112.02 193.49 110.71 193.13 109.68 193.71 C 108.65 194.29 108.29 195.60 108.87 196.63 Z M 109.36 197.49 L 109.86 198.37 C 110.44 199.40 111.75 199.77 112.78 199.18 C 113.81 198.60 114.17 197.30 113.59 196.27 L 113.09 195.39 C 112.51 194.36 111.20 193.99 110.17 194.58 C 109.14 195.16 108.78 196.46 109.36 197.49 Z M 109.85 198.36 L 110.35 199.25 C 110.93 200.29 112.23 200.65 113.27 200.08 C 114.30 199.50 114.67 198.19 114.09 197.16 L 113.59 196.27 C 113.01 195.24 111.71 194.87 110.68 195.45 C 109.65 196.03 109.28 197.33 109.85 198.36 Z M 110.35 199.24 L 110.84 200.14 C 111.42 201.17 112.72 201.55 113.75 200.97 C 114.79 200.40 115.16 199.10 114.59 198.06 L 114.09 197.17 C 113.52 196.14 112.22 195.76 111.18 196.34 C 110.15 196.91 109.78 198.21 110.35 199.24 Z M 110.84 200.13 L 111.33 201.02 C 111.90 202.05 113.20 202.43 114.23 201.86 C 115.27 201.29 115.65 199.99 115.08 198.95 L 114.59 198.07 C 114.02 197.03 112.72 196.66 111.68 197.23 C 110.65 197.80 110.27 199.10 110.84 200.13 Z M 111.33 201.01 L 111.80 201.87 C 112.37 202.91 113.67 203.29 114.70 202.72 C 115.74 202.15 116.12 200.85 115.55 199.82 L 115.08 198.96 C 114.51 197.92 113.21 197.54 112.17 198.11 C 111.14 198.68 110.76 199.98 111.33 201.01 Z M 111.80 201.88 L 112.26 202.71 C 112.83 203.74 114.13 204.12 115.16 203.55 C 116.20 202.98 116.57 201.68 116.01 200.65 L 115.55 199.82 C 114.98 198.78 113.68 198.41 112.64 198.97 C 111.61 199.54 111.23 200.84 111.80 201.88 Z M 112.27 202.71 L 112.73 203.54 C 113.30 204.57 114.60 204.95 115.63 204.37 C 116.66 203.80 117.03 202.51 116.46 201.47 L 116.00 200.65 C 115.43 199.62 114.13 199.24 113.10 199.81 C 112.07 200.39 111.70 201.68 112.27 202.71 Z M 112.73 203.55 L 113.21 204.41 C 113.79 205.44 115.08 205.80 116.11 205.23 C 117.14 204.66 117.51 203.36 116.93 202.33 L 116.45 201.47 C 115.88 200.44 114.58 200.07 113.55 200.65 C 112.53 201.22 112.16 202.52 112.73 203.55 Z M 113.22 204.41 L 113.75 205.36 C 114.33 206.39 115.62 206.75 116.65 206.18 C 117.67 205.60 118.04 204.30 117.46 203.28 L 116.93 202.33 C 116.35 201.31 115.06 200.94 114.03 201.52 C 113.01 202.09 112.64 203.39 113.22 204.41 Z M 113.76 205.36 L 114.22 206.18 C 114.79 207.20 116.09 207.56 117.11 206.99 C 118.13 206.41 118.49 205.12 117.92 204.09 L 117.46 203.28 C 116.88 202.25 115.58 201.89 114.56 202.47 C 113.54 203.05 113.18 204.34 113.76 205.36 Z M 114.22 206.19 L 114.71 207.05 C 115.29 208.07 116.59 208.42 117.61 207.85 C 118.63 207.27 118.98 205.97 118.40 204.95 L 117.91 204.09 C 117.33 203.07 116.04 202.71 115.02 203.29 C 114.00 203.87 113.64 205.17 114.22 206.19 Z M 114.72 207.06 L 115.23 207.95 C 115.82 208.96 117.11 209.31 118.13 208.73 C 119.14 208.14 119.49 206.85 118.91 205.83 L 118.39 204.94 C 117.81 203.93 116.51 203.58 115.50 204.16 C 114.49 204.75 114.14 206.04 114.72 207.06 Z M 115.24 207.96 L 115.77 208.85 C 116.36 209.86 117.65 210.20 118.66 209.61 C 119.67 209.02 120.01 207.72 119.42 206.71 L 118.90 205.82 C 118.31 204.81 117.01 204.47 116.00 205.06 C 114.99 205.66 114.65 206.95 115.24 207.96 Z M 115.78 208.87 L 116.31 209.76 C 116.91 210.76 118.21 211.09 119.21 210.49 C 120.21 209.89 120.54 208.59 119.94 207.58 L 119.41 206.70 C 118.81 205.69 117.51 205.37 116.51 205.97 C 115.50 206.57 115.18 207.87 115.78 208.87 Z M 116.32 209.78 L 116.89 210.70 C 117.50 211.69 118.81 212.00 119.80 211.39 C 120.80 210.77 121.11 209.47 120.49 208.47 L 119.93 207.56 C 119.31 206.56 118.01 206.26 117.01 206.87 C 116.02 207.48 115.71 208.79 116.32 209.78 Z M 116.90 210.73 L 117.45 211.59 C 118.08 212.58 119.39 212.87 120.38 212.24 C 121.37 211.61 121.66 210.30 121.03 209.31 L 120.48 208.45 C 119.85 207.46 118.54 207.17 117.55 207.80 C 116.56 208.43 116.27 209.74 116.90 210.73 Z M 117.46 211.61 L 117.99 212.42 C 118.64 213.41 119.95 213.68 120.94 213.04 C 121.92 212.39 122.19 211.07 121.55 210.09 L 121.02 209.28 C 120.37 208.30 119.05 208.02 118.07 208.67 C 117.09 209.31 116.82 210.63 117.46 211.61 Z M 118.00 212.45 L 118.52 213.21 C 119.17 214.19 120.50 214.45 121.47 213.79 C 122.45 213.13 122.71 211.81 122.05 210.83 L 121.54 210.07 C 120.88 209.09 119.56 208.83 118.58 209.49 C 117.60 210.15 117.34 211.47 118.00 212.45 Z M 118.52 213.24 L 119.11 214.08 C 119.78 215.05 121.11 215.29 122.08 214.62 C 123.06 213.95 123.30 212.61 122.63 211.64 L 122.04 210.80 C 121.37 209.83 120.04 209.59 119.07 210.26 C 118.09 210.93 117.85 212.27 118.52 213.24 Z M 119.11 214.12 L 119.69 214.92 C 120.39 215.89 121.73 216.11 122.70 215.42 C 123.67 214.73 123.89 213.38 123.20 212.42 L 122.62 211.61 C 121.92 210.64 120.58 210.42 119.61 211.11 C 118.64 211.80 118.42 213.15 119.11 214.12 Z M 119.71 214.97 L 120.29 215.75 C 121.01 216.71 122.37 216.91 123.33 216.20 C 124.29 215.48 124.49 214.12 123.77 213.16 L 123.18 212.37 C 122.47 211.41 121.11 211.22 120.15 211.93 C 119.19 212.65 118.99 214.01 119.71 214.97 Z M 120.31 215.80 L 120.92 216.58 C 121.66 217.53 123.03 217.70 123.98 216.96 C 124.93 216.22 125.10 214.85 124.36 213.90 L 123.75 213.12 C 123.01 212.17 121.64 211.99 120.69 212.73 C 119.74 213.47 119.57 214.85 120.31 215.80 Z M 120.94 216.62 L 121.58 217.41 C 122.34 218.35 123.72 218.49 124.66 217.73 C 125.60 216.97 125.75 215.58 124.98 214.64 L 124.34 213.86 C 123.58 212.92 122.20 212.77 121.26 213.54 C 120.32 214.30 120.18 215.68 120.94 216.62 Z M 121.60 217.45 L 122.25 218.22 C 123.04 219.15 124.43 219.26 125.36 218.48 C 126.29 217.69 126.40 216.30 125.61 215.37 L 124.96 214.60 C 124.17 213.67 122.78 213.56 121.85 214.35 C 120.92 215.13 120.81 216.52 121.60 217.45 Z M 122.28 218.27 L 122.94 219.01 C 123.76 219.92 125.16 220.00 126.07 219.18 C 126.98 218.37 127.06 216.97 126.24 216.06 L 125.58 215.32 C 124.77 214.41 123.37 214.33 122.46 215.15 C 121.55 215.96 121.47 217.36 122.28 218.27 Z M 122.99 219.09 L 123.83 219.95 C 124.69 220.83 126.10 220.85 126.99 219.99 C 127.87 219.13 127.89 217.72 127.03 216.84 L 126.19 215.98 C 125.33 215.10 123.92 215.08 123.04 215.94 C 122.15 216.80 122.14 218.21 122.99 219.09 Z M 124.12 220.24 L 124.94 220.82 C 125.96 221.54 127.37 221.30 128.09 220.28 C 128.82 219.26 128.58 217.85 127.56 217.13 L 126.74 216.55 C 125.72 215.83 124.31 216.07 123.59 217.09 C 122.86 218.10 123.10 219.52 124.12 220.24 Z M 126.89 221.18 L 127.45 221.01 C 128.66 220.66 129.36 219.39 129.00 218.17 C 128.65 216.96 127.38 216.26 126.16 216.61 L 125.61 216.78 C 124.39 217.13 123.70 218.40 124.05 219.62 C 124.40 220.83 125.68 221.53 126.89 221.18 Z M 128.99 219.53 L 129.22 218.85 C 129.61 217.64 128.95 216.34 127.75 215.94 C 126.54 215.55 125.23 216.21 124.84 217.42 L 124.62 218.10 C 124.22 219.31 124.88 220.61 126.09 221.00 C 127.30 221.40 128.60 220.74 128.99 219.53 Z M 129.31 218.42 L 129.44 217.40 C 129.60 216.14 128.71 214.99 127.44 214.83 C 126.18 214.67 125.03 215.56 124.87 216.83 L 124.74 217.84 C 124.59 219.11 125.48 220.26 126.74 220.42 C 128.00 220.58 129.15 219.68 129.31 218.42 Z M 129.45 217.32 L 129.55 216.13 C 129.66 214.87 128.73 213.75 127.46 213.64 C 126.20 213.53 125.08 214.46 124.97 215.73 L 124.87 216.91 C 124.76 218.18 125.69 219.29 126.95 219.40 C 128.22 219.52 129.33 218.58 129.45 217.32 Z M 129.54 216.21 L 129.67 215.12 C 129.83 213.87 128.94 212.72 127.68 212.57 C 126.42 212.41 125.27 213.30 125.12 214.56 L 124.98 215.65 C 124.83 216.91 125.72 218.05 126.98 218.21 C 128.24 218.36 129.38 217.47 129.54 216.21 Z M 129.64 215.28 L 129.82 214.33 C 130.06 213.09 129.25 211.89 128.01 211.65 C 126.77 211.41 125.57 212.23 125.33 213.47 L 125.15 214.41 C 124.91 215.65 125.72 216.85 126.96 217.09 C 128.20 217.33 129.40 216.52 129.64 215.28 Z M 129.79 214.47 L 130.03 213.53 C 130.34 212.31 129.61 211.07 128.39 210.76 C 127.17 210.44 125.92 211.17 125.61 212.39 L 125.37 213.33 C 125.05 214.55 125.79 215.79 127.01 216.11 C 128.23 216.42 129.47 215.69 129.79 214.47 Z M 129.99 213.65 L 130.29 212.68 C 130.67 211.48 130.00 210.21 128.80 209.83 C 127.60 209.45 126.33 210.12 125.95 211.32 L 125.65 212.28 C 125.27 213.48 125.94 214.76 127.14 215.13 C 128.34 215.51 129.61 214.84 129.99 213.65 Z M 130.26 212.76 L 130.61 211.76 C 131.03 210.58 130.42 209.28 129.24 208.86 C 128.05 208.44 126.76 209.06 126.34 210.24 L 125.98 211.24 C 125.56 212.42 126.18 213.72 127.36 214.14 C 128.54 214.56 129.84 213.94 130.26 212.76 Z M 130.59 211.81 L 130.94 210.90 C 131.38 209.74 130.79 208.43 129.62 207.98 C 128.45 207.54 127.15 208.13 126.70 209.30 L 126.36 210.20 C 125.92 211.37 126.50 212.67 127.67 213.12 C 128.84 213.56 130.15 212.97 130.59 211.81 Z M 130.92 210.93 L 131.29 209.99 C 131.75 208.83 131.19 207.52 130.02 207.06 C 128.86 206.60 127.54 207.17 127.08 208.33 L 126.71 209.27 C 126.25 210.43 126.82 211.75 127.99 212.21 C 129.15 212.67 130.46 212.10 130.92 210.93 Z M 131.29 210.02 L 131.67 209.06 C 132.15 207.90 131.59 206.58 130.43 206.11 C 129.27 205.64 127.95 206.20 127.48 207.35 L 127.09 208.31 C 126.62 209.47 127.18 210.79 128.34 211.26 C 129.49 211.73 130.81 211.17 131.29 210.02 Z M 131.67 209.08 L 132.06 208.13 C 132.54 206.98 132.00 205.65 130.84 205.17 C 129.69 204.69 128.36 205.24 127.88 206.39 L 127.49 207.34 C 127.01 208.49 127.55 209.82 128.71 210.30 C 129.86 210.78 131.19 210.23 131.67 209.08 Z M 132.06 208.14 L 132.44 207.23 C 132.93 206.08 132.39 204.75 131.24 204.27 C 130.09 203.78 128.76 204.32 128.27 205.47 L 127.89 206.38 C 127.40 207.53 127.94 208.86 129.09 209.35 C 130.24 209.83 131.57 209.30 132.06 208.14 Z M 132.44 207.24 L 132.85 206.28 C 133.34 205.14 132.81 203.81 131.66 203.31 C 130.51 202.82 129.18 203.35 128.69 204.50 L 128.28 205.46 C 127.79 206.61 128.32 207.94 129.47 208.43 C 130.62 208.92 131.95 208.39 132.44 207.24 Z M 132.84 206.29 L 133.24 205.37 C 133.74 204.23 133.21 202.89 132.07 202.40 C 130.92 201.90 129.59 202.42 129.10 203.57 L 128.69 204.49 C 128.20 205.64 128.72 206.97 129.87 207.47 C 131.01 207.96 132.34 207.44 132.84 206.29 Z M 133.23 205.38 L 133.63 204.49 C 134.13 203.35 133.62 202.02 132.48 201.51 C 131.34 201.01 130.00 201.52 129.50 202.66 L 129.10 203.56 C 128.60 204.70 129.12 206.03 130.26 206.53 C 131.40 207.04 132.73 206.52 133.23 205.38 Z M 133.62 204.50 L 134.02 203.62 C 134.53 202.48 134.03 201.15 132.89 200.64 C 131.76 200.12 130.42 200.63 129.91 201.76 L 129.51 202.65 C 129.00 203.78 129.50 205.12 130.64 205.63 C 131.77 206.14 133.11 205.64 133.62 204.50 Z M 134.01 203.63 L 134.42 202.74 C 134.94 201.61 134.45 200.27 133.32 199.75 C 132.19 199.23 130.85 199.72 130.33 200.85 L 129.92 201.75 C 129.40 202.88 129.89 204.21 131.02 204.74 C 132.15 205.26 133.49 204.76 134.01 203.63 Z M 134.41 202.75 L 134.81 201.91 C 135.33 200.79 134.85 199.45 133.73 198.92 C 132.60 198.39 131.26 198.88 130.73 200.00 L 130.34 200.84 C 129.81 201.96 130.30 203.30 131.42 203.83 C 132.54 204.36 133.88 203.88 134.41 202.75 Z M 134.80 201.92 L 135.21 201.05 C 135.75 199.93 135.27 198.59 134.15 198.06 C 133.03 197.52 131.69 198.00 131.15 199.12 L 130.74 199.99 C 130.21 201.11 130.68 202.45 131.80 202.99 C 132.92 203.52 134.26 203.04 134.80 201.92 Z M 135.21 201.06 L 135.64 200.16 C 136.18 199.04 135.71 197.70 134.59 197.16 C 133.48 196.62 132.13 197.09 131.60 198.21 L 131.16 199.11 C 130.62 200.23 131.09 201.57 132.21 202.11 C 133.33 202.65 134.67 202.18 135.21 201.06 Z M 135.64 200.17 L 136.09 199.23 C 136.63 198.12 136.17 196.78 135.05 196.24 C 133.94 195.69 132.60 196.16 132.05 197.27 L 131.60 198.20 C 131.06 199.32 131.52 200.66 132.64 201.20 C 133.75 201.74 135.09 201.28 135.64 200.17 Z M 136.08 199.24 L 136.56 198.28 C 137.10 197.17 136.64 195.82 135.53 195.28 C 134.42 194.73 133.08 195.19 132.53 196.30 L 132.06 197.27 C 131.51 198.38 131.97 199.72 133.08 200.26 C 134.20 200.81 135.54 200.35 136.08 199.24 Z M 136.55 198.28 L 136.97 197.44 C 137.52 196.33 137.06 194.98 135.95 194.44 C 134.84 193.89 133.50 194.35 132.95 195.45 L 132.54 196.30 C 131.99 197.41 132.44 198.75 133.55 199.30 C 134.66 199.85 136.00 199.39 136.55 198.28 Z M 136.96 197.44 L 137.38 196.59 C 137.93 195.49 137.48 194.15 136.37 193.60 C 135.27 193.05 133.93 193.50 133.38 194.61 L 132.96 195.45 C 132.41 196.56 132.86 197.90 133.97 198.45 C 135.07 199.00 136.42 198.54 136.96 197.44 Z M 137.38 196.59 L 137.81 195.72 C 138.36 194.62 137.91 193.28 136.81 192.73 C 135.71 192.18 134.37 192.63 133.82 193.73 L 133.38 194.60 C 132.83 195.71 133.28 197.05 134.39 197.60 C 135.49 198.15 136.83 197.70 137.38 196.59 Z M 137.81 195.73 L 138.26 194.83 C 138.81 193.73 138.36 192.39 137.26 191.84 C 136.16 191.29 134.82 191.74 134.27 192.84 L 133.82 193.73 C 133.27 194.83 133.72 196.17 134.82 196.72 C 135.92 197.27 137.26 196.83 137.81 195.73 Z M 138.25 194.83 L 138.72 193.91 C 139.27 192.81 138.82 191.47 137.73 190.92 C 136.63 190.37 135.29 190.81 134.74 191.91 L 134.28 192.83 C 133.72 193.93 134.17 195.27 135.26 195.82 C 136.36 196.37 137.70 195.93 138.25 194.83 Z M 138.71 193.91 L 139.19 192.95 C 139.75 191.86 139.31 190.52 138.21 189.97 C 137.12 189.42 135.78 189.86 135.23 190.95 L 134.75 191.91 C 134.19 193.00 134.63 194.34 135.73 194.89 C 136.82 195.44 138.16 195.00 138.71 193.91 Z M 139.19 192.95 L 139.64 192.05 C 140.20 190.96 139.76 189.63 138.67 189.08 C 137.58 188.52 136.24 188.96 135.69 190.05 L 135.23 190.95 C 134.68 192.04 135.12 193.38 136.21 193.93 C 137.30 194.48 138.64 194.05 139.19 192.95 Z M 139.64 192.05 L 140.07 191.20 C 140.62 190.11 140.19 188.78 139.10 188.23 C 138.01 187.68 136.68 188.11 136.13 189.20 L 135.69 190.05 C 135.14 191.14 135.58 192.47 136.66 193.03 C 137.75 193.58 139.09 193.14 139.64 192.05 Z M 140.07 191.20 L 140.51 190.33 C 141.06 189.25 140.63 187.92 139.54 187.36 C 138.45 186.81 137.12 187.24 136.57 188.33 L 136.13 189.20 C 135.58 190.29 136.01 191.62 137.10 192.17 C 138.18 192.72 139.51 192.29 140.07 191.20 Z M 140.51 190.33 L 140.96 189.44 C 141.51 188.36 141.08 187.03 139.99 186.48 C 138.91 185.93 137.58 186.36 137.03 187.44 L 136.58 188.33 C 136.02 189.42 136.46 190.75 137.54 191.30 C 138.63 191.85 139.95 191.42 140.51 190.33 Z M 140.96 189.44 L 141.41 188.54 C 141.97 187.46 141.53 186.13 140.45 185.58 C 139.37 185.03 138.04 185.46 137.49 186.54 L 137.03 187.45 C 136.48 188.53 136.91 189.86 137.99 190.41 C 139.08 190.96 140.40 190.53 140.96 189.44 Z M 141.41 188.54 L 141.88 187.62 C 142.43 186.54 141.99 185.22 140.91 184.67 C 139.83 184.12 138.51 184.55 137.96 185.63 L 137.49 186.55 C 136.94 187.63 137.37 188.95 138.46 189.50 C 139.54 190.05 140.86 189.62 141.41 188.54 Z M 141.87 187.62 L 142.34 186.70 C 142.89 185.62 142.46 184.30 141.38 183.75 C 140.30 183.20 138.97 183.63 138.43 184.71 L 137.96 185.63 C 137.41 186.72 137.84 188.04 138.92 188.59 C 140.00 189.13 141.32 188.70 141.87 187.62 Z M 142.34 186.70 L 142.81 185.77 C 143.36 184.69 142.92 183.37 141.84 182.82 C 140.76 182.28 139.44 182.71 138.90 183.79 L 138.43 184.72 C 137.88 185.80 138.31 187.12 139.39 187.66 C 140.47 188.21 141.79 187.78 142.34 186.70 Z M 142.81 185.77 L 143.25 184.88 C 143.80 183.80 143.36 182.49 142.29 181.94 C 141.21 181.40 139.89 181.83 139.35 182.91 L 138.90 183.79 C 138.35 184.87 138.79 186.19 139.87 186.73 C 140.95 187.28 142.26 186.85 142.81 185.77 Z M 143.25 184.88 L 143.70 183.99 C 144.24 182.91 143.81 181.60 142.73 181.06 C 141.65 180.52 140.34 180.95 139.80 182.03 L 139.35 182.91 C 138.81 183.99 139.24 185.30 140.32 185.85 C 141.39 186.39 142.71 185.96 143.25 184.88 Z M 143.69 183.99 L 144.14 183.10 C 144.68 182.02 144.25 180.71 143.17 180.17 C 142.10 179.63 140.79 180.06 140.25 181.14 L 139.80 182.03 C 139.26 183.10 139.69 184.41 140.77 184.96 C 141.84 185.50 143.15 185.06 143.69 183.99 Z M 144.14 183.10 L 144.59 182.21 C 145.13 181.13 144.69 179.82 143.62 179.28 C 142.55 178.74 141.24 179.18 140.70 180.25 L 140.25 181.14 C 139.71 182.21 140.14 183.52 141.22 184.06 C 142.29 184.60 143.60 184.17 144.14 183.10 Z M 144.58 182.20 L 145.03 181.31 C 145.57 180.24 145.14 178.93 144.07 178.39 C 143.00 177.85 141.69 178.28 141.15 179.36 L 140.70 180.25 C 140.16 181.32 140.60 182.63 141.67 183.17 C 142.74 183.71 144.04 183.28 144.58 182.20 Z M 145.03 181.31 L 145.48 180.41 C 146.02 179.34 145.59 178.04 144.52 177.50 C 143.45 176.96 142.15 177.39 141.61 178.46 L 141.16 179.36 C 140.62 180.43 141.05 181.73 142.12 182.27 C 143.19 182.81 144.49 182.38 145.03 181.31 Z M 145.48 180.41 L 145.93 179.51 C 146.47 178.44 146.04 177.14 144.97 176.60 C 143.90 176.07 142.60 176.49 142.07 177.56 L 141.61 178.46 C 141.07 179.53 141.50 180.83 142.57 181.37 C 143.64 181.91 144.94 181.48 145.48 180.41 Z M 145.93 179.51 L 146.38 178.61 C 146.92 177.55 146.49 176.25 145.43 175.71 C 144.36 175.17 143.06 175.60 142.52 176.66 L 142.07 177.56 C 141.53 178.63 141.96 179.93 143.02 180.47 C 144.09 181.00 145.39 180.58 145.93 179.51 Z M 146.38 178.61 L 146.82 177.73 C 147.36 176.67 146.93 175.37 145.87 174.83 C 144.81 174.30 143.51 174.72 142.97 175.78 L 142.53 176.66 C 141.99 177.73 142.42 179.02 143.48 179.56 C 144.54 180.10 145.84 179.67 146.38 178.61 Z M 146.82 177.73 L 147.27 176.85 C 147.80 175.79 147.38 174.49 146.32 173.96 C 145.26 173.42 143.97 173.84 143.43 174.90 L 142.98 175.78 C 142.44 176.84 142.86 178.14 143.92 178.68 C 144.98 179.22 146.28 178.79 146.82 177.73 Z M 147.26 176.85 L 147.71 175.97 C 148.25 174.91 147.83 173.62 146.78 173.08 C 145.72 172.54 144.43 172.96 143.88 174.01 L 143.43 174.90 C 142.89 175.95 143.31 177.25 144.37 177.79 C 145.43 178.33 146.72 177.91 147.26 176.85 Z M 147.71 175.97 L 148.16 175.09 C 148.70 174.03 148.29 172.74 147.24 172.20 C 146.18 171.65 144.89 172.07 144.35 173.12 L 143.89 174.01 C 143.35 175.06 143.76 176.36 144.82 176.90 C 145.87 177.44 147.16 177.03 147.71 175.97 Z M 148.16 175.09 L 148.62 174.20 C 149.16 173.15 148.75 171.86 147.70 171.31 C 146.65 170.77 145.36 171.18 144.81 172.23 L 144.35 173.12 C 143.81 174.17 144.22 175.46 145.27 176.00 C 146.32 176.55 147.61 176.14 148.16 175.09 Z M 148.61 174.21 L 149.08 173.31 C 149.62 172.27 149.22 170.98 148.17 170.43 C 147.13 169.88 145.83 170.29 145.29 171.33 L 144.82 172.22 C 144.27 173.27 144.68 174.56 145.73 175.11 C 146.77 175.66 148.06 175.25 148.61 174.21 Z M 149.07 173.32 L 149.54 172.43 C 150.09 171.38 149.69 170.09 148.65 169.54 C 147.61 168.99 146.32 169.39 145.77 170.43 L 145.29 171.33 C 144.74 172.37 145.14 173.66 146.19 174.21 C 147.23 174.76 148.52 174.36 149.07 173.32 Z M 149.53 172.43 L 150.01 171.54 C 150.56 170.50 150.17 169.21 149.13 168.65 C 148.10 168.10 146.81 168.49 146.25 169.53 L 145.77 170.43 C 145.22 171.46 145.61 172.75 146.65 173.31 C 147.69 173.86 148.98 173.47 149.53 172.43 Z M 150.00 171.54 L 150.48 170.67 C 151.03 169.63 150.65 168.34 149.61 167.79 C 148.58 167.23 147.29 167.61 146.73 168.65 L 146.26 169.52 C 145.70 170.56 146.09 171.85 147.12 172.41 C 148.16 172.96 149.45 172.58 150.00 171.54 Z M 150.47 170.68 L 150.95 169.80 C 151.51 168.77 151.13 167.48 150.10 166.92 C 149.07 166.35 147.78 166.73 147.22 167.76 L 146.74 168.64 C 146.18 169.67 146.55 170.96 147.59 171.52 C 148.62 172.09 149.91 171.71 150.47 170.68 Z M 150.94 169.81 L 151.43 168.93 C 151.99 167.90 151.62 166.61 150.59 166.04 C 149.56 165.48 148.27 165.85 147.70 166.88 L 147.22 167.76 C 146.65 168.78 147.03 170.08 148.06 170.64 C 149.08 171.21 150.38 170.84 150.94 169.81 Z M 151.42 168.94 L 151.91 168.06 C 152.48 167.04 152.11 165.74 151.08 165.17 C 150.06 164.60 148.77 164.97 148.20 166.00 L 147.71 166.87 C 147.14 167.90 147.51 169.19 148.53 169.76 C 149.56 170.33 150.85 169.96 151.42 168.94 Z M 151.90 168.07 L 152.39 167.19 C 152.97 166.17 152.60 164.88 151.58 164.30 C 150.56 163.73 149.26 164.09 148.69 165.12 L 148.20 165.99 C 147.63 167.02 147.99 168.31 149.01 168.88 C 150.04 169.46 151.33 169.09 151.90 168.07 Z M 152.39 167.20 L 152.88 166.32 C 153.46 165.30 153.10 164.01 152.08 163.43 C 151.06 162.86 149.76 163.22 149.19 164.24 L 148.69 165.11 C 148.12 166.13 148.48 167.43 149.50 168.00 C 150.52 168.58 151.81 168.22 152.39 167.20 Z M 152.88 166.33 L 153.37 165.46 C 153.95 164.44 153.60 163.15 152.58 162.57 C 151.56 161.99 150.27 162.34 149.69 163.36 L 149.19 164.23 C 148.61 165.25 148.97 166.55 149.99 167.13 C 151.01 167.70 152.30 167.35 152.88 166.33 Z M 153.37 165.46 L 153.87 164.60 C 154.45 163.58 154.09 162.28 153.08 161.70 C 152.06 161.12 150.77 161.48 150.19 162.49 L 149.69 163.36 C 149.11 164.37 149.46 165.67 150.48 166.25 C 151.49 166.83 152.79 166.48 153.37 165.46 Z M 153.86 164.60 L 154.36 163.73 C 154.95 162.71 154.60 161.42 153.58 160.84 C 152.57 160.25 151.27 160.60 150.69 161.62 L 150.19 162.49 C 149.61 163.50 149.96 164.80 150.97 165.38 C 151.98 165.96 153.28 165.61 153.86 164.60 Z M 154.36 163.73 L 154.86 162.86 C 155.45 161.85 155.10 160.55 154.09 159.97 C 153.08 159.38 151.78 159.73 151.20 160.74 L 150.70 161.61 C 150.11 162.62 150.46 163.92 151.47 164.50 C 152.48 165.09 153.77 164.74 154.36 163.73 Z M 154.86 162.86 L 155.36 161.99 C 155.95 160.98 155.61 159.69 154.60 159.10 C 153.59 158.52 152.30 158.86 151.71 159.87 L 151.20 160.74 C 150.62 161.75 150.96 163.04 151.97 163.63 C 152.98 164.21 154.27 163.87 154.86 162.86 Z M 155.36 162.00 L 155.87 161.13 C 156.45 160.13 156.11 158.83 155.11 158.24 C 154.10 157.65 152.81 157.99 152.22 159.00 L 151.71 159.87 C 151.12 160.87 151.46 162.17 152.47 162.75 C 153.48 163.34 154.77 163.00 155.36 162.00 Z M 155.86 161.14 L 156.37 160.27 C 156.96 159.27 156.62 157.98 155.62 157.39 C 154.61 156.80 153.32 157.13 152.73 158.14 L 152.22 159.00 C 151.63 160.00 151.97 161.29 152.97 161.88 C 153.98 162.48 155.27 162.14 155.86 161.14 Z M 156.36 160.28 L 156.87 159.42 C 157.46 158.42 157.13 157.13 156.13 156.53 C 155.13 155.94 153.84 156.27 153.24 157.27 L 152.74 158.13 C 152.14 159.13 152.47 160.43 153.48 161.02 C 154.48 161.61 155.77 161.28 156.36 160.28 Z M 156.86 159.42 L 157.37 158.57 C 157.97 157.57 157.64 156.28 156.64 155.68 C 155.64 155.09 154.35 155.42 153.76 156.41 L 153.25 157.27 C 152.65 158.27 152.98 159.56 153.98 160.16 C 154.98 160.75 156.27 160.42 156.86 159.42 Z M 157.37 158.57 L 157.88 157.72 C 158.48 156.73 158.15 155.43 157.16 154.84 C 156.16 154.24 154.87 154.56 154.27 155.56 L 153.76 156.41 C 153.16 157.41 153.49 158.70 154.48 159.30 C 155.48 159.89 156.77 159.57 157.37 158.57 Z M 157.88 157.73 L 158.39 156.87 C 158.99 155.88 158.67 154.59 157.68 153.99 C 156.68 153.39 155.39 153.71 154.79 154.70 L 154.28 155.55 C 153.68 156.55 154.00 157.84 154.99 158.44 C 155.98 159.04 157.28 158.72 157.88 157.73 Z M 158.38 156.88 L 158.90 156.03 C 159.50 155.04 159.19 153.75 158.20 153.14 C 157.21 152.54 155.92 152.86 155.32 153.85 L 154.80 154.70 C 154.20 155.69 154.51 156.98 155.50 157.58 C 156.49 158.18 157.78 157.87 158.38 156.88 Z M 158.90 156.03 L 159.42 155.18 C 160.02 154.19 159.71 152.90 158.73 152.30 C 157.74 151.69 156.45 152.00 155.84 152.99 L 155.32 153.84 C 154.72 154.83 155.03 156.12 156.01 156.72 C 157.00 157.33 158.29 157.02 158.90 156.03 Z M 159.41 155.18 L 159.94 154.34 C 160.54 153.35 160.24 152.06 159.26 151.46 C 158.27 150.85 156.98 151.15 156.38 152.14 L 155.85 152.99 C 155.24 153.97 155.55 155.26 156.53 155.87 C 157.52 156.47 158.80 156.17 159.41 155.18 Z M 159.93 154.34 L 160.46 153.49 C 161.07 152.51 160.77 151.22 159.79 150.61 C 158.81 150.00 157.52 150.30 156.91 151.28 L 156.38 152.13 C 155.77 153.11 156.07 154.40 157.05 155.01 C 158.03 155.62 159.32 155.32 159.93 154.34 Z M 160.45 153.50 L 160.98 152.65 C 161.59 151.67 161.30 150.39 160.32 149.77 C 159.35 149.16 158.06 149.46 157.45 150.43 L 156.92 151.28 C 156.30 152.26 156.60 153.54 157.57 154.16 C 158.55 154.77 159.84 154.47 160.45 153.50 Z M 160.98 152.65 L 161.51 151.81 C 162.13 150.84 161.84 149.55 160.86 148.93 C 159.89 148.32 158.60 148.61 157.99 149.58 L 157.45 150.43 C 156.84 151.40 157.13 152.69 158.10 153.30 C 159.07 153.92 160.36 153.63 160.98 152.65 Z M 161.50 151.81 L 162.04 150.97 C 162.66 150.00 162.38 148.71 161.41 148.09 C 160.44 147.48 159.15 147.76 158.53 148.73 L 157.99 149.58 C 157.38 150.55 157.66 151.83 158.63 152.45 C 159.60 153.07 160.89 152.78 161.50 151.81 Z M 162.04 150.97 L 162.58 150.12 C 163.20 149.16 162.92 147.87 161.96 147.25 C 160.99 146.63 159.71 146.91 159.09 147.88 L 158.54 148.73 C 157.92 149.69 158.20 150.98 159.16 151.60 C 160.13 152.22 161.42 151.94 162.04 150.97 Z M 162.58 150.13 L 163.14 149.26 C 163.76 148.30 163.49 147.01 162.53 146.39 C 161.57 145.76 160.28 146.04 159.66 147.00 L 159.09 147.87 C 158.47 148.83 158.74 150.12 159.70 150.74 C 160.67 151.37 161.95 151.09 162.58 150.13 Z M 163.13 149.27 L 163.70 148.40 C 164.33 147.44 164.06 146.16 163.10 145.53 C 162.14 144.90 160.86 145.17 160.23 146.13 L 159.66 146.99 C 159.03 147.95 159.30 149.24 160.26 149.87 C 161.22 150.49 162.51 150.23 163.13 149.27 Z M 163.70 148.41 L 164.26 147.55 C 164.89 146.60 164.63 145.31 163.68 144.68 C 162.72 144.04 161.43 144.31 160.80 145.26 L 160.24 146.12 C 159.60 147.08 159.87 148.36 160.82 148.99 C 161.78 149.63 163.06 149.36 163.70 148.41 Z M 164.26 147.56 L 164.82 146.72 C 165.46 145.76 165.20 144.48 164.25 143.84 C 163.30 143.20 162.01 143.46 161.37 144.41 L 160.81 145.25 C 160.17 146.21 160.43 147.49 161.38 148.13 C 162.33 148.77 163.62 148.51 164.26 147.56 Z M 164.81 146.72 L 165.37 145.90 C 166.02 144.95 165.77 143.66 164.82 143.02 C 163.87 142.38 162.59 142.62 161.94 143.57 L 161.38 144.40 C 160.74 145.35 160.99 146.64 161.94 147.28 C 162.88 147.92 164.17 147.67 164.81 146.72 Z M 165.37 145.91 L 165.92 145.10 C 166.57 144.16 166.33 142.87 165.39 142.22 C 164.44 141.57 163.15 141.81 162.51 142.75 L 161.95 143.56 C 161.30 144.50 161.54 145.79 162.49 146.44 C 163.43 147.09 164.72 146.85 165.37 145.91 Z M 165.91 145.11 L 166.46 144.33 C 167.11 143.39 166.88 142.10 165.94 141.45 C 165.01 140.79 163.72 141.02 163.06 141.96 L 162.52 142.74 C 161.86 143.68 162.09 144.97 163.03 145.62 C 163.97 146.28 165.26 146.05 165.91 145.11 Z M 166.45 144.34 L 167.00 143.56 C 167.67 142.62 167.45 141.33 166.52 140.67 C 165.59 140.01 164.29 140.23 163.63 141.16 L 163.07 141.94 C 162.41 142.88 162.63 144.17 163.56 144.83 C 164.49 145.49 165.78 145.27 166.45 144.34 Z M 166.99 143.57 L 167.63 142.70 C 168.30 141.77 168.09 140.48 167.17 139.81 C 166.25 139.14 164.95 139.34 164.28 140.27 L 163.65 141.14 C 162.98 142.07 163.18 143.36 164.10 144.03 C 165.03 144.70 166.32 144.49 166.99 143.57 Z M 167.61 142.71 L 168.23 141.88 C 168.91 140.96 168.72 139.67 167.81 138.99 C 166.89 138.31 165.60 138.50 164.92 139.41 L 164.30 140.25 C 163.62 141.16 163.81 142.46 164.72 143.14 C 165.64 143.82 166.93 143.63 167.61 142.71 Z M 168.22 141.89 L 168.83 141.09 C 169.51 140.19 169.34 138.89 168.43 138.21 C 167.53 137.52 166.24 137.69 165.55 138.60 L 164.94 139.40 C 164.25 140.30 164.42 141.60 165.33 142.28 C 166.23 142.97 167.53 142.80 168.22 141.89 Z M 168.81 141.11 L 169.41 140.34 C 170.11 139.44 169.95 138.15 169.05 137.45 C 168.15 136.75 166.86 136.91 166.16 137.81 L 165.56 138.58 C 164.87 139.48 165.03 140.77 165.92 141.47 C 166.82 142.17 168.11 142.00 168.81 141.11 Z M 169.39 140.35 L 169.99 139.60 C 170.69 138.71 170.55 137.42 169.66 136.72 C 168.77 136.01 167.48 136.16 166.77 137.05 L 166.18 137.80 C 165.47 138.68 165.62 139.98 166.51 140.68 C 167.40 141.39 168.69 141.24 169.39 140.35 Z M 169.98 139.61 L 170.57 138.88 C 171.28 138.00 171.14 136.71 170.26 136.00 C 169.38 135.29 168.09 135.43 167.38 136.31 L 166.79 137.04 C 166.07 137.92 166.21 139.21 167.09 139.92 C 167.97 140.63 169.26 140.49 169.98 139.61 Z M 170.55 138.90 L 171.18 138.13 C 171.90 137.25 171.78 135.96 170.90 135.25 C 170.03 134.53 168.74 134.65 168.02 135.53 L 167.39 136.29 C 166.67 137.17 166.80 138.46 167.67 139.18 C 168.54 139.90 169.83 139.77 170.55 138.90 Z M 171.17 138.14 L 171.83 137.36 C 172.55 136.49 172.44 135.20 171.57 134.48 C 170.70 133.75 169.41 133.87 168.69 134.73 L 168.03 135.51 C 167.31 136.38 167.42 137.67 168.29 138.40 C 169.16 139.12 170.45 139.01 171.17 138.14 Z M 171.81 137.37 L 172.47 136.60 C 173.20 135.74 173.09 134.45 172.23 133.72 C 171.37 132.99 170.08 133.09 169.35 133.95 L 168.70 134.72 C 167.97 135.58 168.07 136.87 168.93 137.60 C 169.79 138.34 171.08 138.23 171.81 137.37 Z M 172.45 136.62 L 173.11 135.86 C 173.85 135.01 173.75 133.72 172.90 132.98 C 172.05 132.24 170.75 132.33 170.02 133.19 L 169.36 133.94 C 168.62 134.79 168.72 136.09 169.57 136.83 C 170.42 137.56 171.72 137.47 172.45 136.62 Z M 173.10 135.88 L 173.75 135.14 C 174.49 134.29 174.41 133.00 173.57 132.25 C 172.72 131.50 171.43 131.59 170.68 132.43 L 170.03 133.17 C 169.28 134.02 169.36 135.31 170.21 136.06 C 171.06 136.80 172.35 136.72 173.10 135.88 Z M 173.74 135.15 L 174.39 134.42 C 175.14 133.58 175.07 132.29 174.23 131.54 C 173.39 130.78 172.10 130.85 171.35 131.69 L 170.69 132.42 C 169.94 133.26 170.01 134.55 170.85 135.30 C 171.69 136.06 172.98 135.99 173.74 135.15 Z M 174.38 134.44 L 175.06 133.69 C 175.82 132.86 175.76 131.56 174.93 130.80 C 174.10 130.04 172.80 130.10 172.04 130.93 L 171.36 131.68 C 170.60 132.51 170.66 133.80 171.49 134.56 C 172.32 135.33 173.61 135.27 174.38 134.44 Z M 175.05 133.70 L 175.74 132.96 C 176.51 132.14 176.46 130.84 175.64 130.07 C 174.81 129.30 173.51 129.35 172.74 130.17 L 172.05 130.92 C 171.28 131.74 171.33 133.04 172.16 133.81 C 172.98 134.58 174.28 134.53 175.05 133.70 Z M 175.73 132.98 L 176.42 132.25 C 177.20 131.43 177.16 130.13 176.34 129.35 C 175.52 128.58 174.22 128.61 173.45 129.43 L 172.76 130.16 C 171.98 130.98 172.01 132.28 172.83 133.05 C 173.65 133.83 174.95 133.80 175.73 132.98 Z M 176.41 132.26 L 177.10 131.55 C 177.88 130.73 177.86 129.44 177.05 128.65 C 176.23 127.86 174.93 127.89 174.15 128.70 L 173.46 129.42 C 172.67 130.23 172.69 131.53 173.51 132.32 C 174.32 133.10 175.62 133.08 176.41 132.26 Z M 177.09 131.56 L 177.78 130.86 C 178.57 130.05 178.56 128.75 177.75 127.95 C 176.94 127.16 175.64 127.17 174.85 127.98 L 174.16 128.69 C 173.36 129.50 173.38 130.80 174.19 131.59 C 174.99 132.38 176.29 132.37 177.09 131.56 Z M 177.77 130.87 L 178.47 130.17 C 179.27 129.37 179.26 128.06 178.46 127.26 C 177.66 126.46 176.36 126.47 175.56 127.27 L 174.86 127.97 C 174.06 128.77 174.06 130.07 174.86 130.88 C 175.67 131.68 176.97 131.67 177.77 130.87 Z M 178.45 130.18 L 179.18 129.46 C 179.99 128.66 179.99 127.36 179.20 126.56 C 178.40 125.75 177.10 125.75 176.29 126.54 L 175.57 127.26 C 174.76 128.06 174.76 129.36 175.55 130.16 C 176.35 130.97 177.65 130.97 178.45 130.18 Z M 179.17 129.46 L 179.89 128.76 C 180.70 127.97 180.71 126.67 179.92 125.86 C 179.13 125.05 177.84 125.04 177.03 125.83 L 176.31 126.54 C 175.50 127.33 175.48 128.62 176.27 129.43 C 177.06 130.24 178.36 130.25 179.17 129.46 Z M 179.88 128.76 L 180.60 128.06 C 181.41 127.28 181.43 125.99 180.65 125.18 C 179.86 124.37 178.57 124.35 177.76 125.13 L 177.04 125.83 C 176.23 126.61 176.21 127.90 177.00 128.71 C 177.78 129.52 179.07 129.54 179.88 128.76 Z M 180.59 128.06 L 181.30 127.38 C 182.11 126.60 182.14 125.31 181.36 124.50 C 180.58 123.69 179.29 123.67 178.48 124.44 L 177.77 125.13 C 176.96 125.91 176.93 127.20 177.71 128.01 C 178.49 128.82 179.78 128.84 180.59 128.06 Z M 181.30 127.38 L 182.00 126.70 C 182.81 125.93 182.84 124.64 182.06 123.83 C 181.28 123.02 180.00 123.00 179.19 123.77 L 178.49 124.45 C 177.68 125.22 177.65 126.51 178.43 127.32 C 179.20 128.12 180.49 128.15 181.30 127.38 Z M 181.99 126.70 L 182.72 126.00 C 183.52 125.23 183.55 123.95 182.78 123.15 C 182.01 122.34 180.73 122.31 179.92 123.08 L 179.20 123.78 C 178.39 124.55 178.36 125.83 179.14 126.63 C 179.91 127.44 181.19 127.47 181.99 126.70 Z M 182.71 126.00 L 183.43 125.31 C 184.23 124.54 184.26 123.27 183.49 122.47 C 182.72 121.67 181.45 121.64 180.65 122.41 L 179.93 123.09 C 179.13 123.86 179.10 125.13 179.87 125.93 C 180.63 126.73 181.90 126.76 182.71 126.00 Z M 183.41 125.30 L 184.13 124.62 C 184.93 123.86 184.96 122.59 184.20 121.80 C 183.44 121.00 182.18 120.97 181.38 121.73 L 180.66 122.41 C 179.86 123.17 179.83 124.44 180.59 125.23 C 181.35 126.03 182.62 126.06 183.41 125.30 Z M 184.12 124.61 L 184.84 123.93 C 185.64 123.17 185.67 121.92 184.92 121.12 C 184.17 120.33 182.91 120.29 182.11 121.05 L 181.39 121.73 C 180.60 122.49 180.56 123.74 181.32 124.54 C 182.07 125.33 183.33 125.37 184.12 124.61 Z M 184.83 123.92 L 185.57 123.23 C 186.36 122.48 186.40 121.24 185.65 120.44 C 184.90 119.65 183.65 119.61 182.86 120.36 L 182.13 121.05 C 181.33 121.80 181.30 123.05 182.04 123.84 C 182.79 124.63 184.04 124.67 184.83 123.92 Z M 185.55 123.22 L 186.30 122.53 C 187.08 121.79 187.13 120.55 186.39 119.76 C 185.65 118.97 184.41 118.93 183.62 119.67 L 182.88 120.37 C 182.09 121.10 182.05 122.34 182.78 123.13 C 183.52 123.92 184.76 123.96 185.55 123.22 Z M 186.28 122.52 L 187.03 121.82 C 187.82 121.09 187.86 119.86 187.13 119.08 C 186.40 118.29 185.17 118.25 184.38 118.98 L 183.63 119.68 C 182.85 120.41 182.80 121.64 183.54 122.42 C 184.27 123.21 185.50 123.25 186.28 122.52 Z M 187.02 121.81 L 187.77 121.12 C 188.55 120.39 188.59 119.17 187.87 118.39 C 187.14 117.61 185.92 117.57 185.14 118.29 L 184.39 118.99 C 183.61 119.71 183.57 120.93 184.29 121.71 C 185.02 122.49 186.24 122.54 187.02 121.81 Z M 187.76 121.11 L 188.49 120.43 C 189.26 119.71 189.31 118.50 188.59 117.73 C 187.87 116.95 186.66 116.91 185.88 117.63 L 185.15 118.30 C 184.38 119.02 184.33 120.23 185.05 121.01 C 185.77 121.78 186.98 121.83 187.76 121.11 Z M 188.48 120.42 L 189.18 119.76 C 189.95 119.05 189.99 117.85 189.28 117.08 C 188.57 116.31 187.36 116.27 186.60 116.98 L 185.89 117.64 C 185.12 118.35 185.08 119.55 185.79 120.32 C 186.51 121.09 187.71 121.13 188.48 120.42 Z M 189.18 119.75 L 189.94 119.03 C 190.70 118.32 190.74 117.13 190.03 116.37 C 189.32 115.61 188.13 115.57 187.37 116.28 L 186.60 117.00 C 185.84 117.71 185.80 118.90 186.51 119.66 C 187.22 120.42 188.42 120.46 189.18 119.75 Z M 189.94 119.01 L 190.69 118.30 C 191.44 117.60 191.48 116.41 190.77 115.66 C 190.07 114.91 188.89 114.88 188.13 115.58 L 187.38 116.29 C 186.63 117.00 186.59 118.18 187.30 118.93 C 188.00 119.68 189.19 119.72 189.94 119.01 Z M 190.69 118.28 L 191.40 117.61 C 192.14 116.90 192.17 115.73 191.47 114.99 C 190.77 114.25 189.59 114.22 188.85 114.92 L 188.14 115.60 C 187.40 116.30 187.37 117.48 188.07 118.22 C 188.78 118.96 189.95 118.99 190.69 118.28 Z M 191.40 117.59 L 192.08 116.93 C 192.81 116.23 192.83 115.07 192.13 114.34 C 191.43 113.61 190.27 113.59 189.54 114.29 L 188.86 114.94 C 188.13 115.64 188.10 116.80 188.81 117.53 C 189.51 118.26 190.67 118.29 191.40 117.59 Z M 192.08 116.91 L 192.77 116.23 C 193.49 115.53 193.51 114.38 192.81 113.67 C 192.11 112.95 190.96 112.93 190.24 113.63 L 189.54 114.31 C 188.82 115.01 188.81 116.16 189.51 116.88 C 190.21 117.60 191.36 117.61 192.08 116.91 Z M 192.77 116.21 L 193.49 115.50 C 194.20 114.80 194.21 113.66 193.51 112.96 C 192.81 112.25 191.67 112.24 190.96 112.94 L 190.24 113.65 C 189.53 114.35 189.53 115.49 190.23 116.20 C 190.93 116.91 192.07 116.91 192.77 116.21 Z M 193.49 115.48 L 194.19 114.77 C 194.89 114.07 194.88 112.94 194.18 112.25 C 193.48 111.55 192.35 111.56 191.66 112.26 L 190.96 112.97 C 190.26 113.67 190.27 114.80 190.97 115.49 C 191.67 116.19 192.80 116.18 193.49 115.48 Z M 194.20 114.75 L 194.89 114.03 C 195.57 113.33 195.54 112.21 194.84 111.53 C 194.14 110.85 193.01 110.87 192.34 111.57 L 191.65 112.29 C 190.97 112.99 190.99 114.11 191.69 114.79 C 192.40 115.47 193.52 115.45 194.20 114.75 Z M 194.89 114.01 L 195.58 113.27 C 196.25 112.56 196.21 111.45 195.50 110.78 C 194.79 110.12 193.68 110.16 193.02 110.87 L 192.33 111.60 C 191.66 112.31 191.70 113.43 192.41 114.09 C 193.12 114.75 194.23 114.71 194.89 114.01 Z M 195.59 113.24 L 196.27 112.49 C 196.92 111.77 196.87 110.67 196.15 110.02 C 195.44 109.38 194.33 109.43 193.69 110.15 L 193.01 110.90 C 192.36 111.61 192.41 112.71 193.13 113.36 C 193.84 114.01 194.95 113.95 195.59 113.24 Z M 196.28 112.46 L 196.94 111.71 C 197.57 110.99 197.50 109.89 196.78 109.26 C 196.06 108.63 194.96 108.70 194.33 109.43 L 193.67 110.18 C 193.04 110.90 193.12 111.99 193.84 112.62 C 194.56 113.25 195.65 113.18 196.28 112.46 Z M 196.95 111.67 L 197.58 110.92 C 198.20 110.20 198.10 109.11 197.38 108.50 C 196.65 107.89 195.56 107.98 194.95 108.71 L 194.32 109.46 C 193.71 110.19 193.80 111.27 194.53 111.88 C 195.25 112.49 196.34 112.40 196.95 111.67 Z M 197.60 110.89 L 198.24 110.10 C 198.83 109.36 198.72 108.29 197.98 107.69 C 197.25 107.10 196.17 107.21 195.58 107.95 L 194.94 108.74 C 194.35 109.47 194.46 110.55 195.19 111.14 C 195.93 111.74 197.00 111.62 197.60 110.89 Z M 198.25 110.07 L 198.86 109.28 C 199.44 108.54 199.31 107.48 198.57 106.90 C 197.83 106.32 196.77 106.45 196.19 107.19 L 195.57 107.97 C 195.00 108.71 195.12 109.78 195.86 110.36 C 196.60 110.94 197.67 110.81 198.25 110.07 Z M 198.86 109.26 L 199.46 108.48 C 200.03 107.75 199.89 106.69 199.15 106.12 C 198.41 105.55 197.35 105.69 196.79 106.43 L 196.19 107.21 C 195.62 107.95 195.76 109.01 196.50 109.57 C 197.23 110.14 198.29 110.00 198.86 109.26 Z M 199.46 108.48 L 199.60 108.29 C 200.16 107.55 200.02 106.50 199.29 105.94 C 198.55 105.37 197.50 105.51 196.93 106.25 L 196.79 106.44 C 196.23 107.17 196.37 108.23 197.10 108.79 C 197.84 109.35 198.89 109.21 199.46 108.48 Z"
      fill="black"
      fill-rule="nonzero" /></svg>