<svg xmlns="http://www.w3.org/2000/svg" width="300" height="300" viewBox="0 0 300 300">
<path d="M 150.44 124.12 L 151.35 124.28 C 152.59 124.51 153.77 123.70 153.99 122.47 C 154.22 121.24 153.41 120.05 152.18 119.83 L 151.26 119.66 C 150.03 119.43 148.85 120.24 148.62 121.47 C 148.40 122.71 149.21 123.89 150.44 124.12 Z M 151.32 124.28 L 152.26 124.47 C 153.49 124.71 154.68 123.92 154.93 122.69 C 155.18 121.46 154.38 120.27 153.15 120.02 L 152.21 119.83 C 150.98 119.59 149.79 120.38 149.54 121.61 C 149.30 122.84 150.09 124.03 151.32 124.28 Z M 152.20 124.45 L 153.20 124.68 C 154.42 124.96 155.64 124.20 155.92 122.98 C 156.20 121.76 155.44 120.55 154.22 120.27 L 153.22 120.04 C 152.00 119.75 150.78 120.52 150.50 121.74 C 150.22 122.96 150.98 124.17 152.20 124.45 Z M 153.12 124.66 L 154.15 124.94 C 155.36 125.26 156.60 124.54 156.93 123.33 C 157.25 122.13 156.53 120.88 155.32 120.56 L 154.30 120.29 C 153.09 119.96 151.84 120.68 151.52 121.89 C 151.20 123.10 151.92 124.34 153.12 124.66 Z M 154.08 124.92 L 155.01 125.20 C 156.21 125.56 157.47 124.88 157.83 123.69 C 158.20 122.49 157.52 121.23 156.32 120.86 L 155.39 120.58 C 154.20 120.22 152.93 120.89 152.57 122.09 C 152.21 123.29 152.88 124.55 154.08 124.92 Z M 154.95 125.18 L 155.91 125.50 C 157.09 125.90 158.38 125.26 158.77 124.07 C 159.17 122.89 158.53 121.60 157.35 121.21 L 156.39 120.88 C 155.20 120.49 153.92 121.12 153.52 122.31 C 153.12 123.50 153.76 124.78 154.95 125.18 Z M 155.84 125.47 L 156.80 125.83 C 157.97 126.27 159.28 125.67 159.71 124.50 C 160.15 123.33 159.55 122.03 158.38 121.59 L 157.42 121.23 C 156.24 120.80 154.94 121.39 154.51 122.56 C 154.07 123.74 154.67 125.04 155.84 125.47 Z M 156.73 125.80 L 157.66 126.19 C 158.82 126.67 160.14 126.12 160.62 124.96 C 161.09 123.81 160.55 122.49 159.39 122.01 L 158.46 121.62 C 157.30 121.14 155.98 121.69 155.50 122.85 C 155.02 124.00 155.57 125.32 156.73 125.80 Z M 157.57 126.15 L 158.47 126.57 C 159.60 127.10 160.95 126.61 161.48 125.48 C 162.01 124.35 161.52 123.01 160.39 122.48 L 159.48 122.05 C 158.35 121.52 157.01 122.01 156.48 123.14 C 155.95 124.27 156.44 125.62 157.57 126.15 Z M 158.36 126.51 L 159.23 126.98 C 160.33 127.57 161.70 127.16 162.29 126.06 C 162.88 124.96 162.47 123.59 161.37 123.00 L 160.50 122.53 C 159.40 121.94 158.03 122.35 157.44 123.45 C 156.85 124.55 157.26 125.92 158.36 126.51 Z M 159.11 126.91 L 159.94 127.42 C 161.00 128.08 162.40 127.75 163.05 126.68 C 163.70 125.62 163.37 124.23 162.31 123.57 L 161.48 123.06 C 160.42 122.41 159.03 122.74 158.37 123.80 C 157.72 124.87 158.05 126.26 159.11 126.91 Z M 159.84 127.35 L 160.65 127.92 C 161.68 128.63 163.09 128.38 163.80 127.36 C 164.51 126.33 164.26 124.92 163.23 124.21 L 162.42 123.64 C 161.39 122.93 159.98 123.18 159.27 124.21 C 158.56 125.23 158.81 126.64 159.84 127.35 Z M 160.57 127.86 L 161.39 128.49 C 162.38 129.25 163.80 129.07 164.56 128.08 C 165.32 127.09 165.13 125.67 164.14 124.91 L 163.32 124.27 C 162.33 123.51 160.91 123.70 160.15 124.69 C 159.39 125.68 159.58 127.10 160.57 127.86 Z M 161.32 128.44 L 162.08 129.07 C 163.04 129.86 164.47 129.73 165.27 128.77 C 166.06 127.81 165.93 126.38 164.97 125.58 L 164.21 124.96 C 163.25 124.16 161.82 124.29 161.02 125.26 C 160.23 126.22 160.36 127.64 161.32 128.44 Z M 162.03 129.03 L 162.80 129.70 C 163.74 130.52 165.17 130.43 165.99 129.49 C 166.81 128.55 166.72 127.12 165.78 126.30 L 165.01 125.62 C 164.07 124.80 162.64 124.90 161.82 125.84 C 161.00 126.78 161.09 128.21 162.03 129.03 Z M 162.76 129.66 L 163.52 130.36 C 164.44 131.20 165.87 131.14 166.71 130.22 C 167.56 129.30 167.50 127.87 166.58 127.03 L 165.82 126.33 C 164.90 125.49 163.47 125.55 162.62 126.47 C 161.78 127.39 161.84 128.82 162.76 129.66 Z M 163.48 130.32 L 164.21 131.02 C 165.11 131.89 166.54 131.86 167.41 130.96 C 168.27 130.05 168.24 128.62 167.34 127.76 L 166.61 127.06 C 165.71 126.19 164.28 126.22 163.41 127.13 C 162.55 128.03 162.58 129.46 163.48 130.32 Z M 164.17 130.99 L 164.86 131.68 C 165.74 132.56 167.18 132.56 168.06 131.68 C 168.95 130.80 168.95 129.36 168.07 128.48 L 167.38 127.79 C 166.49 126.91 165.06 126.90 164.18 127.79 C 163.29 128.67 163.29 130.10 164.17 130.99 Z M 164.82 131.63 L 165.59 132.44 C 166.44 133.35 167.88 133.39 168.79 132.53 C 169.69 131.67 169.73 130.24 168.87 129.33 L 168.11 128.52 C 167.25 127.61 165.82 127.58 164.91 128.43 C 164.00 129.29 163.96 130.73 164.82 131.63 Z M 165.54 132.39 L 166.22 133.16 C 167.05 134.09 168.48 134.18 169.41 133.35 C 170.35 132.52 170.43 131.08 169.60 130.15 L 168.92 129.38 C 168.09 128.45 166.66 128.36 165.73 129.19 C 164.79 130.03 164.71 131.46 165.54 132.39 Z M 166.17 133.10 L 166.78 133.83 C 167.58 134.79 169.00 134.93 169.96 134.13 C 170.93 133.33 171.06 131.90 170.26 130.94 L 169.65 130.21 C 168.85 129.24 167.42 129.11 166.46 129.91 C 165.50 130.71 165.37 132.14 166.17 133.10 Z M 166.73 133.78 L 167.29 134.49 C 168.06 135.48 169.48 135.65 170.47 134.88 C 171.45 134.11 171.63 132.69 170.86 131.70 L 170.30 130.99 C 169.53 130.01 168.11 129.83 167.12 130.60 C 166.14 131.37 165.96 132.79 166.73 133.78 Z M 167.25 134.44 L 167.85 135.27 C 168.59 136.27 170.01 136.49 171.02 135.75 C 172.03 135.01 172.25 133.59 171.51 132.59 L 170.90 131.76 C 170.16 130.75 168.74 130.53 167.73 131.27 C 166.72 132.01 166.51 133.43 167.25 134.44 Z M 167.82 135.22 L 168.39 136.04 C 169.11 137.07 170.52 137.32 171.55 136.61 C 172.57 135.89 172.83 134.48 172.11 133.45 L 171.54 132.63 C 170.83 131.60 169.41 131.35 168.39 132.07 C 167.36 132.78 167.10 134.19 167.82 135.22 Z M 168.37 136.01 L 168.92 136.83 C 169.62 137.87 171.03 138.14 172.07 137.44 C 173.11 136.74 173.38 135.33 172.68 134.29 L 172.13 133.48 C 171.43 132.44 170.02 132.16 168.98 132.86 C 167.94 133.56 167.67 134.97 168.37 136.01 Z M 168.91 136.82 L 169.45 137.63 C 170.15 138.67 171.56 138.95 172.60 138.26 C 173.64 137.56 173.92 136.16 173.23 135.11 L 172.69 134.30 C 171.99 133.26 170.58 132.98 169.54 133.67 C 168.50 134.37 168.22 135.78 168.91 136.82 Z M 169.44 137.61 L 169.98 138.44 C 170.66 139.48 172.07 139.78 173.12 139.09 C 174.17 138.41 174.47 137.00 173.78 135.95 L 173.24 135.13 C 172.56 134.08 171.15 133.78 170.10 134.47 C 169.05 135.16 168.75 136.56 169.44 137.61 Z M 169.95 138.39 L 170.48 139.25 C 171.14 140.31 172.55 140.64 173.61 139.97 C 174.68 139.31 175.00 137.91 174.34 136.84 L 173.81 135.99 C 173.14 134.93 171.74 134.60 170.68 135.26 C 169.61 135.93 169.29 137.33 169.95 138.39 Z M 170.44 139.18 L 170.95 140.07 C 171.58 141.16 172.97 141.53 174.06 140.90 C 175.15 140.27 175.52 138.88 174.89 137.79 L 174.38 136.91 C 173.75 135.82 172.36 135.45 171.27 136.08 C 170.18 136.70 169.81 138.10 170.44 139.18 Z M 170.91 140.00 L 171.36 140.86 C 171.95 141.98 173.33 142.40 174.45 141.81 C 175.56 141.22 175.99 139.84 175.40 138.73 L 174.94 137.86 C 174.35 136.75 172.97 136.33 171.85 136.91 C 170.74 137.50 170.32 138.88 170.91 140.00 Z M 171.32 140.80 L 171.76 141.70 C 172.31 142.84 173.68 143.32 174.82 142.76 C 175.96 142.21 176.43 140.84 175.88 139.70 L 175.44 138.80 C 174.89 137.66 173.52 137.18 172.38 137.74 C 171.24 138.29 170.77 139.66 171.32 140.80 Z M 171.71 141.63 L 172.12 142.56 C 172.64 143.72 173.99 144.25 175.16 143.74 C 176.32 143.22 176.85 141.86 176.33 140.70 L 175.92 139.77 C 175.41 138.61 174.05 138.09 172.89 138.60 C 171.73 139.11 171.20 140.47 171.71 141.63 Z M 172.08 142.48 L 172.46 143.43 C 172.93 144.61 174.27 145.19 175.45 144.72 C 176.64 144.25 177.22 142.91 176.75 141.72 L 176.37 140.78 C 175.90 139.59 174.56 139.01 173.38 139.48 C 172.19 139.95 171.61 141.29 172.08 142.48 Z M 172.42 143.34 L 172.76 144.30 C 173.18 145.51 174.50 146.14 175.71 145.71 C 176.91 145.29 177.55 143.97 177.12 142.76 L 176.78 141.81 C 176.36 140.60 175.04 139.97 173.83 140.39 C 172.63 140.82 172.00 142.14 172.42 143.34 Z M 172.73 144.23 L 173.03 145.18 C 173.42 146.40 174.72 147.08 175.94 146.69 C 177.16 146.31 177.83 145.01 177.45 143.79 L 177.15 142.83 C 176.76 141.62 175.46 140.94 174.24 141.32 C 173.02 141.71 172.35 143.01 172.73 144.23 Z M 173.01 145.12 L 173.28 146.07 C 173.63 147.30 174.92 148.01 176.15 147.66 C 177.38 147.31 178.09 146.02 177.74 144.79 L 177.47 143.85 C 177.12 142.62 175.83 141.90 174.60 142.26 C 173.37 142.61 172.66 143.89 173.01 145.12 Z M 173.26 146.02 L 173.52 146.98 C 173.84 148.22 175.11 148.97 176.35 148.64 C 177.59 148.32 178.33 147.05 178.01 145.81 L 177.76 144.84 C 177.43 143.60 176.16 142.86 174.92 143.18 C 173.68 143.51 172.94 144.78 173.26 146.02 Z M 173.50 146.92 L 173.72 147.89 C 174.01 149.15 175.27 149.92 176.52 149.63 C 177.77 149.34 178.55 148.09 178.26 146.84 L 178.03 145.87 C 177.74 144.62 176.49 143.84 175.24 144.13 C 173.98 144.42 173.21 145.67 173.50 146.92 Z M 173.70 147.81 L 173.89 148.79 C 174.14 150.05 175.36 150.88 176.62 150.63 C 177.89 150.39 178.71 149.16 178.47 147.90 L 178.28 146.92 C 178.03 145.66 176.81 144.83 175.54 145.08 C 174.28 145.32 173.45 146.55 173.70 147.81 Z M 173.87 148.68 L 174.01 149.67 C 174.20 150.95 175.39 151.83 176.67 151.64 C 177.94 151.46 178.83 150.27 178.64 148.99 L 178.49 148.00 C 178.30 146.73 177.11 145.84 175.84 146.03 C 174.56 146.22 173.68 147.41 173.87 148.68 Z M 174.00 149.56 L 174.09 150.55 C 174.22 151.84 175.37 152.78 176.65 152.65 C 177.94 152.52 178.88 151.38 178.75 150.09 L 178.65 149.10 C 178.53 147.82 177.38 146.88 176.09 147.00 C 174.81 147.13 173.87 148.28 174.00 149.56 Z M 174.09 150.46 L 174.15 151.46 C 174.22 152.75 175.33 153.74 176.62 153.66 C 177.91 153.58 178.89 152.48 178.82 151.19 L 178.76 150.19 C 178.68 148.90 177.58 147.91 176.29 147.99 C 175.00 148.06 174.01 149.17 174.09 150.46 Z M 174.14 151.38 L 174.17 152.39 C 174.20 153.68 175.28 154.70 176.57 154.67 C 177.86 154.63 178.88 153.56 178.85 152.27 L 178.82 151.26 C 178.79 149.97 177.71 148.95 176.42 148.98 C 175.13 149.02 174.11 150.09 174.14 151.38 Z M 174.17 152.32 L 174.16 153.33 C 174.16 154.62 175.21 155.67 176.50 155.67 C 177.79 155.67 178.84 154.63 178.85 153.33 L 178.85 152.33 C 178.85 151.04 177.80 149.99 176.51 149.99 C 175.22 149.98 174.17 151.03 174.17 152.32 Z M 174.17 153.22 L 174.12 154.22 C 174.06 155.51 175.06 156.61 176.35 156.67 C 177.64 156.73 178.74 155.73 178.80 154.44 L 178.85 153.44 C 178.91 152.15 177.91 151.05 176.61 150.99 C 175.32 150.93 174.23 151.93 174.17 153.22 Z M 174.13 154.03 L 174.01 155.01 C 173.84 156.30 174.75 157.47 176.03 157.64 C 177.32 157.80 178.49 156.90 178.66 155.61 L 178.78 154.63 C 178.95 153.34 178.04 152.17 176.76 152.00 C 175.47 151.84 174.30 152.74 174.13 154.03 Z M 174.06 154.74 L 173.81 155.71 C 173.50 156.97 174.26 158.24 175.52 158.56 C 176.77 158.88 178.05 158.11 178.36 156.86 L 178.61 155.88 C 178.92 154.63 178.16 153.35 176.90 153.04 C 175.65 152.72 174.37 153.48 174.06 154.74 Z M 173.91 155.41 L 173.55 156.31 C 173.07 157.52 173.66 158.88 174.86 159.36 C 176.06 159.84 177.43 159.25 177.91 158.05 L 178.27 157.15 C 178.75 155.95 178.16 154.58 176.96 154.10 C 175.75 153.62 174.39 154.21 173.91 155.41 Z M 173.65 156.09 L 173.19 156.97 C 172.59 158.12 173.03 159.54 174.18 160.14 C 175.33 160.74 176.75 160.30 177.35 159.15 L 177.81 158.27 C 178.41 157.12 177.97 155.70 176.82 155.10 C 175.67 154.50 174.25 154.94 173.65 156.09 Z M 173.27 156.83 L 172.74 157.70 C 172.06 158.80 172.40 160.25 173.51 160.93 C 174.61 161.61 176.06 161.26 176.74 160.16 L 177.27 159.29 C 177.95 158.19 177.60 156.74 176.50 156.06 C 175.40 155.38 173.95 155.73 173.27 156.83 Z M 172.79 157.61 L 172.22 158.46 C 171.49 159.54 171.77 161.00 172.85 161.72 C 173.92 162.45 175.38 162.17 176.11 161.09 L 176.68 160.24 C 177.41 159.17 177.13 157.71 176.05 156.98 C 174.98 156.26 173.52 156.54 172.79 157.61 Z M 172.24 158.42 L 171.65 159.26 C 170.90 160.32 171.15 161.79 172.21 162.54 C 173.27 163.29 174.74 163.03 175.49 161.97 L 176.08 161.13 C 176.83 160.07 176.58 158.61 175.52 157.86 C 174.46 157.11 172.99 157.36 172.24 158.42 Z M 171.67 159.24 L 171.07 160.06 C 170.31 161.11 170.55 162.58 171.60 163.34 C 172.65 164.10 174.12 163.86 174.88 162.81 L 175.47 161.99 C 176.23 160.94 176.00 159.47 174.95 158.71 C 173.89 157.95 172.43 158.19 171.67 159.24 Z M 171.08 160.06 L 170.50 160.85 C 169.74 161.90 169.97 163.37 171.02 164.14 C 172.07 164.90 173.54 164.66 174.30 163.61 L 174.88 162.82 C 175.64 161.77 175.41 160.30 174.36 159.53 C 173.31 158.77 171.84 159.01 171.08 160.06 Z M 170.49 160.87 L 169.91 161.67 C 169.16 162.73 169.41 164.19 170.46 164.95 C 171.52 165.70 172.99 165.46 173.74 164.40 L 174.31 163.60 C 175.07 162.54 174.82 161.07 173.76 160.32 C 172.71 159.57 171.24 159.81 170.49 160.87 Z M 169.90 161.69 L 169.32 162.52 C 168.57 163.59 168.83 165.05 169.90 165.80 C 170.96 166.54 172.43 166.28 173.17 165.22 L 173.76 164.38 C 174.50 163.32 174.24 161.85 173.17 161.11 C 172.11 160.36 170.64 160.62 169.90 161.69 Z M 169.31 162.52 L 168.75 163.33 C 168.00 164.40 168.26 165.87 169.33 166.61 C 170.39 167.36 171.86 167.10 172.61 166.03 L 173.18 165.22 C 173.92 164.15 173.66 162.68 172.59 161.94 C 171.53 161.19 170.06 161.45 169.31 162.52 Z M 168.76 163.30 L 168.19 164.10 C 167.43 165.16 167.67 166.63 168.73 167.39 C 169.78 168.15 171.26 167.91 172.02 166.86 L 172.59 166.06 C 173.35 165.00 173.11 163.53 172.06 162.77 C 171.00 162.01 169.52 162.25 168.76 163.30 Z M 168.22 164.05 L 167.62 164.84 C 166.83 165.88 167.03 167.36 168.07 168.15 C 169.11 168.94 170.59 168.74 171.38 167.70 L 171.98 166.91 C 172.77 165.87 172.57 164.39 171.53 163.60 C 170.50 162.81 169.01 163.01 168.22 164.05 Z M 167.65 164.80 L 167.03 165.58 C 166.22 166.60 166.39 168.09 167.41 168.90 C 168.43 169.71 169.92 169.54 170.73 168.52 L 171.35 167.74 C 172.17 166.72 172.00 165.23 170.97 164.42 C 169.95 163.61 168.47 163.78 167.65 164.80 Z M 167.05 165.56 L 166.41 166.33 C 165.59 167.34 165.74 168.83 166.75 169.66 C 167.76 170.49 169.25 170.34 170.08 169.32 L 170.71 168.55 C 171.54 167.54 171.39 166.05 170.38 165.22 C 169.36 164.39 167.87 164.54 167.05 165.56 Z M 166.42 166.32 L 165.78 167.09 C 164.95 168.10 165.10 169.59 166.11 170.43 C 167.12 171.26 168.61 171.11 169.44 170.10 L 170.07 169.33 C 170.90 168.32 170.76 166.83 169.75 166.00 C 168.74 165.17 167.25 165.31 166.42 166.32 Z M 165.79 167.09 L 165.15 167.86 C 164.32 168.87 164.46 170.36 165.47 171.19 C 166.48 172.02 167.97 171.88 168.80 170.88 L 169.44 170.11 C 170.27 169.10 170.13 167.61 169.12 166.77 C 168.11 165.94 166.62 166.08 165.79 167.09 Z M 165.16 167.85 L 164.52 168.62 C 163.68 169.62 163.81 171.12 164.82 171.95 C 165.82 172.79 167.32 172.66 168.15 171.65 L 168.79 170.88 C 169.63 169.88 169.50 168.39 168.49 167.55 C 167.49 166.71 166.00 166.85 165.16 167.85 Z M 164.53 168.60 L 163.88 169.37 C 163.03 170.37 163.16 171.86 164.16 172.71 C 165.15 173.55 166.65 173.43 167.49 172.43 L 168.14 171.67 C 168.99 170.67 168.86 169.17 167.87 168.33 C 166.87 167.48 165.37 167.61 164.53 168.60 Z M 163.90 169.35 L 163.24 170.11 C 162.39 171.09 162.50 172.59 163.49 173.45 C 164.48 174.30 165.97 174.19 166.83 173.20 L 167.48 172.45 C 168.33 171.46 168.22 169.97 167.23 169.11 C 166.25 168.26 164.75 168.36 163.90 169.35 Z M 163.26 170.08 L 162.60 170.83 C 161.73 171.81 161.82 173.31 162.80 174.17 C 163.78 175.04 165.28 174.95 166.14 173.97 L 166.81 173.23 C 167.67 172.25 167.58 170.75 166.61 169.88 C 165.63 169.02 164.13 169.11 163.26 170.08 Z M 162.62 170.81 L 161.95 171.55 C 161.06 172.51 161.13 174.01 162.10 174.89 C 163.06 175.77 164.56 175.71 165.44 174.74 L 166.12 174.00 C 167.00 173.03 166.93 171.54 165.97 170.66 C 165.00 169.77 163.50 169.84 162.62 170.81 Z M 161.97 171.52 L 161.30 172.23 C 160.41 173.18 160.45 174.68 161.40 175.57 C 162.35 176.47 163.85 176.43 164.75 175.48 L 165.42 174.77 C 166.31 173.82 166.27 172.32 165.32 171.42 C 164.37 170.53 162.87 170.57 161.97 171.52 Z M 161.33 172.20 L 160.65 172.89 C 159.74 173.83 159.76 175.33 160.70 176.24 C 161.63 177.15 163.13 177.14 164.04 176.20 L 164.72 175.50 C 165.63 174.57 165.61 173.07 164.68 172.16 C 163.74 171.24 162.24 171.26 161.33 172.20 Z M 160.68 172.87 L 159.97 173.58 C 159.04 174.51 159.04 176.00 159.97 176.93 C 160.89 177.85 162.39 177.85 163.31 176.93 L 164.02 176.22 C 164.95 175.30 164.95 173.80 164.02 172.87 C 163.10 171.95 161.60 171.95 160.68 172.87 Z M 159.98 173.56 L 159.23 174.30 C 158.30 175.22 158.28 176.72 159.20 177.65 C 160.11 178.58 161.61 178.60 162.54 177.68 L 163.30 176.95 C 164.23 176.03 164.25 174.53 163.33 173.60 C 162.42 172.66 160.92 172.65 159.98 173.56 Z M 159.24 174.29 L 158.54 174.97 C 157.60 175.88 157.57 177.38 158.48 178.32 C 159.39 179.26 160.89 179.29 161.83 178.38 L 162.53 177.70 C 163.47 176.79 163.50 175.29 162.59 174.35 C 161.68 173.41 160.18 173.38 159.24 174.29 Z M 158.55 174.95 L 157.82 175.65 C 156.87 176.55 156.83 178.05 157.73 179.00 C 158.63 179.95 160.12 179.99 161.07 179.09 L 161.81 178.39 C 162.76 177.50 162.80 176.00 161.90 175.05 C 161.00 174.10 159.50 174.06 158.55 174.95 Z M 157.85 175.63 L 157.10 176.31 C 156.13 177.20 156.07 178.69 156.95 179.66 C 157.84 180.62 159.34 180.68 160.30 179.80 L 161.05 179.11 C 162.01 178.23 162.08 176.73 161.19 175.77 C 160.31 174.81 158.81 174.74 157.85 175.63 Z M 157.13 176.28 L 156.39 176.94 C 155.40 177.80 155.31 179.30 156.17 180.28 C 157.04 181.26 158.53 181.36 159.51 180.49 L 160.26 179.83 C 161.24 178.97 161.34 177.47 160.48 176.49 C 159.61 175.51 158.12 175.42 157.13 176.28 Z M 156.44 176.89 L 155.66 177.54 C 154.65 178.38 154.51 179.87 155.34 180.87 C 156.18 181.88 157.67 182.02 158.68 181.19 L 159.46 180.54 C 160.47 179.70 160.61 178.21 159.77 177.21 C 158.94 176.20 157.45 176.06 156.44 176.89 Z M 155.74 177.48 L 154.94 178.08 C 153.90 178.87 153.70 180.35 154.49 181.39 C 155.27 182.44 156.76 182.64 157.80 181.85 L 158.59 181.25 C 159.64 180.46 159.84 178.98 159.05 177.94 C 158.26 176.89 156.78 176.69 155.74 177.48 Z M 155.05 178.00 L 154.24 178.55 C 153.15 179.27 152.86 180.75 153.59 181.83 C 154.32 182.92 155.79 183.21 156.87 182.48 L 157.69 181.93 C 158.78 181.20 159.07 179.73 158.34 178.65 C 157.61 177.56 156.14 177.27 155.05 178.00 Z M 154.37 178.46 L 153.51 178.97 C 152.37 179.62 151.99 181.07 152.64 182.20 C 153.30 183.33 154.75 183.72 155.88 183.06 L 156.74 182.56 C 157.87 181.90 158.26 180.46 157.60 179.33 C 156.95 178.20 155.50 177.81 154.37 178.46 Z M 153.64 178.89 L 152.74 179.34 C 151.57 179.91 151.09 181.33 151.67 182.51 C 152.25 183.68 153.67 184.16 154.84 183.58 L 155.74 183.14 C 156.91 182.56 157.39 181.14 156.81 179.97 C 156.23 178.79 154.82 178.31 153.64 178.89 Z M 152.87 179.28 L 151.93 179.67 C 150.73 180.18 150.16 181.57 150.67 182.77 C 151.18 183.98 152.57 184.54 153.77 184.03 L 154.71 183.64 C 155.91 183.13 156.48 181.74 155.97 180.54 C 155.46 179.33 154.08 178.77 152.87 179.28 Z M 152.06 179.62 L 151.11 179.96 C 149.88 180.40 149.23 181.75 149.67 182.98 C 150.11 184.21 151.46 184.86 152.69 184.42 L 153.64 184.08 C 154.88 183.65 155.52 182.29 155.08 181.06 C 154.64 179.83 153.29 179.19 152.06 179.62 Z M 151.24 179.92 L 150.31 180.19 C 149.06 180.55 148.33 181.86 148.70 183.12 C 149.06 184.37 150.37 185.10 151.63 184.73 L 152.56 184.46 C 153.82 184.10 154.54 182.79 154.18 181.53 C 153.81 180.28 152.50 179.55 151.24 179.92 Z M 150.48 180.15 L 149.44 180.37 C 148.16 180.64 147.34 181.90 147.62 183.18 C 147.89 184.46 149.15 185.27 150.43 185.00 L 151.47 184.77 C 152.74 184.50 153.56 183.24 153.28 181.97 C 153.01 180.69 151.75 179.87 150.48 180.15 Z M 149.60 180.34 L 148.61 180.48 C 147.32 180.66 146.42 181.86 146.60 183.15 C 146.78 184.44 147.98 185.34 149.27 185.16 L 150.26 185.02 C 151.55 184.84 152.45 183.65 152.27 182.35 C 152.09 181.06 150.90 180.16 149.60 180.34 Z M 148.75 180.47 L 147.79 180.55 C 146.49 180.65 145.52 181.79 145.63 183.10 C 145.74 184.40 146.88 185.36 148.18 185.26 L 149.14 185.18 C 150.44 185.07 151.40 183.93 151.30 182.63 C 151.19 181.33 150.05 180.36 148.75 180.47 Z M 147.88 180.54 L 146.91 180.59 C 145.60 180.64 144.60 181.75 144.65 183.05 C 144.71 184.35 145.82 185.36 147.12 185.30 L 148.09 185.26 C 149.40 185.20 150.41 184.10 150.35 182.79 C 150.29 181.49 149.18 180.48 147.88 180.54 Z M 146.96 180.59 L 145.97 180.61 C 144.67 180.63 143.64 181.71 143.66 183.01 C 143.69 184.32 144.77 185.35 146.07 185.32 L 147.06 185.30 C 148.36 185.28 149.40 184.20 149.37 182.90 C 149.34 181.59 148.27 180.56 146.96 180.59 Z M 146.01 180.61 L 145.01 180.62 C 143.71 180.62 142.66 181.68 142.66 182.98 C 142.67 184.28 143.73 185.33 145.03 185.32 L 146.03 185.32 C 147.33 185.31 148.38 184.25 148.38 182.95 C 148.37 181.65 147.31 180.60 146.01 180.61 Z M 145.02 180.62 L 144.02 180.62 C 142.72 180.62 141.67 181.67 141.67 182.97 C 141.67 184.27 142.72 185.32 144.02 185.32 L 145.02 185.32 C 146.32 185.32 147.37 184.27 147.37 182.97 C 147.37 181.67 146.32 180.62 145.02 180.62 Z M 144.04 180.62 L 143.03 180.62 C 141.74 180.60 140.68 181.64 140.67 182.94 C 140.66 184.24 141.70 185.29 142.99 185.31 L 143.99 185.32 C 145.29 185.33 146.35 184.29 146.36 182.99 C 146.37 181.70 145.33 180.64 144.04 180.62 Z M 143.09 180.62 L 142.09 180.59 C 140.80 180.54 139.71 181.55 139.67 182.85 C 139.63 184.14 140.64 185.22 141.93 185.26 L 142.93 185.30 C 144.22 185.34 145.31 184.33 145.35 183.04 C 145.40 181.75 144.39 180.67 143.09 180.62 Z M 142.19 180.60 L 141.21 180.52 C 139.93 180.42 138.81 181.38 138.71 182.67 C 138.60 183.95 139.57 185.08 140.85 185.18 L 141.83 185.25 C 143.11 185.35 144.24 184.39 144.34 183.11 C 144.44 181.82 143.48 180.70 142.19 180.60 Z M 141.35 180.54 L 140.44 180.42 C 139.17 180.24 137.99 181.14 137.82 182.41 C 137.65 183.69 138.54 184.86 139.81 185.04 L 140.72 185.16 C 141.99 185.33 143.17 184.44 143.34 183.17 C 143.52 181.89 142.62 180.72 141.35 180.54 Z M 140.58 180.45 L 139.64 180.26 C 138.38 180.01 137.15 180.82 136.90 182.08 C 136.65 183.35 137.47 184.57 138.73 184.82 L 139.67 185.01 C 140.93 185.26 142.16 184.44 142.41 183.18 C 142.66 181.92 141.84 180.70 140.58 180.45 Z M 139.76 180.29 L 138.72 180.02 C 137.48 179.70 136.21 180.45 135.89 181.70 C 135.58 182.94 136.32 184.21 137.57 184.52 L 138.61 184.79 C 139.85 185.11 141.12 184.36 141.43 183.11 C 141.75 181.87 141.00 180.61 139.76 180.29 Z M 138.81 180.05 L 137.82 179.76 C 136.60 179.39 135.30 180.09 134.94 181.32 C 134.57 182.55 135.27 183.84 136.50 184.20 L 137.48 184.50 C 138.71 184.86 140.00 184.16 140.37 182.93 C 140.73 181.71 140.03 180.41 138.81 180.05 Z M 137.88 179.78 L 136.93 179.47 C 135.72 179.07 134.41 179.74 134.01 180.96 C 133.62 182.18 134.28 183.48 135.50 183.88 L 136.45 184.19 C 137.66 184.58 138.97 183.91 139.37 182.70 C 139.76 181.48 139.10 180.17 137.88 179.78 Z M 136.98 179.48 L 136.00 179.15 C 134.79 178.73 133.47 179.37 133.05 180.58 C 132.63 181.79 133.28 183.11 134.49 183.53 L 135.46 183.87 C 136.67 184.28 137.99 183.64 138.41 182.43 C 138.83 181.22 138.19 179.90 136.98 179.48 Z M 136.04 179.16 L 135.07 178.81 C 133.86 178.37 132.53 178.99 132.10 180.19 C 131.66 181.39 132.28 182.72 133.48 183.16 L 134.45 183.51 C 135.65 183.95 136.98 183.33 137.42 182.13 C 137.86 180.93 137.24 179.60 136.04 179.16 Z M 135.10 178.82 L 134.17 178.46 C 132.98 178.01 131.64 178.60 131.18 179.80 C 130.72 180.99 131.32 182.33 132.51 182.79 L 133.44 183.15 C 134.64 183.60 135.98 183.01 136.43 181.81 C 136.89 180.62 136.30 179.28 135.10 178.82 Z M 134.22 178.49 L 133.23 178.08 C 132.05 177.60 130.70 178.16 130.21 179.34 C 129.73 180.53 130.29 181.88 131.48 182.36 L 132.47 182.77 C 133.65 183.25 135.00 182.69 135.48 181.50 C 135.97 180.32 135.40 178.97 134.22 178.49 Z M 133.28 178.11 L 132.35 177.70 C 131.19 177.18 129.83 177.71 129.31 178.88 C 128.80 180.05 129.32 181.41 130.49 181.92 L 131.42 182.33 C 132.59 182.85 133.95 182.32 134.46 181.15 C 134.98 179.99 134.45 178.62 133.28 178.11 Z M 132.41 177.73 L 131.54 177.32 C 130.39 176.77 129.02 177.26 128.47 178.41 C 127.93 179.56 128.42 180.93 129.57 181.48 L 130.44 181.89 C 131.58 182.44 132.96 181.95 133.50 180.80 C 134.05 179.65 133.56 178.28 132.41 177.73 Z M 131.59 177.35 L 130.74 176.92 C 129.61 176.35 128.23 176.80 127.66 177.93 C 127.08 179.07 127.54 180.45 128.67 181.02 L 129.52 181.45 C 130.65 182.02 132.03 181.57 132.60 180.43 C 133.17 179.30 132.72 177.92 131.59 177.35 Z M 130.78 176.95 L 129.91 176.48 C 128.79 175.89 127.40 176.31 126.81 177.43 C 126.22 178.55 126.64 179.94 127.76 180.53 L 128.63 180.99 C 129.75 181.59 131.14 181.16 131.73 180.04 C 132.32 178.93 131.90 177.54 130.78 176.95 Z M 129.95 176.52 L 129.07 176.02 C 127.97 175.40 126.58 175.79 125.96 176.89 C 125.34 177.99 125.73 179.39 126.83 180.00 L 127.71 180.50 C 128.81 181.11 130.21 180.72 130.82 179.62 C 131.44 178.52 131.05 177.13 129.95 176.52 Z M 129.13 176.06 L 128.26 175.54 C 127.19 174.89 125.79 175.24 125.14 176.32 C 124.49 177.39 124.84 178.79 125.91 179.44 L 126.78 179.96 C 127.85 180.61 129.25 180.26 129.90 179.19 C 130.55 178.11 130.20 176.71 129.13 176.06 Z M 128.34 175.60 L 127.51 175.06 C 126.47 174.37 125.06 174.65 124.37 175.70 C 123.68 176.74 123.97 178.15 125.02 178.84 L 125.84 179.38 C 126.88 180.07 128.29 179.79 128.98 178.74 C 129.67 177.70 129.38 176.29 128.34 175.60 Z M 127.61 175.13 L 126.77 174.51 C 125.77 173.77 124.35 173.98 123.61 174.99 C 122.87 175.99 123.08 177.41 124.09 178.15 L 124.92 178.76 C 125.93 179.51 127.34 179.29 128.08 178.29 C 128.82 177.29 128.61 175.87 127.61 175.13 Z M 126.86 174.60 L 126.09 173.96 C 125.13 173.16 123.71 173.30 122.92 174.26 C 122.13 175.21 122.26 176.63 123.22 177.42 L 124.00 178.07 C 124.95 178.86 126.37 178.72 127.16 177.77 C 127.96 176.81 127.82 175.39 126.86 174.60 Z M 126.17 174.03 L 125.44 173.37 C 124.53 172.54 123.11 172.60 122.28 173.52 C 121.44 174.43 121.51 175.85 122.42 176.69 L 123.14 177.35 C 124.06 178.18 125.48 178.12 126.31 177.20 C 127.15 176.29 127.08 174.87 126.17 174.03 Z M 125.51 173.44 L 124.82 172.76 C 123.95 171.89 122.53 171.90 121.66 172.77 C 120.79 173.65 120.80 175.06 121.67 175.93 L 122.36 176.62 C 123.23 177.49 124.65 177.48 125.52 176.61 C 126.39 175.73 126.38 174.31 125.51 173.44 Z M 124.89 172.84 L 124.23 172.12 C 123.40 171.21 121.99 171.15 121.08 171.98 C 120.17 172.82 120.11 174.23 120.94 175.14 L 121.60 175.86 C 122.43 176.76 123.84 176.83 124.75 175.99 C 125.66 175.16 125.72 173.75 124.89 172.84 Z M 124.33 172.24 L 123.71 171.46 C 122.94 170.50 121.54 170.34 120.58 171.11 C 119.62 171.88 119.46 173.28 120.23 174.25 L 120.85 175.02 C 121.62 175.98 123.02 176.14 123.98 175.37 C 124.94 174.60 125.10 173.20 124.33 172.24 Z M 123.82 171.61 L 123.23 170.75 C 122.55 169.73 121.16 169.46 120.14 170.15 C 119.12 170.83 118.85 172.22 119.54 173.24 L 120.12 174.10 C 120.81 175.12 122.19 175.39 123.21 174.70 C 124.23 174.01 124.50 172.63 123.82 171.61 Z M 123.33 170.90 L 122.84 170.04 C 122.24 168.97 120.88 168.59 119.81 169.20 C 118.74 169.80 118.36 171.16 118.97 172.23 L 119.45 173.09 C 120.05 174.16 121.41 174.53 122.48 173.93 C 123.55 173.33 123.93 171.97 123.33 170.90 Z M 122.90 170.16 L 122.46 169.25 C 121.92 168.14 120.59 167.68 119.49 168.22 C 118.38 168.76 117.92 170.09 118.46 171.19 L 118.90 172.10 C 119.44 173.21 120.77 173.67 121.88 173.13 C 122.98 172.59 123.44 171.26 122.90 170.16 Z M 122.50 169.35 L 122.10 168.42 C 121.62 167.29 120.32 166.76 119.19 167.24 C 118.06 167.72 117.54 169.03 118.02 170.16 L 118.42 171.09 C 118.90 172.22 120.20 172.74 121.33 172.26 C 122.46 171.78 122.98 170.48 122.50 169.35 Z M 122.14 168.51 L 121.79 167.58 C 121.36 166.43 120.08 165.85 118.94 166.28 C 117.79 166.71 117.21 167.99 117.64 169.14 L 117.98 170.06 C 118.41 171.21 119.69 171.79 120.84 171.36 C 121.99 170.93 122.57 169.66 122.14 168.51 Z M 121.83 167.69 L 121.52 166.72 C 121.15 165.55 119.90 164.91 118.73 165.28 C 117.57 165.65 116.92 166.89 117.29 168.06 L 117.60 169.03 C 117.97 170.20 119.22 170.84 120.39 170.47 C 121.55 170.10 122.20 168.85 121.83 167.69 Z M 121.55 166.86 L 121.32 165.90 C 121.02 164.72 119.82 164.00 118.64 164.29 C 117.45 164.58 116.73 165.78 117.02 166.97 L 117.26 167.92 C 117.55 169.11 118.75 169.83 119.94 169.54 C 121.12 169.24 121.85 168.04 121.55 166.86 Z M 121.35 166.06 L 121.18 165.09 C 120.98 163.89 119.83 163.08 118.63 163.28 C 117.43 163.49 116.62 164.63 116.82 165.84 L 116.99 166.81 C 117.20 168.01 118.34 168.82 119.54 168.62 C 120.75 168.41 121.55 167.27 121.35 166.06 Z M 121.20 165.24 L 121.10 164.26 C 120.98 163.04 119.90 162.16 118.69 162.28 C 117.47 162.40 116.59 163.48 116.71 164.69 L 116.81 165.68 C 116.93 166.90 118.01 167.78 119.22 167.66 C 120.44 167.54 121.32 166.46 121.20 165.24 Z M 121.11 164.37 L 121.06 163.36 C 121.00 162.14 119.96 161.20 118.75 161.26 C 117.53 161.32 116.59 162.36 116.65 163.57 L 116.70 164.58 C 116.76 165.80 117.80 166.74 119.01 166.68 C 120.23 166.62 121.17 165.58 121.11 164.37 Z M 121.06 163.42 L 121.04 162.41 C 121.02 161.19 120.01 160.22 118.80 160.24 C 117.58 160.27 116.61 161.27 116.63 162.49 L 116.65 163.51 C 116.67 164.72 117.68 165.69 118.90 165.67 C 120.11 165.65 121.08 164.64 121.06 163.42 Z M 121.04 162.44 L 121.04 161.46 C 121.04 160.24 120.05 159.25 118.83 159.26 C 117.61 159.26 116.62 160.25 116.63 161.47 L 116.63 162.46 C 116.63 163.67 117.62 164.66 118.84 164.65 C 120.06 164.65 121.05 163.66 121.04 162.44 Z M 121.04 161.46 L 121.04 160.43 C 121.04 159.21 120.05 158.23 118.83 158.23 C 117.62 158.23 116.63 159.21 116.63 160.43 L 116.63 161.46 C 116.63 162.68 117.62 163.67 118.83 163.67 C 120.05 163.67 121.04 162.68 121.04 161.46 Z M 121.04 160.43 L 121.04 159.44 C 121.04 158.22 120.05 157.24 118.83 157.24 C 117.62 157.24 116.63 158.22 116.63 159.44 L 116.63 160.43 C 116.63 161.65 117.62 162.63 118.83 162.63 C 120.05 162.63 121.04 161.65 121.04 160.43 Z M 121.04 159.44 L 121.04 158.46 C 121.04 157.24 120.05 156.26 118.83 156.26 C 117.62 156.26 116.63 157.24 116.63 158.46 L 116.63 159.44 C 116.63 160.66 117.62 161.65 118.83 161.65 C 120.05 161.65 121.04 160.66 121.04 159.44 Z M 121.04 158.46 L 121.04 157.50 C 121.04 156.28 120.05 155.29 118.84 155.29 C 117.62 155.29 116.63 156.28 116.63 157.49 L 116.63 158.46 C 116.63 159.68 117.62 160.66 118.83 160.67 C 120.05 160.67 121.04 159.68 121.04 158.46 Z M 121.04 157.51 L 121.05 156.53 C 121.05 155.31 120.08 154.32 118.86 154.31 C 117.64 154.30 116.65 155.28 116.64 156.50 L 116.63 157.48 C 116.62 158.69 117.60 159.69 118.82 159.70 C 120.03 159.71 121.03 158.73 121.04 157.51 Z M 121.04 156.57 L 121.07 155.55 C 121.10 154.34 120.14 153.33 118.92 153.30 C 117.71 153.27 116.69 154.23 116.66 155.44 L 116.64 156.46 C 116.61 157.67 117.57 158.69 118.79 158.72 C 120.00 158.75 121.01 157.78 121.04 156.57 Z M 121.07 155.61 L 121.12 154.58 C 121.18 153.37 120.25 152.33 119.03 152.27 C 117.82 152.21 116.78 153.14 116.72 154.36 L 116.67 155.39 C 116.60 156.60 117.54 157.64 118.75 157.70 C 119.97 157.76 121.01 156.83 121.07 155.61 Z M 121.12 154.65 L 121.20 153.67 C 121.30 152.46 120.40 151.39 119.18 151.29 C 117.97 151.19 116.91 152.09 116.81 153.30 L 116.72 154.29 C 116.62 155.50 117.53 156.56 118.74 156.67 C 119.95 156.77 121.02 155.86 121.12 154.65 Z M 121.19 153.74 L 121.30 152.74 C 121.44 151.53 120.57 150.44 119.36 150.30 C 118.16 150.17 117.06 151.03 116.93 152.24 L 116.81 153.24 C 116.68 154.45 117.54 155.54 118.75 155.67 C 119.96 155.81 121.05 154.94 121.19 153.74 Z M 121.29 152.81 L 121.44 151.81 C 121.61 150.61 120.78 149.49 119.58 149.31 C 118.37 149.14 117.26 149.97 117.08 151.18 L 116.94 152.17 C 116.76 153.38 117.59 154.49 118.80 154.67 C 120.00 154.85 121.12 154.01 121.29 152.81 Z M 121.43 151.88 L 121.60 150.89 C 121.82 149.69 121.02 148.54 119.82 148.33 C 118.63 148.12 117.48 148.91 117.27 150.11 L 117.09 151.11 C 116.88 152.30 117.68 153.45 118.87 153.66 C 120.07 153.87 121.21 153.08 121.43 151.88 Z M 121.59 150.95 L 121.80 149.96 C 122.05 148.77 121.29 147.61 120.10 147.36 C 118.90 147.11 117.74 147.87 117.49 149.06 L 117.28 150.05 C 117.03 151.24 117.79 152.40 118.99 152.65 C 120.18 152.90 121.34 152.14 121.59 150.95 Z M 121.79 150.01 L 122.02 149.04 C 122.29 147.85 121.56 146.67 120.37 146.39 C 119.19 146.11 118.00 146.85 117.72 148.04 L 117.50 149.01 C 117.22 150.20 117.96 151.38 119.14 151.66 C 120.33 151.94 121.51 151.20 121.79 150.01 Z M 122.01 149.07 L 122.25 148.11 C 122.55 146.92 121.83 145.73 120.64 145.43 C 119.46 145.14 118.26 145.86 117.97 147.04 L 117.73 148.01 C 117.44 149.19 118.16 150.39 119.34 150.68 C 120.52 150.97 121.72 150.25 122.01 149.07 Z M 122.25 148.12 L 122.49 147.16 C 122.80 145.98 122.08 144.78 120.90 144.48 C 119.72 144.18 118.52 144.89 118.22 146.07 L 117.97 147.03 C 117.67 148.21 118.38 149.41 119.56 149.71 C 120.75 150.02 121.95 149.30 122.25 148.12 Z M 122.49 147.18 L 122.74 146.23 C 123.05 145.04 122.35 143.84 121.16 143.53 C 119.98 143.22 118.78 143.92 118.47 145.10 L 118.22 146.06 C 117.91 147.24 118.61 148.45 119.79 148.76 C 120.98 149.07 122.18 148.36 122.49 147.18 Z M 122.74 146.25 L 123.00 145.29 C 123.32 144.11 122.63 142.89 121.45 142.57 C 120.27 142.25 119.06 142.94 118.73 144.12 L 118.47 145.08 C 118.15 146.26 118.84 147.48 120.02 147.80 C 121.20 148.12 122.42 147.43 122.74 146.25 Z M 122.99 145.32 L 123.28 144.35 C 123.62 143.17 122.95 141.94 121.77 141.60 C 120.60 141.26 119.37 141.93 119.03 143.11 L 118.74 144.09 C 118.40 145.26 119.07 146.49 120.25 146.83 C 121.42 147.17 122.65 146.50 122.99 145.32 Z M 123.27 144.39 L 123.56 143.45 C 123.93 142.28 123.27 141.04 122.11 140.67 C 120.94 140.31 119.69 140.96 119.33 142.13 L 119.04 143.07 C 118.67 144.23 119.32 145.48 120.49 145.84 C 121.66 146.21 122.90 145.56 123.27 144.39 Z M 123.55 143.50 L 123.86 142.56 C 124.25 141.40 123.63 140.14 122.47 139.75 C 121.31 139.36 120.05 139.98 119.66 141.14 L 119.34 142.08 C 118.95 143.24 119.58 144.50 120.74 144.89 C 121.90 145.28 123.16 144.66 123.55 143.50 Z M 123.84 142.61 L 124.19 141.67 C 124.61 140.52 124.02 139.24 122.87 138.82 C 121.72 138.40 120.45 138.99 120.03 140.14 L 119.68 141.08 C 119.26 142.23 119.85 143.51 121.00 143.93 C 122.15 144.35 123.42 143.76 123.84 142.61 Z M 124.17 141.73 L 124.55 140.79 C 125.01 139.65 124.46 138.36 123.32 137.90 C 122.18 137.44 120.89 137.99 120.43 139.13 L 120.05 140.07 C 119.59 141.21 120.14 142.50 121.28 142.96 C 122.42 143.42 123.71 142.87 124.17 141.73 Z M 124.52 140.86 L 124.93 139.94 C 125.43 138.82 124.93 137.51 123.81 137.01 C 122.69 136.51 121.38 137.01 120.88 138.13 L 120.46 139.05 C 119.96 140.17 120.47 141.48 121.58 141.98 C 122.70 142.48 124.02 141.98 124.52 140.86 Z M 124.89 140.02 L 125.34 139.12 C 125.88 138.02 125.43 136.69 124.33 136.15 C 123.23 135.61 121.90 136.06 121.35 137.16 L 120.91 138.06 C 120.37 139.15 120.82 140.49 121.92 141.03 C 123.02 141.57 124.35 141.12 124.89 140.02 Z M 125.30 139.19 L 125.77 138.31 C 126.36 137.23 125.95 135.89 124.87 135.31 C 123.79 134.72 122.45 135.13 121.87 136.21 L 121.39 137.09 C 120.81 138.17 121.21 139.51 122.29 140.09 C 123.37 140.68 124.72 140.27 125.30 139.19 Z M 125.74 138.38 L 126.24 137.52 C 126.86 136.46 126.50 135.10 125.44 134.48 C 124.38 133.86 123.02 134.22 122.41 135.28 L 121.90 136.14 C 121.28 137.20 121.64 138.56 122.70 139.18 C 123.76 139.80 125.12 139.44 125.74 138.38 Z M 126.20 137.58 L 126.74 136.73 C 127.39 135.69 127.08 134.32 126.04 133.67 C 125.00 133.01 123.63 133.32 122.98 134.36 L 122.44 135.21 C 121.79 136.25 122.10 137.62 123.14 138.28 C 124.18 138.93 125.55 138.62 126.20 137.58 Z M 126.70 136.78 L 127.27 135.94 C 127.95 134.93 127.68 133.55 126.66 132.86 C 125.64 132.18 124.26 132.45 123.58 133.47 L 123.01 134.31 C 122.33 135.33 122.60 136.71 123.62 137.39 C 124.64 138.07 126.02 137.80 126.70 136.78 Z M 127.23 135.99 L 127.82 135.17 C 128.53 134.17 128.29 132.79 127.29 132.08 C 126.29 131.37 124.90 131.60 124.19 132.60 L 123.61 133.42 C 122.90 134.42 123.14 135.81 124.14 136.52 C 125.14 137.23 126.52 136.99 127.23 135.99 Z M 127.79 135.22 L 128.38 134.42 C 129.11 133.44 128.91 132.04 127.93 131.31 C 126.94 130.58 125.55 130.78 124.82 131.76 L 124.22 132.56 C 123.49 133.54 123.69 134.94 124.68 135.67 C 125.66 136.40 127.05 136.20 127.79 135.22 Z M 128.35 134.46 L 128.96 133.67 C 129.72 132.70 129.54 131.30 128.57 130.55 C 127.60 129.80 126.21 129.97 125.45 130.94 L 124.84 131.73 C 124.09 132.70 124.26 134.09 125.23 134.85 C 126.20 135.60 127.60 135.42 128.35 134.46 Z M 128.94 133.70 L 129.58 132.91 C 130.36 131.95 130.21 130.55 129.25 129.78 C 128.29 129.01 126.89 129.15 126.12 130.11 L 125.48 130.91 C 124.71 131.86 124.85 133.26 125.81 134.04 C 126.77 134.81 128.17 134.66 128.94 133.70 Z M 129.55 132.95 L 130.20 132.19 C 131.00 131.25 130.88 129.84 129.94 129.04 C 129.00 128.25 127.59 128.36 126.80 129.30 L 126.15 130.07 C 125.35 131.01 125.47 132.42 126.41 133.21 C 127.35 134.01 128.76 133.89 129.55 132.95 Z M 130.17 132.23 L 130.82 131.50 C 131.64 130.58 131.56 129.16 130.64 128.34 C 129.72 127.52 128.30 127.60 127.48 128.53 L 126.83 129.26 C 126.01 130.18 126.09 131.59 127.01 132.41 C 127.93 133.23 129.35 133.15 130.17 132.23 Z M 130.78 131.55 L 131.47 130.82 C 132.32 129.92 132.28 128.51 131.38 127.66 C 130.48 126.81 129.06 126.85 128.21 127.75 L 127.52 128.47 C 126.67 129.37 126.71 130.79 127.61 131.64 C 128.51 132.49 129.93 132.45 130.78 131.55 Z M 131.42 130.88 L 132.15 130.15 C 133.03 129.28 133.03 127.86 132.15 126.98 C 131.27 126.10 129.85 126.10 128.97 126.97 L 128.25 127.69 C 127.37 128.57 127.37 129.99 128.25 130.87 C 129.12 131.75 130.55 131.75 131.42 130.88 Z M 132.11 130.20 L 132.83 129.52 C 133.74 128.66 133.78 127.24 132.92 126.33 C 132.07 125.43 130.64 125.39 129.74 126.24 L 129.01 126.93 C 128.11 127.78 128.07 129.21 128.92 130.11 C 129.78 131.02 131.20 131.06 132.11 130.20 Z M 132.80 129.56 L 133.52 128.91 C 134.44 128.08 134.52 126.65 133.68 125.72 C 132.85 124.79 131.42 124.72 130.49 125.55 L 129.77 126.20 C 128.84 127.03 128.77 128.46 129.60 129.39 C 130.44 130.32 131.87 130.40 132.80 129.56 Z M 133.48 128.95 L 134.24 128.29 C 135.19 127.48 135.30 126.05 134.49 125.10 C 133.67 124.15 132.24 124.04 131.29 124.86 L 130.53 125.51 C 129.58 126.33 129.47 127.76 130.29 128.71 C 131.10 129.66 132.53 129.77 133.48 128.95 Z M 134.19 128.34 L 134.96 127.72 C 135.94 126.94 136.10 125.51 135.31 124.54 C 134.53 123.56 133.10 123.40 132.13 124.19 L 131.35 124.81 C 130.37 125.59 130.22 127.02 131.00 127.99 C 131.78 128.97 133.21 129.13 134.19 128.34 Z M 134.88 127.79 L 135.69 127.20 C 136.70 126.46 136.92 125.04 136.18 124.03 C 135.44 123.02 134.02 122.80 133.01 123.54 L 132.20 124.12 C 131.19 124.86 130.97 126.28 131.71 127.29 C 132.45 128.31 133.87 128.53 134.88 127.79 Z M 135.59 127.27 L 136.42 126.73 C 137.46 126.04 137.76 124.63 137.07 123.58 C 136.38 122.53 134.97 122.24 133.92 122.93 L 133.10 123.47 C 132.05 124.16 131.76 125.56 132.45 126.61 C 133.13 127.66 134.54 127.96 135.59 127.27 Z M 136.32 126.79 L 137.18 126.29 C 138.26 125.66 138.63 124.27 138.00 123.18 C 137.36 122.09 135.97 121.73 134.88 122.36 L 134.02 122.86 C 132.94 123.49 132.57 124.89 133.20 125.98 C 133.84 127.06 135.23 127.43 136.32 126.79 Z M 137.07 126.36 L 137.97 125.90 C 139.09 125.32 139.53 123.94 138.96 122.82 C 138.38 121.70 137.00 121.26 135.88 121.83 L 134.98 122.30 C 133.86 122.87 133.42 124.25 134.00 125.37 C 134.57 126.49 135.95 126.94 137.07 126.36 Z M 137.86 125.96 L 138.79 125.54 C 139.94 125.02 140.46 123.67 139.94 122.51 C 139.42 121.36 138.07 120.84 136.91 121.36 L 135.99 121.77 C 134.83 122.29 134.32 123.65 134.83 124.80 C 135.35 125.96 136.71 126.47 137.86 125.96 Z M 138.68 125.60 L 139.61 125.24 C 140.80 124.78 141.39 123.45 140.93 122.26 C 140.47 121.08 139.14 120.49 137.96 120.94 L 137.02 121.30 C 135.84 121.76 135.25 123.09 135.70 124.28 C 136.16 125.46 137.49 126.05 138.68 125.60 Z M 139.51 125.28 L 140.46 124.97 C 141.67 124.57 142.33 123.26 141.93 122.05 C 141.53 120.84 140.22 120.19 139.01 120.59 L 138.06 120.90 C 136.85 121.30 136.20 122.60 136.60 123.81 C 136.99 125.02 138.30 125.68 139.51 125.28 Z M 140.37 125.00 L 141.33 124.73 C 142.56 124.38 143.27 123.10 142.92 121.87 C 142.57 120.64 141.29 119.93 140.06 120.28 L 139.10 120.55 C 137.87 120.90 137.16 122.18 137.51 123.41 C 137.86 124.64 139.14 125.35 140.37 125.00 Z M 141.24 124.76 L 142.23 124.52 C 143.47 124.22 144.24 122.96 143.94 121.72 C 143.64 120.47 142.38 119.71 141.14 120.01 L 140.15 120.25 C 138.90 120.55 138.14 121.80 138.44 123.05 C 138.74 124.29 140.00 125.06 141.24 124.76 Z M 142.15 124.54 L 143.14 124.34 C 144.40 124.08 145.21 122.86 144.95 121.60 C 144.70 120.34 143.47 119.53 142.21 119.78 L 141.22 119.99 C 139.96 120.24 139.15 121.47 139.41 122.73 C 139.66 123.98 140.89 124.80 142.15 124.54 Z M 143.05 124.36 L 144.03 124.20 C 145.30 123.99 146.16 122.79 145.95 121.52 C 145.74 120.25 144.54 119.39 143.27 119.60 L 142.30 119.77 C 141.03 119.98 140.17 121.17 140.38 122.44 C 140.59 123.71 141.79 124.57 143.05 124.36 Z M 143.95 124.21 L 144.91 124.09 C 146.19 123.93 147.09 122.76 146.93 121.48 C 146.77 120.21 145.60 119.30 144.33 119.47 L 143.36 119.59 C 142.08 119.75 141.18 120.92 141.34 122.19 C 141.50 123.47 142.67 124.37 143.95 124.21 Z M 144.83 124.10 L 145.80 124.01 C 147.08 123.90 148.03 122.77 147.91 121.48 C 147.80 120.20 146.67 119.26 145.39 119.37 L 144.41 119.46 C 143.13 119.57 142.18 120.70 142.30 121.98 C 142.41 123.27 143.54 124.21 144.83 124.10 Z M 145.72 124.02 L 146.71 123.96 C 147.99 123.89 148.98 122.79 148.91 121.51 C 148.83 120.22 147.74 119.24 146.45 119.31 L 145.46 119.36 C 144.18 119.44 143.19 120.54 143.26 121.82 C 143.34 123.11 144.44 124.09 145.72 124.02 Z M 146.65 123.97 L 147.69 123.93 C 148.98 123.89 149.99 122.82 149.95 121.53 C 149.91 120.25 148.83 119.24 147.55 119.28 L 146.51 119.31 C 145.22 119.35 144.21 120.42 144.25 121.71 C 144.29 122.99 145.36 124.00 146.65 123.97 Z M 147.66 123.93 L 148.60 123.92 C 149.89 123.90 150.91 122.84 150.89 121.55 C 150.87 120.27 149.81 119.24 148.53 119.26 L 147.58 119.28 C 146.30 119.30 145.27 120.36 145.29 121.64 C 145.31 122.93 146.37 123.95 147.66 123.93 Z M 148.58 123.91 L 149.58 123.90 C 150.86 123.89 151.89 122.85 151.88 121.56 C 151.87 120.28 150.83 119.25 149.54 119.26 L 148.55 119.27 C 147.27 119.28 146.24 120.32 146.25 121.61 C 146.25 122.89 147.30 123.92 148.58 123.91 Z M 149.57 123.90 L 150.59 123.89 C 151.87 123.89 152.90 122.85 152.90 121.57 C 152.90 120.29 151.86 119.26 150.58 119.26 L 149.56 119.27 C 148.28 119.27 147.24 120.31 147.25 121.59 C 147.25 122.87 148.29 123.90 149.57 123.90 Z M 150.59 123.89 L 151.47 123.89 C 152.75 123.89 153.78 122.85 153.78 121.58 C 153.78 120.30 152.74 119.27 151.47 119.27 L 150.58 119.27 C 149.31 119.27 148.27 120.30 148.28 121.58 C 148.28 122.86 149.31 123.89 150.59 123.89 Z"
      fill="black"
      fill-rule="nonzero" /><path d="M 130.45 109.57 L 131.28 110.06 C 132.38 110.70 133.79 110.33 134.43 109.23 C 135.08 108.13 134.71 106.71 133.61 106.07 L 132.78 105.58 C 131.68 104.94 130.26 105.31 129.62 106.41 C 128.97 107.51 129.35 108.93 130.45 109.57 Z M 131.31 110.07 L 132.17 110.56 C 133.28 111.18 134.68 110.79 135.31 109.68 C 135.94 108.57 135.55 107.16 134.44 106.54 L 133.58 106.05 C 132.47 105.43 131.06 105.82 130.43 106.93 C 129.80 108.04 130.20 109.45 131.31 110.07 Z M 132.22 110.59 L 133.14 111.07 C 134.27 111.67 135.66 111.24 136.26 110.11 C 136.85 108.99 136.42 107.59 135.30 106.99 L 134.38 106.51 C 133.25 105.91 131.86 106.34 131.26 107.47 C 130.66 108.59 131.09 109.99 132.22 110.59 Z M 133.20 111.11 L 134.04 111.52 C 135.18 112.08 136.57 111.60 137.13 110.46 C 137.69 109.31 137.21 107.93 136.07 107.37 L 135.23 106.96 C 134.09 106.40 132.70 106.87 132.14 108.02 C 131.58 109.16 132.06 110.55 133.20 111.11 Z M 134.08 111.54 L 134.95 111.94 C 136.11 112.47 137.48 111.97 138.01 110.81 C 138.55 109.66 138.05 108.28 136.89 107.75 L 136.02 107.35 C 134.87 106.81 133.49 107.31 132.96 108.47 C 132.42 109.63 132.93 111.00 134.08 111.54 Z M 134.97 111.95 L 135.90 112.37 C 137.06 112.89 138.43 112.37 138.95 111.21 C 139.48 110.05 138.96 108.68 137.80 108.16 L 136.87 107.74 C 135.71 107.22 134.34 107.73 133.82 108.89 C 133.29 110.06 133.81 111.42 134.97 111.95 Z M 135.90 112.37 L 136.90 112.82 C 138.06 113.34 139.43 112.82 139.95 111.66 C 140.47 110.50 139.96 109.13 138.79 108.61 L 137.80 108.16 C 136.63 107.64 135.27 108.15 134.75 109.32 C 134.22 110.48 134.74 111.84 135.90 112.37 Z M 136.89 112.81 L 137.76 113.20 C 138.92 113.73 140.29 113.22 140.81 112.06 C 141.34 110.90 140.83 109.54 139.67 109.01 L 138.80 108.61 C 137.64 108.09 136.28 108.60 135.75 109.76 C 135.22 110.91 135.74 112.28 136.89 112.81 Z M 137.75 113.19 L 138.63 113.60 C 139.79 114.13 141.15 113.63 141.69 112.48 C 142.22 111.33 141.72 109.96 140.56 109.43 L 139.68 109.02 C 138.53 108.49 137.16 108.99 136.63 110.14 C 136.10 111.29 136.60 112.66 137.75 113.19 Z M 138.62 113.59 L 139.53 114.02 C 140.68 114.56 142.04 114.07 142.58 112.92 C 143.12 111.78 142.63 110.41 141.49 109.87 L 140.58 109.44 C 139.43 108.90 138.07 109.39 137.53 110.54 C 136.99 111.68 137.48 113.05 138.62 113.59 Z M 139.52 114.01 L 140.45 114.45 C 141.59 115.00 142.95 114.52 143.50 113.38 C 144.05 112.25 143.57 110.88 142.43 110.33 L 141.50 109.89 C 140.36 109.34 139.00 109.82 138.45 110.95 C 137.90 112.09 138.38 113.46 139.52 114.01 Z M 140.43 114.44 L 141.37 114.90 C 142.50 115.46 143.87 114.99 144.42 113.86 C 144.98 112.73 144.52 111.37 143.39 110.81 L 142.45 110.35 C 141.32 109.79 139.95 110.25 139.40 111.38 C 138.84 112.51 139.30 113.88 140.43 114.44 Z M 141.35 114.89 L 142.29 115.36 C 143.42 115.93 144.79 115.48 145.35 114.36 C 145.92 113.24 145.47 111.87 144.35 111.30 L 143.41 110.82 C 142.29 110.26 140.92 110.71 140.35 111.83 C 139.78 112.95 140.23 114.32 141.35 114.89 Z M 142.28 115.35 L 143.20 115.83 C 144.32 116.41 145.69 115.98 146.27 114.86 C 146.85 113.75 146.41 112.38 145.30 111.80 L 144.37 111.32 C 143.26 110.74 141.88 111.17 141.30 112.29 C 140.73 113.40 141.16 114.77 142.28 115.35 Z M 143.19 115.82 L 144.08 116.30 C 145.19 116.89 146.57 116.47 147.15 115.36 C 147.74 114.25 147.32 112.87 146.21 112.28 L 145.32 111.81 C 144.21 111.22 142.83 111.64 142.24 112.75 C 141.66 113.86 142.08 115.23 143.19 115.82 Z M 144.06 116.29 L 144.91 116.75 C 146.02 117.35 147.39 116.94 147.99 115.84 C 148.59 114.74 148.18 113.36 147.08 112.76 L 146.23 112.30 C 145.13 111.70 143.75 112.11 143.15 113.21 C 142.55 114.31 142.96 115.69 144.06 116.29 Z M 144.89 116.73 L 145.71 117.19 C 146.80 117.80 148.18 117.41 148.79 116.31 C 149.40 115.22 149.01 113.83 147.92 113.22 L 147.10 112.77 C 146.01 112.16 144.62 112.55 144.02 113.65 C 143.41 114.74 143.80 116.13 144.89 116.73 Z M 145.68 117.18 L 146.62 117.72 C 147.71 118.34 149.10 117.97 149.72 116.88 C 150.35 115.79 149.97 114.41 148.89 113.78 L 147.94 113.24 C 146.86 112.61 145.47 112.99 144.84 114.07 C 144.22 115.16 144.59 116.55 145.68 117.18 Z M 146.58 117.70 L 147.43 118.21 C 148.51 118.86 149.91 118.51 150.56 117.43 C 151.20 116.35 150.85 114.95 149.77 114.30 L 148.93 113.80 C 147.85 113.15 146.45 113.50 145.80 114.58 C 145.16 115.66 145.51 117.06 146.58 117.70 Z M 147.39 118.19 L 148.19 118.69 C 149.26 119.36 150.67 119.03 151.34 117.97 C 152.00 116.90 151.68 115.49 150.61 114.82 L 149.81 114.32 C 148.74 113.65 147.34 113.98 146.67 115.05 C 146.00 116.12 146.32 117.53 147.39 118.19 Z M 148.15 118.68 L 148.96 119.20 C 150.02 119.89 151.44 119.59 152.13 118.52 C 152.82 117.46 152.51 116.05 151.45 115.36 L 150.65 114.83 C 149.58 114.15 148.17 114.45 147.48 115.51 C 146.79 116.57 147.09 117.99 148.15 118.68 Z M 148.92 119.19 L 149.75 119.74 C 150.81 120.45 152.24 120.17 152.94 119.12 C 153.65 118.07 153.37 116.64 152.32 115.93 L 151.49 115.37 C 150.44 114.66 149.01 114.94 148.30 116.00 C 147.59 117.05 147.87 118.48 148.92 119.19 Z M 149.71 119.72 L 150.53 120.30 C 151.57 121.04 153.01 120.79 153.75 119.75 C 154.48 118.71 154.23 117.27 153.19 116.53 L 152.37 115.95 C 151.33 115.22 149.89 115.47 149.15 116.51 C 148.42 117.55 148.66 118.99 149.71 119.72 Z M 150.47 120.28 L 151.27 120.87 C 152.30 121.64 153.75 121.43 154.52 120.41 C 155.29 119.38 155.08 117.93 154.05 117.16 L 153.25 116.56 C 152.22 115.79 150.77 116.00 150.00 117.03 C 149.23 118.05 149.44 119.51 150.47 120.28 Z M 151.15 120.84 L 151.97 121.51 C 152.97 122.35 154.46 122.21 155.30 121.20 C 156.13 120.20 155.99 118.71 154.99 117.88 L 154.17 117.20 C 153.16 116.36 151.67 116.50 150.84 117.51 C 150.01 118.51 150.15 120.00 151.15 120.84 Z M 151.69 121.35 L 152.36 122.08 C 153.28 123.07 154.82 123.13 155.81 122.22 C 156.80 121.30 156.86 119.76 155.94 118.77 L 155.27 118.04 C 154.35 117.05 152.81 116.99 151.82 117.90 C 150.83 118.82 150.77 120.36 151.69 121.35 Z M 151.94 121.63 L 152.39 122.45 C 153.05 123.67 154.58 124.12 155.80 123.45 C 157.02 122.79 157.47 121.26 156.81 120.04 L 156.36 119.22 C 155.70 118.00 154.17 117.55 152.95 118.22 C 151.73 118.88 151.28 120.41 151.94 121.63 Z M 152.07 121.64 L 152.21 122.53 C 152.43 123.93 153.74 124.88 155.13 124.66 C 156.53 124.45 157.48 123.14 157.27 121.74 L 157.13 120.85 C 156.91 119.45 155.60 118.50 154.21 118.72 C 152.81 118.93 151.86 120.24 152.07 121.64 Z M 152.21 121.76 L 152.06 122.73 C 151.86 124.13 152.82 125.43 154.22 125.63 C 155.62 125.84 156.92 124.87 157.13 123.47 L 157.27 122.51 C 157.48 121.11 156.51 119.81 155.11 119.60 C 153.71 119.40 152.41 120.37 152.21 121.76 Z M 152.22 122.15 L 151.83 123.13 C 151.30 124.44 151.94 125.94 153.25 126.46 C 154.56 126.99 156.05 126.35 156.58 125.04 L 156.97 124.05 C 157.50 122.74 156.86 121.25 155.55 120.72 C 154.24 120.20 152.75 120.83 152.22 122.15 Z M 152.04 122.72 L 151.50 123.57 C 150.74 124.77 151.10 126.35 152.29 127.11 C 153.49 127.86 155.07 127.50 155.83 126.31 L 156.37 125.45 C 157.12 124.26 156.76 122.68 155.57 121.92 C 154.37 121.17 152.79 121.52 152.04 122.72 Z M 151.68 123.32 L 151.05 124.09 C 150.16 125.19 150.32 126.80 151.42 127.69 C 152.51 128.59 154.13 128.42 155.02 127.33 L 155.64 126.56 C 156.54 125.46 156.37 123.85 155.28 122.96 C 154.18 122.06 152.57 122.23 151.68 123.32 Z M 151.17 123.96 L 150.47 124.70 C 149.51 125.73 149.56 127.35 150.59 128.32 C 151.62 129.28 153.24 129.23 154.21 128.20 L 154.90 127.46 C 155.87 126.43 155.82 124.81 154.78 123.84 C 153.75 122.88 152.13 122.93 151.17 123.96 Z M 150.53 124.65 L 149.81 125.37 C 148.81 126.37 148.82 127.98 149.82 128.98 C 150.82 129.98 152.43 129.98 153.43 128.98 L 154.15 128.26 C 155.15 127.26 155.15 125.64 154.15 124.64 C 153.15 123.64 151.53 123.65 150.53 124.65 Z M 149.81 125.37 L 149.14 126.04 C 148.15 127.04 148.15 128.66 149.15 129.65 C 150.15 130.65 151.77 130.64 152.76 129.64 L 153.43 128.97 C 154.42 127.97 154.42 126.36 153.42 125.36 C 152.42 124.37 150.81 124.37 149.81 125.37 Z M 149.14 126.06 L 148.49 126.73 C 147.51 127.73 147.52 129.34 148.52 130.32 C 149.53 131.30 151.13 131.29 152.12 130.28 L 152.77 129.62 C 153.75 128.62 153.73 127.01 152.73 126.03 C 151.73 125.05 150.12 125.06 149.14 126.06 Z M 148.50 126.73 L 147.82 127.43 C 146.84 128.42 146.85 130.03 147.85 131.00 C 148.85 131.98 150.45 131.97 151.42 130.97 L 152.11 130.28 C 153.08 129.28 153.07 127.68 152.07 126.70 C 151.08 125.72 149.48 125.74 148.50 126.73 Z M 147.84 127.42 L 147.09 128.18 C 146.10 129.16 146.11 130.76 147.09 131.74 C 148.07 132.72 149.66 132.72 150.64 131.73 L 151.40 130.98 C 152.38 129.99 152.38 128.40 151.40 127.42 C 150.41 126.44 148.82 126.44 147.84 127.42 Z M 147.12 128.17 L 146.39 128.89 C 145.40 129.85 145.38 131.43 146.35 132.42 C 147.32 133.41 148.90 133.42 149.89 132.46 L 150.61 131.74 C 151.60 130.78 151.62 129.19 150.65 128.21 C 149.69 127.22 148.10 127.20 147.12 128.17 Z M 146.42 128.88 L 145.74 129.53 C 144.75 130.48 144.72 132.05 145.67 133.04 C 146.62 134.03 148.19 134.06 149.18 133.11 L 149.86 132.46 C 150.85 131.51 150.88 129.94 149.93 128.95 C 148.98 127.96 147.40 127.93 146.42 128.88 Z M 145.76 129.53 L 145.04 130.22 C 144.05 131.15 144.01 132.71 144.95 133.70 C 145.88 134.69 147.44 134.73 148.43 133.80 L 149.15 133.11 C 150.14 132.18 150.18 130.62 149.25 129.63 C 148.31 128.64 146.75 128.60 145.76 129.53 Z M 145.07 130.22 L 144.31 130.92 C 143.33 131.84 143.27 133.39 144.19 134.38 C 145.12 135.37 146.66 135.42 147.65 134.50 L 148.40 133.79 C 149.39 132.87 149.45 131.32 148.52 130.34 C 147.60 129.35 146.05 129.29 145.07 130.22 Z M 144.34 130.92 L 143.57 131.63 C 142.58 132.54 142.52 134.07 143.43 135.06 C 144.33 136.05 145.87 136.11 146.86 135.20 L 147.63 134.50 C 148.61 133.59 148.68 132.05 147.77 131.06 C 146.86 130.08 145.32 130.01 144.34 130.92 Z M 143.59 131.63 L 142.82 132.33 C 141.84 133.23 141.76 134.75 142.66 135.74 C 143.55 136.72 145.08 136.80 146.06 135.90 L 146.83 135.20 C 147.82 134.31 147.89 132.78 147.00 131.80 C 146.10 130.81 144.58 130.74 143.59 131.63 Z M 142.86 132.34 L 142.05 133.07 C 141.07 133.94 140.98 135.45 141.86 136.42 C 142.73 137.40 144.24 137.49 145.21 136.61 L 146.03 135.89 C 147.01 135.01 147.09 133.51 146.22 132.53 C 145.34 131.55 143.84 131.47 142.86 132.34 Z M 142.10 133.10 L 141.29 133.81 C 140.32 134.66 140.23 136.12 141.07 137.09 C 141.92 138.05 143.38 138.14 144.35 137.30 L 145.16 136.58 C 146.13 135.74 146.22 134.27 145.38 133.31 C 144.53 132.35 143.06 132.25 142.10 133.10 Z M 141.34 133.84 L 140.56 134.52 C 139.62 135.33 139.51 136.76 140.32 137.70 C 141.14 138.65 142.56 138.75 143.51 137.94 L 144.29 137.26 C 145.23 136.45 145.34 135.03 144.53 134.08 C 143.71 133.14 142.29 133.03 141.34 133.84 Z M 140.62 134.55 L 139.87 135.18 C 138.95 135.96 138.83 137.35 139.61 138.27 C 140.39 139.20 141.77 139.32 142.70 138.54 L 143.45 137.91 C 144.37 137.12 144.49 135.74 143.71 134.82 C 142.93 133.89 141.55 133.77 140.62 134.55 Z M 139.93 135.22 L 139.23 135.80 C 138.32 136.55 138.19 137.89 138.94 138.80 C 139.69 139.70 141.03 139.83 141.93 139.08 L 142.64 138.50 C 143.55 137.75 143.68 136.41 142.93 135.51 C 142.18 134.60 140.84 134.47 139.93 135.22 Z M 139.29 135.83 L 138.54 136.44 C 137.65 137.15 137.51 138.45 138.22 139.34 C 138.93 140.22 140.23 140.37 141.11 139.66 L 141.87 139.05 C 142.76 138.34 142.90 137.04 142.19 136.15 C 141.48 135.27 140.18 135.12 139.29 135.83 Z M 138.61 136.48 L 137.77 137.13 C 136.90 137.80 136.74 139.05 137.41 139.92 C 138.08 140.78 139.33 140.94 140.20 140.27 L 141.04 139.62 C 141.91 138.95 142.07 137.70 141.40 136.83 C 140.73 135.96 139.48 135.80 138.61 136.48 Z M 137.83 137.18 L 137.05 137.77 C 136.21 138.40 136.04 139.59 136.67 140.44 C 137.31 141.28 138.50 141.45 139.34 140.81 L 140.13 140.22 C 140.97 139.59 141.14 138.40 140.50 137.55 C 139.87 136.71 138.68 136.54 137.83 137.18 Z M 137.11 137.82 L 136.36 138.38 C 135.55 138.98 135.38 140.13 135.99 140.93 C 136.59 141.74 137.73 141.91 138.54 141.31 L 139.29 140.75 C 140.10 140.15 140.27 139.01 139.66 138.20 C 139.06 137.39 137.92 137.22 137.11 137.82 Z M 136.39 138.44 L 135.63 139.02 C 134.85 139.60 134.69 140.70 135.28 141.48 C 135.86 142.26 136.96 142.41 137.74 141.83 L 138.51 141.25 C 139.29 140.67 139.44 139.56 138.86 138.79 C 138.27 138.01 137.17 137.85 136.39 138.44 Z M 135.64 139.06 L 134.85 139.67 C 134.10 140.24 133.95 141.32 134.53 142.07 C 135.10 142.82 136.18 142.97 136.93 142.39 L 137.72 141.79 C 138.48 141.21 138.62 140.13 138.04 139.38 C 137.47 138.63 136.39 138.49 135.64 139.06 Z M 134.86 139.70 L 134.07 140.31 C 133.34 140.88 133.20 141.93 133.77 142.67 C 134.33 143.40 135.39 143.54 136.12 142.97 L 136.92 142.36 C 137.65 141.79 137.79 140.74 137.22 140.00 C 136.65 139.27 135.60 139.13 134.86 139.70 Z M 134.09 140.34 L 133.37 140.90 C 132.65 141.45 132.52 142.49 133.08 143.21 C 133.64 143.92 134.67 144.05 135.39 143.50 L 136.11 142.94 C 136.82 142.38 136.95 141.35 136.40 140.63 C 135.84 139.91 134.80 139.78 134.09 140.34 Z"
      fill="black"
      fill-rule="nonzero" /></svg>