<svg xmlns="http://www.w3.org/2000/svg" version="1.0" width="937.000000pt" height="937.000000pt" viewBox="0 0 937.000000 937.000000" preserveAspectRatio="xMidYMid meet">
  <defs/>
  <path fill="#000000" d="M465.5,347.2 C464.4,347.8 463.2,348.8 462.8,349.4 C462.4,350 462,364.9 462,382.5 L462,414.5 L450.3,419.4 C443.8,422.1 434.6,426.3 429.8,428.7 C425,431 420.9,433 420.7,433 C420.5,433 420,426.5 419.7,418.6 C419.2,404.9 418.3,400.5 415.6,398.8 C413.5,397.3 409.3,398 407.4,400.1 L405.6,402.2 L405.2,421.9 L404.8,441.6 L398.6,444.9 C395.3,446.8 385.8,452.1 377.7,456.7 C369.6,461.4 359.7,466.2 355.8,467.6 C347.4,470.4 345,472.3 345,476.1 C345,479.2 348.4,483 351.1,483 C352,483 355.9,482.1 359.6,480.9 C366.5,478.8 369.9,477.2 392.4,464.6 C398.9,461 404.4,458 404.6,458 C405.6,458 404.8,512.4 403.4,548.5 C402.5,570.5 402,592.3 402.2,596.9 L402.7,605.3 L404.9,607.2 C407.8,609.5 409.2,609.5 412,607.2 L414.2,605.4 L415.1,584.5 C415.5,572.9 416.6,552.9 417.5,540 C418.3,527.1 419.3,501.3 419.6,482.7 L420.3,448.9 L432.4,443.1 C449.1,435.1 462,429.6 462.6,430.3 C462.9,430.6 463.2,443.1 463.3,458.2 L463.5,485.5 L461,493.5 L458.5,501.4 L454.5,503.7 C452.3,504.9 448.9,506 446.9,506 C442.6,506 434.4,510.9 432.8,514.6 L431.6,517.2 L433,519.8 C436.8,526.4 444.6,524.6 470.5,510.8 C488.9,500.9 510.2,487.1 519.2,479.1 L524.8,474 L532.3,486.8 C536.5,493.8 544.3,506 549.7,514 L559.6,528.5 L562.3,528.8 C568.8,529.6 569.7,524.5 564.6,516.1 C562.8,513 555.3,498.6 547.9,484.1 C540.5,469.6 533.5,456.7 532.3,455.4 C529.5,452.4 523.9,452.1 521.1,454.9 C520.1,455.9 518.9,458.6 518.5,460.8 C517.7,465.6 513.5,469.9 501.9,477.7 C492.9,483.8 475,494 473.3,494 C472.5,494 472.6,492.6 473.6,488.7 C475.1,483.2 477.5,436.9 476.7,429.2 C476.3,425.9 476.6,424.7 477.9,424.1 C483.8,421.1 505.4,417.4 533.8,414.5 C552.7,412.6 561.4,420.3 568.9,445.9 C572.8,459.1 578.4,488.1 580.4,506 C584.3,540 584.8,584.1 581.4,599.5 C579.4,608.2 573.1,621.6 569.1,625.4 L566.1,628.3 L561.5,628.2 C553.3,628 524.2,615.2 511.2,606 C502.9,600.2 499.2,595.6 494.4,585.3 C490.9,577.8 488.6,576.1 485.1,577.9 C481.3,580 481.5,582.8 486.3,592.4 C494,607.6 503.5,616.5 528.1,631 C550.4,644.2 559.6,647 570.7,643.9 C580.7,641.2 591.2,626.7 596.5,608.6 C605.8,576.4 599,485.2 583.8,437 C575.7,411.5 564,399.9 545.5,399.2 C536.6,398.8 501.1,403.5 485.8,407.1 C480.9,408.3 476.7,409 476.4,408.7 C476.1,408.5 475.6,395.1 475.3,379 L474.7,349.7 L472.8,347.8 C470.8,345.8 468.4,345.5 465.5,347.2 Z"/>
</svg>

