<svg xmlns="http://www.w3.org/2000/svg" width="300" height="300" viewBox="0 0 300 300">
<path d="M 110.75 152.53 L 111.72 152.63 C 112.93 152.76 114.01 151.90 114.14 150.70 C 114.27 149.49 113.40 148.42 112.20 148.28 L 111.22 148.18 C 110.02 148.05 108.94 148.91 108.81 150.11 C 108.68 151.31 109.54 152.39 110.75 152.53 Z M 111.74 152.77 L 112.72 152.87 C 114.00 152.99 115.13 152.06 115.26 150.78 C 115.38 149.51 114.45 148.37 113.17 148.24 L 112.19 148.15 C 110.91 148.02 109.78 148.95 109.65 150.23 C 109.53 151.51 110.46 152.64 111.74 152.77 Z M 112.76 153.00 L 113.76 153.08 C 115.11 153.18 116.29 152.17 116.39 150.82 C 116.50 149.47 115.49 148.29 114.13 148.18 L 113.14 148.11 C 111.78 148.00 110.60 149.01 110.50 150.37 C 110.40 151.72 111.41 152.90 112.76 153.00 Z M 113.83 153.22 L 114.84 153.27 C 116.27 153.33 117.48 152.23 117.55 150.80 C 117.61 149.37 116.51 148.16 115.08 148.09 L 114.06 148.04 C 112.64 147.98 111.42 149.08 111.36 150.51 C 111.29 151.94 112.40 153.15 113.83 153.22 Z M 114.94 153.35 L 115.88 153.36 C 117.36 153.37 118.57 152.19 118.58 150.71 C 118.59 149.23 117.41 148.03 115.93 148.01 L 114.98 148.00 C 113.51 147.99 112.30 149.18 112.29 150.65 C 112.27 152.13 113.46 153.34 114.94 153.35 Z M 115.97 153.38 L 116.91 153.35 C 118.40 153.32 119.58 152.08 119.54 150.59 C 119.50 149.11 118.26 147.93 116.78 147.97 L 115.84 148.00 C 114.35 148.03 113.17 149.27 113.21 150.76 C 113.25 152.24 114.49 153.42 115.97 153.38 Z M 117.00 153.35 L 117.98 153.30 C 119.46 153.22 120.60 151.94 120.52 150.46 C 120.43 148.97 119.16 147.84 117.68 147.92 L 116.70 147.97 C 115.21 148.06 114.07 149.33 114.16 150.81 C 114.24 152.30 115.51 153.44 117.00 153.35 Z M 118.04 153.30 L 119.07 153.21 C 120.56 153.09 121.66 151.79 121.54 150.31 C 121.42 148.82 120.12 147.72 118.64 147.84 L 117.61 147.92 C 116.12 148.04 115.02 149.34 115.14 150.83 C 115.26 152.31 116.56 153.42 118.04 153.30 Z M 119.13 153.21 L 120.22 153.10 C 121.70 152.94 122.78 151.62 122.63 150.14 C 122.48 148.66 121.15 147.58 119.67 147.73 L 118.58 147.84 C 117.10 147.99 116.02 149.32 116.17 150.80 C 116.32 152.28 117.65 153.36 119.13 153.21 Z M 120.26 153.09 L 121.27 152.97 C 122.75 152.80 123.80 151.46 123.63 149.98 C 123.46 148.50 122.11 147.44 120.64 147.62 L 119.63 147.73 C 118.15 147.91 117.09 149.25 117.27 150.73 C 117.44 152.21 118.78 153.27 120.26 153.09 Z M 121.29 152.97 L 122.32 152.84 C 123.79 152.65 124.84 151.30 124.65 149.82 C 124.46 148.34 123.11 147.30 121.63 147.49 L 120.61 147.62 C 119.13 147.81 118.09 149.16 118.27 150.64 C 118.46 152.12 119.81 153.16 121.29 152.97 Z M 122.33 152.84 L 123.36 152.70 C 124.84 152.50 125.87 151.14 125.67 149.66 C 125.48 148.19 124.12 147.15 122.64 147.35 L 121.61 147.49 C 120.14 147.69 119.10 149.05 119.30 150.52 C 119.50 152.00 120.86 153.04 122.33 152.84 Z M 123.37 152.70 L 124.38 152.56 C 125.86 152.35 126.89 150.99 126.68 149.51 C 126.48 148.04 125.11 147.01 123.64 147.21 L 122.63 147.35 C 121.15 147.56 120.12 148.92 120.33 150.40 C 120.53 151.87 121.90 152.90 123.37 152.70 Z M 124.39 152.56 L 125.35 152.42 C 126.83 152.21 127.85 150.85 127.64 149.37 C 127.44 147.90 126.07 146.87 124.59 147.08 L 123.63 147.21 C 122.16 147.42 121.13 148.79 121.34 150.26 C 121.55 151.74 122.91 152.76 124.39 152.56 Z M 125.35 152.42 L 126.34 152.28 C 127.81 152.07 128.84 150.71 128.63 149.23 C 128.42 147.76 127.06 146.73 125.58 146.94 L 124.60 147.08 C 123.12 147.29 122.09 148.65 122.30 150.12 C 122.51 151.60 123.87 152.63 125.35 152.42 Z M 126.33 152.28 L 127.42 152.13 C 128.89 151.92 129.92 150.56 129.72 149.09 C 129.51 147.61 128.15 146.58 126.68 146.79 L 125.59 146.94 C 124.11 147.14 123.08 148.51 123.29 149.98 C 123.49 151.46 124.86 152.48 126.33 152.28 Z M 127.42 152.12 L 128.40 151.99 C 129.87 151.78 130.90 150.42 130.69 148.94 C 130.49 147.47 129.12 146.45 127.65 146.65 L 126.67 146.79 C 125.20 147.00 124.17 148.36 124.38 149.83 C 124.59 151.31 125.95 152.33 127.42 152.12 Z M 128.42 151.98 L 129.34 151.84 C 130.81 151.63 131.82 150.26 131.60 148.79 C 131.39 147.32 130.02 146.30 128.55 146.52 L 127.63 146.66 C 126.16 146.88 125.15 148.25 125.37 149.72 C 125.58 151.19 126.95 152.20 128.42 151.98 Z M 129.37 151.84 L 130.28 151.69 C 131.75 151.45 132.74 150.07 132.51 148.61 C 132.27 147.14 130.89 146.15 129.42 146.38 L 128.51 146.53 C 127.05 146.77 126.05 148.15 126.29 149.61 C 126.53 151.08 127.91 152.07 129.37 151.84 Z M 130.32 151.68 L 131.28 151.51 C 132.74 151.25 133.71 149.86 133.46 148.40 C 133.20 146.94 131.80 145.97 130.34 146.22 L 129.39 146.39 C 127.93 146.65 126.95 148.04 127.21 149.50 C 127.47 150.96 128.86 151.94 130.32 151.68 Z M 131.30 151.50 L 132.28 151.32 C 133.73 151.06 134.70 149.66 134.43 148.20 C 134.16 146.75 132.76 145.78 131.31 146.05 L 130.33 146.23 C 128.87 146.50 127.91 147.90 128.17 149.35 C 128.44 150.81 129.84 151.77 131.30 151.50 Z M 132.27 151.32 L 133.27 151.14 C 134.73 150.87 135.69 149.48 135.42 148.02 C 135.16 146.57 133.76 145.60 132.31 145.87 L 131.31 146.05 C 129.85 146.32 128.89 147.72 129.16 149.17 C 129.42 150.63 130.82 151.59 132.27 151.32 Z M 133.25 151.14 L 134.25 150.96 C 135.71 150.71 136.68 149.32 136.42 147.87 C 136.17 146.41 134.78 145.44 133.33 145.69 L 132.33 145.87 C 130.87 146.12 129.90 147.51 130.15 148.97 C 130.41 150.42 131.80 151.39 133.25 151.14 Z M 134.22 150.97 L 135.19 150.81 C 136.65 150.56 137.64 149.19 137.40 147.73 C 137.16 146.28 135.78 145.29 134.32 145.53 L 133.35 145.69 C 131.90 145.93 130.91 147.31 131.15 148.76 C 131.39 150.22 132.77 151.21 134.22 150.97 Z M 135.18 150.80 L 136.16 150.65 C 137.62 150.42 138.61 149.05 138.38 147.59 C 138.15 146.14 136.78 145.14 135.32 145.38 L 134.34 145.53 C 132.88 145.76 131.89 147.13 132.12 148.59 C 132.36 150.04 133.72 151.04 135.18 150.80 Z M 136.16 150.65 L 137.16 150.49 C 138.61 150.26 139.60 148.89 139.37 147.44 C 139.14 145.98 137.78 144.99 136.33 145.22 L 135.33 145.38 C 133.87 145.61 132.88 146.97 133.11 148.43 C 133.34 149.88 134.71 150.87 136.16 150.65 Z M 137.16 150.48 L 138.17 150.32 C 139.62 150.09 140.61 148.72 140.37 147.27 C 140.14 145.82 138.77 144.83 137.32 145.06 L 136.32 145.23 C 134.87 145.46 133.88 146.83 134.11 148.28 C 134.35 149.73 135.71 150.72 137.16 150.48 Z M 138.19 150.32 L 139.17 150.15 C 140.62 149.91 141.59 148.54 141.35 147.09 C 141.11 145.64 139.74 144.66 138.29 144.91 L 137.31 145.07 C 135.86 145.31 134.88 146.68 135.12 148.13 C 135.37 149.58 136.74 150.56 138.19 150.32 Z M 139.18 150.14 L 140.17 149.97 C 141.61 149.72 142.58 148.35 142.33 146.90 C 142.08 145.46 140.71 144.49 139.26 144.74 L 138.28 144.91 C 136.83 145.16 135.86 146.54 136.11 147.98 C 136.36 149.43 137.74 150.39 139.18 150.14 Z M 140.18 149.97 L 141.17 149.79 C 142.61 149.54 143.57 148.16 143.32 146.72 C 143.06 145.28 141.68 144.31 140.24 144.57 L 139.25 144.75 C 137.81 145.00 136.85 146.38 137.10 147.82 C 137.36 149.26 138.74 150.22 140.18 149.97 Z M 141.17 149.79 L 142.16 149.61 C 143.60 149.35 144.55 147.97 144.29 146.53 C 144.04 145.09 142.66 144.14 141.22 144.40 L 140.23 144.58 C 138.79 144.83 137.84 146.21 138.10 147.65 C 138.36 149.09 139.73 150.05 141.17 149.79 Z M 142.16 149.61 L 143.14 149.43 C 144.58 149.17 145.53 147.79 145.27 146.35 C 145.00 144.91 143.63 143.96 142.19 144.22 L 141.21 144.40 C 139.78 144.66 138.82 146.04 139.08 147.48 C 139.35 148.92 140.72 149.87 142.16 149.61 Z M 143.14 149.43 L 144.12 149.25 C 145.55 148.98 146.50 147.60 146.24 146.17 C 145.97 144.73 144.59 143.78 143.16 144.05 L 142.18 144.23 C 140.75 144.49 139.80 145.87 140.06 147.31 C 140.33 148.74 141.71 149.69 143.14 149.43 Z M 144.12 149.24 L 145.10 149.06 C 146.53 148.79 147.48 147.41 147.21 145.98 C 146.94 144.55 145.56 143.60 144.13 143.87 L 143.15 144.05 C 141.72 144.32 140.77 145.70 141.04 147.13 C 141.31 148.57 142.69 149.51 144.12 149.24 Z M 145.11 149.06 L 146.10 148.87 C 147.53 148.60 148.47 147.22 148.20 145.79 C 147.93 144.35 146.55 143.41 145.12 143.69 L 144.12 143.87 C 142.69 144.14 141.75 145.52 142.02 146.96 C 142.29 148.39 143.67 149.33 145.11 149.06 Z M 146.11 148.86 L 147.10 148.67 C 148.53 148.40 149.46 147.02 149.19 145.59 C 148.91 144.16 147.53 143.22 146.10 143.50 L 145.11 143.69 C 143.68 143.96 142.74 145.35 143.02 146.78 C 143.29 148.21 144.68 149.14 146.11 148.86 Z M 147.11 148.67 L 148.10 148.47 C 149.52 148.19 150.45 146.81 150.17 145.38 C 149.89 143.96 148.51 143.03 147.08 143.31 L 146.09 143.50 C 144.67 143.78 143.74 145.17 144.02 146.59 C 144.30 148.02 145.68 148.95 147.11 148.67 Z M 148.11 148.47 L 149.10 148.27 C 150.52 147.98 151.45 146.60 151.16 145.17 C 150.87 143.75 149.49 142.83 148.06 143.11 L 147.07 143.31 C 145.65 143.60 144.73 144.99 145.01 146.41 C 145.30 147.83 146.68 148.75 148.11 148.47 Z M 149.11 148.26 L 150.10 148.06 C 151.52 147.77 152.43 146.38 152.13 144.96 C 151.84 143.54 150.45 142.62 149.03 142.92 L 148.05 143.12 C 146.63 143.41 145.72 144.80 146.01 146.22 C 146.30 147.64 147.69 148.56 149.11 148.26 Z M 150.11 148.05 L 151.07 147.85 C 152.49 147.55 153.39 146.15 153.09 144.74 C 152.78 143.32 151.39 142.42 149.97 142.72 L 149.02 142.93 C 147.60 143.23 146.70 144.62 147.00 146.04 C 147.30 147.45 148.70 148.36 150.11 148.05 Z M 151.09 147.84 L 152.11 147.61 C 153.52 147.30 154.41 145.90 154.10 144.49 C 153.78 143.08 152.39 142.19 150.98 142.50 L 149.96 142.73 C 148.54 143.04 147.65 144.44 147.97 145.85 C 148.28 147.26 149.68 148.15 151.09 147.84 Z M 152.12 147.60 L 153.11 147.38 C 154.52 147.06 155.40 145.66 155.07 144.25 C 154.75 142.85 153.35 141.97 151.95 142.29 L 150.96 142.51 C 149.56 142.83 148.68 144.23 149.00 145.64 C 149.32 147.04 150.72 147.92 152.12 147.60 Z M 153.11 147.37 L 154.07 147.15 C 155.47 146.83 156.35 145.43 156.02 144.03 C 155.70 142.63 154.30 141.75 152.90 142.07 L 151.94 142.29 C 150.54 142.62 149.67 144.02 149.99 145.42 C 150.31 146.82 151.71 147.69 153.11 147.37 Z M 154.06 147.14 L 155.00 146.93 C 156.40 146.61 157.28 145.22 156.96 143.82 C 156.64 142.42 155.25 141.55 153.85 141.86 L 152.91 142.08 C 151.51 142.40 150.64 143.79 150.95 145.19 C 151.27 146.59 152.67 147.46 154.06 147.14 Z M 154.99 146.93 L 155.98 146.71 C 157.37 146.40 158.26 145.01 157.95 143.62 C 157.64 142.22 156.25 141.34 154.86 141.65 L 153.86 141.87 C 152.47 142.18 151.59 143.56 151.90 144.96 C 152.21 146.36 153.59 147.24 154.99 146.93 Z M 155.97 146.70 L 156.95 146.49 C 158.35 146.18 159.23 144.80 158.93 143.41 C 158.62 142.02 157.24 141.13 155.85 141.44 L 154.86 141.65 C 153.47 141.96 152.59 143.34 152.89 144.73 C 153.20 146.13 154.58 147.01 155.97 146.70 Z M 156.96 146.48 L 157.93 146.26 C 159.32 145.95 160.20 144.57 159.89 143.19 C 159.58 141.80 158.20 140.92 156.81 141.23 L 155.84 141.45 C 154.45 141.76 153.58 143.13 153.89 144.52 C 154.20 145.91 155.57 146.79 156.96 146.48 Z M 157.95 146.25 L 158.90 146.03 C 160.28 145.71 161.14 144.32 160.81 142.94 C 160.49 141.56 159.11 140.70 157.73 141.02 L 156.79 141.24 C 155.40 141.57 154.55 142.95 154.87 144.33 C 155.19 145.71 156.57 146.57 157.95 146.25 Z M 158.93 146.02 L 159.81 145.80 C 161.18 145.46 162.02 144.07 161.68 142.69 C 161.34 141.32 159.95 140.48 158.58 140.82 L 157.70 141.04 C 156.32 141.38 155.48 142.77 155.82 144.14 C 156.16 145.52 157.55 146.36 158.93 146.02 Z M 159.82 145.79 L 160.74 145.56 C 162.11 145.21 162.94 143.82 162.59 142.44 C 162.24 141.07 160.85 140.24 159.48 140.59 L 158.56 140.83 C 157.19 141.17 156.36 142.57 156.71 143.94 C 157.06 145.31 158.45 146.14 159.82 145.79 Z M 160.73 145.56 L 161.73 145.30 C 163.10 144.96 163.93 143.57 163.58 142.20 C 163.24 140.83 161.85 140.00 160.48 140.34 L 159.48 140.60 C 158.11 140.94 157.28 142.33 157.63 143.70 C 157.97 145.07 159.36 145.90 160.73 145.56 Z M 161.71 145.31 L 162.81 145.04 C 164.18 144.70 165.01 143.32 164.68 141.95 C 164.34 140.58 162.96 139.74 161.59 140.07 L 160.49 140.34 C 159.12 140.68 158.29 142.06 158.62 143.43 C 158.96 144.80 160.34 145.64 161.71 145.31 Z M 162.79 145.04 L 163.73 144.82 C 165.10 144.49 165.95 143.11 165.62 141.74 C 165.30 140.37 163.92 139.52 162.55 139.85 L 161.61 140.07 C 160.23 140.40 159.39 141.77 159.71 143.15 C 160.04 144.52 161.41 145.37 162.79 145.04 Z M 163.72 144.82 L 164.72 144.59 C 166.09 144.27 166.94 142.90 166.63 141.53 C 166.31 140.15 164.94 139.30 163.57 139.62 L 162.57 139.85 C 161.19 140.16 160.34 141.53 160.66 142.91 C 160.97 144.28 162.34 145.13 163.72 144.82 Z M 164.70 144.59 L 165.72 144.35 C 167.09 144.04 167.96 142.68 167.64 141.31 C 167.33 139.93 165.97 139.07 164.60 139.38 L 163.58 139.61 C 162.21 139.93 161.35 141.29 161.66 142.66 C 161.97 144.04 163.33 144.90 164.70 144.59 Z M 165.71 144.35 L 166.71 144.13 C 168.08 143.83 168.95 142.47 168.64 141.10 C 168.34 139.72 166.98 138.86 165.61 139.16 L 164.61 139.38 C 163.24 139.69 162.37 141.05 162.67 142.42 C 162.98 143.79 164.34 144.66 165.71 144.35 Z M 166.70 144.13 L 167.64 143.93 C 169.01 143.63 169.88 142.28 169.59 140.90 C 169.29 139.53 167.93 138.66 166.56 138.96 L 165.62 139.16 C 164.25 139.46 163.38 140.81 163.67 142.19 C 163.97 143.56 165.32 144.43 166.70 144.13 Z M 167.62 143.93 L 168.71 143.70 C 170.08 143.41 170.96 142.06 170.67 140.69 C 170.38 139.32 169.04 138.44 167.66 138.73 L 166.58 138.96 C 165.21 139.25 164.33 140.60 164.62 141.97 C 164.91 143.34 166.25 144.21 167.62 143.93 Z M 168.69 143.69 L 169.70 143.49 C 171.07 143.21 171.95 141.88 171.68 140.51 C 171.40 139.14 170.07 138.26 168.70 138.54 L 167.69 138.74 C 166.32 139.01 165.44 140.35 165.71 141.71 C 165.99 143.08 167.32 143.97 168.69 143.69 Z M 169.67 143.48 L 170.60 143.30 C 171.96 143.04 172.85 141.73 172.59 140.36 C 172.33 139.00 171.01 138.11 169.65 138.37 L 168.73 138.54 C 167.37 138.80 166.47 140.12 166.73 141.48 C 166.99 142.85 168.31 143.74 169.67 143.48 Z M 170.57 143.30 L 171.46 143.13 C 172.82 142.89 173.72 141.58 173.47 140.22 C 173.23 138.87 171.92 137.96 170.57 138.21 L 169.68 138.37 C 168.32 138.62 167.42 139.92 167.66 141.28 C 167.91 142.64 169.21 143.54 170.57 143.30 Z M 171.44 143.13 L 172.40 142.96 C 173.75 142.72 174.66 141.43 174.42 140.08 C 174.18 138.72 172.89 137.82 171.54 138.05 L 170.59 138.22 C 169.23 138.46 168.32 139.75 168.56 141.10 C 168.80 142.46 170.09 143.36 171.44 143.13 Z M 172.37 142.95 L 173.35 142.79 C 174.71 142.57 175.62 141.30 175.40 139.94 C 175.18 138.59 173.90 137.67 172.55 137.90 L 171.57 138.06 C 170.21 138.28 169.30 139.56 169.52 140.91 C 169.74 142.26 171.02 143.18 172.37 142.95 Z M 173.32 142.79 L 174.32 142.64 C 175.67 142.44 176.60 141.18 176.40 139.83 C 176.20 138.48 174.94 137.55 173.59 137.75 L 172.59 137.90 C 171.24 138.10 170.30 139.36 170.51 140.71 C 170.71 142.06 171.97 142.99 173.32 142.79 Z M 174.27 142.64 L 175.39 142.49 C 176.74 142.32 177.70 141.08 177.52 139.73 C 177.35 138.38 176.11 137.43 174.76 137.61 L 173.64 137.75 C 172.29 137.93 171.33 139.16 171.51 140.51 C 171.68 141.86 172.92 142.81 174.27 142.64 Z M 175.36 142.49 L 176.65 142.34 C 178.00 142.19 178.97 140.97 178.81 139.62 C 178.66 138.27 177.44 137.30 176.09 137.46 L 174.80 137.61 C 173.45 137.76 172.48 138.98 172.64 140.33 C 172.79 141.68 174.01 142.65 175.36 142.49 Z M 176.82 142.31 L 177.35 142.21 C 178.68 141.96 179.56 140.68 179.31 139.35 C 179.06 138.02 177.78 137.14 176.45 137.39 L 175.92 137.49 C 174.59 137.74 173.71 139.02 173.96 140.35 C 174.21 141.68 175.49 142.56 176.82 142.31 Z M 177.13 137.40 L 176.69 137.36 C 175.36 137.23 174.18 138.20 174.06 139.53 C 173.93 140.85 174.90 142.03 176.22 142.16 L 176.66 142.20 C 177.99 142.33 179.17 141.36 179.30 140.03 C 179.43 138.71 178.46 137.53 177.13 137.40 Z M 176.53 137.44 L 175.60 137.41 C 174.31 137.37 173.24 138.37 173.20 139.65 C 173.16 140.93 174.16 142.00 175.44 142.05 L 176.38 142.08 C 177.66 142.12 178.73 141.12 178.77 139.84 C 178.82 138.56 177.81 137.48 176.53 137.44 Z M 175.60 137.51 L 174.40 137.46 C 173.17 137.42 172.14 138.37 172.10 139.60 C 172.05 140.82 173.00 141.85 174.23 141.90 L 175.43 141.95 C 176.66 141.99 177.69 141.04 177.74 139.81 C 177.78 138.59 176.83 137.56 175.60 137.51 Z M 174.45 137.57 L 173.22 137.49 C 172.05 137.41 171.04 138.29 170.96 139.46 C 170.88 140.63 171.77 141.64 172.93 141.71 L 174.17 141.80 C 175.34 141.87 176.35 140.99 176.43 139.82 C 176.50 138.66 175.62 137.65 174.45 137.57 Z M 173.32 137.59 L 172.20 137.45 C 171.09 137.31 170.08 138.10 169.94 139.21 C 169.80 140.32 170.59 141.34 171.71 141.48 L 172.83 141.61 C 173.94 141.75 174.95 140.96 175.09 139.85 C 175.23 138.74 174.44 137.72 173.32 137.59 Z M 172.32 137.54 L 171.35 137.36 C 170.29 137.15 169.27 137.85 169.06 138.90 C 168.86 139.96 169.55 140.99 170.61 141.19 L 171.59 141.38 C 172.65 141.58 173.67 140.89 173.87 139.83 C 174.08 138.77 173.38 137.75 172.32 137.54 Z M 171.44 137.46 L 170.55 137.23 C 169.55 136.97 168.53 137.58 168.27 138.58 C 168.02 139.59 168.62 140.61 169.63 140.86 L 170.52 141.09 C 171.52 141.35 172.54 140.74 172.80 139.74 C 173.05 138.73 172.45 137.71 171.44 137.46 Z M 170.61 137.31 L 169.72 137.05 C 168.76 136.76 167.76 137.31 167.47 138.27 C 167.18 139.22 167.73 140.23 168.69 140.52 L 169.57 140.78 C 170.53 141.06 171.54 140.52 171.82 139.56 C 172.11 138.61 171.56 137.60 170.61 137.31 Z M 169.73 137.10 L 168.80 136.81 C 167.88 136.52 166.89 137.04 166.60 137.97 C 166.31 138.89 166.82 139.88 167.75 140.17 L 168.68 140.46 C 169.61 140.75 170.59 140.24 170.88 139.31 C 171.17 138.38 170.66 137.39 169.73 137.10 Z M 168.77 136.84 L 167.81 136.55 C 166.90 136.28 165.94 136.80 165.66 137.71 C 165.39 138.62 165.91 139.59 166.82 139.86 L 167.78 140.15 C 168.70 140.42 169.66 139.90 169.93 138.99 C 170.20 138.07 169.68 137.11 168.77 136.84 Z M 167.74 136.57 L 166.74 136.31 C 165.83 136.07 164.91 136.61 164.67 137.52 C 164.44 138.42 164.98 139.34 165.88 139.58 L 166.89 139.84 C 167.79 140.08 168.72 139.53 168.95 138.63 C 169.19 137.73 168.64 136.80 167.74 136.57 Z M 166.66 136.31 L 165.72 136.11 C 164.82 135.92 163.93 136.49 163.74 137.40 C 163.55 138.30 164.12 139.18 165.02 139.38 L 165.96 139.58 C 166.86 139.77 167.75 139.19 167.94 138.29 C 168.13 137.39 167.56 136.50 166.66 136.31 Z M 165.67 136.11 L 164.69 135.93 C 163.79 135.77 162.92 136.37 162.76 137.27 C 162.59 138.17 163.19 139.03 164.09 139.20 L 165.08 139.38 C 165.98 139.54 166.84 138.94 167.00 138.04 C 167.17 137.14 166.57 136.27 165.67 136.11 Z M 164.66 135.94 L 163.65 135.77 C 162.75 135.63 161.90 136.24 161.75 137.14 C 161.61 138.04 162.22 138.88 163.12 139.03 L 164.13 139.19 C 165.02 139.34 165.87 138.73 166.02 137.83 C 166.17 136.93 165.56 136.08 164.66 135.94 Z M 163.63 135.78 L 162.80 135.65 C 161.91 135.51 161.07 136.13 160.93 137.02 C 160.79 137.92 161.41 138.76 162.30 138.89 L 163.13 139.02 C 164.03 139.16 164.86 138.55 165.00 137.65 C 165.14 136.76 164.53 135.92 163.63 135.78 Z"
      fill="black"
      fill-rule="nonzero" /><path d="M 135.32 133.70 L 135.84 134.50 C 136.50 135.51 137.86 135.80 138.88 135.13 C 139.89 134.47 140.17 133.11 139.51 132.10 L 138.99 131.30 C 138.32 130.29 136.96 130.01 135.95 130.67 C 134.94 131.33 134.66 132.69 135.32 133.70 Z M 135.77 134.42 L 136.26 135.26 C 136.88 136.31 138.23 136.66 139.29 136.04 C 140.34 135.42 140.69 134.06 140.07 133.01 L 139.58 132.17 C 138.96 131.12 137.60 130.77 136.55 131.39 C 135.50 132.01 135.14 133.37 135.77 134.42 Z M 136.14 135.09 L 136.57 135.99 C 137.10 137.11 138.43 137.59 139.55 137.06 C 140.67 136.53 141.14 135.20 140.62 134.08 L 140.19 133.17 C 139.66 132.06 138.33 131.58 137.21 132.11 C 136.09 132.64 135.61 133.97 136.14 135.09 Z M 136.44 135.74 L 136.78 136.75 C 137.17 137.94 138.44 138.59 139.63 138.20 C 140.82 137.81 141.46 136.53 141.07 135.34 L 140.74 134.33 C 140.35 133.14 139.07 132.50 137.89 132.89 C 136.70 133.28 136.05 134.55 136.44 135.74 Z M 136.69 136.49 L 136.88 137.41 C 137.12 138.64 138.32 139.44 139.55 139.19 C 140.78 138.95 141.58 137.75 141.34 136.52 L 141.15 135.60 C 140.91 134.37 139.71 133.57 138.48 133.82 C 137.25 134.06 136.45 135.26 136.69 136.49 Z M 136.85 137.22 L 136.96 138.19 C 137.10 139.44 138.23 140.33 139.48 140.19 C 140.72 140.05 141.62 138.92 141.48 137.67 L 141.37 136.70 C 141.22 135.46 140.10 134.56 138.85 134.70 C 137.60 134.85 136.70 135.97 136.85 137.22 Z M 136.95 138.06 L 137.01 139.08 C 137.08 140.33 138.16 141.29 139.41 141.21 C 140.67 141.14 141.62 140.06 141.55 138.81 L 141.49 137.79 C 141.41 136.54 140.34 135.58 139.08 135.66 C 137.83 135.73 136.87 136.81 136.95 138.06 Z M 137.00 139.00 L 137.03 140.04 C 137.06 141.29 138.10 142.29 139.36 142.25 C 140.61 142.22 141.61 141.18 141.58 139.93 L 141.55 138.89 C 141.52 137.63 140.48 136.64 139.22 136.67 C 137.97 136.70 136.97 137.74 137.00 139.00 Z M 137.03 139.99 L 137.03 141.03 C 137.04 142.29 138.06 143.30 139.32 143.29 C 140.58 143.29 141.59 142.26 141.58 141.01 L 141.58 139.97 C 141.57 138.71 140.55 137.70 139.29 137.71 C 138.03 137.71 137.02 138.74 137.03 139.99 Z M 137.03 141.02 L 137.03 142.04 C 137.03 143.30 138.05 144.32 139.31 144.32 C 140.56 144.32 141.58 143.30 141.58 142.05 L 141.58 141.02 C 141.58 139.76 140.56 138.75 139.31 138.75 C 138.05 138.75 137.03 139.76 137.03 141.02 Z M 137.04 142.04 L 137.03 143.05 C 137.03 144.30 138.04 145.32 139.30 145.32 C 140.55 145.32 141.57 144.31 141.58 143.06 L 141.58 142.05 C 141.58 140.80 140.57 139.78 139.31 139.77 C 138.06 139.77 137.04 140.79 137.04 142.04 Z M 137.04 143.03 L 137.03 144.02 C 137.02 145.28 138.02 146.30 139.28 146.31 C 140.53 146.32 141.55 145.32 141.56 144.06 L 141.57 143.07 C 141.58 141.82 140.58 140.80 139.32 140.78 C 138.07 140.77 137.05 141.78 137.04 143.03 Z M 137.03 144.00 L 137.02 144.99 C 136.99 146.24 137.99 147.27 139.24 147.29 C 140.49 147.32 141.52 146.32 141.54 145.07 L 141.56 144.08 C 141.58 142.84 140.59 141.80 139.34 141.78 C 138.09 141.76 137.06 142.75 137.03 144.00 Z M 137.02 144.96 L 136.99 145.96 C 136.95 147.20 137.93 148.24 139.18 148.28 C 140.42 148.32 141.47 147.34 141.51 146.10 L 141.54 145.10 C 141.58 143.85 140.60 142.81 139.35 142.77 C 138.10 142.74 137.06 143.72 137.02 144.96 Z M 136.99 145.92 L 136.95 146.89 C 136.89 148.14 137.85 149.19 139.10 149.25 C 140.34 149.31 141.40 148.35 141.46 147.10 L 141.50 146.13 C 141.56 144.89 140.60 143.83 139.35 143.77 C 138.11 143.72 137.05 144.68 136.99 145.92 Z M 136.96 146.86 L 136.90 147.83 C 136.82 149.07 137.76 150.13 139.00 150.21 C 140.24 150.29 141.31 149.34 141.39 148.10 L 141.45 147.14 C 141.52 145.90 140.58 144.83 139.34 144.75 C 138.10 144.68 137.03 145.62 136.96 146.86 Z M 136.91 147.79 L 136.83 148.78 C 136.74 150.01 137.66 151.09 138.90 151.19 C 140.13 151.28 141.21 150.36 141.30 149.12 L 141.38 148.14 C 141.47 146.90 140.55 145.82 139.31 145.73 C 138.08 145.63 137.00 146.56 136.91 147.79 Z M 136.84 148.75 L 136.75 149.75 C 136.64 150.98 137.54 152.07 138.77 152.18 C 140.00 152.29 141.09 151.38 141.20 150.15 L 141.30 149.15 C 141.41 147.92 140.50 146.83 139.27 146.72 C 138.04 146.61 136.95 147.52 136.84 148.75 Z M 136.76 149.72 L 136.65 150.74 C 136.52 151.97 137.41 153.06 138.64 153.19 C 139.86 153.32 140.96 152.43 141.09 151.20 L 141.20 150.18 C 141.32 148.96 140.43 147.86 139.21 147.73 C 137.98 147.60 136.89 148.49 136.76 149.72 Z M 136.66 150.71 L 136.54 151.73 C 136.40 152.95 137.27 154.06 138.49 154.20 C 139.71 154.35 140.82 153.47 140.96 152.25 L 141.08 151.23 C 141.22 150.01 140.35 148.91 139.13 148.76 C 137.91 148.62 136.80 149.49 136.66 150.71 Z M 136.55 151.71 L 136.43 152.65 C 136.27 153.86 137.13 154.98 138.35 155.13 C 139.56 155.29 140.67 154.43 140.83 153.22 L 140.95 152.28 C 141.10 151.06 140.25 149.95 139.03 149.80 C 137.82 149.64 136.71 150.50 136.55 151.71 Z M 136.44 152.63 L 136.31 153.59 C 136.14 154.80 136.98 155.91 138.19 156.08 C 139.40 156.25 140.51 155.40 140.68 154.20 L 140.81 153.24 C 140.98 152.03 140.14 150.92 138.93 150.75 C 137.73 150.58 136.61 151.42 136.44 152.63 Z M 136.32 153.57 L 136.18 154.55 C 136.00 155.75 136.83 156.86 138.03 157.04 C 139.22 157.22 140.34 156.40 140.52 155.20 L 140.67 154.22 C 140.85 153.02 140.02 151.90 138.82 151.72 C 137.62 151.54 136.50 152.37 136.32 153.57 Z M 136.19 154.53 L 136.03 155.53 C 135.84 156.72 136.66 157.84 137.85 158.03 C 139.04 158.22 140.16 157.40 140.35 156.21 L 140.51 155.21 C 140.70 154.02 139.88 152.90 138.69 152.71 C 137.50 152.52 136.38 153.34 136.19 154.53 Z M 136.05 155.51 L 135.87 156.53 C 135.68 157.72 136.48 158.84 137.66 159.04 C 138.85 159.24 139.97 158.44 140.17 157.25 L 140.34 156.23 C 140.53 155.04 139.73 153.92 138.55 153.73 C 137.36 153.53 136.24 154.33 136.05 155.51 Z M 135.89 156.52 L 135.70 157.56 C 135.50 158.74 136.29 159.86 137.46 160.07 C 138.64 160.27 139.76 159.49 139.97 158.31 L 140.15 157.27 C 140.36 156.09 139.57 154.97 138.39 154.76 C 137.22 154.55 136.09 155.34 135.89 156.52 Z M 135.72 157.55 L 135.53 158.59 C 135.32 159.76 136.09 160.88 137.26 161.09 C 138.43 161.30 139.55 160.53 139.77 159.36 L 139.96 158.32 C 140.17 157.15 139.39 156.03 138.22 155.82 C 137.05 155.60 135.93 156.38 135.72 157.55 Z M 135.55 158.57 L 135.35 159.62 C 135.13 160.78 135.89 161.89 137.05 162.12 C 138.21 162.34 139.33 161.57 139.55 160.41 L 139.75 159.37 C 139.97 158.21 139.21 157.09 138.05 156.87 C 136.89 156.65 135.77 157.41 135.55 158.57 Z M 135.37 159.60 L 135.16 160.63 C 134.94 161.78 135.68 162.90 136.83 163.13 C 137.98 163.35 139.10 162.60 139.33 161.45 L 139.53 160.43 C 139.76 159.28 139.01 158.16 137.86 157.93 C 136.71 157.70 135.59 158.45 135.37 159.60 Z M 135.18 160.61 L 134.98 161.61 C 134.74 162.75 135.47 163.87 136.61 164.10 C 137.75 164.34 138.87 163.60 139.11 162.46 L 139.31 161.47 C 139.55 160.33 138.81 159.21 137.67 158.98 C 136.53 158.74 135.42 159.47 135.18 160.61 Z M 134.99 161.59 L 134.79 162.53 C 134.54 163.66 135.26 164.78 136.39 165.02 C 137.52 165.27 138.64 164.55 138.88 163.42 L 139.09 162.48 C 139.33 161.35 138.62 160.23 137.49 159.99 C 136.36 159.74 135.24 160.46 134.99 161.59 Z M 134.81 162.51 L 134.61 163.38 C 134.35 164.50 135.05 165.62 136.17 165.88 C 137.29 166.13 138.40 165.44 138.66 164.32 L 138.86 163.44 C 139.12 162.33 138.42 161.21 137.30 160.95 C 136.18 160.69 135.07 161.39 134.81 162.51 Z M 134.64 163.35 L 134.36 164.44 C 134.08 165.55 134.75 166.66 135.85 166.94 C 136.96 167.22 138.08 166.55 138.35 165.45 L 138.63 164.35 C 138.91 163.25 138.24 162.13 137.14 161.85 C 136.04 161.58 134.92 162.24 134.64 163.35 Z M 134.42 164.37 L 134.11 165.39 C 133.80 166.47 134.41 167.59 135.48 167.91 C 136.55 168.23 137.68 167.61 138.00 166.54 L 138.30 165.52 C 138.62 164.45 138.00 163.32 136.93 163.01 C 135.86 162.69 134.73 163.30 134.42 164.37 Z M 134.19 165.29 L 133.87 166.16 C 133.49 167.20 134.02 168.34 135.05 168.71 C 136.09 169.09 137.23 168.56 137.60 167.53 L 137.93 166.65 C 138.30 165.62 137.77 164.48 136.74 164.10 C 135.71 163.72 134.56 164.25 134.19 165.29 Z M 133.96 166.03 L 133.60 166.82 C 133.15 167.80 133.58 168.96 134.56 169.41 C 135.54 169.86 136.70 169.43 137.15 168.45 L 137.51 167.66 C 137.96 166.68 137.53 165.52 136.55 165.07 C 135.57 164.62 134.41 165.05 133.96 166.03 Z M 133.73 166.66 L 133.14 167.64 C 132.60 168.55 132.90 169.73 133.81 170.27 C 134.73 170.81 135.90 170.51 136.44 169.59 L 137.02 168.61 C 137.56 167.70 137.26 166.52 136.35 165.98 C 135.44 165.44 134.27 165.75 133.73 166.66 Z M 133.38 167.38 L 132.69 168.17 C 132.00 168.95 132.08 170.14 132.86 170.82 C 133.64 171.51 134.83 171.43 135.51 170.65 L 136.21 169.86 C 136.89 169.08 136.81 167.89 136.03 167.20 C 135.25 166.52 134.06 166.60 133.38 167.38 Z M 133.50 167.66 L 132.86 167.89 C 131.89 168.22 131.38 169.27 131.71 170.23 C 132.04 171.19 133.09 171.70 134.05 171.37 L 134.70 171.15 C 135.66 170.82 136.17 169.77 135.84 168.81 C 135.51 167.85 134.46 167.33 133.50 167.66 Z M 134.69 168.33 L 134.22 167.88 C 133.50 167.19 132.36 167.22 131.68 167.94 C 130.99 168.65 131.02 169.79 131.74 170.48 L 132.22 170.93 C 132.93 171.61 134.07 171.59 134.76 170.87 C 135.44 170.15 135.41 169.01 134.69 168.33 Z M 134.61 168.57 L 134.26 167.61 C 133.93 166.71 132.93 166.25 132.02 166.58 C 131.12 166.91 130.66 167.91 130.99 168.81 L 131.34 169.78 C 131.68 170.68 132.68 171.14 133.58 170.81 C 134.48 170.48 134.95 169.48 134.61 168.57 Z M 134.29 167.91 L 134.06 166.65 C 133.89 165.73 133.02 165.13 132.10 165.29 C 131.18 165.46 130.57 166.34 130.74 167.25 L 130.96 168.51 C 131.13 169.43 132.01 170.04 132.93 169.88 C 133.84 169.71 134.45 168.83 134.29 167.91 Z M 134.05 166.79 L 133.96 165.87 C 133.87 164.96 133.06 164.29 132.15 164.37 C 131.24 164.46 130.57 165.27 130.66 166.19 L 130.74 167.11 C 130.83 168.03 131.64 168.69 132.56 168.61 C 133.47 168.52 134.14 167.71 134.05 166.79 Z M 133.96 165.94 L 133.91 164.96 C 133.86 164.05 133.08 163.35 132.17 163.39 C 131.26 163.44 130.56 164.22 130.60 165.13 L 130.66 166.11 C 130.70 167.03 131.48 167.73 132.39 167.68 C 133.31 167.63 134.01 166.85 133.96 165.94 Z M 133.91 165.01 L 133.88 163.99 C 133.86 163.08 133.11 162.36 132.20 162.38 C 131.28 162.40 130.56 163.16 130.59 164.07 L 130.61 165.09 C 130.63 166.00 131.39 166.72 132.30 166.70 C 133.21 166.67 133.93 165.92 133.91 165.01 Z M 133.88 164.02 L 133.87 162.97 C 133.86 162.07 133.12 161.34 132.22 161.34 C 131.31 161.35 130.58 162.09 130.58 163.00 L 130.59 164.04 C 130.60 164.95 131.34 165.68 132.24 165.67 C 133.15 165.67 133.88 164.92 133.88 164.02 Z M 133.87 162.98 L 133.87 162.35 C 133.86 161.45 133.13 160.71 132.23 160.71 C 131.32 160.71 130.59 161.45 130.59 162.35 L 130.59 162.99 C 130.59 163.89 131.32 164.62 132.23 164.62 C 133.13 164.62 133.87 163.89 133.87 162.98 Z"
      fill="black"
      fill-rule="nonzero" /><path d="M 161.27 111.91 L 162.07 110.96 C 162.77 110.14 162.67 108.91 161.84 108.21 C 161.02 107.52 159.79 107.62 159.10 108.44 L 158.29 109.40 C 157.60 110.22 157.70 111.45 158.52 112.14 C 159.35 112.84 160.58 112.74 161.27 111.91 Z M 162.13 111.14 L 162.90 110.31 C 163.69 109.46 163.64 108.12 162.78 107.33 C 161.93 106.54 160.60 106.59 159.80 107.44 L 159.04 108.27 C 158.25 109.12 158.30 110.46 159.15 111.25 C 160.01 112.04 161.34 111.99 162.13 111.14 Z M 162.80 110.62 L 163.49 110.05 C 164.45 109.25 164.58 107.82 163.78 106.85 C 162.98 105.89 161.55 105.76 160.58 106.57 L 159.90 107.14 C 158.94 107.94 158.81 109.37 159.61 110.33 C 160.41 111.29 161.84 111.42 162.80 110.62 Z M 162.76 110.61 L 163.36 110.42 C 164.64 110.02 165.34 108.66 164.94 107.39 C 164.54 106.12 163.19 105.41 161.92 105.81 L 161.31 106.00 C 160.04 106.40 159.33 107.76 159.73 109.03 C 160.13 110.30 161.49 111.01 162.76 110.61 Z M 161.03 110.02 L 161.57 110.48 C 162.62 111.37 164.19 111.24 165.09 110.19 C 165.98 109.14 165.85 107.56 164.79 106.67 L 164.25 106.21 C 163.20 105.32 161.63 105.45 160.74 106.50 C 159.84 107.55 159.97 109.13 161.03 110.02 Z M 160.79 109.40 L 161.14 110.42 C 161.60 111.74 163.04 112.44 164.36 111.98 C 165.68 111.53 166.38 110.09 165.92 108.77 L 165.57 107.75 C 165.12 106.43 163.68 105.73 162.36 106.18 C 161.04 106.64 160.34 108.08 160.79 109.40 Z M 161.02 110.05 L 161.22 111.19 C 161.47 112.58 162.80 113.50 164.19 113.25 C 165.58 113.00 166.50 111.67 166.25 110.29 L 166.05 109.14 C 165.80 107.75 164.47 106.83 163.08 107.08 C 161.69 107.33 160.77 108.66 161.02 110.05 Z M 161.19 111.05 L 161.31 112.02 C 161.49 113.42 162.77 114.42 164.17 114.25 C 165.58 114.07 166.58 112.79 166.40 111.39 L 166.28 110.42 C 166.11 109.02 164.83 108.02 163.42 108.19 C 162.02 108.37 161.02 109.65 161.19 111.05 Z M 161.30 111.93 L 161.39 112.93 C 161.52 114.34 162.76 115.39 164.17 115.26 C 165.58 115.14 166.63 113.89 166.50 112.48 L 166.41 111.48 C 166.29 110.07 165.04 109.02 163.63 109.15 C 162.22 109.27 161.18 110.52 161.30 111.93 Z M 161.38 112.86 L 161.45 113.89 C 161.53 115.30 162.75 116.38 164.17 116.29 C 165.58 116.20 166.66 114.99 166.57 113.57 L 166.51 112.55 C 166.42 111.13 165.20 110.06 163.79 110.14 C 162.37 110.23 161.30 111.45 161.38 112.86 Z M 161.44 113.83 L 161.48 114.81 C 161.54 116.23 162.74 117.33 164.15 117.27 C 165.57 117.22 166.67 116.02 166.61 114.60 L 166.57 113.62 C 166.52 112.21 165.32 111.11 163.90 111.16 C 162.49 111.22 161.39 112.42 161.44 113.83 Z M 161.48 114.78 L 161.51 115.64 C 161.54 117.06 162.72 118.18 164.14 118.14 C 165.56 118.10 166.68 116.92 166.64 115.50 L 166.61 114.64 C 166.58 113.22 165.40 112.11 163.98 112.14 C 162.56 112.18 161.45 113.36 161.48 114.78 Z M 161.51 115.62 L 161.52 116.53 C 161.55 117.94 162.72 119.07 164.14 119.05 C 165.55 119.02 166.68 117.85 166.65 116.43 L 166.64 115.52 C 166.61 114.11 165.44 112.98 164.02 113.01 C 162.61 113.03 161.48 114.20 161.51 115.62 Z M 161.52 116.52 L 161.54 117.51 C 161.56 118.93 162.73 120.06 164.15 120.03 C 165.56 120.01 166.69 118.84 166.67 117.43 L 166.65 116.44 C 166.63 115.02 165.46 113.89 164.05 113.92 C 162.63 113.94 161.50 115.10 161.52 116.52 Z M 161.54 117.52 L 161.56 118.63 C 161.59 120.04 162.76 121.17 164.17 121.15 C 165.59 121.12 166.71 119.95 166.69 118.54 L 166.67 117.42 C 166.64 116.01 165.47 114.88 164.06 114.91 C 162.64 114.93 161.52 116.10 161.54 117.52 Z M 161.56 118.64 L 161.59 119.78 C 161.62 121.20 162.79 122.32 164.21 122.29 C 165.62 122.25 166.75 121.08 166.71 119.67 L 166.69 118.52 C 166.66 117.11 165.48 115.99 164.07 116.02 C 162.65 116.05 161.53 117.23 161.56 118.64 Z M 161.59 119.79 L 161.62 120.77 C 161.65 122.18 162.83 123.30 164.25 123.26 C 165.66 123.22 166.78 122.04 166.74 120.63 L 166.71 119.65 C 166.67 118.24 165.50 117.12 164.08 117.16 C 162.67 117.20 161.55 118.38 161.59 119.79 Z M 161.62 120.77 L 161.65 121.80 C 161.69 123.21 162.87 124.33 164.28 124.28 C 165.70 124.24 166.81 123.06 166.77 121.65 L 166.74 120.62 C 166.69 119.21 165.51 118.10 164.10 118.14 C 162.69 118.18 161.58 119.36 161.62 120.77 Z M 161.65 121.81 L 161.69 122.86 C 161.73 124.27 162.91 125.38 164.32 125.34 C 165.73 125.29 166.84 124.11 166.80 122.70 L 166.76 121.64 C 166.72 120.23 165.54 119.12 164.13 119.17 C 162.71 119.21 161.61 120.40 161.65 121.81 Z M 161.69 122.87 L 161.72 123.92 C 161.77 125.33 162.95 126.44 164.36 126.39 C 165.77 126.34 166.88 125.16 166.83 123.75 L 166.79 122.69 C 166.75 121.28 165.57 120.18 164.16 120.23 C 162.74 120.27 161.64 121.46 161.69 122.87 Z M 161.73 123.92 L 161.76 124.95 C 161.81 126.36 162.99 127.46 164.40 127.41 C 165.81 127.36 166.91 126.18 166.86 124.77 L 166.83 123.74 C 166.78 122.34 165.60 121.23 164.19 121.28 C 162.78 121.33 161.68 122.52 161.73 123.92 Z M 161.76 124.95 L 161.80 125.92 C 161.85 127.33 163.03 128.43 164.44 128.38 C 165.85 128.33 166.95 127.14 166.90 125.73 L 166.86 124.77 C 166.81 123.36 165.63 122.26 164.22 122.31 C 162.81 122.36 161.71 123.54 161.76 124.95 Z M 161.80 125.92 L 161.84 126.92 C 161.89 128.32 163.08 129.42 164.48 129.37 C 165.89 129.31 166.98 128.13 166.93 126.73 L 166.89 125.73 C 166.84 124.33 165.66 123.23 164.25 123.28 C 162.85 123.33 161.75 124.52 161.80 125.92 Z M 161.85 126.92 L 161.89 128.13 C 161.95 129.53 163.13 130.62 164.53 130.56 C 165.93 130.51 167.02 129.33 166.97 127.93 L 166.92 126.72 C 166.87 125.32 165.69 124.23 164.29 124.28 C 162.89 124.34 161.79 125.52 161.85 126.92 Z M 161.91 128.12 L 161.95 129.14 C 162.00 130.53 163.17 131.62 164.57 131.57 C 165.96 131.51 167.05 130.34 167.00 128.94 L 166.96 127.93 C 166.91 126.53 165.73 125.45 164.34 125.50 C 162.94 125.55 161.85 126.73 161.91 128.12 Z M 161.96 129.13 L 161.99 130.02 C 162.04 131.41 163.20 132.49 164.59 132.44 C 165.98 132.40 167.07 131.23 167.02 129.84 L 166.99 128.95 C 166.94 127.56 165.77 126.48 164.38 126.52 C 163.00 126.57 161.91 127.74 161.96 129.13 Z M 162.00 130.00 L 162.02 130.84 C 162.06 132.22 163.21 133.31 164.59 133.27 C 165.98 133.24 167.07 132.08 167.03 130.70 L 167.01 129.86 C 166.97 128.48 165.82 127.39 164.43 127.43 C 163.05 127.46 161.96 128.62 162.00 130.00 Z M 162.03 130.81 L 162.05 131.74 C 162.07 133.12 163.21 134.21 164.59 134.19 C 165.96 134.17 167.06 133.03 167.04 131.65 L 167.02 130.73 C 167.00 129.35 165.86 128.25 164.48 128.27 C 163.10 128.30 162.01 129.43 162.03 130.81 Z M 162.05 131.72 L 162.06 132.70 C 162.08 134.08 163.21 135.18 164.58 135.16 C 165.95 135.15 167.06 134.02 167.04 132.65 L 167.03 131.67 C 167.01 130.29 165.89 129.19 164.51 129.21 C 163.14 129.22 162.04 130.35 162.05 131.72 Z M 162.07 132.70 L 162.08 133.71 C 162.09 135.08 163.22 136.18 164.59 136.17 C 165.96 136.15 167.06 135.03 167.04 133.66 L 167.03 132.65 C 167.02 131.28 165.90 130.18 164.53 130.19 C 163.16 130.21 162.06 131.33 162.07 132.70 Z M 162.09 133.72 L 162.10 134.77 C 162.12 136.13 163.24 137.23 164.61 137.21 C 165.98 137.19 167.07 136.06 167.05 134.70 L 167.04 133.65 C 167.02 132.29 165.90 131.19 164.53 131.21 C 163.16 131.23 162.07 132.35 162.09 133.72 Z M 162.11 134.78 L 162.13 135.76 C 162.16 137.12 163.29 138.21 164.65 138.18 C 166.01 138.15 167.09 137.02 167.06 135.66 L 167.04 134.68 C 167.02 133.32 165.89 132.24 164.53 132.26 C 163.16 132.29 162.08 133.42 162.11 134.78 Z M 162.14 135.78 L 162.16 136.76 C 162.20 138.12 163.33 139.19 164.69 139.15 C 166.05 139.12 167.12 137.99 167.08 136.63 L 167.06 135.64 C 167.02 134.29 165.89 133.21 164.53 133.25 C 163.17 133.29 162.10 134.42 162.14 135.78 Z M 162.17 136.77 L 162.20 137.77 C 162.24 139.13 163.38 140.19 164.73 140.15 C 166.08 140.11 167.15 138.97 167.11 137.62 L 167.07 136.62 C 167.03 135.26 165.90 134.20 164.55 134.24 C 163.19 134.28 162.13 135.41 162.17 136.77 Z M 162.21 137.78 L 162.24 138.80 C 162.29 140.15 163.42 141.21 164.77 141.16 C 166.12 141.12 167.17 139.99 167.13 138.64 L 167.10 137.62 C 167.05 136.27 165.92 135.21 164.57 135.25 C 163.22 135.30 162.17 136.43 162.21 137.78 Z M 162.25 138.80 L 162.29 139.81 C 162.33 141.15 163.46 142.20 164.80 142.16 C 166.15 142.11 167.20 140.99 167.16 139.64 L 167.12 138.64 C 167.08 137.29 165.95 136.24 164.61 136.28 C 163.26 136.33 162.21 137.45 162.25 138.80 Z M 162.29 139.80 L 162.33 140.78 C 162.37 142.12 163.49 143.17 164.83 143.13 C 166.17 143.08 167.22 141.96 167.18 140.62 L 167.15 139.64 C 167.10 138.30 165.98 137.25 164.64 137.30 C 163.30 137.34 162.25 138.46 162.29 139.80 Z M 162.33 140.78 L 162.37 141.77 C 162.41 143.10 163.53 144.15 164.86 144.11 C 166.20 144.07 167.25 142.95 167.20 141.61 L 167.17 140.62 C 167.13 139.29 166.01 138.24 164.67 138.28 C 163.34 138.32 162.29 139.44 162.33 140.78 Z M 162.37 141.77 L 162.41 142.77 C 162.45 144.10 163.56 145.15 164.89 145.11 C 166.23 145.06 167.27 143.95 167.23 142.62 L 167.20 141.61 C 167.15 140.28 166.04 139.24 164.71 139.28 C 163.38 139.32 162.33 140.44 162.37 141.77 Z M 162.42 142.77 L 162.45 143.80 C 162.49 145.12 163.60 146.17 164.92 146.12 C 166.25 146.08 167.29 144.97 167.25 143.65 L 167.22 142.62 C 167.18 141.29 166.07 140.25 164.74 140.29 C 163.42 140.34 162.37 141.45 162.42 142.77 Z M 162.46 143.80 L 162.49 144.77 C 162.53 146.10 163.63 147.14 164.95 147.09 C 166.28 147.05 167.31 145.95 167.27 144.63 L 167.24 143.65 C 167.20 142.33 166.10 141.29 164.78 141.33 C 163.45 141.37 162.42 142.47 162.46 143.80 Z M 162.49 144.77 L 162.52 145.73 C 162.56 147.05 163.66 148.08 164.98 148.04 C 166.30 148.00 167.33 146.90 167.29 145.59 L 167.26 144.63 C 167.22 143.31 166.12 142.28 164.81 142.32 C 163.49 142.36 162.46 143.46 162.49 144.77 Z M 162.53 145.73 L 162.56 146.71 C 162.60 148.02 163.70 149.05 165.01 149.02 C 166.32 148.98 167.35 147.88 167.31 146.57 L 167.28 145.59 C 167.25 144.28 166.15 143.24 164.84 143.28 C 163.53 143.32 162.49 144.42 162.53 145.73 Z M 162.57 146.71 L 162.60 147.71 C 162.64 149.02 163.73 150.05 165.03 150.01 C 166.34 149.98 167.37 148.89 167.33 147.58 L 167.30 146.57 C 167.27 145.27 166.18 144.24 164.87 144.27 C 163.56 144.31 162.53 145.40 162.57 146.71 Z M 162.61 147.71 L 162.64 148.75 C 162.67 150.05 163.76 151.08 165.06 151.04 C 166.36 151.01 167.39 149.92 167.35 148.62 L 167.32 147.58 C 167.29 146.28 166.20 145.25 164.90 145.29 C 163.60 145.33 162.57 146.41 162.61 147.71 Z M 162.65 148.75 L 162.67 149.79 C 162.71 151.08 163.79 152.11 165.09 152.07 C 166.38 152.04 167.41 150.96 167.37 149.66 L 167.34 148.62 C 167.31 147.33 166.23 146.30 164.93 146.34 C 163.64 146.37 162.61 147.45 162.65 148.75 Z M 162.68 149.78 L 162.71 150.76 C 162.74 152.05 163.82 153.07 165.11 153.04 C 166.40 153.01 167.42 151.93 167.39 150.64 L 167.36 149.66 C 167.33 148.37 166.25 147.35 164.96 147.38 C 163.67 147.42 162.65 148.49 162.68 149.78 Z M 162.72 150.76 L 162.74 151.76 C 162.77 153.04 163.84 154.06 165.13 154.03 C 166.42 154.00 167.43 152.93 167.40 151.64 L 167.38 150.64 C 167.35 149.36 166.28 148.34 164.99 148.37 C 163.70 148.40 162.69 149.47 162.72 150.76 Z M 162.75 151.75 L 162.77 152.76 C 162.80 154.04 163.87 155.06 165.15 155.03 C 166.43 155.00 167.45 153.94 167.42 152.66 L 167.39 151.65 C 167.36 150.36 166.30 149.35 165.02 149.38 C 163.74 149.41 162.72 150.47 162.75 151.75 Z M 162.78 152.75 L 162.80 153.77 C 162.83 155.05 163.89 156.06 165.16 156.03 C 166.44 156.01 167.45 154.95 167.43 153.68 L 167.41 152.66 C 167.38 151.38 166.33 150.37 165.05 150.40 C 163.77 150.42 162.76 151.48 162.78 152.75 Z M 162.81 153.76 L 162.83 154.77 C 162.85 156.04 163.90 157.06 165.17 157.04 C 166.45 157.01 167.46 155.96 167.44 154.69 L 167.42 153.68 C 167.40 152.41 166.35 151.40 165.08 151.42 C 163.80 151.44 162.79 152.49 162.81 153.76 Z M 162.84 154.76 L 162.85 155.77 C 162.87 157.04 163.91 158.05 165.18 158.03 C 166.45 158.02 167.46 156.97 167.44 155.71 L 167.43 154.70 C 167.41 153.43 166.37 152.42 165.10 152.44 C 163.84 152.46 162.82 153.50 162.84 154.76 Z M 162.86 155.76 L 162.87 156.78 C 162.89 158.04 163.92 159.05 165.18 159.04 C 166.44 159.02 167.45 157.99 167.44 156.73 L 167.43 155.72 C 167.42 154.46 166.39 153.44 165.12 153.46 C 163.86 153.47 162.85 154.50 162.86 155.76 Z M 162.89 156.77 L 162.89 157.77 C 162.90 159.02 163.92 160.04 165.18 160.03 C 166.43 160.02 167.44 159.00 167.44 157.74 L 167.43 156.74 C 167.42 155.48 166.40 154.47 165.14 154.48 C 163.89 154.49 162.88 155.51 162.89 156.77 Z M 162.90 157.76 L 162.91 158.76 C 162.91 160.01 163.93 161.02 165.18 161.01 C 166.42 161.01 167.43 159.99 167.43 158.74 L 167.42 157.75 C 167.42 156.50 166.40 155.49 165.16 155.49 C 163.91 155.50 162.90 156.52 162.90 157.76 Z M 162.92 158.75 L 162.92 159.75 C 162.92 160.99 163.93 161.99 165.17 161.99 C 166.42 161.99 167.42 160.98 167.42 159.74 L 167.42 158.75 C 167.41 157.50 166.41 156.50 165.16 156.50 C 163.92 156.50 162.92 157.51 162.92 158.75 Z M 162.93 159.74 L 162.93 160.74 C 162.93 161.97 163.93 162.97 165.17 162.97 C 166.41 162.97 167.41 161.97 167.41 160.73 L 167.41 159.74 C 167.41 158.50 166.40 157.50 165.17 157.50 C 163.93 157.50 162.93 158.51 162.93 159.74 Z M 162.94 160.73 L 162.94 161.72 C 162.94 162.96 163.94 163.95 165.17 163.95 C 166.40 163.95 167.40 162.95 167.40 161.72 L 167.40 160.73 C 167.40 159.50 166.40 158.51 165.17 158.51 C 163.94 158.51 162.94 159.50 162.94 160.73 Z M 162.95 161.72 L 162.95 162.71 C 162.95 163.93 163.95 164.93 165.17 164.93 C 166.39 164.93 167.39 163.93 167.39 162.71 L 167.39 161.72 C 167.39 160.50 166.39 159.51 165.17 159.51 C 163.95 159.51 162.95 160.50 162.95 161.72 Z M 162.97 162.71 L 162.97 163.70 C 162.97 164.92 163.95 165.91 165.17 165.91 C 166.39 165.91 167.37 164.92 167.37 163.70 L 167.37 162.71 C 167.37 161.49 166.39 160.51 165.17 160.51 C 163.95 160.51 162.97 161.49 162.97 162.71 Z M 162.98 163.70 L 162.98 164.71 C 162.98 165.92 163.96 166.90 165.17 166.90 C 166.38 166.90 167.36 165.92 167.36 164.71 L 167.36 163.70 C 167.36 162.49 166.38 161.51 165.17 161.51 C 163.96 161.51 162.98 162.49 162.98 163.70 Z M 162.99 164.71 L 162.99 165.71 C 162.99 166.92 163.96 167.89 165.17 167.89 C 166.37 167.89 167.35 166.92 167.35 165.71 L 167.35 164.71 C 167.35 163.50 166.37 162.52 165.17 162.52 C 163.96 162.52 162.99 163.50 162.99 164.71 Z M 163.00 165.71 L 163.00 166.72 C 163.00 167.92 163.97 168.89 165.17 168.89 C 166.37 168.89 167.34 167.92 167.34 166.72 L 167.34 165.71 C 167.34 164.51 166.37 163.54 165.17 163.54 C 163.97 163.54 163.00 164.51 163.00 165.71 Z M 163.01 166.72 L 163.01 167.73 C 163.01 168.92 163.98 169.89 165.17 169.89 C 166.36 169.89 167.33 168.92 167.33 167.73 L 167.33 166.72 C 167.33 165.53 166.36 164.56 165.17 164.56 C 163.98 164.56 163.01 165.53 163.01 166.72 Z M 163.02 167.73 L 163.02 168.72 C 163.02 169.91 163.98 170.87 165.17 170.87 C 166.36 170.87 167.32 169.91 167.32 168.72 L 167.32 167.73 C 167.32 166.54 166.36 165.58 165.17 165.58 C 163.98 165.58 163.02 166.54 163.02 167.73 Z M 163.03 168.72 L 163.03 169.72 C 163.03 170.90 163.99 171.86 165.17 171.86 C 166.35 171.86 167.31 170.90 167.31 169.72 L 167.31 168.72 C 167.31 167.55 166.35 166.59 165.17 166.59 C 163.99 166.59 163.03 167.55 163.03 168.72 Z M 163.05 169.72 L 163.05 170.72 C 163.05 171.90 164.00 172.85 165.17 172.85 C 166.34 172.85 167.29 171.90 167.29 170.72 L 167.29 169.72 C 167.29 168.55 166.34 167.60 165.17 167.60 C 164.00 167.60 163.05 168.55 163.05 169.72 Z M 163.06 170.72 L 163.06 171.73 C 163.06 172.89 164.00 173.84 165.17 173.84 C 166.34 173.84 167.28 172.89 167.28 171.73 L 167.28 170.72 C 167.28 169.56 166.34 168.61 165.17 168.61 C 164.00 168.61 163.06 169.56 163.06 170.72 Z M 163.07 171.73 L 163.07 172.73 C 163.07 173.89 164.01 174.83 165.17 174.83 C 166.33 174.83 167.27 173.89 167.27 172.73 L 167.27 171.73 C 167.27 170.57 166.33 169.62 165.17 169.62 C 164.01 169.62 163.07 170.57 163.07 171.73 Z M 163.08 172.73 L 163.08 173.74 C 163.08 174.89 164.02 175.83 165.17 175.83 C 166.32 175.83 167.26 174.89 167.26 173.74 L 167.26 172.73 C 167.26 171.58 166.32 170.64 165.17 170.64 C 164.02 170.64 163.08 171.58 163.08 172.73 Z M 163.09 173.74 L 163.09 174.75 C 163.09 175.90 164.02 176.83 165.17 176.83 C 166.32 176.83 167.25 175.90 167.25 174.75 L 167.25 173.74 C 167.25 172.59 166.32 171.66 165.17 171.66 C 164.02 171.66 163.09 172.59 163.09 173.74 Z M 163.10 174.75 L 163.10 175.76 C 163.11 176.90 164.03 177.83 165.17 177.82 C 166.31 177.82 167.24 176.90 167.24 175.76 L 167.24 174.75 C 167.24 173.60 166.31 172.68 165.17 172.68 C 164.03 172.68 163.10 173.61 163.10 174.75 Z M 163.12 175.76 L 163.12 176.77 C 163.12 177.90 164.04 178.82 165.18 178.82 C 166.31 178.81 167.23 177.89 167.23 176.76 L 167.23 175.75 C 167.22 174.62 166.30 173.70 165.17 173.70 C 164.03 173.71 163.11 174.63 163.12 175.76 Z M 163.13 176.77 L 163.14 177.77 C 163.14 178.90 164.06 179.81 165.19 179.80 C 166.32 179.80 167.23 178.88 167.22 177.75 L 167.22 176.75 C 167.21 175.62 166.29 174.71 165.16 174.72 C 164.04 174.72 163.13 175.64 163.13 176.77 Z M 163.15 177.78 L 163.16 178.77 C 163.16 179.89 164.08 180.79 165.20 180.78 C 166.32 180.77 167.23 179.85 167.22 178.73 L 167.21 177.74 C 167.20 176.62 166.28 175.72 165.16 175.73 C 164.04 175.74 163.14 176.65 163.15 177.78 Z M 163.17 178.77 L 163.18 179.76 C 163.19 180.88 164.11 181.77 165.22 181.76 C 166.34 181.74 167.23 180.83 167.22 179.71 L 167.21 178.72 C 167.19 177.61 166.28 176.72 165.16 176.73 C 164.05 176.74 163.15 177.66 163.17 178.77 Z M 163.19 179.77 L 163.21 180.78 C 163.23 181.89 164.14 182.77 165.25 182.76 C 166.36 182.74 167.24 181.83 167.22 180.72 L 167.21 179.70 C 167.19 178.60 166.27 177.71 165.17 177.73 C 164.06 177.75 163.17 178.66 163.19 179.77 Z M 163.22 180.79 L 163.24 181.79 C 163.26 182.89 164.17 183.77 165.27 183.75 C 166.38 183.73 167.25 182.81 167.23 181.71 L 167.21 180.71 C 167.19 179.61 166.28 178.73 165.18 178.76 C 164.07 178.78 163.20 179.69 163.22 180.79 Z M 163.25 181.80 L 163.28 182.79 C 163.30 183.89 164.21 184.76 165.30 184.73 C 166.40 184.71 167.26 183.80 167.24 182.70 L 167.22 181.71 C 167.19 180.61 166.28 179.75 165.19 179.77 C 164.10 179.80 163.23 180.70 163.25 181.80 Z M 163.29 182.80 L 163.31 183.79 C 163.34 184.88 164.24 185.74 165.33 185.71 C 166.42 185.68 167.28 184.78 167.25 183.69 L 167.23 182.70 C 167.20 181.61 166.30 180.75 165.21 180.78 C 164.12 180.81 163.26 181.71 163.29 182.80 Z M 163.33 183.79 L 163.35 184.79 C 163.38 185.87 164.28 186.72 165.36 186.69 C 166.44 186.66 167.29 185.76 167.26 184.68 L 167.24 183.69 C 167.21 182.61 166.31 181.76 165.23 181.79 C 164.15 181.81 163.30 182.71 163.33 183.79 Z M 163.37 184.79 L 163.39 185.81 C 163.42 186.88 164.31 187.73 165.39 187.70 C 166.46 187.67 167.31 186.77 167.28 185.70 L 167.25 184.68 C 167.22 183.61 166.33 182.76 165.26 182.79 C 164.18 182.82 163.34 183.71 163.37 184.79 Z M 163.41 185.80 L 163.43 186.85 C 163.46 187.92 164.35 188.76 165.42 188.73 C 166.48 188.70 167.32 187.82 167.29 186.75 L 167.27 185.70 C 167.24 184.64 166.35 183.79 165.28 183.82 C 164.22 183.85 163.38 184.74 163.41 185.80 Z M 163.45 186.85 L 163.48 187.89 C 163.50 188.95 164.38 189.78 165.44 189.76 C 166.50 189.73 167.34 188.85 167.31 187.79 L 167.28 186.75 C 167.25 185.69 166.37 184.86 165.31 184.89 C 164.25 184.91 163.42 185.80 163.45 186.85 Z M 163.49 187.89 L 163.52 188.90 C 163.55 189.95 164.42 190.78 165.47 190.75 C 166.52 190.72 167.35 189.85 167.32 188.80 L 167.29 187.79 C 167.27 186.74 166.39 185.91 165.34 185.94 C 164.29 185.97 163.46 186.84 163.49 187.89 Z M 163.53 188.90 L 163.56 189.87 C 163.59 190.92 164.46 191.74 165.50 191.71 C 166.55 191.68 167.37 190.81 167.34 189.76 L 167.31 188.79 C 167.28 187.75 166.41 186.93 165.37 186.96 C 164.32 186.99 163.50 187.86 163.53 188.90 Z M 163.57 189.88 L 163.60 190.79 C 163.63 191.83 164.50 192.64 165.53 192.61 C 166.57 192.58 167.38 191.72 167.35 190.68 L 167.32 189.76 C 167.29 188.73 166.43 187.91 165.39 187.94 C 164.35 187.97 163.54 188.84 163.57 189.88 Z M 163.61 190.80 L 163.65 191.92 C 163.68 192.95 164.55 193.75 165.57 193.72 C 166.60 193.68 167.41 192.82 167.38 191.79 L 167.34 190.67 C 167.30 189.65 166.44 188.84 165.41 188.87 C 164.38 188.91 163.58 189.77 163.61 190.80 Z M 163.66 191.92 L 163.70 192.96 C 163.74 193.98 164.60 194.78 165.62 194.74 C 166.64 194.71 167.44 193.85 167.40 192.82 L 167.36 191.79 C 167.33 190.77 166.47 189.97 165.45 190.00 C 164.42 190.04 163.62 190.90 163.66 191.92 Z M 163.71 192.96 L 163.75 193.92 C 163.79 194.94 164.65 195.73 165.66 195.69 C 166.68 195.65 167.47 194.79 167.43 193.78 L 167.39 192.82 C 167.35 191.80 166.49 191.01 165.48 191.05 C 164.46 191.09 163.67 191.95 163.71 192.96 Z M 163.76 193.93 L 163.80 194.82 C 163.84 195.83 164.69 196.61 165.70 196.57 C 166.71 196.53 167.50 195.68 167.45 194.67 L 167.42 193.77 C 167.37 192.76 166.52 191.98 165.51 192.02 C 164.50 192.06 163.72 192.92 163.76 193.93 Z M 163.81 194.83 L 163.86 195.79 C 163.90 196.80 164.75 197.57 165.75 197.52 C 166.76 197.48 167.53 196.63 167.49 195.63 L 167.44 194.66 C 167.39 193.66 166.54 192.88 165.54 192.93 C 164.54 192.98 163.77 193.83 163.81 194.83 Z M 163.87 195.82 L 163.93 196.79 C 163.99 197.78 164.85 198.54 165.84 198.48 C 166.84 198.42 167.59 197.56 167.53 196.57 L 167.47 195.60 C 167.41 194.60 166.55 193.85 165.56 193.91 C 164.57 193.97 163.81 194.83 163.87 195.82 Z M 163.95 196.84 L 164.04 197.84 C 164.13 198.82 165.00 199.55 165.99 199.46 C 166.97 199.37 167.69 198.50 167.60 197.51 L 167.51 196.52 C 167.42 195.53 166.55 194.81 165.57 194.90 C 164.58 194.99 163.86 195.86 163.95 196.84 Z M 164.06 197.91 L 164.19 198.91 C 164.32 199.88 165.21 200.57 166.18 200.44 C 167.16 200.32 167.84 199.42 167.71 198.45 L 167.58 197.45 C 167.46 196.47 166.56 195.79 165.59 195.92 C 164.62 196.04 163.93 196.93 164.06 197.91 Z M 164.21 198.97 L 164.37 199.90 C 164.52 200.87 165.43 201.52 166.39 201.36 C 167.36 201.20 168.01 200.29 167.85 199.33 L 167.70 198.40 C 167.54 197.43 166.63 196.78 165.67 196.94 C 164.70 197.10 164.05 198.01 164.21 198.97 Z M 164.38 199.94 L 164.56 200.92 C 164.74 201.87 165.66 202.50 166.61 202.33 C 167.57 202.15 168.19 201.23 168.02 200.28 L 167.83 199.30 C 167.66 198.34 166.74 197.71 165.79 197.89 C 164.83 198.07 164.20 198.99 164.38 199.94 Z M 164.58 200.94 L 164.78 201.95 C 164.97 202.90 165.89 203.51 166.83 203.32 C 167.78 203.13 168.39 202.21 168.21 201.27 L 168.00 200.26 C 167.81 199.31 166.89 198.70 165.95 198.89 C 165.00 199.07 164.39 199.99 164.58 200.94 Z M 164.79 201.96 L 165.00 202.99 C 165.19 203.93 166.11 204.53 167.05 204.34 C 167.99 204.15 168.60 203.23 168.41 202.29 L 168.19 201.26 C 168.00 200.32 167.08 199.71 166.14 199.91 C 165.20 200.10 164.60 201.02 164.79 201.96 Z"
      fill="black"
      fill-rule="nonzero" /></svg>