<svg xmlns="http://www.w3.org/2000/svg" version="1.0" width="937.000000pt" height="937.000000pt" viewBox="0 0 937.000000 937.000000" preserveAspectRatio="xMidYMid meet">
  <defs/>
  <path fill="#000000" d="M432.5,372.2 C431.4,372.8 429,374.6 427.3,376.3 C422.1,381.2 423.2,388 429.9,391.4 C431.4,392.2 441.6,395.1 452.6,397.8 C488.3,406.6 499,413 499,425.5 C499,430.9 496.8,435.1 491.3,440.1 C486.6,444.3 474.3,451.7 473.5,450.8 C473.3,450.6 472.8,444.5 472.4,437.2 L471.7,423.9 L469.2,422 C466.1,419.5 462.9,419.5 459.9,421.9 L457.5,423.8 L457,440.6 L456.5,457.4 L450.8,459.1 C447.7,460.1 431.3,463.9 414.3,467.5 C363.5,478.4 344.5,483.9 338.9,489.1 L335.9,491.9 L336.2,495.6 C336.4,498.3 337.3,499.9 339.3,501.4 L342.2,503.5 L369.8,503.3 C385.1,503.2 410.2,502.5 425.8,501.6 C441.3,500.7 454.5,500 455,500 C455.7,500 456,510.7 455.9,529.9 C455.8,546.3 456,560.2 456.4,560.9 C456.8,561.5 457,562 456.8,562 C456.6,562 448.4,560.6 438.5,559 C428.6,557.3 419.3,556.2 417.8,556.6 L415,557.2 L415,553.7 C415,548.5 411.3,545.9 405.9,547.3 C402.1,548.3 401,551.9 401,563.2 C401,574.5 402.7,587.4 407.1,609.5 C412,634.3 417.2,647 423.9,650.4 C427.4,652.3 437.1,652.5 438.8,650.8 C440.3,649.3 440.3,644.7 438.8,643.2 C438.1,642.5 436.3,642 434.7,642 C428.3,642 426.5,638.9 423.1,622 C420.6,609.6 416.4,583.2 415.4,574.1 L414.8,567.7 L416.4,568.3 C420.2,569.8 430.2,572 439.5,573.5 C476.2,579.3 530.4,590.3 539.9,593.8 C545.9,596.1 546.2,598.2 541.3,603.2 C536,608.8 513.1,623.8 500.2,630.2 L489.5,635.5 L472,636 L454.5,636.5 L449.5,639 C444.1,641.7 442.1,645.4 443.4,650.4 C444.9,656.6 458.3,658.2 473,654 C483.8,650.9 518.9,649.4 543.5,651 L561.5,652.2 L563.2,650 C565.4,647.3 565.4,646.7 563.3,644.1 L561.5,642 L549,640.5 C542.1,639.6 532.3,638.4 527.2,637.7 L517.9,636.5 L527.1,631 C551.4,616.7 560,607.8 560,597.3 C560,588.5 554.5,583 541.7,579.1 C534,576.8 492.1,568.1 475.7,565.4 L464.9,563.7 L465.6,562.1 C466,561.2 466.9,551 467.5,539.5 C468.2,527.9 469.1,514.2 469.5,508.9 L470.2,499.3 L477.9,498.7 C482.1,498.4 499,497.3 515.5,496.3 L545.4,494.6 L547.2,492.8 C549.6,490.4 549.5,486.7 546.9,484.4 L544.8,482.5 L531.6,482.2 C524.4,482 508,482.3 495.1,482.9 C482.2,483.5 471.6,483.9 471.5,483.8 C471.3,483.6 471.5,478.9 471.7,473.4 L472.3,463.3 L482.6,458.1 C494.1,452.2 504.7,443.4 508.3,436.6 L510.5,432.5 L510.5,424 L510.5,415.5 L508.3,411.4 C502.9,401.2 488.1,392.9 462.5,385.5 C453.7,382.9 445.9,380.7 445.3,380.4 C444.6,380.2 444,379 444,377.7 C444,372.5 437.6,369.4 432.5,372.2 Z M457,475.3 C457,478.9 456.5,482.3 455.8,483.2 L454.5,484.8 L435.5,485.4 C425.1,485.7 408.6,486.2 399,486.5 L381.5,487 L386,485.5 C388.5,484.7 400.6,481.7 413,478.9 C425.4,476.1 439.3,472.8 444,471.5 C448.7,470.3 453.5,469.2 454.8,469.1 L457,469 L457,475.3 Z"/>
</svg>

