<svg xmlns="http://www.w3.org/2000/svg" version="1.0" width="937.000000pt" height="937.000000pt" viewBox="0 0 937.000000 937.000000" preserveAspectRatio="xMidYMid meet">
  <defs/>
  <path fill="#000000" d="M493.1,338.3 C491.7,338.9 490.3,340.8 489.8,342.5 C488.6,346.8 488.7,377.9 489.9,401.5 C490.9,421.4 492.1,454.9 494.1,524 C494.7,544.1 495.5,564.5 495.8,569.3 C496.2,574.1 496.4,578.3 496.1,578.6 C495.9,578.8 488.8,579 480.3,579 C466.5,579 462.9,578.4 465.9,576.6 C467.5,575.6 468.1,568.3 468.9,537.3 L469.8,506.1 L476.4,499.8 C483.7,492.8 484.8,489.4 480.8,486.6 C477.8,484.5 477.6,484.5 473.7,488 L470.3,491 L469.6,484.8 C469.3,481.5 469,470.8 469,461.1 C468.9,451.4 468.5,436.5 468,428 C467.6,419.5 466.7,402.1 466,389.5 C465.3,376.8 464.4,365.3 463.8,363.8 C461.7,358.2 453.6,358.1 451.1,363.7 C449.6,366.9 449.8,391.8 451.4,413.5 C452.1,422.8 452.6,430.6 452.4,430.8 C452.3,431 448,429.8 442.8,428.2 C437.7,426.5 426.6,424 418.2,422.6 C409.8,421.2 402,419.4 400.8,418.6 C398.1,416.7 390.5,416.5 387,418.3 C381.2,421.2 381.1,428.5 386.8,431.4 C389.6,432.8 393.1,433.4 417.5,436 C432.3,437.7 444.5,440.7 448,443.7 C453.5,448.3 451.7,454.4 442.6,462.7 C429.2,475 404.3,485.9 382.7,489.1 C376.6,490 374.1,490.9 372.3,492.6 C367.9,497 370.6,503.3 377.4,504.5 C379.3,504.9 392.4,504 406.7,502.6 C420.9,501.2 432.9,500 433.4,500 C435.2,500 429.6,505 422.1,510.2 C418,513.1 409,518.3 402.1,521.8 C395.3,525.2 389.1,528.9 388.4,529.8 C386.4,532.3 386.7,536.7 389,539 C392,542 399.1,541.6 410.2,537.9 C421.8,534 442.1,524.9 449.2,520.5 L454.5,517.1 L455.3,537.3 C455.7,548.4 455.8,561.1 455.5,565.5 C455.1,571.7 455.3,574 456.4,575.6 C457.3,576.8 457.6,578 457.3,578.4 C456.3,579.4 386.8,578 383.9,576.9 C380,575.4 368.1,577.6 365.2,580.3 C362,583.3 362.5,588.6 366.3,591.4 L369.1,593.5 L434,593.8 L498.8,594.1 L499.5,596.8 C501.1,603.3 505.3,606.5 510.2,604.8 C512.3,604 513.3,602.8 514.1,599.7 C514.7,597.4 515.4,595 515.5,594.4 C515.7,593.6 526.5,593.1 550.7,592.7 C604,591.8 629.7,589.5 632.8,585.3 C634.6,582.8 634.3,579.3 631.9,576.9 L629.7,574.7 L619.3,575.3 C613.3,575.6 608.3,576.3 607.5,577 C606.3,578 594.5,578.4 560.1,578.8 L514.2,579.3 L513.6,572.4 C511.8,553.3 510.9,545.1 510,541.5 C509.5,539.3 509,532.2 509,525.7 L509,514 L524,514 C532.3,514 539,514.3 539,514.7 C539,515.2 538.3,516.4 537.5,517.4 C535.5,520.1 535.6,522.4 538,524.5 C540.5,526.8 543.5,525.9 548,521.7 C556.5,513.7 557.9,509.3 553.6,504.4 L551.3,501.6 L537.7,500.6 L524.2,499.7 L534.4,491.5 C552.2,477.1 556.2,470.4 551,463.7 C548.3,460.3 543,459.6 531.3,461.3 C526.2,462 522,462.5 522,462.4 C522,462.3 524.5,460.3 527.6,458 C535.5,452 544.7,442.5 547.3,437.6 C548.7,434.8 549.4,431.6 549.5,427.4 L549.5,421.3 L546.8,417.8 C543.6,413.6 538,411.4 528,410.4 C524.4,410.1 518.8,408.7 515.4,407.4 C512.1,406.1 508.6,405 507.8,405 C505.6,405 505.3,402.1 504,373.5 C502.8,345.9 502.4,341.8 500.7,339.7 C498.9,337.5 495.8,336.9 493.1,338.3 Z M524.9,423.7 C536.4,424.5 538,425.2 538,429.1 C538,433.3 535.1,437.7 529,442.9 C524.1,447 510.3,456 508.9,456 C507.8,456 507.1,449.4 506.6,433.3 L506.2,419.1 L511.3,421.1 C514.2,422.3 520.1,423.4 524.9,423.7 Z M454,472.3 C454,474.7 454.3,482.7 454.6,490.2 L455.3,503.6 L451.7,505.7 C449.8,506.9 446,508.8 443.4,510 L438.5,512.1 L441.2,509.3 C445.4,504.8 448,499.7 448,496 C448,489.3 444.3,487 433.5,487 L425.5,487 L434.2,481.9 C439,479 445,474.8 447.7,472.4 C450.3,470 452.8,468.1 453.3,468 C453.7,468 454,470 454,472.3 Z M532.2,478.9 C527.2,483.5 510.1,495.4 509.4,494.8 C509.2,494.5 508.9,490.5 508.8,485.7 L508.5,477 L518.4,476.6 C523.8,476.3 528.5,475.9 528.8,475.5 C529.1,475.2 530.9,475 532.9,475 L536.5,475.1 L532.2,478.9 Z"/>
</svg>

