<svg xmlns="http://www.w3.org/2000/svg" version="1.0" width="937.000000pt" height="937.000000pt" viewBox="0 0 937.000000 937.000000" preserveAspectRatio="xMidYMid meet">
  <defs/>
  <path fill="#000000" d="M473.1,281 C469.7,283.7 463.7,287.8 459.7,290.1 C426.3,309.3 402,324.5 396.8,329.3 C395.2,330.8 394,332.8 394,334 C394,336.7 397.5,340 400.4,340 L402.7,340 L403.4,344.7 C403.7,347.4 404.7,358.3 405.5,369 C407.2,390.3 409,403.1 412,415.8 C414.4,426 417,431.1 421.3,434.4 C425.2,437.4 433,438.8 436.3,437.2 C437.5,436.6 449.8,434.7 463.7,432.9 L488.8,429.8 L490.9,431.9 C494.9,435.9 506.1,434.3 512.5,428.7 C519.7,422.6 520.2,421.9 519.8,419.5 C519.5,418.2 519.9,414.3 520.6,410.8 C522.3,403.1 522.5,360.4 521,348 C518.8,330.2 512.7,319.6 503,317 C490,313.5 445,319.4 429.3,326.7 C423.3,329.5 420.5,333.3 419.5,340 L418.8,344.5 L421,347.3 C425.1,352.4 433,349.6 433,343 C433,339.3 434,338.8 446.6,335.6 C462.8,331.5 478.7,329 488.5,329 L497.7,329 L500.3,331 C506.2,335.6 508,348 508,383.5 C508,397.7 507.5,410.1 506.9,412.2 L505.9,416 L498.6,416 C494.6,416 487.1,416.2 481.9,416.5 L472.5,417.1 L479.5,413.4 C492.2,406.7 497,401.7 495.1,396.8 C493.4,392.2 491.4,391.5 478.2,391 L465.7,390.5 L471.7,386.3 C479.3,380.9 487.6,371.9 488.5,368.1 C489.3,364.6 487.9,361.6 484.4,359.4 L481.9,357.7 L474.4,358.3 C470.2,358.7 462.9,359.7 458.1,360.6 L449.3,362.2 L443.2,360.6 C435.9,358.8 432.4,359.6 431.4,363.5 C429.8,369.9 432.3,372.2 443.2,374.3 L449,375.3 L459.7,373.1 C465.7,371.9 471.4,370.6 472.5,370.3 L474.5,369.7 L472.5,371.9 C470.4,374.3 457.9,382.1 449.1,386.5 C439,391.5 436.7,396.2 441.4,401.7 L443.8,404.5 L457.7,405 L471.5,405.5 L453.4,412.7 C441.4,417.6 433.7,420.1 430.5,420.2 L425.6,420.5 L424.9,417 C423.1,409 420.9,390.5 420,376 C418.5,352.1 417.1,339.5 415.5,335.1 L414.1,331 L420.8,327.1 C424.5,324.9 435.8,318.6 446,313.2 C478.1,295.9 479.6,295 484.3,290.6 C489.8,285.6 490.4,282.3 486.5,278.5 C482.9,274.8 480.1,275.4 473.1,281 Z"/>
  <path fill="#000000" d="M462.3,436.5 C461.2,437.3 460,439 459.7,440.2 L459.1,442.5 L445.3,445.3 C415.6,451.4 404.3,457.7 409.4,465.4 C411.8,469.2 414.5,469.5 420,466.6 C425.2,463.9 433.6,461.4 448.3,458.1 L457,456.2 L457,463.1 L457,469.9 L453.3,470.9 C451.2,471.5 443.9,473 437.1,474.4 C422.1,477.4 419.5,478.9 419.5,484.9 C419.5,487.1 419.4,489 419.3,489 C418.3,489 394.2,457.5 392.3,453.5 C389.2,447.2 386.2,445.3 382.2,447.2 C378,449.2 378.2,454 382.7,462.2 C387.8,471.2 410,498 421.7,508.9 C426.8,513.8 431,518.4 431,519.3 C431,522.1 435,526 437.8,526 C440,525.9 468.7,516.4 475.4,513.5 L477.2,512.7 L476.1,514.9 C473.3,520.1 478.2,523.9 484.8,521.6 C489.3,520 499.1,515 503.7,511.9 L507,509.8 L507.6,511.3 C507.9,512.2 508.2,515 508.3,517.5 L508.5,522.1 L485,528 C472.1,531.3 453.2,535.8 443.1,538 L424.7,542.1 L423.8,540.8 C423.3,540.1 423.2,536.3 423.5,532.3 L424.2,525.2 L422.1,523.1 C419.5,520.5 416,520.4 413.3,522.9 C410.5,525.5 408.6,534 409.4,540.1 C409.8,542.8 409.9,545 409.7,545 C409.5,545 403.5,545.9 396.4,547 C379.6,549.7 351.2,550.6 335.2,549.1 C328.5,548.4 322.1,548.1 321.1,548.5 C318.5,549.3 316.8,553.5 318,556.5 C318.7,558.4 320.5,559.4 326.2,561.2 L333.5,563.5 L360.5,563.5 L387.5,563.4 L402.4,560.7 L417.3,558 L421,562.3 C428.7,571 441.8,575 452.7,572.1 C459,570.4 466.4,564.9 466.8,561.6 C467.5,555.7 462.2,554.2 456.4,558.6 C450.2,563.4 438.5,562.5 433.5,557 L431.7,555 L433.1,554.6 C433.9,554.4 439.7,552.9 446,551.4 C452.3,549.9 468.3,545.7 481.5,542 C494.7,538.3 506.7,535 508.1,534.7 L510.7,534 L511.4,541.3 C511.7,545.2 512.3,567.6 512.6,591 L513.2,633.5 L511.6,645.4 C510.6,651.9 508.6,662.5 506.9,668.8 L504,680.3 L505.5,682.6 C507.5,685.7 511.5,685.7 513.4,682.7 C515.5,679.4 520.7,656.3 522.5,642.5 C524.2,629.6 526.2,569.9 525.8,545.5 L525.6,530.5 L530.6,529.2 C533.3,528.6 538.5,527.7 542.3,527.4 L549,526.7 L549,529.2 C549,533.6 551,534.3 562.7,533.8 C575.1,533.4 580.1,531.6 582,526.9 L583.2,524 L581.5,521.4 C580.6,520 578.2,518.1 576.2,517.2 C570,514.4 539.8,515.3 526.4,518.6 L524.2,519.2 L523.5,513.1 C523.1,509.8 522,505.4 520.9,503.4 L519.1,499.7 L526,492.8 C539.6,479.4 545.1,470.1 545.8,459.4 C546.8,443.6 540.4,436.6 523.8,435.4 C515.8,434.8 489.6,436.8 478.5,438.9 L473.6,439.8 L470.7,437.4 C467.4,434.6 465.3,434.4 462.3,436.5 Z M531.1,449.9 C533.5,452.9 533.5,459.2 531.1,464.5 C527,473.4 510.2,491.1 505.3,491.6 C502.1,492 499,495.2 499,498.4 L499,500.5 L497.7,498.1 C495.5,493.7 493.7,493.3 486.8,495.9 C479.1,498.7 469.1,501.4 468.5,500.8 C468.2,500.6 468.5,498.8 469,496.9 C469.6,495.1 470,490.3 470,486.3 L470,479.1 L477.2,475.3 C486.1,470.7 494,463 494,459.2 C494,453.3 487.6,451.9 484,457 C481.9,459.9 474.4,465 472.2,465 C471.4,465 471,462.9 471,459.1 L471,453.2 L475.8,452.2 C480.1,451.2 497.2,448.7 506,447.6 C507.9,447.4 513.9,447.3 519.4,447.4 L529.2,447.6 L531.1,449.9 Z M457,490 C457,501.2 453.6,506.3 444.5,509.4 L439.5,511 L430.3,501.5 C425.2,496.2 421,491.5 421,491 C421,490.5 422.6,490.8 424.5,491.6 C426.4,492.3 429.7,493 431.9,493 L435.9,493 L438.2,490.1 C440,487.8 442.2,486.7 448,485.2 C452.1,484.1 455.8,483.1 456.3,483.1 C456.7,483 457,486.2 457,490 Z"/>
</svg>

