<svg xmlns="http://www.w3.org/2000/svg" version="1.0" width="937.000000pt" height="937.000000pt" viewBox="0 0 937.000000 937.000000" preserveAspectRatio="xMidYMid meet">
  <defs/>
  <path fill="#000000" d="M468.9,346.8 C467.3,348.2 466.7,349.6 466.8,352.1 C468.8,396.8 468.1,410.6 462,436 C460.4,442.9 459,450 459,451.8 C459,456.3 462.8,460 467.4,460 C470.9,460 472.4,459.1 488.7,447.7 C496,442.6 511.8,434.3 517.8,432.5 L520,431.9 L520,446.2 C520,455.5 521,469.4 523,486 C528.1,530.4 530.9,554.6 532.5,566.3 C533.3,572.6 534.2,582.6 534.6,588.6 L535.3,599.5 L533.8,600.7 C532.8,601.6 525.7,602 509.9,602.2 L487.5,602.5 L482,599.9 C479,598.4 475,596.1 473.1,594.6 C469,591.5 466.9,591.3 464.7,593.8 C461.7,597.1 462.6,599.7 468.3,604.1 C481.4,614.6 496.4,618.5 521.5,617.8 L536.5,617.4 L540.7,615.2 C552.1,609.2 553,602.2 547.6,557.3 C546.2,545.8 544.4,530.2 543.5,522.5 C542.6,514.8 540.8,499 539.4,487.5 C536.4,461.5 534.6,427.9 536.3,426.8 C539.2,425 552,423.8 561.4,424.4 C575.3,425.3 575,425.3 577.1,423.4 C579.5,421.2 579.5,416.8 577.1,414.6 C571.9,409.9 551.8,408.4 536.5,411.5 C519.3,415.1 496.9,424.2 484,433 C480.6,435.3 477.7,437 477.5,436.8 C477.4,436.7 478.4,430.9 479.7,424 L482.1,411.5 L482.7,387.4 C483.3,360.6 482.4,351.1 478.8,347.2 C476.2,344.5 472,344.3 468.9,346.8 Z"/>
  <path fill="#000000" d="M373.6,364.1 C370.6,366.4 370.4,368.5 372.2,379.1 C373.1,384.5 373,388.1 372.1,394.3 C369.4,412.9 359.7,444.2 349.4,467.8 C346.4,474.6 344,480.7 344,481.4 C344,482.2 344.9,483.9 346.1,485.4 C349.9,490.2 352.3,489.3 375.9,473.6 C387.8,465.8 400.1,457.8 403.3,456 L409.2,452.8 L408.3,457.6 C407,465.4 407.4,556.3 408.8,576 C410.2,595.4 411.5,605.9 413.1,610.6 C415,616.5 422.2,617.3 425,612 C425.5,611 426,603.9 426,596.4 L426,582.7 L424.3,580.7 L422.5,578.8 L422.5,515.5 L422.5,452.2 L420.7,450.3 L419,448.3 L424.7,445.7 C433.5,441.9 437.9,440.9 444.6,441.6 L450.7,442.3 L452.9,440.1 C455.9,437.1 455.4,432.4 451.9,429.8 C450,428.4 447,427.7 441.4,427.3 L433.5,426.8 L425.7,429.4 C413.8,433.4 395.7,442.9 381,452.9 C373.6,457.9 367.5,461.8 367.3,461.6 C367.1,461.4 368.2,457.9 369.8,453.9 C373.8,443.9 382.5,416.5 385,406 C389.3,387.6 388.5,370.4 383,364.8 C379.6,361.5 377.2,361.3 373.6,364.1 Z"/>
</svg>

