<svg xmlns="http://www.w3.org/2000/svg" width="300" height="300" viewBox="0 0 300 300">
<path d="M 146.33 110.04 L 146.33 111.04 C 146.33 112.26 147.32 113.26 148.54 113.26 C 149.77 113.26 150.76 112.26 150.76 111.04 L 150.76 110.04 C 150.76 108.81 149.77 107.82 148.54 107.82 C 147.32 107.82 146.33 108.81 146.33 110.04 Z M 146.27 111.04 L 146.27 112.04 C 146.27 113.29 147.29 114.31 148.54 114.31 C 149.80 114.31 150.82 113.29 150.82 112.04 L 150.82 111.04 C 150.82 109.78 149.80 108.76 148.54 108.76 C 147.29 108.76 146.27 109.78 146.27 111.04 Z M 146.21 112.04 L 146.21 113.04 C 146.21 114.33 147.26 115.37 148.54 115.37 C 149.83 115.37 150.87 114.33 150.87 113.04 L 150.87 112.04 C 150.87 110.75 149.83 109.71 148.54 109.71 C 147.26 109.71 146.21 110.75 146.21 112.04 Z M 146.17 113.04 L 146.17 114.01 C 146.17 115.32 147.24 116.38 148.54 116.38 C 149.85 116.38 150.91 115.32 150.91 114.01 L 150.91 113.04 C 150.91 111.73 149.85 110.67 148.54 110.67 C 147.24 110.67 146.17 111.73 146.17 113.04 Z M 146.16 114.01 L 146.16 114.98 C 146.16 116.30 147.23 117.37 148.54 117.37 C 149.86 117.37 150.93 116.30 150.93 114.98 L 150.93 114.01 C 150.93 112.70 149.86 111.63 148.54 111.63 C 147.23 111.63 146.16 112.70 146.16 114.01 Z M 146.16 114.98 L 146.16 115.99 C 146.16 117.30 147.23 118.37 148.54 118.37 C 149.86 118.37 150.93 117.30 150.93 115.99 L 150.93 114.98 C 150.93 113.67 149.86 112.60 148.54 112.60 C 147.23 112.60 146.16 113.67 146.16 114.98 Z M 146.16 115.99 L 146.16 117.03 C 146.16 118.35 147.22 119.42 148.54 119.42 C 149.86 119.42 150.93 118.35 150.93 117.03 L 150.93 115.99 C 150.93 114.67 149.86 113.60 148.54 113.60 C 147.22 113.60 146.16 114.67 146.16 115.99 Z M 146.15 117.03 L 146.15 117.94 C 146.15 119.26 147.22 120.33 148.54 120.33 C 149.86 120.33 150.93 119.26 150.93 117.94 L 150.93 117.03 C 150.93 115.71 149.86 114.64 148.54 114.64 C 147.22 114.64 146.15 115.71 146.15 117.03 Z M 146.15 117.94 L 146.15 118.90 C 146.15 120.23 147.22 121.30 148.54 121.30 C 149.86 121.30 150.94 120.23 150.94 118.90 L 150.94 117.94 C 150.94 116.62 149.86 115.55 148.54 115.55 C 147.22 115.55 146.15 116.62 146.15 117.94 Z M 146.15 118.90 L 146.15 119.92 C 146.15 121.25 147.22 122.32 148.54 122.32 C 149.87 122.32 150.94 121.25 150.94 119.92 L 150.94 118.90 C 150.94 117.58 149.87 116.51 148.54 116.51 C 147.22 116.51 146.15 117.58 146.15 118.90 Z M 146.15 119.92 L 146.15 121.00 C 146.15 122.33 147.22 123.40 148.54 123.40 C 149.87 123.40 150.94 122.33 150.94 121.00 L 150.94 119.92 C 150.94 118.60 149.87 117.53 148.54 117.53 C 147.22 117.53 146.15 118.60 146.15 119.92 Z M 146.15 121.00 L 146.15 122.04 C 146.15 123.37 147.22 124.44 148.54 124.44 C 149.87 124.44 150.94 123.37 150.94 122.04 L 150.94 121.00 C 150.94 119.68 149.87 118.61 148.54 118.61 C 147.22 118.61 146.15 119.68 146.15 121.00 Z M 146.15 122.04 L 146.15 123.07 C 146.15 124.39 147.22 125.47 148.54 125.47 C 149.87 125.47 150.94 124.39 150.94 123.07 L 150.94 122.04 C 150.94 120.72 149.87 119.65 148.54 119.65 C 147.22 119.65 146.15 120.72 146.15 122.04 Z M 146.15 123.07 L 146.15 124.10 C 146.15 125.43 147.22 126.50 148.54 126.50 C 149.87 126.50 150.94 125.43 150.94 124.10 L 150.94 123.07 C 150.94 121.75 149.87 120.67 148.54 120.67 C 147.22 120.67 146.15 121.75 146.15 123.07 Z M 146.15 124.10 L 146.15 125.11 C 146.15 126.43 147.22 127.51 148.54 127.51 C 149.87 127.51 150.94 126.43 150.94 125.11 L 150.94 124.10 C 150.94 122.78 149.87 121.71 148.54 121.71 C 147.22 121.71 146.15 122.78 146.15 124.10 Z M 146.15 125.11 L 146.15 126.06 C 146.15 127.39 147.22 128.46 148.54 128.46 C 149.87 128.46 150.94 127.39 150.94 126.06 L 150.94 125.11 C 150.94 123.78 149.87 122.71 148.54 122.71 C 147.22 122.71 146.15 123.78 146.15 125.11 Z M 146.15 126.06 L 146.15 127.14 C 146.15 128.46 147.22 129.53 148.54 129.53 C 149.87 129.53 150.94 128.46 150.94 127.14 L 150.94 126.06 C 150.94 124.74 149.87 123.66 148.54 123.66 C 147.22 123.66 146.15 124.74 146.15 126.06 Z M 146.15 127.14 L 146.15 128.17 C 146.15 129.49 147.22 130.56 148.54 130.56 C 149.87 130.56 150.94 129.49 150.94 128.17 L 150.94 127.14 C 150.94 125.81 149.87 124.74 148.54 124.74 C 147.22 124.74 146.15 125.81 146.15 127.14 Z M 146.15 128.17 L 146.15 129.12 C 146.15 130.44 147.22 131.52 148.54 131.52 C 149.87 131.52 150.94 130.44 150.94 129.12 L 150.94 128.17 C 150.94 126.84 149.87 125.77 148.54 125.77 C 147.22 125.77 146.15 126.84 146.15 128.17 Z M 146.15 129.12 L 146.15 130.04 C 146.15 131.37 147.22 132.44 148.54 132.44 C 149.87 132.44 150.94 131.37 150.94 130.04 L 150.94 129.12 C 150.94 127.80 149.87 126.72 148.54 126.72 C 147.22 126.72 146.15 127.80 146.15 129.12 Z M 146.15 130.04 L 146.15 131.02 C 146.15 132.34 147.22 133.42 148.55 133.41 C 149.87 133.41 150.94 132.34 150.94 131.02 L 150.94 130.04 C 150.94 128.72 149.87 127.64 148.54 127.64 C 147.22 127.64 146.15 128.72 146.15 130.04 Z M 146.15 131.03 L 146.15 132.02 C 146.16 133.34 147.23 134.41 148.56 134.41 C 149.88 134.40 150.95 133.32 150.95 132.00 L 150.94 131.01 C 150.94 129.68 149.86 128.61 148.54 128.62 C 147.21 128.62 146.14 129.70 146.15 131.03 Z M 146.15 132.03 L 146.16 133.05 C 146.18 134.37 147.26 135.43 148.58 135.42 C 149.91 135.40 150.97 134.32 150.96 133.00 L 150.95 131.98 C 150.93 130.66 149.85 129.60 148.52 129.61 C 147.20 129.63 146.14 130.71 146.15 132.03 Z M 146.16 133.07 L 146.18 134.07 C 146.21 135.39 147.30 136.44 148.63 136.42 C 149.95 136.39 151.00 135.30 150.98 133.97 L 150.96 132.97 C 150.93 131.65 149.84 130.60 148.51 130.62 C 147.19 130.65 146.14 131.75 146.16 133.07 Z M 146.18 134.09 L 146.21 135.06 C 146.25 136.39 147.35 137.43 148.68 137.39 C 150.00 137.35 151.04 136.25 151.00 134.93 L 150.97 133.95 C 150.94 132.63 149.83 131.59 148.51 131.63 C 147.19 131.66 146.14 132.77 146.18 134.09 Z M 146.21 135.08 L 146.25 136.07 C 146.29 137.40 147.40 138.43 148.72 138.39 C 150.05 138.34 151.08 137.23 151.04 135.91 L 151.00 134.91 C 150.96 133.59 149.85 132.55 148.52 132.60 C 147.20 132.64 146.17 133.75 146.21 135.08 Z M 146.25 136.08 L 146.29 137.10 C 146.33 138.43 147.45 139.46 148.77 139.41 C 150.09 139.36 151.12 138.25 151.07 136.93 L 151.04 135.90 C 150.99 134.58 149.87 133.55 148.55 133.60 C 147.23 133.65 146.20 134.76 146.25 136.08 Z M 146.29 137.11 L 146.32 138.12 C 146.37 139.44 147.49 140.47 148.81 140.42 C 150.13 140.37 151.16 139.26 151.11 137.94 L 151.07 136.92 C 151.02 135.60 149.91 134.57 148.59 134.62 C 147.27 134.67 146.24 135.78 146.29 137.11 Z M 146.32 138.12 L 146.36 139.12 C 146.41 140.44 147.52 141.47 148.84 141.42 C 150.17 141.38 151.20 140.26 151.15 138.94 L 151.11 137.94 C 151.06 136.62 149.95 135.59 148.63 135.64 C 147.31 135.68 146.28 136.80 146.32 138.12 Z M 146.36 139.12 L 146.40 140.13 C 146.45 141.45 147.56 142.48 148.88 142.43 C 150.20 142.38 151.23 141.27 151.18 139.95 L 151.15 138.94 C 151.10 137.62 149.99 136.59 148.67 136.64 C 147.35 136.69 146.31 137.80 146.36 139.12 Z M 146.40 140.13 L 146.44 141.13 C 146.49 142.45 147.60 143.48 148.92 143.43 C 150.24 143.38 151.27 142.27 151.22 140.95 L 151.18 139.95 C 151.14 138.63 150.02 137.60 148.70 137.65 C 147.38 137.70 146.35 138.81 146.40 140.13 Z M 146.44 141.13 L 146.48 142.13 C 146.52 143.45 147.64 144.48 148.96 144.44 C 150.28 144.39 151.31 143.27 151.26 141.95 L 151.22 140.95 C 151.17 139.63 150.06 138.60 148.74 138.65 C 147.42 138.70 146.39 139.81 146.44 141.13 Z M 146.48 142.14 L 146.51 143.15 C 146.57 144.47 147.68 145.50 149.00 145.44 C 150.32 145.39 151.35 144.28 151.30 142.96 L 151.26 141.95 C 151.21 140.63 150.10 139.60 148.77 139.65 C 147.45 139.70 146.42 140.82 146.48 142.14 Z M 146.52 143.15 L 146.55 144.14 C 146.61 145.46 147.72 146.49 149.04 146.44 C 150.36 146.39 151.39 145.27 151.33 143.95 L 151.30 142.96 C 151.24 141.64 150.13 140.61 148.81 140.66 C 147.49 140.71 146.46 141.83 146.52 143.15 Z M 146.55 144.14 L 146.59 145.13 C 146.65 146.45 147.76 147.48 149.08 147.43 C 150.40 147.37 151.43 146.26 151.37 144.94 L 151.33 143.95 C 151.28 142.63 150.17 141.61 148.85 141.66 C 147.53 141.71 146.50 142.82 146.55 144.14 Z M 146.59 145.13 L 146.63 146.12 C 146.69 147.44 147.80 148.47 149.12 148.42 C 150.44 148.37 151.46 147.25 151.41 145.93 L 151.37 144.94 C 151.32 143.62 150.21 142.59 148.89 142.65 C 147.57 142.70 146.54 143.81 146.59 145.13 Z M 146.63 146.12 L 146.67 147.12 C 146.72 148.44 147.84 149.47 149.15 149.42 C 150.47 149.37 151.50 148.25 151.45 146.93 L 151.41 145.94 C 151.36 144.62 150.25 143.59 148.93 143.64 C 147.61 143.69 146.58 144.80 146.63 146.12 Z M 146.67 147.12 L 146.71 148.12 C 146.76 149.44 147.87 150.47 149.19 150.42 C 150.51 150.37 151.54 149.26 151.49 147.94 L 151.45 146.93 C 151.40 145.62 150.29 144.59 148.97 144.64 C 147.65 144.69 146.62 145.80 146.67 147.12 Z M 146.71 148.12 L 146.75 149.12 C 146.80 150.44 147.91 151.47 149.23 151.42 C 150.55 151.37 151.58 150.26 151.53 148.94 L 151.49 147.94 C 151.44 146.62 150.33 145.59 149.01 145.64 C 147.69 145.69 146.66 146.80 146.71 148.12 Z M 146.75 149.12 L 146.79 150.12 C 146.84 151.44 147.95 152.47 149.27 152.42 C 150.59 152.37 151.62 151.26 151.57 149.94 L 151.53 148.94 C 151.48 147.62 150.37 146.59 149.05 146.64 C 147.73 146.69 146.70 147.80 146.75 149.12 Z M 146.79 150.12 L 146.83 151.12 C 146.88 152.44 147.99 153.47 149.31 153.42 C 150.63 153.37 151.66 152.26 151.61 150.94 L 151.57 149.94 C 151.52 148.62 150.41 147.59 149.09 147.64 C 147.77 147.69 146.74 148.80 146.79 150.12 Z M 146.83 151.11 L 146.86 152.11 C 146.91 153.43 148.01 154.46 149.33 154.41 C 150.65 154.37 151.69 153.26 151.64 151.94 L 151.61 150.95 C 151.56 149.63 150.45 148.59 149.13 148.64 C 147.81 148.68 146.78 149.79 146.83 151.11 Z M 146.86 152.09 L 146.89 153.09 C 146.93 154.41 148.03 155.45 149.35 155.41 C 150.67 155.38 151.70 154.28 151.67 152.96 L 151.64 151.96 C 151.60 150.64 150.50 149.60 149.18 149.64 C 147.86 149.67 146.82 150.77 146.86 152.09 Z M 146.89 153.07 L 146.91 154.07 C 146.93 155.39 148.02 156.44 149.34 156.42 C 150.66 156.39 151.71 155.30 151.69 153.98 L 151.67 152.98 C 151.64 151.66 150.55 150.61 149.23 150.63 C 147.91 150.66 146.86 151.75 146.89 153.07 Z M 146.91 154.05 L 146.92 155.06 C 146.93 156.38 148.01 157.43 149.33 157.42 C 150.65 157.41 151.71 156.33 151.70 155.01 L 151.69 154.00 C 151.67 152.68 150.59 151.62 149.27 151.64 C 147.95 151.65 146.90 152.73 146.91 154.05 Z M 146.92 155.04 L 146.93 156.05 C 146.93 157.37 148.00 158.43 149.32 158.42 C 150.64 158.42 151.71 157.34 151.70 156.03 L 151.70 155.02 C 151.69 153.70 150.62 152.64 149.30 152.65 C 147.98 152.65 146.92 153.72 146.92 155.04 Z M 146.93 156.04 L 146.93 157.03 C 146.93 158.35 148.00 159.42 149.32 159.42 C 150.63 159.42 151.70 158.35 151.70 157.03 L 151.70 156.03 C 151.70 154.72 150.63 153.65 149.31 153.65 C 147.99 153.65 146.93 154.72 146.93 156.04 Z M 146.93 157.03 L 146.93 158.02 C 146.93 159.34 148.00 160.41 149.31 160.41 C 150.63 160.41 151.70 159.34 151.70 158.02 L 151.70 157.03 C 151.70 155.71 150.63 154.65 149.31 154.65 C 148.00 154.65 146.93 155.71 146.93 157.03 Z M 146.93 158.02 L 146.93 159.01 C 146.93 160.33 148.00 161.39 149.31 161.39 C 150.63 161.39 151.70 160.33 151.70 159.01 L 151.70 158.02 C 151.70 156.71 150.63 155.64 149.31 155.64 C 148.00 155.64 146.93 156.71 146.93 158.02 Z M 146.93 159.01 L 146.93 160.00 C 146.93 161.32 148.00 162.38 149.31 162.38 C 150.63 162.38 151.70 161.32 151.70 160.00 L 151.70 159.01 C 151.70 157.69 150.63 156.63 149.31 156.63 C 148.00 156.63 146.93 157.69 146.93 159.01 Z M 146.93 160.00 L 146.93 161.02 C 146.93 162.33 148.00 163.40 149.31 163.40 C 150.63 163.40 151.69 162.33 151.69 161.02 L 151.69 160.00 C 151.69 158.69 150.63 157.62 149.31 157.62 C 148.00 157.62 146.93 158.69 146.93 160.00 Z M 146.93 161.02 L 146.93 162.03 C 146.93 163.34 148.00 164.41 149.31 164.41 C 150.63 164.41 151.69 163.34 151.69 162.03 L 151.69 161.02 C 151.69 159.70 150.63 158.64 149.31 158.64 C 148.00 158.64 146.93 159.70 146.93 161.02 Z M 146.94 162.03 L 146.94 163.05 C 146.94 164.36 148.00 165.43 149.31 165.43 C 150.63 165.43 151.69 164.36 151.69 163.05 L 151.69 162.03 C 151.69 160.72 150.63 159.65 149.31 159.65 C 148.00 159.65 146.94 160.72 146.94 162.03 Z M 146.94 163.05 L 146.94 164.06 C 146.94 165.37 148.00 166.44 149.31 166.44 C 150.63 166.44 151.69 165.37 151.69 164.06 L 151.69 163.05 C 151.69 161.74 150.63 160.67 149.31 160.67 C 148.00 160.67 146.94 161.74 146.94 163.05 Z M 146.94 164.06 L 146.94 165.04 C 146.94 166.35 148.00 167.41 149.31 167.41 C 150.63 167.41 151.69 166.35 151.69 165.04 L 151.69 164.06 C 151.69 162.75 150.63 161.69 149.31 161.69 C 148.00 161.69 146.94 162.75 146.94 164.06 Z M 146.94 165.04 L 146.94 166.08 C 146.94 167.39 148.00 168.46 149.31 168.46 C 150.63 168.46 151.69 167.39 151.69 166.08 L 151.69 165.04 C 151.69 163.73 150.63 162.66 149.31 162.66 C 148.00 162.66 146.94 163.73 146.94 165.04 Z M 146.94 166.08 L 146.94 167.09 C 146.94 168.40 148.00 169.46 149.31 169.46 C 150.62 169.46 151.69 168.40 151.69 167.09 L 151.69 166.08 C 151.69 164.77 150.62 163.71 149.31 163.71 C 148.00 163.71 146.94 164.77 146.94 166.08 Z M 146.94 167.09 L 146.94 168.06 C 146.94 169.37 148.00 170.43 149.31 170.43 C 150.62 170.43 151.68 169.37 151.68 168.06 L 151.68 167.09 C 151.68 165.78 150.62 164.72 149.31 164.72 C 148.00 164.72 146.94 165.78 146.94 167.09 Z M 146.94 168.06 L 146.94 169.03 C 146.94 170.34 148.01 171.40 149.31 171.40 C 150.62 171.40 151.68 170.34 151.68 169.03 L 151.68 168.06 C 151.68 166.75 150.62 165.69 149.31 165.69 C 148.01 165.69 146.94 166.75 146.94 168.06 Z M 146.95 169.03 L 146.95 170.03 C 146.95 171.34 148.01 172.40 149.31 172.40 C 150.62 172.40 151.68 171.34 151.68 170.03 L 151.68 169.03 C 151.68 167.72 150.62 166.66 149.31 166.66 C 148.01 166.66 146.95 167.72 146.95 169.03 Z M 146.95 170.03 L 146.95 171.03 C 146.95 172.34 148.01 173.40 149.31 173.40 C 150.62 173.40 151.68 172.34 151.68 171.03 L 151.68 170.03 C 151.68 168.73 150.62 167.67 149.31 167.67 C 148.01 167.67 146.95 168.73 146.95 170.03 Z M 146.95 171.03 L 146.95 172.03 C 146.95 173.33 148.01 174.39 149.31 174.39 C 150.62 174.39 151.68 173.33 151.68 172.03 L 151.68 171.03 C 151.68 169.73 150.62 168.67 149.31 168.67 C 148.01 168.67 146.95 169.73 146.95 171.03 Z M 146.95 172.03 L 146.95 173.03 C 146.95 174.34 148.01 175.40 149.31 175.40 C 150.62 175.40 151.68 174.34 151.68 173.03 L 151.68 172.03 C 151.68 170.72 150.62 169.67 149.31 169.67 C 148.01 169.67 146.95 170.72 146.95 172.03 Z M 146.95 173.03 L 146.95 174.03 C 146.95 175.34 148.01 176.39 149.31 176.39 C 150.62 176.39 151.67 175.34 151.67 174.03 L 151.67 173.03 C 151.67 171.73 150.62 170.68 149.31 170.68 C 148.01 170.68 146.95 171.73 146.95 173.03 Z M 146.96 174.03 L 146.96 175.03 C 146.96 176.33 148.01 177.38 149.31 177.38 C 150.62 177.38 151.67 176.33 151.67 175.03 L 151.67 174.03 C 151.67 172.73 150.62 171.67 149.31 171.67 C 148.01 171.67 146.96 172.73 146.96 174.03 Z M 146.96 175.03 L 146.96 176.03 C 146.96 177.33 148.01 178.38 149.31 178.38 C 150.61 178.38 151.67 177.33 151.67 176.03 L 151.67 175.03 C 151.67 173.72 150.61 172.67 149.31 172.67 C 148.01 172.67 146.96 173.72 146.96 175.03 Z M 146.96 176.03 L 146.96 177.03 C 146.96 178.32 148.01 179.38 149.31 179.38 C 150.61 179.38 151.67 178.32 151.67 177.03 L 151.67 176.03 C 151.67 174.73 150.61 173.67 149.31 173.67 C 148.01 173.67 146.96 174.73 146.96 176.03 Z M 146.96 177.03 L 146.96 178.03 C 146.96 179.32 148.02 180.38 149.31 180.38 C 150.61 180.38 151.66 179.32 151.66 178.03 L 151.66 177.03 C 151.66 175.73 150.61 174.67 149.31 174.67 C 148.02 174.67 146.96 175.73 146.96 177.03 Z M 146.97 178.03 L 146.97 178.91 C 146.97 180.20 148.02 181.26 149.31 181.26 C 150.61 181.26 151.66 180.20 151.66 178.91 L 151.66 178.03 C 151.66 176.73 150.61 175.68 149.31 175.68 C 148.02 175.68 146.97 176.73 146.97 178.03 Z M 146.97 178.91 L 146.97 179.85 C 146.97 181.14 148.02 182.19 149.31 182.19 C 150.61 182.19 151.66 181.14 151.66 179.85 L 151.66 178.91 C 151.66 177.61 150.61 176.56 149.31 176.56 C 148.02 176.56 146.97 177.61 146.97 178.91 Z M 146.97 179.85 L 146.97 180.91 C 146.97 182.21 148.02 183.26 149.31 183.26 C 150.61 183.26 151.66 182.21 151.66 180.91 L 151.66 179.85 C 151.66 178.55 150.61 177.50 149.31 177.50 C 148.02 177.50 146.97 178.55 146.97 179.85 Z M 146.97 180.91 L 146.97 181.98 C 146.97 183.27 148.02 184.32 149.31 184.32 C 150.61 184.32 151.66 183.27 151.66 181.98 L 151.66 180.91 C 151.66 179.62 150.61 178.57 149.31 178.57 C 148.02 178.57 146.97 179.62 146.97 180.91 Z M 146.97 181.98 L 146.97 182.92 C 146.97 184.22 148.02 185.27 149.31 185.27 C 150.61 185.27 151.65 184.22 151.65 182.92 L 151.65 181.98 C 151.65 180.68 150.61 179.64 149.31 179.64 C 148.02 179.64 146.97 180.68 146.97 181.98 Z M 146.97 182.92 L 146.97 183.93 C 146.97 185.23 148.02 186.27 149.31 186.27 C 150.61 186.27 151.65 185.23 151.65 183.93 L 151.65 182.92 C 151.65 181.63 150.61 180.59 149.31 180.59 C 148.02 180.59 146.97 181.63 146.97 182.92 Z M 146.98 183.93 L 146.98 184.97 C 146.98 186.26 148.02 187.31 149.31 187.31 C 150.60 187.31 151.65 186.26 151.65 184.97 L 151.65 183.93 C 151.65 182.64 150.60 181.60 149.31 181.60 C 148.02 181.60 146.98 182.64 146.98 183.93 Z M 146.98 184.97 L 146.98 186.01 C 146.98 187.30 148.02 188.35 149.31 188.35 C 150.60 188.35 151.65 187.30 151.65 186.01 L 151.65 184.97 C 151.65 183.68 150.60 182.64 149.31 182.64 C 148.02 182.64 146.98 183.68 146.98 184.97 Z M 146.98 186.01 L 146.98 187.04 C 146.98 188.33 148.02 189.37 149.31 189.37 C 150.60 189.37 151.65 188.33 151.65 187.04 L 151.65 186.01 C 151.65 184.72 150.60 183.68 149.31 183.68 C 148.02 183.68 146.98 184.72 146.98 186.01 Z M 146.98 187.03 L 146.98 188.05 C 146.98 189.34 148.02 190.38 149.31 190.38 C 150.60 190.38 151.64 189.34 151.64 188.06 L 151.64 187.04 C 151.65 185.75 150.60 184.71 149.32 184.71 C 148.03 184.71 146.99 185.75 146.98 187.03 Z M 146.99 188.04 L 146.98 189.02 C 146.97 190.31 148.01 191.36 149.29 191.36 C 150.58 191.37 151.62 190.34 151.63 189.05 L 151.64 188.07 C 151.65 186.78 150.61 185.73 149.33 185.73 C 148.04 185.72 146.99 186.75 146.99 188.04 Z M 146.98 189.00 L 146.97 189.98 C 146.95 191.26 147.97 192.32 149.25 192.34 C 150.54 192.36 151.59 191.33 151.61 190.05 L 151.63 189.07 C 151.65 187.79 150.62 186.74 149.34 186.72 C 148.06 186.70 147.00 187.72 146.98 189.00 Z M 146.97 189.95 L 146.95 190.94 C 146.91 192.22 147.92 193.29 149.20 193.33 C 150.48 193.36 151.54 192.36 151.58 191.08 L 151.61 190.08 C 151.64 188.80 150.64 187.74 149.36 187.70 C 148.08 187.66 147.01 188.67 146.97 189.95 Z M 146.95 190.91 L 146.91 191.90 C 146.85 193.18 147.84 194.25 149.12 194.31 C 150.40 194.37 151.47 193.38 151.53 192.10 L 151.57 191.11 C 151.63 189.83 150.64 188.76 149.36 188.70 C 148.09 188.64 147.01 189.63 146.95 190.91 Z M 146.92 191.87 L 146.86 192.83 C 146.79 194.10 147.77 195.19 149.04 195.26 C 150.31 195.33 151.40 194.36 151.47 193.09 L 151.52 192.13 C 151.59 190.85 150.62 189.77 149.35 189.69 C 148.08 189.62 146.99 190.60 146.92 191.87 Z M 146.87 192.82 L 146.81 193.81 C 146.73 195.08 147.69 196.17 148.96 196.25 C 150.23 196.33 151.33 195.36 151.40 194.09 L 151.46 193.10 C 151.54 191.83 150.58 190.74 149.31 190.66 C 148.04 190.58 146.95 191.55 146.87 192.82 Z M 146.81 193.81 L 146.75 194.82 C 146.67 196.08 147.63 197.18 148.90 197.25 C 150.17 197.33 151.26 196.37 151.33 195.10 L 151.40 194.09 C 151.48 192.83 150.51 191.74 149.25 191.66 C 147.98 191.58 146.89 192.54 146.81 193.81 Z M 146.75 194.83 L 146.69 195.85 C 146.62 197.12 147.59 198.20 148.85 198.27 C 150.11 198.35 151.20 197.38 151.27 196.12 L 151.33 195.09 C 151.40 193.83 150.44 192.75 149.17 192.67 C 147.91 192.60 146.83 193.56 146.75 194.83 Z M 146.70 195.87 L 146.65 196.90 C 146.59 198.16 147.56 199.24 148.82 199.30 C 150.08 199.36 151.16 198.39 151.22 197.12 L 151.27 196.10 C 151.33 194.83 150.36 193.76 149.09 193.70 C 147.83 193.64 146.76 194.61 146.70 195.87 Z M 146.66 196.94 L 146.61 198.30 C 146.57 199.56 147.56 200.61 148.81 200.65 C 150.07 200.69 151.12 199.71 151.16 198.45 L 151.21 197.09 C 151.25 195.83 150.26 194.78 149.01 194.74 C 147.75 194.70 146.70 195.68 146.66 196.94 Z M 146.63 198.34 L 146.61 199.58 C 146.59 200.83 147.58 201.86 148.83 201.88 C 150.07 201.90 151.10 200.91 151.12 199.66 L 151.14 198.42 C 151.16 197.17 150.17 196.14 148.93 196.12 C 147.68 196.10 146.65 197.09 146.63 198.34 Z M 146.63 199.62 L 146.63 200.56 C 146.63 201.79 147.63 202.80 148.86 202.80 C 150.09 202.80 151.10 201.80 151.10 200.57 L 151.10 199.63 C 151.10 198.39 150.10 197.39 148.87 197.39 C 147.64 197.39 146.63 198.38 146.63 199.62 Z M 146.65 200.62 L 146.66 201.10 C 146.70 202.33 147.72 203.29 148.94 203.26 C 150.16 203.22 151.12 202.20 151.09 200.98 L 151.08 200.50 C 151.04 199.28 150.02 198.32 148.80 198.35 C 147.58 198.38 146.62 199.40 146.65 200.62 Z M 151.00 201.30 L 151.04 200.99 C 151.19 199.82 150.35 198.75 149.18 198.60 C 148.00 198.46 146.93 199.29 146.79 200.47 L 146.75 200.78 C 146.61 201.95 147.44 203.02 148.61 203.17 C 149.79 203.31 150.86 202.48 151.00 201.30 Z M 150.93 200.82 L 150.98 199.67 C 151.03 198.56 150.17 197.61 149.06 197.56 C 147.95 197.51 147.01 198.37 146.96 199.48 L 146.90 200.64 C 146.85 201.75 147.71 202.69 148.82 202.74 C 149.93 202.79 150.88 201.93 150.93 200.82 Z M 150.87 199.65 L 150.92 198.37 C 150.96 197.32 150.15 196.43 149.10 196.39 C 148.06 196.35 147.17 197.16 147.13 198.21 L 147.07 199.49 C 147.03 200.54 147.84 201.43 148.89 201.47 C 149.94 201.52 150.82 200.70 150.87 199.65 Z M 150.83 198.37 L 150.88 197.34 C 150.92 196.34 150.15 195.49 149.15 195.44 C 148.15 195.40 147.31 196.17 147.26 197.17 L 147.22 198.20 C 147.17 199.20 147.94 200.05 148.94 200.09 C 149.94 200.14 150.79 199.37 150.83 198.37 Z M 150.81 197.34 L 150.85 196.36 C 150.90 195.40 150.16 194.59 149.20 194.54 C 148.24 194.49 147.43 195.23 147.38 196.19 L 147.33 197.17 C 147.29 198.13 148.03 198.94 148.99 198.99 C 149.95 199.04 150.76 198.30 150.81 197.34 Z M 150.79 196.36 L 150.83 195.52 C 150.88 194.59 150.16 193.81 149.24 193.76 C 148.32 193.72 147.54 194.43 147.49 195.35 L 147.45 196.19 C 147.40 197.12 148.11 197.90 149.03 197.95 C 149.96 197.99 150.74 197.28 150.79 196.36 Z"
      fill="black"
      fill-rule="nonzero" /></svg>