<svg xmlns="http://www.w3.org/2000/svg" width="300" height="300" viewBox="0 0 300 300">
<path d="M 128.91 132.36 L 128.78 133.34 C 128.62 134.58 129.48 135.71 130.72 135.88 C 131.95 136.04 133.08 135.18 133.25 133.94 L 133.38 132.96 C 133.55 131.72 132.68 130.59 131.45 130.42 C 130.22 130.26 129.08 131.12 128.91 132.36 Z M 128.70 133.36 L 128.58 134.35 C 128.42 135.63 129.33 136.79 130.61 136.95 C 131.89 137.11 133.06 136.20 133.21 134.92 L 133.33 133.93 C 133.49 132.65 132.58 131.48 131.30 131.33 C 130.02 131.17 128.86 132.08 128.70 133.36 Z M 128.49 134.40 L 128.39 135.39 C 128.26 136.72 129.23 137.90 130.56 138.04 C 131.89 138.17 133.07 137.20 133.20 135.87 L 133.30 134.87 C 133.43 133.54 132.46 132.36 131.13 132.23 C 129.80 132.10 128.62 133.07 128.49 134.40 Z M 128.33 135.47 L 128.27 136.42 C 128.18 137.78 129.21 138.96 130.57 139.05 C 131.94 139.14 133.11 138.11 133.20 136.74 L 133.26 135.79 C 133.35 134.43 132.32 133.25 130.96 133.17 C 129.60 133.08 128.42 134.11 128.33 135.47 Z M 128.25 136.50 L 128.22 137.43 C 128.17 138.81 129.25 139.96 130.62 140.00 C 131.99 140.05 133.14 138.97 133.19 137.60 L 133.22 136.67 C 133.27 135.30 132.19 134.15 130.82 134.10 C 129.45 134.05 128.30 135.13 128.25 136.50 Z M 128.22 137.49 L 128.21 138.48 C 128.19 139.85 129.29 140.97 130.66 140.99 C 132.03 141.01 133.15 139.91 133.17 138.54 L 133.18 137.55 C 133.20 136.18 132.11 135.06 130.74 135.04 C 129.37 135.02 128.24 136.12 128.22 137.49 Z M 128.22 138.51 L 128.21 139.59 C 128.21 140.95 129.31 142.07 130.68 142.07 C 132.05 142.07 133.16 140.97 133.16 139.60 L 133.16 138.52 C 133.17 137.15 132.06 136.04 130.70 136.04 C 129.33 136.03 128.22 137.14 128.22 138.51 Z M 128.22 139.59 L 128.22 140.60 C 128.22 141.96 129.32 143.07 130.69 143.07 C 132.05 143.07 133.16 141.96 133.16 140.60 L 133.16 139.59 C 133.16 138.23 132.05 137.12 130.69 137.12 C 129.32 137.12 128.22 138.23 128.22 139.59 Z M 128.22 140.60 L 128.22 141.60 C 128.22 142.97 129.33 144.07 130.69 144.07 C 132.05 144.07 133.15 142.97 133.15 141.60 L 133.15 140.60 C 133.15 139.24 132.05 138.14 130.69 138.14 C 129.33 138.14 128.22 139.24 128.22 140.60 Z M 128.23 141.60 L 128.23 142.63 C 128.23 143.99 129.33 145.09 130.69 145.09 C 132.04 145.09 133.15 143.99 133.15 142.63 L 133.15 141.60 C 133.15 140.25 132.04 139.15 130.69 139.15 C 129.33 139.15 128.23 140.25 128.23 141.60 Z M 128.24 142.63 L 128.24 143.65 C 128.24 145.01 129.33 146.11 130.69 146.11 C 132.04 146.11 133.14 145.01 133.14 143.65 L 133.14 142.63 C 133.14 141.28 132.04 140.18 130.69 140.18 C 129.33 140.18 128.24 141.28 128.24 142.63 Z M 128.24 143.65 L 128.24 144.64 C 128.24 145.99 129.34 147.08 130.69 147.08 C 132.04 147.08 133.13 145.99 133.13 144.64 L 133.13 143.65 C 133.13 142.30 132.04 141.21 130.69 141.21 C 129.34 141.21 128.24 142.30 128.24 143.65 Z M 128.25 144.64 L 128.25 145.72 C 128.25 147.07 129.34 148.16 130.69 148.16 C 132.03 148.16 133.12 147.07 133.12 145.72 L 133.12 144.64 C 133.12 143.29 132.03 142.20 130.69 142.20 C 129.34 142.20 128.25 143.29 128.25 144.64 Z M 128.26 145.72 L 128.26 146.74 C 128.26 148.08 129.35 149.16 130.69 149.16 C 132.03 149.16 133.11 148.08 133.11 146.74 L 133.11 145.72 C 133.11 144.38 132.03 143.30 130.69 143.30 C 129.35 143.30 128.26 144.38 128.26 145.72 Z M 128.28 146.74 L 128.28 147.70 C 128.28 149.03 129.36 150.11 130.69 150.11 C 132.02 150.11 133.10 149.03 133.10 147.70 L 133.10 146.74 C 133.10 145.41 132.02 144.33 130.69 144.33 C 129.36 144.33 128.28 145.41 128.28 146.74 Z M 128.29 147.70 L 128.29 148.63 C 128.29 149.96 129.36 151.03 130.69 151.03 C 132.01 151.03 133.08 149.96 133.08 148.63 L 133.08 147.70 C 133.08 146.38 132.01 145.30 130.69 145.30 C 129.36 145.30 128.29 146.38 128.29 147.70 Z M 128.30 148.63 L 128.30 149.62 C 128.30 150.94 129.37 152.01 130.69 152.01 C 132.00 152.01 133.07 150.94 133.07 149.62 L 133.07 148.63 C 133.07 147.32 132.00 146.25 130.69 146.25 C 129.37 146.25 128.30 147.32 128.30 148.63 Z M 128.31 149.62 L 128.31 150.61 C 128.31 151.93 129.38 152.99 130.69 152.99 C 132.00 152.99 133.06 151.93 133.06 150.61 L 133.06 149.62 C 133.06 148.31 132.00 147.24 130.69 147.24 C 129.38 147.24 128.31 148.31 128.31 149.62 Z M 128.32 150.61 L 128.32 151.62 C 128.32 152.92 129.38 153.98 130.69 153.98 C 131.99 153.98 133.05 152.92 133.05 151.62 L 133.05 150.61 C 133.05 149.31 131.99 148.25 130.69 148.25 C 129.38 148.25 128.32 149.31 128.32 150.61 Z M 128.33 151.62 L 128.33 152.63 C 128.33 153.93 129.39 154.98 130.69 154.98 C 131.99 154.98 133.04 153.93 133.04 152.63 L 133.04 151.62 C 133.04 150.32 131.99 149.26 130.69 149.26 C 129.39 149.26 128.33 150.32 128.33 151.62 Z M 128.34 152.63 L 128.34 153.61 C 128.34 154.90 129.39 155.95 130.69 155.95 C 131.98 155.95 133.03 154.90 133.03 153.61 L 133.03 152.63 C 133.03 151.33 131.98 150.28 130.69 150.28 C 129.39 150.28 128.34 151.33 128.34 152.63 Z M 128.35 153.61 L 128.35 154.60 C 128.35 155.89 129.40 156.94 130.69 156.94 C 131.98 156.94 133.02 155.89 133.02 154.60 L 133.02 153.61 C 133.02 152.32 131.98 151.27 130.69 151.27 C 129.40 151.27 128.35 152.32 128.35 153.61 Z M 128.37 154.60 L 128.37 155.62 C 128.37 156.90 129.41 157.94 130.69 157.94 C 131.97 157.94 133.01 156.90 133.01 155.62 L 133.01 154.60 C 133.01 153.32 131.97 152.28 130.69 152.28 C 129.41 152.28 128.37 153.32 128.37 154.60 Z M 128.38 155.62 L 128.38 156.63 C 128.38 157.91 129.41 158.94 130.69 158.94 C 131.96 158.94 133.00 157.91 133.00 156.63 L 133.00 155.62 C 133.00 154.34 131.96 153.31 130.69 153.31 C 129.41 153.31 128.38 154.34 128.38 155.62 Z M 128.39 156.63 L 128.39 157.63 C 128.39 158.90 129.42 159.93 130.69 159.93 C 131.96 159.93 132.99 158.90 132.99 157.63 L 132.98 156.63 C 132.98 155.36 131.95 154.33 130.69 154.33 C 129.42 154.33 128.39 155.36 128.39 156.63 Z M 128.40 157.64 L 128.41 158.64 C 128.41 159.90 129.44 160.92 130.70 160.92 C 131.96 160.91 132.98 159.89 132.98 158.63 L 132.97 157.62 C 132.97 156.36 131.94 155.34 130.68 155.35 C 129.42 155.35 128.40 156.38 128.40 157.64 Z M 128.42 158.65 L 128.43 159.65 C 128.44 160.91 129.46 161.92 130.72 161.91 C 131.97 161.90 132.98 160.87 132.97 159.62 L 132.96 158.61 C 132.95 157.36 131.93 156.35 130.67 156.36 C 129.42 156.37 128.41 157.40 128.42 158.65 Z M 128.44 159.67 L 128.46 160.67 C 128.48 161.92 129.50 162.91 130.75 162.89 C 132.00 162.87 132.99 161.85 132.97 160.60 L 132.96 159.60 C 132.94 158.35 131.91 157.36 130.66 157.38 C 129.42 157.40 128.42 158.42 128.44 159.67 Z M 128.47 160.69 L 128.50 161.70 C 128.53 162.94 129.55 163.92 130.79 163.89 C 132.03 163.86 133.01 162.83 132.98 161.59 L 132.96 160.58 C 132.93 159.34 131.90 158.36 130.66 158.39 C 129.42 158.42 128.44 159.45 128.47 160.69 Z M 128.51 161.71 L 128.54 162.71 C 128.57 163.95 129.60 164.92 130.83 164.88 C 132.06 164.85 133.03 163.82 133.00 162.59 L 132.97 161.58 C 132.94 160.35 131.91 159.38 130.68 159.42 C 129.45 159.45 128.48 160.48 128.51 161.71 Z M 128.55 162.71 L 128.58 163.71 C 128.61 164.93 129.63 165.89 130.86 165.86 C 132.08 165.83 133.05 164.81 133.01 163.58 L 132.98 162.59 C 132.95 161.37 131.93 160.40 130.71 160.44 C 129.48 160.47 128.52 161.49 128.55 162.71 Z M 128.60 163.69 L 128.62 164.68 C 128.64 165.90 129.65 166.86 130.87 166.83 C 132.08 166.80 133.05 165.80 133.02 164.58 L 133.00 163.59 C 132.97 162.38 131.96 161.42 130.75 161.44 C 129.53 161.47 128.57 162.48 128.60 163.69 Z M 128.63 164.66 L 128.65 165.66 C 128.66 166.86 129.65 167.83 130.86 167.81 C 132.07 167.80 133.04 166.80 133.02 165.60 L 133.01 164.60 C 132.99 163.39 132.00 162.43 130.79 162.44 C 129.58 162.46 128.62 163.45 128.63 164.66 Z M 128.66 165.64 L 128.67 166.64 C 128.68 167.83 129.65 168.80 130.85 168.79 C 132.05 168.78 133.02 167.81 133.01 166.61 L 133.00 165.61 C 133.00 164.41 132.02 163.45 130.82 163.45 C 129.62 163.46 128.65 164.44 128.66 165.64 Z M 128.68 166.63 L 128.68 167.63 C 128.69 168.82 129.65 169.78 130.85 169.78 C 132.04 169.78 133.00 168.81 133.00 167.62 L 133.00 166.62 C 132.99 165.42 132.03 164.46 130.83 164.46 C 129.64 164.47 128.68 165.43 128.68 166.63 Z M 128.70 167.62 L 128.70 168.64 C 128.70 169.82 129.66 170.78 130.84 170.78 C 132.02 170.78 132.98 169.82 132.98 168.64 L 132.98 167.62 C 132.98 166.44 132.02 165.48 130.84 165.48 C 129.66 165.48 128.70 166.44 128.70 167.62 Z M 128.71 168.64 L 128.71 169.66 C 128.71 170.84 129.67 171.79 130.84 171.79 C 132.02 171.79 132.97 170.84 132.97 169.66 L 132.97 168.64 C 132.97 167.46 132.02 166.51 130.84 166.51 C 129.67 166.51 128.71 167.46 128.71 168.64 Z M 128.73 169.66 L 128.73 170.68 C 128.73 171.85 129.68 172.79 130.84 172.79 C 132.01 172.79 132.95 171.85 132.95 170.68 L 132.95 169.66 C 132.95 168.50 132.01 167.55 130.84 167.55 C 129.68 167.55 128.73 168.50 128.73 169.66 Z M 128.74 170.68 L 128.74 171.67 C 128.74 172.83 129.68 173.77 130.84 173.77 C 132.00 173.77 132.94 172.83 132.94 171.67 L 132.94 170.68 C 132.94 169.52 132.00 168.59 130.84 168.59 C 129.68 168.59 128.74 169.52 128.74 170.68 Z M 128.76 171.67 L 128.76 172.63 C 128.76 173.78 129.69 174.71 130.84 174.71 C 131.99 174.71 132.92 173.78 132.92 172.63 L 132.92 171.67 C 132.92 170.52 131.99 169.59 130.84 169.59 C 129.69 169.59 128.76 170.52 128.76 171.67 Z M 128.78 172.63 L 128.78 173.59 C 128.78 174.73 129.70 175.66 130.84 175.66 C 131.98 175.66 132.91 174.73 132.91 173.59 L 132.91 172.63 C 132.91 171.49 131.98 170.56 130.84 170.56 C 129.70 170.56 128.78 171.49 128.78 172.63 Z M 128.79 173.59 L 128.79 174.56 C 128.79 175.69 129.71 176.61 130.84 176.61 C 131.97 176.61 132.89 175.69 132.89 174.56 L 132.89 173.59 C 132.89 172.46 131.97 171.54 130.84 171.54 C 129.71 171.54 128.79 172.46 128.79 173.59 Z M 128.81 174.56 L 128.81 175.60 C 128.81 176.72 129.72 177.63 130.84 177.63 C 131.96 177.63 132.87 176.72 132.87 175.60 L 132.87 174.56 C 132.87 173.44 131.96 172.53 130.84 172.53 C 129.72 172.53 128.81 173.44 128.81 174.56 Z M 128.82 175.60 L 128.82 176.57 C 128.82 177.69 129.73 178.59 130.84 178.59 C 131.96 178.59 132.86 177.69 132.86 176.57 L 132.86 175.60 C 132.86 174.48 131.96 173.58 130.84 173.58 C 129.73 173.58 128.82 174.48 128.82 175.60 Z M 128.84 176.57 L 128.84 177.55 C 128.84 178.66 129.73 179.56 130.84 179.56 C 131.95 179.56 132.85 178.66 132.85 177.55 L 132.85 176.57 C 132.85 175.47 131.95 174.57 130.84 174.57 C 129.73 174.57 128.84 175.47 128.84 176.57 Z M 128.85 177.55 L 128.85 178.58 C 128.85 179.68 129.74 180.57 130.84 180.57 C 131.94 180.57 132.83 179.68 132.83 178.58 L 132.83 177.55 C 132.83 176.45 131.94 175.56 130.84 175.56 C 129.74 175.56 128.85 176.45 128.85 177.55 Z M 128.86 178.58 L 128.86 179.61 C 128.86 180.71 129.75 181.59 130.84 181.59 C 131.93 181.59 132.82 180.71 132.82 179.61 L 132.82 178.58 C 132.82 177.48 131.93 176.60 130.84 176.60 C 129.75 176.60 128.86 177.48 128.86 178.58 Z M 128.88 179.61 L 128.88 180.70 C 128.88 181.78 129.76 182.66 130.84 182.66 C 131.93 182.66 132.81 181.78 132.81 180.70 L 132.81 179.61 C 132.81 178.53 131.93 177.65 130.84 177.65 C 129.76 177.65 128.88 178.53 128.88 179.61 Z M 128.90 180.71 L 128.91 182.12 C 128.92 183.19 129.79 184.06 130.86 184.05 C 131.93 184.05 132.79 183.17 132.79 182.10 L 132.78 180.69 C 132.77 179.62 131.90 178.76 130.83 178.76 C 129.76 178.77 128.90 179.64 128.90 180.71 Z M 128.95 182.20 L 128.99 183.07 C 129.04 184.12 129.93 184.93 130.98 184.88 C 132.03 184.83 132.84 183.94 132.79 182.89 L 132.75 182.02 C 132.70 180.98 131.81 180.17 130.76 180.22 C 129.71 180.26 128.90 181.16 128.95 182.20 Z M 131.24 184.82 L 131.33 184.80 C 132.34 184.61 133.01 183.63 132.82 182.62 C 132.63 181.61 131.65 180.94 130.64 181.13 L 130.54 181.15 C 129.53 181.34 128.87 182.32 129.06 183.33 C 129.25 184.34 130.22 185.01 131.24 184.82 Z M 132.78 183.30 L 132.88 182.76 C 133.06 181.77 132.41 180.82 131.42 180.63 C 130.42 180.45 129.47 181.11 129.29 182.10 L 129.19 182.64 C 129.01 183.63 129.66 184.58 130.65 184.76 C 131.64 184.94 132.60 184.29 132.78 183.30 Z M 132.85 182.67 L 132.97 181.79 C 133.11 180.82 132.43 179.92 131.46 179.78 C 130.48 179.64 129.58 180.32 129.44 181.30 L 129.32 182.18 C 129.18 183.15 129.86 184.05 130.84 184.19 C 131.81 184.33 132.71 183.65 132.85 182.67 Z M 132.93 181.76 L 133.08 180.63 C 133.19 179.67 132.52 178.80 131.57 178.69 C 130.61 178.57 129.75 179.24 129.63 180.19 L 129.48 181.33 C 129.36 182.28 130.04 183.15 130.99 183.27 C 131.95 183.39 132.81 182.71 132.93 181.76 Z M 133.03 180.61 L 133.19 179.32 C 133.30 178.39 132.63 177.55 131.70 177.44 C 130.77 177.33 129.93 177.99 129.82 178.92 L 129.67 180.21 C 129.56 181.14 130.22 181.98 131.15 182.09 C 132.08 182.20 132.92 181.54 133.03 180.61 Z M 133.15 179.31 L 133.26 178.39 C 133.37 177.48 132.71 176.66 131.80 176.55 C 130.89 176.45 130.07 177.10 129.96 178.01 L 129.86 178.93 C 129.75 179.84 130.40 180.66 131.31 180.77 C 132.22 180.87 133.05 180.22 133.15 179.31 Z"
      fill="black"
      fill-rule="nonzero" /><path d="M 135.77 118.94 L 136.79 118.94 C 138.14 118.94 139.23 117.85 139.23 116.50 C 139.23 115.15 138.14 114.06 136.79 114.06 L 135.77 114.07 C 134.42 114.07 133.33 115.16 133.33 116.50 C 133.33 117.85 134.42 118.94 135.77 118.94 Z M 136.80 118.94 L 137.82 118.94 C 139.17 118.94 140.26 117.85 140.26 116.50 C 140.25 115.15 139.16 114.05 137.81 114.06 L 136.79 114.06 C 135.44 114.06 134.35 115.15 134.35 116.50 C 134.35 117.85 135.45 118.95 136.80 118.94 Z M 137.82 118.95 L 138.83 118.95 C 140.18 118.94 141.27 117.84 141.27 116.48 C 141.26 115.13 140.16 114.04 138.81 114.04 L 137.80 114.05 C 136.45 114.05 135.35 115.16 135.36 116.51 C 135.37 117.86 136.47 118.96 137.82 118.95 Z M 138.84 118.96 L 139.82 118.95 C 141.18 118.93 142.27 117.82 142.26 116.46 C 142.25 115.11 141.14 114.01 139.78 114.03 L 138.79 114.03 C 137.44 114.05 136.34 115.16 136.36 116.52 C 136.37 117.88 137.48 118.97 138.84 118.96 Z M 139.84 118.95 L 140.81 118.94 C 142.17 118.92 143.26 117.80 143.24 116.43 C 143.22 115.07 142.10 113.98 140.74 114.00 L 139.76 114.02 C 138.40 114.04 137.31 115.16 137.33 116.52 C 137.35 117.89 138.47 118.97 139.84 118.95 Z M 140.83 118.94 L 141.84 118.92 C 143.20 118.89 144.28 117.76 144.25 116.40 C 144.22 115.03 143.10 113.95 141.73 113.98 L 140.72 114.00 C 139.36 114.03 138.27 115.16 138.30 116.53 C 138.33 117.89 139.46 118.97 140.83 118.94 Z M 141.85 118.92 L 142.84 118.89 C 144.20 118.86 145.28 117.72 145.24 116.36 C 145.21 115.00 144.08 113.92 142.71 113.96 L 141.72 113.98 C 140.36 114.02 139.28 115.15 139.32 116.51 C 139.35 117.88 140.49 118.95 141.85 118.92 Z M 142.84 118.89 L 143.83 118.87 C 145.19 118.83 146.27 117.70 146.23 116.33 C 146.20 114.97 145.06 113.90 143.70 113.93 L 142.71 113.96 C 141.35 113.99 140.27 115.13 140.31 116.49 C 140.34 117.85 141.48 118.93 142.84 118.89 Z M 143.82 118.86 L 144.82 118.84 C 146.18 118.81 147.26 117.68 147.23 116.32 C 147.20 114.96 146.07 113.88 144.71 113.91 L 143.71 113.93 C 142.35 113.96 141.27 115.09 141.30 116.45 C 141.33 117.81 142.46 118.89 143.82 118.86 Z M 144.80 118.84 L 145.81 118.83 C 147.17 118.81 148.26 117.69 148.24 116.32 C 148.22 114.96 147.10 113.88 145.74 113.90 L 144.73 113.91 C 143.37 113.93 142.28 115.05 142.30 116.41 C 142.32 117.77 143.44 118.86 144.80 118.84 Z M 145.80 118.82 L 146.82 118.81 C 148.18 118.80 149.27 117.69 149.26 116.33 C 149.25 114.97 148.13 113.88 146.78 113.89 L 145.75 113.90 C 144.39 113.91 143.30 115.02 143.31 116.38 C 143.32 117.74 144.44 118.83 145.80 118.82 Z M 146.81 118.81 L 147.82 118.81 C 149.18 118.80 150.28 117.70 150.27 116.34 C 150.26 114.98 149.16 113.88 147.80 113.89 L 146.79 113.89 C 145.43 113.90 144.33 115.00 144.34 116.36 C 144.34 117.72 145.45 118.82 146.81 118.81 Z M 147.81 118.80 L 148.80 118.80 C 150.16 118.80 151.26 117.70 151.25 116.34 C 151.25 114.99 150.15 113.89 148.80 113.89 L 147.81 113.89 C 146.45 113.89 145.35 115.00 145.36 116.35 C 145.36 117.71 146.46 118.81 147.81 118.80 Z M 148.80 118.80 L 149.80 118.80 C 151.16 118.80 152.26 117.70 152.26 116.35 C 152.26 114.99 151.16 113.89 149.80 113.90 L 148.80 113.90 C 147.44 113.90 146.35 114.99 146.35 116.35 C 146.35 117.70 147.44 118.80 148.80 118.80 Z M 149.80 118.80 L 150.86 118.80 C 152.21 118.80 153.31 117.70 153.31 116.35 C 153.31 114.99 152.21 113.90 150.86 113.90 L 149.80 113.90 C 148.45 113.90 147.36 114.99 147.36 116.35 C 147.36 117.70 148.45 118.80 149.80 118.80 Z M 150.86 118.79 L 151.85 118.79 C 153.20 118.79 154.29 117.70 154.29 116.35 C 154.29 115.00 153.20 113.90 151.85 113.90 L 150.86 113.90 C 149.51 113.90 148.41 115.00 148.41 116.35 C 148.41 117.70 149.51 118.79 150.86 118.79 Z M 151.85 118.79 L 152.79 118.79 C 154.14 118.79 155.23 117.70 155.23 116.35 C 155.23 115.00 154.14 113.91 152.79 113.91 L 151.85 113.91 C 150.50 113.91 149.41 115.00 149.41 116.35 C 149.41 117.70 150.50 118.79 151.85 118.79 Z M 152.79 118.79 L 153.74 118.79 C 155.09 118.79 156.18 117.70 156.18 116.35 C 156.19 115.00 155.10 113.91 153.75 113.91 L 152.80 113.91 C 151.45 113.91 150.36 115.00 150.35 116.34 C 150.35 117.69 151.44 118.78 152.79 118.79 Z M 153.71 118.79 L 154.68 118.80 C 156.02 118.82 157.13 117.75 157.15 116.40 C 157.18 115.06 156.10 113.95 154.76 113.93 L 153.79 113.91 C 152.44 113.89 151.33 114.96 151.31 116.31 C 151.29 117.66 152.36 118.76 153.71 118.79 Z M 154.59 118.80 L 155.59 118.85 C 156.93 118.92 158.08 117.89 158.15 116.54 C 158.22 115.20 157.19 114.05 155.84 113.98 L 154.84 113.93 C 153.50 113.86 152.35 114.89 152.28 116.24 C 152.21 117.58 153.24 118.73 154.59 118.80 Z M 155.46 118.84 L 156.49 118.95 C 157.83 119.09 159.03 118.11 159.17 116.77 C 159.31 115.43 158.34 114.24 157.00 114.10 L 155.97 113.99 C 154.63 113.85 153.43 114.83 153.29 116.17 C 153.15 117.50 154.12 118.70 155.46 118.84 Z M 156.37 118.93 L 157.33 119.08 C 158.66 119.29 159.90 118.37 160.11 117.04 C 160.31 115.71 159.40 114.46 158.07 114.26 L 157.12 114.11 C 155.79 113.91 154.54 114.82 154.33 116.15 C 154.13 117.48 155.04 118.73 156.37 118.93 Z M 157.24 119.07 L 158.22 119.26 C 159.55 119.51 160.83 118.65 161.08 117.32 C 161.34 116.00 160.47 114.72 159.15 114.47 L 158.16 114.27 C 156.84 114.02 155.56 114.88 155.30 116.21 C 155.05 117.53 155.91 118.81 157.24 119.07 Z M 158.15 119.24 L 159.15 119.47 C 160.46 119.77 161.77 118.94 162.07 117.63 C 162.37 116.31 161.54 115.00 160.23 114.71 L 159.23 114.48 C 157.91 114.18 156.60 115.01 156.31 116.32 C 156.01 117.64 156.83 118.94 158.15 119.24 Z M 159.08 119.45 L 160.07 119.71 C 161.37 120.04 162.70 119.26 163.04 117.95 C 163.38 116.64 162.59 115.31 161.28 114.97 L 160.29 114.72 C 158.99 114.39 157.65 115.17 157.32 116.48 C 156.98 117.79 157.77 119.12 159.08 119.45 Z M 159.99 119.69 L 160.98 119.98 C 162.28 120.36 163.64 119.61 164.02 118.31 C 164.39 117.01 163.64 115.65 162.34 115.27 L 161.35 114.99 C 160.05 114.61 158.69 115.36 158.32 116.66 C 157.94 117.96 158.69 119.32 159.99 119.69 Z M 160.89 119.96 L 161.84 120.28 C 163.13 120.71 164.52 120.01 164.95 118.72 C 165.38 117.43 164.68 116.03 163.39 115.61 L 162.44 115.29 C 161.15 114.86 159.75 115.56 159.33 116.85 C 158.90 118.14 159.60 119.54 160.89 119.96 Z M 161.72 120.25 L 162.64 120.60 C 163.91 121.10 165.35 120.46 165.84 119.19 C 166.33 117.92 165.70 116.48 164.43 115.99 L 163.51 115.64 C 162.24 115.14 160.80 115.77 160.31 117.05 C 159.82 118.32 160.45 119.75 161.72 120.25 Z M 162.50 120.56 L 163.40 120.97 C 164.64 121.54 166.12 120.99 166.69 119.74 C 167.26 118.50 166.71 117.02 165.46 116.45 L 164.57 116.04 C 163.32 115.47 161.85 116.02 161.28 117.26 C 160.70 118.51 161.25 119.98 162.50 120.56 Z M 163.23 120.89 L 164.15 121.40 C 165.35 122.06 166.87 121.63 167.53 120.42 C 168.20 119.22 167.76 117.70 166.56 117.04 L 165.63 116.53 C 164.43 115.86 162.91 116.30 162.25 117.50 C 161.58 118.71 162.02 120.22 163.23 120.89 Z M 163.93 121.27 L 164.77 121.85 C 165.90 122.64 167.46 122.35 168.24 121.22 C 169.03 120.08 168.75 118.53 167.61 117.74 L 166.77 117.16 C 165.64 116.38 164.08 116.66 163.30 117.80 C 162.51 118.93 162.80 120.49 163.93 121.27 Z M 164.50 121.64 L 165.20 122.29 C 166.22 123.23 167.81 123.16 168.74 122.14 C 169.68 121.12 169.61 119.54 168.59 118.60 L 167.88 117.95 C 166.87 117.02 165.28 117.09 164.35 118.10 C 163.41 119.12 163.48 120.70 164.50 121.64 Z M 164.87 121.93 L 165.43 122.70 C 166.25 123.82 167.82 124.06 168.94 123.25 C 170.06 122.43 170.31 120.86 169.49 119.74 L 168.93 118.97 C 168.11 117.85 166.54 117.60 165.42 118.42 C 164.30 119.24 164.05 120.81 164.87 121.93 Z M 165.15 122.20 L 165.53 123.11 C 166.07 124.39 167.55 124.98 168.83 124.44 C 170.10 123.90 170.70 122.43 170.16 121.15 L 169.78 120.24 C 169.24 118.96 167.76 118.36 166.48 118.91 C 165.20 119.45 164.61 120.92 165.15 122.20 Z M 165.39 122.68 L 165.60 123.65 C 165.91 125.00 167.25 125.86 168.61 125.56 C 169.97 125.25 170.82 123.91 170.52 122.55 L 170.30 121.58 C 170.00 120.22 168.66 119.37 167.30 119.67 C 165.94 119.97 165.08 121.32 165.39 122.68 Z M 165.55 123.37 L 165.66 124.38 C 165.82 125.76 167.06 126.76 168.45 126.61 C 169.84 126.45 170.84 125.21 170.68 123.82 L 170.57 122.82 C 170.42 121.43 169.17 120.43 167.78 120.59 C 166.40 120.74 165.40 121.99 165.55 123.37 Z M 165.65 124.23 L 165.70 125.23 C 165.77 126.62 166.96 127.69 168.36 127.62 C 169.75 127.55 170.82 126.36 170.75 124.97 L 170.70 123.97 C 170.62 122.57 169.44 121.50 168.04 121.58 C 166.65 121.65 165.58 122.84 165.65 124.23 Z M 165.70 125.13 L 165.71 126.14 C 165.73 127.53 166.87 128.65 168.27 128.63 C 169.66 128.61 170.78 127.47 170.76 126.07 L 170.75 125.07 C 170.73 123.67 169.59 122.56 168.19 122.57 C 166.80 122.59 165.68 123.73 165.70 125.13 Z M 165.71 126.07 L 165.70 127.06 C 165.67 128.46 166.79 129.61 168.18 129.63 C 169.58 129.65 170.73 128.53 170.75 127.14 L 170.76 126.14 C 170.78 124.75 169.67 123.60 168.27 123.58 C 166.88 123.56 165.73 124.67 165.71 126.07 Z M 165.70 127.01 L 165.66 127.99 C 165.62 129.38 166.71 130.55 168.10 130.60 C 169.50 130.64 170.67 129.55 170.72 128.16 L 170.75 127.18 C 170.79 125.79 169.70 124.62 168.31 124.57 C 166.91 124.53 165.74 125.62 165.70 127.01 Z M 165.67 127.93 L 165.61 128.91 C 165.53 130.30 166.60 131.50 167.99 131.58 C 169.38 131.66 170.58 130.59 170.66 129.20 L 170.71 128.22 C 170.79 126.82 169.73 125.63 168.33 125.55 C 166.94 125.47 165.75 126.54 165.67 127.93 Z M 165.62 128.84 L 165.53 129.86 C 165.41 131.25 166.44 132.47 167.83 132.59 C 169.22 132.71 170.45 131.68 170.56 130.29 L 170.65 129.27 C 170.77 127.88 169.74 126.65 168.35 126.53 C 166.96 126.42 165.73 127.45 165.62 128.84 Z M 165.53 129.79 L 165.43 130.74 C 165.27 132.13 166.26 133.38 167.65 133.54 C 169.04 133.70 170.29 132.70 170.45 131.31 L 170.56 130.36 C 170.72 128.97 169.72 127.72 168.33 127.56 C 166.95 127.41 165.69 128.40 165.53 129.79 Z M 165.43 130.69 L 165.30 131.65 C 165.12 133.03 166.09 134.31 167.47 134.49 C 168.85 134.68 170.13 133.71 170.31 132.33 L 170.44 131.37 C 170.63 129.98 169.66 128.71 168.28 128.52 C 166.89 128.34 165.62 129.31 165.43 130.69 Z M 165.31 131.61 L 165.16 132.62 C 164.95 134.00 165.90 135.29 167.28 135.49 C 168.66 135.70 169.95 134.75 170.16 133.37 L 170.31 132.36 C 170.51 130.98 169.56 129.69 168.18 129.49 C 166.80 129.28 165.51 130.23 165.31 131.61 Z M 165.16 132.60 L 164.99 133.64 C 164.78 135.02 165.72 136.31 167.09 136.53 C 168.47 136.75 169.77 135.81 169.99 134.43 L 170.15 133.39 C 170.37 132.01 169.43 130.72 168.06 130.50 C 166.68 130.28 165.38 131.22 165.16 132.60 Z M 165.00 133.63 L 164.84 134.59 C 164.61 135.97 165.54 137.27 166.92 137.50 C 168.30 137.73 169.60 136.79 169.83 135.41 L 169.99 134.45 C 170.21 133.07 169.28 131.77 167.90 131.54 C 166.52 131.32 165.22 132.25 165.00 133.63 Z M 164.84 134.59 L 164.68 135.55 C 164.45 136.93 165.38 138.23 166.76 138.46 C 168.14 138.69 169.44 137.76 169.67 136.38 L 169.83 135.42 C 170.05 134.04 169.12 132.74 167.75 132.51 C 166.37 132.28 165.07 133.21 164.84 134.59 Z M 164.68 135.56 L 164.52 136.54 C 164.29 137.92 165.23 139.22 166.61 139.45 C 167.98 139.67 169.28 138.74 169.51 137.36 L 169.67 136.37 C 169.89 134.99 168.96 133.69 167.58 133.47 C 166.20 133.25 164.90 134.18 164.68 135.56 Z M 164.52 136.56 L 164.36 137.57 C 164.14 138.95 165.08 140.25 166.46 140.46 C 167.84 140.68 169.13 139.74 169.35 138.36 L 169.51 137.34 C 169.73 135.96 168.78 134.67 167.40 134.45 C 166.03 134.24 164.73 135.18 164.52 136.56 Z M 164.35 137.59 L 164.20 138.61 C 164.00 139.99 164.95 141.28 166.33 141.48 C 167.71 141.68 169.00 140.73 169.20 139.35 L 169.35 138.34 C 169.56 136.95 168.61 135.67 167.22 135.46 C 165.84 135.26 164.56 136.21 164.35 137.59 Z M 164.20 138.63 L 164.07 139.58 C 163.88 140.97 164.84 142.24 166.23 142.43 C 167.61 142.62 168.89 141.66 169.08 140.27 L 169.21 139.32 C 169.40 137.94 168.43 136.67 167.05 136.47 C 165.67 136.28 164.39 137.25 164.20 138.63 Z M 164.06 139.61 L 163.94 140.58 C 163.76 141.96 164.74 143.23 166.12 143.41 C 167.51 143.59 168.78 142.61 168.95 141.22 L 169.08 140.25 C 169.26 138.87 168.28 137.60 166.89 137.42 C 165.51 137.24 164.24 138.22 164.06 139.61 Z M 163.94 140.60 L 163.82 141.60 C 163.65 142.98 164.64 144.24 166.03 144.41 C 167.41 144.57 168.67 143.59 168.84 142.20 L 168.96 141.20 C 169.12 139.82 168.13 138.56 166.75 138.39 C 165.36 138.23 164.10 139.22 163.94 140.60 Z M 163.81 141.62 L 163.70 142.64 C 163.55 144.03 164.55 145.28 165.93 145.43 C 167.32 145.59 168.57 144.59 168.73 143.20 L 168.84 142.18 C 168.99 140.79 167.99 139.54 166.61 139.39 C 165.22 139.23 163.97 140.23 163.81 141.62 Z M 163.70 142.66 L 163.59 143.69 C 163.45 145.08 164.46 146.32 165.85 146.47 C 167.24 146.61 168.48 145.60 168.62 144.21 L 168.73 143.18 C 168.87 141.79 167.86 140.55 166.47 140.40 C 165.08 140.26 163.84 141.27 163.70 142.66 Z M 163.59 143.71 L 163.50 144.69 C 163.36 146.08 164.38 147.31 165.77 147.44 C 167.16 147.58 168.40 146.56 168.53 145.17 L 168.62 144.19 C 168.76 142.80 167.74 141.57 166.35 141.44 C 164.96 141.30 163.72 142.32 163.59 143.71 Z M 163.50 144.70 L 163.41 145.69 C 163.28 147.08 164.31 148.31 165.70 148.44 C 167.09 148.56 168.32 147.53 168.44 146.14 L 168.53 145.15 C 168.66 143.76 167.63 142.53 166.24 142.41 C 164.85 142.29 163.62 143.31 163.50 144.70 Z M 163.41 145.71 L 163.32 146.71 C 163.21 148.10 164.24 149.32 165.63 149.44 C 167.02 149.55 168.24 148.52 168.36 147.13 L 168.44 146.13 C 168.56 144.74 167.53 143.52 166.14 143.40 C 164.75 143.28 163.52 144.32 163.41 145.71 Z M 163.32 146.72 L 163.24 147.73 C 163.14 149.12 164.18 150.34 165.57 150.44 C 166.96 150.55 168.17 149.51 168.28 148.12 L 168.36 147.12 C 168.47 145.72 167.43 144.51 166.04 144.40 C 164.65 144.29 163.43 145.33 163.32 146.72 Z M 163.24 147.74 L 163.17 148.75 C 163.07 150.14 164.11 151.35 165.51 151.45 C 166.90 151.55 168.11 150.51 168.21 149.12 L 168.28 148.11 C 168.38 146.72 167.34 145.51 165.95 145.41 C 164.56 145.30 163.35 146.35 163.24 147.74 Z M 163.17 148.76 L 163.10 149.76 C 163.01 151.15 164.06 152.36 165.45 152.45 C 166.84 152.55 168.05 151.50 168.14 150.11 L 168.21 149.11 C 168.30 147.71 167.25 146.51 165.86 146.41 C 164.47 146.32 163.27 147.37 163.17 148.76 Z M 163.10 149.77 L 163.04 150.77 C 162.95 152.16 164.01 153.36 165.40 153.44 C 166.79 153.53 167.99 152.48 168.08 151.08 L 168.14 150.09 C 168.23 148.70 167.17 147.50 165.78 147.41 C 164.39 147.33 163.19 148.38 163.10 149.77 Z M 163.04 150.78 L 162.98 151.77 C 162.90 153.16 163.97 154.36 165.36 154.44 C 166.75 154.52 167.94 153.45 168.02 152.06 L 168.08 151.07 C 168.16 149.68 167.09 148.48 165.70 148.40 C 164.31 148.32 163.12 149.39 163.04 150.78 Z M 162.98 151.79 L 162.93 152.79 C 162.86 154.18 163.94 155.36 165.33 155.43 C 166.72 155.50 167.90 154.43 167.97 153.04 L 168.02 152.04 C 168.09 150.65 167.02 149.46 165.63 149.40 C 164.24 149.33 163.05 150.40 162.98 151.79 Z M 162.93 152.81 L 162.89 153.81 C 162.83 155.20 163.91 156.38 165.31 156.44 C 166.70 156.49 167.87 155.41 167.93 154.02 L 167.97 153.02 C 168.03 151.62 166.95 150.45 165.56 150.39 C 164.17 150.33 162.99 151.41 162.93 152.81 Z M 162.89 153.83 L 162.86 154.85 C 162.81 156.24 163.90 157.40 165.30 157.45 C 166.69 157.49 167.85 156.40 167.90 155.01 L 167.93 154.00 C 167.98 152.60 166.89 151.44 165.49 151.39 C 164.10 151.35 162.93 152.44 162.89 153.83 Z M 162.86 154.87 L 162.83 155.85 C 162.80 157.24 163.90 158.40 165.30 158.43 C 166.69 158.46 167.84 157.36 167.88 155.97 L 167.90 154.99 C 167.93 153.59 166.83 152.44 165.44 152.41 C 164.04 152.37 162.89 153.48 162.86 154.87 Z M 162.83 155.87 L 162.82 156.85 C 162.80 158.25 163.91 159.39 165.30 159.41 C 166.69 159.44 167.84 158.33 167.86 156.93 L 167.88 155.95 C 167.90 154.55 166.79 153.41 165.39 153.39 C 164.00 153.37 162.86 154.48 162.83 155.87 Z M 162.82 156.87 L 162.81 157.87 C 162.80 159.26 163.92 160.40 165.31 160.41 C 166.70 160.42 167.84 159.31 167.85 157.91 L 167.86 156.92 C 167.87 155.53 166.75 154.39 165.36 154.37 C 163.97 154.36 162.83 155.48 162.82 156.87 Z M 162.81 157.88 L 162.81 158.88 C 162.80 160.27 163.92 161.41 165.31 161.41 C 166.70 161.42 167.84 160.30 167.84 158.91 L 167.85 157.90 C 167.86 156.51 166.73 155.38 165.34 155.37 C 163.95 155.37 162.82 156.49 162.81 157.88 Z M 162.81 158.89 L 162.81 159.90 C 162.80 161.29 163.93 162.42 165.32 162.43 C 166.71 162.43 167.84 161.30 167.84 159.91 L 167.84 158.90 C 167.85 157.51 166.72 156.38 165.33 156.38 C 163.94 156.38 162.81 157.50 162.81 158.89 Z M 162.81 159.91 L 162.81 160.93 C 162.81 162.32 163.93 163.44 165.32 163.44 C 166.71 163.44 167.84 162.32 167.84 160.93 L 167.84 159.91 C 167.84 158.52 166.71 157.39 165.32 157.39 C 163.94 157.39 162.81 158.52 162.81 159.91 Z M 162.81 160.93 L 162.81 161.93 C 162.81 163.32 163.94 164.44 165.32 164.44 C 166.71 164.44 167.84 163.32 167.84 161.93 L 167.84 160.93 C 167.84 159.54 166.71 158.41 165.32 158.41 C 163.94 158.41 162.81 159.54 162.81 160.93 Z M 162.81 161.93 L 162.81 162.93 C 162.81 164.32 163.94 165.45 165.32 165.45 C 166.71 165.45 167.84 164.32 167.84 162.93 L 167.84 161.93 C 167.84 160.54 166.71 159.42 165.32 159.42 C 163.94 159.42 162.81 160.54 162.81 161.93 Z M 162.81 162.93 L 162.81 163.94 C 162.81 165.32 163.94 166.45 165.32 166.45 C 166.71 166.45 167.83 165.32 167.83 163.94 L 167.83 162.93 C 167.83 161.55 166.71 160.43 165.32 160.43 C 163.94 160.43 162.81 161.55 162.81 162.93 Z M 162.82 163.94 L 162.82 164.94 C 162.82 166.33 163.94 167.45 165.32 167.45 C 166.71 167.45 167.83 166.33 167.83 164.94 L 167.83 163.94 C 167.83 162.55 166.71 161.43 165.32 161.43 C 163.94 161.43 162.82 162.55 162.82 163.94 Z M 162.82 164.94 L 162.82 165.94 C 162.82 167.32 163.94 168.44 165.32 168.44 C 166.71 168.44 167.83 167.32 167.83 165.94 L 167.83 164.94 C 167.83 163.56 166.71 162.44 165.32 162.44 C 163.94 162.44 162.82 163.56 162.82 164.94 Z M 162.82 165.94 L 162.82 166.93 C 162.82 168.31 163.94 169.43 165.32 169.43 C 166.71 169.43 167.83 168.31 167.83 166.93 L 167.83 165.94 C 167.83 164.56 166.71 163.44 165.32 163.44 C 163.94 163.44 162.82 164.56 162.82 165.94 Z M 162.82 166.93 L 162.82 167.95 C 162.82 169.33 163.94 170.45 165.32 170.45 C 166.70 170.45 167.82 169.33 167.82 167.95 L 167.82 166.93 C 167.82 165.55 166.70 164.43 165.32 164.43 C 163.94 164.43 162.82 165.55 162.82 166.93 Z M 162.83 167.95 L 162.83 168.97 C 162.83 170.35 163.95 171.47 165.32 171.47 C 166.70 171.47 167.82 170.35 167.82 168.97 L 167.82 167.95 C 167.82 166.57 166.70 165.46 165.32 165.46 C 163.95 165.46 162.83 166.57 162.83 167.95 Z M 162.83 168.97 L 162.83 169.98 C 162.83 171.35 163.95 172.47 165.32 172.47 C 166.70 172.47 167.82 171.35 167.82 169.98 L 167.82 168.97 C 167.82 167.59 166.70 166.48 165.32 166.48 C 163.95 166.48 162.83 167.59 162.83 168.97 Z M 162.84 169.98 L 162.84 170.97 C 162.84 172.35 163.95 173.46 165.32 173.46 C 166.70 173.46 167.81 172.35 167.81 170.97 L 167.81 169.98 C 167.81 168.60 166.70 167.49 165.32 167.49 C 163.95 167.49 162.84 168.60 162.84 169.98 Z M 162.84 170.97 L 162.84 171.96 C 162.84 173.33 163.95 174.44 165.32 174.44 C 166.70 174.44 167.81 173.33 167.81 171.96 L 167.81 170.97 C 167.81 169.60 166.70 168.49 165.32 168.49 C 163.95 168.49 162.84 169.60 162.84 170.97 Z M 162.84 171.96 L 162.84 172.93 C 162.84 174.30 163.95 175.41 165.32 175.41 C 166.69 175.41 167.80 174.30 167.80 172.93 L 167.80 171.96 C 167.80 170.59 166.69 169.48 165.32 169.48 C 163.95 169.48 162.84 170.59 162.84 171.96 Z M 162.85 172.93 L 162.85 173.96 C 162.85 175.33 163.96 176.44 165.32 176.44 C 166.69 176.44 167.80 175.33 167.80 173.96 L 167.80 172.93 C 167.80 171.56 166.69 170.45 165.32 170.45 C 163.96 170.46 162.85 171.56 162.85 172.93 Z M 162.85 173.97 L 162.86 174.98 C 162.86 176.34 163.97 177.45 165.33 177.44 C 166.70 177.44 167.80 176.33 167.80 174.97 L 167.79 173.95 C 167.79 172.59 166.68 171.49 165.32 171.49 C 163.95 171.49 162.85 172.60 162.85 173.97 Z M 162.86 174.99 L 162.87 175.99 C 162.88 177.35 163.99 178.45 165.35 178.44 C 166.71 178.43 167.81 177.32 167.80 175.96 L 167.79 174.96 C 167.78 173.60 166.67 172.50 165.31 172.51 C 163.95 172.52 162.85 173.63 162.86 174.99 Z M 162.88 176.01 L 162.89 176.99 C 162.90 178.35 164.02 179.44 165.38 179.42 C 166.73 179.40 167.82 178.29 167.80 176.93 L 167.79 175.95 C 167.77 174.59 166.66 173.50 165.30 173.52 C 163.94 173.54 162.86 174.65 162.88 176.01 Z M 162.89 177.01 L 162.91 177.99 C 162.94 179.34 164.06 180.42 165.42 180.39 C 166.77 180.36 167.84 179.24 167.82 177.89 L 167.80 176.91 C 167.77 175.56 166.65 174.49 165.29 174.51 C 163.94 174.54 162.87 175.66 162.89 177.01 Z M 162.92 178.02 L 162.95 179.05 C 163.00 180.40 164.12 181.46 165.47 181.42 C 166.82 181.38 167.88 180.25 167.84 178.90 L 167.81 177.86 C 167.77 176.52 166.64 175.46 165.29 175.50 C 163.94 175.54 162.88 176.67 162.92 178.02 Z M 162.97 179.07 L 163.01 180.13 C 163.06 181.47 164.20 182.51 165.54 182.46 C 166.88 182.41 167.92 181.27 167.87 179.93 L 167.83 178.88 C 167.77 177.53 166.64 176.49 165.30 176.54 C 163.96 176.60 162.91 177.73 162.97 179.07 Z M 163.02 180.14 L 163.07 181.16 C 163.13 182.50 164.26 183.53 165.60 183.47 C 166.93 183.41 167.97 182.28 167.90 180.94 L 167.86 179.92 C 167.80 178.58 166.66 177.55 165.33 177.61 C 163.99 177.67 162.96 178.81 163.02 180.14 Z M 163.08 181.17 L 163.13 182.14 C 163.19 183.47 164.32 184.50 165.65 184.44 C 166.97 184.37 168.00 183.25 167.94 181.92 L 167.89 180.94 C 167.83 179.61 166.70 178.58 165.37 178.65 C 164.05 178.71 163.02 179.84 163.08 181.17 Z M 163.14 182.13 L 163.18 183.05 C 163.24 184.38 164.35 185.40 165.68 185.34 C 167.00 185.29 168.02 184.17 167.97 182.85 L 167.93 181.93 C 167.87 180.61 166.75 179.58 165.43 179.64 C 164.11 179.69 163.08 180.81 163.14 182.13 Z M 163.19 183.03 L 163.23 184.05 C 163.27 185.37 164.37 186.40 165.68 186.35 C 166.99 186.31 168.03 185.21 167.98 183.90 L 167.95 182.88 C 167.91 181.56 166.81 180.53 165.50 180.57 C 164.18 180.62 163.15 181.71 163.19 183.03 Z M 163.25 184.02 L 163.27 185.02 C 163.29 186.32 164.36 187.36 165.67 187.33 C 166.97 187.31 168.00 186.23 167.98 184.93 L 167.96 183.93 C 167.94 182.63 166.86 181.59 165.56 181.62 C 164.26 181.64 163.22 182.72 163.25 184.02 Z M 163.29 184.99 L 163.30 185.96 C 163.30 187.25 164.36 188.29 165.65 188.28 C 166.94 188.27 167.97 187.22 167.97 185.93 L 167.96 184.96 C 167.95 183.67 166.90 182.63 165.61 182.64 C 164.32 182.65 163.28 183.70 163.29 184.99 Z M 163.32 185.94 L 163.32 186.93 C 163.32 188.20 164.36 189.24 165.63 189.24 C 166.91 189.23 167.95 188.20 167.94 186.92 L 167.94 185.94 C 167.94 184.66 166.91 183.63 165.63 183.63 C 164.35 183.63 163.32 184.67 163.32 185.94 Z M 163.34 186.90 L 163.33 188.00 C 163.32 189.26 164.33 190.29 165.60 190.31 C 166.86 190.32 167.89 189.31 167.91 188.04 L 167.92 186.95 C 167.93 185.68 166.92 184.65 165.66 184.64 C 164.39 184.62 163.36 185.64 163.34 186.90 Z M 163.37 187.84 L 163.28 188.89 C 163.18 190.14 164.10 191.23 165.35 191.33 C 166.59 191.43 167.68 190.51 167.78 189.27 L 167.87 188.21 C 167.97 186.96 167.05 185.87 165.81 185.77 C 164.56 185.67 163.47 186.59 163.37 187.84 Z M 163.38 188.50 L 163.14 189.39 C 162.81 190.58 163.52 191.81 164.71 192.13 C 165.90 192.45 167.12 191.75 167.44 190.56 L 167.69 189.66 C 168.01 188.47 167.30 187.25 166.12 186.93 C 164.93 186.60 163.70 187.31 163.38 188.50 Z M 163.57 188.63 L 163.08 189.25 C 162.33 190.20 162.50 191.58 163.45 192.32 C 164.40 193.07 165.78 192.90 166.52 191.95 L 167.01 191.33 C 167.76 190.37 167.59 189.00 166.64 188.25 C 165.69 187.51 164.31 187.68 163.57 188.63 Z M 164.11 188.61 L 163.33 188.89 C 162.23 189.27 161.65 190.47 162.03 191.56 C 162.41 192.66 163.61 193.24 164.71 192.86 L 165.49 192.59 C 166.59 192.21 167.17 191.01 166.79 189.91 C 166.41 188.81 165.21 188.23 164.11 188.61 Z M 164.18 188.88 L 163.18 188.80 C 162.08 188.71 161.11 189.53 161.02 190.62 C 160.93 191.72 161.75 192.69 162.85 192.78 L 163.85 192.86 C 164.95 192.95 165.92 192.14 166.01 191.04 C 166.10 189.94 165.28 188.98 164.18 188.88 Z M 163.64 189.01 L 162.50 188.60 C 161.51 188.26 160.43 188.78 160.09 189.76 C 159.74 190.75 160.26 191.83 161.24 192.17 L 162.39 192.57 C 163.37 192.92 164.45 192.40 164.80 191.42 C 165.14 190.43 164.63 189.35 163.64 189.01 Z M 162.71 188.78 L 161.88 188.34 C 160.99 187.87 159.89 188.22 159.42 189.11 C 158.96 190.00 159.30 191.10 160.19 191.56 L 161.03 192.00 C 161.92 192.47 163.02 192.12 163.48 191.23 C 163.95 190.34 163.61 189.24 162.71 188.78 Z M 161.99 188.45 L 161.14 187.91 C 160.31 187.38 159.21 187.63 158.68 188.47 C 158.16 189.30 158.40 190.40 159.24 190.92 L 160.09 191.46 C 160.92 191.98 162.02 191.74 162.54 190.90 C 163.07 190.07 162.82 188.97 161.99 188.45 Z M 161.20 188.00 L 160.36 187.40 C 159.58 186.84 158.49 187.02 157.93 187.80 C 157.37 188.58 157.55 189.67 158.33 190.23 L 159.17 190.83 C 159.96 191.39 161.04 191.21 161.60 190.43 C 162.17 189.65 161.99 188.56 161.20 188.00 Z M 160.40 187.47 L 159.59 186.84 C 158.85 186.25 157.78 186.38 157.19 187.12 C 156.61 187.86 156.74 188.93 157.48 189.52 L 158.29 190.15 C 159.03 190.73 160.10 190.61 160.69 189.87 C 161.27 189.13 161.14 188.05 160.40 187.47 Z M 159.61 186.90 L 158.85 186.26 C 158.15 185.67 157.10 185.75 156.50 186.46 C 155.91 187.16 155.99 188.21 156.70 188.80 L 157.46 189.45 C 158.16 190.04 159.21 189.95 159.81 189.25 C 160.40 188.55 160.31 187.50 159.61 186.90 Z M 158.88 186.31 L 158.06 185.57 C 157.39 184.96 156.35 185.01 155.74 185.69 C 155.13 186.36 155.18 187.40 155.85 188.01 L 156.67 188.75 C 157.34 189.36 158.38 189.31 158.99 188.64 C 159.60 187.96 159.55 186.92 158.88 186.31 Z M 158.10 185.61 L 157.37 184.91 C 156.72 184.27 155.68 184.29 155.05 184.94 C 154.42 185.59 154.43 186.63 155.08 187.27 L 155.81 187.97 C 156.47 188.60 157.51 188.59 158.14 187.94 C 158.77 187.28 158.75 186.24 158.10 185.61 Z M 157.40 184.94 L 156.73 184.25 C 156.10 183.61 155.06 183.60 154.41 184.23 C 153.76 184.86 153.75 185.90 154.39 186.55 L 155.06 187.23 C 155.69 187.88 156.73 187.89 157.38 187.26 C 158.02 186.62 158.03 185.58 157.40 184.94 Z M 156.75 184.27 L 156.11 183.60 C 155.48 182.95 154.45 182.92 153.79 183.54 C 153.13 184.17 153.11 185.20 153.73 185.86 L 154.37 186.53 C 154.99 187.19 156.03 187.21 156.69 186.59 C 157.34 185.97 157.37 184.93 156.75 184.27 Z M 156.11 183.61 L 156.05 183.54 C 155.42 182.88 154.39 182.85 153.73 183.47 C 153.07 184.09 153.05 185.13 153.67 185.79 L 153.73 185.85 C 154.35 186.51 155.39 186.54 156.04 185.92 C 156.70 185.30 156.73 184.26 156.11 183.61 Z"
      fill="black"
      fill-rule="nonzero" /><path d="M 130.89 157.61 L 131.79 157.91 C 133.00 158.31 134.29 157.65 134.69 156.45 C 135.09 155.24 134.44 153.95 133.23 153.55 L 132.33 153.25 C 131.13 152.85 129.83 153.50 129.43 154.71 C 129.03 155.91 129.69 157.21 130.89 157.61 Z M 131.81 157.93 L 132.73 158.22 C 133.95 158.60 135.24 157.93 135.63 156.72 C 136.02 155.50 135.34 154.21 134.13 153.82 L 133.21 153.53 C 132.00 153.14 130.70 153.81 130.31 155.03 C 129.93 156.24 130.60 157.54 131.81 157.93 Z M 132.78 158.24 L 133.73 158.52 C 134.96 158.88 136.25 158.18 136.61 156.95 C 136.97 155.72 136.27 154.44 135.04 154.08 L 134.08 153.80 C 132.86 153.44 131.57 154.14 131.21 155.37 C 130.85 156.59 131.55 157.88 132.78 158.24 Z M 133.80 158.55 L 134.80 158.81 C 136.05 159.14 137.32 158.39 137.64 157.15 C 137.97 155.90 137.22 154.63 135.98 154.31 L 134.97 154.05 C 133.73 153.72 132.46 154.47 132.13 155.71 C 131.81 156.96 132.56 158.23 133.80 158.55 Z M 134.88 158.84 L 135.88 159.06 C 137.14 159.34 138.39 158.55 138.66 157.29 C 138.94 156.03 138.15 154.78 136.89 154.50 L 135.90 154.28 C 134.64 154.00 133.39 154.80 133.11 156.05 C 132.83 157.31 133.62 158.56 134.88 158.84 Z M 135.95 159.08 L 136.87 159.25 C 138.14 159.49 139.37 158.66 139.61 157.39 C 139.84 156.12 139.01 154.90 137.74 154.66 L 136.82 154.48 C 135.55 154.24 134.33 155.08 134.09 156.35 C 133.85 157.62 134.68 158.84 135.95 159.08 Z M 136.93 159.26 L 137.89 159.42 C 139.17 159.63 140.37 158.77 140.58 157.49 C 140.79 156.22 139.93 155.01 138.65 154.81 L 137.69 154.65 C 136.41 154.44 135.21 155.30 135.00 156.58 C 134.79 157.85 135.65 159.05 136.93 159.26 Z M 137.94 159.43 L 138.94 159.57 C 140.21 159.76 141.40 158.87 141.59 157.59 C 141.77 156.32 140.89 155.13 139.61 154.94 L 138.61 154.80 C 137.33 154.61 136.14 155.50 135.96 156.78 C 135.77 158.06 136.66 159.24 137.94 159.43 Z M 138.97 159.58 L 139.99 159.71 C 141.27 159.88 142.45 158.98 142.62 157.70 C 142.78 156.42 141.88 155.24 140.60 155.07 L 139.58 154.94 C 138.30 154.77 137.12 155.67 136.95 156.95 C 136.78 158.23 137.69 159.41 138.97 159.58 Z M 140.02 159.71 L 141.06 159.84 C 142.34 160.00 143.51 159.08 143.67 157.80 C 143.82 156.52 142.91 155.35 141.62 155.20 L 140.58 155.07 C 139.30 154.92 138.13 155.83 137.98 157.11 C 137.82 158.39 138.73 159.56 140.02 159.71 Z M 141.08 159.84 L 142.14 159.96 C 143.42 160.11 144.58 159.19 144.72 157.91 C 144.87 156.62 143.95 155.47 142.67 155.32 L 141.61 155.20 C 140.33 155.05 139.17 155.97 139.02 157.25 C 138.88 158.54 139.80 159.69 141.08 159.84 Z M 142.15 159.95 L 143.20 160.07 C 144.48 160.21 145.63 159.29 145.77 158.01 C 145.91 156.73 144.99 155.58 143.71 155.44 L 142.66 155.33 C 141.38 155.19 140.23 156.11 140.09 157.39 C 139.95 158.66 140.87 159.81 142.15 159.95 Z M 143.21 160.06 L 144.25 160.17 C 145.52 160.31 146.66 159.39 146.80 158.12 C 146.94 156.84 146.01 155.70 144.74 155.56 L 143.71 155.45 C 142.43 155.32 141.29 156.24 141.15 157.51 C 141.02 158.78 141.94 159.92 143.21 160.06 Z M 144.25 160.16 L 145.25 160.27 C 146.52 160.40 147.66 159.49 147.79 158.22 C 147.93 156.95 147.01 155.82 145.74 155.68 L 144.74 155.57 C 143.47 155.44 142.34 156.36 142.20 157.62 C 142.07 158.89 142.98 160.03 144.25 160.16 Z M 145.25 160.26 L 146.20 160.36 C 147.46 160.50 148.59 159.58 148.73 158.32 C 148.87 157.06 147.95 155.93 146.69 155.79 L 145.74 155.69 C 144.48 155.55 143.35 156.47 143.21 157.73 C 143.08 158.99 143.99 160.12 145.25 160.26 Z M 146.19 160.35 L 147.08 160.45 C 148.33 160.59 149.46 159.68 149.60 158.43 C 149.74 157.17 148.84 156.04 147.58 155.90 L 146.70 155.80 C 145.44 155.66 144.31 156.57 144.17 157.83 C 144.03 159.08 144.94 160.21 146.19 160.35 Z M 147.06 160.43 L 148.16 160.56 C 149.41 160.71 150.54 159.81 150.68 158.57 C 150.83 157.32 149.94 156.19 148.69 156.05 L 147.59 155.92 C 146.35 155.77 145.22 156.66 145.07 157.91 C 144.93 159.16 145.82 160.28 147.06 160.43 Z M 148.14 160.53 L 149.13 160.66 C 150.36 160.82 151.49 159.95 151.65 158.72 C 151.80 157.48 150.93 156.36 149.70 156.20 L 148.71 156.07 C 147.48 155.92 146.35 156.79 146.20 158.02 C 146.04 159.25 146.91 160.38 148.14 160.53 Z M 149.11 160.63 L 150.04 160.77 C 151.26 160.94 152.38 160.09 152.56 158.87 C 152.73 157.65 151.88 156.53 150.66 156.36 L 149.72 156.23 C 148.51 156.06 147.38 156.90 147.21 158.12 C 147.04 159.34 147.89 160.46 149.11 160.63 Z M 150.02 160.74 L 150.96 160.88 C 152.17 161.06 153.29 160.24 153.47 159.03 C 153.65 157.83 152.82 156.71 151.62 156.53 L 150.68 156.38 C 149.48 156.20 148.36 157.03 148.17 158.23 C 147.99 159.43 148.82 160.56 150.02 160.74 Z M 150.95 160.86 L 151.91 161.01 C 153.10 161.21 154.22 160.40 154.41 159.21 C 154.60 158.02 153.80 156.90 152.60 156.70 L 151.64 156.55 C 150.45 156.36 149.33 157.17 149.14 158.36 C 148.95 159.55 149.76 160.67 150.95 160.86 Z M 151.89 161.00 L 152.89 161.17 C 154.07 161.37 155.19 160.58 155.39 159.40 C 155.59 158.22 154.80 157.10 153.62 156.89 L 152.62 156.72 C 151.44 156.52 150.32 157.31 150.12 158.49 C 149.92 159.67 150.71 160.79 151.89 161.00 Z M 152.87 161.15 L 153.87 161.33 C 155.04 161.55 156.16 160.77 156.38 159.60 C 156.59 158.43 155.82 157.31 154.65 157.10 L 153.65 156.91 C 152.48 156.70 151.35 157.47 151.14 158.64 C 150.92 159.81 151.70 160.93 152.87 161.15 Z M 153.84 161.31 L 154.81 161.51 C 155.97 161.74 157.10 160.99 157.33 159.83 C 157.56 158.67 156.81 157.55 155.66 157.31 L 154.68 157.12 C 153.52 156.89 152.39 157.64 152.16 158.79 C 151.93 159.95 152.68 161.08 153.84 161.31 Z M 154.76 161.48 L 155.86 161.73 C 157.00 161.99 158.13 161.28 158.40 160.14 C 158.66 159.00 157.95 157.86 156.81 157.60 L 155.71 157.34 C 154.57 157.08 153.43 157.80 153.17 158.94 C 152.91 160.08 153.62 161.21 154.76 161.48 Z M 155.69 161.66 L 156.70 161.98 C 157.80 162.33 158.98 161.72 159.33 160.62 C 159.68 159.51 159.07 158.34 157.97 157.98 L 156.97 157.66 C 155.86 157.31 154.69 157.92 154.33 159.03 C 153.98 160.13 154.59 161.31 155.69 161.66 Z M 156.35 161.80 L 157.14 162.23 C 158.14 162.78 159.40 162.41 159.95 161.40 C 160.50 160.40 160.12 159.14 159.12 158.59 L 158.32 158.16 C 157.32 157.61 156.06 157.99 155.51 158.99 C 154.97 160.00 155.34 161.26 156.35 161.80 Z M 156.57 161.73 L 157.12 162.38 C 157.85 163.24 159.13 163.34 159.99 162.62 C 160.85 161.89 160.96 160.61 160.23 159.75 L 159.68 159.10 C 158.96 158.24 157.67 158.13 156.81 158.86 C 155.95 159.58 155.85 160.87 156.57 161.73 Z M 156.75 161.49 L 156.94 162.40 C 157.18 163.46 158.24 164.14 159.30 163.90 C 160.37 163.67 161.05 162.61 160.81 161.55 L 160.61 160.64 C 160.38 159.57 159.32 158.89 158.25 159.13 C 157.19 159.36 156.51 160.42 156.75 161.49 Z M 157.01 161.60 L 156.80 162.62 C 156.60 163.65 157.27 164.66 158.30 164.86 C 159.34 165.07 160.34 164.39 160.55 163.36 L 160.75 162.34 C 160.95 161.31 160.28 160.30 159.25 160.10 C 158.22 159.89 157.21 160.57 157.01 161.60 Z M 157.05 162.11 L 156.57 162.98 C 156.09 163.88 156.42 165.00 157.31 165.49 C 158.21 165.98 159.33 165.65 159.82 164.75 L 160.30 163.87 C 160.79 162.98 160.46 161.86 159.56 161.37 C 158.66 160.88 157.54 161.21 157.05 162.11 Z M 156.80 162.72 L 156.18 163.48 C 155.55 164.25 155.66 165.39 156.43 166.02 C 157.20 166.65 158.34 166.54 158.97 165.77 L 159.59 165.01 C 160.22 164.24 160.11 163.11 159.34 162.47 C 158.57 161.84 157.43 161.95 156.80 162.72 Z M 156.34 163.37 L 155.60 164.09 C 154.91 164.78 154.90 165.89 155.58 166.59 C 156.26 167.28 157.38 167.29 158.08 166.61 L 158.81 165.89 C 159.51 165.20 159.52 164.09 158.83 163.39 C 158.15 162.70 157.03 162.69 156.34 163.37 Z M 155.71 164.05 L 154.93 164.72 C 154.21 165.35 154.13 166.44 154.76 167.16 C 155.39 167.88 156.48 167.96 157.20 167.33 L 157.97 166.65 C 158.69 166.03 158.77 164.94 158.14 164.22 C 157.51 163.50 156.42 163.42 155.71 164.05 Z M 154.98 164.71 L 154.23 165.33 C 153.50 165.93 153.40 167.00 154.00 167.73 C 154.59 168.45 155.66 168.56 156.39 167.96 L 157.14 167.34 C 157.87 166.74 157.97 165.67 157.38 164.95 C 156.78 164.22 155.71 164.12 154.98 164.71 Z M 154.27 165.32 L 153.51 165.92 C 152.78 166.49 152.65 167.55 153.23 168.28 C 153.80 169.01 154.86 169.14 155.59 168.57 L 156.35 167.97 C 157.08 167.40 157.21 166.34 156.63 165.61 C 156.06 164.87 155.00 164.75 154.27 165.32 Z M 153.54 165.91 L 152.75 166.51 C 152.01 167.07 151.86 168.11 152.42 168.85 C 152.98 169.59 154.02 169.73 154.76 169.18 L 155.56 168.58 C 156.30 168.02 156.44 166.97 155.89 166.23 C 155.33 165.50 154.28 165.35 153.54 165.91 Z M 152.77 166.51 L 151.94 167.11 C 151.21 167.65 151.04 168.69 151.59 169.43 C 152.13 170.17 153.17 170.33 153.91 169.79 L 154.73 169.18 C 155.47 168.64 155.63 167.60 155.09 166.86 C 154.55 166.12 153.51 165.96 152.77 166.51 Z M 151.96 167.11 L 151.25 167.62 C 150.51 168.15 150.34 169.18 150.87 169.92 C 151.41 170.66 152.44 170.83 153.18 170.30 L 153.89 169.79 C 154.63 169.26 154.80 168.23 154.27 167.49 C 153.74 166.75 152.70 166.58 151.96 167.11 Z M 151.27 167.61 L 150.50 168.15 C 149.75 168.67 149.57 169.70 150.09 170.45 C 150.62 171.19 151.64 171.37 152.39 170.85 L 153.16 170.31 C 153.91 169.79 154.09 168.76 153.57 168.01 C 153.04 167.27 152.02 167.09 151.27 167.61 Z M 150.52 168.14 L 149.68 168.70 C 148.93 169.22 148.73 170.24 149.25 170.99 C 149.76 171.75 150.78 171.94 151.53 171.43 L 152.37 170.86 C 153.12 170.35 153.32 169.33 152.81 168.57 C 152.30 167.82 151.27 167.63 150.52 168.14 Z M 149.71 168.69 L 148.80 169.28 C 148.04 169.78 147.83 170.80 148.33 171.56 C 148.83 172.32 149.85 172.54 150.61 172.04 L 151.51 171.44 C 152.27 170.95 152.48 169.93 151.98 169.17 C 151.49 168.41 150.47 168.19 149.71 168.69 Z M 148.83 169.27 L 147.87 169.87 C 147.10 170.36 146.88 171.37 147.36 172.14 C 147.84 172.91 148.86 173.14 149.63 172.65 L 150.58 172.05 C 151.35 171.57 151.58 170.55 151.10 169.78 C 150.61 169.02 149.60 168.79 148.83 169.27 Z M 147.89 169.86 L 147.02 170.39 C 146.24 170.87 145.99 171.88 146.47 172.65 C 146.94 173.43 147.95 173.68 148.73 173.20 L 149.61 172.67 C 150.38 172.20 150.63 171.18 150.16 170.41 C 149.68 169.63 148.67 169.39 147.89 169.86 Z M 147.03 170.38 L 146.12 170.92 C 145.34 171.38 145.08 172.39 145.55 173.18 C 146.01 173.96 147.03 174.22 147.81 173.75 L 148.71 173.22 C 149.50 172.75 149.75 171.74 149.29 170.96 C 148.82 170.17 147.81 169.91 147.03 170.38 Z M 146.13 170.91 L 145.23 171.43 C 144.44 171.90 144.17 172.91 144.64 173.70 C 145.10 174.49 146.11 174.75 146.90 174.29 L 147.80 173.76 C 148.59 173.30 148.86 172.29 148.40 171.50 C 147.93 170.71 146.92 170.45 146.13 170.91 Z M 145.23 171.43 L 144.35 171.94 C 143.56 172.40 143.29 173.41 143.75 174.21 C 144.21 175.00 145.23 175.27 146.02 174.81 L 146.90 174.30 C 147.69 173.84 147.96 172.82 147.50 172.03 C 147.04 171.24 146.02 170.97 145.23 171.43 Z M 144.35 171.93 L 143.52 172.41 C 142.73 172.87 142.46 173.89 142.92 174.69 C 143.38 175.48 144.40 175.75 145.19 175.29 L 146.02 174.81 C 146.82 174.35 147.09 173.33 146.63 172.54 C 146.16 171.74 145.15 171.47 144.35 171.93 Z M 143.51 172.41 L 142.70 172.89 C 141.91 173.35 141.64 174.38 142.11 175.17 C 142.57 175.97 143.59 176.24 144.39 175.77 L 145.20 175.29 C 146.00 174.83 146.27 173.80 145.80 173.01 C 145.33 172.21 144.31 171.95 143.51 172.41 Z M 142.68 172.89 L 141.71 173.47 C 140.92 173.95 140.66 174.98 141.14 175.78 C 141.61 176.57 142.65 176.83 143.44 176.35 L 144.41 175.77 C 145.21 175.29 145.46 174.26 144.99 173.46 C 144.51 172.67 143.48 172.41 142.68 172.89 Z M 141.68 173.47 L 140.85 173.99 C 140.05 174.49 139.81 175.53 140.30 176.32 C 140.80 177.12 141.84 177.36 142.64 176.87 L 143.47 176.35 C 144.26 175.86 144.51 174.81 144.01 174.02 C 143.52 173.22 142.48 172.98 141.68 173.47 Z M 140.82 173.99 L 140.06 174.48 C 139.26 174.99 139.03 176.05 139.54 176.84 C 140.04 177.63 141.10 177.87 141.89 177.36 L 142.66 176.87 C 143.46 176.36 143.69 175.31 143.18 174.51 C 142.67 173.72 141.62 173.49 140.82 173.99 Z M 140.04 174.48 L 139.26 174.98 C 138.47 175.50 138.24 176.56 138.76 177.36 C 139.27 178.16 140.34 178.38 141.14 177.87 L 141.91 177.37 C 142.71 176.85 142.94 175.78 142.42 174.98 C 141.90 174.19 140.84 173.96 140.04 174.48 Z M 139.24 174.96 L 138.42 175.50 C 137.62 176.04 137.39 177.12 137.92 177.93 C 138.46 178.73 139.54 178.95 140.35 178.42 L 141.16 177.88 C 141.97 177.35 142.19 176.27 141.66 175.46 C 141.13 174.65 140.04 174.43 139.24 174.96 Z M 138.36 175.50 L 137.53 176.08 C 136.73 176.65 136.53 177.76 137.09 178.56 C 137.65 179.37 138.76 179.57 139.57 179.00 L 140.40 178.42 C 141.21 177.86 141.41 176.75 140.84 175.94 C 140.28 175.14 139.17 174.94 138.36 175.50 Z M 137.45 176.11 L 136.64 176.73 C 135.85 177.34 135.70 178.48 136.31 179.27 C 136.92 180.06 138.06 180.21 138.85 179.60 L 139.66 178.98 C 140.45 178.37 140.60 177.23 139.99 176.44 C 139.38 175.64 138.24 175.50 137.45 176.11 Z M 136.50 176.77 L 135.68 177.51 C 134.91 178.20 134.85 179.38 135.54 180.15 C 136.23 180.92 137.41 180.98 138.18 180.29 L 139.00 179.55 C 139.76 178.86 139.82 177.68 139.13 176.91 C 138.44 176.15 137.26 176.08 136.50 176.77 Z M 135.40 177.62 L 134.64 178.53 C 133.93 179.37 134.04 180.63 134.89 181.34 C 135.73 182.04 136.99 181.93 137.70 181.09 L 138.46 180.18 C 139.16 179.34 139.05 178.08 138.21 177.37 C 137.36 176.66 136.11 176.77 135.40 177.62 Z M 134.13 179.07 L 133.84 179.86 C 133.43 180.98 134.01 182.22 135.14 182.63 C 136.26 183.04 137.51 182.46 137.92 181.34 L 138.21 180.55 C 138.61 179.42 138.03 178.18 136.91 177.77 C 135.78 177.36 134.54 177.94 134.13 179.07 Z M 133.99 181.93 L 134.34 182.43 C 135.08 183.47 136.52 183.72 137.56 182.99 C 138.61 182.25 138.86 180.81 138.12 179.77 L 137.77 179.27 C 137.04 178.22 135.59 177.97 134.55 178.71 C 133.51 179.44 133.25 180.88 133.99 181.93 Z M 135.58 183.39 L 136.39 183.62 C 137.66 183.98 138.98 183.24 139.34 181.97 C 139.70 180.71 138.96 179.39 137.69 179.03 L 136.88 178.80 C 135.61 178.44 134.29 179.18 133.94 180.45 C 133.58 181.72 134.31 183.04 135.58 183.39 Z M 136.84 183.74 L 137.93 183.83 C 139.27 183.94 140.44 182.95 140.55 181.62 C 140.66 180.28 139.66 179.11 138.33 179.00 L 137.24 178.91 C 135.91 178.80 134.74 179.79 134.63 181.13 C 134.52 182.46 135.51 183.63 136.84 183.74 Z M 138.10 183.87 L 139.27 183.89 C 140.62 183.91 141.74 182.82 141.76 181.47 C 141.78 180.11 140.69 178.99 139.33 178.98 L 138.17 178.96 C 136.81 178.94 135.69 180.03 135.68 181.38 C 135.66 182.74 136.74 183.85 138.10 183.87 Z M 139.30 183.91 L 140.41 183.91 C 141.78 183.91 142.89 182.80 142.89 181.43 C 142.89 180.06 141.78 178.95 140.41 178.95 L 139.30 178.95 C 137.93 178.95 136.82 180.06 136.82 181.43 C 136.82 182.80 137.93 183.91 139.30 183.91 Z M 140.41 183.92 L 141.41 183.92 C 142.78 183.92 143.90 182.80 143.90 181.43 C 143.90 180.06 142.78 178.95 141.41 178.95 L 140.41 178.95 C 139.04 178.95 137.92 180.06 137.92 181.43 C 137.92 182.80 139.04 183.92 140.41 183.92 Z M 141.41 183.92 L 142.36 183.92 C 143.73 183.92 144.85 182.81 144.85 181.43 C 144.85 180.06 143.73 178.94 142.36 178.94 L 141.41 178.94 C 140.04 178.94 138.92 180.06 138.92 181.43 C 138.92 182.81 140.04 183.92 141.41 183.92 Z M 142.36 183.92 L 143.31 183.92 C 144.69 183.92 145.80 182.81 145.80 181.43 C 145.80 180.06 144.69 178.94 143.31 178.94 L 142.36 178.94 C 140.98 178.94 139.87 180.06 139.87 181.43 C 139.87 182.81 140.98 183.92 142.36 183.92 Z M 143.32 183.92 L 144.32 183.92 C 145.70 183.92 146.81 182.79 146.80 181.42 C 146.80 180.04 145.68 178.93 144.30 178.93 L 143.30 178.94 C 141.93 178.94 140.81 180.06 140.82 181.44 C 140.82 182.82 141.95 183.93 143.32 183.92 Z M 144.35 183.92 L 145.35 183.90 C 146.73 183.88 147.83 182.75 147.81 181.37 C 147.79 180.00 146.65 178.90 145.28 178.92 L 144.27 178.94 C 142.89 178.96 141.79 180.09 141.82 181.47 C 141.84 182.84 142.97 183.94 144.35 183.92 Z M 145.41 183.90 L 146.41 183.87 C 147.79 183.82 148.86 182.66 148.81 181.28 C 148.76 179.91 147.61 178.83 146.23 178.88 L 145.22 178.92 C 143.85 178.97 142.77 180.13 142.82 181.50 C 142.87 182.88 144.03 183.95 145.41 183.90 Z M 146.48 183.86 L 147.49 183.80 C 148.86 183.71 149.90 182.53 149.82 181.16 C 149.73 179.79 148.55 178.74 147.18 178.83 L 146.17 178.89 C 144.79 178.98 143.75 180.16 143.84 181.53 C 143.92 182.90 145.10 183.94 146.48 183.86 Z M 147.54 183.78 L 148.53 183.70 C 149.90 183.59 150.91 182.39 150.80 181.02 C 150.69 179.66 149.49 178.64 148.13 178.76 L 147.13 178.84 C 145.76 178.95 144.75 180.15 144.86 181.52 C 144.97 182.88 146.17 183.90 147.54 183.78 Z M 148.56 183.69 L 149.54 183.60 C 150.90 183.47 151.90 182.26 151.77 180.90 C 151.65 179.54 150.44 178.55 149.08 178.67 L 148.10 178.77 C 146.74 178.90 145.74 180.10 145.87 181.46 C 146.00 182.82 147.20 183.82 148.56 183.69 Z M 149.55 183.58 L 150.55 183.48 C 151.90 183.35 152.88 182.15 152.75 180.80 C 152.62 179.45 151.41 178.46 150.06 178.59 L 149.07 178.69 C 147.72 178.83 146.73 180.03 146.87 181.38 C 147.00 182.73 148.20 183.71 149.55 183.58 Z M 150.56 183.45 L 151.55 183.35 C 152.88 183.21 153.85 182.02 153.71 180.69 C 153.57 179.35 152.38 178.38 151.05 178.52 L 150.06 178.62 C 148.72 178.76 147.75 179.95 147.89 181.29 C 148.03 182.62 149.22 183.59 150.56 183.45 Z M 151.56 183.32 L 152.56 183.21 C 153.87 183.06 154.82 181.87 154.67 180.56 C 154.53 179.24 153.34 178.29 152.02 178.44 L 151.03 178.55 C 149.71 178.70 148.77 179.89 148.91 181.20 C 149.06 182.52 150.25 183.47 151.56 183.32 Z M 152.58 183.17 L 153.52 183.05 C 154.81 182.89 155.73 181.71 155.57 180.42 C 155.41 179.13 154.23 178.21 152.94 178.37 L 152.00 178.48 C 150.71 178.64 149.79 179.82 149.95 181.12 C 150.11 182.41 151.29 183.33 152.58 183.17 Z M 153.53 182.99 L 154.47 182.87 C 155.74 182.70 156.62 181.54 156.45 180.28 C 156.29 179.02 155.13 178.13 153.87 178.30 L 152.92 178.42 C 151.66 178.59 150.77 179.75 150.94 181.01 C 151.11 182.27 152.27 183.16 153.53 182.99 Z M 154.47 182.81 L 155.49 182.67 C 156.72 182.50 157.58 181.37 157.41 180.14 C 157.24 178.91 156.11 178.05 154.88 178.22 L 153.87 178.36 C 152.64 178.53 151.78 179.66 151.94 180.89 C 152.11 182.12 153.24 182.98 154.47 182.81 Z M 155.48 182.61 L 156.52 182.47 C 157.72 182.31 158.55 181.21 158.39 180.01 C 158.23 178.81 157.13 177.97 155.93 178.14 L 154.89 178.28 C 153.69 178.44 152.85 179.54 153.01 180.74 C 153.18 181.94 154.28 182.78 155.48 182.61 Z M 156.51 182.41 L 157.40 182.29 C 158.56 182.13 159.38 181.06 159.22 179.89 C 159.06 178.73 157.98 177.91 156.82 178.07 L 155.94 178.19 C 154.77 178.35 153.95 179.43 154.11 180.59 C 154.27 181.76 155.35 182.57 156.51 182.41 Z M 157.41 182.23 L 158.36 182.09 C 159.49 181.92 160.27 180.87 160.10 179.74 C 159.93 178.60 158.88 177.82 157.75 177.99 L 156.80 178.13 C 155.67 178.30 154.89 179.36 155.06 180.49 C 155.23 181.62 156.28 182.40 157.41 182.23 Z M 158.39 182.03 L 159.40 181.86 C 160.50 181.67 161.23 180.63 161.05 179.53 C 160.86 178.43 159.82 177.70 158.72 177.88 L 157.71 178.06 C 156.62 178.24 155.88 179.29 156.07 180.38 C 156.25 181.48 157.30 182.22 158.39 182.03 Z M 159.45 181.79 L 160.51 181.57 C 161.57 181.36 162.26 180.33 162.04 179.27 C 161.83 178.21 160.80 177.52 159.74 177.74 L 158.67 177.95 C 157.61 178.17 156.93 179.20 157.14 180.26 C 157.35 181.32 158.39 182.00 159.45 181.79 Z M 160.56 181.51 L 161.58 181.26 C 162.60 181.02 163.24 179.99 162.99 178.97 C 162.75 177.95 161.72 177.32 160.70 177.56 L 159.68 177.80 C 158.66 178.05 158.03 179.07 158.27 180.10 C 158.52 181.12 159.54 181.75 160.56 181.51 Z M 161.63 181.21 L 162.54 180.96 C 163.53 180.69 164.12 179.67 163.85 178.68 C 163.58 177.69 162.56 177.10 161.57 177.37 L 160.66 177.62 C 159.67 177.89 159.08 178.91 159.35 179.90 C 159.61 180.89 160.63 181.47 161.63 181.21 Z M 162.57 180.91 L 163.51 180.63 C 164.47 180.35 165.03 179.34 164.74 178.38 C 164.46 177.41 163.45 176.86 162.49 177.15 L 161.55 177.42 C 160.58 177.70 160.03 178.71 160.31 179.68 C 160.60 180.64 161.61 181.19 162.57 180.91 Z M 163.53 180.58 L 164.49 180.29 C 165.43 179.99 165.95 179.00 165.66 178.06 C 165.37 177.13 164.37 176.60 163.44 176.89 L 162.47 177.19 C 161.54 177.48 161.01 178.48 161.30 179.42 C 161.60 180.35 162.59 180.88 163.53 180.58 Z M 164.50 180.24 L 165.47 179.92 C 166.38 179.63 166.88 178.65 166.59 177.74 C 166.30 176.83 165.32 176.33 164.41 176.62 L 163.43 176.94 C 162.52 177.23 162.02 178.21 162.31 179.12 C 162.61 180.03 163.58 180.53 164.50 180.24 Z M 165.47 179.88 L 166.46 179.56 C 167.35 179.26 167.83 178.31 167.53 177.42 C 167.24 176.53 166.28 176.05 165.40 176.34 L 164.41 176.67 C 163.52 176.96 163.04 177.92 163.33 178.80 C 163.63 179.69 164.58 180.18 165.47 179.88 Z M 166.45 179.52 L 167.08 179.31 C 167.95 179.02 168.42 178.08 168.13 177.21 C 167.84 176.35 166.90 175.87 166.03 176.16 L 165.40 176.37 C 164.53 176.66 164.06 177.60 164.35 178.47 C 164.64 179.34 165.58 179.81 166.45 179.52 Z"
      fill="black"
      fill-rule="nonzero" /></svg>