<svg xmlns="http://www.w3.org/2000/svg" width="300" height="300" viewBox="0 0 300 300">
<path d="M 140.11 108.83 L 140.66 109.62 C 141.35 110.62 142.72 110.87 143.72 110.18 C 144.72 109.49 144.97 108.12 144.28 107.12 L 143.74 106.33 C 143.04 105.33 141.67 105.08 140.67 105.77 C 139.67 106.46 139.42 107.83 140.11 108.83 Z M 140.72 109.64 L 141.30 110.43 C 142.00 111.40 143.36 111.61 144.32 110.91 C 145.29 110.20 145.50 108.85 144.80 107.88 L 144.22 107.09 C 143.52 106.12 142.16 105.91 141.19 106.62 C 140.23 107.32 140.02 108.68 140.72 109.64 Z M 141.39 110.50 L 142.02 111.29 C 142.76 112.20 144.11 112.35 145.02 111.61 C 145.94 110.87 146.09 109.53 145.35 108.61 L 144.71 107.82 C 143.97 106.90 142.63 106.76 141.71 107.50 C 140.79 108.24 140.65 109.58 141.39 110.50 Z M 142.14 111.37 L 142.84 112.13 C 143.62 112.99 144.95 113.05 145.81 112.26 C 146.66 111.47 146.72 110.14 145.93 109.29 L 145.23 108.52 C 144.45 107.67 143.12 107.61 142.26 108.40 C 141.41 109.19 141.35 110.52 142.14 111.37 Z M 142.94 112.21 L 143.66 112.91 C 144.49 113.71 145.81 113.68 146.61 112.86 C 147.40 112.03 147.38 110.71 146.56 109.91 L 145.83 109.22 C 145.01 108.42 143.69 108.44 142.89 109.27 C 142.09 110.09 142.11 111.41 142.94 112.21 Z M 143.73 112.95 L 144.49 113.63 C 145.34 114.39 146.65 114.32 147.41 113.48 C 148.17 112.63 148.10 111.32 147.25 110.56 L 146.49 109.87 C 145.64 109.11 144.34 109.18 143.57 110.03 C 142.81 110.88 142.88 112.18 143.73 112.95 Z M 144.53 113.64 L 145.29 114.30 C 146.15 115.04 147.44 114.95 148.18 114.10 C 148.92 113.24 148.83 111.95 147.98 111.21 L 147.21 110.55 C 146.36 109.81 145.06 109.90 144.32 110.75 C 143.58 111.61 143.68 112.90 144.53 113.64 Z M 145.31 114.29 L 146.05 114.93 C 146.90 115.66 148.18 115.57 148.91 114.72 C 149.64 113.87 149.55 112.59 148.70 111.86 L 147.96 111.22 C 147.11 110.48 145.83 110.58 145.10 111.43 C 144.36 112.28 144.46 113.56 145.31 114.29 Z M 146.04 114.90 L 146.81 115.57 C 147.63 116.31 148.90 116.23 149.64 115.40 C 150.38 114.57 150.30 113.30 149.47 112.57 L 148.71 111.89 C 147.88 111.16 146.61 111.23 145.87 112.06 C 145.14 112.89 145.21 114.16 146.04 114.90 Z M 146.80 115.53 L 147.52 116.19 C 148.32 116.93 149.57 116.87 150.31 116.07 C 151.05 115.26 151.00 114.01 150.19 113.27 L 149.48 112.61 C 148.67 111.87 147.42 111.93 146.68 112.73 C 145.94 113.54 145.99 114.79 146.80 115.53 Z M 147.51 116.14 L 148.23 116.82 C 149.01 117.56 150.24 117.53 150.98 116.75 C 151.72 115.97 151.69 114.73 150.91 113.99 L 150.20 113.32 C 149.42 112.58 148.18 112.61 147.44 113.39 C 146.70 114.17 146.73 115.40 147.51 116.14 Z M 148.23 116.79 L 148.91 117.45 C 149.68 118.19 150.89 118.18 151.64 117.42 C 152.38 116.65 152.36 115.44 151.60 114.70 L 150.91 114.03 C 150.15 113.29 148.93 113.30 148.19 114.07 C 147.45 114.83 147.47 116.05 148.23 116.79 Z M 148.91 117.42 L 149.58 118.09 C 150.32 118.84 151.53 118.84 152.27 118.09 C 153.02 117.35 153.02 116.14 152.27 115.40 L 151.60 114.73 C 150.86 113.98 149.65 113.98 148.91 114.73 C 148.16 115.47 148.16 116.68 148.91 117.42 Z M 149.56 118.05 L 150.25 118.78 C 150.97 119.53 152.17 119.56 152.92 118.84 C 153.68 118.12 153.71 116.92 152.99 116.16 L 152.29 115.44 C 151.57 114.68 150.38 114.65 149.62 115.38 C 148.86 116.10 148.83 117.30 149.56 118.05 Z M 150.22 118.72 L 150.91 119.50 C 151.61 120.28 152.79 120.34 153.57 119.65 C 154.34 118.96 154.41 117.77 153.72 117.00 L 153.02 116.22 C 152.33 115.44 151.14 115.38 150.36 116.07 C 149.59 116.76 149.52 117.95 150.22 118.72 Z M 150.88 119.44 L 151.55 120.25 C 152.20 121.05 153.38 121.16 154.18 120.51 C 154.97 119.85 155.08 118.67 154.43 117.88 L 153.75 117.06 C 153.10 116.27 151.92 116.15 151.13 116.81 C 150.33 117.47 150.22 118.64 150.88 119.44 Z M 151.51 120.18 L 152.12 120.99 C 152.74 121.81 153.90 121.97 154.72 121.36 C 155.53 120.74 155.70 119.58 155.08 118.76 L 154.47 117.95 C 153.85 117.13 152.69 116.97 151.87 117.59 C 151.06 118.20 150.89 119.36 151.51 120.18 Z M 152.08 120.92 L 152.66 121.76 C 153.24 122.60 154.38 122.81 155.22 122.24 C 156.06 121.66 156.27 120.52 155.70 119.68 L 155.12 118.84 C 154.54 118.00 153.40 117.79 152.56 118.36 C 151.72 118.94 151.51 120.08 152.08 120.92 Z M 152.62 121.68 L 153.15 122.54 C 153.68 123.39 154.81 123.66 155.67 123.13 C 156.53 122.60 156.79 121.48 156.26 120.62 L 155.73 119.76 C 155.20 118.90 154.08 118.64 153.22 119.17 C 152.36 119.70 152.09 120.82 152.62 121.68 Z M 153.11 122.44 L 153.58 123.30 C 154.05 124.18 155.16 124.50 156.04 124.03 C 156.92 123.55 157.24 122.45 156.77 121.57 L 156.30 120.71 C 155.82 119.83 154.72 119.50 153.84 119.98 C 152.96 120.46 152.64 121.56 153.11 122.44 Z M 153.53 123.17 L 153.96 124.12 C 154.37 125.03 155.44 125.43 156.34 125.02 C 157.25 124.61 157.65 123.54 157.24 122.64 L 156.81 121.69 C 156.40 120.78 155.34 120.38 154.43 120.79 C 153.52 121.20 153.12 122.27 153.53 123.17 Z M 153.91 123.97 L 154.26 124.95 C 154.58 125.88 155.60 126.37 156.53 126.05 C 157.46 125.72 157.95 124.70 157.63 123.77 L 157.29 122.79 C 156.96 121.86 155.94 121.37 155.01 121.69 C 154.08 122.02 153.59 123.04 153.91 123.97 Z M 154.22 124.78 L 154.45 125.73 C 154.68 126.68 155.64 127.26 156.59 127.03 C 157.54 126.80 158.12 125.85 157.89 124.90 L 157.66 123.94 C 157.43 122.99 156.47 122.41 155.52 122.64 C 154.57 122.87 153.99 123.83 154.22 124.78 Z M 154.43 125.55 L 154.56 126.48 C 154.70 127.44 155.58 128.12 156.54 127.98 C 157.50 127.85 158.18 126.96 158.04 126.00 L 157.91 125.07 C 157.78 124.11 156.89 123.44 155.93 123.57 C 154.97 123.71 154.30 124.59 154.43 125.55 Z M 154.57 126.29 L 154.60 127.34 C 154.62 128.30 155.42 129.05 156.38 129.03 C 157.34 129.00 158.09 128.20 158.06 127.24 L 158.04 126.20 C 158.01 125.24 157.21 124.48 156.26 124.51 C 155.30 124.53 154.54 125.33 154.57 126.29 Z M 154.64 127.07 L 154.51 128.09 C 154.39 129.02 155.05 129.88 155.98 130.00 C 156.91 130.12 157.77 129.46 157.89 128.53 L 158.02 127.51 C 158.14 126.58 157.48 125.72 156.55 125.60 C 155.62 125.48 154.76 126.14 154.64 127.07 Z M 154.64 127.71 L 154.30 128.59 C 153.97 129.45 154.41 130.42 155.27 130.75 C 156.13 131.08 157.10 130.64 157.42 129.78 L 157.76 128.90 C 158.09 128.04 157.66 127.08 156.79 126.75 C 155.93 126.42 154.97 126.85 154.64 127.71 Z M 154.60 128.13 L 154.04 128.80 C 153.46 129.50 153.56 130.54 154.26 131.12 C 154.95 131.70 155.99 131.61 156.57 130.91 L 157.13 130.24 C 157.71 129.54 157.62 128.50 156.92 127.92 C 156.22 127.34 155.18 127.43 154.60 128.13 Z M 154.46 128.45 L 153.69 128.91 C 152.92 129.38 152.67 130.39 153.13 131.16 C 153.60 131.94 154.61 132.19 155.38 131.72 L 156.16 131.26 C 156.93 130.79 157.18 129.78 156.71 129.01 C 156.25 128.23 155.24 127.98 154.46 128.45 Z M 154.04 128.76 L 153.06 129.07 C 152.20 129.34 151.72 130.26 151.99 131.12 C 152.26 131.98 153.18 132.46 154.04 132.19 L 155.03 131.88 C 155.89 131.61 156.37 130.69 156.10 129.83 C 155.83 128.96 154.91 128.48 154.04 128.76 Z M 153.29 129.01 L 152.18 129.19 C 151.29 129.34 150.68 130.18 150.83 131.07 C 150.97 131.97 151.81 132.57 152.70 132.43 L 153.81 132.25 C 154.71 132.10 155.31 131.26 155.17 130.37 C 155.02 129.47 154.18 128.87 153.29 129.01 Z M 152.30 129.18 L 151.33 129.26 C 150.43 129.34 149.76 130.13 149.84 131.03 C 149.92 131.94 150.71 132.60 151.61 132.52 L 152.58 132.44 C 153.48 132.36 154.15 131.57 154.07 130.67 C 153.99 129.77 153.20 129.10 152.30 129.18 Z M 151.40 129.26 L 150.37 129.30 C 149.47 129.35 148.77 130.11 148.81 131.01 C 148.85 131.92 149.62 132.62 150.52 132.58 L 151.54 132.53 C 152.45 132.49 153.15 131.72 153.11 130.82 C 153.07 129.92 152.30 129.22 151.40 129.26 Z M 150.42 129.30 L 149.38 129.32 C 148.48 129.34 147.76 130.09 147.78 130.99 C 147.80 131.89 148.54 132.61 149.45 132.60 L 150.48 132.58 C 151.38 132.56 152.10 131.81 152.08 130.91 C 152.07 130.00 151.32 129.29 150.42 129.30 Z M 149.41 129.32 L 148.41 129.33 C 147.50 129.33 146.77 130.07 146.78 130.97 C 146.78 131.88 147.52 132.61 148.42 132.60 L 149.42 132.60 C 150.33 132.59 151.06 131.86 151.05 130.95 C 151.05 130.05 150.31 129.32 149.41 129.32 Z M 148.42 129.33 L 147.42 129.33 C 146.52 129.33 145.79 130.06 145.79 130.96 C 145.79 131.87 146.52 132.60 147.42 132.60 L 148.41 132.60 C 149.32 132.60 150.05 131.87 150.05 130.96 C 150.05 130.06 149.32 129.33 148.42 129.33 Z M 147.44 129.33 L 146.47 129.32 C 145.57 129.31 144.83 130.04 144.82 130.94 C 144.82 131.85 145.54 132.59 146.45 132.59 L 147.41 132.60 C 148.31 132.61 149.05 131.88 149.06 130.98 C 149.07 130.07 148.34 129.33 147.44 129.33 Z M 146.50 129.32 L 145.55 129.29 C 144.64 129.27 143.89 129.98 143.87 130.89 C 143.84 131.79 144.55 132.54 145.46 132.57 L 146.42 132.59 C 147.32 132.62 148.07 131.90 148.10 131.00 C 148.12 130.10 147.41 129.34 146.50 129.32 Z M 145.59 129.30 L 144.57 129.24 C 143.67 129.19 142.90 129.89 142.85 130.79 C 142.80 131.69 143.49 132.46 144.40 132.51 L 145.41 132.57 C 146.32 132.61 147.09 131.92 147.14 131.02 C 147.18 130.12 146.49 129.34 145.59 129.30 Z M 144.62 129.24 L 143.60 129.16 C 142.70 129.09 141.91 129.76 141.84 130.66 C 141.77 131.56 142.44 132.35 143.34 132.43 L 144.35 132.51 C 145.25 132.58 146.04 131.91 146.11 131.01 C 146.19 130.11 145.52 129.32 144.62 129.24 Z M 143.64 129.17 L 142.65 129.07 C 141.75 128.98 140.95 129.63 140.86 130.53 C 140.77 131.43 141.43 132.23 142.32 132.32 L 143.31 132.42 C 144.21 132.51 145.01 131.86 145.10 130.96 C 145.19 130.06 144.53 129.26 143.64 129.17 Z M 142.67 129.07 L 141.65 128.95 C 140.75 128.85 139.94 129.50 139.84 130.40 C 139.74 131.29 140.38 132.10 141.28 132.21 L 142.30 132.32 C 143.20 132.42 144.01 131.78 144.12 130.88 C 144.22 129.98 143.57 129.17 142.67 129.07 Z M 141.66 128.95 L 140.63 128.83 C 139.73 128.72 138.92 129.36 138.81 130.26 C 138.70 131.16 139.34 131.97 140.24 132.08 L 141.27 132.20 C 142.16 132.31 142.98 131.67 143.09 130.78 C 143.20 129.88 142.56 129.06 141.66 128.95 Z M 140.64 128.83 L 139.64 128.70 C 138.74 128.59 137.92 129.23 137.81 130.12 C 137.70 131.02 138.33 131.84 139.23 131.95 L 140.23 132.08 C 141.12 132.19 141.94 131.56 142.06 130.66 C 142.17 129.76 141.54 128.94 140.64 128.83 Z M 139.64 128.70 L 138.61 128.57 C 137.72 128.46 136.89 129.09 136.78 129.99 C 136.66 130.88 137.30 131.71 138.19 131.82 L 139.22 131.95 C 140.12 132.07 140.94 131.43 141.06 130.54 C 141.17 129.64 140.54 128.82 139.64 128.70 Z M 138.61 128.57 L 137.51 128.43 C 136.61 128.31 135.79 128.95 135.67 129.85 C 135.56 130.75 136.20 131.57 137.09 131.68 L 138.20 131.82 C 139.10 131.94 139.92 131.30 140.03 130.40 C 140.15 129.50 139.51 128.68 138.61 128.57 Z M 137.49 128.42 L 136.51 128.31 C 135.61 128.20 134.79 128.84 134.68 129.75 C 134.57 130.65 135.22 131.47 136.12 131.57 L 137.11 131.69 C 138.01 131.80 138.83 131.15 138.94 130.25 C 139.04 129.35 138.40 128.53 137.49 128.42 Z M 136.48 128.30 L 135.58 128.21 C 134.67 128.12 133.86 128.78 133.77 129.69 C 133.68 130.59 134.34 131.40 135.25 131.49 L 136.15 131.58 C 137.06 131.67 137.87 131.01 137.96 130.10 C 138.05 129.20 137.39 128.39 136.48 128.30 Z M 135.53 128.20 L 134.61 128.13 C 133.70 128.07 132.90 128.75 132.84 129.67 C 132.77 130.58 133.46 131.37 134.37 131.44 L 135.30 131.50 C 136.21 131.57 137.00 130.88 137.07 129.97 C 137.13 129.05 136.44 128.26 135.53 128.20 Z M 134.55 128.12 L 133.56 128.08 C 132.64 128.05 131.87 128.77 131.84 129.69 C 131.80 130.60 132.52 131.38 133.44 131.41 L 134.43 131.45 C 135.35 131.48 136.12 130.76 136.15 129.85 C 136.19 128.93 135.47 128.15 134.55 128.12 Z M 133.52 128.07 L 132.53 128.06 C 131.61 128.05 130.85 128.79 130.83 129.71 C 130.82 130.64 131.56 131.40 132.49 131.41 L 133.48 131.42 C 134.41 131.43 135.17 130.69 135.18 129.77 C 135.19 128.84 134.45 128.08 133.52 128.07 Z M 132.51 128.05 L 131.50 128.05 C 130.57 128.04 129.81 128.80 129.81 129.73 C 129.81 130.66 130.57 131.42 131.50 131.42 L 132.51 131.42 C 133.44 131.42 134.20 130.67 134.20 129.74 C 134.20 128.80 133.44 128.05 132.51 128.05 Z M 131.50 128.03 L 130.50 128.03 C 129.56 128.03 128.80 128.80 128.80 129.74 C 128.80 130.68 129.56 131.44 130.50 131.44 L 131.50 131.44 C 132.44 131.44 133.20 130.67 133.20 129.73 C 133.20 128.79 132.44 128.03 131.50 128.03 Z M 130.49 128.01 L 129.48 128.02 C 128.53 128.02 127.76 128.80 127.77 129.75 C 127.77 130.70 128.55 131.47 129.50 131.46 L 130.51 131.46 C 131.46 131.45 132.23 130.68 132.23 129.73 C 132.22 128.77 131.45 128.01 130.49 128.01 Z M 129.47 128.00 L 128.47 128.01 C 127.50 128.02 126.73 128.81 126.74 129.78 C 126.76 130.74 127.55 131.51 128.51 131.50 L 129.51 131.48 C 130.48 131.47 131.25 130.68 131.23 129.72 C 131.22 128.75 130.43 127.98 129.47 128.00 Z M 128.43 127.95 L 127.21 127.99 C 126.22 128.03 125.44 128.86 125.47 129.85 C 125.50 130.85 126.34 131.63 127.33 131.59 L 128.55 131.55 C 129.54 131.52 130.32 130.69 130.29 129.69 C 130.26 128.70 129.42 127.92 128.43 127.95 Z M 126.96 127.90 L 125.95 128.07 C 124.91 128.24 124.20 129.22 124.37 130.27 C 124.54 131.31 125.52 132.02 126.57 131.85 L 127.58 131.68 C 128.62 131.51 129.33 130.53 129.16 129.49 C 128.99 128.44 128.01 127.73 126.96 127.90 Z M 124.66 128.71 L 124.35 129.11 C 123.65 129.99 123.81 131.27 124.69 131.96 C 125.57 132.65 126.85 132.50 127.54 131.62 L 127.86 131.21 C 128.55 130.33 128.39 129.05 127.51 128.36 C 126.63 127.67 125.36 127.82 124.66 128.71 Z M 124.19 131.48 L 124.58 132.10 C 125.20 133.07 126.49 133.35 127.45 132.73 C 128.42 132.11 128.71 130.83 128.09 129.86 L 127.70 129.24 C 127.08 128.27 125.79 127.99 124.82 128.61 C 123.85 129.23 123.57 130.51 124.19 131.48 Z M 124.93 132.52 L 125.79 133.30 C 126.64 134.07 127.96 134.01 128.74 133.16 C 129.51 132.30 129.44 130.98 128.59 130.21 L 127.74 129.43 C 126.88 128.66 125.56 128.73 124.79 129.58 C 124.02 130.43 124.08 131.75 124.93 132.52 Z M 125.92 133.41 L 126.86 134.13 C 127.78 134.84 129.09 134.66 129.79 133.75 C 130.49 132.83 130.32 131.52 129.40 130.82 L 128.46 130.10 C 127.55 129.40 126.24 129.57 125.54 130.48 C 124.83 131.40 125.01 132.71 125.92 133.41 Z M 126.91 134.17 L 127.72 134.75 C 128.65 135.43 129.96 135.21 130.63 134.28 C 131.31 133.34 131.09 132.04 130.16 131.36 L 129.35 130.78 C 128.42 130.11 127.11 130.32 126.44 131.26 C 125.76 132.19 125.98 133.50 126.91 134.17 Z M 127.74 134.77 L 128.57 135.35 C 129.51 136.01 130.82 135.78 131.48 134.84 C 132.14 133.90 131.91 132.59 130.97 131.93 L 130.14 131.35 C 129.19 130.69 127.89 130.91 127.23 131.86 C 126.57 132.80 126.79 134.10 127.74 134.77 Z M 128.57 135.35 L 129.40 135.93 C 130.35 136.59 131.65 136.36 132.31 135.42 C 132.97 134.47 132.74 133.17 131.80 132.51 L 130.97 131.93 C 130.02 131.27 128.72 131.50 128.06 132.44 C 127.40 133.39 127.63 134.69 128.57 135.35 Z M 129.39 135.92 L 130.21 136.50 C 131.14 137.17 132.44 136.96 133.11 136.02 C 133.78 135.08 133.57 133.78 132.63 133.11 L 131.81 132.53 C 130.88 131.86 129.57 132.07 128.91 133.01 C 128.24 133.94 128.45 135.25 129.39 135.92 Z M 130.19 136.46 L 131.00 137.07 C 131.92 137.75 133.21 137.56 133.89 136.64 C 134.57 135.73 134.38 134.44 133.46 133.76 L 132.65 133.15 C 131.73 132.47 130.44 132.66 129.76 133.58 C 129.08 134.49 129.27 135.79 130.19 136.46 Z M 131.00 137.03 L 131.79 137.63 C 132.68 138.31 133.96 138.14 134.64 137.25 C 135.32 136.36 135.15 135.08 134.26 134.40 L 133.47 133.80 C 132.58 133.11 131.30 133.28 130.62 134.18 C 129.93 135.07 130.10 136.35 131.00 137.03 Z M 131.79 137.60 L 132.57 138.20 C 133.45 138.88 134.71 138.72 135.39 137.85 C 136.06 136.97 135.91 135.71 135.03 135.03 L 134.25 134.43 C 133.37 133.75 132.11 133.91 131.43 134.79 C 130.76 135.66 130.92 136.92 131.79 137.60 Z M 132.59 138.18 L 133.36 138.78 C 134.22 139.45 135.46 139.29 136.13 138.43 C 136.80 137.56 136.64 136.32 135.78 135.65 L 135.01 135.06 C 134.15 134.39 132.91 134.54 132.24 135.41 C 131.57 136.27 131.73 137.51 132.59 138.18 Z M 133.39 138.76 L 134.14 139.34 C 135.00 139.99 136.22 139.83 136.87 138.98 C 137.53 138.13 137.36 136.91 136.51 136.25 L 135.75 135.67 C 134.90 135.02 133.68 135.18 133.02 136.03 C 132.37 136.88 132.53 138.10 133.39 138.76 Z M 134.18 139.32 L 134.97 139.92 C 135.81 140.55 137.01 140.38 137.64 139.54 C 138.28 138.70 138.11 137.50 137.27 136.86 L 136.48 136.27 C 135.63 135.63 134.44 135.80 133.80 136.65 C 133.17 137.49 133.33 138.69 134.18 139.32 Z M 135.00 139.90 L 135.83 140.51 C 136.67 141.13 137.84 140.95 138.46 140.11 C 139.07 139.27 138.89 138.10 138.06 137.48 L 137.23 136.88 C 136.39 136.26 135.22 136.44 134.60 137.28 C 133.99 138.11 134.17 139.29 135.00 139.90 Z M 135.87 140.50 L 136.72 141.11 C 137.55 141.70 138.71 141.51 139.30 140.68 C 139.89 139.85 139.70 138.70 138.87 138.10 L 138.02 137.50 C 137.19 136.90 136.03 137.10 135.44 137.93 C 134.85 138.75 135.04 139.91 135.87 140.50 Z M 136.76 141.10 L 137.58 141.66 C 138.40 142.23 139.53 142.03 140.10 141.20 C 140.67 140.38 140.47 139.25 139.64 138.68 L 138.83 138.11 C 138.00 137.54 136.87 137.75 136.30 138.57 C 135.73 139.40 135.94 140.53 136.76 141.10 Z M 137.62 141.66 L 138.47 142.22 C 139.29 142.76 140.40 142.54 140.94 141.72 C 141.49 140.90 141.26 139.79 140.44 139.24 L 139.60 138.68 C 138.78 138.14 137.67 138.36 137.12 139.18 C 136.58 140.00 136.80 141.11 137.62 141.66 Z M 138.52 142.22 L 139.38 142.76 C 140.20 143.27 141.28 143.03 141.80 142.21 C 142.32 141.38 142.07 140.30 141.25 139.78 L 140.39 139.24 C 139.57 138.72 138.48 138.97 137.97 139.79 C 137.45 140.61 137.70 141.70 138.52 142.22 Z M 139.44 142.76 L 140.30 143.27 C 141.12 143.75 142.18 143.47 142.66 142.65 C 143.15 141.83 142.87 140.77 142.05 140.28 L 141.19 139.78 C 140.36 139.30 139.30 139.57 138.82 140.39 C 138.34 141.22 138.61 142.28 139.44 142.76 Z M 140.37 143.28 L 141.27 143.76 C 142.10 144.20 143.13 143.89 143.57 143.06 C 144.02 142.23 143.70 141.20 142.87 140.75 L 141.98 140.27 C 141.15 139.83 140.11 140.14 139.67 140.97 C 139.23 141.80 139.54 142.83 140.37 143.28 Z M 141.34 143.77 L 142.26 144.22 C 143.10 144.62 144.11 144.27 144.51 143.43 C 144.91 142.59 144.56 141.58 143.72 141.18 L 142.80 140.74 C 141.96 140.33 140.96 140.69 140.55 141.52 C 140.15 142.36 140.50 143.37 141.34 143.77 Z M 142.32 144.23 L 143.23 144.63 C 144.08 145.00 145.06 144.61 145.43 143.77 C 145.80 142.92 145.42 141.94 144.57 141.57 L 143.66 141.17 C 142.82 140.80 141.83 141.18 141.46 142.03 C 141.09 142.87 141.48 143.86 142.32 144.23 Z M 143.27 144.63 L 144.17 145.00 C 145.02 145.35 145.99 144.95 146.34 144.10 C 146.68 143.26 146.28 142.29 145.44 141.94 L 144.53 141.57 C 143.69 141.22 142.72 141.62 142.37 142.47 C 142.02 143.31 142.43 144.28 143.27 144.63 Z M 144.19 144.99 L 144.85 145.26 C 145.70 145.60 146.65 145.19 146.99 144.35 C 147.33 143.50 146.92 142.55 146.08 142.21 L 145.42 141.95 C 144.58 141.61 143.62 142.02 143.28 142.86 C 142.94 143.70 143.35 144.66 144.19 144.99 Z"
      fill="black"
      fill-rule="nonzero" /><path d="M 161.04 132.77 L 160.14 133.20 C 158.92 133.78 158.41 135.24 158.99 136.45 C 159.58 137.66 161.03 138.18 162.25 137.59 L 163.14 137.16 C 164.36 136.58 164.87 135.12 164.29 133.91 C 163.71 132.70 162.25 132.19 161.04 132.77 Z M 160.12 133.21 L 159.22 133.65 C 158.01 134.24 157.51 135.70 158.11 136.91 C 158.70 138.12 160.16 138.62 161.37 138.02 L 162.26 137.59 C 163.47 136.99 163.97 135.53 163.38 134.32 C 162.79 133.12 161.33 132.62 160.12 133.21 Z M 159.19 133.66 L 158.30 134.12 C 157.10 134.73 156.62 136.20 157.23 137.39 C 157.84 138.59 159.31 139.07 160.51 138.46 L 161.40 138.01 C 162.60 137.40 163.08 135.93 162.47 134.73 C 161.86 133.53 160.39 133.05 159.19 133.66 Z M 158.25 134.14 L 157.36 134.62 C 156.18 135.26 155.74 136.74 156.37 137.92 C 157.01 139.11 158.49 139.55 159.68 138.91 L 160.56 138.43 C 161.74 137.80 162.19 136.32 161.55 135.13 C 160.91 133.95 159.43 133.51 158.25 134.14 Z M 157.31 134.66 L 156.43 135.17 C 155.27 135.84 154.87 137.32 155.54 138.48 C 156.21 139.64 157.69 140.04 158.85 139.37 L 159.73 138.87 C 160.89 138.20 161.29 136.72 160.62 135.56 C 159.95 134.39 158.47 133.99 157.31 134.66 Z M 156.40 135.21 L 155.54 135.73 C 154.40 136.42 154.03 137.90 154.72 139.03 C 155.41 140.17 156.88 140.54 158.02 139.85 L 158.89 139.33 C 160.02 138.64 160.39 137.17 159.70 136.03 C 159.02 134.89 157.54 134.52 156.40 135.21 Z M 155.52 135.76 L 154.68 136.29 C 153.56 136.98 153.21 138.45 153.90 139.57 C 154.59 140.69 156.06 141.04 157.19 140.34 L 158.03 139.82 C 159.16 139.13 159.50 137.66 158.81 136.54 C 158.12 135.42 156.65 135.07 155.52 135.76 Z M 154.68 136.31 L 153.85 136.83 C 152.74 137.51 152.40 138.97 153.08 140.08 C 153.77 141.19 155.23 141.53 156.34 140.84 L 157.18 140.32 C 158.29 139.64 158.63 138.18 157.94 137.07 C 157.25 135.96 155.79 135.62 154.68 136.31 Z M 153.87 136.84 L 153.01 137.37 C 151.91 138.05 151.56 139.49 152.24 140.59 C 152.91 141.69 154.35 142.03 155.45 141.36 L 156.32 140.83 C 157.42 140.15 157.76 138.71 157.09 137.61 C 156.41 136.51 154.97 136.17 153.87 136.84 Z M 153.04 137.40 L 152.18 137.91 C 151.10 138.57 150.75 139.99 151.41 141.08 C 152.07 142.16 153.49 142.51 154.58 141.85 L 155.43 141.33 C 156.51 140.67 156.86 139.25 156.20 138.17 C 155.54 137.08 154.12 136.74 153.04 137.40 Z M 152.20 137.94 L 151.36 138.46 C 150.29 139.11 149.95 140.50 150.59 141.57 C 151.24 142.64 152.64 142.98 153.71 142.33 L 154.56 141.82 C 155.63 141.17 155.97 139.78 155.32 138.71 C 154.67 137.63 153.28 137.29 152.20 137.94 Z M 151.37 138.49 L 150.55 138.98 C 149.50 139.63 149.17 141.00 149.81 142.05 C 150.45 143.11 151.82 143.44 152.88 142.80 L 153.69 142.30 C 154.75 141.66 155.08 140.29 154.44 139.23 C 153.80 138.18 152.42 137.85 151.37 138.49 Z M 150.57 139.01 L 149.78 139.49 C 148.74 140.13 148.41 141.48 149.04 142.52 C 149.68 143.56 151.03 143.89 152.07 143.26 L 152.86 142.77 C 153.90 142.14 154.23 140.78 153.60 139.75 C 152.96 138.71 151.61 138.38 150.57 139.01 Z M 149.80 139.51 L 148.97 140.02 C 147.94 140.64 147.61 141.98 148.23 143.00 C 148.85 144.03 150.19 144.36 151.21 143.74 L 152.05 143.24 C 153.08 142.62 153.41 141.28 152.79 140.25 C 152.17 139.22 150.83 138.89 149.80 139.51 Z M 149.00 140.03 L 148.09 140.57 C 147.07 141.17 146.74 142.49 147.34 143.51 C 147.94 144.53 149.26 144.86 150.28 144.26 L 151.18 143.72 C 152.20 143.12 152.54 141.81 151.93 140.79 C 151.33 139.77 150.02 139.43 149.00 140.03 Z M 148.13 140.58 L 147.21 141.11 C 146.20 141.69 145.85 142.99 146.44 144.00 C 147.02 145.01 148.32 145.36 149.33 144.77 L 150.24 144.25 C 151.25 143.66 151.60 142.37 151.02 141.36 C 150.43 140.35 149.14 140.00 148.13 140.58 Z M 147.25 141.12 L 146.42 141.59 C 145.41 142.16 145.06 143.43 145.62 144.43 C 146.19 145.44 147.46 145.79 148.47 145.23 L 149.29 144.76 C 150.30 144.20 150.65 142.92 150.09 141.92 C 149.52 140.91 148.25 140.56 147.25 141.12 Z M 146.45 141.60 L 145.58 142.08 C 144.58 142.63 144.22 143.89 144.77 144.88 C 145.32 145.88 146.57 146.24 147.57 145.69 L 148.44 145.21 C 149.43 144.66 149.80 143.41 149.25 142.41 C 148.70 141.42 147.44 141.05 146.45 141.60 Z M 145.60 142.10 L 144.70 142.59 C 143.71 143.12 143.34 144.35 143.88 145.34 C 144.41 146.33 145.65 146.70 146.64 146.17 L 147.54 145.68 C 148.53 145.15 148.90 143.91 148.36 142.92 C 147.83 141.93 146.59 141.56 145.60 142.10 Z M 144.73 142.60 L 143.82 143.08 C 142.84 143.60 142.46 144.82 142.98 145.80 C 143.50 146.78 144.71 147.15 145.69 146.64 L 146.61 146.15 C 147.59 145.63 147.96 144.42 147.45 143.44 C 146.93 142.46 145.71 142.08 144.73 142.60 Z M 143.85 143.10 L 142.93 143.57 C 141.96 144.07 141.58 145.26 142.08 146.24 C 142.58 147.21 143.77 147.59 144.75 147.09 L 145.66 146.62 C 146.64 146.12 147.02 144.93 146.52 143.95 C 146.02 142.98 144.82 142.59 143.85 143.10 Z M 142.97 143.58 L 142.07 144.03 C 141.11 144.51 140.71 145.69 141.20 146.65 C 141.68 147.62 142.85 148.01 143.82 147.52 L 144.71 147.08 C 145.68 146.59 146.07 145.42 145.59 144.46 C 145.11 143.49 143.93 143.10 142.97 143.58 Z M 142.11 144.05 L 141.22 144.48 C 140.26 144.94 139.86 146.09 140.32 147.04 C 140.78 148.00 141.93 148.40 142.89 147.94 L 143.78 147.51 C 144.73 147.05 145.13 145.90 144.67 144.94 C 144.21 143.99 143.06 143.59 142.11 144.05 Z M 141.26 144.50 L 140.36 144.91 C 139.42 145.35 139.01 146.47 139.44 147.42 C 139.88 148.36 141.00 148.77 141.95 148.34 L 142.84 147.92 C 143.79 147.48 144.20 146.36 143.76 145.41 C 143.33 144.47 142.20 144.06 141.26 144.50 Z M 140.41 144.93 L 139.50 145.33 C 138.56 145.74 138.14 146.84 138.55 147.78 C 138.96 148.71 140.06 149.14 141.00 148.72 L 141.91 148.32 C 142.84 147.90 143.27 146.81 142.85 145.87 C 142.44 144.94 141.34 144.51 140.41 144.93 Z M 139.54 145.35 L 138.61 145.74 C 137.68 146.13 137.24 147.20 137.63 148.13 C 138.02 149.05 139.09 149.49 140.02 149.10 L 140.95 148.70 C 141.88 148.31 142.31 147.25 141.92 146.32 C 141.53 145.39 140.47 144.96 139.54 145.35 Z M 138.65 145.75 L 137.71 146.13 C 136.80 146.49 136.35 147.54 136.72 148.46 C 137.08 149.38 138.13 149.82 139.05 149.46 L 139.98 149.08 C 140.90 148.72 141.34 147.67 140.98 146.75 C 140.61 145.83 139.57 145.39 138.65 145.75 Z M 137.75 146.14 L 136.81 146.49 C 135.90 146.84 135.44 147.86 135.78 148.78 C 136.13 149.69 137.16 150.15 138.07 149.80 L 139.01 149.45 C 139.92 149.10 140.38 148.08 140.04 147.16 C 139.69 146.25 138.67 145.79 137.75 146.14 Z M 136.85 146.50 L 135.89 146.84 C 134.98 147.17 134.51 148.18 134.84 149.09 C 135.16 150.00 136.17 150.47 137.08 150.14 L 138.04 149.80 C 138.95 149.47 139.42 148.47 139.09 147.55 C 138.76 146.64 137.76 146.17 136.85 146.50 Z M 135.93 146.85 L 134.97 147.18 C 134.06 147.48 133.58 148.47 133.88 149.38 C 134.19 150.28 135.18 150.77 136.08 150.46 L 137.04 150.14 C 137.95 149.83 138.44 148.84 138.13 147.93 C 137.82 147.03 136.84 146.54 135.93 146.85 Z M 135.01 147.18 L 134.05 147.48 C 133.15 147.77 132.65 148.74 132.94 149.64 C 133.22 150.54 134.19 151.04 135.09 150.76 L 136.05 150.45 C 136.95 150.17 137.45 149.20 137.16 148.30 C 136.88 147.40 135.91 146.90 135.01 147.18 Z M 134.10 147.49 L 133.16 147.77 C 132.26 148.03 131.74 148.97 132.01 149.87 C 132.27 150.77 133.22 151.29 134.12 151.02 L 135.05 150.75 C 135.95 150.49 136.47 149.54 136.20 148.64 C 135.94 147.74 135.00 147.23 134.10 147.49 Z M 133.21 147.77 L 132.14 148.05 C 131.24 148.29 130.71 149.21 130.94 150.11 C 131.18 151.01 132.10 151.54 133.00 151.30 L 134.07 151.02 C 134.97 150.79 135.50 149.86 135.27 148.96 C 135.03 148.07 134.11 147.53 133.21 147.77 Z M 132.19 148.05 L 131.16 148.29 C 130.26 148.50 129.71 149.40 129.92 150.30 C 130.13 151.20 131.03 151.76 131.93 151.55 L 132.95 151.31 C 133.85 151.10 134.41 150.20 134.20 149.30 C 133.99 148.40 133.09 147.84 132.19 148.05 Z M 131.21 148.29 L 130.23 148.49 C 129.33 148.68 128.75 149.56 128.94 150.46 C 129.13 151.35 130.01 151.93 130.90 151.75 L 131.88 151.55 C 132.78 151.36 133.36 150.48 133.18 149.58 C 132.99 148.68 132.11 148.10 131.21 148.29 Z M 130.27 148.49 L 129.35 148.66 C 128.45 148.82 127.85 149.68 128.02 150.58 C 128.18 151.48 129.04 152.08 129.94 151.91 L 130.86 151.75 C 131.76 151.58 132.36 150.72 132.20 149.82 C 132.03 148.93 131.17 148.33 130.27 148.49 Z M 129.39 148.66 L 128.47 148.81 C 127.58 148.95 126.96 149.79 127.11 150.69 C 127.25 151.58 128.09 152.20 128.99 152.05 L 129.90 151.91 C 130.80 151.77 131.41 150.93 131.27 150.03 C 131.13 149.13 130.28 148.52 129.39 148.66 Z M 128.51 148.81 L 127.45 148.95 C 126.56 149.07 125.93 149.89 126.05 150.79 C 126.17 151.69 126.99 152.32 127.89 152.20 L 128.95 152.05 C 129.84 151.93 130.47 151.11 130.35 150.21 C 130.23 149.32 129.41 148.69 128.51 148.81 Z M 127.49 148.94 L 126.50 149.05 C 125.60 149.15 124.96 149.96 125.06 150.86 C 125.16 151.76 125.97 152.41 126.87 152.31 L 127.85 152.20 C 128.75 152.10 129.40 151.29 129.30 150.39 C 129.20 149.49 128.39 148.84 127.49 148.94 Z M 126.53 149.05 L 125.58 149.14 C 124.68 149.23 124.02 150.03 124.11 150.93 C 124.20 151.83 125.00 152.49 125.90 152.40 L 126.84 152.31 C 127.74 152.22 128.40 151.42 128.31 150.52 C 128.23 149.62 127.43 148.96 126.53 149.05 Z M 125.59 149.14 L 125.15 149.18 C 124.25 149.26 123.59 150.06 123.67 150.96 C 123.75 151.86 124.55 152.53 125.45 152.44 L 125.89 152.40 C 126.79 152.32 127.45 151.52 127.37 150.62 C 127.29 149.72 126.49 149.06 125.59 149.14 Z"
      fill="black"
      fill-rule="nonzero" /><path d="M 114.06 152.20 L 112.70 152.20 C 111.51 152.20 110.55 153.16 110.55 154.35 C 110.55 155.54 111.51 156.50 112.70 156.50 L 114.06 156.50 C 115.25 156.50 116.21 155.54 116.21 154.35 C 116.21 153.16 115.25 152.20 114.06 152.20 Z M 112.70 152.02 L 112.18 152.02 C 110.89 152.02 109.84 153.06 109.84 154.35 C 109.84 155.64 110.89 156.68 112.18 156.68 L 112.70 156.68 C 113.99 156.68 115.03 155.64 115.03 154.35 C 115.03 153.06 113.99 152.02 112.70 152.02 Z M 112.18 156.79 L 112.71 156.79 C 114.06 156.79 115.15 155.70 115.15 154.35 C 115.15 153.00 114.06 151.91 112.71 151.91 L 112.18 151.91 C 110.83 151.91 109.74 153.00 109.74 154.35 C 109.74 155.70 110.83 156.79 112.18 156.79 Z M 112.71 156.82 L 113.82 156.82 C 115.18 156.82 116.29 155.72 116.29 154.35 C 116.29 152.99 115.18 151.88 113.82 151.88 L 112.71 151.88 C 111.35 151.88 110.24 152.99 110.24 154.35 C 110.24 155.72 111.35 156.82 112.71 156.82 Z M 113.82 156.85 L 115.13 156.85 C 116.51 156.85 117.63 155.73 117.63 154.35 C 117.63 152.97 116.51 151.85 115.13 151.85 L 113.82 151.85 C 112.44 151.85 111.32 152.97 111.32 154.35 C 111.32 155.73 112.44 156.85 113.82 156.85 Z M 115.13 156.87 L 116.01 156.87 C 117.40 156.86 118.53 155.74 118.52 154.35 C 118.52 152.96 117.39 151.83 116.01 151.84 L 115.12 151.84 C 113.74 151.84 112.61 152.97 112.61 154.35 C 112.61 155.74 113.74 156.87 115.13 156.87 Z M 116.03 156.87 L 116.94 156.86 C 118.33 156.85 119.45 155.72 119.44 154.33 C 119.43 152.94 118.29 151.82 116.90 151.83 L 115.99 151.83 C 114.60 151.84 113.48 152.98 113.49 154.37 C 113.50 155.76 114.64 156.88 116.03 156.87 Z M 116.97 156.86 L 117.96 156.85 C 119.35 156.82 120.46 155.67 120.44 154.28 C 120.41 152.89 119.26 151.78 117.87 151.81 L 116.88 151.82 C 115.49 151.85 114.38 153.00 114.40 154.39 C 114.43 155.78 115.57 156.89 116.97 156.86 Z M 117.99 156.85 L 119.12 156.81 C 120.51 156.77 121.61 155.61 121.57 154.22 C 121.52 152.82 120.36 151.73 118.97 151.77 L 117.84 151.80 C 116.45 151.85 115.35 153.01 115.40 154.40 C 115.44 155.79 116.60 156.89 117.99 156.85 Z M 119.15 156.81 L 120.20 156.77 C 121.59 156.71 122.68 155.54 122.62 154.15 C 122.56 152.75 121.39 151.67 119.99 151.73 L 118.94 151.77 C 117.55 151.83 116.47 153.00 116.52 154.40 C 116.58 155.79 117.76 156.87 119.15 156.81 Z M 120.22 156.77 L 121.22 156.72 C 122.61 156.66 123.69 155.47 123.62 154.08 C 123.55 152.69 122.37 151.61 120.97 151.68 L 119.97 151.73 C 118.58 151.79 117.51 152.98 117.57 154.37 C 117.64 155.76 118.83 156.84 120.22 156.77 Z M 121.23 156.72 L 122.28 156.67 C 123.67 156.59 124.74 155.40 124.66 154.01 C 124.59 152.62 123.40 151.55 122.00 151.62 L 120.96 151.68 C 119.57 151.75 118.50 152.94 118.57 154.34 C 118.65 155.73 119.84 156.80 121.23 156.72 Z M 122.29 156.67 L 123.34 156.60 C 124.73 156.52 125.80 155.33 125.72 153.94 C 125.63 152.54 124.44 151.48 123.05 151.56 L 121.99 151.62 C 120.60 151.70 119.54 152.90 119.62 154.29 C 119.70 155.68 120.89 156.75 122.29 156.67 Z M 123.35 156.60 L 124.38 156.54 C 125.77 156.45 126.83 155.26 126.74 153.86 C 126.66 152.47 125.46 151.41 124.07 151.50 L 123.04 151.56 C 121.65 151.65 120.59 152.85 120.67 154.24 C 120.76 155.63 121.96 156.69 123.35 156.60 Z M 124.39 156.54 L 125.36 156.48 C 126.75 156.38 127.80 155.18 127.71 153.79 C 127.62 152.40 126.42 151.34 125.03 151.44 L 124.06 151.50 C 122.66 151.59 121.61 152.79 121.70 154.19 C 121.80 155.58 123.00 156.63 124.39 156.54 Z M 125.37 156.47 L 126.42 156.40 C 127.81 156.30 128.86 155.09 128.76 153.70 C 128.66 152.31 127.45 151.26 126.06 151.36 L 125.01 151.44 C 123.62 151.54 122.57 152.74 122.67 154.13 C 122.77 155.53 123.98 156.57 125.37 156.47 Z M 126.44 156.40 L 127.59 156.30 C 128.98 156.19 130.02 154.98 129.91 153.59 C 129.80 152.20 128.58 151.16 127.19 151.27 L 126.04 151.37 C 124.65 151.48 123.62 152.69 123.73 154.08 C 123.84 155.47 125.05 156.51 126.44 156.40 Z M 127.62 156.30 L 128.58 156.21 C 129.97 156.08 130.99 154.85 130.86 153.47 C 130.73 152.08 129.51 151.06 128.12 151.19 L 127.16 151.28 C 125.78 151.41 124.76 152.64 124.88 154.02 C 125.01 155.41 126.24 156.42 127.62 156.30 Z M 128.62 156.20 L 129.47 156.11 C 130.85 155.96 131.85 154.72 131.71 153.34 C 131.56 151.96 130.32 150.96 128.94 151.11 L 128.09 151.20 C 126.71 151.35 125.71 152.59 125.85 153.97 C 126.00 155.35 127.24 156.35 128.62 156.20 Z M 129.50 156.10 L 130.38 156.00 C 131.76 155.84 132.74 154.59 132.58 153.21 C 132.41 151.83 131.16 150.85 129.79 151.01 L 128.91 151.12 C 127.53 151.28 126.55 152.53 126.71 153.91 C 126.88 155.28 128.12 156.27 129.50 156.10 Z M 130.40 155.99 L 131.36 155.87 C 132.74 155.70 133.71 154.44 133.54 153.07 C 133.36 151.70 132.11 150.72 130.74 150.90 L 129.77 151.02 C 128.40 151.19 127.42 152.45 127.60 153.82 C 127.77 155.19 129.03 156.17 130.40 155.99 Z M 131.37 155.86 L 132.37 155.73 C 133.74 155.56 134.71 154.30 134.53 152.93 C 134.35 151.56 133.10 150.59 131.72 150.77 L 130.73 150.90 C 129.36 151.08 128.39 152.34 128.57 153.71 C 128.75 155.08 130.00 156.04 131.37 155.86 Z M 132.37 155.73 L 133.40 155.60 C 134.77 155.42 135.73 154.17 135.56 152.80 C 135.38 151.43 134.13 150.47 132.76 150.64 L 131.73 150.78 C 130.36 150.95 129.39 152.21 129.57 153.57 C 129.75 154.94 131.00 155.91 132.37 155.73 Z M 133.39 155.59 L 134.37 155.47 C 135.74 155.30 136.70 154.05 136.53 152.68 C 136.36 151.32 135.11 150.35 133.75 150.52 L 132.77 150.65 C 131.40 150.82 130.43 152.07 130.61 153.43 C 130.78 154.80 132.03 155.77 133.39 155.59 Z M 134.37 155.46 L 135.37 155.34 C 136.73 155.16 137.70 153.92 137.52 152.56 C 137.35 151.19 136.10 150.23 134.74 150.40 L 133.74 150.53 C 132.38 150.70 131.42 151.95 131.59 153.31 C 131.76 154.67 133.01 155.64 134.37 155.46 Z M 135.38 155.33 L 136.38 155.20 C 137.74 155.02 138.69 153.77 138.51 152.41 C 138.33 151.05 137.09 150.10 135.73 150.28 L 134.73 150.41 C 133.37 150.59 132.41 151.84 132.59 153.20 C 132.77 154.55 134.02 155.51 135.38 155.33 Z M 136.40 155.19 L 137.40 155.05 C 138.75 154.85 139.69 153.60 139.50 152.25 C 139.31 150.89 138.06 149.95 136.70 150.14 L 135.70 150.29 C 134.35 150.48 133.41 151.73 133.60 153.09 C 133.80 154.44 135.05 155.38 136.40 155.19 Z M 137.43 155.03 L 138.43 154.88 C 139.78 154.67 140.70 153.41 140.49 152.06 C 140.28 150.71 139.02 149.79 137.67 150.00 L 136.67 150.16 C 135.32 150.37 134.40 151.63 134.61 152.98 C 134.82 154.32 136.08 155.24 137.43 155.03 Z M 138.45 154.87 L 139.44 154.71 C 140.78 154.48 141.69 153.22 141.46 151.87 C 141.24 150.53 139.97 149.63 138.63 149.85 L 137.65 150.01 C 136.31 150.23 135.40 151.50 135.62 152.84 C 135.84 154.18 137.11 155.09 138.45 154.87 Z M 139.45 154.70 L 140.43 154.53 C 141.76 154.30 142.66 153.03 142.43 151.69 C 142.20 150.36 140.93 149.46 139.59 149.69 L 138.62 149.86 C 137.28 150.09 136.39 151.36 136.62 152.69 C 136.85 154.03 138.11 154.93 139.45 154.70 Z M 140.43 154.52 L 141.41 154.35 C 142.74 154.12 143.63 152.85 143.40 151.52 C 143.17 150.19 141.90 149.30 140.57 149.53 L 139.59 149.70 C 138.26 149.93 137.37 151.20 137.60 152.53 C 137.83 153.86 139.10 154.75 140.43 154.52 Z M 141.41 154.34 L 142.39 154.17 C 143.72 153.94 144.61 152.68 144.38 151.35 C 144.15 150.02 142.88 149.14 141.56 149.37 L 140.57 149.54 C 139.25 149.77 138.36 151.03 138.59 152.36 C 138.82 153.68 140.08 154.57 141.41 154.34 Z M 142.39 154.16 L 143.38 153.99 C 144.70 153.76 145.58 152.50 145.35 151.18 C 145.12 149.86 143.87 148.97 142.55 149.20 L 141.56 149.38 C 140.24 149.61 139.35 150.86 139.58 152.18 C 139.81 153.50 141.07 154.39 142.39 154.16 Z M 143.38 153.98 L 144.36 153.81 C 145.68 153.58 146.56 152.33 146.33 151.01 C 146.10 149.69 144.85 148.81 143.53 149.04 L 142.55 149.21 C 141.23 149.44 140.35 150.69 140.58 152.01 C 140.81 153.33 142.06 154.21 143.38 153.98 Z M 144.36 153.80 L 145.35 153.62 C 146.66 153.39 147.54 152.15 147.31 150.84 C 147.08 149.53 145.83 148.65 144.52 148.88 L 143.53 149.05 C 142.22 149.28 141.35 150.53 141.57 151.84 C 141.80 153.15 143.05 154.03 144.36 153.80 Z M 145.36 153.61 L 146.35 153.44 C 147.65 153.20 148.52 151.96 148.28 150.65 C 148.05 149.35 146.81 148.48 145.50 148.72 L 144.52 148.89 C 143.21 149.12 142.34 150.37 142.58 151.67 C 142.81 152.98 144.06 153.84 145.36 153.61 Z M 146.36 153.42 L 147.34 153.24 C 148.64 153.00 149.49 151.75 149.25 150.45 C 149.01 149.16 147.76 148.30 146.47 148.55 L 145.49 148.73 C 144.19 148.97 143.34 150.22 143.58 151.51 C 143.82 152.81 145.07 153.66 146.36 153.42 Z M 147.37 153.22 L 148.36 153.03 C 149.64 152.77 150.48 151.52 150.22 150.23 C 149.96 148.94 148.71 148.11 147.43 148.37 L 146.44 148.56 C 145.15 148.82 144.32 150.07 144.57 151.36 C 144.83 152.64 146.08 153.48 147.37 153.22 Z M 148.38 153.01 L 149.37 152.80 C 150.65 152.53 151.47 151.27 151.20 150.00 C 150.93 148.72 149.67 147.90 148.40 148.17 L 147.40 148.38 C 146.12 148.65 145.31 149.91 145.58 151.18 C 145.85 152.46 147.10 153.28 148.38 153.01 Z M 149.38 152.79 L 150.36 152.57 C 151.63 152.30 152.44 151.04 152.16 149.77 C 151.88 148.50 150.63 147.70 149.36 147.97 L 148.38 148.19 C 147.11 148.46 146.31 149.72 146.59 150.99 C 146.86 152.26 148.11 153.06 149.38 152.79 Z M 150.36 152.56 L 151.31 152.36 C 152.57 152.08 153.38 150.83 153.10 149.57 C 152.83 148.31 151.58 147.50 150.32 147.78 L 149.36 147.98 C 148.10 148.26 147.30 149.51 147.57 150.77 C 147.84 152.03 149.09 152.84 150.36 152.56 Z M 151.29 152.35 L 152.28 152.14 C 153.54 151.87 154.34 150.64 154.08 149.38 C 153.81 148.12 152.57 147.31 151.31 147.58 L 150.33 147.79 C 149.07 148.05 148.27 149.29 148.53 150.55 C 148.80 151.81 150.03 152.61 151.29 152.35 Z M 152.27 152.13 L 153.24 151.93 C 154.49 151.67 155.30 150.44 155.04 149.19 C 154.78 147.93 153.55 147.13 152.30 147.39 L 151.32 147.59 C 150.07 147.85 149.27 149.08 149.53 150.33 C 149.79 151.58 151.01 152.39 152.27 152.13 Z M 153.24 151.91 L 154.22 151.71 C 155.46 151.45 156.26 150.23 156.00 148.98 C 155.74 147.73 154.52 146.94 153.27 147.20 L 152.29 147.40 C 151.05 147.66 150.25 148.88 150.51 150.13 C 150.77 151.38 151.99 152.18 153.24 151.91 Z M 154.23 151.70 L 155.16 151.49 C 156.40 151.23 157.18 150.01 156.92 148.77 C 156.65 147.53 155.43 146.74 154.19 147.01 L 153.26 147.21 C 152.02 147.48 151.24 148.70 151.50 149.94 C 151.77 151.18 152.99 151.96 154.23 151.70 Z M 155.17 151.48 L 156.11 151.27 C 157.34 151.00 158.12 149.78 157.84 148.55 C 157.57 147.31 156.35 146.54 155.12 146.81 L 154.18 147.02 C 152.95 147.30 152.17 148.52 152.44 149.75 C 152.72 150.98 153.94 151.76 155.17 151.48 Z M 156.12 151.26 L 157.11 151.03 C 158.34 150.75 159.10 149.53 158.82 148.31 C 158.54 147.08 157.32 146.32 156.10 146.60 L 155.11 146.83 C 153.88 147.11 153.12 148.33 153.40 149.55 C 153.68 150.77 154.90 151.54 156.12 151.26 Z M 157.12 151.02 L 158.15 150.78 C 159.36 150.49 160.12 149.28 159.83 148.06 C 159.55 146.84 158.33 146.09 157.12 146.37 L 156.09 146.61 C 154.88 146.90 154.12 148.11 154.40 149.33 C 154.69 150.55 155.91 151.30 157.12 151.02 Z M 158.15 150.76 L 159.03 150.56 C 160.24 150.27 160.99 149.06 160.70 147.85 C 160.42 146.64 159.21 145.89 158.00 146.18 L 157.12 146.39 C 155.91 146.67 155.16 147.88 155.44 149.09 C 155.73 150.30 156.94 151.05 158.15 150.76 Z M 159.02 150.54 L 159.96 150.32 C 161.16 150.04 161.90 148.84 161.62 147.64 C 161.34 146.44 160.14 145.69 158.94 145.98 L 158.00 146.19 C 156.80 146.48 156.06 147.68 156.34 148.88 C 156.62 150.08 157.82 150.82 159.02 150.54 Z M 159.94 150.31 L 160.93 150.08 C 162.13 149.81 162.87 148.62 162.60 147.43 C 162.33 146.24 161.14 145.49 159.95 145.76 L 158.96 145.99 C 157.76 146.26 157.02 147.45 157.29 148.64 C 157.56 149.84 158.75 150.58 159.94 150.31 Z M 160.91 150.07 L 161.96 149.84 C 163.15 149.58 163.90 148.41 163.64 147.22 C 163.38 146.03 162.21 145.28 161.02 145.54 L 159.97 145.77 C 158.78 146.03 158.03 147.21 158.29 148.39 C 158.55 149.58 159.73 150.33 160.91 150.07 Z M 161.94 149.83 L 163.11 149.58 C 164.30 149.34 165.05 148.18 164.81 147.00 C 164.56 145.82 163.40 145.06 162.22 145.31 L 161.05 145.56 C 159.87 145.80 159.11 146.96 159.36 148.14 C 159.60 149.32 160.76 150.07 161.94 149.83 Z M 163.10 149.57 L 164.33 149.32 C 165.50 149.08 166.26 147.94 166.02 146.77 C 165.79 145.60 164.64 144.84 163.47 145.08 L 162.24 145.32 C 161.07 145.56 160.31 146.70 160.55 147.88 C 160.78 149.05 161.93 149.81 163.10 149.57 Z M 164.34 149.30 L 165.43 149.07 C 166.59 148.83 167.33 147.69 167.09 146.53 C 166.85 145.37 165.71 144.63 164.55 144.87 L 163.46 145.10 C 162.30 145.34 161.56 146.47 161.80 147.63 C 162.04 148.80 163.18 149.54 164.34 149.30 Z M 165.48 149.04 L 166.28 148.85 C 167.43 148.58 168.13 147.44 167.86 146.29 C 167.59 145.15 166.45 144.44 165.30 144.71 L 164.50 144.90 C 163.36 145.17 162.65 146.32 162.92 147.46 C 163.19 148.60 164.34 149.31 165.48 149.04 Z M 166.63 148.69 L 167.01 148.52 C 168.07 148.06 168.55 146.83 168.09 145.78 C 167.63 144.72 166.40 144.24 165.34 144.70 L 164.96 144.87 C 163.90 145.33 163.42 146.56 163.88 147.62 C 164.34 148.67 165.57 149.15 166.63 148.69 Z M 166.54 144.67 L 165.86 144.55 C 164.79 144.35 163.76 145.06 163.56 146.13 C 163.37 147.20 164.07 148.23 165.14 148.43 L 165.82 148.55 C 166.89 148.75 167.92 148.04 168.12 146.97 C 168.32 145.90 167.61 144.87 166.54 144.67 Z M 165.68 144.68 L 164.37 144.55 C 163.37 144.45 162.48 145.18 162.38 146.18 C 162.29 147.18 163.02 148.07 164.02 148.17 L 165.33 148.30 C 166.33 148.39 167.22 147.66 167.31 146.66 C 167.41 145.66 166.68 144.77 165.68 144.68 Z M 164.50 144.66 L 163.50 144.48 C 162.56 144.31 161.66 144.94 161.49 145.88 C 161.32 146.82 161.95 147.72 162.89 147.88 L 163.89 148.06 C 164.83 148.23 165.73 147.60 165.89 146.66 C 166.06 145.72 165.44 144.83 164.50 144.66 Z M 163.65 144.55 L 162.69 144.29 C 161.79 144.04 160.86 144.56 160.61 145.46 C 160.36 146.36 160.88 147.30 161.78 147.55 L 162.74 147.81 C 163.64 148.06 164.57 147.53 164.82 146.63 C 165.07 145.73 164.55 144.80 163.65 144.55 Z M 162.84 144.37 L 161.92 144.02 C 161.07 143.68 160.11 144.10 159.78 144.96 C 159.45 145.81 159.87 146.77 160.72 147.10 L 161.63 147.46 C 162.49 147.79 163.45 147.37 163.78 146.52 C 164.11 145.67 163.69 144.71 162.84 144.37 Z M 162.06 144.10 L 161.22 143.67 C 160.41 143.26 159.43 143.58 159.02 144.39 C 158.61 145.20 158.93 146.18 159.74 146.59 L 160.58 147.02 C 161.39 147.43 162.37 147.11 162.78 146.30 C 163.19 145.49 162.87 144.51 162.06 144.10 Z M 161.33 143.73 L 160.48 143.22 C 159.71 142.75 158.70 143.00 158.23 143.77 C 157.76 144.54 158.01 145.55 158.78 146.02 L 159.63 146.53 C 160.40 147.00 161.41 146.75 161.88 145.98 C 162.35 145.21 162.10 144.20 161.33 143.73 Z M 160.55 143.26 L 159.68 142.67 C 158.93 142.17 157.92 142.36 157.41 143.11 C 156.90 143.86 157.10 144.88 157.84 145.38 L 158.71 145.97 C 159.46 146.48 160.48 146.29 160.99 145.54 C 161.50 144.79 161.30 143.77 160.55 143.26 Z M 159.72 142.70 L 158.90 142.11 C 158.17 141.58 157.15 141.75 156.62 142.48 C 156.09 143.22 156.26 144.24 156.99 144.77 L 157.81 145.36 C 158.54 145.89 159.56 145.72 160.09 144.99 C 160.62 144.25 160.45 143.23 159.72 142.70 Z M 158.93 142.14 L 158.12 141.52 C 157.40 140.98 156.38 141.12 155.83 141.84 C 155.29 142.56 155.43 143.59 156.15 144.13 L 156.96 144.75 C 157.68 145.29 158.71 145.15 159.25 144.43 C 159.80 143.71 159.66 142.68 158.93 142.14 Z M 158.16 141.55 L 157.37 140.92 C 156.67 140.35 155.64 140.46 155.07 141.16 C 154.50 141.87 154.61 142.90 155.32 143.46 L 156.11 144.10 C 156.81 144.67 157.84 144.56 158.41 143.85 C 158.98 143.15 158.87 142.12 158.16 141.55 Z M 157.42 140.96 L 156.69 140.31 C 156.01 139.72 154.97 139.78 154.38 140.46 C 153.78 141.15 153.85 142.18 154.53 142.77 L 155.27 143.42 C 155.95 144.02 156.98 143.95 157.58 143.27 C 158.17 142.59 158.10 141.55 157.42 140.96 Z M 156.75 140.38 L 156.05 139.68 C 155.41 139.05 154.37 139.06 153.74 139.71 C 153.10 140.35 153.11 141.39 153.76 142.02 L 154.46 142.71 C 155.10 143.34 156.14 143.34 156.77 142.69 C 157.41 142.05 157.40 141.01 156.75 140.38 Z M 156.13 139.77 L 155.49 139.04 C 154.89 138.37 153.86 138.30 153.18 138.90 C 152.50 139.50 152.44 140.53 153.04 141.21 L 153.68 141.94 C 154.27 142.61 155.31 142.68 155.99 142.08 C 156.67 141.48 156.73 140.45 156.13 139.77 Z M 155.57 139.13 L 154.95 138.33 C 154.40 137.61 153.37 137.47 152.66 138.02 C 151.94 138.57 151.80 139.59 152.35 140.31 L 152.96 141.12 C 153.51 141.84 154.54 141.98 155.26 141.43 C 155.98 140.88 156.11 139.85 155.57 139.13 Z M 155.00 138.40 L 154.45 137.58 C 153.94 136.83 152.92 136.64 152.17 137.14 C 151.43 137.65 151.23 138.67 151.74 139.42 L 152.29 140.24 C 152.80 140.99 153.82 141.18 154.57 140.67 C 155.32 140.17 155.51 139.15 155.00 138.40 Z M 154.48 137.63 L 153.96 136.79 C 153.48 136.03 152.47 135.79 151.70 136.27 C 150.94 136.75 150.70 137.76 151.18 138.52 L 151.70 139.36 C 152.18 140.13 153.19 140.37 153.96 139.89 C 154.72 139.41 154.96 138.40 154.48 137.63 Z M 153.99 136.84 L 153.47 135.95 C 153.02 135.17 152.02 134.90 151.24 135.36 C 150.45 135.81 150.19 136.81 150.64 137.59 L 151.15 138.48 C 151.61 139.26 152.61 139.53 153.39 139.07 C 154.17 138.62 154.44 137.62 153.99 136.84 Z M 153.50 135.99 L 153.01 135.09 C 152.58 134.30 151.59 134.00 150.79 134.43 C 149.99 134.86 149.70 135.85 150.13 136.65 L 150.62 137.55 C 151.05 138.35 152.04 138.64 152.83 138.21 C 153.63 137.78 153.93 136.79 153.50 135.99 Z M 153.03 135.14 L 152.57 134.22 C 152.17 133.41 151.18 133.09 150.37 133.49 C 149.57 133.90 149.24 134.88 149.65 135.69 L 150.11 136.61 C 150.51 137.41 151.50 137.74 152.30 137.34 C 153.11 136.93 153.44 135.95 153.03 135.14 Z M 152.60 134.27 L 152.17 133.34 C 151.79 132.52 150.82 132.16 149.99 132.54 C 149.17 132.92 148.81 133.90 149.19 134.72 L 149.62 135.64 C 150.00 136.47 150.98 136.82 151.80 136.44 C 152.62 136.06 152.98 135.09 152.60 134.27 Z M 152.19 133.38 L 151.80 132.48 C 151.44 131.64 150.48 131.26 149.65 131.62 C 148.81 131.97 148.43 132.94 148.78 133.77 L 149.17 134.68 C 149.53 135.51 150.50 135.90 151.33 135.54 C 152.16 135.18 152.55 134.22 152.19 133.38 Z M 151.82 132.51 L 151.45 131.60 C 151.11 130.76 150.15 130.36 149.31 130.70 C 148.47 131.04 148.06 131.99 148.40 132.83 L 148.77 133.74 C 149.11 134.58 150.07 134.99 150.91 134.65 C 151.75 134.31 152.16 133.35 151.82 132.51 Z M 151.46 131.62 L 151.11 130.73 C 150.78 129.88 149.83 129.46 148.98 129.80 C 148.13 130.13 147.72 131.08 148.05 131.93 L 148.39 132.82 C 148.72 133.66 149.68 134.08 150.52 133.75 C 151.37 133.42 151.79 132.47 151.46 131.62 Z M 151.13 130.75 L 150.79 129.86 C 150.47 129.00 149.52 128.57 148.67 128.88 C 147.81 129.20 147.38 130.15 147.70 131.01 L 148.03 131.90 C 148.35 132.76 149.30 133.19 150.15 132.88 C 151.01 132.56 151.44 131.61 151.13 130.75 Z M 150.81 129.90 L 150.50 128.96 C 150.20 128.09 149.26 127.63 148.39 127.92 C 147.53 128.22 147.06 129.16 147.36 130.02 L 147.68 130.97 C 147.97 131.83 148.91 132.30 149.78 132.00 C 150.65 131.71 151.11 130.77 150.81 129.90 Z M 150.52 129.02 L 150.23 128.02 C 149.96 127.14 149.04 126.64 148.16 126.90 C 147.28 127.16 146.77 128.08 147.03 128.96 L 147.33 129.96 C 147.59 130.85 148.52 131.35 149.40 131.09 C 150.28 130.83 150.78 129.90 150.52 129.02 Z M 150.30 128.08 L 150.01 126.91 C 149.79 125.99 148.86 125.43 147.94 125.65 C 147.01 125.88 146.45 126.81 146.67 127.73 L 146.96 128.90 C 147.19 129.82 148.12 130.39 149.04 130.16 C 149.96 129.94 150.52 129.01 150.30 128.08 Z M 150.17 126.94 L 149.91 125.69 C 149.70 124.68 148.72 124.03 147.71 124.24 C 146.70 124.45 146.05 125.44 146.26 126.45 L 146.52 127.70 C 146.73 128.71 147.71 129.36 148.72 129.15 C 149.73 128.94 150.38 127.95 150.17 126.94 Z M 150.10 125.66 L 149.90 124.67 C 149.68 123.55 148.59 122.83 147.47 123.06 C 146.36 123.29 145.64 124.37 145.87 125.49 L 146.07 126.48 C 146.29 127.59 147.38 128.31 148.49 128.09 C 149.61 127.86 150.33 126.77 150.10 125.66 Z M 150.04 124.44 L 149.90 123.96 C 149.55 122.77 148.30 122.09 147.11 122.44 C 145.91 122.79 145.23 124.04 145.58 125.23 L 145.73 125.71 C 146.08 126.90 147.33 127.59 148.52 127.23 C 149.71 126.88 150.39 125.63 150.04 124.44 Z M 145.44 124.08 L 145.34 124.52 C 145.06 125.79 145.86 127.05 147.13 127.33 C 148.40 127.61 149.66 126.81 149.94 125.54 L 150.04 125.10 C 150.32 123.83 149.52 122.58 148.25 122.29 C 146.98 122.01 145.72 122.81 145.44 124.08 Z M 145.26 124.98 L 145.24 126.21 C 145.21 127.53 146.26 128.62 147.58 128.64 C 148.89 128.67 149.98 127.62 150.00 126.30 L 150.03 125.08 C 150.05 123.76 149.01 122.67 147.69 122.65 C 146.37 122.62 145.29 123.67 145.26 124.98 Z M 145.22 126.26 L 145.22 127.37 C 145.22 128.70 146.29 129.77 147.62 129.77 C 148.95 129.77 150.02 128.70 150.02 127.37 L 150.02 126.26 C 150.03 124.93 148.95 123.85 147.62 123.85 C 146.29 123.85 145.22 124.93 145.22 126.26 Z M 145.21 127.38 L 145.22 128.29 C 145.22 129.62 146.31 130.69 147.64 130.68 C 148.97 130.67 150.04 129.59 150.04 128.26 L 150.03 127.35 C 150.02 126.02 148.94 124.95 147.61 124.96 C 146.28 124.97 145.20 126.05 145.21 127.38 Z M 145.22 128.32 L 145.24 129.30 C 145.26 130.63 146.36 131.68 147.69 131.66 C 149.02 131.63 150.08 130.53 150.05 129.20 L 150.04 128.23 C 150.01 126.90 148.91 125.84 147.58 125.86 C 146.25 125.89 145.19 126.99 145.22 128.32 Z M 145.24 129.34 L 145.28 130.46 C 145.33 131.79 146.44 132.83 147.77 132.78 C 149.10 132.73 150.14 131.62 150.09 130.29 L 150.05 129.16 C 150.00 127.83 148.89 126.79 147.56 126.84 C 146.23 126.89 145.19 128.01 145.24 129.34 Z M 145.28 130.49 L 145.32 131.38 C 145.39 132.71 146.52 133.74 147.85 133.67 C 149.18 133.60 150.20 132.47 150.14 131.14 L 150.09 130.26 C 150.03 128.93 148.90 127.90 147.57 127.97 C 146.24 128.04 145.21 129.17 145.28 130.49 Z M 145.33 131.40 L 145.37 132.27 C 145.45 133.60 146.59 134.61 147.91 134.54 C 149.24 134.46 150.26 133.32 150.18 132.00 L 150.13 131.13 C 150.06 129.80 148.92 128.78 147.59 128.86 C 146.27 128.93 145.25 130.07 145.33 131.40 Z M 145.38 132.27 L 145.43 133.22 C 145.51 134.55 146.65 135.56 147.98 135.48 C 149.30 135.40 150.32 134.26 150.24 132.93 L 150.18 131.99 C 150.10 130.66 148.96 129.65 147.64 129.73 C 146.31 129.81 145.30 130.95 145.38 132.27 Z M 145.43 133.22 L 145.49 134.24 C 145.57 135.56 146.71 136.57 148.04 136.50 C 149.37 136.42 150.38 135.28 150.30 133.95 L 150.24 132.93 C 150.16 131.61 149.02 130.60 147.69 130.68 C 146.36 130.75 145.35 131.89 145.43 133.22 Z M 145.49 134.23 L 145.56 135.31 C 145.63 136.64 146.77 137.65 148.10 137.57 C 149.43 137.50 150.44 136.36 150.36 135.03 L 150.30 133.95 C 150.22 132.63 149.08 131.61 147.76 131.69 C 146.43 131.77 145.42 132.91 145.49 134.23 Z M 145.56 135.31 L 145.62 136.45 C 145.69 137.77 146.83 138.79 148.15 138.71 C 149.48 138.64 150.50 137.51 150.42 136.18 L 150.36 135.04 C 150.29 133.71 149.15 132.70 147.83 132.77 C 146.50 132.85 145.48 133.98 145.56 135.31 Z M 145.62 136.43 L 145.68 137.55 C 145.75 138.88 146.88 139.90 148.20 139.83 C 149.53 139.77 150.55 138.64 150.48 137.31 L 150.42 136.19 C 150.35 134.86 149.22 133.84 147.90 133.91 C 146.57 133.98 145.55 135.11 145.62 136.43 Z M 145.68 137.55 L 145.73 138.60 C 145.79 139.93 146.92 140.95 148.24 140.89 C 149.57 140.83 150.59 139.70 150.53 138.37 L 150.48 137.32 C 150.42 135.99 149.29 134.97 147.97 135.03 C 146.64 135.09 145.62 136.22 145.68 137.55 Z M 145.73 138.59 L 145.78 139.66 C 145.84 140.99 146.96 142.01 148.28 141.95 C 149.61 141.89 150.63 140.77 150.57 139.45 L 150.53 138.38 C 150.47 137.06 149.35 136.03 148.02 136.09 C 146.70 136.15 145.67 137.27 145.73 138.59 Z M 145.78 139.66 L 145.82 140.72 C 145.88 142.04 147.00 143.07 148.32 143.01 C 149.65 142.95 150.68 141.83 150.62 140.51 L 150.57 139.45 C 150.52 138.13 149.40 137.10 148.07 137.16 C 146.75 137.21 145.72 138.33 145.78 139.66 Z M 145.82 140.71 L 145.87 141.75 C 145.92 143.07 147.04 144.10 148.37 144.04 C 149.69 143.98 150.72 142.87 150.66 141.54 L 150.62 140.51 C 150.56 139.19 149.44 138.16 148.12 138.22 C 146.80 138.27 145.77 139.39 145.82 140.71 Z M 145.87 141.75 L 145.91 142.74 C 145.97 144.06 147.09 145.09 148.41 145.03 C 149.73 144.97 150.76 143.85 150.70 142.53 L 150.66 141.54 C 150.60 140.22 149.48 139.19 148.16 139.25 C 146.84 139.31 145.81 140.43 145.87 141.75 Z M 145.91 142.74 L 145.96 143.67 C 146.02 144.99 147.14 146.01 148.46 145.95 C 149.78 145.89 150.80 144.77 150.74 143.45 L 150.70 142.52 C 150.64 141.20 149.52 140.18 148.20 140.24 C 146.88 140.30 145.85 141.42 145.91 142.74 Z M 145.96 143.68 L 146.00 144.54 C 146.07 145.86 147.19 146.88 148.51 146.81 C 149.83 146.75 150.85 145.62 150.78 144.30 L 150.74 143.44 C 150.68 142.12 149.55 141.10 148.23 141.17 C 146.91 141.23 145.89 142.35 145.96 143.68 Z M 146.00 144.56 L 146.08 145.82 C 146.15 147.15 147.28 148.15 148.60 148.08 C 149.92 148.00 150.93 146.87 150.86 145.55 L 150.78 144.28 C 150.71 142.96 149.57 141.96 148.25 142.03 C 146.93 142.11 145.93 143.24 146.00 144.56 Z M 146.08 145.85 L 146.15 146.89 C 146.24 148.21 147.38 149.20 148.70 149.11 C 150.02 149.02 151.02 147.88 150.93 146.56 L 150.85 145.52 C 150.76 144.20 149.62 143.21 148.30 143.30 C 146.98 143.39 145.99 144.53 146.08 145.85 Z M 146.15 146.90 L 146.22 147.79 C 146.31 149.11 147.46 150.10 148.78 150.00 C 150.10 149.90 151.09 148.75 150.99 147.43 L 150.92 146.55 C 150.83 145.23 149.68 144.24 148.36 144.34 C 147.04 144.44 146.05 145.59 146.15 146.90 Z M 146.22 147.79 L 146.28 148.61 C 146.37 149.92 147.52 150.91 148.84 150.82 C 150.16 150.72 151.15 149.57 151.05 148.25 L 150.99 147.44 C 150.89 146.12 149.75 145.13 148.43 145.23 C 147.11 145.32 146.12 146.47 146.22 147.79 Z M 146.27 148.58 L 146.33 149.53 C 146.42 150.85 147.56 151.85 148.88 151.76 C 150.19 151.68 151.20 150.54 151.11 149.22 L 151.05 148.28 C 150.97 146.96 149.83 145.96 148.51 146.04 C 147.19 146.12 146.19 147.26 146.27 148.58 Z M 146.33 149.50 L 146.39 150.49 C 146.46 151.81 147.58 152.83 148.90 152.76 C 150.22 152.69 151.23 151.56 151.16 150.24 L 151.11 149.25 C 151.04 147.93 149.92 146.92 148.60 146.99 C 147.28 147.06 146.27 148.18 146.33 149.50 Z M 146.39 150.48 L 146.43 151.49 C 146.49 152.81 147.61 153.83 148.93 153.77 C 150.25 153.71 151.27 152.59 151.21 151.27 L 151.16 150.26 C 151.10 148.94 149.99 147.92 148.67 147.98 C 147.35 148.04 146.33 149.16 146.39 150.48 Z M 146.44 151.48 L 146.48 152.49 C 146.54 153.80 147.65 154.83 148.97 154.77 C 150.29 154.71 151.31 153.60 151.25 152.28 L 151.21 151.28 C 151.15 149.96 150.04 148.94 148.72 148.99 C 147.40 149.05 146.38 150.16 146.44 151.48 Z M 146.48 152.48 L 146.52 153.46 C 146.58 154.78 147.69 155.80 149.01 155.74 C 150.32 155.69 151.35 154.58 151.29 153.26 L 151.25 152.28 C 151.19 150.97 150.08 149.94 148.77 150.00 C 147.45 150.05 146.43 151.17 146.48 152.48 Z M 146.52 153.46 L 146.57 154.45 C 146.62 155.77 147.73 156.79 149.05 156.74 C 150.36 156.68 151.38 155.57 151.33 154.26 L 151.29 153.26 C 151.23 151.95 150.12 150.92 148.81 150.98 C 147.49 151.03 146.47 152.14 146.52 153.46 Z M 146.57 154.45 L 146.61 155.47 C 146.66 156.78 147.77 157.81 149.08 157.75 C 150.40 157.70 151.42 156.59 151.37 155.28 L 151.33 154.26 C 151.28 152.94 150.17 151.92 148.85 151.97 C 147.54 152.03 146.51 153.14 146.57 154.45 Z M 146.61 155.47 L 146.65 156.47 C 146.70 157.79 147.81 158.81 149.12 158.76 C 150.43 158.71 151.46 157.60 151.41 156.29 L 151.37 155.28 C 151.31 153.97 150.21 152.95 148.90 153.00 C 147.58 153.05 146.56 154.15 146.61 155.47 Z M 146.66 156.47 L 146.69 157.47 C 146.74 158.78 147.85 159.80 149.16 159.75 C 150.47 159.70 151.49 158.60 151.44 157.29 L 151.40 156.29 C 151.35 154.98 150.25 153.96 148.94 154.01 C 147.63 154.06 146.61 155.16 146.66 156.47 Z M 146.70 157.47 L 146.74 158.47 C 146.79 159.78 147.89 160.80 149.19 160.75 C 150.50 160.70 151.52 159.60 151.47 158.29 L 151.43 157.29 C 151.38 155.98 150.28 154.96 148.98 155.01 C 147.67 155.06 146.65 156.16 146.70 157.47 Z M 146.74 158.47 L 146.78 159.48 C 146.83 160.78 147.93 161.80 149.23 161.75 C 150.54 161.70 151.55 160.60 151.50 159.30 L 151.46 158.29 C 151.41 156.99 150.32 155.98 149.01 156.02 C 147.71 156.07 146.70 157.17 146.74 158.47 Z M 146.79 159.48 L 146.83 160.49 C 146.88 161.79 147.97 162.80 149.27 162.75 C 150.57 162.70 151.58 161.61 151.53 160.31 L 151.50 159.30 C 151.45 158.00 150.35 156.99 149.05 157.04 C 147.75 157.09 146.74 158.18 146.79 159.48 Z M 146.84 160.49 L 146.88 161.50 C 146.93 162.79 148.02 163.80 149.31 163.75 C 150.61 163.70 151.62 162.61 151.57 161.31 L 151.53 160.31 C 151.48 159.01 150.39 158.00 149.09 158.05 C 147.79 158.10 146.79 159.20 146.84 160.49 Z M 146.88 161.50 L 146.92 162.49 C 146.97 163.79 148.06 164.79 149.35 164.74 C 150.64 164.69 151.65 163.60 151.60 162.31 L 151.56 161.31 C 151.51 160.02 150.42 159.02 149.13 159.07 C 147.84 159.12 146.83 160.21 146.88 161.50 Z M 146.93 162.49 L 146.97 163.48 C 147.02 164.77 148.11 165.77 149.39 165.72 C 150.68 165.67 151.68 164.58 151.63 163.30 L 151.59 162.31 C 151.54 161.02 150.45 160.02 149.17 160.07 C 147.88 160.12 146.88 161.21 146.93 162.49 Z M 146.98 163.48 L 147.02 164.47 C 147.07 165.76 148.15 166.75 149.43 166.70 C 150.71 166.65 151.71 165.57 151.66 164.29 L 151.62 163.30 C 151.57 162.01 150.49 161.02 149.21 161.07 C 147.92 161.12 146.93 162.20 146.98 163.48 Z M 147.03 164.47 L 147.06 165.46 C 147.11 166.74 148.19 167.74 149.47 167.69 C 150.74 167.64 151.74 166.56 151.69 165.29 L 151.65 164.29 C 151.60 163.01 150.53 162.02 149.25 162.07 C 147.97 162.12 146.98 163.19 147.03 164.47 Z M 147.07 165.45 L 147.11 166.45 C 147.15 167.72 148.22 168.72 149.49 168.68 C 150.76 168.64 151.76 167.57 151.72 166.30 L 151.68 165.30 C 151.64 164.02 150.57 163.03 149.30 163.07 C 148.03 163.11 147.03 164.18 147.07 165.45 Z M 147.11 166.43 L 147.14 167.44 C 147.17 168.71 148.23 169.71 149.50 169.68 C 150.77 169.64 151.77 168.59 151.73 167.32 L 151.71 166.31 C 151.67 165.05 150.62 164.04 149.35 164.08 C 148.08 164.11 147.08 165.17 147.11 166.43 Z M 147.15 167.42 L 147.17 168.42 C 147.19 169.68 148.23 170.69 149.49 170.66 C 150.76 170.64 151.76 169.60 151.74 168.34 L 151.73 167.34 C 151.70 166.08 150.66 165.07 149.40 165.09 C 148.13 165.11 147.13 166.16 147.15 167.42 Z M 147.18 168.40 L 147.19 169.40 C 147.20 170.66 148.23 171.67 149.49 171.65 C 150.75 171.64 151.76 170.61 151.74 169.35 L 151.73 168.35 C 151.72 167.09 150.69 166.08 149.43 166.10 C 148.17 166.11 147.16 167.14 147.18 168.40 Z M 147.20 169.40 L 147.21 170.40 C 147.22 171.65 148.25 172.66 149.50 172.64 C 150.75 172.63 151.76 171.61 151.75 170.35 L 151.74 169.35 C 151.72 168.10 150.70 167.09 149.44 167.10 C 148.19 167.12 147.18 168.14 147.20 169.40 Z M 147.22 170.41 L 147.23 171.41 C 147.25 172.66 148.27 173.66 149.52 173.64 C 150.77 173.62 151.77 172.60 151.75 171.35 L 151.74 170.34 C 151.72 169.10 150.69 168.10 149.44 168.12 C 148.20 168.13 147.20 169.16 147.22 170.41 Z M 147.24 171.43 L 147.26 172.44 C 147.29 173.68 148.32 174.67 149.56 174.64 C 150.80 174.61 151.79 173.59 151.76 172.34 L 151.74 171.33 C 151.71 170.09 150.68 169.10 149.44 169.13 C 148.20 169.16 147.21 170.19 147.24 171.43 Z M 147.27 172.45 L 147.30 173.46 C 147.34 174.70 148.37 175.67 149.60 175.64 C 150.84 175.60 151.81 174.57 151.78 173.34 L 151.75 172.33 C 151.72 171.09 150.69 170.12 149.45 170.15 C 148.21 170.19 147.24 171.22 147.27 172.45 Z M 147.31 173.46 L 147.34 174.46 C 147.38 175.69 148.40 176.66 149.63 176.63 C 150.86 176.59 151.83 175.56 151.79 174.34 L 151.77 173.34 C 151.73 172.11 150.70 171.14 149.48 171.17 C 148.25 171.21 147.28 172.24 147.31 173.46 Z M 147.35 174.45 L 147.38 175.44 C 147.41 176.66 148.43 177.63 149.65 177.60 C 150.87 177.57 151.84 176.55 151.81 175.33 L 151.78 174.34 C 151.75 173.12 150.74 172.15 149.51 172.19 C 148.29 172.22 147.32 173.23 147.35 174.45 Z M 147.39 175.42 L 147.41 176.41 C 147.43 177.63 148.43 178.60 149.65 178.58 C 150.86 178.56 151.83 177.55 151.81 176.34 L 151.80 175.35 C 151.78 174.13 150.77 173.16 149.56 173.18 C 148.34 173.20 147.37 174.21 147.39 175.42 Z M 147.42 176.39 L 147.43 177.38 C 147.44 178.59 148.43 179.56 149.64 179.55 C 150.85 179.54 151.82 178.55 151.81 177.34 L 151.80 176.36 C 151.79 175.15 150.80 174.17 149.59 174.19 C 148.38 174.20 147.41 175.18 147.42 176.39 Z M 147.44 177.37 L 147.44 178.37 C 147.45 179.57 148.43 180.54 149.63 180.54 C 150.83 180.53 151.80 179.55 151.80 178.35 L 151.80 177.36 C 151.79 176.15 150.81 175.18 149.61 175.19 C 148.41 175.19 147.44 176.17 147.44 177.37 Z M 147.46 178.36 L 147.46 179.38 C 147.46 180.58 148.43 181.55 149.62 181.55 C 150.82 181.55 151.79 180.58 151.79 179.38 L 151.79 178.36 C 151.79 177.16 150.82 176.19 149.62 176.19 C 148.42 176.19 147.46 177.16 147.46 178.36 Z M 147.47 179.38 L 147.47 180.40 C 147.47 181.58 148.43 182.55 149.62 182.55 C 150.81 182.55 151.77 181.58 151.77 180.40 L 151.77 179.38 C 151.77 178.19 150.81 177.23 149.62 177.23 C 148.43 177.23 147.47 178.19 147.47 179.38 Z M 147.48 180.40 L 147.48 181.42 C 147.48 182.60 148.44 183.56 149.62 183.56 C 150.80 183.56 151.76 182.60 151.76 181.42 L 151.76 180.40 C 151.76 179.21 150.80 178.26 149.62 178.26 C 148.44 178.26 147.48 179.21 147.48 180.40 Z M 147.50 181.42 L 147.50 182.42 C 147.50 183.60 148.45 184.55 149.62 184.55 C 150.79 184.55 151.75 183.60 151.75 182.42 L 151.75 181.42 C 151.75 180.25 150.79 179.29 149.62 179.29 C 148.45 179.29 147.50 180.25 147.50 181.42 Z M 147.51 182.42 L 147.51 183.38 C 147.51 184.55 148.46 185.49 149.62 185.49 C 150.79 185.49 151.73 184.55 151.73 183.38 L 151.73 182.42 C 151.73 181.26 150.79 180.31 149.62 180.31 C 148.46 180.31 147.51 181.26 147.51 182.42 Z M 147.53 183.38 L 147.53 184.36 C 147.53 185.52 148.46 186.46 149.62 186.46 C 150.78 186.46 151.72 185.52 151.72 184.36 L 151.72 183.38 C 151.72 182.22 150.78 181.28 149.62 181.28 C 148.46 181.28 147.53 182.22 147.53 183.38 Z M 147.54 184.36 L 147.54 185.32 C 147.54 186.47 148.47 187.40 149.62 187.40 C 150.77 187.40 151.70 186.47 151.70 185.32 L 151.70 184.36 C 151.70 183.21 150.77 182.28 149.62 182.28 C 148.47 182.28 147.54 183.21 147.54 184.36 Z M 147.56 185.32 L 147.56 186.32 C 147.56 187.46 148.48 188.39 149.62 188.39 C 150.76 188.39 151.69 187.46 151.69 186.32 L 151.69 185.32 C 151.69 184.18 150.76 183.25 149.62 183.25 C 148.48 183.25 147.56 184.18 147.56 185.32 Z M 147.57 186.32 L 147.57 187.35 C 147.57 188.49 148.49 189.40 149.62 189.40 C 150.75 189.40 151.67 188.49 151.67 187.35 L 151.67 186.32 C 151.67 185.19 150.75 184.27 149.62 184.27 C 148.49 184.27 147.57 185.19 147.57 186.32 Z M 147.59 187.35 L 147.59 188.33 C 147.59 189.45 148.50 190.36 149.62 190.36 C 150.74 190.36 151.65 189.45 151.65 188.33 L 151.65 187.35 C 151.65 186.23 150.74 185.32 149.62 185.32 C 148.50 185.32 147.59 186.23 147.59 187.35 Z M 147.61 188.33 L 147.61 189.35 C 147.61 190.46 148.51 191.36 149.62 191.36 C 150.73 191.36 151.63 190.46 151.63 189.35 L 151.63 188.33 C 151.63 187.22 150.73 186.32 149.62 186.32 C 148.51 186.32 147.61 187.22 147.61 188.33 Z M 147.64 189.35 L 147.64 190.39 C 147.64 191.48 148.53 192.37 149.62 192.37 C 150.72 192.37 151.61 191.48 151.61 190.39 L 151.61 189.35 C 151.61 188.26 150.72 187.37 149.62 187.37 C 148.53 187.37 147.64 188.26 147.64 189.35 Z M 147.66 190.39 L 147.66 191.39 C 147.66 192.47 148.54 193.35 149.62 193.35 C 150.70 193.35 151.58 192.47 151.58 191.39 L 151.58 190.39 C 151.58 189.30 150.70 188.43 149.62 188.43 C 148.54 188.43 147.66 189.30 147.66 190.39 Z M 147.68 191.39 L 147.68 192.48 C 147.68 193.55 148.55 194.42 149.62 194.42 C 150.69 194.42 151.56 193.55 151.56 192.48 L 151.56 191.39 C 151.56 190.32 150.69 189.45 149.62 189.45 C 148.55 189.45 147.68 190.32 147.68 191.39 Z M 147.71 192.47 L 147.70 193.51 C 147.70 194.56 148.55 195.42 149.61 195.43 C 150.66 195.43 151.52 194.58 151.53 193.53 L 151.53 192.49 C 151.54 191.43 150.69 190.57 149.63 190.56 C 148.57 190.56 147.71 191.41 147.71 192.47 Z M 147.73 193.49 L 147.71 194.44 C 147.70 195.49 148.53 196.35 149.57 196.36 C 150.61 196.38 151.47 195.55 151.49 194.50 L 151.51 193.55 C 151.52 192.50 150.69 191.64 149.65 191.63 C 148.60 191.61 147.74 192.44 147.73 193.49 Z M 147.74 194.41 L 147.71 195.32 C 147.67 196.35 148.47 197.21 149.50 197.25 C 150.53 197.29 151.40 196.48 151.43 195.45 L 151.46 194.54 C 151.50 193.51 150.70 192.65 149.67 192.61 C 148.64 192.57 147.77 193.38 147.74 194.41 Z M 147.73 195.22 L 147.63 196.40 C 147.54 197.42 148.29 198.32 149.30 198.41 C 150.32 198.49 151.22 197.74 151.31 196.73 L 151.41 195.55 C 151.50 194.53 150.75 193.64 149.73 193.55 C 148.71 193.46 147.82 194.21 147.73 195.22 Z M 147.71 196.03 L 147.44 196.93 C 147.14 197.90 147.68 198.92 148.65 199.22 C 149.62 199.52 150.65 198.97 150.94 198.00 L 151.22 197.10 C 151.52 196.13 150.97 195.11 150.00 194.81 C 149.03 194.52 148.01 195.06 147.71 196.03 Z M 148.10 196.01 L 147.55 196.42 C 146.75 197.02 146.58 198.16 147.18 198.96 C 147.78 199.77 148.92 199.93 149.72 199.33 L 150.28 198.92 C 151.08 198.32 151.25 197.18 150.65 196.38 C 150.05 195.58 148.91 195.41 148.10 196.01 Z M 148.95 196.12 L 148.15 195.98 C 147.18 195.81 146.26 196.45 146.08 197.42 C 145.91 198.39 146.55 199.32 147.52 199.49 L 148.32 199.63 C 149.29 199.81 150.22 199.16 150.39 198.19 C 150.57 197.22 149.92 196.30 148.95 196.12 Z M 148.86 196.33 L 147.95 195.67 C 147.17 195.10 146.08 195.28 145.52 196.05 C 144.95 196.83 145.13 197.92 145.91 198.48 L 146.82 199.14 C 147.59 199.71 148.68 199.54 149.25 198.76 C 149.81 197.98 149.64 196.89 148.86 196.33 Z M 148.26 196.01 L 147.59 195.18 C 147.00 194.45 145.93 194.33 145.20 194.92 C 144.46 195.51 144.34 196.58 144.93 197.32 L 145.60 198.14 C 146.19 198.88 147.26 199.00 148.00 198.41 C 148.73 197.82 148.85 196.74 148.26 196.01 Z M 147.72 195.40 L 147.26 194.61 C 146.79 193.81 145.75 193.54 144.95 194.01 C 144.14 194.48 143.88 195.52 144.35 196.32 L 144.81 197.11 C 145.28 197.91 146.32 198.18 147.12 197.70 C 147.92 197.23 148.19 196.20 147.72 195.40 Z M 147.31 194.73 L 146.87 193.84 C 146.47 193.01 145.46 192.66 144.63 193.07 C 143.80 193.47 143.46 194.48 143.86 195.31 L 144.30 196.20 C 144.70 197.03 145.71 197.38 146.54 196.97 C 147.37 196.56 147.71 195.56 147.31 194.73 Z M 146.89 193.91 L 146.47 192.95 C 146.11 192.10 145.13 191.72 144.29 192.08 C 143.45 192.44 143.06 193.42 143.42 194.26 L 143.84 195.23 C 144.21 196.07 145.18 196.46 146.03 196.10 C 146.87 195.73 147.26 194.76 146.89 193.91 Z M 146.48 192.99 L 146.07 191.98 C 145.73 191.13 144.77 190.72 143.93 191.06 C 143.08 191.40 142.67 192.36 143.01 193.21 L 143.42 194.22 C 143.76 195.06 144.72 195.47 145.57 195.13 C 146.41 194.79 146.82 193.83 146.48 192.99 Z M 146.07 191.99 L 145.91 191.60 C 145.58 190.76 144.63 190.34 143.79 190.68 C 142.94 191.01 142.53 191.96 142.86 192.80 L 143.02 193.19 C 143.35 194.04 144.30 194.45 145.14 194.12 C 145.99 193.79 146.40 192.83 146.07 191.99 Z"
      fill="black"
      fill-rule="nonzero" /><path d="M 143.96 151.02 L 143.26 151.54 C 142.27 152.29 142.07 153.70 142.82 154.69 C 143.56 155.69 144.97 155.88 145.97 155.14 L 146.66 154.61 C 147.66 153.86 147.86 152.45 147.11 151.46 C 146.36 150.47 144.95 150.27 143.96 151.02 Z M 143.22 151.53 L 142.48 152.11 C 141.48 152.88 141.29 154.31 142.06 155.31 C 142.83 156.30 144.27 156.49 145.26 155.72 L 146.01 155.14 C 147.00 154.37 147.19 152.94 146.42 151.95 C 145.65 150.95 144.22 150.76 143.22 151.53 Z M 142.42 152.11 L 141.59 152.78 C 140.59 153.58 140.44 155.04 141.24 156.03 C 142.04 157.03 143.49 157.18 144.49 156.38 L 145.32 155.71 C 146.31 154.91 146.47 153.46 145.67 152.46 C 144.87 151.47 143.41 151.31 142.42 152.11 Z M 141.53 152.79 L 140.72 153.48 C 139.73 154.31 139.60 155.78 140.43 156.77 C 141.26 157.76 142.74 157.89 143.72 157.06 L 144.54 156.37 C 145.53 155.54 145.66 154.07 144.83 153.08 C 144.00 152.09 142.52 151.96 141.53 152.79 Z M 140.68 153.48 L 139.97 154.10 C 138.98 154.95 138.88 156.44 139.73 157.42 C 140.58 158.41 142.07 158.52 143.05 157.67 L 143.76 157.05 C 144.75 156.20 144.86 154.71 144.00 153.73 C 143.15 152.74 141.66 152.63 140.68 153.48 Z M 139.94 154.11 L 139.19 154.77 C 138.21 155.63 138.11 157.13 138.98 158.11 C 139.84 159.10 141.34 159.19 142.32 158.33 L 143.08 157.66 C 144.06 156.80 144.15 155.30 143.29 154.32 C 142.42 153.33 140.92 153.24 139.94 154.11 Z M 139.17 154.77 L 138.39 155.46 C 137.41 156.34 137.33 157.85 138.21 158.83 C 139.08 159.81 140.59 159.89 141.57 159.02 L 142.34 158.32 C 143.33 157.45 143.41 155.94 142.53 154.96 C 141.65 153.98 140.15 153.89 139.17 154.77 Z M 138.37 155.47 L 137.60 156.17 C 136.62 157.06 136.54 158.57 137.43 159.55 C 138.32 160.53 139.84 160.61 140.82 159.72 L 141.59 159.02 C 142.57 158.13 142.64 156.61 141.76 155.63 C 140.87 154.65 139.35 154.58 138.37 155.47 Z M 137.58 156.17 L 136.82 156.86 C 135.84 157.76 135.78 159.28 136.68 160.26 C 137.58 161.24 139.10 161.31 140.08 160.41 L 140.83 159.72 C 141.81 158.82 141.88 157.30 140.98 156.32 C 140.08 155.34 138.56 155.27 137.58 156.17 Z M 136.81 156.87 L 136.09 157.54 C 135.11 158.44 135.06 159.97 135.96 160.94 C 136.87 161.92 138.39 161.98 139.37 161.07 L 140.09 160.40 C 141.07 159.50 141.13 157.97 140.22 157.00 C 139.32 156.02 137.79 155.96 136.81 156.87 Z M 136.09 157.54 L 135.38 158.20 C 134.41 159.11 134.36 160.63 135.26 161.61 C 136.17 162.58 137.69 162.63 138.66 161.72 L 139.37 161.06 C 140.34 160.16 140.40 158.64 139.49 157.66 C 138.58 156.69 137.06 156.64 136.09 157.54 Z M 135.38 158.21 L 134.67 158.87 C 133.70 159.78 133.65 161.30 134.55 162.27 C 135.46 163.24 136.98 163.29 137.95 162.38 L 138.66 161.72 C 139.63 160.82 139.68 159.30 138.78 158.33 C 137.87 157.36 136.35 157.30 135.38 158.21 Z M 134.68 158.87 L 133.95 159.55 C 132.97 160.45 132.92 161.97 133.82 162.94 C 134.72 163.91 136.23 163.97 137.21 163.07 L 137.94 162.39 C 138.91 161.49 138.97 159.97 138.07 159.00 C 137.17 158.03 135.65 157.97 134.68 158.87 Z M 133.96 159.55 L 133.18 160.26 C 132.20 161.16 132.14 162.67 133.03 163.64 C 133.93 164.62 135.44 164.68 136.41 163.79 L 137.19 163.07 C 138.17 162.18 138.23 160.67 137.34 159.69 C 136.44 158.72 134.93 158.65 133.96 159.55 Z M 133.19 160.26 L 132.53 160.86 C 131.55 161.75 131.48 163.26 132.36 164.23 C 133.25 165.21 134.76 165.28 135.73 164.40 L 136.40 163.79 C 137.38 162.91 137.45 161.40 136.56 160.42 C 135.68 159.45 134.17 159.37 133.19 160.26 Z M 132.54 160.86 L 131.86 161.47 C 130.89 162.35 130.80 163.85 131.68 164.83 C 132.56 165.80 134.06 165.88 135.03 165.01 L 135.71 164.40 C 136.69 163.52 136.77 162.02 135.90 161.04 C 135.02 160.07 133.52 159.99 132.54 160.86 Z M 131.88 161.47 L 131.16 162.11 C 130.18 162.98 130.09 164.47 130.96 165.45 C 131.83 166.42 133.32 166.51 134.30 165.65 L 135.02 165.01 C 135.99 164.14 136.08 162.65 135.22 161.67 C 134.35 160.70 132.86 160.61 131.88 161.47 Z M 131.18 162.11 L 130.42 162.77 C 129.45 163.63 129.35 165.11 130.21 166.09 C 131.06 167.07 132.55 167.16 133.53 166.31 L 134.28 165.65 C 135.26 164.79 135.36 163.30 134.50 162.33 C 133.64 161.35 132.15 161.25 131.18 162.11 Z M 130.44 162.77 L 129.65 163.45 C 128.68 164.30 128.57 165.78 129.42 166.76 C 130.27 167.73 131.75 167.84 132.72 166.99 L 133.51 166.31 C 134.49 165.46 134.59 163.98 133.75 163.00 C 132.90 162.03 131.42 161.92 130.44 162.77 Z M 129.67 163.45 L 128.85 164.16 C 127.88 164.99 127.76 166.47 128.60 167.44 C 129.44 168.42 130.91 168.53 131.89 167.69 L 132.71 166.99 C 133.68 166.15 133.80 164.68 132.96 163.70 C 132.12 162.73 130.65 162.61 129.67 163.45 Z M 128.87 164.16 L 128.02 164.88 C 127.04 165.71 126.92 167.17 127.75 168.15 C 128.58 169.12 130.04 169.24 131.02 168.41 L 131.87 167.69 C 132.85 166.86 132.97 165.40 132.14 164.42 C 131.31 163.45 129.85 163.33 128.87 164.16 Z M 128.04 164.88 L 127.23 165.56 C 126.25 166.38 126.13 167.83 126.94 168.81 C 127.76 169.78 129.22 169.91 130.19 169.09 L 131.00 168.41 C 131.98 167.59 132.10 166.14 131.29 165.16 C 130.47 164.19 129.01 164.06 128.04 164.88 Z M 127.25 165.57 L 126.43 166.26 C 125.46 167.06 125.32 168.50 126.13 169.47 C 126.94 170.44 128.38 170.57 129.35 169.77 L 130.17 169.08 C 131.14 168.28 131.27 166.84 130.47 165.87 C 129.66 164.90 128.22 164.76 127.25 165.57 Z M 126.45 166.27 L 125.62 166.94 C 124.66 167.74 124.52 169.17 125.32 170.13 C 126.11 171.09 127.54 171.23 128.50 170.44 L 129.33 169.76 C 130.29 168.96 130.43 167.53 129.63 166.57 C 128.84 165.61 127.41 165.47 126.45 166.27 Z M 125.64 166.95 L 124.83 167.62 C 123.88 168.40 123.74 169.81 124.52 170.77 C 125.31 171.73 126.72 171.87 127.68 171.09 L 128.49 170.42 C 129.44 169.64 129.58 168.23 128.80 167.27 C 128.01 166.31 126.60 166.17 125.64 166.95 Z M 124.85 167.63 L 124.07 168.26 C 123.12 169.04 122.98 170.44 123.75 171.39 C 124.53 172.34 125.93 172.48 126.88 171.71 L 127.66 171.07 C 128.61 170.30 128.76 168.90 127.98 167.95 C 127.21 167.00 125.81 166.85 124.85 167.63 Z M 124.09 168.27 L 123.35 168.87 C 122.41 169.63 122.26 171.02 123.03 171.97 C 123.79 172.91 125.18 173.06 126.13 172.29 L 126.86 171.70 C 127.81 170.93 127.96 169.55 127.19 168.60 C 126.42 167.65 125.04 167.51 124.09 168.27 Z M 123.37 168.88 L 122.69 169.43 C 121.75 170.19 121.60 171.56 122.36 172.50 C 123.11 173.44 124.49 173.59 125.42 172.83 L 126.11 172.28 C 127.05 171.53 127.20 170.15 126.44 169.21 C 125.69 168.27 124.31 168.13 123.37 168.88 Z M 122.71 169.44 L 121.87 170.12 C 120.93 170.86 120.78 172.22 121.53 173.15 C 122.27 174.08 123.63 174.24 124.56 173.49 L 125.40 172.82 C 126.33 172.07 126.49 170.72 125.74 169.79 C 125.00 168.85 123.64 168.70 122.71 169.44 Z M 121.89 170.14 L 121.05 170.81 C 120.12 171.54 119.97 172.87 120.70 173.79 C 121.42 174.72 122.76 174.87 123.68 174.14 L 124.53 173.47 C 125.45 172.75 125.61 171.41 124.88 170.49 C 124.15 169.57 122.82 169.41 121.89 170.14 Z M 121.07 170.83 L 120.33 171.42 C 119.42 172.13 119.26 173.44 119.97 174.35 C 120.68 175.26 122.00 175.42 122.91 174.71 L 123.65 174.12 C 124.56 173.41 124.72 172.10 124.01 171.19 C 123.30 170.28 121.98 170.12 121.07 170.83 Z M 120.35 171.44 L 119.65 171.99 C 118.75 172.69 118.60 173.98 119.29 174.88 C 119.99 175.77 121.29 175.93 122.18 175.23 L 122.88 174.68 C 123.78 173.98 123.94 172.69 123.24 171.79 C 122.54 170.90 121.24 170.74 120.35 171.44 Z M 119.66 172.02 L 118.95 172.59 C 118.07 173.28 117.92 174.55 118.61 175.43 C 119.30 176.31 120.57 176.46 121.45 175.77 L 122.16 175.20 C 123.04 174.51 123.19 173.24 122.50 172.36 C 121.81 171.48 120.54 171.33 119.66 172.02 Z M 118.95 172.61 L 118.20 173.21 C 117.34 173.89 117.19 175.15 117.88 176.02 C 118.57 176.88 119.83 177.02 120.69 176.34 L 121.44 175.74 C 122.30 175.06 122.45 173.80 121.76 172.93 C 121.08 172.07 119.82 171.92 118.95 172.61 Z M 118.21 173.22 L 117.42 173.84 C 116.56 174.53 116.42 175.78 117.10 176.64 C 117.79 177.50 119.04 177.64 119.90 176.96 L 120.68 176.33 C 121.54 175.64 121.69 174.39 121.00 173.53 C 120.32 172.68 119.07 172.53 118.21 173.22 Z M 117.43 173.85 L 116.62 174.49 C 115.77 175.17 115.62 176.41 116.30 177.26 C 116.98 178.12 118.22 178.26 119.08 177.59 L 119.88 176.95 C 120.74 176.27 120.88 175.03 120.21 174.17 C 119.53 173.32 118.29 173.17 117.43 173.85 Z M 116.64 174.49 L 115.84 175.12 C 114.98 175.79 114.83 177.02 115.50 177.88 C 116.17 178.73 117.40 178.88 118.26 178.21 L 119.06 177.59 C 119.91 176.92 120.07 175.68 119.40 174.83 C 118.73 173.97 117.50 173.82 116.64 174.49 Z M 115.86 175.12 L 115.04 175.75 C 114.18 176.41 114.02 177.63 114.67 178.48 C 115.32 179.34 116.55 179.50 117.40 178.85 L 118.23 178.21 C 119.08 177.56 119.25 176.34 118.59 175.48 C 117.94 174.63 116.72 174.47 115.86 175.12 Z M 115.08 175.75 L 114.24 176.36 C 113.38 176.99 113.19 178.19 113.82 179.05 C 114.44 179.91 115.65 180.10 116.51 179.47 L 117.35 178.86 C 118.21 178.23 118.40 177.03 117.77 176.17 C 117.15 175.31 115.94 175.12 115.08 175.75 Z M 114.32 176.34 L 113.49 176.89 C 112.62 177.47 112.39 178.65 112.97 179.52 C 113.55 180.39 114.73 180.63 115.60 180.05 L 116.43 179.49 C 117.30 178.91 117.53 177.73 116.95 176.86 C 116.37 175.99 115.19 175.76 114.32 176.34 Z M 113.61 176.85 L 112.78 177.33 C 111.89 177.85 111.59 178.99 112.11 179.89 C 112.63 180.78 113.77 181.08 114.66 180.56 L 115.49 180.08 C 116.38 179.56 116.68 178.42 116.16 177.53 C 115.64 176.63 114.50 176.33 113.61 176.85 Z M 112.93 177.28 L 112.06 177.70 C 111.14 178.13 110.75 179.23 111.19 180.15 C 111.63 181.07 112.73 181.46 113.65 181.02 L 114.52 180.61 C 115.43 180.17 115.82 179.07 115.39 178.15 C 114.95 177.24 113.85 176.85 112.93 177.28 Z M 112.22 177.66 L 111.28 178.01 C 110.34 178.36 109.87 179.41 110.22 180.35 C 110.57 181.29 111.62 181.76 112.56 181.41 L 113.49 181.06 C 114.43 180.71 114.91 179.66 114.56 178.72 C 114.20 177.78 113.16 177.31 112.22 177.66 Z M 111.40 178.00 L 110.45 178.29 C 109.50 178.57 108.96 179.57 109.25 180.52 C 109.54 181.47 110.54 182.00 111.48 181.71 L 112.44 181.42 C 113.39 181.14 113.92 180.14 113.63 179.19 C 113.35 178.24 112.35 177.71 111.40 178.00 Z M 110.52 178.29 L 109.55 178.55 C 108.61 178.80 108.04 179.76 108.29 180.70 C 108.54 181.65 109.50 182.21 110.45 181.96 L 111.41 181.71 C 112.36 181.46 112.92 180.49 112.67 179.55 C 112.42 178.61 111.46 178.05 110.52 178.29 Z M 109.57 178.56 L 109.17 178.66 C 108.24 178.90 107.67 179.84 107.90 180.78 C 108.14 181.72 109.09 182.28 110.02 182.05 L 110.42 181.95 C 111.36 181.71 111.93 180.77 111.69 179.83 C 111.46 178.89 110.51 178.33 109.57 178.56 Z"
      fill="black"
      fill-rule="nonzero" /><path d="M 149.24 159.06 L 149.86 159.67 C 150.76 160.56 152.21 160.56 153.10 159.66 C 153.99 158.76 153.99 157.31 153.09 156.42 L 152.47 155.80 C 151.57 154.91 150.12 154.92 149.23 155.82 C 148.34 156.71 148.34 158.17 149.24 159.06 Z M 149.87 159.74 L 150.54 160.38 C 151.48 161.27 152.96 161.23 153.84 160.29 C 154.73 159.35 154.69 157.87 153.75 156.98 L 153.08 156.35 C 152.14 155.46 150.66 155.50 149.77 156.44 C 148.89 157.38 148.93 158.86 149.87 159.74 Z M 150.57 160.48 L 151.35 161.15 C 152.34 162.02 153.85 161.92 154.71 160.92 C 155.58 159.93 155.48 158.42 154.49 157.55 L 153.72 156.88 C 152.72 156.01 151.21 156.12 150.35 157.11 C 149.48 158.10 149.58 159.61 150.57 160.48 Z M 151.40 161.26 L 152.32 161.99 C 153.38 162.83 154.91 162.65 155.74 161.59 C 156.58 160.54 156.40 159.01 155.35 158.17 L 154.43 157.44 C 153.37 156.61 151.84 156.78 151.01 157.84 C 150.17 158.89 150.35 160.42 151.40 161.26 Z M 152.38 162.06 L 153.15 162.63 C 154.24 163.43 155.78 163.19 156.58 162.09 C 157.39 161.00 157.15 159.46 156.05 158.66 L 155.29 158.10 C 154.19 157.29 152.65 157.53 151.85 158.63 C 151.05 159.72 151.29 161.26 152.38 162.06 Z M 153.19 162.66 L 154.02 163.23 C 155.14 164.01 156.67 163.74 157.44 162.62 C 158.22 161.51 157.95 159.98 156.83 159.20 L 156.01 158.63 C 154.89 157.85 153.36 158.12 152.59 159.24 C 151.81 160.35 152.08 161.88 153.19 162.66 Z M 154.06 163.25 L 154.92 163.84 C 156.05 164.59 157.57 164.30 158.33 163.17 C 159.09 162.05 158.79 160.52 157.66 159.77 L 156.80 159.18 C 155.68 158.43 154.15 158.72 153.39 159.85 C 152.64 160.97 152.93 162.50 154.06 163.25 Z M 154.95 163.85 L 155.82 164.42 C 156.95 165.16 158.47 164.85 159.21 163.72 C 159.96 162.59 159.64 161.07 158.51 160.32 L 157.64 159.75 C 156.51 159.01 154.99 159.33 154.24 160.46 C 153.50 161.59 153.82 163.11 154.95 163.85 Z M 155.84 164.43 L 156.68 164.97 C 157.82 165.71 159.34 165.38 160.07 164.24 C 160.80 163.10 160.47 161.59 159.33 160.86 L 158.49 160.31 C 157.35 159.58 155.84 159.91 155.10 161.05 C 154.37 162.19 154.70 163.70 155.84 164.43 Z M 156.70 164.98 L 157.56 165.52 C 158.70 166.25 160.21 165.91 160.93 164.77 C 161.65 163.63 161.32 162.12 160.18 161.40 L 159.31 160.85 C 158.17 160.13 156.66 160.47 155.94 161.61 C 155.22 162.75 155.56 164.26 156.70 164.98 Z M 157.58 165.52 L 158.53 166.11 C 159.67 166.82 161.17 166.47 161.87 165.33 C 162.58 164.19 162.23 162.69 161.10 161.98 L 160.15 161.40 C 159.01 160.69 157.51 161.04 156.81 162.18 C 156.10 163.32 156.45 164.81 157.58 165.52 Z M 158.56 166.11 L 159.40 166.62 C 160.54 167.32 162.02 166.96 162.72 165.82 C 163.41 164.68 163.05 163.20 161.91 162.50 L 161.07 161.99 C 159.93 161.29 158.44 161.65 157.75 162.79 C 157.06 163.93 157.42 165.41 158.56 166.11 Z M 159.43 166.62 L 160.23 167.09 C 161.36 167.77 162.83 167.40 163.51 166.26 C 164.19 165.13 163.81 163.66 162.68 162.98 L 161.88 162.51 C 160.75 161.83 159.28 162.20 158.60 163.34 C 157.92 164.47 158.30 165.94 159.43 166.62 Z M 160.25 167.09 L 161.04 167.55 C 162.17 168.21 163.63 167.83 164.29 166.70 C 164.95 165.56 164.57 164.11 163.44 163.44 L 162.65 162.99 C 161.52 162.32 160.06 162.70 159.40 163.84 C 158.74 164.97 159.12 166.43 160.25 167.09 Z M 161.06 167.54 L 161.90 168.03 C 163.03 168.68 164.47 168.29 165.13 167.16 C 165.78 166.03 165.39 164.59 164.26 163.93 L 163.42 163.45 C 162.29 162.80 160.84 163.19 160.19 164.32 C 159.54 165.45 159.93 166.89 161.06 167.54 Z M 161.92 168.02 L 162.78 168.51 C 163.91 169.16 165.34 168.76 165.99 167.63 C 166.63 166.51 166.23 165.07 165.10 164.43 L 164.24 163.94 C 163.11 163.30 161.68 163.69 161.04 164.82 C 160.40 165.95 160.79 167.38 161.92 168.02 Z M 162.80 168.51 L 163.68 169.01 C 164.81 169.64 166.23 169.24 166.86 168.11 C 167.50 166.99 167.10 165.56 165.97 164.93 L 165.09 164.44 C 163.96 163.80 162.54 164.20 161.91 165.33 C 161.27 166.45 161.67 167.88 162.80 168.51 Z M 163.70 169.00 L 164.59 169.50 C 165.71 170.12 167.13 169.72 167.75 168.59 C 168.38 167.47 167.97 166.06 166.85 165.43 L 165.96 164.94 C 164.83 164.31 163.42 164.72 162.80 165.84 C 162.17 166.96 162.58 168.38 163.70 169.00 Z M 164.61 169.49 L 165.46 169.96 C 166.58 170.57 167.99 170.17 168.60 169.05 C 169.21 167.93 168.81 166.53 167.69 165.91 L 166.83 165.44 C 165.72 164.83 164.31 165.24 163.70 166.35 C 163.08 167.47 163.49 168.87 164.61 169.49 Z M 165.48 169.95 L 166.35 170.42 C 167.46 171.03 168.85 170.62 169.46 169.50 C 170.06 168.39 169.65 167.00 168.54 166.39 L 167.67 165.92 C 166.56 165.31 165.17 165.73 164.56 166.84 C 163.96 167.95 164.37 169.35 165.48 169.95 Z M 166.36 170.41 L 167.25 170.89 C 168.36 171.49 169.74 171.07 170.34 169.96 C 170.93 168.86 170.52 167.47 169.41 166.88 L 168.52 166.40 C 167.42 165.80 166.03 166.22 165.44 167.33 C 164.84 168.44 165.26 169.82 166.36 170.41 Z M 167.26 170.88 L 168.17 171.36 C 169.27 171.95 170.64 171.53 171.23 170.43 C 171.82 169.33 171.40 167.96 170.30 167.37 L 169.39 166.89 C 168.29 166.30 166.92 166.72 166.33 167.82 C 165.74 168.92 166.16 170.29 167.26 170.88 Z M 168.19 171.35 L 169.06 171.82 C 170.16 172.40 171.52 171.98 172.10 170.88 C 172.68 169.78 172.26 168.42 171.16 167.84 L 170.28 167.38 C 169.19 166.80 167.83 167.22 167.25 168.32 C 166.67 169.42 167.09 170.77 168.19 171.35 Z M 169.07 171.80 L 169.95 172.27 C 171.05 172.84 172.39 172.42 172.97 171.33 C 173.54 170.24 173.12 168.89 172.03 168.31 L 171.15 167.85 C 170.05 167.28 168.71 167.70 168.13 168.79 C 167.56 169.88 167.98 171.23 169.07 171.80 Z M 169.96 172.25 L 170.85 172.72 C 171.94 173.29 173.28 172.87 173.84 171.78 C 174.41 170.70 173.99 169.36 172.91 168.79 L 172.02 168.33 C 170.93 167.76 169.60 168.18 169.03 169.26 C 168.46 170.35 168.88 171.69 169.96 172.25 Z M 170.86 172.70 L 171.76 173.17 C 172.83 173.74 174.16 173.32 174.72 172.25 C 175.29 171.17 174.87 169.84 173.80 169.28 L 172.90 168.81 C 171.83 168.25 170.50 168.66 169.93 169.74 C 169.37 170.81 169.79 172.14 170.86 172.70 Z M 171.76 173.16 L 172.65 173.63 C 173.72 174.19 175.04 173.78 175.60 172.71 C 176.16 171.65 175.75 170.33 174.69 169.77 L 173.79 169.30 C 172.73 168.73 171.41 169.14 170.85 170.21 C 170.28 171.27 170.69 172.59 171.76 173.16 Z M 172.65 173.61 L 173.54 174.08 C 174.60 174.64 175.91 174.24 176.47 173.18 C 177.03 172.13 176.63 170.82 175.57 170.26 L 174.68 169.79 C 173.63 169.23 172.32 169.63 171.76 170.68 C 171.20 171.74 171.60 173.05 172.65 173.61 Z M 173.55 174.06 L 174.43 174.53 C 175.47 175.09 176.77 174.70 177.33 173.65 C 177.89 172.61 177.50 171.31 176.45 170.75 L 175.57 170.28 C 174.52 169.72 173.22 170.11 172.66 171.16 C 172.11 172.20 172.50 173.50 173.55 174.06 Z M 174.43 174.51 L 175.31 174.99 C 176.35 175.54 177.64 175.15 178.19 174.12 C 178.75 173.08 178.36 171.79 177.32 171.24 L 176.45 170.77 C 175.41 170.21 174.12 170.60 173.57 171.63 C 173.01 172.67 173.40 173.96 174.43 174.51 Z M 175.32 174.97 L 176.20 175.44 C 177.22 175.99 178.50 175.61 179.05 174.58 C 179.61 173.56 179.22 172.28 178.19 171.73 L 177.32 171.25 C 176.29 170.70 175.01 171.09 174.46 172.11 C 173.91 173.14 174.29 174.42 175.32 174.97 Z M 176.21 175.42 L 177.08 175.90 C 178.10 176.44 179.37 176.06 179.91 175.05 C 180.46 174.03 180.08 172.76 179.06 172.21 L 178.19 171.74 C 177.17 171.20 175.90 171.58 175.35 172.59 C 174.81 173.61 175.19 174.88 176.21 175.42 Z M 177.10 175.88 L 177.98 176.35 C 178.98 176.89 180.24 176.51 180.78 175.50 C 181.32 174.50 180.94 173.24 179.93 172.70 L 179.05 172.23 C 178.04 171.69 176.79 172.07 176.25 173.08 C 175.71 174.08 176.09 175.34 177.10 175.88 Z M 177.99 176.34 L 178.87 176.80 C 179.87 177.34 181.11 176.96 181.64 175.96 C 182.18 174.96 181.80 173.72 180.80 173.19 L 179.91 172.72 C 178.92 172.19 177.68 172.57 177.14 173.57 C 176.61 174.56 176.99 175.80 177.99 176.34 Z M 178.89 176.79 L 179.78 177.26 C 180.77 177.78 182.00 177.39 182.52 176.40 C 183.04 175.41 182.65 174.18 181.66 173.66 L 180.78 173.20 C 179.78 172.68 178.56 173.06 178.04 174.05 C 177.52 175.05 177.90 176.27 178.89 176.79 Z M 179.81 177.24 L 180.70 177.71 C 181.69 178.21 182.90 177.82 183.40 176.84 C 183.91 175.85 183.52 174.64 182.53 174.14 L 181.64 173.68 C 180.65 173.17 179.44 173.56 178.94 174.54 C 178.43 175.53 178.82 176.74 179.81 177.24 Z M 180.73 177.69 L 181.65 178.16 C 182.63 178.65 183.82 178.25 184.31 177.27 C 184.81 176.29 184.41 175.10 183.43 174.61 L 182.51 174.15 C 181.53 173.66 180.34 174.05 179.84 175.03 C 179.35 176.01 179.75 177.20 180.73 177.69 Z M 181.67 178.14 L 182.59 178.60 C 183.56 179.07 184.74 178.67 185.22 177.70 C 185.70 176.73 185.30 175.55 184.32 175.08 L 183.41 174.62 C 182.44 174.15 181.26 174.55 180.78 175.52 C 180.30 176.49 180.70 177.67 181.67 178.14 Z M 182.61 178.58 L 183.51 179.02 C 184.47 179.48 185.63 179.08 186.10 178.12 C 186.57 177.16 186.17 175.99 185.20 175.53 L 184.30 175.09 C 183.34 174.62 182.18 175.03 181.71 175.99 C 181.25 176.95 181.65 178.11 182.61 178.58 Z M 183.53 179.00 L 184.39 179.42 C 185.35 179.88 186.49 179.47 186.95 178.52 C 187.41 177.57 187.01 176.42 186.06 175.96 L 185.19 175.54 C 184.23 175.09 183.09 175.49 182.63 176.44 C 182.17 177.40 182.57 178.54 183.53 179.00 Z M 184.41 179.40 L 185.34 179.84 C 186.28 180.29 187.41 179.89 187.86 178.95 C 188.31 178.01 187.92 176.88 186.97 176.43 L 186.04 175.98 C 185.10 175.53 183.97 175.93 183.52 176.87 C 183.07 177.81 183.46 178.95 184.41 179.40 Z M 185.35 179.82 L 186.28 180.26 C 187.21 180.70 188.32 180.31 188.77 179.38 C 189.21 178.45 188.82 177.33 187.88 176.89 L 186.96 176.45 C 186.03 176.01 184.91 176.40 184.47 177.33 C 184.03 178.26 184.42 179.38 185.35 179.82 Z M 186.29 180.24 L 187.18 180.66 C 188.10 181.09 189.20 180.70 189.63 179.78 C 190.06 178.86 189.67 177.76 188.75 177.33 L 187.87 176.91 C 186.95 176.48 185.85 176.87 185.42 177.79 C 184.98 178.71 185.38 179.81 186.29 180.24 Z M 187.20 180.64 L 188.05 181.04 C 188.96 181.46 190.04 181.07 190.47 180.16 C 190.89 179.25 190.50 178.17 189.59 177.75 L 188.73 177.35 C 187.82 176.92 186.74 177.32 186.32 178.22 C 185.90 179.13 186.29 180.21 187.20 180.64 Z M 188.07 181.02 L 188.92 181.41 C 189.82 181.82 190.88 181.43 191.30 180.53 C 191.71 179.63 191.32 178.57 190.42 178.15 L 189.57 177.76 C 188.67 177.35 187.61 177.75 187.19 178.65 C 186.78 179.54 187.18 180.61 188.07 181.02 Z M 188.94 181.40 L 189.82 181.79 C 190.71 182.19 191.75 181.79 192.16 180.90 C 192.56 180.01 192.16 178.96 191.27 178.56 L 190.39 178.17 C 189.50 177.77 188.46 178.16 188.05 179.06 C 187.65 179.95 188.05 181.00 188.94 181.40 Z M 189.84 181.77 L 190.78 182.18 C 191.66 182.57 192.69 182.17 193.08 181.28 C 193.47 180.40 193.06 179.37 192.18 178.98 L 191.24 178.57 C 190.36 178.19 189.33 178.59 188.94 179.47 C 188.55 180.36 188.96 181.39 189.84 181.77 Z M 190.80 182.17 L 191.78 182.59 C 192.66 182.97 193.68 182.56 194.05 181.68 C 194.42 180.80 194.02 179.79 193.14 179.41 L 192.15 178.99 C 191.28 178.62 190.26 179.03 189.89 179.91 C 189.51 180.78 189.92 181.80 190.80 182.17 Z M 191.80 182.58 L 192.69 182.95 C 193.57 183.32 194.57 182.91 194.93 182.03 C 195.30 181.16 194.88 180.16 194.01 179.79 L 193.12 179.42 C 192.25 179.06 191.25 179.47 190.88 180.34 C 190.52 181.22 190.93 182.22 191.80 182.58 Z M 192.71 182.95 L 193.64 183.33 C 194.51 183.69 195.51 183.27 195.86 182.40 C 196.22 181.54 195.80 180.54 194.94 180.19 L 194.00 179.80 C 193.13 179.45 192.14 179.86 191.78 180.73 C 191.42 181.60 191.84 182.59 192.71 182.95 Z M 193.66 183.32 L 194.61 183.71 C 195.48 184.06 196.46 183.64 196.81 182.78 C 197.16 181.91 196.74 180.93 195.88 180.58 L 194.92 180.19 C 194.06 179.84 193.07 180.26 192.73 181.13 C 192.38 181.99 192.79 182.97 193.66 183.32 Z M 194.62 183.70 L 195.57 184.08 C 196.43 184.42 197.40 184.00 197.75 183.14 C 198.09 182.28 197.67 181.31 196.81 180.97 L 195.87 180.59 C 195.01 180.25 194.03 180.66 193.69 181.52 C 193.34 182.38 193.76 183.36 194.62 183.70 Z M 195.58 184.07 L 196.54 184.45 C 197.40 184.79 198.37 184.37 198.70 183.51 C 199.04 182.65 198.62 181.69 197.76 181.35 L 196.80 180.97 C 195.94 180.64 194.98 181.06 194.64 181.91 C 194.30 182.77 194.72 183.74 195.58 184.07 Z M 196.56 184.45 L 197.53 184.82 C 198.38 185.15 199.34 184.73 199.67 183.87 C 200.00 183.02 199.58 182.06 198.72 181.73 L 197.75 181.35 C 196.90 181.02 195.94 181.45 195.61 182.30 C 195.28 183.16 195.70 184.12 196.56 184.45 Z M 197.54 184.82 L 198.47 185.17 C 199.32 185.50 200.27 185.07 200.60 184.22 C 200.92 183.36 200.49 182.41 199.64 182.09 L 198.71 181.73 C 197.86 181.41 196.91 181.84 196.58 182.69 C 196.26 183.54 196.69 184.50 197.54 184.82 Z M 198.47 185.17 L 199.37 185.51 C 200.22 185.83 201.17 185.40 201.49 184.55 C 201.81 183.70 201.38 182.75 200.53 182.43 L 199.63 182.09 C 198.78 181.77 197.83 182.20 197.51 183.05 C 197.19 183.90 197.62 184.85 198.47 185.17 Z M 199.38 185.50 L 200.00 185.74 C 200.85 186.05 201.79 185.62 202.11 184.78 C 202.43 183.93 202.00 182.98 201.15 182.67 L 200.53 182.43 C 199.68 182.11 198.73 182.54 198.42 183.39 C 198.10 184.24 198.53 185.18 199.38 185.50 Z"
      fill="black"
      fill-rule="nonzero" /></svg>