<svg xmlns="http://www.w3.org/2000/svg" version="1.0" width="937.000000pt" height="937.000000pt" viewBox="0 0 937.000000 937.000000" preserveAspectRatio="xMidYMid meet">
  <defs/>
  <path fill="#000000" d="M474.4,326.4 L471.5,328.8 L471,368.6 L470.5,408.5 L455,409.2 C443.6,409.7 437.8,410.4 433,411.9 C429.5,413 426.5,413.8 426.4,413.7 C426.2,413.6 425.4,408.1 424.5,401.5 C420.8,374.2 415.3,349.4 412.2,345.7 C410.3,343.5 405.6,343.5 403.4,345.7 L401.7,347.4 L402.3,356.5 C402.7,361.4 403.9,370.1 405,375.6 C406,381.2 409.2,400.8 412,419.1 C422.4,488 422.8,490.1 424.6,492.1 C425.5,493.1 426.9,494 427.7,494 C428.7,494 428.5,494.8 426.9,496.9 C424.5,500.2 424.8,503.3 427.7,506.9 C430,509.8 438.3,511 455.8,511 L469,511 L469,516.7 C468.9,525.7 465.4,582 464.8,582.5 C464.6,582.8 462.8,581.9 461,580.5 C457,577.5 454.9,577.4 452.7,579.8 C449.9,582.8 450.7,585.6 455.3,589.4 L459.5,593 L412,593 L364.4,593 L362.2,594.6 C359.5,596.5 359.2,602 361.8,604.2 C362.7,605.1 366,606.5 369,607.5 L374.5,609.2 L437.5,610 C513.7,611 529.9,611.8 572.8,617.1 L606.1,621.2 L608.5,619.6 C611.4,617.7 612,612 609.5,610 C608.7,609.3 604.5,608.4 600.2,607.9 C596,607.5 587.3,606 581,604.6 C555.7,599.1 532.8,596.5 490.6,594.4 L477.8,593.8 L478.4,588.6 C479.1,583 481.3,555.7 483.2,527.9 L484.4,510.2 L499.4,509.5 C530,508.1 537.9,506.6 548.3,500 C553.5,496.7 554.4,493.6 551.2,490.7 C548.7,488.4 547.9,488.5 541.3,492 C532.2,496.7 527.2,497.2 504.6,495.9 L484.7,494.7 L485.4,485.1 C485.7,479.8 486,472.4 486,468.6 L486,461.7 L488,463.5 C489,464.4 490.8,465 491.8,464.8 C493.5,464.3 518.4,448.9 529.5,441.4 C544.4,431.4 542.4,418 525,411.4 C521.7,410.2 515.9,409.5 503.5,409.1 L486.5,408.5 L485.9,375.5 C485.3,340.8 484.5,329 482.6,326.6 C480.5,323.9 477.4,323.8 474.4,326.4 Z M470.8,447.5 C471,460.7 470.8,476.6 470.5,482.7 L469.8,494 L461.1,494 L452.3,494 L452.8,491 C453.7,484.5 448.8,483.3 440.6,488 L435.4,490.9 L433.2,465.7 C430,429.1 430.1,426.9 436.2,425.5 C439.2,424.8 465.3,423.2 469,423.4 L470.5,423.5 L470.8,447.5 Z M512.6,424 C520.3,425 525,426.7 525,428.5 C525,430.8 517.1,437.1 501.8,446.8 L486,456.9 L486,439.9 L486,423 L495.8,423 C501.1,423 508.7,423.5 512.6,424 Z"/>
</svg>

