<svg xmlns="http://www.w3.org/2000/svg" version="1.0" width="937.000000pt" height="937.000000pt" viewBox="0 0 937.000000 937.000000" preserveAspectRatio="xMidYMid meet">
  <defs/>
  <path fill="#000000" d="M500,371.6 C455,377 422.8,380 410.7,380 L401.8,380 L399.3,378 C396,375.5 395.2,375.5 388.6,378.4 C380.2,382.1 378.5,387.8 384.1,393.1 L387.2,396 L385.6,402.2 C383.9,409.4 381.8,425.2 379.5,449 C378.6,458.1 375.7,482.8 373,504 C365.8,560.6 364,578.4 364,592.6 L364,605.4 L366.1,609.7 C369.3,616.4 379.1,622.1 393.2,625.6 C399.6,627.2 416.7,627.7 525.5,629.6 L565.5,630.3 L568.6,628.7 C570.3,627.8 572.3,625.7 573,623.9 L574.4,620.7 L572.4,617.1 C570.5,613.5 564.9,609 562.3,609 C561.5,609 559.7,610.2 558.3,611.7 L555.6,614.3 L520,613.5 C500.5,613.1 464.5,612.4 440,612 L395.5,611.3 L390.4,609.7 C387.6,608.8 383.8,607 381.9,605.7 L378.5,603.4 L378.6,590.9 C378.8,577.3 379.5,570.1 387.5,506 C390.5,482.1 393.6,454.8 394.5,445.5 C396.7,421.7 398.8,406.3 400.6,400.7 L402.2,396 L409.4,396 C420.7,396 441,394.2 472,390.5 C523.2,384.4 530.9,383.8 533.5,385.6 C536.8,388.1 547.1,385.2 548.9,381.4 C550.2,378.5 548.3,373.8 545.3,372.4 C543.4,371.6 506.1,370.9 500,371.6 Z"/>
</svg>

