<svg xmlns="http://www.w3.org/2000/svg" width="300" height="300" viewBox="0 0 300 300">
<path d="M 122.33 128.48 L 121.85 129.38 C 121.25 130.51 121.67 131.92 122.80 132.52 C 123.93 133.13 125.33 132.70 125.94 131.57 L 126.42 130.67 C 127.02 129.55 126.60 128.14 125.47 127.54 C 124.34 126.93 122.94 127.36 122.33 128.48 Z M 121.76 129.52 L 121.36 130.44 C 120.83 131.61 121.36 132.99 122.53 133.52 C 123.71 134.05 125.09 133.52 125.62 132.34 L 126.03 131.43 C 126.55 130.25 126.03 128.87 124.85 128.35 C 123.67 127.82 122.29 128.35 121.76 129.52 Z M 121.22 130.76 L 120.96 131.70 C 120.61 132.95 121.34 134.25 122.59 134.60 C 123.84 134.95 125.13 134.22 125.48 132.97 L 125.75 132.03 C 126.10 130.78 125.37 129.48 124.12 129.13 C 122.87 128.78 121.57 129.51 121.22 130.76 Z M 120.86 132.19 L 120.81 133.10 C 120.73 134.40 121.72 135.52 123.02 135.60 C 124.32 135.68 125.44 134.69 125.52 133.39 L 125.58 132.48 C 125.66 131.18 124.67 130.06 123.37 129.98 C 122.07 129.90 120.95 130.88 120.86 132.19 Z M 120.82 133.53 L 120.93 134.43 C 121.09 135.73 122.27 136.65 123.56 136.49 C 124.86 136.33 125.78 135.15 125.62 133.85 L 125.51 132.95 C 125.35 131.66 124.17 130.74 122.88 130.90 C 121.58 131.05 120.66 132.23 120.82 133.53 Z M 120.97 134.68 L 121.20 135.65 C 121.49 136.92 122.77 137.71 124.04 137.41 C 125.31 137.12 126.10 135.84 125.80 134.57 L 125.58 133.60 C 125.28 132.33 124.01 131.54 122.74 131.84 C 121.47 132.13 120.68 133.41 120.97 134.68 Z M 121.22 135.75 L 121.52 136.81 C 121.88 138.06 123.18 138.79 124.44 138.44 C 125.70 138.09 126.43 136.78 126.08 135.52 L 125.78 134.47 C 125.42 133.21 124.12 132.48 122.86 132.83 C 121.60 133.19 120.87 134.49 121.22 135.75 Z M 121.52 136.81 L 121.80 137.78 C 122.15 139.03 123.46 139.76 124.72 139.41 C 125.97 139.05 126.70 137.75 126.35 136.49 L 126.07 135.52 C 125.72 134.26 124.41 133.53 123.15 133.89 C 121.90 134.24 121.17 135.55 121.52 136.81 Z M 121.79 137.75 L 122.03 138.64 C 122.37 139.90 123.67 140.65 124.93 140.30 C 126.19 139.96 126.94 138.66 126.60 137.40 L 126.36 136.51 C 126.01 135.25 124.71 134.51 123.45 134.85 C 122.19 135.19 121.45 136.49 121.79 137.75 Z M 122.03 138.63 L 122.28 139.57 C 122.61 140.83 123.91 141.58 125.17 141.25 C 126.43 140.91 127.18 139.62 126.85 138.35 L 126.60 137.42 C 126.26 136.15 124.97 135.40 123.71 135.74 C 122.45 136.07 121.69 137.36 122.03 138.63 Z M 122.28 139.56 L 122.53 140.54 C 122.87 141.81 124.16 142.56 125.42 142.23 C 126.68 141.90 127.44 140.61 127.11 139.35 L 126.85 138.36 C 126.52 137.10 125.23 136.34 123.96 136.67 C 122.70 137.00 121.94 138.30 122.28 139.56 Z M 122.54 140.55 L 122.80 141.57 C 123.14 142.83 124.43 143.59 125.69 143.26 C 126.95 142.92 127.71 141.63 127.38 140.37 L 127.11 139.34 C 126.77 138.08 125.48 137.33 124.22 137.66 C 122.96 137.99 122.20 139.28 122.54 140.55 Z M 122.81 141.58 L 123.09 142.64 C 123.43 143.90 124.72 144.65 125.98 144.31 C 127.24 143.98 127.99 142.68 127.66 141.42 L 127.37 140.36 C 127.04 139.10 125.74 138.35 124.48 138.69 C 123.22 139.02 122.47 140.32 122.81 141.58 Z M 123.10 142.65 L 123.36 143.63 C 123.70 144.89 125.00 145.63 126.26 145.29 C 127.52 144.94 128.26 143.65 127.92 142.39 L 127.65 141.41 C 127.31 140.15 126.01 139.41 124.75 139.75 C 123.50 140.10 122.75 141.39 123.10 142.65 Z M 123.37 143.64 L 123.64 144.62 C 123.99 145.88 125.29 146.61 126.54 146.27 C 127.80 145.92 128.53 144.62 128.18 143.37 L 127.91 142.38 C 127.56 141.12 126.26 140.39 125.01 140.74 C 123.75 141.08 123.02 142.38 123.37 143.64 Z M 123.65 144.63 L 123.92 145.62 C 124.28 146.87 125.58 147.60 126.83 147.25 C 128.08 146.90 128.81 145.60 128.46 144.35 L 128.18 143.36 C 127.83 142.11 126.53 141.38 125.27 141.73 C 124.02 142.08 123.29 143.38 123.65 144.63 Z M 123.93 145.63 L 124.21 146.60 C 124.57 147.85 125.87 148.57 127.11 148.22 C 128.36 147.86 129.09 146.56 128.73 145.31 L 128.45 144.34 C 128.09 143.09 126.79 142.37 125.55 142.72 C 124.30 143.08 123.57 144.38 123.93 145.63 Z M 124.21 146.61 L 124.49 147.56 C 124.85 148.81 126.15 149.52 127.40 149.16 C 128.64 148.80 129.36 147.50 129.00 146.26 L 128.72 145.31 C 128.36 144.06 127.06 143.34 125.82 143.70 C 124.57 144.06 123.85 145.37 124.21 146.61 Z M 124.49 147.57 L 124.76 148.48 C 125.13 149.72 126.43 150.44 127.67 150.07 C 128.91 149.71 129.63 148.40 129.26 147.16 L 128.99 146.25 C 128.63 145.01 127.33 144.29 126.08 144.66 C 124.84 145.02 124.13 146.33 124.49 147.57 Z M 124.77 148.49 L 125.08 149.53 C 125.45 150.76 126.75 151.47 127.99 151.10 C 129.23 150.73 129.93 149.43 129.56 148.19 L 129.25 147.15 C 128.89 145.92 127.58 145.21 126.34 145.58 C 125.11 145.95 124.40 147.25 124.77 148.49 Z M 125.09 149.54 L 125.39 150.55 C 125.77 151.78 127.07 152.48 128.30 152.11 C 129.54 151.73 130.24 150.43 129.86 149.20 L 129.55 148.18 C 129.18 146.95 127.88 146.25 126.64 146.62 C 125.41 147.00 124.71 148.30 125.09 149.54 Z M 125.40 150.56 L 125.70 151.52 C 126.08 152.74 127.38 153.43 128.61 153.05 C 129.84 152.67 130.53 151.37 130.15 150.14 L 129.85 149.18 C 129.47 147.96 128.17 147.27 126.94 147.65 C 125.71 148.03 125.02 149.33 125.40 150.56 Z M 125.71 151.53 L 126.00 152.43 C 126.39 153.66 127.69 154.33 128.91 153.94 C 130.14 153.55 130.81 152.25 130.42 151.03 L 130.14 150.12 C 129.75 148.90 128.44 148.23 127.22 148.61 C 126.00 149.00 125.32 150.31 125.71 151.53 Z M 126.01 152.45 L 126.29 153.31 C 126.69 154.53 128.00 155.19 129.21 154.80 C 130.43 154.40 131.09 153.09 130.69 151.87 L 130.41 151.01 C 130.01 149.79 128.71 149.13 127.49 149.53 C 126.27 149.93 125.61 151.23 126.01 152.45 Z M 126.30 153.33 L 126.61 154.25 C 127.02 155.46 128.33 156.11 129.54 155.70 C 130.75 155.29 131.40 153.98 130.99 152.77 L 130.68 151.85 C 130.27 150.65 128.96 150.00 127.75 150.41 C 126.54 150.81 125.90 152.13 126.30 153.33 Z M 126.63 154.28 L 126.95 155.19 C 127.38 156.39 128.70 157.02 129.90 156.59 C 131.10 156.17 131.72 154.85 131.30 153.65 L 130.97 152.74 C 130.55 151.54 129.23 150.91 128.03 151.34 C 126.83 151.76 126.20 153.08 126.63 154.28 Z M 126.97 155.23 L 127.32 156.15 C 127.77 157.34 129.09 157.94 130.28 157.49 C 131.47 157.05 132.07 155.72 131.63 154.53 L 131.28 153.61 C 130.83 152.42 129.50 151.82 128.32 152.27 C 127.13 152.72 126.53 154.04 126.97 155.23 Z M 127.35 156.20 L 127.73 157.15 C 128.20 158.32 129.54 158.89 130.71 158.42 C 131.89 157.95 132.46 156.61 131.98 155.44 L 131.60 154.49 C 131.13 153.31 129.79 152.74 128.62 153.21 C 127.44 153.69 126.87 155.02 127.35 156.20 Z M 127.75 157.19 L 128.16 158.14 C 128.65 159.30 130.00 159.84 131.16 159.34 C 132.32 158.84 132.86 157.50 132.36 156.34 L 131.96 155.39 C 131.46 154.23 130.12 153.69 128.95 154.19 C 127.79 154.69 127.25 156.03 127.75 157.19 Z M 128.18 158.18 L 128.60 159.09 C 129.12 160.23 130.47 160.74 131.62 160.22 C 132.76 159.70 133.27 158.34 132.75 157.20 L 132.34 156.29 C 131.81 155.15 130.46 154.64 129.31 155.16 C 128.17 155.68 127.66 157.03 128.18 158.18 Z M 128.62 159.13 L 129.07 160.05 C 129.62 161.18 130.98 161.65 132.11 161.11 C 133.24 160.56 133.71 159.20 133.16 158.07 L 132.72 157.15 C 132.17 156.02 130.81 155.55 129.68 156.10 C 128.55 156.64 128.08 158.00 128.62 159.13 Z M 129.11 160.11 L 129.58 161.01 C 130.16 162.13 131.53 162.56 132.64 161.98 C 133.75 161.40 134.18 160.03 133.60 158.92 L 133.13 158.01 C 132.55 156.90 131.18 156.47 130.07 157.05 C 128.96 157.63 128.53 159.00 129.11 160.11 Z M 129.62 161.08 L 130.12 161.95 C 130.73 163.04 132.11 163.42 133.20 162.80 C 134.28 162.19 134.66 160.81 134.05 159.72 L 133.55 158.85 C 132.94 157.77 131.56 157.39 130.47 158.00 C 129.39 158.62 129.01 160.00 129.62 161.08 Z M 130.18 162.04 L 130.72 162.90 C 131.38 163.95 132.77 164.26 133.82 163.60 C 134.88 162.94 135.19 161.55 134.53 160.49 L 133.99 159.64 C 133.32 158.58 131.93 158.27 130.88 158.93 C 129.83 159.60 129.51 160.99 130.18 162.04 Z M 130.81 163.01 L 131.44 163.88 C 132.16 164.88 133.57 165.10 134.57 164.38 C 135.57 163.65 135.79 162.25 135.07 161.25 L 134.44 160.38 C 133.71 159.38 132.31 159.15 131.31 159.88 C 130.30 160.61 130.08 162.01 130.81 163.01 Z M 131.56 164.02 L 132.22 164.78 C 133.02 165.71 134.43 165.82 135.36 165.01 C 136.30 164.21 136.40 162.80 135.60 161.87 L 134.94 161.11 C 134.14 160.17 132.73 160.07 131.80 160.87 C 130.86 161.68 130.76 163.08 131.56 164.02 Z M 132.37 164.92 L 133.07 165.59 C 133.95 166.43 135.35 166.40 136.20 165.52 C 137.05 164.63 137.02 163.23 136.13 162.38 L 135.44 161.72 C 134.56 160.88 133.15 160.91 132.31 161.79 C 131.46 162.67 131.49 164.08 132.37 164.92 Z M 133.25 165.73 L 133.99 166.30 C 134.95 167.04 136.34 166.86 137.08 165.90 C 137.82 164.93 137.64 163.55 136.68 162.81 L 135.94 162.24 C 134.98 161.50 133.60 161.68 132.85 162.64 C 132.11 163.60 132.29 164.99 133.25 165.73 Z M 134.21 166.43 L 135.02 166.92 C 136.06 167.54 137.41 167.20 138.03 166.16 C 138.65 165.12 138.31 163.78 137.27 163.16 L 136.46 162.67 C 135.42 162.05 134.07 162.38 133.45 163.42 C 132.83 164.46 133.17 165.81 134.21 166.43 Z M 135.27 167.04 L 136.15 167.43 C 137.25 167.91 138.54 167.41 139.03 166.31 C 139.52 165.20 139.01 163.91 137.91 163.43 L 137.03 163.04 C 135.92 162.55 134.63 163.05 134.15 164.16 C 133.66 165.26 134.16 166.55 135.27 167.04 Z M 136.40 167.51 L 137.36 167.80 C 138.52 168.15 139.73 167.49 140.08 166.34 C 140.42 165.19 139.77 163.97 138.62 163.63 L 137.65 163.34 C 136.50 162.99 135.29 163.65 134.94 164.80 C 134.60 165.95 135.25 167.17 136.40 167.51 Z M 137.61 167.85 L 138.66 168.04 C 139.84 168.25 140.97 167.47 141.18 166.29 C 141.39 165.11 140.61 163.98 139.43 163.77 L 138.37 163.58 C 137.19 163.37 136.07 164.15 135.86 165.33 C 135.64 166.51 136.43 167.64 137.61 167.85 Z M 138.86 168.06 L 139.85 168.14 C 141.04 168.24 142.09 167.36 142.19 166.17 C 142.29 164.98 141.41 163.93 140.22 163.83 L 139.23 163.75 C 138.04 163.65 136.99 164.53 136.89 165.72 C 136.79 166.91 137.67 167.96 138.86 168.06 Z M 140.01 168.15 L 141.03 168.16 C 142.22 168.17 143.20 167.22 143.21 166.03 C 143.23 164.83 142.27 163.85 141.08 163.84 L 140.06 163.83 C 138.87 163.81 137.89 164.77 137.88 165.96 C 137.86 167.16 138.82 168.13 140.01 168.15 Z M 141.17 168.15 L 142.20 168.10 C 143.39 168.03 144.30 167.01 144.24 165.83 C 144.17 164.64 143.15 163.72 141.96 163.79 L 140.94 163.85 C 139.75 163.91 138.83 164.93 138.90 166.12 C 138.97 167.31 139.98 168.22 141.17 168.15 Z M 142.35 168.08 L 143.35 167.96 C 144.53 167.81 145.37 166.74 145.22 165.56 C 145.08 164.37 144.00 163.54 142.82 163.68 L 141.82 163.81 C 140.64 163.95 139.80 165.03 139.94 166.21 C 140.09 167.39 141.16 168.23 142.35 168.08 Z M 143.51 167.93 L 144.45 167.74 C 145.62 167.50 146.37 166.37 146.14 165.20 C 145.90 164.04 144.77 163.28 143.60 163.52 L 142.66 163.71 C 141.49 163.95 140.74 165.08 140.97 166.25 C 141.21 167.41 142.34 168.16 143.51 167.93 Z M 144.66 167.68 L 145.70 167.36 C 146.83 167.01 147.47 165.81 147.12 164.68 C 146.77 163.54 145.56 162.91 144.43 163.26 L 143.39 163.58 C 142.26 163.93 141.62 165.13 141.97 166.26 C 142.32 167.40 143.53 168.03 144.66 167.68 Z M 145.92 167.28 L 146.84 166.88 C 147.93 166.40 148.42 165.14 147.95 164.06 C 147.48 162.97 146.22 162.47 145.13 162.94 L 144.21 163.34 C 143.12 163.81 142.63 165.08 143.10 166.16 C 143.57 167.25 144.83 167.75 145.92 167.28 Z M 147.02 166.78 L 147.86 166.32 C 148.89 165.75 149.27 164.45 148.70 163.41 C 148.13 162.38 146.83 162.00 145.79 162.57 L 144.95 163.04 C 143.92 163.61 143.54 164.91 144.11 165.94 C 144.68 166.98 145.98 167.35 147.02 166.78 Z M 147.98 166.24 L 148.78 165.73 C 149.77 165.09 150.05 163.77 149.41 162.78 C 148.78 161.79 147.45 161.50 146.46 162.14 L 145.67 162.65 C 144.68 163.29 144.39 164.61 145.03 165.60 C 145.67 166.59 146.99 166.88 147.98 166.24 Z M 148.85 165.68 L 149.65 165.11 C 150.61 164.43 150.84 163.10 150.16 162.14 C 149.48 161.18 148.15 160.95 147.19 161.63 L 146.39 162.19 C 145.43 162.87 145.20 164.20 145.88 165.16 C 146.56 166.13 147.89 166.35 148.85 165.68 Z M 149.71 165.06 L 150.50 164.47 C 151.43 163.76 151.62 162.42 150.91 161.49 C 150.20 160.55 148.86 160.36 147.93 161.07 L 147.14 161.67 C 146.20 162.38 146.02 163.72 146.73 164.65 C 147.44 165.59 148.77 165.77 149.71 165.06 Z M 150.54 164.43 L 151.33 163.80 C 152.24 163.06 152.39 161.72 151.65 160.81 C 150.92 159.90 149.58 159.75 148.67 160.48 L 147.88 161.11 C 146.97 161.85 146.82 163.18 147.55 164.10 C 148.29 165.01 149.63 165.16 150.54 164.43 Z M 151.36 163.76 L 152.13 163.12 C 153.03 162.37 153.14 161.03 152.39 160.13 C 151.64 159.23 150.30 159.12 149.41 159.87 L 148.64 160.51 C 147.74 161.27 147.62 162.60 148.37 163.50 C 149.12 164.40 150.46 164.52 151.36 163.76 Z M 152.15 163.09 L 152.88 162.47 C 153.76 161.70 153.86 160.36 153.09 159.48 C 152.33 158.59 150.99 158.50 150.11 159.26 L 149.38 159.89 C 148.50 160.66 148.40 162.00 149.17 162.88 C 149.93 163.76 151.27 163.86 152.15 163.09 Z M 152.90 162.44 L 153.64 161.79 C 154.51 161.01 154.59 159.67 153.81 158.80 C 153.03 157.93 151.69 157.85 150.82 158.63 L 150.09 159.29 C 149.21 160.06 149.14 161.40 149.91 162.27 C 150.69 163.14 152.03 163.22 152.90 162.44 Z M 153.66 161.76 L 154.41 161.07 C 155.27 160.29 155.33 158.95 154.54 158.09 C 153.75 157.23 152.41 157.17 151.55 157.96 L 150.80 158.65 C 149.94 159.44 149.88 160.78 150.67 161.64 C 151.46 162.50 152.80 162.55 153.66 161.76 Z M 154.43 161.05 L 155.19 160.34 C 156.04 159.54 156.08 158.20 155.28 157.35 C 154.48 156.51 153.14 156.47 152.29 157.27 L 151.53 157.98 C 150.69 158.78 150.65 160.12 151.45 160.97 C 152.24 161.81 153.58 161.85 154.43 161.05 Z M 155.20 160.32 L 155.91 159.64 C 156.75 158.83 156.77 157.50 155.96 156.66 C 155.16 155.82 153.82 155.80 152.98 156.61 L 152.28 157.28 C 151.44 158.09 151.41 159.43 152.22 160.27 C 153.03 161.10 154.37 161.13 155.20 160.32 Z M 155.92 159.63 L 156.63 158.93 C 157.46 158.12 157.48 156.78 156.66 155.95 C 155.85 155.12 154.52 155.11 153.68 155.92 L 152.97 156.62 C 152.14 157.43 152.13 158.77 152.94 159.60 C 153.75 160.43 155.09 160.44 155.92 159.63 Z M 156.64 158.92 L 157.36 158.21 C 158.18 157.39 158.19 156.06 157.37 155.23 C 156.55 154.41 155.22 154.40 154.39 155.22 L 153.68 155.93 C 152.85 156.75 152.85 158.08 153.66 158.91 C 154.48 159.73 155.81 159.74 156.64 158.92 Z M 157.36 158.20 L 158.08 157.49 C 158.90 156.67 158.90 155.34 158.08 154.52 C 157.26 153.69 155.93 153.69 155.11 154.51 L 154.39 155.23 C 153.57 156.05 153.57 157.38 154.39 158.20 C 155.21 159.02 156.54 159.02 157.36 158.20 Z M 158.08 157.49 L 158.79 156.77 C 159.61 155.95 159.61 154.62 158.79 153.80 C 157.97 152.98 156.64 152.98 155.82 153.80 L 155.11 154.52 C 154.29 155.33 154.29 156.66 155.11 157.48 C 155.93 158.30 157.26 158.30 158.08 157.49 Z M 158.79 156.77 L 159.50 156.06 C 160.32 155.24 160.32 153.91 159.51 153.09 C 158.69 152.27 157.36 152.27 156.54 153.09 L 155.83 153.80 C 155.01 154.62 155.01 155.95 155.82 156.77 C 156.64 157.59 157.97 157.59 158.79 156.77 Z M 159.50 156.06 L 160.21 155.36 C 161.03 154.54 161.03 153.22 160.22 152.40 C 159.41 151.58 158.08 151.57 157.26 152.38 L 156.55 153.09 C 155.73 153.90 155.72 155.23 156.53 156.05 C 157.35 156.87 158.67 156.88 159.50 156.06 Z M 160.20 155.36 L 160.91 154.67 C 161.73 153.86 161.74 152.53 160.94 151.71 C 160.13 150.89 158.80 150.87 157.98 151.68 L 157.27 152.38 C 156.44 153.19 156.43 154.51 157.24 155.33 C 158.05 156.16 159.37 156.17 160.20 155.36 Z M 160.89 154.68 L 161.61 153.99 C 162.44 153.19 162.46 151.86 161.66 151.03 C 160.86 150.21 159.54 150.18 158.71 150.98 L 157.99 151.67 C 157.16 152.47 157.14 153.79 157.94 154.62 C 158.74 155.45 160.06 155.48 160.89 154.68 Z M 161.59 154.00 L 162.24 153.38 C 163.08 152.59 163.11 151.27 162.32 150.43 C 161.53 149.60 160.21 149.56 159.37 150.35 L 158.72 150.97 C 157.89 151.76 157.85 153.08 158.64 153.92 C 159.44 154.75 160.75 154.79 161.59 154.00 Z M 162.23 153.39 L 162.88 152.78 C 163.73 152.00 163.78 150.68 162.99 149.84 C 162.21 149.00 160.89 148.95 160.05 149.73 L 159.39 150.34 C 158.55 151.13 158.50 152.44 159.28 153.29 C 160.06 154.13 161.38 154.18 162.23 153.39 Z M 162.87 152.79 L 163.57 152.15 C 164.42 151.38 164.48 150.06 163.71 149.21 C 162.93 148.36 161.62 148.30 160.77 149.08 L 160.06 149.72 C 159.22 150.49 159.15 151.81 159.93 152.66 C 160.70 153.51 162.02 153.57 162.87 152.79 Z M 163.56 152.16 L 164.32 151.48 C 165.18 150.71 165.25 149.39 164.49 148.54 C 163.72 147.68 162.40 147.61 161.55 148.38 L 160.78 149.07 C 159.93 149.83 159.85 151.15 160.62 152.00 C 161.39 152.86 162.70 152.93 163.56 152.16 Z M 164.31 151.48 L 165.16 150.73 C 166.02 149.97 166.10 148.66 165.34 147.80 C 164.58 146.94 163.27 146.86 162.41 147.62 L 161.56 148.37 C 160.70 149.13 160.62 150.44 161.38 151.30 C 162.14 152.16 163.45 152.24 164.31 151.48 Z M 165.15 150.74 L 165.96 150.04 C 166.82 149.28 166.91 147.97 166.15 147.11 C 165.40 146.25 164.09 146.16 163.22 146.91 L 162.42 147.61 C 161.56 148.37 161.47 149.68 162.22 150.54 C 162.98 151.41 164.29 151.49 165.15 150.74 Z M 165.95 150.04 L 166.72 149.38 C 167.58 148.62 167.67 147.31 166.92 146.45 C 166.17 145.58 164.86 145.49 164.00 146.24 L 163.23 146.91 C 162.36 147.66 162.27 148.97 163.02 149.83 C 163.77 150.70 165.08 150.79 165.95 150.04 Z M 166.71 149.38 L 167.51 148.69 C 168.37 147.94 168.47 146.63 167.72 145.77 C 166.97 144.90 165.66 144.81 164.79 145.55 L 164.00 146.24 C 163.13 146.99 163.04 148.30 163.79 149.17 C 164.54 150.03 165.85 150.13 166.71 149.38 Z M 167.50 148.69 L 168.31 148.00 C 169.17 147.25 169.27 145.94 168.52 145.08 C 167.77 144.21 166.47 144.11 165.60 144.86 L 164.80 145.55 C 163.93 146.30 163.83 147.61 164.58 148.47 C 165.33 149.34 166.64 149.44 167.50 148.69 Z M 168.30 148.00 L 169.09 147.32 C 169.96 146.58 170.06 145.27 169.31 144.40 C 168.56 143.54 167.26 143.44 166.39 144.18 L 165.60 144.86 C 164.74 145.61 164.64 146.91 165.38 147.78 C 166.13 148.65 167.44 148.75 168.30 148.00 Z M 169.09 147.32 L 169.84 146.68 C 170.71 145.93 170.81 144.63 170.06 143.76 C 169.32 142.89 168.01 142.79 167.14 143.54 L 166.39 144.18 C 165.53 144.93 165.43 146.23 166.17 147.10 C 166.92 147.97 168.22 148.07 169.09 147.32 Z M 169.84 146.68 L 170.53 146.08 C 171.40 145.33 171.50 144.03 170.76 143.16 C 170.01 142.30 168.71 142.20 167.84 142.94 L 167.15 143.54 C 166.28 144.28 166.18 145.59 166.92 146.45 C 167.67 147.32 168.97 147.42 169.84 146.68 Z M 170.53 146.08 L 171.42 145.31 C 172.29 144.57 172.39 143.27 171.64 142.40 C 170.90 141.53 169.59 141.44 168.73 142.18 L 167.84 142.94 C 166.98 143.69 166.88 144.99 167.62 145.86 C 168.36 146.72 169.67 146.82 170.53 146.08 Z M 171.42 145.31 L 172.26 144.59 C 173.13 143.85 173.23 142.55 172.49 141.68 C 171.74 140.82 170.44 140.72 169.58 141.46 L 168.73 142.18 C 167.87 142.92 167.77 144.22 168.51 145.09 C 169.25 145.96 170.55 146.06 171.42 145.31 Z M 172.25 144.60 L 172.95 144.01 C 173.82 143.27 173.93 141.97 173.20 141.10 C 172.46 140.23 171.16 140.12 170.29 140.86 L 169.59 141.45 C 168.72 142.18 168.61 143.48 169.34 144.35 C 170.08 145.23 171.38 145.34 172.25 144.60 Z M 172.92 144.03 L 173.56 143.51 C 174.44 142.79 174.57 141.49 173.85 140.61 C 173.13 139.73 171.84 139.60 170.95 140.32 L 170.32 140.84 C 169.44 141.56 169.31 142.85 170.03 143.74 C 170.75 144.62 172.04 144.75 172.92 144.03 Z M 173.52 143.54 L 174.25 142.97 C 175.14 142.27 175.30 140.98 174.60 140.08 C 173.90 139.18 172.61 139.03 171.71 139.72 L 170.99 140.29 C 170.09 140.99 169.93 142.28 170.63 143.18 C 171.33 144.08 172.63 144.24 173.52 143.54 Z M 174.22 143.00 L 175.02 142.40 C 175.93 141.72 176.11 140.42 175.43 139.51 C 174.75 138.60 173.46 138.42 172.55 139.10 L 171.75 139.70 C 170.84 140.38 170.65 141.67 171.33 142.58 C 172.01 143.49 173.30 143.68 174.22 143.00 Z M 175.00 142.42 L 175.81 141.83 C 176.73 141.16 176.94 139.86 176.27 138.94 C 175.60 138.02 174.31 137.82 173.38 138.49 L 172.57 139.08 C 171.65 139.75 171.44 141.04 172.11 141.96 C 172.78 142.88 174.07 143.09 175.00 142.42 Z M 175.80 141.84 L 176.62 141.25 C 177.55 140.58 177.76 139.29 177.10 138.36 C 176.44 137.44 175.14 137.22 174.22 137.89 L 173.39 138.48 C 172.47 139.14 172.25 140.43 172.92 141.36 C 173.58 142.29 174.87 142.50 175.80 141.84 Z M 176.68 141.21 L 177.48 140.59 C 178.39 139.89 178.55 138.59 177.86 137.69 C 177.16 136.78 175.86 136.62 174.96 137.31 L 174.16 137.93 C 173.25 138.63 173.08 139.92 173.78 140.83 C 174.48 141.73 175.78 141.90 176.68 141.21 Z M 177.70 140.40 L 178.38 139.70 C 179.18 138.89 179.17 137.58 178.35 136.77 C 177.54 135.97 176.23 135.99 175.43 136.80 L 174.74 137.50 C 173.94 138.32 173.95 139.63 174.77 140.43 C 175.59 141.23 176.90 141.22 177.70 140.40 Z M 178.71 139.29 L 179.22 138.40 C 179.79 137.41 179.45 136.13 178.45 135.56 C 177.45 134.99 176.18 135.33 175.60 136.33 L 175.10 137.22 C 174.52 138.21 174.87 139.49 175.87 140.06 C 176.86 140.63 178.14 140.29 178.71 139.29 Z M 179.56 137.88 L 179.86 136.62 C 180.15 135.43 179.42 134.24 178.23 133.96 C 177.05 133.67 175.86 134.40 175.57 135.59 L 175.27 136.85 C 174.98 138.04 175.71 139.23 176.90 139.51 C 178.08 139.80 179.27 139.07 179.56 137.88 Z M 180.13 136.30 L 180.21 135.37 C 180.32 134.04 179.32 132.87 177.99 132.76 C 176.65 132.65 175.48 133.65 175.37 134.98 L 175.30 135.91 C 175.19 137.24 176.19 138.41 177.52 138.52 C 178.86 138.63 180.03 137.63 180.13 136.30 Z M 175.17 135.20 L 175.18 136.04 C 175.20 137.49 176.40 138.65 177.85 138.62 C 179.30 138.60 180.46 137.41 180.43 135.95 L 180.42 135.12 C 180.40 133.66 179.20 132.51 177.75 132.53 C 176.30 132.55 175.14 133.75 175.17 135.20 Z M 175.18 136.08 L 175.22 137.50 C 175.27 138.95 176.49 140.09 177.94 140.04 C 179.39 140.00 180.53 138.78 180.48 137.33 L 180.44 135.91 C 180.39 134.46 179.17 133.32 177.72 133.37 C 176.27 133.41 175.13 134.63 175.18 136.08 Z M 175.23 137.55 L 175.28 138.65 C 175.36 140.10 176.60 141.21 178.05 141.14 C 179.50 141.06 180.61 139.82 180.54 138.37 L 180.48 137.28 C 180.41 135.83 179.17 134.71 177.72 134.79 C 176.27 134.86 175.15 136.10 175.23 137.55 Z M 175.29 138.68 L 175.35 139.68 C 175.44 141.13 176.69 142.23 178.14 142.13 C 179.59 142.04 180.69 140.79 180.60 139.34 L 180.54 138.34 C 180.44 136.89 179.19 135.79 177.74 135.89 C 176.29 135.98 175.19 137.23 175.29 138.68 Z M 175.35 139.70 L 175.43 140.72 C 175.53 142.17 176.79 143.26 178.24 143.15 C 179.69 143.05 180.77 141.79 180.67 140.34 L 180.60 139.32 C 180.49 137.87 179.23 136.78 177.79 136.89 C 176.34 136.99 175.25 138.25 175.35 139.70 Z M 175.43 140.73 L 175.51 141.76 C 175.62 143.20 176.88 144.28 178.33 144.17 C 179.77 144.06 180.86 142.80 180.75 141.35 L 180.67 140.33 C 180.56 138.88 179.29 137.80 177.85 137.91 C 176.40 138.02 175.32 139.29 175.43 140.73 Z M 175.51 141.76 L 175.59 142.76 C 175.70 144.20 176.97 145.28 178.41 145.17 C 179.86 145.05 180.94 143.79 180.82 142.34 L 180.74 141.35 C 180.63 139.90 179.37 138.82 177.92 138.94 C 176.48 139.05 175.40 140.32 175.51 141.76 Z M 175.60 142.75 L 175.68 143.79 C 175.79 145.23 177.05 146.30 178.49 146.19 C 179.93 146.07 181.01 144.81 180.89 143.37 L 180.81 142.34 C 180.70 140.90 179.44 139.83 178.00 139.94 C 176.56 140.06 175.48 141.32 175.60 142.75 Z M 175.70 143.78 L 175.78 144.79 C 175.89 146.22 177.13 147.29 178.56 147.18 C 179.99 147.07 181.06 145.82 180.95 144.39 L 180.88 143.38 C 180.77 141.95 179.52 140.88 178.09 140.99 C 176.66 141.10 175.59 142.35 175.70 143.78 Z M 175.80 144.77 L 175.87 145.75 C 175.97 147.17 177.20 148.23 178.62 148.13 C 180.03 148.03 181.10 146.80 181.00 145.38 L 180.93 144.41 C 180.83 142.99 179.60 141.92 178.18 142.02 C 176.76 142.13 175.70 143.36 175.80 144.77 Z M 175.89 145.73 L 175.95 146.70 C 176.04 148.10 177.25 149.17 178.66 149.08 C 180.06 148.99 181.13 147.78 181.04 146.37 L 180.98 145.40 C 180.89 144.00 179.68 142.93 178.27 143.02 C 176.87 143.11 175.80 144.32 175.89 145.73 Z M 175.97 146.67 L 176.03 147.64 C 176.10 149.04 177.29 150.11 178.69 150.03 C 180.08 149.95 181.15 148.76 181.07 147.37 L 181.02 146.40 C 180.94 145.00 179.75 143.94 178.36 144.01 C 176.97 144.09 175.90 145.28 175.97 146.67 Z M 176.05 147.62 L 176.09 148.57 C 176.16 149.95 177.33 151.02 178.71 150.95 C 180.09 150.89 181.15 149.72 181.09 148.34 L 181.05 147.39 C 180.98 146.01 179.81 144.94 178.43 145.01 C 177.05 145.07 175.99 146.24 176.05 147.62 Z M 176.12 148.56 L 176.16 149.54 C 176.22 150.91 177.37 151.97 178.73 151.91 C 180.10 151.85 181.16 150.70 181.11 149.34 L 181.07 148.35 C 181.01 146.99 179.86 145.93 178.49 145.98 C 177.12 146.04 176.06 147.19 176.12 148.56 Z M 176.19 149.53 L 176.23 150.55 C 176.28 151.90 177.42 152.95 178.77 152.90 C 180.12 152.84 181.17 151.70 181.12 150.35 L 181.08 149.34 C 181.03 147.99 179.89 146.94 178.54 146.99 C 177.18 147.04 176.13 148.18 176.19 149.53 Z M 176.25 150.55 L 176.29 151.59 C 176.35 152.92 177.48 153.96 178.81 153.91 C 180.15 153.85 181.19 152.73 181.13 151.39 L 181.09 150.35 C 181.04 149.01 179.91 147.98 178.57 148.03 C 177.24 148.08 176.20 149.21 176.25 150.55 Z M 176.32 151.59 L 176.37 152.63 C 176.43 153.95 177.55 154.97 178.87 154.92 C 180.19 154.86 181.21 153.74 181.15 152.42 L 181.11 151.38 C 181.05 150.06 179.93 149.04 178.61 149.10 C 177.29 149.15 176.26 150.27 176.32 151.59 Z M 176.40 152.64 L 176.45 153.65 C 176.51 154.96 177.62 155.96 178.93 155.90 C 180.23 155.83 181.23 154.73 181.17 153.42 L 181.12 152.41 C 181.06 151.11 179.95 150.10 178.64 150.17 C 177.34 150.23 176.34 151.34 176.40 152.64 Z M 176.49 153.66 L 176.54 154.68 C 176.61 155.96 177.70 156.95 178.99 156.88 C 180.27 156.81 181.26 155.71 181.19 154.43 L 181.13 153.42 C 181.07 152.13 179.97 151.15 178.69 151.21 C 177.40 151.28 176.42 152.38 176.49 153.66 Z M 176.57 154.68 L 176.63 155.69 C 176.70 156.96 177.79 157.92 179.05 157.85 C 180.32 157.78 181.28 156.70 181.21 155.43 L 181.15 154.42 C 181.08 153.16 180.00 152.19 178.73 152.26 C 177.47 152.34 176.50 153.42 176.57 154.68 Z M 176.67 155.70 L 176.72 156.68 C 176.80 157.93 177.87 158.88 179.12 158.80 C 180.36 158.73 181.31 157.66 181.24 156.41 L 181.18 155.43 C 181.10 154.18 180.03 153.23 178.79 153.31 C 177.54 153.38 176.59 154.45 176.67 155.70 Z M 176.76 156.68 L 176.82 157.67 C 176.90 158.90 177.96 159.83 179.18 159.75 C 180.41 159.67 181.34 158.62 181.26 157.39 L 181.20 156.41 C 181.12 155.18 180.07 154.25 178.84 154.33 C 177.62 154.40 176.68 155.46 176.76 156.68 Z M 176.87 157.68 L 176.94 158.72 C 177.02 159.92 178.06 160.83 179.26 160.75 C 180.46 160.66 181.37 159.62 181.29 158.42 L 181.22 157.38 C 181.14 156.18 180.10 155.27 178.89 155.36 C 177.69 155.44 176.79 156.48 176.87 157.68 Z M 176.99 158.74 L 177.07 159.74 C 177.16 160.91 178.19 161.79 179.36 161.70 C 180.53 161.60 181.41 160.58 181.32 159.40 L 181.24 158.40 C 181.15 157.23 180.12 156.35 178.94 156.44 C 177.77 156.54 176.89 157.56 176.99 158.74 Z M 177.12 159.77 L 177.21 160.75 C 177.32 161.89 178.34 162.73 179.49 162.62 C 180.63 162.51 181.47 161.49 181.36 160.34 L 181.27 159.37 C 181.16 158.22 180.14 157.38 178.99 157.50 C 177.84 157.61 177.01 158.63 177.12 159.77 Z M 177.26 160.79 L 177.38 161.75 C 177.51 162.87 178.53 163.66 179.65 163.53 C 180.76 163.39 181.56 162.38 181.43 161.26 L 181.31 160.30 C 181.17 159.18 180.16 158.39 179.04 158.52 C 177.92 158.66 177.13 159.67 177.26 160.79 Z M 177.43 161.80 L 177.58 162.78 C 177.75 163.86 178.76 164.61 179.85 164.45 C 180.93 164.28 181.68 163.27 181.52 162.18 L 181.37 161.21 C 181.21 160.12 180.19 159.37 179.11 159.54 C 178.02 159.70 177.27 160.71 177.43 161.80 Z M 177.64 162.82 L 177.81 163.80 C 178.00 164.86 179.01 165.56 180.06 165.38 C 181.12 165.19 181.83 164.18 181.64 163.12 L 181.46 162.14 C 181.28 161.08 180.27 160.38 179.21 160.57 C 178.15 160.75 177.45 161.76 177.64 162.82 Z M 177.86 163.83 L 178.06 164.81 C 178.26 165.84 179.26 166.51 180.28 166.31 C 181.31 166.10 181.98 165.11 181.78 164.08 L 181.59 163.10 C 181.38 162.07 180.38 161.40 179.36 161.60 C 178.33 161.80 177.66 162.80 177.86 163.83 Z M 178.11 164.82 L 178.31 165.81 C 178.52 166.81 179.50 167.45 180.50 167.24 C 181.50 167.03 182.14 166.05 181.93 165.05 L 181.73 164.07 C 181.52 163.07 180.54 162.42 179.54 162.63 C 178.54 162.84 177.90 163.82 178.11 164.82 Z M 178.35 165.81 L 178.48 166.42 C 178.69 167.40 179.66 168.03 180.63 167.82 C 181.61 167.61 182.24 166.64 182.03 165.67 L 181.89 165.05 C 181.69 164.07 180.72 163.45 179.74 163.65 C 178.77 163.86 178.14 164.83 178.35 165.81 Z"
      fill="black"
      fill-rule="nonzero" /><path d="M 148.88 114.96 L 148.88 116.01 C 148.88 117.01 149.70 117.83 150.70 117.83 C 151.71 117.82 152.52 117.01 152.52 116.00 L 152.52 114.96 C 152.52 113.96 151.70 113.14 150.70 113.14 C 149.69 113.14 148.88 113.96 148.88 114.96 Z M 148.73 116.02 L 148.74 117.05 C 148.75 118.14 149.63 119.01 150.72 119.00 C 151.81 119.00 152.69 118.11 152.68 117.02 L 152.67 115.99 C 152.66 114.90 151.77 114.03 150.69 114.03 C 149.60 114.04 148.72 114.93 148.73 116.02 Z M 148.59 117.08 L 148.61 118.08 C 148.63 119.25 149.60 120.18 150.77 120.16 C 151.94 120.13 152.87 119.16 152.85 117.99 L 152.83 116.99 C 152.80 115.82 151.84 114.89 150.66 114.91 C 149.49 114.94 148.56 115.91 148.59 117.08 Z M 148.46 118.13 L 148.50 119.10 C 148.55 120.35 149.61 121.32 150.86 121.27 C 152.11 121.22 153.09 120.16 153.04 118.91 L 153.00 117.94 C 152.94 116.69 151.89 115.72 150.63 115.77 C 149.38 115.82 148.41 116.88 148.46 118.13 Z M 148.39 119.18 L 148.46 120.14 C 148.55 121.45 149.70 122.44 151.01 122.35 C 152.33 122.25 153.32 121.11 153.22 119.79 L 153.15 118.83 C 153.06 117.51 151.91 116.52 150.60 116.62 C 149.28 116.71 148.29 117.86 148.39 119.18 Z M 148.41 120.23 L 148.52 121.20 C 148.67 122.54 149.87 123.51 151.21 123.36 C 152.55 123.21 153.52 122.01 153.37 120.67 L 153.26 119.70 C 153.11 118.36 151.91 117.39 150.57 117.54 C 149.23 117.69 148.27 118.89 148.41 120.23 Z M 148.52 121.28 L 148.66 122.24 C 148.84 123.58 150.08 124.51 151.42 124.32 C 152.76 124.13 153.69 122.90 153.50 121.56 L 153.37 120.60 C 153.18 119.26 151.94 118.33 150.61 118.51 C 149.27 118.70 148.34 119.94 148.52 121.28 Z M 148.65 122.28 L 148.81 123.27 C 149.02 124.61 150.28 125.53 151.61 125.32 C 152.95 125.11 153.87 123.85 153.66 122.51 L 153.51 121.52 C 153.30 120.18 152.04 119.26 150.70 119.47 C 149.36 119.68 148.45 120.94 148.65 122.28 Z M 148.80 123.28 L 148.96 124.29 C 149.18 125.63 150.44 126.55 151.78 126.34 C 153.12 126.12 154.04 124.86 153.83 123.52 L 153.67 122.51 C 153.45 121.16 152.19 120.25 150.85 120.46 C 149.51 120.67 148.59 121.93 148.80 123.28 Z M 148.96 124.28 L 149.11 125.27 C 149.32 126.62 150.57 127.54 151.92 127.34 C 153.27 127.13 154.19 125.87 153.99 124.52 L 153.83 123.53 C 153.63 122.18 152.37 121.26 151.02 121.47 C 149.68 121.67 148.75 122.93 148.96 124.28 Z M 149.10 125.26 L 149.25 126.28 C 149.45 127.63 150.71 128.56 152.06 128.36 C 153.41 128.16 154.34 126.91 154.14 125.56 L 153.99 124.54 C 153.79 123.19 152.54 122.25 151.19 122.45 C 149.84 122.65 148.90 123.91 149.10 125.26 Z M 149.25 126.27 L 149.39 127.28 C 149.58 128.63 150.84 129.57 152.19 129.38 C 153.54 129.19 154.48 127.94 154.29 126.58 L 154.15 125.57 C 153.96 124.22 152.70 123.28 151.35 123.47 C 150.00 123.66 149.06 124.91 149.25 126.27 Z M 149.39 127.26 L 149.52 128.23 C 149.70 129.58 150.95 130.54 152.30 130.35 C 153.66 130.17 154.61 128.92 154.43 127.57 L 154.30 126.60 C 154.12 125.24 152.87 124.29 151.51 124.47 C 150.16 124.66 149.20 125.90 149.39 127.26 Z M 149.51 128.20 L 149.64 129.26 C 149.81 130.62 151.05 131.58 152.41 131.42 C 153.77 131.25 154.73 130.01 154.57 128.65 L 154.43 127.59 C 154.27 126.23 153.03 125.27 151.67 125.44 C 150.31 125.61 149.34 126.84 149.51 128.20 Z M 149.64 129.23 L 149.75 130.25 C 149.90 131.61 151.13 132.59 152.49 132.44 C 153.85 132.29 154.84 131.06 154.68 129.70 L 154.57 128.68 C 154.42 127.32 153.19 126.34 151.83 126.49 C 150.47 126.64 149.49 127.87 149.64 129.23 Z M 149.75 130.22 L 149.84 131.17 C 149.98 132.53 151.20 133.53 152.56 133.39 C 153.92 133.25 154.92 132.04 154.78 130.67 L 154.69 129.73 C 154.55 128.36 153.33 127.37 151.97 127.50 C 150.61 127.64 149.61 128.86 149.75 130.22 Z M 149.84 131.15 L 149.93 132.08 C 150.05 133.44 151.26 134.45 152.63 134.32 C 153.99 134.20 155.00 132.99 154.87 131.62 L 154.78 130.69 C 154.66 129.33 153.45 128.32 152.08 128.45 C 150.72 128.58 149.71 129.79 149.84 131.15 Z M 149.92 132.07 L 150.01 133.04 C 150.13 134.40 151.34 135.41 152.70 135.29 C 154.07 135.17 155.08 133.96 154.96 132.60 L 154.87 131.63 C 154.75 130.26 153.54 129.25 152.18 129.38 C 150.81 129.50 149.80 130.70 149.92 132.07 Z M 150.01 133.02 L 150.09 134.01 C 150.21 135.38 151.41 136.40 152.77 136.28 C 154.14 136.17 155.16 134.97 155.04 133.60 L 154.96 132.61 C 154.85 131.24 153.65 130.23 152.28 130.34 C 150.91 130.46 149.90 131.66 150.01 133.02 Z M 150.09 133.99 L 150.16 135.01 C 150.27 136.38 151.46 137.40 152.83 137.30 C 154.19 137.20 155.22 136.01 155.12 134.64 L 155.04 133.63 C 154.94 132.26 153.75 131.23 152.38 131.33 C 151.02 131.43 149.99 132.62 150.09 133.99 Z M 150.16 134.98 L 150.23 135.98 C 150.31 137.35 151.49 138.39 152.86 138.30 C 154.23 138.22 155.27 137.04 155.18 135.67 L 155.12 134.67 C 155.04 133.30 153.86 132.26 152.49 132.35 C 151.12 132.43 150.08 133.61 150.16 134.98 Z M 150.22 135.96 L 150.28 136.94 C 150.35 138.31 151.52 139.36 152.89 139.28 C 154.26 139.21 155.31 138.04 155.24 136.67 L 155.19 135.69 C 155.11 134.32 153.94 133.27 152.57 133.34 C 151.20 133.42 150.15 134.59 150.22 135.96 Z M 150.28 136.93 L 150.33 137.93 C 150.39 139.30 151.56 140.35 152.93 140.28 C 154.30 140.22 155.36 139.05 155.29 137.68 L 155.24 136.68 C 155.17 135.31 154.00 134.25 152.63 134.32 C 151.26 134.39 150.21 135.56 150.28 136.93 Z M 150.33 137.93 L 150.38 138.95 C 150.45 140.32 151.62 141.38 152.99 141.31 C 154.36 141.23 155.41 140.07 155.34 138.69 L 155.29 137.67 C 155.22 136.30 154.05 135.25 152.68 135.32 C 151.31 135.39 150.25 136.56 150.33 137.93 Z M 150.38 138.97 L 150.44 139.96 C 150.52 141.33 151.70 142.37 153.06 142.29 C 154.43 142.21 155.48 141.04 155.40 139.67 L 155.34 138.68 C 155.26 137.31 154.08 136.26 152.71 136.34 C 151.35 136.43 150.30 137.60 150.38 138.97 Z M 150.44 139.97 L 150.50 140.95 C 150.59 142.32 151.77 143.36 153.14 143.27 C 154.51 143.19 155.55 142.01 155.46 140.64 L 155.40 139.66 C 155.31 138.29 154.13 137.25 152.76 137.34 C 151.39 137.42 150.35 138.60 150.44 139.97 Z M 150.51 140.96 L 150.57 141.96 C 150.66 143.32 151.84 144.36 153.21 144.27 C 154.57 144.18 155.61 143.00 155.52 141.64 L 155.46 140.64 C 155.37 139.27 154.19 138.23 152.82 138.32 C 151.45 138.41 150.42 139.59 150.51 140.96 Z M 150.57 141.95 L 150.63 142.96 C 150.72 144.33 151.89 145.37 153.26 145.29 C 154.63 145.20 155.67 144.03 155.58 142.66 L 155.52 141.64 C 155.44 140.28 154.26 139.24 152.90 139.32 C 151.53 139.40 150.49 140.58 150.57 141.95 Z M 150.63 142.95 L 150.69 143.94 C 150.76 145.31 151.93 146.36 153.29 146.28 C 154.66 146.21 155.71 145.04 155.64 143.68 L 155.58 142.68 C 155.51 141.31 154.34 140.27 152.98 140.34 C 151.61 140.41 150.56 141.58 150.63 142.95 Z M 150.69 143.92 L 150.73 144.90 C 150.80 146.26 151.95 147.32 153.32 147.26 C 154.69 147.20 155.74 146.04 155.68 144.67 L 155.64 143.70 C 155.57 142.33 154.41 141.27 153.05 141.34 C 151.68 141.40 150.63 142.56 150.69 143.92 Z M 150.73 144.88 L 150.77 145.88 C 150.83 147.24 151.98 148.31 153.34 148.25 C 154.71 148.20 155.77 147.05 155.72 145.68 L 155.68 144.69 C 155.62 143.32 154.47 142.26 153.11 142.31 C 151.74 142.37 150.68 143.52 150.73 144.88 Z M 150.77 145.87 L 150.81 146.88 C 150.86 148.24 152.01 149.31 153.37 149.26 C 154.74 149.21 155.80 148.07 155.75 146.70 L 155.72 145.69 C 155.67 144.33 154.52 143.26 153.16 143.31 C 151.79 143.36 150.73 144.50 150.77 145.87 Z M 150.81 146.87 L 150.85 147.91 C 150.89 149.27 152.04 150.34 153.40 150.29 C 154.76 150.25 155.83 149.11 155.79 147.74 L 155.75 146.71 C 155.71 145.34 154.56 144.28 153.20 144.32 C 151.84 144.37 150.77 145.51 150.81 146.87 Z M 150.85 147.90 L 150.88 148.89 C 150.93 150.25 152.07 151.32 153.43 151.28 C 154.79 151.24 155.86 150.09 155.82 148.73 L 155.78 147.74 C 155.74 146.38 154.60 145.31 153.24 145.36 C 151.87 145.40 150.80 146.54 150.85 147.90 Z M 150.88 148.89 L 150.92 149.89 C 150.96 151.25 152.10 152.32 153.46 152.28 C 154.82 152.23 155.89 151.09 155.85 149.73 L 155.81 148.73 C 155.77 147.37 154.63 146.30 153.27 146.35 C 151.91 146.39 150.84 147.53 150.88 148.89 Z M 150.92 149.89 L 150.95 150.90 C 150.99 152.26 152.13 153.32 153.49 153.28 C 154.85 153.24 155.92 152.10 155.88 150.74 L 155.84 149.73 C 155.80 148.37 154.66 147.31 153.30 147.35 C 151.94 147.39 150.88 148.53 150.92 149.89 Z M 150.95 150.90 L 150.99 151.90 C 151.03 153.26 152.17 154.33 153.52 154.28 C 154.88 154.24 155.95 153.10 155.90 151.74 L 155.87 150.74 C 155.83 149.38 154.69 148.32 153.33 148.36 C 151.98 148.40 150.91 149.54 150.95 150.90 Z M 150.99 151.90 L 151.02 152.91 C 151.06 154.26 152.20 155.33 153.56 155.28 C 154.91 155.24 155.98 154.10 155.93 152.75 L 155.90 151.74 C 155.86 150.39 154.72 149.32 153.37 149.37 C 152.01 149.41 150.94 150.55 150.99 151.90 Z M 151.02 152.91 L 151.06 153.92 C 151.10 155.27 152.23 156.34 153.59 156.29 C 154.94 156.25 156.01 155.12 155.96 153.76 L 155.93 152.75 C 155.89 151.39 154.75 150.33 153.40 150.37 C 152.04 150.42 150.98 151.55 151.02 152.91 Z M 151.06 153.91 L 151.09 154.92 C 151.13 156.27 152.26 157.33 153.62 157.29 C 154.97 157.25 156.03 156.12 155.99 154.77 L 155.96 153.76 C 155.92 152.41 154.79 151.35 153.43 151.39 C 152.08 151.43 151.02 152.56 151.06 153.91 Z M 151.09 154.91 L 151.12 155.90 C 151.16 157.25 152.28 158.32 153.64 158.28 C 154.99 158.25 156.05 157.12 156.02 155.77 L 155.99 154.77 C 155.95 153.42 154.82 152.36 153.47 152.39 C 152.12 152.43 151.06 153.56 151.09 154.91 Z M 151.12 155.89 L 151.15 156.88 C 151.18 158.23 152.30 159.30 153.65 159.27 C 155.00 159.24 156.07 158.12 156.03 156.77 L 156.01 155.78 C 155.98 154.43 154.86 153.36 153.51 153.39 C 152.16 153.42 151.09 154.54 151.12 155.89 Z M 151.15 156.87 L 151.17 157.86 C 151.19 159.21 152.30 160.28 153.65 160.26 C 154.99 160.24 156.07 159.13 156.05 157.78 L 156.03 156.79 C 156.01 155.44 154.90 154.36 153.55 154.38 C 152.20 154.41 151.13 155.52 151.15 156.87 Z M 151.17 157.84 L 151.18 158.84 C 151.19 160.19 152.30 161.27 153.64 161.26 C 154.99 161.24 156.07 160.14 156.05 158.80 L 156.04 157.80 C 156.03 156.45 154.93 155.37 153.58 155.38 C 152.24 155.40 151.16 156.50 151.17 157.84 Z M 151.18 158.83 L 151.19 159.83 C 151.20 161.18 152.29 162.26 153.63 162.25 C 154.98 162.25 156.06 161.15 156.05 159.81 L 156.05 158.81 C 156.04 157.46 154.95 156.38 153.60 156.39 C 152.26 156.40 151.18 157.49 151.18 158.83 Z M 151.19 159.83 L 151.20 160.83 C 151.20 162.17 152.29 163.25 153.63 163.25 C 154.97 163.25 156.05 162.16 156.05 160.82 L 156.05 159.82 C 156.05 158.47 154.96 157.39 153.62 157.39 C 152.28 157.40 151.19 158.48 151.19 159.83 Z M 151.20 160.82 L 151.20 161.82 C 151.20 163.16 152.29 164.24 153.63 164.24 C 154.96 164.24 156.05 163.16 156.05 161.82 L 156.05 160.82 C 156.05 159.48 154.96 158.40 153.62 158.40 C 152.29 158.40 151.20 159.48 151.20 160.82 Z M 151.21 161.82 L 151.21 162.82 C 151.21 164.16 152.29 165.24 153.62 165.24 C 154.96 165.24 156.04 164.16 156.04 162.82 L 156.04 161.82 C 156.04 160.49 154.96 159.40 153.62 159.40 C 152.29 159.40 151.21 160.49 151.21 161.82 Z M 151.21 162.82 L 151.21 163.82 C 151.21 165.15 152.29 166.23 153.62 166.23 C 154.96 166.23 156.04 165.15 156.04 163.82 L 156.04 162.82 C 156.04 161.49 154.96 160.41 153.62 160.41 C 152.29 160.41 151.21 161.49 151.21 162.82 Z M 151.22 163.82 L 151.22 164.82 C 151.22 166.15 152.30 167.23 153.62 167.23 C 154.95 167.23 156.03 166.15 156.03 164.82 L 156.03 163.82 C 156.03 162.49 154.95 161.41 153.62 161.41 C 152.30 161.41 151.22 162.49 151.22 163.82 Z M 151.22 164.82 L 151.22 165.82 C 151.22 167.15 152.30 168.22 153.62 168.22 C 154.95 168.22 156.03 167.15 156.03 165.82 L 156.03 164.82 C 156.03 163.49 154.95 162.42 153.62 162.42 C 152.30 162.42 151.22 163.49 151.22 164.82 Z M 151.23 165.82 L 151.23 166.82 C 151.23 168.14 152.30 169.21 153.62 169.21 C 154.95 169.21 156.02 168.14 156.02 166.82 L 156.02 165.82 C 156.02 164.50 154.95 163.42 153.62 163.42 C 152.30 163.42 151.23 164.50 151.23 165.82 Z M 151.24 166.82 L 151.24 167.81 C 151.24 169.13 152.31 170.20 153.62 170.20 C 154.94 170.20 156.01 169.13 156.01 167.81 L 156.01 166.82 C 156.01 165.50 154.94 164.43 153.62 164.43 C 152.31 164.43 151.24 165.50 151.24 166.82 Z M 151.24 167.81 L 151.24 168.81 C 151.24 170.13 152.31 171.19 153.62 171.19 C 154.94 171.19 156.00 170.13 156.00 168.81 L 156.00 167.81 C 156.00 166.50 154.94 165.43 153.62 165.43 C 152.31 165.43 151.24 166.50 151.24 167.81 Z M 151.25 168.81 L 151.25 169.81 C 151.25 171.12 152.31 172.18 153.62 172.18 C 154.93 172.18 156.00 171.12 156.00 169.81 L 156.00 168.81 C 156.00 167.50 154.93 166.44 153.62 166.44 C 152.31 166.44 151.25 167.50 151.25 168.81 Z M 151.26 169.81 L 151.26 170.82 C 151.26 172.12 152.32 173.18 153.62 173.18 C 154.93 173.18 155.99 172.12 155.99 170.82 L 155.99 169.81 C 155.99 168.51 154.93 167.45 153.62 167.45 C 152.32 167.45 151.26 168.51 151.26 169.81 Z M 151.27 170.82 L 151.27 171.80 C 151.27 173.11 152.32 174.16 153.62 174.16 C 154.93 174.16 155.98 173.11 155.98 171.80 L 155.98 170.82 C 155.98 169.52 154.93 168.46 153.62 168.46 C 152.32 168.46 151.27 169.52 151.27 170.82 Z M 151.28 171.80 L 151.28 172.79 C 151.28 174.08 152.33 175.13 153.62 175.13 C 154.92 175.13 155.97 174.08 155.97 172.79 L 155.97 171.80 C 155.97 170.51 154.92 169.46 153.62 169.46 C 152.33 169.46 151.28 170.51 151.28 171.80 Z M 151.29 172.79 L 151.29 173.78 C 151.29 175.07 152.33 176.12 153.62 176.12 C 154.92 176.12 155.96 175.07 155.96 173.78 L 155.96 172.79 C 155.96 171.50 154.92 170.45 153.62 170.45 C 152.33 170.45 151.29 171.50 151.29 172.79 Z M 151.29 173.78 L 151.29 174.79 C 151.29 176.08 152.34 177.12 153.62 177.12 C 154.91 177.12 155.96 176.08 155.96 174.79 L 155.96 173.78 C 155.96 172.49 154.91 171.45 153.62 171.45 C 152.34 171.45 151.29 172.49 151.29 173.78 Z M 151.30 174.79 L 151.30 175.81 C 151.30 177.10 152.34 178.14 153.62 178.14 C 154.91 178.14 155.95 177.10 155.95 175.81 L 155.95 174.79 C 155.95 173.51 154.91 172.47 153.62 172.47 C 152.34 172.47 151.30 173.51 151.30 174.79 Z M 151.31 175.81 L 151.31 176.83 C 151.31 178.11 152.35 179.15 153.62 179.15 C 154.90 179.15 155.94 178.11 155.94 176.83 L 155.94 175.81 C 155.94 174.54 154.90 173.50 153.62 173.50 C 152.35 173.50 151.31 174.54 151.31 175.81 Z M 151.32 176.83 L 151.32 177.86 C 151.32 179.13 152.35 180.16 153.62 180.16 C 154.90 180.16 155.93 179.13 155.93 177.86 L 155.93 176.83 C 155.93 175.56 154.90 174.53 153.62 174.53 C 152.35 174.53 151.32 175.56 151.32 176.83 Z M 151.33 177.86 L 151.33 178.87 C 151.33 180.14 152.36 181.17 153.62 181.17 C 154.89 181.17 155.92 180.14 155.92 178.87 L 155.92 177.86 C 155.92 176.59 154.89 175.56 153.62 175.56 C 152.36 175.56 151.33 176.59 151.33 177.86 Z M 151.33 178.87 L 151.33 179.87 C 151.33 181.13 152.36 182.16 153.62 182.16 C 154.89 182.16 155.91 181.13 155.91 179.87 L 155.91 178.87 C 155.91 177.61 154.89 176.58 153.62 176.58 C 152.36 176.58 151.33 177.61 151.33 178.87 Z M 151.34 179.87 L 151.34 180.83 C 151.34 182.09 152.36 183.11 153.62 183.11 C 154.88 183.11 155.91 182.09 155.91 180.83 L 155.91 179.87 C 155.91 178.61 154.88 177.59 153.62 177.59 C 152.36 177.59 151.34 178.61 151.34 179.87 Z M 151.35 180.83 L 151.35 181.89 C 151.35 183.14 152.37 184.16 153.62 184.16 C 154.88 184.16 155.90 183.14 155.90 181.89 L 155.90 180.83 C 155.90 179.57 154.88 178.55 153.62 178.55 C 152.37 178.55 151.35 179.57 151.35 180.83 Z M 151.36 181.89 L 151.36 182.91 C 151.36 184.16 152.37 185.17 153.62 185.17 C 154.87 185.17 155.89 184.16 155.89 182.91 L 155.89 181.89 C 155.89 180.64 154.87 179.63 153.62 179.63 C 152.37 179.63 151.36 180.64 151.36 181.89 Z M 151.37 182.91 L 151.37 183.89 C 151.37 185.13 152.38 186.14 153.62 186.14 C 154.87 186.14 155.88 185.13 155.88 183.89 L 155.88 182.91 C 155.88 181.66 154.87 180.66 153.62 180.66 C 152.38 180.66 151.37 181.66 151.37 182.91 Z M 151.38 183.89 L 151.38 184.84 C 151.38 186.08 152.39 187.08 153.62 187.08 C 154.86 187.08 155.87 186.08 155.87 184.84 L 155.87 183.89 C 155.87 182.65 154.86 181.64 153.62 181.64 C 152.39 181.64 151.38 182.65 151.38 183.89 Z M 151.39 184.84 L 151.39 185.84 C 151.39 187.07 152.39 188.07 153.62 188.07 C 154.86 188.07 155.85 187.07 155.85 185.84 L 155.85 184.84 C 155.85 183.61 154.86 182.61 153.62 182.61 C 152.39 182.61 151.39 183.61 151.39 184.84 Z M 151.41 185.84 L 151.41 186.86 C 151.41 188.08 152.40 189.08 153.62 189.08 C 154.85 189.08 155.84 188.08 155.84 186.86 L 155.84 185.84 C 155.84 184.62 154.85 183.62 153.62 183.62 C 152.40 183.62 151.41 184.62 151.41 185.84 Z M 151.42 186.86 L 151.42 187.85 C 151.42 189.07 152.41 190.06 153.62 190.06 C 154.84 190.06 155.83 189.07 155.83 187.85 L 155.83 186.86 C 155.83 185.64 154.84 184.65 153.62 184.65 C 152.41 184.65 151.42 185.64 151.42 186.86 Z M 151.43 187.85 L 151.43 188.82 C 151.43 190.03 152.41 191.01 153.62 191.01 C 154.83 191.01 155.81 190.03 155.81 188.82 L 155.81 187.85 C 155.81 186.64 154.83 185.66 153.62 185.66 C 152.41 185.66 151.43 186.64 151.43 187.85 Z M 151.45 188.82 L 151.45 189.77 C 151.45 190.98 152.42 191.95 153.62 191.95 C 154.83 191.95 155.80 190.98 155.80 189.78 L 155.80 188.82 C 155.80 187.62 154.83 186.65 153.63 186.65 C 152.42 186.65 151.45 187.62 151.45 188.82 Z M 151.46 189.77 L 151.46 190.73 C 151.45 191.92 152.42 192.89 153.61 192.90 C 154.81 192.90 155.78 191.93 155.78 190.74 L 155.79 189.78 C 155.79 188.59 154.83 187.62 153.63 187.61 C 152.44 187.61 151.47 188.57 151.46 189.77 Z M 151.47 190.71 L 151.46 191.72 C 151.45 192.91 152.41 193.88 153.59 193.89 C 154.78 193.90 155.75 192.95 155.76 191.76 L 155.77 190.75 C 155.78 189.56 154.83 188.59 153.64 188.58 C 152.45 188.57 151.48 189.53 151.47 190.71 Z M 151.48 191.71 L 151.46 192.77 C 151.44 193.95 152.38 194.92 153.56 194.94 C 154.74 194.96 155.71 194.01 155.73 192.84 L 155.75 191.77 C 155.76 190.60 154.82 189.63 153.64 189.61 C 152.47 189.59 151.50 190.53 151.48 191.71 Z M 151.48 192.76 L 151.46 193.69 C 151.43 194.87 152.36 195.84 153.53 195.86 C 154.70 195.88 155.67 194.95 155.70 193.78 L 155.72 192.85 C 155.74 191.68 154.81 190.71 153.64 190.68 C 152.47 190.66 151.50 191.59 151.48 192.76 Z M 151.47 193.69 L 151.45 194.68 C 151.42 195.84 152.34 196.81 153.50 196.84 C 154.67 196.86 155.64 195.94 155.66 194.78 L 155.69 193.79 C 155.71 192.62 154.79 191.66 153.63 191.63 C 152.46 191.60 151.49 192.53 151.47 193.69 Z M 151.46 194.68 L 151.43 195.71 C 151.41 196.86 152.32 197.82 153.48 197.85 C 154.64 197.88 155.60 196.96 155.63 195.80 L 155.65 194.78 C 155.68 193.62 154.76 192.66 153.60 192.63 C 152.44 192.61 151.48 193.52 151.46 194.68 Z M 151.45 195.71 L 151.42 196.75 C 151.40 197.90 152.31 198.85 153.46 198.88 C 154.62 198.90 155.57 197.99 155.59 196.84 L 155.61 195.80 C 155.64 194.65 154.72 193.69 153.57 193.67 C 152.42 193.65 151.47 194.56 151.45 195.71 Z M 151.44 196.76 L 151.42 197.95 C 151.40 199.09 152.31 200.03 153.46 200.05 C 154.60 200.07 155.54 199.16 155.56 198.01 L 155.58 196.83 C 155.60 195.68 154.68 194.74 153.54 194.73 C 152.40 194.71 151.46 195.62 151.44 196.76 Z M 151.45 197.96 L 151.43 199.34 C 151.42 200.47 152.32 201.39 153.45 201.41 C 154.57 201.42 155.50 200.52 155.51 199.39 L 155.53 198.00 C 155.54 196.88 154.64 195.95 153.51 195.94 C 152.39 195.93 151.46 196.83 151.45 197.96 Z M 151.47 199.33 L 151.45 200.27 C 151.43 201.38 152.30 202.30 153.41 202.32 C 154.52 202.34 155.43 201.46 155.46 200.36 L 155.48 199.41 C 155.50 198.30 154.62 197.39 153.51 197.36 C 152.41 197.34 151.49 198.22 151.47 199.33 Z M 151.51 199.99 L 151.48 200.20 C 151.30 201.27 152.02 202.29 153.09 202.47 C 154.16 202.65 155.18 201.92 155.36 200.85 L 155.39 200.64 C 155.57 199.57 154.85 198.56 153.78 198.38 C 152.71 198.20 151.69 198.92 151.51 199.99 Z M 155.32 200.34 L 155.28 199.89 C 155.18 198.84 154.24 198.07 153.19 198.17 C 152.14 198.27 151.37 199.21 151.47 200.26 L 151.51 200.71 C 151.61 201.77 152.55 202.54 153.60 202.43 C 154.65 202.33 155.42 201.40 155.32 200.34 Z M 155.22 199.96 L 155.16 199.07 C 155.10 198.05 154.22 197.28 153.20 197.34 C 152.18 197.41 151.41 198.28 151.47 199.30 L 151.53 200.19 C 151.59 201.21 152.47 201.99 153.49 201.92 C 154.51 201.86 155.28 200.98 155.22 199.96 Z M 155.10 199.09 L 155.03 197.89 C 154.98 196.91 154.14 196.16 153.16 196.21 C 152.17 196.26 151.42 197.10 151.47 198.09 L 151.54 199.28 C 151.59 200.27 152.43 201.02 153.41 200.97 C 154.40 200.91 155.15 200.07 155.10 199.09 Z M 154.97 197.90 L 154.90 196.53 C 154.85 195.59 154.04 194.86 153.10 194.91 C 152.15 194.95 151.42 195.76 151.47 196.71 L 151.54 198.08 C 151.59 199.02 152.39 199.75 153.34 199.70 C 154.29 199.66 155.01 198.85 154.97 197.90 Z M 154.85 196.54 L 154.83 196.12 C 154.79 195.20 154.00 194.49 153.08 194.53 C 152.16 194.58 151.45 195.36 151.49 196.29 L 151.51 196.70 C 151.56 197.63 152.34 198.34 153.27 198.29 C 154.19 198.24 154.90 197.46 154.85 196.54 Z"
      fill="black"
      fill-rule="nonzero" /></svg>