<svg xmlns="http://www.w3.org/2000/svg" version="1.0" width="937.000000pt" height="937.000000pt" viewBox="0 0 937.000000 937.000000" preserveAspectRatio="xMidYMid meet">
  <defs/>
  <path fill="#000000" d="M477.3,345.5 C473.6,347.1 473,348.5 473,356.4 C473,359.9 472.6,365.2 472,368.1 C469.8,380.1 452.4,409.5 437.9,425.5 C434,429.9 424.3,440.1 416.4,448.1 L402.2,462.7 L400.8,461.5 C398,458.8 374.1,442.1 367.4,438.2 C363.6,435.9 359.4,434 358.2,434 C355.1,434 352,437.5 352,440.9 C352,444.4 355.4,447.5 375.2,461.7 C393.5,474.9 428.4,501.8 435.6,508.4 L441.5,513.8 L439.9,515.6 C418.8,541.1 391.8,568.7 378.3,578.7 C371.3,583.9 362.5,588.6 356.3,590.5 L354.1,591.1 L353.6,588.8 C353.3,587.5 352.8,576.6 352.5,564.5 C352.1,551.4 351.5,542.1 350.8,541.3 C349.4,539.5 345.5,539.7 343.6,541.6 L342,543.1 L342,569.1 L342,595.1 L343.5,598 C352.1,614.7 389.5,594.9 427.1,553.9 C433.9,546.5 452.6,525.5 453.5,524.2 C453.6,524.1 462.4,531.5 473,540.6 C526.1,586.3 558.6,603.7 601,608.9 C609.3,610 642.8,613 646.2,613 C648.6,613 651.3,608.6 650.5,606.1 C649.6,603.3 646.2,602.5 622.5,599.5 C611,598 597.3,595.9 592.1,594.8 C572.5,590.6 555.1,583 535.1,570 C515.5,557.2 508,551.3 479,526.1 C470.5,518.6 463.4,512.5 463.2,512.4 C463,512.3 466.8,505.8 471.6,497.9 C480.6,482.9 515,414.4 516.8,407.6 C519,399.6 515.3,393.7 508,393.7 C503.1,393.7 495.1,398.7 481,410.7 C459.8,428.5 450.4,436.2 448.7,437.1 C447.7,437.7 449.8,434.6 453.5,430.3 C467.9,413.3 484.9,383.6 487,372.1 C488.3,365.1 488.3,350.4 487,348 C485.5,345.2 480.9,344 477.3,345.5 Z M480.1,447.2 C472.4,462.8 462.6,481.3 458.4,488.3 L450.8,501.1 L448,498.8 C437,489.8 419.4,475.7 417.7,474.5 C416.6,473.7 415.8,472.9 416.1,472.7 C416.3,472.5 420.6,470.2 425.5,467.5 C442.7,458.4 460,446.2 481.9,427.7 C488.2,422.4 493.5,418.2 493.8,418.4 C494,418.7 487.9,431.6 480.1,447.2 Z"/>
</svg>

