<svg xmlns="http://www.w3.org/2000/svg" version="1.0" width="937.000000pt" height="937.000000pt" viewBox="0 0 937.000000 937.000000" preserveAspectRatio="xMidYMid meet">
  <defs/>
  <path fill="#000000" d="M526.5,343.5 C523.6,346.4 523.5,347 525.6,354.1 C528.2,362.8 533.4,369.4 548.9,383.6 C564.7,398.1 567.4,399.4 570.5,394.6 L572.1,392.1 L570.9,389.8 C570.3,388.5 564.5,381.9 558,375 C543.8,359.8 539.4,354.1 537.8,348.9 C536.6,344.9 533,341 530.3,341 C529.5,341 527.8,342.1 526.5,343.5 Z"/>
  <path fill="#000000" d="M496.6,363.1 C490.9,367.6 495,376.5 508.3,388.2 C521.8,400.1 528.6,403.2 537.5,401.6 C541.9,400.7 544,398.6 544,395 C544,391.4 540.8,389 536,389 C534.1,389 531.1,388.2 529.5,387.1 C524.2,383.9 512.9,373.4 509.4,368.3 C503.8,360.4 501.3,359.4 496.6,363.1 Z"/>
  <path fill="#000000" d="M453.5,383.5 C452.1,384.8 451,387.1 451,388.5 C451,391.7 454.5,402.3 456.7,405.9 C458.7,408.9 489.1,450.7 509.3,477.8 C516.8,488 522.7,496.7 522.3,497.1 C521.8,497.5 518.1,499.2 514,501 C505.7,504.5 491.6,513.5 478.9,523.5 C472.7,528.4 470.1,529.9 468.6,529.4 C465.7,528.5 465.7,528.5 463.5,529.3 C461.1,530.1 454,542.2 453.3,546.7 C452.9,549.2 453.3,550.4 455.4,552.5 L458.1,555.2 L461.2,554.6 C462.9,554.3 470.4,549.4 477.9,543.8 C498.5,528.3 513.5,518.7 524.2,514 C538.3,507.9 542.4,502.4 539.1,493.8 C538.6,492.4 531.3,482.1 522.8,470.9 C514.4,459.6 499,438.6 488.5,424.3 L469.5,398.2 L467,391 C463.5,380.9 458.7,378.2 453.5,383.5 Z"/>
</svg>

