<svg xmlns="http://www.w3.org/2000/svg" width="300" height="300" viewBox="0 0 300 300">
<path d="M 110.44 136.14 L 111.29 136.17 C 112.62 136.21 113.73 135.18 113.78 133.85 C 113.83 132.52 112.79 131.41 111.46 131.36 L 110.61 131.33 C 109.28 131.28 108.16 132.32 108.12 133.65 C 108.07 134.98 109.11 136.09 110.44 136.14 Z M 111.38 136.17 L 112.28 136.17 C 113.61 136.17 114.69 135.09 114.68 133.76 C 114.68 132.43 113.60 131.35 112.27 131.36 L 111.37 131.36 C 110.04 131.36 108.97 132.44 108.97 133.77 C 108.97 135.10 110.05 136.17 111.38 136.17 Z M 112.43 136.16 L 113.43 136.10 C 114.75 136.01 115.76 134.87 115.67 133.54 C 115.59 132.22 114.44 131.21 113.12 131.30 L 112.12 131.36 C 110.80 131.45 109.79 132.59 109.88 133.92 C 109.96 135.24 111.11 136.25 112.43 136.16 Z M 113.61 136.08 L 114.74 135.92 C 116.06 135.74 116.97 134.52 116.79 133.20 C 116.60 131.89 115.39 130.97 114.07 131.16 L 112.94 131.32 C 111.62 131.50 110.70 132.72 110.89 134.03 C 111.07 135.35 112.29 136.27 113.61 136.08 Z M 114.89 135.89 L 115.92 135.68 C 117.23 135.41 118.06 134.14 117.79 132.83 C 117.52 131.53 116.25 130.70 114.95 130.97 L 113.91 131.18 C 112.61 131.45 111.78 132.73 112.05 134.03 C 112.32 135.33 113.59 136.16 114.89 135.89 Z M 116.02 135.66 L 116.98 135.42 C 118.27 135.09 119.05 133.79 118.73 132.50 C 118.41 131.21 117.10 130.43 115.81 130.75 L 114.85 130.99 C 113.56 131.31 112.78 132.62 113.10 133.91 C 113.43 135.20 114.73 135.98 116.02 135.66 Z M 117.04 135.40 L 118.04 135.12 C 119.33 134.76 120.07 133.44 119.72 132.16 C 119.36 130.88 118.03 130.13 116.75 130.49 L 115.75 130.76 C 114.47 131.12 113.72 132.45 114.08 133.73 C 114.43 135.01 115.76 135.76 117.04 135.40 Z M 118.09 135.11 L 119.10 134.81 C 120.37 134.43 121.10 133.09 120.72 131.82 C 120.34 130.54 119.00 129.82 117.73 130.20 L 116.71 130.50 C 115.44 130.88 114.71 132.22 115.09 133.49 C 115.47 134.76 116.81 135.49 118.09 135.11 Z M 119.13 134.80 L 120.12 134.49 C 121.39 134.10 122.10 132.75 121.70 131.48 C 121.31 130.21 119.96 129.50 118.69 129.90 L 117.70 130.20 C 116.43 130.60 115.72 131.95 116.11 133.21 C 116.51 134.48 117.86 135.19 119.13 134.80 Z M 120.13 134.49 L 121.07 134.19 C 122.34 133.79 123.04 132.43 122.64 131.17 C 122.24 129.90 120.88 129.20 119.62 129.60 L 118.68 129.90 C 117.41 130.30 116.71 131.66 117.11 132.92 C 117.51 134.19 118.87 134.89 120.13 134.49 Z M 121.08 134.19 L 122.01 133.89 C 123.27 133.49 123.97 132.13 123.57 130.87 C 123.17 129.60 121.81 128.90 120.55 129.31 L 119.61 129.60 C 118.35 130.01 117.65 131.36 118.05 132.63 C 118.46 133.89 119.81 134.59 121.08 134.19 Z M 122.00 133.89 L 123.04 133.57 C 124.31 133.17 125.01 131.82 124.61 130.55 C 124.21 129.28 122.86 128.58 121.59 128.98 L 120.55 129.30 C 119.29 129.70 118.58 131.05 118.98 132.32 C 119.38 133.59 120.73 134.29 122.00 133.89 Z M 123.02 133.57 L 123.94 133.29 C 125.21 132.90 125.93 131.56 125.54 130.29 C 125.15 129.01 123.80 128.30 122.53 128.69 L 121.61 128.97 C 120.34 129.36 119.63 130.71 120.01 131.98 C 120.40 133.25 121.75 133.96 123.02 133.57 Z M 123.92 133.30 L 124.81 133.03 C 126.08 132.66 126.81 131.32 126.43 130.04 C 126.05 128.77 124.71 128.04 123.44 128.42 L 122.55 128.68 C 121.28 129.06 120.55 130.40 120.93 131.68 C 121.31 132.95 122.65 133.68 123.92 133.30 Z M 124.79 133.04 L 125.72 132.77 C 126.99 132.40 127.73 131.07 127.36 129.79 C 126.99 128.52 125.66 127.78 124.38 128.15 L 123.45 128.42 C 122.18 128.78 121.44 130.12 121.81 131.39 C 122.18 132.67 123.51 133.41 124.79 133.04 Z M 125.70 132.78 L 126.59 132.53 C 127.87 132.17 128.61 130.84 128.25 129.56 C 127.89 128.28 126.56 127.53 125.28 127.89 L 124.40 128.14 C 123.12 128.51 122.37 129.84 122.73 131.11 C 123.10 132.39 124.43 133.14 125.70 132.78 Z M 126.58 132.53 L 127.48 132.28 C 128.76 131.92 129.51 130.60 129.15 129.32 C 128.79 128.04 127.47 127.29 126.19 127.64 L 125.29 127.89 C 124.01 128.25 123.26 129.57 123.61 130.86 C 123.97 132.14 125.30 132.89 126.58 132.53 Z M 127.46 132.28 L 128.42 132.02 C 129.71 131.67 130.46 130.35 130.11 129.06 C 129.76 127.78 128.44 127.03 127.16 127.38 L 126.20 127.64 C 124.91 127.99 124.16 129.31 124.51 130.59 C 124.86 131.88 126.18 132.63 127.46 132.28 Z M 128.41 132.02 L 129.41 131.76 C 130.70 131.41 131.46 130.09 131.12 128.81 C 130.77 127.53 129.46 126.76 128.17 127.11 L 127.17 127.37 C 125.88 127.72 125.12 129.04 125.47 130.32 C 125.81 131.60 127.13 132.37 128.41 132.02 Z M 129.40 131.76 L 130.43 131.49 C 131.71 131.16 132.48 129.84 132.15 128.56 C 131.81 127.27 130.50 126.50 129.21 126.83 L 128.19 127.10 C 126.90 127.44 126.13 128.75 126.46 130.04 C 126.80 131.32 128.11 132.09 129.40 131.76 Z M 130.41 131.50 L 131.44 131.24 C 132.73 130.91 133.51 129.60 133.19 128.32 C 132.86 127.03 131.55 126.24 130.26 126.57 L 129.23 126.83 C 127.94 127.15 127.16 128.46 127.49 129.75 C 127.81 131.04 129.12 131.82 130.41 131.50 Z M 131.42 131.24 L 132.48 130.99 C 133.77 130.67 134.56 129.37 134.25 128.08 C 133.94 126.79 132.64 126.00 131.34 126.31 L 130.29 126.56 C 128.99 126.88 128.20 128.18 128.51 129.47 C 128.83 130.76 130.13 131.56 131.42 131.24 Z M 132.45 130.99 L 133.49 130.75 C 134.79 130.45 135.59 129.16 135.29 127.86 C 134.99 126.57 133.70 125.76 132.41 126.06 L 131.37 126.30 C 130.07 126.60 129.27 127.90 129.57 129.19 C 129.87 130.49 131.16 131.29 132.45 130.99 Z M 133.47 130.76 L 134.47 130.54 C 135.77 130.25 136.59 128.96 136.30 127.67 C 136.01 126.37 134.73 125.55 133.43 125.83 L 132.43 126.06 C 131.13 126.34 130.31 127.63 130.60 128.93 C 130.89 130.22 132.17 131.04 133.47 130.76 Z M 134.45 130.54 L 135.40 130.34 C 136.71 130.07 137.54 128.79 137.27 127.49 C 136.99 126.19 135.72 125.35 134.42 125.63 L 133.46 125.83 C 132.16 126.10 131.32 127.38 131.60 128.68 C 131.87 129.98 133.15 130.81 134.45 130.54 Z M 135.38 130.35 L 136.28 130.17 C 137.59 129.91 138.43 128.64 138.18 127.34 C 137.92 126.03 136.65 125.18 135.35 125.44 L 134.44 125.62 C 133.14 125.88 132.29 127.15 132.55 128.45 C 132.81 129.76 134.07 130.60 135.38 130.35 Z M 136.25 130.17 L 137.23 129.99 C 138.53 129.75 139.40 128.50 139.16 127.19 C 138.92 125.88 137.66 125.02 136.36 125.26 L 135.38 125.44 C 134.07 125.68 133.21 126.93 133.45 128.24 C 133.69 129.55 134.94 130.41 136.25 130.17 Z M 137.19 130.00 L 138.26 129.82 C 139.58 129.60 140.46 128.36 140.24 127.05 C 140.02 125.74 138.78 124.85 137.47 125.07 L 136.39 125.25 C 135.08 125.47 134.20 126.71 134.42 128.02 C 134.63 129.33 135.88 130.22 137.19 130.00 Z M 138.24 129.83 L 139.21 129.68 C 140.52 129.47 141.43 128.24 141.22 126.93 C 141.02 125.61 139.79 124.71 138.47 124.91 L 137.50 125.06 C 136.19 125.27 135.28 126.50 135.49 127.81 C 135.69 129.13 136.92 130.03 138.24 129.83 Z M 139.21 129.68 L 140.11 129.54 C 141.42 129.34 142.32 128.11 142.12 126.79 C 141.92 125.48 140.69 124.57 139.38 124.78 L 138.48 124.91 C 137.16 125.11 136.26 126.34 136.46 127.66 C 136.66 128.97 137.89 129.88 139.21 129.68 Z M 140.13 129.54 L 141.08 129.38 C 142.39 129.17 143.28 127.93 143.07 126.61 C 142.85 125.30 141.61 124.41 140.30 124.62 L 139.35 124.78 C 138.04 124.99 137.15 126.23 137.36 127.55 C 137.58 128.86 138.82 129.75 140.13 129.54 Z M 141.10 129.38 L 142.10 129.20 C 143.41 128.98 144.29 127.73 144.06 126.42 C 143.83 125.10 142.58 124.23 141.27 124.45 L 140.28 124.63 C 138.96 124.86 138.09 126.10 138.31 127.42 C 138.54 128.73 139.79 129.61 141.10 129.38 Z M 142.08 129.21 L 143.05 129.05 C 144.36 128.83 145.25 127.59 145.04 126.28 C 144.82 124.97 143.58 124.07 142.27 124.29 L 141.30 124.45 C 139.98 124.67 139.09 125.91 139.31 127.22 C 139.52 128.53 140.76 129.42 142.08 129.21 Z M 142.97 129.06 L 143.95 128.93 C 145.27 128.76 146.20 127.55 146.02 126.23 C 145.85 124.91 144.64 123.98 143.32 124.15 L 142.34 124.28 C 141.02 124.45 140.09 125.66 140.27 126.99 C 140.44 128.31 141.65 129.24 142.97 129.06 Z M 143.85 128.94 L 144.84 128.85 C 146.17 128.73 147.14 127.56 147.02 126.23 C 146.90 124.91 145.73 123.93 144.40 124.05 L 143.41 124.14 C 142.09 124.26 141.11 125.43 141.23 126.76 C 141.35 128.09 142.52 129.06 143.85 128.94 Z M 144.77 128.86 L 145.77 128.80 C 147.10 128.71 148.11 127.57 148.03 126.24 C 147.94 124.91 146.80 123.90 145.47 123.98 L 144.47 124.04 C 143.14 124.13 142.13 125.27 142.21 126.60 C 142.30 127.93 143.44 128.94 144.77 128.86 Z M 145.74 128.80 L 146.72 128.75 C 148.05 128.68 149.08 127.55 149.01 126.22 C 148.94 124.89 147.81 123.86 146.48 123.93 L 145.50 123.98 C 144.17 124.05 143.14 125.18 143.21 126.51 C 143.28 127.84 144.41 128.86 145.74 128.80 Z M 146.71 128.75 L 147.61 128.71 C 148.94 128.64 149.97 127.52 149.91 126.19 C 149.85 124.86 148.72 123.83 147.39 123.89 L 146.49 123.93 C 145.16 123.99 144.13 125.12 144.19 126.45 C 144.25 127.78 145.38 128.81 146.71 128.75 Z M 147.59 128.70 L 148.56 128.67 C 149.89 128.61 150.93 127.49 150.87 126.17 C 150.82 124.84 149.70 123.80 148.37 123.85 L 147.41 123.89 C 146.08 123.94 145.04 125.06 145.09 126.39 C 145.15 127.72 146.26 128.76 147.59 128.70 Z M 148.54 128.66 L 149.62 128.63 C 150.95 128.60 151.99 127.49 151.95 126.16 C 151.92 124.83 150.81 123.79 149.48 123.82 L 148.40 123.86 C 147.07 123.89 146.03 125.00 146.06 126.33 C 146.10 127.66 147.21 128.70 148.54 128.66 Z M 149.59 128.63 L 150.68 128.62 C 152.01 128.60 153.07 127.50 153.05 126.18 C 153.03 124.85 151.94 123.79 150.61 123.81 L 149.51 123.82 C 148.18 123.84 147.12 124.94 147.15 126.27 C 147.17 127.59 148.26 128.65 149.59 128.63 Z M 150.61 128.62 L 151.70 128.64 C 153.03 128.66 154.12 127.59 154.14 126.26 C 154.16 124.93 153.10 123.84 151.77 123.82 L 150.68 123.80 C 149.35 123.78 148.26 124.85 148.24 126.18 C 148.22 127.51 149.28 128.60 150.61 128.62 Z M 151.54 128.63 L 152.59 128.72 C 153.92 128.83 155.08 127.84 155.19 126.51 C 155.30 125.18 154.31 124.02 152.98 123.91 L 151.93 123.82 C 150.60 123.72 149.43 124.71 149.33 126.03 C 149.22 127.36 150.21 128.53 151.54 128.63 Z M 152.30 128.68 L 153.23 128.87 C 154.54 129.14 155.82 128.30 156.08 126.99 C 156.35 125.68 155.51 124.41 154.20 124.14 L 153.27 123.95 C 151.96 123.68 150.69 124.52 150.42 125.83 C 150.15 127.13 150.99 128.41 152.30 128.68 Z M 152.67 128.68 L 153.42 129.05 C 154.62 129.63 156.07 129.12 156.65 127.92 C 157.23 126.71 156.73 125.27 155.52 124.69 L 154.77 124.32 C 153.56 123.74 152.12 124.25 151.54 125.45 C 150.96 126.66 151.46 128.10 152.67 128.68 Z M 152.56 128.36 L 153.08 129.02 C 153.90 130.07 155.42 130.26 156.48 129.44 C 157.53 128.62 157.72 127.10 156.90 126.04 L 156.38 125.38 C 155.56 124.32 154.04 124.14 152.98 124.96 C 151.93 125.78 151.74 127.30 152.56 128.36 Z M 152.64 128.13 L 152.87 129.04 C 153.20 130.33 154.52 131.11 155.81 130.79 C 157.11 130.46 157.89 129.14 157.56 127.85 L 157.33 126.94 C 157.00 125.64 155.69 124.86 154.39 125.19 C 153.10 125.51 152.31 126.83 152.64 128.13 Z M 152.80 128.58 L 152.87 129.73 C 152.95 131.06 154.10 132.08 155.43 132.00 C 156.76 131.92 157.78 130.77 157.70 129.44 L 157.63 128.30 C 157.55 126.96 156.41 125.95 155.07 126.03 C 153.74 126.11 152.73 127.25 152.80 128.58 Z M 152.87 129.62 L 152.89 130.62 C 152.91 131.95 154.01 133.02 155.34 133.00 C 156.67 132.98 157.74 131.88 157.72 130.54 L 157.70 129.55 C 157.68 128.21 156.58 127.15 155.25 127.17 C 153.92 127.19 152.85 128.29 152.87 129.62 Z M 152.89 130.60 L 152.90 131.59 C 152.91 132.92 154.00 133.99 155.33 133.98 C 156.66 133.97 157.73 132.88 157.72 131.55 L 157.71 130.56 C 157.70 129.23 156.61 128.16 155.28 128.17 C 153.95 128.18 152.88 129.27 152.89 130.60 Z M 152.90 131.58 L 152.91 132.61 C 152.92 133.93 154.00 135.01 155.33 135.00 C 156.65 134.99 157.73 133.91 157.72 132.58 L 157.72 131.56 C 157.71 130.23 156.63 129.15 155.30 129.16 C 153.97 129.17 152.90 130.25 152.90 131.58 Z M 152.91 132.60 L 152.92 133.64 C 152.92 134.96 154.00 136.04 155.32 136.03 C 156.65 136.03 157.72 134.95 157.72 133.63 L 157.72 132.59 C 157.71 131.26 156.64 130.19 155.31 130.19 C 153.98 130.20 152.91 131.27 152.91 132.60 Z M 152.92 133.63 L 152.92 134.65 C 152.92 135.97 154.00 137.05 155.32 137.04 C 156.64 137.04 157.71 135.97 157.71 134.65 L 157.71 133.63 C 157.71 132.31 156.64 131.24 155.32 131.24 C 153.99 131.24 152.92 132.31 152.92 133.63 Z M 152.93 134.65 L 152.93 135.74 C 152.93 137.06 154.00 138.13 155.32 138.13 C 156.64 138.13 157.71 137.06 157.71 135.74 L 157.71 134.65 C 157.71 133.33 156.64 132.26 155.32 132.26 C 154.00 132.26 152.93 133.33 152.93 134.65 Z M 152.93 135.74 L 152.93 136.81 C 152.93 138.13 154.00 139.20 155.32 139.20 C 156.64 139.20 157.71 138.13 157.71 136.81 L 157.71 135.74 C 157.71 134.42 156.64 133.35 155.32 133.35 C 154.00 133.35 152.93 134.42 152.93 135.74 Z M 152.93 136.81 L 152.93 137.80 C 152.93 139.12 154.00 140.19 155.32 140.19 C 156.64 140.19 157.71 139.12 157.71 137.80 L 157.71 136.81 C 157.71 135.49 156.64 134.42 155.32 134.42 C 154.00 134.42 152.93 135.49 152.93 136.81 Z M 152.93 137.80 L 152.93 138.72 C 152.93 140.04 154.00 141.11 155.32 141.11 C 156.64 141.11 157.70 140.04 157.70 138.72 L 157.70 137.80 C 157.70 136.48 156.64 135.42 155.32 135.42 C 154.00 135.42 152.93 136.48 152.93 137.80 Z M 152.93 138.72 L 152.93 139.67 C 152.93 140.99 154.00 142.06 155.32 142.06 C 156.64 142.06 157.70 140.99 157.70 139.67 L 157.70 138.72 C 157.70 137.41 156.64 136.34 155.32 136.34 C 154.00 136.34 152.93 137.41 152.93 138.72 Z M 152.93 139.67 L 152.93 140.70 C 152.93 142.01 154.00 143.08 155.32 143.08 C 156.63 143.08 157.70 142.01 157.70 140.70 L 157.70 139.67 C 157.70 138.36 156.63 137.29 155.32 137.29 C 154.00 137.29 152.93 138.36 152.93 139.67 Z M 152.93 140.70 L 152.93 141.67 C 152.93 142.99 154.00 144.06 155.32 144.06 C 156.63 144.06 157.70 142.99 157.70 141.67 L 157.70 140.70 C 157.70 139.38 156.63 138.31 155.32 138.31 C 154.00 138.31 152.93 139.38 152.93 140.70 Z M 152.93 141.67 L 152.93 142.64 C 152.93 143.96 154.00 145.02 155.32 145.02 C 156.63 145.02 157.70 143.96 157.70 142.64 L 157.70 141.67 C 157.70 140.35 156.63 139.29 155.32 139.29 C 154.00 139.29 152.93 140.35 152.93 141.67 Z M 152.93 142.64 L 152.93 143.60 C 152.93 144.92 154.00 145.99 155.32 145.99 C 156.63 145.99 157.70 144.92 157.70 143.60 L 157.70 142.64 C 157.70 141.32 156.63 140.26 155.32 140.26 C 154.00 140.26 152.93 141.32 152.93 142.64 Z M 152.93 143.60 L 152.93 144.60 C 152.93 145.91 154.00 146.98 155.32 146.98 C 156.63 146.98 157.70 145.91 157.70 144.60 L 157.70 143.60 C 157.70 142.29 156.63 141.22 155.32 141.22 C 154.00 141.22 152.93 142.29 152.93 143.60 Z M 152.93 144.60 L 152.93 145.63 C 152.93 146.94 154.00 148.01 155.32 148.01 C 156.63 148.01 157.70 146.94 157.70 145.63 L 157.70 144.60 C 157.70 143.28 156.63 142.21 155.32 142.21 C 154.00 142.21 152.93 143.28 152.93 144.60 Z M 152.94 145.63 L 152.94 146.62 C 152.94 147.94 154.00 149.01 155.32 149.01 C 156.63 149.01 157.70 147.94 157.70 146.62 L 157.70 145.63 C 157.70 144.31 156.63 143.24 155.32 143.24 C 154.00 143.24 152.94 144.31 152.94 145.63 Z M 152.94 146.62 L 152.94 147.61 C 152.94 148.93 154.00 149.99 155.32 149.99 C 156.63 149.99 157.70 148.93 157.70 147.61 L 157.70 146.62 C 157.70 145.31 156.63 144.24 155.32 144.24 C 154.00 144.24 152.94 145.31 152.94 146.62 Z M 152.94 147.61 L 152.94 148.62 C 152.94 149.94 154.00 151.00 155.32 151.00 C 156.63 151.00 157.70 149.94 157.70 148.62 L 157.70 147.61 C 157.70 146.30 156.63 145.24 155.32 145.24 C 154.00 145.24 152.94 146.30 152.94 147.61 Z M 152.94 148.62 L 152.94 149.64 C 152.94 150.95 154.00 152.02 155.32 152.02 C 156.63 152.02 157.69 150.95 157.69 149.64 L 157.69 148.62 C 157.69 147.31 156.63 146.25 155.32 146.25 C 154.00 146.25 152.94 147.31 152.94 148.62 Z M 152.94 149.64 L 152.94 150.63 C 152.94 151.94 154.00 153.01 155.32 153.01 C 156.63 153.01 157.69 151.95 157.69 150.63 L 157.69 149.64 C 157.69 148.33 156.63 147.27 155.32 147.27 C 154.01 147.27 152.94 148.33 152.94 149.64 Z M 152.94 150.62 L 152.94 151.61 C 152.93 152.92 153.99 153.99 155.30 154.00 C 156.61 154.00 157.68 152.95 157.68 151.64 L 157.69 150.65 C 157.70 149.33 156.64 148.27 155.33 148.26 C 154.02 148.25 152.95 149.31 152.94 150.62 Z M 152.94 151.59 L 152.93 152.59 C 152.91 153.90 153.95 154.98 155.26 155.00 C 156.57 155.02 157.65 153.97 157.67 152.66 L 157.68 151.66 C 157.70 150.35 156.66 149.27 155.35 149.25 C 154.04 149.23 152.96 150.28 152.94 151.59 Z M 152.93 152.56 L 152.90 153.57 C 152.86 154.88 153.89 155.97 155.20 156.01 C 156.50 156.05 157.59 155.02 157.63 153.71 L 157.66 152.70 C 157.70 151.39 156.67 150.30 155.37 150.26 C 154.06 150.22 152.97 151.25 152.93 152.56 Z M 152.90 153.53 L 152.86 154.50 C 152.80 155.81 153.81 156.92 155.11 156.98 C 156.42 157.04 157.52 156.03 157.58 154.72 L 157.63 153.75 C 157.69 152.45 156.68 151.34 155.38 151.28 C 154.07 151.22 152.96 152.23 152.90 153.53 Z M 152.86 154.48 L 152.80 155.47 C 152.73 156.77 153.73 157.89 155.03 157.96 C 156.33 158.04 157.45 157.04 157.53 155.74 L 157.58 154.75 C 157.66 153.44 156.66 152.33 155.36 152.25 C 154.05 152.18 152.93 153.18 152.86 154.48 Z M 152.81 155.46 L 152.75 156.46 C 152.67 157.77 153.66 158.89 154.96 158.97 C 156.26 159.05 157.38 158.05 157.46 156.75 L 157.52 155.74 C 157.60 154.44 156.61 153.32 155.31 153.24 C 154.01 153.16 152.89 154.16 152.81 155.46 Z M 152.75 156.47 L 152.69 157.49 C 152.61 158.80 153.60 159.91 154.91 159.99 C 156.21 160.06 157.33 159.07 157.40 157.77 L 157.46 156.74 C 157.54 155.44 156.54 154.33 155.24 154.25 C 153.94 154.17 152.82 155.17 152.75 156.47 Z M 152.69 157.51 L 152.64 158.52 C 152.57 159.82 153.57 160.93 154.87 161.00 C 156.17 161.06 157.28 160.06 157.35 158.76 L 157.40 157.75 C 157.47 156.45 156.47 155.34 155.16 155.27 C 153.86 155.21 152.75 156.21 152.69 157.51 Z M 152.64 158.53 L 152.59 159.54 C 152.53 160.85 153.54 161.95 154.84 162.01 C 156.14 162.07 157.24 161.06 157.30 159.76 L 157.35 158.75 C 157.41 157.45 156.40 156.34 155.10 156.28 C 153.80 156.22 152.69 157.23 152.64 158.53 Z M 152.59 159.55 L 152.54 160.55 C 152.49 161.85 153.49 162.95 154.80 163.01 C 156.10 163.07 157.20 162.06 157.26 160.76 L 157.30 159.76 C 157.36 158.45 156.35 157.35 155.05 157.29 C 153.75 157.24 152.65 158.24 152.59 159.55 Z M 152.55 160.54 L 152.50 161.53 C 152.44 162.83 153.44 163.94 154.74 164.00 C 156.04 164.06 157.15 163.06 157.21 161.76 L 157.26 160.77 C 157.32 159.47 156.32 158.36 155.01 158.30 C 153.71 158.24 152.61 159.24 152.55 160.54 Z M 152.50 161.51 L 152.45 162.48 C 152.37 163.78 153.37 164.89 154.67 164.96 C 155.97 165.04 157.08 164.04 157.15 162.74 L 157.21 161.78 C 157.28 160.48 156.29 159.36 154.99 159.29 C 153.69 159.22 152.57 160.21 152.50 161.51 Z M 152.45 162.46 L 152.38 163.41 C 152.30 164.71 153.28 165.83 154.58 165.92 C 155.88 166.00 157.01 165.02 157.09 163.72 L 157.15 162.76 C 157.24 161.46 156.25 160.34 154.95 160.26 C 153.65 160.17 152.53 161.16 152.45 162.46 Z M 152.39 163.39 L 152.32 164.36 C 152.22 165.66 153.20 166.79 154.50 166.88 C 155.79 166.98 156.92 166.00 157.02 164.70 L 157.09 163.73 C 157.18 162.44 156.21 161.31 154.91 161.21 C 153.61 161.12 152.48 162.09 152.39 163.39 Z M 152.32 164.35 L 152.24 165.37 C 152.14 166.67 153.11 167.80 154.41 167.90 C 155.70 168.00 156.84 167.03 156.94 165.73 L 157.02 164.71 C 157.12 163.42 156.15 162.28 154.85 162.18 C 153.55 162.08 152.42 163.05 152.32 164.35 Z M 152.24 165.37 L 152.15 166.43 C 152.05 167.72 153.02 168.86 154.32 168.96 C 155.62 169.07 156.75 168.10 156.85 166.80 L 156.94 165.74 C 157.04 164.44 156.07 163.30 154.77 163.20 C 153.48 163.10 152.34 164.07 152.24 165.37 Z M 152.15 166.43 L 152.07 167.43 C 151.97 168.73 152.94 169.86 154.24 169.96 C 155.54 170.07 156.67 169.10 156.77 167.80 L 156.85 166.80 C 156.96 165.50 155.99 164.37 154.69 164.26 C 153.39 164.16 152.26 165.13 152.15 166.43 Z M 152.07 167.43 L 151.99 168.46 C 151.89 169.76 152.86 170.89 154.15 171.00 C 155.45 171.10 156.59 170.13 156.69 168.84 L 156.77 167.80 C 156.88 166.50 155.91 165.37 154.61 165.27 C 153.31 165.16 152.18 166.13 152.07 167.43 Z M 151.99 168.46 L 151.91 169.49 C 151.80 170.79 152.77 171.92 154.07 172.03 C 155.36 172.13 156.50 171.17 156.61 169.87 L 156.69 168.84 C 156.79 167.54 155.83 166.41 154.53 166.30 C 153.23 166.20 152.10 167.16 151.99 168.46 Z M 151.91 169.49 L 151.83 170.48 C 151.72 171.77 152.69 172.91 153.98 173.02 C 155.28 173.12 156.42 172.16 156.52 170.86 L 156.61 169.87 C 156.71 168.58 155.75 167.44 154.45 167.33 C 153.16 167.23 152.02 168.19 151.91 169.49 Z M 151.83 170.47 L 151.75 171.44 C 151.64 172.73 152.60 173.87 153.89 173.98 C 155.19 174.09 156.33 173.13 156.44 171.84 L 156.52 170.87 C 156.63 169.57 155.67 168.43 154.38 168.32 C 153.08 168.21 151.94 169.17 151.83 170.47 Z M 151.75 171.42 L 151.65 172.51 C 151.53 173.80 152.49 174.95 153.78 175.07 C 155.08 175.18 156.22 174.23 156.34 172.93 L 156.44 171.85 C 156.56 170.55 155.60 169.41 154.31 169.29 C 153.01 169.17 151.87 170.13 151.75 171.42 Z M 151.65 172.48 L 151.55 173.45 C 151.42 174.75 152.37 175.90 153.66 176.03 C 154.95 176.17 156.11 175.22 156.24 173.93 L 156.34 172.96 C 156.47 171.66 155.53 170.51 154.23 170.38 C 152.94 170.25 151.78 171.19 151.65 172.48 Z M 151.56 173.42 L 151.45 174.35 C 151.30 175.64 152.23 176.81 153.52 176.96 C 154.81 177.11 155.98 176.18 156.13 174.89 L 156.24 173.96 C 156.39 172.67 155.46 171.50 154.17 171.35 C 152.87 171.20 151.71 172.13 151.56 173.42 Z M 151.45 174.31 L 151.33 175.26 C 151.16 176.55 152.07 177.73 153.36 177.90 C 154.65 178.07 155.84 177.16 156.00 175.87 L 156.13 174.92 C 156.30 173.63 155.39 172.45 154.09 172.28 C 152.80 172.11 151.62 173.02 151.45 174.31 Z M 151.33 175.22 L 151.19 176.21 C 151.00 177.50 151.89 178.70 153.18 178.89 C 154.47 179.08 155.67 178.19 155.86 176.90 L 156.00 175.90 C 156.19 174.62 155.30 173.42 154.01 173.23 C 152.72 173.04 151.52 173.93 151.33 175.22 Z M 151.19 176.17 L 151.02 177.17 C 150.81 178.46 151.68 179.68 152.97 179.89 C 154.26 180.11 155.48 179.23 155.69 177.95 L 155.86 176.94 C 156.07 175.65 155.20 174.44 153.91 174.22 C 152.62 174.01 151.40 174.88 151.19 176.17 Z M 151.03 177.12 L 150.84 178.10 C 150.60 179.38 151.44 180.63 152.72 180.87 C 154.01 181.12 155.25 180.27 155.50 178.99 L 155.68 178.00 C 155.93 176.72 155.09 175.48 153.80 175.23 C 152.52 174.99 151.28 175.83 151.03 177.12 Z M 150.86 178.02 L 150.62 179.03 C 150.33 180.31 151.13 181.58 152.41 181.87 C 153.69 182.16 154.96 181.36 155.25 180.09 L 155.48 179.07 C 155.77 177.79 154.97 176.52 153.70 176.23 C 152.42 175.94 151.15 176.74 150.86 178.02 Z M 150.64 178.94 L 150.38 179.91 C 150.03 181.18 150.78 182.49 152.05 182.83 C 153.31 183.18 154.62 182.43 154.96 181.16 L 155.23 180.18 C 155.58 178.92 154.83 177.61 153.56 177.27 C 152.30 176.92 150.99 177.67 150.64 178.94 Z M 150.40 179.82 L 150.11 180.74 C 149.71 181.99 150.40 183.33 151.65 183.73 C 152.91 184.13 154.25 183.44 154.65 182.18 L 154.94 181.26 C 155.34 180.01 154.65 178.67 153.39 178.27 C 152.14 177.87 150.80 178.56 150.40 179.82 Z M 150.14 180.65 L 149.81 181.55 C 149.36 182.79 149.99 184.16 151.23 184.61 C 152.47 185.06 153.84 184.42 154.29 183.18 L 154.62 182.28 C 155.07 181.04 154.43 179.67 153.19 179.22 C 151.96 178.77 150.59 179.41 150.14 180.65 Z M 149.84 181.45 L 149.46 182.36 C 148.96 183.58 149.53 184.98 150.75 185.48 C 151.97 185.99 153.37 185.41 153.87 184.20 L 154.25 183.28 C 154.76 182.07 154.18 180.67 152.96 180.16 C 151.75 179.65 150.35 180.23 149.84 181.45 Z M 149.51 182.24 L 149.08 183.15 C 148.51 184.34 149.01 185.77 150.20 186.34 C 151.40 186.91 152.83 186.40 153.40 185.21 L 153.83 184.31 C 154.40 183.12 153.89 181.69 152.70 181.12 C 151.51 180.55 150.08 181.05 149.51 182.24 Z M 149.14 183.02 L 148.66 183.90 C 148.02 185.06 148.44 186.52 149.60 187.15 C 150.77 187.79 152.22 187.37 152.86 186.20 L 153.34 185.33 C 153.98 184.17 153.55 182.71 152.39 182.08 C 151.23 181.44 149.77 181.86 149.14 183.02 Z M 148.72 183.77 L 148.23 184.56 C 147.52 185.69 147.86 187.17 148.98 187.88 C 150.11 188.58 151.59 188.24 152.30 187.12 L 152.79 186.33 C 153.50 185.20 153.16 183.72 152.04 183.01 C 150.91 182.31 149.43 182.65 148.72 183.77 Z M 148.32 184.42 L 147.74 185.22 C 146.95 186.29 147.19 187.80 148.26 188.58 C 149.33 189.37 150.84 189.13 151.63 188.06 L 152.21 187.26 C 152.99 186.19 152.76 184.68 151.68 183.90 C 150.61 183.11 149.10 183.35 148.32 184.42 Z M 147.85 185.06 L 147.16 185.86 C 146.29 186.87 146.40 188.40 147.41 189.27 C 148.42 190.14 149.95 190.02 150.82 189.02 L 151.51 188.21 C 152.38 187.20 152.27 185.68 151.26 184.81 C 150.25 183.94 148.72 184.05 147.85 185.06 Z M 147.29 185.72 L 146.55 186.45 C 145.60 187.39 145.59 188.92 146.53 189.87 C 147.46 190.82 148.99 190.83 149.94 189.89 L 150.69 189.16 C 151.64 188.22 151.65 186.69 150.71 185.74 C 149.77 184.79 148.24 184.78 147.29 185.72 Z M 146.68 186.33 L 145.90 186.99 C 144.88 187.86 144.76 189.39 145.62 190.40 C 146.49 191.42 148.02 191.54 149.03 190.68 L 149.82 190.01 C 150.83 189.15 150.96 187.62 150.09 186.60 C 149.22 185.58 147.70 185.46 146.68 186.33 Z M 146.03 186.89 L 145.20 187.50 C 144.13 188.29 143.90 189.81 144.69 190.88 C 145.48 191.96 147.00 192.19 148.07 191.40 L 148.90 190.79 C 149.98 189.99 150.21 188.48 149.42 187.40 C 148.62 186.32 147.11 186.09 146.03 186.89 Z M 145.36 187.39 L 144.52 187.91 C 143.38 188.61 143.03 190.10 143.74 191.24 C 144.44 192.38 145.93 192.73 147.07 192.03 L 147.91 191.51 C 149.05 190.80 149.40 189.31 148.70 188.17 C 147.99 187.03 146.50 186.68 145.36 187.39 Z M 144.76 187.78 L 143.84 188.21 C 142.63 188.78 142.12 190.23 142.69 191.44 C 143.27 192.65 144.71 193.16 145.92 192.59 L 146.84 192.16 C 148.05 191.58 148.56 190.14 147.99 188.93 C 147.41 187.72 145.97 187.20 144.76 187.78 Z M 144.22 188.07 L 143.22 188.35 C 141.93 188.71 141.18 190.05 141.54 191.34 C 141.90 192.63 143.24 193.38 144.53 193.02 L 145.54 192.73 C 146.83 192.37 147.58 191.03 147.22 189.74 C 146.85 188.45 145.51 187.70 144.22 188.07 Z M 143.74 188.26 L 142.78 188.32 C 141.44 188.39 140.42 189.54 140.50 190.88 C 140.58 192.22 141.72 193.24 143.06 193.16 L 144.01 193.11 C 145.35 193.03 146.37 191.88 146.30 190.55 C 146.22 189.21 145.07 188.19 143.74 188.26 Z M 143.34 188.35 L 142.43 188.19 C 141.11 187.96 139.86 188.84 139.63 190.16 C 139.39 191.48 140.27 192.73 141.59 192.97 L 142.50 193.13 C 143.82 193.36 145.07 192.48 145.31 191.16 C 145.54 189.84 144.66 188.58 143.34 188.35 Z M 142.89 188.35 L 142.04 188.01 C 140.80 187.52 139.41 188.13 138.92 189.36 C 138.44 190.60 139.04 191.99 140.28 192.48 L 141.13 192.81 C 142.37 193.30 143.76 192.69 144.25 191.46 C 144.73 190.23 144.12 188.83 142.89 188.35 Z M 142.29 188.17 L 141.43 187.70 C 140.29 187.07 138.85 187.49 138.22 188.63 C 137.60 189.77 138.01 191.21 139.15 191.84 L 140.02 192.31 C 141.16 192.94 142.60 192.52 143.22 191.38 C 143.85 190.24 143.44 188.80 142.29 188.17 Z M 141.53 187.80 L 140.62 187.23 C 139.54 186.55 138.10 186.88 137.42 187.96 C 136.74 189.05 137.06 190.48 138.15 191.16 L 139.06 191.73 C 140.14 192.41 141.57 192.09 142.25 191.00 C 142.94 189.92 142.61 188.49 141.53 187.80 Z M 140.61 187.28 L 139.82 186.77 C 138.76 186.10 137.35 186.40 136.68 187.46 C 136.00 188.52 136.31 189.92 137.36 190.60 L 138.16 191.11 C 139.22 191.79 140.62 191.48 141.30 190.42 C 141.98 189.37 141.67 187.96 140.61 187.28 Z M 139.78 186.82 L 138.99 186.32 C 137.95 185.66 136.59 185.96 135.93 187.00 C 135.27 188.03 135.58 189.40 136.61 190.06 L 137.40 190.56 C 138.43 191.21 139.80 190.91 140.46 189.88 C 141.12 188.84 140.81 187.47 139.78 186.82 Z M 138.95 186.36 L 138.11 185.83 C 137.11 185.19 135.77 185.49 135.14 186.50 C 134.50 187.50 134.80 188.84 135.80 189.47 L 136.65 190.01 C 137.65 190.65 138.98 190.35 139.62 189.34 C 140.26 188.33 139.96 187.00 138.95 186.36 Z M 138.08 185.88 L 137.18 185.31 C 136.21 184.69 134.91 184.98 134.29 185.95 C 133.67 186.93 133.95 188.23 134.93 188.85 L 135.83 189.42 C 136.81 190.04 138.11 189.76 138.73 188.78 C 139.35 187.80 139.06 186.50 138.08 185.88 Z M 137.16 185.36 L 136.25 184.78 C 135.31 184.17 134.04 184.45 133.44 185.40 C 132.83 186.35 133.10 187.61 134.05 188.22 L 134.96 188.80 C 135.91 189.41 137.17 189.13 137.78 188.18 C 138.38 187.23 138.11 185.97 137.16 185.36 Z M 136.24 184.83 L 135.41 184.29 C 134.48 183.69 133.25 183.96 132.65 184.88 C 132.06 185.80 132.32 187.03 133.24 187.63 L 134.07 188.17 C 134.99 188.77 136.23 188.50 136.82 187.58 C 137.42 186.66 137.16 185.43 136.24 184.83 Z M 135.39 184.34 L 134.54 183.78 C 133.65 183.19 132.44 183.44 131.85 184.34 C 131.26 185.23 131.51 186.44 132.41 187.03 L 133.26 187.58 C 134.15 188.17 135.36 187.93 135.95 187.03 C 136.54 186.13 136.29 184.93 135.39 184.34 Z M 134.53 183.83 L 133.68 183.26 C 132.81 182.68 131.63 182.91 131.05 183.78 C 130.47 184.65 130.70 185.83 131.57 186.41 L 132.42 186.98 C 133.29 187.56 134.47 187.33 135.05 186.46 C 135.63 185.59 135.40 184.41 134.53 183.83 Z M 133.67 183.31 L 132.84 182.74 C 132.00 182.16 130.85 182.38 130.27 183.22 C 129.69 184.06 129.91 185.21 130.75 185.79 L 131.58 186.36 C 132.42 186.94 133.57 186.72 134.15 185.88 C 134.73 185.04 134.51 183.89 133.67 183.31 Z M 132.83 182.79 L 132.03 182.23 C 131.22 181.65 130.10 181.85 129.52 182.66 C 128.95 183.47 129.14 184.59 129.95 185.17 L 130.75 185.73 C 131.56 186.31 132.69 186.12 133.26 185.30 C 133.84 184.49 133.64 183.37 132.83 182.79 Z M 132.04 182.28 L 131.17 181.64 C 130.39 181.06 129.28 181.23 128.71 182.01 C 128.13 182.80 128.30 183.90 129.08 184.48 L 129.95 185.12 C 130.73 185.69 131.83 185.53 132.41 184.74 C 132.99 183.96 132.82 182.86 132.04 182.28 Z M 131.19 181.69 L 130.37 181.06 C 129.62 180.47 128.53 180.61 127.94 181.37 C 127.36 182.12 127.49 183.21 128.25 183.80 L 129.06 184.43 C 129.82 185.01 130.91 184.88 131.49 184.12 C 132.08 183.36 131.94 182.27 131.19 181.69 Z M 130.39 181.11 L 129.62 180.49 C 128.89 179.89 127.82 180.00 127.23 180.73 C 126.63 181.46 126.74 182.53 127.47 183.13 L 128.24 183.75 C 128.97 184.34 130.04 184.23 130.63 183.50 C 131.23 182.77 131.12 181.70 130.39 181.11 Z M 129.64 180.54 L 128.92 179.92 C 128.21 179.32 127.16 179.40 126.56 180.10 C 125.95 180.81 126.04 181.86 126.74 182.46 L 127.46 183.08 C 128.16 183.68 129.22 183.60 129.82 182.90 C 130.42 182.19 130.34 181.14 129.64 180.54 Z M 128.93 179.96 L 128.21 179.32 C 127.53 178.71 126.49 178.77 125.88 179.45 C 125.27 180.13 125.33 181.17 126.01 181.78 L 126.73 182.42 C 127.40 183.03 128.45 182.97 129.06 182.29 C 129.66 181.61 129.61 180.57 128.93 179.96 Z M 128.23 179.35 L 127.50 178.66 C 126.83 178.04 125.80 178.08 125.18 178.74 C 124.56 179.40 124.59 180.44 125.25 181.06 L 125.99 181.75 C 126.65 182.36 127.69 182.33 128.31 181.67 C 128.93 181.01 128.89 179.97 128.23 179.35 Z M 127.51 178.68 L 126.80 177.99 C 126.15 177.36 125.11 177.37 124.48 178.03 C 123.85 178.68 123.87 179.71 124.52 180.34 L 125.24 181.04 C 125.89 181.67 126.92 181.65 127.55 181.00 C 128.18 180.35 128.16 179.31 127.51 178.68 Z M 126.81 178.00 L 126.10 177.30 C 125.46 176.67 124.42 176.67 123.79 177.31 C 123.15 177.96 123.16 178.99 123.80 179.63 L 124.50 180.33 C 125.15 180.97 126.19 180.96 126.82 180.32 C 127.46 179.67 127.45 178.64 126.81 178.00 Z M 126.11 177.31 L 125.53 176.73 C 124.89 176.10 123.86 176.10 123.22 176.74 C 122.58 177.38 122.58 178.41 123.22 179.05 L 123.79 179.62 C 124.43 180.26 125.47 180.26 126.11 179.62 C 126.75 178.98 126.75 177.95 126.11 177.31 Z"
      fill="black"
      fill-rule="nonzero" /><path d="M 132.65 98.50 L 132.65 99.52 C 132.65 100.73 133.63 101.72 134.84 101.72 C 136.05 101.72 137.04 100.73 137.04 99.52 L 137.04 98.50 C 137.04 97.29 136.05 96.31 134.84 96.31 C 133.63 96.31 132.65 97.29 132.65 98.50 Z M 132.62 99.52 L 132.62 100.54 C 132.62 101.76 133.62 102.76 134.84 102.76 C 136.07 102.76 137.06 101.76 137.06 100.54 L 137.06 99.52 C 137.06 98.30 136.07 97.30 134.84 97.30 C 133.62 97.30 132.62 98.30 132.62 99.52 Z M 132.60 100.54 L 132.60 101.53 C 132.60 102.77 133.60 103.78 134.84 103.78 C 136.08 103.78 137.09 102.77 137.09 101.53 L 137.09 100.54 C 137.09 99.30 136.08 98.29 134.84 98.29 C 133.60 98.29 132.60 99.30 132.60 100.54 Z M 132.57 101.53 L 132.57 102.50 C 132.57 103.76 133.59 104.78 134.84 104.78 C 136.10 104.78 137.12 103.76 137.12 102.50 L 137.12 101.53 C 137.12 100.28 136.10 99.26 134.84 99.26 C 133.59 99.26 132.57 100.28 132.57 101.53 Z M 132.55 102.50 L 132.55 103.54 C 132.55 104.80 133.58 105.83 134.84 105.83 C 136.11 105.83 137.13 104.80 137.13 103.54 L 137.13 102.50 C 137.13 101.24 136.11 100.21 134.84 100.21 C 133.58 100.21 132.55 101.24 132.55 102.50 Z M 132.54 103.54 L 132.54 104.53 C 132.54 105.80 133.57 106.83 134.84 106.83 C 136.11 106.83 137.15 105.80 137.15 104.53 L 137.15 103.54 C 137.15 102.27 136.11 101.23 134.84 101.23 C 133.57 101.23 132.54 102.27 132.54 103.54 Z M 132.53 104.53 L 132.53 105.51 C 132.53 106.79 133.57 107.82 134.84 107.82 C 136.12 107.82 137.16 106.79 137.16 105.51 L 137.16 104.53 C 137.16 103.26 136.12 102.22 134.84 102.22 C 133.57 102.22 132.53 103.26 132.53 104.53 Z M 132.52 105.51 L 132.52 106.47 C 132.52 107.75 133.56 108.79 134.84 108.79 C 136.12 108.79 137.16 107.75 137.16 106.47 L 137.16 105.51 C 137.16 104.23 136.13 103.19 134.85 103.19 C 133.56 103.19 132.52 104.23 132.52 105.51 Z M 132.52 106.45 L 132.51 107.41 C 132.50 108.69 133.53 109.74 134.81 109.76 C 136.10 109.77 137.15 108.74 137.16 107.45 L 137.17 106.49 C 137.18 105.21 136.15 104.16 134.86 104.14 C 133.58 104.13 132.53 105.16 132.52 106.45 Z M 132.51 107.36 L 132.48 108.36 C 132.44 109.65 133.45 110.72 134.73 110.76 C 136.02 110.80 137.09 109.79 137.13 108.51 L 137.16 107.50 C 137.20 106.22 136.19 105.15 134.91 105.11 C 133.62 105.07 132.55 106.08 132.51 107.36 Z M 132.48 108.29 L 132.41 109.35 C 132.34 110.63 133.31 111.74 134.59 111.82 C 135.88 111.90 136.98 110.92 137.06 109.64 L 137.13 108.58 C 137.21 107.30 136.23 106.19 134.95 106.11 C 133.67 106.03 132.56 107.01 132.48 108.29 Z M 132.42 109.27 L 132.33 110.25 C 132.21 111.53 133.15 112.66 134.43 112.78 C 135.71 112.90 136.84 111.96 136.96 110.68 L 137.06 109.71 C 137.18 108.43 136.24 107.30 134.96 107.18 C 133.68 107.05 132.54 107.99 132.42 109.27 Z M 132.33 110.19 L 132.22 111.20 C 132.06 112.47 132.98 113.63 134.25 113.78 C 135.53 113.93 136.69 113.02 136.84 111.74 L 136.96 110.74 C 137.11 109.46 136.20 108.30 134.92 108.15 C 133.64 108.00 132.48 108.92 132.33 110.19 Z M 132.22 111.16 L 132.08 112.17 C 131.91 113.44 132.80 114.61 134.08 114.79 C 135.35 114.96 136.53 114.07 136.70 112.79 L 136.83 111.78 C 137.01 110.51 136.11 109.33 134.84 109.16 C 133.56 108.99 132.39 109.88 132.22 111.16 Z M 132.09 112.14 L 131.94 113.13 C 131.75 114.40 132.63 115.58 133.90 115.77 C 135.18 115.96 136.36 115.08 136.55 113.81 L 136.69 112.82 C 136.88 111.55 136.00 110.36 134.73 110.18 C 133.46 109.99 132.28 110.87 132.09 112.14 Z M 131.95 113.10 L 131.79 114.12 C 131.58 115.39 132.45 116.58 133.72 116.78 C 134.99 116.98 136.18 116.11 136.38 114.84 L 136.54 113.83 C 136.74 112.56 135.88 111.37 134.61 111.17 C 133.34 110.97 132.15 111.83 131.95 113.10 Z M 131.79 114.09 L 131.62 115.07 C 131.41 116.34 132.26 117.54 133.53 117.76 C 134.80 117.97 136.00 117.12 136.21 115.85 L 136.38 114.87 C 136.59 113.60 135.74 112.40 134.47 112.19 C 133.21 111.97 132.00 112.82 131.79 114.09 Z M 131.63 115.04 L 131.45 116.01 C 131.22 117.28 132.06 118.49 133.32 118.72 C 134.59 118.95 135.80 118.11 136.03 116.85 L 136.21 115.88 C 136.44 114.62 135.60 113.40 134.34 113.17 C 133.07 112.94 131.86 113.78 131.63 115.04 Z M 131.46 115.98 L 131.27 116.95 C 131.02 118.21 131.84 119.44 133.10 119.68 C 134.36 119.93 135.58 119.11 135.83 117.85 L 136.03 116.88 C 136.27 115.62 135.45 114.39 134.19 114.15 C 132.93 113.90 131.71 114.72 131.46 115.98 Z M 131.27 116.92 L 131.07 117.87 C 130.81 119.12 131.61 120.36 132.87 120.63 C 134.13 120.89 135.36 120.09 135.63 118.83 L 135.83 117.88 C 136.09 116.62 135.29 115.39 134.03 115.12 C 132.77 114.86 131.54 115.66 131.27 116.92 Z M 131.08 117.85 L 130.86 118.82 C 130.59 120.07 131.38 121.31 132.64 121.59 C 133.89 121.87 135.13 121.07 135.41 119.82 L 135.62 118.85 C 135.90 117.59 135.11 116.35 133.85 116.07 C 132.60 115.80 131.35 116.59 131.08 117.85 Z M 130.87 118.81 L 130.64 119.79 C 130.36 121.05 131.15 122.29 132.40 122.58 C 133.66 122.86 134.90 122.07 135.18 120.82 L 135.41 119.83 C 135.69 118.58 134.90 117.33 133.65 117.05 C 132.39 116.76 131.15 117.55 130.87 118.81 Z M 130.64 119.79 L 130.42 120.79 C 130.13 122.05 130.92 123.29 132.17 123.58 C 133.42 123.86 134.67 123.08 134.96 121.82 L 135.18 120.82 C 135.47 119.57 134.68 118.32 133.43 118.04 C 132.17 117.75 130.93 118.54 130.64 119.79 Z M 130.41 120.80 L 130.20 121.77 C 129.91 123.02 130.70 124.27 131.96 124.55 C 133.21 124.83 134.46 124.04 134.74 122.79 L 134.96 121.82 C 135.24 120.57 134.45 119.32 133.20 119.04 C 131.94 118.75 130.70 119.54 130.41 120.80 Z M 130.19 121.77 L 129.98 122.75 C 129.70 124.01 130.49 125.25 131.75 125.53 C 133.00 125.81 134.25 125.01 134.52 123.76 L 134.74 122.78 C 135.02 121.53 134.23 120.28 132.97 120.00 C 131.72 119.73 130.47 120.52 130.19 121.77 Z M 129.97 122.76 L 129.76 123.74 C 129.49 125.00 130.29 126.24 131.55 126.51 C 132.80 126.78 134.04 125.98 134.32 124.73 L 134.53 123.75 C 134.80 122.49 134.00 121.25 132.74 120.98 C 131.49 120.70 130.25 121.50 129.97 122.76 Z M 129.76 123.76 L 129.55 124.74 C 129.29 126.00 130.10 127.23 131.36 127.50 C 132.61 127.76 133.85 126.95 134.11 125.69 L 134.32 124.71 C 134.58 123.45 133.78 122.22 132.52 121.95 C 131.26 121.69 130.02 122.50 129.76 123.76 Z M 129.55 124.76 L 129.35 125.74 C 129.10 127.00 129.91 128.23 131.17 128.48 C 132.44 128.74 133.66 127.92 133.92 126.66 L 134.12 125.68 C 134.37 124.42 133.56 123.19 132.29 122.93 C 131.03 122.68 129.80 123.49 129.55 124.76 Z M 129.35 125.74 L 129.16 126.72 C 128.91 127.99 129.73 129.21 130.99 129.46 C 132.25 129.71 133.48 128.89 133.73 127.63 L 133.92 126.65 C 134.17 125.39 133.35 124.16 132.09 123.91 C 130.83 123.66 129.60 124.48 129.35 125.74 Z M 129.16 126.72 L 128.96 127.70 C 128.71 128.96 129.53 130.19 130.79 130.44 C 132.05 130.69 133.28 129.88 133.53 128.61 L 133.73 127.63 C 133.98 126.37 133.16 125.14 131.90 124.89 C 130.64 124.64 129.41 125.46 129.16 126.72 Z M 128.96 127.68 L 128.76 128.66 C 128.50 129.92 129.30 131.15 130.56 131.42 C 131.82 131.68 133.06 130.87 133.32 129.61 L 133.53 128.63 C 133.79 127.37 132.98 126.14 131.72 125.87 C 130.46 125.61 129.23 126.42 128.96 127.68 Z M 128.77 128.63 L 128.56 129.57 C 128.28 130.83 129.07 132.07 130.32 132.35 C 131.58 132.63 132.83 131.84 133.11 130.58 L 133.32 129.64 C 133.60 128.39 132.80 127.14 131.55 126.86 C 130.29 126.58 129.05 127.37 128.77 128.63 Z M 128.56 129.54 L 128.34 130.46 C 128.05 131.71 128.82 132.97 130.08 133.27 C 131.33 133.56 132.59 132.79 132.88 131.54 L 133.10 130.61 C 133.40 129.36 132.62 128.11 131.37 127.81 C 130.11 127.51 128.86 128.29 128.56 129.54 Z M 128.35 130.44 L 128.12 131.39 C 127.81 132.64 128.57 133.90 129.83 134.21 C 131.08 134.52 132.34 133.75 132.64 132.50 L 132.88 131.55 C 133.18 130.30 132.42 129.04 131.17 128.73 C 129.92 128.43 128.66 129.19 128.35 130.44 Z M 128.12 131.38 L 127.87 132.38 C 127.56 133.63 128.32 134.89 129.57 135.20 C 130.82 135.51 132.08 134.75 132.40 133.50 L 132.64 132.51 C 132.95 131.26 132.19 130.00 130.94 129.68 C 129.69 129.37 128.43 130.13 128.12 131.38 Z M 127.87 132.38 L 127.61 133.43 C 127.30 134.68 128.06 135.95 129.31 136.26 C 130.56 136.57 131.82 135.81 132.13 134.56 L 132.40 133.50 C 132.71 132.25 131.94 130.99 130.69 130.68 C 129.45 130.37 128.18 131.13 127.87 132.38 Z M 127.61 133.44 L 127.38 134.38 C 127.07 135.63 127.84 136.89 129.09 137.19 C 130.34 137.50 131.60 136.73 131.91 135.48 L 132.14 134.55 C 132.44 133.30 131.68 132.04 130.43 131.73 C 129.17 131.43 127.91 132.19 127.61 133.44 Z M 127.38 134.38 L 127.14 135.35 C 126.84 136.60 127.61 137.86 128.86 138.16 C 130.11 138.47 131.37 137.70 131.67 136.45 L 131.91 135.48 C 132.21 134.23 131.44 132.97 130.19 132.66 C 128.94 132.36 127.68 133.13 127.38 134.38 Z M 127.14 135.35 L 126.90 136.34 C 126.60 137.59 127.37 138.85 128.62 139.15 C 129.87 139.46 131.13 138.69 131.43 137.44 L 131.67 136.45 C 131.98 135.20 131.21 133.94 129.96 133.63 C 128.70 133.33 127.44 134.10 127.14 135.35 Z M 126.90 136.34 L 126.66 137.33 C 126.36 138.58 127.12 139.84 128.38 140.15 C 129.63 140.45 130.89 139.68 131.19 138.43 L 131.43 137.44 C 131.74 136.19 130.97 134.93 129.72 134.62 C 128.47 134.32 127.21 135.09 126.90 136.34 Z M 126.66 137.33 L 126.42 138.31 C 126.11 139.56 126.88 140.82 128.13 141.13 C 129.38 141.43 130.64 140.67 130.95 139.42 L 131.19 138.44 C 131.50 137.19 130.73 135.93 129.48 135.62 C 128.23 135.31 126.97 136.08 126.66 137.33 Z M 126.42 138.30 L 126.17 139.30 C 125.86 140.55 126.62 141.81 127.87 142.13 C 129.12 142.44 130.38 141.68 130.70 140.43 L 130.95 139.43 C 131.26 138.18 130.50 136.91 129.25 136.60 C 128.00 136.29 126.74 137.05 126.42 138.30 Z M 126.18 139.29 L 125.92 140.31 C 125.60 141.55 126.35 142.82 127.60 143.14 C 128.84 143.46 130.11 142.71 130.43 141.46 L 130.69 140.44 C 131.01 139.20 130.26 137.93 129.01 137.61 C 127.77 137.29 126.50 138.04 126.18 139.29 Z M 125.92 140.29 L 125.66 141.27 C 125.34 142.52 126.08 143.79 127.33 144.12 C 128.57 144.44 129.84 143.70 130.17 142.45 L 130.43 141.48 C 130.75 140.23 130.01 138.96 128.76 138.63 C 127.52 138.30 126.25 139.05 125.92 140.29 Z M 125.67 141.26 L 125.41 142.20 C 125.08 143.45 125.82 144.72 127.06 145.06 C 128.30 145.39 129.58 144.65 129.91 143.41 L 130.17 142.47 C 130.50 141.23 129.76 139.95 128.52 139.61 C 127.28 139.28 126.00 140.02 125.67 141.26 Z M 125.42 142.19 L 125.16 143.10 C 124.82 144.34 125.55 145.63 126.79 145.97 C 128.03 146.31 129.32 145.58 129.66 144.34 L 129.91 143.42 C 130.25 142.18 129.52 140.90 128.28 140.56 C 127.04 140.22 125.76 140.95 125.42 142.19 Z M 125.17 143.09 L 124.90 144.03 C 124.55 145.27 125.28 146.56 126.52 146.91 C 127.75 147.26 129.04 146.54 129.39 145.30 L 129.65 144.35 C 130.00 143.11 129.28 141.83 128.04 141.48 C 126.80 141.13 125.52 141.85 125.17 143.09 Z M 124.91 144.02 L 124.63 144.98 C 124.27 146.22 124.98 147.51 126.22 147.87 C 127.46 148.23 128.75 147.51 129.11 146.28 L 129.38 145.31 C 129.74 144.08 129.03 142.78 127.79 142.43 C 126.56 142.07 125.27 142.78 124.91 144.02 Z M 124.64 144.96 L 124.35 145.92 C 123.98 147.15 124.68 148.45 125.92 148.82 C 127.15 149.18 128.45 148.48 128.81 147.25 L 129.10 146.30 C 129.47 145.06 128.77 143.77 127.53 143.40 C 126.30 143.03 125.00 143.73 124.64 144.96 Z M 124.36 145.90 L 124.07 146.84 C 123.68 148.07 124.37 149.38 125.60 149.76 C 126.83 150.14 128.13 149.45 128.51 148.22 L 128.81 147.27 C 129.19 146.04 128.50 144.74 127.27 144.36 C 126.04 143.98 124.74 144.67 124.36 145.90 Z M 124.07 146.82 L 123.77 147.76 C 123.38 148.98 124.05 150.29 125.27 150.69 C 126.50 151.08 127.81 150.41 128.20 149.18 L 128.50 148.25 C 128.90 147.02 128.23 145.71 127.00 145.32 C 125.78 144.92 124.47 145.59 124.07 146.82 Z M 123.78 147.73 L 123.49 148.59 C 123.09 149.81 123.74 151.13 124.96 151.54 C 126.18 151.94 127.50 151.29 127.91 150.07 L 128.19 149.21 C 128.60 147.99 127.94 146.67 126.73 146.26 C 125.51 145.86 124.19 146.51 123.78 147.73 Z M 123.50 148.57 L 123.20 149.46 C 122.78 150.67 123.42 152.00 124.64 152.41 C 125.85 152.83 127.17 152.19 127.59 150.97 L 127.90 150.09 C 128.32 148.87 127.67 147.55 126.46 147.13 C 125.24 146.71 123.92 147.36 123.50 148.57 Z M 123.20 149.44 L 122.87 150.37 C 122.45 151.59 123.08 152.91 124.29 153.34 C 125.50 153.77 126.83 153.13 127.26 151.92 L 127.59 150.99 C 128.01 149.78 127.38 148.45 126.17 148.02 C 124.96 147.60 123.63 148.23 123.20 149.44 Z M 122.88 150.36 L 122.52 151.36 C 122.09 152.57 122.72 153.90 123.93 154.33 C 125.14 154.76 126.47 154.14 126.90 152.93 L 127.25 151.93 C 127.69 150.72 127.06 149.39 125.85 148.96 C 124.64 148.53 123.31 149.16 122.88 150.36 Z M 122.52 151.36 L 122.15 152.39 C 121.71 153.60 122.34 154.93 123.55 155.37 C 124.75 155.80 126.09 155.18 126.52 153.97 L 126.89 152.93 C 127.33 151.73 126.70 150.39 125.50 149.96 C 124.29 149.52 122.96 150.15 122.52 151.36 Z M 122.15 152.39 L 121.85 153.22 C 121.41 154.43 122.04 155.76 123.24 156.20 C 124.45 156.63 125.78 156.01 126.22 154.80 L 126.52 153.97 C 126.96 152.77 126.33 151.43 125.13 151.00 C 123.92 150.56 122.59 151.18 122.15 152.39 Z M 121.86 153.22 L 121.53 154.09 C 121.09 155.30 121.71 156.63 122.92 157.07 C 124.12 157.51 125.45 156.89 125.89 155.69 L 126.21 154.81 C 126.65 153.61 126.03 152.27 124.83 151.83 C 123.63 151.39 122.30 152.01 121.86 153.22 Z M 121.54 154.08 L 121.20 155.00 C 120.75 156.20 121.37 157.54 122.57 157.98 C 123.77 158.43 125.10 157.81 125.55 156.61 L 125.89 155.70 C 126.33 154.50 125.72 153.16 124.52 152.72 C 123.32 152.27 121.99 152.88 121.54 154.08 Z M 121.21 154.99 L 120.85 155.94 C 120.39 157.14 121.00 158.47 122.19 158.92 C 123.39 159.38 124.73 158.77 125.18 157.58 L 125.54 156.63 C 125.99 155.43 125.39 154.09 124.19 153.64 C 123.00 153.19 121.66 153.79 121.21 154.99 Z M 120.85 155.92 L 120.48 156.90 C 120.01 158.09 120.61 159.43 121.80 159.90 C 122.99 160.36 124.33 159.76 124.79 158.57 L 125.17 157.59 C 125.63 156.40 125.04 155.06 123.85 154.60 C 122.66 154.14 121.32 154.73 120.85 155.92 Z M 120.49 156.88 L 120.09 157.89 C 119.62 159.07 120.20 160.42 121.38 160.89 C 122.57 161.36 123.91 160.78 124.38 159.59 L 124.78 158.59 C 125.25 157.40 124.67 156.06 123.49 155.59 C 122.30 155.12 120.96 155.70 120.49 156.88 Z M 120.10 157.86 L 119.68 158.87 C 119.20 160.05 119.77 161.40 120.95 161.89 C 122.13 162.37 123.48 161.80 123.96 160.62 L 124.37 159.62 C 124.86 158.43 124.29 157.08 123.11 156.60 C 121.93 156.12 120.58 156.68 120.10 157.86 Z M 119.70 158.85 L 119.28 159.83 C 118.79 161.00 119.34 162.36 120.51 162.85 C 121.69 163.35 123.04 162.80 123.54 161.62 L 123.95 160.65 C 124.45 159.47 123.90 158.12 122.72 157.62 C 121.55 157.12 120.19 157.67 119.70 158.85 Z M 119.29 159.81 L 118.87 160.78 C 118.36 161.95 118.90 163.31 120.07 163.82 C 121.24 164.32 122.60 163.79 123.11 162.62 L 123.53 161.64 C 124.04 160.47 123.50 159.11 122.33 158.61 C 121.16 158.10 119.80 158.64 119.29 159.81 Z M 118.88 160.76 L 118.45 161.73 C 117.94 162.89 118.46 164.25 119.63 164.77 C 120.79 165.29 122.16 164.76 122.67 163.59 L 123.10 162.63 C 123.62 161.47 123.09 160.11 121.92 159.59 C 120.76 159.07 119.39 159.60 118.88 160.76 Z M 118.46 161.71 L 118.04 162.65 C 117.51 163.81 118.03 165.17 119.19 165.70 C 120.35 166.22 121.72 165.71 122.24 164.54 L 122.67 163.61 C 123.19 162.45 122.67 161.08 121.51 160.56 C 120.35 160.03 118.98 160.55 118.46 161.71 Z M 118.05 162.63 L 117.63 163.53 C 117.10 164.69 117.61 166.06 118.77 166.59 C 119.92 167.12 121.29 166.61 121.82 165.46 L 122.24 164.56 C 122.77 163.40 122.26 162.03 121.10 161.50 C 119.95 160.97 118.58 161.47 118.05 162.63 Z M 117.64 163.52 L 117.24 164.37 C 116.70 165.52 117.20 166.89 118.36 167.43 C 119.51 167.97 120.88 167.47 121.42 166.32 L 121.82 165.47 C 122.36 164.32 121.86 162.94 120.70 162.40 C 119.55 161.86 118.18 162.36 117.64 163.52 Z M 117.25 164.35 L 116.88 165.14 C 116.33 166.29 116.82 167.67 117.97 168.21 C 119.12 168.76 120.49 168.27 121.04 167.12 L 121.41 166.33 C 121.96 165.18 121.47 163.81 120.32 163.26 C 119.17 162.71 117.80 163.20 117.25 164.35 Z M 116.89 165.13 L 116.35 166.22 C 115.80 167.37 116.28 168.75 117.42 169.30 C 118.56 169.86 119.94 169.38 120.50 168.23 L 121.03 167.13 C 121.58 165.99 121.11 164.61 119.96 164.06 C 118.82 163.50 117.44 163.98 116.89 165.13 Z M 116.37 166.20 L 115.89 167.17 C 115.32 168.31 115.78 169.69 116.92 170.25 C 118.05 170.82 119.43 170.36 120.00 169.22 L 120.48 168.25 C 121.05 167.12 120.59 165.74 119.45 165.17 C 118.31 164.61 116.93 165.07 116.37 166.20 Z M 115.90 167.15 L 115.47 168.00 C 114.89 169.13 115.34 170.51 116.46 171.08 C 117.59 171.66 118.97 171.22 119.55 170.09 L 119.98 169.24 C 120.56 168.12 120.11 166.73 118.99 166.16 C 117.86 165.58 116.48 166.03 115.90 167.15 Z M 115.48 167.98 L 115.09 168.74 C 114.50 169.85 114.93 171.24 116.05 171.83 C 117.16 172.41 118.55 171.98 119.14 170.87 L 119.53 170.11 C 120.12 168.99 119.69 167.61 118.57 167.02 C 117.45 166.43 116.07 166.86 115.48 167.98 Z M 115.10 168.72 L 114.68 169.50 C 114.09 170.61 114.51 171.99 115.62 172.59 C 116.73 173.18 118.11 172.77 118.71 171.65 L 119.12 170.88 C 119.72 169.77 119.30 168.39 118.19 167.79 C 117.08 167.19 115.70 167.61 115.10 168.72 Z M 114.70 169.48 L 114.23 170.33 C 113.63 171.44 114.03 172.82 115.14 173.42 C 116.24 174.03 117.62 173.62 118.23 172.52 L 118.69 171.67 C 119.30 170.57 118.89 169.18 117.79 168.58 C 116.69 167.97 115.30 168.38 114.70 169.48 Z M 114.25 170.31 L 113.77 171.17 C 113.16 172.26 113.54 173.64 114.64 174.26 C 115.73 174.87 117.11 174.49 117.73 173.39 L 118.21 172.54 C 118.82 171.45 118.44 170.06 117.34 169.45 C 116.25 168.83 114.87 169.22 114.25 170.31 Z M 113.79 171.14 L 113.27 172.04 C 112.64 173.12 113.01 174.51 114.09 175.14 C 115.17 175.76 116.56 175.40 117.19 174.31 L 117.71 173.42 C 118.34 172.33 117.97 170.95 116.89 170.32 C 115.80 169.69 114.42 170.06 113.79 171.14 Z M 113.29 172.02 L 112.79 172.86 C 112.15 173.93 112.50 175.32 113.58 175.95 C 114.65 176.59 116.03 176.24 116.67 175.17 L 117.17 174.33 C 117.81 173.26 117.46 171.88 116.38 171.24 C 115.31 170.60 113.93 170.95 113.29 172.02 Z M 112.81 172.84 L 112.29 173.70 C 111.64 174.76 111.98 176.14 113.04 176.79 C 114.10 177.44 115.49 177.10 116.13 176.04 L 116.65 175.18 C 117.30 174.12 116.96 172.74 115.90 172.09 C 114.84 171.44 113.45 171.78 112.81 172.84 Z M 112.31 173.68 L 111.76 174.55 C 111.11 175.61 111.43 176.99 112.49 177.64 C 113.54 178.30 114.92 177.97 115.58 176.92 L 116.12 176.05 C 116.77 175.00 116.45 173.62 115.40 172.96 C 114.34 172.31 112.96 172.63 112.31 173.68 Z M 111.78 174.54 L 111.24 175.40 C 110.57 176.44 110.88 177.82 111.92 178.48 C 112.96 179.15 114.35 178.84 115.01 177.80 L 115.56 176.94 C 116.22 175.90 115.91 174.51 114.87 173.85 C 113.83 173.19 112.45 173.50 111.78 174.54 Z M 111.26 175.38 L 110.70 176.24 C 110.03 177.27 110.31 178.65 111.34 179.32 C 112.37 179.99 113.75 179.70 114.43 178.67 L 114.99 177.82 C 115.66 176.79 115.37 175.41 114.34 174.73 C 113.31 174.06 111.93 174.35 111.26 175.38 Z M 110.73 176.22 L 110.16 177.05 C 109.48 178.07 109.74 179.44 110.76 180.12 C 111.77 180.81 113.14 180.54 113.83 179.53 L 114.39 178.69 C 115.08 177.68 114.81 176.31 113.80 175.62 C 112.79 174.94 111.42 175.20 110.73 176.22 Z M 110.20 177.03 L 109.63 177.84 C 108.94 178.83 109.18 180.20 110.17 180.89 C 111.16 181.59 112.53 181.35 113.22 180.36 L 113.79 179.55 C 114.49 178.56 114.25 177.19 113.26 176.50 C 112.27 175.80 110.90 176.04 110.20 177.03 Z M 109.67 177.82 L 109.09 178.61 C 108.38 179.58 108.59 180.94 109.57 181.65 C 110.54 182.36 111.90 182.15 112.61 181.18 L 113.19 180.38 C 113.90 179.41 113.68 178.05 112.71 177.34 C 111.74 176.63 110.38 176.84 109.67 177.82 Z M 109.13 178.59 L 108.53 179.39 C 107.81 180.33 107.99 181.69 108.94 182.41 C 109.89 183.13 111.24 182.94 111.96 181.99 L 112.57 181.19 C 113.29 180.25 113.10 178.89 112.15 178.17 C 111.20 177.45 109.85 177.64 109.13 178.59 Z M 108.57 179.38 L 107.94 180.18 C 107.22 181.10 107.38 182.44 108.30 183.17 C 109.23 183.89 110.57 183.73 111.29 182.80 L 111.92 182.00 C 112.65 181.08 112.48 179.74 111.56 179.01 C 110.63 178.29 109.29 178.45 108.57 179.38 Z M 107.98 180.17 L 107.35 180.96 C 106.62 181.86 106.76 183.19 107.67 183.91 C 108.57 184.64 109.89 184.50 110.62 183.59 L 111.25 182.81 C 111.98 181.90 111.84 180.58 110.93 179.85 C 110.03 179.13 108.71 179.27 107.98 180.17 Z M 107.38 180.96 L 106.76 181.72 C 106.03 182.60 106.16 183.91 107.04 184.64 C 107.92 185.36 109.23 185.24 109.96 184.35 L 110.58 183.59 C 111.31 182.71 111.18 181.41 110.30 180.68 C 109.42 179.95 108.11 180.08 107.38 180.96 Z M 106.80 181.72 L 106.15 182.49 C 105.42 183.35 105.53 184.64 106.40 185.37 C 107.26 186.09 108.54 185.98 109.27 185.12 L 109.92 184.35 C 110.64 183.49 110.53 182.20 109.67 181.48 C 108.81 180.75 107.52 180.86 106.80 181.72 Z M 106.21 182.47 L 105.55 183.22 C 104.81 184.04 104.89 185.31 105.71 186.05 C 106.54 186.78 107.80 186.71 108.54 185.89 L 109.21 185.14 C 109.94 184.31 109.87 183.05 109.04 182.31 C 108.22 181.57 106.95 181.65 106.21 182.47 Z M 105.65 183.16 L 104.96 183.86 C 104.19 184.63 104.20 185.87 104.97 186.64 C 105.74 187.41 106.98 187.40 107.75 186.63 L 108.44 185.94 C 109.21 185.17 109.20 183.92 108.43 183.16 C 107.66 182.39 106.42 182.39 105.65 183.16 Z M 105.09 183.78 L 104.35 184.43 C 103.54 185.12 103.45 186.34 104.14 187.15 C 104.84 187.96 106.06 188.05 106.86 187.35 L 107.61 186.71 C 108.42 186.01 108.51 184.80 107.82 183.99 C 107.12 183.18 105.90 183.09 105.09 183.78 Z M 104.49 184.36 L 103.71 184.93 C 102.87 185.55 102.68 186.73 103.30 187.58 C 103.92 188.42 105.10 188.61 105.95 187.99 L 106.72 187.42 C 107.57 186.80 107.75 185.62 107.13 184.77 C 106.51 183.93 105.33 183.75 104.49 184.36 Z M 103.81 184.91 L 102.98 185.45 C 102.12 186.01 101.88 187.16 102.44 188.02 C 103.00 188.88 104.15 189.12 105.01 188.56 L 105.84 188.01 C 106.70 187.45 106.94 186.30 106.38 185.45 C 105.82 184.59 104.67 184.35 103.81 184.91 Z M 103.05 185.45 L 102.17 185.98 C 101.31 186.51 101.04 187.63 101.56 188.48 C 102.09 189.34 103.21 189.61 104.06 189.09 L 104.94 188.56 C 105.79 188.04 106.07 186.92 105.54 186.06 C 105.02 185.20 103.90 184.93 103.05 185.45 Z M 102.21 186.00 L 101.61 186.36 C 100.76 186.86 100.48 187.96 100.98 188.80 C 101.48 189.65 102.58 189.93 103.43 189.43 L 104.03 189.07 C 104.88 188.57 105.16 187.48 104.65 186.63 C 104.15 185.78 103.06 185.50 102.21 186.00 Z"
      fill="black"
      fill-rule="nonzero" /><path d="M 170.65 118.83 L 171.42 119.43 C 172.45 120.23 173.93 120.04 174.73 119.01 C 175.53 117.98 175.35 116.50 174.32 115.70 L 173.55 115.10 C 172.52 114.30 171.03 114.48 170.23 115.51 C 169.43 116.54 169.62 118.03 170.65 118.83 Z M 171.41 119.44 L 172.19 120.04 C 173.23 120.85 174.72 120.66 175.53 119.62 C 176.33 118.59 176.14 117.09 175.10 116.29 L 174.32 115.69 C 173.29 114.88 171.80 115.07 170.99 116.11 C 170.19 117.14 170.38 118.63 171.41 119.44 Z M 172.19 120.06 L 172.99 120.68 C 174.03 121.48 175.53 121.29 176.34 120.25 C 177.15 119.20 176.95 117.70 175.91 116.90 L 175.11 116.28 C 174.07 115.47 172.57 115.66 171.76 116.71 C 170.95 117.75 171.14 119.25 172.19 120.06 Z M 172.99 120.69 L 173.79 121.31 C 174.84 122.11 176.34 121.92 177.15 120.87 C 177.96 119.82 177.77 118.31 176.71 117.50 L 175.91 116.88 C 174.86 116.08 173.36 116.27 172.55 117.32 C 171.74 118.37 171.94 119.88 172.99 120.69 Z M 173.79 121.31 L 174.57 121.91 C 175.62 122.72 177.13 122.53 177.94 121.47 C 178.75 120.42 178.56 118.91 177.50 118.10 L 176.72 117.49 C 175.66 116.69 174.15 116.88 173.34 117.94 C 172.53 118.99 172.73 120.50 173.79 121.31 Z M 174.56 121.91 L 175.36 122.53 C 176.41 123.34 177.93 123.15 178.74 122.09 C 179.55 121.04 179.36 119.53 178.31 118.71 L 177.51 118.10 C 176.46 117.29 174.94 117.48 174.13 118.53 C 173.32 119.59 173.51 121.10 174.56 121.91 Z M 175.35 122.52 L 176.14 123.15 C 177.19 123.97 178.71 123.78 179.53 122.73 C 180.35 121.68 180.17 120.17 179.12 119.35 L 178.32 118.72 C 177.27 117.90 175.75 118.09 174.93 119.13 C 174.11 120.18 174.30 121.70 175.35 122.52 Z M 176.12 123.13 L 176.87 123.73 C 177.91 124.56 179.43 124.39 180.26 123.35 C 181.09 122.31 180.92 120.79 179.88 119.95 L 179.14 119.36 C 178.09 118.53 176.57 118.70 175.74 119.74 C 174.91 120.78 175.08 122.30 176.12 123.13 Z M 176.84 123.71 L 177.54 124.28 C 178.58 125.13 180.10 124.98 180.94 123.94 C 181.79 122.91 181.64 121.39 180.61 120.54 L 179.91 119.97 C 178.87 119.13 177.35 119.28 176.51 120.31 C 175.66 121.34 175.81 122.86 176.84 123.71 Z M 177.52 124.26 L 178.25 124.87 C 179.27 125.73 180.79 125.60 181.65 124.58 C 182.51 123.56 182.38 122.03 181.36 121.18 L 180.63 120.56 C 179.61 119.70 178.08 119.84 177.22 120.86 C 176.37 121.88 176.50 123.40 177.52 124.26 Z M 178.22 124.86 L 179.01 125.54 C 180.02 126.41 181.55 126.29 182.42 125.28 C 183.29 124.27 183.18 122.74 182.17 121.87 L 181.38 121.19 C 180.37 120.32 178.84 120.44 177.97 121.45 C 177.10 122.46 177.21 123.98 178.22 124.86 Z M 178.99 125.52 L 179.86 126.28 C 180.86 127.16 182.39 127.06 183.27 126.06 C 184.15 125.06 184.05 123.53 183.05 122.65 L 182.19 121.89 C 181.18 121.01 179.66 121.11 178.78 122.11 C 177.89 123.11 177.99 124.64 178.99 125.52 Z M 179.84 126.27 L 180.54 126.88 C 181.53 127.77 183.06 127.69 183.95 126.69 C 184.84 125.69 184.75 124.17 183.75 123.28 L 183.06 122.66 C 182.06 121.77 180.54 121.86 179.65 122.85 C 178.76 123.85 178.85 125.38 179.84 126.27 Z M 180.53 126.88 L 181.26 127.54 C 182.25 128.43 183.78 128.35 184.68 127.36 C 185.57 126.37 185.49 124.84 184.50 123.95 L 183.76 123.28 C 182.77 122.39 181.24 122.47 180.35 123.46 C 179.46 124.45 179.54 125.98 180.53 126.88 Z M 181.25 127.53 L 182.01 128.22 C 183.00 129.12 184.53 129.05 185.43 128.06 C 186.33 127.07 186.25 125.54 185.27 124.65 L 184.51 123.95 C 183.52 123.06 181.99 123.13 181.09 124.12 C 180.19 125.10 180.27 126.63 181.25 127.53 Z M 182.01 128.21 L 182.77 128.92 C 183.76 129.82 185.28 129.76 186.19 128.77 C 187.09 127.79 187.02 126.26 186.04 125.36 L 185.28 124.65 C 184.29 123.75 182.76 123.82 181.86 124.80 C 180.96 125.78 181.02 127.31 182.01 128.21 Z M 182.76 128.91 L 183.52 129.61 C 184.50 130.52 186.03 130.46 186.93 129.48 C 187.84 128.50 187.78 126.97 186.81 126.07 L 186.05 125.37 C 185.07 124.46 183.54 124.51 182.63 125.49 C 181.73 126.47 181.78 128.00 182.76 128.91 Z M 183.51 129.60 L 184.23 130.28 C 185.21 131.19 186.74 131.15 187.65 130.17 C 188.56 129.20 188.51 127.67 187.54 126.76 L 186.82 126.07 C 185.84 125.16 184.31 125.21 183.40 126.18 C 182.49 127.16 182.53 128.69 183.51 129.60 Z M 184.22 130.27 L 184.98 130.99 C 185.94 131.91 187.47 131.87 188.39 130.90 C 189.31 129.94 189.28 128.41 188.31 127.49 L 187.55 126.77 C 186.59 125.85 185.06 125.89 184.14 126.85 C 183.22 127.82 183.25 129.35 184.22 130.27 Z M 184.96 130.97 L 185.68 131.67 C 186.64 132.60 188.16 132.57 189.09 131.62 C 190.02 130.66 190.00 129.13 189.04 128.20 L 188.32 127.51 C 187.37 126.58 185.84 126.60 184.91 127.56 C 183.98 128.51 184.00 130.04 184.96 130.97 Z M 185.66 131.65 L 186.35 132.33 C 187.30 133.27 188.83 133.27 189.77 132.32 C 190.70 131.37 190.70 129.85 189.75 128.91 L 189.06 128.22 C 188.11 127.28 186.59 127.29 185.65 128.24 C 184.71 129.18 184.72 130.71 185.66 131.65 Z M 186.33 132.31 L 187.02 133.01 C 187.95 133.95 189.48 133.96 190.43 133.03 C 191.37 132.09 191.39 130.57 190.45 129.62 L 189.77 128.93 C 188.83 127.98 187.31 127.97 186.36 128.90 C 185.41 129.84 185.40 131.37 186.33 132.31 Z M 187.00 132.99 L 187.69 133.70 C 188.61 134.66 190.14 134.69 191.10 133.76 C 192.05 132.84 192.08 131.31 191.16 130.35 L 190.47 129.64 C 189.54 128.68 188.02 128.65 187.06 129.58 C 186.10 130.50 186.07 132.03 187.00 132.99 Z M 187.67 133.68 L 188.34 134.39 C 189.26 135.35 190.78 135.40 191.75 134.48 C 192.71 133.57 192.75 132.04 191.84 131.08 L 191.17 130.37 C 190.26 129.41 188.73 129.36 187.77 130.28 C 186.80 131.19 186.76 132.72 187.67 133.68 Z M 188.33 134.37 L 188.97 135.05 C 189.87 136.03 191.39 136.08 192.37 135.17 C 193.34 134.27 193.39 132.75 192.49 131.77 L 191.85 131.09 C 190.95 130.12 189.42 130.07 188.45 130.97 C 187.48 131.88 187.43 133.40 188.33 134.37 Z M 188.96 135.04 L 189.61 135.75 C 190.51 136.73 192.03 136.79 193.01 135.90 C 193.98 135.00 194.05 133.48 193.15 132.50 L 192.50 131.79 C 191.60 130.81 190.08 130.75 189.10 131.64 C 188.12 132.54 188.06 134.06 188.96 135.04 Z M 189.60 135.74 L 190.27 136.48 C 191.16 137.46 192.68 137.54 193.66 136.65 C 194.64 135.76 194.72 134.24 193.83 133.26 L 193.16 132.52 C 192.27 131.53 190.75 131.46 189.77 132.35 C 188.79 133.24 188.71 134.75 189.60 135.74 Z M 190.26 136.46 L 190.94 137.23 C 191.82 138.22 193.34 138.31 194.33 137.43 C 195.32 136.55 195.41 135.03 194.53 134.04 L 193.84 133.28 C 192.96 132.29 191.45 132.20 190.46 133.08 C 189.47 133.96 189.38 135.47 190.26 136.46 Z M 190.93 137.21 L 191.63 138.00 C 192.50 139.00 194.01 139.10 195.00 138.23 C 196.00 137.36 196.10 135.84 195.23 134.85 L 194.54 134.06 C 193.66 133.07 192.15 132.97 191.16 133.84 C 190.16 134.71 190.06 136.22 190.93 137.21 Z M 191.61 137.99 L 192.31 138.79 C 193.17 139.80 194.68 139.91 195.68 139.05 C 196.68 138.19 196.79 136.68 195.93 135.67 L 195.24 134.87 C 194.38 133.87 192.87 133.75 191.87 134.62 C 190.87 135.48 190.75 136.99 191.61 137.99 Z M 192.30 138.77 L 192.96 139.55 C 193.81 140.56 195.31 140.68 196.32 139.83 C 197.33 138.98 197.45 137.48 196.60 136.47 L 195.94 135.70 C 195.09 134.69 193.59 134.56 192.58 135.41 C 191.58 136.26 191.45 137.77 192.30 138.77 Z M 192.95 139.53 L 193.61 140.32 C 194.45 141.33 195.94 141.46 196.95 140.63 C 197.96 139.79 198.10 138.29 197.26 137.28 L 196.61 136.50 C 195.77 135.49 194.27 135.35 193.26 136.19 C 192.25 137.03 192.12 138.52 192.95 139.53 Z M 193.60 140.29 L 194.25 141.09 C 195.07 142.10 196.56 142.25 197.57 141.42 C 198.58 140.60 198.74 139.11 197.91 138.10 L 197.27 137.31 C 196.44 136.29 194.95 136.14 193.94 136.97 C 192.93 137.79 192.78 139.28 193.60 140.29 Z M 194.24 141.06 L 194.87 141.85 C 195.69 142.87 197.17 143.03 198.18 142.22 C 199.20 141.40 199.36 139.92 198.55 138.91 L 197.92 138.12 C 197.10 137.11 195.62 136.94 194.61 137.75 C 193.59 138.57 193.43 140.05 194.24 141.06 Z M 194.87 141.83 L 195.48 142.61 C 196.28 143.63 197.75 143.80 198.77 143.01 C 199.79 142.21 199.97 140.73 199.17 139.72 L 198.55 138.93 C 197.76 137.92 196.28 137.74 195.26 138.54 C 194.25 139.33 194.07 140.81 194.87 141.83 Z M 195.47 142.58 L 196.06 143.35 C 196.85 144.38 198.31 144.57 199.33 143.78 C 200.36 143.00 200.55 141.54 199.77 140.51 L 199.18 139.74 C 198.39 138.72 196.93 138.53 195.90 139.31 C 194.88 140.10 194.69 141.56 195.47 142.58 Z M 196.06 143.32 L 196.64 144.11 C 197.41 145.13 198.86 145.34 199.89 144.58 C 200.92 143.81 201.13 142.36 200.36 141.33 L 199.77 140.54 C 199.01 139.52 197.55 139.31 196.53 140.08 C 195.50 140.84 195.29 142.30 196.06 143.32 Z M 196.65 144.07 L 197.27 144.92 C 198.01 145.95 199.45 146.17 200.47 145.43 C 201.50 144.69 201.72 143.25 200.98 142.23 L 200.36 141.37 C 199.61 140.35 198.18 140.12 197.15 140.86 C 196.13 141.61 195.90 143.04 196.65 144.07 Z M 197.28 144.88 L 197.87 145.71 C 198.59 146.73 200.00 146.97 201.01 146.25 C 202.03 145.53 202.28 144.12 201.56 143.11 L 200.97 142.27 C 200.25 141.25 198.84 141.01 197.82 141.73 C 196.80 142.45 196.56 143.86 197.28 144.88 Z M 197.88 145.67 L 198.45 146.49 C 199.14 147.50 200.53 147.75 201.54 147.05 C 202.55 146.36 202.80 144.97 202.10 143.96 L 201.54 143.15 C 200.84 142.14 199.46 141.88 198.45 142.58 C 197.44 143.28 197.19 144.66 197.88 145.67 Z M 198.47 146.45 L 199.01 147.26 C 199.69 148.26 201.05 148.52 202.05 147.84 C 203.05 147.16 203.31 145.80 202.63 144.80 L 202.09 144.00 C 201.41 143.00 200.05 142.74 199.05 143.42 C 198.05 144.09 197.79 145.45 198.47 146.45 Z M 199.04 147.23 L 199.57 148.03 C 200.23 149.01 201.57 149.28 202.55 148.61 C 203.54 147.95 203.80 146.62 203.14 145.63 L 202.61 144.83 C 201.95 143.85 200.61 143.58 199.62 144.24 C 198.64 144.91 198.37 146.24 199.04 147.23 Z M 199.59 148.01 L 199.89 148.45 C 200.54 149.43 201.86 149.69 202.83 149.04 C 203.81 148.39 204.07 147.07 203.42 146.10 L 203.12 145.65 C 202.47 144.68 201.15 144.41 200.18 145.06 C 199.20 145.71 198.94 147.03 199.59 148.01 Z"
      fill="black"
      fill-rule="nonzero" /></svg>