<svg xmlns="http://www.w3.org/2000/svg" version="1.0" width="937.000000pt" height="937.000000pt" viewBox="0 0 937.000000 937.000000" preserveAspectRatio="xMidYMid meet">
  <defs/>
  <path fill="#000000" d="M482.5,528.2 C479.3,530.1 478.1,532.2 478,536.1 C478,541 474.4,546.2 460.6,561.2 C443.7,579.8 415.6,601.6 402,606.9 C396.9,608.9 394,610.6 393,612.3 L391.6,614.9 L393.5,617 C395.9,619.7 398.5,619.4 409.8,615 C418,611.9 440.7,597.6 454,587.2 L460.5,582.1 L461.2,629.6 L461.8,677.1 L463.4,679.5 C464.2,680.8 465.9,682.1 467,682.5 C469.8,683.4 473.8,680.7 474.7,677.2 C475.7,673.4 475.7,572.9 474.7,570.8 C474,569.5 475.6,567.2 481.6,560.9 C490.5,551.3 493.1,546.2 493.3,538 L493.5,532.1 L491.5,530.1 C488.9,527.5 485,526.7 482.5,528.2 Z"/>
</svg>

