<svg xmlns="http://www.w3.org/2000/svg" version="1.0" width="937.000000pt" height="937.000000pt" viewBox="0 0 937.000000 937.000000" preserveAspectRatio="xMidYMid meet">
  <defs/>
  <path fill="#000000" d="M439.9,381.9 L437.5,383.8 L437.7,402.2 C437.8,412.3 438.4,424.5 439,429.5 C441.6,452.5 442.1,472.5 441.9,538.5 L441.6,607.6 L443.6,611 C446.7,616.4 451.3,619 457.6,619 L462.9,619 L470.7,614.9 C484.6,607.6 506.1,592.7 535.4,570 C571.9,541.7 584,531.3 594.5,519.3 C602.9,509.8 607.1,502.2 609.6,492.3 L611.4,485.1 L609.6,483.1 C605.7,478.8 601.3,481.1 599,488.5 C597.1,494.5 594.1,500 590.2,504.9 C585.7,510.5 565.5,528.1 550.3,539.8 C512,569.2 502.3,576.5 490.8,584.3 C475.8,594.7 460.2,604 458.1,604 L456.5,604 L456.5,527.8 L456.5,451.5 L454.8,435.5 C453.8,426.7 452.8,411.4 452.4,401.6 L451.7,383.7 L449.8,381.8 C447.5,379.5 442.8,379.5 439.9,381.9 Z"/>
</svg>

