<svg xmlns="http://www.w3.org/2000/svg" version="1.0" width="937.000000pt" height="937.000000pt" viewBox="0 0 937.000000 937.000000" preserveAspectRatio="xMidYMid meet">
  <defs/>
  <path fill="#000000" d="M497.5,532 C477.1,532.7 458.6,534.7 435.1,539 C427.1,540.5 419.4,540.2 413.3,538.3 L408,536.6 L405.2,538.7 C401.8,541.2 401,546.3 403.6,549.1 C406.2,552 415.5,554.3 424,554.2 C428.1,554.2 439.8,552.8 450,551.1 C460.2,549.5 472,547.6 476.3,547.1 C484.4,546 525,545.6 525,546.6 C525,549.1 511,574 507.1,578.3 C501.4,584.6 500.7,586.1 502.6,588.9 C506.3,594.2 512.2,590 525.3,572.5 C537.8,555.7 541.2,549.9 541.8,544.1 L542.2,539.3 L539.4,536.1 C536.4,532.9 529.4,530.8 522.6,531.2 C520.9,531.3 509.6,531.7 497.5,532 Z"/>
  <path fill="#000000" d="M453.9,564.8 C450.8,567.4 451,571.9 454.6,577.1 L457.5,581.4 L457.4,592.4 L457.2,603.5 L454.1,613 C445.9,637.3 432.8,657.9 419.1,667.8 C412,673 411.1,674.5 413,678.1 C414.7,681.1 418.7,680.4 425.6,675.9 C443.2,664.5 459.9,640.3 469.1,613 L472.3,603.5 L472.4,590.5 L472.5,577.5 L470.3,573.4 C465.2,563.8 459.1,560.6 453.9,564.8 Z"/>
</svg>

