<svg xmlns="http://www.w3.org/2000/svg" width="300" height="300" viewBox="0 0 300 300">
<path d="M 134.91 119.98 L 134.65 120.96 C 134.36 122.03 134.99 123.13 136.06 123.42 C 137.13 123.71 138.23 123.07 138.52 122.00 L 138.78 121.02 C 139.07 119.95 138.43 118.85 137.37 118.57 C 136.30 118.28 135.20 118.91 134.91 119.98 Z M 134.51 120.97 L 134.27 121.95 C 133.99 123.09 134.69 124.24 135.83 124.53 C 136.97 124.81 138.12 124.11 138.41 122.97 L 138.65 121.99 C 138.93 120.85 138.23 119.70 137.09 119.41 C 135.95 119.13 134.80 119.83 134.51 120.97 Z M 134.13 122.01 L 133.93 122.98 C 133.69 124.20 134.47 125.39 135.69 125.64 C 136.92 125.89 138.11 125.10 138.35 123.88 L 138.55 122.91 C 138.80 121.69 138.01 120.50 136.79 120.25 C 135.57 120.00 134.38 120.79 134.13 122.01 Z M 133.81 123.11 L 133.68 124.09 C 133.51 125.38 134.41 126.56 135.70 126.73 C 136.98 126.91 138.16 126.00 138.34 124.72 L 138.47 123.74 C 138.64 122.46 137.74 121.27 136.46 121.10 C 135.17 120.93 133.99 121.83 133.81 123.11 Z M 133.63 124.24 L 133.56 125.23 C 133.48 126.55 134.47 127.68 135.79 127.77 C 137.10 127.86 138.24 126.86 138.33 125.55 L 138.39 124.56 C 138.48 123.25 137.49 122.11 136.17 122.02 C 134.86 121.94 133.72 122.93 133.63 124.24 Z M 133.55 125.34 L 133.53 126.34 C 133.50 127.66 134.55 128.75 135.87 128.78 C 137.19 128.81 138.29 127.76 138.32 126.44 L 138.34 125.44 C 138.37 124.12 137.32 123.02 136.00 122.99 C 134.67 122.96 133.58 124.01 133.55 125.34 Z M 133.52 126.38 L 133.51 127.38 C 133.51 128.71 134.59 129.79 135.92 129.79 C 137.25 129.79 138.33 128.72 138.33 127.39 L 138.33 126.39 C 138.33 125.06 137.26 123.98 135.93 123.98 C 134.60 123.98 133.52 125.05 133.52 126.38 Z M 133.51 127.38 L 133.51 128.30 C 133.51 129.63 134.59 130.71 135.92 130.71 C 137.25 130.71 138.33 129.63 138.33 128.30 L 138.33 127.38 C 138.33 126.05 137.25 124.97 135.92 124.97 C 134.59 124.97 133.51 126.05 133.51 127.38 Z M 133.51 128.30 L 133.51 129.27 C 133.51 130.60 134.59 131.68 135.92 131.68 C 137.26 131.68 138.34 130.60 138.34 129.27 L 138.34 128.30 C 138.34 126.96 137.26 125.88 135.92 125.88 C 134.59 125.88 133.51 126.96 133.51 128.30 Z M 133.50 129.27 L 133.50 130.32 C 133.50 131.65 134.59 132.74 135.92 132.74 C 137.26 132.74 138.34 131.65 138.34 130.32 L 138.34 129.27 C 138.34 127.93 137.26 126.85 135.92 126.85 C 134.59 126.85 133.50 127.93 133.50 129.27 Z M 133.50 130.32 L 133.50 131.39 C 133.50 132.73 134.58 133.81 135.92 133.81 C 137.26 133.81 138.34 132.73 138.34 131.39 L 138.34 130.32 C 138.34 128.98 137.26 127.90 135.92 127.90 C 134.58 127.90 133.50 128.98 133.50 130.32 Z M 133.50 131.39 L 133.50 132.39 C 133.50 133.73 134.58 134.81 135.92 134.81 C 137.26 134.81 138.34 133.73 138.34 132.39 L 138.34 131.39 C 138.34 130.05 137.26 128.97 135.92 128.97 C 134.58 128.97 133.50 130.05 133.50 131.39 Z M 133.50 132.39 L 133.50 133.42 C 133.50 134.76 134.58 135.84 135.92 135.84 C 137.26 135.84 138.34 134.76 138.34 133.42 L 138.34 132.39 C 138.34 131.05 137.26 129.97 135.92 129.97 C 134.58 129.97 133.50 131.05 133.50 132.39 Z M 133.50 133.42 L 133.50 134.45 C 133.50 135.78 134.58 136.87 135.92 136.87 C 137.26 136.87 138.34 135.78 138.34 134.45 L 138.34 133.42 C 138.34 132.08 137.26 131.00 135.92 131.00 C 134.58 131.00 133.50 132.08 133.50 133.42 Z M 133.50 134.45 L 133.50 135.43 C 133.50 136.77 134.58 137.86 135.92 137.86 C 137.26 137.86 138.35 136.77 138.35 135.43 L 138.35 134.45 C 138.35 133.11 137.26 132.02 135.92 132.02 C 134.58 132.02 133.50 133.11 133.50 134.45 Z M 133.50 135.43 L 133.50 136.47 C 133.50 137.81 134.58 138.90 135.92 138.90 C 137.26 138.90 138.35 137.81 138.35 136.47 L 138.35 135.43 C 138.35 134.09 137.26 133.01 135.92 133.01 C 134.58 133.01 133.50 134.09 133.50 135.43 Z M 133.50 136.47 L 133.50 137.52 C 133.50 138.85 134.58 139.94 135.92 139.94 C 137.26 139.94 138.35 138.85 138.35 137.52 L 138.35 136.47 C 138.35 135.13 137.26 134.05 135.92 134.05 C 134.58 134.05 133.50 135.13 133.50 136.47 Z M 133.50 137.52 L 133.50 138.48 C 133.50 139.82 134.58 140.91 135.92 140.91 C 137.26 140.91 138.35 139.82 138.35 138.48 L 138.35 137.52 C 138.35 136.18 137.26 135.09 135.92 135.09 C 134.58 135.09 133.50 136.18 133.50 137.52 Z M 133.50 138.48 L 133.50 139.42 C 133.50 140.76 134.58 141.84 135.92 141.84 C 137.26 141.84 138.35 140.76 138.35 139.42 L 138.35 138.48 C 138.35 137.14 137.26 136.06 135.92 136.06 C 134.58 136.06 133.50 137.14 133.50 138.48 Z M 133.50 139.42 L 133.50 140.36 C 133.50 141.70 134.58 142.79 135.92 142.79 C 137.26 142.79 138.34 141.70 138.34 140.36 L 138.34 139.42 C 138.35 138.08 137.26 137.00 135.92 136.99 C 134.58 136.99 133.50 138.08 133.50 139.42 Z M 133.50 140.36 L 133.50 141.33 C 133.49 142.67 134.57 143.76 135.91 143.76 C 137.25 143.76 138.34 142.68 138.34 141.34 L 138.34 140.37 C 138.35 139.03 137.27 137.94 135.93 137.94 C 134.59 137.94 133.50 139.02 133.50 140.36 Z M 133.50 141.32 L 133.49 142.33 C 133.48 143.67 134.56 144.76 135.89 144.77 C 137.23 144.78 138.32 143.70 138.33 142.37 L 138.34 141.36 C 138.35 140.02 137.27 138.93 135.94 138.92 C 134.60 138.91 133.51 139.98 133.50 141.32 Z M 133.49 142.31 L 133.47 143.37 C 133.45 144.71 134.52 145.81 135.86 145.82 C 137.20 145.84 138.30 144.78 138.32 143.44 L 138.33 142.38 C 138.35 141.05 137.28 139.95 135.95 139.93 C 134.61 139.91 133.51 140.98 133.49 142.31 Z M 133.48 143.35 L 133.45 144.30 C 133.42 145.63 134.48 146.74 135.82 146.77 C 137.16 146.80 138.26 145.74 138.29 144.41 L 138.32 143.46 C 138.35 142.12 137.29 141.01 135.95 140.98 C 134.61 140.95 133.51 142.01 133.48 143.35 Z M 133.46 144.29 L 133.43 145.27 C 133.39 146.60 134.44 147.72 135.78 147.75 C 137.12 147.79 138.23 146.74 138.27 145.40 L 138.29 144.42 C 138.33 143.08 137.28 141.97 135.94 141.93 C 134.61 141.90 133.49 142.95 133.46 144.29 Z M 133.43 145.26 L 133.40 146.27 C 133.36 147.61 134.40 148.72 135.74 148.77 C 137.07 148.81 138.19 147.76 138.23 146.42 L 138.26 145.41 C 138.31 144.08 137.26 142.96 135.92 142.92 C 134.59 142.88 133.47 143.92 133.43 145.26 Z M 133.40 146.27 L 133.36 147.30 C 133.32 148.64 134.37 149.76 135.70 149.80 C 137.04 149.84 138.15 148.80 138.20 147.46 L 138.23 146.43 C 138.28 145.09 137.23 143.98 135.90 143.93 C 134.56 143.89 133.44 144.93 133.40 146.27 Z M 133.37 147.30 L 133.33 148.30 C 133.29 149.63 134.33 150.75 135.67 150.79 C 137.00 150.84 138.12 149.79 138.16 148.46 L 138.20 147.46 C 138.24 146.13 137.20 145.01 135.86 144.97 C 134.53 144.92 133.41 145.97 133.37 147.30 Z M 133.33 148.30 L 133.30 149.27 C 133.26 150.60 134.30 151.72 135.63 151.77 C 136.97 151.81 138.08 150.77 138.13 149.43 L 138.16 148.46 C 138.21 147.13 137.16 146.01 135.83 145.96 C 134.50 145.92 133.38 146.96 133.33 148.30 Z M 133.30 149.27 L 133.27 150.26 C 133.22 151.59 134.26 152.71 135.59 152.76 C 136.93 152.80 138.05 151.76 138.09 150.43 L 138.13 149.44 C 138.18 148.10 137.13 146.99 135.80 146.94 C 134.47 146.89 133.35 147.93 133.30 149.27 Z M 133.27 150.25 L 133.23 151.26 C 133.18 152.59 134.22 153.72 135.55 153.77 C 136.88 153.82 138.00 152.78 138.05 151.45 L 138.09 150.43 C 138.14 149.10 137.10 147.98 135.77 147.93 C 134.44 147.88 133.32 148.92 133.27 150.25 Z M 133.23 151.25 L 133.19 152.29 C 133.13 153.62 134.16 154.74 135.50 154.80 C 136.83 154.86 137.95 153.82 138.01 152.49 L 138.05 151.46 C 138.11 150.12 137.07 149.00 135.74 148.94 C 134.41 148.89 133.29 149.92 133.23 151.25 Z M 133.19 152.28 L 133.14 153.26 C 133.08 154.60 134.11 155.72 135.44 155.79 C 136.77 155.85 137.90 154.82 137.96 153.49 L 138.01 152.50 C 138.07 151.17 137.04 150.04 135.71 149.98 C 134.38 149.92 133.25 150.95 133.19 152.28 Z M 133.14 153.26 L 133.09 154.25 C 133.03 155.58 134.05 156.71 135.38 156.77 C 136.71 156.84 137.84 155.82 137.91 154.49 L 137.96 153.50 C 138.02 152.17 137.00 151.04 135.67 150.97 C 134.34 150.90 133.21 151.93 133.14 153.26 Z M 133.10 154.24 L 133.05 155.25 C 132.98 156.57 134.00 157.71 135.33 157.77 C 136.66 157.84 137.79 156.82 137.86 155.49 L 137.91 154.49 C 137.98 153.16 136.95 152.03 135.62 151.96 C 134.30 151.89 133.16 152.91 133.10 154.24 Z M 133.05 155.25 L 133.00 156.26 C 132.93 157.58 133.95 158.71 135.28 158.78 C 136.61 158.85 137.74 157.83 137.81 156.50 L 137.86 155.49 C 137.92 154.16 136.90 153.03 135.57 152.96 C 134.24 152.90 133.11 153.92 133.05 155.25 Z M 133.00 156.26 L 132.95 157.27 C 132.89 158.60 133.91 159.73 135.24 159.79 C 136.57 159.85 137.69 158.83 137.76 157.50 L 137.80 156.49 C 137.87 155.16 136.84 154.04 135.52 153.97 C 134.19 153.91 133.06 154.93 133.00 156.26 Z M 132.95 157.28 L 132.91 158.30 C 132.85 159.62 133.88 160.74 135.20 160.80 C 136.53 160.86 137.65 159.83 137.71 158.50 L 137.75 157.49 C 137.81 156.17 136.78 155.04 135.46 154.99 C 134.13 154.93 133.01 155.96 132.95 157.28 Z M 132.91 158.31 L 132.87 159.31 C 132.82 160.64 133.85 161.76 135.18 161.81 C 136.50 161.86 137.62 160.83 137.67 159.50 L 137.71 158.49 C 137.76 157.17 136.73 156.05 135.40 156.00 C 134.08 155.95 132.96 156.98 132.91 158.31 Z M 132.87 159.32 L 132.84 160.33 C 132.79 161.65 133.83 162.76 135.15 162.81 C 136.47 162.85 137.58 161.82 137.63 160.49 L 137.67 159.49 C 137.71 158.17 136.68 157.06 135.35 157.01 C 134.03 156.97 132.92 158.00 132.87 159.32 Z M 132.84 160.33 L 132.81 161.33 C 132.77 162.65 133.80 163.76 135.13 163.80 C 136.45 163.84 137.55 162.81 137.60 161.48 L 137.63 160.49 C 137.67 159.17 136.63 158.06 135.31 158.02 C 133.99 157.98 132.88 159.01 132.84 160.33 Z M 132.81 161.33 L 132.78 162.33 C 132.74 163.65 133.78 164.75 135.10 164.79 C 136.42 164.83 137.52 163.79 137.56 162.47 L 137.59 161.48 C 137.63 160.16 136.59 159.06 135.28 159.02 C 133.96 158.98 132.85 160.02 132.81 161.33 Z M 132.79 162.33 L 132.76 163.32 C 132.72 164.64 133.75 165.74 135.07 165.78 C 136.39 165.82 137.49 164.78 137.53 163.46 L 137.56 162.47 C 137.60 161.15 136.56 160.05 135.24 160.01 C 133.93 159.97 132.83 161.01 132.79 162.33 Z M 132.76 163.32 L 132.73 164.33 C 132.69 165.64 133.73 166.74 135.04 166.78 C 136.36 166.82 137.45 165.78 137.49 164.47 L 137.52 163.46 C 137.56 162.15 136.53 161.05 135.21 161.01 C 133.90 160.97 132.80 162.01 132.76 163.32 Z M 132.74 164.33 L 132.71 165.33 C 132.67 166.64 133.70 167.73 135.01 167.77 C 136.32 167.81 137.42 166.78 137.46 165.47 L 137.49 164.47 C 137.53 163.16 136.50 162.06 135.18 162.02 C 133.87 161.98 132.78 163.01 132.74 164.33 Z M 132.71 165.33 L 132.68 166.32 C 132.64 167.63 133.67 168.73 134.98 168.77 C 136.29 168.81 137.38 167.78 137.42 166.47 L 137.45 165.47 C 137.49 164.16 136.46 163.07 135.15 163.03 C 133.84 162.99 132.75 164.02 132.71 165.33 Z M 132.69 166.32 L 132.65 167.32 C 132.62 168.63 133.64 169.72 134.95 169.76 C 136.26 169.80 137.35 168.77 137.39 167.46 L 137.42 166.47 C 137.46 165.16 136.43 164.07 135.12 164.03 C 133.82 163.99 132.72 165.02 132.69 166.32 Z M 132.66 167.32 L 132.63 168.32 C 132.59 169.62 133.62 170.71 134.92 170.75 C 136.22 170.79 137.31 169.76 137.35 168.46 L 137.38 167.46 C 137.42 166.16 136.40 165.07 135.09 165.03 C 133.79 164.99 132.70 166.02 132.66 167.32 Z M 132.64 168.32 L 132.60 169.32 C 132.57 170.62 133.59 171.71 134.89 171.75 C 136.19 171.79 137.28 170.77 137.32 169.46 L 137.35 168.46 C 137.39 167.16 136.37 166.07 135.06 166.03 C 133.76 165.99 132.68 167.01 132.64 168.32 Z M 132.61 169.32 L 132.58 170.32 C 132.54 171.62 133.56 172.70 134.85 172.74 C 136.15 172.79 137.24 171.77 137.28 170.47 L 137.31 169.47 C 137.35 168.17 136.33 167.08 135.04 167.04 C 133.74 167.00 132.65 168.02 132.61 169.32 Z M 132.59 170.31 L 132.55 171.31 C 132.51 172.61 133.52 173.69 134.81 173.74 C 136.11 173.78 137.19 172.77 137.24 171.48 L 137.27 170.48 C 137.32 169.18 136.30 168.10 135.01 168.05 C 133.72 168.01 132.63 169.02 132.59 170.31 Z M 132.56 171.30 L 132.52 172.30 C 132.47 173.59 133.48 174.67 134.77 174.72 C 136.05 174.77 137.14 173.77 137.19 172.48 L 137.23 171.49 C 137.28 170.20 136.27 169.11 134.98 169.06 C 133.70 169.01 132.61 170.02 132.56 171.30 Z M 132.53 172.29 L 132.49 173.28 C 132.43 174.57 133.42 175.66 134.71 175.71 C 135.99 175.77 137.08 174.77 137.14 173.49 L 137.18 172.49 C 137.24 171.21 136.24 170.12 134.96 170.07 C 133.67 170.01 132.59 171.00 132.53 172.29 Z M 132.49 173.27 L 132.44 174.29 C 132.38 175.57 133.37 176.66 134.65 176.72 C 135.93 176.79 137.01 175.80 137.08 174.52 L 137.13 173.50 C 137.19 172.22 136.21 171.13 134.93 171.07 C 133.65 171.01 132.56 171.99 132.49 173.27 Z M 132.45 174.28 L 132.40 175.29 C 132.33 176.57 133.31 177.66 134.58 177.73 C 135.86 177.79 136.95 176.82 137.02 175.54 L 137.07 174.53 C 137.14 173.26 136.16 172.17 134.88 172.10 C 133.61 172.03 132.52 173.01 132.45 174.28 Z M 132.41 175.29 L 132.35 176.29 C 132.28 177.56 133.25 178.65 134.52 178.72 C 135.79 178.79 136.88 177.81 136.95 176.54 L 137.01 175.54 C 137.08 174.27 136.10 173.19 134.83 173.12 C 133.56 173.05 132.48 174.02 132.41 175.29 Z M 132.36 176.29 L 132.31 177.28 C 132.24 178.54 133.21 179.62 134.47 179.69 C 135.74 179.76 136.82 178.79 136.89 177.52 L 136.94 176.54 C 137.01 175.27 136.04 174.19 134.78 174.12 C 133.51 174.06 132.43 175.03 132.36 176.29 Z M 132.32 177.29 L 132.27 178.27 C 132.20 179.53 133.17 180.60 134.43 180.67 C 135.69 180.73 136.77 179.76 136.83 178.50 L 136.88 177.52 C 136.95 176.25 135.97 175.18 134.71 175.12 C 133.45 175.05 132.38 176.02 132.32 177.29 Z M 132.27 178.28 L 132.23 179.29 C 132.17 180.55 133.15 181.61 134.40 181.67 C 135.66 181.73 136.72 180.75 136.78 179.50 L 136.82 178.49 C 136.88 177.23 135.91 176.17 134.65 176.11 C 133.40 176.05 132.33 177.03 132.27 178.28 Z M 132.24 179.30 L 132.20 180.30 C 132.15 181.55 133.12 182.61 134.37 182.66 C 135.62 182.71 136.68 181.74 136.73 180.49 L 136.77 179.49 C 136.82 178.24 135.84 177.18 134.59 177.13 C 133.34 177.08 132.29 178.05 132.24 179.30 Z M 132.21 180.31 L 132.17 181.30 C 132.13 182.55 133.10 183.59 134.34 183.64 C 135.59 183.69 136.63 182.71 136.68 181.47 L 136.72 180.48 C 136.76 179.23 135.79 178.19 134.55 178.14 C 133.30 178.10 132.26 179.07 132.21 180.31 Z M 132.18 181.31 L 132.15 182.30 C 132.11 183.54 133.08 184.58 134.31 184.62 C 135.55 184.66 136.59 183.69 136.64 182.45 L 136.67 181.46 C 136.71 180.22 135.74 179.19 134.50 179.14 C 133.27 179.10 132.23 180.07 132.18 181.31 Z M 132.16 182.30 L 132.13 183.33 C 132.08 184.56 133.05 185.60 134.28 185.64 C 135.51 185.68 136.55 184.71 136.59 183.48 L 136.62 182.45 C 136.67 181.22 135.70 180.19 134.47 180.14 C 133.24 180.10 132.20 181.07 132.16 182.30 Z M 132.14 183.33 L 132.10 184.37 C 132.06 185.60 133.02 186.63 134.25 186.67 C 135.47 186.71 136.50 185.75 136.54 184.52 L 136.58 183.48 C 136.62 182.26 135.66 181.23 134.43 181.19 C 133.21 181.14 132.18 182.10 132.14 183.33 Z M 132.11 184.37 L 132.08 185.38 C 132.04 186.60 132.99 187.63 134.21 187.67 C 135.43 187.71 136.45 186.76 136.49 185.54 L 136.53 184.52 C 136.57 183.30 135.62 182.28 134.40 182.24 C 133.18 182.20 132.16 183.15 132.11 184.37 Z M 132.09 185.38 L 132.05 186.35 C 132.01 187.56 132.96 188.58 134.17 188.62 C 135.38 188.67 136.40 187.72 136.45 186.51 L 136.48 185.54 C 136.53 184.33 135.58 183.31 134.37 183.27 C 133.15 183.22 132.13 184.17 132.09 185.38 Z M 132.07 186.34 L 132.03 187.28 C 131.98 188.49 132.92 189.50 134.13 189.55 C 135.33 189.60 136.35 188.66 136.40 187.46 L 136.43 186.51 C 136.48 185.31 135.54 184.29 134.34 184.24 C 133.13 184.20 132.12 185.14 132.07 186.34 Z M 132.05 187.27 L 132.00 188.23 C 131.95 189.43 132.88 190.44 134.08 190.49 C 135.28 190.54 136.29 189.61 136.34 188.42 L 136.38 187.46 C 136.43 186.27 135.51 185.25 134.31 185.20 C 133.11 185.15 132.10 186.08 132.05 187.27 Z M 132.02 188.22 L 131.97 189.17 C 131.92 190.36 132.84 191.37 134.02 191.43 C 135.21 191.48 136.22 190.57 136.28 189.38 L 136.32 188.43 C 136.38 187.24 135.46 186.23 134.27 186.17 C 133.09 186.11 132.08 187.03 132.02 188.22 Z M 131.99 189.17 L 131.94 190.20 C 131.88 191.38 132.79 192.38 133.97 192.44 C 135.15 192.50 136.15 191.59 136.21 190.41 L 136.26 189.38 C 136.32 188.20 135.41 187.20 134.23 187.14 C 133.05 187.08 132.05 187.99 131.99 189.17 Z M 131.95 190.20 L 131.90 191.18 C 131.84 192.35 132.74 193.35 133.91 193.41 C 135.09 193.47 136.09 192.57 136.15 191.40 L 136.20 190.42 C 136.26 189.24 135.36 188.24 134.18 188.18 C 133.01 188.12 132.01 189.02 131.95 190.20 Z M 131.91 191.18 L 131.87 192.09 C 131.81 193.26 132.70 194.25 133.87 194.31 C 135.03 194.37 136.03 193.48 136.09 192.31 L 136.13 191.40 C 136.19 190.23 135.30 189.24 134.13 189.18 C 132.97 189.11 131.97 190.01 131.91 191.18 Z M 131.88 192.09 L 131.83 193.08 C 131.77 194.24 132.66 195.22 133.81 195.29 C 134.97 195.35 135.96 194.46 136.02 193.30 L 136.07 192.31 C 136.14 191.15 135.25 190.16 134.09 190.10 C 132.93 190.04 131.94 190.93 131.88 192.09 Z M 131.84 193.08 L 131.78 194.11 C 131.72 195.26 132.61 196.25 133.76 196.31 C 134.91 196.37 135.90 195.48 135.96 194.33 L 136.01 193.30 C 136.07 192.14 135.19 191.16 134.03 191.10 C 132.88 191.04 131.90 191.93 131.84 193.08 Z M 131.80 194.11 L 131.74 195.18 C 131.68 196.33 132.56 197.30 133.70 197.36 C 134.85 197.43 135.83 196.54 135.89 195.40 L 135.95 194.33 C 136.01 193.19 135.13 192.21 133.98 192.15 C 132.83 192.09 131.86 192.97 131.80 194.11 Z M 131.75 195.18 L 131.70 196.09 C 131.64 197.23 132.52 198.21 133.66 198.27 C 134.80 198.33 135.77 197.45 135.83 196.31 L 135.88 195.40 C 135.94 194.26 135.06 193.29 133.92 193.23 C 132.78 193.17 131.81 194.04 131.75 195.18 Z"
      fill="black"
      fill-rule="nonzero" /><path d="M 107.02 151.37 L 107.82 151.48 C 108.98 151.62 110.04 150.80 110.19 149.65 C 110.34 148.49 109.52 147.43 108.36 147.28 L 107.56 147.18 C 106.40 147.03 105.34 147.85 105.19 149.01 C 105.04 150.16 105.86 151.22 107.02 151.37 Z M 107.98 151.50 L 108.85 151.54 C 110.03 151.60 111.02 150.69 111.08 149.52 C 111.14 148.35 110.23 147.35 109.06 147.30 L 108.19 147.26 C 107.02 147.20 106.02 148.10 105.97 149.27 C 105.91 150.44 106.81 151.44 107.98 151.50 Z M 109.12 151.54 L 110.13 151.47 C 111.31 151.38 112.19 150.35 112.10 149.18 C 112.01 148.00 110.98 147.13 109.81 147.22 L 108.80 147.29 C 107.62 147.38 106.74 148.41 106.83 149.58 C 106.92 150.76 107.95 151.63 109.12 151.54 Z M 110.41 151.44 L 111.64 151.18 C 112.79 150.93 113.53 149.80 113.29 148.64 C 113.05 147.49 111.91 146.75 110.76 146.99 L 109.53 147.25 C 108.37 147.49 107.63 148.62 107.88 149.78 C 108.12 150.94 109.25 151.68 110.41 151.44 Z M 111.82 151.13 L 112.71 150.86 C 113.84 150.52 114.48 149.32 114.14 148.19 C 113.79 147.05 112.59 146.42 111.46 146.76 L 110.57 147.03 C 109.44 147.38 108.80 148.58 109.15 149.71 C 109.49 150.84 110.69 151.48 111.82 151.13 Z M 112.80 150.84 L 113.70 150.52 C 114.82 150.12 115.40 148.89 115.00 147.77 C 114.61 146.66 113.38 146.07 112.26 146.47 L 111.36 146.79 C 110.25 147.19 109.66 148.42 110.06 149.53 C 110.46 150.65 111.69 151.23 112.80 150.84 Z M 113.76 150.49 L 114.71 150.12 C 115.82 149.69 116.36 148.45 115.93 147.34 C 115.50 146.24 114.25 145.69 113.15 146.12 L 112.20 146.49 C 111.10 146.92 110.55 148.17 110.98 149.27 C 111.41 150.38 112.66 150.93 113.76 150.49 Z M 114.75 150.11 L 115.73 149.70 C 116.82 149.25 117.34 147.99 116.89 146.89 C 116.43 145.80 115.17 145.28 114.08 145.73 L 113.10 146.14 C 112.01 146.59 111.49 147.85 111.94 148.95 C 112.40 150.04 113.66 150.56 114.75 150.11 Z M 115.76 149.69 L 116.73 149.27 C 117.82 148.79 118.32 147.53 117.85 146.44 C 117.38 145.35 116.11 144.85 115.02 145.32 L 114.04 145.75 C 112.96 146.22 112.46 147.49 112.93 148.58 C 113.40 149.66 114.67 150.16 115.76 149.69 Z M 116.76 149.26 L 117.71 148.83 C 118.80 148.34 119.28 147.07 118.79 145.99 C 118.31 144.90 117.03 144.42 115.95 144.90 L 115.00 145.33 C 113.91 145.82 113.43 147.09 113.91 148.17 C 114.40 149.26 115.67 149.74 116.76 149.26 Z M 117.73 148.82 L 118.63 148.41 C 119.72 147.91 120.19 146.64 119.70 145.56 C 119.20 144.47 117.92 144.00 116.84 144.49 L 115.93 144.91 C 114.85 145.40 114.38 146.68 114.87 147.76 C 115.37 148.84 116.65 149.32 117.73 148.82 Z M 118.64 148.41 L 119.61 147.96 C 120.69 147.46 121.16 146.18 120.66 145.10 C 120.16 144.02 118.88 143.55 117.80 144.05 L 116.83 144.50 C 115.75 145.00 115.28 146.28 115.78 147.36 C 116.28 148.44 117.56 148.91 118.64 148.41 Z M 119.62 147.95 L 120.56 147.51 C 121.64 147.01 122.10 145.73 121.60 144.65 C 121.09 143.57 119.81 143.11 118.73 143.61 L 117.79 144.05 C 116.72 144.56 116.25 145.84 116.76 146.92 C 117.26 147.99 118.54 148.46 119.62 147.95 Z M 120.57 147.51 L 121.45 147.09 C 122.53 146.58 122.98 145.29 122.47 144.22 C 121.96 143.14 120.67 142.69 119.60 143.20 L 118.72 143.62 C 117.65 144.13 117.19 145.41 117.70 146.49 C 118.21 147.56 119.50 148.02 120.57 147.51 Z M 121.47 147.08 L 122.32 146.67 C 123.39 146.15 123.83 144.86 123.31 143.79 C 122.80 142.72 121.51 142.27 120.44 142.79 L 119.59 143.21 C 118.52 143.72 118.07 145.01 118.59 146.08 C 119.11 147.15 120.40 147.60 121.47 147.08 Z M 122.33 146.66 L 123.19 146.24 C 124.25 145.71 124.69 144.42 124.16 143.36 C 123.64 142.29 122.35 141.85 121.28 142.38 L 120.42 142.80 C 119.36 143.33 118.92 144.62 119.45 145.69 C 119.97 146.75 121.26 147.19 122.33 146.66 Z M 123.20 146.23 L 124.09 145.79 C 125.16 145.25 125.58 143.96 125.05 142.89 C 124.52 141.83 123.22 141.40 122.16 141.94 L 121.27 142.38 C 120.20 142.92 119.77 144.21 120.31 145.28 C 120.84 146.34 122.14 146.77 123.20 146.23 Z M 124.10 145.78 L 124.95 145.35 C 126.01 144.81 126.43 143.51 125.89 142.45 C 125.35 141.39 124.06 140.97 122.99 141.51 L 122.15 141.94 C 121.09 142.48 120.67 143.78 121.21 144.84 C 121.75 145.90 123.04 146.32 124.10 145.78 Z M 124.96 145.35 L 125.82 144.90 C 126.88 144.36 127.30 143.06 126.76 142.00 C 126.21 140.94 124.92 140.52 123.86 141.07 L 122.99 141.51 C 121.93 142.06 121.51 143.36 122.06 144.41 C 122.60 145.47 123.90 145.89 124.96 145.35 Z M 125.83 144.90 L 126.73 144.43 C 127.79 143.88 128.20 142.58 127.65 141.53 C 127.11 140.47 125.81 140.06 124.75 140.61 L 123.85 141.07 C 122.79 141.62 122.38 142.92 122.93 143.97 C 123.48 145.03 124.77 145.44 125.83 144.90 Z M 126.74 144.43 L 127.65 143.95 C 128.71 143.40 129.11 142.10 128.56 141.05 C 128.02 139.99 126.71 139.58 125.66 140.13 L 124.74 140.61 C 123.69 141.16 123.28 142.46 123.83 143.51 C 124.38 144.57 125.68 144.98 126.74 144.43 Z M 127.66 143.95 L 128.57 143.47 C 129.62 142.92 130.03 141.61 129.48 140.56 C 128.92 139.51 127.62 139.10 126.57 139.65 L 125.65 140.13 C 124.60 140.69 124.19 141.99 124.75 143.04 C 125.30 144.10 126.60 144.50 127.66 143.95 Z M 128.58 143.47 L 129.47 142.99 C 130.53 142.44 130.93 141.13 130.37 140.08 C 129.82 139.03 128.51 138.63 127.46 139.18 L 126.56 139.66 C 125.51 140.21 125.11 141.52 125.66 142.57 C 126.22 143.62 127.52 144.02 128.58 143.47 Z M 129.48 142.99 L 130.36 142.52 C 131.41 141.96 131.81 140.66 131.25 139.61 C 130.69 138.56 129.39 138.16 128.34 138.72 L 127.46 139.18 C 126.41 139.74 126.01 141.05 126.57 142.10 C 127.12 143.15 128.43 143.55 129.48 142.99 Z M 130.37 142.52 L 131.34 141.99 C 132.39 141.43 132.79 140.13 132.22 139.08 C 131.66 138.03 130.36 137.64 129.31 138.20 L 128.33 138.72 C 127.28 139.28 126.89 140.59 127.45 141.64 C 128.01 142.68 129.32 143.08 130.37 142.52 Z M 131.35 141.99 L 132.27 141.49 C 133.32 140.92 133.71 139.62 133.14 138.57 C 132.58 137.53 131.27 137.14 130.23 137.70 L 129.30 138.20 C 128.26 138.77 127.87 140.07 128.44 141.12 C 129.00 142.16 130.31 142.55 131.35 141.99 Z M 132.28 141.48 L 133.16 141.00 C 134.20 140.43 134.58 139.13 134.01 138.08 C 133.45 137.04 132.14 136.66 131.10 137.23 L 130.22 137.71 C 129.18 138.28 128.80 139.58 129.37 140.62 C 129.94 141.67 131.24 142.05 132.28 141.48 Z M 133.17 140.99 L 134.01 140.53 C 135.04 139.95 135.42 138.65 134.85 137.61 C 134.27 136.58 132.97 136.20 131.93 136.77 L 131.09 137.24 C 130.06 137.81 129.68 139.12 130.25 140.15 C 130.83 141.19 132.13 141.56 133.17 140.99 Z M 134.02 140.52 L 134.83 140.07 C 135.86 139.49 136.23 138.18 135.65 137.15 C 135.07 136.12 133.76 135.75 132.73 136.33 L 131.92 136.78 C 130.89 137.36 130.52 138.66 131.10 139.70 C 131.68 140.73 132.98 141.10 134.02 140.52 Z M 134.84 140.06 L 135.67 139.58 C 136.70 139.00 137.06 137.69 136.48 136.66 C 135.89 135.64 134.59 135.28 133.56 135.86 L 132.72 136.34 C 131.70 136.92 131.34 138.23 131.92 139.25 C 132.50 140.28 133.81 140.64 134.84 140.06 Z M 135.68 139.57 L 136.59 139.05 C 137.61 138.47 137.96 137.16 137.37 136.14 C 136.79 135.11 135.48 134.76 134.46 135.35 L 133.55 135.87 C 132.53 136.46 132.18 137.76 132.76 138.79 C 133.35 139.81 134.66 140.16 135.68 139.57 Z M 136.59 139.05 L 137.47 138.54 C 138.49 137.95 138.84 136.65 138.25 135.63 C 137.66 134.61 136.36 134.26 135.34 134.85 L 134.46 135.35 C 133.44 135.94 133.08 137.25 133.67 138.27 C 134.26 139.29 135.57 139.64 136.59 139.05 Z M 137.46 138.54 L 138.32 138.05 C 139.34 137.47 139.69 136.16 139.11 135.14 C 138.52 134.12 137.22 133.77 136.20 134.35 L 135.34 134.85 C 134.32 135.43 133.97 136.73 134.55 137.75 C 135.14 138.77 136.44 139.13 137.46 138.54 Z M 138.30 138.06 L 139.14 137.59 C 140.16 137.01 140.52 135.71 139.95 134.69 C 139.37 133.66 138.07 133.30 137.05 133.88 L 136.21 134.35 C 135.19 134.93 134.83 136.22 135.41 137.25 C 135.98 138.27 137.28 138.63 138.30 138.06 Z M 139.11 137.60 L 140.00 137.11 C 141.03 136.55 141.41 135.26 140.84 134.23 C 140.28 133.20 138.99 132.82 137.96 133.38 L 137.07 133.87 C 136.04 134.43 135.67 135.72 136.23 136.75 C 136.79 137.78 138.08 138.16 139.11 137.60 Z M 139.97 137.13 L 140.89 136.64 C 141.93 136.10 142.32 134.81 141.78 133.78 C 141.23 132.74 139.95 132.34 138.91 132.88 L 137.99 133.37 C 136.95 133.91 136.55 135.20 137.10 136.24 C 137.65 137.27 138.93 137.67 139.97 137.13 Z M 140.86 136.66 L 141.75 136.21 C 142.79 135.68 143.21 134.40 142.69 133.36 C 142.16 132.31 140.88 131.89 139.83 132.42 L 138.94 132.87 C 137.90 133.40 137.48 134.68 138.01 135.72 C 138.53 136.77 139.81 137.19 140.86 136.66 Z M 141.72 136.22 L 142.58 135.80 C 143.64 135.29 144.08 134.02 143.56 132.97 C 143.05 131.91 141.78 131.47 140.73 131.98 L 139.86 132.41 C 138.81 132.92 138.37 134.19 138.88 135.24 C 139.40 136.29 140.67 136.73 141.72 136.22 Z M 142.55 135.81 L 143.45 135.39 C 144.51 134.90 144.97 133.64 144.47 132.58 C 143.97 131.52 142.71 131.06 141.65 131.56 L 140.76 131.97 C 139.70 132.47 139.24 133.73 139.74 134.79 C 140.23 135.85 141.49 136.31 142.55 135.81 Z M 143.41 135.41 L 144.35 134.99 C 145.42 134.51 145.90 133.26 145.43 132.20 C 144.95 131.13 143.70 130.65 142.64 131.12 L 141.69 131.54 C 140.63 132.02 140.15 133.27 140.62 134.33 C 141.09 135.40 142.34 135.88 143.41 135.41 Z M 144.30 135.00 L 145.22 134.63 C 146.29 134.18 146.81 132.95 146.36 131.87 C 145.92 130.80 144.68 130.28 143.61 130.73 L 142.69 131.11 C 141.61 131.55 141.10 132.78 141.55 133.86 C 141.99 134.94 143.22 135.45 144.30 135.00 Z M 145.15 134.65 L 146.04 134.31 C 147.13 133.91 147.69 132.70 147.28 131.61 C 146.88 130.52 145.67 129.97 144.58 130.37 L 143.68 130.71 C 142.59 131.11 142.04 132.32 142.44 133.41 C 142.85 134.50 144.06 135.05 145.15 134.65 Z M 145.93 134.39 L 147.03 134.05 C 148.16 133.71 148.79 132.51 148.45 131.38 C 148.10 130.25 146.91 129.62 145.78 129.96 L 144.68 130.30 C 143.56 130.64 142.92 131.84 143.27 132.97 C 143.61 134.10 144.81 134.73 145.93 134.39 Z M 146.69 134.21 L 147.69 134.08 C 148.90 133.92 149.76 132.80 149.60 131.59 C 149.44 130.37 148.33 129.52 147.11 129.68 L 146.12 129.81 C 144.90 129.97 144.05 131.08 144.21 132.30 C 144.37 133.51 145.48 134.37 146.69 134.21 Z M 146.66 134.05 L 147.39 134.30 C 148.59 134.71 149.89 134.07 150.31 132.87 C 150.72 131.67 150.07 130.36 148.87 129.95 L 148.15 129.70 C 146.94 129.29 145.64 129.93 145.23 131.13 C 144.82 132.33 145.46 133.64 146.66 134.05 Z M 146.03 133.15 L 146.39 133.89 C 146.95 135.05 148.35 135.53 149.51 134.96 C 150.67 134.40 151.15 133.00 150.59 131.84 L 150.23 131.10 C 149.67 129.94 148.27 129.46 147.11 130.02 C 145.95 130.59 145.46 131.99 146.03 133.15 Z M 146.15 132.81 L 146.13 133.87 C 146.10 135.16 147.12 136.23 148.41 136.26 C 149.70 136.29 150.77 135.27 150.80 133.98 L 150.82 132.92 C 150.86 131.63 149.83 130.56 148.54 130.53 C 147.25 130.49 146.18 131.52 146.15 132.81 Z M 146.22 133.27 L 145.93 134.26 C 145.57 135.50 146.28 136.80 147.52 137.16 C 148.76 137.52 150.06 136.81 150.42 135.57 L 150.71 134.58 C 151.07 133.34 150.36 132.04 149.12 131.68 C 147.88 131.32 146.58 132.03 146.22 133.27 Z M 146.06 133.93 L 145.68 134.74 C 145.13 135.91 145.63 137.30 146.80 137.85 C 147.97 138.40 149.36 137.89 149.91 136.73 L 150.29 135.91 C 150.84 134.74 150.33 133.35 149.17 132.80 C 148.00 132.25 146.61 132.76 146.06 133.93 Z M 145.76 134.57 L 145.27 135.43 C 144.63 136.55 145.02 137.98 146.14 138.62 C 147.26 139.26 148.69 138.87 149.33 137.75 L 149.82 136.89 C 150.46 135.77 150.07 134.34 148.95 133.70 C 147.83 133.06 146.40 133.45 145.76 134.57 Z M 145.31 135.36 L 144.74 136.29 C 144.06 137.39 144.40 138.83 145.49 139.51 C 146.59 140.19 148.03 139.85 148.71 138.75 L 149.29 137.82 C 149.97 136.73 149.63 135.29 148.53 134.61 C 147.43 133.93 145.99 134.26 145.31 135.36 Z M 144.74 136.29 L 144.19 137.18 C 143.50 138.27 143.84 139.71 144.93 140.40 C 146.03 141.08 147.47 140.75 148.15 139.65 L 148.71 138.76 C 149.39 137.66 149.05 136.22 147.96 135.54 C 146.86 134.86 145.42 135.19 144.74 136.29 Z M 144.18 137.19 L 143.67 138.02 C 143.00 139.12 143.34 140.56 144.44 141.23 C 145.54 141.90 146.98 141.56 147.66 140.46 L 148.16 139.63 C 148.83 138.53 148.49 137.10 147.39 136.42 C 146.29 135.75 144.85 136.09 144.18 137.19 Z M 143.67 138.03 L 143.15 138.89 C 142.48 139.99 142.83 141.42 143.93 142.09 C 145.03 142.76 146.47 142.41 147.14 141.31 L 147.66 140.45 C 148.33 139.35 147.98 137.91 146.87 137.24 C 145.77 136.57 144.34 136.93 143.67 138.03 Z M 143.15 138.89 L 142.62 139.77 C 141.95 140.87 142.30 142.30 143.41 142.97 C 144.51 143.64 145.94 143.28 146.61 142.18 L 147.14 141.30 C 147.80 140.20 147.45 138.77 146.35 138.10 C 145.25 137.43 143.81 137.79 143.15 138.89 Z M 142.62 139.77 L 142.09 140.65 C 141.42 141.75 141.77 143.18 142.87 143.85 C 143.98 144.51 145.41 144.16 146.07 143.06 L 146.61 142.18 C 147.27 141.08 146.92 139.65 145.82 138.98 C 144.72 138.31 143.28 138.67 142.62 139.77 Z M 142.09 140.64 L 141.55 141.53 C 140.88 142.62 141.23 144.06 142.33 144.73 C 143.43 145.39 144.86 145.05 145.53 143.95 L 146.07 143.07 C 146.74 141.97 146.39 140.53 145.29 139.87 C 144.19 139.20 142.76 139.55 142.09 140.64 Z M 141.56 141.52 L 141.00 142.43 C 140.33 143.52 140.67 144.95 141.76 145.63 C 142.86 146.30 144.29 145.96 144.96 144.87 L 145.52 143.96 C 146.20 142.86 145.86 141.43 144.76 140.76 C 143.67 140.08 142.24 140.42 141.56 141.52 Z M 141.01 142.42 L 140.46 143.29 C 139.78 144.38 140.12 145.81 141.20 146.49 C 142.29 147.17 143.73 146.84 144.41 145.75 L 144.95 144.88 C 145.63 143.79 145.30 142.36 144.21 141.68 C 143.12 141.00 141.69 141.33 141.01 142.42 Z M 140.48 143.28 L 139.94 144.12 C 139.26 145.20 139.58 146.63 140.66 147.32 C 141.74 148.01 143.18 147.68 143.86 146.60 L 144.40 145.77 C 145.08 144.68 144.76 143.25 143.68 142.56 C 142.60 141.88 141.16 142.20 140.48 143.28 Z M 139.96 144.10 L 139.44 144.90 C 138.75 145.97 139.06 147.41 140.14 148.10 C 141.21 148.80 142.65 148.49 143.34 147.41 L 143.85 146.62 C 144.55 145.54 144.24 144.11 143.16 143.41 C 142.09 142.72 140.65 143.03 139.96 144.10 Z M 139.46 144.88 L 138.93 145.68 C 138.23 146.75 138.52 148.19 139.59 148.89 C 140.66 149.59 142.10 149.30 142.80 148.23 L 143.33 147.43 C 144.03 146.36 143.73 144.92 142.67 144.22 C 141.60 143.52 140.16 143.81 139.46 144.88 Z M 138.94 145.66 L 138.38 146.50 C 137.67 147.56 137.95 149.00 139.01 149.71 C 140.07 150.43 141.51 150.15 142.22 149.09 L 142.79 148.25 C 143.50 147.19 143.22 145.75 142.16 145.03 C 141.10 144.32 139.66 144.60 138.94 145.66 Z M 138.39 146.48 L 137.84 147.30 C 137.11 148.35 137.38 149.79 138.44 150.51 C 139.49 151.24 140.93 150.97 141.66 149.91 L 142.21 149.10 C 142.93 148.05 142.66 146.60 141.61 145.88 C 140.55 145.16 139.11 145.43 138.39 146.48 Z M 137.84 147.29 L 137.28 148.10 C 136.56 149.15 136.82 150.59 137.87 151.32 C 138.92 152.04 140.37 151.78 141.09 150.73 L 141.65 149.92 C 142.38 148.87 142.11 147.42 141.06 146.70 C 140.01 145.97 138.57 146.24 137.84 147.29 Z M 137.28 148.10 L 136.72 148.91 C 135.99 149.96 136.26 151.41 137.31 152.13 C 138.36 152.86 139.80 152.59 140.53 151.54 L 141.09 150.73 C 141.82 149.68 141.55 148.23 140.50 147.51 C 139.45 146.78 138.01 147.05 137.28 148.10 Z M 136.72 148.92 L 136.17 149.71 C 135.45 150.76 135.72 152.20 136.77 152.93 C 137.82 153.65 139.26 153.38 139.99 152.33 L 140.53 151.54 C 141.26 150.48 140.99 149.04 139.94 148.32 C 138.88 147.60 137.44 147.86 136.72 148.92 Z M 136.17 149.71 L 135.61 150.53 C 134.89 151.58 135.15 153.02 136.21 153.75 C 137.26 154.47 138.70 154.20 139.43 153.15 L 139.99 152.33 C 140.71 151.28 140.44 149.84 139.39 149.11 C 138.34 148.39 136.90 148.66 136.17 149.71 Z M 135.61 150.53 L 135.03 151.36 C 134.31 152.42 134.57 153.86 135.63 154.58 C 136.68 155.31 138.12 155.04 138.85 153.99 L 139.42 153.15 C 140.15 152.10 139.88 150.66 138.83 149.93 C 137.78 149.21 136.34 149.47 135.61 150.53 Z M 135.04 151.36 L 134.45 152.21 C 133.72 153.26 133.98 154.70 135.03 155.43 C 136.08 156.16 137.52 155.90 138.25 154.85 L 138.84 154.00 C 139.57 152.95 139.31 151.51 138.26 150.78 C 137.21 150.05 135.77 150.31 135.04 151.36 Z M 134.46 152.20 L 133.88 153.01 C 133.15 154.06 133.40 155.50 134.45 156.24 C 135.49 156.97 136.94 156.72 137.67 155.67 L 138.24 154.86 C 138.98 153.81 138.73 152.37 137.68 151.63 C 136.63 150.90 135.19 151.15 134.46 152.20 Z M 133.89 153.00 L 133.32 153.81 C 132.58 154.85 132.82 156.29 133.87 157.03 C 134.91 157.77 136.35 157.53 137.09 156.49 L 137.66 155.68 C 138.40 154.64 138.16 153.19 137.12 152.45 C 136.08 151.71 134.63 151.96 133.89 153.00 Z M 133.33 153.80 L 132.75 154.61 C 132.00 155.64 132.24 157.09 133.28 157.83 C 134.32 158.58 135.76 158.34 136.51 157.30 L 137.09 156.49 C 137.83 155.46 137.59 154.01 136.56 153.27 C 135.52 152.52 134.07 152.76 133.33 153.80 Z M 132.75 154.60 L 132.16 155.42 C 131.41 156.45 131.64 157.90 132.68 158.65 C 133.72 159.39 135.16 159.16 135.91 158.13 L 136.50 157.31 C 137.25 156.27 137.02 154.83 135.98 154.08 C 134.95 153.33 133.50 153.56 132.75 154.60 Z M 132.17 155.41 L 131.56 156.24 C 130.81 157.27 131.04 158.71 132.07 159.47 C 133.10 160.22 134.55 159.99 135.30 158.96 L 135.91 158.13 C 136.66 157.10 136.43 155.65 135.40 154.90 C 134.37 154.15 132.92 154.38 132.17 155.41 Z M 131.57 156.23 L 131.00 157.01 C 130.25 158.04 130.47 159.48 131.50 160.24 C 132.53 160.99 133.98 160.77 134.73 159.74 L 135.30 158.96 C 136.05 157.93 135.83 156.49 134.80 155.73 C 133.77 154.98 132.32 155.20 131.57 156.23 Z M 131.01 157.00 L 130.43 157.79 C 129.68 158.81 129.89 160.26 130.92 161.01 C 131.95 161.77 133.39 161.55 134.15 160.52 L 134.72 159.74 C 135.48 158.71 135.26 157.27 134.23 156.51 C 133.21 155.76 131.76 155.98 131.01 157.00 Z M 130.44 157.79 L 129.85 158.59 C 129.09 159.61 129.31 161.05 130.33 161.81 C 131.35 162.56 132.80 162.35 133.55 161.32 L 134.14 160.52 C 134.90 159.50 134.68 158.06 133.66 157.30 C 132.63 156.55 131.19 156.76 130.44 157.79 Z M 129.85 158.59 L 129.24 159.40 C 128.49 160.42 128.70 161.87 129.72 162.62 C 130.75 163.38 132.19 163.16 132.94 162.14 L 133.55 161.32 C 134.30 160.30 134.09 158.86 133.07 158.11 C 132.05 157.35 130.61 157.57 129.85 158.59 Z M 129.25 159.40 L 128.63 160.24 C 127.87 161.26 128.09 162.70 129.10 163.46 C 130.12 164.21 131.56 164.00 132.32 162.98 L 132.94 162.14 C 133.69 161.12 133.48 159.68 132.46 158.93 C 131.44 158.17 130.00 158.39 129.25 159.40 Z M 128.63 160.24 L 128.03 161.05 C 127.28 162.06 127.49 163.50 128.51 164.26 C 129.53 165.01 130.96 164.80 131.72 163.78 L 132.32 162.98 C 133.07 161.96 132.86 160.52 131.84 159.77 C 130.82 159.01 129.39 159.22 128.63 160.24 Z M 128.04 161.05 L 127.44 161.84 C 126.69 162.86 126.90 164.30 127.91 165.05 C 128.93 165.81 130.37 165.60 131.12 164.58 L 131.72 163.78 C 132.47 162.77 132.26 161.33 131.24 160.57 C 130.23 159.82 128.79 160.03 128.04 161.05 Z M 127.45 161.84 L 126.85 162.65 C 126.09 163.66 126.30 165.10 127.31 165.85 C 128.32 166.61 129.76 166.40 130.51 165.39 L 131.12 164.58 C 131.87 163.57 131.67 162.14 130.65 161.38 C 129.64 160.62 128.21 160.83 127.45 161.84 Z M 126.85 162.64 L 126.25 163.45 C 125.49 164.46 125.69 165.89 126.70 166.65 C 127.71 167.41 129.14 167.21 129.90 166.20 L 130.51 165.39 C 131.27 164.39 131.07 162.95 130.06 162.19 C 129.05 161.43 127.61 161.63 126.85 162.64 Z M 126.25 163.44 L 125.64 164.24 C 124.88 165.25 125.08 166.68 126.08 167.45 C 127.08 168.21 128.52 168.01 129.28 167.01 L 129.89 166.21 C 130.66 165.20 130.46 163.77 129.46 163.01 C 128.45 162.24 127.02 162.44 126.25 163.44 Z M 125.66 164.23 L 125.05 165.02 C 124.28 166.02 124.46 167.46 125.46 168.22 C 126.46 168.99 127.89 168.81 128.66 167.81 L 129.27 167.02 C 130.04 166.02 129.86 164.59 128.86 163.82 C 127.86 163.05 126.42 163.24 125.66 164.23 Z M 125.06 165.01 L 124.42 165.83 C 123.64 166.82 123.82 168.25 124.81 169.03 C 125.80 169.80 127.24 169.63 128.01 168.64 L 128.65 167.82 C 129.43 166.83 129.25 165.40 128.26 164.62 C 127.27 163.84 125.84 164.02 125.06 165.01 Z M 124.43 165.82 L 123.80 166.61 C 123.02 167.60 123.18 169.03 124.17 169.81 C 125.16 170.60 126.59 170.43 127.37 169.44 L 128.00 168.65 C 128.78 167.66 128.62 166.23 127.63 165.45 C 126.65 164.67 125.21 164.83 124.43 165.82 Z M 123.81 166.61 L 123.18 167.39 C 122.40 168.37 122.56 169.81 123.54 170.59 C 124.52 171.37 125.95 171.21 126.74 170.23 L 127.36 169.45 C 128.15 168.47 127.99 167.04 127.01 166.25 C 126.02 165.47 124.59 165.63 123.81 166.61 Z M 123.19 167.39 L 122.57 168.16 C 121.78 169.14 121.94 170.57 122.92 171.36 C 123.90 172.14 125.33 171.98 126.12 171.00 L 126.74 170.23 C 127.52 169.25 127.36 167.82 126.38 167.04 C 125.40 166.25 123.97 166.41 123.19 167.39 Z M 122.57 168.16 L 121.96 168.92 C 121.18 169.90 121.34 171.33 122.32 172.12 C 123.30 172.90 124.73 172.74 125.51 171.76 L 126.12 171.00 C 126.90 170.02 126.74 168.59 125.76 167.81 C 124.78 167.02 123.35 167.18 122.57 168.16 Z M 121.96 168.93 L 121.34 169.72 C 120.56 170.70 120.72 172.13 121.71 172.91 C 122.69 173.68 124.12 173.52 124.89 172.54 L 125.52 171.75 C 126.29 170.77 126.13 169.34 125.15 168.56 C 124.16 167.78 122.74 167.95 121.96 168.93 Z M 121.33 169.73 L 120.70 170.53 C 119.93 171.52 120.10 172.94 121.09 173.71 C 122.08 174.49 123.50 174.31 124.27 173.33 L 124.90 172.53 C 125.67 171.54 125.50 170.11 124.51 169.34 C 123.53 168.57 122.10 168.74 121.33 169.73 Z M 120.70 170.54 L 120.08 171.34 C 119.32 172.33 119.50 173.75 120.49 174.52 C 121.48 175.28 122.90 175.10 123.66 174.11 L 124.28 173.31 C 125.04 172.33 124.86 170.90 123.87 170.14 C 122.88 169.37 121.46 169.55 120.70 170.54 Z M 120.07 171.35 L 119.47 172.14 C 118.71 173.13 118.90 174.55 119.90 175.31 C 120.89 176.07 122.31 175.88 123.07 174.89 L 123.67 174.10 C 124.43 173.10 124.24 171.68 123.25 170.93 C 122.25 170.17 120.83 170.36 120.07 171.35 Z M 119.46 172.15 L 118.87 172.93 C 118.12 173.93 118.32 175.35 119.32 176.10 C 120.31 176.85 121.73 176.65 122.48 175.66 L 123.08 174.87 C 123.83 173.88 123.63 172.46 122.63 171.71 C 121.63 170.96 120.22 171.15 119.46 172.15 Z M 118.87 172.95 L 118.27 173.75 C 117.52 174.75 117.73 176.17 118.73 176.91 C 119.73 177.66 121.15 177.45 121.89 176.45 L 122.49 175.65 C 123.24 174.64 123.03 173.23 122.03 172.48 C 121.03 171.74 119.61 171.95 118.87 172.95 Z M 118.26 173.76 L 117.66 174.58 C 116.92 175.58 117.14 177.00 118.14 177.74 C 119.15 178.47 120.56 178.26 121.30 177.25 L 121.90 176.44 C 122.64 175.43 122.42 174.02 121.42 173.28 C 120.41 172.54 119.00 172.76 118.26 173.76 Z M 117.66 174.59 L 117.07 175.40 C 116.33 176.41 116.55 177.82 117.56 178.55 C 118.57 179.29 119.98 179.06 120.71 178.06 L 121.30 177.24 C 122.04 176.24 121.81 174.83 120.81 174.09 C 119.80 173.36 118.39 173.58 117.66 174.59 Z M 117.06 175.41 L 116.48 176.21 C 115.75 177.22 115.98 178.63 116.99 179.36 C 118.00 180.09 119.41 179.86 120.14 178.85 L 120.72 178.05 C 121.45 177.04 121.22 175.63 120.21 174.90 C 119.20 174.17 117.79 174.40 117.06 175.41 Z M 116.48 176.22 L 115.91 177.02 C 115.18 178.03 115.41 179.44 116.43 180.16 C 117.44 180.88 118.84 180.65 119.57 179.64 L 120.14 178.84 C 120.86 177.83 120.63 176.43 119.62 175.70 C 118.61 174.98 117.20 175.21 116.48 176.22 Z M 115.91 177.02 L 115.33 177.83 C 114.61 178.84 114.84 180.25 115.85 180.97 C 116.86 181.69 118.27 181.46 118.99 180.45 L 119.57 179.64 C 120.29 178.63 120.06 177.22 119.05 176.50 C 118.03 175.78 116.63 176.01 115.91 177.02 Z M 115.33 177.83 L 114.75 178.64 C 114.03 179.65 114.26 181.06 115.27 181.78 C 116.28 182.50 117.69 182.27 118.41 181.26 L 118.99 180.45 C 119.71 179.44 119.48 178.03 118.47 177.31 C 117.45 176.59 116.05 176.82 115.33 177.83 Z M 114.75 178.64 L 114.17 179.45 C 113.45 180.46 113.68 181.86 114.69 182.59 C 115.70 183.31 117.10 183.08 117.83 182.07 L 118.41 181.26 C 119.13 180.25 118.90 178.85 117.89 178.12 C 116.88 177.40 115.48 177.63 114.75 178.64 Z M 114.18 179.44 L 113.59 180.25 C 112.87 181.26 113.09 182.66 114.10 183.39 C 115.10 184.12 116.51 183.89 117.23 182.89 L 117.82 182.08 C 118.55 181.07 118.32 179.67 117.32 178.94 C 116.31 178.21 114.91 178.44 114.18 179.44 Z M 113.60 180.24 L 112.97 181.11 C 112.24 182.11 112.45 183.52 113.45 184.25 C 114.45 184.98 115.86 184.76 116.59 183.76 L 117.22 182.90 C 117.96 181.90 117.74 180.49 116.74 179.76 C 115.74 179.03 114.34 179.25 113.60 180.24 Z M 112.98 181.10 L 112.20 182.16 C 111.46 183.15 111.67 184.55 112.66 185.29 C 113.66 186.03 115.06 185.82 115.80 184.83 L 116.58 183.77 C 117.32 182.78 117.11 181.38 116.11 180.64 C 115.12 179.90 113.72 180.11 112.98 181.10 Z M 112.20 182.16 L 111.54 183.04 C 110.80 184.03 111.01 185.44 112.01 186.17 C 113.00 186.91 114.40 186.70 115.14 185.71 L 115.80 184.83 C 116.53 183.83 116.33 182.43 115.33 181.69 C 114.34 180.96 112.94 181.16 112.20 182.16 Z M 111.52 183.07 L 111.12 183.64 C 110.39 184.64 110.62 186.04 111.63 186.76 C 112.63 187.48 114.03 187.25 114.75 186.25 L 115.16 185.68 C 115.88 184.68 115.65 183.28 114.65 182.56 C 113.64 181.84 112.25 182.07 111.52 183.07 Z M 112.20 187.06 L 112.26 187.08 C 113.43 187.48 114.70 186.86 115.10 185.69 C 115.50 184.52 114.88 183.25 113.71 182.84 L 113.66 182.83 C 112.49 182.42 111.22 183.05 110.82 184.21 C 110.41 185.38 111.04 186.66 112.20 187.06 Z M 114.65 186.47 L 115.40 185.63 C 116.24 184.71 116.17 183.30 115.25 182.47 C 114.33 181.63 112.92 181.70 112.08 182.62 L 111.33 183.45 C 110.49 184.37 110.56 185.79 111.48 186.62 C 112.40 187.45 113.81 187.38 114.65 186.47 Z M 115.41 185.63 L 116.14 184.82 C 116.97 183.90 116.90 182.48 115.98 181.65 C 115.06 180.82 113.64 180.89 112.81 181.81 L 112.08 182.62 C 111.25 183.54 111.32 184.96 112.24 185.79 C 113.16 186.62 114.58 186.55 115.41 185.63 Z M 116.14 184.83 L 116.74 184.17 C 117.58 183.25 117.51 181.83 116.60 180.99 C 115.68 180.16 114.26 180.22 113.42 181.14 L 112.81 181.80 C 111.98 182.72 112.04 184.14 112.96 184.98 C 113.87 185.82 115.30 185.75 116.14 184.83 Z M 116.75 184.17 L 117.42 183.43 C 118.26 182.51 118.19 181.08 117.26 180.24 C 116.34 179.41 114.92 179.48 114.08 180.40 L 113.41 181.14 C 112.57 182.06 112.64 183.49 113.57 184.32 C 114.49 185.16 115.91 185.09 116.75 184.17 Z M 117.44 183.42 L 118.20 182.56 C 119.03 181.63 118.95 180.20 118.01 179.37 C 117.08 178.54 115.65 178.62 114.83 179.55 L 114.06 180.41 C 113.23 181.35 113.32 182.77 114.25 183.60 C 115.18 184.43 116.61 184.35 117.44 183.42 Z M 118.22 182.54 L 118.88 181.78 C 119.70 180.84 119.60 179.41 118.66 178.59 C 117.72 177.77 116.29 177.87 115.47 178.81 L 114.81 179.57 C 113.99 180.51 114.09 181.94 115.03 182.76 C 115.97 183.58 117.40 183.48 118.22 182.54 Z M 118.89 181.77 L 119.55 181.01 C 120.36 180.06 120.25 178.63 119.31 177.82 C 118.36 177.00 116.93 177.11 116.11 178.06 L 115.46 178.82 C 114.64 179.77 114.75 181.20 115.70 182.01 C 116.65 182.83 118.08 182.72 118.89 181.77 Z M 119.55 181.00 L 120.23 180.21 C 121.04 179.26 120.93 177.83 119.97 177.02 C 119.02 176.21 117.59 176.32 116.78 177.27 L 116.11 178.07 C 115.30 179.02 115.41 180.45 116.36 181.26 C 117.31 182.07 118.74 181.95 119.55 181.00 Z M 120.23 180.20 L 120.91 179.41 C 121.71 178.46 121.59 177.03 120.64 176.22 C 119.69 175.41 118.26 175.53 117.45 176.49 L 116.78 177.28 C 115.97 178.23 116.09 179.66 117.04 180.47 C 118.00 181.28 119.43 181.16 120.23 180.20 Z M 120.91 179.41 L 121.55 178.64 C 122.36 177.69 122.23 176.26 121.28 175.45 C 120.32 174.65 118.89 174.77 118.09 175.73 L 117.44 176.49 C 116.64 177.45 116.76 178.88 117.72 179.68 C 118.68 180.49 120.11 180.36 120.91 179.41 Z M 121.56 178.64 L 122.22 177.84 C 123.03 176.88 122.90 175.46 121.94 174.65 C 120.98 173.85 119.55 173.98 118.75 174.94 L 118.08 175.73 C 117.28 176.69 117.41 178.12 118.37 178.92 C 119.32 179.72 120.75 179.60 121.56 178.64 Z M 122.22 177.84 L 122.92 177.00 C 123.73 176.04 123.60 174.62 122.64 173.81 C 121.68 173.01 120.25 173.14 119.45 174.10 L 118.75 174.94 C 117.95 175.90 118.07 177.32 119.03 178.13 C 119.99 178.93 121.42 178.80 122.22 177.84 Z M 122.92 177.01 L 123.55 176.26 C 124.35 175.31 124.23 173.88 123.27 173.07 C 122.32 172.27 120.89 172.39 120.08 173.35 L 119.46 174.09 C 118.65 175.05 118.77 176.48 119.73 177.28 C 120.69 178.09 122.11 177.96 122.92 177.01 Z M 123.53 176.28 L 124.13 175.59 C 124.94 174.64 124.83 173.21 123.88 172.40 C 122.93 171.58 121.51 171.69 120.69 172.64 L 120.10 173.33 C 119.28 174.28 119.39 175.71 120.34 176.52 C 121.29 177.34 122.72 177.23 123.53 176.28 Z M 124.10 175.61 L 124.69 174.94 C 125.52 174.01 125.43 172.58 124.49 171.75 C 123.56 170.93 122.13 171.02 121.30 171.95 L 120.71 172.62 C 119.89 173.55 119.98 174.98 120.91 175.81 C 121.85 176.63 123.28 176.54 124.10 175.61 Z M 124.67 174.97 L 125.27 174.30 C 126.11 173.38 126.04 171.95 125.11 171.11 C 124.19 170.27 122.76 170.34 121.92 171.27 L 121.32 171.93 C 120.48 172.86 120.55 174.28 121.48 175.12 C 122.40 175.96 123.83 175.89 124.67 174.97 Z M 125.26 174.31 L 125.91 173.60 C 126.75 172.68 126.69 171.26 125.77 170.41 C 124.85 169.57 123.42 169.63 122.58 170.55 L 121.93 171.26 C 121.09 172.18 121.15 173.61 122.07 174.45 C 122.99 175.29 124.42 175.23 125.26 174.31 Z M 125.91 173.60 L 126.63 172.81 C 127.47 171.90 127.40 170.47 126.48 169.63 C 125.57 168.79 124.14 168.85 123.30 169.77 L 122.58 170.56 C 121.74 171.47 121.81 172.90 122.72 173.74 C 123.64 174.58 125.07 174.52 125.91 173.60 Z M 126.63 172.80 L 127.36 172.00 C 128.20 171.07 128.13 169.65 127.20 168.82 C 126.28 167.98 124.86 168.05 124.02 168.98 L 123.29 169.78 C 122.46 170.70 122.53 172.13 123.45 172.96 C 124.37 173.80 125.80 173.73 126.63 172.80 Z M 127.37 171.98 L 127.91 171.38 C 128.74 170.45 128.66 169.03 127.73 168.20 C 126.81 167.38 125.39 167.46 124.56 168.38 L 124.02 168.99 C 123.19 169.91 123.27 171.33 124.19 172.16 C 125.12 172.99 126.54 172.91 127.37 171.98 Z M 127.91 171.37 L 128.50 170.72 C 129.32 169.79 129.24 168.37 128.31 167.54 C 127.38 166.72 125.96 166.81 125.14 167.73 L 124.56 168.39 C 123.73 169.32 123.82 170.74 124.74 171.56 C 125.67 172.38 127.09 172.30 127.91 171.37 Z M 128.50 170.71 L 129.12 170.00 C 129.95 169.07 129.86 167.66 128.93 166.83 C 128.00 166.01 126.58 166.10 125.76 167.03 L 125.14 167.74 C 124.32 168.67 124.40 170.09 125.33 170.91 C 126.26 171.73 127.68 171.64 128.50 170.71 Z M 129.13 170.00 L 129.80 169.23 C 130.62 168.30 130.53 166.89 129.60 166.07 C 128.67 165.25 127.25 165.34 126.43 166.27 L 125.76 167.03 C 124.94 167.96 125.03 169.38 125.96 170.20 C 126.89 171.02 128.31 170.93 129.13 170.00 Z M 129.80 169.23 L 130.52 168.41 C 131.34 167.48 131.25 166.07 130.32 165.25 C 129.39 164.43 127.98 164.52 127.16 165.45 L 126.44 166.27 C 125.62 167.20 125.71 168.62 126.64 169.43 C 127.57 170.25 128.98 170.16 129.80 169.23 Z M 130.52 168.41 L 131.30 167.52 C 132.11 166.60 132.02 165.18 131.09 164.37 C 130.17 163.55 128.75 163.64 127.94 164.57 L 127.16 165.45 C 126.34 166.38 126.44 167.79 127.36 168.61 C 128.29 169.42 129.70 169.33 130.52 168.41 Z M 131.29 167.52 L 132.03 166.69 C 132.84 165.76 132.75 164.35 131.82 163.54 C 130.90 162.72 129.49 162.81 128.67 163.74 L 127.94 164.57 C 127.12 165.50 127.21 166.91 128.14 167.72 C 129.07 168.54 130.48 168.45 131.29 167.52 Z M 132.02 166.69 L 132.68 165.94 C 133.50 165.02 133.41 163.61 132.48 162.79 C 131.56 161.98 130.15 162.07 129.33 162.99 L 128.68 163.74 C 127.86 164.66 127.95 166.07 128.87 166.89 C 129.80 167.70 131.21 167.61 132.02 166.69 Z M 132.68 165.94 L 133.36 165.17 C 134.17 164.25 134.08 162.84 133.16 162.03 C 132.24 161.21 130.83 161.30 130.02 162.22 L 129.34 162.99 C 128.52 163.92 128.61 165.32 129.54 166.14 C 130.46 166.95 131.86 166.86 132.68 165.94 Z M 133.35 165.17 L 134.04 164.38 C 134.85 163.46 134.77 162.06 133.85 161.25 C 132.93 160.44 131.52 160.52 130.71 161.44 L 130.02 162.23 C 129.21 163.15 129.30 164.55 130.22 165.36 C 131.14 166.17 132.54 166.09 133.35 165.17 Z M 134.04 164.38 L 134.73 163.60 C 135.54 162.68 135.46 161.28 134.54 160.47 C 133.62 159.66 132.22 159.74 131.41 160.66 L 130.71 161.45 C 129.90 162.36 129.99 163.76 130.91 164.58 C 131.83 165.39 133.23 165.30 134.04 164.38 Z M 134.73 163.60 L 135.41 162.82 C 136.22 161.91 136.14 160.51 135.22 159.70 C 134.31 158.89 132.91 158.97 132.10 159.89 L 131.41 160.66 C 130.60 161.58 130.69 162.98 131.60 163.79 C 132.52 164.60 133.92 164.51 134.73 163.60 Z M 135.41 162.82 L 136.08 162.06 C 136.89 161.15 136.81 159.75 135.89 158.94 C 134.98 158.13 133.59 158.22 132.78 159.13 L 132.10 159.89 C 131.29 160.80 131.38 162.20 132.29 163.01 C 133.20 163.82 134.60 163.73 135.41 162.82 Z M 136.08 162.06 L 136.73 161.33 C 137.54 160.42 137.45 159.03 136.54 158.22 C 135.63 157.41 134.24 157.49 133.43 158.40 L 132.78 159.13 C 131.97 160.04 132.05 161.44 132.96 162.24 C 133.87 163.05 135.27 162.97 136.08 162.06 Z M 136.72 161.33 L 137.34 160.64 C 138.15 159.73 138.07 158.34 137.16 157.53 C 136.25 156.72 134.86 156.80 134.05 157.71 L 133.43 158.40 C 132.63 159.31 132.71 160.70 133.61 161.51 C 134.52 162.32 135.91 162.24 136.72 161.33 Z M 137.33 160.64 L 138.07 159.81 C 138.88 158.91 138.80 157.52 137.90 156.71 C 136.99 155.90 135.60 155.98 134.80 156.88 L 134.06 157.71 C 133.25 158.61 133.33 160.00 134.23 160.81 C 135.13 161.62 136.52 161.54 137.33 160.64 Z M 138.06 159.81 L 138.84 158.95 C 139.65 158.05 139.57 156.66 138.67 155.85 C 137.78 155.05 136.39 155.12 135.58 156.02 L 134.80 156.89 C 134.00 157.78 134.07 159.17 134.97 159.98 C 135.87 160.78 137.25 160.71 138.06 159.81 Z M 138.83 158.94 L 139.53 158.17 C 140.34 157.27 140.27 155.89 139.37 155.09 C 138.48 154.28 137.10 154.35 136.29 155.24 L 135.59 156.02 C 134.78 156.92 134.86 158.29 135.75 159.10 C 136.64 159.91 138.02 159.84 138.83 158.94 Z M 139.52 158.16 L 140.16 157.46 C 140.97 156.57 140.90 155.19 140.01 154.39 C 139.12 153.58 137.74 153.65 136.94 154.54 L 136.30 155.25 C 135.49 156.14 135.56 157.51 136.45 158.32 C 137.34 159.12 138.72 159.05 139.52 158.16 Z M 140.16 157.45 L 140.75 156.79 C 141.55 155.90 141.48 154.54 140.60 153.73 C 139.71 152.93 138.34 153.00 137.54 153.89 L 136.94 154.55 C 136.14 155.43 136.21 156.80 137.10 157.61 C 137.99 158.41 139.36 158.34 140.16 157.45 Z M 140.75 156.78 L 141.31 156.16 C 142.11 155.27 142.04 153.91 141.15 153.11 C 140.27 152.31 138.90 152.38 138.10 153.27 L 137.54 153.90 C 136.74 154.78 136.82 156.15 137.70 156.95 C 138.59 157.74 139.95 157.67 140.75 156.78 Z M 141.31 156.15 L 141.98 155.41 C 142.77 154.52 142.69 153.16 141.80 152.37 C 140.91 151.58 139.55 151.65 138.76 152.54 L 138.10 153.28 C 137.31 154.17 137.39 155.53 138.28 156.32 C 139.16 157.11 140.52 157.03 141.31 156.15 Z M 141.98 155.40 L 142.67 154.62 C 143.46 153.73 143.37 152.37 142.48 151.58 C 141.59 150.80 140.23 150.88 139.45 151.77 L 138.76 152.55 C 137.97 153.44 138.06 154.80 138.95 155.58 C 139.84 156.37 141.19 156.29 141.98 155.40 Z M 142.67 154.61 L 143.34 153.85 C 144.12 152.96 144.03 151.60 143.14 150.82 C 142.25 150.04 140.89 150.13 140.11 151.02 L 139.45 151.78 C 138.66 152.67 138.75 154.02 139.64 154.81 C 140.53 155.59 141.89 155.50 142.67 154.61 Z M 143.34 153.84 L 143.98 153.12 C 144.76 152.22 144.67 150.87 143.78 150.09 C 142.88 149.31 141.53 149.40 140.75 150.29 L 140.11 151.02 C 139.33 151.91 139.42 153.27 140.31 154.05 C 141.21 154.83 142.56 154.74 143.34 153.84 Z M 143.98 153.11 L 144.60 152.40 C 145.38 151.51 145.29 150.16 144.40 149.38 C 143.51 148.60 142.16 148.69 141.38 149.58 L 140.75 150.29 C 139.97 151.18 140.06 152.54 140.95 153.32 C 141.84 154.09 143.20 154.00 143.98 153.11 Z M 144.60 152.40 L 145.28 151.62 C 146.06 150.74 145.98 149.38 145.09 148.60 C 144.20 147.82 142.85 147.91 142.07 148.80 L 141.38 149.58 C 140.60 150.46 140.69 151.82 141.57 152.60 C 142.46 153.38 143.82 153.29 144.60 152.40 Z M 145.27 151.64 L 145.93 150.90 C 146.72 150.01 146.64 148.66 145.76 147.87 C 144.88 147.08 143.52 147.16 142.74 148.04 L 142.08 148.78 C 141.29 149.67 141.37 151.02 142.25 151.81 C 143.13 152.60 144.49 152.52 145.27 151.64 Z M 145.92 150.92 L 146.57 150.20 C 147.37 149.32 147.31 147.97 146.43 147.17 C 145.56 146.37 144.20 146.43 143.41 147.31 L 142.75 148.03 C 141.95 148.90 142.02 150.26 142.89 151.05 C 143.76 151.85 145.12 151.79 145.92 150.92 Z M 146.55 150.22 L 147.23 149.50 C 148.04 148.64 148.00 147.28 147.13 146.47 C 146.27 145.66 144.91 145.70 144.10 146.56 L 143.43 147.28 C 142.61 148.15 142.66 149.50 143.52 150.32 C 144.38 151.13 145.74 151.09 146.55 150.22 Z M 147.21 149.53 L 147.91 148.80 C 148.74 147.95 148.72 146.59 147.87 145.76 C 147.01 144.94 145.65 144.96 144.83 145.81 L 144.12 146.54 C 143.29 147.39 143.31 148.75 144.17 149.58 C 145.02 150.41 146.38 150.38 147.21 149.53 Z M 147.90 148.83 L 148.61 148.11 C 149.45 147.27 149.45 145.90 148.60 145.06 C 147.76 144.22 146.39 144.22 145.55 145.07 L 144.84 145.79 C 144.00 146.63 144.00 148.00 144.85 148.84 C 145.69 149.68 147.06 149.67 147.90 148.83 Z M 148.60 148.13 L 149.31 147.44 C 150.16 146.60 150.17 145.23 149.33 144.38 C 148.49 143.52 147.12 143.51 146.27 144.35 L 145.56 145.05 C 144.71 145.89 144.70 147.26 145.54 148.11 C 146.38 148.96 147.75 148.97 148.60 148.13 Z M 149.30 147.46 L 150.04 146.75 C 150.90 145.91 150.93 144.54 150.09 143.67 C 149.26 142.81 147.88 142.78 147.02 143.62 L 146.28 144.33 C 145.41 145.17 145.39 146.54 146.22 147.41 C 147.06 148.27 148.43 148.30 149.30 147.46 Z M 150.02 146.78 L 150.76 146.09 C 151.64 145.26 151.68 143.88 150.86 143.00 C 150.04 142.12 148.65 142.07 147.77 142.90 L 147.03 143.59 C 146.15 144.41 146.11 145.79 146.93 146.68 C 147.76 147.56 149.14 147.60 150.02 146.78 Z M 150.73 146.13 L 151.45 145.48 C 152.36 144.67 152.43 143.28 151.63 142.38 C 150.82 141.48 149.43 141.40 148.53 142.21 L 147.80 142.86 C 146.90 143.66 146.82 145.05 147.63 145.95 C 148.44 146.86 149.82 146.94 150.73 146.13 Z M 151.41 145.53 L 152.15 144.90 C 153.08 144.12 153.20 142.73 152.42 141.80 C 151.63 140.87 150.24 140.75 149.31 141.53 L 148.57 142.16 C 147.64 142.94 147.52 144.33 148.31 145.26 C 149.09 146.19 150.48 146.31 151.41 145.53 Z M 152.10 144.96 L 152.88 144.34 C 153.84 143.59 154.00 142.20 153.25 141.24 C 152.50 140.28 151.11 140.11 150.15 140.87 L 149.37 141.48 C 148.41 142.23 148.24 143.62 148.99 144.58 C 149.75 145.54 151.14 145.71 152.10 144.96 Z M 152.81 144.40 L 153.62 143.81 C 154.61 143.09 154.83 141.71 154.11 140.72 C 153.40 139.73 152.01 139.51 151.02 140.23 L 150.21 140.81 C 149.22 141.53 149.00 142.92 149.72 143.91 C 150.44 144.90 151.82 145.12 152.81 144.40 Z M 153.56 143.86 L 154.39 143.30 C 155.41 142.62 155.69 141.24 155.00 140.22 C 154.32 139.21 152.95 138.93 151.93 139.61 L 151.09 140.18 C 150.07 140.86 149.80 142.23 150.48 143.25 C 151.16 144.27 152.54 144.54 153.56 143.86 Z M 154.31 143.36 L 155.16 142.85 C 156.21 142.21 156.55 140.85 155.92 139.80 C 155.29 138.74 153.92 138.40 152.87 139.04 L 152.01 139.55 C 150.96 140.19 150.62 141.55 151.26 142.61 C 151.89 143.66 153.26 144.00 154.31 143.36 Z M 155.02 142.94 L 155.91 142.49 C 157.01 141.93 157.46 140.59 156.91 139.49 C 156.35 138.39 155.01 137.95 153.91 138.50 L 153.01 138.95 C 151.91 139.50 151.47 140.84 152.02 141.95 C 152.57 143.05 153.91 143.49 155.02 142.94 Z M 155.69 142.59 L 156.63 142.25 C 157.79 141.82 158.38 140.53 157.95 139.37 C 157.52 138.21 156.23 137.62 155.07 138.05 L 154.14 138.39 C 152.97 138.82 152.38 140.11 152.81 141.27 C 153.24 142.43 154.53 143.02 155.69 142.59 Z M 156.34 142.34 L 157.31 142.12 C 158.52 141.85 159.29 140.65 159.02 139.44 C 158.75 138.23 157.55 137.47 156.34 137.74 L 155.36 137.95 C 154.15 138.22 153.39 139.42 153.66 140.63 C 153.93 141.85 155.13 142.61 156.34 142.34 Z M 157.08 142.17 L 158.08 142.06 C 159.32 141.92 160.20 140.80 160.06 139.56 C 159.92 138.32 158.81 137.44 157.57 137.58 L 156.57 137.69 C 155.33 137.83 154.45 138.95 154.59 140.18 C 154.73 141.42 155.84 142.31 157.08 142.17 Z M 157.93 142.08 L 158.93 142.03 C 160.18 141.97 161.14 140.91 161.08 139.66 C 161.02 138.41 159.96 137.45 158.71 137.51 L 157.71 137.56 C 156.47 137.62 155.50 138.68 155.56 139.93 C 155.62 141.17 156.69 142.14 157.93 142.08 Z M 158.86 142.04 L 159.87 142.02 C 161.12 141.99 162.12 140.96 162.09 139.70 C 162.07 138.45 161.03 137.45 159.78 137.48 L 158.78 137.50 C 157.52 137.52 156.53 138.56 156.55 139.81 C 156.57 141.07 157.61 142.06 158.86 142.04 Z M 159.80 142.03 L 160.79 142.04 C 162.05 142.06 163.09 141.05 163.10 139.79 C 163.12 138.53 162.11 137.50 160.85 137.48 L 159.85 137.47 C 158.59 137.45 157.56 138.46 157.54 139.72 C 157.53 140.98 158.54 142.01 159.80 142.03 Z M 160.66 142.05 L 161.65 142.12 C 162.91 142.20 164.01 141.25 164.10 139.99 C 164.19 138.73 163.23 137.63 161.97 137.55 L 160.98 137.48 C 159.72 137.39 158.62 138.34 158.54 139.60 C 158.45 140.86 159.40 141.96 160.66 142.05 Z M 161.47 142.11 L 162.45 142.25 C 163.71 142.44 164.88 141.57 165.07 140.32 C 165.25 139.06 164.39 137.89 163.13 137.70 L 162.15 137.56 C 160.89 137.37 159.72 138.24 159.54 139.49 C 159.35 140.75 160.22 141.92 161.47 142.11 Z M 162.28 142.22 L 163.26 142.45 C 164.50 142.73 165.73 141.95 166.01 140.71 C 166.30 139.47 165.52 138.23 164.28 137.95 L 163.30 137.73 C 162.06 137.45 160.83 138.22 160.54 139.47 C 160.26 140.71 161.04 141.94 162.28 142.22 Z M 163.12 142.42 L 164.09 142.70 C 165.32 143.05 166.60 142.35 166.95 141.12 C 167.31 139.90 166.60 138.61 165.38 138.26 L 164.41 137.98 C 163.18 137.62 161.90 138.33 161.55 139.55 C 161.19 140.78 161.90 142.06 163.12 142.42 Z M 163.99 142.67 L 164.92 142.98 C 166.13 143.39 167.44 142.75 167.85 141.54 C 168.26 140.33 167.61 139.01 166.40 138.60 L 165.48 138.29 C 164.27 137.88 162.95 138.53 162.54 139.74 C 162.13 140.94 162.78 142.26 163.99 142.67 Z M 164.85 142.96 L 165.72 143.28 C 166.91 143.73 168.25 143.13 168.70 141.93 C 169.14 140.73 168.54 139.40 167.34 138.95 L 166.47 138.63 C 165.28 138.18 163.94 138.78 163.49 139.98 C 163.05 141.18 163.65 142.51 164.85 142.96 Z M 165.68 143.27 L 166.59 143.63 C 167.78 144.10 169.12 143.51 169.59 142.32 C 170.06 141.14 169.47 139.79 168.28 139.32 L 167.38 138.96 C 166.19 138.50 164.84 139.08 164.37 140.27 C 163.91 141.46 164.49 142.80 165.68 143.27 Z M 166.58 143.63 L 167.58 144.02 C 168.77 144.50 170.11 143.92 170.59 142.73 C 171.06 141.54 170.48 140.19 169.29 139.72 L 168.29 139.32 C 167.10 138.85 165.76 139.43 165.28 140.62 C 164.81 141.81 165.39 143.15 166.58 143.63 Z M 167.59 144.03 L 168.54 144.40 C 169.73 144.86 171.07 144.28 171.54 143.08 C 172.00 141.89 171.41 140.55 170.22 140.09 L 169.28 139.72 C 168.09 139.25 166.74 139.84 166.28 141.03 C 165.81 142.22 166.40 143.56 167.59 144.03 Z M 168.54 144.40 L 169.49 144.77 C 170.68 145.23 172.02 144.64 172.48 143.45 C 172.95 142.25 172.35 140.91 171.16 140.45 L 170.22 140.08 C 169.02 139.62 167.68 140.21 167.22 141.41 C 166.76 142.60 167.35 143.94 168.54 144.40 Z M 169.48 144.76 L 170.44 145.14 C 171.63 145.61 172.98 145.02 173.45 143.83 C 173.91 142.64 173.33 141.30 172.14 140.83 L 171.17 140.45 C 169.98 139.98 168.64 140.57 168.17 141.76 C 167.70 142.95 168.29 144.30 169.48 144.76 Z M 170.42 145.13 L 171.36 145.52 C 172.55 146.00 173.90 145.43 174.38 144.24 C 174.86 143.05 174.29 141.70 173.10 141.22 L 172.16 140.84 C 170.97 140.36 169.62 140.93 169.14 142.12 C 168.66 143.30 169.23 144.65 170.42 145.13 Z M 171.32 145.50 L 172.23 145.89 C 173.41 146.40 174.77 145.85 175.28 144.68 C 175.78 143.50 175.24 142.14 174.06 141.63 L 173.15 141.24 C 171.97 140.73 170.61 141.28 170.10 142.45 C 169.60 143.63 170.14 144.99 171.32 145.50 Z M 172.15 145.86 L 173.14 146.33 C 174.30 146.88 175.69 146.39 176.24 145.23 C 176.79 144.07 176.29 142.68 175.13 142.14 L 174.14 141.66 C 172.98 141.11 171.60 141.61 171.05 142.77 C 170.50 143.93 170.99 145.31 172.15 145.86 Z M 173.04 146.28 L 173.90 146.75 C 175.03 147.36 176.45 146.93 177.05 145.80 C 177.66 144.67 177.24 143.26 176.11 142.65 L 175.24 142.18 C 174.11 141.57 172.70 142.00 172.09 143.13 C 171.48 144.26 171.90 145.67 173.04 146.28 Z M 173.79 146.69 L 174.57 147.17 C 175.67 147.84 177.11 147.50 177.78 146.40 C 178.45 145.30 178.11 143.86 177.01 143.19 L 176.22 142.71 C 175.12 142.04 173.69 142.38 173.02 143.48 C 172.34 144.58 172.69 146.02 173.79 146.69 Z M 174.46 147.10 L 175.26 147.65 C 176.32 148.39 177.78 148.12 178.51 147.06 C 179.24 146.00 178.98 144.54 177.92 143.81 L 177.12 143.26 C 176.06 142.52 174.60 142.79 173.87 143.85 C 173.13 144.91 173.40 146.37 174.46 147.10 Z M 175.16 147.58 L 175.95 148.19 C 176.97 148.99 178.44 148.80 179.23 147.78 C 180.02 146.75 179.84 145.28 178.81 144.49 L 178.02 143.88 C 177.00 143.09 175.53 143.28 174.74 144.30 C 173.95 145.32 174.14 146.79 175.16 147.58 Z M 175.85 148.12 L 176.60 148.77 C 177.58 149.61 179.06 149.51 179.91 148.53 C 180.75 147.55 180.65 146.07 179.67 145.23 L 178.91 144.57 C 177.94 143.73 176.46 143.83 175.61 144.81 C 174.76 145.79 174.87 147.27 175.85 148.12 Z M 176.51 148.68 L 177.22 149.37 C 178.15 150.27 179.64 150.25 180.54 149.32 C 181.44 148.39 181.41 146.90 180.48 146.00 L 179.77 145.31 C 178.84 144.41 177.35 144.44 176.45 145.37 C 175.55 146.30 175.58 147.78 176.51 148.68 Z M 177.12 149.27 L 177.79 150.01 C 178.67 150.96 180.15 151.03 181.11 150.15 C 182.06 149.28 182.13 147.79 181.25 146.84 L 180.58 146.10 C 179.71 145.15 178.22 145.08 177.27 145.96 C 176.31 146.83 176.25 148.32 177.12 149.27 Z M 177.69 149.89 L 178.31 150.67 C 179.12 151.68 180.60 151.85 181.61 151.04 C 182.62 150.23 182.79 148.75 181.98 147.74 L 181.36 146.96 C 180.55 145.94 179.07 145.78 178.06 146.59 C 177.05 147.40 176.88 148.87 177.69 149.89 Z M 178.21 150.53 L 178.77 151.35 C 179.50 152.42 180.97 152.69 182.04 151.95 C 183.11 151.22 183.38 149.76 182.64 148.69 L 182.08 147.87 C 181.35 146.80 179.88 146.53 178.82 147.27 C 177.75 148.00 177.47 149.46 178.21 150.53 Z M 178.68 151.21 L 179.18 152.05 C 179.84 153.17 181.28 153.55 182.40 152.89 C 183.52 152.23 183.89 150.79 183.23 149.67 L 182.73 148.82 C 182.07 147.70 180.63 147.33 179.51 147.99 C 178.39 148.65 178.02 150.09 178.68 151.21 Z M 179.10 151.92 L 179.55 152.82 C 180.14 153.98 181.56 154.45 182.72 153.86 C 183.88 153.27 184.35 151.86 183.76 150.69 L 183.31 149.80 C 182.72 148.64 181.30 148.17 180.14 148.76 C 178.98 149.34 178.51 150.76 179.10 151.92 Z M 179.49 152.69 L 179.90 153.64 C 180.41 154.84 181.80 155.39 183.00 154.87 C 184.20 154.36 184.75 152.97 184.23 151.77 L 183.82 150.82 C 183.31 149.62 181.92 149.07 180.72 149.59 C 179.52 150.11 178.97 151.50 179.49 152.69 Z M 179.85 153.53 L 180.20 154.47 C 180.65 155.69 182.01 156.32 183.23 155.86 C 184.46 155.41 185.08 154.05 184.63 152.83 L 184.28 151.89 C 183.83 150.66 182.47 150.04 181.25 150.49 C 180.02 150.94 179.40 152.30 179.85 153.53 Z M 180.16 154.36 L 180.47 155.33 C 180.86 156.57 182.19 157.26 183.44 156.86 C 184.68 156.47 185.37 155.14 184.97 153.89 L 184.67 152.93 C 184.27 151.69 182.94 151.00 181.70 151.40 C 180.45 151.79 179.76 153.12 180.16 154.36 Z M 180.44 155.23 L 180.70 156.19 C 181.05 157.45 182.35 158.20 183.60 157.85 C 184.86 157.51 185.61 156.21 185.26 154.95 L 185.00 153.99 C 184.66 152.73 183.36 151.99 182.10 152.33 C 180.84 152.67 180.10 153.97 180.44 155.23 Z M 180.68 156.10 L 180.89 157.04 C 181.18 158.31 182.45 159.10 183.72 158.81 C 185.00 158.52 185.79 157.25 185.50 155.98 L 185.29 155.04 C 185.00 153.77 183.73 152.98 182.45 153.27 C 181.18 153.56 180.39 154.83 180.68 156.10 Z M 180.87 156.94 L 181.04 157.87 C 181.28 159.15 182.51 160.00 183.79 159.77 C 185.08 159.53 185.93 158.30 185.69 157.01 L 185.52 156.08 C 185.29 154.80 184.05 153.95 182.77 154.18 C 181.49 154.42 180.64 155.65 180.87 156.94 Z M 181.03 157.77 L 181.16 158.75 C 181.35 160.05 182.54 160.95 183.84 160.77 C 185.13 160.58 186.03 159.39 185.85 158.09 L 185.71 157.11 C 185.53 155.82 184.33 154.92 183.04 155.10 C 181.75 155.28 180.84 156.48 181.03 157.77 Z M 181.16 158.67 L 181.27 159.75 C 181.41 161.05 182.57 161.99 183.87 161.85 C 185.17 161.71 186.11 160.55 185.97 159.25 L 185.86 158.17 C 185.72 156.87 184.55 155.93 183.26 156.07 C 181.96 156.21 181.02 157.38 181.16 158.67 Z M 181.27 159.70 L 181.34 160.64 C 181.46 161.94 182.60 162.91 183.90 162.79 C 185.20 162.68 186.17 161.54 186.06 160.24 L 185.98 159.30 C 185.87 158.00 184.72 157.03 183.42 157.14 C 182.12 157.26 181.15 158.40 181.27 159.70 Z M 181.34 160.61 L 181.41 161.61 C 181.51 162.91 182.64 163.89 183.94 163.80 C 185.24 163.70 186.22 162.57 186.13 161.27 L 186.06 160.27 C 185.97 158.97 184.84 157.99 183.53 158.08 C 182.23 158.17 181.25 159.30 181.34 160.61 Z M 181.41 161.58 L 181.47 162.61 C 181.55 163.91 182.67 164.90 183.97 164.83 C 185.27 164.75 186.27 163.63 186.19 162.33 L 186.13 161.30 C 186.06 160.00 184.94 159.00 183.63 159.08 C 182.33 159.15 181.34 160.27 181.41 161.58 Z M 181.47 162.58 L 181.52 163.60 C 181.58 164.91 182.69 165.92 183.99 165.86 C 185.29 165.80 186.30 164.69 186.24 163.38 L 186.19 162.36 C 186.13 161.05 185.03 160.05 183.72 160.11 C 182.42 160.17 181.41 161.27 181.47 162.58 Z M 181.52 163.57 L 181.55 164.62 C 181.60 165.92 182.69 166.94 184.00 166.90 C 185.30 166.86 186.32 165.76 186.28 164.46 L 186.24 163.41 C 186.20 162.11 185.10 161.09 183.80 161.13 C 182.49 161.18 181.47 162.27 181.52 163.57 Z M 181.55 164.59 L 181.57 165.63 C 181.60 166.94 182.68 167.97 183.99 167.94 C 185.29 167.92 186.33 166.84 186.30 165.53 L 186.28 164.49 C 186.25 163.18 185.17 162.15 183.87 162.17 C 182.56 162.20 181.52 163.28 181.55 164.59 Z M 181.57 165.60 L 181.58 166.60 C 181.60 167.91 182.67 168.95 183.97 168.94 C 185.28 168.93 186.32 167.86 186.31 166.55 L 186.30 165.56 C 186.29 164.25 185.22 163.20 183.91 163.22 C 182.61 163.23 181.56 164.30 181.57 165.60 Z M 181.58 166.58 L 181.59 167.54 C 181.59 168.85 182.65 169.90 183.96 169.90 C 185.26 169.90 186.32 168.83 186.31 167.53 L 186.31 166.57 C 186.31 165.26 185.25 164.21 183.94 164.21 C 182.63 164.22 181.58 165.28 181.58 166.58 Z M 181.59 167.54 L 181.59 168.50 C 181.59 169.81 182.65 170.86 183.95 170.86 C 185.26 170.86 186.31 169.80 186.31 168.50 L 186.31 167.54 C 186.31 166.23 185.26 165.17 183.95 165.17 C 182.64 165.17 181.59 166.23 181.59 167.54 Z M 181.58 168.50 L 181.58 169.50 C 181.58 170.81 182.64 171.86 183.95 171.86 C 185.26 171.86 186.32 170.81 186.32 169.50 L 186.32 168.50 C 186.32 167.19 185.26 166.13 183.95 166.13 C 182.64 166.13 181.58 167.19 181.58 168.50 Z M 181.58 169.50 L 181.58 170.49 C 181.58 171.80 182.64 172.86 183.95 172.86 C 185.26 172.86 186.32 171.80 186.32 170.49 L 186.32 169.50 C 186.32 168.19 185.26 167.13 183.95 167.13 C 182.64 167.13 181.58 168.19 181.58 169.50 Z M 181.58 170.49 L 181.58 171.49 C 181.58 172.80 182.64 173.86 183.95 173.86 C 185.26 173.86 186.32 172.80 186.32 171.49 L 186.32 170.49 C 186.32 169.18 185.26 168.12 183.95 168.12 C 182.64 168.12 181.58 169.18 181.58 170.49 Z M 181.58 171.49 L 181.58 172.51 C 181.58 173.81 182.64 174.88 183.95 174.88 C 185.26 174.88 186.32 173.82 186.32 172.51 L 186.32 171.49 C 186.32 170.18 185.26 169.12 183.95 169.12 C 182.64 169.12 181.58 170.18 181.58 171.49 Z M 181.58 172.50 L 181.58 173.52 C 181.58 174.83 182.64 175.90 183.94 175.90 C 185.25 175.90 186.32 174.84 186.32 173.53 L 186.32 172.51 C 186.32 171.20 185.26 170.14 183.95 170.14 C 182.64 170.13 181.58 171.19 181.58 172.50 Z M 181.58 173.51 L 181.57 174.52 C 181.56 175.83 182.62 176.90 183.93 176.91 C 185.24 176.92 186.31 175.86 186.31 174.55 L 186.32 173.54 C 186.33 172.23 185.27 171.16 183.96 171.16 C 182.65 171.15 181.58 172.20 181.58 173.51 Z M 181.57 174.51 L 181.56 175.48 C 181.54 176.79 182.59 177.86 183.90 177.88 C 185.21 177.90 186.28 176.85 186.30 175.54 L 186.31 174.57 C 186.33 173.26 185.28 172.18 183.97 172.17 C 182.66 172.15 181.59 173.20 181.57 174.51 Z M 181.56 175.45 L 181.53 176.43 C 181.50 177.74 182.53 178.83 183.84 178.87 C 185.15 178.90 186.24 177.87 186.27 176.56 L 186.30 175.58 C 186.34 174.27 185.30 173.17 183.99 173.14 C 182.68 173.10 181.59 174.14 181.56 175.45 Z M 181.53 176.36 L 181.48 177.33 C 181.40 178.64 182.40 179.76 183.71 179.84 C 185.01 179.91 186.14 178.91 186.21 177.61 L 186.27 176.64 C 186.35 175.33 185.35 174.20 184.04 174.13 C 182.73 174.05 181.61 175.05 181.53 176.36 Z M 181.49 177.20 L 181.38 178.19 C 181.23 179.49 182.17 180.67 183.47 180.81 C 184.78 180.95 185.95 180.02 186.09 178.71 L 186.20 177.73 C 186.35 176.43 185.41 175.25 184.11 175.11 C 182.80 174.96 181.63 175.90 181.49 177.20 Z M 181.40 178.05 L 181.23 179.02 C 181.01 180.31 181.87 181.54 183.16 181.76 C 184.46 181.99 185.68 181.12 185.91 179.83 L 186.07 178.86 C 186.30 177.56 185.43 176.34 184.14 176.11 C 182.85 175.89 181.62 176.76 181.40 178.05 Z M 181.25 178.90 L 181.06 179.77 C 180.77 181.05 181.57 182.32 182.84 182.61 C 184.12 182.90 185.39 182.10 185.68 180.82 L 185.88 179.95 C 186.17 178.67 185.37 177.40 184.09 177.11 C 182.82 176.82 181.55 177.62 181.25 178.90 Z M 181.08 179.67 L 180.83 180.60 C 180.48 181.86 181.22 183.17 182.49 183.51 C 183.75 183.86 185.06 183.12 185.40 181.85 L 185.66 180.92 C 186.00 179.66 185.26 178.35 184.00 178.01 C 182.73 177.66 181.43 178.40 181.08 179.67 Z M 180.85 180.50 L 180.54 181.49 C 180.14 182.74 180.83 184.08 182.08 184.48 C 183.32 184.87 184.66 184.18 185.06 182.94 L 185.37 181.95 C 185.77 180.70 185.08 179.36 183.84 178.96 C 182.59 178.57 181.25 179.26 180.85 180.50 Z M 180.57 181.41 L 180.19 182.46 C 179.74 183.69 180.38 185.05 181.61 185.50 C 182.84 185.94 184.20 185.31 184.65 184.07 L 185.03 183.02 C 185.47 181.79 184.84 180.43 183.61 179.98 C 182.37 179.54 181.01 180.18 180.57 181.41 Z M 180.22 182.39 L 179.84 183.33 C 179.35 184.55 179.94 185.93 181.16 186.41 C 182.38 186.90 183.75 186.31 184.24 185.09 L 184.62 184.15 C 185.11 182.93 184.51 181.55 183.30 181.07 C 182.08 180.58 180.70 181.17 180.22 182.39 Z M 179.87 183.27 L 179.46 184.20 C 178.94 185.40 179.50 186.79 180.70 187.31 C 181.90 187.83 183.29 187.28 183.81 186.08 L 184.21 185.15 C 184.73 183.95 184.18 182.56 182.98 182.04 C 181.78 181.52 180.39 182.07 179.87 183.27 Z M 179.49 184.14 L 179.06 185.08 C 178.51 186.26 179.02 187.67 180.21 188.22 C 181.39 188.77 182.80 188.25 183.35 187.07 L 183.78 186.14 C 184.33 184.95 183.82 183.55 182.63 183.00 C 181.45 182.44 180.04 182.96 179.49 184.14 Z M 179.09 185.02 L 178.64 185.93 C 178.05 187.10 178.53 188.52 179.70 189.10 C 180.86 189.68 182.28 189.21 182.86 188.04 L 183.32 187.13 C 183.90 185.96 183.43 184.54 182.26 183.96 C 181.09 183.38 179.67 183.85 179.09 185.02 Z M 178.67 185.87 L 178.20 186.74 C 177.58 187.89 178.01 189.32 179.16 189.94 C 180.31 190.55 181.74 190.12 182.36 188.98 L 182.83 188.10 C 183.45 186.96 183.02 185.52 181.87 184.91 C 180.72 184.29 179.29 184.72 178.67 185.87 Z M 178.25 186.67 L 177.74 187.53 C 177.09 188.65 177.46 190.09 178.58 190.75 C 179.70 191.41 181.14 191.03 181.80 189.91 L 182.31 189.05 C 182.97 187.93 182.59 186.49 181.47 185.83 C 180.35 185.17 178.91 185.55 178.25 186.67 Z M 177.83 187.44 L 177.24 188.34 C 176.53 189.41 176.83 190.85 177.90 191.56 C 178.98 192.27 180.42 191.97 181.13 190.90 L 181.72 190.00 C 182.42 188.93 182.13 187.48 181.05 186.78 C 179.98 186.07 178.53 186.37 177.83 187.44 Z M 177.35 188.24 L 176.75 189.04 C 175.99 190.05 176.19 191.49 177.20 192.25 C 178.21 193.01 179.65 192.81 180.41 191.80 L 181.01 190.99 C 181.78 189.98 181.57 188.55 180.56 187.79 C 179.55 187.02 178.11 187.23 177.35 188.24 Z M 176.87 188.94 L 176.25 189.67 C 175.43 190.61 175.54 192.04 176.48 192.85 C 177.42 193.67 178.85 193.56 179.66 192.62 L 180.29 191.89 C 181.10 190.95 181.00 189.52 180.05 188.71 C 179.11 187.90 177.69 188.00 176.87 188.94 Z M 176.38 189.58 L 175.72 190.25 C 174.85 191.12 174.86 192.53 175.73 193.39 C 176.60 194.25 178.01 194.24 178.87 193.37 L 179.53 192.71 C 180.39 191.83 180.39 190.43 179.52 189.57 C 178.64 188.71 177.24 188.71 176.38 189.58 Z M 175.86 190.19 L 175.12 190.84 C 174.23 191.63 174.14 193.00 174.93 193.89 C 175.73 194.79 177.09 194.87 177.99 194.08 L 178.72 193.43 C 179.62 192.64 179.71 191.28 178.91 190.38 C 178.12 189.48 176.76 189.40 175.86 190.19 Z M 175.29 190.81 L 174.50 191.41 C 173.59 192.11 173.41 193.42 174.11 194.33 C 174.81 195.25 176.11 195.42 177.03 194.72 L 177.82 194.12 C 178.74 193.42 178.91 192.11 178.21 191.20 C 177.51 190.28 176.21 190.11 175.29 190.81 Z M 174.68 191.39 L 173.84 191.93 C 172.91 192.53 172.65 193.77 173.25 194.70 C 173.84 195.62 175.08 195.89 176.01 195.29 L 176.85 194.75 C 177.78 194.15 178.04 192.91 177.44 191.98 C 176.84 191.05 175.60 190.79 174.68 191.39 Z M 174.02 191.92 L 173.14 192.39 C 172.20 192.89 171.85 194.05 172.35 194.98 C 172.85 195.92 174.01 196.27 174.94 195.77 L 175.82 195.30 C 176.76 194.80 177.11 193.64 176.61 192.71 C 176.12 191.78 174.96 191.42 174.02 191.92 Z M 173.32 192.39 L 172.41 192.77 C 171.47 193.17 171.03 194.25 171.43 195.19 C 171.82 196.12 172.90 196.56 173.84 196.17 L 174.75 195.78 C 175.69 195.38 176.13 194.30 175.73 193.37 C 175.34 192.43 174.26 191.99 173.32 192.39 Z M 172.56 192.77 L 171.62 193.08 C 170.68 193.40 170.17 194.41 170.49 195.35 C 170.80 196.28 171.81 196.79 172.75 196.48 L 173.69 196.17 C 174.62 195.86 175.13 194.84 174.82 193.91 C 174.51 192.97 173.50 192.46 172.56 192.77 Z M 171.73 193.10 L 170.76 193.36 C 169.83 193.61 169.29 194.57 169.54 195.50 C 169.79 196.43 170.74 196.97 171.67 196.72 L 172.64 196.46 C 173.57 196.21 174.12 195.26 173.86 194.33 C 173.61 193.40 172.66 192.85 171.73 193.10 Z M 170.83 193.39 L 169.85 193.62 C 168.94 193.83 168.37 194.74 168.58 195.65 C 168.80 196.57 169.71 197.13 170.62 196.92 L 171.60 196.69 C 172.51 196.48 173.08 195.57 172.87 194.66 C 172.66 193.75 171.75 193.18 170.83 193.39 Z M 169.89 193.65 L 169.13 193.82 C 168.24 194.01 167.67 194.89 167.86 195.78 C 168.06 196.68 168.94 197.24 169.83 197.05 L 170.59 196.89 C 171.48 196.69 172.05 195.81 171.85 194.92 C 171.66 194.03 170.78 193.46 169.89 193.65 Z"
      fill="black"
      fill-rule="nonzero" /></svg>