<svg xmlns="http://www.w3.org/2000/svg" width="300" height="300" viewBox="0 0 300 300">
<path d="M 137.26 132.01 L 138.02 132.50 C 139.11 133.21 140.56 132.90 141.27 131.81 C 141.97 130.72 141.66 129.27 140.57 128.56 L 139.82 128.07 C 138.73 127.37 137.27 127.68 136.57 128.76 C 135.86 129.85 136.17 131.30 137.26 132.01 Z M 138.16 132.59 L 138.99 133.05 C 140.12 133.67 141.55 133.26 142.18 132.12 C 142.81 130.99 142.39 129.56 141.26 128.93 L 140.43 128.48 C 139.30 127.85 137.87 128.26 137.24 129.40 C 136.61 130.53 137.03 131.96 138.16 132.59 Z M 139.25 133.17 L 140.21 133.56 C 141.41 134.04 142.78 133.45 143.26 132.25 C 143.75 131.04 143.16 129.67 141.95 129.19 L 141.00 128.81 C 139.79 128.32 138.42 128.91 137.94 130.12 C 137.46 131.32 138.04 132.69 139.25 133.17 Z M 140.52 133.66 L 141.55 133.91 C 142.82 134.22 144.09 133.45 144.40 132.19 C 144.71 130.92 143.94 129.65 142.68 129.34 L 141.64 129.09 C 140.38 128.78 139.10 129.55 138.79 130.81 C 138.49 132.07 139.26 133.35 140.52 133.66 Z M 141.79 133.96 L 142.68 134.08 C 143.97 134.26 145.16 133.36 145.33 132.07 C 145.51 130.78 144.61 129.59 143.32 129.42 L 142.44 129.29 C 141.15 129.12 139.96 130.02 139.78 131.31 C 139.61 132.59 140.51 133.78 141.79 133.96 Z M 142.83 134.10 L 143.79 134.17 C 145.09 134.27 146.22 133.29 146.32 132.00 C 146.41 130.70 145.44 129.57 144.14 129.47 L 143.18 129.40 C 141.88 129.30 140.75 130.28 140.65 131.57 C 140.55 132.87 141.53 134.00 142.83 134.10 Z M 143.90 134.18 L 144.92 134.21 C 146.23 134.25 147.31 133.22 147.35 131.92 C 147.39 130.62 146.37 129.53 145.06 129.49 L 144.04 129.46 C 142.74 129.43 141.65 130.45 141.61 131.75 C 141.57 133.05 142.60 134.14 143.90 134.18 Z M 145.00 134.21 L 146.06 134.21 C 147.36 134.20 148.42 133.14 148.41 131.84 C 148.41 130.54 147.35 129.49 146.05 129.49 L 144.99 129.49 C 143.69 129.50 142.63 130.55 142.64 131.86 C 142.64 133.16 143.70 134.21 145.00 134.21 Z M 146.12 134.21 L 147.19 134.18 C 148.50 134.15 149.52 133.06 149.49 131.76 C 149.46 130.46 148.37 129.43 147.07 129.46 L 145.99 129.49 C 144.69 129.52 143.66 130.61 143.70 131.91 C 143.73 133.21 144.81 134.24 146.12 134.21 Z M 147.23 134.18 L 148.30 134.13 C 149.60 134.08 150.61 132.98 150.56 131.67 C 150.50 130.37 149.40 129.36 148.10 129.42 L 147.03 129.46 C 145.73 129.52 144.72 130.62 144.77 131.92 C 144.83 133.22 145.93 134.23 147.23 134.18 Z M 148.33 134.13 L 149.38 134.07 C 150.68 134.00 151.68 132.89 151.61 131.59 C 151.53 130.29 150.42 129.29 149.12 129.36 L 148.07 129.42 C 146.77 129.49 145.78 130.60 145.85 131.90 C 145.92 133.20 147.03 134.20 148.33 134.13 Z M 149.41 134.06 L 150.43 134.00 C 151.73 133.91 152.71 132.79 152.63 131.50 C 152.54 130.20 151.42 129.22 150.12 129.30 L 149.10 129.37 C 147.80 129.45 146.82 130.57 146.91 131.87 C 146.99 133.17 148.11 134.15 149.41 134.06 Z M 150.45 133.99 L 151.44 133.92 C 152.73 133.83 153.70 132.70 153.61 131.41 C 153.51 130.11 152.39 129.14 151.09 129.23 L 150.11 129.31 C 148.81 129.40 147.84 130.53 147.93 131.82 C 148.03 133.11 149.15 134.09 150.45 133.99 Z M 151.45 133.92 L 152.39 133.84 C 153.68 133.74 154.65 132.62 154.55 131.32 C 154.45 130.03 153.32 129.07 152.03 129.17 L 151.08 129.24 C 149.79 129.34 148.83 130.47 148.93 131.76 C 149.03 133.05 150.15 134.02 151.45 133.92 Z M 152.39 133.84 L 153.33 133.76 C 154.61 133.66 155.58 132.53 155.47 131.25 C 155.37 129.96 154.24 129.00 152.96 129.10 L 152.02 129.17 C 150.74 129.27 149.77 130.40 149.88 131.69 C 149.98 132.98 151.11 133.94 152.39 133.84 Z M 153.32 133.75 L 154.31 133.67 C 155.59 133.57 156.55 132.45 156.44 131.17 C 156.34 129.89 155.22 128.93 153.94 129.04 L 152.96 129.11 C 151.68 129.21 150.72 130.33 150.82 131.61 C 150.92 132.89 152.04 133.85 153.32 133.75 Z M 154.30 133.65 L 155.26 133.58 C 156.53 133.48 157.48 132.37 157.38 131.10 C 157.28 129.83 156.18 128.88 154.91 128.98 L 153.95 129.06 C 152.68 129.15 151.73 130.26 151.83 131.53 C 151.93 132.80 153.04 133.75 154.30 133.65 Z M 155.26 133.55 L 156.23 133.48 C 157.49 133.38 158.43 132.29 158.33 131.03 C 158.24 129.78 157.14 128.83 155.88 128.93 L 154.91 129.00 C 153.66 129.10 152.71 130.20 152.81 131.45 C 152.91 132.71 154.00 133.65 155.26 133.55 Z M 156.23 133.46 L 157.25 133.38 C 158.50 133.29 159.43 132.21 159.34 130.96 C 159.24 129.72 158.16 128.78 156.91 128.88 L 155.89 128.95 C 154.64 129.04 153.71 130.13 153.80 131.37 C 153.90 132.62 154.98 133.55 156.23 133.46 Z M 157.25 133.36 L 158.26 133.29 C 159.49 133.20 160.42 132.12 160.33 130.89 C 160.24 129.66 159.17 128.73 157.93 128.82 L 156.92 128.90 C 155.69 128.99 154.76 130.06 154.85 131.29 C 154.94 132.53 156.01 133.45 157.25 133.36 Z M 158.26 133.26 L 159.25 133.19 C 160.47 133.10 161.39 132.04 161.30 130.82 C 161.22 129.60 160.16 128.69 158.94 128.77 L 157.94 128.85 C 156.72 128.93 155.80 129.99 155.89 131.21 C 155.98 132.43 157.04 133.35 158.26 133.26 Z M 159.25 133.17 L 160.28 133.10 C 161.48 133.01 162.40 131.97 162.31 130.76 C 162.23 129.55 161.18 128.64 159.98 128.73 L 158.94 128.80 C 157.74 128.88 156.83 129.93 156.91 131.13 C 156.99 132.34 158.04 133.25 159.25 133.17 Z M 160.27 133.08 L 161.30 133.01 C 162.50 132.93 163.40 131.90 163.32 130.70 C 163.25 129.51 162.21 128.60 161.02 128.68 L 159.99 128.75 C 158.79 128.83 157.88 129.86 157.96 131.05 C 158.04 132.25 159.07 133.15 160.27 133.08 Z M 161.29 132.99 L 162.29 132.93 C 163.48 132.86 164.38 131.84 164.31 130.66 C 164.24 129.47 163.22 128.57 162.04 128.64 L 161.03 128.70 C 159.85 128.77 158.95 129.79 159.02 130.97 C 159.09 132.15 160.10 133.06 161.29 132.99 Z M 162.27 132.90 L 163.22 132.86 C 164.40 132.80 165.30 131.80 165.24 130.63 C 165.18 129.46 164.18 128.56 163.01 128.62 L 162.06 128.66 C 160.89 128.72 159.99 129.72 160.05 130.89 C 160.11 132.06 161.10 132.96 162.27 132.90 Z M 163.20 132.81 L 164.36 132.77 C 165.51 132.73 166.40 131.76 166.36 130.61 C 166.31 129.46 165.35 128.57 164.20 128.61 L 163.04 128.66 C 161.89 128.70 160.99 129.67 161.04 130.82 C 161.08 131.96 162.05 132.86 163.20 132.81 Z M 164.32 132.71 L 165.37 132.68 C 166.48 132.66 167.37 131.73 167.34 130.62 C 167.31 129.51 166.39 128.63 165.28 128.65 L 164.23 128.67 C 163.12 128.70 162.24 129.62 162.26 130.74 C 162.29 131.85 163.21 132.73 164.32 132.71 Z M 165.34 132.62 L 166.28 132.61 C 167.36 132.60 168.23 131.72 168.21 130.64 C 168.20 129.56 167.32 128.69 166.24 128.71 L 165.30 128.71 C 164.23 128.73 163.36 129.61 163.37 130.69 C 163.38 131.77 164.26 132.63 165.34 132.62 Z M 166.27 132.55 L 167.13 132.55 C 168.17 132.54 169.02 131.70 169.02 130.65 C 169.01 129.61 168.17 128.77 167.12 128.77 L 166.26 128.77 C 165.22 128.77 164.37 129.62 164.37 130.66 C 164.38 131.70 165.22 132.55 166.27 132.55 Z M 167.12 132.49 L 168.10 132.49 C 169.11 132.49 169.94 131.67 169.94 130.66 C 169.94 129.65 169.12 128.83 168.11 128.83 L 167.13 128.82 C 166.12 128.82 165.30 129.64 165.30 130.65 C 165.29 131.67 166.11 132.49 167.12 132.49 Z M 168.08 132.44 L 169.06 132.46 C 170.05 132.47 170.86 131.68 170.87 130.69 C 170.88 129.71 170.09 128.90 169.11 128.89 L 168.13 128.87 C 167.14 128.86 166.33 129.65 166.32 130.64 C 166.31 131.62 167.10 132.43 168.08 132.44 Z M 169.02 132.41 L 170.03 132.44 C 170.99 132.48 171.79 131.73 171.83 130.77 C 171.86 129.81 171.11 129.00 170.15 128.97 L 169.15 128.93 C 168.19 128.90 167.38 129.65 167.35 130.61 C 167.31 131.57 168.06 132.37 169.02 132.41 Z M 169.98 132.40 L 170.96 132.47 C 171.90 132.53 172.71 131.82 172.77 130.88 C 172.83 129.94 172.12 129.13 171.18 129.07 L 170.20 129.01 C 169.26 128.95 168.45 129.66 168.39 130.59 C 168.33 131.53 169.04 132.34 169.98 132.40 Z M 170.92 132.44 L 171.89 132.53 C 172.81 132.61 173.63 131.93 173.71 131.01 C 173.80 130.08 173.12 129.27 172.19 129.18 L 171.22 129.10 C 170.30 129.01 169.48 129.70 169.40 130.62 C 169.31 131.54 170.00 132.36 170.92 132.44 Z M 171.87 132.51 L 172.87 132.62 C 173.79 132.72 174.61 132.05 174.70 131.14 C 174.80 130.22 174.14 129.40 173.22 129.31 L 172.21 129.20 C 171.30 129.11 170.48 129.77 170.38 130.68 C 170.29 131.60 170.95 132.42 171.87 132.51 Z M 172.86 132.60 L 173.89 132.72 C 174.80 132.82 175.61 132.17 175.72 131.27 C 175.82 130.36 175.17 129.54 174.26 129.44 L 173.23 129.32 C 172.33 129.22 171.51 129.87 171.41 130.78 C 171.31 131.68 171.96 132.50 172.86 132.60 Z M 173.89 132.71 L 174.22 132.75 C 175.12 132.85 175.93 132.21 176.04 131.31 C 176.14 130.41 175.49 129.59 174.59 129.49 L 174.26 129.45 C 173.36 129.35 172.55 129.99 172.45 130.89 C 172.34 131.79 172.99 132.61 173.89 132.71 Z"
      fill="black"
      fill-rule="nonzero" /><path d="M 128.77 170.36 L 128.62 171.43 C 128.45 172.58 129.25 173.64 130.39 173.80 C 131.53 173.97 132.59 173.17 132.76 172.03 L 132.91 170.96 C 133.08 169.81 132.28 168.75 131.14 168.59 C 130.00 168.43 128.93 169.22 128.77 170.36 Z M 128.60 171.47 L 128.47 172.52 C 128.33 173.68 129.15 174.73 130.30 174.87 C 131.46 175.01 132.51 174.19 132.65 173.04 L 132.78 171.99 C 132.92 170.83 132.10 169.78 130.94 169.64 C 129.79 169.50 128.74 170.32 128.60 171.47 Z M 128.44 172.62 L 128.37 173.62 C 128.27 174.79 129.15 175.81 130.32 175.90 C 131.49 175.99 132.51 175.12 132.60 173.95 L 132.68 172.94 C 132.77 171.77 131.89 170.75 130.72 170.66 C 129.55 170.57 128.53 171.45 128.44 172.62 Z M 128.34 173.78 L 128.34 174.73 C 128.34 175.91 129.29 176.87 130.47 176.88 C 131.65 176.88 132.61 175.92 132.62 174.74 L 132.62 173.79 C 132.62 172.61 131.67 171.65 130.49 171.65 C 129.31 171.65 128.35 172.60 128.34 173.78 Z M 128.34 174.98 L 128.45 175.88 C 128.58 177.06 129.65 177.91 130.83 177.77 C 132.01 177.64 132.86 176.57 132.72 175.39 L 132.62 174.49 C 132.48 173.31 131.41 172.46 130.23 172.60 C 129.05 172.74 128.21 173.80 128.34 174.98 Z M 128.52 176.26 L 128.82 177.25 C 129.16 178.40 130.37 179.04 131.51 178.69 C 132.65 178.35 133.30 177.14 132.95 176.00 L 132.65 175.01 C 132.30 173.87 131.10 173.22 129.96 173.57 C 128.81 173.92 128.17 175.12 128.52 176.26 Z M 128.97 177.63 L 129.42 178.50 C 129.97 179.56 131.28 179.97 132.34 179.42 C 133.40 178.87 133.81 177.56 133.26 176.50 L 132.80 175.63 C 132.25 174.57 130.94 174.16 129.88 174.71 C 128.82 175.26 128.41 176.57 128.97 177.63 Z M 129.57 178.75 L 130.13 179.55 C 130.82 180.52 132.18 180.75 133.15 180.06 C 134.13 179.37 134.36 178.02 133.67 177.04 L 133.11 176.25 C 132.41 175.27 131.06 175.04 130.09 175.73 C 129.11 176.42 128.88 177.77 129.57 178.75 Z M 130.23 179.67 L 130.86 180.44 C 131.62 181.36 132.99 181.49 133.91 180.73 C 134.84 179.97 134.97 178.60 134.20 177.68 L 133.57 176.91 C 132.81 175.99 131.44 175.86 130.52 176.62 C 129.60 177.38 129.47 178.75 130.23 179.67 Z M 130.91 180.50 L 131.58 181.26 C 132.38 182.16 133.75 182.24 134.65 181.44 C 135.54 180.65 135.62 179.28 134.83 178.38 L 134.16 177.62 C 133.36 176.73 131.99 176.64 131.09 177.44 C 130.20 178.23 130.11 179.60 130.91 180.50 Z M 131.63 181.31 L 132.32 182.04 C 133.14 182.91 134.52 182.95 135.39 182.13 C 136.26 181.31 136.30 179.94 135.48 179.07 L 134.78 178.33 C 133.96 177.46 132.59 177.42 131.72 178.24 C 130.85 179.07 130.81 180.44 131.63 181.31 Z M 132.37 182.09 L 133.07 182.79 C 133.92 183.63 135.29 183.63 136.14 182.78 C 136.98 181.93 136.97 180.55 136.12 179.71 L 135.43 179.02 C 134.58 178.17 133.20 178.18 132.36 179.03 C 131.52 179.88 131.52 181.25 132.37 182.09 Z M 133.12 182.84 L 133.86 183.52 C 134.74 184.33 136.11 184.28 136.92 183.40 C 137.74 182.52 137.68 181.15 136.80 180.33 L 136.07 179.66 C 135.19 178.84 133.82 178.90 133.00 179.78 C 132.19 180.65 132.25 182.03 133.12 182.84 Z M 133.92 183.57 L 134.68 184.22 C 135.59 185.00 136.96 184.89 137.73 183.98 C 138.51 183.07 138.40 181.70 137.49 180.92 L 136.74 180.28 C 135.83 179.50 134.46 179.61 133.68 180.52 C 132.91 181.43 133.01 182.80 133.92 183.57 Z M 134.75 184.27 L 135.52 184.88 C 136.46 185.62 137.83 185.46 138.56 184.52 C 139.30 183.58 139.14 182.22 138.20 181.48 L 137.43 180.87 C 136.49 180.13 135.13 180.29 134.39 181.23 C 133.65 182.17 133.81 183.53 134.75 184.27 Z M 135.59 184.93 L 136.38 185.51 C 137.35 186.21 138.70 186.00 139.40 185.04 C 140.11 184.08 139.90 182.72 138.94 182.02 L 138.14 181.44 C 137.18 180.73 135.82 180.94 135.12 181.91 C 134.41 182.87 134.62 184.22 135.59 184.93 Z M 136.44 185.55 L 137.24 186.09 C 138.22 186.77 139.57 186.51 140.24 185.53 C 140.91 184.55 140.66 183.20 139.68 182.53 L 138.88 181.98 C 137.89 181.31 136.55 181.56 135.88 182.54 C 135.20 183.53 135.45 184.87 136.44 185.55 Z M 137.30 186.13 L 138.14 186.67 C 139.15 187.31 140.48 187.01 141.12 186.01 C 141.76 185.00 141.46 183.67 140.46 183.03 L 139.62 182.49 C 138.61 181.85 137.28 182.15 136.64 183.15 C 136.00 184.16 136.29 185.49 137.30 186.13 Z M 138.21 186.71 L 139.10 187.23 C 140.13 187.83 141.45 187.49 142.05 186.46 C 142.65 185.44 142.31 184.12 141.28 183.51 L 140.39 182.99 C 139.37 182.39 138.05 182.73 137.44 183.76 C 136.84 184.78 137.19 186.10 138.21 186.71 Z M 139.17 187.26 L 140.05 187.73 C 141.09 188.30 142.39 187.90 142.96 186.86 C 143.52 185.81 143.13 184.51 142.08 183.95 L 141.21 183.48 C 140.16 182.92 138.86 183.31 138.30 184.35 C 137.74 185.40 138.13 186.70 139.17 187.26 Z M 140.11 187.76 L 140.99 188.20 C 142.05 188.72 143.34 188.29 143.86 187.23 C 144.39 186.17 143.96 184.88 142.89 184.35 L 142.02 183.92 C 140.95 183.39 139.67 183.83 139.14 184.89 C 138.62 185.95 139.05 187.24 140.11 187.76 Z M 141.05 188.22 L 141.96 188.64 C 143.03 189.13 144.30 188.66 144.80 187.59 C 145.29 186.52 144.82 185.25 143.75 184.75 L 142.84 184.33 C 141.76 183.84 140.49 184.31 140.00 185.38 C 139.50 186.45 139.97 187.72 141.05 188.22 Z M 142.01 188.65 L 142.95 189.06 C 144.03 189.53 145.29 189.03 145.76 187.95 C 146.22 186.87 145.73 185.61 144.64 185.14 L 143.70 184.74 C 142.62 184.27 141.36 184.77 140.89 185.85 C 140.43 186.93 140.92 188.19 142.01 188.65 Z M 142.99 189.07 L 143.93 189.46 C 145.02 189.90 146.26 189.38 146.70 188.29 C 147.15 187.20 146.63 185.96 145.54 185.52 L 144.60 185.13 C 143.51 184.69 142.27 185.21 141.83 186.30 C 141.38 187.39 141.90 188.63 142.99 189.07 Z M 143.97 189.47 L 144.91 189.83 C 146.00 190.25 147.23 189.70 147.65 188.61 C 148.07 187.51 147.52 186.29 146.43 185.87 L 145.49 185.51 C 144.40 185.09 143.17 185.63 142.75 186.73 C 142.33 187.82 142.88 189.05 143.97 189.47 Z M 144.97 189.84 L 145.91 190.17 C 147.01 190.56 148.22 189.99 148.61 188.89 C 149.00 187.79 148.42 186.58 147.32 186.19 L 146.37 185.86 C 145.28 185.47 144.07 186.04 143.68 187.14 C 143.29 188.24 143.87 189.45 144.97 189.84 Z M 145.98 190.19 L 146.94 190.49 C 148.05 190.84 149.23 190.23 149.58 189.12 C 149.93 188.01 149.32 186.83 148.21 186.48 L 147.25 186.18 C 146.15 185.83 144.96 186.44 144.61 187.55 C 144.26 188.65 144.88 189.84 145.98 190.19 Z M 147.02 190.51 L 147.99 190.77 C 149.10 191.07 150.26 190.41 150.56 189.30 C 150.86 188.18 150.20 187.03 149.09 186.73 L 148.12 186.46 C 147.01 186.16 145.85 186.82 145.55 187.94 C 145.25 189.05 145.91 190.20 147.02 190.51 Z M 148.08 190.78 L 149.07 191.00 C 150.19 191.25 151.31 190.54 151.56 189.42 C 151.81 188.30 151.10 187.18 149.98 186.93 L 148.99 186.71 C 147.87 186.46 146.75 187.17 146.50 188.29 C 146.25 189.42 146.96 190.53 148.08 190.78 Z M 149.15 191.01 L 150.13 191.18 C 151.26 191.39 152.34 190.64 152.54 189.51 C 152.75 188.38 152.00 187.31 150.87 187.10 L 149.89 186.93 C 148.76 186.72 147.68 187.47 147.48 188.60 C 147.28 189.73 148.03 190.80 149.15 191.01 Z M 150.20 191.19 L 151.19 191.33 C 152.31 191.49 153.36 190.71 153.53 189.58 C 153.69 188.46 152.91 187.41 151.78 187.24 L 150.80 187.10 C 149.67 186.94 148.62 187.72 148.46 188.85 C 148.30 189.97 149.08 191.02 150.20 191.19 Z M 151.24 191.32 L 152.21 191.44 C 153.34 191.58 154.36 190.77 154.49 189.65 C 154.63 188.52 153.82 187.50 152.70 187.36 L 151.73 187.25 C 150.60 187.11 149.58 187.92 149.45 189.04 C 149.31 190.17 150.11 191.19 151.24 191.32 Z M 152.25 191.43 L 153.18 191.53 C 154.30 191.64 155.30 190.82 155.41 189.70 C 155.52 188.58 154.70 187.58 153.58 187.46 L 152.66 187.37 C 151.54 187.26 150.54 188.08 150.42 189.20 C 150.31 190.32 151.13 191.32 152.25 191.43 Z M 153.22 191.52 L 154.17 191.60 C 155.29 191.69 156.27 190.85 156.36 189.73 C 156.45 188.62 155.61 187.64 154.50 187.55 L 153.54 187.47 C 152.42 187.38 151.44 188.21 151.35 189.33 C 151.26 190.45 152.10 191.43 153.22 191.52 Z M 154.21 191.59 L 155.22 191.65 C 156.33 191.72 157.29 190.87 157.36 189.76 C 157.43 188.64 156.58 187.69 155.47 187.62 L 154.46 187.56 C 153.34 187.49 152.39 188.34 152.32 189.45 C 152.25 190.56 153.10 191.52 154.21 191.59 Z M 155.26 191.64 L 156.34 191.69 C 157.45 191.73 158.38 190.87 158.43 189.77 C 158.48 188.66 157.62 187.72 156.51 187.67 L 155.43 187.63 C 154.32 187.58 153.38 188.44 153.34 189.55 C 153.29 190.66 154.15 191.59 155.26 191.64 Z M 156.37 191.68 L 157.39 191.70 C 158.50 191.73 159.41 190.86 159.44 189.76 C 159.47 188.66 158.60 187.74 157.50 187.71 L 156.48 187.68 C 155.38 187.65 154.46 188.52 154.43 189.62 C 154.40 190.73 155.27 191.65 156.37 191.68 Z M 157.41 191.70 L 158.43 191.71 C 159.53 191.73 160.43 190.86 160.45 189.76 C 160.47 188.66 159.60 187.76 158.50 187.74 L 157.48 187.72 C 156.38 187.70 155.48 188.58 155.46 189.67 C 155.44 190.77 156.32 191.68 157.41 191.70 Z M 158.45 191.70 L 159.48 191.71 C 160.58 191.72 161.47 190.85 161.48 189.75 C 161.49 188.66 160.61 187.77 159.52 187.76 L 158.48 187.75 C 157.39 187.74 156.50 188.61 156.49 189.71 C 156.48 190.80 157.35 191.69 158.45 191.70 Z M 159.49 191.70 L 160.52 191.71 C 161.60 191.71 162.49 190.84 162.49 189.75 C 162.50 188.66 161.62 187.78 160.53 187.77 L 159.51 187.77 C 158.42 187.76 157.54 188.64 157.53 189.73 C 157.53 190.81 158.41 191.70 159.49 191.70 Z M 160.52 191.70 L 161.51 191.70 C 162.59 191.70 163.47 190.83 163.47 189.74 C 163.47 188.66 162.59 187.78 161.51 187.78 L 160.53 187.78 C 159.45 187.78 158.57 188.65 158.57 189.74 C 158.57 190.82 159.44 191.70 160.52 191.70 Z M 161.51 191.69 L 162.53 191.69 C 163.60 191.69 164.47 190.82 164.47 189.74 C 164.47 188.67 163.60 187.79 162.53 187.79 L 161.51 187.79 C 160.43 187.79 159.56 188.66 159.56 189.74 C 159.56 190.82 160.43 191.69 161.51 191.69 Z M 162.53 191.67 L 163.63 191.67 C 164.69 191.67 165.55 190.80 165.55 189.74 C 165.55 188.67 164.69 187.81 163.62 187.81 L 162.53 187.81 C 161.46 187.81 160.60 188.68 160.60 189.74 C 160.60 190.81 161.46 191.67 162.53 191.67 Z M 163.63 191.64 L 164.62 191.64 C 165.67 191.63 166.52 190.78 166.51 189.73 C 166.51 188.68 165.65 187.83 164.60 187.83 L 163.62 187.84 C 162.56 187.84 161.71 188.70 161.72 189.75 C 161.72 190.80 162.58 191.65 163.63 191.64 Z M 164.63 191.62 L 165.55 191.61 C 166.59 191.59 167.42 190.74 167.41 189.70 C 167.40 188.67 166.55 187.83 165.51 187.84 L 164.59 187.85 C 163.55 187.87 162.72 188.72 162.73 189.76 C 162.74 190.79 163.59 191.63 164.63 191.62 Z M 165.57 191.58 L 166.47 191.56 C 167.50 191.54 168.31 190.69 168.29 189.67 C 168.27 188.64 167.42 187.83 166.40 187.85 L 165.49 187.87 C 164.46 187.89 163.65 188.74 163.67 189.76 C 163.69 190.79 164.54 191.60 165.57 191.58 Z M 166.50 191.54 L 167.44 191.51 C 168.46 191.47 169.25 190.62 169.21 189.61 C 169.18 188.59 168.33 187.80 167.31 187.83 L 166.37 187.87 C 165.35 187.91 164.56 188.76 164.60 189.77 C 164.63 190.79 165.49 191.58 166.50 191.54 Z M 167.49 191.49 L 168.47 191.43 C 169.47 191.37 170.24 190.51 170.18 189.50 C 170.11 188.50 169.25 187.73 168.25 187.79 L 167.27 187.85 C 166.26 187.92 165.50 188.78 165.56 189.78 C 165.62 190.79 166.48 191.55 167.49 191.49 Z M 168.52 191.41 L 169.57 191.31 C 170.56 191.22 171.29 190.34 171.20 189.35 C 171.11 188.36 170.23 187.63 169.24 187.72 L 168.19 187.82 C 167.20 187.91 166.47 188.79 166.56 189.78 C 166.65 190.77 167.53 191.50 168.52 191.41 Z M 169.62 191.29 L 170.64 191.16 C 171.62 191.04 172.32 190.15 172.19 189.17 C 172.07 188.19 171.18 187.49 170.20 187.61 L 169.18 187.74 C 168.20 187.86 167.51 188.76 167.63 189.74 C 167.75 190.72 168.64 191.41 169.62 191.29 Z M 170.68 191.14 L 171.67 191.00 C 172.63 190.85 173.30 189.95 173.16 188.98 C 173.02 188.02 172.12 187.35 171.15 187.49 L 170.16 187.64 C 169.19 187.78 168.52 188.68 168.67 189.65 C 168.81 190.61 169.71 191.28 170.68 191.14 Z M 171.68 190.98 L 172.69 190.82 C 173.65 190.67 174.30 189.77 174.15 188.81 C 174.00 187.85 173.10 187.20 172.14 187.35 L 171.13 187.51 C 170.17 187.66 169.52 188.56 169.67 189.52 C 169.82 190.47 170.72 191.13 171.68 190.98 Z M 172.69 190.80 L 173.70 190.64 C 174.65 190.49 175.30 189.60 175.15 188.65 C 175.00 187.70 174.10 187.05 173.15 187.20 L 172.15 187.36 C 171.20 187.51 170.55 188.41 170.70 189.36 C 170.85 190.31 171.74 190.95 172.69 190.80 Z M 173.68 190.63 L 174.66 190.48 C 175.60 190.34 176.25 189.46 176.11 188.52 C 175.97 187.58 175.09 186.93 174.15 187.07 L 173.17 187.22 C 172.23 187.36 171.58 188.24 171.72 189.18 C 171.86 190.12 172.74 190.77 173.68 190.63 Z M 174.62 190.47 L 175.69 190.33 C 176.62 190.21 177.28 189.35 177.16 188.42 C 177.04 187.48 176.18 186.82 175.24 186.94 L 174.18 187.08 C 173.25 187.21 172.59 188.06 172.71 189.00 C 172.83 189.93 173.69 190.59 174.62 190.47 Z M 175.65 190.32 L 176.66 190.21 C 177.59 190.11 178.25 189.27 178.15 188.34 C 178.05 187.42 177.22 186.75 176.29 186.85 L 175.28 186.96 C 174.35 187.06 173.69 187.90 173.79 188.82 C 173.89 189.75 174.72 190.42 175.65 190.32 Z M 176.63 190.19 L 177.59 190.10 C 178.51 190.01 179.18 189.20 179.10 188.28 C 179.01 187.37 178.20 186.69 177.28 186.78 L 176.32 186.87 C 175.40 186.95 174.73 187.77 174.81 188.68 C 174.90 189.60 175.71 190.27 176.63 190.19 Z M 177.58 190.08 L 178.52 190.00 C 179.42 189.92 180.10 189.13 180.02 188.22 C 179.94 187.31 179.15 186.64 178.24 186.72 L 177.30 186.80 C 176.39 186.87 175.72 187.67 175.80 188.58 C 175.87 189.48 176.67 190.16 177.58 190.08 Z"
      fill="black"
      fill-rule="nonzero" /></svg>