<svg xmlns="http://www.w3.org/2000/svg" width="300" height="300" viewBox="0 0 300 300">
<path d="M 116.37 138.68 L 117.37 138.82 C 118.57 138.99 119.68 138.15 119.85 136.95 C 120.02 135.75 119.18 134.64 117.98 134.47 L 116.99 134.33 C 115.79 134.16 114.68 135.00 114.51 136.20 C 114.34 137.40 115.17 138.51 116.37 138.68 Z M 117.38 138.85 L 118.38 138.98 C 119.59 139.14 120.71 138.29 120.88 137.07 C 121.04 135.86 120.18 134.74 118.97 134.58 L 117.97 134.44 C 116.76 134.28 115.64 135.13 115.47 136.35 C 115.31 137.57 116.17 138.68 117.38 138.85 Z M 118.41 139.01 L 119.40 139.13 C 120.63 139.28 121.75 138.40 121.90 137.16 C 122.05 135.93 121.17 134.81 119.93 134.66 L 118.94 134.54 C 117.71 134.40 116.59 135.28 116.44 136.51 C 116.29 137.75 117.17 138.87 118.41 139.01 Z M 119.45 139.16 L 120.43 139.26 C 121.69 139.38 122.80 138.46 122.92 137.21 C 123.04 135.96 122.12 134.85 120.87 134.73 L 119.89 134.63 C 118.63 134.51 117.52 135.43 117.40 136.68 C 117.28 137.93 118.19 139.04 119.45 139.16 Z M 120.50 139.28 L 121.49 139.35 C 122.76 139.43 123.85 138.48 123.94 137.21 C 124.02 135.94 123.06 134.85 121.80 134.77 L 120.80 134.70 C 119.54 134.62 118.45 135.57 118.36 136.84 C 118.28 138.11 119.24 139.20 120.50 139.28 Z M 121.57 139.36 L 122.56 139.39 C 123.83 139.43 124.90 138.43 124.94 137.16 C 124.98 135.89 123.98 134.83 122.71 134.79 L 121.72 134.76 C 120.45 134.72 119.39 135.71 119.34 136.98 C 119.30 138.25 120.30 139.32 121.57 139.36 Z M 122.64 139.39 L 123.64 139.39 C 124.91 139.39 125.94 138.35 125.94 137.08 C 125.93 135.81 124.90 134.78 123.63 134.79 L 122.63 134.79 C 121.36 134.79 120.33 135.82 120.34 137.10 C 120.34 138.37 121.37 139.40 122.64 139.39 Z M 123.72 139.39 L 124.72 139.35 C 125.99 139.31 126.98 138.24 126.94 136.97 C 126.89 135.70 125.82 134.70 124.55 134.75 L 123.55 134.79 C 122.28 134.83 121.29 135.90 121.33 137.17 C 121.38 138.44 122.45 139.44 123.72 139.39 Z M 124.80 139.35 L 125.78 139.28 C 127.05 139.19 128.01 138.09 127.92 136.82 C 127.83 135.56 126.73 134.60 125.46 134.68 L 124.48 134.75 C 123.21 134.84 122.25 135.94 122.34 137.21 C 122.43 138.48 123.53 139.44 124.80 139.35 Z M 125.85 139.28 L 126.81 139.18 C 128.07 139.06 129.00 137.93 128.88 136.66 C 128.75 135.40 127.63 134.47 126.36 134.60 L 125.40 134.69 C 124.13 134.81 123.20 135.94 123.33 137.21 C 123.45 138.47 124.58 139.40 125.85 139.28 Z M 126.86 139.18 L 127.84 139.06 C 129.11 138.90 130.01 137.76 129.85 136.49 C 129.70 135.23 128.55 134.33 127.29 134.48 L 126.31 134.60 C 125.04 134.75 124.14 135.90 124.30 137.17 C 124.45 138.43 125.60 139.33 126.86 139.18 Z M 127.89 139.05 L 128.89 138.91 C 130.15 138.73 131.03 137.57 130.85 136.31 C 130.68 135.05 129.51 134.17 128.25 134.35 L 127.25 134.49 C 125.99 134.66 125.11 135.83 125.28 137.09 C 125.46 138.35 126.63 139.23 127.89 139.05 Z M 128.92 138.91 L 129.95 138.75 C 131.21 138.55 132.07 137.38 131.88 136.12 C 131.68 134.86 130.51 134.00 129.25 134.19 L 128.22 134.35 C 126.96 134.55 126.10 135.72 126.29 136.98 C 126.49 138.24 127.66 139.10 128.92 138.91 Z M 129.98 138.74 L 130.86 138.60 C 132.12 138.39 132.97 137.21 132.76 135.95 C 132.56 134.69 131.37 133.84 130.12 134.05 L 129.23 134.20 C 127.97 134.40 127.12 135.59 127.33 136.84 C 127.53 138.10 128.72 138.95 129.98 138.74 Z M 130.88 138.59 L 131.78 138.44 C 133.04 138.22 133.88 137.03 133.66 135.77 C 133.44 134.52 132.25 133.68 131.00 133.90 L 130.10 134.05 C 128.84 134.27 128.00 135.46 128.22 136.72 C 128.44 137.97 129.63 138.81 130.88 138.59 Z M 131.80 138.43 L 132.75 138.26 C 134.00 138.03 134.83 136.83 134.60 135.58 C 134.37 134.33 133.17 133.50 131.92 133.73 L 130.97 133.90 C 129.72 134.13 128.89 135.33 129.12 136.58 C 129.35 137.83 130.55 138.66 131.80 138.43 Z M 132.77 138.26 L 133.77 138.07 C 135.02 137.83 135.84 136.62 135.60 135.37 C 135.36 134.12 134.15 133.30 132.90 133.54 L 131.90 133.73 C 130.65 133.97 129.83 135.18 130.07 136.43 C 130.31 137.68 131.52 138.50 132.77 138.26 Z M 133.79 138.06 L 134.87 137.84 C 136.12 137.59 136.92 136.38 136.67 135.13 C 136.42 133.88 135.21 133.08 133.96 133.33 L 132.88 133.54 C 131.63 133.80 130.83 135.01 131.08 136.26 C 131.33 137.51 132.55 138.31 133.79 138.06 Z M 134.89 137.84 L 135.96 137.62 C 137.20 137.35 138.00 136.13 137.74 134.89 C 137.48 133.64 136.26 132.84 135.01 133.11 L 133.94 133.33 C 132.69 133.59 131.90 134.81 132.16 136.06 C 132.42 137.30 133.64 138.10 134.89 137.84 Z M 135.97 137.61 L 136.93 137.41 C 138.17 137.14 138.96 135.91 138.69 134.67 C 138.42 133.42 137.19 132.63 135.95 132.90 L 135.00 133.11 C 133.75 133.38 132.96 134.61 133.23 135.85 C 133.50 137.09 134.73 137.88 135.97 137.61 Z M 136.94 137.40 L 137.93 137.18 C 139.17 136.91 139.95 135.68 139.68 134.43 C 139.40 133.19 138.17 132.41 136.93 132.69 L 135.94 132.90 C 134.70 133.18 133.91 134.41 134.19 135.65 C 134.47 136.90 135.70 137.68 136.94 137.40 Z M 137.94 137.18 L 138.95 136.95 C 140.19 136.67 140.96 135.44 140.68 134.19 C 140.40 132.95 139.16 132.18 137.92 132.46 L 136.92 132.69 C 135.68 132.97 134.90 134.20 135.18 135.45 C 135.46 136.69 136.70 137.46 137.94 137.18 Z M 138.96 136.95 L 139.96 136.71 C 141.20 136.43 141.98 135.19 141.69 133.95 C 141.40 132.71 140.16 131.94 138.92 132.23 L 137.91 132.46 C 136.67 132.75 135.90 133.99 136.19 135.23 C 136.48 136.47 137.72 137.24 138.96 136.95 Z M 139.98 136.71 L 140.97 136.48 C 142.21 136.18 142.97 134.94 142.68 133.70 C 142.38 132.46 141.14 131.70 139.90 131.99 L 138.91 132.23 C 137.67 132.52 136.91 133.77 137.20 135.00 C 137.50 136.24 138.74 137.01 139.98 136.71 Z M 140.98 136.47 L 141.94 136.24 C 143.18 135.94 143.94 134.69 143.63 133.46 C 143.33 132.22 142.09 131.46 140.85 131.76 L 139.89 132.00 C 138.65 132.30 137.90 133.54 138.20 134.78 C 138.50 136.02 139.74 136.77 140.98 136.47 Z M 141.96 136.24 L 142.91 136.00 C 144.15 135.69 144.90 134.43 144.59 133.20 C 144.28 131.97 143.03 131.22 141.79 131.53 L 140.84 131.77 C 139.60 132.08 138.85 133.33 139.16 134.56 C 139.47 135.80 140.72 136.54 141.96 136.24 Z M 142.93 135.99 L 144.04 135.70 C 145.27 135.38 146.01 134.12 145.69 132.89 C 145.37 131.66 144.11 130.92 142.88 131.24 L 141.77 131.53 C 140.54 131.85 139.80 133.11 140.12 134.34 C 140.44 135.57 141.70 136.31 142.93 135.99 Z M 144.06 135.70 L 145.08 135.42 C 146.31 135.09 147.03 133.82 146.70 132.59 C 146.36 131.36 145.10 130.64 143.87 130.97 L 142.85 131.25 C 141.63 131.58 140.90 132.85 141.24 134.08 C 141.57 135.31 142.84 136.03 144.06 135.70 Z M 145.11 135.41 L 146.05 135.14 C 147.27 134.80 147.98 133.52 147.64 132.30 C 147.29 131.07 146.01 130.36 144.79 130.71 L 143.84 130.98 C 142.62 131.33 141.91 132.60 142.26 133.83 C 142.61 135.05 143.88 135.76 145.11 135.41 Z M 146.08 135.14 L 146.97 134.87 C 148.19 134.51 148.88 133.22 148.52 132.00 C 148.15 130.78 146.87 130.09 145.65 130.45 L 144.76 130.72 C 143.54 131.08 142.85 132.37 143.21 133.59 C 143.58 134.81 144.86 135.50 146.08 135.14 Z M 147.00 134.86 L 147.85 134.60 C 149.06 134.22 149.74 132.93 149.36 131.71 C 148.98 130.50 147.69 129.82 146.48 130.20 L 145.62 130.46 C 144.41 130.84 143.73 132.13 144.11 133.35 C 144.49 134.56 145.78 135.24 147.00 134.86 Z M 147.87 134.59 L 148.81 134.28 C 150.02 133.89 150.69 132.59 150.29 131.38 C 149.90 130.17 148.60 129.51 147.39 129.90 L 146.45 130.21 C 145.24 130.60 144.58 131.90 144.97 133.11 C 145.36 134.32 146.66 134.98 147.87 134.59 Z M 148.84 134.27 L 149.80 133.95 C 151.00 133.54 151.65 132.24 151.25 131.03 C 150.84 129.83 149.53 129.18 148.33 129.58 L 147.37 129.91 C 146.16 130.31 145.51 131.62 145.92 132.83 C 146.32 134.03 147.63 134.68 148.84 134.27 Z M 149.81 133.94 L 150.76 133.62 C 151.96 133.21 152.60 131.89 152.18 130.69 C 151.77 129.49 150.46 128.85 149.26 129.26 L 148.31 129.59 C 147.11 130.00 146.47 131.31 146.89 132.52 C 147.30 133.72 148.61 134.36 149.81 133.94 Z M 150.76 133.62 L 151.70 133.29 C 152.90 132.87 153.53 131.56 153.11 130.36 C 152.70 129.16 151.38 128.53 150.18 128.94 L 149.25 129.27 C 148.05 129.69 147.42 131.00 147.83 132.20 C 148.25 133.40 149.56 134.03 150.76 133.62 Z M 151.69 133.29 L 152.62 132.97 C 153.83 132.55 154.46 131.24 154.05 130.04 C 153.63 128.84 152.32 128.20 151.12 128.62 L 150.19 128.94 C 148.98 129.36 148.35 130.67 148.76 131.87 C 149.18 133.07 150.49 133.71 151.69 133.29 Z M 152.62 132.97 L 153.61 132.63 C 154.81 132.22 155.45 130.91 155.04 129.71 C 154.63 128.51 153.32 127.87 152.12 128.28 L 151.13 128.62 C 149.92 129.03 149.28 130.34 149.69 131.54 C 150.11 132.74 151.41 133.38 152.62 132.97 Z M 153.60 132.63 L 154.57 132.30 C 155.77 131.89 156.42 130.59 156.01 129.39 C 155.60 128.19 154.30 127.54 153.10 127.95 L 152.13 128.28 C 150.92 128.69 150.28 129.99 150.69 131.19 C 151.10 132.39 152.40 133.04 153.60 132.63 Z M 154.57 132.30 L 155.51 131.98 C 156.71 131.58 157.35 130.28 156.95 129.08 C 156.54 127.87 155.24 127.23 154.04 127.63 L 153.10 127.95 C 151.90 128.36 151.25 129.66 151.66 130.86 C 152.07 132.06 153.37 132.71 154.57 132.30 Z M 155.51 131.98 L 156.40 131.68 C 157.60 131.27 158.24 129.97 157.83 128.77 C 157.43 127.57 156.13 126.93 154.93 127.34 L 154.04 127.64 C 152.84 128.04 152.19 129.35 152.60 130.55 C 153.01 131.75 154.31 132.39 155.51 131.98 Z M 156.40 131.68 L 157.37 131.35 C 158.56 130.94 159.20 129.63 158.79 128.44 C 158.38 127.24 157.08 126.60 155.88 127.01 L 154.92 127.34 C 153.72 127.75 153.08 129.05 153.49 130.25 C 153.90 131.45 155.21 132.09 156.40 131.68 Z M 157.38 131.34 L 158.31 131.02 C 159.50 130.60 160.14 129.30 159.72 128.11 C 159.31 126.91 158.00 126.28 156.81 126.69 L 155.88 127.02 C 154.68 127.43 154.05 128.73 154.46 129.93 C 154.88 131.12 156.18 131.76 157.38 131.34 Z M 158.32 131.01 L 159.24 130.69 C 160.43 130.27 161.06 128.96 160.64 127.77 C 160.22 126.58 158.92 125.95 157.72 126.37 L 156.80 126.70 C 155.61 127.12 154.98 128.42 155.40 129.61 C 155.82 130.80 157.12 131.43 158.32 131.01 Z M 159.25 130.68 L 160.19 130.35 C 161.38 129.93 162.00 128.62 161.58 127.43 C 161.15 126.24 159.85 125.62 158.66 126.04 L 157.72 126.38 C 156.53 126.80 155.91 128.11 156.33 129.29 C 156.75 130.48 158.06 131.11 159.25 130.68 Z M 160.18 130.35 L 161.13 130.02 C 162.32 129.60 162.94 128.29 162.53 127.10 C 162.11 125.91 160.80 125.29 159.61 125.71 L 158.66 126.04 C 157.47 126.46 156.85 127.77 157.27 128.96 C 157.69 130.15 158.99 130.77 160.18 130.35 Z M 161.10 130.02 L 162.07 129.70 C 163.26 129.29 163.90 128.00 163.50 126.81 C 163.10 125.61 161.80 124.97 160.61 125.37 L 159.64 125.70 C 158.45 126.10 157.81 127.40 158.21 128.59 C 158.61 129.79 159.91 130.43 161.10 130.02 Z M 162.01 129.71 L 162.97 129.42 C 164.17 129.05 164.84 127.77 164.47 126.57 C 164.10 125.36 162.82 124.69 161.62 125.06 L 160.66 125.36 C 159.46 125.73 158.79 127.01 159.16 128.21 C 159.53 129.41 160.81 130.09 162.01 129.71 Z M 162.87 129.45 L 163.85 129.19 C 165.07 128.87 165.80 127.62 165.48 126.40 C 165.16 125.18 163.91 124.46 162.69 124.78 L 161.71 125.04 C 160.49 125.36 159.77 126.60 160.09 127.82 C 160.41 129.04 161.65 129.77 162.87 129.45 Z M 163.72 129.22 L 164.71 129.02 C 165.95 128.78 166.75 127.58 166.50 126.34 C 166.26 125.10 165.06 124.30 163.82 124.55 L 162.83 124.74 C 161.59 124.99 160.79 126.19 161.03 127.43 C 161.28 128.66 162.48 129.47 163.72 129.22 Z M 164.56 129.05 L 165.53 128.93 C 166.78 128.76 167.66 127.62 167.50 126.36 C 167.34 125.11 166.19 124.23 164.94 124.39 L 163.97 124.52 C 162.72 124.68 161.84 125.83 162.00 127.08 C 162.16 128.33 163.31 129.21 164.56 129.05 Z M 165.37 128.94 L 166.43 128.88 C 167.69 128.80 168.65 127.71 168.58 126.45 C 168.50 125.19 167.41 124.23 166.15 124.31 L 165.09 124.37 C 163.83 124.45 162.87 125.54 162.95 126.80 C 163.03 128.06 164.11 129.02 165.37 128.94 Z M 166.18 128.89 L 167.39 128.95 C 168.66 129.01 169.74 128.03 169.80 126.76 C 169.86 125.49 168.87 124.41 167.60 124.35 L 166.40 124.29 C 165.13 124.24 164.05 125.22 163.99 126.49 C 163.93 127.76 164.91 128.83 166.18 128.89 Z M 166.12 128.51 L 166.57 128.85 C 167.60 129.61 169.05 129.39 169.81 128.37 C 170.57 127.34 170.36 125.89 169.33 125.13 L 168.88 124.79 C 167.85 124.03 166.40 124.24 165.64 125.27 C 164.88 126.30 165.09 127.75 166.12 128.51 Z M 166.21 125.44 L 165.86 125.84 C 165.01 126.80 165.09 128.27 166.05 129.12 C 167.01 129.97 168.48 129.89 169.34 128.93 L 169.69 128.53 C 170.54 127.57 170.46 126.10 169.50 125.25 C 168.54 124.39 167.07 124.48 166.21 125.44 Z M 166.28 125.46 L 165.59 125.93 C 164.53 126.66 164.26 128.11 164.99 129.17 C 165.71 130.23 167.16 130.50 168.22 129.78 L 168.92 129.30 C 169.98 128.58 170.25 127.13 169.52 126.07 C 168.79 125.00 167.35 124.73 166.28 125.46 Z M 165.70 125.86 L 164.76 126.43 C 163.66 127.10 163.31 128.53 163.97 129.63 C 164.64 130.73 166.07 131.08 167.17 130.42 L 168.12 129.85 C 169.22 129.18 169.57 127.75 168.90 126.65 C 168.23 125.55 166.80 125.20 165.70 125.86 Z M 164.77 126.43 L 163.68 127.08 C 162.57 127.74 162.21 129.17 162.88 130.27 C 163.54 131.38 164.97 131.74 166.07 131.08 L 167.16 130.43 C 168.27 129.77 168.63 128.33 167.97 127.23 C 167.31 126.12 165.88 125.76 164.77 126.43 Z M 163.64 127.10 L 162.63 127.73 C 161.54 128.42 161.21 129.86 161.89 130.95 C 162.58 132.04 164.02 132.37 165.11 131.68 L 166.11 131.05 C 167.21 130.37 167.54 128.93 166.85 127.84 C 166.17 126.75 164.73 126.42 163.64 127.10 Z M 162.57 127.77 L 161.72 128.34 C 160.65 129.06 160.36 130.50 161.08 131.57 C 161.79 132.64 163.24 132.93 164.31 132.22 L 165.16 131.65 C 166.23 130.93 166.52 129.48 165.81 128.42 C 165.09 127.35 163.64 127.06 162.57 127.77 Z M 161.67 128.38 L 160.83 128.97 C 159.78 129.71 159.53 131.16 160.27 132.21 C 161.02 133.26 162.47 133.51 163.52 132.77 L 164.36 132.18 C 165.41 131.44 165.66 129.99 164.92 128.94 C 164.17 127.89 162.72 127.64 161.67 128.38 Z M 160.79 129.00 L 159.98 129.61 C 158.95 130.37 158.73 131.83 159.50 132.86 C 160.26 133.89 161.72 134.11 162.75 133.34 L 163.56 132.74 C 164.59 131.97 164.81 130.52 164.04 129.49 C 163.28 128.45 161.82 128.24 160.79 129.00 Z M 159.94 129.64 L 159.16 130.25 C 158.14 131.04 157.96 132.50 158.75 133.51 C 159.54 134.52 161.00 134.70 162.01 133.92 L 162.79 133.31 C 163.80 132.52 163.98 131.06 163.20 130.05 C 162.41 129.04 160.95 128.85 159.94 129.64 Z M 159.12 130.29 L 158.37 130.89 C 157.38 131.70 157.23 133.16 158.04 134.15 C 158.85 135.15 160.31 135.30 161.31 134.49 L 162.05 133.88 C 163.04 133.07 163.19 131.61 162.38 130.62 C 161.57 129.62 160.11 129.48 159.12 130.29 Z M 158.33 130.93 L 157.54 131.61 C 156.57 132.44 156.46 133.90 157.29 134.87 C 158.13 135.85 159.59 135.96 160.56 135.12 L 161.35 134.45 C 162.32 133.61 162.43 132.15 161.60 131.18 C 160.76 130.21 159.30 130.10 158.33 130.93 Z M 157.49 131.65 L 156.72 132.35 C 155.77 133.21 155.70 134.68 156.56 135.63 C 157.42 136.57 158.89 136.64 159.84 135.78 L 160.61 135.08 C 161.56 134.22 161.63 132.75 160.76 131.81 C 159.90 130.86 158.44 130.79 157.49 131.65 Z M 156.67 132.40 L 155.95 133.09 C 155.03 133.98 155.00 135.45 155.89 136.37 C 156.78 137.29 158.25 137.32 159.17 136.43 L 159.88 135.74 C 160.81 134.85 160.83 133.38 159.95 132.46 C 159.06 131.54 157.59 131.51 156.67 132.40 Z M 155.91 133.14 L 155.23 133.83 C 154.34 134.74 154.35 136.20 155.26 137.10 C 156.18 138.00 157.64 137.98 158.54 137.07 L 159.21 136.38 C 160.11 135.47 160.09 134.00 159.18 133.11 C 158.27 132.21 156.80 132.23 155.91 133.14 Z M 155.19 133.87 L 154.55 134.55 C 153.68 135.49 153.73 136.95 154.66 137.83 C 155.60 138.70 157.06 138.65 157.94 137.71 L 158.58 137.03 C 159.45 136.09 159.40 134.63 158.46 133.75 C 157.53 132.88 156.06 132.93 155.19 133.87 Z M 154.52 134.59 L 153.86 135.33 C 153.01 136.29 153.09 137.75 154.05 138.60 C 155.00 139.45 156.46 139.37 157.31 138.41 L 157.97 137.67 C 158.82 136.72 158.74 135.26 157.78 134.41 C 156.83 133.56 155.37 133.64 154.52 134.59 Z M 153.82 135.38 L 153.18 136.13 C 152.35 137.11 152.47 138.57 153.45 139.39 C 154.42 140.22 155.89 140.10 156.71 139.12 L 157.35 138.37 C 158.18 137.39 158.06 135.93 157.08 135.11 C 156.11 134.28 154.65 134.40 153.82 135.38 Z M 153.14 136.18 L 152.52 136.96 C 151.72 137.96 151.88 139.42 152.88 140.21 C 153.88 141.01 155.33 140.85 156.13 139.85 L 156.75 139.07 C 157.55 138.07 157.39 136.62 156.39 135.82 C 155.39 135.02 153.94 135.19 153.14 136.18 Z M 152.47 137.02 L 151.87 137.82 C 151.10 138.85 151.31 140.30 152.33 141.06 C 153.36 141.83 154.81 141.62 155.57 140.60 L 156.18 139.79 C 156.94 138.77 156.73 137.32 155.71 136.55 C 154.69 135.79 153.24 136.00 152.47 137.02 Z M 151.83 137.89 L 151.24 138.72 C 150.51 139.77 150.76 141.21 151.81 141.95 C 152.86 142.68 154.30 142.42 155.03 141.38 L 155.62 140.54 C 156.35 139.49 156.09 138.05 155.05 137.31 C 154.00 136.58 152.56 136.84 151.83 137.89 Z M 151.20 138.79 L 150.63 139.65 C 149.93 140.72 150.23 142.16 151.30 142.85 C 152.37 143.55 153.80 143.25 154.50 142.18 L 155.07 141.31 C 155.77 140.25 155.47 138.81 154.40 138.11 C 153.33 137.42 151.90 137.72 151.20 138.79 Z M 150.60 139.71 L 150.06 140.58 C 149.39 141.67 149.73 143.10 150.82 143.76 C 151.91 144.43 153.33 144.09 154.00 143.00 L 154.54 142.13 C 155.21 141.04 154.86 139.62 153.78 138.95 C 152.69 138.28 151.26 138.62 150.60 139.71 Z M 150.03 140.64 L 149.53 141.50 C 148.89 142.60 149.27 144.02 150.38 144.66 C 151.48 145.29 152.90 144.92 153.53 143.81 L 154.03 142.95 C 154.67 141.84 154.29 140.43 153.19 139.79 C 152.08 139.15 150.67 139.53 150.03 140.64 Z M 149.50 141.55 L 149.05 142.37 C 148.45 143.50 148.86 144.90 149.98 145.51 C 151.11 146.12 152.51 145.70 153.12 144.58 L 153.56 143.76 C 154.17 142.63 153.76 141.23 152.64 140.62 C 151.51 140.01 150.11 140.43 149.50 141.55 Z M 149.02 142.44 L 148.54 143.41 C 147.97 144.55 148.43 145.93 149.57 146.51 C 150.71 147.08 152.10 146.61 152.67 145.47 L 153.15 144.51 C 153.72 143.37 153.26 141.98 152.12 141.41 C 150.98 140.84 149.59 141.30 149.02 142.44 Z M 148.49 143.50 L 148.09 144.42 C 147.57 145.58 148.10 146.95 149.27 147.46 C 150.43 147.98 151.80 147.45 152.31 146.29 L 152.72 145.37 C 153.23 144.21 152.71 142.84 151.54 142.33 C 150.37 141.81 149.01 142.34 148.49 143.50 Z M 148.04 144.53 L 147.71 145.42 C 147.25 146.61 147.85 147.94 149.04 148.40 C 150.23 148.85 151.57 148.25 152.02 147.06 L 152.36 146.17 C 152.81 144.98 152.21 143.65 151.02 143.19 C 149.83 142.74 148.50 143.34 148.04 144.53 Z M 147.67 145.54 L 147.38 146.43 C 146.99 147.65 147.66 148.95 148.87 149.33 C 150.08 149.72 151.38 149.05 151.77 147.84 L 152.06 146.94 C 152.45 145.73 151.78 144.43 150.57 144.04 C 149.36 143.66 148.06 144.32 147.67 145.54 Z M 147.35 146.54 L 147.10 147.47 C 146.77 148.70 147.50 149.96 148.73 150.29 C 149.96 150.62 151.22 149.90 151.55 148.67 L 151.80 147.74 C 152.13 146.51 151.40 145.24 150.17 144.91 C 148.94 144.58 147.68 145.31 147.35 146.54 Z M 147.08 147.57 L 146.86 148.55 C 146.59 149.79 147.37 151.02 148.61 151.29 C 149.85 151.57 151.08 150.79 151.35 149.55 L 151.57 148.57 C 151.85 147.33 151.07 146.10 149.83 145.83 C 148.59 145.55 147.36 146.33 147.08 147.57 Z M 146.85 148.64 L 146.66 149.67 C 146.43 150.92 147.26 152.11 148.50 152.34 C 149.75 152.57 150.95 151.74 151.18 150.50 L 151.37 149.46 C 151.60 148.22 150.77 147.02 149.52 146.79 C 148.27 146.56 147.08 147.39 146.85 148.64 Z M 146.65 149.74 L 146.50 150.70 C 146.31 151.95 147.18 153.12 148.43 153.31 C 149.68 153.50 150.85 152.64 151.04 151.39 L 151.19 150.43 C 151.38 149.17 150.51 148.01 149.26 147.81 C 148.01 147.62 146.84 148.49 146.65 149.74 Z M 146.50 150.76 L 146.38 151.74 C 146.22 153.00 147.11 154.14 148.37 154.30 C 149.62 154.46 150.77 153.57 150.92 152.31 L 151.05 151.33 C 151.20 150.07 150.31 148.93 149.06 148.77 C 147.80 148.61 146.66 149.50 146.50 150.76 Z M 146.37 151.80 L 146.27 152.81 C 146.15 154.07 147.07 155.19 148.32 155.32 C 149.58 155.44 150.70 154.52 150.83 153.26 L 150.93 152.25 C 151.05 150.99 150.13 149.87 148.87 149.75 C 147.62 149.62 146.50 150.54 146.37 151.80 Z M 146.27 152.87 L 146.19 153.89 C 146.10 155.15 147.05 156.25 148.31 156.34 C 149.57 156.43 150.67 155.49 150.76 154.22 L 150.83 153.20 C 150.92 151.94 149.98 150.85 148.72 150.76 C 147.46 150.66 146.36 151.61 146.27 152.87 Z M 146.19 153.95 L 146.15 154.95 C 146.09 156.21 147.06 157.28 148.32 157.34 C 149.58 157.39 150.65 156.42 150.71 155.16 L 150.76 154.17 C 150.82 152.90 149.84 151.84 148.58 151.78 C 147.32 151.72 146.25 152.69 146.19 153.95 Z M 146.15 154.99 L 146.12 155.99 C 146.09 157.25 147.09 158.29 148.35 158.33 C 149.61 158.36 150.65 157.36 150.69 156.10 L 150.71 155.11 C 150.74 153.85 149.75 152.80 148.49 152.77 C 147.23 152.74 146.18 153.73 146.15 154.99 Z M 146.12 156.02 L 146.11 157.02 C 146.10 158.28 147.11 159.31 148.37 159.32 C 149.63 159.34 150.66 158.33 150.67 157.07 L 150.68 156.07 C 150.70 154.81 149.69 153.78 148.43 153.76 C 147.17 153.75 146.14 154.76 146.12 156.02 Z M 146.12 157.04 L 146.11 158.05 C 146.11 159.31 147.13 160.33 148.38 160.33 C 149.64 160.33 150.66 159.32 150.67 158.06 L 150.67 157.05 C 150.67 155.79 149.66 154.77 148.40 154.77 C 147.14 154.76 146.12 155.78 146.12 157.04 Z M 146.12 158.06 L 146.12 159.04 C 146.12 160.29 147.14 161.31 148.39 161.31 C 149.65 161.31 150.67 160.29 150.66 159.04 L 150.66 158.05 C 150.66 156.80 149.65 155.78 148.39 155.78 C 147.13 155.78 146.12 156.80 146.12 158.06 Z M 146.12 159.05 L 146.13 160.03 C 146.14 161.29 147.16 162.30 148.41 162.29 C 149.67 162.28 150.68 161.25 150.67 160.00 L 150.66 159.02 C 150.65 157.77 149.63 156.76 148.37 156.77 C 147.12 156.78 146.11 157.80 146.12 159.05 Z M 146.13 160.07 L 146.16 161.07 C 146.19 162.32 147.22 163.31 148.48 163.28 C 149.73 163.25 150.72 162.21 150.69 160.96 L 150.67 159.96 C 150.63 158.71 149.60 157.72 148.34 157.75 C 147.09 157.78 146.10 158.82 146.13 160.07 Z M 146.16 161.13 L 146.21 162.14 C 146.27 163.39 147.34 164.35 148.59 164.29 C 149.84 164.23 150.80 163.16 150.74 161.91 L 150.68 160.90 C 150.62 159.65 149.56 158.69 148.31 158.75 C 147.06 158.81 146.10 159.88 146.16 161.13 Z M 146.22 162.22 L 146.31 163.24 C 146.41 164.49 147.51 165.41 148.75 165.30 C 150.00 165.20 150.92 164.10 150.81 162.86 L 150.73 161.84 C 150.62 160.59 149.53 159.67 148.28 159.77 C 147.04 159.88 146.11 160.97 146.22 162.22 Z M 146.32 163.33 L 146.44 164.31 C 146.60 165.55 147.72 166.43 148.96 166.27 C 150.20 166.12 151.07 164.99 150.92 163.76 L 150.80 162.77 C 150.65 161.54 149.52 160.66 148.28 160.81 C 147.05 160.97 146.17 162.09 146.32 163.33 Z M 146.46 164.39 L 146.62 165.38 C 146.82 166.61 147.97 167.44 149.20 167.24 C 150.43 167.05 151.26 165.89 151.06 164.67 L 150.90 163.68 C 150.71 162.45 149.55 161.61 148.32 161.81 C 147.10 162.01 146.26 163.16 146.46 164.39 Z M 146.64 165.46 L 146.84 166.45 C 147.08 167.66 148.26 168.45 149.47 168.21 C 150.69 167.97 151.48 166.79 151.24 165.58 L 151.04 164.59 C 150.80 163.37 149.62 162.58 148.41 162.82 C 147.19 163.06 146.40 164.24 146.64 165.46 Z M 146.86 166.53 L 147.09 167.50 C 147.38 168.71 148.58 169.45 149.78 169.17 C 150.99 168.88 151.73 167.68 151.45 166.48 L 151.21 165.50 C 150.93 164.30 149.73 163.55 148.52 163.83 C 147.32 164.12 146.58 165.32 146.86 166.53 Z M 147.12 167.58 L 147.39 168.55 C 147.72 169.74 148.94 170.44 150.13 170.11 C 151.32 169.78 152.01 168.55 151.69 167.37 L 151.42 166.40 C 151.09 165.21 149.86 164.51 148.67 164.84 C 147.49 165.17 146.79 166.40 147.12 167.58 Z M 147.42 168.63 L 147.73 169.60 C 148.10 170.77 149.35 171.41 150.52 171.04 C 151.68 170.67 152.33 169.42 151.96 168.26 L 151.65 167.29 C 151.28 166.12 150.03 165.47 148.86 165.85 C 147.70 166.22 147.05 167.46 147.42 168.63 Z M 147.76 169.66 L 148.10 170.61 C 148.50 171.76 149.77 172.36 150.92 171.95 C 152.06 171.55 152.67 170.28 152.26 169.14 L 151.92 168.19 C 151.52 167.04 150.26 166.44 149.11 166.85 C 147.96 167.25 147.36 168.52 147.76 169.66 Z M 148.13 170.66 L 148.48 171.59 C 148.92 172.72 150.19 173.28 151.32 172.85 C 152.45 172.41 153.02 171.15 152.58 170.01 L 152.23 169.09 C 151.79 167.95 150.52 167.39 149.39 167.82 C 148.26 168.26 147.69 169.53 148.13 170.66 Z M 148.51 171.62 L 148.88 172.53 C 149.34 173.65 150.61 174.19 151.73 173.74 C 152.84 173.28 153.38 172.01 152.93 170.89 L 152.56 169.98 C 152.10 168.86 150.83 168.32 149.71 168.78 C 148.60 169.23 148.06 170.50 148.51 171.62 Z M 148.91 172.55 L 149.29 173.47 C 149.75 174.57 151.02 175.09 152.13 174.63 C 153.23 174.16 153.75 172.89 153.29 171.79 L 152.90 170.87 C 152.44 169.77 151.17 169.25 150.06 169.71 C 148.96 170.18 148.44 171.45 148.91 172.55 Z M 149.31 173.48 L 149.71 174.39 C 150.18 175.48 151.45 175.98 152.54 175.51 C 153.63 175.04 154.13 173.77 153.66 172.68 L 153.26 171.77 C 152.79 170.68 151.52 170.18 150.43 170.65 C 149.34 171.12 148.84 172.39 149.31 173.48 Z M 149.73 174.41 L 150.14 175.32 C 150.62 176.39 151.89 176.88 152.96 176.39 C 154.04 175.91 154.52 174.65 154.04 173.57 L 153.63 172.66 C 153.15 171.59 151.89 171.11 150.81 171.59 C 149.73 172.07 149.25 173.33 149.73 174.41 Z M 150.17 175.34 L 150.59 176.25 C 151.08 177.31 152.34 177.77 153.40 177.28 C 154.46 176.78 154.92 175.52 154.43 174.46 L 154.01 173.55 C 153.52 172.49 152.26 172.03 151.20 172.53 C 150.14 173.02 149.68 174.28 150.17 175.34 Z M 150.62 176.27 L 151.06 177.18 C 151.57 178.23 152.82 178.66 153.87 178.16 C 154.91 177.66 155.35 176.40 154.84 175.36 L 154.40 174.44 C 153.90 173.40 152.64 172.96 151.60 173.46 C 150.56 173.97 150.12 175.22 150.62 176.27 Z M 151.10 177.20 L 151.56 178.12 C 152.07 179.15 153.32 179.56 154.35 179.04 C 155.37 178.53 155.79 177.28 155.27 176.26 L 154.81 175.34 C 154.29 174.31 153.04 173.90 152.02 174.41 C 150.99 174.93 150.58 176.18 151.10 177.20 Z M 151.60 178.14 L 152.08 179.05 C 152.61 180.05 153.85 180.44 154.85 179.91 C 155.85 179.38 156.24 178.14 155.71 177.14 L 155.23 176.23 C 154.70 175.23 153.46 174.85 152.46 175.38 C 151.46 175.90 151.07 177.14 151.60 178.14 Z M 152.13 179.08 L 152.62 179.96 C 153.16 180.94 154.40 181.29 155.37 180.74 C 156.35 180.20 156.70 178.97 156.15 177.99 L 155.66 177.11 C 155.12 176.14 153.88 175.79 152.91 176.33 C 151.93 176.88 151.58 178.11 152.13 179.08 Z M 152.67 180.00 L 153.17 180.83 C 153.74 181.78 154.96 182.09 155.91 181.52 C 156.85 180.96 157.16 179.74 156.60 178.79 L 156.10 177.95 C 155.53 177.01 154.31 176.70 153.36 177.26 C 152.42 177.83 152.11 179.05 152.67 180.00 Z M 153.24 180.88 L 153.79 181.73 C 154.39 182.64 155.60 182.90 156.51 182.31 C 157.42 181.71 157.67 180.50 157.08 179.59 L 156.53 178.74 C 155.94 177.83 154.72 177.58 153.81 178.17 C 152.90 178.76 152.65 179.98 153.24 180.88 Z M 153.89 181.79 L 154.51 182.65 C 155.14 183.51 156.34 183.69 157.19 183.07 C 158.05 182.44 158.24 181.24 157.61 180.38 L 156.99 179.53 C 156.36 178.67 155.16 178.49 154.31 179.11 C 153.45 179.74 153.26 180.94 153.89 181.79 Z M 154.62 182.71 L 155.25 183.47 C 155.91 184.27 157.09 184.38 157.88 183.72 C 158.68 183.06 158.79 181.88 158.13 181.08 L 157.51 180.32 C 156.85 179.53 155.67 179.42 154.87 180.07 C 154.07 180.73 153.96 181.91 154.62 182.71 Z M 155.36 183.52 L 156.00 184.20 C 156.68 184.94 157.84 184.97 158.57 184.29 C 159.31 183.60 159.35 182.44 158.66 181.71 L 158.02 181.03 C 157.33 180.29 156.18 180.26 155.44 180.95 C 154.71 181.64 154.67 182.79 155.36 183.52 Z M 156.12 184.26 L 156.84 184.93 C 157.56 185.60 158.69 185.56 159.36 184.84 C 160.03 184.12 159.98 182.99 159.26 182.33 L 158.54 181.65 C 157.82 180.98 156.69 181.02 156.02 181.74 C 155.35 182.46 155.40 183.59 156.12 184.26 Z M 157.00 185.01 L 157.79 185.62 C 158.56 186.20 159.65 186.05 160.23 185.28 C 160.81 184.52 160.66 183.43 159.90 182.85 L 159.10 182.25 C 158.34 181.66 157.25 181.81 156.67 182.58 C 156.09 183.34 156.24 184.43 157.00 185.01 Z M 158.01 185.71 L 158.86 186.20 C 159.68 186.66 160.72 186.37 161.18 185.55 C 161.64 184.74 161.36 183.70 160.54 183.24 L 159.68 182.75 C 158.87 182.29 157.83 182.58 157.37 183.39 C 156.90 184.21 157.19 185.25 158.01 185.71 Z M 159.11 186.28 L 160.02 186.62 C 160.88 186.95 161.84 186.52 162.17 185.65 C 162.50 184.79 162.06 183.83 161.20 183.50 L 160.29 183.16 C 159.43 182.83 158.47 183.26 158.14 184.12 C 157.81 184.99 158.25 185.95 159.11 186.28 Z M 160.22 186.67 L 161.17 186.90 C 162.05 187.12 162.95 186.57 163.17 185.69 C 163.38 184.80 162.84 183.90 161.95 183.69 L 161.00 183.45 C 160.11 183.24 159.22 183.78 159.00 184.67 C 158.78 185.56 159.33 186.45 160.22 186.67 Z M 161.29 186.92 L 162.29 187.09 C 163.19 187.24 164.04 186.63 164.19 185.74 C 164.34 184.84 163.73 183.99 162.83 183.84 L 161.83 183.67 C 160.94 183.52 160.09 184.12 159.94 185.02 C 159.78 185.92 160.39 186.77 161.29 186.92 Z M 162.34 187.09 L 163.26 187.21 C 164.15 187.33 164.98 186.70 165.10 185.81 C 165.22 184.91 164.59 184.08 163.70 183.96 L 162.78 183.84 C 161.88 183.72 161.06 184.35 160.94 185.24 C 160.82 186.14 161.44 186.97 162.34 187.09 Z"
      fill="black"
      fill-rule="nonzero" /><path d="M 174.70 116.34 L 174.97 117.32 C 175.31 118.52 176.55 119.22 177.75 118.88 C 178.95 118.55 179.65 117.31 179.31 116.11 L 179.04 115.13 C 178.71 113.93 177.46 113.23 176.26 113.56 C 175.06 113.90 174.36 115.14 174.70 116.34 Z M 175.02 117.39 L 175.32 118.35 C 175.70 119.52 176.95 120.17 178.12 119.80 C 179.30 119.43 179.94 118.17 179.57 117.00 L 179.27 116.04 C 178.90 114.87 177.64 114.22 176.47 114.59 C 175.30 114.96 174.65 116.22 175.02 117.39 Z M 175.40 118.49 L 175.77 119.41 C 176.22 120.54 177.50 121.09 178.63 120.63 C 179.76 120.18 180.31 118.90 179.86 117.77 L 179.49 116.86 C 179.04 115.73 177.76 115.18 176.63 115.63 C 175.50 116.08 174.95 117.36 175.40 118.49 Z M 175.89 119.62 L 176.33 120.43 C 176.90 121.49 178.22 121.89 179.28 121.33 C 180.34 120.76 180.74 119.44 180.17 118.38 L 179.74 117.56 C 179.17 116.50 177.85 116.10 176.79 116.67 C 175.72 117.23 175.32 118.55 175.89 119.62 Z M 176.47 120.62 L 176.99 121.38 C 177.66 122.36 179.00 122.61 179.98 121.94 C 180.97 121.26 181.22 119.92 180.54 118.94 L 180.03 118.19 C 179.35 117.20 178.01 116.95 177.03 117.63 C 176.05 118.30 175.80 119.64 176.47 120.62 Z M 177.10 121.48 L 177.72 122.26 C 178.45 123.18 179.79 123.34 180.71 122.61 C 181.63 121.87 181.78 120.54 181.05 119.61 L 180.44 118.84 C 179.70 117.91 178.37 117.76 177.44 118.49 C 176.52 119.22 176.37 120.56 177.10 121.48 Z M 177.77 122.29 L 178.50 123.15 C 179.24 124.04 180.57 124.15 181.46 123.41 C 182.35 122.66 182.47 121.33 181.72 120.44 L 180.99 119.58 C 180.25 118.69 178.92 118.58 178.03 119.33 C 177.14 120.07 177.03 121.40 177.77 122.29 Z M 178.52 123.14 L 179.18 123.91 C 179.92 124.78 181.23 124.89 182.10 124.15 C 182.97 123.41 183.08 122.11 182.34 121.23 L 181.69 120.46 C 180.95 119.58 179.64 119.47 178.77 120.21 C 177.89 120.95 177.78 122.26 178.52 123.14 Z M 179.22 123.90 L 179.90 124.69 C 180.64 125.54 181.93 125.63 182.78 124.89 C 183.63 124.15 183.72 122.87 182.98 122.02 L 182.30 121.24 C 181.56 120.39 180.28 120.30 179.43 121.03 C 178.58 121.77 178.49 123.05 179.22 123.90 Z M 179.98 124.71 L 180.69 125.48 C 181.44 126.29 182.70 126.34 183.51 125.59 C 184.32 124.84 184.37 123.57 183.62 122.76 L 182.91 122.00 C 182.16 121.19 180.89 121.14 180.08 121.89 C 179.27 122.64 179.23 123.90 179.98 124.71 Z M 180.79 125.53 L 181.52 126.23 C 182.30 126.98 183.54 126.95 184.29 126.17 C 185.04 125.39 185.01 124.15 184.23 123.40 L 183.51 122.71 C 182.73 121.96 181.49 121.98 180.74 122.76 C 179.99 123.54 180.01 124.78 180.79 125.53 Z M 181.68 126.32 L 182.42 126.90 C 183.25 127.56 184.46 127.42 185.12 126.59 C 185.77 125.76 185.63 124.55 184.80 123.89 L 184.07 123.31 C 183.23 122.65 182.03 122.79 181.37 123.63 C 180.71 124.46 180.85 125.66 181.68 126.32 Z M 182.73 127.04 L 183.70 127.56 C 184.61 128.04 185.74 127.70 186.22 126.79 C 186.71 125.89 186.36 124.76 185.46 124.27 L 184.49 123.76 C 183.58 123.27 182.45 123.61 181.97 124.52 C 181.48 125.43 181.83 126.55 182.73 127.04 Z M 184.08 127.63 L 185.02 127.90 C 185.96 128.17 186.95 127.63 187.23 126.69 C 187.50 125.74 186.96 124.75 186.01 124.48 L 185.08 124.20 C 184.13 123.93 183.14 124.47 182.87 125.42 C 182.59 126.36 183.14 127.35 184.08 127.63 Z M 185.27 127.88 L 186.19 128.01 C 187.12 128.14 187.99 127.49 188.12 126.56 C 188.25 125.63 187.61 124.76 186.67 124.63 L 185.76 124.50 C 184.83 124.37 183.96 125.01 183.83 125.95 C 183.69 126.88 184.34 127.74 185.27 127.88 Z M 186.26 127.97 L 186.55 127.99 C 187.46 128.09 188.27 127.43 188.37 126.52 C 188.46 125.61 187.80 124.79 186.89 124.70 L 186.60 124.67 C 185.69 124.58 184.88 125.24 184.78 126.15 C 184.69 127.06 185.35 127.87 186.26 127.97 Z"
      fill="black"
      fill-rule="nonzero" /><path d="M 184.35 116.53 L 184.77 117.37 C 185.21 118.25 186.29 118.60 187.17 118.16 C 188.05 117.72 188.41 116.64 187.97 115.76 L 187.55 114.93 C 187.11 114.05 186.03 113.69 185.15 114.13 C 184.27 114.58 183.91 115.65 184.35 116.53 Z M 184.70 117.41 L 185.13 118.26 C 185.60 119.18 186.73 119.54 187.65 119.07 C 188.57 118.60 188.94 117.48 188.47 116.56 L 188.03 115.71 C 187.56 114.79 186.44 114.43 185.52 114.90 C 184.60 115.37 184.23 116.49 184.70 117.41 Z M 185.07 118.32 L 185.53 119.18 C 186.03 120.14 187.22 120.50 188.17 120.00 C 189.12 119.49 189.49 118.31 188.98 117.36 L 188.53 116.49 C 188.02 115.54 186.84 115.18 185.89 115.68 C 184.93 116.18 184.57 117.37 185.07 118.32 Z M 185.48 119.26 L 185.97 120.16 C 186.52 121.14 187.76 121.50 188.74 120.95 C 189.72 120.41 190.08 119.17 189.54 118.19 L 189.04 117.29 C 188.49 116.30 187.26 115.95 186.27 116.49 C 185.29 117.04 184.93 118.27 185.48 119.26 Z M 185.92 120.24 L 186.47 121.18 C 187.06 122.19 188.36 122.53 189.37 121.94 C 190.38 121.35 190.72 120.06 190.13 119.05 L 189.58 118.10 C 188.99 117.09 187.70 116.75 186.69 117.34 C 185.68 117.93 185.33 119.23 185.92 120.24 Z M 186.47 121.24 L 186.99 122.10 C 187.61 123.11 188.94 123.43 189.96 122.80 C 190.97 122.18 191.29 120.85 190.67 119.84 L 190.14 118.98 C 189.52 117.97 188.19 117.65 187.17 118.27 C 186.16 118.90 185.84 120.23 186.47 121.24 Z M 187.02 122.12 L 187.57 122.97 C 188.20 123.97 189.53 124.26 190.52 123.62 C 191.52 122.98 191.81 121.66 191.18 120.66 L 190.63 119.81 C 190.00 118.82 188.67 118.52 187.68 119.16 C 186.68 119.80 186.39 121.12 187.02 122.12 Z M 187.60 122.98 L 188.17 123.84 C 188.81 124.82 190.12 125.09 191.10 124.44 C 192.08 123.80 192.35 122.49 191.70 121.51 L 191.14 120.65 C 190.50 119.68 189.18 119.41 188.21 120.05 C 187.23 120.69 186.96 122.00 187.60 122.98 Z M 188.20 123.84 L 188.78 124.70 C 189.42 125.66 190.72 125.91 191.68 125.27 C 192.64 124.62 192.89 123.32 192.25 122.36 L 191.67 121.51 C 191.03 120.55 189.73 120.30 188.77 120.94 C 187.81 121.59 187.56 122.89 188.20 123.84 Z M 188.81 124.70 L 189.38 125.53 C 190.03 126.47 191.31 126.71 192.25 126.07 C 193.19 125.42 193.43 124.14 192.79 123.20 L 192.21 122.36 C 191.57 121.42 190.28 121.18 189.34 121.83 C 188.40 122.47 188.16 123.76 188.81 124.70 Z M 189.41 125.53 L 189.97 126.33 C 190.61 127.25 191.88 127.48 192.81 126.84 C 193.73 126.19 193.96 124.92 193.31 124.00 L 192.76 123.20 C 192.11 122.28 190.84 122.05 189.92 122.69 C 188.99 123.34 188.77 124.61 189.41 125.53 Z M 189.98 126.33 L 190.59 127.20 C 191.24 128.11 192.50 128.33 193.42 127.68 C 194.34 127.04 194.55 125.77 193.91 124.86 L 193.30 123.99 C 192.65 123.08 191.39 122.86 190.47 123.51 C 189.56 124.15 189.34 125.42 189.98 126.33 Z M 190.59 127.22 L 191.22 128.09 C 191.87 129.01 193.15 129.22 194.07 128.56 C 194.98 127.91 195.20 126.63 194.54 125.71 L 193.91 124.84 C 193.25 123.92 191.98 123.71 191.06 124.37 C 190.14 125.02 189.93 126.30 190.59 127.22 Z M 191.20 128.12 L 191.79 128.93 C 192.46 129.85 193.76 130.06 194.68 129.39 C 195.60 128.72 195.81 127.42 195.14 126.50 L 194.55 125.69 C 193.88 124.76 192.59 124.56 191.66 125.23 C 190.74 125.90 190.53 127.19 191.20 128.12 Z M 191.78 128.95 L 192.34 129.71 C 193.02 130.65 194.33 130.85 195.26 130.17 C 196.20 129.48 196.40 128.17 195.71 127.24 L 195.15 126.47 C 194.47 125.54 193.16 125.34 192.23 126.02 C 191.29 126.71 191.09 128.02 191.78 128.95 Z M 192.32 129.74 L 192.86 130.47 C 193.56 131.41 194.89 131.61 195.83 130.92 C 196.77 130.22 196.97 128.90 196.27 127.95 L 195.73 127.22 C 195.04 126.27 193.71 126.07 192.77 126.77 C 191.82 127.47 191.62 128.79 192.32 129.74 Z M 192.85 130.48 L 193.01 130.70 C 193.71 131.65 195.05 131.85 196.00 131.14 C 196.95 130.44 197.15 129.10 196.44 128.16 L 196.29 127.94 C 195.59 126.99 194.25 126.79 193.30 127.49 C 192.35 128.20 192.15 129.53 192.85 130.48 Z"
      fill="black"
      fill-rule="nonzero" /></svg>