<svg xmlns="http://www.w3.org/2000/svg" version="1.0" width="937.000000pt" height="937.000000pt" viewBox="0 0 937.000000 937.000000" preserveAspectRatio="xMidYMid meet">
  <defs/>
  <path fill="#000000" d="M543.6,344.1 C542.1,345.2 541,347.2 541,348.5 C541,350.8 550.8,364.4 560.7,375.7 C566.3,382.2 569.9,383.7 572.8,380.8 C576.1,377.5 573.1,371.4 559.8,354.3 C549.8,341.3 548.3,340.4 543.6,344.1 Z"/>
  <path fill="#000000" d="M465.4,343.8 C462.1,346 462,348 462,464.8 L462,580.8 L460.5,583.6 C458.6,587.4 458.6,595 460.6,597.8 C462.5,600.6 467.1,600.7 469.5,598 C473.7,593.3 474.2,586.5 474.7,526.8 L475.2,470 L477.2,471.1 C478.4,471.7 492,484.8 507.6,500.1 C524.5,516.7 537,528.2 538.6,528.6 C543.9,529.9 548.7,524.7 546.4,520.2 C544.6,516.7 486.3,460.3 480.8,456.7 L475.1,452.9 L474.8,399.4 L474.5,345.8 L472.6,344.4 C470.5,342.9 467.2,342.6 465.4,343.8 Z"/>
  <path fill="#000000" d="M516,355 C513.2,357.8 513.5,359.7 517.4,366.3 C521.8,373.6 535.8,388.9 538.8,389.6 C540.3,390 541.8,389.6 543,388.5 C546.6,385.3 545.5,382 537.9,372.5 C534,367.7 529.7,361.9 528.2,359.6 C526.8,357.3 524.9,354.9 524.1,354.2 C521.9,352.4 518.3,352.7 516,355 Z"/>
</svg>

