<svg xmlns="http://www.w3.org/2000/svg" version="1.0" width="937.000000pt" height="937.000000pt" viewBox="0 0 937.000000 937.000000" preserveAspectRatio="xMidYMid meet">
  <defs/>
  <path fill="#000000" d="M613,349.5 C609.6,353.6 614.9,366.5 624,376.3 C631.8,384.8 633.4,385.7 636.6,383.5 C640,381.3 639.6,378.3 635.1,372.2 C632.9,369.3 629.2,363.5 626.9,359.2 C624.6,355 622,350.7 621.2,349.7 C619.3,347.6 614.7,347.5 613,349.5 Z"/>
  <path fill="#000000" d="M582.4,350.8 C581.8,351.2 580.8,352.5 580.1,353.8 C578.5,356.8 581.1,367.1 584.5,371.6 C590.5,379.4 603.2,387.9 611.6,389.6 C615.5,390.3 618.5,387.3 617.6,383.5 C617.1,381.6 615.5,380.3 611.6,378.6 C602.1,374.4 594.1,365.4 592.6,357.1 C592.3,355.2 591.2,352.8 590.3,351.8 C588.7,350 584.4,349.4 582.4,350.8 Z"/>
  <path fill="#000000" d="M518.6,391 C509.6,392.5 496.1,396.3 475.4,403.6 C453,411.4 431.6,417.5 409,422.6 C392.3,426.4 383.8,427.1 374.5,425.6 L369.5,424.8 L367.7,426.8 C366.5,428.1 366,430 366.2,432.2 L366.5,435.5 L370.3,437.3 C372.3,438.4 376.9,439.7 380.3,440.3 L386.5,441.3 L400,438.6 C422.1,434.1 446.5,427.5 463.5,421.5 C509.9,405.1 517.5,403 532,403 C545.4,403 545.1,402.8 560.1,417.9 C570.2,428.1 574.4,433 576.6,437.5 L579.5,443.5 L579.5,456.5 L579.5,469.5 L575.8,477.2 C573.8,481.5 569.8,488.4 566.9,492.6 C549.7,517.5 510.1,545.9 492.5,546 C487.2,546 484,548.3 484,552 C484,556.1 486.8,557.3 494.3,556.5 C503.7,555.5 512.5,552.6 524,546.7 C538.5,539.4 550.7,530.5 563,518.1 C574.8,506.2 582.3,495.9 588,483.7 C592.8,473.5 594.4,464.5 593.7,452.1 C593.1,441.1 590.8,433.5 585.9,426.3 C580.5,418.4 558.5,396.6 552.7,393.4 L547.5,390.6 L536,390.4 C529.7,390.2 521.8,390.5 518.6,391 Z"/>
</svg>

