<svg xmlns="http://www.w3.org/2000/svg" width="300" height="300" viewBox="0 0 300 300">
<path d="M 119.04 119.29 L 119.05 120.17 C 119.05 121.33 120.00 122.26 121.17 122.25 C 122.33 122.24 123.26 121.30 123.25 120.13 L 123.25 119.25 C 123.24 118.09 122.29 117.16 121.13 117.17 C 119.96 117.18 119.03 118.12 119.04 119.29 Z M 119.05 120.26 L 119.10 121.18 C 119.16 122.34 120.14 123.23 121.31 123.17 C 122.47 123.11 123.36 122.12 123.30 120.96 L 123.25 120.04 C 123.19 118.88 122.20 117.99 121.04 118.05 C 119.88 118.11 118.99 119.10 119.05 120.26 Z M 119.11 121.34 L 119.24 122.33 C 119.39 123.48 120.44 124.30 121.60 124.15 C 122.75 124.00 123.56 122.94 123.41 121.79 L 123.28 120.80 C 123.14 119.64 122.08 118.83 120.93 118.98 C 119.77 119.13 118.96 120.18 119.11 121.34 Z M 119.27 122.52 L 119.52 123.63 C 119.78 124.77 120.91 125.48 122.04 125.22 C 123.17 124.97 123.88 123.84 123.63 122.71 L 123.38 121.60 C 123.12 120.46 122.00 119.75 120.86 120.01 C 119.73 120.26 119.02 121.39 119.27 122.52 Z M 119.57 123.80 L 119.86 124.73 C 120.20 125.83 121.38 126.45 122.49 126.11 C 123.60 125.76 124.22 124.58 123.87 123.47 L 123.58 122.54 C 123.24 121.44 122.06 120.82 120.95 121.16 C 119.84 121.51 119.22 122.69 119.57 123.80 Z M 119.89 124.83 L 120.22 125.72 C 120.62 126.81 121.83 127.37 122.92 126.97 C 124.01 126.57 124.57 125.36 124.17 124.27 L 123.84 123.37 C 123.44 122.28 122.23 121.72 121.14 122.13 C 120.05 122.53 119.49 123.74 119.89 124.83 Z M 120.25 125.79 L 120.63 126.72 C 121.07 127.80 122.29 128.31 123.37 127.88 C 124.44 127.44 124.96 126.21 124.52 125.14 L 124.14 124.20 C 123.70 123.13 122.48 122.61 121.40 123.05 C 120.33 123.48 119.81 124.71 120.25 125.79 Z M 120.65 126.77 L 121.06 127.72 C 121.53 128.79 122.77 129.27 123.83 128.81 C 124.89 128.35 125.38 127.11 124.92 126.04 L 124.50 125.09 C 124.04 124.03 122.80 123.54 121.74 124.00 C 120.67 124.47 120.19 125.70 120.65 126.77 Z M 121.08 127.76 L 121.51 128.71 C 122.00 129.76 123.24 130.23 124.30 129.75 C 125.35 129.27 125.82 128.02 125.34 126.96 L 124.90 126.01 C 124.42 124.95 123.17 124.49 122.12 124.97 C 121.06 125.45 120.60 126.70 121.08 127.76 Z M 121.53 128.73 L 121.97 129.66 C 122.46 130.71 123.71 131.16 124.76 130.67 C 125.81 130.17 126.26 128.92 125.77 127.87 L 125.33 126.94 C 124.83 125.89 123.58 125.44 122.53 125.94 C 121.48 126.43 121.03 127.68 121.53 128.73 Z M 121.98 129.67 L 122.43 130.62 C 122.93 131.66 124.18 132.10 125.22 131.60 C 126.27 131.10 126.71 129.85 126.21 128.81 L 125.75 127.86 C 125.25 126.82 124.00 126.38 122.96 126.88 C 121.92 127.38 121.48 128.63 121.98 129.67 Z M 122.45 130.62 L 122.91 131.57 C 123.41 132.60 124.66 133.03 125.69 132.53 C 126.72 132.03 127.15 130.78 126.65 129.75 L 126.19 128.80 C 125.68 127.77 124.44 127.34 123.41 127.84 C 122.37 128.35 121.95 129.59 122.45 130.62 Z M 122.94 131.58 L 123.39 132.48 C 123.90 133.50 125.13 133.91 126.15 133.40 C 127.17 132.90 127.58 131.66 127.07 130.64 L 126.62 129.74 C 126.11 128.72 124.88 128.31 123.86 128.82 C 122.84 129.33 122.43 130.56 122.94 131.58 Z M 123.42 132.50 L 123.87 133.36 C 124.38 134.36 125.61 134.76 126.61 134.24 C 127.61 133.73 128.00 132.50 127.49 131.50 L 127.04 130.63 C 126.53 129.63 125.30 129.23 124.30 129.75 C 123.30 130.27 122.90 131.49 123.42 132.50 Z M 123.90 133.38 L 124.35 134.23 C 124.88 135.21 126.10 135.58 127.08 135.06 C 128.07 134.53 128.44 133.31 127.91 132.32 L 127.46 131.48 C 126.93 130.50 125.71 130.12 124.73 130.65 C 123.74 131.18 123.37 132.40 123.90 133.38 Z M 124.39 134.25 L 124.85 135.09 C 125.39 136.05 126.61 136.40 127.57 135.86 C 128.54 135.32 128.88 134.10 128.34 133.14 L 127.87 132.30 C 127.34 131.34 126.12 131.00 125.16 131.53 C 124.19 132.07 123.85 133.29 124.39 134.25 Z M 124.89 135.11 L 125.41 136.00 C 125.96 136.94 127.17 137.26 128.11 136.71 C 129.06 136.16 129.37 134.95 128.82 134.01 L 128.30 133.12 C 127.75 132.18 126.54 131.86 125.60 132.41 C 124.66 132.96 124.34 134.17 124.89 135.11 Z M 125.46 136.02 L 126.00 136.91 C 126.56 137.83 127.76 138.11 128.68 137.55 C 129.59 136.99 129.88 135.79 129.32 134.88 L 128.78 133.99 C 128.22 133.07 127.02 132.78 126.10 133.35 C 125.19 133.91 124.90 135.10 125.46 136.02 Z M 126.05 136.93 L 126.60 137.79 C 127.17 138.68 128.36 138.94 129.25 138.37 C 130.14 137.80 130.40 136.61 129.83 135.72 L 129.28 134.86 C 128.71 133.97 127.52 133.71 126.63 134.28 C 125.74 134.85 125.48 136.04 126.05 136.93 Z M 126.65 137.81 L 127.20 138.64 C 127.79 139.50 128.96 139.73 129.83 139.15 C 130.69 138.57 130.92 137.39 130.34 136.53 L 129.78 135.70 C 129.20 134.84 128.03 134.61 127.16 135.19 C 126.30 135.77 126.07 136.95 126.65 137.81 Z M 127.25 138.66 L 127.80 139.43 C 128.39 140.26 129.56 140.46 130.39 139.86 C 131.23 139.27 131.43 138.11 130.83 137.27 L 130.29 136.50 C 129.69 135.67 128.53 135.47 127.69 136.07 C 126.86 136.66 126.66 137.82 127.25 138.66 Z M 127.87 139.46 L 128.51 140.30 C 129.12 141.10 130.27 141.25 131.07 140.64 C 131.87 140.03 132.02 138.88 131.41 138.08 L 130.77 137.24 C 130.15 136.44 129.01 136.29 128.21 136.90 C 127.41 137.51 127.25 138.66 127.87 139.46 Z M 128.60 140.34 L 129.28 141.14 C 129.92 141.89 131.04 141.99 131.79 141.35 C 132.54 140.72 132.63 139.59 132.00 138.84 L 131.32 138.04 C 130.68 137.29 129.56 137.19 128.81 137.83 C 128.06 138.47 127.96 139.59 128.60 140.34 Z M 129.39 141.20 L 130.06 141.89 C 130.73 142.58 131.82 142.60 132.51 141.93 C 133.20 141.27 133.22 140.17 132.56 139.48 L 131.89 138.79 C 131.22 138.10 130.12 138.08 129.44 138.75 C 128.75 139.41 128.73 140.51 129.39 141.20 Z M 130.19 141.94 L 130.86 142.55 C 131.56 143.17 132.62 143.11 133.24 142.42 C 133.86 141.73 133.80 140.66 133.11 140.04 L 132.43 139.43 C 131.74 138.81 130.68 138.87 130.05 139.56 C 129.43 140.26 129.49 141.32 130.19 141.94 Z M 130.99 142.61 L 131.77 143.20 C 132.49 143.76 133.53 143.62 134.08 142.89 C 134.63 142.17 134.49 141.13 133.77 140.58 L 132.99 139.98 C 132.26 139.43 131.23 139.57 130.68 140.29 C 130.12 141.02 130.26 142.05 130.99 142.61 Z M 131.86 143.25 L 132.70 143.81 C 133.45 144.31 134.46 144.10 134.96 143.35 C 135.46 142.59 135.26 141.58 134.50 141.08 L 133.67 140.53 C 132.92 140.03 131.90 140.23 131.40 140.99 C 130.91 141.74 131.11 142.75 131.86 143.25 Z M 132.76 143.83 L 133.61 144.35 C 134.38 144.81 135.38 144.56 135.84 143.80 C 136.31 143.03 136.06 142.03 135.29 141.57 L 134.44 141.05 C 133.67 140.59 132.67 140.84 132.21 141.60 C 131.75 142.37 131.99 143.37 132.76 143.83 Z M 133.64 144.35 L 134.19 144.67 C 134.96 145.12 135.95 144.86 136.39 144.09 C 136.84 143.31 136.58 142.32 135.81 141.88 L 135.26 141.56 C 134.49 141.11 133.50 141.37 133.06 142.15 C 132.61 142.92 132.87 143.91 133.64 144.35 Z"
      fill="black"
      fill-rule="nonzero" /><path d="M 146.91 114.19 L 146.91 115.24 C 146.91 116.40 147.85 117.33 149.01 117.33 C 150.16 117.33 151.10 116.39 151.10 115.24 L 151.10 114.19 C 151.10 113.04 150.16 112.10 149.00 112.10 C 147.85 112.10 146.91 113.04 146.91 114.19 Z M 146.89 115.25 L 146.90 116.28 C 146.90 117.44 147.85 118.38 149.02 118.38 C 150.19 118.37 151.13 117.42 151.12 116.26 L 151.12 115.23 C 151.11 114.06 150.16 113.12 149.00 113.13 C 147.83 113.13 146.89 114.08 146.89 115.25 Z M 146.88 116.29 L 146.89 117.29 C 146.91 118.47 147.87 119.41 149.05 119.39 C 150.23 119.38 151.17 118.41 151.15 117.24 L 151.14 116.24 C 151.13 115.06 150.16 114.12 148.98 114.14 C 147.81 114.15 146.87 115.12 146.88 116.29 Z M 146.88 117.32 L 146.90 118.27 C 146.93 119.46 147.92 120.39 149.10 120.36 C 150.29 120.33 151.23 119.34 151.19 118.16 L 151.17 117.21 C 151.14 116.02 150.15 115.09 148.97 115.12 C 147.78 115.15 146.85 116.14 146.88 117.32 Z M 146.89 118.32 L 146.94 119.36 C 147.00 120.55 148.01 121.47 149.20 121.42 C 150.39 121.36 151.31 120.35 151.25 119.16 L 151.20 118.11 C 151.15 116.92 150.14 116.00 148.95 116.06 C 147.76 116.12 146.84 117.13 146.89 118.32 Z M 146.95 119.43 L 147.03 120.45 C 147.12 121.64 148.16 122.53 149.35 122.43 C 150.54 122.34 151.43 121.29 151.33 120.11 L 151.25 119.09 C 151.16 117.90 150.11 117.01 148.93 117.11 C 147.74 117.20 146.85 118.24 146.95 119.43 Z M 147.04 120.54 L 147.15 121.49 C 147.29 122.67 148.37 123.52 149.55 123.37 C 150.74 123.23 151.58 122.16 151.44 120.97 L 151.32 120.02 C 151.18 118.84 150.10 117.99 148.92 118.14 C 147.74 118.28 146.89 119.35 147.04 120.54 Z M 147.17 121.59 L 147.33 122.53 C 147.52 123.70 148.63 124.49 149.81 124.30 C 150.98 124.10 151.78 122.99 151.58 121.81 L 151.42 120.87 C 151.22 119.70 150.11 118.91 148.94 119.10 C 147.76 119.30 146.97 120.41 147.17 121.59 Z M 147.35 122.61 L 147.56 123.59 C 147.80 124.75 148.94 125.49 150.10 125.24 C 151.26 125.00 152.00 123.86 151.76 122.70 L 151.55 121.73 C 151.31 120.57 150.17 119.82 149.01 120.07 C 147.85 120.31 147.11 121.45 147.35 122.61 Z M 147.58 123.63 L 147.81 124.60 C 148.08 125.74 149.22 126.46 150.37 126.19 C 151.52 125.92 152.23 124.78 151.96 123.63 L 151.73 122.66 C 151.47 121.51 150.32 120.80 149.17 121.07 C 148.03 121.33 147.31 122.48 147.58 123.63 Z M 147.82 124.59 L 148.04 125.54 C 148.30 126.68 149.44 127.40 150.58 127.13 C 151.72 126.87 152.43 125.74 152.17 124.60 L 151.95 123.64 C 151.69 122.50 150.55 121.79 149.41 122.05 C 148.27 122.31 147.56 123.45 147.82 124.59 Z M 148.05 125.51 L 148.25 126.41 C 148.49 127.55 149.60 128.27 150.74 128.02 C 151.87 127.78 152.59 126.67 152.35 125.53 L 152.16 124.63 C 151.91 123.50 150.80 122.78 149.67 123.02 C 148.53 123.26 147.81 124.38 148.05 125.51 Z M 148.27 126.40 L 148.47 127.36 C 148.71 128.48 149.81 129.20 150.93 128.97 C 152.05 128.73 152.77 127.63 152.53 126.51 L 152.33 125.55 C 152.09 124.42 150.99 123.71 149.87 123.94 C 148.75 124.18 148.03 125.28 148.27 126.40 Z M 148.50 127.37 L 148.73 128.43 C 148.97 129.53 150.06 130.23 151.17 129.99 C 152.28 129.75 152.98 128.65 152.73 127.55 L 152.50 126.50 C 152.26 125.39 151.17 124.69 150.06 124.93 C 148.96 125.17 148.26 126.27 148.50 127.37 Z M 148.76 128.45 L 148.99 129.43 C 149.24 130.52 150.33 131.20 151.42 130.94 C 152.51 130.69 153.19 129.60 152.93 128.51 L 152.71 127.53 C 152.45 126.44 151.36 125.76 150.27 126.01 C 149.18 126.27 148.50 127.36 148.76 128.45 Z M 149.01 129.44 L 149.25 130.41 C 149.51 131.49 150.60 132.15 151.67 131.89 C 152.75 131.63 153.41 130.54 153.14 129.47 L 152.91 128.49 C 152.65 127.42 151.56 126.76 150.49 127.02 C 149.41 127.28 148.75 128.37 149.01 129.44 Z M 149.27 130.42 L 149.52 131.41 C 149.78 132.47 150.86 133.12 151.92 132.86 C 152.98 132.60 153.63 131.52 153.37 130.46 L 153.12 129.46 C 152.86 128.40 151.78 127.75 150.72 128.02 C 149.66 128.28 149.01 129.35 149.27 130.42 Z M 149.54 131.41 L 149.79 132.39 C 150.05 133.44 151.11 134.08 152.16 133.82 C 153.21 133.56 153.85 132.50 153.59 131.45 L 153.34 130.47 C 153.08 129.42 152.02 128.78 150.97 129.04 C 149.92 129.30 149.28 130.36 149.54 131.41 Z M 149.81 132.38 L 150.05 133.38 C 150.30 134.41 151.35 135.05 152.38 134.80 C 153.42 134.55 154.06 133.50 153.81 132.47 L 153.56 131.47 C 153.31 130.43 152.27 129.80 151.23 130.05 C 150.20 130.30 149.56 131.34 149.81 132.38 Z M 150.09 133.36 L 150.34 134.40 C 150.58 135.42 151.60 136.05 152.62 135.81 C 153.63 135.56 154.26 134.54 154.02 133.53 L 153.77 132.48 C 153.53 131.47 152.51 130.84 151.49 131.08 C 150.48 131.32 149.85 132.34 150.09 133.36 Z M 150.39 134.41 L 150.63 135.38 C 150.88 136.37 151.88 136.97 152.87 136.72 C 153.86 136.47 154.46 135.47 154.21 134.49 L 153.97 133.52 C 153.72 132.53 152.72 131.93 151.73 132.18 C 150.74 132.43 150.14 133.43 150.39 134.41 Z M 150.69 135.43 L 150.95 136.33 C 151.22 137.28 152.22 137.83 153.17 137.56 C 154.12 137.29 154.67 136.30 154.40 135.34 L 154.15 134.44 C 153.88 133.49 152.88 132.94 151.93 133.21 C 150.98 133.48 150.42 134.47 150.69 135.43 Z M 151.02 136.41 L 151.35 137.33 C 151.66 138.24 152.66 138.73 153.57 138.41 C 154.49 138.09 154.97 137.09 154.65 136.18 L 154.33 135.26 C 154.01 134.35 153.01 133.86 152.10 134.18 C 151.19 134.50 150.71 135.50 151.02 136.41 Z M 151.42 137.42 L 151.81 138.35 C 152.18 139.22 153.19 139.63 154.06 139.26 C 154.93 138.89 155.33 137.89 154.97 137.02 L 154.57 136.09 C 154.21 135.22 153.20 134.81 152.33 135.18 C 151.46 135.55 151.05 136.55 151.42 137.42 Z M 151.88 138.40 L 152.30 139.29 C 152.70 140.13 153.70 140.48 154.53 140.08 C 155.37 139.69 155.72 138.69 155.32 137.85 L 154.90 136.96 C 154.50 136.13 153.50 135.77 152.67 136.17 C 151.84 136.57 151.48 137.57 151.88 138.40 Z M 152.34 139.31 L 152.61 139.85 C 153.02 140.66 154.01 141.00 154.82 140.59 C 155.63 140.19 155.96 139.20 155.56 138.39 L 155.29 137.84 C 154.88 137.03 153.89 136.70 153.08 137.10 C 152.27 137.51 151.94 138.49 152.34 139.31 Z"
      fill="black"
      fill-rule="nonzero" /><path d="M 178.15 115.69 L 178.06 116.62 C 177.95 117.78 178.81 118.81 179.97 118.92 C 181.14 119.03 182.17 118.17 182.27 117.01 L 182.36 116.08 C 182.47 114.92 181.62 113.89 180.45 113.78 C 179.29 113.67 178.26 114.53 178.15 115.69 Z M 178.04 116.64 L 177.97 117.61 C 177.87 118.78 178.74 119.81 179.91 119.91 C 181.09 120.00 182.12 119.13 182.21 117.96 L 182.29 116.99 C 182.39 115.82 181.52 114.79 180.34 114.69 C 179.17 114.59 178.14 115.47 178.04 116.64 Z M 177.95 117.65 L 177.88 118.68 C 177.81 119.87 178.71 120.89 179.89 120.96 C 181.07 121.04 182.09 120.14 182.17 118.95 L 182.23 117.92 C 182.31 116.73 181.41 115.71 180.22 115.64 C 179.04 115.56 178.02 116.46 177.95 117.65 Z M 177.86 118.73 L 177.82 119.76 C 177.77 120.96 178.70 121.97 179.90 122.01 C 181.09 122.06 182.10 121.13 182.15 119.93 L 182.19 118.90 C 182.24 117.71 181.31 116.70 180.11 116.65 C 178.91 116.61 177.91 117.54 177.86 118.73 Z M 177.80 119.80 L 177.77 120.80 C 177.75 122.00 178.71 123.00 179.92 123.03 C 181.12 123.05 182.12 122.10 182.15 120.89 L 182.17 119.90 C 182.20 118.69 181.24 117.69 180.03 117.66 C 178.82 117.64 177.82 118.59 177.80 119.80 Z M 177.75 120.82 L 177.74 121.84 C 177.73 123.06 178.71 124.06 179.93 124.08 C 181.15 124.09 182.15 123.11 182.16 121.89 L 182.17 120.86 C 182.19 119.64 181.21 118.64 179.98 118.63 C 178.76 118.62 177.76 119.60 177.75 120.82 Z M 177.72 121.86 L 177.71 122.88 C 177.71 124.11 178.71 125.12 179.94 125.12 C 181.17 125.12 182.18 124.13 182.18 122.89 L 182.19 121.87 C 182.19 120.64 181.19 119.64 179.96 119.63 C 178.73 119.63 177.72 120.62 177.72 121.86 Z M 177.69 122.88 L 177.69 123.90 C 177.69 125.14 178.70 126.15 179.95 126.15 C 181.19 126.16 182.20 125.15 182.20 123.90 L 182.20 122.89 C 182.20 121.64 181.19 120.63 179.95 120.63 C 178.70 120.63 177.69 121.64 177.69 122.88 Z M 177.68 123.89 L 177.68 124.97 C 177.67 126.22 178.69 127.24 179.94 127.24 C 181.19 127.24 182.21 126.23 182.21 124.98 L 182.22 123.90 C 182.22 122.65 181.21 121.63 179.95 121.63 C 178.70 121.63 177.68 122.64 177.68 123.89 Z M 177.67 124.94 L 177.66 125.94 C 177.64 127.20 178.64 128.23 179.90 128.25 C 181.16 128.27 182.19 127.26 182.21 126.00 L 182.22 125.00 C 182.24 123.75 181.23 122.71 179.98 122.70 C 178.72 122.68 177.69 123.68 177.67 124.94 Z M 177.65 125.89 L 177.62 126.83 C 177.57 128.09 178.55 129.15 179.81 129.20 C 181.07 129.24 182.13 128.26 182.18 127.00 L 182.21 126.06 C 182.26 124.80 181.27 123.74 180.01 123.69 C 178.75 123.65 177.70 124.63 177.65 125.89 Z M 177.61 126.75 L 177.55 127.71 C 177.45 128.97 178.40 130.07 179.66 130.16 C 180.92 130.25 182.02 129.30 182.11 128.04 L 182.18 127.08 C 182.27 125.82 181.32 124.72 180.06 124.63 C 178.80 124.54 177.71 125.49 177.61 126.75 Z M 177.55 127.61 L 177.44 128.59 C 177.29 129.85 178.19 130.99 179.45 131.13 C 180.70 131.28 181.84 130.38 181.99 129.12 L 182.10 128.14 C 182.25 126.88 181.35 125.75 180.09 125.60 C 178.84 125.45 177.70 126.35 177.55 127.61 Z M 177.45 128.49 L 177.29 129.47 C 177.09 130.72 177.94 131.90 179.19 132.10 C 180.44 132.30 181.62 131.45 181.82 130.20 L 181.98 129.22 C 182.18 127.97 181.33 126.80 180.08 126.59 C 178.83 126.39 177.65 127.24 177.45 128.49 Z M 177.30 129.39 L 177.11 130.36 C 176.86 131.60 177.67 132.81 178.91 133.06 C 180.15 133.31 181.36 132.51 181.61 131.26 L 181.81 130.29 C 182.05 129.05 181.25 127.84 180.01 127.59 C 178.76 127.34 177.55 128.14 177.30 129.39 Z M 177.12 130.29 L 176.91 131.22 C 176.62 132.45 177.39 133.69 178.63 133.97 C 179.86 134.26 181.10 133.49 181.38 132.26 L 181.60 131.33 C 181.89 130.10 181.12 128.86 179.88 128.57 C 178.64 128.29 177.41 129.06 177.12 130.29 Z M 176.92 131.15 L 176.67 132.11 C 176.35 133.34 177.08 134.60 178.31 134.92 C 179.54 135.24 180.80 134.51 181.12 133.28 L 181.37 132.32 C 181.69 131.09 180.96 129.83 179.73 129.51 C 178.50 129.19 177.24 129.92 176.92 131.15 Z M 176.68 132.05 L 176.39 133.05 C 176.03 134.27 176.73 135.55 177.95 135.91 C 179.17 136.26 180.45 135.56 180.81 134.34 L 181.10 133.34 C 181.46 132.12 180.76 130.84 179.54 130.49 C 178.32 130.13 177.04 130.83 176.68 132.05 Z M 176.41 132.99 L 176.10 133.94 C 175.72 135.15 176.38 136.44 177.59 136.83 C 178.81 137.22 180.10 136.55 180.49 135.34 L 180.79 134.40 C 181.18 133.19 180.52 131.89 179.30 131.50 C 178.09 131.12 176.79 131.78 176.41 132.99 Z M 176.12 133.89 L 175.81 134.79 C 175.39 135.99 176.03 137.30 177.24 137.72 C 178.44 138.13 179.75 137.49 180.17 136.29 L 180.48 135.39 C 180.89 134.19 180.25 132.88 179.05 132.46 C 177.85 132.05 176.53 132.68 176.12 133.89 Z M 175.82 134.74 L 175.48 135.68 C 175.05 136.87 175.66 138.20 176.86 138.63 C 178.05 139.07 179.38 138.46 179.81 137.26 L 180.15 136.33 C 180.59 135.13 179.98 133.81 178.78 133.37 C 177.58 132.93 176.26 133.55 175.82 134.74 Z M 175.50 135.64 L 175.12 136.61 C 174.67 137.80 175.26 139.13 176.45 139.59 C 177.64 140.04 178.97 139.45 179.43 138.26 L 179.80 137.30 C 180.26 136.11 179.66 134.77 178.48 134.32 C 177.29 133.86 175.95 134.45 175.50 135.64 Z M 175.14 136.58 L 174.74 137.55 C 174.27 138.74 174.84 140.08 176.03 140.55 C 177.21 141.03 178.55 140.45 179.03 139.27 L 179.42 138.29 C 179.89 137.11 179.32 135.77 178.13 135.29 C 176.95 134.82 175.61 135.39 175.14 136.58 Z M 174.75 137.53 L 174.42 138.33 C 173.94 139.50 174.49 140.85 175.67 141.34 C 176.85 141.83 178.20 141.27 178.68 140.09 L 179.02 139.30 C 179.50 138.12 178.95 136.77 177.77 136.28 C 176.59 135.79 175.24 136.35 174.75 137.53 Z M 174.43 138.30 L 174.08 139.13 C 173.57 140.30 174.11 141.66 175.29 142.16 C 176.46 142.66 177.81 142.12 178.31 140.95 L 178.67 140.12 C 179.18 138.95 178.63 137.59 177.46 137.09 C 176.29 136.59 174.94 137.13 174.43 138.30 Z M 174.09 139.10 L 173.70 139.98 C 173.18 141.14 173.70 142.51 174.86 143.03 C 176.02 143.55 177.39 143.03 177.91 141.86 L 178.30 140.98 C 178.82 139.82 178.30 138.46 177.14 137.94 C 175.97 137.42 174.61 137.94 174.09 139.10 Z M 173.71 139.95 L 173.28 140.88 C 172.74 142.04 173.24 143.41 174.39 143.95 C 175.55 144.49 176.92 143.98 177.46 142.83 L 177.89 141.89 C 178.43 140.74 177.93 139.37 176.78 138.83 C 175.62 138.29 174.25 138.79 173.71 139.95 Z M 173.29 140.85 L 172.81 141.86 C 172.25 143.00 172.73 144.38 173.88 144.94 C 175.02 145.49 176.40 145.01 176.96 143.87 L 177.44 142.86 C 178.00 141.72 177.52 140.34 176.37 139.78 C 175.23 139.23 173.85 139.71 173.29 140.85 Z M 172.82 141.83 L 172.31 142.84 C 171.74 143.97 172.20 145.36 173.34 145.93 C 174.48 146.50 175.86 146.04 176.44 144.90 L 176.94 143.90 C 177.51 142.76 177.05 141.37 175.92 140.80 C 174.78 140.23 173.39 140.69 172.82 141.83 Z M 172.33 142.81 L 171.86 143.71 C 171.28 144.84 171.72 146.23 172.85 146.81 C 173.99 147.40 175.38 146.95 175.96 145.82 L 176.42 144.93 C 177.01 143.80 176.56 142.41 175.43 141.82 C 174.30 141.24 172.91 141.68 172.33 142.81 Z M 171.87 143.69 L 171.39 144.62 C 170.80 145.74 171.23 147.13 172.35 147.73 C 173.48 148.32 174.87 147.89 175.46 146.76 L 175.95 145.84 C 176.54 144.71 176.11 143.32 174.99 142.73 C 173.86 142.13 172.47 142.57 171.87 143.69 Z M 171.40 144.60 L 170.90 145.54 C 170.30 146.66 170.72 148.05 171.84 148.65 C 172.96 149.25 174.36 148.83 174.96 147.71 L 175.46 146.77 C 176.06 145.65 175.63 144.26 174.51 143.66 C 173.39 143.06 172.00 143.48 171.40 144.60 Z M 170.90 145.53 L 170.40 146.45 C 169.80 147.57 170.21 148.96 171.33 149.57 C 172.45 150.17 173.85 149.76 174.45 148.64 L 174.95 147.72 C 175.56 146.60 175.14 145.20 174.02 144.60 C 172.91 143.99 171.51 144.41 170.90 145.53 Z M 170.41 146.44 L 169.92 147.33 C 169.31 148.45 169.72 149.85 170.84 150.45 C 171.95 151.06 173.35 150.65 173.96 149.54 L 174.45 148.65 C 175.06 147.53 174.65 146.14 173.53 145.53 C 172.42 144.92 171.02 145.33 170.41 146.44 Z M 169.93 147.33 L 169.46 148.17 C 168.85 149.28 169.25 150.68 170.36 151.29 C 171.48 151.91 172.87 151.50 173.49 150.39 L 173.95 149.55 C 174.57 148.43 174.16 147.04 173.05 146.42 C 171.94 145.81 170.54 146.22 169.93 147.33 Z M 169.47 148.17 L 169.03 148.94 C 168.42 150.05 168.82 151.45 169.93 152.07 C 171.04 152.68 172.44 152.28 173.05 151.17 L 173.48 150.40 C 174.10 149.29 173.70 147.89 172.59 147.27 C 171.48 146.66 170.08 147.06 169.47 148.17 Z M 169.04 148.94 L 168.43 150.03 C 167.82 151.13 168.21 152.53 169.31 153.15 C 170.42 153.76 171.81 153.37 172.43 152.27 L 173.04 151.18 C 173.66 150.07 173.27 148.68 172.16 148.06 C 171.06 147.44 169.66 147.83 169.04 148.94 Z M 168.45 150.02 L 167.91 150.96 C 167.29 152.06 167.68 153.45 168.77 154.07 C 169.87 154.69 171.26 154.31 171.88 153.22 L 172.42 152.27 C 173.04 151.18 172.65 149.78 171.56 149.16 C 170.46 148.54 169.07 148.93 168.45 150.02 Z M 167.93 150.95 L 167.47 151.75 C 166.85 152.83 167.22 154.22 168.30 154.85 C 169.39 155.48 170.77 155.11 171.40 154.02 L 171.86 153.23 C 172.49 152.14 172.12 150.75 171.03 150.13 C 169.95 149.50 168.56 149.87 167.93 150.95 Z M 167.50 151.73 L 167.08 152.44 C 166.44 153.51 166.80 154.90 167.87 155.53 C 168.94 156.17 170.33 155.81 170.96 154.74 L 171.38 154.03 C 172.02 152.96 171.66 151.58 170.59 150.94 C 169.52 150.31 168.13 150.66 167.50 151.73 Z M 167.10 152.42 L 166.64 153.18 C 165.99 154.25 166.33 155.63 167.39 156.27 C 168.45 156.91 169.83 156.58 170.48 155.52 L 170.94 154.76 C 171.58 153.70 171.25 152.31 170.18 151.67 C 169.12 151.03 167.74 151.36 167.10 152.42 Z M 166.66 153.17 L 166.14 154.00 C 165.49 155.05 165.81 156.43 166.86 157.08 C 167.91 157.73 169.29 157.41 169.94 156.36 L 170.46 155.53 C 171.11 154.48 170.79 153.10 169.74 152.45 C 168.69 151.80 167.31 152.12 166.66 153.17 Z M 166.16 153.98 L 165.62 154.83 C 164.96 155.87 165.27 157.24 166.31 157.90 C 167.34 158.57 168.72 158.26 169.38 157.22 L 169.92 156.38 C 170.58 155.34 170.28 153.96 169.24 153.30 C 168.20 152.64 166.82 152.94 166.16 153.98 Z M 165.64 154.81 L 165.08 155.68 C 164.41 156.71 164.70 158.09 165.72 158.76 C 166.75 159.43 168.13 159.14 168.80 158.11 L 169.36 157.24 C 170.03 156.21 169.74 154.83 168.72 154.17 C 167.69 153.50 166.31 153.79 165.64 154.81 Z M 165.09 155.67 L 164.55 156.49 C 163.88 157.51 164.15 158.88 165.17 159.56 C 166.19 160.23 167.56 159.95 168.23 158.94 L 168.78 158.12 C 169.45 157.10 169.18 155.73 168.16 155.05 C 167.14 154.38 165.77 154.66 165.09 155.67 Z M 164.56 156.49 L 164.00 157.32 C 163.33 158.33 163.60 159.70 164.61 160.38 C 165.61 161.05 166.98 160.79 167.66 159.78 L 168.22 158.94 C 168.90 157.93 168.63 156.56 167.62 155.89 C 166.61 155.21 165.24 155.48 164.56 156.49 Z M 164.01 157.33 L 163.45 158.16 C 162.77 159.17 163.04 160.53 164.04 161.21 C 165.05 161.88 166.41 161.62 167.09 160.61 L 167.65 159.77 C 168.33 158.77 168.06 157.41 167.06 156.73 C 166.05 156.05 164.69 156.32 164.01 157.33 Z M 163.45 158.17 L 162.90 159.01 C 162.22 160.01 162.49 161.37 163.49 162.04 C 164.50 162.71 165.85 162.44 166.52 161.44 L 167.08 160.60 C 167.75 159.60 167.48 158.25 166.48 157.58 C 165.48 156.90 164.12 157.17 163.45 158.17 Z M 162.90 159.02 L 162.34 159.87 C 161.67 160.87 161.95 162.21 162.95 162.88 C 163.95 163.54 165.29 163.27 165.96 162.27 L 166.52 161.42 C 167.18 160.42 166.91 159.08 165.91 158.41 C 164.91 157.75 163.56 158.02 162.90 159.02 Z M 162.35 159.87 L 161.80 160.70 C 161.14 161.70 161.41 163.04 162.40 163.70 C 163.39 164.36 164.73 164.09 165.39 163.09 L 165.95 162.26 C 166.61 161.27 166.34 159.93 165.34 159.27 C 164.35 158.61 163.01 158.88 162.35 159.87 Z M 161.82 160.70 L 161.26 161.52 C 160.60 162.50 160.86 163.83 161.84 164.50 C 162.82 165.16 164.16 164.90 164.82 163.92 L 165.38 163.10 C 166.04 162.12 165.78 160.78 164.80 160.12 C 163.82 159.45 162.48 159.71 161.82 160.70 Z M 161.29 161.50 L 160.72 162.31 C 160.05 163.28 160.29 164.61 161.26 165.28 C 162.22 165.96 163.55 165.72 164.23 164.75 L 164.79 163.94 C 165.47 162.97 165.23 161.64 164.26 160.97 C 163.29 160.29 161.96 160.53 161.29 161.50 Z M 160.75 162.29 L 160.17 163.10 C 159.49 164.05 159.70 165.38 160.66 166.06 C 161.61 166.75 162.93 166.53 163.62 165.58 L 164.20 164.77 C 164.88 163.82 164.67 162.49 163.71 161.81 C 162.76 161.12 161.44 161.34 160.75 162.29 Z M 160.20 163.09 L 159.60 163.89 C 158.91 164.83 159.11 166.15 160.05 166.84 C 160.99 167.53 162.31 167.33 163.00 166.39 L 163.59 165.59 C 164.28 164.65 164.08 163.33 163.15 162.64 C 162.21 161.95 160.89 162.15 160.20 163.09 Z M 159.62 163.89 L 159.02 164.70 C 158.33 165.62 158.52 166.94 159.45 167.63 C 160.37 168.32 161.69 168.13 162.38 167.20 L 162.98 166.40 C 163.67 165.47 163.48 164.16 162.55 163.47 C 161.63 162.77 160.32 162.96 159.62 163.89 Z M 159.04 164.70 L 158.44 165.50 C 157.75 166.42 157.93 167.73 158.85 168.41 C 159.77 169.10 161.07 168.92 161.76 168.00 L 162.36 167.20 C 163.05 166.28 162.87 164.98 161.95 164.29 C 161.03 163.60 159.73 163.78 159.04 164.70 Z M 158.45 165.52 L 157.85 166.31 C 157.17 167.22 157.35 168.52 158.27 169.20 C 159.18 169.88 160.47 169.70 161.15 168.78 L 161.75 167.99 C 162.43 167.08 162.25 165.78 161.34 165.10 C 160.42 164.42 159.13 164.60 158.45 165.52 Z M 157.86 166.33 L 157.27 167.13 C 156.59 168.03 156.78 169.31 157.68 169.99 C 158.59 170.66 159.87 170.48 160.54 169.57 L 161.14 168.77 C 161.82 167.86 161.63 166.58 160.72 165.91 C 159.82 165.23 158.54 165.42 157.86 166.33 Z M 157.28 167.15 L 156.68 167.95 C 156.01 168.85 156.20 170.12 157.10 170.79 C 158.00 171.45 159.27 171.26 159.94 170.36 L 160.53 169.55 C 161.20 168.65 161.01 167.39 160.11 166.72 C 159.21 166.05 157.94 166.25 157.28 167.15 Z M 156.69 167.97 L 156.10 168.78 C 155.44 169.68 155.64 170.93 156.53 171.59 C 157.43 172.24 158.68 172.05 159.34 171.15 L 159.93 170.34 C 160.58 169.45 160.39 168.19 159.49 167.54 C 158.60 166.88 157.34 167.08 156.69 167.97 Z M 156.11 168.80 L 155.52 169.62 C 154.88 170.51 155.07 171.75 155.96 172.39 C 156.85 173.03 158.09 172.83 158.74 171.94 L 159.32 171.13 C 159.97 170.24 159.77 169.00 158.88 168.36 C 157.99 167.72 156.75 167.92 156.11 168.80 Z M 155.53 169.64 L 154.95 170.45 C 154.31 171.33 154.52 172.56 155.40 173.19 C 156.28 173.83 157.51 173.62 158.14 172.74 L 158.72 171.93 C 159.36 171.04 159.15 169.82 158.27 169.18 C 157.39 168.55 156.16 168.76 155.53 169.64 Z M 154.96 170.47 L 154.38 171.28 C 153.76 172.16 153.97 173.37 154.84 173.99 C 155.71 174.61 156.93 174.41 157.55 173.53 L 158.13 172.72 C 158.75 171.85 158.54 170.63 157.67 170.01 C 156.79 169.39 155.58 169.60 154.96 170.47 Z M 154.40 171.30 L 153.83 172.10 C 153.22 172.97 153.42 174.17 154.29 174.78 C 155.16 175.39 156.36 175.19 156.97 174.32 L 157.54 173.52 C 158.15 172.65 157.94 171.45 157.08 170.84 C 156.21 170.23 155.01 170.43 154.40 171.30 Z M 153.84 172.11 L 153.28 172.92 C 152.67 173.78 152.88 174.97 153.74 175.57 C 154.60 176.18 155.78 175.97 156.39 175.11 L 156.96 174.31 C 157.56 173.45 157.35 172.26 156.49 171.65 C 155.63 171.05 154.45 171.26 153.84 172.11 Z M 153.29 172.93 L 152.72 173.74 C 152.12 174.60 152.32 175.77 153.18 176.37 C 154.03 176.97 155.20 176.77 155.80 175.91 L 156.38 175.10 C 156.98 174.25 156.77 173.07 155.92 172.47 C 155.07 171.87 153.89 172.08 153.29 172.93 Z M 152.73 173.75 L 152.14 174.59 C 151.55 175.44 151.75 176.60 152.59 177.20 C 153.44 177.79 154.60 177.59 155.20 176.74 L 155.79 175.90 C 156.38 175.06 156.18 173.89 155.34 173.30 C 154.49 172.71 153.33 172.91 152.73 173.75 Z M 152.16 174.60 L 151.57 175.43 C 150.98 176.26 151.18 177.42 152.02 178.01 C 152.85 178.60 154.01 178.40 154.60 177.56 L 155.18 176.74 C 155.77 175.90 155.57 174.74 154.74 174.15 C 153.90 173.56 152.75 173.76 152.16 174.60 Z M 151.59 175.43 L 151.00 176.26 C 150.41 177.09 150.60 178.24 151.43 178.83 C 152.26 179.41 153.41 179.22 154.00 178.39 L 154.59 177.56 C 155.17 176.73 154.98 175.58 154.15 174.99 C 153.32 174.41 152.17 174.60 151.59 175.43 Z M 151.01 176.27 L 150.42 177.09 C 149.83 177.91 150.02 179.05 150.84 179.64 C 151.67 180.22 152.81 180.03 153.39 179.21 L 153.98 178.39 C 154.57 177.57 154.38 176.43 153.56 175.84 C 152.74 175.26 151.60 175.45 151.01 176.27 Z M 150.44 177.09 L 149.86 177.89 C 149.28 178.70 149.46 179.83 150.27 180.42 C 151.08 181.00 152.21 180.82 152.80 180.01 L 153.37 179.21 C 153.96 178.40 153.78 177.27 152.97 176.68 C 152.16 176.10 151.02 176.28 150.44 177.09 Z M 149.88 177.89 L 149.31 178.66 C 148.73 179.46 148.90 180.58 149.70 181.17 C 150.50 181.76 151.63 181.59 152.21 180.79 L 152.78 180.01 C 153.37 179.21 153.19 178.09 152.39 177.50 C 151.59 176.91 150.47 177.09 149.88 177.89 Z M 149.34 178.65 L 148.77 179.40 C 148.18 180.19 148.34 181.31 149.13 181.90 C 149.92 182.49 151.04 182.33 151.63 181.55 L 152.19 180.79 C 152.78 180.00 152.62 178.88 151.83 178.29 C 151.05 177.70 149.93 177.86 149.34 178.65 Z M 148.79 179.40 L 148.20 180.16 C 147.61 180.94 147.76 182.05 148.53 182.65 C 149.31 183.24 150.42 183.10 151.02 182.32 L 151.61 181.55 C 152.20 180.78 152.06 179.66 151.28 179.07 C 150.50 178.47 149.39 178.62 148.79 179.40 Z M 148.23 180.16 L 147.57 180.99 C 146.98 181.76 147.11 182.86 147.88 183.46 C 148.64 184.06 149.75 183.92 150.35 183.16 L 151.00 182.33 C 151.60 181.56 151.46 180.45 150.70 179.86 C 149.93 179.26 148.82 179.39 148.23 180.16 Z M 147.59 180.99 L 146.97 181.77 C 146.37 182.52 146.50 183.62 147.26 184.22 C 148.02 184.82 149.11 184.69 149.71 183.94 L 150.33 183.16 C 150.93 182.40 150.80 181.30 150.05 180.70 C 149.29 180.10 148.19 180.23 147.59 180.99 Z M 146.99 181.76 L 146.39 182.51 C 145.79 183.26 145.91 184.36 146.66 184.96 C 147.41 185.56 148.50 185.44 149.10 184.69 L 149.70 183.94 C 150.30 183.19 150.18 182.10 149.43 181.49 C 148.68 180.89 147.59 181.01 146.99 181.76 Z M 146.40 182.51 L 145.76 183.29 C 145.16 184.03 145.27 185.12 146.01 185.73 C 146.75 186.33 147.84 186.22 148.45 185.48 L 149.09 184.69 C 149.69 183.95 149.58 182.86 148.84 182.26 C 148.10 181.65 147.01 181.76 146.40 182.51 Z M 145.78 183.28 L 145.12 184.08 C 144.51 184.82 144.61 185.90 145.34 186.51 C 146.07 187.12 147.16 187.02 147.77 186.28 L 148.43 185.48 C 149.04 184.75 148.94 183.67 148.21 183.06 C 147.47 182.45 146.39 182.55 145.78 183.28 Z M 145.14 184.07 L 144.46 184.86 C 143.85 185.59 143.94 186.67 144.66 187.28 C 145.38 187.90 146.46 187.81 147.07 187.09 L 147.75 186.29 C 148.36 185.57 148.27 184.49 147.55 183.88 C 146.83 183.26 145.75 183.35 145.14 184.07 Z M 144.49 184.85 L 143.81 185.62 C 143.18 186.33 143.25 187.41 143.96 188.03 C 144.67 188.65 145.75 188.58 146.37 187.88 L 147.05 187.10 C 147.67 186.39 147.60 185.32 146.89 184.69 C 146.19 184.07 145.11 184.14 144.49 184.85 Z M 143.84 185.60 L 143.13 186.38 C 142.50 187.07 142.55 188.14 143.24 188.77 C 143.93 189.40 145.00 189.36 145.63 188.67 L 146.34 187.90 C 146.97 187.21 146.92 186.13 146.23 185.50 C 145.54 184.87 144.47 184.91 143.84 185.60 Z M 143.17 186.35 L 142.47 187.07 C 141.82 187.74 141.84 188.81 142.51 189.45 C 143.18 190.10 144.24 190.08 144.89 189.42 L 145.59 188.69 C 146.24 188.03 146.22 186.96 145.55 186.31 C 144.89 185.67 143.82 185.68 143.17 186.35 Z M 142.52 187.04 L 141.81 187.73 C 141.15 188.37 141.13 189.42 141.77 190.09 C 142.41 190.75 143.47 190.77 144.13 190.13 L 144.84 189.45 C 145.50 188.81 145.52 187.75 144.88 187.09 C 144.24 186.42 143.18 186.40 142.52 187.04 Z M 141.87 187.69 L 141.14 188.34 C 140.46 188.95 140.40 190.00 141.01 190.68 C 141.62 191.36 142.67 191.42 143.35 190.81 L 144.08 190.16 C 144.76 189.55 144.82 188.50 144.21 187.82 C 143.60 187.14 142.55 187.08 141.87 187.69 Z M 141.20 188.31 L 140.45 188.92 C 139.75 189.50 139.65 190.54 140.23 191.24 C 140.81 191.94 141.84 192.04 142.54 191.46 L 143.29 190.85 C 144.00 190.27 144.10 189.23 143.52 188.53 C 142.94 187.83 141.90 187.73 141.20 188.31 Z M 140.51 188.89 L 139.73 189.48 C 139.01 190.03 138.86 191.06 139.41 191.78 C 139.96 192.50 140.98 192.64 141.70 192.09 L 142.49 191.50 C 143.21 190.95 143.35 189.92 142.80 189.20 C 142.26 188.48 141.23 188.34 140.51 188.89 Z M 139.77 189.46 L 138.96 190.03 C 138.22 190.55 138.05 191.57 138.57 192.31 C 139.09 193.04 140.11 193.22 140.85 192.69 L 141.66 192.12 C 142.39 191.60 142.57 190.58 142.05 189.84 C 141.52 189.11 140.51 188.94 139.77 189.46 Z M 138.99 190.02 L 138.16 190.58 C 137.42 191.08 137.22 192.09 137.72 192.84 C 138.23 193.58 139.24 193.78 139.98 193.27 L 140.81 192.71 C 141.56 192.21 141.75 191.20 141.25 190.45 C 140.75 189.71 139.74 189.51 138.99 190.02 Z M 138.19 190.57 L 137.34 191.12 C 136.59 191.61 136.38 192.62 136.87 193.36 C 137.36 194.11 138.36 194.32 139.11 193.83 L 139.96 193.28 C 140.71 192.79 140.92 191.79 140.43 191.04 C 139.94 190.29 138.93 190.08 138.19 190.57 Z M 137.35 191.12 L 136.59 191.61 C 135.84 192.10 135.62 193.10 136.10 193.85 C 136.59 194.60 137.59 194.81 138.33 194.33 L 139.10 193.84 C 139.85 193.35 140.07 192.35 139.58 191.60 C 139.10 190.85 138.10 190.64 137.35 191.12 Z"
      fill="black"
      fill-rule="nonzero" /><path d="M 179.71 98.49 L 179.63 99.46 C 179.54 100.62 180.40 101.62 181.55 101.72 C 182.71 101.81 183.71 100.95 183.81 99.79 L 183.88 98.82 C 183.97 97.66 183.11 96.66 181.96 96.57 C 180.81 96.47 179.80 97.34 179.71 98.49 Z M 179.63 99.61 L 179.62 100.60 C 179.61 101.75 180.54 102.69 181.70 102.70 C 182.85 102.71 183.79 101.78 183.80 100.63 L 183.81 99.64 C 183.82 98.49 182.89 97.55 181.73 97.54 C 180.58 97.53 179.64 98.46 179.63 99.61 Z M 179.64 100.89 L 179.77 101.88 C 179.92 103.03 180.97 103.83 182.12 103.68 C 183.26 103.53 184.07 102.48 183.91 101.33 L 183.78 100.34 C 183.63 99.19 182.58 98.39 181.44 98.54 C 180.29 98.69 179.49 99.74 179.64 100.89 Z M 179.87 102.25 L 180.18 103.20 C 180.53 104.28 181.70 104.88 182.79 104.53 C 183.88 104.17 184.47 103.00 184.12 101.92 L 183.81 100.97 C 183.46 99.88 182.29 99.29 181.20 99.64 C 180.12 99.99 179.52 101.16 179.87 102.25 Z M 180.34 103.47 L 180.79 104.36 C 181.30 105.36 182.52 105.75 183.52 105.25 C 184.51 104.74 184.91 103.52 184.41 102.52 L 183.96 101.64 C 183.45 100.64 182.23 100.24 181.23 100.75 C 180.24 101.26 179.84 102.47 180.34 103.47 Z M 180.95 104.52 L 181.52 105.38 C 182.11 106.28 183.33 106.54 184.24 105.94 C 185.15 105.35 185.40 104.13 184.81 103.22 L 184.24 102.36 C 183.65 101.45 182.43 101.20 181.52 101.80 C 180.61 102.39 180.36 103.61 180.95 104.52 Z M 181.66 105.48 L 182.29 106.28 C 182.95 107.10 184.15 107.25 184.97 106.59 C 185.80 105.94 185.94 104.74 185.29 103.91 L 184.66 103.12 C 184.01 102.29 182.81 102.15 181.98 102.80 C 181.15 103.45 181.01 104.65 181.66 105.48 Z M 182.44 106.35 L 183.14 107.11 C 183.83 107.86 185.00 107.90 185.75 107.21 C 186.50 106.52 186.54 105.35 185.85 104.60 L 185.15 103.84 C 184.45 103.09 183.28 103.05 182.54 103.74 C 181.79 104.43 181.74 105.60 182.44 106.35 Z M 183.28 107.16 L 184.03 107.86 C 184.76 108.53 185.88 108.49 186.55 107.76 C 187.22 107.04 187.18 105.92 186.46 105.25 L 185.71 104.55 C 184.98 103.88 183.86 103.92 183.19 104.64 C 182.52 105.36 182.56 106.49 183.28 107.16 Z M 184.16 107.88 L 184.91 108.50 C 185.64 109.10 186.72 108.99 187.32 108.26 C 187.92 107.53 187.82 106.45 187.09 105.85 L 186.34 105.23 C 185.61 104.63 184.53 104.73 183.92 105.46 C 183.32 106.19 183.43 107.27 184.16 107.88 Z M 184.99 108.48 L 185.71 109.03 C 186.43 109.59 187.47 109.46 188.02 108.74 C 188.58 108.02 188.45 106.98 187.73 106.43 L 187.01 105.87 C 186.29 105.31 185.25 105.45 184.70 106.17 C 184.14 106.89 184.27 107.92 184.99 108.48 Z"
      fill="black"
      fill-rule="nonzero" /><path d="M 189.02 96.84 L 189.26 97.79 C 189.53 98.90 190.65 99.58 191.76 99.31 C 192.86 99.03 193.54 97.92 193.27 96.81 L 193.04 95.85 C 192.77 94.75 191.65 94.07 190.54 94.34 C 189.43 94.61 188.75 95.73 189.02 96.84 Z M 189.25 97.86 L 189.52 98.82 C 189.84 99.93 190.99 100.57 192.10 100.26 C 193.21 99.95 193.86 98.80 193.54 97.68 L 193.28 96.73 C 192.96 95.62 191.81 94.97 190.70 95.29 C 189.59 95.60 188.94 96.75 189.25 97.86 Z M 189.54 98.96 L 189.88 99.91 C 190.28 101.01 191.48 101.58 192.58 101.19 C 193.68 100.80 194.25 99.59 193.86 98.50 L 193.52 97.54 C 193.13 96.44 191.92 95.87 190.82 96.26 C 189.73 96.65 189.15 97.86 189.54 98.96 Z M 189.95 100.09 L 190.36 100.99 C 190.85 102.05 192.11 102.52 193.18 102.03 C 194.24 101.54 194.70 100.28 194.21 99.21 L 193.80 98.31 C 193.31 97.25 192.05 96.79 190.98 97.28 C 189.92 97.77 189.46 99.03 189.95 100.09 Z M 190.44 101.13 L 190.92 101.99 C 191.49 103.01 192.78 103.38 193.80 102.81 C 194.81 102.24 195.18 100.95 194.61 99.93 L 194.13 99.07 C 193.56 98.05 192.28 97.69 191.26 98.26 C 190.24 98.82 189.87 100.11 190.44 101.13 Z M 190.98 102.06 L 191.52 102.92 C 192.12 103.91 193.41 104.21 194.40 103.61 C 195.38 103.00 195.69 101.71 195.08 100.72 L 194.55 99.86 C 193.94 98.88 192.65 98.57 191.67 99.18 C 190.68 99.79 190.38 101.08 190.98 102.06 Z M 191.55 102.95 L 192.10 103.81 C 192.72 104.77 194.01 105.05 194.98 104.43 C 195.94 103.81 196.22 102.53 195.60 101.56 L 195.05 100.70 C 194.43 99.73 193.14 99.46 192.17 100.08 C 191.21 100.70 190.93 101.98 191.55 102.95 Z M 192.14 103.78 L 192.68 104.63 C 193.29 105.57 194.54 105.85 195.49 105.24 C 196.43 104.64 196.71 103.39 196.10 102.44 L 195.56 101.59 C 194.96 100.65 193.70 100.37 192.76 100.97 C 191.81 101.58 191.54 102.83 192.14 103.78 Z M 192.75 104.57 L 193.28 105.42 C 193.85 106.33 195.05 106.60 195.96 106.03 C 196.87 105.45 197.15 104.25 196.57 103.34 L 196.04 102.50 C 195.47 101.59 194.27 101.32 193.36 101.89 C 192.45 102.46 192.18 103.66 192.75 104.57 Z M 193.35 105.36 L 193.88 106.21 C 194.42 107.08 195.57 107.34 196.44 106.80 C 197.31 106.26 197.57 105.12 197.03 104.25 L 196.50 103.40 C 195.96 102.53 194.82 102.26 193.95 102.81 C 193.08 103.35 192.81 104.49 193.35 105.36 Z M 193.95 106.16 L 194.46 106.97 C 194.97 107.80 196.06 108.05 196.89 107.54 C 197.72 107.03 197.97 105.94 197.46 105.11 L 196.96 104.30 C 196.44 103.47 195.35 103.21 194.52 103.73 C 193.69 104.24 193.44 105.33 193.95 106.16 Z"
      fill="black"
      fill-rule="nonzero" /></svg>