<svg xmlns="http://www.w3.org/2000/svg" version="1.0" width="937.000000pt" height="937.000000pt" viewBox="0 0 937.000000 937.000000" preserveAspectRatio="xMidYMid meet">
  <defs/>
  <path fill="#000000" d="M364.3,329.1 C363.1,329.5 361.4,331 360.5,332.3 C358.1,336 359.5,339.7 364.4,342.7 C370.5,346.5 373.7,349.7 379,357.5 C385.1,366.6 398.8,389.2 401.9,395.3 C404.7,400.8 407.9,402.3 411,399.5 C413.6,397.1 413.5,394.9 410.5,389 C409.1,386.3 407,381.3 405.7,377.8 C400,362.8 388.7,343.8 381.6,337.2 C374.9,331.1 367.9,327.7 364.3,329.1 Z"/>
  <path fill="#000000" d="M326,341 C322.5,344.5 323.4,348.5 329.4,356.4 C332.4,360.3 337.4,368.2 340.6,374 C350.2,391.6 358.7,405.5 361.8,408.8 C364.1,411.2 365.7,412 368.3,412 C373.3,412 374.4,410.1 373.7,402.5 C372.9,394.4 371.7,392.1 367.8,391.3 C364.2,390.6 363.5,389.6 352.8,368.5 C341.1,345.4 336.4,339 331,339 C329.3,339 327.1,339.9 326,341 Z"/>
</svg>

