<svg xmlns="http://www.w3.org/2000/svg" width="300" height="300" viewBox="0 0 300 300">
<path d="M 132.78 128.10 L 132.88 129.00 C 133.00 130.05 133.94 130.81 135.00 130.70 C 136.05 130.58 136.81 129.63 136.70 128.58 L 136.60 127.68 C 136.48 126.62 135.53 125.86 134.48 125.98 C 133.43 126.09 132.67 127.04 132.78 128.10 Z M 132.80 128.99 L 132.90 129.92 C 133.01 131.02 133.99 131.82 135.08 131.70 C 136.18 131.59 136.98 130.61 136.87 129.52 L 136.78 128.59 C 136.66 127.49 135.68 126.69 134.59 126.80 C 133.49 126.91 132.69 127.89 132.80 128.99 Z M 132.82 129.90 L 132.90 130.88 C 133.00 132.02 134.00 132.87 135.15 132.77 C 136.29 132.67 137.13 131.67 137.04 130.52 L 136.95 129.54 C 136.85 128.40 135.85 127.55 134.70 127.65 C 133.56 127.75 132.72 128.75 132.82 129.90 Z M 132.82 130.85 L 132.89 131.91 C 132.97 133.10 134.00 134.00 135.18 133.92 C 136.37 133.84 137.27 132.81 137.19 131.63 L 137.12 130.56 C 137.04 129.37 136.01 128.48 134.83 128.55 C 133.64 128.63 132.74 129.66 132.82 130.85 Z M 132.82 131.87 L 132.87 132.95 C 132.93 134.18 133.97 135.12 135.19 135.07 C 136.41 135.01 137.36 133.98 137.30 132.75 L 137.25 131.67 C 137.20 130.45 136.16 129.50 134.94 129.56 C 133.72 129.61 132.77 130.65 132.82 131.87 Z M 132.85 132.92 L 132.88 133.92 C 132.91 135.16 133.94 136.13 135.18 136.09 C 136.42 136.06 137.39 135.03 137.36 133.79 L 137.33 132.79 C 137.29 131.55 136.26 130.58 135.02 130.61 C 133.79 130.65 132.81 131.68 132.85 132.92 Z M 132.87 133.89 L 132.89 134.93 C 132.91 136.17 133.94 137.16 135.17 137.13 C 136.41 137.11 137.40 136.09 137.38 134.85 L 137.36 133.81 C 137.34 132.57 136.32 131.59 135.08 131.61 C 133.84 131.63 132.85 132.65 132.87 133.89 Z M 132.89 134.91 L 132.90 135.96 C 132.91 137.20 133.93 138.19 135.17 138.18 C 136.41 138.17 137.40 137.15 137.39 135.91 L 137.38 134.87 C 137.37 133.63 136.35 132.63 135.11 132.65 C 133.87 132.66 132.88 133.67 132.89 134.91 Z M 132.90 135.95 L 132.90 136.96 C 132.91 138.21 133.92 139.21 135.16 139.20 C 136.40 139.19 137.40 138.18 137.40 136.94 L 137.39 135.92 C 137.39 134.68 136.38 133.68 135.14 133.69 C 133.89 133.69 132.89 134.70 132.90 135.95 Z M 132.90 136.96 L 132.90 137.92 C 132.91 139.16 133.91 140.17 135.15 140.17 C 136.40 140.16 137.40 139.16 137.40 137.92 L 137.40 136.95 C 137.40 135.71 136.39 134.71 135.15 134.71 C 133.91 134.71 132.90 135.72 132.90 136.96 Z M 132.90 137.92 L 132.90 138.98 C 132.90 140.22 133.91 141.23 135.15 141.23 C 136.39 141.23 137.40 140.22 137.40 138.98 L 137.40 137.92 C 137.40 136.68 136.39 135.67 135.15 135.67 C 133.91 135.67 132.90 136.68 132.90 137.92 Z M 132.90 138.98 L 132.90 140.07 C 132.91 141.31 133.91 142.32 135.16 142.32 C 136.40 142.32 137.40 141.31 137.40 140.07 L 137.40 138.98 C 137.40 137.73 136.39 136.73 135.15 136.73 C 133.91 136.73 132.90 137.74 132.90 138.98 Z M 132.90 140.08 L 132.91 141.04 C 132.91 142.29 133.93 143.29 135.17 143.28 C 136.41 143.28 137.41 142.26 137.41 141.02 L 137.40 140.06 C 137.40 138.81 136.38 137.81 135.14 137.82 C 133.90 137.82 132.90 138.84 132.90 140.08 Z M 132.91 141.06 L 132.92 141.96 C 132.93 143.20 133.95 144.19 135.19 144.18 C 136.44 144.17 137.43 143.15 137.42 141.91 L 137.41 141.01 C 137.39 139.76 136.37 138.77 135.13 138.78 C 133.89 138.80 132.89 139.82 132.91 141.06 Z M 132.92 141.98 L 132.94 142.89 C 132.96 144.13 133.99 145.12 135.23 145.09 C 136.48 145.07 137.46 144.04 137.44 142.80 L 137.42 141.88 C 137.39 140.64 136.36 139.66 135.12 139.68 C 133.88 139.71 132.89 140.74 132.92 141.98 Z M 132.94 142.91 L 132.97 143.88 C 133.00 145.12 134.04 146.10 135.28 146.06 C 136.52 146.03 137.50 144.99 137.46 143.75 L 137.44 142.78 C 137.40 141.54 136.37 140.56 135.12 140.60 C 133.88 140.63 132.90 141.67 132.94 142.91 Z M 132.97 143.88 L 133.00 144.88 C 133.03 146.12 134.07 147.10 135.31 147.06 C 136.55 147.03 137.53 145.99 137.49 144.75 L 137.46 143.75 C 137.43 142.51 136.39 141.53 135.15 141.57 C 133.91 141.60 132.93 142.64 132.97 143.88 Z M 133.00 144.87 L 133.02 145.90 C 133.06 147.15 134.09 148.13 135.33 148.09 C 136.57 148.06 137.55 147.03 137.52 145.79 L 137.49 144.76 C 137.46 143.51 136.43 142.53 135.19 142.57 C 133.94 142.60 132.96 143.63 133.00 144.87 Z M 133.02 145.89 L 133.04 146.88 C 133.06 148.12 134.09 149.11 135.33 149.09 C 136.57 149.07 137.56 148.04 137.54 146.80 L 137.52 145.80 C 137.50 144.56 136.47 143.57 135.23 143.60 C 133.99 143.62 133.00 144.64 133.02 145.89 Z M 133.04 146.86 L 133.05 147.84 C 133.06 149.08 134.08 150.07 135.32 150.06 C 136.56 150.05 137.56 149.03 137.55 147.79 L 137.54 146.82 C 137.52 145.57 136.51 144.58 135.27 144.59 C 134.02 144.60 133.03 145.62 133.04 146.86 Z M 133.05 147.82 L 133.06 148.82 C 133.06 150.06 134.07 151.07 135.31 151.06 C 136.56 151.05 137.56 150.04 137.55 148.80 L 137.55 147.80 C 137.54 146.56 136.53 145.56 135.29 145.57 C 134.05 145.57 133.04 146.58 133.05 147.82 Z M 133.06 148.81 L 133.06 149.84 C 133.06 151.08 134.07 152.08 135.31 152.08 C 136.55 152.08 137.55 151.07 137.55 149.83 L 137.55 148.81 C 137.55 147.57 136.54 146.56 135.30 146.56 C 134.06 146.57 133.05 147.57 133.06 148.81 Z M 133.06 149.84 L 133.06 150.86 C 133.06 152.10 134.06 153.10 135.31 153.10 C 136.55 153.10 137.55 152.10 137.55 150.86 L 137.55 149.83 C 137.55 148.59 136.55 147.59 135.30 147.59 C 134.06 147.59 133.06 148.59 133.06 149.84 Z M 133.06 150.86 L 133.06 151.83 C 133.06 153.07 134.06 154.07 135.31 154.07 C 136.55 154.07 137.55 153.07 137.55 151.83 L 137.55 150.86 C 137.55 149.61 136.55 148.61 135.31 148.61 C 134.06 148.61 133.06 149.61 133.06 150.86 Z M 133.06 151.83 L 133.06 152.82 C 133.06 154.06 134.06 155.06 135.31 155.06 C 136.55 155.06 137.55 154.06 137.55 152.82 L 137.55 151.83 C 137.55 150.59 136.55 149.58 135.31 149.58 C 134.06 149.58 133.06 150.59 133.06 151.83 Z M 133.06 152.82 L 133.06 153.83 C 133.06 155.07 134.07 156.07 135.31 156.07 C 136.55 156.07 137.55 155.07 137.55 153.83 L 137.55 152.82 C 137.55 151.58 136.55 150.57 135.31 150.57 C 134.07 150.57 133.06 151.58 133.06 152.82 Z M 133.06 153.83 L 133.06 154.85 C 133.06 156.09 134.07 157.10 135.31 157.10 C 136.55 157.10 137.55 156.09 137.55 154.85 L 137.55 153.83 C 137.55 152.59 136.55 151.58 135.31 151.58 C 134.07 151.58 133.06 152.59 133.06 153.83 Z M 133.06 154.85 L 133.06 155.85 C 133.06 157.09 134.07 158.10 135.31 158.10 C 136.54 158.10 137.55 157.09 137.55 155.85 L 137.55 154.85 C 137.55 153.61 136.54 152.61 135.31 152.61 C 134.07 152.61 133.06 153.61 133.06 154.85 Z M 133.06 155.85 L 133.06 156.84 C 133.06 158.08 134.07 159.08 135.31 159.08 C 136.54 159.08 137.55 158.08 137.55 156.84 L 137.55 155.85 C 137.55 154.62 136.54 153.61 135.31 153.61 C 134.07 153.61 133.06 154.62 133.06 155.85 Z M 133.07 156.84 L 133.07 157.84 C 133.07 159.08 134.07 160.08 135.31 160.08 C 136.54 160.08 137.55 159.08 137.55 157.84 L 137.55 156.84 C 137.55 155.60 136.54 154.60 135.31 154.60 C 134.07 154.60 133.07 155.60 133.07 156.84 Z M 133.07 157.84 L 133.07 158.84 C 133.07 160.08 134.07 161.08 135.31 161.08 C 136.54 161.08 137.54 160.08 137.54 158.84 L 137.54 157.84 C 137.54 156.60 136.54 155.60 135.31 155.60 C 134.07 155.60 133.07 156.60 133.07 157.84 Z M 133.07 158.84 L 133.07 159.86 C 133.07 161.09 134.07 162.09 135.31 162.09 C 136.54 162.09 137.54 161.09 137.54 159.86 L 137.54 158.84 C 137.54 157.61 136.54 156.61 135.31 156.61 C 134.07 156.61 133.07 157.61 133.07 158.84 Z M 133.07 159.86 L 133.07 160.85 C 133.07 162.08 134.07 163.08 135.31 163.08 C 136.54 163.08 137.54 162.08 137.54 160.85 L 137.54 159.86 C 137.54 158.62 136.54 157.62 135.31 157.62 C 134.07 157.62 133.07 158.62 133.07 159.86 Z M 133.07 160.85 L 133.07 161.82 C 133.07 163.06 134.07 164.06 135.31 164.06 C 136.54 164.06 137.54 163.06 137.54 161.82 L 137.54 160.85 C 137.54 159.62 136.54 158.62 135.31 158.62 C 134.07 158.62 133.07 159.62 133.07 160.85 Z M 133.08 161.82 L 133.08 162.81 C 133.08 164.04 134.07 165.04 135.31 165.04 C 136.54 165.04 137.53 164.04 137.53 162.81 L 137.53 161.82 C 137.53 160.59 136.54 159.60 135.31 159.60 C 134.07 159.60 133.08 160.59 133.08 161.82 Z M 133.08 162.81 L 133.08 163.81 C 133.08 165.04 134.08 166.04 135.31 166.04 C 136.54 166.04 137.53 165.04 137.53 163.81 L 137.53 162.81 C 137.53 161.58 136.54 160.58 135.31 160.58 C 134.08 160.58 133.08 161.58 133.08 162.81 Z M 133.08 163.81 L 133.08 164.83 C 133.08 166.06 134.08 167.06 135.31 167.06 C 136.53 167.06 137.53 166.06 137.53 164.83 L 137.53 163.81 C 137.53 162.58 136.53 161.59 135.31 161.59 C 134.08 161.59 133.08 162.58 133.08 163.81 Z M 133.08 164.83 L 133.08 165.86 C 133.08 167.09 134.08 168.09 135.31 168.09 C 136.53 168.09 137.53 167.09 137.53 165.86 L 137.53 164.83 C 137.53 163.60 136.53 162.61 135.31 162.61 C 134.08 162.61 133.08 163.60 133.08 164.83 Z M 133.09 165.86 L 133.09 166.85 C 133.09 168.08 134.08 169.07 135.31 169.07 C 136.53 169.07 137.52 168.08 137.52 166.85 L 137.52 165.86 C 137.52 164.64 136.53 163.64 135.31 163.64 C 134.08 163.64 133.09 164.64 133.09 165.86 Z M 133.09 166.85 L 133.09 167.86 C 133.09 169.08 134.08 170.08 135.31 170.08 C 136.53 170.08 137.52 169.08 137.52 167.86 L 137.52 166.85 C 137.52 165.63 136.53 164.64 135.31 164.64 C 134.08 164.64 133.09 165.63 133.09 166.85 Z M 133.09 167.86 L 133.09 168.87 C 133.09 170.09 134.08 171.08 135.31 171.08 C 136.53 171.08 137.52 170.09 137.52 168.87 L 137.52 167.86 C 137.52 166.64 136.53 165.65 135.31 165.65 C 134.08 165.65 133.09 166.64 133.09 167.86 Z M 133.10 168.87 L 133.10 169.88 C 133.10 171.10 134.08 172.09 135.31 172.09 C 136.53 172.09 137.52 171.10 137.52 169.88 L 137.52 168.87 C 137.52 167.65 136.53 166.66 135.31 166.66 C 134.08 166.66 133.10 167.65 133.10 168.87 Z M 133.10 169.88 L 133.10 170.88 C 133.10 172.10 134.09 173.08 135.31 173.08 C 136.52 173.08 137.51 172.10 137.51 170.88 L 137.51 169.88 C 137.51 168.66 136.52 167.67 135.31 167.67 C 134.09 167.67 133.10 168.66 133.10 169.88 Z M 133.10 170.88 L 133.10 171.89 C 133.10 173.11 134.09 174.09 135.31 174.09 C 136.52 174.09 137.51 173.11 137.51 171.89 L 137.51 170.88 C 137.51 169.66 136.52 168.67 135.31 168.67 C 134.09 168.67 133.10 169.66 133.10 170.88 Z M 133.11 171.89 L 133.11 172.93 C 133.11 174.14 134.09 175.13 135.31 175.13 C 136.52 175.13 137.51 174.14 137.51 172.93 L 137.51 171.89 C 137.51 170.68 136.52 169.69 135.31 169.69 C 134.09 169.69 133.11 170.68 133.11 171.89 Z M 133.11 172.93 L 133.11 173.94 C 133.11 175.16 134.09 176.14 135.31 176.14 C 136.52 176.14 137.50 175.16 137.50 173.94 L 137.50 172.93 C 137.50 171.72 136.52 170.73 135.31 170.73 C 134.09 170.73 133.11 171.72 133.11 172.93 Z M 133.11 173.94 L 133.11 174.94 C 133.11 176.15 134.09 177.13 135.31 177.13 C 136.52 177.13 137.50 176.15 137.50 174.94 L 137.50 173.94 C 137.50 172.73 136.52 171.75 135.31 171.75 C 134.09 171.75 133.11 172.73 133.11 173.94 Z M 133.12 174.94 L 133.12 175.91 C 133.12 177.12 134.10 178.10 135.31 178.10 C 136.51 178.10 137.49 177.12 137.49 175.91 L 137.49 174.94 C 137.49 173.73 136.51 172.75 135.31 172.75 C 134.10 172.75 133.12 173.73 133.12 174.94 Z M 133.12 175.91 L 133.12 176.87 C 133.12 178.08 134.10 179.06 135.31 179.06 C 136.51 179.06 137.49 178.08 137.49 176.87 L 137.49 175.91 C 137.49 174.70 136.51 173.72 135.31 173.72 C 134.10 173.72 133.12 174.70 133.12 175.91 Z M 133.12 176.87 L 133.12 177.90 C 133.12 179.11 134.10 180.08 135.31 180.08 C 136.51 180.08 137.49 179.11 137.49 177.90 L 137.49 176.87 C 137.49 175.67 136.51 174.69 135.31 174.69 C 134.10 174.69 133.12 175.67 133.12 176.87 Z M 133.13 177.90 L 133.13 178.91 C 133.13 180.12 134.10 181.09 135.31 181.09 C 136.51 181.09 137.48 180.12 137.48 178.91 L 137.48 177.90 C 137.48 176.70 136.51 175.73 135.31 175.73 C 134.10 175.73 133.13 176.70 133.13 177.90 Z M 133.13 178.91 L 133.13 179.91 C 133.13 181.11 134.11 182.08 135.31 182.08 C 136.51 182.08 137.48 181.11 137.48 179.91 L 137.48 178.91 C 137.48 177.71 136.51 176.74 135.31 176.74 C 134.11 176.74 133.13 177.71 133.13 178.91 Z M 133.14 179.91 L 133.14 180.89 C 133.14 182.09 134.11 183.06 135.31 183.06 C 136.50 183.06 137.47 182.09 137.47 180.89 L 137.47 179.91 C 137.47 178.71 136.50 177.74 135.31 177.74 C 134.11 177.74 133.14 178.71 133.14 179.91 Z M 133.14 180.89 L 133.14 181.88 C 133.14 183.07 134.11 184.04 135.31 184.04 C 136.50 184.04 137.47 183.07 137.47 181.88 L 137.47 180.89 C 137.47 179.69 136.50 178.72 135.31 178.72 C 134.11 178.72 133.14 179.69 133.14 180.89 Z M 133.15 181.88 L 133.15 182.91 C 133.15 184.10 134.11 185.07 135.31 185.07 C 136.50 185.07 137.47 184.10 137.47 182.91 L 137.47 181.88 C 137.47 180.69 136.50 179.72 135.31 179.72 C 134.11 179.72 133.15 180.69 133.15 181.88 Z M 133.15 182.91 L 133.15 183.91 C 133.15 185.10 134.12 186.07 135.31 186.07 C 136.50 186.07 137.46 185.10 137.46 183.91 L 137.46 182.91 C 137.46 181.72 136.50 180.75 135.31 180.75 C 134.12 180.75 133.15 181.72 133.15 182.91 Z M 133.16 183.91 L 133.16 184.90 C 133.16 186.09 134.12 187.05 135.31 187.05 C 136.49 187.05 137.45 186.09 137.45 184.90 L 137.45 183.91 C 137.45 182.73 136.49 181.77 135.31 181.77 C 134.12 181.77 133.16 182.73 133.16 183.91 Z M 133.16 184.90 L 133.16 185.87 C 133.16 187.06 134.12 188.02 135.31 188.02 C 136.49 188.02 137.45 187.06 137.45 185.87 L 137.45 184.90 C 137.45 183.72 136.49 182.76 135.31 182.76 C 134.12 182.76 133.16 183.72 133.16 184.90 Z M 133.17 185.87 L 133.17 186.92 C 133.17 188.10 134.12 189.06 135.30 189.06 C 136.48 189.06 137.44 188.10 137.44 186.92 L 137.44 185.87 C 137.44 184.69 136.49 183.73 135.31 183.73 C 134.13 183.73 133.17 184.69 133.17 185.87 Z M 133.18 186.91 L 133.17 187.94 C 133.17 189.11 134.12 190.07 135.30 190.07 C 136.47 190.08 137.43 189.12 137.43 187.95 L 137.43 186.92 C 137.44 185.75 136.49 184.79 135.31 184.79 C 134.13 184.79 133.18 185.74 133.18 186.91 Z M 133.18 187.93 L 133.17 188.91 C 133.17 190.08 134.11 191.04 135.28 191.05 C 136.45 191.06 137.41 190.12 137.42 188.94 L 137.42 187.96 C 137.43 186.79 136.49 185.83 135.32 185.82 C 134.15 185.81 133.19 186.76 133.18 187.93 Z M 133.18 188.90 L 133.17 189.84 C 133.15 191.01 134.08 191.97 135.25 191.98 C 136.41 192.00 137.37 191.07 137.39 189.90 L 137.41 188.96 C 137.43 187.80 136.49 186.84 135.33 186.82 C 134.16 186.80 133.20 187.73 133.18 188.90 Z M 133.18 189.81 L 133.15 190.74 C 133.12 191.90 134.04 192.86 135.20 192.90 C 136.36 192.93 137.33 192.01 137.36 190.85 L 137.38 189.93 C 137.42 188.77 136.50 187.80 135.34 187.77 C 134.18 187.74 133.21 188.65 133.18 189.81 Z M 133.16 190.70 L 133.12 191.63 C 133.07 192.78 133.96 193.76 135.11 193.82 C 136.27 193.87 137.25 192.98 137.30 191.83 L 137.35 190.89 C 137.40 189.74 136.51 188.76 135.35 188.70 C 134.20 188.65 133.22 189.54 133.16 190.70 Z M 133.13 191.58 L 133.06 192.59 C 132.98 193.74 133.85 194.73 135.00 194.81 C 136.15 194.89 137.14 194.03 137.22 192.88 L 137.29 191.87 C 137.37 190.72 136.50 189.73 135.36 189.65 C 134.21 189.57 133.21 190.44 133.13 191.58 Z M 133.08 192.55 L 132.97 193.69 C 132.87 194.83 133.71 195.84 134.85 195.94 C 135.99 196.04 137.00 195.20 137.10 194.06 L 137.21 192.92 C 137.31 191.78 136.47 190.77 135.33 190.67 C 134.19 190.57 133.18 191.41 133.08 192.55 Z M 132.99 193.65 L 132.86 194.88 C 132.73 196.01 133.55 197.02 134.68 197.15 C 135.82 197.27 136.83 196.45 136.95 195.32 L 137.09 194.10 C 137.21 192.96 136.39 191.95 135.26 191.83 C 134.13 191.70 133.11 192.52 132.99 193.65 Z M 132.88 194.84 L 132.73 196.03 C 132.58 197.15 133.38 198.18 134.50 198.32 C 135.62 198.46 136.65 197.66 136.79 196.54 L 136.94 195.35 C 137.08 194.23 136.28 193.21 135.16 193.07 C 134.04 192.93 133.02 193.72 132.88 194.84 Z M 132.75 195.97 L 132.60 196.93 C 132.43 198.04 133.19 199.08 134.30 199.25 C 135.41 199.43 136.45 198.67 136.62 197.56 L 136.77 196.60 C 136.94 195.49 136.18 194.45 135.07 194.28 C 133.96 194.11 132.92 194.87 132.75 195.97 Z M 132.65 196.77 L 132.52 197.31 C 132.25 198.39 132.92 199.48 134.00 199.74 C 135.09 200.01 136.18 199.34 136.44 198.26 L 136.57 197.72 C 136.83 196.64 136.17 195.55 135.08 195.28 C 134.00 195.02 132.91 195.69 132.65 196.77 Z M 136.13 196.72 L 136.01 196.53 C 135.42 195.61 134.20 195.35 133.29 195.94 C 132.37 196.53 132.11 197.75 132.70 198.66 L 132.83 198.85 C 133.42 199.76 134.63 200.03 135.55 199.44 C 136.46 198.85 136.72 197.63 136.13 196.72 Z M 136.24 197.48 L 136.17 196.45 C 136.11 195.41 135.22 194.62 134.18 194.68 C 133.14 194.74 132.35 195.64 132.41 196.68 L 132.47 197.71 C 132.54 198.75 133.43 199.54 134.47 199.48 C 135.51 199.41 136.30 198.52 136.24 197.48 Z M 136.10 196.54 L 136.08 195.12 C 136.07 194.13 135.26 193.33 134.26 193.34 C 133.26 193.35 132.46 194.16 132.47 195.16 L 132.49 196.58 C 132.50 197.58 133.31 198.38 134.31 198.37 C 135.31 198.36 136.11 197.54 136.10 196.54 Z M 136.03 195.16 L 136.04 194.23 C 136.05 193.26 135.27 192.47 134.30 192.46 C 133.33 192.46 132.54 193.24 132.53 194.21 L 132.52 195.13 C 132.52 196.10 133.30 196.89 134.27 196.90 C 135.24 196.91 136.03 196.12 136.03 195.16 Z M 136.02 194.25 L 136.03 193.27 C 136.05 192.32 135.28 191.53 134.33 191.51 C 133.37 191.50 132.58 192.26 132.57 193.22 L 132.56 194.19 C 132.54 195.15 133.30 195.93 134.26 195.95 C 135.22 195.96 136.00 195.20 136.02 194.25 Z M 136.01 193.28 L 136.03 192.27 C 136.05 191.33 135.30 190.55 134.36 190.53 C 133.42 190.51 132.64 191.26 132.62 192.20 L 132.60 193.21 C 132.58 194.15 133.32 194.93 134.26 194.95 C 135.21 194.97 135.99 194.22 136.01 193.28 Z M 136.00 192.27 L 136.03 191.24 C 136.05 190.31 135.32 189.54 134.39 189.51 C 133.46 189.49 132.69 190.22 132.67 191.15 L 132.64 192.19 C 132.62 193.12 133.35 193.89 134.28 193.91 C 135.21 193.94 135.98 193.20 136.00 192.27 Z M 136.00 191.24 L 136.03 190.18 C 136.05 189.27 135.33 188.51 134.42 188.49 C 133.51 188.46 132.74 189.18 132.72 190.10 L 132.69 191.15 C 132.67 192.06 133.39 192.82 134.30 192.85 C 135.22 192.87 135.98 192.15 136.00 191.24 Z M 136.01 190.19 L 136.02 189.94 C 136.05 189.03 135.33 188.28 134.43 188.26 C 133.52 188.23 132.77 188.94 132.74 189.85 L 132.74 190.10 C 132.71 191.00 133.43 191.76 134.33 191.78 C 135.24 191.80 135.99 191.09 136.01 190.19 Z"
      fill="black"
      fill-rule="nonzero" /><path d="M 112.59 151.82 L 113.46 152.24 C 114.62 152.80 116.00 152.32 116.56 151.16 C 117.11 150.01 116.63 148.63 115.48 148.07 L 114.61 147.65 C 113.46 147.09 112.07 147.58 111.51 148.73 C 110.96 149.88 111.44 151.26 112.59 151.82 Z M 113.63 152.32 L 114.54 152.67 C 115.74 153.13 117.08 152.54 117.54 151.35 C 118.00 150.15 117.41 148.81 116.22 148.35 L 115.31 148.00 C 114.12 147.54 112.78 148.13 112.31 149.32 C 111.85 150.51 112.44 151.85 113.63 152.32 Z M 114.88 152.77 L 115.87 152.99 C 117.12 153.26 118.35 152.47 118.63 151.22 C 118.90 149.97 118.11 148.74 116.86 148.46 L 115.88 148.25 C 114.63 147.97 113.39 148.76 113.12 150.01 C 112.84 151.26 113.64 152.50 114.88 152.77 Z M 116.31 153.04 L 117.30 153.06 C 118.58 153.09 119.64 152.08 119.66 150.80 C 119.69 149.52 118.68 148.46 117.40 148.43 L 116.42 148.41 C 115.14 148.38 114.08 149.40 114.05 150.67 C 114.02 151.95 115.04 153.01 116.31 153.04 Z M 117.66 153.04 L 118.59 152.91 C 119.86 152.74 120.74 151.58 120.57 150.31 C 120.40 149.04 119.23 148.16 117.97 148.33 L 117.04 148.45 C 115.77 148.63 114.89 149.79 115.06 151.06 C 115.23 152.32 116.39 153.21 117.66 153.04 Z M 118.82 152.87 L 119.79 152.64 C 121.03 152.34 121.80 151.10 121.50 149.85 C 121.21 148.61 119.96 147.84 118.72 148.14 L 117.74 148.37 C 116.50 148.67 115.73 149.91 116.03 151.16 C 116.33 152.40 117.57 153.17 118.82 152.87 Z M 119.94 152.60 L 120.94 152.29 C 122.16 151.91 122.84 150.61 122.46 149.39 C 122.08 148.17 120.79 147.49 119.57 147.87 L 118.57 148.18 C 117.35 148.56 116.67 149.85 117.05 151.07 C 117.42 152.29 118.72 152.98 119.94 152.60 Z M 121.03 152.26 L 122.03 151.90 C 123.23 151.47 123.85 150.14 123.42 148.94 C 122.99 147.74 121.67 147.12 120.47 147.55 L 119.47 147.90 C 118.27 148.33 117.65 149.66 118.08 150.86 C 118.51 152.06 119.83 152.69 121.03 152.26 Z M 122.08 151.87 L 122.97 151.53 C 124.16 151.07 124.75 149.73 124.29 148.54 C 123.83 147.35 122.49 146.76 121.30 147.22 L 120.41 147.57 C 119.22 148.03 118.63 149.37 119.10 150.56 C 119.56 151.75 120.90 152.34 122.08 151.87 Z M 123.02 151.50 L 123.90 151.14 C 125.07 150.65 125.63 149.31 125.14 148.13 C 124.66 146.96 123.31 146.40 122.13 146.89 L 121.26 147.25 C 120.08 147.74 119.52 149.08 120.01 150.26 C 120.50 151.43 121.84 151.99 123.02 151.50 Z M 123.94 151.12 L 124.83 150.73 C 125.99 150.22 126.52 148.86 126.01 147.70 C 125.50 146.54 124.14 146.01 122.98 146.52 L 122.09 146.91 C 120.93 147.42 120.40 148.78 120.91 149.94 C 121.42 151.10 122.78 151.63 123.94 151.12 Z M 124.87 150.70 L 125.79 150.27 C 126.94 149.74 127.44 148.38 126.91 147.23 C 126.38 146.08 125.02 145.58 123.87 146.11 L 122.94 146.54 C 121.79 147.07 121.29 148.43 121.82 149.58 C 122.36 150.73 123.72 151.23 124.87 150.70 Z M 125.82 150.25 L 126.81 149.78 C 127.94 149.23 128.42 147.87 127.87 146.73 C 127.33 145.59 125.96 145.11 124.82 145.66 L 123.84 146.13 C 122.70 146.68 122.22 148.05 122.77 149.19 C 123.32 150.32 124.69 150.80 125.82 150.25 Z M 126.83 149.76 L 127.63 149.37 C 128.76 148.81 129.22 147.44 128.66 146.31 C 128.10 145.18 126.73 144.72 125.60 145.28 L 124.80 145.68 C 123.67 146.24 123.21 147.61 123.77 148.74 C 124.33 149.86 125.70 150.32 126.83 149.76 Z M 127.65 149.35 L 128.46 148.94 C 129.58 148.37 130.03 147.00 129.46 145.88 C 128.89 144.76 127.52 144.31 126.40 144.88 L 125.59 145.29 C 124.47 145.86 124.02 147.23 124.59 148.35 C 125.16 149.47 126.53 149.92 127.65 149.35 Z M 128.48 148.93 L 129.32 148.48 C 130.44 147.91 130.87 146.53 130.29 145.42 C 129.71 144.31 128.34 143.88 127.23 144.45 L 126.38 144.90 C 125.27 145.47 124.83 146.85 125.41 147.96 C 125.99 149.07 127.36 149.50 128.48 148.93 Z M 129.34 148.47 L 130.23 148.00 C 131.33 147.41 131.75 146.04 131.16 144.93 C 130.57 143.83 129.20 143.41 128.09 144.00 L 127.21 144.47 C 126.11 145.06 125.69 146.43 126.28 147.53 C 126.86 148.64 128.24 149.06 129.34 148.47 Z M 130.24 147.98 L 131.16 147.48 C 132.26 146.89 132.66 145.51 132.06 144.41 C 131.46 143.32 130.09 142.91 128.99 143.51 L 128.08 144.01 C 126.98 144.61 126.58 145.98 127.17 147.08 C 127.77 148.18 129.15 148.58 130.24 147.98 Z M 131.18 147.47 L 132.13 146.94 C 133.22 146.33 133.60 144.95 133.00 143.87 C 132.39 142.78 131.01 142.39 129.93 143.00 L 128.98 143.53 C 127.89 144.14 127.50 145.51 128.11 146.60 C 128.72 147.69 130.09 148.08 131.18 147.47 Z M 132.15 146.92 L 133.12 146.36 C 134.20 145.75 134.57 144.37 133.95 143.29 C 133.34 142.21 131.96 141.84 130.88 142.46 L 129.91 143.01 C 128.83 143.63 128.45 145.01 129.07 146.09 C 129.69 147.17 131.07 147.54 132.15 146.92 Z M 133.13 146.35 L 134.02 145.83 C 135.09 145.20 135.45 143.83 134.82 142.76 C 134.19 141.69 132.82 141.33 131.75 141.96 L 130.87 142.47 C 129.80 143.10 129.44 144.47 130.06 145.54 C 130.69 146.61 132.06 146.97 133.13 146.35 Z M 134.03 145.81 L 134.92 145.28 C 135.98 144.65 136.33 143.28 135.70 142.22 C 135.07 141.15 133.69 140.81 132.63 141.44 L 131.74 141.97 C 130.68 142.60 130.33 143.98 130.96 145.04 C 131.59 146.10 132.97 146.45 134.03 145.81 Z M 134.93 145.27 L 135.82 144.73 C 136.88 144.09 137.21 142.72 136.58 141.67 C 135.94 140.62 134.57 140.28 133.52 140.91 L 132.62 141.45 C 131.57 142.09 131.23 143.46 131.87 144.51 C 132.51 145.57 133.88 145.90 134.93 145.27 Z M 135.83 144.71 L 136.71 144.17 C 137.76 143.53 138.09 142.17 137.45 141.12 C 136.81 140.08 135.44 139.75 134.40 140.39 L 133.51 140.93 C 132.47 141.57 132.14 142.93 132.78 143.98 C 133.42 145.02 134.78 145.35 135.83 144.71 Z M 136.71 144.16 L 137.58 143.63 C 138.62 142.99 138.94 141.63 138.30 140.59 C 137.66 139.55 136.30 139.23 135.26 139.87 L 134.40 140.40 C 133.36 141.04 133.03 142.40 133.67 143.44 C 134.31 144.48 135.67 144.80 136.71 144.16 Z M 137.58 143.62 L 138.41 143.10 C 139.45 142.46 139.77 141.11 139.13 140.07 C 138.49 139.04 137.13 138.72 136.10 139.36 L 135.26 139.88 C 134.23 140.52 133.91 141.87 134.55 142.91 C 135.19 143.94 136.54 144.26 137.58 143.62 Z M 138.41 143.09 L 139.21 142.60 C 140.24 141.96 140.55 140.61 139.91 139.58 C 139.27 138.55 137.92 138.24 136.89 138.87 L 136.10 139.37 C 135.07 140.01 134.75 141.36 135.39 142.39 C 136.03 143.42 137.38 143.73 138.41 143.09 Z M 139.20 142.59 L 140.06 142.06 C 141.08 141.42 141.39 140.08 140.76 139.05 C 140.12 138.03 138.78 137.72 137.75 138.35 L 136.90 138.88 C 135.88 139.52 135.56 140.86 136.20 141.89 C 136.83 142.91 138.18 143.23 139.20 142.59 Z M 140.04 142.05 L 141.07 141.42 C 142.09 140.79 142.40 139.45 141.77 138.43 C 141.14 137.41 139.80 137.10 138.78 137.73 L 137.76 138.36 C 136.74 138.99 136.43 140.33 137.06 141.35 C 137.69 142.37 139.03 142.68 140.04 142.05 Z M 141.05 141.42 L 141.96 140.86 C 142.98 140.24 143.30 138.92 142.68 137.90 C 142.06 136.88 140.73 136.56 139.72 137.18 L 138.80 137.73 C 137.79 138.35 137.46 139.68 138.08 140.70 C 138.70 141.71 140.03 142.04 141.05 141.42 Z M 141.93 140.86 L 142.75 140.38 C 143.77 139.78 144.11 138.46 143.51 137.44 C 142.90 136.42 141.59 136.09 140.57 136.69 L 139.75 137.17 C 138.73 137.78 138.39 139.09 138.99 140.11 C 139.59 141.13 140.91 141.47 141.93 140.86 Z M 142.71 140.39 L 143.46 139.97 C 144.48 139.39 144.84 138.09 144.27 137.07 C 143.69 136.04 142.39 135.68 141.37 136.25 L 140.62 136.68 C 139.59 137.25 139.23 138.55 139.81 139.58 C 140.38 140.60 141.68 140.97 142.71 140.39 Z M 143.39 139.99 L 144.20 139.57 C 145.24 139.03 145.64 137.75 145.10 136.71 C 144.56 135.67 143.28 135.27 142.24 135.81 L 141.43 136.23 C 140.39 136.77 139.99 138.05 140.53 139.09 C 141.07 140.13 142.35 140.54 143.39 139.99 Z M 144.06 139.67 L 145.21 139.18 C 146.30 138.72 146.81 137.46 146.35 136.36 C 145.89 135.27 144.62 134.76 143.53 135.22 L 142.38 135.71 C 141.29 136.17 140.78 137.44 141.24 138.53 C 141.70 139.62 142.96 140.13 144.06 139.67 Z M 144.69 139.38 L 145.52 139.26 C 146.72 139.08 147.55 137.96 147.38 136.76 C 147.20 135.56 146.08 134.72 144.88 134.90 L 144.05 135.02 C 142.85 135.20 142.01 136.32 142.19 137.52 C 142.37 138.72 143.49 139.56 144.69 139.38 Z M 143.55 138.60 L 143.92 139.00 C 144.75 139.92 146.18 139.98 147.09 139.14 C 148.00 138.30 148.06 136.88 147.22 135.96 L 146.85 135.56 C 146.01 134.65 144.59 134.59 143.68 135.43 C 142.77 136.27 142.71 137.69 143.55 138.60 Z M 143.32 137.21 L 143.20 138.12 C 143.05 139.36 143.94 140.50 145.18 140.65 C 146.42 140.80 147.55 139.92 147.71 138.67 L 147.82 137.76 C 147.97 136.52 147.09 135.38 145.85 135.23 C 144.60 135.08 143.47 135.96 143.32 137.21 Z M 143.32 137.61 L 142.89 138.77 C 142.45 139.95 143.06 141.26 144.24 141.70 C 145.42 142.13 146.73 141.53 147.17 140.35 L 147.60 139.19 C 148.03 138.00 147.43 136.69 146.24 136.26 C 145.06 135.82 143.75 136.43 143.32 137.61 Z M 142.96 138.58 L 142.54 139.47 C 142.00 140.62 142.48 141.98 143.63 142.52 C 144.77 143.06 146.13 142.57 146.67 141.43 L 147.10 140.54 C 147.64 139.39 147.15 138.03 146.01 137.49 C 144.87 136.95 143.50 137.44 142.96 138.58 Z M 142.58 139.38 L 142.11 140.27 C 141.52 141.39 141.95 142.77 143.07 143.36 C 144.18 143.95 145.57 143.53 146.16 142.41 L 146.63 141.52 C 147.22 140.40 146.79 139.02 145.68 138.43 C 144.56 137.84 143.17 138.26 142.58 139.38 Z M 142.13 140.23 L 141.64 141.11 C 141.03 142.21 141.43 143.61 142.54 144.22 C 143.65 144.84 145.04 144.44 145.65 143.33 L 146.14 142.45 C 146.75 141.34 146.35 139.95 145.25 139.33 C 144.14 138.72 142.75 139.12 142.13 140.23 Z M 141.64 141.11 L 141.16 141.99 C 140.55 143.10 140.95 144.49 142.06 145.10 C 143.17 145.72 144.56 145.31 145.17 144.20 L 145.66 143.32 C 146.27 142.21 145.86 140.82 144.75 140.21 C 143.65 139.60 142.25 140.00 141.64 141.11 Z M 141.15 142.00 L 140.67 142.88 C 140.07 144.00 140.48 145.39 141.60 145.99 C 142.71 146.59 144.10 146.18 144.71 145.07 L 145.18 144.19 C 145.79 143.07 145.37 141.68 144.26 141.08 C 143.14 140.48 141.75 140.89 141.15 142.00 Z M 140.67 142.88 L 140.20 143.76 C 139.59 144.87 140.01 146.27 141.12 146.87 C 142.24 147.47 143.63 147.06 144.23 145.94 L 144.71 145.07 C 145.31 143.95 144.90 142.56 143.78 141.96 C 142.67 141.35 141.28 141.77 140.67 142.88 Z M 140.20 143.75 L 139.73 144.61 C 139.12 145.72 139.52 147.12 140.63 147.73 C 141.74 148.34 143.14 147.94 143.75 146.83 L 144.22 145.96 C 144.84 144.85 144.43 143.45 143.32 142.84 C 142.21 142.23 140.82 142.64 140.20 143.75 Z M 139.74 144.59 L 139.26 145.44 C 138.64 146.55 139.03 147.95 140.14 148.57 C 141.24 149.19 142.64 148.80 143.26 147.69 L 143.74 146.84 C 144.36 145.74 143.97 144.34 142.86 143.72 C 141.76 143.10 140.36 143.49 139.74 144.59 Z M 139.26 145.44 L 138.77 146.31 C 138.15 147.41 138.54 148.81 139.64 149.44 C 140.75 150.06 142.15 149.67 142.77 148.56 L 143.26 147.70 C 143.88 146.59 143.49 145.19 142.39 144.57 C 141.28 143.95 139.88 144.34 139.26 145.44 Z M 138.76 146.32 L 138.26 147.22 C 137.64 148.33 138.04 149.73 139.15 150.35 C 140.26 150.96 141.66 150.56 142.28 149.46 L 142.78 148.55 C 143.39 147.44 143.00 146.05 141.89 145.43 C 140.78 144.81 139.38 145.21 138.76 146.32 Z M 138.25 147.24 L 137.79 148.08 C 137.19 149.20 137.60 150.59 138.72 151.20 C 139.83 151.80 141.23 151.39 141.83 150.27 L 142.29 149.44 C 142.89 148.32 142.48 146.93 141.36 146.32 C 140.25 145.72 138.85 146.13 138.25 147.24 Z M 137.78 148.10 L 137.33 148.97 C 136.73 150.09 137.16 151.48 138.28 152.07 C 139.40 152.66 140.79 152.24 141.39 151.12 L 141.84 150.25 C 142.44 149.13 142.01 147.74 140.89 147.15 C 139.77 146.56 138.38 146.98 137.78 148.10 Z M 137.32 148.99 L 136.85 149.89 C 136.27 151.01 136.71 152.40 137.83 152.98 C 138.96 153.57 140.35 153.12 140.93 152.00 L 141.40 151.10 C 141.98 149.97 141.54 148.58 140.41 148.00 C 139.29 147.42 137.90 147.86 137.32 148.99 Z M 136.84 149.90 L 136.36 150.84 C 135.79 151.98 136.24 153.36 137.38 153.93 C 138.51 154.50 139.89 154.05 140.46 152.92 L 140.94 151.98 C 141.51 150.85 141.06 149.47 139.93 148.89 C 138.80 148.32 137.41 148.77 136.84 149.90 Z M 136.36 150.86 L 135.94 151.70 C 135.37 152.84 135.84 154.22 136.97 154.78 C 138.11 155.35 139.49 154.88 140.05 153.75 L 140.47 152.90 C 141.03 151.77 140.57 150.39 139.44 149.83 C 138.30 149.26 136.92 149.72 136.36 150.86 Z M 135.93 151.72 L 135.51 152.57 C 134.96 153.71 135.43 155.09 136.57 155.64 C 137.71 156.20 139.08 155.73 139.64 154.59 L 140.06 153.73 C 140.61 152.59 140.14 151.22 139.00 150.66 C 137.86 150.11 136.49 150.58 135.93 151.72 Z M 135.51 152.59 L 135.08 153.48 C 134.53 154.62 135.01 156.00 136.15 156.55 C 137.29 157.10 138.66 156.62 139.21 155.48 L 139.64 154.58 C 140.19 153.44 139.71 152.07 138.57 151.52 C 137.43 150.97 136.06 151.44 135.51 152.59 Z M 135.07 153.49 L 134.62 154.43 C 134.08 155.58 134.57 156.95 135.71 157.49 C 136.86 158.04 138.22 157.55 138.77 156.40 L 139.22 155.46 C 139.76 154.32 139.27 152.95 138.13 152.41 C 136.98 151.86 135.62 152.35 135.07 153.49 Z M 134.62 154.44 L 134.16 155.42 C 133.63 156.56 134.12 157.93 135.26 158.47 C 136.41 159.01 137.78 158.51 138.31 157.37 L 138.77 156.39 C 139.31 155.25 138.82 153.88 137.67 153.34 C 136.52 152.81 135.16 153.30 134.62 154.44 Z M 134.16 155.42 L 133.74 156.34 C 133.20 157.49 133.70 158.85 134.85 159.38 C 135.99 159.92 137.36 159.42 137.89 158.27 L 138.32 157.36 C 138.85 156.21 138.35 154.85 137.21 154.31 C 136.06 153.78 134.70 154.28 134.16 155.42 Z M 133.74 156.34 L 133.30 157.28 C 132.77 158.42 133.27 159.79 134.42 160.32 C 135.56 160.85 136.92 160.35 137.46 159.20 L 137.89 158.27 C 138.42 157.12 137.92 155.76 136.78 155.23 C 135.63 154.70 134.27 155.20 133.74 156.34 Z M 133.31 157.28 L 132.87 158.21 C 132.34 159.36 132.84 160.71 133.99 161.25 C 135.13 161.78 136.49 161.28 137.02 160.13 L 137.45 159.20 C 137.99 158.06 137.49 156.70 136.34 156.17 C 135.20 155.64 133.84 156.13 133.31 157.28 Z M 132.88 158.21 L 132.46 159.12 C 131.92 160.26 132.42 161.62 133.56 162.15 C 134.71 162.68 136.06 162.19 136.60 161.04 L 137.02 160.14 C 137.55 158.99 137.06 157.63 135.91 157.10 C 134.77 156.57 133.41 157.06 132.88 158.21 Z M 132.46 159.11 L 132.06 159.97 C 131.52 161.11 132.01 162.47 133.15 163.01 C 134.29 163.54 135.65 163.05 136.19 161.91 L 136.59 161.05 C 137.13 159.91 136.64 158.55 135.50 158.01 C 134.36 157.48 133.00 157.97 132.46 159.11 Z M 132.07 159.96 L 131.60 160.94 C 131.06 162.08 131.54 163.43 132.67 163.98 C 133.81 164.52 135.17 164.04 135.71 162.90 L 136.17 161.92 C 136.72 160.79 136.23 159.43 135.10 158.89 C 133.97 158.35 132.61 158.83 132.07 159.96 Z M 131.62 160.94 L 131.16 161.87 C 130.62 163.00 131.09 164.35 132.22 164.89 C 133.34 165.44 134.69 164.97 135.24 163.84 L 135.69 162.91 C 136.24 161.78 135.77 160.43 134.64 159.88 C 133.51 159.34 132.16 159.81 131.62 160.94 Z M 131.18 161.87 L 130.75 162.74 C 130.21 163.86 130.67 165.21 131.79 165.75 C 132.91 166.29 134.26 165.83 134.80 164.71 L 135.23 163.84 C 135.77 162.72 135.31 161.38 134.19 160.83 C 133.07 160.29 131.72 160.75 131.18 161.87 Z M 130.76 162.75 L 130.36 163.58 C 129.82 164.69 130.29 166.03 131.40 166.57 C 132.51 167.11 133.86 166.65 134.40 165.53 L 134.80 164.70 C 135.34 163.59 134.87 162.25 133.76 161.71 C 132.64 161.17 131.30 161.63 130.76 162.75 Z M 130.36 163.60 L 129.94 164.48 C 129.41 165.59 129.88 166.93 131.00 167.46 C 132.11 167.99 133.44 167.51 133.97 166.40 L 134.39 165.51 C 134.92 164.40 134.45 163.07 133.34 162.54 C 132.22 162.01 130.89 162.48 130.36 163.60 Z M 129.94 164.50 L 129.51 165.41 C 128.99 166.52 129.47 167.85 130.59 168.37 C 131.70 168.89 133.03 168.41 133.55 167.29 L 133.98 166.38 C 134.50 165.27 134.01 163.94 132.90 163.42 C 131.78 162.90 130.46 163.38 129.94 164.50 Z M 129.51 165.42 L 129.09 166.32 C 128.58 167.44 129.06 168.76 130.18 169.27 C 131.29 169.79 132.62 169.30 133.13 168.19 L 133.55 167.28 C 134.07 166.17 133.58 164.85 132.47 164.33 C 131.35 163.81 130.03 164.30 129.51 165.42 Z M 129.10 166.32 L 128.68 167.22 C 128.17 168.33 128.65 169.65 129.76 170.17 C 130.88 170.68 132.20 170.20 132.71 169.09 L 133.13 168.19 C 133.64 167.08 133.16 165.76 132.05 165.24 C 130.93 164.73 129.61 165.21 129.10 166.32 Z M 128.69 167.21 L 128.26 168.13 C 127.74 169.24 128.22 170.56 129.33 171.08 C 130.44 171.60 131.75 171.12 132.27 170.01 L 132.70 169.09 C 133.22 167.98 132.74 166.67 131.64 166.15 C 130.53 165.63 129.21 166.11 128.69 167.21 Z M 128.27 168.12 L 127.84 169.03 C 127.32 170.13 127.79 171.45 128.89 171.97 C 129.99 172.50 131.31 172.03 131.83 170.92 L 132.26 170.02 C 132.79 168.92 132.32 167.60 131.21 167.07 C 130.11 166.55 128.79 167.02 128.27 168.12 Z M 127.85 169.02 L 127.42 169.92 C 126.89 171.01 127.35 172.33 128.45 172.86 C 129.55 173.39 130.87 172.92 131.39 171.83 L 131.82 170.93 C 132.35 169.84 131.89 168.52 130.79 167.99 C 129.69 167.46 128.38 167.93 127.85 169.02 Z M 127.43 169.91 L 126.99 170.81 C 126.46 171.90 126.92 173.21 128.01 173.74 C 129.10 174.28 130.41 173.82 130.95 172.73 L 131.38 171.84 C 131.91 170.74 131.46 169.43 130.37 168.90 C 129.28 168.36 127.96 168.82 127.43 169.91 Z M 127.00 170.80 L 126.56 171.70 C 126.02 172.79 126.47 174.10 127.55 174.64 C 128.64 175.17 129.95 174.73 130.49 173.64 L 130.93 172.74 C 131.47 171.65 131.03 170.34 129.94 169.80 C 128.86 169.27 127.54 169.71 127.00 170.80 Z M 126.57 171.69 L 126.12 172.59 C 125.58 173.66 126.02 174.98 127.10 175.52 C 128.17 176.06 129.49 175.62 130.03 174.55 L 130.48 173.65 C 131.02 172.57 130.58 171.26 129.50 170.72 C 128.42 170.18 127.11 170.62 126.57 171.69 Z M 126.13 172.58 L 125.69 173.46 C 125.14 174.53 125.57 175.84 126.64 176.39 C 127.71 176.93 129.02 176.50 129.57 175.43 L 130.02 174.55 C 130.56 173.48 130.14 172.17 129.06 171.62 C 127.99 171.08 126.68 171.51 126.13 172.58 Z M 125.70 173.45 L 125.30 174.21 C 124.75 175.28 125.17 176.59 126.24 177.14 C 127.31 177.69 128.62 177.27 129.17 176.20 L 129.56 175.44 C 130.11 174.37 129.69 173.06 128.62 172.51 C 127.56 171.96 126.25 172.38 125.70 173.45 Z M 125.31 174.21 L 124.89 175.01 C 124.34 176.08 124.76 177.39 125.82 177.94 C 126.88 178.49 128.19 178.07 128.74 177.01 L 129.16 176.21 C 129.71 175.14 129.30 173.83 128.23 173.28 C 127.17 172.73 125.86 173.15 125.31 174.21 Z M 124.89 175.02 L 124.42 175.93 C 123.88 176.99 124.29 178.30 125.36 178.85 C 126.42 179.39 127.73 178.98 128.27 177.91 L 128.74 177.00 C 129.29 175.94 128.87 174.64 127.81 174.09 C 126.75 173.54 125.44 173.96 124.89 175.02 Z M 124.42 175.94 L 123.88 177.01 C 123.33 178.07 123.75 179.38 124.82 179.92 C 125.88 180.46 127.18 180.04 127.73 178.98 L 128.27 177.91 C 128.82 176.84 128.40 175.54 127.33 175.00 C 126.27 174.45 124.97 174.87 124.42 175.94 Z M 123.88 177.02 L 123.46 177.84 C 122.92 178.91 123.34 180.21 124.41 180.74 C 125.47 181.28 126.77 180.86 127.31 179.80 L 127.73 178.97 C 128.27 177.91 127.84 176.61 126.78 176.07 C 125.71 175.53 124.41 175.95 123.88 177.02 Z M 123.46 177.85 L 123.01 178.73 C 122.47 179.79 122.90 181.09 123.96 181.63 C 125.02 182.16 126.32 181.74 126.86 180.68 L 127.31 179.79 C 127.84 178.73 127.42 177.43 126.36 176.90 C 125.29 176.36 124.00 176.78 123.46 177.85 Z M 123.02 178.73 L 122.55 179.65 C 122.01 180.71 122.43 182.01 123.49 182.55 C 124.55 183.08 125.84 182.66 126.38 181.60 L 126.85 180.68 C 127.39 179.62 126.97 178.32 125.91 177.78 C 124.85 177.25 123.55 177.67 123.02 178.73 Z M 122.55 179.65 L 122.07 180.58 C 121.53 181.64 121.95 182.93 123.00 183.47 C 124.06 184.02 125.36 183.60 125.90 182.54 L 126.38 181.61 C 126.92 180.55 126.50 179.26 125.45 178.71 C 124.39 178.17 123.09 178.59 122.55 179.65 Z M 122.08 180.57 L 121.61 181.48 C 121.06 182.54 121.47 183.83 122.52 184.38 C 123.57 184.93 124.87 184.52 125.42 183.46 L 125.89 182.55 C 126.44 181.50 126.03 180.20 124.98 179.66 C 123.92 179.11 122.63 179.52 122.08 180.57 Z M 121.62 181.47 L 121.16 182.34 C 120.60 183.38 121.00 184.68 122.05 185.23 C 123.09 185.79 124.39 185.39 124.95 184.34 L 125.40 183.48 C 125.96 182.43 125.56 181.14 124.52 180.58 C 123.47 180.03 122.17 180.42 121.62 181.47 Z M 121.18 182.31 L 120.61 183.34 C 120.04 184.38 120.41 185.68 121.45 186.25 C 122.49 186.82 123.79 186.44 124.36 185.41 L 124.93 184.37 C 125.50 183.34 125.12 182.03 124.08 181.46 C 123.05 180.89 121.75 181.27 121.18 182.31 Z M 120.64 183.28 L 120.10 184.21 C 119.49 185.22 119.83 186.53 120.84 187.14 C 121.86 187.74 123.17 187.40 123.77 186.39 L 124.32 185.47 C 124.92 184.45 124.59 183.14 123.57 182.53 C 122.56 181.93 121.24 182.27 120.64 183.28 Z M 120.16 184.11 L 119.62 184.91 C 118.97 185.89 119.24 187.22 120.22 187.87 C 121.20 188.53 122.53 188.26 123.18 187.28 L 123.71 186.48 C 124.37 185.50 124.10 184.17 123.12 183.52 C 122.14 182.86 120.81 183.13 120.16 184.11 Z M 119.72 184.78 L 119.18 185.47 C 118.46 186.40 118.62 187.74 119.55 188.47 C 120.48 189.19 121.82 189.03 122.54 188.10 L 123.08 187.41 C 123.81 186.48 123.65 185.14 122.72 184.42 C 121.79 183.69 120.45 183.85 119.72 184.78 Z M 119.36 185.29 L 118.58 186.06 C 117.75 186.90 117.76 188.24 118.59 189.07 C 119.42 189.90 120.77 189.90 121.60 189.06 L 122.37 188.29 C 123.20 187.45 123.20 186.11 122.36 185.28 C 121.53 184.45 120.18 184.45 119.36 185.29 Z M 118.86 185.85 L 117.89 186.55 C 116.95 187.23 116.73 188.55 117.41 189.49 C 118.10 190.44 119.41 190.65 120.36 189.97 L 121.32 189.27 C 122.27 188.59 122.48 187.27 121.80 186.33 C 121.12 185.39 119.80 185.17 118.86 185.85 Z M 118.50 186.27 L 117.94 186.45 C 116.84 186.79 116.23 187.96 116.57 189.06 C 116.92 190.16 118.08 190.77 119.18 190.42 L 119.75 190.25 C 120.84 189.90 121.45 188.73 121.11 187.64 C 120.77 186.54 119.60 185.93 118.50 186.27 Z M 120.55 188.99 L 120.69 188.51 C 120.99 187.41 120.35 186.27 119.25 185.96 C 118.15 185.65 117.01 186.30 116.70 187.40 L 116.56 187.88 C 116.26 188.98 116.90 190.12 118.00 190.43 C 119.10 190.74 120.25 190.09 120.55 188.99 Z M 120.37 189.17 L 121.08 188.19 C 121.76 187.26 121.55 185.96 120.62 185.29 C 119.69 184.62 118.39 184.83 117.72 185.76 L 117.01 186.74 C 116.34 187.67 116.55 188.96 117.48 189.63 C 118.41 190.31 119.70 190.10 120.37 189.17 Z M 121.02 188.28 L 121.71 187.42 C 122.43 186.53 122.29 185.22 121.39 184.50 C 120.50 183.78 119.19 183.92 118.47 184.82 L 117.78 185.67 C 117.06 186.56 117.20 187.87 118.10 188.59 C 118.99 189.31 120.30 189.17 121.02 188.28 Z M 121.70 187.45 L 122.29 186.73 C 123.02 185.84 122.90 184.52 122.01 183.79 C 121.12 183.06 119.80 183.19 119.07 184.08 L 118.48 184.80 C 117.75 185.68 117.87 187.00 118.76 187.73 C 119.65 188.46 120.97 188.34 121.70 187.45 Z M 122.30 186.73 L 122.93 185.96 C 123.67 185.07 123.54 183.75 122.65 183.02 C 121.75 182.28 120.44 182.41 119.70 183.30 L 119.07 184.07 C 118.33 184.96 118.46 186.28 119.35 187.02 C 120.24 187.75 121.56 187.62 122.30 186.73 Z M 122.94 185.96 L 123.63 185.12 C 124.36 184.22 124.22 182.90 123.32 182.17 C 122.42 181.43 121.10 181.57 120.37 182.47 L 119.69 183.31 C 118.96 184.20 119.09 185.53 119.99 186.26 C 120.89 186.99 122.21 186.85 122.94 185.96 Z M 123.64 185.11 L 124.29 184.30 C 125.01 183.39 124.86 182.07 123.95 181.34 C 123.04 180.62 121.72 180.77 120.99 181.68 L 120.35 182.48 C 119.63 183.39 119.78 184.72 120.69 185.44 C 121.59 186.16 122.92 186.02 123.64 185.11 Z M 124.30 184.29 L 124.89 183.53 C 125.61 182.61 125.45 181.29 124.53 180.57 C 123.61 179.85 122.29 180.01 121.57 180.93 L 120.98 181.69 C 120.26 182.61 120.42 183.93 121.34 184.65 C 122.26 185.37 123.59 185.20 124.30 184.29 Z M 124.91 183.52 L 125.52 182.73 C 126.23 181.80 126.05 180.48 125.13 179.76 C 124.20 179.05 122.87 179.23 122.16 180.15 L 121.56 180.94 C 120.84 181.87 121.02 183.19 121.94 183.91 C 122.87 184.62 124.20 184.44 124.91 183.52 Z M 125.53 182.72 L 126.14 181.90 C 126.85 180.97 126.67 179.64 125.74 178.94 C 124.80 178.23 123.48 178.41 122.77 179.35 L 122.15 180.16 C 121.45 181.09 121.63 182.42 122.56 183.13 C 123.49 183.83 124.82 183.65 125.53 182.72 Z M 126.16 181.90 L 126.77 181.07 C 127.48 180.13 127.29 178.80 126.35 178.10 C 125.41 177.40 124.08 177.59 123.38 178.53 L 122.76 179.35 C 122.06 180.29 122.25 181.62 123.19 182.32 C 124.12 183.03 125.45 182.84 126.16 181.90 Z M 126.78 181.06 L 127.40 180.23 C 128.10 179.28 127.90 177.95 126.96 177.25 C 126.01 176.56 124.68 176.76 123.98 177.70 L 123.37 178.53 C 122.67 179.48 122.87 180.81 123.81 181.51 C 124.76 182.21 126.09 182.01 126.78 181.06 Z M 127.41 180.22 L 128.03 179.38 C 128.72 178.43 128.52 177.10 127.57 176.40 C 126.62 175.71 125.29 175.91 124.59 176.86 L 123.98 177.71 C 123.28 178.65 123.49 179.99 124.43 180.68 C 125.38 181.38 126.72 181.17 127.41 180.22 Z M 128.03 179.37 L 128.64 178.54 C 129.33 177.59 129.12 176.26 128.17 175.57 C 127.22 174.87 125.89 175.08 125.19 176.03 L 124.59 176.86 C 123.90 177.82 124.10 179.15 125.06 179.84 C 126.01 180.53 127.34 180.33 128.03 179.37 Z M 128.64 178.55 L 129.23 177.74 C 129.92 176.79 129.72 175.45 128.77 174.76 C 127.81 174.06 126.48 174.27 125.79 175.22 L 125.19 176.03 C 124.50 176.98 124.71 178.32 125.66 179.01 C 126.61 179.71 127.94 179.50 128.64 178.55 Z M 129.23 177.75 L 129.80 176.96 C 130.50 176.01 130.30 174.68 129.35 173.98 C 128.40 173.28 127.06 173.48 126.37 174.43 L 125.79 175.21 C 125.09 176.16 125.29 177.50 126.24 178.20 C 127.19 178.90 128.53 178.69 129.23 177.75 Z M 129.79 176.98 L 130.36 176.22 C 131.07 175.28 130.88 173.94 129.93 173.23 C 128.99 172.52 127.65 172.72 126.94 173.66 L 126.37 174.42 C 125.67 175.36 125.86 176.70 126.80 177.41 C 127.75 178.11 129.09 177.92 129.79 176.98 Z M 130.35 176.24 L 130.99 175.40 C 131.71 174.47 131.53 173.12 130.59 172.41 C 129.65 171.69 128.31 171.87 127.59 172.80 L 126.95 173.64 C 126.23 174.58 126.41 175.92 127.35 176.64 C 128.29 177.36 129.63 177.18 130.35 176.24 Z M 130.98 175.42 L 131.60 174.62 C 132.33 173.69 132.16 172.35 131.23 171.62 C 130.30 170.89 128.95 171.06 128.23 171.99 L 127.61 172.79 C 126.88 173.72 127.05 175.06 127.98 175.79 C 128.91 176.52 130.25 176.35 130.98 175.42 Z M 131.60 174.63 L 132.20 173.86 C 132.93 172.93 132.77 171.58 131.84 170.85 C 130.91 170.12 129.56 170.29 128.83 171.22 L 128.23 171.99 C 127.50 172.92 127.66 174.26 128.59 174.99 C 129.52 175.72 130.87 175.56 131.60 174.63 Z M 132.21 173.85 L 132.80 173.09 C 133.52 172.16 133.36 170.82 132.42 170.09 C 131.49 169.36 130.15 169.53 129.42 170.46 L 128.83 171.22 C 128.10 172.15 128.27 173.50 129.20 174.23 C 130.13 174.95 131.48 174.78 132.21 173.85 Z M 132.81 173.08 L 133.41 172.29 C 134.13 171.35 133.95 170.01 133.01 169.29 C 132.07 168.57 130.73 168.75 130.01 169.69 L 129.41 170.48 C 128.69 171.42 128.87 172.76 129.81 173.48 C 130.75 174.20 132.09 174.02 132.81 173.08 Z M 133.42 172.28 L 134.02 171.48 C 134.73 170.53 134.54 169.19 133.60 168.48 C 132.65 167.77 131.31 167.96 130.60 168.91 L 130.00 169.71 C 129.29 170.65 129.48 171.99 130.42 172.70 C 131.37 173.42 132.71 173.22 133.42 172.28 Z M 134.02 171.48 L 134.62 170.67 C 135.33 169.73 135.14 168.39 134.19 167.68 C 133.24 166.97 131.90 167.16 131.19 168.11 L 130.59 168.91 C 129.89 169.86 130.08 171.20 131.03 171.91 C 131.97 172.62 133.32 172.42 134.02 171.48 Z M 134.62 170.68 L 135.22 169.88 C 135.93 168.94 135.74 167.59 134.80 166.88 C 133.85 166.17 132.51 166.36 131.80 167.30 L 131.20 168.10 C 130.49 169.05 130.67 170.39 131.62 171.10 C 132.56 171.81 133.91 171.63 134.62 170.68 Z M 135.21 169.90 L 135.82 169.11 C 136.54 168.17 136.36 166.82 135.42 166.10 C 134.49 165.38 133.14 165.56 132.42 166.50 L 131.81 167.29 C 131.09 168.23 131.27 169.57 132.20 170.29 C 133.14 171.01 134.49 170.84 135.21 169.90 Z M 135.80 169.13 L 136.42 168.34 C 137.15 167.41 136.99 166.07 136.06 165.33 C 135.13 164.60 133.78 164.76 133.05 165.69 L 132.44 166.48 C 131.70 167.41 131.86 168.75 132.79 169.49 C 133.72 170.22 135.07 170.06 135.80 169.13 Z M 136.41 168.36 L 137.03 167.58 C 137.77 166.66 137.63 165.31 136.70 164.57 C 135.78 163.83 134.43 163.97 133.69 164.90 L 133.07 165.68 C 132.32 166.60 132.47 167.95 133.39 168.69 C 134.32 169.43 135.66 169.28 136.41 168.36 Z M 137.02 167.60 L 137.65 166.82 C 138.40 165.91 138.27 164.56 137.35 163.81 C 136.44 163.06 135.09 163.19 134.34 164.11 L 133.70 164.88 C 132.95 165.80 133.09 167.15 134.00 167.90 C 134.92 168.65 136.27 168.51 137.02 167.60 Z M 137.64 166.84 L 138.27 166.08 C 139.03 165.17 138.91 163.82 138.00 163.06 C 137.09 162.30 135.74 162.43 134.98 163.34 L 134.35 164.09 C 133.59 165.00 133.72 166.36 134.63 167.11 C 135.54 167.87 136.89 167.75 137.64 166.84 Z M 138.27 166.09 L 138.88 165.35 C 139.64 164.45 139.53 163.10 138.62 162.33 C 137.71 161.57 136.36 161.69 135.60 162.60 L 134.99 163.33 C 134.22 164.24 134.34 165.59 135.25 166.35 C 136.15 167.11 137.51 166.99 138.27 166.09 Z M 138.88 165.36 L 139.51 164.61 C 140.27 163.70 140.16 162.35 139.25 161.59 C 138.35 160.82 136.99 160.94 136.23 161.85 L 135.60 162.60 C 134.84 163.50 134.96 164.85 135.86 165.62 C 136.77 166.38 138.12 166.26 138.88 165.36 Z M 139.52 164.60 L 140.17 163.82 C 140.93 162.92 140.80 161.56 139.90 160.80 C 138.99 160.05 137.64 160.17 136.88 161.07 L 136.23 161.85 C 135.47 162.76 135.59 164.11 136.50 164.87 C 137.40 165.63 138.76 165.51 139.52 164.60 Z M 140.18 163.81 L 140.85 162.99 C 141.60 162.08 141.47 160.73 140.56 159.98 C 139.65 159.22 138.30 159.35 137.54 160.27 L 136.87 161.08 C 136.11 162.00 136.24 163.35 137.16 164.10 C 138.07 164.86 139.42 164.73 140.18 163.81 Z M 140.86 162.98 L 141.50 162.20 C 142.25 161.28 142.11 159.93 141.19 159.18 C 140.27 158.43 138.92 158.57 138.17 159.49 L 137.53 160.28 C 136.79 161.20 136.93 162.55 137.85 163.29 C 138.77 164.04 140.12 163.90 140.86 162.98 Z M 141.51 162.19 L 142.15 161.39 C 142.89 160.46 142.75 159.11 141.82 158.37 C 140.90 157.63 139.55 157.78 138.81 158.70 L 138.16 159.50 C 137.42 160.42 137.57 161.77 138.49 162.52 C 139.41 163.26 140.76 163.11 141.51 162.19 Z M 142.15 161.39 L 142.79 160.58 C 143.54 159.66 143.39 158.31 142.46 157.57 C 141.54 156.83 140.19 156.98 139.45 157.90 L 138.81 158.70 C 138.06 159.63 138.21 160.98 139.14 161.72 C 140.06 162.46 141.41 162.31 142.15 161.39 Z M 142.79 160.59 L 143.42 159.81 C 144.16 158.89 144.02 157.54 143.09 156.79 C 142.17 156.05 140.82 156.20 140.08 157.12 L 139.45 157.90 C 138.71 158.82 138.85 160.17 139.78 160.91 C 140.70 161.66 142.05 161.51 142.79 160.59 Z M 143.41 159.82 L 144.01 159.09 C 144.76 158.17 144.62 156.82 143.70 156.07 C 142.78 155.32 141.43 155.46 140.68 156.38 L 140.08 157.11 C 139.34 158.03 139.47 159.38 140.39 160.13 C 141.31 160.88 142.66 160.74 143.41 159.82 Z M 143.99 159.11 L 144.70 158.26 C 145.46 157.35 145.33 156.00 144.42 155.24 C 143.51 154.48 142.16 154.60 141.40 155.51 L 140.70 156.36 C 139.94 157.27 140.06 158.62 140.97 159.38 C 141.88 160.14 143.23 160.02 143.99 159.11 Z M 144.68 158.28 L 145.33 157.52 C 146.11 156.62 146.00 155.26 145.10 154.49 C 144.20 153.72 142.84 153.82 142.07 154.73 L 141.42 155.49 C 140.64 156.39 140.75 157.75 141.65 158.52 C 142.55 159.29 143.91 159.19 144.68 158.28 Z M 145.32 157.54 L 145.95 156.82 C 146.73 155.93 146.64 154.57 145.74 153.79 C 144.85 153.01 143.49 153.10 142.71 153.99 L 142.09 154.71 C 141.30 155.60 141.40 156.96 142.29 157.74 C 143.18 158.52 144.54 158.43 145.32 157.54 Z M 145.94 156.83 L 146.56 156.13 C 147.35 155.24 147.26 153.88 146.37 153.09 C 145.48 152.31 144.13 152.39 143.34 153.28 L 142.72 153.98 C 141.93 154.87 142.02 156.23 142.91 157.02 C 143.79 157.80 145.15 157.72 145.94 156.83 Z M 146.56 156.13 L 147.21 155.40 C 148.00 154.51 147.92 153.15 147.04 152.36 C 146.15 151.57 144.79 151.65 144.00 152.54 L 143.34 153.27 C 142.55 154.16 142.63 155.52 143.52 156.31 C 144.41 157.10 145.77 157.02 146.56 156.13 Z M 147.20 155.41 L 147.87 154.67 C 148.67 153.79 148.60 152.43 147.72 151.63 C 146.84 150.83 145.47 150.90 144.68 151.78 L 144.01 152.52 C 143.21 153.40 143.28 154.77 144.16 155.57 C 145.04 156.37 146.41 156.30 147.20 155.41 Z M 147.86 154.70 L 148.54 153.96 C 149.36 153.09 149.31 151.72 148.43 150.91 C 147.56 150.09 146.19 150.14 145.38 151.02 L 144.69 151.76 C 143.88 152.63 143.93 154.00 144.80 154.81 C 145.68 155.62 147.04 155.57 147.86 154.70 Z M 148.52 153.99 L 149.22 153.27 C 150.05 152.41 150.03 151.04 149.17 150.21 C 148.31 149.38 146.94 149.40 146.11 150.26 L 145.41 150.98 C 144.58 151.84 144.60 153.21 145.46 154.04 C 146.31 154.87 147.69 154.85 148.52 153.99 Z M 149.18 153.32 L 149.89 152.62 C 150.75 151.78 150.76 150.41 149.92 149.55 C 149.08 148.69 147.70 148.68 146.84 149.52 L 146.14 150.22 C 145.28 151.06 145.27 152.43 146.11 153.29 C 146.95 154.15 148.33 154.16 149.18 153.32 Z M 149.85 152.67 L 150.59 151.99 C 151.47 151.17 151.52 149.79 150.70 148.91 C 149.88 148.02 148.50 147.97 147.61 148.79 L 146.88 149.47 C 146.00 150.29 145.95 151.68 146.77 152.56 C 147.59 153.44 148.97 153.49 149.85 152.67 Z M 150.54 152.05 L 151.30 151.38 C 152.22 150.59 152.31 149.20 151.51 148.29 C 150.72 147.37 149.33 147.28 148.42 148.08 L 147.66 148.74 C 146.74 149.53 146.65 150.92 147.45 151.83 C 148.24 152.75 149.63 152.84 150.54 152.05 Z M 151.25 151.44 L 152.04 150.80 C 152.98 150.03 153.13 148.64 152.36 147.70 C 151.59 146.75 150.20 146.61 149.25 147.38 L 148.47 148.02 C 147.52 148.79 147.38 150.18 148.15 151.12 C 148.92 152.07 150.31 152.21 151.25 151.44 Z M 151.99 150.86 L 152.80 150.25 C 153.77 149.51 153.97 148.12 153.23 147.14 C 152.49 146.16 151.09 145.96 150.11 146.71 L 149.30 147.32 C 148.33 148.06 148.13 149.45 148.87 150.43 C 149.61 151.41 151.01 151.60 151.99 150.86 Z M 152.74 150.31 L 153.56 149.73 C 154.58 149.02 154.82 147.63 154.11 146.61 C 153.40 145.60 152.00 145.36 150.99 146.07 L 150.17 146.65 C 149.15 147.36 148.91 148.75 149.62 149.77 C 150.33 150.78 151.73 151.02 152.74 150.31 Z M 153.50 149.79 L 154.33 149.26 C 155.37 148.58 155.67 147.18 154.99 146.14 C 154.31 145.09 152.92 144.79 151.87 145.47 L 151.05 146.01 C 150.00 146.69 149.70 148.08 150.38 149.13 C 151.06 150.18 152.46 150.47 153.50 149.79 Z M 154.26 149.32 L 155.14 148.80 C 156.21 148.16 156.57 146.76 155.93 145.69 C 155.29 144.61 153.90 144.25 152.82 144.89 L 151.94 145.41 C 150.87 146.05 150.51 147.45 151.15 148.52 C 151.79 149.60 153.18 149.96 154.26 149.32 Z M 155.06 148.85 L 155.95 148.37 C 157.05 147.77 157.47 146.39 156.87 145.29 C 156.27 144.18 154.89 143.77 153.79 144.36 L 152.90 144.84 C 151.79 145.44 151.38 146.82 151.98 147.92 C 152.57 149.03 153.95 149.44 155.06 148.85 Z M 155.88 148.41 L 156.76 147.98 C 157.89 147.42 158.35 146.05 157.79 144.92 C 157.24 143.79 155.87 143.33 154.74 143.89 L 153.86 144.32 C 152.73 144.88 152.27 146.24 152.82 147.37 C 153.38 148.50 154.75 148.97 155.88 148.41 Z M 156.70 148.01 L 157.59 147.60 C 158.74 147.08 159.25 145.72 158.72 144.57 C 158.20 143.42 156.84 142.92 155.69 143.44 L 154.80 143.85 C 153.65 144.38 153.15 145.73 153.67 146.88 C 154.20 148.03 155.55 148.53 156.70 148.01 Z M 157.54 147.64 L 158.46 147.24 C 159.63 146.75 160.17 145.40 159.68 144.23 C 159.18 143.07 157.84 142.52 156.67 143.02 L 155.74 143.41 C 154.58 143.91 154.03 145.25 154.53 146.42 C 155.02 147.59 156.37 148.13 157.54 147.64 Z M 158.40 147.28 L 159.33 146.92 C 160.52 146.46 161.11 145.13 160.65 143.94 C 160.19 142.75 158.85 142.16 157.67 142.62 L 156.74 142.98 C 155.55 143.44 154.96 144.77 155.42 145.96 C 155.88 147.15 157.21 147.74 158.40 147.28 Z M 159.25 146.96 L 160.19 146.64 C 161.40 146.22 162.04 144.90 161.63 143.70 C 161.21 142.49 159.89 141.84 158.69 142.26 L 157.75 142.58 C 156.54 143.00 155.89 144.31 156.31 145.52 C 156.72 146.73 158.04 147.38 159.25 146.96 Z M 160.10 146.68 L 161.05 146.39 C 162.28 146.03 162.98 144.74 162.61 143.51 C 162.25 142.28 160.96 141.57 159.73 141.94 L 158.78 142.22 C 157.55 142.58 156.84 143.88 157.21 145.11 C 157.57 146.34 158.87 147.04 160.10 146.68 Z M 160.95 146.43 L 161.91 146.19 C 163.16 145.88 163.92 144.61 163.61 143.37 C 163.30 142.12 162.04 141.36 160.79 141.67 L 159.83 141.91 C 158.58 142.22 157.82 143.48 158.13 144.73 C 158.44 145.98 159.70 146.74 160.95 146.43 Z M 161.81 146.22 L 162.80 146.02 C 164.06 145.76 164.88 144.53 164.63 143.27 C 164.37 142.01 163.14 141.19 161.88 141.44 L 160.89 141.64 C 159.63 141.89 158.81 143.12 159.06 144.39 C 159.32 145.65 160.55 146.47 161.81 146.22 Z M 162.70 146.04 L 163.64 145.89 C 164.91 145.69 165.78 144.49 165.58 143.22 C 165.38 141.94 164.19 141.07 162.91 141.27 L 161.98 141.42 C 160.70 141.62 159.83 142.82 160.03 144.09 C 160.23 145.37 161.43 146.24 162.70 146.04 Z M 163.55 145.90 L 164.46 145.80 C 165.75 145.65 166.66 144.49 166.51 143.20 C 166.36 141.92 165.20 141.00 163.92 141.15 L 163.00 141.26 C 161.72 141.41 160.80 142.57 160.95 143.85 C 161.10 145.14 162.26 146.05 163.55 145.90 Z M 164.38 145.81 L 165.37 145.72 C 166.66 145.62 167.62 144.49 167.51 143.20 C 167.41 141.92 166.28 140.96 164.99 141.06 L 164.00 141.14 C 162.71 141.25 161.76 142.38 161.86 143.66 C 161.97 144.95 163.09 145.91 164.38 145.81 Z M 165.30 145.73 L 166.40 145.67 C 167.69 145.61 168.68 144.51 168.61 143.22 C 168.54 141.93 167.44 140.93 166.15 141.00 L 165.06 141.06 C 163.77 141.12 162.78 142.22 162.85 143.52 C 162.91 144.81 164.01 145.80 165.30 145.73 Z M 166.34 145.68 L 167.36 145.64 C 168.66 145.61 169.67 144.53 169.63 143.24 C 169.59 141.94 168.52 140.93 167.22 140.97 L 166.20 141.00 C 164.91 141.04 163.90 142.12 163.94 143.41 C 163.98 144.70 165.05 145.71 166.34 145.68 Z M 167.32 145.65 L 168.32 145.64 C 169.62 145.63 170.65 144.57 170.64 143.28 C 170.63 141.98 169.57 140.95 168.28 140.96 L 167.27 140.97 C 165.98 140.98 164.94 142.03 164.96 143.33 C 164.97 144.62 166.02 145.66 167.32 145.65 Z M 168.26 145.64 L 169.29 145.66 C 170.59 145.68 171.65 144.65 171.68 143.36 C 171.70 142.07 170.67 141.00 169.38 140.98 L 168.35 140.96 C 167.05 140.93 165.99 141.96 165.96 143.25 C 165.94 144.55 166.97 145.61 168.26 145.64 Z M 169.21 145.65 L 170.23 145.71 C 171.52 145.78 172.62 144.79 172.69 143.50 C 172.76 142.21 171.77 141.10 170.48 141.03 L 169.46 140.98 C 168.17 140.91 167.07 141.90 167.00 143.19 C 166.93 144.48 167.92 145.58 169.21 145.65 Z M 170.12 145.70 L 171.09 145.80 C 172.38 145.93 173.53 145.00 173.66 143.71 C 173.79 142.43 172.86 141.28 171.57 141.14 L 170.60 141.04 C 169.31 140.91 168.16 141.85 168.03 143.13 C 167.90 144.42 168.83 145.57 170.12 145.70 Z M 170.92 145.78 L 171.99 145.97 C 173.26 146.20 174.48 145.35 174.71 144.08 C 174.94 142.81 174.09 141.59 172.82 141.36 L 171.75 141.17 C 170.47 140.94 169.26 141.79 169.03 143.06 C 168.80 144.33 169.65 145.55 170.92 145.78 Z M 171.79 145.92 L 172.79 146.20 C 174.04 146.54 175.33 145.81 175.67 144.56 C 176.01 143.31 175.28 142.02 174.03 141.68 L 173.02 141.41 C 171.78 141.07 170.49 141.80 170.15 143.05 C 169.80 144.29 170.54 145.58 171.79 145.92 Z M 172.61 146.14 L 173.52 146.47 C 174.73 146.91 176.08 146.28 176.51 145.06 C 176.95 143.85 176.33 142.51 175.11 142.07 L 174.21 141.74 C 172.99 141.30 171.65 141.93 171.21 143.14 C 170.77 144.36 171.40 145.70 172.61 146.14 Z M 173.40 146.42 L 174.22 146.77 C 175.41 147.28 176.79 146.73 177.30 145.54 C 177.80 144.35 177.25 142.97 176.06 142.47 L 175.23 142.11 C 174.04 141.61 172.67 142.16 172.16 143.35 C 171.65 144.54 172.21 145.91 173.40 146.42 Z M 174.16 146.75 L 175.07 147.17 C 176.25 147.71 177.64 147.20 178.18 146.03 C 178.72 144.85 178.21 143.46 177.04 142.92 L 176.13 142.49 C 174.95 141.95 173.56 142.46 173.02 143.64 C 172.47 144.81 172.99 146.20 174.16 146.75 Z M 175.00 147.14 L 175.89 147.58 C 177.05 148.16 178.46 147.70 179.04 146.54 C 179.62 145.39 179.15 143.98 178.00 143.40 L 177.11 142.95 C 175.95 142.37 174.54 142.83 173.96 143.99 C 173.38 145.15 173.85 146.55 175.00 147.14 Z M 175.80 147.54 L 176.67 148.02 C 177.80 148.65 179.22 148.24 179.85 147.11 C 180.48 145.98 180.08 144.55 178.95 143.92 L 178.08 143.44 C 176.95 142.81 175.53 143.22 174.90 144.35 C 174.27 145.48 174.67 146.91 175.80 147.54 Z M 176.57 147.96 L 177.41 148.48 C 178.51 149.16 179.95 148.83 180.64 147.73 C 181.32 146.63 180.98 145.18 179.88 144.50 L 179.04 143.98 C 177.94 143.29 176.50 143.63 175.81 144.73 C 175.13 145.83 175.47 147.28 176.57 147.96 Z M 177.31 148.42 L 178.13 148.99 C 179.19 149.73 180.66 149.46 181.39 148.39 C 182.13 147.32 181.87 145.86 180.80 145.12 L 179.98 144.56 C 178.91 143.82 177.45 144.09 176.71 145.15 C 175.97 146.22 176.24 147.68 177.31 148.42 Z M 178.03 148.92 L 178.83 149.53 C 179.86 150.33 181.33 150.13 182.13 149.11 C 182.92 148.08 182.73 146.60 181.70 145.81 L 180.90 145.19 C 179.87 144.40 178.39 144.59 177.60 145.62 C 176.81 146.65 177.00 148.13 178.03 148.92 Z M 178.73 149.46 L 179.50 150.12 C 180.48 150.97 181.97 150.85 182.82 149.87 C 183.67 148.88 183.55 147.40 182.57 146.55 L 181.80 145.89 C 180.81 145.04 179.33 145.15 178.48 146.14 C 177.63 147.12 177.74 148.61 178.73 149.46 Z M 179.39 150.02 L 180.12 150.73 C 181.05 151.64 182.54 151.62 183.45 150.69 C 184.36 149.75 184.34 148.26 183.41 147.35 L 182.68 146.64 C 181.74 145.74 180.25 145.76 179.34 146.69 C 178.44 147.62 178.46 149.11 179.39 150.02 Z M 180.00 150.61 L 180.67 151.36 C 181.53 152.33 183.02 152.41 183.99 151.55 C 184.97 150.68 185.05 149.20 184.19 148.22 L 183.52 147.48 C 182.66 146.51 181.17 146.42 180.20 147.28 C 179.22 148.15 179.14 149.64 180.00 150.61 Z M 180.54 151.20 L 181.12 151.98 C 181.90 153.02 183.38 153.24 184.42 152.46 C 185.46 151.68 185.68 150.20 184.90 149.16 L 184.31 148.38 C 183.54 147.34 182.06 147.12 181.02 147.90 C 179.97 148.68 179.76 150.16 180.54 151.20 Z M 180.99 151.78 L 181.50 152.63 C 182.17 153.75 183.62 154.11 184.74 153.44 C 185.85 152.77 186.21 151.32 185.54 150.21 L 185.03 149.36 C 184.36 148.24 182.91 147.88 181.80 148.55 C 180.68 149.22 180.32 150.67 180.99 151.78 Z M 181.40 152.44 L 181.83 153.33 C 182.39 154.50 183.79 155.00 184.97 154.44 C 186.14 153.87 186.64 152.47 186.07 151.29 L 185.65 150.40 C 185.08 149.23 183.68 148.73 182.50 149.30 C 181.33 149.86 180.84 151.27 181.40 152.44 Z M 181.76 153.17 L 182.12 154.11 C 182.60 155.32 183.96 155.92 185.17 155.45 C 186.39 154.98 186.99 153.61 186.51 152.40 L 186.14 151.46 C 185.67 150.24 184.30 149.64 183.09 150.12 C 181.88 150.59 181.28 151.96 181.76 153.17 Z M 182.08 154.00 L 182.37 154.86 C 182.78 156.10 184.11 156.77 185.35 156.36 C 186.58 155.95 187.25 154.61 186.84 153.38 L 186.55 152.51 C 186.14 151.28 184.81 150.61 183.58 151.02 C 182.34 151.43 181.67 152.76 182.08 154.00 Z M 182.33 154.74 L 182.58 155.66 C 182.93 156.91 184.22 157.65 185.48 157.31 C 186.73 156.96 187.47 155.67 187.13 154.41 L 186.88 153.50 C 186.53 152.24 185.24 151.51 183.98 151.85 C 182.73 152.19 181.99 153.49 182.33 154.74 Z M 182.55 155.52 L 182.76 156.53 C 183.03 157.80 184.27 158.62 185.55 158.35 C 186.82 158.08 187.64 156.84 187.37 155.56 L 187.16 154.55 C 186.89 153.28 185.65 152.46 184.37 152.73 C 183.10 153.00 182.28 154.24 182.55 155.52 Z M 182.73 156.38 L 182.89 157.47 C 183.08 158.75 184.28 159.65 185.56 159.46 C 186.85 159.27 187.74 158.08 187.56 156.79 L 187.40 155.71 C 187.21 154.42 186.01 153.53 184.73 153.71 C 183.44 153.90 182.55 155.10 182.73 156.38 Z M 182.88 157.35 L 182.97 158.27 C 183.09 159.56 184.24 160.51 185.54 160.39 C 186.83 160.26 187.78 159.11 187.66 157.81 L 187.57 156.90 C 187.44 155.61 186.29 154.66 185.00 154.78 C 183.70 154.91 182.75 156.06 182.88 157.35 Z M 182.96 158.19 L 183.02 159.17 C 183.11 160.47 184.23 161.45 185.53 161.37 C 186.83 161.28 187.81 160.16 187.73 158.86 L 187.66 157.89 C 187.58 156.59 186.46 155.60 185.16 155.69 C 183.86 155.77 182.88 156.90 182.96 158.19 Z M 183.02 159.12 L 183.06 160.13 C 183.12 161.43 184.22 162.44 185.52 162.39 C 186.82 162.33 187.83 161.23 187.77 159.93 L 187.73 158.91 C 187.67 157.61 186.57 156.60 185.27 156.66 C 183.97 156.72 182.96 157.82 183.02 159.12 Z M 183.06 160.10 L 183.09 161.15 C 183.13 162.45 184.21 163.47 185.51 163.44 C 186.81 163.40 187.84 162.32 187.80 161.02 L 187.77 159.97 C 187.74 158.67 186.66 157.64 185.35 157.68 C 184.05 157.71 183.03 158.80 183.06 160.10 Z M 183.09 161.12 L 183.11 162.18 C 183.13 163.49 184.20 164.52 185.51 164.50 C 186.81 164.48 187.84 163.41 187.82 162.10 L 187.80 161.04 C 187.78 159.74 186.71 158.70 185.41 158.72 C 184.10 158.75 183.07 159.82 183.09 161.12 Z M 183.11 162.17 L 183.12 163.23 C 183.13 164.53 184.20 165.58 185.50 165.56 C 186.81 165.55 187.85 164.48 187.83 163.18 L 187.82 162.12 C 187.81 160.82 186.74 159.77 185.44 159.79 C 184.14 159.80 183.09 160.87 183.11 162.17 Z M 183.12 163.22 L 183.13 164.27 C 183.14 165.57 184.20 166.62 185.50 166.61 C 186.80 166.60 187.85 165.54 187.84 164.24 L 187.83 163.19 C 187.83 161.89 186.76 160.84 185.46 160.85 C 184.16 160.86 183.11 161.92 183.12 163.22 Z M 183.13 164.26 L 183.13 165.27 C 183.14 166.58 184.20 167.63 185.50 167.62 C 186.80 167.62 187.85 166.56 187.84 165.26 L 187.84 164.24 C 187.84 162.94 186.78 161.89 185.48 161.90 C 184.17 161.90 183.12 162.96 183.13 164.26 Z M 183.13 165.27 L 183.13 166.23 C 183.13 167.54 184.19 168.59 185.49 168.59 C 186.79 168.59 187.85 167.53 187.85 166.23 L 187.84 165.26 C 187.84 163.96 186.79 162.91 185.48 162.91 C 184.18 162.91 183.13 163.97 183.13 165.27 Z M 183.13 166.23 L 183.13 167.14 C 183.13 168.45 184.19 169.50 185.49 169.50 C 186.79 169.50 187.85 168.44 187.85 167.14 L 187.85 166.23 C 187.85 164.93 186.79 163.87 185.49 163.87 C 184.19 163.87 183.13 164.93 183.13 166.23 Z M 183.13 167.14 L 183.13 168.23 C 183.13 169.53 184.18 170.59 185.48 170.59 C 186.78 170.60 187.84 169.54 187.84 168.24 L 187.84 167.15 C 187.85 165.85 186.79 164.79 185.49 164.79 C 184.19 164.79 183.14 165.84 183.13 167.14 Z M 183.13 168.21 L 183.12 169.20 C 183.10 170.50 184.14 171.57 185.44 171.59 C 186.74 171.61 187.81 170.57 187.83 169.27 L 187.84 168.27 C 187.86 166.97 186.82 165.90 185.52 165.88 C 184.22 165.87 183.15 166.91 183.13 168.21 Z M 183.12 169.14 L 183.09 170.09 C 183.03 171.39 184.04 172.48 185.34 172.53 C 186.64 172.59 187.74 171.57 187.79 170.28 L 187.82 169.33 C 187.88 168.03 186.86 166.94 185.57 166.89 C 184.27 166.83 183.17 167.85 183.12 169.14 Z M 183.09 170.00 L 183.02 170.95 C 182.92 172.25 183.89 173.38 185.18 173.48 C 186.48 173.58 187.61 172.61 187.71 171.31 L 187.78 170.36 C 187.88 169.07 186.91 167.94 185.62 167.84 C 184.32 167.74 183.19 168.71 183.09 170.00 Z M 183.03 170.86 L 182.91 171.86 C 182.76 173.15 183.68 174.31 184.97 174.47 C 186.26 174.62 187.43 173.70 187.58 172.41 L 187.70 171.41 C 187.85 170.12 186.93 168.95 185.64 168.80 C 184.35 168.65 183.18 169.57 183.03 170.86 Z M 182.92 171.79 L 182.77 172.79 C 182.58 174.07 183.46 175.26 184.75 175.46 C 186.03 175.65 187.22 174.76 187.42 173.48 L 187.57 172.48 C 187.76 171.20 186.87 170.00 185.59 169.81 C 184.31 169.62 183.11 170.50 182.92 171.79 Z M 182.78 172.74 L 182.61 173.72 C 182.40 174.99 183.25 176.21 184.53 176.42 C 185.81 176.64 187.02 175.78 187.24 174.51 L 187.41 173.53 C 187.63 172.25 186.77 171.04 185.49 170.82 C 184.21 170.60 183.00 171.46 182.78 172.74 Z M 182.62 173.69 L 182.44 174.69 C 182.20 175.96 183.04 177.19 184.32 177.42 C 185.59 177.65 186.81 176.81 187.05 175.54 L 187.23 174.54 C 187.47 173.26 186.63 172.04 185.35 171.80 C 184.08 171.57 182.85 172.41 182.62 173.69 Z M 182.44 174.66 L 182.25 175.65 C 182.00 176.92 182.83 178.15 184.10 178.40 C 185.37 178.65 186.60 177.82 186.85 176.55 L 187.04 175.56 C 187.29 174.29 186.46 173.06 185.19 172.81 C 183.92 172.56 182.69 173.39 182.44 174.66 Z M 182.26 175.62 L 182.05 176.58 C 181.79 177.85 182.60 179.09 183.87 179.35 C 185.14 179.62 186.38 178.81 186.64 177.54 L 186.84 176.58 C 187.11 175.31 186.30 174.07 185.03 173.81 C 183.76 173.54 182.52 174.35 182.26 175.62 Z M 182.06 176.55 L 181.85 177.50 C 181.56 178.77 182.36 180.02 183.62 180.30 C 184.88 180.59 186.14 179.79 186.42 178.53 L 186.63 177.57 C 186.92 176.31 186.12 175.06 184.86 174.77 C 183.60 174.49 182.35 175.28 182.06 176.55 Z M 181.86 177.47 L 181.62 178.43 C 181.32 179.69 182.09 180.96 183.35 181.26 C 184.60 181.57 185.87 180.80 186.18 179.54 L 186.41 178.57 C 186.72 177.31 185.94 176.05 184.69 175.74 C 183.43 175.44 182.16 176.21 181.86 177.47 Z M 181.63 178.38 L 181.38 179.35 C 181.05 180.60 181.79 181.89 183.04 182.22 C 184.29 182.55 185.58 181.81 185.91 180.55 L 186.16 179.59 C 186.50 178.34 185.75 177.05 184.50 176.72 C 183.25 176.39 181.97 177.13 181.63 178.38 Z M 181.39 179.29 L 181.11 180.25 C 180.75 181.49 181.46 182.79 182.70 183.16 C 183.95 183.52 185.25 182.81 185.61 181.57 L 185.89 180.61 C 186.25 179.37 185.54 178.07 184.30 177.70 C 183.06 177.34 181.76 178.05 181.39 179.29 Z M 181.13 180.19 L 180.83 181.11 C 180.44 182.34 181.11 183.67 182.34 184.06 C 183.57 184.46 184.90 183.79 185.29 182.55 L 185.59 181.63 C 185.99 180.40 185.31 179.08 184.08 178.68 C 182.85 178.28 181.53 178.96 181.13 180.19 Z M 180.85 181.05 L 180.52 181.99 C 180.09 183.22 180.73 184.55 181.95 184.98 C 183.17 185.41 184.51 184.77 184.94 183.55 L 185.27 182.61 C 185.70 181.39 185.06 180.05 183.84 179.62 C 182.62 179.19 181.28 179.83 180.85 181.05 Z M 180.54 181.94 L 180.17 182.91 C 179.71 184.12 180.32 185.47 181.53 185.93 C 182.74 186.39 184.09 185.79 184.55 184.58 L 184.92 183.61 C 185.38 182.40 184.77 181.04 183.57 180.58 C 182.36 180.12 181.00 180.73 180.54 181.94 Z M 180.19 182.86 L 179.84 183.73 C 179.35 184.93 179.93 186.29 181.13 186.78 C 182.33 187.27 183.70 186.69 184.18 185.49 L 184.54 184.62 C 185.02 183.42 184.44 182.06 183.24 181.57 C 182.04 181.08 180.68 181.66 180.19 182.86 Z M 179.86 183.68 L 179.48 184.57 C 178.97 185.76 179.51 187.13 180.70 187.65 C 181.89 188.16 183.27 187.61 183.78 186.42 L 184.16 185.53 C 184.68 184.35 184.13 182.97 182.94 182.46 C 181.75 181.94 180.37 182.49 179.86 183.68 Z M 179.50 184.51 L 179.08 185.44 C 178.53 186.62 179.05 188.01 180.22 188.55 C 181.40 189.09 182.79 188.58 183.33 187.40 L 183.76 186.47 C 184.30 185.30 183.79 183.91 182.61 183.37 C 181.43 182.83 180.04 183.34 179.50 184.51 Z M 179.10 185.39 L 178.62 186.36 C 178.05 187.52 178.53 188.92 179.69 189.49 C 180.85 190.07 182.25 189.59 182.83 188.43 L 183.30 187.46 C 183.88 186.30 183.40 184.89 182.24 184.32 C 181.08 183.75 179.67 184.23 179.10 185.39 Z M 178.65 186.31 L 178.19 187.19 C 177.58 188.34 178.03 189.75 179.17 190.35 C 180.32 190.95 181.73 190.51 182.33 189.37 L 182.80 188.48 C 183.40 187.34 182.96 185.92 181.81 185.32 C 180.67 184.72 179.25 185.16 178.65 186.31 Z M 178.22 187.14 L 177.72 188.04 C 177.09 189.17 177.49 190.59 178.62 191.22 C 179.75 191.85 181.17 191.44 181.80 190.32 L 182.30 189.42 C 182.93 188.29 182.53 186.87 181.40 186.24 C 180.27 185.61 178.84 186.01 178.22 187.14 Z M 177.75 187.98 L 177.23 188.86 C 176.57 189.97 176.93 191.40 178.04 192.06 C 179.15 192.72 180.59 192.36 181.25 191.25 L 181.77 190.37 C 182.43 189.26 182.06 187.83 180.95 187.17 C 179.84 186.51 178.41 186.87 177.75 187.98 Z M 177.27 188.79 L 176.74 189.62 C 176.04 190.71 176.36 192.15 177.45 192.85 C 178.53 193.54 179.98 193.23 180.67 192.14 L 181.20 191.31 C 181.90 190.23 181.59 188.78 180.50 188.09 C 179.41 187.39 177.97 187.71 177.27 188.79 Z M 176.80 189.53 L 176.20 190.38 C 175.46 191.43 175.71 192.88 176.76 193.63 C 177.81 194.38 179.27 194.13 180.01 193.08 L 180.61 192.23 C 181.36 191.18 181.11 189.72 180.06 188.98 C 179.01 188.23 177.55 188.48 176.80 189.53 Z M 176.30 190.26 L 175.63 191.08 C 174.82 192.08 174.97 193.54 175.97 194.36 C 176.97 195.17 178.44 195.01 179.25 194.01 L 179.92 193.20 C 180.73 192.20 180.58 190.73 179.58 189.92 C 178.58 189.11 177.11 189.26 176.30 190.26 Z M 175.75 190.94 L 175.09 191.65 C 174.20 192.58 174.24 194.05 175.17 194.94 C 176.10 195.82 177.58 195.79 178.46 194.85 L 179.13 194.15 C 180.02 193.22 179.98 191.74 179.05 190.86 C 178.11 189.97 176.64 190.01 175.75 190.94 Z M 175.23 191.52 L 174.54 192.12 C 173.59 192.98 173.50 194.45 174.36 195.41 C 175.21 196.36 176.68 196.45 177.64 195.59 L 178.32 194.98 C 179.28 194.13 179.36 192.66 178.51 191.70 C 177.65 190.74 176.18 190.66 175.23 191.52 Z M 174.70 192.00 L 173.90 192.60 C 172.87 193.37 172.66 194.82 173.43 195.85 C 174.20 196.88 175.65 197.09 176.68 196.32 L 177.48 195.72 C 178.51 194.95 178.72 193.49 177.95 192.47 C 177.18 191.44 175.73 191.23 174.70 192.00 Z M 174.06 192.50 L 173.22 193.02 C 172.14 193.70 171.80 195.13 172.48 196.21 C 173.15 197.29 174.58 197.63 175.66 196.95 L 176.51 196.42 C 177.59 195.75 177.92 194.32 177.25 193.24 C 176.57 192.16 175.15 191.82 174.06 192.50 Z M 173.37 192.95 L 172.49 193.41 C 171.37 194.00 170.93 195.39 171.52 196.52 C 172.11 197.64 173.51 198.08 174.63 197.49 L 175.51 197.03 C 176.64 196.44 177.07 195.05 176.48 193.92 C 175.89 192.79 174.50 192.36 173.37 192.95 Z M 172.63 193.35 L 171.75 193.74 C 170.59 194.26 170.07 195.62 170.59 196.78 C 171.10 197.94 172.46 198.45 173.62 197.94 L 174.50 197.54 C 175.66 197.03 176.18 195.67 175.66 194.51 C 175.14 193.35 173.78 192.83 172.63 193.35 Z M 171.89 193.70 L 170.96 194.04 C 169.78 194.48 169.18 195.80 169.62 196.98 C 170.06 198.16 171.37 198.77 172.56 198.33 L 173.48 197.99 C 174.66 197.55 175.27 196.23 174.83 195.04 C 174.39 193.86 173.07 193.26 171.89 193.70 Z M 171.12 194.00 L 170.14 194.28 C 168.93 194.64 168.23 195.91 168.59 197.11 C 168.94 198.32 170.21 199.01 171.42 198.66 L 172.40 198.37 C 173.61 198.02 174.30 196.75 173.95 195.54 C 173.60 194.33 172.33 193.64 171.12 194.00 Z M 170.29 194.25 L 169.30 194.47 C 168.08 194.74 167.30 195.95 167.57 197.18 C 167.84 198.40 169.05 199.18 170.28 198.91 L 171.26 198.69 C 172.49 198.42 173.26 197.21 173.00 195.98 C 172.73 194.76 171.51 193.98 170.29 194.25 Z M 169.43 194.46 L 168.43 194.62 C 167.20 194.82 166.36 195.98 166.56 197.21 C 166.76 198.45 167.92 199.28 169.15 199.08 L 170.15 198.92 C 171.38 198.72 172.22 197.56 172.02 196.33 C 171.82 195.09 170.66 194.26 169.43 194.46 Z M 168.53 194.61 L 167.52 194.73 C 166.28 194.88 165.40 196.00 165.55 197.24 C 165.69 198.47 166.81 199.36 168.05 199.21 L 169.06 199.09 C 170.29 198.94 171.18 197.82 171.03 196.58 C 170.88 195.35 169.76 194.47 168.53 194.61 Z M 167.60 194.73 L 166.61 194.81 C 165.38 194.92 164.46 196.00 164.56 197.24 C 164.66 198.47 165.75 199.39 166.98 199.29 L 167.97 199.21 C 169.20 199.11 170.12 198.02 170.02 196.79 C 169.92 195.55 168.84 194.63 167.60 194.73 Z M 166.69 194.82 L 165.67 194.87 C 164.44 194.93 163.49 195.98 163.55 197.21 C 163.61 198.44 164.66 199.39 165.89 199.33 L 166.91 199.28 C 168.14 199.22 169.09 198.18 169.03 196.94 C 168.97 195.71 167.92 194.76 166.69 194.82 Z M 165.74 194.87 L 164.75 194.89 C 163.52 194.92 162.55 195.94 162.57 197.17 C 162.60 198.40 163.61 199.37 164.84 199.35 L 165.83 199.33 C 167.06 199.30 168.04 198.28 168.01 197.05 C 167.98 195.82 166.97 194.85 165.74 194.87 Z M 164.79 194.90 L 163.80 194.91 C 162.57 194.91 161.58 195.91 161.59 197.14 C 161.59 198.36 162.59 199.35 163.82 199.34 L 164.81 199.34 C 166.03 199.33 167.02 198.34 167.02 197.11 C 167.01 195.89 166.01 194.90 164.79 194.90 Z M 163.81 194.92 L 162.82 194.92 C 161.60 194.92 160.61 195.91 160.61 197.13 C 160.61 198.35 161.60 199.33 162.82 199.33 L 163.81 199.33 C 165.03 199.33 166.01 198.35 166.01 197.13 C 166.01 195.91 165.03 194.92 163.81 194.92 Z M 162.82 194.93 L 161.81 194.93 C 160.60 194.93 159.62 195.91 159.62 197.13 C 159.62 198.34 160.60 199.32 161.81 199.32 L 162.82 199.32 C 164.03 199.32 165.01 198.34 165.01 197.13 C 165.01 195.91 164.03 194.93 162.82 194.93 Z M 161.81 194.94 L 160.80 194.94 C 159.59 194.94 158.62 195.92 158.62 197.13 C 158.62 198.33 159.59 199.31 160.80 199.31 L 161.81 199.31 C 163.02 199.31 163.99 198.33 163.99 197.13 C 163.99 195.92 163.02 194.94 161.81 194.94 Z M 160.80 194.96 L 159.79 194.96 C 158.59 194.96 157.62 195.93 157.62 197.13 C 157.62 198.32 158.59 199.30 159.79 199.30 L 160.80 199.30 C 162.00 199.30 162.97 198.32 162.97 197.13 C 162.97 195.93 162.00 194.96 160.80 194.96 Z M 159.80 194.97 L 158.77 194.97 C 157.58 194.97 156.62 195.93 156.62 197.12 C 156.61 198.31 157.58 199.28 158.77 199.28 L 159.79 199.28 C 160.98 199.28 161.95 198.32 161.95 197.13 C 161.95 195.94 160.99 194.97 159.80 194.97 Z M 158.79 194.98 L 157.79 194.98 C 156.61 194.97 155.64 195.92 155.64 197.10 C 155.63 198.29 156.58 199.25 157.77 199.26 L 158.76 199.27 C 159.94 199.27 160.91 198.32 160.91 197.14 C 160.92 195.96 159.97 194.99 158.79 194.98 Z M 157.81 194.99 L 156.83 194.97 C 155.66 194.95 154.69 195.89 154.67 197.07 C 154.65 198.24 155.59 199.21 156.77 199.23 L 157.74 199.25 C 158.92 199.27 159.89 198.33 159.91 197.15 C 159.93 195.98 158.99 195.01 157.81 194.99 Z M 156.87 194.99 L 155.93 194.96 C 154.76 194.92 153.79 195.84 153.75 197.00 C 153.71 198.17 154.63 199.15 155.79 199.19 L 156.73 199.22 C 157.90 199.26 158.88 198.34 158.91 197.17 C 158.95 196.00 158.04 195.03 156.87 194.99 Z M 156.01 194.97 L 155.05 194.91 C 153.89 194.83 152.88 195.70 152.80 196.86 C 152.72 198.02 153.60 199.02 154.76 199.10 L 155.72 199.17 C 156.88 199.25 157.88 198.37 157.96 197.22 C 158.04 196.06 157.17 195.05 156.01 194.97 Z M 155.16 194.93 L 154.14 194.81 C 152.99 194.66 151.95 195.48 151.80 196.62 C 151.66 197.77 152.48 198.81 153.62 198.95 L 154.64 199.08 C 155.79 199.22 156.83 198.41 156.98 197.26 C 157.12 196.12 156.30 195.07 155.16 194.93 Z M 154.26 194.84 L 153.23 194.64 C 152.10 194.43 151.01 195.17 150.80 196.30 C 150.59 197.43 151.33 198.51 152.46 198.73 L 153.49 198.92 C 154.62 199.13 155.71 198.39 155.92 197.26 C 156.13 196.14 155.39 195.05 154.26 194.84 Z M 153.35 194.68 L 152.36 194.43 C 151.25 194.15 150.13 194.82 149.85 195.93 C 149.57 197.04 150.24 198.17 151.35 198.44 L 152.34 198.69 C 153.45 198.97 154.57 198.30 154.85 197.19 C 155.13 196.08 154.46 194.96 153.35 194.68 Z M 152.48 194.47 L 151.50 194.15 C 150.41 193.81 149.25 194.40 148.90 195.49 C 148.56 196.58 149.15 197.74 150.24 198.09 L 151.22 198.40 C 152.31 198.75 153.47 198.15 153.82 197.07 C 154.17 195.98 153.57 194.82 152.48 194.47 Z M 151.65 194.22 L 150.73 193.84 C 149.67 193.40 148.47 193.90 148.04 194.96 C 147.61 196.01 148.11 197.21 149.16 197.64 L 150.09 198.02 C 151.14 198.46 152.34 197.95 152.77 196.90 C 153.21 195.85 152.70 194.65 151.65 194.22 Z M 150.94 193.94 L 150.07 193.46 C 149.08 192.91 147.83 193.27 147.28 194.26 C 146.72 195.25 147.08 196.50 148.07 197.05 L 148.94 197.54 C 149.94 198.09 151.19 197.73 151.74 196.74 C 152.29 195.74 151.93 194.49 150.94 193.94 Z M 150.40 193.67 L 149.57 192.98 C 148.70 192.25 147.40 192.37 146.66 193.24 C 145.93 194.12 146.05 195.42 146.92 196.15 L 147.75 196.84 C 148.62 197.57 149.92 197.45 150.66 196.58 C 151.39 195.71 151.27 194.40 150.40 193.67 Z M 149.94 193.36 L 149.39 192.58 C 148.72 191.64 147.42 191.42 146.49 192.09 C 145.55 192.76 145.33 194.06 146.00 194.99 L 146.55 195.77 C 147.22 196.71 148.52 196.93 149.45 196.26 C 150.39 195.60 150.61 194.30 149.94 193.36 Z M 149.68 193.10 L 149.38 192.24 C 149.00 191.14 147.81 190.56 146.71 190.94 C 145.62 191.32 145.03 192.51 145.41 193.61 L 145.71 194.47 C 146.09 195.57 147.28 196.15 148.38 195.77 C 149.47 195.39 150.05 194.20 149.68 193.10 Z M 149.50 192.84 L 149.46 191.87 C 149.42 190.71 148.43 189.81 147.27 189.85 C 146.11 189.90 145.20 190.88 145.25 192.05 L 145.29 193.01 C 145.34 194.17 146.32 195.08 147.48 195.03 C 148.64 194.98 149.55 194.00 149.50 192.84 Z M 149.41 192.46 L 149.65 191.49 C 149.92 190.35 149.22 189.21 148.09 188.94 C 146.95 188.66 145.81 189.36 145.54 190.49 L 145.30 191.46 C 145.03 192.60 145.72 193.74 146.86 194.01 C 147.99 194.29 149.14 193.59 149.41 192.46 Z M 149.45 192.01 L 149.94 191.11 C 150.50 190.08 150.13 188.80 149.10 188.23 C 148.07 187.67 146.78 188.05 146.22 189.08 L 145.73 189.97 C 145.17 191.00 145.55 192.29 146.57 192.85 C 147.60 193.41 148.89 193.04 149.45 192.01 Z M 149.69 191.51 L 150.31 190.80 C 151.09 189.91 151.01 188.56 150.12 187.78 C 149.23 187.00 147.88 187.08 147.10 187.97 L 146.47 188.68 C 145.69 189.57 145.78 190.92 146.67 191.70 C 147.55 192.48 148.91 192.39 149.69 191.51 Z M 150.11 191.04 L 150.87 190.39 C 151.78 189.62 151.90 188.25 151.13 187.34 C 150.35 186.42 148.99 186.31 148.07 187.08 L 147.31 187.73 C 146.39 188.50 146.28 189.87 147.05 190.78 C 147.83 191.70 149.19 191.81 150.11 191.04 Z M 150.72 190.54 L 151.58 189.94 C 152.57 189.25 152.82 187.89 152.13 186.89 C 151.44 185.90 150.07 185.65 149.08 186.34 L 148.22 186.94 C 147.23 187.63 146.98 188.99 147.67 189.99 C 148.36 190.98 149.73 191.23 150.72 190.54 Z M 151.48 190.03 L 152.37 189.49 C 153.41 188.85 153.74 187.49 153.10 186.44 C 152.46 185.40 151.09 185.07 150.05 185.71 L 149.17 186.25 C 148.12 186.89 147.80 188.26 148.44 189.30 C 149.08 190.34 150.44 190.67 151.48 190.03 Z M 152.29 189.56 L 153.18 189.06 C 154.26 188.47 154.65 187.11 154.06 186.03 C 153.46 184.95 152.10 184.56 151.02 185.15 L 150.13 185.65 C 149.05 186.24 148.66 187.60 149.25 188.68 C 149.85 189.76 151.21 190.15 152.29 189.56 Z M 153.09 189.13 L 153.99 188.69 C 155.10 188.14 155.56 186.79 155.01 185.68 C 154.47 184.56 153.12 184.10 152.00 184.65 L 151.11 185.09 C 149.99 185.64 149.53 186.98 150.08 188.10 C 150.63 189.22 151.98 189.68 153.09 189.13 Z M 153.88 188.76 L 154.77 188.38 C 155.92 187.89 156.46 186.56 155.98 185.41 C 155.49 184.26 154.16 183.72 153.01 184.21 L 152.11 184.58 C 150.96 185.07 150.42 186.40 150.91 187.55 C 151.39 188.71 152.72 189.24 153.88 188.76 Z M 154.64 188.44 L 155.58 188.11 C 156.77 187.70 157.40 186.40 156.99 185.22 C 156.58 184.03 155.28 183.40 154.09 183.81 L 153.14 184.14 C 151.95 184.55 151.32 185.85 151.74 187.04 C 152.15 188.23 153.45 188.86 154.64 188.44 Z M 155.44 188.17 L 156.39 187.91 C 157.61 187.57 158.33 186.31 157.99 185.10 C 157.66 183.88 156.40 183.16 155.18 183.50 L 154.23 183.76 C 153.01 184.09 152.30 185.35 152.63 186.57 C 152.97 187.79 154.22 188.50 155.44 188.17 Z M 156.27 187.95 L 157.25 187.73 C 158.49 187.47 159.28 186.25 159.01 185.01 C 158.75 183.77 157.52 182.98 156.29 183.25 L 155.30 183.46 C 154.06 183.73 153.28 184.95 153.54 186.19 C 153.81 187.43 155.03 188.21 156.27 187.95 Z M 157.16 187.76 L 158.04 187.61 C 159.29 187.39 160.13 186.20 159.91 184.94 C 159.69 183.69 158.50 182.85 157.25 183.07 L 156.38 183.22 C 155.12 183.44 154.28 184.63 154.50 185.88 C 154.72 187.14 155.91 187.98 157.16 187.76 Z M 157.95 187.62 L 158.89 187.50 C 160.15 187.33 161.04 186.16 160.87 184.90 C 160.69 183.64 159.53 182.76 158.27 182.93 L 157.33 183.05 C 156.07 183.22 155.19 184.39 155.36 185.65 C 155.53 186.91 156.69 187.79 157.95 187.62 Z M 158.80 187.51 L 159.84 187.41 C 161.11 187.29 162.04 186.16 161.91 184.89 C 161.79 183.62 160.66 182.69 159.39 182.81 L 158.36 182.91 C 157.09 183.04 156.16 184.17 156.28 185.44 C 156.41 186.71 157.53 187.63 158.80 187.51 Z M 159.76 187.42 L 160.88 187.35 C 162.15 187.27 163.12 186.17 163.04 184.90 C 162.96 183.62 161.86 182.65 160.59 182.73 L 159.47 182.80 C 158.19 182.88 157.23 183.98 157.30 185.25 C 157.38 186.53 158.48 187.50 159.76 187.42 Z M 160.82 187.36 L 161.80 187.32 C 163.08 187.28 164.08 186.20 164.03 184.92 C 163.99 183.64 162.91 182.64 161.63 182.69 L 160.65 182.73 C 159.37 182.77 158.37 183.85 158.42 185.13 C 158.46 186.40 159.54 187.40 160.82 187.36 Z M 161.77 187.33 L 162.79 187.30 C 164.08 187.28 165.09 186.22 165.07 184.94 C 165.04 183.66 163.98 182.64 162.70 182.66 L 161.67 182.69 C 160.39 182.71 159.37 183.77 159.40 185.05 C 159.42 186.33 160.48 187.35 161.77 187.33 Z M 162.77 187.31 L 163.81 187.30 C 165.09 187.29 166.12 186.23 166.11 184.95 C 166.09 183.67 165.04 182.64 163.76 182.65 L 162.72 182.66 C 161.44 182.67 160.41 183.72 160.42 185.01 C 160.44 186.29 161.49 187.32 162.77 187.31 Z M 163.79 187.30 L 164.79 187.30 C 166.08 187.29 167.12 186.25 167.11 184.96 C 167.11 183.68 166.06 182.64 164.78 182.64 L 163.77 182.65 C 162.49 182.65 161.45 183.70 161.46 184.98 C 161.46 186.27 162.50 187.31 163.79 187.30 Z M 164.79 187.30 L 165.78 187.30 C 167.07 187.30 168.11 186.26 168.11 184.97 C 168.11 183.68 167.07 182.64 165.78 182.64 L 164.78 182.64 C 163.50 182.64 162.45 183.68 162.46 184.97 C 162.46 186.26 163.50 187.30 164.79 187.30 Z M 165.78 187.30 L 166.89 187.31 C 168.17 187.31 169.22 186.27 169.22 184.98 C 169.23 183.69 168.19 182.64 166.90 182.64 L 165.79 182.64 C 164.50 182.63 163.45 183.68 163.45 184.96 C 163.45 186.25 164.49 187.30 165.78 187.30 Z M 166.86 187.31 L 167.84 187.32 C 169.13 187.34 170.19 186.31 170.21 185.02 C 170.23 183.73 169.20 182.67 167.91 182.65 L 166.93 182.64 C 165.64 182.62 164.58 183.65 164.56 184.94 C 164.54 186.23 165.57 187.29 166.86 187.31 Z M 167.78 187.32 L 168.70 187.36 C 169.99 187.41 171.07 186.40 171.12 185.11 C 171.17 183.82 170.17 182.74 168.88 182.69 L 167.97 182.65 C 166.68 182.60 165.59 183.61 165.54 184.90 C 165.49 186.19 166.49 187.27 167.78 187.32 Z M 168.61 187.35 L 169.54 187.42 C 170.83 187.52 171.95 186.56 172.05 185.27 C 172.15 183.98 171.18 182.86 169.89 182.76 L 168.96 182.69 C 167.67 182.59 166.55 183.56 166.45 184.85 C 166.36 186.14 167.32 187.26 168.61 187.35 Z M 169.45 187.42 L 170.42 187.53 C 171.71 187.68 172.87 186.76 173.02 185.48 C 173.17 184.19 172.25 183.03 170.96 182.88 L 169.99 182.77 C 168.71 182.62 167.54 183.54 167.40 184.82 C 167.25 186.11 168.17 187.27 169.45 187.42 Z M 170.33 187.52 L 171.33 187.67 C 172.61 187.87 173.80 187.00 174.00 185.72 C 174.20 184.44 173.32 183.25 172.05 183.05 L 171.05 182.89 C 169.78 182.69 168.58 183.57 168.38 184.85 C 168.18 186.12 169.06 187.32 170.33 187.52 Z M 171.25 187.66 L 172.26 187.85 C 173.53 188.10 174.75 187.26 174.99 185.99 C 175.24 184.72 174.40 183.49 173.13 183.25 L 172.13 183.06 C 170.85 182.82 169.63 183.65 169.39 184.92 C 169.14 186.19 169.98 187.42 171.25 187.66 Z M 172.19 187.84 L 173.16 188.05 C 174.42 188.33 175.67 187.53 175.95 186.27 C 176.23 185.00 175.43 183.75 174.17 183.48 L 173.20 183.26 C 171.93 182.99 170.68 183.79 170.41 185.05 C 170.13 186.31 170.93 187.56 172.19 187.84 Z M 173.11 188.04 L 174.09 188.28 C 175.34 188.59 176.61 187.82 176.92 186.56 C 177.23 185.31 176.46 184.04 175.20 183.73 L 174.22 183.49 C 172.96 183.18 171.69 183.95 171.39 185.21 C 171.08 186.47 171.85 187.73 173.11 188.04 Z M 174.04 188.27 L 175.01 188.53 C 176.26 188.86 177.54 188.12 177.88 186.87 C 178.21 185.62 177.47 184.34 176.22 184.00 L 175.25 183.74 C 174.00 183.41 172.71 184.15 172.38 185.40 C 172.04 186.65 172.79 187.93 174.04 188.27 Z M 174.96 188.52 L 175.94 188.80 C 177.18 189.16 178.48 188.45 178.84 187.20 C 179.20 185.96 178.49 184.66 177.25 184.30 L 176.27 184.02 C 175.03 183.65 173.73 184.37 173.37 185.61 C 173.00 186.85 173.72 188.15 174.96 188.52 Z M 175.90 188.79 L 176.86 189.09 C 178.10 189.47 179.41 188.78 179.80 187.55 C 180.18 186.31 179.49 185.00 178.26 184.61 L 177.29 184.31 C 176.06 183.93 174.74 184.62 174.36 185.85 C 173.97 187.09 174.66 188.40 175.90 188.79 Z M 176.83 189.08 L 177.77 189.39 C 179.00 189.79 180.32 189.12 180.73 187.89 C 181.13 186.66 180.46 185.34 179.23 184.93 L 178.29 184.63 C 177.06 184.22 175.74 184.89 175.33 186.12 C 174.93 187.35 175.60 188.67 176.83 189.08 Z M 177.75 189.38 L 178.67 189.69 C 179.90 190.11 181.23 189.45 181.65 188.23 C 182.06 187.00 181.40 185.67 180.18 185.25 L 179.25 184.94 C 178.03 184.53 176.70 185.18 176.28 186.41 C 175.87 187.63 176.52 188.96 177.75 189.38 Z M 178.66 189.69 L 179.61 190.01 C 180.83 190.44 182.17 189.78 182.59 188.56 C 183.01 187.34 182.36 186.00 181.13 185.58 L 180.19 185.26 C 178.96 184.84 177.63 185.49 177.21 186.71 C 176.79 187.94 177.44 189.27 178.66 189.69 Z M 179.61 190.01 L 180.55 190.34 C 181.77 190.76 183.11 190.11 183.53 188.89 C 183.95 187.67 183.30 186.33 182.08 185.91 L 181.14 185.58 C 179.91 185.16 178.58 185.81 178.16 187.03 C 177.74 188.26 178.39 189.59 179.61 190.01 Z M 180.55 190.34 L 181.50 190.66 C 182.72 191.09 184.06 190.43 184.48 189.21 C 184.90 187.99 184.25 186.66 183.02 186.23 L 182.08 185.91 C 180.85 185.49 179.52 186.14 179.10 187.36 C 178.68 188.59 179.33 189.92 180.55 190.34 Z M 181.51 190.67 L 182.42 190.98 C 183.64 191.39 184.97 190.74 185.39 189.51 C 185.80 188.29 185.15 186.96 183.93 186.54 L 183.02 186.23 C 181.79 185.82 180.46 186.47 180.04 187.70 C 179.63 188.92 180.28 190.25 181.51 190.67 Z M 182.42 190.97 L 183.34 191.29 C 184.56 191.70 185.89 191.05 186.31 189.83 C 186.72 188.61 186.07 187.28 184.85 186.86 L 183.93 186.55 C 182.70 186.13 181.37 186.78 180.96 188.00 C 180.54 189.23 181.19 190.56 182.42 190.97 Z M 183.33 191.28 L 184.29 191.62 C 185.51 192.04 186.84 191.39 187.26 190.17 C 187.69 188.96 187.04 187.62 185.82 187.20 L 184.86 186.87 C 183.64 186.44 182.31 187.09 181.89 188.31 C 181.46 189.53 182.11 190.86 183.33 191.28 Z M 184.27 191.61 L 185.23 191.95 C 186.44 192.38 187.78 191.75 188.21 190.54 C 188.65 189.33 188.02 187.99 186.80 187.56 L 185.84 187.21 C 184.63 186.78 183.29 187.41 182.86 188.62 C 182.42 189.83 183.05 191.17 184.27 191.61 Z M 185.21 191.94 L 186.09 192.26 C 187.30 192.71 188.64 192.09 189.08 190.88 C 189.53 189.68 188.91 188.34 187.70 187.89 L 186.82 187.57 C 185.62 187.12 184.28 187.74 183.83 188.95 C 183.38 190.15 184.00 191.49 185.21 191.94 Z M 186.08 192.26 L 187.00 192.60 C 188.21 193.05 189.55 192.44 190.00 191.24 C 190.45 190.03 189.84 188.69 188.63 188.24 L 187.71 187.90 C 186.51 187.45 185.17 188.06 184.72 189.26 C 184.27 190.47 184.88 191.81 186.08 192.26 Z M 187.00 192.60 L 187.97 192.96 C 189.17 193.41 190.51 192.80 190.96 191.60 C 191.41 190.40 190.80 189.06 189.60 188.61 L 188.63 188.25 C 187.43 187.80 186.09 188.41 185.64 189.61 C 185.19 190.81 185.80 192.15 187.00 192.60 Z M 187.98 192.96 L 188.98 193.33 C 190.18 193.78 191.52 193.16 191.96 191.96 C 192.41 190.76 191.80 189.43 190.60 188.98 L 189.59 188.61 C 188.39 188.16 187.06 188.78 186.61 189.98 C 186.17 191.18 186.78 192.51 187.98 192.96 Z M 188.99 193.33 L 189.95 193.68 C 191.15 194.12 192.48 193.50 192.92 192.30 C 193.36 191.10 192.74 189.77 191.54 189.33 L 190.58 188.98 C 189.39 188.55 188.06 189.16 187.62 190.36 C 187.18 191.56 187.79 192.89 188.99 193.33 Z M 189.95 193.67 L 190.92 194.03 C 192.11 194.47 193.44 193.85 193.88 192.65 C 194.32 191.46 193.70 190.13 192.50 189.69 L 191.54 189.34 C 190.34 188.90 189.02 189.52 188.58 190.71 C 188.14 191.91 188.75 193.23 189.95 193.67 Z M 190.91 194.02 L 191.86 194.37 C 193.05 194.82 194.38 194.21 194.82 193.02 C 195.26 191.83 194.66 190.50 193.47 190.06 L 192.51 189.70 C 191.32 189.26 190.00 189.87 189.55 191.06 C 189.11 192.25 189.72 193.57 190.91 194.02 Z M 191.84 194.36 L 192.75 194.71 C 193.94 195.17 195.26 194.58 195.72 193.39 C 196.18 192.21 195.59 190.88 194.40 190.43 L 193.49 190.07 C 192.31 189.62 190.98 190.21 190.52 191.39 C 190.07 192.57 190.65 193.90 191.84 194.36 Z M 192.71 194.69 L 193.64 195.06 C 194.81 195.54 196.14 194.98 196.62 193.81 C 197.10 192.64 196.54 191.31 195.37 190.83 L 194.44 190.45 C 193.27 189.97 191.94 190.53 191.46 191.70 C 190.98 192.87 191.54 194.21 192.71 194.69 Z M 193.59 195.03 L 194.55 195.45 C 195.70 195.96 197.04 195.44 197.55 194.29 C 198.06 193.14 197.54 191.80 196.39 191.30 L 195.42 190.87 C 194.28 190.36 192.93 190.88 192.43 192.03 C 191.92 193.18 192.44 194.52 193.59 195.03 Z M 194.51 195.41 L 195.40 195.83 C 196.52 196.36 197.86 195.88 198.40 194.76 C 198.93 193.63 198.45 192.29 197.32 191.76 L 196.43 191.34 C 195.31 190.81 193.97 191.29 193.43 192.41 C 192.90 193.54 193.38 194.88 194.51 195.41 Z M 195.37 195.80 L 196.22 196.21 C 197.32 196.76 198.66 196.30 199.21 195.20 C 199.75 194.09 199.30 192.75 198.19 192.21 L 197.35 191.79 C 196.24 191.25 194.90 191.70 194.36 192.81 C 193.81 193.91 194.27 195.25 195.37 195.80 Z M 196.21 196.20 L 196.51 196.34 C 197.60 196.89 198.94 196.45 199.48 195.35 C 200.03 194.25 199.59 192.92 198.49 192.37 L 198.20 192.22 C 197.10 191.68 195.77 192.12 195.22 193.22 C 194.67 194.32 195.11 195.65 196.21 196.20 Z"
      fill="black"
      fill-rule="nonzero" /></svg>