<svg xmlns="http://www.w3.org/2000/svg" width="300" height="300" viewBox="0 0 300 300">
<path d="M 129.71 190.30 L 129.75 191.18 C 129.80 192.31 130.77 193.19 131.91 193.13 C 133.05 193.08 133.92 192.11 133.87 190.97 L 133.82 190.10 C 133.77 188.96 132.80 188.09 131.66 188.14 C 130.53 188.20 129.65 189.17 129.71 190.30 Z M 129.74 191.24 L 129.82 192.16 C 129.91 193.30 130.91 194.15 132.05 194.06 C 133.19 193.96 134.04 192.96 133.95 191.82 L 133.87 190.91 C 133.78 189.77 132.78 188.92 131.64 189.01 C 130.50 189.10 129.65 190.10 129.74 191.24 Z M 129.82 192.27 L 129.95 193.28 C 130.11 194.42 131.16 195.22 132.30 195.06 C 133.44 194.91 134.24 193.86 134.08 192.72 L 133.95 191.71 C 133.79 190.57 132.74 189.77 131.60 189.93 C 130.46 190.08 129.66 191.13 129.82 192.27 Z M 129.97 193.41 L 130.20 194.55 C 130.43 195.69 131.53 196.42 132.67 196.19 C 133.80 195.96 134.53 194.86 134.30 193.72 L 134.07 192.58 C 133.84 191.45 132.74 190.71 131.60 190.94 C 130.47 191.17 129.74 192.28 129.97 193.41 Z M 130.21 194.67 L 130.46 195.60 C 130.75 196.73 131.90 197.40 133.02 197.11 C 134.15 196.82 134.82 195.67 134.53 194.55 L 134.29 193.61 C 134.00 192.49 132.85 191.81 131.72 192.10 C 130.60 192.39 129.92 193.54 130.21 194.67 Z M 130.47 195.67 L 130.75 196.63 C 131.08 197.75 132.25 198.39 133.37 198.07 C 134.49 197.74 135.13 196.57 134.80 195.45 L 134.52 194.48 C 134.19 193.36 133.02 192.72 131.90 193.05 C 130.78 193.38 130.14 194.55 130.47 195.67 Z M 130.76 196.68 L 131.07 197.67 C 131.42 198.79 132.61 199.41 133.73 199.05 C 134.84 198.70 135.46 197.51 135.11 196.40 L 134.80 195.40 C 134.44 194.29 133.25 193.67 132.14 194.02 C 131.02 194.37 130.40 195.56 130.76 196.68 Z M 131.07 197.70 L 131.40 198.69 C 131.77 199.81 132.97 200.41 134.08 200.04 C 135.19 199.68 135.80 198.48 135.43 197.36 L 135.11 196.37 C 134.74 195.26 133.54 194.65 132.42 195.02 C 131.31 195.38 130.70 196.59 131.07 197.70 Z M 131.40 198.71 L 131.72 199.67 C 132.10 200.78 133.31 201.38 134.42 201.00 C 135.54 200.63 136.13 199.42 135.76 198.31 L 135.43 197.35 C 135.06 196.23 133.85 195.63 132.73 196.01 C 131.62 196.39 131.02 197.59 131.40 198.71 Z M 131.72 199.67 L 132.03 200.59 C 132.41 201.71 133.62 202.31 134.74 201.93 C 135.86 201.55 136.45 200.33 136.07 199.22 L 135.76 198.30 C 135.38 197.18 134.17 196.58 133.05 196.96 C 131.94 197.34 131.34 198.56 131.72 199.67 Z M 132.02 200.58 L 132.39 201.68 C 132.76 202.80 133.98 203.40 135.10 203.03 C 136.22 202.65 136.82 201.44 136.45 200.32 L 136.08 199.23 C 135.71 198.10 134.49 197.50 133.37 197.88 C 132.25 198.25 131.65 199.46 132.02 200.58 Z M 132.38 201.66 L 132.70 202.63 C 133.06 203.75 134.27 204.37 135.39 204.00 C 136.52 203.63 137.13 202.43 136.77 201.30 L 136.45 200.34 C 136.09 199.21 134.88 198.60 133.76 198.97 C 132.63 199.33 132.02 200.54 132.38 201.66 Z M 132.69 202.61 L 132.97 203.49 C 133.33 204.62 134.53 205.25 135.65 204.89 C 136.78 204.54 137.41 203.34 137.05 202.21 L 136.77 201.32 C 136.42 200.20 135.22 199.57 134.09 199.93 C 132.96 200.28 132.34 201.48 132.69 202.61 Z M 132.97 203.47 L 133.23 204.33 C 133.57 205.46 134.76 206.10 135.89 205.75 C 137.02 205.41 137.66 204.22 137.32 203.09 L 137.06 202.23 C 136.71 201.10 135.52 200.46 134.39 200.81 C 133.26 201.15 132.62 202.34 132.97 203.47 Z M 133.22 204.31 L 133.50 205.25 C 133.83 206.38 135.02 207.03 136.15 206.70 C 137.29 206.36 137.93 205.17 137.60 204.04 L 137.32 203.10 C 136.99 201.97 135.80 201.32 134.67 201.66 C 133.53 201.99 132.89 203.18 133.22 204.31 Z M 133.50 205.25 L 133.78 206.21 C 134.11 207.34 135.30 207.99 136.43 207.66 C 137.56 207.33 138.21 206.14 137.88 205.01 L 137.60 204.05 C 137.27 202.91 136.08 202.26 134.95 202.59 C 133.82 202.93 133.17 204.11 133.50 205.25 Z M 133.78 206.22 L 134.07 207.19 C 134.41 208.32 135.60 208.96 136.73 208.62 C 137.86 208.29 138.50 207.10 138.17 205.97 L 137.88 205.00 C 137.54 203.87 136.35 203.23 135.22 203.56 C 134.09 203.90 133.45 205.09 133.78 206.22 Z M 134.08 207.21 L 134.37 208.16 C 134.72 209.29 135.92 209.92 137.05 209.57 C 138.17 209.22 138.80 208.02 138.45 206.90 L 138.16 205.94 C 137.81 204.82 136.61 204.19 135.49 204.54 C 134.36 204.89 133.73 206.08 134.08 207.21 Z M 134.39 208.20 L 134.71 209.18 C 135.08 210.30 136.29 210.90 137.41 210.54 C 138.53 210.17 139.13 208.96 138.76 207.84 L 138.44 206.86 C 138.07 205.74 136.86 205.13 135.74 205.50 C 134.63 205.87 134.02 207.08 134.39 208.20 Z M 134.73 209.21 L 135.06 210.16 C 135.45 211.27 136.67 211.86 137.78 211.47 C 138.89 211.08 139.47 209.86 139.08 208.75 L 138.75 207.80 C 138.36 206.69 137.14 206.11 136.03 206.50 C 134.92 206.89 134.34 208.10 134.73 209.21 Z M 135.08 210.19 L 135.41 211.11 C 135.82 212.22 137.04 212.78 138.14 212.38 C 139.25 211.97 139.81 210.75 139.41 209.65 L 139.07 208.73 C 138.66 207.62 137.44 207.06 136.34 207.46 C 135.24 207.87 134.67 209.09 135.08 210.19 Z M 135.43 211.13 L 135.77 212.04 C 136.19 213.14 137.41 213.69 138.51 213.27 C 139.60 212.85 140.16 211.63 139.74 210.53 L 139.39 209.63 C 138.98 208.53 137.75 207.98 136.66 208.40 C 135.56 208.81 135.01 210.04 135.43 211.13 Z M 135.79 212.07 L 136.15 212.97 C 136.58 214.06 137.81 214.59 138.89 214.16 C 139.98 213.73 140.51 212.50 140.08 211.41 L 139.72 210.51 C 139.29 209.42 138.06 208.89 136.97 209.32 C 135.89 209.75 135.35 210.98 135.79 212.07 Z M 136.17 213.02 L 136.56 213.93 C 137.02 215.00 138.26 215.50 139.33 215.04 C 140.40 214.59 140.90 213.35 140.44 212.27 L 140.05 211.36 C 139.60 210.29 138.36 209.79 137.28 210.25 C 136.21 210.71 135.71 211.95 136.17 213.02 Z M 136.60 214.00 L 137.04 214.93 C 137.53 215.99 138.79 216.44 139.84 215.94 C 140.89 215.45 141.34 214.20 140.85 213.14 L 140.41 212.21 C 139.91 211.16 138.66 210.70 137.61 211.20 C 136.56 211.69 136.10 212.95 136.60 214.00 Z M 137.08 215.01 L 137.53 215.87 C 138.06 216.90 139.33 217.30 140.36 216.76 C 141.39 216.23 141.79 214.97 141.25 213.94 L 140.80 213.07 C 140.27 212.05 139.01 211.64 137.98 212.18 C 136.95 212.71 136.55 213.98 137.08 215.01 Z M 137.58 215.95 L 138.08 216.81 C 138.66 217.81 139.94 218.15 140.94 217.57 C 141.94 216.99 142.28 215.72 141.70 214.72 L 141.20 213.86 C 140.62 212.86 139.34 212.52 138.34 213.10 C 137.35 213.67 137.01 214.95 137.58 215.95 Z M 138.16 216.91 L 138.72 217.76 C 139.35 218.72 140.64 218.98 141.60 218.35 C 142.56 217.71 142.82 216.42 142.19 215.46 L 141.63 214.62 C 140.99 213.66 139.70 213.40 138.74 214.03 C 137.78 214.66 137.52 215.96 138.16 216.91 Z M 138.81 217.88 L 139.44 218.69 C 140.14 219.59 141.44 219.76 142.35 219.06 C 143.25 218.35 143.42 217.05 142.71 216.15 L 142.09 215.34 C 141.39 214.44 140.09 214.27 139.18 214.98 C 138.28 215.68 138.11 216.98 138.81 217.88 Z M 139.58 218.83 L 140.30 219.60 C 141.08 220.43 142.38 220.47 143.21 219.69 C 144.04 218.91 144.08 217.60 143.30 216.77 L 142.58 216.01 C 141.80 215.18 140.49 215.14 139.66 215.92 C 138.83 216.70 138.80 218.00 139.58 218.83 Z M 140.46 219.73 L 141.25 220.41 C 142.10 221.14 143.39 221.05 144.13 220.19 C 144.87 219.34 144.77 218.05 143.91 217.31 L 143.13 216.64 C 142.28 215.90 140.99 216.00 140.25 216.85 C 139.51 217.71 139.61 219.00 140.46 219.73 Z M 141.44 220.54 L 142.26 221.09 C 143.18 221.72 144.44 221.48 145.07 220.55 C 145.70 219.62 145.46 218.36 144.54 217.74 L 143.72 217.18 C 142.79 216.55 141.53 216.79 140.90 217.72 C 140.28 218.65 140.52 219.91 141.44 220.54 Z M 142.50 221.21 L 143.33 221.62 C 144.32 222.12 145.53 221.72 146.02 220.73 C 146.52 219.74 146.12 218.53 145.13 218.03 L 144.30 217.62 C 143.31 217.12 142.10 217.52 141.60 218.51 C 141.10 219.50 141.50 220.71 142.50 221.21 Z M 143.67 221.73 L 144.70 222.03 C 145.75 222.34 146.85 221.74 147.16 220.69 C 147.46 219.64 146.86 218.54 145.81 218.23 L 144.78 217.93 C 143.73 217.62 142.63 218.22 142.33 219.27 C 142.02 220.32 142.62 221.42 143.67 221.73 Z M 145.16 222.07 L 146.14 222.12 C 147.21 222.17 148.12 221.35 148.18 220.28 C 148.23 219.21 147.41 218.30 146.34 218.24 L 145.35 218.19 C 144.28 218.14 143.37 218.96 143.32 220.03 C 143.26 221.10 144.09 222.01 145.16 222.07 Z M 146.65 222.04 L 147.56 221.83 C 148.59 221.61 149.23 220.59 149.01 219.57 C 148.78 218.54 147.76 217.89 146.74 218.12 L 145.83 218.32 C 144.80 218.55 144.16 219.57 144.38 220.59 C 144.61 221.62 145.63 222.26 146.65 222.04 Z M 148.04 221.62 L 148.78 221.21 C 149.69 220.72 150.02 219.59 149.53 218.69 C 149.04 217.78 147.91 217.45 147.01 217.94 L 146.26 218.34 C 145.36 218.83 145.02 219.96 145.51 220.86 C 146.00 221.77 147.13 222.11 148.04 221.62 Z M 149.13 220.92 L 149.82 220.29 C 150.56 219.60 150.61 218.45 149.93 217.71 C 149.24 216.96 148.09 216.91 147.35 217.60 L 146.66 218.23 C 145.91 218.91 145.87 220.07 146.55 220.81 C 147.23 221.56 148.39 221.60 149.13 220.92 Z M 150.02 220.01 L 150.68 219.12 C 151.27 218.32 151.11 217.20 150.31 216.61 C 149.52 216.02 148.40 216.19 147.81 216.98 L 147.14 217.88 C 146.56 218.67 146.72 219.79 147.51 220.38 C 148.31 220.97 149.43 220.80 150.02 220.01 Z M 150.77 218.93 L 151.29 218.02 C 151.78 217.18 151.49 216.10 150.65 215.62 C 149.81 215.13 148.73 215.42 148.25 216.26 L 147.72 217.17 C 147.24 218.01 147.52 219.09 148.36 219.57 C 149.21 220.06 150.28 219.77 150.77 218.93 Z M 151.33 217.91 L 151.77 217.03 C 152.20 216.17 151.85 215.13 150.99 214.70 C 150.13 214.27 149.09 214.62 148.66 215.48 L 148.22 216.36 C 147.79 217.22 148.14 218.26 149.00 218.69 C 149.85 219.12 150.90 218.77 151.33 217.91 Z M 151.78 216.96 L 152.21 216.01 C 152.60 215.15 152.21 214.13 151.35 213.74 C 150.48 213.35 149.46 213.74 149.07 214.60 L 148.65 215.55 C 148.26 216.41 148.64 217.43 149.51 217.82 C 150.37 218.21 151.39 217.82 151.78 216.96 Z M 152.21 215.95 L 152.61 214.99 C 152.97 214.12 152.55 213.13 151.69 212.77 C 150.82 212.41 149.83 212.83 149.47 213.69 L 149.07 214.66 C 148.71 215.52 149.13 216.52 149.99 216.88 C 150.86 217.23 151.85 216.82 152.21 215.95 Z M 152.61 214.94 L 152.96 214.00 C 153.29 213.14 152.86 212.17 151.99 211.84 C 151.12 211.51 150.15 211.94 149.82 212.81 L 149.47 213.75 C 149.14 214.61 149.57 215.58 150.44 215.91 C 151.31 216.24 152.28 215.81 152.61 214.94 Z M 152.97 213.95 L 153.32 212.92 C 153.62 212.05 153.16 211.11 152.29 210.81 C 151.42 210.51 150.47 210.97 150.17 211.84 L 149.82 212.87 C 149.52 213.73 149.98 214.68 150.85 214.98 C 151.72 215.28 152.67 214.82 152.97 213.95 Z M 153.33 212.86 L 153.64 211.85 C 153.90 210.97 153.41 210.05 152.54 209.78 C 151.66 209.52 150.74 210.01 150.47 210.88 L 150.16 211.90 C 149.90 212.77 150.39 213.70 151.27 213.96 C 152.14 214.23 153.06 213.73 153.33 212.86 Z M 153.65 211.79 L 153.89 210.87 C 154.13 209.99 153.61 209.09 152.73 208.85 C 151.85 208.62 150.94 209.14 150.71 210.02 L 150.46 210.94 C 150.23 211.82 150.75 212.72 151.63 212.96 C 152.51 213.19 153.41 212.67 153.65 211.79 Z M 153.90 210.83 L 154.11 209.96 C 154.32 209.08 153.78 208.19 152.90 207.98 C 152.02 207.76 151.13 208.30 150.92 209.19 L 150.71 210.06 C 150.49 210.94 151.03 211.82 151.91 212.04 C 152.79 212.25 153.68 211.71 153.90 210.83 Z M 154.11 209.95 L 154.14 209.81 C 154.35 208.94 153.81 208.05 152.93 207.84 C 152.05 207.63 151.16 208.18 150.95 209.06 L 150.92 209.19 C 150.71 210.07 151.25 210.96 152.13 211.17 C 153.01 211.38 153.90 210.83 154.11 209.95 Z"
      fill="black"
      fill-rule="nonzero" /><path d="M 159.24 191.01 L 160.15 191.10 C 161.36 191.23 162.45 190.35 162.57 189.14 C 162.70 187.93 161.82 186.85 160.61 186.72 L 159.70 186.63 C 158.49 186.50 157.41 187.38 157.28 188.59 C 157.15 189.80 158.03 190.88 159.24 191.01 Z M 159.97 191.08 L 160.90 191.26 C 162.10 191.48 163.25 190.69 163.48 189.49 C 163.70 188.29 162.91 187.14 161.71 186.92 L 160.79 186.74 C 159.59 186.52 158.43 187.31 158.21 188.51 C 157.99 189.70 158.77 190.86 159.97 191.08 Z M 160.59 191.18 L 161.56 191.51 C 162.71 191.91 163.97 191.29 164.37 190.13 C 164.76 188.98 164.15 187.72 162.99 187.33 L 162.02 186.99 C 160.87 186.60 159.61 187.21 159.21 188.37 C 158.82 189.53 159.43 190.78 160.59 191.18 Z M 161.22 191.37 L 162.15 191.87 C 163.23 192.45 164.57 192.05 165.16 190.98 C 165.74 189.90 165.34 188.56 164.26 187.97 L 163.33 187.47 C 162.25 186.89 160.91 187.29 160.33 188.36 C 159.74 189.44 160.14 190.78 161.22 191.37 Z M 161.92 191.73 L 162.61 192.22 C 163.61 192.94 164.99 192.70 165.71 191.71 C 166.42 190.71 166.19 189.32 165.19 188.61 L 164.50 188.11 C 163.50 187.40 162.11 187.63 161.40 188.63 C 160.69 189.63 160.92 191.02 161.92 191.73 Z M 162.47 192.12 L 163.18 192.72 C 164.12 193.51 165.53 193.38 166.32 192.44 C 167.11 191.50 166.98 190.09 166.04 189.30 L 165.33 188.71 C 164.38 187.92 162.98 188.04 162.19 188.99 C 161.40 189.93 161.53 191.33 162.47 192.12 Z M 163.08 192.63 L 163.81 193.32 C 164.70 194.17 166.12 194.13 166.96 193.23 C 167.81 192.34 167.77 190.92 166.87 190.08 L 166.14 189.39 C 165.25 188.54 163.83 188.58 162.99 189.48 C 162.14 190.37 162.18 191.79 163.08 192.63 Z M 163.73 193.25 L 164.46 194.02 C 165.32 194.91 166.74 194.94 167.63 194.08 C 168.52 193.22 168.55 191.81 167.69 190.92 L 166.95 190.15 C 166.10 189.26 164.68 189.23 163.79 190.09 C 162.90 190.94 162.87 192.36 163.73 193.25 Z M 164.40 193.96 L 165.14 194.79 C 165.96 195.72 167.38 195.80 168.31 194.98 C 169.23 194.16 169.32 192.74 168.50 191.81 L 167.76 190.98 C 166.93 190.05 165.51 189.97 164.59 190.79 C 163.66 191.61 163.58 193.03 164.40 193.96 Z M 165.09 194.74 L 165.78 195.57 C 166.58 196.53 168.00 196.66 168.95 195.87 C 169.91 195.07 170.04 193.65 169.24 192.70 L 168.55 191.86 C 167.75 190.91 166.33 190.78 165.38 191.57 C 164.42 192.37 164.29 193.78 165.09 194.74 Z M 165.74 195.53 L 166.37 196.32 C 167.13 197.29 168.55 197.46 169.53 196.69 C 170.50 195.92 170.67 194.51 169.90 193.53 L 169.28 192.74 C 168.51 191.77 167.10 191.60 166.12 192.37 C 165.14 193.14 164.98 194.55 165.74 195.53 Z M 166.34 196.28 L 166.94 197.09 C 167.69 198.08 169.10 198.28 170.10 197.53 C 171.09 196.78 171.29 195.37 170.54 194.38 L 169.93 193.57 C 169.18 192.58 167.77 192.38 166.78 193.13 C 165.79 193.87 165.59 195.28 166.34 196.28 Z M 166.92 197.05 L 167.51 197.87 C 168.24 198.88 169.65 199.11 170.65 198.38 C 171.66 197.65 171.89 196.25 171.16 195.24 L 170.57 194.42 C 169.84 193.41 168.43 193.18 167.43 193.91 C 166.42 194.64 166.19 196.04 166.92 197.05 Z M 167.49 197.84 L 168.07 198.67 C 168.78 199.69 170.18 199.94 171.20 199.23 C 172.22 198.53 172.47 197.13 171.76 196.11 L 171.18 195.27 C 170.48 194.26 169.07 194.00 168.05 194.71 C 167.04 195.42 166.78 196.82 167.49 197.84 Z M 168.05 198.64 L 168.60 199.47 C 169.29 200.50 170.69 200.78 171.72 200.09 C 172.75 199.39 173.03 198.00 172.34 196.97 L 171.78 196.14 C 171.09 195.11 169.70 194.83 168.66 195.52 C 167.63 196.21 167.36 197.61 168.05 198.64 Z M 168.58 199.44 L 169.12 200.26 C 169.79 201.30 171.18 201.60 172.22 200.93 C 173.26 200.25 173.56 198.86 172.89 197.82 L 172.36 197.00 C 171.68 195.96 170.29 195.66 169.25 196.33 C 168.21 197.01 167.91 198.40 168.58 199.44 Z M 169.10 200.23 L 169.66 201.12 C 170.31 202.17 171.69 202.49 172.75 201.83 C 173.80 201.18 174.12 199.80 173.46 198.75 L 172.90 197.85 C 172.25 196.80 170.87 196.48 169.82 197.14 C 168.77 197.79 168.45 199.18 169.10 200.23 Z M 169.65 201.08 L 170.21 202.02 C 170.85 203.08 172.22 203.42 173.27 202.79 C 174.33 202.15 174.67 200.78 174.04 199.73 L 173.47 198.78 C 172.84 197.73 171.47 197.39 170.41 198.02 C 169.35 198.65 169.01 200.02 169.65 201.08 Z M 170.21 201.98 L 170.73 202.89 C 171.34 203.95 172.70 204.31 173.76 203.70 C 174.82 203.09 175.18 201.73 174.57 200.67 L 174.04 199.77 C 173.43 198.71 172.08 198.34 171.02 198.96 C 169.96 199.57 169.59 200.92 170.21 201.98 Z M 170.73 202.85 L 171.21 203.72 C 171.80 204.78 173.14 205.16 174.20 204.57 C 175.26 203.98 175.65 202.64 175.06 201.58 L 174.57 200.71 C 173.98 199.65 172.64 199.27 171.58 199.86 C 170.52 200.45 170.14 201.79 170.73 202.85 Z M 171.21 203.69 L 171.65 204.51 C 172.22 205.57 173.55 205.97 174.61 205.40 C 175.67 204.83 176.07 203.51 175.50 202.44 L 175.06 201.62 C 174.49 200.55 173.16 200.16 172.10 200.73 C 171.03 201.30 170.64 202.62 171.21 203.69 Z M 171.65 204.48 L 172.06 205.26 C 172.61 206.32 173.92 206.73 174.98 206.18 C 176.05 205.63 176.46 204.32 175.91 203.25 L 175.50 202.48 C 174.95 201.41 173.64 201.00 172.58 201.55 C 171.51 202.10 171.10 203.42 171.65 204.48 Z M 172.07 205.22 L 172.55 206.17 C 173.08 207.23 174.36 207.66 175.42 207.13 C 176.48 206.60 176.91 205.31 176.38 204.25 L 175.90 203.29 C 175.37 202.24 174.08 201.81 173.02 202.34 C 171.96 202.87 171.53 204.16 172.07 205.22 Z M 172.57 206.12 L 173.01 207.05 C 173.51 208.10 174.77 208.54 175.82 208.04 C 176.86 207.53 177.30 206.28 176.80 205.23 L 176.36 204.30 C 175.85 203.26 174.60 202.81 173.55 203.32 C 172.51 203.82 172.06 205.07 172.57 206.12 Z M 173.03 206.99 L 173.43 207.87 C 173.91 208.91 175.13 209.36 176.16 208.89 C 177.20 208.42 177.65 207.20 177.18 206.16 L 176.78 205.28 C 176.31 204.25 175.09 203.79 174.05 204.27 C 173.02 204.74 172.56 205.96 173.03 206.99 Z M 173.46 207.82 L 173.83 208.67 C 174.27 209.69 175.46 210.16 176.48 209.72 C 177.50 209.27 177.97 208.08 177.52 207.06 L 177.15 206.21 C 176.71 205.19 175.52 204.72 174.50 205.17 C 173.48 205.61 173.01 206.80 173.46 207.82 Z M 173.86 208.63 L 174.24 209.55 C 174.66 210.56 175.82 211.03 176.82 210.61 C 177.83 210.19 178.30 209.04 177.88 208.03 L 177.50 207.11 C 177.08 206.10 175.92 205.63 174.92 206.05 C 173.91 206.47 173.44 207.62 173.86 208.63 Z M 174.27 209.51 L 174.65 210.46 C 175.04 211.44 176.17 211.93 177.16 211.53 C 178.14 211.14 178.63 210.02 178.23 209.03 L 177.86 208.08 C 177.46 207.09 176.34 206.61 175.35 207.00 C 174.36 207.40 173.88 208.52 174.27 209.51 Z M 174.68 210.40 L 175.03 211.34 C 175.39 212.31 176.48 212.80 177.45 212.44 C 178.43 212.07 178.92 210.99 178.56 210.01 L 178.21 209.08 C 177.84 208.11 176.75 207.61 175.78 207.98 C 174.81 208.34 174.31 209.43 174.68 210.40 Z M 175.05 211.28 L 175.37 212.19 C 175.70 213.15 176.75 213.66 177.71 213.33 C 178.67 213.00 179.18 211.95 178.85 210.99 L 178.53 210.07 C 178.20 209.11 177.15 208.60 176.19 208.94 C 175.23 209.27 174.72 210.32 175.05 211.28 Z M 175.40 212.12 L 175.71 213.11 C 176.00 214.06 177.01 214.58 177.95 214.29 C 178.89 214.00 179.42 212.99 179.13 212.05 L 178.82 211.06 C 178.52 210.11 177.52 209.59 176.58 209.88 C 175.63 210.17 175.11 211.18 175.40 212.12 Z M 175.75 213.05 L 176.02 214.01 C 176.28 214.93 177.24 215.46 178.16 215.20 C 179.08 214.94 179.61 213.99 179.35 213.06 L 179.09 212.11 C 178.83 211.19 177.87 210.65 176.95 210.91 C 176.03 211.17 175.49 212.13 175.75 213.05 Z M 176.07 213.97 L 176.31 214.90 C 176.55 215.79 177.47 216.32 178.37 216.09 C 179.26 215.85 179.79 214.93 179.55 214.04 L 179.31 213.10 C 179.07 212.21 178.15 211.68 177.26 211.92 C 176.36 212.15 175.83 213.07 176.07 213.97 Z"
      fill="black"
      fill-rule="nonzero" /></svg>