<svg xmlns="http://www.w3.org/2000/svg" version="1.0" width="937.000000pt" height="937.000000pt" viewBox="0 0 937.000000 937.000000" preserveAspectRatio="xMidYMid meet">
  <defs/>
  <path fill="#000000" d="M479,520 C475.6,523.4 476.5,526.4 483,533.6 C490.7,542.1 494.6,549.1 504,571.5 C510.9,587.8 514.5,597.2 523.1,621.5 C524.7,625.9 528.7,637.1 532,646.4 C535.3,655.7 538,663.9 538,664.7 C538,667.1 543.8,677.7 545.5,678.4 C546.4,678.7 547.9,679 548.9,679 C551,679 555,675 555,672.9 C555,672.1 550.3,658.2 544.6,642 C538.9,625.8 532.6,607.7 530.6,601.9 C525.5,586.7 512.8,556.4 506.2,543.5 C501.8,534.7 499.2,531 493.4,525.2 C485.6,517.4 482.7,516.3 479,520 Z"/>
  <path fill="#000000" d="M433.1,541.6 C431.9,543.1 431,545.2 431,546.3 C431,552.3 418.4,599.4 407.6,633.8 C405.6,639.9 403.5,647.9 402.9,651.5 L401.7,658 L403.5,660 C405.6,662.4 409.2,662.6 411,660.5 C412.6,658.6 430.8,604.3 436.5,584.4 C441.3,567.8 445,551.1 445,546.1 C445,539.5 437.1,536.5 433.1,541.6 Z"/>
</svg>

