<svg xmlns="http://www.w3.org/2000/svg" version="1.0" width="937.000000pt" height="937.000000pt" viewBox="0 0 937.000000 937.000000" preserveAspectRatio="xMidYMid meet">
  <defs/>
  <path fill="#000000" d="M469,373.7 C467.6,373.9 456.6,376.1 444.5,378.5 C429.3,381.6 419.2,383.1 411.9,383.4 C400.2,383.8 396.1,385.2 394.2,389.5 C392.4,393.5 392.7,395.7 395.9,399.2 L398.8,402.5 L407.2,402.3 C417.7,402.2 428.1,400.2 453,393.9 L472.5,388.9 L480,389.5 C494.8,390.6 494.1,390.7 496.2,387.9 L498.1,385.4 L497.1,382.7 C494.5,376 481.3,371.7 469,373.7 Z"/>
  <path fill="#000000" d="M462.8,407.9 C459.2,410.8 455.6,419 451.7,433.5 C449.7,440.6 446.2,452.3 443.8,459.5 L439.5,472.4 L430,476.3 C410,484.4 387.1,494.4 377.7,499.1 L367.9,504 L365.5,498.7 C362.9,493.2 362.3,488.5 364.1,487.4 C366.3,486 367.8,480.8 366.8,477.8 C364.8,472 358.1,471.2 353.3,476.2 C344.2,485.9 344.9,494.2 356.6,514.2 C367.7,533.1 388.4,557.6 399.8,565.4 C405.3,569.2 407.1,571 407.6,573.4 C408.4,577.2 409.7,578.9 412.7,580.1 C415.6,581.2 418.8,580 423.4,576 C427.9,572 428.3,568.1 424.4,565.3 L421.9,563.4 L424.6,556 C426.1,551.9 430.1,541.6 433.6,533.2 C437.1,524.8 440,517.5 440,517 C440,514.5 442.3,515.4 446,519.4 C454.8,528.9 504.2,565.8 511.4,568.3 C512.7,568.7 511.3,572.3 508,576.9 C504.9,581.1 496,587 492.6,587 C488.7,587 484.3,580.5 480.5,568.8 C478.4,562.6 476.3,556.9 475.7,556.2 C474.5,554.7 469.8,554.6 468.2,556.2 C466.3,558.1 466.8,562.1 470.3,572.8 C474.3,584.7 478.6,591.7 484.2,595.6 L488.3,598.5 L494.4,598.4 C504.5,598.4 515.8,591.7 523.1,581.6 C524.7,579.5 527.4,577 529.2,576.1 L532.5,574.5 L532.6,569.5 C532.6,566.1 533.6,562.4 535.7,557.8 C543.3,541.6 557.7,498.5 563.6,474.5 C568.6,453.8 565.5,443 553.6,439.5 C541,435.7 522.2,439.7 482.7,454.7 C471.7,458.8 462.6,461.9 462.3,461.6 C462,461.4 462.9,457.6 464.4,453.3 C468.1,441.9 474,417.6 474,413.6 C474,411.1 473.3,409.6 471.4,408.1 C468.1,405.5 466,405.5 462.8,407.9 Z M548.4,455.8 C548.7,456.7 548.6,460.1 548,463.3 C546.9,470.5 535.5,510.2 529.6,527.5 C525,541.2 518.1,559 517.4,559 C515.4,559 505.8,551.1 491.5,537.7 C476.9,523.9 465.8,514 451.1,501.7 L447.7,498.9 L450.4,492 L453.1,485.2 L464.8,480.2 C504.6,463.1 531.3,454.2 542.7,454 C546.8,454 548,454.4 548.4,455.8 Z M426.5,507.5 C424.1,514.1 419.3,528.2 415.8,538.7 C412.3,549.3 409,558 408.4,558 C406.5,558 393.1,543.1 386.2,533.5 L380,524.7 L382.5,522.5 C383.8,521.2 385.2,519 385.6,517.5 C386.4,514.5 387.4,513.9 410.5,503.8 C427.2,496.4 430.3,495.1 430.7,495.4 C430.8,495.5 428.9,500.9 426.5,507.5 Z"/>
</svg>

