<svg xmlns="http://www.w3.org/2000/svg" version="1.0" width="937.000000pt" height="937.000000pt" viewBox="0 0 937.000000 937.000000" preserveAspectRatio="xMidYMid meet">
  <defs/>
  <path fill="#000000" d="M603.4,347 C597.9,349.1 595.6,358.2 595.6,377 L595.6,391.5 L599.3,414.5 C608,469.1 612.2,508.2 614.5,554.4 C616.2,589 616.4,631.9 614.9,637.3 L613.9,641.2 L610.2,640.7 C608.2,640.4 605.1,639.8 603.4,639.5 C599.7,638.7 597,640.9 597,644.6 C597,648.6 609,655.8 613.3,654.5 C614,654.3 615.7,653.9 617.2,653.6 C621.8,652.6 626.8,647.3 628.6,641.7 C632.4,629.7 631,551.4 626.1,501 C623.5,475.2 618.8,440 613.9,410.5 C609.3,383 608,365.7 610,357.5 C612,349.3 609.2,344.9 603.4,347 Z"/>
  <path fill="#000000" d="M420.3,383 C413.8,385.3 409.2,388.5 396.2,399.4 C382.3,411 365.5,423.6 346,437 C319.8,455 307,465.8 307,470.2 C307,473.1 309.8,476 312.6,476 C313.7,476 319.4,472.3 325.2,467.7 C331.1,463.2 340.6,456.6 346.5,453 C373.3,436.6 388.5,426.1 406.5,411.5 C419.4,401 422,399.3 427,397.5 L431.1,396 L433.5,397.6 C435.4,398.8 440.1,399.3 455.7,399.7 C469.5,400.1 476.3,400.7 478.2,401.6 C481.3,403.2 486,412.4 488.4,421.5 C490.1,428.4 492,446.2 492,456.3 L492,463.2 L489.4,460 C485.1,454.9 480.9,453.5 463.8,451.5 C460.6,451.1 457.7,449.8 454.5,447.3 L449.8,443.8 L446.4,444.3 L443,444.9 L443,436.6 C443,432 443.5,425.9 444,422.9 L445,417.5 L443.2,415 C440.9,411.9 437,411.3 434.3,413.7 C428.3,418.9 426.7,438.9 429.4,475.5 C430.3,487.6 431.7,507.2 432.5,519 C434.4,547.4 435.4,553.4 438.7,556 C443.3,559.6 447.7,557.9 448.8,552.1 L449.5,548.8 L458.5,548.5 C463.8,548.4 469.4,547.6 472.2,546.5 C474.8,545.6 477.5,545 478.1,545.2 C479.3,545.6 460.7,569.5 445.7,586.8 C436,598 432.5,601 424.1,605.5 L418.5,608.5 L418.2,611.3 C417.7,615.7 420.6,618.3 425.2,617.7 C438.4,615.9 450.3,605.3 478.8,569.7 C492.4,552.7 497.3,544.5 497.4,538.5 C497.6,530.2 491.3,526.9 480.5,529.5 C471.8,531.6 471.6,531.4 476.6,526.8 L481.1,522.7 L483.4,524 C488.8,526.8 499.1,522 502.7,515 C506.1,508.2 507,499.8 507,473.2 C507,444.2 505.6,427.5 502.4,416.1 C497.7,400.1 492.5,391.9 484.3,387.8 L479.5,385.5 L457,385.2 C439.4,384.9 434.2,384.5 432.9,383.4 C430.4,381.1 425.8,381 420.3,383 Z M460.6,465.2 C474.6,467.3 478,468.1 478,469.4 C478,471.8 471.9,478.4 463.7,485 C458,489.6 455.3,492.4 454.7,494.6 C452.7,501.6 459.4,507.1 470.7,507.8 C474.2,508.1 477,508.6 477,509 C477,510.3 450.2,532 448.7,532 C448.4,532 447.9,527.8 447.6,522.7 C445.4,488.5 443.9,467.7 443.4,462.7 L442.8,456.8 L448.3,460.5 C452.4,463.2 455.5,464.4 460.6,465.2 Z M493,487.9 L493,499.3 L490.9,497.4 C489.3,496 486.9,495.4 480.9,495.1 C476.6,494.9 473,494.6 473,494.3 C473,494 476.4,490.6 480.5,486.8 C484.7,482.9 488.8,478.4 489.7,476.7 C492.1,472 493,475 493,487.9 Z"/>
  <path fill="#000000" d="M378,434.8 C377.2,435.1 375.7,435.9 374.8,436.8 C372.5,438.8 372.5,441.9 375,471.6 C377.1,497.2 378.1,514.3 380.5,561.5 C381.9,589.2 383.2,604.8 384.7,611 C387.2,621.7 397.3,621.7 400.9,611.1 C402.5,606.3 402.3,605.2 399.5,602.6 L397.1,600.3 L396,568.9 C393.4,491.5 389.1,442.1 384.5,437 C382.6,434.9 380.2,434.1 378,434.8 Z"/>
  <path fill="#000000" d="M537.5,447.2 C534.2,449.7 531,456.4 531.7,459.1 C532,460.2 533.3,461.8 534.5,462.8 L536.7,464.6 L537.2,487.5 C537.8,511.7 538.4,515.4 542.9,519.4 C544.1,520.5 547,521.5 549.9,521.8 C555.9,522.3 558.7,520.7 563.1,513.9 C566.6,508.4 566.5,504.5 562.8,503.1 C559.4,501.9 557.4,502.9 554.3,507.3 L551.5,511.5 L551,481.2 L550.5,450.8 L547.2,447.9 C543.3,444.4 541.2,444.3 537.5,447.2 Z"/>
  <path fill="#000000" d="M504.5,556.2 C501.7,557.8 501,559 501,562.7 L501,565.8 L507.8,572.9 C511.5,576.9 519.4,584 525.5,588.8 C531.5,593.6 538.9,600.5 541.9,604.2 C547.5,611.3 550.5,612.6 554.3,609.7 C557.5,607.3 557.3,603.8 553.5,597.5 C548.7,589.5 544.9,585.7 530,574 C523.1,568.5 516.4,562.5 515,560.6 C512.8,557.5 509.2,554.9 507.2,555 C506.8,555 505.6,555.6 504.5,556.2 Z"/>
</svg>

