<svg xmlns="http://www.w3.org/2000/svg" version="1.0" width="937.000000pt" height="937.000000pt" viewBox="0 0 937.000000 937.000000" preserveAspectRatio="xMidYMid meet">
  <defs/>
  <path fill="#000000" d="M469.6,287.5 C463.7,293.4 469.8,300.8 488.3,310.1 C500.3,316.2 502,317.8 502,323 C502,328.9 499.2,333.5 490.6,342 C486.4,346.1 483,350.2 483,351.1 C483,353.3 486.2,356 488.8,356 C491.8,356 507.9,339.7 511,333.5 C514.5,326.3 514.8,318.4 512,312.5 C509.4,307.1 504.5,303.2 494.3,298.5 C490.3,296.7 484.9,293.1 482.2,290.6 C476.9,285.7 472.6,284.6 469.6,287.5 Z"/>
  <path fill="#000000" d="M424.4,347.2 C421.7,350.1 414.8,358.5 409,365.9 C392.1,387.6 379.3,401.7 349.4,432 C334,447.7 320.5,462 319.6,463.8 L317.9,467.2 L319.5,469.6 C322.5,474.3 324.8,473 340.6,457.2 C360.8,437.2 376.9,422.6 377.8,423.4 C378.2,423.8 378.6,440 378.8,459.3 L379.1,494.5 L375.1,529 C372.9,548 370.6,569.3 370,576.5 C368.8,589.5 369.4,605 371.1,608.2 C372.5,610.8 375.8,611.4 378.5,609.6 L381,608 L381,597.7 C381,585.8 382.3,574.7 388.2,533.5 L392.5,503.5 L392.5,465.5 L392.5,427.5 L390.6,421.5 C389.6,418.2 388.3,414.9 387.7,414.2 C386.6,412.8 387.1,412.2 399.6,399 C410.5,387.4 439,352.8 439.6,350.3 C440.6,346.6 437.2,342.6 432.8,342.2 L429.4,341.9 L424.4,347.2 Z"/>
  <path fill="#000000" d="M493.1,357.5 C487.4,358.4 477.1,360.3 470.1,361.8 L457.5,364.5 L455.6,362.7 C453.4,360.4 450.2,360.9 442.1,364.6 C434.5,368 432,370.6 432,374.7 C432,383.2 438.3,383.9 462.2,378 C477,374.3 508.4,369 515.3,369 L518,369 L516.5,372.7 C515.7,374.8 512.8,378.5 510.2,381 C502.3,388.4 479.7,405.1 478.7,404.1 C478.3,403.7 477.6,398.5 477.3,392.6 C477,386.8 476.2,381.3 475.6,380.5 C473.7,378 469.6,377.7 466.9,379.9 L464.5,381.8 L464.5,392.2 C464.6,399.8 465.1,403.9 466.4,407.4 C467.4,410 468.1,412.3 467.9,412.4 C466.2,413.8 444,426 434,431 C427.1,434.4 420.4,438.2 419.1,439.4 C415.8,442.4 414.7,445.6 416.2,448.3 C419,453.7 422.2,454 444,451 C452,449.9 475.4,447.4 496,445.5 C516.6,443.6 534.4,441.8 535.5,441.5 C536.6,441.3 545.4,440.6 555,440 L572.5,439 L574.3,436.9 C576.5,434.2 576.5,433.5 573.8,430.8 L571.7,428.7 L538.6,429.3 C518.3,429.7 497,430.7 483.5,432 C471.4,433.1 460.2,434 458.5,434 L455.5,434 L465,428.6 L474.5,423.1 L476.6,425.1 C480.7,429 485.6,426.1 484.7,420.3 L484.1,417 L490.1,412.9 C501.2,405.4 515.5,394.9 520.6,390.5 C526.5,385.4 531,377.4 531,371.9 L531,368.3 L536.7,367.6 C539.8,367.2 543,366.4 543.7,365.8 C545.5,364.4 545.4,359.5 543.5,358 C541.1,356 505.9,355.7 493.1,357.5 Z"/>
  <path fill="#000000" d="M468.5,462.1 C457.9,463.2 450.2,465.7 448.3,468.7 C445,473.7 448.7,489.7 456.2,503.1 C461,511.5 468.5,520 471.3,520 C472.8,520 471.8,521 468,523.3 L462.5,526.5 L462.2,529.6 C462,532.1 462.5,533.3 464.6,534.9 C467.7,537.3 469.3,537.4 477.8,535.6 C481.2,534.9 483.9,534.6 483.8,535 C483.4,536 470.8,547.2 460,556.2 C442.6,570.8 414.5,589.8 395.2,600 C387.9,603.9 386,606.8 388.5,610.6 C389.6,612.3 391,613 393,613 C399,613 427.4,597.1 448.7,581.8 C468.6,567.5 497.9,541.4 504,532.5 C506.3,529.1 507.7,528.1 510.7,527.7 C517.6,526.5 528.4,520.5 534.7,514.3 C542.9,506.4 546.2,499.6 546.8,490 L547.2,482.5 L543.9,476.1 C539.9,468.5 533.8,463.8 526,462.1 C520.1,460.8 480.5,460.8 468.5,462.1 Z M526.7,477.6 C535.7,484.2 534.5,495.5 523.5,507.8 C517.8,514.1 510.2,518 502,518.7 L495.9,519.3 L498.5,514.4 C503.6,505 500.2,497.1 489.6,493.1 C482.7,490.6 466,486.8 464.5,487.4 C463.7,487.7 462.7,486.7 462.1,484.8 C460.3,479.6 460.7,478.3 464.3,477.6 C466,477.2 469.3,476.5 471.5,476 C473.7,475.6 486.4,475.2 499.7,475.3 L523.9,475.5 L526.7,477.6 Z M479.7,503 C483.6,503.6 487.6,504.7 488.5,505.4 L490.3,506.7 L489,509.1 C487.6,511.6 485.9,513.1 479.8,516.8 L476,519.1 L476.6,516.3 C477,514.1 476.2,512.4 473.1,508.1 C468.6,502.3 468.1,500.6 470.8,501.4 C471.7,501.6 475.7,502.4 479.7,503 Z"/>
  <path fill="#000000" d="M591,531.5 C587.4,532.7 578.8,536.3 571.8,539.4 C547.6,550 528.9,555.1 507.4,557 C492.2,558.4 490.1,558.8 488.8,561 L487.6,562.8 L485.2,560.9 C482.2,558.6 480.2,558.5 477.1,560.6 L474.7,562.3 L475.3,569.1 C476.1,578.2 479.3,584.1 487.8,592.2 C507.1,610.4 541.6,616.9 544.4,602.9 C545.9,595.4 540,588.8 521.6,577.5 C510.8,570.8 510.7,570.9 523.5,569 C539.6,566.6 557.6,560.5 586.6,547.6 C591,545.6 596.7,543.7 599.2,543.4 L603.7,542.8 L604.3,561 C605.5,592.7 605.2,605.5 603,616 C600.5,627.9 600.5,627.6 603.5,629.6 L606,631.2 L608.4,629.7 L610.8,628.1 L613.4,617.3 C617.5,599.7 618.1,594.7 618.7,569.4 C619.4,541.2 618.7,536.7 613.4,532 L609.9,529 L603.7,529.1 C599.9,529.1 595,530.1 591,531.5 Z M494.3,573.9 C498.4,575.5 522,589.7 527.6,593.9 C533.5,598.3 534.2,600 530.3,600 C522.7,600 508.7,593.9 499.8,586.6 C494.2,582.1 488,573.9 488,571.2 L488,569.7 L489.8,571.3 C490.7,572.1 492.8,573.3 494.3,573.9 Z"/>
</svg>

