<svg xmlns="http://www.w3.org/2000/svg" width="300" height="300" viewBox="0 0 300 300">
<path d="M 131.06 114.29 L 130.55 115.10 C 129.92 116.08 130.21 117.39 131.19 118.01 C 132.17 118.64 133.48 118.35 134.10 117.37 L 134.62 116.56 C 135.25 115.58 134.96 114.27 133.98 113.65 C 132.99 113.02 131.69 113.31 131.06 114.29 Z M 130.45 115.03 L 129.93 115.85 C 129.26 116.89 129.56 118.26 130.60 118.93 C 131.63 119.59 133.01 119.29 133.67 118.26 L 134.20 117.44 C 134.86 116.40 134.56 115.02 133.53 114.36 C 132.49 113.70 131.12 114.00 130.45 115.03 Z M 129.84 115.78 L 129.29 116.62 C 128.58 117.70 128.89 119.15 129.97 119.86 C 131.06 120.56 132.51 120.26 133.22 119.17 L 133.76 118.33 C 134.47 117.25 134.16 115.80 133.08 115.09 C 131.99 114.38 130.54 114.69 129.84 115.78 Z M 129.20 116.53 L 128.62 117.41 C 127.87 118.54 128.18 120.06 129.31 120.82 C 130.45 121.57 131.97 121.26 132.72 120.13 L 133.30 119.25 C 134.05 118.12 133.74 116.60 132.61 115.85 C 131.48 115.09 129.95 115.40 129.20 116.53 Z M 128.58 117.35 L 128.04 118.15 C 127.26 119.30 127.56 120.87 128.72 121.65 C 129.87 122.43 131.44 122.13 132.23 120.98 L 132.76 120.18 C 133.55 119.03 133.24 117.46 132.09 116.68 C 130.93 115.89 129.36 116.20 128.58 117.35 Z M 128.05 118.13 L 127.50 118.93 C 126.71 120.08 127.01 121.66 128.16 122.45 C 129.31 123.24 130.88 122.94 131.67 121.79 L 132.22 120.99 C 133.01 119.84 132.72 118.27 131.56 117.48 C 130.41 116.69 128.84 116.98 128.05 118.13 Z M 127.51 118.93 L 126.94 119.76 C 126.16 120.90 126.45 122.47 127.59 123.26 C 128.74 124.05 130.31 123.76 131.10 122.61 L 131.67 121.79 C 132.45 120.64 132.16 119.07 131.02 118.28 C 129.87 117.49 128.30 117.78 127.51 118.93 Z M 126.95 119.77 L 126.37 120.61 C 125.58 121.76 125.88 123.32 127.02 124.11 C 128.17 124.89 129.73 124.60 130.52 123.45 L 131.10 122.60 C 131.88 121.46 131.58 119.89 130.44 119.11 C 129.29 118.33 127.73 118.62 126.95 119.77 Z M 126.37 120.63 L 125.78 121.50 C 125.01 122.65 125.31 124.20 126.45 124.98 C 127.60 125.75 129.16 125.45 129.93 124.30 L 130.52 123.43 C 131.29 122.29 130.99 120.73 129.84 119.96 C 128.70 119.18 127.14 119.49 126.37 120.63 Z M 125.78 121.53 L 125.19 122.41 C 124.43 123.56 124.75 125.10 125.89 125.86 C 127.04 126.62 128.59 126.31 129.35 125.16 L 129.93 124.28 C 130.69 123.13 130.38 121.59 129.23 120.83 C 128.08 120.07 126.54 120.38 125.78 121.53 Z M 125.20 122.44 L 124.62 123.32 C 123.88 124.47 124.20 126.00 125.35 126.74 C 126.49 127.49 128.02 127.16 128.77 126.02 L 129.34 125.13 C 130.08 123.99 129.76 122.46 128.62 121.71 C 127.47 120.97 125.94 121.30 125.20 122.44 Z M 124.63 123.35 L 124.08 124.22 C 123.35 125.35 123.68 126.87 124.82 127.60 C 125.96 128.33 127.47 128.00 128.20 126.86 L 128.76 125.99 C 129.49 124.85 129.15 123.34 128.02 122.61 C 126.88 121.88 125.36 122.21 124.63 123.35 Z M 124.09 124.24 L 123.56 125.07 C 122.85 126.20 123.19 127.70 124.32 128.42 C 125.45 129.14 126.95 128.80 127.67 127.66 L 128.19 126.83 C 128.91 125.70 128.57 124.20 127.44 123.48 C 126.30 122.77 124.80 123.10 124.09 124.24 Z M 123.57 125.09 L 123.09 125.86 C 122.39 126.99 122.73 128.48 123.86 129.18 C 124.99 129.88 126.48 129.54 127.18 128.41 L 127.66 127.64 C 128.36 126.51 128.02 125.02 126.89 124.32 C 125.76 123.62 124.28 123.96 123.57 125.09 Z M 123.11 125.89 L 122.52 126.84 C 121.84 127.96 122.19 129.43 123.31 130.11 C 124.43 130.80 125.90 130.45 126.59 129.33 L 127.17 128.38 C 127.86 127.26 127.50 125.79 126.38 125.10 C 125.26 124.42 123.79 124.77 123.11 125.89 Z M 122.54 126.87 L 122.02 127.74 C 121.35 128.85 121.71 130.30 122.82 130.97 C 123.93 131.63 125.38 131.28 126.05 130.16 L 126.57 129.29 C 127.24 128.18 126.88 126.74 125.77 126.07 C 124.66 125.40 123.21 125.76 122.54 126.87 Z M 122.04 127.77 L 121.57 128.56 C 120.92 129.66 121.28 131.08 122.38 131.74 C 123.48 132.39 124.90 132.02 125.56 130.92 L 126.02 130.13 C 126.68 129.03 126.31 127.61 125.21 126.96 C 124.11 126.31 122.69 126.67 122.04 127.77 Z M 121.60 128.59 L 121.13 129.39 C 120.49 130.47 120.85 131.87 121.93 132.51 C 123.02 133.15 124.42 132.79 125.06 131.70 L 125.53 130.90 C 126.17 129.82 125.81 128.42 124.72 127.78 C 123.64 127.14 122.24 127.50 121.60 128.59 Z M 121.15 129.41 L 120.65 130.26 C 120.02 131.34 120.38 132.72 121.45 133.35 C 122.52 133.97 123.90 133.62 124.53 132.54 L 125.03 131.69 C 125.66 130.61 125.30 129.23 124.23 128.60 C 123.16 127.97 121.78 128.33 121.15 129.41 Z M 120.67 130.29 L 120.16 131.15 C 119.55 132.21 119.91 133.57 120.97 134.19 C 122.03 134.81 123.39 134.45 124.01 133.39 L 124.51 132.52 C 125.13 131.46 124.77 130.10 123.71 129.48 C 122.64 128.86 121.28 129.22 120.67 130.29 Z M 120.18 131.18 L 119.72 131.98 C 119.12 133.03 119.48 134.37 120.53 134.98 C 121.58 135.58 122.93 135.22 123.53 134.16 L 123.99 133.36 C 124.59 132.31 124.23 130.97 123.18 130.36 C 122.13 129.76 120.78 130.12 120.18 131.18 Z M 119.74 132.00 L 119.34 132.69 C 118.75 133.73 119.11 135.06 120.15 135.65 C 121.20 136.25 122.52 135.88 123.11 134.84 L 123.51 134.15 C 124.11 133.10 123.74 131.78 122.70 131.18 C 121.66 130.59 120.33 130.95 119.74 132.00 Z M 119.37 132.69 L 118.91 133.49 C 118.32 134.52 118.67 135.83 119.70 136.42 C 120.72 137.02 122.04 136.66 122.63 135.64 L 123.09 134.84 C 123.68 133.81 123.33 132.50 122.30 131.91 C 121.27 131.31 119.96 131.67 119.37 132.69 Z M 118.94 133.48 L 118.37 134.44 C 117.78 135.45 118.11 136.76 119.12 137.35 C 120.14 137.95 121.44 137.61 122.03 136.60 L 122.60 135.64 C 123.20 134.63 122.86 133.33 121.85 132.73 C 120.84 132.13 119.53 132.47 118.94 133.48 Z M 118.40 134.44 L 117.78 135.46 C 117.18 136.46 117.50 137.75 118.50 138.35 C 119.49 138.95 120.79 138.63 121.39 137.64 L 122.01 136.61 C 122.61 135.61 122.29 134.32 121.29 133.72 C 120.29 133.12 119.00 133.44 118.40 134.44 Z M 117.80 135.46 L 117.34 136.22 C 116.74 137.20 117.05 138.49 118.03 139.09 C 119.01 139.69 120.30 139.38 120.90 138.40 L 121.37 137.64 C 121.97 136.66 121.66 135.37 120.67 134.77 C 119.69 134.17 118.40 134.48 117.80 135.46 Z M 117.35 136.22 L 116.85 137.04 C 116.25 138.02 116.55 139.30 117.52 139.90 C 118.50 140.50 119.78 140.20 120.38 139.22 L 120.89 138.40 C 121.49 137.42 121.18 136.14 120.21 135.54 C 119.23 134.94 117.96 135.24 117.35 136.22 Z M 116.86 137.04 L 116.32 137.91 C 115.72 138.88 116.02 140.15 116.99 140.75 C 117.96 141.35 119.23 141.05 119.83 140.09 L 120.37 139.22 C 120.97 138.25 120.67 136.98 119.70 136.38 C 118.73 135.78 117.46 136.08 116.86 137.04 Z M 116.34 137.91 L 115.78 138.81 C 115.18 139.77 115.47 141.03 116.43 141.63 C 117.39 142.23 118.66 141.93 119.26 140.97 L 119.81 140.08 C 120.41 139.12 120.12 137.86 119.16 137.26 C 118.20 136.66 116.94 136.95 116.34 137.91 Z M 115.79 138.81 L 115.23 139.71 C 114.63 140.66 114.92 141.92 115.87 142.51 C 116.83 143.11 118.08 142.82 118.68 141.87 L 119.24 140.97 C 119.84 140.02 119.55 138.76 118.60 138.16 C 117.65 137.57 116.39 137.86 115.79 138.81 Z M 115.24 139.71 L 114.69 140.60 C 114.09 141.54 114.37 142.79 115.32 143.39 C 116.27 143.98 117.51 143.70 118.11 142.75 L 118.67 141.87 C 119.26 140.92 118.98 139.67 118.03 139.08 C 117.09 138.48 115.84 138.77 115.24 139.71 Z M 114.70 140.60 L 114.16 141.46 C 113.56 142.40 113.84 143.64 114.78 144.23 C 115.72 144.82 116.96 144.54 117.56 143.61 L 118.10 142.75 C 118.69 141.81 118.41 140.57 117.47 139.98 C 116.53 139.38 115.29 139.66 114.70 140.60 Z M 114.18 141.47 L 113.54 142.48 C 112.95 143.41 113.22 144.63 114.15 145.22 C 115.07 145.81 116.30 145.53 116.89 144.61 L 117.53 143.60 C 118.12 142.67 117.84 141.44 116.92 140.86 C 115.99 140.27 114.77 140.54 114.18 141.47 Z M 113.57 142.50 L 112.98 143.44 C 112.40 144.34 112.67 145.55 113.57 146.12 C 114.48 146.70 115.68 146.43 116.25 145.53 L 116.85 144.59 C 117.43 143.69 117.16 142.48 116.26 141.91 C 115.35 141.33 114.15 141.60 113.57 142.50 Z M 113.01 143.46 L 112.46 144.32 C 111.89 145.21 112.15 146.39 113.04 146.95 C 113.92 147.52 115.10 147.26 115.67 146.37 L 116.22 145.51 C 116.79 144.62 116.53 143.45 115.64 142.88 C 114.75 142.31 113.58 142.57 113.01 143.46 Z M 112.49 144.35 L 111.98 145.14 C 111.43 146.01 111.68 147.16 112.55 147.72 C 113.42 148.27 114.57 148.02 115.12 147.15 L 115.63 146.35 C 116.19 145.49 115.93 144.33 115.07 143.78 C 114.20 143.22 113.05 143.48 112.49 144.35 Z M 112.01 145.17 L 111.55 145.90 C 111.01 146.75 111.26 147.87 112.11 148.42 C 112.95 148.96 114.08 148.71 114.62 147.86 L 115.09 147.13 C 115.63 146.28 115.38 145.15 114.53 144.61 C 113.68 144.07 112.56 144.32 112.01 145.17 Z M 111.58 145.92 L 111.10 146.68 C 110.57 147.51 110.82 148.61 111.65 149.14 C 112.49 149.67 113.59 149.42 114.12 148.59 L 114.59 147.83 C 115.12 147.00 114.87 145.90 114.04 145.37 C 113.21 144.84 112.11 145.09 111.58 145.92 Z M 111.13 146.70 L 110.54 147.64 C 110.03 148.46 110.27 149.54 111.09 150.05 C 111.91 150.56 112.99 150.31 113.50 149.50 L 114.09 148.56 C 114.60 147.74 114.36 146.66 113.54 146.15 C 112.72 145.64 111.64 145.88 111.13 146.70 Z M 110.56 147.66 L 110.04 148.50 C 109.55 149.31 109.79 150.36 110.60 150.86 C 111.41 151.36 112.46 151.11 112.96 150.31 L 113.48 149.47 C 113.98 148.66 113.73 147.61 112.93 147.11 C 112.12 146.61 111.06 146.86 110.56 147.66 Z M 110.07 148.52 L 109.59 149.30 C 109.11 150.09 109.35 151.13 110.15 151.62 C 110.94 152.10 111.98 151.85 112.46 151.06 L 112.94 150.28 C 113.43 149.49 113.18 148.45 112.38 147.97 C 111.59 147.48 110.56 147.73 110.07 148.52 Z M 109.61 149.32 L 109.41 149.64 C 108.93 150.42 109.18 151.44 109.96 151.92 C 110.74 152.40 111.77 152.15 112.25 151.37 L 112.44 151.05 C 112.92 150.27 112.68 149.24 111.89 148.77 C 111.11 148.29 110.09 148.53 109.61 149.32 Z"
      fill="black"
      fill-rule="nonzero" /><path d="M 157.13 109.43 L 157.06 110.49 C 156.98 111.70 157.89 112.74 159.10 112.82 C 160.31 112.91 161.36 111.99 161.44 110.78 L 161.51 109.72 C 161.59 108.51 160.68 107.47 159.47 107.39 C 158.26 107.31 157.21 108.22 157.13 109.43 Z M 156.99 110.59 L 156.97 111.62 C 156.95 112.86 157.93 113.89 159.18 113.92 C 160.43 113.95 161.46 112.96 161.48 111.71 L 161.50 110.68 C 161.53 109.44 160.54 108.41 159.30 108.38 C 158.05 108.35 157.02 109.34 156.99 110.59 Z M 156.92 111.84 L 156.99 112.82 C 157.09 114.09 158.21 115.05 159.48 114.95 C 160.76 114.85 161.71 113.73 161.61 112.46 L 161.54 111.48 C 161.44 110.21 160.32 109.25 159.05 109.35 C 157.77 109.45 156.82 110.57 156.92 111.84 Z M 157.00 113.22 L 157.23 114.11 C 157.55 115.39 158.84 116.16 160.11 115.84 C 161.38 115.52 162.15 114.22 161.83 112.95 L 161.61 112.06 C 161.29 110.78 160.00 110.01 158.72 110.33 C 157.45 110.65 156.68 111.95 157.00 113.22 Z M 157.40 114.65 L 157.86 115.52 C 158.47 116.69 159.93 117.14 161.10 116.53 C 162.28 115.91 162.73 114.46 162.11 113.28 L 161.66 112.42 C 161.04 111.24 159.59 110.79 158.41 111.40 C 157.24 112.02 156.79 113.47 157.40 114.65 Z M 158.12 115.92 L 158.75 116.69 C 159.59 117.71 161.11 117.86 162.13 117.02 C 163.16 116.18 163.31 114.67 162.47 113.64 L 161.84 112.88 C 161.00 111.85 159.49 111.70 158.46 112.54 C 157.44 113.38 157.28 114.89 158.12 115.92 Z M 158.96 116.91 L 159.70 117.61 C 160.66 118.52 162.18 118.47 163.10 117.51 C 164.01 116.54 163.96 115.02 163.00 114.11 L 162.26 113.42 C 161.29 112.51 159.77 112.55 158.86 113.52 C 157.95 114.48 158.00 116.00 158.96 116.91 Z M 159.81 117.70 L 160.56 118.33 C 161.58 119.18 163.10 119.04 163.94 118.02 C 164.79 117.00 164.65 115.49 163.63 114.64 L 162.88 114.01 C 161.86 113.17 160.35 113.30 159.50 114.32 C 158.65 115.34 158.79 116.86 159.81 117.70 Z M 160.62 118.37 L 161.37 118.96 C 162.41 119.78 163.92 119.60 164.73 118.56 C 165.55 117.52 165.37 116.01 164.33 115.20 L 163.58 114.60 C 162.54 113.79 161.04 113.97 160.22 115.01 C 159.40 116.04 159.58 117.55 160.62 118.37 Z M 161.41 118.98 L 162.20 119.58 C 163.25 120.38 164.75 120.17 165.54 119.12 C 166.34 118.07 166.14 116.58 165.09 115.78 L 164.30 115.18 C 163.25 114.38 161.75 114.59 160.96 115.64 C 160.16 116.68 160.36 118.18 161.41 118.98 Z M 162.22 119.58 L 163.06 120.21 C 164.11 121.00 165.60 120.78 166.39 119.74 C 167.18 118.69 166.96 117.20 165.91 116.41 L 165.07 115.78 C 164.02 114.99 162.53 115.21 161.75 116.26 C 160.96 117.31 161.17 118.79 162.22 119.58 Z M 163.07 120.20 L 163.84 120.78 C 164.88 121.56 166.36 121.35 167.14 120.30 C 167.93 119.26 167.72 117.78 166.67 117.00 L 165.91 116.42 C 164.86 115.64 163.38 115.85 162.60 116.89 C 161.81 117.94 162.03 119.42 163.07 120.20 Z M 163.84 120.76 L 164.60 121.34 C 165.64 122.12 167.11 121.91 167.89 120.87 C 168.67 119.84 168.47 118.36 167.43 117.58 L 166.67 117.01 C 165.63 116.23 164.16 116.44 163.38 117.47 C 162.60 118.51 162.81 119.98 163.84 120.76 Z M 164.61 121.32 L 165.41 121.93 C 166.44 122.70 167.90 122.49 168.68 121.46 C 169.45 120.43 169.25 118.97 168.22 118.20 L 167.42 117.60 C 166.39 116.82 164.93 117.03 164.15 118.06 C 163.38 119.09 163.58 120.55 164.61 121.32 Z M 165.43 121.92 L 166.26 122.54 C 167.28 123.31 168.73 123.10 169.50 122.07 C 170.27 121.05 170.06 119.60 169.04 118.83 L 168.20 118.21 C 167.18 117.44 165.73 117.65 164.96 118.67 C 164.19 119.70 164.40 121.15 165.43 121.92 Z M 166.27 122.53 L 167.13 123.17 C 168.15 123.93 169.60 123.72 170.35 122.70 C 171.11 121.68 170.90 120.24 169.88 119.48 L 169.02 118.84 C 168.00 118.08 166.56 118.29 165.80 119.31 C 165.04 120.33 165.25 121.77 166.27 122.53 Z M 167.15 123.16 L 167.92 123.73 C 168.93 124.48 170.36 124.26 171.11 123.24 C 171.86 122.23 171.64 120.80 170.63 120.05 L 169.86 119.49 C 168.85 118.74 167.42 118.95 166.67 119.97 C 165.92 120.98 166.14 122.41 167.15 123.16 Z M 167.93 123.71 L 168.72 124.29 C 169.72 125.03 171.14 124.81 171.88 123.81 C 172.62 122.80 172.40 121.38 171.40 120.64 L 170.61 120.07 C 169.61 119.33 168.19 119.54 167.45 120.55 C 166.71 121.56 166.93 122.97 167.93 123.71 Z M 168.73 124.27 L 169.53 124.86 C 170.52 125.60 171.93 125.38 172.66 124.39 C 173.40 123.39 173.19 121.99 172.19 121.25 L 171.39 120.66 C 170.39 119.93 168.99 120.14 168.25 121.14 C 167.52 122.13 167.73 123.53 168.73 124.27 Z M 169.53 124.84 L 170.35 125.45 C 171.33 126.18 172.72 125.97 173.46 124.99 C 174.19 124.00 173.98 122.61 173.00 121.88 L 172.18 121.28 C 171.20 120.54 169.81 120.75 169.08 121.73 C 168.35 122.72 168.55 124.11 169.53 124.84 Z M 170.35 125.42 L 171.18 126.04 C 172.15 126.78 173.53 126.58 174.26 125.61 C 174.99 124.64 174.80 123.26 173.83 122.53 L 173.00 121.91 C 172.03 121.18 170.65 121.37 169.92 122.34 C 169.19 123.31 169.38 124.69 170.35 125.42 Z M 171.18 126.02 L 172.01 126.66 C 172.97 127.39 174.33 127.21 175.07 126.25 C 175.80 125.30 175.62 123.93 174.66 123.20 L 173.83 122.56 C 172.87 121.83 171.51 122.01 170.78 122.96 C 170.04 123.92 170.22 125.28 171.18 126.02 Z M 172.02 126.62 L 172.85 127.27 C 173.79 128.00 175.14 127.84 175.87 126.90 C 176.60 125.96 176.43 124.61 175.49 123.88 L 174.66 123.23 C 173.72 122.50 172.37 122.67 171.64 123.61 C 170.91 124.54 171.08 125.89 172.02 126.62 Z M 172.86 127.24 L 173.68 127.89 C 174.59 128.62 175.93 128.46 176.66 127.55 C 177.38 126.63 177.23 125.29 176.31 124.57 L 175.49 123.92 C 174.57 123.19 173.24 123.34 172.51 124.26 C 171.78 125.18 171.94 126.51 172.86 127.24 Z M 173.68 127.86 L 174.48 128.50 C 175.38 129.22 176.69 129.08 177.42 128.17 C 178.14 127.27 178.00 125.96 177.10 125.23 L 176.30 124.60 C 175.40 123.87 174.09 124.02 173.36 124.92 C 172.64 125.82 172.78 127.14 173.68 127.86 Z M 174.48 128.47 L 175.23 129.07 C 176.12 129.79 177.42 129.66 178.14 128.78 C 178.85 127.89 178.72 126.59 177.84 125.87 L 177.09 125.26 C 176.20 124.55 174.90 124.68 174.19 125.56 C 173.47 126.45 173.60 127.75 174.48 128.47 Z M 175.24 129.04 L 175.93 129.61 C 176.80 130.33 178.08 130.20 178.79 129.34 C 179.51 128.47 179.38 127.19 178.52 126.47 L 177.83 125.90 C 176.96 125.19 175.68 125.31 174.96 126.18 C 174.25 127.05 174.38 128.33 175.24 129.04 Z M 175.94 129.57 L 176.82 130.31 C 177.66 131.01 178.92 130.90 179.63 130.06 C 180.34 129.21 180.23 127.95 179.38 127.25 L 178.51 126.51 C 177.66 125.81 176.40 125.92 175.70 126.76 C 174.99 127.61 175.10 128.86 175.94 129.57 Z M 176.83 130.25 L 177.60 130.91 C 178.41 131.61 179.64 131.52 180.34 130.71 C 181.05 129.89 180.95 128.66 180.14 127.96 L 179.37 127.30 C 178.56 126.60 177.33 126.69 176.63 127.51 C 175.92 128.32 176.02 129.55 176.83 130.25 Z M 177.61 130.85 L 178.30 131.47 C 179.08 132.17 180.28 132.10 180.98 131.32 C 181.67 130.53 181.60 129.33 180.82 128.64 L 180.13 128.02 C 179.35 127.32 178.15 127.39 177.45 128.18 C 176.76 128.96 176.82 130.16 177.61 130.85 Z M 178.29 131.42 L 178.95 132.03 C 179.70 132.72 180.88 132.68 181.58 131.92 C 182.28 131.17 182.23 129.99 181.48 129.29 L 180.83 128.69 C 180.07 127.99 178.89 128.03 178.19 128.79 C 177.49 129.54 177.54 130.72 178.29 131.42 Z M 178.88 132.04 L 179.53 132.66 C 180.30 133.40 181.51 133.37 182.24 132.60 C 182.98 131.84 182.95 130.62 182.19 129.89 L 181.54 129.27 C 180.77 128.54 179.56 128.56 178.83 129.33 C 178.09 130.10 178.12 131.31 178.88 132.04 Z M 179.42 132.74 L 180.10 133.41 C 180.90 134.20 182.20 134.19 183.00 133.39 C 183.79 132.58 183.78 131.28 182.98 130.49 L 182.30 129.82 C 181.49 129.02 180.19 129.03 179.40 129.84 C 178.60 130.64 178.61 131.94 179.42 132.74 Z M 179.99 133.48 L 180.73 134.23 C 181.58 135.09 182.96 135.09 183.82 134.24 C 184.67 133.39 184.68 132.01 183.83 131.16 L 183.08 130.41 C 182.24 129.56 180.86 129.55 180.00 130.40 C 179.15 131.25 179.14 132.63 179.99 133.48 Z M 180.65 134.30 L 181.40 135.07 C 182.29 135.97 183.74 135.99 184.64 135.10 C 185.54 134.22 185.56 132.77 184.67 131.87 L 183.92 131.09 C 183.03 130.19 181.58 130.18 180.68 131.06 C 179.78 131.95 179.76 133.39 180.65 134.30 Z M 181.36 135.09 L 182.01 135.76 C 182.91 136.69 184.39 136.71 185.31 135.81 C 186.24 134.91 186.26 133.43 185.36 132.51 L 184.71 131.84 C 183.81 130.92 182.34 130.90 181.41 131.79 C 180.49 132.69 180.47 134.17 181.36 135.09 Z M 182.01 135.75 L 182.69 136.46 C 183.59 137.39 185.06 137.42 185.99 136.53 C 186.92 135.63 186.95 134.16 186.05 133.23 L 185.37 132.52 C 184.47 131.59 183.00 131.56 182.07 132.46 C 181.14 133.35 181.11 134.82 182.01 135.75 Z M 182.68 136.45 L 183.39 137.20 C 184.28 138.13 185.75 138.17 186.69 137.28 C 187.62 136.39 187.66 134.92 186.77 133.98 L 186.06 133.24 C 185.17 132.31 183.70 132.27 182.77 133.16 C 181.83 134.05 181.80 135.52 182.68 136.45 Z M 183.38 137.18 L 184.10 137.95 C 184.98 138.88 186.45 138.93 187.39 138.05 C 188.33 137.17 188.37 135.70 187.49 134.76 L 186.78 134.00 C 185.90 133.06 184.43 133.01 183.49 133.89 C 182.55 134.77 182.50 136.25 183.38 137.18 Z M 184.08 137.93 L 184.79 138.70 C 185.66 139.64 187.13 139.70 188.08 138.83 C 189.02 137.96 189.08 136.49 188.21 135.54 L 187.51 134.78 C 186.64 133.83 185.16 133.77 184.22 134.64 C 183.27 135.51 183.21 136.98 184.08 137.93 Z M 184.77 138.67 L 185.47 139.44 C 186.32 140.40 187.79 140.47 188.75 139.62 C 189.70 138.76 189.78 137.29 188.92 136.33 L 188.23 135.57 C 187.37 134.61 185.90 134.53 184.95 135.39 C 183.99 136.25 183.92 137.72 184.77 138.67 Z M 185.46 139.42 L 186.13 140.18 C 186.97 141.14 188.44 141.23 189.39 140.39 C 190.35 139.54 190.45 138.08 189.60 137.12 L 188.93 136.36 C 188.08 135.40 186.62 135.31 185.66 136.15 C 184.70 137.00 184.61 138.46 185.46 139.42 Z M 186.12 140.16 L 186.77 140.92 C 187.61 141.88 189.07 141.98 190.03 141.15 C 190.99 140.31 191.10 138.86 190.26 137.89 L 189.61 137.14 C 188.77 136.18 187.32 136.07 186.35 136.91 C 185.39 137.74 185.29 139.20 186.12 140.16 Z M 186.77 140.90 L 187.41 141.65 C 188.24 142.61 189.69 142.73 190.65 141.90 C 191.62 141.08 191.73 139.63 190.91 138.66 L 190.26 137.91 C 189.44 136.95 187.99 136.83 187.02 137.66 C 186.06 138.48 185.95 139.93 186.77 140.90 Z M 187.41 141.64 L 188.05 142.38 C 188.87 143.35 190.31 143.47 191.27 142.65 C 192.24 141.83 192.36 140.38 191.54 139.42 L 190.90 138.67 C 190.09 137.71 188.64 137.59 187.68 138.41 C 186.71 139.23 186.60 140.67 187.41 141.64 Z M 188.05 142.38 L 188.37 142.75 C 189.18 143.71 190.62 143.83 191.58 143.02 C 192.54 142.20 192.66 140.76 191.85 139.80 L 191.54 139.43 C 190.72 138.46 189.28 138.35 188.32 139.16 C 187.36 139.97 187.24 141.41 188.05 142.38 Z"
      fill="black"
      fill-rule="nonzero" /><path d="M 131.76 143.43 L 132.69 143.03 C 133.88 142.52 134.44 141.15 133.93 139.96 C 133.42 138.76 132.04 138.21 130.85 138.72 L 129.92 139.12 C 128.73 139.62 128.18 141.00 128.68 142.19 C 129.19 143.38 130.57 143.94 131.76 143.43 Z M 132.67 143.04 L 133.60 142.65 C 134.80 142.15 135.36 140.78 134.86 139.59 C 134.37 138.39 133.00 137.83 131.80 138.33 L 130.87 138.71 C 129.68 139.21 129.11 140.58 129.61 141.78 C 130.11 142.97 131.48 143.54 132.67 143.04 Z M 133.57 142.66 L 134.50 142.29 C 135.70 141.82 136.28 140.46 135.81 139.26 C 135.33 138.05 133.97 137.47 132.77 137.94 L 131.84 138.31 C 130.64 138.79 130.05 140.15 130.53 141.35 C 131.00 142.55 132.36 143.14 133.57 142.66 Z M 134.44 142.31 L 135.37 141.97 C 136.58 141.53 137.20 140.19 136.76 138.97 C 136.31 137.76 134.97 137.14 133.76 137.58 L 132.83 137.92 C 131.61 138.37 130.99 139.71 131.44 140.92 C 131.88 142.14 133.23 142.76 134.44 142.31 Z M 135.29 142.00 L 136.22 141.69 C 137.45 141.29 138.12 139.97 137.72 138.75 C 137.32 137.52 136.00 136.85 134.77 137.25 L 133.84 137.56 C 132.61 137.96 131.94 139.28 132.34 140.50 C 132.74 141.73 134.06 142.40 135.29 142.00 Z M 136.13 141.71 L 137.09 141.44 C 138.32 141.09 139.04 139.80 138.69 138.57 C 138.34 137.33 137.05 136.61 135.82 136.97 L 134.86 137.24 C 133.63 137.59 132.91 138.87 133.26 140.11 C 133.61 141.34 134.90 142.06 136.13 141.71 Z M 137.01 141.45 L 137.97 141.21 C 139.21 140.90 139.96 139.64 139.65 138.40 C 139.35 137.17 138.09 136.41 136.85 136.72 L 135.89 136.96 C 134.65 137.27 133.90 138.52 134.21 139.76 C 134.52 141.00 135.77 141.75 137.01 141.45 Z M 137.91 141.21 L 138.89 140.99 C 140.13 140.71 140.91 139.49 140.63 138.25 C 140.35 137.01 139.13 136.23 137.89 136.50 L 136.91 136.72 C 135.67 136.99 134.89 138.22 135.17 139.46 C 135.44 140.70 136.67 141.48 137.91 141.21 Z M 138.85 140.99 L 139.85 140.78 C 141.08 140.52 141.88 139.31 141.62 138.08 C 141.37 136.84 140.16 136.05 138.92 136.30 L 137.92 136.51 C 136.69 136.76 135.89 137.97 136.15 139.21 C 136.40 140.44 137.61 141.24 138.85 140.99 Z M 139.83 140.77 L 140.72 140.59 C 141.95 140.35 142.75 139.15 142.50 137.92 C 142.26 136.69 141.06 135.89 139.83 136.13 L 138.94 136.31 C 137.71 136.55 136.91 137.75 137.15 138.98 C 137.40 140.22 138.59 141.02 139.83 140.77 Z M 140.71 140.58 L 141.60 140.41 C 142.83 140.17 143.63 138.98 143.39 137.75 C 143.15 136.53 141.96 135.73 140.73 135.97 L 139.84 136.14 C 138.61 136.38 137.81 137.57 138.05 138.80 C 138.29 140.02 139.48 140.82 140.71 140.58 Z M 141.60 140.40 L 142.54 140.22 C 143.76 139.98 144.56 138.79 144.32 137.57 C 144.08 136.35 142.90 135.55 141.68 135.79 L 140.74 135.98 C 139.52 136.22 138.72 137.40 138.96 138.62 C 139.20 139.84 140.38 140.64 141.60 140.40 Z M 142.54 140.20 L 143.55 140.01 C 144.76 139.77 145.55 138.59 145.31 137.37 C 145.07 136.16 143.90 135.37 142.68 135.61 L 141.68 135.80 C 140.46 136.04 139.67 137.22 139.91 138.44 C 140.15 139.65 141.33 140.44 142.54 140.20 Z M 143.55 139.99 L 144.63 139.78 C 145.84 139.54 146.62 138.36 146.38 137.15 C 146.14 135.95 144.96 135.16 143.76 135.40 L 142.68 135.62 C 141.47 135.86 140.68 137.04 140.93 138.24 C 141.17 139.45 142.34 140.24 143.55 139.99 Z M 144.64 139.77 L 145.68 139.55 C 146.88 139.31 147.66 138.14 147.41 136.93 C 147.17 135.73 146.00 134.96 144.79 135.20 L 143.75 135.42 C 142.55 135.66 141.77 136.83 142.02 138.03 C 142.26 139.24 143.44 140.01 144.64 139.77 Z M 145.69 139.54 L 146.61 139.35 C 147.81 139.10 148.58 137.93 148.33 136.74 C 148.08 135.54 146.91 134.77 145.71 135.02 L 144.79 135.21 C 143.59 135.46 142.83 136.63 143.07 137.83 C 143.32 139.02 144.49 139.79 145.69 139.54 Z M 146.61 139.34 L 147.58 139.14 C 148.77 138.89 149.53 137.72 149.28 136.53 C 149.03 135.34 147.87 134.58 146.68 134.83 L 145.71 135.03 C 144.52 135.28 143.76 136.45 144.01 137.64 C 144.26 138.83 145.42 139.59 146.61 139.34 Z M 147.58 139.13 L 148.57 138.92 C 149.76 138.67 150.51 137.51 150.26 136.32 C 150.01 135.14 148.85 134.38 147.67 134.63 L 146.68 134.84 C 145.49 135.09 144.73 136.25 144.98 137.44 C 145.23 138.62 146.39 139.38 147.58 139.13 Z M 148.57 138.91 L 149.58 138.70 C 150.76 138.45 151.51 137.29 151.26 136.11 C 151.01 134.93 149.85 134.18 148.68 134.43 L 147.67 134.64 C 146.49 134.89 145.73 136.05 145.98 137.23 C 146.23 138.41 147.39 139.16 148.57 138.91 Z M 149.57 138.69 L 150.58 138.48 C 151.76 138.23 152.51 137.08 152.26 135.90 C 152.02 134.73 150.86 133.98 149.69 134.22 L 148.68 134.44 C 147.50 134.68 146.75 135.84 147.00 137.01 C 147.25 138.18 148.40 138.94 149.57 138.69 Z M 150.58 138.47 L 151.58 138.26 C 152.75 138.01 153.50 136.87 153.26 135.70 C 153.01 134.53 151.87 133.78 150.70 134.02 L 149.69 134.23 C 148.52 134.48 147.77 135.62 148.02 136.79 C 148.26 137.96 149.41 138.71 150.58 138.47 Z M 151.58 138.25 L 152.59 138.04 C 153.75 137.80 154.50 136.66 154.26 135.49 C 154.02 134.33 152.88 133.58 151.71 133.82 L 150.70 134.03 C 149.54 134.27 148.79 135.41 149.03 136.58 C 149.27 137.74 150.41 138.49 151.58 138.25 Z M 152.58 138.03 L 153.70 137.80 C 154.86 137.56 155.60 136.43 155.37 135.27 C 155.13 134.12 154.00 133.37 152.84 133.60 L 151.72 133.83 C 150.56 134.07 149.82 135.20 150.05 136.36 C 150.29 137.52 151.42 138.26 152.58 138.03 Z M 153.69 137.78 L 154.76 137.57 C 155.91 137.34 156.66 136.22 156.43 135.07 C 156.20 133.92 155.08 133.18 153.93 133.41 L 152.86 133.62 C 151.71 133.85 150.96 134.97 151.19 136.12 C 151.42 137.27 152.54 138.01 153.69 137.78 Z M 154.75 137.55 L 155.76 137.36 C 156.91 137.13 157.65 136.03 157.43 134.89 C 157.21 133.75 156.10 133.00 154.96 133.22 L 153.94 133.42 C 152.80 133.64 152.06 134.75 152.28 135.89 C 152.50 137.03 153.60 137.78 154.75 137.55 Z M 155.75 137.34 L 156.70 137.16 C 157.84 136.95 158.58 135.86 158.37 134.72 C 158.16 133.59 157.07 132.84 155.93 133.06 L 154.98 133.24 C 153.84 133.45 153.10 134.54 153.31 135.67 C 153.52 136.81 154.61 137.55 155.75 137.34 Z M 156.68 137.15 L 157.57 136.99 C 158.70 136.79 159.45 135.71 159.25 134.58 C 159.05 133.46 157.97 132.71 156.84 132.91 L 155.95 133.07 C 154.83 133.27 154.08 134.35 154.28 135.47 C 154.48 136.60 155.56 137.35 156.68 137.15 Z M 157.55 136.98 L 158.36 136.84 C 159.48 136.65 160.24 135.59 160.05 134.47 C 159.86 133.35 158.80 132.60 157.68 132.79 L 156.87 132.93 C 155.75 133.11 155.00 134.17 155.18 135.29 C 155.37 136.41 156.43 137.16 157.55 136.98 Z M 158.32 136.82 L 159.53 136.64 C 160.64 136.48 161.41 135.45 161.24 134.34 C 161.08 133.23 160.05 132.46 158.94 132.63 L 157.73 132.80 C 156.62 132.97 155.85 134.00 156.02 135.11 C 156.18 136.22 157.21 136.99 158.32 136.82 Z M 159.46 136.62 L 160.48 136.51 C 161.58 136.38 162.37 135.39 162.25 134.29 C 162.13 133.20 161.13 132.41 160.04 132.53 L 159.01 132.64 C 157.91 132.77 157.12 133.76 157.25 134.86 C 157.37 135.96 158.36 136.75 159.46 136.62 Z M 160.39 136.49 L 161.26 136.43 C 162.35 136.36 163.17 135.42 163.10 134.33 C 163.03 133.24 162.09 132.42 161.00 132.49 L 160.13 132.55 C 159.04 132.62 158.22 133.56 158.29 134.65 C 158.36 135.73 159.30 136.56 160.39 136.49 Z M 161.13 136.41 L 162.04 136.41 C 163.12 136.40 163.99 135.53 163.99 134.46 C 163.99 133.38 163.11 132.51 162.04 132.52 L 161.13 132.52 C 160.06 132.52 159.19 133.39 159.19 134.46 C 159.19 135.54 160.06 136.41 161.13 136.41 Z M 161.89 136.37 L 162.90 136.45 C 163.96 136.53 164.88 135.75 164.96 134.69 C 165.05 133.63 164.26 132.71 163.20 132.63 L 162.19 132.55 C 161.13 132.46 160.21 133.25 160.13 134.31 C 160.05 135.37 160.84 136.29 161.89 136.37 Z M 162.80 136.42 L 163.69 136.54 C 164.73 136.67 165.68 135.94 165.82 134.91 C 165.95 133.87 165.23 132.92 164.19 132.78 L 163.30 132.66 C 162.26 132.52 161.31 133.25 161.17 134.29 C 161.04 135.33 161.76 136.28 162.80 136.42 Z"
      fill="black"
      fill-rule="nonzero" /><path d="M 141.89 140.12 L 141.39 141.00 C 140.75 142.13 141.14 143.56 142.27 144.20 C 143.40 144.84 144.83 144.44 145.47 143.31 L 145.97 142.43 C 146.60 141.30 146.21 139.87 145.08 139.23 C 143.95 138.59 142.52 138.99 141.89 140.12 Z M 141.44 141.02 L 140.94 141.90 C 140.32 143.00 140.70 144.39 141.79 145.02 C 142.89 145.64 144.28 145.26 144.91 144.17 L 145.41 143.29 C 146.04 142.19 145.65 140.80 144.56 140.17 C 143.46 139.55 142.07 139.93 141.44 141.02 Z M 141.00 141.92 L 140.50 142.78 C 139.88 143.84 140.25 145.20 141.31 145.82 C 142.37 146.44 143.73 146.08 144.35 145.01 L 144.85 144.15 C 145.47 143.09 145.10 141.73 144.04 141.11 C 142.98 140.49 141.62 140.85 141.00 141.92 Z M 140.56 142.79 L 140.06 143.63 C 139.45 144.66 139.79 145.98 140.82 146.60 C 141.84 147.21 143.17 146.87 143.78 145.84 L 144.28 145.00 C 144.90 143.98 144.56 142.65 143.53 142.04 C 142.50 141.42 141.18 141.76 140.56 142.79 Z M 140.11 143.62 L 139.59 144.47 C 138.97 145.47 139.28 146.78 140.28 147.40 C 141.29 148.02 142.60 147.70 143.21 146.70 L 143.74 145.85 C 144.35 144.85 144.04 143.54 143.04 142.92 C 142.04 142.31 140.73 142.62 140.11 143.62 Z M 139.61 144.45 L 139.08 145.29 C 138.46 146.28 138.75 147.59 139.74 148.21 C 140.73 148.84 142.04 148.54 142.66 147.56 L 143.19 146.72 C 143.82 145.73 143.52 144.42 142.53 143.80 C 141.54 143.17 140.24 143.47 139.61 144.45 Z M 139.10 145.28 L 138.56 146.12 C 137.93 147.10 138.21 148.40 139.19 149.03 C 140.17 149.66 141.47 149.38 142.10 148.40 L 142.64 147.57 C 143.27 146.59 142.99 145.28 142.01 144.65 C 141.04 144.02 139.73 144.30 139.10 145.28 Z M 138.57 146.12 L 138.03 146.96 C 137.39 147.93 137.67 149.23 138.64 149.86 C 139.61 150.49 140.91 150.22 141.54 149.25 L 142.09 148.40 C 142.72 147.43 142.44 146.14 141.47 145.50 C 140.50 144.87 139.21 145.15 138.57 146.12 Z M 138.03 146.96 L 137.50 147.78 C 136.87 148.74 137.14 150.04 138.11 150.67 C 139.08 151.30 140.37 151.02 141.00 150.06 L 141.53 149.25 C 142.16 148.28 141.89 146.99 140.92 146.36 C 139.96 145.73 138.66 146.00 138.03 146.96 Z M 137.51 147.78 L 136.96 148.61 C 136.33 149.57 136.60 150.86 137.56 151.49 C 138.52 152.12 139.81 151.85 140.44 150.89 L 140.99 150.06 C 141.62 149.10 141.35 147.81 140.39 147.18 C 139.43 146.55 138.14 146.82 137.51 147.78 Z M 136.98 148.61 L 136.42 149.45 C 135.78 150.41 136.05 151.70 137.00 152.33 C 137.96 152.96 139.24 152.70 139.87 151.74 L 140.43 150.90 C 141.07 149.94 140.80 148.65 139.85 148.02 C 138.89 147.39 137.61 147.65 136.98 148.61 Z M 136.43 149.45 L 135.86 150.30 C 135.22 151.25 135.48 152.53 136.42 153.17 C 137.37 153.80 138.66 153.55 139.29 152.60 L 139.86 151.75 C 140.50 150.80 140.24 149.52 139.29 148.88 C 138.35 148.25 137.06 148.50 136.43 149.45 Z M 135.87 150.29 L 135.31 151.12 C 134.67 152.06 134.91 153.34 135.85 153.98 C 136.80 154.62 138.08 154.38 138.72 153.44 L 139.28 152.61 C 139.92 151.67 139.67 150.38 138.73 149.74 C 137.79 149.10 136.51 149.35 135.87 150.29 Z M 135.32 151.11 L 134.75 151.93 C 134.11 152.87 134.34 154.15 135.28 154.80 C 136.21 155.44 137.49 155.20 138.14 154.27 L 138.71 153.44 C 139.35 152.51 139.12 151.23 138.18 150.58 C 137.24 149.94 135.96 150.17 135.32 151.11 Z M 134.76 151.93 L 134.19 152.75 C 133.54 153.68 133.77 154.96 134.70 155.61 C 135.63 156.26 136.91 156.03 137.56 155.10 L 138.13 154.28 C 138.78 153.35 138.55 152.07 137.62 151.42 C 136.69 150.77 135.41 151.00 134.76 151.93 Z M 134.20 152.74 L 133.62 153.56 C 132.97 154.48 133.19 155.76 134.11 156.41 C 135.04 157.07 136.32 156.85 136.97 155.92 L 137.55 155.11 C 138.20 154.18 137.98 152.90 137.05 152.25 C 136.13 151.60 134.85 151.82 134.20 152.74 Z M 133.63 153.55 L 133.06 154.34 C 132.41 155.26 132.62 156.54 133.54 157.20 C 134.46 157.85 135.74 157.64 136.40 156.72 L 136.96 155.93 C 137.62 155.01 137.40 153.73 136.48 153.07 C 135.56 152.42 134.29 152.63 133.63 153.55 Z M 133.07 154.33 L 132.50 155.12 C 131.84 156.04 132.05 157.32 132.96 157.98 C 133.88 158.64 135.16 158.43 135.82 157.52 L 136.39 156.73 C 137.05 155.81 136.84 154.53 135.93 153.87 C 135.01 153.21 133.73 153.42 133.07 154.33 Z M 132.51 155.11 L 131.93 155.91 C 131.26 156.82 131.46 158.10 132.37 158.77 C 133.28 159.44 134.56 159.24 135.23 158.33 L 135.81 157.53 C 136.48 156.62 136.28 155.34 135.37 154.67 C 134.46 154.00 133.18 154.20 132.51 155.11 Z M 131.94 155.90 L 131.33 156.72 C 130.65 157.63 130.84 158.91 131.75 159.58 C 132.65 160.25 133.93 160.06 134.61 159.16 L 135.22 158.34 C 135.89 157.43 135.70 156.15 134.79 155.48 C 133.89 154.81 132.61 155.00 131.94 155.90 Z M 131.34 156.71 L 130.72 157.53 C 130.04 158.43 130.22 159.71 131.12 160.38 C 132.02 161.06 133.30 160.88 133.98 159.98 L 134.60 159.17 C 135.27 158.27 135.09 156.99 134.19 156.31 C 133.29 155.63 132.01 155.81 131.34 156.71 Z M 130.73 157.52 L 130.14 158.29 C 129.46 159.19 129.63 160.46 130.53 161.15 C 131.42 161.83 132.70 161.66 133.38 160.76 L 133.97 159.99 C 134.66 159.10 134.49 157.82 133.59 157.13 C 132.69 156.45 131.41 156.62 130.73 157.52 Z M 130.15 158.28 L 129.54 159.07 C 128.85 159.97 129.02 161.25 129.91 161.93 C 130.80 162.62 132.08 162.45 132.77 161.56 L 133.38 160.77 C 134.06 159.88 133.90 158.60 133.01 157.91 C 132.12 157.23 130.84 157.39 130.15 158.28 Z M 129.54 159.07 L 128.92 159.87 C 128.23 160.76 128.39 162.04 129.28 162.73 C 130.17 163.42 131.45 163.26 132.14 162.37 L 132.76 161.57 C 133.45 160.68 133.29 159.40 132.40 158.71 C 131.51 158.02 130.24 158.18 129.54 159.07 Z M 128.93 159.87 L 128.30 160.67 C 127.60 161.55 127.76 162.83 128.64 163.53 C 129.53 164.22 130.81 164.06 131.50 163.18 L 132.13 162.38 C 132.82 161.49 132.67 160.21 131.78 159.52 C 130.90 158.83 129.62 158.98 128.93 159.87 Z M 128.30 160.67 L 127.61 161.54 C 126.92 162.42 127.07 163.70 127.95 164.40 C 128.83 165.09 130.11 164.94 130.81 164.06 L 131.50 163.18 C 132.19 162.30 132.04 161.02 131.16 160.33 C 130.28 159.63 129.00 159.78 128.30 160.67 Z M 127.61 161.56 L 126.84 162.55 C 126.15 163.43 126.32 164.71 127.20 165.39 C 128.09 166.08 129.36 165.92 130.05 165.03 L 130.81 164.04 C 131.50 163.16 131.34 161.88 130.45 161.20 C 129.56 160.51 128.29 160.67 127.61 161.56 Z M 126.79 162.63 L 126.17 163.51 C 125.53 164.42 125.75 165.68 126.67 166.33 C 127.58 166.97 128.84 166.75 129.48 165.83 L 130.10 164.95 C 130.74 164.04 130.52 162.77 129.61 162.13 C 128.69 161.49 127.43 161.71 126.79 162.63 Z M 126.04 163.74 L 125.67 164.45 C 125.16 165.44 125.54 166.65 126.53 167.17 C 127.52 167.68 128.74 167.29 129.25 166.30 L 129.62 165.60 C 130.13 164.61 129.74 163.39 128.76 162.88 C 127.77 162.37 126.55 162.75 126.04 163.74 Z M 125.45 165.56 L 125.50 166.12 C 125.61 167.23 126.59 168.04 127.70 167.94 C 128.81 167.84 129.62 166.85 129.52 165.74 L 129.47 165.19 C 129.37 164.08 128.38 163.26 127.27 163.37 C 126.16 163.47 125.35 164.45 125.45 165.56 Z M 127.09 167.92 L 127.91 168.09 C 129.00 168.33 130.08 167.63 130.32 166.53 C 130.55 165.44 129.85 164.36 128.76 164.12 L 127.94 163.94 C 126.84 163.71 125.76 164.41 125.53 165.51 C 125.29 166.60 125.99 167.68 127.09 167.92 Z M 128.59 168.14 L 129.80 167.99 C 130.92 167.84 131.72 166.82 131.58 165.70 C 131.43 164.57 130.41 163.78 129.29 163.92 L 128.07 164.07 C 126.95 164.21 126.16 165.24 126.30 166.36 C 126.44 167.49 127.47 168.28 128.59 168.14 Z M 129.95 167.97 L 130.91 167.78 C 132.02 167.56 132.75 166.48 132.53 165.36 C 132.30 164.24 131.22 163.52 130.10 163.74 L 129.14 163.93 C 128.02 164.15 127.30 165.24 127.52 166.36 C 127.74 167.47 128.83 168.20 129.95 167.97 Z M 130.96 167.77 L 131.94 167.55 C 133.05 167.30 133.74 166.19 133.49 165.08 C 133.24 163.97 132.13 163.27 131.02 163.53 L 130.05 163.75 C 128.94 164.00 128.24 165.11 128.49 166.22 C 128.74 167.33 129.85 168.03 130.96 167.77 Z M 131.96 167.55 L 132.95 167.32 C 134.06 167.05 134.75 165.93 134.48 164.82 C 134.22 163.71 133.10 163.03 131.99 163.29 L 131.00 163.53 C 129.89 163.79 129.20 164.91 129.47 166.02 C 129.73 167.13 130.85 167.82 131.96 167.55 Z M 132.95 167.32 L 133.76 167.13 C 134.87 166.86 135.56 165.75 135.30 164.63 C 135.03 163.52 133.92 162.83 132.80 163.10 L 131.99 163.29 C 130.88 163.55 130.19 164.67 130.45 165.78 C 130.72 166.89 131.83 167.58 132.95 167.32 Z M 133.76 167.13 L 134.61 166.93 C 135.72 166.66 136.41 165.55 136.15 164.43 C 135.88 163.32 134.77 162.63 133.65 162.89 L 132.80 163.09 C 131.68 163.36 131.00 164.48 131.26 165.59 C 131.53 166.71 132.64 167.40 133.76 167.13 Z M 134.62 166.93 L 135.59 166.69 C 136.71 166.42 137.40 165.30 137.12 164.18 C 136.85 163.06 135.73 162.38 134.61 162.65 L 133.64 162.89 C 132.52 163.16 131.84 164.29 132.11 165.40 C 132.38 166.52 133.51 167.20 134.62 166.93 Z M 135.61 166.69 L 136.77 166.40 C 137.88 166.12 138.56 164.99 138.28 163.87 C 137.99 162.76 136.86 162.08 135.74 162.36 L 134.59 162.65 C 133.48 162.93 132.80 164.07 133.08 165.18 C 133.36 166.30 134.50 166.98 135.61 166.69 Z M 136.78 166.40 L 137.79 166.14 C 138.91 165.85 139.57 164.71 139.28 163.59 C 138.99 162.48 137.85 161.81 136.74 162.10 L 135.73 162.36 C 134.61 162.65 133.94 163.79 134.24 164.91 C 134.53 166.02 135.67 166.69 136.78 166.40 Z M 137.80 166.14 L 138.74 165.89 C 139.86 165.59 140.52 164.44 140.22 163.33 C 139.93 162.22 138.78 161.55 137.67 161.85 L 136.73 162.10 C 135.61 162.40 134.95 163.54 135.25 164.66 C 135.54 165.77 136.69 166.43 137.80 166.14 Z M 138.75 165.88 L 139.75 165.61 C 140.86 165.31 141.52 164.17 141.22 163.05 C 140.91 161.94 139.77 161.28 138.65 161.58 L 137.66 161.85 C 136.55 162.15 135.89 163.30 136.19 164.41 C 136.49 165.53 137.64 166.18 138.75 165.88 Z M 139.75 165.61 L 140.77 165.33 C 141.88 165.03 142.54 163.88 142.23 162.77 C 141.92 161.65 140.78 161.00 139.66 161.31 L 138.65 161.59 C 137.54 161.89 136.88 163.04 137.19 164.15 C 137.49 165.26 138.64 165.92 139.75 165.61 Z M 140.78 165.33 L 141.79 165.05 C 142.90 164.74 143.55 163.59 143.24 162.48 C 142.93 161.37 141.77 160.72 140.66 161.03 L 139.65 161.31 C 138.54 161.62 137.90 162.77 138.21 163.88 C 138.52 164.99 139.67 165.64 140.78 165.33 Z M 141.80 165.05 L 142.77 164.77 C 143.88 164.46 144.52 163.30 144.21 162.19 C 143.89 161.08 142.74 160.44 141.63 160.75 L 140.65 161.03 C 139.55 161.34 138.90 162.50 139.22 163.61 C 139.53 164.72 140.69 165.36 141.80 165.05 Z M 142.78 164.77 L 143.70 164.50 C 144.80 164.18 145.44 163.02 145.12 161.91 C 144.80 160.81 143.64 160.17 142.53 160.49 L 141.62 160.76 C 140.51 161.08 139.87 162.24 140.19 163.34 C 140.51 164.45 141.67 165.09 142.78 164.77 Z M 143.71 164.49 L 144.81 164.17 C 145.91 163.84 146.54 162.67 146.21 161.57 C 145.88 160.47 144.72 159.84 143.62 160.17 L 142.52 160.50 C 141.42 160.83 140.79 161.99 141.12 163.09 C 141.45 164.20 142.61 164.82 143.71 164.49 Z M 144.82 164.15 L 145.80 163.85 C 146.89 163.51 147.51 162.35 147.17 161.25 C 146.83 160.16 145.67 159.55 144.57 159.88 L 143.60 160.19 C 142.50 160.52 141.89 161.69 142.23 162.78 C 142.57 163.88 143.73 164.49 144.82 164.15 Z M 145.81 163.84 L 146.71 163.55 C 147.80 163.20 148.40 162.04 148.06 160.96 C 147.71 159.87 146.55 159.27 145.46 159.61 L 144.56 159.90 C 143.47 160.24 142.87 161.41 143.22 162.49 C 143.56 163.58 144.72 164.18 145.81 163.84 Z M 146.72 163.54 L 147.60 163.25 C 148.68 162.91 149.28 161.75 148.93 160.67 C 148.58 159.58 147.42 158.99 146.34 159.34 L 145.46 159.62 C 144.38 159.97 143.78 161.13 144.13 162.21 C 144.48 163.29 145.64 163.89 146.72 163.54 Z M 147.60 163.25 L 148.49 162.96 C 149.57 162.61 150.16 161.45 149.82 160.38 C 149.47 159.30 148.31 158.71 147.24 159.06 L 146.34 159.35 C 145.26 159.69 144.67 160.85 145.02 161.93 C 145.37 163.00 146.52 163.59 147.60 163.25 Z M 148.49 162.95 L 149.37 162.67 C 150.45 162.33 151.04 161.18 150.70 160.10 C 150.35 159.03 149.20 158.44 148.13 158.78 L 147.24 159.06 C 146.17 159.41 145.58 160.55 145.92 161.63 C 146.26 162.70 147.41 163.30 148.49 162.95 Z M 149.36 162.67 L 150.29 162.37 C 151.37 162.03 151.96 160.89 151.62 159.82 C 151.28 158.74 150.14 158.15 149.07 158.49 L 148.14 158.78 C 147.06 159.12 146.47 160.27 146.81 161.34 C 147.15 162.41 148.29 163.01 149.36 162.67 Z M 150.29 162.37 L 151.25 162.07 C 152.33 161.74 152.92 160.59 152.59 159.52 C 152.25 158.45 151.11 157.85 150.04 158.19 L 149.07 158.49 C 148.00 158.82 147.40 159.96 147.74 161.04 C 148.07 162.11 149.21 162.71 150.29 162.37 Z M 151.24 162.07 L 152.24 161.76 C 153.31 161.43 153.91 160.30 153.58 159.23 C 153.25 158.15 152.11 157.55 151.04 157.88 L 150.05 158.19 C 148.98 158.52 148.38 159.66 148.71 160.73 C 149.04 161.80 150.17 162.40 151.24 162.07 Z M 152.23 161.76 L 153.23 161.46 C 154.30 161.13 154.90 160.00 154.58 158.93 C 154.26 157.86 153.12 157.26 152.05 157.58 L 151.05 157.89 C 149.98 158.21 149.38 159.34 149.70 160.41 C 150.02 161.48 151.16 162.09 152.23 161.76 Z M 153.22 161.46 L 154.19 161.17 C 155.26 160.85 155.86 159.72 155.54 158.65 C 155.22 157.58 154.10 156.97 153.03 157.29 L 152.06 157.58 C 150.99 157.90 150.39 159.03 150.71 160.10 C 151.02 161.17 152.15 161.77 153.22 161.46 Z M 154.18 161.17 L 155.13 160.88 C 156.20 160.57 156.81 159.45 156.50 158.38 C 156.18 157.31 155.06 156.70 153.99 157.01 L 153.04 157.30 C 151.97 157.61 151.36 158.73 151.67 159.80 C 151.99 160.87 153.11 161.48 154.18 161.17 Z M 155.13 160.88 L 156.09 160.60 C 157.15 160.28 157.76 159.16 157.45 158.10 C 157.14 157.03 156.02 156.42 154.95 156.73 L 153.99 157.02 C 152.93 157.33 152.31 158.45 152.63 159.52 C 152.94 160.59 154.06 161.20 155.13 160.88 Z M 156.09 160.59 L 157.05 160.31 C 158.11 160.00 158.72 158.88 158.40 157.81 C 158.09 156.75 156.97 156.14 155.90 156.45 L 154.95 156.74 C 153.88 157.05 153.27 158.17 153.59 159.24 C 153.91 160.30 155.02 160.91 156.09 160.59 Z M 157.05 160.31 L 158.02 160.02 C 159.08 159.70 159.68 158.58 159.36 157.52 C 159.04 156.45 157.92 155.85 156.86 156.17 L 155.90 156.46 C 154.84 156.78 154.23 157.90 154.55 158.96 C 154.87 160.02 155.99 160.62 157.05 160.31 Z M 158.03 160.01 L 159.00 159.71 C 160.06 159.39 160.65 158.27 160.33 157.21 C 160.00 156.15 158.88 155.55 157.82 155.88 L 156.85 156.18 C 155.79 156.50 155.20 157.62 155.52 158.68 C 155.85 159.74 156.97 160.34 158.03 160.01 Z M 159.01 159.71 L 160.03 159.39 C 161.08 159.06 161.67 157.93 161.34 156.87 C 161.00 155.82 159.88 155.23 158.82 155.56 L 157.81 155.88 C 156.75 156.21 156.16 157.34 156.50 158.40 C 156.83 159.45 157.96 160.04 159.01 159.71 Z M 160.04 159.39 L 161.04 159.07 C 162.09 158.73 162.68 157.60 162.34 156.54 C 162.00 155.49 160.87 154.90 159.81 155.24 L 158.81 155.56 C 157.75 155.90 157.17 157.03 157.51 158.09 C 157.85 159.15 158.98 159.73 160.04 159.39 Z M 161.04 159.07 L 162.02 158.76 C 163.07 158.41 163.65 157.28 163.31 156.22 C 162.97 155.17 161.84 154.59 160.78 154.93 L 159.81 155.24 C 158.75 155.58 158.17 156.72 158.51 157.77 C 158.85 158.83 159.99 159.41 161.04 159.07 Z M 162.02 158.76 L 162.95 158.46 C 164.01 158.12 164.59 156.98 164.24 155.92 C 163.90 154.86 162.77 154.28 161.71 154.62 L 160.78 154.92 C 159.72 155.27 159.14 156.40 159.48 157.46 C 159.82 158.52 160.96 159.10 162.02 158.76 Z M 162.94 158.46 L 163.81 158.18 C 164.87 157.84 165.46 156.71 165.12 155.65 C 164.78 154.59 163.64 154.00 162.58 154.34 L 161.71 154.62 C 160.65 154.96 160.06 156.10 160.40 157.16 C 160.74 158.22 161.88 158.80 162.94 158.46 Z M 163.80 158.23 L 164.89 157.89 C 165.98 157.56 166.59 156.41 166.26 155.32 C 165.92 154.23 164.77 153.62 163.68 153.96 L 162.59 154.30 C 161.50 154.63 160.89 155.78 161.23 156.87 C 161.56 157.95 162.71 158.56 163.80 158.23 Z M 164.81 158.01 L 165.84 157.75 C 166.99 157.47 167.70 156.30 167.41 155.15 C 167.13 154.00 165.96 153.30 164.81 153.58 L 163.77 153.84 C 162.62 154.13 161.92 155.29 162.20 156.44 C 162.49 157.59 163.65 158.30 164.81 158.01 Z M 165.55 157.91 L 166.44 157.82 C 167.68 157.70 168.58 156.60 168.46 155.36 C 168.34 154.12 167.24 153.22 166.00 153.34 L 165.11 153.43 C 163.87 153.55 162.97 154.65 163.09 155.89 C 163.21 157.13 164.31 158.03 165.55 157.91 Z M 165.81 157.88 L 166.60 158.03 C 167.87 158.25 169.09 157.41 169.32 156.14 C 169.54 154.86 168.70 153.65 167.43 153.42 L 166.63 153.28 C 165.36 153.05 164.14 153.90 163.92 155.17 C 163.69 156.44 164.54 157.66 165.81 157.88 Z M 165.74 157.73 L 166.47 158.19 C 167.57 158.90 169.04 158.57 169.75 157.47 C 170.45 156.36 170.13 154.89 169.02 154.19 L 168.29 153.72 C 167.18 153.01 165.71 153.34 165.01 154.45 C 164.30 155.55 164.63 157.02 165.74 157.73 Z M 165.82 157.58 L 166.39 158.38 C 167.16 159.44 168.65 159.68 169.71 158.92 C 170.77 158.15 171.01 156.66 170.25 155.60 L 169.67 154.80 C 168.90 153.74 167.42 153.50 166.36 154.26 C 165.29 155.03 165.05 156.51 165.82 157.58 Z M 166.08 157.78 L 166.47 158.86 C 166.90 160.09 168.26 160.74 169.50 160.30 C 170.73 159.86 171.38 158.51 170.94 157.27 L 170.56 156.20 C 170.12 154.96 168.76 154.31 167.53 154.75 C 166.29 155.19 165.65 156.55 166.08 157.78 Z M 166.37 158.49 L 166.51 159.26 C 166.75 160.55 167.98 161.40 169.27 161.16 C 170.56 160.92 171.41 159.69 171.18 158.40 L 171.04 157.64 C 170.80 156.35 169.56 155.49 168.27 155.73 C 166.98 155.97 166.13 157.21 166.37 158.49 Z M 166.48 159.07 L 166.57 159.94 C 166.70 161.24 167.87 162.19 169.17 162.06 C 170.48 161.92 171.43 160.76 171.29 159.45 L 171.20 158.59 C 171.07 157.28 169.90 156.33 168.60 156.47 C 167.30 156.60 166.35 157.77 166.48 159.07 Z M 166.56 159.81 L 166.61 160.78 C 166.67 162.09 167.78 163.10 169.09 163.04 C 170.40 162.97 171.41 161.86 171.35 160.55 L 171.30 159.58 C 171.24 158.27 170.13 157.26 168.82 157.32 C 167.51 157.38 166.50 158.50 166.56 159.81 Z M 166.60 160.69 L 166.62 161.77 C 166.63 163.08 167.71 164.13 169.02 164.11 C 170.33 164.09 171.38 163.02 171.37 161.71 L 171.35 160.63 C 171.34 159.32 170.26 158.27 168.95 158.29 C 167.64 158.30 166.59 159.38 166.60 160.69 Z M 166.61 161.71 L 166.60 162.89 C 166.59 164.20 167.65 165.28 168.96 165.29 C 170.27 165.30 171.35 164.25 171.36 162.93 L 171.37 161.76 C 171.38 160.44 170.33 159.37 169.01 159.36 C 167.70 159.35 166.63 160.40 166.61 161.71 Z M 166.60 162.87 L 166.58 163.99 C 166.56 165.30 167.60 166.39 168.91 166.42 C 170.23 166.44 171.31 165.40 171.34 164.08 L 171.36 162.96 C 171.39 161.64 170.34 160.56 169.03 160.53 C 167.71 160.51 166.63 161.55 166.60 162.87 Z M 166.58 163.98 L 166.56 164.92 C 166.52 166.24 167.56 167.33 168.88 167.36 C 170.19 167.39 171.29 166.35 171.32 165.04 L 171.34 164.10 C 171.37 162.78 170.33 161.69 169.02 161.66 C 167.70 161.62 166.61 162.66 166.58 163.98 Z M 166.55 164.91 L 166.52 165.89 C 166.49 167.21 167.52 168.31 168.84 168.34 C 170.16 168.38 171.26 167.34 171.29 166.03 L 171.32 165.05 C 171.36 163.73 170.32 162.63 169.00 162.60 C 167.69 162.56 166.59 163.60 166.55 164.91 Z M 166.52 165.88 L 166.49 166.89 C 166.44 168.21 167.48 169.31 168.80 169.35 C 170.11 169.40 171.22 168.36 171.26 167.04 L 171.30 166.04 C 171.34 164.72 170.31 163.62 168.99 163.57 C 167.67 163.53 166.56 164.56 166.52 165.88 Z M 166.48 166.88 L 166.45 167.90 C 166.40 169.22 167.43 170.33 168.75 170.38 C 170.07 170.43 171.18 169.40 171.23 168.08 L 171.27 167.06 C 171.32 165.74 170.29 164.62 168.97 164.57 C 167.65 164.52 166.53 165.55 166.48 166.88 Z M 166.44 167.89 L 166.40 168.92 C 166.34 170.24 167.37 171.36 168.69 171.41 C 170.01 171.47 171.13 170.45 171.19 169.12 L 171.23 168.09 C 171.29 166.77 170.26 165.65 168.94 165.60 C 167.62 165.54 166.50 166.56 166.44 167.89 Z M 166.39 168.90 L 166.34 169.93 C 166.28 171.26 167.30 172.38 168.62 172.45 C 169.95 172.51 171.07 171.49 171.14 170.17 L 171.19 169.14 C 171.25 167.81 170.23 166.69 168.91 166.62 C 167.59 166.56 166.46 167.58 166.39 168.90 Z M 166.34 169.91 L 166.28 170.93 C 166.21 172.26 167.22 173.39 168.55 173.47 C 169.87 173.54 171.01 172.53 171.08 171.20 L 171.14 170.18 C 171.22 168.86 170.20 167.72 168.88 167.65 C 167.55 167.58 166.42 168.59 166.34 169.91 Z M 166.28 170.91 L 166.22 171.93 C 166.13 173.25 167.14 174.40 168.46 174.48 C 169.79 174.57 170.94 173.56 171.02 172.24 L 171.09 171.22 C 171.17 169.89 170.16 168.75 168.84 168.66 C 167.51 168.58 166.37 169.59 166.28 170.91 Z M 166.22 171.90 L 166.14 172.97 C 166.04 174.30 167.04 175.45 168.36 175.55 C 169.69 175.65 170.84 174.65 170.94 173.33 L 171.02 172.26 C 171.12 170.93 170.12 169.78 168.80 169.68 C 167.47 169.58 166.31 170.58 166.22 171.90 Z M 166.14 172.94 L 166.05 173.98 C 165.94 175.31 166.92 176.47 168.25 176.58 C 169.58 176.70 170.74 175.71 170.85 174.39 L 170.94 173.35 C 171.05 172.03 170.07 170.86 168.74 170.75 C 167.42 170.63 166.25 171.62 166.14 172.94 Z M 166.05 173.95 L 165.96 174.96 C 165.83 176.29 166.80 177.46 168.12 177.59 C 169.45 177.72 170.63 176.75 170.76 175.42 L 170.85 174.41 C 170.98 173.09 170.01 171.91 168.68 171.78 C 167.36 171.66 166.18 172.63 166.05 173.95 Z M 165.96 174.93 L 165.85 175.92 C 165.71 177.24 166.67 178.43 167.99 178.57 C 169.31 178.72 170.50 177.76 170.65 176.43 L 170.75 175.45 C 170.90 174.13 169.94 172.94 168.61 172.79 C 167.29 172.65 166.10 173.61 165.96 174.93 Z M 165.85 175.89 L 165.74 176.85 C 165.58 178.17 166.52 179.38 167.84 179.54 C 169.17 179.70 170.37 178.75 170.53 177.43 L 170.64 176.46 C 170.80 175.14 169.86 173.94 168.54 173.78 C 167.22 173.62 166.01 174.56 165.85 175.89 Z M 165.74 176.82 L 165.61 177.77 C 165.44 179.09 166.37 180.31 167.69 180.48 C 169.01 180.66 170.22 179.73 170.40 178.41 L 170.52 177.46 C 170.70 176.14 169.77 174.93 168.45 174.75 C 167.13 174.57 165.92 175.50 165.74 176.82 Z M 165.62 177.74 L 165.48 178.68 C 165.29 180.00 166.20 181.23 167.52 181.42 C 168.84 181.61 170.06 180.70 170.26 179.38 L 170.39 178.44 C 170.59 177.12 169.67 175.90 168.36 175.70 C 167.04 175.51 165.81 176.42 165.62 177.74 Z M 165.48 178.65 L 165.32 179.68 C 165.11 180.99 166.01 182.23 167.32 182.44 C 168.64 182.65 169.88 181.76 170.09 180.44 L 170.25 179.41 C 170.46 178.10 169.57 176.86 168.25 176.65 C 166.93 176.44 165.69 177.33 165.48 178.65 Z M 165.32 179.65 L 165.14 180.68 C 164.92 182.00 165.80 183.25 167.11 183.48 C 168.42 183.71 169.67 182.83 169.90 181.51 L 170.08 180.47 C 170.31 179.16 169.43 177.91 168.12 177.68 C 166.80 177.45 165.55 178.33 165.32 179.65 Z M 165.15 180.65 L 164.96 181.67 C 164.71 182.98 165.58 184.25 166.89 184.49 C 168.20 184.74 169.46 183.87 169.71 182.56 L 169.90 181.54 C 170.14 180.23 169.28 178.97 167.97 178.73 C 166.66 178.48 165.40 179.34 165.15 180.65 Z M 164.96 181.64 L 164.77 182.64 C 164.50 183.94 165.35 185.22 166.66 185.48 C 167.96 185.74 169.24 184.89 169.50 183.59 L 169.70 182.59 C 169.96 181.29 169.11 180.01 167.81 179.75 C 166.50 179.49 165.23 180.33 164.96 181.64 Z M 164.77 182.60 L 164.57 183.56 C 164.29 184.87 165.12 186.15 166.42 186.43 C 167.73 186.71 169.01 185.88 169.29 184.57 L 169.49 183.62 C 169.77 182.31 168.94 181.03 167.64 180.75 C 166.33 180.47 165.05 181.30 164.77 182.60 Z M 164.57 183.53 L 164.36 184.45 C 164.07 185.75 164.88 187.04 166.18 187.34 C 167.48 187.64 168.78 186.82 169.07 185.52 L 169.28 184.61 C 169.58 183.31 168.76 182.01 167.46 181.71 C 166.16 181.42 164.87 182.23 164.57 183.53 Z M 164.37 184.42 L 164.14 185.35 C 163.83 186.65 164.62 187.96 165.92 188.27 C 167.22 188.59 168.52 187.79 168.84 186.49 L 169.06 185.56 C 169.38 184.26 168.58 182.95 167.29 182.64 C 165.99 182.32 164.69 183.12 164.37 184.42 Z M 164.15 185.31 L 163.87 186.40 C 163.53 187.69 164.30 189.01 165.59 189.35 C 166.88 189.69 168.20 188.92 168.54 187.63 L 168.83 186.54 C 169.16 185.25 168.39 183.93 167.10 183.59 C 165.81 183.25 164.49 184.02 164.15 185.31 Z M 163.88 186.35 L 163.60 187.36 C 163.23 188.64 163.97 189.97 165.26 190.34 C 166.54 190.71 167.88 189.96 168.24 188.68 L 168.53 187.68 C 168.89 186.39 168.15 185.06 166.87 184.69 C 165.58 184.33 164.25 185.07 163.88 186.35 Z M 163.61 187.31 L 163.33 188.23 C 162.93 189.51 163.65 190.86 164.92 191.25 C 166.19 191.64 167.55 190.93 167.94 189.66 L 168.23 188.73 C 168.62 187.46 167.90 186.10 166.63 185.71 C 165.36 185.32 164.00 186.03 163.61 187.31 Z M 163.34 188.18 L 163.06 189.04 C 162.64 190.31 163.32 191.67 164.58 192.09 C 165.85 192.51 167.22 191.83 167.64 190.57 L 167.92 189.71 C 168.34 188.44 167.66 187.08 166.39 186.65 C 165.13 186.23 163.76 186.92 163.34 188.18 Z M 163.08 188.99 L 162.75 189.89 C 162.30 191.14 162.96 192.52 164.21 192.97 C 165.46 193.42 166.85 192.77 167.30 191.52 L 167.62 190.62 C 168.07 189.36 167.42 187.98 166.16 187.53 C 164.91 187.08 163.53 187.73 163.08 188.99 Z M 162.78 189.82 L 162.39 190.81 C 161.91 192.05 162.52 193.44 163.76 193.93 C 165.00 194.41 166.40 193.80 166.89 192.56 L 167.27 191.58 C 167.76 190.34 167.14 188.94 165.90 188.46 C 164.66 187.97 163.26 188.58 162.78 189.82 Z M 162.43 190.73 L 162.04 191.63 C 161.51 192.85 162.07 194.27 163.29 194.80 C 164.51 195.33 165.93 194.77 166.46 193.55 L 166.85 192.64 C 167.38 191.42 166.82 190.00 165.60 189.47 C 164.38 188.94 162.96 189.50 162.43 190.73 Z M 162.08 191.54 L 161.67 192.39 C 161.09 193.58 161.59 195.02 162.79 195.60 C 163.99 196.18 165.43 195.68 166.01 194.48 L 166.41 193.64 C 166.99 192.44 166.49 191.00 165.30 190.42 C 164.10 189.84 162.66 190.35 162.08 191.54 Z M 161.73 192.28 L 161.25 193.16 C 160.61 194.33 161.04 195.79 162.21 196.43 C 163.38 197.06 164.84 196.63 165.47 195.46 L 165.95 194.58 C 166.59 193.42 166.16 191.96 164.99 191.32 C 163.82 190.69 162.36 191.12 161.73 192.28 Z M 161.31 193.06 L 160.79 193.91 C 160.09 195.04 160.45 196.52 161.58 197.22 C 162.71 197.91 164.19 197.56 164.88 196.43 L 165.41 195.57 C 166.10 194.44 165.75 192.96 164.62 192.27 C 163.49 191.57 162.01 191.93 161.31 193.06 Z M 160.86 193.81 L 160.30 194.62 C 159.55 195.72 159.83 197.21 160.92 197.96 C 162.02 198.71 163.51 198.43 164.26 197.34 L 164.82 196.53 C 165.56 195.43 165.29 193.94 164.19 193.19 C 163.10 192.44 161.60 192.72 160.86 193.81 Z M 160.37 194.53 L 159.77 195.32 C 158.97 196.37 159.18 197.88 160.24 198.68 C 161.29 199.48 162.79 199.27 163.59 198.21 L 164.19 197.43 C 164.99 196.37 164.78 194.87 163.73 194.07 C 162.67 193.27 161.17 193.48 160.37 194.53 Z M 159.87 195.21 L 159.22 195.97 C 158.36 196.97 158.48 198.48 159.48 199.34 C 160.49 200.20 162.00 200.08 162.86 199.07 L 163.50 198.32 C 164.36 197.32 164.24 195.81 163.24 194.95 C 162.23 194.09 160.72 194.21 159.87 195.21 Z M 159.36 195.83 L 158.65 196.53 C 157.71 197.46 157.71 198.97 158.64 199.91 C 159.56 200.84 161.08 200.85 162.01 199.92 L 162.72 199.21 C 163.66 198.28 163.66 196.77 162.73 195.84 C 161.80 194.90 160.29 194.90 159.36 195.83 Z M 158.82 196.38 L 158.05 197.01 C 157.04 197.84 156.88 199.34 157.71 200.36 C 158.54 201.38 160.04 201.53 161.06 200.70 L 161.83 200.07 C 162.85 199.24 163.00 197.74 162.17 196.72 C 161.34 195.70 159.84 195.55 158.82 196.38 Z M 158.25 196.87 L 157.43 197.42 C 156.33 198.14 156.03 199.61 156.75 200.70 C 157.47 201.80 158.94 202.10 160.04 201.38 L 160.86 200.83 C 161.96 200.11 162.26 198.64 161.54 197.55 C 160.82 196.46 159.35 196.15 158.25 196.87 Z M 157.63 197.31 L 156.74 197.78 C 155.58 198.38 155.14 199.81 155.75 200.97 C 156.35 202.12 157.78 202.57 158.94 201.96 L 159.83 201.49 C 160.98 200.88 161.43 199.46 160.82 198.30 C 160.22 197.15 158.79 196.70 157.63 197.31 Z M 156.96 197.68 L 156.03 198.06 C 154.82 198.54 154.24 199.91 154.72 201.12 C 155.21 202.33 156.58 202.91 157.79 202.42 L 158.72 202.05 C 159.92 201.57 160.51 200.20 160.02 198.99 C 159.54 197.78 158.17 197.20 156.96 197.68 Z M 156.25 198.00 L 155.34 198.26 C 154.10 198.62 153.39 199.92 153.75 201.16 C 154.11 202.40 155.41 203.11 156.65 202.75 L 157.56 202.49 C 158.80 202.13 159.51 200.83 159.15 199.59 C 158.79 198.35 157.49 197.64 156.25 198.00 Z M 155.55 198.23 L 154.58 198.42 C 153.32 198.67 152.51 199.89 152.75 201.14 C 153.00 202.40 154.22 203.22 155.47 202.97 L 156.44 202.78 C 157.69 202.54 158.51 201.32 158.27 200.06 C 158.02 198.81 156.80 197.99 155.55 198.23 Z M 154.76 198.41 L 153.73 198.53 C 152.47 198.68 151.56 199.82 151.71 201.08 C 151.86 202.34 153.00 203.25 154.26 203.10 L 155.29 202.98 C 156.55 202.83 157.45 201.69 157.31 200.43 C 157.16 199.17 156.02 198.27 154.76 198.41 Z M 153.87 198.55 L 152.87 198.60 C 151.62 198.67 150.66 199.74 150.72 200.99 C 150.79 202.24 151.86 203.20 153.11 203.14 L 154.11 203.09 C 155.37 203.02 156.33 201.95 156.26 200.70 C 156.20 199.44 155.13 198.48 153.87 198.55 Z M 153.02 198.63 L 152.03 198.62 C 150.79 198.61 149.78 199.60 149.77 200.84 C 149.76 202.07 150.75 203.09 151.98 203.10 L 152.97 203.11 C 154.21 203.12 155.22 202.13 155.23 200.89 C 155.24 199.66 154.25 198.64 153.02 198.63 Z M 152.21 198.67 L 151.20 198.58 C 149.99 198.47 148.92 199.36 148.81 200.57 C 148.70 201.78 149.59 202.85 150.80 202.96 L 151.81 203.05 C 153.02 203.16 154.09 202.27 154.20 201.06 C 154.31 199.85 153.42 198.78 152.21 198.67 Z M 151.41 198.64 L 150.41 198.45 C 149.24 198.22 148.10 198.99 147.88 200.16 C 147.65 201.34 148.41 202.47 149.59 202.70 L 150.59 202.89 C 151.76 203.12 152.90 202.36 153.13 201.18 C 153.36 200.01 152.59 198.87 151.41 198.64 Z M 150.66 198.56 L 149.70 198.24 C 148.58 197.88 147.38 198.48 147.02 199.59 C 146.65 200.71 147.26 201.91 148.37 202.27 L 149.34 202.59 C 150.45 202.96 151.65 202.35 152.02 201.24 C 152.38 200.12 151.78 198.92 150.66 198.56 Z M 149.92 198.40 L 149.01 197.96 C 147.98 197.47 146.75 197.90 146.26 198.93 C 145.77 199.95 146.20 201.18 147.23 201.67 L 148.14 202.11 C 149.17 202.60 150.40 202.17 150.89 201.15 C 151.38 200.12 150.95 198.89 149.92 198.40 Z M 149.17 198.13 L 148.31 197.60 C 147.38 197.02 146.16 197.30 145.58 198.23 C 145.00 199.16 145.28 200.39 146.21 200.97 L 147.07 201.50 C 148.00 202.08 149.22 201.80 149.80 200.87 C 150.38 199.94 150.10 198.71 149.17 198.13 Z M 148.42 197.76 L 147.63 197.16 C 146.79 196.52 145.59 196.68 144.95 197.52 C 144.31 198.36 144.47 199.56 145.31 200.20 L 146.10 200.80 C 146.94 201.44 148.14 201.28 148.78 200.44 C 149.42 199.60 149.26 198.40 148.42 197.76 Z M 147.70 197.31 L 146.98 196.66 C 146.22 195.98 145.06 196.04 144.38 196.79 C 143.70 197.55 143.76 198.71 144.51 199.40 L 145.24 200.05 C 145.99 200.73 147.16 200.67 147.84 199.91 C 148.52 199.16 148.46 197.99 147.70 197.31 Z M 147.04 196.80 L 146.36 196.07 C 145.68 195.35 144.54 195.32 143.83 196.00 C 143.11 196.68 143.08 197.81 143.76 198.53 L 144.45 199.26 C 145.13 199.97 146.26 200.00 146.98 199.33 C 147.69 198.65 147.72 197.51 147.04 196.80 Z M 146.42 196.20 L 145.80 195.44 C 145.19 194.69 144.09 194.57 143.34 195.18 C 142.59 195.79 142.47 196.89 143.08 197.64 L 143.70 198.40 C 144.31 199.15 145.41 199.26 146.16 198.66 C 146.91 198.05 147.02 196.95 146.42 196.20 Z M 145.83 195.55 L 145.26 194.74 C 144.72 193.97 143.65 193.79 142.88 194.33 C 142.11 194.88 141.93 195.94 142.47 196.71 L 143.05 197.52 C 143.59 198.29 144.65 198.47 145.42 197.93 C 146.19 197.39 146.38 196.32 145.83 195.55 Z M 145.28 194.83 L 144.74 193.98 C 144.24 193.21 143.21 192.98 142.43 193.47 C 141.65 193.97 141.43 195.00 141.92 195.78 L 142.46 196.62 C 142.95 197.40 143.98 197.63 144.76 197.13 C 145.54 196.64 145.77 195.61 145.28 194.83 Z M 144.75 194.04 L 144.26 193.21 C 143.79 192.43 142.78 192.17 142.00 192.63 C 141.21 193.10 140.95 194.11 141.42 194.90 L 141.91 195.72 C 142.37 196.51 143.39 196.77 144.17 196.30 C 144.96 195.84 145.22 194.82 144.75 194.04 Z M 144.27 193.24 L 143.78 192.37 C 143.33 191.58 142.33 191.30 141.54 191.75 C 140.74 192.20 140.46 193.21 140.91 194.00 L 141.40 194.86 C 141.85 195.66 142.86 195.94 143.65 195.49 C 144.44 195.04 144.72 194.03 144.27 193.24 Z M 143.79 192.39 L 143.30 191.50 C 142.86 190.70 141.86 190.41 141.06 190.85 C 140.27 191.29 139.98 192.29 140.41 193.08 L 140.91 193.98 C 141.34 194.77 142.34 195.06 143.14 194.63 C 143.93 194.19 144.22 193.19 143.79 192.39 Z M 143.30 191.51 L 142.81 190.60 C 142.38 189.81 141.38 189.51 140.59 189.94 C 139.79 190.37 139.49 191.37 139.92 192.16 L 140.41 193.07 C 140.84 193.87 141.84 194.16 142.64 193.73 C 143.43 193.30 143.73 192.31 143.30 191.51 Z M 142.81 190.61 L 142.75 190.50 C 142.32 189.71 141.33 189.41 140.53 189.84 C 139.74 190.27 139.44 191.26 139.87 192.06 L 139.92 192.16 C 140.35 192.95 141.34 193.25 142.14 192.82 C 142.94 192.39 143.23 191.40 142.81 190.61 Z"
      fill="black"
      fill-rule="nonzero" /></svg>