<svg xmlns="http://www.w3.org/2000/svg" width="300" height="300" viewBox="0 0 300 300">
<path d="M 130.79 116.72 L 130.27 117.57 C 129.63 118.62 129.96 120.00 131.01 120.64 C 132.06 121.28 133.43 120.95 134.07 119.90 L 134.59 119.05 C 135.23 118.00 134.90 116.62 133.85 115.98 C 132.80 115.34 131.43 115.67 130.79 116.72 Z M 130.17 117.62 L 129.69 118.48 C 129.07 119.59 129.46 120.98 130.57 121.60 C 131.67 122.22 133.07 121.82 133.69 120.72 L 134.17 119.85 C 134.79 118.75 134.39 117.35 133.29 116.73 C 132.18 116.12 130.79 116.51 130.17 117.62 Z M 129.55 118.61 L 129.13 119.52 C 128.59 120.70 129.10 122.10 130.28 122.64 C 131.46 123.19 132.86 122.67 133.40 121.49 L 133.82 120.59 C 134.37 119.41 133.85 118.01 132.67 117.47 C 131.49 116.92 130.10 117.43 129.55 118.61 Z M 128.98 119.75 L 128.66 120.70 C 128.24 121.96 128.93 123.33 130.19 123.75 C 131.45 124.17 132.82 123.48 133.24 122.22 L 133.55 121.27 C 133.97 120.00 133.29 118.64 132.03 118.22 C 130.76 117.80 129.40 118.48 128.98 119.75 Z M 128.56 120.98 L 128.37 121.95 C 128.10 123.27 128.95 124.56 130.27 124.82 C 131.59 125.09 132.88 124.23 133.14 122.92 L 133.34 121.94 C 133.60 120.62 132.75 119.34 131.43 119.07 C 130.11 118.81 128.83 119.66 128.56 120.98 Z M 128.33 122.17 L 128.22 123.18 C 128.08 124.52 129.05 125.72 130.39 125.86 C 131.73 126.01 132.93 125.04 133.07 123.70 L 133.18 122.69 C 133.32 121.35 132.35 120.15 131.01 120.01 C 129.67 119.86 128.47 120.83 128.33 122.17 Z M 128.20 123.34 L 128.17 124.35 C 128.11 125.70 129.16 126.83 130.51 126.89 C 131.86 126.94 132.99 125.89 133.05 124.54 L 133.09 123.53 C 133.14 122.19 132.09 121.05 130.74 121.00 C 129.39 120.94 128.26 121.99 128.20 123.34 Z M 128.16 124.46 L 128.17 125.44 C 128.18 126.79 129.28 127.87 130.63 127.87 C 131.98 127.86 133.07 126.75 133.06 125.40 L 133.05 124.43 C 133.04 123.08 131.94 121.99 130.59 122.00 C 129.24 122.01 128.15 123.11 128.16 124.46 Z M 128.17 125.52 L 128.21 126.39 C 128.26 127.74 129.40 128.78 130.75 128.73 C 132.10 128.67 133.15 127.54 133.09 126.19 L 133.05 125.32 C 133.00 123.97 131.86 122.92 130.51 122.98 C 129.16 123.03 128.12 124.17 128.17 125.52 Z M 128.22 126.49 L 128.29 127.39 C 128.40 128.73 129.58 129.73 130.92 129.61 C 132.27 129.50 133.26 128.33 133.15 126.98 L 133.08 126.09 C 132.97 124.74 131.79 123.75 130.45 123.86 C 129.11 123.97 128.11 125.15 128.22 126.49 Z M 128.31 127.49 L 128.44 128.48 C 128.61 129.81 129.83 130.76 131.16 130.58 C 132.49 130.41 133.43 129.20 133.26 127.86 L 133.13 126.88 C 132.96 125.54 131.75 124.60 130.41 124.77 C 129.08 124.94 128.14 126.16 128.31 127.49 Z M 128.46 128.58 L 128.65 129.72 C 128.88 131.04 130.13 131.93 131.45 131.70 C 132.77 131.48 133.66 130.23 133.43 128.91 L 133.24 127.77 C 133.02 126.45 131.76 125.56 130.44 125.78 C 129.12 126.01 128.23 127.26 128.46 128.58 Z M 128.67 129.78 L 128.87 130.80 C 129.13 132.11 130.41 132.96 131.72 132.70 C 133.03 132.44 133.88 131.17 133.62 129.86 L 133.41 128.84 C 133.15 127.53 131.88 126.68 130.57 126.94 C 129.26 127.20 128.41 128.47 128.67 129.78 Z M 128.89 130.84 L 129.09 131.80 C 129.38 133.10 130.66 133.93 131.96 133.65 C 133.26 133.37 134.09 132.09 133.81 130.78 L 133.60 129.82 C 133.32 128.52 132.04 127.69 130.74 127.97 C 129.43 128.25 128.61 129.54 128.89 130.84 Z M 129.11 131.82 L 129.33 132.83 C 129.63 134.13 130.91 134.94 132.21 134.65 C 133.51 134.36 134.32 133.07 134.03 131.77 L 133.80 130.76 C 133.51 129.47 132.22 128.65 130.92 128.95 C 129.63 129.24 128.81 130.53 129.11 131.82 Z M 129.34 132.85 L 129.58 133.88 C 129.89 135.17 131.17 135.97 132.47 135.67 C 133.76 135.37 134.56 134.08 134.26 132.79 L 134.02 131.76 C 133.72 130.47 132.43 129.67 131.14 129.97 C 129.85 130.27 129.04 131.56 129.34 132.85 Z M 129.59 133.89 L 129.84 134.91 C 130.14 136.19 131.43 136.99 132.72 136.68 C 134.00 136.38 134.80 135.09 134.49 133.80 L 134.25 132.78 C 133.94 131.50 132.65 130.70 131.37 131.01 C 130.08 131.31 129.29 132.60 129.59 133.89 Z M 129.84 134.91 L 130.08 135.89 C 130.39 137.17 131.67 137.96 132.96 137.65 C 134.24 137.35 135.03 136.06 134.72 134.78 L 134.48 133.80 C 134.18 132.52 132.89 131.73 131.61 132.03 C 130.32 132.34 129.54 133.63 129.84 134.91 Z M 130.09 135.89 L 130.30 136.80 C 130.61 138.08 131.90 138.86 133.17 138.56 C 134.45 138.25 135.24 136.96 134.93 135.69 L 134.71 134.78 C 134.40 133.50 133.12 132.71 131.84 133.02 C 130.56 133.33 129.78 134.61 130.09 135.89 Z M 130.32 136.79 L 130.60 137.98 C 130.91 139.25 132.18 140.04 133.45 139.73 C 134.72 139.43 135.50 138.16 135.20 136.89 L 134.92 135.69 C 134.61 134.42 133.34 133.64 132.07 133.94 C 130.80 134.25 130.02 135.52 130.32 136.79 Z M 130.63 137.97 L 130.87 139.01 C 131.17 140.26 132.42 141.04 133.68 140.75 C 134.93 140.46 135.71 139.20 135.42 137.94 L 135.18 136.90 C 134.88 135.65 133.62 134.87 132.37 135.16 C 131.11 135.46 130.33 136.71 130.63 137.97 Z M 130.90 138.99 L 131.11 139.89 C 131.39 141.13 132.63 141.91 133.87 141.62 C 135.11 141.34 135.89 140.10 135.60 138.86 L 135.39 137.96 C 135.11 136.72 133.87 135.94 132.63 136.23 C 131.39 136.51 130.61 137.75 130.90 138.99 Z M 131.13 139.88 L 131.32 140.70 C 131.59 141.93 132.81 142.70 134.04 142.42 C 135.27 142.14 136.04 140.93 135.76 139.70 L 135.58 138.88 C 135.30 137.65 134.08 136.88 132.85 137.15 C 131.63 137.43 130.85 138.65 131.13 139.88 Z M 131.34 140.69 L 131.54 141.58 C 131.81 142.80 133.01 143.56 134.23 143.29 C 135.44 143.02 136.21 141.82 135.94 140.61 L 135.74 139.71 C 135.47 138.50 134.26 137.73 133.05 138.00 C 131.84 138.27 131.07 139.47 131.34 140.69 Z M 131.55 141.57 L 131.77 142.54 C 132.03 143.75 133.22 144.51 134.43 144.24 C 135.63 143.98 136.40 142.79 136.13 141.58 L 135.92 140.61 C 135.66 139.41 134.46 138.65 133.26 138.91 C 132.05 139.18 131.29 140.37 131.55 141.57 Z M 131.78 142.53 L 131.99 143.51 C 132.25 144.71 133.43 145.47 134.63 145.21 C 135.83 144.95 136.59 143.77 136.33 142.57 L 136.12 141.59 C 135.86 140.39 134.68 139.63 133.48 139.89 C 132.28 140.15 131.52 141.33 131.78 142.53 Z M 132.01 143.50 L 132.22 144.50 C 132.48 145.69 133.65 146.44 134.84 146.19 C 136.03 145.93 136.78 144.76 136.53 143.57 L 136.32 142.58 C 136.06 141.39 134.89 140.63 133.70 140.89 C 132.51 141.14 131.75 142.31 132.01 143.50 Z M 132.24 144.49 L 132.44 145.45 C 132.69 146.63 133.85 147.39 135.03 147.14 C 136.21 146.89 136.97 145.73 136.72 144.55 L 136.51 143.58 C 136.26 142.40 135.10 141.65 133.92 141.90 C 132.74 142.15 131.99 143.31 132.24 144.49 Z M 132.46 145.44 L 132.66 146.42 C 132.91 147.59 134.06 148.34 135.23 148.09 C 136.40 147.85 137.15 146.70 136.90 145.53 L 136.70 144.56 C 136.45 143.39 135.31 142.64 134.14 142.88 C 132.97 143.13 132.22 144.27 132.46 145.44 Z M 132.68 146.41 L 132.89 147.39 C 133.13 148.55 134.26 149.30 135.42 149.06 C 136.58 148.82 137.33 147.68 137.09 146.52 L 136.88 145.54 C 136.64 144.38 135.51 143.63 134.35 143.87 C 133.19 144.11 132.44 145.25 132.68 146.41 Z M 132.91 147.39 L 133.11 148.37 C 133.34 149.52 134.47 150.26 135.62 150.03 C 136.76 149.79 137.51 148.67 137.27 147.52 L 137.07 146.53 C 136.83 145.38 135.71 144.64 134.56 144.88 C 133.41 145.11 132.67 146.24 132.91 147.39 Z M 133.13 148.37 L 133.32 149.33 C 133.56 150.46 134.67 151.20 135.80 150.97 C 136.94 150.74 137.68 149.63 137.45 148.49 L 137.25 147.53 C 137.02 146.39 135.91 145.65 134.77 145.89 C 133.63 146.12 132.90 147.23 133.13 148.37 Z M 133.34 149.32 L 133.54 150.30 C 133.77 151.42 134.87 152.15 136.00 151.92 C 137.13 151.69 137.85 150.59 137.62 149.47 L 137.43 148.49 C 137.20 147.36 136.10 146.64 134.97 146.87 C 133.84 147.10 133.11 148.20 133.34 149.32 Z M 133.56 150.30 L 133.77 151.29 C 134.00 152.40 135.09 153.12 136.20 152.89 C 137.32 152.66 138.04 151.57 137.81 150.45 L 137.60 149.47 C 137.37 148.35 136.28 147.63 135.17 147.86 C 134.05 148.09 133.33 149.18 133.56 150.30 Z M 133.79 151.29 L 134.00 152.29 C 134.23 153.40 135.31 154.10 136.42 153.87 C 137.52 153.64 138.23 152.56 138.00 151.45 L 137.79 150.45 C 137.55 149.35 136.47 148.64 135.37 148.87 C 134.26 149.10 133.56 150.19 133.79 151.29 Z M 134.02 152.30 L 134.23 153.30 C 134.47 154.39 135.54 155.08 136.64 154.85 C 137.73 154.61 138.42 153.54 138.19 152.45 L 137.98 151.45 C 137.74 150.36 136.67 149.66 135.57 149.89 C 134.48 150.13 133.79 151.21 134.02 152.30 Z M 134.25 153.29 L 134.47 154.29 C 134.70 155.37 135.77 156.06 136.85 155.82 C 137.93 155.59 138.62 154.52 138.39 153.44 L 138.17 152.45 C 137.94 151.37 136.87 150.68 135.79 150.91 C 134.71 151.15 134.02 152.21 134.25 153.29 Z M 134.49 154.28 L 134.70 155.25 C 134.93 156.32 135.98 157.01 137.05 156.78 C 138.12 156.55 138.81 155.49 138.58 154.42 L 138.37 153.45 C 138.14 152.38 137.08 151.70 136.01 151.93 C 134.94 152.16 134.26 153.21 134.49 154.28 Z M 134.71 155.24 L 134.91 156.18 C 135.14 157.24 136.18 157.92 137.24 157.70 C 138.30 157.47 138.98 156.43 138.76 155.37 L 138.56 154.43 C 138.33 153.37 137.29 152.69 136.23 152.92 C 135.17 153.14 134.49 154.18 134.71 155.24 Z M 134.93 156.17 L 135.12 157.10 C 135.34 158.15 136.36 158.83 137.42 158.62 C 138.47 158.40 139.15 157.37 138.93 156.32 L 138.74 155.39 C 138.52 154.33 137.50 153.66 136.44 153.87 C 135.39 154.09 134.71 155.11 134.93 156.17 Z M 135.14 157.10 L 135.33 158.04 C 135.55 159.08 136.57 159.75 137.61 159.54 C 138.65 159.32 139.32 158.30 139.10 157.26 L 138.91 156.32 C 138.70 155.28 137.68 154.61 136.64 154.83 C 135.60 155.04 134.93 156.06 135.14 157.10 Z M 135.36 158.05 L 135.57 159.05 C 135.79 160.08 136.81 160.73 137.84 160.51 C 138.87 160.29 139.52 159.28 139.30 158.25 L 139.08 157.25 C 138.86 156.22 137.85 155.57 136.82 155.79 C 135.79 156.01 135.14 157.03 135.36 158.05 Z M 135.60 159.07 L 135.83 160.07 C 136.06 161.09 137.07 161.72 138.09 161.49 C 139.10 161.26 139.74 160.24 139.50 159.23 L 139.27 158.23 C 139.04 157.21 138.03 156.58 137.01 156.81 C 136.00 157.04 135.36 158.06 135.60 159.07 Z M 135.85 160.10 L 136.07 161.01 C 136.32 162.02 137.33 162.63 138.34 162.38 C 139.34 162.14 139.96 161.12 139.71 160.12 L 139.48 159.20 C 139.24 158.20 138.22 157.59 137.22 157.83 C 136.21 158.08 135.60 159.09 135.85 160.10 Z M 136.09 161.05 L 136.35 162.01 C 136.62 163.00 137.64 163.59 138.63 163.33 C 139.62 163.06 140.21 162.04 139.94 161.05 L 139.69 160.08 C 139.42 159.09 138.40 158.50 137.41 158.77 C 136.42 159.03 135.83 160.05 136.09 161.05 Z M 136.38 162.06 L 136.67 163.04 C 136.96 164.02 137.99 164.58 138.97 164.29 C 139.95 164.00 140.50 162.97 140.21 161.99 L 139.92 161.00 C 139.63 160.03 138.60 159.47 137.62 159.76 C 136.64 160.05 136.09 161.08 136.38 162.06 Z M 136.70 163.10 L 137.04 164.09 C 137.36 165.05 138.40 165.57 139.36 165.25 C 140.32 164.92 140.84 163.88 140.51 162.92 L 140.18 161.93 C 139.86 160.97 138.82 160.46 137.86 160.78 C 136.90 161.10 136.38 162.14 136.70 163.10 Z M 137.08 164.16 L 137.45 165.13 C 137.81 166.07 138.87 166.53 139.80 166.17 C 140.74 165.81 141.21 164.75 140.85 163.82 L 140.47 162.85 C 140.11 161.91 139.06 161.45 138.12 161.81 C 137.18 162.17 136.71 163.23 137.08 164.16 Z M 137.50 165.21 L 137.91 166.14 C 138.32 167.05 139.38 167.46 140.29 167.05 C 141.20 166.65 141.61 165.58 141.21 164.67 L 140.80 163.74 C 140.39 162.83 139.33 162.42 138.41 162.82 C 137.50 163.23 137.09 164.29 137.50 165.21 Z M 137.96 166.20 L 138.40 167.09 C 138.84 167.98 139.91 168.34 140.80 167.90 C 141.68 167.47 142.04 166.39 141.61 165.51 L 141.16 164.61 C 140.73 163.73 139.65 163.36 138.77 163.80 C 137.88 164.24 137.52 165.31 137.96 166.20 Z M 138.44 167.14 L 138.91 168.01 C 139.37 168.87 140.44 169.20 141.31 168.74 C 142.17 168.28 142.49 167.21 142.03 166.34 L 141.57 165.47 C 141.11 164.61 140.03 164.28 139.17 164.74 C 138.31 165.20 137.98 166.27 138.44 167.14 Z M 138.94 168.03 L 139.42 168.89 C 139.90 169.74 140.97 170.04 141.81 169.57 C 142.65 169.10 142.96 168.03 142.48 167.18 L 142.00 166.32 C 141.53 165.48 140.46 165.18 139.62 165.65 C 138.77 166.12 138.47 167.19 138.94 168.03 Z M 139.44 168.90 L 139.80 169.52 C 140.28 170.36 141.34 170.65 142.17 170.17 C 143.00 169.69 143.29 168.63 142.82 167.80 L 142.46 167.18 C 141.99 166.34 140.93 166.05 140.09 166.53 C 139.26 167.01 138.97 168.07 139.44 168.90 Z"
      fill="black"
      fill-rule="nonzero" /><path d="M 140.51 112.77 L 139.39 113.38 C 138.27 113.99 137.85 115.40 138.46 116.52 C 139.07 117.64 140.48 118.06 141.60 117.45 L 142.72 116.84 C 143.84 116.23 144.26 114.83 143.65 113.70 C 143.04 112.58 141.64 112.16 140.51 112.77 Z M 138.60 114.12 L 138.25 114.63 C 137.53 115.68 137.80 117.11 138.85 117.82 C 139.90 118.54 141.34 118.27 142.05 117.22 L 142.40 116.71 C 143.12 115.66 142.85 114.23 141.80 113.51 C 140.75 112.80 139.32 113.07 138.60 114.12 Z M 139.22 118.01 L 139.73 118.24 C 140.88 118.76 142.23 118.24 142.75 117.09 C 143.27 115.94 142.75 114.58 141.60 114.07 L 141.09 113.84 C 139.93 113.32 138.58 113.84 138.07 114.99 C 137.55 116.14 138.06 117.49 139.22 118.01 Z M 140.30 118.39 L 141.16 118.53 C 142.40 118.73 143.56 117.89 143.76 116.65 C 143.96 115.42 143.12 114.25 141.88 114.05 L 141.03 113.91 C 139.79 113.71 138.62 114.55 138.42 115.79 C 138.22 117.03 139.07 118.19 140.30 118.39 Z M 141.31 118.53 L 142.42 118.64 C 143.66 118.76 144.76 117.85 144.87 116.61 C 144.99 115.37 144.09 114.27 142.85 114.16 L 141.73 114.05 C 140.50 113.93 139.40 114.84 139.28 116.08 C 139.16 117.32 140.07 118.42 141.31 118.53 Z M 142.47 118.63 L 143.71 118.72 C 144.94 118.81 146.01 117.89 146.10 116.65 C 146.19 115.42 145.27 114.35 144.04 114.26 L 142.80 114.17 C 141.56 114.08 140.49 115.00 140.40 116.23 C 140.31 117.47 141.24 118.54 142.47 118.63 Z M 143.71 118.71 L 144.84 118.79 C 146.06 118.88 147.13 117.96 147.22 116.74 C 147.31 115.51 146.39 114.45 145.17 114.36 L 144.04 114.27 C 142.81 114.18 141.75 115.10 141.65 116.32 C 141.56 117.55 142.48 118.62 143.71 118.71 Z M 144.82 118.78 L 145.84 118.87 C 147.05 118.97 148.13 118.07 148.23 116.85 C 148.33 115.63 147.43 114.56 146.21 114.45 L 145.19 114.37 C 143.97 114.26 142.90 115.17 142.80 116.39 C 142.69 117.60 143.60 118.68 144.82 118.78 Z M 145.80 118.86 L 146.80 118.96 C 148.01 119.08 149.09 118.19 149.21 116.98 C 149.34 115.76 148.45 114.68 147.24 114.56 L 146.24 114.46 C 145.03 114.34 143.95 115.23 143.83 116.44 C 143.70 117.65 144.59 118.74 145.80 118.86 Z M 146.76 118.95 L 147.74 119.06 C 148.94 119.20 150.04 118.34 150.18 117.13 C 150.32 115.92 149.46 114.83 148.25 114.69 L 147.28 114.57 C 146.07 114.43 144.97 115.29 144.83 116.50 C 144.69 117.71 145.55 118.80 146.76 118.95 Z M 147.69 119.05 L 148.66 119.18 C 149.86 119.35 150.97 118.51 151.13 117.31 C 151.30 116.11 150.46 115.00 149.26 114.84 L 148.30 114.70 C 147.10 114.53 145.99 115.37 145.82 116.57 C 145.65 117.77 146.49 118.88 147.69 119.05 Z M 148.60 119.17 L 149.58 119.34 C 150.78 119.53 151.91 118.72 152.10 117.53 C 152.30 116.33 151.49 115.20 150.30 115.01 L 149.32 114.84 C 148.12 114.65 146.99 115.46 146.79 116.65 C 146.60 117.85 147.41 118.98 148.60 119.17 Z M 149.53 119.33 L 150.52 119.52 C 151.71 119.75 152.86 118.97 153.09 117.77 C 153.32 116.58 152.53 115.43 151.34 115.20 L 150.35 115.01 C 149.16 114.78 148.01 115.56 147.78 116.76 C 147.55 117.95 148.33 119.10 149.53 119.33 Z M 150.46 119.52 L 151.44 119.73 C 152.63 119.99 153.81 119.23 154.07 118.04 C 154.33 116.85 153.57 115.67 152.38 115.42 L 151.40 115.20 C 150.21 114.94 149.03 115.70 148.77 116.89 C 148.51 118.08 149.27 119.26 150.46 119.52 Z M 151.39 119.73 L 152.36 119.96 C 153.55 120.25 154.75 119.52 155.04 118.33 C 155.32 117.14 154.59 115.94 153.40 115.66 L 152.43 115.42 C 151.24 115.13 150.05 115.86 149.76 117.05 C 149.47 118.24 150.20 119.44 151.39 119.73 Z M 152.30 119.96 L 153.26 120.22 C 154.44 120.54 155.67 119.83 155.99 118.65 C 156.31 117.46 155.60 116.24 154.42 115.92 L 153.46 115.66 C 152.27 115.34 151.05 116.04 150.73 117.23 C 150.41 118.42 151.11 119.64 152.30 119.96 Z M 153.20 120.21 L 154.19 120.51 C 155.37 120.86 156.62 120.18 156.97 119.00 C 157.32 117.82 156.65 116.57 155.47 116.22 L 154.47 115.92 C 153.29 115.57 152.05 116.25 151.69 117.43 C 151.34 118.61 152.01 119.86 153.20 120.21 Z M 154.12 120.50 L 155.10 120.82 C 156.28 121.21 157.55 120.57 157.94 119.39 C 158.33 118.21 157.69 116.94 156.51 116.55 L 155.53 116.23 C 154.35 115.84 153.08 116.48 152.69 117.66 C 152.30 118.84 152.94 120.11 154.12 120.50 Z M 155.03 120.81 L 155.97 121.15 C 157.14 121.58 158.44 120.98 158.87 119.81 C 159.30 118.63 158.70 117.34 157.52 116.91 L 156.58 116.56 C 155.41 116.13 154.11 116.73 153.68 117.91 C 153.25 119.08 153.85 120.38 155.03 120.81 Z M 155.88 121.13 L 156.78 121.50 C 157.95 121.98 159.27 121.42 159.75 120.26 C 160.23 119.10 159.67 117.77 158.51 117.29 L 157.61 116.92 C 156.44 116.45 155.12 117.01 154.64 118.17 C 154.16 119.33 154.72 120.66 155.88 121.13 Z M 156.69 121.47 L 157.58 121.89 C 158.73 122.41 160.08 121.91 160.61 120.77 C 161.14 119.62 160.64 118.26 159.50 117.73 L 158.60 117.32 C 157.46 116.79 156.10 117.29 155.57 118.44 C 155.04 119.59 155.54 120.94 156.69 121.47 Z M 157.46 121.84 L 158.38 122.32 C 159.50 122.92 160.89 122.49 161.48 121.37 C 162.08 120.25 161.65 118.86 160.53 118.27 L 159.61 117.78 C 158.49 117.19 157.10 117.61 156.51 118.73 C 155.92 119.86 156.34 121.24 157.46 121.84 Z M 158.25 122.25 L 159.09 122.78 C 160.18 123.45 161.59 123.11 162.26 122.03 C 162.93 120.95 162.60 119.53 161.51 118.86 L 160.66 118.34 C 159.58 117.67 158.16 118.00 157.50 119.09 C 156.83 120.17 157.16 121.59 158.25 122.25 Z M 158.95 122.69 L 159.73 123.26 C 160.76 124.01 162.21 123.78 162.96 122.74 C 163.70 121.71 163.47 120.27 162.44 119.52 L 161.66 118.95 C 160.63 118.20 159.18 118.43 158.43 119.46 C 157.69 120.50 157.92 121.94 158.95 122.69 Z M 159.58 123.14 L 160.33 123.79 C 161.30 124.62 162.76 124.51 163.59 123.54 C 164.43 122.57 164.32 121.11 163.35 120.28 L 162.60 119.63 C 161.63 118.80 160.17 118.91 159.33 119.88 C 158.50 120.85 158.61 122.31 159.58 123.14 Z M 160.16 123.63 L 160.87 124.37 C 161.75 125.30 163.22 125.33 164.14 124.44 C 165.07 123.56 165.10 122.09 164.22 121.17 L 163.51 120.43 C 162.63 119.51 161.16 119.47 160.23 120.36 C 159.31 121.24 159.28 122.71 160.16 123.63 Z M 160.69 124.17 L 161.29 124.96 C 162.06 125.98 163.51 126.19 164.54 125.41 C 165.56 124.64 165.76 123.19 164.99 122.17 L 164.39 121.37 C 163.62 120.35 162.17 120.15 161.14 120.92 C 160.12 121.69 159.92 123.14 160.69 124.17 Z M 161.11 124.69 L 161.58 125.54 C 162.21 126.66 163.62 127.06 164.74 126.44 C 165.86 125.81 166.26 124.40 165.64 123.28 L 165.17 122.43 C 164.54 121.31 163.13 120.91 162.01 121.54 C 160.89 122.16 160.49 123.57 161.11 124.69 Z M 161.44 125.21 L 161.76 126.10 C 162.21 127.30 163.54 127.91 164.74 127.47 C 165.94 127.03 166.56 125.69 166.11 124.49 L 165.79 123.61 C 165.34 122.41 164.01 121.79 162.81 122.23 C 161.61 122.68 160.99 124.01 161.44 125.21 Z M 161.68 125.79 L 161.88 126.74 C 162.16 127.98 163.39 128.77 164.64 128.50 C 165.89 128.23 166.68 126.99 166.41 125.75 L 166.20 124.80 C 165.92 123.55 164.69 122.76 163.44 123.03 C 162.19 123.31 161.40 124.54 161.68 125.79 Z M 161.85 126.50 L 161.97 127.52 C 162.11 128.79 163.25 129.70 164.52 129.56 C 165.79 129.41 166.70 128.27 166.55 127.00 L 166.44 125.98 C 166.30 124.71 165.15 123.80 163.89 123.95 C 162.62 124.09 161.71 125.23 161.85 126.50 Z M 161.96 127.37 L 162.01 128.40 C 162.07 129.67 163.15 130.65 164.42 130.59 C 165.68 130.54 166.67 129.46 166.61 128.19 L 166.56 127.15 C 166.50 125.88 165.42 124.90 164.15 124.96 C 162.88 125.02 161.90 126.10 161.96 127.37 Z M 162.02 128.30 L 162.03 129.28 C 162.03 130.54 163.05 131.56 164.31 131.56 C 165.57 131.56 166.59 130.54 166.59 129.28 L 166.59 128.29 C 166.59 127.03 165.57 126.01 164.31 126.01 C 163.05 126.01 162.02 127.04 162.02 128.30 Z M 162.05 129.16 L 162.00 130.17 C 161.94 131.42 162.89 132.48 164.14 132.55 C 165.39 132.61 166.45 131.65 166.52 130.40 L 166.57 129.39 C 166.63 128.15 165.67 127.08 164.42 127.02 C 163.18 126.96 162.12 127.91 162.05 129.16 Z M 162.03 130.03 L 161.92 131.04 C 161.77 132.27 162.65 133.38 163.88 133.52 C 165.11 133.67 166.22 132.79 166.36 131.56 L 166.48 130.55 C 166.62 129.32 165.74 128.21 164.52 128.06 C 163.29 127.92 162.18 128.80 162.03 130.03 Z M 161.97 130.86 L 161.77 131.85 C 161.53 133.05 162.31 134.22 163.51 134.46 C 164.71 134.70 165.87 133.92 166.11 132.72 L 166.31 131.73 C 166.55 130.54 165.77 129.37 164.57 129.13 C 163.38 128.89 162.21 129.67 161.97 130.86 Z M 161.85 131.65 L 161.57 132.59 C 161.22 133.74 161.87 134.96 163.03 135.31 C 164.18 135.66 165.40 135.01 165.75 133.85 L 166.04 132.92 C 166.38 131.76 165.73 130.54 164.57 130.19 C 163.42 129.84 162.20 130.50 161.85 131.65 Z M 161.66 132.42 L 161.30 133.33 C 160.86 134.44 161.40 135.69 162.51 136.13 C 163.61 136.57 164.87 136.03 165.30 134.92 L 165.66 134.01 C 166.10 132.91 165.56 131.65 164.45 131.21 C 163.35 130.78 162.09 131.32 161.66 132.42 Z M 161.38 133.22 L 160.95 134.12 C 160.45 135.18 160.91 136.45 161.97 136.95 C 163.03 137.45 164.29 137.00 164.80 135.94 L 165.22 135.03 C 165.72 133.97 165.27 132.71 164.21 132.20 C 163.15 131.70 161.88 132.16 161.38 133.22 Z M 161.02 134.06 L 160.54 134.97 C 160.00 136.00 160.40 137.26 161.42 137.80 C 162.44 138.34 163.71 137.94 164.25 136.92 L 164.73 136.00 C 165.27 134.98 164.87 133.71 163.85 133.17 C 162.82 132.64 161.56 133.03 161.02 134.06 Z M 160.58 134.95 L 160.11 135.80 C 159.56 136.80 159.92 138.06 160.92 138.61 C 161.92 139.16 163.18 138.80 163.73 137.80 L 164.20 136.94 C 164.76 135.94 164.39 134.68 163.39 134.13 C 162.39 133.58 161.13 133.94 160.58 134.95 Z M 160.14 135.78 L 159.66 136.63 C 159.09 137.61 159.44 138.87 160.42 139.43 C 161.41 139.99 162.66 139.65 163.22 138.66 L 163.71 137.82 C 164.27 136.83 163.92 135.58 162.94 135.02 C 161.95 134.45 160.70 134.80 160.14 135.78 Z M 159.68 136.61 L 159.17 137.47 C 158.60 138.44 158.92 139.69 159.89 140.26 C 160.86 140.84 162.11 140.52 162.68 139.55 L 163.19 138.68 C 163.77 137.71 163.44 136.46 162.48 135.89 C 161.51 135.32 160.26 135.64 159.68 136.61 Z M 159.20 137.45 L 158.67 138.32 C 158.08 139.27 158.38 140.52 159.34 141.11 C 160.29 141.69 161.53 141.39 162.12 140.44 L 162.65 139.57 C 163.24 138.62 162.94 137.37 161.99 136.78 C 161.03 136.20 159.79 136.50 159.20 137.45 Z M 158.70 138.30 L 158.15 139.17 C 157.55 140.10 157.82 141.34 158.76 141.94 C 159.69 142.54 160.93 142.27 161.53 141.33 L 162.09 140.46 C 162.69 139.53 162.41 138.29 161.48 137.69 C 160.54 137.09 159.30 137.36 158.70 138.30 Z M 158.18 139.14 L 157.62 139.98 C 157.00 140.89 157.25 142.14 158.17 142.75 C 159.08 143.36 160.33 143.12 160.94 142.20 L 161.50 141.36 C 162.11 140.44 161.87 139.20 160.95 138.59 C 160.03 137.98 158.79 138.22 158.18 139.14 Z M 157.65 139.95 L 157.07 140.77 C 156.45 141.67 156.67 142.91 157.57 143.54 C 158.47 144.17 159.71 143.95 160.34 143.05 L 160.91 142.22 C 161.54 141.32 161.32 140.08 160.41 139.46 C 159.51 138.83 158.27 139.05 157.65 139.95 Z M 157.10 140.75 L 156.51 141.56 C 155.88 142.45 156.08 143.69 156.96 144.33 C 157.85 144.97 159.09 144.77 159.73 143.88 L 160.31 143.07 C 160.95 142.18 160.75 140.94 159.86 140.30 C 158.98 139.66 157.74 139.86 157.10 140.75 Z M 156.54 141.54 L 155.94 142.35 C 155.29 143.22 155.48 144.46 156.35 145.11 C 157.22 145.75 158.46 145.57 159.11 144.70 L 159.70 143.90 C 160.35 143.02 160.17 141.79 159.30 141.14 C 158.42 140.49 157.19 140.67 156.54 141.54 Z M 155.96 142.33 L 155.36 143.13 C 154.70 143.99 154.87 145.22 155.73 145.88 C 156.59 146.54 157.83 146.37 158.48 145.51 L 159.09 144.71 C 159.74 143.85 159.58 142.62 158.71 141.96 C 157.85 141.30 156.62 141.47 155.96 142.33 Z M 155.37 143.12 L 154.76 143.91 C 154.10 144.76 154.26 145.99 155.11 146.65 C 155.96 147.32 157.19 147.16 157.85 146.31 L 158.47 145.52 C 159.13 144.66 158.97 143.43 158.12 142.77 C 157.26 142.11 156.04 142.27 155.37 143.12 Z M 154.77 143.90 L 154.16 144.68 C 153.49 145.53 153.63 146.76 154.48 147.42 C 155.33 148.09 156.55 147.95 157.22 147.10 L 157.84 146.32 C 158.51 145.47 158.36 144.24 157.52 143.58 C 156.67 142.91 155.44 143.05 154.77 143.90 Z M 154.17 144.67 L 153.54 145.45 C 152.87 146.29 153.00 147.51 153.84 148.19 C 154.68 148.86 155.91 148.73 156.58 147.89 L 157.21 147.11 C 157.88 146.28 157.75 145.05 156.91 144.37 C 156.07 143.70 154.85 143.83 154.17 144.67 Z M 153.56 145.43 L 152.92 146.20 C 152.24 147.04 152.36 148.26 153.19 148.95 C 154.02 149.63 155.25 149.51 155.93 148.68 L 156.57 147.91 C 157.25 147.08 157.13 145.85 156.30 145.17 C 155.47 144.48 154.24 144.60 153.56 145.43 Z M 152.94 146.19 L 152.29 146.96 C 151.60 147.78 151.71 149.01 152.53 149.70 C 153.35 150.39 154.58 150.28 155.27 149.46 L 155.92 148.69 C 156.61 147.87 156.50 146.64 155.68 145.95 C 154.86 145.26 153.63 145.37 152.94 146.19 Z M 152.31 146.94 L 151.65 147.70 C 150.95 148.52 151.04 149.74 151.85 150.45 C 152.67 151.15 153.90 151.06 154.60 150.24 L 155.26 149.48 C 155.96 148.66 155.87 147.44 155.05 146.73 C 154.24 146.03 153.01 146.12 152.31 146.94 Z M 151.66 147.68 L 150.99 148.44 C 150.27 149.25 150.35 150.48 151.16 151.19 C 151.96 151.91 153.20 151.83 153.91 151.03 L 154.59 150.27 C 155.30 149.46 155.23 148.23 154.42 147.51 C 153.61 146.80 152.38 146.87 151.66 147.68 Z M 151.00 148.41 L 150.32 149.16 C 149.59 149.96 149.64 151.20 150.44 151.93 C 151.24 152.66 152.48 152.60 153.22 151.80 L 153.90 151.06 C 154.63 150.26 154.57 149.02 153.77 148.29 C 152.97 147.55 151.73 147.61 151.00 148.41 Z M 150.34 149.12 L 149.65 149.85 C 148.90 150.64 148.93 151.89 149.72 152.64 C 150.51 153.39 151.76 153.35 152.51 152.56 L 153.20 151.84 C 153.95 151.05 153.91 149.80 153.12 149.05 C 152.33 148.30 151.09 148.33 150.34 149.12 Z M 149.67 149.81 L 148.98 150.51 C 148.21 151.29 148.21 152.55 148.99 153.32 C 149.77 154.09 151.03 154.08 151.80 153.30 L 152.49 152.60 C 153.26 151.82 153.25 150.57 152.47 149.80 C 151.69 149.03 150.44 149.03 149.67 149.81 Z M 149.00 150.47 L 148.29 151.16 C 147.49 151.93 147.47 153.19 148.23 153.98 C 149.00 154.77 150.26 154.80 151.05 154.03 L 151.77 153.34 C 152.56 152.58 152.59 151.32 151.82 150.52 C 151.06 149.73 149.80 149.71 149.00 150.47 Z M 148.32 151.12 L 147.55 151.81 C 146.73 152.56 146.67 153.83 147.42 154.65 C 148.17 155.46 149.43 155.52 150.25 154.78 L 151.02 154.08 C 151.84 153.34 151.90 152.07 151.15 151.25 C 150.41 150.43 149.14 150.37 148.32 151.12 Z M 147.59 151.76 L 146.82 152.42 C 145.98 153.15 145.88 154.42 146.61 155.27 C 147.33 156.11 148.61 156.21 149.45 155.48 L 150.22 154.83 C 151.07 154.10 151.16 152.82 150.43 151.98 C 149.71 151.13 148.43 151.04 147.59 151.76 Z M 146.86 152.37 L 146.09 153.00 C 145.22 153.70 145.09 154.99 145.79 155.86 C 146.50 156.73 147.78 156.86 148.66 156.15 L 149.42 155.53 C 150.29 154.82 150.42 153.54 149.72 152.67 C 149.01 151.80 147.73 151.67 146.86 152.37 Z M 146.12 152.95 L 145.36 153.54 C 144.46 154.23 144.30 155.52 144.99 156.41 C 145.68 157.31 146.96 157.48 147.86 156.79 L 148.62 156.20 C 149.52 155.51 149.69 154.22 149.00 153.33 C 148.31 152.43 147.02 152.26 146.12 152.95 Z M 145.39 153.50 L 144.66 154.04 C 143.74 154.71 143.54 156.00 144.21 156.92 C 144.88 157.83 146.17 158.03 147.09 157.36 L 147.82 156.83 C 148.74 156.15 148.94 154.87 148.27 153.95 C 147.60 153.03 146.31 152.83 145.39 153.50 Z M 144.69 154.01 L 143.95 154.52 C 143.01 155.18 142.78 156.47 143.44 157.40 C 144.09 158.34 145.38 158.57 146.32 157.91 L 147.06 157.39 C 147.99 156.74 148.22 155.45 147.57 154.52 C 146.91 153.58 145.62 153.35 144.69 154.01 Z M 143.97 154.50 L 143.19 155.03 C 142.24 155.67 141.98 156.96 142.62 157.91 C 143.26 158.86 144.55 159.11 145.50 158.47 L 146.29 157.94 C 147.24 157.30 147.49 156.01 146.85 155.06 C 146.21 154.11 144.92 153.86 143.97 154.50 Z M 143.20 155.01 L 142.34 155.57 C 141.38 156.20 141.11 157.49 141.74 158.45 C 142.37 159.42 143.66 159.68 144.62 159.05 L 145.49 158.49 C 146.45 157.86 146.71 156.57 146.08 155.61 C 145.45 154.65 144.17 154.38 143.20 155.01 Z M 142.35 155.56 L 141.39 156.18 C 140.42 156.81 140.14 158.10 140.77 159.07 C 141.39 160.04 142.68 160.31 143.65 159.69 L 144.61 159.07 C 145.58 158.44 145.86 157.15 145.24 156.18 C 144.61 155.21 143.32 154.93 142.35 155.56 Z M 141.38 156.16 L 140.39 156.80 C 139.41 157.43 139.12 158.73 139.75 159.71 C 140.38 160.69 141.69 160.98 142.67 160.35 L 143.66 159.71 C 144.64 159.08 144.93 157.78 144.30 156.80 C 143.67 155.81 142.36 155.53 141.38 156.16 Z M 140.35 156.77 L 139.34 157.43 C 138.34 158.08 138.06 159.41 138.71 160.41 C 139.36 161.40 140.69 161.68 141.69 161.04 L 142.70 160.38 C 143.69 159.73 143.98 158.40 143.33 157.40 C 142.68 156.40 141.35 156.12 140.35 156.77 Z M 139.28 157.41 L 138.32 158.06 C 137.32 158.74 137.05 160.10 137.73 161.11 C 138.41 162.11 139.77 162.38 140.78 161.70 L 141.74 161.05 C 142.75 160.37 143.01 159.01 142.33 158.00 C 141.66 157.00 140.29 156.73 139.28 157.41 Z M 138.24 158.07 L 137.41 158.66 C 136.41 159.39 136.19 160.79 136.92 161.79 C 137.64 162.80 139.04 163.02 140.05 162.29 L 140.87 161.70 C 141.87 160.97 142.09 159.57 141.37 158.57 C 140.64 157.56 139.24 157.34 138.24 158.07 Z M 137.25 158.73 L 136.66 159.23 C 135.70 160.04 135.58 161.49 136.39 162.45 C 137.21 163.42 138.65 163.54 139.61 162.72 L 140.20 162.22 C 141.17 161.41 141.29 159.97 140.48 159.00 C 139.66 158.04 138.22 157.92 137.25 158.73 Z M 136.19 159.70 L 135.91 160.14 C 135.20 161.21 135.50 162.65 136.57 163.36 C 137.65 164.07 139.09 163.77 139.80 162.69 L 140.08 162.25 C 140.79 161.18 140.49 159.74 139.42 159.03 C 138.34 158.33 136.90 158.62 136.19 159.70 Z M 136.89 163.57 L 137.37 163.78 C 138.56 164.31 139.96 163.77 140.49 162.58 C 141.01 161.39 140.48 159.99 139.28 159.47 L 138.81 159.25 C 137.62 158.73 136.22 159.26 135.69 160.46 C 135.16 161.65 135.70 163.04 136.89 163.57 Z M 138.56 164.00 L 139.69 163.89 C 141.00 163.77 141.96 162.60 141.83 161.29 C 141.71 159.97 140.54 159.01 139.23 159.14 L 138.10 159.25 C 136.78 159.37 135.82 160.54 135.95 161.85 C 136.08 163.17 137.24 164.13 138.56 164.00 Z M 139.91 163.89 L 141.14 163.65 C 142.45 163.40 143.31 162.13 143.05 160.82 C 142.80 159.51 141.54 158.66 140.23 158.91 L 139.00 159.14 C 137.69 159.40 136.83 160.66 137.09 161.97 C 137.34 163.28 138.60 164.14 139.91 163.89 Z M 141.22 163.65 L 142.19 163.43 C 143.50 163.13 144.32 161.83 144.02 160.52 C 143.73 159.22 142.43 158.39 141.12 158.69 L 140.15 158.91 C 138.84 159.21 138.02 160.51 138.31 161.82 C 138.61 163.12 139.91 163.94 141.22 163.65 Z M 142.24 163.43 L 143.20 163.19 C 144.51 162.87 145.31 161.55 144.99 160.24 C 144.67 158.93 143.35 158.13 142.04 158.46 L 141.07 158.69 C 139.77 159.01 138.97 160.33 139.29 161.64 C 139.61 162.95 140.93 163.75 142.24 163.43 Z M 143.23 163.19 L 144.20 162.94 C 145.51 162.61 146.29 161.27 145.96 159.96 C 145.62 158.66 144.29 157.87 142.98 158.20 L 142.01 158.45 C 140.70 158.79 139.92 160.12 140.25 161.43 C 140.59 162.74 141.92 163.53 143.23 163.19 Z M 144.21 162.95 L 145.18 162.69 C 146.49 162.35 147.28 161.01 146.94 159.70 C 146.60 158.39 145.26 157.60 143.95 157.94 L 142.97 158.20 C 141.66 158.54 140.87 159.88 141.21 161.19 C 141.55 162.50 142.89 163.29 144.21 162.95 Z M 145.18 162.70 L 146.16 162.45 C 147.47 162.11 148.27 160.77 147.93 159.46 C 147.59 158.14 146.25 157.35 144.94 157.69 L 143.95 157.94 C 142.64 158.28 141.85 159.62 142.19 160.93 C 142.52 162.25 143.86 163.04 145.18 162.70 Z M 146.15 162.45 L 147.14 162.20 C 148.45 161.87 149.25 160.53 148.92 159.21 C 148.58 157.90 147.24 157.10 145.93 157.43 L 144.94 157.68 C 143.63 158.02 142.83 159.36 143.16 160.67 C 143.50 161.99 144.84 162.79 146.15 162.45 Z M 147.14 162.20 L 148.11 161.96 C 149.42 161.62 150.22 160.29 149.89 158.97 C 149.55 157.65 148.22 156.85 146.90 157.19 L 145.93 157.43 C 144.61 157.77 143.81 159.10 144.15 160.42 C 144.48 161.74 145.82 162.54 147.14 162.20 Z M 148.11 161.96 L 149.05 161.72 C 150.37 161.38 151.17 160.04 150.83 158.73 C 150.50 157.41 149.16 156.61 147.84 156.95 L 146.90 157.19 C 145.58 157.52 144.78 158.86 145.12 160.18 C 145.45 161.49 146.79 162.29 148.11 161.96 Z M 149.05 161.71 L 150.08 161.45 C 151.39 161.12 152.19 159.78 151.85 158.46 C 151.52 157.15 150.18 156.35 148.86 156.69 L 147.84 156.95 C 146.53 157.29 145.73 158.62 146.07 159.94 C 146.40 161.25 147.74 162.05 149.05 161.71 Z M 150.07 161.44 L 151.06 161.19 C 152.37 160.87 153.16 159.54 152.83 158.23 C 152.50 156.91 151.17 156.12 149.86 156.45 L 148.87 156.70 C 147.56 157.03 146.77 158.36 147.10 159.67 C 147.43 160.98 148.76 161.77 150.07 161.44 Z M 151.03 161.19 L 151.97 160.96 C 153.28 160.65 154.09 159.34 153.78 158.03 C 153.46 156.72 152.15 155.91 150.84 156.23 L 149.89 156.45 C 148.59 156.77 147.78 158.08 148.09 159.39 C 148.41 160.70 149.72 161.50 151.03 161.19 Z M 151.92 160.96 L 152.84 160.76 C 154.15 160.48 154.98 159.19 154.70 157.88 C 154.41 156.57 153.12 155.74 151.81 156.03 L 150.89 156.23 C 149.58 156.51 148.76 157.80 149.04 159.11 C 149.33 160.42 150.62 161.25 151.92 160.96 Z M 152.76 160.75 L 153.73 160.58 C 155.03 160.34 155.89 159.09 155.65 157.79 C 155.42 156.49 154.17 155.62 152.87 155.86 L 151.90 156.04 C 150.60 156.27 149.73 157.52 149.97 158.82 C 150.21 160.13 151.46 160.99 152.76 160.75 Z M 153.60 160.56 L 154.57 160.43 C 155.87 160.27 156.78 159.08 156.61 157.79 C 156.44 156.50 155.26 155.58 153.97 155.75 L 152.99 155.88 C 151.70 156.04 150.79 157.23 150.95 158.52 C 151.12 159.81 152.31 160.73 153.60 160.56 Z M 154.42 160.41 L 155.44 160.35 C 156.73 160.26 157.70 159.15 157.61 157.87 C 157.53 156.59 156.42 155.62 155.14 155.70 L 154.12 155.77 C 152.83 155.86 151.86 156.96 151.95 158.25 C 152.03 159.53 153.14 160.50 154.42 160.41 Z M 155.28 160.29 L 156.43 160.29 C 157.68 160.30 158.70 159.29 158.70 158.04 C 158.71 156.79 157.70 155.77 156.44 155.76 L 155.30 155.76 C 154.05 155.75 153.03 156.76 153.02 158.02 C 153.02 159.27 154.03 160.29 155.28 160.29 Z M 156.19 160.19 L 157.28 160.31 C 158.47 160.45 159.55 159.59 159.69 158.40 C 159.82 157.21 158.97 156.13 157.77 155.99 L 156.68 155.87 C 155.49 155.73 154.41 156.59 154.28 157.78 C 154.14 158.98 155.00 160.05 156.19 160.19 Z M 156.80 160.10 L 157.60 160.40 C 158.68 160.80 159.87 160.25 160.27 159.18 C 160.67 158.10 160.13 156.91 159.05 156.51 L 158.25 156.21 C 157.18 155.81 155.98 156.35 155.58 157.43 C 155.18 158.50 155.73 159.70 156.80 160.10 Z M 156.56 159.34 L 156.87 159.95 C 157.36 160.93 158.54 161.33 159.52 160.84 C 160.50 160.35 160.89 159.16 160.40 158.18 L 160.10 157.57 C 159.61 156.59 158.42 156.19 157.44 156.68 C 156.47 157.17 156.07 158.36 156.56 159.34 Z M 156.90 158.35 L 156.54 159.23 C 156.15 160.19 156.61 161.28 157.57 161.68 C 158.53 162.07 159.62 161.61 160.02 160.65 L 160.37 159.78 C 160.77 158.82 160.31 157.72 159.35 157.33 C 158.39 156.94 157.29 157.40 156.90 158.35 Z M 156.97 158.73 L 156.18 159.58 C 155.51 160.30 155.55 161.43 156.28 162.10 C 157.00 162.77 158.12 162.72 158.79 162.00 L 159.58 161.15 C 160.25 160.43 160.21 159.30 159.49 158.63 C 158.77 157.96 157.64 158.00 156.97 158.73 Z M 156.48 159.38 L 155.70 159.93 C 154.92 160.49 154.74 161.57 155.30 162.36 C 155.86 163.14 156.94 163.32 157.72 162.76 L 158.50 162.21 C 159.28 161.65 159.46 160.56 158.90 159.78 C 158.34 159.00 157.26 158.82 156.48 159.38 Z M 155.88 159.81 L 155.01 160.29 C 154.16 160.75 153.85 161.81 154.31 162.66 C 154.77 163.50 155.83 163.81 156.68 163.35 L 157.55 162.88 C 158.40 162.41 158.71 161.35 158.25 160.51 C 157.78 159.66 156.72 159.35 155.88 159.81 Z M 155.10 160.23 L 154.16 160.67 C 153.28 161.07 152.90 162.12 153.31 162.99 C 153.72 163.87 154.76 164.25 155.64 163.85 L 156.58 163.41 C 157.46 163.00 157.84 161.96 157.43 161.08 C 157.03 160.20 155.98 159.82 155.10 160.23 Z M 154.18 160.63 L 153.25 161.05 C 152.36 161.44 151.95 162.49 152.35 163.38 C 152.75 164.28 153.79 164.68 154.69 164.29 L 155.62 163.88 C 156.51 163.48 156.92 162.44 156.52 161.54 C 156.13 160.64 155.08 160.24 154.18 160.63 Z M 153.23 161.01 L 152.31 161.43 C 151.40 161.83 150.99 162.90 151.40 163.82 C 151.80 164.73 152.87 165.14 153.78 164.73 L 154.71 164.32 C 155.62 163.91 156.03 162.84 155.62 161.93 C 155.22 161.02 154.15 160.61 153.23 161.01 Z M 152.27 161.40 L 151.36 161.82 C 150.43 162.25 150.03 163.35 150.46 164.28 C 150.88 165.21 151.98 165.61 152.91 165.18 L 153.82 164.76 C 154.75 164.33 155.16 163.23 154.73 162.30 C 154.30 161.37 153.20 160.97 152.27 161.40 Z M 151.30 161.81 L 150.41 162.24 C 149.48 162.70 149.09 163.84 149.55 164.77 C 150.01 165.71 151.15 166.10 152.08 165.63 L 152.97 165.20 C 153.91 164.74 154.29 163.60 153.83 162.67 C 153.37 161.73 152.23 161.34 151.30 161.81 Z M 150.32 162.23 L 149.41 162.72 C 148.47 163.23 148.11 164.41 148.63 165.36 C 149.14 166.30 150.32 166.66 151.27 166.14 L 152.18 165.65 C 153.12 165.14 153.47 163.96 152.96 163.01 C 152.45 162.06 151.27 161.71 150.32 162.23 Z M 149.30 162.70 L 148.44 163.22 C 147.49 163.79 147.18 165.03 147.76 165.99 C 148.33 166.94 149.58 167.25 150.53 166.67 L 151.38 166.16 C 152.34 165.58 152.65 164.34 152.07 163.39 C 151.49 162.43 150.25 162.12 149.30 162.70 Z M 148.32 163.21 L 147.51 163.76 C 146.55 164.40 146.30 165.70 146.94 166.66 C 147.59 167.62 148.89 167.87 149.85 167.23 L 150.66 166.68 C 151.61 166.03 151.87 164.73 151.22 163.78 C 150.58 162.82 149.28 162.56 148.32 163.21 Z M 147.37 163.75 L 146.63 164.31 C 145.67 165.03 145.48 166.39 146.20 167.35 C 146.92 168.31 148.28 168.51 149.24 167.79 L 149.98 167.23 C 150.94 166.51 151.14 165.15 150.42 164.19 C 149.70 163.23 148.33 163.03 147.37 163.75 Z M 146.48 164.30 L 145.76 164.90 C 144.80 165.70 144.67 167.13 145.47 168.10 C 146.27 169.06 147.70 169.19 148.67 168.39 L 149.39 167.79 C 150.35 166.99 150.48 165.56 149.68 164.59 C 148.88 163.63 147.45 163.50 146.48 164.30 Z M 145.61 164.90 L 144.87 165.58 C 143.90 166.47 143.84 167.97 144.72 168.93 C 145.61 169.90 147.11 169.96 148.07 169.08 L 148.82 168.39 C 149.78 167.51 149.85 166.01 148.96 165.04 C 148.08 164.08 146.58 164.01 145.61 164.90 Z M 144.73 165.58 L 143.94 166.36 C 142.98 167.32 142.97 168.89 143.94 169.85 C 144.90 170.82 146.46 170.82 147.43 169.86 L 148.21 169.08 C 149.18 168.12 149.18 166.55 148.22 165.59 C 147.26 164.62 145.69 164.62 144.73 165.58 Z M 143.86 166.38 L 143.19 167.08 C 142.24 168.09 142.28 169.68 143.29 170.64 C 144.29 171.60 145.89 171.55 146.84 170.55 L 147.51 169.84 C 148.47 168.83 148.42 167.24 147.42 166.29 C 146.41 165.33 144.81 165.37 143.86 166.38 Z M 143.15 167.12 L 142.47 167.87 C 141.53 168.90 141.60 170.49 142.63 171.43 C 143.66 172.37 145.25 172.30 146.19 171.27 L 146.88 170.51 C 147.82 169.48 147.74 167.89 146.72 166.95 C 145.69 166.01 144.09 166.09 143.15 167.12 Z M 142.43 167.90 L 141.75 168.67 C 140.83 169.72 140.93 171.32 141.98 172.24 C 143.02 173.16 144.62 173.06 145.54 172.01 L 146.23 171.24 C 147.15 170.19 147.05 168.60 146.00 167.67 C 144.95 166.75 143.36 166.85 142.43 167.90 Z M 141.72 168.70 L 141.07 169.47 C 140.16 170.53 140.29 172.13 141.35 173.04 C 142.42 173.94 144.01 173.82 144.92 172.75 L 145.57 171.99 C 146.48 170.92 146.35 169.32 145.29 168.42 C 144.22 167.51 142.63 167.64 141.72 168.70 Z M 141.03 169.50 L 140.43 170.23 C 139.55 171.31 139.70 172.91 140.79 173.80 C 141.87 174.69 143.47 174.53 144.35 173.45 L 144.95 172.72 C 145.84 171.64 145.68 170.04 144.60 169.15 C 143.52 168.26 141.92 168.42 141.03 169.50 Z M 140.40 170.28 L 139.85 170.98 C 138.98 172.08 139.18 173.68 140.28 174.54 C 141.38 175.41 142.98 175.21 143.84 174.11 L 144.39 173.40 C 145.26 172.30 145.06 170.70 143.96 169.84 C 142.85 168.98 141.26 169.17 140.40 170.28 Z M 139.80 171.04 L 139.26 171.77 C 138.43 172.90 138.67 174.48 139.80 175.32 C 140.92 176.15 142.51 175.91 143.35 174.78 L 143.89 174.05 C 144.72 172.92 144.48 171.33 143.35 170.50 C 142.22 169.67 140.63 169.91 139.80 171.04 Z M 139.22 171.82 L 138.65 172.64 C 137.85 173.79 138.13 175.37 139.28 176.18 C 140.43 176.98 142.01 176.70 142.81 175.55 L 143.39 174.73 C 144.19 173.58 143.91 172.00 142.76 171.19 C 141.61 170.39 140.03 170.67 139.22 171.82 Z M 138.62 172.68 L 137.97 173.65 C 137.19 174.81 137.50 176.39 138.67 177.17 C 139.83 177.95 141.41 177.64 142.19 176.48 L 142.84 175.51 C 143.62 174.34 143.31 172.77 142.15 171.98 C 140.98 171.20 139.40 171.51 138.62 172.68 Z M 137.96 173.67 L 137.45 174.44 C 136.68 175.61 137.01 177.19 138.19 177.96 C 139.36 178.73 140.93 178.40 141.70 177.22 L 142.21 176.45 C 142.98 175.28 142.65 173.71 141.48 172.94 C 140.30 172.17 138.73 172.49 137.96 173.67 Z M 137.45 174.45 L 136.97 175.19 C 136.21 176.37 136.54 177.94 137.72 178.70 C 138.90 179.46 140.47 179.13 141.23 177.95 L 141.71 177.21 C 142.47 176.03 142.14 174.46 140.96 173.70 C 139.78 172.94 138.21 173.27 137.45 174.45 Z M 136.96 175.20 L 136.45 176.00 C 135.69 177.18 136.04 178.75 137.22 179.50 C 138.40 180.26 139.97 179.92 140.73 178.74 L 141.24 177.94 C 141.99 176.76 141.65 175.19 140.47 174.43 C 139.29 173.68 137.72 174.02 136.96 175.20 Z M 136.45 176.01 L 135.91 176.85 C 135.16 178.03 135.51 179.60 136.69 180.35 C 137.87 181.10 139.44 180.76 140.19 179.57 L 140.73 178.73 C 141.48 177.55 141.13 175.98 139.95 175.23 C 138.77 174.47 137.20 174.82 136.45 176.01 Z M 135.91 176.86 L 135.35 177.74 C 134.60 178.93 134.96 180.49 136.14 181.24 C 137.33 181.99 138.89 181.63 139.64 180.45 L 140.20 179.57 C 140.94 178.38 140.59 176.82 139.41 176.07 C 138.22 175.32 136.65 175.67 135.91 176.86 Z M 135.35 177.75 L 134.78 178.66 C 134.03 179.84 134.39 181.41 135.58 182.15 C 136.77 182.89 138.33 182.54 139.07 181.35 L 139.64 180.44 C 140.39 179.25 140.03 177.69 138.84 176.95 C 137.65 176.20 136.09 176.56 135.35 177.75 Z M 134.77 178.67 L 134.20 179.59 C 133.46 180.78 133.82 182.34 135.01 183.08 C 136.20 183.82 137.76 183.46 138.50 182.27 L 139.08 181.34 C 139.81 180.15 139.45 178.59 138.26 177.85 C 137.08 177.11 135.51 177.48 134.77 178.67 Z M 134.20 179.60 L 133.62 180.53 C 132.88 181.72 133.25 183.28 134.44 184.02 C 135.63 184.75 137.19 184.38 137.93 183.19 L 138.50 182.26 C 139.24 181.07 138.87 179.51 137.68 178.78 C 136.49 178.04 134.93 178.41 134.20 179.60 Z M 133.62 180.54 L 133.07 181.45 C 132.34 182.64 132.71 184.19 133.90 184.92 C 135.09 185.65 136.64 185.28 137.37 184.09 L 137.92 183.18 C 138.65 181.99 138.28 180.44 137.09 179.71 C 135.90 178.98 134.35 179.35 133.62 180.54 Z M 133.07 181.46 L 132.53 182.35 C 131.81 183.54 132.18 185.08 133.37 185.81 C 134.55 186.53 136.10 186.15 136.82 184.97 L 137.36 184.07 C 138.08 182.89 137.71 181.34 136.52 180.62 C 135.34 179.90 133.79 180.28 133.07 181.46 Z M 132.54 182.37 L 132.00 183.25 C 131.29 184.43 131.66 185.97 132.85 186.68 C 134.03 187.40 135.56 187.02 136.28 185.84 L 136.81 184.95 C 137.53 183.77 137.15 182.24 135.97 181.52 C 134.79 180.81 133.25 181.19 132.54 182.37 Z M 132.01 183.27 L 131.48 184.14 C 130.78 185.32 131.16 186.84 132.33 187.55 C 133.51 188.26 135.04 187.87 135.74 186.70 L 136.27 185.83 C 136.97 184.65 136.59 183.12 135.42 182.42 C 134.24 181.71 132.72 182.09 132.01 183.27 Z M 131.49 184.15 L 130.98 185.01 C 130.28 186.18 130.66 187.70 131.83 188.40 C 133.00 189.10 134.52 188.72 135.22 187.55 L 135.73 186.69 C 136.43 185.51 136.05 184.00 134.88 183.30 C 133.71 182.60 132.19 182.98 131.49 184.15 Z M 130.99 185.03 L 130.49 185.87 C 129.79 187.04 130.18 188.54 131.34 189.24 C 132.51 189.93 134.02 189.55 134.71 188.38 L 135.21 187.53 C 135.91 186.37 135.52 184.86 134.35 184.17 C 133.19 183.47 131.68 183.86 130.99 185.03 Z M 130.49 185.88 L 130.01 186.71 C 129.32 187.87 129.71 189.37 130.87 190.06 C 132.03 190.74 133.53 190.36 134.21 189.19 L 134.70 188.37 C 135.39 187.20 135.00 185.71 133.84 185.02 C 132.68 184.33 131.18 184.72 130.49 185.88 Z M 130.01 186.72 L 129.54 187.53 C 128.86 188.69 129.25 190.18 130.41 190.85 C 131.56 191.53 133.05 191.15 133.73 189.99 L 134.21 189.18 C 134.88 188.02 134.50 186.53 133.34 185.86 C 132.18 185.18 130.69 185.56 130.01 186.72 Z M 129.55 187.54 L 129.01 188.47 C 128.34 189.62 128.73 191.10 129.88 191.77 C 131.03 192.44 132.51 192.05 133.18 190.90 L 133.72 189.97 C 134.39 188.82 134.00 187.35 132.85 186.67 C 131.70 186.00 130.22 186.39 129.55 187.54 Z M 129.03 188.49 L 128.48 189.45 C 127.82 190.59 128.21 192.05 129.35 192.71 C 130.49 193.37 131.95 192.98 132.61 191.84 L 133.17 190.88 C 133.83 189.74 133.43 188.28 132.29 187.62 C 131.15 186.96 129.69 187.35 129.03 188.49 Z M 128.49 189.47 L 127.97 190.39 C 127.32 191.52 127.71 192.96 128.85 193.61 C 129.98 194.26 131.42 193.87 132.07 192.73 L 132.60 191.81 C 133.24 190.68 132.85 189.24 131.72 188.59 C 130.58 187.94 129.14 188.34 128.49 189.47 Z M 127.98 190.41 L 127.49 191.29 C 126.85 192.41 127.25 193.84 128.38 194.47 C 129.50 195.11 130.93 194.71 131.56 193.59 L 132.05 192.71 C 132.69 191.58 132.29 190.16 131.17 189.52 C 130.04 188.89 128.62 189.29 127.98 190.41 Z M 127.50 191.32 L 127.04 192.15 C 126.42 193.27 126.82 194.67 127.94 195.29 C 129.06 195.91 130.46 195.51 131.08 194.39 L 131.55 193.56 C 132.17 192.44 131.76 191.04 130.65 190.42 C 129.53 189.80 128.12 190.20 127.50 191.32 Z M 127.05 192.18 L 126.63 192.97 C 126.02 194.08 126.43 195.47 127.54 196.07 C 128.65 196.67 130.04 196.26 130.64 195.15 L 131.07 194.36 C 131.67 193.25 131.26 191.86 130.15 191.26 C 129.04 190.66 127.66 191.07 127.05 192.18 Z M 126.64 193.01 L 126.17 193.91 C 125.58 195.01 126.01 196.37 127.11 196.95 C 128.21 197.53 129.57 197.11 130.16 196.01 L 130.63 195.11 C 131.21 194.01 130.79 192.65 129.69 192.06 C 128.58 191.48 127.22 191.91 126.64 193.01 Z M 126.18 194.00 L 125.57 195.25 C 125.04 196.34 125.50 197.66 126.59 198.19 C 127.69 198.73 129.00 198.27 129.53 197.17 L 130.14 195.92 C 130.67 194.82 130.22 193.51 129.12 192.97 C 128.03 192.44 126.71 192.90 126.18 194.00 Z M 125.53 195.53 L 125.24 196.40 C 124.86 197.51 125.45 198.73 126.57 199.10 C 127.69 199.48 128.90 198.88 129.28 197.77 L 129.57 196.90 C 129.95 195.78 129.35 194.57 128.24 194.19 C 127.12 193.81 125.91 194.41 125.53 195.53 Z M 125.39 197.97 L 125.55 198.30 C 126.04 199.33 127.28 199.77 128.30 199.27 C 129.33 198.78 129.77 197.55 129.28 196.52 L 129.12 196.19 C 128.63 195.16 127.40 194.73 126.37 195.22 C 125.34 195.71 124.90 196.94 125.39 197.97 Z M 128.13 199.27 L 128.60 199.09 C 129.63 198.69 130.14 197.54 129.75 196.51 C 129.35 195.48 128.19 194.97 127.16 195.36 L 126.69 195.54 C 125.67 195.94 125.15 197.10 125.55 198.13 C 125.95 199.16 127.10 199.67 128.13 199.27 Z M 128.96 198.83 L 129.67 198.35 C 130.56 197.76 130.79 196.56 130.20 195.67 C 129.61 194.79 128.41 194.55 127.53 195.15 L 126.81 195.63 C 125.93 196.22 125.69 197.42 126.28 198.30 C 126.87 199.18 128.07 199.42 128.96 198.83 Z M 129.74 198.22 L 130.63 197.52 C 131.44 196.90 131.59 195.73 130.96 194.92 C 130.33 194.11 129.17 193.96 128.35 194.59 L 127.46 195.28 C 126.65 195.91 126.50 197.07 127.13 197.89 C 127.76 198.70 128.93 198.85 129.74 198.22 Z M 130.63 197.44 L 131.62 196.62 C 132.39 195.99 132.50 194.87 131.87 194.10 C 131.25 193.34 130.12 193.23 129.36 193.85 L 128.36 194.67 C 127.59 195.30 127.48 196.43 128.11 197.19 C 128.73 197.95 129.86 198.06 130.63 197.44 Z M 131.60 196.57 L 132.11 196.15 C 132.84 195.54 132.94 194.44 132.33 193.71 C 131.72 192.97 130.62 192.87 129.88 193.48 L 129.38 193.90 C 128.64 194.52 128.54 195.61 129.16 196.35 C 129.77 197.08 130.86 197.18 131.60 196.57 Z"
      fill="black"
      fill-rule="nonzero" /><path d="M 152.07 160.74 L 151.86 161.68 C 151.57 162.96 152.37 164.23 153.65 164.53 C 154.93 164.82 156.20 164.02 156.50 162.74 L 156.71 161.81 C 157.01 160.53 156.21 159.25 154.93 158.96 C 153.65 158.66 152.37 159.46 152.07 160.74 Z M 151.86 161.69 L 151.65 162.64 C 151.36 163.92 152.16 165.19 153.45 165.48 C 154.73 165.76 156.00 164.96 156.29 163.68 L 156.50 162.73 C 156.79 161.45 155.98 160.17 154.70 159.89 C 153.42 159.60 152.15 160.41 151.86 161.69 Z M 151.64 162.66 L 151.43 163.64 C 151.16 164.92 151.98 166.19 153.26 166.46 C 154.55 166.73 155.81 165.92 156.08 164.63 L 156.29 163.65 C 156.57 162.37 155.75 161.10 154.46 160.83 C 153.18 160.56 151.92 161.38 151.64 162.66 Z M 151.43 163.67 L 151.22 164.70 C 150.97 165.99 151.81 167.24 153.09 167.49 C 154.38 167.75 155.63 166.91 155.89 165.62 L 156.09 164.60 C 156.34 163.31 155.51 162.06 154.22 161.80 C 152.93 161.55 151.68 162.39 151.43 163.67 Z M 151.22 164.74 L 151.06 165.62 C 150.82 166.91 151.68 168.15 152.97 168.38 C 154.26 168.62 155.50 167.76 155.73 166.47 L 155.89 165.58 C 156.13 164.29 155.27 163.06 153.98 162.82 C 152.69 162.59 151.45 163.45 151.22 164.74 Z M 151.06 165.66 L 150.91 166.51 C 150.70 167.80 151.57 169.02 152.86 169.24 C 154.16 169.45 155.38 168.58 155.59 167.29 L 155.73 166.44 C 155.95 165.14 155.08 163.92 153.78 163.71 C 152.49 163.49 151.27 164.37 151.06 165.66 Z M 150.91 166.54 L 150.77 167.45 C 150.58 168.75 151.46 169.96 152.76 170.15 C 154.05 170.35 155.26 169.46 155.45 168.17 L 155.59 167.26 C 155.79 165.96 154.90 164.75 153.61 164.56 C 152.32 164.36 151.11 165.25 150.91 166.54 Z M 150.77 167.48 L 150.63 168.48 C 150.45 169.77 151.35 170.97 152.65 171.15 C 153.94 171.33 155.13 170.43 155.32 169.13 L 155.46 168.14 C 155.64 166.85 154.74 165.65 153.44 165.47 C 152.15 165.29 150.95 166.19 150.77 167.48 Z M 150.63 168.50 L 150.49 169.59 C 150.32 170.88 151.24 172.07 152.53 172.24 C 153.82 172.40 155.01 171.49 155.18 170.20 L 155.32 169.11 C 155.48 167.82 154.57 166.63 153.28 166.46 C 151.98 166.30 150.80 167.21 150.63 168.50 Z M 150.49 169.61 L 150.35 170.81 C 150.19 172.11 151.12 173.28 152.41 173.43 C 153.70 173.59 154.88 172.67 155.03 171.37 L 155.17 170.17 C 155.33 168.88 154.41 167.71 153.11 167.55 C 151.82 167.40 150.65 168.32 150.49 169.61 Z M 150.35 170.83 L 150.24 171.80 C 150.09 173.09 151.02 174.26 152.32 174.40 C 153.61 174.55 154.78 173.62 154.92 172.33 L 155.03 171.36 C 155.18 170.06 154.25 168.90 152.95 168.75 C 151.66 168.61 150.49 169.54 150.35 170.83 Z M 150.24 171.81 L 150.13 172.79 C 150.00 174.09 150.93 175.25 152.22 175.39 C 153.52 175.52 154.68 174.59 154.82 173.30 L 154.92 172.31 C 155.06 171.02 154.13 169.86 152.83 169.72 C 151.54 169.58 150.38 170.52 150.24 171.81 Z M 150.13 172.81 L 150.03 173.82 C 149.90 175.12 150.84 176.27 152.13 176.40 C 153.43 176.54 154.58 175.59 154.71 174.30 L 154.82 173.28 C 154.95 171.99 154.01 170.83 152.71 170.70 C 151.42 170.57 150.27 171.51 150.13 172.81 Z M 150.03 173.83 L 149.93 174.87 C 149.80 176.16 150.75 177.31 152.04 177.44 C 153.34 177.56 154.49 176.62 154.61 175.32 L 154.72 174.29 C 154.84 172.99 153.89 171.84 152.60 171.72 C 151.30 171.59 150.15 172.54 150.03 173.83 Z M 149.93 174.88 L 149.83 175.92 C 149.71 177.21 150.67 178.36 151.96 178.48 C 153.26 178.60 154.40 177.64 154.52 176.35 L 154.62 175.31 C 154.73 174.02 153.78 172.87 152.49 172.75 C 151.19 172.63 150.05 173.59 149.93 174.88 Z M 149.83 175.93 L 149.75 176.96 C 149.63 178.25 150.59 179.39 151.89 179.50 C 153.18 179.61 154.32 178.65 154.43 177.36 L 154.52 176.33 C 154.63 175.04 153.67 173.90 152.38 173.79 C 151.08 173.68 149.94 174.64 149.83 175.93 Z M 149.74 176.98 L 149.67 177.97 C 149.57 179.27 150.53 180.40 151.83 180.50 C 153.12 180.60 154.26 179.63 154.36 178.34 L 154.43 177.34 C 154.54 176.05 153.57 174.92 152.27 174.81 C 150.98 174.71 149.85 175.68 149.74 176.98 Z M 149.67 177.99 L 149.60 178.94 C 149.51 180.24 150.49 181.36 151.78 181.45 C 153.08 181.54 154.20 180.57 154.29 179.27 L 154.36 178.32 C 154.45 177.02 153.47 175.90 152.18 175.81 C 150.88 175.72 149.76 176.70 149.67 177.99 Z M 149.60 178.97 L 149.53 180.13 C 149.45 181.43 150.44 182.54 151.74 182.62 C 153.04 182.69 154.15 181.70 154.22 180.41 L 154.29 179.24 C 154.37 177.95 153.38 176.83 152.08 176.76 C 150.79 176.68 149.67 177.67 149.60 178.97 Z M 149.53 180.17 L 149.48 181.31 C 149.42 182.60 150.43 183.70 151.73 183.76 C 153.02 183.81 154.12 182.81 154.18 181.51 L 154.23 180.37 C 154.28 179.07 153.28 177.98 151.98 177.92 C 150.68 177.86 149.59 178.87 149.53 180.17 Z M 149.48 181.34 L 149.45 182.37 C 149.41 183.67 150.43 184.75 151.73 184.79 C 153.03 184.83 154.11 183.81 154.15 182.51 L 154.18 181.48 C 154.22 180.18 153.19 179.10 151.90 179.06 C 150.60 179.02 149.52 180.04 149.48 181.34 Z M 149.45 182.40 L 149.43 183.35 C 149.41 184.65 150.45 185.72 151.75 185.74 C 153.04 185.76 154.11 184.72 154.13 183.43 L 154.15 182.48 C 154.17 181.18 153.13 180.11 151.84 180.09 C 150.54 180.07 149.47 181.11 149.45 182.40 Z M 149.43 183.37 L 149.43 184.25 C 149.42 185.54 150.47 186.60 151.76 186.61 C 153.06 186.62 154.12 185.57 154.13 184.27 L 154.13 183.40 C 154.14 182.10 153.10 181.05 151.80 181.04 C 150.50 181.03 149.44 182.07 149.43 183.37 Z M 149.43 184.26 L 149.43 185.09 C 149.43 186.38 150.48 187.44 151.77 187.44 C 153.07 187.44 154.13 186.39 154.13 185.09 L 154.13 184.26 C 154.13 182.96 153.08 181.91 151.78 181.91 C 150.48 181.91 149.43 182.96 149.43 184.26 Z M 149.43 185.09 L 149.43 186.20 C 149.43 187.50 150.49 188.55 151.78 188.55 C 153.08 188.54 154.13 187.49 154.13 186.19 L 154.13 185.08 C 154.12 183.79 153.07 182.74 151.77 182.74 C 150.47 182.74 149.43 183.80 149.43 185.09 Z M 149.43 186.23 L 149.45 187.26 C 149.47 188.56 150.53 189.59 151.83 189.57 C 153.13 189.55 154.16 188.49 154.14 187.19 L 154.13 186.16 C 154.11 184.86 153.04 183.83 151.74 183.85 C 150.45 183.87 149.41 184.93 149.43 186.23 Z M 149.45 187.33 L 149.49 188.28 C 149.55 189.57 150.64 190.58 151.94 190.52 C 153.23 190.47 154.24 189.37 154.18 188.07 L 154.14 187.12 C 154.09 185.83 152.99 184.82 151.69 184.88 C 150.40 184.93 149.39 186.03 149.45 187.33 Z M 149.50 188.39 L 149.58 189.29 C 149.70 190.59 150.84 191.54 152.13 191.42 C 153.42 191.30 154.38 190.16 154.26 188.87 L 154.18 187.96 C 154.06 186.67 152.92 185.72 151.62 185.84 C 150.33 185.95 149.38 187.10 149.50 188.39 Z M 149.60 189.49 L 149.78 190.48 C 150.00 191.76 151.22 192.62 152.50 192.40 C 153.77 192.17 154.63 190.95 154.41 189.68 L 154.23 188.68 C 154.01 187.40 152.79 186.54 151.51 186.77 C 150.24 186.99 149.38 188.21 149.60 189.49 Z M 149.85 190.80 L 150.15 191.73 C 150.55 192.96 151.87 193.65 153.11 193.25 C 154.35 192.85 155.03 191.53 154.63 190.29 L 154.33 189.36 C 153.93 188.13 152.61 187.45 151.37 187.84 C 150.14 188.24 149.46 189.56 149.85 190.80 Z M 150.31 192.11 L 150.78 192.99 C 151.39 194.14 152.82 194.58 153.96 193.97 C 155.11 193.36 155.55 191.93 154.94 190.79 L 154.47 189.91 C 153.86 188.76 152.43 188.32 151.29 188.93 C 150.14 189.54 149.70 190.97 150.31 192.11 Z M 151.01 193.34 L 151.60 194.10 C 152.40 195.12 153.88 195.30 154.90 194.50 C 155.93 193.70 156.11 192.22 155.31 191.20 L 154.71 190.44 C 153.91 189.42 152.43 189.24 151.41 190.04 C 150.38 190.84 150.20 192.32 151.01 193.34 Z M 151.80 194.33 L 152.52 195.03 C 153.45 195.94 154.94 195.93 155.85 195.00 C 156.76 194.07 156.75 192.58 155.82 191.67 L 155.10 190.97 C 154.17 190.06 152.68 190.07 151.77 191.00 C 150.86 191.93 150.87 193.42 151.80 194.33 Z M 152.70 195.19 L 153.50 195.83 C 154.52 196.65 156.00 196.48 156.81 195.46 C 157.63 194.45 157.46 192.96 156.44 192.15 L 155.64 191.51 C 154.62 190.70 153.14 190.86 152.33 191.88 C 151.52 192.90 151.68 194.38 152.70 195.19 Z M 153.67 195.96 L 154.52 196.52 C 155.61 197.24 157.07 196.94 157.79 195.85 C 158.50 194.76 158.20 193.30 157.12 192.58 L 156.27 192.02 C 155.18 191.31 153.72 191.61 153.00 192.69 C 152.28 193.78 152.58 195.24 153.67 195.96 Z M 154.70 196.63 L 155.58 197.10 C 156.73 197.72 158.16 197.29 158.78 196.14 C 159.40 194.99 158.96 193.56 157.82 192.95 L 156.94 192.47 C 155.79 191.85 154.36 192.28 153.74 193.43 C 153.12 194.58 153.55 196.01 154.70 196.63 Z M 155.76 197.19 L 156.66 197.58 C 157.86 198.10 159.25 197.55 159.77 196.36 C 160.29 195.16 159.74 193.77 158.54 193.25 L 157.64 192.86 C 156.44 192.34 155.05 192.89 154.53 194.08 C 154.01 195.28 154.56 196.67 155.76 197.19 Z M 156.81 197.64 L 157.75 197.98 C 158.98 198.42 160.33 197.77 160.77 196.54 C 161.21 195.31 160.57 193.96 159.34 193.53 L 158.39 193.19 C 157.16 192.75 155.81 193.40 155.38 194.63 C 154.94 195.85 155.58 197.21 156.81 197.64 Z M 157.86 198.01 L 158.78 198.30 C 160.03 198.67 161.35 197.97 161.73 196.72 C 162.11 195.47 161.41 194.15 160.16 193.77 L 159.23 193.49 C 157.98 193.11 156.66 193.82 156.28 195.07 C 155.90 196.32 156.61 197.64 157.86 198.01 Z M 158.86 198.32 L 159.81 198.57 C 161.07 198.91 162.37 198.15 162.70 196.89 C 163.04 195.62 162.28 194.33 161.02 193.99 L 160.08 193.74 C 158.81 193.41 157.52 194.16 157.18 195.43 C 156.85 196.69 157.60 197.99 158.86 198.32 Z M 159.89 198.59 L 160.87 198.82 C 162.15 199.11 163.42 198.31 163.71 197.04 C 164.00 195.76 163.20 194.49 161.93 194.20 L 160.94 193.97 C 159.66 193.68 158.39 194.48 158.10 195.76 C 157.81 197.03 158.61 198.30 159.89 198.59 Z M 160.95 198.84 L 161.97 199.04 C 163.26 199.29 164.50 198.44 164.75 197.16 C 165.00 195.87 164.16 194.62 162.87 194.37 L 161.85 194.18 C 160.56 193.93 159.32 194.77 159.07 196.06 C 158.82 197.34 159.66 198.59 160.95 198.84 Z M 162.04 199.05 L 163.00 199.21 C 164.30 199.42 165.52 198.54 165.73 197.24 C 165.94 195.94 165.05 194.72 163.76 194.51 L 162.80 194.36 C 161.50 194.15 160.28 195.03 160.07 196.33 C 159.86 197.62 160.75 198.85 162.04 199.05 Z M 163.07 199.23 L 164.03 199.35 C 165.33 199.52 166.53 198.60 166.70 197.30 C 166.88 195.99 165.96 194.79 164.65 194.62 L 163.69 194.49 C 162.38 194.32 161.18 195.24 161.01 196.55 C 160.84 197.86 161.76 199.06 163.07 199.23 Z M 164.09 199.37 L 165.08 199.47 C 166.40 199.61 167.58 198.65 167.71 197.33 C 167.85 196.02 166.89 194.84 165.58 194.70 L 164.58 194.60 C 163.27 194.47 162.09 195.42 161.95 196.74 C 161.82 198.06 162.77 199.23 164.09 199.37 Z M 165.15 199.49 L 166.18 199.56 C 167.50 199.67 168.66 198.67 168.76 197.35 C 168.86 196.02 167.87 194.87 166.54 194.77 L 165.51 194.69 C 164.19 194.59 163.03 195.58 162.93 196.90 C 162.83 198.23 163.82 199.39 165.15 199.49 Z M 166.24 199.58 L 167.28 199.63 C 168.61 199.70 169.74 198.68 169.81 197.34 C 169.88 196.01 168.86 194.88 167.53 194.81 L 166.49 194.75 C 165.15 194.69 164.02 195.71 163.95 197.04 C 163.88 198.37 164.91 199.51 166.24 199.58 Z M 167.32 199.64 L 168.34 199.68 C 169.68 199.72 170.80 198.67 170.84 197.33 C 170.88 195.99 169.83 194.87 168.49 194.83 L 167.48 194.80 C 166.14 194.75 165.02 195.81 164.98 197.14 C 164.94 198.48 165.99 199.60 167.32 199.64 Z M 168.37 199.69 L 169.40 199.70 C 170.74 199.73 171.85 198.66 171.88 197.31 C 171.90 195.97 170.83 194.86 169.48 194.84 L 168.46 194.82 C 167.11 194.79 166.00 195.86 165.98 197.21 C 165.96 198.55 167.03 199.66 168.37 199.69 Z M 169.42 199.72 L 170.43 199.72 C 171.78 199.73 172.89 198.65 172.90 197.30 C 172.91 195.95 171.82 194.84 170.47 194.83 L 169.46 194.82 C 168.11 194.81 167.01 195.90 166.99 197.25 C 166.98 198.60 168.07 199.71 169.42 199.72 Z M 170.45 199.73 L 171.42 199.74 C 172.78 199.74 173.88 198.64 173.88 197.28 C 173.89 195.93 172.79 194.83 171.43 194.82 L 170.46 194.82 C 169.10 194.82 168.00 195.92 168.00 197.27 C 167.99 198.63 169.09 199.73 170.45 199.73 Z M 171.43 199.75 L 172.46 199.75 C 173.82 199.75 174.92 198.64 174.92 197.28 C 174.92 195.92 173.82 194.81 172.46 194.81 L 171.43 194.81 C 170.07 194.81 168.96 195.92 168.96 197.28 C 168.96 198.64 170.07 199.75 171.43 199.75 Z M 172.46 199.76 L 173.49 199.76 C 174.86 199.76 175.97 198.65 175.97 197.28 C 175.97 195.91 174.86 194.80 173.49 194.80 L 172.46 194.80 C 171.09 194.80 169.98 195.91 169.98 197.28 C 169.98 198.65 171.09 199.76 172.46 199.76 Z M 173.49 199.77 L 174.47 199.77 C 175.85 199.77 176.96 198.66 176.96 197.28 C 176.96 195.90 175.85 194.79 174.47 194.79 L 173.49 194.79 C 172.11 194.79 171.00 195.90 171.00 197.28 C 171.00 198.66 172.11 199.77 173.49 199.77 Z M 174.47 199.79 L 175.42 199.79 C 176.81 199.79 177.93 198.66 177.93 197.28 C 177.93 195.90 176.81 194.77 175.42 194.77 L 174.47 194.77 C 173.09 194.77 171.97 195.90 171.97 197.28 C 171.97 198.66 173.09 199.79 174.47 199.79 Z M 175.42 199.80 L 176.39 199.80 C 177.78 199.80 178.91 198.67 178.91 197.28 C 178.91 195.89 177.78 194.76 176.39 194.76 L 175.42 194.76 C 174.03 194.76 172.90 195.89 172.90 197.28 C 172.90 198.67 174.03 199.80 175.42 199.80 Z M 176.39 199.81 L 177.37 199.81 C 178.77 199.81 179.91 198.68 179.91 197.28 C 179.91 195.88 178.77 194.75 177.37 194.75 L 176.39 194.75 C 174.99 194.75 173.86 195.88 173.86 197.28 C 173.86 198.68 174.99 199.81 176.39 199.81 Z M 177.37 199.83 L 178.38 199.83 C 179.78 199.83 180.92 198.69 180.92 197.28 C 180.92 195.87 179.78 194.73 178.38 194.73 L 177.37 194.73 C 175.97 194.73 174.83 195.87 174.83 197.28 C 174.83 198.69 175.97 199.83 177.37 199.83 Z M 178.38 199.84 L 179.39 199.84 C 180.81 199.84 181.95 198.69 181.95 197.28 C 181.95 195.87 180.81 194.72 179.39 194.72 L 178.38 194.72 C 176.96 194.72 175.82 195.87 175.82 197.28 C 175.82 198.69 176.96 199.84 178.38 199.84 Z M 179.39 199.85 L 180.41 199.85 C 181.83 199.85 182.98 198.70 182.98 197.28 C 182.98 195.86 181.83 194.71 180.41 194.71 L 179.39 194.71 C 177.98 194.71 176.83 195.86 176.83 197.28 C 176.83 198.70 177.98 199.85 179.39 199.85 Z M 180.41 199.84 L 181.43 199.84 C 182.84 199.84 183.99 198.70 183.99 197.28 C 183.99 195.86 182.84 194.72 181.43 194.72 L 180.41 194.72 C 178.99 194.72 177.85 195.86 177.85 197.28 C 177.85 198.70 178.99 199.84 180.41 199.84 Z M 181.43 199.84 L 182.43 199.84 C 183.85 199.84 184.99 198.69 184.99 197.28 C 184.99 195.87 183.85 194.72 182.43 194.72 L 181.43 194.72 C 180.01 194.72 178.87 195.87 178.87 197.28 C 178.87 198.69 180.01 199.84 181.43 199.84 Z M 182.43 199.83 L 183.41 199.83 C 184.82 199.83 185.97 198.69 185.97 197.28 C 185.97 195.87 184.82 194.73 183.41 194.73 L 182.43 194.73 C 181.02 194.73 179.88 195.87 179.88 197.28 C 179.88 198.69 181.02 199.83 182.43 199.83 Z M 183.41 199.83 L 184.44 199.83 C 185.85 199.83 187.00 198.69 187.00 197.28 C 187.00 195.87 185.85 194.73 184.44 194.73 L 183.41 194.73 C 182.00 194.73 180.86 195.87 180.86 197.28 C 180.86 198.69 182.00 199.83 183.41 199.83 Z M 184.44 199.84 L 185.46 199.84 C 186.87 199.84 188.02 198.69 188.02 197.28 C 188.02 195.87 186.87 194.72 185.46 194.72 L 184.44 194.72 C 183.03 194.72 181.89 195.87 181.89 197.28 C 181.89 198.69 183.03 199.84 184.44 199.84 Z M 185.46 199.85 L 186.44 199.85 C 187.85 199.85 189.00 198.70 189.00 197.28 C 189.00 195.86 187.85 194.71 186.44 194.71 L 185.46 194.71 C 184.04 194.71 182.89 195.86 182.89 197.28 C 182.89 198.70 184.04 199.85 185.46 199.85 Z M 186.44 199.85 L 187.41 199.85 C 188.83 199.85 189.98 198.70 189.98 197.28 C 189.98 195.86 188.83 194.71 187.41 194.71 L 186.44 194.71 C 185.01 194.71 183.86 195.86 183.86 197.28 C 183.86 198.70 185.01 199.85 186.44 199.85 Z M 187.41 199.87 L 188.42 199.87 C 189.85 199.87 191.01 198.71 191.01 197.28 C 191.01 195.85 189.85 194.69 188.42 194.69 L 187.41 194.69 C 185.98 194.69 184.82 195.85 184.82 197.28 C 184.82 198.71 185.98 199.87 187.41 199.87 Z M 188.42 199.88 L 189.42 199.88 C 190.86 199.88 192.02 198.72 192.02 197.28 C 192.02 195.84 190.86 194.68 189.42 194.68 L 188.42 194.68 C 186.98 194.68 185.82 195.84 185.82 197.28 C 185.82 198.72 186.98 199.88 188.42 199.88 Z M 189.42 199.90 L 190.40 199.90 C 191.85 199.90 193.02 198.73 193.02 197.28 C 193.02 195.83 191.85 194.66 190.40 194.66 L 189.42 194.66 C 187.97 194.66 186.80 195.83 186.80 197.28 C 186.80 198.73 187.97 199.90 189.42 199.90 Z M 190.41 199.92 L 191.39 199.92 C 192.85 199.91 194.02 198.73 194.02 197.27 C 194.02 195.81 192.83 194.63 191.37 194.64 L 190.39 194.64 C 188.94 194.65 187.76 195.83 187.76 197.29 C 187.77 198.75 188.95 199.92 190.41 199.92 Z M 191.44 199.94 L 192.43 199.92 C 193.90 199.89 195.07 198.67 195.03 197.20 C 195.00 195.72 193.78 194.56 192.31 194.59 L 191.32 194.61 C 189.85 194.64 188.68 195.86 188.72 197.34 C 188.75 198.81 189.97 199.97 191.44 199.94 Z M 192.53 199.94 L 193.55 199.88 C 195.03 199.80 196.16 198.52 196.08 197.04 C 195.99 195.55 194.72 194.42 193.23 194.51 L 192.21 194.57 C 190.73 194.65 189.59 195.93 189.68 197.41 C 189.77 198.90 191.04 200.03 192.53 199.94 Z M 193.67 199.90 L 194.67 199.79 C 196.16 199.63 197.24 198.30 197.09 196.81 C 196.93 195.31 195.59 194.23 194.10 194.39 L 193.10 194.49 C 191.61 194.65 190.53 195.99 190.69 197.48 C 190.84 198.97 192.18 200.05 193.67 199.90 Z M 194.81 199.79 L 195.81 199.63 C 197.30 199.40 198.32 198.00 198.08 196.51 C 197.85 195.02 196.45 194.00 194.96 194.23 L 193.96 194.39 C 192.47 194.62 191.45 196.02 191.69 197.51 C 191.92 199.00 193.32 200.02 194.81 199.79 Z M 195.96 199.62 L 196.95 199.41 C 198.43 199.09 199.38 197.62 199.06 196.14 C 198.74 194.66 197.27 193.72 195.79 194.04 L 194.81 194.25 C 193.32 194.57 192.38 196.03 192.70 197.51 C 193.02 199.00 194.48 199.94 195.96 199.62 Z M 197.15 199.37 L 198.12 199.09 C 199.58 198.66 200.42 197.12 199.99 195.66 C 199.56 194.19 198.03 193.35 196.56 193.78 L 195.59 194.07 C 194.13 194.50 193.29 196.04 193.72 197.50 C 194.15 198.97 195.68 199.80 197.15 199.37 Z M 198.44 199.00 L 199.38 198.60 C 200.80 197.99 201.46 196.35 200.85 194.93 C 200.24 193.52 198.60 192.86 197.19 193.47 L 196.24 193.87 C 194.83 194.48 194.17 196.12 194.78 197.53 C 195.38 198.95 197.02 199.61 198.44 199.00 Z M 199.91 198.34 L 200.70 197.78 C 201.97 196.88 202.28 195.12 201.38 193.85 C 200.49 192.58 198.73 192.27 197.45 193.17 L 196.66 193.73 C 195.39 194.62 195.09 196.38 195.98 197.66 C 196.88 198.93 198.64 199.23 199.91 198.34 Z M 201.33 197.22 L 201.91 196.47 C 202.87 195.23 202.65 193.44 201.40 192.48 C 200.16 191.51 198.37 191.74 197.41 192.98 L 196.83 193.73 C 195.87 194.97 196.09 196.76 197.33 197.72 C 198.57 198.69 200.36 198.46 201.33 197.22 Z M 202.32 195.78 L 202.67 194.90 C 203.25 193.43 202.52 191.77 201.06 191.19 C 199.59 190.61 197.92 191.33 197.34 192.80 L 197.00 193.67 C 196.42 195.14 197.14 196.81 198.61 197.39 C 200.08 197.97 201.74 197.24 202.32 195.78 Z M 202.81 194.42 L 203.01 193.42 C 203.33 191.87 202.33 190.36 200.78 190.05 C 199.23 189.73 197.71 190.73 197.40 192.28 L 197.20 193.28 C 196.88 194.83 197.89 196.34 199.44 196.65 C 200.99 196.97 202.50 195.97 202.81 194.42 Z M 203.06 193.12 L 203.16 192.08 C 203.31 190.51 202.15 189.11 200.58 188.96 C 199.00 188.81 197.60 189.97 197.45 191.54 L 197.35 192.58 C 197.20 194.16 198.36 195.56 199.94 195.71 C 201.51 195.86 202.91 194.70 203.06 193.12 Z M 203.17 191.91 L 203.20 190.98 C 203.25 189.40 202.01 188.07 200.43 188.02 C 198.85 187.97 197.52 189.21 197.47 190.79 L 197.44 191.72 C 197.39 193.30 198.63 194.63 200.21 194.68 C 201.79 194.73 203.12 193.49 203.17 191.91 Z M 203.19 190.81 L 203.17 189.90 C 203.13 188.32 201.81 187.08 200.24 187.12 C 198.66 187.16 197.41 188.48 197.46 190.05 L 197.48 190.96 C 197.52 192.54 198.84 193.78 200.41 193.74 C 201.99 193.70 203.23 192.38 203.19 190.81 Z M 203.14 189.70 L 203.05 188.72 C 202.90 187.16 201.51 186.01 199.94 186.17 C 198.38 186.32 197.23 187.71 197.39 189.27 L 197.48 190.25 C 197.63 191.82 199.02 192.96 200.59 192.81 C 202.15 192.66 203.29 191.27 203.14 189.70 Z M 203.01 188.54 L 202.83 187.42 C 202.57 185.87 201.12 184.83 199.57 185.08 C 198.03 185.33 196.99 186.79 197.24 188.33 L 197.42 189.46 C 197.67 191.00 199.13 192.05 200.67 191.79 C 202.22 191.54 203.26 190.08 203.01 188.54 Z M 202.79 187.29 L 202.58 186.32 C 202.26 184.79 200.77 183.82 199.24 184.14 C 197.72 184.47 196.75 185.96 197.07 187.49 L 197.28 188.46 C 197.60 189.98 199.09 190.96 200.62 190.63 C 202.14 190.31 203.11 188.81 202.79 187.29 Z M 202.55 186.25 L 202.32 185.27 C 201.96 183.77 200.45 182.84 198.94 183.20 C 197.44 183.56 196.51 185.07 196.87 186.57 L 197.10 187.55 C 197.46 189.06 198.97 189.99 200.48 189.63 C 201.98 189.27 202.91 187.76 202.55 186.25 Z M 202.30 185.23 L 202.04 184.22 C 201.66 182.73 200.14 181.83 198.65 182.21 C 197.15 182.59 196.25 184.11 196.63 185.60 L 196.89 186.61 C 197.27 188.11 198.79 189.01 200.28 188.63 C 201.77 188.25 202.68 186.73 202.30 185.23 Z M 202.02 184.20 L 201.75 183.19 C 201.35 181.70 199.84 180.82 198.36 181.21 C 196.87 181.61 195.99 183.13 196.38 184.61 L 196.65 185.62 C 197.05 187.10 198.56 187.98 200.05 187.59 C 201.53 187.20 202.41 185.68 202.02 184.20 Z M 201.73 183.18 L 201.47 182.20 C 201.07 180.73 199.55 179.86 198.08 180.26 C 196.61 180.66 195.74 182.17 196.14 183.64 L 196.40 184.62 C 196.80 186.09 198.32 186.96 199.79 186.56 C 201.26 186.16 202.13 184.65 201.73 183.18 Z M 201.45 182.21 L 201.19 181.25 C 200.79 179.79 199.29 178.92 197.83 179.32 C 196.36 179.71 195.50 181.22 195.90 182.68 L 196.16 183.64 C 196.55 185.10 198.06 185.97 199.52 185.57 C 200.98 185.18 201.85 183.67 201.45 182.21 Z M 201.17 181.27 L 200.87 180.16 C 200.49 178.71 199.00 177.84 197.55 178.23 C 196.10 178.61 195.24 180.10 195.62 181.55 L 195.92 182.66 C 196.30 184.11 197.79 184.98 199.24 184.59 C 200.69 184.21 201.55 182.72 201.17 181.27 Z M 200.85 180.18 L 200.60 179.22 C 200.22 177.79 198.76 176.93 197.33 177.30 C 195.89 177.67 195.03 179.14 195.40 180.57 L 195.65 181.53 C 196.02 182.96 197.49 183.82 198.92 183.45 C 200.36 183.08 201.22 181.61 200.85 180.18 Z M 200.57 179.24 L 200.34 178.37 C 199.98 176.95 198.54 176.09 197.12 176.46 C 195.70 176.82 194.85 178.26 195.21 179.68 L 195.43 180.55 C 195.79 181.97 197.24 182.83 198.66 182.46 C 200.07 182.10 200.93 180.66 200.57 179.24 Z M 200.31 178.38 L 200.09 177.51 C 199.73 176.11 198.31 175.26 196.91 175.62 C 195.51 175.98 194.66 177.40 195.02 178.81 L 195.24 179.67 C 195.60 181.07 197.02 181.92 198.42 181.56 C 199.83 181.20 200.67 179.78 200.31 178.38 Z M 200.06 177.51 L 199.82 176.58 C 199.46 175.20 198.05 174.37 196.67 174.72 C 195.29 175.08 194.46 176.48 194.81 177.87 L 195.05 178.80 C 195.41 180.18 196.82 181.01 198.20 180.66 C 199.58 180.30 200.41 178.90 200.06 177.51 Z M 199.78 176.59 L 199.54 175.62 C 199.19 174.26 197.80 173.44 196.44 173.79 C 195.07 174.13 194.25 175.52 194.60 176.89 L 194.85 177.85 C 195.19 179.22 196.58 180.04 197.95 179.69 C 199.31 179.34 200.13 177.96 199.78 176.59 Z M 199.51 175.64 L 199.25 174.64 C 198.92 173.29 197.55 172.48 196.20 172.81 C 194.86 173.15 194.04 174.52 194.38 175.86 L 194.63 176.87 C 194.97 178.21 196.33 179.03 197.68 178.69 C 199.03 178.36 199.84 176.99 199.51 175.64 Z M 199.22 174.66 L 198.99 173.70 C 198.67 172.37 197.32 171.56 195.99 171.88 C 194.66 172.21 193.85 173.55 194.17 174.88 L 194.41 175.84 C 194.73 177.17 196.07 177.99 197.40 177.66 C 198.73 177.34 199.55 175.99 199.22 174.66 Z M 198.96 173.72 L 198.73 172.77 C 198.42 171.46 197.10 170.65 195.79 170.96 C 194.47 171.28 193.66 172.60 193.98 173.91 L 194.20 174.86 C 194.52 176.17 195.83 176.98 197.15 176.67 C 198.46 176.36 199.27 175.04 198.96 173.72 Z M 198.70 172.79 L 198.47 171.81 C 198.17 170.52 196.87 169.71 195.57 170.02 C 194.27 170.32 193.47 171.62 193.78 172.92 L 194.01 173.90 C 194.31 175.19 195.61 176.00 196.91 175.69 C 198.21 175.39 199.01 174.09 198.70 172.79 Z M 198.44 171.82 L 198.21 170.82 C 197.91 169.54 196.62 168.75 195.34 169.05 C 194.07 169.35 193.27 170.63 193.57 171.91 L 193.81 172.91 C 194.11 174.19 195.39 174.98 196.67 174.68 C 197.95 174.38 198.74 173.10 198.44 171.82 Z M 198.17 170.82 L 197.94 169.84 C 197.64 168.58 196.38 167.80 195.12 168.10 C 193.86 168.40 193.08 169.66 193.37 170.92 L 193.61 171.90 C 193.90 173.17 195.17 173.95 196.43 173.65 C 197.69 173.35 198.47 172.09 198.17 170.82 Z M 197.91 169.85 L 197.68 168.89 C 197.38 167.65 196.13 166.88 194.89 167.17 C 193.65 167.47 192.88 168.72 193.18 169.96 L 193.41 170.92 C 193.70 172.16 194.95 172.93 196.19 172.63 C 197.44 172.34 198.20 171.09 197.91 169.85 Z M 197.64 168.89 L 197.41 167.92 C 197.12 166.70 195.89 165.94 194.66 166.24 C 193.44 166.53 192.69 167.76 192.98 168.98 L 193.21 169.96 C 193.51 171.18 194.74 171.93 195.96 171.64 C 197.18 171.35 197.94 170.12 197.64 168.89 Z M 197.38 167.93 L 197.14 166.94 C 196.85 165.74 195.64 164.99 194.43 165.28 C 193.23 165.58 192.49 166.79 192.78 167.99 L 193.01 168.98 C 193.30 170.18 194.52 170.92 195.72 170.63 C 196.93 170.34 197.67 169.13 197.38 167.93 Z M 197.11 166.95 L 196.87 165.96 C 196.58 164.77 195.39 164.04 194.20 164.33 C 193.01 164.62 192.28 165.81 192.57 167.00 L 192.81 167.99 C 193.10 169.17 194.29 169.90 195.48 169.62 C 196.66 169.33 197.39 168.13 197.11 166.95 Z M 196.84 165.97 L 196.60 165.01 C 196.32 163.84 195.15 163.12 193.98 163.40 C 192.81 163.68 192.09 164.86 192.37 166.03 L 192.60 166.99 C 192.89 168.16 194.06 168.88 195.23 168.60 C 196.40 168.31 197.12 167.14 196.84 165.97 Z M 196.57 165.02 L 196.34 164.05 C 196.06 162.90 194.91 162.19 193.75 162.47 C 192.60 162.74 191.89 163.90 192.17 165.05 L 192.40 166.02 C 192.68 167.17 193.84 167.88 194.99 167.60 C 196.14 167.33 196.85 166.17 196.57 165.02 Z M 196.31 164.06 L 196.08 163.09 C 195.81 161.95 194.67 161.25 193.53 161.52 C 192.40 161.80 191.70 162.94 191.97 164.07 L 192.20 165.04 C 192.47 166.18 193.61 166.88 194.75 166.61 C 195.88 166.34 196.58 165.20 196.31 164.06 Z M 196.05 163.10 L 195.82 162.12 C 195.55 161.00 194.43 160.31 193.31 160.57 C 192.19 160.84 191.50 161.96 191.77 163.08 L 192.00 164.06 C 192.26 165.18 193.38 165.87 194.50 165.61 C 195.62 165.34 196.31 164.22 196.05 163.10 Z M 195.79 162.13 L 195.55 161.14 C 195.30 160.04 194.19 159.36 193.09 159.61 C 191.99 159.87 191.31 160.97 191.56 162.08 L 191.80 163.07 C 192.05 164.17 193.16 164.85 194.26 164.59 C 195.36 164.34 196.04 163.23 195.79 162.13 Z M 195.52 161.16 L 195.30 160.16 C 195.04 159.08 193.96 158.40 192.88 158.65 C 191.79 158.90 191.11 159.99 191.36 161.07 L 191.59 162.06 C 191.84 163.15 192.93 163.83 194.01 163.58 C 195.10 163.32 195.78 162.24 195.52 161.16 Z M 195.27 160.17 L 195.04 159.18 C 194.79 158.11 193.73 157.45 192.66 157.69 C 191.59 157.94 190.92 159.00 191.17 160.07 L 191.39 161.06 C 191.64 162.13 192.71 162.80 193.77 162.55 C 194.84 162.31 195.51 161.24 195.27 160.17 Z M 195.01 159.19 L 194.78 158.21 C 194.54 157.16 193.49 156.51 192.44 156.75 C 191.39 156.99 190.73 158.04 190.97 159.09 L 191.20 160.06 C 191.44 161.12 192.49 161.77 193.54 161.53 C 194.59 161.29 195.25 160.24 195.01 159.19 Z M 194.75 158.22 L 194.53 157.27 C 194.30 156.24 193.26 155.59 192.23 155.83 C 191.19 156.07 190.55 157.10 190.79 158.13 L 191.01 159.08 C 191.24 160.12 192.28 160.76 193.31 160.52 C 194.35 160.29 194.99 159.25 194.75 158.22 Z M 194.50 157.27 L 194.27 156.27 C 194.03 155.25 193.01 154.61 192.00 154.85 C 190.98 155.09 190.34 156.11 190.58 157.12 L 190.82 158.13 C 191.05 159.15 192.07 159.78 193.09 159.55 C 194.11 159.31 194.74 158.29 194.50 157.27 Z M 194.24 156.27 L 194.00 155.27 C 193.77 154.26 192.76 153.64 191.76 153.88 C 190.76 154.12 190.14 155.12 190.37 156.12 L 190.61 157.12 C 190.85 158.13 191.85 158.75 192.85 158.51 C 193.86 158.27 194.48 157.27 194.24 156.27 Z M 193.97 155.26 L 193.74 154.30 C 193.50 153.32 192.51 152.71 191.53 152.95 C 190.54 153.19 189.93 154.18 190.17 155.17 L 190.40 156.13 C 190.64 157.11 191.63 157.72 192.62 157.48 C 193.60 157.24 194.21 156.25 193.97 155.26 Z M 193.71 154.30 L 193.49 153.37 C 193.25 152.40 192.27 151.81 191.30 152.05 C 190.33 152.29 189.73 153.27 189.97 154.24 L 190.20 155.17 C 190.44 156.14 191.42 156.73 192.39 156.49 C 193.36 156.25 193.95 155.27 193.71 154.30 Z M 193.46 153.37 L 193.24 152.47 C 193.00 151.52 192.03 150.94 191.07 151.18 C 190.11 151.42 189.53 152.39 189.77 153.34 L 190.00 154.24 C 190.24 155.20 191.21 155.78 192.16 155.54 C 193.12 155.30 193.70 154.33 193.46 153.37 Z M 193.22 152.47 L 192.99 151.57 C 192.74 150.62 191.78 150.05 190.83 150.30 C 189.89 150.54 189.32 151.50 189.56 152.45 L 189.79 153.35 C 190.03 154.29 191.00 154.86 191.94 154.62 C 192.89 154.38 193.46 153.41 193.22 152.47 Z M 192.97 151.56 L 192.72 150.62 C 192.47 149.68 191.51 149.12 190.58 149.37 C 189.64 149.61 189.08 150.57 189.33 151.51 L 189.58 152.45 C 189.82 153.39 190.78 153.95 191.72 153.71 C 192.66 153.46 193.22 152.50 192.97 151.56 Z M 192.70 150.61 L 192.43 149.58 C 192.18 148.65 191.22 148.10 190.29 148.35 C 189.37 148.60 188.82 149.56 189.07 150.48 L 189.34 151.52 C 189.59 152.44 190.55 152.99 191.48 152.74 C 192.40 152.49 192.95 151.54 192.70 150.61 Z M 192.41 149.58 L 192.15 148.60 C 191.89 147.68 190.94 147.14 190.02 147.39 C 189.10 147.64 188.56 148.59 188.81 149.51 L 189.08 150.49 C 189.33 151.41 190.28 151.95 191.20 151.70 C 192.12 151.45 192.67 150.50 192.41 149.58 Z M 192.14 148.59 L 191.89 147.71 C 191.64 146.79 190.69 146.25 189.77 146.51 C 188.86 146.76 188.32 147.71 188.57 148.63 L 188.82 149.51 C 189.07 150.43 190.02 150.97 190.94 150.71 C 191.86 150.46 192.39 149.51 192.14 148.59 Z M 191.89 147.70 L 191.63 146.76 C 191.37 145.85 190.42 145.31 189.51 145.57 C 188.59 145.82 188.06 146.77 188.31 147.69 L 188.58 148.63 C 188.83 149.54 189.78 150.08 190.69 149.82 C 191.61 149.57 192.14 148.62 191.89 147.70 Z M 191.62 146.76 L 191.35 145.78 C 191.09 144.86 190.14 144.33 189.23 144.59 C 188.32 144.84 187.78 145.79 188.04 146.70 L 188.32 147.69 C 188.57 148.60 189.52 149.13 190.43 148.88 C 191.35 148.62 191.88 147.67 191.62 146.76 Z M 191.34 145.78 L 191.06 144.76 C 190.80 143.85 189.85 143.32 188.94 143.58 C 188.03 143.83 187.50 144.78 187.76 145.69 L 188.04 146.70 C 188.30 147.62 189.25 148.15 190.16 147.89 C 191.07 147.63 191.60 146.69 191.34 145.78 Z M 191.05 144.76 L 190.76 143.73 C 190.51 142.82 189.56 142.30 188.65 142.55 C 187.74 142.81 187.21 143.75 187.47 144.66 L 187.76 145.69 C 188.02 146.60 188.96 147.13 189.87 146.87 C 190.78 146.62 191.31 145.67 191.05 144.76 Z M 190.76 143.73 L 190.67 143.42 C 190.42 142.52 189.47 141.99 188.57 142.24 C 187.66 142.50 187.13 143.44 187.39 144.35 L 187.47 144.66 C 187.73 145.57 188.67 146.10 189.58 145.84 C 190.49 145.59 191.02 144.64 190.76 143.73 Z"
      fill="black"
      fill-rule="nonzero" /></svg>