<svg xmlns="http://www.w3.org/2000/svg" width="300" height="300" viewBox="0 0 300 300">
<path d="M 119.61 115.91 L 120.50 116.31 C 121.62 116.82 122.93 116.33 123.44 115.21 C 123.95 114.10 123.46 112.78 122.34 112.27 L 121.45 111.86 C 120.33 111.36 119.01 111.85 118.51 112.96 C 118.00 114.08 118.49 115.40 119.61 115.91 Z M 120.50 116.29 L 121.39 116.70 C 122.50 117.21 123.81 116.73 124.32 115.63 C 124.83 114.53 124.34 113.22 123.24 112.71 L 122.34 112.29 C 121.24 111.78 119.93 112.27 119.42 113.37 C 118.91 114.47 119.39 115.78 120.50 116.29 Z M 121.38 116.68 L 122.29 117.11 C 123.38 117.63 124.68 117.16 125.20 116.07 C 125.71 114.99 125.25 113.68 124.16 113.17 L 123.25 112.74 C 122.16 112.22 120.86 112.68 120.35 113.77 C 119.83 114.86 120.29 116.16 121.38 116.68 Z M 122.27 117.08 L 123.17 117.52 C 124.25 118.05 125.54 117.61 126.07 116.54 C 126.60 115.47 126.16 114.17 125.09 113.65 L 124.18 113.20 C 123.11 112.67 121.82 113.11 121.29 114.18 C 120.76 115.25 121.20 116.55 122.27 117.08 Z M 123.15 117.49 L 123.98 117.92 C 125.04 118.46 126.33 118.05 126.87 116.99 C 127.41 115.94 127.00 114.65 125.94 114.11 L 125.11 113.68 C 124.06 113.14 122.76 113.55 122.22 114.60 C 121.68 115.66 122.10 116.95 123.15 117.49 Z M 123.96 117.89 L 124.82 118.35 C 125.86 118.90 127.15 118.51 127.70 117.47 C 128.26 116.43 127.86 115.14 126.82 114.59 L 125.96 114.13 C 124.93 113.58 123.64 113.97 123.09 115.01 C 122.53 116.05 122.93 117.34 123.96 117.89 Z M 124.81 118.32 L 125.70 118.81 C 126.72 119.37 128.01 119.00 128.57 117.98 C 129.13 116.96 128.76 115.67 127.74 115.11 L 126.84 114.62 C 125.82 114.06 124.53 114.43 123.97 115.45 C 123.41 116.47 123.78 117.76 124.81 118.32 Z M 125.69 118.79 L 126.62 119.31 C 127.63 119.88 128.91 119.53 129.48 118.52 C 130.05 117.51 129.69 116.23 128.68 115.66 L 127.75 115.14 C 126.74 114.57 125.46 114.92 124.89 115.93 C 124.32 116.94 124.68 118.22 125.69 118.79 Z M 126.61 119.29 L 127.49 119.80 C 128.49 120.37 129.76 120.03 130.33 119.04 C 130.91 118.05 130.57 116.77 129.57 116.20 L 128.69 115.69 C 127.70 115.11 126.43 115.45 125.85 116.45 C 125.28 117.44 125.62 118.71 126.61 119.29 Z M 127.49 119.77 L 128.38 120.29 C 129.36 120.87 130.62 120.54 131.19 119.57 C 131.77 118.59 131.44 117.33 130.47 116.75 L 129.58 116.23 C 128.60 115.65 127.34 115.98 126.76 116.96 C 126.18 117.93 126.51 119.20 127.49 119.77 Z M 128.38 120.27 L 129.26 120.80 C 130.22 121.37 131.47 121.06 132.05 120.09 C 132.63 119.13 132.31 117.88 131.35 117.30 L 130.47 116.78 C 129.50 116.20 128.25 116.51 127.68 117.48 C 127.10 118.44 127.41 119.69 128.38 120.27 Z M 129.26 120.77 L 130.11 121.29 C 131.06 121.86 132.30 121.56 132.87 120.61 C 133.45 119.66 133.15 118.42 132.20 117.85 L 131.35 117.33 C 130.40 116.75 129.16 117.05 128.58 118.00 C 128.01 118.95 128.31 120.19 129.26 120.77 Z M 130.11 121.26 L 130.91 121.76 C 131.85 122.34 133.07 122.05 133.65 121.11 C 134.23 120.18 133.94 118.95 133.01 118.37 L 132.20 117.87 C 131.27 117.29 130.04 117.58 129.46 118.52 C 128.88 119.45 129.17 120.68 130.11 121.26 Z M 130.90 121.73 L 131.85 122.34 C 132.77 122.92 133.99 122.65 134.58 121.73 C 135.16 120.81 134.89 119.59 133.97 119.00 L 133.02 118.40 C 132.10 117.81 130.88 118.09 130.29 119.01 C 129.71 119.93 129.98 121.15 130.90 121.73 Z M 131.82 122.30 L 132.65 122.86 C 133.55 123.47 134.77 123.23 135.38 122.33 C 135.98 121.43 135.74 120.21 134.84 119.60 L 134.00 119.04 C 133.10 118.44 131.88 118.68 131.28 119.58 C 130.68 120.48 130.92 121.70 131.82 122.30 Z M 132.60 122.81 L 133.35 123.35 C 134.22 123.99 135.44 123.80 136.07 122.92 C 136.71 122.05 136.51 120.83 135.64 120.20 L 134.89 119.65 C 134.02 119.02 132.80 119.21 132.17 120.08 C 131.53 120.96 131.73 122.18 132.60 122.81 Z M 133.27 123.29 L 134.00 123.87 C 134.83 124.55 136.05 124.42 136.73 123.58 C 137.40 122.75 137.28 121.53 136.44 120.85 L 135.72 120.26 C 134.88 119.59 133.66 119.72 132.98 120.55 C 132.31 121.39 132.44 122.61 133.27 123.29 Z M 133.89 123.77 L 134.60 124.45 C 135.38 125.19 136.61 125.15 137.35 124.37 C 138.09 123.59 138.05 122.36 137.27 121.63 L 136.55 120.95 C 135.77 120.21 134.54 120.25 133.81 121.03 C 133.07 121.81 133.11 123.04 133.89 123.77 Z M 134.46 124.30 L 135.10 125.06 C 135.79 125.87 137.02 125.97 137.84 125.28 C 138.66 124.58 138.76 123.36 138.06 122.54 L 137.42 121.78 C 136.72 120.96 135.50 120.86 134.68 121.56 C 133.86 122.25 133.76 123.48 134.46 124.30 Z M 134.94 124.85 L 135.48 125.68 C 136.06 126.59 137.27 126.85 138.17 126.27 C 139.07 125.68 139.33 124.48 138.75 123.57 L 138.22 122.74 C 137.63 121.84 136.43 121.58 135.53 122.16 C 134.62 122.74 134.36 123.95 134.94 124.85 Z M 135.36 125.47 L 135.75 126.30 C 136.22 127.27 137.38 127.69 138.35 127.22 C 139.32 126.76 139.74 125.60 139.27 124.63 L 138.87 123.79 C 138.41 122.82 137.25 122.41 136.28 122.87 C 135.31 123.33 134.89 124.50 135.36 125.47 Z M 135.67 126.09 L 135.99 127.03 C 136.33 128.05 137.44 128.59 138.46 128.25 C 139.48 127.90 140.02 126.79 139.68 125.77 L 139.36 124.84 C 139.01 123.82 137.91 123.27 136.89 123.62 C 135.87 123.97 135.32 125.07 135.67 126.09 Z M 135.93 126.81 L 136.15 127.85 C 136.38 128.90 137.42 129.57 138.47 129.34 C 139.52 129.11 140.19 128.07 139.96 127.02 L 139.74 125.98 C 139.51 124.93 138.47 124.26 137.42 124.49 C 136.36 124.72 135.70 125.76 135.93 126.81 Z M 136.12 127.65 L 136.23 128.67 C 136.35 129.74 137.32 130.51 138.39 130.39 C 139.46 130.27 140.23 129.31 140.11 128.23 L 140.00 127.22 C 139.88 126.15 138.91 125.37 137.84 125.49 C 136.77 125.61 136.00 126.58 136.12 127.65 Z M 136.22 128.49 L 136.24 129.47 C 136.27 130.55 137.16 131.40 138.23 131.38 C 139.31 131.35 140.16 130.46 140.14 129.38 L 140.12 128.41 C 140.10 127.33 139.20 126.48 138.13 126.50 C 137.05 126.53 136.20 127.42 136.22 128.49 Z M 136.25 129.30 L 136.18 130.31 C 136.12 131.38 136.93 132.31 138.01 132.37 C 139.08 132.44 140.00 131.63 140.07 130.55 L 140.13 129.55 C 140.20 128.48 139.39 127.55 138.31 127.48 C 137.24 127.41 136.32 128.23 136.25 129.30 Z M 136.21 130.13 L 136.05 131.14 C 135.89 132.20 136.61 133.20 137.67 133.36 C 138.74 133.53 139.73 132.80 139.89 131.74 L 140.05 130.73 C 140.21 129.67 139.49 128.67 138.43 128.51 C 137.36 128.34 136.37 129.07 136.21 130.13 Z M 136.09 130.95 L 135.83 131.94 C 135.56 132.98 136.19 134.04 137.23 134.31 C 138.27 134.58 139.33 133.96 139.60 132.92 L 139.85 131.93 C 140.12 130.89 139.50 129.83 138.46 129.56 C 137.42 129.29 136.36 129.91 136.09 130.95 Z M 135.90 131.75 L 135.56 132.65 C 135.18 133.65 135.69 134.77 136.69 135.15 C 137.69 135.53 138.81 135.02 139.18 134.02 L 139.53 133.12 C 139.90 132.11 139.40 131.00 138.40 130.62 C 137.40 130.24 136.28 130.75 135.90 131.75 Z M 135.64 132.49 L 135.22 133.36 C 134.75 134.31 135.14 135.47 136.10 135.94 C 137.05 136.40 138.21 136.01 138.67 135.06 L 139.10 134.18 C 139.57 133.23 139.18 132.08 138.22 131.61 C 137.27 131.14 136.11 131.53 135.64 132.49 Z M 135.30 133.23 L 134.79 134.09 C 134.26 135.00 134.56 136.17 135.47 136.71 C 136.38 137.25 137.55 136.95 138.09 136.03 L 138.59 135.18 C 139.13 134.27 138.83 133.10 137.92 132.56 C 137.01 132.02 135.84 132.32 135.30 133.23 Z M 134.86 134.00 L 134.29 134.84 C 133.70 135.71 133.93 136.90 134.81 137.48 C 135.68 138.07 136.86 137.84 137.45 136.97 L 138.02 136.13 C 138.61 135.25 138.38 134.07 137.51 133.48 C 136.63 132.89 135.45 133.12 134.86 134.00 Z M 134.35 134.78 L 133.72 135.63 C 133.10 136.47 133.28 137.65 134.12 138.28 C 134.96 138.90 136.15 138.72 136.77 137.88 L 137.39 137.03 C 138.01 136.19 137.84 135.00 136.99 134.38 C 136.15 133.76 134.97 133.94 134.35 134.78 Z M 133.76 135.59 L 133.12 136.41 C 132.48 137.23 132.63 138.41 133.45 139.05 C 134.27 139.69 135.45 139.55 136.09 138.73 L 136.73 137.91 C 137.37 137.09 137.23 135.91 136.40 135.27 C 135.58 134.63 134.40 134.77 133.76 135.59 Z M 133.15 136.39 L 132.49 137.20 C 131.84 138.00 131.96 139.18 132.77 139.84 C 133.57 140.49 134.75 140.37 135.41 139.56 L 136.06 138.75 C 136.72 137.95 136.59 136.77 135.79 136.11 C 134.99 135.46 133.81 135.58 133.15 136.39 Z M 132.52 137.18 L 131.86 137.97 C 131.20 138.76 131.30 139.94 132.09 140.60 C 132.88 141.26 134.06 141.16 134.72 140.37 L 135.38 139.58 C 136.04 138.79 135.94 137.61 135.15 136.95 C 134.36 136.29 133.18 136.39 132.52 137.18 Z M 131.88 137.96 L 131.24 138.70 C 130.57 139.48 130.66 140.66 131.44 141.32 C 132.22 141.99 133.39 141.90 134.06 141.12 L 134.70 140.38 C 135.37 139.60 135.28 138.43 134.50 137.76 C 133.72 137.09 132.55 137.18 131.88 137.96 Z M 131.26 138.69 L 130.66 139.38 C 129.98 140.15 130.06 141.32 130.83 141.99 C 131.60 142.67 132.77 142.59 133.44 141.82 L 134.04 141.13 C 134.72 140.36 134.64 139.19 133.87 138.52 C 133.10 137.85 131.93 137.93 131.26 138.69 Z M 130.68 139.37 L 129.93 140.21 C 129.26 140.97 129.32 142.13 130.08 142.81 C 130.84 143.48 132.00 143.42 132.68 142.66 L 133.42 141.83 C 134.10 141.07 134.03 139.90 133.27 139.23 C 132.52 138.55 131.35 138.62 130.68 139.37 Z M 129.95 140.20 L 129.28 140.94 C 128.60 141.69 128.65 142.84 129.40 143.53 C 130.14 144.21 131.30 144.15 131.98 143.41 L 132.66 142.67 C 133.34 141.92 133.28 140.76 132.54 140.08 C 131.79 139.40 130.63 139.46 129.95 140.20 Z M 129.30 140.94 L 128.67 141.62 C 127.98 142.36 128.03 143.51 128.76 144.19 C 129.50 144.87 130.64 144.83 131.33 144.09 L 131.96 143.41 C 132.64 142.67 132.60 141.53 131.87 140.84 C 131.13 140.16 129.98 140.20 129.30 140.94 Z M 128.68 141.62 L 128.04 142.31 C 127.36 143.03 127.39 144.18 128.12 144.86 C 128.85 145.54 129.99 145.50 130.67 144.77 L 131.31 144.09 C 131.99 143.36 131.96 142.22 131.23 141.54 C 130.50 140.86 129.36 140.90 128.68 141.62 Z M 128.05 142.31 L 127.36 143.03 C 126.68 143.76 126.72 144.89 127.44 145.58 C 128.16 146.26 129.30 146.22 129.98 145.50 L 130.66 144.77 C 131.34 144.05 131.31 142.91 130.59 142.23 C 129.86 141.55 128.73 141.59 128.05 142.31 Z M 127.37 143.03 L 126.68 143.76 C 126.00 144.48 126.03 145.62 126.75 146.30 C 127.46 146.98 128.60 146.95 129.28 146.23 L 129.97 145.50 C 130.65 144.78 130.62 143.65 129.91 142.97 C 129.19 142.28 128.05 142.31 127.37 143.03 Z M 126.69 143.76 L 125.99 144.48 C 125.31 145.20 125.33 146.33 126.05 147.01 C 126.76 147.70 127.89 147.67 128.57 146.96 L 129.27 146.24 C 129.95 145.52 129.93 144.39 129.22 143.71 C 128.50 143.02 127.37 143.05 126.69 143.76 Z M 126.01 144.48 L 125.29 145.21 C 124.61 145.91 124.62 147.04 125.33 147.73 C 126.03 148.42 127.16 148.40 127.85 147.70 L 128.56 146.97 C 129.25 146.26 129.24 145.13 128.53 144.44 C 127.82 143.76 126.70 143.77 126.01 144.48 Z M 125.31 145.20 L 124.60 145.91 C 123.91 146.61 123.91 147.73 124.61 148.43 C 125.31 149.12 126.43 149.12 127.13 148.42 L 127.83 147.71 C 128.53 147.01 128.52 145.88 127.83 145.19 C 127.13 144.50 126.00 144.50 125.31 145.20 Z M 124.62 145.90 L 123.92 146.59 C 123.22 147.28 123.21 148.40 123.90 149.10 C 124.59 149.80 125.71 149.81 126.41 149.12 L 127.11 148.43 C 127.81 147.74 127.82 146.62 127.13 145.92 C 126.44 145.22 125.32 145.21 124.62 145.90 Z M 123.93 146.58 L 123.22 147.27 C 122.51 147.95 122.49 149.07 123.17 149.78 C 123.85 150.48 124.97 150.50 125.68 149.82 L 126.39 149.13 C 127.10 148.45 127.12 147.33 126.44 146.63 C 125.76 145.92 124.64 145.90 123.93 146.58 Z M 123.23 147.26 L 122.50 147.95 C 121.80 148.62 121.77 149.74 122.44 150.45 C 123.11 151.16 124.23 151.19 124.94 150.52 L 125.66 149.83 C 126.37 149.16 126.40 148.04 125.73 147.33 C 125.06 146.62 123.94 146.59 123.23 147.26 Z M 122.51 147.95 L 121.79 148.63 C 121.08 149.30 121.04 150.41 121.71 151.12 C 122.37 151.83 123.49 151.87 124.20 151.20 L 124.93 150.52 C 125.64 149.86 125.67 148.74 125.01 148.03 C 124.34 147.32 123.23 147.28 122.51 147.95 Z M 121.79 148.63 L 121.06 149.31 C 120.35 149.98 120.31 151.09 120.98 151.80 C 121.64 152.51 122.75 152.55 123.46 151.88 L 124.19 151.20 C 124.90 150.54 124.94 149.43 124.28 148.72 C 123.62 148.01 122.50 147.97 121.79 148.63 Z M 121.07 149.31 L 120.33 150.00 C 119.62 150.66 119.58 151.77 120.24 152.48 C 120.90 153.19 122.01 153.23 122.72 152.57 L 123.46 151.88 C 124.17 151.22 124.21 150.11 123.55 149.40 C 122.89 148.69 121.78 148.65 121.07 149.31 Z M 120.34 149.99 L 119.61 150.67 C 118.89 151.33 118.85 152.43 119.50 153.15 C 120.16 153.86 121.27 153.91 121.98 153.25 L 122.72 152.57 C 123.43 151.92 123.47 150.81 122.82 150.09 C 122.16 149.38 121.05 149.34 120.34 149.99 Z M 119.62 150.66 L 118.88 151.33 C 118.16 151.98 118.11 153.08 118.76 153.80 C 119.41 154.52 120.51 154.57 121.23 153.93 L 121.97 153.26 C 122.68 152.61 122.74 151.50 122.09 150.78 C 121.44 150.07 120.34 150.01 119.62 150.66 Z M 118.90 151.32 L 118.15 151.98 C 117.43 152.62 117.36 153.72 118.00 154.45 C 118.64 155.17 119.74 155.24 120.46 154.60 L 121.21 153.94 C 121.94 153.30 122.00 152.19 121.36 151.47 C 120.72 150.75 119.62 150.68 118.90 151.32 Z M 118.17 151.97 L 117.41 152.62 C 116.68 153.25 116.60 154.35 117.23 155.08 C 117.86 155.81 118.96 155.89 119.69 155.26 L 120.45 154.61 C 121.17 153.98 121.25 152.88 120.63 152.15 C 120.00 151.42 118.90 151.34 118.17 151.97 Z M 117.43 152.61 L 116.67 153.26 C 115.93 153.88 115.84 154.98 116.46 155.71 C 117.08 156.44 118.18 156.53 118.91 155.91 L 119.67 155.27 C 120.41 154.65 120.50 153.55 119.88 152.82 C 119.26 152.09 118.16 151.99 117.43 152.61 Z M 116.68 153.25 L 115.92 153.88 C 115.19 154.49 115.08 155.58 115.69 156.32 C 116.31 157.06 117.40 157.16 118.14 156.55 L 118.90 155.92 C 119.63 155.31 119.74 154.22 119.12 153.48 C 118.51 152.74 117.42 152.64 116.68 153.25 Z M 115.93 153.88 L 115.16 154.51 C 114.42 155.12 114.31 156.21 114.92 156.95 C 115.53 157.68 116.62 157.79 117.36 157.19 L 118.13 156.55 C 118.87 155.95 118.98 154.86 118.37 154.12 C 117.76 153.38 116.67 153.27 115.93 153.88 Z M 115.17 154.51 L 114.38 155.15 C 113.64 155.76 113.53 156.85 114.13 157.58 C 114.74 158.32 115.82 158.43 116.56 157.83 L 117.35 157.19 C 118.09 156.58 118.20 155.49 117.59 154.76 C 116.99 154.02 115.90 153.91 115.17 154.51 Z M 114.38 155.16 L 113.68 155.73 C 112.94 156.33 112.84 157.42 113.44 158.15 C 114.04 158.89 115.13 159.00 115.87 158.40 L 116.56 157.83 C 117.30 157.22 117.41 156.14 116.80 155.40 C 116.20 154.66 115.11 154.55 114.38 155.16 Z M 113.68 155.73 L 112.95 156.32 C 112.22 156.93 112.11 158.01 112.71 158.75 C 113.31 159.49 114.40 159.60 115.13 158.99 L 115.86 158.40 C 116.60 157.79 116.71 156.71 116.11 155.97 C 115.51 155.23 114.42 155.12 113.68 155.73 Z M 112.96 156.32 L 112.15 156.97 C 111.41 157.58 111.30 158.66 111.90 159.40 C 112.50 160.14 113.59 160.25 114.33 159.65 L 115.13 159.00 C 115.87 158.40 115.98 157.31 115.38 156.57 C 114.78 155.83 113.69 155.72 112.96 156.32 Z M 112.16 156.97 L 111.30 157.66 C 110.56 158.26 110.44 159.34 111.04 160.09 C 111.64 160.83 112.72 160.94 113.47 160.35 L 114.32 159.65 C 115.06 159.06 115.18 157.97 114.58 157.23 C 113.98 156.49 112.90 156.37 112.16 156.97 Z M 111.30 157.65 L 110.58 158.24 C 109.83 158.83 109.71 159.92 110.31 160.66 C 110.90 161.41 111.99 161.53 112.73 160.93 L 113.46 160.35 C 114.21 159.76 114.33 158.67 113.73 157.92 C 113.14 157.18 112.05 157.06 111.30 157.65 Z M 110.58 158.23 L 109.80 158.85 C 109.05 159.44 108.93 160.53 109.52 161.28 C 110.12 162.03 111.21 162.15 111.96 161.56 L 112.73 160.94 C 113.48 160.35 113.61 159.26 113.01 158.51 C 112.41 157.76 111.32 157.63 110.58 158.23 Z M 109.80 158.84 L 108.99 159.48 C 108.24 160.07 108.11 161.17 108.71 161.92 C 109.30 162.67 110.40 162.80 111.15 162.20 L 111.96 161.57 C 112.71 160.97 112.84 159.88 112.24 159.13 C 111.65 158.37 110.55 158.25 109.80 158.84 Z M 109.00 159.47 L 108.18 160.11 C 107.42 160.71 107.29 161.80 107.88 162.56 C 108.48 163.32 109.57 163.45 110.33 162.85 L 111.15 162.21 C 111.90 161.62 112.04 160.52 111.44 159.76 C 110.85 159.01 109.75 158.88 109.00 159.47 Z M 108.18 160.11 L 107.37 160.74 C 106.60 161.33 106.47 162.43 107.06 163.19 C 107.66 163.95 108.75 164.09 109.51 163.50 L 110.33 162.86 C 111.09 162.27 111.22 161.17 110.63 160.41 C 110.04 159.65 108.94 159.51 108.18 160.11 Z M 107.37 160.73 L 106.53 161.38 C 105.76 161.97 105.62 163.08 106.21 163.84 C 106.81 164.61 107.91 164.75 108.67 164.16 L 109.51 163.51 C 110.28 162.91 110.42 161.81 109.83 161.05 C 109.23 160.28 108.13 160.14 107.37 160.73 Z M 106.53 161.37 L 105.71 162.00 C 104.94 162.59 104.79 163.69 105.39 164.47 C 105.98 165.24 107.08 165.38 107.86 164.79 L 108.67 164.17 C 109.44 163.57 109.59 162.47 109.00 161.70 C 108.41 160.92 107.30 160.78 106.53 161.37 Z M 105.71 161.98 L 104.92 162.59 C 104.14 163.18 103.99 164.29 104.58 165.07 C 105.17 165.85 106.29 166.00 107.06 165.41 L 107.86 164.80 C 108.63 164.21 108.79 163.10 108.19 162.32 C 107.60 161.54 106.49 161.39 105.71 161.98 Z M 104.92 162.58 L 104.15 163.16 C 103.37 163.75 103.21 164.86 103.80 165.65 C 104.39 166.43 105.51 166.59 106.29 166.00 L 107.06 165.42 C 107.85 164.83 108.00 163.71 107.41 162.93 C 106.82 162.14 105.71 161.98 104.92 162.58 Z M 104.15 163.14 L 103.39 163.71 C 102.60 164.30 102.44 165.42 103.03 166.21 C 103.62 167.00 104.74 167.17 105.53 166.58 L 106.29 166.01 C 107.08 165.42 107.25 164.30 106.65 163.51 C 106.06 162.72 104.94 162.55 104.15 163.14 Z M 103.39 163.69 L 102.60 164.28 C 101.80 164.87 101.62 166.00 102.21 166.80 C 102.80 167.60 103.93 167.77 104.73 167.18 L 105.53 166.60 C 106.33 166.01 106.50 164.88 105.91 164.08 C 105.32 163.27 104.20 163.10 103.39 163.69 Z M 102.61 164.25 L 101.81 164.82 C 100.99 165.40 100.80 166.54 101.39 167.36 C 101.97 168.18 103.11 168.37 103.93 167.78 L 104.72 167.21 C 105.54 166.63 105.73 165.49 105.15 164.67 C 104.56 163.85 103.43 163.66 102.61 164.25 Z M 101.83 164.78 L 101.01 165.34 C 100.17 165.91 99.96 167.05 100.53 167.89 C 101.10 168.73 102.24 168.95 103.08 168.38 L 103.90 167.82 C 104.74 167.25 104.96 166.10 104.39 165.26 C 103.82 164.43 102.67 164.21 101.83 164.78 Z M 101.05 165.29 L 100.19 165.84 C 99.32 166.40 99.07 167.55 99.62 168.41 C 100.18 169.27 101.32 169.53 102.19 168.97 L 103.05 168.42 C 103.91 167.87 104.17 166.72 103.61 165.86 C 103.06 164.99 101.91 164.74 101.05 165.29 Z M 100.22 165.77 L 99.10 166.43 C 98.19 166.97 97.89 168.14 98.43 169.04 C 98.96 169.95 100.13 170.25 101.04 169.71 L 102.16 169.05 C 103.07 168.51 103.37 167.34 102.83 166.44 C 102.29 165.53 101.12 165.23 100.22 165.77 Z M 99.09 166.32 L 97.97 166.95 C 97.01 167.49 96.66 168.71 97.20 169.68 C 97.75 170.64 98.97 170.99 99.93 170.45 L 101.05 169.82 C 102.02 169.28 102.36 168.06 101.82 167.09 C 101.28 166.12 100.05 165.78 99.09 166.32 Z M 97.92 166.85 L 97.22 167.24 C 96.20 167.81 95.83 169.10 96.40 170.12 C 96.97 171.14 98.26 171.51 99.29 170.94 L 99.99 170.55 C 101.01 169.98 101.37 168.69 100.80 167.66 C 100.23 166.64 98.94 166.28 97.92 166.85 Z M 99.18 171.20 L 99.74 170.95 C 100.89 170.44 101.41 169.09 100.90 167.94 C 100.38 166.79 99.03 166.27 97.88 166.79 L 97.32 167.04 C 96.17 167.55 95.66 168.90 96.17 170.05 C 96.68 171.20 98.03 171.72 99.18 171.20 Z M 99.78 170.97 L 100.71 170.55 C 101.87 170.01 102.38 168.63 101.84 167.47 C 101.31 166.31 99.93 165.80 98.77 166.34 L 97.84 166.77 C 96.68 167.30 96.17 168.68 96.71 169.84 C 97.25 171.00 98.62 171.51 99.78 170.97 Z M 100.73 170.58 L 101.87 170.05 C 103.04 169.50 103.56 168.10 103.01 166.93 C 102.46 165.75 101.07 165.24 99.89 165.78 L 98.75 166.31 C 97.57 166.86 97.06 168.25 97.61 169.43 C 98.15 170.61 99.55 171.12 100.73 170.58 Z M 101.87 170.08 L 103.07 169.54 C 104.26 168.99 104.79 167.57 104.24 166.37 C 103.69 165.17 102.27 164.65 101.07 165.20 L 99.88 165.75 C 98.68 166.30 98.16 167.71 98.71 168.91 C 99.26 170.11 100.68 170.63 101.87 170.08 Z M 103.06 169.56 L 104.11 169.09 C 105.32 168.54 105.86 167.12 105.31 165.91 C 104.77 164.70 103.35 164.16 102.13 164.70 L 101.08 165.17 C 99.87 165.72 99.33 167.14 99.88 168.35 C 100.42 169.57 101.85 170.11 103.06 169.56 Z M 104.09 169.10 L 105.05 168.68 C 106.27 168.14 106.82 166.72 106.29 165.51 C 105.75 164.29 104.33 163.74 103.12 164.27 L 102.15 164.69 C 100.94 165.22 100.38 166.64 100.92 167.86 C 101.45 169.08 102.87 169.63 104.09 169.10 Z M 105.03 168.69 L 105.93 168.30 C 107.15 167.78 107.72 166.37 107.20 165.15 C 106.67 163.92 105.26 163.35 104.04 163.88 L 103.14 164.26 C 101.92 164.78 101.35 166.19 101.87 167.42 C 102.39 168.64 103.80 169.21 105.03 168.69 Z M 105.90 168.31 L 106.76 167.96 C 107.98 167.45 108.57 166.04 108.06 164.82 C 107.55 163.59 106.14 163.00 104.91 163.51 L 104.06 163.87 C 102.83 164.37 102.25 165.78 102.76 167.01 C 103.27 168.24 104.67 168.82 105.90 168.31 Z M 106.73 167.97 L 107.59 167.62 C 108.82 167.13 109.42 165.73 108.92 164.49 C 108.43 163.26 107.03 162.66 105.79 163.16 L 104.94 163.50 C 103.70 164.00 103.11 165.40 103.60 166.63 C 104.10 167.87 105.50 168.47 106.73 167.97 Z M 107.57 167.63 L 108.50 167.27 C 109.74 166.78 110.35 165.39 109.87 164.15 C 109.38 162.91 107.99 162.30 106.75 162.79 L 105.81 163.15 C 104.58 163.64 103.97 165.03 104.45 166.27 C 104.93 167.51 106.33 168.12 107.57 167.63 Z M 108.48 167.27 L 109.41 166.92 C 110.65 166.45 111.28 165.06 110.81 163.82 C 110.33 162.58 108.94 161.95 107.70 162.42 L 106.77 162.78 C 105.53 163.25 104.91 164.64 105.38 165.88 C 105.85 167.12 107.24 167.75 108.48 167.27 Z M 109.39 166.93 L 110.32 166.58 C 111.57 166.12 112.20 164.74 111.74 163.49 C 111.28 162.25 109.90 161.61 108.65 162.07 L 107.72 162.42 C 106.48 162.88 105.84 164.26 106.30 165.51 C 106.77 166.75 108.15 167.39 109.39 166.93 Z M 110.31 166.59 L 111.24 166.25 C 112.49 165.80 113.13 164.42 112.68 163.17 C 112.23 161.92 110.85 161.28 109.60 161.73 L 108.67 162.07 C 107.42 162.52 106.78 163.90 107.23 165.14 C 107.68 166.39 109.06 167.04 110.31 166.59 Z M 111.22 166.25 L 112.12 165.93 C 113.37 165.49 114.02 164.12 113.58 162.87 C 113.13 161.62 111.76 160.97 110.51 161.41 L 109.62 161.73 C 108.37 162.17 107.72 163.54 108.16 164.79 C 108.60 166.04 109.97 166.69 111.22 166.25 Z M 112.10 165.94 L 113.02 165.62 C 114.27 165.18 114.94 163.82 114.50 162.57 C 114.07 161.32 112.70 160.65 111.45 161.09 L 110.53 161.41 C 109.28 161.84 108.62 163.21 109.05 164.46 C 109.49 165.71 110.85 166.37 112.10 165.94 Z M 113.00 165.62 L 113.96 165.29 C 115.21 164.87 115.89 163.51 115.46 162.26 C 115.04 161.01 113.68 160.34 112.43 160.76 L 111.47 161.08 C 110.22 161.51 109.55 162.87 109.97 164.12 C 110.39 165.37 111.75 166.04 113.00 165.62 Z M 113.94 165.30 L 114.95 164.97 C 116.20 164.56 116.88 163.21 116.47 161.95 C 116.06 160.70 114.71 160.02 113.45 160.43 L 112.45 160.76 C 111.20 161.17 110.51 162.52 110.93 163.77 C 111.34 165.03 112.69 165.71 113.94 165.30 Z M 114.93 164.97 L 115.83 164.68 C 117.09 164.28 117.78 162.94 117.38 161.68 C 116.98 160.43 115.64 159.73 114.38 160.14 L 113.47 160.43 C 112.22 160.83 111.53 162.17 111.93 163.42 C 112.33 164.68 113.67 165.37 114.93 164.97 Z M 115.82 164.68 L 116.73 164.39 C 117.99 164.00 118.68 162.66 118.29 161.41 C 117.90 160.16 116.56 159.46 115.31 159.85 L 114.40 160.14 C 113.14 160.53 112.44 161.87 112.84 163.12 C 113.23 164.37 114.57 165.07 115.82 164.68 Z M 116.72 164.39 L 117.67 164.10 C 118.92 163.71 119.62 162.38 119.23 161.13 C 118.85 159.87 117.52 159.17 116.26 159.56 L 115.32 159.85 C 114.06 160.24 113.36 161.57 113.75 162.83 C 114.14 164.08 115.47 164.78 116.72 164.39 Z M 117.66 164.09 L 118.64 163.79 C 119.89 163.41 120.60 162.08 120.21 160.83 C 119.83 159.58 118.50 158.87 117.25 159.26 L 116.27 159.56 C 115.02 159.95 114.31 161.28 114.70 162.53 C 115.08 163.78 116.41 164.48 117.66 164.09 Z M 118.64 163.79 L 119.65 163.48 C 120.90 163.09 121.60 161.77 121.22 160.52 C 120.83 159.27 119.51 158.57 118.26 158.95 L 117.25 159.26 C 116.00 159.65 115.30 160.97 115.68 162.22 C 116.07 163.47 117.39 164.17 118.64 163.79 Z M 119.65 163.47 L 120.63 163.17 C 121.87 162.78 122.57 161.46 122.18 160.22 C 121.80 158.97 120.47 158.27 119.23 158.66 L 118.26 158.96 C 117.01 159.35 116.31 160.67 116.70 161.91 C 117.08 163.16 118.41 163.86 119.65 163.47 Z M 120.63 163.16 L 121.56 162.87 C 122.81 162.49 123.50 161.17 123.11 159.92 C 122.73 158.68 121.41 157.99 120.16 158.37 L 119.23 158.66 C 117.98 159.05 117.29 160.37 117.68 161.61 C 118.06 162.86 119.38 163.55 120.63 163.16 Z M 121.56 162.87 L 122.51 162.57 C 123.75 162.19 124.45 160.87 124.06 159.63 C 123.68 158.39 122.36 157.70 121.12 158.08 L 120.17 158.38 C 118.93 158.76 118.24 160.08 118.62 161.32 C 119.00 162.56 120.32 163.25 121.56 162.87 Z M 122.51 162.57 L 123.47 162.27 C 124.71 161.89 125.40 160.58 125.02 159.34 C 124.64 158.10 123.33 157.41 122.09 157.79 L 121.13 158.09 C 119.89 158.47 119.20 159.78 119.58 161.02 C 119.96 162.25 121.27 162.95 122.51 162.57 Z M 123.46 162.27 L 124.43 161.97 C 125.67 161.60 126.36 160.29 125.99 159.05 C 125.61 157.82 124.30 157.12 123.07 157.50 L 122.10 157.79 C 120.86 158.17 120.17 159.48 120.54 160.71 C 120.92 161.95 122.23 162.64 123.46 162.27 Z M 124.42 161.97 L 125.39 161.68 C 126.62 161.31 127.32 160.01 126.95 158.78 C 126.58 157.54 125.29 156.84 124.05 157.21 L 123.08 157.50 C 121.85 157.87 121.15 159.17 121.52 160.40 C 121.88 161.64 123.18 162.34 124.42 161.97 Z M 125.37 161.68 L 126.35 161.39 C 127.58 161.03 128.28 159.74 127.92 158.51 C 127.56 157.27 126.27 156.57 125.04 156.93 L 124.07 157.21 C 122.84 157.57 122.13 158.86 122.49 160.10 C 122.85 161.33 124.14 162.04 125.37 161.68 Z M 126.33 161.39 L 127.30 161.11 C 128.53 160.76 129.24 159.48 128.89 158.25 C 128.54 157.02 127.26 156.30 126.03 156.66 L 125.06 156.93 C 123.83 157.28 123.11 158.57 123.47 159.80 C 123.82 161.03 125.10 161.74 126.33 161.39 Z M 127.29 161.10 L 128.25 160.83 C 129.48 160.49 130.20 159.21 129.85 157.99 C 129.51 156.76 128.24 156.05 127.01 156.39 L 126.04 156.66 C 124.82 157.01 124.10 158.28 124.44 159.50 C 124.79 160.73 126.06 161.45 127.29 161.10 Z M 128.24 160.82 L 129.21 160.56 C 130.43 160.22 131.15 158.96 130.81 157.73 C 130.47 156.51 129.20 155.79 127.98 156.13 L 127.02 156.40 C 125.80 156.74 125.08 158.00 125.42 159.22 C 125.76 160.45 127.02 161.16 128.24 160.82 Z M 129.20 160.55 L 130.16 160.29 C 131.38 159.95 132.09 158.70 131.76 157.48 C 131.42 156.26 130.17 155.54 128.95 155.88 L 127.99 156.14 C 126.77 156.47 126.05 157.73 126.39 158.95 C 126.72 160.17 127.98 160.88 129.20 160.55 Z M 130.15 160.28 L 131.11 160.02 C 132.32 159.69 133.03 158.43 132.70 157.22 C 132.37 156.01 131.12 155.29 129.91 155.62 L 128.95 155.89 C 127.74 156.22 127.02 157.47 127.36 158.68 C 127.69 159.90 128.94 160.61 130.15 160.28 Z M 131.11 160.01 L 132.07 159.74 C 133.28 159.41 133.99 158.16 133.66 156.96 C 133.33 155.75 132.08 155.04 130.87 155.37 L 129.91 155.63 C 128.70 155.97 127.99 157.21 128.32 158.42 C 128.65 159.63 129.90 160.34 131.11 160.01 Z M 132.07 159.73 L 133.04 159.46 C 134.25 159.13 134.95 157.89 134.62 156.69 C 134.29 155.49 133.05 154.78 131.85 155.11 L 130.88 155.38 C 129.67 155.71 128.97 156.95 129.30 158.15 C 129.63 159.36 130.87 160.06 132.07 159.73 Z M 133.04 159.45 L 134.01 159.19 C 135.21 158.86 135.91 157.62 135.58 156.43 C 135.25 155.23 134.02 154.53 132.82 154.86 L 131.85 155.12 C 130.66 155.45 129.95 156.69 130.28 157.88 C 130.61 159.08 131.85 159.78 133.04 159.45 Z M 134.00 159.18 L 134.97 158.91 C 136.16 158.59 136.86 157.36 136.53 156.17 C 136.21 154.98 134.98 154.28 133.79 154.60 L 132.82 154.87 C 131.63 155.19 130.93 156.42 131.26 157.61 C 131.59 158.80 132.81 159.50 134.00 159.18 Z M 134.96 158.90 L 135.92 158.64 C 137.10 158.32 137.80 157.10 137.48 155.92 C 137.16 154.73 135.94 154.03 134.75 154.35 L 133.79 154.61 C 132.61 154.94 131.91 156.16 132.23 157.34 C 132.56 158.53 133.78 159.23 134.96 158.90 Z M 135.91 158.63 L 136.87 158.38 C 138.04 158.06 138.74 156.85 138.43 155.67 C 138.11 154.49 136.89 153.79 135.72 154.11 L 134.76 154.36 C 133.58 154.68 132.88 155.89 133.20 157.07 C 133.52 158.25 134.73 158.95 135.91 158.63 Z M 136.86 158.37 L 137.87 158.10 C 139.05 157.78 139.74 156.58 139.43 155.41 C 139.12 154.23 137.92 153.53 136.74 153.85 L 135.73 154.12 C 134.55 154.43 133.85 155.63 134.17 156.81 C 134.48 157.98 135.68 158.68 136.86 158.37 Z M 137.86 158.08 L 138.87 157.82 C 140.04 157.51 140.73 156.32 140.43 155.15 C 140.12 153.99 138.93 153.29 137.76 153.59 L 136.75 153.86 C 135.59 154.17 134.89 155.36 135.20 156.53 C 135.50 157.69 136.70 158.39 137.86 158.08 Z M 138.86 157.81 L 139.84 157.55 C 141.00 157.25 141.70 156.07 141.40 154.91 C 141.10 153.75 139.92 153.05 138.76 153.35 L 137.77 153.61 C 136.61 153.91 135.92 155.09 136.22 156.25 C 136.52 157.41 137.70 158.11 138.86 157.81 Z M 139.84 157.54 L 140.79 157.29 C 141.94 157.00 142.64 155.83 142.34 154.67 C 142.05 153.52 140.87 152.83 139.72 153.12 L 138.77 153.37 C 137.62 153.66 136.92 154.83 137.21 155.99 C 137.51 157.14 138.68 157.83 139.84 157.54 Z M 140.78 157.28 L 141.69 157.05 C 142.83 156.76 143.53 155.60 143.24 154.45 C 142.95 153.31 141.79 152.61 140.64 152.90 L 139.73 153.13 C 138.59 153.42 137.89 154.59 138.18 155.73 C 138.47 156.88 139.63 157.57 140.78 157.28 Z M 141.68 157.04 L 142.61 156.81 C 143.75 156.52 144.44 155.37 144.16 154.23 C 143.87 153.09 142.72 152.40 141.58 152.69 L 140.65 152.92 C 139.51 153.20 138.82 154.35 139.11 155.49 C 139.39 156.63 140.54 157.32 141.68 157.04 Z M 142.60 156.79 L 143.53 156.56 C 144.66 156.29 145.35 155.15 145.08 154.02 C 144.80 152.89 143.66 152.20 142.53 152.47 L 141.60 152.70 C 140.47 152.98 139.77 154.12 140.05 155.25 C 140.33 156.38 141.47 157.07 142.60 156.79 Z M 143.52 156.55 L 144.45 156.33 C 145.57 156.06 146.26 154.93 145.99 153.81 C 145.73 152.69 144.60 152.00 143.48 152.26 L 142.55 152.49 C 141.42 152.75 140.73 153.88 141.00 155.00 C 141.27 156.12 142.39 156.82 143.52 156.55 Z M 144.43 156.31 L 145.40 156.09 C 146.51 155.83 147.21 154.72 146.95 153.60 C 146.69 152.49 145.58 151.80 144.47 152.05 L 143.50 152.28 C 142.38 152.54 141.69 153.65 141.94 154.76 C 142.20 155.88 143.31 156.57 144.43 156.31 Z M 145.38 156.07 L 146.43 155.84 C 147.54 155.59 148.23 154.49 147.99 153.39 C 147.74 152.28 146.64 151.58 145.53 151.83 L 144.48 152.07 C 143.38 152.32 142.68 153.41 142.93 154.52 C 143.18 155.63 144.27 156.32 145.38 156.07 Z M 146.42 155.82 L 147.54 155.57 C 148.63 155.33 149.33 154.24 149.08 153.15 C 148.84 152.06 147.76 151.36 146.66 151.61 L 145.54 151.85 C 144.45 152.09 143.76 153.18 144.00 154.27 C 144.24 155.37 145.33 156.06 146.42 155.82 Z M 147.56 155.54 L 148.70 155.27 C 149.77 155.02 150.44 153.94 150.19 152.87 C 149.94 151.79 148.86 151.12 147.78 151.37 L 146.65 151.64 C 145.57 151.89 144.90 152.97 145.15 154.04 C 145.41 155.12 146.48 155.79 147.56 155.54 Z M 148.76 155.22 L 149.81 154.94 C 150.86 154.65 151.48 153.57 151.19 152.52 C 150.91 151.47 149.82 150.85 148.77 151.13 L 147.72 151.42 C 146.67 151.71 146.05 152.79 146.34 153.84 C 146.62 154.89 147.71 155.51 148.76 155.22 Z M 149.94 154.86 L 150.80 154.56 C 151.81 154.20 152.34 153.09 151.98 152.08 C 151.62 151.07 150.50 150.54 149.49 150.90 L 148.64 151.21 C 147.63 151.57 147.10 152.68 147.46 153.69 C 147.82 154.70 148.93 155.23 149.94 154.86 Z M 151.13 154.37 L 151.70 154.03 C 152.61 153.49 152.90 152.31 152.36 151.41 C 151.82 150.50 150.65 150.21 149.74 150.75 L 149.17 151.09 C 148.26 151.63 147.97 152.80 148.51 153.71 C 149.05 154.62 150.22 154.91 151.13 154.37 Z M 152.55 152.66 L 152.64 152.06 C 152.79 151.05 152.10 150.10 151.08 149.95 C 150.07 149.80 149.13 150.50 148.98 151.51 L 148.89 152.11 C 148.74 153.12 149.43 154.07 150.45 154.22 C 151.46 154.37 152.40 153.67 152.55 152.66 Z M 152.09 150.57 L 151.42 149.87 C 150.75 149.16 149.64 149.13 148.93 149.80 C 148.22 150.47 148.19 151.59 148.86 152.30 L 149.53 153.00 C 150.20 153.70 151.32 153.73 152.02 153.06 C 152.73 152.39 152.76 151.28 152.09 150.57 Z M 151.19 149.76 L 150.21 148.99 C 149.48 148.41 148.42 148.54 147.85 149.27 C 147.27 150.00 147.40 151.06 148.13 151.64 L 149.10 152.41 C 149.83 152.98 150.89 152.86 151.47 152.12 C 152.04 151.39 151.92 150.33 151.19 149.76 Z M 150.21 149.03 L 149.49 148.45 C 148.78 147.87 147.74 147.98 147.17 148.69 C 146.59 149.39 146.70 150.43 147.41 151.01 L 148.13 151.59 C 148.84 152.17 149.88 152.06 150.45 151.35 C 151.02 150.65 150.92 149.61 150.21 149.03 Z M 149.51 148.47 L 148.75 147.83 C 148.05 147.25 147.02 147.33 146.43 148.03 C 145.85 148.73 145.93 149.76 146.63 150.35 L 147.39 150.99 C 148.08 151.57 149.12 151.48 149.71 150.79 C 150.29 150.09 150.20 149.05 149.51 148.47 Z M 148.76 147.84 L 147.98 147.18 C 147.30 146.58 146.26 146.66 145.67 147.35 C 145.07 148.04 145.15 149.07 145.84 149.67 L 146.62 150.34 C 147.31 150.93 148.34 150.85 148.94 150.16 C 149.53 149.47 149.45 148.44 148.76 147.84 Z M 147.99 147.18 L 147.20 146.49 C 146.51 145.90 145.48 145.97 144.88 146.65 C 144.29 147.34 144.36 148.37 145.04 148.97 L 145.84 149.66 C 146.52 150.25 147.55 150.18 148.15 149.50 C 148.74 148.82 148.67 147.78 147.99 147.18 Z M 147.20 146.50 L 146.85 146.19 C 146.17 145.60 145.14 145.67 144.54 146.35 C 143.95 147.03 144.01 148.07 144.70 148.66 L 145.04 148.96 C 145.72 149.56 146.76 149.49 147.35 148.81 C 147.95 148.13 147.88 147.09 147.20 146.50 Z"
      fill="black"
      fill-rule="nonzero" /><path d="M 134.94 133.86 L 134.76 134.76 C 134.49 136.06 135.33 137.34 136.64 137.61 C 137.94 137.87 139.22 137.03 139.49 135.73 L 139.67 134.83 C 139.94 133.53 139.10 132.25 137.79 131.99 C 136.49 131.72 135.21 132.56 134.94 133.86 Z M 134.73 134.80 L 134.55 135.73 C 134.31 137.05 135.18 138.32 136.51 138.57 C 137.83 138.81 139.10 137.94 139.35 136.62 L 139.52 135.69 C 139.77 134.37 138.89 133.09 137.57 132.85 C 136.25 132.60 134.97 133.47 134.73 134.80 Z M 134.52 135.80 L 134.37 136.80 C 134.16 138.14 135.09 139.40 136.43 139.60 C 137.77 139.81 139.03 138.88 139.23 137.54 L 139.38 136.54 C 139.59 135.20 138.66 133.94 137.32 133.74 C 135.98 133.53 134.72 134.46 134.52 135.80 Z M 134.33 136.90 L 134.21 138.00 C 134.06 139.37 135.05 140.59 136.41 140.74 C 137.78 140.89 139.00 139.90 139.15 138.54 L 139.27 137.44 C 139.42 136.07 138.43 134.85 137.07 134.70 C 135.70 134.55 134.48 135.54 134.33 136.90 Z M 134.19 138.10 L 134.12 139.11 C 134.03 140.48 135.07 141.67 136.45 141.76 C 137.82 141.86 139.01 140.82 139.10 139.44 L 139.17 138.44 C 139.26 137.06 138.22 135.87 136.85 135.78 C 135.47 135.68 134.28 136.72 134.19 138.10 Z M 134.12 139.17 L 134.08 140.20 C 134.03 141.57 135.10 142.73 136.47 142.79 C 137.85 142.84 139.01 141.77 139.06 140.40 L 139.10 139.37 C 139.16 138.00 138.09 136.84 136.71 136.78 C 135.34 136.73 134.18 137.80 134.12 139.17 Z M 134.09 140.24 L 134.07 141.29 C 134.04 142.66 135.12 143.80 136.50 143.83 C 137.87 143.86 139.00 142.77 139.03 141.40 L 139.06 140.35 C 139.09 138.98 138.00 137.84 136.63 137.81 C 135.25 137.78 134.12 138.87 134.09 140.24 Z M 134.07 141.32 L 134.06 142.34 C 134.05 143.71 135.15 144.83 136.52 144.84 C 137.88 144.85 139.00 143.76 139.02 142.39 L 139.03 141.37 C 139.04 140.00 137.94 138.88 136.57 138.87 C 135.21 138.85 134.09 139.95 134.07 141.32 Z M 134.07 142.36 L 134.07 143.32 C 134.06 144.69 135.17 145.80 136.53 145.80 C 137.89 145.80 139.00 144.70 139.01 143.34 L 139.01 142.37 C 139.01 141.01 137.91 139.90 136.55 139.90 C 135.18 139.89 134.07 141.00 134.07 142.36 Z M 134.08 143.33 L 134.08 144.41 C 134.08 145.77 135.18 146.87 136.54 146.87 C 137.90 146.87 139.00 145.77 139.00 144.41 L 139.00 143.33 C 139.00 141.97 137.90 140.87 136.54 140.87 C 135.18 140.87 134.08 141.97 134.08 143.33 Z M 134.09 144.42 L 134.09 145.47 C 134.10 146.82 135.20 147.92 136.55 147.91 C 137.90 147.91 139.00 146.81 138.99 145.45 L 138.99 144.40 C 138.98 143.05 137.88 141.95 136.53 141.96 C 135.17 141.96 134.08 143.07 134.09 144.42 Z M 134.10 145.50 L 134.12 146.44 C 134.14 147.78 135.24 148.86 136.59 148.84 C 137.94 148.82 139.02 147.71 139.00 146.36 L 138.98 145.43 C 138.96 144.08 137.85 143.00 136.50 143.02 C 135.16 143.04 134.08 144.15 134.10 145.50 Z M 134.13 146.48 L 134.16 147.38 C 134.20 148.72 135.33 149.77 136.67 149.73 C 138.01 149.68 139.06 148.56 139.01 147.21 L 138.98 146.32 C 138.94 144.98 137.81 143.93 136.47 143.97 C 135.13 144.02 134.08 145.14 134.13 146.48 Z M 134.17 147.43 L 134.22 148.38 C 134.30 149.72 135.44 150.74 136.77 150.66 C 138.11 150.59 139.13 149.44 139.06 148.11 L 139.00 147.16 C 138.93 145.83 137.79 144.80 136.45 144.88 C 135.11 144.95 134.09 146.10 134.17 147.43 Z M 134.23 148.42 L 134.30 149.40 C 134.39 150.73 135.55 151.74 136.88 151.64 C 138.22 151.54 139.22 150.39 139.12 149.05 L 139.05 148.07 C 138.95 146.74 137.80 145.74 136.46 145.83 C 135.13 145.93 134.13 147.09 134.23 148.42 Z M 134.30 149.42 L 134.39 150.44 C 134.49 151.77 135.66 152.76 136.99 152.66 C 138.31 152.55 139.31 151.39 139.20 150.06 L 139.12 149.04 C 139.01 147.71 137.85 146.72 136.52 146.82 C 135.19 146.93 134.20 148.09 134.30 149.42 Z M 134.39 150.45 L 134.47 151.46 C 134.58 152.78 135.74 153.77 137.07 153.66 C 138.40 153.55 139.39 152.39 139.28 151.06 L 139.19 150.05 C 139.09 148.73 137.92 147.74 136.60 147.85 C 135.27 147.96 134.28 149.12 134.39 150.45 Z M 134.48 151.45 L 134.55 152.42 C 134.66 153.74 135.82 154.73 137.15 154.62 C 138.47 154.52 139.46 153.36 139.35 152.03 L 139.27 151.07 C 139.17 149.74 138.01 148.76 136.68 148.86 C 135.36 148.97 134.37 150.13 134.48 151.45 Z M 134.56 152.42 L 134.64 153.41 C 134.75 154.74 135.91 155.72 137.23 155.61 C 138.55 155.50 139.54 154.34 139.43 153.02 L 139.35 152.03 C 139.24 150.71 138.08 149.72 136.76 149.83 C 135.43 149.94 134.45 151.10 134.56 152.42 Z M 134.64 153.42 L 134.73 154.44 C 134.84 155.76 136.00 156.74 137.32 156.63 C 138.64 156.52 139.62 155.36 139.51 154.04 L 139.42 153.02 C 139.31 151.70 138.15 150.72 136.83 150.83 C 135.51 150.94 134.53 152.10 134.64 153.42 Z M 134.73 154.45 L 134.83 155.47 C 134.95 156.79 136.11 157.76 137.43 157.64 C 138.74 157.53 139.72 156.36 139.60 155.04 L 139.51 154.02 C 139.39 152.71 138.22 151.74 136.91 151.85 C 135.59 151.97 134.62 153.14 134.73 154.45 Z M 134.83 155.49 L 134.93 156.48 C 135.05 157.79 136.22 158.75 137.54 158.63 C 138.85 158.50 139.81 157.33 139.69 156.02 L 139.59 155.03 C 139.47 153.72 138.30 152.75 136.98 152.88 C 135.67 153.00 134.70 154.17 134.83 155.49 Z M 134.93 156.49 L 135.03 157.49 C 135.16 158.80 136.33 159.76 137.65 159.63 C 138.96 159.49 139.92 158.32 139.79 157.01 L 139.68 156.01 C 139.55 154.70 138.38 153.74 137.07 153.87 C 135.76 154.00 134.80 155.17 134.93 156.49 Z M 135.03 157.49 L 135.14 158.50 C 135.27 159.81 136.45 160.76 137.76 160.62 C 139.07 160.49 140.02 159.32 139.89 158.00 L 139.78 157.00 C 139.65 155.69 138.47 154.74 137.16 154.87 C 135.85 155.01 134.90 156.18 135.03 157.49 Z M 135.14 158.50 L 135.25 159.50 C 135.38 160.81 136.56 161.76 137.87 161.62 C 139.18 161.48 140.13 160.30 139.99 158.99 L 139.88 158.00 C 139.74 156.69 138.57 155.74 137.26 155.88 C 135.95 156.02 135.00 157.19 135.14 158.50 Z M 135.25 159.50 L 135.36 160.51 C 135.50 161.81 136.67 162.76 137.98 162.62 C 139.29 162.48 140.23 161.30 140.09 160.00 L 139.99 158.99 C 139.84 157.68 138.67 156.74 137.36 156.88 C 136.05 157.02 135.11 158.19 135.25 159.50 Z M 135.36 160.50 L 135.47 161.50 C 135.61 162.80 136.78 163.75 138.08 163.61 C 139.39 163.47 140.34 162.30 140.20 160.99 L 140.09 160.00 C 139.95 158.69 138.78 157.75 137.47 157.89 C 136.17 158.03 135.22 159.20 135.36 160.50 Z M 135.47 161.49 L 135.57 162.48 C 135.70 163.78 136.87 164.73 138.18 164.60 C 139.48 164.46 140.43 163.30 140.30 161.99 L 140.20 161.00 C 140.06 159.70 138.89 158.75 137.59 158.88 C 136.28 159.02 135.33 160.18 135.47 161.49 Z M 135.57 162.46 L 135.67 163.45 C 135.79 164.76 136.95 165.71 138.26 165.59 C 139.56 165.46 140.52 164.30 140.39 163.00 L 140.30 162.01 C 140.17 160.70 139.01 159.75 137.70 159.87 C 136.40 160.00 135.44 161.16 135.57 162.46 Z M 135.67 163.43 L 135.76 164.42 C 135.87 165.73 137.02 166.69 138.33 166.58 C 139.63 166.46 140.59 165.31 140.48 164.00 L 140.39 163.02 C 140.27 161.71 139.12 160.75 137.82 160.86 C 136.52 160.98 135.55 162.13 135.67 163.43 Z M 135.76 164.41 L 135.84 165.40 C 135.95 166.70 137.09 167.67 138.39 167.57 C 139.69 167.46 140.66 166.32 140.56 165.02 L 140.47 164.02 C 140.37 162.72 139.23 161.75 137.93 161.86 C 136.62 161.96 135.65 163.10 135.76 164.41 Z M 135.84 165.39 L 135.92 166.39 C 136.02 167.69 137.15 168.66 138.45 168.56 C 139.75 168.46 140.73 167.33 140.63 166.03 L 140.55 165.03 C 140.45 163.73 139.32 162.76 138.02 162.85 C 136.72 162.95 135.75 164.09 135.84 165.39 Z M 135.92 166.38 L 136.00 167.38 C 136.09 168.68 137.22 169.65 138.52 169.56 C 139.81 169.46 140.79 168.34 140.70 167.04 L 140.62 166.04 C 140.53 164.74 139.40 163.76 138.10 163.86 C 136.81 163.95 135.83 165.08 135.92 166.38 Z M 136.00 167.38 L 136.07 168.38 C 136.17 169.68 137.29 170.65 138.59 170.56 C 139.88 170.47 140.86 169.34 140.76 168.05 L 140.69 167.04 C 140.60 165.75 139.47 164.77 138.18 164.86 C 136.88 164.96 135.91 166.08 136.00 167.38 Z M 136.08 168.38 L 136.15 169.39 C 136.24 170.68 137.37 171.65 138.66 171.56 C 139.95 171.47 140.92 170.35 140.83 169.05 L 140.76 168.05 C 140.67 166.75 139.54 165.78 138.25 165.87 C 136.96 165.97 135.99 167.09 136.08 168.38 Z M 136.16 169.39 L 136.23 170.39 C 136.32 171.68 137.44 172.65 138.73 172.56 C 140.02 172.47 140.99 171.35 140.90 170.06 L 140.83 169.05 C 140.73 167.76 139.61 166.79 138.32 166.89 C 137.03 166.98 136.06 168.10 136.16 169.39 Z M 136.23 170.39 L 136.30 171.38 C 136.40 172.67 137.52 173.64 138.80 173.55 C 140.09 173.45 141.06 172.33 140.96 171.05 L 140.89 170.05 C 140.80 168.77 139.68 167.80 138.39 167.89 C 137.11 167.99 136.14 169.11 136.23 170.39 Z M 136.31 171.39 L 136.38 172.38 C 136.48 173.66 137.60 174.62 138.88 174.53 C 140.16 174.43 141.13 173.32 141.03 172.03 L 140.96 171.04 C 140.86 169.76 139.75 168.80 138.46 168.89 C 137.18 168.99 136.22 170.10 136.31 171.39 Z M 136.39 172.38 L 136.46 173.40 C 136.56 174.68 137.68 175.64 138.96 175.54 C 140.24 175.45 141.20 174.33 141.10 173.05 L 141.03 172.03 C 140.93 170.75 139.82 169.79 138.53 169.88 C 137.25 169.98 136.29 171.10 136.39 172.38 Z M 136.47 173.40 L 136.54 174.40 C 136.64 175.68 137.76 176.63 139.04 176.54 C 140.32 176.44 141.27 175.32 141.18 174.04 L 141.10 173.04 C 141.00 171.77 139.89 170.81 138.61 170.91 C 137.33 171.00 136.37 172.12 136.47 173.40 Z M 136.55 174.40 L 136.63 175.39 C 136.72 176.66 137.84 177.62 139.12 177.52 C 140.39 177.42 141.35 176.31 141.25 175.03 L 141.17 174.04 C 141.07 172.77 139.96 171.81 138.68 171.91 C 137.41 172.01 136.45 173.12 136.55 174.40 Z M 136.63 175.39 L 136.71 176.37 C 136.81 177.64 137.92 178.59 139.19 178.49 C 140.47 178.39 141.42 177.28 141.32 176.01 L 141.24 175.03 C 141.14 173.75 140.03 172.80 138.76 172.90 C 137.48 173.00 136.53 174.11 136.63 175.39 Z M 136.71 176.37 L 136.79 177.36 C 136.89 178.63 138.00 179.58 139.27 179.48 C 140.54 179.38 141.49 178.27 141.39 177.00 L 141.32 176.01 C 141.22 174.74 140.10 173.78 138.83 173.88 C 137.56 173.98 136.61 175.10 136.71 176.37 Z M 136.79 177.35 L 136.87 178.34 C 136.96 179.61 138.07 180.57 139.34 180.47 C 140.61 180.37 141.56 179.27 141.46 178.00 L 141.39 177.01 C 141.29 175.74 140.19 174.79 138.92 174.88 C 137.65 174.98 136.70 176.08 136.79 177.35 Z M 136.87 178.33 L 136.94 179.33 C 137.03 180.60 138.13 181.55 139.39 181.46 C 140.66 181.38 141.62 180.28 141.53 179.01 L 141.46 178.01 C 141.37 176.74 140.27 175.79 139.01 175.88 C 137.74 175.96 136.78 177.06 136.87 178.33 Z M 136.94 179.31 L 137.00 180.30 C 137.08 181.57 138.17 182.53 139.43 182.45 C 140.70 182.38 141.66 181.29 141.59 180.02 L 141.53 179.03 C 141.45 177.76 140.36 176.80 139.10 176.88 C 137.83 176.95 136.87 178.04 136.94 179.31 Z M 137.01 180.28 L 137.05 181.22 C 137.12 182.49 138.20 183.46 139.46 183.39 C 140.73 183.33 141.70 182.25 141.63 180.99 L 141.58 180.04 C 141.52 178.78 140.44 177.81 139.18 177.87 C 137.91 177.94 136.94 179.01 137.01 180.28 Z M 137.06 181.21 L 137.10 182.18 C 137.16 183.45 138.23 184.42 139.49 184.36 C 140.76 184.31 141.73 183.23 141.67 181.97 L 141.63 181.00 C 141.57 179.74 140.50 178.76 139.24 178.82 C 137.97 178.88 137.00 179.95 137.06 181.21 Z M 137.11 182.18 L 137.15 183.20 C 137.21 184.46 138.28 185.43 139.54 185.38 C 140.80 185.32 141.77 184.25 141.72 182.99 L 141.67 181.98 C 141.61 180.72 140.55 179.74 139.29 179.80 C 138.03 179.85 137.05 180.92 137.11 182.18 Z M 137.16 183.20 L 137.21 184.27 C 137.26 185.53 138.33 186.50 139.59 186.44 C 140.85 186.38 141.82 185.32 141.76 184.06 L 141.71 182.99 C 141.65 181.73 140.59 180.76 139.33 180.82 C 138.07 180.87 137.10 181.94 137.16 183.20 Z M 137.21 184.28 L 137.26 185.20 C 137.32 186.45 138.39 187.42 139.64 187.36 C 140.90 187.30 141.86 186.23 141.80 184.97 L 141.76 184.05 C 141.69 182.80 140.63 181.83 139.37 181.89 C 138.12 181.95 137.15 183.02 137.21 184.28 Z M 137.26 185.20 L 137.31 186.14 C 137.37 187.40 138.44 188.36 139.69 188.30 C 140.94 188.24 141.91 187.17 141.85 185.92 L 141.80 184.97 C 141.74 183.72 140.67 182.75 139.42 182.81 C 138.16 182.88 137.20 183.94 137.26 185.20 Z M 137.31 186.14 L 137.36 187.12 C 137.42 188.38 138.48 189.34 139.73 189.28 C 140.98 189.22 141.95 188.16 141.89 186.91 L 141.84 185.92 C 141.78 184.67 140.72 183.70 139.47 183.76 C 138.22 183.82 137.25 184.88 137.31 186.14 Z M 137.36 187.11 L 137.40 188.14 C 137.46 189.39 138.51 190.36 139.76 190.31 C 141.01 190.26 141.98 189.20 141.93 187.95 L 141.89 186.92 C 141.83 185.67 140.78 184.70 139.53 184.75 C 138.28 184.81 137.31 185.86 137.36 187.11 Z M 137.41 188.13 L 137.44 189.20 C 137.49 190.45 138.53 191.42 139.78 191.38 C 141.03 191.34 142.01 190.29 141.97 189.04 L 141.93 187.97 C 141.88 186.72 140.84 185.74 139.59 185.78 C 138.34 185.83 137.36 186.88 137.41 188.13 Z M 137.45 189.18 L 137.47 190.25 C 137.50 191.50 138.54 192.48 139.79 192.45 C 141.04 192.42 142.02 191.38 141.99 190.14 L 141.96 189.06 C 141.93 187.81 140.89 186.83 139.65 186.86 C 138.40 186.89 137.41 187.93 137.45 189.18 Z M 137.48 190.22 L 137.49 191.29 C 137.51 192.53 138.53 193.53 139.77 193.51 C 141.02 193.50 142.01 192.47 142.00 191.23 L 141.98 190.17 C 141.97 188.92 140.95 187.93 139.70 187.94 C 138.46 187.96 137.46 188.98 137.48 190.22 Z M 137.50 191.25 L 137.49 192.31 C 137.49 193.55 138.49 194.56 139.73 194.57 C 140.97 194.57 141.98 193.57 141.99 192.33 L 141.99 191.27 C 142.00 190.03 141.00 189.02 139.76 189.01 C 138.52 189.01 137.50 190.01 137.50 191.25 Z M 137.50 192.25 L 137.47 193.28 C 137.43 194.52 138.40 195.55 139.64 195.59 C 140.88 195.62 141.91 194.65 141.95 193.42 L 141.98 192.39 C 142.02 191.15 141.04 190.12 139.81 190.08 C 138.57 190.04 137.54 191.01 137.50 192.25 Z M 137.48 193.20 L 137.42 194.17 C 137.34 195.40 138.27 196.46 139.50 196.54 C 140.73 196.62 141.79 195.69 141.87 194.46 L 141.94 193.49 C 142.02 192.26 141.08 191.20 139.85 191.12 C 138.62 191.04 137.56 191.97 137.48 193.20 Z M 137.43 194.06 L 137.33 194.94 C 137.19 196.16 138.06 197.27 139.29 197.41 C 140.51 197.55 141.61 196.67 141.75 195.45 L 141.86 194.57 C 142.00 193.35 141.12 192.24 139.90 192.10 C 138.68 191.96 137.57 192.84 137.43 194.06 Z M 137.40 194.74 L 137.16 195.86 C 136.90 197.04 137.66 198.21 138.84 198.46 C 140.03 198.72 141.19 197.96 141.45 196.78 L 141.69 195.66 C 141.94 194.47 141.19 193.30 140.00 193.05 C 138.82 192.80 137.65 193.55 137.40 194.74 Z M 137.33 195.51 L 136.94 196.47 C 136.50 197.55 137.02 198.80 138.11 199.24 C 139.19 199.69 140.44 199.17 140.88 198.08 L 141.27 197.12 C 141.72 196.04 141.20 194.79 140.11 194.35 C 139.02 193.90 137.78 194.42 137.33 195.51 Z M 137.26 196.05 L 136.73 196.76 C 136.06 197.68 136.25 198.96 137.17 199.64 C 138.08 200.31 139.36 200.12 140.04 199.20 L 140.56 198.49 C 141.24 197.58 141.05 196.29 140.13 195.62 C 139.22 194.95 137.93 195.14 137.26 196.05 Z M 137.18 196.41 L 136.45 196.96 C 135.58 197.63 135.41 198.88 136.08 199.75 C 136.75 200.62 137.99 200.79 138.87 200.12 L 139.60 199.56 C 140.47 198.89 140.63 197.65 139.96 196.78 C 139.30 195.90 138.05 195.74 137.18 196.41 Z M 136.95 196.73 L 135.96 197.11 C 134.96 197.50 134.46 198.63 134.85 199.63 C 135.24 200.63 136.37 201.13 137.37 200.74 L 138.36 200.36 C 139.36 199.97 139.86 198.84 139.47 197.84 C 139.08 196.84 137.96 196.34 136.95 196.73 Z M 136.65 197.00 L 135.70 197.02 C 134.64 197.03 133.79 197.90 133.80 198.96 C 133.81 200.02 134.68 200.87 135.74 200.86 L 136.69 200.85 C 137.75 200.84 138.60 199.97 138.59 198.90 C 138.58 197.84 137.71 196.99 136.65 197.00 Z M 136.71 197.34 L 136.03 196.92 C 135.14 196.38 133.98 196.65 133.44 197.54 C 132.90 198.42 133.17 199.58 134.06 200.12 L 134.74 200.54 C 135.62 201.08 136.78 200.80 137.32 199.92 C 137.87 199.04 137.59 197.88 136.71 197.34 Z M 136.63 197.65 L 136.19 196.86 C 135.71 195.99 134.61 195.67 133.74 196.15 C 132.86 196.63 132.54 197.73 133.03 198.60 L 133.46 199.39 C 133.94 200.27 135.04 200.58 135.91 200.10 C 136.79 199.62 137.11 198.52 136.63 197.65 Z M 136.27 197.25 L 135.95 196.17 C 135.69 195.26 134.73 194.73 133.81 195.00 C 132.90 195.26 132.37 196.22 132.64 197.13 L 132.95 198.21 C 133.22 199.13 134.18 199.65 135.09 199.39 C 136.00 199.12 136.53 198.17 136.27 197.25 Z M 135.92 196.28 L 135.70 195.30 C 135.49 194.40 134.60 193.84 133.70 194.05 C 132.80 194.25 132.24 195.15 132.45 196.05 L 132.67 197.02 C 132.87 197.92 133.77 198.48 134.67 198.28 C 135.57 198.07 136.13 197.18 135.92 196.28 Z M 135.69 195.33 L 135.49 194.41 C 135.30 193.52 134.42 192.95 133.53 193.14 C 132.64 193.34 132.07 194.21 132.26 195.11 L 132.46 196.02 C 132.65 196.91 133.53 197.48 134.42 197.29 C 135.31 197.10 135.88 196.22 135.69 195.33 Z M 135.49 194.43 L 135.29 193.45 C 135.11 192.56 134.24 191.98 133.35 192.16 C 132.46 192.34 131.88 193.21 132.06 194.10 L 132.26 195.08 C 132.44 195.98 133.31 196.55 134.20 196.37 C 135.09 196.19 135.67 195.32 135.49 194.43 Z M 135.29 193.47 L 135.09 192.43 C 134.92 191.54 134.06 190.95 133.17 191.12 C 132.28 191.29 131.70 192.15 131.86 193.04 L 132.06 194.08 C 132.23 194.97 133.09 195.56 133.98 195.39 C 134.87 195.22 135.46 194.36 135.29 193.47 Z M 135.09 192.45 L 134.91 191.40 C 134.75 190.50 133.90 189.91 133.01 190.07 C 132.12 190.22 131.52 191.07 131.68 191.96 L 131.86 193.02 C 132.02 193.91 132.87 194.50 133.76 194.35 C 134.65 194.19 135.25 193.34 135.09 192.45 Z M 134.91 191.41 L 134.75 190.46 C 134.61 189.57 133.76 188.97 132.87 189.11 C 131.98 189.26 131.37 190.10 131.52 190.99 L 131.68 191.95 C 131.82 192.84 132.67 193.44 133.56 193.30 C 134.45 193.15 135.06 192.31 134.91 191.41 Z M 134.75 190.48 L 134.60 189.50 C 134.46 188.60 133.63 187.99 132.73 188.13 C 131.84 188.27 131.23 189.11 131.37 190.00 L 131.52 190.98 C 131.66 191.87 132.50 192.48 133.39 192.35 C 134.28 192.21 134.89 191.37 134.75 190.48 Z M 134.60 189.51 L 134.46 188.51 C 134.32 187.62 133.49 187.00 132.59 187.13 C 131.70 187.27 131.08 188.10 131.22 188.99 L 131.37 189.99 C 131.50 190.89 132.33 191.50 133.23 191.37 C 134.12 191.24 134.74 190.40 134.60 189.51 Z M 134.46 188.52 L 134.31 187.51 C 134.18 186.61 133.35 185.99 132.45 186.12 C 131.56 186.25 130.94 187.08 131.07 187.98 L 131.22 188.99 C 131.35 189.88 132.18 190.50 133.07 190.37 C 133.97 190.24 134.59 189.41 134.46 188.52 Z M 134.31 187.51 L 134.16 186.49 C 134.04 185.60 133.21 184.98 132.31 185.11 C 131.42 185.23 130.79 186.06 130.92 186.96 L 131.07 187.98 C 131.20 188.87 132.03 189.49 132.92 189.36 C 133.82 189.23 134.44 188.41 134.31 187.51 Z M 134.16 186.49 L 134.15 186.43 C 134.03 185.54 133.20 184.92 132.30 185.04 C 131.41 185.17 130.79 186.00 130.91 186.89 L 130.92 186.96 C 131.05 187.85 131.88 188.47 132.77 188.35 C 133.67 188.22 134.29 187.39 134.16 186.49 Z"
      fill="black"
      fill-rule="nonzero" /><path d="M 130.88 162.42 L 130.16 163.22 C 129.27 164.22 129.35 165.76 130.35 166.66 C 131.36 167.55 132.89 167.47 133.79 166.46 L 134.50 165.67 C 135.40 164.66 135.31 163.13 134.31 162.23 C 133.31 161.34 131.77 161.42 130.88 162.42 Z M 130.16 163.22 L 129.45 164.02 C 128.55 165.02 128.64 166.56 129.64 167.45 C 130.64 168.35 132.18 168.26 133.08 167.26 L 133.79 166.47 C 134.69 165.46 134.60 163.92 133.60 163.03 C 132.59 162.13 131.05 162.22 130.16 163.22 Z M 129.44 164.01 L 128.74 164.80 C 127.84 165.81 127.93 167.35 128.94 168.25 C 129.94 169.14 131.48 169.06 132.38 168.05 L 133.08 167.26 C 133.98 166.26 133.89 164.72 132.89 163.82 C 131.88 162.92 130.34 163.01 129.44 164.01 Z M 128.74 164.80 L 128.05 165.58 C 127.15 166.58 127.24 168.13 128.24 169.03 C 129.25 169.93 130.80 169.84 131.70 168.83 L 132.39 168.05 C 133.29 167.04 133.20 165.50 132.19 164.60 C 131.18 163.70 129.63 163.79 128.74 164.80 Z M 128.04 165.58 L 127.36 166.34 C 126.46 167.35 126.56 168.90 127.57 169.79 C 128.58 170.69 130.13 170.60 131.02 169.59 L 131.70 168.83 C 132.60 167.82 132.51 166.27 131.50 165.37 C 130.49 164.47 128.94 164.56 128.04 165.58 Z M 127.36 166.34 L 126.70 167.08 C 125.80 168.09 125.89 169.64 126.91 170.54 C 127.92 171.44 129.47 171.35 130.37 170.33 L 131.03 169.59 C 131.93 168.58 131.83 167.03 130.82 166.13 C 129.81 165.23 128.26 165.32 127.36 166.34 Z M 126.69 167.08 L 126.06 167.80 C 125.16 168.82 125.26 170.37 126.27 171.27 C 127.29 172.17 128.85 172.07 129.74 171.05 L 130.38 170.33 C 131.28 169.31 131.18 167.76 130.16 166.86 C 129.14 165.96 127.59 166.06 126.69 167.08 Z M 126.05 167.80 L 125.44 168.50 C 124.54 169.52 124.65 171.07 125.67 171.97 C 126.69 172.87 128.24 172.77 129.14 171.74 L 129.75 171.05 C 130.65 170.03 130.55 168.47 129.53 167.58 C 128.50 166.68 126.95 166.78 126.05 167.80 Z M 125.43 168.50 L 124.85 169.16 C 123.96 170.19 124.06 171.75 125.09 172.64 C 126.12 173.54 127.68 173.43 128.57 172.41 L 129.15 171.74 C 130.05 170.71 129.94 169.16 128.91 168.26 C 127.89 167.37 126.33 167.47 125.43 168.50 Z M 124.85 169.17 L 124.11 170.03 C 123.22 171.06 123.33 172.61 124.36 173.50 C 125.39 174.39 126.95 174.28 127.83 173.25 L 128.58 172.39 C 129.46 171.37 129.35 169.81 128.32 168.92 C 127.29 168.03 125.74 168.14 124.85 169.17 Z M 124.11 170.05 L 123.41 170.86 C 122.53 171.89 122.66 173.44 123.68 174.32 C 124.71 175.20 126.26 175.08 127.14 174.05 L 127.83 173.23 C 128.71 172.20 128.59 170.66 127.56 169.78 C 126.53 168.90 124.99 169.02 124.11 170.05 Z M 123.41 170.89 L 122.76 171.66 C 121.89 172.69 122.03 174.22 123.05 175.09 C 124.08 175.96 125.62 175.83 126.49 174.80 L 127.14 174.03 C 128.00 173.00 127.87 171.46 126.85 170.59 C 125.82 169.73 124.28 169.86 123.41 170.89 Z M 122.76 171.68 L 122.14 172.42 C 121.29 173.45 121.43 174.98 122.46 175.83 C 123.48 176.69 125.01 176.55 125.87 175.52 L 126.49 174.78 C 127.34 173.75 127.20 172.22 126.17 171.37 C 125.15 170.51 123.62 170.65 122.76 171.68 Z M 122.15 172.44 L 121.55 173.16 C 120.71 174.19 120.86 175.71 121.88 176.55 C 122.91 177.40 124.43 177.25 125.27 176.22 L 125.87 175.50 C 126.71 174.47 126.56 172.95 125.54 172.11 C 124.51 171.26 122.99 171.41 122.15 172.44 Z M 121.55 173.18 L 120.97 173.90 C 120.14 174.93 120.29 176.43 121.32 177.27 C 122.35 178.10 123.86 177.95 124.69 176.92 L 125.27 176.20 C 126.11 175.18 125.95 173.67 124.92 172.83 C 123.90 172.00 122.39 172.16 121.55 173.18 Z M 120.98 173.92 L 120.36 174.68 C 119.53 175.71 119.70 177.21 120.72 178.03 C 121.75 178.86 123.25 178.69 124.07 177.67 L 124.69 176.90 C 125.51 175.88 125.35 174.38 124.32 173.55 C 123.30 172.73 121.80 172.89 120.98 173.92 Z M 120.36 174.70 L 119.70 175.53 C 118.88 176.56 119.05 178.05 120.07 178.86 C 121.10 179.68 122.59 179.51 123.40 178.49 L 124.07 177.65 C 124.88 176.63 124.71 175.14 123.69 174.32 C 122.67 173.51 121.18 173.68 120.36 174.70 Z M 119.70 175.55 L 119.05 176.37 C 118.24 177.39 118.41 178.87 119.43 179.68 C 120.45 180.49 121.93 180.32 122.74 179.30 L 123.39 178.47 C 124.20 177.45 124.03 175.97 123.01 175.16 C 121.99 174.36 120.51 174.53 119.70 175.55 Z M 119.06 176.39 L 118.42 177.19 C 117.62 178.20 117.80 179.67 118.81 180.48 C 119.83 181.28 121.30 181.10 122.10 180.09 L 122.73 179.29 C 123.53 178.27 123.36 176.80 122.35 176.00 C 121.33 175.20 119.86 175.37 119.06 176.39 Z M 118.43 177.20 L 117.83 177.96 C 117.04 178.97 117.21 180.43 118.22 181.23 C 119.23 182.02 120.70 181.85 121.49 180.84 L 122.09 180.08 C 122.89 179.07 122.71 177.61 121.70 176.81 C 120.69 176.01 119.23 176.19 118.43 177.20 Z M 117.85 177.96 L 117.29 178.67 C 116.50 179.67 116.67 181.13 117.67 181.92 C 118.68 182.71 120.13 182.54 120.92 181.54 L 121.48 180.83 C 122.27 179.83 122.10 178.37 121.10 177.58 C 120.09 176.79 118.64 176.96 117.85 177.96 Z M 117.31 178.67 L 116.62 179.55 C 115.83 180.54 115.99 181.98 116.99 182.77 C 117.98 183.56 119.42 183.40 120.21 182.40 L 120.90 181.53 C 121.69 180.54 121.53 179.09 120.53 178.30 C 119.54 177.52 118.10 177.68 117.31 178.67 Z M 116.64 179.56 L 115.99 180.37 C 115.21 181.35 115.37 182.77 116.34 183.56 C 117.32 184.34 118.75 184.18 119.53 183.21 L 120.18 182.39 C 120.96 181.42 120.81 179.99 119.83 179.21 C 118.85 178.42 117.43 178.58 116.64 179.56 Z M 116.02 180.38 L 115.44 181.10 C 114.66 182.06 114.81 183.47 115.77 184.25 C 116.73 185.02 118.14 184.87 118.92 183.91 L 119.50 183.19 C 120.28 182.23 120.13 180.83 119.17 180.05 C 118.21 179.27 116.80 179.42 116.02 180.38 Z M 115.47 181.12 L 114.92 181.79 C 114.15 182.74 114.29 184.13 115.24 184.90 C 116.19 185.66 117.57 185.52 118.34 184.57 L 118.89 183.90 C 119.66 182.95 119.52 181.56 118.57 180.80 C 117.62 180.03 116.24 180.17 115.47 181.12 Z M 114.94 181.81 L 114.37 182.50 C 113.61 183.44 113.76 184.81 114.69 185.57 C 115.63 186.33 117.00 186.19 117.76 185.25 L 118.32 184.56 C 119.08 183.62 118.94 182.25 118.01 181.49 C 117.07 180.73 115.70 180.87 114.94 181.81 Z M 114.39 182.52 L 113.79 183.26 C 113.03 184.19 113.18 185.55 114.11 186.30 C 115.03 187.05 116.40 186.91 117.15 185.98 L 117.75 185.24 C 118.50 184.31 118.36 182.95 117.43 182.20 C 116.50 181.45 115.14 181.59 114.39 182.52 Z M 113.80 183.27 L 113.13 184.11 C 112.38 185.03 112.53 186.38 113.45 187.12 C 114.37 187.86 115.72 187.72 116.47 186.80 L 117.14 185.96 C 117.88 185.04 117.73 183.69 116.81 182.95 C 115.89 182.21 114.54 182.35 113.80 183.27 Z M 113.14 184.12 L 112.50 184.92 C 111.76 185.84 111.91 187.18 112.83 187.91 C 113.74 188.64 115.08 188.50 115.82 187.58 L 116.46 186.78 C 117.19 185.86 117.04 184.52 116.13 183.79 C 115.21 183.06 113.87 183.21 113.14 184.12 Z M 112.50 184.94 L 111.93 185.66 C 111.21 186.57 111.36 187.90 112.27 188.62 C 113.18 189.35 114.51 189.20 115.24 188.28 L 115.81 187.56 C 116.53 186.65 116.38 185.32 115.47 184.60 C 114.56 183.87 113.23 184.03 112.50 184.94 Z M 111.94 185.68 L 111.33 186.45 C 110.61 187.36 110.77 188.68 111.68 189.39 C 112.59 190.11 113.91 189.95 114.62 189.04 L 115.23 188.27 C 115.95 187.36 115.79 186.04 114.88 185.32 C 113.97 184.61 112.65 184.77 111.94 185.68 Z M 111.33 186.47 L 110.69 187.29 C 109.99 188.20 110.16 189.51 111.07 190.21 C 111.98 190.91 113.28 190.75 113.99 189.84 L 114.62 189.02 C 115.33 188.11 115.16 186.80 114.25 186.10 C 113.34 185.40 112.03 185.56 111.33 186.47 Z M 110.69 187.31 L 110.05 188.16 C 109.36 189.07 109.54 190.37 110.45 191.06 C 111.36 191.75 112.66 191.57 113.35 190.66 L 113.99 189.81 C 114.68 188.90 114.50 187.61 113.59 186.92 C 112.68 186.23 111.38 186.40 110.69 187.31 Z M 110.05 188.19 L 109.42 189.05 C 108.74 189.96 108.93 191.24 109.84 191.92 C 110.76 192.59 112.04 192.40 112.72 191.49 L 113.35 190.63 C 114.02 189.72 113.83 188.44 112.92 187.76 C 112.01 187.09 110.72 187.28 110.05 188.19 Z M 109.42 189.08 L 108.84 189.89 C 108.18 190.80 108.39 192.07 109.30 192.72 C 110.21 193.38 111.47 193.17 112.13 192.26 L 112.71 191.45 C 113.37 190.54 113.16 189.28 112.25 188.62 C 111.34 187.96 110.07 188.17 109.42 189.08 Z M 108.85 189.92 L 108.27 190.74 C 107.63 191.64 107.85 192.89 108.75 193.53 C 109.66 194.17 110.91 193.95 111.54 193.05 L 112.12 192.23 C 112.76 191.33 112.54 190.08 111.64 189.44 C 110.73 188.80 109.48 189.02 108.85 189.92 Z M 108.28 190.77 L 107.72 191.59 C 107.09 192.49 107.32 193.72 108.21 194.34 C 109.11 194.96 110.34 194.73 110.96 193.84 L 111.53 193.02 C 112.15 192.12 111.93 190.89 111.03 190.27 C 110.14 189.65 108.91 189.87 108.28 190.77 Z M 107.73 191.62 L 107.17 192.44 C 106.56 193.33 106.79 194.54 107.67 195.15 C 108.56 195.75 109.77 195.53 110.38 194.64 L 110.94 193.81 C 111.55 192.93 111.32 191.72 110.44 191.11 C 109.55 190.50 108.34 190.73 107.73 191.62 Z M 107.19 192.46 L 106.62 193.29 C 106.03 194.17 106.26 195.36 107.13 195.96 C 108.01 196.55 109.20 196.32 109.79 195.45 L 110.36 194.62 C 110.95 193.74 110.72 192.55 109.85 191.96 C 108.97 191.36 107.78 191.59 107.19 192.46 Z M 106.64 193.31 L 106.34 193.75 C 105.75 194.62 105.97 195.80 106.84 196.39 C 107.71 196.97 108.89 196.75 109.47 195.88 L 109.78 195.43 C 110.36 194.57 110.14 193.39 109.27 192.80 C 108.41 192.21 107.23 192.44 106.64 193.31 Z"
      fill="black"
      fill-rule="nonzero" /><path d="M 132.18 165.30 L 133.07 165.88 C 134.02 166.50 135.28 166.23 135.90 165.29 C 136.52 164.34 136.26 163.07 135.31 162.45 L 134.43 161.87 C 133.48 161.25 132.21 161.52 131.59 162.46 C 130.97 163.41 131.24 164.68 132.18 165.30 Z M 133.06 165.89 L 133.93 166.47 C 134.89 167.09 136.17 166.82 136.79 165.87 C 137.42 164.91 137.15 163.63 136.20 163.01 L 135.32 162.43 C 134.37 161.81 133.09 162.08 132.46 163.03 C 131.84 163.99 132.10 165.27 133.06 165.89 Z M 133.92 166.48 L 134.77 167.04 C 135.74 167.67 137.03 167.40 137.66 166.43 C 138.29 165.47 138.02 164.17 137.06 163.54 L 136.21 162.99 C 135.24 162.36 133.95 162.63 133.32 163.60 C 132.69 164.56 132.96 165.85 133.92 166.48 Z M 134.77 167.06 L 135.58 167.59 C 136.56 168.22 137.86 167.95 138.50 166.97 C 139.13 165.99 138.85 164.69 137.88 164.05 L 137.07 163.53 C 136.09 162.89 134.78 163.17 134.15 164.14 C 133.51 165.12 133.79 166.42 134.77 167.06 Z M 135.57 167.61 L 136.34 168.10 C 137.32 168.74 138.64 168.46 139.28 167.47 C 139.92 166.49 139.64 165.17 138.65 164.53 L 137.89 164.04 C 136.90 163.40 135.58 163.68 134.94 164.66 C 134.30 165.65 134.59 166.97 135.57 167.61 Z M 136.34 168.11 L 137.23 168.69 C 138.22 169.33 139.55 169.04 140.18 168.05 C 140.82 167.06 140.54 165.73 139.55 165.10 L 138.65 164.52 C 137.66 163.88 136.34 164.17 135.70 165.16 C 135.06 166.15 135.35 167.47 136.34 168.11 Z M 137.23 168.68 L 138.06 169.22 C 139.05 169.86 140.37 169.58 141.01 168.59 C 141.65 167.60 141.37 166.28 140.38 165.64 L 139.55 165.10 C 138.56 164.46 137.24 164.74 136.60 165.73 C 135.96 166.72 136.24 168.04 137.23 168.68 Z M 138.05 169.21 L 138.85 169.74 C 139.84 170.39 141.16 170.11 141.81 169.13 C 142.45 168.15 142.18 166.83 141.20 166.18 L 140.39 165.65 C 139.41 165.00 138.09 165.28 137.44 166.26 C 136.79 167.24 137.07 168.56 138.05 169.21 Z M 138.83 169.72 L 139.64 170.27 C 140.61 170.93 141.93 170.68 142.59 169.70 C 143.25 168.73 143.00 167.41 142.03 166.75 L 141.22 166.20 C 140.25 165.54 138.93 165.79 138.27 166.76 C 137.60 167.74 137.86 169.06 138.83 169.72 Z M 139.62 170.24 L 140.39 170.78 C 141.35 171.45 142.67 171.22 143.34 170.27 C 144.01 169.31 143.78 167.99 142.82 167.32 L 142.05 166.78 C 141.09 166.10 139.77 166.33 139.10 167.29 C 138.43 168.25 138.66 169.57 139.62 170.24 Z M 140.38 170.75 L 141.18 171.33 C 142.12 172.00 143.43 171.79 144.11 170.85 C 144.78 169.91 144.57 168.60 143.63 167.93 L 142.83 167.35 C 141.89 166.67 140.58 166.89 139.90 167.82 C 139.23 168.76 139.44 170.07 140.38 170.75 Z M 141.18 171.30 L 142.00 171.90 C 142.92 172.58 144.22 172.38 144.90 171.46 C 145.58 170.53 145.38 169.23 144.46 168.55 L 143.63 167.95 C 142.71 167.27 141.41 167.47 140.73 168.40 C 140.05 169.32 140.25 170.62 141.18 171.30 Z M 142.00 171.88 L 142.84 172.50 C 143.75 173.18 145.04 172.99 145.72 172.07 C 146.39 171.16 146.20 169.87 145.29 169.20 L 144.45 168.58 C 143.54 167.90 142.25 168.09 141.58 169.00 C 140.90 169.92 141.09 171.20 142.00 171.88 Z M 142.85 172.48 L 143.69 173.10 C 144.59 173.77 145.86 173.59 146.53 172.69 C 147.20 171.79 147.01 170.52 146.12 169.85 L 145.28 169.22 C 144.38 168.55 143.11 168.74 142.44 169.64 C 141.77 170.54 141.95 171.81 142.85 172.48 Z M 143.71 173.07 L 144.54 173.69 C 145.42 174.35 146.67 174.17 147.33 173.29 C 147.99 172.42 147.81 171.17 146.93 170.51 L 146.10 169.88 C 145.22 169.23 143.97 169.40 143.31 170.28 C 142.65 171.16 142.83 172.41 143.71 173.07 Z M 144.56 173.65 L 145.36 174.26 C 146.22 174.91 147.44 174.75 148.09 173.89 C 148.74 173.03 148.58 171.81 147.72 171.16 L 146.91 170.55 C 146.06 169.90 144.84 170.06 144.18 170.92 C 143.53 171.78 143.70 173.00 144.56 173.65 Z M 145.38 174.22 L 146.14 174.81 C 146.97 175.45 148.17 175.30 148.81 174.47 C 149.46 173.63 149.30 172.44 148.47 171.79 L 147.71 171.20 C 146.88 170.56 145.68 170.71 145.03 171.55 C 144.39 172.38 144.54 173.58 145.38 174.22 Z M 146.14 174.76 L 146.91 175.37 C 147.72 176.01 148.89 175.88 149.53 175.07 C 150.17 174.26 150.04 173.09 149.23 172.45 L 148.46 171.84 C 147.66 171.20 146.49 171.34 145.84 172.14 C 145.20 172.95 145.34 174.12 146.14 174.76 Z M 146.92 175.31 L 147.70 175.95 C 148.47 176.59 149.62 176.47 150.25 175.70 C 150.89 174.93 150.78 173.78 150.00 173.15 L 149.22 172.51 C 148.45 171.87 147.31 171.99 146.67 172.76 C 146.03 173.53 146.15 174.68 146.92 175.31 Z M 147.72 175.90 L 148.46 176.52 C 149.21 177.15 150.32 177.05 150.94 176.30 C 151.57 175.56 151.47 174.45 150.72 173.82 L 149.98 173.20 C 149.24 172.57 148.12 172.67 147.50 173.42 C 146.87 174.16 146.97 175.27 147.72 175.90 Z M 148.49 176.48 L 149.25 177.12 C 149.98 177.73 151.06 177.63 151.66 176.91 C 152.27 176.18 152.18 175.11 151.45 174.50 L 150.69 173.86 C 149.97 173.25 148.89 173.35 148.28 174.07 C 147.67 174.80 147.77 175.87 148.49 176.48 Z M 149.28 177.10 L 150.01 177.70 C 150.72 178.29 151.78 178.19 152.37 177.48 C 152.96 176.77 152.86 175.71 152.15 175.12 L 151.42 174.52 C 150.71 173.93 149.65 174.03 149.06 174.74 C 148.47 175.45 148.57 176.51 149.28 177.10 Z M 150.02 177.70 L 150.79 178.33 C 151.50 178.91 152.55 178.80 153.13 178.09 C 153.72 177.38 153.61 176.33 152.90 175.75 L 152.13 175.12 C 151.42 174.54 150.37 174.64 149.79 175.36 C 149.21 176.07 149.31 177.12 150.02 177.70 Z M 150.80 178.32 L 151.60 178.97 C 152.31 179.54 153.35 179.44 153.93 178.73 C 154.50 178.02 154.39 176.97 153.68 176.40 L 152.89 175.75 C 152.18 175.18 151.14 175.28 150.56 175.99 C 149.98 176.70 150.09 177.75 150.80 178.32 Z M 151.61 178.96 L 152.42 179.62 C 153.12 180.19 154.16 180.08 154.73 179.37 C 155.30 178.67 155.19 177.63 154.49 177.06 L 153.68 176.40 C 152.97 175.83 151.93 175.94 151.36 176.65 C 150.79 177.35 150.90 178.39 151.61 178.96 Z"
      fill="black"
      fill-rule="nonzero" /><path d="M 155.13 144.97 L 155.14 145.91 C 155.14 147.21 156.19 148.25 157.48 148.25 C 158.77 148.25 159.82 147.20 159.81 145.90 L 159.81 144.96 C 159.81 143.67 158.76 142.62 157.47 142.63 C 156.18 142.63 155.13 143.68 155.13 144.97 Z M 155.14 145.95 L 155.15 146.92 C 155.17 148.21 156.23 149.25 157.53 149.23 C 158.82 149.21 159.85 148.14 159.83 146.85 L 159.81 145.87 C 159.79 144.58 158.73 143.55 157.44 143.57 C 156.15 143.59 155.12 144.65 155.14 145.95 Z M 155.15 146.98 L 155.19 148.03 C 155.24 149.32 156.33 150.32 157.62 150.27 C 158.91 150.22 159.92 149.13 159.87 147.84 L 159.83 146.79 C 159.78 145.50 158.69 144.50 157.40 144.55 C 156.11 144.60 155.10 145.69 155.15 146.98 Z M 155.21 148.09 L 155.27 149.08 C 155.36 150.36 156.47 151.33 157.75 151.24 C 159.04 151.16 160.01 150.05 159.92 148.76 L 159.85 147.78 C 159.77 146.50 158.66 145.52 157.38 145.61 C 156.09 145.70 155.12 146.81 155.21 148.09 Z M 155.30 149.12 L 155.39 150.10 C 155.50 151.37 156.61 152.31 157.88 152.20 C 159.14 152.09 160.08 150.98 159.97 149.71 L 159.89 148.72 C 159.78 147.46 158.67 146.52 157.40 146.63 C 156.13 146.74 155.20 147.85 155.30 149.12 Z M 155.42 150.12 L 155.52 151.14 C 155.64 152.38 156.74 153.30 157.99 153.18 C 159.24 153.06 160.16 151.95 160.04 150.71 L 159.94 149.69 C 159.82 148.44 158.71 147.53 157.47 147.65 C 156.22 147.76 155.30 148.87 155.42 150.12 Z M 155.55 151.14 L 155.65 152.16 C 155.77 153.39 156.86 154.29 158.09 154.17 C 159.32 154.05 160.22 152.96 160.10 151.73 L 160.01 150.70 C 159.89 149.47 158.79 148.57 157.56 148.69 C 156.33 148.81 155.43 149.91 155.55 151.14 Z M 155.68 152.15 L 155.78 153.16 C 155.89 154.37 156.96 155.27 158.18 155.15 C 159.39 155.04 160.28 153.96 160.17 152.75 L 160.07 151.74 C 159.96 150.53 158.89 149.63 157.67 149.75 C 156.46 149.86 155.57 150.94 155.68 152.15 Z M 155.80 153.15 L 155.89 154.15 C 156.00 155.34 157.06 156.23 158.25 156.12 C 159.45 156.01 160.33 154.96 160.23 153.76 L 160.14 152.76 C 160.03 151.57 158.98 150.68 157.78 150.79 C 156.58 150.90 155.70 151.95 155.80 153.15 Z M 155.92 154.14 L 156.01 155.13 C 156.11 156.31 157.16 157.18 158.34 157.08 C 159.52 156.97 160.39 155.93 160.29 154.75 L 160.20 153.76 C 160.09 152.58 159.05 151.71 157.87 151.82 C 156.69 151.92 155.82 152.96 155.92 154.14 Z M 156.04 155.13 L 156.13 156.12 C 156.24 157.29 157.27 158.14 158.43 158.04 C 159.59 157.93 160.45 156.90 160.34 155.74 L 160.25 154.75 C 160.15 153.59 159.12 152.73 157.96 152.83 C 156.79 152.94 155.93 153.97 156.04 155.13 Z M 156.16 156.13 L 156.25 157.09 C 156.37 158.24 157.39 159.08 158.53 158.97 C 159.68 158.86 160.52 157.83 160.41 156.69 L 160.32 155.73 C 160.20 154.58 159.18 153.74 158.04 153.85 C 156.89 153.97 156.05 154.99 156.16 156.13 Z M 156.28 157.11 L 156.38 158.07 C 156.50 159.20 157.52 160.02 158.65 159.90 C 159.79 159.78 160.61 158.76 160.48 157.63 L 160.38 156.67 C 160.26 155.54 159.24 154.72 158.11 154.84 C 156.98 154.96 156.16 155.98 156.28 157.11 Z M 156.41 158.09 L 156.53 159.08 C 156.66 160.20 157.67 160.99 158.79 160.86 C 159.91 160.73 160.71 159.71 160.58 158.60 L 160.46 157.61 C 160.33 156.49 159.31 155.69 158.19 155.82 C 157.08 155.96 156.28 156.97 156.41 158.09 Z M 156.55 159.10 L 156.69 160.13 C 156.84 161.23 157.85 162.01 158.95 161.86 C 160.06 161.71 160.83 160.70 160.68 159.60 L 160.55 158.57 C 160.40 157.47 159.39 156.69 158.29 156.84 C 157.18 156.99 156.41 158.00 156.55 159.10 Z M 156.72 160.15 L 156.87 161.18 C 157.03 162.27 158.04 163.02 159.13 162.86 C 160.22 162.70 160.97 161.69 160.81 160.60 L 160.66 159.57 C 160.50 158.48 159.48 157.73 158.40 157.89 C 157.31 158.05 156.56 159.07 156.72 160.15 Z M 156.90 161.21 L 157.06 162.20 C 157.23 163.27 158.25 164.00 159.32 163.83 C 160.39 163.65 161.12 162.64 160.95 161.57 L 160.78 160.57 C 160.61 159.50 159.60 158.77 158.52 158.95 C 157.45 159.12 156.72 160.13 156.90 161.21 Z M 157.08 162.22 L 157.26 163.23 C 157.45 164.29 158.46 164.99 159.52 164.81 C 160.58 164.62 161.29 163.61 161.10 162.55 L 160.92 161.54 C 160.73 160.48 159.72 159.78 158.66 159.97 C 157.60 160.15 156.90 161.16 157.08 162.22 Z M 157.29 163.25 L 157.48 164.25 C 157.68 165.29 158.69 165.98 159.74 165.77 C 160.78 165.57 161.46 164.56 161.26 163.52 L 161.07 162.52 C 160.87 161.48 159.86 160.80 158.82 161.00 C 157.77 161.20 157.09 162.21 157.29 163.25 Z M 157.51 164.27 L 157.71 165.24 C 157.93 166.27 158.94 166.93 159.97 166.71 C 161.00 166.49 161.65 165.48 161.44 164.45 L 161.24 163.49 C 161.02 162.46 160.01 161.80 158.98 162.02 C 157.95 162.23 157.29 163.25 157.51 164.27 Z M 157.74 165.27 L 157.99 166.32 C 158.23 167.33 159.24 167.96 160.25 167.72 C 161.26 167.49 161.88 166.48 161.65 165.47 L 161.40 164.42 C 161.17 163.41 160.16 162.78 159.15 163.02 C 158.14 163.25 157.51 164.26 157.74 165.27 Z M 158.04 166.40 L 158.34 167.43 C 158.62 168.41 159.64 168.98 160.62 168.70 C 161.60 168.42 162.16 167.40 161.89 166.42 L 161.59 165.39 C 161.32 164.41 160.30 163.84 159.32 164.12 C 158.34 164.40 157.77 165.42 158.04 166.40 Z M 158.42 167.57 L 158.77 168.48 C 159.13 169.41 160.17 169.88 161.11 169.52 C 162.04 169.17 162.51 168.12 162.15 167.19 L 161.80 166.28 C 161.44 165.35 160.40 164.88 159.47 165.24 C 158.53 165.59 158.07 166.64 158.42 167.57 Z M 158.92 168.70 L 159.35 169.47 C 159.83 170.32 160.90 170.63 161.76 170.15 C 162.61 169.67 162.91 168.59 162.44 167.74 L 162.01 166.97 C 161.53 166.12 160.45 165.81 159.60 166.29 C 158.74 166.77 158.44 167.85 158.92 168.70 Z M 159.63 169.80 L 160.34 170.55 C 161.00 171.25 162.10 171.28 162.79 170.62 C 163.49 169.96 163.52 168.86 162.86 168.16 L 162.16 167.41 C 161.50 166.72 160.40 166.68 159.70 167.34 C 159.00 168.00 158.97 169.10 159.63 169.80 Z M 160.93 170.93 L 161.81 171.30 C 162.68 171.67 163.68 171.27 164.05 170.40 C 164.42 169.53 164.02 168.53 163.15 168.16 L 162.27 167.78 C 161.40 167.41 160.40 167.82 160.03 168.69 C 159.66 169.56 160.06 170.56 160.93 170.93 Z M 162.87 171.37 L 163.78 171.15 C 164.69 170.93 165.24 170.03 165.03 169.12 C 164.81 168.22 163.91 167.66 163.00 167.87 L 162.09 168.09 C 161.18 168.31 160.62 169.21 160.84 170.12 C 161.05 171.02 161.96 171.58 162.87 171.37 Z M 164.50 170.75 L 165.08 170.24 C 165.76 169.63 165.82 168.57 165.20 167.89 C 164.59 167.20 163.54 167.15 162.85 167.76 L 162.28 168.27 C 161.60 168.89 161.54 169.94 162.15 170.62 C 162.77 171.31 163.82 171.37 164.50 170.75 Z M 165.30 169.98 L 165.85 169.23 C 166.39 168.49 166.23 167.45 165.49 166.91 C 164.75 166.37 163.71 166.53 163.17 167.27 L 162.62 168.02 C 162.08 168.76 162.24 169.80 162.98 170.34 C 163.72 170.88 164.76 170.72 165.30 169.98 Z M 165.94 169.08 L 166.48 168.16 C 166.93 167.37 166.67 166.36 165.88 165.90 C 165.09 165.44 164.08 165.71 163.62 166.50 L 163.09 167.42 C 162.63 168.21 162.89 169.22 163.68 169.68 C 164.47 170.13 165.48 169.87 165.94 169.08 Z M 166.51 168.08 L 167.04 167.06 C 167.45 166.26 167.14 165.27 166.33 164.85 C 165.53 164.43 164.54 164.75 164.12 165.55 L 163.59 166.57 C 163.17 167.38 163.49 168.37 164.29 168.79 C 165.10 169.20 166.09 168.89 166.51 168.08 Z M 167.04 167.04 L 167.25 166.63 C 167.66 165.82 167.33 164.83 166.52 164.43 C 165.71 164.02 164.73 164.35 164.32 165.16 L 164.11 165.57 C 163.71 166.38 164.03 167.37 164.84 167.77 C 165.65 168.18 166.64 167.85 167.04 167.04 Z"
      fill="black"
      fill-rule="nonzero" /><path d="M 177.56 114.31 L 177.38 115.30 C 177.19 116.37 177.91 117.38 178.97 117.57 C 180.04 117.76 181.06 117.05 181.24 115.98 L 181.42 114.99 C 181.60 113.93 180.89 112.91 179.83 112.72 C 178.76 112.54 177.74 113.25 177.56 114.31 Z M 177.30 115.36 L 177.16 116.34 C 177.00 117.46 177.78 118.49 178.89 118.64 C 180.00 118.80 181.03 118.02 181.19 116.91 L 181.33 115.92 C 181.48 114.81 180.71 113.78 179.60 113.62 C 178.48 113.47 177.45 114.24 177.30 115.36 Z M 177.07 116.48 L 177.00 117.47 C 176.91 118.64 177.79 119.64 178.95 119.73 C 180.11 119.81 181.12 118.94 181.21 117.77 L 181.28 116.78 C 181.36 115.62 180.49 114.61 179.32 114.52 C 178.16 114.44 177.15 115.31 177.07 116.48 Z M 176.94 117.68 L 176.96 118.67 C 177.00 119.87 177.99 120.81 179.19 120.78 C 180.38 120.74 181.33 119.75 181.29 118.55 L 181.27 117.56 C 181.23 116.37 180.24 115.43 179.04 115.46 C 177.85 115.49 176.90 116.49 176.94 117.68 Z M 176.96 118.87 L 177.07 119.85 C 177.22 121.05 178.31 121.91 179.51 121.77 C 180.70 121.63 181.56 120.54 181.42 119.34 L 181.30 118.35 C 181.16 117.15 180.07 116.30 178.87 116.44 C 177.67 116.58 176.81 117.67 176.96 118.87 Z M 177.08 119.97 L 177.26 120.97 C 177.47 122.16 178.60 122.96 179.80 122.75 C 180.99 122.54 181.79 121.40 181.58 120.21 L 181.41 119.22 C 181.20 118.02 180.06 117.22 178.87 117.43 C 177.67 117.64 176.88 118.78 177.08 119.97 Z M 177.26 121.01 L 177.45 122.01 C 177.69 123.20 178.85 123.98 180.04 123.74 C 181.23 123.51 182.01 122.35 181.78 121.16 L 181.58 120.16 C 181.35 118.97 180.19 118.19 179.00 118.43 C 177.80 118.66 177.02 119.82 177.26 121.01 Z M 177.45 121.99 L 177.63 122.94 C 177.85 124.14 179.01 124.92 180.21 124.70 C 181.40 124.47 182.19 123.31 181.96 122.12 L 181.78 121.17 C 181.56 119.97 180.40 119.19 179.20 119.41 C 178.01 119.64 177.22 120.80 177.45 121.99 Z M 177.62 122.92 L 177.79 123.88 C 178.01 125.08 179.15 125.88 180.35 125.67 C 181.55 125.45 182.36 124.31 182.14 123.11 L 181.97 122.14 C 181.76 120.94 180.61 120.14 179.41 120.35 C 178.21 120.57 177.41 121.71 177.62 122.92 Z M 177.79 123.86 L 177.95 124.86 C 178.15 126.06 179.29 126.87 180.50 126.67 C 181.70 126.47 182.51 125.33 182.31 124.13 L 182.15 123.13 C 181.95 121.93 180.81 121.11 179.60 121.31 C 178.40 121.51 177.59 122.65 177.79 123.86 Z M 177.95 124.83 L 178.11 125.84 C 178.29 127.05 179.43 127.87 180.63 127.68 C 181.84 127.50 182.66 126.36 182.48 125.16 L 182.32 124.15 C 182.13 122.94 181.00 122.12 179.79 122.31 C 178.58 122.50 177.76 123.63 177.95 124.83 Z M 178.10 125.82 L 178.24 126.75 C 178.42 127.95 179.54 128.79 180.75 128.61 C 181.96 128.43 182.79 127.31 182.62 126.10 L 182.48 125.17 C 182.30 123.97 181.17 123.13 179.97 123.31 C 178.76 123.49 177.92 124.61 178.10 125.82 Z M 178.24 126.73 L 178.37 127.70 C 178.54 128.91 179.66 129.75 180.87 129.58 C 182.08 129.41 182.93 128.29 182.75 127.08 L 182.62 126.11 C 182.45 124.90 181.33 124.06 180.12 124.23 C 178.91 124.40 178.07 125.52 178.24 126.73 Z M 178.37 127.68 L 178.51 128.70 C 178.67 129.91 179.79 130.76 181.00 130.60 C 182.21 130.43 183.06 129.32 182.89 128.11 L 182.76 127.09 C 182.59 125.88 181.48 125.03 180.27 125.20 C 179.06 125.36 178.21 126.47 178.37 127.68 Z M 178.51 128.69 L 178.64 129.74 C 178.80 130.96 179.91 131.81 181.12 131.66 C 182.33 131.50 183.19 130.39 183.03 129.18 L 182.89 128.12 C 182.74 126.91 181.63 126.05 180.42 126.21 C 179.21 126.36 178.35 127.47 178.51 128.69 Z M 178.64 129.73 L 178.77 130.77 C 178.92 131.98 180.03 132.84 181.24 132.69 C 182.45 132.54 183.31 131.43 183.16 130.22 L 183.03 129.19 C 182.88 127.98 181.78 127.12 180.57 127.27 C 179.35 127.42 178.49 128.52 178.64 129.73 Z M 178.77 130.76 L 178.89 131.79 C 179.04 133.00 180.14 133.87 181.36 133.72 C 182.57 133.57 183.43 132.47 183.29 131.26 L 183.16 130.23 C 183.01 129.02 181.91 128.15 180.70 128.30 C 179.49 128.45 178.62 129.55 178.77 130.76 Z M 178.90 131.79 L 179.02 132.81 C 179.16 134.02 180.26 134.89 181.47 134.74 C 182.69 134.60 183.55 133.50 183.41 132.28 L 183.28 131.26 C 183.14 130.05 182.04 129.19 180.83 129.33 C 179.62 129.47 178.75 130.57 178.90 131.79 Z M 179.02 132.81 L 179.14 133.80 C 179.28 135.01 180.38 135.87 181.59 135.73 C 182.80 135.58 183.67 134.48 183.52 133.27 L 183.41 132.28 C 183.26 131.07 182.16 130.21 180.95 130.35 C 179.74 130.50 178.87 131.60 179.02 132.81 Z M 179.14 133.80 L 179.25 134.73 C 179.40 135.94 180.50 136.81 181.71 136.66 C 182.92 136.51 183.78 135.41 183.64 134.20 L 183.52 133.27 C 183.37 132.06 182.27 131.20 181.06 131.34 C 179.85 131.49 178.99 132.59 179.14 133.80 Z M 179.26 134.74 L 179.38 135.74 C 179.54 136.95 180.64 137.80 181.85 137.65 C 183.06 137.50 183.91 136.39 183.76 135.18 L 183.63 134.19 C 183.48 132.98 182.37 132.12 181.17 132.28 C 179.96 132.43 179.10 133.54 179.26 134.74 Z M 179.39 135.75 L 179.51 136.70 C 179.67 137.91 180.77 138.76 181.98 138.60 C 183.19 138.44 184.04 137.33 183.88 136.13 L 183.76 135.17 C 183.60 133.97 182.49 133.12 181.28 133.28 C 180.08 133.43 179.23 134.54 179.39 135.75 Z M 179.51 136.70 L 179.64 137.65 C 179.79 138.86 180.90 139.71 182.10 139.55 C 183.31 139.39 184.16 138.29 184.00 137.08 L 183.88 136.13 C 183.72 134.93 182.62 134.07 181.41 134.23 C 180.21 134.39 179.36 135.49 179.51 136.70 Z M 179.64 137.64 L 179.77 138.66 C 179.91 139.87 181.01 140.72 182.22 140.57 C 183.42 140.42 184.28 139.33 184.13 138.12 L 184.00 137.10 C 183.85 135.89 182.75 135.04 181.55 135.19 C 180.34 135.34 179.49 136.43 179.64 137.64 Z M 179.77 138.65 L 179.88 139.63 C 180.02 140.83 181.11 141.70 182.32 141.56 C 183.52 141.42 184.38 140.32 184.24 139.12 L 184.13 138.14 C 183.99 136.93 182.90 136.07 181.69 136.21 C 180.49 136.35 179.62 137.44 179.77 138.65 Z M 179.88 139.62 L 179.99 140.63 C 180.13 141.83 181.21 142.70 182.41 142.57 C 183.62 142.43 184.49 141.35 184.35 140.14 L 184.24 139.13 C 184.11 137.93 183.02 137.06 181.82 137.19 C 180.61 137.33 179.75 138.41 179.88 139.62 Z M 179.99 140.61 L 180.10 141.65 C 180.23 142.86 181.31 143.73 182.51 143.60 C 183.72 143.48 184.59 142.40 184.46 141.19 L 184.35 140.16 C 184.23 138.95 183.15 138.08 181.94 138.20 C 180.74 138.33 179.86 139.41 179.99 140.61 Z M 180.10 141.64 L 180.20 142.66 C 180.32 143.87 181.40 144.75 182.60 144.63 C 183.81 144.51 184.69 143.43 184.57 142.23 L 184.46 141.21 C 184.34 140.00 183.27 139.12 182.07 139.24 C 180.86 139.36 179.98 140.43 180.10 141.64 Z M 180.20 142.65 L 180.29 143.61 C 180.40 144.81 181.47 145.70 182.67 145.59 C 183.88 145.48 184.77 144.41 184.65 143.20 L 184.57 142.24 C 184.45 141.04 183.39 140.15 182.18 140.26 C 180.98 140.37 180.09 141.44 180.20 142.65 Z M 180.29 143.59 L 180.38 144.71 C 180.48 145.91 181.54 146.81 182.74 146.71 C 183.95 146.61 184.85 145.56 184.75 144.35 L 184.66 143.23 C 184.56 142.02 183.50 141.12 182.29 141.22 C 181.09 141.32 180.19 142.38 180.29 143.59 Z M 180.38 144.69 L 180.45 145.71 C 180.54 146.92 181.59 147.82 182.79 147.74 C 184.00 147.65 184.91 146.61 184.82 145.40 L 184.75 144.37 C 184.66 143.17 183.62 142.26 182.41 142.35 C 181.20 142.43 180.30 143.48 180.38 144.69 Z M 180.45 145.70 L 180.52 146.62 C 180.60 147.82 181.64 148.74 182.84 148.66 C 184.05 148.58 184.96 147.53 184.88 146.33 L 184.82 145.41 C 184.74 144.20 183.70 143.29 182.49 143.37 C 181.29 143.45 180.37 144.50 180.45 145.70 Z M 180.52 146.63 L 180.58 147.54 C 180.67 148.74 181.72 149.65 182.92 149.56 C 184.13 149.47 185.03 148.42 184.95 147.22 L 184.88 146.31 C 184.79 145.11 183.75 144.20 182.54 144.29 C 181.34 144.38 180.43 145.43 180.52 146.63 Z M 180.59 147.56 L 180.67 148.56 C 180.77 149.76 181.83 150.65 183.03 150.55 C 184.23 150.45 185.13 149.40 185.03 148.19 L 184.94 147.20 C 184.84 145.99 183.78 145.10 182.58 145.20 C 181.38 145.30 180.48 146.36 180.59 147.56 Z M 180.67 148.56 L 180.76 149.56 C 180.86 150.76 181.92 151.65 183.12 151.55 C 184.33 151.44 185.22 150.38 185.11 149.18 L 185.03 148.19 C 184.92 146.98 183.86 146.09 182.66 146.20 C 181.46 146.30 180.57 147.36 180.67 148.56 Z M 180.75 149.54 L 180.83 150.54 C 180.93 151.74 181.98 152.64 183.19 152.54 C 184.39 152.45 185.29 151.40 185.19 150.19 L 185.11 149.20 C 185.02 147.99 183.97 147.10 182.76 147.19 C 181.56 147.29 180.66 148.34 180.75 149.54 Z M 180.83 150.51 L 180.90 151.49 C 180.98 152.70 182.02 153.61 183.22 153.53 C 184.43 153.45 185.34 152.41 185.26 151.21 L 185.20 150.22 C 185.12 149.02 184.08 148.10 182.87 148.18 C 181.67 148.26 180.75 149.30 180.83 150.51 Z M 180.89 151.47 L 180.95 152.47 C 181.02 153.67 182.05 154.60 183.25 154.53 C 184.46 154.46 185.38 153.43 185.32 152.23 L 185.26 151.23 C 185.19 150.02 184.16 149.10 182.96 149.17 C 181.75 149.23 180.83 150.26 180.89 151.47 Z M 180.95 152.45 L 181.00 153.47 C 181.06 154.67 182.08 155.60 183.29 155.54 C 184.50 155.48 185.43 154.46 185.37 153.25 L 185.32 152.24 C 185.26 151.03 184.23 150.10 183.03 150.16 C 181.82 150.22 180.89 151.25 180.95 152.45 Z M 181.00 153.46 L 181.04 154.35 C 181.10 155.56 182.12 156.49 183.33 156.44 C 184.53 156.38 185.47 155.35 185.41 154.15 L 185.37 153.26 C 185.31 152.05 184.29 151.12 183.08 151.17 C 181.87 151.23 180.94 152.26 181.00 153.46 Z M 181.04 154.36 L 181.09 155.31 C 181.14 156.51 182.17 157.45 183.37 157.39 C 184.58 157.33 185.51 156.31 185.45 155.10 L 185.41 154.15 C 185.35 152.94 184.33 152.01 183.12 152.07 C 181.91 152.12 180.98 153.15 181.04 154.36 Z M 181.09 155.31 L 181.14 156.36 C 181.20 157.57 182.22 158.50 183.43 158.44 C 184.63 158.38 185.56 157.35 185.51 156.15 L 185.45 155.10 C 185.39 153.89 184.37 152.96 183.16 153.02 C 181.96 153.08 181.03 154.11 181.09 155.31 Z M 181.14 156.37 L 181.19 157.43 C 181.25 158.63 182.28 159.56 183.49 159.50 C 184.69 159.44 185.62 158.41 185.56 157.21 L 185.50 156.14 C 185.44 154.94 184.42 154.01 183.21 154.07 C 182.00 154.13 181.08 155.16 181.14 156.37 Z M 181.19 157.43 L 181.24 158.36 C 181.31 159.56 182.33 160.49 183.54 160.43 C 184.75 160.36 185.67 159.33 185.61 158.13 L 185.56 157.20 C 185.50 156.00 184.47 155.07 183.26 155.13 C 182.05 155.20 181.13 156.23 181.19 157.43 Z M 181.24 158.36 L 181.29 159.35 C 181.36 160.55 182.39 161.48 183.60 161.41 C 184.80 161.34 185.73 160.31 185.66 159.11 L 185.61 158.12 C 185.54 156.92 184.51 155.99 183.31 156.06 C 182.10 156.12 181.18 157.16 181.24 158.36 Z M 181.29 159.35 L 181.35 160.37 C 181.42 161.58 182.45 162.50 183.66 162.44 C 184.86 162.37 185.78 161.34 185.72 160.13 L 185.66 159.11 C 185.59 157.90 184.56 156.98 183.36 157.04 C 182.15 157.11 181.23 158.14 181.29 159.35 Z M 181.35 160.37 L 181.41 161.42 C 181.48 162.63 182.51 163.55 183.72 163.49 C 184.92 163.42 185.84 162.39 185.78 161.18 L 185.72 160.13 C 185.65 158.92 184.62 158.00 183.41 158.07 C 182.21 158.14 181.28 159.17 181.35 160.37 Z M 181.41 161.43 L 181.47 162.46 C 181.54 163.67 182.57 164.59 183.77 164.52 C 184.98 164.45 185.90 163.42 185.83 162.22 L 185.78 161.18 C 185.71 159.97 184.68 159.05 183.47 159.12 C 182.26 159.19 181.34 160.22 181.41 161.43 Z M 181.47 162.46 L 181.52 163.40 C 181.59 164.60 182.62 165.52 183.83 165.46 C 185.03 165.39 185.96 164.36 185.89 163.15 L 185.84 162.22 C 185.77 161.01 184.74 160.09 183.53 160.16 C 182.32 160.22 181.40 161.26 181.47 162.46 Z M 181.52 163.39 L 181.57 164.34 C 181.64 165.54 182.67 166.47 183.87 166.40 C 185.08 166.34 186.01 165.31 185.94 164.10 L 185.89 163.15 C 185.82 161.95 184.79 161.02 183.59 161.09 C 182.38 161.15 181.45 162.19 181.52 163.39 Z M 181.57 164.33 L 181.62 165.30 C 181.68 166.51 182.71 167.44 183.92 167.37 C 185.12 167.31 186.05 166.28 185.99 165.08 L 185.94 164.11 C 185.88 162.90 184.85 161.97 183.64 162.03 C 182.44 162.09 181.51 163.12 181.57 164.33 Z M 181.62 165.29 L 181.67 166.30 C 181.72 167.51 182.75 168.44 183.96 168.39 C 185.16 168.33 186.10 167.30 186.04 166.10 L 185.99 165.09 C 185.94 163.88 184.91 162.95 183.70 163.00 C 182.50 163.06 181.56 164.08 181.62 165.29 Z M 181.67 166.29 L 181.71 167.35 C 181.76 168.56 182.78 169.50 183.99 169.45 C 185.20 169.40 186.13 168.38 186.08 167.17 L 186.04 166.11 C 185.99 164.90 184.97 163.96 183.76 164.01 C 182.55 164.06 181.62 165.08 181.67 166.29 Z M 181.71 167.34 L 181.75 168.41 C 181.79 169.62 182.80 170.57 184.01 170.52 C 185.22 170.48 186.17 169.47 186.12 168.26 L 186.09 167.19 C 186.04 165.98 185.03 165.03 183.82 165.07 C 182.61 165.12 181.67 166.13 181.71 167.34 Z M 181.75 168.40 L 181.78 169.40 C 181.81 170.61 182.82 171.56 184.03 171.52 C 185.24 171.49 186.19 170.48 186.16 169.27 L 186.13 168.27 C 186.09 167.06 185.08 166.11 183.87 166.14 C 182.66 166.18 181.71 167.19 181.75 168.40 Z M 181.77 169.39 L 181.80 170.42 C 181.83 171.63 182.84 172.59 184.05 172.56 C 185.26 172.52 186.22 171.52 186.18 170.31 L 186.16 169.28 C 186.12 168.07 185.12 167.11 183.91 167.14 C 182.70 167.18 181.74 168.18 181.77 169.39 Z M 181.80 170.42 L 181.83 171.46 C 181.85 172.67 182.86 173.62 184.07 173.60 C 185.28 173.57 186.24 172.56 186.21 171.35 L 186.19 170.31 C 186.16 169.10 185.15 168.14 183.94 168.17 C 182.73 168.20 181.77 169.20 181.80 170.42 Z M 181.82 171.45 L 181.85 172.48 C 181.87 173.69 182.87 174.65 184.08 174.63 C 185.29 174.60 186.26 173.60 186.23 172.39 L 186.21 171.36 C 186.19 170.15 185.18 169.19 183.97 169.21 C 182.76 169.24 181.80 170.24 181.82 171.45 Z M 181.84 172.48 L 181.86 173.48 C 181.88 174.69 182.88 175.66 184.10 175.64 C 185.31 175.61 186.27 174.61 186.25 173.40 L 186.23 172.40 C 186.21 171.19 185.21 170.22 184.00 170.24 C 182.79 170.26 181.82 171.26 181.84 172.48 Z M 181.86 173.47 L 181.88 174.43 C 181.89 175.65 182.89 176.61 184.10 176.60 C 185.32 176.58 186.29 175.58 186.27 174.37 L 186.25 173.41 C 186.23 172.19 185.24 171.23 184.02 171.25 C 182.81 171.26 181.84 172.26 181.86 173.47 Z M 181.87 174.43 L 181.89 175.46 C 181.90 176.67 182.90 177.64 184.11 177.63 C 185.33 177.61 186.30 176.61 186.28 175.40 L 186.27 174.37 C 186.25 173.16 185.26 172.19 184.04 172.20 C 182.83 172.22 181.86 173.21 181.87 174.43 Z M 181.89 175.45 L 181.90 176.59 C 181.91 177.80 182.90 178.78 184.12 178.77 C 185.33 178.75 186.30 177.76 186.29 176.55 L 186.28 175.41 C 186.27 174.20 185.28 173.22 184.06 173.23 C 182.85 173.24 181.88 174.24 181.89 175.45 Z M 181.90 176.58 L 181.90 177.61 C 181.91 178.82 182.90 179.80 184.11 179.79 C 185.33 179.78 186.31 178.79 186.30 177.58 L 186.29 176.56 C 186.28 175.34 185.30 174.36 184.08 174.37 C 182.87 174.38 181.89 175.37 181.90 176.58 Z M 181.90 177.60 L 181.91 178.54 C 181.91 179.75 182.90 180.73 184.11 180.73 C 185.32 180.73 186.30 179.74 186.30 178.53 L 186.30 177.59 C 186.29 176.37 185.31 175.39 184.09 175.40 C 182.88 175.40 181.90 176.39 181.90 177.60 Z M 181.91 178.53 L 181.91 179.42 C 181.91 180.63 182.89 181.61 184.11 181.61 C 185.32 181.61 186.30 180.63 186.30 179.41 L 186.30 178.53 C 186.30 177.32 185.32 176.33 184.10 176.33 C 182.89 176.34 181.90 177.32 181.91 178.53 Z M 181.91 179.41 L 181.91 180.36 C 181.91 181.57 182.89 182.55 184.10 182.55 C 185.32 182.55 186.30 181.57 186.30 180.36 L 186.30 179.41 C 186.30 178.20 185.32 177.22 184.10 177.22 C 182.89 177.22 181.91 178.20 181.91 179.41 Z M 181.91 180.36 L 181.91 181.37 C 181.91 182.58 182.89 183.57 184.10 183.57 C 185.32 183.57 186.30 182.58 186.30 181.37 L 186.30 180.36 C 186.30 179.14 185.32 178.16 184.10 178.16 C 182.89 178.16 181.91 179.14 181.91 180.36 Z M 181.91 181.37 L 181.91 182.37 C 181.91 183.58 182.89 184.57 184.10 184.57 C 185.32 184.57 186.30 183.58 186.30 182.37 L 186.30 181.37 C 186.30 180.16 185.32 179.17 184.10 179.17 C 182.89 179.17 181.91 180.16 181.91 181.37 Z M 181.90 182.37 L 181.90 183.35 C 181.90 184.57 182.89 185.55 184.10 185.55 C 185.32 185.55 186.30 184.57 186.30 183.35 L 186.30 182.37 C 186.30 181.15 185.32 180.17 184.10 180.17 C 182.89 180.17 181.90 181.15 181.90 182.37 Z M 181.90 183.35 L 181.90 184.34 C 181.90 185.56 182.89 186.54 184.10 186.54 C 185.32 186.54 186.30 185.56 186.30 184.34 L 186.30 183.35 C 186.30 182.14 185.32 181.15 184.10 181.15 C 182.89 181.15 181.90 182.14 181.90 183.35 Z M 181.90 184.34 L 181.90 185.34 C 181.90 186.55 182.89 187.54 184.10 187.54 C 185.32 187.54 186.31 186.55 186.31 185.34 L 186.31 184.34 C 186.31 183.12 185.32 182.14 184.10 182.14 C 182.89 182.14 181.90 183.12 181.90 184.34 Z M 181.90 185.34 L 181.90 186.33 C 181.90 187.55 182.89 188.53 184.10 188.53 C 185.32 188.53 186.31 187.55 186.31 186.33 L 186.31 185.34 C 186.31 184.12 185.32 183.13 184.10 183.13 C 182.89 183.13 181.90 184.12 181.90 185.34 Z M 181.90 186.33 L 181.90 187.33 C 181.90 188.55 182.89 189.54 184.10 189.54 C 185.32 189.54 186.31 188.55 186.31 187.33 L 186.31 186.33 C 186.31 185.11 185.32 184.12 184.10 184.12 C 182.89 184.12 181.90 185.11 181.90 186.33 Z M 181.90 187.33 L 181.90 188.36 C 181.90 189.58 182.88 190.56 184.10 190.56 C 185.32 190.56 186.31 189.58 186.31 188.36 L 186.31 187.33 C 186.31 186.11 185.32 185.13 184.10 185.13 C 182.88 185.13 181.90 186.11 181.90 187.33 Z M 181.89 188.36 L 181.89 189.38 C 181.89 190.60 182.88 191.59 184.10 191.59 C 185.33 191.59 186.32 190.60 186.32 189.38 L 186.32 188.36 C 186.32 187.13 185.33 186.14 184.10 186.14 C 182.88 186.14 181.89 187.13 181.89 188.36 Z M 181.89 189.38 L 181.89 190.39 C 181.89 191.62 182.88 192.61 184.10 192.61 C 185.33 192.61 186.32 191.62 186.32 190.39 L 186.32 189.38 C 186.32 188.16 185.33 187.17 184.10 187.17 C 182.88 187.17 181.89 188.16 181.89 189.38 Z M 181.88 190.39 L 181.88 191.37 C 181.88 192.59 182.88 193.59 184.10 193.59 C 185.33 193.59 186.32 192.59 186.32 191.37 L 186.32 190.39 C 186.32 189.17 185.33 188.17 184.10 188.17 C 182.88 188.17 181.88 189.17 181.88 190.39 Z M 181.88 191.37 L 181.88 192.38 C 181.88 193.61 182.88 194.60 184.10 194.60 C 185.33 194.60 186.33 193.61 186.33 192.38 L 186.33 191.37 C 186.33 190.14 185.33 189.14 184.10 189.14 C 182.88 189.14 181.88 190.14 181.88 191.37 Z M 181.87 192.38 L 181.87 193.38 C 181.87 194.61 182.87 195.61 184.10 195.61 C 185.34 195.61 186.34 194.61 186.34 193.38 L 186.34 192.38 C 186.34 191.15 185.34 190.15 184.10 190.15 C 182.87 190.15 181.87 191.15 181.87 192.38 Z M 181.87 193.38 L 181.87 194.36 C 181.87 195.59 182.87 196.59 184.10 196.59 C 185.34 196.59 186.34 195.59 186.34 194.36 L 186.34 193.38 C 186.34 192.14 185.34 191.14 184.10 191.14 C 182.87 191.14 181.87 192.14 181.87 193.38 Z M 181.86 194.35 L 181.86 195.33 C 181.86 196.57 182.86 197.58 184.10 197.58 C 185.35 197.58 186.35 196.57 186.35 195.33 L 186.35 194.36 C 186.35 193.11 185.35 192.11 184.10 192.11 C 182.86 192.11 181.86 193.11 181.86 194.35 Z M 181.84 195.31 L 181.83 196.29 C 181.82 197.54 182.82 198.56 184.07 198.58 C 185.33 198.59 186.35 197.58 186.36 196.33 L 186.37 195.35 C 186.38 194.10 185.38 193.08 184.13 193.06 C 182.87 193.05 181.85 194.06 181.84 195.31 Z M 181.81 196.21 L 181.76 197.22 C 181.71 198.48 182.69 199.55 183.96 199.60 C 185.22 199.65 186.29 198.67 186.34 197.41 L 186.38 196.41 C 186.44 195.14 185.46 194.07 184.19 194.02 C 182.93 193.97 181.86 194.95 181.81 196.21 Z M 181.75 197.08 L 181.65 198.10 C 181.52 199.37 182.45 200.51 183.72 200.63 C 184.99 200.76 186.13 199.83 186.25 198.56 L 186.36 197.54 C 186.48 196.27 185.55 195.14 184.28 195.01 C 183.01 194.88 181.88 195.81 181.75 197.08 Z M 181.66 197.90 L 181.46 198.98 C 181.22 200.25 182.05 201.46 183.32 201.70 C 184.58 201.94 185.80 201.11 186.04 199.84 L 186.24 198.76 C 186.48 197.50 185.65 196.28 184.38 196.04 C 183.12 195.80 181.90 196.63 181.66 197.90 Z M 181.53 198.66 L 181.20 199.66 C 180.78 200.88 181.44 202.21 182.66 202.62 C 183.89 203.03 185.21 202.38 185.63 201.15 L 185.96 200.16 C 186.38 198.94 185.72 197.61 184.50 197.19 C 183.27 196.78 181.94 197.44 181.53 198.66 Z M 181.44 199.13 L 180.95 199.88 C 180.25 200.97 180.55 202.42 181.64 203.13 C 182.73 203.84 184.18 203.53 184.89 202.44 L 185.38 201.68 C 186.09 200.60 185.78 199.14 184.69 198.44 C 183.60 197.73 182.15 198.04 181.44 199.13 Z M 181.76 199.14 L 181.02 199.56 C 179.90 200.20 179.51 201.63 180.15 202.75 C 180.79 203.87 182.21 204.26 183.33 203.62 L 184.08 203.19 C 185.20 202.55 185.59 201.13 184.95 200.01 C 184.31 198.89 182.88 198.50 181.76 199.14 Z M 182.14 199.29 L 181.18 199.31 C 179.91 199.33 178.90 200.38 178.92 201.64 C 178.94 202.91 179.99 203.92 181.26 203.90 L 182.21 203.88 C 183.48 203.86 184.49 202.82 184.47 201.55 C 184.45 200.28 183.40 199.27 182.14 199.29 Z M 181.82 199.44 L 180.79 199.16 C 179.59 198.82 178.36 199.52 178.03 200.72 C 177.69 201.91 178.39 203.15 179.59 203.48 L 180.62 203.77 C 181.81 204.10 183.05 203.40 183.38 202.20 C 183.71 201.01 183.01 199.77 181.82 199.44 Z M 181.06 199.36 L 180.20 198.97 C 179.12 198.49 177.85 198.98 177.37 200.06 C 176.88 201.14 177.37 202.41 178.45 202.90 L 179.31 203.28 C 180.40 203.76 181.67 203.28 182.15 202.19 C 182.63 201.11 182.15 199.84 181.06 199.36 Z M 180.30 199.20 L 179.47 198.73 C 178.51 198.19 177.30 198.53 176.76 199.49 C 176.22 200.45 176.56 201.67 177.52 202.21 L 178.35 202.67 C 179.31 203.21 180.53 202.87 181.07 201.91 C 181.61 200.95 181.26 199.73 180.30 199.20 Z M 179.48 198.92 L 178.60 198.36 C 177.75 197.82 176.62 198.07 176.07 198.92 C 175.53 199.78 175.78 200.91 176.63 201.45 L 177.51 202.01 C 178.36 202.56 179.50 202.31 180.04 201.45 C 180.59 200.60 180.34 199.47 179.48 198.92 Z M 178.57 198.49 L 177.69 197.90 C 176.91 197.38 175.85 197.59 175.32 198.37 C 174.80 199.15 175.01 200.21 175.79 200.74 L 176.66 201.32 C 177.45 201.85 178.51 201.64 179.03 200.86 C 179.56 200.08 179.35 199.02 178.57 198.49 Z M 177.68 197.95 L 176.85 197.38 C 176.09 196.87 175.06 197.06 174.54 197.82 C 174.03 198.58 174.22 199.61 174.98 200.12 L 175.81 200.69 C 176.56 201.21 177.59 201.01 178.11 200.25 C 178.63 199.50 178.43 198.47 177.68 197.95 Z M 176.85 197.40 L 176.00 196.81 C 175.25 196.29 174.22 196.48 173.71 197.23 C 173.19 197.98 173.38 199.01 174.13 199.53 L 174.97 200.11 C 175.72 200.63 176.75 200.44 177.27 199.69 C 177.79 198.94 177.60 197.91 176.85 197.40 Z M 176.01 196.82 L 175.18 196.24 C 174.43 195.72 173.40 195.90 172.88 196.64 C 172.36 197.39 172.54 198.41 173.29 198.93 L 174.12 199.52 C 174.87 200.04 175.89 199.86 176.41 199.11 C 176.93 198.37 176.75 197.34 176.01 196.82 Z M 175.18 196.25 L 174.37 195.67 C 173.63 195.15 172.61 195.32 172.08 196.06 C 171.56 196.79 171.73 197.82 172.47 198.34 L 173.28 198.92 C 174.02 199.45 175.04 199.27 175.57 198.53 C 176.09 197.80 175.92 196.77 175.18 196.25 Z M 174.38 195.68 L 173.50 195.05 C 172.77 194.51 171.75 194.68 171.21 195.41 C 170.68 196.14 170.85 197.17 171.58 197.70 L 172.46 198.33 C 173.19 198.86 174.21 198.70 174.74 197.97 C 175.27 197.23 175.11 196.21 174.38 195.68 Z M 173.51 195.05 L 172.72 194.47 C 172.00 193.93 170.97 194.09 170.43 194.82 C 169.90 195.54 170.05 196.57 170.78 197.11 L 171.57 197.69 C 172.30 198.22 173.32 198.07 173.86 197.34 C 174.39 196.62 174.24 195.59 173.51 195.05 Z M 172.73 194.48 L 171.99 193.92 C 171.27 193.38 170.24 193.53 169.70 194.25 C 169.16 194.98 169.31 196.00 170.03 196.55 L 170.77 197.10 C 171.50 197.64 172.52 197.49 173.06 196.77 C 173.60 196.04 173.46 195.02 172.73 194.48 Z M 171.99 193.92 L 171.85 193.82 C 171.12 193.27 170.10 193.42 169.56 194.14 C 169.01 194.87 169.16 195.89 169.88 196.44 L 170.03 196.54 C 170.75 197.09 171.78 196.94 172.32 196.22 C 172.86 195.49 172.72 194.47 171.99 193.92 Z"
      fill="black"
      fill-rule="nonzero" /></svg>