<svg xmlns="http://www.w3.org/2000/svg" version="1.0" width="937.000000pt" height="937.000000pt" viewBox="0 0 937.000000 937.000000" preserveAspectRatio="xMidYMid meet">
  <defs/>
  <path fill="#000000" d="M410.1,333.7 C408.5,335 407.7,337.3 407,341.7 C406.4,346.1 405.2,349.3 402.9,352.7 C401.1,355.3 385.1,372.1 367.3,390 C349.6,407.8 334.3,423.9 333.4,425.8 L331.8,429.2 L333.2,432.9 C335.2,438 340,439.6 349.5,438 C359.7,436.4 384.9,430.5 400.7,426 C408.3,423.8 415.1,422 415.8,422 C417.9,422 415.6,425.3 408.2,433.2 C399.3,442.6 390.8,448.6 383.4,450.5 C377.9,451.9 375,454 375,456.4 C375,457 366.6,459.2 356.2,461.3 C345.9,463.4 333.9,466.3 329.5,467.7 C313,473 307.2,484.2 313.3,499 C315.4,504.1 328.2,524 335.6,533.8 L338.9,538.1 L338.3,542.9 L337.8,547.8 L339.9,549.9 C342.4,552.4 346,552.6 352.4,550.4 C355,549.5 357.3,549 357.6,549.3 C357.9,549.5 354.6,559.8 350.4,572.1 C336.2,613.8 335.4,616.7 337.2,620.6 C338.6,623.7 342.4,625.2 345.5,624 C347.3,623.3 349.2,620.7 352,614.8 C354.2,610.3 356,605.8 356,604.9 C356,603.9 358.7,595.6 362.1,586.3 C365.5,577.1 369.8,564.7 371.7,558.7 C373.6,552.8 375.3,548 375.5,548 C376.5,548 378.2,556.9 380,571.5 C382.2,589.3 383.6,594.9 387.4,601.5 C393.6,611.9 401.5,616.8 417,619.7 L426.5,621.4 L496.3,621.2 L566.1,621.1 L570.4,619.2 C572.8,618.1 576,615.5 577.6,613.4 L580.5,609.6 L580.5,592.6 L580.4,575.5 L576.7,554 C570.3,516.1 569.7,511.8 569.5,496.5 C569.4,485.5 568.9,480.4 567.7,477.2 C566.8,474.9 565.6,469 564.9,464.2 C563.7,454.4 562,451 558.6,451 C554.7,451 552.7,454.2 553.4,459.3 L554.1,463.7 L544.3,464.4 C533.6,465.1 522.4,467.3 505.8,471.8 C499.8,473.5 495,474.3 495,473.8 C495,471.8 511.3,435.4 523.2,410.5 C531.5,393.3 535.2,384.5 535.2,382.1 C535.2,375.5 527,371.6 522.2,375.7 C517.8,379.5 494.1,433.7 480.6,470.6 L476.9,480.8 L471,482.4 C466.4,483.7 464.2,483.8 460.5,483 C452.5,481.2 447.2,486 449.6,492.7 C450.9,496.4 454.9,498.2 463.2,498.8 C466.9,499 470,499.4 470,499.6 C470,499.7 467.1,508.5 463.6,519.2 C455.8,542.6 446,575.2 446,577.7 C446,582.3 452.8,583.7 455.4,579.7 C456.2,578.5 458.9,570.6 461.5,562.2 C466.6,545.4 474.2,524.3 481.8,505.5 L486.6,493.6 L496.6,490.4 C517.2,483.7 530.1,480.8 541.2,480.3 L551.8,479.7 L552.9,483.6 C556.3,496 551.1,516.6 538.2,541.4 C529.7,557.8 519.8,566.9 513.7,563.8 C510.8,562.3 507.4,553.6 504.7,540.7 C503.3,534.3 501.7,528.3 501,527.5 C499.2,525.4 495.6,525.6 493.5,528 L491.6,530.1 L493.4,539.8 C495.9,552.9 500.2,566.3 503.5,570.5 C508.9,577.7 517.4,579.3 527,574.8 C537.7,569.9 545.4,561.2 554.5,543.9 L559.7,533.8 L560.4,538.2 C562.7,554.9 564.4,601 562.6,602.7 C562.2,603.1 548.7,603.8 532.7,604.1 C516.6,604.5 488,605.1 469,605.5 C422.7,606.5 411.2,605.2 404,598 C399.3,593.3 397.4,586.9 395.5,570 C393.8,554.1 392.5,547.2 389.8,541.1 C388.8,538.7 388.1,536.6 388.3,536.4 C388.4,536.2 393,534.2 398.5,532 C413.2,525.8 421,521.7 427.8,516.3 C434.3,511.3 435.5,509.3 434.5,506 C433.3,502.3 430.3,501.6 425.9,504 L421.9,506 L429.9,496.8 C434.3,491.7 439.4,484.8 441.2,481.5 L444.4,475.5 L444.5,469.3 C444.5,462.3 442.6,458.9 436.9,455.5 C434.2,453.9 431.1,453.4 421.7,453 L409.9,452.5 L415.7,447.7 C429.2,436.4 439,421.9 439,413.3 C439,407.8 437.8,405.5 434,403.5 C429.7,401.3 427.7,401.6 414.5,406.1 C402.3,410.2 360.1,421.4 359.3,420.7 C359.1,420.5 368.7,410.9 380.6,399.4 C405.8,375.1 417.8,362 420.9,355.4 C422.2,352.8 423.4,347.7 423.7,344 L424.3,337.2 L421.7,334.6 C418.6,331.5 413.3,331.1 410.1,333.7 Z M428.8,469.5 C429.9,470.5 426.9,477.8 423,483.9 C417.4,492.6 405.3,504.3 394.2,511.9 C389.1,515.3 384.7,518 384.4,517.8 C384.2,517.6 385.2,512.2 386.6,505.9 C388.7,497.1 389.2,491.9 389.2,482.8 L389.2,471.2 L398.9,470.1 C404.2,469.5 410.1,468.8 412,468.6 C416.2,468.1 428.1,468.7 428.8,469.5 Z M373.5,479.5 C373.2,482.5 372.8,487.5 372.5,490.6 C372,496.2 368.4,512.5 365.4,522.7 L363.8,528.2 L358.4,530.6 C351.7,533.5 351.3,533.6 348.9,530.7 C346.7,528.3 331.5,502.9 328.1,496.3 C325.5,491 325.3,488.5 327.8,489.5 C331.6,491.1 332.7,491 335.3,489 C337.1,487.6 338,485.9 338,484.1 L338,481.3 L352.8,478.2 C360.9,476.5 368.4,474.9 369.5,474.7 C374,473.7 374,473.8 373.5,479.5 Z"/>
</svg>

