<svg xmlns="http://www.w3.org/2000/svg" version="1.0" width="937.000000pt" height="937.000000pt" viewBox="0 0 937.000000 937.000000" preserveAspectRatio="xMidYMid meet">
  <defs/>
  <path fill="#000000" d="M535,350.9 C510.9,355.9 490.8,361.8 451.2,375.2 L418.8,386.1 L412.4,385.5 C407.4,384.9 405.5,385.1 403.6,386.3 C400.4,388.4 399.6,392.3 401.5,396 C403.3,399.5 408.3,401.1 417.4,401.2 L423.5,401.2 L461,388.7 C481.6,381.8 504.6,374.5 512,372.6 C526.2,368.9 550.1,363.8 550.7,364.3 C550.8,364.5 550.6,367.1 550,370.1 C547.1,386.6 546.7,402 546,505.5 L545.4,612.5 L543.2,620.9 C540.6,630.7 534.5,644.1 530.5,648.9 L527.6,652.2 L522.9,651.8 C513.2,650.8 481.7,632.9 465.5,619.1 C459.1,613.6 457.2,613 454.7,615.8 C451.7,619 452.7,621.5 459.2,627.5 C479.2,646.1 506.3,664.3 518.5,667.5 C536.7,672.2 550.4,657.5 559.2,623.7 L561.3,615.5 L562.1,508 C562.8,401.2 563.3,385.3 566.5,369.1 C568.7,358.1 568.5,354.6 565.3,351 C561,346.4 556.7,346.3 535,350.9 Z"/>
  <path fill="#000000" d="M459.5,425.1 C455.7,425.6 448.2,427.2 443,428.7 C437.8,430.1 428.8,432.6 423,434.1 C408.7,438 405.1,442 410.2,448.5 L412.3,451.2 L417.4,450.7 C420.2,450.4 429.6,447.8 438.3,445.1 C462.5,437.3 474.6,435.6 486.5,438.4 C493.2,440 495.6,439.3 496.6,435.4 C498.5,427.7 479.3,422.4 459.5,425.1 Z"/>
  <path fill="#000000" d="M430.5,485.1 C411.2,486.6 401.3,488.2 398.1,490.1 L395,492 L395,495.9 C395,498.1 395.6,500.3 396.5,501 C397.7,502 398,504.6 398,512.4 C398,528.7 404.5,567 408.5,575.1 C411.3,580.6 417.2,586 420.4,586 C423.5,586 426.4,582.7 425.7,579.8 L425.1,577.5 L434.3,577.4 C440.1,577.3 447.9,576.3 455.4,574.6 C462,573.1 476.6,570.4 487.9,568.4 C519.9,563 526.6,560.4 524.4,554.2 L523.4,551.5 L519,551.6 C506.4,552 480.5,554.1 473.5,555.4 C469.1,556.2 465.4,556.7 465.2,556.5 C465.1,556.4 468.4,553.7 472.7,550.4 C481.9,543.6 495.3,530.4 499.7,524 C504,517.6 505.3,512.7 504.7,505.9 C503.8,495.6 497.3,487.9 487.4,485.1 C482.9,483.9 445.9,483.8 430.5,485.1 Z M485.7,499.8 C488.7,501.4 490.2,504.5 490.2,508.6 C490.2,519.8 467.3,540 436.5,556.1 C422.4,563.4 421.3,564.2 420.4,568.4 L419.7,571.5 L418.3,567.5 C416.6,562.4 412.1,528.8 411.3,514.4 L410.7,503.2 L412.6,502.2 C414.2,501.4 424.7,500.4 450.5,498.6 C461.5,497.8 483.5,498.6 485.7,499.8 Z"/>
</svg>

