<svg xmlns="http://www.w3.org/2000/svg" version="1.0" width="937.000000pt" height="937.000000pt" viewBox="0 0 937.000000 937.000000" preserveAspectRatio="xMidYMid meet">
  <defs/>
  <path fill="#000000" d="M494,324.6 C469.4,327.6 439.5,331.6 427.2,333.6 C394,338.9 375.2,340.2 371.6,337.5 C370.5,336.7 368.7,336 367.6,336 C364.4,336 355.4,340.5 354.7,342.5 C352.5,348.1 355.3,354.3 360.7,355.6 C362.1,356 371.2,356 380.9,355.7 C398.6,355.1 410.8,353.5 446.5,347.1 C466.7,343.4 467,343.4 467,346 C467,347.1 468.1,348.7 469.4,349.5 L471.8,351.1 L489.2,344.5 C506.7,337.9 510,335.8 510,331.5 C510,326 504,323.4 494,324.6 Z"/>
  <path fill="#000000" d="M468.2,374.3 L466.1,376.6 L463.5,395.4 C461.1,412.8 455.8,440.3 452.7,451 L451.4,455.5 L447.5,456.8 C442.9,458.3 401.4,470 400.6,470 C400.3,470 401.7,468.5 403.7,466.6 C406.7,464 408.7,463.2 412.8,462.7 C420.6,461.8 425.4,459.2 425.8,455.7 C426,453.9 425.4,452 424.3,450.8 L422.5,448.8 L429.1,442.6 C436.6,435.8 443.6,427.1 445.6,422.3 C446.6,419.9 446.7,418.4 445.9,416.1 C444.6,412.4 442.4,411 437.7,411 C433.8,411 432.8,412 424.4,424 C421.2,428.7 415.3,435.9 411.4,440 L404.2,447.4 L402.5,446 C399.6,443.6 387,424.2 385.4,419.8 C384.6,417.6 384,414.1 384,412.1 C384,410 383.3,407.5 382.5,406.4 C381.5,405.1 381.1,401.8 381,395.4 L381,386.3 L379.2,384.7 C377.3,382.9 373.3,382.5 371.4,383.8 C363.7,388.8 349.2,451.5 323.6,590 C316.2,630.2 316.5,627.6 318.4,630.5 C319.6,632.3 320.9,633 323.4,633 C329.6,633 328.2,637.6 344,564 C347.9,546.1 352.4,525 354.1,517 C355.7,509 357.3,501.8 357.6,500.9 C357.9,499.7 359.6,499.1 363.3,498.8 C367.4,498.4 398.1,489.6 406,486.6 L407.5,486 L407.2,517.7 C406.9,537.8 406.4,550 405.7,550.8 C405.2,551.5 401.9,553.7 398.4,555.6 C390.9,559.8 382.7,561.1 379.5,558.7 L377.5,557.2 L377.2,534.8 L376.9,512.5 L375.3,510.7 C373.3,508.6 367.7,508.5 365.6,510.6 C363,513.1 362.8,515.9 363.2,537.7 L363.6,558.5 L365.3,562.5 C367.7,567.9 370.5,570.6 375.6,572.6 C381.8,575 392.8,574.1 400.3,570.7 L406,568.1 L406,569.8 C406,570.7 405.5,580.3 404.9,591.1 C403.6,612.5 404,617.4 407.1,619.1 C409.7,620.4 413.6,619.5 414.4,617.4 C415.2,615.4 419.7,583.4 421.5,567.6 L422.8,555.8 L428.3,550.1 C431.3,547 435.8,541.9 438.3,538.8 L442.9,533.1 L444,538.5 C444.6,541.5 444.8,545.9 444.5,548.4 C443.6,554.1 444.5,556.9 447.7,558.1 C452.4,559.9 457.8,553.8 459.5,544.8 C460.9,537.3 455.9,516.3 451.6,511.7 C449.7,509.6 448.1,509 445.2,509 C440,509 438,510.8 432.9,520 C430.6,524.1 427.5,529 426.1,530.9 L423.5,534.4 L423,510.3 L422.5,486.2 L420.6,484.1 C419.1,482.5 419,481.9 420.1,481.5 C420.9,481.3 428,478.8 436,476 L450.5,470.9 L454.1,472 L457.6,473.2 L461.1,471.7 C465,470.1 481.9,457 502.5,439.7 C510.2,433.3 517.1,428 517.8,428 L519.1,428 L518.8,454.3 L518.5,480.7 L515.3,485.9 C511.5,491.9 511.2,494 513.8,496.3 C519.5,501.5 530.1,492.4 532.9,480 C534.7,471.8 537.2,438.7 536.6,431 C535.8,420.7 534.4,416.4 530.5,412.2 L527.2,408.5 L521.8,408.5 L516.5,408.5 L510,412.9 C506.4,415.3 497.9,422.1 491,427.9 C472.8,443.4 471.6,444.3 471.2,443.2 C471,442.6 472.1,436.7 473.5,429.9 C476.2,417 482,382.3 482,378.9 C482,377.8 480.9,375.8 479.5,374.5 C476.3,371.2 471.2,371.1 468.2,374.3 Z M378.3,437.2 C380.8,440.7 385.5,446.1 388.9,449.3 C392.2,452.5 395,455.3 395,455.5 C395,456.8 364.2,480 362.5,480 C362.2,480 362.2,479 362.5,477.7 C364.5,468.3 373.4,431 373.6,431 C373.7,431 375.8,433.8 378.3,437.2 Z"/>
  <path fill="#000000" d="M478.2,465.7 C477.5,466 476.3,467.4 475.5,469 L474.1,471.8 L475.1,478.1 C476.5,486.3 475.7,493.3 471.5,513.3 C464.8,544.6 456.1,573.9 449.9,586.3 L447,592 L443.2,591.4 C440.3,591 439.1,591.2 437.8,592.7 C434.6,596.3 432.9,607.1 435,611 C435.6,612.1 437.8,613.4 439.9,614.1 L443.7,615.2 L446.6,613.7 C455.4,609.1 465.8,592.7 473.1,571.7 C474.4,568 475.9,565.2 476.5,565.4 C477,565.7 485.8,569.7 496,574.3 C559.7,603.2 612.4,625.6 623.8,628.5 C632.3,630.8 635.6,630.5 637.7,627.4 L639.4,624.8 L637.9,622.3 C636.9,620.5 634.3,618.9 629,617 C624.9,615.5 608.7,608.1 593,600.6 C560.7,585 529.2,570.5 505,560 C495.9,556 487.8,552.2 486.9,551.4 C486.1,550.7 484.8,547.8 484.1,545.1 L482.9,540.2 L485.9,527.9 C490.8,507.8 493,495.6 493,488.7 C493,481.2 489.8,469.8 486.9,466.9 C485.1,465.1 481.1,464.5 478.2,465.7 Z"/>
</svg>

