<svg xmlns="http://www.w3.org/2000/svg" version="1.0" width="937.000000pt" height="937.000000pt" viewBox="0 0 937.000000 937.000000" preserveAspectRatio="xMidYMid meet">
  <defs/>
  <path fill="#000000" d="M476.3,309.3 C473.5,310.9 468,317.2 459,329.5 C455,335 443.3,350.1 433,363 C393.4,413.1 390,417.5 390,419.7 C390,423 394.4,425.6 397.5,424.2 L399.9,423.1 L401,426.4 C401.6,428.2 404.4,432.4 407.3,435.6 C410.2,438.9 419.2,449.4 427.1,459 L441.7,476.6 L438.8,479.2 C437.3,480.6 436,482.7 436,483.9 C436,487.4 440.3,491 444.5,491 C446.4,491 448,491.2 448,491.5 C448,491.8 445.9,496.2 443.4,501.3 C438,512.1 431,523 429.5,523 C419.7,523 373.9,529 359.1,532.2 C343,535.6 321.8,544.1 316.3,549.2 C313.2,552.1 313.3,557 316.5,560 L318.9,562.3 L326.2,561.7 L333.5,561.1 L335.7,558.5 C339.7,553.9 354.5,549.8 382,545.6 C391.1,544.3 401.2,542.8 404.6,542.5 L410.7,541.8 L411.3,544.9 C412.7,551.6 419.6,551.4 429.1,544.3 L435.4,539.7 L448.4,538.4 C455.6,537.7 470.4,536.2 481.2,535 C492.1,533.9 501.6,533 502.4,533 C503.3,533 504,534.6 504.4,537.2 C505.8,547.1 509,585.4 510.5,610 C513.4,659 513.9,665.2 515.1,666.6 C516.6,668.4 521.4,668.4 523,666.5 C523.9,665.4 523.9,657.1 523.1,629.3 C521.2,568.2 520.3,531.5 520.6,531.1 C520.8,530.9 527.7,529.9 536,528.9 C557.7,526.2 578.5,523.2 583.5,521.9 C591.3,519.9 594.4,514.5 590,510.5 C588.5,509.1 585.2,508.4 577.2,507.7 C564.5,506.5 561.3,507.1 560.4,510.5 C560,512.2 559.1,513 557.6,513 C556.5,513 547.4,513.7 537.5,514.5 C527.6,515.2 519.5,515.8 519.4,515.7 C519.3,515.6 518.7,511.7 518,507 C516.6,496 513.7,486.3 510.6,482.5 L508.3,479.6 L509.3,476.7 C511.4,470.6 505.4,465.5 497.4,466.6 L493.5,467.1 L496,465.3 C507.6,456.9 516,443.9 522.6,424 L525.4,415.5 L525.5,398.5 L525.5,381.5 L523.2,376.8 C519.8,369.9 516.1,367.6 507.4,367.2 C493.5,366.5 473.4,372.8 455.1,383.7 C438.9,393.3 433.8,400.8 435.5,412.4 C436.5,418.8 438.8,421.4 443.5,421.4 C448.9,421.4 451,418.5 451,410.9 L451,405.1 L457.4,400.5 C471.3,390.6 488.5,383.4 500.7,382.3 L507.9,381.7 L509.1,384.6 C509.8,386.4 510.3,392.6 510.3,400.5 L510.2,413.5 L507.6,423.4 C506.2,428.9 503.7,436.3 502,439.9 C498.9,446.5 492.2,455.6 491.2,454.5 C490.9,454.2 492,452.5 493.7,450.7 C499.7,444.3 501.3,439.6 499.4,434.5 C498.4,432.1 493.6,430 488.9,430 L484.8,430 L485.4,426.7 C488.4,412 488.3,401.2 485.3,397.7 C484.4,396.8 482.3,396 480.5,396 C478.7,396 476.6,396.8 475.8,397.7 C474.9,398.8 473.1,405.7 471.6,414 C470.1,422 468.5,430.1 467.9,432.2 L467,435.8 L459.8,437 C455.9,437.7 450.9,437.9 448.6,437.6 C446.4,437.2 442.4,436.6 439.8,436.3 L435.1,435.8 L432.7,438.4 L430.3,441 L423.9,432.9 C414.6,421.2 414,420 414,415 C414,412.4 413.5,409.9 412.8,409.2 C412.1,408.5 412,407.7 412.7,406.8 C429.5,384.7 448,363.4 470.7,339.8 C479.5,330.7 487.3,321.8 488,320.1 L489.2,317 L488,314 C486.8,311 482.5,308 479.8,308 C479.1,308.1 477.5,308.6 476.3,309.3 Z M462,453 C462,453.3 460.8,457 459.4,461.3 C457.4,467.3 456.2,469.4 454.3,470.3 C452.7,471 451.6,471.1 451.2,470.4 C450.8,469.8 448.9,467.4 446.9,464.9 C444.9,462.5 442.1,458.7 440.8,456.5 L438.3,452.5 L450.1,452.5 C456.7,452.5 462,452.7 462,453 Z M486.5,484 C486.1,485.3 486.5,487.1 487.5,488.6 C488.8,490.7 489.8,491.1 492.2,490.8 L495.2,490.3 L497,494.4 C498.8,498.4 502.2,516.1 501.4,516.9 C501.2,517.1 493.3,517.9 483.8,518.6 C474.3,519.4 462.6,520.3 457.7,520.6 L449,521.3 L452.6,515.4 C456.7,508.6 466,489.7 466,488.2 C466,487.6 467.7,486.6 469.8,486.1 C471.8,485.6 476,484.5 479,483.6 C486.7,481.6 487.3,481.6 486.5,484 Z"/>
</svg>

