<svg xmlns="http://www.w3.org/2000/svg" width="300" height="300" viewBox="0 0 300 300">
<path d="M 138.84 121.47 L 137.96 121.96 C 136.88 122.56 136.50 123.92 137.09 125.00 C 137.69 126.07 139.05 126.46 140.13 125.86 L 141.01 125.38 C 142.08 124.78 142.47 123.42 141.87 122.34 C 141.27 121.26 139.92 120.88 138.84 121.47 Z M 137.99 122.02 L 137.11 122.51 C 136.07 123.10 135.70 124.42 136.28 125.46 C 136.86 126.50 138.18 126.88 139.23 126.29 L 140.10 125.80 C 141.14 125.22 141.52 123.90 140.93 122.86 C 140.35 121.81 139.03 121.44 137.99 122.02 Z M 137.14 122.58 L 136.27 123.07 C 135.26 123.64 134.91 124.92 135.48 125.92 C 136.05 126.93 137.33 127.29 138.34 126.72 L 139.20 126.23 C 140.21 125.66 140.56 124.38 139.99 123.37 C 139.42 122.36 138.15 122.01 137.14 122.58 Z M 136.28 123.11 L 135.45 123.59 C 134.47 124.15 134.13 125.41 134.69 126.39 C 135.26 127.37 136.51 127.71 137.50 127.15 L 138.33 126.67 C 139.31 126.11 139.65 124.85 139.09 123.87 C 138.52 122.89 137.27 122.55 136.28 123.11 Z M 135.46 123.60 L 134.61 124.09 C 133.64 124.65 133.31 125.90 133.87 126.87 C 134.43 127.85 135.67 128.18 136.65 127.62 L 137.49 127.13 C 138.46 126.57 138.80 125.33 138.24 124.35 C 137.68 123.38 136.43 123.04 135.46 123.60 Z M 134.63 124.10 L 133.73 124.61 C 132.76 125.16 132.43 126.40 132.98 127.37 C 133.53 128.34 134.77 128.68 135.74 128.12 L 136.63 127.61 C 137.60 127.06 137.94 125.82 137.39 124.85 C 136.83 123.88 135.60 123.54 134.63 124.10 Z M 133.75 124.61 L 132.89 125.09 C 131.92 125.63 131.58 126.86 132.12 127.83 C 132.67 128.80 133.89 129.14 134.86 128.60 L 135.72 128.12 C 136.69 127.58 137.03 126.35 136.49 125.38 C 135.95 124.41 134.72 124.07 133.75 124.61 Z M 132.91 125.09 L 132.06 125.56 C 131.10 126.10 130.75 127.31 131.28 128.28 C 131.82 129.25 133.04 129.60 134.01 129.07 L 134.85 128.60 C 135.82 128.06 136.17 126.84 135.63 125.88 C 135.09 124.91 133.87 124.56 132.91 125.09 Z M 132.07 125.56 L 131.18 126.06 C 130.22 126.59 129.87 127.81 130.40 128.77 C 130.94 129.74 132.15 130.08 133.12 129.55 L 134.00 129.06 C 134.97 128.53 135.32 127.31 134.78 126.34 C 134.25 125.38 133.03 125.03 132.07 125.56 Z M 131.18 126.07 L 130.26 126.58 C 129.30 127.12 128.96 128.33 129.50 129.29 C 130.04 130.25 131.25 130.59 132.21 130.05 L 133.12 129.54 C 134.08 129.00 134.43 127.79 133.89 126.83 C 133.35 125.87 132.14 125.53 131.18 126.07 Z M 130.25 126.59 L 129.36 127.10 C 128.41 127.64 128.08 128.86 128.62 129.81 C 129.17 130.76 130.38 131.09 131.33 130.55 L 132.22 130.04 C 133.17 129.49 133.50 128.28 132.96 127.33 C 132.42 126.38 131.20 126.05 130.25 126.59 Z M 129.35 127.11 L 128.49 127.62 C 127.54 128.17 127.22 129.38 127.77 130.32 C 128.32 131.27 129.54 131.59 130.48 131.04 L 131.34 130.53 C 132.29 129.98 132.61 128.77 132.06 127.83 C 131.51 126.88 130.29 126.56 129.35 127.11 Z M 128.48 127.63 L 127.62 128.14 C 126.68 128.69 126.36 129.90 126.92 130.84 C 127.47 131.78 128.68 132.09 129.62 131.54 L 130.49 131.03 C 131.43 130.47 131.74 129.26 131.18 128.32 C 130.63 127.38 129.42 127.07 128.48 127.63 Z M 127.61 128.14 L 126.75 128.65 C 125.82 129.21 125.51 130.42 126.06 131.35 C 126.62 132.29 127.82 132.60 128.76 132.04 L 129.62 131.53 C 130.56 130.97 130.87 129.77 130.31 128.83 C 129.76 127.90 128.55 127.59 127.61 128.14 Z M 126.75 128.66 L 125.90 129.16 C 124.97 129.72 124.66 130.92 125.21 131.85 C 125.77 132.79 126.97 133.09 127.90 132.54 L 128.76 132.04 C 129.69 131.48 130.00 130.28 129.44 129.35 C 128.89 128.41 127.69 128.11 126.75 128.66 Z M 125.91 129.17 L 125.10 129.64 C 124.17 130.19 123.86 131.39 124.41 132.33 C 124.96 133.26 126.16 133.57 127.09 133.02 L 127.90 132.54 C 128.83 131.99 129.14 130.79 128.59 129.86 C 128.04 128.93 126.84 128.62 125.91 129.17 Z M 125.10 129.65 L 124.28 130.13 C 123.35 130.68 123.04 131.88 123.59 132.81 C 124.14 133.74 125.33 134.05 126.26 133.50 L 127.09 133.01 C 128.02 132.46 128.33 131.27 127.78 130.34 C 127.23 129.41 126.03 129.10 125.10 129.65 Z M 124.27 130.14 L 123.42 130.65 C 122.49 131.20 122.19 132.40 122.74 133.32 C 123.29 134.25 124.49 134.55 125.41 134.00 L 126.27 133.49 C 127.19 132.94 127.50 131.75 126.95 130.82 C 126.40 129.89 125.20 129.59 124.27 130.14 Z M 123.41 130.66 L 122.51 131.20 C 121.58 131.76 121.29 132.95 121.84 133.87 C 122.39 134.79 123.59 135.09 124.51 134.54 L 125.42 133.99 C 126.34 133.44 126.64 132.24 126.08 131.32 C 125.53 130.40 124.33 130.10 123.41 130.66 Z M 122.50 131.21 L 121.60 131.76 C 120.68 132.32 120.39 133.51 120.95 134.43 C 121.51 135.35 122.70 135.64 123.62 135.08 L 124.52 134.53 C 125.44 133.97 125.73 132.78 125.17 131.86 C 124.61 130.94 123.41 130.65 122.50 131.21 Z M 121.59 131.77 L 120.72 132.31 C 119.81 132.87 119.53 134.06 120.09 134.98 C 120.65 135.89 121.85 136.17 122.76 135.61 L 123.63 135.07 C 124.54 134.51 124.82 133.31 124.26 132.40 C 123.70 131.49 122.50 131.20 121.59 131.77 Z M 120.71 132.31 L 119.83 132.87 C 118.92 133.44 118.64 134.63 119.21 135.54 C 119.78 136.45 120.98 136.72 121.89 136.15 L 122.77 135.60 C 123.68 135.03 123.95 133.83 123.38 132.93 C 122.81 132.02 121.62 131.74 120.71 132.31 Z M 119.81 132.88 L 118.94 133.43 C 118.04 134.01 117.78 135.21 118.35 136.11 C 118.93 137.01 120.13 137.28 121.03 136.70 L 121.90 136.14 C 122.80 135.57 123.06 134.37 122.49 133.47 C 121.91 132.57 120.71 132.30 119.81 132.88 Z M 118.93 133.45 L 118.10 133.99 C 117.20 134.57 116.95 135.77 117.53 136.67 C 118.12 137.56 119.32 137.81 120.21 137.23 L 121.04 136.69 C 121.94 136.10 122.19 134.90 121.61 134.01 C 121.02 133.11 119.82 132.86 118.93 133.45 Z M 118.08 134.00 L 117.31 134.52 C 116.43 135.11 116.19 136.32 116.79 137.20 C 117.39 138.09 118.59 138.32 119.47 137.73 L 120.24 137.21 C 121.12 136.62 121.36 135.41 120.76 134.53 C 120.16 133.64 118.96 133.41 118.08 134.00 Z M 117.24 134.53 L 116.18 135.30 C 115.30 135.94 115.11 137.17 115.75 138.05 C 116.38 138.92 117.61 139.12 118.49 138.48 L 119.55 137.71 C 120.43 137.07 120.62 135.84 119.98 134.97 C 119.34 134.09 118.12 133.90 117.24 134.53 Z M 115.94 135.42 L 115.21 136.11 C 114.40 136.88 114.37 138.16 115.13 138.97 C 115.90 139.79 117.19 139.82 118.00 139.05 L 118.73 138.36 C 119.54 137.59 119.57 136.31 118.81 135.50 C 118.04 134.69 116.76 134.65 115.94 135.42 Z M 114.76 136.61 L 114.41 137.27 C 113.88 138.29 114.27 139.55 115.29 140.09 C 116.31 140.62 117.58 140.23 118.11 139.21 L 118.45 138.55 C 118.99 137.53 118.59 136.27 117.57 135.73 C 116.55 135.20 115.29 135.59 114.76 136.61 Z M 114.16 138.54 L 114.26 139.28 C 114.43 140.44 115.51 141.25 116.67 141.09 C 117.83 140.92 118.64 139.84 118.47 138.68 L 118.37 137.94 C 118.20 136.78 117.12 135.97 115.96 136.13 C 114.80 136.30 113.99 137.38 114.16 138.54 Z M 114.52 140.04 L 115.00 140.88 C 115.58 141.91 116.89 142.26 117.91 141.67 C 118.94 141.09 119.29 139.78 118.70 138.76 L 118.22 137.92 C 117.63 136.90 116.33 136.54 115.31 137.13 C 114.28 137.72 113.93 139.02 114.52 140.04 Z M 115.03 140.95 L 115.62 141.90 C 116.24 142.91 117.56 143.22 118.57 142.60 C 119.57 141.98 119.88 140.66 119.26 139.65 L 118.67 138.70 C 118.05 137.69 116.73 137.38 115.73 138.00 C 114.72 138.62 114.41 139.94 115.03 140.95 Z M 115.49 141.65 L 115.87 142.50 C 116.35 143.58 117.61 144.07 118.69 143.59 C 119.77 143.11 120.26 141.85 119.78 140.77 L 119.39 139.91 C 118.91 138.83 117.65 138.35 116.57 138.83 C 115.49 139.30 115.01 140.57 115.49 141.65 Z M 115.78 142.25 L 116.06 143.17 C 116.40 144.30 117.59 144.94 118.71 144.60 C 119.84 144.26 120.48 143.07 120.14 141.94 L 119.86 141.02 C 119.52 139.90 118.34 139.26 117.21 139.60 C 116.08 139.93 115.44 141.12 115.78 142.25 Z M 116.02 142.98 L 116.23 143.99 C 116.46 145.14 117.59 145.88 118.73 145.64 C 119.88 145.41 120.62 144.29 120.39 143.14 L 120.18 142.13 C 119.94 140.98 118.82 140.24 117.67 140.48 C 116.52 140.71 115.79 141.84 116.02 142.98 Z M 116.21 143.87 L 116.37 144.94 C 116.54 146.09 117.61 146.90 118.77 146.73 C 119.92 146.56 120.72 145.49 120.56 144.33 L 120.40 143.26 C 120.23 142.11 119.16 141.30 118.00 141.47 C 116.85 141.64 116.05 142.71 116.21 143.87 Z M 116.36 144.87 L 116.47 145.84 C 116.60 147.00 117.64 147.84 118.80 147.71 C 119.96 147.59 120.80 146.54 120.67 145.38 L 120.56 144.41 C 120.43 143.25 119.39 142.41 118.23 142.54 C 117.07 142.66 116.24 143.71 116.36 144.87 Z M 116.47 145.79 L 116.55 146.80 C 116.65 147.96 117.67 148.82 118.83 148.73 C 120.00 148.63 120.86 147.60 120.76 146.44 L 120.67 145.43 C 120.57 144.27 119.55 143.41 118.39 143.51 C 117.23 143.61 116.37 144.63 116.47 145.79 Z M 116.55 146.76 L 116.62 147.77 C 116.69 148.94 117.70 149.82 118.86 149.74 C 120.02 149.67 120.90 148.66 120.83 147.50 L 120.76 146.48 C 120.69 145.32 119.68 144.44 118.52 144.52 C 117.35 144.59 116.47 145.60 116.55 146.76 Z M 116.61 147.74 L 116.66 148.74 C 116.72 149.90 117.71 150.80 118.87 150.74 C 120.04 150.69 120.93 149.70 120.88 148.53 L 120.83 147.53 C 120.77 146.37 119.78 145.47 118.62 145.53 C 117.46 145.58 116.56 146.57 116.61 147.74 Z M 116.66 148.70 L 116.69 149.72 C 116.73 150.88 117.71 151.80 118.87 151.76 C 120.04 151.72 120.95 150.74 120.91 149.58 L 120.88 148.56 C 120.84 147.40 119.87 146.49 118.70 146.52 C 117.53 146.56 116.62 147.54 116.66 148.70 Z M 116.69 149.69 L 116.71 150.69 C 116.73 151.86 117.70 152.79 118.86 152.76 C 120.03 152.74 120.96 151.78 120.94 150.61 L 120.92 149.61 C 120.89 148.44 119.93 147.51 118.76 147.53 C 117.60 147.56 116.67 148.52 116.69 149.69 Z M 116.71 150.67 L 116.71 151.65 C 116.72 152.82 117.68 153.76 118.85 153.75 C 120.02 153.74 120.96 152.79 120.95 151.62 L 120.94 150.63 C 120.93 149.46 119.97 148.52 118.80 148.53 C 117.64 148.54 116.70 149.50 116.71 150.67 Z M 116.71 151.64 L 116.71 152.63 C 116.72 153.80 117.67 154.75 118.84 154.74 C 120.01 154.74 120.96 153.79 120.95 152.62 L 120.95 151.63 C 120.95 150.46 120.00 149.51 118.83 149.51 C 117.66 149.52 116.71 150.47 116.71 151.64 Z M 116.71 152.62 L 116.71 153.60 C 116.71 154.77 117.66 155.72 118.83 155.72 C 120.01 155.72 120.96 154.77 120.96 153.60 L 120.96 152.62 C 120.96 151.45 120.01 150.50 118.83 150.50 C 117.66 150.50 116.71 151.45 116.71 152.62 Z M 116.71 153.60 L 116.71 154.57 C 116.71 155.75 117.66 156.70 118.83 156.70 C 120.01 156.70 120.96 155.75 120.96 154.57 L 120.96 153.60 C 120.96 152.42 120.01 151.47 118.83 151.47 C 117.66 151.47 116.71 152.42 116.71 153.60 Z M 116.71 154.57 L 116.71 155.57 C 116.71 156.74 117.66 157.70 118.83 157.70 C 120.01 157.70 120.96 156.74 120.96 155.57 L 120.96 154.57 C 120.96 153.40 120.01 152.45 118.83 152.45 C 117.66 152.45 116.71 153.40 116.71 154.57 Z M 116.71 155.57 L 116.71 156.59 C 116.71 157.77 117.66 158.72 118.83 158.72 C 120.01 158.72 120.96 157.77 120.96 156.59 L 120.96 155.57 C 120.96 154.40 120.01 153.44 118.83 153.44 C 117.66 153.44 116.71 154.40 116.71 155.57 Z M 116.71 156.59 L 116.71 157.62 C 116.71 158.80 117.66 159.75 118.83 159.75 C 120.01 159.75 120.96 158.80 120.96 157.62 L 120.96 156.59 C 120.96 155.42 120.01 154.46 118.83 154.46 C 117.66 154.46 116.71 155.42 116.71 156.59 Z M 116.71 157.62 L 116.71 158.61 C 116.70 159.79 117.66 160.74 118.83 160.74 C 120.01 160.74 120.96 159.79 120.96 158.62 L 120.96 157.63 C 120.96 156.45 120.01 155.50 118.84 155.50 C 117.66 155.49 116.71 156.45 116.71 157.62 Z M 116.71 158.61 L 116.70 159.61 C 116.70 160.78 117.65 161.74 118.82 161.74 C 120.00 161.75 120.95 160.80 120.96 159.62 L 120.96 158.62 C 120.97 157.45 120.02 156.49 118.84 156.49 C 117.67 156.48 116.71 157.43 116.71 158.61 Z M 116.70 159.59 L 116.69 160.60 C 116.68 161.77 117.62 162.73 118.80 162.75 C 119.97 162.76 120.93 161.82 120.94 160.64 L 120.96 159.64 C 120.97 158.46 120.03 157.50 118.85 157.49 C 117.68 157.48 116.71 158.42 116.70 159.59 Z M 116.69 160.58 L 116.67 161.58 C 116.65 162.76 117.58 163.73 118.76 163.75 C 119.93 163.77 120.90 162.84 120.92 161.67 L 120.94 160.66 C 120.97 159.49 120.03 158.52 118.86 158.49 C 117.69 158.47 116.72 159.40 116.69 160.58 Z M 116.68 161.56 L 116.65 162.56 C 116.61 163.73 117.53 164.71 118.70 164.75 C 119.87 164.79 120.85 163.87 120.89 162.70 L 120.92 161.69 C 120.96 160.52 120.04 159.54 118.87 159.50 C 117.70 159.47 116.72 160.39 116.68 161.56 Z M 116.66 162.53 L 116.62 163.54 C 116.56 164.70 117.46 165.68 118.63 165.74 C 119.79 165.79 120.77 164.89 120.83 163.73 L 120.87 162.72 C 120.92 161.56 120.02 160.58 118.86 160.52 C 117.70 160.47 116.71 161.37 116.66 162.53 Z M 116.64 163.52 L 116.58 164.52 C 116.52 165.67 117.40 166.65 118.55 166.71 C 119.70 166.78 120.69 165.90 120.75 164.75 L 120.81 163.75 C 120.87 162.60 119.99 161.61 118.84 161.55 C 117.68 161.48 116.70 162.37 116.64 163.52 Z M 116.60 164.50 L 116.54 165.50 C 116.47 166.64 117.34 167.62 118.48 167.69 C 119.62 167.76 120.60 166.89 120.67 165.75 L 120.73 164.76 C 120.80 163.62 119.93 162.64 118.79 162.57 C 117.65 162.50 116.67 163.36 116.60 164.50 Z M 116.56 165.49 L 116.50 166.48 C 116.42 167.61 117.28 168.59 118.40 168.66 C 119.53 168.74 120.51 167.88 120.58 166.75 L 120.65 165.76 C 120.72 164.63 119.87 163.66 118.74 163.58 C 117.61 163.51 116.63 164.36 116.56 165.49 Z M 116.51 166.48 L 116.44 167.47 C 116.37 168.59 117.22 169.56 118.34 169.64 C 119.46 169.71 120.43 168.86 120.50 167.74 L 120.57 166.75 C 120.64 165.63 119.80 164.66 118.67 164.59 C 117.55 164.51 116.58 165.36 116.51 166.48 Z M 116.45 167.47 L 116.38 168.46 C 116.31 169.58 117.16 170.55 118.27 170.62 C 119.39 170.69 120.36 169.85 120.43 168.73 L 120.50 167.74 C 120.57 166.62 119.73 165.66 118.61 165.58 C 117.49 165.51 116.52 166.36 116.45 167.47 Z M 116.39 168.46 L 116.32 169.46 C 116.25 170.57 117.09 171.54 118.21 171.61 C 119.32 171.68 120.29 170.84 120.36 169.73 L 120.43 168.73 C 120.50 167.62 119.66 166.65 118.54 166.58 C 117.43 166.51 116.46 167.35 116.39 168.46 Z M 116.33 169.46 L 116.26 170.46 C 116.19 171.58 117.03 172.54 118.14 172.61 C 119.26 172.68 120.22 171.84 120.29 170.73 L 120.35 169.72 C 120.43 168.61 119.59 167.65 118.47 167.58 C 117.36 167.51 116.40 168.35 116.33 169.46 Z M 116.27 170.47 L 116.20 171.48 C 116.13 172.59 116.97 173.54 118.08 173.62 C 119.19 173.69 120.15 172.85 120.22 171.74 L 120.28 170.73 C 120.36 169.62 119.52 168.66 118.41 168.59 C 117.30 168.52 116.34 169.36 116.27 170.47 Z M 116.21 171.48 L 116.14 172.49 C 116.07 173.60 116.91 174.56 118.02 174.63 C 119.12 174.70 120.08 173.86 120.15 172.75 L 120.21 171.74 C 120.28 170.63 119.44 169.68 118.34 169.61 C 117.23 169.53 116.28 170.37 116.21 171.48 Z M 116.15 172.50 L 116.08 173.51 C 116.01 174.61 116.85 175.57 117.95 175.64 C 119.06 175.71 120.01 174.87 120.08 173.77 L 120.14 172.75 C 120.21 171.65 119.38 170.70 118.27 170.63 C 117.17 170.55 116.22 171.39 116.15 172.50 Z M 116.09 173.51 L 116.02 174.51 C 115.95 175.61 116.79 176.56 117.89 176.64 C 118.99 176.71 119.94 175.87 120.01 174.77 L 120.07 173.77 C 120.14 172.67 119.31 171.72 118.21 171.65 C 117.11 171.57 116.16 172.41 116.09 173.51 Z M 116.03 174.51 L 115.96 175.49 C 115.89 176.59 116.72 177.54 117.82 177.61 C 118.92 177.68 119.86 176.85 119.94 175.76 L 120.00 174.77 C 120.07 173.68 119.24 172.73 118.15 172.66 C 117.05 172.58 116.10 173.41 116.03 174.51 Z M 115.97 175.49 L 115.90 176.50 C 115.82 177.59 116.65 178.54 117.74 178.61 C 118.84 178.69 119.79 177.86 119.86 176.77 L 119.93 175.76 C 120.01 174.67 119.18 173.72 118.09 173.64 C 116.99 173.57 116.04 174.39 115.97 175.49 Z M 115.90 176.49 L 115.83 177.54 C 115.75 178.64 116.58 179.58 117.67 179.66 C 118.76 179.74 119.71 178.91 119.78 177.82 L 119.86 176.77 C 119.93 175.68 119.11 174.73 118.02 174.66 C 116.93 174.58 115.98 175.40 115.90 176.49 Z M 115.83 177.55 L 115.77 178.55 C 115.69 179.64 116.52 180.58 117.61 180.66 C 118.70 180.73 119.64 179.91 119.71 178.82 L 119.78 177.82 C 119.85 176.73 119.03 175.78 117.94 175.71 C 116.85 175.64 115.91 176.46 115.83 177.55 Z M 115.77 178.57 L 115.71 179.52 C 115.65 180.61 116.48 181.55 117.57 181.61 C 118.65 181.68 119.59 180.85 119.65 179.76 L 119.71 178.80 C 119.77 177.71 118.94 176.78 117.86 176.71 C 116.77 176.65 115.83 177.48 115.77 178.57 Z M 115.72 179.55 L 115.67 180.52 C 115.62 181.61 116.47 182.53 117.55 182.58 C 118.64 182.63 119.56 181.78 119.61 180.70 L 119.65 179.73 C 119.70 178.64 118.86 177.72 117.77 177.67 C 116.68 177.63 115.76 178.47 115.72 179.55 Z M 115.68 180.56 L 115.65 181.60 C 115.62 182.68 116.48 183.58 117.56 183.61 C 118.65 183.64 119.55 182.78 119.58 181.69 L 119.60 180.66 C 119.63 179.58 118.77 178.67 117.69 178.65 C 116.60 178.62 115.70 179.48 115.68 180.56 Z M 115.65 181.63 L 115.64 182.62 C 115.63 183.70 116.50 184.59 117.58 184.60 C 118.67 184.61 119.55 183.74 119.56 182.66 L 119.57 181.67 C 119.59 180.58 118.72 179.70 117.63 179.68 C 116.55 179.67 115.66 180.54 115.65 181.63 Z M 115.65 182.63 L 115.65 183.59 C 115.64 184.67 116.52 185.55 117.60 185.55 C 118.68 185.55 119.56 184.68 119.56 183.60 L 119.56 182.64 C 119.56 181.56 118.69 180.68 117.61 180.68 C 116.53 180.68 115.65 181.55 115.65 182.63 Z M 115.64 183.58 L 115.63 184.54 C 115.63 185.62 116.50 186.50 117.58 186.51 C 118.66 186.52 119.55 185.65 119.56 184.57 L 119.56 183.61 C 119.57 182.53 118.70 181.64 117.62 181.63 C 116.53 181.63 115.65 182.50 115.64 183.58 Z M 115.62 184.43 L 115.57 185.40 C 115.50 186.49 116.33 187.42 117.42 187.49 C 118.51 187.55 119.44 186.73 119.51 185.64 L 119.57 184.67 C 119.63 183.58 118.80 182.65 117.72 182.58 C 116.63 182.51 115.69 183.34 115.62 184.43 Z M 115.57 185.19 L 115.41 186.20 C 115.22 187.28 115.96 188.31 117.04 188.49 C 118.12 188.67 119.15 187.94 119.33 186.85 L 119.50 185.84 C 119.68 184.76 118.95 183.74 117.86 183.55 C 116.78 183.37 115.75 184.11 115.57 185.19 Z M 115.43 185.93 L 115.09 187.05 C 114.76 188.12 115.37 189.25 116.44 189.58 C 117.51 189.90 118.64 189.30 118.97 188.23 L 119.31 187.12 C 119.63 186.05 119.03 184.91 117.96 184.59 C 116.89 184.26 115.76 184.86 115.43 185.93 Z M 115.06 186.90 L 114.64 188.02 C 114.23 189.10 114.78 190.32 115.87 190.72 C 116.95 191.13 118.17 190.58 118.57 189.50 L 119.00 188.38 C 119.40 187.29 118.85 186.08 117.77 185.67 C 116.68 185.26 115.47 185.81 115.06 186.90 Z M 114.50 188.14 L 114.24 189.02 C 113.90 190.18 114.56 191.40 115.72 191.74 C 116.89 192.09 118.11 191.42 118.45 190.26 L 118.71 189.38 C 119.05 188.22 118.39 187.00 117.23 186.66 C 116.07 186.31 114.85 186.97 114.50 188.14 Z M 114.17 190.32 L 114.30 190.75 C 114.68 191.96 115.96 192.63 117.17 192.25 C 118.37 191.87 119.04 190.59 118.66 189.38 L 118.53 188.96 C 118.15 187.75 116.87 187.08 115.66 187.46 C 114.46 187.84 113.79 189.12 114.17 190.32 Z M 116.79 192.43 L 117.41 192.35 C 118.71 192.18 119.63 190.98 119.46 189.68 C 119.29 188.38 118.10 187.46 116.79 187.63 L 116.17 187.71 C 114.87 187.88 113.95 189.07 114.12 190.37 C 114.29 191.68 115.49 192.60 116.79 192.43 Z M 118.07 192.26 L 119.10 191.83 C 120.35 191.29 120.94 189.84 120.41 188.58 C 119.87 187.32 118.42 186.74 117.16 187.27 L 116.13 187.71 C 114.88 188.24 114.29 189.70 114.82 190.95 C 115.36 192.21 116.81 192.80 118.07 192.26 Z M 119.22 191.87 L 120.47 191.28 C 121.75 190.68 122.29 189.15 121.69 187.87 C 121.09 186.59 119.56 186.04 118.28 186.65 L 117.04 187.23 C 115.76 187.84 115.21 189.36 115.81 190.64 C 116.41 191.92 117.94 192.47 119.22 191.87 Z M 120.45 191.33 L 121.31 190.93 C 122.62 190.34 123.19 188.80 122.60 187.49 C 122.00 186.19 120.46 185.61 119.16 186.21 L 118.30 186.60 C 116.99 187.19 116.41 188.73 117.01 190.04 C 117.60 191.35 119.14 191.92 120.45 191.33 Z M 121.29 190.94 L 122.20 190.53 C 123.50 189.95 124.09 188.42 123.51 187.11 C 122.93 185.80 121.39 185.22 120.09 185.80 L 119.18 186.21 C 117.87 186.79 117.29 188.32 117.87 189.63 C 118.45 190.93 119.98 191.52 121.29 190.94 Z M 122.19 190.52 L 123.13 190.11 C 124.43 189.53 125.02 188.00 124.44 186.70 C 123.86 185.40 122.34 184.81 121.03 185.39 L 120.10 185.81 C 118.79 186.38 118.21 187.91 118.78 189.21 C 119.36 190.51 120.89 191.10 122.19 190.52 Z M 123.13 190.10 L 124.08 189.67 C 125.37 189.09 125.95 187.57 125.37 186.27 C 124.79 184.98 123.27 184.40 121.97 184.98 L 121.03 185.40 C 119.73 185.98 119.15 187.50 119.73 188.80 C 120.31 190.10 121.84 190.68 123.13 190.10 Z M 124.09 189.66 L 125.02 189.23 C 126.30 188.64 126.87 187.12 126.28 185.83 C 125.69 184.55 124.17 183.98 122.88 184.57 L 121.96 185.00 C 120.67 185.59 120.10 187.11 120.69 188.39 C 121.28 189.68 122.81 190.25 124.09 189.66 Z M 125.04 189.20 L 125.97 188.76 C 127.24 188.15 127.78 186.63 127.17 185.36 C 126.56 184.10 125.05 183.56 123.78 184.16 L 122.85 184.61 C 121.58 185.21 121.05 186.73 121.65 188.00 C 122.26 189.27 123.78 189.80 125.04 189.20 Z M 126.00 188.70 L 126.91 188.24 C 128.15 187.61 128.65 186.11 128.02 184.87 C 127.40 183.64 125.90 183.14 124.66 183.76 L 123.75 184.23 C 122.51 184.85 122.02 186.35 122.64 187.59 C 123.26 188.82 124.77 189.32 126.00 188.70 Z M 126.94 188.16 L 127.82 187.70 C 129.01 187.06 129.46 185.57 128.83 184.38 C 128.19 183.19 126.70 182.73 125.51 183.37 L 124.64 183.84 C 123.44 184.47 122.99 185.96 123.63 187.15 C 124.26 188.35 125.75 188.80 126.94 188.16 Z M 127.84 187.62 L 128.69 187.14 C 129.85 186.49 130.25 185.03 129.60 183.87 C 128.95 182.72 127.49 182.31 126.33 182.96 L 125.48 183.45 C 124.33 184.10 123.92 185.56 124.58 186.71 C 125.23 187.87 126.69 188.27 127.84 187.62 Z M 128.72 187.07 L 129.56 186.56 C 130.67 185.90 131.03 184.46 130.37 183.35 C 129.71 182.24 128.27 181.87 127.15 182.54 L 126.31 183.04 C 125.20 183.70 124.84 185.14 125.50 186.25 C 126.16 187.37 127.60 187.73 128.72 187.07 Z M 129.57 186.49 L 130.43 185.96 C 131.50 185.29 131.83 183.87 131.15 182.80 C 130.48 181.72 129.06 181.40 127.99 182.07 L 127.14 182.61 C 126.06 183.28 125.74 184.69 126.41 185.77 C 127.08 186.84 128.50 187.17 129.57 186.49 Z M 130.44 185.90 L 131.31 185.33 C 132.35 184.65 132.64 183.26 131.96 182.22 C 131.28 181.18 129.89 180.89 128.85 181.57 L 127.98 182.14 C 126.94 182.81 126.65 184.21 127.33 185.24 C 128.01 186.28 129.40 186.57 130.44 185.90 Z M 131.31 185.27 L 132.17 184.68 C 133.18 184.00 133.44 182.64 132.76 181.63 C 132.08 180.63 130.72 180.36 129.71 181.04 L 128.85 181.63 C 127.84 182.31 127.58 183.67 128.26 184.68 C 128.94 185.68 130.31 185.95 131.31 185.27 Z M 132.17 184.63 L 133.01 184.05 C 133.98 183.37 134.22 182.03 133.54 181.05 C 132.86 180.08 131.52 179.84 130.55 180.52 L 129.72 181.10 C 128.74 181.78 128.50 183.12 129.18 184.09 C 129.86 185.07 131.20 185.31 132.17 184.63 Z M 133.00 183.99 L 133.79 183.43 C 134.73 182.76 134.95 181.44 134.27 180.50 C 133.60 179.55 132.28 179.34 131.34 180.01 L 130.55 180.57 C 129.61 181.25 129.39 182.56 130.07 183.51 C 130.74 184.45 132.06 184.67 133.00 183.99 Z M 133.78 183.38 L 134.56 182.80 C 135.48 182.13 135.67 180.84 135.00 179.93 C 134.33 179.01 133.05 178.82 132.13 179.49 L 131.35 180.07 C 130.43 180.74 130.24 182.02 130.91 182.94 C 131.58 183.85 132.86 184.05 133.78 183.38 Z M 134.56 182.73 L 135.42 182.08 C 136.30 181.41 136.47 180.16 135.80 179.28 C 135.14 178.40 133.89 178.23 133.01 178.90 L 132.14 179.55 C 131.26 180.22 131.09 181.47 131.76 182.35 C 132.43 183.23 133.68 183.40 134.56 182.73 Z M 135.41 182.01 L 136.18 181.41 C 137.02 180.75 137.17 179.53 136.51 178.69 C 135.85 177.85 134.63 177.70 133.79 178.36 L 133.02 178.96 C 132.18 179.62 132.03 180.84 132.69 181.68 C 133.35 182.52 134.57 182.67 135.41 182.01 Z M 136.15 181.35 L 136.87 180.78 C 137.68 180.14 137.81 178.96 137.17 178.15 C 136.53 177.34 135.35 177.20 134.54 177.85 L 133.82 178.42 C 133.01 179.06 132.87 180.24 133.52 181.05 C 134.16 181.86 135.34 182.00 136.15 181.35 Z M 136.84 180.74 L 137.59 180.14 C 138.38 179.52 138.51 178.37 137.89 177.58 C 137.26 176.79 136.11 176.66 135.32 177.28 L 134.57 177.88 C 133.78 178.51 133.65 179.66 134.27 180.45 C 134.90 181.24 136.05 181.37 136.84 180.74 Z M 137.58 180.11 L 138.36 179.49 C 139.14 178.87 139.26 177.74 138.64 176.97 C 138.03 176.19 136.90 176.07 136.13 176.69 L 135.34 177.31 C 134.57 177.93 134.44 179.06 135.06 179.83 C 135.68 180.61 136.80 180.73 137.58 180.11 Z M 138.37 179.45 L 139.15 178.81 C 139.90 178.18 140.00 177.07 139.38 176.32 C 138.76 175.57 137.64 175.46 136.89 176.08 L 136.12 176.72 C 135.37 177.35 135.26 178.46 135.88 179.21 C 136.51 179.96 137.62 180.07 138.37 179.45 Z M 139.17 178.75 L 139.92 178.09 C 140.64 177.45 140.71 176.35 140.07 175.63 C 139.43 174.90 138.33 174.84 137.61 175.48 L 136.86 176.14 C 136.14 176.78 136.08 177.88 136.71 178.60 C 137.35 179.32 138.45 179.39 139.17 178.75 Z M 139.96 178.02 L 140.69 177.32 C 141.38 176.66 141.40 175.56 140.73 174.88 C 140.07 174.20 138.98 174.18 138.30 174.84 L 137.57 175.54 C 136.89 176.20 136.87 177.29 137.53 177.98 C 138.19 178.66 139.28 178.68 139.96 178.02 Z M 140.72 177.26 L 141.41 176.55 C 142.07 175.88 142.05 174.80 141.37 174.14 C 140.70 173.49 139.62 173.50 138.96 174.18 L 138.27 174.89 C 137.62 175.57 137.63 176.65 138.31 177.30 C 138.98 177.96 140.06 177.94 140.72 177.26 Z M 141.42 176.52 L 142.09 175.80 C 142.73 175.12 142.69 174.06 142.01 173.42 C 141.34 172.78 140.27 172.82 139.63 173.49 L 138.96 174.21 C 138.32 174.89 138.36 175.96 139.03 176.59 C 139.71 177.23 140.78 177.20 141.42 176.52 Z M 142.09 175.79 L 142.69 175.14 C 143.31 174.46 143.27 173.40 142.60 172.78 C 141.92 172.15 140.86 172.19 140.24 172.86 L 139.64 173.51 C 139.01 174.19 139.05 175.24 139.72 175.87 C 140.40 176.50 141.46 176.46 142.09 175.79 Z M 142.69 175.11 L 143.33 174.41 C 143.94 173.73 143.88 172.68 143.20 172.07 C 142.52 171.45 141.47 171.51 140.86 172.19 L 140.23 172.89 C 139.61 173.57 139.67 174.62 140.35 175.23 C 141.03 175.85 142.08 175.79 142.69 175.11 Z M 143.34 174.37 L 144.03 173.57 C 144.63 172.88 144.55 171.84 143.86 171.24 C 143.16 170.65 142.12 170.73 141.53 171.42 L 140.84 172.23 C 140.25 172.92 140.33 173.96 141.02 174.55 C 141.71 175.15 142.75 175.07 143.34 174.37 Z M 144.06 173.53 L 144.72 172.70 C 145.30 172.00 145.19 170.97 144.49 170.40 C 143.78 169.83 142.75 169.93 142.18 170.64 L 141.51 171.46 C 140.94 172.16 141.04 173.20 141.75 173.77 C 142.45 174.34 143.48 174.23 144.06 173.53 Z M 144.74 172.67 L 145.31 171.94 C 145.86 171.23 145.73 170.21 145.02 169.65 C 144.31 169.10 143.28 169.23 142.73 169.94 L 142.16 170.67 C 141.61 171.38 141.74 172.41 142.45 172.96 C 143.16 173.52 144.19 173.39 144.74 172.67 Z M 145.32 171.92 L 145.92 171.13 C 146.46 170.41 146.31 169.38 145.59 168.84 C 144.87 168.30 143.84 168.45 143.30 169.17 L 142.71 169.97 C 142.17 170.69 142.32 171.71 143.04 172.25 C 143.76 172.79 144.78 172.64 145.32 171.92 Z M 145.93 171.10 L 146.53 170.26 C 147.06 169.53 146.89 168.51 146.16 167.99 C 145.43 167.46 144.41 167.63 143.89 168.36 L 143.29 169.20 C 142.76 169.93 142.93 170.95 143.66 171.47 C 144.39 172.00 145.41 171.83 145.93 171.10 Z M 146.55 170.23 L 147.15 169.36 C 147.65 168.62 147.47 167.61 146.73 167.10 C 145.99 166.59 144.98 166.78 144.47 167.52 L 143.87 168.39 C 143.37 169.13 143.56 170.14 144.29 170.65 C 145.03 171.16 146.05 170.97 146.55 170.23 Z M 147.17 169.32 L 147.74 168.44 C 148.23 167.68 148.01 166.68 147.26 166.20 C 146.51 165.71 145.51 165.92 145.02 166.67 L 144.45 167.56 C 143.96 168.31 144.18 169.31 144.93 169.80 C 145.68 170.29 146.68 170.07 147.17 169.32 Z M 147.76 168.40 L 148.30 167.52 C 148.76 166.76 148.52 165.76 147.75 165.30 C 146.99 164.83 146.00 165.08 145.53 165.84 L 145.00 166.71 C 144.54 167.48 144.78 168.47 145.54 168.94 C 146.30 169.40 147.30 169.16 147.76 168.40 Z M 148.32 167.49 L 148.82 166.61 C 149.26 165.84 149.00 164.85 148.22 164.40 C 147.45 163.96 146.46 164.23 146.02 165.00 L 145.51 165.87 C 145.07 166.65 145.33 167.64 146.11 168.08 C 146.88 168.53 147.87 168.26 148.32 167.49 Z M 148.83 166.58 L 149.31 165.71 C 149.74 164.93 149.46 163.95 148.67 163.52 C 147.89 163.09 146.91 163.37 146.48 164.15 L 146.00 165.03 C 145.57 165.81 145.86 166.79 146.64 167.22 C 147.42 167.65 148.40 167.37 148.83 166.58 Z M 149.32 165.69 L 149.79 164.81 C 150.20 164.03 149.91 163.05 149.12 162.63 C 148.33 162.21 147.35 162.51 146.94 163.30 L 146.47 164.17 C 146.05 164.96 146.35 165.94 147.14 166.36 C 147.93 166.78 148.90 166.48 149.32 165.69 Z M 149.79 164.80 L 150.25 163.93 C 150.66 163.14 150.35 162.16 149.56 161.75 C 148.77 161.34 147.80 161.65 147.38 162.44 L 146.93 163.31 C 146.52 164.10 146.83 165.08 147.62 165.49 C 148.41 165.90 149.38 165.59 149.79 164.80 Z M 150.25 163.92 L 150.44 163.55 C 150.85 162.76 150.54 161.79 149.75 161.38 C 148.95 160.97 147.98 161.28 147.57 162.07 L 147.38 162.44 C 146.97 163.23 147.28 164.21 148.08 164.62 C 148.87 165.02 149.84 164.71 150.25 163.92 Z"
      fill="black"
      fill-rule="nonzero" /><path d="M 118.19 167.99 L 119.18 167.94 C 120.51 167.87 121.53 166.74 121.46 165.41 C 121.39 164.08 120.26 163.06 118.93 163.13 L 117.94 163.18 C 116.61 163.25 115.59 164.38 115.66 165.71 C 115.73 167.04 116.86 168.06 118.19 167.99 Z M 119.27 167.94 L 120.26 167.85 C 121.59 167.73 122.57 166.55 122.45 165.22 C 122.33 163.90 121.15 162.92 119.83 163.04 L 118.84 163.13 C 117.51 163.25 116.53 164.42 116.65 165.75 C 116.77 167.08 117.94 168.06 119.27 167.94 Z M 120.45 167.83 L 121.44 167.66 C 122.75 167.44 123.64 166.19 123.42 164.87 C 123.20 163.56 121.95 162.67 120.63 162.89 L 119.64 163.06 C 118.32 163.28 117.44 164.53 117.66 165.84 C 117.88 167.16 119.13 168.05 120.45 167.83 Z M 121.68 167.61 L 122.56 167.37 C 123.85 167.01 124.61 165.68 124.25 164.39 C 123.89 163.10 122.56 162.34 121.27 162.70 L 120.39 162.94 C 119.10 163.30 118.34 164.63 118.70 165.92 C 119.06 167.21 120.39 167.97 121.68 167.61 Z M 122.77 167.29 L 123.60 166.97 C 124.84 166.50 125.47 165.11 125.00 163.86 C 124.52 162.62 123.13 161.99 121.89 162.46 L 121.06 162.78 C 119.82 163.25 119.19 164.64 119.66 165.89 C 120.13 167.13 121.53 167.76 122.77 167.29 Z M 123.74 166.90 L 124.62 166.50 C 125.82 165.95 126.36 164.53 125.81 163.32 C 125.26 162.12 123.83 161.58 122.63 162.13 L 121.75 162.54 C 120.54 163.09 120.01 164.51 120.56 165.71 C 121.11 166.92 122.53 167.45 123.74 166.90 Z M 124.70 166.45 L 125.68 165.95 C 126.85 165.36 127.33 163.92 126.73 162.75 C 126.14 161.57 124.70 161.10 123.53 161.69 L 122.55 162.19 C 121.37 162.78 120.90 164.22 121.49 165.39 C 122.09 166.57 123.52 167.04 124.70 166.45 Z M 125.71 165.92 L 126.65 165.42 C 127.81 164.81 128.25 163.38 127.64 162.22 C 127.03 161.06 125.59 160.62 124.43 161.23 L 123.49 161.73 C 122.33 162.34 121.89 163.77 122.50 164.93 C 123.12 166.09 124.55 166.53 125.71 165.92 Z M 126.66 165.41 L 127.38 165.02 C 128.52 164.40 128.95 162.97 128.34 161.82 C 127.72 160.68 126.29 160.25 125.14 160.86 L 124.42 161.25 C 123.27 161.87 122.84 163.30 123.46 164.44 C 124.08 165.59 125.51 166.02 126.66 165.41 Z M 127.38 165.00 L 128.15 164.58 C 129.29 163.96 129.71 162.53 129.09 161.40 C 128.47 160.26 127.05 159.84 125.91 160.46 L 125.13 160.88 C 124.00 161.50 123.58 162.93 124.20 164.06 C 124.82 165.20 126.24 165.62 127.38 165.00 Z M 128.16 164.56 L 128.99 164.10 C 130.12 163.48 130.53 162.06 129.90 160.93 C 129.28 159.80 127.86 159.40 126.73 160.02 L 125.90 160.48 C 124.77 161.10 124.37 162.52 124.99 163.65 C 125.61 164.78 127.03 165.18 128.16 164.56 Z M 129.00 164.08 L 129.88 163.59 C 131.00 162.96 131.40 161.54 130.77 160.43 C 130.14 159.31 128.73 158.91 127.61 159.54 L 126.72 160.04 C 125.61 160.67 125.21 162.08 125.84 163.20 C 126.46 164.31 127.88 164.71 129.00 164.08 Z M 129.89 163.57 L 130.83 163.03 C 131.94 162.40 132.33 160.99 131.70 159.88 C 131.07 158.78 129.66 158.39 128.55 159.02 L 127.61 159.56 C 126.50 160.19 126.11 161.60 126.74 162.70 C 127.37 163.81 128.78 164.20 129.89 163.57 Z M 130.84 163.01 L 131.85 162.43 C 132.94 161.79 133.32 160.39 132.68 159.30 C 132.05 158.20 130.65 157.82 129.55 158.46 L 128.54 159.04 C 127.45 159.67 127.07 161.08 127.71 162.17 C 128.34 163.27 129.74 163.64 130.84 163.01 Z M 131.85 162.41 L 132.86 161.82 C 133.94 161.18 134.30 159.78 133.67 158.70 C 133.03 157.61 131.63 157.25 130.55 157.89 L 129.54 158.48 C 128.46 159.12 128.10 160.51 128.73 161.60 C 129.37 162.68 130.77 163.04 131.85 162.41 Z M 132.85 161.79 L 133.71 161.28 C 134.78 160.65 135.13 159.26 134.50 158.19 C 133.86 157.12 132.48 156.77 131.41 157.41 L 130.55 157.92 C 129.48 158.55 129.13 159.93 129.77 161.00 C 130.40 162.07 131.78 162.43 132.85 161.79 Z M 133.70 161.25 L 134.58 160.72 C 135.64 160.09 135.98 158.72 135.34 157.67 C 134.71 156.62 133.35 156.28 132.29 156.91 L 131.41 157.44 C 130.36 158.07 130.02 159.44 130.65 160.49 C 131.28 161.54 132.65 161.88 133.70 161.25 Z M 134.57 160.69 L 135.47 160.15 C 136.50 159.53 136.83 158.18 136.21 157.14 C 135.58 156.10 134.23 155.77 133.19 156.40 L 132.30 156.94 C 131.26 157.57 130.93 158.92 131.56 159.95 C 132.19 160.99 133.54 161.32 134.57 160.69 Z M 135.46 160.12 L 136.35 159.58 C 137.37 158.95 137.69 157.62 137.07 156.60 C 136.45 155.58 135.11 155.26 134.09 155.88 L 133.20 156.43 C 132.18 157.05 131.86 158.38 132.48 159.41 C 133.11 160.43 134.44 160.75 135.46 160.12 Z M 136.34 159.55 L 137.23 159.00 C 138.23 158.38 138.55 157.07 137.93 156.06 C 137.31 155.06 135.99 154.75 134.99 155.37 L 134.10 155.91 C 133.10 156.53 132.79 157.85 133.41 158.85 C 134.02 159.85 135.34 160.17 136.34 159.55 Z M 137.22 158.97 L 138.09 158.43 C 139.08 157.82 139.38 156.52 138.77 155.53 C 138.15 154.55 136.85 154.24 135.87 154.86 L 135.00 155.40 C 134.01 156.01 133.71 157.31 134.32 158.29 C 134.94 159.28 136.23 159.59 137.22 158.97 Z M 138.08 158.40 L 138.92 157.88 C 139.89 157.27 140.19 155.99 139.58 155.01 C 138.97 154.04 137.69 153.75 136.72 154.36 L 135.88 154.89 C 134.90 155.49 134.61 156.77 135.22 157.75 C 135.83 158.72 137.11 159.01 138.08 158.40 Z M 138.91 157.85 L 139.71 157.34 C 140.67 156.73 140.95 155.47 140.35 154.52 C 139.75 153.56 138.48 153.28 137.53 153.88 L 136.72 154.39 C 135.77 154.99 135.49 156.26 136.09 157.21 C 136.69 158.17 137.96 158.45 138.91 157.85 Z M 139.71 157.31 L 140.46 156.83 C 141.40 156.23 141.67 154.98 141.07 154.04 C 140.47 153.10 139.23 152.83 138.29 153.43 L 137.53 153.91 C 136.60 154.51 136.32 155.76 136.92 156.70 C 137.52 157.63 138.77 157.91 139.71 157.31 Z M 140.45 156.78 L 141.50 156.10 C 142.41 155.51 142.67 154.29 142.08 153.37 C 141.48 152.46 140.26 152.20 139.35 152.79 L 138.30 153.47 C 137.39 154.07 137.13 155.29 137.72 156.20 C 138.31 157.12 139.53 157.38 140.45 156.78 Z M 141.48 156.04 L 142.42 155.42 C 143.30 154.84 143.54 153.65 142.95 152.77 C 142.37 151.89 141.18 151.65 140.30 152.23 L 139.36 152.85 C 138.48 153.44 138.24 154.63 138.83 155.51 C 139.41 156.39 140.60 156.63 141.48 156.04 Z M 142.40 155.36 L 143.24 154.79 C 144.08 154.22 144.30 153.06 143.73 152.21 C 143.15 151.36 141.99 151.15 141.14 151.72 L 140.31 152.29 C 139.46 152.87 139.24 154.03 139.82 154.87 C 140.40 155.72 141.55 155.94 142.40 155.36 Z M 143.22 154.73 L 143.98 154.20 C 144.79 153.63 144.99 152.51 144.42 151.70 C 143.85 150.88 142.73 150.68 141.91 151.25 L 141.16 151.78 C 140.34 152.35 140.15 153.48 140.72 154.29 C 141.29 155.11 142.41 155.30 143.22 154.73 Z M 143.96 154.14 L 144.67 153.64 C 145.45 153.08 145.62 151.99 145.06 151.21 C 144.50 150.43 143.41 150.25 142.63 150.81 L 141.93 151.31 C 141.15 151.88 140.97 152.96 141.53 153.75 C 142.09 154.53 143.18 154.71 143.96 154.14 Z M 144.65 153.58 L 145.32 153.09 C 146.06 152.54 146.22 151.48 145.67 150.73 C 145.12 149.98 144.07 149.82 143.32 150.38 L 142.65 150.87 C 141.90 151.42 141.74 152.47 142.29 153.22 C 142.84 153.97 143.90 154.13 144.65 153.58 Z M 145.31 153.05 L 146.12 152.44 C 146.85 151.89 147.00 150.85 146.45 150.13 C 145.90 149.40 144.86 149.25 144.13 149.80 L 143.32 150.41 C 142.59 150.96 142.45 152.00 143.00 152.73 C 143.55 153.46 144.58 153.60 145.31 153.05 Z M 146.13 152.42 L 146.93 151.81 C 147.65 151.26 147.78 150.23 147.23 149.51 C 146.68 148.79 145.64 148.65 144.92 149.20 L 144.13 149.82 C 143.41 150.37 143.27 151.40 143.83 152.12 C 144.38 152.84 145.41 152.98 146.13 152.42 Z M 146.93 151.80 L 147.72 151.18 C 148.43 150.63 148.55 149.60 148.00 148.89 C 147.44 148.18 146.42 148.05 145.71 148.61 L 144.92 149.22 C 144.21 149.77 144.08 150.80 144.64 151.51 C 145.19 152.22 146.22 152.35 146.93 151.80 Z M 147.72 151.17 L 148.49 150.56 C 149.20 150.00 149.32 148.98 148.76 148.28 C 148.21 147.57 147.19 147.45 146.48 148.01 L 145.71 148.62 C 145.00 149.17 144.88 150.20 145.43 150.90 C 145.99 151.60 147.01 151.73 147.72 151.17 Z M 148.49 150.55 L 149.09 150.08 C 149.79 149.53 149.90 148.51 149.35 147.81 C 148.80 147.11 147.78 146.99 147.08 147.54 L 146.49 148.01 C 145.79 148.57 145.67 149.58 146.22 150.28 C 146.77 150.98 147.79 151.10 148.49 150.55 Z"
      fill="black"
      fill-rule="nonzero" /><path d="M 154.28 133.78 L 154.87 132.99 C 155.57 132.04 155.37 130.69 154.41 129.98 C 153.45 129.27 152.10 129.47 151.40 130.43 L 150.81 131.22 C 150.10 132.18 150.31 133.53 151.26 134.24 C 152.22 134.95 153.57 134.74 154.28 133.78 Z M 154.78 133.10 L 155.42 132.35 C 156.18 131.44 156.07 130.08 155.16 129.31 C 154.25 128.54 152.89 128.66 152.12 129.57 L 151.48 130.32 C 150.71 131.23 150.83 132.59 151.74 133.36 C 152.65 134.13 154.01 134.01 154.78 133.10 Z M 155.23 132.54 L 155.97 131.86 C 156.84 131.06 156.90 129.69 156.09 128.81 C 155.28 127.94 153.92 127.88 153.04 128.69 L 152.31 129.37 C 151.43 130.18 151.37 131.54 152.18 132.42 C 152.99 133.30 154.35 133.35 155.23 132.54 Z M 155.68 132.08 L 156.52 131.54 C 157.51 130.89 157.80 129.56 157.15 128.56 C 156.50 127.56 155.16 127.28 154.17 127.93 L 153.33 128.47 C 152.33 129.12 152.05 130.45 152.70 131.45 C 153.35 132.45 154.68 132.73 155.68 132.08 Z M 156.25 131.68 L 157.16 131.26 C 158.23 130.76 158.70 129.48 158.20 128.40 C 157.70 127.33 156.42 126.86 155.34 127.36 L 154.43 127.78 C 153.36 128.29 152.89 129.56 153.39 130.64 C 153.89 131.72 155.17 132.18 156.25 131.68 Z M 156.99 131.32 L 157.95 130.97 C 159.06 130.56 159.63 129.33 159.22 128.22 C 158.81 127.11 157.58 126.54 156.47 126.94 L 155.51 127.30 C 154.40 127.71 153.83 128.94 154.23 130.05 C 154.64 131.16 155.87 131.73 156.99 131.32 Z M 157.85 131.00 L 158.81 130.69 C 159.94 130.34 160.56 129.14 160.20 128.01 C 159.85 126.88 158.65 126.26 157.52 126.62 L 156.56 126.92 C 155.44 127.28 154.81 128.48 155.17 129.60 C 155.53 130.73 156.73 131.35 157.85 131.00 Z M 158.79 130.69 L 159.77 130.39 C 160.89 130.05 161.53 128.86 161.18 127.73 C 160.84 126.61 159.65 125.98 158.52 126.32 L 157.54 126.62 C 156.42 126.96 155.79 128.15 156.13 129.28 C 156.47 130.40 157.66 131.03 158.79 130.69 Z M 159.78 130.37 L 160.73 130.07 C 161.85 129.72 162.47 128.53 162.11 127.42 C 161.76 126.31 160.58 125.69 159.46 126.04 L 158.51 126.34 C 157.40 126.69 156.78 127.88 157.13 128.99 C 157.48 130.10 158.67 130.72 159.78 130.37 Z M 160.76 130.05 L 161.68 129.74 C 162.78 129.38 163.38 128.19 163.01 127.09 C 162.65 125.99 161.46 125.40 160.36 125.76 L 159.44 126.07 C 158.34 126.43 157.74 127.62 158.11 128.71 C 158.47 129.81 159.66 130.41 160.76 130.05 Z M 161.71 129.71 L 162.61 129.40 C 163.70 129.02 164.27 127.83 163.89 126.74 C 163.51 125.66 162.32 125.09 161.24 125.47 L 160.33 125.79 C 159.25 126.17 158.68 127.35 159.06 128.44 C 159.44 129.52 160.63 130.09 161.71 129.71 Z M 162.64 129.38 L 163.48 129.07 C 164.55 128.67 165.10 127.48 164.70 126.41 C 164.31 125.33 163.12 124.79 162.04 125.18 L 161.21 125.49 C 160.14 125.89 159.59 127.08 159.98 128.15 C 160.38 129.22 161.57 129.77 162.64 129.38 Z M 163.50 129.05 L 164.40 128.71 C 165.46 128.31 166.00 127.11 165.59 126.05 C 165.18 124.98 163.99 124.45 162.93 124.85 L 162.03 125.19 C 160.96 125.60 160.42 126.79 160.83 127.86 C 161.24 128.93 162.43 129.46 163.50 129.05 Z M 164.40 128.70 L 165.39 128.32 C 166.45 127.91 166.98 126.72 166.57 125.66 C 166.15 124.60 164.96 124.07 163.90 124.48 L 162.92 124.86 C 161.86 125.27 161.33 126.47 161.74 127.53 C 162.15 128.59 163.34 129.11 164.40 128.70 Z M 165.39 128.31 L 166.41 127.92 C 167.47 127.51 167.99 126.31 167.58 125.26 C 167.17 124.20 165.98 123.68 164.92 124.09 L 163.90 124.49 C 162.84 124.90 162.32 126.09 162.73 127.15 C 163.14 128.20 164.33 128.73 165.39 128.31 Z M 166.41 127.91 L 167.24 127.59 C 168.30 127.18 168.82 125.99 168.41 124.94 C 168.00 123.88 166.81 123.36 165.75 123.77 L 164.92 124.09 C 163.87 124.50 163.34 125.69 163.75 126.75 C 164.17 127.80 165.35 128.32 166.41 127.91 Z M 167.24 127.59 L 168.12 127.25 C 169.18 126.84 169.70 125.65 169.29 124.60 C 168.89 123.54 167.70 123.02 166.64 123.43 L 165.76 123.77 C 164.70 124.18 164.18 125.36 164.59 126.42 C 165.00 127.47 166.18 128.00 167.24 127.59 Z M 168.12 127.24 L 169.05 126.89 C 170.11 126.48 170.63 125.30 170.23 124.24 C 169.82 123.19 168.64 122.66 167.58 123.07 L 166.65 123.43 C 165.60 123.83 165.07 125.02 165.48 126.07 C 165.88 127.12 167.06 127.65 168.12 127.24 Z M 169.05 126.89 L 170.02 126.51 C 171.08 126.11 171.60 124.93 171.20 123.88 C 170.80 122.82 169.62 122.29 168.57 122.70 L 167.59 123.07 C 166.54 123.47 166.01 124.65 166.41 125.70 C 166.81 126.76 167.99 127.29 169.05 126.89 Z M 170.01 126.51 L 171.03 126.13 C 172.08 125.73 172.61 124.56 172.22 123.50 C 171.82 122.45 170.64 121.92 169.59 122.31 L 168.58 122.70 C 167.52 123.09 166.99 124.27 167.39 125.32 C 167.78 126.38 168.96 126.91 170.01 126.51 Z M 171.02 126.13 L 172.03 125.76 C 173.08 125.36 173.62 124.19 173.23 123.14 C 172.84 122.08 171.66 121.54 170.61 121.94 L 169.60 122.31 C 168.54 122.71 168.01 123.88 168.40 124.93 C 168.79 125.99 169.96 126.52 171.02 126.13 Z M 172.02 125.76 L 173.01 125.40 C 174.07 125.01 174.61 123.84 174.22 122.78 C 173.83 121.72 172.66 121.18 171.61 121.57 L 170.62 121.93 C 169.56 122.32 169.02 123.49 169.41 124.55 C 169.79 125.61 170.96 126.15 172.02 125.76 Z M 173.00 125.40 L 173.99 125.04 C 175.05 124.66 175.60 123.49 175.21 122.43 C 174.83 121.37 173.66 120.82 172.60 121.21 L 171.61 121.57 C 170.55 121.95 170.01 123.12 170.39 124.18 C 170.77 125.24 171.94 125.79 173.00 125.40 Z M 173.99 125.05 L 174.96 124.70 C 176.02 124.32 176.57 123.15 176.19 122.09 C 175.81 121.03 174.64 120.47 173.58 120.86 L 172.61 121.20 C 171.55 121.58 171.00 122.75 171.38 123.81 C 171.76 124.88 172.92 125.43 173.99 125.05 Z M 174.95 124.70 L 175.89 124.37 C 176.95 123.99 177.51 122.83 177.13 121.76 C 176.75 120.70 175.59 120.14 174.52 120.52 L 173.59 120.85 C 172.52 121.23 171.97 122.40 172.34 123.46 C 172.72 124.52 173.89 125.08 174.95 124.70 Z M 175.88 124.38 L 176.76 124.07 C 177.83 123.69 178.39 122.53 178.02 121.46 C 177.65 120.40 176.48 119.83 175.41 120.21 L 174.53 120.52 C 173.46 120.89 172.90 122.05 173.27 123.12 C 173.65 124.19 174.81 124.75 175.88 124.38 Z M 176.76 124.07 L 177.69 123.75 C 178.76 123.38 179.33 122.22 178.96 121.15 C 178.60 120.08 177.43 119.51 176.36 119.88 L 175.42 120.20 C 174.35 120.57 173.78 121.73 174.15 122.80 C 174.52 123.87 175.68 124.44 176.76 124.07 Z M 177.68 123.77 L 178.77 123.41 C 179.85 123.05 180.43 121.88 180.07 120.80 C 179.71 119.71 178.54 119.13 177.46 119.49 L 176.37 119.86 C 175.29 120.22 174.71 121.39 175.07 122.47 C 175.43 123.55 176.60 124.13 177.68 123.77 Z M 178.74 123.44 L 179.69 123.14 C 180.79 122.79 181.40 121.61 181.05 120.51 C 180.70 119.42 179.53 118.81 178.43 119.16 L 177.48 119.46 C 176.38 119.81 175.77 120.99 176.12 122.08 C 176.47 123.18 177.65 123.79 178.74 123.44 Z M 179.66 123.17 L 180.52 122.92 C 181.63 122.58 182.27 121.41 181.94 120.30 C 181.61 119.18 180.44 118.54 179.32 118.87 L 178.46 119.13 C 177.35 119.46 176.71 120.63 177.04 121.75 C 177.37 122.86 178.54 123.50 179.66 123.17 Z M 180.47 122.95 L 181.34 122.72 C 182.47 122.41 183.15 121.25 182.84 120.11 C 182.54 118.98 181.37 118.30 180.24 118.60 L 179.37 118.84 C 178.23 119.14 177.56 120.31 177.86 121.44 C 178.17 122.58 179.33 123.25 180.47 122.95 Z M 181.25 122.76 L 182.25 122.54 C 183.41 122.28 184.14 121.14 183.89 119.98 C 183.64 118.83 182.49 118.09 181.33 118.35 L 180.33 118.57 C 179.17 118.82 178.44 119.96 178.69 121.12 C 178.95 122.28 180.09 123.01 181.25 122.76 Z M 182.06 122.58 L 183.04 122.46 C 184.22 122.31 185.06 121.23 184.91 120.05 C 184.77 118.87 183.69 118.03 182.50 118.18 L 181.52 118.30 C 180.34 118.45 179.50 119.53 179.65 120.71 C 179.80 121.89 180.88 122.73 182.06 122.58 Z M 182.74 122.49 L 183.71 122.50 C 184.91 122.52 185.90 121.56 185.91 120.37 C 185.93 119.17 184.97 118.18 183.78 118.16 L 182.80 118.15 C 181.61 118.13 180.62 119.09 180.60 120.29 C 180.59 121.49 181.54 122.47 182.74 122.49 Z M 183.30 122.47 L 184.31 122.68 C 185.49 122.92 186.65 122.16 186.89 120.98 C 187.13 119.80 186.37 118.65 185.19 118.41 L 184.18 118.20 C 183.00 117.95 181.85 118.71 181.61 119.89 C 181.36 121.07 182.12 122.23 183.30 122.47 Z M 183.83 122.53 L 184.73 122.94 C 185.82 123.46 187.12 122.98 187.64 121.89 C 188.15 120.79 187.67 119.49 186.58 118.98 L 185.68 118.56 C 184.58 118.05 183.28 118.52 182.77 119.62 C 182.26 120.71 182.73 122.01 183.83 122.53 Z M 184.18 122.60 L 184.87 123.22 C 185.77 124.03 187.17 123.96 187.98 123.05 C 188.79 122.15 188.72 120.76 187.81 119.95 L 187.12 119.32 C 186.22 118.51 184.83 118.59 184.02 119.49 C 183.20 120.39 183.28 121.78 184.18 122.60 Z M 184.42 122.69 L 184.87 123.46 C 185.48 124.52 186.83 124.89 187.89 124.28 C 188.95 123.67 189.32 122.31 188.71 121.25 L 188.26 120.48 C 187.65 119.42 186.30 119.05 185.24 119.66 C 184.18 120.27 183.81 121.63 184.42 122.69 Z M 184.66 123.03 L 184.96 123.98 C 185.33 125.16 186.58 125.81 187.76 125.44 C 188.94 125.07 189.59 123.82 189.22 122.64 L 188.92 121.68 C 188.55 120.51 187.29 119.85 186.12 120.22 C 184.94 120.59 184.28 121.85 184.66 123.03 Z M 184.87 123.74 L 185.08 124.83 C 185.32 126.06 186.50 126.86 187.72 126.62 C 188.95 126.39 189.75 125.21 189.51 123.98 L 189.30 122.89 C 189.07 121.66 187.89 120.86 186.66 121.10 C 185.44 121.33 184.64 122.51 184.87 123.74 Z M 185.06 124.73 L 185.19 125.63 C 185.37 126.87 186.51 127.73 187.75 127.55 C 188.99 127.37 189.85 126.23 189.67 124.99 L 189.54 124.09 C 189.36 122.85 188.22 121.99 186.98 122.17 C 185.74 122.34 184.88 123.49 185.06 124.73 Z M 185.18 125.57 L 185.29 126.54 C 185.43 127.78 186.56 128.68 187.80 128.53 C 189.04 128.39 189.93 127.27 189.79 126.03 L 189.68 125.05 C 189.54 123.81 188.41 122.92 187.17 123.06 C 185.93 123.20 185.04 124.33 185.18 125.57 Z M 185.29 126.49 L 185.38 127.51 C 185.49 128.76 186.59 129.68 187.84 129.56 C 189.08 129.45 190.00 128.35 189.89 127.11 L 189.80 126.08 C 189.68 124.84 188.58 123.92 187.34 124.03 C 186.09 124.14 185.17 125.24 185.29 126.49 Z M 185.37 127.46 L 185.45 128.52 C 185.53 129.77 186.61 130.72 187.86 130.63 C 189.10 130.55 190.05 129.47 189.96 128.22 L 189.89 127.16 C 189.81 125.91 188.73 124.97 187.48 125.05 C 186.24 125.13 185.29 126.21 185.37 127.46 Z M 185.44 128.47 L 185.49 129.50 C 185.55 130.75 186.60 131.72 187.85 131.66 C 189.10 131.61 190.07 130.55 190.01 129.30 L 189.97 128.27 C 189.91 127.02 188.85 126.06 187.60 126.11 C 186.35 126.17 185.39 127.23 185.44 128.47 Z M 185.49 129.46 L 185.52 130.47 C 185.55 131.72 186.59 132.71 187.84 132.67 C 189.09 132.64 190.07 131.60 190.04 130.35 L 190.01 129.34 C 189.98 128.09 188.94 127.10 187.69 127.14 C 186.44 127.17 185.45 128.21 185.49 129.46 Z M 185.52 130.44 L 185.53 131.45 C 185.55 132.70 186.58 133.70 187.82 133.68 C 189.07 133.66 190.07 132.63 190.05 131.39 L 190.04 130.38 C 190.02 129.13 188.99 128.13 187.75 128.15 C 186.50 128.17 185.50 129.19 185.52 130.44 Z M 185.53 131.43 L 185.54 132.43 C 185.54 133.68 186.56 134.68 187.81 134.68 C 189.06 134.67 190.07 133.65 190.06 132.40 L 190.05 131.41 C 190.05 130.16 189.03 129.15 187.78 129.16 C 186.53 129.16 185.52 130.18 185.53 131.43 Z M 185.54 132.42 L 185.54 133.40 C 185.54 134.65 186.55 135.66 187.80 135.66 C 189.05 135.66 190.06 134.64 190.06 133.40 L 190.06 132.42 C 190.06 131.17 189.04 130.16 187.80 130.16 C 186.55 130.16 185.54 131.17 185.54 132.42 Z M 185.54 133.40 L 185.54 134.32 C 185.54 135.57 186.55 136.58 187.80 136.58 C 189.05 136.58 190.06 135.57 190.06 134.32 L 190.06 133.40 C 190.06 132.15 189.05 131.14 187.80 131.14 C 186.55 131.14 185.54 132.15 185.54 133.40 Z M 185.54 134.33 L 185.54 135.25 C 185.55 136.50 186.56 137.51 187.80 137.51 C 189.05 137.51 190.06 136.49 190.06 135.25 L 190.06 134.32 C 190.05 133.07 189.04 132.06 187.80 132.07 C 186.55 132.07 185.54 133.08 185.54 134.33 Z M 185.54 135.26 L 185.55 136.22 C 185.55 137.47 186.57 138.47 187.81 138.47 C 189.06 138.46 190.06 137.45 190.06 136.21 L 190.06 135.24 C 190.05 134.00 189.04 132.99 187.79 132.99 C 186.55 133.00 185.54 134.01 185.54 135.26 Z M 185.55 136.23 L 185.56 137.26 C 185.57 138.51 186.58 139.51 187.83 139.50 C 189.07 139.49 190.07 138.48 190.07 137.23 L 190.06 136.20 C 190.05 134.95 189.03 133.95 187.79 133.96 C 186.54 133.97 185.54 134.99 185.55 136.23 Z M 185.56 137.27 L 185.57 138.41 C 185.58 139.65 186.60 140.65 187.85 140.64 C 189.09 140.62 190.09 139.60 190.08 138.36 L 190.06 137.22 C 190.05 135.98 189.03 134.98 187.79 135.00 C 186.54 135.01 185.55 136.03 185.56 137.27 Z M 185.57 138.42 L 185.58 139.29 C 185.60 140.53 186.62 141.53 187.87 141.51 C 189.11 141.49 190.10 140.47 190.09 139.23 L 190.07 138.35 C 190.06 137.11 189.04 136.12 187.79 136.13 C 186.55 136.15 185.56 137.17 185.57 138.42 Z M 185.59 139.29 L 185.60 140.21 C 185.62 141.45 186.64 142.44 187.88 142.42 C 189.13 142.40 190.12 141.38 190.10 140.14 L 190.09 139.23 C 190.07 137.98 189.04 136.99 187.80 137.01 C 186.56 137.03 185.57 138.05 185.59 139.29 Z M 185.60 140.21 L 185.62 141.17 C 185.63 142.41 186.66 143.41 187.90 143.39 C 189.14 143.37 190.13 142.34 190.11 141.10 L 190.10 140.14 C 190.08 138.89 189.06 137.90 187.81 137.92 C 186.57 137.94 185.58 138.97 185.60 140.21 Z M 185.62 141.17 L 185.63 142.18 C 185.65 143.42 186.67 144.41 187.92 144.39 C 189.16 144.37 190.15 143.35 190.13 142.11 L 190.11 141.10 C 190.09 139.86 189.07 138.87 187.83 138.89 C 186.59 138.91 185.60 139.93 185.62 141.17 Z M 185.63 142.18 L 185.65 143.22 C 185.67 144.46 186.69 145.45 187.93 145.44 C 189.17 145.42 190.16 144.40 190.15 143.15 L 190.13 142.11 C 190.11 140.87 189.09 139.88 187.85 139.89 C 186.61 139.91 185.61 140.93 185.63 142.18 Z M 185.65 143.22 L 185.66 144.29 C 185.68 145.53 186.70 146.53 187.94 146.51 C 189.18 146.49 190.18 145.47 190.16 144.23 L 190.14 143.16 C 190.13 141.92 189.11 140.92 187.87 140.94 C 186.62 140.96 185.63 141.98 185.65 143.22 Z M 185.66 144.29 L 185.68 145.39 C 185.69 146.63 186.71 147.62 187.95 147.61 C 189.19 147.59 190.19 146.58 190.17 145.33 L 190.16 144.24 C 190.14 142.99 189.13 142.00 187.88 142.01 C 186.64 142.03 185.65 143.05 185.66 144.29 Z M 185.68 145.38 L 185.69 146.45 C 185.70 147.69 186.71 148.68 187.95 148.67 C 189.19 148.66 190.19 147.65 190.18 146.40 L 190.17 145.34 C 190.16 144.10 189.14 143.10 187.90 143.11 C 186.66 143.12 185.67 144.14 185.68 145.38 Z M 185.69 146.44 L 185.69 147.49 C 185.70 148.73 186.71 149.73 187.96 149.72 C 189.20 149.71 190.20 148.70 190.19 147.46 L 190.18 146.41 C 190.17 145.17 189.16 144.17 187.92 144.18 C 186.68 144.19 185.68 145.20 185.69 146.44 Z M 185.69 147.48 L 185.70 148.53 C 185.70 149.77 186.72 150.77 187.96 150.77 C 189.20 150.76 190.20 149.75 190.19 148.51 L 190.19 147.46 C 190.18 146.22 189.17 145.22 187.93 145.23 C 186.69 145.23 185.69 146.24 185.69 147.48 Z M 185.70 148.53 L 185.70 149.56 C 185.71 150.80 186.72 151.80 187.96 151.80 C 189.20 151.80 190.20 150.79 190.20 149.55 L 190.19 148.51 C 190.19 147.27 189.18 146.27 187.94 146.27 C 186.70 146.28 185.69 147.29 185.70 148.53 Z M 185.70 149.56 L 185.70 150.57 C 185.71 151.81 186.72 152.82 187.96 152.82 C 189.20 152.81 190.20 151.81 190.20 150.56 L 190.20 149.55 C 190.19 148.31 189.19 147.30 187.94 147.31 C 186.70 147.31 185.70 148.32 185.70 149.56 Z M 185.70 150.57 L 185.71 151.56 C 185.71 152.80 186.71 153.80 187.95 153.80 C 189.20 153.80 190.20 152.79 190.20 151.55 L 190.20 150.57 C 190.20 149.33 189.19 148.32 187.95 148.32 C 186.71 148.32 185.70 149.33 185.70 150.57 Z M 185.71 151.56 L 185.71 152.50 C 185.71 153.75 186.71 154.75 187.95 154.75 C 189.19 154.75 190.20 153.74 190.20 152.50 L 190.20 151.55 C 190.20 150.31 189.19 149.31 187.95 149.31 C 186.71 149.31 185.71 150.32 185.71 151.56 Z M 185.71 152.50 L 185.71 153.41 C 185.71 154.65 186.71 155.65 187.95 155.65 C 189.19 155.65 190.20 154.65 190.20 153.41 L 190.20 152.50 C 190.20 151.26 189.19 150.26 187.95 150.26 C 186.71 150.26 185.71 151.26 185.71 152.50 Z M 185.71 153.41 L 185.71 154.55 C 185.71 155.79 186.71 156.79 187.95 156.79 C 189.19 156.79 190.20 155.79 190.20 154.55 L 190.20 153.41 C 190.20 152.17 189.19 151.16 187.95 151.16 C 186.71 151.16 185.71 152.17 185.71 153.41 Z M 185.71 154.55 L 185.71 155.62 C 185.71 156.86 186.71 157.87 187.95 157.87 C 189.19 157.87 190.20 156.86 190.20 155.62 L 190.20 154.55 C 190.20 153.30 189.19 152.30 187.95 152.30 C 186.71 152.30 185.71 153.30 185.71 154.55 Z M 185.70 155.62 L 185.70 156.62 C 185.70 157.86 186.71 158.87 187.95 158.87 C 189.19 158.87 190.20 157.86 190.20 156.62 L 190.20 155.62 C 190.20 154.38 189.19 153.37 187.95 153.37 C 186.71 153.37 185.70 154.38 185.70 155.62 Z M 185.70 156.62 L 185.70 157.57 C 185.70 158.81 186.71 159.82 187.95 159.82 C 189.20 159.82 190.20 158.81 190.20 157.57 L 190.20 156.62 C 190.20 155.38 189.20 154.37 187.95 154.37 C 186.71 154.37 185.70 155.38 185.70 156.62 Z M 185.70 157.57 L 185.70 158.47 C 185.70 159.72 186.71 160.72 187.95 160.72 C 189.20 160.72 190.20 159.72 190.20 158.47 L 190.20 157.57 C 190.20 156.32 189.20 155.32 187.95 155.32 C 186.71 155.32 185.70 156.32 185.70 157.57 Z M 185.70 158.47 L 185.70 159.40 C 185.70 160.65 186.71 161.65 187.95 161.65 C 189.20 161.65 190.20 160.65 190.20 159.40 L 190.20 158.47 C 190.20 157.23 189.20 156.22 187.95 156.22 C 186.71 156.22 185.70 157.23 185.70 158.47 Z M 185.70 159.40 L 185.70 160.42 C 185.70 161.66 186.71 162.67 187.95 162.67 C 189.20 162.67 190.20 161.66 190.20 160.42 L 190.20 159.40 C 190.20 158.16 189.20 157.15 187.95 157.15 C 186.71 157.15 185.70 158.16 185.70 159.40 Z M 185.70 160.42 L 185.70 161.42 C 185.70 162.67 186.71 163.68 187.95 163.68 C 189.20 163.68 190.21 162.67 190.21 161.42 L 190.21 160.42 C 190.21 159.17 189.20 158.17 187.95 158.17 C 186.71 158.17 185.70 159.17 185.70 160.42 Z M 185.70 161.42 L 185.70 162.42 C 185.70 163.66 186.71 164.67 187.95 164.67 C 189.20 164.67 190.21 163.66 190.21 162.42 L 190.21 161.42 C 190.21 160.18 189.20 159.17 187.95 159.17 C 186.71 159.17 185.70 160.18 185.70 161.42 Z M 185.70 162.42 L 185.70 163.40 C 185.70 164.65 186.71 165.66 187.95 165.66 C 189.20 165.66 190.21 164.65 190.21 163.40 L 190.21 162.42 C 190.21 161.17 189.20 160.16 187.95 160.16 C 186.71 160.16 185.70 161.17 185.70 162.42 Z M 185.70 163.40 L 185.70 164.43 C 185.70 165.67 186.71 166.69 187.95 166.69 C 189.20 166.69 190.21 165.67 190.21 164.43 L 190.21 163.40 C 190.21 162.16 189.20 161.15 187.95 161.15 C 186.71 161.15 185.70 162.16 185.70 163.40 Z M 185.69 164.43 L 185.69 165.48 C 185.69 166.72 186.71 167.73 187.95 167.73 C 189.20 167.73 190.21 166.72 190.21 165.48 L 190.21 164.43 C 190.21 163.18 189.20 162.17 187.95 162.17 C 186.71 162.17 185.69 163.18 185.69 164.43 Z M 185.69 165.48 L 185.69 166.49 C 185.69 167.74 186.70 168.75 187.95 168.75 C 189.20 168.75 190.21 167.74 190.21 166.49 L 190.21 165.48 C 190.21 164.23 189.20 163.22 187.95 163.22 C 186.70 163.22 185.69 164.23 185.69 165.48 Z M 185.69 166.49 L 185.69 167.47 C 185.69 168.72 186.70 169.73 187.95 169.73 C 189.20 169.73 190.21 168.72 190.21 167.47 L 190.21 166.49 C 190.21 165.24 189.20 164.23 187.95 164.23 C 186.70 164.23 185.69 165.24 185.69 166.49 Z M 185.69 167.47 L 185.69 168.41 C 185.69 169.66 186.70 170.67 187.95 170.67 C 189.20 170.67 190.22 169.66 190.22 168.41 L 190.22 167.47 C 190.22 166.22 189.20 165.20 187.95 165.20 C 186.70 165.20 185.69 166.22 185.69 167.47 Z M 185.69 168.40 L 185.69 169.44 C 185.69 170.69 186.70 171.71 187.95 171.71 C 189.20 171.71 190.21 170.69 190.22 169.44 L 190.22 168.41 C 190.22 167.16 189.20 166.14 187.95 166.14 C 186.70 166.14 185.69 167.15 185.69 168.40 Z M 185.69 169.43 L 185.68 170.41 C 185.68 171.66 186.69 172.68 187.94 172.69 C 189.19 172.69 190.21 171.69 190.21 170.43 L 190.22 169.45 C 190.22 168.20 189.21 167.18 187.96 167.18 C 186.71 167.17 185.69 168.18 185.69 169.43 Z M 185.68 170.40 L 185.67 171.37 C 185.66 172.62 186.66 173.65 187.91 173.66 C 189.16 173.68 190.19 172.68 190.20 171.42 L 190.21 170.45 C 190.23 169.20 189.23 168.17 187.97 168.16 C 186.72 168.14 185.70 169.15 185.68 170.40 Z M 185.67 171.35 L 185.65 172.34 C 185.62 173.59 186.61 174.63 187.86 174.66 C 189.12 174.68 190.15 173.69 190.18 172.44 L 190.20 171.45 C 190.23 170.20 189.24 169.16 187.99 169.13 C 186.73 169.10 185.70 170.10 185.67 171.35 Z M 185.65 172.30 L 185.61 173.31 C 185.55 174.56 186.52 175.62 187.77 175.67 C 189.03 175.73 190.08 174.76 190.14 173.50 L 190.18 172.49 C 190.23 171.24 189.26 170.18 188.01 170.13 C 186.76 170.07 185.70 171.05 185.65 172.30 Z M 185.61 173.22 L 185.53 174.24 C 185.43 175.48 186.36 176.58 187.60 176.68 C 188.85 176.78 189.95 175.85 190.05 174.60 L 190.13 173.59 C 190.23 172.34 189.30 171.25 188.06 171.15 C 186.81 171.05 185.71 171.98 185.61 173.22 Z M 185.54 174.09 L 185.40 175.06 C 185.22 176.30 186.08 177.45 187.32 177.63 C 188.56 177.81 189.71 176.95 189.89 175.71 L 190.03 174.75 C 190.21 173.51 189.35 172.36 188.11 172.18 C 186.87 172.00 185.72 172.85 185.54 174.09 Z M 185.45 174.82 L 185.18 175.85 C 184.87 177.06 185.60 178.30 186.81 178.62 C 188.02 178.93 189.26 178.20 189.58 176.99 L 189.85 175.96 C 190.16 174.74 189.43 173.51 188.22 173.19 C 187.00 172.88 185.77 173.60 185.45 174.82 Z M 185.34 175.42 L 184.90 176.31 C 184.35 177.43 184.82 178.79 185.94 179.35 C 187.07 179.90 188.43 179.44 188.98 178.31 L 189.42 177.42 C 189.97 176.29 189.51 174.93 188.38 174.38 C 187.26 173.83 185.89 174.29 185.34 175.42 Z M 185.32 175.71 L 184.67 176.38 C 183.79 177.27 183.80 178.71 184.70 179.59 C 185.59 180.47 187.03 180.46 187.91 179.57 L 188.57 178.90 C 189.45 178.01 189.44 176.57 188.54 175.69 C 187.64 174.80 186.20 174.82 185.32 175.71 Z M 185.33 175.91 L 184.58 176.26 C 183.44 176.79 182.94 178.15 183.48 179.29 C 184.01 180.43 185.36 180.92 186.50 180.39 L 187.25 180.03 C 188.39 179.50 188.89 178.15 188.35 177.01 C 187.82 175.87 186.47 175.38 185.33 175.91 Z M 185.15 176.08 L 184.25 176.24 C 183.02 176.45 182.19 177.63 182.41 178.87 C 182.62 180.11 183.80 180.94 185.04 180.72 L 185.93 180.57 C 187.17 180.35 188.00 179.17 187.78 177.93 C 187.56 176.69 186.38 175.86 185.15 176.08 Z M 184.67 176.20 L 183.62 176.19 C 182.36 176.18 181.34 177.19 181.33 178.45 C 181.31 179.71 182.32 180.74 183.58 180.75 L 184.63 180.76 C 185.89 180.77 186.91 179.76 186.92 178.50 C 186.94 177.24 185.93 176.21 184.67 176.20 Z M 183.92 176.22 L 182.73 176.05 C 181.48 175.88 180.33 176.74 180.16 177.99 C 179.99 179.23 180.85 180.38 182.10 180.56 L 183.29 180.72 C 184.53 180.90 185.68 180.03 185.86 178.79 C 186.03 177.54 185.16 176.39 183.92 176.22 Z M 182.91 176.09 L 181.99 175.89 C 180.77 175.61 179.56 176.38 179.28 177.60 C 179.01 178.82 179.78 180.03 181.00 180.31 L 181.92 180.51 C 183.14 180.79 184.35 180.02 184.62 178.80 C 184.90 177.58 184.13 176.37 182.91 176.09 Z M 182.10 175.93 L 181.14 175.67 C 179.94 175.33 178.71 176.03 178.37 177.23 C 178.04 178.42 178.74 179.66 179.93 179.99 L 180.89 180.26 C 182.09 180.59 183.33 179.89 183.66 178.70 C 183.99 177.50 183.29 176.27 182.10 175.93 Z M 181.21 175.71 L 180.23 175.40 C 179.06 175.03 177.81 175.67 177.44 176.84 C 177.07 178.01 177.71 179.26 178.88 179.64 L 179.86 179.95 C 181.03 180.32 182.28 179.68 182.65 178.51 C 183.03 177.34 182.38 176.08 181.21 175.71 Z M 180.29 175.44 L 179.32 175.10 C 178.17 174.69 176.91 175.30 176.51 176.45 C 176.10 177.59 176.71 178.85 177.85 179.25 L 178.83 179.60 C 179.98 180.00 181.23 179.40 181.64 178.25 C 182.04 177.10 181.44 175.84 180.29 175.44 Z M 179.36 175.13 L 178.41 174.78 C 177.28 174.35 176.02 174.92 175.60 176.05 C 175.17 177.18 175.74 178.44 176.87 178.86 L 177.81 179.22 C 178.94 179.64 180.20 179.07 180.63 177.95 C 181.05 176.82 180.48 175.56 179.36 175.13 Z M 178.43 174.83 L 177.44 174.43 C 176.34 173.99 175.09 174.53 174.66 175.62 C 174.22 176.72 174.75 177.97 175.85 178.41 L 176.84 178.81 C 177.94 179.24 179.19 178.71 179.63 177.61 C 180.06 176.52 179.53 175.27 178.43 174.83 Z M 177.45 174.52 L 176.46 174.11 C 175.41 173.66 174.21 174.15 173.76 175.20 C 173.32 176.25 173.81 177.46 174.86 177.90 L 175.84 178.32 C 176.89 178.76 178.09 178.27 178.54 177.22 C 178.98 176.18 178.49 174.97 177.45 174.52 Z M 176.46 174.21 L 175.55 173.80 C 174.56 173.35 173.39 173.80 172.95 174.79 C 172.50 175.78 172.95 176.95 173.94 177.39 L 174.86 177.80 C 175.85 178.24 177.01 177.80 177.45 176.81 C 177.90 175.81 177.45 174.65 176.46 174.21 Z M 175.54 173.90 L 174.69 173.50 C 173.75 173.06 172.64 173.46 172.19 174.40 C 171.75 175.33 172.16 176.45 173.09 176.89 L 173.95 177.29 C 174.88 177.73 176.00 177.33 176.44 176.39 C 176.88 175.46 176.48 174.34 175.54 173.90 Z M 174.68 173.59 L 173.86 173.19 C 172.98 172.75 171.91 173.12 171.47 174.00 C 171.04 174.89 171.40 175.96 172.28 176.39 L 173.10 176.79 C 173.99 177.23 175.06 176.87 175.49 175.98 C 175.93 175.10 175.56 174.03 174.68 173.59 Z M 173.86 173.26 L 172.95 172.79 C 172.10 172.35 171.06 172.68 170.63 173.53 C 170.19 174.38 170.52 175.42 171.37 175.85 L 172.28 176.32 C 173.13 176.76 174.17 176.43 174.61 175.58 C 175.04 174.73 174.71 173.69 173.86 173.26 Z M 172.97 172.84 L 172.10 172.36 C 171.28 171.91 170.26 172.21 169.81 173.03 C 169.36 173.85 169.66 174.88 170.48 175.33 L 171.35 175.80 C 172.17 176.25 173.19 175.95 173.64 175.13 C 174.09 174.31 173.79 173.28 172.97 172.84 Z M 172.13 172.41 L 171.28 171.92 C 170.49 171.46 169.48 171.72 169.01 172.51 C 168.55 173.30 168.82 174.31 169.61 174.78 L 170.45 175.27 C 171.24 175.74 172.26 175.47 172.72 174.68 C 173.18 173.89 172.92 172.88 172.13 172.41 Z M 171.31 171.97 L 170.48 171.45 C 169.72 170.97 168.71 171.20 168.23 171.96 C 167.75 172.72 167.98 173.73 168.75 174.20 L 169.58 174.73 C 170.34 175.21 171.34 174.98 171.82 174.21 C 172.30 173.45 172.07 172.45 171.31 171.97 Z M 170.51 171.48 L 169.69 170.93 C 168.95 170.44 167.94 170.64 167.45 171.38 C 166.95 172.13 167.15 173.13 167.90 173.63 L 168.72 174.17 C 169.46 174.67 170.46 174.46 170.96 173.72 C 171.45 172.98 171.25 171.97 170.51 171.48 Z M 169.71 170.95 L 168.89 170.38 C 168.15 169.87 167.15 170.06 166.64 170.79 C 166.13 171.52 166.32 172.53 167.05 173.04 L 167.87 173.61 C 168.61 174.12 169.61 173.93 170.12 173.20 C 170.63 172.47 170.45 171.46 169.71 170.95 Z M 168.90 170.39 L 168.07 169.81 C 167.35 169.29 166.34 169.46 165.82 170.19 C 165.31 170.92 165.48 171.92 166.21 172.44 L 167.04 173.03 C 167.76 173.54 168.77 173.37 169.29 172.64 C 169.80 171.91 169.63 170.91 168.90 170.39 Z M 168.08 169.81 L 167.65 169.50 C 166.92 168.99 165.91 169.15 165.40 169.88 C 164.88 170.60 165.05 171.61 165.77 172.13 L 166.20 172.43 C 166.93 172.95 167.93 172.78 168.45 172.06 C 168.97 171.33 168.80 170.33 168.08 169.81 Z"
      fill="black"
      fill-rule="nonzero" /><path d="M 155.14 138.97 L 155.14 139.94 C 155.14 141.14 156.12 142.11 157.32 142.11 C 158.52 142.11 159.50 141.14 159.49 139.94 L 159.49 138.96 C 159.49 137.76 158.52 136.79 157.32 136.79 C 156.12 136.79 155.14 137.77 155.14 138.97 Z M 155.13 139.95 L 155.13 140.93 C 155.14 142.14 156.12 143.12 157.33 143.11 C 158.54 143.11 159.52 142.12 159.52 140.91 L 159.51 139.93 C 159.51 138.72 158.52 137.74 157.31 137.74 C 156.10 137.75 155.12 138.74 155.13 139.95 Z M 155.11 140.94 L 155.12 141.94 C 155.14 143.16 156.14 144.14 157.36 144.13 C 158.58 144.11 159.56 143.11 159.55 141.89 L 159.53 140.89 C 159.52 139.67 158.52 138.69 157.30 138.71 C 156.08 138.72 155.10 139.72 155.11 140.94 Z M 155.11 141.97 L 155.13 142.99 C 155.15 144.22 156.17 145.20 157.40 145.17 C 158.63 145.15 159.61 144.13 159.58 142.90 L 159.56 141.87 C 159.54 140.64 158.52 139.66 157.29 139.69 C 156.06 139.72 155.08 140.73 155.11 141.97 Z M 155.12 143.02 L 155.15 144.05 C 155.19 145.28 156.23 146.25 157.47 146.21 C 158.70 146.17 159.67 145.13 159.63 143.90 L 159.60 142.87 C 159.55 141.63 158.52 140.66 157.28 140.70 C 156.04 140.75 155.08 141.78 155.12 143.02 Z M 155.15 144.07 L 155.20 145.10 C 155.25 146.33 156.30 147.29 157.53 147.24 C 158.77 147.18 159.73 146.14 159.68 144.90 L 159.63 143.87 C 159.58 142.64 158.53 141.68 157.29 141.73 C 156.06 141.79 155.10 142.83 155.15 144.07 Z M 155.20 145.11 L 155.25 146.14 C 155.32 147.37 156.37 148.32 157.60 148.26 C 158.84 148.20 159.79 147.14 159.72 145.91 L 159.67 144.89 C 159.61 143.65 158.56 142.70 157.32 142.76 C 156.09 142.83 155.14 143.88 155.20 145.11 Z M 155.26 146.15 L 155.31 147.14 C 155.38 148.38 156.43 149.32 157.67 149.25 C 158.90 149.18 159.84 148.13 159.77 146.90 L 159.72 145.90 C 159.65 144.67 158.60 143.73 157.37 143.79 C 156.13 143.86 155.19 144.91 155.26 146.15 Z M 155.32 147.15 L 155.37 148.09 C 155.44 149.32 156.49 150.26 157.72 150.20 C 158.95 150.13 159.89 149.07 159.82 147.84 L 159.77 146.90 C 159.70 145.67 158.65 144.73 157.42 144.79 C 156.19 144.86 155.25 145.92 155.32 147.15 Z M 155.37 148.09 L 155.43 149.15 C 155.49 150.38 156.54 151.32 157.77 151.26 C 159.00 151.19 159.94 150.14 159.88 148.91 L 159.82 147.85 C 159.76 146.62 158.71 145.68 157.48 145.74 C 156.25 145.81 155.30 146.86 155.37 148.09 Z M 155.43 149.14 L 155.47 150.14 C 155.54 151.37 156.58 152.32 157.81 152.26 C 159.04 152.20 159.99 151.15 159.93 149.92 L 159.88 148.92 C 159.82 147.69 158.77 146.74 157.54 146.80 C 156.31 146.86 155.36 147.91 155.43 149.14 Z M 155.47 150.14 L 155.52 151.09 C 155.57 152.32 156.62 153.28 157.85 153.22 C 159.08 153.16 160.03 152.12 159.97 150.89 L 159.93 149.93 C 159.87 148.70 158.83 147.75 157.60 147.81 C 156.37 147.86 155.42 148.90 155.47 150.14 Z M 155.52 151.09 L 155.56 152.04 C 155.61 153.27 156.65 154.23 157.88 154.18 C 159.11 154.12 160.07 153.08 160.01 151.85 L 159.97 150.90 C 159.92 149.67 158.88 148.71 157.65 148.76 C 156.42 148.82 155.46 149.86 155.52 151.09 Z M 155.56 152.04 L 155.60 153.01 C 155.65 154.24 156.69 155.20 157.92 155.15 C 159.15 155.09 160.11 154.05 160.06 152.82 L 160.01 151.85 C 159.96 150.62 158.92 149.67 157.69 149.72 C 156.46 149.77 155.51 150.81 155.56 152.04 Z M 155.60 153.02 L 155.64 154.01 C 155.70 155.24 156.74 156.20 157.97 156.14 C 159.20 156.09 160.15 155.05 160.10 153.82 L 160.06 152.82 C 160.00 151.59 158.96 150.64 157.73 150.69 C 156.50 150.75 155.54 151.79 155.60 153.02 Z M 155.64 154.03 L 155.69 155.04 C 155.76 156.27 156.80 157.22 158.03 157.16 C 159.26 157.10 160.21 156.05 160.15 154.82 L 160.10 153.80 C 160.04 152.57 158.99 151.63 157.76 151.69 C 156.53 151.75 155.58 152.80 155.64 154.03 Z M 155.70 155.06 L 155.75 156.07 C 155.82 157.30 156.88 158.24 158.11 158.17 C 159.34 158.10 160.28 157.04 160.21 155.81 L 160.15 154.80 C 160.08 153.57 159.02 152.63 157.79 152.70 C 156.57 152.78 155.63 153.83 155.70 155.06 Z M 155.75 156.08 L 155.82 157.07 C 155.90 158.30 156.96 159.23 158.19 159.15 C 159.42 159.07 160.35 158.01 160.27 156.78 L 160.21 155.80 C 160.13 154.57 159.07 153.64 157.84 153.72 C 156.61 153.80 155.68 154.86 155.75 156.08 Z M 155.82 157.07 L 155.88 158.07 C 155.97 159.29 157.03 160.22 158.26 160.14 C 159.49 160.06 160.42 159.00 160.34 157.77 L 160.27 156.77 C 160.19 155.54 159.12 154.62 157.89 154.70 C 156.67 154.78 155.74 155.84 155.82 157.07 Z M 155.88 158.06 L 155.95 159.07 C 156.03 160.30 157.09 161.23 158.32 161.15 C 159.55 161.07 160.48 160.01 160.40 158.78 L 160.34 157.77 C 160.26 156.54 159.20 155.61 157.97 155.69 C 156.74 155.77 155.81 156.83 155.88 158.06 Z M 155.95 159.05 L 156.01 160.06 C 156.08 161.29 157.13 162.23 158.36 162.16 C 159.59 162.09 160.53 161.03 160.46 159.81 L 160.40 158.80 C 160.33 157.57 159.28 156.63 158.05 156.70 C 156.82 156.77 155.88 157.82 155.95 159.05 Z M 156.01 160.04 L 156.06 161.02 C 156.12 162.25 157.16 163.20 158.39 163.14 C 159.62 163.08 160.57 162.04 160.51 160.81 L 160.46 159.82 C 160.40 158.60 159.35 157.65 158.12 157.71 C 156.90 157.77 155.95 158.81 156.01 160.04 Z M 156.06 161.01 L 156.10 162.01 C 156.15 163.23 157.19 164.19 158.42 164.13 C 159.64 164.08 160.60 163.05 160.55 161.82 L 160.50 160.82 C 160.45 159.59 159.42 158.64 158.19 158.69 C 156.96 158.74 156.01 159.78 156.06 161.01 Z M 156.10 162.00 L 156.14 163.00 C 156.19 164.23 157.22 165.19 158.44 165.14 C 159.67 165.09 160.63 164.06 160.58 162.84 L 160.54 161.83 C 160.50 160.60 159.47 159.64 158.24 159.69 C 157.01 159.74 156.06 160.77 156.10 162.00 Z M 156.14 163.00 L 156.18 164.02 C 156.22 165.24 157.25 166.20 158.48 166.16 C 159.70 166.11 160.66 165.08 160.62 163.86 L 160.58 162.84 C 160.54 161.62 159.51 160.66 158.28 160.70 C 157.06 160.74 156.10 161.77 156.14 163.00 Z M 156.18 164.01 L 156.21 164.99 C 156.26 166.21 157.28 167.17 158.51 167.13 C 159.73 167.09 160.69 166.06 160.65 164.84 L 160.61 163.86 C 160.57 162.64 159.54 161.68 158.32 161.72 C 157.10 161.76 156.14 162.79 156.18 164.01 Z M 156.22 164.99 L 156.25 165.98 C 156.29 167.20 157.32 168.16 158.54 168.11 C 159.76 168.07 160.72 167.05 160.68 165.82 L 160.64 164.84 C 160.60 163.61 159.58 162.66 158.35 162.70 C 157.13 162.74 156.18 163.77 156.22 164.99 Z M 156.25 165.97 L 156.29 166.98 C 156.33 168.20 157.35 169.15 158.57 169.11 C 159.80 169.07 160.75 168.05 160.71 166.82 L 160.68 165.82 C 160.63 164.60 159.61 163.65 158.39 163.69 C 157.17 163.73 156.21 164.75 156.25 165.97 Z M 156.29 166.97 L 156.33 167.99 C 156.37 169.21 157.39 170.17 158.61 170.13 C 159.83 170.09 160.78 169.06 160.74 167.84 L 160.71 166.83 C 160.67 165.61 159.64 164.65 158.43 164.69 C 157.21 164.73 156.25 165.75 156.29 166.97 Z M 156.33 167.99 L 156.36 168.99 C 156.40 170.21 157.42 171.16 158.64 171.12 C 159.86 171.08 160.81 170.06 160.77 168.84 L 160.74 167.85 C 160.70 166.63 159.68 165.67 158.46 165.71 C 157.24 165.75 156.29 166.77 156.33 167.99 Z M 156.37 168.99 L 156.40 169.96 C 156.44 171.18 157.45 172.13 158.67 172.09 C 159.88 172.05 160.83 171.04 160.80 169.82 L 160.76 168.85 C 160.73 167.63 159.71 166.68 158.50 166.72 C 157.28 166.76 156.33 167.77 156.37 168.99 Z M 156.41 169.96 L 156.44 170.96 C 156.48 172.17 157.49 173.12 158.70 173.08 C 159.91 173.04 160.86 172.03 160.82 170.82 L 160.79 169.82 C 160.75 168.61 159.74 167.66 158.53 167.70 C 157.32 167.74 156.37 168.75 156.41 169.96 Z M 156.45 170.95 L 156.48 171.96 C 156.51 173.17 157.52 174.12 158.73 174.08 C 159.93 174.04 160.88 173.03 160.84 171.83 L 160.81 170.82 C 160.77 169.61 159.77 168.67 158.56 168.70 C 157.36 168.74 156.41 169.75 156.45 170.95 Z M 156.48 171.96 L 156.52 172.99 C 156.55 174.19 157.56 175.13 158.76 175.10 C 159.96 175.06 160.90 174.05 160.87 172.85 L 160.84 171.83 C 160.80 170.63 159.80 169.68 158.59 169.72 C 157.39 169.76 156.45 170.76 156.48 171.96 Z M 156.52 172.99 L 156.55 173.97 C 156.59 175.17 157.59 176.11 158.79 176.07 C 159.98 176.04 160.93 175.04 160.89 173.84 L 160.86 172.85 C 160.82 171.66 159.82 170.71 158.63 170.75 C 157.43 170.79 156.49 171.79 156.52 172.99 Z M 156.56 173.97 L 156.59 174.94 C 156.62 176.13 157.62 177.07 158.81 177.03 C 160.01 177.00 160.95 176.00 160.91 174.81 L 160.88 173.84 C 160.85 172.65 159.85 171.71 158.66 171.74 C 157.47 171.78 156.53 172.78 156.56 173.97 Z M 156.60 174.93 L 156.62 175.91 C 156.66 177.10 157.65 178.04 158.83 178.01 C 160.02 177.98 160.96 176.99 160.93 175.80 L 160.90 174.81 C 160.87 173.62 159.88 172.69 158.69 172.72 C 157.50 172.75 156.56 173.74 156.60 174.93 Z M 156.63 175.91 L 156.65 176.91 C 156.68 178.10 157.67 179.03 158.85 179.01 C 160.04 178.98 160.97 177.99 160.95 176.81 L 160.92 175.80 C 160.89 174.62 159.91 173.68 158.73 173.71 C 157.54 173.74 156.60 174.72 156.63 175.91 Z M 156.66 176.90 L 156.68 177.93 C 156.71 179.11 157.68 180.05 158.86 180.03 C 160.04 180.01 160.98 179.03 160.96 177.85 L 160.94 176.82 C 160.91 175.64 159.94 174.70 158.76 174.72 C 157.58 174.75 156.64 175.72 156.66 176.90 Z M 156.69 177.92 L 156.71 178.95 C 156.72 180.13 157.69 181.07 158.87 181.05 C 160.04 181.03 160.98 180.06 160.97 178.89 L 160.95 177.86 C 160.93 176.68 159.97 175.74 158.79 175.76 C 157.61 175.78 156.67 176.75 156.69 177.92 Z M 156.71 178.94 L 156.72 179.91 C 156.73 181.08 157.69 182.03 158.87 182.01 C 160.04 182.00 160.98 181.04 160.97 179.87 L 160.96 178.90 C 160.95 177.73 159.99 176.78 158.81 176.80 C 157.64 176.81 156.70 177.77 156.71 178.94 Z M 156.73 179.90 L 156.74 180.89 C 156.74 182.06 157.70 183.00 158.87 183.00 C 160.03 182.99 160.98 182.04 160.97 180.87 L 160.96 179.88 C 160.95 178.71 160.00 177.77 158.83 177.77 C 157.66 177.78 156.72 178.74 156.73 179.90 Z M 156.74 180.89 L 156.75 181.89 C 156.75 183.06 157.70 184.00 158.86 183.99 C 160.03 183.99 160.97 183.04 160.96 181.88 L 160.96 180.87 C 160.96 179.71 160.01 178.77 158.84 178.77 C 157.68 178.78 156.74 179.72 156.74 180.89 Z M 156.75 181.89 L 156.76 182.90 C 156.76 184.06 157.70 185.00 158.86 185.00 C 160.02 185.00 160.96 184.06 160.96 182.90 L 160.96 181.88 C 160.96 180.72 160.01 179.78 158.85 179.78 C 157.69 179.79 156.75 180.73 156.75 181.89 Z M 156.76 182.90 L 156.76 183.92 C 156.76 185.08 157.70 186.01 158.86 186.01 C 160.02 186.01 160.95 185.07 160.95 183.92 L 160.95 182.90 C 160.95 181.74 160.01 180.80 158.86 180.80 C 157.70 180.81 156.76 181.74 156.76 182.90 Z M 156.77 183.92 L 156.77 184.93 C 156.77 186.09 157.71 187.02 158.86 187.02 C 160.01 187.02 160.95 186.09 160.95 184.93 L 160.95 183.92 C 160.95 182.77 160.01 181.83 158.86 181.83 C 157.70 181.83 156.77 182.77 156.77 183.92 Z M 156.78 184.93 L 156.78 185.93 C 156.78 187.08 157.71 188.01 158.86 188.01 C 160.01 188.01 160.94 187.08 160.94 185.93 L 160.94 184.93 C 160.94 183.78 160.01 182.85 158.86 182.85 C 157.71 182.85 156.78 183.78 156.78 184.93 Z M 156.78 185.93 L 156.78 186.93 C 156.78 188.08 157.71 189.01 158.86 189.01 C 160.00 189.01 160.93 188.08 160.93 186.93 L 160.93 185.93 C 160.93 184.79 160.00 183.86 158.86 183.86 C 157.71 183.86 156.78 184.79 156.78 185.93 Z M 156.79 186.93 L 156.79 187.93 C 156.79 189.07 157.72 190.00 158.86 190.00 C 160.00 190.00 160.92 189.07 160.92 187.93 L 160.92 186.93 C 160.92 185.79 160.00 184.87 158.86 184.87 C 157.72 184.87 156.79 185.79 156.79 186.93 Z M 156.80 187.93 L 156.80 188.93 C 156.80 190.07 157.72 190.99 158.86 190.99 C 160.00 190.99 160.92 190.07 160.92 188.93 L 160.92 187.93 C 160.92 186.79 160.00 185.87 158.86 185.87 C 157.72 185.87 156.80 186.79 156.80 187.93 Z M 156.81 188.93 L 156.81 189.93 C 156.81 191.06 157.73 191.98 158.86 191.98 C 159.99 191.98 160.91 191.06 160.91 189.93 L 160.91 188.93 C 160.91 187.80 159.99 186.88 158.86 186.88 C 157.73 186.88 156.81 187.80 156.81 188.93 Z M 156.81 189.93 L 156.81 190.93 C 156.81 192.06 157.73 192.97 158.86 192.97 C 159.99 192.97 160.90 192.06 160.90 190.93 L 160.90 189.93 C 160.90 188.80 159.99 187.89 158.86 187.89 C 157.73 187.89 156.81 188.80 156.81 189.93 Z M 156.82 190.93 L 156.82 191.92 C 156.82 193.04 157.73 193.96 158.86 193.96 C 159.98 193.96 160.90 193.04 160.90 191.92 L 160.90 190.93 C 160.90 189.80 159.98 188.89 158.86 188.89 C 157.73 188.89 156.82 189.80 156.82 190.93 Z M 156.83 191.92 L 156.83 192.91 C 156.83 194.03 157.74 194.94 158.86 194.94 C 159.98 194.94 160.89 194.03 160.89 192.91 L 160.89 191.92 C 160.89 190.80 159.98 189.89 158.86 189.89 C 157.74 189.89 156.83 190.80 156.83 191.92 Z M 156.83 192.91 L 156.83 193.91 C 156.83 195.03 157.74 195.94 158.86 195.94 C 159.98 195.94 160.88 195.03 160.88 193.91 L 160.88 192.91 C 160.88 191.80 159.98 190.89 158.86 190.89 C 157.74 190.89 156.83 191.80 156.83 192.91 Z M 156.84 193.91 L 156.84 194.91 C 156.84 196.03 157.74 196.93 158.86 196.93 C 159.97 196.93 160.87 196.03 160.87 194.91 L 160.87 193.91 C 160.87 192.80 159.97 191.90 158.86 191.90 C 157.74 191.90 156.84 192.80 156.84 193.91 Z M 156.85 194.91 L 156.85 195.92 C 156.85 197.03 157.75 197.93 158.86 197.93 C 159.97 197.93 160.87 197.03 160.87 195.92 L 160.87 194.91 C 160.87 193.80 159.97 192.91 158.86 192.91 C 157.75 192.91 156.85 193.80 156.85 194.91 Z M 156.86 195.92 L 156.86 196.93 C 156.86 198.04 157.75 198.93 158.86 198.93 C 159.96 198.93 160.86 198.04 160.86 196.93 L 160.86 195.92 C 160.86 194.82 159.96 193.92 158.86 193.92 C 157.75 193.92 156.86 194.82 156.86 195.92 Z M 156.86 196.93 L 156.86 197.92 C 156.86 199.03 157.76 199.92 158.86 199.92 C 159.96 199.92 160.85 199.03 160.85 197.92 L 160.85 196.93 C 160.85 195.83 159.96 194.93 158.86 194.93 C 157.76 194.93 156.86 195.83 156.86 196.93 Z M 156.87 197.92 L 156.87 198.92 C 156.87 200.02 157.76 200.91 158.86 200.91 C 159.96 200.91 160.85 200.02 160.85 198.92 L 160.85 197.92 C 160.85 196.83 159.96 195.94 158.86 195.94 C 157.76 195.94 156.87 196.83 156.87 197.92 Z M 156.88 198.92 L 156.88 199.92 C 156.88 201.02 157.76 201.90 158.86 201.90 C 159.95 201.90 160.84 201.02 160.84 199.92 L 160.84 198.92 C 160.84 197.83 159.95 196.94 158.86 196.94 C 157.76 196.94 156.88 197.83 156.88 198.92 Z M 156.88 199.92 L 156.88 200.92 C 156.88 202.01 157.77 202.90 158.86 202.90 C 159.95 202.90 160.83 202.01 160.83 200.92 L 160.83 199.92 C 160.83 198.83 159.95 197.95 158.86 197.95 C 157.77 197.95 156.88 198.83 156.88 199.92 Z M 156.89 200.92 L 156.89 201.93 C 156.89 203.01 157.77 203.89 158.86 203.89 C 159.95 203.89 160.83 203.01 160.83 201.93 L 160.83 200.92 C 160.83 199.84 159.95 198.96 158.86 198.96 C 157.77 198.96 156.89 199.84 156.89 200.92 Z M 156.90 201.93 L 156.90 202.93 C 156.90 204.01 157.77 204.89 158.86 204.89 C 159.94 204.89 160.82 204.01 160.82 202.93 L 160.82 201.93 C 160.82 200.84 159.94 199.97 158.86 199.97 C 157.77 199.97 156.90 200.84 156.90 201.93 Z M 156.90 202.93 L 156.90 203.94 C 156.90 205.02 157.78 205.89 158.86 205.90 C 159.94 205.90 160.81 205.02 160.81 203.94 L 160.81 202.93 C 160.81 201.85 159.94 200.98 158.86 200.98 C 157.78 200.98 156.90 201.85 156.90 202.93 Z M 156.91 203.94 L 156.91 204.95 C 156.91 206.03 157.78 206.90 158.86 206.90 C 159.93 206.90 160.80 206.03 160.80 204.95 L 160.80 203.94 C 160.81 202.87 159.93 201.99 158.86 201.99 C 157.78 201.99 156.91 202.86 156.91 203.94 Z M 156.92 204.95 L 156.92 205.96 C 156.91 207.03 157.78 207.90 158.85 207.90 C 159.92 207.90 160.79 207.03 160.80 205.96 L 160.80 204.95 C 160.80 203.88 159.93 203.01 158.86 203.01 C 157.79 203.01 156.92 203.88 156.92 204.95 Z M 156.92 205.95 L 156.92 206.95 C 156.92 208.02 157.78 208.89 158.85 208.89 C 159.91 208.90 160.78 208.03 160.78 206.97 L 160.79 205.97 C 160.79 204.90 159.93 204.03 158.86 204.03 C 157.80 204.02 156.93 204.89 156.92 205.95 Z M 156.93 206.95 L 156.92 207.94 C 156.92 209.01 157.77 209.87 158.83 209.88 C 159.90 209.89 160.76 209.03 160.77 207.97 L 160.78 206.97 C 160.78 205.91 159.93 205.04 158.86 205.04 C 157.80 205.03 156.93 205.89 156.93 206.95 Z M 156.93 207.94 L 156.92 208.92 C 156.91 209.98 157.76 210.85 158.82 210.86 C 159.88 210.87 160.74 210.02 160.75 208.96 L 160.76 207.97 C 160.77 206.91 159.92 206.05 158.86 206.04 C 157.81 206.03 156.94 206.88 156.93 207.94 Z M 156.93 208.92 L 156.91 209.92 C 156.90 210.97 157.74 211.84 158.80 211.85 C 159.85 211.87 160.72 211.02 160.73 209.97 L 160.75 208.97 C 160.76 207.91 159.92 207.04 158.86 207.03 C 157.81 207.02 156.94 207.86 156.93 208.92 Z M 156.92 209.91 L 156.91 210.92 C 156.89 211.97 157.72 212.84 158.77 212.86 C 159.82 212.88 160.69 212.04 160.71 210.99 L 160.73 209.98 C 160.74 208.93 159.91 208.06 158.86 208.04 C 157.81 208.02 156.94 208.86 156.92 209.91 Z M 156.91 210.91 L 156.89 211.92 C 156.87 212.96 157.70 213.83 158.74 213.85 C 159.79 213.88 160.66 213.05 160.68 212.00 L 160.70 211.00 C 160.72 209.95 159.89 209.09 158.85 209.06 C 157.80 209.04 156.94 209.87 156.91 210.91 Z M 156.90 211.91 L 156.87 212.91 C 156.84 213.95 157.67 214.81 158.71 214.84 C 159.75 214.87 160.62 214.05 160.64 213.01 L 160.67 212.01 C 160.70 210.97 159.88 210.10 158.83 210.07 C 157.79 210.05 156.93 210.87 156.90 211.91 Z M 156.88 212.90 L 156.85 213.89 C 156.82 214.92 157.63 215.79 158.67 215.82 C 159.71 215.86 160.57 215.04 160.60 214.00 L 160.64 213.01 C 160.67 211.98 159.85 211.11 158.82 211.08 C 157.78 211.05 156.91 211.86 156.88 212.90 Z M 156.86 213.88 L 156.82 214.87 C 156.79 215.90 157.59 216.77 158.63 216.80 C 159.66 216.84 160.52 216.03 160.56 215.00 L 160.60 214.01 C 160.63 212.98 159.83 212.11 158.79 212.08 C 157.76 212.04 156.89 212.85 156.86 213.88 Z M 156.83 214.86 L 156.79 215.89 C 156.75 216.92 157.55 217.79 158.58 217.83 C 159.60 217.87 160.47 217.07 160.51 216.04 L 160.55 215.01 C 160.59 213.98 159.79 213.11 158.77 213.07 C 157.74 213.03 156.87 213.83 156.83 214.86 Z M 156.80 215.89 L 156.75 216.94 C 156.71 217.96 157.50 218.82 158.52 218.87 C 159.55 218.91 160.41 218.12 160.46 217.10 L 160.50 216.05 C 160.55 215.03 159.75 214.16 158.73 214.11 C 157.71 214.07 156.84 214.86 156.80 215.89 Z M 156.76 216.93 L 156.71 217.96 C 156.67 218.98 157.45 219.84 158.47 219.89 C 159.49 219.94 160.35 219.15 160.40 218.14 L 160.45 217.10 C 160.49 216.09 159.71 215.22 158.69 215.18 C 157.67 215.13 156.81 215.91 156.76 216.93 Z M 156.72 217.96 L 156.67 218.96 C 156.62 219.97 157.41 220.83 158.42 220.88 C 159.43 220.93 160.29 220.15 160.34 219.14 L 160.39 218.14 C 160.44 217.13 159.66 216.26 158.64 216.22 C 157.63 216.17 156.77 216.95 156.72 217.96 Z M 156.68 218.96 L 156.64 219.92 C 156.59 220.92 157.36 221.78 158.37 221.83 C 159.38 221.88 160.24 221.10 160.28 220.10 L 160.33 219.14 C 160.38 218.13 159.60 217.27 158.60 217.22 C 157.59 217.18 156.73 217.95 156.68 218.96 Z M 156.64 219.92 L 156.60 220.85 C 156.55 221.85 157.33 222.70 158.33 222.75 C 159.33 222.80 160.18 222.02 160.23 221.02 L 160.28 220.09 C 160.32 219.09 159.55 218.24 158.55 218.19 C 157.55 218.14 156.69 218.92 156.64 219.92 Z M 156.61 220.85 L 156.56 221.90 C 156.52 222.89 157.29 223.74 158.29 223.78 C 159.28 223.83 160.13 223.06 160.17 222.06 L 160.22 221.02 C 160.27 220.02 159.49 219.17 158.50 219.13 C 157.50 219.08 156.65 219.86 156.61 220.85 Z M 156.57 221.91 L 156.53 222.89 C 156.49 223.88 157.27 224.72 158.26 224.76 C 159.25 224.80 160.08 224.03 160.12 223.03 L 160.16 222.05 C 160.20 221.06 159.43 220.22 158.44 220.18 C 157.45 220.14 156.61 220.91 156.57 221.91 Z M 156.54 222.90 L 156.51 223.87 C 156.48 224.86 157.25 225.68 158.24 225.71 C 159.22 225.75 160.05 224.97 160.08 223.99 L 160.11 223.02 C 160.15 222.03 159.37 221.21 158.39 221.18 C 157.40 221.15 156.58 221.92 156.54 222.90 Z M 156.52 223.89 L 156.50 224.87 C 156.48 225.85 157.25 226.67 158.23 226.69 C 159.21 226.71 160.02 225.94 160.05 224.96 L 160.07 223.97 C 160.10 222.99 159.32 222.18 158.34 222.15 C 157.36 222.13 156.55 222.91 156.52 223.89 Z M 156.50 224.89 L 156.48 226.18 C 156.46 227.16 157.25 227.97 158.23 227.99 C 159.21 228.00 160.02 227.22 160.03 226.23 L 160.05 224.94 C 160.06 223.96 159.28 223.15 158.30 223.14 C 157.32 223.12 156.51 223.91 156.50 224.89 Z M 156.46 226.20 L 156.45 227.43 C 156.44 228.42 157.24 229.23 158.23 229.24 C 159.22 229.24 160.03 228.45 160.04 227.45 L 160.05 226.22 C 160.06 225.23 159.26 224.42 158.27 224.41 C 157.28 224.40 156.47 225.20 156.46 226.20 Z M 156.42 227.43 L 156.42 228.08 C 156.42 229.09 157.23 229.91 158.24 229.91 C 159.24 229.91 160.06 229.10 160.06 228.10 L 160.07 227.45 C 160.07 226.44 159.26 225.62 158.25 225.62 C 157.25 225.61 156.43 226.43 156.42 227.43 Z M 160.08 228.09 L 160.08 227.91 C 160.08 226.89 159.25 226.07 158.24 226.07 C 157.23 226.07 156.41 226.90 156.41 227.91 L 156.41 228.09 C 156.41 229.10 157.23 229.92 158.24 229.92 C 159.26 229.92 160.08 229.10 160.08 228.09 Z M 160.06 227.91 L 160.06 227.32 C 160.06 226.32 159.25 225.50 158.24 225.50 C 157.24 225.50 156.42 226.32 156.42 227.32 L 156.42 227.91 C 156.42 228.91 157.24 229.73 158.24 229.73 C 159.25 229.73 160.06 228.91 160.06 227.91 Z M 160.03 227.32 L 160.03 226.42 C 160.03 225.43 159.23 224.63 158.24 224.63 C 157.25 224.63 156.45 225.43 156.45 226.42 L 156.45 227.32 C 156.45 228.31 157.25 229.11 158.24 229.11 C 159.23 229.11 160.03 228.31 160.03 227.32 Z M 160.01 226.42 L 160.01 225.29 C 160.01 224.32 159.22 223.53 158.24 223.53 C 157.27 223.53 156.48 224.32 156.48 225.29 L 156.48 226.42 C 156.48 227.40 157.27 228.19 158.24 228.19 C 159.22 228.19 160.01 227.40 160.01 226.42 Z M 159.98 225.29 L 159.98 224.00 C 159.98 223.04 159.20 222.27 158.24 222.27 C 157.28 222.27 156.51 223.04 156.51 224.00 L 156.51 225.29 C 156.51 226.25 157.28 227.03 158.24 227.03 C 159.20 227.03 159.98 226.25 159.98 225.29 Z M 159.95 224.00 L 159.95 222.63 C 159.95 221.69 159.18 220.92 158.24 220.92 C 157.30 220.92 156.54 221.69 156.54 222.63 L 156.54 224.00 C 156.54 224.94 157.30 225.71 158.24 225.71 C 159.18 225.71 159.95 224.94 159.95 224.00 Z M 159.93 222.63 L 159.93 222.51 C 159.93 221.58 159.18 220.82 158.24 220.82 C 157.31 220.82 156.55 221.58 156.55 222.51 L 156.55 222.63 C 156.55 223.56 157.31 224.32 158.24 224.32 C 159.18 224.32 159.93 223.56 159.93 222.63 Z"
      fill="black"
      fill-rule="nonzero" /></svg>