<svg xmlns="http://www.w3.org/2000/svg" version="1.0" width="937.000000pt" height="937.000000pt" viewBox="0 0 937.000000 937.000000" preserveAspectRatio="xMidYMid meet">
  <defs/>
  <path fill="#000000" d="M692.3,224.5 C690,225.5 688.8,226.9 688,229.7 C686.3,235.4 685.1,277.5 685,332.2 C685,359 684.5,390 684,401.2 C683.4,412.4 682.3,435.2 681.5,452 C680.6,468.8 679.9,485 679.7,488 L679.5,493.5 L674.8,493.5 C672.1,493.4 627.6,493.3 575.8,493.2 L481.7,493 L482.4,440.7 C483.1,381.6 484.2,354.6 486.6,331.5 C488.4,314.3 488.1,308.3 485,303.3 C482.1,298.4 479.5,297.2 461.3,292.5 C426.1,283.3 412.1,282 350.8,282 C324.8,282.1 296.3,282.5 287.5,283 C246.2,285.3 246.2,285.3 243.1,284.1 L240.1,282.8 L234.6,284.4 C231.4,285.4 228.6,286.8 228,288 C226.2,291.4 226.8,295.5 229.6,298.1 L232.2,300.5 L239.8,300.8 C244,301 258.3,300.5 271.5,299.6 C299.5,297.7 390.4,297.4 407.1,299 C412.8,299.6 422.5,301 428.5,302 C442.3,304.5 468.8,311.4 470.3,312.9 C471.1,313.7 471.1,317 470.2,325.2 C467.1,354 465,409.8 465,465.1 L465,492.6 L433.8,493.8 C374.9,496.1 333.6,499.3 301.2,504.1 C293.9,505.1 283.3,506 277.6,506 L267.3,506 L265,503.5 C262.2,500.5 257.8,500.2 255.1,502.9 L253.2,504.8 L252.5,521.1 C252.1,530.1 252,583.4 252.2,639.5 L252.7,741.5 L254.4,748 C256.5,756.2 259.6,761.5 265.4,766.8 C270.4,771.5 273,772 276,769 C279.1,765.9 278.5,761.9 274.2,756.6 C272,754 269.7,750.2 268.9,748.2 L267.5,744.5 L267.2,633.2 L266.9,522 L278.7,522 C285.2,522 295,521.3 300.5,520.6 C333.6,515.9 384.9,512.3 433.8,511.3 L465.2,510.7 L464.6,595.6 C464.3,642.3 463.7,696 463.4,715 L462.8,749.5 L464.4,756.9 C467.3,770.5 473.2,776.7 486.4,779.8 L492.5,781.3 L581.5,781.6 C662.9,782 676.6,782.4 688.3,784.6 L691.2,785.2 L688.8,787.7 C687.5,789.1 683.2,792.7 679.3,795.6 C671.1,801.7 670,804.6 674.5,807.6 L677,809.3 L686.3,803.8 C691.3,800.7 698.7,796.6 702.5,794.5 C710.5,790.3 716.6,784.9 717.5,781.3 C717.8,779.9 717.6,777.2 716.9,775.3 C715.5,770.8 709.8,768.1 702,768 C699,768 692.2,767.2 687,766.3 L677.5,764.7 L584,764.1 L490.5,763.5 L486.7,761.8 C484.1,760.6 482.4,758.9 481.2,756.3 L479.5,752.5 L479.7,721.5 C479.8,704.4 480.3,681.3 480.9,670.1 C481.5,658.9 482,618.5 482,580.4 L482,511 L546.3,510.8 C632.2,510.4 660.4,510.5 673.5,511 L684.5,511.5 L687.7,509.7 C689.5,508.8 692.2,505.9 693.7,503.3 L696.4,498.6 L696.7,489 C696.9,483.8 697.7,467.3 698.5,452.5 C701.3,400.5 702,376 702.5,310 C702.8,273.4 703.5,240.8 703.9,237.5 C705,229.7 703.5,225.7 699,224.1 C697.2,223.5 695.7,223 695.6,223 C695.5,223.1 694.1,223.7 692.3,224.5 Z"/>
</svg>

