<svg xmlns="http://www.w3.org/2000/svg" version="1.0" width="937.000000pt" height="937.000000pt" viewBox="0 0 937.000000 937.000000" preserveAspectRatio="xMidYMid meet">
  <defs/>
  <path fill="#000000" d="M465.5,331.4 C462.6,332.7 460,336.5 460,339.5 C460,340.4 459,341 457.5,341 C454.6,341 451,344.6 451,347.5 C451,348.6 451.7,350.5 452.5,351.7 L453.9,353.8 L443.8,368.6 C420.9,402.4 399.1,428.7 379.7,446 C368.7,455.8 353.2,468 351.8,468 C351.4,468 351,467 350.8,465.8 C350.4,462.6 346.2,460.7 343.5,462.4 C340.8,464.1 336,473.6 336,477.2 C336,481.2 340,485 344.2,485 C351.8,484.9 366.5,476.4 386.1,460.6 C410.4,441 433.7,414.6 460.5,376.4 L467.8,366 L484.1,380.2 C493.1,388 504.3,397.8 509,402 C522,413.8 561.5,447.5 570.6,454.6 C590.9,470.4 622.2,489 628.7,489 C631.7,489 634.2,486.2 633.8,483.1 L633.5,480.5 L623,475 C603.4,464.7 593.8,457.1 559.5,424.5 C524.1,390.9 496.5,365.5 485.7,356.6 L475.9,348.5 L476.5,343 C477.2,336.4 475.8,333.2 471.5,331.4 C469.1,330.4 467.9,330.4 465.5,331.4 Z"/>
  <path fill="#000000" d="M425,434.5 C422,437.7 422,442.3 424.9,445.4 C426.1,446.7 429.9,449.1 433.3,450.6 L439.5,453.4 L470,454.1 C486.8,454.5 501.3,454.9 502.3,454.9 C503.6,455 504,455.9 504,458.8 C504,463.5 505.4,465 509.7,465 C513.8,465 515.3,462.4 515.4,455 C515.5,445.3 511.6,441.8 498.8,440 C494.8,439.4 480.2,438.4 466.5,437.7 L441.5,436.5 L437.2,434.2 C431.6,431.3 427.9,431.4 425,434.5 Z"/>
  <path fill="#000000" d="M440.5,496.9 C435.4,499.1 434,505.5 437.8,509.3 L440,511.4 L453.7,512.2 C478.8,513.5 513.3,524 525.1,533.9 C529.9,537.9 532,542.6 532,549.1 C532,555.6 529.8,559.2 522.3,564.6 C505.2,577.1 490,581.5 460,582.7 C451.5,583 443.5,583.7 442.2,584.1 C440.9,584.6 439.3,586.4 438.6,588.1 L437.3,591.3 L434.7,586.9 C431.1,580.7 428.7,574.2 424.1,558.3 C417.4,534.9 416.5,526.1 420,516.3 C422.5,509.2 422.5,505.8 420.2,503.7 C418.1,501.8 413.8,501.5 411.1,503 C410.1,503.5 408,506.7 406.4,510.2 C402.7,518.3 402,530.3 404.5,541.7 C407.1,553.3 415.6,577.4 420.2,586.4 C425.1,595.7 433.8,605.6 439.5,608.1 C444.1,610.2 451,610.6 452.8,608.8 C454.3,607.3 454.4,602.8 452.9,601.3 C452.1,600.5 462.2,600 491.6,599.7 C514.3,599.4 539.5,598.5 550,597.7 C560.2,596.8 568.6,596.1 568.7,596.1 C568.9,596 569.7,594.9 570.6,593.5 L572.2,591 L570.6,588.5 L569,586 L561.2,586 C553.4,586 533.5,584.6 524.7,583.4 L519.8,582.8 L527.4,577.9 C536.1,572.4 542.9,565.8 545.6,560.3 C547,557.4 547.5,554.3 547.5,547.5 L547.5,538.5 L544.6,533.1 C537.2,518.8 518.8,508.9 482.5,499.8 L470.5,496.8 L456.5,496.4 C448.8,496.2 441.6,496.4 440.5,496.9 Z"/>
</svg>

