<svg xmlns="http://www.w3.org/2000/svg" version="1.0" width="937.000000pt" height="937.000000pt" viewBox="0 0 937.000000 937.000000" preserveAspectRatio="xMidYMid meet">
  <defs/>
  <path fill="#000000" d="M436.2,286.7 C435.5,287 434.3,288.5 433.4,290.2 C431.5,293.9 432.3,301.6 435.1,307.2 C437.4,311.7 440.4,313.9 455,321.5 C462.8,325.6 466.8,328.3 467.6,330 C468.2,331.4 469.4,333.8 470.1,335.5 L471.6,338.5 L475,338.5 L478.5,338.5 L479.4,335.9 C480.6,332.5 477.8,323.1 474.4,319.1 C473,317.4 467.7,313.5 462.7,310.4 C457.6,307.3 452,303.7 450.3,302.3 L447,299.9 L447,295.4 C447,288.6 441.9,284.4 436.2,286.7 Z"/>
  <path fill="#000000" d="M515.2,332.2 C504.7,338.2 409.1,365.5 384.1,369.5 C381.7,369.9 378.9,371.1 377.9,372.1 C375.3,374.7 375.5,379.2 378.3,381.8 C381.3,384.7 387,384.7 401.8,381.9 C408,380.7 413.3,380 413.6,380.2 C415,381.6 398.6,453.5 395,461.7 C394.3,463.4 392.1,464.5 386.5,466.1 L378.9,468.3 L377.4,471.1 C374.5,476.7 379.4,482.4 386.2,481.4 C388.3,481 390,481.1 390,481.6 C390,482.1 388.4,488.3 386.5,495.3 C378.8,523.3 367.9,566.4 364.5,581.9 C357.7,613.1 350,654.3 350.6,656.2 C351.5,659.3 355.3,661.2 358.2,660.1 C359.6,659.6 361,658.4 361.3,657.5 C361.7,656.6 365.6,639.8 370.1,620.2 C380.6,574 380.2,575.3 405.3,485.2 L408.4,474 L430.9,466.6 C454.9,458.8 463.7,456.4 464.7,457.4 C465.8,458.5 466.3,469.6 465.6,475.4 L464.9,480.9 L460.7,483.3 C455.8,486.2 428.3,495.2 419,497.1 C408.6,499.1 404.9,505 410.6,510.7 L413.1,513.2 L417.8,512.5 C424.6,511.6 439,507.6 452.5,502.9 C459,500.7 464.4,499 464.5,499.2 C464.6,499.4 465,506.8 465.4,515.7 L466,531.9 L461.8,532.4 C459.4,532.7 454.1,533.2 450,533.5 C438.8,534.4 432.2,535.8 424.8,539.2 L418.1,542.2 L415.7,539.5 C413.8,537.3 412.8,536.8 410.7,537.4 C407.1,538.3 406.3,540.1 404.9,550.6 C402.4,569.5 405.6,585.6 416.8,609.2 C421.6,619.4 432.1,636.2 435.4,638.9 L437.1,640.3 L450.3,638.2 C457.8,636.9 472.6,635.5 484.5,635 C496.1,634.4 515.9,633.3 528.5,632.4 C574.4,629.5 572,629.9 572,625 C572,620.3 569.2,619.2 556.5,619.1 C550.5,619.1 539.2,618.6 531.5,618 C523.8,617.5 514.1,617 509.8,617 L502.2,617 L508.7,610.7 C518.1,601.8 528.4,588.6 532.4,580.5 C536.4,572.5 538.4,562 537.5,554.5 C536.6,547.9 532.8,540 529,537.2 C522.9,532.7 519,532 498.2,532 L478.7,532 L479.3,517.7 C479.7,509.9 480,500.9 480,497.7 C480,491.6 481.6,490 483.5,494.2 C484.8,497.2 488.2,497.6 493.7,495.5 C499.3,493.3 504.1,489.2 509.7,481.6 C512.5,477.8 516.2,474.4 519.8,472.2 C530.3,465.9 537,460 537,457.1 C537,453.8 535.3,452 532.4,452 L530.2,452 L533.1,449.1 C537,445.2 537.3,440.2 534,436.5 L532.1,434.5 L533.6,429 C534.7,425.1 535,419.7 534.8,410.5 L534.5,397.5 L532.4,394 C531.3,392.1 528.9,389.5 527,388.3 L523.7,386 L515.4,386 C506.7,386 497.7,387.5 487,390.9 C483.4,392.1 480.2,393 479.8,393 C479.3,393 479,390.9 479,388.2 C479,382 476.9,379 472.6,379 C467.7,379 466.3,381.3 465.5,390.5 L464.8,398.6 L444.7,405.2 C433.6,408.8 424.4,411.6 424.2,411.5 C424,411.3 425.4,403.2 427.3,393.4 L430.6,375.5 L442.1,372.3 C465.9,365.4 502.2,352.4 514.5,346.3 C522.5,342.3 528,337.3 528,334.1 C528,328.2 523.3,327.5 515.2,332.2 Z M519.6,405.6 C520.4,411.5 519.4,424.6 517.6,429.6 L516.3,433.5 L505.9,434.2 C500.2,434.6 492,435.5 487.8,436.3 L480,437.7 L480,423.4 L480,409.1 L491.3,405.6 C505.3,401.2 505.2,401.3 512.7,401.1 L518.9,401 L519.6,405.6 Z M465,428.4 L465,440.8 L461.8,441.9 C460,442.4 454.2,444 449,445.4 C443.8,446.8 433.5,450 426.3,452.4 C419,454.9 413,456.6 413,456.4 C413,456.1 414.9,448.8 417.2,440 L421.3,424.1 L423.4,425.5 C424.5,426.3 426.1,427 427,427 C427.8,427 436,424.6 445,421.6 C454.1,418.6 462.3,416.1 463.3,416.1 L465,416 L465,428.4 Z M510.8,449.6 C510.5,451.1 481.6,471.9 479.8,472 C479.3,472 479,467.8 479,462.6 L479,453.1 L484.8,451.9 C493.5,450.1 505.2,448.2 508.3,448.1 C510.4,448 511.1,448.4 510.8,449.6 Z M513.9,545.9 C517.8,546.5 519.9,547.3 521.3,549.1 L523.2,551.5 L522.8,560.5 L522.4,569.5 L519.7,574.6 C516.1,581.7 506.8,593.1 497.8,601.6 C492.2,606.9 487.7,610.1 480.3,613.7 L470.5,618.7 L461,619.4 C455.8,619.8 448.2,620.8 444.2,621.6 L436.8,623.1 L435.4,621.3 C433.4,618.7 425.6,599.9 421.9,589 L418.7,579.5 L418.2,566.2 L417.8,552.9 L420.2,554 L422.6,555.1 L430.1,552.1 C439.5,548.3 449.6,547 476.5,546.1 C505.3,545 507.7,545 513.9,545.9 Z"/>
</svg>

