<svg xmlns="http://www.w3.org/2000/svg" version="1.0" width="937.000000pt" height="937.000000pt" viewBox="0 0 937.000000 937.000000" preserveAspectRatio="xMidYMid meet">
  <defs/>
  <path fill="#000000" d="M488.4,260.6 L486.7,263.1 L487.4,274.3 C487.7,280.5 489.1,293.1 490.5,302.4 C491.8,311.8 492.8,319.6 492.5,319.8 C492.3,320 489.8,318.1 487,315.4 C483.2,311.8 481.2,310.7 478.8,310.7 C475.1,310.7 472,313.9 472,317.8 C472,321.3 481.1,330 488.9,334 L495,337 L495,341.8 C495,344.4 495.5,353 496,361 C496.5,368.9 496.8,375.5 496.7,375.6 C496.6,375.7 491.1,376.3 484.5,377 C473.3,378.1 427.3,384.4 422.2,385.5 C418.9,386.3 416,389.6 416,392.5 C416,394 417.2,396.3 418.6,397.7 L421.2,400.3 L434.8,399.6 C444.1,399.2 448.8,398.6 449.9,397.6 C451.3,396.4 468.9,393.5 487,391.5 C490,391.2 493.7,390.7 495.3,390.4 L498,389.8 L498,394.7 L498,399.7 L489.3,403 C476.6,407.8 451.3,420.6 450,422.9 C446.7,429.1 450.3,435 457.4,435 C462.4,435 463.6,434.6 483.3,427.2 C491.4,424.2 498.3,421.9 498.6,422.2 C498.9,422.5 499.4,443.2 499.7,468.2 L500.3,513.6 L492.7,516.4 C488.1,518.1 481.7,519.5 476.9,519.9 L468.7,520.6 L466.9,522.9 C464.3,526.1 464.5,529.6 467.5,532.5 L469.9,535 L477.7,535 C483.4,535 487.4,534.3 492.5,532.5 C496.4,531.1 499.6,530 499.6,530 C499.7,530 500.1,542 500.4,556.7 C501.6,603 504.8,641.9 507.8,645.2 C510,647.8 514.6,647.5 516.4,644.7 L517.9,642.5 L516.5,629.5 C513.6,602.6 512.8,588.6 512.7,557.1 L512.5,524.7 L535.4,515.8 C548,511 561.2,505.2 564.7,503 L571,499.1 L571.5,501.3 C571.9,503.4 577.3,543.6 580.5,568.5 C581.3,575.1 583.6,591.3 585.5,604.5 C587.4,617.6 588.8,628.6 588.6,628.8 C587.8,629.5 584.1,622.2 581.6,615 C580.1,610.9 578.2,606.9 577.3,606.2 C574.7,604.3 572.2,604.8 570.4,607.5 L568.8,610 L571.5,617.9 C575.6,629.7 579.9,637 584.5,640.2 C592.1,645.4 601.2,643 602.6,635.5 C602.9,633.6 601.8,621.5 600,607.8 C598.3,594.4 595.6,573.4 594,561 C592.4,548.6 589.2,525 586.9,508.5 L582.7,478.5 L582.3,452 L581.9,425.5 L580.4,423.3 C578.8,420.8 574.3,420.2 571,422 C570,422.6 568.2,425.9 566.9,429.7 C559.8,451.5 542.9,473 535,470.5 C533.9,470.1 532.3,468.5 531.4,466.8 C528.9,462 525,443.3 524.4,433 C524,427.6 523.2,422.5 522.4,421.2 C520.6,418.4 515.8,418.2 513,421 L511,423 L511,419.6 L511,416.2 L513.8,415.2 C515.3,414.6 521.9,413.9 528.5,413.7 C547.5,413.1 554.5,408.4 556.5,394.8 L557.2,390.1 L559.9,389.5 C561.4,389.2 564,388.1 565.8,387 L569,385 L569,381.6 C569,377.4 565.8,375 560.2,375 L556.3,375 L554.1,369.4 C548.3,354.2 534.2,340.7 513.3,330.1 L507.1,327 L506.6,323.8 C506.3,322 504.5,310.3 502.5,297.9 C500.6,285.5 499,272.4 499,268.9 C499,261.1 497.3,258 493,258 C490.9,258 489.5,258.8 488.4,260.6 Z M513.3,345.1 C519.1,348 528.8,355.1 532.7,359.2 C536,362.7 543,372.9 543,374.2 C543,374.7 535.6,375 526.6,375 L510.1,375 L509.6,370.7 C508.8,363.7 508,343 508.5,343 C508.8,343 511,344 513.3,345.1 Z M528.9,388.4 C527.8,389.4 511.1,394.8 510.6,394.3 C510.3,393.9 510,392.6 510,391.4 C510,389.9 510.7,389 512.3,388.7 C515.2,388.1 529.5,387.9 528.9,388.4 Z M545,395.8 C545,396.8 544.4,398.5 543.6,399.5 L542.2,401.5 L538.5,399.7 C534.2,397.7 534.3,397.5 539.6,395.6 C544.8,393.7 545,393.7 545,395.8 Z M519,470.7 C520.1,473.3 522.1,476.6 523.3,477.9 C528.2,483.2 537.3,484.5 544.7,480.9 C549.2,478.7 558.5,468.6 563.8,460.3 C565.3,457.9 566.8,456 567.1,456 C567.4,456 568,462.2 568.3,469.7 C568.7,477.3 569.2,485.2 569.6,487.2 L570.3,491 L567.7,491 C566.3,491 561.9,492.8 557.8,494.9 C551.6,498.3 513.4,510.8 512.5,509.8 C512.3,509.6 512,494.1 511.8,475.3 L511.4,441 L514.1,453.5 C515.6,460.3 517.8,468.1 519,470.7 Z"/>
  <path fill="#000000" d="M354.1,423.9 C351,427 349.8,432.6 349.3,447.7 C348.6,464.8 349.9,473.4 357.5,503.5 C360.4,515 362.7,526.4 362.7,528.7 C362.6,531.7 363.1,533.5 364.7,535.2 C365.9,536.5 368,540.5 369.3,544.2 C372.2,551.8 373.8,554.6 379.3,561.2 C383.3,566.2 387.1,567.5 389.8,564.8 C391.5,563.1 391.3,558.5 389.4,556.9 C386.3,554.4 382.1,547.2 380,541.1 C378.9,537.6 378,534.6 378.2,534.4 C378.4,534.3 383.7,532.1 389.9,529.6 C402.1,524.7 430.5,509.4 433.6,505.9 L435.4,503.9 L433.9,501.2 C433.1,499.7 431.6,498.4 430.6,498.2 C429.6,498 423.9,500.1 418,502.9 C412.1,505.7 405.9,508.3 404.1,508.6 L400.8,509.3 L403.9,504.4 C412,491.2 416,478.9 416,467.2 C416,447.3 409,440.6 385,437.4 C378.1,436.5 370.8,435.3 368.8,434.8 L365,433.9 L365,430 C365,423.5 358.3,419.7 354.1,423.9 Z M384.7,450.6 C400.9,453.4 403.5,456.2 402.8,470.4 L402.5,478.5 L399.2,485.4 C397.4,489.2 394,495 391.6,498.4 C386,506.2 375,517.4 374,516.3 C373.3,515.5 365.6,480 364,469.5 C363.4,466.2 363,460 363,455.6 L363,447.7 L369.6,448.4 C373.2,448.8 380,449.7 384.7,450.6 Z"/>
  <path fill="#000000" d="M466.3,436 C461.5,437.9 461.1,441.9 463.6,462.3 C465.9,480.8 464.7,496 461,496 C460.4,496 460,488.7 460,477.5 L460,458.9 L457.5,456.5 C453,451.9 447.5,453.8 446,460.5 C445.5,462.7 445,474.3 445,486.4 L445,508.3 L441.5,512.1 C436.2,517.9 436.8,522.3 443.3,526.3 L446,528 L446,545.5 L446,562.9 L444.1,563.5 C440.5,564.6 437,568.8 437,571.9 C437,575.3 441.3,579.4 444.1,578.7 L445.8,578.2 L446.5,591.9 L447.2,605.6 L445.4,614.9 C443.2,626.6 444.5,629.4 451.5,627.6 C453.4,627.1 454.4,625.6 456.1,620.2 L458.3,613.5 L458.8,591.7 L459.2,570 L470.9,561.5 L482.5,553.1 L483.1,558.8 C483.5,561.9 483.8,571.2 483.9,579.4 C484,597 486.6,621.6 488.6,624.7 C490.4,627.5 494.1,627.7 496.4,625.1 L498.2,623.2 L497,613.8 C496.2,607.4 496.1,595.2 496.6,575 L497.3,545.5 L495.7,541.8 C493.7,537 489,534.4 484.9,535.9 C483.3,536.4 478.2,539.9 473.5,543.6 C468.8,547.3 463.6,551.3 461.9,552.3 L458.8,554.3 L459.5,535.4 L460.3,516.5 L462.4,513.9 C463.5,512.4 467.3,509 470.6,506.2 C478.3,499.9 490,486.5 490,484.1 C490,481.8 486.9,479 484.4,479 C483.3,479 481.4,479.7 480.2,480.6 L478,482.1 L478,471.8 C477.9,457.4 475.8,439.3 474,437.6 C471.9,435.6 468.9,435 466.3,436 Z"/>
  <path fill="#000000" d="M548,526.5 C544.4,527.3 537.7,528.4 533,529 L524.5,530 L522.3,532.6 C519.5,535.7 519.4,538 521.8,541.1 C523.9,543.6 526.8,543.9 536.6,542.7 L542.7,541.9 L541.8,547.7 C539.8,559.6 542.7,624.7 545.8,639.9 C546.2,641.8 547.7,644.2 549.2,645.3 L551.8,647.2 L553.9,646.1 C555,645.5 556.4,644.1 556.9,643.1 C557.6,642 557.4,631.1 556.5,611.9 C555.2,585.2 555.2,550.5 556.6,543.9 C556.9,542.5 558.6,539.8 560.5,538 C564.8,533.9 565.3,529 561.8,526.6 C559.2,524.7 556.8,524.7 548,526.5 Z"/>
</svg>

