<svg xmlns="http://www.w3.org/2000/svg" width="300" height="300" viewBox="0 0 300 300">
<path d="M 107.10 163.51 L 107.95 163.57 C 109.35 163.67 110.58 162.62 110.68 161.22 C 110.78 159.81 109.73 158.59 108.32 158.49 L 107.47 158.43 C 106.07 158.32 104.85 159.38 104.75 160.78 C 104.64 162.19 105.70 163.41 107.10 163.51 Z M 108.00 163.59 L 108.89 163.64 C 110.31 163.71 111.52 162.62 111.59 161.21 C 111.66 159.79 110.58 158.59 109.16 158.51 L 108.27 158.47 C 106.86 158.39 105.65 159.48 105.57 160.90 C 105.50 162.31 106.59 163.52 108.00 163.59 Z M 108.99 163.66 L 109.96 163.67 C 111.39 163.70 112.56 162.56 112.58 161.13 C 112.61 159.70 111.47 158.53 110.04 158.51 L 109.07 158.49 C 107.64 158.47 106.47 159.61 106.44 161.04 C 106.42 162.46 107.56 163.64 108.99 163.66 Z M 110.08 163.69 L 111.18 163.66 C 112.61 163.62 113.74 162.42 113.70 160.98 C 113.66 159.55 112.46 158.42 111.02 158.46 L 109.92 158.49 C 108.49 158.53 107.36 159.73 107.40 161.17 C 107.44 162.60 108.64 163.73 110.08 163.69 Z M 111.29 163.67 L 112.43 163.58 C 113.88 163.48 114.96 162.22 114.85 160.78 C 114.75 159.34 113.49 158.26 112.05 158.37 L 110.91 158.45 C 109.47 158.56 108.38 159.81 108.49 161.25 C 108.60 162.69 109.85 163.77 111.29 163.67 Z M 112.52 163.58 L 113.41 163.49 C 114.85 163.34 115.90 162.05 115.74 160.61 C 115.59 159.17 114.30 158.12 112.86 158.27 L 111.97 158.37 C 110.53 158.52 109.48 159.81 109.64 161.25 C 109.79 162.69 111.08 163.73 112.52 163.58 Z M 113.46 163.48 L 114.41 163.37 C 115.85 163.19 116.87 161.88 116.69 160.44 C 116.52 159.00 115.21 157.98 113.77 158.16 L 112.82 158.28 C 111.38 158.45 110.36 159.76 110.53 161.20 C 110.71 162.64 112.02 163.66 113.46 163.48 Z M 114.45 163.36 L 115.44 163.23 C 116.88 163.03 117.89 161.71 117.69 160.27 C 117.49 158.84 116.17 157.83 114.73 158.03 L 113.74 158.16 C 112.30 158.36 111.29 159.68 111.49 161.12 C 111.69 162.56 113.01 163.56 114.45 163.36 Z M 115.47 163.22 L 116.50 163.07 C 117.93 162.87 118.92 161.53 118.71 160.10 C 118.50 158.66 117.17 157.67 115.74 157.88 L 114.71 158.03 C 113.28 158.24 112.28 159.57 112.49 161.01 C 112.70 162.44 114.03 163.43 115.47 163.22 Z M 116.51 163.07 L 117.55 162.91 C 118.99 162.70 119.97 161.36 119.75 159.92 C 119.53 158.49 118.19 157.50 116.76 157.72 L 115.72 157.88 C 114.29 158.10 113.30 159.44 113.52 160.87 C 113.74 162.31 115.08 163.29 116.51 163.07 Z M 117.56 162.91 L 118.60 162.75 C 120.03 162.53 121.01 161.19 120.79 159.75 C 120.56 158.32 119.22 157.34 117.79 157.56 L 116.75 157.72 C 115.32 157.95 114.34 159.29 114.56 160.72 C 114.78 162.16 116.13 163.14 117.56 162.91 Z M 118.60 162.75 L 119.62 162.59 C 121.05 162.37 122.03 161.02 121.80 159.59 C 121.58 158.16 120.23 157.18 118.80 157.40 L 117.78 157.56 C 116.35 157.79 115.37 159.13 115.60 160.56 C 115.82 162.00 117.17 162.98 118.60 162.75 Z M 119.61 162.59 L 120.71 162.42 C 122.15 162.20 123.13 160.86 122.91 159.42 C 122.68 157.99 121.34 157.01 119.91 157.23 L 118.80 157.40 C 117.37 157.62 116.39 158.97 116.61 160.40 C 116.83 161.84 118.18 162.82 119.61 162.59 Z M 120.71 162.42 L 121.79 162.26 C 123.22 162.04 124.21 160.70 123.99 159.26 C 123.77 157.83 122.42 156.84 120.99 157.06 L 119.91 157.23 C 118.48 157.45 117.49 158.79 117.71 160.23 C 117.93 161.66 119.27 162.64 120.71 162.42 Z M 121.79 162.26 L 122.82 162.10 C 124.25 161.88 125.24 160.54 125.02 159.10 C 124.80 157.67 123.46 156.68 122.02 156.91 L 120.99 157.06 C 119.56 157.28 118.57 158.62 118.79 160.06 C 119.01 161.49 120.35 162.48 121.79 162.26 Z M 122.82 162.10 L 123.80 161.95 C 125.24 161.72 126.22 160.38 126.00 158.95 C 125.78 157.51 124.43 156.53 123.00 156.75 L 122.02 156.91 C 120.59 157.13 119.60 158.47 119.82 159.90 C 120.05 161.34 121.39 162.32 122.82 162.10 Z M 123.81 161.94 L 124.74 161.80 C 126.18 161.57 127.16 160.23 126.93 158.79 C 126.70 157.36 125.36 156.38 123.93 156.61 L 122.99 156.76 C 121.56 156.98 120.58 158.33 120.81 159.76 C 121.03 161.19 122.38 162.17 123.81 161.94 Z M 124.76 161.79 L 125.65 161.65 C 127.08 161.42 128.05 160.07 127.81 158.64 C 127.58 157.21 126.23 156.23 124.80 156.47 L 123.91 156.61 C 122.48 156.84 121.51 158.19 121.74 159.62 C 121.98 161.06 123.33 162.03 124.76 161.79 Z M 125.67 161.64 L 126.61 161.48 C 128.04 161.24 129.00 159.88 128.76 158.45 C 128.51 157.03 127.16 156.07 125.73 156.31 L 124.78 156.47 C 123.35 156.72 122.39 158.07 122.64 159.50 C 122.88 160.93 124.24 161.89 125.67 161.64 Z M 126.64 161.47 L 127.71 161.28 C 129.13 161.02 130.07 159.66 129.81 158.23 C 129.56 156.81 128.19 155.87 126.77 156.13 L 125.70 156.32 C 124.28 156.58 123.34 157.94 123.60 159.37 C 123.85 160.79 125.22 161.73 126.64 161.47 Z M 127.74 161.27 L 128.74 161.07 C 130.15 160.80 131.08 159.43 130.80 158.01 C 130.53 156.59 129.16 155.67 127.74 155.94 L 126.74 156.14 C 125.32 156.41 124.40 157.78 124.67 159.20 C 124.95 160.62 126.32 161.54 127.74 161.27 Z M 128.76 161.06 L 129.71 160.87 C 131.12 160.58 132.03 159.20 131.74 157.79 C 131.45 156.38 130.07 155.47 128.66 155.76 L 127.71 155.95 C 126.30 156.24 125.39 157.62 125.68 159.03 C 125.97 160.44 127.35 161.35 128.76 161.06 Z M 129.73 160.86 L 130.63 160.66 C 132.04 160.36 132.93 158.98 132.63 157.57 C 132.33 156.17 130.94 155.28 129.54 155.58 L 128.64 155.77 C 127.23 156.07 126.34 157.46 126.64 158.86 C 126.94 160.27 128.33 161.16 129.73 160.86 Z M 130.65 160.65 L 131.63 160.44 C 133.03 160.12 133.91 158.74 133.59 157.34 C 133.28 155.94 131.89 155.06 130.50 155.37 L 129.52 155.59 C 128.12 155.90 127.24 157.29 127.55 158.69 C 127.87 160.08 129.25 160.97 130.65 160.65 Z M 131.65 160.42 L 132.65 160.19 C 134.04 159.87 134.91 158.48 134.59 157.09 C 134.27 155.69 132.88 154.83 131.48 155.15 L 130.48 155.38 C 129.09 155.71 128.22 157.09 128.54 158.49 C 128.86 159.88 130.25 160.75 131.65 160.42 Z M 132.67 160.18 L 133.64 159.94 C 135.02 159.61 135.88 158.22 135.54 156.83 C 135.21 155.45 133.82 154.60 132.43 154.93 L 131.46 155.16 C 130.08 155.50 129.23 156.89 129.56 158.27 C 129.90 159.66 131.29 160.51 132.67 160.18 Z M 133.66 159.93 L 134.59 159.69 C 135.97 159.35 136.80 157.95 136.46 156.58 C 136.11 155.20 134.71 154.37 133.34 154.71 L 132.41 154.94 C 131.03 155.29 130.20 156.69 130.54 158.06 C 130.89 159.44 132.29 160.27 133.66 159.93 Z M 134.61 159.68 L 135.59 159.42 C 136.96 159.06 137.77 157.66 137.41 156.30 C 137.05 154.93 135.65 154.11 134.29 154.47 L 133.31 154.73 C 131.95 155.09 131.13 156.49 131.49 157.85 C 131.85 159.22 133.25 160.04 134.61 159.68 Z M 135.61 159.40 L 136.59 159.13 C 137.95 158.76 138.75 157.36 138.37 156.00 C 138.00 154.65 136.60 153.85 135.24 154.22 L 134.26 154.49 C 132.91 154.86 132.11 156.26 132.48 157.62 C 132.85 158.98 134.26 159.78 135.61 159.40 Z M 136.61 159.12 L 137.55 158.85 C 138.90 158.47 139.68 157.06 139.30 155.72 C 138.92 154.37 137.52 153.59 136.17 153.97 L 135.22 154.24 C 133.88 154.62 133.09 156.02 133.48 157.37 C 133.86 158.72 135.26 159.50 136.61 159.12 Z M 137.57 158.83 L 138.50 158.56 C 139.84 158.17 140.61 156.77 140.22 155.43 C 139.83 154.10 138.43 153.33 137.09 153.72 L 136.16 153.99 C 134.82 154.38 134.05 155.78 134.44 157.11 C 134.83 158.45 136.23 159.22 137.57 158.83 Z M 138.54 158.52 L 139.50 158.23 C 140.82 157.82 141.55 156.41 141.14 155.10 C 140.73 153.78 139.33 153.04 138.01 153.45 L 137.05 153.75 C 135.74 154.16 135.00 155.56 135.41 156.88 C 135.82 158.20 137.22 158.93 138.54 158.52 Z M 139.64 158.15 L 140.57 157.80 C 141.84 157.31 142.48 155.88 142.00 154.61 C 141.51 153.33 140.08 152.69 138.81 153.17 L 137.88 153.53 C 136.60 154.01 135.96 155.44 136.45 156.72 C 136.93 157.99 138.36 158.64 139.64 158.15 Z M 140.80 157.66 L 141.69 157.21 C 142.89 156.59 143.36 155.12 142.75 153.91 C 142.13 152.71 140.65 152.24 139.45 152.86 L 138.57 153.31 C 137.37 153.93 136.89 155.40 137.51 156.60 C 138.13 157.80 139.60 158.28 140.80 157.66 Z M 142.02 156.95 L 143.00 156.21 C 144.06 155.41 144.28 153.90 143.48 152.84 C 142.68 151.78 141.17 151.57 140.11 152.37 L 139.13 153.11 C 138.06 153.91 137.85 155.41 138.65 156.48 C 139.45 157.54 140.95 157.75 142.02 156.95 Z M 143.46 155.66 L 144.00 154.91 C 144.75 153.86 144.51 152.39 143.46 151.64 C 142.40 150.88 140.94 151.12 140.18 152.18 L 139.65 152.92 C 138.89 153.98 139.14 155.44 140.19 156.20 C 141.24 156.95 142.71 156.71 143.46 155.66 Z M 144.15 152.59 L 143.94 152.12 C 143.41 150.98 142.06 150.49 140.92 151.01 C 139.78 151.54 139.28 152.89 139.81 154.03 L 140.03 154.50 C 140.55 155.64 141.90 156.13 143.04 155.61 C 144.18 155.08 144.68 153.73 144.15 152.59 Z M 142.42 150.99 L 141.65 150.78 C 140.50 150.48 139.32 151.17 139.01 152.32 C 138.71 153.47 139.40 154.65 140.55 154.95 L 141.32 155.16 C 142.47 155.46 143.65 154.78 143.96 153.63 C 144.26 152.47 143.58 151.29 142.42 150.99 Z M 141.29 150.86 L 140.15 150.75 C 139.04 150.65 138.06 151.46 137.95 152.57 C 137.85 153.68 138.66 154.67 139.77 154.77 L 140.91 154.88 C 142.02 154.98 143.00 154.17 143.11 153.06 C 143.21 151.95 142.40 150.96 141.29 150.86 Z M 140.12 150.88 L 138.90 150.78 C 137.85 150.69 136.94 151.47 136.86 152.51 C 136.77 153.55 137.55 154.46 138.59 154.55 L 139.81 154.65 C 140.85 154.73 141.76 153.96 141.85 152.92 C 141.93 151.87 141.16 150.96 140.12 150.88 Z M 138.96 150.86 L 137.97 150.74 C 136.98 150.62 136.08 151.33 135.96 152.33 C 135.84 153.32 136.54 154.22 137.54 154.34 L 138.53 154.46 C 139.52 154.58 140.42 153.87 140.54 152.88 C 140.66 151.89 139.95 150.98 138.96 150.86 Z M 138.03 150.80 L 137.05 150.64 C 136.08 150.48 135.17 151.14 135.02 152.11 C 134.86 153.07 135.52 153.98 136.49 154.13 L 137.47 154.29 C 138.44 154.44 139.35 153.79 139.50 152.82 C 139.66 151.86 139.00 150.95 138.03 150.80 Z M 137.10 150.69 L 136.12 150.50 C 135.18 150.31 134.28 150.92 134.09 151.85 C 133.90 152.79 134.51 153.69 135.44 153.88 L 136.43 154.08 C 137.36 154.26 138.27 153.66 138.46 152.72 C 138.64 151.79 138.04 150.88 137.10 150.69 Z M 136.17 150.55 L 135.19 150.32 C 134.29 150.11 133.39 150.67 133.17 151.57 C 132.96 152.47 133.52 153.38 134.42 153.59 L 135.39 153.82 C 136.30 154.04 137.20 153.48 137.42 152.58 C 137.63 151.67 137.07 150.77 136.17 150.55 Z M 135.25 150.36 L 134.28 150.10 C 133.39 149.85 132.48 150.37 132.24 151.25 C 132.00 152.13 132.52 153.04 133.40 153.29 L 134.37 153.55 C 135.25 153.80 136.16 153.28 136.40 152.40 C 136.64 151.52 136.13 150.61 135.25 150.36 Z M 134.32 150.11 L 133.36 149.82 C 132.49 149.55 131.57 150.04 131.30 150.91 C 131.04 151.79 131.53 152.71 132.40 152.97 L 133.35 153.27 C 134.22 153.53 135.15 153.05 135.41 152.17 C 135.68 151.30 135.19 150.38 134.32 150.11 Z M 133.39 149.84 L 132.45 149.52 C 131.58 149.24 130.65 149.71 130.37 150.57 C 130.09 151.43 130.55 152.36 131.42 152.65 L 132.37 152.96 C 133.23 153.24 134.16 152.77 134.44 151.91 C 134.73 151.05 134.26 150.12 133.39 149.84 Z M 132.46 149.53 L 131.52 149.21 C 130.66 148.92 129.73 149.38 129.44 150.23 C 129.14 151.09 129.60 152.02 130.46 152.32 L 131.40 152.64 C 132.26 152.93 133.19 152.47 133.48 151.62 C 133.78 150.76 133.32 149.83 132.46 149.53 Z M 131.52 149.22 L 131.22 149.11 C 130.37 148.82 129.44 149.27 129.14 150.12 C 128.84 150.98 129.30 151.91 130.15 152.21 L 130.45 152.31 C 131.31 152.61 132.24 152.15 132.54 151.30 C 132.83 150.44 132.38 149.51 131.52 149.22 Z"
      fill="black"
      fill-rule="nonzero" /><path d="M 131.89 144.15 L 131.52 143.23 C 131.15 142.32 130.11 141.87 129.20 142.24 C 128.28 142.60 127.83 143.64 128.20 144.56 L 128.57 145.48 C 128.93 146.39 129.97 146.84 130.89 146.47 C 131.81 146.11 132.25 145.07 131.89 144.15 Z M 131.53 143.23 L 131.17 142.31 C 130.80 141.38 129.75 140.93 128.83 141.30 C 127.91 141.66 127.45 142.71 127.82 143.63 L 128.19 144.56 C 128.55 145.48 129.60 145.93 130.52 145.57 C 131.45 145.20 131.90 144.16 131.53 143.23 Z M 131.18 142.31 L 130.81 141.37 C 130.45 140.44 129.40 139.98 128.47 140.34 C 127.54 140.70 127.08 141.75 127.44 142.69 L 127.80 143.63 C 128.17 144.56 129.22 145.02 130.15 144.66 C 131.08 144.30 131.54 143.25 131.18 142.31 Z M 130.84 141.38 L 130.39 140.20 C 130.03 139.26 128.97 138.78 128.02 139.15 C 127.08 139.51 126.60 140.57 126.97 141.51 L 127.41 142.68 C 127.78 143.63 128.84 144.10 129.78 143.74 C 130.73 143.38 131.20 142.32 130.84 141.38 Z M 130.39 140.11 L 129.95 139.10 C 129.53 138.15 128.43 137.72 127.49 138.13 C 126.54 138.54 126.11 139.65 126.52 140.59 L 126.97 141.61 C 127.38 142.55 128.48 142.98 129.43 142.57 C 130.37 142.16 130.80 141.06 130.39 140.11 Z M 129.38 138.32 L 129.08 138.09 C 128.24 137.45 127.04 137.62 126.40 138.47 C 125.77 139.31 125.94 140.51 126.78 141.14 L 127.09 141.37 C 127.93 142.01 129.13 141.84 129.76 140.99 C 130.40 140.15 130.23 138.95 129.38 138.32 Z M 126.00 139.24 L 125.87 139.89 C 125.66 140.96 126.36 141.99 127.42 142.20 C 128.49 142.41 129.52 141.72 129.73 140.65 L 129.86 139.99 C 130.07 138.93 129.38 137.89 128.31 137.68 C 127.24 137.47 126.21 138.17 126.00 139.24 Z M 125.77 140.21 L 125.73 141.40 C 125.69 142.52 126.58 143.46 127.70 143.50 C 128.82 143.53 129.76 142.65 129.80 141.53 L 129.84 140.34 C 129.87 139.21 128.99 138.27 127.87 138.24 C 126.74 138.20 125.80 139.09 125.77 140.21 Z M 125.67 141.46 L 125.67 142.67 C 125.67 143.83 126.60 144.76 127.76 144.77 C 128.91 144.77 129.85 143.83 129.86 142.68 L 129.86 141.47 C 129.86 140.31 128.92 139.37 127.77 139.37 C 126.61 139.37 125.67 140.30 125.67 141.46 Z M 125.64 142.68 L 125.64 143.63 C 125.64 144.81 126.59 145.76 127.77 145.76 C 128.94 145.75 129.89 144.80 129.89 143.63 L 129.89 142.67 C 129.89 141.50 128.93 140.55 127.76 140.55 C 126.59 140.55 125.64 141.50 125.64 142.68 Z M 125.62 143.64 L 125.62 144.62 C 125.63 145.80 126.59 146.76 127.78 146.75 C 128.96 146.75 129.92 145.78 129.91 144.60 L 129.91 143.62 C 129.90 142.44 128.94 141.48 127.75 141.49 C 126.57 141.49 125.61 142.46 125.62 143.64 Z M 125.61 144.63 L 125.62 145.66 C 125.63 146.85 126.61 147.81 127.80 147.80 C 128.99 147.79 129.95 146.81 129.94 145.61 L 129.93 144.59 C 129.92 143.39 128.94 142.43 127.75 142.45 C 126.55 142.46 125.59 143.44 125.61 144.63 Z M 125.60 145.67 L 125.62 146.70 C 125.64 147.91 126.63 148.87 127.83 148.85 C 129.03 148.83 129.99 147.84 129.97 146.63 L 129.96 145.60 C 129.94 144.40 128.95 143.44 127.74 143.46 C 126.54 143.48 125.58 144.47 125.60 145.67 Z M 125.61 146.72 L 125.63 147.70 C 125.66 148.91 126.66 149.87 127.87 149.84 C 129.08 149.81 130.03 148.81 130.01 147.60 L 129.98 146.62 C 129.96 145.41 128.95 144.45 127.75 144.48 C 126.54 144.51 125.58 145.51 125.61 146.72 Z M 125.62 147.72 L 125.65 148.73 C 125.68 149.95 126.69 150.90 127.91 150.87 C 129.12 150.83 130.08 149.82 130.04 148.61 L 130.01 147.59 C 129.98 146.38 128.97 145.42 127.75 145.46 C 126.54 145.49 125.58 146.50 125.62 147.72 Z M 125.64 148.75 L 125.68 149.77 C 125.72 150.99 126.74 151.94 127.96 151.90 C 129.18 151.86 130.13 150.83 130.09 149.61 L 130.05 148.59 C 130.01 147.37 128.99 146.42 127.77 146.46 C 126.55 146.51 125.60 147.53 125.64 148.75 Z M 125.67 149.79 L 125.71 150.79 C 125.76 152.01 126.79 152.96 128.02 152.91 C 129.24 152.86 130.19 151.83 130.14 150.60 L 130.10 149.60 C 130.04 148.37 129.01 147.43 127.79 147.48 C 126.56 147.53 125.62 148.56 125.67 149.79 Z M 125.70 150.81 L 125.76 151.83 C 125.82 153.06 126.86 154.00 128.09 153.94 C 129.32 153.88 130.26 152.83 130.20 151.60 L 130.15 150.58 C 130.08 149.35 129.04 148.41 127.81 148.47 C 126.58 148.54 125.64 149.58 125.70 150.81 Z M 125.75 151.85 L 125.81 152.86 C 125.88 154.09 126.94 155.03 128.17 154.95 C 129.40 154.88 130.33 153.83 130.26 152.60 L 130.20 151.59 C 130.13 150.36 129.07 149.42 127.84 149.49 C 126.62 149.57 125.68 150.62 125.75 151.85 Z M 125.81 152.87 L 125.87 153.85 C 125.95 155.08 127.01 156.02 128.24 155.94 C 129.47 155.86 130.41 154.80 130.33 153.57 L 130.27 152.59 C 130.19 151.36 129.13 150.42 127.90 150.50 C 126.66 150.58 125.73 151.64 125.81 152.87 Z M 125.87 153.85 L 125.93 154.83 C 126.00 156.06 127.06 157.00 128.30 156.92 C 129.53 156.84 130.47 155.78 130.39 154.55 L 130.33 153.57 C 130.26 152.34 129.19 151.40 127.96 151.48 C 126.73 151.55 125.79 152.62 125.87 153.85 Z M 125.92 154.81 L 125.98 155.78 C 126.04 157.02 127.10 157.97 128.34 157.90 C 129.57 157.83 130.52 156.77 130.45 155.54 L 130.40 154.56 C 130.33 153.33 129.27 152.38 128.04 152.45 C 126.80 152.52 125.85 153.58 125.92 154.81 Z M 125.97 155.76 L 126.02 156.72 C 126.07 157.96 127.13 158.91 128.36 158.86 C 129.60 158.80 130.56 157.75 130.50 156.51 L 130.45 155.56 C 130.40 154.32 129.35 153.36 128.11 153.42 C 126.87 153.48 125.91 154.53 125.97 155.76 Z M 126.01 156.71 L 126.05 157.69 C 126.10 158.93 127.15 159.89 128.39 159.84 C 129.63 159.79 130.59 158.75 130.54 157.51 L 130.50 156.53 C 130.45 155.29 129.41 154.32 128.17 154.37 C 126.93 154.42 125.96 155.47 126.01 156.71 Z M 126.05 157.68 L 126.09 158.69 C 126.13 159.93 127.17 160.91 128.41 160.86 C 129.65 160.82 130.63 159.78 130.58 158.53 L 130.55 157.52 C 130.50 156.28 129.46 155.31 128.22 155.35 C 126.98 155.40 126.01 156.44 126.05 157.68 Z M 126.08 158.69 L 126.12 159.73 C 126.16 160.97 127.20 161.95 128.44 161.91 C 129.68 161.87 130.66 160.83 130.62 159.58 L 130.58 158.54 C 130.54 157.30 129.50 156.32 128.26 156.36 C 127.02 156.40 126.04 157.44 126.08 158.69 Z M 126.12 159.73 L 126.15 160.73 C 126.19 161.97 127.23 162.95 128.47 162.91 C 129.71 162.87 130.69 161.83 130.65 160.59 L 130.62 159.59 C 130.58 158.34 129.54 157.36 128.30 157.40 C 127.05 157.44 126.08 158.48 126.12 159.73 Z M 126.15 160.73 L 126.18 161.71 C 126.22 162.96 127.26 163.94 128.50 163.90 C 129.74 163.86 130.72 162.82 130.68 161.57 L 130.65 160.59 C 130.61 159.34 129.57 158.36 128.33 158.40 C 127.08 158.44 126.11 159.48 126.15 160.73 Z M 126.18 161.72 L 126.21 162.72 C 126.25 163.96 127.29 164.94 128.54 164.90 C 129.78 164.86 130.76 163.82 130.72 162.57 L 130.68 161.57 C 130.64 160.33 129.60 159.35 128.36 159.39 C 127.11 159.43 126.14 160.47 126.18 161.72 Z M 126.21 162.73 L 126.25 163.74 C 126.29 164.98 127.34 165.95 128.58 165.91 C 129.82 165.86 130.80 164.82 130.75 163.58 L 130.72 162.57 C 130.67 161.32 129.63 160.35 128.38 160.39 C 127.14 160.44 126.17 161.48 126.21 162.73 Z M 126.25 163.75 L 126.29 164.76 C 126.34 166.00 127.38 166.97 128.63 166.92 C 129.87 166.87 130.84 165.82 130.79 164.58 L 130.75 163.57 C 130.70 162.32 129.65 161.35 128.41 161.40 C 127.17 161.45 126.20 162.50 126.25 163.75 Z M 126.29 164.77 L 126.33 165.78 C 126.39 167.03 127.44 167.99 128.69 167.93 C 129.93 167.88 130.89 166.82 130.84 165.58 L 130.79 164.57 C 130.73 163.32 129.68 162.36 128.44 162.42 C 127.19 162.47 126.23 163.53 126.29 164.77 Z M 126.33 165.79 L 126.38 166.81 C 126.45 168.05 127.51 169.01 128.75 168.94 C 129.99 168.88 130.95 167.82 130.89 166.58 L 130.84 165.57 C 130.77 164.33 129.72 163.37 128.47 163.43 C 127.23 163.49 126.27 164.55 126.33 165.79 Z M 126.39 166.81 L 126.44 167.82 C 126.50 169.06 127.56 170.01 128.81 169.95 C 130.05 169.88 131.00 168.82 130.94 167.58 L 130.89 166.58 C 130.82 165.33 129.76 164.38 128.52 164.44 C 127.27 164.51 126.32 165.57 126.39 166.81 Z M 126.44 167.82 L 126.49 168.81 C 126.56 170.05 127.62 171.01 128.86 170.94 C 130.10 170.88 131.06 169.82 130.99 168.57 L 130.94 167.58 C 130.87 166.34 129.81 165.38 128.57 165.45 C 127.33 165.51 126.37 166.57 126.44 167.82 Z M 126.49 168.81 L 126.54 169.79 C 126.61 171.03 127.66 171.99 128.91 171.93 C 130.15 171.86 131.10 170.80 131.04 169.56 L 130.99 168.58 C 130.93 167.34 129.87 166.38 128.63 166.44 C 127.38 166.51 126.43 167.57 126.49 168.81 Z M 126.54 169.78 L 126.59 170.78 C 126.65 172.02 127.70 172.98 128.94 172.92 C 130.19 172.87 131.15 171.81 131.09 170.57 L 131.04 169.57 C 130.98 168.33 129.93 167.37 128.69 167.43 C 127.44 167.49 126.48 168.54 126.54 169.78 Z M 126.59 170.77 L 126.63 171.78 C 126.68 173.02 127.73 173.98 128.97 173.93 C 130.21 173.88 131.18 172.83 131.13 171.59 L 131.09 170.58 C 131.03 169.34 129.99 168.38 128.74 168.43 C 127.50 168.48 126.54 169.53 126.59 170.77 Z M 126.64 171.77 L 126.67 172.77 C 126.72 174.01 127.76 174.97 129.00 174.93 C 130.24 174.88 131.21 173.84 131.16 172.60 L 131.13 171.60 C 131.08 170.36 130.04 169.39 128.80 169.44 C 127.56 169.48 126.59 170.53 126.64 171.77 Z M 126.67 172.76 L 126.71 173.75 C 126.75 174.99 127.79 175.96 129.03 175.92 C 130.27 175.88 131.24 174.84 131.19 173.60 L 131.16 172.61 C 131.12 171.37 130.08 170.40 128.84 170.44 C 127.60 170.48 126.63 171.52 126.67 172.76 Z M 126.71 173.75 L 126.74 174.74 C 126.78 175.98 127.82 176.95 129.06 176.91 C 130.29 176.87 131.26 175.83 131.22 174.59 L 131.19 173.60 C 131.15 172.37 130.12 171.40 128.88 171.44 C 127.64 171.48 126.67 172.51 126.71 173.75 Z M 126.75 174.74 L 126.78 175.77 C 126.82 177.00 127.85 177.97 129.09 177.93 C 130.32 177.89 131.29 176.86 131.25 175.62 L 131.22 174.59 C 131.18 173.36 130.15 172.39 128.91 172.43 C 127.68 172.47 126.71 173.50 126.75 174.74 Z M 126.79 175.77 L 126.82 176.81 C 126.86 178.04 127.89 179.01 129.12 178.97 C 130.36 178.93 131.32 177.89 131.28 176.66 L 131.25 175.62 C 131.21 174.39 130.18 173.43 128.94 173.47 C 127.71 173.51 126.75 174.54 126.79 175.77 Z M 126.83 176.81 L 126.86 177.82 C 126.90 179.05 127.93 180.02 129.16 179.97 C 130.39 179.93 131.35 178.90 131.31 177.68 L 131.28 176.66 C 131.23 175.43 130.21 174.47 128.98 174.51 C 127.75 174.55 126.79 175.58 126.83 176.81 Z M 126.87 177.83 L 126.90 178.80 C 126.94 180.03 127.97 180.98 129.20 180.94 C 130.42 180.90 131.38 179.87 131.34 178.65 L 131.30 177.67 C 131.26 176.45 130.23 175.49 129.01 175.53 C 127.78 175.57 126.82 176.60 126.87 177.83 Z M 126.91 178.81 L 126.94 179.74 C 126.99 180.96 128.01 181.92 129.24 181.87 C 130.46 181.83 131.41 180.80 131.37 179.58 L 131.33 178.64 C 131.29 177.42 130.26 176.47 129.04 176.51 C 127.82 176.56 126.86 177.58 126.91 178.81 Z M 126.95 179.75 L 126.99 180.72 C 127.03 181.94 128.06 182.89 129.28 182.84 C 130.49 182.80 131.44 181.77 131.40 180.55 L 131.36 179.58 C 131.31 178.36 130.29 177.41 129.07 177.46 C 127.85 177.50 126.90 178.53 126.95 179.75 Z M 127.00 180.72 L 127.03 181.68 C 127.08 182.89 128.09 183.83 129.31 183.79 C 130.52 183.75 131.47 182.73 131.42 181.51 L 131.39 180.56 C 131.34 179.35 130.32 178.40 129.11 178.44 C 127.90 178.49 126.95 179.51 127.00 180.72 Z M 127.04 181.66 L 127.07 182.66 C 127.11 183.86 128.11 184.81 129.32 184.78 C 130.53 184.74 131.48 183.73 131.44 182.52 L 131.41 181.53 C 131.38 180.32 130.37 179.37 129.16 179.41 C 127.95 179.45 127.00 180.45 127.04 181.66 Z M 127.08 182.63 L 127.10 183.71 C 127.13 184.91 128.12 185.87 129.32 185.84 C 130.53 185.82 131.48 184.82 131.46 183.62 L 131.43 182.54 C 131.41 181.34 130.41 180.39 129.21 180.41 C 128.01 180.44 127.05 181.43 127.08 182.63 Z M 127.11 183.66 L 127.11 184.74 C 127.11 185.94 128.08 186.91 129.28 186.91 C 130.48 186.91 131.45 185.94 131.45 184.74 L 131.45 183.66 C 131.45 182.46 130.48 181.49 129.28 181.49 C 128.08 181.49 127.11 182.46 127.11 183.66 Z M 127.12 184.62 L 127.06 185.70 C 126.99 186.90 127.90 187.92 129.10 187.98 C 130.29 188.05 131.32 187.14 131.38 185.94 L 131.44 184.86 C 131.51 183.66 130.59 182.64 129.40 182.58 C 128.20 182.51 127.18 183.42 127.12 184.62 Z M 127.09 185.46 L 126.92 186.45 C 126.72 187.63 127.52 188.75 128.69 188.94 C 129.87 189.14 130.99 188.35 131.18 187.17 L 131.35 186.18 C 131.55 185.00 130.76 183.89 129.58 183.69 C 128.40 183.49 127.29 184.28 127.09 185.46 Z M 127.05 186.01 L 126.73 186.81 C 126.29 187.92 126.83 189.18 127.93 189.62 C 129.04 190.06 130.30 189.52 130.74 188.41 L 131.06 187.61 C 131.50 186.50 130.96 185.25 129.85 184.81 C 128.74 184.37 127.49 184.91 127.05 186.01 Z M 127.27 186.08 L 126.66 186.67 C 125.81 187.47 125.78 188.81 126.58 189.66 C 127.39 190.51 128.73 190.54 129.57 189.74 L 130.19 189.15 C 131.04 188.34 131.07 187.00 130.27 186.15 C 129.46 185.31 128.12 185.27 127.27 186.08 Z M 127.54 186.26 L 126.65 186.52 C 125.58 186.83 124.96 187.96 125.28 189.03 C 125.59 190.11 126.72 190.72 127.80 190.41 L 128.69 190.15 C 129.76 189.83 130.38 188.71 130.06 187.63 C 129.75 186.56 128.62 185.94 127.54 186.26 Z M 127.16 186.54 L 126.13 186.57 C 125.07 186.61 124.23 187.50 124.27 188.56 C 124.31 189.62 125.20 190.46 126.26 190.42 L 127.29 190.39 C 128.35 190.35 129.18 189.46 129.15 188.40 C 129.11 187.34 128.22 186.50 127.16 186.54 Z M 126.27 186.67 L 125.20 186.63 C 124.19 186.59 123.34 187.37 123.30 188.38 C 123.26 189.38 124.04 190.23 125.05 190.28 L 126.12 190.32 C 127.13 190.36 127.98 189.58 128.02 188.57 C 128.06 187.57 127.28 186.72 126.27 186.67 Z M 125.13 186.69 L 124.07 186.69 C 123.10 186.69 122.31 187.47 122.31 188.44 C 122.30 189.41 123.09 190.20 124.06 190.21 L 125.12 190.21 C 126.09 190.21 126.88 189.43 126.88 188.46 C 126.89 187.49 126.10 186.70 125.13 186.69 Z M 123.92 186.74 L 122.93 186.82 C 121.99 186.90 121.28 187.73 121.36 188.67 C 121.44 189.62 122.27 190.32 123.22 190.24 L 124.21 190.16 C 125.15 190.08 125.86 189.25 125.78 188.31 C 125.70 187.36 124.87 186.66 123.92 186.74 Z M 122.72 186.89 L 121.79 187.09 C 120.89 187.29 120.31 188.18 120.51 189.09 C 120.70 189.99 121.60 190.57 122.50 190.37 L 123.43 190.17 C 124.33 189.97 124.91 189.08 124.71 188.18 C 124.52 187.27 123.62 186.70 122.72 186.89 Z M 121.53 187.19 L 120.70 187.53 C 119.85 187.86 119.44 188.83 119.77 189.68 C 120.11 190.53 121.08 190.94 121.92 190.60 L 122.76 190.27 C 123.61 189.93 124.02 188.97 123.68 188.12 C 123.35 187.27 122.38 186.86 121.53 187.19 Z M 120.45 187.64 L 119.66 188.11 C 118.88 188.59 118.62 189.61 119.10 190.40 C 119.57 191.19 120.60 191.44 121.38 190.97 L 122.17 190.49 C 122.96 190.02 123.21 188.99 122.74 188.20 C 122.26 187.42 121.24 187.16 120.45 187.64 Z M 119.48 188.22 L 118.68 188.85 C 117.95 189.43 117.83 190.49 118.41 191.22 C 118.99 191.95 120.05 192.07 120.78 191.49 L 121.57 190.86 C 122.30 190.28 122.42 189.22 121.84 188.49 C 121.26 187.76 120.20 187.64 119.48 188.22 Z M 118.55 188.93 L 117.71 189.72 C 117.02 190.38 116.99 191.46 117.65 192.15 C 118.30 192.83 119.38 192.86 120.07 192.21 L 120.91 191.42 C 121.59 190.76 121.62 189.68 120.97 188.99 C 120.32 188.31 119.23 188.28 118.55 188.93 Z M 117.54 189.69 L 116.72 190.56 C 116.02 191.31 116.05 192.48 116.79 193.18 C 117.54 193.89 118.71 193.86 119.41 193.11 L 120.24 192.24 C 120.94 191.50 120.91 190.32 120.16 189.62 C 119.42 188.92 118.25 188.95 117.54 189.69 Z M 116.47 190.48 L 115.72 191.36 C 114.97 192.24 115.07 193.56 115.95 194.31 C 116.83 195.06 118.16 194.96 118.91 194.08 L 119.66 193.20 C 120.41 192.32 120.31 191.00 119.43 190.24 C 118.55 189.49 117.23 189.60 116.47 190.48 Z M 115.42 191.35 L 114.87 192.11 C 114.11 193.15 114.34 194.61 115.39 195.37 C 116.43 196.13 117.90 195.90 118.65 194.85 L 119.21 194.09 C 119.96 193.05 119.73 191.58 118.69 190.83 C 117.64 190.07 116.18 190.30 115.42 191.35 Z M 114.38 192.54 L 114.16 193.10 C 113.64 194.41 114.28 195.90 115.60 196.42 C 116.91 196.94 118.40 196.30 118.92 194.98 L 119.14 194.42 C 119.66 193.11 119.02 191.62 117.70 191.10 C 116.39 190.58 114.90 191.22 114.38 192.54 Z M 116.11 196.69 L 116.69 196.79 C 118.16 197.02 119.54 196.02 119.77 194.56 C 120.01 193.09 119.01 191.71 117.54 191.48 L 116.97 191.38 C 115.50 191.15 114.12 192.15 113.89 193.61 C 113.65 195.08 114.65 196.46 116.11 196.69 Z M 118.19 196.65 L 119.36 196.15 C 120.75 195.55 121.40 193.94 120.80 192.55 C 120.21 191.16 118.60 190.52 117.21 191.11 L 116.04 191.61 C 114.65 192.21 114.00 193.82 114.60 195.21 C 115.19 196.60 116.80 197.24 118.19 196.65 Z M 119.66 196.03 L 120.48 195.56 C 121.81 194.81 122.27 193.12 121.51 191.79 C 120.75 190.46 119.06 190.00 117.73 190.76 L 116.91 191.23 C 115.59 191.99 115.12 193.68 115.88 195.00 C 116.64 196.33 118.33 196.79 119.66 196.03 Z M 120.63 195.48 L 121.44 194.94 C 122.72 194.10 123.08 192.39 122.24 191.11 C 121.40 189.83 119.68 189.47 118.40 190.31 L 117.59 190.84 C 116.31 191.68 115.95 193.40 116.79 194.68 C 117.63 195.96 119.35 196.32 120.63 195.48 Z M 121.54 194.88 L 122.39 194.28 C 123.63 193.38 123.92 191.65 123.03 190.40 C 122.13 189.16 120.40 188.87 119.15 189.76 L 118.30 190.37 C 117.06 191.27 116.77 193.00 117.66 194.25 C 118.56 195.49 120.29 195.78 121.54 194.88 Z M 122.44 194.24 L 123.22 193.66 C 124.45 192.73 124.70 190.99 123.78 189.76 C 122.85 188.54 121.11 188.29 119.89 189.21 L 119.10 189.80 C 117.87 190.72 117.62 192.46 118.55 193.69 C 119.47 194.91 121.21 195.16 122.44 194.24 Z M 123.25 193.63 L 123.99 193.06 C 125.20 192.12 125.43 190.38 124.49 189.16 C 123.55 187.95 121.81 187.72 120.59 188.66 L 119.85 189.23 C 118.64 190.17 118.41 191.91 119.35 193.13 C 120.29 194.34 122.03 194.57 123.25 193.63 Z M 124.02 193.03 L 124.80 192.41 C 126.00 191.46 126.20 189.71 125.24 188.51 C 124.28 187.31 122.54 187.11 121.34 188.07 L 120.56 188.69 C 119.36 189.65 119.16 191.39 120.12 192.59 C 121.07 193.79 122.82 193.99 124.02 193.03 Z M 124.84 192.38 L 125.65 191.71 C 126.83 190.73 126.99 188.98 126.02 187.80 C 125.04 186.62 123.29 186.46 122.11 187.43 L 121.30 188.10 C 120.12 189.08 119.95 190.83 120.93 192.01 C 121.91 193.19 123.66 193.36 124.84 192.38 Z M 125.69 191.67 L 126.51 190.96 C 127.67 189.96 127.80 188.21 126.80 187.05 C 125.80 185.89 124.05 185.76 122.89 186.76 L 122.07 187.47 C 120.91 188.47 120.78 190.22 121.78 191.38 C 122.78 192.54 124.53 192.67 125.69 191.67 Z M 126.55 190.92 L 127.28 190.27 C 128.41 189.25 128.51 187.50 127.49 186.36 C 126.47 185.23 124.72 185.13 123.58 186.15 L 122.85 186.80 C 121.71 187.83 121.62 189.58 122.64 190.71 C 123.66 191.85 125.41 191.94 126.55 190.92 Z M 127.30 190.23 L 128.04 189.55 C 129.15 188.52 129.22 186.77 128.18 185.66 C 127.15 184.54 125.40 184.47 124.29 185.51 L 123.55 186.19 C 122.44 187.23 122.37 188.97 123.41 190.08 C 124.44 191.20 126.18 191.27 127.30 190.23 Z M 128.06 189.51 L 128.79 188.81 C 129.89 187.77 129.93 186.03 128.88 184.93 C 127.83 183.84 126.10 183.80 125.00 184.84 L 124.27 185.54 C 123.17 186.59 123.13 188.33 124.18 189.42 C 125.22 190.52 126.96 190.56 128.06 189.51 Z M 128.81 188.78 L 129.53 188.07 C 130.61 187.01 130.63 185.29 129.57 184.21 C 128.51 183.13 126.78 183.11 125.71 184.17 L 124.98 184.88 C 123.91 185.93 123.89 187.66 124.94 188.74 C 126.00 189.82 127.73 189.84 128.81 188.78 Z M 129.55 188.04 L 130.25 187.33 C 131.31 186.26 131.31 184.54 130.24 183.48 C 129.18 182.42 127.45 182.43 126.40 183.49 L 125.69 184.20 C 124.63 185.27 124.64 186.99 125.70 188.05 C 126.77 189.11 128.49 189.10 129.55 188.04 Z M 130.25 187.28 L 130.91 186.61 C 131.94 185.55 131.92 183.84 130.85 182.81 C 129.78 181.77 128.08 181.80 127.05 182.87 L 126.39 183.54 C 125.36 184.60 125.38 186.31 126.45 187.34 C 127.52 188.38 129.22 188.35 130.25 187.28 Z M 130.90 186.55 L 131.53 185.87 C 132.53 184.81 132.49 183.14 131.43 182.14 C 130.37 181.14 128.70 181.19 127.70 182.25 L 127.06 182.93 C 126.06 183.99 126.11 185.66 127.17 186.66 C 128.22 187.66 129.89 187.61 130.90 186.55 Z M 131.52 185.81 L 132.17 185.11 C 133.13 184.05 133.06 182.42 132.01 181.45 C 130.96 180.49 129.32 180.56 128.36 181.61 L 127.71 182.31 C 126.75 183.37 126.82 185.00 127.87 185.97 C 128.92 186.93 130.56 186.86 131.52 185.81 Z M 132.15 185.04 L 132.82 184.30 C 133.75 183.25 133.66 181.65 132.61 180.72 C 131.57 179.79 129.97 179.88 129.04 180.93 L 128.37 181.67 C 127.44 182.72 127.53 184.32 128.58 185.25 C 129.62 186.18 131.22 186.09 132.15 185.04 Z M 132.80 184.24 L 133.50 183.42 C 134.40 182.39 134.29 180.82 133.26 179.93 C 132.23 179.03 130.66 179.14 129.76 180.17 L 129.06 180.99 C 128.16 182.02 128.27 183.58 129.30 184.48 C 130.34 185.38 131.90 185.27 132.80 184.24 Z M 133.48 183.37 L 134.18 182.54 C 135.05 181.52 134.93 179.99 133.91 179.12 C 132.89 178.26 131.36 178.38 130.49 179.40 L 129.79 180.23 C 128.92 181.25 129.04 182.78 130.06 183.65 C 131.08 184.51 132.61 184.39 133.48 183.37 Z M 134.16 182.49 L 134.80 181.72 C 135.64 180.71 135.51 179.22 134.51 178.37 C 133.50 177.53 132.00 177.67 131.16 178.67 L 130.52 179.45 C 129.68 180.45 129.81 181.95 130.81 182.79 C 131.82 183.63 133.32 183.50 134.16 182.49 Z M 134.77 181.67 L 135.44 180.87 C 136.26 179.88 136.12 178.41 135.13 177.60 C 134.14 176.78 132.68 176.92 131.86 177.91 L 131.19 178.72 C 130.38 179.70 130.52 181.17 131.51 181.98 C 132.49 182.80 133.96 182.66 134.77 181.67 Z M 135.41 180.83 L 136.08 180.01 C 136.87 179.04 136.73 177.61 135.76 176.81 C 134.79 176.02 133.36 176.16 132.56 177.13 L 131.89 177.95 C 131.10 178.92 131.24 180.35 132.21 181.14 C 133.18 181.94 134.61 181.80 135.41 180.83 Z M 136.05 179.97 L 136.70 179.16 C 137.47 178.21 137.33 176.81 136.38 176.04 C 135.43 175.26 134.03 175.41 133.25 176.36 L 132.60 177.17 C 131.83 178.12 131.97 179.52 132.92 180.29 C 133.87 181.06 135.27 180.92 136.05 179.97 Z M 136.67 179.12 L 137.29 178.35 C 138.04 177.41 137.90 176.05 136.96 175.30 C 136.03 174.54 134.67 174.69 133.92 175.62 L 133.29 176.40 C 132.54 177.33 132.68 178.70 133.62 179.45 C 134.55 180.20 135.92 180.05 136.67 179.12 Z M 137.26 178.31 L 137.84 177.58 C 138.57 176.67 138.42 175.34 137.50 174.61 C 136.59 173.88 135.26 174.03 134.53 174.94 L 133.95 175.66 C 133.22 176.58 133.37 177.91 134.28 178.64 C 135.19 179.37 136.53 179.22 137.26 178.31 Z M 137.79 177.54 L 138.48 176.66 C 139.19 175.77 139.04 174.48 138.15 173.78 C 137.26 173.07 135.97 173.22 135.27 174.11 L 134.57 174.99 C 133.87 175.88 134.02 177.17 134.91 177.87 C 135.80 178.57 137.09 178.42 137.79 177.54 Z M 138.42 176.59 L 139.12 175.69 C 139.79 174.84 139.63 173.60 138.78 172.94 C 137.93 172.27 136.70 172.43 136.03 173.28 L 135.33 174.18 C 134.66 175.04 134.82 176.27 135.67 176.93 C 136.52 177.60 137.76 177.44 138.42 176.59 Z M 139.05 175.61 L 139.62 174.86 C 140.24 174.04 140.08 172.88 139.27 172.26 C 138.45 171.64 137.29 171.80 136.67 172.61 L 136.10 173.36 C 135.48 174.18 135.64 175.34 136.45 175.96 C 137.27 176.58 138.43 176.42 139.05 175.61 Z M 139.55 174.78 L 140.04 174.12 C 140.62 173.34 140.45 172.25 139.68 171.67 C 138.90 171.10 137.81 171.26 137.23 172.03 L 136.74 172.70 C 136.17 173.47 136.33 174.56 137.11 175.14 C 137.88 175.71 138.97 175.55 139.55 174.78 Z M 139.99 174.06 L 140.52 173.33 C 141.06 172.58 140.90 171.54 140.15 170.99 C 139.40 170.45 138.36 170.62 137.82 171.36 L 137.29 172.09 C 136.74 172.84 136.91 173.88 137.66 174.43 C 138.40 174.97 139.45 174.80 139.99 174.06 Z M 140.51 173.30 L 141.09 172.49 C 141.61 171.75 141.44 170.72 140.71 170.20 C 139.97 169.67 138.94 169.84 138.41 170.58 L 137.83 171.39 C 137.30 172.13 137.47 173.15 138.21 173.68 C 138.95 174.21 139.98 174.04 140.51 173.30 Z M 141.09 172.48 L 141.67 171.66 C 142.19 170.92 142.02 169.90 141.28 169.37 C 140.54 168.85 139.51 169.02 138.99 169.76 L 138.41 170.58 C 137.89 171.32 138.06 172.35 138.80 172.87 C 139.54 173.40 140.56 173.22 141.09 172.48 Z M 141.67 171.66 L 142.03 171.15 C 142.56 170.41 142.38 169.38 141.64 168.86 C 140.90 168.34 139.88 168.51 139.35 169.25 L 138.99 169.77 C 138.47 170.51 138.64 171.53 139.38 172.05 C 140.12 172.58 141.15 172.40 141.67 171.66 Z"
      fill="black"
      fill-rule="nonzero" /><path d="M 155.01 102.96 L 155.01 103.93 C 155.01 105.21 156.04 106.25 157.31 106.25 C 158.59 106.25 159.63 105.22 159.63 103.94 L 159.63 102.96 C 159.63 101.69 158.60 100.65 157.32 100.65 C 156.05 100.65 155.01 101.68 155.01 102.96 Z M 155.02 103.92 L 155.01 104.90 C 155.00 106.17 156.02 107.20 157.29 107.22 C 158.56 107.23 159.59 106.21 159.60 104.94 L 159.61 103.96 C 159.62 102.69 158.60 101.65 157.34 101.64 C 156.07 101.63 155.03 102.65 155.02 103.92 Z M 155.03 104.87 L 155.01 105.87 C 154.98 107.13 155.97 108.17 157.23 108.20 C 158.49 108.23 159.53 107.24 159.56 105.98 L 159.59 104.98 C 159.62 103.72 158.62 102.67 157.36 102.64 C 156.10 102.61 155.06 103.61 155.03 104.87 Z M 155.03 105.83 L 154.98 106.85 C 154.92 108.10 155.89 109.16 157.14 109.21 C 158.39 109.27 159.44 108.30 159.50 107.05 L 159.54 106.03 C 159.60 104.78 158.63 103.72 157.39 103.67 C 156.14 103.61 155.08 104.58 155.03 105.83 Z M 154.99 106.80 L 154.93 107.68 C 154.85 108.92 155.79 109.99 157.03 110.08 C 158.27 110.16 159.34 109.22 159.43 107.98 L 159.49 107.11 C 159.57 105.87 158.63 104.79 157.39 104.71 C 156.15 104.62 155.08 105.56 154.99 106.80 Z M 154.94 107.62 L 154.86 108.55 C 154.74 109.78 155.65 110.87 156.89 110.99 C 158.12 111.10 159.22 110.19 159.33 108.96 L 159.42 108.04 C 159.53 106.80 158.62 105.71 157.39 105.59 C 156.15 105.48 155.06 106.39 154.94 107.62 Z M 154.87 108.49 L 154.75 109.48 C 154.61 110.70 155.49 111.82 156.72 111.96 C 157.94 112.11 159.06 111.23 159.20 110.00 L 159.32 109.02 C 159.46 107.79 158.59 106.67 157.36 106.53 C 156.13 106.38 155.02 107.26 154.87 108.49 Z M 154.77 109.42 L 154.61 110.49 C 154.44 111.71 155.29 112.84 156.51 113.02 C 157.73 113.19 158.86 112.34 159.04 111.12 L 159.19 110.06 C 159.36 108.83 158.52 107.70 157.29 107.53 C 156.07 107.35 154.94 108.20 154.77 109.42 Z M 154.63 110.44 L 154.44 111.55 C 154.24 112.76 155.06 113.91 156.27 114.11 C 157.49 114.31 158.64 113.49 158.84 112.28 L 159.02 111.17 C 159.23 109.96 158.41 108.81 157.19 108.61 C 155.98 108.40 154.83 109.22 154.63 110.44 Z M 154.45 111.51 L 154.27 112.50 C 154.05 113.71 154.85 114.87 156.05 115.09 C 157.26 115.31 158.42 114.51 158.65 113.31 L 158.83 112.32 C 159.05 111.11 158.25 109.95 157.04 109.72 C 155.84 109.50 154.68 110.30 154.45 111.51 Z M 154.28 112.47 L 154.08 113.50 C 153.84 114.70 154.62 115.87 155.83 116.11 C 157.04 116.34 158.20 115.56 158.44 114.35 L 158.64 113.33 C 158.88 112.12 158.09 110.96 156.89 110.72 C 155.68 110.48 154.51 111.27 154.28 112.47 Z M 154.08 113.48 L 153.87 114.51 C 153.62 115.71 154.40 116.89 155.60 117.13 C 156.81 117.38 157.98 116.60 158.23 115.40 L 158.44 114.37 C 158.68 113.17 157.91 111.99 156.70 111.75 C 155.50 111.50 154.33 112.28 154.08 113.48 Z M 153.87 114.50 L 153.66 115.50 C 153.41 116.70 154.18 117.88 155.38 118.13 C 156.58 118.38 157.76 117.62 158.01 116.41 L 158.22 115.41 C 158.47 114.21 157.70 113.03 156.50 112.78 C 155.30 112.53 154.12 113.30 153.87 114.50 Z M 153.67 115.50 L 153.46 116.45 C 153.21 117.65 153.97 118.83 155.17 119.08 C 156.37 119.34 157.55 118.57 157.81 117.37 L 158.01 116.42 C 158.26 115.22 157.50 114.04 156.30 113.79 C 155.10 113.53 153.92 114.30 153.67 115.50 Z M 153.46 116.45 L 153.27 117.37 C 153.01 118.57 153.78 119.75 154.98 120.01 C 156.18 120.26 157.35 119.50 157.61 118.30 L 157.81 117.37 C 158.06 116.17 157.30 115.00 156.10 114.74 C 154.90 114.49 153.72 115.25 153.46 116.45 Z M 153.27 117.38 L 153.03 118.53 C 152.77 119.73 153.54 120.90 154.74 121.15 C 155.94 121.41 157.11 120.64 157.37 119.44 L 157.61 118.29 C 157.86 117.09 157.09 115.92 155.90 115.67 C 154.70 115.41 153.52 116.18 153.27 117.38 Z M 153.03 118.53 L 152.82 119.50 C 152.57 120.70 153.34 121.87 154.54 122.13 C 155.73 122.38 156.91 121.61 157.16 120.41 L 157.36 119.44 C 157.62 118.24 156.85 117.07 155.65 116.82 C 154.45 116.56 153.28 117.33 153.03 118.53 Z M 152.83 119.49 L 152.64 120.37 C 152.38 121.57 153.15 122.74 154.34 123.00 C 155.54 123.25 156.71 122.49 156.97 121.30 L 157.16 120.42 C 157.41 119.23 156.65 118.05 155.46 117.79 C 154.26 117.54 153.08 118.30 152.83 119.49 Z M 152.65 120.35 L 152.45 121.22 C 152.19 122.41 152.94 123.60 154.13 123.86 C 155.32 124.13 156.50 123.38 156.77 122.19 L 156.96 121.32 C 157.23 120.13 156.48 118.94 155.29 118.68 C 154.10 118.41 152.91 119.16 152.65 120.35 Z M 152.46 121.20 L 152.23 122.18 C 151.95 123.36 152.69 124.55 153.88 124.83 C 155.07 125.11 156.26 124.37 156.53 123.18 L 156.76 122.21 C 157.04 121.02 156.30 119.83 155.11 119.55 C 153.92 119.28 152.74 120.02 152.46 121.20 Z M 152.23 122.17 L 152.00 123.16 C 151.72 124.35 152.46 125.54 153.65 125.82 C 154.84 126.10 156.03 125.36 156.30 124.17 L 156.53 123.18 C 156.81 121.99 156.07 120.80 154.89 120.53 C 153.70 120.25 152.51 120.99 152.23 122.17 Z M 151.99 123.18 L 151.78 124.16 C 151.51 125.35 152.26 126.53 153.45 126.80 C 154.64 127.07 155.82 126.32 156.09 125.13 L 156.31 124.15 C 156.57 122.96 155.82 121.78 154.63 121.51 C 153.44 121.24 152.26 121.99 151.99 123.18 Z M 151.76 124.22 L 151.54 125.37 C 151.31 126.57 152.09 127.73 153.29 127.97 C 154.49 128.20 155.65 127.41 155.88 126.21 L 156.11 125.06 C 156.34 123.86 155.55 122.70 154.35 122.47 C 153.15 122.24 151.99 123.02 151.76 124.22 Z M 151.49 125.66 L 151.43 126.72 C 151.36 127.95 152.30 129.00 153.52 129.07 C 154.75 129.14 155.80 128.20 155.87 126.98 L 155.93 125.92 C 156.00 124.69 155.06 123.64 153.84 123.57 C 152.61 123.50 151.56 124.44 151.49 125.66 Z M 151.70 127.93 L 152.02 128.52 C 152.62 129.59 153.98 129.98 155.06 129.39 C 156.14 128.79 156.53 127.43 155.93 126.35 L 155.60 125.77 C 155.00 124.69 153.65 124.30 152.57 124.90 C 151.49 125.49 151.10 126.85 151.70 127.93 Z M 153.96 129.68 L 154.65 129.68 C 155.89 129.69 156.90 128.69 156.91 127.46 C 156.92 126.22 155.92 125.21 154.69 125.20 L 153.99 125.19 C 152.75 125.18 151.74 126.18 151.73 127.42 C 151.72 128.65 152.72 129.67 153.96 129.68 Z M 155.48 129.54 L 156.45 129.16 C 157.61 128.71 158.18 127.41 157.73 126.25 C 157.29 125.09 155.98 124.52 154.82 124.97 L 153.86 125.34 C 152.70 125.79 152.12 127.09 152.57 128.25 C 153.02 129.41 154.32 129.99 155.48 129.54 Z M 156.75 129.03 L 157.83 128.41 C 158.92 127.80 159.30 126.42 158.68 125.34 C 158.07 124.25 156.69 123.87 155.60 124.49 L 154.52 125.10 C 153.44 125.72 153.06 127.09 153.67 128.18 C 154.29 129.26 155.67 129.64 156.75 129.03 Z M 157.98 128.33 L 158.82 127.76 C 159.86 127.07 160.13 125.66 159.43 124.62 C 158.74 123.59 157.33 123.31 156.30 124.01 L 155.46 124.57 C 154.42 125.27 154.14 126.68 154.84 127.71 C 155.54 128.75 156.94 129.02 157.98 128.33 Z M 158.90 127.70 L 159.72 127.10 C 160.73 126.36 160.94 124.94 160.19 123.94 C 159.45 122.93 158.04 122.72 157.03 123.46 L 156.21 124.07 C 155.21 124.81 155.00 126.23 155.74 127.23 C 156.48 128.24 157.90 128.45 158.90 127.70 Z M 159.77 127.06 L 160.56 126.44 C 161.54 125.67 161.72 124.25 160.94 123.27 C 160.17 122.28 158.75 122.11 157.77 122.88 L 156.98 123.50 C 156.00 124.27 155.82 125.69 156.60 126.68 C 157.37 127.66 158.79 127.83 159.77 127.06 Z M 160.59 126.42 L 161.34 125.81 C 162.31 125.03 162.47 123.60 161.68 122.63 C 160.89 121.66 159.47 121.51 158.50 122.29 L 157.74 122.90 C 156.77 123.69 156.62 125.11 157.40 126.08 C 158.19 127.06 159.61 127.21 160.59 126.42 Z M 161.34 125.81 L 162.11 125.19 C 163.08 124.40 163.23 122.98 162.45 122.01 C 161.66 121.03 160.23 120.88 159.26 121.67 L 158.49 122.29 C 157.52 123.08 157.37 124.51 158.16 125.48 C 158.95 126.45 160.37 126.60 161.34 125.81 Z M 162.10 125.20 L 162.86 124.59 C 163.84 123.81 163.99 122.38 163.21 121.41 C 162.43 120.43 161.00 120.27 160.03 121.06 L 159.27 121.66 C 158.29 122.45 158.14 123.87 158.92 124.85 C 159.70 125.82 161.13 125.98 162.10 125.20 Z M 162.85 124.60 L 163.64 123.98 C 164.62 123.20 164.79 121.78 164.01 120.79 C 163.24 119.81 161.81 119.64 160.83 120.42 L 160.04 121.04 C 159.06 121.82 158.89 123.24 159.67 124.23 C 160.44 125.21 161.87 125.38 162.85 124.60 Z M 163.62 123.99 L 164.40 123.39 C 165.39 122.62 165.58 121.20 164.81 120.21 C 164.04 119.22 162.62 119.04 161.63 119.80 L 160.85 120.40 C 159.86 121.17 159.68 122.60 160.44 123.59 C 161.21 124.58 162.63 124.76 163.62 123.99 Z M 164.39 123.41 L 165.16 122.82 C 166.16 122.06 166.36 120.64 165.60 119.64 C 164.84 118.64 163.42 118.44 162.42 119.20 L 161.64 119.78 C 160.64 120.54 160.45 121.97 161.20 122.97 C 161.96 123.97 163.39 124.16 164.39 123.41 Z M 165.14 122.84 L 165.95 122.24 C 166.97 121.50 167.18 120.07 166.44 119.06 C 165.70 118.05 164.27 117.83 163.26 118.57 L 162.44 119.18 C 161.43 119.92 161.21 121.34 161.96 122.36 C 162.70 123.37 164.13 123.59 165.14 122.84 Z M 165.93 122.27 L 166.77 121.67 C 167.80 120.94 168.04 119.52 167.31 118.49 C 166.58 117.46 165.16 117.22 164.13 117.95 L 163.29 118.55 C 162.26 119.28 162.02 120.70 162.75 121.73 C 163.47 122.75 164.90 123.00 165.93 122.27 Z M 166.73 121.70 L 167.59 121.12 C 168.63 120.42 168.91 119.00 168.20 117.95 C 167.50 116.91 166.08 116.63 165.03 117.34 L 164.17 117.92 C 163.12 118.62 162.85 120.04 163.56 121.09 C 164.26 122.14 165.68 122.41 166.73 121.70 Z M 167.54 121.16 L 168.41 120.61 C 169.48 119.93 169.79 118.51 169.11 117.44 C 168.43 116.38 167.01 116.06 165.95 116.74 L 165.08 117.30 C 164.01 117.98 163.70 119.40 164.38 120.46 C 165.06 121.53 166.47 121.84 167.54 121.16 Z M 168.36 120.64 L 169.23 120.12 C 170.32 119.47 170.67 118.06 170.01 116.97 C 169.36 115.88 167.95 115.53 166.86 116.19 L 166.00 116.71 C 164.91 117.36 164.56 118.77 165.21 119.86 C 165.87 120.95 167.28 121.30 168.36 120.64 Z M 169.18 120.15 L 170.04 119.67 C 171.15 119.04 171.53 117.63 170.90 116.53 C 170.28 115.42 168.87 115.04 167.77 115.67 L 166.91 116.15 C 165.80 116.78 165.42 118.19 166.04 119.29 C 166.67 120.40 168.08 120.78 169.18 120.15 Z M 169.99 119.70 L 170.84 119.25 C 171.96 118.64 172.38 117.25 171.78 116.12 C 171.18 115.00 169.78 114.58 168.66 115.18 L 167.81 115.63 C 166.69 116.24 166.27 117.63 166.87 118.76 C 167.47 119.88 168.87 120.30 169.99 119.70 Z M 170.79 119.28 L 171.65 118.84 C 172.79 118.27 173.25 116.88 172.68 115.74 C 172.10 114.60 170.71 114.14 169.57 114.71 L 168.71 115.15 C 167.57 115.72 167.11 117.11 167.68 118.25 C 168.26 119.39 169.65 119.85 170.79 119.28 Z M 171.58 118.88 L 172.46 118.48 C 173.62 117.94 174.13 116.57 173.59 115.40 C 173.05 114.24 171.68 113.73 170.52 114.27 L 169.64 114.68 C 168.48 115.21 167.97 116.59 168.51 117.75 C 169.04 118.91 170.42 119.42 171.58 118.88 Z M 172.37 118.52 L 173.30 118.14 C 174.48 117.65 175.04 116.29 174.55 115.11 C 174.06 113.92 172.71 113.36 171.52 113.85 L 170.60 114.23 C 169.42 114.72 168.85 116.08 169.34 117.26 C 169.83 118.45 171.19 119.01 172.37 118.52 Z M 173.21 118.18 L 174.21 117.81 C 175.41 117.37 176.03 116.04 175.59 114.83 C 175.15 113.62 173.82 113.00 172.61 113.44 L 171.61 113.81 C 170.40 114.25 169.78 115.58 170.22 116.79 C 170.66 118.00 172.00 118.62 173.21 118.18 Z M 174.13 117.85 L 175.01 117.56 C 176.23 117.16 176.90 115.85 176.50 114.62 C 176.11 113.40 174.79 112.73 173.57 113.13 L 172.69 113.41 C 171.46 113.81 170.79 115.12 171.19 116.35 C 171.59 117.57 172.90 118.24 174.13 117.85 Z M 174.94 117.59 L 175.86 117.32 C 177.10 116.96 177.81 115.66 177.45 114.43 C 177.09 113.19 175.80 112.47 174.56 112.83 L 173.64 113.10 C 172.40 113.46 171.69 114.76 172.04 115.99 C 172.40 117.23 173.70 117.94 174.94 117.59 Z M 175.79 117.34 L 176.76 117.09 C 178.02 116.77 178.77 115.50 178.45 114.25 C 178.13 113.00 176.86 112.24 175.61 112.56 L 174.63 112.81 C 173.38 113.13 172.63 114.40 172.95 115.66 C 173.27 116.91 174.54 117.66 175.79 117.34 Z M 176.69 117.11 L 177.70 116.89 C 178.97 116.61 179.76 115.36 179.49 114.10 C 179.21 112.83 177.96 112.04 176.69 112.32 L 175.68 112.54 C 174.42 112.82 173.62 114.07 173.90 115.33 C 174.18 116.59 175.43 117.39 176.69 117.11 Z M 177.62 116.91 L 178.67 116.72 C 179.94 116.48 180.78 115.26 180.55 113.99 C 180.32 112.71 179.09 111.87 177.82 112.10 L 176.78 112.30 C 175.50 112.53 174.66 113.75 174.89 115.03 C 175.13 116.30 176.35 117.14 177.62 116.91 Z M 178.57 116.75 L 179.68 116.59 C 180.97 116.41 181.87 115.21 181.69 113.92 C 181.51 112.63 180.31 111.74 179.02 111.92 L 177.91 112.08 C 176.62 112.26 175.72 113.45 175.91 114.74 C 176.09 116.03 177.28 116.93 178.57 116.75 Z M 179.56 116.63 L 180.67 116.53 C 181.98 116.41 182.95 115.26 182.84 113.95 C 182.72 112.63 181.56 111.67 180.25 111.78 L 179.14 111.88 C 177.83 112.00 176.86 113.15 176.98 114.46 C 177.09 115.77 178.25 116.74 179.56 116.63 Z M 180.50 116.57 L 181.54 116.55 C 182.87 116.53 183.94 115.44 183.92 114.11 C 183.90 112.78 182.80 111.71 181.47 111.73 L 180.43 111.75 C 179.10 111.76 178.03 112.86 178.05 114.19 C 178.07 115.52 179.16 116.58 180.50 116.57 Z M 181.27 116.57 L 182.21 116.66 C 183.55 116.79 184.74 115.81 184.87 114.47 C 185.00 113.13 184.02 111.93 182.68 111.81 L 181.74 111.71 C 180.40 111.59 179.21 112.57 179.08 113.91 C 178.95 115.25 179.93 116.44 181.27 116.57 Z M 181.78 116.61 L 182.56 116.82 C 183.87 117.19 185.23 116.42 185.59 115.11 C 185.96 113.80 185.19 112.44 183.88 112.07 L 183.10 111.86 C 181.79 111.49 180.43 112.26 180.07 113.57 C 179.70 114.88 180.47 116.24 181.78 116.61 Z M 181.79 116.49 L 182.56 117.03 C 183.68 117.82 185.24 117.55 186.03 116.43 C 186.82 115.30 186.55 113.74 185.43 112.95 L 184.66 112.41 C 183.53 111.62 181.97 111.89 181.18 113.01 C 180.39 114.14 180.66 115.69 181.79 116.49 Z M 181.81 116.26 L 182.28 117.07 C 182.98 118.27 184.53 118.68 185.73 117.98 C 186.93 117.27 187.34 115.73 186.64 114.53 L 186.17 113.72 C 185.47 112.52 183.93 112.11 182.72 112.81 C 181.52 113.51 181.11 115.06 181.81 116.26 Z M 181.99 116.44 L 182.25 117.43 C 182.61 118.79 184.00 119.61 185.36 119.25 C 186.73 118.90 187.54 117.51 187.19 116.14 L 186.93 115.15 C 186.57 113.79 185.18 112.97 183.82 113.33 C 182.45 113.68 181.64 115.08 181.99 116.44 Z M 182.17 117.16 L 182.32 118.18 C 182.53 119.59 183.84 120.56 185.24 120.35 C 186.65 120.14 187.62 118.84 187.42 117.43 L 187.27 116.41 C 187.06 115.00 185.75 114.03 184.34 114.24 C 182.94 114.45 181.97 115.75 182.17 117.16 Z M 182.30 118.09 L 182.41 119.09 C 182.56 120.51 183.84 121.53 185.26 121.38 C 186.68 121.22 187.71 119.94 187.55 118.52 L 187.44 117.52 C 187.28 116.10 186.01 115.08 184.59 115.23 C 183.17 115.39 182.14 116.67 182.30 118.09 Z M 182.40 119.03 L 182.48 120.04 C 182.61 121.47 183.86 122.53 185.29 122.40 C 186.72 122.28 187.77 121.02 187.65 119.60 L 187.56 118.58 C 187.44 117.16 186.18 116.10 184.76 116.22 C 183.33 116.35 182.27 117.60 182.40 119.03 Z M 182.47 120.00 L 182.54 121.00 C 182.64 122.43 183.89 123.51 185.32 123.41 C 186.75 123.31 187.83 122.06 187.73 120.63 L 187.66 119.64 C 187.56 118.20 186.32 117.13 184.88 117.23 C 183.45 117.33 182.37 118.57 182.47 120.00 Z M 182.54 120.97 L 182.60 121.97 C 182.69 123.41 183.92 124.50 185.36 124.41 C 186.79 124.32 187.89 123.09 187.80 121.65 L 187.74 120.65 C 187.65 119.22 186.41 118.12 184.98 118.21 C 183.54 118.30 182.45 119.54 182.54 120.97 Z M 182.59 121.97 L 182.65 122.95 C 182.74 124.38 183.97 125.48 185.41 125.40 C 186.85 125.31 187.95 124.08 187.86 122.64 L 187.80 121.66 C 187.72 120.22 186.48 119.12 185.04 119.21 C 183.61 119.29 182.51 120.53 182.59 121.97 Z M 182.65 122.96 L 182.71 123.94 C 182.80 125.38 184.05 126.47 185.49 126.38 C 186.93 126.29 188.02 125.05 187.93 123.61 L 187.86 122.63 C 187.77 121.19 186.53 120.09 185.09 120.19 C 183.65 120.28 182.56 121.52 182.65 122.96 Z M 182.71 123.97 L 182.79 124.98 C 182.90 126.42 184.15 127.50 185.59 127.39 C 187.03 127.28 188.11 126.02 188.00 124.58 L 187.93 123.58 C 187.82 122.14 186.56 121.06 185.12 121.17 C 183.68 121.28 182.60 122.53 182.71 123.97 Z M 182.79 125.01 L 182.87 125.90 C 183.00 127.34 184.27 128.40 185.71 128.28 C 187.15 128.15 188.21 126.88 188.08 125.44 L 188.00 124.55 C 187.87 123.11 186.60 122.05 185.16 122.17 C 183.72 122.30 182.66 123.57 182.79 125.01 Z M 182.87 125.92 L 182.96 126.88 C 183.10 128.31 184.38 129.37 185.82 129.23 C 187.26 129.09 188.31 127.81 188.17 126.37 L 188.08 125.42 C 187.94 123.98 186.66 122.92 185.22 123.07 C 183.78 123.21 182.73 124.49 182.87 125.92 Z M 182.96 126.89 L 183.07 127.91 C 183.22 129.35 184.50 130.39 185.94 130.25 C 187.38 130.10 188.42 128.81 188.28 127.37 L 188.17 126.35 C 188.02 124.92 186.74 123.87 185.30 124.02 C 183.86 124.17 182.82 125.45 182.96 126.89 Z M 183.07 127.92 L 183.18 129.01 C 183.34 130.45 184.62 131.49 186.06 131.34 C 187.50 131.18 188.54 129.90 188.39 128.46 L 188.28 127.37 C 188.12 125.93 186.84 124.89 185.40 125.04 C 183.96 125.19 182.92 126.48 183.07 127.92 Z M 183.18 129.01 L 183.29 130.05 C 183.45 131.49 184.74 132.53 186.17 132.38 C 187.61 132.23 188.66 130.94 188.50 129.50 L 188.39 128.46 C 188.24 127.02 186.95 125.97 185.51 126.13 C 184.07 126.28 183.03 127.57 183.18 129.01 Z M 183.29 130.05 L 183.40 131.08 C 183.56 132.52 184.85 133.56 186.29 133.41 C 187.72 133.26 188.77 131.97 188.61 130.53 L 188.50 129.50 C 188.35 128.06 187.06 127.02 185.62 127.17 C 184.18 127.32 183.14 128.61 183.29 130.05 Z M 183.40 131.09 L 183.51 132.12 C 183.67 133.56 184.96 134.60 186.40 134.44 C 187.84 134.29 188.88 133.00 188.73 131.56 L 188.61 130.52 C 188.46 129.08 187.17 128.04 185.73 128.20 C 184.29 128.35 183.25 129.65 183.40 131.09 Z M 183.51 132.13 L 183.62 133.13 C 183.78 134.57 185.08 135.61 186.52 135.45 C 187.96 135.29 189.00 134.00 188.84 132.56 L 188.73 131.55 C 188.57 130.11 187.27 129.07 185.83 129.23 C 184.39 129.39 183.35 130.69 183.51 132.13 Z M 183.62 133.14 L 183.73 134.09 C 183.90 135.53 185.20 136.56 186.64 136.40 C 188.08 136.23 189.11 134.93 188.95 133.49 L 188.84 132.55 C 188.67 131.11 187.37 130.07 185.93 130.24 C 184.49 130.40 183.46 131.71 183.62 133.14 Z M 183.73 134.11 L 183.86 135.16 C 184.04 136.60 185.35 137.62 186.78 137.44 C 188.22 137.27 189.25 135.96 189.07 134.52 L 188.94 133.48 C 188.77 132.04 187.46 131.01 186.02 131.19 C 184.58 131.36 183.56 132.67 183.73 134.11 Z M 183.86 135.18 L 184.00 136.23 C 184.19 137.67 185.51 138.68 186.95 138.49 C 188.39 138.30 189.40 136.98 189.21 135.54 L 189.07 134.50 C 188.88 133.06 187.56 132.05 186.12 132.24 C 184.69 132.43 183.68 133.75 183.86 135.18 Z M 184.01 136.25 L 184.14 137.19 C 184.34 138.63 185.67 139.63 187.10 139.43 C 188.54 139.23 189.54 137.90 189.34 136.46 L 189.21 135.52 C 189.00 134.09 187.68 133.09 186.24 133.29 C 184.80 133.49 183.80 134.82 184.01 136.25 Z M 184.14 137.20 L 184.27 138.09 C 184.47 139.53 185.80 140.52 187.24 140.32 C 188.68 140.11 189.67 138.78 189.47 137.34 L 189.34 136.45 C 189.13 135.02 187.80 134.02 186.36 134.23 C 184.93 134.43 183.93 135.76 184.14 137.20 Z M 184.26 138.09 L 184.40 139.04 C 184.60 140.48 185.93 141.48 187.37 141.28 C 188.81 141.08 189.81 139.75 189.60 138.31 L 189.47 137.35 C 189.26 135.91 187.93 134.91 186.50 135.12 C 185.06 135.32 184.06 136.65 184.26 138.09 Z M 184.40 139.04 L 184.53 140.02 C 184.73 141.46 186.06 142.47 187.50 142.27 C 188.93 142.07 189.94 140.74 189.74 139.30 L 189.60 138.32 C 189.41 136.88 188.08 135.87 186.64 136.07 C 185.20 136.27 184.20 137.60 184.40 139.04 Z M 184.53 140.02 L 184.67 141.02 C 184.86 142.46 186.19 143.47 187.63 143.28 C 189.07 143.08 190.07 141.76 189.88 140.32 L 189.74 139.31 C 189.55 137.87 188.22 136.86 186.78 137.06 C 185.35 137.25 184.34 138.58 184.53 140.02 Z M 184.67 141.02 L 184.80 142.01 C 184.99 143.45 186.31 144.46 187.75 144.27 C 189.19 144.08 190.20 142.76 190.01 141.32 L 189.88 140.32 C 189.69 138.88 188.37 137.87 186.93 138.06 C 185.49 138.25 184.47 139.58 184.67 141.02 Z M 184.80 142.01 L 184.93 142.99 C 185.12 144.43 186.44 145.44 187.88 145.25 C 189.32 145.06 190.33 143.74 190.14 142.30 L 190.01 141.32 C 189.82 139.88 188.50 138.87 187.06 139.06 C 185.62 139.25 184.61 140.57 184.80 142.01 Z M 184.93 142.99 L 185.06 143.98 C 185.24 145.42 186.56 146.44 188.00 146.25 C 189.44 146.06 190.46 144.74 190.27 143.30 L 190.14 142.31 C 189.96 140.87 188.64 139.85 187.20 140.04 C 185.76 140.23 184.74 141.54 184.93 142.99 Z M 185.06 143.98 L 185.19 144.98 C 185.37 146.42 186.69 147.44 188.13 147.26 C 189.57 147.07 190.59 145.75 190.40 144.31 L 190.27 143.31 C 190.09 141.86 188.77 140.85 187.33 141.03 C 185.89 141.22 184.87 142.54 185.06 143.98 Z M 185.18 144.98 L 185.31 145.96 C 185.49 147.40 186.81 148.42 188.25 148.23 C 189.69 148.05 190.71 146.74 190.53 145.29 L 190.40 144.32 C 190.22 142.87 188.90 141.86 187.46 142.04 C 186.02 142.22 185.00 143.54 185.18 144.98 Z M 185.31 145.95 L 185.43 146.94 C 185.61 148.38 186.93 149.40 188.37 149.22 C 189.81 149.04 190.83 147.73 190.65 146.29 L 190.53 145.30 C 190.35 143.86 189.03 142.83 187.59 143.02 C 186.15 143.20 185.13 144.51 185.31 145.95 Z M 185.43 146.94 L 185.56 147.94 C 185.74 149.38 187.05 150.40 188.49 150.22 C 189.93 150.04 190.96 148.73 190.78 147.29 L 190.65 146.29 C 190.47 144.85 189.16 143.82 187.72 144.00 C 186.28 144.18 185.25 145.50 185.43 146.94 Z M 185.56 147.93 L 185.68 148.93 C 185.86 150.37 187.17 151.40 188.61 151.22 C 190.05 151.04 191.08 149.73 190.90 148.29 L 190.78 147.29 C 190.60 145.85 189.29 144.82 187.85 145.00 C 186.40 145.18 185.38 146.49 185.56 147.93 Z M 185.68 148.92 L 185.79 149.89 C 185.97 151.33 187.28 152.36 188.72 152.18 C 190.16 152.01 191.19 150.70 191.02 149.26 L 190.90 148.29 C 190.73 146.85 189.41 145.82 187.97 146.00 C 186.53 146.17 185.50 147.48 185.68 148.92 Z M 185.79 149.88 L 185.91 150.87 C 186.08 152.31 187.39 153.34 188.83 153.17 C 190.28 153.00 191.31 151.69 191.14 150.24 L 191.02 149.26 C 190.85 147.82 189.54 146.79 188.10 146.96 C 186.65 147.13 185.62 148.44 185.79 149.88 Z M 185.91 150.86 L 186.03 151.87 C 186.19 153.31 187.50 154.35 188.94 154.18 C 190.39 154.01 191.42 152.71 191.25 151.26 L 191.14 150.25 C 190.97 148.81 189.66 147.77 188.22 147.94 C 186.78 148.11 185.74 149.41 185.91 150.86 Z M 186.02 151.86 L 186.14 152.88 C 186.30 154.32 187.60 155.36 189.05 155.20 C 190.49 155.04 191.53 153.74 191.37 152.29 L 191.26 151.27 C 191.09 149.83 189.79 148.79 188.35 148.95 C 186.90 149.11 185.86 150.41 186.02 151.86 Z M 186.14 152.87 L 186.24 153.86 C 186.40 155.31 187.70 156.35 189.15 156.19 C 190.59 156.04 191.64 154.74 191.48 153.29 L 191.37 152.30 C 191.21 150.85 189.91 149.81 188.47 149.97 C 187.02 150.13 185.98 151.42 186.14 152.87 Z M 186.24 153.86 L 186.35 154.86 C 186.51 156.31 187.80 157.35 189.25 157.20 C 190.70 157.04 191.74 155.75 191.59 154.30 L 191.48 153.29 C 191.32 151.85 190.03 150.80 188.58 150.96 C 187.13 151.11 186.09 152.41 186.24 153.86 Z M 186.35 154.86 L 186.46 155.86 C 186.61 157.31 187.91 158.36 189.36 158.20 C 190.81 158.04 191.85 156.75 191.70 155.30 L 191.59 154.30 C 191.43 152.85 190.13 151.81 188.69 151.96 C 187.24 152.12 186.20 153.42 186.35 154.86 Z M 186.46 155.87 L 186.57 156.85 C 186.73 158.30 188.03 159.34 189.47 159.19 C 190.92 159.03 191.96 157.73 191.80 156.28 L 191.70 155.30 C 191.54 153.85 190.24 152.81 188.79 152.96 C 187.34 153.12 186.30 154.42 186.46 155.87 Z M 186.57 156.86 L 186.68 157.89 C 186.85 159.34 188.15 160.38 189.60 160.21 C 191.04 160.05 192.08 158.75 191.92 157.30 L 191.80 156.27 C 191.64 154.83 190.34 153.79 188.89 153.95 C 187.44 154.11 186.40 155.42 186.57 156.86 Z M 186.68 157.89 L 186.80 158.89 C 186.96 160.34 188.27 161.38 189.71 161.21 C 191.16 161.05 192.20 159.74 192.03 158.30 L 191.92 157.30 C 191.75 155.85 190.45 154.81 189.00 154.98 C 187.56 155.14 186.52 156.45 186.68 157.89 Z M 186.79 158.88 L 186.90 159.86 C 187.06 161.31 188.37 162.35 189.81 162.19 C 191.26 162.03 192.30 160.73 192.14 159.28 L 192.03 158.30 C 191.87 156.86 190.57 155.81 189.12 155.97 C 187.68 156.13 186.63 157.44 186.79 158.88 Z M 186.90 159.85 L 187.00 160.82 C 187.15 162.26 188.45 163.32 189.90 163.16 C 191.35 163.01 192.40 161.72 192.25 160.27 L 192.14 159.30 C 191.99 157.85 190.70 156.80 189.25 156.95 C 187.80 157.10 186.75 158.40 186.90 159.85 Z M 187.00 160.79 L 187.09 161.78 C 187.23 163.23 188.52 164.30 189.97 164.16 C 191.42 164.02 192.48 162.73 192.34 161.28 L 192.25 160.29 C 192.11 158.84 190.82 157.78 189.37 157.92 C 187.92 158.06 186.86 159.34 187.00 160.79 Z M 187.09 161.76 L 187.18 162.75 C 187.30 164.21 188.58 165.28 190.03 165.15 C 191.48 165.03 192.56 163.75 192.43 162.30 L 192.35 161.30 C 192.22 159.85 190.94 158.78 189.49 158.91 C 188.04 159.03 186.96 160.31 187.09 161.76 Z M 187.18 162.74 L 187.26 163.74 C 187.38 165.19 188.65 166.27 190.10 166.15 C 191.55 166.03 192.63 164.76 192.52 163.31 L 192.43 162.31 C 192.31 160.86 191.04 159.78 189.59 159.90 C 188.14 160.02 187.06 161.29 187.18 162.74 Z M 187.26 163.73 L 187.34 164.73 C 187.45 166.19 188.72 167.27 190.17 167.16 C 191.63 167.04 192.71 165.77 192.60 164.32 L 192.52 163.32 C 192.40 161.86 191.13 160.78 189.68 160.89 C 188.23 161.01 187.14 162.28 187.26 163.73 Z M 187.33 164.73 L 187.41 165.72 C 187.52 167.17 188.79 168.26 190.25 168.15 C 191.70 168.03 192.79 166.77 192.67 165.31 L 192.60 164.32 C 192.48 162.87 191.21 161.78 189.76 161.90 C 188.31 162.01 187.22 163.28 187.33 164.73 Z M 187.41 165.71 L 187.48 166.71 C 187.59 168.16 188.86 169.25 190.31 169.15 C 191.76 169.04 192.86 167.77 192.75 166.32 L 192.67 165.32 C 192.57 163.87 191.30 162.78 189.85 162.88 C 188.39 162.99 187.30 164.26 187.41 165.71 Z M 187.48 166.69 L 187.55 167.70 C 187.65 169.15 188.91 170.25 190.37 170.15 C 191.82 170.05 192.92 168.79 192.82 167.33 L 192.75 166.33 C 192.65 164.88 191.39 163.78 189.94 163.88 C 188.48 163.98 187.38 165.24 187.48 166.69 Z M 187.55 167.68 L 187.61 168.68 C 187.70 170.13 188.95 171.24 190.41 171.15 C 191.86 171.06 192.97 169.81 192.88 168.36 L 192.82 167.36 C 192.73 165.90 191.48 164.79 190.02 164.88 C 188.57 164.97 187.46 166.22 187.55 167.68 Z M 187.61 168.65 L 187.66 169.65 C 187.74 171.10 188.98 172.22 190.43 172.15 C 191.89 172.07 193.01 170.83 192.93 169.37 L 192.88 168.38 C 192.81 166.92 191.56 165.81 190.11 165.88 C 188.65 165.96 187.53 167.20 187.61 168.65 Z M 187.66 169.63 L 187.71 170.63 C 187.77 172.08 189.00 173.21 190.46 173.14 C 191.92 173.08 193.04 171.84 192.98 170.39 L 192.93 169.39 C 192.87 167.94 191.63 166.81 190.18 166.87 C 188.72 166.94 187.60 168.17 187.66 169.63 Z M 187.71 170.61 L 187.75 171.61 C 187.80 173.07 189.03 174.20 190.49 174.14 C 191.95 174.09 193.08 172.86 193.02 171.40 L 192.98 170.40 C 192.92 168.94 191.69 167.81 190.24 167.87 C 188.78 167.93 187.65 169.16 187.71 170.61 Z M 187.75 171.61 L 187.78 172.61 C 187.84 174.07 189.06 175.20 190.52 175.15 C 191.98 175.09 193.11 173.87 193.06 172.41 L 193.02 171.41 C 192.96 169.95 191.74 168.81 190.28 168.87 C 188.83 168.93 187.69 170.15 187.75 171.61 Z M 187.78 172.61 L 187.82 173.58 C 187.87 175.04 189.10 176.18 190.56 176.12 C 192.01 176.07 193.15 174.84 193.09 173.39 L 193.06 172.41 C 193.00 170.95 191.78 169.82 190.32 169.87 C 188.87 169.93 187.73 171.15 187.78 172.61 Z M 187.82 173.58 L 187.86 174.57 C 187.91 176.03 189.13 177.17 190.59 177.11 C 192.05 177.06 193.19 175.83 193.13 174.38 L 193.09 173.39 C 193.04 171.93 191.82 170.79 190.36 170.85 C 188.90 170.90 187.77 172.13 187.82 173.58 Z M 187.86 174.57 L 187.89 175.58 C 187.95 177.03 189.17 178.17 190.63 178.12 C 192.08 178.07 193.22 176.84 193.17 175.38 L 193.13 174.38 C 193.08 172.92 191.85 171.78 190.40 171.84 C 188.94 171.89 187.80 173.11 187.86 174.57 Z M 187.89 175.57 L 187.93 176.60 C 187.98 178.06 189.20 179.20 190.66 179.15 C 192.12 179.09 193.26 177.87 193.20 176.41 L 193.17 175.39 C 193.12 173.93 191.89 172.79 190.44 172.84 C 188.98 172.89 187.84 174.12 187.89 175.57 Z M 187.93 176.60 L 187.96 177.61 C 188.01 179.06 189.24 180.20 190.69 180.15 C 192.15 180.10 193.29 178.88 193.24 177.42 L 193.20 176.42 C 193.15 174.96 191.93 173.82 190.48 173.87 C 189.02 173.92 187.88 175.14 187.93 176.60 Z M 187.96 177.60 L 188.00 178.62 C 188.05 180.07 189.27 181.21 190.73 181.16 C 192.18 181.11 193.32 179.89 193.27 178.44 L 193.24 177.42 C 193.19 175.97 191.97 174.83 190.51 174.88 C 189.05 174.93 187.91 176.15 187.96 177.60 Z M 188.00 178.62 L 188.03 179.63 C 188.08 181.08 189.31 182.22 190.76 182.17 C 192.22 182.12 193.36 180.90 193.31 179.44 L 193.27 178.43 C 193.22 176.98 192.00 175.84 190.55 175.89 C 189.09 175.94 187.95 177.16 188.00 178.62 Z M 188.03 179.63 L 188.07 180.62 C 188.12 182.07 189.34 183.21 190.80 183.16 C 192.26 183.11 193.40 181.89 193.34 180.43 L 193.31 179.44 C 193.26 177.98 192.04 176.85 190.58 176.90 C 189.12 176.95 187.98 178.17 188.03 179.63 Z M 188.07 180.62 L 188.11 181.63 C 188.16 183.09 189.38 184.23 190.84 184.18 C 192.30 184.12 193.43 182.90 193.38 181.44 L 193.34 180.43 C 193.29 178.97 192.07 177.83 190.61 177.89 C 189.15 177.94 188.02 179.16 188.07 180.62 Z M 188.11 181.64 L 188.14 182.66 C 188.20 184.12 189.42 185.26 190.88 185.20 C 192.33 185.15 193.47 183.93 193.42 182.47 L 193.38 181.44 C 193.33 179.99 192.10 178.85 190.65 178.90 C 189.19 178.95 188.05 180.18 188.11 181.64 Z M 188.14 182.66 L 188.18 183.65 C 188.23 185.10 189.45 186.24 190.90 186.19 C 192.36 186.15 193.50 184.92 193.45 183.47 L 193.42 182.48 C 193.37 181.02 192.15 179.88 190.69 179.93 C 189.23 179.98 188.09 181.20 188.14 182.66 Z M 188.18 183.63 L 188.20 184.60 C 188.25 186.06 189.46 187.20 190.92 187.16 C 192.37 187.12 193.52 185.91 193.48 184.45 L 193.45 183.48 C 193.41 182.03 192.20 180.88 190.74 180.92 C 189.28 180.96 188.14 182.18 188.18 183.63 Z M 188.20 184.58 L 188.22 185.57 C 188.25 187.03 189.46 188.18 190.91 188.15 C 192.37 188.13 193.53 186.92 193.50 185.46 L 193.48 184.47 C 193.45 183.02 192.25 181.86 190.79 181.89 C 189.33 181.92 188.18 183.12 188.20 184.58 Z M 188.22 185.55 L 188.24 186.56 C 188.26 188.01 189.45 189.18 190.91 189.16 C 192.36 189.14 193.53 187.95 193.51 186.49 L 193.50 185.48 C 193.48 184.03 192.29 182.86 190.83 182.88 C 189.37 182.90 188.21 184.09 188.22 185.55 Z M 188.24 186.55 L 188.25 187.55 C 188.26 189.01 189.46 190.18 190.91 190.16 C 192.37 190.14 193.54 188.95 193.52 187.49 L 193.51 186.50 C 193.50 185.04 192.30 183.87 190.85 183.89 C 189.39 183.90 188.22 185.10 188.24 186.55 Z M 188.25 187.56 L 188.26 188.55 C 188.29 190.01 189.48 191.17 190.94 191.15 C 192.40 191.12 193.56 189.92 193.54 188.47 L 193.52 187.48 C 193.50 186.03 192.30 184.86 190.84 184.89 C 189.39 184.91 188.23 186.11 188.25 187.56 Z M 188.27 188.58 L 188.29 189.59 C 188.33 191.04 189.54 192.19 190.99 192.16 C 192.45 192.12 193.60 190.91 193.56 189.45 L 193.54 188.44 C 193.50 186.99 192.29 185.84 190.83 185.87 C 189.38 185.91 188.23 187.12 188.27 188.58 Z M 188.29 189.60 L 188.32 190.61 C 188.37 192.06 189.59 193.20 191.04 193.16 C 192.50 193.11 193.64 191.90 193.59 190.44 L 193.56 189.44 C 193.51 187.98 192.30 186.84 190.84 186.89 C 189.39 186.93 188.25 188.15 188.29 189.60 Z M 188.32 190.61 L 188.36 191.60 C 188.40 193.05 189.62 194.20 191.07 194.15 C 192.53 194.10 193.67 192.89 193.62 191.43 L 193.59 190.44 C 193.55 188.99 192.33 187.85 190.88 187.89 C 189.42 187.94 188.28 189.15 188.32 190.61 Z M 188.36 191.58 L 188.38 192.58 C 188.41 194.03 189.62 195.18 191.08 195.15 C 192.53 195.11 193.68 193.91 193.65 192.45 L 193.62 191.45 C 193.59 190.00 192.38 188.85 190.93 188.88 C 189.47 188.92 188.32 190.13 188.36 191.58 Z M 188.38 192.55 L 188.39 193.57 C 188.41 195.02 189.61 196.18 191.06 196.16 C 192.51 196.14 193.68 194.95 193.66 193.50 L 193.64 192.48 C 193.63 191.03 192.43 189.86 190.98 189.88 C 189.52 189.90 188.36 191.09 188.38 192.55 Z M 188.39 193.54 L 188.40 194.54 C 188.41 196.00 189.59 197.17 191.04 197.16 C 192.50 197.15 193.67 195.97 193.66 194.52 L 193.66 193.52 C 193.65 192.07 192.47 190.89 191.01 190.90 C 189.56 190.91 188.39 192.09 188.39 193.54 Z M 188.40 194.53 L 188.40 195.51 C 188.40 196.96 189.58 198.14 191.03 198.14 C 192.49 198.13 193.66 196.96 193.66 195.50 L 193.66 194.53 C 193.66 193.08 192.48 191.90 191.03 191.90 C 189.58 191.90 188.40 193.08 188.40 194.53 Z M 188.40 195.51 L 188.40 196.41 C 188.40 197.86 189.58 199.04 191.03 199.04 C 192.48 199.04 193.66 197.86 193.66 196.41 L 193.66 195.51 C 193.66 194.05 192.48 192.88 191.03 192.88 C 189.58 192.88 188.40 194.05 188.40 195.51 Z M 188.40 196.41 L 188.40 197.36 C 188.40 198.81 189.58 199.98 191.03 199.98 C 192.48 199.98 193.66 198.81 193.66 197.36 L 193.66 196.41 C 193.66 194.96 192.48 193.79 191.03 193.79 C 189.58 193.79 188.40 194.96 188.40 196.41 Z M 188.41 197.36 L 188.41 198.40 C 188.41 199.85 189.58 201.03 191.03 201.03 C 192.48 201.03 193.66 199.85 193.66 198.40 L 193.66 197.36 C 193.66 195.91 192.48 194.73 191.03 194.73 C 189.58 194.73 188.41 195.91 188.41 197.36 Z M 188.41 198.40 L 188.41 199.47 C 188.41 200.92 189.58 202.09 191.03 202.09 C 192.48 202.09 193.66 200.92 193.66 199.47 L 193.66 198.40 C 193.66 196.95 192.48 195.78 191.03 195.78 C 189.58 195.78 188.41 196.95 188.41 198.40 Z M 188.41 199.47 L 188.41 200.45 C 188.41 201.89 189.58 203.07 191.03 203.07 C 192.48 203.07 193.65 201.89 193.65 200.45 L 193.65 199.47 C 193.65 198.02 192.48 196.85 191.03 196.85 C 189.58 196.85 188.41 198.02 188.41 199.47 Z M 188.41 200.45 L 188.41 201.47 C 188.41 202.92 189.58 204.09 191.03 204.09 C 192.48 204.09 193.65 202.92 193.65 201.47 L 193.65 200.45 C 193.65 199.00 192.48 197.82 191.03 197.82 C 189.58 197.82 188.41 199.00 188.41 200.45 Z M 188.41 201.47 L 188.41 202.51 C 188.41 203.96 189.58 205.13 191.03 205.13 C 192.48 205.13 193.65 203.96 193.65 202.51 L 193.65 201.47 C 193.65 200.03 192.48 198.85 191.03 198.85 C 189.58 198.85 188.41 200.03 188.41 201.47 Z M 188.41 202.51 L 188.41 203.52 C 188.41 204.97 189.59 206.14 191.03 206.14 C 192.48 206.14 193.65 204.97 193.65 203.52 L 193.65 202.51 C 193.65 201.07 192.48 199.89 191.03 199.89 C 189.59 199.89 188.41 201.07 188.41 202.51 Z M 188.41 203.52 L 188.41 204.59 C 188.41 206.03 189.58 207.20 191.03 207.20 C 192.48 207.20 193.65 206.03 193.65 204.59 L 193.65 203.52 C 193.65 202.08 192.48 200.91 191.03 200.91 C 189.59 200.91 188.41 202.08 188.41 203.52 Z M 188.42 204.57 L 188.41 205.63 C 188.40 207.08 189.56 208.26 191.00 208.27 C 192.44 208.28 193.62 207.12 193.64 205.68 L 193.65 204.61 C 193.66 203.16 192.50 201.98 191.05 201.97 C 189.61 201.96 188.43 203.12 188.42 204.57 Z M 188.41 205.57 L 188.38 206.54 C 188.33 207.98 189.46 209.19 190.90 209.24 C 192.34 209.29 193.55 208.16 193.60 206.72 L 193.63 205.75 C 193.68 204.30 192.55 203.10 191.11 203.05 C 189.67 203.00 188.46 204.13 188.41 205.57 Z M 188.39 206.42 L 188.32 207.33 C 188.20 208.76 189.27 210.02 190.71 210.14 C 192.14 210.25 193.40 209.18 193.51 207.75 L 193.59 206.84 C 193.70 205.40 192.63 204.15 191.20 204.03 C 189.76 203.91 188.51 204.98 188.39 206.42 Z M 188.34 207.14 L 188.19 208.14 C 187.97 209.56 188.94 210.89 190.36 211.11 C 191.78 211.33 193.11 210.36 193.33 208.94 L 193.49 207.94 C 193.71 206.52 192.74 205.19 191.32 204.97 C 189.90 204.75 188.56 205.72 188.34 207.14 Z M 188.26 207.84 L 187.98 208.83 C 187.59 210.21 188.39 211.65 189.77 212.04 C 191.15 212.43 192.59 211.62 192.98 210.24 L 193.26 209.25 C 193.65 207.87 192.85 206.43 191.47 206.04 C 190.08 205.65 188.65 206.45 188.26 207.84 Z M 188.17 208.36 L 187.74 209.21 C 187.09 210.48 187.59 212.04 188.87 212.69 C 190.14 213.34 191.70 212.84 192.35 211.56 L 192.79 210.72 C 193.44 209.44 192.93 207.88 191.66 207.23 C 190.38 206.58 188.82 207.08 188.17 208.36 Z M 188.21 208.57 L 187.56 209.22 C 186.56 210.23 186.57 211.87 187.58 212.88 C 188.59 213.88 190.23 213.87 191.23 212.86 L 191.88 212.20 C 192.89 211.19 192.88 209.55 191.86 208.55 C 190.85 207.54 189.21 207.55 188.21 208.57 Z M 188.25 208.73 L 187.39 209.16 C 186.12 209.79 185.59 211.34 186.23 212.61 C 186.86 213.89 188.40 214.41 189.68 213.77 L 190.54 213.34 C 191.82 212.71 192.34 211.17 191.70 209.89 C 191.07 208.62 189.53 208.10 188.25 208.73 Z M 187.93 208.98 L 186.93 209.22 C 185.55 209.56 184.71 210.94 185.05 212.32 C 185.38 213.69 186.77 214.53 188.14 214.20 L 189.14 213.96 C 190.51 213.62 191.36 212.24 191.02 210.86 C 190.69 209.49 189.30 208.64 187.93 208.98 Z M 187.24 209.18 L 186.25 209.30 C 184.85 209.46 183.86 210.73 184.02 212.13 C 184.19 213.52 185.45 214.52 186.85 214.36 L 187.83 214.24 C 189.23 214.08 190.23 212.81 190.06 211.41 C 189.90 210.01 188.63 209.02 187.24 209.18 Z M 186.47 209.30 L 185.50 209.33 C 184.10 209.38 183.01 210.55 183.05 211.94 C 183.10 213.34 184.27 214.43 185.66 214.38 L 186.63 214.35 C 188.03 214.31 189.12 213.14 189.08 211.74 C 189.03 210.35 187.86 209.26 186.47 209.30 Z M 185.71 209.36 L 184.69 209.30 C 183.31 209.23 182.13 210.29 182.06 211.68 C 181.99 213.06 183.05 214.24 184.43 214.31 L 185.45 214.36 C 186.83 214.43 188.01 213.37 188.08 211.99 C 188.15 210.61 187.09 209.43 185.71 209.36 Z M 184.90 209.34 L 183.89 209.21 C 182.53 209.03 181.28 209.98 181.10 211.34 C 180.92 212.70 181.87 213.95 183.23 214.13 L 184.23 214.27 C 185.59 214.45 186.84 213.50 187.03 212.14 C 187.21 210.78 186.26 209.53 184.90 209.34 Z M 184.06 209.26 L 183.14 209.07 C 181.81 208.79 180.50 209.65 180.23 210.98 C 179.96 212.32 180.81 213.62 182.15 213.90 L 183.06 214.08 C 184.40 214.36 185.70 213.50 185.97 212.17 C 186.25 210.84 185.39 209.53 184.06 209.26 Z M 183.27 209.12 L 182.31 208.86 C 181.01 208.52 179.67 209.30 179.32 210.60 C 178.98 211.91 179.75 213.25 181.06 213.59 L 182.02 213.85 C 183.32 214.19 184.66 213.41 185.01 212.11 C 185.35 210.80 184.58 209.46 183.27 209.12 Z M 182.42 208.91 L 181.43 208.60 C 180.15 208.19 178.78 208.90 178.38 210.18 C 177.97 211.46 178.68 212.82 179.96 213.23 L 180.95 213.54 C 182.23 213.95 183.60 213.24 184.00 211.96 C 184.41 210.68 183.70 209.32 182.42 208.91 Z M 181.51 208.65 L 180.51 208.28 C 179.26 207.83 177.88 208.48 177.43 209.73 C 176.97 210.98 177.62 212.36 178.87 212.82 L 179.87 213.18 C 181.12 213.63 182.51 212.98 182.96 211.73 C 183.41 210.48 182.76 209.10 181.51 208.65 Z M 180.58 208.33 L 179.62 207.95 C 178.40 207.46 177.01 208.06 176.52 209.28 C 176.03 210.51 176.63 211.90 177.85 212.39 L 178.81 212.77 C 180.03 213.26 181.43 212.66 181.91 211.44 C 182.40 210.21 181.81 208.82 180.58 208.33 Z M 179.67 207.99 L 178.73 207.58 C 177.52 207.07 176.12 207.62 175.61 208.83 C 175.09 210.03 175.65 211.43 176.85 211.95 L 177.80 212.35 C 179.01 212.87 180.40 212.31 180.92 211.11 C 181.44 209.90 180.88 208.50 179.67 207.99 Z M 178.77 207.62 L 177.85 207.20 C 176.67 206.66 175.27 207.19 174.73 208.37 C 174.19 209.55 174.72 210.95 175.90 211.49 L 176.81 211.91 C 178.00 212.45 179.39 211.92 179.93 210.74 C 180.47 209.56 179.95 208.16 178.77 207.62 Z M 177.89 207.24 L 177.04 206.83 C 175.88 206.27 174.48 206.76 173.92 207.92 C 173.36 209.08 173.85 210.48 175.01 211.04 L 175.86 211.45 C 177.02 212.01 178.42 211.53 178.98 210.36 C 179.54 209.20 179.06 207.80 177.89 207.24 Z M 177.08 206.88 L 176.11 206.38 C 174.98 205.80 173.59 206.24 173.00 207.38 C 172.42 208.51 172.86 209.90 174.00 210.49 L 174.97 210.99 C 176.10 211.57 177.49 211.13 178.08 209.99 C 178.66 208.86 178.22 207.47 177.08 206.88 Z M 176.15 206.45 L 175.27 205.97 C 174.17 205.36 172.79 205.76 172.19 206.86 C 171.58 207.95 171.98 209.33 173.08 209.94 L 173.96 210.42 C 175.06 211.03 176.43 210.63 177.04 209.53 C 177.64 208.43 177.25 207.05 176.15 206.45 Z M 175.29 206.02 L 174.48 205.56 C 173.42 204.94 172.06 205.31 171.44 206.37 C 170.82 207.44 171.19 208.80 172.25 209.41 L 173.06 209.88 C 174.13 210.49 175.49 210.13 176.10 209.07 C 176.72 208.00 176.35 206.64 175.29 206.02 Z M 174.48 205.60 L 173.68 205.13 C 172.64 204.52 171.30 204.87 170.68 205.91 C 170.07 206.95 170.42 208.29 171.46 208.90 L 172.26 209.37 C 173.30 209.98 174.64 209.63 175.25 208.59 C 175.86 207.55 175.52 206.21 174.48 205.60 Z M 173.67 205.17 L 172.84 204.68 C 171.83 204.07 170.51 204.40 169.90 205.42 C 169.29 206.44 169.63 207.75 170.64 208.36 L 171.47 208.86 C 172.48 209.46 173.80 209.13 174.41 208.12 C 175.02 207.10 174.69 205.78 173.67 205.17 Z M 172.86 204.73 L 172.00 204.20 C 171.01 203.58 169.71 203.88 169.10 204.87 C 168.48 205.86 168.78 207.16 169.77 207.77 L 170.63 208.31 C 171.62 208.92 172.91 208.62 173.53 207.63 C 174.14 206.65 173.84 205.35 172.86 204.73 Z M 172.02 204.26 L 171.17 203.70 C 170.22 203.07 168.94 203.34 168.31 204.29 C 167.68 205.24 167.94 206.52 168.90 207.15 L 169.75 207.71 C 170.70 208.34 171.98 208.07 172.61 207.12 C 173.23 206.17 172.97 204.89 172.02 204.26 Z M 171.19 203.76 L 170.44 203.23 C 169.52 202.59 168.25 202.82 167.61 203.74 C 166.97 204.66 167.20 205.92 168.12 206.56 L 168.87 207.09 C 169.79 207.73 171.06 207.51 171.70 206.59 C 172.34 205.67 172.11 204.40 171.19 203.76 Z M 170.46 203.30 L 169.67 202.71 C 168.79 202.05 167.54 202.24 166.88 203.13 C 166.23 204.01 166.41 205.26 167.30 205.92 L 168.09 206.50 C 168.98 207.16 170.23 206.97 170.88 206.09 C 171.54 205.20 171.35 203.95 170.46 203.30 Z M 169.70 202.77 L 168.88 202.13 C 168.03 201.45 166.80 201.60 166.12 202.45 C 165.45 203.30 165.60 204.53 166.45 205.20 L 167.27 205.85 C 168.12 206.52 169.35 206.38 170.02 205.53 C 170.69 204.68 170.55 203.45 169.70 202.77 Z M 168.91 202.19 L 168.08 201.49 C 167.27 200.81 166.06 200.91 165.37 201.72 C 164.68 202.53 164.78 203.74 165.59 204.43 L 166.42 205.13 C 167.23 205.82 168.44 205.72 169.13 204.91 C 169.82 204.10 169.72 202.88 168.91 202.19 Z M 168.10 201.56 L 167.35 200.88 C 166.58 200.18 165.39 200.24 164.69 201.01 C 163.98 201.79 164.04 202.98 164.82 203.68 L 165.57 204.36 C 166.34 205.06 167.54 205.00 168.24 204.23 C 168.94 203.46 168.88 202.26 168.10 201.56 Z M 167.36 200.95 L 166.62 200.23 C 165.88 199.53 164.71 199.55 164.01 200.29 C 163.30 201.03 163.32 202.20 164.06 202.90 L 164.81 203.62 C 165.54 204.32 166.71 204.30 167.42 203.56 C 168.13 202.82 168.10 201.65 167.36 200.95 Z M 166.63 200.30 L 165.91 199.57 C 165.21 198.86 164.06 198.86 163.35 199.56 C 162.64 200.26 162.64 201.41 163.34 202.12 L 164.06 202.84 C 164.76 203.55 165.90 203.56 166.61 202.85 C 167.32 202.15 167.33 201.01 166.63 200.30 Z M 165.92 199.63 L 165.25 198.92 C 164.58 198.21 163.46 198.17 162.74 198.84 C 162.03 199.51 162.00 200.63 162.67 201.34 L 163.34 202.06 C 164.00 202.77 165.12 202.81 165.84 202.14 C 166.55 201.47 166.58 200.35 165.92 199.63 Z M 165.26 198.99 L 164.58 198.22 C 163.95 197.50 162.85 197.43 162.13 198.07 C 161.42 198.70 161.35 199.80 161.98 200.52 L 162.66 201.28 C 163.29 202.00 164.38 202.07 165.10 201.43 C 165.82 200.80 165.89 199.70 165.26 198.99 Z M 164.60 198.29 L 163.93 197.47 C 163.34 196.74 162.26 196.64 161.53 197.23 C 160.80 197.83 160.70 198.90 161.29 199.63 L 161.96 200.45 C 162.56 201.18 163.63 201.28 164.36 200.69 C 165.09 200.09 165.20 199.02 164.60 198.29 Z M 163.95 197.53 L 163.36 196.76 C 162.79 196.02 161.74 195.88 161.00 196.44 C 160.26 197.01 160.12 198.06 160.69 198.80 L 161.28 199.57 C 161.84 200.31 162.90 200.45 163.63 199.89 C 164.37 199.32 164.51 198.27 163.95 197.53 Z M 163.36 196.80 L 162.81 196.05 C 162.27 195.31 161.23 195.15 160.49 195.69 C 159.75 196.23 159.59 197.26 160.13 198.00 L 160.68 198.75 C 161.22 199.49 162.26 199.65 163.00 199.11 C 163.74 198.57 163.90 197.54 163.36 196.80 Z M 162.80 196.06 L 162.65 195.86 C 162.12 195.12 161.09 194.96 160.36 195.49 C 159.63 196.02 159.46 197.05 159.99 197.78 L 160.14 197.99 C 160.67 198.72 161.70 198.88 162.43 198.35 C 163.17 197.82 163.33 196.80 162.80 196.06 Z"
      fill="black"
      fill-rule="nonzero" /><path d="M 154.03 152.43 L 154.73 153.12 C 155.62 154.00 157.06 153.99 157.94 153.09 C 158.83 152.20 158.81 150.76 157.92 149.88 L 157.22 149.19 C 156.33 148.31 154.89 148.32 154.00 149.22 C 153.12 150.11 153.13 151.55 154.03 152.43 Z M 154.86 153.13 L 155.60 153.79 C 156.50 154.60 157.89 154.53 158.70 153.62 C 159.50 152.72 159.43 151.33 158.53 150.53 L 157.79 149.86 C 156.88 149.06 155.50 149.13 154.69 150.04 C 153.88 150.94 153.96 152.33 154.86 153.13 Z M 155.80 153.86 L 156.62 154.47 C 157.55 155.16 158.88 154.97 159.58 154.03 C 160.27 153.10 160.08 151.77 159.14 151.08 L 158.32 150.47 C 157.39 149.77 156.06 149.96 155.37 150.90 C 154.67 151.83 154.86 153.16 155.80 153.86 Z M 156.84 154.53 L 157.67 155.02 C 158.65 155.60 159.90 155.27 160.47 154.30 C 161.05 153.33 160.72 152.08 159.75 151.50 L 158.92 151.01 C 157.95 150.44 156.70 150.76 156.12 151.73 C 155.55 152.70 155.87 153.96 156.84 154.53 Z M 157.80 155.03 L 158.68 155.49 C 159.65 155.99 160.85 155.61 161.36 154.64 C 161.87 153.67 161.49 152.46 160.51 151.96 L 159.63 151.50 C 158.66 150.99 157.46 151.37 156.95 152.34 C 156.44 153.32 156.82 154.52 157.80 155.03 Z M 158.69 155.43 L 159.59 155.91 C 160.54 156.41 161.71 156.05 162.21 155.10 C 162.71 154.16 162.35 152.99 161.40 152.49 L 160.50 152.01 C 159.55 151.51 158.39 151.87 157.89 152.82 C 157.39 153.76 157.75 154.93 158.69 155.43 Z M 159.52 155.81 L 160.39 156.34 C 161.28 156.88 162.44 156.60 162.98 155.71 C 163.52 154.82 163.24 153.66 162.35 153.12 L 161.48 152.59 C 160.59 152.05 159.43 152.33 158.89 153.22 C 158.35 154.11 158.63 155.26 159.52 155.81 Z M 160.27 156.20 L 161.07 156.80 C 161.88 157.41 163.03 157.25 163.64 156.44 C 164.25 155.63 164.09 154.48 163.28 153.87 L 162.47 153.26 C 161.66 152.65 160.51 152.81 159.90 153.63 C 159.29 154.44 159.46 155.59 160.27 156.20 Z M 160.94 156.64 L 161.66 157.33 C 162.38 158.01 163.52 157.98 164.20 157.26 C 164.89 156.54 164.86 155.40 164.14 154.72 L 163.41 154.03 C 162.69 153.35 161.55 153.38 160.87 154.10 C 160.19 154.82 160.22 155.96 160.94 156.64 Z M 161.53 157.13 L 162.16 157.90 C 162.77 158.65 163.87 158.77 164.63 158.16 C 165.38 157.55 165.50 156.44 164.89 155.69 L 164.27 154.92 C 163.66 154.16 162.55 154.05 161.79 154.66 C 161.04 155.27 160.92 156.37 161.53 157.13 Z M 162.04 157.67 L 162.52 158.49 C 163.01 159.31 164.06 159.58 164.88 159.10 C 165.70 158.62 165.98 157.56 165.49 156.74 L 165.01 155.92 C 164.52 155.10 163.47 154.83 162.65 155.31 C 161.83 155.79 161.55 156.85 162.04 157.67 Z M 162.44 158.27 L 162.81 159.16 C 163.17 160.02 164.16 160.43 165.03 160.07 C 165.89 159.71 166.31 158.72 165.95 157.85 L 165.58 156.96 C 165.22 156.10 164.22 155.69 163.36 156.05 C 162.49 156.41 162.08 157.40 162.44 158.27 Z M 162.76 158.96 L 163.03 159.92 C 163.28 160.82 164.21 161.34 165.10 161.09 C 165.99 160.84 166.51 159.91 166.26 159.02 L 165.99 158.05 C 165.74 157.16 164.82 156.64 163.93 156.89 C 163.03 157.14 162.51 158.06 162.76 158.96 Z M 163.02 159.76 L 163.20 160.81 C 163.36 161.71 164.22 162.31 165.12 162.15 C 166.02 162.00 166.62 161.14 166.46 160.24 L 166.28 159.19 C 166.12 158.29 165.26 157.69 164.36 157.85 C 163.46 158.00 162.86 158.86 163.02 159.76 Z M 163.20 160.69 L 163.29 161.65 C 163.38 162.55 164.19 163.21 165.09 163.12 C 165.99 163.03 166.65 162.23 166.56 161.33 L 166.46 160.36 C 166.38 159.46 165.57 158.80 164.67 158.89 C 163.77 158.98 163.11 159.79 163.20 160.69 Z M 163.29 161.55 L 163.32 162.55 C 163.36 163.45 164.12 164.16 165.02 164.13 C 165.92 164.09 166.63 163.34 166.60 162.43 L 166.57 161.43 C 166.53 160.53 165.77 159.82 164.87 159.85 C 163.96 159.88 163.26 160.64 163.29 161.55 Z M 163.32 162.44 L 163.29 163.46 C 163.27 164.36 163.98 165.12 164.89 165.14 C 165.79 165.17 166.54 164.46 166.57 163.55 L 166.60 162.54 C 166.63 161.63 165.91 160.88 165.01 160.85 C 164.11 160.82 163.35 161.54 163.32 162.44 Z M 163.30 163.34 L 163.20 164.35 C 163.11 165.26 163.77 166.06 164.67 166.15 C 165.57 166.23 166.38 165.58 166.46 164.68 L 166.56 163.66 C 166.65 162.76 165.99 161.96 165.09 161.87 C 164.19 161.79 163.39 162.44 163.30 163.34 Z M 163.22 164.23 L 163.04 165.25 C 162.88 166.14 163.47 166.99 164.36 167.15 C 165.26 167.30 166.11 166.71 166.26 165.82 L 166.45 164.80 C 166.61 163.91 166.01 163.06 165.12 162.90 C 164.23 162.74 163.38 163.34 163.22 164.23 Z M 163.07 165.12 L 162.80 166.12 C 162.57 167.00 163.10 167.90 163.97 168.12 C 164.85 168.35 165.75 167.83 165.97 166.95 L 166.24 165.95 C 166.47 165.07 165.94 164.18 165.07 163.95 C 164.19 163.72 163.30 164.24 163.07 165.12 Z M 162.83 166.02 L 162.51 166.97 C 162.22 167.83 162.69 168.76 163.55 169.05 C 164.41 169.34 165.34 168.87 165.63 168.01 L 165.95 167.06 C 166.23 166.20 165.77 165.27 164.91 164.98 C 164.05 164.69 163.12 165.16 162.83 166.02 Z M 162.54 166.89 L 162.19 167.79 C 161.85 168.63 162.27 169.59 163.11 169.92 C 163.96 170.26 164.91 169.84 165.24 169.00 L 165.60 168.10 C 165.93 167.25 165.52 166.30 164.67 165.96 C 163.83 165.63 162.87 166.05 162.54 166.89 Z M 162.21 167.73 L 161.81 168.63 C 161.45 169.46 161.82 170.43 162.66 170.80 C 163.49 171.16 164.46 170.79 164.83 169.95 L 165.22 169.06 C 165.59 168.22 165.21 167.25 164.38 166.89 C 163.54 166.52 162.57 166.90 162.21 167.73 Z M 161.83 168.58 L 161.38 169.51 C 160.99 170.33 161.34 171.32 162.16 171.71 C 162.99 172.10 163.97 171.76 164.37 170.93 L 164.81 170.00 C 165.20 169.18 164.86 168.19 164.03 167.80 C 163.21 167.41 162.22 167.75 161.83 168.58 Z M 161.40 169.46 L 160.95 170.34 C 160.53 171.15 160.85 172.15 161.67 172.57 C 162.48 172.99 163.48 172.67 163.90 171.85 L 164.35 170.98 C 164.77 170.16 164.45 169.16 163.63 168.74 C 162.82 168.32 161.82 168.65 161.40 169.46 Z M 160.96 170.30 L 160.50 171.15 C 160.06 171.96 160.37 172.97 161.18 173.41 C 161.99 173.85 163.00 173.55 163.44 172.74 L 163.89 171.89 C 164.33 171.08 164.03 170.07 163.22 169.63 C 162.41 169.19 161.40 169.49 160.96 170.30 Z M 160.51 171.13 L 160.02 172.00 C 159.56 172.81 159.85 173.83 160.66 174.28 C 161.47 174.73 162.49 174.45 162.94 173.64 L 163.43 172.76 C 163.88 171.95 163.59 170.93 162.79 170.48 C 161.98 170.03 160.96 170.32 160.51 171.13 Z M 160.01 171.98 L 159.51 172.86 C 159.05 173.67 159.33 174.70 160.14 175.16 C 160.95 175.62 161.98 175.34 162.44 174.53 L 162.94 173.66 C 163.40 172.85 163.12 171.82 162.31 171.36 C 161.51 170.89 160.48 171.18 160.01 171.98 Z M 159.51 172.85 L 159.01 173.70 C 158.54 174.52 158.82 175.55 159.63 176.02 C 160.44 176.49 161.48 176.22 161.95 175.40 L 162.45 174.55 C 162.92 173.73 162.64 172.70 161.83 172.23 C 161.02 171.76 159.98 172.04 159.51 172.85 Z M 159.01 173.69 L 158.55 174.48 C 158.07 175.29 158.35 176.34 159.16 176.81 C 159.98 177.29 161.02 177.02 161.50 176.20 L 161.96 175.42 C 162.43 174.60 162.16 173.56 161.34 173.08 C 160.53 172.60 159.48 172.88 159.01 173.69 Z M 158.54 174.46 L 158.09 175.22 C 157.60 176.04 157.87 177.10 158.69 177.58 C 159.51 178.07 160.57 177.80 161.06 176.98 L 161.51 176.22 C 161.99 175.40 161.72 174.34 160.90 173.85 C 160.08 173.37 159.03 173.64 158.54 174.46 Z M 158.08 175.19 L 157.57 176.02 C 157.07 176.85 157.32 177.92 158.15 178.43 C 158.97 178.93 160.04 178.67 160.55 177.85 L 161.06 177.01 C 161.57 176.19 161.31 175.11 160.49 174.61 C 159.66 174.10 158.59 174.36 158.08 175.19 Z M 157.57 175.99 L 156.94 176.97 C 156.42 177.80 156.66 178.89 157.49 179.41 C 158.31 179.94 159.40 179.69 159.93 178.87 L 160.55 177.88 C 161.07 177.06 160.83 175.97 160.01 175.44 C 159.18 174.92 158.09 175.17 157.57 175.99 Z M 156.90 176.92 L 156.26 177.89 C 155.71 178.74 155.95 179.88 156.80 180.43 C 157.65 180.98 158.78 180.74 159.33 179.89 L 159.97 178.92 C 160.52 178.07 160.28 176.94 159.43 176.39 C 158.59 175.83 157.45 176.07 156.90 176.92 Z M 156.16 177.83 L 155.52 178.83 C 154.93 179.73 155.19 180.94 156.09 181.53 C 156.99 182.11 158.20 181.86 158.79 180.95 L 159.43 179.96 C 160.02 179.05 159.77 177.85 158.86 177.26 C 157.96 176.67 156.75 176.93 156.16 177.83 Z M 155.39 178.78 L 154.80 179.72 C 154.19 180.70 154.48 181.98 155.46 182.59 C 156.43 183.20 157.71 182.91 158.32 181.94 L 158.91 181.00 C 159.52 180.02 159.23 178.74 158.26 178.13 C 157.29 177.52 156.00 177.81 155.39 178.78 Z M 154.65 179.73 L 154.20 180.51 C 153.60 181.57 153.96 182.92 155.02 183.52 C 156.08 184.13 157.43 183.76 158.03 182.70 L 158.48 181.93 C 159.08 180.87 158.72 179.52 157.66 178.91 C 156.60 178.31 155.25 178.68 154.65 179.73 Z M 153.93 180.79 L 153.71 181.37 C 153.26 182.58 153.88 183.92 155.09 184.37 C 156.30 184.82 157.64 184.21 158.09 183.00 L 158.31 182.42 C 158.76 181.21 158.14 179.87 156.93 179.42 C 155.72 178.97 154.38 179.58 153.93 180.79 Z M 156.06 184.66 L 156.56 184.63 C 157.93 184.54 158.97 183.36 158.88 182.00 C 158.79 180.63 157.62 179.59 156.25 179.68 L 155.75 179.71 C 154.38 179.80 153.34 180.97 153.43 182.34 C 153.52 183.71 154.69 184.75 156.06 184.66 Z M 157.78 184.40 L 158.88 183.72 C 160.12 182.96 160.51 181.34 159.75 180.11 C 158.99 178.87 157.37 178.48 156.13 179.24 L 155.03 179.91 C 153.79 180.67 153.40 182.29 154.16 183.53 C 154.92 184.77 156.54 185.15 157.78 184.40 Z M 158.92 183.81 L 159.77 183.29 C 161.06 182.51 161.47 180.84 160.69 179.55 C 159.91 178.26 158.23 177.85 156.95 178.63 L 156.09 179.15 C 154.80 179.93 154.39 181.60 155.17 182.89 C 155.95 184.18 157.63 184.59 158.92 183.81 Z M 159.72 183.37 L 160.59 182.88 C 161.92 182.13 162.39 180.44 161.64 179.11 C 160.88 177.78 159.20 177.31 157.86 178.06 L 157.00 178.55 C 155.66 179.31 155.20 180.99 155.95 182.33 C 156.70 183.66 158.39 184.12 159.72 183.37 Z M 160.55 182.95 L 161.43 182.48 C 162.80 181.75 163.32 180.05 162.59 178.68 C 161.86 177.31 160.16 176.79 158.79 177.52 L 157.91 177.99 C 156.54 178.72 156.02 180.42 156.75 181.79 C 157.48 183.16 159.18 183.68 160.55 182.95 Z M 161.40 182.53 L 162.27 182.09 C 163.67 181.38 164.23 179.67 163.52 178.27 C 162.81 176.87 161.10 176.32 159.71 177.02 L 158.83 177.47 C 157.43 178.18 156.87 179.89 157.58 181.28 C 158.29 182.68 160.00 183.24 161.40 182.53 Z M 162.26 182.10 L 163.15 181.66 C 164.56 180.96 165.13 179.25 164.42 177.84 C 163.72 176.43 162.01 175.86 160.60 176.56 L 159.72 177.01 C 158.31 177.71 157.74 179.42 158.44 180.83 C 159.14 182.23 160.85 182.81 162.26 182.10 Z M 163.17 181.66 L 164.08 181.20 C 165.48 180.48 166.04 178.76 165.32 177.35 C 164.60 175.95 162.88 175.39 161.48 176.11 L 160.58 176.57 C 159.17 177.29 158.62 179.01 159.33 180.41 C 160.05 181.82 161.77 182.37 163.17 181.66 Z M 164.13 181.17 L 165.02 180.70 C 166.41 179.95 166.93 178.21 166.18 176.82 C 165.43 175.43 163.69 174.91 162.30 175.66 L 161.42 176.13 C 160.03 176.88 159.51 178.62 160.26 180.01 C 161.01 181.40 162.74 181.92 164.13 181.17 Z M 165.08 180.66 L 165.94 180.17 C 167.31 179.38 167.79 177.63 167.00 176.26 C 166.22 174.89 164.47 174.41 163.10 175.20 L 162.23 175.69 C 160.86 176.48 160.39 178.23 161.17 179.60 C 161.96 180.97 163.71 181.45 165.08 180.66 Z M 166.00 180.14 L 166.86 179.62 C 168.21 178.80 168.65 177.04 167.83 175.69 C 167.02 174.33 165.26 173.90 163.91 174.71 L 163.04 175.23 C 161.69 176.05 161.25 177.81 162.07 179.16 C 162.88 180.52 164.64 180.95 166.00 180.14 Z M 166.91 179.59 L 167.76 179.05 C 169.10 178.21 169.51 176.44 168.66 175.10 C 167.82 173.76 166.05 173.36 164.72 174.20 L 163.86 174.74 C 162.52 175.58 162.12 177.35 162.96 178.69 C 163.80 180.03 165.57 180.43 166.91 179.59 Z M 167.80 179.01 L 168.66 178.45 C 169.98 177.59 170.35 175.82 169.49 174.50 C 168.62 173.18 166.85 172.81 165.53 173.67 L 164.68 174.24 C 163.36 175.10 162.99 176.87 163.85 178.19 C 164.71 179.51 166.48 179.88 167.80 179.01 Z M 168.70 178.41 L 169.53 177.84 C 170.83 176.95 171.16 175.18 170.28 173.89 C 169.39 172.60 167.62 172.26 166.33 173.15 L 165.49 173.72 C 164.20 174.60 163.87 176.37 164.75 177.67 C 165.64 178.96 167.41 179.29 168.70 178.41 Z M 169.58 177.79 L 170.38 177.21 C 171.65 176.30 171.93 174.53 171.02 173.27 C 170.11 172.00 168.34 171.71 167.08 172.63 L 166.28 173.20 C 165.01 174.11 164.73 175.88 165.64 177.15 C 166.55 178.41 168.32 178.70 169.58 177.79 Z M 170.43 177.14 L 171.19 176.56 C 172.41 175.62 172.64 173.86 171.70 172.64 C 170.76 171.41 169.00 171.18 167.78 172.12 L 167.02 172.70 C 165.80 173.64 165.57 175.40 166.51 176.62 C 167.45 177.85 169.21 178.08 170.43 177.14 Z M 171.24 176.47 L 171.96 175.87 C 173.14 174.90 173.30 173.16 172.33 171.98 C 171.36 170.81 169.62 170.65 168.45 171.62 L 167.72 172.22 C 166.55 173.19 166.39 174.92 167.36 176.10 C 168.33 177.27 170.06 177.44 171.24 176.47 Z M 172.01 175.76 L 172.75 175.10 C 173.86 174.10 173.96 172.39 172.97 171.28 C 171.97 170.16 170.27 170.07 169.15 171.06 L 168.41 171.72 C 167.29 172.72 167.19 174.43 168.19 175.54 C 169.18 176.66 170.89 176.75 172.01 175.76 Z M 172.78 175.00 L 173.57 174.25 C 174.63 173.24 174.67 171.56 173.66 170.50 C 172.65 169.44 170.97 169.40 169.91 170.41 L 169.12 171.16 C 168.06 172.17 168.02 173.84 169.03 174.91 C 170.04 175.97 171.72 176.01 172.78 175.00 Z M 173.56 174.16 L 174.25 173.48 C 175.27 172.47 175.27 170.83 174.27 169.82 C 173.26 168.80 171.62 168.80 170.61 169.81 L 169.92 170.49 C 168.90 171.50 168.90 173.14 169.90 174.15 C 170.91 175.17 172.55 175.17 173.56 174.16 Z M 174.23 173.40 L 174.95 172.66 C 175.92 171.66 175.90 170.07 174.90 169.10 C 173.91 168.13 172.31 168.15 171.34 169.15 L 170.63 169.89 C 169.66 170.88 169.68 172.47 170.67 173.44 C 171.67 174.41 173.26 174.39 174.23 173.40 Z M 174.92 172.58 L 175.63 171.83 C 176.56 170.85 176.51 169.30 175.53 168.38 C 174.55 167.45 173.00 167.49 172.08 168.48 L 171.37 169.23 C 170.44 170.21 170.49 171.76 171.47 172.68 C 172.45 173.61 174.00 173.56 174.92 172.58 Z M 175.61 171.75 L 176.28 171.01 C 177.16 170.05 177.09 168.55 176.12 167.66 C 175.15 166.78 173.65 166.85 172.77 167.82 L 172.10 168.56 C 171.22 169.53 171.29 171.03 172.26 171.91 C 173.23 172.79 174.73 172.72 175.61 171.75 Z M 176.24 170.90 L 176.94 170.10 C 177.76 169.15 177.65 167.72 176.70 166.90 C 175.76 166.08 174.32 166.18 173.50 167.13 L 172.81 167.93 C 171.99 168.88 172.09 170.32 173.04 171.14 C 173.99 171.96 175.42 171.85 176.24 170.90 Z M 176.87 169.96 L 177.51 169.16 C 178.25 168.25 178.12 166.91 177.20 166.17 C 176.29 165.43 174.95 165.57 174.21 166.48 L 173.57 167.28 C 172.83 168.19 172.97 169.53 173.88 170.27 C 174.79 171.01 176.13 170.87 176.87 169.96 Z M 177.42 169.02 L 178.00 168.26 C 178.66 167.40 178.50 166.17 177.64 165.51 C 176.78 164.85 175.54 165.01 174.88 165.87 L 174.30 166.62 C 173.64 167.49 173.81 168.72 174.67 169.38 C 175.53 170.04 176.76 169.88 177.42 169.02 Z M 177.90 168.15 L 178.46 167.39 C 179.06 166.59 178.89 165.45 178.08 164.85 C 177.27 164.26 176.14 164.43 175.54 165.23 L 174.98 165.99 C 174.39 166.79 174.56 167.93 175.36 168.53 C 176.17 169.12 177.30 168.95 177.90 168.15 Z M 178.40 167.33 L 178.98 166.54 C 179.54 165.77 179.37 164.69 178.60 164.12 C 177.83 163.56 176.75 163.73 176.18 164.50 L 175.60 165.29 C 175.04 166.06 175.21 167.15 175.98 167.71 C 176.75 168.27 177.83 168.11 178.40 167.33 Z M 178.95 166.51 L 179.54 165.70 C 180.09 164.94 179.92 163.88 179.17 163.33 C 178.41 162.78 177.35 162.95 176.80 163.71 L 176.21 164.52 C 175.66 165.28 175.83 166.34 176.58 166.89 C 177.34 167.44 178.40 167.27 178.95 166.51 Z M 179.52 165.68 L 180.11 164.86 C 180.65 164.11 180.48 163.07 179.74 162.54 C 178.99 162.00 177.96 162.17 177.42 162.91 L 176.82 163.73 C 176.28 164.48 176.45 165.52 177.20 166.05 C 177.94 166.59 178.98 166.42 179.52 165.68 Z M 180.10 164.85 L 180.20 164.70 C 180.73 163.96 180.57 162.94 179.83 162.41 C 179.10 161.87 178.07 162.04 177.54 162.78 L 177.43 162.92 C 176.90 163.66 177.07 164.68 177.80 165.22 C 178.54 165.75 179.56 165.58 180.10 164.85 Z"
      fill="black"
      fill-rule="nonzero" /></svg>