<svg xmlns="http://www.w3.org/2000/svg" version="1.0" width="937.000000pt" height="937.000000pt" viewBox="0 0 937.000000 937.000000" preserveAspectRatio="xMidYMid meet">
  <defs/>
  <path fill="#000000" d="M451,289.3 C445.4,292.1 444.4,304.4 449,313.6 C452.5,320.7 466,336.1 479.3,348.4 C484.7,353.3 488.9,357.5 488.7,357.7 C488.4,357.9 483.2,359.4 477.1,361.1 C442.8,370.2 379.5,396.9 370.1,406.1 L365.7,410.3 L355.1,404.9 C349.3,401.9 344.2,398.8 343.6,397.8 C342.9,396.7 343.2,394.4 344.5,390.1 C346.6,383 345.8,379.6 341.4,378 C334.7,375.4 328.7,384.8 329.3,397.1 L329.5,403.7 L332.4,407.4 C334.6,410.3 338.4,412.7 350.3,418.5 C358.7,422.5 370,427.4 375.5,429.5 C393.8,436.2 420,446.3 420,446.7 C420,446.9 418.2,450.6 416,455 C410.4,466.1 410.7,469.9 417.2,471.5 C420.4,472.3 422.1,476 424.5,487.9 C425.4,492.5 426.8,498 427.6,500.2 C428.4,502.5 428.7,505.8 428.4,508.4 L427.8,512.6 L430.3,515.6 L432.8,518.5 L437.6,518.3 L442.3,518.1 L435.9,524.7 C432.4,528.3 420.1,540 408.5,550.7 C383.5,573.9 377.9,579.8 374.3,586.6 L371.6,591.8 L373.3,594.4 C376.3,598.9 379.9,598 385.9,591 C391.2,584.9 426.2,554 427.8,554 C428.3,554 429.5,554.9 430.5,556 C433.5,559.3 441.3,561 453.4,561 C467.7,561 473.1,559.8 500.7,550.4 L523.5,542.7 L531.2,542.2 L538.9,541.7 L539.6,544.4 C539.9,545.9 540,555.5 539.7,565.8 C539.2,585.9 538.1,592.1 531.9,610.4 C520.4,644.1 501.7,664.5 483.9,662.8 C477.8,662.2 474.4,659.2 469.4,650.3 C465.5,643.4 463.1,642 459.5,644.4 C456.1,646.6 456.4,649.2 460.6,656.8 C465.7,666.1 468.7,669.7 473.9,672.8 L478.5,675.5 L488.1,675.5 L497.6,675.5 L505.2,671.8 C514,667.4 525.2,657.5 531.1,648.9 C537,640.1 543.6,626 547.9,612.5 C554.7,591.9 555.5,586.2 555.5,562 L555.5,540.5 L553,536.1 C549.3,529.6 546.2,527.7 538.4,527.2 C529.5,526.6 522.9,528.1 498.5,536 C473.1,544.3 466.5,546 457.9,546 C451.5,546 441.2,544.5 440.1,543.5 C439.8,543.2 446.6,536.1 455.1,527.7 C463.5,519.3 471,511.9 471.5,511.2 C472.1,510.5 479,506.7 487,502.7 C495,498.7 504.1,493.7 507.3,491.7 L513,487.9 L513,485 C513,483 512.2,481.5 510.5,480.4 L508.1,478.8 L499.8,482.8 C489.1,488 483.8,490.1 483.2,489.6 C483,489.3 484.5,487.1 486.6,484.6 C489.7,481.1 491,480.2 492.8,480.7 C494,481 496.5,480.6 498.3,479.9 C507,476.5 510.5,471.2 511.6,460.4 L512.2,453.5 L516,447.5 C522.5,437.3 542.8,395.3 547.1,383.1 C551.2,371.5 548.5,361.8 540,357 L535.5,354.5 L518.7,354.5 L501.9,354.5 L490.9,342.5 C480.9,331.6 467.2,313.5 463.6,306.5 C462.6,304.7 462.3,302.1 462.7,298.5 L463.3,293.2 L460.7,290.6 C457.8,287.8 454.8,287.4 451,289.3 Z M530.8,370.9 C532.4,371.9 531.7,375.3 528.3,383 C526.9,386 522.9,395.7 519.3,404.4 C515.8,413.2 512.3,421.5 511.5,422.9 L510.2,425.5 L509,421 C506.3,410.9 502.3,406.2 492.5,401.2 C489.2,399.5 485.2,397.2 483.5,396.1 C477.5,392 471,394.3 471,400.6 C471,404.6 474.4,407.7 484.1,412.5 C487.8,414.4 491.7,417.1 492.8,418.5 C495.4,421.8 497,429 497.7,441.5 L498.3,451.5 L496.6,452.9 L495,454.3 L493.2,452.8 C492.3,451.9 488.8,449.8 485.5,448.2 C482.2,446.5 478.2,444.2 476.5,443.1 C473.5,441 469.4,440.4 467.4,441.8 C465.1,443.3 464,446.8 465,449.4 C466.1,452.5 469,454.4 477.7,458 L484.5,460.7 L484.8,463.8 C485.2,468.1 482.3,473.3 475,481.3 C465.9,491.2 458.1,496.3 449.2,498.2 L442,499.8 L441.4,497.3 C441,496 440.9,494.8 441.1,494.6 C441.3,494.4 445.1,492.4 449.5,490.2 C458.5,485.5 465.9,479.5 472.5,471.3 C477.3,465.4 478,462.7 475.3,459.8 C472.8,457 470.9,457.6 463.7,463.3 C456.8,468.8 441.2,478 438.8,478 C437.9,478 436.9,476 436.1,472.9 C435.4,470.2 433.3,465.7 431.5,463 L428.2,458.1 L440.3,440.8 C446.9,431.3 455.2,420 458.7,415.7 C465.7,407.1 466.3,404.6 462.7,400.4 C459.6,396.9 455,396.7 451.4,400.1 C447.8,403.5 440.4,413.7 432.6,426.1 L425.9,436.8 L410.7,430.3 C402.3,426.7 395,423.1 394.3,422.3 C393.7,421.5 391.1,420.1 388.5,419.1 C384.9,417.7 384.2,417.1 385.2,416.3 C389.7,412.6 447.2,388.5 472.7,379.6 C481.2,376.7 499.2,372 507,370.7 C511.7,369.9 529.5,370 530.8,370.9 Z"/>
  <path fill="#000000" d="M573.9,558.9 L571.5,560.8 L571.6,567.7 C571.7,571.9 572.6,576.7 573.9,580.1 C576.5,587 584.7,599.4 594.6,611.5 C604.9,624.2 607.8,627 610.4,627 C613.1,627 616,624.1 616,621.4 C616,620.3 612.1,612.9 607.4,605 C595,584.2 589.4,573.3 587.6,566.7 C586.8,563.4 585.4,560 584.4,558.9 C582.2,556.4 576.9,556.4 573.9,558.9 Z"/>
  <path fill="#000000" d="M349.2,571.6 C342.5,575.6 340.2,582.5 343.4,588.9 C345.7,593.2 360.7,606.9 370.6,613.6 C392.3,628.5 403.8,631.1 412.3,623.2 C416.9,618.9 417.4,617.2 418,604.5 L418.5,592.5 L422.3,598.9 C429.8,611.5 440.8,623.9 446.3,625.9 C451.1,627.7 453.1,627.2 457.5,622.7 L461.7,618.5 L463.9,610 C467.8,594.8 468.6,594.3 475,601.9 C480,607.8 484.5,610.9 492.3,613.8 C499.9,616.7 502.6,616.6 504.6,613.5 C506.9,609.9 505.6,607.1 500.2,604.8 C497,603.4 492.7,599.9 487,593.8 C477.7,584 473.4,581.7 467.3,583 C460.6,584.6 457.3,589.7 454.5,602.8 C453.5,607.3 452.1,611.8 451.4,612.8 L450.1,614.5 L447.6,611.5 C446.3,609.8 443.2,604.9 440.9,600.5 C433,585.6 428.8,579.1 424.4,575 L420,571 L416.1,571 L412.2,571 L409.6,574.1 L407,577.2 L407,595.1 L407,613 L405,615 C402.4,617.6 401.6,617.5 394.4,614.1 C388.1,611.1 374.4,600.1 365.1,590.6 L359.6,585 L361.3,581.5 C363.6,576.6 363.5,575.3 360.1,571.9 C356.5,568.3 354.7,568.3 349.2,571.6 Z"/>
</svg>

