<svg xmlns="http://www.w3.org/2000/svg" version="1.0" width="937.000000pt" height="937.000000pt" viewBox="0 0 937.000000 937.000000" preserveAspectRatio="xMidYMid meet">
  <defs/>
  <path fill="#000000" d="M431.4,345.3 C427.7,348.5 427.7,353.4 431.3,356.6 C435.4,360.1 442.9,361.9 459.5,363.6 C467.7,364.4 474.9,365.5 475.4,366 C476.1,366.7 475,368.9 472.2,372.8 C465.3,382.2 460.3,391.1 457.9,398 L455.6,404.5 L455.6,417 C455.5,426.7 455.9,430.7 457.4,434.8 C458.4,437.7 459,440.3 458.9,440.5 C457.7,441.5 435.6,443 421.5,443 L405,443 L403,445 C400.5,447.5 400.4,452.1 402.8,455 C404.2,456.7 406.5,457.4 414,458.6 C426.1,460.4 430.5,460.4 449.2,458.4 C457.6,457.6 465.4,456.8 466.5,456.7 C470.7,456.3 476.9,474.7 475.5,483.1 C474.2,490.9 468.3,495 458.6,495 C451.6,495 448.1,492.2 445,484.3 C442.1,477 440.4,475 437,475 C430.8,475 430.6,478.6 436,492.5 C442.2,508.2 446.3,511.4 460.5,511.5 L469.5,511.5 L474.6,509.2 C481,506.3 487.2,500 490.2,493.5 L492.5,488.5 L492.5,479 L492.4,469.5 L489.3,462 C487.6,457.9 486.3,454.4 486.4,454.3 C486.7,454 524.1,451 535.2,450.4 L546.9,449.8 L548.5,447.9 C550.9,445.3 549.7,441.2 546.2,439.9 C544.6,439.2 530.4,438.7 510,438.6 L476.5,438.4 L473.7,432.9 L470.8,427.5 L471.2,416 L471.7,404.5 L474.3,398.6 C475.8,395.4 479.5,389.2 482.6,384.8 C485.7,380.4 488.8,375.3 489.6,373.4 C491.6,368.6 491.4,362.3 489,358.4 C485.8,353.3 480.3,351.3 463.5,349.1 C455.3,348 445.8,346.2 442.6,345.1 C435.2,342.5 434.7,342.5 431.4,345.3 Z"/>
  <path fill="#000000" d="M377.9,523.2 L375.8,525.5 L376.3,532.5 C376.6,537.2 378,542.6 380.3,548.7 C387.8,568.1 401.7,594 408.2,600.7 C410.5,603.1 411,604.1 409.9,604.4 C409.1,604.6 402.7,605.1 395.5,605.4 C383,606 363.5,608.1 339,611.5 C330.4,612.7 327,613.5 325.6,615 C322.8,617.7 323,623.4 325.8,626.3 L328.1,628.5 L338.3,628.4 C343.9,628.4 358.3,627.4 370.2,626.2 C382.1,625 404.5,623.5 419.9,622.9 L448,621.7 L451.7,624.2 C458.6,628.7 463,628.7 464.5,624 L465.1,622 L474.8,622.1 L484.5,622.3 L479.6,622.9 C472.5,623.9 470,628 474,632 C478.8,636.8 500.2,632.3 514.1,623.4 L518.5,620.6 L532.7,621.8 C545.6,622.9 576.5,627.6 596.5,631.6 C600.9,632.5 605.5,633.2 606.8,633.2 C612.1,633.3 615,626.2 611.1,622.6 C610.1,621.7 605.7,620.3 601.4,619.5 C597.1,618.8 588.1,616.7 581.5,615 C574.9,613.3 563.2,610.8 555.5,609.4 C547.8,608.1 540.5,606.7 539.2,606.4 L537,606 L544.9,597 C559,581 563,573.4 563,562.6 C563,554.8 560.6,549.5 555,544.7 C549.3,539.9 542.3,537.4 527.6,534.8 L515.5,532.8 L480.5,533.3 C446.3,533.9 432.2,534.9 409,538.5 C403.2,539.4 397.4,540.8 396.2,541.7 C394.9,542.5 393.7,543 393.6,542.8 C392.8,541.9 391,532.7 391,529.7 C391,522.1 382.9,518.1 377.9,523.2 Z M477,551.5 C477,552.9 477.9,555.8 479,558 C483.2,566.2 480.8,573.6 470.6,584.7 C464.5,591.2 456.6,596.9 455.8,595.3 C455.5,594.8 455.6,584.5 455.8,572.3 L456.2,550.1 L457.9,549.7 C458.8,549.4 463.4,549.2 468.3,549.1 L477,549 L477,551.5 Z M530.5,551.5 C545.1,554.5 549.1,558 547,565.9 C545.6,571.1 536.6,583.1 525.4,594.8 L516.5,604 L498.4,604 C488.4,604 477.5,603.7 474.2,603.4 L468,602.7 L474.2,598.5 C482.6,592.6 492.5,582.6 494.8,577.6 C498.5,569.8 498.4,560.8 494.4,550.6 L493.7,548.7 L508.1,549.3 C516,549.6 526.1,550.6 530.5,551.5 Z M440.2,575.7 C440.5,589.4 440.6,600.6 440.4,600.8 C440.3,601 437.3,601.6 433.8,602.2 L427.5,603.3 L421.3,597.5 C413.9,590.7 411.8,587.3 404.5,570.5 C399.4,558.7 398,554.3 399.8,555.3 C400.2,555.5 408.2,554.7 417.5,553.5 C426.9,552.2 435.7,551.1 437.1,551.1 L439.8,551 L440.2,575.7 Z"/>
</svg>

