<svg xmlns="http://www.w3.org/2000/svg" version="1.0" width="937.000000pt" height="937.000000pt" viewBox="0 0 937.000000 937.000000" preserveAspectRatio="xMidYMid meet">
  <defs/>
  <path fill="#000000" d="M493.5,332.1 C417,337 397.8,340.7 395.5,351 C395.1,352.6 394.4,354.2 393.9,354.6 C392.7,355.3 390.4,360.8 388.4,367.9 L386.7,373.5 L385.9,429 C385.5,459.5 384.8,503.8 384.4,527.5 C383.5,587.9 384.9,602.8 392.8,612.2 C395.8,615.8 400.6,618 405.1,618 C411.1,618 421,610.3 421,605.6 C421,603.6 417.5,600 415.5,600 C414.7,600 412.3,601.6 410.1,603.5 C405.5,607.7 403.8,607.8 401.1,604.4 C397.1,599.3 396.7,593.1 397.4,546.5 C397.7,522.3 398.3,497.9 398.6,492.4 L399.3,482.3 L402.6,483.3 L405.8,484.3 L417.2,480.8 C428.1,477.4 434.2,475.9 473.2,467 C482.9,464.8 496,461.2 502.2,459 C508.4,456.7 516.6,454.2 520.4,453.4 C528.5,451.7 530,450.7 530,447 C530,442.5 527.9,441.6 519.2,442.3 C509.4,443.1 445.6,455.6 435.5,458.7 C434.4,459 439.1,453.5 446,446.4 C452.9,439.3 461.8,429.6 465.9,424.8 L473.2,416 L476.9,416.6 C483,417.6 485.9,413.2 482.5,408.3 L481,406.1 L487.1,399 C492.7,392.4 497.6,388.2 509,379.7 C514.5,375.7 515.5,371.3 511.9,367.4 C506.1,361.2 494.4,368.2 481.1,385.9 C476.4,392 472.3,396.7 471.9,396.3 C471.2,395.5 467.4,386.1 463.6,375.7 C461.2,369.4 456,361.8 452.7,360.2 C449.5,358.6 445.7,360.1 444.1,363.6 C442.9,366.4 443.4,368.3 446.9,373 C448.3,374.9 452.9,383.3 457.1,391.7 L464.7,407 L453.5,419.7 C440.3,434.9 421.4,453.3 409.6,462.4 C405,466 400.9,469 400.6,469 C399.6,469 401,389 402.1,377 C403.5,363.2 403.5,363.3 406.8,363.8 C410.4,364.3 414.8,360.9 415.2,357.2 L415.5,354.5 L424,353.3 C449.8,349.6 518.9,344.7 539.5,345.2 L554.8,345.5 L556.8,347.3 C559.6,349.9 562.5,357.1 564.4,366.2 C566.7,377.2 569.7,411.5 571,439.5 C571.5,452.7 572.5,474.1 573.1,487 C575,530.5 579.3,571 584.6,596.3 C585.4,600.1 586,604.2 586,605.6 L586,608 L580.7,608 C573.1,608 570,611.7 573.5,616.6 C574.5,618.1 576.9,619 582.2,620 L589.6,621.2 L593.2,619.7 C600.9,616.5 601.8,611.7 598.6,591.4 C592.1,550.6 589.8,522.7 587,449 C585.5,408.9 582.4,374.8 579,360.3 C575.6,345.8 569.2,336.1 560.8,332.6 L557.1,331 L531.8,331.1 C517.9,331.2 500.7,331.7 493.5,332.1 Z"/>
  <path fill="#000000" d="M491.6,474.1 L489,476.1 L489,484.5 C489,489.1 489.8,496.5 490.9,501.2 C492,505.8 493.1,511.6 493.5,514.2 C493.8,516.8 494.8,519.7 495.6,520.5 C497.9,522.7 501.7,522.4 503.4,519.7 L504.8,517.5 L503.9,508 C503.4,502.8 502.8,493.6 502.4,487.6 L501.8,476.7 L499.4,474.3 C496.6,471.5 495,471.4 491.6,474.1 Z"/>
  <path fill="#000000" d="M446,511 C444.9,512.1 444,513.8 444,514.7 C444,517.7 451.8,553.6 454.1,561.3 C456.8,570.4 460.4,578.5 463.6,582.7 C468.5,589.2 477.9,591.7 485.3,588.6 C490.6,586.4 494.7,581.5 508.6,560.5 C515.9,549.5 523.2,539.2 524.9,537.6 L527.9,534.7 L530,539.6 C535.5,552.3 539.3,567.3 539.9,578.8 L540.5,590.2 L542.4,591.6 C548.5,596 554,588.4 554,575.6 C553.9,565.4 545.8,536.5 540.4,527.3 C536.1,519.8 529,518 521.6,522.4 C516.1,525.6 512.4,530.3 498.9,551 C485.5,571.3 481.7,576 478.5,576 C473,576 468.4,563.8 462,532.3 C459.5,520.4 457.3,511.9 456.3,510.8 C454.1,508.4 448.5,508.5 446,511 Z"/>
</svg>

