<svg xmlns="http://www.w3.org/2000/svg" version="1.0" width="937.000000pt" height="937.000000pt" viewBox="0 0 937.000000 937.000000" preserveAspectRatio="xMidYMid meet">
  <defs/>
  <path fill="#000000" d="M520.2,292.7 C518.2,293.5 516.9,296.8 515,306 C512.2,319.6 502.3,339.1 484.1,366.5 C471.5,385.6 470,388.2 470,391.6 C470,395.3 472.9,398.2 476.5,398.2 C479.3,398.2 479.5,398.1 505.5,381.3 C514.9,375.3 525.5,368.7 529.1,366.7 C535.8,362.9 547,358.6 547.8,359.4 C549.3,361 525,400.7 512.1,417.9 C501.5,431.9 501.5,432 500.4,432 C498.9,432 467.9,414.1 461.4,409.4 C456.7,406.1 454.6,403.7 452.3,399.3 L449.4,393.5 L445.7,393.2 L442.1,392.9 L440.4,395.5 C439.1,397.4 438.9,399.3 439.3,403.1 C440.6,413.7 446.8,419.9 469,433 C475.3,436.7 482.5,440.7 484.9,442 L489.2,444.2 L485.9,447.7 C481.1,452.7 467.6,463.1 460.5,467.2 C448.4,474.2 433,479.1 422.4,479.4 C415.6,479.5 413.1,478.2 411,473 C408.9,467.9 402.6,467.8 401.3,472.8 C400.3,476.9 405.5,485.8 410.5,488.4 L414.5,490.5 L425,490.4 C438.4,490.3 450.7,487.2 468.1,479.6 C469.3,479.1 469.7,479.6 469.7,482 C469.7,489.2 477.8,492 500.6,492.7 L516.8,493.3 L517.4,496.9 C517.7,498.9 518,502.1 518,504.1 L518,507.7 L507.8,509.9 C502.1,511.1 492.1,512.7 485.5,513.6 C466.2,516 462.9,517.6 464.4,523.6 C465.5,528 467.6,528.3 494.6,527.8 L519.8,527.2 L520.5,536.6 C520.9,541.7 521,546.6 520.7,547.3 C519.8,549.6 503.9,552.7 481,555.1 C469.2,556.3 458.2,557.4 456.6,557.4 L453.7,557.5 L449.9,540 C447.8,530.4 445.8,520 445.4,517 C444.3,508.2 441.3,504 436.1,504 C433.4,504 428.9,508.1 426.5,512.7 C421.2,523 399.7,556.3 396.8,558.8 L395.2,560.1 L394.6,556.8 C391.7,540.3 391.7,487.7 394.6,475.7 L396.1,469.9 L394.8,467.2 C393.2,463.9 389,462.3 385.3,463.6 C383.3,464.3 382,465.9 380.6,469.5 L378.6,474.5 L378.2,491.4 C377.6,515.4 380.4,547 384.5,563.4 L386,569.4 L384.8,570.1 C382.6,571.5 375.4,572.2 372,571.5 C367.7,570.5 361.4,564.7 358.4,558.9 C353.7,549.6 351.1,538.1 350.4,523 L349.7,508.9 L347.2,507 C343.9,504.4 341.7,504.5 338.4,507.4 L335.6,509.7 L335.9,521.6 C336.1,534.3 336.8,538.6 340.2,549 C345.1,564.3 352.7,575.4 361.9,580.8 L366.5,583.5 L376,583.5 L385.5,583.5 L391.3,580.6 C399.8,576.5 410.4,563 426.1,536.3 C429.1,531.2 431.7,527 432.1,527 C432.4,527 433.7,531.4 435,536.7 C436.2,542.1 438.1,548.9 439.1,551.9 C440.2,554.9 441,558.1 441,559.1 C441,561.1 439.1,561.8 424.2,565 C414.9,567 413,568.5 413,573.2 C413,577.4 416.2,580 421.4,580 C423.8,580 430.2,579.1 435.5,578 C440.8,576.9 445.3,576 445.5,576 C445.6,576 446.3,578 446.9,580.4 C448.6,587.1 452.4,589.2 456.6,585.7 L459.2,583.4 L458.2,578.7 L457.3,574.1 L458.9,573.5 C460.9,572.9 507.4,568.2 516,567.8 L522.5,567.5 L522.8,572 C526.6,637 528.4,658.8 531.6,675.9 C533.6,686.9 534.3,688.2 538.2,687.8 C543.2,687.3 543.6,685.5 541.7,673.3 C540.7,667.4 539.5,656 539,648 C537.7,629.6 536.1,567.7 536.9,566.9 C537.2,566.5 553.5,565.5 573,564.6 C622.7,562.3 623.1,562.3 625.8,559.8 C628.5,557.2 628.6,554 626.2,551 C624.9,549.4 622.8,548.7 617.9,548.1 C614.3,547.6 608.1,545.8 604.2,544.1 C599.8,542.2 596.1,541.1 595,541.5 C592.6,542.3 590.8,545.3 591.6,547.3 L592.1,548.7 L579.9,549.3 C573.2,549.7 563.6,550 558.6,550 L549.5,549.9 L558.5,545.6 C570.4,539.9 584.8,531.5 588.3,528.2 C594.3,522.6 595.4,517.7 591.7,513.4 C587.8,508.9 581.8,508.7 544.5,511.5 L537.5,512 L549.6,506.1 C563.9,499 569,494.3 569,488.2 C569,485.6 568.3,483.7 567,482.5 C565.9,481.5 565.1,480.5 565.3,480.3 C565.8,479.9 609.2,498.2 622.4,504.4 C627.8,506.9 633.3,509 634.5,509 C637.4,509 639.3,506.7 639.3,503.3 C639.3,497.7 627.9,491 590.5,474.5 C567.5,464.3 516.8,441.1 516.1,440.4 C515.9,440.2 517.6,437.7 519.9,434.8 C532.6,418.8 555.9,382.8 562.1,369.5 C566,361.3 566.7,355.3 564.5,350.6 C558.9,338.9 543.5,342.4 511,362.9 C505.8,366.2 501.4,368.7 501.2,368.6 C501.1,368.4 504.3,362.9 508.4,356.3 C519,339.2 528.6,320.5 530.4,313.4 C531.3,310 532,304.7 532,301.7 L532,296.1 L529.4,294.1 C526.9,292.1 523.1,291.5 520.2,292.7 Z M513.3,464.4 C513.6,468.8 514.2,474 514.6,475.9 L515.3,479.3 L500.9,478.8 C487.8,478.3 476,476.5 476,475.1 C476,474.8 478.9,472.6 482.3,470.3 C485.7,468 492.1,462.9 496.4,459.1 L504.4,452.2 L508.6,454.2 L512.7,456.3 L513.3,464.4 Z M547.4,472.1 C556.5,476.1 563.9,479.4 563.7,479.4 C563.6,479.5 556.1,479.3 547,479 L530.6,478.5 L529.3,472.5 C527.7,464.6 527.7,463.7 529.4,464.3 C530.2,464.6 538.3,468.1 547.4,472.1 Z M550,492.9 C550,493.5 546.3,495.7 541.8,498 L533.5,502.1 L532.8,497.9 C532.4,495.6 532.3,493.3 532.6,492.9 C533.3,491.7 550,491.8 550,492.9 Z M572,525 C564.5,530.7 540.4,543 536.5,543 C535.3,543 535,541.2 535,534.1 L535,525.2 L545.8,524.5 C551.7,524.2 557,523.7 557.5,523.5 C558.1,523.3 562.1,523.1 566.5,523.1 L574.5,523 L572,525 Z"/>
</svg>

