<svg xmlns="http://www.w3.org/2000/svg" version="1.0" width="937.000000pt" height="937.000000pt" viewBox="0 0 937.000000 937.000000" preserveAspectRatio="xMidYMid meet">
  <defs/>
  <path fill="#000000" d="M456.2,308.8 L454.3,310.7 L453.7,325.1 C453.3,333 453,346.3 453,354.6 L453,369.8 L450.8,370.4 C449.5,370.7 439.5,371.3 428.5,371.6 L408.5,372.3 L406.2,369.1 C403.2,365 399.3,365 392.3,369 C387.2,371.9 384,376 384,379.7 C384,383.6 387.8,387.9 392.2,389.1 C396.6,390.3 436.4,389.8 447.8,388.4 L453,387.7 L453,461.3 L453,534.9 L448.5,538 C439.6,544.1 434.2,546 425.5,546 C410.2,546 405.1,542.7 398.4,528.5 C390.2,511.2 387,493.8 386.3,463.7 L385.7,440.9 L383.8,438.5 C381.1,435 375.9,435.1 373.1,438.6 L371,441.3 L371,455.9 C371,489.5 376,516.6 385.8,536.8 C392.8,551.3 401.6,558 416.7,560.2 C427.6,561.8 437.1,560.3 446.1,555.7 L452.8,552.3 L453.3,572.4 L453.7,592.5 L455.9,600.5 C458.9,611.9 464.8,623.6 470.8,630.1 C476.7,636.5 484.3,640.9 495,644.1 L502.5,646.3 L528.5,646.7 L554.5,647.2 L566.5,645.1 C581.7,642.4 602.9,636.8 613,632.9 C622.8,629.2 629.8,623.2 633.1,615.8 L635.4,610.5 L635.4,596.5 C635.3,581.8 634,574.2 628.6,556.5 C624.1,541.8 604.4,492.4 601.9,489.4 C600.2,487.4 596.6,487.7 594.5,490 L592.7,492 L596.5,501.8 C605.7,525.4 609.2,537 613.2,556.9 L617.4,577.5 L617.5,592 C617.5,603 617.1,607.2 616,609.5 C613.2,615 598.2,620.8 569.5,627.6 L558.5,630.2 L536,630.7 C521.7,631 510.8,630.8 506.3,630.1 C485.6,626.9 476.3,617.8 471,595.8 L469,587.5 L469,564 L469,540.4 L474.6,535 C477.6,532 487,521.6 495.3,512 C503.7,502.4 513.9,491 518,486.7 L525.5,478.8 L526.3,482.7 C530.6,502.4 540.4,521.7 548.7,527 C559.7,534 568,530.2 568,518.4 C568,512.6 561.8,509.6 558.7,514 C557,516.4 556.4,515.9 552.7,508.5 C547.8,498.7 543.3,482.1 542.6,471.6 C541.8,460.2 540.3,456.4 535.4,454.4 L532,453 L528.5,454.4 C526.5,455.3 523.7,457.8 521.8,460.6 C518,466 515,469.6 498.5,488.7 C491.9,496.3 482.6,506.5 477.8,511.5 L469.1,520.5 L469,453.2 L469,386 L470.6,386 C471.4,386 481.4,385.1 492.8,384 C504.2,382.9 518.4,381.7 524.4,381.3 L535.3,380.5 L537.3,377.9 C539.6,374.7 538.9,371.7 535.3,369.3 L532.7,367.6 L504.6,367.8 C489.1,367.9 474.7,368.1 472.5,368.2 L468.5,368.5 L468,339.9 L467.5,311.2 L465.6,309.1 C463.2,306.5 458.6,306.4 456.2,308.8 Z"/>
</svg>

