<svg xmlns="http://www.w3.org/2000/svg" version="1.0" width="937.000000pt" height="937.000000pt" viewBox="0 0 937.000000 937.000000" preserveAspectRatio="xMidYMid meet">
  <defs/>
  <path fill="#000000" d="M455.1,317.9 C450.6,322.4 451.1,338.8 456.5,358.5 C461.3,375.9 468.3,417.2 466.7,418.2 C464.1,419.8 454.3,421.2 449.3,420.6 C436.4,419.1 424.7,411.3 409.6,394.1 C404.4,388.3 396.4,379.8 391.7,375.2 L383.3,366.9 L380,367.2 C375.7,367.6 372.5,371.7 373.4,375.5 C374.3,379 408.3,414.5 417.5,421.5 C425.3,427.5 435.2,432.5 441.1,433.5 L445,434.2 L445,436.7 C445,442.4 447.5,447.5 452.7,452.7 L457.9,457.9 L454.7,458.9 C410.8,472.7 393.7,479 389.2,483.4 C388.5,484.1 387.8,486.1 387.8,487.8 C387.7,489.6 387.5,491 387.3,491 C386.3,491 371.8,483.3 367.4,480.4 C361.3,476.4 356.8,476 354.6,479.2 C352,482.8 352.7,485.5 357.2,489.5 C362.6,494.5 375.8,500.6 395.9,507.5 C412.5,513.2 416.5,513.8 418.3,510.9 C420.3,507.7 418.3,504.4 413.3,502.5 C404.6,499.3 397,495.7 397,494.9 C397,494.4 397.2,494 397.5,494 C397.8,494 410.8,489.9 426.3,484.9 C484.1,466.4 509.1,460.4 538.4,458.4 L548.4,457.7 L545,461.8 C542.2,465.3 526.2,480.9 508.7,497 C501.1,504 490.2,511.9 482.8,515.6 C479,517.5 476,518.8 476,518.5 C476,518.2 477.1,516.7 478.5,515.2 C485.9,507.3 485.7,497.2 478,492.7 C474.9,490.8 466.3,489.4 452.4,488.5 L442.2,487.8 L440,490 C437.2,492.8 437.6,497.7 441,500.1 C442.9,501.5 446.2,502.1 455,502.5 C469.1,503.3 471,503.6 471,505.6 C471,506.4 469.2,509 467.1,511.3 L463.1,515.5 L461.9,514.2 C461.2,513.6 458.9,513 456.9,513 C452.7,513 449,516.5 449,520.6 L449,522.9 L442.3,525 C438.5,526.1 424.7,528.8 411.5,531 C380.9,536.2 357.9,541.4 356.3,543.7 C354.4,546.3 354.7,551.4 356.9,553.4 C359.7,556 365.4,556.3 374.5,554.6 C386,552.4 434.9,544 436.2,544 C436.9,544 436.2,545.2 434.8,546.7 C433.5,548.3 425.2,558.8 416.6,570.2 C404.4,586.3 397.8,593.8 387.4,603.9 L374,616.8 L374,619.8 C374,623.1 376.2,625 380,625 C382.5,625 393.8,616.1 405.9,604.5 C414.2,596.6 426.3,582.6 439.4,565.7 C445.4,557.9 454.8,549 457,549 C457.7,549 458.8,555.9 460.5,570.5 C461.5,579.1 463.1,639.9 462.5,646.2 L461.8,652.8 L459.4,653.4 C455.8,654.3 454.7,657.2 456,662.3 C457.8,669 459.5,671 463.5,671 C466,671 467.3,670.3 468.8,668.2 C473.6,661.3 474.9,649.3 475.7,605.3 C476.1,578.5 476.6,568.3 477.4,568.9 C478,569.4 481.2,570.1 484.5,570.4 C494.2,571.5 500.7,573.7 515.5,581 C544.7,595.4 584.6,621.7 585.2,627 C585.4,628.8 586.7,630.1 590,631.7 C595.8,634.7 600.4,634.7 602.4,631.8 C606,626.7 603.4,622.2 590.4,611.4 C562,587.7 514.7,560.8 494.8,556.9 C487.7,555.6 479.4,556.7 476.9,559.3 C475.9,560.4 475,561 475,560.4 C475,558.5 472,541.2 471.4,539.7 C471,538.5 472.1,537.9 476.7,537 C507.2,531 534.6,523.5 538.3,520.2 C540.6,518.2 540.5,513.7 538,511.5 L536,509.7 L524.7,512.3 C510.7,515.6 504.2,516.6 505.5,515.3 C506.1,514.7 510,511.9 514.4,509 C524.4,502.1 548.6,481.4 557,472.4 C564.5,464.4 567,459.9 567,454.2 C567,449.8 564.2,445.4 560.3,443.9 L557.9,443 L559,441.1 C561.1,437 555.3,416.3 545.5,393 C541.8,384.4 539.6,380.5 536.3,377.3 L532.1,373 L527.3,373 C520.2,373.1 515.5,375.8 505,386 C493,397.6 479,410 477.9,410 C477.4,410 477,407.4 477,404.2 C477,393.3 473.8,366.5 470.9,353 C468.8,343.4 468,336.8 468,329.9 L468,320.4 L466,318.2 C463.4,315.4 457.8,315.2 455.1,317.9 Z M532,404.7 C535.4,412.9 539.8,423.1 541.7,427.5 C543.7,431.9 545.8,437.2 546.6,439.2 L547.9,443 L540.2,443 C526.9,443 501.7,446.5 483.6,450.9 L475.7,452.8 L470.6,449.3 C463.7,444.5 461.1,442 459.4,438.7 C457.6,435.4 458.3,434 461.5,434 C469.6,434 480.7,426.6 499.8,408.5 C511.8,397.2 521.4,390 524.7,390 C525.3,390 528.6,396.6 532,404.7 Z"/>
</svg>

