<svg xmlns="http://www.w3.org/2000/svg" version="1.0" width="937.000000pt" height="937.000000pt" viewBox="0 0 937.000000 937.000000" preserveAspectRatio="xMidYMid meet">
  <defs/>
  <path fill="#000000" d="M447.7,347.8 C446.7,348.8 445.3,351.8 444.4,354.4 C442.2,360.8 443,367.1 446.7,372.4 C448.3,374.6 458.1,383.3 468.5,391.7 C489.1,408.2 503.5,422.2 507,429.1 C510,434.9 510.9,445.5 508.7,449.6 C505.6,455.5 489.6,468.6 481.8,471.5 L480.2,472.1 L479.5,463.4 C478.8,454.9 479.3,441.3 480.6,433.8 L481.2,430.1 L478.7,427.6 C475.4,424.3 471.1,424.2 468.2,427.3 C465,430.7 463.6,441.8 464.4,458.5 C464.8,466.2 465.3,473.7 465.6,475.2 L466.2,478 L463.4,479.1 C456.6,481.7 440.4,485.1 426.2,486.9 C411.1,488.8 408.9,489.5 406.9,493.3 C405.4,496 407.5,500.6 410.8,501.8 C413.5,502.9 431.5,504.4 455.7,505.6 L468.8,506.2 L469.5,516.4 C469.9,521.9 470.2,534.6 470.3,544.5 L470.5,562.5 L468.4,567 C467.2,569.5 464.9,572.7 463.3,574.3 L460.3,577 L450.1,579 C444,580.2 435.8,581 429.4,581 L418.9,581 L416.5,583.5 C413.1,586.8 413.1,591.8 416.6,595.1 L419.2,597.5 L429.8,597.4 C441.5,597.3 454.5,595 474.6,589.5 C485.6,586.4 491.6,584.3 516,574.8 C523.7,571.8 538.3,564.3 543.3,560.8 C546.8,558.3 546.9,554.6 543.5,552.4 L541.1,550.8 L528.8,557.4 C522,560.9 512.5,565.2 507.5,566.9 C499,569.7 480.3,573.7 479.5,572.9 C479.3,572.6 480.1,569.8 481.3,566.5 L483.4,560.5 L483.7,533.5 L483.9,506.5 L502.2,505.8 C520.5,505.1 530.4,503.5 532.1,500.8 C533.3,499 533.2,495.6 531.9,494.3 C531.2,493.6 525.4,493.4 514.2,493.7 C505,493.9 494.1,493.8 490,493.3 L482.5,492.5 L482.2,488.3 L481.9,484.1 L487.2,481.4 C500.9,474.5 514.5,462.8 518.6,454.5 C521.7,448.1 522.1,438.3 519.6,429.7 C516.2,418 503.9,404.1 474.9,379.2 C466.4,371.9 459,364.8 458.3,363.6 C457.4,361.9 457.3,360.3 458,357.9 C459.5,352.8 459.2,350.2 457,348 C454.5,345.5 449.8,345.4 447.7,347.8 Z"/>
  <path fill="#000000" d="M360.1,410.6 C357.7,413.6 356.5,418.9 357.4,422.4 C358.5,426.7 362.2,429.8 372,434.6 C390.1,443.5 393.9,447.7 394,459.1 C394,466.8 390.1,474.3 379.9,486.1 C359.6,509.6 358,512.1 358,519 C358,521.3 358.7,524.4 359.5,526 C360.3,527.6 366.9,533.3 374.3,538.8 C381.6,544.3 388.8,550.5 390.2,552.6 C395.9,560.9 396.6,578.9 391.6,587.5 C390.1,590 388.5,592 387.9,592 C383.8,592 318.8,574 314.1,571.6 C312.2,570.6 308.9,568.5 306.7,566.9 C304.5,565.3 301.9,564 300.8,564 C298.2,564 295,567.6 295,570.5 C295,573.9 301.5,580.9 307.9,584.4 C312.5,586.8 343.2,596.1 366.8,602.1 C371.8,603.4 376,604.8 376,605.1 C376,606.4 364.6,613.3 358.1,616.1 C349.8,619.6 333.2,623 324.7,623 L318.3,623 L315.9,620.7 C314.6,619.4 312.3,617 310.7,615.2 C309.2,613.4 307.3,612 306.4,612 C303.6,612 301,614 301,616.3 C301,619.6 307.5,628.4 312.3,631.6 L316.5,634.5 L328.2,634.8 C351.4,635.6 371,628.7 388.1,614 L393.8,608.9 L445.7,621.9 C474.2,628.9 506.3,636.9 517,639.5 C527.7,642.1 546.6,647.2 559,650.8 C571.4,654.3 588.3,659.1 596.5,661.3 L611.5,665.3 L623.1,665.4 C635.5,665.5 638,664.7 638,660.6 C638,656.2 636.6,655.5 625.3,654.8 C612.3,654 604,651.9 569.5,640.5 C553.3,635.2 528,628 502.5,621.5 C411.5,598.3 404.5,596.4 404.7,594.9 C404.8,594.1 405.9,590.8 407.1,587.5 L409.2,581.5 L408.8,570 C408,550.1 403.5,543 381.8,528.1 C374.8,523.4 371,520.1 371,519 C371,516.8 375.7,510.4 385.5,499.4 C401.8,481 406.1,473.1 406.8,460.5 L407.2,452.5 L404.9,446.5 C401.8,438.2 395.9,432.8 382.3,425.7 L371.2,420 L371.7,416 C372.4,410.9 370.1,408 365.4,408 C363.1,408 361.6,408.7 360.1,410.6 Z"/>
</svg>

