<svg xmlns="http://www.w3.org/2000/svg" version="1.0" width="937.000000pt" height="937.000000pt" viewBox="0 0 937.000000 937.000000" preserveAspectRatio="xMidYMid meet">
  <defs/>
  <path fill="#000000" d="M444.1,312.6 C442.9,314.1 442,316 442,317 C442,318 442.9,319.9 444.1,321.4 L446.1,324 L451.6,324 C454.6,324 458.5,324.6 460.3,325.3 C465.4,327.5 470.6,334 471.9,339.9 C473.8,349.1 473.3,352.8 467.9,365.7 L466.6,368.9 L468.5,371 C471.7,374.5 475.1,373.3 478.2,367.4 C483.9,356.9 485.6,341.8 482.4,331 C481.2,326.8 479.5,324.3 474.7,319.5 C467.5,312.4 462,310 452.4,310 L446.1,310 L444.1,312.6 Z"/>
  <path fill="#000000" d="M501.7,389.9 C497.4,392.1 486,396.7 476.2,400.1 C452.1,408.3 433.7,412.6 406,416.5 C392.2,418.4 382,421.3 379.6,423.9 C377,426.8 377.8,432.8 381.2,435.3 L383.8,437.3 L391.7,435.2 C396,434.1 404.5,432.4 410.5,431.5 C425.3,429.3 447.7,424.5 457.6,421.5 C462.1,420.1 466.1,419 466.4,419 C466.8,419 463.3,423.2 458.6,428.4 C441.7,447.1 424.8,471.8 413.3,494.5 C409.7,501.6 406.6,507.7 406.4,507.9 C405.8,508.6 387.3,512.1 381.5,512.5 C367.3,513.6 364.8,514.1 362.4,516.5 C359.2,519.7 359.2,524.9 362.3,527.8 L364.6,530 L372.6,530 C376.9,529.9 384.1,529.3 388.5,528.5 C392.8,527.7 396.6,527.3 396.8,527.5 C397,527.7 394.9,533.3 392.1,540 C374.9,580.2 355.1,641.5 354.8,655.4 L354.7,660.3 L357.4,662.7 C362.8,667.3 366.1,665.4 374.7,652.8 C378.5,647.1 382.7,640.5 383.9,638.2 L386.1,633.8 L384.5,631.3 L382.8,628.8 L379.5,629.3 C377.2,629.7 376.2,629.5 376.5,628.7 C376.7,628 377.8,624.6 379,621 L381.2,614.5 L392.3,606.2 C421.2,584.8 460.1,542.9 476.8,515.2 L482,506.5 L482,514.3 C482,518.5 482.1,522.3 482.3,522.7 C482.4,523.2 480.8,523.4 478.8,523.2 C476.1,522.9 474.6,523.4 473.1,524.9 C469.5,528.5 470.4,531.5 477.3,538.7 L483.5,545.2 L483.7,583.8 C483.9,622.2 483.6,625.2 480.8,612.5 L479.5,606.5 L476.7,605.6 L474,604.6 L471.8,606.8 L469.6,608.9 L471.7,618.8 C474.3,631 479.8,643.5 483.4,645.1 C487.6,647.1 491.4,644.8 494.1,638.7 L496.4,633.5 L496.8,594.7 C497,573.4 497.4,556 497.6,556 C497.8,556 503.9,560.4 511.2,565.8 C518.5,571.2 531.9,580.8 541,587 C550.1,593.2 564.3,603.2 572.5,609 C580.8,614.9 589.3,620.9 591.5,622.3 C598.1,626.8 603.5,625.4 602.8,619.3 C602.4,615.8 591.2,606.7 554.6,580.3 C540.3,570 521.3,555.8 512.4,548.8 L496.3,536.1 L495.7,526.3 C495.3,520.9 495,513.6 495,510 L495,503.5 L521.8,495.8 C536.5,491.5 553.5,486.9 559.5,485.5 C576.1,481.6 577,481.3 578.6,477.3 L580.1,473.9 L578.8,471.2 C578.1,469.7 576.2,467.9 574.6,467.1 L571.7,465.8 L561.1,467.4 C546.5,469.6 511.3,469.6 502.7,467.4 C499.3,466.5 495.4,465.2 494,464.5 L491.4,463.1 L490.1,453.6 C487.9,437 485.5,432 479.7,432 L476.5,432 L487.5,420.9 C500,408.4 505.4,404.1 512.3,401.6 C517.4,399.7 519,397.7 519,393.2 C519,389.8 516.5,387.3 512.4,386.4 C510.1,386 507.6,386.8 501.7,389.9 Z M472.1,443.5 C471.1,452.2 472.3,458.4 475.9,463.7 L478.9,467.9 L479.7,478.7 C480.1,484.6 480.5,489.9 480.5,490.4 C480.5,490.9 477.1,492.2 473,493.2 C465.1,495.2 427.1,504 426.4,504 C424.7,504 439,479.9 449.7,464.9 C456.8,454.8 472.1,435.8 472.7,436.3 C472.8,436.5 472.6,439.7 472.1,443.5 Z M500.3,477.5 C503.7,478.4 509.9,479.4 514,479.8 L521.5,480.5 L508,484.3 C500.6,486.3 494.1,488 493.7,488 C493.3,488 493,485.3 493,482 C493,478.7 493.2,476 493.5,476 C493.8,476 496.9,476.7 500.3,477.5 Z M459,513.6 C459,514.6 444.5,533.1 431.2,549 C419,563.6 390.5,592.8 389.5,591.8 C388.5,590.8 404.1,550.7 412.6,532.2 C415,527.1 417.5,522.8 418.2,522.6 C419.7,522.1 457.1,513.3 458.3,513.1 C458.7,513.1 459,513.3 459,513.6 Z"/>
</svg>

