<svg xmlns="http://www.w3.org/2000/svg" version="1.0" width="937.000000pt" height="937.000000pt" viewBox="0 0 937.000000 937.000000" preserveAspectRatio="xMidYMid meet">
  <defs/>
  <path fill="#000000" d="M559.6,318.3 C558.1,319.8 557.1,322.4 556.7,325.5 C555.8,332.1 554.1,334.6 542.4,347 C526.9,363.3 508.8,383.1 503.1,390 C497.3,397 492,406.7 492,410.4 C492,417.9 496.5,420.8 510.3,422.2 C527.9,423.9 549.3,422 564.5,417.3 L566.4,416.7 L564.5,419.6 C551.4,439.5 536.2,463.5 534.4,467.5 C531.2,474.2 531.3,477.5 534.8,481 C538.3,484.5 545.3,485.6 557.3,484.6 C572.1,483.3 581.8,479.9 603.9,468 C610.1,464.6 615.3,462 615.5,462.2 C615.6,462.4 612.4,471.7 608.4,483 C604.3,494.3 597.9,512.5 594.1,523.5 C585.1,549.6 580.3,561.6 572.4,577.8 C562.3,598.3 553.3,606.6 538.4,609 C530.3,610.3 527.8,613.8 532,618 L534.1,620.1 L539.3,619.4 C546.4,618.5 554.4,615.6 559.9,612 C576.4,601.4 588.1,580.2 612.8,516 C636.9,453.5 638,449.8 634,444.7 L631.9,442 L627.6,442 C624.2,442 622.6,442.7 619.4,445.4 C608.8,454.4 579.7,469.8 568,472.4 C559.5,474.4 545,474.6 545,472.7 C545,472.1 547.5,468.1 550.6,464 C561.9,449 579.8,423.4 581.9,419.3 C585,413.1 584.7,408.8 580.9,405.6 C577.2,402.4 574.7,402.4 567.2,405.1 C564.1,406.3 557.5,408.3 552.6,409.6 L543.8,412 L526.1,412 C507.5,412 504,411.6 504,409.5 C504,407.1 511.7,398.5 539.3,370.4 C556.4,353 567.6,340.7 569,337.9 C570.4,335.2 571.5,331 571.8,326.9 L572.2,320.3 L569.5,318.2 C565.9,315.4 562.5,315.4 559.6,318.3 Z"/>
  <path fill="#000000" d="M426.5,332.5 C422.7,333.2 415,335.5 409.5,337.5 C404,339.6 395.5,342.4 390.5,343.9 C383.4,346.1 381.2,347.2 380.1,349.2 L378.6,351.8 L379.8,354.4 C381.8,358.9 385.1,359.3 393.3,356.4 C416.7,348 423.4,345.9 429.3,345.3 C438.3,344.5 440.5,345.3 443.4,350.3 C451.1,363.5 455.8,392 458.6,442.6 L459.3,454.8 L457.4,455.4 C453.9,456.5 435.7,460 435.3,459.7 C435.2,459.5 436.7,458 438.8,456.3 C450.2,447.1 452.1,427.7 442.5,417.1 C437,411 423.7,406 413,406 L409.2,406 L409.1,396.8 L409.1,387.6 L407.2,385.1 C404.8,381.9 399.6,381.1 396.9,383.6 C395.5,384.9 395,386.7 395,391 C395,399.7 392.5,412 387.4,429.1 C384.8,437.6 380.8,450.8 378.5,458.5 L374.4,472.5 L367.9,473.8 C364.4,474.5 352.4,477.4 341.2,480.1 L320.9,485.1 L318.9,482.6 C315.5,478.3 311.5,479.1 305.8,485 L301,490 L301,493.9 C301,496.6 301.7,498.7 303.3,500.6 L305.6,503.3 L311.1,503.3 C314.2,503.3 322.8,501.6 331.5,499.2 C339.8,497 350.8,494.3 356,493.1 C361.2,491.9 366.3,490.7 367.2,490.4 L368.9,489.9 L367.5,494.7 C366.7,497.3 363.1,508.1 359.4,518.7 L352.8,537.8 L350.5,538.4 C347.6,539.1 346.3,543.2 345.4,554.3 L344.7,562 L346.5,564 C349.3,567.1 353.5,566.6 356.4,562.7 C358.5,560 375.3,516.3 383.1,493.5 L385.5,486.5 L399.5,483.2 C407.2,481.3 423.6,477.2 436,474 C448.4,470.8 458.7,468.4 459,468.7 C460,469.7 460.1,558.1 459,574.5 C457.2,603.2 455.7,619 454.8,618.4 C454.4,618.1 452.2,615.2 450,611.9 C445.3,605.2 442.3,604.2 439.4,608.5 L437.7,611.1 L441.9,619.6 C449,633.9 455.6,639 462.6,635.7 C468.6,632.8 469.5,628.9 472.7,595 L474.5,576.5 L474.2,520 L474,463.4 L488.8,458.7 C497,456.1 504.2,453.4 504.8,452.8 C506.9,450.7 506.2,446.1 503.7,444.9 C501.9,444.1 498.9,444.6 489.1,447.4 C482.3,449.4 476,451 475.1,451 L473.3,451 L472.6,440 C469.8,393.9 464.6,363.1 456.9,347.7 C449.8,333.5 442,329.6 426.5,332.5 Z M426.3,421.6 C435.7,424.8 439.9,432.6 437,441.4 C435.5,446 428.6,452 422.1,454.4 C416.6,456.4 414.8,458.4 415.7,461.8 C416.3,464.2 416.9,463.9 401.6,467 C396.1,468.1 391.5,468.8 391.3,468.6 C391,468.4 403.4,427.1 405.5,421.2 C406.2,419.4 420.6,419.6 426.3,421.6 Z"/>
</svg>

