<svg xmlns="http://www.w3.org/2000/svg" width="300" height="300" viewBox="0 0 300 300">
<path d="M 110.99 144.66 L 110.99 145.60 C 110.99 146.87 112.02 147.90 113.29 147.90 C 114.57 147.90 115.60 146.87 115.60 145.60 L 115.60 144.66 C 115.60 143.38 114.57 142.35 113.29 142.35 C 112.02 142.35 110.99 143.38 110.99 144.66 Z M 110.98 145.60 L 110.98 146.56 C 110.98 147.84 112.02 148.87 113.29 148.87 C 114.57 148.87 115.60 147.84 115.60 146.56 L 115.60 145.60 C 115.60 144.32 114.57 143.29 113.29 143.29 C 112.02 143.29 110.98 144.32 110.98 145.60 Z M 110.98 146.56 L 110.98 147.58 C 110.98 148.86 112.02 149.89 113.29 149.89 C 114.57 149.89 115.60 148.86 115.60 147.58 L 115.60 146.56 C 115.60 145.29 114.57 144.25 113.29 144.25 C 112.02 144.25 110.98 145.29 110.98 146.56 Z M 110.98 147.58 L 110.98 148.64 C 110.98 149.91 112.02 150.95 113.29 150.95 C 114.57 150.95 115.60 149.91 115.60 148.64 L 115.60 147.58 C 115.60 146.31 114.57 145.27 113.29 145.27 C 112.02 145.27 110.98 146.31 110.98 147.58 Z M 110.99 148.64 L 110.99 149.59 C 110.99 150.86 112.02 151.88 113.29 151.88 C 114.56 151.88 115.59 150.86 115.59 149.59 L 115.59 148.64 C 115.59 147.37 114.56 146.34 113.29 146.34 C 112.02 146.34 110.99 147.37 110.99 148.64 Z M 111.01 149.59 L 111.01 150.58 C 111.01 151.84 112.03 152.86 113.29 152.86 C 114.55 152.86 115.57 151.84 115.57 150.58 L 115.57 149.59 C 115.57 148.33 114.55 147.30 113.29 147.30 C 112.03 147.30 111.01 148.33 111.01 149.59 Z M 111.03 150.58 L 111.03 151.60 C 111.03 152.85 112.04 153.87 113.29 153.87 C 114.54 153.87 115.56 152.85 115.56 151.60 L 115.56 150.58 C 115.56 149.33 114.54 148.32 113.29 148.32 C 112.04 148.32 111.03 149.33 111.03 150.58 Z M 111.05 151.60 L 111.05 152.64 C 111.05 153.88 112.05 154.88 113.29 154.88 C 114.53 154.88 115.54 153.88 115.54 152.64 L 115.54 151.60 C 115.54 150.36 114.53 149.36 113.29 149.36 C 112.05 149.36 111.05 150.36 111.05 151.60 Z M 111.07 152.64 L 111.07 153.62 C 111.07 154.85 112.06 155.85 113.29 155.85 C 114.52 155.85 115.52 154.85 115.52 153.62 L 115.52 152.64 C 115.52 151.41 114.52 150.41 113.29 150.41 C 112.06 150.41 111.07 151.41 111.07 152.64 Z M 111.09 153.62 L 111.09 154.54 C 111.09 155.76 112.07 156.75 113.29 156.75 C 114.51 156.75 115.50 155.76 115.50 154.54 L 115.50 153.62 C 115.50 152.40 114.51 151.42 113.29 151.42 C 112.07 151.42 111.09 152.40 111.09 153.62 Z M 111.11 154.54 L 111.11 155.48 C 111.11 156.69 112.09 157.67 113.29 157.67 C 114.50 157.67 115.48 156.69 115.48 155.48 L 115.48 154.54 C 115.48 153.34 114.50 152.36 113.29 152.36 C 112.09 152.36 111.11 153.34 111.11 154.54 Z M 111.13 155.48 L 111.13 156.47 C 111.13 157.66 112.10 158.63 113.29 158.63 C 114.49 158.63 115.45 157.66 115.45 156.47 L 115.45 155.48 C 115.45 154.29 114.49 153.32 113.29 153.32 C 112.10 153.32 111.13 154.29 111.13 155.48 Z M 111.15 156.47 L 111.15 157.53 C 111.15 158.71 112.11 159.67 113.29 159.67 C 114.47 159.67 115.43 158.71 115.43 157.53 L 115.43 156.47 C 115.43 155.29 114.47 154.33 113.29 154.33 C 112.11 154.33 111.15 155.29 111.15 156.47 Z M 111.17 157.53 L 111.17 158.65 C 111.17 159.82 112.12 160.77 113.29 160.77 C 114.46 160.77 115.41 159.82 115.41 158.65 L 115.41 157.53 C 115.41 156.36 114.46 155.41 113.29 155.41 C 112.12 155.41 111.17 156.36 111.17 157.53 Z M 111.19 158.65 L 111.19 159.62 C 111.19 160.78 112.13 161.72 113.29 161.72 C 114.45 161.72 115.39 160.78 115.39 159.62 L 115.39 158.65 C 115.39 157.49 114.45 156.55 113.29 156.55 C 112.13 156.55 111.19 157.49 111.19 158.65 Z M 111.21 159.62 L 111.21 160.63 C 111.21 161.78 112.14 162.72 113.29 162.72 C 114.44 162.72 115.37 161.78 115.37 160.63 L 115.37 159.62 C 115.37 158.47 114.44 157.54 113.29 157.54 C 112.14 157.54 111.21 158.47 111.21 159.62 Z M 111.23 160.63 L 111.23 161.67 C 111.23 162.81 112.15 163.74 113.29 163.74 C 114.43 163.74 115.36 162.81 115.36 161.67 L 115.36 160.63 C 115.36 159.49 114.43 158.57 113.29 158.57 C 112.15 158.57 111.23 159.49 111.23 160.63 Z M 111.24 161.67 L 111.24 162.71 C 111.24 163.84 112.16 164.76 113.29 164.76 C 114.42 164.76 115.34 163.84 115.34 162.71 L 115.34 161.67 C 115.34 160.54 114.42 159.62 113.29 159.62 C 112.16 159.62 111.24 160.54 111.24 161.67 Z M 111.26 162.71 L 111.26 163.73 C 111.26 164.86 112.17 165.77 113.29 165.77 C 114.41 165.77 115.32 164.86 115.32 163.73 L 115.32 162.71 C 115.32 161.59 114.41 160.68 113.29 160.68 C 112.17 160.68 111.26 161.59 111.26 162.71 Z M 111.28 163.73 L 111.28 164.71 C 111.28 165.83 112.18 166.73 113.29 166.73 C 114.41 166.73 115.31 165.83 115.31 164.71 L 115.31 163.73 C 115.31 162.62 114.41 161.72 113.29 161.72 C 112.18 161.72 111.28 162.62 111.28 163.73 Z M 111.29 164.71 L 111.29 165.72 C 111.29 166.83 112.19 167.72 113.29 167.72 C 114.40 167.72 115.29 166.83 115.29 165.72 L 115.29 164.71 C 115.29 163.61 114.40 162.72 113.29 162.72 C 112.19 162.72 111.29 163.61 111.29 164.71 Z M 111.32 165.72 L 111.32 166.91 C 111.32 167.99 112.20 168.88 113.29 168.88 C 114.38 168.88 115.26 167.99 115.26 166.91 L 115.26 165.72 C 115.26 164.63 114.38 163.75 113.29 163.75 C 112.20 163.75 111.32 164.63 111.32 165.72 Z M 111.36 166.91 L 111.36 167.96 C 111.36 169.03 112.22 169.89 113.29 169.89 C 114.36 169.89 115.23 169.03 115.23 167.96 L 115.23 166.91 C 115.23 165.84 114.36 164.97 113.29 164.97 C 112.22 164.97 111.36 165.84 111.36 166.91 Z M 111.39 167.96 L 111.39 168.90 C 111.39 169.95 112.24 170.80 113.29 170.80 C 114.34 170.80 115.19 169.95 115.19 168.90 L 115.19 167.96 C 115.19 166.91 114.34 166.06 113.29 166.06 C 112.24 166.06 111.39 166.91 111.39 167.96 Z M 111.43 168.90 L 111.43 169.76 C 111.43 170.79 112.26 171.62 113.29 171.62 C 114.32 171.62 115.16 170.79 115.16 169.76 L 115.16 168.90 C 115.16 167.87 114.32 167.04 113.29 167.04 C 112.26 167.04 111.43 167.87 111.43 168.90 Z M 111.46 169.76 L 111.46 170.73 C 111.46 171.74 112.28 172.56 113.29 172.56 C 114.31 172.55 115.12 171.73 115.12 170.72 L 115.12 169.76 C 115.12 168.74 114.30 167.93 113.29 167.93 C 112.28 167.93 111.46 168.75 111.46 169.76 Z M 111.49 170.76 L 111.51 171.82 C 111.53 172.81 112.35 173.60 113.34 173.59 C 114.34 173.57 115.13 172.75 115.11 171.75 L 115.09 170.69 C 115.08 169.70 114.26 168.90 113.26 168.92 C 112.27 168.94 111.47 169.76 111.49 170.76 Z M 111.54 171.92 L 111.61 172.88 C 111.69 173.86 112.54 174.59 113.52 174.51 C 114.50 174.44 115.23 173.59 115.15 172.61 L 115.08 171.65 C 115.01 170.67 114.16 169.94 113.18 170.01 C 112.20 170.09 111.47 170.94 111.54 171.92 Z M 111.67 173.08 L 111.84 173.98 C 112.03 174.93 112.94 175.55 113.89 175.37 C 114.84 175.18 115.46 174.27 115.28 173.32 L 115.10 172.41 C 114.92 171.46 114.00 170.84 113.05 171.03 C 112.10 171.21 111.48 172.13 111.67 173.08 Z M 111.95 174.26 L 112.30 175.21 C 112.64 176.10 113.63 176.55 114.52 176.21 C 115.41 175.88 115.86 174.89 115.53 174.00 L 115.17 173.05 C 114.84 172.16 113.85 171.70 112.96 172.04 C 112.06 172.37 111.61 173.36 111.95 174.26 Z M 112.41 175.39 L 112.86 176.25 C 113.30 177.08 114.32 177.41 115.16 176.97 C 115.99 176.54 116.31 175.51 115.87 174.68 L 115.42 173.81 C 114.99 172.98 113.96 172.66 113.13 173.10 C 112.30 173.53 111.98 174.56 112.41 175.39 Z M 112.91 176.30 L 113.06 176.57 C 113.52 177.38 114.55 177.66 115.36 177.20 C 116.16 176.74 116.44 175.71 115.98 174.91 L 115.83 174.63 C 115.37 173.83 114.34 173.55 113.54 174.01 C 112.73 174.46 112.45 175.49 112.91 176.30 Z"
      fill="black"
      fill-rule="nonzero" /><path d="M 125.98 110.50 L 125.98 111.57 C 125.98 112.64 126.84 113.51 127.92 113.51 C 128.99 113.51 129.86 112.64 129.86 111.57 L 129.86 110.50 C 129.86 109.43 128.99 108.56 127.92 108.56 C 126.84 108.56 125.98 109.43 125.98 110.50 Z M 125.96 111.57 L 125.96 112.63 C 125.96 113.71 126.84 114.59 127.92 114.59 C 129.00 114.59 129.87 113.71 129.87 112.63 L 129.87 111.57 C 129.87 110.49 129.00 109.62 127.92 109.62 C 126.84 109.62 125.96 110.49 125.96 111.57 Z M 125.94 112.63 L 125.94 113.66 C 125.94 114.75 126.83 115.63 127.92 115.63 C 129.01 115.63 129.89 114.75 129.89 113.66 L 129.89 112.63 C 129.89 111.54 129.01 110.66 127.92 110.66 C 126.83 110.66 125.94 111.54 125.94 112.63 Z M 125.92 113.66 L 125.92 114.64 C 125.92 115.74 126.82 116.63 127.92 116.63 C 129.02 116.63 129.91 115.74 129.91 114.64 L 129.91 113.66 C 129.91 112.56 129.02 111.66 127.92 111.66 C 126.82 111.66 125.92 112.56 125.92 113.66 Z M 125.91 114.64 L 125.91 115.56 C 125.91 116.67 126.81 117.57 127.92 117.57 C 129.03 117.57 129.93 116.67 129.93 115.56 L 129.93 114.64 C 129.93 113.53 129.03 112.63 127.92 112.63 C 126.81 112.63 125.91 113.53 125.91 114.64 Z M 125.89 115.56 L 125.89 116.59 C 125.89 117.71 126.80 118.62 127.92 118.62 C 129.04 118.62 129.95 117.71 129.95 116.59 L 129.95 115.56 C 129.95 114.44 129.04 113.53 127.92 113.53 C 126.80 113.53 125.89 114.44 125.89 115.56 Z M 125.87 116.59 L 125.87 117.65 C 125.88 118.78 126.80 119.69 127.93 119.69 C 129.06 119.68 129.97 118.76 129.97 117.63 L 129.96 116.58 C 129.96 115.45 129.04 114.54 127.91 114.54 C 126.78 114.54 125.87 115.46 125.87 116.59 Z M 125.85 117.67 L 125.87 118.63 C 125.88 119.77 126.82 120.68 127.96 120.67 C 129.10 120.65 130.01 119.72 130.00 118.58 L 129.99 117.62 C 129.97 116.47 129.04 115.56 127.89 115.57 C 126.75 115.59 125.84 116.52 125.85 117.67 Z M 125.85 118.66 L 125.87 119.58 C 125.91 120.73 126.86 121.64 128.02 121.61 C 129.17 121.57 130.07 120.62 130.04 119.47 L 130.02 118.54 C 129.98 117.39 129.02 116.49 127.87 116.52 C 126.72 116.55 125.82 117.51 125.85 118.66 Z M 125.86 119.62 L 125.90 120.47 C 125.95 121.63 126.94 122.52 128.10 122.47 C 129.25 122.41 130.15 121.43 130.10 120.27 L 130.06 119.42 C 130.00 118.27 129.02 117.37 127.86 117.42 C 126.70 117.48 125.80 118.46 125.86 119.62 Z M 125.89 120.50 L 125.94 121.37 C 126.02 122.54 127.02 123.42 128.19 123.35 C 129.35 123.27 130.24 122.27 130.16 121.10 L 130.11 120.24 C 130.03 119.07 129.03 118.19 127.86 118.26 C 126.70 118.33 125.81 119.34 125.89 120.50 Z M 125.93 121.39 L 126.00 122.36 C 126.09 123.53 127.11 124.41 128.28 124.32 C 129.45 124.24 130.33 123.22 130.24 122.05 L 130.17 121.08 C 130.09 119.91 129.07 119.03 127.90 119.12 C 126.72 119.20 125.84 120.22 125.93 121.39 Z M 125.99 122.37 L 126.08 123.48 C 126.17 124.66 127.20 125.54 128.38 125.45 C 129.56 125.36 130.44 124.32 130.34 123.15 L 130.26 122.03 C 130.16 120.86 129.13 119.98 127.96 120.07 C 126.78 120.16 125.90 121.19 125.99 122.37 Z M 126.06 123.48 L 126.15 124.63 C 126.25 125.81 127.28 126.70 128.47 126.61 C 129.66 126.51 130.54 125.47 130.45 124.29 L 130.36 123.14 C 130.26 121.96 129.23 121.07 128.04 121.17 C 126.85 121.26 125.97 122.30 126.06 123.48 Z M 126.14 124.63 L 126.22 125.60 C 126.31 126.79 127.35 127.68 128.55 127.59 C 129.74 127.49 130.63 126.45 130.53 125.26 L 130.46 124.29 C 130.36 123.10 129.32 122.21 128.13 122.30 C 126.94 122.40 126.05 123.44 126.14 124.63 Z M 126.21 125.60 L 126.29 126.63 C 126.38 127.82 127.43 128.72 128.63 128.63 C 129.82 128.53 130.72 127.49 130.62 126.29 L 130.54 125.26 C 130.45 124.06 129.40 123.17 128.21 123.26 C 127.01 123.36 126.12 124.40 126.21 125.60 Z M 126.28 126.63 L 126.36 127.68 C 126.46 128.88 127.51 129.78 128.71 129.69 C 129.91 129.59 130.81 128.54 130.71 127.34 L 130.63 126.29 C 130.54 125.09 129.49 124.19 128.29 124.28 C 127.09 124.38 126.19 125.43 126.28 126.63 Z M 126.36 127.68 L 126.44 128.73 C 126.53 129.94 127.59 130.84 128.79 130.74 C 130.00 130.65 130.90 129.59 130.81 128.38 L 130.72 127.34 C 130.63 126.13 129.57 125.23 128.37 125.33 C 127.16 125.42 126.26 126.48 126.36 127.68 Z M 126.43 128.73 L 126.51 129.73 C 126.60 130.95 127.66 131.85 128.88 131.75 C 130.09 131.66 130.99 130.60 130.90 129.39 L 130.82 128.38 C 130.72 127.17 129.66 126.27 128.45 126.36 C 127.24 126.46 126.33 127.52 126.43 128.73 Z M 126.50 129.74 L 126.57 130.67 C 126.67 131.88 127.74 132.79 128.96 132.69 C 130.17 132.59 131.08 131.53 130.98 130.31 L 130.90 129.38 C 130.81 128.17 129.74 127.26 128.52 127.36 C 127.31 127.46 126.40 128.52 126.50 129.74 Z M 126.57 130.67 L 126.67 131.87 C 126.77 133.09 127.84 133.99 129.06 133.89 C 130.28 133.79 131.19 132.72 131.09 131.50 L 130.99 130.30 C 130.88 129.09 129.81 128.18 128.59 128.28 C 127.37 128.38 126.47 129.45 126.57 130.67 Z M 126.66 131.87 L 126.75 132.93 C 126.86 134.15 127.93 135.06 129.15 134.95 C 130.38 134.85 131.28 133.77 131.18 132.55 L 131.09 131.49 C 130.98 130.27 129.91 129.37 128.69 129.47 C 127.47 129.57 126.56 130.65 126.66 131.87 Z M 126.75 132.92 L 126.83 133.84 C 126.93 135.06 128.00 135.97 129.23 135.87 C 130.45 135.77 131.36 134.69 131.26 133.47 L 131.18 132.56 C 131.08 131.33 130.01 130.42 128.78 130.52 C 127.56 130.63 126.65 131.70 126.75 132.92 Z M 126.82 133.82 L 126.89 134.67 C 126.98 135.89 128.05 136.81 129.27 136.72 C 130.50 136.63 131.42 135.56 131.33 134.33 L 131.26 133.49 C 131.17 132.26 130.10 131.34 128.87 131.43 C 127.65 131.53 126.73 132.60 126.82 133.82 Z M 126.88 134.64 L 126.94 135.57 C 127.02 136.80 128.08 137.73 129.31 137.65 C 130.53 137.57 131.47 136.51 131.39 135.29 L 131.33 134.36 C 131.25 133.13 130.19 132.20 128.96 132.27 C 127.74 132.35 126.80 133.41 126.88 134.64 Z M 126.94 135.54 L 126.99 136.53 C 127.05 137.76 128.10 138.71 129.33 138.64 C 130.56 138.58 131.51 137.53 131.45 136.30 L 131.39 135.31 C 131.33 134.08 130.28 133.13 129.05 133.20 C 127.82 133.26 126.87 134.31 126.94 135.54 Z M 126.98 136.51 L 127.03 137.53 C 127.08 138.76 128.13 139.71 129.36 139.66 C 130.60 139.60 131.55 138.56 131.50 137.32 L 131.45 136.31 C 131.39 135.08 130.35 134.12 129.12 134.18 C 127.88 134.24 126.93 135.28 126.98 136.51 Z M 127.03 137.52 L 127.07 138.54 C 127.12 139.78 128.16 140.74 129.40 140.68 C 130.63 140.63 131.59 139.59 131.54 138.35 L 131.50 137.33 C 131.45 136.10 130.40 135.14 129.17 135.19 C 127.93 135.24 126.97 136.28 127.03 137.52 Z M 127.06 138.54 L 127.10 139.51 C 127.15 140.74 128.20 141.70 129.43 141.65 C 130.67 141.60 131.63 140.56 131.58 139.32 L 131.54 138.36 C 131.49 137.12 130.45 136.16 129.21 136.21 C 127.98 136.26 127.01 137.30 127.06 138.54 Z M 127.10 139.50 L 127.14 140.49 C 127.19 141.73 128.23 142.69 129.47 142.64 C 130.71 142.59 131.68 141.55 131.63 140.31 L 131.59 139.33 C 131.54 138.09 130.49 137.12 129.25 137.17 C 128.02 137.22 127.05 138.26 127.10 139.50 Z M 127.14 140.49 L 127.18 141.50 C 127.22 142.74 128.27 143.71 129.51 143.66 C 130.75 143.61 131.72 142.56 131.67 141.32 L 131.63 140.31 C 131.58 139.07 130.54 138.11 129.30 138.15 C 128.06 138.20 127.09 139.25 127.14 140.49 Z M 127.17 141.50 L 127.21 142.53 C 127.26 143.77 128.30 144.74 129.55 144.69 C 130.79 144.64 131.76 143.60 131.71 142.36 L 131.67 141.33 C 131.62 140.08 130.58 139.12 129.34 139.16 C 128.10 139.21 127.13 140.25 127.17 141.50 Z M 127.21 142.52 L 127.25 143.51 C 127.29 144.75 128.33 145.72 129.58 145.68 C 130.82 145.63 131.79 144.59 131.75 143.34 L 131.71 142.36 C 131.67 141.12 130.62 140.15 129.38 140.19 C 128.14 140.24 127.17 141.28 127.21 142.52 Z M 127.24 143.50 L 127.28 144.50 C 127.32 145.74 128.36 146.72 129.60 146.68 C 130.85 146.64 131.82 145.60 131.78 144.35 L 131.75 143.35 C 131.71 142.11 130.67 141.13 129.42 141.17 C 128.18 141.21 127.20 142.25 127.24 143.50 Z M 127.28 144.49 L 127.31 145.50 C 127.34 146.75 128.38 147.73 129.62 147.69 C 130.87 147.65 131.85 146.62 131.81 145.37 L 131.78 144.36 C 131.75 143.12 130.71 142.14 129.46 142.17 C 128.22 142.21 127.24 143.25 127.28 144.49 Z M 127.30 145.49 L 127.33 146.50 C 127.36 147.74 128.39 148.73 129.63 148.70 C 130.88 148.67 131.86 147.64 131.83 146.39 L 131.81 145.39 C 131.78 144.14 130.75 143.16 129.51 143.18 C 128.26 143.21 127.28 144.24 127.30 145.49 Z M 127.33 146.48 L 127.34 147.49 C 127.36 148.73 128.39 149.73 129.63 149.71 C 130.88 149.69 131.87 148.67 131.85 147.42 L 131.84 146.41 C 131.82 145.17 130.79 144.17 129.55 144.19 C 128.30 144.21 127.31 145.23 127.33 146.48 Z M 127.34 147.47 L 127.35 148.47 C 127.36 149.72 128.38 150.72 129.62 150.71 C 130.87 150.70 131.87 149.68 131.86 148.44 L 131.85 147.44 C 131.84 146.19 130.82 145.19 129.58 145.20 C 128.33 145.21 127.33 146.23 127.34 147.47 Z M 127.35 148.46 L 127.35 149.46 C 127.36 150.70 128.37 151.71 129.62 151.71 C 130.86 151.70 131.87 150.69 131.86 149.44 L 131.86 148.45 C 131.86 147.20 130.84 146.20 129.60 146.20 C 128.35 146.21 127.35 147.22 127.35 148.46 Z M 127.35 149.45 L 127.35 150.45 C 127.36 151.69 128.37 152.70 129.61 152.70 C 130.86 152.70 131.87 151.69 131.86 150.44 L 131.86 149.45 C 131.86 148.20 130.85 147.19 129.61 147.20 C 128.36 147.20 127.35 148.21 127.35 149.45 Z M 127.35 150.45 L 127.36 151.44 C 127.36 152.68 128.36 153.69 129.61 153.69 C 130.85 153.69 131.86 152.68 131.86 151.44 L 131.86 150.45 C 131.86 149.20 130.85 148.19 129.61 148.19 C 128.36 148.19 127.35 149.20 127.35 150.45 Z M 127.36 151.44 L 127.36 152.44 C 127.36 153.68 128.36 154.69 129.61 154.69 C 130.85 154.69 131.86 153.68 131.86 152.44 L 131.86 151.44 C 131.86 150.19 130.85 149.19 129.61 149.19 C 128.36 149.19 127.36 150.19 127.36 151.44 Z M 127.36 152.44 L 127.36 153.44 C 127.36 154.68 128.37 155.69 129.61 155.69 C 130.85 155.69 131.86 154.68 131.86 153.44 L 131.86 152.44 C 131.86 151.19 130.85 150.18 129.61 150.18 C 128.37 150.18 127.36 151.19 127.36 152.44 Z M 127.36 153.44 L 127.36 154.44 C 127.36 155.68 128.37 156.69 129.61 156.69 C 130.85 156.69 131.86 155.68 131.86 154.44 L 131.86 153.44 C 131.86 152.19 130.85 151.18 129.61 151.18 C 128.37 151.18 127.36 152.19 127.36 153.44 Z M 127.36 154.44 L 127.36 155.44 C 127.36 156.69 128.37 157.69 129.61 157.69 C 130.85 157.69 131.86 156.69 131.86 155.44 L 131.86 154.44 C 131.86 153.20 130.85 152.19 129.61 152.19 C 128.37 152.19 127.36 153.20 127.36 154.44 Z M 127.36 155.44 L 127.36 156.44 C 127.36 157.68 128.37 158.69 129.61 158.69 C 130.85 158.69 131.86 157.68 131.86 156.44 L 131.86 155.44 C 131.86 154.20 130.85 153.19 129.61 153.19 C 128.37 153.19 127.36 154.20 127.36 155.44 Z M 127.36 156.44 L 127.36 157.44 C 127.36 158.68 128.37 159.68 129.61 159.68 C 130.85 159.68 131.86 158.68 131.86 157.44 L 131.86 156.44 C 131.86 155.20 130.85 154.19 129.61 154.19 C 128.37 154.19 127.36 155.20 127.36 156.44 Z M 127.36 157.44 L 127.36 158.44 C 127.36 159.68 128.37 160.68 129.61 160.68 C 130.85 160.68 131.86 159.68 131.86 158.44 L 131.86 157.44 C 131.86 156.19 130.85 155.19 129.61 155.19 C 128.37 155.19 127.36 156.19 127.36 157.44 Z M 127.37 158.44 L 127.37 159.44 C 127.37 160.68 128.37 161.69 129.61 161.69 C 130.85 161.69 131.85 160.68 131.85 159.44 L 131.85 158.44 C 131.85 157.20 130.85 156.19 129.61 156.19 C 128.37 156.19 127.37 157.20 127.37 158.44 Z M 127.37 159.44 L 127.37 160.44 C 127.37 161.68 128.37 162.68 129.61 162.68 C 130.85 162.68 131.85 161.68 131.85 160.44 L 131.85 159.44 C 131.85 158.21 130.85 157.20 129.61 157.20 C 128.37 157.20 127.37 158.21 127.37 159.44 Z M 127.37 160.44 L 127.37 161.43 C 127.37 162.67 128.37 163.67 129.61 163.67 C 130.85 163.67 131.85 162.67 131.85 161.43 L 131.85 160.44 C 131.85 159.20 130.85 158.20 129.61 158.20 C 128.37 158.20 127.37 159.20 127.37 160.44 Z M 127.38 161.43 L 127.38 162.44 C 127.38 163.67 128.38 164.67 129.61 164.67 C 130.84 164.67 131.84 163.67 131.84 162.44 L 131.84 161.43 C 131.84 160.20 130.84 159.20 129.61 159.20 C 128.38 159.20 127.38 160.20 127.38 161.43 Z M 127.38 162.44 L 127.38 163.44 C 127.38 164.67 128.38 165.67 129.61 165.67 C 130.84 165.67 131.84 164.67 131.84 163.44 L 131.84 162.44 C 131.84 161.21 130.84 160.21 129.61 160.21 C 128.38 160.21 127.38 161.21 127.38 162.44 Z M 127.38 163.44 L 127.38 164.43 C 127.38 165.66 128.38 166.66 129.61 166.66 C 130.84 166.66 131.84 165.66 131.84 164.43 L 131.84 163.44 C 131.84 162.21 130.84 161.22 129.61 161.22 C 128.38 161.22 127.38 162.21 127.38 163.44 Z M 127.39 164.43 L 127.39 165.41 C 127.39 166.64 128.38 167.63 129.61 167.63 C 130.84 167.63 131.83 166.64 131.83 165.41 L 131.83 164.43 C 131.83 163.21 130.84 162.21 129.61 162.21 C 128.38 162.21 127.39 163.21 127.39 164.43 Z M 127.39 165.41 L 127.39 166.41 C 127.39 167.63 128.39 168.62 129.61 168.62 C 130.83 168.62 131.83 167.63 131.83 166.41 L 131.83 165.41 C 131.83 164.19 130.83 163.20 129.61 163.20 C 128.39 163.20 127.39 164.19 127.39 165.41 Z M 127.40 166.41 L 127.40 167.41 C 127.40 168.63 128.39 169.62 129.61 169.62 C 130.83 169.62 131.82 168.63 131.82 167.41 L 131.82 166.41 C 131.82 165.18 130.83 164.20 129.61 164.20 C 128.39 164.20 127.40 165.18 127.40 166.41 Z M 127.40 167.41 L 127.40 168.44 C 127.40 169.66 128.39 170.65 129.61 170.65 C 130.83 170.65 131.81 169.66 131.81 168.44 L 131.81 167.41 C 131.81 166.20 130.83 165.21 129.61 165.21 C 128.39 165.21 127.40 166.20 127.40 167.41 Z M 127.41 168.44 L 127.41 169.45 C 127.41 170.66 128.40 171.64 129.61 171.64 C 130.82 171.64 131.81 170.66 131.81 169.45 L 131.81 168.44 C 131.81 167.23 130.82 166.25 129.61 166.25 C 128.40 166.25 127.41 167.23 127.41 168.44 Z M 127.42 169.45 L 127.42 170.46 C 127.42 171.67 128.40 172.65 129.61 172.65 C 130.82 172.65 131.80 171.67 131.80 170.46 L 131.80 169.45 C 131.80 168.23 130.82 167.25 129.61 167.25 C 128.40 167.25 127.42 168.23 127.42 169.45 Z M 127.43 170.46 L 127.43 171.47 C 127.43 172.68 128.40 173.65 129.61 173.65 C 130.82 173.65 131.79 172.68 131.79 171.47 L 131.79 170.46 C 131.79 169.25 130.82 168.27 129.61 168.27 C 128.40 168.27 127.43 169.25 127.43 170.46 Z M 127.43 171.47 L 127.43 172.47 C 127.43 173.67 128.41 174.64 129.61 174.64 C 130.81 174.64 131.79 173.67 131.79 172.47 L 131.79 171.47 C 131.79 170.27 130.81 169.29 129.61 169.29 C 128.41 169.29 127.43 170.27 127.43 171.47 Z M 127.44 172.47 L 127.44 173.46 C 127.44 174.66 128.41 175.63 129.61 175.63 C 130.81 175.63 131.78 174.66 131.78 173.46 L 131.78 172.47 C 131.78 171.27 130.81 170.30 129.61 170.30 C 128.41 170.30 127.44 171.27 127.44 172.47 Z M 127.45 173.46 L 127.45 174.50 C 127.45 175.70 128.42 176.67 129.61 176.67 C 130.80 176.67 131.77 175.70 131.77 174.50 L 131.77 173.46 C 131.77 172.26 130.80 171.30 129.61 171.30 C 128.42 171.30 127.45 172.26 127.45 173.46 Z M 127.46 174.50 L 127.46 175.51 C 127.46 176.70 128.42 177.66 129.61 177.66 C 130.80 177.66 131.76 176.70 131.76 175.51 L 131.76 174.50 C 131.76 173.32 130.80 172.35 129.61 172.35 C 128.42 172.35 127.46 173.32 127.46 174.50 Z M 127.47 175.51 L 127.47 176.49 C 127.47 177.67 128.43 178.63 129.61 178.63 C 130.79 178.63 131.75 177.67 131.75 176.49 L 131.75 175.51 C 131.75 174.33 130.79 173.37 129.61 173.37 C 128.43 173.37 127.47 174.33 127.47 175.51 Z M 127.48 176.49 L 127.48 177.45 C 127.48 178.63 128.43 179.58 129.61 179.58 C 130.79 179.58 131.74 178.63 131.74 177.45 L 131.74 176.49 C 131.74 175.31 130.79 174.36 129.61 174.36 C 128.43 174.36 127.48 175.31 127.48 176.49 Z M 127.49 177.45 L 127.49 178.46 C 127.49 179.64 128.44 180.59 129.61 180.59 C 130.78 180.59 131.73 179.64 131.73 178.46 L 131.73 177.45 C 131.73 176.28 130.78 175.33 129.61 175.33 C 128.44 175.33 127.49 176.28 127.49 177.45 Z M 127.50 178.46 L 127.50 179.47 C 127.50 180.64 128.44 181.59 129.61 181.59 C 130.78 181.59 131.72 180.64 131.72 179.47 L 131.72 178.46 C 131.72 177.30 130.78 176.35 129.61 176.35 C 128.44 176.35 127.50 177.30 127.50 178.46 Z M 127.51 179.47 L 127.51 180.47 C 127.51 181.63 128.45 182.57 129.61 182.57 C 130.77 182.57 131.71 181.63 131.71 180.47 L 131.71 179.47 C 131.71 178.31 130.77 177.37 129.61 177.37 C 128.45 177.37 127.51 178.31 127.51 179.47 Z M 127.52 180.47 L 127.52 181.45 C 127.52 182.60 128.46 183.54 129.61 183.54 C 130.76 183.54 131.70 182.60 131.70 181.45 L 131.70 180.47 C 131.70 179.31 130.76 178.38 129.61 178.38 C 128.46 178.38 127.52 179.31 127.52 180.47 Z M 127.53 181.45 L 127.53 182.47 C 127.53 183.62 128.46 184.55 129.61 184.55 C 130.76 184.55 131.69 183.62 131.69 182.47 L 131.69 181.45 C 131.69 180.30 130.76 179.37 129.61 179.37 C 128.46 179.37 127.53 180.30 127.53 181.45 Z M 127.54 182.47 L 127.54 183.48 C 127.54 184.62 128.46 185.55 129.60 185.55 C 130.74 185.55 131.67 184.63 131.67 183.49 L 131.68 182.48 C 131.68 181.34 130.76 180.41 129.62 180.41 C 128.47 180.40 127.55 181.33 127.54 182.47 Z M 127.55 183.46 L 127.54 184.45 C 127.53 185.59 128.44 186.51 129.58 186.52 C 130.71 186.54 131.64 185.62 131.65 184.49 L 131.66 183.50 C 131.67 182.37 130.76 181.44 129.62 181.43 C 128.49 181.42 127.56 182.33 127.55 183.46 Z M 127.56 184.43 L 127.54 185.42 C 127.52 186.54 128.41 187.47 129.54 187.50 C 130.67 187.52 131.60 186.62 131.62 185.49 L 131.64 184.51 C 131.66 183.38 130.76 182.45 129.64 182.43 C 128.51 182.41 127.58 183.30 127.56 184.43 Z M 127.55 185.39 L 127.52 186.42 C 127.49 187.54 128.37 188.47 129.49 188.51 C 130.61 188.54 131.54 187.66 131.58 186.54 L 131.61 185.52 C 131.64 184.40 130.76 183.46 129.64 183.43 C 128.52 183.39 127.58 184.27 127.55 185.39 Z M 127.53 186.40 L 127.49 187.40 C 127.45 188.51 128.32 189.45 129.43 189.49 C 130.54 189.54 131.48 188.67 131.52 187.56 L 131.56 186.56 C 131.60 185.45 130.74 184.51 129.63 184.47 C 128.52 184.42 127.58 185.29 127.53 186.40 Z M 127.51 187.39 L 127.47 188.36 C 127.41 189.46 128.27 190.40 129.37 190.45 C 130.48 190.50 131.41 189.64 131.46 188.54 L 131.51 187.57 C 131.56 186.47 130.70 185.53 129.60 185.48 C 128.50 185.43 127.56 186.28 127.51 187.39 Z M 127.48 188.35 L 127.43 189.36 C 127.38 190.45 128.22 191.38 129.32 191.44 C 130.42 191.49 131.35 190.64 131.40 189.55 L 131.45 188.54 C 131.50 187.45 130.65 186.52 129.56 186.47 C 128.46 186.41 127.53 187.26 127.48 188.35 Z M 127.45 189.36 L 127.40 190.35 C 127.35 191.44 128.18 192.36 129.27 192.42 C 130.36 192.47 131.28 191.63 131.33 190.54 L 131.38 189.55 C 131.44 188.46 130.60 187.54 129.51 187.48 C 128.42 187.43 127.50 188.27 127.45 189.36 Z M 127.41 190.35 L 127.36 191.34 C 127.31 192.42 128.14 193.34 129.22 193.39 C 130.30 193.45 131.22 192.61 131.27 191.54 L 131.32 190.54 C 131.37 189.47 130.54 188.55 129.46 188.49 C 128.38 188.44 127.47 189.27 127.41 190.35 Z M 127.38 191.35 L 127.33 192.33 C 127.28 193.40 128.11 194.31 129.18 194.36 C 130.25 194.41 131.16 193.58 131.21 192.51 L 131.26 191.53 C 131.31 190.46 130.48 189.55 129.41 189.50 C 128.34 189.45 127.43 190.28 127.38 191.35 Z M 127.35 192.33 L 127.30 193.32 C 127.25 194.38 128.07 195.28 129.13 195.33 C 130.19 195.38 131.09 194.56 131.14 193.50 L 131.19 192.51 C 131.24 191.45 130.42 190.55 129.36 190.50 C 128.30 190.45 127.40 191.27 127.35 192.33 Z M 127.32 193.32 L 127.27 194.33 C 127.22 195.38 128.03 196.27 129.09 196.32 C 130.14 196.37 131.03 195.56 131.08 194.51 L 131.13 193.50 C 131.18 192.44 130.36 191.55 129.31 191.50 C 128.26 191.45 127.37 192.27 127.32 193.32 Z M 127.29 194.33 L 127.24 195.33 C 127.19 196.37 128.00 197.26 129.04 197.30 C 130.09 197.35 130.97 196.54 131.02 195.50 L 131.06 194.50 C 131.11 193.46 130.31 192.58 129.26 192.53 C 128.22 192.48 127.33 193.29 127.29 194.33 Z M 127.26 195.32 L 127.21 196.29 C 127.16 197.33 127.96 198.21 128.99 198.26 C 130.03 198.31 130.91 197.51 130.96 196.48 L 131.00 195.51 C 131.05 194.47 130.26 193.59 129.22 193.54 C 128.19 193.49 127.31 194.29 127.26 195.32 Z M 127.22 196.27 L 127.16 197.27 C 127.10 198.30 127.88 199.18 128.91 199.24 C 129.93 199.31 130.81 198.53 130.88 197.50 L 130.94 196.50 C 131.00 195.48 130.22 194.59 129.20 194.53 C 128.17 194.46 127.29 195.24 127.22 196.27 Z M 127.18 197.23 L 127.09 198.26 C 127.01 199.28 127.76 200.17 128.78 200.26 C 129.80 200.34 130.69 199.59 130.77 198.57 L 130.86 197.54 C 130.95 196.52 130.19 195.63 129.17 195.55 C 128.16 195.46 127.26 196.22 127.18 197.23 Z M 127.12 198.22 L 127.01 199.19 C 126.90 200.20 127.62 201.10 128.63 201.21 C 129.63 201.32 130.53 200.60 130.64 199.60 L 130.75 198.62 C 130.86 197.62 130.14 196.71 129.13 196.60 C 128.13 196.49 127.23 197.21 127.12 198.22 Z M 127.04 199.16 L 126.91 200.14 C 126.78 201.13 127.47 202.04 128.46 202.17 C 129.45 202.30 130.36 201.60 130.49 200.62 L 130.62 199.63 C 130.75 198.64 130.05 197.74 129.06 197.61 C 128.07 197.48 127.17 198.17 127.04 199.16 Z M 126.93 200.12 L 126.79 201.12 C 126.65 202.10 127.32 203.00 128.29 203.14 C 129.27 203.28 130.17 202.61 130.31 201.64 L 130.46 200.64 C 130.60 199.66 129.93 198.76 128.95 198.62 C 127.98 198.48 127.08 199.15 126.93 200.12 Z M 126.81 201.12 L 126.66 202.12 C 126.51 203.08 127.17 203.98 128.13 204.12 C 129.09 204.27 129.99 203.61 130.13 202.65 L 130.29 201.64 C 130.43 200.69 129.77 199.79 128.82 199.64 C 127.86 199.50 126.96 200.16 126.81 201.12 Z M 126.68 202.12 L 126.66 202.25 C 126.51 203.20 127.16 204.09 128.11 204.23 C 129.06 204.38 129.95 203.73 130.10 202.78 L 130.12 202.65 C 130.27 201.70 129.61 200.81 128.66 200.67 C 127.71 200.52 126.82 201.17 126.68 202.12 Z"
      fill="black"
      fill-rule="nonzero" /><path d="M 129.11 146.93 L 129.76 147.70 C 130.51 148.57 131.82 148.67 132.69 147.93 C 133.57 147.18 133.67 145.87 132.92 145.00 L 132.27 144.23 C 131.52 143.36 130.21 143.25 129.34 144.00 C 128.46 144.75 128.36 146.06 129.11 146.93 Z M 129.77 147.80 L 130.45 148.54 C 131.25 149.40 132.61 149.46 133.47 148.65 C 134.34 147.85 134.40 146.50 133.59 145.63 L 132.91 144.89 C 132.11 144.03 130.76 143.97 129.89 144.78 C 129.02 145.58 128.97 146.93 129.77 147.80 Z M 130.53 148.70 L 131.26 149.38 C 132.15 150.20 133.55 150.14 134.37 149.25 C 135.20 148.35 135.14 146.96 134.24 146.14 L 133.51 145.46 C 132.62 144.64 131.23 144.70 130.40 145.59 C 129.58 146.48 129.63 147.88 130.53 148.70 Z M 131.43 149.59 L 132.24 150.16 C 133.25 150.89 134.66 150.66 135.39 149.65 C 136.11 148.64 135.88 147.23 134.87 146.50 L 134.07 145.92 C 133.06 145.20 131.65 145.43 130.92 146.44 C 130.19 147.45 130.42 148.86 131.43 149.59 Z M 132.49 150.33 L 133.36 150.80 C 134.46 151.39 135.84 150.97 136.43 149.86 C 137.01 148.76 136.60 147.39 135.49 146.80 L 134.62 146.33 C 133.52 145.75 132.14 146.16 131.56 147.27 C 130.97 148.37 131.38 149.74 132.49 150.33 Z M 133.56 150.87 L 134.49 151.25 C 135.63 151.73 136.94 151.19 137.42 150.05 C 137.90 148.91 137.36 147.60 136.22 147.12 L 135.29 146.73 C 134.15 146.25 132.84 146.79 132.36 147.93 C 131.88 149.08 132.42 150.39 133.56 150.87 Z M 134.61 151.28 L 135.56 151.62 C 136.71 152.03 137.98 151.43 138.39 150.27 C 138.81 149.12 138.20 147.85 137.05 147.44 L 136.10 147.10 C 134.95 146.68 133.68 147.29 133.26 148.44 C 132.85 149.59 133.45 150.86 134.61 151.28 Z M 135.60 151.60 L 136.53 151.92 C 137.68 152.31 138.92 151.70 139.31 150.55 C 139.70 149.40 139.09 148.16 137.94 147.77 L 137.01 147.45 C 135.86 147.06 134.62 147.67 134.23 148.82 C 133.84 149.97 134.45 151.21 135.60 151.60 Z M 136.53 151.88 L 137.43 152.19 C 138.56 152.58 139.78 151.99 140.17 150.87 C 140.56 149.74 139.97 148.52 138.85 148.13 L 137.94 147.81 C 136.82 147.42 135.59 148.01 135.20 149.14 C 134.81 150.26 135.41 151.48 136.53 151.88 Z M 137.44 152.14 L 138.36 152.47 C 139.45 152.86 140.66 152.28 141.04 151.19 C 141.43 150.09 140.86 148.89 139.76 148.50 L 138.84 148.17 C 137.75 147.79 136.55 148.36 136.16 149.46 C 135.77 150.55 136.34 151.75 137.44 152.14 Z M 138.37 152.42 L 139.34 152.76 C 140.41 153.14 141.59 152.58 141.97 151.51 C 142.35 150.44 141.79 149.27 140.72 148.89 L 139.75 148.55 C 138.68 148.17 137.50 148.73 137.12 149.80 C 136.74 150.87 137.30 152.04 138.37 152.42 Z M 139.36 152.72 L 140.31 153.06 C 141.35 153.43 142.50 152.88 142.87 151.83 C 143.24 150.78 142.69 149.63 141.64 149.26 L 140.70 148.93 C 139.65 148.56 138.50 149.11 138.13 150.16 C 137.76 151.21 138.31 152.36 139.36 152.72 Z M 140.32 153.02 L 141.19 153.33 C 142.22 153.69 143.35 153.15 143.71 152.12 C 144.07 151.09 143.53 149.96 142.50 149.60 L 141.63 149.30 C 140.60 148.94 139.47 149.48 139.11 150.51 C 138.75 151.54 139.29 152.66 140.32 153.02 Z M 141.20 153.30 L 142.12 153.62 C 143.13 153.98 144.24 153.45 144.60 152.44 C 144.95 151.42 144.42 150.31 143.41 149.96 L 142.49 149.63 C 141.48 149.28 140.37 149.81 140.01 150.82 C 139.66 151.83 140.19 152.94 141.20 153.30 Z M 142.12 153.59 L 143.08 153.93 C 144.08 154.29 145.17 153.77 145.53 152.78 C 145.88 151.79 145.37 150.69 144.37 150.34 L 143.41 149.99 C 142.42 149.64 141.32 150.15 140.97 151.15 C 140.61 152.14 141.13 153.23 142.12 153.59 Z M 143.08 153.90 L 144.08 154.27 C 145.05 154.62 146.13 154.12 146.49 153.15 C 146.85 152.18 146.35 151.10 145.38 150.74 L 144.38 150.37 C 143.40 150.01 142.32 150.51 141.97 151.49 C 141.61 152.46 142.11 153.54 143.08 153.90 Z M 144.07 154.24 L 145.05 154.61 C 146.01 154.97 147.08 154.49 147.44 153.53 C 147.81 152.58 147.32 151.50 146.37 151.14 L 145.39 150.77 C 144.43 150.41 143.36 150.89 142.99 151.84 C 142.63 152.80 143.11 153.87 144.07 154.24 Z M 145.03 154.60 L 145.94 154.96 C 146.89 155.33 147.97 154.86 148.34 153.91 C 148.71 152.95 148.24 151.88 147.29 151.50 L 146.38 151.15 C 145.43 150.77 144.35 151.25 143.98 152.20 C 143.61 153.15 144.08 154.23 145.03 154.60 Z M 145.92 154.97 L 146.84 155.33 C 147.80 155.72 148.89 155.25 149.27 154.29 C 149.65 153.33 149.19 152.24 148.23 151.86 L 147.31 151.49 C 146.35 151.11 145.26 151.57 144.88 152.53 C 144.49 153.49 144.96 154.58 145.92 154.97 Z M 146.82 155.35 L 147.75 155.72 C 148.72 156.12 149.82 155.65 150.21 154.69 C 150.60 153.72 150.14 152.62 149.18 152.23 L 148.25 151.85 C 147.28 151.46 146.18 151.92 145.78 152.88 C 145.39 153.85 145.85 154.95 146.82 155.35 Z M 147.74 155.74 L 148.67 156.12 C 149.65 156.52 150.76 156.06 151.16 155.09 C 151.56 154.12 151.10 153.00 150.13 152.60 L 149.19 152.22 C 148.22 151.81 147.10 152.28 146.70 153.25 C 146.30 154.22 146.76 155.34 147.74 155.74 Z M 148.66 156.14 L 149.61 156.53 C 150.59 156.94 151.71 156.47 152.12 155.49 C 152.52 154.51 152.06 153.39 151.08 152.98 L 150.14 152.59 C 149.16 152.18 148.03 152.65 147.63 153.63 C 147.22 154.61 147.68 155.73 148.66 156.14 Z M 149.60 156.54 L 150.11 156.75 C 151.10 157.16 152.23 156.70 152.64 155.71 C 153.05 154.72 152.58 153.59 151.60 153.18 L 151.09 152.97 C 150.10 152.56 148.97 153.03 148.56 154.01 C 148.15 155.00 148.61 156.13 149.60 156.54 Z"
      fill="black"
      fill-rule="nonzero" /><path d="M 154.86 122.54 L 155.84 122.99 C 156.97 123.50 158.29 123.00 158.80 121.87 C 159.31 120.74 158.81 119.42 157.69 118.91 L 156.70 118.46 C 155.57 117.95 154.25 118.45 153.74 119.58 C 153.23 120.71 153.73 122.03 154.86 122.54 Z M 155.84 122.99 L 156.82 123.43 C 157.94 123.94 159.27 123.44 159.78 122.31 C 160.29 121.18 159.79 119.85 158.66 119.35 L 157.69 118.91 C 156.56 118.40 155.23 118.90 154.72 120.02 C 154.21 121.15 154.71 122.48 155.84 122.99 Z M 156.82 123.43 L 157.77 123.86 C 158.90 124.37 160.22 123.87 160.73 122.74 C 161.24 121.61 160.74 120.28 159.61 119.77 L 158.66 119.34 C 157.53 118.84 156.20 119.34 155.70 120.46 C 155.19 121.59 155.69 122.92 156.82 123.43 Z M 157.77 123.86 L 158.69 124.28 C 159.82 124.79 161.15 124.28 161.66 123.15 C 162.17 122.03 161.66 120.70 160.53 120.19 L 159.61 119.77 C 158.48 119.26 157.16 119.77 156.65 120.90 C 156.14 122.02 156.64 123.35 157.77 123.86 Z M 158.69 124.28 L 159.57 124.67 C 160.70 125.18 162.03 124.68 162.54 123.55 C 163.05 122.42 162.54 121.09 161.41 120.58 L 160.53 120.19 C 159.40 119.68 158.08 120.18 157.57 121.31 C 157.06 122.44 157.56 123.77 158.69 124.28 Z M 159.58 124.68 L 160.41 125.05 C 161.54 125.55 162.86 125.05 163.37 123.92 C 163.88 122.79 163.37 121.46 162.24 120.95 L 161.41 120.58 C 160.28 120.07 158.95 120.58 158.45 121.71 C 157.94 122.84 158.45 124.17 159.58 124.68 Z M 160.41 125.04 L 161.34 125.45 C 162.47 125.95 163.79 125.45 164.29 124.32 C 164.79 123.20 164.28 121.88 163.16 121.38 L 162.23 120.96 C 161.11 120.46 159.79 120.97 159.29 122.09 C 158.78 123.22 159.29 124.54 160.41 125.04 Z M 161.36 125.41 L 162.38 125.86 C 163.48 126.35 164.78 125.85 165.27 124.75 C 165.75 123.64 165.26 122.35 164.15 121.86 L 163.14 121.41 C 162.03 120.92 160.74 121.42 160.25 122.53 C 159.76 123.63 160.26 124.92 161.36 125.41 Z M 162.41 125.81 L 163.32 126.21 C 164.39 126.69 165.65 126.20 166.12 125.12 C 166.60 124.05 166.11 122.79 165.03 122.32 L 164.12 121.92 C 163.05 121.44 161.79 121.93 161.32 123.00 C 160.84 124.08 161.33 125.34 162.41 125.81 Z M 163.34 126.16 L 164.18 126.53 C 165.23 126.99 166.45 126.51 166.91 125.47 C 167.37 124.42 166.89 123.20 165.85 122.74 L 165.01 122.37 C 163.96 121.91 162.74 122.38 162.28 123.43 C 161.82 124.48 162.30 125.70 163.34 126.16 Z M 164.20 126.47 L 165.01 126.83 C 166.02 127.28 167.21 126.82 167.66 125.81 C 168.11 124.79 167.65 123.60 166.64 123.15 L 165.83 122.79 C 164.81 122.34 163.62 122.80 163.17 123.82 C 162.72 124.84 163.18 126.02 164.20 126.47 Z M 165.01 126.79 L 165.93 127.21 C 166.93 127.65 168.10 127.21 168.54 126.21 C 168.99 125.22 168.55 124.05 167.55 123.60 L 166.63 123.19 C 165.64 122.74 164.47 123.19 164.02 124.18 C 163.57 125.18 164.02 126.35 165.01 126.79 Z M 165.92 127.19 L 166.83 127.60 C 167.81 128.06 168.98 127.63 169.43 126.64 C 169.88 125.66 169.45 124.49 168.47 124.04 L 167.56 123.62 C 166.58 123.17 165.41 123.60 164.96 124.58 C 164.51 125.57 164.94 126.73 165.92 127.19 Z M 166.81 127.58 L 167.70 128.01 C 168.67 128.47 169.84 128.07 170.30 127.10 C 170.77 126.13 170.36 124.96 169.39 124.50 L 168.49 124.07 C 167.52 123.60 166.36 124.01 165.89 124.98 C 165.43 125.95 165.84 127.11 166.81 127.58 Z M 167.67 127.98 L 168.57 128.43 C 169.52 128.92 170.69 128.53 171.17 127.58 C 171.65 126.63 171.27 125.46 170.32 124.98 L 169.42 124.53 C 168.47 124.04 167.30 124.43 166.82 125.38 C 166.34 126.33 166.72 127.50 167.67 127.98 Z M 168.53 128.40 L 169.43 128.89 C 170.37 129.39 171.54 129.04 172.04 128.10 C 172.55 127.16 172.19 126.00 171.26 125.49 L 170.35 125.01 C 169.42 124.51 168.25 124.86 167.75 125.80 C 167.24 126.73 167.60 127.90 168.53 128.40 Z M 169.40 128.86 L 170.28 129.36 C 171.20 129.88 172.37 129.55 172.90 128.63 C 173.42 127.70 173.09 126.53 172.16 126.01 L 171.29 125.52 C 170.36 124.99 169.19 125.32 168.67 126.25 C 168.15 127.17 168.48 128.34 169.40 128.86 Z M 170.25 129.34 L 171.09 129.83 C 172.00 130.37 173.18 130.06 173.72 129.15 C 174.25 128.24 173.95 127.06 173.03 126.53 L 172.19 126.03 C 171.28 125.49 170.10 125.80 169.57 126.71 C 169.03 127.63 169.34 128.80 170.25 129.34 Z M 171.06 129.81 L 171.93 130.35 C 172.84 130.90 174.02 130.62 174.57 129.72 C 175.12 128.81 174.84 127.63 173.94 127.08 L 173.07 126.55 C 172.16 125.99 170.98 126.28 170.43 127.18 C 169.88 128.08 170.16 129.26 171.06 129.81 Z M 171.86 130.30 L 172.69 130.87 C 173.57 131.46 174.76 131.23 175.36 130.36 C 175.95 129.48 175.72 128.29 174.85 127.70 L 174.01 127.13 C 173.14 126.53 171.94 126.76 171.35 127.64 C 170.76 128.51 170.98 129.71 171.86 130.30 Z M 172.55 130.76 L 173.30 131.38 C 174.12 132.05 175.33 131.94 176.00 131.12 C 176.67 130.30 176.56 129.09 175.74 128.42 L 174.99 127.80 C 174.17 127.13 172.96 127.24 172.29 128.06 C 171.62 128.88 171.73 130.09 172.55 130.76 Z M 173.11 131.20 L 173.76 131.90 C 174.48 132.68 175.69 132.73 176.47 132.01 C 177.25 131.29 177.30 130.08 176.58 129.30 L 175.93 128.60 C 175.21 127.82 174.00 127.77 173.22 128.49 C 172.44 129.21 172.39 130.42 173.11 131.20 Z M 173.56 131.66 L 174.10 132.47 C 174.68 133.36 175.88 133.60 176.76 133.01 C 177.65 132.43 177.89 131.24 177.31 130.35 L 176.77 129.54 C 176.19 128.66 175.00 128.41 174.11 129.00 C 173.22 129.58 172.98 130.77 173.56 131.66 Z M 173.94 132.19 L 174.35 133.11 C 174.78 134.08 175.92 134.52 176.89 134.09 C 177.86 133.66 178.30 132.53 177.87 131.56 L 177.46 130.64 C 177.03 129.66 175.90 129.22 174.93 129.65 C 173.96 130.08 173.52 131.22 173.94 132.19 Z M 174.25 132.82 L 174.51 133.81 C 174.77 134.84 175.82 135.45 176.85 135.19 C 177.88 134.92 178.49 133.87 178.23 132.84 L 177.97 131.85 C 177.70 130.82 176.66 130.21 175.63 130.47 C 174.60 130.74 173.98 131.79 174.25 132.82 Z M 174.46 133.54 L 174.57 134.52 C 174.69 135.57 175.64 136.33 176.69 136.21 C 177.74 136.09 178.50 135.14 178.38 134.09 L 178.27 133.11 C 178.16 132.06 177.21 131.30 176.15 131.42 C 175.10 131.54 174.34 132.49 174.46 133.54 Z M 174.56 134.27 L 174.54 135.28 C 174.52 136.33 175.36 137.21 176.42 137.23 C 177.48 137.25 178.35 136.41 178.37 135.35 L 178.39 134.34 C 178.41 133.28 177.57 132.41 176.52 132.39 C 175.46 132.37 174.58 133.21 174.56 134.27 Z M 174.57 135.01 L 174.41 136.01 C 174.24 137.05 174.95 138.03 175.99 138.20 C 177.03 138.37 178.01 137.66 178.18 136.62 L 178.34 135.62 C 178.51 134.58 177.80 133.60 176.76 133.43 C 175.72 133.26 174.74 133.97 174.57 135.01 Z M 174.48 135.73 L 174.20 136.60 C 173.88 137.60 174.43 138.67 175.43 139.00 C 176.43 139.32 177.50 138.77 177.83 137.77 L 178.11 136.90 C 178.43 135.90 177.88 134.83 176.88 134.50 C 175.88 134.18 174.81 134.73 174.48 135.73 Z M 174.32 136.34 L 173.92 137.14 C 173.46 138.07 173.84 139.21 174.78 139.68 C 175.71 140.14 176.85 139.76 177.32 138.82 L 177.71 138.03 C 178.18 137.09 177.79 135.95 176.86 135.49 C 175.92 135.02 174.78 135.40 174.32 136.34 Z M 174.04 136.94 L 173.51 137.75 C 172.94 138.61 173.18 139.78 174.05 140.36 C 174.92 140.93 176.09 140.69 176.66 139.82 L 177.19 139.02 C 177.77 138.15 177.53 136.98 176.66 136.40 C 175.79 135.83 174.62 136.07 174.04 136.94 Z M 173.62 137.62 L 172.94 138.47 C 172.29 139.28 172.43 140.46 173.24 141.11 C 174.05 141.75 175.23 141.62 175.87 140.81 L 176.55 139.95 C 177.20 139.14 177.07 137.96 176.26 137.32 C 175.45 136.67 174.27 136.80 173.62 137.62 Z M 173.01 138.40 L 172.28 139.22 C 171.59 139.99 171.66 141.17 172.43 141.85 C 173.20 142.54 174.38 142.47 175.07 141.70 L 175.80 140.88 C 176.49 140.11 176.42 138.93 175.65 138.24 C 174.88 137.56 173.70 137.63 173.01 138.40 Z M 172.32 139.18 L 171.68 139.86 C 170.97 140.61 171.01 141.79 171.75 142.49 C 172.50 143.20 173.68 143.17 174.39 142.42 L 175.03 141.74 C 175.73 140.99 175.70 139.81 174.95 139.11 C 174.21 138.40 173.03 138.44 172.32 139.18 Z M 171.71 139.84 L 171.01 140.55 C 170.29 141.28 170.30 142.46 171.04 143.18 C 171.77 143.89 172.94 143.88 173.66 143.15 L 174.36 142.44 C 175.08 141.71 175.06 140.53 174.33 139.82 C 173.60 139.10 172.42 139.11 171.71 139.84 Z M 171.03 140.53 L 170.30 141.26 C 169.57 141.98 169.57 143.15 170.29 143.88 C 171.00 144.60 172.18 144.61 172.90 143.89 L 173.64 143.17 C 174.36 142.45 174.37 141.28 173.65 140.55 C 172.93 139.82 171.76 139.81 171.03 140.53 Z M 170.32 141.24 L 169.57 141.97 C 168.83 142.67 168.81 143.84 169.52 144.58 C 170.22 145.31 171.39 145.34 172.13 144.63 L 172.88 143.91 C 173.62 143.20 173.64 142.03 172.94 141.30 C 172.23 140.56 171.06 140.54 170.32 141.24 Z M 169.59 141.95 L 168.84 142.66 C 168.09 143.35 168.05 144.52 168.75 145.26 C 169.44 146.01 170.61 146.05 171.35 145.35 L 172.11 144.64 C 172.85 143.95 172.89 142.78 172.20 142.04 C 171.50 141.30 170.33 141.26 169.59 141.95 Z M 168.86 142.65 L 168.11 143.32 C 167.36 144.01 167.31 145.17 167.99 145.92 C 168.67 146.67 169.84 146.73 170.59 146.04 L 171.33 145.36 C 172.08 144.68 172.14 143.52 171.45 142.77 C 170.77 142.02 169.61 141.96 168.86 142.65 Z M 168.14 143.31 L 167.31 144.04 C 166.56 144.71 166.48 145.87 167.16 146.62 C 167.83 147.38 168.98 147.45 169.74 146.78 L 170.56 146.06 C 171.32 145.39 171.39 144.23 170.72 143.47 C 170.05 142.71 168.89 142.64 168.14 143.31 Z M 167.34 144.02 L 166.55 144.70 C 165.79 145.36 165.70 146.51 166.35 147.27 C 167.01 148.04 168.16 148.13 168.93 147.47 L 169.72 146.80 C 170.48 146.14 170.57 144.99 169.91 144.22 C 169.26 143.46 168.11 143.37 167.34 144.02 Z M 166.58 144.69 L 165.81 145.32 C 165.04 145.97 164.94 147.11 165.58 147.89 C 166.22 148.66 167.37 148.76 168.14 148.12 L 168.90 147.48 C 169.68 146.84 169.78 145.69 169.14 144.92 C 168.49 144.15 167.35 144.05 166.58 144.69 Z M 165.83 145.31 L 165.09 145.92 C 164.31 146.55 164.19 147.69 164.83 148.47 C 165.46 149.25 166.60 149.36 167.38 148.73 L 168.12 148.13 C 168.90 147.50 169.01 146.35 168.38 145.58 C 167.75 144.80 166.61 144.68 165.83 145.31 Z M 165.11 145.91 L 164.37 146.50 C 163.59 147.12 163.46 148.26 164.09 149.04 C 164.71 149.82 165.84 149.95 166.62 149.32 L 167.36 148.74 C 168.14 148.12 168.27 146.98 167.64 146.20 C 167.02 145.42 165.89 145.29 165.11 145.91 Z M 164.38 146.50 L 163.62 147.10 C 162.84 147.71 162.71 148.85 163.32 149.63 C 163.94 150.41 165.07 150.54 165.85 149.93 L 166.61 149.33 C 167.39 148.71 167.53 147.58 166.91 146.80 C 166.30 146.02 165.17 145.88 164.38 146.50 Z M 163.63 147.10 L 162.84 147.71 C 162.06 148.32 161.92 149.45 162.53 150.23 C 163.14 151.02 164.27 151.16 165.05 150.55 L 165.84 149.93 C 166.62 149.32 166.76 148.19 166.15 147.41 C 165.54 146.63 164.41 146.49 163.63 147.10 Z M 162.85 147.71 L 162.06 148.32 C 161.27 148.92 161.13 150.05 161.73 150.83 C 162.34 151.62 163.46 151.77 164.25 151.16 L 165.04 150.55 C 165.83 149.95 165.97 148.82 165.37 148.03 C 164.76 147.25 163.64 147.10 162.85 147.71 Z M 162.07 148.31 L 161.27 148.92 C 160.49 149.51 160.33 150.64 160.93 151.43 C 161.53 152.22 162.65 152.37 163.44 151.77 L 164.24 151.17 C 165.03 150.57 165.18 149.44 164.58 148.65 C 163.98 147.87 162.86 147.71 162.07 148.31 Z M 161.29 148.91 L 160.49 149.51 C 159.69 150.10 159.53 151.22 160.13 152.01 C 160.72 152.80 161.84 152.97 162.63 152.37 L 163.43 151.78 C 164.22 151.18 164.38 150.06 163.79 149.27 C 163.20 148.48 162.08 148.32 161.29 148.91 Z M 160.50 149.50 L 159.69 150.10 C 158.89 150.68 158.72 151.80 159.31 152.60 C 159.89 153.39 161.01 153.56 161.81 152.98 L 162.62 152.38 C 163.41 151.80 163.58 150.68 163.00 149.88 C 162.41 149.09 161.29 148.91 160.50 149.50 Z M 159.70 150.09 L 158.88 150.69 C 158.08 151.27 157.90 152.38 158.48 153.18 C 159.05 153.98 160.17 154.16 160.97 153.58 L 161.79 152.98 C 162.59 152.41 162.77 151.29 162.19 150.49 C 161.62 149.69 160.50 149.51 159.70 150.09 Z M 158.89 150.68 L 158.06 151.27 C 157.26 151.84 157.07 152.95 157.65 153.76 C 158.22 154.56 159.33 154.74 160.13 154.17 L 160.96 153.59 C 161.76 153.02 161.95 151.90 161.37 151.10 C 160.80 150.30 159.69 150.11 158.89 150.68 Z M 158.07 151.26 L 157.26 151.84 C 156.45 152.40 156.26 153.51 156.82 154.32 C 157.39 155.12 158.50 155.32 159.30 154.75 L 160.12 154.18 C 160.93 153.61 161.12 152.50 160.56 151.70 C 159.99 150.89 158.88 150.70 158.07 151.26 Z M 157.27 151.83 L 156.46 152.39 C 155.66 152.95 155.45 154.06 156.01 154.87 C 156.57 155.67 157.68 155.87 158.49 155.32 L 159.29 154.76 C 160.10 154.20 160.30 153.09 159.74 152.28 C 159.18 151.47 158.07 151.27 157.27 151.83 Z M 156.47 152.39 L 155.64 152.96 C 154.83 153.52 154.62 154.62 155.18 155.43 C 155.73 156.24 156.84 156.45 157.65 155.89 L 158.48 155.32 C 159.29 154.76 159.50 153.66 158.94 152.85 C 158.39 152.04 157.28 151.83 156.47 152.39 Z M 155.64 152.95 L 154.79 153.53 C 153.97 154.08 153.76 155.19 154.31 156.00 C 154.87 156.82 155.97 157.03 156.79 156.48 L 157.64 155.90 C 158.45 155.35 158.67 154.24 158.11 153.43 C 157.56 152.61 156.46 152.40 155.64 152.95 Z M 154.79 153.52 L 153.96 154.08 C 153.14 154.63 152.92 155.74 153.47 156.56 C 154.02 157.38 155.13 157.59 155.95 157.05 L 156.78 156.49 C 157.60 155.94 157.82 154.83 157.27 154.01 C 156.72 153.19 155.61 152.98 154.79 153.52 Z M 153.97 154.07 L 153.15 154.61 C 152.33 155.16 152.10 156.27 152.65 157.09 C 153.19 157.91 154.30 158.14 155.12 157.60 L 155.94 157.05 C 156.76 156.51 156.99 155.40 156.44 154.58 C 155.90 153.75 154.79 153.53 153.97 154.07 Z M 153.15 154.61 L 152.35 155.13 C 151.53 155.67 151.29 156.78 151.84 157.61 C 152.38 158.44 153.49 158.67 154.32 158.13 L 155.12 157.60 C 155.95 157.06 156.18 155.95 155.64 155.12 C 155.09 154.29 153.98 154.06 153.15 154.61 Z M 152.36 155.12 L 151.50 155.68 C 150.66 156.22 150.43 157.33 150.97 158.16 C 151.51 159.00 152.62 159.24 153.45 158.70 L 154.31 158.14 C 155.15 157.60 155.39 156.49 154.85 155.65 C 154.31 154.82 153.19 154.58 152.36 155.12 Z M 151.50 155.66 L 150.65 156.20 C 149.81 156.74 149.57 157.86 150.11 158.70 C 150.64 159.54 151.76 159.79 152.60 159.25 L 153.45 158.71 C 154.29 158.17 154.54 157.05 154.00 156.21 C 153.46 155.37 152.34 155.13 151.50 155.66 Z M 150.66 156.19 L 149.82 156.72 C 148.97 157.25 148.72 158.37 149.25 159.22 C 149.79 160.07 150.91 160.33 151.76 159.79 L 152.60 159.26 C 153.44 158.73 153.70 157.61 153.17 156.76 C 152.63 155.91 151.51 155.66 150.66 156.19 Z M 149.83 156.70 L 149.00 157.22 C 148.14 157.75 147.88 158.87 148.41 159.73 C 148.94 160.59 150.06 160.85 150.92 160.32 L 151.75 159.81 C 152.61 159.28 152.87 158.15 152.34 157.29 C 151.81 156.44 150.69 156.17 149.83 156.70 Z M 149.00 157.20 L 148.15 157.71 C 147.28 158.24 147.01 159.37 147.53 160.24 C 148.06 161.11 149.20 161.39 150.07 160.86 L 150.92 160.35 C 151.79 159.82 152.06 158.68 151.53 157.81 C 151.00 156.94 149.87 156.67 149.00 157.20 Z M 148.15 157.68 L 147.30 158.19 C 146.41 158.72 146.12 159.87 146.65 160.75 C 147.18 161.64 148.33 161.93 149.21 161.40 L 150.07 160.89 C 150.96 160.37 151.25 159.22 150.72 158.33 C 150.19 157.44 149.04 157.15 148.15 157.68 Z M 147.30 158.16 L 146.43 158.66 C 145.53 159.19 145.22 160.35 145.75 161.26 C 146.28 162.16 147.44 162.47 148.35 161.94 L 149.21 161.44 C 150.12 160.91 150.42 159.74 149.90 158.84 C 149.37 157.93 148.20 157.63 147.30 158.16 Z M 146.43 158.63 L 145.56 159.13 C 144.63 159.66 144.31 160.83 144.84 161.76 C 145.37 162.68 146.55 163.00 147.47 162.48 L 148.35 161.97 C 149.27 161.45 149.59 160.27 149.07 159.34 C 148.54 158.42 147.36 158.10 146.43 158.63 Z M 145.56 159.09 L 144.73 159.55 C 143.79 160.08 143.45 161.27 143.98 162.22 C 144.51 163.16 145.70 163.50 146.64 162.97 L 147.47 162.51 C 148.41 161.98 148.75 160.79 148.22 159.85 C 147.69 158.90 146.50 158.57 145.56 159.09 Z M 144.74 159.52 L 143.89 159.98 C 142.93 160.50 142.57 161.71 143.09 162.67 C 143.62 163.64 144.82 163.99 145.78 163.47 L 146.64 163.01 C 147.60 162.48 147.96 161.28 147.43 160.32 C 146.91 159.35 145.70 159.00 144.74 159.52 Z M 143.90 159.94 L 143.01 160.41 C 142.03 160.92 141.65 162.14 142.17 163.12 C 142.68 164.11 143.90 164.49 144.88 163.97 L 145.77 163.51 C 146.76 162.99 147.14 161.78 146.62 160.79 C 146.11 159.81 144.89 159.43 143.90 159.94 Z M 143.03 160.37 L 142.09 160.84 C 141.09 161.34 140.68 162.57 141.19 163.58 C 141.69 164.58 142.92 164.99 143.93 164.49 L 144.86 164.01 C 145.87 163.51 146.28 162.28 145.77 161.27 C 145.27 160.27 144.04 159.86 143.03 160.37 Z M 142.11 160.78 L 140.98 161.31 C 139.94 161.81 139.50 163.06 140.00 164.10 C 140.50 165.14 141.75 165.58 142.79 165.08 L 143.91 164.55 C 144.95 164.05 145.39 162.80 144.90 161.76 C 144.40 160.72 143.15 160.28 142.11 160.78 Z M 140.96 161.23 L 139.81 161.78 C 138.72 162.29 138.26 163.59 138.77 164.67 C 139.29 165.76 140.58 166.22 141.67 165.71 L 142.82 165.16 C 143.90 164.65 144.37 163.35 143.85 162.27 C 143.34 161.18 142.04 160.72 140.96 161.23 Z M 139.71 161.72 L 138.82 162.17 C 137.71 162.74 137.26 164.11 137.83 165.23 C 138.40 166.34 139.77 166.79 140.88 166.22 L 141.77 165.77 C 142.89 165.20 143.33 163.83 142.76 162.71 C 142.19 161.60 140.82 161.15 139.71 161.72 Z M 138.45 162.29 L 138.05 162.58 C 137.00 163.36 136.78 164.84 137.56 165.89 C 138.33 166.94 139.82 167.16 140.87 166.39 L 141.26 166.10 C 142.31 165.32 142.53 163.84 141.76 162.79 C 140.98 161.74 139.50 161.51 138.45 162.29 Z M 138.97 166.86 L 139.35 166.94 C 140.66 167.21 141.94 166.37 142.21 165.06 C 142.49 163.75 141.65 162.47 140.34 162.19 L 139.96 162.11 C 138.65 161.84 137.36 162.68 137.09 163.99 C 136.82 165.30 137.66 166.58 138.97 166.86 Z M 140.18 166.98 L 141.25 166.83 C 142.58 166.65 143.52 165.42 143.33 164.08 C 143.15 162.75 141.92 161.82 140.58 162.00 L 139.51 162.15 C 138.17 162.33 137.24 163.56 137.43 164.90 C 137.61 166.23 138.84 167.17 140.18 166.98 Z M 141.38 166.83 L 142.73 166.57 C 144.06 166.31 144.93 165.02 144.67 163.69 C 144.42 162.36 143.13 161.49 141.80 161.75 L 140.45 162.01 C 139.12 162.26 138.25 163.55 138.51 164.88 C 138.76 166.21 140.05 167.08 141.38 166.83 Z M 142.77 166.57 L 143.72 166.37 C 145.05 166.09 145.90 164.78 145.62 163.45 C 145.34 162.12 144.04 161.27 142.70 161.55 L 141.76 161.75 C 140.43 162.03 139.57 163.33 139.85 164.66 C 140.13 165.99 141.44 166.85 142.77 166.57 Z M 143.73 166.37 L 144.69 166.16 C 146.01 165.87 146.86 164.56 146.57 163.23 C 146.28 161.90 144.97 161.06 143.64 161.34 L 142.69 161.55 C 141.36 161.84 140.51 163.15 140.80 164.48 C 141.09 165.81 142.40 166.65 143.73 166.37 Z M 144.69 166.16 L 145.67 165.94 C 147.00 165.65 147.84 164.33 147.54 163.00 C 147.25 161.68 145.93 160.84 144.61 161.13 L 143.63 161.35 C 142.30 161.64 141.46 162.95 141.76 164.28 C 142.05 165.61 143.36 166.45 144.69 166.16 Z M 145.67 165.94 L 146.68 165.72 C 148.01 165.43 148.85 164.11 148.56 162.78 C 148.27 161.45 146.95 160.61 145.62 160.91 L 144.61 161.13 C 143.28 161.42 142.44 162.74 142.73 164.06 C 143.02 165.39 144.34 166.24 145.67 165.94 Z M 146.67 165.72 L 147.65 165.51 C 148.98 165.23 149.82 163.91 149.54 162.58 C 149.25 161.25 147.94 160.41 146.61 160.69 L 145.63 160.90 C 144.30 161.19 143.46 162.50 143.74 163.83 C 144.03 165.16 145.34 166.01 146.67 165.72 Z M 147.64 165.51 L 148.61 165.31 C 149.94 165.03 150.79 163.72 150.51 162.39 C 150.23 161.05 148.92 160.20 147.59 160.49 L 146.61 160.69 C 145.28 160.97 144.43 162.28 144.71 163.61 C 145.00 164.95 146.30 165.80 147.64 165.51 Z M 148.61 165.31 L 149.60 165.10 C 150.93 164.82 151.78 163.51 151.51 162.18 C 151.23 160.85 149.92 160.00 148.59 160.28 L 147.59 160.48 C 146.26 160.76 145.41 162.07 145.69 163.40 C 145.97 164.73 147.27 165.59 148.61 165.31 Z M 149.60 165.10 L 150.59 164.89 C 151.92 164.62 152.78 163.31 152.50 161.98 C 152.22 160.64 150.92 159.79 149.59 160.07 L 148.59 160.28 C 147.26 160.55 146.40 161.86 146.68 163.19 C 146.96 164.52 148.26 165.38 149.60 165.10 Z M 150.59 164.89 L 151.57 164.69 C 152.91 164.41 153.76 163.10 153.48 161.77 C 153.20 160.44 151.90 159.59 150.57 159.86 L 149.59 160.07 C 148.25 160.35 147.40 161.65 147.68 162.98 C 147.95 164.32 149.26 165.17 150.59 164.89 Z M 151.58 164.69 L 152.58 164.47 C 153.91 164.20 154.76 162.89 154.48 161.56 C 154.20 160.23 152.90 159.38 151.57 159.65 L 150.56 159.87 C 149.23 160.15 148.38 161.45 148.66 162.78 C 148.94 164.11 150.24 164.97 151.58 164.69 Z M 152.58 164.47 L 153.57 164.26 C 154.90 163.98 155.75 162.68 155.47 161.35 C 155.19 160.02 153.89 159.17 152.56 159.45 L 151.57 159.66 C 150.24 159.94 149.39 161.24 149.67 162.57 C 149.95 163.90 151.25 164.75 152.58 164.47 Z M 153.57 164.26 L 154.54 164.05 C 155.87 163.77 156.72 162.47 156.44 161.14 C 156.16 159.82 154.85 158.97 153.53 159.25 L 152.56 159.45 C 151.23 159.73 150.38 161.04 150.66 162.36 C 150.94 163.69 152.25 164.54 153.57 164.26 Z M 154.54 164.05 L 155.50 163.85 C 156.82 163.57 157.67 162.27 157.39 160.95 C 157.11 159.62 155.81 158.77 154.49 159.05 L 153.53 159.25 C 152.21 159.53 151.36 160.83 151.64 162.15 C 151.91 163.48 153.21 164.33 154.54 164.05 Z M 155.49 163.84 L 156.45 163.65 C 157.77 163.37 158.62 162.08 158.35 160.75 C 158.07 159.43 156.78 158.58 155.46 158.86 L 154.50 159.05 C 153.17 159.33 152.32 160.62 152.60 161.95 C 152.87 163.27 154.17 164.12 155.49 163.84 Z M 156.44 163.64 L 157.40 163.44 C 158.72 163.18 159.57 161.89 159.30 160.57 C 159.03 159.25 157.74 158.40 156.42 158.67 L 155.47 158.86 C 154.15 159.13 153.29 160.42 153.56 161.74 C 153.83 163.06 155.12 163.91 156.44 163.64 Z M 157.38 163.44 L 158.35 163.24 C 159.67 162.98 160.52 161.70 160.26 160.39 C 160.00 159.07 158.72 158.22 157.40 158.48 L 156.43 158.67 C 155.12 158.94 154.26 160.21 154.52 161.53 C 154.79 162.85 156.07 163.70 157.38 163.44 Z M 158.33 163.24 L 159.32 163.05 C 160.63 162.80 161.49 161.53 161.24 160.21 C 160.98 158.90 159.71 158.04 158.40 158.30 L 157.42 158.49 C 156.10 158.74 155.25 160.01 155.50 161.32 C 155.75 162.63 157.02 163.49 158.33 163.24 Z M 159.30 163.04 L 160.30 162.86 C 161.61 162.62 162.48 161.36 162.23 160.05 C 161.99 158.74 160.73 157.87 159.43 158.12 L 158.42 158.30 C 157.11 158.54 156.25 159.80 156.49 161.11 C 156.73 162.42 157.99 163.29 159.30 163.04 Z M 160.28 162.85 L 161.27 162.68 C 162.58 162.45 163.45 161.20 163.22 159.90 C 162.99 158.59 161.74 157.72 160.44 157.95 L 159.45 158.12 C 158.14 158.35 157.27 159.60 157.50 160.90 C 157.73 162.21 158.97 163.08 160.28 162.85 Z M 161.25 162.67 L 162.21 162.51 C 163.51 162.29 164.39 161.06 164.17 159.76 C 163.95 158.45 162.72 157.57 161.42 157.79 L 160.46 157.95 C 159.16 158.17 158.28 159.40 158.49 160.71 C 158.71 162.01 159.94 162.89 161.25 162.67 Z M 162.19 162.51 L 163.17 162.35 C 164.47 162.14 165.35 160.91 165.14 159.61 C 164.93 158.31 163.71 157.43 162.41 157.64 L 161.43 157.80 C 160.13 158.01 159.25 159.23 159.46 160.53 C 159.67 161.83 160.89 162.72 162.19 162.51 Z M 163.16 162.34 L 164.15 162.18 C 165.45 161.98 166.33 160.76 166.13 159.47 C 165.92 158.17 164.70 157.29 163.41 157.49 L 162.42 157.65 C 161.12 157.85 160.24 159.07 160.44 160.37 C 160.65 161.66 161.86 162.55 163.16 162.34 Z M 164.15 162.17 L 165.16 162.02 C 166.45 161.81 167.33 160.60 167.13 159.31 C 166.92 158.02 165.71 157.14 164.42 157.34 L 163.41 157.50 C 162.12 157.70 161.24 158.91 161.44 160.21 C 161.65 161.50 162.86 162.38 164.15 162.17 Z M 165.16 162.01 L 166.17 161.85 C 167.46 161.64 168.34 160.43 168.13 159.15 C 167.93 157.86 166.72 156.99 165.43 157.19 L 164.42 157.35 C 163.13 157.55 162.26 158.76 162.46 160.05 C 162.67 161.33 163.87 162.21 165.16 162.01 Z M 166.18 161.84 L 167.17 161.68 C 168.45 161.47 169.32 160.27 169.11 158.99 C 168.91 157.70 167.70 156.83 166.42 157.04 L 165.43 157.20 C 164.15 157.40 163.28 158.61 163.48 159.89 C 163.69 161.17 164.90 162.04 166.18 161.84 Z M 167.17 161.67 L 168.16 161.51 C 169.44 161.31 170.31 160.10 170.10 158.82 C 169.90 157.55 168.69 156.68 167.41 156.88 L 166.42 157.04 C 165.14 157.25 164.27 158.45 164.48 159.73 C 164.68 161.01 165.89 161.88 167.17 161.67 Z M 168.16 161.51 L 169.15 161.35 C 170.43 161.15 171.30 159.95 171.09 158.67 C 170.89 157.39 169.69 156.52 168.41 156.73 L 167.42 156.89 C 166.14 157.09 165.27 158.29 165.48 159.57 C 165.68 160.84 166.88 161.71 168.16 161.51 Z M 169.14 161.35 L 170.13 161.19 C 171.41 160.99 172.28 159.80 172.08 158.52 C 171.88 157.25 170.68 156.38 169.41 156.58 L 168.42 156.73 C 167.15 156.93 166.28 158.13 166.48 159.40 C 166.68 160.67 167.87 161.55 169.14 161.35 Z M 170.12 161.19 L 171.10 161.04 C 172.37 160.85 173.24 159.66 173.05 158.39 C 172.86 157.12 171.67 156.24 170.40 156.43 L 169.42 156.58 C 168.15 156.77 167.28 157.96 167.47 159.23 C 167.66 160.50 168.85 161.38 170.12 161.19 Z M 171.08 161.03 L 171.99 160.90 C 173.26 160.72 174.14 159.54 173.96 158.27 C 173.77 157.00 172.60 156.12 171.33 156.31 L 170.42 156.44 C 169.15 156.62 168.27 157.80 168.45 159.07 C 168.64 160.34 169.81 161.22 171.08 161.03 Z M 171.98 160.89 L 172.88 160.76 C 174.14 160.59 175.03 159.43 174.85 158.16 C 174.68 156.90 173.51 156.02 172.25 156.19 L 171.35 156.32 C 170.08 156.49 169.20 157.66 169.38 158.92 C 169.55 160.18 170.71 161.06 171.98 160.89 Z M 172.87 160.75 L 173.80 160.63 C 175.06 160.46 175.94 159.31 175.77 158.06 C 175.61 156.80 174.46 155.92 173.20 156.08 L 172.27 156.21 C 171.01 156.37 170.13 157.52 170.29 158.78 C 170.46 160.03 171.61 160.92 172.87 160.75 Z M 173.79 160.62 L 174.77 160.49 C 176.02 160.33 176.90 159.19 176.75 157.94 C 176.59 156.70 175.45 155.81 174.20 155.97 L 173.21 156.09 C 171.96 156.25 171.08 157.39 171.24 158.64 C 171.40 159.89 172.54 160.78 173.79 160.62 Z M 174.76 160.48 L 175.82 160.35 C 177.06 160.20 177.95 159.06 177.79 157.82 C 177.64 156.58 176.51 155.70 175.27 155.85 L 174.21 155.98 C 172.96 156.14 172.08 157.27 172.24 158.51 C 172.39 159.75 173.52 160.63 174.76 160.48 Z M 175.82 160.34 L 176.96 160.20 C 178.20 160.05 179.08 158.92 178.93 157.69 C 178.78 156.45 177.65 155.58 176.42 155.73 L 175.27 155.86 C 174.04 156.01 173.16 157.14 173.31 158.37 C 173.46 159.61 174.58 160.49 175.82 160.34 Z M 176.96 160.18 L 177.94 160.07 C 179.16 159.92 180.04 158.80 179.89 157.58 C 179.74 156.35 178.63 155.47 177.40 155.62 L 176.42 155.74 C 175.20 155.89 174.32 157.00 174.47 158.23 C 174.62 159.46 175.73 160.33 176.96 160.18 Z M 177.93 160.05 L 178.96 159.93 C 180.18 159.78 181.05 158.68 180.90 157.46 C 180.76 156.24 179.65 155.37 178.43 155.51 L 177.41 155.64 C 176.19 155.78 175.32 156.89 175.46 158.11 C 175.61 159.33 176.71 160.20 177.93 160.05 Z M 178.96 159.91 L 180.01 159.79 C 181.22 159.64 182.09 158.55 181.94 157.33 C 181.80 156.12 180.70 155.26 179.49 155.40 L 178.44 155.53 C 177.22 155.67 176.36 156.77 176.50 157.98 C 176.65 159.19 177.75 160.06 178.96 159.91 Z M 180.01 159.77 L 181.06 159.65 C 182.26 159.51 183.12 158.42 182.98 157.21 C 182.84 156.01 181.75 155.15 180.54 155.29 L 179.49 155.42 C 178.29 155.56 177.43 156.65 177.57 157.85 C 177.71 159.06 178.80 159.92 180.01 159.77 Z M 181.05 159.64 L 182.08 159.52 C 183.28 159.37 184.13 158.29 183.99 157.10 C 183.85 155.90 182.77 155.04 181.57 155.19 L 180.55 155.31 C 179.35 155.45 178.49 156.53 178.63 157.73 C 178.78 158.92 179.86 159.78 181.05 159.64 Z M 182.08 159.50 L 183.05 159.39 C 184.24 159.25 185.09 158.17 184.95 156.99 C 184.82 155.80 183.74 154.95 182.55 155.09 L 181.58 155.20 C 180.39 155.34 179.54 156.41 179.68 157.60 C 179.81 158.79 180.89 159.64 182.08 159.50 Z M 183.05 159.37 L 183.95 159.27 C 185.13 159.13 185.98 158.07 185.84 156.89 C 185.71 155.71 184.64 154.86 183.46 155.00 L 182.56 155.10 C 181.38 155.24 180.53 156.30 180.67 157.48 C 180.80 158.66 181.87 159.51 183.05 159.37 Z M 183.95 159.23 L 185.31 159.07 C 186.47 158.94 187.30 157.89 187.17 156.74 C 187.03 155.58 185.99 154.75 184.83 154.88 L 183.47 155.03 C 182.31 155.17 181.48 156.21 181.61 157.37 C 181.74 158.53 182.79 159.36 183.95 159.23 Z M 185.34 158.99 L 186.58 158.82 C 187.69 158.67 188.47 157.64 188.31 156.53 C 188.16 155.42 187.14 154.64 186.03 154.79 L 184.79 154.96 C 183.68 155.12 182.90 156.14 183.06 157.25 C 183.21 158.36 184.23 159.14 185.34 158.99 Z M 186.83 158.67 L 187.50 158.48 C 188.53 158.18 189.13 157.11 188.83 156.09 C 188.54 155.06 187.47 154.46 186.44 154.75 L 185.77 154.95 C 184.75 155.24 184.15 156.31 184.44 157.34 C 184.73 158.36 185.80 158.96 186.83 158.67 Z M 188.75 157.10 L 188.83 156.79 C 189.10 155.81 188.52 154.80 187.54 154.53 C 186.56 154.26 185.55 154.84 185.28 155.82 L 185.20 156.13 C 184.93 157.11 185.51 158.13 186.49 158.39 C 187.47 158.66 188.48 158.08 188.75 157.10 Z M 188.14 154.92 L 187.47 154.40 C 186.71 153.80 185.60 153.93 185.01 154.70 C 184.41 155.46 184.54 156.57 185.30 157.17 L 185.97 157.69 C 186.74 158.29 187.84 158.16 188.44 157.39 C 189.04 156.63 188.91 155.52 188.14 154.92 Z M 187.20 154.31 L 186.08 153.69 C 185.27 153.25 184.25 153.54 183.80 154.36 C 183.35 155.17 183.65 156.19 184.46 156.64 L 185.58 157.26 C 186.39 157.70 187.41 157.41 187.86 156.60 C 188.31 155.78 188.01 154.76 187.20 154.31 Z M 186.03 153.72 L 185.95 153.67 C 185.14 153.25 184.15 153.56 183.73 154.36 C 183.31 155.16 183.62 156.15 184.42 156.57 L 184.51 156.62 C 185.31 157.04 186.30 156.73 186.72 155.93 C 187.14 155.13 186.84 154.14 186.03 153.72 Z"
      fill="black"
      fill-rule="nonzero" /><path d="M 161.91 136.43 L 161.94 137.39 C 161.99 138.68 163.07 139.68 164.36 139.64 C 165.65 139.60 166.65 138.52 166.61 137.23 L 166.58 136.27 C 166.54 134.98 165.46 133.97 164.17 134.02 C 162.88 134.06 161.87 135.14 161.91 136.43 Z M 161.93 137.39 L 161.97 138.36 C 162.01 139.65 163.10 140.67 164.39 140.62 C 165.69 140.58 166.70 139.49 166.66 138.20 L 166.62 137.23 C 166.58 135.93 165.49 134.92 164.20 134.96 C 162.90 135.01 161.89 136.09 161.93 137.39 Z M 161.96 138.36 L 161.99 139.36 C 162.04 140.66 163.13 141.67 164.43 141.62 C 165.73 141.58 166.75 140.48 166.70 139.18 L 166.67 138.19 C 166.62 136.89 165.53 135.88 164.23 135.92 C 162.93 135.97 161.91 137.06 161.96 138.36 Z M 161.98 139.36 L 162.02 140.39 C 162.08 141.69 163.18 142.71 164.48 142.66 C 165.79 142.61 166.80 141.51 166.75 140.20 L 166.71 139.18 C 166.66 137.87 165.56 136.85 164.25 136.90 C 162.95 136.96 161.93 138.06 161.98 139.36 Z M 162.02 140.40 L 162.06 141.44 C 162.12 142.75 163.22 143.77 164.53 143.71 C 165.85 143.66 166.86 142.55 166.81 141.24 L 166.76 140.19 C 166.71 138.88 165.60 137.86 164.29 137.92 C 162.98 137.98 161.96 139.08 162.02 140.40 Z M 162.06 141.45 L 162.10 142.43 C 162.16 143.74 163.28 144.76 164.59 144.69 C 165.90 144.63 166.91 143.52 166.85 142.21 L 166.81 141.23 C 166.75 139.92 165.64 138.90 164.32 138.96 C 163.01 139.03 162.00 140.14 162.06 141.45 Z M 162.11 142.43 L 162.16 143.44 C 162.22 144.75 163.33 145.76 164.64 145.70 C 165.95 145.63 166.96 144.52 166.90 143.21 L 166.85 142.21 C 166.79 140.90 165.67 139.89 164.36 139.95 C 163.06 140.01 162.05 141.12 162.11 142.43 Z M 162.16 143.44 L 162.21 144.46 C 162.27 145.76 163.38 146.77 164.69 146.71 C 166.00 146.64 167.00 145.53 166.94 144.23 L 166.89 143.21 C 166.83 141.90 165.72 140.90 164.41 140.96 C 163.11 141.02 162.10 142.13 162.16 143.44 Z M 162.21 144.45 L 162.26 145.47 C 162.32 146.77 163.43 147.78 164.74 147.71 C 166.04 147.65 167.05 146.54 166.99 145.24 L 166.94 144.23 C 166.87 142.92 165.77 141.92 164.46 141.98 C 163.16 142.04 162.15 143.15 162.21 144.45 Z M 162.27 145.46 L 162.31 146.46 C 162.37 147.76 163.48 148.76 164.78 148.70 C 166.08 148.65 167.09 147.54 167.03 146.24 L 166.98 145.24 C 166.92 143.94 165.82 142.94 164.52 143.00 C 163.21 143.06 162.21 144.16 162.27 145.46 Z M 162.32 146.45 L 162.36 147.48 C 162.42 148.78 163.52 149.78 164.81 149.73 C 166.11 149.67 167.12 148.58 167.06 147.28 L 167.02 146.25 C 166.96 144.95 165.87 143.94 164.57 144.00 C 163.27 144.05 162.27 145.15 162.32 146.45 Z M 162.38 147.47 L 162.42 148.50 C 162.47 149.78 163.55 150.79 164.84 150.74 C 166.13 150.69 167.14 149.61 167.09 148.32 L 167.05 147.29 C 167.00 146.00 165.91 145.00 164.62 145.05 C 163.34 145.10 162.33 146.18 162.38 147.47 Z M 162.43 148.48 L 162.47 149.48 C 162.51 150.76 163.58 151.76 164.86 151.72 C 166.14 151.68 167.15 150.61 167.10 149.33 L 167.07 148.33 C 167.03 147.05 165.96 146.05 164.68 146.09 C 163.40 146.13 162.39 147.20 162.43 148.48 Z M 162.48 149.47 L 162.51 150.44 C 162.55 151.71 163.60 152.72 164.87 152.68 C 166.15 152.65 167.15 151.59 167.11 150.32 L 167.09 149.34 C 167.05 148.07 165.99 147.07 164.72 147.10 C 163.45 147.14 162.45 148.19 162.48 149.47 Z M 162.53 150.43 L 162.55 151.39 C 162.57 152.66 163.62 153.66 164.88 153.63 C 166.14 153.60 167.14 152.56 167.12 151.30 L 167.10 150.33 C 167.07 149.07 166.03 148.07 164.76 148.10 C 163.50 148.12 162.50 149.17 162.53 150.43 Z M 162.57 151.38 L 162.58 152.32 C 162.60 153.57 163.63 154.57 164.88 154.55 C 166.13 154.53 167.13 153.50 167.11 152.25 L 167.10 151.31 C 167.08 150.06 166.05 149.06 164.80 149.08 C 163.55 149.10 162.55 150.13 162.57 151.38 Z M 162.60 152.31 L 162.61 153.25 C 162.62 154.49 163.64 155.49 164.88 155.47 C 166.12 155.46 167.12 154.44 167.10 153.20 L 167.09 152.26 C 167.08 151.02 166.06 150.03 164.82 150.04 C 163.58 150.05 162.59 151.07 162.60 152.31 Z M 162.63 153.25 L 162.64 154.22 C 162.66 155.45 163.66 156.44 164.89 156.42 C 166.12 156.41 167.10 155.40 167.09 154.18 L 167.08 153.20 C 167.07 151.98 166.06 150.99 164.83 151.00 C 163.60 151.02 162.62 152.02 162.63 153.25 Z M 162.66 154.23 L 162.68 155.25 C 162.70 156.46 163.70 157.43 164.91 157.42 C 166.13 157.40 167.10 156.40 167.08 155.18 L 167.07 154.17 C 167.05 152.95 166.05 151.98 164.84 152.00 C 163.62 152.01 162.65 153.01 162.66 154.23 Z M 162.70 155.26 L 162.72 156.33 C 162.75 157.54 163.74 158.50 164.95 158.47 C 166.15 158.45 167.11 157.45 167.08 156.25 L 167.06 155.17 C 167.04 153.97 166.04 153.01 164.84 153.03 C 163.63 153.06 162.68 154.05 162.70 155.26 Z M 162.74 156.35 L 162.77 157.39 C 162.80 158.58 163.80 159.52 164.99 159.49 C 166.18 159.46 167.12 158.46 167.09 157.27 L 167.06 156.23 C 167.03 155.04 166.04 154.10 164.84 154.13 C 163.65 154.16 162.71 155.16 162.74 156.35 Z M 162.80 157.40 L 162.83 158.43 C 162.87 159.60 163.86 160.53 165.04 160.49 C 166.21 160.45 167.14 159.46 167.10 158.28 L 167.06 157.26 C 167.03 156.08 166.04 155.16 164.86 155.20 C 163.68 155.24 162.76 156.22 162.80 157.40 Z M 162.86 158.43 L 162.90 159.48 C 162.94 160.64 163.92 161.55 165.08 161.50 C 166.25 161.46 167.16 160.48 167.11 159.32 L 167.07 158.28 C 167.03 157.11 166.05 156.20 164.89 156.25 C 163.72 156.29 162.81 157.27 162.86 158.43 Z M 162.92 159.48 L 162.96 160.51 C 163.01 161.67 163.98 162.56 165.13 162.51 C 166.28 162.47 167.17 161.50 167.13 160.35 L 167.09 159.31 C 167.04 158.16 166.07 157.27 164.92 157.31 C 163.77 157.36 162.87 158.33 162.92 159.48 Z M 162.99 160.52 L 163.03 161.52 C 163.08 162.66 164.04 163.54 165.18 163.49 C 166.31 163.44 167.19 162.48 167.15 161.34 L 167.10 160.34 C 167.05 159.21 166.09 158.32 164.96 158.37 C 163.82 158.42 162.94 159.38 162.99 160.52 Z M 163.06 161.52 L 163.10 162.46 C 163.15 163.59 164.10 164.46 165.22 164.41 C 166.34 164.36 167.21 163.41 167.16 162.29 L 167.12 161.34 C 167.07 160.22 166.12 159.35 165.00 159.40 C 163.88 159.45 163.01 160.40 163.06 161.52 Z M 163.13 162.46 L 163.18 163.54 C 163.23 164.64 164.16 165.50 165.27 165.45 C 166.37 165.40 167.22 164.47 167.18 163.36 L 167.13 162.29 C 167.08 161.18 166.14 160.33 165.04 160.38 C 163.94 160.43 163.08 161.36 163.13 162.46 Z M 163.23 163.54 L 163.28 164.61 C 163.33 165.69 164.24 166.52 165.32 166.47 C 166.40 166.42 167.23 165.50 167.18 164.43 L 167.13 163.36 C 167.07 162.28 166.16 161.45 165.08 161.50 C 164.01 161.55 163.18 162.47 163.23 163.54 Z M 163.33 164.63 L 163.39 165.59 C 163.45 166.63 164.35 167.43 165.39 167.37 C 166.44 167.31 167.24 166.41 167.18 165.37 L 167.12 164.41 C 167.06 163.36 166.16 162.57 165.12 162.63 C 164.07 162.69 163.27 163.58 163.33 164.63 Z M 163.45 165.62 L 163.52 166.52 C 163.59 167.54 164.48 168.30 165.49 168.22 C 166.51 168.14 167.27 167.26 167.19 166.24 L 167.12 165.34 C 167.04 164.33 166.16 163.57 165.14 163.64 C 164.13 163.72 163.37 164.61 163.45 165.62 Z M 163.57 166.56 L 163.66 167.49 C 163.76 168.48 164.64 169.20 165.63 169.10 C 166.61 169.00 167.33 168.12 167.23 167.14 L 167.14 166.20 C 167.04 165.22 166.16 164.50 165.17 164.60 C 164.19 164.70 163.47 165.58 163.57 166.56 Z M 163.70 167.53 L 163.82 168.52 C 163.94 169.48 164.81 170.17 165.78 170.05 C 166.74 169.94 167.43 169.06 167.31 168.10 L 167.19 167.10 C 167.07 166.14 166.20 165.45 165.23 165.57 C 164.27 165.69 163.58 166.56 163.70 167.53 Z M 163.85 168.53 L 163.98 169.53 C 164.10 170.48 164.97 171.15 165.92 171.03 C 166.86 170.91 167.53 170.04 167.41 169.09 L 167.28 168.09 C 167.16 167.14 166.30 166.47 165.35 166.59 C 164.40 166.71 163.73 167.58 163.85 168.53 Z M 164.00 169.52 L 164.12 170.51 C 164.24 171.45 165.09 172.11 166.02 172.00 C 166.96 171.88 167.62 171.03 167.51 170.10 L 167.39 169.11 C 167.27 168.17 166.42 167.50 165.49 167.62 C 164.55 167.73 163.89 168.58 164.00 169.52 Z M 164.14 170.47 L 164.24 171.48 C 164.33 172.41 165.16 173.08 166.08 172.99 C 167.01 172.90 167.68 172.07 167.59 171.15 L 167.49 170.14 C 167.40 169.21 166.57 168.54 165.65 168.63 C 164.72 168.72 164.05 169.55 164.14 170.47 Z M 164.25 171.44 L 164.33 172.45 C 164.40 173.36 165.20 174.05 166.11 173.99 C 167.03 173.92 167.72 173.12 167.65 172.20 L 167.58 171.19 C 167.51 170.27 166.71 169.58 165.79 169.65 C 164.87 169.72 164.18 170.52 164.25 171.44 Z M 164.34 172.41 L 164.39 173.40 C 164.44 174.32 165.22 175.01 166.14 174.96 C 167.05 174.91 167.75 174.13 167.70 173.22 L 167.65 172.23 C 167.59 171.32 166.81 170.62 165.90 170.67 C 164.99 170.72 164.29 171.50 164.34 172.41 Z M 164.40 173.39 L 164.45 174.36 C 164.49 175.27 165.26 175.97 166.17 175.93 C 167.07 175.89 167.77 175.12 167.73 174.21 L 167.69 173.24 C 167.65 172.33 166.88 171.63 165.97 171.67 C 165.06 171.71 164.36 172.48 164.40 173.39 Z M 164.45 174.36 L 164.46 174.43 C 164.50 175.33 165.26 176.03 166.16 175.99 C 167.07 175.95 167.77 175.19 167.73 174.28 L 167.73 174.22 C 167.69 173.31 166.92 172.61 166.02 172.65 C 165.12 172.69 164.41 173.46 164.45 174.36 Z"
      fill="black"
      fill-rule="nonzero" /><path d="M 148.10 176.46 L 148.07 177.47 C 148.04 178.56 148.91 179.48 150.00 179.51 C 151.10 179.54 152.01 178.67 152.04 177.57 L 152.07 176.56 C 152.10 175.46 151.23 174.55 150.14 174.52 C 149.04 174.49 148.13 175.36 148.10 176.46 Z M 148.06 177.49 L 148.04 178.50 C 148.02 179.60 148.91 180.51 150.01 180.53 C 151.11 180.55 152.02 179.66 152.04 178.56 L 152.06 177.55 C 152.07 176.45 151.19 175.54 150.09 175.52 C 148.98 175.50 148.07 176.38 148.06 177.49 Z M 148.03 178.54 L 148.04 179.55 C 148.04 180.66 148.95 181.55 150.06 181.54 C 151.17 181.54 152.07 180.63 152.06 179.52 L 152.05 178.52 C 152.05 177.40 151.14 176.51 150.03 176.52 C 148.92 176.52 148.02 177.43 148.03 178.54 Z M 148.02 179.61 L 148.06 180.61 C 148.11 181.73 149.05 182.60 150.17 182.55 C 151.29 182.50 152.16 181.56 152.11 180.44 L 152.07 179.45 C 152.03 178.33 151.08 177.46 149.96 177.51 C 148.85 177.55 147.98 178.50 148.02 179.61 Z M 148.06 180.70 L 148.14 181.68 C 148.24 182.81 149.23 183.64 150.35 183.54 C 151.47 183.44 152.30 182.45 152.20 181.33 L 152.12 180.35 C 152.02 179.23 151.03 178.40 149.91 178.50 C 148.79 178.59 147.96 179.58 148.06 180.70 Z M 148.15 181.80 L 148.29 182.76 C 148.45 183.88 149.49 184.65 150.61 184.49 C 151.72 184.33 152.50 183.29 152.34 182.17 L 152.20 181.21 C 152.03 180.10 151.00 179.32 149.88 179.49 C 148.76 179.65 147.99 180.68 148.15 181.80 Z M 148.32 182.87 L 148.51 183.82 C 148.73 184.92 149.80 185.64 150.91 185.41 C 152.01 185.19 152.72 184.12 152.50 183.01 L 152.31 182.06 C 152.09 180.96 151.01 180.25 149.91 180.47 C 148.81 180.69 148.09 181.77 148.32 182.87 Z M 148.54 183.90 L 148.77 184.85 C 149.04 185.94 150.14 186.60 151.23 186.34 C 152.31 186.07 152.98 184.97 152.71 183.88 L 152.47 182.93 C 152.20 181.84 151.10 181.18 150.02 181.45 C 148.93 181.72 148.27 182.82 148.54 183.90 Z M 148.79 184.91 L 149.06 185.87 C 149.37 186.95 150.48 187.58 151.55 187.27 C 152.63 186.97 153.26 185.86 152.95 184.79 L 152.68 183.82 C 152.38 182.75 151.27 182.12 150.20 182.42 C 149.12 182.72 148.49 183.84 148.79 184.91 Z M 149.08 185.91 L 149.38 186.89 C 149.70 187.96 150.82 188.56 151.88 188.24 C 152.95 187.93 153.55 186.80 153.23 185.74 L 152.94 184.75 C 152.62 183.69 151.50 183.09 150.43 183.40 C 149.37 183.72 148.76 184.84 149.08 185.91 Z M 149.39 186.90 L 149.69 187.89 C 150.02 188.95 151.13 189.55 152.19 189.22 C 153.25 188.90 153.85 187.78 153.52 186.72 L 153.22 185.73 C 152.90 184.67 151.78 184.08 150.72 184.40 C 149.66 184.73 149.07 185.84 149.39 186.90 Z M 149.70 187.89 L 149.99 188.84 C 150.31 189.90 151.43 190.49 152.48 190.17 C 153.54 189.85 154.13 188.73 153.81 187.67 L 153.52 186.72 C 153.20 185.67 152.08 185.07 151.02 185.40 C 149.97 185.72 149.37 186.84 149.70 187.89 Z M 149.99 188.85 L 150.29 189.81 C 150.61 190.87 151.73 191.46 152.78 191.13 C 153.84 190.81 154.43 189.69 154.10 188.64 L 153.81 187.67 C 153.48 186.62 152.36 186.02 151.31 186.35 C 150.26 186.67 149.66 187.79 149.99 188.85 Z M 150.29 189.82 L 150.59 190.79 C 150.92 191.85 152.04 192.43 153.10 192.10 C 154.15 191.77 154.74 190.65 154.41 189.60 L 154.10 188.63 C 153.77 187.57 152.65 186.99 151.60 187.32 C 150.55 187.65 149.96 188.77 150.29 189.82 Z M 150.60 190.81 L 150.91 191.77 C 151.25 192.82 152.37 193.40 153.42 193.06 C 154.47 192.72 155.05 191.60 154.71 190.55 L 154.40 189.58 C 154.06 188.53 152.94 187.96 151.89 188.30 C 150.84 188.63 150.26 189.76 150.60 190.81 Z M 150.92 191.79 L 151.24 192.74 C 151.59 193.78 152.72 194.34 153.76 193.99 C 154.81 193.64 155.37 192.51 155.02 191.47 L 154.70 190.52 C 154.35 189.48 153.22 188.92 152.18 189.27 C 151.13 189.62 150.57 190.75 150.92 191.79 Z M 151.25 192.77 L 151.59 193.71 C 151.95 194.75 153.09 195.29 154.13 194.93 C 155.16 194.56 155.71 193.42 155.34 192.38 L 155.00 191.44 C 154.64 190.40 153.50 189.86 152.46 190.22 C 151.43 190.59 150.88 191.73 151.25 192.77 Z M 151.61 193.75 L 151.98 194.73 C 152.37 195.75 153.51 196.27 154.53 195.88 C 155.55 195.50 156.07 194.36 155.68 193.33 L 155.31 192.35 C 154.93 191.33 153.79 190.81 152.76 191.20 C 151.74 191.58 151.23 192.72 151.61 193.75 Z M 152.01 194.76 L 152.39 195.70 C 152.79 196.70 153.93 197.19 154.93 196.79 C 155.94 196.39 156.43 195.25 156.03 194.25 L 155.65 193.31 C 155.25 192.30 154.11 191.81 153.11 192.21 C 152.10 192.61 151.61 193.75 152.01 194.76 Z M 152.42 195.71 L 152.79 196.62 C 153.20 197.61 154.34 198.08 155.33 197.67 C 156.32 197.26 156.79 196.13 156.38 195.14 L 156.00 194.23 C 155.59 193.24 154.45 192.77 153.46 193.18 C 152.47 193.59 152.00 194.73 152.42 195.71 Z M 152.82 196.63 L 153.20 197.52 C 153.61 198.50 154.74 198.95 155.72 198.54 C 156.69 198.12 157.15 196.99 156.73 196.02 L 156.35 195.13 C 155.93 194.15 154.81 193.70 153.83 194.11 C 152.85 194.53 152.40 195.66 152.82 196.63 Z M 153.22 197.52 L 153.57 198.34 C 153.99 199.31 155.11 199.75 156.07 199.33 C 157.04 198.92 157.48 197.80 157.06 196.83 L 156.71 196.01 C 156.29 195.05 155.17 194.61 154.21 195.02 C 153.24 195.44 152.80 196.56 153.22 197.52 Z"
      fill="black"
      fill-rule="nonzero" /><path d="M 153.47 180.87 L 154.28 180.51 C 155.25 180.09 155.69 178.96 155.26 178.00 C 154.84 177.03 153.71 176.59 152.75 177.02 L 151.93 177.38 C 150.97 177.80 150.53 178.93 150.95 179.89 C 151.38 180.86 152.50 181.30 153.47 180.87 Z M 154.20 180.55 L 155.07 180.22 C 156.06 179.84 156.56 178.74 156.18 177.75 C 155.80 176.76 154.70 176.27 153.71 176.64 L 152.84 176.98 C 151.85 177.35 151.35 178.46 151.73 179.45 C 152.11 180.43 153.21 180.93 154.20 180.55 Z M 154.92 180.27 L 155.91 179.99 C 156.93 179.70 157.52 178.64 157.23 177.62 C 156.94 176.60 155.87 176.01 154.86 176.30 L 153.86 176.59 C 152.85 176.88 152.26 177.94 152.55 178.96 C 152.84 179.98 153.90 180.57 154.92 180.27 Z M 155.73 180.04 L 156.83 179.84 C 157.87 179.65 158.56 178.65 158.37 177.60 C 158.18 176.56 157.18 175.87 156.14 176.06 L 155.04 176.26 C 154.00 176.45 153.30 177.45 153.49 178.49 C 153.68 179.54 154.68 180.23 155.73 180.04 Z M 156.68 179.86 L 157.64 179.76 C 158.70 179.65 159.47 178.70 159.36 177.65 C 159.25 176.59 158.30 175.82 157.24 175.93 L 156.29 176.03 C 155.23 176.14 154.46 177.09 154.57 178.15 C 154.68 179.20 155.63 179.97 156.68 179.86 Z M 157.56 179.77 L 158.58 179.71 C 159.64 179.64 160.45 178.73 160.39 177.67 C 160.33 176.61 159.41 175.80 158.35 175.86 L 157.33 175.92 C 156.27 175.99 155.46 176.90 155.52 177.96 C 155.58 179.02 156.50 179.83 157.56 179.77 Z M 158.53 179.71 L 159.57 179.68 C 160.64 179.65 161.47 178.76 161.44 177.69 C 161.41 176.63 160.52 175.79 159.45 175.83 L 158.41 175.86 C 157.34 175.89 156.51 176.78 156.54 177.84 C 156.57 178.91 157.46 179.75 158.53 179.71 Z M 159.54 179.68 L 160.56 179.67 C 161.63 179.66 162.48 178.78 162.47 177.72 C 162.46 176.65 161.58 175.80 160.52 175.81 L 159.49 175.82 C 158.42 175.84 157.57 176.71 157.58 177.78 C 157.60 178.84 158.47 179.70 159.54 179.68 Z M 160.54 179.67 L 161.50 179.67 C 162.57 179.67 163.43 178.80 163.43 177.74 C 163.43 176.67 162.56 175.80 161.50 175.81 L 160.53 175.81 C 159.47 175.81 158.60 176.68 158.61 177.75 C 158.61 178.81 159.48 179.68 160.54 179.67 Z M 161.50 179.67 L 162.66 179.68 C 163.73 179.68 164.59 178.81 164.59 177.74 C 164.59 176.67 163.73 175.80 162.66 175.80 L 161.50 175.80 C 160.43 175.80 159.56 176.67 159.56 177.74 C 159.56 178.81 160.43 179.67 161.50 179.67 Z M 162.65 179.68 L 163.68 179.68 C 164.75 179.69 165.62 178.82 165.62 177.75 C 165.63 176.68 164.76 175.81 163.69 175.80 L 162.66 175.80 C 161.59 175.80 160.72 176.66 160.72 177.73 C 160.71 178.81 161.58 179.68 162.65 179.68 Z M 163.66 179.69 L 164.58 179.70 C 165.66 179.71 166.53 178.84 166.55 177.77 C 166.56 176.70 165.69 175.82 164.62 175.81 L 163.70 175.80 C 162.63 175.79 161.75 176.65 161.74 177.72 C 161.73 178.80 162.59 179.68 163.66 179.69 Z M 164.56 179.70 L 165.44 179.72 C 166.52 179.74 167.41 178.88 167.43 177.81 C 167.45 176.73 166.60 175.84 165.52 175.82 L 164.64 175.80 C 163.56 175.78 162.67 176.64 162.65 177.71 C 162.63 178.79 163.49 179.68 164.56 179.70 Z M 165.41 179.72 L 166.36 179.76 C 167.43 179.80 168.34 178.96 168.39 177.88 C 168.43 176.80 167.59 175.89 166.51 175.85 L 165.56 175.81 C 164.48 175.77 163.57 176.61 163.53 177.69 C 163.49 178.77 164.33 179.68 165.41 179.72 Z M 166.28 179.76 L 167.26 179.84 C 168.34 179.93 169.28 179.12 169.37 178.04 C 169.45 176.96 168.65 176.01 167.57 175.93 L 166.59 175.85 C 165.50 175.76 164.56 176.57 164.47 177.65 C 164.39 178.73 165.20 179.68 166.28 179.76 Z M 167.15 179.84 L 168.19 179.98 C 169.27 180.12 170.26 179.36 170.40 178.29 C 170.55 177.21 169.79 176.21 168.71 176.07 L 167.68 175.93 C 166.60 175.78 165.60 176.54 165.46 177.62 C 165.31 178.70 166.07 179.69 167.15 179.84 Z M 168.07 179.97 L 169.06 180.16 C 170.14 180.37 171.18 179.67 171.39 178.60 C 171.60 177.52 170.90 176.48 169.82 176.27 L 168.83 176.08 C 167.76 175.87 166.72 176.57 166.51 177.64 C 166.30 178.72 167.00 179.76 168.07 179.97 Z M 168.97 180.15 L 169.95 180.40 C 171.02 180.66 172.10 180.01 172.37 178.94 C 172.63 177.87 171.98 176.79 170.91 176.52 L 169.92 176.28 C 168.85 176.02 167.77 176.67 167.51 177.74 C 167.24 178.81 167.90 179.89 168.97 180.15 Z M 169.87 180.39 L 170.85 180.67 C 171.92 180.98 173.03 180.37 173.34 179.30 C 173.65 178.24 173.04 177.12 171.97 176.81 L 170.99 176.53 C 169.92 176.22 168.81 176.84 168.50 177.90 C 168.19 178.97 168.81 180.08 169.87 180.39 Z M 170.78 180.66 L 171.72 180.98 C 172.78 181.33 173.92 180.75 174.27 179.69 C 174.63 178.63 174.05 177.49 172.99 177.14 L 172.05 176.82 C 170.99 176.47 169.85 177.05 169.49 178.11 C 169.14 179.17 169.71 180.31 170.78 180.66 Z M 171.62 180.96 L 172.61 181.34 C 173.66 181.74 174.84 181.22 175.24 180.17 C 175.65 179.12 175.12 177.94 174.08 177.54 L 173.09 177.16 C 172.04 176.75 170.86 177.27 170.45 178.32 C 170.05 179.37 170.57 180.55 171.62 180.96 Z M 172.46 181.29 L 173.37 181.73 C 174.40 182.22 175.62 181.78 176.11 180.76 C 176.60 179.74 176.17 178.51 175.14 178.02 L 174.23 177.59 C 173.20 177.10 171.98 177.53 171.49 178.55 C 171.00 179.58 171.43 180.80 172.46 181.29 Z M 173.16 181.63 L 173.97 182.13 C 174.93 182.74 176.21 182.44 176.81 181.48 C 177.42 180.51 177.13 179.24 176.16 178.63 L 175.36 178.13 C 174.39 177.52 173.11 177.81 172.51 178.78 C 171.90 179.75 172.19 181.02 173.16 181.63 Z M 173.72 181.96 L 174.45 182.59 C 175.32 183.33 176.63 183.22 177.38 182.35 C 178.12 181.47 178.02 180.16 177.14 179.42 L 176.41 178.80 C 175.54 178.05 174.22 178.16 173.48 179.03 C 172.74 179.91 172.84 181.22 173.72 181.96 Z M 174.20 182.35 L 174.85 183.12 C 175.60 184.00 176.92 184.11 177.80 183.36 C 178.68 182.61 178.78 181.30 178.04 180.42 L 177.38 179.65 C 176.64 178.77 175.32 178.66 174.44 179.41 C 173.56 180.16 173.46 181.48 174.20 182.35 Z M 174.64 182.83 L 175.14 183.69 C 175.73 184.69 177.01 185.02 178.01 184.43 C 179.01 183.85 179.34 182.57 178.76 181.57 L 178.25 180.71 C 177.67 179.71 176.38 179.38 175.38 179.96 C 174.39 180.55 174.05 181.83 174.64 182.83 Z M 174.97 183.32 L 175.30 184.26 C 175.69 185.35 176.88 185.92 177.97 185.54 C 179.06 185.16 179.64 183.96 179.26 182.87 L 178.93 181.93 C 178.54 180.84 177.35 180.27 176.26 180.65 C 175.16 181.04 174.59 182.23 174.97 183.32 Z M 175.21 183.81 L 175.33 184.80 C 175.47 185.94 176.50 186.75 177.64 186.62 C 178.78 186.48 179.60 185.45 179.46 184.31 L 179.34 183.32 C 179.21 182.18 178.17 181.36 177.03 181.50 C 175.89 181.64 175.08 182.67 175.21 183.81 Z M 175.36 184.29 L 175.23 185.28 C 175.09 186.40 175.89 187.43 177.01 187.58 C 178.14 187.72 179.17 186.92 179.31 185.80 L 179.44 184.81 C 179.58 183.69 178.78 182.66 177.66 182.51 C 176.53 182.37 175.50 183.17 175.36 184.29 Z M 175.39 184.78 L 175.03 185.65 C 174.61 186.69 175.12 187.87 176.16 188.29 C 177.20 188.71 178.38 188.21 178.80 187.17 L 179.16 186.30 C 179.58 185.26 179.07 184.07 178.03 183.65 C 176.99 183.23 175.81 183.73 175.39 184.78 Z M 175.27 185.26 L 174.76 185.99 C 174.12 186.90 174.35 188.16 175.26 188.79 C 176.17 189.43 177.42 189.20 178.06 188.29 L 178.57 187.56 C 179.21 186.65 178.98 185.39 178.07 184.76 C 177.16 184.12 175.90 184.35 175.27 185.26 Z M 174.98 185.75 L 174.29 186.46 C 173.52 187.25 173.54 188.51 174.33 189.28 C 175.11 190.05 176.37 190.03 177.14 189.24 L 177.84 188.53 C 178.60 187.74 178.59 186.48 177.80 185.71 C 177.01 184.95 175.75 184.96 174.98 185.75 Z M 174.47 186.32 L 173.60 187.04 C 172.75 187.72 172.62 188.97 173.31 189.81 C 174.00 190.65 175.24 190.78 176.09 190.09 L 176.96 189.38 C 177.81 188.69 177.93 187.45 177.24 186.61 C 176.56 185.76 175.31 185.64 174.47 186.32 Z M 173.71 186.96 L 172.90 187.54 C 172.01 188.16 171.80 189.38 172.43 190.27 C 173.05 191.15 174.27 191.36 175.16 190.74 L 175.97 190.17 C 176.85 189.54 177.07 188.32 176.44 187.44 C 175.82 186.55 174.60 186.34 173.71 186.96 Z M 172.97 187.49 L 172.14 188.03 C 171.23 188.61 170.96 189.82 171.55 190.73 C 172.13 191.64 173.34 191.90 174.25 191.32 L 175.08 190.78 C 175.99 190.20 176.25 188.99 175.67 188.08 C 175.09 187.18 173.88 186.91 172.97 187.49 Z M 172.20 188.00 L 171.31 188.52 C 170.39 189.07 170.08 190.27 170.63 191.19 C 171.18 192.12 172.38 192.43 173.30 191.88 L 174.19 191.35 C 175.11 190.80 175.42 189.61 174.87 188.68 C 174.32 187.75 173.12 187.45 172.20 188.00 Z M 171.37 188.49 L 170.47 188.99 C 169.53 189.51 169.18 190.69 169.70 191.63 C 170.22 192.58 171.40 192.92 172.35 192.40 L 173.25 191.91 C 174.19 191.39 174.54 190.20 174.02 189.26 C 173.50 188.32 172.31 187.97 171.37 188.49 Z M 170.52 188.96 L 169.63 189.41 C 168.67 189.90 168.29 191.07 168.78 192.03 C 169.27 192.99 170.44 193.37 171.40 192.88 L 172.29 192.43 C 173.25 191.94 173.63 190.77 173.14 189.81 C 172.65 188.85 171.48 188.47 170.52 188.96 Z M 169.69 189.38 L 168.73 189.83 C 167.76 190.28 167.33 191.44 167.79 192.41 C 168.24 193.39 169.40 193.81 170.37 193.36 L 171.33 192.92 C 172.31 192.46 172.73 191.31 172.28 190.33 C 171.83 189.35 170.67 188.93 169.69 189.38 Z M 168.80 189.79 L 167.86 190.18 C 166.87 190.59 166.40 191.74 166.81 192.73 C 167.22 193.73 168.37 194.20 169.36 193.79 L 170.30 193.40 C 171.30 192.98 171.77 191.84 171.36 190.84 C 170.94 189.85 169.80 189.37 168.80 189.79 Z M 167.93 190.14 L 167.01 190.49 C 166.00 190.86 165.48 191.99 165.86 193.01 C 166.23 194.02 167.36 194.54 168.38 194.16 L 169.30 193.82 C 170.31 193.45 170.83 192.32 170.45 191.30 C 170.08 190.28 168.95 189.77 167.93 190.14 Z M 167.07 190.46 L 166.16 190.76 C 165.13 191.11 164.57 192.22 164.92 193.26 C 165.26 194.29 166.38 194.84 167.41 194.50 L 168.32 194.19 C 169.35 193.85 169.91 192.73 169.56 191.70 C 169.22 190.67 168.10 190.11 167.07 190.46 Z M 166.20 190.74 L 165.26 191.03 C 164.22 191.35 163.63 192.45 163.95 193.50 C 164.27 194.55 165.38 195.13 166.43 194.81 L 167.37 194.52 C 168.41 194.20 169.00 193.09 168.68 192.05 C 168.36 191.00 167.25 190.42 166.20 190.74 Z M 165.29 191.00 L 164.32 191.28 C 163.26 191.58 162.65 192.69 162.95 193.75 C 163.26 194.81 164.36 195.42 165.42 195.12 L 166.39 194.84 C 167.46 194.54 168.07 193.43 167.77 192.37 C 167.46 191.31 166.35 190.69 165.29 191.00 Z M 164.35 191.25 L 163.37 191.51 C 162.30 191.80 161.66 192.91 161.95 193.99 C 162.24 195.07 163.35 195.70 164.43 195.41 L 165.40 195.15 C 166.48 194.85 167.11 193.75 166.82 192.67 C 166.53 191.59 165.42 190.96 164.35 191.25 Z M 163.39 191.49 L 162.42 191.74 C 161.33 192.02 160.68 193.14 160.96 194.23 C 161.25 195.32 162.36 195.97 163.45 195.69 L 164.42 195.44 C 165.51 195.15 166.16 194.04 165.88 192.95 C 165.59 191.85 164.48 191.20 163.39 191.49 Z M 162.43 191.71 L 161.48 191.96 C 160.38 192.24 159.71 193.36 159.99 194.46 C 160.28 195.57 161.40 196.23 162.50 195.95 L 163.45 195.71 C 164.55 195.43 165.22 194.30 164.94 193.20 C 164.65 192.10 163.53 191.43 162.43 191.71 Z M 161.48 191.93 L 160.54 192.17 C 159.43 192.45 158.75 193.59 159.03 194.70 C 159.32 195.82 160.45 196.49 161.57 196.21 L 162.50 195.97 C 163.62 195.69 164.29 194.56 164.01 193.44 C 163.73 192.33 162.59 191.65 161.48 191.93 Z M 160.53 192.15 L 159.59 192.39 C 158.46 192.68 157.78 193.82 158.07 194.95 C 158.35 196.08 159.50 196.76 160.63 196.47 L 161.57 196.23 C 162.70 195.95 163.38 194.80 163.09 193.67 C 162.81 192.54 161.66 191.86 160.53 192.15 Z M 159.58 192.37 L 158.60 192.62 C 157.46 192.92 156.77 194.08 157.07 195.21 C 157.36 196.35 158.52 197.04 159.66 196.74 L 160.64 196.49 C 161.78 196.20 162.46 195.04 162.17 193.90 C 161.88 192.76 160.72 192.08 159.58 192.37 Z M 158.58 192.60 L 157.51 192.88 C 156.36 193.19 155.67 194.36 155.97 195.51 C 156.27 196.66 157.45 197.35 158.60 197.05 L 159.67 196.76 C 160.82 196.46 161.51 195.29 161.21 194.14 C 160.91 192.99 159.73 192.30 158.58 192.60 Z M 157.48 192.86 L 156.25 193.20 C 155.09 193.51 154.40 194.71 154.72 195.87 C 155.03 197.03 156.23 197.72 157.39 197.40 L 158.62 197.07 C 159.78 196.75 160.47 195.56 160.15 194.39 C 159.84 193.23 158.64 192.55 157.48 192.86 Z M 156.19 193.19 L 155.11 193.51 C 153.94 193.86 153.28 195.09 153.63 196.25 C 153.98 197.42 155.21 198.09 156.37 197.74 L 157.45 197.42 C 158.62 197.07 159.28 195.84 158.93 194.67 C 158.59 193.50 157.36 192.84 156.19 193.19 Z M 154.94 193.53 L 154.24 193.80 C 153.08 194.24 152.50 195.53 152.94 196.69 C 153.38 197.84 154.68 198.42 155.83 197.98 L 156.54 197.71 C 157.69 197.27 158.27 195.98 157.83 194.83 C 157.39 193.67 156.10 193.09 154.94 193.53 Z M 152.88 195.18 L 152.81 195.39 C 152.42 196.58 153.06 197.86 154.25 198.26 C 155.44 198.65 156.72 198.01 157.11 196.82 L 157.19 196.61 C 157.58 195.42 156.94 194.13 155.75 193.74 C 154.56 193.35 153.28 193.99 152.88 195.18 Z M 154.74 198.39 L 155.64 198.48 C 156.90 198.60 158.02 197.68 158.15 196.42 C 158.27 195.15 157.35 194.03 156.08 193.91 L 155.19 193.82 C 153.92 193.69 152.80 194.62 152.68 195.88 C 152.55 197.15 153.48 198.27 154.74 198.39 Z M 155.84 198.52 L 157.21 198.53 C 158.49 198.54 159.54 197.51 159.55 196.22 C 159.56 194.93 158.52 193.88 157.24 193.87 L 155.88 193.87 C 154.59 193.86 153.54 194.89 153.53 196.18 C 153.52 197.46 154.56 198.51 155.84 198.52 Z M 157.22 198.55 L 158.24 198.55 C 159.53 198.55 160.58 197.50 160.58 196.20 C 160.58 194.91 159.53 193.86 158.24 193.86 L 157.22 193.86 C 155.93 193.86 154.88 194.91 154.88 196.20 C 154.88 197.50 155.93 198.55 157.22 198.55 Z M 158.24 198.55 L 159.25 198.55 C 160.55 198.55 161.60 197.50 161.60 196.20 C 161.60 194.91 160.55 193.86 159.25 193.86 L 158.24 193.86 C 156.94 193.86 155.89 194.91 155.89 196.20 C 155.89 197.50 156.94 198.55 158.24 198.55 Z M 159.25 198.55 L 160.25 198.55 C 161.55 198.55 162.60 197.50 162.60 196.20 C 162.60 194.90 161.55 193.85 160.25 193.85 L 159.25 193.85 C 157.96 193.85 156.90 194.90 156.90 196.20 C 156.90 197.50 157.96 198.55 159.25 198.55 Z M 160.25 198.56 L 161.25 198.56 C 162.54 198.56 163.60 197.50 163.60 196.20 C 163.60 194.90 162.54 193.85 161.25 193.85 L 160.25 193.85 C 158.95 193.85 157.90 194.90 157.90 196.20 C 157.90 197.50 158.95 198.56 160.25 198.56 Z M 161.25 198.56 L 162.26 198.56 C 163.56 198.56 164.62 197.50 164.62 196.20 C 164.62 194.90 163.56 193.85 162.26 193.85 L 161.25 193.85 C 159.94 193.85 158.89 194.90 158.89 196.20 C 158.89 197.50 159.94 198.56 161.25 198.56 Z M 162.26 198.56 L 163.24 198.56 C 164.54 198.56 165.60 197.50 165.60 196.20 C 165.60 194.90 164.54 193.85 163.24 193.85 L 162.26 193.85 C 160.96 193.85 159.91 194.90 159.91 196.20 C 159.91 197.50 160.96 198.56 162.26 198.56 Z M 163.24 198.56 L 164.22 198.56 C 165.52 198.56 166.57 197.50 166.57 196.20 C 166.57 194.90 165.52 193.85 164.22 193.85 L 163.24 193.85 C 161.94 193.85 160.89 194.90 160.89 196.20 C 160.89 197.50 161.94 198.56 163.24 198.56 Z M 164.22 198.56 L 165.20 198.56 C 166.50 198.56 167.55 197.50 167.55 196.20 C 167.55 194.90 166.50 193.85 165.20 193.85 L 164.22 193.85 C 162.92 193.85 161.86 194.90 161.86 196.20 C 161.86 197.50 162.92 198.56 164.22 198.56 Z M 165.20 198.56 L 166.20 198.56 C 167.50 198.56 168.55 197.50 168.55 196.20 C 168.55 194.90 167.50 193.85 166.20 193.85 L 165.20 193.85 C 163.90 193.85 162.84 194.90 162.84 196.20 C 162.84 197.50 163.90 198.56 165.20 198.56 Z M 166.20 198.56 L 167.21 198.56 C 168.51 198.56 169.57 197.50 169.57 196.20 C 169.57 194.90 168.51 193.85 167.21 193.85 L 166.20 193.85 C 164.90 193.85 163.84 194.90 163.84 196.20 C 163.84 197.50 164.90 198.56 166.20 198.56 Z M 167.21 198.55 L 168.21 198.55 C 169.51 198.55 170.56 197.50 170.56 196.20 C 170.56 194.90 169.51 193.85 168.21 193.85 L 167.21 193.85 C 165.92 193.85 164.86 194.90 164.86 196.20 C 164.86 197.50 165.92 198.55 167.21 198.55 Z M 168.21 198.55 L 169.20 198.55 C 170.50 198.55 171.55 197.50 171.55 196.20 C 171.55 194.91 170.50 193.86 169.20 193.86 L 168.21 193.86 C 166.91 193.86 165.86 194.91 165.86 196.20 C 165.86 197.50 166.91 198.55 168.21 198.55 Z M 169.20 198.54 L 170.21 198.54 C 171.50 198.54 172.55 197.50 172.55 196.20 C 172.55 194.91 171.50 193.86 170.21 193.86 L 169.20 193.86 C 167.91 193.86 166.86 194.91 166.86 196.20 C 166.86 197.50 167.91 198.54 169.20 198.54 Z M 170.21 198.54 L 171.22 198.54 C 172.51 198.54 173.56 197.49 173.56 196.20 C 173.56 194.91 172.51 193.87 171.22 193.87 L 170.21 193.87 C 168.92 193.87 167.87 194.91 167.87 196.20 C 167.87 197.49 168.92 198.54 170.21 198.54 Z M 171.22 198.53 L 172.22 198.53 C 173.51 198.53 174.55 197.49 174.55 196.20 C 174.55 194.92 173.51 193.87 172.22 193.87 L 171.22 193.87 C 169.93 193.87 168.89 194.92 168.89 196.20 C 168.89 197.49 169.93 198.53 171.22 198.53 Z M 172.22 198.52 L 173.22 198.52 C 174.51 198.52 175.54 197.48 175.54 196.20 C 175.54 194.92 174.51 193.88 173.22 193.88 L 172.22 193.88 C 170.94 193.88 169.90 194.92 169.90 196.20 C 169.90 197.48 170.94 198.52 172.22 198.52 Z M 173.22 198.51 L 174.22 198.51 C 175.50 198.51 176.54 197.48 176.54 196.20 C 176.54 194.93 175.50 193.89 174.22 193.89 L 173.22 193.89 C 171.95 193.89 170.91 194.93 170.91 196.20 C 170.91 197.48 171.95 198.51 173.22 198.51 Z M 174.22 198.50 L 175.23 198.50 C 176.50 198.50 177.53 197.47 177.53 196.20 C 177.53 194.93 176.50 193.90 175.23 193.90 L 174.22 193.90 C 172.95 193.90 171.92 194.93 171.92 196.20 C 171.92 197.47 172.95 198.50 174.22 198.50 Z M 175.23 198.49 L 176.23 198.49 C 177.50 198.49 178.52 197.47 178.52 196.20 C 178.52 194.94 177.50 193.91 176.23 193.91 L 175.23 193.91 C 173.96 193.91 172.94 194.94 172.94 196.20 C 172.94 197.47 173.96 198.49 175.23 198.49 Z M 176.23 198.48 L 177.23 198.48 C 178.48 198.48 179.50 197.46 179.50 196.20 C 179.50 194.95 178.48 193.93 177.23 193.93 L 176.23 193.93 C 174.98 193.93 173.96 194.95 173.96 196.20 C 173.96 197.46 174.98 198.48 176.23 198.48 Z M 177.23 198.46 L 178.22 198.46 C 179.47 198.46 180.48 197.45 180.48 196.20 C 180.48 194.96 179.47 193.94 178.22 193.94 L 177.23 193.94 C 175.98 193.94 174.97 194.96 174.97 196.20 C 174.97 197.45 175.98 198.46 177.23 198.46 Z M 178.22 198.44 L 179.19 198.44 C 180.43 198.44 181.43 197.44 181.43 196.20 C 181.43 194.97 180.43 193.96 179.19 193.96 L 178.22 193.96 C 176.99 193.96 175.98 194.97 175.98 196.20 C 175.98 197.44 176.99 198.44 178.22 198.44 Z M 179.19 198.42 L 180.17 198.42 C 181.40 198.42 182.39 197.43 182.39 196.20 C 182.39 194.98 181.40 193.99 180.17 193.99 L 179.19 193.99 C 177.97 193.99 176.97 194.98 176.97 196.20 C 176.97 197.43 177.97 198.42 179.19 198.42 Z M 180.17 198.40 L 181.19 198.40 C 182.40 198.40 183.38 197.41 183.38 196.20 C 183.38 194.99 182.40 194.01 181.19 194.01 L 180.17 194.01 C 178.96 194.01 177.98 194.99 177.98 196.20 C 177.98 197.41 178.96 198.40 180.17 198.40 Z M 181.19 198.37 L 182.21 198.37 C 183.41 198.37 184.38 197.40 184.38 196.20 C 184.38 195.00 183.41 194.03 182.21 194.03 L 181.19 194.03 C 179.99 194.03 179.02 195.00 179.02 196.20 C 179.02 197.40 179.99 198.37 181.19 198.37 Z M 182.21 198.35 L 183.20 198.35 C 184.39 198.35 185.35 197.39 185.35 196.20 C 185.35 195.02 184.39 194.06 183.20 194.06 L 182.21 194.06 C 181.03 194.06 180.07 195.02 180.07 196.20 C 180.07 197.39 181.03 198.35 182.21 198.35 Z M 183.20 198.32 L 184.22 198.32 C 185.38 198.32 186.33 197.37 186.33 196.20 C 186.33 195.04 185.38 194.09 184.22 194.09 L 183.20 194.09 C 182.04 194.09 181.09 195.04 181.09 196.20 C 181.09 197.37 182.04 198.32 183.20 198.32 Z M 184.22 198.29 L 185.23 198.29 C 186.38 198.29 187.31 197.35 187.31 196.20 C 187.31 195.05 186.38 194.12 185.23 194.12 L 184.22 194.12 C 183.07 194.12 182.13 195.05 182.13 196.20 C 182.13 197.35 183.07 198.29 184.22 198.29 Z M 185.23 198.25 L 186.23 198.25 C 187.37 198.25 188.29 197.34 188.29 196.20 C 188.29 195.07 187.37 194.15 186.23 194.15 L 185.23 194.15 C 184.09 194.15 183.17 195.07 183.17 196.20 C 183.17 197.34 184.09 198.25 185.23 198.25 Z M 186.23 198.21 L 187.26 198.21 C 188.37 198.21 189.27 197.31 189.27 196.20 C 189.27 195.09 188.37 194.19 187.26 194.19 L 186.23 194.19 C 185.12 194.19 184.22 195.09 184.22 196.20 C 184.22 197.31 185.12 198.21 186.23 198.21 Z M 187.26 198.16 L 188.26 198.16 C 189.34 198.16 190.21 197.28 190.21 196.20 C 190.21 195.12 189.34 194.25 188.26 194.25 L 187.26 194.25 C 186.18 194.25 185.30 195.12 185.30 196.20 C 185.30 197.28 186.18 198.16 187.26 198.16 Z M 188.26 198.10 L 189.24 198.10 C 190.29 198.10 191.14 197.25 191.14 196.20 C 191.14 195.15 190.29 194.30 189.24 194.30 L 188.26 194.30 C 187.21 194.30 186.36 195.15 186.36 196.20 C 186.36 197.25 187.21 198.10 188.26 198.10 Z M 189.24 198.06 L 189.80 198.06 C 190.83 198.06 191.66 197.23 191.66 196.20 C 191.66 195.18 190.83 194.34 189.80 194.34 L 189.24 194.34 C 188.21 194.34 187.38 195.18 187.38 196.20 C 187.38 197.23 188.21 198.06 189.24 198.06 Z"
      fill="black"
      fill-rule="nonzero" /></svg>