<svg xmlns="http://www.w3.org/2000/svg" version="1.0" width="937.000000pt" height="937.000000pt" viewBox="0 0 937.000000 937.000000" preserveAspectRatio="xMidYMid meet">
  <defs/>
  <path fill="#000000" d="M509.9,390.1 L507.9,392.1 L508.3,461.3 L508.7,530.5 L510.4,539.9 C514.3,562.7 519.6,575.8 527.7,582.9 C533.5,588.1 542.4,592.3 551.5,594.3 C564.3,597.2 604.5,601 621.4,601 L630.6,601 L635,598.7 C638.4,597.1 640.1,595.3 641.8,591.8 L644.2,587 L644.2,577.8 C644.2,569.5 641.5,550.7 638,534.2 C636.7,528.5 634.4,526.4 630.4,527.4 C627,528.3 626.5,531.6 628.3,541.7 C630.3,553 630.5,558 629.5,571.8 C628.5,585.8 628.1,586.4 619.6,585.6 C616.2,585.3 607.2,584.5 599.5,584 C580.3,582.6 557.5,580.2 551.6,579 C536.1,575.8 530.3,567.4 525.3,541.5 L523.6,532.5 L523,462.2 L522.5,391.8 L520.1,389.9 C517.1,387.4 512.5,387.5 509.9,390.1 Z"/>
  <path fill="#000000" d="M398.9,404.9 L396.5,406.8 L396.5,416.7 C396.5,422.1 396.8,428.6 397.2,431.2 L398,435.9 L388.2,438.9 C376.3,442.6 355.3,447.4 344.5,449 C325.6,451.6 321.6,451.9 314.2,450.6 C306,449.2 303.5,449.9 301.1,454.1 C299.3,457.4 300.3,461.5 303.5,463.6 C307.2,466 315.8,468 323,468 C332.6,468 361.9,460.8 387.3,452.3 C393.2,450.3 398.2,448.9 398.5,449.1 C399.2,449.8 401,486.1 401,499.5 L401,511.6 L388.4,519.8 C374.6,528.9 361,536.9 331,553.5 C320.3,559.4 310.5,565.4 309.3,566.7 C304.5,571.8 308.2,580 315.3,580 C319.2,580 325.6,577.6 328.5,575.1 C329.6,574.1 334.6,570.9 339.5,568 C351.7,560.8 376.1,544.4 389.3,534.7 C395.2,530.3 400.2,526.9 400.4,527.1 C400.6,527.3 401,545.4 401.3,567.2 L401.8,607 L399.9,607 C395.1,607 387.8,602.2 365.6,584.1 C355.6,576 352,574.4 349.2,577.2 C348.5,577.9 348,579.6 348,581.1 L348,583.8 L356.8,590.8 C361.6,594.7 370.5,602 376.5,607 C390.1,618.3 395.1,621 402.4,621 L407.8,621 L410.9,618.4 C412.6,617 414.4,614.2 414.9,612.3 C415.5,610.3 416.2,587.2 416.6,560.9 L417.3,513.2 L427.8,504 L438.2,494.7 L443.1,495.3 C445.8,495.6 448.5,496.2 449.1,496.6 C451.8,498.2 446.1,510.7 437.6,522.1 C431.3,530.5 430.3,535.1 434.1,538.6 C439.3,543.3 450,539.6 463.2,528.5 L470.8,522.1 L471.6,531.8 C473,550.8 470.9,583.6 467.9,589.3 L466.9,591 L464.6,588.4 L462.3,585.7 L459.6,586.4 C456.3,587.2 454.9,590.6 455.6,596.2 C456.6,604.7 459.4,608 465.3,608 C471.3,608 478.8,599.7 481.9,589.5 C485.1,579.2 486,569.2 486.7,535.6 L487.3,503.5 L493.5,494 C503.8,478.3 504.6,475.5 499.9,472.9 C496.7,471.2 494.2,472.8 490.3,478.8 L486.6,484.5 L485.4,467 C484.7,457.4 483.7,440.6 483,429.7 C482.4,418.8 481.5,408.7 481,407.4 C480.5,406.1 478.8,404.5 477.3,403.9 L474.6,402.9 L472.1,404.8 C470.1,406.3 469.3,408 468.7,412.1 C467.7,419.7 467.8,442.4 468.9,456.5 C469.5,463.1 470.2,476.6 470.5,486.5 L471.1,504.5 L465,509.5 C461.7,512.2 458.5,514.6 458,514.8 C457.5,515 458,513 459.2,510.3 C462.3,503.6 462.3,493.3 459.4,489.3 C456.4,485.2 450.5,482.3 444.1,481.6 C441,481.2 435.5,480.2 431.8,479.3 C426.5,478 424.6,477.9 422.5,478.8 C417.6,481.1 417.2,488 421.9,491.2 L424,492.7 L421,495.5 C419.4,497.1 417.8,498.2 417.6,497.9 C417.4,497.7 416.7,486.9 416.1,474 C415.5,461.1 414.7,448.8 414.4,446.8 L413.8,443.1 L423.9,438.1 C434.3,432.9 436,431.2 436,426.2 C436,422.7 433.4,420.2 426.1,416.5 C423.1,415 418.1,411.3 415,408.4 L409.3,403 L405.3,403 C402.8,403 400.3,403.7 398.9,404.9 Z M417.4,424.5 L421.3,426.9 L417.5,428.4 C415.4,429.3 413.5,429.9 413.3,429.6 C412.4,428.7 411.8,422 412.6,422 C413.1,422 415.3,423.1 417.4,424.5 Z"/>
  <path fill="#000000" d="M575.2,425.7 C574.6,425.9 571.1,430.5 567.5,435.8 C560.4,446.5 556.3,451.5 541.6,467.6 C521.8,489.3 519,504.5 532.4,516.7 C537.7,521.5 540.3,523.1 560.5,534.2 C566.6,537.5 578.9,544.6 588,550 C608.9,562.4 610.7,563.2 613.1,562.5 C615.9,561.6 617.4,558.2 616.2,555.6 C615.2,553.4 592.9,535.4 582,527.9 C578.9,525.8 570,520.7 562.1,516.5 C554.2,512.3 545.1,507.1 541.9,504.9 L536,500.9 L536,497.4 C536,489.9 539.3,486 569.5,456.9 C581.5,445.5 587.3,437.4 587.2,432.8 C587.1,427.3 580.6,423.5 575.2,425.7 Z"/>
</svg>

