<svg xmlns="http://www.w3.org/2000/svg" version="1.0" width="937.000000pt" height="937.000000pt" viewBox="0 0 937.000000 937.000000" preserveAspectRatio="xMidYMid meet">
  <defs/>
  <path fill="#000000" d="M500.5,294.7 C498.3,294.9 489.8,295.7 481.5,296.5 C473.3,297.3 462.7,298 458,298 C450.4,298 441.9,298.9 432.3,300.5 C429.9,300.9 427.8,302.6 424.5,306.6 L420,312.2 L420,322.8 C420,334.9 421.6,342.7 430.5,373 C441.1,409.4 448.7,428.5 457,439.6 L460.9,444.8 L458.7,446.7 C453.4,451.5 449.2,453.3 431.4,458.5 C416.5,462.8 412,464.6 410.3,466.6 C407.6,469.6 407.4,471.7 409.6,474.8 C412.6,479.1 415,479.2 429.3,475.6 C443.1,472 459.7,466.8 468.9,463.1 L474.2,460.9 L473.8,468.5 L473.5,476 L470.5,478.9 L467.5,481.8 L445,486.3 C412.7,492.9 412.8,492.9 389.3,493.7 L367.9,494.3 L365.9,496.8 C362,501.8 364.6,507.3 371.6,508.6 C373.6,509 384.5,509 395.9,508.7 L416.5,508.2 L431,505.1 C439,503.4 446.1,502 446.9,502 C447.6,502 441.5,509.1 433.3,517.7 C420.1,531.6 405.1,547.7 370.2,585.4 C350.6,606.5 333.8,628.9 324.6,646 C319.3,655.8 318.9,659.2 322.5,661.6 L325,663.2 L327.4,661.7 C328.7,660.8 331.6,656.8 333.8,652.8 C341.5,638.8 354.3,622.4 373.2,602.3 C378.8,596.4 404.9,569.6 431.2,542.8 L479,494.2 L483.8,492.6 C486.4,491.7 500.8,488.1 515.9,484.5 C544.1,477.7 555.3,474 557.6,470.5 L558.9,468.5 L557.7,466 C556,462.5 552.9,462.4 545.3,465.5 C541.6,466.9 533.3,468.9 526.1,470 C519.1,471 511.4,472.4 508.9,472.9 C500.5,474.9 500,474.3 505.5,469.4 C519,457.1 530.2,447.8 536.5,443.7 C548.2,436 548,436.2 548,432.4 C548,428.3 544.3,424 540.7,424 C537.3,424 529.2,426.9 524.5,429.8 C519,433.2 511.4,439.7 499,451.5 L488.5,461.5 L488.2,458 C487.9,455.5 488.3,454.2 489.6,453.5 C500.6,447 506.4,442.5 510.5,436.9 C515.6,430 516.1,426.8 512.6,424.5 C509.5,422.4 507.4,423.4 503,429 C499.9,432.9 490.9,439 488.3,439 C487.4,439 487,437.5 487,434.7 C487,429.7 487.9,428.4 494.1,424.2 C511.1,412.8 533.5,373.8 541.1,342.5 C543.5,332.5 543.6,317.8 541.4,309.9 C539.3,302.6 534.5,296.8 529.2,295.2 C525.6,294.1 510.3,293.8 500.5,294.7 Z M526.3,311.7 C527,313.4 527.5,319.2 527.4,326.5 L527.4,338.5 L522.5,353 C517.3,368.3 508.6,386.6 500.7,398.9 L495.9,406.3 L492.9,402.7 C490.8,400.2 488.6,398.8 485.1,397.9 L480.1,396.7 L485.4,390.9 C492.1,383.5 495.3,377 495.8,370 C496.3,360.8 491,355.3 480,353.5 C477.5,353.2 471.6,351.9 466.8,350.9 C460,349.3 457.7,349.1 456,350 C451.5,352.4 451.5,359.6 456,362 C457.1,362.6 462.6,363.9 468.3,365 C481.1,367.3 482,367.7 482,370.5 C482,374.1 474.7,384.1 467,390.9 L460,397.2 L460,400.4 C460,406.5 465,410 474,410 C480.2,410 482.1,411 481.8,413.8 C481.6,415.7 480.7,416.6 478.5,417.2 C476.8,417.6 474.4,418.9 473.2,420.1 L470.9,422.2 L471.5,427.4 L472.2,432.6 L470.3,434.9 L468.5,437.2 L465.4,432.8 C458.4,423.1 453.7,410.8 446.1,382.7 C438.1,352.8 434,332 434,320.4 L434,315.2 L442.3,314.1 C446.8,313.5 457,312.6 465,312 C473,311.4 482.9,310.5 487,310.1 C491.1,309.6 501.4,309.2 509.8,309.1 L525,309 L526.3,311.7 Z"/>
  <path fill="#000000" d="M463.9,536.3 C460.2,537 456.5,538.2 455.6,538.9 L453.9,540.3 L451.4,539 C447.6,536.9 444.3,538.7 440.4,545 C435.9,552.3 434.1,560.1 433.4,574.5 C432.6,590.4 434.3,608.3 438.4,626.6 C443.2,647.7 444.9,652.3 448.2,653.4 C450.4,654.2 451.4,654 453,652.5 C455.5,650.2 455.5,649.2 453,639.4 C446.4,613.8 446.4,567.9 452.9,550.7 L454,547.9 L455.9,548.9 C457.2,549.6 462.2,549.6 471.7,548.9 C488.3,547.5 512.2,548.4 520.4,550.6 C528.6,552.8 537.2,557.3 541.6,561.7 C549.4,569.5 552,580.9 552,607.4 C552,627.6 550.9,634.4 546.2,642 C544.7,644.4 541.9,647.5 540.1,648.7 L536.7,651 L526.9,651 L517,651 L515,653 C513.9,654.1 513,655.4 513,655.9 C513,656.4 510.4,657.1 507.3,657.4 C504.1,657.8 500.2,658.3 498.5,658.6 L495.5,659.2 L503.2,651.6 C515.8,639.2 520,631.6 520,621.5 C520,607.9 512.8,599.9 496,594.5 C493,593.6 487,590.9 482.8,588.7 L475.1,584.6 L472.3,585.6 C468.8,586.8 467.2,590.9 468.8,594.5 C470.2,597.6 482.6,603.7 493,606.5 C506,609.9 509,612.7 509,621.5 C509,632 500.8,640.4 477.3,653.9 C473.4,656.2 469.2,659.2 468.1,660.6 C463.9,665.9 466.2,673 472.6,674.6 C477.4,675.8 490.3,674.2 519.5,668.6 C548.7,663 551,662.2 551,658.2 C551,657.4 552.6,654.9 554.6,652.7 C558.8,647.7 563.2,638.6 565.1,631 C567.3,622.4 567,583.6 564.7,574.7 C559.6,554.6 548.5,543.8 526.3,537.8 L518.5,535.7 L494.5,535.4 C478.5,535.2 468.3,535.5 463.9,536.3 Z"/>
</svg>

