<svg xmlns="http://www.w3.org/2000/svg" width="300" height="300" viewBox="0 0 300 300">
<path d="M 125.19 131.70 L 124.78 132.47 C 124.26 133.46 124.64 134.70 125.64 135.23 C 126.64 135.75 127.87 135.37 128.40 134.37 L 128.80 133.61 C 129.32 132.61 128.94 131.38 127.94 130.85 C 126.95 130.32 125.71 130.71 125.19 131.70 Z M 124.64 132.63 L 124.30 133.47 C 123.87 134.55 124.39 135.77 125.47 136.21 C 126.55 136.64 127.78 136.12 128.21 135.04 L 128.55 134.20 C 128.98 133.12 128.46 131.90 127.38 131.46 C 126.30 131.03 125.07 131.55 124.64 132.63 Z M 124.13 133.81 L 123.93 134.79 C 123.69 135.96 124.44 137.11 125.62 137.35 C 126.79 137.59 127.94 136.84 128.18 135.67 L 128.38 134.69 C 128.62 133.52 127.87 132.37 126.69 132.13 C 125.52 131.89 124.37 132.64 124.13 133.81 Z M 123.82 135.23 L 123.82 136.42 C 123.82 137.65 124.82 138.65 126.05 138.65 C 127.29 138.65 128.29 137.65 128.29 136.42 L 128.29 135.23 C 128.29 133.99 127.29 132.99 126.06 132.99 C 124.82 132.99 123.82 133.99 123.82 135.23 Z M 123.81 136.75 L 123.94 137.65 C 124.12 138.89 125.28 139.75 126.52 139.57 C 127.76 139.38 128.61 138.23 128.43 136.99 L 128.30 136.09 C 128.12 134.85 126.97 133.99 125.73 134.17 C 124.49 134.35 123.63 135.51 123.81 136.75 Z M 123.97 137.82 L 124.18 138.75 C 124.45 139.97 125.67 140.74 126.90 140.47 C 128.12 140.19 128.89 138.98 128.61 137.75 L 128.40 136.82 C 128.13 135.60 126.91 134.83 125.69 135.10 C 124.46 135.38 123.69 136.60 123.97 137.82 Z M 124.21 138.86 L 124.48 139.84 C 124.81 141.05 126.07 141.76 127.28 141.42 C 128.48 141.09 129.19 139.84 128.86 138.63 L 128.59 137.64 C 128.25 136.43 127.00 135.73 125.79 136.06 C 124.58 136.40 123.87 137.65 124.21 138.86 Z M 124.50 139.91 L 124.82 140.92 C 125.19 142.12 126.47 142.79 127.67 142.41 C 128.86 142.03 129.53 140.76 129.15 139.56 L 128.84 138.55 C 128.46 137.36 127.19 136.69 125.99 137.07 C 124.79 137.44 124.12 138.72 124.50 139.91 Z M 124.83 140.97 L 125.18 141.98 C 125.58 143.17 126.87 143.80 128.06 143.40 C 129.25 143.00 129.88 141.71 129.48 140.52 L 129.14 139.51 C 128.73 138.32 127.44 137.69 126.25 138.09 C 125.07 138.49 124.43 139.78 124.83 140.97 Z M 125.19 142.01 L 125.54 142.99 C 125.96 144.17 127.26 144.79 128.44 144.37 C 129.62 143.95 130.24 142.65 129.82 141.46 L 129.47 140.49 C 129.05 139.30 127.75 138.69 126.56 139.11 C 125.38 139.53 124.77 140.83 125.19 142.01 Z M 125.54 143.01 L 125.89 143.95 C 126.32 145.12 127.62 145.73 128.80 145.30 C 129.98 144.87 130.58 143.56 130.15 142.38 L 129.81 141.45 C 129.38 140.27 128.07 139.66 126.90 140.09 C 125.72 140.52 125.11 141.83 125.54 143.01 Z M 125.89 143.95 L 126.29 145.04 C 126.72 146.22 128.03 146.82 129.21 146.39 C 130.38 145.96 130.99 144.65 130.55 143.48 L 130.15 142.38 C 129.72 141.20 128.41 140.60 127.24 141.03 C 126.06 141.47 125.45 142.77 125.89 143.95 Z M 126.29 145.04 L 126.65 146.03 C 127.08 147.20 128.39 147.81 129.56 147.38 C 130.74 146.94 131.35 145.64 130.92 144.46 L 130.55 143.48 C 130.12 142.30 128.82 141.69 127.64 142.13 C 126.46 142.56 125.86 143.86 126.29 145.04 Z M 126.65 146.02 L 126.98 146.93 C 127.41 148.11 128.71 148.72 129.89 148.29 C 131.07 147.86 131.68 146.56 131.25 145.38 L 130.92 144.47 C 130.49 143.29 129.19 142.68 128.01 143.11 C 126.83 143.54 126.22 144.84 126.65 146.02 Z M 126.98 146.92 L 127.29 147.78 C 127.71 148.96 129.01 149.58 130.19 149.15 C 131.37 148.73 131.98 147.43 131.56 146.25 L 131.25 145.39 C 130.83 144.21 129.53 143.59 128.35 144.02 C 127.17 144.44 126.55 145.74 126.98 146.92 Z M 127.28 147.77 L 127.58 148.62 C 127.99 149.80 129.29 150.42 130.47 150.01 C 131.65 149.59 132.28 148.30 131.86 147.12 L 131.56 146.27 C 131.15 145.08 129.85 144.46 128.67 144.88 C 127.49 145.29 126.87 146.58 127.28 147.77 Z M 127.57 148.60 L 127.88 149.49 C 128.28 150.68 129.57 151.31 130.76 150.91 C 131.94 150.50 132.58 149.21 132.17 148.03 L 131.87 147.13 C 131.46 145.95 130.17 145.31 128.99 145.72 C 127.80 146.13 127.17 147.41 127.57 148.60 Z M 127.87 149.48 L 128.18 150.40 C 128.58 151.59 129.86 152.23 131.05 151.83 C 132.24 151.43 132.88 150.15 132.48 148.96 L 132.18 148.04 C 131.78 146.85 130.50 146.21 129.31 146.61 C 128.12 147.01 127.48 148.29 127.87 149.48 Z M 128.18 150.39 L 128.49 151.33 C 128.88 152.52 130.16 153.17 131.35 152.78 C 132.54 152.39 133.19 151.11 132.80 149.92 L 132.49 148.98 C 132.10 147.79 130.82 147.14 129.63 147.53 C 128.44 147.92 127.79 149.20 128.18 150.39 Z M 128.49 151.32 L 128.80 152.29 C 129.19 153.48 130.46 154.14 131.65 153.75 C 132.84 153.37 133.50 152.09 133.11 150.90 L 132.80 149.93 C 132.41 148.74 131.14 148.09 129.95 148.47 C 128.76 148.86 128.10 150.13 128.49 151.32 Z M 128.80 152.29 L 129.12 153.28 C 129.50 154.47 130.77 155.13 131.96 154.75 C 133.16 154.37 133.81 153.09 133.43 151.90 L 133.11 150.91 C 132.73 149.72 131.46 149.06 130.27 149.44 C 129.08 149.82 128.42 151.10 128.80 152.29 Z M 129.12 153.28 L 129.42 154.22 C 129.80 155.42 131.07 156.07 132.26 155.70 C 133.45 155.32 134.11 154.05 133.73 152.85 L 133.43 151.91 C 133.05 150.72 131.78 150.06 130.59 150.44 C 129.40 150.82 128.74 152.09 129.12 153.28 Z M 129.42 154.22 L 129.72 155.17 C 130.10 156.36 131.37 157.02 132.56 156.64 C 133.75 156.27 134.41 155.00 134.03 153.81 L 133.73 152.86 C 133.35 151.67 132.08 151.01 130.89 151.39 C 129.70 151.76 129.05 153.03 129.42 154.22 Z M 129.72 155.16 L 130.03 156.12 C 130.40 157.31 131.67 157.97 132.85 157.60 C 134.04 157.22 134.70 155.96 134.33 154.77 L 134.03 153.81 C 133.65 152.62 132.39 151.96 131.20 152.34 C 130.01 152.71 129.35 153.98 129.72 155.16 Z M 130.03 156.12 L 130.33 157.08 C 130.70 158.27 131.96 158.93 133.15 158.56 C 134.34 158.19 135.00 156.92 134.63 155.74 L 134.33 154.77 C 133.96 153.59 132.69 152.92 131.50 153.30 C 130.32 153.67 129.66 154.93 130.03 156.12 Z M 130.33 157.08 L 130.63 158.04 C 131.00 159.23 132.26 159.89 133.45 159.52 C 134.63 159.15 135.29 157.89 134.93 156.70 L 134.63 155.74 C 134.26 154.55 133.00 153.89 131.81 154.26 C 130.62 154.63 129.96 155.89 130.33 157.08 Z M 130.63 158.03 L 130.93 159.00 C 131.30 160.18 132.55 160.85 133.74 160.48 C 134.92 160.11 135.59 158.86 135.22 157.67 L 134.92 156.71 C 134.56 155.52 133.30 154.86 132.11 155.23 C 130.93 155.59 130.27 156.85 130.63 158.03 Z M 130.93 158.99 L 131.23 159.96 C 131.59 161.14 132.85 161.81 134.03 161.44 C 135.21 161.08 135.88 159.83 135.52 158.64 L 135.22 157.68 C 134.85 156.49 133.60 155.83 132.42 156.19 C 131.23 156.56 130.57 157.81 130.93 158.99 Z M 131.23 159.95 L 131.53 160.91 C 131.89 162.10 133.14 162.76 134.32 162.40 C 135.50 162.04 136.17 160.79 135.80 159.61 L 135.51 158.65 C 135.15 157.47 133.90 156.80 132.72 157.16 C 131.54 157.52 130.87 158.77 131.23 159.95 Z M 131.53 160.91 L 131.82 161.86 C 132.18 163.04 133.43 163.71 134.61 163.35 C 135.79 162.99 136.45 161.74 136.09 160.56 L 135.80 159.61 C 135.44 158.43 134.20 157.77 133.02 158.13 C 131.84 158.49 131.17 159.73 131.53 160.91 Z M 131.83 161.86 L 132.12 162.81 C 132.47 163.99 133.72 164.65 134.89 164.29 C 136.07 163.94 136.73 162.69 136.37 161.52 L 136.09 160.57 C 135.73 159.39 134.49 158.73 133.31 159.08 C 132.13 159.44 131.47 160.68 131.83 161.86 Z M 132.12 162.81 L 132.41 163.75 C 132.76 164.93 134.00 165.59 135.18 165.24 C 136.35 164.88 137.01 163.64 136.66 162.47 L 136.37 161.52 C 136.01 160.35 134.77 159.68 133.60 160.04 C 132.43 160.39 131.76 161.63 132.12 162.81 Z M 132.41 163.75 L 132.71 164.71 C 133.06 165.88 134.30 166.54 135.47 166.19 C 136.64 165.83 137.30 164.60 136.94 163.43 L 136.65 162.47 C 136.30 161.30 135.06 160.64 133.89 160.99 C 132.72 161.35 132.06 162.58 132.41 163.75 Z M 132.71 164.71 L 133.01 165.67 C 133.36 166.84 134.59 167.49 135.76 167.14 C 136.92 166.79 137.58 165.56 137.22 164.39 L 136.93 163.43 C 136.58 162.27 135.35 161.61 134.18 161.96 C 133.02 162.32 132.36 163.55 132.71 164.71 Z M 133.02 165.67 L 133.31 166.63 C 133.66 167.79 134.89 168.44 136.05 168.09 C 137.21 167.74 137.86 166.51 137.51 165.35 L 137.21 164.39 C 136.86 163.23 135.64 162.58 134.48 162.93 C 133.32 163.28 132.66 164.51 133.02 165.67 Z M 133.32 166.63 L 133.61 167.58 C 133.96 168.74 135.18 169.39 136.34 169.04 C 137.49 168.68 138.14 167.46 137.79 166.31 L 137.50 165.35 C 137.14 164.20 135.92 163.55 134.77 163.90 C 133.61 164.25 132.96 165.47 133.32 166.63 Z M 133.62 167.58 L 133.91 168.53 C 134.26 169.68 135.48 170.33 136.63 169.98 C 137.78 169.62 138.42 168.41 138.07 167.26 L 137.78 166.31 C 137.43 165.16 136.21 164.51 135.06 164.86 C 133.91 165.22 133.27 166.43 133.62 167.58 Z M 133.92 168.53 L 134.22 169.50 C 134.57 170.65 135.78 171.29 136.93 170.93 C 138.07 170.58 138.71 169.37 138.36 168.23 L 138.06 167.26 C 137.71 166.11 136.49 165.47 135.35 165.83 C 134.21 166.18 133.57 167.39 133.92 168.53 Z M 134.23 169.50 L 134.53 170.47 C 134.88 171.61 136.09 172.25 137.23 171.89 C 138.36 171.54 139.00 170.33 138.65 169.20 L 138.35 168.23 C 137.99 167.09 136.79 166.45 135.65 166.81 C 134.51 167.16 133.88 168.37 134.23 169.50 Z M 134.54 170.47 L 134.84 171.43 C 135.19 172.56 136.39 173.19 137.52 172.84 C 138.65 172.49 139.28 171.29 138.93 170.16 L 138.63 169.20 C 138.28 168.07 137.08 167.44 135.95 167.79 C 134.82 168.14 134.19 169.34 134.54 170.47 Z M 134.85 171.43 L 135.15 172.38 C 135.50 173.50 136.69 174.13 137.82 173.78 C 138.94 173.43 139.57 172.24 139.22 171.11 L 138.92 170.16 C 138.57 169.04 137.38 168.41 136.25 168.76 C 135.13 169.11 134.51 170.31 134.85 171.43 Z M 135.16 172.38 L 135.45 173.31 C 135.80 174.43 136.99 175.05 138.11 174.70 C 139.22 174.35 139.84 173.17 139.50 172.05 L 139.20 171.12 C 138.86 170.00 137.67 169.38 136.55 169.73 C 135.44 170.07 134.81 171.26 135.16 172.38 Z M 135.47 173.31 L 135.77 174.28 C 136.11 175.38 137.29 176.00 138.40 175.66 C 139.51 175.31 140.13 174.13 139.79 173.02 L 139.48 172.06 C 139.14 170.95 137.96 170.33 136.85 170.67 C 135.74 171.02 135.12 172.20 135.47 173.31 Z M 135.78 174.27 L 136.09 175.25 C 136.43 176.35 137.60 176.97 138.70 176.62 C 139.80 176.28 140.42 175.11 140.08 174.01 L 139.77 173.03 C 139.43 171.93 138.26 171.31 137.16 171.66 C 136.06 172.00 135.44 173.17 135.78 174.27 Z M 136.10 175.25 L 136.40 176.21 C 136.74 177.30 137.90 177.91 138.99 177.57 C 140.09 177.23 140.70 176.07 140.36 174.98 L 140.06 174.02 C 139.72 172.92 138.56 172.31 137.47 172.65 C 136.37 172.99 135.76 174.15 136.10 175.25 Z M 136.42 176.20 L 136.71 177.14 C 137.04 178.22 138.20 178.83 139.28 178.49 C 140.37 178.16 140.97 177.00 140.64 175.92 L 140.34 174.98 C 140.01 173.90 138.86 173.29 137.77 173.63 C 136.69 173.96 136.08 175.11 136.42 176.20 Z M 136.72 177.13 L 137.01 178.05 C 137.34 179.13 138.48 179.73 139.56 179.40 C 140.64 179.06 141.24 177.92 140.90 176.84 L 140.62 175.93 C 140.29 174.85 139.14 174.25 138.07 174.58 C 136.99 174.91 136.39 176.06 136.72 177.13 Z M 137.02 178.05 L 137.30 178.95 C 137.63 180.02 138.77 180.62 139.83 180.29 C 140.90 179.96 141.50 178.82 141.17 177.75 L 140.89 176.85 C 140.56 175.78 139.42 175.18 138.36 175.51 C 137.29 175.84 136.69 176.98 137.02 178.05 Z M 137.32 178.95 L 137.61 179.86 C 137.94 180.92 139.06 181.51 140.12 181.18 C 141.18 180.84 141.77 179.72 141.44 178.66 L 141.15 177.75 C 140.82 176.69 139.69 176.11 138.63 176.44 C 137.58 176.77 136.99 177.90 137.32 178.95 Z M 137.63 179.87 L 137.93 180.81 C 138.27 181.85 139.39 182.43 140.43 182.09 C 141.48 181.75 142.05 180.63 141.72 179.58 L 141.41 178.65 C 141.08 177.60 139.96 177.03 138.91 177.37 C 137.86 177.70 137.29 178.83 137.63 179.87 Z M 137.95 180.82 L 138.28 181.81 C 138.63 182.84 139.75 183.40 140.78 183.05 C 141.81 182.70 142.37 181.58 142.02 180.55 L 141.69 179.57 C 141.35 178.53 140.23 177.98 139.19 178.32 C 138.16 178.67 137.60 179.79 137.95 180.82 Z M 138.31 181.83 L 138.66 182.84 C 139.02 183.86 140.13 184.39 141.15 184.04 C 142.17 183.68 142.71 182.56 142.35 181.54 L 142.00 180.53 C 141.64 179.51 140.53 178.97 139.51 179.33 C 138.49 179.69 137.95 180.81 138.31 181.83 Z M 138.69 182.86 L 139.04 183.81 C 139.40 184.82 140.52 185.34 141.53 184.97 C 142.53 184.60 143.05 183.48 142.68 182.48 L 142.33 181.52 C 141.96 180.52 140.85 180.00 139.84 180.37 C 138.83 180.74 138.32 181.85 138.69 182.86 Z M 139.06 183.84 L 139.44 184.82 C 139.82 185.81 140.94 186.30 141.93 185.92 C 142.92 185.53 143.41 184.42 143.03 183.43 L 142.65 182.45 C 142.27 181.46 141.15 180.97 140.16 181.35 C 139.17 181.73 138.68 182.85 139.06 183.84 Z M 139.47 184.85 L 139.87 185.81 C 140.27 186.79 141.39 187.25 142.37 186.85 C 143.34 186.44 143.80 185.32 143.40 184.35 L 143.00 183.39 C 142.60 182.41 141.48 181.95 140.50 182.36 C 139.53 182.76 139.07 183.88 139.47 184.85 Z M 139.91 185.86 L 140.32 186.77 C 140.75 187.73 141.88 188.15 142.83 187.72 C 143.78 187.28 144.20 186.16 143.77 185.21 L 143.36 184.30 C 142.93 183.35 141.80 182.92 140.85 183.36 C 139.90 183.79 139.48 184.91 139.91 185.86 Z M 140.37 186.85 L 140.79 187.67 C 141.27 188.59 142.40 188.96 143.32 188.49 C 144.25 188.01 144.61 186.88 144.14 185.96 L 143.72 185.14 C 143.25 184.21 142.12 183.85 141.19 184.32 C 140.27 184.79 139.90 185.92 140.37 186.85 Z M 140.89 187.79 L 141.49 188.75 C 142.03 189.63 143.17 189.90 144.04 189.36 C 144.91 188.82 145.18 187.67 144.64 186.80 L 144.04 185.84 C 143.51 184.97 142.36 184.70 141.49 185.24 C 140.62 185.78 140.35 186.92 140.89 187.79 Z M 141.63 188.90 L 142.26 189.71 C 142.88 190.50 144.03 190.64 144.82 190.02 C 145.61 189.40 145.75 188.25 145.13 187.46 L 144.50 186.65 C 143.88 185.86 142.73 185.72 141.94 186.34 C 141.15 186.97 141.01 188.11 141.63 188.90 Z M 142.41 189.82 L 143.04 190.48 C 143.72 191.20 144.85 191.22 145.56 190.54 C 146.28 189.86 146.30 188.73 145.62 188.02 L 144.99 187.35 C 144.31 186.64 143.18 186.61 142.46 187.29 C 141.75 187.98 141.72 189.11 142.41 189.82 Z M 143.12 190.52 L 143.64 191.01 C 144.35 191.68 145.46 191.65 146.12 190.95 C 146.79 190.24 146.76 189.13 146.06 188.47 L 145.54 187.98 C 144.83 187.31 143.72 187.34 143.06 188.04 C 142.39 188.75 142.42 189.86 143.12 190.52 Z"
      fill="black"
      fill-rule="nonzero" /><path d="M 131.52 142.34 L 130.48 141.67 C 129.37 140.96 127.89 141.28 127.18 142.39 C 126.46 143.49 126.78 144.97 127.89 145.69 L 128.93 146.36 C 130.04 147.07 131.52 146.75 132.23 145.65 C 132.95 144.54 132.63 143.06 131.52 142.34 Z M 130.78 141.86 L 130.03 141.20 C 129.02 140.32 127.49 140.42 126.61 141.43 C 125.73 142.43 125.83 143.96 126.84 144.84 L 127.59 145.50 C 128.60 146.38 130.13 146.28 131.01 145.28 C 131.89 144.27 131.79 142.74 130.78 141.86 Z M 130.80 142.35 L 130.62 141.71 C 130.24 140.41 128.88 139.65 127.58 140.03 C 126.27 140.40 125.52 141.76 125.89 143.06 L 126.07 143.70 C 126.44 145.00 127.80 145.76 129.11 145.38 C 130.41 145.01 131.17 143.65 130.80 142.35 Z M 130.13 144.00 L 130.56 143.50 C 131.45 142.46 131.34 140.90 130.30 140.01 C 129.27 139.12 127.71 139.23 126.82 140.27 L 126.38 140.77 C 125.49 141.81 125.60 143.37 126.64 144.26 C 127.68 145.15 129.24 145.04 130.13 144.00 Z M 129.88 144.05 L 130.74 143.58 C 131.93 142.92 132.37 141.42 131.72 140.22 C 131.06 139.03 129.56 138.59 128.36 139.24 L 127.50 139.71 C 126.30 140.37 125.86 141.87 126.52 143.07 C 127.18 144.27 128.68 144.71 129.88 144.05 Z M 130.43 143.72 L 131.54 143.29 C 132.82 142.81 133.45 141.38 132.96 140.10 C 132.48 138.83 131.05 138.19 129.77 138.68 L 128.66 139.10 C 127.39 139.59 126.75 141.02 127.24 142.30 C 127.73 143.57 129.16 144.21 130.43 143.72 Z M 131.39 143.34 L 132.47 143.00 C 133.77 142.60 134.49 141.21 134.08 139.91 C 133.68 138.61 132.29 137.89 130.99 138.30 L 129.92 138.63 C 128.62 139.04 127.90 140.42 128.30 141.72 C 128.71 143.02 130.09 143.75 131.39 143.34 Z M 132.37 143.01 L 133.32 142.76 C 134.63 142.40 135.40 141.05 135.04 139.75 C 134.69 138.44 133.34 137.67 132.04 138.03 L 131.09 138.29 C 129.78 138.64 129.01 139.99 129.37 141.29 C 129.72 142.60 131.07 143.37 132.37 143.01 Z M 133.24 142.75 L 134.20 142.53 C 135.51 142.22 136.31 140.91 136.00 139.60 C 135.69 138.30 134.39 137.49 133.08 137.80 L 132.12 138.03 C 130.82 138.34 130.01 139.65 130.32 140.95 C 130.63 142.26 131.94 143.06 133.24 142.75 Z M 134.12 142.52 L 135.11 142.32 C 136.41 142.05 137.25 140.78 136.98 139.48 C 136.71 138.18 135.44 137.34 134.14 137.60 L 133.16 137.81 C 131.85 138.07 131.01 139.35 131.28 140.65 C 131.55 141.95 132.82 142.79 134.12 142.52 Z M 135.04 142.31 L 136.05 142.13 C 137.35 141.90 138.21 140.66 137.98 139.36 C 137.75 138.07 136.51 137.20 135.22 137.43 L 134.20 137.61 C 132.91 137.84 132.04 139.08 132.27 140.38 C 132.50 141.68 133.74 142.54 135.04 142.31 Z M 136.00 142.12 L 136.86 141.99 C 138.15 141.79 139.04 140.57 138.83 139.28 C 138.63 137.99 137.42 137.10 136.12 137.31 L 135.27 137.44 C 133.97 137.64 133.09 138.86 133.29 140.15 C 133.50 141.44 134.71 142.33 136.00 142.12 Z M 136.82 141.99 L 137.72 141.86 C 139.01 141.68 139.91 140.48 139.73 139.19 C 139.55 137.90 138.36 137.00 137.07 137.18 L 136.16 137.31 C 134.87 137.49 133.97 138.68 134.15 139.98 C 134.33 141.27 135.53 142.17 136.82 141.99 Z M 137.68 141.85 L 138.64 141.73 C 139.93 141.57 140.85 140.40 140.69 139.11 C 140.52 137.82 139.35 136.91 138.06 137.07 L 137.10 137.19 C 135.81 137.35 134.90 138.52 135.06 139.81 C 135.22 141.10 136.40 142.01 137.68 141.85 Z M 138.61 141.73 L 139.65 141.61 C 140.93 141.47 141.85 140.31 141.71 139.03 C 141.57 137.74 140.41 136.82 139.13 136.96 L 138.09 137.08 C 136.81 137.22 135.88 138.38 136.03 139.66 C 136.17 140.95 137.33 141.87 138.61 141.73 Z M 139.62 141.60 L 140.74 141.49 C 142.02 141.36 142.95 140.22 142.82 138.94 C 142.69 137.66 141.55 136.73 140.27 136.85 L 139.15 136.97 C 137.87 137.10 136.94 138.24 137.07 139.52 C 137.20 140.80 138.34 141.73 139.62 141.60 Z M 140.72 141.48 L 141.77 141.39 C 143.05 141.27 143.99 140.14 143.87 138.86 C 143.75 137.59 142.62 136.65 141.35 136.76 L 140.29 136.86 C 139.01 136.98 138.07 138.11 138.19 139.39 C 138.31 140.66 139.44 141.60 140.72 141.48 Z M 141.76 141.38 L 142.72 141.30 C 144.00 141.19 144.94 140.07 144.83 138.79 C 144.72 137.52 143.60 136.57 142.33 136.68 L 141.36 136.77 C 140.08 136.88 139.14 138.00 139.25 139.28 C 139.36 140.55 140.48 141.49 141.76 141.38 Z M 142.71 141.30 L 143.72 141.22 C 144.99 141.11 145.94 139.99 145.83 138.72 C 145.73 137.45 144.61 136.50 143.34 136.60 L 142.34 136.69 C 141.06 136.79 140.11 137.91 140.22 139.18 C 140.32 140.45 141.44 141.40 142.71 141.30 Z M 143.71 141.21 L 144.73 141.13 C 146.00 141.03 146.95 139.92 146.86 138.65 C 146.76 137.38 145.64 136.43 144.37 136.53 L 143.35 136.61 C 142.07 136.71 141.12 137.82 141.22 139.09 C 141.32 140.36 142.44 141.31 143.71 141.21 Z M 144.72 141.13 L 145.76 141.05 C 147.03 140.96 147.98 139.85 147.88 138.58 C 147.79 137.31 146.68 136.36 145.41 136.45 L 144.38 136.53 C 143.11 136.62 142.16 137.73 142.25 139.00 C 142.35 140.27 143.45 141.23 144.72 141.13 Z M 145.75 141.05 L 146.77 140.98 C 148.04 140.88 148.99 139.78 148.90 138.51 C 148.81 137.24 147.71 136.29 146.44 136.38 L 145.42 136.45 C 144.15 136.55 143.19 137.65 143.29 138.92 C 143.38 140.19 144.48 141.14 145.75 141.05 Z M 146.77 140.97 L 147.76 140.90 C 149.03 140.81 149.99 139.72 149.90 138.45 C 149.81 137.18 148.71 136.22 147.44 136.31 L 146.44 136.38 C 145.18 136.47 144.22 137.57 144.31 138.84 C 144.40 140.11 145.50 141.06 146.77 140.97 Z M 147.76 140.90 L 148.75 140.83 C 150.02 140.75 150.98 139.65 150.89 138.39 C 150.80 137.12 149.71 136.16 148.44 136.25 L 147.45 136.32 C 146.18 136.40 145.23 137.50 145.31 138.76 C 145.40 140.03 146.49 140.99 147.76 140.90 Z M 148.75 140.83 L 149.84 140.76 C 151.10 140.68 152.06 139.59 151.98 138.32 C 151.90 137.06 150.81 136.10 149.54 136.18 L 148.45 136.25 C 147.19 136.33 146.23 137.42 146.31 138.69 C 146.39 139.95 147.48 140.91 148.75 140.83 Z M 149.83 140.76 L 150.86 140.69 C 152.12 140.62 153.08 139.53 153.01 138.27 C 152.93 137.01 151.85 136.05 150.58 136.12 L 149.55 136.19 C 148.29 136.26 147.33 137.35 147.40 138.61 C 147.48 139.87 148.56 140.83 149.83 140.76 Z M 150.85 140.69 L 151.83 140.64 C 153.10 140.57 154.06 139.49 153.99 138.23 C 153.93 136.97 152.85 136.00 151.59 136.07 L 150.60 136.13 C 149.34 136.19 148.37 137.27 148.44 138.53 C 148.51 139.79 149.58 140.76 150.85 140.69 Z M 151.82 140.64 L 152.78 140.59 C 154.04 140.53 155.01 139.46 154.95 138.20 C 154.89 136.94 153.82 135.97 152.56 136.03 L 151.60 136.08 C 150.34 136.14 149.37 137.20 149.43 138.46 C 149.49 139.72 150.56 140.69 151.82 140.64 Z M 152.76 140.59 L 153.71 140.55 C 154.96 140.50 155.94 139.44 155.89 138.18 C 155.84 136.93 154.78 135.95 153.53 136.00 L 152.58 136.03 C 151.32 136.08 150.35 137.14 150.39 138.40 C 150.44 139.66 151.50 140.64 152.76 140.59 Z M 153.69 140.55 L 154.63 140.52 C 155.89 140.48 156.88 139.43 156.84 138.18 C 156.80 136.92 155.75 135.93 154.49 135.97 L 153.55 136.00 C 152.29 136.04 151.30 137.09 151.34 138.34 C 151.38 139.60 152.43 140.59 153.69 140.55 Z M 154.61 140.52 L 155.59 140.50 C 156.84 140.47 157.84 139.43 157.81 138.17 C 157.79 136.92 156.75 135.92 155.49 135.95 L 154.51 135.97 C 153.26 136.00 152.26 137.04 152.29 138.29 C 152.32 139.55 153.36 140.54 154.61 140.52 Z M 155.57 140.50 L 156.56 140.48 C 157.82 140.47 158.82 139.43 158.80 138.18 C 158.78 136.92 157.75 135.92 156.50 135.94 L 155.51 135.95 C 154.25 135.97 153.25 137.00 153.27 138.26 C 153.29 139.51 154.32 140.51 155.57 140.50 Z M 156.55 140.48 L 157.55 140.48 C 158.80 140.46 159.81 139.44 159.80 138.18 C 159.79 136.93 158.76 135.92 157.51 135.93 L 156.51 135.94 C 155.25 135.95 154.25 136.97 154.26 138.23 C 154.27 139.48 155.29 140.49 156.55 140.48 Z M 157.54 140.48 L 158.54 140.47 C 159.80 140.47 160.81 139.44 160.81 138.19 C 160.80 136.93 159.78 135.92 158.53 135.92 L 157.52 135.93 C 156.26 135.93 155.25 136.96 155.25 138.21 C 155.26 139.47 156.28 140.48 157.54 140.48 Z M 158.54 140.47 L 159.55 140.47 C 160.81 140.47 161.82 139.45 161.82 138.19 C 161.82 136.94 160.80 135.92 159.55 135.92 L 158.53 135.92 C 157.28 135.93 156.26 136.94 156.26 138.20 C 156.26 139.46 157.28 140.47 158.54 140.47 Z M 159.55 140.47 L 160.57 140.47 C 161.82 140.47 162.84 139.45 162.84 138.20 C 162.84 136.94 161.82 135.92 160.57 135.92 L 159.55 135.92 C 158.29 135.92 157.27 136.94 157.28 138.20 C 157.28 139.45 158.29 140.47 159.55 140.47 Z M 160.57 140.47 L 161.58 140.47 C 162.84 140.47 163.86 139.45 163.86 138.20 C 163.86 136.94 162.84 135.92 161.58 135.92 L 160.57 135.92 C 159.31 135.92 158.29 136.94 158.29 138.20 C 158.29 139.45 159.31 140.47 160.57 140.47 Z M 161.58 140.47 L 162.60 140.47 C 163.85 140.47 164.87 139.45 164.87 138.20 C 164.87 136.94 163.85 135.92 162.60 135.92 L 161.58 135.92 C 160.33 135.92 159.31 136.94 159.31 138.20 C 159.31 139.45 160.33 140.47 161.58 140.47 Z M 162.60 140.47 L 163.60 140.47 C 164.86 140.47 165.88 139.45 165.88 138.20 C 165.88 136.94 164.86 135.93 163.60 135.93 L 162.60 135.93 C 161.34 135.93 160.33 136.94 160.33 138.20 C 160.33 139.45 161.34 140.47 162.60 140.47 Z M 163.60 140.47 L 164.60 140.47 C 165.86 140.47 166.87 139.45 166.87 138.20 C 166.87 136.94 165.86 135.93 164.60 135.93 L 163.60 135.93 C 162.35 135.93 161.34 136.94 161.34 138.20 C 161.34 139.45 162.35 140.47 163.60 140.47 Z M 164.60 140.46 L 165.59 140.46 C 166.84 140.46 167.86 139.45 167.86 138.20 C 167.86 136.94 166.84 135.93 165.59 135.93 L 164.60 135.93 C 163.35 135.93 162.34 136.94 162.34 138.20 C 162.34 139.45 163.35 140.46 164.60 140.46 Z M 165.59 140.46 L 166.57 140.46 C 167.83 140.46 168.84 139.45 168.84 138.20 C 168.84 136.94 167.83 135.93 166.57 135.93 L 165.59 135.93 C 164.34 135.93 163.32 136.94 163.32 138.20 C 163.32 139.45 164.34 140.46 165.59 140.46 Z M 166.57 140.46 L 167.62 140.46 C 168.87 140.46 169.88 139.45 169.88 138.20 C 169.88 136.95 168.87 135.93 167.62 135.93 L 166.58 135.93 C 165.32 135.93 164.31 136.94 164.31 138.19 C 164.31 139.45 165.32 140.46 166.57 140.46 Z M 167.61 140.46 L 168.63 140.46 C 169.88 140.47 170.90 139.46 170.90 138.21 C 170.91 136.96 169.90 135.94 168.65 135.94 L 167.63 135.93 C 166.38 135.93 165.36 136.94 165.36 138.19 C 165.35 139.44 166.36 140.45 167.61 140.46 Z M 168.62 140.46 L 169.62 140.47 C 170.86 140.48 171.89 139.48 171.90 138.23 C 171.91 136.99 170.91 135.96 169.66 135.95 L 168.66 135.94 C 167.42 135.93 166.39 136.93 166.38 138.18 C 166.37 139.43 167.37 140.45 168.62 140.46 Z M 169.60 140.47 L 170.57 140.49 C 171.82 140.51 172.85 139.52 172.87 138.27 C 172.90 137.03 171.91 136.00 170.66 135.97 L 169.68 135.95 C 168.44 135.93 167.41 136.92 167.38 138.17 C 167.36 139.41 168.35 140.44 169.60 140.47 Z M 170.55 140.48 L 171.51 140.51 C 172.75 140.55 173.79 139.58 173.83 138.33 C 173.87 137.09 172.90 136.05 171.65 136.01 L 170.69 135.98 C 169.45 135.94 168.41 136.91 168.37 138.16 C 168.33 139.40 169.30 140.44 170.55 140.48 Z M 171.47 140.51 L 172.47 140.56 C 173.71 140.62 174.77 139.66 174.83 138.42 C 174.89 137.18 173.93 136.12 172.69 136.06 L 171.69 136.01 C 170.45 135.95 169.39 136.91 169.33 138.15 C 169.27 139.39 170.23 140.45 171.47 140.51 Z M 172.43 140.55 L 173.44 140.62 C 174.67 140.71 175.75 139.77 175.83 138.54 C 175.92 137.30 174.98 136.22 173.75 136.14 L 172.74 136.07 C 171.50 135.98 170.43 136.92 170.34 138.15 C 170.25 139.39 171.19 140.47 172.43 140.55 Z M 173.38 140.61 L 174.38 140.71 C 175.61 140.82 176.71 139.91 176.82 138.68 C 176.93 137.45 176.03 136.35 174.79 136.24 L 173.80 136.15 C 172.56 136.03 171.47 136.94 171.36 138.17 C 171.24 139.41 172.15 140.50 173.38 140.61 Z M 174.32 140.70 L 175.30 140.81 C 176.53 140.96 177.65 140.08 177.79 138.86 C 177.94 137.63 177.06 136.51 175.84 136.37 L 174.85 136.25 C 173.62 136.10 172.51 136.98 172.36 138.21 C 172.22 139.43 173.09 140.55 174.32 140.70 Z M 175.24 140.80 L 176.21 140.95 C 177.44 141.13 178.57 140.29 178.76 139.06 C 178.94 137.84 178.09 136.71 176.87 136.52 L 175.90 136.38 C 174.68 136.20 173.54 137.04 173.36 138.26 C 173.18 139.48 174.02 140.62 175.24 140.80 Z M 176.15 140.93 L 177.16 141.12 C 178.37 141.34 179.53 140.53 179.75 139.32 C 179.97 138.10 179.17 136.94 177.95 136.72 L 176.94 136.54 C 175.73 136.32 174.57 137.12 174.35 138.34 C 174.13 139.55 174.93 140.71 176.15 140.93 Z M 177.09 141.10 L 178.10 141.32 C 179.31 141.58 180.49 140.81 180.75 139.61 C 181.01 138.40 180.25 137.22 179.04 136.96 L 178.03 136.74 C 176.82 136.48 175.63 137.24 175.37 138.45 C 175.12 139.65 175.88 140.84 177.09 141.10 Z M 178.03 141.30 L 179.02 141.55 C 180.21 141.84 181.42 141.12 181.72 139.92 C 182.02 138.73 181.29 137.52 180.10 137.22 L 179.11 136.97 C 177.92 136.68 176.71 137.40 176.41 138.60 C 176.11 139.79 176.84 141.00 178.03 141.30 Z M 178.95 141.52 L 179.89 141.79 C 181.07 142.13 182.30 141.45 182.64 140.26 C 182.98 139.08 182.29 137.85 181.11 137.51 L 180.17 137.24 C 178.99 136.90 177.75 137.59 177.42 138.77 C 177.08 139.95 177.76 141.19 178.95 141.52 Z M 179.81 141.77 L 180.70 142.06 C 181.87 142.44 183.12 141.80 183.50 140.63 C 183.88 139.46 183.24 138.20 182.07 137.82 L 181.19 137.54 C 180.02 137.16 178.76 137.80 178.38 138.97 C 178.00 140.13 178.64 141.39 179.81 141.77 Z M 180.60 142.02 L 181.63 142.41 C 182.78 142.84 184.06 142.26 184.50 141.11 C 184.93 139.96 184.34 138.67 183.19 138.24 L 182.17 137.86 C 181.02 137.43 179.73 138.01 179.30 139.16 C 178.87 140.31 179.45 141.59 180.60 142.02 Z M 181.52 142.36 L 182.45 142.77 C 183.58 143.26 184.89 142.75 185.38 141.63 C 185.87 140.50 185.36 139.19 184.24 138.70 L 183.31 138.29 C 182.18 137.79 180.87 138.31 180.38 139.43 C 179.88 140.56 180.39 141.87 181.52 142.36 Z M 182.34 142.72 L 183.18 143.15 C 184.28 143.70 185.62 143.27 186.18 142.17 C 186.73 141.07 186.29 139.73 185.20 139.18 L 184.35 138.75 C 183.25 138.19 181.91 138.63 181.36 139.73 C 180.80 140.82 181.24 142.16 182.34 142.72 Z M 183.07 143.09 L 183.89 143.57 C 184.96 144.18 186.32 143.82 186.94 142.76 C 187.56 141.70 187.19 140.33 186.13 139.72 L 185.31 139.24 C 184.25 138.62 182.88 138.98 182.27 140.04 C 181.65 141.11 182.01 142.47 183.07 143.09 Z M 183.77 143.50 L 184.62 144.06 C 185.64 144.75 187.03 144.48 187.71 143.45 C 188.40 142.43 188.13 141.04 187.10 140.35 L 186.26 139.79 C 185.23 139.10 183.84 139.37 183.16 140.40 C 182.47 141.42 182.74 142.81 183.77 143.50 Z M 184.47 143.97 L 185.25 144.58 C 186.22 145.35 187.63 145.18 188.39 144.21 C 189.16 143.24 189.00 141.83 188.02 141.06 L 187.25 140.45 C 186.28 139.68 184.87 139.85 184.10 140.82 C 183.33 141.79 183.50 143.20 184.47 143.97 Z M 185.09 144.46 L 185.80 145.13 C 186.71 145.98 188.13 145.94 188.98 145.03 C 189.84 144.12 189.79 142.70 188.89 141.85 L 188.18 141.18 C 187.27 140.33 185.85 140.37 184.99 141.28 C 184.14 142.18 184.19 143.61 185.09 144.46 Z M 185.64 144.97 L 186.28 145.71 C 187.10 146.66 188.53 146.76 189.47 145.94 C 190.42 145.12 190.52 143.69 189.70 142.75 L 189.05 142.00 C 188.23 141.06 186.80 140.96 185.86 141.78 C 184.92 142.60 184.82 144.03 185.64 144.97 Z M 186.08 145.48 L 186.63 146.31 C 187.32 147.36 188.73 147.66 189.78 146.97 C 190.84 146.28 191.13 144.86 190.44 143.81 L 189.89 142.98 C 189.20 141.93 187.79 141.63 186.74 142.32 C 185.69 143.02 185.39 144.43 186.08 145.48 Z M 186.44 145.99 L 186.85 146.92 C 187.36 148.08 188.71 148.60 189.87 148.09 C 191.03 147.58 191.56 146.23 191.04 145.07 L 190.63 144.13 C 190.12 142.98 188.77 142.45 187.61 142.96 C 186.45 143.47 185.92 144.83 186.44 145.99 Z M 186.70 146.58 L 186.95 147.52 C 187.27 148.76 188.54 149.50 189.78 149.18 C 191.02 148.85 191.76 147.58 191.43 146.34 L 191.19 145.41 C 190.87 144.17 189.60 143.43 188.36 143.75 C 187.12 144.07 186.38 145.34 186.70 146.58 Z M 186.86 147.28 L 187.01 148.27 C 187.20 149.56 188.40 150.45 189.69 150.26 C 190.97 150.06 191.86 148.87 191.67 147.58 L 191.52 146.59 C 191.33 145.30 190.13 144.41 188.84 144.60 C 187.56 144.79 186.67 145.99 186.86 147.28 Z M 186.96 148.12 L 187.04 149.13 C 187.15 150.45 188.30 151.43 189.61 151.32 C 190.92 151.22 191.90 150.07 191.80 148.76 L 191.72 147.74 C 191.61 146.42 190.46 145.44 189.15 145.55 C 187.84 145.65 186.86 146.80 186.96 148.12 Z M 187.01 149.04 L 187.05 150.05 C 187.10 151.39 188.23 152.42 189.56 152.37 C 190.89 152.31 191.93 151.19 191.88 149.86 L 191.83 148.85 C 191.78 147.51 190.65 146.48 189.32 146.53 C 187.99 146.59 186.95 147.71 187.01 149.04 Z M 187.03 149.94 L 187.02 150.93 C 187.01 152.27 188.09 153.37 189.44 153.38 C 190.78 153.39 191.88 152.31 191.89 150.96 L 191.90 149.97 C 191.91 148.63 190.82 147.53 189.48 147.52 C 188.13 147.51 187.04 148.59 187.03 149.94 Z M 187.02 150.72 L 186.92 151.71 C 186.80 153.05 187.79 154.25 189.14 154.37 C 190.48 154.50 191.68 153.50 191.80 152.16 L 191.89 151.17 C 192.02 149.83 191.03 148.63 189.68 148.51 C 188.33 148.38 187.14 149.37 187.02 150.72 Z M 186.95 151.43 L 186.75 152.37 C 186.48 153.70 187.33 155.01 188.66 155.29 C 190.00 155.57 191.30 154.71 191.58 153.38 L 191.78 152.43 C 192.05 151.10 191.20 149.80 189.87 149.52 C 188.53 149.24 187.23 150.10 186.95 151.43 Z M 186.81 152.11 L 186.56 152.90 C 186.13 154.20 186.84 155.60 188.14 156.02 C 189.44 156.44 190.84 155.73 191.26 154.43 L 191.52 153.64 C 191.94 152.34 191.23 150.95 189.93 150.52 C 188.63 150.10 187.24 150.81 186.81 152.11 Z M 186.62 152.70 L 186.26 153.54 C 185.73 154.81 186.33 156.27 187.59 156.80 C 188.86 157.33 190.31 156.74 190.85 155.47 L 191.20 154.63 C 191.73 153.36 191.14 151.91 189.87 151.37 C 188.61 150.84 187.15 151.44 186.62 152.70 Z M 186.32 153.40 L 185.86 154.33 C 185.25 155.56 185.75 157.06 186.98 157.67 C 188.22 158.29 189.72 157.78 190.33 156.55 L 190.79 155.62 C 191.40 154.38 190.90 152.89 189.66 152.27 C 188.43 151.66 186.93 152.16 186.32 153.40 Z M 185.90 154.23 L 185.32 155.28 C 184.65 156.49 185.10 158.02 186.31 158.68 C 187.52 159.35 189.04 158.91 189.71 157.70 L 190.29 156.65 C 190.95 155.43 190.51 153.91 189.30 153.24 C 188.09 152.58 186.57 153.02 185.90 154.23 Z M 185.34 155.23 L 184.83 156.11 C 184.14 157.31 184.54 158.84 185.74 159.54 C 186.94 160.24 188.48 159.83 189.18 158.63 L 189.69 157.75 C 190.38 156.55 189.98 155.01 188.78 154.32 C 187.58 153.62 186.04 154.03 185.34 155.23 Z M 184.84 156.08 L 184.33 156.94 C 183.61 158.14 184.00 159.68 185.20 160.39 C 186.39 161.11 187.93 160.72 188.65 159.52 L 189.16 158.66 C 189.88 157.47 189.49 155.92 188.29 155.21 C 187.10 154.50 185.56 154.89 184.84 156.08 Z M 184.33 156.93 L 183.79 157.82 C 183.07 159.01 183.45 160.56 184.64 161.28 C 185.83 162.00 187.38 161.63 188.10 160.44 L 188.64 159.54 C 189.36 158.35 188.98 156.80 187.80 156.08 C 186.61 155.36 185.06 155.74 184.33 156.93 Z M 183.79 157.81 L 183.24 158.70 C 182.51 159.89 182.89 161.45 184.07 162.18 C 185.26 162.90 186.82 162.53 187.54 161.35 L 188.10 160.45 C 188.82 159.26 188.45 157.71 187.26 156.98 C 186.08 156.25 184.52 156.62 183.79 157.81 Z M 183.24 158.70 L 182.70 159.57 C 181.97 160.76 182.34 162.32 183.53 163.05 C 184.71 163.78 186.27 163.41 187.01 162.23 L 187.54 161.35 C 188.28 160.16 187.91 158.61 186.72 157.87 C 185.53 157.14 183.98 157.51 183.24 158.70 Z M 182.70 159.57 L 182.19 160.39 C 181.46 161.58 181.82 163.14 183.01 163.88 C 184.20 164.61 185.76 164.24 186.50 163.05 L 187.01 162.23 C 187.74 161.04 187.37 159.48 186.18 158.74 C 184.99 158.01 183.43 158.38 182.70 159.57 Z M 182.18 160.40 L 181.63 161.31 C 180.90 162.50 181.27 164.06 182.46 164.79 C 183.66 165.52 185.22 165.15 185.95 163.96 L 186.51 163.05 C 187.24 161.86 186.86 160.30 185.67 159.56 C 184.48 158.83 182.92 159.21 182.18 160.40 Z M 181.62 161.32 L 181.02 162.31 C 180.29 163.51 180.67 165.07 181.87 165.80 C 183.07 166.52 184.62 166.14 185.35 164.94 L 185.96 163.95 C 186.68 162.75 186.30 161.19 185.10 160.46 C 183.91 159.74 182.35 160.12 181.62 161.32 Z M 181.02 162.31 L 180.51 163.15 C 179.78 164.35 180.16 165.91 181.36 166.64 C 182.56 167.36 184.11 166.98 184.84 165.78 L 185.35 164.94 C 186.08 163.75 185.69 162.19 184.50 161.46 C 183.30 160.74 181.74 161.12 181.02 162.31 Z M 180.52 163.13 L 180.07 163.86 C 179.33 165.05 179.70 166.62 180.89 167.35 C 182.07 168.09 183.64 167.72 184.37 166.54 L 184.83 165.80 C 185.56 164.61 185.20 163.05 184.01 162.32 C 182.82 161.58 181.26 161.94 180.52 163.13 Z M 180.10 163.82 L 179.62 164.55 C 178.86 165.72 179.19 167.29 180.36 168.05 C 181.53 168.81 183.10 168.48 183.87 167.31 L 184.34 166.58 C 185.10 165.41 184.77 163.84 183.60 163.08 C 182.43 162.32 180.86 162.65 180.10 163.82 Z M 179.67 164.49 L 179.10 165.31 C 178.30 166.46 178.59 168.03 179.74 168.83 C 180.88 169.62 182.46 169.34 183.25 168.19 L 183.82 167.37 C 184.62 166.22 184.33 164.65 183.18 163.85 C 182.04 163.06 180.46 163.34 179.67 164.49 Z M 179.13 165.28 L 178.55 166.09 C 177.74 167.22 178.00 168.80 179.13 169.61 C 180.26 170.42 181.83 170.16 182.64 169.03 L 183.22 168.22 C 184.03 167.09 183.77 165.51 182.64 164.70 C 181.51 163.89 179.94 164.15 179.13 165.28 Z M 178.55 166.10 L 177.97 166.91 C 177.17 168.04 177.43 169.61 178.56 170.42 C 179.69 171.22 181.26 170.96 182.06 169.83 L 182.64 169.02 C 183.45 167.89 183.18 166.32 182.05 165.51 C 180.92 164.71 179.36 164.97 178.55 166.10 Z M 177.96 166.95 L 177.40 167.76 C 176.61 168.90 176.89 170.46 178.03 171.24 C 179.17 172.03 180.73 171.74 181.51 170.61 L 182.08 169.80 C 182.86 168.66 182.58 167.10 181.44 166.31 C 180.30 165.53 178.75 165.81 177.96 166.95 Z M 177.39 167.79 L 176.83 168.62 C 176.05 169.76 176.35 171.31 177.50 172.08 C 178.64 172.85 180.19 172.55 180.96 171.41 L 181.52 170.58 C 182.29 169.44 181.99 167.89 180.85 167.12 C 179.71 166.35 178.16 166.64 177.39 167.79 Z M 176.83 168.63 L 176.26 169.47 C 175.50 170.61 175.81 172.16 176.95 172.92 C 178.09 173.68 179.63 173.38 180.40 172.24 L 180.96 171.40 C 181.72 170.25 181.42 168.71 180.27 167.95 C 179.13 167.18 177.59 167.49 176.83 168.63 Z M 176.27 169.48 L 175.72 170.31 C 174.96 171.45 175.26 172.99 176.40 173.75 C 177.54 174.51 179.08 174.20 179.83 173.06 L 180.39 172.23 C 181.15 171.09 180.84 169.55 179.70 168.80 C 178.57 168.04 177.03 168.34 176.27 169.48 Z M 175.73 170.32 L 175.17 171.15 C 174.42 172.29 174.72 173.81 175.85 174.57 C 176.99 175.32 178.51 175.02 179.27 173.89 L 179.82 173.05 C 180.58 171.92 180.27 170.39 179.14 169.64 C 178.01 168.89 176.48 169.19 175.73 170.32 Z M 175.18 171.16 L 174.63 171.99 C 173.88 173.12 174.18 174.64 175.31 175.39 C 176.43 176.14 177.95 175.84 178.70 174.71 L 179.26 173.88 C 180.01 172.75 179.70 171.23 178.58 170.48 C 177.45 169.73 175.93 170.04 175.18 171.16 Z M 174.64 172.00 L 174.08 172.83 C 173.34 173.95 173.64 175.46 174.76 176.21 C 175.88 176.96 177.39 176.66 178.14 175.54 L 178.69 174.70 C 179.44 173.58 179.14 172.07 178.02 171.33 C 176.90 170.58 175.39 170.88 174.64 172.00 Z M 174.10 172.83 L 173.54 173.67 C 172.80 174.78 173.09 176.28 174.20 177.03 C 175.31 177.77 176.82 177.48 177.56 176.37 L 178.12 175.54 C 178.87 174.42 178.57 172.92 177.46 172.17 C 176.35 171.43 174.85 171.72 174.10 172.83 Z M 173.57 173.66 L 173.00 174.48 C 172.25 175.58 172.53 177.08 173.63 177.83 C 174.72 178.58 176.22 178.30 176.97 177.20 L 177.54 176.38 C 178.29 175.28 178.01 173.78 176.91 173.03 C 175.81 172.28 174.32 172.56 173.57 173.66 Z M 173.03 174.46 L 172.47 175.25 C 171.71 176.33 171.97 177.82 173.05 178.59 C 174.13 179.35 175.62 179.09 176.38 178.01 L 176.94 177.22 C 177.70 176.14 177.45 174.65 176.37 173.89 C 175.29 173.12 173.79 173.38 173.03 174.46 Z M 172.51 175.23 L 171.99 175.94 C 171.22 177.00 171.45 178.49 172.51 179.26 C 173.57 180.03 175.06 179.80 175.83 178.74 L 176.35 178.03 C 177.12 176.97 176.89 175.48 175.83 174.71 C 174.77 173.94 173.28 174.17 172.51 175.23 Z M 172.01 175.94 L 171.45 176.70 C 170.68 177.75 170.90 179.23 171.95 180.00 C 173.00 180.78 174.48 180.55 175.25 179.50 L 175.81 178.74 C 176.58 177.69 176.36 176.21 175.31 175.44 C 174.26 174.67 172.78 174.89 172.01 175.94 Z M 171.46 176.72 L 170.82 177.59 C 170.06 178.63 170.29 180.10 171.34 180.86 C 172.38 181.63 173.85 181.40 174.61 180.35 L 175.24 179.48 C 176.01 178.44 175.78 176.97 174.73 176.21 C 173.68 175.45 172.22 175.68 171.46 176.72 Z M 170.83 177.61 L 170.20 178.48 C 169.45 179.53 169.70 180.98 170.74 181.73 C 171.79 182.48 173.24 182.24 173.99 181.19 L 174.61 180.32 C 175.36 179.28 175.12 177.82 174.07 177.07 C 173.03 176.33 171.57 176.57 170.83 177.61 Z M 170.20 178.50 L 169.69 179.23 C 168.96 180.27 169.21 181.72 170.25 182.45 C 171.30 183.19 172.74 182.94 173.48 181.90 L 173.99 181.17 C 174.73 180.13 174.48 178.68 173.43 177.95 C 172.39 177.21 170.94 177.46 170.20 178.50 Z M 169.70 179.23 L 169.15 180.01 C 168.42 181.05 168.67 182.49 169.71 183.22 C 170.75 183.96 172.19 183.71 172.92 182.67 L 173.47 181.89 C 174.20 180.85 173.95 179.41 172.92 178.68 C 171.88 177.95 170.44 178.19 169.70 179.23 Z M 169.17 180.01 L 168.58 180.84 C 167.85 181.87 168.09 183.30 169.12 184.03 C 170.15 184.77 171.58 184.53 172.32 183.50 L 172.90 182.67 C 173.64 181.64 173.40 180.21 172.37 179.47 C 171.33 178.74 169.90 178.98 169.17 180.01 Z M 168.60 180.83 L 167.98 181.68 C 167.24 182.71 167.47 184.13 168.49 184.87 C 169.51 185.61 170.94 185.38 171.68 184.36 L 172.30 183.50 C 173.04 182.48 172.81 181.06 171.79 180.32 C 170.77 179.58 169.34 179.81 168.60 180.83 Z M 168.01 181.67 L 167.36 182.54 C 166.61 183.55 166.82 184.97 167.83 185.72 C 168.84 186.47 170.26 186.25 171.01 185.25 L 171.65 184.37 C 172.40 183.37 172.19 181.94 171.18 181.20 C 170.17 180.45 168.75 180.66 168.01 181.67 Z M 167.39 182.53 L 166.73 183.39 C 165.97 184.38 166.16 185.79 167.15 186.55 C 168.14 187.31 169.56 187.12 170.32 186.13 L 170.98 185.26 C 171.73 184.27 171.54 182.86 170.55 182.10 C 169.56 181.35 168.15 181.54 167.39 182.53 Z M 166.77 183.37 L 166.12 184.20 C 165.36 185.16 165.52 186.57 166.49 187.33 C 167.45 188.10 168.86 187.94 169.62 186.97 L 170.28 186.14 C 171.04 185.18 170.88 183.77 169.91 183.01 C 168.94 182.24 167.54 182.41 166.77 183.37 Z M 166.17 184.18 L 165.50 184.99 C 164.73 185.93 164.87 187.32 165.81 188.10 C 166.75 188.87 168.14 188.73 168.92 187.79 L 169.58 186.98 C 170.35 186.04 170.21 184.65 169.27 183.88 C 168.33 183.10 166.94 183.24 166.17 184.18 Z M 165.55 184.98 L 164.89 185.76 C 164.11 186.68 164.22 188.05 165.13 188.83 C 166.05 189.61 167.42 189.50 168.20 188.58 L 168.87 187.80 C 169.65 186.89 169.54 185.51 168.62 184.73 C 167.71 183.95 166.33 184.06 165.55 184.98 Z M 164.94 185.75 L 164.27 186.49 C 163.49 187.38 163.57 188.74 164.45 189.53 C 165.34 190.31 166.70 190.23 167.49 189.35 L 168.15 188.60 C 168.94 187.71 168.86 186.35 167.97 185.56 C 167.08 184.78 165.72 184.86 164.94 185.75 Z M 164.33 186.47 L 163.67 187.18 C 162.88 188.03 162.92 189.38 163.78 190.17 C 164.64 190.97 165.98 190.92 166.78 190.07 L 167.43 189.36 C 168.23 188.51 168.18 187.16 167.33 186.37 C 166.47 185.57 165.13 185.62 164.33 186.47 Z M 163.74 187.15 L 163.10 187.80 C 162.29 188.63 162.30 189.95 163.12 190.76 C 163.95 191.57 165.27 191.56 166.08 190.74 L 166.72 190.09 C 167.53 189.27 167.52 187.94 166.70 187.13 C 165.87 186.32 164.55 186.33 163.74 187.15 Z M 163.19 187.77 L 162.33 188.57 C 161.51 189.35 161.47 190.64 162.24 191.47 C 163.01 192.30 164.31 192.34 165.14 191.57 L 165.99 190.77 C 166.82 189.99 166.86 188.70 166.09 187.87 C 165.31 187.04 164.02 187.00 163.19 187.77 Z M 162.46 188.54 L 161.64 189.22 C 160.79 189.93 160.67 191.18 161.38 192.03 C 162.08 192.87 163.33 192.99 164.18 192.29 L 165.01 191.60 C 165.85 190.90 165.97 189.64 165.27 188.80 C 164.57 187.95 163.31 187.83 162.46 188.54 Z M 161.79 189.18 L 161.00 189.74 C 160.13 190.36 159.92 191.56 160.54 192.43 C 161.16 193.30 162.36 193.51 163.23 192.89 L 164.02 192.33 C 164.89 191.71 165.10 190.51 164.48 189.64 C 163.87 188.77 162.66 188.56 161.79 189.18 Z M 161.18 189.69 L 160.42 190.13 C 159.53 190.65 159.22 191.79 159.73 192.68 C 160.25 193.58 161.39 193.89 162.28 193.38 L 163.05 192.94 C 163.94 192.42 164.25 191.28 163.74 190.39 C 163.22 189.49 162.08 189.18 161.18 189.69 Z M 160.66 190.08 L 159.79 190.44 C 158.87 190.82 158.43 191.88 158.81 192.81 C 159.20 193.74 160.26 194.17 161.19 193.79 L 162.05 193.43 C 162.98 193.05 163.42 191.98 163.03 191.06 C 162.64 190.13 161.58 189.69 160.66 190.08 Z M 160.07 190.39 L 159.08 190.63 C 158.12 190.86 157.54 191.82 157.77 192.78 C 158.01 193.73 158.97 194.31 159.92 194.08 L 160.91 193.84 C 161.87 193.60 162.45 192.64 162.22 191.69 C 161.98 190.74 161.02 190.15 160.07 190.39 Z M 159.30 190.62 L 158.33 190.73 C 157.38 190.84 156.69 191.71 156.80 192.67 C 156.91 193.63 157.78 194.31 158.74 194.20 L 159.70 194.09 C 160.66 193.98 161.35 193.11 161.24 192.15 C 161.13 191.20 160.26 190.51 159.30 190.62 Z M 158.44 190.75 L 157.68 190.79 C 156.73 190.85 156.01 191.66 156.06 192.61 C 156.12 193.56 156.93 194.28 157.88 194.23 L 158.64 194.18 C 159.58 194.13 160.31 193.32 160.25 192.37 C 160.20 191.42 159.38 190.69 158.44 190.75 Z"
      fill="black"
      fill-rule="nonzero" /><path d="M 142.77 170.22 L 143.66 169.71 C 144.77 169.07 145.16 167.65 144.52 166.53 C 143.88 165.42 142.46 165.04 141.34 165.68 L 140.46 166.18 C 139.35 166.82 138.96 168.24 139.60 169.36 C 140.24 170.47 141.66 170.85 142.77 170.22 Z M 143.64 169.72 L 144.52 169.22 C 145.64 168.60 146.04 167.18 145.41 166.06 C 144.79 164.94 143.37 164.54 142.25 165.17 L 141.37 165.66 C 140.25 166.29 139.85 167.71 140.47 168.83 C 141.10 169.95 142.52 170.35 143.64 169.72 Z M 144.47 169.25 L 145.36 168.78 C 146.49 168.18 146.92 166.78 146.32 165.64 C 145.72 164.51 144.32 164.08 143.18 164.68 L 142.30 165.14 C 141.17 165.74 140.73 167.15 141.33 168.28 C 141.93 169.42 143.34 169.85 144.47 169.25 Z M 145.28 168.82 L 146.17 168.39 C 147.32 167.83 147.80 166.44 147.24 165.29 C 146.69 164.14 145.30 163.65 144.14 164.21 L 143.26 164.64 C 142.11 165.20 141.62 166.59 142.18 167.74 C 142.74 168.89 144.13 169.38 145.28 168.82 Z M 146.06 168.43 L 146.93 168.06 C 148.11 167.56 148.66 166.20 148.16 165.02 C 147.66 163.85 146.30 163.30 145.12 163.80 L 144.25 164.17 C 143.07 164.67 142.52 166.03 143.02 167.21 C 143.52 168.39 144.88 168.93 146.06 168.43 Z M 146.82 168.10 L 147.68 167.78 C 148.88 167.34 149.50 166.02 149.06 164.82 C 148.62 163.62 147.30 163.01 146.10 163.45 L 145.23 163.76 C 144.03 164.20 143.42 165.53 143.86 166.72 C 144.29 167.92 145.62 168.54 146.82 168.10 Z M 147.60 167.80 L 148.50 167.51 C 149.71 167.12 150.37 165.83 149.98 164.62 C 149.60 163.41 148.30 162.75 147.09 163.14 L 146.19 163.43 C 144.98 163.82 144.32 165.11 144.70 166.32 C 145.09 167.53 146.39 168.19 147.60 167.80 Z M 148.45 167.52 L 149.42 167.23 C 150.63 166.87 151.32 165.60 150.96 164.39 C 150.60 163.18 149.33 162.48 148.12 162.84 L 147.15 163.13 C 145.94 163.49 145.25 164.76 145.61 165.97 C 145.96 167.18 147.23 167.87 148.45 167.52 Z M 149.39 167.22 L 150.46 166.92 C 151.67 166.57 152.37 165.32 152.02 164.11 C 151.68 162.90 150.42 162.20 149.21 162.54 L 148.15 162.85 C 146.94 163.19 146.24 164.45 146.58 165.66 C 146.93 166.87 148.19 167.57 149.39 167.22 Z M 150.46 166.91 L 151.37 166.65 C 152.57 166.30 153.27 165.05 152.92 163.85 C 152.58 162.64 151.32 161.95 150.12 162.29 L 149.21 162.55 C 148.01 162.90 147.31 164.15 147.66 165.36 C 148.00 166.56 149.26 167.25 150.46 166.91 Z M 151.38 166.64 L 152.27 166.38 C 153.47 166.03 154.16 164.77 153.81 163.58 C 153.46 162.38 152.21 161.69 151.01 162.04 L 150.11 162.30 C 148.92 162.65 148.23 163.91 148.58 165.10 C 148.93 166.30 150.18 166.99 151.38 166.64 Z M 152.28 166.37 L 153.22 166.09 C 154.41 165.73 155.09 164.48 154.74 163.29 C 154.38 162.10 153.13 161.42 151.94 161.77 L 151.00 162.05 C 149.81 162.41 149.13 163.66 149.49 164.85 C 149.84 166.04 151.09 166.72 152.28 166.37 Z M 153.23 166.07 L 154.21 165.78 C 155.39 165.42 156.06 164.17 155.70 162.98 C 155.34 161.80 154.09 161.13 152.91 161.49 L 151.93 161.79 C 150.75 162.15 150.08 163.40 150.44 164.58 C 150.80 165.77 152.05 166.43 153.23 166.07 Z M 154.22 165.76 L 155.22 165.45 C 156.40 165.08 157.05 163.83 156.69 162.66 C 156.32 161.48 155.07 160.82 153.89 161.19 L 152.89 161.50 C 151.71 161.87 151.06 163.12 151.43 164.30 C 151.79 165.48 153.05 166.13 154.22 165.76 Z M 155.24 165.44 L 156.25 165.11 C 157.42 164.74 158.06 163.48 157.68 162.31 C 157.31 161.14 156.05 160.50 154.88 160.88 L 153.87 161.20 C 152.70 161.58 152.06 162.83 152.44 164.00 C 152.81 165.17 154.07 165.82 155.24 165.44 Z M 156.27 165.10 L 157.29 164.76 C 158.45 164.37 159.07 163.12 158.69 161.95 C 158.30 160.79 157.04 160.17 155.88 160.55 L 154.86 160.89 C 153.70 161.28 153.08 162.54 153.46 163.70 C 153.85 164.86 155.11 165.48 156.27 165.10 Z M 157.30 164.74 L 158.33 164.38 C 159.48 163.98 160.09 162.73 159.69 161.58 C 159.29 160.43 158.04 159.82 156.89 160.22 L 155.86 160.58 C 154.72 160.97 154.11 162.23 154.50 163.38 C 154.90 164.52 156.16 165.13 157.30 164.74 Z M 158.35 164.35 L 159.36 163.99 C 160.49 163.59 161.08 162.34 160.67 161.20 C 160.27 160.07 159.02 159.48 157.88 159.88 L 156.88 160.25 C 155.74 160.65 155.15 161.90 155.56 163.04 C 155.97 164.17 157.21 164.76 158.35 164.35 Z M 159.37 163.97 L 160.34 163.61 C 161.46 163.19 162.04 161.95 161.62 160.83 C 161.21 159.71 159.96 159.14 158.84 159.55 L 157.87 159.91 C 156.75 160.32 156.18 161.57 156.59 162.69 C 157.01 163.81 158.25 164.38 159.37 163.97 Z M 160.36 163.58 L 161.29 163.23 C 162.39 162.81 162.95 161.57 162.53 160.46 C 162.10 159.35 160.87 158.80 159.76 159.22 L 158.83 159.58 C 157.72 160.00 157.17 161.24 157.59 162.34 C 158.01 163.45 159.25 164.00 160.36 163.58 Z M 161.30 163.20 L 162.17 162.86 C 163.27 162.43 163.80 161.20 163.38 160.10 C 162.95 159.01 161.71 158.47 160.62 158.90 L 159.75 159.25 C 158.66 159.67 158.12 160.91 158.55 162.00 C 158.97 163.09 160.21 163.63 161.30 163.20 Z M 162.19 162.83 L 163.00 162.51 C 164.07 162.07 164.59 160.84 164.16 159.76 C 163.72 158.69 162.50 158.17 161.42 158.60 L 160.61 158.93 C 159.53 159.36 159.01 160.59 159.45 161.67 C 159.88 162.75 161.11 163.27 162.19 162.83 Z M 163.01 162.47 L 164.04 162.03 C 165.10 161.59 165.60 160.37 165.15 159.31 C 164.71 158.26 163.49 157.76 162.43 158.20 L 161.40 158.64 C 160.34 159.08 159.85 160.30 160.29 161.36 C 160.74 162.42 161.95 162.91 163.01 162.47 Z M 164.07 161.98 L 165.02 161.56 C 166.05 161.10 166.51 159.90 166.05 158.87 C 165.59 157.84 164.39 157.38 163.36 157.83 L 162.41 158.26 C 161.38 158.71 160.92 159.92 161.38 160.95 C 161.83 161.98 163.04 162.44 164.07 161.98 Z M 165.04 161.50 L 165.90 161.10 C 166.90 160.63 167.32 159.44 166.85 158.44 C 166.38 157.44 165.19 157.01 164.19 157.49 L 163.34 157.89 C 162.34 158.36 161.91 159.55 162.38 160.55 C 162.85 161.55 164.05 161.98 165.04 161.50 Z M 165.92 161.04 L 166.73 160.64 C 167.70 160.15 168.09 158.98 167.60 158.01 C 167.12 157.04 165.94 156.65 164.98 157.14 L 164.17 157.54 C 163.20 158.03 162.81 159.20 163.29 160.17 C 163.78 161.14 164.96 161.53 165.92 161.04 Z M 166.75 160.59 L 167.62 160.12 C 168.56 159.63 168.92 158.47 168.42 157.53 C 167.93 156.59 166.77 156.23 165.83 156.73 L 164.96 157.19 C 164.02 157.69 163.66 158.85 164.15 159.79 C 164.65 160.72 165.81 161.08 166.75 160.59 Z M 167.68 160.06 L 168.57 159.53 C 169.47 159.01 169.78 157.85 169.25 156.95 C 168.73 156.05 167.57 155.75 166.67 156.27 L 165.78 156.80 C 164.88 157.32 164.57 158.48 165.10 159.38 C 165.62 160.28 166.78 160.58 167.68 160.06 Z M 168.69 159.42 L 169.51 158.84 C 170.35 158.26 170.55 157.10 169.96 156.26 C 169.37 155.42 168.22 155.22 167.38 155.81 L 166.56 156.39 C 165.72 156.97 165.52 158.13 166.11 158.97 C 166.69 159.81 167.85 160.01 168.69 159.42 Z M 169.69 158.66 L 170.37 158.02 C 171.11 157.33 171.14 156.17 170.46 155.44 C 169.77 154.71 168.61 154.67 167.88 155.36 L 167.20 156.00 C 166.46 156.69 166.43 157.84 167.11 158.57 C 167.80 159.31 168.96 159.34 169.69 158.66 Z M 170.61 157.69 L 171.17 156.87 C 171.73 156.05 171.52 154.93 170.70 154.38 C 169.88 153.82 168.77 154.03 168.21 154.85 L 167.65 155.68 C 167.09 156.50 167.30 157.61 168.12 158.17 C 168.94 158.72 170.05 158.51 170.61 157.69 Z M 171.32 156.53 L 171.70 155.62 C 172.07 154.72 171.64 153.69 170.74 153.32 C 169.85 152.94 168.81 153.37 168.44 154.27 L 168.06 155.18 C 167.69 156.08 168.12 157.11 169.02 157.49 C 169.92 157.86 170.95 157.43 171.32 156.53 Z M 171.74 155.42 L 172.01 154.46 C 172.27 153.54 171.73 152.58 170.81 152.32 C 169.89 152.06 168.93 152.60 168.67 153.52 L 168.40 154.47 C 168.14 155.39 168.68 156.35 169.60 156.61 C 170.52 156.87 171.48 156.34 171.74 155.42 Z M 172.00 154.41 L 172.07 154.15 C 172.30 153.24 171.74 152.30 170.82 152.07 C 169.90 151.84 168.97 152.40 168.74 153.32 L 168.68 153.57 C 168.45 154.49 169.00 155.42 169.92 155.65 C 170.84 155.88 171.77 155.33 172.00 154.41 Z"
      fill="black"
      fill-rule="nonzero" /><path d="M 146.34 107.73 L 146.34 108.74 C 146.34 109.87 147.26 110.79 148.39 110.79 C 149.52 110.79 150.44 109.87 150.44 108.74 L 150.44 107.73 C 150.44 106.60 149.52 105.68 148.39 105.68 C 147.26 105.68 146.34 106.60 146.34 107.73 Z M 146.30 108.74 L 146.30 109.74 C 146.30 110.90 147.24 111.83 148.40 111.83 C 149.55 111.83 150.48 110.89 150.48 109.74 L 150.48 108.73 C 150.48 107.58 149.54 106.64 148.39 106.65 C 147.23 106.65 146.30 107.59 146.30 108.74 Z M 146.26 109.75 L 146.27 110.75 C 146.27 111.93 147.23 112.88 148.41 112.87 C 149.58 112.86 150.53 111.91 150.53 110.73 L 150.52 109.73 C 150.52 108.55 149.56 107.61 148.38 107.61 C 147.21 107.62 146.26 108.57 146.26 109.75 Z M 146.23 110.76 L 146.24 111.76 C 146.25 112.95 147.23 113.92 148.43 113.90 C 149.63 113.89 150.59 112.91 150.57 111.71 L 150.56 110.72 C 150.55 109.52 149.57 108.56 148.38 108.57 C 147.18 108.58 146.22 109.56 146.23 110.76 Z M 146.21 111.77 L 146.23 112.79 C 146.25 114.01 147.25 114.98 148.46 114.96 C 149.67 114.94 150.64 113.93 150.62 112.72 L 150.61 111.70 C 150.59 110.49 149.59 109.52 148.37 109.54 C 147.16 109.56 146.19 110.56 146.21 111.77 Z M 146.21 112.81 L 146.24 113.86 C 146.27 115.09 147.28 116.05 148.51 116.02 C 149.73 115.99 150.70 114.97 150.66 113.75 L 150.64 112.70 C 150.61 111.48 149.59 110.51 148.37 110.54 C 147.15 110.57 146.18 111.59 146.21 112.81 Z M 146.23 113.89 L 146.27 114.91 C 146.31 116.13 147.35 117.09 148.57 117.05 C 149.80 117.00 150.75 115.97 150.71 114.74 L 150.67 113.72 C 150.62 112.50 149.59 111.54 148.37 111.59 C 147.14 111.63 146.19 112.66 146.23 113.89 Z M 146.26 114.94 L 146.32 115.92 C 146.38 117.14 147.43 118.09 148.66 118.02 C 149.89 117.96 150.83 116.91 150.76 115.68 L 150.71 114.71 C 150.65 113.48 149.60 112.54 148.37 112.60 C 147.14 112.67 146.20 113.71 146.26 114.94 Z M 146.31 115.96 L 146.38 116.90 C 146.47 118.13 147.54 119.06 148.77 118.97 C 150.00 118.88 150.93 117.81 150.84 116.58 L 150.77 115.63 C 150.68 114.40 149.61 113.48 148.38 113.57 C 147.15 113.66 146.22 114.73 146.31 115.96 Z M 146.38 116.96 L 146.48 118.00 C 146.61 119.23 147.71 120.13 148.94 120.00 C 150.17 119.88 151.07 118.78 150.94 117.55 L 150.84 116.51 C 150.71 115.28 149.61 114.39 148.38 114.51 C 147.15 114.64 146.26 115.73 146.38 116.96 Z M 146.48 118.05 L 146.61 119.03 C 146.76 120.26 147.88 121.13 149.12 120.98 C 150.35 120.82 151.22 119.70 151.07 118.47 L 150.94 117.49 C 150.79 116.26 149.67 115.39 148.43 115.54 C 147.20 115.70 146.33 116.82 146.48 118.05 Z M 146.60 119.05 L 146.73 120.01 C 146.90 121.25 148.04 122.11 149.27 121.94 C 150.51 121.77 151.37 120.63 151.20 119.40 L 151.07 118.44 C 150.90 117.21 149.76 116.34 148.53 116.51 C 147.30 116.68 146.43 117.82 146.60 119.05 Z M 146.73 120.01 L 146.85 120.95 C 147.02 122.19 148.16 123.06 149.40 122.89 C 150.64 122.73 151.50 121.59 151.34 120.35 L 151.21 119.40 C 151.04 118.17 149.90 117.30 148.66 117.47 C 147.43 117.63 146.56 118.77 146.73 120.01 Z M 146.85 120.94 L 146.97 121.91 C 147.13 123.15 148.27 124.03 149.51 123.87 C 150.75 123.71 151.63 122.57 151.47 121.33 L 151.34 120.36 C 151.18 119.12 150.05 118.24 148.80 118.40 C 147.56 118.56 146.69 119.70 146.85 120.94 Z M 146.96 121.90 L 147.09 122.91 C 147.24 124.15 148.38 125.04 149.62 124.88 C 150.87 124.73 151.75 123.59 151.60 122.35 L 151.48 121.34 C 151.32 120.09 150.19 119.21 148.94 119.36 C 147.69 119.52 146.81 120.65 146.96 121.90 Z M 147.08 122.90 L 147.21 123.94 C 147.36 125.19 148.49 126.08 149.74 125.93 C 150.99 125.78 151.88 124.65 151.73 123.40 L 151.61 122.36 C 151.46 121.11 150.32 120.22 149.07 120.37 C 147.82 120.51 146.93 121.65 147.08 122.90 Z M 147.20 123.93 L 147.31 124.88 C 147.46 126.13 148.59 127.03 149.84 126.89 C 151.10 126.74 151.99 125.61 151.85 124.35 L 151.74 123.41 C 151.59 122.15 150.46 121.26 149.21 121.40 C 147.95 121.55 147.06 122.68 147.20 123.93 Z M 147.30 124.87 L 147.41 125.85 C 147.56 127.11 148.69 128.01 149.95 127.87 C 151.20 127.73 152.11 126.59 151.96 125.34 L 151.85 124.36 C 151.71 123.10 150.58 122.20 149.32 122.34 C 148.07 122.48 147.16 123.62 147.30 124.87 Z M 147.41 125.84 L 147.52 126.85 C 147.66 128.11 148.79 129.02 150.05 128.88 C 151.31 128.74 152.22 127.61 152.08 126.35 L 151.97 125.34 C 151.83 124.08 150.70 123.17 149.44 123.31 C 148.18 123.45 147.27 124.58 147.41 125.84 Z M 147.51 126.84 L 147.62 127.88 C 147.76 129.14 148.89 130.06 150.15 129.92 C 151.41 129.79 152.33 128.66 152.20 127.39 L 152.09 126.36 C 151.95 125.09 150.82 124.18 149.56 124.31 C 148.29 124.44 147.38 125.58 147.51 126.84 Z M 147.62 127.87 L 147.72 128.84 C 147.85 130.10 148.98 131.03 150.24 130.90 C 151.51 130.77 152.43 129.63 152.30 128.37 L 152.20 127.40 C 152.07 126.13 150.94 125.21 149.67 125.34 C 148.41 125.47 147.49 126.60 147.62 127.87 Z M 147.71 128.83 L 147.81 129.80 C 147.93 131.07 149.07 132.00 150.33 131.87 C 151.60 131.75 152.53 130.61 152.40 129.34 L 152.31 128.37 C 152.18 127.10 151.05 126.18 149.78 126.30 C 148.51 126.43 147.58 127.56 147.71 128.83 Z M 147.80 129.80 L 147.90 130.79 C 148.02 132.07 149.15 133.00 150.43 132.87 C 151.70 132.75 152.63 131.62 152.51 130.34 L 152.41 129.35 C 152.28 128.08 151.15 127.15 149.88 127.27 C 148.61 127.39 147.68 128.53 147.80 129.80 Z M 147.89 130.79 L 147.99 131.81 C 148.11 133.08 149.24 134.02 150.52 133.90 C 151.79 133.77 152.73 132.64 152.61 131.37 L 152.51 130.35 C 152.39 129.07 151.26 128.14 149.98 128.26 C 148.71 128.38 147.77 129.51 147.89 130.79 Z M 147.98 131.80 L 148.08 132.84 C 148.20 134.12 149.33 135.05 150.61 134.94 C 151.89 134.82 152.83 133.68 152.71 132.41 L 152.61 131.37 C 152.49 130.09 151.36 129.15 150.08 129.27 C 148.80 129.39 147.87 130.52 147.98 131.80 Z M 148.08 132.83 L 148.16 133.79 C 148.28 135.07 149.41 136.01 150.69 135.90 C 151.97 135.78 152.92 134.65 152.80 133.37 L 152.71 132.41 C 152.60 131.13 151.46 130.19 150.18 130.30 C 148.90 130.42 147.96 131.55 148.08 132.83 Z M 148.16 133.78 L 148.25 134.76 C 148.36 136.04 149.49 136.99 150.77 136.88 C 152.06 136.76 153.00 135.63 152.89 134.35 L 152.80 133.37 C 152.69 132.09 151.56 131.14 150.28 131.26 C 148.99 131.37 148.05 132.50 148.16 133.78 Z M 148.24 134.75 L 148.33 135.74 C 148.44 137.03 149.57 137.98 150.85 137.87 C 152.13 137.76 153.09 136.63 152.98 135.35 L 152.90 134.36 C 152.79 133.07 151.66 132.12 150.37 132.23 C 149.09 132.34 148.13 133.47 148.24 134.75 Z M 148.32 135.73 L 148.40 136.75 C 148.51 138.03 149.63 138.99 150.92 138.89 C 152.21 138.79 153.17 137.66 153.06 136.37 L 152.98 135.36 C 152.88 134.07 151.75 133.11 150.47 133.22 C 149.18 133.32 148.22 134.45 148.32 135.73 Z M 148.40 136.73 L 148.48 137.77 C 148.57 139.06 149.69 140.02 150.98 139.93 C 152.27 139.83 153.24 138.71 153.15 137.42 L 153.07 136.39 C 152.97 135.10 151.85 134.13 150.56 134.23 C 149.27 134.32 148.30 135.44 148.40 136.73 Z M 148.47 137.75 L 148.54 138.75 C 148.63 140.04 149.75 141.02 151.04 140.93 C 152.33 140.84 153.30 139.72 153.22 138.43 L 153.15 137.44 C 153.06 136.14 151.94 135.17 150.65 135.26 C 149.36 135.34 148.39 136.46 148.47 137.75 Z M 148.54 138.74 L 148.60 139.73 C 148.68 141.03 149.79 142.01 151.09 141.93 C 152.38 141.85 153.36 140.73 153.28 139.44 L 153.22 138.45 C 153.14 137.15 152.03 136.17 150.73 136.25 C 149.44 136.33 148.46 137.45 148.54 138.74 Z M 148.60 139.72 L 148.65 140.72 C 148.73 142.02 149.84 143.01 151.13 142.93 C 152.42 142.86 153.41 141.75 153.34 140.46 L 153.28 139.45 C 153.21 138.16 152.10 137.17 150.81 137.25 C 149.51 137.32 148.52 138.43 148.60 139.72 Z M 148.65 140.71 L 148.71 141.72 C 148.77 143.01 149.88 144.01 151.17 143.94 C 152.47 143.87 153.46 142.77 153.39 141.48 L 153.34 140.47 C 153.27 139.18 152.17 138.18 150.88 138.25 C 149.58 138.31 148.59 139.42 148.65 140.71 Z M 148.70 141.71 L 148.75 142.71 C 148.81 144.01 149.91 145.01 151.21 144.95 C 152.50 144.89 153.50 143.79 153.44 142.49 L 153.39 141.49 C 153.33 140.19 152.23 139.19 150.94 139.25 C 149.64 139.31 148.64 140.41 148.70 141.71 Z M 148.75 142.70 L 148.79 143.70 C 148.85 145.00 149.94 146.00 151.24 145.95 C 152.54 145.89 153.54 144.80 153.49 143.50 L 153.44 142.50 C 153.39 141.20 152.29 140.20 151.00 140.25 C 149.70 140.31 148.69 141.41 148.75 142.70 Z M 148.79 143.69 L 148.83 144.71 C 148.88 146.01 149.97 147.02 151.27 146.97 C 152.57 146.92 153.58 145.82 153.53 144.53 L 153.49 143.51 C 153.44 142.21 152.35 141.20 151.05 141.25 C 149.75 141.30 148.74 142.39 148.79 143.69 Z M 148.83 144.70 L 148.86 145.71 C 148.91 147.01 150.00 148.02 151.30 147.97 C 152.59 147.93 153.61 146.84 153.56 145.54 L 153.53 144.54 C 153.48 143.24 152.39 142.22 151.10 142.27 C 149.80 142.31 148.78 143.40 148.83 144.70 Z M 148.86 145.70 L 148.90 146.70 C 148.94 148.00 150.02 149.01 151.32 148.97 C 152.62 148.93 153.64 147.84 153.60 146.55 L 153.56 145.55 C 153.52 144.25 152.44 143.23 151.14 143.28 C 149.84 143.32 148.82 144.40 148.86 145.70 Z M 148.90 146.69 L 148.93 147.68 C 148.96 148.98 150.05 150.00 151.35 149.96 C 152.64 149.92 153.67 148.84 153.63 147.54 L 153.60 146.55 C 153.56 145.25 152.47 144.23 151.18 144.27 C 149.88 144.31 148.86 145.40 148.90 146.69 Z M 148.93 147.68 L 148.95 148.67 C 148.99 149.97 150.07 150.99 151.37 150.95 C 152.67 150.91 153.69 149.83 153.66 148.53 L 153.63 147.54 C 153.59 146.25 152.51 145.22 151.21 145.26 C 149.91 145.30 148.89 146.38 148.93 147.68 Z M 148.95 148.67 L 148.98 149.66 C 149.02 150.96 150.10 151.98 151.40 151.94 C 152.70 151.91 153.72 150.83 153.68 149.53 L 153.66 148.53 C 153.62 147.23 152.54 146.21 151.24 146.25 C 149.94 146.29 148.92 147.37 148.95 148.67 Z M 148.98 149.66 L 149.01 150.66 C 149.05 151.96 150.13 152.98 151.43 152.94 C 152.72 152.91 153.75 151.83 153.71 150.53 L 153.68 149.53 C 153.65 148.23 152.57 147.21 151.27 147.24 C 149.97 147.28 148.95 148.36 148.98 149.66 Z M 149.01 150.66 L 149.04 151.66 C 149.07 152.95 150.15 153.98 151.45 153.94 C 152.75 153.91 153.77 152.83 153.74 151.53 L 153.71 150.53 C 153.68 149.23 152.60 148.21 151.30 148.24 C 150.00 148.28 148.98 149.36 149.01 150.66 Z M 149.04 151.65 L 149.06 152.65 C 149.09 153.95 150.17 154.97 151.47 154.94 C 152.76 154.91 153.79 153.83 153.76 152.54 L 153.74 151.54 C 153.71 150.24 152.63 149.21 151.33 149.24 C 150.03 149.28 149.01 150.35 149.04 151.65 Z M 149.06 152.64 L 149.08 153.64 C 149.11 154.94 150.18 155.97 151.48 155.94 C 152.78 155.91 153.81 154.84 153.78 153.55 L 153.76 152.55 C 153.73 151.25 152.66 150.22 151.36 150.24 C 150.07 150.27 149.04 151.34 149.06 152.64 Z M 149.08 153.63 L 149.10 154.63 C 149.12 155.93 150.19 156.96 151.48 156.94 C 152.78 156.92 153.81 155.85 153.79 154.56 L 153.78 153.56 C 153.76 152.26 152.69 151.22 151.39 151.25 C 150.10 151.27 149.06 152.33 149.08 153.63 Z M 149.10 154.62 L 149.11 155.63 C 149.13 156.92 150.19 157.96 151.48 157.95 C 152.78 157.94 153.82 156.87 153.80 155.58 L 153.79 154.57 C 153.78 153.27 152.72 152.23 151.42 152.25 C 150.13 152.26 149.09 153.32 149.10 154.62 Z M 149.11 155.62 L 149.12 156.63 C 149.13 157.92 150.18 158.96 151.48 158.95 C 152.77 158.95 153.82 157.89 153.81 156.59 L 153.80 155.59 C 153.79 154.29 152.74 153.25 151.44 153.26 C 150.15 153.27 149.10 154.32 149.11 155.62 Z M 149.12 156.62 L 149.13 157.62 C 149.13 158.91 150.18 159.96 151.48 159.95 C 152.77 159.95 153.81 158.90 153.81 157.60 L 153.81 156.60 C 153.80 155.31 152.75 154.26 151.46 154.27 C 150.16 154.27 149.12 155.32 149.12 156.62 Z M 149.13 157.62 L 149.13 158.61 C 149.13 159.90 150.18 160.95 151.47 160.95 C 152.76 160.95 153.81 159.90 153.81 158.60 L 153.81 157.61 C 153.81 156.32 152.76 155.27 151.46 155.27 C 150.17 155.27 149.13 156.32 149.13 157.62 Z M 149.13 158.61 L 149.13 159.59 C 149.13 160.89 150.18 161.93 151.47 161.93 C 152.76 161.93 153.81 160.88 153.81 159.59 L 153.81 158.61 C 153.81 157.32 152.76 156.27 151.47 156.27 C 150.18 156.27 149.13 157.32 149.13 158.61 Z M 149.13 159.59 L 149.13 160.61 C 149.13 161.90 150.18 162.95 151.47 162.95 C 152.76 162.95 153.80 161.90 153.80 160.61 L 153.80 159.59 C 153.80 158.30 152.76 157.26 151.47 157.26 C 150.18 157.26 149.13 158.30 149.13 159.59 Z M 149.14 160.61 L 149.14 161.63 C 149.14 162.92 150.18 163.96 151.47 163.96 C 152.76 163.96 153.80 162.92 153.80 161.63 L 153.80 160.61 C 153.80 159.33 152.76 158.29 151.47 158.29 C 150.18 158.29 149.14 159.33 149.14 160.61 Z M 149.14 161.63 L 149.14 162.63 C 149.14 163.91 150.19 164.95 151.47 164.95 C 152.75 164.95 153.79 163.91 153.79 162.63 L 153.79 161.63 C 153.79 160.34 152.75 159.30 151.47 159.30 C 150.19 159.30 149.14 160.34 149.14 161.63 Z M 149.15 162.63 L 149.15 163.62 C 149.15 164.90 150.19 165.94 151.47 165.94 C 152.75 165.94 153.79 164.90 153.79 163.62 L 153.79 162.63 C 153.79 161.35 152.75 160.31 151.47 160.31 C 150.19 160.31 149.15 161.35 149.15 162.63 Z M 149.15 163.62 L 149.15 164.60 C 149.15 165.88 150.19 166.91 151.47 166.91 C 152.75 166.91 153.78 165.88 153.78 164.60 L 153.78 163.62 C 153.78 162.34 152.75 161.30 151.47 161.30 C 150.19 161.30 149.15 162.34 149.15 163.62 Z M 149.16 164.60 L 149.16 165.61 C 149.16 166.88 150.19 167.92 151.47 167.92 C 152.74 167.92 153.78 166.88 153.78 165.61 L 153.78 164.60 C 153.78 163.32 152.74 162.29 151.47 162.29 C 150.19 162.29 149.16 163.32 149.16 164.60 Z M 149.17 165.61 L 149.17 166.61 C 149.17 167.88 150.20 168.91 151.47 168.91 C 152.74 168.91 153.77 167.88 153.77 166.61 L 153.77 165.61 C 153.77 164.33 152.74 163.30 151.47 163.30 C 150.20 163.30 149.17 164.33 149.17 165.61 Z M 149.17 166.61 L 149.17 167.61 C 149.17 168.88 150.20 169.91 151.47 169.91 C 152.74 169.91 153.76 168.88 153.76 167.61 L 153.76 166.61 C 153.76 165.34 152.74 164.32 151.47 164.32 C 150.20 164.32 149.17 165.34 149.17 166.61 Z M 149.18 167.61 L 149.18 168.60 C 149.18 169.87 150.20 170.89 151.47 170.89 C 152.73 170.89 153.76 169.87 153.76 168.60 L 153.76 167.61 C 153.76 166.35 152.73 165.32 151.47 165.32 C 150.20 165.32 149.18 166.35 149.18 167.61 Z M 149.19 168.60 L 149.19 169.59 C 149.19 170.85 150.21 171.87 151.47 171.87 C 152.73 171.87 153.75 170.85 153.75 169.59 L 153.75 168.60 C 153.75 167.34 152.73 166.32 151.47 166.32 C 150.21 166.32 149.19 167.34 149.19 168.60 Z M 149.20 169.59 L 149.20 170.56 C 149.20 171.82 150.21 172.84 151.47 172.84 C 152.73 172.84 153.74 171.82 153.74 170.56 L 153.74 169.59 C 153.74 168.34 152.72 167.32 151.47 167.32 C 150.21 167.32 149.20 168.34 149.20 169.59 Z M 149.21 170.57 L 149.21 171.54 C 149.21 172.79 150.22 173.81 151.47 173.80 C 152.72 173.80 153.74 172.79 153.73 171.54 L 153.73 170.56 C 153.73 169.31 152.72 168.30 151.47 168.30 C 150.22 168.30 149.20 169.32 149.21 170.57 Z M 149.22 171.55 L 149.22 172.54 C 149.23 173.79 150.24 174.79 151.48 174.79 C 152.73 174.78 153.73 173.77 153.73 172.52 L 153.72 171.53 C 153.72 170.29 152.71 169.28 151.46 169.29 C 150.22 169.29 149.21 170.30 149.22 171.55 Z M 149.23 172.55 L 149.24 173.57 C 149.25 174.81 150.26 175.80 151.50 175.79 C 152.74 175.78 153.74 174.77 153.73 173.53 L 153.72 172.52 C 153.71 171.28 152.70 170.28 151.46 170.29 C 150.22 170.30 149.22 171.31 149.23 172.55 Z M 149.25 173.58 L 149.26 174.62 C 149.28 175.86 150.29 176.84 151.52 176.83 C 152.76 176.81 153.75 175.80 153.73 174.57 L 153.72 173.52 C 153.70 172.29 152.69 171.30 151.45 171.32 C 150.22 171.33 149.23 172.34 149.25 173.58 Z M 149.27 174.64 L 149.29 175.67 C 149.31 176.90 150.33 177.88 151.56 177.86 C 152.78 177.83 153.76 176.82 153.74 175.59 L 153.72 174.55 C 153.70 173.33 152.68 172.35 151.45 172.37 C 150.23 172.39 149.25 173.41 149.27 174.64 Z M 149.30 175.69 L 149.33 176.74 C 149.37 177.96 150.38 178.92 151.61 178.89 C 152.83 178.86 153.79 177.84 153.76 176.62 L 153.73 175.57 C 153.69 174.35 152.68 173.39 151.45 173.42 C 150.23 173.45 149.27 174.47 149.30 175.69 Z M 149.34 176.77 L 149.39 177.79 C 149.44 179.01 150.46 179.95 151.68 179.90 C 152.89 179.85 153.84 178.83 153.79 177.61 L 153.74 176.59 C 153.69 175.37 152.67 174.43 151.45 174.48 C 150.24 174.53 149.29 175.55 149.34 176.77 Z M 149.40 177.83 L 149.46 178.81 C 149.53 180.02 150.57 180.94 151.78 180.87 C 152.98 180.80 153.90 179.76 153.83 178.55 L 153.77 177.57 C 153.70 176.37 152.66 175.45 151.46 175.52 C 150.25 175.59 149.33 176.63 149.40 177.83 Z M 149.47 178.87 L 149.55 179.78 C 149.66 180.98 150.71 181.86 151.91 181.76 C 153.11 181.66 154.00 180.60 153.89 179.40 L 153.82 178.49 C 153.71 177.30 152.66 176.41 151.46 176.51 C 150.26 176.62 149.37 177.67 149.47 178.87 Z M 149.60 179.91 L 149.81 181.29 C 149.99 182.46 151.08 183.27 152.26 183.09 C 153.43 182.91 154.23 181.82 154.06 180.65 L 153.85 179.27 C 153.67 178.09 152.57 177.29 151.40 177.47 C 150.23 177.64 149.42 178.74 149.60 179.91 Z M 149.98 181.72 L 150.30 182.56 C 150.72 183.63 151.93 184.17 153.01 183.75 C 154.09 183.34 154.62 182.13 154.21 181.05 L 153.88 180.21 C 153.47 179.14 152.26 178.60 151.18 179.02 C 150.10 179.43 149.56 180.64 149.98 181.72 Z M 151.94 183.81 L 152.38 183.88 C 153.49 184.05 154.53 183.29 154.70 182.18 C 154.87 181.07 154.11 180.03 153.00 179.86 L 152.57 179.79 C 151.46 179.62 150.42 180.38 150.24 181.49 C 150.07 182.60 150.83 183.64 151.94 183.81 Z M 154.19 183.14 L 154.63 182.62 C 155.33 181.79 155.23 180.55 154.40 179.85 C 153.58 179.15 152.34 179.25 151.63 180.08 L 151.19 180.60 C 150.49 181.43 150.59 182.67 151.42 183.37 C 152.24 184.07 153.48 183.97 154.19 183.14 Z M 154.81 182.22 L 155.28 181.30 C 155.76 180.38 155.40 179.24 154.48 178.76 C 153.55 178.28 152.42 178.64 151.93 179.56 L 151.46 180.48 C 150.98 181.40 151.34 182.54 152.26 183.02 C 153.19 183.50 154.33 183.14 154.81 182.22 Z M 155.29 181.09 L 155.75 179.91 C 156.12 178.98 155.66 177.94 154.73 177.57 C 153.80 177.21 152.75 177.67 152.39 178.60 L 151.93 179.77 C 151.56 180.70 152.02 181.75 152.95 182.11 C 153.88 182.48 154.93 182.02 155.29 181.09 Z M 155.74 179.78 L 156.07 178.73 C 156.36 177.81 155.84 176.83 154.92 176.54 C 153.99 176.25 153.01 176.76 152.72 177.69 L 152.40 178.73 C 152.11 179.66 152.62 180.64 153.55 180.93 C 154.47 181.22 155.45 180.70 155.74 179.78 Z M 156.07 178.64 L 156.32 177.69 C 156.56 176.77 156.00 175.82 155.08 175.58 C 154.15 175.34 153.21 175.90 152.97 176.82 L 152.72 177.77 C 152.48 178.70 153.03 179.65 153.96 179.89 C 154.89 180.13 155.83 179.57 156.07 178.64 Z M 156.33 177.63 L 156.55 176.66 C 156.75 175.73 156.17 174.81 155.24 174.60 C 154.31 174.39 153.38 174.98 153.18 175.91 L 152.96 176.88 C 152.75 177.81 153.33 178.73 154.27 178.94 C 155.20 179.15 156.12 178.57 156.33 177.63 Z M 156.55 176.62 L 156.75 175.63 C 156.93 174.70 156.33 173.79 155.40 173.60 C 154.46 173.42 153.56 174.02 153.37 174.95 L 153.17 175.95 C 152.99 176.88 153.59 177.78 154.52 177.97 C 155.46 178.16 156.36 177.55 156.55 176.62 Z M 156.74 175.60 L 156.93 174.60 C 157.10 173.67 156.49 172.78 155.56 172.60 C 154.63 172.43 153.73 173.04 153.56 173.97 L 153.37 174.98 C 153.20 175.91 153.81 176.80 154.75 176.98 C 155.68 177.15 156.57 176.53 156.74 175.60 Z M 156.93 174.59 L 157.00 174.20 C 157.17 173.27 156.55 172.38 155.62 172.21 C 154.70 172.04 153.81 172.66 153.64 173.59 L 153.56 173.98 C 153.39 174.91 154.01 175.80 154.94 175.97 C 155.87 176.14 156.76 175.52 156.93 174.59 Z"
      fill="black"
      fill-rule="nonzero" /><path d="M 161.94 116.62 L 162.30 117.43 C 162.79 118.53 164.08 119.02 165.19 118.53 C 166.29 118.04 166.78 116.75 166.29 115.65 L 165.93 114.84 C 165.44 113.74 164.15 113.25 163.05 113.74 C 161.95 114.23 161.45 115.52 161.94 116.62 Z M 162.23 117.40 L 162.59 118.27 C 163.06 119.41 164.38 119.95 165.52 119.47 C 166.66 118.99 167.20 117.68 166.73 116.54 L 166.37 115.68 C 165.89 114.53 164.58 113.99 163.43 114.47 C 162.29 114.95 161.75 116.26 162.23 117.40 Z M 162.50 118.20 L 162.86 119.17 C 163.30 120.36 164.63 120.97 165.82 120.53 C 167.01 120.09 167.62 118.76 167.18 117.57 L 166.82 116.60 C 166.37 115.41 165.05 114.80 163.86 115.24 C 162.66 115.68 162.05 117.01 162.50 118.20 Z M 162.77 119.09 L 163.11 120.16 C 163.51 121.41 164.84 122.09 166.08 121.69 C 167.32 121.30 168.01 119.97 167.61 118.73 L 167.27 117.65 C 166.87 116.41 165.54 115.72 164.30 116.12 C 163.06 116.52 162.37 117.85 162.77 119.09 Z M 163.05 120.09 L 163.30 120.97 C 163.65 122.24 164.98 122.99 166.25 122.63 C 167.53 122.28 168.27 120.95 167.91 119.68 L 167.67 118.80 C 167.31 117.52 165.99 116.78 164.71 117.14 C 163.44 117.49 162.70 118.82 163.05 120.09 Z M 163.27 120.92 L 163.51 121.87 C 163.84 123.16 165.15 123.94 166.44 123.61 C 167.73 123.28 168.51 121.97 168.18 120.68 L 167.94 119.73 C 167.61 118.44 166.30 117.66 165.01 117.99 C 163.72 118.32 162.94 119.63 163.27 120.92 Z M 163.49 121.83 L 163.72 122.83 C 164.03 124.13 165.33 124.94 166.64 124.63 C 167.94 124.33 168.75 123.02 168.44 121.72 L 168.21 120.72 C 167.90 119.42 166.60 118.61 165.29 118.91 C 163.99 119.22 163.18 120.53 163.49 121.83 Z M 163.70 122.79 L 163.92 123.82 C 164.21 125.13 165.51 125.97 166.83 125.68 C 168.14 125.39 168.98 124.09 168.69 122.77 L 168.47 121.75 C 168.18 120.43 166.88 119.60 165.56 119.89 C 164.24 120.18 163.41 121.48 163.70 122.79 Z M 163.90 123.79 L 164.11 124.81 C 164.38 126.14 165.68 126.99 167.01 126.72 C 168.34 126.45 169.19 125.15 168.92 123.82 L 168.71 122.80 C 168.44 121.47 167.14 120.62 165.81 120.89 C 164.49 121.16 163.63 122.46 163.90 123.79 Z M 164.09 124.78 L 164.29 125.80 C 164.54 127.14 165.83 128.01 167.17 127.76 C 168.51 127.50 169.39 126.21 169.13 124.87 L 168.94 123.85 C 168.68 122.51 167.39 121.64 166.05 121.89 C 164.71 122.15 163.84 123.44 164.09 124.78 Z M 164.27 125.76 L 164.45 126.77 C 164.69 128.12 165.97 129.01 167.32 128.78 C 168.67 128.54 169.56 127.25 169.33 125.91 L 169.15 124.90 C 168.91 123.55 167.62 122.66 166.28 122.89 C 164.93 123.13 164.03 124.42 164.27 125.76 Z M 164.44 126.73 L 164.59 127.72 C 164.81 129.07 166.09 129.99 167.44 129.77 C 168.79 129.55 169.71 128.28 169.50 126.93 L 169.34 125.94 C 169.12 124.59 167.85 123.67 166.49 123.89 C 165.14 124.10 164.22 125.38 164.44 126.73 Z M 164.58 127.67 L 164.72 128.65 C 164.92 130.01 166.18 130.95 167.54 130.76 C 168.90 130.56 169.84 129.30 169.65 127.94 L 169.51 126.97 C 169.31 125.61 168.05 124.66 166.69 124.86 C 165.33 125.05 164.39 126.31 164.58 127.67 Z M 164.71 128.61 L 164.83 129.58 C 165.00 130.95 166.25 131.92 167.62 131.75 C 168.99 131.58 169.96 130.33 169.78 128.96 L 169.66 127.99 C 169.49 126.62 168.24 125.65 166.88 125.82 C 165.51 125.99 164.54 127.24 164.71 128.61 Z M 164.82 129.54 L 164.93 130.53 C 165.07 131.90 166.31 132.90 167.68 132.75 C 169.05 132.60 170.05 131.37 169.90 130.00 L 169.80 129.00 C 169.65 127.63 168.42 126.64 167.04 126.78 C 165.67 126.93 164.67 128.16 164.82 129.54 Z M 164.92 130.49 L 165.01 131.53 C 165.13 132.91 166.35 133.93 167.73 133.81 C 169.11 133.68 170.13 132.46 170.00 131.09 L 169.91 130.04 C 169.79 128.66 168.57 127.64 167.19 127.77 C 165.81 127.89 164.79 129.11 164.92 130.49 Z M 165.00 131.49 L 165.08 132.54 C 165.18 133.92 166.39 134.96 167.77 134.86 C 169.15 134.75 170.19 133.55 170.09 132.17 L 170.01 131.12 C 169.91 129.74 168.70 128.70 167.32 128.81 C 165.94 128.91 164.90 130.11 165.00 131.49 Z M 165.08 132.51 L 165.14 133.53 C 165.22 134.91 166.42 135.97 167.80 135.88 C 169.19 135.80 170.24 134.61 170.16 133.22 L 170.09 132.20 C 170.01 130.81 168.82 129.76 167.43 129.84 C 166.05 129.93 164.99 131.12 165.08 132.51 Z M 165.13 133.50 L 165.18 134.48 C 165.25 135.86 166.44 136.93 167.82 136.86 C 169.21 136.79 170.28 135.61 170.21 134.22 L 170.16 133.25 C 170.09 131.86 168.91 130.79 167.52 130.86 C 166.13 130.93 165.06 132.11 165.13 133.50 Z M 165.18 134.45 L 165.22 135.36 C 165.27 136.75 166.44 137.83 167.83 137.77 C 169.22 137.72 170.31 136.55 170.25 135.16 L 170.21 134.25 C 170.16 132.86 168.99 131.78 167.60 131.83 C 166.21 131.89 165.12 133.06 165.18 134.45 Z M 165.21 135.33 L 165.25 136.45 C 165.29 137.84 166.45 138.93 167.84 138.89 C 169.23 138.85 170.32 137.69 170.28 136.30 L 170.25 135.18 C 170.21 133.79 169.05 132.70 167.66 132.74 C 166.27 132.78 165.17 133.94 165.21 135.33 Z M 165.25 136.42 L 165.26 137.43 C 165.28 138.82 166.43 139.93 167.82 139.91 C 169.21 139.88 170.32 138.74 170.30 137.35 L 170.28 136.34 C 170.26 134.94 169.12 133.83 167.73 133.86 C 166.33 133.88 165.22 135.02 165.25 136.42 Z M 165.26 137.40 L 165.27 138.33 C 165.28 139.72 166.41 140.84 167.80 140.84 C 169.19 140.83 170.31 139.70 170.30 138.30 L 170.30 137.37 C 170.29 135.98 169.16 134.86 167.77 134.87 C 166.38 134.88 165.26 136.01 165.26 137.40 Z M 165.27 138.32 L 165.27 139.25 C 165.27 140.64 166.40 141.76 167.79 141.76 C 169.18 141.76 170.30 140.63 170.30 139.24 L 170.30 138.32 C 170.30 136.93 169.18 135.80 167.79 135.80 C 166.39 135.80 165.27 136.93 165.27 138.32 Z M 165.27 139.24 L 165.27 140.24 C 165.27 141.63 166.40 142.76 167.79 142.76 C 169.18 142.76 170.30 141.63 170.30 140.24 L 170.30 139.24 C 170.30 137.86 169.18 136.73 167.79 136.73 C 166.40 136.73 165.27 137.86 165.27 139.24 Z M 165.27 140.24 L 165.27 141.25 C 165.27 142.64 166.40 143.76 167.79 143.76 C 169.17 143.76 170.30 142.64 170.30 141.25 L 170.30 140.24 C 170.30 138.86 169.17 137.73 167.79 137.73 C 166.40 137.73 165.27 138.86 165.27 140.24 Z M 165.28 141.25 L 165.28 142.25 C 165.28 143.63 166.40 144.76 167.79 144.76 C 169.17 144.76 170.30 143.63 170.30 142.25 L 170.30 141.25 C 170.30 139.86 169.17 138.74 167.79 138.74 C 166.40 138.74 165.28 139.86 165.28 141.25 Z M 165.28 142.25 L 165.28 143.26 C 165.28 144.65 166.40 145.77 167.79 145.77 C 169.17 145.77 170.29 144.65 170.29 143.26 L 170.29 142.25 C 170.29 140.86 169.17 139.74 167.79 139.74 C 166.40 139.74 165.28 140.86 165.28 142.25 Z M 165.28 143.26 L 165.28 144.26 C 165.28 145.65 166.40 146.77 167.79 146.77 C 169.17 146.77 170.29 145.65 170.29 144.26 L 170.29 143.26 C 170.29 141.88 169.17 140.76 167.79 140.76 C 166.40 140.76 165.28 141.88 165.28 143.26 Z M 165.29 144.26 L 165.29 145.25 C 165.29 146.63 166.41 147.75 167.79 147.75 C 169.17 147.75 170.28 146.63 170.28 145.25 L 170.28 144.26 C 170.28 142.89 169.17 141.77 167.79 141.77 C 166.41 141.77 165.29 142.89 165.29 144.26 Z M 165.30 145.25 L 165.30 146.25 C 165.30 147.62 166.41 148.74 167.79 148.74 C 169.16 148.74 170.28 147.62 170.28 146.25 L 170.28 145.25 C 170.28 143.88 169.16 142.76 167.79 142.76 C 166.41 142.76 165.30 143.88 165.30 145.25 Z M 165.30 146.25 L 165.30 147.25 C 165.30 148.62 166.42 149.73 167.79 149.73 C 169.16 149.73 170.27 148.62 170.27 147.25 L 170.27 146.25 C 170.27 144.88 169.16 143.77 167.79 143.77 C 166.42 143.77 165.30 144.88 165.30 146.25 Z M 165.31 147.25 L 165.31 148.24 C 165.31 149.61 166.42 150.72 167.79 150.72 C 169.15 150.72 170.26 149.61 170.26 148.24 L 170.26 147.25 C 170.26 145.88 169.15 144.77 167.79 144.77 C 166.42 144.77 165.31 145.88 165.31 147.25 Z M 165.32 148.24 L 165.32 149.24 C 165.32 150.60 166.42 151.70 167.79 151.70 C 169.15 151.70 170.25 150.60 170.25 149.24 L 170.25 148.24 C 170.25 146.88 169.15 145.78 167.79 145.78 C 166.43 145.78 165.32 146.88 165.32 148.24 Z M 165.33 149.22 L 165.32 150.21 C 165.31 151.57 166.40 152.68 167.76 152.69 C 169.11 152.70 170.22 151.61 170.23 150.26 L 170.24 149.26 C 170.25 147.90 169.16 146.80 167.81 146.79 C 166.45 146.77 165.34 147.86 165.33 149.22 Z M 165.34 150.16 L 165.31 151.17 C 165.27 152.51 166.33 153.64 167.67 153.68 C 169.02 153.72 170.15 152.66 170.19 151.31 L 170.22 150.31 C 170.26 148.96 169.20 147.84 167.85 147.80 C 166.50 147.75 165.38 148.81 165.34 150.16 Z M 165.32 151.08 L 165.26 152.08 C 165.17 153.42 166.19 154.58 167.52 154.66 C 168.86 154.75 170.02 153.74 170.10 152.40 L 170.17 151.40 C 170.26 150.06 169.24 148.90 167.91 148.82 C 166.57 148.73 165.41 149.74 165.32 151.08 Z M 165.28 151.99 L 165.18 152.98 C 165.04 154.31 166.00 155.49 167.32 155.63 C 168.65 155.77 169.84 154.81 169.98 153.49 L 170.08 152.49 C 170.22 151.17 169.26 149.98 167.93 149.84 C 166.61 149.70 165.42 150.66 165.28 151.99 Z M 165.20 152.91 L 165.06 153.90 C 164.88 155.21 165.80 156.42 167.12 156.60 C 168.43 156.78 169.64 155.86 169.82 154.55 L 169.96 153.56 C 170.14 152.24 169.22 151.03 167.90 150.85 C 166.59 150.67 165.38 151.59 165.20 152.91 Z M 165.08 153.85 L 164.92 154.84 C 164.72 156.14 165.60 157.36 166.91 157.57 C 168.21 157.78 169.43 156.89 169.64 155.59 L 169.80 154.60 C 170.01 153.30 169.12 152.07 167.82 151.87 C 166.52 151.66 165.29 152.54 165.08 153.85 Z M 164.94 154.80 L 164.77 155.77 C 164.55 157.07 165.41 158.30 166.70 158.52 C 168.00 158.75 169.23 157.88 169.45 156.59 L 169.62 155.62 C 169.85 154.33 168.99 153.10 167.69 152.87 C 166.40 152.65 165.17 153.51 164.94 154.80 Z M 164.79 155.75 L 164.61 156.73 C 164.37 158.01 165.21 159.24 166.50 159.48 C 167.78 159.72 169.01 158.88 169.25 157.60 L 169.44 156.62 C 169.68 155.34 168.83 154.10 167.55 153.86 C 166.27 153.62 165.03 154.47 164.79 155.75 Z M 164.63 156.71 L 164.43 157.70 C 164.18 158.97 165.01 160.21 166.28 160.46 C 167.55 160.71 168.78 159.88 169.04 158.61 L 169.23 157.62 C 169.49 156.35 168.66 155.11 167.39 154.86 C 166.11 154.61 164.88 155.43 164.63 156.71 Z M 164.45 157.68 L 164.24 158.68 C 163.98 159.94 164.79 161.17 166.06 161.43 C 167.32 161.69 168.55 160.88 168.81 159.62 L 169.02 158.63 C 169.28 157.37 168.47 156.13 167.21 155.87 C 165.94 155.61 164.71 156.42 164.45 157.68 Z M 164.26 158.66 L 164.05 159.65 C 163.78 160.90 164.58 162.14 165.83 162.41 C 167.08 162.67 168.31 161.88 168.58 160.63 L 168.80 159.63 C 169.07 158.38 168.27 157.15 167.02 156.88 C 165.76 156.61 164.53 157.41 164.26 158.66 Z M 164.07 159.63 L 163.85 160.61 C 163.57 161.85 164.35 163.09 165.59 163.36 C 166.83 163.64 168.07 162.86 168.35 161.62 L 168.57 160.64 C 168.84 159.40 168.06 158.17 166.82 157.89 C 165.58 157.61 164.35 158.39 164.07 159.63 Z M 163.87 160.59 L 163.64 161.56 C 163.35 162.79 164.11 164.03 165.34 164.32 C 166.57 164.61 167.81 163.84 168.10 162.61 L 168.33 161.64 C 168.62 160.41 167.85 159.17 166.62 158.88 C 165.39 158.59 164.16 159.36 163.87 160.59 Z M 163.66 161.53 L 163.41 162.52 C 163.11 163.74 163.85 164.98 165.07 165.28 C 166.29 165.59 167.52 164.85 167.83 163.63 L 168.08 162.64 C 168.38 161.42 167.64 160.18 166.42 159.88 C 165.20 159.57 163.96 160.31 163.66 161.53 Z M 163.44 162.49 L 163.18 163.45 C 162.86 164.65 163.58 165.89 164.78 166.21 C 165.99 166.54 167.23 165.82 167.55 164.61 L 167.81 163.66 C 168.13 162.45 167.41 161.21 166.20 160.89 C 165.00 160.57 163.76 161.29 163.44 162.49 Z M 163.21 163.42 L 162.94 164.35 C 162.60 165.55 163.29 166.79 164.49 167.13 C 165.68 167.47 166.92 166.77 167.26 165.58 L 167.53 164.64 C 167.87 163.45 167.17 162.21 165.98 161.87 C 164.79 161.53 163.54 162.22 163.21 163.42 Z M 162.96 164.32 L 162.68 165.28 C 162.32 166.46 162.99 167.70 164.17 168.06 C 165.35 168.41 166.59 167.74 166.95 166.56 L 167.24 165.61 C 167.59 164.43 166.92 163.19 165.74 162.83 C 164.56 162.48 163.32 163.15 162.96 164.32 Z M 162.70 165.25 L 162.40 166.20 C 162.03 167.37 162.67 168.62 163.84 168.99 C 165.00 169.36 166.25 168.71 166.62 167.55 L 166.92 166.59 C 167.29 165.43 166.65 164.18 165.48 163.81 C 164.32 163.44 163.07 164.08 162.70 165.25 Z M 162.42 166.17 L 162.11 167.12 C 161.72 168.27 162.34 169.52 163.49 169.90 C 164.65 170.29 165.89 169.67 166.28 168.52 L 166.60 167.57 C 166.98 166.42 166.36 165.17 165.21 164.79 C 164.06 164.40 162.81 165.02 162.42 166.17 Z M 162.13 167.09 L 161.84 167.92 C 161.43 169.06 162.03 170.31 163.17 170.71 C 164.31 171.11 165.56 170.52 165.96 169.38 L 166.26 168.54 C 166.66 167.40 166.06 166.15 164.92 165.75 C 163.78 165.35 162.53 165.95 162.13 167.09 Z M 161.86 167.89 L 161.53 168.78 C 161.11 169.91 161.68 171.16 162.81 171.58 C 163.94 172.00 165.19 171.43 165.61 170.30 L 165.94 169.41 C 166.36 168.28 165.79 167.02 164.66 166.61 C 163.53 166.19 162.28 166.76 161.86 167.89 Z M 161.55 168.75 L 161.16 169.76 C 160.72 170.87 161.27 172.13 162.39 172.56 C 163.50 173.00 164.76 172.45 165.20 171.34 L 165.59 170.33 C 166.02 169.21 165.47 167.96 164.36 167.52 C 163.24 167.08 161.99 167.63 161.55 168.75 Z M 161.18 169.73 L 160.78 170.72 C 160.33 171.82 160.86 173.08 161.96 173.53 C 163.07 173.98 164.33 173.45 164.78 172.34 L 165.18 171.36 C 165.63 170.25 165.09 168.99 163.99 168.55 C 162.88 168.10 161.63 168.63 161.18 169.73 Z M 160.79 170.70 L 160.41 171.62 C 159.95 172.71 160.47 173.97 161.56 174.43 C 162.66 174.89 163.92 174.37 164.38 173.27 L 164.76 172.36 C 165.22 171.26 164.70 170.00 163.60 169.54 C 162.51 169.09 161.25 169.60 160.79 170.70 Z M 160.42 171.61 L 160.01 172.56 C 159.55 173.65 160.06 174.91 161.15 175.38 C 162.24 175.84 163.50 175.33 163.96 174.24 L 164.37 173.28 C 164.83 172.19 164.32 170.93 163.23 170.47 C 162.14 170.01 160.88 170.52 160.42 171.61 Z M 160.02 172.55 L 159.61 173.51 C 159.15 174.59 159.65 175.85 160.73 176.32 C 161.81 176.78 163.07 176.28 163.54 175.20 L 163.95 174.25 C 164.42 173.16 163.92 171.91 162.83 171.44 C 161.75 170.97 160.49 171.47 160.02 172.55 Z M 159.62 173.50 L 159.23 174.41 C 158.75 175.49 159.25 176.75 160.32 177.22 C 161.40 177.69 162.66 177.20 163.13 176.12 L 163.53 175.21 C 164.00 174.13 163.51 172.87 162.43 172.40 C 161.35 171.93 160.10 172.42 159.62 173.50 Z M 159.24 174.40 L 158.82 175.35 C 158.34 176.42 158.82 177.68 159.89 178.16 C 160.96 178.63 162.21 178.15 162.69 177.08 L 163.12 176.13 C 163.59 175.06 163.11 173.81 162.04 173.33 C 160.97 172.85 159.72 173.33 159.24 174.40 Z M 158.84 175.33 L 158.41 176.26 C 157.92 177.32 158.38 178.57 159.44 179.06 C 160.49 179.55 161.75 179.09 162.24 178.03 L 162.67 177.10 C 163.16 176.05 162.70 174.79 161.64 174.30 C 160.58 173.81 159.33 174.27 158.84 175.33 Z M 158.44 176.22 L 158.02 177.08 C 157.51 178.11 157.94 179.37 158.97 179.88 C 160.01 180.39 161.27 179.97 161.78 178.93 L 162.20 178.07 C 162.71 177.04 162.29 175.78 161.25 175.27 C 160.21 174.76 158.96 175.18 158.44 176.22 Z M 158.06 177.03 L 157.62 177.87 C 157.07 178.88 157.46 180.14 158.47 180.68 C 159.49 181.22 160.75 180.84 161.29 179.82 L 161.73 178.98 C 162.28 177.97 161.89 176.71 160.88 176.17 C 159.86 175.63 158.60 176.01 158.06 177.03 Z M 157.66 177.81 L 157.18 178.64 C 156.61 179.63 156.95 180.90 157.94 181.47 C 158.93 182.04 160.20 181.70 160.77 180.71 L 161.24 179.88 C 161.81 178.89 161.47 177.62 160.48 177.05 C 159.49 176.48 158.23 176.82 157.66 177.81 Z M 157.22 178.59 L 156.70 179.43 C 156.10 180.41 156.41 181.68 157.38 182.27 C 158.35 182.87 159.62 182.57 160.22 181.60 L 160.73 180.76 C 161.33 179.78 161.03 178.51 160.05 177.92 C 159.08 177.32 157.81 177.62 157.22 178.59 Z M 156.74 179.38 L 156.18 180.23 C 155.55 181.19 155.82 182.46 156.77 183.09 C 157.72 183.71 158.99 183.45 159.62 182.50 L 160.18 181.65 C 160.80 180.70 160.54 179.42 159.59 178.79 C 158.64 178.17 157.36 178.43 156.74 179.38 Z M 156.22 180.18 L 155.63 181.02 C 154.97 181.94 155.19 183.23 156.12 183.88 C 157.05 184.54 158.33 184.32 158.98 183.39 L 159.58 182.55 C 160.23 181.63 160.01 180.34 159.08 179.69 C 158.16 179.03 156.88 179.25 156.22 180.18 Z M 155.68 180.95 L 155.05 181.77 C 154.36 182.67 154.53 183.96 155.43 184.65 C 156.32 185.34 157.61 185.17 158.30 184.27 L 158.93 183.45 C 159.62 182.56 159.45 181.27 158.56 180.58 C 157.66 179.89 156.37 180.06 155.68 180.95 Z M 155.11 181.71 L 154.45 182.50 C 153.72 183.36 153.84 184.65 154.70 185.38 C 155.56 186.10 156.85 185.99 157.58 185.12 L 158.24 184.34 C 158.97 183.47 158.85 182.18 157.99 181.46 C 157.13 180.73 155.84 180.84 155.11 181.71 Z M 154.50 182.45 L 153.83 183.19 C 153.08 184.02 153.14 185.31 153.98 186.06 C 154.81 186.82 156.10 186.75 156.85 185.92 L 157.52 185.18 C 158.28 184.34 158.21 183.06 157.38 182.30 C 156.54 181.55 155.26 181.61 154.50 182.45 Z M 153.88 183.15 L 153.21 183.86 C 152.43 184.66 152.46 185.95 153.27 186.72 C 154.08 187.49 155.36 187.47 156.13 186.66 L 156.80 185.95 C 157.58 185.15 157.55 183.86 156.74 183.09 C 155.94 182.32 154.65 182.34 153.88 183.15 Z M 153.24 183.83 L 152.54 184.53 C 151.75 185.32 151.75 186.60 152.54 187.39 C 153.33 188.17 154.61 188.17 155.39 187.38 L 156.10 186.68 C 156.88 185.89 156.88 184.62 156.09 183.83 C 155.30 183.04 154.03 183.04 153.24 183.83 Z M 152.58 184.51 L 151.83 185.22 C 151.03 185.99 151.00 187.26 151.77 188.06 C 152.54 188.86 153.81 188.89 154.61 188.12 L 155.36 187.41 C 156.16 186.64 156.19 185.37 155.42 184.57 C 154.65 183.77 153.38 183.74 152.58 184.51 Z M 151.90 185.17 L 151.15 185.83 C 150.32 186.56 150.24 187.82 150.97 188.66 C 151.70 189.49 152.97 189.57 153.80 188.83 L 154.55 188.18 C 155.38 187.44 155.46 186.18 154.73 185.35 C 153.99 184.52 152.73 184.44 151.90 185.17 Z M 151.25 185.75 L 150.49 186.34 C 149.62 187.02 149.46 188.28 150.14 189.15 C 150.82 190.02 152.07 190.17 152.94 189.50 L 153.70 188.91 C 154.57 188.23 154.73 186.97 154.05 186.10 C 153.38 185.23 152.12 185.08 151.25 185.75 Z M 150.63 186.26 L 149.83 186.78 C 148.91 187.38 148.65 188.61 149.25 189.53 C 149.85 190.45 151.08 190.71 152.00 190.11 L 152.80 189.58 C 153.72 188.98 153.98 187.75 153.38 186.83 C 152.78 185.92 151.55 185.66 150.63 186.26 Z M 149.99 186.70 L 149.14 187.15 C 148.18 187.66 147.81 188.85 148.32 189.82 C 148.83 190.78 150.02 191.14 150.98 190.64 L 151.84 190.18 C 152.80 189.68 153.17 188.48 152.66 187.52 C 152.15 186.56 150.96 186.19 149.99 186.70 Z M 149.30 187.10 L 148.37 187.49 C 147.38 187.92 146.91 189.06 147.33 190.05 C 147.76 191.05 148.90 191.51 149.89 191.09 L 150.83 190.69 C 151.82 190.27 152.28 189.12 151.86 188.13 C 151.44 187.14 150.29 186.68 149.30 187.10 Z M 148.49 187.42 L 147.38 187.80 C 146.35 188.16 145.80 189.28 146.15 190.31 C 146.51 191.35 147.63 191.89 148.66 191.54 L 149.77 191.16 C 150.80 190.80 151.35 189.68 151.00 188.65 C 150.65 187.62 149.52 187.07 148.49 187.42 Z M 147.39 187.63 L 146.15 188.02 C 145.02 188.36 144.39 189.56 144.74 190.68 C 145.09 191.81 146.28 192.44 147.41 192.09 L 148.65 191.71 C 149.78 191.36 150.41 190.17 150.06 189.04 C 149.71 187.91 148.52 187.28 147.39 187.63 Z M 145.90 187.84 L 145.14 188.14 C 143.91 188.63 143.31 190.01 143.80 191.24 C 144.29 192.46 145.67 193.06 146.89 192.57 L 147.66 192.27 C 148.88 191.78 149.48 190.40 148.99 189.18 C 148.51 187.95 147.12 187.36 145.90 187.84 Z M 143.84 191.74 L 143.95 191.92 C 144.71 193.13 146.31 193.48 147.51 192.72 C 148.72 191.95 149.07 190.36 148.31 189.15 L 148.19 188.97 C 147.43 187.77 145.83 187.41 144.63 188.18 C 143.42 188.95 143.07 190.54 143.84 191.74 Z M 145.85 193.20 L 146.60 193.27 C 148.07 193.43 149.38 192.36 149.53 190.90 C 149.69 189.43 148.62 188.11 147.16 187.96 L 146.41 187.88 C 144.94 187.73 143.62 188.79 143.47 190.26 C 143.32 191.73 144.38 193.04 145.85 193.20 Z M 146.82 193.32 L 147.94 193.34 C 149.43 193.37 150.67 192.19 150.70 190.70 C 150.73 189.21 149.55 187.98 148.06 187.94 L 146.94 187.92 C 145.45 187.88 144.21 189.07 144.18 190.56 C 144.14 192.05 145.33 193.28 146.82 193.32 Z M 148.03 193.37 L 149.31 193.35 C 150.81 193.34 152.02 192.10 152.00 190.60 C 151.99 189.09 150.75 187.88 149.25 187.90 L 147.97 187.91 C 146.46 187.93 145.26 189.17 145.28 190.67 C 145.29 192.18 146.53 193.39 148.03 193.37 Z M 149.37 193.37 L 150.51 193.33 C 152.02 193.28 153.21 192.01 153.16 190.50 C 153.11 188.98 151.84 187.79 150.32 187.84 L 149.18 187.88 C 147.67 187.93 146.48 189.20 146.53 190.72 C 146.58 192.23 147.85 193.42 149.37 193.37 Z M 150.56 193.33 L 151.54 193.28 C 153.06 193.20 154.22 191.91 154.14 190.39 C 154.06 188.88 152.77 187.71 151.25 187.79 L 150.27 187.84 C 148.76 187.92 147.59 189.22 147.67 190.73 C 147.75 192.25 149.04 193.41 150.56 193.33 Z M 151.58 193.27 L 152.52 193.21 C 154.04 193.11 155.18 191.81 155.08 190.30 C 154.98 188.78 153.68 187.64 152.17 187.74 L 151.22 187.80 C 149.71 187.90 148.56 189.20 148.66 190.72 C 148.76 192.23 150.06 193.37 151.58 193.27 Z M 152.54 193.21 L 153.52 193.14 C 155.03 193.03 156.17 191.72 156.06 190.22 C 155.95 188.71 154.65 187.57 153.14 187.67 L 152.15 187.74 C 150.65 187.85 149.51 189.16 149.61 190.67 C 149.72 192.18 151.03 193.31 152.54 193.21 Z M 153.51 193.13 L 154.50 193.07 C 156.01 192.97 157.15 191.67 157.05 190.16 C 156.95 188.65 155.64 187.51 154.14 187.61 L 153.15 187.68 C 151.64 187.78 150.50 189.08 150.60 190.59 C 150.70 192.09 152.00 193.23 153.51 193.13 Z M 154.48 193.06 L 155.34 193.01 C 156.84 192.92 157.99 191.63 157.90 190.13 C 157.81 188.63 156.52 187.48 155.02 187.57 L 154.16 187.62 C 152.66 187.71 151.51 189.00 151.60 190.50 C 151.69 192.00 152.98 193.15 154.48 193.06 Z M 155.32 193.00 L 156.25 192.95 C 157.75 192.87 158.90 191.59 158.82 190.10 C 158.74 188.60 157.46 187.46 155.97 187.53 L 155.04 187.58 C 153.54 187.66 152.39 188.94 152.47 190.43 C 152.55 191.93 153.83 193.08 155.32 193.00 Z M 156.23 192.94 L 157.23 192.89 C 158.72 192.82 159.87 191.56 159.80 190.07 C 159.73 188.58 158.47 187.43 156.98 187.50 L 155.99 187.55 C 154.50 187.61 153.35 188.88 153.42 190.36 C 153.48 191.85 154.75 193.00 156.23 192.94 Z M 157.21 192.88 L 158.27 192.84 C 159.75 192.78 160.90 191.53 160.84 190.05 C 160.79 188.57 159.54 187.41 158.06 187.47 L 157.00 187.51 C 155.52 187.57 154.37 188.82 154.42 190.30 C 154.48 191.78 155.73 192.94 157.21 192.88 Z M 158.24 192.82 L 159.35 192.79 C 160.83 192.74 161.99 191.51 161.94 190.03 C 161.89 188.56 160.66 187.40 159.18 187.45 L 158.08 187.48 C 156.60 187.53 155.44 188.76 155.49 190.24 C 155.54 191.71 156.77 192.87 158.24 192.82 Z M 159.33 192.77 L 160.43 192.75 C 161.89 192.71 163.05 191.50 163.02 190.03 C 162.98 188.56 161.77 187.40 160.30 187.44 L 159.21 187.46 C 157.74 187.50 156.58 188.72 156.61 190.18 C 156.65 191.65 157.87 192.81 159.33 192.77 Z M 160.41 192.72 L 161.42 192.70 C 162.87 192.67 164.02 191.48 164.00 190.03 C 163.97 188.58 162.78 187.43 161.33 187.45 L 160.32 187.47 C 158.87 187.49 157.72 188.69 157.74 190.14 C 157.77 191.59 158.96 192.74 160.41 192.72 Z M 161.41 192.66 L 162.43 192.65 C 163.86 192.63 165.00 191.46 164.98 190.03 C 164.97 188.61 163.80 187.46 162.37 187.48 L 161.35 187.49 C 159.92 187.51 158.78 188.68 158.79 190.11 C 158.81 191.53 159.98 192.68 161.41 192.66 Z M 162.42 192.61 L 163.45 192.60 C 164.85 192.59 165.98 191.44 165.97 190.04 C 165.96 188.63 164.82 187.50 163.41 187.51 L 162.38 187.52 C 160.98 187.53 159.85 188.68 159.86 190.08 C 159.87 191.49 161.02 192.62 162.42 192.61 Z M 163.44 192.56 L 164.46 192.55 C 165.84 192.55 166.96 191.42 166.95 190.04 C 166.95 188.66 165.82 187.54 164.44 187.55 L 163.42 187.55 C 162.04 187.56 160.92 188.68 160.93 190.07 C 160.93 191.45 162.06 192.56 163.44 192.56 Z M 164.46 192.51 L 165.45 192.51 C 166.81 192.51 167.91 191.40 167.91 190.04 C 167.91 188.68 166.80 187.58 165.44 187.59 L 164.44 187.59 C 163.08 187.59 161.98 188.70 161.99 190.06 C 161.99 191.42 163.10 192.52 164.46 192.51 Z M 165.45 192.47 L 166.42 192.47 C 167.75 192.47 168.84 191.38 168.84 190.05 C 168.84 188.71 167.75 187.63 166.41 187.63 L 165.45 187.63 C 164.11 187.63 163.03 188.71 163.03 190.05 C 163.03 191.39 164.11 192.47 165.45 192.47 Z M 166.41 192.43 L 167.40 192.43 C 168.71 192.43 169.77 191.36 169.77 190.05 C 169.77 188.74 168.71 187.67 167.40 187.67 L 166.41 187.67 C 165.10 187.67 164.04 188.74 164.04 190.05 C 164.04 191.36 165.10 192.43 166.41 192.43 Z M 167.40 192.37 L 168.45 192.37 C 169.73 192.37 170.77 191.33 170.77 190.05 C 170.77 188.77 169.73 187.73 168.45 187.73 L 167.40 187.73 C 166.12 187.73 165.08 188.77 165.08 190.05 C 165.08 191.33 166.12 192.37 167.40 192.37 Z M 168.45 192.30 L 169.45 192.30 C 170.69 192.30 171.70 191.29 171.70 190.05 C 171.70 188.81 170.69 187.80 169.45 187.80 L 168.45 187.80 C 167.21 187.80 166.20 188.81 166.20 190.05 C 166.20 191.29 167.21 192.30 168.45 192.30 Z M 169.45 192.23 L 170.42 192.23 C 171.62 192.23 172.60 191.25 172.60 190.05 C 172.60 188.85 171.62 187.87 170.42 187.87 L 169.45 187.87 C 168.25 187.87 167.27 188.85 167.27 190.05 C 167.27 191.25 168.25 192.23 169.45 192.23 Z M 170.42 192.16 L 171.39 192.16 C 172.55 192.16 173.49 191.21 173.49 190.05 C 173.49 188.88 172.55 187.94 171.39 187.94 L 170.42 187.94 C 169.26 187.94 168.31 188.88 168.31 190.05 C 168.31 191.21 169.26 192.16 170.42 192.16 Z M 171.39 192.09 L 172.37 192.09 C 173.49 192.09 174.40 191.17 174.40 190.05 C 174.40 188.92 173.49 188.01 172.37 188.01 L 171.39 188.01 C 170.26 188.01 169.35 188.92 169.35 190.05 C 169.35 191.17 170.26 192.09 171.39 192.09 Z M 172.37 192.03 L 173.37 192.03 C 174.47 192.03 175.35 191.14 175.35 190.05 C 175.35 188.96 174.47 188.07 173.37 188.07 L 172.37 188.07 C 171.27 188.07 170.39 188.96 170.39 190.05 C 170.39 191.14 171.27 192.03 172.37 192.03 Z M 173.37 191.98 L 174.41 191.98 C 175.47 191.98 176.34 191.12 176.34 190.05 C 176.34 188.98 175.48 188.11 174.41 188.11 L 173.37 188.11 C 172.31 188.11 171.44 188.98 171.44 190.05 C 171.44 191.12 172.30 191.98 173.37 191.98 Z M 174.40 191.95 L 175.45 191.95 C 176.50 191.95 177.35 191.10 177.35 190.05 C 177.35 189.00 176.50 188.15 175.45 188.15 L 174.41 188.15 C 173.36 188.15 172.51 189.00 172.51 190.05 C 172.50 191.10 173.35 191.95 174.40 191.95 Z M 175.44 191.92 L 176.47 191.92 C 177.50 191.92 178.34 191.09 178.34 190.06 C 178.35 189.03 177.52 188.19 176.48 188.19 L 175.46 188.18 C 174.43 188.18 173.59 189.01 173.58 190.04 C 173.58 191.07 174.41 191.91 175.44 191.92 Z M 176.47 191.89 L 177.46 191.89 C 178.47 191.90 179.30 191.08 179.30 190.07 C 179.31 189.06 178.49 188.24 177.48 188.23 L 176.49 188.22 C 175.48 188.22 174.65 189.03 174.65 190.04 C 174.64 191.05 175.46 191.88 176.47 191.89 Z M 177.45 191.86 L 178.38 191.87 C 179.38 191.88 180.19 191.08 180.20 190.09 C 180.21 189.10 179.41 188.28 178.42 188.27 L 177.49 188.26 C 176.50 188.25 175.68 189.05 175.67 190.04 C 175.66 191.03 176.46 191.85 177.45 191.86 Z M 178.37 191.84 L 179.47 191.86 C 180.45 191.88 181.25 191.10 181.27 190.12 C 181.29 189.14 180.51 188.34 179.53 188.32 L 178.43 188.30 C 177.46 188.28 176.65 189.06 176.63 190.04 C 176.62 191.02 177.39 191.82 178.37 191.84 Z M 179.45 191.84 L 180.52 191.87 C 181.48 191.89 182.29 191.13 182.31 190.16 C 182.34 189.20 181.58 188.39 180.61 188.37 L 179.55 188.34 C 178.58 188.31 177.78 189.08 177.75 190.04 C 177.72 191.01 178.49 191.81 179.45 191.84 Z M 180.50 191.85 L 181.46 191.89 C 182.41 191.92 183.22 191.17 183.25 190.21 C 183.29 189.26 182.54 188.45 181.58 188.42 L 180.62 188.38 C 179.67 188.35 178.86 189.10 178.83 190.06 C 178.79 191.01 179.54 191.82 180.50 191.85 Z M 181.45 191.87 L 182.34 191.91 C 183.29 191.95 184.09 191.21 184.13 190.26 C 184.17 189.31 183.43 188.51 182.48 188.47 L 181.59 188.43 C 180.64 188.39 179.84 189.13 179.80 190.08 C 179.76 191.03 180.50 191.83 181.45 191.87 Z M 182.34 191.90 L 182.64 191.91 C 183.59 191.95 184.39 191.22 184.43 190.28 C 184.47 189.33 183.74 188.53 182.79 188.49 L 182.48 188.48 C 181.54 188.44 180.74 189.17 180.70 190.11 C 180.66 191.06 181.39 191.86 182.34 191.90 Z"
      fill="black"
      fill-rule="nonzero" /></svg>