<svg xmlns="http://www.w3.org/2000/svg" version="1.0" width="937.000000pt" height="937.000000pt" viewBox="0 0 937.000000 937.000000" preserveAspectRatio="xMidYMid meet">
  <defs/>
  <path fill="#000000" d="M508.5,318.2 C507.1,319.5 505.5,322.3 505,324.5 C503.4,331.4 503.9,384.6 505.9,415 C507,430.7 507.7,443.6 507.6,443.7 C507.2,444.1 476.5,445.9 458.3,446.6 L440,447.3 L436.6,439.9 C429.5,424.6 418.5,383.2 417.4,368 C417,363.3 416.2,358.9 415.6,358.1 C412.4,354.1 405.6,355.4 403.4,360.5 C400.8,366.9 400,381 400,425.2 L400,470 L397.8,470.4 C396.5,470.7 390.1,471.1 383.5,471.5 C372.7,472 362.3,473 337.5,475.9 C332,476.6 329.4,476.5 329.1,475.8 C328.2,473.2 324.8,471 321.7,471 C317.9,471 314,474.5 311.7,479.8 C309.9,484.2 310.5,487.2 314.2,490.7 L317.1,493.5 L326.5,493.8 C332.1,494 343.5,493.3 354.5,492 C364.8,490.8 373.4,490.1 373.7,490.4 C374,490.7 372.5,492.9 370.4,495.2 C366,500 342.7,529.1 333,542 C329.4,546.7 321,557.7 314.2,566.5 C307.4,575.2 301.4,583.5 300.9,584.8 C299.7,588 300.6,590.7 303.6,592.6 C307.7,595.4 310.3,593.7 319.2,582.7 C323.7,577.1 338.4,559.4 351.7,543.3 L376.1,514.1 L382.3,520.3 C385.7,523.7 391.1,528.2 394.3,530.3 L400,534.1 L400,545.3 C400,567.7 396.8,598.5 393.4,610.1 L391.8,615.5 L389.9,613.1 C385,607.1 382.2,591 381.3,564.7 C380.7,544.5 380.2,543 375.5,543 C374,543 372.4,544 371.4,545.6 L369.7,548.1 L370.3,565.3 C372.1,613.3 383.2,638.5 398.5,629.2 C403.2,626.3 408.4,615 411.4,600.9 C411.8,599 413.3,597.8 417.1,596.1 C423.4,593.2 438.3,579.2 448.1,566.9 C452,562 455.8,558 456.5,558 C457.3,558 460.2,558.5 463,559.1 C470.7,560.7 478.6,559.5 480.7,556.3 L482.4,553.8 L480.9,551.2 L479.5,548.6 L473,547.3 C469.5,546.6 466.2,545.6 465.7,545.1 C465.1,544.5 468.2,538.8 473.3,530.8 C477.9,523.5 483.7,514.3 486,510.5 C488.3,506.6 490.4,503.3 490.6,503.1 C490.8,502.9 495.2,506.4 500.3,510.9 L509.7,519 L510.4,525.2 C511.4,535.3 511.1,661.8 510,662.5 C508.3,663.5 502.2,653.8 498.1,643.5 C493.6,632.3 489.8,614.9 487.7,595.7 C486.9,588.7 485.7,582.3 485,581.5 C483.5,579.8 480.7,579.6 477.9,581 C475.5,582.3 475.5,585.3 477.5,602 C480.7,627.5 485.9,647 494.5,664.6 C499.4,674.7 503.6,679.2 510.1,681.1 L514.2,682.4 L517.8,680.4 C522.8,677.8 525.6,673.2 526.9,665.7 C527.6,661.5 528,637.9 528,596.8 C528,562.5 528.3,534.1 528.6,533.7 C529.5,532.9 540.5,541.4 572.5,567.5 C611.7,599.5 625.9,609.9 637.6,614.8 C644.4,617.6 654.7,619.2 661.5,618.4 C667.7,617.6 670,616.1 670,612.6 C670,608.9 667,607 660.9,607 C649.3,606.9 644.1,603.6 607.7,573.1 C568.1,540.1 551.4,526.7 539,517.8 L528.5,510.4 L527.9,497.4 C527.5,490.3 527.1,478.7 526.9,471.6 L526.5,458.7 L539.5,456.4 C546.7,455.2 554,453.7 555.8,453.1 C561.5,451.4 568,447 570.1,443.7 C574.5,436.4 571.6,430.6 556.6,416.6 C542.2,403.4 535.8,393.7 530.5,377.5 C526.9,366.4 523,345.2 522.3,332.6 L521.7,321.5 L518.9,318.8 C515.6,315.4 512,315.2 508.5,318.2 Z M532.5,406.5 C534.7,409.8 541.5,417.6 547.7,423.9 C553.9,430.1 559,435.6 559,436.1 C559,436.6 557.9,437.5 556.6,438 C553.1,439.3 531.9,442.2 528.4,441.8 L525.5,441.5 L524.3,422.5 C523.7,412 522.9,399.9 522.6,395.5 L522,387.5 L525.3,394 C527.1,397.6 530.4,403.3 532.5,406.5 Z M422.7,446.4 C414.6,453.5 418.7,462.2 430.8,463.6 C435.2,464.1 436.9,464.8 438.3,466.6 L440.1,469 L428,469 L416,469 L416.1,443.2 L416.1,417.5 L420.6,430.9 L425.1,444.3 L422.7,446.4 Z M492,463.4 C492,464.3 470.5,502.1 454.6,529.2 L448.9,538.9 L446.2,537.9 C444.7,537.3 437.3,533.9 429.8,530.3 L416,523.7 L416,505.4 L416,487.1 L419.3,486.6 C421,486.3 432.5,485.6 444.8,485.1 L467.1,484.2 L469.5,482 C474.9,476.9 473.5,471 466.1,468.4 C463.6,467.5 460.4,466.3 459,465.7 L456.5,464.5 L467,463.9 C481.7,463.2 492,462.9 492,463.4 Z M509.3,484.3 L510,497.1 L507.2,495.5 C505.7,494.6 503.2,492.8 501.6,491.6 L498.8,489.3 L503.6,480.2 C506.3,475.2 508.5,471.2 508.6,471.3 C508.7,471.4 509,477.3 509.3,484.3 Z M400,501.5 L400,514.1 L397.9,512.9 C394.7,511.2 387,503.9 387,502.6 C387,501.7 398.8,489.1 399.8,489 C399.9,489 400,494.6 400,501.5 Z M439,553.1 C439,554 426.5,570.3 424.1,572.4 L422,574.3 L422,571.9 C422,568.7 420.3,567 417.2,567 L414.8,567 L415.4,564.7 C415.7,563.5 416,557.9 416,552.4 L416,542.2 L427.5,547.3 C433.8,550.1 439,552.7 439,553.1 Z"/>
</svg>

