<svg xmlns="http://www.w3.org/2000/svg" version="1.0" width="937.000000pt" height="937.000000pt" viewBox="0 0 937.000000 937.000000" preserveAspectRatio="xMidYMid meet">
  <defs/>
  <path fill="#000000" d="M473,296.9 C469.9,297.7 467.5,302.3 465.9,310.5 C465.2,314.3 464.6,335.9 464.3,369.3 L463.8,422 L461.7,422.5 C456.2,423.6 398.7,428.2 375,429.3 L348.7,430.6 L346.9,432.9 C344.2,436.2 344.5,440.6 347.6,443.7 L350.2,446.3 L375.8,445.7 C397.8,445.2 448,441.5 459.8,439.5 C464.7,438.6 464.9,441 460.4,448 C458.2,451.3 456.2,454 455.9,454 C455.5,454 454.7,453.3 454,452.5 C452.3,450.4 447.7,450.6 445.7,452.8 C443.6,455.1 443.6,457.5 445.5,462.9 L446.9,467 L436.2,480.4 C420.1,500.5 402.1,520 390.7,529.6 C381.2,537.5 363.8,550 362.2,550 C361.8,550 361.6,548.2 361.8,546 C362.2,541.6 361.1,539.5 357.9,538.7 C354.5,537.8 351.5,541.7 350.1,548.8 L348.9,555 L350.6,558.5 C353.5,564.7 361,565.1 372,559.5 C379.1,555.8 393.9,545.3 405.3,535.8 C418,525.3 443.4,498.4 455.8,482.6 L458.1,479.7 L460.8,481.7 L463.5,483.7 L463.8,518.9 L464,554 L460.6,554 C458.8,554 453.5,553.3 449,552.4 L440.8,550.9 L438.4,552.5 C433.7,555.5 433.3,561.9 437.6,564.6 C441.3,567.1 449.9,569 457.3,569 L464,569 L464,575.9 L464,582.7 L461,583.3 C457,584.1 456.5,586.9 457.9,598.3 L459,607.5 L462,610.2 C465.8,613.7 468.4,613.7 472,610.2 C476.4,605.8 478.9,593.9 479,577.8 C479,573 479.4,568.9 479.8,568.6 C480.2,568.4 490.7,567.9 503,567.5 C515.4,567.2 526.5,566.7 527.7,566.4 C529,566.2 530.7,564.9 531.6,563.5 L533.2,561 L531.6,558.5 L530,556 L523.2,556 C519.5,556 508.1,555.5 497.8,554.8 L479,553.6 L479,523.8 C479,507.3 479.3,494.1 479.8,494.3 C486.6,498.4 519.3,516.2 535,524.5 C557.3,536.2 579.3,548.3 593.6,556.6 C603.7,562.5 609.2,565.1 619.4,568.6 L626.4,571 L628.7,569.4 C630.6,568.2 631,567.1 630.8,564.7 L630.5,561.5 L622.5,557.5 C618.1,555.3 605.3,547.6 594,540.4 C573.3,527.2 554.9,516.3 538.5,507.5 C523.9,499.6 487.3,479.2 483,476.5 L479,474 L479,456 L479,438 L481.3,437.6 C490.4,435.6 550.4,430 562.6,430 C576.5,430 580,428.1 580,420.6 C580,418.1 579.3,416.6 577.4,415.1 L574.7,413 L563.3,413 C549.7,413 544.7,411.5 532.2,403.8 C516.6,394 503.7,380.2 497,365.8 C493.5,358.3 488.7,338.3 486.6,322 C483.8,300.9 480.7,295.1 473,296.9 Z M487.6,373.6 C494.7,387.6 506.3,401.6 518.9,411.1 C522.4,413.8 525,416 524.6,416 C523.1,416 486.4,420 482.8,420.6 L479,421.2 L479.1,384.3 L479.2,347.5 L481.9,357.5 C483.3,363 485.9,370.2 487.6,373.6 Z"/>
</svg>

