<svg xmlns="http://www.w3.org/2000/svg" width="300" height="300" viewBox="0 0 300 300">
<path d="M 120.12 125.51 L 119.24 126.33 C 118.27 127.24 118.22 128.76 119.12 129.73 C 120.03 130.70 121.55 130.76 122.52 129.85 L 123.40 129.03 C 124.37 128.12 124.42 126.60 123.52 125.63 C 122.61 124.66 121.09 124.61 120.12 125.51 Z M 119.02 126.56 L 118.37 127.35 C 117.52 128.38 117.67 129.90 118.69 130.75 C 119.72 131.59 121.24 131.45 122.08 130.42 L 122.74 129.62 C 123.59 128.60 123.44 127.08 122.41 126.23 C 121.39 125.39 119.87 125.53 119.02 126.56 Z M 117.90 128.23 L 117.69 128.98 C 117.33 130.26 118.08 131.60 119.36 131.96 C 120.64 132.32 121.98 131.57 122.34 130.29 L 122.55 129.54 C 122.91 128.26 122.16 126.92 120.88 126.56 C 119.59 126.20 118.26 126.95 117.90 128.23 Z M 117.92 130.84 L 118.26 131.43 C 118.93 132.58 120.40 132.98 121.56 132.31 C 122.71 131.65 123.11 130.17 122.44 129.02 L 122.10 128.43 C 121.44 127.28 119.97 126.88 118.81 127.54 C 117.66 128.21 117.26 129.68 117.92 130.84 Z M 118.99 132.20 L 119.70 132.69 C 120.80 133.44 122.29 133.16 123.04 132.07 C 123.79 130.98 123.51 129.48 122.42 128.73 L 121.71 128.24 C 120.62 127.49 119.12 127.77 118.37 128.86 C 117.62 129.96 117.90 131.45 118.99 132.20 Z M 120.06 132.87 L 121.02 133.32 C 122.21 133.87 123.63 133.36 124.19 132.16 C 124.74 130.97 124.22 129.55 123.03 128.99 L 122.07 128.55 C 120.87 127.99 119.46 128.51 118.90 129.71 C 118.35 130.90 118.86 132.32 120.06 132.87 Z M 121.18 133.37 L 122.26 133.78 C 123.49 134.25 124.85 133.63 125.32 132.41 C 125.79 131.19 125.17 129.82 123.95 129.35 L 122.87 128.94 C 121.64 128.48 120.28 129.09 119.81 130.31 C 119.34 131.54 119.96 132.91 121.18 133.37 Z M 122.32 133.78 L 123.39 134.16 C 124.61 134.59 125.95 133.96 126.39 132.74 C 126.82 131.52 126.19 130.18 124.97 129.74 L 123.89 129.36 C 122.67 128.93 121.33 129.56 120.90 130.78 C 120.46 132.00 121.10 133.34 122.32 133.78 Z M 123.40 134.10 L 124.40 134.47 C 125.58 134.90 126.90 134.29 127.33 133.10 C 127.77 131.91 127.16 130.60 125.97 130.17 L 124.97 129.80 C 123.78 129.37 122.46 129.98 122.03 131.17 C 121.60 132.35 122.21 133.67 123.40 134.10 Z M 124.39 134.39 L 125.32 134.74 C 126.46 135.18 127.75 134.61 128.18 133.47 C 128.62 132.32 128.05 131.04 126.91 130.60 L 125.98 130.25 C 124.83 129.81 123.55 130.38 123.11 131.52 C 122.67 132.67 123.25 133.95 124.39 134.39 Z M 125.30 134.66 L 126.18 135.02 C 127.28 135.47 128.53 134.94 128.98 133.85 C 129.43 132.75 128.90 131.50 127.81 131.05 L 126.93 130.69 C 125.83 130.24 124.58 130.77 124.13 131.86 C 123.68 132.96 124.21 134.21 125.30 134.66 Z M 126.15 134.93 L 127.02 135.31 C 128.07 135.78 129.29 135.31 129.76 134.26 C 130.22 133.21 129.75 131.98 128.70 131.52 L 127.84 131.14 C 126.79 130.67 125.56 131.14 125.10 132.19 C 124.63 133.24 125.10 134.47 126.15 134.93 Z M 126.97 135.23 L 127.91 135.69 C 128.91 136.18 130.12 135.76 130.61 134.76 C 131.10 133.75 130.68 132.54 129.68 132.05 L 128.74 131.60 C 127.74 131.11 126.53 131.53 126.04 132.53 C 125.55 133.54 125.97 134.75 126.97 135.23 Z M 127.85 135.61 L 128.75 136.09 C 129.71 136.61 130.91 136.25 131.43 135.29 C 131.94 134.33 131.58 133.13 130.62 132.61 L 129.73 132.13 C 128.77 131.61 127.57 131.97 127.05 132.93 C 126.53 133.90 126.89 135.10 127.85 135.61 Z M 128.69 136.01 L 129.53 136.51 C 130.45 137.06 131.64 136.76 132.18 135.85 C 132.73 134.93 132.43 133.74 131.52 133.19 L 130.68 132.69 C 129.76 132.14 128.57 132.44 128.02 133.36 C 127.47 134.28 127.77 135.47 128.69 136.01 Z M 129.46 136.42 L 130.29 136.98 C 131.16 137.57 132.34 137.34 132.92 136.47 C 133.51 135.60 133.28 134.42 132.41 133.84 L 131.58 133.28 C 130.71 132.70 129.53 132.93 128.95 133.79 C 128.37 134.66 128.60 135.84 129.46 136.42 Z M 130.20 136.87 L 131.01 137.50 C 131.82 138.14 132.99 137.99 133.62 137.19 C 134.25 136.38 134.11 135.21 133.30 134.58 L 132.49 133.94 C 131.69 133.31 130.52 133.46 129.88 134.26 C 129.25 135.07 129.39 136.24 130.20 136.87 Z M 130.91 137.37 L 131.62 138.04 C 132.36 138.73 133.51 138.69 134.20 137.95 C 134.89 137.22 134.85 136.07 134.11 135.38 L 133.40 134.71 C 132.67 134.02 131.51 134.06 130.82 134.79 C 130.14 135.53 130.17 136.68 130.91 137.37 Z M 131.52 137.88 L 132.15 138.61 C 132.80 139.36 133.93 139.43 134.68 138.78 C 135.42 138.13 135.50 137.00 134.85 136.25 L 134.22 135.53 C 133.57 134.78 132.44 134.71 131.69 135.36 C 130.94 136.01 130.87 137.14 131.52 137.88 Z M 132.05 138.44 L 132.61 139.24 C 133.16 140.05 134.26 140.25 135.06 139.69 C 135.86 139.14 136.07 138.04 135.51 137.24 L 134.95 136.43 C 134.40 135.63 133.30 135.43 132.50 135.98 C 131.69 136.54 131.49 137.63 132.05 138.44 Z M 132.51 139.04 L 132.97 139.93 C 133.41 140.78 134.46 141.12 135.31 140.68 C 136.17 140.24 136.51 139.19 136.07 138.33 L 135.61 137.44 C 135.17 136.59 134.12 136.25 133.26 136.69 C 132.41 137.13 132.07 138.18 132.51 139.04 Z M 132.89 139.69 L 133.22 140.65 C 133.53 141.55 134.51 142.02 135.41 141.71 C 136.31 141.40 136.79 140.41 136.48 139.52 L 136.14 138.56 C 135.83 137.66 134.85 137.19 133.95 137.50 C 133.05 137.81 132.57 138.79 132.89 139.69 Z M 133.17 140.44 L 133.37 141.39 C 133.57 142.31 134.49 142.90 135.41 142.70 C 136.34 142.50 136.93 141.59 136.73 140.67 L 136.52 139.72 C 136.32 138.79 135.41 138.21 134.49 138.41 C 133.56 138.60 132.97 139.52 133.17 140.44 Z M 133.35 141.26 L 133.49 142.26 C 133.62 143.19 134.48 143.85 135.42 143.72 C 136.36 143.59 137.01 142.73 136.88 141.79 L 136.75 140.80 C 136.62 139.86 135.76 139.20 134.82 139.33 C 133.88 139.46 133.23 140.32 133.35 141.26 Z M 133.48 142.19 L 133.58 143.21 C 133.67 144.15 134.51 144.84 135.45 144.75 C 136.39 144.66 137.08 143.82 136.99 142.88 L 136.89 141.86 C 136.80 140.92 135.96 140.23 135.02 140.32 C 134.08 140.41 133.39 141.25 133.48 142.19 Z M 133.58 143.20 L 133.60 143.42 C 133.69 144.36 134.51 145.06 135.45 144.98 C 136.39 144.89 137.09 144.07 137.01 143.13 L 136.99 142.90 C 136.91 141.96 136.08 141.26 135.14 141.35 C 134.20 141.43 133.50 142.26 133.58 143.20 Z"
      fill="black"
      fill-rule="nonzero" /><path d="M 110.10 169.62 L 109.37 170.34 C 108.63 171.09 108.63 172.30 109.37 173.04 C 110.12 173.79 111.33 173.79 112.07 173.04 L 112.79 172.32 C 113.54 171.57 113.54 170.37 112.79 169.62 C 112.05 168.88 110.84 168.88 110.10 169.62 Z M 109.35 170.33 L 108.64 171.04 C 107.88 171.80 107.88 173.03 108.64 173.78 C 109.40 174.54 110.63 174.53 111.38 173.78 L 112.09 173.06 C 112.85 172.30 112.84 171.07 112.09 170.32 C 111.33 169.57 110.10 169.57 109.35 170.33 Z M 108.61 171.03 L 107.91 171.73 C 107.15 172.51 107.16 173.75 107.93 174.51 C 108.71 175.28 109.95 175.27 110.71 174.49 L 111.41 173.79 C 112.17 173.02 112.16 171.77 111.39 171.01 C 110.61 170.25 109.37 170.26 108.61 171.03 Z M 107.88 171.73 L 107.11 172.52 C 106.34 173.31 106.36 174.58 107.16 175.34 C 107.95 176.11 109.21 176.09 109.98 175.30 L 110.75 174.50 C 111.51 173.71 111.49 172.45 110.70 171.68 C 109.91 170.91 108.65 170.93 107.88 171.73 Z M 107.00 172.60 L 106.25 173.48 C 105.52 174.33 105.63 175.61 106.48 176.33 C 107.33 177.06 108.61 176.96 109.34 176.10 L 110.09 175.22 C 110.81 174.37 110.71 173.09 109.86 172.37 C 109.01 171.64 107.73 171.74 107.00 172.60 Z M 105.88 174.03 L 105.61 174.71 C 105.19 175.77 105.71 176.96 106.77 177.38 C 107.83 177.80 109.02 177.28 109.44 176.22 L 109.71 175.55 C 110.13 174.49 109.61 173.29 108.55 172.88 C 107.49 172.46 106.30 172.98 105.88 174.03 Z M 106.19 177.07 L 106.65 177.45 C 107.53 178.18 108.85 178.06 109.59 177.18 C 110.32 176.29 110.20 174.97 109.32 174.23 L 108.86 173.86 C 107.98 173.12 106.66 173.24 105.92 174.13 C 105.18 175.02 105.31 176.33 106.19 177.07 Z M 107.70 177.94 L 108.75 178.08 C 109.90 178.23 110.97 177.41 111.12 176.26 C 111.27 175.10 110.46 174.04 109.30 173.88 L 108.26 173.75 C 107.10 173.59 106.04 174.41 105.88 175.56 C 105.73 176.72 106.55 177.78 107.70 177.94 Z M 109.00 178.12 L 110.20 178.13 C 111.38 178.15 112.34 177.20 112.36 176.02 C 112.37 174.84 111.43 173.87 110.25 173.86 L 109.05 173.84 C 107.87 173.83 106.90 174.77 106.89 175.95 C 106.87 177.13 107.82 178.10 109.00 178.12 Z M 110.27 178.14 L 111.24 178.12 C 112.42 178.10 113.37 177.11 113.34 175.93 C 113.31 174.74 112.33 173.80 111.14 173.82 L 110.18 173.84 C 108.99 173.87 108.05 174.85 108.07 176.04 C 108.10 177.23 109.08 178.17 110.27 178.14 Z M 111.30 178.13 L 112.31 178.07 C 113.50 178.01 114.41 177.00 114.35 175.81 C 114.29 174.62 113.27 173.70 112.08 173.77 L 111.08 173.82 C 109.89 173.88 108.98 174.90 109.04 176.09 C 109.10 177.28 110.11 178.19 111.30 178.13 Z M 112.39 178.07 L 113.42 177.98 C 114.61 177.87 115.48 176.82 115.38 175.63 C 115.27 174.44 114.22 173.57 113.03 173.67 L 112.00 173.77 C 110.81 173.87 109.94 174.93 110.04 176.12 C 110.15 177.31 111.20 178.18 112.39 178.07 Z M 113.52 177.98 L 114.53 177.84 C 115.71 177.67 116.54 176.58 116.38 175.39 C 116.22 174.21 115.13 173.38 113.94 173.54 L 112.93 173.68 C 111.74 173.84 110.91 174.94 111.07 176.12 C 111.24 177.31 112.33 178.14 113.52 177.98 Z M 114.62 177.83 L 115.61 177.65 C 116.79 177.44 117.57 176.31 117.36 175.13 C 117.15 173.95 116.02 173.16 114.84 173.37 L 113.85 173.55 C 112.67 173.76 111.88 174.89 112.10 176.07 C 112.31 177.25 113.44 178.04 114.62 177.83 Z M 115.66 177.64 L 116.64 177.44 C 117.82 177.20 118.58 176.05 118.34 174.87 C 118.10 173.70 116.95 172.94 115.77 173.18 L 114.79 173.38 C 113.61 173.62 112.85 174.77 113.09 175.95 C 113.33 177.12 114.48 177.88 115.66 177.64 Z M 116.66 177.44 L 117.63 177.23 C 118.81 176.98 119.56 175.83 119.31 174.65 C 119.06 173.47 117.90 172.72 116.72 172.97 L 115.75 173.18 C 114.58 173.43 113.82 174.59 114.07 175.76 C 114.32 176.94 115.48 177.69 116.66 177.44 Z M 117.61 177.24 L 118.53 177.05 C 119.71 176.82 120.47 175.67 120.24 174.49 C 120.00 173.30 118.85 172.54 117.67 172.78 L 116.74 172.97 C 115.56 173.21 114.80 174.36 115.04 175.54 C 115.28 176.72 116.43 177.48 117.61 177.24 Z M 118.48 177.06 L 119.39 176.90 C 120.58 176.69 121.37 175.55 121.15 174.37 C 120.94 173.18 119.80 172.39 118.62 172.61 L 117.71 172.77 C 116.53 172.98 115.74 174.12 115.95 175.30 C 116.16 176.49 117.30 177.28 118.48 177.06 Z M 119.33 176.91 L 120.29 176.77 C 121.48 176.58 122.30 175.47 122.12 174.28 C 121.94 173.09 120.83 172.27 119.64 172.45 L 118.68 172.60 C 117.48 172.78 116.67 173.89 116.85 175.08 C 117.03 176.27 118.14 177.09 119.33 176.91 Z M 120.23 176.78 L 121.28 176.65 C 122.48 176.50 123.33 175.41 123.18 174.21 C 123.04 173.02 121.95 172.16 120.75 172.31 L 119.70 172.44 C 118.50 172.59 117.65 173.68 117.80 174.87 C 117.94 176.07 119.03 176.92 120.23 176.78 Z M 121.22 176.65 L 122.31 176.55 C 123.52 176.43 124.40 175.37 124.28 174.17 C 124.17 172.97 123.10 172.09 121.90 172.20 L 120.81 172.31 C 119.61 172.42 118.73 173.49 118.84 174.69 C 118.96 175.89 120.02 176.77 121.22 176.65 Z M 122.25 176.55 L 123.28 176.48 C 124.48 176.40 125.39 175.36 125.31 174.16 C 125.23 172.96 124.19 172.06 122.99 172.14 L 121.96 172.20 C 120.76 172.28 119.86 173.32 119.94 174.52 C 120.02 175.72 121.05 176.63 122.25 176.55 Z M 123.19 176.47 L 124.25 176.44 C 125.45 176.42 126.39 175.42 126.36 174.23 C 126.33 173.03 125.34 172.09 124.14 172.12 L 123.08 172.14 C 121.89 172.17 120.94 173.16 120.97 174.36 C 121.00 175.56 122.00 176.50 123.19 176.47 Z M 124.11 176.43 L 125.15 176.47 C 126.34 176.52 127.34 175.59 127.39 174.40 C 127.43 173.21 126.51 172.21 125.32 172.17 L 124.28 172.13 C 123.09 172.08 122.09 173.01 122.04 174.20 C 122.00 175.39 122.93 176.39 124.11 176.43 Z M 124.95 176.44 L 125.92 176.57 C 127.09 176.73 128.17 175.91 128.32 174.73 C 128.48 173.56 127.66 172.48 126.48 172.32 L 125.52 172.20 C 124.34 172.04 123.27 172.86 123.11 174.04 C 122.95 175.21 123.78 176.29 124.95 176.44 Z M 125.60 176.49 L 126.47 176.75 C 127.60 177.07 128.78 176.42 129.11 175.29 C 129.44 174.16 128.79 172.98 127.66 172.65 L 126.79 172.40 C 125.66 172.07 124.48 172.72 124.15 173.85 C 123.82 174.98 124.47 176.17 125.60 176.49 Z M 125.97 176.50 L 126.84 177.03 C 127.84 177.63 129.13 177.31 129.73 176.32 C 130.33 175.33 130.02 174.03 129.02 173.43 L 128.15 172.90 C 127.16 172.30 125.87 172.62 125.27 173.61 C 124.66 174.60 124.98 175.89 125.97 176.50 Z M 126.37 176.56 L 126.98 177.29 C 127.72 178.15 129.02 178.26 129.89 177.52 C 130.75 176.79 130.86 175.49 130.12 174.62 L 129.50 173.89 C 128.77 173.03 127.47 172.92 126.60 173.66 C 125.73 174.40 125.63 175.70 126.37 176.56 Z M 126.73 176.82 L 127.15 177.70 C 127.63 178.71 128.83 179.14 129.83 178.66 C 130.84 178.18 131.27 176.98 130.79 175.97 L 130.37 175.09 C 129.90 174.09 128.69 173.66 127.69 174.13 C 126.68 174.61 126.25 175.81 126.73 176.82 Z M 127.07 177.36 L 127.34 178.34 C 127.63 179.39 128.71 180.01 129.76 179.72 C 130.81 179.43 131.43 178.35 131.14 177.29 L 130.87 176.31 C 130.58 175.26 129.50 174.65 128.45 174.93 C 127.40 175.22 126.78 176.31 127.07 177.36 Z M 127.33 178.14 L 127.49 179.11 C 127.67 180.17 128.67 180.88 129.72 180.71 C 130.78 180.53 131.49 179.53 131.31 178.48 L 131.15 177.50 C 130.97 176.44 129.98 175.73 128.92 175.91 C 127.86 176.08 127.15 177.08 127.33 178.14 Z M 127.50 178.98 L 127.60 179.99 C 127.71 181.04 128.64 181.81 129.69 181.70 C 130.74 181.60 131.50 180.67 131.40 179.62 L 131.30 178.61 C 131.20 177.56 130.26 176.79 129.22 176.90 C 128.17 177.00 127.40 177.93 127.50 178.98 Z M 127.63 179.91 L 127.68 180.92 C 127.74 181.95 128.62 182.75 129.66 182.69 C 130.69 182.64 131.49 181.75 131.43 180.72 L 131.38 179.71 C 131.32 178.67 130.44 177.88 129.40 177.93 C 128.37 177.99 127.57 178.87 127.63 179.91 Z M 127.71 180.87 L 127.74 181.85 C 127.76 182.87 128.61 183.68 129.63 183.65 C 130.65 183.62 131.46 182.77 131.43 181.75 L 131.40 180.77 C 131.38 179.75 130.53 178.94 129.51 178.97 C 128.49 179.00 127.68 179.85 127.71 180.87 Z M 127.76 181.83 L 127.77 182.89 C 127.79 183.90 128.62 184.71 129.63 184.69 C 130.64 184.68 131.44 183.85 131.43 182.84 L 131.41 181.78 C 131.39 180.77 130.56 179.96 129.56 179.98 C 128.55 179.99 127.74 180.82 127.76 181.83 Z M 127.78 182.88 L 127.79 183.89 C 127.80 184.89 128.62 185.70 129.62 185.69 C 130.62 185.68 131.43 184.86 131.42 183.86 L 131.41 182.85 C 131.41 181.85 130.59 181.04 129.58 181.05 C 128.58 181.06 127.78 181.88 127.78 182.88 Z M 127.80 183.88 L 127.81 184.85 C 127.81 185.84 128.62 186.65 129.61 186.65 C 130.61 186.64 131.42 185.83 131.41 184.84 L 131.41 183.87 C 131.41 182.88 130.60 182.07 129.60 182.07 C 128.61 182.08 127.80 182.88 127.80 183.88 Z M 127.81 184.84 L 127.81 185.81 C 127.81 186.80 128.62 187.60 129.61 187.60 C 130.60 187.60 131.40 186.80 131.40 185.81 L 131.40 184.84 C 131.40 183.85 130.60 183.05 129.61 183.05 C 128.62 183.05 127.81 183.85 127.81 184.84 Z M 127.82 185.79 L 127.81 186.81 C 127.80 187.80 128.59 188.61 129.58 188.62 C 130.58 188.62 131.39 187.83 131.39 186.84 L 131.40 185.82 C 131.41 184.83 130.62 184.02 129.63 184.01 C 128.63 184.00 127.83 184.80 127.82 185.79 Z M 127.81 186.74 L 127.76 187.74 C 127.72 188.73 128.49 189.57 129.48 189.62 C 130.47 189.66 131.31 188.89 131.35 187.90 L 131.40 186.90 C 131.44 185.91 130.67 185.07 129.68 185.03 C 128.69 184.98 127.85 185.75 127.81 186.74 Z M 127.77 187.62 L 127.66 188.60 C 127.55 189.59 128.26 190.48 129.25 190.59 C 130.24 190.69 131.13 189.98 131.24 188.99 L 131.35 188.02 C 131.46 187.03 130.74 186.14 129.75 186.03 C 128.76 185.92 127.87 186.64 127.77 187.62 Z M 127.68 188.44 L 127.48 189.38 C 127.29 190.36 127.92 191.31 128.90 191.51 C 129.88 191.71 130.83 191.08 131.03 190.10 L 131.22 189.16 C 131.42 188.18 130.79 187.22 129.81 187.02 C 128.83 186.82 127.87 187.46 127.68 188.44 Z M 127.50 189.23 L 127.23 190.17 C 126.95 191.14 127.51 192.15 128.48 192.43 C 129.45 192.71 130.46 192.15 130.74 191.18 L 131.01 190.24 C 131.29 189.27 130.73 188.26 129.76 187.98 C 128.79 187.70 127.78 188.26 127.50 189.23 Z M 127.25 190.07 L 126.91 191.04 C 126.58 192.00 127.09 193.05 128.05 193.38 C 129.01 193.72 130.06 193.21 130.40 192.25 L 130.73 191.28 C 131.06 190.32 130.55 189.27 129.59 188.94 C 128.63 188.60 127.58 189.11 127.25 190.07 Z M 126.91 190.98 L 126.56 191.90 C 126.20 192.87 126.69 193.95 127.65 194.31 C 128.62 194.67 129.69 194.18 130.05 193.22 L 130.40 192.30 C 130.76 191.33 130.28 190.26 129.31 189.90 C 128.35 189.53 127.27 190.02 126.91 190.98 Z M 126.54 191.87 L 126.20 192.73 C 125.82 193.71 126.30 194.81 127.28 195.19 C 128.25 195.58 129.36 195.10 129.74 194.12 L 130.08 193.26 C 130.46 192.28 129.98 191.18 129.00 190.79 C 128.03 190.41 126.92 190.89 126.54 191.87 Z M 126.17 192.68 L 125.80 193.59 C 125.39 194.58 125.86 195.72 126.85 196.13 C 127.84 196.54 128.98 196.07 129.39 195.08 L 129.77 194.17 C 130.18 193.17 129.71 192.04 128.71 191.63 C 127.72 191.22 126.58 191.69 126.17 192.68 Z M 125.77 193.54 L 125.35 194.50 C 124.91 195.51 125.37 196.68 126.38 197.12 C 127.38 197.56 128.55 197.10 128.99 196.10 L 129.42 195.13 C 129.86 194.13 129.40 192.95 128.39 192.51 C 127.39 192.07 126.21 192.53 125.77 193.54 Z M 125.32 194.44 L 124.84 195.47 C 124.36 196.49 124.81 197.70 125.83 198.18 C 126.85 198.66 128.06 198.21 128.54 197.19 L 129.02 196.16 C 129.50 195.14 129.06 193.92 128.03 193.45 C 127.01 192.97 125.80 193.41 125.32 194.44 Z M 124.77 195.40 L 124.23 196.50 C 123.72 197.56 124.17 198.84 125.23 199.36 C 126.29 199.87 127.57 199.43 128.08 198.36 L 128.61 197.26 C 129.13 196.20 128.68 194.92 127.62 194.41 C 126.56 193.89 125.28 194.34 124.77 195.40 Z M 124.10 196.48 L 123.63 197.51 C 123.10 198.65 123.60 199.99 124.73 200.52 C 125.87 201.04 127.22 200.55 127.74 199.41 L 128.21 198.38 C 128.74 197.25 128.24 195.90 127.11 195.38 C 125.97 194.85 124.63 195.35 124.10 196.48 Z M 123.44 197.62 L 123.13 198.47 C 122.66 199.71 123.29 201.08 124.53 201.55 C 125.77 202.01 127.15 201.38 127.61 200.14 L 127.93 199.30 C 128.39 198.06 127.76 196.68 126.52 196.22 C 125.28 195.76 123.90 196.39 123.44 197.62 Z M 122.86 199.14 L 122.83 199.72 C 122.73 201.10 123.78 202.30 125.16 202.39 C 126.54 202.49 127.74 201.44 127.83 200.06 L 127.87 199.47 C 127.97 198.09 126.92 196.89 125.54 196.80 C 124.15 196.71 122.96 197.75 122.86 199.14 Z M 124.91 202.43 L 125.48 202.52 C 126.89 202.75 128.21 201.81 128.44 200.41 C 128.67 199.00 127.73 197.68 126.32 197.45 L 125.75 197.35 C 124.35 197.12 123.02 198.07 122.79 199.47 C 122.56 200.87 123.51 202.19 124.91 202.43 Z M 127.04 202.31 L 128.11 201.79 C 129.39 201.16 129.92 199.61 129.29 198.32 C 128.66 197.04 127.11 196.51 125.82 197.14 L 124.76 197.66 C 123.48 198.29 122.95 199.84 123.58 201.13 C 124.21 202.41 125.76 202.94 127.04 202.31 Z M 128.40 201.63 L 129.34 201.01 C 130.54 200.22 130.87 198.60 130.07 197.41 C 129.28 196.21 127.67 195.88 126.47 196.67 L 125.53 197.30 C 124.33 198.09 124.00 199.70 124.80 200.90 C 125.59 202.10 127.20 202.43 128.40 201.63 Z M 129.46 200.93 L 130.26 200.33 C 131.42 199.48 131.66 197.85 130.80 196.69 C 129.94 195.54 128.31 195.30 127.16 196.15 L 126.35 196.75 C 125.20 197.61 124.96 199.24 125.82 200.39 C 126.67 201.55 128.30 201.79 129.46 200.93 Z M 130.33 200.28 L 131.13 199.64 C 132.25 198.75 132.44 197.11 131.54 195.99 C 130.65 194.86 129.01 194.68 127.89 195.57 L 127.09 196.21 C 125.97 197.11 125.78 198.74 126.68 199.87 C 127.57 200.99 129.21 201.17 130.33 200.28 Z M 131.18 199.60 L 131.95 198.95 C 133.05 198.03 133.19 196.39 132.27 195.29 C 131.35 194.19 129.71 194.05 128.61 194.97 L 127.84 195.62 C 126.74 196.54 126.59 198.18 127.52 199.28 C 128.44 200.38 130.08 200.52 131.18 199.60 Z M 131.98 198.91 L 132.74 198.25 C 133.82 197.31 133.93 195.67 132.99 194.59 C 132.05 193.52 130.41 193.41 129.34 194.35 L 128.58 195.01 C 127.50 195.95 127.39 197.59 128.33 198.66 C 129.27 199.74 130.91 199.85 131.98 198.91 Z M 132.76 198.19 L 133.50 197.52 C 134.54 196.57 134.62 194.95 133.66 193.91 C 132.71 192.86 131.09 192.78 130.05 193.74 L 129.31 194.40 C 128.27 195.36 128.19 196.98 129.15 198.02 C 130.10 199.07 131.72 199.14 132.76 198.19 Z M 133.52 197.46 L 134.23 196.78 C 135.24 195.82 135.27 194.22 134.31 193.21 C 133.34 192.20 131.74 192.16 130.73 193.12 L 130.02 193.80 C 129.01 194.77 128.98 196.37 129.94 197.38 C 130.91 198.39 132.51 198.42 133.52 197.46 Z M 134.25 196.72 L 134.96 196.00 C 135.94 195.02 135.93 193.44 134.96 192.47 C 133.98 191.49 132.40 191.50 131.43 192.47 L 130.71 193.19 C 129.74 194.17 129.74 195.75 130.72 196.72 C 131.69 197.70 133.27 197.69 134.25 196.72 Z M 134.97 195.93 L 135.62 195.25 C 136.56 194.27 136.52 192.72 135.54 191.78 C 134.56 190.84 133.01 190.88 132.07 191.86 L 131.42 192.54 C 130.48 193.52 130.52 195.08 131.50 196.01 C 132.48 196.95 134.03 196.91 134.97 195.93 Z M 135.62 195.18 L 136.28 194.45 C 137.17 193.47 137.11 191.95 136.13 191.06 C 135.15 190.16 133.63 190.23 132.73 191.21 L 132.07 191.94 C 131.18 192.91 131.24 194.43 132.22 195.33 C 133.20 196.22 134.72 196.16 135.62 195.18 Z M 136.28 194.37 L 136.95 193.61 C 137.80 192.63 137.69 191.14 136.72 190.29 C 135.74 189.44 134.25 189.54 133.40 190.52 L 132.74 191.29 C 131.88 192.27 131.99 193.75 132.96 194.60 C 133.94 195.45 135.43 195.35 136.28 194.37 Z M 136.95 193.52 L 137.61 192.71 C 138.41 191.74 138.27 190.29 137.30 189.49 C 136.32 188.68 134.87 188.82 134.07 189.80 L 133.40 190.61 C 132.60 191.59 132.74 193.03 133.72 193.84 C 134.70 194.64 136.14 194.50 136.95 193.52 Z M 137.61 192.62 L 138.21 191.85 C 138.96 190.87 138.78 189.47 137.81 188.71 C 136.83 187.96 135.43 188.14 134.67 189.11 L 134.07 189.89 C 133.32 190.87 133.50 192.27 134.47 193.02 C 135.45 193.78 136.85 193.60 137.61 192.62 Z M 138.19 191.76 L 138.76 190.98 C 139.47 190.01 139.26 188.65 138.29 187.95 C 137.32 187.24 135.97 187.45 135.26 188.42 L 134.69 189.20 C 133.98 190.17 134.20 191.52 135.16 192.23 C 136.13 192.94 137.48 192.72 138.19 191.76 Z M 138.73 190.89 L 139.30 190.08 C 139.96 189.13 139.72 187.82 138.77 187.16 C 137.82 186.50 136.51 186.74 135.85 187.69 L 135.29 188.50 C 134.63 189.45 134.86 190.76 135.82 191.42 C 136.77 192.08 138.07 191.84 138.73 190.89 Z M 139.27 190.00 L 139.83 189.15 C 140.45 188.22 140.19 186.96 139.26 186.34 C 138.33 185.73 137.07 185.98 136.45 186.91 L 135.89 187.76 C 135.27 188.70 135.52 189.95 136.46 190.57 C 137.39 191.19 138.65 190.94 139.27 190.00 Z M 139.79 189.09 L 140.36 188.20 C 140.94 187.29 140.67 186.08 139.76 185.49 C 138.84 184.91 137.63 185.18 137.05 186.09 L 136.49 186.98 C 135.91 187.89 136.18 189.10 137.09 189.68 C 138.00 190.27 139.21 190.00 139.79 189.09 Z M 140.33 188.15 L 140.83 187.33 C 141.38 186.43 141.11 185.26 140.21 184.71 C 139.32 184.15 138.14 184.43 137.59 185.33 L 137.08 186.15 C 136.53 187.04 136.81 188.21 137.70 188.77 C 138.60 189.32 139.77 189.04 140.33 188.15 Z M 140.81 187.29 L 141.32 186.45 C 141.85 185.57 141.57 184.42 140.68 183.88 C 139.80 183.35 138.65 183.64 138.12 184.52 L 137.61 185.36 C 137.08 186.25 137.36 187.39 138.25 187.93 C 139.13 188.46 140.28 188.18 140.81 187.29 Z M 141.29 186.42 L 141.81 185.56 C 142.32 184.69 142.04 183.56 141.16 183.05 C 140.29 182.53 139.17 182.82 138.65 183.69 L 138.14 184.55 C 137.63 185.42 137.91 186.54 138.78 187.06 C 139.65 187.58 140.78 187.29 141.29 186.42 Z M 141.78 185.53 L 142.29 184.65 C 142.80 183.80 142.51 182.70 141.65 182.19 C 140.80 181.69 139.70 181.98 139.19 182.84 L 138.68 183.71 C 138.18 184.57 138.47 185.67 139.32 186.17 C 140.18 186.67 141.28 186.39 141.78 185.53 Z M 142.27 184.63 L 142.78 183.74 C 143.27 182.90 142.99 181.83 142.15 181.34 C 141.31 180.85 140.23 181.13 139.74 181.97 L 139.22 182.86 C 138.73 183.70 139.02 184.78 139.86 185.27 C 140.70 185.76 141.78 185.47 142.27 184.63 Z M 142.76 183.73 L 142.96 183.38 C 143.45 182.55 143.16 181.49 142.34 181.01 C 141.51 180.53 140.44 180.81 139.96 181.64 L 139.76 181.99 C 139.28 182.82 139.56 183.88 140.39 184.36 C 141.22 184.84 142.28 184.56 142.76 183.73 Z"
      fill="black"
      fill-rule="nonzero" /><path d="M 151.12 110.11 L 150.92 111.09 C 150.70 112.13 151.37 113.15 152.42 113.37 C 153.46 113.58 154.48 112.91 154.70 111.87 L 154.90 110.89 C 155.11 109.85 154.44 108.83 153.40 108.61 C 152.35 108.39 151.33 109.07 151.12 110.11 Z M 150.77 111.08 L 150.58 112.06 C 150.36 113.19 151.09 114.28 152.22 114.50 C 153.35 114.72 154.44 113.98 154.66 112.85 L 154.85 111.87 C 155.07 110.75 154.33 109.66 153.20 109.44 C 152.08 109.22 150.99 109.96 150.77 111.08 Z M 150.42 112.09 L 150.25 113.07 C 150.05 114.28 150.86 115.43 152.08 115.64 C 153.29 115.84 154.44 115.03 154.64 113.82 L 154.81 112.83 C 155.02 111.62 154.20 110.47 152.99 110.26 C 151.78 110.06 150.63 110.87 150.42 112.09 Z M 150.11 113.13 L 149.98 114.11 C 149.81 115.40 150.71 116.58 152.00 116.76 C 153.29 116.93 154.48 116.03 154.65 114.74 L 154.78 113.76 C 154.96 112.47 154.05 111.28 152.76 111.11 C 151.47 110.94 150.29 111.84 150.11 113.13 Z M 149.91 114.19 L 149.82 115.12 C 149.70 116.45 150.67 117.63 152.00 117.75 C 153.32 117.88 154.50 116.91 154.63 115.58 L 154.72 114.65 C 154.85 113.32 153.88 112.15 152.55 112.02 C 151.22 111.89 150.04 112.86 149.91 114.19 Z M 149.82 115.18 L 149.75 116.15 C 149.66 117.48 150.67 118.63 152.00 118.73 C 153.33 118.82 154.48 117.81 154.57 116.48 L 154.64 115.52 C 154.73 114.19 153.72 113.03 152.39 112.94 C 151.06 112.85 149.91 113.85 149.82 115.18 Z M 149.75 116.19 L 149.70 117.21 C 149.62 118.54 150.65 119.68 151.98 119.75 C 153.31 119.82 154.45 118.80 154.52 117.47 L 154.57 116.44 C 154.64 115.11 153.62 113.98 152.29 113.91 C 150.96 113.83 149.82 114.86 149.75 116.19 Z M 149.70 117.22 L 149.64 118.31 C 149.58 119.64 150.60 120.77 151.94 120.84 C 153.27 120.90 154.40 119.87 154.47 118.54 L 154.52 117.46 C 154.58 116.13 153.56 114.99 152.22 114.93 C 150.89 114.86 149.76 115.89 149.70 117.22 Z M 149.64 118.30 L 149.59 119.30 C 149.53 120.63 150.55 121.77 151.88 121.83 C 153.21 121.90 154.35 120.88 154.41 119.54 L 154.46 118.55 C 154.53 117.22 153.51 116.08 152.18 116.01 C 150.85 115.95 149.71 116.97 149.64 118.30 Z M 149.59 119.30 L 149.54 120.33 C 149.47 121.66 150.49 122.79 151.82 122.86 C 153.15 122.93 154.29 121.91 154.36 120.58 L 154.41 119.55 C 154.48 118.22 153.46 117.08 152.13 117.01 C 150.80 116.94 149.66 117.96 149.59 119.30 Z M 149.54 120.32 L 149.49 121.35 C 149.41 122.68 150.43 123.82 151.77 123.89 C 153.10 123.96 154.23 122.94 154.30 121.61 L 154.36 120.58 C 154.43 119.25 153.41 118.11 152.08 118.04 C 150.75 117.97 149.61 118.99 149.54 120.32 Z M 149.49 121.35 L 149.43 122.34 C 149.36 123.67 150.38 124.81 151.71 124.88 C 153.04 124.95 154.18 123.93 154.25 122.60 L 154.30 121.61 C 154.37 120.28 153.35 119.14 152.02 119.07 C 150.69 119.00 149.56 120.02 149.49 121.35 Z M 149.43 122.35 L 149.38 123.34 C 149.31 124.67 150.33 125.80 151.66 125.87 C 152.99 125.94 154.12 124.92 154.19 123.59 L 154.25 122.60 C 154.32 121.27 153.30 120.14 151.97 120.07 C 150.64 120.00 149.50 121.02 149.43 122.35 Z M 149.39 123.34 L 149.33 124.43 C 149.26 125.76 150.28 126.89 151.61 126.96 C 152.94 127.03 154.07 126.00 154.13 124.68 L 154.19 123.59 C 154.26 122.26 153.24 121.13 151.91 121.06 C 150.58 120.99 149.45 122.01 149.39 123.34 Z M 149.34 124.44 L 149.29 125.42 C 149.22 126.74 150.24 127.87 151.57 127.93 C 152.89 128.00 154.01 126.98 154.08 125.65 L 154.13 124.67 C 154.19 123.35 153.17 122.22 151.85 122.16 C 150.53 122.09 149.40 123.11 149.34 124.44 Z M 149.30 125.42 L 149.25 126.34 C 149.19 127.66 150.21 128.78 151.53 128.85 C 152.85 128.91 153.97 127.89 154.03 126.57 L 154.07 125.65 C 154.14 124.33 153.12 123.21 151.80 123.15 C 150.48 123.08 149.36 124.10 149.30 125.42 Z M 149.26 126.35 L 149.21 127.29 C 149.15 128.61 150.17 129.73 151.49 129.79 C 152.80 129.85 153.92 128.83 153.98 127.52 L 154.02 126.57 C 154.08 125.25 153.07 124.14 151.75 124.07 C 150.44 124.01 149.32 125.03 149.26 126.35 Z M 149.22 127.30 L 149.18 128.29 C 149.12 129.60 150.13 130.71 151.44 130.77 C 152.75 130.83 153.87 129.82 153.93 128.51 L 153.97 127.51 C 154.03 126.20 153.02 125.09 151.71 125.03 C 150.39 124.97 149.28 125.98 149.22 127.30 Z M 149.18 128.29 L 149.14 129.29 C 149.08 130.60 150.09 131.71 151.40 131.77 C 152.71 131.83 153.82 130.82 153.87 129.51 L 153.92 128.50 C 153.98 127.20 152.97 126.09 151.66 126.03 C 150.35 125.97 149.24 126.98 149.18 128.29 Z M 149.14 129.30 L 149.10 130.31 C 149.04 131.61 150.05 132.72 151.35 132.78 C 152.66 132.83 153.76 131.82 153.82 130.52 L 153.87 129.51 C 153.93 128.20 152.92 127.10 151.61 127.04 C 150.31 126.98 149.20 127.99 149.14 129.30 Z M 149.11 130.31 L 149.06 131.31 C 149.00 132.61 150.01 133.72 151.31 133.77 C 152.61 133.83 153.71 132.82 153.77 131.52 L 153.81 130.52 C 153.87 129.22 152.86 128.12 151.56 128.06 C 150.26 128.00 149.16 129.01 149.11 130.31 Z M 149.07 131.31 L 149.03 132.32 C 148.97 133.61 149.97 134.71 151.27 134.77 C 152.56 134.83 153.66 133.82 153.72 132.53 L 153.76 131.52 C 153.82 130.23 152.82 129.13 151.52 129.07 C 150.22 129.02 149.13 130.02 149.07 131.31 Z M 149.04 132.32 L 148.99 133.31 C 148.93 134.60 149.93 135.69 151.22 135.75 C 152.51 135.81 153.61 134.81 153.66 133.52 L 153.71 132.53 C 153.77 131.24 152.77 130.14 151.48 130.09 C 150.19 130.03 149.09 131.03 149.04 132.32 Z M 149.00 133.31 L 148.96 134.31 C 148.90 135.59 149.89 136.68 151.18 136.74 C 152.46 136.80 153.55 135.81 153.61 134.52 L 153.65 133.52 C 153.71 132.24 152.72 131.15 151.43 131.09 C 150.15 131.03 149.06 132.02 149.00 133.31 Z M 148.97 134.31 L 148.92 135.30 C 148.86 136.58 149.85 137.66 151.13 137.72 C 152.41 137.78 153.49 136.79 153.55 135.52 L 153.60 134.52 C 153.66 133.24 152.67 132.16 151.39 132.10 C 150.11 132.04 149.03 133.03 148.97 134.31 Z M 148.93 135.30 L 148.89 136.30 C 148.83 137.57 149.81 138.65 151.08 138.71 C 152.35 138.77 153.43 137.78 153.49 136.51 L 153.54 135.51 C 153.60 134.24 152.61 133.16 151.34 133.10 C 150.07 133.04 148.99 134.03 148.93 135.30 Z M 148.90 136.30 L 148.85 137.26 C 148.79 138.53 149.77 139.60 151.04 139.66 C 152.31 139.72 153.38 138.74 153.44 137.47 L 153.48 136.51 C 153.54 135.24 152.56 134.17 151.29 134.11 C 150.03 134.05 148.95 135.03 148.90 136.30 Z M 148.86 137.27 L 148.82 138.19 C 148.76 139.45 149.74 140.52 151.00 140.58 C 152.26 140.63 153.33 139.66 153.38 138.40 L 153.43 137.47 C 153.48 136.21 152.51 135.14 151.25 135.09 C 149.99 135.03 148.92 136.01 148.86 137.27 Z M 148.83 138.19 L 148.79 139.17 C 148.73 140.43 149.70 141.49 150.95 141.55 C 152.20 141.61 153.27 140.64 153.33 139.39 L 153.37 138.40 C 153.43 137.15 152.46 136.09 151.21 136.03 C 149.96 135.97 148.89 136.94 148.83 138.19 Z M 148.80 139.17 L 148.75 140.24 C 148.69 141.48 149.65 142.54 150.89 142.61 C 152.14 142.67 153.20 141.71 153.26 140.46 L 153.31 139.39 C 153.38 138.15 152.42 137.09 151.17 137.02 C 149.92 136.96 148.86 137.92 148.80 139.17 Z M 148.76 140.23 L 148.71 141.24 C 148.64 142.48 149.59 143.54 150.83 143.60 C 152.07 143.67 153.13 142.72 153.20 141.48 L 153.25 140.47 C 153.32 139.23 152.36 138.17 151.12 138.10 C 149.88 138.04 148.82 138.99 148.76 140.23 Z M 148.72 141.24 L 148.66 142.21 C 148.60 143.45 149.54 144.50 150.78 144.57 C 152.01 144.64 153.06 143.69 153.13 142.46 L 153.19 141.48 C 153.25 140.25 152.31 139.19 151.07 139.12 C 149.84 139.06 148.78 140.00 148.72 141.24 Z M 148.67 142.21 L 148.62 143.22 C 148.55 144.45 149.49 145.50 150.72 145.57 C 151.95 145.64 153.00 144.70 153.07 143.47 L 153.12 142.46 C 153.19 141.23 152.25 140.18 151.02 140.11 C 149.79 140.04 148.74 140.98 148.67 142.21 Z M 148.63 143.23 L 148.57 144.25 C 148.51 145.48 149.45 146.52 150.67 146.59 C 151.89 146.65 152.93 145.71 153.00 144.49 L 153.05 143.46 C 153.12 142.24 152.18 141.20 150.96 141.13 C 149.74 141.07 148.70 142.01 148.63 143.23 Z M 148.59 144.26 L 148.53 145.28 C 148.47 146.50 149.41 147.53 150.62 147.60 C 151.84 147.66 152.88 146.72 152.94 145.51 L 152.99 144.48 C 153.05 143.27 152.11 142.23 150.90 142.17 C 149.68 142.11 148.65 143.05 148.59 144.26 Z M 148.55 145.29 L 148.50 146.33 C 148.45 147.53 149.38 148.56 150.59 148.61 C 151.79 148.67 152.82 147.74 152.87 146.53 L 152.92 145.49 C 152.98 144.29 152.04 143.27 150.84 143.21 C 149.63 143.15 148.61 144.09 148.55 145.29 Z M 148.53 146.34 L 148.49 147.35 C 148.44 148.55 149.36 149.55 150.56 149.60 C 151.75 149.65 152.75 148.73 152.80 147.53 L 152.85 146.52 C 152.90 145.33 151.97 144.32 150.78 144.27 C 149.58 144.22 148.58 145.15 148.53 146.34 Z M 148.51 147.36 L 148.48 148.35 C 148.43 149.53 149.35 150.52 150.53 150.57 C 151.70 150.61 152.69 149.69 152.74 148.52 L 152.78 147.52 C 152.82 146.35 151.90 145.36 150.73 145.31 C 149.55 145.27 148.56 146.18 148.51 147.36 Z M 148.50 148.36 L 148.47 149.34 C 148.43 150.50 149.34 151.48 150.50 151.52 C 151.66 151.56 152.64 150.65 152.68 149.49 L 152.71 148.51 C 152.75 147.35 151.84 146.37 150.68 146.33 C 149.52 146.29 148.54 147.20 148.50 148.36 Z M 148.49 149.34 L 148.47 150.13 C 148.43 151.27 149.33 152.24 150.47 152.28 C 151.62 152.32 152.58 151.42 152.62 150.27 L 152.65 149.49 C 152.69 148.34 151.79 147.38 150.64 147.34 C 149.50 147.30 148.53 148.19 148.49 149.34 Z"
      fill="black"
      fill-rule="nonzero" /><path d="M 152.34 141.52 L 153.17 141.11 C 154.32 140.54 154.79 139.15 154.23 137.99 C 153.66 136.84 152.26 136.36 151.11 136.93 L 150.29 137.34 C 149.13 137.91 148.66 139.30 149.23 140.46 C 149.79 141.61 151.19 142.08 152.34 141.52 Z M 153.11 141.17 L 153.99 140.77 C 155.17 140.23 155.70 138.84 155.16 137.65 C 154.62 136.47 153.23 135.94 152.04 136.48 L 151.17 136.88 C 149.98 137.41 149.46 138.81 149.99 139.99 C 150.53 141.18 151.92 141.70 153.11 141.17 Z M 153.87 140.84 L 154.86 140.46 C 156.09 139.99 156.69 138.61 156.22 137.38 C 155.74 136.16 154.37 135.55 153.14 136.02 L 152.15 136.41 C 150.93 136.88 150.32 138.26 150.80 139.48 C 151.27 140.71 152.65 141.32 153.87 140.84 Z M 154.73 140.53 L 155.69 140.22 C 156.95 139.82 157.65 138.47 157.25 137.21 C 156.84 135.95 155.50 135.25 154.24 135.65 L 153.27 135.96 C 152.01 136.36 151.32 137.71 151.72 138.97 C 152.12 140.23 153.47 140.93 154.73 140.53 Z M 155.59 140.25 L 156.52 140.00 C 157.80 139.65 158.56 138.34 158.21 137.06 C 157.87 135.78 156.55 135.03 155.28 135.37 L 154.34 135.62 C 153.06 135.97 152.30 137.28 152.65 138.56 C 152.99 139.84 154.31 140.59 155.59 140.25 Z M 156.45 140.01 L 157.44 139.77 C 158.73 139.47 159.52 138.18 159.21 136.90 C 158.91 135.61 157.62 134.82 156.34 135.12 L 155.35 135.36 C 154.06 135.66 153.27 136.95 153.57 138.24 C 153.88 139.52 155.17 140.31 156.45 140.01 Z M 157.39 139.78 L 158.40 139.56 C 159.69 139.29 160.51 138.02 160.23 136.74 C 159.96 135.45 158.69 134.63 157.41 134.90 L 156.39 135.12 C 155.11 135.39 154.29 136.66 154.56 137.94 C 154.83 139.23 156.10 140.05 157.39 139.78 Z M 158.36 139.56 L 159.37 139.37 C 160.65 139.12 161.50 137.87 161.25 136.58 C 161.00 135.30 159.75 134.45 158.46 134.70 L 157.45 134.90 C 156.16 135.15 155.32 136.40 155.57 137.68 C 155.82 138.97 157.07 139.81 158.36 139.56 Z M 159.33 139.36 L 160.36 139.18 C 161.64 138.95 162.50 137.72 162.27 136.44 C 162.04 135.15 160.82 134.30 159.53 134.53 L 158.50 134.71 C 157.21 134.94 156.36 136.17 156.59 137.45 C 156.82 138.74 158.04 139.59 159.33 139.36 Z M 160.33 139.16 L 161.33 139.00 C 162.60 138.79 163.47 137.58 163.25 136.30 C 163.04 135.03 161.84 134.17 160.56 134.38 L 159.56 134.54 C 158.29 134.75 157.42 135.96 157.63 137.23 C 157.85 138.51 159.05 139.37 160.33 139.16 Z M 161.30 138.98 L 162.28 138.83 C 163.54 138.63 164.41 137.44 164.21 136.18 C 164.01 134.91 162.83 134.04 161.56 134.24 L 160.59 134.39 C 159.32 134.59 158.45 135.78 158.65 137.05 C 158.85 138.31 160.04 139.18 161.30 138.98 Z M 162.26 138.81 L 163.22 138.67 C 164.47 138.48 165.34 137.30 165.15 136.05 C 164.96 134.79 163.78 133.92 162.53 134.11 L 161.57 134.26 C 160.31 134.45 159.45 135.62 159.64 136.88 C 159.83 138.14 161.00 139.00 162.26 138.81 Z M 163.21 138.65 L 164.15 138.50 C 165.40 138.32 166.25 137.15 166.07 135.91 C 165.88 134.66 164.72 133.81 163.47 133.99 L 162.53 134.13 C 161.29 134.32 160.43 135.49 160.62 136.73 C 160.80 137.98 161.97 138.83 163.21 138.65 Z M 164.14 138.48 L 165.09 138.34 C 166.32 138.16 167.17 137.01 166.99 135.77 C 166.80 134.54 165.65 133.69 164.42 133.87 L 163.48 134.01 C 162.24 134.20 161.39 135.35 161.58 136.58 C 161.76 137.82 162.91 138.67 164.14 138.48 Z M 165.08 138.32 L 166.05 138.18 C 167.27 138.00 168.12 136.87 167.94 135.65 C 167.76 134.42 166.63 133.58 165.41 133.75 L 164.43 133.89 C 163.21 134.07 162.36 135.21 162.54 136.43 C 162.72 137.65 163.85 138.50 165.08 138.32 Z M 166.03 138.16 L 167.06 138.02 C 168.27 137.85 169.12 136.73 168.95 135.52 C 168.78 134.31 167.67 133.47 166.45 133.63 L 165.43 133.77 C 164.22 133.94 163.37 135.06 163.54 136.27 C 163.70 137.48 164.82 138.33 166.03 138.16 Z M 167.04 138.00 L 168.08 137.86 C 169.28 137.71 170.13 136.61 169.97 135.41 C 169.82 134.21 168.72 133.36 167.52 133.52 L 166.48 133.65 C 165.28 133.81 164.43 134.90 164.58 136.10 C 164.74 137.30 165.84 138.15 167.04 138.00 Z M 168.06 137.84 L 169.06 137.72 C 170.25 137.58 171.10 136.50 170.95 135.31 C 170.81 134.12 169.73 133.28 168.54 133.42 L 167.54 133.54 C 166.36 133.68 165.51 134.76 165.65 135.95 C 165.79 137.14 166.87 137.98 168.06 137.84 Z M 169.05 137.70 L 170.07 137.58 C 171.25 137.44 172.09 136.38 171.96 135.21 C 171.82 134.04 170.76 133.19 169.59 133.33 L 168.56 133.44 C 167.39 133.58 166.54 134.64 166.68 135.81 C 166.81 136.99 167.87 137.83 169.05 137.70 Z M 170.06 137.55 L 171.08 137.44 C 172.24 137.31 173.08 136.27 172.95 135.11 C 172.82 133.95 171.78 133.11 170.62 133.24 L 169.60 133.35 C 168.44 133.48 167.60 134.52 167.73 135.68 C 167.86 136.84 168.90 137.68 170.06 137.55 Z M 171.07 137.42 L 172.05 137.31 C 173.20 137.19 174.03 136.16 173.91 135.02 C 173.79 133.87 172.76 133.04 171.61 133.16 L 170.63 133.26 C 169.48 133.39 168.65 134.41 168.77 135.56 C 168.89 136.71 169.92 137.54 171.07 137.42 Z M 172.04 137.29 L 173.03 137.18 C 174.16 137.07 174.98 136.06 174.87 134.93 C 174.75 133.80 173.74 132.97 172.61 133.09 L 171.62 133.19 C 170.49 133.30 169.67 134.31 169.78 135.45 C 169.90 136.58 170.91 137.40 172.04 137.29 Z M 173.02 137.14 L 174.06 137.04 C 175.17 136.93 175.98 135.94 175.87 134.83 C 175.76 133.72 174.77 132.91 173.66 133.02 L 172.62 133.13 C 171.51 133.24 170.70 134.23 170.81 135.34 C 170.92 136.45 171.91 137.25 173.02 137.14 Z M 174.06 136.99 L 175.03 136.89 C 176.11 136.78 176.90 135.82 176.79 134.74 C 176.68 133.66 175.72 132.87 174.64 132.98 L 173.67 133.07 C 172.58 133.18 171.80 134.15 171.90 135.23 C 172.01 136.31 172.98 137.10 174.06 136.99 Z M 175.03 136.84 L 175.98 136.74 C 177.04 136.63 177.80 135.69 177.69 134.63 C 177.58 133.58 176.63 132.81 175.58 132.93 L 174.63 133.03 C 173.58 133.14 172.81 134.08 172.92 135.14 C 173.04 136.19 173.98 136.95 175.03 136.84 Z M 175.99 136.70 L 176.95 136.59 C 177.98 136.47 178.71 135.54 178.59 134.51 C 178.48 133.48 177.55 132.74 176.52 132.86 L 175.56 132.97 C 174.54 133.09 173.80 134.02 173.92 135.05 C 174.04 136.08 174.97 136.81 175.99 136.70 Z M 176.96 136.55 L 177.91 136.43 C 178.92 136.31 179.64 135.39 179.51 134.38 C 179.39 133.37 178.46 132.65 177.45 132.78 L 176.50 132.89 C 175.49 133.02 174.78 133.94 174.90 134.95 C 175.03 135.96 175.95 136.68 176.96 136.55 Z M 177.92 136.41 L 178.91 136.28 C 179.91 136.15 180.61 135.23 180.48 134.24 C 180.35 133.24 179.43 132.54 178.44 132.67 L 177.45 132.80 C 176.45 132.93 175.75 133.85 175.88 134.84 C 176.01 135.84 176.92 136.54 177.92 136.41 Z M 178.92 136.26 L 179.93 136.12 C 180.92 135.99 181.61 135.08 181.48 134.09 C 181.34 133.11 180.43 132.42 179.45 132.55 L 178.43 132.69 C 177.45 132.82 176.76 133.73 176.89 134.72 C 177.02 135.70 177.93 136.39 178.92 136.26 Z M 179.93 136.10 L 180.96 135.96 C 181.93 135.82 182.61 134.93 182.48 133.95 C 182.35 132.98 181.45 132.30 180.47 132.43 L 179.45 132.57 C 178.48 132.71 177.79 133.61 177.93 134.58 C 178.06 135.55 178.96 136.23 179.93 136.10 Z"
      fill="black"
      fill-rule="nonzero" /><path d="M 161.90 116.96 L 161.53 117.95 C 161.11 119.07 161.68 120.32 162.80 120.75 C 163.92 121.17 165.18 120.60 165.60 119.48 L 165.97 118.50 C 166.40 117.38 165.83 116.12 164.71 115.70 C 163.58 115.27 162.33 115.84 161.90 116.96 Z M 161.51 117.97 L 161.16 118.94 C 160.74 120.08 161.33 121.33 162.47 121.74 C 163.61 122.16 164.86 121.57 165.28 120.43 L 165.63 119.46 C 166.04 118.32 165.45 117.07 164.31 116.65 C 163.18 116.24 161.92 116.83 161.51 117.97 Z M 161.12 118.99 L 160.81 119.94 C 160.42 121.10 161.05 122.35 162.21 122.73 C 163.36 123.11 164.61 122.49 164.99 121.33 L 165.31 120.38 C 165.69 119.22 165.07 117.97 163.91 117.59 C 162.75 117.21 161.51 117.83 161.12 118.99 Z M 160.76 120.03 L 160.50 120.95 C 160.17 122.13 160.85 123.36 162.03 123.70 C 163.21 124.03 164.44 123.35 164.78 122.16 L 165.04 121.24 C 165.37 120.06 164.69 118.83 163.51 118.50 C 162.33 118.16 161.10 118.85 160.76 120.03 Z M 160.45 121.09 L 160.25 122.03 C 160.00 123.24 160.77 124.42 161.98 124.68 C 163.19 124.94 164.37 124.16 164.63 122.95 L 164.83 122.02 C 165.08 120.81 164.31 119.63 163.10 119.37 C 161.89 119.11 160.71 119.89 160.45 121.09 Z M 160.21 122.22 L 160.09 123.18 C 159.94 124.41 160.82 125.53 162.06 125.68 C 163.29 125.83 164.41 124.95 164.56 123.72 L 164.68 122.76 C 164.83 121.53 163.95 120.40 162.71 120.26 C 161.48 120.11 160.36 120.99 160.21 122.22 Z M 160.06 123.38 L 160.03 124.34 C 160.00 125.59 160.98 126.64 162.23 126.68 C 163.48 126.71 164.52 125.73 164.56 124.48 L 164.59 123.52 C 164.63 122.27 163.64 121.22 162.39 121.18 C 161.14 121.15 160.10 122.13 160.06 123.38 Z M 160.02 124.51 L 160.07 125.53 C 160.12 126.79 161.19 127.76 162.44 127.70 C 163.70 127.65 164.67 126.58 164.62 125.33 L 164.57 124.31 C 164.52 123.05 163.45 122.08 162.19 122.14 C 160.94 122.19 159.96 123.26 160.02 124.51 Z M 160.06 125.65 L 160.16 126.66 C 160.28 127.92 161.40 128.84 162.66 128.72 C 163.92 128.60 164.84 127.48 164.72 126.22 L 164.62 125.21 C 164.50 123.95 163.38 123.03 162.12 123.15 C 160.87 123.27 159.94 124.39 160.06 125.65 Z M 160.16 126.72 L 160.28 127.67 C 160.43 128.92 161.58 129.82 162.83 129.66 C 164.09 129.51 164.99 128.37 164.83 127.11 L 164.71 126.16 C 164.56 124.90 163.42 124.01 162.16 124.17 C 160.90 124.32 160.01 125.46 160.16 126.72 Z M 160.28 127.69 L 160.41 128.68 C 160.58 129.94 161.73 130.82 162.99 130.66 C 164.25 130.49 165.13 129.34 164.96 128.08 L 164.83 127.09 C 164.66 125.83 163.51 124.95 162.25 125.11 C 161.00 125.28 160.11 126.43 160.28 127.69 Z M 160.41 128.68 L 160.54 129.70 C 160.71 130.96 161.86 131.85 163.12 131.68 C 164.38 131.52 165.26 130.36 165.10 129.11 L 164.96 128.08 C 164.80 126.83 163.65 125.94 162.39 126.11 C 161.13 126.27 160.25 127.42 160.41 128.68 Z M 160.54 129.68 L 160.66 130.70 C 160.81 131.96 161.95 132.86 163.21 132.71 C 164.47 132.56 165.37 131.42 165.22 130.16 L 165.10 129.13 C 164.95 127.87 163.81 126.97 162.55 127.12 C 161.29 127.27 160.39 128.42 160.54 129.68 Z M 160.65 130.65 L 160.75 131.69 C 160.87 132.95 162.00 133.88 163.26 133.76 C 164.52 133.64 165.45 132.52 165.33 131.25 L 165.23 130.21 C 165.11 128.95 163.99 128.02 162.73 128.14 C 161.46 128.26 160.53 129.38 160.65 130.65 Z M 160.75 131.62 L 160.82 132.69 C 160.90 133.96 161.99 134.92 163.26 134.84 C 164.52 134.76 165.49 133.67 165.40 132.40 L 165.34 131.33 C 165.26 130.06 164.16 129.10 162.90 129.18 C 161.63 129.26 160.67 130.35 160.75 131.62 Z M 160.81 132.63 L 160.85 133.66 C 160.90 134.93 161.96 135.92 163.23 135.87 C 164.50 135.82 165.49 134.76 165.44 133.49 L 165.41 132.46 C 165.36 131.19 164.29 130.20 163.03 130.25 C 161.76 130.29 160.77 131.36 160.81 132.63 Z M 160.85 133.61 L 160.87 134.59 C 160.89 135.86 161.93 136.87 163.20 136.85 C 164.47 136.83 165.48 135.79 165.46 134.52 L 165.45 133.54 C 165.42 132.27 164.38 131.26 163.11 131.28 C 161.84 131.30 160.83 132.34 160.85 133.61 Z M 160.87 134.57 L 160.87 135.49 C 160.88 136.76 161.91 137.78 163.18 137.78 C 164.45 137.77 165.47 136.74 165.47 135.47 L 165.46 134.55 C 165.46 133.28 164.42 132.25 163.16 132.26 C 161.89 132.26 160.86 133.30 160.87 134.57 Z M 160.87 135.48 L 160.87 136.49 C 160.87 137.76 161.90 138.78 163.17 138.78 C 164.44 138.78 165.46 137.76 165.46 136.49 L 165.46 135.48 C 165.46 134.21 164.44 133.19 163.17 133.19 C 161.90 133.19 160.87 134.21 160.87 135.48 Z M 160.88 136.48 L 160.88 137.50 C 160.88 138.77 161.90 139.79 163.16 139.79 C 164.42 139.80 165.45 138.78 165.45 137.51 L 165.45 136.49 C 165.46 135.23 164.44 134.21 163.17 134.20 C 161.91 134.20 160.88 135.22 160.88 136.48 Z M 160.89 137.49 L 160.88 138.46 C 160.87 139.72 161.88 140.75 163.14 140.76 C 164.40 140.77 165.43 139.76 165.44 138.50 L 165.44 137.53 C 165.45 136.27 164.44 135.24 163.18 135.23 C 161.92 135.22 160.90 136.23 160.89 137.49 Z M 160.89 138.44 L 160.87 139.40 C 160.85 140.66 161.85 141.69 163.11 141.71 C 164.36 141.73 165.39 140.73 165.41 139.48 L 165.43 138.52 C 165.45 137.26 164.45 136.23 163.20 136.21 C 161.94 136.19 160.91 137.19 160.89 138.44 Z M 160.89 139.37 L 160.86 140.34 C 160.82 141.58 161.80 142.62 163.05 142.66 C 164.29 142.70 165.33 141.72 165.37 140.47 L 165.40 139.50 C 165.43 138.26 164.45 137.22 163.21 137.18 C 161.96 137.15 160.93 138.13 160.89 139.37 Z M 160.88 140.28 L 160.83 141.27 C 160.76 142.50 161.71 143.56 162.94 143.63 C 164.17 143.69 165.23 142.75 165.29 141.51 L 165.35 140.53 C 165.42 139.29 164.47 138.24 163.24 138.17 C 162.00 138.10 160.95 139.05 160.88 140.28 Z M 160.85 141.19 L 160.76 142.19 C 160.65 143.41 161.54 144.49 162.76 144.61 C 163.98 144.72 165.06 143.83 165.17 142.61 L 165.27 141.60 C 165.38 140.38 164.49 139.30 163.27 139.18 C 162.05 139.07 160.97 139.97 160.85 141.19 Z M 160.79 142.09 L 160.65 143.08 C 160.47 144.29 161.31 145.40 162.51 145.57 C 163.71 145.75 164.82 144.92 165.00 143.71 L 165.14 142.72 C 165.32 141.52 164.48 140.40 163.28 140.23 C 162.08 140.05 160.97 140.89 160.79 142.09 Z M 160.69 142.98 L 160.51 143.89 C 160.28 145.07 161.04 146.22 162.22 146.45 C 163.40 146.68 164.54 145.92 164.77 144.74 L 164.95 143.82 C 165.19 142.64 164.42 141.50 163.25 141.27 C 162.07 141.03 160.92 141.80 160.69 142.98 Z M 160.55 143.81 L 160.32 144.76 C 160.04 145.91 160.75 147.07 161.90 147.35 C 163.06 147.63 164.22 146.92 164.50 145.77 L 164.73 144.82 C 165.01 143.67 164.30 142.51 163.15 142.23 C 162.00 141.95 160.83 142.66 160.55 143.81 Z M 160.37 144.69 L 160.09 145.68 C 159.78 146.81 160.43 147.98 161.56 148.29 C 162.69 148.61 163.86 147.95 164.18 146.82 L 164.45 145.84 C 164.77 144.71 164.11 143.54 162.98 143.22 C 161.86 142.91 160.68 143.56 160.37 144.69 Z M 160.13 145.63 L 159.81 146.67 C 159.47 147.77 160.09 148.94 161.19 149.29 C 162.30 149.63 163.47 149.01 163.81 147.91 L 164.13 146.87 C 164.48 145.77 163.86 144.59 162.75 144.25 C 161.65 143.91 160.48 144.53 160.13 145.63 Z M 159.85 146.64 L 159.53 147.59 C 159.18 148.67 159.76 149.84 160.85 150.20 C 161.93 150.56 163.10 149.97 163.46 148.89 L 163.78 147.94 C 164.13 146.85 163.55 145.68 162.46 145.32 C 161.38 144.97 160.21 145.55 159.85 146.64 Z M 159.57 147.57 L 159.23 148.54 C 158.86 149.60 159.42 150.77 160.49 151.14 C 161.55 151.51 162.71 150.95 163.09 149.88 L 163.42 148.91 C 163.80 147.85 163.23 146.68 162.17 146.31 C 161.10 145.94 159.94 146.50 159.57 147.57 Z M 159.27 148.52 L 158.91 149.48 C 158.53 150.53 159.07 151.68 160.11 152.07 C 161.16 152.45 162.32 151.91 162.70 150.87 L 163.05 149.90 C 163.43 148.86 162.90 147.70 161.85 147.32 C 160.81 146.94 159.65 147.47 159.27 148.52 Z M 158.95 149.46 L 158.59 150.39 C 158.20 151.41 158.71 152.56 159.74 152.96 C 160.76 153.35 161.91 152.84 162.30 151.82 L 162.66 150.89 C 163.06 149.86 162.54 148.71 161.52 148.32 C 160.49 147.92 159.34 148.44 158.95 149.46 Z M 158.63 150.36 L 158.27 151.26 C 157.86 152.26 158.34 153.41 159.35 153.82 C 160.35 154.22 161.49 153.74 161.90 152.74 L 162.27 151.84 C 162.67 150.84 162.19 149.69 161.19 149.29 C 160.18 148.88 159.04 149.36 158.63 150.36 Z M 158.32 151.23 L 157.88 152.22 C 157.46 153.20 157.90 154.33 158.87 154.76 C 159.85 155.19 160.98 154.74 161.41 153.77 L 161.85 152.77 C 162.27 151.80 161.83 150.66 160.86 150.24 C 159.88 149.81 158.75 150.25 158.32 151.23 Z M 157.95 152.17 L 157.52 153.07 C 157.06 154.00 157.45 155.13 158.39 155.58 C 159.32 156.04 160.45 155.65 160.90 154.71 L 161.34 153.82 C 161.79 152.88 161.40 151.76 160.47 151.30 C 159.53 150.85 158.41 151.24 157.95 152.17 Z M 157.60 153.01 L 157.15 153.84 C 156.66 154.74 156.99 155.85 157.88 156.34 C 158.78 156.82 159.89 156.49 160.38 155.60 L 160.83 154.77 C 161.31 153.88 160.98 152.76 160.09 152.28 C 159.20 151.79 158.08 152.12 157.60 153.01 Z M 157.22 153.79 L 156.73 154.60 C 156.21 155.45 156.48 156.56 157.34 157.07 C 158.19 157.59 159.29 157.32 159.81 156.47 L 160.30 155.65 C 160.82 154.80 160.55 153.70 159.70 153.18 C 158.84 152.67 157.74 152.94 157.22 153.79 Z M 156.80 154.54 L 156.24 155.37 C 155.69 156.19 155.90 157.29 156.71 157.84 C 157.53 158.39 158.63 158.17 159.18 157.36 L 159.74 156.53 C 160.29 155.72 160.07 154.61 159.26 154.06 C 158.45 153.52 157.35 153.73 156.80 154.54 Z M 156.31 155.31 L 155.70 156.11 C 155.11 156.88 155.27 157.98 156.04 158.57 C 156.81 159.15 157.92 159.00 158.50 158.23 L 159.11 157.43 C 159.69 156.65 159.54 155.55 158.77 154.96 C 157.99 154.38 156.89 154.53 156.31 155.31 Z M 155.78 156.04 L 155.13 156.79 C 154.51 157.52 154.59 158.62 155.32 159.25 C 156.05 159.87 157.15 159.79 157.78 159.06 L 158.42 158.30 C 159.05 157.57 158.96 156.47 158.23 155.84 C 157.50 155.22 156.40 155.31 155.78 156.04 Z M 155.22 156.71 L 154.50 157.44 C 153.83 158.12 153.84 159.22 154.52 159.89 C 155.20 160.56 156.29 160.55 156.97 159.87 L 157.69 159.14 C 158.36 158.46 158.35 157.36 157.67 156.69 C 156.99 156.02 155.89 156.03 155.22 156.71 Z M 154.61 157.34 L 153.84 158.00 C 153.11 158.62 153.03 159.72 153.65 160.44 C 154.27 161.17 155.36 161.25 156.09 160.63 L 156.86 159.97 C 157.59 159.35 157.67 158.26 157.05 157.53 C 156.42 156.80 155.33 156.72 154.61 157.34 Z M 153.97 157.89 L 153.17 158.45 C 152.38 159.00 152.19 160.08 152.74 160.87 C 153.28 161.65 154.36 161.85 155.15 161.30 L 155.95 160.74 C 156.74 160.19 156.93 159.11 156.39 158.32 C 155.84 157.54 154.76 157.34 153.97 157.89 Z M 153.35 158.34 L 152.48 158.80 C 151.63 159.25 151.31 160.30 151.76 161.14 C 152.20 161.99 153.25 162.31 154.10 161.87 L 154.97 161.41 C 155.82 160.96 156.14 159.91 155.69 159.06 C 155.24 158.22 154.20 157.89 153.35 158.34 Z M 152.67 158.72 L 151.74 159.08 C 150.84 159.42 150.40 160.42 150.74 161.31 C 151.08 162.20 152.08 162.65 152.97 162.31 L 153.91 161.95 C 154.80 161.60 155.25 160.61 154.90 159.71 C 154.56 158.82 153.56 158.38 152.67 158.72 Z M 151.87 159.05 L 150.91 159.33 C 150.01 159.60 149.49 160.55 149.76 161.46 C 150.03 162.37 150.98 162.89 151.89 162.62 L 152.84 162.34 C 153.75 162.07 154.27 161.11 154.00 160.20 C 153.73 159.29 152.78 158.78 151.87 159.05 Z M 150.96 159.32 L 150.41 159.47 C 149.50 159.71 148.96 160.65 149.20 161.56 C 149.44 162.47 150.38 163.02 151.29 162.78 L 151.84 162.63 C 152.76 162.39 153.30 161.45 153.06 160.54 C 152.81 159.62 151.88 159.08 150.96 159.32 Z"
      fill="black"
      fill-rule="nonzero" /><path d="M 144.95 160.01 L 143.89 160.78 C 143.03 161.40 142.83 162.61 143.45 163.47 C 144.07 164.34 145.28 164.54 146.15 163.92 L 147.21 163.15 C 148.08 162.53 148.27 161.32 147.65 160.46 C 147.03 159.59 145.82 159.39 144.95 160.01 Z M 143.72 160.71 L 142.85 161.41 C 141.95 162.12 141.80 163.44 142.51 164.34 C 143.23 165.24 144.54 165.39 145.44 164.67 L 146.32 163.98 C 147.22 163.26 147.37 161.95 146.65 161.05 C 145.94 160.15 144.62 160.00 143.72 160.71 Z M 142.48 161.55 L 141.98 162.11 C 141.15 163.03 141.23 164.44 142.15 165.27 C 143.08 166.09 144.49 166.01 145.31 165.09 L 145.81 164.53 C 146.64 163.61 146.56 162.20 145.64 161.37 C 144.72 160.55 143.30 160.63 142.48 161.55 Z M 141.39 164.29 L 141.51 164.70 C 141.90 165.95 143.22 166.65 144.47 166.27 C 145.71 165.88 146.41 164.56 146.03 163.31 L 145.90 162.90 C 145.52 161.66 144.20 160.96 142.95 161.34 C 141.70 161.73 141.00 163.05 141.39 164.29 Z M 143.40 166.43 L 144.32 166.57 C 145.66 166.78 146.91 165.86 147.11 164.52 C 147.32 163.19 146.40 161.94 145.07 161.73 L 144.14 161.59 C 142.81 161.39 141.56 162.30 141.35 163.64 C 141.15 164.97 142.06 166.22 143.40 166.43 Z M 144.82 166.66 L 146.07 166.60 C 147.46 166.53 148.52 165.35 148.46 163.97 C 148.39 162.58 147.21 161.51 145.82 161.58 L 144.57 161.64 C 143.19 161.71 142.12 162.89 142.19 164.28 C 142.25 165.66 143.43 166.73 144.82 166.66 Z M 146.24 166.62 L 147.03 166.53 C 148.43 166.37 149.43 165.10 149.27 163.70 C 149.10 162.30 147.84 161.30 146.44 161.47 L 145.65 161.56 C 144.25 161.72 143.25 162.99 143.41 164.39 C 143.58 165.79 144.84 166.79 146.24 166.62 Z M 147.14 166.52 L 147.99 166.39 C 149.39 166.17 150.34 164.86 150.12 163.46 C 149.90 162.06 148.59 161.11 147.19 161.33 L 146.33 161.47 C 144.94 161.69 143.99 163.00 144.21 164.40 C 144.43 165.79 145.74 166.75 147.14 166.52 Z M 148.07 166.39 L 149.07 166.20 C 150.46 165.93 151.38 164.59 151.11 163.20 C 150.85 161.80 149.51 160.89 148.11 161.15 L 147.11 161.34 C 145.72 161.60 144.80 162.94 145.07 164.34 C 145.33 165.73 146.67 166.65 148.07 166.39 Z M 149.11 166.20 L 150.33 165.95 C 151.72 165.66 152.62 164.30 152.33 162.90 C 152.04 161.51 150.68 160.61 149.29 160.90 L 148.07 161.15 C 146.68 161.44 145.78 162.80 146.06 164.19 C 146.35 165.59 147.72 166.49 149.11 166.20 Z M 150.35 165.95 L 151.35 165.74 C 152.74 165.44 153.63 164.07 153.34 162.67 C 153.04 161.27 151.67 160.38 150.27 160.68 L 149.27 160.89 C 147.87 161.19 146.98 162.56 147.28 163.96 C 147.58 165.36 148.95 166.25 150.35 165.95 Z M 151.35 165.74 L 152.31 165.53 C 153.71 165.23 154.60 163.85 154.30 162.46 C 153.99 161.06 152.62 160.17 151.22 160.47 L 150.26 160.68 C 148.87 160.98 147.98 162.36 148.28 163.75 C 148.58 165.15 149.96 166.04 151.35 165.74 Z M 152.31 165.53 L 153.33 165.31 C 154.73 165.01 155.61 163.63 155.31 162.24 C 155.01 160.84 153.63 159.95 152.23 160.25 L 151.22 160.47 C 149.82 160.78 148.93 162.15 149.24 163.55 C 149.54 164.95 150.92 165.83 152.31 165.53 Z M 153.33 165.31 L 154.37 165.09 C 155.77 164.78 156.65 163.41 156.35 162.01 C 156.05 160.61 154.67 159.72 153.27 160.03 L 152.23 160.25 C 150.83 160.56 149.95 161.93 150.25 163.33 C 150.55 164.73 151.93 165.62 153.33 165.31 Z M 154.37 165.09 L 155.41 164.86 C 156.81 164.56 157.69 163.18 157.39 161.78 C 157.09 160.39 155.71 159.50 154.31 159.80 L 153.27 160.03 C 151.87 160.33 150.99 161.71 151.29 163.11 C 151.59 164.50 152.97 165.39 154.37 165.09 Z M 155.41 164.87 L 156.41 164.65 C 157.81 164.35 158.70 162.97 158.40 161.57 C 158.09 160.17 156.71 159.28 155.31 159.58 L 154.31 159.80 C 152.91 160.10 152.02 161.48 152.33 162.88 C 152.63 164.28 154.01 165.17 155.41 164.87 Z M 156.41 164.65 L 157.35 164.45 C 158.75 164.15 159.64 162.77 159.34 161.37 C 159.04 159.97 157.66 159.08 156.26 159.38 L 155.32 159.58 C 153.92 159.88 153.03 161.26 153.33 162.66 C 153.63 164.06 155.01 164.95 156.41 164.65 Z M 157.34 164.45 L 158.43 164.22 C 159.83 163.92 160.73 162.54 160.43 161.14 C 160.13 159.74 158.76 158.85 157.36 159.15 L 156.27 159.38 C 154.86 159.67 153.97 161.05 154.27 162.45 C 154.56 163.85 155.94 164.75 157.34 164.45 Z M 158.42 164.21 L 159.58 163.97 C 160.97 163.68 161.87 162.31 161.58 160.92 C 161.29 159.52 159.92 158.62 158.53 158.91 L 157.37 159.15 C 155.97 159.44 155.08 160.81 155.36 162.21 C 155.65 163.60 157.02 164.50 158.42 164.21 Z M 159.56 163.97 L 160.52 163.77 C 161.91 163.49 162.81 162.13 162.53 160.74 C 162.25 159.34 160.89 158.44 159.50 158.72 L 158.54 158.92 C 157.15 159.20 156.24 160.56 156.53 161.95 C 156.81 163.35 158.17 164.25 159.56 163.97 Z M 160.51 163.76 L 161.34 163.60 C 162.73 163.32 163.63 161.97 163.35 160.58 C 163.08 159.19 161.72 158.29 160.33 158.57 L 159.50 158.73 C 158.11 159.01 157.21 160.36 157.49 161.75 C 157.77 163.14 159.12 164.04 160.51 163.76 Z M 161.35 163.59 L 162.13 163.43 C 163.52 163.15 164.41 161.80 164.13 160.41 C 163.85 159.03 162.50 158.14 161.12 158.42 L 160.33 158.58 C 158.95 158.86 158.05 160.21 158.33 161.59 C 158.61 162.97 159.96 163.87 161.35 163.59 Z M 162.14 163.41 L 162.97 163.24 C 164.35 162.96 165.24 161.61 164.95 160.24 C 164.67 158.86 163.32 157.98 161.95 158.26 L 161.11 158.43 C 159.74 158.71 158.85 160.06 159.13 161.43 C 159.42 162.81 160.76 163.70 162.14 163.41 Z M 162.96 163.23 L 163.86 163.05 C 165.23 162.77 166.12 161.44 165.85 160.07 C 165.57 158.70 164.24 157.82 162.87 158.09 L 161.97 158.27 C 160.60 158.54 159.71 159.88 159.98 161.25 C 160.26 162.62 161.59 163.50 162.96 163.23 Z M 163.83 163.04 L 164.85 162.85 C 166.21 162.59 167.11 161.28 166.86 159.92 C 166.60 158.55 165.29 157.65 163.93 157.91 L 162.91 158.10 C 161.54 158.35 160.64 159.67 160.90 161.03 C 161.15 162.39 162.46 163.29 163.83 163.04 Z M 164.80 162.84 L 165.98 162.64 C 167.34 162.41 168.26 161.12 168.03 159.76 C 167.80 158.40 166.51 157.49 165.15 157.72 L 163.97 157.92 C 162.61 158.15 161.69 159.43 161.92 160.79 C 162.15 162.15 163.44 163.07 164.80 162.84 Z M 165.94 162.63 L 166.89 162.48 C 168.24 162.28 169.17 161.01 168.96 159.66 C 168.75 158.30 167.49 157.38 166.13 157.58 L 165.19 157.73 C 163.83 157.94 162.91 159.20 163.11 160.56 C 163.32 161.91 164.59 162.84 165.94 162.63 Z M 166.86 162.47 L 167.86 162.33 C 169.21 162.13 170.14 160.89 169.95 159.54 C 169.75 158.20 168.51 157.26 167.16 157.46 L 166.16 157.60 C 164.82 157.79 163.88 159.04 164.08 160.38 C 164.27 161.73 165.52 162.66 166.86 162.47 Z M 167.84 162.31 L 168.87 162.17 C 170.21 161.99 171.15 160.76 170.97 159.43 C 170.79 158.09 169.56 157.15 168.22 157.33 L 167.19 157.47 C 165.85 157.65 164.91 158.88 165.09 160.22 C 165.27 161.55 166.50 162.49 167.84 162.31 Z M 168.85 162.15 L 169.89 162.02 C 171.21 161.85 172.15 160.64 171.99 159.32 C 171.82 157.99 170.61 157.05 169.28 157.22 L 168.24 157.35 C 166.92 157.52 165.98 158.73 166.15 160.05 C 166.31 161.38 167.52 162.32 168.85 162.15 Z M 169.86 162.01 L 170.87 161.89 C 172.18 161.73 173.13 160.54 172.97 159.22 C 172.82 157.90 171.62 156.96 170.31 157.12 L 169.30 157.23 C 167.99 157.39 167.04 158.58 167.20 159.90 C 167.35 161.22 168.55 162.16 169.86 162.01 Z M 170.84 161.87 L 171.78 161.77 C 173.09 161.63 174.04 160.46 173.90 159.15 C 173.76 157.84 172.58 156.89 171.27 157.03 L 170.33 157.13 C 169.02 157.27 168.08 158.45 168.22 159.76 C 168.36 161.06 169.53 162.01 170.84 161.87 Z M 171.74 161.71 L 172.94 161.60 C 174.21 161.49 175.15 160.36 175.03 159.08 C 174.92 157.81 173.79 156.87 172.52 156.98 L 171.32 157.09 C 170.04 157.21 169.10 158.34 169.22 159.61 C 169.33 160.89 170.46 161.83 171.74 161.71 Z M 172.88 161.50 L 173.91 161.43 C 175.13 161.35 176.05 160.29 175.97 159.07 C 175.89 157.85 174.83 156.93 173.61 157.01 L 172.58 157.08 C 171.36 157.17 170.44 158.22 170.52 159.44 C 170.60 160.66 171.66 161.58 172.88 161.50 Z M 173.85 161.33 L 174.76 161.29 C 175.93 161.24 176.83 160.26 176.78 159.10 C 176.74 157.94 175.75 157.03 174.59 157.08 L 173.67 157.12 C 172.51 157.16 171.61 158.15 171.65 159.31 C 171.70 160.47 172.68 161.38 173.85 161.33 Z M 174.71 161.19 L 175.55 161.17 C 176.66 161.16 177.54 160.25 177.53 159.14 C 177.51 158.04 176.60 157.16 175.50 157.17 L 174.65 157.18 C 173.54 157.20 172.66 158.11 172.68 159.21 C 172.69 160.32 173.60 161.20 174.71 161.19 Z M 175.51 161.09 L 176.51 161.10 C 177.57 161.11 178.44 160.26 178.45 159.21 C 178.46 158.15 177.61 157.28 176.55 157.27 L 175.55 157.25 C 174.49 157.24 173.62 158.09 173.61 159.15 C 173.60 160.21 174.45 161.08 175.51 161.09 Z M 176.47 161.04 L 177.47 161.07 C 178.50 161.10 179.35 160.30 179.39 159.27 C 179.42 158.25 178.61 157.39 177.59 157.36 L 176.59 157.33 C 175.57 157.30 174.71 158.10 174.68 159.13 C 174.64 160.15 175.45 161.01 176.47 161.04 Z M 177.45 161.01 L 178.44 161.05 C 179.43 161.10 180.27 160.33 180.31 159.34 C 180.36 158.35 179.59 157.51 178.60 157.46 L 177.61 157.42 C 176.62 157.38 175.78 158.14 175.73 159.14 C 175.69 160.13 176.46 160.97 177.45 161.01 Z M 178.43 161.01 L 178.79 161.03 C 179.76 161.08 180.58 160.33 180.63 159.36 C 180.67 158.39 179.92 157.57 178.95 157.52 L 178.60 157.50 C 177.63 157.46 176.81 158.21 176.76 159.18 C 176.72 160.14 177.47 160.97 178.43 161.01 Z"
      fill="black"
      fill-rule="nonzero" /><path d="M 156.29 162.32 L 155.49 163.02 C 154.54 163.84 154.43 165.28 155.26 166.23 C 156.08 167.18 157.52 167.28 158.47 166.46 L 159.27 165.77 C 160.22 164.94 160.32 163.51 159.50 162.56 C 158.68 161.61 157.24 161.50 156.29 162.32 Z M 155.41 163.04 L 154.65 163.74 C 153.71 164.60 153.65 166.06 154.51 167.00 C 155.38 167.94 156.84 168.01 157.78 167.14 L 158.54 166.44 C 159.48 165.58 159.54 164.12 158.68 163.18 C 157.82 162.24 156.35 162.18 155.41 163.04 Z M 154.52 163.82 L 153.84 164.53 C 152.94 165.46 152.98 166.95 153.91 167.84 C 154.85 168.74 156.33 168.71 157.23 167.77 L 157.91 167.06 C 158.80 166.13 158.77 164.64 157.84 163.75 C 156.90 162.85 155.42 162.88 154.52 163.82 Z M 153.65 164.70 L 153.09 165.43 C 152.29 166.47 152.49 167.96 153.53 168.76 C 154.57 169.56 156.07 169.37 156.87 168.32 L 157.42 167.60 C 158.22 166.56 158.03 165.06 156.98 164.26 C 155.94 163.46 154.45 163.66 153.65 164.70 Z M 152.85 165.75 L 152.41 166.58 C 151.79 167.76 152.24 169.21 153.41 169.83 C 154.59 170.46 156.04 170.01 156.66 168.83 L 157.10 168.00 C 157.73 166.83 157.28 165.37 156.10 164.75 C 154.93 164.13 153.47 164.57 152.85 165.75 Z M 152.23 166.96 L 151.94 167.86 C 151.52 169.13 152.22 170.50 153.50 170.91 C 154.77 171.33 156.14 170.63 156.55 169.36 L 156.85 168.46 C 157.26 167.18 156.56 165.81 155.29 165.40 C 154.01 164.99 152.64 165.68 152.23 166.96 Z M 151.84 168.14 L 151.65 169.15 C 151.39 170.48 152.26 171.76 153.58 172.02 C 154.91 172.27 156.19 171.41 156.45 170.08 L 156.65 169.07 C 156.90 167.75 156.04 166.46 154.71 166.21 C 153.39 165.95 152.10 166.81 151.84 168.14 Z M 151.61 169.29 L 151.47 170.32 C 151.29 171.67 152.24 172.91 153.59 173.09 C 154.93 173.27 156.17 172.32 156.35 170.97 L 156.49 169.94 C 156.67 168.59 155.72 167.36 154.37 167.18 C 153.03 167.00 151.79 167.94 151.61 169.29 Z M 151.46 170.37 L 151.35 171.33 C 151.20 172.69 152.17 173.91 153.53 174.06 C 154.88 174.21 156.11 173.24 156.26 171.88 L 156.36 170.92 C 156.52 169.57 155.54 168.35 154.19 168.20 C 152.83 168.04 151.61 169.02 151.46 170.37 Z M 151.35 171.35 L 151.24 172.36 C 151.10 173.72 152.09 174.93 153.45 175.08 C 154.80 175.22 156.02 174.23 156.16 172.87 L 156.26 171.86 C 156.40 170.51 155.42 169.29 154.06 169.15 C 152.70 169.01 151.49 170.00 151.35 171.35 Z M 151.24 172.37 L 151.14 173.40 C 151.00 174.76 151.99 175.97 153.34 176.11 C 154.70 176.25 155.92 175.26 156.05 173.90 L 156.16 172.87 C 156.30 171.51 155.31 170.30 153.95 170.16 C 152.59 170.02 151.38 171.01 151.24 172.37 Z M 151.14 173.39 L 151.03 174.41 C 150.88 175.76 151.87 176.98 153.23 177.13 C 154.59 177.27 155.80 176.28 155.95 174.93 L 156.05 173.91 C 156.20 172.55 155.21 171.33 153.85 171.19 C 152.50 171.05 151.28 172.03 151.14 173.39 Z M 151.03 174.38 L 150.92 175.33 C 150.76 176.69 151.73 177.91 153.09 178.07 C 154.45 178.23 155.68 177.26 155.83 175.90 L 155.94 174.95 C 156.10 173.60 155.13 172.37 153.77 172.21 C 152.42 172.05 151.19 173.02 151.03 174.38 Z M 150.92 175.29 L 150.81 176.20 C 150.63 177.55 151.58 178.80 152.94 178.97 C 154.29 179.15 155.53 178.20 155.71 176.84 L 155.83 175.94 C 156.01 174.58 155.05 173.34 153.70 173.16 C 152.34 172.99 151.10 173.94 150.92 175.29 Z M 150.81 176.16 L 150.68 177.09 C 150.48 178.44 151.42 179.70 152.77 179.89 C 154.12 180.09 155.37 179.15 155.57 177.80 L 155.71 176.88 C 155.90 175.53 154.97 174.27 153.61 174.07 C 152.26 173.88 151.01 174.81 150.81 176.16 Z M 150.68 177.06 L 150.52 178.04 C 150.31 179.39 151.23 180.66 152.58 180.88 C 153.93 181.09 155.20 180.17 155.41 178.82 L 155.57 177.83 C 155.78 176.48 154.86 175.22 153.51 175.00 C 152.16 174.79 150.89 175.71 150.68 177.06 Z M 150.53 178.02 L 150.34 179.12 C 150.11 180.46 151.02 181.74 152.37 181.97 C 153.72 182.20 154.99 181.29 155.22 179.94 L 155.41 178.84 C 155.63 177.50 154.73 176.22 153.38 175.99 C 152.03 175.77 150.76 176.67 150.53 178.02 Z M 150.35 179.10 L 150.16 180.13 C 149.93 181.48 150.83 182.76 152.17 183.00 C 153.52 183.23 154.80 182.33 155.04 180.99 L 155.22 179.96 C 155.45 178.61 154.55 177.33 153.21 177.09 C 151.86 176.86 150.58 177.76 150.35 179.10 Z M 150.17 180.13 L 149.99 181.11 C 149.75 182.45 150.65 183.74 151.99 183.98 C 153.34 184.22 154.62 183.32 154.86 181.98 L 155.04 180.99 C 155.28 179.65 154.38 178.37 153.04 178.13 C 151.69 177.89 150.41 178.78 150.17 180.13 Z M 149.99 181.10 L 149.81 182.13 C 149.57 183.47 150.46 184.76 151.80 185.00 C 153.15 185.24 154.43 184.35 154.67 183.00 L 154.86 181.98 C 155.10 180.64 154.21 179.35 152.86 179.11 C 151.52 178.87 150.24 179.76 149.99 181.10 Z M 149.81 182.13 L 149.62 183.17 C 149.38 184.51 150.27 185.80 151.61 186.04 C 152.96 186.28 154.24 185.39 154.49 184.05 L 154.67 183.01 C 154.92 181.66 154.02 180.38 152.68 180.13 C 151.34 179.89 150.05 180.78 149.81 182.13 Z M 149.62 183.17 L 149.44 184.20 C 149.19 185.54 150.09 186.82 151.43 187.07 C 152.77 187.31 154.06 186.42 154.30 185.07 L 154.48 184.05 C 154.73 182.70 153.83 181.42 152.49 181.18 C 151.15 180.93 149.86 181.83 149.62 183.17 Z M 149.44 184.20 L 149.26 185.19 C 149.02 186.53 149.91 187.81 151.26 188.05 C 152.60 188.29 153.88 187.40 154.12 186.06 L 154.30 185.07 C 154.54 183.73 153.65 182.45 152.30 182.20 C 150.96 181.96 149.68 182.86 149.44 184.20 Z M 149.26 185.19 L 149.10 186.11 C 148.86 187.45 149.76 188.73 151.10 188.97 C 152.44 189.20 153.72 188.31 153.96 186.96 L 154.12 186.05 C 154.36 184.71 153.46 183.43 152.12 183.19 C 150.78 182.95 149.50 183.85 149.26 185.19 Z M 149.10 186.12 L 148.90 187.31 C 148.67 188.65 149.57 189.92 150.91 190.15 C 152.25 190.38 153.53 189.48 153.75 188.14 L 153.96 186.95 C 154.19 185.61 153.29 184.34 151.95 184.11 C 150.60 183.88 149.33 184.78 149.10 186.12 Z M 148.91 187.33 L 148.73 188.41 C 148.51 189.75 149.42 191.01 150.75 191.23 C 152.09 191.45 153.35 190.54 153.57 189.21 L 153.75 188.12 C 153.96 186.79 153.06 185.53 151.72 185.31 C 150.39 185.09 149.13 185.99 148.91 187.33 Z M 148.74 188.43 L 148.60 189.33 C 148.38 190.66 149.29 191.91 150.62 192.13 C 151.95 192.34 153.20 191.43 153.41 190.10 L 153.56 189.20 C 153.77 187.87 152.86 186.62 151.53 186.40 C 150.20 186.19 148.95 187.10 148.74 188.43 Z M 148.61 189.33 L 148.48 190.14 C 148.27 191.46 149.16 192.70 150.48 192.92 C 151.81 193.13 153.05 192.23 153.27 190.91 L 153.40 190.11 C 153.61 188.79 152.71 187.54 151.39 187.33 C 150.07 187.11 148.83 188.01 148.61 189.33 Z M 148.50 190.11 L 148.34 191.03 C 148.11 192.34 148.99 193.59 150.30 193.82 C 151.61 194.04 152.86 193.17 153.09 191.85 L 153.25 190.94 C 153.48 189.63 152.60 188.38 151.29 188.15 C 149.97 187.92 148.73 188.80 148.50 190.11 Z M 148.36 191.01 L 148.17 191.99 C 147.93 193.29 148.80 194.54 150.10 194.78 C 151.40 195.02 152.65 194.16 152.89 192.86 L 153.07 191.88 C 153.31 190.57 152.45 189.32 151.15 189.08 C 149.85 188.84 148.60 189.71 148.36 191.01 Z M 148.19 191.99 L 148.01 192.97 C 147.77 194.27 148.62 195.51 149.92 195.75 C 151.21 195.99 152.45 195.13 152.69 193.84 L 152.87 192.86 C 153.11 191.57 152.26 190.32 150.97 190.08 C 149.67 189.84 148.43 190.70 148.19 191.99 Z M 148.02 193.00 L 147.86 193.89 C 147.64 195.17 148.50 196.40 149.78 196.63 C 151.07 196.85 152.30 195.99 152.53 194.71 L 152.68 193.82 C 152.91 192.53 152.05 191.30 150.76 191.07 C 149.47 190.85 148.24 191.71 148.02 193.00 Z M 147.87 193.91 L 147.73 194.75 C 147.52 196.04 148.39 197.25 149.67 197.46 C 150.96 197.67 152.17 196.80 152.38 195.52 L 152.52 194.68 C 152.73 193.39 151.86 192.18 150.58 191.97 C 149.29 191.76 148.08 192.63 147.87 193.91 Z M 147.75 194.77 L 147.59 195.72 C 147.39 197.00 148.26 198.20 149.53 198.40 C 150.81 198.60 152.01 197.74 152.21 196.46 L 152.37 195.51 C 152.57 194.23 151.70 193.03 150.42 192.83 C 149.15 192.62 147.95 193.49 147.75 194.77 Z M 147.61 195.73 L 147.43 196.87 C 147.22 198.14 148.09 199.33 149.35 199.53 C 150.62 199.73 151.81 198.87 152.02 197.60 L 152.20 196.46 C 152.40 195.19 151.54 194.00 150.27 193.80 C 149.00 193.59 147.81 194.46 147.61 195.73 Z M 147.44 196.87 L 147.27 197.90 C 147.07 199.16 147.93 200.34 149.18 200.55 C 150.44 200.75 151.63 199.90 151.83 198.64 L 152.00 197.60 C 152.20 196.35 151.35 195.16 150.09 194.96 C 148.83 194.75 147.64 195.61 147.44 196.87 Z M 147.29 197.90 L 147.13 198.86 C 146.92 200.11 147.77 201.29 149.03 201.49 C 150.28 201.70 151.46 200.85 151.66 199.60 L 151.82 198.64 C 152.03 197.39 151.18 196.20 149.92 196.00 C 148.67 195.80 147.49 196.65 147.29 197.90 Z M 147.14 198.86 L 146.97 199.87 C 146.77 201.12 147.62 202.29 148.86 202.50 C 150.11 202.70 151.28 201.86 151.49 200.61 L 151.65 199.59 C 151.86 198.35 151.01 197.17 149.77 196.97 C 148.52 196.77 147.34 197.61 147.14 198.86 Z M 146.99 199.88 L 146.82 200.92 C 146.62 202.16 147.46 203.33 148.70 203.53 C 149.94 203.73 151.11 202.88 151.31 201.64 L 151.48 200.60 C 151.68 199.36 150.84 198.20 149.60 197.99 C 148.36 197.79 147.19 198.64 146.99 199.88 Z M 146.83 200.92 L 146.66 201.95 C 146.47 203.19 147.31 204.35 148.54 204.55 C 149.78 204.74 150.94 203.90 151.13 202.67 L 151.30 201.64 C 151.50 200.40 150.66 199.24 149.42 199.04 C 148.19 198.85 147.02 199.69 146.83 200.92 Z M 146.67 201.96 L 146.52 202.95 C 146.33 204.18 147.17 205.33 148.40 205.52 C 149.63 205.72 150.78 204.88 150.97 203.65 L 151.12 202.66 C 151.32 201.43 150.48 200.28 149.25 200.09 C 148.02 199.89 146.86 200.73 146.67 201.96 Z M 146.54 202.97 L 146.36 204.23 C 146.18 205.44 147.02 206.57 148.23 206.75 C 149.45 206.93 150.58 206.09 150.76 204.88 L 150.94 203.63 C 151.12 202.41 150.29 201.28 149.07 201.10 C 147.86 200.92 146.72 201.76 146.54 202.97 Z M 146.41 204.32 L 146.27 205.61 C 146.14 206.79 146.99 207.86 148.18 207.99 C 149.36 208.12 150.43 207.27 150.56 206.08 L 150.71 204.79 C 150.84 203.60 149.98 202.53 148.80 202.40 C 147.61 202.27 146.54 203.13 146.41 204.32 Z M 146.34 205.94 L 146.37 206.75 C 146.43 207.90 147.40 208.79 148.55 208.74 C 149.70 208.69 150.59 207.71 150.53 206.56 L 150.50 205.75 C 150.44 204.60 149.47 203.71 148.32 203.76 C 147.17 203.82 146.28 204.79 146.34 205.94 Z M 147.19 208.22 L 147.48 208.45 C 148.34 209.14 149.60 209.01 150.30 208.15 C 150.99 207.29 150.86 206.03 150.00 205.33 L 149.71 205.10 C 148.85 204.41 147.59 204.54 146.90 205.40 C 146.20 206.26 146.33 207.52 147.19 208.22 Z M 149.77 208.52 L 150.27 208.21 C 151.17 207.64 151.44 206.45 150.87 205.55 C 150.31 204.65 149.12 204.37 148.21 204.94 L 147.71 205.26 C 146.81 205.83 146.54 207.02 147.11 207.92 C 147.67 208.82 148.87 209.09 149.77 208.52 Z M 150.57 207.88 L 151.25 207.18 C 151.97 206.44 151.96 205.27 151.22 204.55 C 150.49 203.83 149.31 203.84 148.59 204.58 L 147.91 205.27 C 147.19 206.01 147.20 207.19 147.94 207.91 C 148.67 208.63 149.85 208.61 150.57 207.88 Z M 151.29 207.04 L 152.09 206.10 C 152.73 205.35 152.63 204.21 151.88 203.57 C 151.12 202.93 149.99 203.03 149.35 203.78 L 148.55 204.72 C 147.91 205.47 148.01 206.61 148.76 207.25 C 149.52 207.89 150.65 207.79 151.29 207.04 Z M 152.06 206.04 L 152.66 205.30 C 153.27 204.55 153.15 203.46 152.41 202.86 C 151.67 202.25 150.57 202.36 149.97 203.11 L 149.37 203.85 C 148.76 204.59 148.88 205.68 149.62 206.29 C 150.37 206.89 151.46 206.78 152.06 206.04 Z"
      fill="black"
      fill-rule="nonzero" /><path d="M 159.26 168.52 L 159.68 169.39 C 160.28 170.61 161.76 171.12 162.99 170.51 C 164.22 169.91 164.72 168.43 164.12 167.20 L 163.69 166.34 C 163.09 165.11 161.61 164.61 160.38 165.21 C 159.16 165.81 158.65 167.29 159.26 168.52 Z M 159.63 169.30 L 160.03 170.20 C 160.58 171.45 162.04 172.02 163.30 171.47 C 164.55 170.91 165.12 169.45 164.57 168.19 L 164.17 167.29 C 163.62 166.04 162.15 165.47 160.90 166.02 C 159.64 166.58 159.07 168.04 159.63 169.30 Z M 159.95 170.02 L 160.29 171.00 C 160.74 172.30 162.17 172.98 163.47 172.52 C 164.76 172.07 165.45 170.64 164.99 169.34 L 164.65 168.37 C 164.19 167.07 162.77 166.39 161.47 166.84 C 160.17 167.30 159.49 168.72 159.95 170.02 Z M 160.22 170.78 L 160.46 171.74 C 160.79 173.08 162.15 173.89 163.49 173.56 C 164.82 173.22 165.64 171.87 165.30 170.53 L 165.06 169.56 C 164.73 168.23 163.37 167.41 162.03 167.75 C 160.69 168.08 159.88 169.44 160.22 170.78 Z M 160.42 171.57 L 160.59 172.56 C 160.84 173.92 162.13 174.83 163.49 174.58 C 164.85 174.34 165.76 173.04 165.52 171.68 L 165.34 170.69 C 165.10 169.34 163.80 168.43 162.44 168.67 C 161.08 168.91 160.18 170.21 160.42 171.57 Z M 160.58 172.46 L 160.71 173.47 C 160.90 174.83 162.16 175.79 163.52 175.61 C 164.89 175.43 165.85 174.17 165.67 172.80 L 165.53 171.79 C 165.35 170.42 164.09 169.46 162.72 169.64 C 161.35 169.83 160.39 171.09 160.58 172.46 Z M 160.71 173.41 L 160.82 174.41 C 160.97 175.78 162.21 176.77 163.58 176.61 C 164.95 176.46 165.94 175.22 165.79 173.85 L 165.68 172.86 C 165.52 171.48 164.29 170.50 162.91 170.65 C 161.54 170.80 160.55 172.04 160.71 173.41 Z M 160.82 174.38 L 160.92 175.41 C 161.06 176.78 162.29 177.78 163.66 177.64 C 165.03 177.50 166.03 176.27 165.89 174.90 L 165.79 173.88 C 165.65 172.50 164.42 171.50 163.05 171.64 C 161.68 171.78 160.68 173.01 160.82 174.38 Z M 160.92 175.37 L 161.01 176.36 C 161.13 177.73 162.34 178.75 163.71 178.63 C 165.09 178.51 166.10 177.30 165.98 175.92 L 165.89 174.93 C 165.77 173.56 164.56 172.55 163.19 172.67 C 161.82 172.79 160.80 174.00 160.92 175.37 Z M 161.01 176.31 L 161.07 177.29 C 161.17 178.66 162.36 179.70 163.73 179.61 C 165.10 179.51 166.14 178.32 166.05 176.95 L 165.98 175.97 C 165.89 174.60 164.70 173.56 163.33 173.66 C 161.95 173.75 160.92 174.94 161.01 176.31 Z M 161.07 177.23 L 161.12 178.20 C 161.17 179.57 162.33 180.64 163.71 180.58 C 165.08 180.52 166.15 179.36 166.09 177.99 L 166.05 177.01 C 165.99 175.64 164.83 174.57 163.45 174.63 C 162.08 174.69 161.02 175.85 161.07 177.23 Z M 161.12 178.15 L 161.14 179.13 C 161.17 180.51 162.31 181.59 163.68 181.56 C 165.06 181.53 166.14 180.39 166.11 179.02 L 166.09 178.03 C 166.06 176.66 164.92 175.57 163.54 175.61 C 162.17 175.64 161.08 176.78 161.12 178.15 Z M 161.14 179.11 L 161.16 180.12 C 161.18 181.49 162.31 182.59 163.68 182.57 C 165.05 182.55 166.14 181.42 166.12 180.05 L 166.11 179.04 C 166.09 177.67 164.96 176.57 163.59 176.59 C 162.22 176.61 161.12 177.74 161.14 179.11 Z M 161.16 180.13 L 161.18 181.15 C 161.20 182.52 162.33 183.61 163.70 183.59 C 165.07 183.57 166.16 182.44 166.14 181.07 L 166.12 180.04 C 166.10 178.67 164.97 177.58 163.60 177.60 C 162.23 177.63 161.13 178.76 161.16 180.13 Z M 161.18 181.17 L 161.20 182.14 C 161.24 183.51 162.38 184.59 163.75 184.56 C 165.12 184.52 166.20 183.39 166.16 182.02 L 166.14 181.05 C 166.10 179.68 164.96 178.60 163.59 178.63 C 162.23 178.67 161.14 179.80 161.18 181.17 Z M 161.21 182.15 L 161.24 183.15 C 161.28 184.51 162.42 185.59 163.79 185.55 C 165.15 185.51 166.23 184.37 166.19 183.00 L 166.16 182.01 C 166.12 180.64 164.98 179.57 163.61 179.61 C 162.24 179.65 161.17 180.79 161.21 182.15 Z M 161.24 183.14 L 161.27 184.16 C 161.31 185.52 162.45 186.60 163.81 186.56 C 165.18 186.52 166.25 185.38 166.21 184.02 L 166.18 183.00 C 166.15 181.64 165.01 180.56 163.64 180.60 C 162.28 180.64 161.20 181.78 161.24 183.14 Z M 161.27 184.14 L 161.29 185.17 C 161.32 186.53 162.45 187.61 163.82 187.58 C 165.18 187.55 166.26 186.42 166.23 185.06 L 166.21 184.03 C 166.18 182.67 165.05 181.59 163.69 181.62 C 162.32 181.65 161.24 182.78 161.27 184.14 Z M 161.29 185.15 L 161.31 186.16 C 161.33 187.53 162.45 188.62 163.81 188.60 C 165.18 188.58 166.27 187.46 166.25 186.09 L 166.23 185.08 C 166.21 183.71 165.09 182.62 163.73 182.64 C 162.36 182.66 161.27 183.78 161.29 185.15 Z M 161.31 186.16 L 161.32 187.18 C 161.34 188.54 162.46 189.63 163.83 189.61 C 165.19 189.59 166.28 188.47 166.26 187.11 L 166.25 186.09 C 166.23 184.73 165.11 183.64 163.74 183.66 C 162.38 183.68 161.29 184.80 161.31 186.16 Z M 161.32 187.19 L 161.35 188.19 C 161.37 189.55 162.50 190.63 163.86 190.60 C 165.23 190.57 166.31 189.45 166.28 188.09 L 166.26 187.09 C 166.23 185.73 165.10 184.65 163.74 184.68 C 162.38 184.70 161.30 185.83 161.32 187.19 Z M 161.35 188.23 L 161.38 189.21 C 161.43 190.57 162.58 191.63 163.94 191.58 C 165.30 191.53 166.36 190.39 166.31 189.03 L 166.28 188.05 C 166.23 186.69 165.08 185.62 163.72 185.67 C 162.36 185.72 161.30 186.87 161.35 188.23 Z M 161.39 189.26 L 161.45 190.26 C 161.53 191.62 162.69 192.65 164.05 192.57 C 165.41 192.49 166.45 191.33 166.37 189.97 L 166.31 188.97 C 166.23 187.61 165.06 186.58 163.70 186.66 C 162.34 186.74 161.31 187.90 161.39 189.26 Z M 161.45 190.31 L 161.53 191.29 C 161.64 192.64 162.82 193.66 164.18 193.55 C 165.53 193.44 166.54 192.26 166.44 190.90 L 166.36 189.92 C 166.25 188.57 165.07 187.56 163.71 187.66 C 162.36 187.77 161.35 188.96 161.45 190.31 Z M 161.54 191.33 L 161.63 192.32 C 161.76 193.67 162.96 194.66 164.31 194.54 C 165.66 194.41 166.65 193.21 166.52 191.86 L 166.43 190.87 C 166.30 189.51 165.10 188.52 163.75 188.65 C 162.40 188.78 161.41 189.98 161.54 191.33 Z M 161.64 192.34 L 161.74 193.34 C 161.88 194.69 163.08 195.67 164.43 195.53 C 165.78 195.39 166.76 194.18 166.62 192.84 L 166.52 191.84 C 166.38 190.49 165.17 189.51 163.83 189.65 C 162.48 189.79 161.50 190.99 161.64 192.34 Z M 161.75 193.37 L 161.86 194.38 C 162.02 195.72 163.24 196.68 164.58 196.53 C 165.93 196.37 166.89 195.15 166.73 193.81 L 166.61 192.80 C 166.46 191.46 165.24 190.50 163.90 190.65 C 162.55 190.81 161.59 192.03 161.75 193.37 Z M 161.88 194.44 L 162.02 195.44 C 162.21 196.78 163.45 197.71 164.79 197.52 C 166.13 197.33 167.06 196.09 166.86 194.75 L 166.72 193.74 C 166.53 192.41 165.29 191.48 163.95 191.67 C 162.61 191.86 161.68 193.10 161.88 194.44 Z M 162.04 195.55 L 162.22 196.52 C 162.47 197.85 163.75 198.72 165.07 198.47 C 166.40 198.23 167.27 196.95 167.03 195.62 L 166.84 194.65 C 166.60 193.32 165.32 192.45 163.99 192.70 C 162.67 192.94 161.79 194.22 162.04 195.55 Z M 162.26 196.68 L 162.51 197.66 C 162.85 198.97 164.18 199.76 165.48 199.42 C 166.79 199.09 167.57 197.76 167.24 196.46 L 166.99 195.47 C 166.65 194.16 165.32 193.37 164.02 193.71 C 162.71 194.04 161.93 195.37 162.26 196.68 Z M 162.59 197.90 L 162.94 198.84 C 163.40 200.10 164.80 200.75 166.06 200.28 C 167.32 199.82 167.97 198.42 167.51 197.16 L 167.16 196.22 C 166.70 194.96 165.30 194.31 164.04 194.78 C 162.77 195.24 162.13 196.64 162.59 197.90 Z M 163.08 199.14 L 163.54 200.00 C 164.17 201.19 165.64 201.63 166.82 201.00 C 168.01 200.37 168.46 198.90 167.83 197.71 L 167.37 196.85 C 166.73 195.67 165.26 195.22 164.08 195.85 C 162.89 196.48 162.45 197.96 163.08 199.14 Z M 163.75 200.33 L 164.34 201.11 C 165.15 202.17 166.67 202.38 167.74 201.57 C 168.81 200.76 169.02 199.24 168.21 198.17 L 167.61 197.39 C 166.80 196.32 165.28 196.12 164.21 196.93 C 163.15 197.74 162.94 199.26 163.75 200.33 Z M 164.59 201.38 L 165.29 202.06 C 166.25 202.99 167.79 202.97 168.72 202.01 C 169.65 201.04 169.62 199.51 168.66 198.58 L 167.96 197.90 C 167.00 196.97 165.46 196.99 164.53 197.95 C 163.60 198.91 163.63 200.45 164.59 201.38 Z M 165.53 202.26 L 166.34 202.86 C 167.42 203.66 168.93 203.44 169.73 202.37 C 170.53 201.30 170.30 199.78 169.23 198.98 L 168.42 198.38 C 167.35 197.58 165.83 197.80 165.04 198.88 C 164.24 199.95 164.46 201.46 165.53 202.26 Z M 166.59 203.02 L 167.47 203.53 C 168.63 204.19 170.10 203.79 170.77 202.63 C 171.43 201.47 171.03 199.99 169.87 199.33 L 168.99 198.83 C 167.83 198.16 166.35 198.56 165.69 199.72 C 165.03 200.88 165.43 202.36 166.59 203.02 Z M 167.73 203.65 L 168.63 204.04 C 169.86 204.56 171.28 203.98 171.80 202.76 C 172.32 201.53 171.75 200.11 170.52 199.59 L 169.61 199.20 C 168.38 198.68 166.97 199.26 166.45 200.49 C 165.92 201.71 166.50 203.13 167.73 203.65 Z M 168.90 204.13 L 169.83 204.40 C 171.10 204.78 172.45 204.05 172.82 202.77 C 173.20 201.49 172.47 200.15 171.19 199.77 L 170.26 199.50 C 168.98 199.12 167.64 199.85 167.26 201.13 C 166.88 202.41 167.62 203.75 168.90 204.13 Z M 170.05 204.46 L 171.03 204.64 C 172.34 204.89 173.60 204.03 173.85 202.72 C 174.10 201.42 173.24 200.15 171.93 199.90 L 170.96 199.72 C 169.65 199.47 168.39 200.32 168.14 201.63 C 167.89 202.94 168.74 204.21 170.05 204.46 Z M 171.20 204.67 L 172.24 204.79 C 173.56 204.94 174.76 203.99 174.91 202.67 C 175.06 201.34 174.11 200.14 172.79 199.99 L 171.75 199.87 C 170.43 199.72 169.23 200.67 169.08 202.00 C 168.93 203.32 169.88 204.52 171.20 204.67 Z M 172.35 204.80 L 173.37 204.87 C 174.70 204.95 175.85 203.94 175.93 202.61 C 176.02 201.28 175.01 200.13 173.68 200.05 L 172.67 199.98 C 171.34 199.89 170.19 200.90 170.10 202.23 C 170.02 203.56 171.02 204.71 172.35 204.80 Z M 173.44 204.87 L 174.46 204.90 C 175.80 204.95 176.91 203.91 176.96 202.58 C 177.01 201.24 175.96 200.13 174.63 200.08 L 173.61 200.04 C 172.27 200.00 171.16 201.04 171.11 202.37 C 171.06 203.71 172.11 204.82 173.44 204.87 Z M 174.51 204.91 L 175.53 204.92 C 176.86 204.94 177.96 203.88 177.98 202.54 C 178.00 201.21 176.94 200.11 175.60 200.09 L 174.58 200.08 C 173.25 200.06 172.15 201.12 172.13 202.46 C 172.11 203.79 173.18 204.89 174.51 204.91 Z M 175.56 204.92 L 176.54 204.93 C 177.87 204.93 178.96 203.85 178.96 202.52 C 178.97 201.19 177.89 200.10 176.56 200.10 L 175.58 200.09 C 174.24 200.09 173.16 201.16 173.15 202.50 C 173.15 203.83 174.22 204.92 175.56 204.92 Z M 176.55 204.93 L 177.59 204.93 C 178.92 204.93 180.01 203.85 180.01 202.51 C 180.01 201.18 178.92 200.09 177.59 200.09 L 176.55 200.09 C 175.22 200.09 174.13 201.18 174.13 202.51 C 174.13 203.85 175.21 204.93 176.55 204.93 Z M 177.59 204.93 L 178.61 204.93 C 179.95 204.93 181.03 203.85 181.03 202.51 C 181.03 201.18 179.95 200.09 178.61 200.09 L 177.59 200.09 C 176.25 200.09 175.17 201.18 175.17 202.51 C 175.17 203.85 176.25 204.93 177.59 204.93 Z M 178.61 204.93 L 179.57 204.93 C 180.91 204.93 181.99 203.85 181.99 202.51 C 181.99 201.17 180.91 200.09 179.57 200.09 L 178.61 200.09 C 177.27 200.09 176.19 201.17 176.19 202.51 C 176.19 203.85 177.27 204.93 178.61 204.93 Z M 179.57 204.94 L 180.52 204.94 C 181.86 204.94 182.94 203.85 182.94 202.51 C 182.94 201.17 181.86 200.08 180.52 200.08 L 179.57 200.08 C 178.23 200.08 177.14 201.17 177.14 202.51 C 177.14 203.85 178.23 204.94 179.57 204.94 Z M 180.53 204.94 L 181.51 204.94 C 182.85 204.93 183.94 203.84 183.93 202.50 C 183.92 201.15 182.83 200.07 181.49 200.07 L 180.51 200.08 C 179.16 200.08 178.08 201.18 178.08 202.52 C 178.09 203.86 179.18 204.95 180.53 204.94 Z M 181.55 204.95 L 182.55 204.92 C 183.89 204.90 184.96 203.78 184.94 202.44 C 184.91 201.09 183.79 200.02 182.45 200.05 L 181.45 200.07 C 180.10 200.10 179.03 201.21 179.06 202.56 C 179.09 203.90 180.20 204.97 181.55 204.95 Z M 182.62 204.93 L 183.64 204.88 C 184.99 204.81 186.03 203.66 185.96 202.31 C 185.90 200.97 184.75 199.93 183.40 199.99 L 182.38 200.04 C 181.03 200.11 179.99 201.26 180.05 202.61 C 180.12 203.96 181.27 205.00 182.62 204.93 Z M 183.73 204.88 L 184.68 204.80 C 186.03 204.69 187.04 203.50 186.92 202.15 C 186.81 200.80 185.62 199.79 184.26 199.91 L 183.31 199.99 C 181.96 200.10 180.96 201.29 181.07 202.64 C 181.19 204.00 182.38 205.00 183.73 204.88 Z M 184.75 204.81 L 185.73 204.70 C 187.09 204.55 188.07 203.32 187.91 201.96 C 187.75 200.60 186.53 199.63 185.17 199.78 L 184.19 199.90 C 182.83 200.05 181.86 201.28 182.01 202.64 C 182.17 204.00 183.40 204.97 184.75 204.81 Z M 185.79 204.71 L 186.81 204.57 C 188.17 204.38 189.12 203.12 188.93 201.76 C 188.74 200.39 187.48 199.44 186.12 199.63 L 185.11 199.77 C 183.74 199.96 182.79 201.22 182.98 202.59 C 183.17 203.95 184.43 204.90 185.79 204.71 Z M 186.85 204.58 L 187.87 204.42 C 189.24 204.21 190.18 202.92 189.96 201.55 C 189.74 200.18 188.46 199.25 187.09 199.46 L 186.07 199.62 C 184.70 199.84 183.77 201.12 183.98 202.49 C 184.20 203.86 185.48 204.80 186.85 204.58 Z M 187.90 204.43 L 188.88 204.27 C 190.26 204.03 191.18 202.73 190.95 201.35 C 190.72 199.98 189.41 199.05 188.04 199.28 L 187.06 199.45 C 185.68 199.68 184.76 200.99 184.99 202.36 C 185.22 203.74 186.53 204.67 187.90 204.43 Z M 188.90 204.28 L 189.90 204.11 C 191.28 203.86 192.20 202.54 191.96 201.16 C 191.72 199.78 190.40 198.85 189.01 199.10 L 188.02 199.27 C 186.64 199.51 185.71 200.83 185.96 202.22 C 186.20 203.60 187.52 204.52 188.90 204.28 Z M 189.90 204.12 L 190.90 203.94 C 192.29 203.69 193.22 202.36 192.97 200.97 C 192.72 199.58 191.39 198.66 190.00 198.90 L 189.00 199.08 C 187.61 199.33 186.69 200.66 186.93 202.05 C 187.18 203.44 188.51 204.37 189.90 204.12 Z M 190.90 203.96 L 191.88 203.79 C 193.28 203.54 194.21 202.20 193.96 200.80 C 193.72 199.40 192.38 198.47 190.98 198.71 L 190.00 198.89 C 188.60 199.13 187.66 200.47 187.91 201.87 C 188.16 203.27 189.50 204.21 190.90 203.96 Z M 191.88 203.80 L 192.84 203.63 C 194.26 203.38 195.20 202.04 194.95 200.63 C 194.70 199.22 193.35 198.28 191.94 198.52 L 190.98 198.70 C 189.57 198.94 188.62 200.29 188.87 201.70 C 189.12 203.11 190.47 204.05 191.88 203.80 Z M 192.87 203.65 L 193.84 203.47 C 195.26 203.20 196.19 201.84 195.93 200.42 C 195.66 199.00 194.30 198.07 192.88 198.33 L 191.91 198.51 C 190.50 198.78 189.56 200.14 189.82 201.56 C 190.09 202.98 191.45 203.91 192.87 203.65 Z M 193.89 203.48 L 194.88 203.27 C 196.30 202.98 197.22 201.59 196.92 200.16 C 196.63 198.74 195.24 197.82 193.81 198.12 L 192.83 198.32 C 191.40 198.62 190.49 200.01 190.78 201.43 C 191.08 202.86 192.47 203.77 193.89 203.48 Z M 194.95 203.27 L 195.96 203.04 C 197.39 202.70 198.27 201.28 197.94 199.85 C 197.60 198.43 196.17 197.54 194.75 197.88 L 193.74 198.12 C 192.31 198.45 191.43 199.88 191.77 201.30 C 192.10 202.73 193.53 203.61 194.95 203.27 Z M 196.06 203.03 L 197.06 202.75 C 198.48 202.36 199.32 200.90 198.93 199.48 C 198.54 198.06 197.07 197.22 195.65 197.61 L 194.65 197.89 C 193.23 198.28 192.40 199.74 192.79 201.16 C 193.18 202.58 194.64 203.42 196.06 203.03 Z M 197.22 202.72 L 198.20 202.39 C 199.60 201.91 200.35 200.39 199.88 198.99 C 199.40 197.59 197.88 196.84 196.48 197.31 L 195.50 197.65 C 194.10 198.12 193.35 199.64 193.82 201.04 C 194.30 202.44 195.81 203.19 197.22 202.72 Z M 198.42 202.31 L 199.33 201.91 C 200.69 201.32 201.31 199.73 200.71 198.37 C 200.11 197.01 198.52 196.39 197.17 196.99 L 196.26 197.39 C 194.90 197.99 194.28 199.57 194.88 200.93 C 195.48 202.29 197.06 202.91 198.42 202.31 Z M 199.66 201.75 L 200.45 201.27 C 201.72 200.48 202.12 198.82 201.34 197.55 C 200.56 196.28 198.90 195.88 197.62 196.66 L 196.83 197.15 C 195.56 197.93 195.17 199.60 195.95 200.87 C 196.73 202.14 198.39 202.53 199.66 201.75 Z M 200.93 200.91 L 201.67 200.19 C 202.74 199.14 202.76 197.43 201.72 196.36 C 200.67 195.28 198.95 195.26 197.88 196.31 L 197.15 197.02 C 196.07 198.07 196.05 199.79 197.10 200.86 C 198.14 201.93 199.86 201.95 200.93 200.91 Z M 202.09 199.66 L 202.60 198.83 C 203.38 197.55 202.98 195.88 201.70 195.10 C 200.42 194.32 198.74 194.72 197.96 196.00 L 197.45 196.83 C 196.67 198.11 197.08 199.79 198.36 200.57 C 199.64 201.35 201.31 200.95 202.09 199.66 Z M 202.85 198.34 L 203.18 197.41 C 203.69 195.99 202.95 194.43 201.53 193.93 C 200.11 193.42 198.55 194.16 198.05 195.57 L 197.71 196.50 C 197.21 197.92 197.94 199.48 199.36 199.98 C 200.78 200.49 202.34 199.75 202.85 198.34 Z M 203.28 197.05 L 203.48 196.12 C 203.79 194.64 202.84 193.20 201.37 192.89 C 199.89 192.58 198.44 193.52 198.14 195.00 L 197.94 195.93 C 197.63 197.41 198.58 198.86 200.05 199.17 C 201.53 199.47 202.97 198.53 203.28 197.05 Z M 203.52 195.88 L 203.63 194.91 C 203.80 193.42 202.73 192.06 201.24 191.89 C 199.74 191.71 198.38 192.78 198.21 194.28 L 198.10 195.25 C 197.92 196.74 199.00 198.10 200.49 198.27 C 201.99 198.44 203.34 197.37 203.52 195.88 Z M 203.64 194.74 L 203.69 193.72 C 203.77 192.22 202.62 190.94 201.12 190.86 C 199.61 190.78 198.33 191.94 198.25 193.44 L 198.20 194.45 C 198.12 195.96 199.27 197.24 200.78 197.32 C 202.28 197.40 203.56 196.24 203.64 194.74 Z M 203.69 193.62 L 203.71 192.56 C 203.73 191.05 202.52 189.82 201.02 189.80 C 199.52 189.78 198.28 190.99 198.26 192.49 L 198.25 193.55 C 198.23 195.05 199.44 196.28 200.94 196.30 C 202.44 196.32 203.68 195.12 203.69 193.62 Z M 203.69 192.49 L 203.68 191.53 C 203.66 190.03 202.44 188.84 200.94 188.85 C 199.45 188.87 198.25 190.10 198.27 191.59 L 198.28 192.56 C 198.30 194.05 199.52 195.25 201.02 195.23 C 202.51 195.21 203.71 193.99 203.69 192.49 Z M 203.65 191.45 L 203.61 190.46 C 203.55 188.98 202.30 187.83 200.82 187.89 C 199.34 187.96 198.20 189.20 198.26 190.68 L 198.30 191.67 C 198.36 193.15 199.61 194.30 201.09 194.23 C 202.56 194.17 203.71 192.92 203.65 191.45 Z M 203.57 190.35 L 203.49 189.34 C 203.37 187.88 202.09 186.80 200.63 186.92 C 199.17 187.04 198.09 188.32 198.21 189.78 L 198.29 190.79 C 198.42 192.25 199.70 193.33 201.15 193.21 C 202.61 193.09 203.69 191.81 203.57 190.35 Z M 203.44 189.21 L 203.31 188.19 C 203.11 186.76 201.79 185.75 200.36 185.95 C 198.92 186.14 197.92 187.46 198.11 188.90 L 198.25 189.91 C 198.45 191.35 199.77 192.35 201.20 192.16 C 202.64 191.96 203.64 190.64 203.44 189.21 Z M 203.24 188.05 L 203.05 187.10 C 202.78 185.70 201.42 184.80 200.03 185.07 C 198.63 185.34 197.72 186.70 198.00 188.10 L 198.18 189.04 C 198.46 190.44 199.81 191.35 201.21 191.07 C 202.60 190.80 203.51 189.44 203.24 188.05 Z M 202.96 186.98 L 202.73 186.05 C 202.39 184.70 201.02 183.88 199.68 184.22 C 198.33 184.56 197.51 185.93 197.85 187.28 L 198.09 188.21 C 198.42 189.56 199.79 190.38 201.14 190.04 C 202.49 189.70 203.30 188.33 202.96 186.98 Z M 202.64 185.97 L 202.36 185.02 C 201.98 183.72 200.61 182.98 199.31 183.36 C 198.02 183.74 197.27 185.11 197.66 186.41 L 197.94 187.36 C 198.32 188.66 199.69 189.40 200.98 189.01 C 202.28 188.63 203.02 187.27 202.64 185.97 Z M 202.28 184.97 L 201.96 183.99 C 201.55 182.74 200.20 182.05 198.94 182.47 C 197.69 182.88 197.01 184.22 197.42 185.48 L 197.74 186.45 C 198.15 187.71 199.50 188.39 200.75 187.98 C 202.01 187.57 202.69 186.22 202.28 184.97 Z M 201.88 183.97 L 201.53 182.97 C 201.11 181.76 199.78 181.12 198.57 181.54 C 197.36 181.96 196.72 183.29 197.15 184.50 L 197.50 185.50 C 197.92 186.71 199.24 187.35 200.45 186.93 C 201.67 186.50 202.30 185.18 201.88 183.97 Z M 201.46 182.96 L 201.11 181.99 C 200.69 180.82 199.39 180.21 198.21 180.63 C 197.04 181.06 196.43 182.36 196.86 183.53 L 197.21 184.50 C 197.64 185.68 198.93 186.28 200.11 185.86 C 201.28 185.43 201.89 184.14 201.46 182.96 Z M 201.05 181.99 L 200.68 181.01 C 200.26 179.88 198.99 179.30 197.85 179.72 C 196.71 180.14 196.14 181.41 196.56 182.55 L 196.92 183.53 C 197.35 184.67 198.62 185.25 199.75 184.82 C 200.89 184.40 201.47 183.13 201.05 181.99 Z M 200.62 181.02 L 200.25 180.06 C 199.83 178.96 198.60 178.41 197.49 178.83 C 196.39 179.25 195.84 180.48 196.26 181.59 L 196.62 182.54 C 197.04 183.65 198.28 184.20 199.38 183.78 C 200.49 183.36 201.04 182.12 200.62 181.02 Z M 200.19 180.07 L 199.84 179.16 C 199.42 178.09 198.21 177.56 197.15 177.98 C 196.08 178.40 195.55 179.61 195.97 180.67 L 196.32 181.58 C 196.74 182.65 197.94 183.18 199.01 182.76 C 200.08 182.34 200.61 181.14 200.19 180.07 Z M 199.77 179.17 L 199.42 178.28 C 199.00 177.24 197.83 176.74 196.79 177.16 C 195.76 177.57 195.26 178.74 195.67 179.78 L 196.03 180.67 C 196.44 181.70 197.62 182.20 198.65 181.79 C 199.69 181.37 200.19 180.20 199.77 179.17 Z M 199.34 178.28 L 198.91 177.25 C 198.50 176.25 197.36 175.78 196.37 176.20 C 195.37 176.61 194.90 177.75 195.32 178.74 L 195.75 179.77 C 196.16 180.77 197.30 181.24 198.29 180.83 C 199.29 180.41 199.76 179.27 199.34 178.28 Z M 198.83 177.25 L 198.44 176.35 C 198.03 175.40 196.92 174.97 195.97 175.38 C 195.03 175.80 194.59 176.90 195.01 177.85 L 195.40 178.75 C 195.81 179.70 196.92 180.13 197.87 179.71 C 198.81 179.30 199.25 178.20 198.83 177.25 Z M 198.36 176.35 L 197.99 175.53 C 197.57 174.63 196.51 174.23 195.60 174.64 C 194.69 175.06 194.30 176.13 194.71 177.03 L 195.09 177.85 C 195.50 178.76 196.57 179.15 197.47 178.74 C 198.38 178.33 198.78 177.26 198.36 176.35 Z M 197.93 175.53 L 197.52 174.67 C 197.11 173.79 196.06 173.42 195.19 173.84 C 194.31 174.25 193.94 175.30 194.36 176.17 L 194.77 177.03 C 195.18 177.91 196.23 178.28 197.10 177.86 C 197.98 177.45 198.35 176.40 197.93 175.53 Z M 197.50 174.65 L 197.06 173.76 C 196.63 172.90 195.60 172.55 194.74 172.97 C 193.88 173.39 193.52 174.43 193.94 175.29 L 194.38 176.18 C 194.81 177.04 195.85 177.40 196.70 176.98 C 197.56 176.55 197.92 175.51 197.50 174.65 Z M 197.04 173.75 L 196.59 172.85 C 196.16 172.00 195.12 171.66 194.27 172.09 C 193.42 172.52 193.08 173.55 193.51 174.40 L 193.96 175.30 C 194.39 176.16 195.43 176.50 196.28 176.07 C 197.13 175.64 197.47 174.60 197.04 173.75 Z M 196.58 172.84 L 196.12 171.95 C 195.68 171.11 194.65 170.78 193.80 171.21 C 192.96 171.64 192.63 172.68 193.06 173.52 L 193.52 174.41 C 193.95 175.26 194.99 175.59 195.83 175.16 C 196.68 174.72 197.01 173.69 196.58 172.84 Z M 196.11 171.95 L 195.65 171.06 C 195.21 170.22 194.18 169.90 193.34 170.33 C 192.50 170.77 192.17 171.81 192.61 172.65 L 193.07 173.53 C 193.51 174.37 194.54 174.70 195.38 174.26 C 196.22 173.82 196.55 172.79 196.11 171.95 Z M 195.65 171.06 L 195.18 170.17 C 194.74 169.33 193.70 169.01 192.87 169.45 C 192.03 169.89 191.71 170.92 192.15 171.76 L 192.61 172.65 C 193.05 173.49 194.09 173.81 194.92 173.37 C 195.76 172.93 196.08 171.90 195.65 171.06 Z M 195.17 170.17 L 194.85 169.56 C 194.41 168.72 193.38 168.40 192.54 168.84 C 191.71 169.28 191.39 170.31 191.83 171.15 L 192.15 171.76 C 192.59 172.59 193.62 172.92 194.46 172.48 C 195.29 172.04 195.61 171.00 195.17 170.17 Z"
      fill="black"
      fill-rule="nonzero" /></svg>