<svg xmlns="http://www.w3.org/2000/svg" version="1.0" width="937.000000pt" height="937.000000pt" viewBox="0 0 937.000000 937.000000" preserveAspectRatio="xMidYMid meet">
  <defs/>
  <path fill="#000000" d="M474.8,340.1 C473.8,340.6 472,344.5 470.6,348.8 L468.2,356.5 L467.1,380.5 C465.4,416.4 464,454.2 464,463.6 L464,472 L466,474 C468.6,476.6 472.2,476.5 474.7,473.7 L476.8,471.5 L477.8,456.6 C478.4,448.4 479.2,441.4 479.7,441 C481.8,439.1 501.5,434.2 502.6,435.3 C503.9,436.5 501.1,452.7 498,462.5 C491.4,483.4 483.7,494.3 473.7,497.1 C471.4,497.8 468.5,499.3 467.3,500.6 C464.6,503.5 463,503.6 460.7,501 C458.2,498.1 455,498.5 448.3,502.9 C441.7,507.2 440.6,509.5 442.4,515.1 C443.6,518.9 447.7,520.9 454,520.9 C457.4,520.9 469.6,519 475.2,517.5 L478,516.8 L476.1,521.1 C475,523.6 473.5,531.3 472.5,539 C471.7,546.4 469.4,561.5 467.5,572.5 C463,598.7 457,638.9 457,642.8 C457,647.4 458.9,650.7 462.2,652.1 C466.3,653.8 469,652.3 474,645.6 C478.7,639.4 479.1,635.2 475.3,633.5 C474,633 473,631.8 473,630.9 C473,630 475.9,613.1 479.5,593.4 C483.1,573.6 486.7,551.4 487.6,544 C489.5,527 490,525.4 495.5,520 C498,517.6 500,514.8 500,513.8 C500,512.8 500.2,512 500.3,512 C500.5,512 504.9,511.1 510.1,510 C522.6,507.4 552.5,503 557.5,503 C559.8,503 562.1,502.5 562.8,501.8 C564.7,499.9 564.2,495.5 561.9,493.4 L559.8,491.5 L539.6,491.6 L519.5,491.8 L507,494.3 C500.1,495.6 494.4,496.7 494.3,496.6 C494.2,496.5 495.7,494.2 497.6,491.4 C506.7,478.8 515.5,455.3 516.6,440.7 C517,435.9 517.5,432 517.7,432 C517.9,432 528.9,430.4 542.3,428.4 C568,424.6 570,423.9 570,419 C570,414 568.6,413.7 551.3,415 C542.6,415.6 531.5,416.5 526.6,417 C521.6,417.5 517.6,417.8 517.5,417.7 C517.4,417.6 516.6,410.5 515.7,402 L514,386.5 L515.4,381 C516.2,378 517.3,374.2 517.9,372.7 C519.6,368.4 519.2,365.3 516.8,363 C511.8,358.4 507.3,361.3 503.6,371.8 C500.1,381.6 499.5,387.9 500.9,399.6 C501.5,405.1 502.1,411.7 502.3,414.5 L502.5,419.4 L491.5,421.7 C485.5,422.9 480.4,423.8 480.2,423.6 C479.9,423.2 480.2,417.1 483.2,364.1 L484.4,342.7 L482.1,340.9 C479.5,338.8 477.4,338.6 474.8,340.1 Z"/>
  <path fill="#000000" d="M373.5,394.1 C367.8,399.4 366.3,404 368.8,409 C370.9,413.3 375.8,416.2 387,419.6 C399.2,423.4 405.2,426.2 409.9,430.6 C415.2,435.3 415.7,436.3 416.9,443.9 C417.5,447.4 418.4,450.8 419.1,451.6 C420.7,453.5 424.5,453.4 426.6,451.3 L428.3,449.6 L427.7,443.3 C427,436.3 424.5,429.9 420.4,424.5 C416.9,419.9 405.7,412.5 394.8,407.5 C388.1,404.5 386.2,403.1 386.6,402 C388.4,397.8 388.2,395.1 385.7,392.6 C382,388.9 378.7,389.3 373.5,394.1 Z"/>
  <path fill="#000000" d="M501.2,516.6 C497,518.3 496.2,522 498.5,527.9 C501.7,536.2 503,547.1 504,575.5 C504.5,590.9 505.6,606.9 506.4,611.1 C509.1,625.9 515.9,634 529.1,638.1 L535.3,640 L557.9,640.1 L580.5,640.2 L596,637.6 C620.9,633.4 629.1,629.6 633.5,620.4 C638.3,610.2 637.4,590.8 631.3,575.5 C626.2,562.4 608.9,529 606.7,527.8 C603.8,526.3 600.1,527.7 599.4,530.6 C598.9,532.6 600.1,536.1 604.3,544.9 C609.6,555.8 613.6,567.1 617.6,582 C619.9,590.8 619.9,609.9 617.6,613.5 C615.6,616.6 607.7,619 588.6,622.5 L574.7,625 L556.6,625 C537.3,625 532.4,624.2 527.3,620.4 C521.5,616 520.7,611.1 518.9,564.5 C517.9,536.7 517.3,532.3 513.1,523.4 C509.7,516.2 506.5,514.3 501.2,516.6 Z"/>
  <path fill="#000000" d="M342.3,531.9 C335.6,537.3 332.3,540.9 330.7,545 C328.9,549.3 329.8,552.2 333.7,554.7 L336.4,556.5 L346.5,556.4 C352.4,556.3 361,555.4 367.5,554.1 C381.4,551.3 393.4,550.9 395.6,553.1 C398.1,555.7 399,561.5 399,576.2 L399,590 L396.5,596.7 C395.1,600.5 391.7,607.4 389,612.1 C383.5,621.7 382.7,626.2 385.9,630.1 L387.8,632.5 L392.7,632.5 L397.7,632.5 L403.2,628.8 C411,623.6 420.9,614.2 427.3,605.7 C434.1,596.8 447.3,573.4 447.3,570.3 C447.3,567.3 445.3,565 442.6,565 C439.4,565 438.6,565.9 432.9,574.5 C425.1,586.5 414.8,598.8 408.9,603.1 L406.2,605 L408.2,598.7 C409.7,594.1 410.4,588.8 410.7,577.9 C411.5,554.6 409.1,545.3 401,540.6 L397.5,538.5 L385.5,538.6 C377.3,538.6 370.1,539.3 362.7,540.8 C348.4,543.7 348.2,543.7 351.4,539.9 C354.7,536.1 354.8,531.7 351.8,529.6 C348.6,527.3 347.7,527.5 342.3,531.9 Z"/>
</svg>

