<svg xmlns="http://www.w3.org/2000/svg" version="1.0" width="937.000000pt" height="937.000000pt" viewBox="0 0 937.000000 937.000000" preserveAspectRatio="xMidYMid meet">
  <defs/>
  <path fill="#000000" d="M458.5,362.2 C457.4,362.8 456.2,363.8 455.8,364.4 C455.4,365 455,380.4 455,398.5 L455,431.6 L442.8,434.8 C419.5,440.9 417.1,441.3 415.6,440.1 L414.1,438.9 L416.5,435.4 C420,430.2 421.5,421.8 420.3,414.4 C418.4,403.2 415,398.4 401.9,388.8 C397.7,385.7 393.2,381.8 391.9,380.1 C390.6,378.4 388.5,375.7 387.2,374 C382.9,368.4 374,371.1 374,378 C374,383.5 381.9,391.8 393,398 C403.5,403.9 407,406.7 408.6,410.6 C410.5,415.1 410.4,424.4 408.4,428.6 C403.7,438.6 366.3,469.2 343.3,482 C340.9,483.3 338.6,485.5 337.9,487.1 L336.8,490 L338.4,492.5 C341.1,496.6 343.6,497 360.3,495.9 C368.8,495.3 377.9,495 380.5,495.2 L385.3,495.5 L386.4,498.7 C388,503.4 390.3,505.4 393.4,504.6 C400.2,502.9 396.6,487.9 388.6,484.6 C386.6,483.8 380.9,483 375.5,482.8 C370.2,482.6 365.4,482.3 364.9,481.9 C364.4,481.6 366.6,479.6 369.8,477.3 C372.9,475.1 380.4,469.4 386.5,464.7 C395.1,458 397.8,456.4 399.1,457.1 C403.5,459.4 424.6,456.3 446.5,450 C450.3,448.9 453.8,448 454.2,448 C454.7,448 455,449.6 455,451.6 C455,454.3 454.1,456.4 451.6,459.4 C449.7,461.7 445.8,467.6 442.8,472.5 C439.8,477.5 430.6,491.8 422.3,504.5 C401.6,536.3 395,548.2 393.8,555.7 C393.7,557 389,563.6 383.5,570.5 L373.6,583 L370,583 C365.7,583 364.3,584.3 360.6,591.7 C356.3,600.3 357.7,607.1 364,608.5 C372.9,610.4 385.1,596 407,557.5 C412.7,547.6 418.1,538.3 419.2,536.7 C420.3,535.2 421.5,532.7 422,531.1 C422.9,528 449.6,488 450.8,488 C451.2,488 452.3,488.9 453.2,490 L454.9,491.9 L455.5,538.7 C456,588 456.4,594.1 458.6,597.7 C460.4,600.5 466,600.9 468.1,598.3 L469.5,596.7 L469.1,549.3 C468.9,519.6 469.1,502 469.7,502 C470.3,502 475.4,504.2 481.2,506.9 C486.9,509.6 496.3,513.7 502.1,516 C507.8,518.3 513.1,520.9 513.8,521.8 C514.7,522.9 515,529.6 515,546.4 C515.1,559.1 515.5,571.5 516,574 C516.5,576.7 516.5,578.6 515.9,578.8 C513.5,579.7 510.9,582.8 510.4,585.6 C509.6,589.5 512.9,593.5 520.2,597.5 L525.5,600.5 L538.5,600.5 C548.6,600.4 553.5,599.9 560.4,598.2 L569.3,596 L575.4,602.1 C584.4,611.1 591.7,614.2 598.5,612 C603.2,610.5 606,606.2 606.7,599.7 C607.5,592.2 604.9,570.6 598,527 C589.1,470.7 586.9,453 585,421.5 C583.2,391.4 581.3,378.1 577.7,371.8 C575.2,367.3 569.2,364 563.4,364 C556.5,364 542.7,366 535,368.1 C530.9,369.3 525.9,370.2 523.9,370.1 C521.7,370.1 519.3,370.8 517.9,371.9 C516.6,372.9 513.8,374.3 511.8,374.9 C507.8,376.2 505,379.2 505,382.2 C505,385 508.7,388 512,388 L515.1,388 L514.8,447.4 C514.6,480.1 514.1,507.2 513.7,507.7 C512.8,508.6 483.3,493.7 474.8,488 L469.5,484.5 L469.5,464.1 L469.5,443.6 L485.3,438.5 C493.9,435.7 501.9,432.6 503,431.5 C504.1,430.4 505.2,428.1 505.6,426.3 L506.2,423.2 L500.3,416.8 L494.4,410.5 L489.5,399.1 C486.5,392.2 483.6,387.1 482.3,386.2 L480,384.8 L477.5,386.4 C476.1,387.3 475,388.9 475,390 C475,392 485.1,415.9 487.6,419.7 L489,421.9 L483.3,423.5 C480.1,424.4 476.2,425.6 474.6,426.1 C473,426.6 471.1,427 470.4,427 L469,427 L469,398.1 C469,380.6 468.6,368.1 468,366.3 C467.4,364.6 465.8,362.8 464.4,362.1 C461.4,360.8 461,360.8 458.5,362.2 Z M567,379.4 C568.5,383.6 570,396.5 571.5,420.8 C573.8,458.3 575.5,471.7 587.4,546 C589.2,557.8 591.1,570.2 591.5,573.5 L592.1,579.5 L587.8,579.5 C585.4,579.5 581.1,580.3 578.2,581.2 L573,582.9 L570.1,577.7 C568.5,574.8 566.5,571.3 565.6,569.7 C564.5,567.8 563.3,567 561.2,567 C555.2,567 554.4,571.5 559.1,579.6 L562.1,584.9 L559.5,585.6 C554.3,586.9 531.8,585.5 527.9,583.6 L524.2,581.9 L526.6,579.5 L529,577.1 L529,552.3 L529.1,527.5 L532.8,525.9 C536.7,524.1 552.8,518.8 559.5,517.1 C563.9,515.9 565,516.7 565,521 C565,527.4 571.4,530.3 574.6,525.5 C576.9,522 576.1,512 573.3,508.2 C570.3,504.2 565,502.7 557.8,504 C554.5,504.6 551.1,505.4 550.2,505.7 C549.3,506.1 552,502.7 556.2,498.2 C566.9,486.9 569.9,480.5 568.5,471.4 C567.8,466.2 564,461.3 559.1,459.3 C557.1,458.4 550.5,457.6 542.8,457.3 L530,456.7 L529.8,422.3 C529.7,403.5 529.6,386.8 529.6,385.3 L529.5,382.6 L535.5,380.8 C543.6,378.3 550.1,377.3 558.8,377.1 L566,377 L567,379.4 Z M555.8,472.2 C556.5,472.9 557,475.1 557,477.1 C557,482.4 551.6,488.8 539.2,498.3 L529,506.1 L529,488.6 L529,471 L541.8,471 C550.4,471 555,471.4 555.8,472.2 Z M593,592.5 L593,599 L591.2,599 C588.9,599 580.7,593.2 581.4,592.1 C581.7,591.7 583.7,590.7 586,590 C588.2,589.3 590.5,588.1 591.1,587.3 C591.7,586.6 592.4,586 592.6,586 C592.8,586 593,588.9 593,592.5 Z"/>
</svg>

