<svg xmlns="http://www.w3.org/2000/svg" version="1.0" width="937.000000pt" height="937.000000pt" viewBox="0 0 937.000000 937.000000" preserveAspectRatio="xMidYMid meet">
  <defs/>
  <path fill="#000000" d="M469.9,312.5 C462.9,316.3 467.2,329.5 477.3,335.4 C479.6,336.7 486.9,339.7 493.5,342 C508.2,347.2 511.9,349 517.2,353.8 C522.1,358.2 523.6,361.5 524.5,369.6 C525.3,376.8 523.3,385.8 519.3,393.3 C513.8,403.2 498.6,414.1 481.9,420 L473.5,422.9 L473,397.5 L472.5,372.1 L470.4,369.3 C467.9,365.9 464.1,365.3 461.1,367.7 C458,370.3 457,378.4 457,404.2 L457,425.8 L453.5,427 C449.5,428.3 448,430.5 448,435 C448,438.4 451.8,443 454.5,443 C455.8,443 456,443.7 455.6,445.7 C455.3,447.3 454.6,451.9 454,456 C450.7,478 440.3,525.5 437.7,530.8 C436.9,532.3 436,535.3 435.8,537.5 C435.1,542.5 431,556 430.2,556 C429,556 426,547.6 426,544.4 C426,542.6 425.3,540.7 424.5,540 C423.4,539.1 423,536.6 423,530.7 L423,522.7 L426,517.3 C429.7,510.8 429.7,509.7 426.4,507.1 C422.7,504.2 421.3,504.5 417.5,508.4 C410.8,515.5 408.3,526.4 410.1,540.2 L411.2,547.8 L403.1,559.8 C398.7,566.4 394.6,572.1 394.1,572.5 C393.5,572.8 388.7,578.8 383.3,585.8 C373,599.2 365.3,608 363.8,608 C362.7,608 364.6,604.4 373.2,589.8 C388.8,563.3 393.5,549.9 392.8,533.8 L392.4,525 L389.3,521.3 C384,514.7 379.7,514.2 346.8,516.6 C340.6,517.1 337.6,516.9 336.6,516.1 L335.2,514.9 L336.7,510.4 C337.5,508 337.9,504.8 337.6,503.4 C336.7,500 332.8,498.3 329.5,499.8 C326,501.4 322,510.1 322,516.2 L322,521 L325.6,524.9 C330.8,530.7 336.2,531.7 353.9,530.2 C361.4,529.5 370.3,529 373.8,529 L380,529 L381.1,531.7 C381.7,533.3 382,537.9 381.7,542.5 C380.9,554.1 376.5,564.3 360.8,590 C356.9,596.3 352.4,603.7 350.8,606.5 C349.1,609.2 347.5,613.3 347.3,615.6 L346.8,619.7 L349.7,623 L352.7,626.3 L358.4,626.8 L364,627.3 L370.5,624.1 C382.2,618.3 393.7,602.7 406.6,575 C407.7,572.5 410.4,567.8 412.5,564.5 L416.4,558.5 L420.2,567 L424.1,575.5 L419.4,589.5 C413.5,607 409.4,616 404.1,622.9 C399.5,629 399.4,629.6 401.6,632.8 C407.1,640.6 418.7,627.2 429,601.2 C430.8,596.7 432.4,593 432.6,593 C432.8,593 435.4,597.9 438.5,603.9 C442.6,611.9 445.4,616.1 449.5,619.9 C455,625.1 456.7,625.8 460.1,624 C463.2,622.3 462.4,618.3 457.9,613.2 C455.6,610.6 453,606.7 452,604.5 C451.1,602.3 447.7,595 444.6,588.2 L438.9,575.9 L439.9,572.7 L441,569.5 L461.2,569.8 C472.4,570 481.9,570.6 482.4,571.1 C483.9,572.5 480.8,577.8 473.6,585.9 C466.4,593.9 465.5,596.9 468.8,601.1 C473.1,606.4 480.1,603.1 500.5,586 C507.7,580 513.8,575.5 514.3,575.9 C514.7,576.3 515.3,585.3 515.7,595.8 L516.3,615 L514.9,615 C514.1,615 511.8,614.5 509.8,614 C503.8,612.3 499.4,616.1 501.9,620.9 C503.2,623.2 511.8,626.3 517.1,626.2 C522,626.1 524.6,624.7 526.7,620.7 L528.5,617.5 L528.5,589.3 L528.5,561.1 L531.8,557.8 C533.5,555.9 535,553.4 535,552.3 C535,549.1 532.2,546.9 528.7,547.2 L525.7,547.5 L523.8,537 C522.8,531.2 521.9,525 521.7,523.1 L521.5,519.6 L534,517.4 C552.6,514.1 570.2,512 579.1,512 L587,512 L588,514.6 C590.1,520 588.8,579.2 586.6,582.9 C585.8,584.2 575.2,582.2 570.9,580 C568.8,578.9 566.5,577 565.9,575.8 C564.1,572.4 565.5,561.2 569.1,550.8 C573.6,537.7 574.1,535.1 572.9,530.5 C571.5,525.3 567.2,519.4 563.8,517.9 C561.6,517 560.3,517 558,518 C552.6,520.2 551.4,525.7 555.1,531.6 L557.2,535 L554.6,543.3 C550.9,555.4 549.7,562.9 550.1,571.7 L550.5,579.7 L553.5,584.6 C557.4,590.8 566.1,595.6 576.9,597.2 L584.2,598.4 L583.5,601.9 C581.7,612 578.7,622.9 577,625.8 C572.9,632.5 566.6,632.1 558.1,624.4 C551.3,618.3 546,618.6 546,625.2 C546,627.3 547.3,629 552.2,633.1 C560,639.6 565.1,641.9 571.3,642 C583.7,642 591.1,632.5 596.9,608.8 L599.7,597.7 L604,596.4 C609.9,594.7 617.9,589 618.7,586.1 C620.1,580.5 614.7,578.5 607.7,581.9 C605.2,583.1 603.4,583.6 603.2,583 C603,582.4 603.3,577.5 603.9,571.9 C605.3,559 605.3,519.6 603.9,513.1 C602.7,507.4 599.8,502.7 595.7,499.6 L592.9,497.5 L583.7,497.1 C573.3,496.7 559.1,498.1 537.7,501.6 C529.6,502.9 522.2,504 521.3,504 L519.7,504 L520.4,491.6 L521,479.2 L518.3,477 C515.6,474.9 512,474.9 509.3,477.1 C507.6,478.6 506,486.4 505.2,497.5 L504.5,507.5 L481.1,512.7 C468.2,515.6 457.5,517.8 457.4,517.7 C457.2,517.5 461.3,499.9 465.2,483.7 L466.1,480 L474.3,480 C478.8,480 485.4,479.3 489,478.5 C492.6,477.7 506.5,474.6 520,471.6 C537.1,467.7 546.6,466 551.5,466 C559.8,466 563,464.4 563,460.1 C563,455.1 561.1,454.5 545.1,454.5 L530.5,454.6 L504.5,459.9 C485.3,463.8 478.5,464.9 478.2,464 C477.4,461.7 474,459 472,459 L469.9,459 L470.6,452.7 C471,449.3 471.6,445.4 472,444 L472.6,441.6 L479,440.3 C487.6,438.5 525,427.5 533,424.3 C540.5,421.3 549.3,416.5 551,414.5 C551.6,413.8 552,411.6 551.8,409.8 C551.6,407.3 550.9,406.3 548.8,405.6 L546,404.6 L533.3,408.7 C526.2,411 520.3,412.7 520.1,412.5 C519.9,412.2 521.8,409.8 524.4,407 C537.5,392.3 541.7,369.3 534,353.5 C529.5,344.1 517,335.3 498,327.9 C485,322.9 483.4,321.8 481.6,317.6 C480.1,314.1 476.6,311 474,311 C473.2,311.1 471.3,311.7 469.9,312.5 Z M507.7,530 C508.4,533.6 510,542.1 511.1,549 L513.1,561.4 L510.1,564 C508.5,565.4 504.4,568.9 501.1,571.8 L495,577.2 L495,572.3 C495,569.3 494.3,566.3 493,564.3 C489.7,558.9 486.1,557.7 471,557.2 C461.5,556.9 456.8,556.3 455.3,555.2 C453.8,554.3 451.9,554 449.6,554.4 L446.2,555.1 L449.1,545.8 C450.7,540.7 452.7,536 453.6,535.3 C454.5,534.6 457.8,533.6 460.9,532.9 C464,532.3 474.8,529.9 485,527.5 C495.2,525.1 504.1,523.3 504.9,523.4 C505.8,523.4 506.8,525.9 507.7,530 Z"/>
  <path fill="#000000" d="M362.6,381.3 C361.3,382.6 359.7,385.9 359.1,388.8 L357.8,394 L359.7,397.7 C362,402.6 365.6,404.5 375.8,406.4 C380.3,407.3 387.7,408.7 392.2,409.6 C407.2,412.4 412,416.7 412,427.3 C412,434.1 410.2,438.1 402.4,448.9 C396.5,456.9 396,458.8 399,461.5 C402.2,464.4 405.1,462.7 411.2,454.3 C419.9,442.1 422.3,436.8 422.8,427.7 C423.4,417.8 421.8,412.2 416.8,406.5 C410.4,399.3 400.3,395.3 378.8,391.6 L375,390.9 L375,387.4 C375,380.3 367.4,376.6 362.6,381.3 Z"/>
</svg>

