<svg xmlns="http://www.w3.org/2000/svg" version="1.0" width="937.000000pt" height="937.000000pt" viewBox="0 0 937.000000 937.000000" preserveAspectRatio="xMidYMid meet">
  <defs/>
  <path fill="#000000" d="M545.6,308.2 C543.6,311 543.6,314.9 545.4,317.6 C547.6,320.7 549.1,327.7 548.4,331.5 C547.7,335.5 548.2,335.3 533.5,337 C528,337.7 522.3,338.4 520.8,338.7 L518,339.2 L518,326.6 L518,314 L516,312 C513.6,309.6 510.3,309.4 507.2,311.6 L505,313.1 L505,327.4 L505,341.6 L495.8,343.8 C485.8,346.2 477.7,346.6 473.4,345 C466.1,342.2 459.7,351 464.8,356.8 C466.9,359.3 475.8,362 481.9,362 C484.4,362 490.2,361.1 494.8,360 C499.4,358.9 503.5,358 503.9,358 C504.4,358 505,363 505.4,369.2 C506.3,383.6 506.7,385.4 509.7,388.6 L512.1,391.2 L510.7,392.9 C507.5,396.5 507.9,401.9 511.4,404.2 C513.8,405.8 519.2,404.8 528.6,401.1 C534.1,399 543.9,395.1 550.5,392.6 C557.1,390 565.2,386.5 568.5,384.7 L574.5,381.5 L574.8,378.7 C575.2,375.2 573.5,373 570.4,373 C569.2,373 561.3,375.2 552.8,378 C544.4,380.7 537.4,382.8 537.2,382.6 C537.1,382.4 539.6,378 543,372.9 C546.3,367.7 551.1,359.6 553.5,354.9 L558,346.2 L561.2,345.7 C563,345.3 567.9,344.8 572,344.4 C576.1,344 580.3,343.3 581.2,342.9 C583.5,341.7 584.3,338.5 583,336 L581.8,333.8 L572.2,334.1 L562.6,334.4 L562.4,327.3 C562.2,319.9 559.2,311.4 555.6,307.7 C553.1,305.2 547.5,305.5 545.6,308.2 Z M542,349.6 C542,350.4 530.6,369.6 528.5,372.4 L527,374.3 L524.6,373.2 C522.8,372.4 521.6,372.5 519.5,373.6 L516.7,375 L517.4,364.8 C517.8,359.2 518.3,354.4 518.5,354.1 C518.9,353.7 538.7,349.2 540.8,349.1 C541.4,349 542,349.3 542,349.6 Z"/>
  <path fill="#000000" d="M396,369 C394.8,370.2 394,372.3 394,374.4 C394,378.9 400.2,385.9 409.5,391.8 C423.5,400.6 426.2,404.9 426.8,418.8 L427.2,428.2 L424.5,435.1 C421.3,443.3 421.5,446.1 425.2,447.4 C429,448.7 431.2,446.5 434.4,437.9 L437,430.9 L437,420.5 C437,403.1 431.8,391.5 420.2,382.9 C417.1,380.7 412,376.1 408.9,372.9 C402.7,366.4 399.5,365.5 396,369 Z"/>
  <path fill="#000000" d="M544.8,400.7 C543,402.9 538.5,415.4 536.6,423.9 C535.8,427.3 534.9,430.4 534.7,430.6 C534.5,430.8 526.6,432.4 517.1,434 C495.5,437.8 490.2,439.8 483.3,446.4 C480.4,449.3 478,452.3 478,453.2 C478,454 478.9,455.9 480.1,457.4 C482.7,460.7 486.7,460.8 491.8,457.7 C493.8,456.4 497.8,454.6 500.5,453.7 C506.1,451.9 529.1,447.8 529.8,448.5 C530.7,449.3 523.7,474.2 522.1,476.1 C521.2,477.2 515.6,479.8 509.7,482.1 L498.9,486.2 L496.2,484.4 C491.5,481.4 477.4,466.6 474.5,461.5 C472.9,458.8 471.1,453.9 470.5,450.6 L469.4,444.5 L466.7,443 L464.1,441.5 L461.3,443.7 L458.5,445.8 L458.7,452.4 C458.8,457.4 459.5,460.5 461.4,464.5 C464.7,471 475,482.4 482.4,487.5 L488,491.3 L488,495.1 C488,498 488.6,499.3 490.7,500.9 C493.6,503.3 493.4,503.3 506.9,498.4 C512,496.5 516.4,495.1 516.7,495.3 C518.7,497.3 503.6,506 488.4,511.5 C480,514.5 477.9,519 482.5,523.5 C485.4,526.5 491.4,526.8 500.3,524.5 C508.1,522.5 508.1,522.5 506.6,526.7 L505.4,530.5 L498.4,534 C494.6,535.9 485.6,540.3 478.3,543.8 L465.2,550.1 L464,553.1 C462.4,556.8 463.7,560.1 467.5,562.6 C470.5,564.6 475.5,564.1 486.2,560.9 C490,559.8 493.5,559 494,559.2 C495.1,559.6 486.5,581.4 481.4,591 C479.4,594.8 476.8,599 475.5,600.4 L473.2,602.8 L469.1,602.3 C464.3,601.6 461,603.8 461,607.5 C461,611.3 464.3,613.2 472,613.8 L479.1,614.3 L484.3,608.9 C490.3,602.6 497,590.2 505.5,569.5 C508.6,561.8 511.7,555 512.4,554.3 C513.7,553 542.3,545.2 580.7,535.6 C611.3,527.9 616.2,526.2 621.8,521.4 C626.7,517.2 627.3,513.6 623.7,510.2 C620.8,507.5 619,507.4 614,510 C611,511.5 556.2,526 525,533.5 C523.4,533.9 523.9,533.3 526.5,532 C542.7,523.3 555,516.3 557.8,514.3 L561.1,511.8 L560.8,508.3 C560.6,505.8 559.7,504.1 557.7,502.6 L555,500.6 L543,502.1 C536.4,502.9 531,503.4 531,503.3 C531,503.2 532.9,502 535.3,500.7 C537.6,499.4 545.8,494.8 553.5,490.5 C561.2,486.2 568.3,482 569.3,481.2 C571.4,479.3 571.5,475.2 569.4,472.2 L567.9,470 L561.3,470 L554.7,470 L559.6,466.3 C562.3,464.3 570.1,458.3 577,453 C583.9,447.7 591.1,442.4 593.1,441.2 C599.2,437.5 600.7,431.6 596.5,427.5 L594.1,425 L587.3,425 C583.6,425 574.9,425.7 568,426.5 C561.1,427.3 554.3,428 552.9,428 L550.3,428 L552.7,415.8 L555,403.6 L553.5,401.3 C551.6,398.5 547,398.2 544.8,400.7 Z M568.4,443.8 C549.7,459.2 542,464.9 542,463.3 C542,462.9 543,458.6 544.2,453.8 L546.4,445.1 L550.5,444.5 C552.7,444.2 557,443.6 560,443.1 C563,442.6 566.6,442.2 568,442.1 L570.5,442 L568.4,443.8 Z"/>
  <path fill="#000000" d="M360.5,482.2 C352.6,487.1 344.3,493.8 342,497.1 C340.8,498.7 339.8,501.7 339.7,503.7 C339.5,509.3 342.8,511.3 356.7,514.5 C374,518.5 390,523 394,525 C401,528.6 403,533.4 403,546.8 C403,556.4 401.6,561.1 393.3,579.8 L387.8,592.3 L388.4,595.9 C388.7,598.1 390,600.4 391.6,601.9 L394.4,604.2 L399.1,603.8 C411.9,602.5 432.2,583.5 450.4,555.6 C464,534.8 470.4,522.8 469.5,519.9 C468.7,517.4 465.4,515.7 462.9,516.5 C461.8,516.9 459.6,519.8 457.9,523.1 C450.3,538.3 442.4,549.3 429.3,563.1 C420.4,572.4 404.8,585 404.3,583.3 C404.1,582.7 405.7,577.7 407.9,572 C410.1,566.4 412.5,559.1 413.1,555.8 C414.5,549 413.8,533.4 411.8,527.5 C409.9,521.4 402.5,514.8 393.3,511 C385.5,507.7 367.6,502.8 358.7,501.5 L353.9,500.8 L355.2,499.2 C355.9,498.4 359.9,495.3 364.1,492.3 C368.4,489.4 372.1,486.2 372.4,485.3 C373.3,483 370.4,479 367.7,479 C366.5,479 363.3,480.4 360.5,482.2 Z"/>
  <path fill="#000000" d="M528,556 C525.5,558.5 525.4,563.2 527.8,565.2 C528.7,566.1 535.6,569.8 543,573.5 C575.4,589.7 612.7,611.4 629.1,623.7 C647.2,637.2 659.6,645.2 662.4,645.2 C666.2,645.2 669,642.3 669,638.4 L669,635.2 L663.3,630.3 C654.7,623 647.6,617.9 637,611.5 C631.8,608.3 622.6,602.3 616.5,598 C588,578.1 541.9,554 532.1,554 C530.9,554 529.1,554.9 528,556 Z"/>
</svg>

