<svg xmlns="http://www.w3.org/2000/svg" version="1.0" width="937.000000pt" height="937.000000pt" viewBox="0 0 937.000000 937.000000" preserveAspectRatio="xMidYMid meet">
  <defs/>
  <path fill="#000000" d="M529.3,329.2 C527.8,331 526.9,334.5 525.6,343.9 C523,363 511.4,399.2 501.9,418.1 C496.6,428.8 486.6,442.5 478.6,450.3 L470.6,458 L471.6,460.8 C472.3,462.8 473.3,463.6 475.6,463.8 L478.7,464.1 L485.6,458.6 C498.6,448.3 511.4,430.2 523.7,405.1 C543.6,364.3 548.8,327 534.6,327 C532.5,327 530.6,327.8 529.3,329.2 Z"/>
  <path fill="#000000" d="M462.6,340.5 C461.8,341.3 460.9,342.8 460.6,343.8 C459.6,347.5 458.1,360 457.5,369.5 C456.1,393.5 453.4,411.7 447.8,435.3 C446.1,442.5 444.2,448.4 443.5,448.6 C441.3,449.5 431.1,447.2 426.3,444.8 C420.5,441.9 406.7,427.4 395.8,412.9 C386.4,400.3 384.6,397.3 381.6,388.5 C380,384.1 378.8,382.2 376.8,381.2 L374,379.9 L371.3,381.2 C369.8,381.9 367.9,383.7 367.1,385.1 L365.6,387.7 L367.4,394.4 C370.5,405.9 382.1,422.1 399.1,439 C412.5,452.3 421.9,457.6 434.3,458.7 C437.5,459 440.4,459.8 440.6,460.5 C442.1,464.3 425,507 409.6,538 C395.6,566.3 390.1,574.8 377.5,587.6 C368.2,597 364.8,599 357.4,599 C351.6,599 348.8,605.7 353,609.5 L355,611.3 L361.7,610.7 C371.4,609.8 377.3,606.4 388.9,595.4 C404.5,580.6 411.5,570 429.6,533.8 C448.4,496.3 460,462.2 467.4,422.5 C471.6,400.3 473,384.9 472.9,361.1 L472.8,342.8 L470.9,340.9 C468.6,338.6 464.7,338.4 462.6,340.5 Z"/>
  <path fill="#000000" d="M464.4,486.1 C462,488.7 462.3,497.6 464.9,503.4 C466.2,506.2 478,518.7 503.6,544.1 C566.1,606.1 586.9,621.5 614.3,626.1 C623.3,627.6 625.3,626.9 625.8,622.2 C626.2,618.3 624.1,616.9 614.5,614.6 C604.7,612.2 597,608.1 584.9,599.1 C566.3,585.1 549.1,569.3 512.7,532.7 L477,496.6 L476.4,492.8 C475.1,484.9 468.7,481.3 464.4,486.1 Z"/>
</svg>

