<svg xmlns="http://www.w3.org/2000/svg" version="1.0" width="937.000000pt" height="937.000000pt" viewBox="0 0 937.000000 937.000000" preserveAspectRatio="xMidYMid meet">
  <defs/>
  <path fill="#000000" d="M495.9,306.7 L493.7,309.5 L494.4,329.7 L495,350 L491.1,350 C488.1,350 486.2,349.3 483.7,347.1 C479.6,343.4 475.9,342.4 472.8,344.1 C466.7,347.4 466.3,353.3 471.8,358.8 C476.7,363.7 481.1,365.7 488.9,366.6 L495.3,367.3 L494.7,383.9 C494.4,393 493.6,403.5 492.9,407.3 L491.7,414 L489.6,414.4 C485.8,415.1 457.7,417 457.3,416.6 C457,416.4 458,412.5 459.4,408 C461,403.2 461.8,398.9 461.4,397.4 C460,392 452.1,389.2 447.3,392.5 C445.9,393.5 443.8,398.1 440.9,406.7 C438.6,413.8 436.6,419.6 436.6,419.7 C436.5,419.9 433,420.4 429,421 C423.8,421.7 420.9,422.7 419.3,424.2 C416.9,426.5 416.3,430.8 418,434 C419.2,436.3 423.9,437.9 427.3,437.3 C428.8,437 430,437.2 430,437.8 C430,439.7 417.8,469.4 411.9,481.9 L406,494.2 L400.5,499.5 C394.5,505.3 394,507 397,510 C400.4,513.4 403.2,512.3 411.7,503.9 C418.5,497.2 421.1,492.9 437.3,461 C447.5,440.8 450.7,435.4 452.6,434.8 C456.2,433.8 479.2,431.8 482.3,432.1 L485,432.5 L481.4,437.8 C478.8,441.7 478,443.8 478.4,445.6 C479.2,448.5 482.4,450.3 485.1,449.5 C487.2,448.8 493.6,439.7 495.9,434.2 C497.3,430.8 500.1,430 511.3,430 L518.1,430 L517.5,432 C516.6,434.7 517.7,437.8 520.1,439 C523.2,440.7 532.8,437.5 539.1,432.7 L544.5,428.5 L573.5,428.2 L602.5,427.8 L608.9,430 C616,432.4 619.4,432.1 621.1,428.9 C623.2,424.9 621.4,422.1 614.7,419 C606.1,415.1 599.6,414.2 577.1,413.6 C566.4,413.3 557.5,412.9 557.3,412.6 C557.1,412.4 558.5,409.2 560.4,405.4 C562.3,401.6 564.3,396.7 564.9,394.5 C566.5,388.7 566.3,376.1 564.5,370.8 C562.4,364.8 555.9,358.4 548.2,354.8 L542,351.8 L526.2,350.8 C517.6,350.3 510.4,349.7 510.3,349.7 C510.2,349.6 509.8,340.1 509.4,328.6 L508.7,307.7 L506.9,305.9 C504,303 498.6,303.4 495.9,306.7 Z M541.5,368.7 C547.2,371.7 549.2,374.3 550.1,379.8 C551.1,386.7 549.6,393.3 544.5,403.6 L540.1,412.7 L522.4,413.4 C512.7,413.8 504.5,413.9 504.3,413.6 C504,413.4 504.5,409.6 505.4,405.3 C507.7,393.4 509,382.6 509,374.6 C509,370.6 509.3,367 509.8,366.6 C510.2,366.1 516.6,366 524,366.2 L537.5,366.6 L541.5,368.7 Z"/>
  <path fill="#000000" d="M390.8,394.1 C387.8,395.8 384.2,409.7 383,423.7 C381.4,443.5 374.7,491.5 373.5,492.8 C372.7,493.7 367,489.7 363.3,485.7 C358.1,480.1 356.2,476.3 351.6,462.9 C348.9,455 348,450.7 348,445.8 C348,440.8 347.5,438.7 346,436.7 C341.9,431.6 334.9,432.5 332.4,438.5 L330.9,442.1 L332,450.2 C333,458.7 337.1,469.6 343.2,479.8 C348.2,488.3 358.4,498.2 365.6,501.6 L371.7,504.4 L365.5,535 C359.2,565.5 354.2,587.1 349.6,602.9 C347.1,611.6 344.5,615.3 338.2,619.2 C336.5,620.3 334.7,622.3 334.4,623.6 C333.7,626.5 336,630.5 338.9,631.3 C343.6,632.5 355.6,623.6 359.4,616.1 C363.4,608.2 372.4,579.8 379,554.2 L380.1,549.9 L386.3,555.3 C397.2,564.7 413.2,577.3 425.8,586.3 C432.5,591.2 438,595.3 438,595.5 C438,595.8 435.1,597.8 431.5,600.1 C427.9,602.4 424.5,605 424,606 C422.4,608.9 422.8,612.6 424.9,615.1 C427.6,618.5 433.1,618.1 446.2,613.7 C452,611.6 457.4,610 458,610 C458.7,610 462.1,612 465.6,614.5 C472.3,619.3 474.9,619.9 477.4,617.4 C479.8,615 479.3,611.7 476,608.5 C474.4,606.9 473,605.3 473,605 C473,603.4 512.9,593.4 514,594.7 C516.3,597.3 520.9,663.7 521.2,698 L521.3,720.5 L519.2,726.7 C516.4,734.6 516.4,735.6 519.5,737.6 C523.5,740.2 526.4,738.3 529,731.3 C530.2,728.2 531.6,723.3 532.1,720.5 C533.4,713.7 533.3,634 532,610.6 C531.4,600.2 531.3,591.4 531.7,591 C532.9,589.9 554.9,586.9 565.3,586.4 C578.3,585.7 580.7,585.2 583,582.8 C585.6,580 585.5,576.9 582.8,573.5 L580.6,570.7 L564.1,571.5 C539.5,572.8 531.2,572.6 529.6,570.9 C528.9,570.1 527.7,565.1 527.1,559.7 C524.8,541.6 521.2,533.9 514,532 C509.2,530.7 505.5,532.2 503.4,536.2 C502.6,537.7 501.6,539 501.1,539 C500.4,539 497.7,531.8 498.3,531.5 C498.4,531.4 503.5,529.6 509.5,527.5 C521.5,523.4 532.6,518.2 537.8,514.3 C541.6,511.4 542.1,507.1 539,504 C536.3,501.3 534.8,501.4 524.9,505.4 C520.3,507.2 515.5,509.1 514.2,509.5 C512.8,509.9 516.2,505.9 522.8,499.3 C534.5,487.6 536.6,483.8 534.9,477.7 C533,470.8 525.5,469.6 501,472.5 C494.1,473.3 485.5,474 481.8,474 L475.1,474 L471.6,470.5 C467.5,466.5 464.5,466.1 460.6,469.1 C455.8,472.9 457.3,478.5 470.5,506.7 L475.3,516.9 L472.1,520.5 C468.8,524.3 468.3,526.8 470.2,530.3 C472.1,533.9 474.2,534.9 480.1,535 L485.6,535 L487.7,538.7 L489.9,542.5 L477.7,546.8 C471,549.2 462.8,551.8 459.5,552.7 C452.7,554.4 451.2,555.4 449.9,558.8 C448.7,561.9 451.2,566.6 454.5,567.4 C457.7,568.2 467,566.1 477.9,562 C482.5,560.3 486.7,559.1 487.2,559.2 C488.3,559.6 474.8,570.6 461.1,580.5 C454.6,585.3 451.4,587.1 450.5,586.4 C442.4,580.5 393.3,539.9 389.5,536.1 L384.6,531 L386.9,519.2 C388.2,512.8 390.1,506.1 391,504.5 C392.1,502.6 392.6,500.2 392.3,498 C392,496 392.8,489.5 393.9,483.5 C398.4,459.9 403,419.4 403,403.9 L403,397.3 L400.7,395.2 C398.2,392.9 393.7,392.4 390.8,394.1 Z M518,486.8 C518,488.6 507.8,497.3 499,502.9 C493.8,506.3 489.2,509 488.7,509 C487.8,509 480,492.5 480,490.4 C480,489.4 481.6,489 486.3,488.9 C489.7,488.9 497,488.3 502.5,487.6 C514.8,485.9 518,485.8 518,486.8 Z M505,566 C505,566.5 506.6,568.7 508.5,570.9 C513.7,576.6 513.3,577.5 504.3,579.5 C500,580.4 492.5,582.2 487.6,583.6 C482.8,585 478.6,585.9 478.4,585.7 C478.2,585.5 480.8,583.1 484.2,580.4 C487.7,577.8 493.3,573.2 496.8,570.3 C503,565.1 505,564 505,566 Z"/>
</svg>

