<svg xmlns="http://www.w3.org/2000/svg" version="1.0" width="937.000000pt" height="937.000000pt" viewBox="0 0 937.000000 937.000000" preserveAspectRatio="xMidYMid meet">
  <defs/>
  <path fill="#000000" d="M477,317.3 C473.8,318.9 472.2,324.8 472.1,335.1 C471.9,349.2 478.9,364.9 488.1,371.4 L490.3,372.9 L481.2,382.7 C466.8,398.2 463,403.6 463,408.1 C463,416.2 469.6,418.1 482.5,413.5 C487.5,411.7 489.6,411.4 490.1,412.2 C491.1,413.8 493.3,425.6 492.8,427 C492.6,427.6 485.8,431.8 477.6,436.3 C461.8,445 458.3,448.1 459.4,452.4 C460.7,457.6 469.5,459.3 482.4,456.9 C485.6,456.3 488.4,456.1 488.6,456.3 C488.9,456.6 480,461.4 468.9,467 L448.7,477.3 L446.7,474.6 C444.2,471.1 441.5,471.3 436.3,475.6 C431.7,479.4 417.9,486 414.6,486 L412.8,486 L413.5,474.8 L414.3,463.5 L418.8,458.5 C425.3,451.3 432.8,439.5 434.5,433.7 C436.5,427.1 436.4,413.6 434.4,407.8 C431.3,398.4 422.8,391.9 407.5,387 C403.7,385.8 397.7,383.2 394.3,381.4 C390.9,379.5 387.2,378 386.1,378 C382.9,378 380,381.5 380,385.4 C380,388.2 380.7,389.4 383.3,391.3 C388.5,395.3 394.1,397.7 403.1,400 C413.4,402.5 419.7,405.6 422.4,409.3 L424.5,412.2 L424.5,421.8 L424.5,431.5 L422.3,435.5 C421.2,437.7 418.1,442.3 415.6,445.8 C412,450.6 410.5,452 409.1,451.5 C405.6,450.4 402.1,453 400.9,457.4 C399.3,463.5 398.9,464 391,470.7 C381.9,478.3 366.5,487.6 351.2,494.6 C339.4,500 336,502.6 336,506.2 C336,515 347.6,516.1 376.2,510 C384.1,508.3 392,506.6 393.9,506.3 L397.2,505.7 L396.7,507.6 C396.4,508.6 394.9,518 393.5,528.5 C390.3,551.1 388.7,559.4 385.8,567.8 L383.6,574.1 L377.8,577.6 C374.6,579.5 369.2,582.3 365.8,583.7 C358.5,586.6 357.1,587.6 355.9,590.8 C354.6,594.2 357.2,599.8 360.4,600.6 C366.1,602 377.7,597.3 391.7,587.9 C404.3,579.4 451,532.4 451,528.1 C451,525.5 448.4,523 445.7,523 C444.4,523 438.5,528 429.1,537.3 C415,551.1 400.4,563.7 399.5,562.8 C399.3,562.6 399.7,560 400.6,557 C401.4,554 404,540.3 406.5,526.6 C408.9,512.9 411.1,501.6 411.2,501.6 C411.4,501.5 414.6,500.2 418.4,498.7 L425.3,496.1 L428,499 L430.8,502 L435,502 C437.4,502 451.9,498.8 467.3,495 C482.7,491.1 495.7,488 496.2,488 C496.6,488 497,488.9 497,489.9 C497,491 497.8,493.2 498.7,494.8 L500.4,497.7 L490.4,511.6 C484.9,519.2 476.5,531.1 471.8,538 C457.6,558.8 449.4,568.8 434.6,583.5 C421.7,596.4 412.8,603.3 397.8,612.4 C393.3,615.1 394.4,622 399.2,622 C406.4,622 435.3,600.7 455.5,580.5 C467.1,568.9 477.6,556.2 491.4,536.7 C496.8,529.2 501.6,523 502.1,523 C502.6,523 503,529.3 503,537.5 C503,545.5 502.8,552 502.5,552 C502.3,552 500.7,550 499,547.5 C496.6,544 495.3,543 493.2,543 C489.9,543 488,544.6 488,547.5 C488,549.6 495.1,560.6 501,567.9 L504,571.5 L504,597.5 C504,623.1 503.6,628 501.9,628 C501.4,628 499.3,626.4 497.2,624.5 C492.7,620.5 488.1,612.4 485,603 C482.3,595 481.5,594 477.9,594 C475.7,594 474.7,594.7 473.8,596.5 L472.7,598.9 L475.9,608.2 C481.1,623.1 487.4,632.1 496.9,638.2 C502.7,641.8 507,641.9 511.1,638.2 C515.7,634.1 517,627.6 517.7,605.8 L518.3,587.1 L528.9,596.4 C551.5,616.2 560.2,622.2 568.9,624.1 C580.1,626.5 589,622.1 594.8,611.3 C600.6,600.4 602.2,592.5 609.6,537.5 C617.7,478.6 616.7,464.8 604.5,459.9 C596.7,456.8 557.1,459.8 527.7,465.6 C520.6,467.1 514.7,468.1 514.5,467.9 C514.3,467.7 513.9,465 513.5,461.9 L512.8,456.2 L517.6,452.6 C522.7,448.6 526,444.5 526,441.9 C526,441 525,439 523.8,437.5 L521.7,434.8 L515.9,435.2 L510.2,435.6 L509.7,433.4 L509.3,431.2 L518.4,424.9 C531.1,416 553.7,393.9 555.2,388.9 L556.3,385.1 L554.6,382.6 C550.4,376.2 544,376.6 519.6,385.1 L501.9,391.3 L500.7,389.8 C500,388.9 498.7,387.8 497.7,387.3 L496,386.4 L504.3,378.4 C512.2,370.9 544.4,346.9 556,340 C564.5,334.9 566,333.2 566,328.9 C566,318.4 555.3,318.7 539.1,329.4 C532.1,334.1 510.9,352.2 503.5,359.9 C501.4,362.2 498.8,364 497.9,364 C494.9,364 491.4,360.2 488.4,353.8 L485.6,347.5 L485.5,339.5 C485.5,335.1 485.9,329.2 486.3,326.4 L487.1,321.4 L485.3,319.3 C482.9,316.5 480,315.8 477,317.3 Z M527.5,402.1 C521,408.6 508.2,418.6 507.4,417.7 C507.1,417.4 506.3,414.7 505.6,411.6 L504.3,406.1 L511.9,403.4 C516.1,401.9 522.2,399.6 525.5,398.4 C528.8,397.1 531.9,396.1 532.5,396 C533,396 530.8,398.7 527.5,402.1 Z M499,469 L499,471.9 L495.3,472.9 C486.1,475.1 482.5,475.9 482.3,475.6 C481.9,475.2 497.2,466.1 498.3,466.1 C498.7,466 499,467.3 499,469 Z M599,474.7 C600.7,476.3 598.8,500.1 594.6,531 C587.1,586.5 584.8,597.9 580,605.7 L578,609 L573.9,609 C571.2,609 567.8,607.9 564.1,606 C557.7,602.5 538.6,588.4 526.3,578 L518,571 L518,550.7 C518,533.8 517.3,514.1 515.8,488 L515.5,483.5 L525.5,481.3 C538.3,478.4 560.6,475.1 574,474 C583.8,473.3 597.9,473.6 599,474.7 Z M399,483.2 C399,485.6 398.6,488 398.2,488.7 C397.5,489.8 381.6,494 378.2,494 C377.3,494 379.9,491.8 384,489.1 C388.1,486.3 392.9,483 394.5,481.6 C396.2,480.2 397.8,479.1 398.3,479 C398.7,479 399,480.9 399,483.2 Z"/>
</svg>

