<svg xmlns="http://www.w3.org/2000/svg" version="1.0" width="937.000000pt" height="937.000000pt" viewBox="0 0 937.000000 937.000000" preserveAspectRatio="xMidYMid meet">
  <defs/>
  <path fill="#000000" d="M453.6,298.3 C448.3,303.6 451.7,310.1 460.6,311.5 C470.5,312.9 480.7,316.8 483.5,320.2 L486.2,323.4 L485.7,329.7 C485.2,336.7 486.6,340 490.4,340 C494.3,340 496.2,336.7 496.8,329.2 C497.6,317.9 494.4,311.8 484.5,305.5 C478.7,301.8 467.4,297.5 460.7,296.5 L456.1,295.8 L453.6,298.3 Z"/>
  <path fill="#000000" d="M495,366.4 C489.8,368.2 477.2,373.2 467.1,377.4 C456.9,381.6 442.5,387.3 435.1,390.1 C421.6,395.1 420.1,395.3 420,391.3 C420,389.8 416.8,388 414.4,388 C411.1,388 374,407.2 371.5,410.2 C367.2,415.3 368.8,421.3 375.1,424.6 L378.2,426.1 L384.8,425.1 C394.6,423.6 428.4,412.5 452,403 L457.5,400.8 L451.4,407.2 C444.5,414.5 440.5,420 436.3,428.5 C428.5,444 418.6,475.8 409.4,514.6 C405.9,529.5 402.8,542.4 402.5,543.2 C401.8,544.9 387.1,558.4 386.5,557.9 C386.4,557.7 388.8,553.9 392.1,549.5 C399.8,538.9 404,530.5 404.3,525.1 L404.4,520.8 L401.2,517.9 C396.6,513.8 388.5,513.7 371.7,517.7 C360.5,520.3 355.1,520.4 349.3,517.9 C345.1,516.2 341,517.6 339.2,521.3 L337.9,524 L339.2,526.7 C340,528.4 342.5,530.5 345.5,532 C352.5,535.5 361.2,535.3 375,531.2 C380.8,529.6 387,527.9 388.8,527.6 L392.1,527 L391.4,529.3 C389.4,535.8 375.1,554 358,571.5 C344.7,585.3 343,587.5 343,591.6 C343,598.9 350,601.1 358.9,596.6 C365.5,593.2 382.3,580.6 391,572.3 L398.3,565.5 L397.7,568 C395.9,575.8 390.3,605.6 387,625.7 C384.7,639.6 382.5,649.8 381.6,651.2 C380.5,652.8 380,655.8 380,661.2 L380,669 L382,671 C384.5,673.5 387,673.5 390.3,671 C393.7,668.3 394,667.3 401.4,630.5 C407.9,598.3 416.7,557.1 419.7,545 L421.3,538.5 L429.2,528.6 C438.6,516.9 439.6,515 438.1,512.2 C436.5,509.2 433.4,508.5 430.4,510.5 L427.8,512.2 L428.5,508.8 C431.5,494.7 452.3,428.3 456,421 C461.2,410.8 485.8,391.2 508.8,379 C517.3,374.5 519.2,370.1 514.5,365.5 C511.2,362.1 506.6,362.3 495,366.4 Z"/>
  <path fill="#000000" d="M475.3,402.4 L472.6,404.8 L472.2,415.1 C471.9,422.6 472.4,428.9 473.9,437.4 C475.1,444 475.7,449.7 475.3,450.1 C474.8,450.5 473.5,451.1 472.4,451.4 C470.7,451.9 470.1,451.6 469.6,449.6 C468.7,445.9 466.3,444 462.6,444 C458.5,444 456.4,446.2 455.4,451.5 C455,453.7 453.8,457.2 452.7,459.3 L450.7,463.1 L452,467 C453.9,472.8 451.6,499.5 447,526.2 L445.8,533 L443.7,531.5 C440.5,529.3 437.4,529.7 435.1,532.6 C431.4,537.3 432.8,547.4 438,554.7 L441.2,559.1 L437.5,576.3 C435.5,585.8 432.1,601.1 429.9,610.5 C421.7,645.2 420.8,653.9 424.6,658.1 C426.5,660.2 430.1,660.6 433.1,659 C435,657.9 441.8,645.5 443.9,639 L445,635.5 L453.7,635.5 L462.5,635.5 L467.3,633 C473.8,629.7 483.4,619.4 489.9,608.7 C492.9,603.9 495.6,600 495.9,600 C496.3,600 498.4,601.3 500.6,602.9 C502.7,604.5 513.1,611.1 523.5,617.5 C534,624 547,632.3 552.5,636 C582.8,656.3 623.1,681.6 631.3,685.6 L640.6,690.1 L643.2,689.1 C646.1,688 647.4,684.6 645.9,681.8 C645.3,680.7 642.8,679 640.2,677.9 C633,674.8 624.9,669.7 606.5,656.5 C569.4,630 545,613 535.5,607 C527.6,602 508.9,589.6 503.7,585.9 C502.7,585.2 523.7,542.8 532.6,527.5 C543.6,508.3 544.5,505.8 541.5,500.1 C538.5,494.2 532.6,494.4 522.7,500.9 C518.5,503.7 511.6,507.8 507.3,510.1 L499.5,514.4 L505.6,508.4 C508.9,505.2 513.7,499.6 516.2,496 C521.7,488.2 540.2,457.8 544.3,449.8 C549.5,439.7 547.8,432.1 539.9,430 L535.8,428.9 L513.7,436.4 C500.5,440.8 491.3,443.4 490.9,442.9 C489.3,440.2 486.8,418.6 487.4,412.5 L488.1,405.9 L485.1,403 C481.5,399.4 479,399.2 475.3,402.4 Z M526,449.4 C526,450.3 507.5,484.9 504.4,489.7 C500.6,495.7 492.3,505 490.8,505 C490.3,505 490.2,504.5 490.5,503.9 C490.9,503.4 491.5,493.4 491.8,481.8 L492.5,460.7 L508,454.9 C522.3,449.5 526,448.4 526,449.4 Z M477,481.9 C477,498 475.5,508 470.5,524 C466.4,537.6 466.2,540 469.3,543.6 C472.9,547.8 476.5,547.3 484.7,541.3 C490.5,537.1 504.9,528.2 512.7,524.1 C514.4,523.3 512,528.8 502.2,549 C495.2,563.3 489.2,575 488.8,575 C488,575 460.2,554.2 459.5,553 C459.2,552.5 460.7,541.4 462.9,528.3 C465.1,515.2 467.4,498.4 468,491 C470,467.2 469.6,468.5 475.3,468.1 L477,468 L477,481.9 Z M466.2,578.6 C471.9,582.7 477.6,586.9 479,587.9 L481.5,589.7 L479.2,594.5 C475.8,601.5 467.6,614.1 464.3,617.2 C460.7,620.6 454.4,623.3 451.5,622.6 C448.9,621.9 446,616.5 446,612.2 C446,608.1 454.6,571 455.6,571 C455.8,571 460.6,574.4 466.2,578.6 Z"/>
</svg>

