<svg xmlns="http://www.w3.org/2000/svg" version="1.0" width="937.000000pt" height="937.000000pt" viewBox="0 0 937.000000 937.000000" preserveAspectRatio="xMidYMid meet">
  <defs/>
  <path fill="#000000" d="M475.9,280.9 L473.5,282.8 L473.5,325.2 C473.4,356.8 473,372 471.7,385.5 C469.6,407.7 469.6,408.5 471.6,410.4 C475.6,414.4 480.1,411.3 481.5,403.6 C482.4,398.5 486.1,391 491.3,384.3 L495.3,378.9 L497,381.7 C500.3,387.1 508.8,393.8 532,409.2 C544.9,417.8 558.4,427.3 562,430.4 C568.7,436.2 572.6,437.4 575,434.6 C575.6,433.8 576,432.1 575.8,430.9 C575.4,427.8 561.8,416 539.5,399.1 C529.6,391.6 518,382.5 513.7,378.8 C509.3,375 504.9,372 503.7,372 L501.6,372 L506,367.4 C510.9,362.3 527.7,349 529.1,349 C529.6,349 530,349.8 530,350.8 C530,353.2 533.1,356 535.8,356 C539.1,356 541,352.3 541,346 L541,340.3 L538.7,338.2 C535.5,335.2 529.8,335.3 523.5,338.6 C515.7,342.8 502.8,352.4 493.9,360.8 L485.7,368.5 L486.4,355 C486.7,347.6 487.3,328.6 487.6,312.8 L488.3,284.2 L485.7,281.6 C482.6,278.5 479.1,278.3 475.9,280.9 Z"/>
  <path fill="#000000" d="M406.3,302.2 C403.6,303.5 403.5,303.8 400,318 C398.4,324.3 390.5,353.6 382.5,383 C373.7,415 367.6,439.2 367.3,443.1 L366.7,449.7 L368.9,451.9 C373.3,456.3 379.9,454.2 387.7,445.6 C394.4,438.3 398.2,432.3 408,413.7 C413.6,403.1 417.8,396.4 420.7,393.6 C425.3,389 438.7,379.4 439.4,380.1 C439.7,380.3 436.5,385.3 432.4,391 C421.3,406.4 419.7,409.5 419.7,414.8 L419.7,419.3 L422.8,422.1 C424.5,423.7 428.6,425.6 431.7,426.5 C441.1,429.1 452.3,433.4 452.7,434.7 C453.2,436.1 427.2,457.8 407.4,472.6 C381.6,491.7 346.7,514.1 328.3,523.3 C319,528 317.2,530 318.5,534 C320.5,540.2 330.7,536.2 370,513.7 C401.5,495.7 438.6,469.7 460.2,450.7 C465,446.5 469.5,443 470.1,443 C470.8,443 474.7,445.2 478.9,447.9 C483.1,450.5 494.6,456.8 504.5,461.7 C551.4,485 599.5,514.8 627.6,537.8 C634.3,543.3 640.7,548.3 641.9,549 L644.1,550.1 L646.6,548.5 C648.2,547.5 649,546 649,544.2 L649,541.5 L631.7,527 C622.3,519 610.7,509.5 606,505.8 C585,489.6 547.4,466.9 508,446.8 C497.8,441.6 486.9,435.6 483.7,433.6 C479.9,431.2 476.4,429.8 473.7,429.5 C467.3,429 464.3,427.9 455,422.8 C450.3,420.2 443.8,417.1 440.5,415.9 C437.2,414.7 434.1,413.3 433.7,413 C432.6,412 436.9,403.5 443,394.5 C449.9,384.3 456,371.6 456,367.6 C456,363.6 453.2,361 449,361 C446.1,361 428,370.8 417.2,378.2 C407.7,384.8 403.3,391.1 397.4,406.3 C392.8,418.4 387.9,428.2 384.1,433 L382.1,435.5 L383.1,431.5 C383.7,429.3 386.9,418.3 390.2,407 C393.5,395.7 397.5,382 399.1,376.4 C400.6,370.9 404.2,358.7 407,349.4 C413.4,328.5 417,313.6 417,308.8 C417,306 416.4,304.6 414.4,303.1 C411.5,300.8 409.6,300.6 406.3,302.2 Z"/>
  <path fill="#000000" d="M440,478.8 C435.1,480.4 433.4,486.4 436.9,489.9 C439.7,492.7 449.2,493.3 480,492.5 L507.5,491.8 L511.9,495.4 C514.2,497.4 516.5,499 516.9,499 C518.8,499 522,495.6 522,493.5 C522,490.4 517,484.7 512.3,482.5 L508.6,480.7 L478.1,479.9 C461.3,479.4 446.2,478.9 444.5,478.7 C442.9,478.4 440.8,478.5 440,478.8 Z"/>
  <path fill="#000000" d="M426,518.7 C420.5,520.7 419.9,524.4 422.6,540.1 C425.4,556.7 437,594.1 443,606 C449.5,618.8 461.3,623.4 461.5,613.3 L461.5,610.7 L465.4,609.4 C471.1,607.4 483.2,606.1 504,605.4 L522.5,604.8 L532.4,606.8 C542.9,609 545.3,608.7 546.5,605 C547.3,602.6 545.6,599.3 543.3,598.6 C536.2,596.4 519.4,593.9 508.3,593.3 C500.9,593 495.1,592.4 495.2,592 C495.4,591.6 499,588.5 503.2,585.2 C517.3,574 530.5,560.5 533,554.8 C537.3,544.8 534.1,537.1 523.5,532 C508.9,524.9 487,520.6 464.5,520.6 L448.5,520.5 L442.5,523.3 C439.2,524.8 436.2,526.6 435.9,527.2 C435.5,527.8 434.7,526.6 434.1,524.3 C433.4,521.6 432.2,520 430.5,519.2 C429.1,518.5 427.8,518 427.7,518.1 C427.6,518.1 426.8,518.4 426,518.7 Z M488,534.5 C500.4,536.5 516.2,541.4 519.6,544.4 L522.4,546.7 L521,549.9 C519.5,553.6 506.7,566.6 496.4,575 C488.1,581.6 467.1,595 464.8,595 C464,595 460.7,595.9 457.6,597 L451.9,598.9 L450.5,595.6 C448.8,591.5 442.7,570.3 439.9,558.3 C435.7,540.8 434.7,531.5 437.5,536 C438.4,537.5 442.3,537.2 446.6,535.3 C448.8,534.4 452.1,533.3 454,532.9 C458.7,531.8 476.4,532.7 488,534.5 Z"/>
</svg>

