<svg xmlns="http://www.w3.org/2000/svg" version="1.0" width="937.000000pt" height="937.000000pt" viewBox="0 0 937.000000 937.000000" preserveAspectRatio="xMidYMid meet">
  <defs/>
  <path fill="#000000" d="M516,315 C513.2,317.8 513.4,323.1 516.3,325.7 C517.5,326.8 523.2,330.1 528.9,333.1 C546.9,342.4 556.9,353.9 560.4,369.1 C563.9,384.3 563.4,401.3 559.2,406.8 L557.5,409 L557.8,404.4 C558.4,397.1 556.2,391.1 551.1,386 C546,381 534.7,375 525.4,372.4 L519.3,370.7 L518.6,359.1 C517.6,342.3 515.3,331.4 512.2,329 C509,326.4 506.9,326.5 503.5,329.2 L500.8,331.3 L501.4,338.9 C501.8,343.1 502.8,351.9 503.6,358.5 C504.5,365.1 504.9,372.3 504.5,374.5 C504.2,377.1 504.5,379.9 505.3,382.1 C506.8,385.6 507.5,392.1 508.5,409.5 C509.2,420.4 511.1,431.2 514.1,439.8 C515.2,442.9 515.7,445.7 515.3,446.1 C514.8,446.5 509.6,447.1 503.7,447.5 L492.9,448.2 L493.6,445.6 C494.6,441.6 493.3,438.2 490.2,436.6 C488.6,435.8 480.4,434 471.9,432.6 L456.5,430.1 L454.3,431.6 C453,432.4 452,433.9 452,434.9 C452,440 453.6,440.8 468.2,443.1 C472.5,443.7 475.7,444.6 475.5,445.1 C474.5,446.6 439.5,457 435.1,457 C434.4,457 434,452.8 434,445 L434,433 L436,435 C440.9,439.9 443.9,436.8 460.7,409.1 C470.3,393.4 476,381.1 476,376.1 C476,371.4 470,367.3 465.5,369 C462,370.3 460.7,372.8 452.9,393.6 C447.6,407.5 444.2,414.8 440.1,421 L434.6,429.5 L434.2,427 C434,425.6 434,414.3 434.2,401.9 L434.6,379.4 L437.8,372.8 C441.4,365.5 441.7,362.5 439.4,359.2 C438.3,357.6 436.9,357 434,357 L430.2,357 L427.4,360.2 C420.1,368.9 418.9,375.7 418.1,412.1 L417.5,442.7 L412.4,440.3 C405.7,437.2 399.4,431.8 395.8,426.1 L393,421.6 L393,413.9 L393,406.1 L390.3,404 C387.4,401.8 383.7,401.9 381.2,404.4 C380.5,405.1 379.4,408.9 378.8,412.7 C377.1,423.6 378.6,427.8 387.4,436.5 C395.1,444 410.3,453 415.4,453 L418.1,453 L417.8,457.2 L417.5,461.5 L395.5,466.2 C341.4,477.8 301.2,488 299.3,490.6 C296.4,494.6 298.2,500.2 303.1,501.9 C307,503.2 314.4,502.2 331.5,497.9 C342.3,495.1 394.7,483 395.6,483 C396.7,483 395.7,485 393.5,487.4 C392.1,488.9 390,490 388.5,490 C381.5,490 372.9,497.9 364.6,512 C357.9,523.3 330.9,581.6 330.3,586.1 L329.8,589.7 L332.1,591.4 C337.9,595.4 341.8,592.4 356,573.6 C368,557.5 379.8,540.1 391.6,521.1 C396.5,513.2 401,506.6 401.6,506.3 C402.7,505.9 416.9,513.7 418.3,515.5 C419.4,516.8 418.4,580.4 417,598 C414.9,625.5 413.9,635.6 413.1,638.5 L412.3,641.5 L410.6,634.5 C409.7,630.6 408.1,622.4 407.1,616.1 C405.7,607.7 404.7,604.3 403.4,603.3 C400.9,601.4 398.6,601.7 396.5,604 L394.6,606.1 L396.4,617.6 C398.9,634.4 403.4,651.6 406.4,655.5 C409.6,659.7 413.2,660.6 417.3,658.3 C421.5,655.8 424.7,649 426.5,638.4 C429.8,618.7 434,561.4 434,535.3 L434,523 L457.3,534.8 C470,541.3 484.3,548.2 489,550 C493.7,551.8 498.3,554.2 499.3,555.2 C502.6,558.6 509,557 509,552.8 L509,551 L518,551 L526.9,551 L527.6,554.6 C528.4,559.1 527.9,559.4 518.1,560.9 C492.2,565 484.7,569.5 490.9,577.1 L492.8,579.5 L510.2,579.8 L527.5,580 L527.3,587.8 C527.1,596.3 525.2,610 524,612 L523.2,613.3 L505.4,611.6 C482.3,609.3 463.7,609.3 460.4,611.5 C456.1,614.3 456.1,620.7 460.3,623.4 C461.7,624.3 468.4,625.2 478,625.9 C486.5,626.6 495.9,627.3 498.8,627.7 L504.1,628.2 L505,630.6 C505.5,631.9 507.1,633.2 508.6,633.6 C512.4,634.6 522.5,633.3 526.2,631.4 L529.4,629.8 L539.4,630.5 C545,630.9 570.7,631.2 596.5,631.1 L643.5,631 L645.3,628.9 C647.5,626.2 647.5,624.5 645.2,622.2 L643.3,620.3 L618.9,619.7 C595,619.2 539.1,615.3 537.9,614.1 C537.5,613.8 538,609.5 539,604.7 C540,599.8 541.2,591.8 541.6,586.9 L542.3,578 L544.4,577.6 C545.5,577.4 551.4,576.5 557.3,575.7 C565.7,574.5 569.7,573.4 574.7,570.9 C582.4,567 584.5,564.4 583.1,560.7 C581.6,556.7 578.8,556.5 571.8,560.1 C567.3,562.4 563.7,563.4 559,563.7 L552.5,564.1 L557.5,561.5 C564.4,557.9 568,553.8 568,549.5 C568,547.7 567.6,545.8 567,545.5 C565.1,544.3 566,543.4 571.3,541.2 C577.2,538.7 581.3,535.3 583.6,530.8 C585.5,527.1 585.7,517.7 584,512.3 C579.8,499.5 564.9,488.2 541.9,480.6 C529.4,476.4 515.7,473.8 507.3,474.1 C502.5,474.3 500.6,473.9 499.1,472.6 C496.3,470 491.2,470.9 488.6,474.3 L486.5,477.2 L486.6,495.1 C486.7,505.7 487.2,514.1 487.9,515.8 C489.3,519.3 492.9,539 492.1,539 C491,538.9 479.8,532.5 471,526.9 C466.3,523.9 456.1,518.1 448.3,514 L434,506.5 L434,489.8 L434,473.1 L438.3,471.9 C440.6,471.3 445.4,470.8 449,470.9 C452.6,471 460.4,470.4 466.3,469.6 C479.8,467.7 517.9,464.4 542,463 C552.2,462.4 569.1,461.3 579.5,460.5 C590,459.7 606.3,458.6 615.9,458 C635,456.9 637,456.2 637,450.9 C637,448.9 636.2,447.5 634.3,446.3 L631.6,444.5 L591.4,444.5 L551.1,444.5 L556,439.7 C558.7,437 561.1,433.7 561.5,431.9 C562.7,426.5 558,422 550.9,422 C547.2,422 547.2,421 550.9,418.2 L553.9,416 L554.5,418 C555.2,420.2 558.8,421.5 561.7,420.6 C564.3,419.7 571.1,408.7 572.7,402.7 C574.6,395.4 574.9,368.1 573.1,361 C568.6,342.6 555.8,328.9 532.3,317.1 C523.1,312.5 519,312 516,315 Z M531.2,389.1 C541.3,393.1 547,398.4 547,403.8 C547,407.4 542.7,411.3 534.6,415.1 C530.1,417.2 525.9,419 525.1,419.2 C523.4,419.6 520.2,402.7 520.1,392.7 L520,385.8 L523.3,386.5 C525,386.9 528.6,388.1 531.2,389.1 Z M537.7,434 C540.5,434 543.1,434.4 543.4,434.9 C544,435.8 531.1,443 528.8,443 C527.9,443 526.9,441.1 526.2,437.9 C524.6,431 524.5,431.1 528.8,432.6 C530.8,433.3 534.8,433.9 537.7,434 Z M418,489.5 L418,498 L413.5,495.8 C411,494.6 409,493.2 409,492.7 C409,491.2 416.5,481 417.7,481 C417.9,481 418,484.8 418,489.5 Z M513,489.9 C518.2,490.6 524.4,491.6 526.7,492.1 L530.8,493.2 L529.1,498.3 L527.3,503.5 L514.3,503.5 L501.2,503.5 L500.6,499.1 C500.3,496.7 500,493 500,490.8 L500,486.9 L501.8,487.9 C502.7,488.4 507.8,489.3 513,489.9 Z M554.3,502.2 C561.8,506.1 572,514.5 572,516.9 C572,517.4 569.7,516.5 566.8,515 C563.9,513.4 557.2,510.9 551.8,509.4 L542,506.7 L542.6,503.1 C543.8,496.7 543.7,496.7 554.3,502.2 Z M375.4,517.9 C371.7,524 368.5,528.8 368.3,528.6 C367.7,528.1 371.9,520.5 377.3,512.3 C384,502.2 382.7,505.9 375.4,517.9 Z M525.3,519 C525.6,519.3 526.1,522.9 526.4,527.1 L527.1,534.7 L516.4,535.3 C510.4,535.6 505.3,535.7 505.1,535.4 C504.3,534.7 503.1,519.7 503.7,518.6 C504.3,517.8 524.5,518.1 525.3,519 Z M552.5,524.1 C557.1,525.3 561.7,526.8 562.7,527.5 L564.5,528.9 L561.5,530 C558.1,531.3 543.3,533.6 542.7,532.9 C542.5,532.7 542,530.1 541.7,527.2 L541.1,522 L542.6,522 C543.4,522 547.9,523 552.5,524.1 Z M549.5,553.1 C544.2,555.5 542,555.5 542,553 L542,551 L547.8,551.1 L553.5,551.2 L549.5,553.1 Z"/>
</svg>

