<svg xmlns="http://www.w3.org/2000/svg" version="1.0" width="937.000000pt" height="937.000000pt" viewBox="0 0 937.000000 937.000000" preserveAspectRatio="xMidYMid meet">
  <defs/>
  <path fill="#000000" d="M451.5,365.6 C388.1,385 322.6,403 315.8,403 C313.6,403 313,402.5 313,401 C313,397.9 308.6,394 305.1,394 C301.3,394 296.1,398.4 293,404.4 L290.6,408.8 L291.6,412.6 C292.2,415.2 293.6,417.1 295.9,418.7 L299.3,421 L307,421 C319.5,421 330.3,418.6 372.5,406.4 C383,403.4 392.1,400.7 392.8,400.4 C393.8,400.1 394,400.8 393.5,403 C393.1,404.7 393.3,409.1 393.9,412.8 C394.4,416.5 395.2,435.5 395.5,455 L396.1,490.5 L386.5,496 C373,503.6 370.4,507.5 375,513.3 C377.1,516 378.6,516.4 389.1,517.5 L394.8,518.1 L395.2,524.1 C395.7,530.9 397.4,533.3 401.9,533.3 C406.1,533.3 408.4,530.9 411,524 C412.2,520.8 413.9,517.9 414.7,517.6 C415.5,517.3 418.9,517 422.3,517 L428.5,517.1 L425.6,519.3 C414,528.2 397.7,538.9 388,543.9 C377,549.5 345.4,562.6 332.4,566.8 C324.5,569.4 320.4,571.5 319.6,573.5 C318.4,576.8 319.1,580.1 321.5,582.5 L323.9,585 L329.7,585 C352.4,584.9 397.7,567.1 433,544.2 L448.5,534.1 L448.7,537.8 C448.8,539.8 449.4,563.8 450,591 L451.1,640.5 L452.6,642.7 C454.5,645.8 459.3,645.8 461.4,642.8 C462.6,641.2 463,638.1 463,631.9 C463,627.2 463.3,617.2 463.6,609.8 L464.3,596.3 L467,597.3 L469.7,598.3 L474.1,595.8 C486.3,588.6 499.7,569.4 515.5,536.7 C519.9,527.6 523.9,520.1 524.4,520 C524.9,520 526.9,521.5 528.9,523.3 C530.9,525.1 544.7,535.9 559.5,547.4 C574.4,558.9 597.3,576.7 610.5,587 C639.5,609.6 645.5,613.9 659,621.8 C672,629.6 677,629.9 677,623 C677,619.9 676.2,619.1 666,611.8 C661.9,608.9 648.4,598.1 636,587.9 C623.6,577.7 606.3,563.8 597.5,556.9 C573.6,538.3 549.7,519.3 541.1,512.2 C536.7,508.6 532.6,506 531.3,506 C530,506 529,505.8 529,505.6 C529,505.3 531,499.4 532.5,495.2 C532.8,494.3 533.5,494.5 535,496 C536.1,497.1 537.7,498 538.6,498 C539.5,498 544.2,495.9 549.1,493.4 C568.2,483.5 591,457.2 606.3,427.3 C613.9,412.4 617.2,402.3 617.4,393.3 L617.5,386.1 L615.3,383.8 C610,378.5 601,382.8 601,390.7 C601,400.3 586.6,432.3 573.1,452.7 C563.1,467.8 551.1,480.2 542.2,484.9 C538.7,486.7 535.7,488 535.4,487.7 C535.2,487.5 536.3,481.7 537.9,474.9 C544.1,448.6 545.2,441.3 545.7,422.5 C546.2,402.1 545.1,389.9 542.4,386.9 C539.8,384 534.3,384.7 531.7,388.1 L529.8,390.8 L528.9,413.6 C528.1,438.3 526.4,449.5 519.5,477 C508.8,519.8 482.8,573.1 466.9,584.9 L464.2,586.9 L464.7,554.2 L465.3,521.5 L466.8,519.2 L468.2,517 L466.6,514.5 L465,512.1 L465,483.2 L465,454.2 L466.4,453.1 C467.2,452.5 468.3,450.6 469,448.9 L470.3,445.9 L473.2,451.2 C477.7,459.4 501.9,482.7 509.7,486.3 C514,488.3 519,482.3 516.2,478.5 C515.8,477.9 513,475.4 509.9,472.8 C502.7,466.8 492.7,454.1 487,443.7 C482.2,435 479.7,433.1 474.6,434.4 C472.7,434.9 471.4,436.2 470.4,438.7 L468.9,442.3 L466.9,440.3 L464.9,438.4 L463.9,416.4 C463.3,404.4 462.3,391.2 461.6,387.2 L460.3,379.9 L461.9,379.1 C462.8,378.6 466.6,377.2 470.5,376 C477.8,373.6 483,369.5 483,366.2 C483,362.7 479.2,359 475.7,359.1 C473.9,359.1 463.1,362.1 451.5,365.6 Z M446.5,395.7 C446.5,402.2 446.7,414.7 447,423.5 L447.5,439.5 L440,441.2 C431.5,443 420,443.5 420,442 C420,440.1 416,437 413.7,437 L411.3,437 L410.6,425.4 C410.2,418.1 409.3,411.8 408,408.2 L406,402.5 L409.1,399.9 C414.1,395.6 421.7,391.9 433.9,387.9 C440.3,385.8 445.7,384 446,384 C446.3,384 446.5,389.3 446.5,395.7 Z M445.4,456.1 C440,462.2 414.1,482 411.6,482 C411.3,482 411,476.6 411,470 L411,458 L419.8,457.9 C424.6,457.9 432.1,457 436.5,456.1 C447.6,453.6 447.7,453.6 445.4,456.1 Z M448.9,490.6 L449,501.8 L446.3,502.4 C444.7,502.7 438,503.3 431.3,503.6 L419,504.3 L416.9,501.7 C415.7,500.1 413.9,499 412.4,499 C408.5,499 409.6,496.4 414.8,493.5 C421.8,489.4 434.7,480.4 441.5,474.7 L447.5,469.7 L448.2,474.6 C448.5,477.3 448.9,484.5 448.9,490.6 Z M449,518.9 C449,520.2 446.1,522.6 439.3,526.8 C429.1,533 421,537.4 421,536.6 C421,535.9 447.1,517 448.1,517 C448.6,517 449,517.9 449,518.9 Z"/>
</svg>

