<svg xmlns="http://www.w3.org/2000/svg" version="1.0" width="937.000000pt" height="937.000000pt" viewBox="0 0 937.000000 937.000000" preserveAspectRatio="xMidYMid meet">
  <defs/>
  <path fill="#000000" d="M459.5,335.1 C432.1,337.7 386.4,349.2 350,362.5 C341.4,365.6 337.5,366.6 334.5,366.3 L330.4,365.8 L326.3,369.2 C319.4,374.7 318,381 322.5,385.5 C326.1,389.2 331.1,388.8 343.8,383.9 C372,373.1 398.5,364.7 425.5,358 C441.3,354 454.4,351.1 454.7,351.3 C455.8,352.5 445.3,357.3 430.4,362.3 C412.2,368.5 408.7,370.1 405.3,373.8 C400.7,378.8 399.7,382.6 399.7,394.9 L399.8,406.4 L397.4,408.3 C394.2,410.8 394.2,415.9 397.3,418.8 C398.6,420 400.4,421 401.3,421 C402.4,421 403.1,422.3 403.5,425.7 C403.9,428.4 405,436.1 406.1,443 C407.1,449.8 407.8,455.5 407.7,455.5 C407.6,455.6 404.5,457.1 400.8,458.9 C391.9,463.1 390.3,467.9 396.2,472.3 L399,474.4 L404.2,472.7 C407.1,471.8 409.8,471.4 410.1,471.8 C410.5,472.2 411.1,475 411.5,478.1 L412.2,483.7 L401.3,490.9 C389.3,499 370.7,508.4 358.5,512.6 C354.1,514.1 349.5,516.2 348.3,517.3 C345.4,519.9 345.2,525.2 348,528 C351.3,531.3 357.2,530.5 376.2,524.4 C392.9,519 422.9,507.9 426,506 C426.8,505.5 430.7,503.2 434.5,500.9 C438.4,498.6 443.4,495.4 445.8,493.7 C448.2,492.1 450.3,491 450.6,491.2 C450.8,491.4 451.3,499.3 451.6,508.7 L452.3,525.8 L448.4,526.9 C438.5,529.5 426.9,531 417.3,531 L406.9,531 L404.5,533.5 C401.5,536.5 401.3,539.9 404.1,543.4 L406.1,546 L418.5,546 C425.3,546 434.3,545.3 438.5,544.5 L446.2,543 L448.8,545 C452.7,548.1 458.3,547.7 461.3,544 C462.7,542.4 464,540.6 464.2,540 C464.4,539.4 466.3,538.7 468.4,538.3 L472.3,537.7 L471.7,539.2 C471.4,540.1 470.8,546.7 470.4,554 L469.7,567.2 L463.6,571.7 C455,578.2 452.1,579.2 428.5,584.5 C401,590.6 399.8,591 398.1,594.1 L396.6,596.7 L397.9,599.8 C399.8,604.3 403.1,605.3 412,604 C421.7,602.6 448.7,596.6 459.8,593.3 C464.6,591.9 469.3,590.5 470.3,590.2 L472.2,589.7 L471.8,607.1 C471.5,619.9 470.9,625.9 469.6,629.7 L467.9,635 L411.4,635 C377,635 350.1,634.6 342.9,633.9 L331,632.7 L329.4,634.1 C327,636.1 326.2,639.1 327.2,642.1 C328.4,645.5 339.5,650.8 348.2,652.1 C351.7,652.6 374.2,653 398.3,653 L442,653 L442,655.4 C442,660.7 449.7,662.5 459.8,659.5 C462.6,658.6 466.3,656.8 468,655.4 L471.1,652.8 L507.3,653.3 C543,653.9 557.6,654.9 581,658.6 C586.8,659.6 595.7,660.4 600.8,660.4 L610.1,660.5 L611.6,658.6 C613.4,656 613.4,651.6 611.5,650 C609.9,648.6 568.2,640.9 550,638.5 C535.6,636.7 509.1,635 493.9,635 L482.2,635 L484.7,627.2 L487.3,619.5 L487.8,602 L488.2,584.4 L497.9,581.1 C516.2,574.9 521.7,572.1 528,566.1 C531.3,563 534,559.9 534,559.2 C534,557.8 529.6,553 528.2,553 C527.8,553 525.1,554.7 522.3,556.8 L517.2,560.6 L502,564.9 C493.7,567.2 486.6,568.9 486.3,568.6 C486,568.3 489.7,563.5 494.4,557.8 C504.8,545.4 508,539.5 508,532.8 C508,520.6 499.2,517.5 476,521.5 C470.9,522.4 466.6,523 466.5,522.8 C466.4,522.6 466,512.7 465.8,500.8 L465.4,479.1 L471.2,474 C477.2,468.7 478.6,465 475.8,462.2 C474.1,460.5 469.5,460.7 468,462.5 C467.3,463.3 466.3,464 465.7,464 C464.5,464 465.6,379.5 467,365.6 C467.7,358.8 468.3,356.4 469.7,355.7 C470.6,355.1 473.3,352.9 475.7,350.7 L480.1,346.7 L479.8,342.7 C479.3,335.6 473.9,333.6 459.5,335.1 Z M449.3,370.2 C448.4,373.8 448.6,456.7 449.5,469.5 L450.1,477.5 L441.9,481.9 L433.7,486.3 L434.4,481.9 C434.9,478.7 436.2,476.4 438.9,473.5 C447,465.1 449.3,456.2 444.5,451.5 C443.2,450.1 441.6,449 441.1,449 C440.5,449 440.7,447.5 441.6,445.5 C443.7,440.5 443.4,431.7 441,427 C438.1,421.3 433.6,417.4 424.5,412.7 L416.5,408.5 L415.8,403.5 C415.5,400.7 415.1,395 415.1,390.7 L415,382.8 L417.8,380.1 C419.7,378.2 424.4,376 433,373.1 C439.9,370.8 446.2,368.5 447,368 C449.6,366.3 450.2,366.9 449.3,370.2 Z M428.6,433.2 C430.9,437.6 430.3,440.7 426.4,445 C424.4,447.2 422.4,449 422,449 C421.4,449 419,431.9 419,427.4 L419,425.9 L423.1,428.2 C425.4,429.4 427.8,431.7 428.6,433.2 Z M431.2,465.7 C430.1,467.3 428,469.6 426.6,470.9 L424.1,473.3 L423.5,470.7 C422.1,465.4 424.1,463.4 430.8,463.1 L433.1,463 L431.2,465.7 Z M493.6,536.5 C493.2,537.9 491.5,541.4 489.7,544.3 L486.5,549.5 L486,543.9 C485.7,540.8 484.9,537.6 484.2,536.7 L482.9,535.1 L485.7,534.7 C487.2,534.5 489.8,534.2 491.4,534.1 L494.2,534 L493.6,536.5 Z"/>
  <path fill="#000000" d="M500.5,383.6 C491,384.7 484,386.4 482.6,387.8 C478.6,392 475,397.5 475,399.5 C475,400.7 476.6,405.2 478.4,409.6 C480.5,414.4 482.7,422 483.9,428.6 C486.5,443.4 489.7,455.5 492.1,460.2 C493.6,463.1 493.8,464.5 493,465.9 C491.2,469.4 491.8,474.7 494.4,477.7 L496.8,480.5 L501.7,480.4 C504.7,480.3 509,479.1 513,477.2 C524.9,471.8 548.9,454.8 561.8,442.7 C567.1,437.6 568.5,433.9 565.8,431.2 C563.4,428.8 559.9,430.1 551.3,436.5 C543.1,442.5 523,454.4 522.2,453.6 C522.1,453.4 524.4,449.4 527.5,444.7 C539.4,426.4 543.5,413.4 541,401.7 C538.8,390.8 531.5,385.5 517.1,383.9 C508.5,383 506.2,383 500.5,383.6 Z M526.6,401.4 C527.5,402.7 528,405.9 528,410.1 L528,416.8 L525.1,422.3 C519.2,433.6 504.3,453.7 502.9,452.3 C502.4,451.8 501.6,445.2 501,437.5 C499.8,421.7 498.6,414.7 495.9,407.5 C494.9,404.7 494,402 494,401.3 C494,399.6 497.8,399.2 512.3,399.4 L525.2,399.5 L526.6,401.4 Z"/>
</svg>

