<svg xmlns="http://www.w3.org/2000/svg" width="300" height="300" viewBox="0 0 300 300">
<path d="M 146.69 98.62 L 146.95 99.58 C 147.27 100.77 148.50 101.48 149.69 101.16 C 150.89 100.83 151.59 99.61 151.27 98.41 L 151.01 97.45 C 150.69 96.26 149.46 95.55 148.27 95.88 C 147.08 96.20 146.37 97.43 146.69 98.62 Z M 146.90 99.56 L 147.14 100.52 C 147.45 101.75 148.70 102.49 149.92 102.18 C 151.14 101.87 151.88 100.62 151.57 99.40 L 151.32 98.43 C 151.01 97.21 149.77 96.47 148.55 96.78 C 147.33 97.09 146.59 98.34 146.90 99.56 Z M 147.08 100.47 L 147.30 101.45 C 147.58 102.70 148.82 103.49 150.08 103.22 C 151.33 102.94 152.13 101.69 151.85 100.44 L 151.63 99.46 C 151.35 98.20 150.11 97.41 148.85 97.69 C 147.60 97.97 146.80 99.21 147.08 100.47 Z M 147.25 101.36 L 147.41 102.26 C 147.64 103.54 148.86 104.39 150.15 104.17 C 151.43 103.94 152.29 102.71 152.06 101.43 L 151.90 100.53 C 151.67 99.24 150.44 98.39 149.16 98.62 C 147.88 98.85 147.02 100.07 147.25 101.36 Z M 147.39 102.16 L 147.50 102.98 C 147.68 104.27 148.87 105.18 150.16 105.01 C 151.45 104.83 152.36 103.65 152.19 102.35 L 152.07 101.53 C 151.90 100.23 150.71 99.33 149.42 99.50 C 148.13 99.67 147.22 100.86 147.39 102.16 Z M 147.51 102.90 L 147.60 103.81 C 147.73 105.10 148.87 106.05 150.16 105.92 C 151.45 105.79 152.40 104.64 152.27 103.35 L 152.18 102.44 C 152.05 101.15 150.90 100.20 149.61 100.33 C 148.32 100.46 147.38 101.61 147.51 102.90 Z M 147.61 103.75 L 147.69 104.81 C 147.78 106.10 148.89 107.06 150.18 106.97 C 151.46 106.88 152.43 105.76 152.34 104.48 L 152.26 103.42 C 152.17 102.13 151.05 101.17 149.77 101.26 C 148.48 101.35 147.52 102.47 147.61 103.75 Z M 147.70 104.77 L 147.77 106.03 C 147.84 107.31 148.93 108.28 150.21 108.21 C 151.49 108.14 152.46 107.05 152.39 105.77 L 152.32 104.52 C 152.25 103.24 151.16 102.26 149.88 102.33 C 148.61 102.40 147.63 103.50 147.70 104.77 Z M 147.78 106.01 L 147.82 106.96 C 147.88 108.23 148.96 109.22 150.23 109.16 C 151.51 109.10 152.49 108.02 152.43 106.75 L 152.38 105.79 C 152.32 104.52 151.24 103.54 149.97 103.60 C 148.70 103.66 147.72 104.74 147.78 106.01 Z M 147.83 106.95 L 147.87 107.96 C 147.93 109.23 149.00 110.21 150.27 110.16 C 151.53 110.10 152.52 109.03 152.46 107.76 L 152.42 106.76 C 152.37 105.49 151.30 104.50 150.03 104.56 C 148.76 104.61 147.77 105.68 147.83 106.95 Z M 147.88 107.95 L 147.92 109.00 C 147.97 110.26 149.04 111.25 150.30 111.20 C 151.56 111.15 152.55 110.08 152.50 108.82 L 152.46 107.77 C 152.41 106.51 151.34 105.52 150.08 105.57 C 148.81 105.62 147.83 106.69 147.88 107.95 Z M 147.93 108.99 L 147.97 110.05 C 148.01 111.31 149.07 112.30 150.33 112.25 C 151.59 112.21 152.58 111.15 152.53 109.89 L 152.49 108.83 C 152.45 107.57 151.39 106.58 150.13 106.63 C 148.87 106.67 147.88 107.73 147.93 108.99 Z M 147.97 110.05 L 148.01 111.09 C 148.05 112.35 149.10 113.33 150.36 113.29 C 151.62 113.25 152.60 112.19 152.56 110.94 L 152.52 109.89 C 152.48 108.64 151.43 107.65 150.17 107.70 C 148.91 107.74 147.93 108.79 147.97 110.05 Z M 148.01 111.08 L 148.05 112.08 C 148.08 113.33 149.13 114.31 150.38 114.28 C 151.64 114.24 152.62 113.19 152.58 111.94 L 152.55 110.94 C 152.51 109.69 151.47 108.71 150.21 108.74 C 148.96 108.78 147.98 109.83 148.01 111.08 Z M 148.05 112.07 L 148.08 112.98 C 148.11 114.23 149.15 115.22 150.40 115.18 C 151.65 115.15 152.64 114.11 152.60 112.86 L 152.58 111.94 C 152.54 110.70 151.50 109.71 150.25 109.74 C 149.00 109.78 148.02 110.82 148.05 112.07 Z M 148.10 112.97 L 148.12 114.25 C 148.15 115.49 149.18 116.47 150.42 116.44 C 151.66 116.42 152.64 115.39 152.61 114.15 L 152.58 112.87 C 152.55 111.63 151.53 110.65 150.29 110.68 C 149.05 110.70 148.07 111.73 148.10 112.97 Z M 148.16 114.23 L 148.17 115.30 C 148.19 116.52 149.20 117.49 150.42 117.48 C 151.64 117.46 152.61 116.45 152.60 115.23 L 152.58 114.17 C 152.56 112.95 151.56 111.97 150.33 111.99 C 149.11 112.01 148.14 113.01 148.16 114.23 Z M 148.20 115.28 L 148.21 116.17 C 148.22 117.38 149.20 118.35 150.41 118.34 C 151.61 118.33 152.58 117.35 152.57 116.14 L 152.56 115.25 C 152.56 114.04 151.57 113.07 150.37 113.08 C 149.16 113.09 148.19 114.08 148.20 115.28 Z M 148.24 116.16 L 148.24 116.96 C 148.24 118.15 149.21 119.11 150.39 119.11 C 151.58 119.10 152.54 118.14 152.54 116.95 L 152.54 116.15 C 152.54 114.97 151.57 114.01 150.39 114.01 C 149.20 114.01 148.24 114.97 148.24 116.16 Z M 148.27 116.96 L 148.27 117.91 C 148.27 119.08 149.22 120.03 150.39 120.03 C 151.56 120.03 152.51 119.08 152.51 117.91 L 152.51 116.96 C 152.51 115.79 151.56 114.84 150.39 114.84 C 149.22 114.84 148.27 115.79 148.27 116.96 Z M 148.29 117.91 L 148.29 118.90 C 148.29 120.06 149.23 121.00 150.39 121.00 C 151.55 121.00 152.49 120.06 152.49 118.90 L 152.49 117.91 C 152.49 116.75 151.55 115.81 150.39 115.81 C 149.23 115.81 148.29 116.75 148.29 117.91 Z M 148.31 118.90 L 148.31 119.91 C 148.31 121.05 149.24 121.99 150.39 121.99 C 151.54 121.99 152.47 121.05 152.47 119.91 L 152.47 118.90 C 152.47 117.75 151.54 116.82 150.39 116.82 C 149.24 116.82 148.31 117.75 148.31 118.90 Z M 148.33 119.91 L 148.33 120.91 C 148.33 122.05 149.25 122.97 150.39 122.97 C 151.53 122.97 152.45 122.05 152.45 120.91 L 152.45 119.91 C 152.45 118.77 151.53 117.85 150.39 117.85 C 149.25 117.85 148.33 118.77 148.33 119.91 Z M 148.35 120.91 L 148.35 121.92 C 148.35 123.05 149.27 123.96 150.39 123.96 C 151.52 123.96 152.43 123.05 152.43 121.92 L 152.43 120.91 C 152.43 119.79 151.52 118.87 150.39 118.87 C 149.27 118.87 148.35 119.79 148.35 120.91 Z M 148.37 121.92 L 148.37 122.92 C 148.37 124.04 149.28 124.94 150.39 124.94 C 151.51 124.94 152.41 124.04 152.41 122.92 L 152.41 121.92 C 152.41 120.81 151.51 119.90 150.39 119.90 C 149.28 119.90 148.37 120.81 148.37 121.92 Z M 148.39 122.92 L 148.39 123.89 C 148.39 124.99 149.29 125.89 150.39 125.89 C 151.49 125.89 152.39 124.99 152.39 123.89 L 152.39 122.92 C 152.39 121.82 151.49 120.92 150.39 120.92 C 149.29 120.92 148.39 121.82 148.39 122.92 Z M 148.41 123.89 L 148.41 124.79 C 148.41 125.88 149.30 126.77 150.39 126.77 C 151.48 126.77 152.37 125.88 152.37 124.79 L 152.37 123.89 C 152.37 122.80 151.48 121.91 150.39 121.91 C 149.30 121.91 148.41 122.80 148.41 123.89 Z M 148.44 124.79 L 148.44 125.75 C 148.44 126.83 149.31 127.71 150.39 127.71 C 151.47 127.71 152.35 126.83 152.35 125.75 L 152.35 124.79 C 152.35 123.71 151.47 122.84 150.39 122.84 C 149.31 122.84 148.44 123.71 148.44 124.79 Z M 148.46 125.75 L 148.46 126.84 C 148.46 127.91 149.32 128.77 150.39 128.77 C 151.46 128.77 152.33 127.91 152.33 126.84 L 152.33 125.75 C 152.33 124.68 151.46 123.82 150.39 123.82 C 149.32 123.82 148.46 124.68 148.46 125.75 Z M 148.48 126.84 L 148.48 127.86 C 148.48 128.91 149.34 129.77 150.39 129.77 C 151.45 129.77 152.30 128.91 152.30 127.86 L 152.30 126.84 C 152.30 125.78 151.45 124.93 150.39 124.93 C 149.34 124.93 148.48 125.78 148.48 126.84 Z M 148.51 127.86 L 148.51 128.84 C 148.51 129.88 149.35 130.72 150.39 130.72 C 151.43 130.72 152.28 129.88 152.28 128.84 L 152.28 127.86 C 152.28 126.82 151.43 125.97 150.39 125.97 C 149.35 125.97 148.51 126.82 148.51 127.86 Z M 148.53 128.84 L 148.53 129.87 C 148.53 130.89 149.36 131.73 150.39 131.73 C 151.42 131.73 152.25 130.89 152.25 129.87 L 152.25 128.84 C 152.25 127.81 151.42 126.98 150.39 126.98 C 149.36 126.98 148.53 127.81 148.53 128.84 Z M 148.56 129.87 L 148.56 130.91 C 148.56 131.92 149.38 132.74 150.39 132.74 C 151.40 132.74 152.22 131.92 152.22 130.91 L 152.22 129.87 C 152.22 128.86 151.40 128.04 150.39 128.04 C 149.38 128.04 148.56 128.86 148.56 129.87 Z M 148.59 130.91 L 148.59 131.92 C 148.59 132.92 149.39 133.73 150.39 133.73 C 151.39 133.73 152.20 132.92 152.20 131.92 L 152.20 130.91 C 152.20 129.91 151.39 129.10 150.39 129.10 C 149.39 129.10 148.59 129.91 148.59 130.91 Z M 148.61 131.92 L 148.61 132.98 C 148.61 133.96 149.41 134.76 150.39 134.76 C 151.37 134.76 152.17 133.97 152.17 132.98 L 152.17 131.92 C 152.17 130.94 151.37 130.14 150.39 130.14 C 149.41 130.14 148.61 130.94 148.61 131.92 Z M 148.64 132.97 L 148.63 134.02 C 148.63 134.99 149.41 135.78 150.38 135.79 C 151.35 135.79 152.14 135.01 152.14 134.04 L 152.15 132.99 C 152.15 132.02 151.37 131.23 150.40 131.23 C 149.43 131.22 148.64 132.00 148.64 132.97 Z M 148.65 134.00 L 148.63 134.98 C 148.62 135.93 149.38 136.72 150.34 136.74 C 151.29 136.76 152.08 136.00 152.10 135.04 L 152.12 134.06 C 152.14 133.10 151.38 132.31 150.42 132.30 C 149.46 132.28 148.67 133.04 148.65 134.00 Z M 148.66 134.94 L 148.62 135.88 C 148.58 136.82 149.31 137.62 150.26 137.66 C 151.20 137.70 152.00 136.97 152.04 136.02 L 152.08 135.08 C 152.12 134.14 151.38 133.34 150.44 133.30 C 149.50 133.26 148.70 133.99 148.66 134.94 Z M 148.65 135.82 L 148.56 136.95 C 148.48 137.88 149.18 138.69 150.11 138.76 C 151.04 138.83 151.85 138.14 151.92 137.21 L 152.01 136.08 C 152.08 135.15 151.39 134.34 150.46 134.27 C 149.53 134.20 148.72 134.89 148.65 135.82 Z M 148.59 136.87 L 148.43 138.16 C 148.31 139.07 148.96 139.90 149.87 140.02 C 150.78 140.13 151.62 139.49 151.73 138.57 L 151.89 137.29 C 152.01 136.37 151.36 135.54 150.45 135.43 C 149.54 135.31 148.70 135.96 148.59 136.87 Z M 148.48 138.01 L 148.32 138.72 C 148.12 139.61 148.68 140.49 149.56 140.68 C 150.45 140.88 151.32 140.32 151.52 139.44 L 151.68 138.72 C 151.88 137.84 151.32 136.96 150.44 136.77 C 149.55 136.57 148.67 137.13 148.48 138.01 Z M 151.41 138.44 L 151.31 138.21 C 150.96 137.39 150.00 137.01 149.18 137.36 C 148.35 137.71 147.97 138.67 148.33 139.49 L 148.43 139.72 C 148.78 140.55 149.74 140.93 150.56 140.57 C 151.38 140.22 151.76 139.26 151.41 138.44 Z M 151.44 138.79 L 151.40 137.78 C 151.36 136.88 150.61 136.19 149.72 136.22 C 148.83 136.25 148.13 137.00 148.17 137.90 L 148.20 138.91 C 148.24 139.80 148.99 140.50 149.88 140.47 C 150.77 140.43 151.47 139.68 151.44 138.79 Z M 151.40 137.83 L 151.39 136.49 C 151.39 135.60 150.66 134.88 149.77 134.88 C 148.88 134.89 148.16 135.61 148.16 136.50 L 148.17 137.84 C 148.17 138.74 148.90 139.45 149.79 139.45 C 150.68 139.45 151.40 138.72 151.40 137.83 Z M 151.39 136.50 L 151.40 135.41 C 151.40 134.52 150.68 133.79 149.78 133.79 C 148.89 133.79 148.16 134.51 148.16 135.40 L 148.16 136.49 C 148.16 137.39 148.88 138.11 149.77 138.11 C 150.67 138.12 151.39 137.39 151.39 136.50 Z M 151.41 135.44 L 151.43 134.44 C 151.44 133.54 150.73 132.80 149.83 132.78 C 148.92 132.76 148.18 133.48 148.16 134.38 L 148.15 135.38 C 148.13 136.28 148.85 137.02 149.75 137.04 C 150.65 137.05 151.39 136.34 151.41 135.44 Z M 151.44 134.50 L 151.49 133.54 C 151.54 132.64 150.84 131.86 149.93 131.81 C 149.03 131.76 148.25 132.46 148.20 133.37 L 148.15 134.32 C 148.11 135.23 148.80 136.01 149.71 136.05 C 150.62 136.10 151.39 135.41 151.44 134.50 Z M 151.52 133.63 L 151.62 132.69 C 151.72 131.77 151.05 130.94 150.13 130.84 C 149.20 130.74 148.37 131.41 148.27 132.33 L 148.17 133.28 C 148.07 134.20 148.74 135.03 149.67 135.13 C 150.59 135.23 151.42 134.56 151.52 133.63 Z M 151.68 132.87 L 151.87 131.93 C 152.07 130.97 151.45 130.04 150.50 129.84 C 149.54 129.65 148.61 130.26 148.41 131.22 L 148.22 132.16 C 148.02 133.11 148.64 134.05 149.59 134.24 C 150.55 134.44 151.48 133.82 151.68 132.87 Z M 151.89 132.22 L 152.24 131.28 C 152.59 130.31 152.10 129.24 151.14 128.88 C 150.18 128.53 149.10 129.02 148.75 129.98 L 148.40 130.92 C 148.04 131.89 148.53 132.96 149.49 133.32 C 150.46 133.68 151.53 133.18 151.89 132.22 Z M 152.16 131.63 L 152.69 130.76 C 153.24 129.84 152.94 128.64 152.02 128.08 C 151.10 127.53 149.90 127.83 149.34 128.75 L 148.82 129.62 C 148.26 130.55 148.56 131.75 149.49 132.30 C 150.41 132.86 151.61 132.56 152.16 131.63 Z M 152.56 131.05 L 153.11 130.38 C 153.83 129.53 153.71 128.26 152.86 127.55 C 152.01 126.84 150.74 126.95 150.03 127.80 L 149.47 128.46 C 148.76 129.32 148.87 130.59 149.72 131.30 C 150.58 132.01 151.85 131.90 152.56 131.05 Z M 153.00 130.57 L 153.68 129.91 C 154.49 129.12 154.51 127.82 153.73 127.01 C 152.94 126.19 151.64 126.17 150.82 126.96 L 150.14 127.62 C 149.33 128.41 149.31 129.70 150.10 130.52 C 150.88 131.33 152.18 131.35 153.00 130.57 Z M 153.58 130.05 L 154.38 129.39 C 155.27 128.66 155.40 127.34 154.66 126.45 C 153.93 125.56 152.61 125.43 151.72 126.16 L 150.92 126.82 C 150.03 127.55 149.90 128.87 150.64 129.76 C 151.37 130.65 152.69 130.78 153.58 130.05 Z M 154.30 129.50 L 155.20 128.85 C 156.15 128.16 156.37 126.83 155.67 125.88 C 154.98 124.92 153.65 124.71 152.70 125.40 L 151.80 126.05 C 150.85 126.74 150.63 128.08 151.32 129.03 C 152.01 129.98 153.35 130.19 154.30 129.50 Z M 155.14 128.93 L 156.03 128.34 C 157.03 127.69 157.30 126.35 156.65 125.35 C 155.99 124.35 154.65 124.08 153.66 124.73 L 152.76 125.32 C 151.77 125.98 151.49 127.32 152.15 128.31 C 152.80 129.31 154.14 129.58 155.14 128.93 Z M 155.98 128.38 L 156.83 127.86 C 157.85 127.23 158.17 125.90 157.55 124.88 C 156.92 123.86 155.59 123.54 154.57 124.16 L 153.71 124.69 C 152.69 125.31 152.37 126.65 153.00 127.67 C 153.62 128.69 154.96 129.01 155.98 128.38 Z M 156.78 127.88 L 157.67 127.37 C 158.71 126.77 159.06 125.45 158.46 124.42 C 157.86 123.38 156.54 123.03 155.51 123.63 L 154.62 124.14 C 153.59 124.74 153.23 126.06 153.83 127.09 C 154.43 128.13 155.75 128.48 156.78 127.88 Z M 157.63 127.39 L 158.53 126.90 C 159.57 126.33 159.96 125.01 159.38 123.97 C 158.81 122.92 157.50 122.54 156.45 123.11 L 155.55 123.61 C 154.50 124.18 154.12 125.49 154.70 126.54 C 155.27 127.58 156.58 127.97 157.63 127.39 Z M 158.49 126.92 L 159.38 126.45 C 160.44 125.90 160.84 124.60 160.29 123.54 C 159.74 122.49 158.44 122.08 157.38 122.63 L 156.49 123.09 C 155.44 123.64 155.03 124.95 155.58 126.00 C 156.13 127.06 157.43 127.47 158.49 126.92 Z M 159.34 126.47 L 160.21 126.04 C 161.27 125.51 161.71 124.22 161.18 123.15 C 160.65 122.09 159.36 121.65 158.29 122.18 L 157.42 122.61 C 156.36 123.14 155.92 124.43 156.45 125.50 C 156.98 126.56 158.27 127.00 159.34 126.47 Z M 160.15 126.04 L 161.13 125.58 C 162.20 125.08 162.66 123.81 162.16 122.75 C 161.66 121.68 160.39 121.22 159.33 121.72 L 158.34 122.18 C 157.28 122.68 156.82 123.95 157.32 125.01 C 157.82 126.08 159.09 126.54 160.15 126.04 Z M 161.07 125.55 L 162.04 125.12 C 163.09 124.66 163.57 123.43 163.11 122.38 C 162.65 121.33 161.42 120.86 160.37 121.32 L 159.39 121.75 C 158.34 122.21 157.87 123.44 158.33 124.49 C 158.79 125.54 160.01 126.01 161.07 125.55 Z M 161.98 125.08 L 162.90 124.70 C 163.92 124.27 164.41 123.09 163.98 122.07 C 163.56 121.04 162.38 120.55 161.35 120.98 L 160.43 121.36 C 159.40 121.79 158.92 122.97 159.34 123.99 C 159.77 125.02 160.95 125.51 161.98 125.08 Z M 162.85 124.66 L 163.71 124.31 C 164.72 123.91 165.20 122.77 164.80 121.77 C 164.40 120.77 163.26 120.28 162.26 120.68 L 161.40 121.02 C 160.39 121.43 159.91 122.56 160.31 123.57 C 160.71 124.57 161.85 125.06 162.85 124.66 Z M 163.68 124.26 L 164.53 123.92 C 165.51 123.54 165.98 122.43 165.60 121.46 C 165.22 120.49 164.11 120.01 163.14 120.40 L 162.29 120.73 C 161.32 121.12 160.84 122.22 161.22 123.19 C 161.61 124.16 162.71 124.64 163.68 124.26 Z M 164.52 123.87 L 165.48 123.48 C 166.42 123.11 166.88 122.04 166.50 121.09 C 166.12 120.15 165.05 119.69 164.11 120.07 L 163.16 120.45 C 162.21 120.83 161.75 121.90 162.13 122.84 C 162.51 123.78 163.58 124.24 164.52 123.87 Z M 165.46 123.43 L 166.39 123.06 C 167.30 122.69 167.75 121.65 167.38 120.73 C 167.01 119.82 165.96 119.38 165.05 119.75 L 164.12 120.12 C 163.21 120.49 162.77 121.53 163.14 122.45 C 163.51 123.36 164.55 123.80 165.46 123.43 Z M 166.37 123.01 L 167.28 122.64 C 168.17 122.28 168.59 121.26 168.23 120.38 C 167.87 119.49 166.86 119.06 165.97 119.43 L 165.06 119.80 C 164.18 120.16 163.75 121.17 164.11 122.06 C 164.48 122.94 165.49 123.37 166.37 123.01 Z M 167.27 122.60 L 167.81 122.38 C 168.68 122.02 169.09 121.03 168.74 120.17 C 168.38 119.30 167.40 118.89 166.53 119.24 L 165.99 119.47 C 165.12 119.82 164.71 120.81 165.06 121.67 C 165.41 122.54 166.40 122.95 167.27 122.60 Z"
      fill="black"
      fill-rule="nonzero" /><path d="M 129.18 118.66 L 129.18 119.69 C 129.18 120.95 130.20 121.97 131.46 121.97 C 132.71 121.97 133.73 120.95 133.73 119.69 L 133.73 118.66 C 133.73 117.40 132.71 116.38 131.46 116.38 C 130.20 116.38 129.18 117.40 129.18 118.66 Z M 129.20 119.69 L 129.20 120.71 C 129.20 121.96 130.21 122.97 131.46 122.97 C 132.70 122.97 133.71 121.96 133.71 120.71 L 133.71 119.69 C 133.71 118.45 132.70 117.44 131.46 117.44 C 130.21 117.44 129.20 118.45 129.20 119.69 Z M 129.23 120.71 L 129.23 121.71 C 129.23 122.94 130.23 123.94 131.46 123.94 C 132.69 123.94 133.69 122.94 133.69 121.71 L 133.69 120.71 C 133.69 119.48 132.69 118.48 131.46 118.48 C 130.23 118.48 129.23 119.48 129.23 120.71 Z M 129.25 121.71 L 129.25 122.67 C 129.25 123.89 130.24 124.87 131.46 124.87 C 132.68 124.87 133.66 123.89 133.66 122.67 L 133.66 121.71 C 133.66 120.49 132.68 119.50 131.46 119.50 C 130.24 119.50 129.25 120.49 129.25 121.71 Z M 129.28 122.67 L 129.28 123.60 C 129.28 124.80 130.26 125.77 131.46 125.77 C 132.66 125.77 133.63 124.80 133.63 123.60 L 133.63 122.67 C 133.63 121.47 132.66 120.49 131.46 120.49 C 130.26 120.49 129.28 121.47 129.28 122.67 Z M 129.33 123.60 L 129.33 124.53 C 129.33 125.70 130.28 126.66 131.46 126.66 C 132.63 126.66 133.58 125.70 133.58 124.53 L 133.58 123.60 C 133.58 122.42 132.63 121.47 131.46 121.47 C 130.28 121.47 129.33 122.42 129.33 123.60 Z M 129.38 124.53 L 129.38 125.51 C 129.38 126.66 130.31 127.59 131.46 127.59 C 132.60 127.59 133.54 126.66 133.54 125.51 L 133.54 124.53 C 133.54 123.38 132.60 122.45 131.46 122.45 C 130.31 122.45 129.38 123.38 129.38 124.53 Z M 129.43 125.51 L 129.43 126.61 C 129.43 127.74 130.34 128.64 131.46 128.64 C 132.58 128.64 133.49 127.74 133.49 126.61 L 133.49 125.51 C 133.49 124.39 132.58 123.49 131.46 123.49 C 130.34 123.49 129.43 124.39 129.43 125.51 Z M 129.46 126.61 L 129.46 127.59 C 129.46 128.69 130.36 129.58 131.46 129.58 C 132.56 129.58 133.45 128.69 133.45 127.59 L 133.45 126.62 C 133.45 125.51 132.56 124.62 131.46 124.62 C 130.36 124.62 129.47 125.51 129.46 126.61 Z M 129.49 127.59 L 129.49 128.57 C 129.48 129.66 130.36 130.54 131.45 130.54 C 132.54 130.54 133.42 129.66 133.42 128.57 L 133.43 127.59 C 133.43 126.50 132.55 125.62 131.46 125.62 C 130.37 125.62 129.49 126.50 129.49 127.59 Z M 129.51 128.56 L 129.50 129.59 C 129.50 130.66 130.36 131.54 131.44 131.55 C 132.52 131.55 133.40 130.68 133.40 129.61 L 133.40 128.58 C 133.41 127.50 132.54 126.63 131.46 126.62 C 130.39 126.62 129.51 127.49 129.51 128.56 Z M 129.52 129.58 L 129.51 130.62 C 129.50 131.69 130.36 132.56 131.42 132.57 C 132.49 132.58 133.36 131.72 133.37 130.66 L 133.38 129.62 C 133.39 128.55 132.53 127.68 131.47 127.67 C 130.40 127.66 129.53 128.51 129.52 129.58 Z M 129.53 130.61 L 129.52 131.63 C 129.50 132.69 130.34 133.56 131.39 133.57 C 132.45 133.59 133.32 132.75 133.33 131.70 L 133.35 130.67 C 133.37 129.61 132.53 128.75 131.47 128.73 C 130.42 128.71 129.55 129.55 129.53 130.61 Z M 129.54 131.62 L 129.51 132.64 C 129.48 133.68 130.31 134.55 131.35 134.58 C 132.39 134.60 133.26 133.78 133.29 132.74 L 133.31 131.71 C 133.34 130.67 132.52 129.80 131.47 129.78 C 130.43 129.75 129.56 130.57 129.54 131.62 Z M 129.54 132.61 L 129.49 133.72 C 129.45 134.74 130.25 135.61 131.28 135.65 C 132.31 135.69 133.17 134.89 133.22 133.86 L 133.26 132.76 C 133.30 131.73 132.50 130.87 131.47 130.83 C 130.45 130.79 129.58 131.59 129.54 132.61 Z M 129.53 133.68 L 129.47 134.70 C 129.41 135.71 130.18 136.58 131.19 136.64 C 132.20 136.70 133.06 135.93 133.12 134.92 L 133.18 133.90 C 133.24 132.89 132.47 132.02 131.46 131.96 C 130.45 131.90 129.59 132.67 129.53 133.68 Z M 129.50 134.67 L 129.42 135.62 C 129.34 136.62 130.08 137.49 131.07 137.57 C 132.06 137.65 132.93 136.91 133.01 135.92 L 133.09 134.96 C 133.17 133.97 132.43 133.10 131.44 133.02 C 130.45 132.94 129.58 133.67 129.50 134.67 Z M 129.46 135.58 L 129.36 136.50 C 129.25 137.47 129.96 138.34 130.93 138.44 C 131.90 138.55 132.77 137.85 132.88 136.87 L 132.98 135.96 C 133.08 134.99 132.38 134.12 131.40 134.01 C 130.43 133.91 129.56 134.61 129.46 135.58 Z M 129.39 136.45 L 129.26 137.43 C 129.13 138.38 129.80 139.26 130.75 139.39 C 131.70 139.52 132.58 138.85 132.71 137.90 L 132.84 136.92 C 132.97 135.97 132.31 135.09 131.35 134.96 C 130.40 134.83 129.52 135.50 129.39 136.45 Z M 129.28 137.38 L 129.12 138.40 C 128.96 139.34 129.60 140.22 130.54 140.38 C 131.47 140.53 132.36 139.90 132.52 138.96 L 132.68 137.94 C 132.84 137.01 132.20 136.12 131.26 135.97 C 130.33 135.81 129.44 136.45 129.28 137.38 Z M 129.14 138.36 L 128.96 139.34 C 128.78 140.27 129.39 141.16 130.31 141.33 C 131.24 141.51 132.13 140.90 132.31 139.98 L 132.49 139.00 C 132.67 138.07 132.06 137.18 131.13 137.00 C 130.21 136.83 129.32 137.44 129.14 138.36 Z M 128.98 139.32 L 128.79 140.26 C 128.60 141.17 129.18 142.06 130.09 142.25 C 131.01 142.44 131.90 141.85 132.09 140.94 L 132.28 140.00 C 132.47 139.09 131.89 138.20 130.97 138.01 C 130.06 137.82 129.17 138.40 128.98 139.32 Z M 128.81 140.24 L 128.59 141.22 C 128.39 142.12 128.96 143.01 129.86 143.21 C 130.76 143.41 131.65 142.84 131.85 141.94 L 132.07 140.96 C 132.27 140.06 131.70 139.17 130.80 138.97 C 129.90 138.77 129.01 139.34 128.81 140.24 Z M 128.61 141.17 L 128.37 142.14 C 128.14 143.03 128.68 143.93 129.57 144.16 C 130.45 144.38 131.35 143.85 131.58 142.96 L 131.83 141.99 C 132.05 141.10 131.51 140.20 130.63 139.97 C 129.74 139.75 128.84 140.29 128.61 141.17 Z M 128.40 142.05 L 128.11 142.99 C 127.83 143.86 128.31 144.78 129.18 145.06 C 130.04 145.33 130.97 144.85 131.24 143.99 L 131.54 143.05 C 131.82 142.18 131.34 141.26 130.47 140.98 C 129.60 140.71 128.68 141.19 128.40 142.05 Z M 128.16 142.87 L 127.79 143.78 C 127.44 144.61 127.84 145.57 128.68 145.91 C 129.51 146.26 130.47 145.86 130.81 145.03 L 131.19 144.11 C 131.53 143.28 131.13 142.32 130.30 141.98 C 129.46 141.63 128.51 142.03 128.16 142.87 Z M 127.86 143.64 L 127.39 144.53 C 126.97 145.32 127.28 146.31 128.07 146.73 C 128.87 147.15 129.85 146.84 130.27 146.05 L 130.74 145.16 C 131.16 144.37 130.85 143.38 130.06 142.96 C 129.26 142.54 128.28 142.85 127.86 143.64 Z M 127.47 144.40 L 126.92 145.25 C 126.43 146.00 126.65 147.00 127.40 147.49 C 128.15 147.98 129.15 147.77 129.64 147.02 L 130.19 146.17 C 130.68 145.42 130.47 144.42 129.72 143.93 C 128.97 143.44 127.96 143.65 127.47 144.40 Z M 127.01 145.13 L 126.39 145.91 C 125.84 146.62 125.96 147.63 126.66 148.19 C 127.36 148.74 128.38 148.62 128.93 147.92 L 129.55 147.13 C 130.11 146.43 129.99 145.41 129.28 144.86 C 128.58 144.31 127.56 144.43 127.01 145.13 Z M 126.50 145.80 L 125.80 146.53 C 125.18 147.17 125.21 148.20 125.85 148.81 C 126.49 149.43 127.52 149.41 128.13 148.76 L 128.83 148.03 C 129.45 147.39 129.42 146.37 128.78 145.75 C 128.14 145.13 127.11 145.16 126.50 145.80 Z M 125.90 146.44 L 125.15 147.10 C 124.48 147.69 124.42 148.71 125.01 149.38 C 125.60 150.05 126.62 150.11 127.29 149.52 L 128.04 148.85 C 128.70 148.26 128.76 147.24 128.17 146.57 C 127.58 145.91 126.56 145.85 125.90 146.44 Z M 125.21 147.05 L 124.44 147.67 C 123.74 148.22 123.63 149.24 124.18 149.93 C 124.74 150.63 125.75 150.74 126.45 150.19 L 127.22 149.57 C 127.92 149.01 128.03 148.00 127.48 147.30 C 126.92 146.61 125.91 146.49 125.21 147.05 Z M 124.46 147.65 L 124.01 148.00 C 123.30 148.54 123.17 149.55 123.71 150.26 C 124.25 150.96 125.27 151.09 125.97 150.55 L 126.42 150.21 C 127.13 149.66 127.26 148.65 126.72 147.95 C 126.18 147.24 125.17 147.11 124.46 147.65 Z"
      fill="black"
      fill-rule="nonzero" /><path d="M 117.63 147.65 L 116.65 148.48 C 115.67 149.32 115.56 150.79 116.39 151.77 C 117.23 152.75 118.70 152.87 119.68 152.03 L 120.66 151.20 C 121.64 150.37 121.75 148.89 120.92 147.91 C 120.08 146.93 118.61 146.82 117.63 147.65 Z M 116.29 148.64 L 115.69 149.33 C 114.79 150.37 114.91 151.94 115.95 152.83 C 116.98 153.73 118.55 153.61 119.44 152.58 L 120.05 151.88 C 120.94 150.84 120.83 149.28 119.79 148.38 C 118.75 147.48 117.19 147.60 116.29 148.64 Z M 115.02 151.47 L 115.11 151.88 C 115.39 153.28 116.76 154.19 118.17 153.90 C 119.57 153.62 120.48 152.25 120.19 150.84 L 120.11 150.44 C 119.82 149.03 118.45 148.13 117.05 148.41 C 115.64 148.70 114.74 150.07 115.02 151.47 Z M 117.10 153.94 L 117.78 154.09 C 119.21 154.39 120.61 153.48 120.91 152.05 C 121.21 150.63 120.30 149.23 118.87 148.92 L 118.20 148.78 C 116.77 148.48 115.37 149.39 115.07 150.81 C 114.77 152.24 115.68 153.64 117.10 153.94 Z M 118.41 154.15 L 119.59 154.11 C 121.05 154.06 122.20 152.84 122.15 151.38 C 122.10 149.92 120.88 148.77 119.42 148.82 L 118.24 148.86 C 116.78 148.91 115.63 150.13 115.68 151.59 C 115.73 153.05 116.95 154.20 118.41 154.15 Z M 119.81 154.10 L 121.10 153.95 C 122.55 153.78 123.59 152.46 123.42 151.01 C 123.25 149.55 121.94 148.51 120.48 148.68 L 119.20 148.83 C 117.74 149.00 116.70 150.32 116.87 151.77 C 117.04 153.23 118.36 154.27 119.81 154.10 Z M 121.19 153.94 L 122.02 153.82 C 123.47 153.60 124.47 152.24 124.25 150.79 C 124.03 149.34 122.68 148.35 121.23 148.56 L 120.39 148.69 C 118.94 148.91 117.95 150.26 118.16 151.71 C 118.38 153.16 119.74 154.16 121.19 153.94 Z M 122.06 153.81 L 122.97 153.66 C 124.42 153.42 125.39 152.05 125.15 150.60 C 124.91 149.15 123.54 148.18 122.09 148.42 L 121.19 148.57 C 119.74 148.81 118.76 150.18 119.01 151.63 C 119.25 153.07 120.62 154.05 122.06 153.81 Z M 123.00 153.65 L 123.97 153.48 C 125.41 153.22 126.37 151.84 126.11 150.40 C 125.85 148.95 124.47 147.99 123.03 148.25 L 122.06 148.42 C 120.62 148.68 119.66 150.06 119.92 151.51 C 120.18 152.95 121.56 153.91 123.00 153.65 Z M 123.99 153.47 L 125.01 153.28 C 126.45 153.01 127.40 151.62 127.13 150.18 C 126.86 148.74 125.47 147.79 124.03 148.06 L 123.01 148.25 C 121.57 148.53 120.62 149.91 120.89 151.36 C 121.16 152.80 122.55 153.75 123.99 153.47 Z M 125.03 153.28 L 126.09 153.07 C 127.53 152.79 128.48 151.40 128.20 149.96 C 127.92 148.52 126.52 147.58 125.08 147.86 L 124.01 148.07 C 122.57 148.34 121.63 149.74 121.91 151.18 C 122.19 152.62 123.59 153.56 125.03 153.28 Z M 126.10 153.07 L 127.21 152.85 C 128.65 152.57 129.59 151.17 129.30 149.73 C 129.02 148.29 127.62 147.36 126.18 147.64 L 125.07 147.86 C 123.63 148.14 122.70 149.54 122.98 150.98 C 123.27 152.42 124.67 153.36 126.10 153.07 Z M 127.22 152.85 L 128.30 152.63 C 129.74 152.35 130.67 150.95 130.38 149.51 C 130.09 148.07 128.69 147.14 127.26 147.43 L 126.17 147.64 C 124.74 147.93 123.80 149.33 124.09 150.77 C 124.38 152.21 125.78 153.14 127.22 152.85 Z M 128.30 152.63 L 129.35 152.42 C 130.79 152.13 131.72 150.73 131.43 149.30 C 131.14 147.86 129.74 146.93 128.31 147.22 L 127.25 147.43 C 125.82 147.72 124.89 149.12 125.18 150.55 C 125.46 151.99 126.86 152.92 128.30 152.63 Z M 129.35 152.42 L 130.41 152.20 C 131.84 151.92 132.77 150.52 132.48 149.08 C 132.19 147.65 130.79 146.72 129.36 147.01 L 128.31 147.22 C 126.87 147.51 125.94 148.91 126.23 150.34 C 126.52 151.78 127.92 152.71 129.35 152.42 Z M 130.41 152.20 L 131.44 151.99 C 132.87 151.70 133.80 150.31 133.51 148.87 C 133.22 147.44 131.83 146.51 130.39 146.80 L 129.36 147.01 C 127.93 147.30 127.00 148.70 127.29 150.13 C 127.58 151.56 128.97 152.49 130.41 152.20 Z M 131.44 151.99 L 132.44 151.79 C 133.87 151.50 134.80 150.10 134.51 148.67 C 134.22 147.24 132.83 146.31 131.40 146.60 L 130.39 146.81 C 128.96 147.09 128.04 148.49 128.32 149.92 C 128.61 151.35 130.01 152.28 131.44 151.99 Z M 132.44 151.79 L 133.40 151.59 C 134.83 151.30 135.75 149.91 135.46 148.48 C 135.17 147.05 133.78 146.12 132.35 146.41 L 131.40 146.61 C 129.97 146.89 129.04 148.29 129.33 149.72 C 129.62 151.15 131.01 152.07 132.44 151.79 Z M 133.39 151.59 L 134.28 151.41 C 135.71 151.12 136.64 149.73 136.35 148.30 C 136.06 146.87 134.67 145.95 133.24 146.24 L 132.35 146.42 C 130.92 146.70 130.00 148.09 130.29 149.52 C 130.57 150.95 131.96 151.88 133.39 151.59 Z M 134.28 151.41 L 135.18 151.23 C 136.60 150.94 137.53 149.55 137.24 148.13 C 136.96 146.70 135.57 145.77 134.14 146.06 L 133.25 146.24 C 131.82 146.53 130.89 147.91 131.18 149.34 C 131.46 150.77 132.85 151.69 134.28 151.41 Z M 135.17 151.22 L 136.37 150.98 C 137.79 150.70 138.72 149.32 138.44 147.90 C 138.15 146.48 136.77 145.55 135.35 145.83 L 134.15 146.07 C 132.73 146.35 131.80 147.73 132.09 149.15 C 132.37 150.58 133.75 151.50 135.17 151.22 Z M 136.36 150.96 L 137.36 150.77 C 138.77 150.49 139.69 149.13 139.42 147.72 C 139.15 146.30 137.78 145.38 136.37 145.66 L 135.37 145.85 C 133.96 146.12 133.03 147.49 133.31 148.90 C 133.58 150.31 134.95 151.24 136.36 150.96 Z M 137.34 150.75 L 138.21 150.59 C 139.62 150.32 140.54 148.97 140.27 147.57 C 140.01 146.16 138.65 145.24 137.25 145.51 L 136.38 145.67 C 134.98 145.94 134.06 147.29 134.32 148.69 C 134.59 150.10 135.94 151.02 137.34 150.75 Z M 138.20 150.57 L 139.01 150.42 C 140.40 150.16 141.32 148.83 141.07 147.43 C 140.81 146.04 139.47 145.12 138.08 145.37 L 137.27 145.52 C 135.87 145.78 134.95 147.12 135.21 148.51 C 135.47 149.91 136.80 150.83 138.20 150.57 Z M 139.00 150.41 L 139.94 150.24 C 141.33 149.99 142.25 148.66 142.00 147.27 C 141.75 145.89 140.42 144.97 139.04 145.22 L 138.09 145.39 C 136.70 145.64 135.78 146.97 136.03 148.35 C 136.28 149.74 137.61 150.66 139.00 150.41 Z M 139.95 150.22 L 140.93 150.04 C 142.31 149.79 143.22 148.47 142.97 147.09 C 142.71 145.71 141.39 144.80 140.01 145.05 L 139.03 145.23 C 137.65 145.48 136.74 146.81 136.99 148.18 C 137.25 149.56 138.57 150.48 139.95 150.22 Z M 140.95 150.03 L 141.94 149.84 C 143.31 149.57 144.21 148.25 143.94 146.88 C 143.68 145.51 142.35 144.61 140.98 144.87 L 139.99 145.07 C 138.62 145.33 137.72 146.66 137.99 148.03 C 138.25 149.40 139.58 150.29 140.95 150.03 Z M 141.98 149.82 L 142.97 149.61 C 144.33 149.32 145.20 147.99 144.91 146.63 C 144.63 145.27 143.30 144.40 141.94 144.69 L 140.95 144.89 C 139.59 145.18 138.72 146.51 139.00 147.87 C 139.29 149.23 140.62 150.10 141.98 149.82 Z M 143.00 149.59 L 143.97 149.37 C 145.32 149.07 146.16 147.73 145.86 146.38 C 145.55 145.03 144.21 144.18 142.86 144.49 L 141.90 144.71 C 140.55 145.01 139.70 146.35 140.01 147.70 C 140.31 149.05 141.66 149.89 143.00 149.59 Z M 143.98 149.36 L 144.96 149.13 C 146.30 148.82 147.13 147.47 146.82 146.13 C 146.50 144.79 145.16 143.96 143.82 144.28 L 142.85 144.50 C 141.51 144.82 140.68 146.16 140.99 147.50 C 141.30 148.84 142.64 149.67 143.98 149.36 Z M 144.95 149.12 L 145.94 148.89 C 147.27 148.58 148.10 147.24 147.79 145.91 C 147.48 144.58 146.15 143.75 144.81 144.06 L 143.83 144.29 C 142.49 144.60 141.66 145.93 141.97 147.26 C 142.28 148.60 143.62 149.43 144.95 149.12 Z M 145.91 148.88 L 146.88 148.67 C 148.21 148.37 149.05 147.05 148.75 145.72 C 148.45 144.39 147.13 143.55 145.80 143.85 L 144.84 144.06 C 143.51 144.36 142.67 145.68 142.97 147.01 C 143.26 148.34 144.58 149.18 145.91 148.88 Z M 146.85 148.66 L 147.81 148.46 C 149.13 148.17 149.98 146.87 149.70 145.54 C 149.41 144.21 148.11 143.37 146.78 143.65 L 145.83 143.85 C 144.50 144.14 143.65 145.44 143.94 146.77 C 144.22 148.10 145.53 148.94 146.85 148.66 Z M 147.79 148.45 L 148.77 148.25 C 150.09 147.97 150.94 146.68 150.66 145.36 C 150.39 144.03 149.10 143.18 147.78 143.46 L 146.80 143.66 C 145.48 143.93 144.63 145.23 144.90 146.55 C 145.17 147.87 146.47 148.72 147.79 148.45 Z M 148.76 148.24 L 149.76 148.03 C 151.08 147.76 151.93 146.48 151.66 145.16 C 151.39 143.85 150.11 143.00 148.79 143.26 L 147.79 143.47 C 146.47 143.74 145.62 145.02 145.89 146.34 C 146.15 147.65 147.44 148.50 148.76 148.24 Z M 149.76 148.02 L 150.75 147.82 C 152.06 147.55 152.90 146.27 152.64 144.96 C 152.37 143.65 151.09 142.81 149.78 143.07 L 148.79 143.28 C 147.48 143.54 146.64 144.82 146.90 146.13 C 147.17 147.44 148.45 148.29 149.76 148.02 Z M 150.75 147.81 L 151.72 147.60 C 153.03 147.34 153.87 146.06 153.60 144.76 C 153.33 143.46 152.06 142.62 150.75 142.89 L 149.78 143.09 C 148.47 143.35 147.64 144.63 147.90 145.93 C 148.17 147.23 149.45 148.07 150.75 147.81 Z M 151.73 147.59 L 152.72 147.39 C 154.01 147.12 154.84 145.85 154.57 144.55 C 154.30 143.25 153.03 142.42 151.74 142.69 L 150.75 142.90 C 149.45 143.17 148.62 144.44 148.89 145.73 C 149.16 147.03 150.43 147.86 151.73 147.59 Z M 152.72 147.37 L 153.71 147.16 C 155.00 146.89 155.82 145.62 155.55 144.34 C 155.27 143.05 154.01 142.22 152.72 142.50 L 151.73 142.71 C 150.44 142.98 149.62 144.25 149.89 145.53 C 150.17 146.82 151.43 147.65 152.72 147.37 Z M 153.72 147.15 L 154.70 146.94 C 155.98 146.66 156.79 145.40 156.51 144.12 C 156.24 142.83 154.97 142.02 153.69 142.30 L 152.71 142.51 C 151.43 142.79 150.62 144.05 150.89 145.33 C 151.17 146.61 152.44 147.43 153.72 147.15 Z M 154.71 146.92 L 155.70 146.70 C 156.97 146.42 157.77 145.16 157.49 143.89 C 157.21 142.61 155.95 141.81 154.67 142.09 L 153.68 142.31 C 152.41 142.59 151.61 143.86 151.89 145.13 C 152.17 146.40 153.43 147.20 154.71 146.92 Z M 155.70 146.69 L 156.68 146.47 C 157.94 146.18 158.73 144.93 158.45 143.66 C 158.16 142.40 156.91 141.60 155.64 141.89 L 154.67 142.11 C 153.40 142.39 152.61 143.65 152.90 144.91 C 153.18 146.18 154.44 146.97 155.70 146.69 Z M 156.68 146.45 L 157.64 146.24 C 158.90 145.95 159.69 144.70 159.40 143.44 C 159.12 142.19 157.87 141.40 156.61 141.68 L 155.64 141.90 C 154.39 142.19 153.60 143.44 153.88 144.70 C 154.17 145.95 155.42 146.74 156.68 146.45 Z M 157.64 146.22 L 158.61 146.00 C 159.86 145.72 160.64 144.48 160.36 143.23 C 160.07 141.98 158.83 141.19 157.58 141.48 L 156.61 141.70 C 155.36 141.98 154.58 143.22 154.86 144.47 C 155.15 145.72 156.39 146.51 157.64 146.22 Z M 158.60 145.99 L 159.57 145.77 C 160.81 145.49 161.59 144.26 161.31 143.02 C 161.03 141.77 159.80 140.99 158.55 141.27 L 157.59 141.49 C 156.34 141.77 155.56 143.00 155.84 144.25 C 156.12 145.49 157.36 146.27 158.60 145.99 Z M 159.56 145.76 L 160.53 145.54 C 161.77 145.27 162.55 144.05 162.27 142.81 C 162.00 141.58 160.78 140.80 159.54 141.07 L 158.57 141.29 C 157.33 141.56 156.55 142.78 156.82 144.02 C 157.10 145.25 158.32 146.03 159.56 145.76 Z M 160.52 145.53 L 161.50 145.32 C 162.73 145.05 163.51 143.84 163.24 142.61 C 162.97 141.39 161.76 140.61 160.54 140.87 L 159.56 141.08 C 158.33 141.35 157.55 142.56 157.81 143.79 C 158.08 145.01 159.29 145.79 160.52 145.53 Z M 161.48 145.30 L 162.46 145.10 C 163.68 144.84 164.47 143.65 164.21 142.42 C 163.95 141.20 162.76 140.42 161.54 140.68 L 160.55 140.88 C 159.33 141.14 158.55 142.34 158.81 143.56 C 159.06 144.78 160.26 145.56 161.48 145.30 Z M 162.44 145.08 L 163.42 144.89 C 164.64 144.64 165.42 143.46 165.18 142.25 C 164.93 141.03 163.75 140.25 162.54 140.49 L 161.56 140.69 C 160.34 140.94 159.56 142.12 159.80 143.33 C 160.05 144.54 161.23 145.33 162.44 145.08 Z M 163.41 144.87 L 164.39 144.68 C 165.59 144.44 166.38 143.27 166.14 142.07 C 165.91 140.86 164.74 140.08 163.53 140.32 L 162.55 140.51 C 161.35 140.74 160.56 141.91 160.80 143.12 C 161.03 144.32 162.20 145.11 163.41 144.87 Z M 164.38 144.66 L 165.36 144.47 C 166.56 144.24 167.34 143.08 167.11 141.89 C 166.88 140.69 165.72 139.91 164.52 140.14 L 163.54 140.33 C 162.35 140.57 161.56 141.72 161.80 142.92 C 162.03 144.11 163.19 144.90 164.38 144.66 Z M 165.37 144.45 L 166.35 144.26 C 167.53 144.03 168.30 142.88 168.07 141.69 C 167.84 140.50 166.69 139.73 165.50 139.97 L 164.52 140.16 C 163.33 140.39 162.56 141.54 162.80 142.73 C 163.03 143.92 164.18 144.69 165.37 144.45 Z M 166.36 144.24 L 167.34 144.04 C 168.52 143.80 169.28 142.65 169.04 141.48 C 168.80 140.31 167.65 139.55 166.48 139.79 L 165.49 139.99 C 164.32 140.23 163.56 141.37 163.80 142.55 C 164.04 143.72 165.18 144.48 166.36 144.24 Z M 167.35 144.02 L 168.34 143.81 C 169.50 143.57 170.25 142.43 170.00 141.26 C 169.76 140.10 168.62 139.36 167.46 139.60 L 166.47 139.81 C 165.31 140.05 164.56 141.19 164.81 142.35 C 165.05 143.52 166.19 144.26 167.35 144.02 Z M 168.34 143.79 L 169.32 143.58 C 170.47 143.34 171.21 142.21 170.97 141.06 C 170.73 139.91 169.60 139.17 168.44 139.41 L 167.46 139.62 C 166.31 139.86 165.57 140.99 165.81 142.14 C 166.06 143.30 167.19 144.03 168.34 143.79 Z M 169.31 143.57 L 170.28 143.37 C 171.42 143.13 172.16 142.02 171.93 140.87 C 171.69 139.73 170.57 138.99 169.43 139.23 L 168.46 139.43 C 167.31 139.66 166.58 140.78 166.81 141.92 C 167.05 143.07 168.16 143.80 169.31 143.57 Z M 170.25 143.36 L 171.23 143.17 C 172.36 142.95 173.10 141.85 172.88 140.71 C 172.66 139.57 171.56 138.83 170.43 139.05 L 169.46 139.24 C 168.32 139.46 167.58 140.56 167.80 141.70 C 168.02 142.83 169.12 143.58 170.25 143.36 Z M 171.20 143.15 L 172.18 142.97 C 173.31 142.77 174.06 141.69 173.85 140.56 C 173.65 139.43 172.57 138.68 171.44 138.89 L 170.46 139.07 C 169.33 139.27 168.58 140.35 168.78 141.48 C 168.99 142.61 170.07 143.36 171.20 143.15 Z M 172.16 142.96 L 173.14 142.79 C 174.26 142.60 175.01 141.53 174.82 140.41 C 174.62 139.29 173.56 138.54 172.44 138.74 L 171.46 138.90 C 170.34 139.10 169.59 140.16 169.79 141.28 C 169.98 142.40 171.04 143.15 172.16 142.96 Z M 173.13 142.77 L 174.11 142.60 C 175.22 142.42 175.97 141.36 175.78 140.25 C 175.59 139.15 174.54 138.40 173.43 138.59 L 172.45 138.75 C 171.34 138.94 170.59 139.99 170.78 141.10 C 170.97 142.21 172.02 142.96 173.13 142.77 Z M 174.12 142.58 L 175.08 142.42 C 176.18 142.23 176.92 141.19 176.73 140.09 C 176.54 138.99 175.50 138.25 174.40 138.44 L 173.43 138.61 C 172.33 138.80 171.60 139.84 171.78 140.94 C 171.97 142.04 173.02 142.77 174.12 142.58 Z M 175.09 142.40 L 176.02 142.23 C 177.11 142.04 177.84 141.00 177.64 139.92 C 177.45 138.83 176.41 138.10 175.32 138.29 L 174.39 138.46 C 173.31 138.65 172.58 139.69 172.77 140.78 C 172.96 141.87 174.00 142.59 175.09 142.40 Z M 176.02 142.22 L 176.99 142.04 C 178.06 141.85 178.78 140.82 178.59 139.74 C 178.39 138.66 177.36 137.95 176.28 138.14 L 175.32 138.31 C 174.24 138.51 173.53 139.54 173.72 140.61 C 173.91 141.69 174.95 142.41 176.02 142.22 Z M 176.98 142.03 L 177.99 141.85 C 179.06 141.65 179.77 140.63 179.57 139.56 C 179.38 138.49 178.36 137.78 177.29 137.98 L 176.29 138.16 C 175.22 138.35 174.51 139.37 174.70 140.44 C 174.89 141.51 175.91 142.22 176.98 142.03 Z M 177.98 141.83 L 179.04 141.64 C 180.10 141.45 180.80 140.44 180.61 139.38 C 180.42 138.32 179.41 137.61 178.35 137.80 L 177.29 137.99 C 176.23 138.18 175.53 139.19 175.72 140.25 C 175.91 141.31 176.92 142.02 177.98 141.83 Z M 179.03 141.63 L 179.99 141.46 C 181.04 141.28 181.75 140.27 181.56 139.22 C 181.38 138.17 180.38 137.46 179.33 137.65 L 178.36 137.82 C 177.31 138.00 176.60 139.00 176.79 140.05 C 176.97 141.11 177.97 141.81 179.03 141.63 Z M 179.96 141.45 L 180.95 141.29 C 182.00 141.12 182.71 140.13 182.54 139.09 C 182.37 138.04 181.39 137.33 180.34 137.50 L 179.35 137.66 C 178.31 137.83 177.59 138.81 177.76 139.86 C 177.93 140.91 178.92 141.62 179.96 141.45 Z M 180.91 141.28 L 181.91 141.14 C 182.96 141.00 183.69 140.04 183.54 138.99 C 183.40 137.95 182.44 137.22 181.39 137.37 L 180.39 137.50 C 179.34 137.65 178.61 138.61 178.76 139.65 C 178.90 140.70 179.86 141.43 180.91 141.28 Z M 181.85 141.14 L 182.85 141.04 C 183.89 140.93 184.65 140.00 184.54 138.96 C 184.44 137.92 183.51 137.16 182.47 137.27 L 181.46 137.37 C 180.42 137.48 179.66 138.41 179.77 139.45 C 179.88 140.49 180.81 141.25 181.85 141.14 Z M 182.76 141.03 L 183.76 140.97 C 184.80 140.92 185.59 140.03 185.53 138.99 C 185.48 137.96 184.59 137.16 183.55 137.22 L 182.56 137.27 C 181.52 137.33 180.73 138.22 180.78 139.25 C 180.84 140.29 181.73 141.09 182.76 141.03 Z M 183.64 140.96 L 184.67 140.97 C 185.70 140.97 186.54 140.15 186.55 139.12 C 186.55 138.09 185.73 137.25 184.70 137.24 L 183.67 137.23 C 182.64 137.23 181.80 138.05 181.80 139.08 C 181.79 140.11 182.62 140.95 183.64 140.96 Z M 184.56 140.94 L 185.57 141.01 C 186.58 141.08 187.46 140.31 187.53 139.30 C 187.60 138.28 186.83 137.40 185.82 137.34 L 184.81 137.27 C 183.79 137.20 182.92 137.97 182.85 138.98 C 182.78 139.99 183.54 140.87 184.56 140.94 Z M 185.48 140.98 L 186.47 141.09 C 187.47 141.21 188.37 140.49 188.49 139.49 C 188.60 138.50 187.88 137.60 186.89 137.48 L 185.90 137.37 C 184.90 137.25 184.00 137.97 183.89 138.96 C 183.77 139.96 184.49 140.86 185.48 140.98 Z M 186.42 141.06 L 187.39 141.21 C 188.37 141.35 189.28 140.67 189.43 139.69 C 189.57 138.71 188.90 137.80 187.92 137.65 L 186.94 137.51 C 185.96 137.36 185.05 138.04 184.90 139.02 C 184.76 140.00 185.44 140.92 186.42 141.06 Z M 187.37 141.18 L 188.28 141.33 C 189.25 141.49 190.16 140.83 190.32 139.87 C 190.48 138.90 189.82 137.99 188.86 137.83 L 187.94 137.68 C 186.97 137.52 186.06 138.18 185.90 139.14 C 185.74 140.11 186.40 141.02 187.37 141.18 Z"
      fill="black"
      fill-rule="nonzero" /><path d="M 140.93 159.87 L 140.85 160.84 C 140.76 162.07 141.67 163.14 142.90 163.24 C 144.13 163.34 145.21 162.42 145.31 161.19 L 145.38 160.22 C 145.48 158.99 144.56 157.92 143.33 157.82 C 142.10 157.72 141.03 158.64 140.93 159.87 Z M 140.78 160.80 L 140.69 161.78 C 140.57 163.05 141.51 164.18 142.78 164.29 C 144.05 164.41 145.17 163.47 145.29 162.20 L 145.38 161.23 C 145.50 159.96 144.56 158.83 143.29 158.71 C 142.02 158.60 140.90 159.53 140.78 160.80 Z M 140.62 161.72 L 140.50 162.71 C 140.35 164.02 141.29 165.21 142.60 165.36 C 143.91 165.51 145.09 164.57 145.24 163.26 L 145.36 162.27 C 145.51 160.96 144.57 159.78 143.27 159.62 C 141.96 159.47 140.77 160.41 140.62 161.72 Z M 140.44 162.62 L 140.28 163.64 C 140.08 164.99 141.00 166.24 142.35 166.45 C 143.69 166.65 144.95 165.73 145.15 164.38 L 145.31 163.36 C 145.51 162.01 144.59 160.76 143.24 160.55 C 141.90 160.35 140.64 161.27 140.44 162.62 Z M 140.27 163.54 L 140.07 164.54 C 139.81 165.90 140.70 167.21 142.05 167.47 C 143.40 167.73 144.71 166.84 144.98 165.49 L 145.17 164.48 C 145.43 163.13 144.55 161.82 143.19 161.56 C 141.84 161.30 140.53 162.18 140.27 163.54 Z M 140.11 164.47 L 139.88 165.47 C 139.57 166.81 140.41 168.14 141.75 168.44 C 143.08 168.74 144.41 167.91 144.71 166.57 L 144.94 165.57 C 145.25 164.23 144.41 162.90 143.07 162.60 C 141.74 162.30 140.41 163.13 140.11 164.47 Z M 139.92 165.42 L 139.67 166.41 C 139.33 167.72 140.13 169.06 141.44 169.39 C 142.76 169.72 144.09 168.93 144.43 167.61 L 144.68 166.62 C 145.01 165.31 144.21 163.97 142.90 163.64 C 141.58 163.31 140.25 164.11 139.92 165.42 Z M 139.70 166.37 L 139.44 167.31 C 139.09 168.60 139.86 169.94 141.15 170.29 C 142.45 170.65 143.78 169.88 144.14 168.59 L 144.39 167.65 C 144.74 166.35 143.98 165.02 142.68 164.66 C 141.39 164.31 140.05 165.07 139.70 166.37 Z M 139.48 167.28 L 139.19 168.27 C 138.83 169.55 139.57 170.88 140.84 171.25 C 142.12 171.62 143.46 170.88 143.82 169.60 L 144.11 168.61 C 144.47 167.33 143.73 166.00 142.45 165.63 C 141.18 165.27 139.84 166.01 139.48 167.28 Z M 139.22 168.26 L 138.93 169.25 C 138.55 170.51 139.27 171.84 140.54 172.22 C 141.80 172.59 143.13 171.87 143.50 170.61 L 143.79 169.61 C 144.17 168.35 143.45 167.02 142.19 166.65 C 140.92 166.27 139.60 166.99 139.22 168.26 Z M 138.95 169.25 L 138.67 170.17 C 138.30 171.42 139.01 172.74 140.26 173.11 C 141.52 173.48 142.83 172.77 143.20 171.52 L 143.48 170.60 C 143.85 169.35 143.14 168.04 141.89 167.66 C 140.64 167.29 139.32 168.00 138.95 169.25 Z M 138.69 170.20 L 138.43 171.10 C 138.07 172.34 138.79 173.64 140.03 173.99 C 141.28 174.35 142.57 173.64 142.93 172.39 L 143.19 171.50 C 143.55 170.25 142.83 168.96 141.59 168.60 C 140.34 168.24 139.05 168.96 138.69 170.20 Z M 138.44 171.14 L 138.18 172.08 C 137.85 173.32 138.58 174.60 139.82 174.93 C 141.05 175.27 142.33 174.54 142.67 173.30 L 142.92 172.35 C 143.26 171.12 142.53 169.84 141.29 169.50 C 140.05 169.17 138.78 169.90 138.44 171.14 Z M 138.19 172.11 L 137.94 173.07 C 137.62 174.31 138.36 175.57 139.59 175.89 C 140.82 176.21 142.08 175.47 142.40 174.24 L 142.66 173.27 C 142.98 172.04 142.24 170.78 141.01 170.46 C 139.77 170.14 138.52 170.88 138.19 172.11 Z M 137.96 173.08 L 137.70 174.07 C 137.38 175.30 138.12 176.55 139.34 176.86 C 140.56 177.18 141.81 176.45 142.13 175.22 L 142.39 174.23 C 142.71 173.01 141.97 171.76 140.75 171.44 C 139.52 171.12 138.27 171.86 137.96 173.08 Z M 137.72 174.07 L 137.46 175.03 C 137.14 176.25 137.86 177.49 139.08 177.81 C 140.29 178.13 141.53 177.41 141.86 176.20 L 142.11 175.23 C 142.43 174.02 141.71 172.77 140.50 172.45 C 139.28 172.13 138.04 172.85 137.72 174.07 Z M 137.48 175.02 L 137.22 176.00 C 136.89 177.20 137.60 178.44 138.80 178.77 C 140.00 179.09 141.24 178.39 141.57 177.18 L 141.83 176.21 C 142.16 175.01 141.45 173.77 140.25 173.44 C 139.05 173.11 137.81 173.82 137.48 175.02 Z M 137.24 175.98 L 136.97 176.94 C 136.63 178.13 137.32 179.37 138.51 179.71 C 139.70 180.04 140.94 179.35 141.27 178.16 L 141.55 177.20 C 141.88 176.01 141.19 174.77 140.00 174.44 C 138.81 174.10 137.57 174.79 137.24 175.98 Z M 136.99 176.93 L 136.71 177.90 C 136.36 179.07 137.04 180.31 138.21 180.65 C 139.39 181.00 140.62 180.32 140.97 179.15 L 141.25 178.18 C 141.60 177.00 140.92 175.77 139.75 175.42 C 138.57 175.08 137.34 175.75 136.99 176.93 Z M 136.73 177.89 L 136.44 178.85 C 136.09 180.02 136.75 181.24 137.91 181.60 C 139.07 181.95 140.30 181.29 140.65 180.13 L 140.94 179.16 C 141.29 178.00 140.63 176.77 139.47 176.42 C 138.31 176.07 137.08 176.72 136.73 177.89 Z M 136.46 178.86 L 136.17 179.80 C 135.83 180.96 136.48 182.17 137.63 182.52 C 138.78 182.87 140.00 182.21 140.35 181.06 L 140.63 180.12 C 140.98 178.97 140.32 177.75 139.17 177.40 C 138.02 177.06 136.81 177.71 136.46 178.86 Z M 136.19 179.83 L 135.94 180.66 C 135.61 181.81 136.27 183.01 137.41 183.34 C 138.56 183.67 139.76 183.02 140.09 181.87 L 140.33 181.04 C 140.67 179.89 140.01 178.69 138.86 178.36 C 137.72 178.03 136.52 178.68 136.19 179.83 Z M 135.95 180.69 L 135.75 181.43 C 135.43 182.57 136.09 183.75 137.23 184.07 C 138.37 184.39 139.55 183.73 139.87 182.59 L 140.08 181.85 C 140.40 180.71 139.73 179.53 138.60 179.21 C 137.46 178.89 136.27 179.55 135.95 180.69 Z M 135.76 181.44 L 135.52 182.31 C 135.20 183.44 135.87 184.62 137.00 184.93 C 138.13 185.24 139.30 184.58 139.62 183.45 L 139.86 182.58 C 140.17 181.45 139.51 180.27 138.38 179.96 C 137.24 179.65 136.07 180.31 135.76 181.44 Z M 135.53 182.31 L 135.23 183.40 C 134.92 184.53 135.57 185.69 136.70 186.00 C 137.82 186.32 138.98 185.66 139.30 184.54 L 139.60 183.45 C 139.91 182.32 139.26 181.16 138.13 180.85 C 137.01 180.53 135.85 181.19 135.53 182.31 Z M 135.25 183.40 L 134.90 184.62 C 134.59 185.74 135.23 186.90 136.35 187.21 C 137.46 187.53 138.62 186.88 138.93 185.77 L 139.28 184.54 C 139.59 183.43 138.95 182.27 137.83 181.95 C 136.72 181.64 135.56 182.29 135.25 183.40 Z M 134.91 184.62 L 134.66 185.50 C 134.34 186.61 134.99 187.76 136.09 188.08 C 137.20 188.39 138.35 187.75 138.67 186.65 L 138.92 185.77 C 139.24 184.66 138.60 183.51 137.49 183.19 C 136.38 182.87 135.23 183.51 134.91 184.62 Z M 134.67 185.49 L 134.40 186.45 C 134.08 187.55 134.71 188.70 135.81 189.02 C 136.91 189.34 138.06 188.70 138.38 187.60 L 138.66 186.65 C 138.98 185.55 138.34 184.40 137.24 184.08 C 136.14 183.76 134.99 184.39 134.67 185.49 Z M 134.41 186.44 L 134.11 187.44 C 133.79 188.54 134.42 189.69 135.51 190.01 C 136.61 190.33 137.76 189.71 138.08 188.61 L 138.37 187.61 C 138.69 186.51 138.07 185.36 136.97 185.04 C 135.88 184.72 134.73 185.35 134.41 186.44 Z M 134.12 187.44 L 133.82 188.46 C 133.49 189.55 134.11 190.70 135.20 191.02 C 136.29 191.35 137.43 190.73 137.76 189.64 L 138.07 188.62 C 138.39 187.53 137.77 186.38 136.69 186.06 C 135.60 185.73 134.45 186.35 134.12 187.44 Z M 133.83 188.45 L 133.52 189.47 C 133.18 190.55 133.79 191.70 134.87 192.03 C 135.96 192.36 137.10 191.75 137.44 190.67 L 137.75 189.65 C 138.08 188.57 137.47 187.42 136.39 187.09 C 135.31 186.76 134.16 187.37 133.83 188.45 Z M 133.53 189.45 L 133.22 190.44 C 132.88 191.51 133.48 192.66 134.55 193.00 C 135.63 193.34 136.77 192.74 137.11 191.67 L 137.42 190.68 C 137.76 189.61 137.17 188.46 136.09 188.12 C 135.02 187.78 133.87 188.38 133.53 189.45 Z M 133.23 190.42 L 132.93 191.34 C 132.58 192.41 133.16 193.56 134.23 193.91 C 135.30 194.26 136.44 193.67 136.79 192.61 L 137.10 191.69 C 137.45 190.62 136.87 189.47 135.80 189.12 C 134.73 188.77 133.58 189.35 133.23 190.42 Z M 132.96 191.31 L 132.59 192.38 C 132.22 193.43 132.78 194.58 133.83 194.94 C 134.88 195.31 136.03 194.76 136.39 193.70 L 136.77 192.64 C 137.13 191.59 136.58 190.44 135.53 190.07 C 134.48 189.71 133.33 190.26 132.96 191.31 Z M 132.65 192.34 L 132.22 193.45 C 131.83 194.47 132.34 195.61 133.36 196.00 C 134.38 196.39 135.52 195.88 135.91 194.86 L 136.34 193.75 C 136.72 192.73 136.21 191.59 135.19 191.20 C 134.18 190.81 133.03 191.32 132.65 192.34 Z M 132.29 193.40 L 131.90 194.33 C 131.49 195.31 131.95 196.44 132.93 196.85 C 133.90 197.27 135.03 196.81 135.45 195.83 L 135.84 194.90 C 136.25 193.92 135.80 192.79 134.82 192.38 C 133.84 191.97 132.71 192.42 132.29 193.40 Z M 131.97 194.29 L 131.60 195.09 C 131.17 196.03 131.58 197.15 132.52 197.58 C 133.46 198.02 134.57 197.61 135.01 196.67 L 135.38 195.87 C 135.81 194.93 135.40 193.81 134.46 193.38 C 133.52 192.94 132.41 193.35 131.97 194.29 Z M 131.67 195.07 L 131.31 195.80 C 130.87 196.70 131.24 197.80 132.14 198.24 C 133.05 198.69 134.14 198.31 134.59 197.41 L 134.94 196.68 C 135.39 195.78 135.02 194.68 134.11 194.24 C 133.21 193.80 132.11 194.17 131.67 195.07 Z M 131.35 195.80 L 131.24 196.02 C 130.80 196.90 131.16 197.98 132.04 198.42 C 132.93 198.86 134.00 198.51 134.45 197.62 L 134.55 197.41 C 135.00 196.52 134.64 195.44 133.75 195.00 C 132.87 194.56 131.79 194.92 131.35 195.80 Z"
      fill="black"
      fill-rule="nonzero" /><path d="M 141.18 161.55 L 142.19 161.46 C 143.36 161.36 144.22 160.33 144.12 159.16 C 144.02 158.00 143.00 157.13 141.83 157.23 L 140.82 157.31 C 139.65 157.41 138.79 158.44 138.88 159.61 C 138.98 160.78 140.01 161.65 141.18 161.55 Z M 142.24 161.38 L 143.23 161.27 C 144.36 161.14 145.17 160.13 145.04 159.00 C 144.92 157.88 143.90 157.07 142.77 157.19 L 141.78 157.31 C 140.65 157.43 139.84 158.45 139.97 159.57 C 140.09 160.70 141.11 161.51 142.24 161.38 Z M 143.34 161.18 L 144.32 161.01 C 145.40 160.83 146.12 159.81 145.93 158.73 C 145.75 157.65 144.73 156.93 143.65 157.11 L 142.67 157.28 C 141.59 157.47 140.87 158.49 141.05 159.57 C 141.24 160.64 142.26 161.37 143.34 161.18 Z M 144.47 160.92 L 145.43 160.66 C 146.45 160.40 147.06 159.35 146.80 158.33 C 146.53 157.30 145.48 156.69 144.46 156.96 L 143.50 157.21 C 142.48 157.48 141.86 158.53 142.13 159.55 C 142.40 160.57 143.45 161.18 144.47 160.92 Z M 145.61 160.59 L 146.56 160.24 C 147.54 159.87 148.04 158.78 147.67 157.79 C 147.30 156.81 146.21 156.31 145.23 156.68 L 144.28 157.03 C 143.30 157.40 142.80 158.49 143.17 159.48 C 143.53 160.46 144.63 160.96 145.61 160.59 Z M 146.70 160.20 L 147.61 159.78 C 148.58 159.33 149.00 158.19 148.55 157.23 C 148.11 156.27 146.96 155.85 146.00 156.29 L 145.09 156.71 C 144.12 157.16 143.70 158.30 144.15 159.26 C 144.59 160.23 145.74 160.65 146.70 160.20 Z M 147.70 159.76 L 148.58 159.31 C 149.54 158.81 149.91 157.64 149.42 156.69 C 148.92 155.73 147.75 155.36 146.79 155.85 L 145.91 156.31 C 144.96 156.80 144.59 157.97 145.08 158.93 C 145.57 159.88 146.75 160.26 147.70 159.76 Z M 148.62 159.31 L 149.48 158.85 C 150.43 158.34 150.80 157.15 150.28 156.19 C 149.77 155.23 148.58 154.87 147.62 155.38 L 146.76 155.85 C 145.80 156.36 145.44 157.55 145.95 158.51 C 146.47 159.46 147.66 159.82 148.62 159.31 Z M 149.46 158.88 L 150.32 158.43 C 151.30 157.93 151.68 156.73 151.18 155.76 C 150.67 154.79 149.48 154.41 148.51 154.91 L 147.64 155.36 C 146.67 155.86 146.29 157.05 146.79 158.03 C 147.29 159.00 148.49 159.38 149.46 158.88 Z M 150.26 158.48 L 151.15 158.06 C 152.15 157.59 152.58 156.40 152.11 155.41 C 151.64 154.41 150.46 153.98 149.46 154.45 L 148.57 154.86 C 147.57 155.33 147.14 156.52 147.61 157.52 C 148.08 158.52 149.26 158.95 150.26 158.48 Z M 151.05 158.12 L 152.02 157.73 C 153.04 157.32 153.54 156.15 153.13 155.12 C 152.72 154.09 151.55 153.59 150.52 154.00 L 149.56 154.39 C 148.53 154.80 148.03 155.97 148.44 157.00 C 148.85 158.03 150.02 158.53 151.05 158.12 Z M 151.89 157.80 L 152.91 157.47 C 153.98 157.12 154.57 155.98 154.22 154.91 C 153.87 153.84 152.73 153.26 151.66 153.60 L 150.64 153.93 C 149.57 154.28 148.99 155.43 149.33 156.50 C 149.68 157.56 150.83 158.15 151.89 157.80 Z M 152.73 157.55 L 153.78 157.32 C 154.89 157.07 155.60 155.97 155.35 154.86 C 155.10 153.74 154.00 153.04 152.88 153.29 L 151.84 153.52 C 150.72 153.77 150.02 154.87 150.27 155.98 C 150.52 157.10 151.62 157.80 152.73 157.55 Z M 153.46 157.41 L 154.44 157.35 C 155.60 157.28 156.48 156.28 156.41 155.12 C 156.34 153.96 155.34 153.07 154.18 153.14 L 153.20 153.20 C 152.04 153.27 151.16 154.27 151.23 155.43 C 151.30 156.59 152.30 157.47 153.46 157.41 Z M 153.83 157.33 L 154.65 157.52 C 155.80 157.79 156.95 157.07 157.22 155.91 C 157.48 154.76 156.76 153.61 155.61 153.35 L 154.79 153.16 C 153.64 152.89 152.49 153.61 152.22 154.77 C 151.96 155.92 152.68 157.07 153.83 157.33 Z M 153.77 157.13 L 154.36 157.61 C 155.30 158.36 156.67 158.21 157.42 157.27 C 158.17 156.33 158.02 154.96 157.08 154.21 L 156.49 153.74 C 155.55 152.99 154.18 153.14 153.43 154.07 C 152.68 155.01 152.83 156.38 153.77 157.13 Z M 153.80 156.99 L 154.23 157.76 C 154.83 158.82 156.18 159.19 157.24 158.59 C 158.30 158.00 158.67 156.65 158.08 155.59 L 157.64 154.83 C 157.05 153.76 155.70 153.39 154.64 153.99 C 153.58 154.58 153.20 155.93 153.80 156.99 Z M 154.02 157.34 L 154.35 158.39 C 154.72 159.57 155.97 160.23 157.15 159.86 C 158.33 159.49 158.98 158.24 158.62 157.06 L 158.29 156.01 C 157.92 154.83 156.67 154.17 155.49 154.54 C 154.31 154.91 153.65 156.16 154.02 157.34 Z M 154.27 158.20 L 154.53 159.40 C 154.79 160.62 155.99 161.40 157.21 161.14 C 158.44 160.87 159.22 159.67 158.95 158.45 L 158.70 157.25 C 158.43 156.03 157.23 155.25 156.01 155.51 C 154.78 155.77 154.01 156.98 154.27 158.20 Z M 154.50 159.33 L 154.66 160.22 C 154.88 161.46 156.07 162.28 157.31 162.05 C 158.55 161.83 159.37 160.64 159.14 159.40 L 158.98 158.51 C 158.76 157.27 157.57 156.45 156.33 156.68 C 155.09 156.91 154.27 158.09 154.50 159.33 Z M 154.65 160.19 L 154.81 161.14 C 155.01 162.39 156.19 163.23 157.44 163.02 C 158.69 162.81 159.53 161.63 159.32 160.39 L 159.16 159.43 C 158.95 158.19 157.77 157.34 156.52 157.55 C 155.28 157.76 154.44 158.94 154.65 160.19 Z M 154.79 161.12 L 154.95 162.13 C 155.15 163.38 156.32 164.23 157.57 164.04 C 158.82 163.84 159.68 162.67 159.49 161.42 L 159.33 160.41 C 159.13 159.16 157.96 158.30 156.71 158.50 C 155.46 158.70 154.60 159.87 154.79 161.12 Z M 154.94 162.11 L 155.09 163.14 C 155.28 164.40 156.45 165.27 157.70 165.08 C 158.96 164.90 159.83 163.73 159.65 162.47 L 159.50 161.44 C 159.31 160.18 158.14 159.31 156.88 159.50 C 155.63 159.68 154.76 160.85 154.94 162.11 Z M 155.08 163.13 L 155.23 164.17 C 155.41 165.43 156.57 166.31 157.83 166.14 C 159.10 165.96 159.98 164.79 159.80 163.53 L 159.66 162.49 C 159.48 161.23 158.31 160.35 157.05 160.52 C 155.79 160.70 154.91 161.86 155.08 163.13 Z M 155.22 164.15 L 155.36 165.18 C 155.53 166.45 156.69 167.34 157.96 167.17 C 159.22 167.00 160.12 165.84 159.95 164.57 L 159.81 163.54 C 159.64 162.28 158.48 161.39 157.21 161.55 C 155.94 161.72 155.05 162.89 155.22 164.15 Z M 155.35 165.17 L 155.49 166.27 C 155.65 167.54 156.81 168.44 158.08 168.27 C 159.36 168.11 160.26 166.95 160.09 165.68 L 159.95 164.58 C 159.79 163.31 158.63 162.41 157.36 162.58 C 156.09 162.74 155.19 163.90 155.35 165.17 Z M 155.49 166.25 L 155.62 167.36 C 155.77 168.63 156.93 169.54 158.21 169.38 C 159.48 169.23 160.39 168.07 160.23 166.80 L 160.10 165.69 C 159.94 164.42 158.78 163.51 157.51 163.67 C 156.24 163.82 155.33 164.98 155.49 166.25 Z M 155.62 167.35 L 155.74 168.39 C 155.89 169.67 157.04 170.58 158.32 170.43 C 159.59 170.28 160.51 169.13 160.36 167.85 L 160.24 166.81 C 160.09 165.53 158.93 164.62 157.66 164.77 C 156.38 164.92 155.47 166.07 155.62 167.35 Z M 155.73 168.38 L 155.84 169.36 C 155.99 170.63 157.14 171.55 158.41 171.41 C 159.69 171.27 160.61 170.12 160.47 168.84 L 160.36 167.86 C 160.22 166.59 159.07 165.67 157.79 165.81 C 156.51 165.95 155.59 167.10 155.73 168.38 Z M 155.84 169.35 L 155.94 170.26 C 156.08 171.54 157.22 172.46 158.50 172.33 C 159.78 172.19 160.71 171.04 160.57 169.76 L 160.47 168.85 C 160.33 167.57 159.19 166.65 157.91 166.78 C 156.63 166.92 155.70 168.07 155.84 169.35 Z M 155.94 170.25 L 156.02 171.09 C 156.16 172.37 157.30 173.30 158.58 173.17 C 159.86 173.04 160.79 171.89 160.66 170.61 L 160.57 169.77 C 160.44 168.49 159.29 167.56 158.01 167.69 C 156.73 167.83 155.80 168.97 155.94 170.25 Z M 156.02 171.08 L 156.13 172.18 C 156.26 173.47 157.40 174.40 158.68 174.27 C 159.96 174.15 160.90 173.00 160.77 171.72 L 160.66 170.62 C 160.53 169.34 159.39 168.41 158.11 168.53 C 156.83 168.66 155.89 169.80 156.02 171.08 Z M 156.13 172.17 L 156.22 173.18 C 156.35 174.46 157.49 175.40 158.77 175.28 C 160.05 175.16 160.99 174.02 160.87 172.74 L 160.77 171.73 C 160.65 170.45 159.51 169.51 158.23 169.63 C 156.95 169.75 156.01 170.89 156.13 172.17 Z M 156.22 173.17 L 156.31 174.11 C 156.43 175.39 157.56 176.34 158.84 176.22 C 160.13 176.11 161.07 174.97 160.96 173.69 L 160.87 172.75 C 160.75 171.46 159.62 170.52 158.33 170.64 C 157.05 170.75 156.11 171.89 156.22 173.17 Z M 156.31 174.10 L 156.39 175.03 C 156.50 176.31 157.63 177.26 158.92 177.15 C 160.20 177.03 161.15 175.90 161.04 174.62 L 160.96 173.69 C 160.84 172.41 159.71 171.46 158.43 171.57 C 157.14 171.69 156.19 172.82 156.31 174.10 Z M 156.39 175.02 L 156.47 175.98 C 156.58 177.27 157.71 178.22 159.00 178.11 C 160.28 178.00 161.23 176.87 161.12 175.58 L 161.04 174.62 C 160.93 173.34 159.80 172.38 158.51 172.50 C 157.23 172.61 156.28 173.74 156.39 175.02 Z M 156.47 175.99 L 156.56 176.97 C 156.67 178.26 157.80 179.21 159.09 179.10 C 160.37 178.98 161.32 177.85 161.21 176.57 L 161.12 175.58 C 161.01 174.29 159.88 173.34 158.59 173.46 C 157.31 173.57 156.36 174.70 156.47 175.99 Z M 156.56 176.98 L 156.65 178.00 C 156.77 179.28 157.90 180.23 159.19 180.11 C 160.47 180.00 161.42 178.86 161.30 177.57 L 161.21 176.56 C 161.09 175.27 159.96 174.33 158.67 174.44 C 157.39 174.56 156.44 175.70 156.56 176.98 Z M 156.65 178.01 L 156.75 179.03 C 156.87 180.31 158.02 181.25 159.30 181.13 C 160.58 181.00 161.52 179.86 161.40 178.58 L 161.30 177.56 C 161.18 176.28 160.03 175.34 158.75 175.46 C 157.47 175.59 156.53 176.73 156.65 178.01 Z M 156.75 179.04 L 156.85 180.03 C 156.99 181.31 158.13 182.25 159.42 182.11 C 160.70 181.98 161.63 180.83 161.50 179.55 L 161.40 178.56 C 161.27 177.28 160.12 176.35 158.83 176.48 C 157.55 176.61 156.62 177.76 156.75 179.04 Z M 156.85 180.04 L 156.96 181.04 C 157.10 182.33 158.25 183.25 159.54 183.11 C 160.82 182.98 161.75 181.82 161.61 180.54 L 161.50 179.54 C 161.36 178.26 160.21 177.33 158.93 177.47 C 157.64 177.61 156.71 178.76 156.85 180.04 Z M 156.96 181.05 L 157.08 182.05 C 157.22 183.34 158.38 184.26 159.66 184.12 C 160.94 183.97 161.86 182.81 161.72 181.53 L 161.61 180.53 C 161.46 179.25 160.31 178.33 159.02 178.47 C 157.74 178.61 156.82 179.77 156.96 181.05 Z M 157.08 182.06 L 157.19 183.06 C 157.34 184.34 158.50 185.26 159.78 185.11 C 161.06 184.97 161.98 183.81 161.83 182.52 L 161.72 181.53 C 161.57 180.24 160.41 179.32 159.13 179.47 C 157.85 179.62 156.93 180.78 157.08 182.06 Z M 157.19 183.06 L 157.31 184.06 C 157.46 185.34 158.62 186.26 159.90 186.11 C 161.18 185.96 162.10 184.80 161.95 183.52 L 161.83 182.52 C 161.69 181.24 160.53 180.32 159.24 180.47 C 157.96 180.62 157.04 181.78 157.19 183.06 Z M 157.31 184.06 L 157.42 185.05 C 157.57 186.33 158.72 187.25 160.01 187.10 C 161.29 186.96 162.21 185.80 162.06 184.52 L 161.95 183.53 C 161.80 182.25 160.65 181.32 159.36 181.47 C 158.08 181.62 157.16 182.77 157.31 184.06 Z M 157.42 185.03 L 157.52 186.02 C 157.66 187.30 158.82 188.23 160.10 188.09 C 161.38 187.95 162.31 186.80 162.17 185.52 L 162.06 184.53 C 161.93 183.25 160.77 182.32 159.49 182.46 C 158.21 182.60 157.28 183.75 157.42 185.03 Z M 157.52 186.00 L 157.62 186.99 C 157.75 188.28 158.89 189.21 160.18 189.09 C 161.46 188.96 162.40 187.81 162.27 186.53 L 162.17 185.54 C 162.05 184.25 160.90 183.32 159.62 183.44 C 158.33 183.57 157.40 184.72 157.52 186.00 Z M 157.62 186.97 L 157.71 187.97 C 157.83 189.25 158.96 190.20 160.25 190.08 C 161.53 189.97 162.48 188.83 162.36 187.55 L 162.27 186.55 C 162.16 185.26 161.02 184.32 159.73 184.43 C 158.45 184.55 157.50 185.69 157.62 186.97 Z M 157.71 187.96 L 157.80 188.96 C 157.91 190.25 159.04 191.20 160.33 191.08 C 161.61 190.97 162.57 189.84 162.45 188.55 L 162.36 187.55 C 162.25 186.27 161.12 185.32 159.83 185.43 C 158.55 185.54 157.60 186.68 157.71 187.96 Z M 157.80 188.96 L 157.89 189.96 C 158.00 191.25 159.14 192.20 160.42 192.08 C 161.71 191.96 162.66 190.83 162.54 189.54 L 162.45 188.55 C 162.34 187.26 161.20 186.31 159.92 186.43 C 158.63 186.54 157.68 187.68 157.80 188.96 Z M 157.89 189.98 L 157.99 190.98 C 158.11 192.26 159.25 193.20 160.54 193.08 C 161.82 192.95 162.76 191.81 162.64 190.52 L 162.54 189.53 C 162.41 188.24 161.27 187.30 159.99 187.43 C 158.70 187.55 157.76 188.69 157.89 189.98 Z M 157.99 191.00 L 158.09 192.00 C 158.23 193.28 159.38 194.21 160.66 194.07 C 161.95 193.94 162.88 192.79 162.74 191.50 L 162.63 190.50 C 162.50 189.22 161.35 188.29 160.07 188.43 C 158.78 188.56 157.85 189.71 157.99 191.00 Z M 158.09 192.00 L 158.20 193.00 C 158.34 194.28 159.50 195.20 160.78 195.06 C 162.06 194.92 162.99 193.77 162.85 192.49 L 162.74 191.50 C 162.60 190.21 161.45 189.29 160.16 189.43 C 158.88 189.57 157.95 190.72 158.09 192.00 Z M 158.20 192.99 L 158.31 193.98 C 158.45 195.26 159.60 196.19 160.88 196.05 C 162.16 195.92 163.09 194.77 162.95 193.48 L 162.85 192.49 C 162.71 191.21 161.56 190.28 160.28 190.42 C 158.99 190.56 158.07 191.71 158.20 192.99 Z M 158.31 193.96 L 158.41 194.96 C 158.53 196.24 159.68 197.18 160.96 197.05 C 162.25 196.92 163.18 195.78 163.05 194.49 L 162.96 193.50 C 162.83 192.22 161.68 191.28 160.40 191.41 C 159.12 191.54 158.18 192.68 158.31 193.96 Z M 158.41 194.94 L 158.50 195.93 C 158.61 197.22 159.75 198.16 161.03 198.05 C 162.32 197.93 163.26 196.79 163.15 195.51 L 163.06 194.51 C 162.94 193.23 161.80 192.28 160.52 192.40 C 159.23 192.52 158.29 193.65 158.41 194.94 Z M 158.50 195.92 L 158.58 196.91 C 158.69 198.20 159.82 199.15 161.10 199.04 C 162.39 198.93 163.34 197.80 163.23 196.52 L 163.15 195.52 C 163.04 194.24 161.91 193.29 160.62 193.39 C 159.34 193.50 158.39 194.63 158.50 195.92 Z M 158.58 196.91 L 158.66 197.90 C 158.76 199.19 159.89 200.14 161.18 200.04 C 162.46 199.93 163.42 198.81 163.31 197.52 L 163.23 196.53 C 163.13 195.24 162.00 194.29 160.72 194.39 C 159.43 194.49 158.48 195.62 158.58 196.91 Z M 158.66 197.90 L 158.74 198.89 C 158.84 200.17 159.97 201.13 161.25 201.03 C 162.54 200.92 163.49 199.80 163.39 198.51 L 163.31 197.53 C 163.21 196.24 162.08 195.28 160.80 195.39 C 159.52 195.49 158.56 196.61 158.66 197.90 Z M 158.74 198.89 L 158.82 199.87 C 158.92 201.16 160.05 202.12 161.33 202.01 C 162.61 201.91 163.57 200.79 163.47 199.50 L 163.39 198.52 C 163.29 197.23 162.16 196.27 160.88 196.38 C 159.60 196.48 158.64 197.60 158.74 198.89 Z M 158.82 199.87 L 158.90 200.87 C 159.00 202.15 160.12 203.11 161.41 203.01 C 162.69 202.91 163.65 201.78 163.55 200.50 L 163.47 199.50 C 163.37 198.22 162.24 197.26 160.96 197.36 C 159.68 197.47 158.72 198.59 158.82 199.87 Z M 158.90 200.87 L 158.98 201.88 C 159.08 203.16 160.20 204.12 161.48 204.02 C 162.77 203.92 163.73 202.80 163.63 201.51 L 163.55 200.50 C 163.45 199.22 162.33 198.26 161.04 198.36 C 159.76 198.46 158.80 199.58 158.90 200.87 Z M 158.98 201.87 L 159.06 202.89 C 159.15 204.17 160.27 205.13 161.56 205.03 C 162.84 204.94 163.80 203.82 163.70 202.53 L 163.62 201.52 C 163.53 200.23 162.41 199.27 161.12 199.37 C 159.84 199.47 158.88 200.59 158.98 201.87 Z M 159.06 202.88 L 159.13 203.90 C 159.23 205.18 160.35 206.15 161.63 206.05 C 162.91 205.96 163.87 204.84 163.78 203.56 L 163.70 202.54 C 163.61 201.26 162.49 200.29 161.21 200.39 C 159.92 200.48 158.96 201.60 159.06 202.88 Z M 159.13 203.89 L 159.21 204.90 C 159.30 206.18 160.41 207.15 161.69 207.05 C 162.97 206.96 163.94 205.85 163.85 204.57 L 163.78 203.56 C 163.69 202.28 162.57 201.32 161.29 201.41 C 160.01 201.50 159.04 202.61 159.13 203.89 Z M 159.21 204.89 L 159.27 205.86 C 159.36 207.14 160.46 208.11 161.75 208.02 C 163.03 207.94 164.00 206.83 163.91 205.55 L 163.85 204.58 C 163.76 203.30 162.65 202.33 161.37 202.41 C 160.09 202.50 159.12 203.61 159.21 204.89 Z M 159.27 205.84 L 159.33 206.88 C 159.41 208.16 160.51 209.14 161.79 209.06 C 163.07 208.98 164.05 207.88 163.97 206.60 L 163.91 205.56 C 163.83 204.28 162.73 203.31 161.45 203.38 C 160.17 203.46 159.19 204.56 159.27 205.84 Z M 159.34 206.87 L 159.39 207.88 C 159.46 209.16 160.55 210.14 161.83 210.07 C 163.11 210.00 164.10 208.91 164.03 207.63 L 163.97 206.62 C 163.90 205.34 162.81 204.36 161.53 204.42 C 160.25 204.49 159.27 205.59 159.34 206.87 Z M 159.39 207.87 L 159.44 208.83 C 159.50 210.11 160.59 211.10 161.87 211.03 C 163.15 210.97 164.14 209.88 164.07 208.60 L 164.03 207.64 C 163.96 206.36 162.87 205.37 161.59 205.44 C 160.31 205.50 159.33 206.59 159.39 207.87 Z M 159.44 208.83 L 159.49 209.75 C 159.55 211.03 160.64 212.01 161.91 211.95 C 163.19 211.89 164.18 210.80 164.12 209.52 L 164.07 208.60 C 164.01 207.33 162.92 206.34 161.64 206.40 C 160.37 206.46 159.38 207.55 159.44 208.83 Z M 159.49 209.74 L 159.53 210.65 C 159.59 211.93 160.68 212.91 161.96 212.85 C 163.23 212.79 164.22 211.70 164.16 210.43 L 164.11 209.52 C 164.05 208.25 162.97 207.26 161.69 207.32 C 160.41 207.38 159.43 208.47 159.49 209.74 Z M 159.53 210.64 L 159.58 211.62 C 159.63 212.90 160.71 213.89 161.99 213.83 C 163.27 213.78 164.26 212.70 164.20 211.42 L 164.16 210.44 C 164.10 209.16 163.02 208.17 161.74 208.23 C 160.47 208.28 159.48 209.36 159.53 210.64 Z M 159.58 211.61 L 159.62 212.74 C 159.67 214.01 160.74 215.01 162.02 214.96 C 163.30 214.91 164.29 213.84 164.24 212.56 L 164.20 211.43 C 164.15 210.16 163.08 209.16 161.80 209.21 C 160.52 209.26 159.53 210.33 159.58 211.61 Z M 159.62 212.72 L 159.65 213.65 C 159.69 214.93 160.76 215.93 162.04 215.88 C 163.31 215.84 164.31 214.77 164.27 213.50 L 164.24 212.57 C 164.20 211.30 163.13 210.30 161.85 210.34 C 160.58 210.38 159.58 211.45 159.62 212.72 Z M 159.65 213.64 L 159.68 214.59 C 159.72 215.86 160.78 216.87 162.06 216.83 C 163.33 216.79 164.33 215.73 164.30 214.46 L 164.27 213.51 C 164.23 212.23 163.17 211.23 161.89 211.27 C 160.62 211.30 159.62 212.37 159.65 213.64 Z M 159.69 214.58 L 159.71 215.59 C 159.74 216.86 160.80 217.87 162.07 217.84 C 163.35 217.80 164.35 216.75 164.32 215.47 L 164.29 214.46 C 164.26 213.19 163.20 212.19 161.93 212.22 C 160.66 212.25 159.65 213.31 159.69 214.58 Z M 159.71 215.58 L 159.74 216.63 C 159.76 217.90 160.82 218.91 162.09 218.88 C 163.36 218.85 164.37 217.80 164.34 216.53 L 164.32 215.48 C 164.29 214.21 163.24 213.20 161.96 213.23 C 160.69 213.26 159.69 214.31 159.71 215.58 Z M 159.74 216.62 L 159.76 217.69 C 159.78 218.96 160.83 219.97 162.10 219.95 C 163.37 219.92 164.38 218.88 164.36 217.61 L 164.34 216.54 C 164.32 215.27 163.27 214.26 162.00 214.28 C 160.73 214.30 159.72 215.35 159.74 216.62 Z M 159.76 217.68 L 159.77 218.75 C 159.79 220.02 160.83 221.03 162.10 221.02 C 163.37 221.00 164.39 219.96 164.37 218.69 L 164.36 217.62 C 164.34 216.35 163.30 215.33 162.03 215.35 C 160.76 215.37 159.74 216.41 159.76 217.68 Z M 159.78 218.74 L 159.79 219.80 C 159.80 221.07 160.83 222.09 162.10 222.07 C 163.37 222.06 164.39 221.03 164.38 219.76 L 164.37 218.70 C 164.36 217.43 163.32 216.41 162.05 216.42 C 160.78 216.43 159.77 217.47 159.78 218.74 Z M 159.79 219.79 L 159.79 220.82 C 159.80 222.09 160.83 223.11 162.10 223.11 C 163.37 223.10 164.39 222.07 164.38 220.80 L 164.38 219.77 C 164.37 218.50 163.34 217.48 162.07 217.48 C 160.80 217.49 159.78 218.52 159.79 219.79 Z M 159.79 220.82 L 159.80 221.81 C 159.80 223.08 160.83 224.10 162.10 224.10 C 163.36 224.10 164.39 223.07 164.38 221.80 L 164.38 220.81 C 164.38 219.54 163.35 218.52 162.08 218.52 C 160.81 218.52 159.79 219.55 159.79 220.82 Z M 159.80 221.81 L 159.80 222.76 C 159.80 224.02 160.83 225.05 162.09 225.05 C 163.36 225.05 164.38 224.02 164.38 222.75 L 164.38 221.81 C 164.38 220.54 163.35 219.52 162.09 219.52 C 160.82 219.52 159.80 220.55 159.80 221.81 Z M 159.80 222.76 L 159.80 223.71 C 159.80 224.98 160.83 226.00 162.09 226.00 C 163.35 226.00 164.38 224.98 164.38 223.71 L 164.38 222.76 C 164.38 221.49 163.35 220.47 162.09 220.47 C 160.83 220.47 159.80 221.49 159.80 222.76 Z M 159.81 223.71 L 159.80 224.78 C 159.80 226.04 160.82 227.07 162.09 227.07 C 163.35 227.07 164.37 226.05 164.37 224.79 L 164.38 223.71 C 164.38 222.45 163.36 221.43 162.09 221.43 C 160.83 221.43 159.81 222.45 159.81 223.71 Z M 159.81 224.77 L 159.80 225.76 C 159.79 227.02 160.81 228.05 162.07 228.06 C 163.32 228.07 164.35 227.05 164.36 225.80 L 164.37 224.80 C 164.38 223.54 163.36 222.51 162.11 222.50 C 160.85 222.49 159.82 223.51 159.81 224.77 Z M 159.81 225.74 L 159.79 226.69 C 159.77 227.94 160.77 228.98 162.02 229.00 C 163.28 229.03 164.31 228.03 164.34 226.77 L 164.35 225.82 C 164.38 224.57 163.38 223.53 162.12 223.51 C 160.87 223.48 159.83 224.48 159.81 225.74 Z M 159.80 226.65 L 159.76 227.60 C 159.72 228.85 160.70 229.90 161.95 229.95 C 163.20 229.99 164.25 229.01 164.30 227.76 L 164.33 226.81 C 164.37 225.56 163.40 224.51 162.14 224.46 C 160.89 224.42 159.84 225.40 159.80 226.65 Z M 159.78 227.54 L 159.71 228.56 C 159.64 229.81 160.58 230.88 161.83 230.96 C 163.07 231.03 164.14 230.09 164.22 228.84 L 164.28 227.82 C 164.36 226.58 163.41 225.51 162.17 225.43 C 160.92 225.35 159.85 226.30 159.78 227.54 Z M 159.73 228.46 L 159.63 229.47 C 159.49 230.70 160.39 231.81 161.62 231.94 C 162.85 232.07 163.96 231.18 164.09 229.95 L 164.20 228.94 C 164.33 227.71 163.44 226.60 162.21 226.47 C 160.97 226.34 159.86 227.23 159.73 228.46 Z M 159.66 229.32 L 159.49 230.29 C 159.27 231.51 160.09 232.66 161.30 232.88 C 162.52 233.09 163.68 232.28 163.89 231.06 L 164.06 230.09 C 164.28 228.88 163.46 227.72 162.25 227.50 C 161.03 227.29 159.87 228.10 159.66 229.32 Z M 159.55 230.08 L 159.28 231.06 C 158.95 232.24 159.64 233.46 160.82 233.79 C 162.00 234.12 163.22 233.43 163.55 232.25 L 163.83 231.27 C 164.16 230.09 163.47 228.87 162.29 228.54 C 161.11 228.21 159.88 228.90 159.55 230.08 Z M 159.42 230.77 L 159.00 231.70 C 158.51 232.81 159.00 234.10 160.11 234.59 C 161.21 235.08 162.51 234.59 163.00 233.48 L 163.41 232.54 C 163.91 231.44 163.41 230.15 162.30 229.66 C 161.20 229.16 159.91 229.66 159.42 230.77 Z M 159.25 231.34 L 158.69 232.13 C 157.99 233.09 158.21 234.44 159.18 235.13 C 160.15 235.82 161.49 235.60 162.18 234.63 L 162.75 233.85 C 163.44 232.88 163.22 231.54 162.25 230.85 C 161.29 230.15 159.94 230.37 159.25 231.34 Z M 159.11 231.74 L 158.36 232.35 C 157.46 233.08 157.31 234.40 158.04 235.31 C 158.78 236.21 160.10 236.36 161.01 235.62 L 161.76 235.02 C 162.66 234.29 162.80 232.96 162.07 232.06 C 161.34 231.15 160.02 231.01 159.11 231.74 Z M 158.94 232.09 L 157.99 232.47 C 156.95 232.88 156.43 234.05 156.84 235.10 C 157.25 236.14 158.43 236.66 159.47 236.25 L 160.42 235.88 C 161.47 235.47 161.98 234.29 161.58 233.25 C 161.17 232.20 159.99 231.69 158.94 232.09 Z M 158.64 232.42 L 157.65 232.47 C 156.59 232.52 155.76 233.43 155.81 234.50 C 155.86 235.57 156.77 236.39 157.84 236.34 L 158.82 236.29 C 159.89 236.24 160.72 235.34 160.67 234.27 C 160.62 233.20 159.71 232.37 158.64 232.42 Z M 158.38 232.67 L 157.51 232.35 C 156.55 232.01 155.49 232.50 155.14 233.46 C 154.79 234.42 155.29 235.48 156.25 235.82 L 157.12 236.14 C 158.07 236.49 159.13 235.99 159.48 235.04 C 159.83 234.08 159.33 233.02 158.38 232.67 Z M 158.07 232.78 L 157.38 232.15 C 156.65 231.50 155.53 231.55 154.88 232.27 C 154.22 232.99 154.27 234.11 154.99 234.77 L 155.69 235.40 C 156.41 236.05 157.53 236.00 158.18 235.28 C 158.84 234.56 158.79 233.44 158.07 232.78 Z M 157.57 232.48 L 156.98 231.64 C 156.44 230.88 155.38 230.69 154.61 231.24 C 153.85 231.78 153.66 232.84 154.21 233.61 L 154.80 234.44 C 155.34 235.21 156.40 235.39 157.17 234.85 C 157.93 234.31 158.12 233.25 157.57 232.48 Z M 157.00 231.79 L 156.57 231.06 C 156.11 230.29 155.11 230.03 154.33 230.49 C 153.55 230.95 153.29 231.96 153.75 232.74 L 154.18 233.46 C 154.65 234.24 155.65 234.50 156.43 234.03 C 157.21 233.57 157.47 232.57 157.00 231.79 Z"
      fill="black"
      fill-rule="nonzero" /><path d="M 140.63 177.94 L 141.49 178.23 C 142.63 178.60 143.85 177.98 144.22 176.85 C 144.59 175.72 143.98 174.50 142.85 174.12 L 141.98 173.84 C 140.85 173.47 139.63 174.08 139.26 175.22 C 138.88 176.35 139.50 177.57 140.63 177.94 Z M 141.56 178.18 L 142.46 178.46 C 143.57 178.79 144.74 178.17 145.08 177.07 C 145.42 175.96 144.79 174.79 143.69 174.45 L 142.78 174.17 C 141.68 173.84 140.51 174.46 140.17 175.56 C 139.83 176.67 140.45 177.84 141.56 178.18 Z M 142.55 178.41 L 143.55 178.68 C 144.63 178.97 145.74 178.32 146.03 177.24 C 146.32 176.16 145.68 175.05 144.60 174.76 L 143.60 174.50 C 142.52 174.21 141.41 174.85 141.12 175.93 C 140.83 177.01 141.47 178.12 142.55 178.41 Z M 143.65 178.64 L 144.72 178.88 C 145.78 179.11 146.83 178.44 147.07 177.38 C 147.30 176.32 146.63 175.28 145.57 175.04 L 144.50 174.80 C 143.44 174.57 142.39 175.24 142.16 176.30 C 141.92 177.35 142.59 178.40 143.65 178.64 Z M 144.80 178.85 L 145.77 179.03 C 146.81 179.22 147.82 178.54 148.01 177.50 C 148.21 176.45 147.52 175.45 146.48 175.25 L 145.50 175.07 C 144.46 174.88 143.46 175.56 143.26 176.60 C 143.07 177.65 143.75 178.65 144.80 178.85 Z M 145.79 179.01 L 146.82 179.19 C 147.85 179.37 148.83 178.68 149.01 177.65 C 149.19 176.62 148.51 175.64 147.48 175.46 L 146.46 175.28 C 145.43 175.10 144.44 175.78 144.26 176.81 C 144.08 177.84 144.77 178.82 145.79 179.01 Z M 146.81 179.16 L 147.83 179.35 C 148.84 179.53 149.81 178.86 150.00 177.85 C 150.19 176.84 149.52 175.87 148.51 175.68 L 147.49 175.49 C 146.47 175.30 145.50 175.97 145.31 176.98 C 145.13 178.00 145.80 178.97 146.81 179.16 Z M 147.79 179.31 L 148.76 179.52 C 149.75 179.73 150.72 179.09 150.93 178.10 C 151.15 177.11 150.51 176.13 149.52 175.92 L 148.55 175.71 C 147.56 175.50 146.58 176.14 146.37 177.13 C 146.16 178.12 146.79 179.10 147.79 179.31 Z M 148.66 179.46 L 149.65 179.73 C 150.62 180.00 151.61 179.43 151.88 178.46 C 152.14 177.50 151.57 176.51 150.61 176.24 L 149.61 175.97 C 148.65 175.71 147.65 176.28 147.39 177.24 C 147.13 178.21 147.70 179.20 148.66 179.46 Z M 149.45 179.64 L 150.46 180.05 C 151.37 180.43 152.41 179.99 152.79 179.08 C 153.16 178.17 152.73 177.13 151.82 176.76 L 150.81 176.34 C 149.90 175.97 148.86 176.40 148.48 177.31 C 148.11 178.22 148.54 179.26 149.45 179.64 Z M 150.12 179.83 L 150.88 180.38 C 151.67 180.94 152.77 180.76 153.33 179.97 C 153.89 179.18 153.71 178.08 152.92 177.52 L 152.16 176.97 C 151.37 176.41 150.27 176.60 149.71 177.39 C 149.15 178.18 149.33 179.27 150.12 179.83 Z M 150.51 179.98 L 151.04 180.69 C 151.61 181.46 152.69 181.62 153.46 181.05 C 154.23 180.48 154.39 179.40 153.82 178.63 L 153.29 177.92 C 152.72 177.15 151.64 176.99 150.87 177.56 C 150.10 178.13 149.94 179.21 150.51 179.98 Z M 150.81 180.23 L 151.11 181.09 C 151.42 181.99 152.40 182.46 153.30 182.15 C 154.19 181.83 154.67 180.85 154.35 179.96 L 154.05 179.09 C 153.74 178.20 152.76 177.73 151.86 178.04 C 150.97 178.35 150.50 179.33 150.81 180.23 Z M 151.02 180.72 L 151.14 181.71 C 151.25 182.66 152.10 183.33 153.05 183.23 C 153.99 183.12 154.67 182.26 154.56 181.32 L 154.44 180.33 C 154.33 179.38 153.48 178.70 152.53 178.81 C 151.59 178.92 150.91 179.78 151.02 180.72 Z M 151.12 181.41 L 151.06 182.46 C 151.00 183.41 151.73 184.23 152.68 184.28 C 153.64 184.34 154.45 183.61 154.51 182.66 L 154.57 181.62 C 154.63 180.66 153.90 179.85 152.95 179.79 C 152.00 179.73 151.18 180.46 151.12 181.41 Z M 151.08 182.18 L 150.87 183.18 C 150.66 184.12 151.25 185.05 152.19 185.26 C 153.13 185.46 154.06 184.87 154.27 183.93 L 154.49 182.93 C 154.69 181.99 154.10 181.06 153.16 180.86 C 152.22 180.65 151.29 181.24 151.08 182.18 Z M 150.91 182.93 L 150.56 183.84 C 150.22 184.76 150.68 185.78 151.59 186.13 C 152.50 186.47 153.53 186.01 153.87 185.10 L 154.22 184.18 C 154.57 183.27 154.11 182.25 153.19 181.90 C 152.28 181.55 151.26 182.01 150.91 182.93 Z M 150.62 183.63 L 150.16 184.50 C 149.69 185.39 150.03 186.48 150.91 186.95 C 151.79 187.41 152.89 187.08 153.35 186.19 L 153.82 185.32 C 154.28 184.43 153.95 183.34 153.06 182.87 C 152.18 182.40 151.09 182.74 150.62 183.63 Z M 150.21 184.33 L 149.65 185.18 C 149.09 186.03 149.32 187.18 150.17 187.74 C 151.02 188.30 152.17 188.07 152.73 187.22 L 153.30 186.37 C 153.86 185.52 153.63 184.37 152.77 183.81 C 151.92 183.24 150.78 183.48 150.21 184.33 Z M 149.70 185.05 L 149.08 185.85 C 148.44 186.67 148.60 187.86 149.43 188.49 C 150.25 189.13 151.44 188.98 152.08 188.15 L 152.69 187.35 C 153.33 186.52 153.17 185.34 152.34 184.70 C 151.52 184.06 150.33 184.22 149.70 185.05 Z M 149.11 185.74 L 148.45 186.51 C 147.76 187.32 147.86 188.54 148.67 189.24 C 149.48 189.93 150.70 189.83 151.40 189.02 L 152.05 188.25 C 152.74 187.44 152.65 186.22 151.83 185.52 C 151.02 184.83 149.80 184.93 149.11 185.74 Z M 148.46 186.42 L 147.78 187.17 C 147.04 187.97 147.09 189.23 147.90 189.97 C 148.71 190.71 149.96 190.66 150.70 189.85 L 151.39 189.10 C 152.13 188.30 152.07 187.04 151.27 186.30 C 150.46 185.56 149.21 185.61 148.46 186.42 Z M 147.78 187.09 L 147.09 187.81 C 146.31 188.62 146.33 189.90 147.13 190.68 C 147.94 191.46 149.22 191.44 150.01 190.64 L 150.70 189.92 C 151.48 189.11 151.46 187.83 150.65 187.05 C 149.85 186.27 148.56 186.29 147.78 187.09 Z M 147.08 187.75 L 146.35 188.48 C 145.54 189.29 145.54 190.60 146.35 191.41 C 147.16 192.23 148.47 192.23 149.28 191.42 L 150.01 190.69 C 150.82 189.89 150.83 188.57 150.02 187.76 C 149.21 186.95 147.89 186.94 147.08 187.75 Z M 146.35 188.43 L 145.61 189.14 C 144.77 189.95 144.75 191.29 145.56 192.13 C 146.37 192.97 147.71 192.99 148.55 192.18 L 149.29 191.47 C 150.13 190.66 150.15 189.32 149.34 188.48 C 148.53 187.64 147.19 187.62 146.35 188.43 Z M 145.61 189.09 L 144.89 189.77 C 144.02 190.58 143.98 191.95 144.80 192.81 C 145.61 193.68 146.97 193.72 147.84 192.90 L 148.56 192.23 C 149.42 191.41 149.46 190.05 148.65 189.19 C 147.83 188.32 146.47 188.28 145.61 189.09 Z M 144.88 189.73 L 144.18 190.37 C 143.29 191.19 143.23 192.57 144.05 193.46 C 144.87 194.35 146.25 194.41 147.14 193.59 L 147.84 192.95 C 148.73 192.13 148.79 190.75 147.98 189.86 C 147.16 188.97 145.77 188.91 144.88 189.73 Z M 144.15 190.35 L 143.18 191.26 C 142.27 192.09 142.22 193.49 143.05 194.39 C 143.88 195.30 145.29 195.35 146.19 194.52 L 147.17 193.61 C 148.07 192.78 148.13 191.38 147.29 190.47 C 146.46 189.57 145.05 189.52 144.15 190.35 Z M 142.94 191.46 L 142.40 192.12 C 141.62 193.08 141.76 194.50 142.72 195.29 C 143.69 196.07 145.11 195.93 145.89 194.97 L 146.43 194.31 C 147.21 193.35 147.07 191.93 146.11 191.14 C 145.14 190.36 143.73 190.50 142.94 191.46 Z M 142.77 195.35 L 143.05 195.56 C 144.05 196.32 145.48 196.13 146.23 195.13 C 146.99 194.13 146.80 192.70 145.80 191.95 L 145.52 191.73 C 144.52 190.98 143.10 191.17 142.34 192.17 C 141.58 193.17 141.78 194.59 142.77 195.35 Z M 144.85 195.99 L 145.79 195.81 C 147.02 195.58 147.84 194.39 147.60 193.16 C 147.37 191.92 146.18 191.11 144.95 191.34 L 144.00 191.52 C 142.77 191.75 141.96 192.94 142.19 194.18 C 142.42 195.41 143.61 196.22 144.85 195.99 Z M 146.10 195.73 L 147.35 195.30 C 148.53 194.90 149.17 193.61 148.76 192.42 C 148.36 191.24 147.07 190.60 145.88 191.00 L 144.64 191.43 C 143.45 191.83 142.82 193.12 143.22 194.31 C 143.62 195.49 144.91 196.13 146.10 195.73 Z M 147.51 195.21 L 148.40 194.82 C 149.53 194.33 150.05 193.01 149.56 191.88 C 149.07 190.74 147.75 190.22 146.62 190.71 L 145.73 191.10 C 144.59 191.59 144.07 192.91 144.56 194.04 C 145.05 195.18 146.37 195.70 147.51 195.21 Z M 148.49 194.72 L 149.36 194.28 C 150.44 193.74 150.88 192.43 150.34 191.35 C 149.80 190.27 148.49 189.83 147.41 190.37 L 146.53 190.81 C 145.45 191.35 145.01 192.67 145.55 193.75 C 146.09 194.83 147.41 195.26 148.49 194.72 Z M 149.42 194.19 L 150.30 193.70 C 151.33 193.13 151.71 191.84 151.14 190.81 C 150.57 189.78 149.27 189.40 148.24 189.97 L 147.35 190.46 C 146.32 191.03 145.95 192.33 146.52 193.36 C 147.09 194.39 148.38 194.76 149.42 194.19 Z M 150.32 193.63 L 151.19 193.12 C 152.18 192.54 152.51 191.27 151.93 190.28 C 151.35 189.29 150.08 188.96 149.09 189.54 L 148.22 190.05 C 147.23 190.63 146.90 191.90 147.48 192.89 C 148.06 193.88 149.33 194.21 150.32 193.63 Z M 151.19 193.06 L 151.99 192.58 C 152.94 192.00 153.25 190.75 152.67 189.80 C 152.09 188.84 150.84 188.53 149.89 189.11 L 149.09 189.60 C 148.13 190.18 147.82 191.42 148.40 192.38 C 148.98 193.34 150.23 193.64 151.19 193.06 Z M 151.98 192.52 L 152.82 192.00 C 153.74 191.42 154.02 190.20 153.44 189.28 C 152.86 188.35 151.64 188.07 150.72 188.65 L 149.89 189.17 C 148.96 189.75 148.68 190.97 149.26 191.90 C 149.84 192.82 151.06 193.10 151.98 192.52 Z M 152.82 191.94 L 153.68 191.38 C 154.57 190.80 154.82 189.61 154.24 188.71 C 153.66 187.82 152.47 187.57 151.58 188.15 L 150.72 188.71 C 149.83 189.29 149.58 190.48 150.16 191.37 C 150.73 192.26 151.93 192.52 152.82 191.94 Z M 153.68 191.31 L 154.57 190.71 C 155.43 190.13 155.65 188.96 155.08 188.11 C 154.50 187.25 153.33 187.03 152.48 187.61 L 151.58 188.21 C 150.72 188.79 150.50 189.96 151.08 190.81 C 151.66 191.67 152.82 191.89 153.68 191.31 Z M 154.58 190.65 L 155.35 190.11 C 156.18 189.52 156.38 188.39 155.80 187.56 C 155.22 186.73 154.08 186.54 153.25 187.12 L 152.47 187.66 C 151.65 188.24 151.45 189.38 152.03 190.21 C 152.61 191.03 153.75 191.23 154.58 190.65 Z M 155.36 190.06 L 156.15 189.48 C 156.94 188.90 157.12 187.78 156.54 186.98 C 155.95 186.18 154.84 186.01 154.04 186.59 L 153.25 187.16 C 152.45 187.75 152.28 188.87 152.86 189.67 C 153.44 190.46 154.56 190.64 155.36 190.06 Z M 156.15 189.43 L 156.95 188.82 C 157.72 188.24 157.87 187.14 157.28 186.37 C 156.70 185.60 155.60 185.45 154.83 186.03 L 154.03 186.64 C 153.26 187.23 153.11 188.33 153.70 189.10 C 154.28 189.87 155.38 190.02 156.15 189.43 Z M 156.96 188.77 L 157.76 188.14 C 158.50 187.55 158.62 186.47 158.03 185.73 C 157.44 184.99 156.36 184.86 155.62 185.45 L 154.82 186.09 C 154.08 186.68 153.96 187.75 154.55 188.50 C 155.14 189.24 156.21 189.36 156.96 188.77 Z M 157.76 188.08 L 158.56 187.42 C 159.27 186.82 159.37 185.76 158.78 185.05 C 158.18 184.34 157.13 184.25 156.41 184.84 L 155.62 185.51 C 154.90 186.10 154.81 187.16 155.40 187.87 C 156.00 188.58 157.05 188.67 157.76 188.08 Z M 158.58 187.37 L 159.33 186.71 C 160.02 186.10 160.08 185.06 159.48 184.38 C 158.88 183.69 157.84 183.62 157.15 184.22 L 156.40 184.89 C 155.71 185.49 155.65 186.53 156.25 187.22 C 156.85 187.90 157.89 187.97 158.58 187.37 Z M 159.35 186.67 L 160.08 186.00 C 160.75 185.39 160.79 184.35 160.18 183.69 C 159.57 183.02 158.53 182.97 157.87 183.59 L 157.13 184.26 C 156.47 184.87 156.42 185.91 157.03 186.57 C 157.65 187.24 158.68 187.29 159.35 186.67 Z M 160.10 185.98 L 160.82 185.29 C 161.48 184.67 161.50 183.64 160.88 182.98 C 160.26 182.33 159.23 182.30 158.57 182.92 L 157.85 183.61 C 157.19 184.23 157.17 185.27 157.79 185.92 C 158.41 186.57 159.44 186.60 160.10 185.98 Z M 160.83 185.27 L 161.55 184.57 C 162.20 183.94 162.21 182.91 161.58 182.27 C 160.95 181.63 159.92 181.61 159.28 182.24 L 158.56 182.94 C 157.92 183.57 157.91 184.60 158.53 185.24 C 159.16 185.89 160.19 185.90 160.83 185.27 Z M 161.56 184.56 L 162.27 183.85 C 162.91 183.22 162.91 182.19 162.28 181.56 C 161.65 180.92 160.63 180.92 159.99 181.55 L 159.28 182.25 C 158.64 182.88 158.64 183.91 159.27 184.55 C 159.90 185.18 160.92 185.19 161.56 184.56 Z M 162.27 183.84 L 162.92 183.19 C 163.55 182.56 163.56 181.54 162.93 180.91 C 162.30 180.28 161.27 180.27 160.64 180.90 L 159.99 181.55 C 159.36 182.18 159.36 183.21 159.99 183.84 C 160.62 184.47 161.64 184.47 162.27 183.84 Z"
      fill="black"
      fill-rule="nonzero" /></svg>