<svg xmlns="http://www.w3.org/2000/svg" width="300" height="300" viewBox="0 0 300 300">
<path d="M 127.21 113.25 L 128.19 113.28 C 129.54 113.33 130.67 112.28 130.72 110.93 C 130.76 109.58 129.71 108.45 128.36 108.40 L 127.39 108.37 C 126.04 108.32 124.91 109.37 124.86 110.72 C 124.81 112.07 125.87 113.20 127.21 113.25 Z M 128.21 113.30 L 129.20 113.32 C 130.55 113.36 131.68 112.29 131.72 110.94 C 131.75 109.58 130.68 108.45 129.33 108.42 L 128.34 108.39 C 126.99 108.35 125.86 109.42 125.82 110.78 C 125.79 112.13 126.86 113.26 128.21 113.30 Z M 129.24 113.34 L 130.24 113.35 C 131.60 113.36 132.72 112.27 132.73 110.91 C 132.75 109.54 131.65 108.43 130.29 108.41 L 129.29 108.40 C 127.93 108.39 126.81 109.48 126.80 110.84 C 126.78 112.21 127.87 113.32 129.24 113.34 Z M 130.29 113.36 L 131.32 113.35 C 132.69 113.33 133.79 112.21 133.77 110.84 C 133.75 109.47 132.63 108.37 131.26 108.39 L 130.23 108.40 C 128.86 108.42 127.77 109.54 127.78 110.91 C 127.80 112.28 128.92 113.38 130.29 113.36 Z M 131.39 113.35 L 132.35 113.31 C 133.73 113.26 134.79 112.10 134.74 110.73 C 134.68 109.36 133.53 108.29 132.15 108.34 L 131.19 108.38 C 129.81 108.44 128.75 109.60 128.80 110.97 C 128.86 112.34 130.02 113.41 131.39 113.35 Z M 132.41 113.31 L 133.37 113.25 C 134.74 113.16 135.78 111.98 135.69 110.61 C 135.61 109.24 134.43 108.20 133.06 108.29 L 132.09 108.35 C 130.72 108.44 129.68 109.62 129.77 110.99 C 129.86 112.36 131.04 113.40 132.41 113.31 Z M 133.42 113.24 L 134.41 113.16 C 135.77 113.05 136.79 111.85 136.68 110.48 C 136.57 109.12 135.37 108.10 134.00 108.21 L 133.01 108.29 C 131.65 108.41 130.63 109.60 130.74 110.97 C 130.85 112.33 132.05 113.35 133.42 113.24 Z M 134.44 113.15 L 135.46 113.06 C 136.82 112.93 137.82 111.72 137.69 110.36 C 137.56 109.00 136.35 108.00 134.99 108.12 L 133.97 108.22 C 132.61 108.35 131.61 109.56 131.74 110.92 C 131.87 112.28 133.07 113.28 134.44 113.15 Z M 135.48 113.05 L 136.53 112.94 C 137.89 112.80 138.87 111.59 138.74 110.23 C 138.60 108.87 137.38 107.89 136.03 108.02 L 134.97 108.13 C 133.62 108.27 132.63 109.48 132.77 110.84 C 132.90 112.20 134.12 113.19 135.48 113.05 Z M 136.54 112.93 L 137.51 112.83 C 138.86 112.69 139.85 111.48 139.70 110.12 C 139.56 108.77 138.35 107.79 136.99 107.93 L 136.02 108.03 C 134.66 108.17 133.68 109.39 133.83 110.74 C 133.97 112.10 135.18 113.08 136.54 112.93 Z M 137.52 112.82 L 138.50 112.72 C 139.85 112.57 140.83 111.36 140.68 110.01 C 140.53 108.66 139.32 107.68 137.97 107.83 L 136.99 107.94 C 135.64 108.08 134.66 109.30 134.81 110.65 C 134.96 111.99 136.17 112.97 137.52 112.82 Z M 138.51 112.71 L 139.51 112.59 C 140.85 112.44 141.82 111.23 141.67 109.89 C 141.52 108.54 140.31 107.58 138.96 107.73 L 137.96 107.84 C 136.62 107.99 135.65 109.20 135.80 110.55 C 135.96 111.89 137.17 112.86 138.51 112.71 Z M 139.52 112.58 L 140.53 112.47 C 141.86 112.31 142.82 111.10 142.66 109.76 C 142.51 108.42 141.30 107.46 139.96 107.62 L 138.95 107.74 C 137.61 107.89 136.66 109.11 136.81 110.44 C 136.97 111.78 138.18 112.74 139.52 112.58 Z M 140.54 112.45 L 141.54 112.33 C 142.87 112.17 143.82 110.96 143.66 109.62 C 143.50 108.29 142.28 107.34 140.95 107.51 L 139.95 107.63 C 138.61 107.79 137.67 109.01 137.83 110.34 C 137.99 111.67 139.21 112.62 140.54 112.45 Z M 141.56 112.32 L 142.56 112.19 C 143.88 112.02 144.82 110.81 144.65 109.48 C 144.48 108.16 143.27 107.22 141.94 107.39 L 140.94 107.52 C 139.61 107.69 138.68 108.90 138.85 110.23 C 139.02 111.55 140.23 112.49 141.56 112.32 Z M 142.57 112.18 L 143.56 112.04 C 144.88 111.86 145.81 110.65 145.63 109.33 C 145.45 108.02 144.24 107.09 142.92 107.27 L 141.93 107.40 C 140.61 107.58 139.68 108.79 139.86 110.11 C 140.04 111.43 141.25 112.35 142.57 112.18 Z M 143.57 112.03 L 144.56 111.89 C 145.87 111.71 146.79 110.50 146.60 109.19 C 146.42 107.88 145.21 106.97 143.90 107.15 L 142.91 107.29 C 141.60 107.47 140.69 108.68 140.87 109.99 C 141.06 111.30 142.26 112.21 143.57 112.03 Z M 144.57 111.87 L 145.56 111.73 C 146.86 111.55 147.76 110.34 147.57 109.04 C 147.39 107.74 146.18 106.84 144.88 107.02 L 143.90 107.16 C 142.60 107.35 141.69 108.55 141.88 109.85 C 142.06 111.16 143.27 112.06 144.57 111.87 Z M 145.56 111.72 L 146.54 111.58 C 147.84 111.39 148.73 110.19 148.55 108.90 C 148.36 107.60 147.16 106.71 145.87 106.89 L 144.88 107.04 C 143.59 107.22 142.69 108.42 142.88 109.72 C 143.07 111.01 144.26 111.91 145.56 111.72 Z M 146.54 111.56 L 147.51 111.42 C 148.80 111.23 149.69 110.04 149.50 108.76 C 149.31 107.47 148.12 106.58 146.84 106.77 L 145.87 106.91 C 144.58 107.10 143.69 108.29 143.88 109.57 C 144.06 110.86 145.26 111.75 146.54 111.56 Z M 147.51 111.41 L 148.39 111.28 C 149.66 111.09 150.55 109.91 150.37 108.63 C 150.18 107.36 149.00 106.47 147.72 106.66 L 146.84 106.78 C 145.57 106.97 144.68 108.15 144.86 109.43 C 145.05 110.70 146.23 111.59 147.51 111.41 Z M 148.38 111.26 L 149.28 111.13 C 150.55 110.95 151.43 109.78 151.25 108.51 C 151.07 107.25 149.90 106.37 148.63 106.55 L 147.73 106.67 C 146.46 106.85 145.58 108.03 145.76 109.29 C 145.94 110.56 147.11 111.44 148.38 111.26 Z M 149.28 111.12 L 150.22 110.99 C 151.48 110.81 152.36 109.65 152.18 108.39 C 152.01 107.13 150.85 106.26 149.59 106.43 L 148.64 106.56 C 147.38 106.74 146.51 107.90 146.68 109.16 C 146.86 110.41 148.02 111.29 149.28 111.12 Z M 150.21 110.97 L 151.21 110.83 C 152.46 110.67 153.34 109.52 153.17 108.27 C 153.00 107.02 151.85 106.14 150.60 106.31 L 149.60 106.45 C 148.35 106.62 147.47 107.76 147.64 109.01 C 147.81 110.26 148.96 111.14 150.21 110.97 Z M 151.20 110.82 L 152.28 110.68 C 153.52 110.51 154.39 109.38 154.23 108.14 C 154.07 106.90 152.93 106.02 151.69 106.19 L 150.61 106.33 C 149.37 106.49 148.50 107.63 148.66 108.87 C 148.82 110.11 149.96 110.98 151.20 110.82 Z M 152.27 110.66 L 153.42 110.52 C 154.65 110.36 155.52 109.23 155.36 108.00 C 155.21 106.77 154.08 105.90 152.85 106.06 L 151.70 106.20 C 150.47 106.36 149.60 107.48 149.76 108.71 C 149.91 109.95 151.04 110.82 152.27 110.66 Z M 153.41 110.50 L 154.35 110.38 C 155.58 110.23 156.45 109.12 156.29 107.90 C 156.14 106.67 155.03 105.80 153.81 105.95 L 152.86 106.07 C 151.64 106.22 150.77 107.34 150.92 108.56 C 151.07 109.78 152.18 110.65 153.41 110.50 Z M 154.34 110.37 L 155.34 110.25 C 156.55 110.11 157.42 109.00 157.27 107.78 C 157.13 106.57 156.02 105.70 154.80 105.85 L 153.81 105.97 C 152.60 106.11 151.73 107.22 151.88 108.43 C 152.02 109.65 153.13 110.52 154.34 110.37 Z M 155.33 110.24 L 156.35 110.12 C 157.56 109.98 158.42 108.88 158.28 107.67 C 158.14 106.46 157.04 105.60 155.83 105.74 L 154.81 105.86 C 153.60 106.00 152.74 107.10 152.88 108.31 C 153.02 109.52 154.12 110.38 155.33 110.24 Z M 156.34 110.11 L 157.38 109.99 C 158.58 109.85 159.44 108.76 159.30 107.56 C 159.16 106.36 158.07 105.49 156.87 105.63 L 155.84 105.75 C 154.64 105.89 153.77 106.98 153.91 108.18 C 154.05 109.38 155.14 110.25 156.34 110.11 Z M 157.37 109.97 L 158.40 109.86 C 159.60 109.72 160.46 108.64 160.32 107.45 C 160.18 106.25 159.10 105.39 157.91 105.53 L 156.88 105.65 C 155.68 105.78 154.82 106.86 154.96 108.06 C 155.10 109.25 156.18 110.11 157.37 109.97 Z M 158.40 109.84 L 159.41 109.73 C 160.60 109.60 161.45 108.53 161.32 107.34 C 161.19 106.15 160.12 105.30 158.93 105.43 L 157.92 105.54 C 156.73 105.67 155.87 106.74 156.01 107.93 C 156.14 109.12 157.21 109.97 158.40 109.84 Z M 159.40 109.72 L 160.39 109.61 C 161.57 109.48 162.42 108.42 162.29 107.24 C 162.16 106.06 161.10 105.21 159.92 105.33 L 158.94 105.44 C 157.76 105.57 156.90 106.63 157.03 107.81 C 157.16 108.99 158.22 109.85 159.40 109.72 Z M 160.38 109.60 L 161.31 109.50 C 162.49 109.37 163.34 108.32 163.21 107.15 C 163.09 105.97 162.03 105.12 160.86 105.25 L 159.93 105.35 C 158.75 105.47 157.90 106.53 158.03 107.70 C 158.15 108.87 159.21 109.72 160.38 109.60 Z M 161.30 109.47 L 162.55 109.34 C 163.70 109.22 164.55 108.19 164.43 107.03 C 164.31 105.87 163.27 105.03 162.11 105.15 L 160.87 105.27 C 159.71 105.39 158.87 106.43 158.99 107.59 C 159.11 108.75 160.14 109.59 161.30 109.47 Z M 162.53 109.30 L 163.65 109.19 C 164.79 109.08 165.62 108.07 165.51 106.93 C 165.40 105.80 164.38 104.97 163.25 105.08 L 162.13 105.19 C 160.99 105.30 160.16 106.31 160.27 107.45 C 160.38 108.58 161.40 109.41 162.53 109.30 Z M 163.64 109.15 L 164.65 109.05 C 165.76 108.95 166.58 107.97 166.48 106.85 C 166.37 105.74 165.39 104.92 164.28 105.02 L 163.26 105.12 C 162.15 105.22 161.33 106.21 161.44 107.32 C 161.54 108.43 162.53 109.25 163.64 109.15 Z M 164.64 109.01 L 165.55 108.93 C 166.64 108.84 167.45 107.88 167.35 106.79 C 167.26 105.70 166.29 104.89 165.20 104.99 L 164.29 105.07 C 163.20 105.16 162.39 106.12 162.49 107.21 C 162.58 108.30 163.55 109.11 164.64 109.01 Z M 165.53 108.89 L 166.36 108.83 C 167.43 108.74 168.22 107.80 168.14 106.74 C 168.05 105.67 167.11 104.87 166.05 104.96 L 165.22 105.03 C 164.15 105.11 163.36 106.05 163.44 107.12 C 163.53 108.18 164.47 108.98 165.53 108.89 Z M 166.34 108.78 L 167.46 108.70 C 168.50 108.62 169.28 107.72 169.21 106.67 C 169.13 105.63 168.22 104.85 167.18 104.92 L 166.07 105.00 C 165.02 105.08 164.24 105.99 164.31 107.03 C 164.39 108.07 165.30 108.86 166.34 108.78 Z M 167.41 108.65 L 168.65 108.59 C 169.66 108.53 170.44 107.67 170.39 106.65 C 170.33 105.64 169.47 104.86 168.45 104.91 L 167.22 104.97 C 166.21 105.03 165.43 105.89 165.48 106.91 C 165.53 107.92 166.40 108.70 167.41 108.65 Z M 168.40 108.52 L 168.80 108.56 C 169.78 108.64 170.64 107.91 170.72 106.93 C 170.80 105.95 170.07 105.08 169.09 105.00 L 168.70 104.97 C 167.72 104.89 166.85 105.62 166.77 106.60 C 166.69 107.58 167.42 108.44 168.40 108.52 Z M 168.54 105.10 L 168.01 105.22 C 167.08 105.45 166.51 106.38 166.73 107.31 C 166.95 108.24 167.89 108.82 168.82 108.59 L 169.35 108.46 C 170.28 108.24 170.85 107.30 170.63 106.37 C 170.40 105.44 169.47 104.87 168.54 105.10 Z M 168.13 105.24 L 167.01 105.43 C 166.09 105.59 165.47 106.47 165.63 107.39 C 165.79 108.31 166.66 108.93 167.58 108.77 L 168.70 108.57 C 169.62 108.42 170.24 107.54 170.08 106.62 C 169.92 105.70 169.05 105.08 168.13 105.24 Z M 167.03 105.47 L 165.98 105.64 C 165.08 105.78 164.47 106.63 164.62 107.53 C 164.76 108.43 165.61 109.05 166.51 108.90 L 167.56 108.73 C 168.46 108.59 169.07 107.74 168.93 106.84 C 168.78 105.94 167.93 105.32 167.03 105.47 Z"
      fill="black"
      fill-rule="nonzero" /><path d="M 150.09 108.31 L 149.18 108.75 C 148.14 109.25 147.71 110.51 148.22 111.55 C 148.72 112.59 149.98 113.03 151.02 112.52 L 151.92 112.08 C 152.97 111.57 153.40 110.32 152.89 109.28 C 152.39 108.23 151.13 107.80 150.09 108.31 Z M 149.05 108.78 L 148.18 109.27 C 147.16 109.85 146.80 111.15 147.38 112.17 C 147.96 113.20 149.26 113.56 150.28 112.98 L 151.15 112.49 C 152.18 111.91 152.54 110.61 151.96 109.58 C 151.38 108.56 150.08 108.20 149.05 108.78 Z M 147.94 109.39 L 147.14 109.99 C 146.19 110.70 145.99 112.06 146.71 113.01 C 147.42 113.97 148.78 114.16 149.74 113.45 L 150.53 112.86 C 151.49 112.14 151.68 110.78 150.97 109.83 C 150.25 108.87 148.89 108.68 147.94 109.39 Z M 146.85 110.22 L 146.20 110.91 C 145.38 111.79 145.42 113.17 146.30 114.00 C 147.18 114.82 148.56 114.78 149.39 113.90 L 150.03 113.21 C 150.86 112.33 150.81 110.95 149.94 110.13 C 149.06 109.30 147.67 109.34 146.85 110.22 Z M 146.00 111.15 L 145.45 111.95 C 144.75 112.94 145.00 114.30 145.99 115.00 C 146.98 115.69 148.35 115.44 149.04 114.45 L 149.59 113.66 C 150.28 112.66 150.04 111.30 149.05 110.61 C 148.06 109.92 146.69 110.16 146.00 111.15 Z M 145.33 112.12 L 144.83 113.02 C 144.23 114.07 144.60 115.41 145.66 116.00 C 146.71 116.60 148.05 116.23 148.64 115.17 L 149.15 114.28 C 149.75 113.22 149.37 111.89 148.32 111.29 C 147.26 110.70 145.93 111.07 145.33 112.12 Z M 144.77 113.11 L 144.31 114.05 C 143.77 115.13 144.21 116.45 145.29 116.99 C 146.37 117.53 147.69 117.09 148.23 116.01 L 148.70 115.07 C 149.24 113.99 148.80 112.67 147.72 112.13 C 146.63 111.59 145.31 112.03 144.77 113.11 Z M 144.29 114.09 L 143.87 114.98 C 143.35 116.08 143.82 117.38 144.92 117.90 C 146.01 118.41 147.32 117.94 147.84 116.85 L 148.25 115.96 C 148.77 114.87 148.30 113.56 147.20 113.04 C 146.11 112.53 144.80 113.00 144.29 114.09 Z M 143.86 115.01 L 143.44 115.93 C 142.95 117.03 143.43 118.33 144.54 118.82 C 145.64 119.32 146.93 118.83 147.43 117.73 L 147.85 116.82 C 148.35 115.72 147.86 114.42 146.75 113.92 C 145.65 113.42 144.36 113.91 143.86 115.01 Z M 143.44 115.95 L 143.03 116.88 C 142.54 117.99 143.05 119.28 144.15 119.76 C 145.26 120.25 146.54 119.74 147.03 118.64 L 147.44 117.71 C 147.92 116.60 147.42 115.32 146.32 114.83 C 145.21 114.34 143.92 114.85 143.44 115.95 Z M 143.03 116.90 L 142.63 117.82 C 142.15 118.93 142.66 120.21 143.77 120.69 C 144.88 121.16 146.16 120.65 146.63 119.55 L 147.03 118.62 C 147.51 117.52 147.00 116.23 145.89 115.76 C 144.79 115.28 143.50 115.79 143.03 116.90 Z M 142.63 117.84 L 142.25 118.73 C 141.78 119.84 142.30 121.11 143.40 121.58 C 144.51 122.05 145.78 121.53 146.25 120.43 L 146.63 119.53 C 147.10 118.43 146.58 117.16 145.48 116.69 C 144.38 116.22 143.10 116.73 142.63 117.84 Z M 142.26 118.75 L 141.88 119.65 C 141.42 120.75 141.94 122.02 143.04 122.48 C 144.14 122.94 145.40 122.42 145.86 121.32 L 146.24 120.42 C 146.70 119.32 146.18 118.05 145.08 117.59 C 143.99 117.13 142.72 117.65 142.26 118.75 Z M 141.89 119.67 L 141.51 120.60 C 141.05 121.69 141.57 122.94 142.67 123.40 C 143.76 123.85 145.01 123.33 145.47 122.24 L 145.85 121.31 C 146.30 120.21 145.79 118.96 144.69 118.51 C 143.60 118.05 142.34 118.57 141.89 119.67 Z M 141.51 120.61 L 141.12 121.57 C 140.67 122.66 141.20 123.91 142.28 124.35 C 143.37 124.80 144.62 124.28 145.06 123.19 L 145.46 122.22 C 145.90 121.14 145.38 119.89 144.29 119.44 C 143.20 119.00 141.96 119.52 141.51 120.61 Z M 141.13 121.58 L 140.78 122.45 C 140.34 123.53 140.86 124.77 141.94 125.21 C 143.03 125.65 144.26 125.13 144.70 124.04 L 145.06 123.18 C 145.50 122.09 144.97 120.86 143.89 120.42 C 142.81 119.97 141.57 120.50 141.13 121.58 Z M 140.79 122.45 L 140.42 123.35 C 139.98 124.43 140.50 125.66 141.58 126.10 C 142.66 126.54 143.89 126.02 144.33 124.94 L 144.69 124.04 C 145.13 122.96 144.61 121.73 143.54 121.29 C 142.46 120.85 141.22 121.37 140.79 122.45 Z M 140.43 123.35 L 140.05 124.28 C 139.61 125.35 140.12 126.58 141.20 127.02 C 142.27 127.46 143.50 126.95 143.94 125.87 L 144.32 124.94 C 144.76 123.87 144.24 122.64 143.17 122.20 C 142.10 121.76 140.87 122.27 140.43 123.35 Z M 140.06 124.27 L 139.66 125.23 C 139.22 126.30 139.72 127.52 140.79 127.96 C 141.86 128.41 143.08 127.90 143.53 126.84 L 143.92 125.88 C 144.37 124.81 143.86 123.59 142.80 123.14 C 141.73 122.70 140.51 123.21 140.06 124.27 Z M 139.68 125.22 L 139.27 126.18 C 138.82 127.24 139.31 128.47 140.37 128.92 C 141.43 129.37 142.65 128.87 143.10 127.81 L 143.51 126.85 C 143.96 125.79 143.47 124.57 142.41 124.12 C 141.35 123.67 140.13 124.16 139.68 125.22 Z M 139.28 126.17 L 138.89 127.07 C 138.44 128.12 138.92 129.34 139.97 129.80 C 141.02 130.25 142.24 129.77 142.70 128.72 L 143.09 127.83 C 143.54 126.77 143.06 125.55 142.01 125.10 C 140.96 124.64 139.74 125.12 139.28 126.17 Z M 138.90 127.06 L 138.50 127.97 C 138.04 129.01 138.52 130.23 139.56 130.69 C 140.61 131.15 141.82 130.68 142.29 129.64 L 142.69 128.73 C 143.15 127.68 142.67 126.46 141.63 126.00 C 140.58 125.54 139.36 126.02 138.90 127.06 Z M 138.51 127.97 L 138.11 128.88 C 137.64 129.92 138.11 131.14 139.15 131.60 C 140.19 132.06 141.41 131.59 141.87 130.56 L 142.28 129.64 C 142.74 128.60 142.27 127.38 141.23 126.92 C 140.19 126.46 138.98 126.93 138.51 127.97 Z M 138.11 128.89 L 137.70 129.81 C 137.24 130.85 137.71 132.06 138.74 132.52 C 139.78 132.98 140.99 132.51 141.45 131.48 L 141.86 130.55 C 142.32 129.52 141.85 128.31 140.82 127.85 C 139.79 127.39 138.57 127.85 138.11 128.89 Z M 137.71 129.82 L 137.30 130.75 C 136.84 131.78 137.31 132.98 138.34 133.44 C 139.37 133.90 140.57 133.43 141.03 132.40 L 141.44 131.47 C 141.90 130.44 141.43 129.23 140.40 128.78 C 139.37 128.32 138.17 128.79 137.71 129.82 Z M 137.30 130.75 L 136.89 131.69 C 136.44 132.72 136.91 133.92 137.94 134.37 C 138.97 134.82 140.17 134.36 140.62 133.33 L 141.03 132.39 C 141.48 131.36 141.01 130.16 139.98 129.71 C 138.95 129.26 137.75 129.73 137.30 130.75 Z M 136.89 131.70 L 136.48 132.64 C 136.04 133.66 136.51 134.86 137.54 135.31 C 138.57 135.75 139.76 135.28 140.21 134.26 L 140.61 133.32 C 141.06 132.29 140.59 131.09 139.56 130.65 C 138.53 130.20 137.34 130.67 136.89 131.70 Z M 136.49 132.64 L 136.09 133.57 C 135.64 134.60 136.11 135.79 137.14 136.23 C 138.17 136.68 139.36 136.21 139.80 135.18 L 140.20 134.25 C 140.65 133.22 140.18 132.03 139.15 131.59 C 138.12 131.14 136.93 131.62 136.49 132.64 Z M 136.09 133.57 L 135.69 134.49 C 135.25 135.51 135.72 136.70 136.74 137.14 C 137.77 137.59 138.96 137.12 139.40 136.09 L 139.80 135.18 C 140.24 134.15 139.77 132.97 138.75 132.52 C 137.72 132.08 136.53 132.55 136.09 133.57 Z M 135.70 134.49 L 135.31 135.38 C 134.87 136.40 135.33 137.59 136.35 138.04 C 137.37 138.48 138.56 138.01 139.00 136.99 L 139.39 136.10 C 139.84 135.08 139.37 133.89 138.35 133.44 C 137.33 133.00 136.15 133.47 135.70 134.49 Z M 135.32 135.38 L 134.92 136.28 C 134.47 137.29 134.93 138.48 135.95 138.92 C 136.96 139.37 138.15 138.91 138.60 137.90 L 138.99 137.00 C 139.44 135.98 138.98 134.80 137.97 134.35 C 136.95 133.90 135.77 134.36 135.32 135.38 Z M 134.93 136.27 L 134.51 137.20 C 134.06 138.21 134.51 139.40 135.52 139.85 C 136.53 140.30 137.72 139.85 138.17 138.84 L 138.59 137.91 C 139.04 136.90 138.59 135.71 137.58 135.26 C 136.57 134.80 135.38 135.25 134.93 136.27 Z M 134.52 137.19 L 134.10 138.10 C 133.64 139.11 134.09 140.30 135.09 140.75 C 136.10 141.21 137.29 140.77 137.75 139.76 L 138.16 138.85 C 138.62 137.85 138.18 136.66 137.17 136.20 C 136.17 135.74 134.98 136.18 134.52 137.19 Z M 134.11 138.09 L 133.69 138.99 C 133.23 139.99 133.67 141.18 134.67 141.65 C 135.67 142.11 136.86 141.67 137.32 140.67 L 137.74 139.77 C 138.20 138.77 137.77 137.58 136.77 137.12 C 135.76 136.65 134.57 137.09 134.11 138.09 Z M 133.70 138.98 L 133.28 139.87 C 132.81 140.87 133.24 142.06 134.24 142.53 C 135.24 143.00 136.43 142.57 136.90 141.57 L 137.32 140.68 C 137.79 139.68 137.36 138.49 136.36 138.02 C 135.36 137.55 134.17 137.98 133.70 138.98 Z M 133.29 139.87 L 132.82 140.86 C 132.35 141.86 132.77 143.05 133.77 143.52 C 134.76 143.99 135.95 143.57 136.42 142.57 L 136.89 141.57 C 137.36 140.58 136.94 139.39 135.94 138.92 C 134.95 138.45 133.76 138.87 133.29 139.87 Z M 132.82 140.88 L 132.29 142.03 C 131.83 143.03 132.26 144.21 133.25 144.67 C 134.24 145.13 135.42 144.70 135.88 143.70 L 136.42 142.55 C 136.88 141.56 136.45 140.38 135.45 139.92 C 134.46 139.46 133.28 139.89 132.82 140.88 Z M 132.27 142.12 L 131.86 143.10 C 131.44 144.11 131.92 145.26 132.93 145.67 C 133.93 146.09 135.08 145.61 135.50 144.61 L 135.91 143.62 C 136.32 142.61 135.84 141.46 134.84 141.05 C 133.83 140.63 132.68 141.11 132.27 142.12 Z M 131.79 143.37 L 131.61 144.06 C 131.34 145.10 131.97 146.17 133.01 146.44 C 134.06 146.71 135.13 146.08 135.39 145.03 L 135.57 144.34 C 135.84 143.30 135.21 142.23 134.16 141.96 C 133.12 141.69 132.05 142.32 131.79 143.37 Z M 132.08 145.89 L 132.35 146.17 C 133.09 146.95 134.32 146.98 135.11 146.24 C 135.89 145.50 135.92 144.27 135.18 143.49 L 134.92 143.21 C 134.18 142.42 132.94 142.39 132.16 143.13 C 131.38 143.87 131.34 145.10 132.08 145.89 Z M 134.60 146.60 L 135.45 146.20 C 136.44 145.74 136.86 144.57 136.40 143.59 C 135.94 142.61 134.77 142.19 133.79 142.65 L 132.93 143.05 C 131.95 143.51 131.53 144.68 131.99 145.66 C 132.45 146.64 133.62 147.06 134.60 146.60 Z M 135.72 146.07 L 136.78 145.36 C 137.69 144.76 137.94 143.53 137.33 142.62 C 136.73 141.71 135.50 141.47 134.59 142.07 L 133.53 142.78 C 132.62 143.38 132.37 144.61 132.98 145.52 C 133.58 146.43 134.81 146.67 135.72 146.07 Z M 136.81 145.36 L 137.63 144.80 C 138.53 144.18 138.76 142.94 138.14 142.03 C 137.52 141.13 136.28 140.90 135.38 141.52 L 134.57 142.08 C 133.66 142.70 133.43 143.93 134.05 144.84 C 134.67 145.74 135.91 145.98 136.81 145.36 Z M 137.62 144.81 L 138.45 144.25 C 139.37 143.64 139.61 142.40 138.99 141.48 C 138.37 140.57 137.13 140.33 136.22 140.94 L 135.39 141.50 C 134.47 142.12 134.23 143.36 134.85 144.27 C 135.46 145.19 136.70 145.43 137.62 144.81 Z M 138.43 144.28 L 139.27 143.73 C 140.20 143.13 140.47 141.89 139.87 140.96 C 139.27 140.03 138.02 139.76 137.09 140.36 L 136.24 140.91 C 135.31 141.52 135.05 142.76 135.65 143.69 C 136.25 144.62 137.50 144.88 138.43 144.28 Z M 139.23 143.77 L 140.10 143.24 C 141.05 142.67 141.35 141.43 140.77 140.48 C 140.20 139.52 138.96 139.22 138.01 139.80 L 137.14 140.32 C 136.19 140.90 135.88 142.14 136.46 143.09 C 137.04 144.04 138.28 144.35 139.23 143.77 Z M 140.04 143.28 L 140.93 142.79 C 141.90 142.24 142.24 141.00 141.70 140.03 C 141.15 139.06 139.91 138.71 138.94 139.26 L 138.06 139.76 C 137.08 140.31 136.74 141.54 137.29 142.51 C 137.84 143.49 139.07 143.83 140.04 143.28 Z M 140.88 142.82 L 141.76 142.36 C 142.76 141.83 143.14 140.60 142.61 139.61 C 142.09 138.62 140.86 138.24 139.87 138.76 L 138.98 139.23 C 137.99 139.75 137.61 140.98 138.14 141.97 C 138.66 142.97 139.89 143.35 140.88 142.82 Z M 141.73 142.38 L 142.61 141.94 C 143.61 141.44 144.02 140.21 143.52 139.21 C 143.01 138.20 141.79 137.79 140.78 138.29 L 139.90 138.73 C 138.89 139.24 138.49 140.46 138.99 141.47 C 139.49 142.48 140.72 142.89 141.73 142.38 Z M 142.58 141.97 L 143.47 141.54 C 144.49 141.05 144.92 139.83 144.43 138.81 C 143.94 137.79 142.72 137.36 141.70 137.85 L 140.81 138.27 C 139.79 138.76 139.36 139.98 139.85 141.00 C 140.33 142.02 141.56 142.45 142.58 141.97 Z M 143.45 141.56 L 144.34 141.14 C 145.37 140.66 145.81 139.44 145.34 138.41 C 144.86 137.39 143.64 136.94 142.61 137.42 L 141.72 137.83 C 140.69 138.31 140.24 139.53 140.72 140.56 C 141.20 141.59 142.42 142.03 143.45 141.56 Z M 144.33 141.15 L 145.24 140.73 C 146.28 140.26 146.73 139.04 146.26 138.01 C 145.79 136.97 144.57 136.52 143.54 136.99 L 142.62 137.41 C 141.59 137.88 141.13 139.10 141.60 140.13 C 142.07 141.17 143.29 141.62 144.33 141.15 Z M 145.24 140.74 L 146.16 140.32 C 147.20 139.85 147.66 138.63 147.19 137.59 C 146.72 136.55 145.49 136.09 144.46 136.57 L 143.54 136.98 C 142.50 137.45 142.04 138.68 142.51 139.71 C 142.98 140.75 144.21 141.21 145.24 140.74 Z M 146.17 140.32 L 147.07 139.91 C 148.11 139.44 148.57 138.21 148.10 137.17 C 147.63 136.14 146.40 135.68 145.36 136.15 L 144.45 136.56 C 143.42 137.04 142.96 138.26 143.43 139.30 C 143.90 140.34 145.13 140.80 146.17 140.32 Z M 147.07 139.91 L 147.99 139.50 C 149.04 139.02 149.50 137.80 149.02 136.76 C 148.55 135.72 147.33 135.26 146.28 135.73 L 145.36 136.15 C 144.32 136.62 143.86 137.84 144.33 138.89 C 144.81 139.93 146.03 140.39 147.07 139.91 Z M 147.99 139.50 L 148.91 139.09 C 149.95 138.62 150.42 137.39 149.95 136.35 C 149.48 135.30 148.25 134.84 147.21 135.31 L 146.29 135.72 C 145.25 136.19 144.78 137.42 145.25 138.46 C 145.72 139.51 146.95 139.97 147.99 139.50 Z M 148.90 139.09 L 149.82 138.68 C 150.87 138.22 151.34 136.99 150.88 135.95 C 150.41 134.90 149.19 134.43 148.14 134.89 L 147.22 135.31 C 146.17 135.77 145.70 136.99 146.16 138.04 C 146.63 139.09 147.85 139.56 148.90 139.09 Z M 149.81 138.68 L 150.73 138.28 C 151.78 137.82 152.26 136.61 151.80 135.56 C 151.35 134.51 150.13 134.04 149.08 134.49 L 148.16 134.90 C 147.11 135.35 146.64 136.57 147.09 137.61 C 147.55 138.66 148.76 139.14 149.81 138.68 Z M 150.72 138.27 L 151.63 137.88 C 152.67 137.44 153.15 136.23 152.71 135.19 C 152.26 134.14 151.05 133.66 150.01 134.11 L 149.10 134.50 C 148.06 134.94 147.57 136.15 148.02 137.19 C 148.47 138.24 149.67 138.72 150.72 138.27 Z M 151.61 137.88 L 152.52 137.50 C 153.56 137.06 154.05 135.86 153.61 134.82 C 153.17 133.78 151.97 133.29 150.93 133.73 L 150.02 134.11 C 148.98 134.55 148.50 135.75 148.93 136.79 C 149.37 137.83 150.57 138.32 151.61 137.88 Z M 152.51 137.49 L 153.43 137.11 C 154.46 136.68 154.95 135.48 154.52 134.45 C 154.09 133.41 152.89 132.92 151.86 133.35 L 150.94 133.73 C 149.90 134.17 149.41 135.36 149.85 136.40 C 150.28 137.43 151.47 137.92 152.51 137.49 Z M 153.43 137.10 L 154.35 136.71 C 155.38 136.28 155.87 135.09 155.43 134.05 C 155.00 133.02 153.81 132.54 152.77 132.97 L 151.85 133.36 C 150.82 133.80 150.34 134.99 150.77 136.02 C 151.21 137.05 152.40 137.54 153.43 137.10 Z M 154.37 136.70 L 155.29 136.30 C 156.31 135.85 156.78 134.66 156.34 133.64 C 155.89 132.61 154.70 132.14 153.68 132.59 L 152.76 132.99 C 151.73 133.43 151.26 134.62 151.71 135.65 C 152.15 136.67 153.34 137.14 154.37 136.70 Z M 155.32 136.27 L 156.24 135.85 C 157.25 135.39 157.70 134.19 157.23 133.18 C 156.77 132.17 155.57 131.72 154.56 132.19 L 153.64 132.61 C 152.63 133.07 152.19 134.27 152.65 135.28 C 153.11 136.29 154.31 136.74 155.32 136.27 Z M 156.28 135.83 L 157.20 135.38 C 158.20 134.89 158.61 133.69 158.13 132.69 C 157.64 131.69 156.44 131.28 155.44 131.77 L 154.52 132.22 C 153.52 132.70 153.11 133.91 153.60 134.90 C 154.08 135.90 155.29 136.31 156.28 135.83 Z M 157.24 135.35 L 158.13 134.89 C 159.12 134.38 159.50 133.18 159.00 132.19 C 158.49 131.21 157.28 130.82 156.30 131.33 L 155.41 131.79 C 154.42 132.30 154.04 133.50 154.54 134.49 C 155.05 135.47 156.26 135.86 157.24 135.35 Z M 158.16 134.87 L 159.02 134.41 C 159.99 133.88 160.35 132.67 159.83 131.70 C 159.31 130.73 158.10 130.37 157.13 130.89 L 156.27 131.35 C 155.30 131.87 154.94 133.08 155.46 134.05 C 155.98 135.03 157.19 135.39 158.16 134.87 Z M 159.05 134.39 L 159.86 133.93 C 160.82 133.39 161.17 132.18 160.63 131.22 C 160.09 130.26 158.88 129.92 157.92 130.45 L 157.10 130.91 C 156.14 131.45 155.80 132.66 156.34 133.62 C 156.88 134.58 158.09 134.92 159.05 134.39 Z M 159.94 133.89 L 160.74 133.39 C 161.67 132.81 161.96 131.58 161.38 130.65 C 160.80 129.71 159.57 129.42 158.63 130.00 L 157.84 130.50 C 156.90 131.08 156.61 132.31 157.20 133.24 C 157.78 134.18 159.01 134.47 159.94 133.89 Z M 160.87 133.31 L 161.68 132.72 C 162.57 132.06 162.76 130.81 162.11 129.92 C 161.46 129.03 160.21 128.84 159.31 129.49 L 158.50 130.09 C 157.61 130.74 157.42 131.99 158.07 132.88 C 158.73 133.77 159.98 133.96 160.87 133.31 Z M 161.82 132.62 L 162.66 131.88 C 163.50 131.15 163.58 129.88 162.85 129.04 C 162.12 128.21 160.85 128.12 160.01 128.85 L 159.17 129.59 C 158.34 130.32 158.25 131.59 158.98 132.43 C 159.72 133.27 160.99 133.35 161.82 132.62 Z M 162.78 131.84 L 163.57 131.06 C 164.39 130.27 164.40 128.96 163.60 128.15 C 162.81 127.34 161.50 127.32 160.69 128.12 L 159.90 128.89 C 159.08 129.69 159.07 130.99 159.87 131.81 C 160.66 132.62 161.97 132.63 162.78 131.84 Z M 163.61 131.14 L 164.41 130.38 C 165.26 129.56 165.30 128.21 164.48 127.35 C 163.67 126.50 162.31 126.46 161.46 127.28 L 160.66 128.04 C 159.80 128.85 159.77 130.21 160.58 131.06 C 161.40 131.92 162.75 131.95 163.61 131.14 Z M 164.30 130.57 L 165.07 129.97 C 166.03 129.21 166.20 127.82 165.44 126.85 C 164.68 125.89 163.29 125.73 162.33 126.48 L 161.56 127.08 C 160.60 127.84 160.43 129.23 161.19 130.20 C 161.95 131.16 163.34 131.33 164.30 130.57 Z M 164.60 130.34 L 165.29 130.04 C 166.45 129.55 167.00 128.20 166.50 127.03 C 166.00 125.87 164.66 125.32 163.49 125.82 L 162.80 126.11 C 161.63 126.61 161.09 127.96 161.59 129.12 C 162.08 130.29 163.43 130.83 164.60 130.34 Z M 163.71 130.16 L 164.41 130.38 C 165.64 130.75 166.94 130.05 167.32 128.82 C 167.69 127.59 166.99 126.28 165.76 125.91 L 165.06 125.70 C 163.83 125.33 162.53 126.02 162.16 127.26 C 161.78 128.49 162.48 129.79 163.71 130.16 Z M 163.26 129.60 L 163.84 130.32 C 164.65 131.33 166.12 131.49 167.12 130.69 C 168.13 129.88 168.29 128.41 167.48 127.40 L 166.90 126.68 C 166.10 125.68 164.63 125.51 163.62 126.32 C 162.62 127.13 162.45 128.60 163.26 129.60 Z M 163.58 129.92 L 164.12 130.98 C 164.70 132.13 166.11 132.59 167.26 132.00 C 168.41 131.42 168.87 130.01 168.28 128.86 L 167.74 127.80 C 167.16 126.65 165.75 126.20 164.60 126.78 C 163.45 127.37 162.99 128.77 163.58 129.92 Z M 164.08 130.90 L 164.51 131.81 C 165.05 132.98 166.43 133.49 167.60 132.95 C 168.77 132.41 169.28 131.02 168.74 129.85 L 168.32 128.94 C 167.78 127.77 166.39 127.26 165.22 127.80 C 164.05 128.35 163.54 129.73 164.08 130.90 Z M 164.52 131.81 L 164.91 132.66 C 165.45 133.83 166.83 134.33 168.00 133.79 C 169.16 133.25 169.66 131.87 169.12 130.70 L 168.73 129.85 C 168.19 128.69 166.80 128.19 165.64 128.73 C 164.48 129.27 163.98 130.65 164.52 131.81 Z M 164.93 132.67 L 165.35 133.56 C 165.89 134.71 167.26 135.21 168.42 134.67 C 169.57 134.13 170.07 132.75 169.53 131.60 L 169.11 130.70 C 168.57 129.55 167.19 129.05 166.04 129.59 C 164.88 130.14 164.39 131.51 164.93 132.67 Z M 165.36 133.56 L 165.81 134.50 C 166.35 135.64 167.72 136.13 168.86 135.59 C 170.01 135.04 170.50 133.68 169.95 132.53 L 169.51 131.59 C 168.97 130.45 167.60 129.96 166.45 130.50 C 165.31 131.05 164.82 132.42 165.36 133.56 Z M 165.82 134.50 L 166.29 135.48 C 166.84 136.61 168.20 137.09 169.34 136.55 C 170.47 136.00 170.95 134.64 170.41 133.50 L 169.94 132.53 C 169.39 131.39 168.03 130.91 166.89 131.46 C 165.76 132.00 165.28 133.37 165.82 134.50 Z M 166.31 135.48 L 166.76 136.41 C 167.31 137.53 168.66 138.00 169.79 137.45 C 170.91 136.91 171.38 135.55 170.84 134.43 L 170.39 133.50 C 169.84 132.37 168.48 131.91 167.36 132.45 C 166.23 133.00 165.77 134.35 166.31 135.48 Z M 166.79 136.40 L 167.24 137.31 C 167.78 138.42 169.13 138.88 170.23 138.33 C 171.34 137.79 171.80 136.44 171.26 135.33 L 170.81 134.43 C 170.26 133.32 168.92 132.86 167.81 133.41 C 166.70 133.95 166.24 135.30 166.79 136.40 Z M 167.27 137.31 L 167.72 138.22 C 168.27 139.32 169.60 139.76 170.69 139.22 C 171.78 138.67 172.23 137.34 171.68 136.25 L 171.23 135.34 C 170.68 134.24 169.35 133.80 168.26 134.34 C 167.17 134.89 166.72 136.22 167.27 137.31 Z M 167.75 138.22 L 168.21 139.13 C 168.76 140.21 170.07 140.64 171.15 140.09 C 172.22 139.55 172.65 138.23 172.11 137.16 L 171.65 136.25 C 171.11 135.17 169.79 134.74 168.71 135.29 C 167.64 135.83 167.21 137.15 167.75 138.22 Z M 168.24 139.13 L 168.70 140.02 C 169.24 141.08 170.55 141.49 171.61 140.95 C 172.66 140.40 173.08 139.10 172.54 138.04 L 172.08 137.15 C 171.53 136.09 170.23 135.68 169.17 136.22 C 168.11 136.77 167.70 138.07 168.24 139.13 Z M 168.73 140.02 L 169.18 140.87 C 169.73 141.92 171.02 142.32 172.06 141.77 C 173.10 141.22 173.50 139.93 172.95 138.89 L 172.50 138.04 C 171.96 137.00 170.67 136.60 169.63 137.14 C 168.58 137.69 168.18 138.98 168.73 140.02 Z M 169.23 140.87 L 169.75 141.84 C 170.30 142.85 171.56 143.23 172.58 142.69 C 173.59 142.14 173.97 140.87 173.42 139.86 L 172.90 138.89 C 172.36 137.88 171.09 137.50 170.07 138.05 C 169.06 138.59 168.68 139.86 169.23 140.87 Z M 169.82 141.84 L 170.33 142.75 C 170.87 143.73 172.11 144.08 173.08 143.54 C 174.06 142.99 174.41 141.76 173.87 140.78 L 173.36 139.86 C 172.81 138.88 171.58 138.53 170.60 139.08 C 169.62 139.62 169.27 140.86 169.82 141.84 Z M 170.40 142.75 L 170.89 143.60 C 171.43 144.55 172.63 144.87 173.58 144.32 C 174.52 143.78 174.84 142.58 174.30 141.64 L 173.80 140.78 C 173.26 139.84 172.06 139.52 171.12 140.06 C 170.17 140.60 169.85 141.81 170.40 142.75 Z M 170.96 143.60 L 171.44 144.41 C 171.98 145.31 173.15 145.60 174.05 145.06 C 174.96 144.52 175.25 143.35 174.71 142.45 L 174.23 141.64 C 173.69 140.74 172.52 140.45 171.61 140.99 C 170.71 141.53 170.42 142.70 170.96 143.60 Z M 171.51 144.41 L 171.99 145.18 C 172.53 146.05 173.67 146.31 174.54 145.77 C 175.40 145.23 175.67 144.09 175.13 143.23 L 174.64 142.45 C 174.10 141.59 172.96 141.32 172.10 141.86 C 171.23 142.40 170.97 143.54 171.51 144.41 Z M 172.05 145.19 L 172.57 145.99 C 173.12 146.83 174.23 147.06 175.07 146.52 C 175.91 145.97 176.14 144.86 175.60 144.02 L 175.07 143.22 C 174.53 142.38 173.41 142.15 172.57 142.69 C 171.74 143.24 171.50 144.36 172.05 145.19 Z M 172.62 146.02 L 173.16 146.81 C 173.72 147.62 174.83 147.82 175.64 147.26 C 176.45 146.71 176.65 145.60 176.09 144.79 L 175.55 144.00 C 174.99 143.19 173.88 142.98 173.07 143.54 C 172.26 144.10 172.06 145.21 172.62 146.02 Z M 173.21 146.83 L 173.79 147.64 C 174.36 148.42 175.46 148.59 176.24 148.02 C 177.03 147.46 177.20 146.36 176.63 145.57 L 176.05 144.77 C 175.48 143.98 174.38 143.81 173.60 144.38 C 172.81 144.95 172.64 146.04 173.21 146.83 Z M 173.84 147.65 L 174.49 148.51 C 175.07 149.27 176.16 149.42 176.92 148.84 C 177.67 148.26 177.82 147.17 177.24 146.42 L 176.59 145.56 C 176.01 144.80 174.92 144.65 174.17 145.23 C 173.41 145.81 173.26 146.89 173.84 147.65 Z M 174.53 148.52 L 175.09 149.24 C 175.68 149.98 176.75 150.11 177.49 149.52 C 178.23 148.94 178.36 147.86 177.78 147.12 L 177.21 146.40 C 176.62 145.66 175.55 145.54 174.81 146.12 C 174.07 146.71 173.94 147.78 174.53 148.52 Z M 175.11 149.25 L 175.71 149.99 C 176.30 150.72 177.37 150.83 178.10 150.24 C 178.83 149.66 178.94 148.59 178.35 147.86 L 177.75 147.12 C 177.17 146.39 176.10 146.27 175.37 146.86 C 174.64 147.45 174.53 148.52 175.11 149.25 Z M 175.73 149.99 L 176.37 150.76 C 176.95 151.48 178.01 151.59 178.73 151.00 C 179.45 150.41 179.56 149.35 178.97 148.63 L 178.34 147.86 C 177.75 147.14 176.69 147.04 175.97 147.62 C 175.25 148.21 175.14 149.27 175.73 149.99 Z M 176.38 150.76 L 177.04 151.56 C 177.63 152.27 178.68 152.37 179.39 151.78 C 180.10 151.20 180.20 150.15 179.61 149.43 L 178.95 148.64 C 178.37 147.93 177.31 147.83 176.60 148.41 C 175.89 149.00 175.79 150.05 176.38 150.76 Z M 177.05 151.56 L 177.73 152.37 C 178.32 153.07 179.36 153.17 180.06 152.58 C 180.76 152.00 180.86 150.96 180.28 150.25 L 179.60 149.44 C 179.02 148.74 177.97 148.64 177.27 149.23 C 176.57 149.81 176.47 150.85 177.05 151.56 Z M 177.74 152.36 L 178.22 152.94 C 178.80 153.64 179.84 153.73 180.54 153.15 C 181.24 152.57 181.33 151.53 180.75 150.84 L 180.27 150.26 C 179.68 149.56 178.65 149.47 177.95 150.05 C 177.25 150.63 177.16 151.67 177.74 152.36 Z"
      fill="black"
      fill-rule="nonzero" /><path d="M 131.73 167.50 L 132.73 167.59 C 133.88 167.70 134.89 166.85 134.99 165.71 C 135.10 164.57 134.26 163.56 133.11 163.45 L 132.11 163.36 C 130.96 163.25 129.95 164.10 129.85 165.24 C 129.74 166.38 130.59 167.40 131.73 167.50 Z M 132.78 167.65 L 133.78 167.72 C 134.95 167.80 135.97 166.91 136.05 165.74 C 136.14 164.56 135.25 163.54 134.07 163.46 L 133.07 163.39 C 131.89 163.31 130.87 164.20 130.79 165.38 C 130.71 166.55 131.60 167.57 132.78 167.65 Z M 133.87 167.78 L 134.87 167.80 C 136.08 167.83 137.08 166.87 137.11 165.66 C 137.13 164.45 136.17 163.45 134.96 163.42 L 133.97 163.40 C 132.76 163.37 131.76 164.33 131.73 165.54 C 131.70 166.75 132.66 167.76 133.87 167.78 Z M 135.01 167.84 L 135.93 167.80 C 137.16 167.75 138.11 166.71 138.06 165.48 C 138.00 164.25 136.96 163.30 135.74 163.35 L 134.82 163.39 C 133.59 163.44 132.64 164.48 132.69 165.71 C 132.74 166.94 133.78 167.89 135.01 167.84 Z M 136.06 167.80 L 136.99 167.70 C 138.22 167.57 139.11 166.48 138.98 165.25 C 138.86 164.02 137.76 163.13 136.53 163.26 L 135.60 163.35 C 134.38 163.48 133.48 164.57 133.61 165.80 C 133.74 167.03 134.83 167.92 136.06 167.80 Z M 137.08 167.69 L 138.10 167.54 C 139.32 167.37 140.17 166.24 139.99 165.02 C 139.82 163.80 138.69 162.95 137.47 163.12 L 136.45 163.27 C 135.22 163.44 134.38 164.57 134.55 165.79 C 134.72 167.01 135.86 167.86 137.08 167.69 Z M 138.14 167.54 L 139.21 167.37 C 140.43 167.17 141.26 166.02 141.06 164.80 C 140.87 163.59 139.72 162.76 138.50 162.95 L 137.43 163.13 C 136.21 163.32 135.38 164.47 135.57 165.69 C 135.77 166.91 136.92 167.74 138.14 167.54 Z M 139.22 167.36 L 140.17 167.21 C 141.39 167.00 142.21 165.85 142.01 164.64 C 141.81 163.42 140.66 162.59 139.44 162.80 L 138.49 162.95 C 137.27 163.16 136.45 164.31 136.65 165.53 C 136.85 166.74 138.00 167.57 139.22 167.36 Z M 140.18 167.21 L 141.18 167.04 C 142.40 166.83 143.22 165.68 143.01 164.46 C 142.81 163.24 141.66 162.42 140.44 162.63 L 139.43 162.80 C 138.22 163.00 137.40 164.16 137.60 165.37 C 137.81 166.59 138.96 167.41 140.18 167.21 Z M 141.18 167.04 L 142.21 166.86 C 143.42 166.66 144.24 165.50 144.04 164.29 C 143.83 163.07 142.68 162.25 141.46 162.46 L 140.44 162.63 C 139.22 162.84 138.40 163.99 138.61 165.21 C 138.81 166.42 139.97 167.24 141.18 167.04 Z M 142.21 166.86 L 143.21 166.69 C 144.43 166.49 145.25 165.33 145.04 164.11 C 144.83 162.90 143.68 162.08 142.46 162.29 L 141.46 162.46 C 140.24 162.66 139.42 163.82 139.63 165.03 C 139.83 166.25 140.99 167.07 142.21 166.86 Z M 143.21 166.69 L 144.23 166.52 C 145.45 166.31 146.27 165.16 146.06 163.94 C 145.85 162.73 144.70 161.91 143.48 162.11 L 142.46 162.29 C 141.25 162.49 140.43 163.65 140.63 164.86 C 140.84 166.08 141.99 166.90 143.21 166.69 Z M 144.23 166.52 L 145.25 166.34 C 146.46 166.14 147.28 164.99 147.08 163.78 C 146.88 162.56 145.73 161.74 144.51 161.94 L 143.49 162.12 C 142.27 162.32 141.45 163.47 141.66 164.69 C 141.86 165.90 143.01 166.72 144.23 166.52 Z M 145.24 166.34 L 146.21 166.18 C 147.42 165.98 148.25 164.83 148.05 163.62 C 147.84 162.41 146.70 161.59 145.49 161.79 L 144.52 161.95 C 143.30 162.15 142.48 163.29 142.68 164.51 C 142.88 165.72 144.03 166.54 145.24 166.34 Z M 146.20 166.18 L 147.15 166.02 C 148.36 165.83 149.18 164.69 148.99 163.48 C 148.79 162.27 147.65 161.44 146.44 161.64 L 145.49 161.79 C 144.28 161.99 143.46 163.13 143.66 164.34 C 143.85 165.55 144.99 166.37 146.20 166.18 Z M 147.14 166.02 L 148.10 165.87 C 149.31 165.68 150.14 164.54 149.95 163.34 C 149.76 162.13 148.62 161.30 147.41 161.49 L 146.45 161.64 C 145.24 161.83 144.42 162.97 144.61 164.18 C 144.80 165.38 145.93 166.21 147.14 166.02 Z M 148.09 165.86 L 149.09 165.71 C 150.30 165.52 151.12 164.40 150.94 163.19 C 150.76 161.99 149.63 161.16 148.42 161.34 L 147.42 161.50 C 146.22 161.68 145.39 162.81 145.58 164.01 C 145.76 165.22 146.89 166.05 148.09 165.86 Z M 149.08 165.70 L 150.09 165.55 C 151.29 165.37 152.11 164.25 151.93 163.05 C 151.76 161.85 150.64 161.02 149.44 161.20 L 148.43 161.35 C 147.23 161.53 146.40 162.65 146.58 163.85 C 146.76 165.05 147.88 165.88 149.08 165.70 Z M 150.08 165.54 L 151.06 165.40 C 152.26 165.23 153.09 164.11 152.91 162.92 C 152.74 161.72 151.63 160.89 150.43 161.07 L 149.44 161.21 C 148.25 161.39 147.42 162.50 147.59 163.69 C 147.77 164.89 148.88 165.72 150.08 165.54 Z M 151.05 165.39 L 152.03 165.25 C 153.22 165.08 154.05 163.98 153.88 162.78 C 153.71 161.59 152.61 160.76 151.42 160.94 L 150.44 161.08 C 149.24 161.25 148.42 162.35 148.59 163.54 C 148.76 164.73 149.86 165.56 151.05 165.39 Z M 152.03 165.24 L 153.02 165.10 C 154.20 164.93 155.03 163.83 154.86 162.64 C 154.69 161.46 153.59 160.64 152.40 160.81 L 151.42 160.95 C 150.23 161.12 149.41 162.22 149.58 163.40 C 149.75 164.59 150.85 165.41 152.03 165.24 Z M 153.03 165.08 L 154.00 164.93 C 155.18 164.76 155.99 163.66 155.81 162.48 C 155.63 161.31 154.54 160.50 153.36 160.68 L 152.39 160.82 C 151.21 161.00 150.40 162.10 150.58 163.27 C 150.76 164.45 151.86 165.26 153.03 165.08 Z M 154.03 164.91 L 155.02 164.75 C 156.19 164.55 156.97 163.45 156.78 162.29 C 156.58 161.12 155.48 160.34 154.32 160.53 L 153.33 160.70 C 152.17 160.89 151.38 161.99 151.57 163.16 C 151.77 164.32 152.87 165.11 154.03 164.91 Z M 155.06 164.73 L 156.03 164.54 C 157.18 164.33 157.94 163.22 157.73 162.07 C 157.51 160.92 156.40 160.16 155.25 160.37 L 154.28 160.55 C 153.13 160.77 152.37 161.88 152.59 163.03 C 152.80 164.18 153.91 164.94 155.06 164.73 Z M 156.07 164.52 L 157.05 164.31 C 158.19 164.07 158.92 162.96 158.68 161.82 C 158.44 160.68 157.32 159.95 156.18 160.19 L 155.21 160.40 C 154.07 160.64 153.34 161.75 153.58 162.89 C 153.82 164.03 154.94 164.76 156.07 164.52 Z M 157.10 164.28 L 158.08 164.05 C 159.21 163.79 159.90 162.66 159.63 161.54 C 159.37 160.42 158.24 159.72 157.12 159.99 L 156.13 160.22 C 155.01 160.49 154.32 161.61 154.58 162.73 C 154.85 163.86 155.97 164.55 157.10 164.28 Z M 158.14 164.02 L 159.12 163.76 C 160.22 163.46 160.88 162.33 160.58 161.22 C 160.28 160.12 159.15 159.46 158.04 159.76 L 157.07 160.02 C 155.96 160.31 155.31 161.45 155.60 162.56 C 155.90 163.66 157.03 164.32 158.14 164.02 Z M 159.19 163.71 L 160.33 163.35 C 161.41 163.01 162.01 161.86 161.67 160.78 C 161.33 159.71 160.18 159.11 159.10 159.45 L 157.97 159.80 C 156.89 160.14 156.29 161.29 156.63 162.37 C 156.97 163.45 158.12 164.05 159.19 163.71 Z M 160.52 163.25 L 161.55 162.80 C 162.57 162.36 163.04 161.17 162.60 160.15 C 162.15 159.13 160.97 158.66 159.95 159.10 L 158.92 159.55 C 157.90 159.99 157.43 161.18 157.87 162.20 C 158.31 163.22 159.50 163.69 160.52 163.25 Z M 162.05 162.44 L 162.64 161.93 C 163.46 161.21 163.55 159.96 162.83 159.14 C 162.11 158.31 160.86 158.23 160.04 158.95 L 159.45 159.46 C 158.62 160.18 158.54 161.43 159.26 162.25 C 159.97 163.08 161.22 163.16 162.05 162.44 Z M 163.26 160.27 L 163.21 159.69 C 163.12 158.63 162.18 157.85 161.12 157.94 C 160.06 158.03 159.27 158.97 159.37 160.03 L 159.42 160.61 C 159.51 161.67 160.44 162.45 161.50 162.36 C 162.56 162.27 163.35 161.33 163.26 160.27 Z M 162.62 158.57 L 162.00 157.94 C 161.29 157.20 160.12 157.18 159.39 157.89 C 158.65 158.61 158.63 159.78 159.34 160.51 L 159.96 161.15 C 160.67 161.88 161.84 161.90 162.57 161.19 C 163.31 160.48 163.33 159.31 162.62 158.57 Z M 161.69 157.78 L 160.74 157.11 C 159.94 156.55 158.84 156.74 158.28 157.54 C 157.71 158.33 157.91 159.44 158.70 160.00 L 159.66 160.67 C 160.45 161.23 161.55 161.04 162.12 160.24 C 162.68 159.45 162.49 158.34 161.69 157.78 Z M 160.64 157.12 L 160.08 156.77 C 159.29 156.26 158.24 156.49 157.73 157.28 C 157.23 158.07 157.46 159.12 158.25 159.63 L 158.80 159.99 C 159.59 160.49 160.65 160.26 161.15 159.47 C 161.66 158.68 161.43 157.63 160.64 157.12 Z"
      fill="black"
      fill-rule="nonzero" /><path d="M 147.77 148.08 L 147.58 149.05 C 147.35 150.24 148.12 151.39 149.32 151.63 C 150.51 151.86 151.67 151.09 151.90 149.89 L 152.09 148.93 C 152.32 147.74 151.55 146.58 150.35 146.35 C 149.16 146.11 148.00 146.89 147.77 148.08 Z M 147.56 149.09 L 147.39 150.06 C 147.18 151.27 147.98 152.41 149.19 152.63 C 150.39 152.84 151.54 152.03 151.75 150.82 L 151.92 149.85 C 152.13 148.65 151.33 147.50 150.12 147.29 C 148.92 147.08 147.77 147.88 147.56 149.09 Z M 147.36 150.15 L 147.23 151.14 C 147.07 152.36 147.93 153.48 149.15 153.65 C 150.37 153.81 151.49 152.95 151.65 151.73 L 151.78 150.74 C 151.94 149.52 151.08 148.40 149.86 148.23 C 148.64 148.07 147.52 148.93 147.36 150.15 Z M 147.20 151.28 L 147.13 152.30 C 147.04 153.53 147.97 154.61 149.20 154.70 C 150.44 154.78 151.51 153.85 151.60 152.62 L 151.68 151.60 C 151.76 150.36 150.83 149.29 149.60 149.20 C 148.36 149.11 147.29 150.04 147.20 151.28 Z M 147.11 152.44 L 147.11 153.37 C 147.10 154.61 148.10 155.62 149.34 155.63 C 150.59 155.64 151.60 154.64 151.61 153.40 L 151.62 152.47 C 151.62 151.23 150.62 150.22 149.38 150.21 C 148.14 150.20 147.12 151.20 147.11 152.44 Z M 147.11 153.48 L 147.15 154.44 C 147.20 155.68 148.25 156.64 149.49 156.59 C 150.73 156.54 151.70 155.49 151.65 154.25 L 151.61 153.29 C 151.56 152.05 150.51 151.08 149.27 151.13 C 148.02 151.18 147.06 152.23 147.11 153.48 Z M 147.15 154.51 L 147.22 155.51 C 147.31 156.75 148.39 157.68 149.63 157.59 C 150.88 157.50 151.81 156.42 151.72 155.18 L 151.65 154.18 C 151.56 152.94 150.48 152.00 149.24 152.09 C 147.99 152.18 147.06 153.26 147.15 154.51 Z M 147.22 155.54 L 147.32 156.59 C 147.43 157.83 148.52 158.75 149.76 158.64 C 151.01 158.53 151.92 157.44 151.81 156.20 L 151.72 155.14 C 151.61 153.90 150.51 152.99 149.27 153.10 C 148.03 153.21 147.11 154.30 147.22 155.54 Z M 147.32 156.60 L 147.41 157.64 C 147.52 158.88 148.62 159.80 149.86 159.68 C 151.11 159.57 152.02 158.47 151.91 157.23 L 151.81 156.19 C 151.70 154.95 150.60 154.03 149.36 154.14 C 148.12 154.26 147.20 155.36 147.32 156.60 Z M 147.41 157.63 L 147.49 158.63 C 147.60 159.87 148.70 160.79 149.94 160.68 C 151.18 160.57 152.10 159.48 152.00 158.24 L 151.91 157.24 C 151.80 156.00 150.71 155.08 149.46 155.18 C 148.22 155.29 147.30 156.39 147.41 157.63 Z M 147.49 158.61 L 147.57 159.63 C 147.67 160.87 148.76 161.80 150.01 161.70 C 151.25 161.60 152.18 160.51 152.08 159.26 L 152.00 158.25 C 151.90 157.01 150.81 156.08 149.56 156.18 C 148.32 156.28 147.39 157.37 147.49 158.61 Z M 147.57 159.61 L 147.65 160.63 C 147.74 161.87 148.82 162.81 150.07 162.72 C 151.31 162.62 152.25 161.54 152.15 160.30 L 152.08 159.28 C 151.99 158.04 150.91 157.10 149.66 157.19 C 148.42 157.28 147.48 158.37 147.57 159.61 Z M 147.65 160.60 L 147.71 161.60 C 147.79 162.85 148.86 163.79 150.11 163.72 C 151.35 163.64 152.30 162.56 152.22 161.32 L 152.16 160.32 C 152.08 159.07 151.00 158.13 149.76 158.21 C 148.51 158.28 147.57 159.36 147.65 160.60 Z M 147.71 161.58 L 147.76 162.56 C 147.82 163.81 148.88 164.77 150.13 164.70 C 151.38 164.64 152.34 163.58 152.27 162.33 L 152.22 161.35 C 152.16 160.10 151.10 159.14 149.85 159.20 C 148.60 159.27 147.64 160.33 147.71 161.58 Z M 147.76 162.53 L 147.79 163.57 C 147.84 164.82 148.88 165.79 150.13 165.75 C 151.38 165.71 152.35 164.66 152.31 163.41 L 152.27 162.37 C 152.23 161.12 151.18 160.14 149.93 160.19 C 148.69 160.23 147.71 161.28 147.76 162.53 Z M 147.79 163.54 L 147.81 164.54 C 147.84 165.79 148.87 166.78 150.12 166.75 C 151.37 166.73 152.36 165.69 152.33 164.45 L 152.31 163.44 C 152.28 162.20 151.25 161.20 150.00 161.23 C 148.76 161.26 147.77 162.29 147.79 163.54 Z M 147.81 164.51 L 147.82 165.49 C 147.83 166.74 148.85 167.74 150.10 167.73 C 151.35 167.72 152.35 166.70 152.34 165.45 L 152.33 164.47 C 152.32 163.22 151.30 162.22 150.05 162.23 C 148.80 162.24 147.80 163.27 147.81 164.51 Z M 147.82 165.48 L 147.82 166.45 C 147.83 167.69 148.84 168.70 150.09 168.70 C 151.34 168.70 152.35 167.68 152.34 166.44 L 152.34 165.46 C 152.34 164.22 151.32 163.21 150.08 163.21 C 148.83 163.21 147.82 164.23 147.82 165.48 Z M 147.83 166.44 L 147.83 167.42 C 147.83 168.66 148.84 169.68 150.08 169.68 C 151.33 169.68 152.34 168.66 152.34 167.42 L 152.34 166.44 C 152.34 165.19 151.33 164.18 150.08 164.18 C 148.84 164.18 147.82 165.19 147.83 166.44 Z M 147.83 167.42 L 147.83 168.40 C 147.83 169.65 148.84 170.66 150.08 170.66 C 151.33 170.66 152.34 169.65 152.34 168.40 L 152.34 167.42 C 152.34 166.17 151.33 165.16 150.08 165.16 C 148.84 165.16 147.83 166.17 147.83 167.42 Z M 147.83 168.40 L 147.83 169.40 C 147.83 170.65 148.84 171.66 150.08 171.66 C 151.33 171.66 152.34 170.65 152.34 169.40 L 152.34 168.40 C 152.34 167.16 151.33 166.15 150.08 166.15 C 148.84 166.15 147.83 167.16 147.83 168.40 Z M 147.83 169.40 L 147.83 170.41 C 147.83 171.66 148.84 172.67 150.08 172.67 C 151.33 172.67 152.34 171.66 152.34 170.41 L 152.34 169.40 C 152.34 168.16 151.33 167.15 150.08 167.15 C 148.84 167.15 147.83 168.16 147.83 169.40 Z M 147.83 170.41 L 147.83 171.43 C 147.83 172.67 148.84 173.68 150.08 173.68 C 151.33 173.68 152.33 172.67 152.33 171.43 L 152.33 170.41 C 152.33 169.17 151.33 168.16 150.08 168.16 C 148.84 168.16 147.83 169.17 147.83 170.41 Z M 147.84 171.43 L 147.84 172.44 C 147.84 173.68 148.84 174.69 150.08 174.69 C 151.32 174.69 152.33 173.68 152.33 172.44 L 152.33 171.43 C 152.33 170.19 151.32 169.18 150.08 169.18 C 148.84 169.18 147.84 170.19 147.84 171.43 Z M 147.84 172.44 L 147.84 173.45 C 147.84 174.69 148.85 175.69 150.08 175.69 C 151.32 175.69 152.33 174.69 152.33 173.45 L 152.33 172.44 C 152.33 171.20 151.32 170.20 150.08 170.20 C 148.85 170.20 147.84 171.20 147.84 172.44 Z M 147.85 173.45 L 147.85 174.45 C 147.85 175.69 148.85 176.69 150.08 176.69 C 151.32 176.69 152.32 175.69 152.32 174.45 L 152.32 173.45 C 152.32 172.21 151.32 171.21 150.08 171.21 C 148.85 171.21 147.85 172.21 147.85 173.45 Z M 147.85 174.45 L 147.85 175.45 C 147.85 176.68 148.85 177.68 150.08 177.68 C 151.32 177.68 152.32 176.68 152.32 175.45 L 152.32 174.45 C 152.32 173.22 151.32 172.22 150.08 172.22 C 148.85 172.22 147.85 173.22 147.85 174.45 Z M 147.86 175.45 L 147.86 176.44 C 147.86 177.67 148.85 178.66 150.08 178.66 C 151.31 178.66 152.31 177.67 152.31 176.44 L 152.31 175.45 C 152.31 174.22 151.31 173.22 150.08 173.22 C 148.85 173.22 147.86 174.22 147.86 175.45 Z M 147.87 176.44 L 147.87 177.47 C 147.87 178.69 148.86 179.68 150.08 179.68 C 151.31 179.68 152.30 178.69 152.30 177.47 L 152.30 176.44 C 152.30 175.21 151.31 174.22 150.08 174.22 C 148.86 174.22 147.87 175.21 147.87 176.44 Z M 147.88 177.47 L 147.88 178.48 C 147.88 179.70 148.87 180.68 150.08 180.68 C 151.30 180.68 152.29 179.70 152.29 178.48 L 152.29 177.47 C 152.29 176.25 151.30 175.26 150.08 175.26 C 148.87 175.26 147.88 176.25 147.88 177.47 Z M 147.89 178.48 L 147.89 179.47 C 147.89 180.68 148.87 181.67 150.08 181.67 C 151.29 181.67 152.28 180.68 152.28 179.47 L 152.28 178.48 C 152.28 177.27 151.29 176.29 150.08 176.29 C 148.87 176.29 147.89 177.27 147.89 178.48 Z M 147.90 179.47 L 147.90 180.44 C 147.90 181.65 148.88 182.63 150.08 182.63 C 151.29 182.63 152.26 181.65 152.26 180.44 L 152.26 179.47 C 152.26 178.27 151.29 177.29 150.08 177.29 C 148.88 177.29 147.90 178.27 147.90 179.47 Z M 147.91 180.44 L 147.91 181.45 C 147.91 182.65 148.89 183.62 150.08 183.62 C 151.28 183.62 152.25 182.65 152.25 181.45 L 152.25 180.45 C 152.25 179.25 151.28 178.28 150.08 178.28 C 148.89 178.28 147.92 179.25 147.91 180.44 Z M 147.93 181.44 L 147.92 182.45 C 147.92 183.65 148.88 184.61 150.07 184.62 C 151.26 184.62 152.23 183.66 152.24 182.47 L 152.24 181.46 C 152.25 180.27 151.28 179.30 150.09 179.29 C 148.90 179.29 147.93 180.25 147.93 181.44 Z M 147.93 182.44 L 147.92 183.43 C 147.91 184.62 148.86 185.59 150.04 185.60 C 151.23 185.61 152.20 184.66 152.22 183.48 L 152.23 182.48 C 152.24 181.30 151.29 180.33 150.10 180.31 C 148.92 180.30 147.95 181.25 147.93 182.44 Z M 147.93 183.40 L 147.91 184.39 C 147.88 185.57 148.81 186.55 149.99 186.57 C 151.17 186.60 152.15 185.67 152.18 184.49 L 152.21 183.50 C 152.23 182.32 151.30 181.35 150.12 181.32 C 148.94 181.29 147.96 182.22 147.93 183.40 Z M 147.92 184.35 L 147.88 185.36 C 147.83 186.53 148.74 187.52 149.92 187.57 C 151.09 187.62 152.08 186.71 152.13 185.54 L 152.17 184.53 C 152.22 183.35 151.31 182.36 150.13 182.32 C 148.96 182.27 147.97 183.18 147.92 184.35 Z M 147.90 185.31 L 147.83 186.33 C 147.75 187.49 148.63 188.50 149.79 188.58 C 150.95 188.66 151.96 187.78 152.04 186.62 L 152.11 185.59 C 152.19 184.43 151.31 183.43 150.15 183.35 C 148.98 183.27 147.98 184.14 147.90 185.31 Z M 147.85 186.25 L 147.75 187.25 C 147.62 188.39 148.45 189.43 149.60 189.55 C 150.75 189.67 151.78 188.84 151.91 187.69 L 152.01 186.70 C 152.14 185.55 151.31 184.52 150.16 184.39 C 149.01 184.27 147.98 185.10 147.85 186.25 Z M 147.78 187.14 L 147.62 188.09 C 147.44 189.22 148.21 190.29 149.34 190.47 C 150.47 190.66 151.54 189.89 151.72 188.76 L 151.88 187.80 C 152.06 186.67 151.29 185.60 150.16 185.42 C 149.03 185.24 147.96 186.00 147.78 187.14 Z M 147.68 187.91 L 147.39 189.05 C 147.11 190.15 147.77 191.27 148.87 191.55 C 149.97 191.83 151.09 191.17 151.37 190.07 L 151.66 188.94 C 151.95 187.84 151.28 186.72 150.18 186.43 C 149.08 186.15 147.96 186.81 147.68 187.91 Z M 147.57 188.63 L 147.11 189.53 C 146.60 190.53 146.99 191.75 147.99 192.26 C 148.99 192.78 150.21 192.38 150.73 191.39 L 151.19 190.49 C 151.70 189.49 151.31 188.26 150.31 187.75 C 149.31 187.24 148.09 187.63 147.57 188.63 Z M 148.11 188.62 L 147.46 188.90 C 146.44 189.35 145.97 190.53 146.42 191.55 C 146.86 192.56 148.05 193.03 149.06 192.58 L 149.72 192.30 C 150.74 191.85 151.20 190.67 150.76 189.65 C 150.31 188.64 149.13 188.17 148.11 188.62 Z M 149.13 188.96 L 148.47 188.64 C 147.49 188.16 146.30 188.57 145.82 189.55 C 145.34 190.53 145.75 191.72 146.73 192.20 L 147.39 192.52 C 148.37 193.00 149.56 192.60 150.04 191.61 C 150.52 190.63 150.11 189.45 149.13 188.96 Z M 148.87 188.94 L 148.11 188.29 C 147.29 187.59 146.06 187.69 145.36 188.51 C 144.66 189.32 144.76 190.56 145.58 191.26 L 146.33 191.90 C 147.15 192.61 148.38 192.51 149.08 191.69 C 149.78 190.87 149.69 189.64 148.87 188.94 Z M 148.16 188.37 L 147.33 187.60 C 146.55 186.87 145.34 186.91 144.61 187.69 C 143.89 188.46 143.93 189.68 144.70 190.40 L 145.53 191.18 C 146.31 191.90 147.52 191.86 148.25 191.09 C 148.97 190.31 148.93 189.10 148.16 188.37 Z M 147.21 187.54 L 146.34 186.83 C 145.53 186.18 144.34 186.30 143.69 187.11 C 143.03 187.91 143.15 189.10 143.96 189.76 L 144.83 190.46 C 145.64 191.12 146.82 191.00 147.48 190.19 C 148.14 189.38 148.01 188.19 147.21 187.54 Z M 146.09 186.73 L 145.20 186.19 C 144.33 185.68 143.21 185.96 142.69 186.83 C 142.17 187.69 142.46 188.81 143.32 189.33 L 144.21 189.86 C 145.08 190.38 146.20 190.10 146.72 189.23 C 147.24 188.37 146.95 187.24 146.09 186.73 Z M 144.97 186.15 L 144.07 185.76 C 143.18 185.37 142.14 185.77 141.75 186.66 C 141.36 187.55 141.76 188.58 142.65 188.98 L 143.55 189.37 C 144.44 189.76 145.48 189.36 145.87 188.47 C 146.26 187.58 145.86 186.55 144.97 186.15 Z M 143.93 185.78 L 143.03 185.45 C 142.15 185.14 141.18 185.60 140.87 186.48 C 140.56 187.36 141.02 188.33 141.89 188.64 L 142.80 188.96 C 143.68 189.27 144.64 188.81 144.95 187.93 C 145.27 187.05 144.81 186.09 143.93 185.78 Z M 142.98 185.49 L 142.75 185.41 C 141.89 185.12 140.96 185.59 140.67 186.45 C 140.38 187.31 140.85 188.24 141.71 188.53 L 141.94 188.61 C 142.80 188.90 143.73 188.43 144.02 187.57 C 144.31 186.71 143.84 185.77 142.98 185.49 Z"
      fill="black"
      fill-rule="nonzero" /><path d="M 114.22 187.45 L 112.84 187.45 C 111.66 187.45 110.70 188.41 110.70 189.59 C 110.70 190.77 111.66 191.72 112.84 191.72 L 114.22 191.72 C 115.40 191.72 116.35 190.77 116.35 189.59 C 116.35 188.41 115.40 187.45 114.22 187.45 Z M 112.84 187.32 L 111.98 187.32 C 110.73 187.32 109.71 188.33 109.71 189.59 C 109.71 190.84 110.73 191.85 111.98 191.85 L 112.84 191.85 C 114.09 191.85 115.10 190.84 115.10 189.59 C 115.10 188.33 114.09 187.32 112.84 187.32 Z M 111.98 191.95 L 112.10 191.95 C 113.40 191.95 114.46 190.89 114.46 189.59 C 114.46 188.28 113.40 187.22 112.10 187.22 L 111.98 187.22 C 110.68 187.22 109.62 188.28 109.62 189.59 C 109.62 190.89 110.68 191.95 111.98 191.95 Z M 112.10 191.99 L 113.08 191.99 C 114.41 191.99 115.48 190.91 115.48 189.59 C 115.48 188.26 114.41 187.18 113.08 187.18 L 112.10 187.18 C 110.77 187.18 109.69 188.26 109.69 189.59 C 109.69 190.91 110.77 191.99 112.10 191.99 Z M 113.08 192.01 L 114.52 192.01 C 115.86 192.01 116.95 190.93 116.95 189.59 C 116.95 188.25 115.86 187.16 114.52 187.16 L 113.08 187.16 C 111.74 187.16 110.65 188.25 110.65 189.59 C 110.65 190.93 111.74 192.01 113.08 192.01 Z M 114.52 192.03 L 115.44 192.03 C 116.78 192.03 117.88 190.93 117.88 189.59 C 117.88 188.24 116.78 187.15 115.44 187.15 L 114.52 187.15 C 113.17 187.15 112.08 188.24 112.08 189.59 C 112.08 190.93 113.17 192.03 114.52 192.03 Z M 115.44 192.03 L 116.42 192.03 C 117.77 192.03 118.87 190.94 118.87 189.59 C 118.87 188.24 117.77 187.14 116.42 187.14 L 115.44 187.14 C 114.08 187.14 112.99 188.24 112.99 189.59 C 112.99 190.94 114.08 192.03 115.44 192.03 Z M 116.42 192.04 L 117.45 192.04 C 118.81 192.04 119.90 190.94 119.90 189.59 C 119.90 188.23 118.81 187.13 117.45 187.13 L 116.42 187.13 C 115.07 187.13 113.97 188.23 113.97 189.59 C 113.97 190.94 115.07 192.04 116.42 192.04 Z M 117.45 192.05 L 118.50 192.05 C 119.86 192.05 120.96 190.94 120.96 189.59 C 120.96 188.23 119.86 187.13 118.50 187.13 L 117.45 187.13 C 116.09 187.13 114.99 188.23 114.99 189.59 C 114.99 190.94 116.09 192.05 117.45 192.05 Z M 118.50 192.05 L 119.54 192.05 C 120.91 192.05 122.01 190.95 122.01 189.59 C 122.01 188.23 120.91 187.12 119.54 187.12 L 118.50 187.12 C 117.14 187.12 116.04 188.23 116.04 189.59 C 116.04 190.95 117.14 192.05 118.50 192.05 Z M 119.54 192.06 L 120.57 192.06 C 121.93 192.06 123.04 190.95 123.04 189.59 C 123.04 188.22 121.93 187.12 120.57 187.12 L 119.54 187.12 C 118.18 187.12 117.08 188.22 117.08 189.59 C 117.08 190.95 118.18 192.06 119.54 192.06 Z M 120.57 192.06 L 121.57 192.06 C 122.94 192.06 124.04 190.95 124.04 189.59 C 124.04 188.22 122.94 187.12 121.57 187.12 L 120.57 187.12 C 119.21 187.12 118.10 188.22 118.10 189.59 C 118.10 190.95 119.21 192.06 120.57 192.06 Z M 121.57 192.06 L 122.56 192.06 C 123.93 192.06 125.03 190.95 125.03 189.59 C 125.03 188.22 123.93 187.11 122.56 187.11 L 121.57 187.11 C 120.21 187.11 119.10 188.22 119.10 189.59 C 119.10 190.95 120.21 192.06 121.57 192.06 Z M 122.56 192.06 L 123.55 192.06 C 124.92 192.06 126.02 190.95 126.02 189.59 C 126.02 188.22 124.92 187.11 123.55 187.11 L 122.56 187.11 C 121.19 187.11 120.09 188.22 120.09 189.59 C 120.09 190.95 121.19 192.06 122.56 192.06 Z M 123.55 192.06 L 124.54 192.06 C 125.91 192.06 127.02 190.96 127.02 189.59 C 127.02 188.22 125.91 187.11 124.54 187.11 L 123.55 187.11 C 122.18 187.11 121.07 188.22 121.07 189.59 C 121.07 190.96 122.18 192.06 123.55 192.06 Z M 124.54 192.07 L 125.58 192.07 C 126.95 192.07 128.06 190.96 128.06 189.59 C 128.06 188.22 126.95 187.11 125.58 187.11 L 124.54 187.11 C 123.17 187.11 122.06 188.22 122.06 189.59 C 122.06 190.96 123.17 192.07 124.54 192.07 Z M 125.58 192.07 L 126.63 192.07 C 128.00 192.07 129.11 190.96 129.11 189.59 C 129.11 188.22 128.00 187.11 126.63 187.11 L 125.58 187.11 C 124.21 187.11 123.10 188.22 123.10 189.59 C 123.10 190.96 124.21 192.07 125.58 192.07 Z M 126.63 192.07 L 127.67 192.07 C 129.04 192.07 130.15 190.96 130.15 189.59 C 130.15 188.22 129.04 187.11 127.67 187.11 L 126.63 187.11 C 125.26 187.11 124.15 188.22 124.15 189.59 C 124.15 190.96 125.26 192.07 126.63 192.07 Z M 127.67 192.07 L 128.66 192.07 C 130.03 192.07 131.14 190.96 131.14 189.59 C 131.14 188.22 130.03 187.11 128.66 187.11 L 127.67 187.11 C 126.30 187.11 125.19 188.22 125.19 189.59 C 125.19 190.96 126.30 192.07 127.67 192.07 Z M 128.66 192.07 L 129.58 192.07 C 130.95 192.07 132.06 190.96 132.06 189.59 C 132.06 188.22 130.95 187.10 129.58 187.10 L 128.66 187.10 C 127.29 187.10 126.18 188.22 126.18 189.59 C 126.18 190.96 127.29 192.07 128.66 192.07 Z M 129.58 192.07 L 130.67 192.07 C 132.04 192.07 133.15 190.96 133.15 189.59 C 133.15 188.22 132.04 187.10 130.67 187.10 L 129.58 187.10 C 128.21 187.10 127.10 188.22 127.10 189.59 C 127.10 190.96 128.21 192.07 129.58 192.07 Z M 130.67 192.07 L 131.70 192.07 C 133.07 192.07 134.18 190.96 134.18 189.59 C 134.18 188.22 133.07 187.10 131.70 187.10 L 130.67 187.10 C 129.30 187.10 128.19 188.22 128.19 189.59 C 128.19 190.96 129.30 192.07 130.67 192.07 Z M 131.70 192.07 L 132.63 192.07 C 134.00 192.07 135.11 190.96 135.11 189.59 C 135.11 188.22 134.00 187.11 132.63 187.11 L 131.70 187.11 C 130.33 187.11 129.22 188.22 129.22 189.59 C 129.22 190.96 130.33 192.07 131.70 192.07 Z M 132.63 192.07 L 133.54 192.07 C 134.91 192.07 136.02 190.96 136.02 189.59 C 136.02 188.22 134.91 187.11 133.54 187.11 L 132.63 187.11 C 131.26 187.11 130.15 188.22 130.15 189.59 C 130.15 190.96 131.26 192.07 132.63 192.07 Z M 133.54 192.07 L 134.52 192.07 C 135.89 192.07 137.01 190.96 137.01 189.59 C 137.01 188.22 135.90 187.11 134.53 187.11 L 133.55 187.11 C 132.18 187.10 131.06 188.21 131.06 189.58 C 131.06 190.95 132.17 192.06 133.54 192.07 Z M 134.51 192.07 L 135.51 192.07 C 136.88 192.08 138.00 190.98 138.01 189.62 C 138.02 188.25 136.92 187.13 135.55 187.12 L 134.55 187.11 C 133.18 187.10 132.06 188.20 132.05 189.57 C 132.04 190.94 133.14 192.06 134.51 192.07 Z M 135.48 192.07 L 136.50 192.09 C 137.86 192.12 138.99 191.03 139.02 189.66 C 139.04 188.29 137.96 187.16 136.59 187.14 L 135.57 187.12 C 134.21 187.09 133.08 188.18 133.05 189.55 C 133.03 190.92 134.11 192.05 135.48 192.07 Z M 136.47 192.09 L 137.45 192.12 C 138.82 192.16 139.96 191.09 140.00 189.72 C 140.04 188.36 138.97 187.21 137.60 187.17 L 136.62 187.14 C 135.25 187.10 134.11 188.17 134.07 189.54 C 134.03 190.90 135.10 192.05 136.47 192.09 Z M 137.43 192.12 L 138.43 192.16 C 139.79 192.21 140.94 191.15 141.00 189.78 C 141.05 188.42 139.99 187.27 138.63 187.22 L 137.62 187.18 C 136.26 187.12 135.11 188.18 135.06 189.55 C 135.00 190.91 136.06 192.06 137.43 192.12 Z M 138.42 192.15 L 139.43 192.20 C 140.79 192.26 141.95 191.20 142.01 189.84 C 142.07 188.48 141.01 187.32 139.65 187.26 L 138.64 187.22 C 137.27 187.16 136.12 188.21 136.06 189.58 C 136.00 190.94 137.06 192.09 138.42 192.15 Z M 139.43 192.19 L 140.41 192.24 C 141.78 192.30 142.93 191.25 142.99 189.89 C 143.05 188.53 142.00 187.37 140.64 187.31 L 139.65 187.27 C 138.29 187.20 137.14 188.26 137.08 189.62 C 137.01 190.98 138.07 192.13 139.43 192.19 Z M 140.42 192.24 L 141.40 192.28 C 142.76 192.34 143.91 191.29 143.97 189.93 C 144.03 188.57 142.98 187.42 141.62 187.36 L 140.64 187.31 C 139.28 187.25 138.13 188.31 138.07 189.66 C 138.00 191.02 139.06 192.17 140.42 192.24 Z M 141.40 192.28 L 142.41 192.32 C 143.77 192.38 144.92 191.33 144.98 189.97 C 145.04 188.61 143.98 187.47 142.63 187.41 L 141.62 187.36 C 140.26 187.30 139.12 188.35 139.06 189.71 C 139.00 191.07 140.05 192.22 141.40 192.28 Z M 142.41 192.32 L 143.43 192.36 C 144.78 192.42 145.93 191.37 145.99 190.01 C 146.05 188.66 145.00 187.51 143.64 187.45 L 142.62 187.41 C 141.27 187.35 140.12 188.40 140.06 189.76 C 140.01 191.11 141.06 192.26 142.41 192.32 Z M 143.43 192.36 L 144.43 192.40 C 145.78 192.46 146.93 191.40 146.98 190.05 C 147.04 188.70 145.99 187.55 144.64 187.50 L 143.64 187.46 C 142.28 187.40 141.14 188.45 141.08 189.80 C 141.03 191.16 142.08 192.30 143.43 192.36 Z M 144.43 192.40 L 145.44 192.44 C 146.79 192.49 147.93 191.44 147.99 190.09 C 148.05 188.74 147.00 187.60 145.64 187.54 L 144.63 187.50 C 143.28 187.45 142.14 188.50 142.09 189.85 C 142.03 191.20 143.08 192.34 144.43 192.40 Z M 145.44 192.43 L 146.44 192.48 C 147.79 192.53 148.93 191.48 148.99 190.13 C 149.04 188.78 147.99 187.64 146.64 187.59 L 145.64 187.55 C 144.29 187.49 143.15 188.54 143.10 189.89 C 143.04 191.24 144.09 192.38 145.44 192.43 Z M 146.44 192.47 L 147.45 192.52 C 148.80 192.57 149.94 191.53 150.00 190.18 C 150.05 188.83 149.01 187.69 147.66 187.63 L 146.65 187.59 C 145.30 187.53 144.16 188.58 144.10 189.93 C 144.04 191.28 145.09 192.42 146.44 192.47 Z M 147.45 192.51 L 148.46 192.56 C 149.80 192.62 150.94 191.57 151.00 190.23 C 151.06 188.88 150.02 187.74 148.67 187.68 L 147.66 187.64 C 146.32 187.58 145.18 188.62 145.12 189.97 C 145.06 191.31 146.10 192.45 147.45 192.51 Z M 148.46 192.55 L 149.44 192.60 C 150.79 192.66 151.93 191.62 151.99 190.27 C 152.05 188.93 151.01 187.79 149.66 187.73 L 148.67 187.69 C 147.33 187.63 146.19 188.67 146.13 190.01 C 146.07 191.35 147.11 192.49 148.46 192.55 Z M 149.44 192.59 L 150.42 192.64 C 151.77 192.70 152.90 191.66 152.96 190.32 C 153.02 188.98 151.99 187.84 150.64 187.78 L 149.66 187.73 C 148.32 187.67 147.18 188.71 147.12 190.05 C 147.06 191.40 148.10 192.53 149.44 192.59 Z M 150.42 192.64 L 151.42 192.68 C 152.76 192.74 153.90 191.70 153.96 190.36 C 154.02 189.02 152.98 187.89 151.64 187.83 L 150.64 187.78 C 149.30 187.72 148.17 188.76 148.11 190.10 C 148.05 191.44 149.08 192.57 150.42 192.64 Z M 151.42 192.68 L 152.42 192.72 C 153.76 192.78 154.89 191.75 154.95 190.41 C 155.01 189.07 153.98 187.94 152.64 187.88 L 151.64 187.83 C 150.30 187.77 149.17 188.81 149.11 190.14 C 149.05 191.48 150.08 192.62 151.42 192.68 Z M 152.42 192.72 L 153.42 192.76 C 154.76 192.82 155.89 191.79 155.95 190.45 C 156.01 189.12 154.97 187.99 153.64 187.93 L 152.64 187.88 C 151.31 187.82 150.17 188.85 150.11 190.19 C 150.05 191.52 151.09 192.66 152.42 192.72 Z M 153.42 192.76 L 154.42 192.80 C 155.75 192.86 156.88 191.83 156.94 190.50 C 157.00 189.17 155.97 188.04 154.64 187.98 L 153.64 187.93 C 152.31 187.87 151.18 188.90 151.12 190.24 C 151.06 191.57 152.09 192.70 153.42 192.76 Z M 154.42 192.80 L 155.42 192.84 C 156.75 192.90 157.87 191.87 157.93 190.54 C 157.99 189.22 156.97 188.09 155.64 188.03 L 154.64 187.98 C 153.31 187.92 152.18 188.95 152.12 190.28 C 152.06 191.61 153.09 192.74 154.42 192.80 Z M 155.42 192.84 L 156.42 192.88 C 157.74 192.94 158.87 191.92 158.93 190.59 C 158.99 189.26 157.96 188.14 156.64 188.08 L 155.64 188.04 C 154.31 187.97 153.19 189.00 153.13 190.33 C 153.07 191.65 154.09 192.78 155.42 192.84 Z M 156.42 192.87 L 157.42 192.92 C 158.74 192.98 159.86 191.96 159.92 190.63 C 159.98 189.31 158.96 188.19 157.63 188.13 L 156.64 188.09 C 155.31 188.03 154.19 189.05 154.13 190.37 C 154.07 191.69 155.10 192.81 156.42 192.87 Z M 157.42 192.91 L 158.42 192.96 C 159.73 193.02 160.85 192.00 160.91 190.68 C 160.97 189.36 159.95 188.25 158.63 188.19 L 157.63 188.14 C 156.32 188.08 155.20 189.10 155.14 190.42 C 155.08 191.74 156.10 192.85 157.42 192.91 Z M 158.42 192.95 L 159.42 192.99 C 160.73 193.05 161.84 192.04 161.90 190.72 C 161.96 189.41 160.95 188.30 159.63 188.24 L 158.63 188.19 C 157.32 188.13 156.21 189.15 156.15 190.46 C 156.09 191.78 157.10 192.89 158.42 192.95 Z M 159.42 192.99 L 160.42 193.03 C 161.72 193.09 162.83 192.08 162.89 190.77 C 162.95 189.46 161.94 188.35 160.63 188.29 L 159.63 188.25 C 158.32 188.19 157.21 189.20 157.15 190.51 C 157.10 191.82 158.11 192.93 159.42 192.99 Z M 160.42 193.02 L 161.39 193.07 C 162.70 193.13 163.80 192.12 163.86 190.81 C 163.92 189.51 162.91 188.41 161.61 188.35 L 160.63 188.30 C 159.33 188.24 158.22 189.25 158.16 190.56 C 158.10 191.86 159.11 192.96 160.42 193.02 Z M 161.40 193.06 L 162.39 193.10 C 163.68 193.16 164.78 192.15 164.84 190.86 C 164.90 189.56 163.89 188.46 162.60 188.40 L 161.61 188.36 C 160.31 188.30 159.21 189.30 159.15 190.60 C 159.10 191.90 160.10 193.00 161.40 193.06 Z M 162.39 193.09 L 163.40 193.13 C 164.69 193.19 165.78 192.19 165.84 190.90 C 165.90 189.61 164.90 188.51 163.61 188.46 L 162.59 188.41 C 161.30 188.36 160.21 189.36 160.15 190.65 C 160.10 191.94 161.10 193.03 162.39 193.09 Z M 163.40 193.12 L 164.42 193.17 C 165.71 193.22 166.79 192.22 166.85 190.94 C 166.90 189.65 165.90 188.57 164.62 188.51 L 163.60 188.47 C 162.32 188.41 161.23 189.41 161.18 190.70 C 161.12 191.98 162.12 193.07 163.40 193.12 Z M 164.42 193.15 L 165.44 193.20 C 166.71 193.25 167.79 192.26 167.85 190.98 C 167.90 189.70 166.91 188.62 165.63 188.57 L 164.62 188.52 C 163.34 188.47 162.26 189.46 162.20 190.74 C 162.15 192.02 163.14 193.10 164.42 193.15 Z M 165.44 193.18 L 166.45 193.23 C 167.72 193.28 168.79 192.29 168.84 191.02 C 168.90 189.75 167.91 188.67 166.64 188.62 L 165.63 188.58 C 164.36 188.52 163.28 189.51 163.23 190.78 C 163.18 192.06 164.16 193.13 165.44 193.18 Z M 166.44 193.21 L 167.42 193.26 C 168.69 193.31 169.76 192.33 169.81 191.06 C 169.87 189.80 168.89 188.73 167.62 188.67 L 166.64 188.63 C 165.38 188.58 164.31 189.56 164.25 190.82 C 164.20 192.09 165.18 193.16 166.44 193.21 Z M 167.42 193.24 L 168.36 193.29 C 169.61 193.34 170.68 192.37 170.74 191.11 C 170.79 189.85 169.82 188.79 168.56 188.73 L 167.63 188.69 C 166.37 188.63 165.30 189.60 165.24 190.86 C 165.19 192.12 166.16 193.19 167.42 193.24 Z M 168.35 193.27 L 169.29 193.32 C 170.54 193.38 171.60 192.41 171.66 191.16 C 171.72 189.91 170.76 188.85 169.51 188.79 L 168.57 188.74 C 167.32 188.68 166.25 189.65 166.19 190.90 C 166.13 192.15 167.10 193.21 168.35 193.27 Z M 169.28 193.31 L 170.29 193.36 C 171.54 193.42 172.60 192.46 172.66 191.22 C 172.72 189.97 171.76 188.92 170.52 188.85 L 169.51 188.80 C 168.27 188.74 167.21 189.70 167.15 190.94 C 167.08 192.18 168.04 193.24 169.28 193.31 Z M 170.29 193.34 L 171.37 193.40 C 172.60 193.46 173.66 192.51 173.72 191.28 C 173.79 190.04 172.84 188.99 171.60 188.92 L 170.52 188.87 C 169.29 188.80 168.23 189.75 168.17 190.99 C 168.10 192.22 169.05 193.28 170.29 193.34 Z M 171.36 193.39 L 172.28 193.44 C 173.51 193.50 174.56 192.56 174.63 191.33 C 174.69 190.10 173.75 189.05 172.52 188.98 L 171.60 188.93 C 170.37 188.87 169.32 189.81 169.25 191.04 C 169.19 192.27 170.13 193.32 171.36 193.39 Z M 172.28 193.43 L 173.27 193.48 C 174.49 193.55 175.54 192.61 175.61 191.38 C 175.67 190.16 174.73 189.11 173.51 189.04 L 172.52 188.99 C 171.29 188.92 170.25 189.86 170.18 191.09 C 170.11 192.32 171.05 193.36 172.28 193.43 Z M 173.26 193.47 L 174.29 193.53 C 175.52 193.60 176.56 192.66 176.63 191.44 C 176.69 190.22 175.76 189.17 174.54 189.11 L 173.51 189.05 C 172.29 188.98 171.24 189.92 171.17 191.14 C 171.11 192.36 172.04 193.41 173.26 193.47 Z M 174.29 193.52 L 175.34 193.58 C 176.56 193.65 177.60 192.72 177.67 191.50 C 177.73 190.28 176.80 189.24 175.59 189.17 L 174.54 189.12 C 173.32 189.05 172.28 189.98 172.21 191.20 C 172.14 192.41 173.08 193.45 174.29 193.52 Z M 175.34 193.57 L 176.38 193.63 C 177.60 193.70 178.63 192.77 178.70 191.56 C 178.77 190.35 177.85 189.31 176.64 189.24 L 175.59 189.18 C 174.38 189.11 173.34 190.04 173.27 191.25 C 173.20 192.46 174.13 193.50 175.34 193.57 Z M 176.38 193.62 L 177.45 193.68 C 178.65 193.75 179.69 192.83 179.76 191.63 C 179.83 190.43 178.91 189.39 177.71 189.32 L 176.64 189.26 C 175.44 189.19 174.40 190.11 174.33 191.31 C 174.26 192.51 175.18 193.55 176.38 193.62 Z M 177.45 193.66 L 178.48 193.72 C 179.67 193.80 180.70 192.89 180.77 191.70 C 180.84 190.50 179.94 189.48 178.74 189.40 L 177.71 189.34 C 176.52 189.27 175.49 190.18 175.42 191.37 C 175.35 192.56 176.25 193.59 177.45 193.66 Z M 178.48 193.70 L 179.47 193.77 C 180.65 193.84 181.67 192.94 181.75 191.76 C 181.82 190.58 180.92 189.56 179.74 189.49 L 178.75 189.42 C 177.57 189.35 176.55 190.25 176.47 191.43 C 176.40 192.61 177.29 193.63 178.48 193.70 Z M 179.47 193.75 L 180.42 193.81 C 181.59 193.89 182.60 193.00 182.68 191.83 C 182.76 190.66 181.87 189.65 180.70 189.57 L 179.75 189.51 C 178.58 189.43 177.57 190.32 177.49 191.49 C 177.41 192.66 178.30 193.67 179.47 193.75 Z M 180.42 193.79 L 181.36 193.85 C 182.52 193.93 183.53 193.06 183.61 191.90 C 183.69 190.74 182.81 189.74 181.66 189.66 L 180.71 189.59 C 179.55 189.51 178.54 190.39 178.46 191.54 C 178.38 192.70 179.26 193.71 180.42 193.79 Z M 181.36 193.82 L 182.40 193.90 C 183.55 193.99 184.54 193.13 184.63 191.99 C 184.71 190.85 183.86 189.85 182.71 189.76 L 181.66 189.69 C 180.52 189.60 179.53 190.46 179.44 191.60 C 179.36 192.74 180.21 193.74 181.36 193.82 Z M 182.38 193.87 L 183.38 193.95 C 184.51 194.05 185.50 193.22 185.59 192.10 C 185.69 190.97 184.86 189.98 183.74 189.89 L 182.74 189.80 C 181.61 189.70 180.62 190.53 180.52 191.66 C 180.43 192.78 181.26 193.77 182.38 193.87 Z M 183.35 193.92 L 184.31 194.02 C 185.41 194.14 186.40 193.34 186.52 192.24 C 186.64 191.13 185.84 190.14 184.73 190.03 L 183.77 189.92 C 182.67 189.81 181.68 190.60 181.56 191.71 C 181.44 192.81 182.24 193.80 183.35 193.92 Z M 184.26 193.98 L 185.28 194.12 C 186.36 194.26 187.35 193.50 187.50 192.42 C 187.64 191.34 186.89 190.35 185.80 190.20 L 184.78 190.07 C 183.70 189.92 182.71 190.68 182.56 191.76 C 182.42 192.84 183.18 193.84 184.26 193.98 Z M 185.21 194.07 L 186.52 194.29 C 187.57 194.48 188.57 193.77 188.76 192.72 C 188.94 191.67 188.23 190.66 187.18 190.48 L 185.87 190.25 C 184.82 190.07 183.82 190.77 183.63 191.83 C 183.45 192.88 184.16 193.88 185.21 194.07 Z M 186.39 194.22 L 187.28 194.44 C 188.29 194.69 189.32 194.07 189.57 193.06 C 189.82 192.04 189.20 191.02 188.18 190.77 L 187.30 190.55 C 186.29 190.30 185.26 190.92 185.01 191.93 C 184.76 192.95 185.38 193.97 186.39 194.22 Z M 186.06 193.37 L 186.13 193.52 C 186.55 194.45 187.64 194.85 188.56 194.43 C 189.48 194.01 189.89 192.92 189.47 192.00 L 189.40 191.84 C 188.98 190.92 187.89 190.51 186.97 190.94 C 186.04 191.36 185.64 192.45 186.06 193.37 Z M 187.71 191.02 L 186.71 191.07 C 185.74 191.12 185.00 191.95 185.06 192.91 C 185.11 193.87 185.93 194.61 186.90 194.56 L 187.89 194.51 C 188.86 194.45 189.60 193.63 189.55 192.67 C 189.49 191.70 188.67 190.96 187.71 191.02 Z M 186.79 191.15 L 185.95 191.15 C 185.03 191.15 184.28 191.90 184.28 192.82 C 184.29 193.74 185.04 194.49 185.96 194.48 L 186.81 194.48 C 187.73 194.48 188.47 193.73 188.47 192.81 C 188.46 191.89 187.72 191.14 186.79 191.15 Z"
      fill="black"
      fill-rule="nonzero" /></svg>