<svg xmlns="http://www.w3.org/2000/svg" version="1.0" width="937.000000pt" height="937.000000pt" viewBox="0 0 937.000000 937.000000" preserveAspectRatio="xMidYMid meet">
  <defs/>
  <path fill="#000000" d="M499,305.8 C497.5,307 496.5,309.7 495.5,314.8 C494.6,319.4 491.1,328.9 486,340.4 C477.1,360.7 476.3,364.9 480.3,369.5 C483.5,373.3 488.1,373.9 511.6,374 C523.2,374 532.9,374.3 533.3,374.6 C533.6,375 533.2,376.6 532.4,378.2 C530.1,382.7 507,415.4 505.9,415.8 C504.8,416.2 492.5,409.2 487.1,405.1 C485.3,403.7 482.4,400.2 480.8,397.2 C477,390.6 474.2,388.6 470.8,389.9 C466.6,391.5 466.1,394.6 468.6,402.9 C470.7,410.1 476.7,416.3 488,423 C492.9,425.9 497,428.6 497,429 C497,431.1 478.6,452 476.8,452 C476.3,452 475.3,450.2 474.4,448 C472.4,443 468.9,441.7 465.7,444.9 L463.6,447 L464.7,452.4 C466.1,459 468.3,462.5 471.9,464.1 L474.7,465.4 L474.3,491.4 C474.1,505.8 473.4,535.5 472.7,557.5 C471.4,601.9 471.4,616.1 473,619 C473.7,620.4 475.1,621 477.3,621 C481.6,621 483,619.5 483,614.9 L483,611.2 L487.3,611.7 L491.6,612.2 L505.1,605.3 C519.4,598 532.4,589.7 545.6,579.4 L553.8,573.1 L554.4,576.3 C557,590.8 557.8,658.6 555.4,661 C553.9,662.5 548,657.5 539,647.2 C534.1,641.6 531.1,639 529.6,639 C526.7,639 525,640.8 525,643.8 C525,648.2 544.5,670.1 550.7,672.7 C559.7,676.4 566.7,672.1 569.2,661.3 C571.1,652.7 570.8,598.2 568.6,578 C567.7,569.5 567,562.2 567,561.9 C567,561.6 572,557 578,551.6 C589.1,541.8 590.8,539.2 587.8,536.2 C585.3,533.7 581.6,535 575,540.6 C571.4,543.6 567.7,546.6 566.7,547.1 C564.7,548.2 564.6,548.1 563,539.5 C557.2,509.1 545.4,477.4 535.9,466.6 C529.6,459.5 525.7,458 513,458.1 C507.2,458.1 499.8,458.5 496.5,458.9 C493.2,459.4 490.3,459.6 490.1,459.4 C489.9,459.2 491.1,457.9 492.8,456.5 C494.5,455.1 498.9,450.2 502.6,445.7 C506.3,441.2 509.9,436.9 510.5,436.2 L511.7,434.9 L519.6,438 C523.9,439.8 542,446.1 559.7,452.1 C577.4,458.1 595.3,464.6 599.6,466.5 C604,468.5 608.1,469.8 609.2,469.4 C611.6,468.7 613.3,465.4 612.5,462.9 C611.6,460.2 598.3,453.8 578.4,446.6 C541.1,433.1 519.8,424.2 520.8,422.5 C521.2,421.9 526.8,413.9 533.3,404.7 C539.7,395.6 546.1,385.8 547.5,382.8 C551.7,373.9 550.6,365.4 545,362.5 L541.9,360.9 L517,361 L492,361 L492.9,358.8 C493.4,357.5 496.4,350.9 499.5,344 C506.9,328 509,321.9 509.7,314.4 L510.3,308.3 L507.9,306.2 C505.1,303.5 502,303.4 499,305.8 Z M524,474.5 C527.8,478.1 534.9,491.8 539,503.5 C544.2,518.3 553.4,557.1 551.9,558.4 C550.8,559.3 523.1,577.9 519.7,580 L515.9,582.2 L517.6,578.4 C521.5,569.4 522.3,565.3 522.4,554.9 L522.5,544.4 L519.5,538.4 C517.2,533.9 515.3,531.8 511.6,529.5 C508.9,527.8 503.9,523.9 500.4,520.6 L494.1,514.7 L491,515.3 L488,515.9 L488,494 L488,472.1 L493.3,471.7 C496.1,471.4 503.6,471.3 509.8,471.4 L521,471.6 L524,474.5 Z M500.9,536.5 C509.3,540.7 510.8,542.4 512,549.2 C514.2,561.1 509.5,575.6 499.9,586.3 C495.4,591.3 485.4,598.7 484.4,597.7 C484.1,597.5 484.4,592.2 485,586 C485.5,579.7 486.2,567.4 486.5,558.6 C486.8,549.7 487.3,539.2 487.6,535.2 L488.2,528 L491.2,530.5 C492.9,532 497.3,534.6 500.9,536.5 Z"/>
  <path fill="#000000" d="M416.3,359.2 C413.8,361.6 404.7,371.8 396.2,382 C376.5,405.4 370.3,412.4 344.5,439.9 C320,466 313,474.4 313,478.1 C313,480.9 315.7,484 318.3,484 C321.5,484 379.3,424.9 404.4,396 C421.7,376 430,364.9 430,361.7 C430,359.3 425.6,355 423,355 C421.9,355 418.9,356.9 416.3,359.2 Z"/>
  <path fill="#000000" d="M393.1,424.6 C391.9,426.1 391,427.8 391,428.5 C391,429.2 390.6,434.2 390,439.6 C386.9,470.7 383.4,567.1 384.3,597 L384.8,615.5 L386.9,622.2 C389.2,629.3 391.5,631.6 395.1,630.5 C398.3,629.4 398.9,626.2 396.8,619.7 L395,613.8 L395,593.7 C395,582.6 395.7,564.7 396.5,554 C398.7,523.8 400.9,496.8 401.5,493.5 C402.8,485.1 406,434.8 405.4,430.2 C405,426.5 404.1,424.5 402.7,423.5 C399.4,421.2 395.4,421.6 393.1,424.6 Z"/>
  <path fill="#000000" d="M431.2,441.5 C426.5,447.4 426,466.7 429.5,505 L430.8,520.5 L433,522.2 C434.1,523.1 435.9,523.6 436.8,523.3 C440.6,522 440.8,520.4 440.3,502.7 C439.9,487.9 440.8,466.2 442.7,447.4 L443.2,442.2 L440.9,440.6 C437.4,438.2 433.5,438.6 431.2,441.5 Z"/>
</svg>

