<svg xmlns="http://www.w3.org/2000/svg" version="1.0" width="937.000000pt" height="937.000000pt" viewBox="0 0 937.000000 937.000000" preserveAspectRatio="xMidYMid meet">
  <defs/>
  <path fill="#000000" d="M499.5,289.2 C494.8,291.8 494.7,297 499.1,301.6 L502.3,304.9 L500.5,311.9 L498.8,319 L490.6,319 C486.2,319 475.5,320.1 467,321.5 C447.5,324.6 443.9,324.7 441.4,321.9 C436.6,316.4 427.6,314.8 418.2,317.5 C412.7,319.2 411,321.1 411,325.9 C411,330.6 415.4,333.1 426.3,334.4 L435.4,335.6 L436.2,338.5 C436.6,340.1 436.8,341.5 436.6,341.7 C435.5,342.8 394.6,346 380.8,346 L364.1,346 L362.6,348.2 C360.5,351.2 360.6,354.3 362.8,357.1 L364.7,359.3 L376,360.3 C387.9,361.4 404.9,360.5 427.4,357.5 C433.5,356.7 438.6,356.3 438.9,356.5 C439.1,356.8 439.5,361.8 439.7,367.7 C440.2,382 440.7,384.6 443.2,387 C448.2,391.6 452.9,387.8 460.4,373.1 C466.7,360.7 467.3,357.5 463.4,355.8 C459.9,354.2 458.1,355.5 454.5,362.6 L451.5,368.5 L451.2,361.6 C451,357.9 451,354.6 451.2,354.5 C451.8,354 489.4,347.1 489.8,347.5 C490.4,348.1 485.2,366.1 482.4,373 C479.5,380.4 478,382.5 478,379.3 C478,378.1 477.3,376.4 476.4,375.6 C474.5,373.7 469.7,373.5 468.2,375.3 C467.6,376 466,383.5 464.6,392 C463.2,400.5 461.7,407.7 461.3,408 C460.8,408.4 453.3,409.5 444.5,410.4 C435.7,411.3 427,412.4 425.3,412.7 L422,413.2 L421.1,410.7 C420.1,408 417.3,406 414.7,406 C412.5,406 403.1,413.7 401.8,416.5 C400.5,419.5 402.3,424.5 405.3,426.1 C408.2,427.7 419.8,427.3 439.2,424.9 C448.5,423.8 456.4,423.1 456.7,423.4 C457,423.7 456,427.3 454.4,431.5 L451.5,439 L434.8,439 C424,439 418,438.6 418,438 C418,437.4 417,436.5 415.7,435.9 C412.9,434.6 397.7,438.1 394.8,440.7 C392.3,442.9 392.5,448.2 395.1,450.6 L397.2,452.5 L420.6,452.8 C436.6,453 444,453.4 444,454.2 C444,454.8 441.3,460.1 437.9,466 L431.8,476.8 L426.1,477.9 C410.5,480.8 370.8,486.2 365.5,486.1 C345.6,485.6 341.2,485.8 333,488 C321.2,491 318.2,492.5 317,495.5 C315.7,498.9 317.5,502.9 321,504.7 C325.6,507 338.8,506 378.1,500.4 C399.6,497.3 417.4,495.1 417.7,495.4 C418.5,496.2 408,508.9 398.4,519 C373.7,544.7 348.2,563.7 334.2,567 C328,568.4 325.1,571.5 326.9,574.9 C328.5,577.9 331.1,578.2 338.4,576.6 C345,575 354.2,570.9 361.1,566.3 L364.8,563.8 L367.2,565.1 C368.9,566.1 377.2,566.5 397.8,566.8 C413.3,567 426,567.6 426,568 C426,569.5 403.1,589 386.1,601.9 C376.4,609.2 368.2,615.8 367.8,616.4 C365.7,619.5 368.5,625 372.1,625 C373.6,625 405.3,603.7 416.2,595.4 C419.7,592.7 427.9,585.3 434.5,578.9 L446.5,567.2 L454,566.9 L461.5,566.5 L461.8,568.7 C462,570.1 461.5,571 460.1,571.5 C457.6,572.3 456.4,576.1 457.9,578.8 C458.5,579.8 460.3,581.3 461.9,581.9 L464.8,583.2 L466.4,592 C470,611.5 470.7,634.2 467.8,637.7 C466,639.9 461.2,639.2 458.7,636.5 C457.5,635.1 454.3,629.3 451.5,623.7 L446.5,613.5 L443.8,613.2 C441.8,613 440.7,613.5 439.5,615.4 L437.8,617.9 L442.1,627.6 C446.6,637.9 450.7,644 455.3,647.4 C459.3,650.4 469.7,650.4 473.7,647.4 C480.8,642 482.9,630.9 481,607.2 C480.4,598.7 479.6,591 479.2,590.2 C478.8,589 479.1,588.8 480.6,589.4 C481.6,589.8 494.4,594.6 509,600 C540.3,611.5 561.4,620 568.9,624.1 C577,628.4 581,627.7 581,621.8 L581,619.1 L574.3,615.2 C555.9,604.5 536.9,596 501,582.4 L476.5,573.2 L475.7,569.4 C475.3,567.4 475.1,565.6 475.2,565.5 C475.4,565.3 487.4,563.8 502,562 C517.8,560.1 529.4,558.2 530.8,557.4 C533.6,555.6 533.7,551 531.1,548.6 L529.2,546.9 L518.4,547.3 C512.4,547.5 502.1,548.5 495.6,549.4 C489,550.2 483.5,550.8 483.3,550.7 C483.2,550.5 484.8,549 487,547.4 C495.1,541.5 498,533.7 494.5,527.1 C492.6,523.3 485.6,519 474,514.5 C460.6,509.3 456,506.5 452.2,501.4 L448.9,497 L445.6,497 C441.7,497 439,499.5 439,503.1 C439,507 447.7,516.7 453.2,519 L455.9,520.2 L454.8,522.4 C453.9,524.6 454.6,533.6 456.6,545.2 L457.3,549 L455.1,549 C453.9,549 450.4,549.9 447.3,551 L441.6,553 L411,553 L380.5,552.9 L383.6,550.2 C409.8,527.3 418.8,518 433.6,498.5 L439.7,490.5 L453.6,487.7 C461.3,486.2 471,484.2 475.2,483.3 L482.8,481.6 L486.7,485.1 C488.8,487 492.6,490 495.1,491.7 C499.8,495 535.5,514.3 553.2,523.1 C566.2,529.6 591.1,543.7 601.5,550.6 C605.9,553.4 613.2,559.2 617.8,563.4 C622.3,567.6 626.4,571 626.8,571 C627.2,571 628.6,570.3 629.8,569.4 C633.9,566.5 632.7,563.8 622.3,553.2 C608.4,539 588,526 535,497.5 C507.5,482.7 499.6,478.1 500.4,477.3 C500.6,477.1 508.4,474.9 517.6,472.6 C536.7,467.7 552.6,462.6 562.3,458.2 C567.4,455.9 569.1,454.6 569.6,452.6 C570.4,449.3 569.7,447.5 566.7,445.5 L564.2,443.9 L556.8,446.9 C552.8,448.5 544.9,451.2 539.5,452.9 C526,457.1 487.3,466.2 484.8,465.8 C483.6,465.6 489.3,462.5 499.2,457.9 C517.1,449.5 519.9,447.2 518.3,442.4 C516.7,437.5 513.6,436.7 500.7,437.9 C494.6,438.5 484.5,439 478.3,439 L467.1,439 L468.4,435.2 C469.4,432.6 470.3,431.6 471.6,431.7 C472.7,431.8 484.1,428.7 497,424.9 C509.9,421 522.3,417.3 524.5,416.7 C527,415.9 529,414.5 530,412.8 L531.5,410.1 L529.4,407.3 L527.3,404.5 L518.2,404.2 C513.2,404.1 502.1,404.6 493.4,405.4 C484.7,406.3 477.5,406.8 477.3,406.6 C477.1,406.4 477.3,402.7 477.7,398.4 L478.5,390.5 L480.8,390.7 C482.1,390.9 483.9,390.6 484.9,390 C486.9,389 495.7,370.1 501.5,354.5 C503.5,349 505.7,344 506.3,343.4 C507,342.8 512.7,340.9 519,339.1 C532.5,335.3 541.7,331.4 543,328.9 C544.6,326 544.1,322.4 541.9,320.4 L539.8,318.5 L526.9,318.5 C519.8,318.5 514,318.2 514,317.8 C514,317.4 514.5,315.9 515.1,314.3 C516.7,309.9 516.5,300.8 514.6,297.2 C512.8,293.7 505.6,288 503.1,288 C502.2,288 500.6,288.6 499.5,289.2 Z M495,330.4 C495,331.2 494.2,332.1 493.3,332.4 C491.4,333 469.1,337.1 457.1,339 L449.8,340.2 L448.9,338.9 C446.5,335.2 447.7,334.5 460.8,332.6 C482.4,329.4 483.3,329.3 489.3,329.1 C493.6,329 495,329.3 495,330.4 Z M476.3,457 L468,460.9 L468,463.6 C468,465.1 468.7,467.1 469.5,468 L471,469.6 L461.4,471.4 C456.2,472.4 451.7,473 451.4,472.8 C451.2,472.5 453.3,468 456.1,462.7 L461.2,453 L472.8,453.1 L484.5,453.2 L476.3,457 Z M480.8,529.9 C483,531 485.1,532.4 485.4,532.9 C486.4,534.4 481.5,539.4 476.2,542.3 L471.2,545 L470.5,543.3 C470.2,542.3 469.6,537.8 469.3,533.2 L468.7,525 L472.7,526.4 C474.9,527.2 478.5,528.7 480.8,529.9 Z"/>
</svg>

