<svg xmlns="http://www.w3.org/2000/svg" version="1.0" width="937.000000pt" height="937.000000pt" viewBox="0 0 937.000000 937.000000" preserveAspectRatio="xMidYMid meet">
  <defs/>
  <path fill="#000000" d="M504,288 C501.6,290.4 501.5,292.8 503.5,299.4 C505.1,304.6 505.5,321.2 504.2,328.5 L503.5,332.5 L500,333 C497.7,333.3 496.2,334.2 495.6,335.7 L494.6,337.8 L476.1,343.6 C465.8,346.7 452.4,351 446.1,353.1 C439.9,355.2 434.3,356.7 433.7,356.3 C433.1,356 432.9,351.7 433.2,345.1 C433.6,336.8 434.3,333.5 436.1,329.8 L438.4,325.1 L437.2,322.5 C436.6,321.1 434.9,319.5 433.6,318.8 L431.1,317.7 L428.4,319.4 C427,320.4 424.6,323.7 423.2,326.8 L420.5,332.5 L420.4,346.9 L420.3,361.4 L415.1,363.1 L410,364.9 L407.5,362.4 C404.1,359 402.1,359.4 395.2,364.5 C386.5,371.1 385.1,375.9 390.5,381 C393.7,384 399.9,383.9 411.6,380.4 C423.7,376.8 423.9,376.8 425.5,381.4 C429.9,394 444.1,398 453.3,389.2 C456.6,386 456.8,382.6 453.7,380.5 L451.3,379 L446.8,380.7 C444.3,381.6 441.5,382 440.6,381.7 C438.5,380.9 435.3,374.3 436.6,373.1 C437.1,372.6 445.4,369.5 455,366.2 C464.6,362.9 478.1,358.1 484.9,355.6 C491.7,353.1 497.5,351.1 497.6,351.3 C497.8,351.4 496.2,357.4 494.1,364.5 C490.4,377.2 484.7,392.7 480.8,400.3 L479,404 L472.7,400.9 C469.3,399.2 464.2,396.2 461.3,394.3 C455.4,390.3 452.1,390.3 449.4,394.5 C447.4,397.6 448.2,400 453,405 C456.7,408.9 460.6,417.2 461.7,423.6 L462.2,426.7 L455.9,427.9 C452.4,428.6 442.8,430.7 434.6,432.6 C424,435.1 418.7,435.9 415.9,435.5 C409.9,434.5 399.4,438.3 397.4,442.2 C395.4,446 396.2,449.5 399.6,451.6 C403.2,454 412.9,453 433.5,448.1 C442.9,445.9 453.5,443.4 457.2,442.7 L463.8,441.3 L464.4,443.4 C464.7,444.6 465,450.9 465,457.5 L465,469.5 L463,473.5 C459.5,480.9 459.9,480.7 436.9,485.1 C400.8,491.8 362.2,499.8 345.4,503.9 C336.7,506 328.3,507.8 326.9,507.8 C321.8,507.7 313.1,511 311.4,513.5 C309.5,516.5 310.1,520.1 313.2,523.2 L315.3,525.3 L321.4,524.7 C324.7,524.4 334.9,522.3 344,520.1 C366.2,514.8 436.2,500 439.3,500 C439.9,500 437.4,501.5 433.9,503.2 C430.1,505.2 426.9,507.6 426,509.2 L424.6,511.9 L426.2,515.3 L427.9,518.8 L409.7,536.7 C399.7,546.5 381.6,564 369.5,575.5 C336.8,606.8 310.6,632.2 309.7,633.8 C308.3,636 311.6,640 314.8,640 C316.9,640 320.4,637.3 329.9,628.4 C336.7,622.1 354,606.4 368.4,593.6 C382.7,580.8 400.9,564.3 408.8,556.9 C416.7,549.5 425.4,541.5 428.1,539.1 L433,534.7 L433,547.9 C433,558.2 432.7,561 431.7,561 C429.6,561 427,564.4 427,567.1 C427,568.4 428.5,571.3 430.2,573.5 L433.5,577.4 L433.8,585 C433.9,589.1 434.5,598.3 435.1,605.3 C435.9,615.2 435.9,618.4 435,619.6 C434.2,620.5 434,622.6 434.3,625.3 C435,630.4 438.7,633.9 446.3,636.5 L451.5,638.3 L473.1,638.8 C484.9,639 498.4,638.7 503.1,638.2 C508.3,637.5 511.9,637.5 512.4,638.1 C514,639.6 518.2,639.1 520.4,637.1 C521.6,636.1 526.1,634.2 530.5,633 C539.8,630.5 541,629.7 541,626 C541,622 538.9,620.7 533.6,621.5 L529,622.2 L529.8,618.9 C530.2,617 530.5,599.7 530.5,580.5 L530.5,545.5 L528.7,539.5 C525.9,530.7 520.1,520.1 515.2,515.2 C512.8,512.8 508.3,509.6 505.2,508.2 L499.5,505.5 L481.2,505 L462.9,504.5 L469.2,498.4 L475.5,492.2 L494.5,488.1 C515.3,483.6 535.1,480 556,477 C579.2,473.6 584,472 584,467.6 C584,466.4 583.2,464.6 582.2,463.7 L580.4,462.1 L571.5,463.5 C566.5,464.3 551,466.4 537,468.1 C523,469.8 507.1,472 501.8,473 C496.4,473.9 492,474.4 492,474 C492,471.9 530.1,434.4 538.1,428.5 C543,424.9 547.1,421.2 547.1,420.2 C547.5,415.2 545,412 540.8,412 C537.7,412 527.4,416.8 522.2,420.7 L518.8,423.2 L517.4,421.2 C516.6,420 510.6,417 502.8,414 C495.5,411.2 489.4,408.7 489.2,408.5 C489,408.3 490.3,405.5 492.2,402.3 C497.4,393.5 507.9,369.8 512,358 C513.9,352.2 515.9,347 516.3,346.3 C516.7,345.7 519.6,344.6 522.8,344 C530.4,342.4 533,340.7 533,337 C533,332.8 530.6,331 525.2,331 L520.5,331 L520.5,315.3 L520.5,299.5 L517.6,294.6 C516.1,292 513.9,288.9 512.9,287.9 C510.4,285.4 506.5,285.5 504,288 Z M487.6,419.2 L492.5,421.4 L488.5,422.1 C486.3,422.4 482.6,423 480.3,423.4 L476,424 L476,421.6 C476,419.8 476.4,419.3 477.8,419.7 C478.8,419.9 480.2,419.4 480.9,418.6 C482.5,416.7 481.8,416.6 487.6,419.2 Z M506.4,434.2 C505.4,435.5 500.2,441 494.9,446.5 C489.6,452 483.6,458.4 481.4,460.8 L477.5,465.1 L477.8,451.8 C478,444.5 478.3,438.4 478.4,438.3 C478.6,438 499.7,433.6 505,432.7 C506.4,432.5 507.7,432.2 507.9,432.1 C508.1,432.1 507.5,433 506.4,434.2 Z M502.2,522.5 C505.5,524.9 507.5,527.5 510.8,534 C515.7,543.9 517,550.6 517,568.4 L517,580.3 L514.6,578.1 C508.7,572.6 497.1,570.4 467.8,569.4 L448,568.8 L448,554.6 C448,541.4 449.2,526.1 450.5,521.9 C451.3,519.5 454.2,519.3 478.2,519.4 L497.8,519.5 L502.2,522.5 Z M503.8,584.5 C506.9,585.8 508.3,587.2 509.9,590.6 C511.3,593.5 512.8,595.2 514.5,595.6 L517,596.2 L517,608 C517,621.6 516.2,624.5 512.6,625.2 C509.3,625.9 459.4,623.4 458,622.5 C457.3,622.1 457.3,621.3 458,620 C458.5,619 459,616.5 459,614.6 C459,611.9 458.4,610.6 456.5,609.4 L454,607.8 L451.5,609.4 C450.2,610.3 448.8,611 448.5,611 C448.2,611 448,604.7 448,597 L448,583.1 L462.8,582.7 C485.9,582.1 499.2,582.7 503.8,584.5 Z"/>
</svg>

