<svg xmlns="http://www.w3.org/2000/svg" version="1.0" width="937.000000pt" height="937.000000pt" viewBox="0 0 937.000000 937.000000" preserveAspectRatio="xMidYMid meet">
  <defs/>
  <path fill="#000000" d="M489.8,229.5 C486,231.6 485.4,235.1 487.6,242.3 C489.9,249.7 490.1,262.6 488.1,274.8 L486.7,283 L483.1,282.4 C466,279.5 451.9,272.9 432.1,258.5 C416.7,247.3 413.8,246.2 409.9,250.1 C407.1,252.9 407.8,255.9 413.6,266 C418,273.5 429.2,298.1 428.5,298.8 C428.3,299 420.8,300.7 411.8,302.6 C402.9,304.5 387.2,307.9 377,310.1 C366.8,312.3 354.3,314.4 349.1,314.8 L339.8,315.6 L337.4,318.3 C334.5,321.7 334.2,326.8 336.8,329.9 C339.2,332.9 344.2,333.8 353.3,332.8 C360.8,332 368.8,330.4 413.9,320.4 C425,317.9 434.4,316.1 434.6,316.3 C434.8,316.5 436.3,321.1 437.9,326.4 C441.5,338.3 445.2,345.8 450,351 C454.1,355.5 455.7,355.8 459,353.2 C462.2,350.6 461.8,347 457.9,341.4 C454.5,336.5 447.5,315.2 448.9,313.9 C450,312.9 482,306.7 482.7,307.4 C483.1,307.7 482.6,312.3 481.6,317.4 C479.5,328.3 480.2,331 485,331 C486.6,331 488.5,330.4 489.2,329.6 C490,328.9 491.8,322.9 493.3,316.4 L496,304.5 L511.8,302.1 C531,299.2 537,297.7 538.7,295.4 C540.7,292.7 540.3,287.3 538,285 L536,283 L518.4,283.7 L500.8,284.3 L501.4,282.4 C504,273.8 505.3,265.1 505.4,255.5 L505.4,244.5 L503.2,237.8 C501.9,234.2 500.3,230.7 499.6,230.1 C497.3,228.2 492.6,227.9 489.8,229.5 Z M445,280.2 C451.7,284.1 465.7,290 468.5,290 C475.2,290 455.9,295 444.1,296.3 C443.1,296.4 441,292.6 437.8,285 C435.2,278.7 433,273.3 433,273.1 C433,272.9 434.2,273.6 435.8,274.6 C437.3,275.6 441.4,278.1 445,280.2 Z"/>
  <path fill="#000000" d="M482,335 L480,337 L480,349.8 L480,362.7 L469.3,367.2 C458.6,371.7 457.2,372.2 451.7,373.4 L448.8,374.1 L452.4,370.4 C456.6,366.1 457.1,362.3 454,357.2 C451.2,352.7 444.5,349.8 428.7,346.4 L416,343.7 L411.9,344.9 C409.3,345.7 407.2,347.2 405.9,349.3 L403.9,352.5 L404.6,361 C405,365.7 405.3,371.5 405.4,374 L405.5,378.4 L393.5,383.1 L381.5,387.8 L377.4,387.3 C370.1,386.4 359,393.7 359,399.5 C359,402.9 362.7,406.8 366.5,407.6 C371.2,408.4 378.3,406.6 392.4,400.8 C398.9,398.1 404.5,396.1 404.7,396.4 C405.6,397.2 401,405.9 397,410.8 C390.5,419.1 384.5,422.3 365.2,427.9 C355.6,430.6 346.7,433.6 345.4,434.5 C342.4,436.5 340.8,440.3 341.6,443.6 C342.3,446.4 346.5,450 349,450 C349.9,450 360.3,447.3 372,443.9 C388.9,439.1 393.5,438.1 394.1,439.2 C394.6,439.9 395,444.1 395,448.6 C395,457.7 398,471.3 400.7,474.3 C401.9,475.5 403.4,476 405.2,475.8 C410.3,475 408.2,477.5 401.3,480.4 C380.8,489.2 373.1,493.2 372,495.9 C370.1,500.6 373.5,506 378.4,506 C379.3,506 385.7,503.3 392.7,500 C399.6,496.7 405.5,494 405.7,494 C407.4,494 401.8,510 398,515.9 C394.1,522.1 394.1,526.2 397.9,530.1 C399.5,531.7 401.9,533 403.3,533 C408.6,533 421,527.6 433.7,519.9 L440.3,515.9 L446,518.4 C453.4,521.7 459.4,521.7 472.9,518.5 C478.6,517.1 483.5,516.2 483.7,516.4 C484.5,517.2 481.1,522.7 476.1,529 C473.4,532.4 470.6,536 469.8,537 C468.8,538.4 462.4,540.1 442,544.5 C389.7,555.6 370.8,561.3 358.2,569.9 C351.6,574.4 349.9,577.4 351.8,581.5 C353.9,586 357.2,585.8 373.5,580.2 C381.7,577.4 393.9,573.7 400.5,572.1 C418.5,567.6 452.6,560 454.6,560 L456.3,560 L455.7,568.2 C455.3,574.3 454.1,579.5 451.2,587.8 C446.7,600.6 442.3,608.4 432.1,622 C426.8,629 425,632.2 425,634.5 C425,638.6 427.7,641 432.2,641 C435.8,641 439,639.5 480.2,618.2 C498.2,608.9 502.6,607.5 506.3,610.2 C507.2,610.9 510.2,616.7 513,623 C519.5,637.4 524.8,645.9 527.8,646.7 C529.1,647 531.3,646.7 532.7,646.1 L535.3,644.9 L534.7,639.1 C534,632.6 526.4,610.4 522.3,602.9 C515,589.4 503.9,590.6 469.4,608.6 C460.4,613.3 453,616.9 453,616.6 C453,616.3 454.5,613.5 456.4,610.3 C464.4,596.5 471,575.3 471,563.4 L471,556.1 L474.8,555.1 C476.8,554.6 479.9,553.9 481.6,553.5 L484.8,552.9 L485.4,555.5 C485.8,556.9 487.1,558.6 488.5,559.2 L490.9,560.3 L508.7,552.8 C518.5,548.7 528.8,544.5 531.5,543.5 C538,541.1 541,538.4 541,534.8 C541,530.2 537.1,527 531.3,527 C525.6,527 512.8,529.1 497.5,532.4 C491.5,533.8 486.4,534.7 486.2,534.5 C486,534.3 487.5,532 489.4,529.3 C493.7,523.3 496.9,516.4 497,513.2 C497,509.1 493.9,505 489.7,503.8 L485.9,502.6 L473.7,505.3 C458,508.8 450.1,508.8 454.6,505.5 C455.8,504.7 457.6,504.6 461.1,505.3 L465.9,506.2 L469.7,504.3 C477,500.6 481.9,489.1 486.6,465.4 C488,458.4 489.2,452.4 489.4,452.2 C489.6,452 492.6,453.3 496,455 C503,458.5 506.4,458.4 508.1,454.6 C509.7,451.1 508.1,448.9 499,442.9 L490.8,437.5 L491.4,432 C492.2,424.9 493.7,402.1 494.5,385.8 L495.2,373.1 L503.7,369.5 C508.4,367.6 513.3,365.7 514.6,365.4 L517,364.8 L517,384.6 C517,411.4 518.4,424.4 523,442.5 C534.1,485.5 544.7,506.1 557.4,508.8 C565.1,510.4 570.6,508.5 575.9,502.4 C579.9,497.9 580.8,495.6 582.1,486.3 L583.1,478.8 L581.5,476.4 C579.8,473.8 575,473.1 573.3,475.2 C572.7,475.9 572,479.1 571.6,482.3 C570.6,491.4 567.4,496 562.2,496 C557,496 550.1,481.7 542.5,455 C540.5,448.2 537.7,436.9 536.3,430 L533.7,417.5 L533.6,391.5 L533.6,365.5 L535.4,360.2 C536.4,357.1 536.9,353.8 536.6,352.4 C535.7,348.8 531.5,345 528.5,345 C527.1,345 519.2,347.5 511.1,350.5 C502.9,353.5 496,356 495.6,356 C495.3,356 495,352 495,347.1 L495,338.3 L492.9,335.6 C490.3,332.3 485,332 482,335 Z M433.5,359.1 C441,360.3 443,360.9 443,361.9 C443,362.7 433.3,367.4 424.4,370.9 L419.3,372.9 L418.7,365.8 C418.4,361.9 418.3,358.3 418.6,357.8 C419.1,357 421.7,357.2 433.5,359.1 Z M443.4,387.8 C446.2,390.7 455.1,389.8 466.1,385.5 C471.3,383.5 476.3,381.6 477.4,381.3 L479.3,380.7 L478.5,397.6 C477.4,423.3 476.8,428.5 475,428.3 C474.2,428.2 470,427.4 465.7,426.4 L458,424.6 L455.2,426.7 C449.7,430.8 451.6,438.3 458.6,439.6 C463.4,440.5 463.6,441.5 459.5,444.6 C452.5,449.9 443.4,448.6 437,441.4 C433.5,437.4 433.2,433.8 435.8,427.1 L437.5,422.8 L450.5,417.4 C457.7,414.4 466.4,410.6 470,408.8 L476.5,405.5 L476.8,402.4 C477.1,398.9 475,396 472,396 C471.1,396 464.2,398 456.9,400.4 C440.7,405.8 409.7,415 409.2,414.5 C409,414.3 410,412.4 411.4,410.1 C414.8,404.8 416.8,399.6 417.8,394 L418.5,389.5 L429.5,383.8 L440.5,378.2 L441.1,382.1 C441.4,384.3 442.4,386.8 443.4,387.8 Z M420,434.2 C420,436.6 420.9,440.5 422,442.9 C424.5,448.3 424.5,448 421.5,448 C418.6,448 412.6,455.4 410.8,461.2 C409.4,466.1 408.3,466 407.5,461 C406.8,456.8 407.8,439.6 408.9,435.2 C409.6,432.7 414.1,430.3 418.3,430.1 L420,430 L420,434.2 Z M473.9,453 C471.7,469.4 469.8,478 468.3,478 C467.5,478 464,480.5 460.7,483.6 C453.6,490 435.5,501.7 423.1,507.9 C418.6,510.2 414.7,512 414.5,511.8 C414.4,511.6 415.6,506 417.3,499.2 L420.4,486.9 L430.1,481.9 C442.2,475.5 453,467.5 455,463.4 C455.9,461.6 458.3,459.3 460.6,458.1 C462.8,456.9 466.9,453.7 469.5,451 C472.2,448.3 474.5,446.1 474.6,446.3 C474.7,446.4 474.4,449.4 473.9,453 Z M440.6,462.2 C437.7,464.6 424,471.3 423.4,470.7 C422.7,470 425.6,463.3 428,460.3 C429.1,458.9 430,456.9 430,455.9 L430,454.2 L436.4,457.3 L442.7,460.5 L440.6,462.2 Z"/>
</svg>

