<svg xmlns="http://www.w3.org/2000/svg" version="1.0" width="937.000000pt" height="937.000000pt" viewBox="0 0 937.000000 937.000000" preserveAspectRatio="xMidYMid meet">
  <defs/>
  <path fill="#000000" d="M429.5,317 L427.8,318.9 L428.1,343.2 L428.5,367.4 L424,368.3 C421.5,368.8 407.9,371.6 393.8,374.6 L368.1,380 L365.6,377.5 C364.2,376.1 362.7,375 362.2,375 C359.2,375 341.4,383.4 338.3,386.3 C335.1,389.1 335.3,394 338.5,397 L341,399.4 L347.8,398.4 C351.5,397.8 371.3,393.6 391.9,389.1 C412.4,384.6 429.4,381 429.5,381.2 C429.7,381.4 430.3,386.5 430.9,392.6 C432.2,405.3 434.1,411.8 437.6,415.3 C444.6,422.4 454,417.2 462,401.9 L465.4,395.2 L464.2,392.6 C462.4,388.7 457.5,388.9 455.2,393.1 C450.6,401.4 446.7,407 445.5,407 C444.8,407 443.9,405.8 443.6,404.4 C442.4,399.7 440.9,379.7 441.7,379 C442.4,378.4 479.8,371.4 492.6,369.4 L496.8,368.8 L497.5,378.1 C498,384.3 498.7,388.1 499.8,389.2 C501.4,391.1 505.6,391.5 507.9,390.1 C509.6,389 510.9,381.8 510.9,373.2 C511,369.1 511.4,366.8 512.3,366.5 C512.9,366.3 524,364.8 536.7,363.2 C549.6,361.6 560.7,359.7 561.5,359 C563.6,357.3 563.4,351.7 561.3,349.8 L559.5,348.2 L540.5,347.7 C530.1,347.5 519,346.7 515.9,346 L510.3,344.8 L508.5,336.2 C507.4,331.3 505.9,326.9 504.8,325.8 C502.4,323.4 498.8,323.5 496.5,326 L494.7,328 L495.3,334.5 C495.8,339.3 495.6,341 494.7,341 C494,341 489.4,340.1 484.3,338.9 C473.7,336.5 470.3,336.9 469.4,340.6 C468.3,344.8 471.3,346.6 484.5,349.6 C496,352.2 499,353.3 497.8,354.5 C497.6,354.8 490.6,356.1 482.4,357.5 C474.2,358.9 461.7,361.1 454.5,362.4 C447.4,363.7 441.2,364.6 440.8,364.3 C440.3,364.1 440,353.9 440,341.7 L440,319.4 L438.4,317.2 C436.5,314.4 432,314.3 429.5,317 Z"/>
  <path fill="#000000" d="M400.6,411.2 C399.7,412.4 399,414.4 399,415.6 C399,419.1 407.6,427.7 416,432.6 C425.4,438 426.1,438.8 426.7,444.3 C427.7,452.7 420.6,461.6 408,468 C403.9,470 392,474.5 381.5,478 C371,481.5 361.5,485.2 360.2,486.3 C357.1,489.1 357.6,493.6 361.2,496.3 L363.8,498.2 L371.5,496.5 C375.7,495.6 382.3,493.7 386.2,492.4 C390.2,491.1 393.4,490 393.4,490 C393.5,490 393.5,493 393.6,496.8 C393.6,505 396.1,510.4 403.4,518.6 L408.4,524.3 L404,528.3 C401.5,530.5 396.1,534.9 391.9,538.1 C382.4,545.3 381,548 385,552 C387.9,554.9 391.3,554.4 402.5,549.5 C408,547.1 412.8,545.4 413.1,545.8 C413.5,546.2 414,548.2 414.3,550.3 L414.9,554 L406.9,558 C391.9,565.6 378.5,570.5 350.5,578.6 C331.4,584.1 322.1,587.7 318.8,590.7 C314.4,594.7 318.7,603 325.2,603 C329.4,603 338.8,600.6 362.9,593.6 C373.5,590.4 382.4,588.1 382.7,588.4 C383.3,588.9 381.6,591 364.6,610.9 C348.7,629.6 345.1,637.1 350.4,640.5 C353.7,642.7 355.6,641.6 361.1,634.3 C363.5,631.1 368.6,625.1 372.4,621 C376.2,616.9 384.3,607.8 390.3,600.8 L401.3,588 L403.9,589.9 C405.3,590.9 408.8,592.9 411.6,594.3 L416.7,596.9 L417.4,605.4 L418,613.9 L415.4,616.5 C413.7,618.2 413,619.7 413.5,620.8 C413.9,621.7 415.6,627.7 417.4,634.1 C419.1,640.5 421.2,646.5 421.9,647.4 C423.7,649.5 427.4,649.4 429.6,647.3 L431.3,645.6 L430.5,623.3 L429.8,601 L431.2,601 C431.9,601 437.1,602 442.7,603.2 L453,605.3 L455,603.5 C457.7,601 457.6,596.4 454.8,594.6 C453.5,593.9 447.5,592 441.4,590.5 L430.2,587.8 L429.6,584.2 C429.3,582.1 429,578.6 429,576.2 L429,572 L431.8,570.9 C455.1,562.4 459,560 459,554.3 C459,551.7 458.2,550 455.8,547.6 C454,545.8 451.7,543.9 450.6,543.3 L448.8,542.3 L451.5,538.2 L454.2,534.1 L453.6,530.4 L452.9,526.8 L449.2,525.3 C445.8,523.9 441.7,523.9 433.1,525.6 C431.2,526 430.2,525.6 429.2,524 L428,522 L433.3,515.7 C440.7,506.9 447.5,497.1 448.9,493.1 C452.1,483.4 449.1,474 442.6,474 C437.7,474 435.5,477 435.8,483.1 C436.1,489.4 434.9,491.7 424.2,505.9 L415.7,517.2 L412.8,513.9 C408.4,508.7 406.9,505.3 406.3,499.4 L405.7,493.9 L409.5,488.5 L413.2,483.1 L421.3,479.9 C425.8,478.2 434.9,474.8 441.5,472.5 C454.6,467.8 457.1,465.8 455.2,461.5 C453.3,457.4 449,457.5 434.9,461.6 C433.6,461.9 433.9,460.8 436.1,456.4 C438.3,452.1 439,449.3 439,445 C439,434.6 435.2,429.1 423,422 C419.2,419.8 414.5,416 412.4,413.5 L408.8,409 L405.4,409 C403.1,409 401.6,409.7 400.6,411.2 Z M432,542 L427.5,545.9 L426.7,544.4 C425.3,541.9 426.4,540.6 431.1,539.4 C433.5,538.7 435.7,538.2 436,538.1 C436.3,538.1 434.5,539.9 432,542 Z M442.6,551.4 C443.6,552.2 444.3,553 444,553.3 C442.9,554.2 428.7,559 428.3,558.6 C427.7,558.1 438.2,550.1 439.6,550.1 C440.1,550 441.5,550.6 442.6,551.4 Z M416,580 L416,583.1 L413,581.5 C409.4,579.6 409.3,579.2 412.3,578 C415.7,576.6 416,576.8 416,580 Z"/>
  <path fill="#000000" d="M525,434 C522.7,436.7 515.8,443.1 509.6,448.2 C493.4,461.6 476.8,478.4 473.5,484.9 C470.6,490.8 470,498.2 472.1,502.2 C472.8,503.5 477,508.4 481.6,513.1 C491.6,523.5 492.4,525.7 491.8,542 L491.4,553.5 L486.7,567.6 C484.1,575.4 481.1,582.5 480.1,583.5 C478.8,584.6 477.9,587.2 477.4,590.6 L476.8,596.1 L478.5,598 C481.3,601.1 486.4,600.6 489,597 C491.7,593.2 495.9,582.9 501.2,567.2 L505.4,554.5 L505.5,541 C505.5,533.6 505.2,526.1 504.8,524.4 L504.1,521.2 L508.2,520.6 C510.4,520.2 515.4,518.6 519.2,517 C523.1,515.3 526.6,514 527.1,514 C527.6,514 528,523 528,534.3 C528,546.6 528.8,562.8 530,575.5 C536,640.7 537.4,672.5 534.5,682.6 C533.2,687.4 533.1,689.2 533.9,690.9 C535.5,693.8 539.6,694.7 541.9,692.5 C544.9,689.9 548,681.6 549,673.5 C550.3,663.1 547.8,611.5 544.4,578 C543.6,570 542.6,552.2 542.3,538.3 C541.6,507.8 541.5,508 550.7,503.9 C554.9,502 557.4,500.2 558.2,498.5 L559.3,495.9 L557.3,493.2 C556.2,491.7 554.6,490.4 553.7,490.2 C552.8,490 541.7,493.7 529,498.4 L505.9,507 L500.4,507 L494.9,507 L489.4,502.3 C482.4,496.2 482.4,494.3 489.7,485.4 C493.4,480.8 510.5,465.4 522,456.3 C531.4,448.8 538.7,441 539.6,437.5 C540.6,433.6 537.3,429.6 532.8,429.2 L529.3,428.9 L525,434 Z"/>
</svg>

