<svg xmlns="http://www.w3.org/2000/svg" version="1.0" width="937.000000pt" height="937.000000pt" viewBox="0 0 937.000000 937.000000" preserveAspectRatio="xMidYMid meet">
  <defs/>
  <path fill="#000000" d="M374,330 C370.8,333.2 371.5,337.7 376.1,344.8 C381.1,352.5 387.9,358.2 403.1,367.7 C409.5,371.7 415.3,375.6 415.9,376.4 C416.6,377.2 417.7,380 418.3,382.7 C419.3,386.5 420.1,387.7 422.3,388.4 L425,389.4 L427.2,387.3 L429.3,385.1 L428.1,379.3 C426.2,369.7 422.9,365.7 407.1,353.5 C396.9,345.7 391.7,341 389.4,337.5 C387.6,334.7 385.2,331.5 384.1,330.2 C381.5,327.4 376.7,327.3 374,330 Z"/>
  <path fill="#000000" d="M472.9,352.9 L470.5,354.8 L470.8,379.7 C471,393.3 470.6,413.4 470,424.2 L468.8,444 L470,447 C471.6,451 476.2,453.4 480.5,452.6 C482.3,452.2 486.6,450.1 490.1,447.8 C499.2,442 516,432.8 527.6,427.4 C539.1,422.1 538.8,422.6 523.3,436.2 L513,445.1 L513,450.8 C513,453.9 513.9,461.7 515,468 C516.1,474.3 516.6,479.8 516.2,480.1 C515.8,480.5 509.7,482.9 502.5,485.3 C472.5,495.6 434.7,509.5 424,514.1 C410,520.1 398.9,527.4 397.5,531.3 C396.3,534.9 398.4,538.9 402.3,540.8 L405.1,542.1 L416.8,536.6 C423.2,533.6 433.2,529.3 439,527.1 C452,522.2 516,499.2 517.9,498.8 C519.7,498.4 521,506.6 523.9,536 C529.7,593.7 531.4,626.1 530.7,668 C530.3,698 529.7,704.9 527.4,705.7 C526.8,705.9 523.9,701.7 521,696.3 C518.1,690.9 514.2,684 512.5,681 L509.4,675.5 L506,675.5 L502.5,675.5 L501.6,678.1 L500.7,680.7 L510.1,699.1 L519.5,717.5 L523,719.8 C527.6,722.9 532.1,722.2 536.7,717.8 C543.6,711.1 545.6,700.6 546.5,664.5 C547.5,624.6 543.4,554.9 537.4,507.3 C536.5,500.6 536,494.2 536.2,493 C536.4,491.3 538.6,490 545.6,487 C572.6,475.8 579.3,469.3 572.5,461.2 C570.7,459 568.6,458 564.4,457.1 C558.9,456 532,444.4 532,443.1 C532,442.8 536.6,439.4 542.3,435.5 C558.6,424.4 564,418.7 564,412.3 C564,403.3 554.7,401.5 536.9,407.1 C529.6,409.4 502.2,422.5 490.2,429.5 L483.9,433.2 L484.6,394.7 L485.3,356.2 L482.7,353.6 C479.6,350.5 476.1,350.3 472.9,352.9 Z M536.1,457.9 C539.1,458.9 544.3,461 547.8,462.6 L554.2,465.3 L552.5,466.3 C549.1,468.1 533.6,473.9 533.2,473.5 C532.7,473 530.2,459.7 530.1,457.2 C530,455.7 529.7,455.6 536.1,457.9 Z"/>
  <path fill="#000000" d="M401.5,429.7 C387.5,430.9 371,433.3 362,435.5 L351.5,438.1 L347.9,436.9 L344.3,435.8 L337.9,438.6 C327.2,443.3 321.6,446.7 320.1,449.3 L318.6,451.7 L319.9,454.8 C320.8,456.9 322.3,458.3 324.6,459 L328,460.1 L336.7,457.6 C354,452.7 374.1,448 388.2,445.5 C403.4,442.9 422,440.7 422.7,441.4 C423.3,442 411,450.6 402.2,455.7 C391.5,461.9 355.5,479.4 349.2,481.4 C341.1,484.1 339,488.6 343.4,493.7 L345.8,496.5 L351.2,496.4 C354.3,496.3 365.4,493.7 378.5,490 C390.6,486.6 401.4,483.6 402.5,483.3 L404.5,482.7 L403.1,484.3 C402.4,485.2 391,493.3 377.8,502.2 C364.5,511.2 352.4,519.7 350.9,521.2 C347.4,524.4 347,528.8 350.1,531.6 C354.3,535.4 363.2,533.3 386.7,522.9 C395.6,519 403.2,516.3 408,515.5 C416.2,514 419.6,511.5 418.4,507.6 C417.2,503.5 415.1,502.8 405.5,503.3 C400.6,503.5 395.6,504.1 394.5,504.5 C393.4,504.9 394.5,503.8 397,502 C409.5,492.8 412.4,490.3 414.9,486.6 C418.8,480.9 419.4,477.6 417.3,473.9 C415.2,470.3 409.6,468.6 403.1,469.5 L398.5,470.1 L401.5,468.2 C403.2,467.2 407.4,464.6 411,462.5 C425.6,453.9 435.7,445.1 437.4,439.3 C438.5,435.7 435.6,431.2 431.2,430.1 C427.8,429.1 410.8,428.9 401.5,429.7 Z"/>
  <path fill="#000000" d="M435.9,550.7 C435.1,551.7 433.1,554.5 431.6,557 C430,559.5 426.7,564.4 424.2,567.8 L419.8,574.2 L418,568.8 C415.7,562.1 410.6,557.5 403,555.3 L397.5,553.7 L388.9,554.8 C375.2,556.5 368.5,560.4 359.2,572.5 L356.8,575.5 L355.8,573.5 C353.4,569.4 350,566.9 347.7,567.5 C342,569.3 341.7,573.4 346.9,581.9 C351.9,590.3 374.8,615 377.5,615 C378.9,615 379.9,616 380.7,618 C383.1,624.5 389.7,622.8 400.4,613 C413.5,600.9 445,559.1 445,553.8 C445,551.7 441.8,549 439.3,549 C438.2,549 436.7,549.8 435.9,550.7 Z M405.6,570.3 L408,573.1 L408,579 L408,584.9 L404.8,588.6 C400.8,593.1 384.3,608 383.3,608 C382.8,608 381.5,606.5 380.2,604.7 C379,602.9 374.6,597.4 370.5,592.5 L363,583.5 L364.7,582.9 C365.7,582.5 368.8,579.9 371.5,577 C379.4,568.8 384.1,567 395.9,567.3 L403.2,567.5 L405.6,570.3 Z"/>
</svg>

