<svg xmlns="http://www.w3.org/2000/svg" version="1.0" width="937.000000pt" height="937.000000pt" viewBox="0 0 937.000000 937.000000" preserveAspectRatio="xMidYMid meet">
  <defs/>
  <path fill="#000000" d="M461.5,340 C459.5,342.2 459.6,343.6 462.8,357.5 C465,367.2 469.4,399.9 468.6,400.7 C467.7,401.7 441.3,408.1 430,410.1 C414.9,412.7 415.1,412.7 413.4,416.3 C411.5,420.3 412.7,424.1 416.6,426.6 L419.2,428.4 L430,426.6 C435.9,425.7 447.1,423.3 455,421.4 C462.8,419.5 469.5,418.1 469.8,418.5 C470.7,419.3 471.4,462.2 470.6,467.4 L469.9,471.9 L467,471.3 L464,470.8 L461.3,473.7 L458.5,476.6 L433.5,477.9 C419.8,478.5 401.6,479.5 393.1,480.1 C382.6,480.7 377.3,480.7 376.6,480 C374.3,477.7 358.6,480.2 355,483.5 C352.1,486.1 352.4,491.5 355.5,494.5 L357.9,497 L367.2,497 C377.8,497 420.7,494.6 441.2,492.9 C452.2,492 455.3,492 456.5,493 L458,494.2 L458,512.6 L458,531 L456,533 C453.3,535.7 453.3,541.4 456,543.3 L458,544.7 L457.8,576.3 L457.5,607.9 L435.1,599 C422.8,594.1 411.7,589.4 410.5,588.6 C409.2,587.7 407.7,585.5 407,583.5 C406.4,581.6 405,579.5 404,579 L402.1,578 L408,560.7 C411.2,551.3 415,540.9 416.4,537.6 C419.5,530.6 419.7,526.7 417,524 C413.8,520.8 409.6,521.4 406.2,525.6 C401.1,531.8 398.4,537.8 391,559.5 C383.7,580.9 371.2,613.2 365.9,624.6 C363.9,628.8 361.4,632.2 358.5,634.6 C353.2,638.9 352.3,641.2 354.4,644.5 C357.6,649.4 365.4,646.8 373.1,638.4 C376.6,634.6 384.6,619.9 390,607.5 C392.4,602 394.5,597.3 394.7,597.1 C394.8,596.9 396.6,598.3 398.7,600.1 C401.4,602.6 408.7,606 424.5,612.4 C436.6,617.3 452.8,623.9 460.5,627.1 C525,653.7 594.7,670.8 630.5,668.6 C642.9,667.9 646,666.6 646,662.2 C646,657.8 644.4,657 635.9,657 C606.7,657 541,640.5 484.7,619 L470.9,613.7 L471.4,611.1 C471.7,609.7 472.2,594.2 472.6,576.7 L473.2,545 L484.9,545 C491.3,545 502.5,544.5 509.7,544 L523,543 L530.1,544.6 C538.4,546.5 541.7,545.9 542.6,542.6 C543.6,538.5 542.2,536.3 537,534.1 C528.8,530.6 523.7,530.1 498,530.7 L473.5,531.3 L473.8,511.9 C474.1,497 474.5,492.2 475.6,491.1 C477.3,489.3 518.4,483.2 525.1,483.8 C532.7,484.4 568.2,480.1 570.3,478.3 C574.5,474.5 570.8,467 564.8,467 C555.8,467 531.7,469.2 525.5,470.5 C519.4,471.8 482.8,475.4 482.6,474.7 C482.5,474.6 482.7,460.8 483,444.1 L483.5,413.7 L501.5,408.8 C531.2,400.8 529.8,401.3 531.5,398 C533.6,393.9 533.4,392.2 530.1,388.9 L527.2,386 L522.7,386 C519.6,386 516.4,385 512.4,382.9 C505.3,379.2 490.9,367.6 481.9,358.3 L475.2,351.5 L473.6,345.8 C472.6,342.4 471.2,339.6 470,339 C467.1,337.4 463.5,337.8 461.5,340 Z M487.5,378.1 C489.7,380.1 494.6,384.1 498.3,386.8 L505.1,391.9 L501.3,392.9 C499.2,393.4 494,394.8 489.7,395.8 L482,397.8 L481.6,395.6 C481,392.8 479,374.6 479,372.4 L479,370.7 L481.3,372.6 C482.5,373.6 485.3,376.1 487.5,378.1 Z"/>
</svg>

