<svg xmlns="http://www.w3.org/2000/svg" width="300" height="300" viewBox="0 0 300 300">
<path d="M 119.21 140.88 L 120.19 140.97 C 121.58 141.10 122.82 140.08 122.95 138.68 C 123.09 137.28 122.06 136.04 120.67 135.91 L 119.69 135.82 C 118.29 135.69 117.05 136.71 116.92 138.11 C 116.79 139.51 117.81 140.75 119.21 140.88 Z M 120.26 140.99 L 121.25 141.06 C 122.66 141.15 123.88 140.08 123.97 138.67 C 124.06 137.26 122.99 136.04 121.58 135.95 L 120.59 135.89 C 119.18 135.80 117.96 136.87 117.87 138.28 C 117.78 139.69 118.85 140.90 120.26 140.99 Z M 121.40 141.08 L 122.42 141.08 C 123.84 141.09 125.00 139.94 125.01 138.52 C 125.01 137.10 123.87 135.95 122.45 135.94 L 121.43 135.93 C 120.01 135.93 118.85 137.07 118.84 138.49 C 118.84 139.91 119.98 141.07 121.40 141.08 Z M 122.61 141.08 L 123.56 141.02 C 124.98 140.92 126.06 139.69 125.96 138.26 C 125.86 136.84 124.63 135.77 123.21 135.87 L 122.26 135.94 C 120.84 136.04 119.76 137.27 119.86 138.69 C 119.96 140.11 121.19 141.18 122.61 141.08 Z M 123.72 141.00 L 124.69 140.87 C 126.10 140.68 127.09 139.39 126.90 137.98 C 126.72 136.57 125.42 135.58 124.01 135.77 L 123.05 135.89 C 121.64 136.08 120.65 137.37 120.83 138.78 C 121.02 140.19 122.31 141.18 123.72 141.00 Z M 124.80 140.84 L 125.81 140.66 C 127.21 140.41 128.14 139.08 127.89 137.68 C 127.64 136.29 126.30 135.36 124.91 135.61 L 123.90 135.79 C 122.50 136.04 121.58 137.37 121.83 138.77 C 122.08 140.16 123.41 141.09 124.80 140.84 Z M 125.89 140.64 L 126.89 140.43 C 128.28 140.13 129.16 138.77 128.87 137.39 C 128.57 136.01 127.21 135.13 125.83 135.42 L 124.83 135.63 C 123.45 135.92 122.56 137.28 122.86 138.67 C 123.15 140.05 124.51 140.93 125.89 140.64 Z M 126.94 140.41 L 127.81 140.21 C 129.18 139.89 130.03 138.52 129.71 137.14 C 129.40 135.77 128.03 134.92 126.65 135.24 L 125.79 135.44 C 124.41 135.76 123.56 137.13 123.88 138.50 C 124.20 139.87 125.57 140.72 126.94 140.41 Z M 127.84 140.19 L 128.75 139.96 C 130.12 139.63 130.95 138.25 130.61 136.89 C 130.28 135.53 128.91 134.70 127.54 135.03 L 126.63 135.26 C 125.26 135.59 124.43 136.96 124.77 138.33 C 125.10 139.69 126.47 140.52 127.84 140.19 Z M 128.77 139.94 L 129.76 139.69 C 131.11 139.35 131.93 137.97 131.59 136.62 C 131.24 135.27 129.87 134.45 128.52 134.80 L 127.53 135.05 C 126.17 135.39 125.36 136.77 125.70 138.12 C 126.04 139.47 127.42 140.29 128.77 139.94 Z M 129.77 139.68 L 130.84 139.40 C 132.19 139.05 132.99 137.68 132.65 136.34 C 132.30 134.99 130.93 134.18 129.58 134.53 L 128.51 134.81 C 127.16 135.16 126.36 136.53 126.70 137.88 C 127.05 139.22 128.42 140.03 129.77 139.68 Z M 130.84 139.39 L 131.79 139.14 C 133.12 138.79 133.93 137.43 133.58 136.09 C 133.23 134.75 131.86 133.95 130.52 134.30 L 129.58 134.55 C 128.24 134.89 127.44 136.26 127.79 137.60 C 128.14 138.93 129.51 139.74 130.84 139.39 Z M 131.79 139.13 L 132.67 138.90 C 133.99 138.55 134.79 137.19 134.44 135.86 C 134.09 134.53 132.73 133.73 131.40 134.08 L 130.52 134.31 C 129.20 134.66 128.40 136.02 128.75 137.35 C 129.10 138.68 130.46 139.48 131.79 139.13 Z M 132.67 138.88 L 133.59 138.64 C 134.91 138.29 135.70 136.93 135.35 135.61 C 135.00 134.29 133.65 133.50 132.33 133.85 L 131.40 134.10 C 130.08 134.45 129.29 135.80 129.64 137.12 C 129.99 138.44 131.35 139.23 132.67 138.88 Z M 133.60 138.62 L 134.57 138.36 C 135.88 138.01 136.66 136.66 136.30 135.35 C 135.95 134.04 134.61 133.26 133.29 133.61 L 132.32 133.87 C 131.01 134.22 130.23 135.57 130.59 136.88 C 130.94 138.19 132.29 138.97 133.60 138.62 Z M 134.57 138.34 L 135.58 138.07 C 136.88 137.71 137.65 136.37 137.30 135.07 C 136.94 133.77 135.60 133.00 134.30 133.35 L 133.29 133.63 C 131.99 133.98 131.22 135.32 131.57 136.63 C 131.93 137.93 133.27 138.70 134.57 138.34 Z M 135.59 138.05 L 136.63 137.76 C 137.92 137.40 138.68 136.07 138.32 134.77 C 137.96 133.48 136.62 132.72 135.33 133.08 L 134.29 133.37 C 133.00 133.73 132.24 135.07 132.60 136.36 C 132.96 137.65 134.29 138.41 135.59 138.05 Z M 136.64 137.74 L 137.70 137.44 C 138.98 137.08 139.73 135.75 139.36 134.46 C 139.00 133.18 137.66 132.44 136.38 132.80 L 135.32 133.10 C 134.04 133.46 133.29 134.80 133.66 136.08 C 134.02 137.36 135.35 138.11 136.64 137.74 Z M 137.71 137.42 L 138.73 137.13 C 140.00 136.76 140.74 135.43 140.37 134.16 C 140.00 132.89 138.67 132.15 137.40 132.52 L 136.37 132.82 C 135.10 133.19 134.37 134.52 134.74 135.79 C 135.10 137.06 136.43 137.79 137.71 137.42 Z M 138.74 137.11 L 139.76 136.81 C 141.02 136.44 141.75 135.11 141.38 133.85 C 141.00 132.59 139.68 131.87 138.42 132.24 L 137.39 132.54 C 136.13 132.91 135.41 134.24 135.78 135.50 C 136.15 136.76 137.47 137.48 138.74 137.11 Z M 139.77 136.79 L 140.78 136.49 C 142.03 136.11 142.74 134.80 142.37 133.55 C 142.00 132.29 140.68 131.58 139.43 131.96 L 138.42 132.26 C 137.17 132.63 136.45 133.95 136.83 135.20 C 137.20 136.45 138.52 137.16 139.77 136.79 Z M 140.78 136.47 L 141.76 136.17 C 143.00 135.80 143.71 134.49 143.33 133.25 C 142.96 132.01 141.65 131.31 140.41 131.68 L 139.43 131.97 C 138.19 132.35 137.49 133.66 137.86 134.90 C 138.23 136.14 139.54 136.84 140.78 136.47 Z M 141.76 136.15 L 142.70 135.87 C 143.93 135.50 144.63 134.20 144.25 132.97 C 143.88 131.74 142.58 131.04 141.35 131.41 L 140.41 131.70 C 139.18 132.07 138.49 133.37 138.86 134.60 C 139.23 135.83 140.53 136.53 141.76 136.15 Z M 142.70 135.85 L 143.57 135.59 C 144.79 135.22 145.48 133.92 145.11 132.70 C 144.73 131.48 143.44 130.79 142.22 131.17 L 141.35 131.43 C 140.13 131.80 139.44 133.09 139.81 134.31 C 140.18 135.53 141.48 136.22 142.70 135.85 Z M 143.56 135.56 L 144.50 135.28 C 145.70 134.91 146.39 133.63 146.02 132.43 C 145.65 131.22 144.37 130.54 143.16 130.90 L 142.23 131.19 C 141.02 131.56 140.34 132.83 140.71 134.04 C 141.07 135.25 142.35 135.93 143.56 135.56 Z M 144.49 135.23 L 145.65 134.87 C 146.83 134.51 147.49 133.25 147.12 132.07 C 146.76 130.89 145.50 130.23 144.32 130.59 L 143.17 130.95 C 141.99 131.32 141.32 132.57 141.69 133.76 C 142.06 134.94 143.31 135.60 144.49 135.23 Z M 145.69 134.79 L 146.63 134.47 C 147.76 134.08 148.37 132.84 147.98 131.70 C 147.59 130.57 146.35 129.96 145.21 130.36 L 144.28 130.68 C 143.14 131.07 142.54 132.31 142.93 133.44 C 143.32 134.58 144.56 135.18 145.69 134.79 Z M 146.74 134.35 L 147.52 134.02 C 148.59 133.57 149.10 132.33 148.64 131.26 C 148.19 130.19 146.95 129.68 145.88 130.14 L 145.10 130.47 C 144.02 130.92 143.52 132.16 143.98 133.23 C 144.43 134.31 145.67 134.81 146.74 134.35 Z M 147.71 133.86 L 148.45 133.44 C 149.44 132.88 149.78 131.63 149.22 130.65 C 148.66 129.66 147.41 129.32 146.43 129.88 L 145.69 130.30 C 144.70 130.86 144.36 132.11 144.92 133.09 C 145.48 134.08 146.73 134.42 147.71 133.86 Z M 148.65 133.25 L 149.44 132.65 C 150.32 131.98 150.49 130.73 149.82 129.85 C 149.16 128.97 147.90 128.80 147.03 129.47 L 146.23 130.07 C 145.36 130.74 145.19 131.99 145.85 132.87 C 146.52 133.75 147.77 133.92 148.65 133.25 Z M 149.56 132.49 L 150.29 131.82 C 151.09 131.09 151.14 129.85 150.41 129.06 C 149.68 128.26 148.44 128.21 147.65 128.94 L 146.91 129.62 C 146.12 130.35 146.07 131.59 146.80 132.38 C 147.53 133.17 148.76 133.23 149.56 132.49 Z M 150.32 131.74 L 150.82 131.25 C 151.57 130.50 151.58 129.29 150.83 128.54 C 150.08 127.79 148.87 127.78 148.12 128.53 L 147.62 129.02 C 146.87 129.76 146.86 130.98 147.61 131.73 C 148.35 132.48 149.57 132.49 150.32 131.74 Z"
      fill="black"
      fill-rule="nonzero" /><path d="M 132.35 119.79 L 132.32 120.79 C 132.26 122.08 133.27 123.16 134.56 123.21 C 135.85 123.27 136.93 122.26 136.99 120.97 L 137.02 119.98 C 137.08 118.69 136.07 117.60 134.78 117.55 C 133.49 117.50 132.41 118.50 132.35 119.79 Z M 132.31 120.93 L 132.34 121.93 C 132.37 123.22 133.44 124.24 134.73 124.21 C 136.02 124.18 137.04 123.11 137.01 121.82 L 136.99 120.83 C 136.96 119.54 135.89 118.51 134.60 118.54 C 133.31 118.57 132.28 119.64 132.31 120.93 Z M 132.36 122.22 L 132.51 123.21 C 132.70 124.49 133.89 125.37 135.16 125.18 C 136.44 124.99 137.32 123.80 137.13 122.52 L 136.99 121.53 C 136.80 120.25 135.61 119.37 134.33 119.56 C 133.05 119.75 132.17 120.94 132.36 122.22 Z M 132.59 123.56 L 132.87 124.47 C 133.25 125.71 134.56 126.40 135.79 126.01 C 137.03 125.63 137.72 124.32 137.34 123.09 L 137.05 122.18 C 136.67 120.94 135.36 120.25 134.13 120.63 C 132.90 121.02 132.21 122.33 132.59 123.56 Z M 132.94 124.66 L 133.31 125.58 C 133.80 126.77 135.16 127.35 136.36 126.86 C 137.55 126.38 138.13 125.02 137.64 123.82 L 137.27 122.90 C 136.78 121.70 135.42 121.13 134.22 121.61 C 133.03 122.10 132.45 123.46 132.94 124.66 Z M 133.32 125.59 L 133.71 126.54 C 134.20 127.73 135.57 128.30 136.76 127.81 C 137.95 127.31 138.52 125.95 138.03 124.75 L 137.64 123.81 C 137.14 122.61 135.78 122.05 134.58 122.54 C 133.39 123.03 132.82 124.40 133.32 125.59 Z M 133.66 126.41 L 133.98 127.33 C 134.40 128.55 135.73 129.20 136.94 128.78 C 138.16 128.36 138.81 127.03 138.39 125.81 L 138.08 124.89 C 137.66 123.67 136.33 123.02 135.11 123.44 C 133.89 123.86 133.24 125.19 133.66 126.41 Z M 133.93 127.14 L 134.15 128.05 C 134.47 129.29 135.73 130.05 136.98 129.74 C 138.23 129.42 138.99 128.16 138.67 126.91 L 138.44 126.00 C 138.13 124.76 136.87 124.00 135.62 124.31 C 134.37 124.63 133.61 125.89 133.93 127.14 Z M 134.13 127.88 L 134.30 128.85 C 134.52 130.11 135.72 130.96 136.98 130.74 C 138.24 130.52 139.09 129.31 138.87 128.05 L 138.70 127.08 C 138.48 125.82 137.28 124.97 136.01 125.19 C 134.75 125.41 133.91 126.62 134.13 127.88 Z M 134.29 128.71 L 134.41 129.77 C 134.55 131.03 135.69 131.95 136.96 131.80 C 138.23 131.66 139.14 130.51 139.00 129.25 L 138.88 128.19 C 138.74 126.92 137.59 126.01 136.32 126.15 C 135.06 126.30 134.14 127.44 134.29 128.71 Z M 134.41 129.66 L 134.48 130.70 C 134.57 131.96 135.66 132.92 136.93 132.83 C 138.19 132.75 139.15 131.65 139.06 130.39 L 138.99 129.35 C 138.91 128.09 137.81 127.13 136.55 127.22 C 135.28 127.30 134.33 128.40 134.41 129.66 Z M 134.51 130.62 L 134.54 131.63 C 134.59 132.88 135.64 133.86 136.89 133.81 C 138.14 133.77 139.12 132.72 139.07 131.47 L 139.04 130.46 C 138.99 129.21 137.94 128.23 136.69 128.28 C 135.44 128.32 134.46 129.37 134.51 130.62 Z M 134.58 131.56 L 134.58 132.59 C 134.59 133.82 135.60 134.82 136.83 134.81 C 138.06 134.80 139.06 133.79 139.05 132.56 L 139.04 131.53 C 139.03 130.30 138.03 129.31 136.79 129.31 C 135.56 129.32 134.57 130.33 134.58 131.56 Z M 134.62 132.52 L 134.59 133.54 C 134.56 134.76 135.53 135.77 136.74 135.79 C 137.95 135.82 138.96 134.86 138.99 133.65 L 139.01 132.63 C 139.04 131.41 138.08 130.40 136.87 130.38 C 135.65 130.35 134.64 131.31 134.62 132.52 Z M 134.63 133.47 L 134.57 134.45 C 134.51 135.65 135.42 136.67 136.61 136.74 C 137.81 136.80 138.83 135.89 138.90 134.70 L 138.95 133.72 C 139.02 132.52 138.11 131.50 136.91 131.43 C 135.72 131.36 134.70 132.28 134.63 133.47 Z M 134.62 134.36 L 134.52 135.35 C 134.41 136.52 135.26 137.56 136.43 137.68 C 137.59 137.80 138.63 136.94 138.75 135.78 L 138.85 134.78 C 138.97 133.62 138.11 132.58 136.95 132.46 C 135.78 132.34 134.74 133.20 134.62 134.36 Z M 134.59 135.24 L 134.44 136.20 C 134.26 137.33 135.03 138.39 136.17 138.57 C 137.30 138.75 138.36 137.97 138.53 136.84 L 138.68 135.89 C 138.86 134.76 138.09 133.70 136.96 133.52 C 135.83 133.34 134.77 134.11 134.59 135.24 Z M 134.52 136.08 L 134.31 137.02 C 134.07 138.11 134.75 139.19 135.84 139.43 C 136.93 139.67 138.01 138.99 138.25 137.90 L 138.46 136.96 C 138.70 135.87 138.01 134.79 136.92 134.55 C 135.84 134.31 134.76 135.00 134.52 136.08 Z M 134.39 136.92 L 134.11 137.90 C 133.82 138.94 134.42 140.02 135.46 140.32 C 136.50 140.62 137.59 140.02 137.89 138.97 L 138.16 138.00 C 138.46 136.96 137.86 135.87 136.82 135.57 C 135.77 135.28 134.69 135.88 134.39 136.92 Z M 134.18 137.83 L 133.86 138.78 C 133.53 139.78 134.07 140.87 135.07 141.21 C 136.07 141.54 137.16 141.00 137.50 140.00 L 137.82 139.04 C 138.15 138.04 137.61 136.95 136.61 136.62 C 135.61 136.28 134.52 136.82 134.18 137.83 Z M 133.91 138.74 L 133.57 139.64 C 133.21 140.62 133.71 141.71 134.69 142.07 C 135.67 142.43 136.76 141.93 137.12 140.95 L 137.45 140.04 C 137.81 139.06 137.31 137.98 136.33 137.62 C 135.35 137.26 134.27 137.76 133.91 138.74 Z M 133.60 139.61 L 133.23 140.55 C 132.85 141.51 133.33 142.60 134.29 142.98 C 135.25 143.36 136.34 142.89 136.72 141.92 L 137.09 140.98 C 137.47 140.02 136.99 138.93 136.03 138.55 C 135.07 138.17 133.98 138.65 133.60 139.61 Z M 133.26 140.53 L 132.87 141.48 C 132.47 142.43 132.93 143.52 133.87 143.91 C 134.82 144.30 135.91 143.85 136.30 142.90 L 136.69 141.95 C 137.08 141.00 136.63 139.91 135.68 139.52 C 134.74 139.13 133.65 139.58 133.26 140.53 Z M 132.89 141.47 L 132.49 142.41 C 132.08 143.34 132.51 144.42 133.45 144.83 C 134.38 145.23 135.46 144.80 135.86 143.86 L 136.27 142.92 C 136.67 141.99 136.24 140.90 135.31 140.50 C 134.38 140.10 133.29 140.53 132.89 141.47 Z M 132.51 142.39 L 132.10 143.32 C 131.69 144.24 132.10 145.32 133.02 145.73 C 133.94 146.14 135.02 145.73 135.43 144.81 L 135.84 143.88 C 136.25 142.96 135.84 141.88 134.92 141.47 C 134.00 141.06 132.92 141.47 132.51 142.39 Z M 132.12 143.30 L 131.66 144.29 C 131.24 145.20 131.64 146.27 132.54 146.69 C 133.45 147.11 134.52 146.72 134.94 145.81 L 135.40 144.82 C 135.82 143.92 135.43 142.84 134.52 142.42 C 133.62 142.00 132.54 142.40 132.12 143.30 Z M 131.69 144.26 L 131.24 145.19 C 130.81 146.08 131.18 147.15 132.07 147.59 C 132.96 148.02 134.03 147.65 134.47 146.76 L 134.92 145.84 C 135.35 144.95 134.98 143.87 134.09 143.44 C 133.20 143.00 132.13 143.37 131.69 144.26 Z M 131.27 145.16 L 130.82 146.02 C 130.37 146.90 130.71 147.97 131.59 148.42 C 132.46 148.87 133.53 148.53 133.99 147.66 L 134.43 146.79 C 134.89 145.92 134.54 144.84 133.67 144.39 C 132.80 143.94 131.72 144.28 131.27 145.16 Z M 130.86 145.99 L 130.41 146.81 C 129.93 147.66 130.24 148.73 131.10 149.21 C 131.95 149.68 133.02 149.37 133.50 148.52 L 133.95 147.70 C 134.42 146.84 134.11 145.77 133.26 145.30 C 132.41 144.82 131.33 145.13 130.86 145.99 Z M 130.45 146.76 L 129.94 147.60 C 129.45 148.44 129.72 149.51 130.55 150.01 C 131.38 150.51 132.46 150.23 132.95 149.40 L 133.46 148.56 C 133.95 147.73 133.68 146.65 132.85 146.16 C 132.02 145.66 130.94 145.93 130.45 146.76 Z M 129.98 147.55 L 129.42 148.41 C 128.90 149.22 129.13 150.31 129.94 150.83 C 130.75 151.36 131.83 151.13 132.36 150.32 L 132.91 149.45 C 133.44 148.64 133.21 147.56 132.40 147.04 C 131.59 146.51 130.51 146.74 129.98 147.55 Z M 129.46 148.36 L 128.89 149.18 C 128.33 149.97 128.52 151.05 129.31 151.61 C 130.10 152.16 131.19 151.97 131.74 151.19 L 132.32 150.37 C 132.87 149.58 132.68 148.49 131.89 147.94 C 131.11 147.38 130.02 147.57 129.46 148.36 Z M 128.93 149.13 L 128.34 149.90 C 127.76 150.67 127.91 151.76 128.67 152.34 C 129.44 152.92 130.53 152.77 131.11 152.01 L 131.70 151.23 C 132.28 150.47 132.13 149.38 131.37 148.80 C 130.60 148.21 129.51 148.36 128.93 149.13 Z M 128.38 149.85 L 127.75 150.63 C 127.14 151.37 127.25 152.47 127.99 153.08 C 128.74 153.68 129.83 153.57 130.44 152.83 L 131.07 152.06 C 131.68 151.31 131.57 150.22 130.83 149.61 C 130.08 149.00 128.99 149.11 128.38 149.85 Z M 127.79 150.57 L 127.11 151.34 C 126.47 152.06 126.54 153.16 127.26 153.80 C 127.99 154.44 129.09 154.37 129.73 153.65 L 130.40 152.88 C 131.04 152.16 130.97 151.06 130.25 150.42 C 129.53 149.78 128.42 149.85 127.79 150.57 Z M 127.15 151.28 L 126.47 152.00 C 125.80 152.70 125.82 153.81 126.52 154.48 C 127.22 155.15 128.33 155.12 129.00 154.42 L 129.69 153.71 C 130.35 153.01 130.33 151.90 129.63 151.23 C 128.93 150.56 127.82 150.58 127.15 151.28 Z M 126.51 151.94 L 125.81 152.61 C 125.11 153.28 125.09 154.40 125.76 155.10 C 126.43 155.80 127.55 155.83 128.25 155.15 L 128.95 154.48 C 129.65 153.81 129.68 152.70 129.00 151.99 C 128.33 151.29 127.22 151.27 126.51 151.94 Z M 125.87 152.54 L 125.16 153.15 C 124.42 153.80 124.34 154.92 124.98 155.66 C 125.62 156.40 126.75 156.48 127.49 155.84 L 128.20 155.22 C 128.94 154.58 129.02 153.46 128.37 152.72 C 127.73 151.98 126.61 151.90 125.87 152.54 Z M 125.26 153.04 L 124.50 153.61 C 123.69 154.19 123.52 155.32 124.10 156.12 C 124.69 156.92 125.81 157.09 126.62 156.51 L 127.38 155.95 C 128.19 155.36 128.36 154.24 127.78 153.44 C 127.19 152.63 126.07 152.46 125.26 153.04 Z M 124.65 153.48 L 123.77 153.98 C 122.90 154.48 122.59 155.59 123.09 156.46 C 123.59 157.33 124.70 157.64 125.57 157.14 L 126.46 156.64 C 127.33 156.14 127.63 155.03 127.14 154.16 C 126.64 153.28 125.53 152.98 124.65 153.48 Z M 123.96 153.85 L 122.91 154.28 C 121.96 154.68 121.52 155.77 121.91 156.71 C 122.30 157.66 123.39 158.11 124.34 157.71 L 125.39 157.27 C 126.33 156.88 126.78 155.79 126.39 154.85 C 125.99 153.90 124.90 153.45 123.96 153.85 Z M 123.07 154.13 L 121.89 154.49 C 120.86 154.79 120.28 155.88 120.58 156.91 C 120.89 157.93 121.98 158.52 123.00 158.21 L 124.18 157.86 C 125.21 157.55 125.79 156.47 125.49 155.44 C 125.18 154.41 124.10 153.83 123.07 154.13 Z M 122.04 154.32 L 120.94 154.54 C 119.82 154.76 119.10 155.85 119.32 156.97 C 119.54 158.09 120.63 158.82 121.76 158.60 L 122.85 158.38 C 123.97 158.16 124.70 157.06 124.48 155.94 C 124.25 154.82 123.16 154.09 122.04 154.32 Z M 121.25 154.37 L 120.45 154.41 C 119.24 154.47 118.30 155.49 118.36 156.71 C 118.42 157.92 119.45 158.86 120.66 158.80 L 121.45 158.76 C 122.66 158.71 123.60 157.68 123.54 156.47 C 123.49 155.25 122.46 154.32 121.25 154.37 Z M 122.25 155.02 L 121.99 154.75 C 121.12 153.81 119.65 153.76 118.72 154.64 C 117.78 155.51 117.73 156.97 118.60 157.91 L 118.86 158.18 C 119.74 159.12 121.20 159.17 122.14 158.30 C 123.07 157.42 123.12 155.96 122.25 155.02 Z M 122.05 157.99 L 122.66 157.35 C 123.58 156.38 123.54 154.85 122.57 153.93 C 121.60 153.01 120.07 153.05 119.15 154.02 L 118.54 154.66 C 117.62 155.63 117.66 157.16 118.63 158.08 C 119.60 159.00 121.13 158.96 122.05 157.99 Z M 122.30 157.78 L 123.38 157.06 C 124.54 156.29 124.85 154.73 124.08 153.57 C 123.31 152.41 121.75 152.10 120.59 152.87 L 119.51 153.59 C 118.36 154.36 118.04 155.92 118.81 157.08 C 119.58 158.23 121.15 158.55 122.30 157.78 Z M 123.20 157.23 L 124.02 156.79 C 125.27 156.13 125.74 154.57 125.08 153.32 C 124.41 152.07 122.85 151.59 121.60 152.26 L 120.78 152.70 C 119.53 153.36 119.05 154.92 119.72 156.17 C 120.39 157.42 121.94 157.90 123.20 157.23 Z M 123.86 156.89 L 124.73 156.50 C 126.03 155.92 126.62 154.39 126.04 153.09 C 125.46 151.79 123.94 151.20 122.63 151.78 L 121.76 152.17 C 120.46 152.75 119.87 154.27 120.45 155.57 C 121.03 156.88 122.55 157.46 123.86 156.89 Z M 124.60 156.56 L 125.57 156.20 C 126.91 155.69 127.58 154.19 127.07 152.85 C 126.57 151.51 125.07 150.84 123.73 151.35 L 122.76 151.71 C 121.42 152.22 120.75 153.72 121.26 155.06 C 121.76 156.40 123.26 157.07 124.60 156.56 Z M 125.49 156.24 L 126.45 155.91 C 127.81 155.45 128.54 153.97 128.08 152.61 C 127.61 151.25 126.13 150.52 124.77 150.98 L 123.81 151.31 C 122.45 151.77 121.72 153.25 122.18 154.61 C 122.64 155.97 124.12 156.70 125.49 156.24 Z M 126.41 155.93 L 127.21 155.67 C 128.59 155.23 129.34 153.76 128.90 152.39 C 128.46 151.02 126.99 150.26 125.62 150.70 L 124.81 150.96 C 123.44 151.40 122.69 152.87 123.13 154.24 C 123.57 155.61 125.03 156.37 126.41 155.93 Z M 127.19 155.68 L 128.07 155.41 C 129.45 154.98 130.22 153.51 129.79 152.14 C 129.36 150.76 127.90 149.99 126.52 150.42 L 125.64 150.69 C 124.27 151.12 123.50 152.58 123.93 153.96 C 124.35 155.34 125.82 156.11 127.19 155.68 Z M 128.06 155.41 L 129.02 155.12 C 130.40 154.70 131.17 153.24 130.75 151.86 C 130.33 150.48 128.87 149.70 127.49 150.12 L 126.54 150.42 C 125.16 150.84 124.38 152.30 124.80 153.67 C 125.22 155.05 126.68 155.83 128.06 155.41 Z M 129.01 155.12 L 130.05 154.81 C 131.43 154.39 132.21 152.93 131.79 151.55 C 131.37 150.17 129.91 149.39 128.53 149.81 L 127.50 150.12 C 126.12 150.54 125.34 152.00 125.76 153.38 C 126.17 154.76 127.63 155.54 129.01 155.12 Z M 130.05 154.81 L 131.17 154.47 C 132.55 154.05 133.33 152.59 132.91 151.21 C 132.49 149.83 131.03 149.05 129.65 149.47 L 128.53 149.81 C 127.15 150.23 126.37 151.69 126.79 153.07 C 127.21 154.45 128.67 155.23 130.05 154.81 Z M 131.17 154.46 L 132.16 154.16 C 133.54 153.74 134.31 152.28 133.89 150.90 C 133.47 149.52 132.01 148.75 130.63 149.17 L 129.64 149.47 C 128.26 149.89 127.49 151.35 127.91 152.73 C 128.33 154.11 129.79 154.89 131.17 154.46 Z M 132.16 154.16 L 133.13 153.86 C 134.50 153.44 135.28 151.97 134.85 150.60 C 134.42 149.22 132.96 148.45 131.59 148.87 L 130.62 149.17 C 129.24 149.60 128.47 151.06 128.90 152.44 C 129.32 153.81 130.79 154.58 132.16 154.16 Z M 133.13 153.86 L 134.12 153.55 C 135.49 153.12 136.26 151.66 135.83 150.28 C 135.40 148.91 133.94 148.14 132.57 148.57 L 131.58 148.88 C 130.21 149.31 129.44 150.77 129.87 152.14 C 130.30 153.52 131.76 154.28 133.13 153.86 Z M 134.12 153.54 L 135.11 153.23 C 136.49 152.80 137.25 151.34 136.82 149.97 C 136.39 148.60 134.93 147.83 133.55 148.27 L 132.56 148.58 C 131.19 149.01 130.43 150.47 130.86 151.84 C 131.29 153.21 132.75 153.98 134.12 153.54 Z M 135.12 153.23 L 136.10 152.92 C 137.47 152.48 138.23 151.02 137.79 149.65 C 137.36 148.28 135.90 147.53 134.53 147.96 L 133.55 148.27 C 132.18 148.70 131.42 150.17 131.86 151.54 C 132.29 152.90 133.75 153.66 135.12 153.23 Z M 136.11 152.91 L 137.05 152.61 C 138.42 152.17 139.17 150.71 138.73 149.34 C 138.30 147.98 136.83 147.22 135.47 147.66 L 134.52 147.97 C 133.15 148.40 132.40 149.87 132.84 151.23 C 133.28 152.60 134.74 153.35 136.11 152.91 Z M 137.06 152.60 L 137.97 152.31 C 139.33 151.87 140.07 150.40 139.63 149.04 C 139.19 147.68 137.73 146.93 136.36 147.37 L 135.46 147.67 C 134.10 148.11 133.35 149.57 133.79 150.94 C 134.24 152.30 135.70 153.04 137.06 152.60 Z M 137.97 152.29 L 139.01 151.94 C 140.36 151.50 141.09 150.04 140.65 148.69 C 140.20 147.34 138.75 146.61 137.40 147.05 L 136.36 147.40 C 135.01 147.84 134.27 149.30 134.72 150.65 C 135.16 152.00 136.62 152.73 137.97 152.29 Z M 139.01 151.90 L 140.06 151.54 C 141.38 151.10 142.09 149.67 141.65 148.34 C 141.21 147.02 139.77 146.30 138.45 146.75 L 137.40 147.10 C 136.07 147.55 135.36 148.98 135.80 150.30 C 136.25 151.63 137.68 152.34 139.01 151.90 Z M 140.04 151.49 L 141.00 151.17 C 142.29 150.73 142.99 149.33 142.55 148.03 C 142.11 146.74 140.71 146.04 139.42 146.48 L 138.46 146.80 C 137.17 147.24 136.47 148.64 136.91 149.94 C 137.35 151.23 138.75 151.93 140.04 151.49 Z M 140.98 151.12 L 141.86 150.82 C 143.13 150.40 143.81 149.03 143.39 147.76 C 142.97 146.49 141.60 145.81 140.33 146.23 L 139.44 146.53 C 138.17 146.95 137.49 148.32 137.92 149.59 C 138.34 150.86 139.71 151.54 140.98 151.12 Z M 141.83 150.77 L 142.67 150.50 C 143.91 150.10 144.59 148.76 144.19 147.52 C 143.78 146.28 142.45 145.60 141.21 146.01 L 140.37 146.28 C 139.12 146.68 138.45 148.02 138.85 149.26 C 139.25 150.50 140.58 151.18 141.83 150.77 Z M 142.62 150.45 L 143.52 150.17 C 144.73 149.80 145.41 148.51 145.04 147.30 C 144.66 146.08 143.37 145.40 142.16 145.78 L 141.26 146.05 C 140.05 146.43 139.37 147.72 139.74 148.93 C 140.12 150.14 141.40 150.82 142.62 150.45 Z M 143.46 150.11 L 144.42 149.83 C 145.60 149.49 146.28 148.26 145.94 147.08 C 145.60 145.90 144.37 145.22 143.19 145.56 L 142.22 145.84 C 141.04 146.18 140.36 147.41 140.70 148.59 C 141.05 149.77 142.28 150.45 143.46 150.11 Z M 144.37 149.75 L 145.34 149.49 C 146.47 149.18 147.14 148.00 146.83 146.87 C 146.52 145.73 145.34 145.06 144.21 145.37 L 143.24 145.64 C 142.11 145.95 141.44 147.12 141.75 148.26 C 142.06 149.40 143.23 150.07 144.37 149.75 Z M 145.29 149.41 L 146.25 149.16 C 147.35 148.87 148.00 147.75 147.71 146.65 C 147.42 145.56 146.30 144.91 145.21 145.20 L 144.25 145.45 C 143.15 145.74 142.50 146.86 142.79 147.95 C 143.08 149.05 144.20 149.70 145.29 149.41 Z M 146.23 149.08 L 147.04 148.87 C 148.09 148.60 148.72 147.52 148.45 146.47 C 148.18 145.42 147.10 144.79 146.05 145.06 L 145.23 145.27 C 144.18 145.54 143.55 146.62 143.82 147.67 C 144.10 148.73 145.17 149.36 146.23 149.08 Z"
      fill="black"
      fill-rule="nonzero" /><path d="M 135.84 150.64 L 135.33 151.49 C 134.65 152.64 135.02 154.13 136.17 154.82 C 137.32 155.50 138.81 155.13 139.50 153.98 L 140.01 153.14 C 140.69 151.99 140.32 150.49 139.17 149.81 C 138.02 149.12 136.53 149.49 135.84 150.64 Z M 135.23 151.59 L 134.77 152.46 C 134.14 153.68 134.61 155.17 135.82 155.80 C 137.03 156.43 138.52 155.96 139.15 154.75 L 139.61 153.88 C 140.24 152.66 139.77 151.17 138.56 150.54 C 137.35 149.91 135.86 150.38 135.23 151.59 Z M 134.61 152.70 L 134.25 153.65 C 133.75 154.95 134.39 156.40 135.69 156.90 C 136.99 157.40 138.45 156.76 138.95 155.46 L 139.31 154.51 C 139.81 153.22 139.16 151.76 137.87 151.26 C 136.57 150.76 135.11 151.41 134.61 152.70 Z M 134.11 153.99 L 133.90 154.95 C 133.59 156.33 134.45 157.69 135.82 158.00 C 137.19 158.31 138.56 157.45 138.87 156.07 L 139.08 155.11 C 139.39 153.74 138.53 152.38 137.16 152.07 C 135.79 151.76 134.42 152.62 134.11 153.99 Z M 133.84 155.24 L 133.73 156.23 C 133.58 157.63 134.60 158.89 136.00 159.04 C 137.40 159.19 138.66 158.18 138.82 156.78 L 138.92 155.79 C 139.07 154.38 138.06 153.12 136.66 152.97 C 135.25 152.82 133.99 153.84 133.84 155.24 Z M 133.72 156.40 L 133.68 157.42 C 133.63 158.83 134.73 160.02 136.14 160.07 C 137.55 160.13 138.73 159.03 138.79 157.62 L 138.83 156.60 C 138.88 155.19 137.78 154.00 136.37 153.95 C 134.96 153.89 133.78 154.99 133.72 156.40 Z M 133.68 157.51 L 133.67 158.52 C 133.67 159.93 134.80 161.08 136.21 161.09 C 137.63 161.10 138.78 159.96 138.78 158.55 L 138.79 157.54 C 138.80 156.12 137.66 154.97 136.25 154.97 C 134.84 154.96 133.69 156.09 133.68 157.51 Z M 133.68 158.53 L 133.68 159.55 C 133.68 160.96 134.82 162.10 136.23 162.10 C 137.64 162.10 138.78 160.96 138.78 159.55 L 138.78 158.53 C 138.78 157.12 137.64 155.98 136.23 155.98 C 134.82 155.98 133.68 157.12 133.68 158.53 Z M 133.69 159.55 L 133.69 160.54 C 133.69 161.94 134.83 163.08 136.23 163.08 C 137.63 163.08 138.77 161.94 138.77 160.54 L 138.77 159.55 C 138.77 158.14 137.63 157.01 136.23 157.01 C 134.83 157.01 133.69 158.14 133.69 159.55 Z M 133.70 160.54 L 133.70 161.53 C 133.70 162.93 134.83 164.06 136.23 164.06 C 137.63 164.06 138.76 162.93 138.76 161.53 L 138.76 160.54 C 138.76 159.14 137.63 158.01 136.23 158.01 C 134.83 158.01 133.70 159.14 133.70 160.54 Z M 133.71 161.53 L 133.71 162.51 C 133.71 163.90 134.84 165.03 136.23 165.03 C 137.62 165.03 138.75 163.90 138.75 162.51 L 138.75 161.53 C 138.75 160.14 137.62 159.01 136.23 159.01 C 134.84 159.01 133.71 160.14 133.71 161.53 Z M 133.72 162.51 L 133.72 163.49 C 133.72 164.87 134.84 165.99 136.23 165.99 C 137.61 165.99 138.74 164.87 138.74 163.49 L 138.74 162.51 C 138.74 161.13 137.61 160.00 136.23 160.00 C 134.84 160.00 133.72 161.13 133.72 162.51 Z M 133.73 163.49 L 133.73 164.49 C 133.73 165.87 134.85 166.98 136.23 166.98 C 137.61 166.98 138.72 165.87 138.72 164.49 L 138.72 163.49 C 138.72 162.11 137.61 160.99 136.23 160.99 C 134.85 160.99 133.73 162.11 133.73 163.49 Z M 133.75 164.49 L 133.75 165.51 C 133.75 166.89 134.86 168.00 136.23 168.00 C 137.60 168.00 138.71 166.89 138.71 165.51 L 138.71 164.49 C 138.71 163.12 137.60 162.00 136.23 162.00 C 134.86 162.00 133.75 163.12 133.75 164.49 Z M 133.76 165.51 L 133.76 166.52 C 133.76 167.88 134.87 168.99 136.23 168.99 C 137.59 168.99 138.70 167.88 138.70 166.52 L 138.70 165.51 C 138.70 164.15 137.59 163.05 136.23 163.05 C 134.87 163.05 133.76 164.15 133.76 165.51 Z M 133.78 166.52 L 133.78 167.51 C 133.78 168.87 134.88 169.96 136.23 169.96 C 137.58 169.96 138.68 168.87 138.68 167.51 L 138.68 166.52 C 138.68 165.17 137.58 164.07 136.23 164.07 C 134.88 164.07 133.78 165.17 133.78 166.52 Z M 133.80 167.51 L 133.80 168.52 C 133.80 169.86 134.89 170.95 136.23 170.95 C 137.57 170.95 138.66 169.86 138.66 168.52 L 138.66 167.51 C 138.66 166.17 137.57 165.08 136.23 165.08 C 134.89 165.08 133.80 166.17 133.80 167.51 Z M 133.82 168.52 L 133.82 169.53 C 133.82 170.86 134.90 171.94 136.23 171.94 C 137.56 171.94 138.64 170.86 138.64 169.53 L 138.64 168.52 C 138.64 167.18 137.56 166.10 136.23 166.10 C 134.90 166.10 133.82 167.18 133.82 168.52 Z M 133.84 169.53 L 133.84 170.50 C 133.84 171.82 134.91 172.89 136.23 172.89 C 137.55 172.89 138.62 171.82 138.62 170.50 L 138.62 169.53 C 138.62 168.20 137.55 167.13 136.23 167.13 C 134.91 167.13 133.84 168.20 133.84 169.53 Z M 133.86 170.50 L 133.86 171.45 C 133.86 172.76 134.92 173.82 136.23 173.82 C 137.54 173.82 138.60 172.76 138.60 171.45 L 138.60 170.50 C 138.60 169.19 137.54 168.13 136.23 168.13 C 134.92 168.13 133.86 169.19 133.86 170.50 Z M 133.89 171.45 L 133.89 172.42 C 133.89 173.72 134.93 174.77 136.23 174.77 C 137.52 174.77 138.57 173.72 138.57 172.42 L 138.57 171.45 C 138.57 170.15 137.52 169.10 136.23 169.10 C 134.93 169.10 133.89 170.15 133.89 171.45 Z M 133.91 172.42 L 133.91 173.45 C 133.91 174.73 134.95 175.77 136.23 175.77 C 137.51 175.77 138.55 174.73 138.55 173.45 L 138.55 172.42 C 138.55 171.14 137.51 170.11 136.23 170.11 C 134.95 170.11 133.91 171.14 133.91 172.42 Z M 133.94 173.45 L 133.94 174.53 C 133.94 175.80 134.96 176.82 136.23 176.82 C 137.50 176.82 138.52 175.80 138.52 174.53 L 138.52 173.45 C 138.52 172.18 137.50 171.15 136.23 171.15 C 134.96 171.15 133.94 172.18 133.94 173.45 Z M 133.96 174.54 L 133.97 175.55 C 133.97 176.80 134.99 177.81 136.24 177.81 C 137.49 177.80 138.50 176.79 138.50 175.54 L 138.49 174.53 C 138.49 173.27 137.47 172.26 136.22 172.27 C 134.97 172.27 133.96 173.29 133.96 174.54 Z M 134.00 175.58 L 134.01 176.62 C 134.03 177.85 135.05 178.83 136.28 178.82 C 137.52 178.80 138.50 177.78 138.48 176.55 L 138.47 175.51 C 138.45 174.27 137.43 173.29 136.20 173.31 C 134.96 173.33 133.98 174.34 134.00 175.58 Z M 134.05 176.67 L 134.09 177.70 C 134.14 178.92 135.16 179.87 136.38 179.82 C 137.60 179.77 138.54 178.74 138.49 177.52 L 138.45 176.49 C 138.40 175.27 137.37 174.33 136.16 174.38 C 134.94 174.43 134.00 175.45 134.05 176.67 Z M 134.12 177.79 L 134.20 178.78 C 134.30 179.98 135.35 180.87 136.55 180.77 C 137.74 180.67 138.64 179.62 138.54 178.43 L 138.46 177.44 C 138.36 176.24 137.31 175.35 136.11 175.45 C 134.92 175.55 134.03 176.59 134.12 177.79 Z M 134.25 178.91 L 134.38 179.83 C 134.55 181.00 135.64 181.81 136.81 181.64 C 137.98 181.47 138.79 180.38 138.62 179.21 L 138.49 178.30 C 138.32 177.13 137.23 176.31 136.06 176.48 C 134.89 176.65 134.08 177.74 134.25 178.91 Z M 134.49 180.04 L 134.76 181.12 C 135.05 182.23 136.18 182.90 137.30 182.62 C 138.41 182.33 139.08 181.20 138.80 180.08 L 138.52 179.00 C 138.24 177.89 137.10 177.22 135.99 177.50 C 134.87 177.79 134.20 178.92 134.49 180.04 Z M 134.93 181.33 L 135.30 182.27 C 135.70 183.29 136.86 183.79 137.88 183.39 C 138.91 182.98 139.41 181.82 139.00 180.80 L 138.63 179.86 C 138.23 178.84 137.07 178.34 136.05 178.74 C 135.02 179.15 134.52 180.31 134.93 181.33 Z M 135.46 182.40 L 135.88 183.24 C 136.36 184.17 137.51 184.54 138.45 184.06 C 139.38 183.58 139.75 182.43 139.27 181.50 L 138.84 180.66 C 138.36 179.73 137.22 179.36 136.28 179.84 C 135.35 180.32 134.98 181.47 135.46 182.40 Z M 135.99 183.27 L 136.34 183.88 C 136.84 184.75 137.95 185.05 138.83 184.55 C 139.70 184.05 140.01 182.94 139.51 182.07 L 139.16 181.46 C 138.66 180.59 137.55 180.28 136.67 180.78 C 135.80 181.28 135.49 182.40 135.99 183.27 Z"
      fill="black"
      fill-rule="nonzero" /><path d="M 138.30 170.00 L 139.24 169.84 C 140.49 169.63 141.33 168.45 141.12 167.20 C 140.91 165.95 139.73 165.11 138.48 165.32 L 137.54 165.47 C 136.29 165.68 135.45 166.87 135.66 168.12 C 135.87 169.37 137.05 170.21 138.30 170.00 Z M 139.26 169.84 L 140.21 169.68 C 141.46 169.45 142.30 168.26 142.07 167.01 C 141.85 165.76 140.66 164.93 139.41 165.15 L 138.45 165.32 C 137.20 165.54 136.37 166.73 136.59 167.98 C 136.81 169.23 138.01 170.07 139.26 169.84 Z M 140.25 169.67 L 141.24 169.48 C 142.49 169.23 143.31 168.02 143.06 166.78 C 142.82 165.53 141.61 164.71 140.36 164.96 L 139.37 165.15 C 138.12 165.40 137.31 166.60 137.55 167.85 C 137.79 169.10 139.00 169.92 140.25 169.67 Z M 141.30 169.47 L 142.34 169.24 C 143.59 168.97 144.38 167.74 144.10 166.49 C 143.83 165.25 142.60 164.46 141.36 164.74 L 140.31 164.96 C 139.06 165.24 138.28 166.47 138.55 167.71 C 138.82 168.96 140.05 169.74 141.30 169.47 Z M 142.40 169.23 L 143.37 168.99 C 144.61 168.69 145.36 167.44 145.06 166.20 C 144.76 164.97 143.51 164.21 142.28 164.51 L 141.30 164.75 C 140.07 165.05 139.31 166.30 139.61 167.53 C 139.91 168.77 141.16 169.53 142.40 169.23 Z M 143.41 168.97 L 144.40 168.71 C 145.63 168.39 146.37 167.13 146.04 165.91 C 145.72 164.68 144.47 163.95 143.24 164.27 L 142.24 164.53 C 141.01 164.85 140.28 166.10 140.60 167.33 C 140.92 168.56 142.18 169.29 143.41 168.97 Z M 144.43 168.70 L 145.42 168.43 C 146.64 168.09 147.35 166.83 147.02 165.61 C 146.68 164.39 145.42 163.67 144.20 164.01 L 143.21 164.28 C 141.99 164.62 141.28 165.88 141.61 167.10 C 141.95 168.32 143.21 169.03 144.43 168.70 Z M 145.44 168.41 L 146.38 168.14 C 147.59 167.80 148.29 166.53 147.95 165.32 C 147.60 164.11 146.34 163.41 145.13 163.75 L 144.18 164.02 C 142.97 164.37 142.27 165.63 142.61 166.84 C 142.96 168.06 144.22 168.76 145.44 168.41 Z M 146.39 168.12 L 147.39 167.83 C 148.59 167.48 149.28 166.22 148.92 165.01 C 148.57 163.81 147.31 163.12 146.11 163.48 L 145.11 163.77 C 143.91 164.13 143.22 165.39 143.58 166.59 C 143.93 167.79 145.19 168.48 146.39 168.12 Z M 147.40 167.80 L 148.41 167.49 C 149.59 167.13 150.26 165.88 149.90 164.70 C 149.54 163.51 148.28 162.85 147.10 163.21 L 146.09 163.51 C 144.91 163.87 144.25 165.13 144.61 166.31 C 144.97 167.49 146.22 168.16 147.40 167.80 Z M 148.42 167.44 L 149.33 167.15 C 150.49 166.78 151.13 165.55 150.76 164.39 C 150.39 163.23 149.15 162.59 147.99 162.96 L 147.09 163.25 C 145.93 163.62 145.29 164.86 145.66 166.02 C 146.03 167.18 147.27 167.81 148.42 167.44 Z M 149.35 167.11 L 150.22 166.82 C 151.35 166.44 151.96 165.21 151.58 164.08 C 151.20 162.95 149.98 162.34 148.85 162.72 L 147.98 163.01 C 146.84 163.39 146.23 164.61 146.61 165.74 C 146.99 166.88 148.22 167.49 149.35 167.11 Z M 150.23 166.76 L 151.17 166.43 C 152.28 166.05 152.86 164.84 152.47 163.74 C 152.08 162.63 150.88 162.05 149.77 162.44 L 148.83 162.77 C 147.73 163.16 147.15 164.36 147.54 165.47 C 147.92 166.57 149.13 167.15 150.23 166.76 Z M 151.18 166.38 L 152.12 166.04 C 153.19 165.65 153.74 164.47 153.35 163.40 C 152.97 162.32 151.78 161.77 150.71 162.16 L 149.77 162.50 C 148.70 162.88 148.15 164.07 148.53 165.14 C 148.92 166.21 150.10 166.76 151.18 166.38 Z M 152.11 165.98 L 153.05 165.64 C 154.09 165.25 154.62 164.10 154.24 163.06 C 153.86 162.02 152.70 161.48 151.66 161.86 L 150.72 162.21 C 149.68 162.59 149.15 163.75 149.53 164.79 C 149.91 165.83 151.07 166.37 152.11 165.98 Z"
      fill="black"
      fill-rule="nonzero" /><path d="M 125.26 161.93 L 124.52 162.63 C 123.61 163.50 123.57 164.95 124.44 165.87 C 125.31 166.78 126.76 166.82 127.67 165.95 L 128.41 165.24 C 129.33 164.37 129.36 162.92 128.49 162.01 C 127.62 161.09 126.18 161.06 125.26 161.93 Z M 124.46 162.65 L 123.74 163.37 C 122.84 164.27 122.84 165.74 123.74 166.65 C 124.65 167.55 126.12 167.55 127.02 166.65 L 127.74 165.93 C 128.64 165.02 128.64 163.56 127.74 162.65 C 126.83 161.75 125.36 161.75 124.46 162.65 Z M 123.63 163.43 L 122.97 164.17 C 122.10 165.13 122.18 166.62 123.15 167.49 C 124.11 168.36 125.60 168.28 126.47 167.31 L 127.13 166.58 C 128.00 165.62 127.92 164.13 126.95 163.26 C 125.99 162.39 124.50 162.47 123.63 163.43 Z M 122.82 164.30 L 122.23 165.08 C 121.44 166.13 121.64 167.62 122.69 168.42 C 123.73 169.21 125.23 169.01 126.02 167.96 L 126.61 167.18 C 127.41 166.13 127.21 164.64 126.16 163.85 C 125.11 163.05 123.62 163.25 122.82 164.30 Z M 122.07 165.28 L 121.55 166.15 C 120.87 167.28 121.23 168.76 122.36 169.44 C 123.50 170.12 124.97 169.76 125.65 168.63 L 126.18 167.76 C 126.86 166.63 126.50 165.16 125.36 164.47 C 124.23 163.79 122.76 164.15 122.07 165.28 Z M 121.43 166.35 L 121.00 167.25 C 120.43 168.45 120.94 169.88 122.13 170.46 C 123.33 171.03 124.77 170.52 125.34 169.32 L 125.77 168.43 C 126.34 167.23 125.84 165.79 124.64 165.22 C 123.44 164.65 122.01 165.15 121.43 166.35 Z M 120.92 167.42 L 120.57 168.34 C 120.09 169.58 120.71 170.98 121.95 171.46 C 123.19 171.94 124.59 171.32 125.07 170.07 L 125.43 169.15 C 125.90 167.91 125.28 166.51 124.04 166.03 C 122.80 165.55 121.40 166.17 120.92 167.42 Z M 120.52 168.46 L 120.25 169.29 C 119.84 170.56 120.54 171.92 121.81 172.33 C 123.08 172.74 124.44 172.04 124.85 170.77 L 125.12 169.95 C 125.53 168.68 124.83 167.31 123.56 166.90 C 122.29 166.49 120.93 167.19 120.52 168.46 Z M 120.23 169.37 L 119.98 170.24 C 119.62 171.53 120.36 172.86 121.65 173.23 C 122.93 173.59 124.27 172.84 124.63 171.56 L 124.88 170.69 C 125.24 169.40 124.50 168.07 123.21 167.70 C 121.93 167.34 120.59 168.09 120.23 169.37 Z M 119.97 170.28 L 119.71 171.27 C 119.37 172.56 120.14 173.88 121.43 174.22 C 122.72 174.56 124.05 173.79 124.39 172.50 L 124.65 171.51 C 124.98 170.22 124.21 168.90 122.92 168.56 C 121.63 168.22 120.31 168.99 119.97 170.28 Z M 119.71 171.28 L 119.41 172.43 C 119.07 173.73 119.85 175.05 121.14 175.38 C 122.43 175.72 123.75 174.94 124.09 173.65 L 124.39 172.49 C 124.72 171.20 123.95 169.88 122.65 169.54 C 121.36 169.21 120.04 169.99 119.71 171.28 Z M 119.41 172.42 L 119.19 173.28 C 118.85 174.57 119.62 175.89 120.91 176.23 C 122.20 176.57 123.52 175.80 123.86 174.51 L 124.08 173.66 C 124.42 172.37 123.65 171.05 122.36 170.71 C 121.07 170.36 119.75 171.13 119.41 172.42 Z M 119.20 173.27 L 118.95 174.17 C 118.61 175.46 119.37 176.78 120.65 177.13 C 121.94 177.47 123.26 176.71 123.61 175.43 L 123.85 174.52 C 124.20 173.24 123.43 171.91 122.15 171.57 C 120.86 171.22 119.54 171.98 119.20 173.27 Z M 118.96 174.16 L 118.70 175.12 C 118.34 176.40 119.09 177.73 120.37 178.08 C 121.65 178.43 122.98 177.68 123.33 176.40 L 123.60 175.44 C 123.95 174.16 123.20 172.84 121.92 172.48 C 120.64 172.13 119.31 172.88 118.96 174.16 Z M 118.70 175.11 L 118.42 176.11 C 118.06 177.38 118.80 178.71 120.08 179.07 C 121.35 179.43 122.68 178.69 123.04 177.42 L 123.32 176.42 C 123.68 175.14 122.94 173.81 121.67 173.45 C 120.39 173.09 119.07 173.83 118.70 175.11 Z M 118.43 176.09 L 118.13 177.11 C 117.76 178.38 118.49 179.71 119.76 180.08 C 121.03 180.45 122.36 179.72 122.73 178.45 L 123.03 177.43 C 123.40 176.16 122.67 174.83 121.40 174.46 C 120.13 174.09 118.80 174.82 118.43 176.09 Z M 118.15 177.09 L 117.83 178.11 C 117.45 179.38 118.17 180.71 119.43 181.09 C 120.69 181.47 122.02 180.76 122.41 179.50 L 122.72 178.47 C 123.10 177.21 122.39 175.88 121.12 175.50 C 119.86 175.11 118.53 175.83 118.15 177.09 Z M 117.85 178.09 L 117.52 179.13 C 117.13 180.38 117.82 181.72 119.08 182.12 C 120.33 182.51 121.67 181.82 122.06 180.56 L 122.39 179.52 C 122.79 178.27 122.09 176.93 120.84 176.54 C 119.58 176.14 118.25 176.83 117.85 178.09 Z M 117.54 179.10 L 117.20 180.13 C 116.79 181.37 117.47 182.71 118.71 183.12 C 119.96 183.53 121.30 182.86 121.71 181.61 L 122.04 180.59 C 122.45 179.34 121.78 178.00 120.53 177.59 C 119.29 177.18 117.95 177.86 117.54 179.10 Z M 117.22 180.11 L 116.88 181.10 C 116.46 182.33 117.12 183.67 118.35 184.10 C 119.58 184.52 120.92 183.86 121.35 182.63 L 121.69 181.64 C 122.11 180.40 121.45 179.06 120.22 178.64 C 118.99 178.22 117.65 178.88 117.22 180.11 Z M 116.90 181.08 L 116.57 182.03 C 116.13 183.25 116.77 184.59 117.99 185.02 C 119.21 185.46 120.55 184.82 120.99 183.60 L 121.33 182.65 C 121.76 181.43 121.12 180.09 119.90 179.65 C 118.68 179.22 117.34 179.86 116.90 181.08 Z M 116.59 182.01 L 116.26 182.90 C 115.81 184.11 116.43 185.46 117.64 185.90 C 118.85 186.35 120.19 185.73 120.64 184.52 L 120.97 183.62 C 121.41 182.41 120.79 181.07 119.58 180.62 C 118.37 180.18 117.03 180.80 116.59 182.01 Z M 116.28 182.88 L 115.96 183.72 C 115.50 184.92 116.10 186.26 117.30 186.72 C 118.50 187.17 119.84 186.57 120.30 185.37 L 120.62 184.54 C 121.07 183.34 120.47 182.00 119.27 181.54 C 118.08 181.08 116.73 181.69 116.28 182.88 Z M 115.99 183.70 L 115.59 184.68 C 115.12 185.86 115.70 187.20 116.88 187.67 C 118.07 188.14 119.41 187.57 119.88 186.38 L 120.27 185.40 C 120.74 184.22 120.16 182.88 118.98 182.41 C 117.80 181.94 116.46 182.51 115.99 183.70 Z M 115.63 184.65 L 115.22 185.64 C 114.73 186.80 115.28 188.14 116.44 188.63 C 117.60 189.12 118.94 188.57 119.42 187.41 L 119.84 186.41 C 120.33 185.25 119.78 183.92 118.62 183.43 C 117.46 182.94 116.12 183.49 115.63 184.65 Z M 115.26 185.61 L 114.87 186.50 C 114.36 187.64 114.87 188.97 116.01 189.47 C 117.15 189.98 118.48 189.46 118.99 188.33 L 119.38 187.44 C 119.88 186.30 119.37 184.97 118.23 184.47 C 117.10 183.96 115.77 184.47 115.26 185.61 Z M 114.91 186.47 L 114.53 187.28 C 114.01 188.40 114.49 189.72 115.60 190.24 C 116.71 190.76 118.04 190.28 118.56 189.17 L 118.94 188.36 C 119.46 187.24 118.98 185.92 117.87 185.40 C 116.76 184.88 115.43 185.36 114.91 186.47 Z M 114.57 187.26 L 114.16 188.10 C 113.62 189.19 114.07 190.51 115.17 191.05 C 116.26 191.58 117.57 191.13 118.11 190.04 L 118.52 189.19 C 119.05 188.10 118.60 186.79 117.51 186.25 C 116.42 185.72 115.10 186.17 114.57 187.26 Z M 114.20 188.08 L 113.75 188.96 C 113.20 190.03 113.62 191.33 114.69 191.88 C 115.75 192.43 117.06 192.01 117.61 190.94 L 118.06 190.06 C 118.61 189.00 118.19 187.69 117.12 187.14 C 116.06 186.59 114.75 187.01 114.20 188.08 Z M 113.80 188.92 L 113.32 189.79 C 112.75 190.83 113.14 192.14 114.18 192.70 C 115.22 193.27 116.52 192.89 117.09 191.85 L 117.56 190.98 C 118.13 189.94 117.75 188.64 116.71 188.07 C 115.67 187.50 114.36 187.88 113.80 188.92 Z M 113.37 189.75 L 112.85 190.66 C 112.26 191.67 112.60 192.96 113.61 193.55 C 114.62 194.14 115.92 193.80 116.51 192.79 L 117.03 191.89 C 117.62 190.88 117.28 189.58 116.27 188.99 C 115.26 188.40 113.96 188.74 113.37 189.75 Z M 112.92 190.62 L 112.19 191.77 C 111.58 192.74 111.87 194.02 112.84 194.64 C 113.81 195.25 115.10 194.96 115.71 193.99 L 116.44 192.83 C 117.05 191.86 116.76 190.58 115.78 189.97 C 114.81 189.35 113.53 189.65 112.92 190.62 Z M 112.30 191.69 L 111.85 192.32 C 111.19 193.23 111.40 194.50 112.31 195.15 C 113.22 195.81 114.49 195.60 115.14 194.69 L 115.60 194.07 C 116.25 193.16 116.05 191.89 115.14 191.23 C 114.23 190.57 112.96 190.78 112.30 191.69 Z M 115.41 194.01 L 115.47 193.80 C 115.75 192.74 115.12 191.66 114.06 191.38 C 113.01 191.10 111.93 191.73 111.65 192.78 L 111.59 193.00 C 111.31 194.05 111.93 195.14 112.99 195.42 C 114.04 195.70 115.13 195.07 115.41 194.01 Z M 115.26 194.16 L 115.60 193.48 C 116.08 192.54 115.71 191.39 114.77 190.91 C 113.83 190.43 112.68 190.80 112.20 191.74 L 111.85 192.42 C 111.37 193.36 111.75 194.51 112.69 194.99 C 113.63 195.47 114.78 195.10 115.26 194.16 Z M 115.52 193.48 L 116.06 192.48 C 116.54 191.59 116.20 190.47 115.31 189.99 C 114.41 189.51 113.30 189.85 112.82 190.74 L 112.28 191.74 C 111.80 192.63 112.14 193.75 113.03 194.23 C 113.93 194.71 115.04 194.37 115.52 193.48 Z M 115.99 192.46 L 116.63 191.28 C 117.10 190.43 116.78 189.35 115.93 188.89 C 115.07 188.42 114.00 188.73 113.53 189.59 L 112.89 190.76 C 112.42 191.62 112.73 192.69 113.59 193.16 C 114.45 193.63 115.52 193.32 115.99 192.46 Z M 116.59 191.26 L 116.80 190.88 C 117.26 190.04 116.95 189.00 116.12 188.54 C 115.29 188.08 114.24 188.39 113.78 189.22 L 113.57 189.61 C 113.11 190.44 113.42 191.49 114.25 191.95 C 115.09 192.40 116.13 192.10 116.59 191.26 Z"
      fill="black"
      fill-rule="nonzero" /><path d="M 120.25 178.33 L 120.88 179.09 C 121.63 180.01 122.98 180.15 123.90 179.39 C 124.82 178.64 124.95 177.29 124.20 176.37 L 123.57 175.61 C 122.82 174.69 121.47 174.56 120.55 175.31 C 119.63 176.06 119.50 177.41 120.25 178.33 Z M 120.87 179.21 L 121.53 179.95 C 122.34 180.87 123.75 180.95 124.67 180.14 C 125.59 179.33 125.67 177.92 124.86 177.00 L 124.20 176.26 C 123.39 175.34 121.99 175.25 121.07 176.07 C 120.14 176.88 120.06 178.29 120.87 179.21 Z M 121.59 180.12 L 122.30 180.82 C 123.21 181.70 124.66 181.69 125.55 180.78 C 126.44 179.87 126.42 178.41 125.51 177.52 L 124.80 176.83 C 123.89 175.94 122.43 175.96 121.55 176.87 C 120.66 177.78 120.68 179.23 121.59 180.12 Z M 122.44 181.04 L 123.23 181.67 C 124.27 182.48 125.76 182.30 126.57 181.26 C 127.39 180.23 127.21 178.74 126.17 177.93 L 125.37 177.30 C 124.34 176.49 122.85 176.67 122.03 177.70 C 121.22 178.73 121.40 180.23 122.44 181.04 Z M 123.46 181.88 L 124.32 182.39 C 125.47 183.08 126.96 182.71 127.65 181.56 C 128.34 180.41 127.96 178.92 126.81 178.23 L 125.95 177.71 C 124.80 177.03 123.31 177.40 122.62 178.55 C 121.94 179.70 122.31 181.19 123.46 181.88 Z M 124.53 182.52 L 125.46 182.95 C 126.68 183.52 128.13 183.00 128.70 181.78 C 129.27 180.57 128.75 179.12 127.53 178.55 L 126.60 178.11 C 125.39 177.54 123.94 178.06 123.37 179.28 C 122.79 180.50 123.32 181.94 124.53 182.52 Z M 125.61 183.02 L 126.57 183.39 C 127.82 183.88 129.23 183.26 129.72 182.00 C 130.21 180.75 129.59 179.34 128.33 178.85 L 127.38 178.48 C 126.13 177.99 124.72 178.61 124.23 179.87 C 123.74 181.12 124.36 182.53 125.61 183.02 Z M 126.66 183.42 L 127.60 183.74 C 128.87 184.18 130.26 183.50 130.69 182.23 C 131.13 180.96 130.45 179.57 129.18 179.14 L 128.24 178.82 C 126.97 178.38 125.58 179.06 125.15 180.33 C 124.71 181.60 125.39 182.99 126.66 183.42 Z M 127.64 183.76 L 128.60 184.07 C 129.88 184.48 131.25 183.77 131.66 182.49 C 132.08 181.22 131.37 179.84 130.09 179.43 L 129.13 179.12 C 127.85 178.71 126.48 179.42 126.07 180.70 C 125.66 181.98 126.36 183.35 127.64 183.76 Z M 128.61 184.07 L 129.63 184.39 C 130.91 184.80 132.28 184.09 132.69 182.81 C 133.10 181.53 132.39 180.16 131.11 179.76 L 130.09 179.43 C 128.81 179.02 127.44 179.73 127.03 181.01 C 126.62 182.29 127.33 183.66 128.61 184.07 Z M 129.63 184.39 L 130.56 184.69 C 131.84 185.09 133.21 184.38 133.61 183.10 C 134.02 181.82 133.31 180.45 132.03 180.05 L 131.10 179.76 C 129.82 179.35 128.46 180.06 128.05 181.34 C 127.64 182.62 128.35 183.99 129.63 184.39 Z M 130.56 184.69 L 131.43 184.96 C 132.71 185.37 134.08 184.66 134.48 183.38 C 134.89 182.09 134.18 180.73 132.90 180.32 L 132.02 180.05 C 130.74 179.64 129.38 180.35 128.97 181.63 C 128.57 182.92 129.28 184.28 130.56 184.69 Z M 131.43 184.96 L 132.37 185.26 C 133.65 185.66 135.01 184.95 135.42 183.67 C 135.82 182.39 135.11 181.02 133.83 180.62 L 132.90 180.32 C 131.61 179.92 130.25 180.63 129.84 181.91 C 129.44 183.19 130.15 184.56 131.43 184.96 Z M 132.37 185.26 L 133.32 185.56 C 134.61 185.96 135.97 185.24 136.37 183.96 C 136.77 182.68 136.05 181.31 134.77 180.91 L 133.82 180.62 C 132.54 180.22 131.18 180.93 130.78 182.21 C 130.38 183.50 131.09 184.86 132.37 185.26 Z M 133.34 185.56 L 134.31 185.86 C 135.59 186.25 136.95 185.53 137.34 184.24 C 137.74 182.96 137.01 181.60 135.73 181.20 L 134.76 180.91 C 133.47 180.52 132.12 181.24 131.72 182.52 C 131.33 183.81 132.05 185.17 133.34 185.56 Z M 134.32 185.86 L 135.27 186.14 C 136.55 186.52 137.91 185.79 138.29 184.51 C 138.68 183.22 137.94 181.87 136.66 181.48 L 135.71 181.20 C 134.43 180.82 133.07 181.55 132.69 182.84 C 132.30 184.12 133.04 185.48 134.32 185.86 Z M 135.27 186.14 L 136.22 186.42 C 137.51 186.81 138.86 186.08 139.24 184.79 C 139.63 183.51 138.90 182.15 137.61 181.77 L 136.66 181.48 C 135.37 181.10 134.02 181.83 133.63 183.12 C 133.25 184.40 133.98 185.76 135.27 186.14 Z M 136.20 186.42 L 137.16 186.72 C 138.44 187.11 139.80 186.40 140.20 185.12 C 140.60 183.84 139.88 182.48 138.60 182.08 L 137.64 181.78 C 136.36 181.38 134.99 182.10 134.60 183.38 C 134.20 184.66 134.92 186.02 136.20 186.42 Z M 137.12 186.70 L 138.07 187.02 C 139.34 187.44 140.72 186.75 141.14 185.48 C 141.56 184.21 140.87 182.83 139.60 182.41 L 138.65 182.09 C 137.38 181.67 136.00 182.36 135.58 183.63 C 135.16 184.90 135.85 186.28 137.12 186.70 Z M 138.03 187.00 L 138.97 187.33 C 140.23 187.78 141.61 187.12 142.06 185.85 C 142.51 184.59 141.84 183.20 140.58 182.76 L 139.64 182.43 C 138.38 181.98 137.00 182.64 136.55 183.91 C 136.10 185.17 136.77 186.55 138.03 187.00 Z M 138.95 187.32 L 139.89 187.66 C 141.15 188.12 142.54 187.47 143.00 186.21 C 143.45 184.95 142.80 183.56 141.54 183.11 L 140.60 182.77 C 139.34 182.31 137.95 182.96 137.50 184.22 C 137.04 185.48 137.69 186.87 138.95 187.32 Z M 139.91 187.67 L 140.86 188.00 C 142.12 188.45 143.50 187.79 143.95 186.53 C 144.40 185.27 143.74 183.89 142.48 183.44 L 141.53 183.10 C 140.27 182.66 138.88 183.31 138.44 184.57 C 137.99 185.83 138.65 187.22 139.91 187.67 Z M 140.89 188.01 L 141.83 188.33 C 143.09 188.76 144.46 188.09 144.90 186.82 C 145.33 185.56 144.65 184.19 143.39 183.75 L 142.45 183.43 C 141.18 183.00 139.81 183.68 139.38 184.94 C 138.95 186.21 139.62 187.58 140.89 188.01 Z M 141.85 188.34 L 142.79 188.65 C 144.06 189.07 145.43 188.39 145.85 187.12 C 146.27 185.85 145.58 184.49 144.32 184.07 L 143.37 183.75 C 142.10 183.33 140.74 184.02 140.32 185.28 C 139.89 186.55 140.58 187.91 141.85 188.34 Z M 142.79 188.65 L 143.75 188.96 C 145.01 189.38 146.38 188.70 146.80 187.44 C 147.22 186.17 146.53 184.81 145.27 184.39 L 144.32 184.07 C 143.05 183.65 141.69 184.33 141.27 185.60 C 140.85 186.86 141.53 188.23 142.79 188.65 Z M 143.73 188.96 L 144.67 189.27 C 145.93 189.70 147.29 189.03 147.72 187.77 C 148.15 186.51 147.48 185.14 146.22 184.71 L 145.28 184.40 C 144.03 183.97 142.66 184.64 142.23 185.90 C 141.80 187.16 142.47 188.53 143.73 188.96 Z M 144.64 189.26 L 145.56 189.59 C 146.82 190.03 148.19 189.37 148.63 188.12 C 149.07 186.86 148.41 185.49 147.16 185.05 L 146.24 184.73 C 144.99 184.28 143.62 184.94 143.18 186.20 C 142.73 187.45 143.39 188.82 144.64 189.26 Z M 145.55 189.58 L 146.48 189.91 C 147.73 190.37 149.11 189.72 149.56 188.47 C 150.01 187.23 149.36 185.85 148.12 185.40 L 147.18 185.06 C 145.93 184.61 144.56 185.25 144.10 186.50 C 143.65 187.75 144.30 189.12 145.55 189.58 Z M 146.47 189.91 L 147.44 190.26 C 148.68 190.72 150.06 190.09 150.52 188.85 C 150.98 187.61 150.34 186.23 149.10 185.77 L 148.13 185.41 C 146.89 184.95 145.51 185.58 145.05 186.82 C 144.59 188.07 145.23 189.45 146.47 189.91 Z M 147.43 190.25 L 148.36 190.61 C 149.60 191.07 150.98 190.44 151.44 189.21 C 151.91 187.97 151.28 186.59 150.04 186.13 L 149.11 185.78 C 147.87 185.31 146.49 185.94 146.03 187.17 C 145.56 188.41 146.19 189.79 147.43 190.25 Z M 148.36 190.60 L 149.30 190.95 C 150.53 191.42 151.91 190.80 152.37 189.56 C 152.84 188.33 152.22 186.96 150.98 186.49 L 150.05 186.13 C 148.81 185.67 147.44 186.29 146.97 187.52 C 146.50 188.75 147.13 190.13 148.36 190.60 Z M 149.30 190.95 L 150.25 191.30 C 151.48 191.77 152.85 191.15 153.31 189.92 C 153.78 188.69 153.16 187.32 151.93 186.85 L 150.98 186.50 C 149.75 186.03 148.38 186.65 147.91 187.88 C 147.45 189.11 148.07 190.48 149.30 190.95 Z M 150.26 191.30 L 151.20 191.65 C 152.43 192.11 153.79 191.48 154.25 190.26 C 154.71 189.03 154.08 187.67 152.86 187.21 L 151.92 186.86 C 150.69 186.40 149.32 187.02 148.87 188.25 C 148.41 189.48 149.03 190.84 150.26 191.30 Z M 151.22 191.65 L 152.18 192.00 C 153.40 192.45 154.76 191.82 155.20 190.59 C 155.65 189.36 155.02 188.01 153.80 187.56 L 152.84 187.21 C 151.61 186.76 150.26 187.39 149.81 188.62 C 149.36 189.84 149.99 191.20 151.22 191.65 Z M 152.19 191.99 L 153.15 192.33 C 154.37 192.77 155.72 192.13 156.15 190.91 C 156.59 189.69 155.95 188.34 154.73 187.90 L 153.78 187.56 C 152.55 187.13 151.21 187.76 150.77 188.99 C 150.33 190.21 150.97 191.56 152.19 191.99 Z M 153.16 192.33 L 154.09 192.66 C 155.31 193.09 156.65 192.45 157.08 191.22 C 157.51 190.00 156.87 188.67 155.65 188.24 L 154.71 187.91 C 153.49 187.48 152.16 188.12 151.73 189.34 C 151.30 190.56 151.94 191.90 153.16 192.33 Z M 154.10 192.65 L 155.03 192.97 C 156.25 193.40 157.58 192.75 158.00 191.54 C 158.42 190.32 157.78 188.99 156.56 188.57 L 155.64 188.24 C 154.42 187.82 153.09 188.46 152.67 189.68 C 152.24 190.90 152.89 192.23 154.10 192.65 Z M 155.03 192.96 L 155.97 193.29 C 157.18 193.71 158.51 193.07 158.93 191.86 C 159.35 190.65 158.71 189.32 157.49 188.90 L 156.56 188.58 C 155.35 188.15 154.02 188.79 153.60 190.01 C 153.18 191.22 153.82 192.54 155.03 192.96 Z M 155.97 193.28 L 156.92 193.61 C 158.12 194.02 159.44 193.39 159.86 192.18 C 160.28 190.97 159.64 189.66 158.43 189.24 L 157.49 188.91 C 156.28 188.49 154.97 189.13 154.55 190.34 C 154.13 191.54 154.77 192.86 155.97 193.28 Z M 156.92 193.60 L 157.87 193.92 C 159.07 194.34 160.38 193.70 160.80 192.50 C 161.21 191.30 160.57 189.99 159.37 189.57 L 158.42 189.25 C 157.22 188.83 155.91 189.47 155.50 190.67 C 155.08 191.87 155.72 193.18 156.92 193.60 Z M 157.88 193.91 L 158.83 194.24 C 160.03 194.65 161.33 194.01 161.74 192.81 C 162.15 191.62 161.51 190.32 160.31 189.91 L 159.36 189.58 C 158.16 189.17 156.86 189.81 156.45 191.01 C 156.04 192.20 156.68 193.51 157.88 193.91 Z M 158.84 194.23 L 159.79 194.55 C 160.98 194.95 162.27 194.32 162.68 193.12 C 163.08 191.93 162.44 190.64 161.25 190.24 L 160.30 189.92 C 159.11 189.51 157.82 190.15 157.42 191.34 C 157.01 192.53 157.65 193.83 158.84 194.23 Z M 159.80 194.54 L 160.75 194.86 C 161.93 195.26 163.22 194.62 163.62 193.44 C 164.02 192.25 163.38 190.97 162.19 190.57 L 161.24 190.25 C 160.06 189.85 158.77 190.48 158.37 191.67 C 157.97 192.86 158.61 194.14 159.80 194.54 Z M 160.75 194.85 L 161.70 195.17 C 162.88 195.57 164.16 194.93 164.55 193.75 C 164.95 192.57 164.32 191.30 163.14 190.90 L 162.19 190.58 C 161.01 190.18 159.73 190.81 159.33 191.99 C 158.93 193.17 159.57 194.45 160.75 194.85 Z M 161.70 195.16 L 162.64 195.48 C 163.81 195.88 165.09 195.25 165.49 194.08 C 165.88 192.90 165.26 191.63 164.08 191.23 L 163.14 190.91 C 161.97 190.51 160.69 191.14 160.29 192.31 C 159.90 193.49 160.52 194.76 161.70 195.16 Z M 162.64 195.47 L 163.58 195.79 C 164.75 196.19 166.02 195.57 166.42 194.40 C 166.82 193.23 166.20 191.96 165.03 191.56 L 164.09 191.24 C 162.92 190.84 161.65 191.46 161.25 192.63 C 160.85 193.80 161.47 195.07 162.64 195.47 Z M 163.58 195.78 L 164.52 196.11 C 165.69 196.51 166.96 195.88 167.35 194.72 C 167.75 193.56 167.13 192.29 165.97 191.89 L 165.03 191.57 C 163.86 191.17 162.59 191.79 162.20 192.95 C 161.80 194.12 162.42 195.39 163.58 195.78 Z M 164.53 196.10 L 165.48 196.42 C 166.64 196.82 167.90 196.20 168.30 195.03 C 168.69 193.87 168.07 192.61 166.91 192.22 L 165.96 191.89 C 164.80 191.50 163.54 192.12 163.14 193.28 C 162.75 194.45 163.37 195.71 164.53 196.10 Z M 165.49 196.42 L 166.43 196.74 C 167.59 197.12 168.85 196.50 169.24 195.34 C 169.62 194.18 169.00 192.92 167.84 192.53 L 166.90 192.22 C 165.74 191.83 164.48 192.46 164.09 193.62 C 163.71 194.78 164.33 196.03 165.49 196.42 Z M 166.45 196.73 L 167.38 197.04 C 168.54 197.42 169.78 196.78 170.16 195.62 C 170.54 194.46 169.91 193.22 168.75 192.84 L 167.82 192.54 C 166.66 192.16 165.41 192.79 165.04 193.95 C 164.66 195.11 165.29 196.36 166.45 196.73 Z M 167.39 197.04 L 168.34 197.34 C 169.50 197.71 170.74 197.07 171.11 195.91 C 171.48 194.75 170.84 193.51 169.68 193.14 L 168.73 192.84 C 167.57 192.47 166.33 193.11 165.96 194.27 C 165.60 195.43 166.23 196.67 167.39 197.04 Z M 168.36 197.34 L 169.33 197.64 C 170.49 198.00 171.72 197.35 172.08 196.20 C 172.44 195.04 171.79 193.81 170.64 193.45 L 169.66 193.14 C 168.51 192.78 167.28 193.43 166.92 194.59 C 166.55 195.75 167.20 196.98 168.36 197.34 Z M 169.35 197.63 L 170.33 197.93 C 171.49 198.28 172.71 197.63 173.06 196.48 C 173.41 195.32 172.76 194.10 171.60 193.75 L 170.62 193.45 C 169.46 193.10 168.24 193.75 167.89 194.91 C 167.54 196.06 168.20 197.28 169.35 197.63 Z M 170.35 197.92 L 171.33 198.21 C 172.48 198.55 173.68 197.89 174.02 196.74 C 174.36 195.60 173.70 194.39 172.56 194.05 L 171.58 193.76 C 170.44 193.43 169.23 194.08 168.89 195.23 C 168.55 196.37 169.21 197.58 170.35 197.92 Z M 171.35 198.19 L 172.32 198.47 C 173.46 198.80 174.65 198.14 174.98 197.01 C 175.30 195.87 174.65 194.69 173.52 194.36 L 172.54 194.07 C 171.40 193.75 170.22 194.40 169.89 195.53 C 169.56 196.67 170.21 197.86 171.35 198.19 Z M 172.34 198.45 L 173.30 198.72 C 174.42 199.04 175.59 198.39 175.91 197.27 C 176.23 196.14 175.58 194.97 174.46 194.65 L 173.50 194.38 C 172.38 194.06 171.21 194.71 170.89 195.83 C 170.57 196.96 171.22 198.13 172.34 198.45 Z M 173.31 198.70 L 174.25 198.96 C 175.36 199.27 176.52 198.63 176.83 197.52 C 177.14 196.40 176.49 195.25 175.38 194.94 L 174.44 194.68 C 173.33 194.36 172.18 195.01 171.87 196.12 C 171.56 197.23 172.20 198.38 173.31 198.70 Z M 174.27 198.94 L 175.28 199.22 C 176.37 199.52 177.51 198.88 177.81 197.78 C 178.12 196.69 177.48 195.55 176.38 195.25 L 175.37 194.96 C 174.27 194.66 173.14 195.30 172.83 196.40 C 172.53 197.49 173.17 198.63 174.27 198.94 Z M 175.29 199.19 L 176.25 199.45 C 177.33 199.75 178.45 199.12 178.75 198.03 C 179.05 196.95 178.41 195.84 177.33 195.54 L 176.37 195.27 C 175.29 194.98 174.17 195.61 173.87 196.69 C 173.57 197.77 174.21 198.89 175.29 199.19 Z M 176.26 199.43 L 177.20 199.68 C 178.26 199.97 179.36 199.34 179.66 198.28 C 179.95 197.21 179.32 196.11 178.25 195.82 L 177.32 195.57 C 176.25 195.27 175.15 195.90 174.86 196.97 C 174.57 198.03 175.20 199.13 176.26 199.43 Z M 177.21 199.65 L 178.16 199.91 C 179.21 200.20 180.29 199.58 180.57 198.53 C 180.86 197.48 180.24 196.40 179.19 196.11 L 178.24 195.85 C 177.19 195.56 176.11 196.18 175.83 197.23 C 175.54 198.28 176.16 199.37 177.21 199.65 Z M 178.17 199.88 L 179.15 200.14 C 180.18 200.42 181.24 199.81 181.52 198.78 C 181.80 197.75 181.19 196.68 180.16 196.40 L 179.18 196.14 C 178.15 195.86 177.08 196.47 176.80 197.51 C 176.53 198.54 177.14 199.60 178.17 199.88 Z M 179.17 200.11 L 180.14 200.37 C 181.16 200.63 182.19 200.02 182.46 199.01 C 182.73 197.99 182.12 196.95 181.10 196.69 L 180.13 196.43 C 179.12 196.17 178.08 196.78 177.81 197.79 C 177.55 198.81 178.16 199.85 179.17 200.11 Z M 180.17 200.34 L 181.12 200.57 C 182.12 200.82 183.13 200.21 183.38 199.21 C 183.63 198.21 183.02 197.20 182.02 196.95 L 181.07 196.72 C 180.07 196.47 179.06 197.08 178.81 198.08 C 178.56 199.08 179.17 200.09 180.17 200.34 Z M 181.16 200.55 L 182.06 200.76 C 183.05 200.98 184.03 200.36 184.26 199.37 C 184.48 198.38 183.86 197.40 182.87 197.18 L 181.98 196.97 C 180.99 196.75 180.00 197.37 179.78 198.36 C 179.55 199.34 180.17 200.33 181.16 200.55 Z M 182.10 200.74 L 183.03 200.93 C 184.01 201.13 184.97 200.50 185.17 199.52 C 185.37 198.54 184.74 197.58 183.76 197.38 L 182.83 197.19 C 181.85 196.99 180.89 197.62 180.69 198.60 C 180.49 199.58 181.12 200.54 182.10 200.74 Z M 183.07 200.92 L 184.09 201.10 C 185.07 201.28 186.00 200.63 186.17 199.66 C 186.35 198.69 185.71 197.76 184.73 197.58 L 183.71 197.40 C 182.74 197.22 181.81 197.86 181.63 198.84 C 181.46 199.81 182.10 200.74 183.07 200.92 Z M 184.13 201.08 L 185.17 201.25 C 186.13 201.41 187.04 200.76 187.20 199.80 C 187.35 198.83 186.70 197.92 185.74 197.77 L 184.70 197.60 C 183.74 197.44 182.83 198.09 182.67 199.06 C 182.51 200.02 183.17 200.93 184.13 201.08 Z M 185.19 201.25 L 186.11 201.38 C 187.07 201.53 187.96 200.87 188.11 199.91 C 188.25 198.95 187.60 198.06 186.64 197.92 L 185.71 197.78 C 184.76 197.63 183.86 198.29 183.72 199.25 C 183.57 200.21 184.23 201.10 185.19 201.25 Z M 186.13 201.38 L 187.12 201.52 C 188.07 201.65 188.96 200.99 189.09 200.03 C 189.23 199.08 188.56 198.19 187.61 198.06 L 186.62 197.92 C 185.66 197.79 184.78 198.45 184.65 199.41 C 184.51 200.36 185.18 201.24 186.13 201.38 Z M 187.14 201.51 L 188.16 201.65 C 189.11 201.77 189.99 201.10 190.11 200.15 C 190.24 199.20 189.57 198.32 188.61 198.20 L 187.59 198.07 C 186.63 197.94 185.76 198.61 185.64 199.56 C 185.51 200.52 186.18 201.39 187.14 201.51 Z M 188.18 201.64 L 189.23 201.77 C 190.17 201.88 191.04 201.20 191.15 200.25 C 191.26 199.30 190.58 198.44 189.63 198.33 L 188.59 198.20 C 187.64 198.09 186.78 198.77 186.67 199.72 C 186.56 200.67 187.23 201.53 188.18 201.64 Z M 189.25 201.76 L 190.29 201.87 C 191.23 201.97 192.08 201.29 192.18 200.34 C 192.28 199.39 191.60 198.54 190.65 198.44 L 189.61 198.33 C 188.66 198.23 187.82 198.92 187.72 199.87 C 187.61 200.81 188.30 201.66 189.25 201.76 Z M 190.31 201.87 L 191.33 201.96 C 192.28 202.05 193.11 201.35 193.20 200.41 C 193.29 199.46 192.59 198.62 191.64 198.54 L 190.62 198.44 C 189.68 198.36 188.84 199.05 188.75 200.00 C 188.67 200.95 189.36 201.78 190.31 201.87 Z M 191.35 201.96 L 192.35 202.04 C 193.30 202.12 194.13 201.41 194.20 200.47 C 194.28 199.52 193.57 198.69 192.63 198.62 L 191.62 198.54 C 190.68 198.46 189.85 199.17 189.78 200.11 C 189.70 201.06 190.40 201.89 191.35 201.96 Z M 192.37 202.04 L 193.36 202.11 C 194.30 202.18 195.12 201.47 195.19 200.52 C 195.26 199.58 194.54 198.76 193.60 198.69 L 192.61 198.62 C 191.67 198.55 190.85 199.27 190.78 200.21 C 190.71 201.15 191.42 201.97 192.37 202.04 Z M 193.37 202.11 L 194.35 202.17 C 195.29 202.23 196.11 201.52 196.17 200.58 C 196.23 199.63 195.51 198.82 194.57 198.76 L 193.59 198.69 C 192.65 198.63 191.83 199.35 191.77 200.29 C 191.71 201.23 192.42 202.05 193.37 202.11 Z M 194.35 202.17 L 195.08 202.22 C 196.02 202.28 196.83 201.56 196.89 200.62 C 196.95 199.68 196.24 198.86 195.29 198.81 L 194.57 198.76 C 193.62 198.70 192.81 199.42 192.75 200.36 C 192.69 201.30 193.41 202.11 194.35 202.17 Z"
      fill="black"
      fill-rule="nonzero" /><path d="M 155.30 145.60 L 156.23 145.94 C 157.43 146.37 158.75 145.76 159.19 144.56 C 159.63 143.36 159.01 142.03 157.81 141.59 L 156.88 141.25 C 155.68 140.82 154.35 141.44 153.91 142.64 C 153.48 143.84 154.10 145.16 155.30 145.60 Z M 156.28 145.95 L 157.22 146.27 C 158.43 146.68 159.74 146.03 160.15 144.82 C 160.55 143.61 159.90 142.30 158.70 141.90 L 157.75 141.58 C 156.55 141.17 155.24 141.82 154.83 143.03 C 154.42 144.23 155.07 145.54 156.28 145.95 Z M 157.32 146.30 L 158.30 146.58 C 159.52 146.93 160.79 146.22 161.15 145.00 C 161.50 143.78 160.79 142.50 159.57 142.15 L 158.59 141.87 C 157.37 141.52 156.10 142.23 155.75 143.45 C 155.39 144.67 156.10 145.95 157.32 146.30 Z M 158.43 146.60 L 159.39 146.81 C 160.62 147.09 161.85 146.31 162.13 145.07 C 162.40 143.84 161.62 142.61 160.39 142.34 L 159.43 142.12 C 158.19 141.85 156.97 142.63 156.69 143.86 C 156.42 145.10 157.20 146.32 158.43 146.60 Z M 159.50 146.82 L 160.48 146.99 C 161.72 147.20 162.89 146.37 163.11 145.14 C 163.33 143.90 162.50 142.72 161.26 142.50 L 160.28 142.33 C 159.04 142.12 157.86 142.95 157.64 144.19 C 157.43 145.42 158.26 146.60 159.50 146.82 Z M 160.54 146.98 L 161.55 147.13 C 162.78 147.31 163.93 146.45 164.11 145.22 C 164.29 143.98 163.43 142.83 162.20 142.65 L 161.19 142.51 C 159.96 142.33 158.81 143.19 158.63 144.42 C 158.45 145.66 159.31 146.80 160.54 146.98 Z M 161.57 147.12 L 162.55 147.25 C 163.78 147.41 164.91 146.55 165.08 145.32 C 165.24 144.09 164.38 142.96 163.15 142.80 L 162.17 142.67 C 160.94 142.50 159.81 143.36 159.65 144.59 C 159.48 145.82 160.34 146.95 161.57 147.12 Z M 162.55 147.24 L 163.50 147.37 C 164.72 147.53 165.85 146.67 166.01 145.45 C 166.18 144.23 165.32 143.10 164.10 142.94 L 163.15 142.81 C 161.93 142.64 160.80 143.50 160.63 144.72 C 160.47 145.95 161.33 147.07 162.55 147.24 Z M 163.48 147.36 L 164.46 147.50 C 165.68 147.67 166.81 146.83 166.99 145.61 C 167.16 144.39 166.31 143.26 165.10 143.09 L 164.11 142.94 C 162.89 142.77 161.77 143.62 161.59 144.83 C 161.42 146.05 162.26 147.18 163.48 147.36 Z M 164.44 147.49 L 165.48 147.65 C 166.69 147.84 167.82 147.01 168.01 145.80 C 168.20 144.59 167.37 143.45 166.16 143.26 L 165.12 143.10 C 163.91 142.91 162.78 143.74 162.59 144.95 C 162.40 146.16 163.23 147.30 164.44 147.49 Z M 165.44 147.64 L 166.42 147.81 C 167.63 148.02 168.77 147.21 168.98 146.00 C 169.19 144.80 168.38 143.65 167.18 143.44 L 166.20 143.27 C 164.99 143.06 163.85 143.87 163.64 145.08 C 163.43 146.28 164.24 147.43 165.44 147.64 Z M 166.38 147.80 L 167.36 147.98 C 168.56 148.21 169.72 147.43 169.95 146.23 C 170.18 145.03 169.39 143.87 168.19 143.64 L 167.22 143.45 C 166.02 143.22 164.86 144.01 164.63 145.21 C 164.40 146.41 165.18 147.56 166.38 147.80 Z M 167.31 147.97 L 168.30 148.18 C 169.49 148.44 170.67 147.68 170.92 146.49 C 171.18 145.30 170.42 144.12 169.23 143.87 L 168.24 143.65 C 167.05 143.40 165.87 144.15 165.62 145.35 C 165.36 146.54 166.12 147.71 167.31 147.97 Z M 168.24 148.16 L 169.23 148.41 C 170.41 148.70 171.61 147.97 171.90 146.79 C 172.19 145.61 171.46 144.42 170.28 144.13 L 169.29 143.89 C 168.11 143.60 166.92 144.32 166.63 145.50 C 166.34 146.68 167.06 147.88 168.24 148.16 Z M 169.16 148.38 L 170.17 148.67 C 171.34 149.00 172.55 148.32 172.88 147.16 C 173.21 145.99 172.54 144.77 171.37 144.44 L 170.36 144.15 C 169.19 143.82 167.97 144.50 167.64 145.67 C 167.31 146.84 167.99 148.05 169.16 148.38 Z M 170.05 148.63 L 171.10 148.99 C 172.24 149.39 173.49 148.78 173.89 147.64 C 174.29 146.49 173.68 145.24 172.53 144.84 L 171.49 144.48 C 170.34 144.08 169.09 144.69 168.69 145.84 C 168.29 146.98 168.90 148.23 170.05 148.63 Z M 170.89 148.91 L 171.82 149.34 C 172.92 149.85 174.23 149.37 174.74 148.26 C 175.24 147.16 174.76 145.86 173.66 145.35 L 172.73 144.92 C 171.63 144.41 170.33 144.90 169.82 146.00 C 169.31 147.10 169.79 148.40 170.89 148.91 Z M 171.51 149.16 L 172.26 149.67 C 173.27 150.35 174.63 150.09 175.31 149.08 C 175.99 148.07 175.73 146.71 174.72 146.03 L 173.97 145.52 C 172.96 144.84 171.60 145.11 170.92 146.12 C 170.24 147.12 170.51 148.49 171.51 149.16 Z M 171.80 149.25 L 172.38 149.95 C 173.16 150.88 174.54 151.01 175.47 150.23 C 176.41 149.46 176.53 148.08 175.76 147.14 L 175.18 146.45 C 174.40 145.52 173.02 145.39 172.09 146.16 C 171.16 146.94 171.03 148.32 171.80 149.25 Z M 171.96 149.13 L 172.21 150.04 C 172.53 151.20 173.73 151.89 174.90 151.57 C 176.07 151.25 176.75 150.04 176.43 148.88 L 176.18 147.97 C 175.86 146.80 174.66 146.11 173.49 146.43 C 172.32 146.75 171.64 147.96 171.96 149.13 Z M 172.18 149.02 L 171.98 149.99 C 171.74 151.18 172.51 152.33 173.69 152.57 C 174.87 152.81 176.03 152.04 176.27 150.86 L 176.46 149.89 C 176.70 148.71 175.94 147.55 174.75 147.32 C 173.57 147.08 172.42 147.84 172.18 149.02 Z M 172.30 149.25 L 171.77 150.06 C 171.12 151.07 171.40 152.41 172.41 153.07 C 173.42 153.72 174.76 153.43 175.42 152.43 L 175.95 151.61 C 176.60 150.60 176.31 149.26 175.31 148.60 C 174.30 147.95 172.95 148.24 172.30 149.25 Z M 172.10 149.71 L 171.42 150.36 C 170.57 151.19 170.55 152.55 171.38 153.40 C 172.21 154.25 173.56 154.27 174.41 153.44 L 175.09 152.78 C 175.94 151.96 175.96 150.60 175.13 149.75 C 174.31 148.90 172.95 148.88 172.10 149.71 Z M 171.64 150.21 L 170.83 150.83 C 169.90 151.54 169.71 152.86 170.42 153.79 C 171.12 154.72 172.45 154.91 173.38 154.20 L 174.19 153.59 C 175.12 152.88 175.31 151.56 174.60 150.62 C 173.90 149.69 172.57 149.51 171.64 150.21 Z M 170.98 150.77 L 170.08 151.34 C 169.11 151.96 168.83 153.25 169.46 154.22 C 170.08 155.18 171.36 155.46 172.33 154.84 L 173.23 154.27 C 174.19 153.65 174.47 152.36 173.85 151.39 C 173.23 150.43 171.94 150.15 170.98 150.77 Z M 170.18 151.31 L 169.26 151.84 C 168.28 152.41 167.94 153.67 168.51 154.65 C 169.08 155.63 170.34 155.97 171.32 155.40 L 172.23 154.87 C 173.22 154.30 173.55 153.05 172.99 152.07 C 172.42 151.08 171.16 150.75 170.18 151.31 Z M 169.32 151.82 L 168.42 152.30 C 167.42 152.84 167.05 154.08 167.58 155.08 C 168.12 156.07 169.36 156.45 170.36 155.91 L 171.26 155.43 C 172.26 154.89 172.63 153.65 172.10 152.65 C 171.56 151.66 170.32 151.28 169.32 151.82 Z M 168.46 152.27 L 167.58 152.72 C 166.56 153.23 166.16 154.47 166.67 155.48 C 167.18 156.49 168.41 156.90 169.43 156.39 L 170.31 155.94 C 171.33 155.43 171.73 154.19 171.22 153.18 C 170.71 152.17 169.48 151.76 168.46 152.27 Z M 167.61 152.70 L 166.73 153.12 C 165.70 153.62 165.27 154.85 165.76 155.87 C 166.26 156.90 167.49 157.33 168.51 156.83 L 169.40 156.41 C 170.42 155.92 170.85 154.69 170.36 153.66 C 169.86 152.64 168.63 152.21 167.61 152.70 Z M 166.74 153.11 L 165.86 153.52 C 164.83 154.01 164.38 155.24 164.87 156.27 C 165.35 157.30 166.59 157.75 167.62 157.26 L 168.50 156.85 C 169.53 156.37 169.98 155.13 169.49 154.10 C 169.01 153.07 167.77 152.62 166.74 153.11 Z M 165.87 153.50 L 164.99 153.91 C 163.95 154.39 163.50 155.63 163.98 156.67 C 164.46 157.71 165.69 158.16 166.73 157.68 L 167.61 157.28 C 168.65 156.80 169.11 155.56 168.63 154.52 C 168.15 153.48 166.91 153.02 165.87 153.50 Z M 165.01 153.89 L 164.11 154.29 C 163.05 154.76 162.58 156.00 163.05 157.05 C 163.52 158.11 164.76 158.58 165.82 158.11 L 166.72 157.71 C 167.77 157.24 168.24 156.00 167.77 154.94 C 167.30 153.89 166.06 153.42 165.01 153.89 Z M 164.14 154.26 L 163.20 154.66 C 162.13 155.11 161.63 156.35 162.09 157.42 C 162.55 158.49 163.78 158.99 164.85 158.53 L 165.79 158.14 C 166.86 157.68 167.36 156.44 166.90 155.37 C 166.44 154.30 165.21 153.81 164.14 154.26 Z M 163.24 154.63 L 162.28 155.01 C 161.19 155.45 160.66 156.68 161.10 157.77 C 161.53 158.86 162.77 159.38 163.86 158.95 L 164.82 158.57 C 165.90 158.13 166.43 156.90 166.00 155.81 C 165.56 154.72 164.33 154.19 163.24 154.63 Z M 162.32 154.98 L 161.45 155.31 C 160.34 155.72 159.78 156.95 160.20 158.05 C 160.61 159.16 161.84 159.72 162.94 159.31 L 163.82 158.98 C 164.92 158.57 165.48 157.34 165.07 156.23 C 164.66 155.13 163.43 154.57 162.32 154.98 Z M 161.49 155.28 L 160.57 155.60 C 159.45 155.99 158.86 157.22 159.26 158.34 C 159.65 159.45 160.87 160.04 161.99 159.65 L 162.90 159.33 C 164.02 158.94 164.61 157.72 164.22 156.60 C 163.83 155.48 162.60 154.89 161.49 155.28 Z M 160.61 155.58 L 159.65 155.89 C 158.52 156.26 157.90 157.48 158.28 158.61 C 158.65 159.75 159.87 160.36 161.00 159.99 L 161.95 159.68 C 163.09 159.31 163.70 158.09 163.33 156.95 C 162.96 155.82 161.74 155.20 160.61 155.58 Z M 159.69 155.86 L 158.69 156.17 C 157.55 156.52 156.90 157.74 157.26 158.88 C 157.61 160.03 158.82 160.67 159.97 160.32 L 160.97 160.01 C 162.11 159.66 162.75 158.45 162.40 157.30 C 162.05 156.16 160.83 155.51 159.69 155.86 Z M 158.72 156.15 L 157.62 156.46 C 156.46 156.80 155.79 158.01 156.12 159.17 C 156.46 160.33 157.67 161.00 158.83 160.66 L 159.93 160.35 C 161.09 160.01 161.76 158.80 161.43 157.64 C 161.10 156.48 159.88 155.81 158.72 156.15 Z M 157.64 156.43 L 156.31 156.80 C 155.14 157.12 154.45 158.34 154.77 159.52 C 155.10 160.70 156.32 161.39 157.49 161.06 L 158.81 160.70 C 159.99 160.37 160.68 159.15 160.36 157.98 C 160.03 156.80 158.81 156.11 157.64 156.43 Z M 156.27 156.77 L 155.15 157.10 C 153.96 157.45 153.28 158.70 153.63 159.89 C 153.98 161.08 155.23 161.76 156.42 161.41 L 157.54 161.09 C 158.73 160.74 159.41 159.49 159.06 158.30 C 158.71 157.10 157.46 156.42 156.27 156.77 Z M 154.95 157.13 L 154.26 157.40 C 153.09 157.86 152.51 159.19 152.97 160.36 C 153.43 161.54 154.76 162.11 155.93 161.65 L 156.62 161.38 C 157.79 160.92 158.37 159.60 157.91 158.42 C 157.45 157.25 156.13 156.67 154.95 157.13 Z M 152.84 159.02 L 152.80 159.21 C 152.52 160.45 153.30 161.69 154.54 161.97 C 155.79 162.26 157.03 161.47 157.31 160.23 L 157.35 160.04 C 157.64 158.79 156.85 157.55 155.61 157.27 C 154.36 156.99 153.12 157.77 152.84 159.02 Z M 154.66 162.01 L 155.28 162.12 C 156.54 162.34 157.75 161.49 157.97 160.22 C 158.19 158.96 157.34 157.75 156.07 157.53 L 155.45 157.43 C 154.19 157.21 152.98 158.05 152.76 159.32 C 152.54 160.59 153.39 161.79 154.66 162.01 Z M 155.57 162.15 L 156.64 162.20 C 157.93 162.26 159.02 161.27 159.08 159.98 C 159.14 158.70 158.14 157.61 156.86 157.55 L 155.78 157.50 C 154.50 157.44 153.41 158.43 153.35 159.72 C 153.29 161.00 154.28 162.09 155.57 162.15 Z M 156.72 162.21 L 158.03 162.22 C 159.32 162.24 160.38 161.20 160.39 159.92 C 160.41 158.63 159.37 157.57 158.08 157.56 L 156.77 157.54 C 155.49 157.53 154.43 158.56 154.42 159.85 C 154.40 161.14 155.44 162.19 156.72 162.21 Z M 158.06 162.22 L 159.31 162.23 C 160.60 162.23 161.65 161.18 161.65 159.89 C 161.65 158.60 160.60 157.56 159.31 157.56 L 158.06 157.56 C 156.77 157.55 155.72 158.60 155.72 159.89 C 155.72 161.18 156.77 162.22 158.06 162.22 Z M 159.31 162.22 L 160.38 162.22 C 161.67 162.22 162.71 161.18 162.71 159.89 C 162.71 158.60 161.67 157.56 160.38 157.56 L 159.31 157.56 C 158.03 157.56 156.98 158.60 156.98 159.89 C 156.98 161.18 158.03 162.22 159.31 162.22 Z M 160.38 162.21 L 161.39 162.21 C 162.67 162.21 163.71 161.17 163.71 159.89 C 163.71 158.61 162.67 157.57 161.39 157.57 L 160.38 157.57 C 159.10 157.57 158.06 158.61 158.06 159.89 C 158.06 161.17 159.10 162.21 160.38 162.21 Z M 161.39 162.21 L 162.35 162.21 C 163.63 162.21 164.66 161.17 164.66 159.89 C 164.66 158.61 163.63 157.57 162.35 157.57 L 161.39 157.57 C 160.11 157.57 159.07 158.61 159.07 159.89 C 159.07 161.17 160.11 162.21 161.39 162.21 Z M 162.35 162.20 L 163.28 162.20 C 164.55 162.20 165.59 161.17 165.59 159.89 C 165.59 158.61 164.55 157.58 163.28 157.58 L 162.35 157.58 C 161.07 157.58 160.03 158.61 160.03 159.89 C 160.03 161.17 161.07 162.20 162.35 162.20 Z M 163.28 162.19 L 164.30 162.19 C 165.57 162.19 166.60 161.16 166.60 159.89 C 166.60 158.62 165.57 157.59 164.30 157.59 L 163.28 157.60 C 162.01 157.60 160.98 158.62 160.98 159.89 C 160.98 161.16 162.01 162.19 163.28 162.19 Z M 164.30 162.16 L 165.33 162.16 C 166.59 162.16 167.60 161.14 167.60 159.88 C 167.60 158.63 166.58 157.62 165.32 157.62 L 164.30 157.62 C 163.04 157.62 162.03 158.64 162.03 159.90 C 162.03 161.15 163.05 162.16 164.30 162.16 Z M 165.34 162.13 L 166.34 162.13 C 167.58 162.12 168.58 161.11 168.57 159.87 C 168.56 158.63 167.55 157.63 166.31 157.64 L 165.31 157.65 C 164.07 157.65 163.08 158.66 163.08 159.90 C 163.09 161.14 164.10 162.14 165.34 162.13 Z M 166.35 162.10 L 167.31 162.09 C 168.53 162.07 169.51 161.06 169.50 159.84 C 169.48 158.61 168.47 157.64 167.25 157.65 L 166.29 157.67 C 165.07 157.68 164.09 158.69 164.11 159.91 C 164.13 161.14 165.13 162.11 166.35 162.10 Z M 167.34 162.04 L 168.36 162.02 C 169.56 161.98 170.51 160.98 170.48 159.78 C 170.45 158.58 169.45 157.63 168.24 157.67 L 167.22 157.69 C 166.02 157.73 165.07 158.73 165.10 159.93 C 165.14 161.13 166.14 162.08 167.34 162.04 Z M 168.44 161.95 L 169.44 161.89 C 170.61 161.81 171.49 160.80 171.42 159.63 C 171.34 158.47 170.33 157.59 169.16 157.66 L 168.16 157.73 C 167.00 157.81 166.11 158.81 166.19 159.98 C 166.27 161.15 167.28 162.03 168.44 161.95 Z M 169.59 161.81 L 170.55 161.67 C 171.68 161.52 172.46 160.48 172.30 159.36 C 172.14 158.23 171.11 157.45 169.98 157.61 L 169.02 157.74 C 167.90 157.90 167.11 158.94 167.27 160.06 C 167.43 161.18 168.47 161.97 169.59 161.81 Z M 170.74 161.57 L 171.68 161.34 C 172.75 161.08 173.40 160.00 173.14 158.93 C 172.88 157.87 171.80 157.21 170.73 157.47 L 169.79 157.71 C 168.72 157.97 168.07 159.05 168.33 160.12 C 168.59 161.18 169.67 161.84 170.74 161.57 Z M 171.85 161.23 L 172.78 160.90 C 173.78 160.55 174.31 159.44 173.95 158.44 C 173.60 157.43 172.49 156.91 171.49 157.26 L 170.56 157.59 C 169.56 157.95 169.03 159.05 169.39 160.05 C 169.74 161.06 170.85 161.58 171.85 161.23 Z M 172.87 160.80 L 173.79 160.40 C 174.74 160.00 175.18 158.90 174.77 157.95 C 174.37 157.00 173.27 156.56 172.32 156.97 L 171.40 157.37 C 170.45 157.77 170.01 158.87 170.41 159.82 C 170.82 160.77 171.92 161.21 172.87 160.80 Z M 173.82 160.32 L 174.75 159.89 C 175.65 159.47 176.04 158.39 175.62 157.49 C 175.20 156.59 174.12 156.20 173.22 156.62 L 172.29 157.05 C 171.39 157.47 171.00 158.55 171.42 159.45 C 171.84 160.35 172.92 160.74 173.82 160.32 Z M 174.74 159.85 L 174.86 159.80 C 175.74 159.38 176.12 158.32 175.70 157.44 C 175.28 156.55 174.22 156.18 173.34 156.60 L 173.22 156.65 C 172.34 157.07 171.96 158.13 172.38 159.01 C 172.80 159.90 173.86 160.27 174.74 159.85 Z"
      fill="black"
      fill-rule="nonzero" /><path d="M 152.99 147.59 L 152.44 148.44 C 151.77 149.47 152.05 150.85 153.08 151.52 C 154.11 152.19 155.50 151.91 156.17 150.88 L 156.72 150.03 C 157.39 149.00 157.11 147.62 156.08 146.95 C 155.05 146.27 153.66 146.56 152.99 147.59 Z M 152.36 148.53 L 151.86 149.40 C 151.24 150.47 151.61 151.84 152.68 152.46 C 153.75 153.08 155.13 152.72 155.75 151.64 L 156.25 150.78 C 156.87 149.71 156.50 148.33 155.43 147.71 C 154.35 147.09 152.98 147.46 152.36 148.53 Z M 151.74 149.62 L 151.34 150.52 C 150.84 151.67 151.36 153.00 152.50 153.50 C 153.64 154.00 154.98 153.48 155.48 152.33 L 155.87 151.43 C 156.37 150.28 155.85 148.95 154.71 148.45 C 153.57 147.95 152.24 148.47 151.74 149.62 Z M 151.21 150.86 L 150.97 151.81 C 150.66 153.02 151.39 154.26 152.60 154.57 C 153.81 154.88 155.05 154.15 155.36 152.94 L 155.60 151.99 C 155.92 150.78 155.18 149.54 153.97 149.23 C 152.76 148.92 151.52 149.65 151.21 150.86 Z M 150.90 152.15 L 150.80 153.13 C 150.68 154.38 151.59 155.50 152.84 155.62 C 154.09 155.75 155.20 154.83 155.33 153.58 L 155.43 152.60 C 155.55 151.35 154.64 150.24 153.39 150.11 C 152.14 149.99 151.03 150.90 150.90 152.15 Z M 150.79 153.41 L 150.81 154.42 C 150.84 155.68 151.88 156.67 153.14 156.65 C 154.39 156.62 155.39 155.58 155.36 154.32 L 155.34 153.31 C 155.32 152.05 154.28 151.06 153.02 151.08 C 151.76 151.11 150.76 152.15 150.79 153.41 Z M 150.82 154.63 L 150.94 155.63 C 151.08 156.88 152.21 157.78 153.46 157.64 C 154.71 157.49 155.61 156.36 155.47 155.11 L 155.35 154.11 C 155.21 152.86 154.08 151.96 152.83 152.11 C 151.58 152.25 150.68 153.38 150.82 154.63 Z M 150.96 155.79 L 151.14 156.75 C 151.37 157.98 152.56 158.80 153.80 158.57 C 155.03 158.34 155.85 157.15 155.62 155.91 L 155.44 154.96 C 155.22 153.72 154.03 152.90 152.79 153.13 C 151.55 153.36 150.73 154.55 150.96 155.79 Z M 151.16 156.84 L 151.38 157.81 C 151.66 159.04 152.89 159.80 154.12 159.52 C 155.34 159.24 156.11 158.01 155.82 156.79 L 155.60 155.82 C 155.32 154.59 154.09 153.83 152.87 154.11 C 151.64 154.39 150.88 155.62 151.16 156.84 Z M 151.39 157.85 L 151.64 158.85 C 151.95 160.07 153.19 160.81 154.41 160.50 C 155.63 160.19 156.37 158.96 156.06 157.74 L 155.81 156.74 C 155.51 155.52 154.27 154.78 153.05 155.09 C 151.83 155.39 151.09 156.63 151.39 157.85 Z M 151.64 158.84 L 151.87 159.78 C 152.18 161.00 153.41 161.74 154.63 161.44 C 155.85 161.14 156.60 159.90 156.30 158.68 L 156.06 157.74 C 155.76 156.52 154.52 155.78 153.30 156.08 C 152.08 156.38 151.34 157.62 151.64 158.84 Z M 151.87 159.75 L 152.09 160.69 C 152.37 161.91 153.60 162.67 154.82 162.38 C 156.05 162.10 156.81 160.87 156.52 159.65 L 156.30 158.71 C 156.02 157.49 154.79 156.73 153.57 157.01 C 152.34 157.30 151.58 158.53 151.87 159.75 Z M 152.08 160.65 L 152.29 161.63 C 152.56 162.86 153.77 163.64 155.00 163.37 C 156.23 163.11 157.01 161.89 156.74 160.66 L 156.53 159.68 C 156.26 158.46 155.05 157.68 153.82 157.94 C 152.59 158.21 151.81 159.42 152.08 160.65 Z M 152.28 161.58 L 152.48 162.61 C 152.72 163.84 153.92 164.65 155.15 164.41 C 156.39 164.17 157.19 162.97 156.95 161.74 L 156.75 160.71 C 156.51 159.48 155.31 158.67 154.08 158.91 C 152.85 159.15 152.04 160.35 152.28 161.58 Z M 152.47 162.56 L 152.65 163.56 C 152.86 164.80 154.04 165.63 155.28 165.42 C 156.52 165.21 157.35 164.03 157.13 162.79 L 156.96 161.79 C 156.75 160.55 155.57 159.72 154.33 159.93 C 153.09 160.14 152.26 161.32 152.47 162.56 Z M 152.64 163.52 L 152.79 164.50 C 152.98 165.74 154.14 166.59 155.38 166.40 C 156.62 166.22 157.48 165.06 157.29 163.81 L 157.14 162.84 C 156.95 161.59 155.79 160.74 154.55 160.93 C 153.31 161.12 152.45 162.28 152.64 163.52 Z M 152.79 164.46 L 152.92 165.46 C 153.09 166.70 154.23 167.57 155.48 167.41 C 156.72 167.24 157.59 166.09 157.43 164.85 L 157.29 163.85 C 157.12 162.61 155.98 161.74 154.74 161.90 C 153.49 162.07 152.62 163.21 152.79 164.46 Z M 152.92 165.42 L 153.04 166.43 C 153.19 167.68 154.32 168.57 155.56 168.42 C 156.81 168.27 157.70 167.14 157.55 165.89 L 157.43 164.88 C 157.28 163.64 156.15 162.75 154.90 162.90 C 153.66 163.05 152.77 164.18 152.92 165.42 Z M 153.04 166.40 L 153.14 167.40 C 153.28 168.65 154.40 169.55 155.64 169.42 C 156.89 169.29 157.79 168.17 157.66 166.92 L 157.55 165.92 C 157.42 164.67 156.30 163.77 155.05 163.90 C 153.81 164.04 152.90 165.16 153.04 166.40 Z M 153.14 167.38 L 153.23 168.33 C 153.35 169.58 154.46 170.49 155.71 170.37 C 156.95 170.25 157.87 169.15 157.75 167.90 L 157.66 166.95 C 157.54 165.70 156.43 164.79 155.19 164.91 C 153.94 165.02 153.02 166.13 153.14 167.38 Z M 153.23 168.32 L 153.32 169.26 C 153.43 170.51 154.53 171.43 155.78 171.32 C 157.03 171.21 157.95 170.10 157.83 168.86 L 157.75 167.91 C 157.64 166.67 156.54 165.75 155.29 165.86 C 154.04 165.97 153.12 167.07 153.23 168.32 Z M 153.32 169.27 L 153.41 170.23 C 153.52 171.48 154.63 172.40 155.87 172.28 C 157.12 172.17 158.03 171.07 157.92 169.82 L 157.83 168.85 C 157.72 167.61 156.62 166.69 155.37 166.80 C 154.13 166.92 153.21 168.02 153.32 169.27 Z M 153.41 170.25 L 153.51 171.26 C 153.64 172.51 154.75 173.41 155.99 173.29 C 157.23 173.17 158.14 172.06 158.02 170.81 L 157.92 169.80 C 157.79 168.56 156.68 167.65 155.44 167.77 C 154.20 167.90 153.29 169.01 153.41 170.25 Z M 153.52 171.29 L 153.64 172.37 C 153.78 173.61 154.90 174.51 156.14 174.37 C 157.38 174.23 158.28 173.11 158.14 171.87 L 158.01 170.78 C 157.87 169.54 156.75 168.65 155.51 168.79 C 154.27 168.93 153.38 170.05 153.52 171.29 Z M 153.65 172.41 L 153.78 173.43 C 153.94 174.67 155.07 175.54 156.31 175.38 C 157.55 175.22 158.42 174.09 158.26 172.85 L 158.13 171.83 C 157.97 170.59 156.84 169.72 155.60 169.88 C 154.36 170.04 153.49 171.17 153.65 172.41 Z M 153.79 173.48 L 153.94 174.52 C 154.13 175.75 155.28 176.60 156.51 176.41 C 157.74 176.23 158.59 175.08 158.41 173.85 L 158.25 172.81 C 158.07 171.57 156.92 170.72 155.69 170.91 C 154.45 171.09 153.60 172.24 153.79 173.48 Z M 153.96 174.58 L 154.14 175.62 C 154.36 176.84 155.53 177.66 156.76 177.44 C 157.98 177.22 158.80 176.05 158.58 174.82 L 158.40 173.79 C 158.18 172.56 157.01 171.74 155.78 171.96 C 154.55 172.18 153.74 173.35 153.96 174.58 Z M 154.16 175.70 L 154.38 176.70 C 154.64 177.92 155.84 178.69 157.06 178.42 C 158.27 178.16 159.05 176.96 158.78 175.74 L 158.56 174.74 C 158.30 173.53 157.10 172.76 155.88 173.02 C 154.67 173.28 153.90 174.48 154.16 175.70 Z M 154.41 176.82 L 154.67 177.75 C 154.99 178.94 156.23 179.65 157.43 179.32 C 158.63 178.99 159.33 177.75 159.00 176.56 L 158.75 175.63 C 158.42 174.43 157.18 173.73 155.99 174.05 C 154.79 174.38 154.08 175.62 154.41 176.82 Z M 154.72 177.92 L 155.04 178.80 C 155.47 179.96 156.76 180.56 157.92 180.14 C 159.09 179.71 159.69 178.42 159.26 177.25 L 158.95 176.38 C 158.52 175.21 157.23 174.61 156.06 175.04 C 154.90 175.46 154.30 176.75 154.72 177.92 Z M 155.19 179.12 L 155.76 180.14 C 156.36 181.22 157.73 181.61 158.81 181.01 C 159.90 180.40 160.29 179.03 159.68 177.95 L 159.12 176.93 C 158.51 175.85 157.14 175.46 156.06 176.06 C 154.97 176.66 154.58 178.03 155.19 179.12 Z M 156.06 180.57 L 156.72 181.28 C 157.57 182.20 158.99 182.26 159.91 181.41 C 160.82 180.57 160.88 179.14 160.04 178.23 L 159.38 177.52 C 158.53 176.60 157.11 176.54 156.19 177.39 C 155.28 178.23 155.22 179.65 156.06 180.57 Z M 157.14 181.64 L 157.87 182.12 C 158.91 182.81 160.31 182.52 161.00 181.48 C 161.68 180.43 161.39 179.03 160.35 178.35 L 159.62 177.87 C 158.58 177.18 157.18 177.48 156.49 178.52 C 155.81 179.56 156.10 180.96 157.14 181.64 Z M 158.27 182.34 L 159.06 182.65 C 160.22 183.12 161.54 182.55 162.00 181.39 C 162.46 180.23 161.90 178.91 160.74 178.45 L 159.95 178.14 C 158.79 177.67 157.47 178.24 157.01 179.40 C 156.55 180.56 157.11 181.88 158.27 182.34 Z M 159.40 182.76 L 160.27 182.96 C 161.49 183.24 162.70 182.47 162.98 181.25 C 163.26 180.03 162.49 178.82 161.27 178.54 L 160.40 178.34 C 159.18 178.06 157.97 178.83 157.69 180.05 C 157.41 181.27 158.18 182.48 159.40 182.76 Z M 160.52 183.01 L 161.52 183.12 C 162.77 183.26 163.89 182.36 164.03 181.12 C 164.17 179.87 163.27 178.74 162.03 178.60 L 161.02 178.49 C 159.77 178.35 158.65 179.25 158.51 180.50 C 158.37 181.74 159.27 182.87 160.52 183.01 Z M 161.66 183.14 L 162.84 183.20 C 164.10 183.26 165.17 182.29 165.23 181.03 C 165.29 179.78 164.32 178.71 163.06 178.65 L 161.89 178.59 C 160.63 178.52 159.56 179.49 159.50 180.75 C 159.44 182.01 160.41 183.07 161.66 183.14 Z M 162.90 183.20 L 163.83 183.22 C 165.09 183.25 166.13 182.26 166.16 181.00 C 166.19 179.74 165.20 178.69 163.94 178.66 L 163.01 178.64 C 161.75 178.61 160.70 179.61 160.67 180.87 C 160.64 182.13 161.64 183.17 162.90 183.20 Z M 163.87 183.23 L 164.87 183.23 C 166.13 183.24 167.16 182.23 167.17 180.97 C 167.18 179.70 166.16 178.68 164.90 178.67 L 163.90 178.66 C 162.64 178.65 161.61 179.67 161.60 180.93 C 161.59 182.19 162.61 183.22 163.87 183.23 Z M 164.91 183.23 L 165.95 183.22 C 167.22 183.21 168.23 182.17 168.21 180.91 C 168.19 179.65 167.16 178.64 165.90 178.65 L 164.86 178.67 C 163.60 178.68 162.59 179.72 162.60 180.98 C 162.62 182.24 163.65 183.25 164.91 183.23 Z M 166.01 183.22 L 167.04 183.18 C 168.31 183.14 169.29 182.08 169.25 180.82 C 169.20 179.56 168.14 178.57 166.88 178.62 L 165.84 178.65 C 164.58 178.70 163.60 179.76 163.64 181.02 C 163.69 182.28 164.74 183.27 166.01 183.22 Z M 167.11 183.18 L 168.11 183.12 C 169.37 183.04 170.33 181.95 170.24 180.69 C 170.16 179.43 169.07 178.47 167.81 178.55 L 166.81 178.62 C 165.55 178.70 164.60 179.79 164.68 181.05 C 164.76 182.31 165.85 183.26 167.11 183.18 Z M 168.21 183.11 L 169.27 183.00 C 170.52 182.86 171.43 181.73 171.30 180.48 C 171.16 179.22 170.04 178.31 168.78 178.45 L 167.72 178.56 C 166.46 178.70 165.55 179.82 165.69 181.08 C 165.82 182.33 166.95 183.24 168.21 183.11 Z M 169.37 182.98 L 170.39 182.82 C 171.63 182.63 172.49 181.46 172.29 180.22 C 172.10 178.97 170.94 178.11 169.69 178.31 L 168.68 178.46 C 167.43 178.66 166.57 179.82 166.77 181.07 C 166.96 182.32 168.13 183.17 169.37 182.98 Z M 170.47 182.80 L 171.42 182.62 C 172.66 182.38 173.47 181.18 173.23 179.95 C 172.99 178.71 171.79 177.90 170.56 178.14 L 169.60 178.33 C 168.37 178.56 167.56 179.76 167.80 181.00 C 168.04 182.23 169.23 183.04 170.47 182.80 Z M 171.47 182.61 L 172.40 182.40 C 173.63 182.14 174.41 180.92 174.15 179.69 C 173.88 178.47 172.67 177.69 171.44 177.95 L 170.51 178.15 C 169.28 178.42 168.50 179.63 168.77 180.86 C 169.03 182.09 170.25 182.87 171.47 182.61 Z M 172.41 182.40 L 173.36 182.19 C 174.59 181.92 175.36 180.70 175.09 179.47 C 174.81 178.25 173.60 177.48 172.37 177.75 L 171.43 177.96 C 170.20 178.23 169.43 179.45 169.70 180.67 C 169.97 181.90 171.19 182.67 172.41 182.40 Z M 173.35 182.19 L 174.32 181.98 C 175.55 181.71 176.33 180.50 176.06 179.27 C 175.80 178.05 174.59 177.27 173.36 177.53 L 172.38 177.75 C 171.16 178.01 170.38 179.22 170.64 180.45 C 170.91 181.68 172.12 182.46 173.35 182.19 Z M 174.32 181.98 L 175.31 181.77 C 176.53 181.50 177.31 180.30 177.05 179.07 C 176.79 177.84 175.58 177.06 174.35 177.32 L 173.36 177.53 C 172.14 177.80 171.36 179.01 171.62 180.23 C 171.88 181.46 173.09 182.24 174.32 181.98 Z M 175.31 181.77 L 176.29 181.55 C 177.52 181.29 178.30 180.08 178.04 178.85 C 177.77 177.63 176.56 176.85 175.34 177.11 L 174.35 177.32 C 173.12 177.59 172.34 178.80 172.61 180.02 C 172.87 181.25 174.08 182.03 175.31 181.77 Z M 176.30 181.55 L 177.27 181.34 C 178.49 181.07 179.27 179.86 179.00 178.63 C 178.73 177.41 177.52 176.63 176.30 176.90 L 175.33 177.11 C 174.10 177.38 173.32 178.59 173.59 179.82 C 173.86 181.05 175.07 181.82 176.30 181.55 Z M 177.28 181.34 L 178.30 181.11 C 179.52 180.83 180.29 179.62 180.01 178.39 C 179.74 177.17 178.52 176.40 177.30 176.67 L 176.28 176.90 C 175.06 177.18 174.29 178.40 174.56 179.62 C 174.84 180.84 176.06 181.61 177.28 181.34 Z M 178.30 181.11 L 179.29 180.88 C 180.51 180.61 181.28 179.39 181.00 178.16 C 180.72 176.94 179.50 176.17 178.28 176.45 L 177.29 176.68 C 176.07 176.95 175.30 178.17 175.58 179.40 C 175.86 180.62 177.08 181.39 178.30 181.11 Z M 179.28 180.89 L 180.24 180.67 C 181.46 180.40 182.23 179.18 181.96 177.96 C 181.69 176.73 180.47 175.96 179.25 176.23 L 178.29 176.45 C 177.06 176.72 176.29 177.94 176.56 179.16 C 176.84 180.39 178.05 181.16 179.28 180.89 Z M 180.21 180.68 L 181.16 180.48 C 182.39 180.22 183.17 179.01 182.91 177.78 C 182.65 176.55 181.44 175.77 180.21 176.03 L 179.27 176.23 C 178.04 176.49 177.26 177.70 177.52 178.92 C 177.78 180.15 178.99 180.94 180.21 180.68 Z M 181.12 180.49 L 182.11 180.29 C 183.35 180.05 184.15 178.86 183.91 177.62 C 183.67 176.39 182.48 175.58 181.24 175.83 L 180.25 176.02 C 179.02 176.26 178.21 177.45 178.45 178.69 C 178.69 179.92 179.89 180.73 181.12 180.49 Z M 182.08 180.31 L 183.06 180.13 C 184.31 179.91 185.13 178.73 184.91 177.49 C 184.69 176.24 183.51 175.42 182.27 175.64 L 181.28 175.81 C 180.04 176.03 179.21 177.22 179.43 178.46 C 179.65 179.70 180.84 180.53 182.08 180.31 Z M 183.03 180.14 L 184.01 179.99 C 185.26 179.78 186.11 178.61 185.91 177.36 C 185.70 176.11 184.53 175.26 183.28 175.47 L 182.30 175.63 C 181.05 175.83 180.20 177.00 180.41 178.25 C 180.61 179.50 181.78 180.35 183.03 180.14 Z M 183.99 180.00 L 184.94 179.85 C 186.20 179.67 187.06 178.50 186.88 177.24 C 186.69 175.99 185.52 175.12 184.27 175.31 L 183.31 175.45 C 182.05 175.64 181.19 176.81 181.38 178.06 C 181.56 179.32 182.73 180.18 183.99 180.00 Z M 184.92 179.87 L 185.81 179.75 C 187.08 179.57 187.96 178.41 187.79 177.14 C 187.61 175.88 186.45 175.00 185.18 175.17 L 184.29 175.30 C 183.03 175.47 182.14 176.64 182.32 177.90 C 182.49 179.16 183.66 180.05 184.92 179.87 Z M 185.79 179.77 L 186.73 179.65 C 188.01 179.48 188.91 178.32 188.75 177.05 C 188.58 175.77 187.42 174.87 186.14 175.03 L 185.20 175.15 C 183.93 175.31 183.03 176.48 183.19 177.75 C 183.35 179.03 184.52 179.93 185.79 179.77 Z M 186.71 179.67 L 187.73 179.55 C 189.02 179.40 189.94 178.23 189.79 176.95 C 189.64 175.66 188.47 174.74 187.19 174.89 L 186.16 175.01 C 184.88 175.16 183.96 176.33 184.11 177.61 C 184.26 178.90 185.43 179.82 186.71 179.67 Z M 187.72 179.57 L 188.86 179.44 C 190.15 179.30 191.09 178.13 190.95 176.84 C 190.81 175.54 189.64 174.61 188.34 174.75 L 187.20 174.87 C 185.91 175.01 184.97 176.18 185.11 177.48 C 185.26 178.77 186.42 179.71 187.72 179.57 Z M 188.86 179.47 L 189.94 179.35 C 191.25 179.21 192.20 178.03 192.06 176.72 C 191.92 175.41 190.74 174.46 189.43 174.60 L 188.34 174.72 C 187.03 174.86 186.08 176.04 186.23 177.35 C 186.37 178.66 187.54 179.61 188.86 179.47 Z M 189.99 179.38 L 191.10 179.24 C 192.43 179.07 193.37 177.86 193.20 176.53 C 193.03 175.20 191.81 174.26 190.48 174.43 L 189.37 174.57 C 188.05 174.74 187.11 175.96 187.28 177.29 C 187.45 178.61 188.66 179.55 189.99 179.38 Z M 191.22 179.26 L 192.27 179.07 C 193.61 178.83 194.50 177.56 194.26 176.22 C 194.02 174.88 192.74 173.99 191.41 174.23 L 190.36 174.41 C 189.02 174.65 188.13 175.93 188.37 177.27 C 188.61 178.60 189.88 179.50 191.22 179.26 Z M 192.50 179.06 L 193.40 178.81 C 194.73 178.44 195.51 177.06 195.14 175.73 C 194.77 174.41 193.39 173.63 192.06 174.00 L 191.17 174.24 C 189.84 174.61 189.06 175.99 189.43 177.32 C 189.80 178.65 191.18 179.42 192.50 179.06 Z M 193.89 178.65 L 194.58 178.30 C 195.82 177.66 196.31 176.13 195.67 174.89 C 195.03 173.65 193.51 173.16 192.26 173.80 L 191.57 174.15 C 190.33 174.79 189.84 176.32 190.48 177.56 C 191.12 178.80 192.65 179.29 193.89 178.65 Z M 195.60 177.37 L 196.02 176.68 C 196.75 175.47 196.36 173.91 195.16 173.18 C 193.95 172.45 192.38 172.83 191.65 174.04 L 191.24 174.73 C 190.51 175.93 190.90 177.50 192.10 178.23 C 193.31 178.96 194.88 178.57 195.60 177.37 Z M 196.37 175.03 L 196.26 174.13 C 196.08 172.73 194.79 171.74 193.39 171.93 C 191.99 172.11 191.00 173.39 191.19 174.79 L 191.30 175.69 C 191.48 177.09 192.77 178.08 194.17 177.90 C 195.57 177.71 196.55 176.43 196.37 175.03 Z M 196.07 173.44 L 195.59 172.34 C 195.03 171.04 193.52 170.45 192.22 171.01 C 190.92 171.58 190.33 173.09 190.89 174.38 L 191.37 175.48 C 191.93 176.78 193.45 177.38 194.74 176.81 C 196.04 176.25 196.64 174.74 196.07 173.44 Z M 195.51 172.18 L 195.13 171.44 C 194.47 170.18 192.93 169.70 191.67 170.35 C 190.42 171.01 189.93 172.55 190.59 173.81 L 190.97 174.55 C 191.63 175.80 193.17 176.29 194.43 175.63 C 195.68 174.98 196.17 173.43 195.51 172.18 Z M 195.10 171.40 L 194.69 170.65 C 194.01 169.41 192.46 168.96 191.22 169.63 C 189.99 170.31 189.53 171.86 190.21 173.10 L 190.62 173.85 C 191.29 175.09 192.84 175.54 194.08 174.86 C 195.32 174.19 195.77 172.64 195.10 171.40 Z M 194.67 170.63 L 194.21 169.81 C 193.53 168.58 191.98 168.14 190.75 168.83 C 189.52 169.51 189.08 171.06 189.77 172.29 L 190.23 173.11 C 190.91 174.34 192.46 174.78 193.69 174.09 C 194.91 173.41 195.35 171.86 194.67 170.63 Z M 194.20 169.81 L 193.69 168.91 C 193.01 167.69 191.46 167.25 190.24 167.94 C 189.02 168.62 188.59 170.16 189.27 171.38 L 189.78 172.29 C 190.46 173.51 192.01 173.94 193.23 173.26 C 194.45 172.58 194.88 171.03 194.20 169.81 Z M 193.69 168.92 L 193.14 167.93 C 192.46 166.71 190.92 166.27 189.71 166.95 C 188.49 167.63 188.05 169.17 188.73 170.38 L 189.28 171.37 C 189.95 172.59 191.49 173.03 192.71 172.35 C 193.93 171.67 194.37 170.14 193.69 168.92 Z M 193.14 167.95 L 192.55 166.87 C 191.88 165.65 190.35 165.20 189.14 165.87 C 187.92 166.54 187.47 168.06 188.13 169.28 L 188.73 170.36 C 189.39 171.58 190.92 172.03 192.14 171.36 C 193.36 170.70 193.80 169.17 193.14 167.95 Z M 192.54 166.90 L 192.08 166.05 C 191.43 164.84 189.92 164.38 188.71 165.03 C 187.50 165.68 187.04 167.19 187.69 168.41 L 188.14 169.25 C 188.79 170.47 190.31 170.92 191.52 170.27 C 192.73 169.62 193.19 168.11 192.54 166.90 Z M 192.06 166.08 L 191.59 165.19 C 190.96 163.99 189.47 163.53 188.27 164.17 C 187.07 164.80 186.61 166.29 187.24 167.49 L 187.71 168.38 C 188.35 169.58 189.84 170.04 191.04 169.40 C 192.24 168.77 192.70 167.28 192.06 166.08 Z M 191.57 165.22 L 191.09 164.31 C 190.47 163.12 189.01 162.66 187.82 163.28 C 186.63 163.90 186.17 165.37 186.79 166.55 L 187.27 167.47 C 187.89 168.65 189.35 169.11 190.54 168.49 C 191.73 167.87 192.19 166.41 191.57 165.22 Z M 191.07 164.33 L 190.59 163.41 C 189.98 162.23 188.54 161.77 187.36 162.38 C 186.19 162.99 185.73 164.43 186.34 165.61 L 186.82 166.53 C 187.43 167.70 188.87 168.16 190.04 167.56 C 191.22 166.95 191.67 165.50 191.07 164.33 Z M 190.56 163.43 L 190.09 162.50 C 189.49 161.35 188.07 160.89 186.91 161.49 C 185.75 162.08 185.29 163.50 185.89 164.66 L 186.37 165.59 C 186.96 166.74 188.38 167.20 189.54 166.60 C 190.70 166.01 191.16 164.59 190.56 163.43 Z M 190.06 162.53 L 189.60 161.62 C 189.01 160.47 187.61 160.02 186.47 160.60 C 185.32 161.19 184.87 162.59 185.45 163.73 L 185.92 164.64 C 186.50 165.79 187.90 166.24 189.05 165.65 C 190.19 165.07 190.65 163.67 190.06 162.53 Z M 189.57 161.64 L 189.12 160.76 C 188.55 159.63 187.17 159.18 186.04 159.75 C 184.91 160.33 184.46 161.71 185.03 162.84 L 185.48 163.72 C 186.06 164.84 187.44 165.29 188.56 164.72 C 189.69 164.15 190.14 162.76 189.57 161.64 Z M 189.09 160.77 L 188.67 159.94 C 188.10 158.82 186.74 158.38 185.63 158.94 C 184.52 159.51 184.07 160.87 184.64 161.98 L 185.06 162.82 C 185.63 163.93 186.99 164.38 188.10 163.81 C 189.21 163.25 189.66 161.89 189.09 160.77 Z M 188.62 159.96 L 188.10 158.93 C 187.55 157.84 186.22 157.41 185.14 157.96 C 184.05 158.51 183.61 159.83 184.16 160.92 L 184.69 161.95 C 185.24 163.04 186.56 163.48 187.65 162.93 C 188.73 162.38 189.17 161.05 188.62 159.96 Z M 188.03 158.97 L 187.53 157.98 C 187.00 156.94 185.72 156.52 184.68 157.05 C 183.63 157.57 183.21 158.85 183.74 159.90 L 184.24 160.88 C 184.76 161.93 186.04 162.35 187.09 161.82 C 188.13 161.29 188.55 160.01 188.03 158.97 Z M 187.45 158.02 L 186.99 157.12 C 186.49 156.11 185.26 155.71 184.26 156.22 C 183.25 156.72 182.85 157.95 183.36 158.95 L 183.81 159.86 C 184.32 160.86 185.55 161.27 186.55 160.76 C 187.56 160.25 187.96 159.03 187.45 158.02 Z M 186.92 157.15 L 186.49 156.31 C 186.00 155.35 184.83 154.96 183.87 155.45 C 182.90 155.94 182.52 157.11 183.01 158.08 L 183.43 158.92 C 183.92 159.88 185.10 160.26 186.06 159.78 C 187.02 159.29 187.41 158.11 186.92 157.15 Z M 186.41 156.34 L 186.01 155.55 C 185.54 154.63 184.41 154.26 183.49 154.73 C 182.57 155.20 182.21 156.32 182.68 157.24 L 183.09 158.04 C 183.55 158.96 184.68 159.33 185.60 158.86 C 186.52 158.39 186.88 157.26 186.41 156.34 Z M 185.93 155.58 L 185.53 154.81 C 185.08 153.93 184.00 153.59 183.13 154.04 C 182.25 154.49 181.91 155.56 182.36 156.44 L 182.76 157.21 C 183.21 158.09 184.28 158.43 185.16 157.98 C 186.03 157.53 186.38 156.45 185.93 155.58 Z M 185.48 154.82 L 185.02 153.92 C 184.57 153.07 183.52 152.74 182.67 153.18 C 181.82 153.63 181.49 154.67 181.94 155.53 L 182.40 156.42 C 182.85 157.28 183.90 157.61 184.75 157.16 C 185.60 156.72 185.93 155.67 185.48 154.82 Z M 185.01 153.92 L 184.54 153.03 C 184.09 152.18 183.05 151.86 182.20 152.30 C 181.36 152.75 181.03 153.80 181.48 154.64 L 181.94 155.53 C 182.39 156.38 183.44 156.70 184.28 156.25 C 185.13 155.81 185.45 154.76 185.01 153.92 Z M 184.53 153.03 L 184.06 152.14 C 183.62 151.30 182.57 150.98 181.73 151.43 C 180.89 151.88 180.57 152.92 181.02 153.76 L 181.49 154.64 C 181.93 155.48 182.98 155.80 183.82 155.36 C 184.66 154.91 184.98 153.87 184.53 153.03 Z M 184.05 152.14 L 183.59 151.27 C 183.14 150.43 182.10 150.12 181.26 150.56 C 180.43 151.01 180.11 152.05 180.56 152.89 L 181.02 153.76 C 181.47 154.60 182.51 154.92 183.35 154.47 C 184.19 154.02 184.50 152.98 184.05 152.14 Z M 183.58 151.27 L 183.15 150.47 C 182.70 149.63 181.67 149.32 180.83 149.77 C 180.00 150.21 179.69 151.25 180.13 152.08 L 180.56 152.89 C 181.01 153.72 182.05 154.03 182.88 153.59 C 183.71 153.14 184.03 152.10 183.58 151.27 Z"
      fill="black"
      fill-rule="nonzero" /></svg>