<svg xmlns="http://www.w3.org/2000/svg" version="1.0" width="937.000000pt" height="937.000000pt" viewBox="0 0 937.000000 937.000000" preserveAspectRatio="xMidYMid meet">
  <defs/>
  <path fill="#000000" d="M453.4,325.9 C447.2,330.8 442.9,336.2 439.1,343.6 C432.8,356.2 432.9,367.6 439.3,373.8 C444.4,378.8 449.2,380.3 461.8,380.8 C467.9,381 473,381.4 473,381.5 C473,382 457,407.4 456.1,408.2 C454.8,409.6 438.5,394.4 435.6,389 C432.2,382.8 429.4,381.2 425,383 C423.4,383.7 422,384.6 422,385.1 C422,385.6 421.6,386 421,386 C420.5,386 420,384.5 420,382.6 C420,370.7 412.3,363.3 393.1,356.9 L383.8,353.8 L382.1,350.7 C378.2,343.3 373.8,341.2 370,345 C367.5,347.5 367.5,351 370,355.9 C372.9,361.6 376.8,364.4 388.1,368.6 C393.7,370.8 399.8,373.9 401.9,375.6 L405.5,378.8 L405.5,386.6 L405.5,394.5 L401.7,401.7 C399.6,405.6 394.8,413.3 391.2,418.7 L384.5,428.5 L370.5,428.4 C352.2,428.3 335.2,425.3 331,421.4 L329.6,420 L331.4,412.8 C332.4,408.8 333,404.4 332.9,403 C332.4,399.6 328,397.3 324.3,398.5 L321.5,399.5 L318.8,407.5 C315.4,417.5 315.2,423.5 318.3,428 C323.2,435.3 332.5,437.8 358.3,438.7 C368,439 376,439.6 376,439.9 C376,442.2 350.8,470.7 340.6,480 C331.2,488.5 328.2,490.3 322.1,491.1 C316,492 314,493.7 314,498 C314,502.3 316.8,504 323.6,504 C331.1,504 335.4,502 345.1,494.2 C363.7,479.2 389.3,449.1 406.4,422.1 C415.2,408.2 417.8,402.9 419.5,395.5 L420.7,390.5 L422.9,394.8 C424.1,397.2 426.8,400.9 428.8,403.2 C432.3,407.1 458.3,429.9 473.4,442.4 C477.3,445.6 482.6,450.2 485.2,452.6 C490.2,457.3 493.7,458.2 496.4,455.4 C499.9,452 498.5,449.9 481.5,433.3 C472.4,424.4 465,416.7 465,416.2 C465,415.7 465.7,414.7 466.6,413.9 C469.3,411.7 492.4,383.1 494.3,379.7 C496.7,375.3 496.5,371.4 493.5,368.5 C490.5,365.4 487.2,365.3 480,368.1 C469.6,372.1 452.6,371.6 447.8,367.3 C445.4,365.2 445.5,361.3 448.1,354.6 L450.1,349 L459.2,340.6 L468.3,332.1 L468.3,329 C468.3,321.3 461.1,319.8 453.4,325.9 Z"/>
  <path fill="#000000" d="M573,372.6 C565.6,374.5 549.8,379.1 538,382.9 C524,387.4 513.9,390.1 509.1,390.5 C500.8,391.3 498,393.2 498,397.9 C498,399.9 498.9,401.5 500.8,403 L503.5,405.2 L511.7,404.7 L519.9,404.2 L519.9,414.9 C519.9,420.7 520.3,429.5 520.9,434.5 C524.1,462.3 526.5,532.1 527.6,626 L528.2,680.5 L529.6,682.7 C531.2,685.3 534.7,685.7 537.6,683.6 L539.5,682.2 L540.3,639.3 C540.7,615.8 540.7,577.9 540.4,555.1 L539.8,513.6 L542.6,515.5 C551.8,521.6 562,527.2 566.4,528.5 C577.5,531.8 586.9,529.2 595.2,520.3 C605,509.7 608.4,497.3 605.6,481.5 C603.6,469.9 599.6,462.3 589,450.1 C584.1,444.3 579,437.6 577.7,435.1 L575.5,430.5 L575.6,419 L575.6,407.5 L577.9,401.8 C580.3,395.6 587.1,387.3 592.5,384 C596.7,381.4 598.2,377.4 596.5,373.3 C594.2,367.9 591.6,367.8 573,372.6 Z M568.7,389.2 C568.4,389.9 566.9,393.4 565.3,397 L562.5,403.5 L562.5,418.5 L562.5,433.5 L565.1,439 C566.5,442 571.8,449.7 576.9,456 C582,462.3 586.9,469.1 587.9,471 C592.9,480.7 593.3,496.4 588.7,504.3 C585.4,509.8 580.1,514.6 576.2,515.5 C570.8,516.6 562,513.3 545.9,503.9 L539.4,500.1 L538.2,477.3 C537.5,464.8 536.3,447.3 535.5,438.5 C534.6,429.7 533.6,418.3 533.1,413.3 C532.7,408.2 531.7,403.3 531,402.5 C530.3,401.6 529.9,400.8 530.1,400.6 C530.7,400.1 567.3,388 568.4,388 C568.8,388 569,388.6 568.7,389.2 Z"/>
  <path fill="#000000" d="M420.4,452.6 C409.5,455.5 396.9,458.5 392.5,459.1 C382.4,460.5 380,461.9 380,466.5 C380,476.4 391.8,476.5 416,466.8 C422.9,464 432,460.7 436.3,459.3 C442.1,457.5 444.4,456.3 445.1,454.6 C446.4,451.8 445,448.5 442.2,447.8 C441.2,447.5 431.4,449.7 420.4,452.6 Z"/>
  <path fill="#000000" d="M409.5,493.1 C390.9,494 377.5,495.6 374,497.3 C370.8,498.9 369.3,503.1 370.8,506.5 C372.5,510.3 375.5,511 383.7,509.4 C392.3,507.8 438.9,504.6 439.8,505.5 C440.7,506.4 434.2,512.1 425.5,518 C418.2,522.9 391.9,537.7 389.5,538.2 C386.1,538.9 371.6,516.8 368.4,506 C366.7,500.2 363.6,497.6 359.6,498.6 C356,499.5 354.6,502.4 355.4,507.7 C356.3,514.8 360.5,522.1 369.7,533 L378.3,543.3 L375.4,545.7 C373.8,546.9 372.2,548 371.9,548 C370.7,548 369.2,552.8 369.7,555.3 C370,556.7 371.1,558.7 372.2,559.6 L374.1,561.4 L386.4,561.8 L398.6,562.2 L393.9,567.1 C382.2,579.1 383.5,590.2 399,611.8 C402.3,616.4 405,620.3 405,620.5 C405,622.4 376.8,633.6 368.3,635.1 C360.5,636.5 357.7,638.5 357.7,643 C357.7,646.9 361.7,651 365.5,651 C370.1,651 406.6,646.1 417.3,644 C439,639.8 458.1,631.7 473.9,619.9 C484,612.4 485.7,609.8 482.4,606.6 C479.9,604 477.1,604.7 470.1,609.9 C458.1,618.7 447.4,623.4 434.3,625.8 L429.2,626.7 L426.1,624.8 C424.4,623.7 423,622.5 423.1,622.2 C423.1,621.8 425.8,619.3 429.1,616.7 C442,606.3 454.9,588 456.9,577.3 C458.3,570.3 456.6,563.7 452.7,560.4 L449.6,557.8 L442.4,558.2 C433.9,558.6 431,560.5 431,565.6 C431,569.8 435,573.2 439.4,572.8 L442.5,572.5 L442.1,575.5 C441,585.5 428.3,604.7 418,612 L415.2,614 L407.6,601.3 C403.4,594.3 399.7,587.1 399.4,585.3 C398.5,580.6 402.6,574.2 410.8,567.7 C420.8,559.7 423.4,558.1 429.6,556 C432.8,554.9 436.2,553.2 437.2,552.3 C439.8,549.9 439.5,545.4 436.6,543.5 L434.1,541.9 L426.8,543.9 C418.5,546.2 404.2,548.4 401.4,547.8 C400.1,547.6 402.6,545.7 409,542 C435.7,526.8 455.8,510.8 457.7,503.2 C458.6,499.3 456.8,495.7 453,493.8 L449.5,492 L437.5,492.2 C430.9,492.2 418.3,492.7 409.5,493.1 Z"/>
</svg>

