<svg xmlns="http://www.w3.org/2000/svg" version="1.0" width="937.000000pt" height="937.000000pt" viewBox="0 0 937.000000 937.000000" preserveAspectRatio="xMidYMid meet">
  <defs/>
  <path fill="#000000" d="M403.8,330.7 C401.3,333.4 396.6,344.5 389.4,364.5 C370.9,415.7 351,466.6 334.5,505 C330.8,513.5 327.1,522.2 326.2,524.3 L324.7,528.1 L326.7,530.8 C329.4,534.4 333.3,534.8 336.2,531.7 C338.5,529.2 351.3,502.5 359.7,482.8 L364.2,472.1 L368.1,474.6 C375.8,479.4 384.2,480 393.4,476.4 L395.3,475.7 L394.5,478.6 C392.8,485 392.1,489.8 392,495.1 L392,500.8 L383.3,507.9 C378.5,511.8 371.5,516.6 367.8,518.5 C358.2,523.6 356,527.8 360.6,532.5 C363.1,535 368.2,534.2 381.1,529.5 C387.8,527 393.4,525.1 393.6,525.3 C394.3,526.2 397.2,557.2 397.7,570.2 L398.3,586 L396.2,586 C393.3,586 383.5,580.7 369.5,571.5 C346.5,556.5 344.7,555.8 340.7,561.2 L338.7,563.9 L339.9,566.7 C340.7,568.8 344.3,571.4 353.3,576.7 C367.7,585.2 387.2,594.7 391.8,595.6 C397.5,596.7 395.8,599.1 384.3,605.9 C365.7,617 351.2,626.7 349.5,629.3 C346.7,633.7 350.1,640 355.3,640 C356.4,640 363.8,635.8 371.9,630.7 C394.2,616.4 409.3,607.3 411.8,606.6 C413,606.2 414,605.5 414,605 C414,604.6 418.8,600.9 424.8,596.9 C430.7,592.9 439.6,586.6 444.5,582.9 C454.5,575.5 469,561.1 469,558.7 C469,556.5 466.2,554 463.8,554 C462.6,554 458.7,556.9 454.6,560.8 C448.4,566.7 429.2,580.6 428.5,579.8 C428.4,579.6 429.9,574.3 432,568 C436.4,554.7 439,543 439,536.7 C439,531.5 436.5,528.7 432,528.7 C427.7,528.7 425.2,531.4 424.5,536.9 C422.8,549.9 414.1,586.3 412.1,588.3 C411.7,588.7 410.5,588.8 409.5,588.4 L407.7,587.7 L408.4,571.8 C408.8,562.5 408.6,548.6 407.9,537.8 L406.7,519.6 L408.1,518.8 C430.3,505.8 438,499.7 438,495.1 C438,488.6 433.6,488.5 426.1,494.6 C420.7,499 414,503 409.3,504.4 L407,505.1 L407,502.6 C407,500.8 410.2,496 417.3,487.2 C431,470.3 434.1,465.6 434.7,461 L435.2,457.2 L432.7,454.6 C431,452.9 429,452 426.9,452 C425.2,452 414.9,454.9 404.1,458.5 C393.2,462.1 383.4,465 382.2,465 C378.7,465 369.9,459.7 370.4,458 C370.7,457.2 374.9,446.6 379.8,434.5 C384.7,422.4 392.5,402.6 397,390.5 C401.5,378.4 405.5,368.1 406,367.6 C407.3,366.3 426.1,380.2 432.4,387.2 C439.4,394.9 442.6,401.3 444.5,411.5 C446,419.6 447.6,422 451.2,422 C452.2,422 453.7,420.9 454.6,419.6 L456.2,417.1 L454.5,408.8 C453.5,404.2 452,398.3 451,395.7 C446.6,384.1 436.5,372.3 420.8,360.3 C415.4,356.3 411,352.5 411,351.9 C411,351.3 411.9,347.2 413.1,342.7 L415.1,334.7 L413.2,332.1 C410.8,328.9 406.1,328.2 403.8,330.7 Z M416.8,471.6 C412.9,477.1 412,477.7 412,475.1 C412,474.1 411.7,472.5 411.4,471.6 C411,470.5 411.8,469.6 414.1,468.5 C419.8,466.1 420.3,466.7 416.8,471.6 Z"/>
  <path fill="#000000" d="M483.1,349.6 C480.3,353.2 480.5,355.6 483.8,358.9 C489.3,364.5 495.4,367 509.8,370 C523.9,372.8 533.2,376.3 536.6,380.1 C538,381.7 538.6,384.1 538.9,390 L539.2,397.9 L536.7,403.4 C534.4,408.3 524.1,423.2 522.1,424.5 C521.7,424.7 520.3,423.6 519.1,422 C517.4,419.7 516.2,419 513.5,419 C508.5,419 506.9,422 506.2,432.6 L505.7,441.1 L495.6,449.4 C490,454 481.5,460.6 476.5,464.3 C460,476.4 458.2,479.2 463.6,484.7 L466.2,487.3 L483.4,486.6 C492.8,486.3 502.6,485.7 505.2,485.4 L509.8,484.8 L510.6,492.6 C511.1,497 511.5,513.1 511.5,528.5 L511.5,556.5 L509.2,567.4 C504.3,590.3 501.7,595.2 494.4,596.6 C484.5,598.3 484.5,607.1 494.3,606.9 C509.6,606.6 518.2,593.2 523.5,561.2 L525.2,550.9 L524.8,516.5 L524.4,482.2 L528.8,481.5 C537,480.3 554.5,474.9 562.6,471 C571.2,467 573,464.8 571,461 C569.5,458.3 565.5,458.4 558.7,461.5 C552.1,464.5 537,468.5 528.4,469.4 L522.2,470.1 L521.5,468.3 C521.1,467.3 520.6,461 520.3,454.2 L519.7,442 L525.6,435.7 C537.6,423.2 545.9,410.8 548.5,401.6 C550.9,393.3 550.2,381 547,375.3 C542.6,367.4 534.1,362.9 513.5,357.4 C504,354.9 499.1,353 495.4,350.5 C489.3,346.3 485.9,346 483.1,349.6 Z M507.3,464.2 L507.9,470 L497.8,470 C492.2,470 487.9,469.8 488.1,469.6 C488.3,469.4 492.3,466 497,462.2 L505.5,455.1 L506.1,456.8 C506.4,457.7 507,461.1 507.3,464.2 Z"/>
  <path fill="#000000" d="M555,525 C551.9,528.1 552.5,532.2 557,537.8 C559.9,541.6 566.4,546.5 582.2,557.1 C593.9,564.9 606.1,573.5 609.2,576.1 C612.3,578.8 615.7,581 616.8,581 C619.3,581 622,577.9 622,575.1 C622,571.2 605.2,555.7 589.5,545 C581.8,539.8 572.7,532.7 569.2,529.2 C562.2,522.4 558.7,521.3 555,525 Z"/>
  <path fill="#000000" d="M512.5,607.1 C503.7,607.5 489.7,608.3 481.4,608.9 C470.8,609.6 463.7,609.6 457.7,608.9 C448.1,607.7 445.5,608.4 444,612.6 C442.8,615.6 443.6,619.4 445.6,621.1 C448,623.1 459.1,624.9 469,624.9 C474.2,625 486.6,624.3 496.5,623.4 C507.6,622.4 532,621.6 560.2,621.3 L605.9,620.8 L612.6,623.9 C620.5,627.6 623.3,627.8 625.4,624.8 C629.1,619.6 626.6,616 615.5,610.8 L608.5,607.5 L589,606.9 C564.5,606 533.2,606.1 512.5,607.1 Z"/>
</svg>

