<svg xmlns="http://www.w3.org/2000/svg" width="300" height="300" viewBox="0 0 300 300">
<path d="M 104.62 134.69 L 105.59 134.39 C 106.89 133.99 107.61 132.62 107.21 131.33 C 106.82 130.04 105.45 129.31 104.15 129.71 L 103.18 130.01 C 101.89 130.41 101.16 131.78 101.56 133.07 C 101.96 134.36 103.33 135.09 104.62 134.69 Z M 105.60 134.39 L 106.56 134.09 C 107.86 133.69 108.58 132.32 108.18 131.03 C 107.78 129.73 106.41 129.01 105.11 129.41 L 104.15 129.71 C 102.86 130.11 102.13 131.48 102.53 132.78 C 102.93 134.07 104.31 134.79 105.60 134.39 Z M 106.57 134.09 L 107.53 133.79 C 108.82 133.38 109.53 132.01 109.13 130.72 C 108.72 129.43 107.35 128.71 106.06 129.11 L 105.10 129.41 C 103.81 129.82 103.10 131.19 103.50 132.49 C 103.91 133.78 105.28 134.49 106.57 134.09 Z M 107.54 133.78 L 108.47 133.48 C 109.76 133.07 110.47 131.69 110.06 130.40 C 109.64 129.12 108.26 128.41 106.97 128.82 L 106.04 129.12 C 104.75 129.53 104.04 130.91 104.46 132.20 C 104.87 133.49 106.25 134.20 107.54 133.78 Z M 108.49 133.47 L 109.28 133.21 C 110.56 132.79 111.25 131.41 110.83 130.13 C 110.41 128.85 109.03 128.15 107.75 128.57 L 106.96 128.83 C 105.68 129.25 104.98 130.63 105.40 131.92 C 105.82 133.20 107.20 133.89 108.49 133.47 Z M 109.28 133.19 L 110.09 132.93 C 111.36 132.50 112.04 131.12 111.62 129.85 C 111.19 128.58 109.82 127.90 108.55 128.32 L 107.74 128.59 C 106.47 129.01 105.78 130.39 106.21 131.66 C 106.64 132.93 108.01 133.62 109.28 133.19 Z M 110.08 132.91 L 110.98 132.61 C 112.24 132.19 112.92 130.82 112.49 129.56 C 112.07 128.29 110.70 127.61 109.44 128.04 L 108.55 128.34 C 107.29 128.76 106.61 130.13 107.03 131.39 C 107.45 132.65 108.82 133.33 110.08 132.91 Z M 110.97 132.60 L 112.00 132.25 C 113.25 131.83 113.93 130.47 113.51 129.22 C 113.09 127.96 111.73 127.29 110.48 127.71 L 109.45 128.05 C 108.19 128.47 107.51 129.83 107.93 131.08 C 108.35 132.34 109.71 133.02 110.97 132.60 Z M 111.99 132.24 L 113.21 131.84 C 114.46 131.42 115.13 130.07 114.72 128.83 C 114.31 127.58 112.96 126.90 111.71 127.31 L 110.49 127.72 C 109.24 128.13 108.57 129.48 108.98 130.73 C 109.39 131.98 110.74 132.65 111.99 132.24 Z M 113.20 131.83 L 114.04 131.55 C 115.28 131.14 115.96 129.80 115.55 128.56 C 115.14 127.32 113.80 126.64 112.56 127.05 L 111.72 127.32 C 110.48 127.73 109.80 129.07 110.21 130.31 C 110.62 131.56 111.96 132.24 113.20 131.83 Z M 114.03 131.55 L 114.94 131.25 C 116.19 130.84 116.86 129.51 116.46 128.27 C 116.05 127.03 114.72 126.35 113.47 126.75 L 112.56 127.05 C 111.32 127.46 110.65 128.79 111.05 130.03 C 111.46 131.28 112.79 131.95 114.03 131.55 Z M 114.94 131.24 L 115.90 130.93 C 117.14 130.53 117.82 129.19 117.41 127.96 C 117.01 126.72 115.68 126.04 114.44 126.45 L 113.48 126.76 C 112.24 127.16 111.56 128.50 111.97 129.73 C 112.37 130.97 113.70 131.65 114.94 131.24 Z M 115.90 130.93 L 116.89 130.60 C 118.13 130.20 118.80 128.87 118.40 127.63 C 118.00 126.40 116.67 125.72 115.43 126.13 L 114.44 126.45 C 113.20 126.85 112.53 128.18 112.93 129.42 C 113.34 130.65 114.66 131.33 115.90 130.93 Z M 116.89 130.59 L 117.90 130.27 C 119.13 129.86 119.80 128.54 119.40 127.30 C 118.99 126.07 117.67 125.40 116.44 125.80 L 115.43 126.13 C 114.20 126.54 113.53 127.86 113.93 129.09 C 114.33 130.33 115.66 131.00 116.89 130.59 Z M 117.90 130.26 L 118.90 129.93 C 120.13 129.53 120.79 128.20 120.39 126.98 C 119.99 125.75 118.66 125.08 117.44 125.48 L 116.44 125.81 C 115.21 126.21 114.54 127.54 114.94 128.77 C 115.35 129.99 116.67 130.66 117.90 130.26 Z M 118.90 129.92 L 119.88 129.60 C 121.10 129.20 121.76 127.87 121.36 126.65 C 120.95 125.43 119.63 124.76 118.41 125.17 L 117.43 125.49 C 116.21 125.89 115.54 127.22 115.95 128.44 C 116.35 129.66 117.68 130.33 118.90 129.92 Z M 119.88 129.59 L 120.81 129.28 C 122.03 128.88 122.69 127.56 122.28 126.34 C 121.87 125.11 120.56 124.46 119.33 124.86 L 118.40 125.17 C 117.18 125.58 116.52 126.90 116.93 128.12 C 117.34 129.34 118.66 130.00 119.88 129.59 Z M 120.82 129.27 L 121.92 128.90 C 123.13 128.49 123.78 127.17 123.37 125.96 C 122.96 124.74 121.64 124.09 120.43 124.50 L 119.33 124.88 C 118.12 125.29 117.46 126.60 117.88 127.82 C 118.29 129.03 119.60 129.68 120.82 129.27 Z M 121.92 128.88 L 122.98 128.51 C 124.18 128.10 124.82 126.79 124.41 125.59 C 123.99 124.38 122.68 123.74 121.48 124.16 L 120.42 124.52 C 119.22 124.94 118.58 126.25 119.00 127.45 C 119.41 128.65 120.72 129.29 121.92 128.88 Z M 122.98 128.49 L 123.95 128.16 C 125.15 127.74 125.77 126.43 125.36 125.24 C 124.94 124.05 123.63 123.42 122.44 123.84 L 121.47 124.18 C 120.28 124.60 119.65 125.90 120.07 127.09 C 120.49 128.28 121.79 128.91 122.98 128.49 Z M 123.96 128.14 L 124.86 127.82 C 126.04 127.40 126.66 126.10 126.24 124.92 C 125.82 123.74 124.52 123.12 123.34 123.54 L 122.44 123.86 C 121.26 124.28 120.64 125.57 121.06 126.76 C 121.48 127.94 122.78 128.56 123.96 128.14 Z M 124.86 127.80 L 125.71 127.49 C 126.88 127.08 127.49 125.79 127.07 124.61 C 126.65 123.44 125.36 122.83 124.19 123.25 L 123.34 123.56 C 122.17 123.98 121.56 125.27 121.98 126.44 C 122.40 127.61 123.69 128.22 124.86 127.80 Z M 125.71 127.48 L 126.52 127.18 C 127.69 126.77 128.29 125.48 127.87 124.32 C 127.45 123.16 126.17 122.56 125.01 122.97 L 124.19 123.27 C 123.03 123.69 122.43 124.97 122.84 126.13 C 123.26 127.29 124.54 127.90 125.71 127.48 Z M 126.52 127.17 L 127.39 126.86 C 128.54 126.45 129.14 125.17 128.73 124.02 C 128.31 122.86 127.04 122.26 125.89 122.68 L 125.02 122.99 C 123.86 123.40 123.26 124.67 123.68 125.83 C 124.09 126.98 125.36 127.59 126.52 127.17 Z M 127.38 126.85 L 128.28 126.53 C 129.43 126.12 130.03 124.86 129.62 123.71 C 129.21 122.55 127.94 121.95 126.79 122.36 L 125.89 122.68 C 124.74 123.09 124.14 124.36 124.55 125.51 C 124.96 126.66 126.23 127.26 127.38 126.85 Z M 128.26 126.53 L 129.18 126.21 C 130.33 125.81 130.93 124.55 130.53 123.40 C 130.12 122.25 128.86 121.64 127.71 122.05 L 126.80 122.37 C 125.65 122.77 125.05 124.03 125.45 125.18 C 125.86 126.33 127.11 126.93 128.26 126.53 Z M 129.16 126.21 L 130.11 125.88 C 131.25 125.48 131.86 124.23 131.47 123.08 C 131.07 121.94 129.82 121.33 128.67 121.72 L 127.73 122.05 C 126.58 122.45 125.97 123.70 126.37 124.85 C 126.76 125.99 128.01 126.60 129.16 126.21 Z M 130.09 125.88 L 131.08 125.54 C 132.22 125.16 132.84 123.91 132.45 122.77 C 132.06 121.62 130.82 121.00 129.67 121.39 L 128.68 121.73 C 127.54 122.11 126.92 123.36 127.31 124.51 C 127.70 125.65 128.94 126.27 130.09 125.88 Z M 131.06 125.54 L 132.08 125.20 C 133.23 124.83 133.85 123.59 133.47 122.44 C 133.09 121.30 131.85 120.68 130.71 121.06 L 129.69 121.39 C 128.54 121.77 127.92 123.01 128.30 124.16 C 128.68 125.30 129.92 125.92 131.06 125.54 Z M 132.07 125.20 L 133.04 124.89 C 134.18 124.52 134.81 123.29 134.44 122.14 C 134.07 121.00 132.84 120.37 131.70 120.74 L 130.72 121.06 C 129.58 121.43 128.95 122.66 129.32 123.80 C 129.69 124.95 130.92 125.57 132.07 125.20 Z M 133.03 124.88 L 134.03 124.57 C 135.17 124.20 135.80 122.98 135.44 121.83 C 135.07 120.69 133.85 120.06 132.70 120.43 L 131.71 120.74 C 130.56 121.11 129.93 122.33 130.30 123.48 C 130.66 124.62 131.89 125.25 133.03 124.88 Z M 134.02 124.56 L 135.02 124.25 C 136.16 123.89 136.79 122.67 136.43 121.53 C 136.07 120.39 134.85 119.75 133.71 120.11 L 132.71 120.43 C 131.57 120.79 130.94 122.01 131.30 123.15 C 131.66 124.29 132.88 124.92 134.02 124.56 Z M 135.01 124.24 L 135.99 123.94 C 137.13 123.58 137.76 122.37 137.40 121.23 C 137.05 120.09 135.84 119.45 134.70 119.81 L 133.72 120.12 C 132.58 120.47 131.95 121.69 132.30 122.83 C 132.66 123.96 133.87 124.60 135.01 124.24 Z M 135.98 123.93 L 136.91 123.65 C 138.04 123.29 138.68 122.09 138.33 120.95 C 137.97 119.81 136.77 119.17 135.63 119.53 L 134.70 119.82 C 133.56 120.17 132.93 121.38 133.28 122.51 C 133.63 123.65 134.84 124.29 135.98 123.93 Z M 136.90 123.64 L 137.75 123.38 C 138.89 123.03 139.52 121.83 139.17 120.69 C 138.82 119.56 137.62 118.92 136.48 119.27 L 135.63 119.53 C 134.50 119.88 133.86 121.09 134.21 122.22 C 134.56 123.36 135.77 123.99 136.90 123.64 Z M 137.74 123.39 L 139.22 122.94 C 140.36 122.60 141.01 121.40 140.66 120.26 C 140.32 119.12 139.12 118.47 137.98 118.82 L 136.50 119.26 C 135.36 119.61 134.71 120.81 135.06 121.95 C 135.40 123.08 136.60 123.73 137.74 123.39 Z M 139.12 122.98 L 140.06 122.75 C 141.22 122.46 141.92 121.29 141.64 120.13 C 141.35 118.97 140.18 118.26 139.02 118.55 L 138.08 118.78 C 136.92 119.07 136.22 120.24 136.50 121.40 C 136.79 122.56 137.96 123.27 139.12 122.98 Z M 139.09 122.77 L 139.37 122.83 C 140.55 123.07 141.70 122.32 141.94 121.15 C 142.19 119.97 141.43 118.82 140.26 118.58 L 139.98 118.52 C 138.81 118.28 137.66 119.03 137.41 120.20 C 137.17 121.38 137.92 122.53 139.09 122.77 Z M 138.32 119.16 L 137.89 119.58 C 137.03 120.41 137.02 121.77 137.84 122.62 C 138.67 123.47 140.03 123.49 140.88 122.67 L 141.31 122.24 C 142.17 121.42 142.18 120.06 141.36 119.21 C 140.53 118.36 139.17 118.34 138.32 119.16 Z M 138.06 119.49 L 137.15 120.23 C 136.25 120.95 136.10 122.28 136.83 123.18 C 137.56 124.09 138.88 124.23 139.79 123.50 L 140.70 122.76 C 141.61 122.03 141.75 120.71 141.02 119.81 C 140.29 118.90 138.97 118.76 138.06 119.49 Z M 137.09 120.32 L 136.15 121.16 C 135.30 121.92 135.23 123.23 135.99 124.08 C 136.75 124.93 138.05 125.00 138.90 124.24 L 139.84 123.40 C 140.69 122.64 140.77 121.34 140.01 120.49 C 139.25 119.64 137.94 119.56 137.09 120.32 Z M 136.05 121.28 L 135.36 122.00 C 134.57 122.81 134.59 124.11 135.41 124.90 C 136.22 125.68 137.52 125.66 138.31 124.85 L 139.00 124.13 C 139.79 123.31 139.76 122.02 138.95 121.23 C 138.14 120.44 136.84 120.47 136.05 121.28 Z M 135.28 122.09 L 134.61 122.86 C 133.88 123.72 133.97 125.01 134.83 125.75 C 135.69 126.49 136.98 126.39 137.72 125.53 L 138.38 124.76 C 139.12 123.90 139.02 122.61 138.17 121.87 C 137.31 121.13 136.02 121.23 135.28 122.09 Z M 134.55 122.95 L 133.93 123.74 C 133.24 124.64 133.41 125.93 134.30 126.62 C 135.20 127.31 136.48 127.14 137.17 126.25 L 137.79 125.45 C 138.48 124.55 138.31 123.26 137.42 122.57 C 136.52 121.88 135.24 122.05 134.55 122.95 Z M 133.86 123.84 L 133.30 124.66 C 132.66 125.59 132.89 126.86 133.83 127.50 C 134.76 128.14 136.03 127.91 136.67 126.98 L 137.24 126.15 C 137.88 125.22 137.64 123.95 136.71 123.31 C 135.78 122.67 134.50 122.90 133.86 123.84 Z M 133.23 124.77 L 132.68 125.68 C 132.10 126.65 132.42 127.91 133.39 128.49 C 134.36 129.07 135.61 128.75 136.20 127.78 L 136.74 126.87 C 137.32 125.90 137.01 124.64 136.04 124.06 C 135.07 123.48 133.81 123.80 133.23 124.77 Z M 132.61 125.81 L 132.16 126.70 C 131.65 127.71 132.05 128.94 133.06 129.45 C 134.07 129.96 135.30 129.56 135.81 128.55 L 136.26 127.66 C 136.78 126.65 136.37 125.42 135.37 124.91 C 134.36 124.39 133.13 124.80 132.61 125.81 Z M 132.10 126.83 L 131.73 127.71 C 131.29 128.75 131.78 129.95 132.82 130.39 C 133.86 130.83 135.06 130.34 135.50 129.30 L 135.87 128.42 C 136.31 127.38 135.82 126.18 134.78 125.74 C 133.74 125.30 132.54 125.79 132.10 126.83 Z M 131.68 127.84 L 131.39 128.70 C 131.02 129.77 131.59 130.93 132.66 131.30 C 133.73 131.66 134.89 131.09 135.26 130.02 L 135.55 129.17 C 135.91 128.10 135.34 126.94 134.28 126.57 C 133.21 126.21 132.05 126.78 131.68 127.84 Z M 131.35 128.85 L 131.12 129.73 C 130.84 130.82 131.50 131.93 132.58 132.21 C 133.67 132.49 134.78 131.84 135.07 130.75 L 135.29 129.87 C 135.57 128.79 134.92 127.67 133.83 127.39 C 132.74 127.11 131.63 127.76 131.35 128.85 Z M 131.10 129.89 L 130.93 130.85 C 130.74 131.95 131.47 133.00 132.58 133.20 C 133.68 133.39 134.73 132.65 134.92 131.55 L 135.09 130.59 C 135.28 129.48 134.55 128.44 133.44 128.24 C 132.34 128.05 131.29 128.79 131.10 129.89 Z M 130.92 130.99 L 130.81 132.11 C 130.69 133.21 131.49 134.20 132.60 134.32 C 133.71 134.44 134.70 133.63 134.81 132.53 L 134.93 131.41 C 135.05 130.30 134.24 129.31 133.14 129.20 C 132.03 129.08 131.04 129.88 130.92 130.99 Z M 130.81 132.20 L 130.75 133.18 C 130.69 134.29 131.53 135.24 132.64 135.30 C 133.74 135.37 134.69 134.52 134.76 133.42 L 134.81 132.43 C 134.88 131.32 134.03 130.38 132.93 130.31 C 131.82 130.25 130.87 131.09 130.81 132.20 Z M 130.75 133.25 L 130.73 134.23 C 130.70 135.34 131.57 136.26 132.68 136.29 C 133.78 136.31 134.70 135.44 134.73 134.34 L 134.75 133.35 C 134.78 132.25 133.91 131.33 132.80 131.30 C 131.70 131.27 130.78 132.14 130.75 133.25 Z M 130.73 134.29 L 130.74 135.33 C 130.74 136.43 131.64 137.32 132.74 137.31 C 133.84 137.31 134.73 136.41 134.73 135.31 L 134.72 134.28 C 134.72 133.17 133.82 132.28 132.72 132.29 C 131.62 132.29 130.73 133.19 130.73 134.29 Z M 130.74 135.39 L 130.78 136.44 C 130.82 137.54 131.75 138.39 132.85 138.35 C 133.95 138.31 134.80 137.38 134.76 136.28 L 134.72 135.24 C 134.68 134.14 133.75 133.29 132.66 133.33 C 131.56 133.37 130.70 134.30 130.74 135.39 Z M 130.79 136.52 L 130.87 137.53 C 130.96 138.62 131.91 139.44 133.01 139.36 C 134.10 139.27 134.92 138.31 134.83 137.22 L 134.75 136.20 C 134.67 135.11 133.71 134.29 132.62 134.38 C 131.52 134.47 130.71 135.42 130.79 136.52 Z M 130.89 137.64 L 131.03 138.67 C 131.17 139.75 132.17 140.52 133.25 140.37 C 134.34 140.22 135.10 139.23 134.95 138.14 L 134.82 137.11 C 134.67 136.03 133.67 135.27 132.59 135.41 C 131.50 135.56 130.74 136.55 130.89 137.64 Z M 131.05 138.81 L 131.27 139.85 C 131.49 140.92 132.53 141.61 133.60 141.39 C 134.68 141.17 135.36 140.12 135.14 139.05 L 134.93 138.01 C 134.71 136.94 133.66 136.25 132.59 136.47 C 131.52 136.69 130.83 137.74 131.05 138.81 Z M 131.30 139.98 L 131.57 140.94 C 131.86 141.99 132.95 142.60 134.01 142.31 C 135.06 142.02 135.67 140.92 135.38 139.87 L 135.11 138.92 C 134.82 137.86 133.72 137.25 132.67 137.54 C 131.62 137.84 131.01 138.93 131.30 139.98 Z M 131.60 141.05 L 131.91 141.95 C 132.27 142.98 133.39 143.53 134.42 143.18 C 135.45 142.82 136.00 141.70 135.65 140.67 L 135.34 139.77 C 134.99 138.73 133.87 138.18 132.83 138.54 C 131.80 138.89 131.25 140.01 131.60 141.05 Z M 131.94 142.02 L 132.28 142.89 C 132.67 143.91 133.81 144.41 134.83 144.02 C 135.85 143.63 136.35 142.48 135.96 141.47 L 135.62 140.60 C 135.23 139.58 134.09 139.07 133.07 139.46 C 132.05 139.86 131.55 141.00 131.94 142.02 Z M 132.29 142.93 L 132.67 143.87 C 133.08 144.88 134.24 145.36 135.25 144.95 C 136.26 144.53 136.75 143.38 136.33 142.37 L 135.95 141.43 C 135.53 140.42 134.38 139.93 133.37 140.35 C 132.36 140.76 131.87 141.92 132.29 142.93 Z M 132.67 143.90 L 133.07 144.83 C 133.50 145.84 134.67 146.31 135.68 145.88 C 136.69 145.44 137.16 144.27 136.73 143.26 L 136.33 142.33 C 135.90 141.32 134.73 140.85 133.72 141.29 C 132.71 141.72 132.24 142.89 132.67 143.90 Z M 133.07 144.86 L 133.48 145.78 C 133.93 146.78 135.12 147.24 136.13 146.79 C 137.13 146.33 137.59 145.15 137.14 144.14 L 136.73 143.23 C 136.28 142.22 135.09 141.77 134.08 142.22 C 133.08 142.67 132.62 143.85 133.07 144.86 Z M 133.49 145.81 L 133.90 146.69 C 134.37 147.70 135.56 148.14 136.57 147.67 C 137.58 147.20 138.01 146.00 137.54 144.99 L 137.13 144.11 C 136.66 143.10 135.47 142.67 134.46 143.14 C 133.45 143.61 133.02 144.80 133.49 145.81 Z M 133.90 146.73 L 134.35 147.66 C 134.84 148.67 136.05 149.09 137.06 148.60 C 138.07 148.11 138.49 146.90 138.00 145.89 L 137.55 144.96 C 137.06 143.95 135.84 143.53 134.84 144.02 C 133.83 144.51 133.41 145.72 133.90 146.73 Z M 134.34 147.69 L 134.79 148.60 C 135.30 149.61 136.53 150.02 137.54 149.51 C 138.55 149.01 138.96 147.78 138.46 146.76 L 138.01 145.86 C 137.50 144.85 136.27 144.44 135.26 144.94 C 134.25 145.45 133.84 146.68 134.34 147.69 Z M 134.78 148.61 L 135.22 149.49 C 135.73 150.51 136.98 150.92 138.00 150.41 C 139.02 149.89 139.43 148.65 138.92 147.63 L 138.48 146.75 C 137.96 145.73 136.72 145.32 135.70 145.83 C 134.68 146.35 134.26 147.59 134.78 148.61 Z M 135.19 149.48 L 135.62 150.35 C 136.13 151.39 137.39 151.82 138.42 151.31 C 139.46 150.79 139.88 149.54 139.37 148.50 L 138.94 147.63 C 138.43 146.60 137.18 146.17 136.14 146.68 C 135.11 147.19 134.68 148.45 135.19 149.48 Z M 135.58 150.33 L 136.01 151.25 C 136.51 152.31 137.77 152.76 138.83 152.26 C 139.89 151.76 140.34 150.50 139.84 149.44 L 139.41 148.53 C 138.91 147.47 137.65 147.01 136.59 147.51 C 135.53 148.01 135.08 149.27 135.58 150.33 Z M 135.96 151.22 L 136.37 152.13 C 136.85 153.21 138.12 153.70 139.21 153.22 C 140.29 152.74 140.78 151.47 140.30 150.38 L 139.89 149.47 C 139.41 148.39 138.14 147.90 137.05 148.38 C 135.97 148.86 135.48 150.13 135.96 151.22 Z M 136.32 152.09 L 136.70 153.00 C 137.16 154.12 138.43 154.64 139.55 154.18 C 140.66 153.72 141.19 152.45 140.73 151.33 L 140.35 150.42 C 139.89 149.31 138.61 148.78 137.50 149.24 C 136.39 149.70 135.86 150.98 136.32 152.09 Z M 136.64 152.95 L 136.97 153.83 C 137.41 154.98 138.69 155.56 139.83 155.12 C 140.98 154.69 141.55 153.41 141.12 152.26 L 140.79 151.38 C 140.35 150.24 139.07 149.66 137.93 150.10 C 136.78 150.53 136.20 151.81 136.64 152.95 Z M 136.89 153.73 L 137.18 154.64 C 137.56 155.83 138.83 156.49 140.02 156.11 C 141.21 155.73 141.87 154.46 141.49 153.27 L 141.20 152.36 C 140.82 151.17 139.55 150.51 138.36 150.89 C 137.17 151.27 136.51 152.54 136.89 153.73 Z M 137.08 154.47 L 137.31 155.46 C 137.60 156.70 138.83 157.48 140.08 157.19 C 141.32 156.91 142.10 155.67 141.81 154.42 L 141.59 153.44 C 141.30 152.20 140.06 151.42 138.82 151.71 C 137.57 151.99 136.80 153.23 137.08 154.47 Z M 137.22 155.25 L 137.37 156.33 C 137.53 157.62 138.72 158.53 140.01 158.36 C 141.30 158.19 142.21 157.01 142.04 155.72 L 141.90 154.64 C 141.73 153.35 140.55 152.44 139.26 152.60 C 137.97 152.77 137.06 153.96 137.22 155.25 Z M 137.31 156.11 L 137.34 157.18 C 137.39 158.50 138.51 159.54 139.83 159.49 C 141.15 159.44 142.19 158.33 142.14 157.00 L 142.10 155.94 C 142.05 154.61 140.94 153.58 139.61 153.63 C 138.29 153.68 137.26 154.79 137.31 156.11 Z M 137.31 156.94 L 137.24 158.01 C 137.16 159.36 138.19 160.51 139.53 160.59 C 140.87 160.68 142.03 159.65 142.11 158.31 L 142.17 157.24 C 142.25 155.89 141.23 154.74 139.89 154.66 C 138.54 154.58 137.39 155.60 137.31 156.94 Z M 137.25 157.69 L 137.06 158.67 C 136.80 160.01 137.67 161.31 139.02 161.57 C 140.36 161.83 141.66 160.95 141.92 159.61 L 142.11 158.63 C 142.37 157.29 141.49 155.99 140.15 155.73 C 138.80 155.47 137.51 156.35 137.25 157.69 Z M 137.17 158.16 L 136.84 158.95 C 136.29 160.23 136.89 161.70 138.17 162.25 C 139.45 162.79 140.92 162.19 141.47 160.91 L 141.80 160.12 C 142.34 158.85 141.75 157.37 140.47 156.83 C 139.19 156.28 137.72 156.88 137.17 158.16 Z M 137.42 158.08 L 136.72 158.73 C 135.70 159.69 135.65 161.29 136.60 162.31 C 137.56 163.34 139.16 163.39 140.19 162.43 L 140.88 161.78 C 141.91 160.83 141.96 159.22 141.00 158.20 C 140.05 157.18 138.44 157.12 137.42 158.08 Z M 137.71 158.16 L 136.79 158.44 C 135.45 158.85 134.70 160.27 135.11 161.61 C 135.53 162.95 136.94 163.70 138.28 163.29 L 139.20 163.01 C 140.54 162.59 141.29 161.17 140.88 159.84 C 140.47 158.50 139.05 157.75 137.71 158.16 Z M 137.35 158.34 L 136.33 158.41 C 134.93 158.51 133.88 159.73 133.99 161.12 C 134.09 162.52 135.30 163.57 136.70 163.47 L 137.72 163.39 C 139.12 163.29 140.17 162.08 140.07 160.68 C 139.96 159.28 138.75 158.23 137.35 158.34 Z M 136.48 158.41 L 135.47 158.43 C 134.08 158.45 132.96 159.60 132.98 160.99 C 133.01 162.39 134.15 163.50 135.55 163.48 L 136.55 163.47 C 137.95 163.45 139.06 162.30 139.04 160.90 C 139.02 159.51 137.87 158.39 136.48 158.41 Z M 135.58 158.45 L 134.59 158.42 C 133.20 158.38 132.05 159.47 132.01 160.86 C 131.97 162.24 133.06 163.40 134.45 163.44 L 135.44 163.46 C 136.83 163.50 137.98 162.41 138.02 161.02 C 138.06 159.64 136.97 158.48 135.58 158.45 Z M 134.77 158.45 L 133.77 158.35 C 132.40 158.21 131.18 159.21 131.04 160.58 C 130.91 161.95 131.90 163.17 133.27 163.31 L 134.27 163.41 C 135.64 163.54 136.86 162.54 137.00 161.18 C 137.14 159.81 136.14 158.58 134.77 158.45 Z M 133.99 158.41 L 133.12 158.24 C 131.78 157.99 130.49 158.86 130.24 160.20 C 129.98 161.53 130.86 162.82 132.19 163.08 L 133.06 163.25 C 134.40 163.50 135.69 162.63 135.94 161.29 C 136.20 159.95 135.32 158.66 133.99 158.41 Z M 133.32 158.33 L 132.46 158.09 C 131.17 157.72 129.83 158.46 129.46 159.75 C 129.10 161.03 129.84 162.38 131.13 162.74 L 131.99 162.99 C 133.28 163.36 134.62 162.61 134.99 161.33 C 135.35 160.04 134.61 158.70 133.32 158.33 Z M 132.63 158.19 L 131.68 157.83 C 130.45 157.37 129.08 157.99 128.62 159.22 C 128.16 160.45 128.78 161.82 130.01 162.29 L 130.96 162.64 C 132.19 163.10 133.56 162.48 134.02 161.25 C 134.48 160.02 133.86 158.65 132.63 158.19 Z M 131.81 157.93 L 130.74 157.45 C 129.56 156.91 128.18 157.44 127.65 158.61 C 127.11 159.79 127.64 161.17 128.81 161.70 L 129.88 162.19 C 131.06 162.72 132.44 162.20 132.97 161.02 C 133.51 159.85 132.98 158.46 131.81 157.93 Z M 130.80 157.53 L 129.93 157.09 C 128.80 156.52 127.43 156.98 126.86 158.10 C 126.29 159.23 126.74 160.61 127.87 161.17 L 128.74 161.61 C 129.87 162.18 131.25 161.73 131.81 160.60 C 132.38 159.48 131.93 158.10 130.80 157.53 Z M 129.96 157.17 L 129.07 156.69 C 127.99 156.11 126.63 156.51 126.05 157.60 C 125.46 158.69 125.87 160.04 126.96 160.62 L 127.84 161.10 C 128.93 161.68 130.28 161.28 130.87 160.19 C 131.45 159.10 131.04 157.75 129.96 157.17 Z M 129.09 156.76 L 128.18 156.25 C 127.13 155.66 125.80 156.03 125.21 157.07 C 124.62 158.12 124.99 159.45 126.04 160.04 L 126.94 160.55 C 127.99 161.15 129.32 160.78 129.91 159.73 C 130.50 158.68 130.13 157.35 129.09 156.76 Z M 128.19 156.32 L 127.29 155.79 C 126.28 155.19 124.98 155.52 124.38 156.53 C 123.79 157.54 124.12 158.85 125.13 159.44 L 126.03 159.97 C 127.04 160.57 128.34 160.24 128.94 159.23 C 129.53 158.22 129.20 156.91 128.19 156.32 Z M 127.30 155.85 L 126.44 155.32 C 125.47 154.72 124.19 155.02 123.59 156.00 C 122.99 156.97 123.29 158.24 124.26 158.85 L 125.12 159.38 C 126.09 159.98 127.37 159.67 127.97 158.70 C 128.57 157.73 128.27 156.45 127.30 155.85 Z M 126.45 155.40 L 125.62 154.86 C 124.69 154.25 123.44 154.51 122.84 155.45 C 122.23 156.38 122.49 157.62 123.42 158.23 L 124.25 158.77 C 125.19 159.38 126.43 159.11 127.04 158.18 C 127.65 157.25 127.38 156.00 126.45 155.40 Z M 125.64 154.95 L 124.77 154.34 C 123.89 153.72 122.68 153.94 122.06 154.82 C 121.44 155.69 121.66 156.91 122.54 157.53 L 123.40 158.14 C 124.28 158.75 125.50 158.54 126.11 157.66 C 126.73 156.78 126.52 155.57 125.64 154.95 Z M 124.80 154.46 L 124.03 153.86 C 123.22 153.23 122.04 153.37 121.41 154.19 C 120.77 155.00 120.92 156.18 121.74 156.81 L 122.51 157.41 C 123.32 158.04 124.50 157.90 125.13 157.08 C 125.76 156.27 125.62 155.09 124.80 154.46 Z M 124.06 153.98 L 123.35 153.36 C 122.60 152.71 121.47 152.79 120.82 153.54 C 120.17 154.28 120.25 155.42 120.99 156.07 L 121.71 156.69 C 122.45 157.34 123.59 157.26 124.24 156.51 C 124.89 155.76 124.81 154.63 124.06 153.98 Z M 123.36 153.48 L 122.66 152.80 C 121.97 152.14 120.89 152.16 120.23 152.84 C 119.57 153.53 119.59 154.61 120.27 155.27 L 120.98 155.95 C 121.66 156.61 122.75 156.59 123.41 155.91 C 124.07 155.22 124.05 154.13 123.36 153.48 Z M 122.67 152.88 L 122.02 152.21 C 121.38 151.55 120.33 151.53 119.66 152.17 C 119.00 152.81 118.98 153.86 119.62 154.53 L 120.26 155.19 C 120.90 155.86 121.96 155.88 122.62 155.24 C 123.29 154.60 123.31 153.54 122.67 152.88 Z M 122.04 152.25 L 121.40 151.55 C 120.78 150.87 119.73 150.83 119.06 151.45 C 118.38 152.07 118.34 153.12 118.96 153.79 L 119.60 154.49 C 120.22 155.16 121.27 155.21 121.94 154.59 C 122.62 153.97 122.66 152.92 122.04 152.25 Z M 121.41 151.57 L 120.75 150.82 C 120.14 150.14 119.10 150.08 118.42 150.69 C 117.73 151.29 117.67 152.34 118.28 153.02 L 118.95 153.77 C 119.55 154.45 120.60 154.51 121.28 153.90 C 121.96 153.29 122.02 152.25 121.41 151.57 Z M 120.75 150.84 L 120.07 150.06 C 119.48 149.37 118.44 149.30 117.75 149.90 C 117.07 150.50 116.99 151.54 117.59 152.22 L 118.27 153.00 C 118.87 153.69 119.91 153.76 120.60 153.16 C 121.28 152.56 121.35 151.52 120.75 150.84 Z M 120.08 150.07 L 119.39 149.27 C 118.79 148.58 117.76 148.50 117.07 149.10 C 116.38 149.69 116.31 150.72 116.90 151.41 L 117.59 152.21 C 118.18 152.90 119.22 152.98 119.90 152.39 C 120.59 151.79 120.67 150.76 120.08 150.07 Z M 119.39 149.27 L 119.00 148.82 C 118.41 148.14 117.38 148.06 116.69 148.65 C 116.00 149.24 115.92 150.27 116.51 150.96 L 116.90 151.41 C 117.49 152.09 118.52 152.17 119.21 151.58 C 119.90 150.99 119.98 149.96 119.39 149.27 Z"
      fill="black"
      fill-rule="nonzero" /><path d="M 115.26 137.12 L 115.26 138.03 C 115.26 139.32 116.31 140.37 117.60 140.37 C 118.90 140.37 119.94 139.32 119.94 138.03 L 119.94 137.12 C 119.94 135.83 118.89 134.78 117.60 134.78 C 116.31 134.78 115.26 135.83 115.26 137.12 Z M 115.23 138.03 L 115.23 138.97 C 115.23 140.28 116.30 141.34 117.61 141.34 C 118.92 141.34 119.98 140.27 119.98 138.96 L 119.98 138.02 C 119.98 136.71 118.91 135.65 117.60 135.65 C 116.29 135.66 115.22 136.72 115.23 138.03 Z M 115.19 138.98 L 115.20 139.97 C 115.21 141.30 116.29 142.37 117.62 142.37 C 118.95 142.36 120.03 141.27 120.02 139.94 L 120.01 138.95 C 120.01 137.62 118.92 136.55 117.59 136.56 C 116.26 136.56 115.19 137.65 115.19 138.98 Z M 115.17 139.98 L 115.18 141.05 C 115.19 142.40 116.29 143.48 117.64 143.47 C 118.99 143.46 120.08 142.35 120.06 141.01 L 120.05 139.93 C 120.04 138.58 118.94 137.50 117.59 137.51 C 116.24 137.52 115.15 138.63 115.17 139.98 Z M 115.15 141.06 L 115.16 142.13 C 115.18 143.50 116.30 144.59 117.67 144.57 C 119.03 144.55 120.12 143.43 120.10 142.07 L 120.09 140.99 C 120.07 139.63 118.95 138.54 117.59 138.56 C 116.22 138.58 115.13 139.70 115.15 141.06 Z M 115.16 142.14 L 115.18 143.14 C 115.20 144.51 116.33 145.60 117.69 145.58 C 119.06 145.55 120.15 144.43 120.13 143.06 L 120.11 142.06 C 120.09 140.69 118.96 139.60 117.59 139.63 C 116.22 139.65 115.14 140.78 115.16 142.14 Z M 115.18 143.15 L 115.20 144.18 C 115.23 145.55 116.36 146.63 117.72 146.60 C 119.08 146.58 120.17 145.45 120.14 144.09 L 120.12 143.05 C 120.09 141.69 118.97 140.60 117.60 140.63 C 116.24 140.66 115.15 141.79 115.18 143.15 Z M 115.21 144.19 L 115.23 145.23 C 115.26 146.59 116.39 147.67 117.75 147.64 C 119.11 147.61 120.19 146.48 120.16 145.12 L 120.13 144.08 C 120.10 142.72 118.98 141.64 117.62 141.67 C 116.26 141.70 115.18 142.83 115.21 144.19 Z M 115.24 145.24 L 115.26 146.25 C 115.30 147.61 116.42 148.68 117.78 148.65 C 119.14 148.61 120.21 147.49 120.18 146.13 L 120.15 145.12 C 120.12 143.76 118.99 142.69 117.63 142.72 C 116.28 142.75 115.21 143.88 115.24 145.24 Z M 115.27 146.26 L 115.30 147.22 C 115.33 148.57 116.46 149.64 117.81 149.60 C 119.17 149.57 120.23 148.44 120.20 147.09 L 120.17 146.13 C 120.13 144.77 119.01 143.71 117.65 143.74 C 116.30 143.78 115.23 144.91 115.27 146.26 Z M 115.31 147.23 L 115.34 148.31 C 115.38 149.65 116.51 150.71 117.85 150.67 C 119.20 150.63 120.26 149.50 120.22 148.16 L 120.18 147.08 C 120.14 145.73 119.02 144.67 117.67 144.72 C 116.33 144.76 115.27 145.88 115.31 147.23 Z M 115.36 148.31 L 115.39 149.38 C 115.44 150.71 116.56 151.76 117.90 151.72 C 119.23 151.67 120.28 150.55 120.23 149.22 L 120.20 148.15 C 120.15 146.81 119.03 145.77 117.70 145.81 C 116.36 145.86 115.31 146.98 115.36 148.31 Z M 115.42 149.38 L 115.45 150.34 C 115.49 151.66 116.60 152.70 117.93 152.66 C 119.25 152.61 120.29 151.50 120.25 150.18 L 120.21 149.22 C 120.17 147.89 119.06 146.85 117.73 146.90 C 116.41 146.94 115.37 148.05 115.42 149.38 Z M 115.47 150.33 L 115.49 151.24 C 115.53 152.55 116.63 153.59 117.94 153.55 C 119.26 153.51 120.29 152.41 120.25 151.10 L 120.23 150.19 C 120.19 148.88 119.09 147.84 117.78 147.88 C 116.46 147.92 115.43 149.01 115.47 150.33 Z M 115.51 151.22 L 115.53 152.13 C 115.56 153.44 116.64 154.47 117.94 154.44 C 119.25 154.42 120.28 153.34 120.25 152.03 L 120.23 151.12 C 120.21 149.82 119.13 148.78 117.82 148.81 C 116.52 148.83 115.49 149.91 115.51 151.22 Z M 115.54 152.11 L 115.56 153.07 C 115.57 154.37 116.64 155.40 117.93 155.39 C 119.23 155.37 120.27 154.30 120.25 153.01 L 120.24 152.05 C 120.22 150.76 119.16 149.72 117.86 149.74 C 116.57 149.75 115.53 150.82 115.54 152.11 Z M 115.57 153.06 L 115.58 154.05 C 115.59 155.34 116.65 156.38 117.94 156.37 C 119.23 156.36 120.27 155.30 120.25 154.01 L 120.24 153.02 C 120.23 151.72 119.17 150.69 117.88 150.70 C 116.59 150.71 115.55 151.77 115.57 153.06 Z M 115.59 154.06 L 115.60 155.09 C 115.61 156.38 116.67 157.41 117.95 157.40 C 119.24 157.38 120.27 156.33 120.25 155.04 L 120.24 154.00 C 120.23 152.72 119.17 151.69 117.89 151.70 C 116.60 151.72 115.57 152.77 115.59 154.06 Z M 115.61 155.10 L 115.62 156.13 C 115.64 157.41 116.70 158.43 117.98 158.41 C 119.26 158.39 120.28 157.34 120.26 156.06 L 120.24 155.03 C 120.22 153.75 119.17 152.73 117.89 152.75 C 116.61 152.77 115.59 153.82 115.61 155.10 Z M 115.63 156.14 L 115.65 157.12 C 115.68 158.39 116.74 159.40 118.01 159.38 C 119.29 159.35 120.30 158.29 120.27 157.02 L 120.25 156.05 C 120.22 154.77 119.17 153.76 117.89 153.79 C 116.62 153.81 115.61 154.87 115.63 156.14 Z M 115.66 157.12 L 115.69 158.12 C 115.72 159.39 116.77 160.40 118.04 160.37 C 119.31 160.34 120.32 159.28 120.29 158.01 L 120.26 157.01 C 120.23 155.74 119.18 154.74 117.91 154.77 C 116.64 154.80 115.63 155.85 115.66 157.12 Z M 115.70 158.12 L 115.72 159.14 C 115.75 160.40 116.80 161.40 118.06 161.37 C 119.33 161.34 120.33 160.29 120.30 159.03 L 120.28 158.01 C 120.25 156.75 119.20 155.75 117.93 155.78 C 116.67 155.80 115.67 156.85 115.70 158.12 Z M 115.73 159.13 L 115.75 160.15 C 115.78 161.41 116.82 162.41 118.08 162.39 C 119.34 162.36 120.34 161.32 120.31 160.06 L 120.29 159.04 C 120.27 157.78 119.22 156.77 117.96 156.80 C 116.70 156.83 115.70 157.87 115.73 159.13 Z M 115.76 160.14 L 115.78 161.15 C 115.79 162.40 116.83 163.40 118.08 163.38 C 119.34 163.36 120.34 162.33 120.32 161.08 L 120.30 160.07 C 120.28 158.82 119.25 157.82 118.00 157.83 C 116.74 157.85 115.74 158.89 115.76 160.14 Z M 115.79 161.13 L 115.80 162.13 C 115.81 163.38 116.83 164.38 118.08 164.37 C 119.32 164.35 120.33 163.33 120.31 162.09 L 120.30 161.09 C 120.29 159.84 119.27 158.84 118.03 158.85 C 116.78 158.87 115.78 159.89 115.79 161.13 Z M 115.81 162.12 L 115.82 163.11 C 115.83 164.35 116.83 165.35 118.07 165.35 C 119.31 165.34 120.31 164.33 120.30 163.09 L 120.30 162.10 C 120.29 160.86 119.28 159.86 118.05 159.87 C 116.81 159.87 115.81 160.88 115.81 162.12 Z M 115.83 163.11 L 115.84 164.11 C 115.84 165.34 116.84 166.33 118.07 166.33 C 119.30 166.33 120.29 165.33 120.29 164.10 L 120.29 163.10 C 120.29 161.87 119.29 160.87 118.06 160.88 C 116.83 160.88 115.83 161.88 115.83 163.11 Z M 115.85 164.10 L 115.85 165.11 C 115.85 166.33 116.84 167.32 118.07 167.32 C 119.29 167.32 120.28 166.33 120.28 165.11 L 120.28 164.10 C 120.28 162.88 119.28 161.89 118.06 161.89 C 116.84 161.89 115.85 162.88 115.85 164.10 Z M 115.87 165.11 L 115.87 166.10 C 115.87 167.31 116.85 168.29 118.06 168.29 C 119.28 168.29 120.26 167.31 120.26 166.10 L 120.26 165.11 C 120.26 163.90 119.28 162.91 118.06 162.91 C 116.85 162.91 115.87 163.90 115.87 165.11 Z M 115.88 166.10 L 115.88 167.09 C 115.88 168.29 116.86 169.27 118.06 169.27 C 119.27 169.27 120.24 168.29 120.24 167.09 L 120.24 166.10 C 120.24 164.89 119.27 163.92 118.06 163.92 C 116.86 163.92 115.88 164.89 115.88 166.10 Z M 115.90 167.09 L 115.90 168.09 C 115.90 169.28 116.87 170.25 118.06 170.25 C 119.26 170.25 120.23 169.28 120.23 168.09 L 120.23 167.09 C 120.23 165.89 119.26 164.92 118.06 164.92 C 116.87 164.92 115.90 165.89 115.90 167.09 Z M 115.92 168.09 L 115.92 169.09 C 115.92 170.28 116.88 171.24 118.06 171.24 C 119.25 171.24 120.21 170.28 120.21 169.09 L 120.21 168.09 C 120.21 166.90 119.25 165.94 118.06 165.94 C 116.88 165.94 115.92 166.90 115.92 168.09 Z M 115.93 169.09 L 115.93 170.11 C 115.93 171.29 116.89 172.24 118.06 172.24 C 119.24 172.24 120.20 171.29 120.20 170.11 L 120.20 169.09 C 120.20 167.92 119.24 166.96 118.06 166.96 C 116.89 166.96 115.93 167.92 115.93 169.09 Z M 115.95 170.11 L 115.95 171.11 C 115.95 172.28 116.90 173.23 118.06 173.23 C 119.23 173.23 120.18 172.28 120.18 171.11 L 120.18 170.11 C 120.18 168.94 119.23 167.99 118.06 167.99 C 116.90 167.99 115.95 168.94 115.95 170.11 Z M 115.97 171.11 L 115.97 172.11 C 115.97 173.27 116.91 174.21 118.06 174.21 C 119.22 174.21 120.16 173.27 120.16 172.11 L 120.16 171.11 C 120.16 169.95 119.22 169.02 118.06 169.02 C 116.91 169.02 115.97 169.95 115.97 171.11 Z M 115.99 172.11 L 115.99 173.11 C 115.99 174.26 116.92 175.19 118.06 175.19 C 119.21 175.19 120.14 174.26 120.14 173.11 L 120.14 172.11 C 120.14 170.97 119.21 170.04 118.06 170.04 C 116.92 170.04 115.99 170.97 115.99 172.11 Z M 116.01 173.11 L 116.01 174.12 C 116.01 175.25 116.93 176.17 118.06 176.17 C 119.20 176.17 120.12 175.25 120.12 174.12 L 120.12 173.11 C 120.12 171.98 119.20 171.06 118.06 171.06 C 116.93 171.06 116.01 171.98 116.01 173.11 Z M 116.03 174.12 L 116.03 175.12 C 116.03 176.24 116.94 177.15 118.06 177.15 C 119.19 177.15 120.10 176.24 120.10 175.12 L 120.10 174.12 C 120.10 172.99 119.19 172.08 118.06 172.08 C 116.94 172.08 116.03 172.99 116.03 174.12 Z M 116.05 175.12 L 116.05 176.12 C 116.05 177.23 116.95 178.13 118.06 178.13 C 119.17 178.13 120.08 177.23 120.08 176.12 L 120.08 175.12 C 120.08 174.00 119.17 173.10 118.06 173.10 C 116.95 173.10 116.05 174.00 116.05 175.12 Z M 116.07 176.12 L 116.07 177.13 C 116.07 178.23 116.96 179.12 118.06 179.12 C 119.16 179.12 120.05 178.23 120.05 177.13 L 120.05 176.12 C 120.05 175.02 119.16 174.13 118.06 174.13 C 116.96 174.13 116.07 175.02 116.07 176.12 Z M 116.09 177.13 L 116.09 178.13 C 116.09 179.22 116.98 180.10 118.06 180.10 C 119.15 180.10 120.03 179.22 120.03 178.13 L 120.03 177.13 C 120.03 176.04 119.15 175.16 118.06 175.16 C 116.98 175.16 116.09 176.04 116.09 177.13 Z M 116.12 178.13 L 116.12 179.13 C 116.12 180.21 116.99 181.08 118.06 181.08 C 119.14 181.08 120.01 180.21 120.01 179.13 L 120.01 178.13 C 120.01 177.06 119.14 176.18 118.06 176.18 C 116.99 176.18 116.12 177.06 116.12 178.13 Z M 116.14 179.13 L 116.14 180.12 C 116.14 181.19 117.00 182.05 118.06 182.05 C 119.13 182.05 119.99 181.19 119.99 180.12 L 119.99 179.13 C 119.99 178.07 119.13 177.20 118.06 177.20 C 117.00 177.20 116.14 178.07 116.14 179.13 Z M 116.16 180.12 L 116.16 181.12 C 116.16 182.17 117.01 183.02 118.06 183.02 C 119.12 183.02 119.97 182.17 119.97 181.12 L 119.97 180.12 C 119.97 179.07 119.12 178.21 118.06 178.21 C 117.01 178.21 116.16 179.07 116.16 180.12 Z M 116.18 181.12 L 116.18 182.12 C 116.18 183.16 117.02 184.00 118.06 184.00 C 119.11 184.00 119.95 183.16 119.95 182.12 L 119.95 181.12 C 119.95 180.07 119.11 179.23 118.06 179.23 C 117.02 179.23 116.18 180.07 116.18 181.12 Z M 116.20 182.12 L 116.20 183.11 C 116.20 184.14 117.03 184.98 118.06 184.98 C 119.09 184.98 119.93 184.14 119.93 183.11 L 119.93 182.12 C 119.93 181.09 119.09 180.25 118.06 180.25 C 117.03 180.25 116.20 181.09 116.20 182.12 Z M 116.22 183.11 L 116.22 184.11 C 116.22 185.13 117.05 185.96 118.06 185.96 C 119.08 185.96 119.91 185.13 119.91 184.11 L 119.91 183.11 C 119.91 182.10 119.08 181.27 118.06 181.27 C 117.05 181.27 116.22 182.10 116.22 183.11 Z M 116.24 184.11 L 116.24 185.11 C 116.24 186.12 117.06 186.93 118.06 186.93 C 119.07 186.93 119.89 186.12 119.89 185.11 L 119.89 184.11 C 119.89 183.10 119.07 182.29 118.06 182.29 C 117.06 182.29 116.24 183.10 116.24 184.11 Z M 116.26 185.11 L 116.26 186.13 C 116.26 187.13 117.07 187.94 118.06 187.94 C 119.06 187.94 119.87 187.13 119.87 186.13 L 119.87 185.11 C 119.87 184.12 119.06 183.31 118.06 183.31 C 117.07 183.31 116.26 184.12 116.26 185.11 Z M 116.28 186.13 L 116.28 187.17 C 116.28 188.15 117.08 188.95 118.06 188.95 C 119.05 188.95 119.85 188.15 119.85 187.17 L 119.85 186.13 C 119.85 185.15 119.05 184.35 118.06 184.35 C 117.08 184.35 116.28 185.15 116.28 186.13 Z M 116.30 187.17 L 116.30 188.19 C 116.30 189.17 117.09 189.96 118.06 189.96 C 119.04 189.96 119.83 189.17 119.83 188.19 L 119.83 187.17 C 119.83 186.19 119.04 185.40 118.06 185.40 C 117.09 185.40 116.30 186.19 116.30 187.17 Z M 116.32 188.19 L 116.32 189.19 C 116.32 190.15 117.10 190.93 118.06 190.93 C 119.03 190.93 119.81 190.15 119.81 189.19 L 119.81 188.19 C 119.81 187.23 119.03 186.44 118.06 186.44 C 117.10 186.44 116.32 187.23 116.32 188.19 Z M 116.33 189.19 L 116.33 190.14 C 116.33 191.10 117.11 191.87 118.06 191.87 C 119.02 191.87 119.79 191.10 119.79 190.14 L 119.79 189.19 C 119.79 188.23 119.02 187.46 118.06 187.46 C 117.11 187.46 116.33 188.23 116.33 189.19 Z M 116.35 190.14 L 116.35 191.19 C 116.35 192.13 117.12 192.90 118.06 192.90 C 119.01 192.90 119.78 192.13 119.78 191.19 L 119.78 190.14 C 119.78 189.19 119.01 188.43 118.06 188.43 C 117.12 188.43 116.35 189.19 116.35 190.14 Z M 116.36 191.19 L 116.36 192.23 C 116.36 193.17 117.13 193.93 118.06 193.93 C 119.00 193.93 119.76 193.17 119.76 192.23 L 119.76 191.19 C 119.76 190.25 119.00 189.49 118.06 189.49 C 117.13 189.49 116.36 190.25 116.36 191.19 Z M 116.38 192.23 L 116.38 193.20 C 116.38 194.14 117.13 194.89 118.06 194.89 C 119.00 194.89 119.75 194.14 119.75 193.20 L 119.75 192.23 C 119.75 191.30 119.00 190.54 118.06 190.54 C 117.13 190.54 116.38 191.30 116.38 192.23 Z M 116.39 193.20 L 116.39 194.13 C 116.39 195.05 117.14 195.80 118.06 195.80 C 118.99 195.80 119.74 195.05 119.74 194.13 L 119.74 193.20 C 119.74 192.28 118.99 191.53 118.06 191.53 C 117.14 191.53 116.39 192.28 116.39 193.20 Z M 116.40 194.13 L 116.41 195.03 C 116.41 195.95 117.15 196.69 118.07 196.69 C 118.99 196.69 119.73 195.94 119.73 195.02 L 119.72 194.13 C 119.72 193.21 118.98 192.47 118.06 192.47 C 117.14 192.47 116.40 193.22 116.40 194.13 Z M 116.41 195.07 L 116.43 195.99 C 116.45 196.90 117.21 197.62 118.12 197.60 C 119.04 197.58 119.76 196.83 119.74 195.91 L 119.72 194.99 C 119.70 194.08 118.94 193.35 118.03 193.38 C 117.12 193.40 116.39 194.15 116.41 195.07 Z M 116.44 196.05 L 116.50 197.05 C 116.56 197.96 117.34 198.65 118.25 198.60 C 119.15 198.54 119.85 197.76 119.79 196.85 L 119.73 195.85 C 119.68 194.94 118.90 194.25 117.99 194.30 C 117.08 194.36 116.39 195.14 116.44 196.05 Z M 116.52 197.13 L 116.64 198.28 C 116.73 199.18 117.54 199.83 118.44 199.74 C 119.34 199.64 120.00 198.83 119.90 197.93 L 119.78 196.78 C 119.68 195.88 118.87 195.23 117.97 195.32 C 117.07 195.42 116.42 196.23 116.52 197.13 Z M 116.65 198.33 L 116.77 199.19 C 116.90 200.08 117.73 200.70 118.62 200.58 C 119.52 200.45 120.14 199.62 120.01 198.72 L 119.89 197.87 C 119.76 196.98 118.93 196.35 118.04 196.48 C 117.14 196.61 116.52 197.44 116.65 198.33 Z M 116.78 199.22 L 116.93 200.15 C 117.07 201.04 117.91 201.64 118.81 201.50 C 119.70 201.35 120.30 200.51 120.16 199.62 L 120.01 198.69 C 119.86 197.80 119.02 197.19 118.13 197.34 C 117.24 197.49 116.63 198.33 116.78 199.22 Z M 116.93 200.17 L 117.10 201.15 C 117.26 202.04 118.11 202.64 119.00 202.48 C 119.89 202.32 120.49 201.47 120.33 200.58 L 120.15 199.60 C 120.00 198.71 119.15 198.11 118.26 198.27 C 117.37 198.43 116.77 199.28 116.93 200.17 Z M 117.11 201.17 L 117.30 202.20 C 117.46 203.08 118.32 203.67 119.21 203.50 C 120.10 203.34 120.68 202.48 120.52 201.59 L 120.33 200.57 C 120.16 199.68 119.31 199.09 118.42 199.26 C 117.53 199.42 116.94 200.28 117.11 201.17 Z M 117.30 202.20 L 117.50 203.26 C 117.67 204.15 118.53 204.73 119.42 204.56 C 120.31 204.39 120.89 203.53 120.72 202.64 L 120.52 201.59 C 120.35 200.70 119.49 200.12 118.60 200.29 C 117.71 200.46 117.13 201.32 117.30 202.20 Z M 117.50 203.26 L 117.69 204.21 C 117.86 205.10 118.72 205.68 119.61 205.50 C 120.50 205.33 121.08 204.47 120.90 203.58 L 120.72 202.64 C 120.55 201.75 119.69 201.17 118.80 201.34 C 117.91 201.52 117.33 202.38 117.50 203.26 Z"
      fill="black"
      fill-rule="nonzero" /><path d="M 150.52 127.42 L 150.88 128.21 C 151.38 129.33 152.70 129.83 153.82 129.32 C 154.94 128.82 155.44 127.50 154.93 126.38 L 154.58 125.58 C 154.07 124.46 152.75 123.97 151.63 124.47 C 150.51 124.98 150.01 126.30 150.52 127.42 Z M 151.04 128.50 L 151.53 129.26 C 152.20 130.29 153.57 130.59 154.60 129.92 C 155.63 129.25 155.93 127.88 155.26 126.85 L 154.77 126.09 C 154.10 125.06 152.73 124.76 151.70 125.43 C 150.67 126.10 150.37 127.47 151.04 128.50 Z M 151.90 129.69 L 152.66 130.38 C 153.56 131.21 154.96 131.15 155.79 130.25 C 156.62 129.35 156.56 127.95 155.66 127.12 L 154.89 126.42 C 153.99 125.60 152.59 125.66 151.77 126.56 C 150.94 127.46 151.00 128.86 151.90 129.69 Z M 153.11 130.70 L 154.08 131.23 C 155.16 131.81 156.50 131.41 157.08 130.34 C 157.66 129.26 157.26 127.92 156.19 127.34 L 155.21 126.81 C 154.14 126.23 152.80 126.63 152.22 127.70 C 151.63 128.77 152.03 130.11 153.11 130.70 Z M 154.37 131.35 L 155.24 131.67 C 156.38 132.09 157.65 131.51 158.07 130.36 C 158.49 129.22 157.91 127.95 156.76 127.53 L 155.90 127.21 C 154.75 126.79 153.49 127.38 153.07 128.52 C 152.65 129.67 153.23 130.93 154.37 131.35 Z M 155.39 131.72 L 156.36 132.00 C 157.53 132.34 158.75 131.67 159.09 130.50 C 159.43 129.33 158.76 128.11 157.59 127.77 L 156.62 127.49 C 155.45 127.15 154.23 127.82 153.89 128.99 C 153.55 130.15 154.22 131.38 155.39 131.72 Z M 156.45 132.02 L 157.48 132.28 C 158.66 132.57 159.86 131.84 160.15 130.66 C 160.44 129.48 159.71 128.29 158.53 128.00 L 157.50 127.75 C 156.32 127.46 155.13 128.18 154.84 129.36 C 154.55 130.54 155.27 131.73 156.45 132.02 Z M 157.54 132.29 L 158.58 132.52 C 159.77 132.78 160.94 132.03 161.20 130.84 C 161.46 129.65 160.71 128.48 159.52 128.22 L 158.48 127.99 C 157.29 127.73 156.12 128.48 155.86 129.67 C 155.60 130.85 156.35 132.03 157.54 132.29 Z M 158.60 132.52 L 159.61 132.73 C 160.80 132.97 161.96 132.21 162.20 131.02 C 162.45 129.83 161.69 128.67 160.50 128.42 L 159.50 128.22 C 158.31 127.97 157.15 128.73 156.90 129.92 C 156.65 131.11 157.42 132.27 158.60 132.52 Z M 159.60 132.72 L 160.60 132.93 C 161.79 133.18 162.95 132.42 163.20 131.24 C 163.45 130.06 162.69 128.89 161.51 128.64 L 160.51 128.43 C 159.32 128.18 158.16 128.94 157.91 130.12 C 157.66 131.31 158.42 132.47 159.60 132.72 Z M 160.55 132.89 L 161.72 133.17 C 162.89 133.45 164.05 132.74 164.33 131.58 C 164.61 130.41 163.90 129.25 162.74 128.97 L 161.56 128.68 C 160.40 128.40 159.23 129.12 158.95 130.28 C 158.67 131.44 159.39 132.61 160.55 132.89 Z M 161.61 133.09 L 162.55 133.38 C 163.67 133.73 164.85 133.10 165.20 131.99 C 165.54 130.87 164.92 129.68 163.80 129.34 L 162.85 129.05 C 161.74 128.70 160.55 129.33 160.21 130.45 C 159.86 131.56 160.49 132.75 161.61 133.09 Z M 162.37 133.27 L 163.17 133.60 C 164.22 134.05 165.43 133.55 165.88 132.50 C 166.32 131.45 165.83 130.23 164.77 129.79 L 163.98 129.45 C 162.93 129.01 161.71 129.50 161.27 130.56 C 160.82 131.61 161.32 132.83 162.37 133.27 Z M 162.96 133.45 L 163.71 133.88 C 164.68 134.44 165.92 134.11 166.48 133.14 C 167.03 132.17 166.70 130.93 165.73 130.37 L 164.98 129.94 C 164.01 129.38 162.77 129.72 162.21 130.68 C 161.66 131.65 161.99 132.89 162.96 133.45 Z M 163.51 133.71 L 164.31 134.32 C 165.18 134.99 166.43 134.82 167.10 133.95 C 167.77 133.08 167.60 131.83 166.73 131.16 L 165.93 130.55 C 165.06 129.88 163.81 130.05 163.14 130.92 C 162.47 131.79 162.64 133.04 163.51 133.71 Z M 164.11 134.10 L 164.81 134.83 C 165.56 135.60 166.80 135.63 167.58 134.88 C 168.36 134.12 168.38 132.89 167.63 132.11 L 166.93 131.38 C 166.18 130.60 164.94 130.58 164.16 131.33 C 163.38 132.08 163.36 133.32 164.11 134.10 Z M 164.62 134.54 L 165.16 135.36 C 165.76 136.24 166.95 136.48 167.84 135.89 C 168.72 135.30 168.96 134.10 168.37 133.22 L 167.82 132.40 C 167.23 131.51 166.03 131.27 165.15 131.87 C 164.27 132.46 164.03 133.65 164.62 134.54 Z M 165.02 134.98 L 165.36 135.85 C 165.75 136.81 166.84 137.28 167.81 136.90 C 168.78 136.51 169.25 135.42 168.86 134.45 L 168.51 133.59 C 168.13 132.62 167.03 132.15 166.07 132.54 C 165.10 132.92 164.63 134.02 165.02 134.98 Z M 165.32 135.52 L 165.51 136.46 C 165.72 137.45 166.69 138.09 167.68 137.88 C 168.67 137.68 169.30 136.71 169.10 135.72 L 168.90 134.78 C 168.70 133.79 167.73 133.15 166.74 133.36 C 165.75 133.56 165.11 134.53 165.32 135.52 Z M 165.54 136.26 L 165.63 137.29 C 165.72 138.27 166.59 138.99 167.57 138.90 C 168.54 138.81 169.26 137.94 169.17 136.97 L 169.08 135.93 C 168.99 134.95 168.12 134.23 167.14 134.32 C 166.17 134.41 165.45 135.28 165.54 136.26 Z M 165.67 137.20 L 165.71 138.24 C 165.75 139.19 166.56 139.94 167.51 139.90 C 168.47 139.86 169.21 139.05 169.17 138.10 L 169.13 137.06 C 169.09 136.11 168.29 135.36 167.33 135.40 C 166.38 135.44 165.63 136.24 165.67 137.20 Z M 165.74 138.18 L 165.75 139.19 C 165.76 140.13 166.53 140.88 167.47 140.87 C 168.41 140.86 169.17 140.09 169.16 139.15 L 169.15 138.15 C 169.14 137.21 168.37 136.45 167.43 136.46 C 166.48 136.47 165.73 137.24 165.74 138.18 Z M 165.77 139.12 L 165.74 140.14 C 165.71 141.07 166.44 141.85 167.37 141.88 C 168.31 141.91 169.08 141.17 169.11 140.24 L 169.14 139.22 C 169.17 138.29 168.44 137.51 167.50 137.48 C 166.57 137.45 165.79 138.19 165.77 139.12 Z M 165.76 140.05 L 165.67 141.05 C 165.60 141.97 166.28 142.78 167.20 142.86 C 168.12 142.94 168.92 142.26 169.00 141.34 L 169.09 140.33 C 169.17 139.41 168.49 138.60 167.57 138.53 C 166.65 138.45 165.84 139.13 165.76 140.05 Z M 165.70 140.93 L 165.54 141.92 C 165.39 142.82 166.00 143.67 166.90 143.82 C 167.81 143.97 168.66 143.36 168.81 142.46 L 168.97 141.47 C 169.12 140.57 168.51 139.71 167.61 139.56 C 166.71 139.41 165.85 140.02 165.70 140.93 Z M 165.58 141.75 L 165.32 142.73 C 165.08 143.61 165.60 144.51 166.47 144.75 C 167.35 144.99 168.26 144.47 168.50 143.60 L 168.76 142.62 C 169.00 141.74 168.49 140.84 167.61 140.60 C 166.73 140.36 165.82 140.88 165.58 141.75 Z M 165.37 142.58 L 165.02 143.50 C 164.70 144.35 165.12 145.30 165.97 145.62 C 166.82 145.94 167.77 145.52 168.09 144.67 L 168.44 143.75 C 168.77 142.90 168.34 141.95 167.49 141.63 C 166.64 141.30 165.69 141.73 165.37 142.58 Z M 165.08 143.38 L 164.65 144.27 C 164.27 145.09 164.62 146.07 165.43 146.45 C 166.25 146.84 167.23 146.49 167.62 145.67 L 168.04 144.78 C 168.43 143.97 168.08 142.99 167.26 142.60 C 166.44 142.21 165.46 142.56 165.08 143.38 Z M 164.70 144.19 L 164.26 145.01 C 163.83 145.80 164.12 146.79 164.92 147.22 C 165.72 147.65 166.71 147.36 167.14 146.56 L 167.58 145.75 C 168.01 144.95 167.71 143.96 166.92 143.53 C 166.12 143.10 165.13 143.40 164.70 144.19 Z M 164.29 144.95 L 163.82 145.73 C 163.36 146.51 163.62 147.51 164.39 147.98 C 165.17 148.44 166.17 148.18 166.64 147.41 L 167.10 146.62 C 167.57 145.84 167.31 144.84 166.54 144.38 C 165.76 143.91 164.75 144.17 164.29 144.95 Z M 163.86 145.67 L 163.32 146.49 C 162.83 147.25 163.04 148.26 163.79 148.76 C 164.55 149.25 165.56 149.04 166.06 148.29 L 166.60 147.47 C 167.09 146.71 166.88 145.70 166.13 145.20 C 165.37 144.71 164.36 144.92 163.86 145.67 Z M 163.36 146.43 L 162.74 147.30 C 162.21 148.03 162.38 149.06 163.11 149.59 C 163.85 150.11 164.87 149.95 165.40 149.21 L 166.02 148.34 C 166.55 147.61 166.38 146.59 165.65 146.06 C 164.91 145.53 163.89 145.70 163.36 146.43 Z M 162.78 147.25 L 162.12 148.10 C 161.56 148.81 161.69 149.84 162.40 150.39 C 163.12 150.95 164.14 150.82 164.70 150.11 L 165.36 149.26 C 165.91 148.55 165.79 147.52 165.07 146.97 C 164.36 146.41 163.33 146.54 162.78 147.25 Z M 162.15 148.06 L 161.56 148.77 C 160.99 149.47 161.09 150.50 161.79 151.07 C 162.48 151.65 163.52 151.55 164.09 150.85 L 164.67 150.14 C 165.25 149.45 165.15 148.41 164.45 147.84 C 163.75 147.26 162.72 147.36 162.15 148.06 Z M 161.58 148.75 L 160.95 149.48 C 160.37 150.17 160.45 151.20 161.14 151.79 C 161.82 152.38 162.86 152.30 163.44 151.61 L 164.07 150.87 C 164.66 150.18 164.58 149.15 163.89 148.56 C 163.20 147.98 162.17 148.06 161.58 148.75 Z M 160.97 149.47 L 160.30 150.23 C 159.71 150.91 159.78 151.94 160.46 152.54 C 161.14 153.13 162.17 153.06 162.77 152.38 L 163.43 151.62 C 164.03 150.94 163.96 149.91 163.28 149.31 C 162.60 148.72 161.56 148.79 160.97 149.47 Z M 160.31 150.22 L 159.62 150.99 C 159.02 151.67 159.08 152.70 159.75 153.30 C 160.43 153.90 161.46 153.84 162.06 153.17 L 162.76 152.39 C 163.36 151.72 163.30 150.68 162.62 150.08 C 161.95 149.48 160.91 149.54 160.31 150.22 Z M 159.63 150.99 L 158.92 151.77 C 158.31 152.45 158.37 153.48 159.04 154.09 C 159.71 154.69 160.75 154.64 161.35 153.96 L 162.06 153.18 C 162.66 152.50 162.61 151.47 161.94 150.86 C 161.26 150.26 160.23 150.31 159.63 150.99 Z M 158.92 151.77 L 158.41 152.33 C 157.81 153.00 157.86 154.04 158.53 154.64 C 159.20 155.25 160.24 155.20 160.84 154.53 L 161.35 153.97 C 161.95 153.30 161.90 152.26 161.23 151.65 C 160.56 151.05 159.52 151.10 158.92 151.77 Z"
      fill="black"
      fill-rule="nonzero" /><path d="M 143.50 159.31 L 142.59 159.54 C 141.68 159.77 141.12 160.70 141.35 161.62 C 141.59 162.54 142.52 163.10 143.44 162.86 L 144.35 162.63 C 145.27 162.40 145.82 161.46 145.59 160.55 C 145.35 159.63 144.42 159.07 143.50 159.31 Z M 142.54 159.49 L 141.60 159.75 C 140.65 160.01 140.10 161.00 140.37 161.94 C 140.63 162.89 141.61 163.44 142.56 163.17 L 143.50 162.91 C 144.44 162.65 144.99 161.66 144.73 160.72 C 144.46 159.77 143.48 159.22 142.54 159.49 Z M 141.51 159.71 L 140.52 160.04 C 139.55 160.35 139.02 161.39 139.34 162.36 C 139.66 163.33 140.70 163.85 141.66 163.54 L 142.65 163.21 C 143.62 162.89 144.15 161.85 143.83 160.89 C 143.51 159.92 142.47 159.39 141.51 159.71 Z M 140.39 159.99 L 139.24 160.44 C 138.25 160.83 137.76 161.95 138.15 162.94 C 138.54 163.93 139.66 164.41 140.65 164.03 L 141.79 163.58 C 142.78 163.19 143.27 162.07 142.88 161.08 C 142.49 160.09 141.38 159.61 140.39 159.99 Z M 139.09 160.38 L 137.97 160.90 C 136.95 161.37 136.50 162.59 136.97 163.61 C 137.45 164.63 138.66 165.08 139.69 164.61 L 140.80 164.09 C 141.83 163.61 142.27 162.40 141.80 161.38 C 141.32 160.35 140.11 159.91 139.09 160.38 Z M 137.70 160.89 L 136.99 161.32 C 135.97 161.94 135.64 163.28 136.26 164.31 C 136.88 165.33 138.22 165.66 139.25 165.04 L 139.96 164.61 C 140.98 163.99 141.31 162.65 140.69 161.62 C 140.06 160.60 138.73 160.27 137.70 160.89 Z M 135.86 163.42 L 135.88 163.63 C 136.02 164.88 137.14 165.79 138.39 165.65 C 139.64 165.52 140.54 164.39 140.41 163.15 L 140.38 162.94 C 140.25 161.69 139.13 160.78 137.88 160.92 C 136.63 161.05 135.72 162.18 135.86 163.42 Z M 138.32 165.71 L 139.11 165.65 C 140.39 165.55 141.35 164.44 141.25 163.16 C 141.16 161.88 140.04 160.92 138.76 161.01 L 137.97 161.07 C 136.69 161.17 135.73 162.28 135.83 163.56 C 135.92 164.84 137.04 165.80 138.32 165.71 Z M 139.43 165.63 L 140.73 165.35 C 142.00 165.08 142.81 163.83 142.54 162.56 C 142.27 161.29 141.02 160.48 139.75 160.75 L 138.44 161.03 C 137.18 161.30 136.37 162.55 136.64 163.82 C 136.91 165.09 138.16 165.90 139.43 165.63 Z M 140.87 165.33 L 141.96 165.03 C 143.22 164.68 143.96 163.38 143.61 162.12 C 143.26 160.86 141.96 160.12 140.70 160.47 L 139.61 160.77 C 138.35 161.12 137.61 162.42 137.96 163.68 C 138.31 164.94 139.61 165.68 140.87 165.33 Z M 142.04 165.01 L 142.96 164.73 C 144.21 164.33 144.90 163.00 144.51 161.75 C 144.12 160.50 142.78 159.80 141.53 160.19 L 140.62 160.48 C 139.37 160.88 138.67 162.21 139.06 163.46 C 139.46 164.71 140.79 165.41 142.04 165.01 Z M 143.01 164.71 L 143.95 164.39 C 145.20 163.97 145.86 162.62 145.44 161.38 C 145.02 160.13 143.67 159.47 142.43 159.89 L 141.48 160.21 C 140.24 160.63 139.57 161.98 139.99 163.22 C 140.41 164.47 141.76 165.14 143.01 164.71 Z M 143.99 164.38 L 144.96 164.04 C 146.20 163.59 146.84 162.23 146.40 160.99 C 145.96 159.75 144.59 159.11 143.36 159.55 L 142.39 159.90 C 141.15 160.34 140.50 161.70 140.95 162.94 C 141.39 164.18 142.75 164.83 143.99 164.38 Z M 144.98 164.03 L 145.97 163.67 C 147.20 163.21 147.83 161.84 147.37 160.60 C 146.92 159.37 145.54 158.74 144.31 159.20 L 143.33 159.56 C 142.09 160.02 141.46 161.39 141.92 162.62 C 142.38 163.86 143.75 164.49 144.98 164.03 Z M 145.98 163.66 L 146.97 163.29 C 148.20 162.82 148.82 161.45 148.36 160.21 C 147.89 158.98 146.51 158.36 145.28 158.83 L 144.29 159.20 C 143.06 159.67 142.44 161.04 142.91 162.28 C 143.37 163.51 144.75 164.13 145.98 163.66 Z M 146.98 163.29 L 147.96 162.91 C 149.19 162.44 149.81 161.06 149.34 159.83 C 148.87 158.60 147.49 157.98 146.25 158.45 L 145.27 158.83 C 144.04 159.30 143.42 160.68 143.89 161.91 C 144.37 163.14 145.75 163.76 146.98 163.29 Z M 147.96 162.91 L 148.93 162.54 C 150.16 162.07 150.77 160.69 150.30 159.46 C 149.83 158.22 148.45 157.61 147.22 158.08 L 146.25 158.45 C 145.02 158.92 144.41 160.31 144.88 161.54 C 145.35 162.77 146.73 163.38 147.96 162.91 Z M 148.92 162.54 L 149.86 162.19 C 151.09 161.72 151.71 160.34 151.24 159.10 C 150.77 157.87 149.39 157.25 148.15 157.72 L 147.22 158.08 C 145.99 158.55 145.37 159.93 145.84 161.16 C 146.31 162.40 147.69 163.01 148.92 162.54 Z M 149.85 162.19 L 150.73 161.86 C 151.97 161.40 152.59 160.02 152.13 158.78 C 151.67 157.55 150.29 156.92 149.05 157.38 L 148.16 157.72 C 146.93 158.18 146.30 159.56 146.77 160.80 C 147.23 162.03 148.61 162.66 149.85 162.19 Z M 150.71 161.87 L 151.64 161.53 C 152.88 161.08 153.52 159.71 153.07 158.46 C 152.62 157.22 151.25 156.59 150.01 157.04 L 149.08 157.38 C 147.84 157.83 147.20 159.20 147.65 160.44 C 148.10 161.68 149.47 162.32 150.71 161.87 Z M 151.61 161.54 L 152.62 161.19 C 153.86 160.75 154.52 159.39 154.09 158.15 C 153.65 156.90 152.29 156.24 151.05 156.68 L 150.04 157.03 C 148.79 157.46 148.14 158.82 148.57 160.07 C 149.00 161.31 150.36 161.97 151.61 161.54 Z M 152.58 161.19 L 153.52 160.88 C 154.77 160.47 155.44 159.12 155.03 157.87 C 154.61 156.62 153.26 155.95 152.01 156.36 L 151.08 156.67 C 149.83 157.09 149.15 158.44 149.57 159.68 C 149.98 160.93 151.33 161.61 152.58 161.19 Z M 153.49 160.89 L 154.38 160.60 C 155.64 160.20 156.32 158.86 155.92 157.61 C 155.52 156.36 154.18 155.67 152.93 156.07 L 152.04 156.36 C 150.79 156.76 150.10 158.10 150.50 159.35 C 150.90 160.60 152.24 161.29 153.49 160.89 Z M 154.37 160.60 L 155.28 160.31 C 156.53 159.91 157.22 158.58 156.83 157.33 C 156.43 156.08 155.10 155.39 153.85 155.79 L 152.94 156.08 C 151.69 156.47 151.00 157.81 151.40 159.05 C 151.79 160.30 153.13 160.99 154.37 160.60 Z M 155.27 160.30 L 156.22 160.00 C 157.46 159.61 158.15 158.28 157.76 157.04 C 157.37 155.80 156.05 155.11 154.80 155.50 L 153.86 155.80 C 152.61 156.19 151.92 157.51 152.32 158.75 C 152.71 160.00 154.03 160.69 155.27 160.30 Z M 156.20 159.99 L 157.15 159.70 C 158.39 159.32 159.09 158.01 158.71 156.77 C 158.33 155.53 157.02 154.84 155.78 155.22 L 154.83 155.51 C 153.59 155.89 152.89 157.20 153.27 158.43 C 153.65 159.67 154.96 160.37 156.20 159.99 Z M 157.12 159.69 L 158.09 159.40 C 159.33 159.04 160.03 157.75 159.67 156.52 C 159.31 155.28 158.02 154.58 156.79 154.94 L 155.81 155.22 C 154.58 155.58 153.87 156.88 154.23 158.11 C 154.59 159.34 155.89 160.05 157.12 159.69 Z M 158.05 159.40 L 159.02 159.13 C 160.25 158.79 160.97 157.52 160.64 156.29 C 160.30 155.06 159.03 154.34 157.80 154.68 L 156.83 154.94 C 155.60 155.28 154.87 156.55 155.21 157.78 C 155.55 159.01 156.82 159.74 158.05 159.40 Z M 158.99 159.12 L 159.97 158.86 C 161.19 158.54 161.92 157.29 161.60 156.07 C 161.28 154.85 160.03 154.11 158.81 154.43 L 157.83 154.69 C 156.61 155.01 155.87 156.26 156.19 157.48 C 156.51 158.71 157.77 159.44 158.99 159.12 Z M 159.94 158.85 L 160.91 158.61 C 162.13 158.30 162.87 157.07 162.56 155.85 C 162.25 154.63 161.02 153.90 159.80 154.20 L 158.83 154.45 C 157.62 154.75 156.88 155.99 157.18 157.20 C 157.49 158.42 158.72 159.16 159.94 158.85 Z M 160.89 158.59 L 161.85 158.36 C 163.06 158.06 163.80 156.84 163.50 155.63 C 163.21 154.42 161.99 153.69 160.78 153.98 L 159.82 154.22 C 158.61 154.51 157.87 155.73 158.17 156.94 C 158.47 158.15 159.69 158.89 160.89 158.59 Z M 161.83 158.34 L 162.80 158.11 C 164.00 157.82 164.73 156.62 164.45 155.42 C 164.16 154.22 162.96 153.48 161.76 153.77 L 160.80 154.00 C 159.60 154.29 158.86 155.49 159.15 156.69 C 159.43 157.89 160.64 158.62 161.83 158.34 Z M 162.77 158.09 L 163.73 157.87 C 164.92 157.60 165.66 156.42 165.39 155.23 C 165.12 154.04 163.94 153.30 162.75 153.57 L 161.79 153.79 C 160.60 154.06 159.86 155.24 160.13 156.43 C 160.40 157.61 161.58 158.36 162.77 158.09 Z M 163.69 157.85 L 164.67 157.65 C 165.85 157.40 166.61 156.24 166.36 155.07 C 166.12 153.89 164.96 153.13 163.78 153.38 L 162.80 153.59 C 161.62 153.83 160.86 154.99 161.11 156.16 C 161.35 157.34 162.51 158.10 163.69 157.85 Z M 164.62 157.62 L 165.58 157.45 C 166.75 157.23 167.52 156.10 167.30 154.94 C 167.08 153.77 165.96 153.00 164.79 153.22 L 163.83 153.40 C 162.67 153.62 161.90 154.74 162.12 155.91 C 162.34 157.07 163.46 157.84 164.62 157.62 Z M 165.53 157.42 L 166.50 157.26 C 167.65 157.07 168.43 155.98 168.24 154.83 C 168.05 153.68 166.97 152.90 165.81 153.09 L 164.84 153.25 C 163.69 153.44 162.91 154.53 163.10 155.68 C 163.29 156.83 164.38 157.61 165.53 157.42 Z M 166.45 157.23 L 167.45 157.08 C 168.58 156.92 169.37 155.88 169.21 154.74 C 169.05 153.61 168.00 152.82 166.87 152.98 L 165.87 153.12 C 164.73 153.28 163.95 154.33 164.11 155.46 C 164.27 156.60 165.31 157.39 166.45 157.23 Z M 167.39 157.05 L 168.42 156.93 C 169.53 156.81 170.33 155.80 170.20 154.68 C 170.08 153.57 169.07 152.77 167.95 152.89 L 166.93 153.01 C 165.81 153.14 165.01 154.15 165.14 155.26 C 165.27 156.38 166.28 157.18 167.39 157.05 Z M 168.34 156.91 L 169.60 156.81 C 170.70 156.72 171.52 155.76 171.43 154.65 C 171.35 153.55 170.38 152.73 169.28 152.82 L 168.02 152.92 C 166.92 153.01 166.10 153.97 166.19 155.07 C 166.28 156.18 167.24 157.00 168.34 156.91 Z M 169.44 156.80 L 170.59 156.79 C 171.68 156.79 172.56 155.90 172.56 154.80 C 172.56 153.71 171.67 152.82 170.57 152.83 L 169.43 152.83 C 168.34 152.84 167.45 153.73 167.46 154.82 C 167.46 155.91 168.35 156.80 169.44 156.80 Z M 170.11 156.72 L 170.80 156.89 C 171.86 157.15 172.92 156.51 173.18 155.45 C 173.44 154.40 172.80 153.33 171.75 153.07 L 171.05 152.90 C 170.00 152.64 168.93 153.29 168.67 154.34 C 168.41 155.39 169.06 156.46 170.11 156.72 Z M 169.36 154.98 L 169.36 155.41 C 169.36 156.47 170.21 157.32 171.27 157.33 C 172.33 157.33 173.18 156.47 173.19 155.42 L 173.19 154.98 C 173.19 153.93 172.33 153.07 171.28 153.07 C 170.22 153.07 169.36 153.92 169.36 154.98 Z M 170.04 154.08 L 169.35 154.71 C 168.62 155.39 168.57 156.54 169.25 157.28 C 169.93 158.02 171.08 158.06 171.82 157.38 L 172.51 156.75 C 173.24 156.07 173.29 154.92 172.61 154.18 C 171.93 153.44 170.78 153.40 170.04 154.08 Z M 169.69 154.60 L 168.58 155.28 C 167.78 155.78 167.53 156.83 168.02 157.63 C 168.52 158.43 169.57 158.68 170.37 158.19 L 171.48 157.50 C 172.29 157.00 172.53 155.95 172.04 155.15 C 171.54 154.35 170.49 154.10 169.69 154.60 Z M 168.75 155.26 L 167.83 155.71 C 167.01 156.11 166.67 157.09 167.07 157.91 C 167.47 158.73 168.46 159.06 169.28 158.67 L 170.20 158.21 C 171.02 157.81 171.36 156.83 170.96 156.01 C 170.56 155.19 169.57 154.86 168.75 155.26 Z M 167.93 155.67 L 167.01 156.05 C 166.17 156.39 165.77 157.35 166.11 158.19 C 166.46 159.02 167.41 159.42 168.25 159.08 L 169.17 158.70 C 170.01 158.36 170.41 157.40 170.07 156.57 C 169.72 155.73 168.77 155.33 167.93 155.67 Z M 167.09 156.02 L 166.14 156.35 C 165.28 156.65 164.83 157.58 165.13 158.44 C 165.43 159.29 166.36 159.74 167.22 159.44 L 168.17 159.11 C 169.02 158.81 169.47 157.88 169.18 157.03 C 168.88 156.17 167.94 155.72 167.09 156.02 Z M 166.21 156.33 L 165.24 156.62 C 164.37 156.88 163.88 157.79 164.14 158.66 C 164.40 159.52 165.31 160.01 166.18 159.75 L 167.15 159.46 C 168.01 159.21 168.51 158.29 168.25 157.43 C 167.99 156.56 167.07 156.07 166.21 156.33 Z M 165.30 156.60 L 164.29 156.86 C 163.42 157.09 162.89 157.98 163.12 158.86 C 163.35 159.73 164.24 160.26 165.12 160.03 L 166.12 159.77 C 167.00 159.54 167.52 158.65 167.29 157.77 C 167.07 156.90 166.17 156.37 165.30 156.60 Z M 164.34 156.85 L 163.34 157.08 C 162.46 157.28 161.90 158.16 162.11 159.04 C 162.31 159.92 163.19 160.47 164.07 160.27 L 165.07 160.04 C 165.95 159.84 166.50 158.96 166.30 158.08 C 166.10 157.20 165.22 156.65 164.34 156.85 Z M 163.37 157.07 L 162.39 157.28 C 161.51 157.46 160.94 158.33 161.12 159.21 C 161.31 160.10 162.17 160.67 163.06 160.48 L 164.04 160.28 C 164.92 160.09 165.49 159.23 165.30 158.34 C 165.12 157.46 164.25 156.89 163.37 157.07 Z M 162.41 157.27 L 161.47 157.46 C 160.59 157.63 160.01 158.49 160.19 159.38 C 160.36 160.27 161.22 160.85 162.11 160.67 L 163.04 160.49 C 163.93 160.31 164.51 159.45 164.33 158.56 C 164.16 157.68 163.30 157.10 162.41 157.27 Z M 161.47 157.45 L 160.55 157.63 C 159.66 157.81 159.08 158.67 159.25 159.56 C 159.43 160.45 160.29 161.04 161.18 160.86 L 162.11 160.68 C 163.00 160.50 163.58 159.64 163.41 158.75 C 163.23 157.86 162.37 157.28 161.47 157.45 Z M 160.54 157.62 L 159.61 157.80 C 158.71 157.98 158.13 158.86 158.31 159.76 C 158.49 160.66 159.37 161.24 160.27 161.06 L 161.19 160.88 C 162.09 160.70 162.67 159.82 162.49 158.92 C 162.31 158.02 161.44 157.44 160.54 157.62 Z M 159.60 157.79 L 158.62 157.99 C 157.71 158.17 157.13 159.06 157.32 159.97 C 157.50 160.88 158.39 161.47 159.30 161.28 L 160.28 161.08 C 161.19 160.89 161.77 160.00 161.59 159.09 C 161.40 158.18 160.51 157.60 159.60 157.79 Z M 158.61 157.96 L 157.54 158.19 C 156.62 158.39 156.03 159.29 156.22 160.21 C 156.42 161.13 157.33 161.72 158.25 161.53 L 159.32 161.30 C 160.24 161.11 160.83 160.20 160.63 159.28 C 160.44 158.36 159.53 157.77 158.61 157.96 Z M 157.50 158.12 L 156.54 158.34 C 155.58 158.55 154.98 159.51 155.19 160.47 C 155.41 161.43 156.37 162.03 157.33 161.82 L 158.29 161.60 C 159.25 161.38 159.85 160.43 159.63 159.47 C 159.42 158.51 158.46 157.90 157.50 158.12 Z M 156.43 158.23 L 155.43 158.51 C 154.42 158.79 153.82 159.84 154.10 160.85 C 154.37 161.87 155.43 162.47 156.44 162.19 L 157.44 161.92 C 158.46 161.64 159.05 160.59 158.78 159.57 C 158.50 158.55 157.45 157.96 156.43 158.23 Z M 155.24 158.44 L 154.27 158.79 C 153.22 159.18 152.67 160.35 153.06 161.40 C 153.45 162.46 154.62 163.00 155.67 162.61 L 156.64 162.26 C 157.70 161.87 158.24 160.70 157.85 159.65 C 157.46 158.59 156.29 158.05 155.24 158.44 Z M 153.96 158.79 L 153.09 159.26 C 152.03 159.82 151.63 161.12 152.19 162.18 C 152.75 163.23 154.06 163.63 155.12 163.07 L 155.99 162.61 C 157.04 162.05 157.44 160.74 156.88 159.69 C 156.32 158.63 155.01 158.23 153.96 158.79 Z M 152.64 159.43 L 151.92 160.03 C 150.96 160.84 150.84 162.27 151.65 163.23 C 152.46 164.19 153.89 164.31 154.85 163.51 L 155.57 162.90 C 156.53 162.09 156.65 160.66 155.84 159.70 C 155.03 158.74 153.60 158.62 152.64 159.43 Z M 151.48 160.42 L 150.94 161.18 C 150.20 162.23 150.45 163.69 151.50 164.44 C 152.56 165.18 154.02 164.93 154.76 163.88 L 155.30 163.12 C 156.04 162.06 155.79 160.60 154.74 159.86 C 153.68 159.11 152.22 159.36 151.48 160.42 Z M 150.68 161.56 L 150.29 162.44 C 149.76 163.64 150.30 165.05 151.50 165.58 C 152.70 166.11 154.10 165.57 154.64 164.37 L 155.03 163.49 C 155.56 162.29 155.02 160.88 153.81 160.35 C 152.61 159.82 151.21 160.36 150.68 161.56 Z M 150.15 162.71 L 149.86 163.68 C 149.47 164.95 150.19 166.30 151.47 166.69 C 152.75 167.08 154.09 166.35 154.48 165.08 L 154.77 164.10 C 155.16 162.83 154.44 161.48 153.16 161.09 C 151.89 160.71 150.54 161.43 150.15 162.71 Z M 149.78 163.80 L 149.53 164.84 C 149.21 166.15 150.02 167.48 151.34 167.80 C 152.66 168.12 153.98 167.31 154.30 165.99 L 154.55 164.95 C 154.87 163.64 154.06 162.31 152.75 161.99 C 151.43 161.67 150.10 162.48 149.78 163.80 Z M 149.51 164.84 L 149.29 165.76 C 148.98 167.09 149.80 168.42 151.13 168.74 C 152.46 169.05 153.80 168.23 154.11 166.90 L 154.33 165.98 C 154.64 164.65 153.82 163.32 152.49 163.00 C 151.16 162.69 149.82 163.51 149.51 164.84 Z M 149.29 165.73 L 149.07 166.62 C 148.75 167.95 149.56 169.29 150.89 169.62 C 152.22 169.95 153.56 169.14 153.89 167.81 L 154.11 166.92 C 154.44 165.59 153.62 164.25 152.29 163.92 C 150.96 163.59 149.62 164.40 149.29 165.73 Z M 149.08 166.61 L 148.84 167.53 C 148.51 168.86 149.31 170.21 150.64 170.54 C 151.97 170.88 153.32 170.07 153.65 168.74 L 153.89 167.82 C 154.22 166.49 153.42 165.14 152.09 164.81 C 150.76 164.47 149.41 165.28 149.08 166.61 Z M 148.85 167.52 L 148.60 168.50 C 148.26 169.82 149.06 171.17 150.38 171.51 C 151.71 171.85 153.06 171.05 153.40 169.73 L 153.65 168.75 C 153.99 167.43 153.19 166.08 151.87 165.74 C 150.54 165.40 149.19 166.20 148.85 167.52 Z M 148.60 168.49 L 148.33 169.53 C 147.99 170.85 148.79 172.20 150.12 172.55 C 151.44 172.89 152.79 172.09 153.13 170.76 L 153.40 169.73 C 153.74 168.40 152.94 167.05 151.62 166.71 C 150.29 166.37 148.94 167.17 148.60 168.49 Z M 148.33 169.53 L 148.05 170.63 C 147.71 171.96 148.51 173.31 149.83 173.65 C 151.16 173.99 152.51 173.19 152.85 171.87 L 153.13 170.76 C 153.47 169.44 152.68 168.09 151.35 167.75 C 150.02 167.40 148.67 168.20 148.33 169.53 Z M 148.05 170.64 L 147.81 171.59 C 147.47 172.92 148.27 174.27 149.59 174.60 C 150.92 174.94 152.27 174.14 152.60 172.82 L 152.85 171.86 C 153.19 170.54 152.39 169.19 151.06 168.85 C 149.74 168.52 148.39 169.32 148.05 170.64 Z M 147.81 171.60 L 147.56 172.58 C 147.23 173.90 148.03 175.25 149.35 175.58 C 150.67 175.92 152.01 175.12 152.35 173.80 L 152.60 172.81 C 152.94 171.49 152.14 170.15 150.81 169.81 C 149.49 169.48 148.15 170.28 147.81 171.60 Z M 147.57 172.58 L 147.31 173.59 C 146.98 174.91 147.78 176.25 149.09 176.58 C 150.41 176.92 151.75 176.12 152.09 174.80 L 152.34 173.80 C 152.68 172.48 151.88 171.14 150.56 170.80 C 149.24 170.47 147.90 171.27 147.57 172.58 Z M 147.32 173.59 L 147.06 174.60 C 146.73 175.91 147.52 177.25 148.84 177.59 C 150.16 177.92 151.49 177.12 151.83 175.81 L 152.08 174.80 C 152.42 173.49 151.62 172.15 150.31 171.81 C 148.99 171.48 147.65 172.27 147.32 173.59 Z M 147.07 174.60 L 146.81 175.59 C 146.48 176.90 147.27 178.24 148.59 178.57 C 149.90 178.91 151.23 178.11 151.57 176.80 L 151.82 175.81 C 152.16 174.50 151.36 173.16 150.05 172.82 C 148.74 172.49 147.40 173.28 147.07 174.60 Z M 146.82 175.58 L 146.57 176.54 C 146.24 177.85 147.03 179.18 148.34 179.52 C 149.65 179.86 150.98 179.07 151.32 177.76 L 151.56 176.80 C 151.90 175.49 151.11 174.16 149.80 173.82 C 148.49 173.48 147.16 174.27 146.82 175.58 Z M 146.58 176.53 L 146.35 177.44 C 146.01 178.75 146.79 180.08 148.10 180.42 C 149.40 180.76 150.74 179.97 151.08 178.67 L 151.31 177.76 C 151.65 176.46 150.87 175.12 149.56 174.78 C 148.25 174.45 146.92 175.23 146.58 176.53 Z M 146.36 177.43 L 146.07 178.53 C 145.73 179.83 146.50 181.16 147.80 181.50 C 149.10 181.85 150.43 181.07 150.77 179.77 L 151.06 178.68 C 151.40 177.38 150.63 176.05 149.33 175.70 C 148.04 175.36 146.70 176.13 146.36 177.43 Z M 146.09 178.53 L 145.81 179.57 C 145.47 180.85 146.23 182.17 147.51 182.52 C 148.80 182.87 150.12 182.11 150.47 180.82 L 150.75 179.78 C 151.09 178.50 150.33 177.17 149.05 176.83 C 147.76 176.48 146.44 177.24 146.09 178.53 Z M 145.84 179.56 L 145.58 180.52 C 145.23 181.79 145.98 183.10 147.25 183.45 C 148.52 183.79 149.84 183.04 150.18 181.77 L 150.44 180.82 C 150.79 179.55 150.04 178.24 148.77 177.89 C 147.50 177.54 146.18 178.29 145.84 179.56 Z M 145.60 180.52 L 145.36 181.41 C 145.01 182.67 145.75 183.97 147.01 184.32 C 148.27 184.66 149.57 183.92 149.92 182.66 L 150.16 181.77 C 150.50 180.51 149.76 179.21 148.50 178.86 C 147.24 178.52 145.94 179.26 145.60 180.52 Z M 145.38 181.43 L 145.14 182.29 C 144.81 183.54 145.55 184.82 146.80 185.16 C 148.05 185.50 149.33 184.75 149.67 183.51 L 149.90 182.64 C 150.23 181.40 149.49 180.11 148.24 179.78 C 147.00 179.44 145.71 180.18 145.38 181.43 Z M 145.16 182.31 L 144.92 183.24 C 144.59 184.48 145.34 185.74 146.58 186.07 C 147.82 186.39 149.08 185.65 149.41 184.41 L 149.65 183.48 C 149.97 182.24 149.23 180.98 147.99 180.65 C 146.75 180.33 145.48 181.07 145.16 182.31 Z M 144.94 183.26 L 144.69 184.22 C 144.38 185.45 145.13 186.70 146.36 187.01 C 147.59 187.33 148.84 186.58 149.15 185.35 L 149.39 184.39 C 149.70 183.16 148.96 181.91 147.73 181.60 C 146.50 181.29 145.25 182.03 144.94 183.26 Z M 144.71 184.24 L 144.47 185.21 C 144.17 186.43 144.91 187.67 146.14 187.97 C 147.36 188.27 148.59 187.52 148.89 186.30 L 149.13 185.33 C 149.43 184.11 148.69 182.88 147.46 182.58 C 146.24 182.28 145.01 183.02 144.71 184.24 Z M 144.49 185.23 L 144.25 186.21 C 143.96 187.42 144.70 188.63 145.92 188.93 C 147.13 189.22 148.34 188.47 148.64 187.26 L 148.87 186.29 C 149.17 185.08 148.42 183.86 147.21 183.56 C 146.00 183.27 144.78 184.02 144.49 185.23 Z M 144.27 186.22 L 144.04 187.21 C 143.75 188.41 144.49 189.61 145.69 189.90 C 146.89 190.18 148.10 189.44 148.38 188.24 L 148.62 187.25 C 148.90 186.05 148.16 184.85 146.96 184.56 C 145.76 184.28 144.56 185.02 144.27 186.22 Z M 144.06 187.23 L 143.82 188.26 C 143.55 189.45 144.29 190.63 145.47 190.91 C 146.66 191.18 147.85 190.44 148.12 189.25 L 148.36 188.22 C 148.63 187.03 147.89 185.85 146.70 185.57 C 145.52 185.30 144.33 186.04 144.06 187.23 Z M 143.84 188.33 L 143.63 189.35 C 143.40 190.53 144.16 191.67 145.34 191.91 C 146.52 192.15 147.67 191.38 147.90 190.20 L 148.11 189.18 C 148.34 188.00 147.58 186.86 146.40 186.62 C 145.22 186.38 144.07 187.15 143.84 188.33 Z M 143.64 189.47 L 143.50 190.46 C 143.33 191.63 144.15 192.72 145.33 192.88 C 146.50 193.05 147.59 192.23 147.75 191.06 L 147.89 190.07 C 148.06 188.90 147.24 187.81 146.07 187.65 C 144.89 187.48 143.81 188.30 143.64 189.47 Z M 143.51 190.66 L 143.47 191.59 C 143.41 192.76 144.32 193.75 145.48 193.80 C 146.65 193.86 147.65 192.96 147.70 191.79 L 147.74 190.86 C 147.80 189.69 146.90 188.70 145.73 188.64 C 144.56 188.59 143.57 189.49 143.51 190.66 Z M 143.52 191.90 L 143.62 192.90 C 143.74 194.04 144.76 194.87 145.90 194.75 C 147.04 194.63 147.87 193.61 147.75 192.47 L 147.65 191.47 C 147.53 190.33 146.51 189.50 145.37 189.62 C 144.23 189.74 143.40 190.76 143.52 191.90 Z M 143.75 193.23 L 144.02 194.20 C 144.32 195.27 145.44 195.89 146.51 195.59 C 147.58 195.29 148.20 194.17 147.90 193.10 L 147.63 192.14 C 147.33 191.07 146.21 190.45 145.14 190.75 C 144.07 191.05 143.45 192.16 143.75 193.23 Z M 144.17 194.41 L 144.55 195.31 C 144.96 196.30 146.10 196.76 147.09 196.34 C 148.09 195.93 148.55 194.78 148.13 193.79 L 147.75 192.89 C 147.34 191.90 146.20 191.44 145.20 191.86 C 144.21 192.27 143.75 193.41 144.17 194.41 Z M 144.65 195.38 L 145.00 196.11 C 145.46 197.04 146.59 197.43 147.53 196.97 C 148.46 196.51 148.85 195.38 148.39 194.45 L 148.03 193.72 C 147.57 192.79 146.44 192.40 145.51 192.86 C 144.58 193.32 144.19 194.44 144.65 195.38 Z"
      fill="black"
      fill-rule="nonzero" /><path d="M 156.98 161.76 L 157.12 162.75 C 157.31 164.04 158.50 164.94 159.80 164.76 C 161.09 164.57 161.98 163.38 161.80 162.09 L 161.66 161.10 C 161.47 159.80 160.28 158.91 158.99 159.09 C 157.69 159.28 156.80 160.47 156.98 161.76 Z M 157.12 162.75 L 157.26 163.74 C 157.45 165.04 158.64 165.93 159.94 165.75 C 161.23 165.56 162.13 164.37 161.94 163.07 L 161.80 162.08 C 161.62 160.79 160.42 159.89 159.13 160.08 C 157.83 160.26 156.94 161.46 157.12 162.75 Z M 157.26 163.74 L 157.40 164.73 C 157.59 166.03 158.79 166.93 160.08 166.74 C 161.37 166.56 162.27 165.36 162.09 164.06 L 161.95 163.07 C 161.76 161.78 160.56 160.88 159.27 161.07 C 157.97 161.25 157.08 162.45 157.26 163.74 Z M 157.40 164.73 L 157.54 165.72 C 157.73 167.02 158.93 167.92 160.22 167.73 C 161.51 167.55 162.41 166.35 162.23 165.06 L 162.09 164.07 C 161.90 162.77 160.70 161.87 159.41 162.06 C 158.12 162.24 157.22 163.44 157.40 164.73 Z M 157.55 165.72 L 157.69 166.71 C 157.87 168.00 159.06 168.90 160.35 168.72 C 161.64 168.54 162.54 167.35 162.36 166.06 L 162.22 165.06 C 162.04 163.77 160.85 162.87 159.56 163.05 C 158.27 163.23 157.37 164.43 157.55 165.72 Z M 157.69 166.69 L 157.82 167.68 C 157.99 168.97 159.17 169.87 160.46 169.70 C 161.75 169.53 162.65 168.35 162.48 167.07 L 162.35 166.07 C 162.18 164.79 161.00 163.88 159.72 164.05 C 158.43 164.22 157.52 165.40 157.69 166.69 Z M 157.83 167.65 L 157.94 168.59 C 158.10 169.87 159.26 170.79 160.55 170.64 C 161.83 170.48 162.75 169.32 162.59 168.03 L 162.48 167.09 C 162.33 165.81 161.16 164.89 159.88 165.05 C 158.59 165.20 157.68 166.37 157.83 167.65 Z M 157.95 168.57 L 158.05 169.48 C 158.19 170.76 159.35 171.68 160.63 171.54 C 161.91 171.39 162.83 170.24 162.69 168.96 L 162.58 168.05 C 162.44 166.77 161.29 165.85 160.01 165.99 C 158.73 166.14 157.81 167.29 157.95 168.57 Z M 158.06 169.49 L 158.17 170.47 C 158.32 171.74 159.47 172.65 160.75 172.51 C 162.02 172.36 162.94 171.21 162.79 169.93 L 162.68 168.95 C 162.53 167.68 161.38 166.76 160.10 166.91 C 158.83 167.06 157.91 168.21 158.06 169.49 Z M 158.19 170.49 L 158.33 171.59 C 158.49 172.86 159.65 173.76 160.91 173.60 C 162.18 173.44 163.08 172.28 162.92 171.01 L 162.78 169.91 C 162.62 168.64 161.46 167.74 160.19 167.90 C 158.92 168.07 158.03 169.22 158.19 170.49 Z M 158.34 171.62 L 158.48 172.60 C 158.65 173.86 159.82 174.73 161.08 174.56 C 162.34 174.38 163.22 173.21 163.04 171.95 L 162.91 170.98 C 162.73 169.72 161.56 168.84 160.30 169.02 C 159.04 169.20 158.16 170.36 158.34 171.62 Z M 158.49 172.62 L 158.63 173.59 C 158.82 174.85 160.00 175.71 161.25 175.52 C 162.51 175.34 163.37 174.16 163.18 172.91 L 163.03 171.93 C 162.84 170.67 161.67 169.81 160.42 170.00 C 159.16 170.19 158.30 171.36 158.49 172.62 Z M 158.64 173.61 L 158.80 174.63 C 159.00 175.88 160.18 176.73 161.43 176.53 C 162.68 176.34 163.53 175.16 163.33 173.91 L 163.17 172.89 C 162.97 171.64 161.80 170.79 160.55 170.99 C 159.30 171.18 158.44 172.36 158.64 173.61 Z M 158.81 174.64 L 158.98 175.66 C 159.18 176.91 160.36 177.75 161.61 177.55 C 162.86 177.34 163.70 176.17 163.49 174.92 L 163.33 173.90 C 163.12 172.65 161.94 171.80 160.70 172.01 C 159.45 172.21 158.60 173.39 158.81 174.64 Z M 158.99 175.67 L 159.16 176.67 C 159.37 177.91 160.55 178.75 161.79 178.54 C 163.03 178.33 163.87 177.15 163.66 175.90 L 163.49 174.91 C 163.28 173.66 162.10 172.83 160.85 173.04 C 159.61 173.25 158.77 174.43 158.99 175.67 Z M 159.17 176.68 L 159.35 177.74 C 159.57 178.98 160.75 179.80 161.99 179.59 C 163.23 179.37 164.05 178.19 163.83 176.95 L 163.65 175.89 C 163.43 174.65 162.25 173.83 161.01 174.05 C 159.77 174.27 158.95 175.45 159.17 176.68 Z M 159.37 177.76 L 159.56 178.78 C 159.79 180.01 160.97 180.82 162.19 180.60 C 163.42 180.37 164.23 179.19 164.01 177.96 L 163.82 176.94 C 163.59 175.71 162.41 174.90 161.18 175.12 C 159.95 175.35 159.14 176.53 159.37 177.76 Z M 159.58 178.80 L 159.76 179.76 C 160.00 180.98 161.18 181.78 162.40 181.54 C 163.62 181.30 164.41 180.12 164.18 178.91 L 163.99 177.94 C 163.75 176.72 162.57 175.93 161.35 176.17 C 160.14 176.40 159.34 177.58 159.58 178.80 Z M 159.78 179.79 L 159.97 180.71 C 160.22 181.92 161.40 182.69 162.61 182.44 C 163.82 182.19 164.60 181.01 164.35 179.81 L 164.16 178.88 C 163.91 177.68 162.73 176.90 161.52 177.15 C 160.31 177.40 159.53 178.58 159.78 179.79 Z M 159.99 180.73 L 160.20 181.68 C 160.46 182.88 161.65 183.63 162.84 183.37 C 164.04 183.11 164.80 181.92 164.54 180.73 L 164.33 179.78 C 164.07 178.58 162.88 177.82 161.68 178.09 C 160.49 178.35 159.73 179.53 159.99 180.73 Z M 160.22 181.71 L 160.45 182.70 C 160.73 183.89 161.92 184.63 163.11 184.35 C 164.30 184.07 165.03 182.88 164.75 181.69 L 164.52 180.69 C 164.24 179.51 163.05 178.77 161.86 179.05 C 160.67 179.33 159.94 180.52 160.22 181.71 Z M 160.47 182.75 L 160.72 183.71 C 161.03 184.89 162.23 185.60 163.40 185.30 C 164.58 184.99 165.29 183.79 164.98 182.62 L 164.73 181.65 C 164.43 180.47 163.23 179.76 162.05 180.07 C 160.88 180.37 160.17 181.57 160.47 182.75 Z M 160.75 183.76 L 161.01 184.70 C 161.34 185.87 162.56 186.54 163.72 186.21 C 164.88 185.88 165.56 184.67 165.23 183.51 L 164.96 182.57 C 164.63 181.40 163.42 180.73 162.25 181.06 C 161.09 181.39 160.42 182.60 160.75 183.76 Z M 161.04 184.76 L 161.34 185.72 C 161.71 186.87 162.93 187.50 164.08 187.14 C 165.23 186.77 165.86 185.55 165.50 184.40 L 165.20 183.45 C 164.84 182.30 163.61 181.66 162.46 182.03 C 161.31 182.39 160.68 183.62 161.04 184.76 Z M 161.37 185.78 L 161.70 186.72 C 162.10 187.86 163.34 188.45 164.47 188.06 C 165.60 187.66 166.20 186.42 165.80 185.29 L 165.47 184.34 C 165.08 183.21 163.84 182.61 162.70 183.01 C 161.57 183.40 160.97 184.64 161.37 185.78 Z M 161.73 186.77 L 162.08 187.70 C 162.50 188.82 163.75 189.38 164.87 188.96 C 165.99 188.54 166.55 187.29 166.13 186.17 L 165.78 185.24 C 165.36 184.12 164.11 183.56 162.99 183.98 C 161.87 184.40 161.31 185.65 161.73 186.77 Z M 162.10 187.73 L 162.47 188.65 C 162.91 189.75 164.16 190.29 165.27 189.85 C 166.37 189.41 166.91 188.15 166.47 187.05 L 166.11 186.13 C 165.67 185.03 164.41 184.49 163.31 184.93 C 162.20 185.37 161.66 186.63 162.10 187.73 Z M 162.48 188.67 L 162.85 189.54 C 163.30 190.64 164.56 191.16 165.66 190.70 C 166.75 190.25 167.27 188.99 166.82 187.89 L 166.45 187.02 C 166.00 185.93 164.74 185.41 163.64 185.86 C 162.55 186.32 162.03 187.58 162.48 188.67 Z M 162.87 189.58 L 163.27 190.48 C 163.74 191.56 165.01 192.05 166.09 191.57 C 167.17 191.09 167.66 189.83 167.19 188.75 L 166.79 187.85 C 166.31 186.77 165.05 186.28 163.97 186.76 C 162.88 187.24 162.39 188.50 162.87 189.58 Z M 163.30 190.53 L 163.74 191.46 C 164.25 192.53 165.52 192.98 166.59 192.47 C 167.65 191.96 168.11 190.69 167.60 189.62 L 167.15 188.69 C 166.65 187.63 165.37 187.18 164.31 187.68 C 163.24 188.19 162.79 189.47 163.30 190.53 Z M 163.77 191.52 L 164.25 192.45 C 164.79 193.49 166.08 193.90 167.13 193.37 C 168.17 192.83 168.58 191.54 168.04 190.49 L 167.56 189.57 C 167.02 188.52 165.74 188.11 164.69 188.65 C 163.65 189.19 163.23 190.47 163.77 191.52 Z M 164.29 192.51 L 164.78 193.39 C 165.35 194.41 166.65 194.78 167.67 194.21 C 168.70 193.64 169.07 192.34 168.50 191.31 L 168.01 190.43 C 167.44 189.41 166.14 189.04 165.11 189.61 C 164.08 190.18 163.72 191.48 164.29 192.51 Z M 164.82 193.45 L 165.35 194.33 C 165.96 195.34 167.26 195.66 168.27 195.05 C 169.28 194.44 169.60 193.13 168.99 192.13 L 168.46 191.25 C 167.85 190.24 166.54 189.92 165.54 190.53 C 164.53 191.14 164.21 192.45 164.82 193.45 Z M 165.40 194.41 L 165.96 195.25 C 166.61 196.23 167.93 196.49 168.91 195.84 C 169.89 195.19 170.15 193.86 169.50 192.89 L 168.94 192.05 C 168.29 191.07 166.96 190.81 165.99 191.46 C 165.01 192.11 164.75 193.43 165.40 194.41 Z M 166.03 195.35 L 166.62 196.13 C 167.33 197.07 168.66 197.25 169.60 196.54 C 170.54 195.84 170.72 194.50 170.02 193.56 L 169.43 192.79 C 168.72 191.85 167.38 191.66 166.45 192.37 C 165.51 193.08 165.32 194.41 166.03 195.35 Z M 166.74 196.27 L 167.47 197.09 C 168.26 197.96 169.61 198.03 170.48 197.24 C 171.35 196.45 171.42 195.11 170.63 194.23 L 169.90 193.42 C 169.11 192.55 167.76 192.48 166.89 193.27 C 166.02 194.05 165.95 195.40 166.74 196.27 Z M 167.64 197.26 L 168.39 197.92 C 169.27 198.70 170.62 198.62 171.40 197.74 C 172.18 196.86 172.10 195.51 171.22 194.73 L 170.47 194.06 C 169.59 193.28 168.24 193.36 167.45 194.24 C 166.67 195.13 166.75 196.48 167.64 197.26 Z M 168.59 198.09 L 169.36 198.62 C 170.33 199.29 171.66 199.04 172.33 198.07 C 173.01 197.10 172.76 195.76 171.79 195.09 L 171.02 194.56 C 170.04 193.89 168.71 194.14 168.04 195.11 C 167.37 196.08 167.61 197.42 168.59 198.09 Z M 169.59 198.76 L 170.44 199.20 C 171.49 199.74 172.78 199.32 173.33 198.27 C 173.87 197.21 173.45 195.92 172.40 195.38 L 171.55 194.95 C 170.50 194.40 169.20 194.82 168.66 195.87 C 168.12 196.93 168.54 198.22 169.59 198.76 Z M 170.69 199.32 L 171.61 199.65 C 172.73 200.05 173.96 199.47 174.36 198.35 C 174.77 197.23 174.18 195.99 173.07 195.59 L 172.14 195.26 C 171.02 194.86 169.79 195.44 169.39 196.56 C 168.99 197.68 169.57 198.91 170.69 199.32 Z M 171.84 199.72 L 172.82 199.95 C 173.98 200.23 175.14 199.51 175.42 198.34 C 175.69 197.18 174.97 196.02 173.81 195.75 L 172.83 195.52 C 171.67 195.24 170.51 195.96 170.23 197.12 C 169.96 198.29 170.68 199.45 171.84 199.72 Z M 172.99 199.99 L 173.97 200.14 C 175.16 200.32 176.26 199.50 176.44 198.31 C 176.61 197.13 175.79 196.03 174.61 195.85 L 173.63 195.70 C 172.45 195.53 171.34 196.35 171.17 197.53 C 170.99 198.71 171.81 199.82 172.99 199.99 Z M 174.09 200.16 L 175.03 200.25 C 176.23 200.36 177.29 199.48 177.40 198.28 C 177.51 197.09 176.63 196.03 175.44 195.92 L 174.49 195.83 C 173.30 195.72 172.24 196.60 172.12 197.79 C 172.01 198.99 172.89 200.05 174.09 200.16 Z M 175.11 200.26 L 176.12 200.32 C 177.32 200.39 178.35 199.46 178.42 198.26 C 178.48 197.06 177.56 196.02 176.36 195.96 L 175.36 195.90 C 174.15 195.83 173.12 196.76 173.06 197.96 C 172.99 199.16 173.91 200.20 175.11 200.26 Z M 176.17 200.33 L 177.23 200.36 C 178.44 200.40 179.45 199.45 179.49 198.24 C 179.52 197.03 178.57 196.02 177.36 195.98 L 176.30 195.95 C 175.09 195.91 174.08 196.86 174.05 198.07 C 174.01 199.28 174.96 200.29 176.17 200.33 Z M 177.26 200.37 L 178.27 200.39 C 179.49 200.41 180.49 199.44 180.51 198.23 C 180.53 197.01 179.56 196.01 178.35 195.99 L 177.33 195.97 C 176.12 195.95 175.11 196.92 175.09 198.13 C 175.07 199.35 176.04 200.35 177.26 200.37 Z M 178.29 200.40 L 179.29 200.41 C 180.51 200.42 181.51 199.44 181.52 198.22 C 181.53 197.00 180.55 196.00 179.34 195.99 L 178.33 195.98 C 177.11 195.97 176.11 196.95 176.10 198.17 C 176.09 199.39 177.07 200.38 178.29 200.40 Z M 179.31 200.41 L 180.32 200.42 C 181.54 200.42 182.54 199.43 182.54 198.21 C 182.55 196.99 181.56 195.99 180.34 195.99 L 179.32 195.98 C 178.10 195.98 177.11 196.97 177.10 198.19 C 177.10 199.41 178.08 200.41 179.31 200.41 Z M 180.33 200.42 L 181.33 200.42 C 182.56 200.43 183.55 199.43 183.55 198.21 C 183.55 196.98 182.56 195.98 181.33 195.98 L 180.33 195.98 C 179.10 195.98 178.11 196.97 178.11 198.20 C 178.11 199.43 179.10 200.42 180.33 200.42 Z M 181.33 200.43 L 182.34 200.43 C 183.57 200.43 184.57 199.43 184.57 198.20 C 184.57 196.97 183.57 195.97 182.34 195.97 L 181.33 195.97 C 180.10 195.97 179.10 196.97 179.10 198.20 C 179.10 199.43 180.10 200.43 181.33 200.43 Z M 182.35 200.44 L 183.35 200.43 C 184.59 200.43 185.58 199.42 185.58 198.19 C 185.57 196.95 184.57 195.96 183.33 195.96 L 182.33 195.97 C 181.09 195.97 180.10 196.98 180.10 198.21 C 180.11 199.45 181.11 200.44 182.35 200.44 Z M 183.38 200.44 L 184.37 200.43 C 185.61 200.41 186.59 199.39 186.57 198.15 C 186.55 196.91 185.53 195.92 184.29 195.94 L 183.31 195.96 C 182.07 195.98 181.08 197.00 181.10 198.23 C 181.12 199.47 182.14 200.46 183.38 200.44 Z M 184.41 200.43 L 185.40 200.40 C 186.64 200.35 187.61 199.31 187.57 198.07 C 187.52 196.82 186.48 195.85 185.24 195.90 L 184.25 195.93 C 183.01 195.98 182.04 197.02 182.08 198.26 C 182.12 199.51 183.17 200.48 184.41 200.43 Z M 185.46 200.41 L 186.45 200.34 C 187.69 200.27 188.64 199.20 188.57 197.95 C 188.49 196.70 187.42 195.75 186.17 195.83 L 185.18 195.89 C 183.93 195.97 182.98 197.04 183.06 198.29 C 183.14 199.53 184.21 200.48 185.46 200.41 Z M 186.50 200.36 L 187.50 200.27 C 188.75 200.17 189.68 199.06 189.58 197.81 C 189.47 196.56 188.37 195.63 187.12 195.73 L 186.12 195.82 C 184.87 195.92 183.94 197.03 184.04 198.28 C 184.15 199.53 185.25 200.46 186.50 200.36 Z M 187.54 200.28 L 188.54 200.18 C 189.80 200.06 190.72 198.93 190.59 197.67 C 190.47 196.41 189.34 195.49 188.08 195.62 L 187.08 195.72 C 185.82 195.85 184.90 196.97 185.03 198.23 C 185.15 199.49 186.28 200.41 187.54 200.28 Z M 188.57 200.20 L 189.56 200.08 C 190.83 199.94 191.74 198.80 191.60 197.53 C 191.46 196.27 190.32 195.35 189.05 195.50 L 188.06 195.61 C 186.79 195.75 185.88 196.89 186.02 198.16 C 186.16 199.43 187.30 200.34 188.57 200.20 Z M 189.58 200.10 L 190.60 199.98 C 191.88 199.83 192.79 198.67 192.64 197.40 C 192.49 196.12 191.33 195.21 190.05 195.36 L 189.04 195.48 C 187.76 195.63 186.85 196.79 187.00 198.06 C 187.15 199.34 188.30 200.25 189.58 200.10 Z M 190.61 200.00 L 191.63 199.88 C 192.91 199.73 193.83 198.56 193.68 197.27 C 193.52 195.98 192.35 195.06 191.07 195.21 L 190.05 195.34 C 188.76 195.49 187.84 196.66 187.99 197.95 C 188.15 199.24 189.32 200.16 190.61 200.00 Z M 191.63 199.91 L 192.61 199.79 C 193.92 199.63 194.85 198.45 194.69 197.15 C 194.53 195.85 193.35 194.92 192.05 195.07 L 191.06 195.19 C 189.76 195.34 188.83 196.53 188.99 197.83 C 189.14 199.13 190.32 200.06 191.63 199.91 Z M 192.61 199.81 L 193.56 199.70 C 194.88 199.55 195.82 198.36 195.67 197.05 C 195.52 195.73 194.33 194.78 193.01 194.94 L 192.06 195.05 C 190.74 195.20 189.80 196.39 189.95 197.71 C 190.10 199.02 191.29 199.97 192.61 199.81 Z M 193.55 199.73 L 194.56 199.62 C 195.90 199.48 196.86 198.28 196.71 196.95 C 196.57 195.62 195.37 194.65 194.04 194.80 L 193.02 194.91 C 191.69 195.05 190.73 196.25 190.87 197.58 C 191.02 198.91 192.21 199.88 193.55 199.73 Z M 194.56 199.65 L 195.56 199.55 C 196.91 199.41 197.89 198.20 197.74 196.85 C 197.60 195.50 196.39 194.52 195.04 194.66 L 194.04 194.77 C 192.69 194.91 191.71 196.12 191.86 197.47 C 192.00 198.82 193.21 199.80 194.56 199.65 Z M 195.57 199.58 L 196.55 199.47 C 197.91 199.32 198.90 198.09 198.75 196.72 C 198.60 195.36 197.37 194.37 196.00 194.52 L 195.03 194.63 C 193.66 194.78 192.68 196.01 192.83 197.38 C 192.98 198.74 194.21 199.73 195.57 199.58 Z M 196.58 199.49 L 197.54 199.38 C 198.92 199.21 199.90 197.95 199.73 196.57 C 199.56 195.19 198.30 194.21 196.92 194.38 L 195.97 194.50 C 194.59 194.67 193.61 195.93 193.78 197.31 C 193.95 198.68 195.20 199.66 196.58 199.49 Z M 197.60 199.39 L 198.56 199.24 C 199.95 199.04 200.91 197.75 200.70 196.36 C 200.49 194.98 199.21 194.02 197.82 194.23 L 196.86 194.37 C 195.48 194.58 194.52 195.87 194.72 197.25 C 194.93 198.64 196.22 199.59 197.60 199.39 Z M 198.66 199.24 L 199.65 199.06 C 201.03 198.80 201.95 197.47 201.69 196.09 C 201.43 194.70 200.10 193.79 198.71 194.05 L 197.73 194.23 C 196.34 194.49 195.43 195.82 195.69 197.20 C 195.94 198.59 197.28 199.50 198.66 199.24 Z M 199.76 199.05 L 200.78 198.81 C 202.16 198.49 203.01 197.12 202.69 195.74 C 202.37 194.36 200.99 193.50 199.61 193.82 L 198.60 194.06 C 197.22 194.38 196.36 195.75 196.68 197.13 C 197.00 198.51 198.38 199.37 199.76 199.05 Z M 200.91 198.79 L 201.90 198.50 C 203.26 198.10 204.04 196.68 203.65 195.31 C 203.25 193.95 201.82 193.17 200.46 193.56 L 199.48 193.85 C 198.11 194.24 197.33 195.67 197.73 197.03 C 198.12 198.40 199.55 199.18 200.91 198.79 Z M 202.10 198.43 L 203.05 198.07 C 204.38 197.56 205.04 196.07 204.53 194.74 C 204.03 193.42 202.54 192.76 201.21 193.26 L 200.26 193.63 C 198.93 194.14 198.27 195.63 198.78 196.95 C 199.28 198.28 200.77 198.94 202.10 198.43 Z M 203.35 197.93 L 204.21 197.47 C 205.46 196.79 205.93 195.23 205.25 193.98 C 204.58 192.73 203.02 192.26 201.77 192.94 L 200.91 193.40 C 199.66 194.07 199.19 195.64 199.87 196.89 C 200.54 198.14 202.10 198.60 203.35 197.93 Z M 204.65 197.17 L 205.40 196.54 C 206.49 195.63 206.63 194.00 205.71 192.91 C 204.79 191.83 203.17 191.69 202.08 192.60 L 201.33 193.23 C 200.24 194.15 200.10 195.77 201.02 196.86 C 201.94 197.95 203.56 198.09 204.65 197.17 Z M 205.84 196.07 L 206.40 195.27 C 207.23 194.12 206.96 192.51 205.81 191.68 C 204.65 190.85 203.04 191.12 202.21 192.28 L 201.64 193.07 C 200.82 194.23 201.08 195.84 202.24 196.67 C 203.40 197.49 205.01 197.23 205.84 196.07 Z M 206.68 194.78 L 207.07 193.87 C 207.62 192.55 207.01 191.04 205.70 190.49 C 204.39 189.93 202.88 190.55 202.32 191.86 L 201.93 192.77 C 201.38 194.08 201.99 195.60 203.30 196.15 C 204.61 196.71 206.13 196.09 206.68 194.78 Z M 207.19 193.48 L 207.42 192.54 C 207.76 191.16 206.92 189.77 205.54 189.43 C 204.16 189.09 202.77 189.93 202.43 191.31 L 202.20 192.25 C 201.86 193.63 202.70 195.02 204.08 195.36 C 205.46 195.70 206.85 194.86 207.19 193.48 Z M 207.46 192.28 L 207.59 191.36 C 207.78 189.96 206.81 188.67 205.41 188.48 C 204.01 188.28 202.72 189.26 202.52 190.65 L 202.39 191.57 C 202.20 192.97 203.17 194.27 204.57 194.46 C 205.97 194.66 207.26 193.68 207.46 192.28 Z M 207.58 191.19 L 207.66 190.20 C 207.76 188.80 206.71 187.58 205.31 187.48 C 203.91 187.38 202.70 188.43 202.60 189.83 L 202.52 190.82 C 202.42 192.22 203.47 193.44 204.87 193.54 C 206.27 193.64 207.48 192.59 207.58 191.19 Z M 207.64 190.10 L 207.68 189.01 C 207.72 187.62 206.63 186.46 205.25 186.42 C 203.86 186.37 202.69 187.46 202.65 188.85 L 202.61 189.93 C 202.57 191.32 203.65 192.48 205.04 192.53 C 206.43 192.57 207.59 191.48 207.64 190.10 Z M 207.64 188.97 L 207.66 187.98 C 207.68 186.61 206.59 185.49 205.22 185.47 C 203.85 185.44 202.72 186.53 202.70 187.90 L 202.68 188.89 C 202.66 190.26 203.75 191.39 205.12 191.41 C 206.49 191.43 207.62 190.34 207.64 188.97 Z M 207.60 187.96 L 207.60 187.00 C 207.61 185.66 206.54 184.57 205.20 184.56 C 203.86 184.55 202.77 185.63 202.76 186.97 L 202.76 187.93 C 202.75 189.26 203.83 190.35 205.16 190.36 C 206.50 190.37 207.59 189.29 207.60 187.96 Z M 207.54 186.97 L 207.53 185.97 C 207.53 184.67 206.47 183.62 205.17 183.62 C 203.87 183.63 202.82 184.69 202.82 185.99 L 202.83 186.99 C 202.83 188.29 203.89 189.34 205.20 189.34 C 206.50 189.33 207.55 188.27 207.54 186.97 Z M 207.47 185.94 L 207.45 184.91 C 207.43 183.64 206.38 182.64 205.12 182.66 C 203.85 182.68 202.85 183.72 202.87 184.99 L 202.89 186.02 C 202.91 187.29 203.96 188.29 205.22 188.27 C 206.48 188.25 207.49 187.20 207.47 185.94 Z M 207.38 184.87 L 207.35 183.82 C 207.31 182.60 206.28 181.63 205.05 181.67 C 203.82 181.71 202.86 182.74 202.90 183.97 L 202.94 185.02 C 202.98 186.25 204.01 187.21 205.23 187.17 C 206.46 187.13 207.43 186.10 207.38 184.87 Z M 207.28 183.79 L 207.23 182.73 C 207.17 181.54 206.15 180.62 204.96 180.68 C 203.77 180.74 202.85 181.76 202.91 182.95 L 202.97 184.01 C 203.03 185.20 204.04 186.12 205.23 186.06 C 206.43 186.00 207.34 184.98 207.28 183.79 Z M 207.16 182.70 L 207.09 181.65 C 207.01 180.49 206.01 179.62 204.86 179.70 C 203.70 179.78 202.83 180.78 202.91 181.93 L 202.98 182.98 C 203.06 184.14 204.06 185.01 205.21 184.93 C 206.37 184.85 207.24 183.85 207.16 182.70 Z M 207.02 181.61 L 206.93 180.59 C 206.83 179.48 205.85 178.65 204.73 178.75 C 203.62 178.85 202.79 179.83 202.89 180.95 L 202.98 181.97 C 203.08 183.08 204.06 183.91 205.18 183.81 C 206.29 183.71 207.12 182.73 207.02 181.61 Z M 206.86 180.56 L 206.75 179.59 C 206.64 178.52 205.67 177.74 204.59 177.85 C 203.52 177.97 202.74 178.94 202.86 180.01 L 202.96 180.98 C 203.08 182.06 204.04 182.84 205.12 182.72 C 206.20 182.60 206.98 181.64 206.86 180.56 Z M 206.68 179.55 L 206.56 178.65 C 206.43 177.62 205.47 176.89 204.44 177.03 C 203.40 177.16 202.67 178.12 202.81 179.15 L 202.93 180.05 C 203.07 181.09 204.02 181.82 205.05 181.68 C 206.09 181.54 206.82 180.59 206.68 179.55 Z M 206.50 178.60 L 206.32 177.52 C 206.15 176.52 205.21 175.85 204.20 176.01 C 203.20 176.18 202.53 177.13 202.69 178.13 L 202.87 179.21 C 203.04 180.21 203.99 180.88 204.99 180.72 C 205.99 180.55 206.67 179.60 206.50 178.60 Z M 206.26 177.47 L 206.07 176.50 C 205.87 175.53 204.93 174.90 203.96 175.09 C 202.99 175.29 202.36 176.23 202.55 177.20 L 202.75 178.18 C 202.94 179.15 203.89 179.78 204.86 179.58 C 205.83 179.39 206.46 178.44 206.26 177.47 Z M 206.02 176.48 L 205.82 175.56 C 205.61 174.61 204.68 174.01 203.74 174.22 C 202.80 174.42 202.20 175.35 202.40 176.30 L 202.60 177.22 C 202.81 178.16 203.74 178.76 204.68 178.55 C 205.62 178.35 206.22 177.42 206.02 176.48 Z M 205.78 175.57 L 205.59 174.66 C 205.39 173.73 204.49 173.14 203.56 173.34 C 202.64 173.53 202.05 174.44 202.25 175.36 L 202.44 176.28 C 202.64 177.20 203.54 177.79 204.46 177.60 C 205.39 177.40 205.98 176.50 205.78 175.57 Z M 205.57 174.69 L 205.39 173.74 C 205.21 172.83 204.32 172.23 203.41 172.41 C 202.49 172.59 201.90 173.48 202.08 174.39 L 202.26 175.33 C 202.44 176.25 203.33 176.84 204.24 176.66 C 205.15 176.49 205.75 175.60 205.57 174.69 Z M 205.38 173.75 L 205.19 172.77 C 205.02 171.86 204.14 171.27 203.23 171.44 C 202.33 171.61 201.73 172.49 201.90 173.40 L 202.09 174.38 C 202.26 175.29 203.14 175.88 204.04 175.71 C 204.95 175.54 205.55 174.66 205.38 173.75 Z M 205.18 172.77 L 204.98 171.74 C 204.81 170.84 203.94 170.25 203.03 170.43 C 202.13 170.60 201.54 171.47 201.71 172.37 L 201.91 173.40 C 202.09 174.30 202.96 174.89 203.86 174.72 C 204.76 174.54 205.35 173.67 205.18 172.77 Z M 204.97 171.73 L 204.77 170.76 C 204.59 169.86 203.72 169.28 202.82 169.46 C 201.93 169.64 201.35 170.52 201.53 171.41 L 201.73 172.39 C 201.91 173.28 202.78 173.86 203.68 173.68 C 204.57 173.50 205.15 172.63 204.97 171.73 Z M 204.77 170.74 L 204.56 169.77 C 204.37 168.88 203.50 168.31 202.61 168.50 C 201.72 168.69 201.14 169.56 201.33 170.45 L 201.54 171.42 C 201.72 172.32 202.60 172.89 203.49 172.70 C 204.38 172.51 204.95 171.64 204.77 170.74 Z M 204.56 169.77 L 204.35 168.78 C 204.16 167.89 203.28 167.32 202.39 167.51 C 201.50 167.70 200.94 168.58 201.13 169.47 L 201.34 170.46 C 201.53 171.35 202.40 171.91 203.29 171.72 C 204.18 171.53 204.75 170.66 204.56 169.77 Z M 204.34 168.78 L 204.13 167.79 C 203.94 166.90 203.07 166.34 202.18 166.52 C 201.30 166.71 200.73 167.58 200.92 168.47 L 201.13 169.47 C 201.32 170.35 202.19 170.92 203.08 170.73 C 203.96 170.54 204.53 169.67 204.34 168.78 Z M 204.13 167.80 L 203.93 166.81 C 203.74 165.92 202.88 165.35 201.99 165.53 C 201.10 165.72 200.53 166.59 200.71 167.47 L 200.92 168.46 C 201.10 169.35 201.97 169.92 202.86 169.74 C 203.74 169.55 204.31 168.69 204.13 167.80 Z M 203.93 166.82 L 203.73 165.83 C 203.55 164.95 202.68 164.37 201.80 164.55 C 200.91 164.73 200.34 165.59 200.52 166.48 L 200.71 167.46 C 200.89 168.35 201.76 168.93 202.65 168.75 C 203.53 168.57 204.11 167.70 203.93 166.82 Z M 203.73 165.83 L 203.53 164.86 C 203.35 163.97 202.49 163.39 201.60 163.57 C 200.71 163.75 200.14 164.62 200.32 165.50 L 200.52 166.48 C 200.69 167.37 201.56 167.94 202.45 167.76 C 203.33 167.58 203.91 166.72 203.73 165.83 Z M 203.53 164.85 L 203.33 163.88 C 203.15 162.99 202.28 162.42 201.40 162.60 C 200.51 162.78 199.94 163.65 200.12 164.53 L 200.32 165.51 C 200.50 166.39 201.37 166.96 202.25 166.78 C 203.14 166.60 203.71 165.74 203.53 164.85 Z M 203.33 163.86 L 203.12 162.89 C 202.93 162.01 202.06 161.44 201.18 161.63 C 200.30 161.82 199.73 162.68 199.92 163.57 L 200.12 164.54 C 200.31 165.43 201.18 165.99 202.06 165.81 C 202.95 165.62 203.51 164.75 203.33 163.86 Z M 203.12 162.88 L 202.90 161.90 C 202.71 161.02 201.84 160.46 200.95 160.65 C 200.07 160.85 199.51 161.72 199.71 162.61 L 199.92 163.58 C 200.11 164.46 200.99 165.02 201.87 164.83 C 202.75 164.63 203.31 163.76 203.12 162.88 Z M 202.90 161.89 L 202.68 160.92 C 202.48 160.04 201.61 159.48 200.72 159.68 C 199.84 159.88 199.29 160.76 199.49 161.64 L 199.71 162.61 C 199.91 163.50 200.78 164.05 201.66 163.85 C 202.55 163.65 203.10 162.77 202.90 161.89 Z M 202.68 160.91 L 202.46 159.94 C 202.25 159.05 201.38 158.50 200.49 158.71 C 199.61 158.91 199.06 159.79 199.26 160.67 L 199.49 161.64 C 199.69 162.53 200.57 163.08 201.45 162.87 C 202.33 162.67 202.88 161.79 202.68 160.91 Z M 202.46 159.93 L 202.32 159.37 C 202.12 158.49 201.24 157.94 200.36 158.14 C 199.48 158.35 198.93 159.22 199.13 160.11 L 199.27 160.67 C 199.47 161.55 200.35 162.10 201.23 161.90 C 202.11 161.69 202.66 160.81 202.46 159.93 Z"
      fill="black"
      fill-rule="nonzero" /></svg>