<svg xmlns="http://www.w3.org/2000/svg" version="1.0" width="937.000000pt" height="937.000000pt" viewBox="0 0 937.000000 937.000000" preserveAspectRatio="xMidYMid meet">
  <defs/>
  <path fill="#000000" d="M513.8,294.5 C510.2,296.5 509.7,299.1 510.2,311.6 L510.7,322.1 L508.1,321.5 C506.7,321.1 502.3,319.2 498.4,317.3 L491.3,313.7 L488.4,315.1 C486.9,315.9 484.9,317.7 484.1,319.1 L482.6,321.7 L484,324.9 C485.6,328.8 494.8,334.2 504.2,336.7 L510.8,338.4 L511.5,345 C512.5,355.7 509.1,379.1 506.1,382.3 C505.6,382.7 499.1,384 491.4,385 C460.5,389.4 454.5,391.2 451.6,397.5 L449.9,401.1 L451.7,404.8 C453,407.4 454.9,409.2 458.5,411 L463.5,413.5 L473,413.4 C488.8,413.2 496.5,411 504.7,404.4 C508,401.7 509.7,401 513.2,401 L517.6,401 L520.6,404.1 C525.3,409.1 528.7,410.4 536.7,410.4 L543.8,410.3 L549.4,407.6 C552.5,406.1 557.4,402.7 560.3,400 L565.5,395.2 L581.1,394.2 C592.1,393.4 598.9,393.4 603.8,394.2 C607.7,394.8 612,395 613.4,394.6 C618.1,393.4 618,387 613.2,385.1 C608,383 596.4,381.1 584.4,380.4 L572.3,379.7 L573.3,374.6 C574.6,367.5 573.7,358.4 571,352.3 C566.6,342 552.8,332.9 534.1,327.9 L526,325.7 L525.9,316.1 C525.9,304.6 524.8,297.4 522.9,295.5 C520.7,293.3 516.7,292.9 513.8,294.5 Z M536,344.5 C548.1,348.6 555.5,354 557.9,360.3 C559.1,363.4 559.2,373.1 558.1,377 L557.4,379.5 L545.1,380.1 C538.3,380.5 529.7,381.1 526,381.4 L519.3,382.1 L521.6,373.9 C523.5,367.6 525.9,350.1 526,342.7 C526,341.5 528.3,341.9 536,344.5 Z"/>
  <path fill="#000000" d="M423,322.7 C419.2,325.3 418.2,327 417,333 C416.3,336 414.7,342.1 413.4,346.6 L411,354.7 L389.2,357.8 C377.3,359.6 361.9,361.8 355.1,362.7 L342.6,364.4 L342.2,363.1 C341.2,360.2 337.9,358 334.6,358 L331.3,358 L327.1,362.5 C322.6,367.4 321.9,370.9 324.5,375.9 C326.6,380 331.1,381.5 341,381.3 C348.3,381.1 385.1,376.1 400.5,373.1 C403.2,372.6 405.6,372.3 405.8,372.4 C406.5,373.1 395.7,411.9 393.4,417.1 L390.7,423 L386,423 C383.4,423 379.8,423.3 378.1,423.6 L375,424.2 L375,420.6 C375,415.6 372,412.8 367.2,413.2 L363.5,413.5 L360,420.5 L356.5,427.5 L356.6,436.5 C356.8,449.4 366.6,495.4 371,504.1 C374.1,510.1 381.4,514 389.8,514 L393,514 L393,516.9 C393,520.1 393.4,519.9 381,524.1 C369.4,528.1 360.7,530.3 335.3,535.5 C311.1,540.4 307.3,541.5 298.4,546.5 C291.6,550.3 287,555 287,558.2 C287,559.3 288.4,561.5 290.1,563.2 L293.1,566.3 L298.4,565.7 C301.2,565.4 309.7,563.1 317,560.6 C343.6,551.4 393.8,539 395.2,541.2 C395.6,541.9 396,544.5 396,547 C396,549.5 396.5,555.3 397,560 C397.5,564.7 398.6,582.2 399.5,599 C400.3,615.8 401.5,634.4 402,640.5 L403,651.5 L405.1,653.3 C407.8,655.5 409.5,655.5 411.9,653.1 L413.7,651.3 L414.3,599.4 C414.6,570.8 414.7,544.8 414.6,541.6 L414.5,535.6 L444,529 C460.2,525.4 474.9,521.9 476.6,521.2 C480.8,519.4 482.5,515.7 480.8,512.2 L479.5,509.5 L467.8,509.2 L456.2,508.9 L454.4,510.7 C453.2,511.9 447.9,513.3 437.6,515.2 C429.3,516.7 422.4,517.8 422.3,517.6 C422.1,517.4 423.7,516.2 425.7,514.8 C429.2,512.4 435.4,507.4 445.9,498.3 C448.4,496.2 451.3,492.3 452.6,489.5 C457.5,478.6 458.3,455.2 454.1,444 C449.1,430.5 434.5,423 413.3,423 C408.2,423 404,422.8 404,422.6 C404,422.4 405.3,419.6 406.8,416.4 C408.4,413.1 413,401.2 417.1,389.8 L424.5,369.2 L439,367 C459.6,363.8 471.9,361.2 476,359.1 C480.1,357 481.8,353.2 480.4,349.4 C479.3,346.1 475,343.8 455.5,335.9 C447.3,332.6 439.6,328.9 438.5,327.7 C432.5,321 427.6,319.5 423,322.7 Z M446.3,343.9 C452.2,346.3 456.9,348.5 456.6,348.7 C455.9,349.4 431.8,352.1 431.3,351.6 C430.6,351 434.2,338.9 434.9,339.2 C435.3,339.4 440.4,341.5 446.3,343.9 Z M428.3,440.6 C434.5,442.7 438.6,446.7 440,452.1 C441.7,458.1 441.7,480.4 440.1,485.3 L438.8,489.2 L435.1,488.3 C433.1,487.9 428.5,487.5 424.9,487.6 L418.3,487.7 L424.4,483.1 C438.7,472.3 438.6,458.2 424.2,455.1 C414.5,453.1 392.6,454.3 381.1,457.6 C378.2,458.4 375.6,458.9 375.3,458.6 C375,458.4 374.4,456.3 373.9,453.9 L372.9,449.7 L374.7,447.8 C375.7,446.7 376.4,444.4 376.3,442.5 L376.2,439 L399.9,439 L423.6,439 L428.3,440.6 Z M421.8,467.9 C424.2,469.4 418.3,474.7 408.8,479.5 C403.9,482 398.8,484 397.6,484 C395.4,484 383,473.8 383,472 C383,469.6 418.5,465.8 421.8,467.9 Z M417.5,504.9 L420.5,505.5 L416.7,507.9 C412.4,510.5 412.4,510.5 411.5,506.7 L410.8,504 L412.6,504.1 C413.7,504.2 415.9,504.5 417.5,504.9 Z"/>
  <path fill="#000000" d="M517.6,415 C509.9,416.3 504.4,419.8 503.1,424.5 L502.1,428.1 L506.6,446.2 C510.2,460.6 510.9,464.5 509.8,465.1 C507.6,466.5 507.5,466.3 503.7,458.2 C496.6,443.2 495.4,435.8 498.5,428.3 C501.6,420.9 499.2,415 493.1,415 C488.4,415 486.9,416 484.8,420.9 C481.8,428 480.8,434.8 482,441 C483,446.5 488.4,458.6 493.5,466.7 L496.1,470.9 L490.3,473.7 C483.7,476.9 482,480.1 484.2,484.7 C486.3,489.2 489.4,490.2 499.2,489.5 L507.9,488.9 L512.2,493.1 L516.5,497.3 L500.7,496.7 L484.9,496 L482.4,498.5 C479.4,501.6 479.4,504.1 482.4,507.7 L484.8,510.5 L508.4,510.9 L532,511.2 L532,515.5 L532,519.9 L527.8,523.3 C515.9,533 487.8,548.5 471.2,554.6 C461.8,558 458,561.1 458,565.4 C458,567.1 458.7,569.5 459.5,570.7 C461.9,574.2 465.2,574.3 473.3,571 C477.4,569.4 484.6,567.1 489.4,566 C497,564.3 529.4,558 531.1,558 C531.4,558 532,570.3 532.3,585.2 C532.7,600.2 533.9,624.6 535,639.5 C536.1,654.3 537,667.1 537,667.9 C537,668.9 536,668.5 534.2,666.7 C532.7,665.2 530.4,664 529.2,664 C526.6,664 523.6,668.2 524.4,670.7 C524.7,671.7 528.1,675.8 531.9,679.7 L538.9,687 L542.3,687 C544.2,687 546.8,686.1 548.1,685.1 L550.5,683.2 L550.5,662.8 C550.5,651.7 550.1,622.9 549.6,598.9 L548.7,555.2 L553.6,554.2 C556.3,553.6 566,551.9 575.3,550.4 C593.2,547.5 597.5,545.8 598.6,541.4 C599.7,536.9 597.1,533.9 588,528.8 C578.4,523.5 574.9,522.9 572.6,526.2 C570.4,529.3 570.5,529.8 574,533 L577.1,535.9 L573.8,536.4 C564.8,537.8 550.9,539.1 550.2,538.6 C549.7,538.3 549.5,534.6 549.8,530.3 C550.2,524.5 550.8,521.8 552.4,519.7 C555.4,515.6 555.3,507.6 552.2,503.3 L549.9,500 L551.9,492.9 C553,489 553.7,485.3 553.4,484.5 C553.1,483.7 553.8,482.9 555.2,482.5 C558.8,481.4 561,478.9 561,476 C561,470.8 553.8,467.7 541.6,467.8 C537.8,467.9 535.1,467.5 535.6,467.1 C536.1,466.7 539.4,464.3 543,461.8 C554.4,453.7 562.9,446.1 565,442 C567.4,437.4 567.6,430.1 565.6,426.1 C563.5,422.1 557.7,417.3 553.3,416 C548.1,414.5 524.9,413.9 517.6,415 Z M547.9,429.3 C555.6,432 554.4,436.1 543.3,445.1 C534.7,451.9 522.2,459.6 521.2,458.6 C520.2,457.6 515.2,431.8 515.7,430.3 C516.3,428.7 519.5,428.3 533,428.2 C539.6,428.2 546,428.6 547.9,429.3 Z M536,484.7 C535.9,485.2 535.1,488 534,491 L532.1,496.5 L528,496.8 L523.8,497.1 L525.4,494.8 C526.3,493.6 527,490.9 527,488.9 C527,484.9 527.8,484.3 533.3,484.1 C534.8,484.1 536,484.3 536,484.7 Z"/>
</svg>

