<svg xmlns="http://www.w3.org/2000/svg" width="300" height="300" viewBox="0 0 300 300">
<path d="M 126.99 107.45 L 127.85 107.76 C 129.05 108.19 130.38 107.56 130.81 106.35 C 131.24 105.15 130.61 103.83 129.40 103.40 L 128.54 103.09 C 127.34 102.66 126.01 103.29 125.58 104.49 C 125.15 105.69 125.78 107.02 126.99 107.45 Z M 127.91 107.82 L 128.82 108.11 C 130.06 108.50 131.38 107.82 131.77 106.58 C 132.17 105.34 131.48 104.02 130.25 103.63 L 129.34 103.34 C 128.10 102.94 126.78 103.63 126.39 104.86 C 125.99 106.10 126.68 107.42 127.91 107.82 Z M 128.95 108.18 L 129.93 108.43 C 131.21 108.75 132.51 107.98 132.84 106.70 C 133.16 105.42 132.38 104.12 131.10 103.80 L 130.12 103.55 C 128.84 103.23 127.54 104.00 127.22 105.28 C 126.89 106.56 127.67 107.86 128.95 108.18 Z M 130.11 108.51 L 131.20 108.69 C 132.52 108.92 133.77 108.03 134.00 106.71 C 134.22 105.39 133.34 104.14 132.02 103.91 L 130.93 103.72 C 129.61 103.50 128.35 104.39 128.13 105.71 C 127.90 107.03 128.79 108.28 130.11 108.51 Z M 131.36 108.73 L 132.28 108.82 C 133.62 108.96 134.81 107.98 134.95 106.64 C 135.09 105.30 134.11 104.11 132.77 103.97 L 131.86 103.88 C 130.52 103.74 129.32 104.71 129.18 106.05 C 129.05 107.39 130.02 108.59 131.36 108.73 Z M 132.38 108.82 L 133.36 108.87 C 134.70 108.95 135.85 107.93 135.93 106.60 C 136.01 105.26 134.99 104.11 133.65 104.03 L 132.67 103.97 C 131.33 103.89 130.18 104.91 130.10 106.25 C 130.02 107.59 131.04 108.74 132.38 108.82 Z M 133.43 108.87 L 134.45 108.90 C 135.78 108.94 136.90 107.89 136.94 106.56 C 136.98 105.23 135.93 104.11 134.60 104.07 L 133.58 104.04 C 132.25 104.00 131.13 105.05 131.09 106.38 C 131.05 107.71 132.10 108.82 133.43 108.87 Z M 134.50 108.89 L 135.54 108.90 C 136.86 108.91 137.95 107.85 137.97 106.53 C 137.98 105.20 136.92 104.11 135.60 104.10 L 134.56 104.08 C 133.23 104.07 132.14 105.13 132.13 106.45 C 132.11 107.78 133.17 108.87 134.50 108.89 Z M 135.56 108.89 L 136.60 108.89 C 137.91 108.89 138.99 107.83 138.99 106.51 C 138.99 105.19 137.93 104.11 136.61 104.11 L 135.57 104.11 C 134.25 104.10 133.18 105.17 133.18 106.49 C 133.17 107.81 134.24 108.88 135.56 108.89 Z M 136.60 108.87 L 137.65 108.87 C 138.96 108.87 140.02 107.81 140.02 106.50 C 140.02 105.19 138.96 104.13 137.65 104.13 L 136.60 104.13 C 135.29 104.13 134.23 105.19 134.23 106.50 C 134.23 107.81 135.29 108.87 136.60 108.87 Z M 137.65 108.84 L 138.67 108.84 C 139.97 108.84 141.01 107.79 141.01 106.50 C 141.01 105.21 139.97 104.16 138.67 104.16 L 137.65 104.16 C 136.35 104.16 135.30 105.21 135.30 106.50 C 135.30 107.79 136.35 108.84 137.65 108.84 Z M 138.67 108.81 L 139.67 108.81 C 140.95 108.81 141.98 107.78 141.98 106.50 C 141.98 105.22 140.95 104.19 139.67 104.19 L 138.67 104.19 C 137.40 104.19 136.36 105.22 136.36 106.50 C 136.36 107.78 137.40 108.81 138.67 108.81 Z M 139.67 108.78 L 140.65 108.78 C 141.91 108.78 142.93 107.76 142.93 106.50 C 142.93 105.24 141.91 104.22 140.65 104.22 L 139.67 104.22 C 138.41 104.22 137.39 105.24 137.39 106.50 C 137.39 107.76 138.41 108.78 139.67 108.78 Z M 140.65 108.75 L 141.62 108.75 C 142.86 108.75 143.87 107.74 143.87 106.50 C 143.87 105.26 142.86 104.25 141.62 104.25 L 140.65 104.25 C 139.41 104.25 138.40 105.26 138.40 106.50 C 138.40 107.74 139.41 108.75 140.65 108.75 Z M 141.62 108.72 L 142.62 108.72 C 143.85 108.72 144.85 107.73 144.85 106.50 C 144.85 105.27 143.85 104.28 142.62 104.28 L 141.62 104.28 C 140.39 104.28 139.40 105.27 139.40 106.50 C 139.40 107.73 140.39 108.72 141.62 108.72 Z M 142.62 108.70 L 143.64 108.70 C 144.85 108.70 145.84 107.71 145.84 106.50 C 145.84 105.29 144.85 104.30 143.64 104.30 L 142.62 104.30 C 141.41 104.30 140.43 105.29 140.43 106.50 C 140.43 107.71 141.41 108.70 142.62 108.70 Z M 143.64 108.67 L 144.64 108.67 C 145.85 108.67 146.82 107.70 146.82 106.50 C 146.82 105.30 145.85 104.33 144.64 104.33 L 143.64 104.33 C 142.44 104.33 141.47 105.30 141.47 106.50 C 141.47 107.70 142.44 108.67 143.64 108.67 Z M 144.64 108.65 L 145.63 108.65 C 146.82 108.65 147.78 107.69 147.78 106.50 C 147.78 105.31 146.82 104.35 145.63 104.35 L 144.64 104.35 C 143.46 104.35 142.50 105.31 142.50 106.50 C 142.50 107.69 143.46 108.65 144.64 108.65 Z M 145.63 108.62 L 146.61 108.62 C 147.78 108.62 148.73 107.67 148.73 106.50 C 148.73 105.33 147.78 104.38 146.61 104.38 L 145.63 104.38 C 144.46 104.38 143.51 105.33 143.51 106.50 C 143.51 107.67 144.46 108.62 145.63 108.62 Z M 146.61 108.60 L 147.64 108.60 C 148.80 108.60 149.74 107.66 149.74 106.50 C 149.74 105.34 148.80 104.40 147.64 104.40 L 146.61 104.40 C 145.45 104.40 144.51 105.34 144.51 106.50 C 144.51 107.66 145.45 108.60 146.61 108.60 Z M 147.64 108.58 L 148.65 108.58 C 149.80 108.58 150.73 107.65 150.73 106.50 C 150.73 105.35 149.80 104.42 148.65 104.42 L 147.64 104.42 C 146.49 104.42 145.56 105.35 145.56 106.50 C 145.56 107.65 146.49 108.58 147.64 108.58 Z M 148.65 108.55 L 149.65 108.55 C 150.78 108.55 151.70 107.63 151.70 106.50 C 151.70 105.37 150.78 104.45 149.65 104.45 L 148.65 104.45 C 147.52 104.45 146.60 105.37 146.60 106.50 C 146.60 107.63 147.52 108.55 148.65 108.55 Z M 149.65 108.53 L 150.62 108.53 C 151.74 108.53 152.65 107.62 152.65 106.50 C 152.65 105.38 151.74 104.47 150.62 104.47 L 149.65 104.47 C 148.52 104.47 147.61 105.38 147.61 106.50 C 147.61 107.62 148.52 108.53 149.65 108.53 Z M 150.62 108.51 L 151.61 108.51 C 152.72 108.51 153.62 107.61 153.62 106.50 C 153.62 105.39 152.73 104.49 151.62 104.49 L 150.62 104.49 C 149.51 104.49 148.61 105.39 148.61 106.50 C 148.61 107.61 149.51 108.51 150.62 108.51 Z M 151.57 108.49 L 152.56 108.51 C 153.66 108.54 154.57 107.67 154.60 106.57 C 154.62 105.47 153.76 104.56 152.66 104.54 L 151.66 104.51 C 150.56 104.49 149.65 105.36 149.63 106.45 C 149.60 107.55 150.47 108.46 151.57 108.49 Z M 152.45 108.49 L 153.44 108.56 C 154.52 108.65 155.47 107.84 155.56 106.76 C 155.65 105.68 154.84 104.73 153.76 104.64 L 152.77 104.57 C 151.69 104.48 150.74 105.28 150.65 106.37 C 150.56 107.45 151.37 108.40 152.45 108.49 Z M 153.27 108.52 L 154.25 108.69 C 155.31 108.87 156.31 108.16 156.50 107.10 C 156.68 106.04 155.97 105.04 154.91 104.86 L 153.93 104.69 C 152.87 104.51 151.86 105.22 151.68 106.27 C 151.50 107.33 152.21 108.34 153.27 108.52 Z M 154.03 108.62 L 155.00 108.91 C 156.02 109.21 157.09 108.63 157.39 107.61 C 157.70 106.59 157.12 105.52 156.10 105.22 L 155.13 104.93 C 154.11 104.63 153.04 105.21 152.73 106.23 C 152.43 107.24 153.01 108.32 154.03 108.62 Z M 154.78 108.80 L 155.72 109.22 C 156.68 109.64 157.80 109.21 158.23 108.25 C 158.65 107.29 158.22 106.16 157.26 105.74 L 156.32 105.32 C 155.36 104.90 154.23 105.33 153.81 106.29 C 153.38 107.25 153.82 108.38 154.78 108.80 Z M 155.50 109.08 L 156.36 109.61 C 157.25 110.16 158.41 109.88 158.95 109.00 C 159.50 108.11 159.22 106.95 158.34 106.41 L 157.48 105.87 C 156.59 105.33 155.43 105.60 154.89 106.49 C 154.34 107.37 154.61 108.53 155.50 109.08 Z M 156.13 109.42 L 156.88 110.06 C 157.65 110.73 158.83 110.64 159.50 109.86 C 160.17 109.09 160.09 107.91 159.31 107.24 L 158.57 106.60 C 157.79 105.93 156.61 106.01 155.94 106.79 C 155.27 107.57 155.36 108.75 156.13 109.42 Z M 156.63 109.77 L 157.23 110.55 C 157.85 111.35 159.01 111.51 159.81 110.88 C 160.62 110.26 160.77 109.11 160.15 108.30 L 159.55 107.52 C 158.93 106.72 157.78 106.57 156.97 107.19 C 156.16 107.81 156.01 108.97 156.63 109.77 Z M 157.01 110.16 L 157.41 111.07 C 157.81 112.00 158.90 112.43 159.82 112.02 C 160.75 111.61 161.17 110.53 160.77 109.60 L 160.37 108.69 C 159.96 107.76 158.88 107.34 157.95 107.74 C 157.03 108.15 156.60 109.23 157.01 110.16 Z M 157.29 110.65 L 157.45 111.62 C 157.62 112.62 158.57 113.28 159.56 113.11 C 160.56 112.94 161.23 112.00 161.06 111.00 L 160.89 110.03 C 160.72 109.04 159.78 108.37 158.78 108.54 C 157.79 108.71 157.12 109.65 157.29 110.65 Z M 157.44 111.20 L 157.38 112.19 C 157.32 113.20 158.08 114.06 159.09 114.12 C 160.09 114.18 160.95 113.41 161.01 112.41 L 161.07 111.42 C 161.13 110.42 160.37 109.55 159.36 109.49 C 158.36 109.43 157.50 110.20 157.44 111.20 Z M 157.45 111.82 L 157.20 112.72 C 156.93 113.69 157.50 114.69 158.47 114.95 C 159.43 115.22 160.43 114.65 160.70 113.68 L 160.95 112.78 C 161.21 111.82 160.64 110.82 159.68 110.55 C 158.71 110.29 157.71 110.85 157.45 111.82 Z M 157.31 112.43 L 156.91 113.28 C 156.48 114.18 156.86 115.26 157.77 115.69 C 158.67 116.12 159.75 115.73 160.18 114.83 L 160.58 113.98 C 161.01 113.08 160.63 112.00 159.73 111.57 C 158.82 111.14 157.74 111.52 157.31 112.43 Z M 157.04 113.06 L 156.49 113.90 C 155.94 114.73 156.17 115.85 157.00 116.39 C 157.83 116.94 158.95 116.71 159.50 115.88 L 160.05 115.05 C 160.60 114.22 160.37 113.10 159.54 112.55 C 158.71 112.00 157.59 112.23 157.04 113.06 Z M 156.61 113.74 L 155.93 114.57 C 155.29 115.34 155.40 116.47 156.17 117.10 C 156.93 117.73 158.07 117.62 158.70 116.86 L 159.38 116.03 C 160.01 115.27 159.90 114.13 159.14 113.50 C 158.37 112.87 157.24 112.98 156.61 113.74 Z M 156.02 114.47 L 155.35 115.17 C 154.67 115.88 154.69 117.02 155.41 117.70 C 156.12 118.39 157.26 118.36 157.94 117.65 L 158.61 116.96 C 159.29 116.24 159.27 115.11 158.55 114.42 C 157.84 113.74 156.70 113.76 156.02 114.47 Z M 155.42 115.10 L 154.77 115.72 C 154.05 116.39 154.01 117.53 154.69 118.25 C 155.37 118.97 156.50 119.00 157.22 118.33 L 157.87 117.71 C 158.59 117.04 158.63 115.90 157.95 115.18 C 157.27 114.46 156.14 114.43 155.42 115.10 Z M 154.83 115.67 L 154.11 116.29 C 153.36 116.93 153.28 118.06 153.92 118.81 C 154.57 119.56 155.70 119.64 156.44 119.00 L 157.16 118.38 C 157.91 117.73 157.99 116.60 157.35 115.85 C 156.70 115.11 155.58 115.02 154.83 115.67 Z M 154.16 116.25 L 153.37 116.88 C 152.60 117.49 152.48 118.62 153.09 119.39 C 153.71 120.16 154.83 120.28 155.60 119.67 L 156.39 119.04 C 157.16 118.42 157.29 117.30 156.67 116.53 C 156.06 115.76 154.93 115.63 154.16 116.25 Z M 153.42 116.85 L 152.55 117.49 C 151.76 118.08 151.60 119.20 152.19 119.99 C 152.78 120.78 153.90 120.94 154.69 120.35 L 155.55 119.70 C 156.34 119.11 156.50 117.99 155.91 117.21 C 155.32 116.42 154.21 116.26 153.42 116.85 Z M 152.59 117.47 L 151.66 118.13 C 150.85 118.69 150.66 119.81 151.23 120.61 C 151.80 121.41 152.91 121.60 153.71 121.04 L 154.65 120.38 C 155.45 119.81 155.64 118.70 155.07 117.89 C 154.51 117.09 153.40 116.90 152.59 117.47 Z M 151.69 118.11 L 150.90 118.64 C 150.08 119.19 149.87 120.30 150.42 121.11 C 150.97 121.93 152.08 122.14 152.89 121.59 L 153.68 121.06 C 154.50 120.51 154.71 119.40 154.16 118.58 C 153.61 117.77 152.50 117.55 151.69 118.11 Z M 150.92 118.62 L 150.09 119.16 C 149.27 119.70 149.04 120.80 149.57 121.63 C 150.11 122.45 151.22 122.69 152.04 122.15 L 152.87 121.61 C 153.70 121.07 153.93 119.96 153.39 119.14 C 152.85 118.31 151.75 118.08 150.92 118.62 Z M 150.12 119.14 L 149.26 119.68 C 148.42 120.21 148.17 121.31 148.70 122.15 C 149.23 122.98 150.33 123.23 151.17 122.71 L 152.02 122.17 C 152.86 121.64 153.11 120.54 152.58 119.70 C 152.06 118.86 150.95 118.61 150.12 119.14 Z M 149.28 119.66 L 148.40 120.20 C 147.56 120.71 147.29 121.81 147.80 122.66 C 148.32 123.51 149.42 123.77 150.27 123.26 L 151.14 122.72 C 151.99 122.21 152.26 121.11 151.74 120.26 C 151.23 119.42 150.13 119.15 149.28 119.66 Z M 148.43 120.18 L 147.54 120.70 C 146.69 121.20 146.40 122.30 146.90 123.16 C 147.40 124.01 148.51 124.30 149.36 123.80 L 150.25 123.28 C 151.10 122.77 151.39 121.67 150.88 120.82 C 150.38 119.96 149.28 119.68 148.43 120.18 Z M 147.57 120.68 L 146.68 121.18 C 145.82 121.67 145.51 122.77 146.00 123.63 C 146.49 124.50 147.59 124.80 148.45 124.31 L 149.34 123.81 C 150.20 123.32 150.51 122.23 150.02 121.36 C 149.53 120.50 148.43 120.19 147.57 120.68 Z M 146.71 121.16 L 145.84 121.63 C 144.96 122.10 144.64 123.20 145.11 124.07 C 145.59 124.95 146.68 125.28 147.56 124.80 L 148.43 124.33 C 149.30 123.86 149.63 122.76 149.15 121.89 C 148.68 121.01 147.59 120.69 146.71 121.16 Z M 145.87 121.61 L 144.88 122.11 C 143.99 122.57 143.64 123.66 144.10 124.55 C 144.55 125.44 145.65 125.79 146.54 125.33 L 147.52 124.83 C 148.41 124.37 148.77 123.28 148.31 122.39 C 147.85 121.50 146.76 121.15 145.87 121.61 Z M 144.92 122.08 L 143.94 122.55 C 143.04 122.99 142.66 124.08 143.10 124.99 C 143.53 125.89 144.62 126.27 145.53 125.83 L 146.50 125.36 C 147.41 124.93 147.79 123.84 147.35 122.93 C 146.91 122.02 145.82 121.64 144.92 122.08 Z M 143.97 122.53 L 143.04 122.95 C 142.11 123.38 141.71 124.47 142.13 125.39 C 142.55 126.31 143.64 126.71 144.56 126.29 L 145.50 125.86 C 146.42 125.44 146.83 124.35 146.41 123.43 C 145.98 122.51 144.89 122.10 143.97 122.53 Z M 143.06 122.93 L 142.16 123.32 C 141.23 123.73 140.80 124.82 141.21 125.76 C 141.62 126.69 142.71 127.12 143.64 126.71 L 144.54 126.32 C 145.47 125.91 145.90 124.82 145.49 123.88 C 145.09 122.95 144.00 122.52 143.06 122.93 Z M 142.18 123.30 L 141.32 123.66 C 140.38 124.06 139.93 125.15 140.33 126.10 C 140.73 127.04 141.82 127.49 142.76 127.09 L 143.62 126.73 C 144.57 126.33 145.01 125.24 144.62 124.30 C 144.22 123.35 143.13 122.90 142.18 123.30 Z M 141.34 123.64 L 140.52 123.98 C 139.56 124.37 139.10 125.46 139.49 126.42 C 139.88 127.38 140.97 127.83 141.93 127.44 L 142.75 127.11 C 143.71 126.72 144.17 125.63 143.78 124.67 C 143.39 123.71 142.29 123.25 141.34 123.64 Z M 140.52 123.96 L 139.54 124.35 C 138.58 124.74 138.11 125.84 138.49 126.80 C 138.88 127.77 139.98 128.24 140.95 127.85 L 141.93 127.46 C 142.89 127.07 143.36 125.98 142.98 125.01 C 142.59 124.04 141.49 123.57 140.52 123.96 Z M 139.55 124.33 L 138.59 124.70 C 137.61 125.09 137.13 126.19 137.51 127.17 C 137.90 128.15 139.00 128.64 139.98 128.25 L 140.94 127.88 C 141.92 127.49 142.40 126.39 142.02 125.41 C 141.63 124.43 140.53 123.94 139.55 124.33 Z M 138.60 124.68 L 137.68 125.03 C 136.69 125.41 136.19 126.52 136.57 127.52 C 136.95 128.51 138.07 129.00 139.06 128.63 L 139.98 128.27 C 140.97 127.89 141.46 126.78 141.08 125.79 C 140.70 124.80 139.59 124.30 138.60 124.68 Z M 137.69 125.01 L 136.80 125.34 C 135.79 125.72 135.28 126.83 135.66 127.84 C 136.03 128.84 137.15 129.36 138.15 128.98 L 139.05 128.65 C 140.05 128.27 140.56 127.16 140.19 126.15 C 139.82 125.15 138.70 124.64 137.69 125.01 Z M 136.81 125.32 L 135.90 125.64 C 134.88 126.01 134.35 127.14 134.72 128.16 C 135.09 129.18 136.21 129.70 137.23 129.34 L 138.14 129.01 C 139.16 128.64 139.69 127.52 139.32 126.50 C 138.95 125.48 137.83 124.95 136.81 125.32 Z M 135.91 125.61 L 134.93 125.95 C 133.89 126.31 133.35 127.45 133.71 128.49 C 134.07 129.53 135.21 130.07 136.25 129.71 L 137.22 129.37 C 138.26 129.01 138.81 127.87 138.45 126.83 C 138.08 125.80 136.95 125.25 135.91 125.61 Z M 134.94 125.91 L 133.98 126.23 C 132.92 126.59 132.34 127.74 132.70 128.80 C 133.05 129.86 134.20 130.43 135.27 130.08 L 136.23 129.76 C 137.30 129.40 137.87 128.25 137.51 127.19 C 137.16 126.12 136.01 125.55 134.94 125.91 Z M 133.99 126.19 L 133.05 126.49 C 131.96 126.83 131.36 128.00 131.71 129.08 C 132.06 130.17 133.22 130.77 134.31 130.42 L 135.25 130.12 C 136.34 129.78 136.94 128.61 136.59 127.53 C 136.24 126.44 135.08 125.84 133.99 126.19 Z M 133.08 126.44 L 132.16 126.72 C 131.05 127.05 130.42 128.22 130.75 129.34 C 131.09 130.45 132.26 131.08 133.37 130.74 L 134.29 130.47 C 135.40 130.14 136.03 128.96 135.70 127.85 C 135.36 126.74 134.19 126.11 133.08 126.44 Z M 132.20 126.68 L 131.19 126.96 C 130.05 127.27 129.39 128.44 129.70 129.58 C 130.01 130.71 131.19 131.38 132.32 131.06 L 133.33 130.78 C 134.47 130.47 135.13 129.30 134.82 128.16 C 134.50 127.03 133.33 126.36 132.20 126.68 Z M 131.23 126.93 L 130.27 127.17 C 129.12 127.46 128.42 128.62 128.71 129.77 C 128.99 130.92 130.16 131.62 131.31 131.33 L 132.27 131.09 C 133.42 130.80 134.12 129.64 133.83 128.49 C 133.55 127.34 132.38 126.64 131.23 126.93 Z M 130.31 127.14 L 129.37 127.36 C 128.20 127.62 127.47 128.78 127.74 129.94 C 128.00 131.11 129.16 131.84 130.33 131.57 L 131.27 131.36 C 132.43 131.09 133.16 129.94 132.90 128.77 C 132.63 127.61 131.47 126.88 130.31 127.14 Z M 129.40 127.30 L 128.19 127.55 C 126.99 127.80 126.23 128.97 126.47 130.16 C 126.72 131.36 127.89 132.13 129.09 131.88 L 130.30 131.63 C 131.49 131.38 132.26 130.21 132.01 129.02 C 131.76 127.82 130.59 127.05 129.40 127.30 Z M 128.16 127.45 L 127.08 127.68 C 125.83 127.94 125.03 129.17 125.29 130.42 C 125.56 131.67 126.78 132.47 128.03 132.21 L 129.11 131.98 C 130.36 131.72 131.16 130.49 130.90 129.24 C 130.64 127.99 129.41 127.19 128.16 127.45 Z M 126.11 127.99 L 126.01 128.07 C 124.93 128.86 124.70 130.39 125.50 131.47 C 126.30 132.54 127.82 132.77 128.90 131.97 L 129.01 131.89 C 130.08 131.10 130.31 129.57 129.51 128.49 C 128.71 127.42 127.19 127.19 126.11 127.99 Z M 127.64 132.51 L 128.36 132.45 C 129.73 132.35 130.76 131.15 130.66 129.78 C 130.55 128.40 129.36 127.37 127.98 127.48 L 127.27 127.53 C 125.89 127.63 124.86 128.83 124.97 130.20 C 125.07 131.58 126.27 132.61 127.64 132.51 Z M 128.45 132.47 L 129.63 132.34 C 131.01 132.18 132.01 130.93 131.85 129.55 C 131.69 128.16 130.44 127.17 129.06 127.32 L 127.89 127.46 C 126.50 127.61 125.50 128.86 125.66 130.25 C 125.82 131.63 127.07 132.63 128.45 132.47 Z M 129.69 132.36 L 130.98 132.18 C 132.37 131.99 133.35 130.71 133.16 129.31 C 132.97 127.92 131.68 126.94 130.29 127.13 L 129.00 127.31 C 127.60 127.50 126.62 128.78 126.81 130.18 C 127.01 131.57 128.29 132.55 129.69 132.36 Z M 131.03 132.19 L 132.02 132.03 C 133.42 131.81 134.38 130.50 134.16 129.10 C 133.94 127.70 132.62 126.75 131.22 126.97 L 130.23 127.12 C 128.84 127.34 127.88 128.66 128.10 130.06 C 128.32 131.45 129.63 132.41 131.03 132.19 Z M 132.05 132.03 L 133.03 131.86 C 134.43 131.63 135.37 130.30 135.13 128.90 C 134.90 127.51 133.57 126.57 132.17 126.80 L 131.19 126.97 C 129.80 127.21 128.86 128.53 129.09 129.93 C 129.33 131.33 130.66 132.27 132.05 132.03 Z M 133.04 131.87 L 134.02 131.70 C 135.42 131.45 136.36 130.12 136.12 128.72 C 135.87 127.33 134.54 126.39 133.14 126.63 L 132.16 126.80 C 130.76 127.04 129.83 128.37 130.07 129.77 C 130.31 131.17 131.64 132.11 133.04 131.87 Z M 134.01 131.70 L 135.00 131.53 C 136.41 131.30 137.35 129.97 137.11 128.57 C 136.88 127.17 135.55 126.22 134.15 126.46 L 133.15 126.63 C 131.75 126.86 130.81 128.19 131.04 129.59 C 131.28 130.99 132.61 131.94 134.01 131.70 Z M 134.98 131.54 L 135.88 131.40 C 137.28 131.17 138.24 129.86 138.02 128.45 C 137.80 127.05 136.48 126.09 135.07 126.31 L 134.17 126.45 C 132.77 126.67 131.81 127.99 132.03 129.40 C 132.25 130.80 133.57 131.76 134.98 131.54 Z M 135.85 131.40 L 136.78 131.27 C 138.19 131.06 139.16 129.75 138.95 128.34 C 138.75 126.94 137.44 125.96 136.03 126.17 L 135.10 126.31 C 133.69 126.51 132.72 127.82 132.93 129.23 C 133.13 130.63 134.44 131.61 135.85 131.40 Z M 136.75 131.27 L 137.73 131.14 C 139.14 130.95 140.13 129.65 139.94 128.24 C 139.75 126.83 138.45 125.84 137.04 126.03 L 136.06 126.17 C 134.65 126.36 133.66 127.65 133.85 129.06 C 134.04 130.47 135.34 131.46 136.75 131.27 Z M 137.70 131.14 L 138.75 131.01 C 140.16 130.84 141.16 129.55 140.99 128.14 C 140.81 126.73 139.53 125.72 138.12 125.90 L 137.07 126.03 C 135.66 126.20 134.66 127.49 134.83 128.90 C 135.01 130.31 136.29 131.32 137.70 131.14 Z M 138.73 131.01 L 139.81 130.89 C 141.22 130.73 142.23 129.45 142.07 128.04 C 141.91 126.63 140.64 125.61 139.22 125.77 L 138.14 125.90 C 136.73 126.06 135.71 127.33 135.87 128.75 C 136.04 130.16 137.31 131.17 138.73 131.01 Z M 139.79 130.89 L 140.72 130.79 C 142.13 130.64 143.15 129.37 143.00 127.96 C 142.85 126.55 141.58 125.52 140.17 125.67 L 139.24 125.77 C 137.83 125.92 136.81 127.19 136.96 128.60 C 137.11 130.02 138.38 131.04 139.79 130.89 Z M 140.71 130.79 L 141.68 130.69 C 143.09 130.54 144.12 129.28 143.97 127.87 C 143.83 126.46 142.57 125.43 141.16 125.58 L 140.18 125.68 C 138.77 125.82 137.75 127.08 137.89 128.49 C 138.03 129.90 139.30 130.93 140.71 130.79 Z M 141.67 130.68 L 142.67 130.58 C 144.08 130.44 145.11 129.19 144.97 127.78 C 144.83 126.37 143.58 125.34 142.17 125.48 L 141.16 125.58 C 139.76 125.72 138.73 126.98 138.87 128.39 C 139.01 129.79 140.26 130.82 141.67 130.68 Z M 142.67 130.58 L 143.69 130.48 C 145.10 130.34 146.13 129.09 145.99 127.69 C 145.85 126.28 144.60 125.25 143.20 125.39 L 142.17 125.49 C 140.77 125.62 139.74 126.87 139.87 128.28 C 140.01 129.69 141.26 130.72 142.67 130.58 Z M 143.69 130.48 L 144.72 130.38 C 146.12 130.24 147.15 128.99 147.02 127.59 C 146.88 126.18 145.63 125.16 144.23 125.29 L 143.20 125.39 C 141.79 125.53 140.77 126.77 140.90 128.18 C 141.04 129.58 142.29 130.61 143.69 130.48 Z M 144.72 130.37 L 145.75 130.27 C 147.15 130.14 148.17 128.89 148.04 127.49 C 147.90 126.09 146.66 125.06 145.25 125.20 L 144.23 125.30 C 142.83 125.43 141.80 126.68 141.94 128.08 C 142.07 129.48 143.32 130.51 144.72 130.37 Z M 145.75 130.26 L 146.84 130.15 C 148.23 130.02 149.25 128.77 149.12 127.38 C 148.98 125.98 147.74 124.96 146.34 125.10 L 145.25 125.21 C 143.86 125.35 142.84 126.59 142.97 127.98 C 143.11 129.38 144.35 130.40 145.75 130.26 Z M 146.84 130.13 L 147.90 130.03 C 149.29 129.89 150.30 128.66 150.16 127.27 C 150.02 125.89 148.79 124.88 147.41 125.02 L 146.34 125.12 C 144.96 125.26 143.95 126.49 144.09 127.88 C 144.22 129.26 145.46 130.27 146.84 130.13 Z M 147.90 130.01 L 148.93 129.91 C 150.30 129.77 151.30 128.54 151.17 127.17 C 151.03 125.80 149.80 124.80 148.43 124.93 L 147.41 125.04 C 146.03 125.17 145.03 126.40 145.17 127.77 C 145.31 129.14 146.53 130.14 147.90 130.01 Z M 148.93 129.89 L 149.90 129.79 C 151.27 129.65 152.26 128.44 152.12 127.08 C 151.99 125.71 150.77 124.72 149.41 124.86 L 148.43 124.95 C 147.07 125.09 146.08 126.30 146.21 127.67 C 146.35 129.03 147.56 130.02 148.93 129.89 Z M 149.90 129.77 L 150.82 129.68 C 152.17 129.54 153.16 128.34 153.02 126.99 C 152.89 125.64 151.68 124.65 150.33 124.79 L 149.42 124.88 C 148.06 125.01 147.08 126.21 147.21 127.56 C 147.35 128.91 148.55 129.90 149.90 129.77 Z M 150.81 129.65 L 151.74 129.56 C 153.08 129.43 154.05 128.24 153.92 126.91 C 153.79 125.57 152.60 124.59 151.27 124.72 L 150.34 124.81 C 149.00 124.94 148.02 126.13 148.15 127.47 C 148.28 128.80 149.47 129.78 150.81 129.65 Z M 151.73 129.52 L 152.77 129.43 C 154.08 129.30 155.05 128.13 154.93 126.82 C 154.80 125.50 153.64 124.54 152.32 124.66 L 151.28 124.76 C 149.96 124.88 149.00 126.05 149.12 127.37 C 149.24 128.68 150.41 129.65 151.73 129.52 Z M 152.76 129.37 L 153.73 129.29 C 155.02 129.17 155.96 128.03 155.85 126.74 C 155.73 125.45 154.59 124.51 153.30 124.62 L 152.33 124.71 C 151.04 124.83 150.10 125.97 150.21 127.26 C 150.33 128.54 151.47 129.49 152.76 129.37 Z M 153.72 129.23 L 154.67 129.15 C 155.93 129.04 156.86 127.92 156.75 126.67 C 156.64 125.41 155.52 124.48 154.26 124.59 L 153.31 124.67 C 152.05 124.79 151.12 125.90 151.24 127.16 C 151.35 128.42 152.46 129.35 153.72 129.23 Z M 154.67 129.10 L 155.65 129.01 C 156.88 128.90 157.79 127.81 157.68 126.58 C 157.57 125.35 156.49 124.44 155.26 124.55 L 154.27 124.64 C 153.04 124.75 152.13 125.84 152.24 127.07 C 152.35 128.30 153.44 129.21 154.67 129.10 Z M 155.65 128.96 L 156.62 128.88 C 157.83 128.77 158.72 127.70 158.61 126.50 C 158.50 125.29 157.44 124.40 156.23 124.51 L 155.26 124.60 C 154.05 124.71 153.16 125.77 153.27 126.98 C 153.38 128.18 154.44 129.07 155.65 128.96 Z M 156.62 128.84 L 157.64 128.74 C 158.82 128.63 159.69 127.59 159.58 126.40 C 159.47 125.22 158.43 124.35 157.24 124.46 L 156.23 124.55 C 155.05 124.66 154.18 125.71 154.28 126.89 C 154.39 128.07 155.44 128.95 156.62 128.84 Z M 157.64 128.70 L 158.66 128.61 C 159.82 128.50 160.67 127.46 160.56 126.30 C 160.45 125.14 159.42 124.29 158.26 124.40 L 157.24 124.50 C 156.08 124.61 155.23 125.64 155.34 126.80 C 155.45 127.96 156.48 128.81 157.64 128.70 Z M 158.67 128.57 L 159.66 128.47 C 160.80 128.35 161.63 127.34 161.52 126.20 C 161.41 125.06 160.39 124.23 159.25 124.34 L 158.25 124.44 C 157.12 124.56 156.29 125.57 156.40 126.71 C 156.51 127.85 157.53 128.68 158.67 128.57 Z M 159.67 128.42 L 160.71 128.31 C 161.83 128.19 162.63 127.19 162.51 126.08 C 162.39 124.96 161.39 124.16 160.28 124.28 L 159.24 124.39 C 158.13 124.51 157.32 125.51 157.44 126.62 C 157.56 127.73 158.56 128.54 159.67 128.42 Z M 160.76 128.25 L 161.82 128.11 C 162.90 127.96 163.65 126.97 163.51 125.89 C 163.37 124.81 162.37 124.05 161.29 124.19 L 160.23 124.34 C 159.15 124.48 158.39 125.47 158.54 126.55 C 158.68 127.63 159.68 128.39 160.76 128.25 Z M 161.93 128.03 L 162.89 127.83 C 163.93 127.62 164.60 126.61 164.39 125.58 C 164.18 124.54 163.17 123.87 162.13 124.08 L 161.17 124.27 C 160.14 124.48 159.47 125.49 159.68 126.53 C 159.89 127.57 160.90 128.24 161.93 128.03 Z M 163.08 127.72 L 163.96 127.44 C 164.93 127.12 165.46 126.08 165.15 125.10 C 164.83 124.13 163.79 123.59 162.81 123.91 L 161.94 124.19 C 160.97 124.51 160.43 125.55 160.75 126.53 C 161.06 127.50 162.11 128.04 163.08 127.72 Z M 164.21 127.28 L 165.07 126.84 C 165.95 126.38 166.30 125.29 165.84 124.41 C 165.39 123.52 164.30 123.17 163.41 123.63 L 162.56 124.07 C 161.67 124.53 161.32 125.62 161.78 126.50 C 162.23 127.39 163.32 127.74 164.21 127.28 Z M 165.28 126.67 L 166.08 126.09 C 166.88 125.52 167.05 124.41 166.48 123.62 C 165.91 122.82 164.80 122.64 164.00 123.22 L 163.20 123.80 C 162.41 124.37 162.23 125.48 162.80 126.27 C 163.37 127.07 164.48 127.25 165.28 126.67 Z M 166.19 125.97 L 166.95 125.31 C 167.67 124.68 167.75 123.58 167.12 122.85 C 166.48 122.12 165.38 122.05 164.65 122.68 L 163.90 123.34 C 163.17 123.97 163.09 125.07 163.73 125.80 C 164.36 126.53 165.46 126.60 166.19 125.97 Z M 166.97 125.26 L 167.42 124.84 C 168.12 124.19 168.16 123.10 167.51 122.41 C 166.86 121.71 165.77 121.67 165.07 122.32 L 164.63 122.73 C 163.93 123.38 163.89 124.47 164.54 125.17 C 165.19 125.86 166.28 125.90 166.97 125.26 Z"
      fill="black"
      fill-rule="nonzero" /><path d="M 142.39 90.88 L 142.15 91.83 C 141.85 93.02 142.57 94.22 143.75 94.53 C 144.94 94.83 146.15 94.11 146.45 92.92 L 146.69 91.97 C 146.99 90.78 146.27 89.57 145.09 89.27 C 143.90 88.97 142.70 89.69 142.39 90.88 Z M 142.07 91.91 L 141.87 92.88 C 141.61 94.11 142.40 95.32 143.63 95.58 C 144.86 95.84 146.07 95.05 146.33 93.82 L 146.53 92.85 C 146.79 91.61 146.00 90.41 144.77 90.15 C 143.54 89.89 142.33 90.68 142.07 91.91 Z M 141.77 93.06 L 141.65 94.05 C 141.49 95.33 142.40 96.50 143.68 96.67 C 144.96 96.83 146.13 95.92 146.30 94.63 L 146.42 93.64 C 146.58 92.36 145.67 91.18 144.39 91.02 C 143.10 90.86 141.93 91.77 141.77 93.06 Z M 141.57 94.32 L 141.56 95.32 C 141.55 96.64 142.62 97.72 143.94 97.74 C 145.27 97.75 146.35 96.68 146.36 95.36 L 146.37 94.36 C 146.38 93.04 145.32 91.96 143.99 91.94 C 142.67 91.93 141.58 93.00 141.57 94.32 Z M 141.55 95.59 L 141.65 96.54 C 141.79 97.87 142.98 98.84 144.31 98.70 C 145.64 98.56 146.61 97.37 146.47 96.04 L 146.37 95.09 C 146.23 93.76 145.04 92.79 143.71 92.93 C 142.38 93.07 141.42 94.26 141.55 95.59 Z M 141.67 96.71 L 141.84 97.69 C 142.07 99.01 143.33 99.89 144.65 99.66 C 145.96 99.43 146.85 98.18 146.62 96.86 L 146.45 95.88 C 146.22 94.56 144.96 93.68 143.65 93.91 C 142.33 94.14 141.44 95.39 141.67 96.71 Z M 141.86 97.77 L 142.07 98.77 C 142.34 100.08 143.62 100.92 144.93 100.65 C 146.24 100.38 147.09 99.10 146.81 97.79 L 146.61 96.78 C 146.33 95.47 145.05 94.63 143.74 94.90 C 142.43 95.17 141.59 96.46 141.86 97.77 Z M 142.06 98.77 L 142.27 99.78 C 142.54 101.09 143.83 101.93 145.14 101.66 C 146.45 101.39 147.29 100.11 147.02 98.79 L 146.82 97.79 C 146.54 96.48 145.26 95.63 143.95 95.90 C 142.64 96.17 141.79 97.46 142.06 98.77 Z M 142.26 99.72 L 142.43 100.67 C 142.68 101.99 143.94 102.86 145.26 102.62 C 146.58 102.38 147.45 101.11 147.21 99.79 L 147.03 98.85 C 146.79 97.53 145.53 96.66 144.21 96.90 C 142.89 97.14 142.02 98.40 142.26 99.72 Z M 142.42 100.61 L 142.58 101.57 C 142.79 102.90 144.03 103.80 145.35 103.59 C 146.68 103.38 147.58 102.14 147.37 100.82 L 147.22 99.85 C 147.01 98.53 145.77 97.62 144.44 97.83 C 143.12 98.04 142.21 99.29 142.42 100.61 Z M 142.57 101.52 L 142.70 102.51 C 142.88 103.84 144.10 104.77 145.43 104.59 C 146.76 104.42 147.69 103.19 147.51 101.87 L 147.38 100.87 C 147.20 99.54 145.98 98.61 144.65 98.79 C 143.32 98.97 142.39 100.19 142.57 101.52 Z M 142.70 102.46 L 142.81 103.49 C 142.96 104.82 144.16 105.78 145.49 105.63 C 146.83 105.48 147.78 104.28 147.63 102.95 L 147.52 101.92 C 147.37 100.59 146.17 99.63 144.84 99.78 C 143.50 99.93 142.55 101.13 142.70 102.46 Z M 142.81 103.45 L 142.90 104.48 C 143.03 105.82 144.21 106.80 145.54 106.67 C 146.88 106.55 147.86 105.37 147.73 104.03 L 147.64 103.00 C 147.51 101.66 146.33 100.68 145.00 100.81 C 143.66 100.93 142.68 102.11 142.81 103.45 Z M 142.90 104.44 L 142.98 105.48 C 143.08 106.82 144.25 107.81 145.59 107.71 C 146.92 107.61 147.92 106.44 147.82 105.10 L 147.74 104.07 C 147.63 102.73 146.47 101.73 145.13 101.84 C 143.79 101.94 142.80 103.11 142.90 104.44 Z M 142.98 105.45 L 143.05 106.48 C 143.13 107.82 144.29 108.83 145.62 108.74 C 146.96 108.66 147.98 107.50 147.89 106.16 L 147.82 105.13 C 147.73 103.80 146.58 102.78 145.24 102.87 C 143.90 102.96 142.89 104.11 142.98 105.45 Z M 143.04 106.45 L 143.10 107.45 C 143.17 108.79 144.31 109.82 145.65 109.74 C 146.99 109.67 148.02 108.53 147.94 107.19 L 147.89 106.19 C 147.82 104.85 146.67 103.83 145.34 103.90 C 144.00 103.97 142.97 105.12 143.04 106.45 Z M 143.10 107.43 L 143.14 108.36 C 143.20 109.70 144.33 110.74 145.67 110.68 C 147.01 110.62 148.04 109.49 147.99 108.15 L 147.95 107.22 C 147.89 105.88 146.75 104.84 145.41 104.90 C 144.08 104.96 143.04 106.09 143.10 107.43 Z M 143.14 108.33 L 143.17 109.43 C 143.21 110.77 144.33 111.82 145.67 111.78 C 147.01 111.73 148.06 110.61 148.02 109.27 L 147.99 108.18 C 147.94 106.84 146.82 105.79 145.49 105.83 C 144.15 105.87 143.09 106.99 143.14 108.33 Z M 143.17 109.39 L 143.19 110.41 C 143.21 111.75 144.32 112.82 145.66 112.79 C 146.99 112.77 148.06 111.66 148.04 110.33 L 148.02 109.31 C 148.00 107.97 146.89 106.90 145.55 106.93 C 144.22 106.95 143.15 108.05 143.17 109.39 Z M 143.19 110.38 L 143.20 111.31 C 143.20 112.65 144.29 113.73 145.63 113.72 C 146.97 113.72 148.05 112.62 148.04 111.29 L 148.04 110.35 C 148.03 109.01 146.94 107.94 145.60 107.94 C 144.26 107.95 143.18 109.04 143.19 110.38 Z M 143.20 111.30 L 143.20 112.23 C 143.20 113.57 144.28 114.65 145.62 114.65 C 146.96 114.65 148.04 113.56 148.04 112.23 L 148.04 111.30 C 148.04 109.96 146.96 108.88 145.62 108.88 C 144.28 108.88 143.20 109.96 143.20 111.30 Z M 143.20 112.23 L 143.20 113.22 C 143.20 114.55 144.28 115.63 145.62 115.63 C 146.96 115.63 148.04 114.55 148.04 113.22 L 148.04 112.23 C 148.04 110.89 146.96 109.81 145.62 109.81 C 144.28 109.81 143.20 110.89 143.20 112.23 Z M 143.21 113.22 L 143.21 114.22 C 143.21 115.55 144.29 116.63 145.62 116.63 C 146.95 116.63 148.03 115.55 148.03 114.22 L 148.03 113.22 C 148.03 111.88 146.95 110.80 145.62 110.80 C 144.29 110.80 143.21 111.88 143.21 113.22 Z M 143.21 114.22 L 143.21 115.23 C 143.21 116.56 144.29 117.64 145.62 117.64 C 146.95 117.64 148.03 116.56 148.03 115.23 L 148.03 114.22 C 148.03 112.89 146.95 111.81 145.62 111.81 C 144.29 111.81 143.21 112.89 143.21 114.22 Z M 143.22 115.23 L 143.22 116.21 C 143.22 117.54 144.29 118.61 145.62 118.61 C 146.95 118.61 148.02 117.54 148.02 116.21 L 148.02 115.23 C 148.02 113.90 146.95 112.83 145.62 112.83 C 144.29 112.83 143.22 113.90 143.22 115.23 Z M 143.22 116.21 L 143.22 117.21 C 143.22 118.53 144.29 119.61 145.62 119.61 C 146.94 119.61 148.02 118.53 148.02 117.21 L 148.02 116.21 C 148.02 114.89 146.94 113.81 145.62 113.81 C 144.29 113.81 143.22 114.89 143.22 116.21 Z M 143.23 117.21 L 143.23 118.22 C 143.23 119.55 144.30 120.62 145.62 120.62 C 146.94 120.62 148.01 119.55 148.01 118.22 L 148.01 117.21 C 148.01 115.88 146.94 114.81 145.62 114.81 C 144.30 114.81 143.23 115.88 143.23 117.21 Z M 143.23 118.22 L 143.23 119.23 C 143.23 120.55 144.30 121.62 145.62 121.62 C 146.94 121.62 148.01 120.55 148.01 119.23 L 148.01 118.22 C 148.01 116.91 146.94 115.84 145.62 115.84 C 144.30 115.84 143.23 116.91 143.23 118.22 Z M 143.24 119.23 L 143.24 120.24 C 143.24 121.56 144.31 122.62 145.62 122.62 C 146.93 122.62 148.00 121.56 148.00 120.24 L 148.00 119.23 C 148.00 117.92 146.93 116.86 145.62 116.86 C 144.31 116.86 143.24 117.92 143.24 119.23 Z M 143.25 120.24 L 143.25 121.25 C 143.25 122.56 144.31 123.62 145.62 123.62 C 146.93 123.62 147.99 122.56 147.99 121.25 L 147.99 120.24 C 147.99 118.94 146.93 117.88 145.62 117.88 C 144.31 117.88 143.25 118.94 143.25 120.24 Z M 143.26 121.25 L 143.26 122.22 C 143.26 123.53 144.32 124.58 145.62 124.58 C 146.92 124.58 147.98 123.53 147.98 122.22 L 147.98 121.25 C 147.98 119.95 146.92 118.89 145.62 118.89 C 144.32 118.89 143.26 119.95 143.26 121.25 Z M 143.27 122.21 L 143.27 123.13 C 143.26 124.42 144.31 125.48 145.61 125.48 C 146.90 125.49 147.96 124.44 147.96 123.15 L 147.97 122.23 C 147.97 120.94 146.93 119.88 145.63 119.88 C 144.33 119.87 143.28 120.92 143.27 122.21 Z M 143.28 123.08 L 143.26 124.02 C 143.23 125.31 144.25 126.38 145.54 126.42 C 146.82 126.45 147.90 125.43 147.93 124.14 L 147.95 123.19 C 147.98 121.90 146.96 120.83 145.67 120.80 C 144.38 120.77 143.31 121.79 143.28 123.08 Z M 143.27 123.95 L 143.21 124.99 C 143.14 126.27 144.12 127.37 145.40 127.44 C 146.68 127.52 147.78 126.54 147.85 125.25 L 147.91 124.21 C 147.99 122.93 147.01 121.83 145.73 121.76 C 144.44 121.69 143.35 122.67 143.27 123.95 Z M 143.23 124.91 L 143.13 125.97 C 143.01 127.24 143.95 128.37 145.22 128.49 C 146.49 128.60 147.62 127.67 147.74 126.40 L 147.84 125.33 C 147.95 124.06 147.02 122.94 145.75 122.82 C 144.47 122.70 143.35 123.64 143.23 124.91 Z M 143.15 125.91 L 143.04 126.83 C 142.89 128.10 143.79 129.24 145.05 129.39 C 146.32 129.54 147.46 128.64 147.61 127.38 L 147.72 126.46 C 147.87 125.19 146.97 124.05 145.71 123.90 C 144.44 123.75 143.30 124.65 143.15 125.91 Z M 143.05 126.79 L 142.92 127.78 C 142.75 129.03 143.62 130.19 144.88 130.36 C 146.13 130.53 147.29 129.66 147.46 128.40 L 147.60 127.42 C 147.77 126.16 146.89 125.00 145.64 124.83 C 144.38 124.66 143.22 125.54 143.05 126.79 Z M 142.93 127.75 L 142.78 128.77 C 142.59 130.01 143.44 131.18 144.69 131.37 C 145.94 131.56 147.10 130.70 147.29 129.45 L 147.45 128.43 C 147.64 127.18 146.78 126.02 145.53 125.83 C 144.29 125.64 143.12 126.50 142.93 127.75 Z M 142.79 128.74 L 142.62 129.78 C 142.42 131.02 143.26 132.19 144.50 132.39 C 145.74 132.59 146.91 131.75 147.11 130.51 L 147.28 129.48 C 147.48 128.24 146.64 127.07 145.40 126.86 C 144.16 126.66 142.99 127.50 142.79 128.74 Z M 142.63 129.75 L 142.45 130.77 C 142.23 132.01 143.06 133.18 144.29 133.40 C 145.52 133.62 146.70 132.79 146.92 131.56 L 147.10 130.54 C 147.31 129.31 146.49 128.13 145.26 127.91 C 144.03 127.69 142.85 128.52 142.63 129.75 Z M 142.47 130.75 L 142.28 131.77 C 142.05 132.99 142.85 134.17 144.07 134.40 C 145.30 134.63 146.47 133.83 146.70 132.61 L 146.90 131.59 C 147.13 130.36 146.32 129.19 145.10 128.96 C 143.88 128.73 142.70 129.53 142.47 130.75 Z M 142.31 131.75 L 142.11 132.74 C 141.86 133.94 142.64 135.12 143.85 135.37 C 145.05 135.61 146.23 134.83 146.47 133.63 L 146.68 132.63 C 146.92 131.43 146.14 130.25 144.94 130.00 C 143.73 129.76 142.55 130.54 142.31 131.75 Z M 142.13 132.71 L 141.92 133.68 C 141.66 134.87 142.41 136.04 143.60 136.31 C 144.79 136.57 145.97 135.82 146.23 134.62 L 146.45 133.66 C 146.71 132.47 145.95 131.29 144.76 131.03 C 143.57 130.76 142.40 131.52 142.13 132.71 Z M 141.95 133.64 L 141.72 134.60 C 141.44 135.77 142.17 136.95 143.34 137.23 C 144.52 137.51 145.69 136.79 145.97 135.61 L 146.20 134.66 C 146.48 133.48 145.76 132.31 144.58 132.03 C 143.41 131.75 142.23 132.47 141.95 133.64 Z M 141.76 134.56 L 141.51 135.51 C 141.21 136.67 141.90 137.85 143.06 138.15 C 144.22 138.45 145.40 137.75 145.70 136.60 L 145.94 135.65 C 146.24 134.49 145.55 133.31 144.39 133.01 C 143.24 132.71 142.06 133.41 141.76 134.56 Z M 141.55 135.48 L 141.26 136.48 C 140.94 137.62 141.60 138.80 142.74 139.12 C 143.88 139.44 145.06 138.78 145.38 137.64 L 145.66 136.64 C 145.98 135.50 145.32 134.32 144.18 134.00 C 143.05 133.68 141.87 134.34 141.55 135.48 Z M 141.30 136.43 L 140.99 137.45 C 140.64 138.56 141.26 139.75 142.37 140.09 C 143.49 140.44 144.67 139.82 145.02 138.71 L 145.34 137.69 C 145.68 136.58 145.06 135.39 143.95 135.04 C 142.84 134.70 141.65 135.32 141.30 136.43 Z M 141.04 137.38 L 140.69 138.36 C 140.31 139.44 140.88 140.63 141.96 141.02 C 143.04 141.40 144.24 140.84 144.62 139.75 L 144.97 138.78 C 145.35 137.69 144.78 136.50 143.70 136.11 C 142.61 135.73 141.42 136.30 141.04 137.38 Z M 140.76 138.26 L 140.38 139.17 C 139.95 140.21 140.44 141.42 141.49 141.85 C 142.54 142.29 143.74 141.80 144.18 140.75 L 144.55 139.84 C 144.99 138.80 144.49 137.59 143.45 137.16 C 142.40 136.72 141.19 137.22 140.76 138.26 Z M 140.47 139.04 L 140.07 139.84 C 139.56 140.84 139.96 142.06 140.95 142.57 C 141.95 143.07 143.17 142.68 143.68 141.68 L 144.09 140.88 C 144.60 139.88 144.20 138.66 143.20 138.15 C 142.20 137.64 140.98 138.04 140.47 139.04 Z M 140.24 139.63 L 139.63 140.50 C 139.01 141.41 139.24 142.65 140.15 143.27 C 141.05 143.89 142.29 143.66 142.91 142.76 L 143.51 141.88 C 144.13 140.98 143.91 139.74 143.00 139.12 C 142.10 138.50 140.86 138.73 140.24 139.63 Z M 139.94 140.23 L 139.22 140.91 C 138.45 141.65 138.42 142.87 139.16 143.65 C 139.89 144.42 141.12 144.45 141.89 143.71 L 142.61 143.03 C 143.38 142.29 143.41 141.07 142.67 140.30 C 141.94 139.52 140.71 139.49 139.94 140.23 Z M 139.63 140.68 L 138.81 141.15 C 137.91 141.66 137.60 142.81 138.11 143.71 C 138.62 144.61 139.77 144.92 140.67 144.41 L 141.49 143.94 C 142.39 143.43 142.70 142.28 142.19 141.38 C 141.67 140.48 140.53 140.17 139.63 140.68 Z M 139.20 141.03 L 138.30 141.31 C 137.34 141.61 136.80 142.63 137.10 143.60 C 137.40 144.56 138.42 145.10 139.38 144.80 L 140.28 144.52 C 141.24 144.22 141.78 143.20 141.48 142.24 C 141.19 141.27 140.16 140.74 139.20 141.03 Z M 138.58 141.29 L 137.63 141.43 C 136.66 141.58 135.99 142.49 136.13 143.46 C 136.28 144.44 137.19 145.11 138.17 144.97 L 139.11 144.82 C 140.09 144.68 140.76 143.77 140.61 142.79 C 140.46 141.81 139.55 141.14 138.58 141.29 Z M 137.80 141.44 L 136.79 141.50 C 135.81 141.56 135.08 142.39 135.13 143.37 C 135.19 144.34 136.03 145.08 137.00 145.02 L 138.01 144.96 C 138.98 144.90 139.72 144.06 139.66 143.09 C 139.60 142.12 138.77 141.38 137.80 141.44 Z M 136.87 141.53 L 135.82 141.54 C 134.86 141.55 134.10 142.34 134.11 143.30 C 134.12 144.25 134.91 145.02 135.87 145.01 L 136.91 144.99 C 137.87 144.98 138.64 144.19 138.62 143.24 C 138.61 142.28 137.82 141.51 136.87 141.53 Z M 135.84 141.56 L 135.46 141.56 C 134.51 141.56 133.75 142.33 133.75 143.27 C 133.75 144.22 134.51 144.99 135.46 144.99 L 135.84 144.99 C 136.79 144.99 137.56 144.22 137.56 143.27 C 137.56 142.33 136.79 141.56 135.84 141.56 Z"
      fill="black"
      fill-rule="nonzero" /><path d="M 110.52 143.47 L 109.09 143.47 C 107.84 143.47 106.83 144.48 106.83 145.74 C 106.83 146.99 107.84 148.00 109.09 148.00 L 110.52 148.00 C 111.77 148.00 112.79 146.99 112.79 145.74 C 112.79 144.48 111.77 143.47 110.52 143.47 Z M 109.09 143.30 L 108.11 143.30 C 106.76 143.30 105.67 144.39 105.67 145.74 C 105.67 147.08 106.76 148.17 108.11 148.17 L 109.09 148.17 C 110.44 148.17 111.53 147.08 111.53 145.74 C 111.53 144.39 110.44 143.30 109.09 143.30 Z M 108.11 143.14 L 107.98 143.14 C 106.55 143.14 105.39 144.30 105.39 145.74 C 105.39 147.17 106.55 148.33 107.98 148.33 L 108.11 148.33 C 109.54 148.33 110.70 147.17 110.70 145.74 C 110.70 144.30 109.54 143.14 108.11 143.14 Z M 107.99 148.42 L 108.45 148.42 C 109.93 148.41 111.13 147.21 111.13 145.72 C 111.12 144.24 109.91 143.04 108.43 143.05 L 107.97 143.05 C 106.49 143.05 105.29 144.26 105.30 145.74 C 105.30 147.23 106.51 148.43 107.99 148.42 Z M 108.47 148.46 L 109.30 148.45 C 110.80 148.43 112.00 147.20 111.99 145.69 C 111.97 144.19 110.74 142.98 109.23 143.00 L 108.41 143.01 C 106.90 143.03 105.70 144.26 105.72 145.76 C 105.73 147.27 106.97 148.47 108.47 148.46 Z M 109.32 148.48 L 110.45 148.46 C 111.97 148.43 113.18 147.16 113.15 145.64 C 113.11 144.12 111.85 142.91 110.33 142.94 L 109.21 142.97 C 107.68 143.00 106.47 144.26 106.51 145.78 C 106.54 147.31 107.80 148.51 109.32 148.48 Z M 110.48 148.49 L 111.83 148.45 C 113.37 148.40 114.58 147.10 114.53 145.56 C 114.48 144.02 113.19 142.81 111.64 142.86 L 110.29 142.91 C 108.75 142.96 107.54 144.25 107.59 145.79 C 107.65 147.34 108.94 148.55 110.48 148.49 Z M 111.87 148.48 L 113.22 148.41 C 114.78 148.34 115.98 147.01 115.90 145.46 C 115.83 143.90 114.51 142.69 112.95 142.77 L 111.60 142.83 C 110.04 142.91 108.84 144.23 108.92 145.79 C 108.99 147.35 110.31 148.55 111.87 148.48 Z M 113.25 148.43 L 114.28 148.36 C 115.85 148.27 117.04 146.92 116.95 145.36 C 116.85 143.79 115.51 142.60 113.94 142.69 L 112.91 142.76 C 111.35 142.85 110.15 144.20 110.25 145.76 C 110.34 147.33 111.69 148.52 113.25 148.43 Z M 114.31 148.36 L 115.36 148.29 C 116.92 148.18 118.10 146.83 118.00 145.26 C 117.89 143.70 116.53 142.52 114.97 142.62 L 113.92 142.69 C 112.35 142.80 111.17 144.16 111.28 145.72 C 111.38 147.29 112.74 148.47 114.31 148.36 Z M 115.37 148.29 L 116.43 148.21 C 117.99 148.10 119.17 146.73 119.05 145.17 C 118.94 143.60 117.57 142.43 116.01 142.54 L 114.95 142.62 C 113.39 142.74 112.21 144.10 112.33 145.67 C 112.44 147.23 113.81 148.41 115.37 148.29 Z M 116.44 148.22 L 117.47 148.13 C 119.04 148.01 120.21 146.64 120.09 145.08 C 119.97 143.51 118.60 142.34 117.03 142.46 L 115.99 142.54 C 114.43 142.66 113.26 144.03 113.38 145.60 C 113.50 147.17 114.87 148.34 116.44 148.22 Z M 117.48 148.14 L 118.48 148.06 C 120.05 147.93 121.22 146.56 121.09 144.99 C 120.97 143.42 119.59 142.25 118.03 142.38 L 117.03 142.46 C 115.46 142.59 114.29 143.96 114.41 145.53 C 114.54 147.09 115.91 148.26 117.48 148.14 Z M 118.48 148.06 L 119.43 147.98 C 121.00 147.86 122.17 146.48 122.04 144.91 C 121.91 143.35 120.54 142.18 118.97 142.30 L 118.03 142.38 C 116.46 142.50 115.29 143.88 115.41 145.45 C 115.54 147.01 116.91 148.18 118.48 148.06 Z M 119.42 147.98 L 120.30 147.92 C 121.87 147.79 123.04 146.42 122.92 144.85 C 122.79 143.28 121.42 142.11 119.85 142.23 L 118.98 142.30 C 117.41 142.42 116.23 143.79 116.36 145.36 C 116.48 146.93 117.85 148.11 119.42 147.98 Z M 120.28 147.92 L 121.50 147.83 C 123.07 147.72 124.25 146.35 124.14 144.78 C 124.03 143.21 122.66 142.03 121.09 142.14 L 119.87 142.23 C 118.30 142.34 117.12 143.71 117.23 145.28 C 117.34 146.85 118.71 148.03 120.28 147.92 Z M 121.47 147.83 L 122.54 147.76 C 124.11 147.67 125.31 146.31 125.21 144.74 C 125.11 143.17 123.76 141.97 122.19 142.07 L 121.12 142.14 C 119.55 142.24 118.35 143.59 118.45 145.16 C 118.55 146.74 119.90 147.93 121.47 147.83 Z M 122.51 147.77 L 123.44 147.72 C 125.02 147.63 126.22 146.29 126.14 144.72 C 126.06 143.15 124.71 141.94 123.14 142.02 L 122.21 142.07 C 120.64 142.15 119.43 143.50 119.52 145.07 C 119.60 146.64 120.94 147.85 122.51 147.77 Z M 123.42 147.72 L 124.27 147.68 C 125.84 147.61 127.06 146.27 126.99 144.70 C 126.92 143.13 125.59 141.91 124.01 141.98 L 123.16 142.02 C 121.59 142.09 120.37 143.43 120.44 145.00 C 120.51 146.57 121.85 147.79 123.42 147.72 Z M 124.26 147.68 L 125.16 147.64 C 126.73 147.58 127.95 146.25 127.89 144.67 C 127.82 143.10 126.49 141.88 124.92 141.94 L 124.02 141.98 C 122.45 142.05 121.23 143.38 121.29 144.95 C 121.36 146.52 122.69 147.74 124.26 147.68 Z M 125.16 147.64 L 126.14 147.60 C 127.71 147.53 128.93 146.20 128.87 144.63 C 128.80 143.06 127.47 141.84 125.90 141.91 L 124.92 141.95 C 123.35 142.01 122.13 143.34 122.19 144.91 C 122.26 146.49 123.59 147.71 125.16 147.64 Z M 126.15 147.59 L 127.15 147.55 C 128.72 147.48 129.94 146.15 129.87 144.58 C 129.79 143.01 128.46 141.79 126.89 141.86 L 125.89 141.91 C 124.32 141.98 123.11 143.31 123.18 144.88 C 123.25 146.45 124.58 147.67 126.15 147.59 Z M 127.17 147.54 L 128.19 147.49 C 129.75 147.41 130.96 146.07 130.88 144.51 C 130.80 142.94 129.46 141.73 127.89 141.82 L 126.88 141.87 C 125.31 141.95 124.10 143.28 124.19 144.85 C 124.27 146.42 125.60 147.62 127.17 147.54 Z M 128.21 147.49 L 129.20 147.43 C 130.77 147.33 131.96 145.99 131.86 144.42 C 131.77 142.86 130.43 141.67 128.86 141.76 L 127.87 141.82 C 126.30 141.91 125.11 143.26 125.21 144.82 C 125.30 146.39 126.64 147.58 128.21 147.49 Z M 129.22 147.42 L 130.20 147.36 C 131.76 147.26 132.95 145.91 132.85 144.34 C 132.74 142.78 131.39 141.60 129.83 141.70 L 128.85 141.77 C 127.28 141.87 126.10 143.22 126.20 144.78 C 126.31 146.34 127.66 147.53 129.22 147.42 Z M 130.20 147.35 L 131.20 147.29 C 132.76 147.18 133.94 145.84 133.84 144.27 C 133.74 142.71 132.39 141.53 130.83 141.64 L 129.83 141.70 C 128.27 141.81 127.09 143.16 127.19 144.72 C 127.30 146.28 128.64 147.46 130.20 147.35 Z M 131.19 147.29 L 132.21 147.22 C 133.76 147.12 134.95 145.78 134.85 144.22 C 134.75 142.66 133.41 141.48 131.85 141.58 L 130.84 141.64 C 129.28 141.74 128.09 143.08 128.19 144.64 C 128.29 146.20 129.63 147.38 131.19 147.29 Z M 132.18 147.22 L 133.17 147.16 C 134.72 147.08 135.92 145.75 135.83 144.19 C 135.75 142.63 134.42 141.44 132.86 141.53 L 131.87 141.58 C 130.32 141.67 129.12 143.00 129.21 144.55 C 129.29 146.11 130.63 147.30 132.18 147.22 Z M 133.14 147.16 L 134.12 147.11 C 135.67 147.04 136.87 145.72 136.80 144.17 C 136.73 142.62 135.41 141.42 133.85 141.49 L 132.88 141.53 C 131.33 141.60 130.13 142.92 130.20 144.48 C 130.27 146.03 131.59 147.23 133.14 147.16 Z M 134.10 147.11 L 135.09 147.07 C 136.64 147.00 137.85 145.70 137.79 144.15 C 137.72 142.60 136.42 141.39 134.87 141.45 L 133.87 141.49 C 132.32 141.56 131.12 142.86 131.18 144.41 C 131.24 145.96 132.55 147.17 134.10 147.11 Z M 135.08 147.06 L 136.10 147.02 C 137.65 146.97 138.85 145.67 138.80 144.12 C 138.74 142.58 137.44 141.37 135.90 141.43 L 134.88 141.46 C 133.33 141.52 132.13 142.82 132.18 144.36 C 132.24 145.91 133.54 147.11 135.08 147.06 Z M 136.09 147.01 L 137.13 146.98 C 138.67 146.93 139.87 145.64 139.82 144.09 C 139.77 142.55 138.48 141.35 136.94 141.40 L 135.91 141.43 C 134.37 141.49 133.16 142.78 133.21 144.32 C 133.26 145.86 134.55 147.07 136.09 147.01 Z M 137.12 146.97 L 138.12 146.94 C 139.66 146.89 140.86 145.60 140.81 144.06 C 140.76 142.53 139.48 141.32 137.94 141.37 L 136.94 141.41 C 135.40 141.46 134.20 142.74 134.25 144.28 C 134.30 145.82 135.59 147.02 137.12 146.97 Z M 138.12 146.93 L 139.13 146.90 C 140.66 146.85 141.87 145.56 141.82 144.03 C 141.77 142.50 140.48 141.30 138.95 141.35 L 137.94 141.38 C 136.41 141.43 135.21 142.71 135.26 144.25 C 135.31 145.78 136.59 146.98 138.12 146.93 Z M 139.13 146.89 L 140.14 146.85 C 141.67 146.81 142.87 145.53 142.82 144.00 C 142.77 142.47 141.49 141.28 139.96 141.33 L 138.95 141.36 C 137.43 141.41 136.23 142.69 136.28 144.21 C 136.33 145.74 137.61 146.94 139.13 146.89 Z M 140.14 146.85 L 141.14 146.81 C 142.66 146.76 143.85 145.49 143.80 143.97 C 143.75 142.44 142.48 141.25 140.95 141.30 L 139.96 141.33 C 138.44 141.38 137.25 142.66 137.30 144.18 C 137.35 145.70 138.62 146.90 140.14 146.85 Z M 141.14 146.80 L 142.15 146.77 C 143.67 146.72 144.86 145.45 144.81 143.93 C 144.75 142.41 143.48 141.23 141.97 141.28 L 140.95 141.31 C 139.43 141.36 138.25 142.63 138.30 144.15 C 138.35 145.67 139.62 146.86 141.14 146.80 Z M 142.16 146.76 L 143.18 146.72 C 144.69 146.67 145.87 145.40 145.81 143.89 C 145.76 142.38 144.49 141.20 142.98 141.25 L 141.96 141.29 C 140.45 141.34 139.27 142.61 139.32 144.12 C 139.38 145.63 140.64 146.81 142.16 146.76 Z M 143.18 146.71 L 144.17 146.67 C 145.68 146.62 146.85 145.36 146.80 143.85 C 146.74 142.35 145.48 141.17 143.98 141.23 L 142.98 141.26 C 141.48 141.32 140.30 142.58 140.36 144.09 C 140.41 145.59 141.67 146.76 143.18 146.71 Z M 144.17 146.66 L 145.15 146.63 C 146.65 146.57 147.82 145.31 147.76 143.82 C 147.71 142.32 146.45 141.15 144.95 141.20 L 143.98 141.24 C 142.48 141.30 141.31 142.55 141.36 144.05 C 141.42 145.55 142.68 146.72 144.17 146.66 Z M 145.15 146.61 L 146.13 146.58 C 147.62 146.52 148.79 145.27 148.73 143.78 C 148.68 142.29 147.42 141.13 145.93 141.18 L 144.95 141.22 C 143.46 141.27 142.30 142.53 142.35 144.02 C 142.41 145.51 143.66 146.67 145.15 146.61 Z M 146.13 146.56 L 147.14 146.53 C 148.63 146.47 149.78 145.23 149.73 143.74 C 149.67 142.26 148.43 141.10 146.94 141.16 L 145.93 141.19 C 144.45 141.25 143.29 142.50 143.35 143.98 C 143.40 145.46 144.65 146.62 146.13 146.56 Z M 147.14 146.51 L 148.15 146.48 C 149.62 146.42 150.77 145.18 150.72 143.70 C 150.66 142.23 149.42 141.08 147.95 141.13 L 146.94 141.17 C 145.47 141.23 144.32 142.47 144.37 143.94 C 144.43 145.42 145.67 146.57 147.14 146.51 Z M 148.15 146.46 L 149.14 146.42 C 150.61 146.37 151.76 145.13 151.70 143.67 C 151.65 142.20 150.41 141.05 148.94 141.11 L 147.95 141.15 C 146.48 141.20 145.33 142.44 145.39 143.90 C 145.45 145.37 146.68 146.52 148.15 146.46 Z M 149.14 146.41 L 150.13 146.37 C 151.59 146.32 152.73 145.09 152.67 143.63 C 152.62 142.17 151.39 141.03 149.93 141.09 L 148.94 141.12 C 147.48 141.18 146.34 142.41 146.40 143.87 C 146.45 145.33 147.68 146.47 149.14 146.41 Z M 150.13 146.36 L 151.15 146.32 C 152.60 146.26 153.73 145.04 153.67 143.59 C 153.61 142.13 152.39 141.00 150.94 141.06 L 149.93 141.10 C 148.48 141.16 147.35 142.38 147.40 143.83 C 147.46 145.28 148.68 146.41 150.13 146.36 Z M 151.16 146.30 L 152.16 146.26 C 153.60 146.19 154.72 144.98 154.65 143.53 C 154.59 142.09 153.37 140.97 151.93 141.04 L 150.93 141.08 C 149.49 141.14 148.37 142.36 148.43 143.80 C 148.50 145.24 149.71 146.36 151.16 146.30 Z M 152.17 146.24 L 153.16 146.19 C 154.59 146.12 155.70 144.90 155.63 143.47 C 155.55 142.04 154.34 140.94 152.91 141.01 L 151.92 141.05 C 150.48 141.12 149.38 142.34 149.45 143.77 C 149.52 145.20 150.74 146.31 152.17 146.24 Z M 153.18 146.17 L 154.18 146.11 C 155.60 146.03 156.68 144.81 156.60 143.39 C 156.52 141.97 155.30 140.89 153.88 140.97 L 152.89 141.02 C 151.46 141.11 150.38 142.32 150.46 143.75 C 150.54 145.17 151.76 146.25 153.18 146.17 Z M 154.20 146.09 L 155.21 146.03 C 156.62 145.93 157.69 144.71 157.60 143.30 C 157.50 141.89 156.28 140.83 154.87 140.92 L 153.86 140.99 C 152.45 141.08 151.38 142.30 151.47 143.71 C 151.57 145.12 152.79 146.19 154.20 146.09 Z M 155.22 146.01 L 156.23 145.94 C 157.63 145.84 158.68 144.62 158.58 143.22 C 158.48 141.82 157.27 140.77 155.87 140.87 L 154.86 140.94 C 153.46 141.04 152.41 142.25 152.51 143.65 C 152.61 145.05 153.82 146.11 155.22 146.01 Z M 156.22 145.92 L 157.21 145.85 C 158.60 145.75 159.65 144.55 159.55 143.16 C 159.45 141.77 158.25 140.72 156.86 140.82 L 155.87 140.89 C 154.48 140.98 153.43 142.19 153.53 143.58 C 153.63 144.97 154.83 146.01 156.22 145.92 Z M 157.19 145.83 L 158.18 145.77 C 159.56 145.68 160.61 144.49 160.52 143.11 C 160.43 141.73 159.24 140.68 157.86 140.77 L 156.87 140.84 C 155.49 140.92 154.45 142.11 154.53 143.49 C 154.62 144.87 155.81 145.92 157.19 145.83 Z M 158.16 145.75 L 159.15 145.70 C 160.52 145.62 161.57 144.45 161.50 143.08 C 161.42 141.71 160.25 140.66 158.88 140.73 L 157.88 140.79 C 156.51 140.86 155.46 142.04 155.54 143.41 C 155.61 144.78 156.79 145.83 158.16 145.75 Z M 159.13 145.68 L 160.12 145.63 C 161.48 145.57 162.53 144.41 162.47 143.05 C 162.40 141.69 161.25 140.64 159.89 140.70 L 158.90 140.75 C 157.54 140.82 156.49 141.97 156.55 143.33 C 156.62 144.70 157.77 145.75 159.13 145.68 Z M 160.11 145.61 L 161.12 145.57 C 162.47 145.51 163.51 144.37 163.45 143.02 C 163.40 141.66 162.25 140.62 160.90 140.68 L 159.90 140.72 C 158.55 140.78 157.50 141.92 157.56 143.27 C 157.62 144.63 158.76 145.67 160.11 145.61 Z M 161.11 145.55 L 162.03 145.51 C 163.37 145.46 164.42 144.32 164.36 142.98 C 164.30 141.64 163.17 140.60 161.83 140.65 L 160.91 140.69 C 159.56 140.75 158.52 141.88 158.58 143.23 C 158.64 144.57 159.77 145.61 161.11 145.55 Z M 162.03 145.50 L 162.99 145.46 C 164.32 145.40 165.35 144.27 165.30 142.94 C 165.24 141.61 164.11 140.57 162.78 140.63 L 161.83 140.67 C 160.49 140.73 159.46 141.85 159.52 143.19 C 159.57 144.52 160.70 145.55 162.03 145.50 Z M 162.99 145.44 L 164.01 145.39 C 165.33 145.34 166.35 144.22 166.29 142.89 C 166.24 141.57 165.12 140.54 163.79 140.60 L 162.78 140.65 C 161.45 140.71 160.43 141.83 160.49 143.15 C 160.55 144.47 161.67 145.50 162.99 145.44 Z M 164.01 145.38 L 165.10 145.33 C 166.42 145.26 167.43 144.15 167.37 142.83 C 167.31 141.52 166.19 140.50 164.88 140.57 L 163.79 140.62 C 162.47 140.68 161.46 141.80 161.52 143.11 C 161.58 144.43 162.70 145.44 164.01 145.38 Z M 165.11 145.31 L 166.03 145.26 C 167.33 145.20 168.34 144.08 168.27 142.78 C 168.20 141.48 167.09 140.47 165.79 140.54 L 164.87 140.58 C 163.56 140.65 162.56 141.76 162.63 143.07 C 162.69 144.37 163.80 145.38 165.11 145.31 Z M 166.03 145.25 L 166.96 145.20 C 168.26 145.13 169.26 144.03 169.19 142.73 C 169.12 141.44 168.02 140.44 166.72 140.51 L 165.79 140.55 C 164.49 140.62 163.49 141.72 163.56 143.02 C 163.63 144.31 164.73 145.31 166.03 145.25 Z M 166.96 145.18 L 167.94 145.13 C 169.23 145.07 170.22 143.98 170.16 142.69 C 170.10 141.41 169.01 140.41 167.72 140.48 L 166.73 140.52 C 165.45 140.58 164.45 141.68 164.51 142.96 C 164.58 144.25 165.67 145.24 166.96 145.18 Z M 167.93 145.12 L 168.96 145.07 C 170.24 145.02 171.23 143.94 171.18 142.66 C 171.13 141.39 170.05 140.39 168.77 140.45 L 167.73 140.49 C 166.46 140.55 165.46 141.63 165.52 142.90 C 165.57 144.18 166.65 145.17 167.93 145.12 Z M 168.95 145.06 L 170.03 145.02 C 171.30 144.98 172.29 143.91 172.25 142.64 C 172.20 141.37 171.14 140.38 169.87 140.43 L 168.79 140.46 C 167.52 140.51 166.52 141.57 166.57 142.84 C 166.61 144.11 167.68 145.10 168.95 145.06 Z M 170.01 145.00 L 171.03 144.97 C 172.29 144.94 173.28 143.90 173.25 142.64 C 173.21 141.38 172.17 140.39 170.91 140.42 L 169.89 140.45 C 168.63 140.48 167.64 141.52 167.67 142.78 C 167.70 144.04 168.75 145.03 170.01 145.00 Z M 171.01 144.95 L 171.97 144.93 C 173.22 144.91 174.20 143.88 174.18 142.64 C 174.16 141.40 173.14 140.41 171.89 140.43 L 170.93 140.45 C 169.69 140.47 168.70 141.49 168.72 142.74 C 168.74 143.98 169.77 144.97 171.01 144.95 Z M 171.96 144.90 L 172.95 144.88 C 174.17 144.87 175.15 143.87 175.14 142.64 C 175.12 141.42 174.12 140.44 172.90 140.45 L 171.91 140.46 C 170.69 140.48 169.70 141.48 169.72 142.71 C 169.73 143.93 170.74 144.91 171.96 144.90 Z M 172.94 144.85 L 173.94 144.85 C 175.15 144.84 176.12 143.85 176.11 142.65 C 176.10 141.44 175.12 140.47 173.91 140.48 L 172.91 140.49 C 171.70 140.49 170.73 141.48 170.74 142.68 C 170.75 143.89 171.73 144.86 172.94 144.85 Z M 173.93 144.81 L 174.95 144.81 C 176.14 144.81 177.10 143.84 177.10 142.65 C 177.09 141.46 176.13 140.51 174.94 140.51 L 173.92 140.51 C 172.73 140.52 171.77 141.48 171.78 142.67 C 171.78 143.86 172.75 144.82 173.93 144.81 Z M 174.95 144.78 L 175.97 144.78 C 177.14 144.77 178.09 143.82 178.09 142.66 C 178.09 141.49 177.14 140.54 175.97 140.54 L 174.94 140.54 C 173.77 140.54 172.83 141.49 172.83 142.66 C 172.83 143.83 173.78 144.78 174.95 144.78 Z M 175.97 144.74 L 176.87 144.74 C 178.02 144.74 178.96 143.81 178.96 142.66 C 178.96 141.51 178.02 140.57 176.87 140.57 L 175.97 140.57 C 174.82 140.57 173.89 141.51 173.89 142.66 C 173.89 143.81 174.82 144.74 175.97 144.74 Z"
      fill="black"
      fill-rule="nonzero" /><path d="M 137.89 150.84 L 137.62 151.84 C 137.30 153.05 138.02 154.29 139.23 154.62 C 140.44 154.94 141.68 154.22 142.00 153.01 L 142.27 152.01 C 142.59 150.80 141.87 149.56 140.66 149.24 C 139.45 148.91 138.21 149.63 137.89 150.84 Z M 137.57 151.86 L 137.32 152.85 C 137.01 154.09 137.76 155.34 138.99 155.66 C 140.23 155.97 141.49 155.22 141.81 153.98 L 142.05 152.99 C 142.37 151.75 141.62 150.50 140.38 150.18 C 139.14 149.87 137.88 150.62 137.57 151.86 Z M 137.26 152.90 L 137.04 153.87 C 136.76 155.14 137.56 156.40 138.83 156.69 C 140.10 156.97 141.37 156.17 141.65 154.90 L 141.87 153.93 C 142.15 152.66 141.35 151.39 140.08 151.11 C 138.80 150.83 137.54 151.63 137.26 152.90 Z M 136.97 153.97 L 136.81 154.91 C 136.58 156.22 137.45 157.46 138.76 157.69 C 140.07 157.93 141.32 157.05 141.55 155.74 L 141.72 154.80 C 141.95 153.49 141.07 152.24 139.76 152.01 C 138.45 151.78 137.21 152.66 136.97 153.97 Z M 136.76 155.05 L 136.65 156.05 C 136.50 157.39 137.47 158.59 138.80 158.74 C 140.13 158.89 141.33 157.93 141.48 156.59 L 141.60 155.59 C 141.74 154.26 140.78 153.06 139.45 152.91 C 138.12 152.76 136.91 153.72 136.76 155.05 Z M 136.64 156.19 L 136.59 157.18 C 136.52 158.52 137.55 159.66 138.89 159.73 C 140.23 159.80 141.37 158.77 141.44 157.43 L 141.49 156.45 C 141.56 155.11 140.54 153.97 139.20 153.90 C 137.86 153.83 136.71 154.86 136.64 156.19 Z M 136.59 157.27 L 136.57 158.26 C 136.55 159.60 137.62 160.71 138.96 160.73 C 140.30 160.75 141.41 159.68 141.43 158.34 L 141.44 157.34 C 141.46 156.00 140.39 154.90 139.05 154.88 C 137.71 154.86 136.61 155.93 136.59 157.27 Z M 136.58 158.30 L 136.58 159.29 C 136.57 160.62 137.66 161.71 139.00 161.71 C 140.34 161.71 141.42 160.63 141.42 159.29 L 141.43 158.30 C 141.43 156.96 140.34 155.88 139.00 155.88 C 137.66 155.87 136.58 156.96 136.58 158.30 Z M 136.58 159.29 L 136.58 160.24 C 136.58 161.58 137.66 162.66 139.00 162.66 C 140.34 162.66 141.42 161.58 141.42 160.24 L 141.42 159.29 C 141.42 157.95 140.34 156.87 139.00 156.87 C 137.66 156.87 136.58 157.95 136.58 159.29 Z M 136.59 160.24 L 136.59 161.24 C 136.59 162.57 137.67 163.65 139.00 163.65 C 140.33 163.65 141.41 162.57 141.41 161.24 L 141.41 160.24 C 141.41 158.91 140.33 157.83 139.00 157.83 C 137.67 157.83 136.59 158.91 136.59 160.24 Z M 136.59 161.24 L 136.59 162.27 C 136.59 163.60 137.67 164.68 139.00 164.68 C 140.33 164.68 141.41 163.60 141.41 162.27 L 141.41 161.24 C 141.41 159.91 140.33 158.83 139.00 158.83 C 137.67 158.83 136.59 159.91 136.59 161.24 Z M 136.60 162.27 L 136.60 163.30 C 136.60 164.62 137.68 165.70 139.00 165.70 C 140.32 165.70 141.40 164.62 141.40 163.30 L 141.40 162.27 C 141.40 160.95 140.32 159.87 139.00 159.87 C 137.68 159.87 136.60 160.95 136.60 162.27 Z M 136.61 163.30 L 136.61 164.25 C 136.61 165.57 137.68 166.64 139.00 166.64 C 140.32 166.64 141.39 165.57 141.39 164.25 L 141.39 163.30 C 141.39 161.98 140.32 160.91 139.00 160.91 C 137.68 160.91 136.61 161.98 136.61 163.30 Z M 136.62 164.25 L 136.62 165.23 C 136.62 166.54 137.69 167.61 139.00 167.61 C 140.31 167.61 141.38 166.54 141.38 165.23 L 141.38 164.25 C 141.38 162.93 140.31 161.87 139.00 161.87 C 137.69 161.87 136.62 162.93 136.62 164.25 Z M 136.63 165.23 L 136.63 166.24 C 136.63 167.55 137.69 168.61 139.00 168.61 C 140.31 168.61 141.37 167.55 141.37 166.24 L 141.37 165.23 C 141.37 163.92 140.31 162.86 139.00 162.86 C 137.69 162.86 136.63 163.92 136.63 165.23 Z M 136.64 166.24 L 136.64 167.28 C 136.64 168.59 137.70 169.65 139.00 169.65 C 140.30 169.65 141.36 168.59 141.36 167.28 L 141.36 166.24 C 141.36 164.93 140.30 163.88 139.00 163.88 C 137.70 163.88 136.64 164.93 136.64 166.24 Z M 136.65 167.28 L 136.65 168.33 C 136.65 169.63 137.70 170.68 139.00 170.68 C 140.30 170.68 141.35 169.63 141.35 168.33 L 141.35 167.28 C 141.35 165.98 140.30 164.93 139.00 164.93 C 137.70 164.93 136.65 165.98 136.65 167.28 Z M 136.66 168.33 L 136.66 169.38 C 136.66 170.67 137.71 171.71 139.00 171.71 C 140.29 171.71 141.34 170.67 141.34 169.38 L 141.34 168.33 C 141.34 167.04 140.29 165.99 139.00 165.99 C 137.71 165.99 136.66 167.04 136.66 168.33 Z M 136.68 169.38 L 136.68 170.41 C 136.68 171.70 137.72 172.74 139.00 172.74 C 140.28 172.74 141.32 171.70 141.32 170.41 L 141.32 169.38 C 141.32 168.09 140.28 167.05 139.00 167.05 C 137.72 167.05 136.68 168.09 136.68 169.38 Z M 136.69 170.41 L 136.69 171.42 C 136.69 172.69 137.72 173.73 139.00 173.73 C 140.28 173.73 141.31 172.69 141.31 171.42 L 141.31 170.41 C 141.31 169.14 140.28 168.10 139.00 168.10 C 137.72 168.10 136.69 169.14 136.69 170.41 Z M 136.71 171.42 L 136.71 172.36 C 136.71 173.63 137.73 174.65 139.00 174.65 C 140.27 174.65 141.29 173.63 141.29 172.36 L 141.29 171.42 C 141.29 170.15 140.27 169.12 139.00 169.12 C 137.73 169.12 136.71 170.15 136.71 171.42 Z M 136.73 172.36 L 136.73 173.33 C 136.73 174.58 137.74 175.60 139.00 175.60 C 140.26 175.60 141.27 174.58 141.27 173.33 L 141.27 172.36 C 141.27 171.10 140.26 170.09 139.00 170.09 C 137.74 170.09 136.73 171.10 136.73 172.36 Z M 136.76 173.33 L 136.76 174.28 C 136.76 175.52 137.76 176.53 139.00 176.53 C 140.24 176.53 141.24 175.52 141.24 174.28 L 141.24 173.33 C 141.24 172.09 140.24 171.08 139.00 171.08 C 137.76 171.08 136.76 172.09 136.76 173.33 Z M 136.79 174.28 L 136.79 175.23 C 136.79 176.45 137.78 177.44 139.00 177.44 C 140.22 177.44 141.21 176.45 141.21 175.23 L 141.21 174.28 C 141.21 173.06 140.22 172.07 139.00 172.07 C 137.78 172.07 136.79 173.06 136.79 174.28 Z M 136.82 175.23 L 136.82 176.25 C 136.82 177.46 137.80 178.43 139.00 178.43 C 140.20 178.43 141.18 177.46 141.18 176.25 L 141.18 175.23 C 141.18 174.03 140.20 173.05 139.00 173.05 C 137.80 173.05 136.82 174.03 136.82 175.23 Z M 136.85 176.25 L 136.85 177.21 C 136.85 178.40 137.81 179.36 139.00 179.36 C 140.19 179.36 141.15 178.40 141.15 177.21 L 141.15 176.25 C 141.15 175.07 140.19 174.10 139.00 174.10 C 137.81 174.10 136.85 175.07 136.85 176.25 Z M 136.86 177.21 L 136.86 178.08 C 136.86 179.26 137.82 180.22 139.00 180.22 C 140.18 180.22 141.13 179.27 141.14 178.09 L 141.14 177.21 C 141.14 176.03 140.18 175.07 139.00 175.07 C 137.82 175.07 136.86 176.03 136.86 177.21 Z M 136.87 178.07 L 136.87 179.03 C 136.86 180.20 137.81 181.16 138.98 181.16 C 140.16 181.17 141.12 180.22 141.12 179.04 L 141.13 178.09 C 141.13 176.92 140.18 175.96 139.01 175.96 C 137.83 175.95 136.88 176.90 136.87 178.07 Z M 136.88 179.01 L 136.87 180.03 C 136.86 181.20 137.79 182.16 138.96 182.17 C 140.13 182.18 141.09 181.24 141.10 180.07 L 141.11 179.06 C 141.12 177.89 140.18 176.93 139.01 176.92 C 137.84 176.91 136.89 177.84 136.88 179.01 Z M 136.88 180.02 L 136.86 181.09 C 136.84 182.25 137.77 183.21 138.93 183.23 C 140.10 183.25 141.06 182.32 141.08 181.16 L 141.09 180.08 C 141.11 178.92 140.18 177.96 139.02 177.94 C 137.85 177.92 136.89 178.85 136.88 180.02 Z M 136.87 181.07 L 136.84 182.19 C 136.82 183.35 137.73 184.31 138.89 184.34 C 140.05 184.36 141.01 183.45 141.04 182.29 L 141.07 181.17 C 141.09 180.01 140.18 179.05 139.02 179.02 C 137.86 179.00 136.90 179.91 136.87 181.07 Z M 136.86 182.17 L 136.82 183.26 C 136.78 184.41 137.69 185.37 138.84 185.41 C 139.99 185.45 140.95 184.54 140.99 183.39 L 141.03 182.31 C 141.06 181.15 140.16 180.19 139.01 180.15 C 137.86 180.11 136.89 181.02 136.86 182.17 Z M 136.84 183.24 L 136.80 184.27 C 136.75 185.41 137.64 186.38 138.78 186.43 C 139.92 186.47 140.89 185.58 140.93 184.44 L 140.97 183.41 C 141.02 182.27 140.13 181.30 138.99 181.26 C 137.85 181.21 136.88 182.10 136.84 183.24 Z M 136.82 184.26 L 136.77 185.30 C 136.71 186.43 137.58 187.39 138.72 187.44 C 139.85 187.50 140.81 186.62 140.86 185.49 L 140.91 184.46 C 140.97 183.32 140.09 182.36 138.96 182.31 C 137.83 182.25 136.87 183.13 136.82 184.26 Z M 136.79 185.28 L 136.73 186.31 C 136.67 187.43 137.53 188.39 138.65 188.45 C 139.77 188.51 140.72 187.65 140.78 186.53 L 140.84 185.50 C 140.90 184.39 140.04 183.43 138.92 183.37 C 137.80 183.31 136.85 184.16 136.79 185.28 Z M 136.75 186.30 L 136.69 187.31 C 136.62 188.42 137.47 189.37 138.58 189.44 C 139.68 189.51 140.64 188.66 140.70 187.56 L 140.76 186.55 C 140.83 185.44 139.99 184.48 138.88 184.42 C 137.77 184.35 136.82 185.19 136.75 186.30 Z M 136.71 187.30 L 136.65 188.28 C 136.57 189.38 137.40 190.33 138.50 190.40 C 139.60 190.47 140.55 189.64 140.62 188.54 L 140.68 187.56 C 140.76 186.47 139.92 185.52 138.83 185.45 C 137.73 185.38 136.78 186.21 136.71 187.30 Z M 136.67 188.27 L 136.60 189.21 C 136.52 190.29 137.34 191.23 138.43 191.31 C 139.51 191.39 140.45 190.57 140.53 189.49 L 140.60 188.55 C 140.68 187.47 139.86 186.52 138.77 186.45 C 137.69 186.37 136.74 187.19 136.67 188.27 Z M 136.63 189.20 L 136.54 190.24 C 136.46 191.32 137.26 192.25 138.34 192.33 C 139.41 192.42 140.34 191.61 140.43 190.54 L 140.51 189.49 C 140.59 188.42 139.79 187.49 138.72 187.41 C 137.64 187.32 136.71 188.12 136.63 189.20 Z M 136.58 190.23 L 136.49 191.31 C 136.40 192.37 137.18 193.29 138.24 193.38 C 139.29 193.47 140.21 192.68 140.30 191.63 L 140.39 190.55 C 140.48 189.50 139.70 188.57 138.64 188.49 C 137.59 188.40 136.67 189.18 136.58 190.23 Z M 136.53 191.30 L 136.43 192.31 C 136.34 193.34 137.10 194.25 138.14 194.34 C 139.17 194.44 140.08 193.67 140.17 192.64 L 140.27 191.64 C 140.36 190.61 139.60 189.69 138.56 189.60 C 137.53 189.51 136.62 190.27 136.53 191.30 Z M 136.47 192.30 L 136.38 193.25 C 136.29 194.26 137.03 195.16 138.04 195.25 C 139.05 195.35 139.95 194.61 140.05 193.59 L 140.14 192.65 C 140.23 191.64 139.49 190.74 138.48 190.64 C 137.47 190.54 136.57 191.29 136.47 192.30 Z M 136.42 193.24 L 136.33 194.16 C 136.23 195.15 136.95 196.03 137.95 196.13 C 138.94 196.23 139.82 195.50 139.92 194.51 L 140.01 193.60 C 140.11 192.61 139.38 191.72 138.39 191.62 C 137.40 191.53 136.52 192.25 136.42 193.24 Z M 136.36 194.16 L 136.31 194.64 C 136.21 195.62 136.92 196.49 137.90 196.59 C 138.88 196.69 139.75 195.97 139.85 194.99 L 139.89 194.51 C 139.99 193.53 139.28 192.66 138.30 192.56 C 137.32 192.47 136.45 193.18 136.36 194.16 Z"
      fill="black"
      fill-rule="nonzero" /><path d="M 141.17 154.00 L 142.07 154.18 C 143.32 154.43 144.54 153.61 144.78 152.36 C 145.03 151.11 144.21 149.89 142.96 149.65 L 142.06 149.47 C 140.81 149.22 139.60 150.04 139.35 151.29 C 139.10 152.54 139.92 153.76 141.17 154.00 Z M 142.01 154.18 L 142.93 154.38 C 144.18 154.66 145.42 153.87 145.70 152.62 C 145.98 151.37 145.19 150.13 143.94 149.85 L 143.02 149.64 C 141.77 149.37 140.52 150.16 140.25 151.41 C 139.97 152.66 140.76 153.90 142.01 154.18 Z M 142.82 154.37 L 143.78 154.63 C 145.03 154.97 146.31 154.23 146.65 152.98 C 146.98 151.74 146.24 150.46 145.00 150.12 L 144.04 149.86 C 142.79 149.52 141.51 150.26 141.18 151.51 C 140.84 152.75 141.58 154.04 142.82 154.37 Z M 143.65 154.60 L 144.67 154.94 C 145.90 155.35 147.23 154.69 147.64 153.46 C 148.05 152.23 147.38 150.90 146.15 150.49 L 145.13 150.15 C 143.90 149.74 142.57 150.40 142.16 151.63 C 141.75 152.86 142.42 154.19 143.65 154.60 Z M 144.53 154.90 L 145.49 155.29 C 146.70 155.78 148.08 155.19 148.56 153.99 C 149.05 152.78 148.46 151.40 147.26 150.92 L 146.29 150.53 C 145.08 150.04 143.71 150.63 143.22 151.83 C 142.74 153.04 143.32 154.42 144.53 154.90 Z M 145.39 155.25 L 146.28 155.66 C 147.46 156.20 148.87 155.68 149.41 154.50 C 149.96 153.32 149.44 151.91 148.25 151.37 L 147.36 150.96 C 146.18 150.42 144.78 150.93 144.23 152.12 C 143.69 153.30 144.21 154.70 145.39 155.25 Z M 146.21 155.62 L 147.12 156.08 C 148.28 156.67 149.70 156.20 150.29 155.03 C 150.87 153.87 150.40 152.45 149.24 151.86 L 148.33 151.41 C 147.16 150.82 145.74 151.29 145.16 152.45 C 144.57 153.62 145.04 155.04 146.21 155.62 Z M 147.06 156.05 L 147.97 156.54 C 149.12 157.16 150.55 156.73 151.17 155.58 C 151.78 154.44 151.36 153.01 150.21 152.39 L 149.30 151.90 C 148.15 151.28 146.72 151.71 146.10 152.85 C 145.48 154.00 145.91 155.43 147.06 156.05 Z M 147.92 156.51 L 148.81 157.02 C 149.94 157.67 151.38 157.28 152.02 156.15 C 152.67 155.02 152.28 153.58 151.15 152.93 L 150.26 152.42 C 149.13 151.77 147.69 152.16 147.04 153.29 C 146.40 154.42 146.79 155.86 147.92 156.51 Z M 148.76 156.99 L 149.60 157.50 C 150.71 158.18 152.16 157.82 152.84 156.71 C 153.51 155.59 153.16 154.14 152.04 153.47 L 151.20 152.96 C 150.09 152.28 148.64 152.64 147.96 153.75 C 147.29 154.87 147.64 156.32 148.76 156.99 Z M 149.55 157.47 L 150.44 158.04 C 151.54 158.75 153.00 158.43 153.70 157.34 C 154.41 156.24 154.09 154.78 152.99 154.08 L 152.10 153.50 C 151.00 152.80 149.54 153.12 148.84 154.21 C 148.14 155.31 148.45 156.76 149.55 157.47 Z M 150.38 158.00 L 151.24 158.59 C 152.31 159.33 153.78 159.06 154.52 157.99 C 155.26 156.92 154.99 155.45 153.91 154.71 L 153.05 154.12 C 151.98 153.38 150.52 153.65 149.78 154.73 C 149.04 155.80 149.31 157.27 150.38 158.00 Z M 151.18 158.55 L 151.97 159.13 C 153.02 159.90 154.49 159.68 155.27 158.63 C 156.04 157.59 155.81 156.11 154.77 155.34 L 153.98 154.76 C 152.93 153.98 151.45 154.21 150.68 155.26 C 149.91 156.30 150.13 157.78 151.18 158.55 Z M 151.91 159.09 L 152.66 159.68 C 153.69 160.48 155.17 160.30 155.97 159.28 C 156.77 158.25 156.59 156.77 155.57 155.97 L 154.82 155.38 C 153.80 154.58 152.32 154.76 151.52 155.78 C 150.71 156.81 150.89 158.29 151.91 159.09 Z M 152.62 159.64 L 153.35 160.24 C 154.35 161.07 155.83 160.93 156.66 159.92 C 157.49 158.92 157.35 157.44 156.35 156.61 L 155.62 156.01 C 154.61 155.18 153.13 155.32 152.30 156.32 C 151.47 157.33 151.61 158.81 152.62 159.64 Z M 153.31 160.21 L 154.05 160.85 C 155.04 161.70 156.52 161.58 157.37 160.60 C 158.22 159.61 158.11 158.12 157.12 157.27 L 156.38 156.64 C 155.40 155.79 153.91 155.90 153.06 156.89 C 152.21 157.88 152.32 159.36 153.31 160.21 Z M 154.00 160.81 L 154.74 161.48 C 155.71 162.35 157.20 162.27 158.08 161.30 C 158.95 160.33 158.87 158.84 157.90 157.97 L 157.17 157.30 C 156.20 156.43 154.70 156.51 153.83 157.48 C 152.96 158.45 153.03 159.94 154.00 160.81 Z M 154.69 161.43 L 155.41 162.13 C 156.36 163.03 157.86 163.00 158.76 162.05 C 159.66 161.11 159.63 159.61 158.68 158.71 L 157.96 158.01 C 157.01 157.11 155.51 157.14 154.61 158.09 C 153.71 159.03 153.74 160.53 154.69 161.43 Z M 155.35 162.07 L 156.05 162.80 C 156.97 163.74 158.47 163.76 159.41 162.84 C 160.35 161.93 160.37 160.43 159.45 159.49 L 158.75 158.76 C 157.83 157.82 156.33 157.80 155.39 158.72 C 154.45 159.63 154.43 161.13 155.35 162.07 Z M 155.98 162.73 L 156.65 163.48 C 157.53 164.46 159.03 164.54 160.01 163.67 C 160.99 162.79 161.07 161.29 160.20 160.31 L 159.53 159.56 C 158.65 158.58 157.15 158.50 156.17 159.37 C 155.19 160.25 155.11 161.75 155.98 162.73 Z M 156.58 163.40 L 157.20 164.16 C 158.03 165.18 159.53 165.33 160.55 164.50 C 161.57 163.67 161.72 162.17 160.89 161.15 L 160.27 160.39 C 159.44 159.37 157.94 159.22 156.92 160.05 C 155.90 160.88 155.75 162.38 156.58 163.40 Z M 157.13 164.08 L 157.72 164.87 C 158.51 165.93 160.00 166.15 161.06 165.36 C 162.12 164.57 162.34 163.08 161.55 162.02 L 160.96 161.23 C 160.17 160.17 158.68 159.95 157.62 160.74 C 156.56 161.53 156.34 163.02 157.13 164.08 Z M 157.66 164.79 L 158.22 165.62 C 158.96 166.71 160.45 166.99 161.54 166.25 C 162.64 165.50 162.92 164.01 162.17 162.92 L 161.61 162.10 C 160.87 161.00 159.38 160.72 158.29 161.47 C 157.19 162.21 156.91 163.70 157.66 164.79 Z M 158.16 165.54 L 158.70 166.41 C 159.41 167.53 160.89 167.87 162.01 167.17 C 163.13 166.46 163.47 164.98 162.77 163.86 L 162.23 163.00 C 161.53 161.88 160.05 161.54 158.92 162.24 C 157.80 162.94 157.46 164.42 158.16 165.54 Z M 158.66 166.34 L 159.16 167.21 C 159.82 168.36 161.29 168.75 162.44 168.09 C 163.59 167.42 163.99 165.95 163.32 164.80 L 162.82 163.93 C 162.15 162.78 160.68 162.39 159.53 163.05 C 158.39 163.72 157.99 165.19 158.66 166.34 Z M 159.12 167.14 L 159.57 167.99 C 160.20 169.16 161.66 169.60 162.83 168.97 C 164.00 168.34 164.44 166.89 163.82 165.71 L 163.36 164.87 C 162.73 163.70 161.27 163.26 160.10 163.88 C 158.93 164.51 158.49 165.97 159.12 167.14 Z M 159.54 167.93 L 159.97 168.80 C 160.57 170.00 162.01 170.48 163.21 169.89 C 164.40 169.29 164.88 167.85 164.29 166.66 L 163.85 165.78 C 163.26 164.59 161.81 164.10 160.62 164.69 C 159.43 165.29 158.94 166.73 159.54 167.93 Z M 159.94 168.74 L 160.36 169.65 C 160.92 170.86 162.35 171.39 163.56 170.83 C 164.77 170.27 165.30 168.84 164.74 167.63 L 164.32 166.72 C 163.77 165.51 162.33 164.98 161.12 165.54 C 159.91 166.10 159.38 167.53 159.94 168.74 Z M 160.33 169.59 L 160.73 170.53 C 161.25 171.75 162.67 172.33 163.90 171.80 C 165.13 171.28 165.70 169.86 165.17 168.63 L 164.77 167.69 C 164.25 166.47 162.83 165.89 161.61 166.42 C 160.38 166.94 159.81 168.36 160.33 169.59 Z M 160.70 170.46 L 161.08 171.43 C 161.57 172.68 162.97 173.29 164.22 172.80 C 165.46 172.32 166.07 170.91 165.58 169.67 L 165.20 168.70 C 164.72 167.45 163.31 166.84 162.07 167.33 C 160.83 167.82 160.21 169.22 160.70 170.46 Z M 161.06 171.37 L 161.37 172.25 C 161.82 173.50 163.21 174.16 164.47 173.70 C 165.73 173.25 166.38 171.86 165.92 170.61 L 165.61 169.73 C 165.16 168.47 163.77 167.82 162.51 168.28 C 161.25 168.73 160.60 170.12 161.06 171.37 Z M 161.35 172.18 L 161.64 173.07 C 162.06 174.34 163.43 175.03 164.70 174.61 C 165.97 174.19 166.66 172.82 166.24 171.56 L 165.95 170.67 C 165.53 169.40 164.16 168.71 162.89 169.13 C 161.62 169.55 160.93 170.91 161.35 172.18 Z M 161.62 173.00 L 161.89 173.92 C 162.27 175.20 163.62 175.94 164.90 175.56 C 166.18 175.18 166.91 173.83 166.53 172.55 L 166.26 171.62 C 165.88 170.34 164.53 169.61 163.25 169.99 C 161.97 170.37 161.24 171.72 161.62 173.00 Z M 161.87 173.85 L 162.13 174.81 C 162.46 176.11 163.79 176.88 165.08 176.54 C 166.37 176.20 167.15 174.88 166.81 173.58 L 166.55 172.62 C 166.22 171.33 164.89 170.55 163.60 170.89 C 162.31 171.23 161.53 172.56 161.87 173.85 Z M 162.11 174.74 L 162.34 175.75 C 162.63 177.05 163.93 177.87 165.23 177.57 C 166.54 177.27 167.35 175.98 167.06 174.67 L 166.83 173.66 C 166.53 172.36 165.23 171.54 163.93 171.84 C 162.63 172.14 161.81 173.43 162.11 174.74 Z M 162.32 175.67 L 162.53 176.74 C 162.78 178.05 164.05 178.91 165.36 178.66 C 166.68 178.40 167.53 177.13 167.28 175.82 L 167.07 174.75 C 166.82 173.44 165.55 172.58 164.24 172.84 C 162.93 173.09 162.07 174.36 162.32 175.67 Z M 162.52 176.67 L 162.68 177.70 C 162.90 179.02 164.14 179.92 165.46 179.70 C 166.78 179.49 167.67 178.25 167.46 176.93 L 167.29 175.89 C 167.08 174.57 165.84 173.68 164.52 173.89 C 163.20 174.10 162.30 175.35 162.52 176.67 Z M 162.68 177.64 L 162.81 178.64 C 162.99 179.96 164.21 180.89 165.53 180.71 C 166.85 180.53 167.78 179.31 167.60 177.99 L 167.47 176.99 C 167.29 175.67 166.07 174.74 164.75 174.92 C 163.42 175.10 162.50 176.32 162.68 177.64 Z M 162.81 178.59 L 162.93 179.61 C 163.08 180.93 164.27 181.88 165.60 181.73 C 166.92 181.58 167.87 180.38 167.72 179.06 L 167.60 178.04 C 167.45 176.71 166.25 175.76 164.93 175.91 C 163.61 176.07 162.66 177.26 162.81 178.59 Z M 162.92 179.57 L 163.02 180.60 C 163.15 181.92 164.33 182.89 165.66 182.76 C 166.98 182.63 167.95 181.45 167.82 180.13 L 167.72 179.10 C 167.59 177.77 166.41 176.80 165.09 176.93 C 163.76 177.06 162.79 178.24 162.92 179.57 Z M 163.02 180.56 L 163.11 181.59 C 163.22 182.92 164.39 183.90 165.71 183.79 C 167.04 183.68 168.02 182.52 167.91 181.19 L 167.82 180.16 C 167.71 178.84 166.55 177.85 165.22 177.97 C 163.90 178.08 162.91 179.24 163.02 180.56 Z M 163.11 181.56 L 163.18 182.57 C 163.28 183.89 164.43 184.89 165.75 184.79 C 167.08 184.70 168.07 183.55 167.98 182.23 L 167.91 181.22 C 167.81 179.90 166.66 178.90 165.34 178.99 C 164.01 179.09 163.02 180.24 163.11 181.56 Z M 163.18 182.54 L 163.24 183.51 C 163.32 184.83 164.46 185.84 165.78 185.76 C 167.11 185.68 168.12 184.55 168.04 183.22 L 167.98 182.25 C 167.90 180.93 166.76 179.92 165.44 180.00 C 164.11 180.08 163.10 181.22 163.18 182.54 Z M 163.24 183.49 L 163.29 184.43 C 163.36 185.75 164.48 186.77 165.81 186.71 C 167.13 186.64 168.15 185.51 168.08 184.19 L 168.03 183.25 C 167.97 181.92 166.84 180.90 165.52 180.97 C 164.20 181.04 163.18 182.16 163.24 183.49 Z M 163.30 184.40 L 163.34 185.58 C 163.39 186.89 164.51 187.92 165.83 187.87 C 167.15 187.82 168.17 186.71 168.12 185.39 L 168.08 184.22 C 168.02 182.90 166.91 181.87 165.59 181.92 C 164.27 181.97 163.25 183.08 163.30 184.40 Z M 163.35 185.55 L 163.38 186.62 C 163.42 187.93 164.51 188.97 165.83 188.93 C 167.14 188.90 168.18 187.80 168.14 186.49 L 168.11 185.42 C 168.08 184.10 166.98 183.07 165.67 183.10 C 164.35 183.14 163.32 184.23 163.35 185.55 Z M 163.39 186.59 L 163.41 187.58 C 163.43 188.89 164.51 189.93 165.82 189.91 C 167.12 189.89 168.17 188.81 168.14 187.50 L 168.13 186.51 C 168.11 185.21 167.03 184.16 165.72 184.19 C 164.42 184.21 163.37 185.28 163.39 186.59 Z M 163.42 187.56 L 163.43 188.48 C 163.44 189.78 164.50 190.83 165.80 190.82 C 167.10 190.81 168.15 189.75 168.14 188.45 L 168.13 187.52 C 168.12 186.22 167.06 185.17 165.76 185.18 C 164.46 185.19 163.41 186.26 163.42 187.56 Z M 163.44 188.47 L 163.44 189.35 C 163.44 190.64 164.49 191.69 165.79 191.69 C 167.08 191.69 168.13 190.63 168.13 189.34 L 168.13 188.46 C 168.13 187.17 167.07 186.12 165.78 186.12 C 164.48 186.12 163.44 187.17 163.44 188.47 Z M 163.46 189.34 L 163.46 190.32 C 163.46 191.61 164.50 192.65 165.78 192.65 C 167.07 192.65 168.11 191.61 168.11 190.32 L 168.11 189.34 C 168.12 188.06 167.07 187.01 165.79 187.01 C 164.50 187.01 163.46 188.06 163.46 189.34 Z M 163.48 190.31 L 163.47 191.33 C 163.47 192.60 164.49 193.64 165.77 193.65 C 167.04 193.65 168.08 192.63 168.09 191.35 L 168.09 190.33 C 168.10 189.06 167.07 188.02 165.80 188.01 C 164.52 188.01 163.48 189.03 163.48 190.31 Z M 163.50 191.30 L 163.48 192.30 C 163.46 193.56 164.46 194.60 165.72 194.62 C 166.98 194.64 168.02 193.64 168.05 192.38 L 168.06 191.38 C 168.09 190.12 167.08 189.08 165.82 189.06 C 164.56 189.03 163.52 190.04 163.50 191.30 Z M 163.50 192.25 L 163.47 193.23 C 163.42 194.48 164.39 195.53 165.64 195.57 C 166.89 195.62 167.94 194.65 167.98 193.40 L 168.02 192.42 C 168.07 191.17 167.09 190.12 165.85 190.08 C 164.60 190.03 163.55 191.00 163.50 192.25 Z M 163.50 193.17 L 163.43 194.15 C 163.35 195.38 164.28 196.45 165.51 196.53 C 166.75 196.61 167.81 195.68 167.89 194.44 L 167.96 193.46 C 168.04 192.23 167.10 191.17 165.87 191.08 C 164.64 191.00 163.58 191.94 163.50 193.17 Z M 163.47 194.07 L 163.36 195.09 C 163.24 196.30 164.11 197.38 165.33 197.51 C 166.54 197.64 167.62 196.76 167.75 195.55 L 167.85 194.53 C 167.98 193.32 167.10 192.23 165.89 192.11 C 164.68 191.98 163.60 192.86 163.47 194.07 Z M 163.41 194.98 L 163.25 195.98 C 163.07 197.16 163.87 198.27 165.06 198.46 C 166.24 198.65 167.35 197.84 167.54 196.65 L 167.70 195.66 C 167.89 194.47 167.08 193.36 165.89 193.17 C 164.71 192.99 163.60 193.79 163.41 194.98 Z M 163.31 195.84 L 163.09 196.80 C 162.83 197.95 163.55 199.10 164.70 199.36 C 165.85 199.62 167.00 198.90 167.26 197.75 L 167.48 196.79 C 167.74 195.64 167.02 194.49 165.87 194.23 C 164.72 193.97 163.58 194.69 163.31 195.84 Z M 163.18 196.64 L 162.88 197.57 C 162.52 198.68 163.13 199.86 164.24 200.21 C 165.35 200.57 166.53 199.96 166.88 198.85 L 167.18 197.92 C 167.53 196.81 166.92 195.63 165.82 195.27 C 164.71 194.92 163.53 195.53 163.18 196.64 Z M 163.00 197.38 L 162.57 198.35 C 162.11 199.38 162.58 200.60 163.61 201.06 C 164.65 201.52 165.87 201.05 166.33 200.02 L 166.76 199.05 C 167.22 198.01 166.75 196.80 165.71 196.34 C 164.68 195.87 163.46 196.34 163.00 197.38 Z M 162.74 198.14 L 162.22 199.01 C 161.64 199.95 161.94 201.18 162.88 201.75 C 163.83 202.32 165.06 202.03 165.63 201.08 L 166.15 200.22 C 166.73 199.28 166.43 198.05 165.49 197.48 C 164.54 196.90 163.32 197.20 162.74 198.14 Z M 162.44 198.80 L 161.83 199.53 C 161.14 200.35 161.25 201.57 162.07 202.26 C 162.89 202.95 164.11 202.84 164.80 202.02 L 165.41 201.29 C 166.10 200.47 165.99 199.25 165.17 198.56 C 164.35 197.87 163.12 197.98 162.44 198.80 Z M 162.12 199.32 L 161.38 199.92 C 160.58 200.57 160.46 201.76 161.11 202.56 C 161.77 203.37 162.95 203.49 163.76 202.84 L 164.50 202.24 C 165.31 201.58 165.43 200.39 164.77 199.59 C 164.12 198.78 162.93 198.66 162.12 199.32 Z M 161.75 199.74 L 160.88 200.18 C 159.98 200.64 159.62 201.74 160.07 202.64 C 160.53 203.54 161.63 203.90 162.53 203.45 L 163.40 203.01 C 164.30 202.56 164.66 201.46 164.21 200.55 C 163.75 199.65 162.65 199.29 161.75 199.74 Z M 161.21 200.11 L 160.25 200.38 C 159.31 200.66 158.77 201.64 159.04 202.58 C 159.31 203.53 160.30 204.07 161.24 203.80 L 162.20 203.52 C 163.14 203.25 163.68 202.26 163.41 201.32 C 163.14 200.38 162.15 199.83 161.21 200.11 Z M 160.48 200.38 L 159.49 200.53 C 158.54 200.68 157.89 201.56 158.04 202.51 C 158.18 203.46 159.07 204.10 160.02 203.96 L 161.01 203.81 C 161.96 203.66 162.61 202.77 162.46 201.83 C 162.31 200.88 161.43 200.23 160.48 200.38 Z M 159.62 200.53 L 158.65 200.61 C 157.71 200.68 157.00 201.50 157.07 202.45 C 157.15 203.39 157.97 204.10 158.92 204.03 L 159.88 203.96 C 160.83 203.88 161.54 203.06 161.46 202.11 C 161.39 201.17 160.57 200.46 159.62 200.53 Z M 158.73 200.61 L 157.72 200.64 C 156.78 200.67 156.04 201.46 156.07 202.40 C 156.09 203.35 156.89 204.09 157.83 204.06 L 158.84 204.03 C 159.79 204.00 160.53 203.21 160.50 202.27 C 160.47 201.32 159.68 200.58 158.73 200.61 Z M 157.77 200.64 L 156.73 200.65 C 155.79 200.65 155.03 201.42 155.03 202.37 C 155.04 203.31 155.81 204.07 156.76 204.07 L 157.79 204.06 C 158.73 204.05 159.49 203.28 159.49 202.34 C 159.48 201.39 158.71 200.63 157.77 200.64 Z M 156.74 200.65 L 156.39 200.65 C 155.45 200.65 154.69 201.41 154.69 202.36 C 154.69 203.30 155.45 204.07 156.40 204.07 L 156.75 204.07 C 157.69 204.07 158.45 203.30 158.45 202.36 C 158.45 201.41 157.69 200.65 156.74 200.65 Z"
      fill="black"
      fill-rule="nonzero" /><path d="M 136.45 171.90 L 137.37 172.33 C 138.57 172.89 139.99 172.38 140.55 171.19 C 141.11 169.99 140.59 168.57 139.40 168.01 L 138.47 167.58 C 137.28 167.02 135.86 167.53 135.30 168.72 C 134.74 169.92 135.25 171.34 136.45 171.90 Z M 137.44 172.37 L 138.37 172.77 C 139.58 173.29 140.99 172.73 141.51 171.52 C 142.03 170.30 141.47 168.90 140.26 168.38 L 139.33 167.98 C 138.12 167.46 136.72 168.02 136.19 169.23 C 135.67 170.44 136.23 171.85 137.44 172.37 Z M 138.52 172.83 L 139.45 173.15 C 140.69 173.59 142.06 172.94 142.50 171.69 C 142.94 170.45 142.28 169.08 141.04 168.64 L 140.11 168.32 C 138.86 167.88 137.50 168.53 137.06 169.78 C 136.62 171.02 137.28 172.39 138.52 172.83 Z M 139.70 173.23 L 140.66 173.45 C 141.95 173.75 143.23 172.95 143.53 171.67 C 143.83 170.38 143.03 169.10 141.75 168.80 L 140.79 168.57 C 139.50 168.27 138.22 169.07 137.91 170.35 C 137.61 171.64 138.41 172.93 139.70 173.23 Z M 140.93 173.49 L 141.93 173.60 C 143.23 173.75 144.41 172.82 144.56 171.51 C 144.71 170.20 143.78 169.02 142.47 168.87 L 141.48 168.76 C 140.17 168.61 138.99 169.55 138.84 170.85 C 138.69 172.16 139.63 173.34 140.93 173.49 Z M 142.11 173.60 L 143.11 173.64 C 144.41 173.69 145.51 172.67 145.56 171.36 C 145.61 170.05 144.59 168.95 143.28 168.91 L 142.28 168.87 C 140.98 168.82 139.88 169.84 139.83 171.15 C 139.78 172.46 140.80 173.56 142.11 173.60 Z M 143.18 173.63 L 144.18 173.63 C 145.48 173.64 146.54 172.58 146.54 171.28 C 146.55 169.98 145.49 168.93 144.19 168.92 L 143.20 168.92 C 141.90 168.91 140.84 169.97 140.84 171.27 C 140.83 172.57 141.88 173.62 143.18 173.63 Z M 144.19 173.61 L 145.19 173.61 C 146.48 173.61 147.52 172.57 147.52 171.28 C 147.52 169.99 146.48 168.94 145.19 168.94 L 144.19 168.94 C 142.90 168.94 141.85 169.99 141.85 171.28 C 141.85 172.57 142.90 173.61 144.19 173.61 Z M 145.19 173.59 L 146.19 173.59 C 147.47 173.59 148.50 172.56 148.50 171.28 C 148.50 170.00 147.47 168.96 146.19 168.96 L 145.19 168.96 C 143.91 168.96 142.87 170.00 142.87 171.28 C 142.87 172.56 143.91 173.59 145.19 173.59 Z M 146.19 173.57 L 147.19 173.57 C 148.45 173.57 149.48 172.54 149.48 171.28 C 149.48 170.01 148.45 168.98 147.19 168.98 L 146.19 168.98 C 144.92 168.98 143.89 170.01 143.89 171.28 C 143.89 172.54 144.92 173.57 146.19 173.57 Z M 147.18 173.54 L 148.13 173.55 C 149.38 173.55 150.40 172.53 150.40 171.28 C 150.40 170.03 149.39 169.01 148.13 169.01 L 147.19 169.01 C 145.94 169.01 144.92 170.02 144.92 171.27 C 144.92 172.53 145.93 173.54 147.18 173.54 Z M 148.11 173.51 L 149.09 173.52 C 150.32 173.54 151.33 172.54 151.34 171.31 C 151.36 170.07 150.36 169.06 149.13 169.05 L 148.15 169.04 C 146.92 169.03 145.91 170.02 145.89 171.26 C 145.88 172.49 146.87 173.50 148.11 173.51 Z M 149.06 173.49 L 150.09 173.52 C 151.31 173.55 152.32 172.58 152.35 171.36 C 152.38 170.15 151.42 169.14 150.20 169.11 L 149.16 169.08 C 147.94 169.05 146.93 170.02 146.90 171.24 C 146.87 172.45 147.84 173.46 149.06 173.49 Z M 150.06 173.48 L 151.07 173.53 C 152.27 173.58 153.29 172.64 153.34 171.44 C 153.39 170.24 152.45 169.23 151.25 169.18 L 150.24 169.14 C 149.04 169.09 148.02 170.02 147.97 171.22 C 147.92 172.42 148.86 173.43 150.06 173.48 Z M 151.03 173.49 L 152.03 173.55 C 153.20 173.63 154.22 172.74 154.30 171.56 C 154.38 170.38 153.48 169.36 152.30 169.28 L 151.30 169.22 C 150.12 169.14 149.10 170.04 149.03 171.22 C 148.95 172.39 149.85 173.41 151.03 173.49 Z M 151.96 173.51 L 152.97 173.62 C 154.13 173.73 155.16 172.89 155.28 171.73 C 155.39 170.57 154.55 169.54 153.39 169.42 L 152.37 169.32 C 151.22 169.21 150.18 170.05 150.07 171.21 C 149.95 172.37 150.80 173.40 151.96 173.51 Z M 152.87 173.57 L 153.87 173.72 C 155.00 173.89 156.06 173.11 156.23 171.98 C 156.40 170.84 155.62 169.79 154.48 169.62 L 153.49 169.47 C 152.36 169.30 151.30 170.08 151.13 171.21 C 150.96 172.35 151.74 173.40 152.87 173.57 Z M 153.73 173.65 L 154.74 173.88 C 155.84 174.13 156.93 173.44 157.17 172.34 C 157.42 171.25 156.73 170.16 155.64 169.91 L 154.62 169.69 C 153.53 169.44 152.44 170.13 152.19 171.22 C 151.95 172.32 152.64 173.41 153.73 173.65 Z M 154.55 173.77 L 155.53 174.11 C 156.57 174.46 157.69 173.91 158.05 172.88 C 158.40 171.84 157.85 170.71 156.82 170.36 L 155.83 170.02 C 154.80 169.67 153.67 170.22 153.32 171.26 C 152.96 172.29 153.51 173.42 154.55 173.77 Z M 155.29 173.94 L 156.15 174.39 C 157.09 174.88 158.25 174.51 158.74 173.57 C 159.23 172.63 158.87 171.47 157.93 170.98 L 157.06 170.53 C 156.12 170.04 154.96 170.41 154.47 171.35 C 153.98 172.29 154.35 173.45 155.29 173.94 Z M 155.88 174.14 L 156.61 174.72 C 157.41 175.36 158.58 175.23 159.23 174.42 C 159.87 173.62 159.73 172.45 158.93 171.81 L 158.20 171.23 C 157.39 170.59 156.22 170.72 155.58 171.52 C 154.94 172.33 155.07 173.50 155.88 174.14 Z M 156.36 174.41 L 156.97 175.16 C 157.60 175.94 158.75 176.05 159.52 175.42 C 160.30 174.79 160.42 173.64 159.78 172.86 L 159.18 172.12 C 158.54 171.34 157.40 171.22 156.62 171.86 C 155.84 172.49 155.73 173.63 156.36 174.41 Z M 156.83 174.90 L 157.33 175.76 C 157.82 176.61 158.91 176.91 159.76 176.42 C 160.61 175.92 160.91 174.84 160.42 173.98 L 159.92 173.12 C 159.43 172.27 158.34 171.98 157.49 172.47 C 156.63 172.96 156.34 174.05 156.83 174.90 Z M 157.29 175.61 L 157.71 176.53 C 158.12 177.41 159.16 177.79 160.03 177.38 C 160.91 176.98 161.29 175.94 160.89 175.06 L 160.46 174.14 C 160.05 173.26 159.01 172.88 158.14 173.29 C 157.26 173.69 156.88 174.73 157.29 175.61 Z M 157.72 176.48 L 157.89 176.88 C 158.27 177.76 159.28 178.16 160.16 177.78 C 161.03 177.41 161.43 176.39 161.06 175.52 L 160.88 175.12 C 160.51 174.24 159.49 173.84 158.62 174.22 C 157.74 174.59 157.34 175.61 157.72 176.48 Z"
      fill="black"
      fill-rule="nonzero" /><path d="M 138.30 177.06 L 137.40 177.89 C 136.51 178.71 136.46 180.08 137.27 180.96 C 138.08 181.85 139.46 181.90 140.34 181.09 L 141.24 180.26 C 142.12 179.45 142.18 178.07 141.37 177.19 C 140.55 176.31 139.18 176.25 138.30 177.06 Z M 137.12 178.05 L 136.48 178.82 C 135.68 179.79 135.82 181.22 136.79 182.02 C 137.75 182.82 139.19 182.68 139.98 181.71 L 140.62 180.94 C 141.42 179.97 141.28 178.54 140.31 177.74 C 139.35 176.94 137.92 177.08 137.12 178.05 Z M 135.90 179.85 L 135.78 180.51 C 135.55 181.80 136.41 183.03 137.70 183.26 C 138.98 183.49 140.21 182.63 140.44 181.34 L 140.56 180.68 C 140.79 179.40 139.93 178.17 138.65 177.94 C 137.36 177.71 136.13 178.56 135.90 179.85 Z M 136.40 182.64 L 136.86 183.09 C 137.80 184.03 139.33 184.03 140.28 183.09 C 141.22 182.14 141.22 180.61 140.27 179.67 L 139.82 179.22 C 138.88 178.27 137.35 178.27 136.40 179.22 C 135.46 180.16 135.46 181.69 136.40 182.64 Z M 137.70 183.64 L 138.59 183.99 C 139.84 184.46 141.25 183.84 141.72 182.59 C 142.20 181.33 141.58 179.93 140.32 179.45 L 139.43 179.11 C 138.18 178.63 136.78 179.26 136.30 180.51 C 135.82 181.76 136.45 183.17 137.70 183.64 Z M 138.99 184.11 L 140.21 184.35 C 141.53 184.61 142.81 183.75 143.07 182.43 C 143.33 181.11 142.47 179.83 141.15 179.57 L 139.93 179.33 C 138.61 179.07 137.33 179.93 137.07 181.25 C 136.81 182.57 137.67 183.85 138.99 184.11 Z M 140.41 184.38 L 141.52 184.50 C 142.86 184.65 144.06 183.68 144.21 182.35 C 144.36 181.01 143.39 179.80 142.05 179.65 L 140.94 179.53 C 139.60 179.39 138.40 180.35 138.25 181.69 C 138.11 183.03 139.07 184.24 140.41 184.38 Z M 141.63 184.51 L 142.62 184.57 C 143.96 184.66 145.12 183.64 145.21 182.30 C 145.29 180.96 144.27 179.80 142.93 179.71 L 141.94 179.65 C 140.60 179.56 139.44 180.58 139.35 181.92 C 139.27 183.27 140.28 184.43 141.63 184.51 Z M 142.69 184.57 L 143.71 184.61 C 145.05 184.66 146.18 183.61 146.23 182.27 C 146.27 180.92 145.22 179.80 143.88 179.75 L 142.86 179.71 C 141.52 179.66 140.39 180.71 140.34 182.06 C 140.30 183.40 141.35 184.53 142.69 184.57 Z M 143.76 184.61 L 144.78 184.62 C 146.12 184.64 147.23 183.58 147.25 182.24 C 147.27 180.90 146.20 179.79 144.86 179.77 L 143.84 179.75 C 142.50 179.73 141.39 180.80 141.37 182.14 C 141.35 183.48 142.42 184.58 143.76 184.61 Z M 144.81 184.62 L 145.82 184.62 C 147.15 184.63 148.24 183.55 148.25 182.21 C 148.26 180.88 147.18 179.79 145.84 179.78 L 144.83 179.77 C 143.50 179.77 142.41 180.85 142.40 182.18 C 142.39 183.52 143.47 184.61 144.81 184.62 Z M 145.83 184.61 L 146.85 184.61 C 148.19 184.61 149.26 183.53 149.27 182.20 C 149.27 180.87 148.19 179.79 146.86 179.79 L 145.83 179.79 C 144.50 179.79 143.42 180.87 143.42 182.20 C 143.42 183.53 144.50 184.61 145.83 184.61 Z M 146.85 184.58 L 147.91 184.58 C 149.23 184.58 150.30 183.52 150.30 182.20 C 150.30 180.88 149.23 179.82 147.91 179.82 L 146.85 179.82 C 145.54 179.82 144.47 180.88 144.47 182.20 C 144.47 183.52 145.54 184.58 146.85 184.58 Z M 147.91 184.55 L 148.91 184.55 C 150.21 184.55 151.26 183.50 151.26 182.20 C 151.26 180.90 150.21 179.85 148.91 179.85 L 147.91 179.85 C 146.62 179.85 145.57 180.90 145.57 182.20 C 145.57 183.50 146.62 184.55 147.91 184.55 Z M 148.91 184.51 L 149.87 184.51 C 151.15 184.51 152.18 183.48 152.18 182.20 C 152.18 180.93 151.15 179.89 149.87 179.89 L 148.91 179.89 C 147.64 179.89 146.60 180.93 146.60 182.20 C 146.60 183.48 147.64 184.51 148.91 184.51 Z M 149.87 184.48 L 150.81 184.48 C 152.07 184.48 153.09 183.46 153.09 182.20 C 153.09 180.95 152.07 179.93 150.81 179.93 L 149.87 179.93 C 148.62 179.93 147.60 180.95 147.60 182.20 C 147.60 183.46 148.62 184.48 149.87 184.48 Z M 150.81 184.43 L 151.80 184.43 C 153.03 184.43 154.03 183.43 154.03 182.20 C 154.03 180.97 153.03 179.97 151.80 179.97 L 150.81 179.97 C 149.58 179.97 148.58 180.97 148.58 182.20 C 148.58 183.43 149.58 184.43 150.81 184.43 Z M 151.80 184.39 L 152.79 184.39 C 154.00 184.39 154.98 183.41 154.98 182.20 C 154.98 180.99 154.00 180.02 152.79 180.02 L 151.80 180.02 C 150.59 180.02 149.61 180.99 149.61 182.20 C 149.61 183.41 150.59 184.39 151.80 184.39 Z M 152.79 184.34 L 153.79 184.34 C 154.97 184.34 155.93 183.38 155.93 182.20 C 155.93 181.02 154.97 180.06 153.79 180.06 L 152.79 180.06 C 151.61 180.06 150.65 181.02 150.65 182.20 C 150.65 183.38 151.61 184.34 152.79 184.34 Z M 153.79 184.29 L 154.81 184.29 C 155.96 184.29 156.90 183.36 156.90 182.20 C 156.90 181.05 155.96 180.11 154.81 180.11 L 153.79 180.11 C 152.64 180.11 151.70 181.05 151.70 182.20 C 151.70 183.36 152.64 184.29 153.79 184.29 Z M 154.81 184.25 L 155.82 184.24 C 156.94 184.24 157.86 183.33 157.86 182.20 C 157.86 181.07 156.94 180.16 155.81 180.16 L 154.80 180.16 C 153.67 180.16 152.76 181.07 152.76 182.20 C 152.76 183.33 153.68 184.25 154.81 184.25 Z M 155.83 184.20 L 156.84 184.19 C 157.94 184.18 158.83 183.28 158.82 182.18 C 158.81 181.08 157.91 180.19 156.81 180.20 L 155.80 180.21 C 154.70 180.21 153.81 181.11 153.82 182.22 C 153.83 183.32 154.73 184.20 155.83 184.20 Z M 156.87 184.14 L 157.88 184.11 C 158.95 184.09 159.80 183.19 159.78 182.12 C 159.75 181.05 158.86 180.20 157.78 180.22 L 156.78 180.25 C 155.70 180.27 154.85 181.17 154.88 182.24 C 154.91 183.31 155.80 184.16 156.87 184.14 Z M 157.93 184.06 L 158.92 184.01 C 159.97 183.96 160.77 183.07 160.72 182.02 C 160.66 180.97 159.77 180.17 158.73 180.22 L 157.73 180.27 C 156.69 180.33 155.88 181.22 155.94 182.27 C 155.99 183.31 156.88 184.12 157.93 184.06 Z M 158.99 183.96 L 159.97 183.87 C 160.99 183.78 161.74 182.88 161.65 181.86 C 161.56 180.84 160.66 180.09 159.64 180.18 L 158.66 180.27 C 157.64 180.37 156.89 181.27 156.98 182.28 C 157.07 183.30 157.97 184.05 158.99 183.96 Z M 160.05 183.83 L 161.04 183.69 C 162.03 183.56 162.73 182.65 162.59 181.65 C 162.46 180.66 161.54 179.96 160.55 180.10 L 159.57 180.23 C 158.57 180.36 157.87 181.28 158.01 182.27 C 158.14 183.26 159.06 183.96 160.05 183.83 Z M 161.10 183.65 L 162.07 183.49 C 163.04 183.32 163.69 182.39 163.52 181.42 C 163.36 180.45 162.43 179.80 161.46 179.97 L 160.49 180.14 C 159.52 180.30 158.87 181.23 159.03 182.20 C 159.20 183.17 160.13 183.82 161.10 183.65 Z M 162.11 183.45 L 163.09 183.25 C 164.04 183.06 164.66 182.13 164.47 181.18 C 164.27 180.23 163.35 179.62 162.40 179.81 L 161.42 180.01 C 160.47 180.20 159.85 181.12 160.05 182.07 C 160.24 183.02 161.16 183.64 162.11 183.45 Z M 163.12 183.22 L 164.09 183.00 C 165.03 182.80 165.62 181.88 165.41 180.94 C 165.21 180.01 164.29 179.42 163.35 179.63 L 162.37 179.84 C 161.44 180.04 160.85 180.97 161.06 181.90 C 161.26 182.83 162.18 183.42 163.12 183.22 Z M 164.11 182.99 L 165.06 182.77 C 165.98 182.56 166.56 181.64 166.35 180.71 C 166.14 179.79 165.22 179.21 164.29 179.42 L 163.34 179.64 C 162.42 179.85 161.84 180.77 162.05 181.70 C 162.26 182.62 163.18 183.20 164.11 182.99 Z M 165.07 182.77 L 166.04 182.54 C 166.96 182.32 167.53 181.40 167.31 180.48 C 167.10 179.55 166.18 178.98 165.25 179.20 L 164.28 179.43 C 163.36 179.64 162.79 180.57 163.00 181.49 C 163.22 182.41 164.14 182.98 165.07 182.77 Z M 166.04 182.53 L 167.03 182.30 C 167.95 182.08 168.52 181.16 168.30 180.24 C 168.08 179.32 167.15 178.75 166.23 178.97 L 165.25 179.20 C 164.33 179.42 163.76 180.35 163.98 181.27 C 164.20 182.19 165.12 182.75 166.04 182.53 Z M 167.03 182.30 L 168.03 182.06 C 168.94 181.83 169.51 180.91 169.29 179.99 C 169.07 179.08 168.14 178.51 167.23 178.73 L 166.23 178.97 C 165.31 179.19 164.75 180.12 164.97 181.03 C 165.19 181.95 166.11 182.52 167.03 182.30 Z M 168.03 182.05 L 168.19 182.02 C 169.10 181.79 169.67 180.87 169.45 179.95 C 169.23 179.04 168.30 178.47 167.39 178.69 L 167.23 178.73 C 166.31 178.95 165.74 179.88 165.97 180.79 C 166.19 181.71 167.11 182.28 168.03 182.05 Z"
      fill="black"
      fill-rule="nonzero" /></svg>