<svg xmlns="http://www.w3.org/2000/svg" version="1.0" width="937.000000pt" height="937.000000pt" viewBox="0 0 937.000000 937.000000" preserveAspectRatio="xMidYMid meet">
  <defs/>
  <path fill="#000000" d="M523,350.8 C515.9,351.3 500.1,354.2 485.7,357.5 C470,361.2 464.1,361.7 457.9,359.8 C453,358.4 449.3,359.8 448.4,363.6 C447.2,368.4 449,371.3 454.5,373.2 C462.2,375.8 468.8,375.4 487.3,370.9 C496.5,368.7 504.8,367 505.6,367.2 C506.4,367.4 499.7,373.1 490.5,379.9 C472.4,393.5 470,396.3 465.1,408.9 C460.1,422 459.5,427 459.6,457 C459.8,493.4 463.8,534.7 467.7,539.2 L469.1,540.8 L464.7,543.9 C458.3,548.2 457.3,552 461.3,555.8 C464.3,558.6 469.7,558.7 483.9,556.1 C498.4,553.4 502,553 502,553.9 C502,555.6 495.4,563.1 472.7,586.9 C459.4,600.9 445.9,615.2 442.7,618.8 L436.9,625.2 L437.2,628.3 C437.5,631.9 440.8,634.1 444.3,633.2 C446.9,632.5 476.4,603.7 497.6,581.2 C513.3,564.4 518,557.6 518,551.4 C518,542.5 513.5,539.4 502,540.4 L494.5,541 L502,536.5 C506.1,534.1 511.6,530.2 514.3,528 L519,523.9 L519,520.6 C519,518.5 518.2,516.6 516.9,515.4 L514.8,513.5 L503.6,513.7 C494.7,513.8 492.9,513.6 494.3,512.7 C503.3,506.7 521.9,491.8 523.7,489.1 C526.3,485.2 526.7,480.3 524.6,477.4 L523.2,475.5 L497.9,475.2 L472.7,474.9 L473.4,453.2 C473.7,441.3 474.4,429.7 474.8,427.5 L475.5,423.5 L486,422.6 C491.8,422.1 503.5,421.7 512,421.6 L527.5,421.5 L532.5,424 L537.5,426.5 L541.2,434 C543.3,438.1 545.6,444.9 546.4,449 C548.4,458.9 550,489.2 550.3,521.3 L550.5,547.1 L547.8,546.5 C543.9,545.6 541,547.5 541,551 C541,553.3 541.9,554.5 545.3,556.8 C550.9,560.7 553.6,561.4 557,560 C562.3,557.8 562.5,556 562.5,505 L562.5,458.5 L560.7,449.2 C556.9,428.9 549.2,416 537.8,410.9 L532.5,408.5 L506.3,408.6 C487.7,408.6 480,408.3 480,407.5 C480,406.1 482.6,402.3 486.4,398.1 C490,394.3 513.4,376 524.8,368.2 C529.2,365.2 533.1,361.7 533.9,359.9 L535.4,357 L533.4,354.3 C531.2,351.3 528.3,350.3 523,350.8 Z M507.6,489.6 C502.8,493.8 488.6,503.5 480.8,507.9 L475.2,511 L474.5,502.3 C474.2,497.4 473.6,492.3 473.4,490.7 L472.8,488 L478.7,487.9 C483.4,487.8 497.3,487 509.5,486.2 C511.1,486.1 510.7,486.8 507.6,489.6 Z M488.9,527.1 L495.5,527.1 L486.6,531.6 C476.8,536.6 476,536.5 476,529.6 L476,525.7 L479.1,526.4 C480.8,526.7 485.2,527 488.9,527.1 Z"/>
  <path fill="#000000" d="M417.5,423.7 C382.1,427 347.4,435.6 344.1,441.8 C342.4,444.9 342.8,447.8 345.1,450.1 C347.8,452.8 351.2,452.4 364.5,447.7 C370,445.8 375.9,443.9 377.5,443.6 L380.5,443 L380.4,483.7 C380.3,506.2 380.2,525.3 380.1,526.2 C380.1,527.3 377.6,529.2 374.3,531 C371.1,532.6 365.4,536.2 361.5,538.8 L354.5,543.6 L353.6,547.2 C352.5,551.5 354.5,555.5 358.5,557 C367.7,560.5 391.7,541.3 420,508.1 C425.8,501.3 434,491.7 438.3,486.8 C442.5,481.9 446,477.1 446,476.1 C446,473.9 442.9,471 440.5,471 C439.5,471 430.3,479.6 419.3,491 C408.6,502 398.1,512.4 395.9,514.1 L391.9,517.3 L392.2,479.7 C392.4,453.9 392.8,441.8 393.6,441 C394.2,440.4 401.9,438.6 410.6,437 C426.7,434 429,433 429,429 C429,424.8 425.1,423 417.5,423.7 Z"/>
  <path fill="#000000" d="M514.9,571.1 C513.5,572.5 513,574.1 513.2,576.8 L513.5,580.5 L523.5,585.7 C529,588.6 536.9,593.6 541.2,596.7 C561.1,611.8 582.7,633.6 590,646.3 L593.6,652.5 L596.5,652.5 C598.6,652.5 599.8,651.8 600.9,649.9 L602.3,647.3 L598.2,638.9 C586.7,615.1 552.4,582.3 528.1,572 C519.8,568.5 517.7,568.3 514.9,571.1 Z"/>
</svg>

