<svg xmlns="http://www.w3.org/2000/svg" version="1.0" width="937.000000pt" height="937.000000pt" viewBox="0 0 937.000000 937.000000" preserveAspectRatio="xMidYMid meet">
  <defs/>
  <path fill="#000000" d="M449,305.4 C441.7,308 428.1,314.1 401,327.1 C387.3,333.6 380.7,336.2 375.5,337.1 C367.5,338.4 365,340.1 365,344.1 C365,347.3 368.2,350 372,350 C377.4,349.9 388.8,346.9 395.8,343.5 C403.2,340 403.4,340.1 399.4,345.5 C395.2,351.3 394.5,355.6 392.9,386.5 C392.3,398.6 391.4,409.3 390.8,410.3 C390.2,411.6 390.2,413.1 391,414.9 C391.6,416.4 392.2,420.9 392.3,424.9 L392.5,432.3 L377,438 C350.6,447.9 327.8,457.6 326.8,459.4 C325.4,462 326.7,465.9 329.4,467.1 C332.3,468.5 338.7,466.5 359,458.3 C366.4,455.2 377.4,451 383.4,448.8 L394.4,444.9 L395.3,446.5 C395.8,447.4 397.5,449.6 399.1,451.4 C400.7,453.3 402,455.4 402,456.1 C402,456.9 400.9,461.1 399.5,465.5 C395.3,479 396.6,485 403.8,485 C408.6,485 424.2,475.3 451.1,455.7 C461.6,448 466.3,445.7 462.4,450.2 C461.3,451.5 458,458.6 455,466 C452.1,473.4 448.8,481.4 447.8,483.6 L446,487.7 L430.8,493.5 C407.2,502.4 379.7,513.3 367.2,518.5 C354.7,523.7 352.8,525.7 355.2,530.8 C356.2,532.9 357.4,533.6 360.2,533.8 C364.1,534.1 363.8,534.2 408.7,516.6 C423.6,510.8 436.3,506 436.9,506 C437.8,506 435.2,513.2 433.8,514.5 C433.5,514.8 432.1,514.5 430.7,513.9 L428.1,512.7 L425.5,514.4 C421.9,516.8 422,522.1 425.8,524.9 L428.5,526.9 L421.2,541.3 C417.2,549.2 410.5,561 406.4,567.6 C402.3,574.1 399,580.3 399,581.2 C399,584.1 402,586.2 405.7,585.8 L409,585.5 L410.9,588.6 C418.4,600.9 439.1,600.9 455.8,588.6 C461.1,584.6 472.4,572.7 477.5,565.6 L479.5,562.7 L497,574.3 C519.1,588.8 528.9,594.4 557.5,608.9 C584.2,622.4 602.1,629.1 613.6,629.8 C625.1,630.5 630.3,627.2 626.6,621.5 L625,619 L618,619 C604,619 582.5,609.6 537,583.7 C523.4,576 489,553.2 488.4,551.5 C488.1,550.8 489.2,548.3 490.8,545.9 C497.8,535.5 514.8,509.3 515.9,507.3 C519,501.3 515.2,494 509,494 C505.6,494 488.1,500.5 464,510.8 C455,514.7 447.4,517.7 447.2,517.6 C447,517.4 449.1,512.8 451.7,507.4 L456.5,497.6 L466,493.8 L475.5,490 L480.1,490.6 L484.7,491.2 L488.1,487.7 L491.5,484.2 L510,478.2 C529.3,471.9 543.3,467.9 553.5,466 C561.7,464.4 562.8,464.1 564.5,462.4 C566.6,460.3 566.4,456.6 564,454.5 L562,452.7 L555.3,453.4 C548.9,454 525.6,459.7 512.5,463.9 C509.2,464.9 506.3,465.6 506.1,465.4 C505.5,464.8 522.3,441.8 534.5,426.5 C540.7,418.8 550.7,407.5 556.9,401.4 C568.6,389.8 569.6,387.8 566.4,383.2 C564.2,380 558,380.2 551.6,383.9 C543,388.7 513.9,399.8 507,400.9 C498.5,402.3 497,402.3 497,400.7 C497,397.4 506,386 518,373.7 C525.2,366.5 531.3,359.4 531.7,358.2 C532.5,354.8 529.1,350.6 525.2,350.2 C523.1,350 518.4,351.6 510.3,355.3 C496.6,361.7 489.4,364 483.3,364 L478.9,364 L479.6,361.7 C481.6,355.1 490.6,341.5 498.7,332.9 C505.4,325.9 512.1,321.6 518.5,320.5 C523,319.7 526.1,318.3 527.2,316.6 C528.6,314.5 528,310.3 526,308.5 L524,306.7 L518.8,307.3 C510.5,308.3 499.7,314.2 492.1,322 C479.6,334.6 468.9,352.9 468.2,363 L467.8,368.5 L470.3,370.8 C471.7,372.1 474.6,373.6 476.9,374.1 C481.5,375.1 492.2,373.9 498.8,371.6 C501.1,370.8 503,370.3 503,370.5 C503,370.8 500.8,373.8 498.1,377.1 C495.3,380.5 491.5,386.2 489.6,389.9 C483.6,401.5 483.8,407.3 490.6,410.5 L494.4,412.3 L502.9,411.7 C511.4,411.1 518.4,409.3 528.8,405.1 C531.6,404 534,403.2 534,403.5 C534,403.8 530.1,408.8 525.4,414.7 C518.7,423.2 498.7,452.1 492.5,462.5 L491.5,464.2 L481.8,450.7 C474.5,440.7 471.1,436.8 468.4,435.5 L464.7,433.8 L460.9,434.9 C458.8,435.5 454.1,438.5 450.3,441.6 C441.3,449 411,470.3 410.4,469.7 C410.1,469.5 411.3,464.8 413.1,459.4 C415.3,452.4 417.1,448.5 419.3,446.2 C422.3,443.1 436.5,435.7 451.4,429.5 C459.1,426.3 461.8,423.3 460,420.1 C457.9,416.1 455.7,415.8 443.6,417.9 C437.4,419.1 426.7,421.6 419.9,423.6 C413.1,425.6 406.7,427.4 405.7,427.7 L403.9,428.3 L404.2,422.5 L404.5,416.8 L409,415.1 C411.5,414.1 418.9,410.8 425.6,407.7 C432.2,404.6 437.9,402 438.3,402 C438.7,402 439,402.7 439,403.5 C439,405.5 442.6,409 444.5,409 C447.5,409 456.6,397.3 457.6,392.1 C458.1,389.7 457.7,388.6 455.6,386.5 L452.9,383.8 L449.2,384.5 C447.2,384.8 443.1,386.2 440.1,387.6 C437.2,388.9 434.6,390 434.3,390 C434.1,390 436.8,386.6 440.4,382.5 C448.4,373.3 451.3,367.9 451.3,362.1 L451.3,357.7 L448.6,355.3 C446.7,353.7 444.7,353 441.5,353 C437.1,353 415.5,358.1 411.9,360 C407.8,362.2 408.7,369.4 413.3,370.5 C414.5,370.8 420.6,369.7 426.9,368.1 C433.2,366.4 438.6,365.3 438.9,365.5 C440.8,367.5 424,385.4 412.3,393.8 L405,399 L405,392.3 C405,383.1 406.9,362.4 408.1,357.8 C408.6,355.8 410.6,352.3 412.5,350 C416.8,344.9 416.9,342.6 413,339 L410.1,336.3 L431.3,326.2 C443,320.6 454.5,315.3 457,314.5 C461.9,312.8 463,311.7 463,307.9 C463,302.5 459.3,301.8 449,305.4 Z M483.2,473.2 C482.3,474.1 464.9,480.2 464.4,479.8 C464.2,479.6 466.2,475.1 468.7,469.9 L473.4,460.4 L478.6,466.4 C481.5,469.8 483.5,472.8 483.2,473.2 Z M494.2,515.2 C492.6,517.6 487.9,524.8 483.7,531.2 L476.1,542.9 L466.1,536.2 C460.6,532.5 456.1,529.2 456,528.9 C456,528.6 457.7,527.5 459.8,526.5 C465.3,523.8 495.4,511.1 496.3,511 C496.7,511 495.8,512.9 494.2,515.2 Z M455.8,545.8 C462.5,550.4 468,554.4 468,554.7 C468,555.9 454.9,571.9 450.7,575.7 C444.4,581.5 435.2,586 429.6,586 C422.9,586 420.5,584.4 418.1,578.9 L416.1,574 L421.5,565.5 C424.4,560.8 429.1,552.5 431.9,547 C435.8,539.6 437.6,537 439.3,536.8 C442,536.3 441.1,535.8 455.8,545.8 Z"/>
</svg>

