<svg xmlns="http://www.w3.org/2000/svg" version="1.0" width="937.000000pt" height="937.000000pt" viewBox="0 0 937.000000 937.000000" preserveAspectRatio="xMidYMid meet">
  <defs/>
  <path fill="#000000" d="M514.7,324 C512.2,326.9 505.9,341.9 502.4,353.4 L500.6,359.2 L486.2,366.1 C475,371.4 471.4,372.7 470,372 C466.2,370 462.5,370.9 458.8,374.7 C452.4,381.3 451.7,386.5 456.7,391.2 C460.8,395 466.1,394.1 480.7,387.1 C487.6,383.7 493.4,381.1 493.5,381.2 C493.6,381.4 490.2,393.4 485.9,408 C481.6,422.6 478.1,435.3 478.1,436.2 L478,438 L472.9,438 C469.8,438 467.3,437.4 466.4,436.5 C464.5,434.6 460.6,434.6 459.1,436.3 C458.5,437.1 457.1,440.6 456,444.2 C453.6,452 448.7,458 437.7,466.4 C429.8,472.4 428.6,473 429.4,470.2 C429.7,469.3 430.2,457 430.4,443 C430.7,429 431.2,416.1 431.6,414.3 L432.2,411.1 L429.7,408.6 C426.5,405.4 423.9,405.3 420.5,408.3 L417.9,410.5 L416.8,421.7 L415.7,432.8 L411.6,433.9 C409.4,434.4 407.5,434.8 407.4,434.7 C407,434.3 410,413 411.5,405.5 C413.7,395 416.3,387.3 421.2,377.1 L425.2,368.7 L434.2,359.7 L443.1,350.7 L442.8,347.7 C442.6,345.8 441.5,343.9 439.8,342.7 L437.1,340.7 L410.8,346 C396.3,348.9 381.2,351.6 377.2,352 C372.5,352.5 369.3,353.4 368,354.5 C365.2,357 365.3,363.1 368.1,365.6 L370.2,367.5 L376.8,367.2 C382,367 407.4,361.9 415.3,359.4 C416.7,359 416.2,360.1 413.5,363.8 C409.5,369.4 404.2,380.5 401,389.8 C392.6,415 388.7,466.5 390.8,524 C391.9,555.9 392.7,561.8 396.4,567.2 L398.6,570.5 L402.8,570.8 L407,571.1 L406.3,577.3 C406,580.7 405.6,583.7 405.4,583.9 C404.6,584.8 401.5,581.1 389.9,565.9 C380.3,553.3 376.6,549.3 371.8,546 C362.7,540 359.2,539.5 355.8,544.1 C353.2,547.5 354.3,551.7 358.2,553.9 C365.6,557.9 369.5,561.8 379.4,574.8 C394.2,594.3 398.6,598 406.9,598 C411,598 414.1,595.5 415.9,590.8 C416.5,589.3 417.2,582.2 417.6,575 C418,567.9 418.6,562 419,562 C419.4,562 421,563.8 422.5,566 C426.6,571.9 434.1,578.6 438.4,580 C446.3,582.6 453.7,578.2 460.6,566.9 C462.5,563.6 464.4,561 464.7,561 C466.4,561 462.8,600.6 460.3,609.3 C458,617.5 457,618 438.7,619.2 L423.4,620.2 L409.8,617.5 C393.3,614.3 389.9,614.4 388.6,618.3 L387.6,621 L389.5,622.9 C390.9,624.2 396.3,625.8 407,628 C424.9,631.6 451.2,633.2 458.7,631.1 C469.4,628.2 474.4,618.7 477,596 C477.6,590.8 478.3,584.6 478.6,582.3 L479.1,578.1 L481.9,578.6 C485.1,579.3 488,577 488,574 C488,572.9 486.2,567.4 484,561.8 L480,551.5 L480,536.5 L480,521.5 L483.9,528.4 C486,532.1 488.4,535.6 489.1,536.1 C489.9,536.6 492.8,537 495.6,537 L500.7,537 L530.9,507.1 C547.5,490.6 561.3,477.7 561.5,478.3 C561.7,479 563,492.5 564.4,508.5 C565.9,524.4 567.8,543.8 568.6,551.5 C569.6,560.2 570.2,575.6 570.3,592 L570.5,618.6 L568.7,621.4 C567.7,622.9 564.7,625.2 562.2,626.3 L557.5,628.5 L542.6,628.5 L527.7,628.5 L526.7,630.7 C523.9,637 534.4,641.4 552,641.3 C564.8,641.3 571.7,639 577.9,632.8 C584.3,626.5 585.1,622.3 585,597.5 C585,585.9 584.6,570.9 584.1,564 C582.9,548.3 578.5,499.5 576.4,479 C575.5,470.5 574.6,459.6 574.4,454.7 C574,445 573,442.3 569.5,441.4 C563.2,439.8 559.7,444.2 559.6,454 L559.5,460.8 L554.3,467.2 C548.7,474.1 529.2,493.4 522.3,498.8 L518.2,502 L517,498.3 C515.4,493.5 513.3,491.1 509.3,489.4 C504.8,487.5 493.5,487.7 487.4,489.8 L482.3,491.6 L480.5,488.5 C479.5,486.9 477.8,483.9 476.8,481.9 C474.8,478.1 471.5,476 467.6,476 C464.3,476 457,480 440.6,490.8 C432.9,495.9 426.5,499.8 426.3,499.6 C426.1,499.4 426.2,497.4 426.6,495.2 L427.2,491.1 L434.4,485.8 C443.1,479.3 456.7,465.8 460.5,459.7 L463.3,455.3 L474.4,454.7 C485.6,454.2 497.4,451.9 538,442.6 C548.7,440.2 565.4,436.3 575,434.1 C584.6,431.9 595,429.8 598,429.4 C601,429.1 604.3,428.1 605.3,427.2 C607.7,425.1 607.4,421.3 604.8,419.6 C602.2,417.9 596.9,418.4 577.1,421.9 C570.8,423.1 564.4,424 562.9,424 L560.2,424 L558.5,419 C554.4,406.7 543.5,395.2 524,382.5 C517.4,378.2 512,374.1 512,373.4 C512,369.5 536.3,358.3 548.6,356.4 C554.2,355.6 557.4,352.9 556.5,349.7 C555.5,346.6 553.1,345 549.6,345 C544.9,345.1 532.3,347.6 525.2,349.8 L518.9,351.8 L519.6,349.7 C520,348.5 521.6,343.9 523.2,339.5 C527.5,327.9 527.7,326.3 524.9,323.4 C521.8,320 517.8,320.2 514.7,324 Z M516.5,394 C533.3,404.2 544.2,413.6 547.6,421.2 C549.8,426.2 549.6,426.3 537.7,427.8 C532.7,428.5 520.7,430.4 511.2,432.1 C501.7,433.8 493.6,435 493.4,434.7 C493.1,434.4 495.6,425.5 499,414.9 C502.4,404.2 505.6,394 506.1,392.2 C506.7,390.5 507.4,389 507.7,389 C508,389 512,391.3 516.5,394 Z M416,448.1 C416,448.7 413.9,452.7 411.3,456.9 L406.5,464.5 L406.2,460.7 C406,458.7 406,455.3 406.2,453.3 L406.5,449.7 L410,448.4 C414.5,446.8 416,446.7 416,448.1 Z M465,518.5 L465,543 L462.5,544.2 C459.7,545.4 456.6,549.9 452,559.1 C448.2,566.7 446.3,569 443.9,569 C441.9,569 437.8,564.5 432.1,556.1 C426.5,548 422.2,544.8 416.4,544.6 C413.2,544.5 411.6,544 410.9,542.7 C410.3,541.8 408.8,541 407.4,541 L405,541 L405.2,521.3 L405.5,501.7 L408.3,500.7 C412.1,499.5 412.5,500.2 410.6,505 C408.5,510.4 408.5,516.3 410.8,518.2 C414.5,521.5 416.9,522.2 420.6,521 C424.3,519.7 444.5,507.3 456.4,498.9 C460.3,496.2 463.8,494 464.2,494 C464.6,494 465,505 465,518.5 Z M505.8,500.2 C506.5,500.9 507,503.6 507,506.3 L507,511.2 L500.8,517.6 C496.4,522.2 494.4,523.7 493.5,523 C492.2,521.9 486,507.8 486,506 C486,505 492.8,501.2 497,499.9 C500.8,498.8 504.5,498.9 505.8,500.2 Z"/>
  <path fill="#000000" d="M325.9,550.8 C322.7,553.5 323,557.5 327.4,566.5 C332.4,577.1 338.3,585.1 347.7,594.1 C353.7,599.8 357,602.2 360.8,603.4 C367.8,605.7 372,605.8 373.6,603.5 C376.7,599.3 374.7,596.5 366.8,593.6 C358.8,590.7 343.8,571.7 338.9,558.5 C335.5,549.3 331.1,546.7 325.9,550.8 Z"/>
</svg>

