<svg xmlns="http://www.w3.org/2000/svg" version="1.0" width="937.000000pt" height="937.000000pt" viewBox="0 0 937.000000 937.000000" preserveAspectRatio="xMidYMid meet">
  <defs/>
  <path fill="#000000" d="M437.5,736.5 C434.3,739.6 434.4,741.4 437.8,748.1 C439.8,752.1 441.5,754 444.5,755.5 L448.5,757.5 L474.3,757.8 C499.1,758.1 527.6,756.9 531.3,755.5 C534,754.4 534.6,750.2 532.4,747.9 L530.5,746 L511.5,745 C501,744.5 483.5,744 472.5,744 C461.5,744 452,743.6 451.4,743.2 C450.8,742.8 449.5,741.1 448.6,739.3 C445.7,733.6 441.4,732.5 437.5,736.5 Z"/>
  <path fill="#000000" d="M289.1,740.6 C287.9,742.1 287,744 287,744.9 C287,747.3 291.3,752.9 295.6,755.9 L299.2,758.5 L324.9,759.1 C339,759.5 361.5,760.1 375,760.5 C391.7,761 402.7,760.9 409.5,760.1 L419.5,759 L421.3,756.9 C423.5,754.1 423.5,751.5 421,749 L419,747 L396.8,746.9 C384.5,746.9 370.9,746.5 366.5,745.9 C362.1,745.4 346.2,744.7 331.1,744.3 L303.7,743.7 L300.5,740.9 C296.2,737.1 291.9,737 289.1,740.6 Z"/>
  <path fill="#000000" d="M572.7,745.2 C570.4,747 569,751.4 569,756.7 L569,761.2 L572.3,764.5 C577.3,769.5 581.6,770 621.8,770 C663.3,770 667.5,769.7 669.7,766.4 C671.5,763.6 670.7,760.4 667.7,758.8 C666.1,757.9 653.7,757.4 624,756.9 C601.2,756.6 582.4,756.2 582.2,756.1 C582.1,756.1 582.3,754.2 582.6,752 C583.1,748.9 582.9,747.5 581.5,746 C579.5,743.7 575.2,743.4 572.7,745.2 Z"/>
</svg>

