<svg xmlns="http://www.w3.org/2000/svg" version="1.0" width="937.000000pt" height="937.000000pt" viewBox="0 0 937.000000 937.000000" preserveAspectRatio="xMidYMid meet">
  <defs/>
  <path fill="#000000" d="M200,254 C196.6,257.4 197.4,261.3 202.3,265.5 C215.1,276.5 239.5,290.8 258.6,298.6 C281.9,308 308.6,319.4 326.5,327.5 C370.2,347.4 386,351.8 427,356 C438.3,357.1 451.1,358.5 455.5,359.1 C459.9,359.7 481.7,360.4 504,360.7 L544.5,361.2 L573.5,357 C621.6,350.1 629.1,348.1 662.5,333.1 C679.3,325.5 715.1,305.7 729.9,295.8 C742.9,287.1 761.4,273.7 762.7,272 C764.8,269.4 764.2,264.2 761.5,261.5 C757.6,257.6 754.4,258.2 744.4,265.1 C719.4,282.2 710.9,287.6 693.5,297.5 C664.6,314 637.2,326.4 617.7,331.9 C606.7,335 572.6,340.5 546,343.6 L531.5,345.2 L499,344.7 C468.2,344.3 461,343.8 419,339.4 C390.4,336.4 371.1,330.9 339.5,316.8 C311.1,304.1 292,296 271,287.7 C249.4,279.2 236.2,272.2 219,260.1 C206.7,251.5 203.5,250.5 200,254 Z"/>
</svg>

