<svg xmlns="http://www.w3.org/2000/svg" version="1.0" width="937.000000pt" height="937.000000pt" viewBox="0 0 937.000000 937.000000" preserveAspectRatio="xMidYMid meet">
  <defs/>
  <path fill="#000000" d="M505.3,496.4 C498.3,499.5 488.8,515.6 483.5,533.5 C482,538.4 480.6,543.2 480.3,544 C480,544.8 479.1,542.3 478.4,538.5 C473.5,512.7 469.3,505 460,505 C455.1,505 449.8,508.4 446.3,513.7 C444.6,516.3 438.8,529.5 433.4,543 C428.1,556.5 423.4,567.9 423,568.3 C422.6,568.8 421.9,565.8 421.6,561.8 C419.7,543.1 410.4,516.1 402.5,506.4 C398.6,501.6 393.8,500 390,502 C387.6,503.3 384.1,510.2 384,513.7 C384,517.4 387.6,520.2 391.8,519.8 L395.5,519.5 L398.2,525 C405.2,539.7 409,560.1 409,583.8 L409,601.4 L405.5,609.6 C401.1,619.8 400.1,626 402.4,629.5 C404.2,632.2 408.5,632.9 412.1,631 C415.5,629.1 422,613.6 422,607.2 C422,605.8 425.2,596.6 429.2,586.6 C449.5,535.4 453.3,526.2 455.7,522.6 L458.3,518.6 L459.5,521.1 C463.5,528.7 467.1,555.6 467.9,582.3 L468.5,605.2 L471.3,607.6 C474.8,610.6 476.2,610.6 479.5,607.7 L482.2,605.5 L486,582.5 C491.8,548 495.7,532.4 501.3,521.4 L503.6,516.8 L504.8,532.7 C507.5,567.8 517.3,600.7 528.1,610.5 C535.6,617.2 545.3,617.2 551.8,610.3 C556.7,605 558.4,601.2 557.1,598.4 C555.4,594.6 551.2,595.2 546.5,600 C541.9,604.7 540.3,604.9 536.8,601.2 C533.3,597.5 531.8,594.3 527.6,581.1 C522,563.9 519,544.2 518.3,521.3 L517.7,502.1 L515.9,499 C514.9,497.4 513.4,496 512.6,496 C511.8,496 510.6,495.8 509.8,495.5 C509.1,495.3 507.1,495.7 505.3,496.4 Z"/>
</svg>

