<svg xmlns="http://www.w3.org/2000/svg" width="300" height="300" viewBox="0 0 300 300">
<path d="M 141.32 131.04 L 140.83 131.88 C 140.19 132.97 140.56 134.38 141.66 135.02 C 142.76 135.67 144.17 135.29 144.81 134.20 L 145.30 133.36 C 145.94 132.26 145.57 130.85 144.47 130.21 C 143.37 129.57 141.96 129.94 141.32 131.04 Z M 140.78 131.94 L 140.32 132.80 C 139.71 133.93 140.13 135.33 141.26 135.94 C 142.38 136.55 143.79 136.12 144.39 135.00 L 144.86 134.13 C 145.46 133.01 145.04 131.60 143.92 131.00 C 142.79 130.39 141.39 130.81 140.78 131.94 Z M 140.23 132.94 L 139.82 133.85 C 139.29 135.02 139.81 136.40 140.98 136.93 C 142.15 137.46 143.53 136.95 144.06 135.78 L 144.48 134.86 C 145.01 133.69 144.49 132.31 143.32 131.78 C 142.15 131.25 140.77 131.77 140.23 132.94 Z M 139.72 134.05 L 139.39 135.03 C 138.97 136.26 139.62 137.59 140.84 138.01 C 142.07 138.43 143.40 137.78 143.82 136.55 L 144.16 135.57 C 144.58 134.35 143.93 133.02 142.70 132.60 C 141.48 132.18 140.15 132.83 139.72 134.05 Z M 139.32 135.26 L 139.10 136.18 C 138.80 137.45 139.59 138.71 140.85 139.01 C 142.12 139.30 143.38 138.52 143.68 137.25 L 143.89 136.33 C 144.19 135.06 143.40 133.80 142.14 133.50 C 140.87 133.21 139.61 133.99 139.32 135.26 Z M 139.07 136.35 L 138.91 137.32 C 138.71 138.60 139.58 139.81 140.86 140.01 C 142.14 140.22 143.35 139.34 143.55 138.06 L 143.71 137.09 C 143.91 135.81 143.04 134.60 141.76 134.40 C 140.48 134.19 139.27 135.06 139.07 136.35 Z M 138.90 137.42 L 138.78 138.43 C 138.63 139.72 139.56 140.88 140.84 141.03 C 142.13 141.18 143.30 140.26 143.45 138.97 L 143.57 137.96 C 143.72 136.67 142.79 135.50 141.50 135.36 C 140.21 135.21 139.05 136.13 138.90 137.42 Z M 138.78 138.48 L 138.68 139.50 C 138.56 140.79 139.50 141.94 140.80 142.06 C 142.09 142.18 143.24 141.24 143.36 139.94 L 143.45 138.92 C 143.58 137.63 142.63 136.48 141.34 136.36 C 140.04 136.24 138.90 137.18 138.78 138.48 Z M 138.68 139.50 L 138.58 140.51 C 138.46 141.80 139.41 142.95 140.70 143.07 C 141.99 143.19 143.14 142.25 143.26 140.95 L 143.36 139.94 C 143.48 138.65 142.53 137.51 141.24 137.38 C 139.95 137.26 138.80 138.21 138.68 139.50 Z M 138.59 140.48 L 138.48 141.45 C 138.34 142.73 139.28 143.89 140.57 144.03 C 141.86 144.17 143.01 143.24 143.15 141.95 L 143.26 140.98 C 143.40 139.69 142.46 138.54 141.17 138.40 C 139.88 138.26 138.73 139.19 138.59 140.48 Z M 138.49 141.42 L 138.37 142.39 C 138.22 143.67 139.13 144.84 140.42 145.00 C 141.71 145.15 142.88 144.23 143.03 142.95 L 143.15 141.98 C 143.30 140.69 142.39 139.52 141.10 139.37 C 139.81 139.21 138.64 140.13 138.49 141.42 Z M 138.38 142.36 L 138.25 143.35 C 138.08 144.63 138.98 145.81 140.27 145.98 C 141.55 146.15 142.73 145.24 142.90 143.96 L 143.03 142.97 C 143.20 141.69 142.29 140.51 141.01 140.34 C 139.72 140.17 138.55 141.08 138.38 142.36 Z M 138.25 143.33 L 138.11 144.34 C 137.93 145.63 138.82 146.81 140.10 146.99 C 141.39 147.17 142.57 146.28 142.75 144.99 L 142.89 143.98 C 143.07 142.70 142.18 141.51 140.90 141.33 C 139.62 141.15 138.43 142.05 138.25 143.33 Z M 138.11 144.33 L 137.96 145.36 C 137.78 146.64 138.66 147.83 139.94 148.02 C 141.22 148.20 142.41 147.32 142.60 146.04 L 142.75 145.01 C 142.93 143.73 142.05 142.54 140.77 142.35 C 139.49 142.17 138.30 143.05 138.11 144.33 Z M 137.97 145.35 L 137.81 146.37 C 137.62 147.65 138.50 148.84 139.78 149.03 C 141.05 149.22 142.25 148.34 142.44 147.06 L 142.59 146.05 C 142.78 144.77 141.90 143.58 140.63 143.39 C 139.35 143.20 138.16 144.07 137.97 145.35 Z M 137.82 146.36 L 137.66 147.39 C 137.47 148.66 138.34 149.85 139.62 150.05 C 140.89 150.24 142.08 149.37 142.28 148.09 L 142.43 147.07 C 142.63 145.79 141.75 144.60 140.48 144.41 C 139.20 144.21 138.01 145.09 137.82 146.36 Z M 137.67 147.39 L 137.51 148.40 C 137.32 149.67 138.19 150.86 139.46 151.06 C 140.73 151.25 141.92 150.38 142.12 149.11 L 142.27 148.10 C 142.47 146.82 141.59 145.63 140.32 145.44 C 139.05 145.24 137.86 146.12 137.67 147.39 Z M 137.51 148.40 L 137.37 149.37 C 137.17 150.64 138.04 151.83 139.31 152.02 C 140.58 152.22 141.77 151.35 141.96 150.08 L 142.11 149.11 C 142.31 147.84 141.44 146.65 140.17 146.45 C 138.90 146.26 137.71 147.13 137.51 148.40 Z M 137.37 149.38 L 137.23 150.31 C 137.04 151.58 137.91 152.76 139.18 152.95 C 140.44 153.14 141.63 152.27 141.82 151.00 L 141.96 150.07 C 142.15 148.80 141.28 147.62 140.01 147.43 C 138.74 147.24 137.56 148.11 137.37 149.38 Z M 137.23 150.32 L 137.07 151.41 C 136.89 152.68 137.76 153.85 139.02 154.04 C 140.29 154.23 141.47 153.35 141.65 152.09 L 141.81 150.99 C 142.00 149.73 141.13 148.55 139.86 148.37 C 138.60 148.18 137.42 149.05 137.23 150.32 Z M 137.08 151.42 L 136.94 152.41 C 136.76 153.67 137.63 154.84 138.89 155.02 C 140.15 155.20 141.32 154.33 141.50 153.07 L 141.64 152.08 C 141.82 150.82 140.95 149.65 139.69 149.47 C 138.43 149.29 137.26 150.16 137.08 151.42 Z M 136.95 152.41 L 136.82 153.34 C 136.64 154.59 137.51 155.76 138.76 155.94 C 140.01 156.12 141.17 155.25 141.36 154.00 L 141.49 153.07 C 141.67 151.81 140.80 150.65 139.55 150.47 C 138.29 150.29 137.13 151.16 136.95 152.41 Z M 136.83 153.34 L 136.69 154.26 C 136.51 155.51 137.37 156.67 138.62 156.85 C 139.86 157.03 141.02 156.17 141.21 154.92 L 141.34 154.00 C 141.53 152.75 140.67 151.59 139.42 151.41 C 138.17 151.23 137.01 152.09 136.83 153.34 Z M 136.70 154.25 L 136.55 155.22 C 136.36 156.46 137.21 157.62 138.46 157.81 C 139.70 158.00 140.86 157.15 141.05 155.91 L 141.20 154.94 C 141.39 153.70 140.54 152.54 139.30 152.34 C 138.05 152.15 136.89 153.01 136.70 154.25 Z M 136.56 155.20 L 136.40 156.19 C 136.20 157.43 137.04 158.59 138.28 158.79 C 139.52 158.99 140.68 158.15 140.88 156.91 L 141.04 155.92 C 141.24 154.69 140.40 153.53 139.16 153.33 C 137.93 153.13 136.76 153.97 136.56 155.20 Z M 136.41 156.17 L 136.24 157.17 C 136.03 158.40 136.86 159.57 138.09 159.78 C 139.32 159.99 140.49 159.16 140.70 157.93 L 140.87 156.93 C 141.08 155.70 140.25 154.54 139.02 154.33 C 137.79 154.12 136.62 154.94 136.41 156.17 Z M 136.26 157.15 L 136.08 158.14 C 135.85 159.36 136.66 160.54 137.89 160.76 C 139.11 160.98 140.28 160.17 140.50 158.95 L 140.68 157.96 C 140.91 156.73 140.10 155.56 138.87 155.34 C 137.65 155.11 136.48 155.93 136.26 157.15 Z M 136.09 158.12 L 135.90 159.10 C 135.67 160.32 136.46 161.49 137.68 161.73 C 138.89 161.96 140.07 161.17 140.30 159.95 L 140.49 158.97 C 140.72 157.75 139.93 156.58 138.71 156.34 C 137.50 156.11 136.32 156.91 136.09 158.12 Z M 135.91 159.10 L 135.72 160.08 C 135.48 161.29 136.27 162.46 137.48 162.70 C 138.69 162.93 139.86 162.14 140.10 160.93 L 140.29 159.96 C 140.53 158.74 139.74 157.57 138.53 157.33 C 137.32 157.10 136.15 157.89 135.91 159.10 Z M 135.72 160.08 L 135.54 161.07 C 135.30 162.27 136.09 163.44 137.30 163.67 C 138.51 163.90 139.67 163.11 139.91 161.91 L 140.09 160.93 C 140.33 159.72 139.54 158.55 138.33 158.32 C 137.12 158.09 135.96 158.88 135.72 160.08 Z M 135.54 161.09 L 135.36 162.06 C 135.14 163.27 135.94 164.42 137.14 164.64 C 138.35 164.86 139.50 164.07 139.72 162.86 L 139.90 161.89 C 140.12 160.68 139.32 159.53 138.12 159.31 C 136.92 159.09 135.76 159.88 135.54 161.09 Z M 135.37 162.08 L 135.20 163.06 C 134.99 164.26 135.79 165.41 136.99 165.61 C 138.19 165.82 139.34 165.02 139.55 163.82 L 139.72 162.84 C 139.93 161.64 139.12 160.50 137.92 160.29 C 136.72 160.08 135.58 160.88 135.37 162.08 Z M 135.20 163.07 L 135.04 164.06 C 134.83 165.25 135.64 166.39 136.84 166.59 C 138.03 166.80 139.17 165.99 139.37 164.79 L 139.54 163.81 C 139.74 162.61 138.94 161.47 137.74 161.27 C 136.54 161.07 135.41 161.87 135.20 163.07 Z M 135.05 164.06 L 134.87 165.05 C 134.67 166.24 135.47 167.38 136.66 167.58 C 137.85 167.79 138.99 166.98 139.19 165.79 L 139.36 164.80 C 139.57 163.60 138.77 162.47 137.57 162.27 C 136.38 162.06 135.25 162.86 135.05 164.06 Z M 134.88 165.04 L 134.71 166.03 C 134.50 167.21 135.29 168.35 136.48 168.56 C 137.66 168.77 138.79 167.98 139.01 166.79 L 139.18 165.80 C 139.39 164.62 138.60 163.48 137.41 163.27 C 136.23 163.06 135.10 163.85 134.88 165.04 Z M 134.72 166.01 L 134.54 167.00 C 134.32 168.18 135.10 169.31 136.28 169.53 C 137.46 169.75 138.59 168.97 138.81 167.79 L 138.99 166.80 C 139.21 165.62 138.43 164.49 137.25 164.27 C 136.07 164.05 134.94 164.83 134.72 166.01 Z M 134.55 166.99 L 134.36 167.97 C 134.14 169.15 134.91 170.28 136.08 170.51 C 137.26 170.73 138.39 169.96 138.61 168.78 L 138.80 167.80 C 139.03 166.62 138.25 165.49 137.08 165.27 C 135.91 165.04 134.77 165.81 134.55 166.99 Z M 134.37 167.97 L 134.18 168.95 C 133.95 170.12 134.72 171.25 135.89 171.48 C 137.06 171.70 138.19 170.94 138.41 169.77 L 138.60 168.79 C 138.83 167.62 138.07 166.49 136.90 166.26 C 135.73 166.04 134.60 166.80 134.37 167.97 Z M 134.19 168.95 L 134.00 169.94 C 133.77 171.10 134.53 172.23 135.69 172.46 C 136.85 172.69 137.98 171.93 138.21 170.77 L 138.40 169.78 C 138.63 168.61 137.88 167.48 136.71 167.25 C 135.55 167.03 134.42 167.78 134.19 168.95 Z M 134.01 169.94 L 133.81 170.92 C 133.58 172.08 134.33 173.21 135.49 173.44 C 136.65 173.67 137.77 172.91 138.00 171.76 L 138.20 170.77 C 138.43 169.61 137.68 168.48 136.52 168.25 C 135.36 168.02 134.24 168.78 134.01 169.94 Z M 133.82 170.92 L 133.62 171.90 C 133.39 173.05 134.14 174.18 135.29 174.41 C 136.45 174.64 137.57 173.89 137.80 172.74 L 137.99 171.76 C 138.23 170.61 137.48 169.48 136.33 169.25 C 135.17 169.02 134.05 169.77 133.82 170.92 Z M 133.63 171.90 L 133.44 172.87 C 133.20 174.01 133.95 175.13 135.09 175.37 C 136.24 175.60 137.36 174.86 137.59 173.71 L 137.79 172.74 C 138.02 171.59 137.28 170.47 136.13 170.24 C 134.98 170.01 133.87 170.75 133.63 171.90 Z M 133.45 172.87 L 133.27 173.72 C 133.04 174.86 133.78 175.98 134.92 176.21 C 136.06 176.44 137.17 175.71 137.41 174.57 L 137.58 173.71 C 137.82 172.57 137.08 171.45 135.94 171.22 C 134.79 170.99 133.68 171.72 133.45 172.87 Z M 133.28 173.73 L 133.11 174.57 C 132.88 175.71 133.62 176.82 134.75 177.04 C 135.89 177.27 137.00 176.54 137.23 175.40 L 137.40 174.56 C 137.63 173.42 136.89 172.31 135.76 172.08 C 134.62 171.85 133.51 172.59 133.28 173.73 Z M 133.12 174.59 L 132.94 175.51 C 132.72 176.64 133.45 177.74 134.59 177.96 C 135.72 178.18 136.82 177.45 137.04 176.31 L 137.22 175.39 C 137.44 174.25 136.70 173.16 135.57 172.94 C 134.44 172.71 133.34 173.45 133.12 174.59 Z M 132.94 175.53 L 132.75 176.59 C 132.54 177.72 133.28 178.81 134.41 179.02 C 135.54 179.23 136.62 178.48 136.84 177.35 L 137.03 176.29 C 137.24 175.16 136.50 174.08 135.37 173.87 C 134.24 173.66 133.15 174.40 132.94 175.53 Z M 132.75 176.61 L 132.54 177.82 C 132.34 178.95 133.09 180.02 134.22 180.22 C 135.34 180.42 136.42 179.67 136.61 178.55 L 136.83 177.33 C 137.03 176.21 136.28 175.13 135.15 174.93 C 134.03 174.74 132.95 175.49 132.75 176.61 Z M 132.54 177.84 L 132.39 178.75 C 132.20 179.88 132.95 180.94 134.08 181.13 C 135.20 181.32 136.26 180.57 136.45 179.44 L 136.61 178.53 C 136.80 177.41 136.04 176.34 134.92 176.15 C 133.80 175.96 132.73 176.72 132.54 177.84 Z M 132.39 178.77 L 132.23 179.75 C 132.05 180.87 132.81 181.93 133.93 182.11 C 135.05 182.29 136.10 181.54 136.29 180.42 L 136.45 179.43 C 136.63 178.31 135.87 177.26 134.75 177.07 C 133.63 176.89 132.58 177.65 132.39 178.77 Z M 132.24 179.76 L 132.07 180.79 C 131.90 181.91 132.66 182.96 133.77 183.13 C 134.89 183.31 135.94 182.55 136.12 181.43 L 136.28 180.41 C 136.46 179.29 135.70 178.24 134.58 178.06 C 133.46 177.88 132.42 178.65 132.24 179.76 Z M 132.08 180.80 L 131.92 181.85 C 131.75 182.96 132.51 184.00 133.63 184.17 C 134.74 184.34 135.78 183.58 135.95 182.46 L 136.11 181.42 C 136.28 180.31 135.52 179.26 134.41 179.09 C 133.29 178.92 132.25 179.69 132.08 180.80 Z M 131.92 181.86 L 131.77 182.90 C 131.61 184.01 132.38 185.04 133.49 185.20 C 134.60 185.37 135.63 184.60 135.80 183.49 L 135.95 182.45 C 136.11 181.34 135.34 180.31 134.23 180.14 C 133.12 179.98 132.09 180.75 131.92 181.86 Z M 131.78 182.91 L 131.64 183.91 C 131.48 185.02 132.26 186.04 133.37 186.20 C 134.48 186.35 135.50 185.58 135.65 184.47 L 135.79 183.47 C 135.95 182.36 135.17 181.34 134.06 181.18 C 132.95 181.03 131.93 181.80 131.78 182.91 Z M 131.64 183.93 L 131.52 184.87 C 131.38 185.98 132.16 186.99 133.27 187.13 C 134.37 187.27 135.39 186.49 135.53 185.39 L 135.65 184.45 C 135.79 183.34 135.01 182.33 133.90 182.19 C 132.80 182.04 131.78 182.83 131.64 183.93 Z M 131.54 184.92 L 131.39 186.33 C 131.27 187.43 132.07 188.41 133.17 188.53 C 134.26 188.64 135.25 187.84 135.36 186.75 L 135.51 185.34 C 135.63 184.24 134.83 183.26 133.73 183.14 C 132.64 183.02 131.65 183.82 131.54 184.92 Z M 131.42 186.48 L 131.38 187.65 C 131.35 188.73 132.21 189.64 133.29 189.67 C 134.37 189.70 135.27 188.84 135.30 187.76 L 135.34 186.59 C 135.37 185.51 134.51 184.61 133.43 184.58 C 132.35 184.55 131.45 185.40 131.42 186.48 Z M 131.46 188.08 L 131.61 188.86 C 131.82 189.90 132.83 190.58 133.87 190.37 C 134.91 190.17 135.59 189.16 135.38 188.12 L 135.23 187.34 C 135.02 186.29 134.01 185.62 132.97 185.82 C 131.93 186.03 131.25 187.04 131.46 188.08 Z M 132.25 189.89 L 132.64 190.24 C 133.42 190.93 134.61 190.86 135.30 190.08 C 135.99 189.31 135.92 188.12 135.14 187.43 L 134.74 187.08 C 133.97 186.39 132.78 186.46 132.09 187.24 C 131.40 188.02 131.47 189.20 132.25 189.89 Z M 134.11 190.66 L 134.72 190.59 C 135.72 190.47 136.44 189.55 136.32 188.55 C 136.20 187.54 135.29 186.82 134.28 186.94 L 133.68 187.01 C 132.67 187.13 131.95 188.05 132.07 189.05 C 132.19 190.06 133.10 190.78 134.11 190.66 Z M 135.26 190.38 L 136.06 190.00 C 136.95 189.58 137.33 188.52 136.91 187.63 C 136.49 186.73 135.43 186.35 134.53 186.77 L 133.74 187.15 C 132.84 187.57 132.46 188.64 132.88 189.53 C 133.30 190.42 134.37 190.80 135.26 190.38 Z M 136.22 189.86 L 137.16 189.27 C 137.97 188.76 138.21 187.68 137.70 186.87 C 137.19 186.06 136.11 185.82 135.30 186.33 L 134.37 186.92 C 133.56 187.43 133.31 188.51 133.83 189.32 C 134.34 190.13 135.41 190.37 136.22 189.86 Z M 137.20 189.18 L 138.21 188.47 C 138.98 187.93 139.16 186.88 138.62 186.11 C 138.09 185.35 137.03 185.17 136.27 185.71 L 135.26 186.42 C 134.50 186.95 134.31 188.01 134.85 188.77 C 135.39 189.53 136.44 189.72 137.20 189.18 Z M 138.21 188.43 L 138.58 188.16 C 139.32 187.62 139.49 186.59 138.96 185.85 C 138.42 185.11 137.39 184.94 136.65 185.48 L 136.27 185.74 C 135.53 186.28 135.37 187.31 135.90 188.06 C 136.44 188.80 137.47 188.96 138.21 188.43 Z"
      fill="black"
      fill-rule="nonzero" /><path d="M 150.93 123.39 L 151.39 124.37 C 151.88 125.44 153.13 125.90 154.20 125.41 C 155.26 124.92 155.72 123.66 155.23 122.60 L 154.78 121.61 C 154.29 120.55 153.03 120.09 151.97 120.58 C 150.90 121.07 150.44 122.33 150.93 123.39 Z M 151.36 124.38 L 151.81 125.36 C 152.30 126.43 153.58 126.91 154.65 126.41 C 155.73 125.91 156.20 124.64 155.71 123.56 L 155.26 122.59 C 154.76 121.51 153.49 121.04 152.41 121.54 C 151.33 122.03 150.86 123.31 151.36 124.38 Z M 151.78 125.36 L 152.21 126.31 C 152.71 127.41 154.00 127.89 155.10 127.39 C 156.19 126.88 156.67 125.59 156.17 124.50 L 155.74 123.55 C 155.24 122.46 153.94 121.98 152.85 122.48 C 151.76 122.98 151.28 124.27 151.78 125.36 Z M 152.18 126.32 L 152.59 127.23 C 153.10 128.34 154.41 128.83 155.52 128.33 C 156.63 127.82 157.12 126.51 156.61 125.40 L 156.20 124.49 C 155.70 123.38 154.39 122.89 153.28 123.40 C 152.17 123.90 151.68 125.21 152.18 126.32 Z M 152.56 127.23 L 152.95 128.09 C 153.45 129.22 154.78 129.72 155.90 129.22 C 157.03 128.71 157.54 127.39 157.03 126.26 L 156.64 125.40 C 156.14 124.27 154.82 123.77 153.69 124.28 C 152.56 124.78 152.06 126.10 152.56 127.23 Z M 152.92 128.09 L 153.27 128.89 C 153.77 130.04 155.11 130.56 156.25 130.05 C 157.40 129.55 157.92 128.21 157.42 127.07 L 157.06 126.27 C 156.56 125.12 155.22 124.60 154.08 125.10 C 152.93 125.61 152.41 126.94 152.92 128.09 Z M 153.24 128.87 L 153.68 129.90 C 154.17 131.06 155.51 131.60 156.67 131.10 C 157.83 130.61 158.37 129.27 157.88 128.11 L 157.44 127.08 C 156.95 125.92 155.61 125.38 154.45 125.88 C 153.29 126.37 152.75 127.71 153.24 128.87 Z M 153.66 129.86 L 154.05 130.80 C 154.52 131.97 155.85 132.53 157.02 132.06 C 158.19 131.58 158.75 130.25 158.28 129.08 L 157.89 128.14 C 157.42 126.97 156.08 126.41 154.92 126.89 C 153.75 127.36 153.19 128.69 153.66 129.86 Z M 154.03 130.77 L 154.38 131.65 C 154.83 132.83 156.16 133.41 157.34 132.95 C 158.51 132.49 159.09 131.16 158.63 129.99 L 158.29 129.11 C 157.83 127.93 156.50 127.35 155.33 127.81 C 154.15 128.27 153.57 129.60 154.03 130.77 Z M 154.37 131.63 L 154.70 132.50 C 155.14 133.68 156.46 134.27 157.64 133.82 C 158.82 133.38 159.42 132.06 158.97 130.88 L 158.64 130.01 C 158.19 128.83 156.87 128.23 155.69 128.68 C 154.51 129.13 153.92 130.45 154.37 131.63 Z M 154.69 132.49 L 155.01 133.34 C 155.45 134.52 156.77 135.12 157.95 134.68 C 159.13 134.24 159.73 132.92 159.29 131.74 L 158.97 130.89 C 158.53 129.70 157.21 129.10 156.03 129.55 C 154.85 129.99 154.25 131.31 154.69 132.49 Z M 155.01 133.33 L 155.33 134.21 C 155.77 135.40 157.08 136.00 158.26 135.57 C 159.45 135.13 160.06 133.82 159.62 132.64 L 159.30 131.75 C 158.86 130.56 157.55 129.96 156.36 130.39 C 155.18 130.83 154.57 132.14 155.01 133.33 Z M 155.32 134.19 L 155.66 135.13 C 156.08 136.32 157.39 136.94 158.58 136.52 C 159.77 136.10 160.39 134.79 159.97 133.60 L 159.63 132.66 C 159.21 131.47 157.90 130.85 156.71 131.27 C 155.52 131.69 154.90 133.00 155.32 134.19 Z M 155.65 135.10 L 155.99 136.10 C 156.39 137.30 157.69 137.94 158.89 137.53 C 160.08 137.12 160.72 135.82 160.32 134.63 L 159.98 133.63 C 159.57 132.43 158.27 131.79 157.08 132.20 C 155.88 132.61 155.24 133.91 155.65 135.10 Z M 155.98 136.07 L 156.31 137.09 C 156.69 138.30 157.98 138.96 159.18 138.57 C 160.39 138.18 161.05 136.89 160.66 135.69 L 160.33 134.66 C 159.94 133.46 158.65 132.80 157.45 133.19 C 156.25 133.58 155.59 134.86 155.98 136.07 Z M 156.30 137.06 L 156.60 138.04 C 156.96 139.25 158.24 139.93 159.45 139.56 C 160.66 139.19 161.34 137.92 160.97 136.71 L 160.67 135.73 C 160.30 134.52 159.02 133.84 157.82 134.21 C 156.61 134.58 155.93 135.85 156.30 137.06 Z M 156.59 138.02 L 156.88 139.02 C 157.24 140.23 158.51 140.92 159.72 140.57 C 160.93 140.21 161.62 138.94 161.27 137.73 L 160.98 136.73 C 160.62 135.52 159.35 134.83 158.14 135.18 C 156.93 135.54 156.23 136.81 156.59 138.02 Z M 156.88 139.00 L 157.15 139.98 C 157.50 141.20 158.76 141.90 159.98 141.56 C 161.19 141.22 161.90 139.95 161.55 138.74 L 161.28 137.75 C 160.93 136.54 159.67 135.83 158.45 136.17 C 157.24 136.52 156.53 137.78 156.88 139.00 Z M 157.15 139.97 L 157.41 140.91 C 157.75 142.13 159.01 142.84 160.22 142.51 C 161.44 142.17 162.15 140.91 161.82 139.70 L 161.56 138.75 C 161.22 137.53 159.96 136.82 158.75 137.16 C 157.53 137.49 156.81 138.75 157.15 139.97 Z M 157.41 140.90 L 157.66 141.83 C 157.99 143.05 159.24 143.77 160.46 143.44 C 161.68 143.12 162.40 141.86 162.07 140.64 L 161.82 139.71 C 161.49 138.49 160.24 137.77 159.02 138.10 C 157.80 138.42 157.08 139.68 157.41 140.90 Z M 157.66 141.82 L 157.94 142.89 C 158.26 144.11 159.51 144.84 160.73 144.51 C 161.95 144.19 162.68 142.94 162.36 141.72 L 162.08 140.65 C 161.75 139.43 160.50 138.70 159.28 139.03 C 158.06 139.35 157.33 140.60 157.66 141.82 Z M 157.94 142.88 L 158.18 143.83 C 158.50 145.05 159.75 145.78 160.97 145.47 C 162.19 145.15 162.92 143.90 162.61 142.68 L 162.36 141.73 C 162.04 140.51 160.80 139.77 159.57 140.09 C 158.35 140.41 157.62 141.65 157.94 142.88 Z M 158.18 143.83 L 158.41 144.72 C 158.73 145.94 159.97 146.67 161.20 146.36 C 162.42 146.04 163.15 144.79 162.84 143.57 L 162.61 142.68 C 162.29 141.46 161.04 140.73 159.82 141.04 C 158.60 141.36 157.87 142.60 158.18 143.83 Z M 158.41 144.72 L 158.65 145.63 C 158.97 146.85 160.22 147.58 161.44 147.26 C 162.66 146.94 163.39 145.70 163.07 144.47 L 162.83 143.56 C 162.51 142.34 161.26 141.61 160.04 141.93 C 158.82 142.25 158.09 143.50 158.41 144.72 Z M 158.66 145.64 L 158.91 146.59 C 159.23 147.81 160.48 148.54 161.70 148.22 C 162.92 147.89 163.64 146.64 163.32 145.43 L 163.07 144.47 C 162.75 143.25 161.50 142.53 160.28 142.85 C 159.06 143.17 158.33 144.42 158.66 145.64 Z M 158.91 146.59 L 159.16 147.56 C 159.48 148.78 160.73 149.51 161.95 149.19 C 163.16 148.87 163.89 147.63 163.58 146.41 L 163.32 145.43 C 163.00 144.22 161.76 143.48 160.54 143.80 C 159.32 144.12 158.59 145.37 158.91 146.59 Z M 159.16 147.54 L 159.41 148.53 C 159.71 149.75 160.95 150.49 162.17 150.18 C 163.39 149.88 164.13 148.64 163.83 147.42 L 163.58 146.43 C 163.27 145.21 162.04 144.47 160.82 144.77 C 159.59 145.08 158.85 146.32 159.16 147.54 Z M 159.40 148.50 L 159.63 149.45 C 159.92 150.68 161.14 151.43 162.37 151.14 C 163.59 150.85 164.35 149.63 164.06 148.40 L 163.83 147.45 C 163.54 146.22 162.32 145.47 161.09 145.76 C 159.87 146.05 159.11 147.27 159.40 148.50 Z M 159.62 149.43 L 159.84 150.40 C 160.12 151.62 161.33 152.39 162.56 152.12 C 163.79 151.84 164.56 150.63 164.28 149.40 L 164.06 148.43 C 163.79 147.20 162.57 146.43 161.35 146.71 C 160.12 146.98 159.35 148.20 159.62 149.43 Z M 159.84 150.38 L 160.05 151.36 C 160.32 152.59 161.53 153.37 162.75 153.11 C 163.98 152.84 164.76 151.63 164.50 150.41 L 164.28 149.42 C 164.02 148.19 162.81 147.41 161.58 147.68 C 160.36 147.94 159.57 149.15 159.84 150.38 Z M 160.05 151.35 L 160.26 152.33 C 160.51 153.56 161.72 154.34 162.94 154.09 C 164.17 153.83 164.96 152.63 164.70 151.40 L 164.50 150.42 C 164.24 149.19 163.04 148.41 161.81 148.66 C 160.58 148.92 159.79 150.12 160.05 151.35 Z M 160.26 152.32 L 160.45 153.28 C 160.71 154.51 161.91 155.30 163.13 155.05 C 164.36 154.79 165.15 153.59 164.90 152.37 L 164.70 151.41 C 164.45 150.18 163.25 149.39 162.02 149.64 C 160.79 149.90 160.00 151.10 160.26 152.32 Z M 160.46 153.28 L 160.66 154.26 C 160.91 155.48 162.11 156.27 163.33 156.02 C 164.56 155.77 165.35 154.57 165.10 153.35 L 164.90 152.37 C 164.64 151.14 163.45 150.35 162.22 150.60 C 160.99 150.86 160.21 152.05 160.46 153.28 Z M 160.66 154.26 L 160.87 155.26 C 161.12 156.48 162.32 157.27 163.54 157.02 C 164.77 156.76 165.55 155.56 165.30 154.34 L 165.09 153.34 C 164.84 152.12 163.64 151.33 162.42 151.59 C 161.19 151.84 160.41 153.04 160.66 154.26 Z M 160.87 155.27 L 161.08 156.27 C 161.34 157.49 162.54 158.27 163.76 158.01 C 164.98 157.75 165.76 156.55 165.51 155.33 L 165.29 154.33 C 165.04 153.11 163.84 152.33 162.62 152.59 C 161.39 152.85 160.61 154.05 160.87 155.27 Z M 161.09 156.27 L 161.30 157.26 C 161.57 158.48 162.77 159.25 163.98 158.99 C 165.20 158.73 165.98 157.53 165.71 156.31 L 165.50 155.32 C 165.24 154.10 164.04 153.33 162.82 153.59 C 161.60 153.85 160.83 155.06 161.09 156.27 Z M 161.31 157.27 L 161.52 158.25 C 161.79 159.47 162.99 160.24 164.21 159.97 C 165.42 159.71 166.19 158.51 165.93 157.29 L 165.71 156.30 C 165.44 155.09 164.24 154.32 163.03 154.58 C 161.81 154.85 161.04 156.05 161.31 157.27 Z M 161.53 158.26 L 161.74 159.23 C 162.01 160.44 163.21 161.21 164.42 160.94 C 165.64 160.67 166.40 159.47 166.14 158.26 L 165.92 157.29 C 165.65 156.07 164.45 155.31 163.24 155.57 C 162.03 155.84 161.26 157.04 161.53 158.26 Z M 161.74 159.23 L 161.96 160.21 C 162.23 161.42 163.42 162.18 164.64 161.92 C 165.85 161.65 166.61 160.45 166.35 159.24 L 166.13 158.26 C 165.87 157.05 164.67 156.28 163.45 156.55 C 162.24 156.82 161.48 158.01 161.74 159.23 Z M 161.96 160.20 L 162.18 161.20 C 162.45 162.41 163.64 163.18 164.85 162.91 C 166.06 162.65 166.83 161.45 166.56 160.24 L 166.34 159.24 C 166.08 158.03 164.88 157.27 163.67 157.53 C 162.46 157.80 161.70 158.99 161.96 160.20 Z M 162.19 161.20 L 162.40 162.17 C 162.66 163.37 163.85 164.14 165.06 163.88 C 166.27 163.61 167.03 162.42 166.77 161.21 L 166.56 160.24 C 166.29 159.04 165.10 158.27 163.90 158.53 C 162.69 158.80 161.92 159.99 162.19 161.20 Z M 162.40 162.16 L 162.61 163.12 C 162.87 164.32 164.06 165.09 165.27 164.82 C 166.47 164.56 167.23 163.37 166.97 162.17 L 166.76 161.22 C 166.50 160.01 165.31 159.25 164.11 159.51 C 162.91 159.77 162.14 160.96 162.40 162.16 Z M 162.62 163.12 L 162.83 164.09 C 163.09 165.29 164.27 166.05 165.48 165.79 C 166.68 165.53 167.44 164.35 167.18 163.14 L 166.97 162.17 C 166.70 160.97 165.52 160.21 164.32 160.47 C 163.12 160.73 162.36 161.92 162.62 163.12 Z M 162.83 164.08 L 163.05 165.07 C 163.30 166.27 164.48 167.03 165.68 166.77 C 166.88 166.51 167.64 165.33 167.38 164.13 L 167.17 163.15 C 166.91 161.95 165.73 161.19 164.54 161.45 C 163.34 161.71 162.58 162.89 162.83 164.08 Z M 163.05 165.06 L 163.26 166.03 C 163.51 167.23 164.68 167.99 165.88 167.74 C 167.07 167.49 167.84 166.32 167.59 165.12 L 167.38 164.14 C 167.13 162.95 165.95 162.18 164.76 162.44 C 163.56 162.69 162.80 163.86 163.05 165.06 Z M 163.26 166.02 L 163.46 166.98 C 163.70 168.18 164.87 168.95 166.06 168.70 C 167.25 168.46 168.02 167.29 167.78 166.10 L 167.58 165.14 C 167.34 163.94 166.17 163.17 164.98 163.42 C 163.79 163.66 163.02 164.83 163.26 166.02 Z M 163.46 166.96 L 163.64 167.85 C 163.87 169.04 165.02 169.82 166.22 169.58 C 167.41 169.35 168.18 168.19 167.95 167.00 L 167.77 166.12 C 167.54 164.93 166.39 164.15 165.19 164.38 C 164.00 164.62 163.23 165.77 163.46 166.96 Z M 163.64 167.85 L 163.82 168.77 C 164.05 169.96 165.20 170.73 166.39 170.50 C 167.58 170.27 168.35 169.12 168.12 167.93 L 167.94 167.01 C 167.71 165.82 166.56 165.05 165.37 165.28 C 164.19 165.51 163.41 166.66 163.64 167.85 Z M 163.83 168.78 L 164.03 169.79 C 164.27 170.97 165.42 171.74 166.60 171.50 C 167.78 171.27 168.55 170.12 168.31 168.93 L 168.11 167.92 C 167.88 166.74 166.73 165.98 165.54 166.21 C 164.36 166.45 163.60 167.60 163.83 168.78 Z M 164.05 169.81 L 164.28 170.90 C 164.52 172.08 165.67 172.83 166.85 172.59 C 168.02 172.34 168.78 171.19 168.53 170.01 L 168.30 168.92 C 168.06 167.74 166.90 166.99 165.73 167.23 C 164.55 167.48 163.80 168.63 164.05 169.81 Z M 164.29 170.92 L 164.49 171.87 C 164.75 173.04 165.90 173.78 167.07 173.53 C 168.24 173.27 168.98 172.12 168.73 170.95 L 168.52 170.00 C 168.27 168.83 167.11 168.09 165.94 168.34 C 164.77 168.60 164.03 169.75 164.29 170.92 Z M 164.50 171.89 L 164.73 172.89 C 164.99 174.05 166.14 174.79 167.31 174.53 C 168.47 174.27 169.21 173.11 168.94 171.95 L 168.72 170.94 C 168.46 169.78 167.30 169.04 166.14 169.30 C 164.98 169.57 164.24 170.72 164.50 171.89 Z M 164.74 172.90 L 164.97 173.92 C 165.23 175.07 166.39 175.80 167.55 175.54 C 168.71 175.27 169.43 174.12 169.17 172.96 L 168.94 171.94 C 168.67 170.78 167.52 170.05 166.36 170.32 C 165.20 170.58 164.47 171.74 164.74 172.90 Z M 164.98 173.92 L 165.21 174.91 C 165.48 176.07 166.63 176.79 167.78 176.52 C 168.94 176.25 169.66 175.10 169.39 173.94 L 169.16 172.95 C 168.89 171.79 167.74 171.08 166.58 171.34 C 165.43 171.61 164.71 172.77 164.98 173.92 Z M 165.22 174.92 L 165.43 175.84 C 165.70 176.99 166.86 177.71 168.01 177.43 C 169.16 177.16 169.87 176.01 169.60 174.86 L 169.38 173.94 C 169.11 172.78 167.96 172.07 166.81 172.34 C 165.66 172.61 164.94 173.77 165.22 174.92 Z M 165.44 175.85 L 165.67 176.81 C 165.95 177.95 167.10 178.66 168.24 178.39 C 169.39 178.11 170.09 176.96 169.82 175.82 L 169.59 174.86 C 169.32 173.71 168.17 173.01 167.02 173.28 C 165.88 173.55 165.17 174.70 165.44 175.85 Z M 165.69 176.80 L 165.90 177.71 C 166.18 178.84 167.32 179.55 168.45 179.27 C 169.59 179.00 170.29 177.86 170.02 176.73 L 169.80 175.82 C 169.53 174.69 168.39 173.98 167.26 174.26 C 166.12 174.53 165.42 175.67 165.69 176.80 Z M 165.92 177.70 L 166.13 178.61 C 166.40 179.74 167.53 180.44 168.66 180.18 C 169.79 179.92 170.49 178.79 170.22 177.66 L 170.01 176.74 C 169.74 175.61 168.61 174.91 167.48 175.17 C 166.35 175.44 165.65 176.57 165.92 177.70 Z M 166.14 178.60 L 166.37 179.62 C 166.63 180.74 167.74 181.44 168.87 181.19 C 169.99 180.94 170.70 179.82 170.44 178.70 L 170.21 177.68 C 169.96 176.55 168.84 175.85 167.72 176.10 C 166.59 176.36 165.89 177.47 166.14 178.60 Z M 166.38 179.60 L 166.60 180.60 C 166.85 181.72 167.95 182.43 169.07 182.19 C 170.19 181.94 170.90 180.84 170.65 179.72 L 170.43 178.71 C 170.19 177.60 169.08 176.89 167.97 177.13 C 166.85 177.38 166.14 178.48 166.38 179.60 Z M 166.61 180.59 L 166.81 181.53 C 167.04 182.65 168.14 183.36 169.26 183.12 C 170.37 182.89 171.08 181.79 170.85 180.68 L 170.65 179.73 C 170.41 178.62 169.31 177.91 168.20 178.14 C 167.08 178.38 166.37 179.48 166.61 180.59 Z M 166.81 181.52 L 167.02 182.53 C 167.25 183.64 168.34 184.35 169.45 184.12 C 170.56 183.89 171.28 182.80 171.05 181.69 L 170.84 180.69 C 170.61 179.57 169.52 178.86 168.41 179.09 C 167.30 179.32 166.58 180.41 166.81 181.52 Z M 167.02 182.52 L 167.23 183.55 C 167.46 184.66 168.54 185.38 169.65 185.15 C 170.76 184.93 171.48 183.85 171.26 182.74 L 171.05 181.70 C 170.82 180.59 169.74 179.87 168.63 180.10 C 167.52 180.32 166.80 181.40 167.02 182.52 Z M 167.24 183.54 L 167.44 184.56 C 167.66 185.67 168.73 186.40 169.84 186.18 C 170.95 185.96 171.67 184.88 171.45 183.78 L 171.25 182.75 C 171.03 181.64 169.96 180.92 168.85 181.13 C 167.74 181.35 167.02 182.43 167.24 183.54 Z M 167.44 184.55 L 167.63 185.54 C 167.84 186.65 168.91 187.37 170.01 187.16 C 171.12 186.95 171.85 185.89 171.64 184.78 L 171.45 183.79 C 171.24 182.68 170.17 181.96 169.07 182.17 C 167.96 182.38 167.23 183.44 167.44 184.55 Z M 167.64 185.52 L 167.82 186.53 C 168.02 187.63 169.07 188.36 170.17 188.16 C 171.28 187.96 172.01 186.91 171.81 185.81 L 171.63 184.80 C 171.43 183.70 170.38 182.96 169.27 183.16 C 168.17 183.36 167.44 184.42 167.64 185.52 Z M 167.85 186.49 L 168.04 187.64 C 168.22 188.73 169.25 189.46 170.33 189.28 C 171.42 189.10 172.15 188.07 171.97 186.99 L 171.78 185.84 C 171.60 184.76 170.57 184.02 169.49 184.20 C 168.40 184.38 167.67 185.41 167.85 186.49 Z M 168.09 187.60 L 168.24 188.61 C 168.40 189.66 169.39 190.39 170.44 190.23 C 171.50 190.07 172.23 189.09 172.07 188.03 L 171.92 187.03 C 171.76 185.97 170.78 185.24 169.72 185.40 C 168.66 185.56 167.93 186.55 168.09 187.60 Z M 168.29 188.57 L 168.42 189.48 C 168.56 190.51 169.50 191.23 170.53 191.09 C 171.56 190.95 172.28 190.00 172.14 188.97 L 172.02 188.07 C 171.88 187.04 170.93 186.32 169.90 186.46 C 168.88 186.60 168.15 187.54 168.29 188.57 Z M 168.47 189.46 L 168.58 190.31 C 168.71 191.31 169.62 192.02 170.62 191.89 C 171.62 191.76 172.32 190.85 172.20 189.85 L 172.09 189.00 C 171.96 188.00 171.05 187.29 170.05 187.42 C 169.05 187.55 168.34 188.46 168.47 189.46 Z M 168.61 190.30 L 168.63 190.42 C 168.75 191.41 169.64 192.10 170.63 191.98 C 171.61 191.86 172.30 190.96 172.18 189.98 L 172.17 189.86 C 172.04 188.88 171.15 188.18 170.17 188.30 C 169.18 188.43 168.49 189.32 168.61 190.30 Z"
      fill="black"
      fill-rule="nonzero" /></svg>