<svg xmlns="http://www.w3.org/2000/svg" width="300" height="300" viewBox="0 0 300 300">
<path d="M 130.18 191.53 L 130.71 192.52 C 131.27 193.56 132.58 193.95 133.62 193.39 C 134.67 192.83 135.06 191.53 134.50 190.48 L 133.97 189.49 C 133.40 188.45 132.10 188.06 131.06 188.62 C 130.01 189.18 129.62 190.48 130.18 191.53 Z M 130.96 192.90 L 131.58 193.63 C 132.36 194.54 133.72 194.64 134.63 193.87 C 135.54 193.09 135.64 191.73 134.87 190.82 L 134.25 190.10 C 133.47 189.19 132.11 189.08 131.20 189.86 C 130.29 190.63 130.19 192.00 130.96 192.90 Z M 132.64 194.32 L 133.39 194.52 C 134.54 194.85 135.74 194.17 136.06 193.01 C 136.38 191.86 135.70 190.66 134.55 190.34 L 133.81 190.13 C 132.65 189.81 131.45 190.49 131.13 191.64 C 130.81 192.80 131.49 194.00 132.64 194.32 Z M 134.67 194.49 L 135.46 194.22 C 136.60 193.83 137.21 192.59 136.82 191.46 C 136.43 190.32 135.19 189.71 134.06 190.10 L 133.26 190.37 C 132.13 190.76 131.52 192.00 131.91 193.14 C 132.30 194.27 133.53 194.88 134.67 194.49 Z M 135.95 193.98 L 136.83 193.40 C 137.84 192.75 138.12 191.40 137.46 190.39 C 136.80 189.39 135.45 189.11 134.45 189.76 L 133.57 190.34 C 132.56 191.00 132.28 192.35 132.94 193.35 C 133.60 194.36 134.95 194.64 135.95 193.98 Z M 137.02 193.26 L 137.93 192.52 C 138.86 191.75 138.99 190.38 138.23 189.46 C 137.46 188.53 136.09 188.40 135.16 189.16 L 134.26 189.91 C 133.33 190.67 133.20 192.04 133.96 192.97 C 134.73 193.89 136.10 194.03 137.02 193.26 Z M 138.00 192.45 L 138.70 191.82 C 139.59 191.01 139.66 189.64 138.85 188.75 C 138.05 187.86 136.68 187.79 135.79 188.60 L 135.09 189.23 C 134.20 190.03 134.13 191.41 134.94 192.29 C 135.74 193.18 137.11 193.25 138.00 192.45 Z M 138.75 191.76 L 139.45 191.09 C 140.31 190.25 140.33 188.88 139.49 188.02 C 138.66 187.17 137.29 187.15 136.43 187.98 L 135.74 188.65 C 134.88 189.49 134.86 190.86 135.69 191.72 C 136.52 192.57 137.89 192.59 138.75 191.76 Z M 139.50 191.03 L 140.20 190.30 C 141.02 189.44 140.99 188.07 140.13 187.25 C 139.27 186.42 137.90 186.45 137.08 187.31 L 136.38 188.04 C 135.56 188.90 135.58 190.26 136.44 191.09 C 137.30 191.92 138.67 191.89 139.50 191.03 Z M 140.24 190.24 L 140.95 189.45 C 141.74 188.56 141.67 187.20 140.78 186.41 C 139.89 185.61 138.53 185.69 137.74 186.58 L 137.03 187.37 C 136.24 188.25 136.32 189.62 137.20 190.41 C 138.09 191.20 139.45 191.13 140.24 190.24 Z M 140.99 189.39 L 141.63 188.63 C 142.40 187.72 142.28 186.36 141.37 185.60 C 140.46 184.84 139.11 184.96 138.35 185.87 L 137.70 186.63 C 136.94 187.54 137.06 188.89 137.97 189.66 C 138.87 190.42 140.23 190.30 140.99 189.39 Z M 141.66 188.58 L 142.28 187.80 C 143.02 186.88 142.87 185.53 141.95 184.79 C 141.03 184.06 139.68 184.21 138.95 185.13 L 138.32 185.91 C 137.58 186.83 137.73 188.18 138.66 188.91 C 139.58 189.65 140.92 189.50 141.66 188.58 Z M 142.30 187.76 L 142.92 186.95 C 143.64 186.02 143.46 184.69 142.53 183.97 C 141.60 183.25 140.27 183.43 139.55 184.36 L 138.93 185.17 C 138.21 186.10 138.39 187.43 139.32 188.15 C 140.25 188.86 141.59 188.69 142.30 187.76 Z M 142.94 186.92 L 143.54 186.10 C 144.24 185.16 144.04 183.84 143.10 183.14 C 142.17 182.44 140.84 182.64 140.14 183.58 L 139.54 184.39 C 138.84 185.33 139.04 186.66 139.97 187.35 C 140.91 188.05 142.24 187.86 142.94 186.92 Z M 143.55 186.07 L 144.13 185.27 C 144.81 184.32 144.60 183.01 143.65 182.33 C 142.71 181.65 141.39 181.86 140.71 182.80 L 140.13 183.61 C 139.45 184.55 139.67 185.87 140.61 186.55 C 141.55 187.23 142.87 187.02 143.55 186.07 Z M 144.14 185.24 L 144.74 184.38 C 145.40 183.43 145.17 182.13 144.22 181.46 C 143.27 180.80 141.97 181.03 141.30 181.98 L 140.70 182.83 C 140.04 183.78 140.27 185.09 141.22 185.75 C 142.17 186.42 143.48 186.19 144.14 185.24 Z M 144.75 184.35 L 145.32 183.50 C 145.97 182.55 145.72 181.26 144.76 180.61 C 143.81 179.96 142.51 180.21 141.87 181.16 L 141.29 182.01 C 140.65 182.96 140.90 184.26 141.85 184.91 C 142.80 185.55 144.10 185.30 144.75 184.35 Z M 145.33 183.47 L 145.87 182.65 C 146.50 181.69 146.23 180.41 145.27 179.78 C 144.32 179.15 143.03 179.41 142.40 180.37 L 141.86 181.20 C 141.23 182.15 141.50 183.44 142.46 184.07 C 143.41 184.70 144.70 184.43 145.33 183.47 Z M 145.87 182.62 L 146.39 181.80 C 147.00 180.84 146.72 179.57 145.76 178.96 C 144.80 178.34 143.53 178.63 142.92 179.59 L 142.40 180.40 C 141.78 181.36 142.07 182.64 143.03 183.25 C 143.99 183.86 145.26 183.58 145.87 182.62 Z M 146.40 181.77 L 146.91 180.95 C 147.51 179.98 147.21 178.72 146.25 178.12 C 145.28 177.53 144.02 177.82 143.42 178.79 L 142.91 179.61 C 142.32 180.58 142.61 181.84 143.57 182.44 C 144.54 183.03 145.80 182.74 146.40 181.77 Z M 146.91 180.92 L 147.43 180.06 C 148.01 179.10 147.71 177.85 146.74 177.26 C 145.78 176.68 144.52 176.99 143.94 177.95 L 143.42 178.81 C 142.84 179.78 143.15 181.03 144.11 181.61 C 145.08 182.20 146.33 181.89 146.91 180.92 Z M 147.44 180.04 L 147.94 179.18 C 148.51 178.21 148.19 176.97 147.23 176.40 C 146.26 175.83 145.01 176.15 144.44 177.11 L 143.93 177.98 C 143.36 178.94 143.69 180.19 144.65 180.76 C 145.62 181.33 146.87 181.01 147.44 180.04 Z M 147.95 179.16 L 148.45 178.29 C 149.01 177.33 148.67 176.09 147.71 175.53 C 146.74 174.97 145.50 175.30 144.94 176.27 L 144.44 177.13 C 143.88 178.10 144.21 179.34 145.18 179.90 C 146.15 180.46 147.39 180.13 147.95 179.16 Z M 148.45 178.27 L 148.94 177.41 C 149.49 176.44 149.15 175.21 148.18 174.66 C 147.21 174.11 145.98 174.45 145.43 175.42 L 144.94 176.29 C 144.39 177.26 144.73 178.49 145.70 179.03 C 146.67 179.58 147.90 179.24 148.45 178.27 Z M 148.94 177.39 L 149.42 176.52 C 149.96 175.55 149.62 174.33 148.65 173.79 C 147.68 173.25 146.46 173.60 145.92 174.56 L 145.43 175.44 C 144.90 176.40 145.24 177.63 146.21 178.16 C 147.18 178.70 148.40 178.36 148.94 177.39 Z M 149.42 176.50 L 149.90 175.62 C 150.43 174.66 150.08 173.45 149.11 172.92 C 148.15 172.39 146.93 172.74 146.40 173.71 L 145.92 174.58 C 145.39 175.55 145.75 176.76 146.71 177.29 C 147.68 177.82 148.89 177.46 149.42 176.50 Z M 149.90 175.61 L 150.37 174.73 C 150.89 173.77 150.53 172.56 149.57 172.04 C 148.61 171.52 147.40 171.88 146.88 172.84 L 146.41 173.72 C 145.89 174.69 146.25 175.89 147.21 176.41 C 148.17 176.93 149.38 176.57 149.90 175.61 Z M 150.37 174.72 L 150.84 173.83 C 151.35 172.87 150.99 171.68 150.03 171.16 C 149.07 170.65 147.87 171.01 147.36 171.97 L 146.89 172.86 C 146.38 173.82 146.74 175.01 147.70 175.53 C 148.66 176.04 149.85 175.68 150.37 174.72 Z M 150.84 173.82 L 151.31 172.92 C 151.82 171.96 151.45 170.78 150.49 170.27 C 149.53 169.76 148.35 170.13 147.84 171.09 L 147.37 171.98 C 146.86 172.94 147.23 174.13 148.18 174.64 C 149.14 175.14 150.33 174.78 150.84 173.82 Z M 151.31 172.91 L 151.78 172.01 C 152.28 171.05 151.91 169.87 150.95 169.37 C 149.99 168.87 148.81 169.24 148.31 170.20 L 147.84 171.10 C 147.34 172.06 147.71 173.24 148.67 173.74 C 149.63 174.24 150.81 173.87 151.31 172.91 Z M 151.78 171.99 L 152.24 171.10 C 152.73 170.14 152.35 168.97 151.39 168.48 C 150.43 167.99 149.26 168.37 148.77 169.32 L 148.31 170.22 C 147.82 171.17 148.20 172.35 149.15 172.84 C 150.11 173.33 151.29 172.95 151.78 171.99 Z M 152.24 171.08 L 152.68 170.21 C 153.16 169.25 152.77 168.08 151.81 167.60 C 150.85 167.12 149.69 167.51 149.21 168.46 L 148.77 169.34 C 148.28 170.30 148.67 171.47 149.63 171.95 C 150.59 172.43 151.76 172.04 152.24 171.08 Z M 152.68 170.18 L 153.14 169.25 C 153.60 168.29 153.20 167.13 152.24 166.66 C 151.28 166.20 150.12 166.60 149.65 167.56 L 149.20 168.49 C 148.73 169.45 149.13 170.61 150.09 171.08 C 151.06 171.54 152.21 171.14 152.68 170.18 Z M 153.14 169.23 L 153.58 168.29 C 154.03 167.33 153.62 166.18 152.66 165.73 C 151.69 165.27 150.54 165.68 150.09 166.65 L 149.65 167.58 C 149.19 168.55 149.61 169.70 150.57 170.15 C 151.54 170.60 152.68 170.19 153.14 169.23 Z M 153.58 168.27 L 153.99 167.38 C 154.44 166.41 154.02 165.27 153.05 164.83 C 152.09 164.38 150.94 164.81 150.50 165.77 L 150.09 166.67 C 149.64 167.63 150.07 168.77 151.03 169.22 C 152.00 169.66 153.14 169.24 153.58 168.27 Z M 153.99 167.37 L 154.38 166.51 C 154.82 165.55 154.39 164.41 153.42 163.97 C 152.46 163.54 151.32 163.97 150.89 164.93 L 150.50 165.78 C 150.06 166.75 150.49 167.89 151.46 168.32 C 152.42 168.76 153.56 168.33 153.99 167.37 Z M 154.38 166.50 L 154.75 165.67 C 155.18 164.70 154.74 163.57 153.78 163.14 C 152.81 162.71 151.68 163.15 151.26 164.11 L 150.89 164.94 C 150.46 165.91 150.89 167.04 151.86 167.47 C 152.82 167.90 153.95 167.46 154.38 166.50 Z M 154.77 165.62 L 155.12 164.76 C 155.52 163.78 155.06 162.67 154.09 162.26 C 153.11 161.86 152.00 162.33 151.60 163.30 L 151.24 164.16 C 150.84 165.14 151.30 166.25 152.27 166.65 C 153.25 167.06 154.36 166.59 154.77 165.62 Z M 155.15 164.68 L 155.50 163.71 C 155.86 162.72 155.35 161.63 154.36 161.27 C 153.37 160.91 152.28 161.42 151.92 162.41 L 151.57 163.38 C 151.21 164.37 151.72 165.46 152.71 165.82 C 153.70 166.18 154.79 165.67 155.15 164.68 Z M 155.53 163.62 L 155.87 162.52 C 156.18 161.52 155.62 160.45 154.61 160.14 C 153.61 159.83 152.54 160.39 152.23 161.40 L 151.89 162.50 C 151.58 163.50 152.14 164.57 153.15 164.88 C 154.15 165.19 155.22 164.63 155.53 163.62 Z M 155.91 162.45 L 156.20 161.34 C 156.46 160.31 155.85 159.26 154.82 159.00 C 153.80 158.73 152.75 159.34 152.48 160.37 L 152.19 161.48 C 151.92 162.50 152.54 163.55 153.56 163.82 C 154.59 164.09 155.64 163.47 155.91 162.45 Z M 156.25 161.24 L 156.47 160.13 C 156.68 159.08 156.00 158.05 154.95 157.84 C 153.89 157.63 152.86 158.31 152.65 159.36 L 152.43 160.47 C 152.22 161.52 152.90 162.55 153.95 162.76 C 155.01 162.98 156.04 162.29 156.25 161.24 Z M 156.53 159.95 L 156.62 158.98 C 156.73 157.89 155.94 156.92 154.86 156.81 C 153.77 156.70 152.80 157.49 152.69 158.58 L 152.60 159.55 C 152.49 160.63 153.28 161.60 154.36 161.71 C 155.45 161.82 156.42 161.03 156.53 159.95 Z M 156.65 158.54 L 156.56 157.84 C 156.43 156.74 155.44 155.96 154.34 156.09 C 153.24 156.22 152.46 157.21 152.59 158.31 L 152.67 159.01 C 152.80 160.11 153.80 160.90 154.90 160.76 C 155.99 160.63 156.78 159.64 156.65 158.54 Z M 155.62 156.34 L 155.01 155.98 C 154.06 155.40 152.81 155.71 152.24 156.67 C 151.66 157.63 151.97 158.87 152.93 159.45 L 153.53 159.81 C 154.49 160.39 155.73 160.08 156.31 159.12 C 156.89 158.16 156.58 156.92 155.62 156.34 Z M 153.12 155.86 L 152.20 156.28 C 151.17 156.75 150.72 157.96 151.19 158.98 C 151.66 160.01 152.87 160.46 153.89 159.99 L 154.82 159.57 C 155.84 159.10 156.29 157.89 155.83 156.86 C 155.36 155.84 154.15 155.39 153.12 155.86 Z M 151.64 156.64 L 150.83 157.41 C 150.00 158.18 149.96 159.48 150.74 160.31 C 151.51 161.13 152.81 161.17 153.64 160.39 L 154.45 159.63 C 155.28 158.85 155.32 157.55 154.54 156.73 C 153.76 155.90 152.46 155.86 151.64 156.64 Z M 150.54 157.74 L 149.98 158.55 C 149.34 159.49 149.58 160.76 150.51 161.40 C 151.44 162.05 152.72 161.81 153.36 160.88 L 153.92 160.06 C 154.56 159.13 154.33 157.85 153.39 157.21 C 152.46 156.57 151.18 156.81 150.54 157.74 Z M 149.83 158.83 L 149.40 159.73 C 148.91 160.75 149.34 161.97 150.36 162.46 C 151.37 162.95 152.59 162.52 153.08 161.50 L 153.51 160.60 C 154.00 159.58 153.57 158.36 152.56 157.87 C 151.54 157.38 150.32 157.81 149.83 158.83 Z M 149.32 159.94 L 148.99 160.88 C 148.61 161.94 149.17 163.11 150.23 163.48 C 151.30 163.85 152.46 163.29 152.83 162.23 L 153.16 161.29 C 153.53 160.23 152.97 159.07 151.91 158.70 C 150.85 158.32 149.69 158.88 149.32 159.94 Z M 148.95 161.03 L 148.70 161.95 C 148.41 163.04 149.05 164.15 150.14 164.44 C 151.22 164.73 152.33 164.09 152.63 163.00 L 152.87 162.08 C 153.16 161.00 152.52 159.89 151.43 159.59 C 150.35 159.30 149.24 159.95 148.95 161.03 Z M 148.68 162.07 L 148.48 163.04 C 148.25 164.13 148.95 165.21 150.05 165.43 C 151.15 165.66 152.22 164.96 152.45 163.86 L 152.65 162.89 C 152.87 161.79 152.17 160.72 151.07 160.49 C 149.98 160.27 148.90 160.97 148.68 162.07 Z M 148.46 163.12 L 148.29 164.16 C 148.11 165.26 148.86 166.30 149.97 166.48 C 151.07 166.66 152.11 165.92 152.29 164.81 L 152.46 163.77 C 152.64 162.67 151.89 161.63 150.79 161.45 C 149.68 161.27 148.64 162.02 148.46 163.12 Z M 148.29 164.21 L 148.16 165.15 C 148.01 166.25 148.78 167.27 149.89 167.42 C 151.00 167.58 152.02 166.80 152.17 165.70 L 152.30 164.76 C 152.45 163.66 151.67 162.63 150.57 162.48 C 149.46 162.33 148.44 163.10 148.29 164.21 Z M 148.15 165.18 L 148.04 166.13 C 147.91 167.24 148.70 168.25 149.81 168.38 C 150.92 168.51 151.93 167.72 152.06 166.61 L 152.18 165.66 C 152.31 164.55 151.51 163.54 150.40 163.41 C 149.29 163.28 148.28 164.07 148.15 165.18 Z M 148.03 166.17 L 147.93 167.17 C 147.82 168.29 148.63 169.28 149.75 169.39 C 150.86 169.51 151.86 168.69 151.97 167.58 L 152.07 166.57 C 152.18 165.46 151.37 164.46 150.25 164.35 C 149.14 164.24 148.14 165.05 148.03 166.17 Z M 147.92 167.21 L 147.84 168.27 C 147.75 169.39 148.58 170.37 149.70 170.46 C 150.82 170.55 151.80 169.72 151.89 168.60 L 151.98 167.54 C 152.07 166.42 151.24 165.44 150.12 165.35 C 149.00 165.26 148.02 166.09 147.92 167.21 Z M 147.83 168.30 L 147.77 169.32 C 147.69 170.44 148.54 171.41 149.67 171.49 C 150.79 171.56 151.76 170.71 151.83 169.59 L 151.90 168.57 C 151.97 167.44 151.12 166.47 150.00 166.40 C 148.87 166.33 147.90 167.18 147.83 168.30 Z M 147.76 169.35 L 147.71 170.32 C 147.65 171.45 148.52 172.40 149.65 172.46 C 150.77 172.52 151.73 171.65 151.79 170.53 L 151.83 169.56 C 151.89 168.43 151.03 167.47 149.90 167.42 C 148.78 167.36 147.82 168.22 147.76 169.35 Z M 147.71 170.34 L 147.67 171.34 C 147.62 172.47 148.50 173.42 149.63 173.46 C 150.76 173.51 151.71 172.63 151.75 171.50 L 151.79 170.50 C 151.83 169.38 150.96 168.43 149.83 168.38 C 148.70 168.34 147.75 169.22 147.71 170.34 Z M 147.66 171.36 L 147.63 172.37 C 147.60 173.50 148.49 174.45 149.62 174.48 C 150.75 174.51 151.69 173.62 151.72 172.49 L 151.75 171.48 C 151.79 170.35 150.90 169.41 149.77 169.37 C 148.64 169.34 147.70 170.23 147.66 171.36 Z M 147.63 172.39 L 147.61 173.41 C 147.58 174.55 148.48 175.48 149.61 175.51 C 150.74 175.53 151.68 174.64 151.71 173.50 L 151.73 172.48 C 151.75 171.35 150.86 170.41 149.72 170.39 C 148.59 170.36 147.65 171.26 147.63 172.39 Z M 147.61 173.43 L 147.59 174.47 C 147.57 175.60 148.48 176.53 149.61 176.55 C 150.74 176.57 151.68 175.66 151.69 174.53 L 151.71 173.49 C 151.73 172.36 150.82 171.42 149.69 171.41 C 148.56 171.39 147.62 172.30 147.61 173.43 Z M 147.59 174.48 L 147.58 175.52 C 147.57 176.66 148.48 177.59 149.61 177.60 C 150.74 177.61 151.67 176.70 151.68 175.56 L 151.69 174.52 C 151.71 173.38 150.80 172.46 149.66 172.45 C 148.53 172.43 147.60 173.34 147.59 174.48 Z M 147.58 175.53 L 147.57 176.56 C 147.57 177.69 148.48 178.62 149.61 178.62 C 150.75 178.63 151.67 177.72 151.68 176.58 L 151.68 175.56 C 151.69 174.42 150.78 173.50 149.64 173.49 C 148.51 173.48 147.58 174.40 147.58 175.53 Z M 147.57 176.57 L 147.57 177.56 C 147.57 178.70 148.48 179.62 149.62 179.62 C 150.75 179.62 151.67 178.71 151.68 177.57 L 151.68 176.58 C 151.68 175.44 150.76 174.52 149.63 174.52 C 148.50 174.52 147.58 175.43 147.57 176.57 Z M 147.57 177.57 L 147.57 178.52 C 147.57 179.66 148.49 180.58 149.62 180.58 C 150.75 180.58 151.67 179.66 151.67 178.52 L 151.68 177.57 C 151.68 176.44 150.76 175.52 149.62 175.52 C 148.49 175.52 147.57 176.43 147.57 177.57 Z M 147.57 178.52 L 147.57 179.51 C 147.57 180.64 148.49 181.56 149.62 181.56 C 150.76 181.56 151.67 180.64 151.67 179.51 L 151.67 178.52 C 151.67 177.39 150.75 176.47 149.62 176.47 C 148.49 176.47 147.57 177.39 147.57 178.52 Z M 147.58 179.53 L 147.59 180.55 C 147.60 181.68 148.52 182.59 149.65 182.57 C 150.78 182.56 151.69 181.64 151.68 180.51 L 151.67 179.49 C 151.66 178.36 150.73 177.45 149.60 177.46 C 148.47 177.47 147.57 178.40 147.58 179.53 Z M 147.60 180.61 L 147.63 181.59 C 147.68 182.71 148.63 183.59 149.75 183.54 C 150.88 183.50 151.75 182.55 151.71 181.42 L 151.67 180.45 C 151.62 179.32 150.67 178.45 149.55 178.49 C 148.42 178.54 147.55 179.49 147.60 180.61 Z M 147.65 181.69 L 147.74 182.66 C 147.84 183.78 148.83 184.60 149.95 184.50 C 151.06 184.39 151.89 183.40 151.78 182.29 L 151.69 181.32 C 151.59 180.20 150.60 179.38 149.49 179.48 C 148.37 179.59 147.55 180.57 147.65 181.69 Z M 147.76 182.79 L 147.92 183.76 C 148.09 184.87 149.13 185.62 150.23 185.44 C 151.34 185.27 152.09 184.23 151.91 183.13 L 151.76 182.15 C 151.58 181.05 150.55 180.30 149.44 180.48 C 148.34 180.65 147.59 181.69 147.76 182.79 Z M 147.96 183.89 L 148.18 184.86 C 148.42 185.94 149.50 186.62 150.58 186.37 C 151.66 186.13 152.34 185.05 152.10 183.97 L 151.88 183.00 C 151.63 181.92 150.55 181.24 149.47 181.48 C 148.39 181.73 147.71 182.81 147.96 183.89 Z M 148.22 184.96 L 148.50 185.94 C 148.81 187.00 149.91 187.61 150.97 187.30 C 152.03 187.00 152.64 185.89 152.33 184.83 L 152.05 183.86 C 151.75 182.80 150.64 182.19 149.58 182.50 C 148.53 182.80 147.91 183.91 148.22 184.96 Z M 148.55 186.04 L 148.88 186.99 C 149.24 188.03 150.37 188.57 151.40 188.21 C 152.43 187.86 152.98 186.73 152.62 185.70 L 152.29 184.74 C 151.93 183.71 150.80 183.16 149.77 183.52 C 148.74 183.88 148.19 185.00 148.55 186.04 Z M 148.93 187.09 L 149.31 188.01 C 149.72 189.01 150.87 189.49 151.87 189.08 C 152.87 188.67 153.35 187.52 152.94 186.52 L 152.57 185.60 C 152.16 184.60 151.01 184.12 150.01 184.53 C 149.00 184.94 148.52 186.09 148.93 187.09 Z M 149.39 188.12 L 149.85 189.04 C 150.32 190.00 151.48 190.40 152.44 189.93 C 153.39 189.45 153.79 188.30 153.32 187.34 L 152.86 186.41 C 152.39 185.45 151.23 185.06 150.27 185.53 C 149.31 186.00 148.92 187.16 149.39 188.12 Z M 149.99 189.21 L 150.52 190.04 C 151.09 190.92 152.26 191.18 153.14 190.62 C 154.02 190.05 154.27 188.88 153.71 188.00 L 153.18 187.17 C 152.61 186.29 151.44 186.03 150.56 186.60 C 149.68 187.16 149.42 188.33 149.99 189.21 Z M 150.74 190.26 L 151.38 190.98 C 152.07 191.74 153.24 191.81 154.00 191.13 C 154.76 190.44 154.82 189.27 154.14 188.51 L 153.49 187.79 C 152.81 187.03 151.64 186.96 150.88 187.64 C 150.12 188.33 150.05 189.50 150.74 190.26 Z M 151.68 191.19 L 152.47 191.79 C 153.26 192.39 154.40 192.23 155.00 191.43 C 155.60 190.63 155.44 189.49 154.64 188.89 L 153.85 188.30 C 153.05 187.70 151.92 187.86 151.32 188.66 C 150.71 189.46 150.88 190.59 151.68 191.19 Z M 152.76 191.93 L 153.56 192.33 C 154.44 192.77 155.51 192.42 155.95 191.54 C 156.39 190.67 156.04 189.60 155.16 189.16 L 154.35 188.75 C 153.48 188.31 152.41 188.67 151.97 189.54 C 151.53 190.42 151.88 191.49 152.76 191.93 Z M 153.77 192.39 L 154.68 192.72 C 155.58 193.05 156.58 192.58 156.91 191.68 C 157.24 190.77 156.78 189.77 155.87 189.44 L 154.96 189.11 C 154.05 188.78 153.05 189.24 152.72 190.15 C 152.39 191.06 152.86 192.06 153.77 192.39 Z M 154.81 192.73 L 155.79 193.01 C 156.71 193.26 157.65 192.73 157.91 191.82 C 158.17 190.91 157.63 189.96 156.72 189.70 L 155.74 189.43 C 154.83 189.17 153.88 189.70 153.62 190.61 C 153.37 191.53 153.90 192.47 154.81 192.73 Z M 155.87 192.99 L 156.90 193.24 C 157.81 193.45 158.71 192.89 158.93 191.99 C 159.14 191.08 158.58 190.17 157.68 189.96 L 156.65 189.72 C 155.74 189.50 154.83 190.06 154.62 190.97 C 154.40 191.87 154.97 192.78 155.87 192.99 Z M 156.93 193.22 L 157.58 193.36 C 158.47 193.56 159.36 192.99 159.56 192.10 C 159.75 191.20 159.19 190.32 158.29 190.12 L 157.65 189.98 C 156.75 189.78 155.86 190.35 155.67 191.24 C 155.47 192.14 156.04 193.02 156.93 193.22 Z"
      fill="black"
      fill-rule="nonzero" /><path d="M 144.21 130.90 L 144.80 131.68 C 145.44 132.54 146.66 132.71 147.52 132.07 C 148.38 131.43 148.56 130.21 147.91 129.35 L 147.33 128.57 C 146.69 127.71 145.47 127.53 144.61 128.18 C 143.75 128.82 143.57 130.03 144.21 130.90 Z M 144.67 131.73 L 145.24 132.53 C 145.91 133.46 147.21 133.68 148.14 133.01 C 149.08 132.34 149.29 131.04 148.62 130.11 L 148.04 129.30 C 147.38 128.37 146.08 128.16 145.14 128.83 C 144.21 129.49 144.00 130.79 144.67 131.73 Z M 145.09 132.55 L 145.66 133.40 C 146.33 134.42 147.71 134.69 148.73 134.02 C 149.74 133.34 150.02 131.97 149.34 130.95 L 148.78 130.09 C 148.10 129.08 146.73 128.80 145.71 129.48 C 144.69 130.15 144.41 131.53 145.09 132.55 Z M 145.56 133.35 L 146.05 134.16 C 146.70 135.23 148.09 135.58 149.17 134.93 C 150.24 134.28 150.58 132.88 149.94 131.81 L 149.44 131.00 C 148.80 129.93 147.40 129.58 146.33 130.23 C 145.25 130.88 144.91 132.27 145.56 133.35 Z M 146.04 134.08 L 146.51 134.93 C 147.12 136.00 148.48 136.39 149.56 135.79 C 150.64 135.18 151.02 133.82 150.42 132.74 L 149.94 131.89 C 149.34 130.82 147.98 130.43 146.90 131.03 C 145.82 131.64 145.44 133.00 146.04 134.08 Z M 146.53 134.86 L 147.01 135.76 C 147.58 136.83 148.90 137.24 149.97 136.67 C 151.04 136.11 151.44 134.78 150.88 133.71 L 150.40 132.81 C 149.83 131.74 148.51 131.33 147.44 131.90 C 146.37 132.47 145.97 133.79 146.53 134.86 Z M 147.04 135.72 L 147.52 136.66 C 148.06 137.71 149.36 138.13 150.41 137.59 C 151.46 137.05 151.88 135.75 151.34 134.70 L 150.85 133.76 C 150.31 132.70 149.02 132.29 147.96 132.83 C 146.91 133.37 146.50 134.67 147.04 135.72 Z M 147.52 136.65 L 147.97 137.53 C 148.51 138.58 149.80 139.00 150.85 138.47 C 151.90 137.93 152.32 136.64 151.78 135.59 L 151.34 134.71 C 150.80 133.66 149.51 133.24 148.46 133.77 C 147.41 134.31 146.99 135.60 147.52 136.65 Z M 147.95 137.55 L 148.41 138.45 C 148.95 139.51 150.26 139.93 151.33 139.39 C 152.39 138.84 152.81 137.54 152.27 136.47 L 151.81 135.57 C 151.26 134.51 149.95 134.08 148.89 134.63 C 147.82 135.18 147.40 136.48 147.95 137.55 Z M 148.39 138.48 L 148.86 139.37 C 149.42 140.45 150.75 140.87 151.82 140.30 C 152.90 139.74 153.32 138.42 152.75 137.34 L 152.29 136.44 C 151.72 135.37 150.40 134.95 149.32 135.51 C 148.25 136.07 147.83 137.40 148.39 138.48 Z M 148.85 139.41 L 149.32 140.29 C 149.90 141.37 151.25 141.78 152.34 141.19 C 153.42 140.61 153.82 139.26 153.24 138.18 L 152.76 137.30 C 152.18 136.22 150.83 135.81 149.75 136.40 C 148.67 136.98 148.26 138.33 148.85 139.41 Z M 149.33 140.34 L 149.84 141.24 C 150.45 142.31 151.81 142.69 152.89 142.08 C 153.97 141.48 154.35 140.11 153.74 139.03 L 153.23 138.13 C 152.62 137.05 151.25 136.67 150.18 137.28 C 149.10 137.89 148.72 139.26 149.33 140.34 Z M 149.86 141.27 L 150.37 142.14 C 151.00 143.21 152.37 143.56 153.44 142.93 C 154.51 142.30 154.86 140.93 154.23 139.86 L 153.72 138.99 C 153.09 137.93 151.71 137.57 150.65 138.20 C 149.58 138.83 149.23 140.21 149.86 141.27 Z M 150.38 142.17 L 150.90 143.01 C 151.54 144.06 152.92 144.40 153.98 143.76 C 155.04 143.11 155.37 141.73 154.73 140.68 L 154.22 139.83 C 153.57 138.78 152.19 138.44 151.13 139.08 C 150.08 139.73 149.74 141.11 150.38 142.17 Z M 150.90 143.02 L 151.41 143.84 C 152.06 144.89 153.44 145.22 154.49 144.57 C 155.55 143.91 155.87 142.53 155.22 141.48 L 154.72 140.66 C 154.07 139.61 152.69 139.28 151.63 139.93 C 150.58 140.58 150.25 141.97 150.90 143.02 Z"
      fill="black"
      fill-rule="nonzero" /></svg>