<svg xmlns="http://www.w3.org/2000/svg" width="300" height="300" viewBox="0 0 300 300">
<path d="M 134.70 175.37 L 134.97 174.12 C 135.19 173.09 134.53 172.08 133.51 171.86 C 132.48 171.64 131.47 172.30 131.25 173.32 L 130.98 174.57 C 130.76 175.60 131.42 176.61 132.44 176.83 C 133.47 177.05 134.49 176.40 134.70 175.37 Z M 135.03 174.57 L 135.38 173.78 C 135.85 172.72 135.37 171.48 134.31 171.01 C 133.25 170.54 132.01 171.02 131.54 172.08 L 131.19 172.87 C 130.72 173.93 131.20 175.17 132.26 175.64 C 133.32 176.11 134.56 175.63 135.03 174.57 Z M 133.24 175.16 L 133.71 175.20 C 134.94 175.32 136.03 174.42 136.15 173.19 C 136.27 171.96 135.37 170.87 134.14 170.75 L 133.68 170.70 C 132.45 170.58 131.35 171.48 131.23 172.71 C 131.11 173.94 132.01 175.04 133.24 175.16 Z M 132.11 174.36 L 132.65 175.07 C 133.42 176.08 134.85 176.28 135.85 175.51 C 136.86 174.75 137.05 173.32 136.29 172.31 L 135.74 171.59 C 134.98 170.59 133.55 170.39 132.55 171.16 C 131.54 171.92 131.34 173.35 132.11 174.36 Z M 132.45 174.76 L 133.02 175.85 C 133.61 176.97 134.99 177.39 136.11 176.81 C 137.23 176.22 137.66 174.84 137.07 173.72 L 136.50 172.63 C 135.91 171.51 134.52 171.08 133.41 171.67 C 132.29 172.26 131.86 173.64 132.45 174.76 Z M 132.96 175.72 L 133.39 176.68 C 133.90 177.84 135.26 178.35 136.41 177.84 C 137.57 177.32 138.08 175.96 137.57 174.81 L 137.13 173.85 C 136.62 172.69 135.26 172.18 134.11 172.69 C 132.95 173.21 132.44 174.56 132.96 175.72 Z M 133.35 176.61 L 133.72 177.50 C 134.19 178.67 135.53 179.23 136.70 178.76 C 137.87 178.28 138.43 176.95 137.96 175.78 L 137.60 174.89 C 137.12 173.71 135.79 173.15 134.62 173.62 C 133.44 174.10 132.88 175.44 133.35 176.61 Z M 133.70 177.45 L 134.05 178.38 C 134.50 179.56 135.82 180.16 137.00 179.71 C 138.18 179.26 138.78 177.94 138.33 176.76 L 137.98 175.83 C 137.53 174.64 136.21 174.05 135.03 174.50 C 133.85 174.94 133.25 176.26 133.70 177.45 Z M 134.04 178.35 L 134.40 179.34 C 134.83 180.53 136.14 181.14 137.33 180.71 C 138.52 180.28 139.13 178.97 138.70 177.78 L 138.34 176.79 C 137.91 175.60 136.60 174.98 135.41 175.42 C 134.22 175.85 133.61 177.16 134.04 178.35 Z M 134.40 179.33 L 134.73 180.26 C 135.16 181.45 136.46 182.07 137.65 181.65 C 138.84 181.22 139.46 179.91 139.04 178.72 L 138.70 177.79 C 138.28 176.60 136.97 175.98 135.78 176.41 C 134.59 176.83 133.97 178.14 134.40 179.33 Z M 134.73 180.26 L 135.06 181.20 C 135.49 182.39 136.79 183.02 137.98 182.59 C 139.17 182.17 139.80 180.87 139.37 179.68 L 139.04 178.73 C 138.62 177.54 137.31 176.92 136.12 177.34 C 134.93 177.76 134.31 179.07 134.73 180.26 Z M 135.06 181.19 L 135.40 182.16 C 135.82 183.35 137.12 183.98 138.31 183.56 C 139.50 183.15 140.13 181.84 139.71 180.65 L 139.37 179.69 C 138.96 178.50 137.66 177.87 136.47 178.28 C 135.28 178.70 134.65 180.00 135.06 181.19 Z M 135.40 182.14 L 135.72 183.10 C 136.13 184.29 137.43 184.93 138.62 184.52 C 139.81 184.12 140.45 182.82 140.04 181.63 L 139.72 180.67 C 139.31 179.48 138.01 178.84 136.82 179.25 C 135.63 179.65 134.99 180.95 135.40 182.14 Z M 135.72 183.08 L 136.04 184.03 C 136.43 185.23 137.72 185.88 138.92 185.48 C 140.11 185.09 140.76 183.80 140.36 182.60 L 140.05 181.65 C 139.65 180.45 138.36 179.81 137.17 180.20 C 135.97 180.60 135.32 181.89 135.72 183.08 Z M 136.03 184.01 L 136.35 185.00 C 136.73 186.20 138.00 186.86 139.20 186.48 C 140.40 186.10 141.06 184.82 140.68 183.62 L 140.37 182.63 C 139.99 181.43 138.71 180.77 137.51 181.15 C 136.31 181.53 135.65 182.81 136.03 184.01 Z M 136.34 184.98 L 136.63 185.93 C 137.00 187.13 138.27 187.80 139.47 187.43 C 140.67 187.07 141.34 185.79 140.98 184.60 L 140.69 183.64 C 140.32 182.44 139.05 181.77 137.85 182.14 C 136.65 182.51 135.97 183.78 136.34 184.98 Z M 136.63 185.91 L 136.91 186.85 C 137.27 188.04 138.54 188.72 139.74 188.36 C 140.94 188.00 141.62 186.74 141.26 185.54 L 140.98 184.61 C 140.62 183.41 139.35 182.73 138.15 183.09 C 136.95 183.45 136.27 184.71 136.63 185.91 Z M 136.92 186.84 L 137.20 187.77 C 137.55 188.97 138.82 189.65 140.01 189.29 C 141.21 188.93 141.89 187.67 141.53 186.47 L 141.25 185.54 C 140.89 184.35 139.63 183.67 138.44 184.03 C 137.24 184.38 136.56 185.64 136.92 186.84 Z M 137.20 187.78 L 137.48 188.70 C 137.84 189.90 139.10 190.57 140.30 190.21 C 141.49 189.85 142.17 188.59 141.81 187.39 L 141.53 186.47 C 141.17 185.27 139.90 184.60 138.71 184.96 C 137.52 185.32 136.84 186.58 137.20 187.78 Z M 137.49 188.71 L 137.77 189.65 C 138.14 190.84 139.40 191.51 140.59 191.15 C 141.78 190.79 142.45 189.53 142.09 188.33 L 141.80 187.39 C 141.44 186.20 140.18 185.53 138.98 185.89 C 137.79 186.25 137.12 187.51 137.49 188.71 Z M 137.78 189.65 L 138.07 190.62 C 138.44 191.81 139.70 192.48 140.89 192.11 C 142.08 191.75 142.75 190.49 142.38 189.30 L 142.09 188.33 C 141.72 187.14 140.46 186.47 139.27 186.84 C 138.08 187.20 137.41 188.46 137.78 189.65 Z M 138.08 190.62 L 138.38 191.61 C 138.75 192.80 140.01 193.46 141.20 193.10 C 142.39 192.73 143.05 191.47 142.68 190.28 L 142.38 189.29 C 142.01 188.11 140.75 187.44 139.56 187.81 C 138.38 188.17 137.71 189.43 138.08 190.62 Z M 138.39 191.61 L 138.68 192.55 C 139.04 193.74 140.30 194.40 141.49 194.04 C 142.67 193.67 143.34 192.41 142.97 191.22 L 142.68 190.28 C 142.32 189.10 141.06 188.43 139.87 188.80 C 138.68 189.17 138.02 190.43 138.39 191.61 Z M 138.68 192.55 L 138.97 193.50 C 139.33 194.68 140.59 195.35 141.77 194.99 C 142.96 194.62 143.63 193.37 143.26 192.18 L 142.97 191.23 C 142.61 190.04 141.35 189.38 140.17 189.74 C 138.98 190.10 138.31 191.36 138.68 192.55 Z M 138.97 193.48 L 139.26 194.45 C 139.61 195.64 140.86 196.31 142.05 195.95 C 143.24 195.60 143.91 194.34 143.55 193.16 L 143.27 192.19 C 142.91 191.01 141.66 190.33 140.47 190.69 C 139.28 191.05 138.61 192.30 138.97 193.48 Z M 139.25 194.43 L 139.54 195.40 C 139.88 196.59 141.13 197.27 142.32 196.93 C 143.50 196.58 144.19 195.34 143.84 194.15 L 143.56 193.18 C 143.21 191.99 141.97 191.30 140.78 191.65 C 139.59 192.00 138.91 193.24 139.25 194.43 Z M 139.53 195.37 L 139.80 196.35 C 140.13 197.54 141.37 198.24 142.56 197.91 C 143.75 197.58 144.45 196.34 144.12 195.15 L 143.85 194.17 C 143.51 192.98 142.28 192.28 141.09 192.62 C 139.90 192.95 139.20 194.18 139.53 195.37 Z M 139.80 196.32 L 140.06 197.30 C 140.37 198.50 141.60 199.21 142.79 198.89 C 143.99 198.57 144.70 197.35 144.38 196.15 L 144.12 195.18 C 143.81 193.98 142.58 193.27 141.39 193.59 C 140.19 193.90 139.48 195.13 139.80 196.32 Z M 140.06 197.29 L 140.31 198.26 C 140.62 199.45 141.84 200.17 143.03 199.86 C 144.23 199.56 144.94 198.34 144.64 197.14 L 144.38 196.17 C 144.07 194.97 142.86 194.25 141.66 194.56 C 140.47 194.87 139.75 196.09 140.06 197.29 Z M 140.31 198.26 L 140.56 199.22 C 140.86 200.41 142.08 201.13 143.27 200.83 C 144.47 200.52 145.19 199.30 144.88 198.11 L 144.63 197.15 C 144.33 195.95 143.11 195.23 141.92 195.54 C 140.72 195.84 140.00 197.06 140.31 198.26 Z M 140.56 199.23 L 140.81 200.18 C 141.12 201.37 142.34 202.09 143.53 201.78 C 144.72 201.47 145.44 200.25 145.13 199.06 L 144.88 198.10 C 144.57 196.91 143.35 196.20 142.16 196.51 C 140.96 196.82 140.25 198.04 140.56 199.23 Z M 140.82 200.20 L 141.08 201.18 C 141.40 202.36 142.63 203.06 143.81 202.74 C 145.00 202.42 145.70 201.20 145.38 200.01 L 145.12 199.04 C 144.80 197.85 143.57 197.15 142.39 197.47 C 141.20 197.79 140.50 199.02 140.82 200.20 Z M 141.09 201.19 L 141.36 202.16 C 141.69 203.35 142.92 204.04 144.10 203.70 C 145.29 203.37 145.98 202.15 145.65 200.96 L 145.37 199.99 C 145.04 198.81 143.82 198.12 142.63 198.45 C 141.45 198.78 140.76 200.01 141.09 201.19 Z M 141.36 202.17 L 141.64 203.13 C 141.97 204.31 143.20 205.00 144.38 204.66 C 145.57 204.32 146.25 203.09 145.92 201.91 L 145.64 200.95 C 145.31 199.77 144.08 199.09 142.89 199.42 C 141.71 199.76 141.03 200.99 141.36 202.17 Z M 141.64 203.13 L 141.91 204.08 C 142.24 205.26 143.47 205.95 144.65 205.61 C 145.83 205.28 146.52 204.05 146.18 202.87 L 145.91 201.91 C 145.58 200.73 144.35 200.05 143.17 200.38 C 141.99 200.72 141.30 201.95 141.64 203.13 Z M 141.91 204.07 L 142.18 205.05 C 142.51 206.23 143.73 206.92 144.91 206.59 C 146.10 206.26 146.79 205.04 146.46 203.86 L 146.19 202.88 C 145.86 201.70 144.63 201.01 143.45 201.34 C 142.27 201.66 141.58 202.89 141.91 204.07 Z M 142.18 205.03 L 142.45 206.04 C 142.77 207.22 143.99 207.92 145.17 207.60 C 146.36 207.28 147.06 206.06 146.73 204.88 L 146.46 203.87 C 146.14 202.69 144.92 201.99 143.74 202.31 C 142.55 202.63 141.86 203.85 142.18 205.03 Z M 142.45 206.03 L 142.72 207.02 C 143.04 208.20 144.25 208.90 145.43 208.58 C 146.62 208.26 147.32 207.04 147.00 205.86 L 146.73 204.88 C 146.41 203.70 145.20 203.00 144.02 203.32 C 142.83 203.64 142.13 204.85 142.45 206.03 Z M 142.72 207.02 L 142.98 207.96 C 143.30 209.14 144.51 209.84 145.69 209.51 C 146.87 209.19 147.57 207.98 147.25 206.80 L 146.99 205.86 C 146.67 204.68 145.46 203.98 144.28 204.30 C 143.10 204.63 142.40 205.84 142.72 207.02 Z M 142.98 207.98 L 143.24 208.89 C 143.57 210.06 144.79 210.75 145.97 210.42 C 147.14 210.09 147.83 208.87 147.50 207.69 L 147.24 206.78 C 146.91 205.61 145.69 204.92 144.52 205.25 C 143.34 205.58 142.65 206.80 142.98 207.98 Z M 143.25 208.93 L 143.53 209.85 C 143.89 211.01 145.12 211.67 146.29 211.32 C 147.45 210.96 148.11 209.73 147.76 208.56 L 147.48 207.65 C 147.13 206.48 145.89 205.82 144.73 206.17 C 143.56 206.53 142.90 207.76 143.25 208.93 Z M 143.56 209.93 L 143.88 210.84 C 144.28 211.99 145.54 212.60 146.69 212.19 C 147.84 211.79 148.45 210.54 148.05 209.39 L 147.73 208.48 C 147.33 207.33 146.07 206.72 144.92 207.12 C 143.77 207.52 143.16 208.78 143.56 209.93 Z M 143.92 210.94 L 144.31 211.90 C 144.77 213.03 146.06 213.57 147.19 213.11 C 148.31 212.65 148.85 211.37 148.39 210.24 L 148.00 209.28 C 147.54 208.15 146.26 207.61 145.13 208.07 C 144.00 208.53 143.46 209.82 143.92 210.94 Z M 144.36 212.01 L 144.84 213.04 C 145.36 214.14 146.67 214.62 147.77 214.10 C 148.88 213.59 149.35 212.27 148.84 211.17 L 148.35 210.14 C 147.83 209.03 146.52 208.56 145.42 209.08 C 144.32 209.59 143.84 210.91 144.36 212.01 Z M 144.89 213.15 L 145.44 214.18 C 146.02 215.26 147.36 215.67 148.44 215.09 C 149.51 214.51 149.92 213.17 149.34 212.09 L 148.79 211.06 C 148.21 209.98 146.87 209.58 145.79 210.15 C 144.72 210.73 144.31 212.07 144.89 213.15 Z M 145.52 214.34 L 146.08 215.22 C 146.75 216.25 148.12 216.55 149.16 215.89 C 150.19 215.22 150.49 213.85 149.83 212.81 L 149.26 211.94 C 148.60 210.90 147.22 210.60 146.19 211.27 C 145.15 211.93 144.85 213.31 145.52 214.34 Z M 146.32 215.54 L 146.83 216.09 C 147.67 216.99 149.08 217.05 149.99 216.20 C 150.89 215.36 150.95 213.95 150.10 213.04 L 149.59 212.49 C 148.75 211.59 147.34 211.54 146.43 212.38 C 145.53 213.22 145.47 214.63 146.32 215.54 Z M 148.27 216.81 L 148.73 216.85 C 149.97 216.96 151.06 216.05 151.17 214.81 C 151.28 213.57 150.37 212.47 149.13 212.36 L 148.66 212.32 C 147.42 212.21 146.33 213.13 146.22 214.37 C 146.11 215.61 147.03 216.70 148.27 216.81 Z M 150.84 215.85 L 151.24 215.23 C 151.93 214.17 151.63 212.76 150.57 212.08 C 149.52 211.39 148.11 211.69 147.42 212.75 L 147.02 213.37 C 146.33 214.42 146.63 215.83 147.69 216.52 C 148.74 217.20 150.15 216.90 150.84 215.85 Z M 151.49 214.79 L 151.94 213.57 C 152.38 212.38 151.77 211.06 150.58 210.61 C 149.39 210.17 148.07 210.78 147.62 211.97 L 147.17 213.19 C 146.73 214.38 147.34 215.70 148.53 216.14 C 149.72 216.59 151.05 215.98 151.49 214.79 Z M 151.97 213.54 L 152.37 212.40 C 152.79 211.20 152.16 209.87 150.95 209.45 C 149.74 209.02 148.42 209.66 147.99 210.87 L 147.59 212.00 C 147.17 213.21 147.80 214.53 149.01 214.96 C 150.22 215.38 151.54 214.75 151.97 213.54 Z M 152.37 212.43 L 152.69 211.53 C 153.13 210.33 152.51 208.99 151.30 208.55 C 150.10 208.11 148.76 208.73 148.32 209.94 L 148.00 210.84 C 147.56 212.05 148.18 213.38 149.39 213.82 C 150.59 214.26 151.93 213.64 152.37 212.43 Z M 152.69 211.55 L 153.05 210.59 C 153.50 209.38 152.88 208.04 151.67 207.59 C 150.47 207.15 149.13 207.76 148.68 208.97 L 148.32 209.93 C 147.88 211.13 148.49 212.47 149.70 212.92 C 150.91 213.37 152.25 212.75 152.69 211.55 Z M 153.05 210.60 L 153.42 209.61 C 153.87 208.40 153.26 207.06 152.05 206.60 C 150.85 206.15 149.50 206.76 149.05 207.97 L 148.68 208.96 C 148.23 210.17 148.84 211.51 150.05 211.96 C 151.25 212.41 152.60 211.80 153.05 210.60 Z M 153.42 209.61 L 153.80 208.62 C 154.25 207.41 153.64 206.07 152.43 205.61 C 151.23 205.15 149.88 205.76 149.42 206.97 L 149.05 207.96 C 148.59 209.17 149.20 210.52 150.41 210.97 C 151.62 211.43 152.97 210.82 153.42 209.61 Z M 153.80 208.62 L 154.16 207.66 C 154.62 206.45 154.01 205.10 152.80 204.64 C 151.59 204.19 150.24 204.80 149.79 206.01 L 149.42 206.97 C 148.97 208.18 149.58 209.53 150.78 209.98 C 151.99 210.44 153.34 209.83 153.80 208.62 Z M 154.17 207.66 L 154.51 206.75 C 154.96 205.54 154.35 204.19 153.14 203.73 C 151.93 203.28 150.58 203.89 150.12 205.10 L 149.78 206.01 C 149.33 207.22 149.94 208.57 151.15 209.02 C 152.36 209.48 153.71 208.87 154.17 207.66 Z M 154.51 206.74 L 154.91 205.66 C 155.36 204.45 154.74 203.10 153.53 202.65 C 152.32 202.20 150.97 202.81 150.52 204.03 L 150.12 205.11 C 149.67 206.32 150.29 207.67 151.50 208.12 C 152.71 208.57 154.06 207.95 154.51 206.74 Z M 154.91 205.64 L 155.28 204.62 C 155.72 203.41 155.10 202.07 153.89 201.63 C 152.67 201.19 151.34 201.81 150.90 203.02 L 150.52 204.04 C 150.08 205.26 150.71 206.59 151.92 207.03 C 153.13 207.48 154.47 206.85 154.91 205.64 Z M 155.28 204.60 L 155.60 203.69 C 156.03 202.48 155.39 201.16 154.18 200.73 C 152.98 200.30 151.65 200.93 151.22 202.14 L 150.90 203.05 C 150.47 204.26 151.10 205.58 152.31 206.01 C 153.52 206.44 154.85 205.81 155.28 204.60 Z M 155.60 203.67 L 155.89 202.83 C 156.30 201.62 155.66 200.30 154.45 199.89 C 153.24 199.47 151.93 200.11 151.51 201.32 L 151.22 202.16 C 150.80 203.37 151.45 204.69 152.65 205.11 C 153.86 205.52 155.18 204.88 155.60 203.67 Z M 155.88 202.81 L 156.16 201.99 C 156.57 200.78 155.92 199.47 154.71 199.07 C 153.50 198.66 152.20 199.31 151.79 200.52 L 151.51 201.34 C 151.11 202.55 151.76 203.85 152.96 204.26 C 154.17 204.67 155.48 204.02 155.88 202.81 Z M 156.15 201.97 L 156.40 201.22 C 156.80 200.02 156.15 198.72 154.95 198.32 C 153.74 197.93 152.45 198.58 152.05 199.78 L 151.80 200.53 C 151.40 201.73 152.05 203.03 153.25 203.43 C 154.46 203.83 155.75 203.18 156.15 201.97 Z M 156.39 201.22 L 156.66 200.41 C 157.05 199.21 156.41 197.92 155.21 197.53 C 154.01 197.13 152.72 197.78 152.33 198.98 L 152.06 199.79 C 151.66 200.98 152.31 202.27 153.51 202.67 C 154.70 203.07 156.00 202.42 156.39 201.22 Z M 156.65 200.41 L 156.94 199.51 C 157.34 198.32 156.70 197.04 155.51 196.64 C 154.32 196.24 153.03 196.89 152.64 198.08 L 152.34 198.98 C 151.94 200.17 152.59 201.45 153.77 201.85 C 154.96 202.24 156.25 201.60 156.65 200.41 Z M 156.93 199.52 L 157.27 198.50 C 157.67 197.32 157.04 196.03 155.86 195.64 C 154.68 195.24 153.40 195.87 153.00 197.05 L 152.65 198.07 C 152.25 199.25 152.89 200.53 154.07 200.93 C 155.25 201.33 156.53 200.70 156.93 199.52 Z M 157.26 198.50 L 157.66 197.33 C 158.06 196.16 157.44 194.88 156.27 194.48 C 155.09 194.08 153.82 194.70 153.41 195.87 L 153.01 197.05 C 152.61 198.22 153.23 199.50 154.41 199.90 C 155.58 200.30 156.86 199.68 157.26 198.50 Z M 157.65 197.34 L 157.99 196.35 C 158.40 195.19 157.78 193.91 156.62 193.51 C 155.45 193.10 154.18 193.72 153.77 194.88 L 153.43 195.87 C 153.02 197.03 153.64 198.31 154.80 198.71 C 155.97 199.12 157.24 198.50 157.65 197.34 Z M 157.98 196.36 L 158.30 195.46 C 158.71 194.30 158.10 193.02 156.94 192.61 C 155.78 192.21 154.50 192.82 154.10 193.98 L 153.78 194.88 C 153.37 196.04 153.98 197.31 155.14 197.72 C 156.30 198.13 157.57 197.52 157.98 196.36 Z M 158.29 195.46 L 158.63 194.51 C 159.04 193.35 158.43 192.08 157.28 191.67 C 156.12 191.26 154.85 191.87 154.44 193.03 L 154.10 193.97 C 153.69 195.13 154.30 196.40 155.45 196.81 C 156.61 197.22 157.88 196.62 158.29 195.46 Z M 158.62 194.51 L 158.97 193.54 C 159.38 192.38 158.78 191.11 157.63 190.70 C 156.47 190.29 155.21 190.89 154.79 192.04 L 154.44 193.02 C 154.03 194.18 154.63 195.45 155.79 195.86 C 156.94 196.27 158.21 195.67 158.62 194.51 Z M 158.97 193.54 L 159.32 192.55 C 159.74 191.40 159.14 190.13 157.99 189.72 C 156.84 189.30 155.57 189.90 155.16 191.05 L 154.80 192.04 C 154.39 193.19 154.98 194.46 156.14 194.87 C 157.29 195.29 158.55 194.69 158.97 193.54 Z M 159.32 192.55 L 159.67 191.56 C 160.09 190.41 159.49 189.15 158.35 188.73 C 157.20 188.32 155.93 188.91 155.52 190.06 L 155.16 191.05 C 154.75 192.20 155.34 193.46 156.49 193.88 C 157.64 194.29 158.90 193.70 159.32 192.55 Z M 159.67 191.56 L 160.02 190.59 C 160.43 189.45 159.84 188.19 158.70 187.77 C 157.55 187.36 156.29 187.95 155.88 189.09 L 155.52 190.06 C 155.11 191.20 155.70 192.47 156.84 192.88 C 157.99 193.30 159.25 192.71 159.67 191.56 Z M 160.01 190.60 L 160.35 189.67 C 160.77 188.53 160.18 187.26 159.04 186.85 C 157.90 186.43 156.64 187.02 156.22 188.16 L 155.88 189.09 C 155.47 190.23 156.05 191.49 157.19 191.91 C 158.33 192.32 159.60 191.74 160.01 190.60 Z M 160.34 189.67 L 160.68 188.75 C 161.10 187.62 160.52 186.36 159.38 185.94 C 158.24 185.52 156.98 186.10 156.57 187.24 L 156.23 188.16 C 155.81 189.29 156.39 190.55 157.53 190.97 C 158.67 191.39 159.93 190.80 160.34 189.67 Z M 160.66 188.75 L 161.08 187.61 C 161.50 186.48 160.93 185.23 159.80 184.82 C 158.68 184.40 157.43 184.97 157.01 186.10 L 156.59 187.24 C 156.17 188.37 156.74 189.62 157.87 190.03 C 158.99 190.45 160.24 189.88 160.66 188.75 Z M 161.05 187.61 L 161.44 186.58 C 161.85 185.47 161.29 184.24 160.18 183.82 C 159.08 183.41 157.84 183.97 157.42 185.08 L 157.04 186.10 C 156.62 187.21 157.19 188.45 158.29 188.86 C 159.40 189.28 160.64 188.72 161.05 187.61 Z M 161.41 186.58 L 161.76 185.64 C 162.17 184.55 161.62 183.33 160.53 182.92 C 159.44 182.51 158.22 183.06 157.81 184.15 L 157.45 185.08 C 157.04 186.17 157.59 187.39 158.68 187.81 C 159.78 188.22 161.00 187.67 161.41 186.58 Z M 161.73 185.64 L 162.06 184.77 C 162.47 183.70 161.93 182.49 160.85 182.09 C 159.77 181.68 158.57 182.22 158.16 183.29 L 157.83 184.16 C 157.43 185.23 157.97 186.44 159.04 186.85 C 160.12 187.25 161.32 186.71 161.73 185.64 Z M 162.03 184.76 L 162.34 183.95 C 162.74 182.89 162.21 181.70 161.15 181.30 C 160.09 180.90 158.90 181.43 158.50 182.49 L 158.19 183.30 C 157.79 184.37 158.32 185.55 159.38 185.96 C 160.44 186.36 161.63 185.83 162.03 184.76 Z M 162.32 183.94 L 162.62 183.12 C 163.02 182.07 162.49 180.90 161.45 180.51 C 160.40 180.11 159.23 180.64 158.83 181.69 L 158.52 182.50 C 158.13 183.55 158.66 184.72 159.70 185.12 C 160.75 185.51 161.92 184.98 162.32 183.94 Z M 162.60 183.11 L 162.97 182.12 C 163.36 181.08 162.84 179.93 161.80 179.54 C 160.77 179.15 159.61 179.68 159.23 180.71 L 158.86 181.70 C 158.47 182.73 158.99 183.89 160.03 184.28 C 161.06 184.67 162.22 184.14 162.60 183.11 Z M 162.95 182.11 L 163.32 181.14 C 163.70 180.12 163.18 178.98 162.16 178.59 C 161.13 178.21 159.99 178.73 159.61 179.75 L 159.25 180.72 C 158.86 181.75 159.38 182.89 160.41 183.27 C 161.43 183.65 162.57 183.13 162.95 182.11 Z M 163.30 181.14 L 163.65 180.20 C 164.03 179.19 163.52 178.06 162.50 177.68 C 161.49 177.30 160.36 177.81 159.98 178.82 L 159.63 179.76 C 159.25 180.77 159.76 181.90 160.77 182.28 C 161.79 182.66 162.91 182.15 163.30 181.14 Z M 163.62 180.20 L 163.96 179.31 C 164.35 178.31 163.85 177.19 162.85 176.81 C 161.85 176.43 160.73 176.93 160.34 177.93 L 160.00 178.82 C 159.62 179.82 160.12 180.94 161.12 181.32 C 162.12 181.70 163.24 181.20 163.62 180.20 Z M 163.94 179.32 L 164.30 178.40 C 164.68 177.41 164.20 176.30 163.21 175.92 C 162.23 175.53 161.12 176.01 160.73 177.00 L 160.37 177.92 C 159.99 178.91 160.47 180.02 161.46 180.40 C 162.44 180.79 163.55 180.30 163.94 179.32 Z M 164.27 178.40 L 164.66 177.43 C 165.04 176.46 164.57 175.36 163.60 174.97 C 162.63 174.59 161.53 175.06 161.14 176.03 L 160.76 177.00 C 160.37 177.97 160.84 179.07 161.82 179.46 C 162.79 179.84 163.89 179.37 164.27 178.40 Z M 164.65 177.40 L 165.00 176.48 C 165.36 175.52 164.88 174.44 163.92 174.07 C 162.95 173.70 161.87 174.18 161.50 175.15 L 161.15 176.07 C 160.78 177.03 161.27 178.11 162.23 178.48 C 163.20 178.85 164.28 178.36 164.65 177.40 Z M 165.00 176.41 L 165.30 175.51 C 165.63 174.54 165.12 173.49 164.15 173.17 C 163.19 172.84 162.14 173.35 161.81 174.32 L 161.50 175.22 C 161.17 176.18 161.69 177.23 162.65 177.56 C 163.62 177.89 164.67 177.38 165.00 176.41 Z M 165.31 175.40 L 165.57 174.47 C 165.84 173.50 165.28 172.49 164.31 172.22 C 163.34 171.95 162.33 172.52 162.06 173.49 L 161.80 174.42 C 161.53 175.39 162.10 176.40 163.07 176.67 C 164.04 176.94 165.04 176.37 165.31 175.40 Z M 165.58 174.37 L 165.79 173.40 C 166.01 172.43 165.40 171.47 164.43 171.25 C 163.46 171.03 162.50 171.64 162.28 172.61 L 162.06 173.58 C 161.85 174.55 162.46 175.52 163.43 175.73 C 164.40 175.95 165.36 175.34 165.58 174.37 Z M 165.78 173.34 L 165.97 172.35 C 166.15 171.38 165.51 170.45 164.55 170.27 C 163.59 170.09 162.66 170.73 162.47 171.69 L 162.29 172.68 C 162.11 173.64 162.74 174.57 163.71 174.75 C 164.67 174.94 165.60 174.30 165.78 173.34 Z M 165.95 172.31 L 166.12 171.32 C 166.28 170.36 165.64 169.45 164.69 169.29 C 163.73 169.13 162.82 169.77 162.66 170.73 L 162.49 171.73 C 162.33 172.68 162.97 173.59 163.93 173.75 C 164.88 173.91 165.79 173.27 165.95 172.31 Z M 166.11 171.31 L 166.12 171.26 C 166.28 170.31 165.64 169.41 164.69 169.25 C 163.74 169.09 162.84 169.73 162.68 170.68 L 162.67 170.74 C 162.51 171.69 163.16 172.58 164.10 172.74 C 165.05 172.90 165.95 172.26 166.11 171.31 Z"
      fill="black"
      fill-rule="nonzero" /></svg>