<svg xmlns="http://www.w3.org/2000/svg" version="1.0" width="937.000000pt" height="937.000000pt" viewBox="0 0 937.000000 937.000000" preserveAspectRatio="xMidYMid meet">
  <defs/>
  <path fill="#000000" d="M460.5,218.4 L458.9,220.9 L458.7,247.2 C458.7,261.7 459,301.8 459.4,336.5 C459.9,371.1 459.9,471.5 459.5,559.4 L458.8,719.4 L456.6,716.5 C455.5,714.8 446.6,703.4 437,691 C418.8,667.7 408.7,654 398.3,638.5 C389.5,625.4 384.4,620 381.1,620 C377.8,620 375,622.8 375,626.1 C375,627.4 377.3,631.6 380.3,635.6 C383.1,639.5 390.1,649.4 395.7,657.7 C401.4,666 413.7,682.8 423.1,695.1 C444.8,723.5 454,737.1 462.4,753.7 C466.1,761 470.3,767.9 471.7,769 C475.6,772.1 482,771.7 485.2,768.2 C486.5,766.7 493.4,755.6 500.5,743.6 C514.9,718.8 530.8,694.4 540.4,682.5 C543.9,678.1 551.2,670.4 556.6,665.5 C571,652.2 575,642.2 567.3,638.1 C563.9,636.3 560.5,638.3 557.5,643.9 C555.7,647.1 551.9,651.2 547,655.4 C532.3,667.7 513.3,693.5 489.5,733.7 C483.5,743.8 478.4,752 478,752 C477.7,752 476.7,750.5 475.8,748.6 C472.3,741.4 471.8,725.2 472.4,644.9 C474,434.1 474.1,378.5 473,330.5 C472,288.1 470.3,224.3 470.1,220.3 C469.9,218.3 467,216 464.5,216 C463,216 461.4,217 460.5,218.4 Z"/>
</svg>

