<svg xmlns="http://www.w3.org/2000/svg" width="300" height="300" viewBox="0 0 300 300">
<path d="M 139.39 191.07 L 140.16 190.45 C 141.06 189.72 141.20 188.40 140.47 187.50 C 139.75 186.60 138.42 186.46 137.52 187.18 L 136.76 187.80 C 135.86 188.53 135.72 189.85 136.44 190.75 C 137.17 191.65 138.49 191.79 139.39 191.07 Z M 140.12 190.48 L 140.91 189.88 C 141.83 189.17 142.00 187.85 141.29 186.93 C 140.58 186.01 139.26 185.84 138.34 186.55 L 137.56 187.15 C 136.64 187.86 136.47 189.18 137.18 190.10 C 137.88 191.02 139.20 191.19 140.12 190.48 Z M 140.84 189.93 L 141.67 189.34 C 142.62 188.67 142.85 187.36 142.17 186.41 C 141.50 185.46 140.19 185.23 139.24 185.91 L 138.41 186.49 C 137.46 187.17 137.23 188.48 137.91 189.43 C 138.58 190.38 139.89 190.60 140.84 189.93 Z M 141.58 189.41 L 142.42 188.88 C 143.40 188.26 143.70 186.95 143.08 185.97 C 142.45 184.99 141.15 184.69 140.17 185.31 L 139.33 185.84 C 138.35 186.46 138.05 187.76 138.67 188.75 C 139.29 189.73 140.60 190.03 141.58 189.41 Z M 142.35 188.92 L 143.21 188.42 C 144.22 187.83 144.57 186.54 143.98 185.54 C 143.40 184.53 142.11 184.19 141.10 184.77 L 140.24 185.27 C 139.23 185.85 138.88 187.14 139.47 188.15 C 140.05 189.16 141.34 189.50 142.35 188.92 Z M 143.19 188.43 L 144.07 187.94 C 145.09 187.37 145.45 186.09 144.88 185.07 C 144.31 184.05 143.03 183.69 142.01 184.26 L 141.13 184.75 C 140.11 185.32 139.75 186.61 140.32 187.62 C 140.89 188.64 142.17 189.00 143.19 188.43 Z M 144.08 187.93 L 144.94 187.44 C 145.96 186.87 146.31 185.58 145.74 184.57 C 145.16 183.56 143.87 183.20 142.86 183.78 L 142.00 184.27 C 140.98 184.84 140.63 186.13 141.21 187.14 C 141.78 188.15 143.07 188.51 144.08 187.93 Z M 144.98 187.42 L 145.78 186.95 C 146.78 186.35 147.11 185.05 146.51 184.05 C 145.92 183.05 144.62 182.72 143.62 183.32 L 142.82 183.80 C 141.82 184.39 141.49 185.69 142.09 186.69 C 142.69 187.69 143.98 188.02 144.98 187.42 Z M 145.82 186.92 L 146.64 186.41 C 147.63 185.79 147.93 184.48 147.31 183.50 C 146.69 182.51 145.38 182.21 144.40 182.83 L 143.58 183.35 C 142.59 183.97 142.29 185.27 142.91 186.26 C 143.53 187.24 144.84 187.54 145.82 186.92 Z M 146.68 186.38 L 147.55 185.81 C 148.52 185.17 148.79 183.86 148.15 182.89 C 147.51 181.91 146.20 181.64 145.23 182.28 L 144.36 182.86 C 143.38 183.50 143.11 184.81 143.75 185.78 C 144.40 186.76 145.71 187.03 146.68 186.38 Z M 147.58 185.79 L 148.43 185.21 C 149.39 184.56 149.64 183.24 148.98 182.28 C 148.32 181.31 147.00 181.07 146.04 181.72 L 145.20 182.30 C 144.23 182.96 143.98 184.28 144.64 185.24 C 145.30 186.20 146.62 186.45 147.58 185.79 Z M 148.45 185.20 L 149.19 184.68 C 150.15 184.00 150.38 182.68 149.71 181.73 C 149.03 180.77 147.71 180.54 146.76 181.22 L 146.02 181.74 C 145.06 182.41 144.83 183.73 145.50 184.69 C 146.18 185.64 147.50 185.87 148.45 185.20 Z M 149.22 184.66 L 150.00 184.09 C 150.95 183.41 151.16 182.08 150.47 181.13 C 149.79 180.19 148.46 179.98 147.52 180.66 L 146.73 181.23 C 145.79 181.92 145.57 183.24 146.26 184.19 C 146.95 185.14 148.27 185.35 149.22 184.66 Z M 150.03 184.07 L 150.85 183.46 C 151.79 182.76 151.98 181.43 151.27 180.49 C 150.57 179.55 149.24 179.37 148.30 180.07 L 147.49 180.68 C 146.55 181.39 146.36 182.71 147.07 183.65 C 147.77 184.59 149.10 184.78 150.03 184.07 Z M 150.88 183.44 L 151.72 182.78 C 152.65 182.06 152.81 180.73 152.09 179.80 C 151.37 178.88 150.04 178.71 149.11 179.44 L 148.27 180.09 C 147.35 180.81 147.18 182.15 147.90 183.07 C 148.63 183.99 149.96 184.16 150.88 183.44 Z M 151.76 182.76 L 152.61 182.07 C 153.52 181.32 153.65 179.99 152.91 179.08 C 152.17 178.17 150.83 178.03 149.92 178.77 L 149.08 179.46 C 148.17 180.20 148.03 181.54 148.77 182.45 C 149.51 183.36 150.85 183.50 151.76 182.76 Z M 152.64 182.04 L 153.43 181.37 C 154.32 180.61 154.43 179.27 153.67 178.37 C 152.91 177.48 151.57 177.37 150.67 178.13 L 149.89 178.80 C 148.99 179.56 148.88 180.90 149.64 181.80 C 150.41 182.69 151.75 182.80 152.64 182.04 Z M 153.46 181.35 L 154.24 180.66 C 155.12 179.89 155.21 178.54 154.43 177.65 C 153.65 176.77 152.31 176.69 151.42 177.46 L 150.64 178.15 C 149.76 178.93 149.67 180.27 150.45 181.16 C 151.23 182.04 152.58 182.13 153.46 181.35 Z M 154.26 180.65 L 155.03 179.96 C 155.90 179.17 155.97 177.81 155.18 176.94 C 154.39 176.07 153.04 176.00 152.16 176.79 L 151.40 177.48 C 150.52 178.27 150.46 179.62 151.25 180.50 C 152.04 181.37 153.39 181.44 154.26 180.65 Z M 155.05 179.94 L 155.78 179.26 C 156.65 178.46 156.70 177.11 155.90 176.24 C 155.10 175.37 153.74 175.32 152.88 176.12 L 152.14 176.80 C 151.27 177.61 151.22 178.96 152.02 179.83 C 152.83 180.69 154.18 180.75 155.05 179.94 Z M 155.80 179.25 L 156.50 178.60 C 157.36 177.78 157.40 176.43 156.59 175.57 C 155.77 174.70 154.42 174.66 153.56 175.48 L 152.86 176.13 C 152.00 176.94 151.96 178.30 152.77 179.16 C 153.58 180.02 154.94 180.06 155.80 179.25 Z M 156.51 178.59 L 157.21 177.92 C 158.07 177.10 158.10 175.74 157.28 174.88 C 156.46 174.02 155.10 173.99 154.24 174.81 L 153.54 175.48 C 152.69 176.30 152.65 177.66 153.47 178.52 C 154.29 179.38 155.65 179.41 156.51 178.59 Z M 157.22 177.91 L 157.97 177.19 C 158.83 176.36 158.85 175.00 158.03 174.15 C 157.20 173.29 155.84 173.27 154.99 174.09 L 154.24 174.82 C 153.38 175.64 153.36 177.00 154.18 177.86 C 155.01 178.71 156.37 178.74 157.22 177.91 Z M 157.97 177.19 L 158.68 176.51 C 159.54 175.69 159.56 174.32 158.74 173.46 C 157.91 172.61 156.55 172.58 155.69 173.41 L 154.99 174.09 C 154.13 174.91 154.10 176.28 154.93 177.13 C 155.75 177.99 157.12 178.02 157.97 177.19 Z M 158.67 176.53 L 159.37 175.87 C 160.23 175.05 160.27 173.68 159.45 172.82 C 158.63 171.95 157.27 171.91 156.40 172.73 L 155.70 173.39 C 154.84 174.21 154.80 175.58 155.62 176.44 C 156.44 177.31 157.80 177.35 158.67 176.53 Z M 159.34 175.89 L 160.07 175.23 C 160.95 174.43 161.01 173.06 160.20 172.18 C 159.39 171.30 158.03 171.24 157.15 172.04 L 156.42 172.71 C 155.54 173.51 155.48 174.88 156.29 175.76 C 157.10 176.64 158.46 176.70 159.34 175.89 Z M 160.03 175.27 L 160.91 174.51 C 161.81 173.72 161.91 172.35 161.12 171.45 C 160.33 170.54 158.96 170.45 158.06 171.24 L 157.18 172.00 C 156.28 172.79 156.18 174.16 156.97 175.06 C 157.76 175.97 159.13 176.06 160.03 175.27 Z M 160.84 174.59 L 161.76 173.85 C 162.71 173.10 162.87 171.73 162.12 170.78 C 161.37 169.84 159.99 169.68 159.05 170.43 L 158.12 171.16 C 157.18 171.91 157.02 173.29 157.77 174.23 C 158.52 175.18 159.90 175.34 160.84 174.59 Z M 161.60 173.99 L 162.44 173.45 C 163.46 172.79 163.75 171.43 163.09 170.40 C 162.43 169.38 161.07 169.09 160.05 169.75 L 159.21 170.29 C 158.19 170.95 157.89 172.32 158.55 173.34 C 159.22 174.36 160.58 174.65 161.60 173.99 Z M 161.96 173.70 L 162.61 173.48 C 163.77 173.09 164.39 171.83 164.00 170.67 C 163.61 169.50 162.35 168.88 161.19 169.27 L 160.53 169.50 C 159.37 169.89 158.75 171.15 159.14 172.31 C 159.53 173.47 160.79 174.10 161.96 173.70 Z M 160.60 173.19 L 161.05 173.52 C 162.05 174.23 163.45 174.00 164.16 173.00 C 164.88 172.00 164.65 170.61 163.65 169.89 L 163.20 169.56 C 162.19 168.85 160.80 169.08 160.08 170.08 C 159.37 171.08 159.60 172.47 160.60 173.19 Z M 160.13 171.93 L 160.22 172.84 C 160.35 174.07 161.44 174.96 162.67 174.84 C 163.89 174.71 164.79 173.62 164.66 172.39 L 164.57 171.48 C 164.44 170.25 163.35 169.36 162.12 169.48 C 160.90 169.61 160.01 170.70 160.13 171.93 Z M 160.23 172.36 L 160.08 173.64 C 159.94 174.86 160.82 175.97 162.04 176.11 C 163.26 176.25 164.37 175.37 164.51 174.15 L 164.66 172.87 C 164.80 171.65 163.92 170.54 162.70 170.40 C 161.48 170.26 160.37 171.14 160.23 172.36 Z M 160.10 173.50 L 159.93 174.48 C 159.72 175.69 160.52 176.84 161.73 177.06 C 162.94 177.27 164.10 176.47 164.31 175.26 L 164.49 174.28 C 164.70 173.07 163.90 171.92 162.69 171.70 C 161.47 171.49 160.32 172.29 160.10 173.50 Z M 159.95 174.41 L 159.75 175.37 C 159.50 176.57 160.27 177.75 161.47 178.00 C 162.68 178.24 163.85 177.47 164.10 176.27 L 164.30 175.32 C 164.55 174.11 163.77 172.94 162.57 172.69 C 161.37 172.44 160.20 173.21 159.95 174.41 Z M 159.77 175.32 L 159.54 176.30 C 159.26 177.49 160.00 178.69 161.20 178.96 C 162.39 179.24 163.58 178.50 163.86 177.30 L 164.08 176.32 C 164.36 175.13 163.62 173.94 162.43 173.66 C 161.23 173.38 160.04 174.13 159.77 175.32 Z M 159.55 176.26 L 159.30 177.26 C 159.00 178.45 159.71 179.65 160.90 179.95 C 162.08 180.25 163.28 179.54 163.59 178.35 L 163.84 177.35 C 164.14 176.16 163.43 174.96 162.24 174.66 C 161.06 174.36 159.85 175.07 159.55 176.26 Z M 159.32 177.22 L 159.04 178.23 C 158.72 179.41 159.41 180.62 160.58 180.94 C 161.75 181.26 162.97 180.57 163.29 179.40 L 163.57 178.39 C 163.89 177.22 163.20 176.00 162.03 175.68 C 160.85 175.36 159.64 176.05 159.32 177.22 Z M 159.07 178.21 L 158.78 179.21 C 158.44 180.36 159.11 181.57 160.26 181.91 C 161.42 182.25 162.63 181.58 162.97 180.43 L 163.26 179.43 C 163.59 178.27 162.93 177.06 161.78 176.73 C 160.62 176.39 159.41 177.05 159.07 178.21 Z M 158.82 179.19 L 158.52 180.17 C 158.17 181.31 158.81 182.51 159.94 182.86 C 161.08 183.20 162.28 182.56 162.62 181.43 L 162.93 180.45 C 163.27 179.31 162.63 178.11 161.50 177.76 C 160.37 177.42 159.17 178.05 158.82 179.19 Z M 158.56 180.16 L 158.25 181.12 C 157.90 182.23 158.52 183.42 159.63 183.77 C 160.74 184.12 161.93 183.51 162.28 182.39 L 162.59 181.44 C 162.94 180.33 162.32 179.14 161.21 178.79 C 160.10 178.43 158.91 179.05 158.56 180.16 Z M 158.29 181.12 L 158.00 182.02 C 157.64 183.12 158.24 184.29 159.34 184.64 C 160.43 185.00 161.60 184.40 161.96 183.30 L 162.25 182.40 C 162.60 181.30 162.00 180.13 160.91 179.78 C 159.82 179.42 158.64 180.02 158.29 181.12 Z M 158.04 182.03 L 157.72 183.01 C 157.36 184.08 157.95 185.23 159.02 185.58 C 160.09 185.93 161.24 185.35 161.59 184.28 L 161.91 183.30 C 162.27 182.23 161.68 181.08 160.61 180.73 C 159.54 180.37 158.39 180.96 158.04 182.03 Z M 157.77 183.02 L 157.44 184.00 C 157.10 185.05 157.66 186.17 158.70 186.52 C 159.74 186.86 160.86 186.30 161.21 185.26 L 161.54 184.27 C 161.89 183.23 161.32 182.11 160.28 181.76 C 159.24 181.41 158.12 181.98 157.77 183.02 Z M 157.50 184.01 L 157.19 184.92 C 156.85 185.93 157.38 187.03 158.39 187.37 C 159.40 187.72 160.49 187.18 160.84 186.17 L 161.15 185.26 C 161.49 184.25 160.96 183.15 159.95 182.81 C 158.94 182.46 157.85 183.00 157.50 184.01 Z M 157.25 184.92 L 156.94 185.80 C 156.60 186.77 157.10 187.84 158.07 188.18 C 159.05 188.53 160.11 188.02 160.46 187.05 L 160.77 186.17 C 161.12 185.20 160.61 184.14 159.64 183.79 C 158.67 183.44 157.60 183.95 157.25 184.92 Z M 157.00 185.78 L 156.66 186.70 C 156.31 187.64 156.78 188.68 157.72 189.04 C 158.66 189.39 159.70 188.91 160.06 187.98 L 160.40 187.06 C 160.75 186.12 160.28 185.08 159.34 184.72 C 158.40 184.37 157.35 184.85 157.00 185.78 Z M 156.71 186.68 L 156.34 187.59 C 155.98 188.50 156.42 189.53 157.33 189.90 C 158.23 190.26 159.27 189.82 159.63 188.92 L 160.00 188.00 C 160.37 187.09 159.93 186.06 159.02 185.69 C 158.11 185.33 157.08 185.77 156.71 186.68 Z M 156.40 187.56 L 156.00 188.49 C 155.61 189.36 156.01 190.38 156.89 190.77 C 157.77 191.15 158.79 190.75 159.17 189.87 L 159.57 188.95 C 159.96 188.07 159.56 187.05 158.68 186.67 C 157.81 186.28 156.78 186.68 156.40 187.56 Z M 156.05 188.45 L 155.62 189.35 C 155.22 190.20 155.58 191.21 156.43 191.61 C 157.27 192.01 158.28 191.65 158.69 190.81 L 159.11 189.91 C 159.52 189.06 159.16 188.05 158.31 187.65 C 157.47 187.25 156.45 187.61 156.05 188.45 Z M 155.67 189.32 L 155.22 190.20 C 154.80 191.02 155.13 192.03 155.95 192.45 C 156.77 192.87 157.78 192.54 158.20 191.72 L 158.64 190.84 C 159.06 190.02 158.73 189.01 157.91 188.59 C 157.09 188.17 156.08 188.50 155.67 189.32 Z M 155.25 190.18 L 154.78 191.07 C 154.35 191.88 154.66 192.88 155.46 193.31 C 156.27 193.73 157.27 193.43 157.69 192.62 L 158.17 191.73 C 158.59 190.93 158.29 189.93 157.48 189.50 C 156.68 189.07 155.68 189.38 155.25 190.18 Z M 154.80 191.07 L 154.31 191.97 C 153.88 192.76 154.18 193.75 154.97 194.18 C 155.76 194.61 156.75 194.32 157.18 193.52 L 157.67 192.63 C 158.10 191.84 157.81 190.84 157.01 190.41 C 156.22 189.98 155.23 190.28 154.80 191.07 Z M 154.33 191.97 L 154.20 192.20 C 153.78 192.98 154.06 193.97 154.85 194.39 C 155.64 194.82 156.62 194.53 157.05 193.75 L 157.17 193.52 C 157.60 192.74 157.31 191.75 156.52 191.32 C 155.74 190.90 154.75 191.19 154.33 191.97 Z"
      fill="black"
      fill-rule="nonzero" /><path d="M 141.68 173.21 L 141.65 174.17 C 141.62 175.32 142.52 176.29 143.68 176.32 C 144.83 176.36 145.80 175.45 145.83 174.30 L 145.86 173.34 C 145.90 172.19 144.99 171.22 143.84 171.19 C 142.68 171.15 141.72 172.06 141.68 173.21 Z M 141.64 174.23 L 141.64 175.20 C 141.64 176.36 142.57 177.30 143.73 177.30 C 144.89 177.31 145.84 176.37 145.84 175.21 L 145.84 174.24 C 145.85 173.08 144.91 172.14 143.75 172.13 C 142.59 172.13 141.65 173.07 141.64 174.23 Z M 141.63 175.31 L 141.68 176.30 C 141.74 177.47 142.73 178.36 143.90 178.30 C 145.06 178.24 145.96 177.25 145.90 176.09 L 145.85 175.09 C 145.79 173.93 144.80 173.03 143.63 173.09 C 142.47 173.15 141.57 174.15 141.63 175.31 Z M 141.69 176.46 L 141.82 177.49 C 141.97 178.65 143.03 179.47 144.19 179.33 C 145.35 179.18 146.17 178.11 146.03 176.95 L 145.90 175.93 C 145.75 174.76 144.68 173.94 143.52 174.09 C 142.36 174.24 141.54 175.30 141.69 176.46 Z M 141.84 177.67 L 142.05 178.65 C 142.30 179.80 143.43 180.53 144.58 180.28 C 145.74 180.03 146.47 178.90 146.22 177.75 L 146.00 176.77 C 145.76 175.62 144.62 174.89 143.47 175.14 C 142.32 175.39 141.59 176.52 141.84 177.67 Z M 142.08 178.80 L 142.35 179.71 C 142.68 180.84 143.86 181.49 145.00 181.16 C 146.13 180.83 146.78 179.64 146.45 178.51 L 146.19 177.60 C 145.86 176.46 144.67 175.81 143.53 176.14 C 142.40 176.48 141.75 177.66 142.08 178.80 Z M 142.37 179.80 L 142.69 180.74 C 143.07 181.86 144.29 182.46 145.41 182.07 C 146.53 181.69 147.13 180.47 146.75 179.35 L 146.43 178.42 C 146.05 177.29 144.83 176.70 143.71 177.08 C 142.59 177.46 141.99 178.68 142.37 179.80 Z M 142.70 180.79 L 143.06 181.75 C 143.47 182.86 144.71 183.43 145.82 183.02 C 146.94 182.60 147.50 181.37 147.09 180.25 L 146.74 179.30 C 146.32 178.18 145.08 177.61 143.97 178.03 C 142.86 178.44 142.29 179.68 142.70 180.79 Z M 143.06 181.77 L 143.43 182.74 C 143.86 183.85 145.10 184.41 146.22 183.98 C 147.33 183.56 147.89 182.31 147.46 181.20 L 147.09 180.23 C 146.66 179.11 145.41 178.56 144.30 178.99 C 143.19 179.41 142.63 180.66 143.06 181.77 Z M 143.42 182.74 L 143.79 183.71 C 144.22 184.83 145.47 185.39 146.58 184.97 C 147.70 184.54 148.26 183.29 147.84 182.18 L 147.47 181.20 C 147.04 180.08 145.79 179.52 144.68 179.95 C 143.56 180.37 143.00 181.62 143.42 182.74 Z M 143.78 183.68 L 144.14 184.68 C 144.55 185.81 145.79 186.39 146.91 185.98 C 148.04 185.57 148.62 184.33 148.21 183.21 L 147.85 182.21 C 147.45 181.08 146.20 180.50 145.08 180.91 C 143.95 181.31 143.37 182.56 143.78 183.68 Z M 144.13 184.65 L 144.47 185.64 C 144.86 186.77 146.09 187.37 147.22 186.98 C 148.36 186.59 148.96 185.36 148.57 184.23 L 148.23 183.24 C 147.84 182.11 146.60 181.50 145.47 181.89 C 144.34 182.28 143.74 183.52 144.13 184.65 Z M 144.46 185.61 L 144.78 186.58 C 145.15 187.72 146.38 188.33 147.52 187.96 C 148.65 187.58 149.27 186.36 148.90 185.22 L 148.58 184.25 C 148.20 183.12 146.97 182.50 145.84 182.87 C 144.70 183.25 144.08 184.48 144.46 185.61 Z M 144.77 186.56 L 145.07 187.49 C 145.43 188.63 146.65 189.26 147.79 188.90 C 148.93 188.54 149.56 187.32 149.20 186.18 L 148.90 185.24 C 148.54 184.10 147.32 183.47 146.18 183.83 C 145.04 184.20 144.41 185.42 144.77 186.56 Z M 145.06 187.48 L 145.34 188.37 C 145.70 189.51 146.91 190.15 148.05 189.80 C 149.20 189.44 149.84 188.23 149.48 187.08 L 149.21 186.19 C 148.85 185.05 147.64 184.41 146.49 184.77 C 145.35 185.12 144.71 186.33 145.06 187.48 Z M 145.34 188.36 L 145.62 189.27 C 145.97 190.42 147.18 191.07 148.32 190.72 C 149.47 190.37 150.11 189.16 149.76 188.01 L 149.49 187.10 C 149.14 185.95 147.93 185.31 146.78 185.65 C 145.64 186.00 144.99 187.21 145.34 188.36 Z M 145.61 189.26 L 145.89 190.18 C 146.23 191.33 147.44 191.98 148.59 191.64 C 149.73 191.30 150.38 190.09 150.04 188.94 L 149.77 188.02 C 149.43 186.88 148.22 186.22 147.07 186.57 C 145.92 186.91 145.27 188.12 145.61 189.26 Z M 145.89 190.17 L 146.15 191.08 C 146.49 192.23 147.69 192.89 148.84 192.56 C 149.99 192.23 150.65 191.03 150.31 189.88 L 150.05 188.96 C 149.71 187.81 148.51 187.15 147.36 187.48 C 146.21 187.82 145.55 189.02 145.89 190.17 Z M 146.15 191.07 L 146.42 192.02 C 146.74 193.18 147.94 193.85 149.09 193.52 C 150.24 193.20 150.91 192.00 150.59 190.85 L 150.32 189.89 C 149.99 188.74 148.80 188.07 147.65 188.40 C 146.49 188.72 145.82 189.92 146.15 191.07 Z M 146.41 192.01 L 146.70 193.05 C 147.01 194.21 148.20 194.89 149.36 194.57 C 150.51 194.26 151.19 193.07 150.88 191.91 L 150.59 190.87 C 150.28 189.71 149.09 189.03 147.93 189.35 C 146.78 189.66 146.10 190.85 146.41 192.01 Z M 146.69 193.04 L 146.92 193.88 C 147.23 195.04 148.41 195.73 149.57 195.42 C 150.72 195.11 151.41 193.93 151.10 192.77 L 150.88 191.93 C 150.57 190.77 149.38 190.08 148.23 190.39 C 147.07 190.70 146.39 191.88 146.69 193.04 Z M 146.92 193.87 L 147.15 194.77 C 147.45 195.92 148.64 196.62 149.79 196.31 C 150.95 196.01 151.64 194.83 151.34 193.67 L 151.11 192.78 C 150.80 191.62 149.62 190.93 148.46 191.23 C 147.31 191.54 146.62 192.72 146.92 193.87 Z M 147.15 194.76 L 147.39 195.70 C 147.69 196.86 148.87 197.56 150.02 197.26 C 151.18 196.97 151.88 195.79 151.58 194.63 L 151.34 193.68 C 151.04 192.53 149.87 191.83 148.71 192.12 C 147.55 192.42 146.85 193.60 147.15 194.76 Z M 147.39 195.69 L 147.64 196.69 C 147.93 197.84 149.10 198.55 150.26 198.26 C 151.42 197.97 152.12 196.79 151.83 195.63 L 151.59 194.64 C 151.30 193.48 150.12 192.78 148.96 193.07 C 147.80 193.36 147.10 194.53 147.39 195.69 Z M 147.63 196.67 L 147.89 197.71 C 148.17 198.87 149.34 199.58 150.50 199.29 C 151.66 199.01 152.37 197.84 152.09 196.68 L 151.84 195.65 C 151.55 194.49 150.38 193.78 149.22 194.06 C 148.06 194.34 147.35 195.51 147.63 196.67 Z M 147.88 197.69 L 148.14 198.76 C 148.41 199.92 149.58 200.63 150.74 200.36 C 151.90 200.08 152.62 198.92 152.34 197.75 L 152.09 196.69 C 151.82 195.53 150.65 194.81 149.49 195.09 C 148.33 195.36 147.61 196.53 147.88 197.69 Z M 148.13 198.74 L 148.38 199.78 C 148.64 200.95 149.80 201.67 150.97 201.40 C 152.13 201.13 152.86 199.97 152.59 198.81 L 152.35 197.77 C 152.08 196.61 150.92 195.88 149.75 196.15 C 148.59 196.42 147.87 197.58 148.13 198.74 Z M 148.38 199.77 L 148.60 200.78 C 148.86 201.94 150.02 202.67 151.18 202.41 C 152.34 202.15 153.08 201.00 152.81 199.83 L 152.59 198.82 C 152.33 197.66 151.17 196.93 150.01 197.19 C 148.84 197.45 148.11 198.61 148.38 199.77 Z M 148.60 200.77 L 148.83 201.78 C 149.08 202.94 150.23 203.68 151.39 203.42 C 152.56 203.17 153.29 202.02 153.04 200.85 L 152.81 199.84 C 152.56 198.68 151.41 197.95 150.25 198.20 C 149.08 198.46 148.35 199.61 148.60 200.77 Z M 148.83 201.77 L 149.05 202.78 C 149.30 203.94 150.44 204.67 151.60 204.42 C 152.76 204.17 153.50 203.03 153.25 201.87 L 153.03 200.86 C 152.78 199.70 151.64 198.96 150.48 199.21 C 149.31 199.47 148.58 200.61 148.83 201.77 Z M 149.05 202.77 L 149.26 203.76 C 149.51 204.92 150.65 205.66 151.81 205.41 C 152.97 205.16 153.71 204.02 153.46 202.86 L 153.25 201.87 C 153.00 200.71 151.86 199.97 150.70 200.22 C 149.54 200.47 148.80 201.61 149.05 202.77 Z M 149.26 203.75 L 149.46 204.71 C 149.71 205.87 150.85 206.61 152.01 206.36 C 153.17 206.12 153.91 204.98 153.66 203.82 L 153.46 202.86 C 153.21 201.70 152.07 200.96 150.91 201.21 C 149.75 201.45 149.02 202.59 149.26 203.75 Z M 149.47 204.71 L 149.66 205.63 C 149.91 206.79 151.05 207.53 152.20 207.28 C 153.36 207.04 154.10 205.90 153.85 204.75 L 153.66 203.82 C 153.41 202.67 152.28 201.93 151.12 202.17 C 149.96 202.42 149.22 203.55 149.47 204.71 Z M 149.67 205.63 L 149.89 206.65 C 150.13 207.81 151.27 208.54 152.42 208.30 C 153.57 208.05 154.31 206.92 154.06 205.77 L 153.85 204.75 C 153.60 203.59 152.47 202.86 151.31 203.10 C 150.16 203.35 149.42 204.48 149.67 205.63 Z M 149.90 206.65 L 150.13 207.74 C 150.38 208.89 151.51 209.62 152.65 209.37 C 153.80 209.13 154.53 208.00 154.28 206.85 L 154.05 205.76 C 153.81 204.62 152.68 203.89 151.53 204.13 C 150.38 204.38 149.65 205.51 149.90 206.65 Z M 150.15 207.74 L 150.37 208.75 C 150.61 209.89 151.73 210.62 152.87 210.37 C 154.01 210.13 154.73 209.00 154.49 207.87 L 154.27 206.85 C 154.02 205.72 152.90 204.99 151.76 205.24 C 150.63 205.48 149.90 206.60 150.15 207.74 Z M 150.38 208.75 L 150.58 209.70 C 150.83 210.83 151.94 211.55 153.07 211.30 C 154.20 211.06 154.92 209.94 154.68 208.81 L 154.47 207.87 C 154.23 206.74 153.11 206.02 151.98 206.26 C 150.85 206.51 150.14 207.62 150.38 208.75 Z M 150.60 209.69 L 150.79 210.58 C 151.03 211.70 152.14 212.41 153.26 212.17 C 154.38 211.93 155.10 210.82 154.85 209.70 L 154.66 208.82 C 154.42 207.69 153.31 206.98 152.19 207.22 C 151.07 207.46 150.36 208.57 150.60 209.69 Z M 150.80 210.57 L 150.99 211.47 C 151.23 212.58 152.33 213.29 153.45 213.05 C 154.56 212.81 155.27 211.71 155.03 210.60 L 154.84 209.70 C 154.60 208.59 153.50 207.88 152.39 208.12 C 151.27 208.36 150.56 209.46 150.80 210.57 Z M 151.01 211.46 L 151.22 212.48 C 151.46 213.59 152.55 214.29 153.66 214.06 C 154.77 213.82 155.47 212.73 155.24 211.62 L 155.02 210.60 C 154.78 209.50 153.69 208.79 152.59 209.02 C 151.48 209.26 150.77 210.35 151.01 211.46 Z M 151.23 212.47 L 151.44 213.45 C 151.67 214.55 152.76 215.25 153.86 215.02 C 154.96 214.78 155.67 213.70 155.43 212.60 L 155.23 211.62 C 154.99 210.52 153.91 209.82 152.81 210.05 C 151.70 210.29 151.00 211.37 151.23 212.47 Z M 151.45 213.45 L 151.66 214.40 C 151.89 215.49 152.97 216.19 154.07 215.95 C 155.16 215.72 155.86 214.64 155.63 213.54 L 155.42 212.59 C 155.19 211.50 154.11 210.80 153.01 211.04 C 151.91 211.27 151.22 212.35 151.45 213.45 Z M 151.67 214.40 L 151.88 215.35 C 152.11 216.44 153.19 217.13 154.28 216.89 C 155.37 216.65 156.06 215.58 155.82 214.49 L 155.61 213.54 C 155.37 212.45 154.30 211.76 153.21 212.00 C 152.12 212.24 151.43 213.31 151.67 214.40 Z M 151.89 215.35 L 152.11 216.32 C 152.35 217.40 153.42 218.07 154.50 217.83 C 155.58 217.59 156.26 216.52 156.02 215.44 L 155.80 214.48 C 155.56 213.40 154.49 212.72 153.41 212.96 C 152.33 213.20 151.65 214.28 151.89 215.35 Z M 152.13 216.32 L 152.35 217.29 C 152.59 218.36 153.66 219.03 154.72 218.79 C 155.79 218.54 156.46 217.48 156.22 216.41 L 156.00 215.44 C 155.75 214.37 154.69 213.70 153.62 213.95 C 152.56 214.19 151.89 215.25 152.13 216.32 Z M 152.37 217.29 L 152.60 218.28 C 152.84 219.33 153.89 219.99 154.95 219.75 C 156.01 219.51 156.67 218.45 156.42 217.40 L 156.20 216.41 C 155.95 215.36 154.90 214.70 153.84 214.94 C 152.79 215.18 152.13 216.24 152.37 217.29 Z M 152.62 218.27 L 152.81 219.10 C 153.05 220.15 154.09 220.80 155.14 220.56 C 156.19 220.32 156.84 219.28 156.60 218.23 L 156.41 217.40 C 156.16 216.35 155.12 215.70 154.07 215.94 C 153.03 216.18 152.37 217.23 152.62 218.27 Z"
      fill="black"
      fill-rule="nonzero" /></svg>