<svg xmlns="http://www.w3.org/2000/svg" version="1.0" width="937.000000pt" height="937.000000pt" viewBox="0 0 937.000000 937.000000" preserveAspectRatio="xMidYMid meet">
  <defs/>
  <path fill="#000000" d="M421.2,361 C415.8,363.3 416.4,371.9 422.2,373.9 C423.9,374.5 430,375 435.7,375 C455.3,375 488.1,383.9 504,393.5 C515,400.2 518.9,406.9 519,419 L519,426.5 L516.2,432.5 C514.6,435.8 510.6,441.9 507.3,446 C497.3,458.6 476.3,476 471.1,476 C466.8,476 435.6,482.7 419.7,487 C403.8,491.4 394.2,495.1 392.3,497.7 C390.3,500.3 390.7,505.7 393,508 C399.2,514.2 446.7,505.3 469.5,493.6 L477.5,489.5 L501,489.5 L524.5,489.5 L529.7,491.9 C536.1,494.7 543.5,502.4 544.9,507.6 C546.4,513.1 546.3,519.9 544.5,525.1 C541.1,535 520.9,557.6 505.9,568.3 C490.8,579 475.2,584.7 458,585.6 C446.7,586.2 445.4,585.7 439.2,578 C436.7,575 434,572.2 433.1,571.9 C430.7,571 427.3,572.6 426.5,575 C425,579.8 437.2,594.6 444.6,596.8 C455.7,600.1 474.4,599.1 487.6,594.6 C505.3,588.6 517.5,580.6 533.6,564.6 C547.2,551 552.7,543.9 557.3,534.2 L560.5,527.5 L560.5,516.5 L560.5,505.5 L557.8,499.7 C552.9,489.4 542,480.5 529.1,476.4 C526.6,475.5 518.8,474.6 511.9,474.3 L499.3,473.7 L509.5,463.6 C520.6,452.5 528.1,442.1 531.2,433.3 L533.2,427.5 L532.8,417 L532.5,406.5 L529.7,400.7 C521.4,383.9 500.3,372.7 459.5,363.5 C447.4,360.8 425.1,359.3 421.2,361 Z"/>
</svg>

