<svg xmlns="http://www.w3.org/2000/svg" version="1.0" width="937.000000pt" height="937.000000pt" viewBox="0 0 937.000000 937.000000" preserveAspectRatio="xMidYMid meet">
  <defs/>
  <path fill="#000000" d="M499.2,531 C497.3,532.2 491.7,537 486.7,541.8 C475.1,552.9 466.8,560.3 463,563 L460.1,565.1 L458.1,558.4 C456.9,554.8 456,549 456,545.6 C456,540.7 455.6,538.9 454,537.2 C451.6,534.6 448.3,534.4 445.2,536.6 L443,538.1 L443,547.3 L443,556.5 L445.9,564.7 L448.7,572.9 L441.1,577.3 C426.2,586.1 421.9,591.9 427,596.5 C430.1,599.3 433.3,598.6 440.1,593.8 C447.9,588.3 452.7,585.7 453.4,586.8 C454.8,589.2 461.7,616.3 468.4,645.6 C477.3,685.3 477.6,686.4 479.4,688 C481.8,689.9 487.3,688.8 488.6,686.2 L489.7,683.9 L483.5,653.1 C476.9,620.9 472.9,603.7 468.1,587.6 L465.2,578.1 L471.8,573.1 C475.3,570.3 482.7,564 488.1,559 C493.4,554.1 498.1,550 498.3,550 C498.6,550 497.7,554.2 496.4,559.2 C491.6,576.9 487.8,588.5 484.4,595.2 C480.5,603 480.3,604.1 482.8,606.3 C487.5,610.6 490.3,608 498,591.8 C507.2,572.5 514.1,550.6 514.3,539.7 L514.5,533.8 L511.7,531.4 C508.2,528.4 503.7,528.3 499.2,531 Z"/>
</svg>

