<svg xmlns="http://www.w3.org/2000/svg" version="1.0" width="937.000000pt" height="937.000000pt" viewBox="0 0 937.000000 937.000000" preserveAspectRatio="xMidYMid meet">
  <defs/>
  <path fill="#000000" d="M473,411.7 C471.7,413.4 471.1,415.2 471.5,416.5 C474.8,427.7 476.8,474.3 477.3,553 L477.5,582.5 L480,587 C481.5,589.7 484,592.3 486.1,593.4 L489.8,595.4 L494.1,594.1 C502.1,591.8 522.4,569.3 539.7,543.5 C547.3,532.1 556,516.9 556,514.9 C556,512.7 552.8,510 550.1,510 C548.6,510 547.2,511.2 545.7,513.7 C541.4,521.2 530.6,536.7 522.6,546.9 C513.3,558.8 494.4,579 492.5,579 C490.3,579 490,573.6 489.9,531.1 C489.8,444.1 488.2,416.2 482.9,410.9 C480.1,408.1 475.6,408.5 473,411.7 Z"/>
  <path fill="#000000" d="M432.3,411 C427.4,413 427,417.7 430,437.8 C431.6,448.3 432,456.3 432,474.7 L432,498.2 L430,507.8 C427.7,519.4 416,561.7 409.6,581.9 C407.1,589.9 405,597.4 405,598.6 C405,603.3 411.2,605.9 414.1,602.4 C416.8,599.1 434.8,547.1 440.3,526.5 C446.6,503.3 447,500 447,472 C447,452.7 446.6,444.3 444.9,432.5 C442.2,412.5 442.4,413.2 439,411.5 C435.7,409.8 435.4,409.8 432.3,411 Z"/>
</svg>

