<svg xmlns="http://www.w3.org/2000/svg" width="300" height="300" viewBox="0 0 300 300">
<path d="M 163.81 129.97 L 163.77 128.92 C 163.74 127.89 162.87 127.08 161.83 127.12 C 160.80 127.15 159.99 128.02 160.02 129.06 L 160.06 130.11 C 160.10 131.14 160.97 131.95 162.00 131.92 C 163.04 131.88 163.85 131.01 163.81 129.97 Z M 163.78 128.90 L 163.73 127.86 C 163.68 126.82 162.79 126.02 161.75 126.08 C 160.71 126.13 159.91 127.01 159.97 128.05 L 160.02 129.09 C 160.07 130.12 160.96 130.92 161.99 130.87 C 163.03 130.82 163.83 129.93 163.78 128.90 Z M 163.73 127.80 L 163.65 126.81 C 163.56 125.77 162.65 124.99 161.61 125.08 C 160.57 125.16 159.80 126.08 159.88 127.12 L 159.96 128.11 C 160.05 129.15 160.96 129.93 162.00 129.84 C 163.04 129.76 163.82 128.84 163.73 127.80 Z M 163.65 126.71 L 163.52 125.77 C 163.38 124.73 162.43 124.00 161.39 124.14 C 160.35 124.28 159.62 125.23 159.76 126.27 L 159.88 127.21 C 160.02 128.25 160.98 128.98 162.02 128.84 C 163.06 128.71 163.79 127.75 163.65 126.71 Z M 163.51 125.62 L 163.29 124.64 C 163.07 123.61 162.06 122.96 161.03 123.18 C 160.00 123.40 159.34 124.42 159.56 125.45 L 159.77 126.43 C 160.00 127.46 161.01 128.11 162.04 127.89 C 163.07 127.66 163.73 126.65 163.51 125.62 Z M 163.26 124.46 L 162.95 123.50 C 162.63 122.49 161.54 121.94 160.53 122.26 C 159.52 122.59 158.96 123.67 159.29 124.68 L 159.60 125.64 C 159.92 126.65 161.01 127.20 162.02 126.88 C 163.03 126.55 163.59 125.47 163.26 124.46 Z M 162.91 123.34 L 162.53 122.44 C 162.11 121.45 160.97 120.99 159.99 121.41 C 159.00 121.82 158.54 122.96 158.95 123.95 L 159.33 124.85 C 159.75 125.83 160.89 126.30 161.88 125.88 C 162.86 125.46 163.33 124.32 162.91 123.34 Z M 162.49 122.32 L 162.05 121.44 C 161.57 120.47 160.40 120.08 159.43 120.56 C 158.46 121.04 158.07 122.21 158.55 123.18 L 158.99 124.06 C 159.47 125.03 160.65 125.43 161.61 124.94 C 162.58 124.46 162.97 123.29 162.49 122.32 Z M 162.03 121.37 L 161.56 120.50 C 161.04 119.54 159.84 119.19 158.89 119.71 C 157.93 120.23 157.58 121.43 158.10 122.39 L 158.57 123.25 C 159.09 124.21 160.29 124.56 161.24 124.04 C 162.20 123.52 162.55 122.32 162.03 121.37 Z M 161.54 120.43 L 161.02 119.56 C 160.46 118.62 159.24 118.31 158.30 118.87 C 157.36 119.43 157.05 120.65 157.61 121.60 L 158.12 122.46 C 158.68 123.40 159.90 123.71 160.85 123.15 C 161.79 122.59 162.10 121.37 161.54 120.43 Z M 160.98 119.47 L 160.43 118.63 C 159.81 117.71 158.57 117.46 157.65 118.07 C 156.73 118.68 156.48 119.93 157.09 120.85 L 157.65 121.69 C 158.26 122.61 159.50 122.86 160.42 122.25 C 161.34 121.64 161.60 120.39 160.98 119.47 Z M 160.36 118.52 L 159.76 117.72 C 159.08 116.83 157.82 116.66 156.93 117.33 C 156.04 118.01 155.87 119.27 156.54 120.16 L 157.15 120.96 C 157.82 121.85 159.09 122.02 159.98 121.35 C 160.86 120.67 161.04 119.41 160.36 118.52 Z M 159.67 117.59 L 159.00 116.84 C 158.25 116.00 156.97 115.92 156.13 116.67 C 155.29 117.41 155.22 118.69 155.96 119.53 L 156.64 120.29 C 157.38 121.12 158.66 121.20 159.50 120.46 C 160.34 119.71 160.41 118.43 159.67 117.59 Z M 158.88 116.71 L 158.16 116.02 C 157.34 115.25 156.05 115.28 155.28 116.10 C 154.50 116.91 154.54 118.20 155.35 118.98 L 156.08 119.66 C 156.89 120.44 158.18 120.40 158.96 119.59 C 159.73 118.77 159.70 117.48 158.88 116.71 Z M 158.03 115.89 L 157.25 115.28 C 156.37 114.58 155.08 114.73 154.38 115.61 C 153.67 116.50 153.82 117.79 154.71 118.49 L 155.49 119.10 C 156.37 119.81 157.66 119.66 158.36 118.77 C 159.06 117.88 158.91 116.60 158.03 115.89 Z M 157.11 115.16 L 156.29 114.63 C 155.34 114.01 154.06 114.27 153.44 115.22 C 152.82 116.17 153.09 117.45 154.04 118.07 L 154.86 118.60 C 155.81 119.22 157.08 118.96 157.70 118.01 C 158.32 117.06 158.06 115.79 157.11 115.16 Z M 156.12 114.53 L 155.26 114.07 C 154.25 113.54 153.01 113.92 152.48 114.93 C 151.95 115.93 152.33 117.18 153.34 117.71 L 154.20 118.17 C 155.21 118.70 156.45 118.31 156.98 117.31 C 157.51 116.30 157.13 115.06 156.12 114.53 Z M 155.07 113.98 L 154.15 113.61 C 153.09 113.18 151.89 113.68 151.46 114.74 C 151.03 115.79 151.54 116.99 152.59 117.42 L 153.52 117.80 C 154.57 118.23 155.77 117.72 156.20 116.67 C 156.63 115.61 156.13 114.41 155.07 113.98 Z M 153.95 113.53 L 152.96 113.25 C 151.86 112.93 150.72 113.56 150.40 114.65 C 150.08 115.74 150.71 116.89 151.80 117.21 L 152.79 117.49 C 153.89 117.81 155.03 117.18 155.35 116.09 C 155.67 115.00 155.04 113.85 153.95 113.53 Z M 152.76 113.20 L 151.78 113.02 C 150.66 112.81 149.58 113.55 149.37 114.67 C 149.17 115.79 149.91 116.87 151.03 117.07 L 152.01 117.25 C 153.13 117.46 154.20 116.72 154.41 115.60 C 154.62 114.48 153.88 113.40 152.76 113.20 Z M 151.60 112.99 L 150.60 112.89 C 149.46 112.79 148.45 113.62 148.35 114.75 C 148.24 115.89 149.07 116.89 150.20 117.00 L 151.20 117.10 C 152.34 117.21 153.35 116.38 153.46 115.24 C 153.56 114.11 152.73 113.10 151.60 112.99 Z M 150.43 112.88 L 149.42 112.87 C 148.28 112.85 147.34 113.76 147.33 114.90 C 147.31 116.04 148.22 116.98 149.36 116.99 L 150.37 117.01 C 151.51 117.03 152.44 116.12 152.46 114.98 C 152.48 113.84 151.57 112.90 150.43 112.88 Z M 149.26 112.87 L 148.27 112.93 C 147.13 113.00 146.26 113.98 146.34 115.12 C 146.41 116.26 147.38 117.12 148.52 117.05 L 149.52 116.99 C 150.65 116.92 151.52 115.94 151.45 114.80 C 151.38 113.67 150.40 112.80 149.26 112.87 Z M 148.10 112.95 L 147.12 113.10 C 145.99 113.26 145.21 114.31 145.38 115.44 C 145.54 116.56 146.59 117.34 147.71 117.18 L 148.69 117.03 C 149.82 116.87 150.60 115.82 150.44 114.69 C 150.27 113.57 149.22 112.79 148.10 112.95 Z M 146.91 113.14 L 145.97 113.37 C 144.86 113.65 144.19 114.77 144.47 115.88 C 144.75 116.98 145.87 117.65 146.97 117.37 L 147.92 117.14 C 149.02 116.86 149.69 115.74 149.42 114.63 C 149.14 113.53 148.02 112.86 146.91 113.14 Z M 145.74 113.45 L 144.82 113.80 C 143.75 114.20 143.22 115.39 143.62 116.45 C 144.02 117.52 145.21 118.05 146.27 117.65 L 147.20 117.30 C 148.26 116.90 148.80 115.71 148.40 114.65 C 148.00 113.58 146.81 113.04 145.74 113.45 Z M 144.59 113.90 L 143.68 114.37 C 142.67 114.90 142.28 116.15 142.80 117.15 C 143.33 118.16 144.57 118.55 145.58 118.03 L 146.50 117.55 C 147.51 117.02 147.90 115.78 147.37 114.77 C 146.85 113.76 145.60 113.37 144.59 113.90 Z M 143.49 114.49 L 142.66 115.04 C 141.71 115.67 141.45 116.95 142.08 117.89 C 142.71 118.84 143.99 119.10 144.94 118.47 L 145.77 117.92 C 146.72 117.29 146.97 116.01 146.35 115.06 C 145.72 114.11 144.44 113.86 143.49 114.49 Z M 142.53 115.13 L 141.72 115.76 C 140.83 116.46 140.67 117.75 141.36 118.65 C 142.06 119.55 143.36 119.71 144.25 119.01 L 145.06 118.38 C 145.96 117.68 146.12 116.39 145.42 115.49 C 144.73 114.59 143.43 114.43 142.53 115.13 Z M 141.64 115.83 L 140.86 116.50 C 140.00 117.25 139.91 118.55 140.66 119.41 C 141.40 120.27 142.70 120.36 143.56 119.61 L 144.34 118.94 C 145.20 118.19 145.29 116.89 144.55 116.03 C 143.80 115.17 142.50 115.08 141.64 115.83 Z M 140.80 116.55 L 140.08 117.23 C 139.25 118.01 139.21 119.32 139.99 120.15 C 140.77 120.98 142.07 121.02 142.90 120.24 L 143.62 119.56 C 144.45 118.78 144.49 117.47 143.72 116.64 C 142.94 115.82 141.63 115.77 140.80 116.55 Z M 140.03 117.28 L 139.31 118.01 C 138.50 118.81 138.50 120.12 139.31 120.92 C 140.11 121.73 141.42 121.73 142.22 120.92 L 142.95 120.19 C 143.75 119.39 143.75 118.08 142.95 117.28 C 142.14 116.47 140.84 116.47 140.03 117.28 Z M 139.26 118.05 L 138.54 118.82 C 137.76 119.65 137.81 120.96 138.64 121.73 C 139.47 122.51 140.78 122.47 141.56 121.63 L 142.27 120.87 C 143.05 120.04 143.00 118.73 142.17 117.96 C 141.34 117.18 140.03 117.22 139.26 118.05 Z M 138.48 118.88 L 137.86 119.61 C 137.12 120.47 137.22 121.78 138.08 122.52 C 138.94 123.26 140.25 123.16 140.99 122.30 L 141.61 121.57 C 142.36 120.71 142.26 119.40 141.39 118.66 C 140.53 117.92 139.23 118.02 138.48 118.88 Z M 137.80 119.68 L 137.23 120.41 C 136.52 121.30 136.68 122.60 137.57 123.31 C 138.47 124.01 139.77 123.86 140.47 122.96 L 141.05 122.23 C 141.75 121.33 141.60 120.04 140.70 119.33 C 139.81 118.63 138.51 118.78 137.80 119.68 Z M 137.18 120.47 L 136.61 121.25 C 135.94 122.17 136.14 123.46 137.07 124.13 C 137.99 124.80 139.28 124.60 139.95 123.68 L 140.52 122.90 C 141.19 121.98 140.99 120.69 140.07 120.01 C 139.14 119.34 137.85 119.55 137.18 120.47 Z M 136.58 121.29 L 136.02 122.11 C 135.37 123.05 135.61 124.34 136.55 124.99 C 137.49 125.63 138.78 125.39 139.43 124.45 L 139.99 123.63 C 140.63 122.69 140.39 121.40 139.45 120.76 C 138.51 120.11 137.22 120.35 136.58 121.29 Z M 135.99 122.14 L 135.43 123.00 C 134.80 123.96 135.06 125.24 136.02 125.87 C 136.98 126.50 138.26 126.23 138.89 125.28 L 139.45 124.42 C 140.08 123.46 139.81 122.18 138.86 121.55 C 137.90 120.92 136.62 121.19 135.99 122.14 Z M 135.41 123.03 L 134.88 123.85 C 134.27 124.81 134.55 126.09 135.51 126.71 C 136.48 127.33 137.76 127.05 138.37 126.08 L 138.90 125.26 C 139.52 124.29 139.24 123.01 138.27 122.40 C 137.31 121.78 136.03 122.06 135.41 123.03 Z M 134.87 123.87 L 134.36 124.69 C 133.75 125.66 134.04 126.94 135.01 127.55 C 135.98 128.16 137.26 127.86 137.87 126.89 L 138.39 126.07 C 138.99 125.10 138.70 123.82 137.73 123.21 C 136.76 122.60 135.48 122.90 134.87 123.87 Z M 134.34 124.71 L 133.82 125.57 C 133.22 126.55 133.53 127.82 134.50 128.42 C 135.48 129.02 136.76 128.71 137.36 127.73 L 137.88 126.87 C 138.48 125.90 138.17 124.62 137.20 124.02 C 136.22 123.42 134.94 123.73 134.34 124.71 Z M 133.80 125.59 L 133.27 126.48 C 132.68 127.47 133.00 128.75 133.98 129.33 C 134.97 129.92 136.25 129.60 136.83 128.61 L 137.37 127.72 C 137.96 126.73 137.64 125.45 136.65 124.87 C 135.67 124.28 134.39 124.60 133.80 125.59 Z M 133.25 126.50 L 132.75 127.37 C 132.17 128.36 132.51 129.63 133.50 130.21 C 134.49 130.79 135.77 130.45 136.34 129.46 L 136.85 128.60 C 137.43 127.60 137.09 126.33 136.10 125.75 C 135.10 125.17 133.83 125.51 133.25 126.50 Z M 132.73 127.39 L 132.24 128.26 C 131.67 129.26 132.03 130.53 133.03 131.10 C 134.03 131.67 135.30 131.31 135.86 130.31 L 136.36 129.44 C 136.93 128.44 136.57 127.17 135.57 126.60 C 134.57 126.03 133.30 126.39 132.73 127.39 Z M 132.22 128.29 L 131.74 129.17 C 131.19 130.19 131.56 131.45 132.57 132.00 C 133.58 132.56 134.84 132.19 135.40 131.17 L 135.88 130.29 C 136.43 129.28 136.06 128.01 135.05 127.46 C 134.04 126.91 132.77 127.28 132.22 128.29 Z M 131.72 129.21 L 131.25 130.09 C 130.72 131.11 131.11 132.38 132.14 132.91 C 133.16 133.45 134.42 133.05 134.95 132.03 L 135.42 131.14 C 135.95 130.12 135.56 128.86 134.54 128.33 C 133.51 127.79 132.25 128.19 131.72 129.21 Z M 131.23 130.13 L 130.78 131.03 C 130.27 132.07 130.69 133.32 131.73 133.84 C 132.76 134.35 134.02 133.92 134.53 132.89 L 134.98 131.99 C 135.49 130.96 135.07 129.70 134.03 129.19 C 133.00 128.68 131.74 129.10 131.23 130.13 Z M 130.76 131.08 L 130.34 131.98 C 129.85 133.03 130.30 134.28 131.35 134.76 C 132.40 135.25 133.64 134.80 134.13 133.75 L 134.55 132.85 C 135.04 131.80 134.59 130.56 133.54 130.07 C 132.49 129.58 131.25 130.03 130.76 131.08 Z M 130.32 132.02 L 129.92 132.93 C 129.45 133.99 129.93 135.22 130.99 135.69 C 132.05 136.16 133.28 135.68 133.75 134.62 L 134.15 133.71 C 134.62 132.66 134.14 131.42 133.08 130.95 C 132.02 130.48 130.78 130.96 130.32 132.02 Z M 129.90 132.96 L 129.51 133.88 C 129.06 134.94 129.56 136.17 130.63 136.63 C 131.70 137.08 132.93 136.57 133.38 135.51 L 133.77 134.59 C 134.22 133.52 133.72 132.29 132.65 131.84 C 131.58 131.39 130.35 131.89 129.90 132.96 Z M 129.50 133.90 L 129.13 134.81 C 128.69 135.88 129.21 137.11 130.29 137.55 C 131.36 137.98 132.59 137.47 133.02 136.39 L 133.39 135.48 C 133.83 134.41 133.31 133.18 132.24 132.75 C 131.16 132.31 129.94 132.83 129.50 133.90 Z M 129.12 134.83 L 128.76 135.74 C 128.34 136.82 128.87 138.04 129.95 138.47 C 131.02 138.89 132.25 138.36 132.67 137.28 L 133.03 136.37 C 133.46 135.29 132.93 134.07 131.85 133.65 C 130.77 133.22 129.55 133.75 129.12 134.83 Z M 128.75 135.76 L 128.40 136.70 C 127.98 137.78 128.53 139.00 129.61 139.41 C 130.69 139.83 131.91 139.28 132.32 138.20 L 132.68 137.26 C 133.09 136.18 132.55 134.96 131.47 134.55 C 130.38 134.14 129.17 134.68 128.75 135.76 Z M 128.39 136.72 L 128.04 137.68 C 127.63 138.77 128.19 139.98 129.28 140.38 C 130.37 140.78 131.58 140.22 131.98 139.13 L 132.33 138.18 C 132.73 137.09 132.17 135.88 131.09 135.48 C 130.00 135.08 128.79 135.63 128.39 136.72 Z M 128.03 137.70 L 127.69 138.66 C 127.30 139.75 127.87 140.95 128.97 141.34 C 130.06 141.73 131.26 141.16 131.65 140.06 L 131.99 139.11 C 132.38 138.01 131.80 136.81 130.71 136.42 C 129.61 136.04 128.41 136.61 128.03 137.70 Z M 127.68 138.68 L 127.36 139.62 C 126.98 140.72 127.57 141.91 128.67 142.29 C 129.77 142.66 130.97 142.07 131.34 140.97 L 131.66 140.04 C 132.04 138.94 131.45 137.74 130.35 137.37 C 129.25 136.99 128.05 137.58 127.68 138.68 Z M 127.35 139.64 L 127.04 140.59 C 126.67 141.69 127.28 142.89 128.38 143.25 C 129.49 143.61 130.68 143.01 131.05 141.90 L 131.36 140.95 C 131.72 139.84 131.12 138.65 130.01 138.29 C 128.90 137.93 127.71 138.53 127.35 139.64 Z M 127.02 140.61 L 126.72 141.57 C 126.37 142.68 126.99 143.87 128.10 144.22 C 129.21 144.57 130.40 143.95 130.75 142.84 L 131.06 141.88 C 131.41 140.77 130.79 139.58 129.68 139.23 C 128.56 138.88 127.38 139.49 127.02 140.61 Z M 126.71 141.58 L 126.42 142.55 C 126.07 143.67 126.70 144.86 127.82 145.20 C 128.94 145.54 130.13 144.91 130.47 143.79 L 130.76 142.82 C 131.11 141.70 130.47 140.52 129.36 140.18 C 128.24 139.83 127.05 140.47 126.71 141.58 Z M 126.40 142.57 L 126.12 143.52 C 125.79 144.65 126.44 145.83 127.56 146.16 C 128.69 146.49 129.87 145.85 130.20 144.73 L 130.48 143.77 C 130.81 142.65 130.17 141.47 129.04 141.13 C 127.92 140.80 126.74 141.45 126.40 142.57 Z M 126.11 143.54 L 125.84 144.50 C 125.52 145.63 126.17 146.81 127.30 147.13 C 128.44 147.45 129.61 146.80 129.94 145.67 L 130.21 144.71 C 130.53 143.58 129.88 142.40 128.74 142.08 C 127.61 141.75 126.44 142.41 126.11 143.54 Z M 125.83 144.52 L 125.56 145.48 C 125.25 146.62 125.92 147.79 127.06 148.11 C 128.19 148.42 129.37 147.75 129.68 146.61 L 129.95 145.65 C 130.26 144.51 129.59 143.34 128.46 143.02 C 127.32 142.71 126.14 143.38 125.83 144.52 Z M 125.55 145.50 L 125.29 146.47 C 124.99 147.61 125.67 148.78 126.81 149.09 C 127.96 149.39 129.13 148.71 129.43 147.57 L 129.69 146.60 C 130.00 145.45 129.32 144.28 128.17 143.98 C 127.03 143.67 125.86 144.35 125.55 145.50 Z M 125.28 146.48 L 125.04 147.45 C 124.74 148.60 125.43 149.77 126.58 150.07 C 127.73 150.36 128.90 149.67 129.19 148.52 L 129.44 147.55 C 129.74 146.40 129.05 145.23 127.90 144.94 C 126.75 144.64 125.58 145.34 125.28 146.48 Z M 125.02 147.47 L 124.79 148.42 C 124.50 149.57 125.21 150.74 126.36 151.03 C 127.52 151.31 128.68 150.61 128.97 149.45 L 129.21 148.51 C 129.49 147.35 128.79 146.18 127.63 145.90 C 126.48 145.61 125.31 146.31 125.02 147.47 Z M 124.78 148.43 L 124.55 149.39 C 124.27 150.55 124.99 151.72 126.15 151.99 C 127.31 152.27 128.47 151.56 128.75 150.40 L 128.98 149.44 C 129.26 148.28 128.54 147.11 127.38 146.83 C 126.22 146.56 125.06 147.27 124.78 148.43 Z M 124.54 149.40 L 124.31 150.38 C 124.04 151.54 124.77 152.71 125.93 152.98 C 127.10 153.25 128.26 152.53 128.53 151.36 L 128.76 150.38 C 129.03 149.22 128.31 148.06 127.14 147.78 C 125.97 147.51 124.81 148.24 124.54 149.40 Z M 124.30 150.39 L 124.08 151.39 C 123.82 152.56 124.55 153.72 125.72 153.98 C 126.89 154.25 128.05 153.51 128.32 152.34 L 128.54 151.35 C 128.81 150.18 128.07 149.01 126.90 148.75 C 125.73 148.49 124.57 149.22 124.30 150.39 Z M 124.07 151.40 L 123.85 152.40 C 123.59 153.57 124.34 154.73 125.51 154.99 C 126.69 155.25 127.85 154.50 128.11 153.33 L 128.33 152.33 C 128.58 151.16 127.84 150.00 126.67 149.74 C 125.49 149.48 124.33 150.22 124.07 151.40 Z M 123.84 152.41 L 123.63 153.39 C 123.38 154.57 124.13 155.73 125.31 155.99 C 126.49 156.24 127.65 155.49 127.91 154.31 L 128.12 153.32 C 128.37 152.14 127.62 150.98 126.44 150.73 C 125.26 150.47 124.10 151.23 123.84 152.41 Z M 123.62 153.41 L 123.42 154.40 C 123.17 155.58 123.94 156.74 125.12 156.99 C 126.30 157.23 127.46 156.47 127.71 155.29 L 127.91 154.29 C 128.16 153.11 127.40 151.95 126.21 151.70 C 125.03 151.46 123.87 152.22 123.62 153.41 Z M 123.41 154.41 L 123.21 155.40 C 122.98 156.59 123.75 157.75 124.94 157.99 C 126.13 158.22 127.28 157.45 127.52 156.26 L 127.72 155.27 C 127.95 154.08 127.18 152.93 125.99 152.69 C 124.80 152.45 123.65 153.22 123.41 154.41 Z M 123.20 155.42 L 123.02 156.39 C 122.79 157.59 123.58 158.74 124.77 158.97 C 125.96 159.20 127.12 158.41 127.34 157.22 L 127.53 156.24 C 127.76 155.05 126.97 153.90 125.78 153.67 C 124.58 153.44 123.43 154.23 123.20 155.42 Z M 123.01 156.42 L 122.83 157.41 C 122.62 158.61 123.42 159.75 124.62 159.97 C 125.82 160.18 126.96 159.38 127.18 158.18 L 127.35 157.19 C 127.57 155.99 126.77 154.85 125.57 154.63 C 124.37 154.42 123.22 155.22 123.01 156.42 Z M 122.82 157.43 L 122.65 158.47 C 122.45 159.67 123.27 160.81 124.47 161.01 C 125.68 161.21 126.82 160.40 127.02 159.19 L 127.19 158.16 C 127.39 156.95 126.57 155.81 125.37 155.61 C 124.16 155.41 123.02 156.23 122.82 157.43 Z M 122.64 158.50 L 122.49 159.49 C 122.31 160.71 123.14 161.84 124.35 162.02 C 125.56 162.20 126.70 161.37 126.88 160.15 L 127.03 159.16 C 127.21 157.95 126.38 156.82 125.16 156.63 C 123.95 156.45 122.82 157.29 122.64 158.50 Z M 122.48 159.53 L 122.35 160.49 C 122.18 161.71 123.04 162.83 124.25 163.00 C 125.47 163.16 126.59 162.31 126.76 161.09 L 126.89 160.12 C 127.05 158.91 126.20 157.78 124.98 157.62 C 123.76 157.45 122.64 158.31 122.48 159.53 Z M 122.34 160.52 L 122.22 161.47 C 122.08 162.69 122.95 163.80 124.17 163.95 C 125.40 164.10 126.51 163.22 126.65 162.00 L 126.77 161.06 C 126.91 159.83 126.04 158.72 124.82 158.58 C 123.60 158.43 122.48 159.30 122.34 160.52 Z M 122.21 161.50 L 122.11 162.51 C 121.98 163.74 122.87 164.84 124.10 164.97 C 125.33 165.10 126.43 164.21 126.56 162.98 L 126.66 161.97 C 126.79 160.74 125.90 159.64 124.67 159.51 C 123.44 159.38 122.34 160.27 122.21 161.50 Z M 122.10 162.54 L 122.01 163.55 C 121.90 164.78 122.81 165.87 124.04 165.98 C 125.27 166.09 126.36 165.18 126.48 163.95 L 126.57 162.95 C 126.68 161.71 125.77 160.62 124.53 160.51 C 123.30 160.40 122.21 161.31 122.10 162.54 Z M 122.00 163.58 L 121.92 164.57 C 121.83 165.80 122.76 166.88 123.99 166.98 C 125.23 167.07 126.31 166.15 126.41 164.91 L 126.48 163.92 C 126.58 162.68 125.65 161.60 124.41 161.51 C 123.18 161.41 122.10 162.34 122.00 163.58 Z M 121.92 164.59 L 121.85 165.57 C 121.77 166.81 122.71 167.88 123.96 167.96 C 125.20 168.05 126.27 167.10 126.35 165.86 L 126.42 164.89 C 126.50 163.64 125.56 162.57 124.31 162.49 C 123.07 162.41 122.00 163.35 121.92 164.59 Z M 121.85 165.59 L 121.79 166.60 C 121.72 167.84 122.68 168.91 123.92 168.98 C 125.17 169.05 126.23 168.09 126.30 166.85 L 126.36 165.84 C 126.43 164.60 125.47 163.53 124.23 163.46 C 122.98 163.39 121.92 164.35 121.85 165.59 Z M 121.79 166.62 L 121.74 167.63 C 121.68 168.87 122.65 169.93 123.90 169.99 C 125.15 170.05 126.20 169.08 126.26 167.83 L 126.31 166.83 C 126.36 165.58 125.40 164.52 124.15 164.46 C 122.90 164.41 121.84 165.37 121.79 166.62 Z M 121.73 167.65 L 121.70 168.64 C 121.65 169.89 122.63 170.95 123.88 170.99 C 125.14 171.04 126.19 170.06 126.23 168.81 L 126.27 167.81 C 126.31 166.56 125.33 165.51 124.08 165.46 C 122.83 165.42 121.78 166.40 121.73 167.65 Z M 121.69 168.67 L 121.67 169.65 C 121.64 170.91 122.63 171.95 123.88 171.98 C 125.14 172.01 126.18 171.02 126.21 169.77 L 126.24 168.78 C 126.27 167.53 125.28 166.48 124.02 166.45 C 122.77 166.42 121.72 167.41 121.69 168.67 Z M 121.66 169.67 L 121.65 170.69 C 121.63 171.95 122.63 172.99 123.89 173.01 C 125.15 173.03 126.18 172.02 126.20 170.77 L 126.22 169.74 C 126.24 168.49 125.23 167.45 123.97 167.43 C 122.72 167.41 121.68 168.42 121.66 169.67 Z M 121.64 170.71 L 121.63 171.72 C 121.63 172.98 122.64 174.01 123.90 174.02 C 125.16 174.03 126.19 173.01 126.20 171.75 L 126.21 170.75 C 126.21 169.49 125.20 168.46 123.94 168.45 C 122.68 168.44 121.65 169.45 121.64 170.71 Z M 121.63 171.73 L 121.63 172.72 C 121.63 173.98 122.65 175.01 123.91 175.01 C 125.17 175.02 126.20 173.99 126.20 172.73 L 126.20 171.74 C 126.21 170.48 125.18 169.45 123.92 169.45 C 122.66 169.45 121.63 170.47 121.63 171.73 Z M 121.62 172.73 L 121.62 173.71 C 121.62 174.97 122.65 176.00 123.91 176.00 C 125.18 176.00 126.20 174.97 126.20 173.71 L 126.20 172.73 C 126.20 171.46 125.18 170.44 123.91 170.44 C 122.65 170.44 121.62 171.46 121.62 172.73 Z M 121.62 173.72 L 121.62 174.71 C 121.63 175.98 122.66 177.00 123.92 177.00 C 125.19 176.99 126.21 175.96 126.21 174.70 L 126.21 173.70 C 126.20 172.44 125.17 171.41 123.91 171.42 C 122.64 171.42 121.62 172.45 121.62 173.72 Z M 121.62 174.73 L 121.63 175.72 C 121.65 176.99 122.69 178.01 123.96 177.99 C 125.23 177.98 126.24 176.93 126.23 175.67 L 126.21 174.67 C 126.20 173.41 125.16 172.39 123.89 172.41 C 122.62 172.42 121.60 173.46 121.62 174.73 Z M 121.63 175.76 L 121.66 176.77 C 121.69 178.04 122.75 179.04 124.02 179.00 C 125.29 178.97 126.29 177.91 126.26 176.64 L 126.23 175.63 C 126.19 174.36 125.13 173.36 123.86 173.40 C 122.59 173.43 121.59 174.49 121.63 175.76 Z M 121.66 176.82 L 121.70 177.75 C 121.77 179.02 122.85 180.00 124.12 179.94 C 125.39 179.87 126.37 178.79 126.30 177.52 L 126.26 176.59 C 126.19 175.32 125.11 174.34 123.84 174.40 C 122.57 174.47 121.59 175.55 121.66 176.82 Z M 121.71 177.84 L 121.79 178.79 C 121.91 180.05 123.03 180.99 124.29 180.88 C 125.56 180.76 126.50 179.64 126.39 178.38 L 126.30 177.43 C 126.19 176.16 125.07 175.23 123.80 175.34 C 122.53 175.45 121.60 176.57 121.71 177.84 Z M 121.81 178.92 L 121.95 179.91 C 122.14 181.17 123.31 182.05 124.57 181.86 C 125.83 181.68 126.70 180.50 126.52 179.24 L 126.37 178.25 C 126.19 176.98 125.01 176.11 123.75 176.30 C 122.49 176.48 121.62 177.66 121.81 178.92 Z M 121.98 180.07 L 122.21 181.13 C 122.48 182.38 123.72 183.17 124.96 182.89 C 126.21 182.62 127.00 181.39 126.72 180.14 L 126.49 179.08 C 126.22 177.84 124.99 177.05 123.74 177.32 C 122.50 177.59 121.71 178.83 121.98 180.07 Z M 122.25 181.29 L 122.52 182.22 C 122.88 183.44 124.17 184.15 125.39 183.79 C 126.62 183.43 127.32 182.15 126.96 180.92 L 126.69 179.99 C 126.33 178.76 125.04 178.06 123.82 178.42 C 122.59 178.78 121.89 180.06 122.25 181.29 Z M 122.56 182.34 L 122.89 183.26 C 123.31 184.46 124.64 185.09 125.84 184.67 C 127.04 184.24 127.67 182.92 127.25 181.71 L 126.92 180.80 C 126.49 179.59 125.17 178.96 123.97 179.39 C 122.76 179.82 122.13 181.14 122.56 182.34 Z M 122.93 183.37 L 123.31 184.30 C 123.80 185.48 125.15 186.05 126.33 185.56 C 127.51 185.08 128.08 183.72 127.59 182.54 L 127.21 181.61 C 126.72 180.43 125.37 179.86 124.19 180.35 C 123.01 180.83 122.44 182.19 122.93 183.37 Z M 123.35 184.40 L 123.79 185.33 C 124.33 186.49 125.71 186.99 126.86 186.45 C 128.02 185.91 128.52 184.53 127.98 183.38 L 127.55 182.44 C 127.01 181.29 125.63 180.79 124.47 181.33 C 123.32 181.87 122.81 183.24 123.35 184.40 Z M 123.84 185.43 L 124.32 186.34 C 124.91 187.48 126.31 187.91 127.44 187.32 C 128.57 186.72 129.01 185.33 128.42 184.19 L 127.94 183.28 C 127.34 182.15 125.94 181.71 124.81 182.31 C 123.68 182.90 123.24 184.30 123.84 185.43 Z M 124.37 186.44 L 124.89 187.32 C 125.54 188.42 126.95 188.79 128.06 188.14 C 129.16 187.49 129.52 186.08 128.88 184.97 L 128.36 184.10 C 127.71 183.00 126.29 182.63 125.19 183.28 C 124.09 183.92 123.72 185.34 124.37 186.44 Z M 124.95 187.42 L 125.50 188.26 C 126.20 189.32 127.64 189.62 128.70 188.92 C 129.77 188.22 130.07 186.78 129.37 185.71 L 128.81 184.88 C 128.11 183.81 126.68 183.51 125.61 184.21 C 124.54 184.92 124.25 186.35 124.95 187.42 Z M 125.57 188.35 L 126.16 189.15 C 126.91 190.18 128.36 190.41 129.39 189.65 C 130.42 188.90 130.64 187.45 129.89 186.42 L 129.30 185.62 C 128.54 184.59 127.10 184.37 126.07 185.12 C 125.04 185.87 124.81 187.32 125.57 188.35 Z M 126.23 189.24 L 126.85 190.02 C 127.66 191.01 129.11 191.16 130.10 190.35 C 131.10 189.55 131.25 188.09 130.44 187.10 L 129.82 186.33 C 129.01 185.34 127.56 185.19 126.57 185.99 C 125.57 186.80 125.42 188.25 126.23 189.24 Z M 126.93 190.10 L 127.59 190.84 C 128.44 191.79 129.90 191.87 130.85 191.02 C 131.80 190.17 131.88 188.71 131.03 187.76 L 130.37 187.02 C 129.52 186.07 128.06 185.99 127.11 186.84 C 126.16 187.69 126.08 189.15 126.93 190.10 Z M 127.67 190.92 L 128.37 191.63 C 129.26 192.54 130.72 192.55 131.63 191.66 C 132.54 190.77 132.55 189.31 131.66 188.40 L 130.96 187.68 C 130.07 186.78 128.60 186.76 127.70 187.66 C 126.79 188.55 126.77 190.01 127.67 190.92 Z M 128.44 191.70 L 129.18 192.38 C 130.11 193.25 131.57 193.20 132.43 192.27 C 133.30 191.33 133.25 189.88 132.32 189.01 L 131.58 188.33 C 130.65 187.46 129.19 187.51 128.33 188.44 C 127.46 189.38 127.51 190.83 128.44 191.70 Z M 129.26 192.45 L 130.02 193.10 C 130.99 193.92 132.44 193.81 133.26 192.84 C 134.09 191.87 133.97 190.42 133.00 189.59 L 132.24 188.94 C 131.27 188.12 129.82 188.24 128.99 189.21 C 128.17 190.17 128.29 191.63 129.26 192.45 Z M 130.11 193.16 L 130.90 193.78 C 131.90 194.55 133.35 194.37 134.12 193.37 C 134.90 192.36 134.71 190.92 133.71 190.14 L 132.92 189.53 C 131.91 188.75 130.47 188.94 129.69 189.94 C 128.92 190.94 129.10 192.39 130.11 193.16 Z M 130.99 193.84 L 131.81 194.41 C 132.85 195.14 134.28 194.89 135.00 193.85 C 135.73 192.81 135.48 191.38 134.44 190.65 L 133.62 190.08 C 132.58 189.36 131.15 189.61 130.43 190.65 C 129.70 191.68 129.95 193.11 130.99 193.84 Z M 131.91 194.47 L 132.75 195.00 C 133.82 195.67 135.24 195.35 135.91 194.28 C 136.58 193.21 136.25 191.79 135.18 191.12 L 134.34 190.59 C 133.27 189.92 131.85 190.25 131.18 191.32 C 130.51 192.39 130.84 193.80 131.91 194.47 Z M 132.86 195.06 L 133.73 195.54 C 134.83 196.15 136.22 195.76 136.83 194.66 C 137.45 193.55 137.05 192.16 135.95 191.55 L 135.08 191.07 C 133.97 190.45 132.58 190.85 131.97 191.95 C 131.36 193.05 131.76 194.44 132.86 195.06 Z M 133.83 195.59 L 134.72 196.03 C 135.85 196.58 137.21 196.12 137.77 194.99 C 138.33 193.87 137.86 192.50 136.74 191.95 L 135.85 191.51 C 134.72 190.95 133.35 191.41 132.80 192.54 C 132.24 193.67 132.71 195.03 133.83 195.59 Z M 134.82 196.06 L 135.73 196.46 C 136.88 196.97 138.21 196.44 138.72 195.30 C 139.22 194.15 138.70 192.81 137.55 192.31 L 136.64 191.91 C 135.49 191.41 134.16 191.93 133.65 193.07 C 133.15 194.22 133.67 195.56 134.82 196.06 Z M 135.82 196.49 L 136.75 196.86 C 137.91 197.31 139.22 196.74 139.68 195.58 C 140.13 194.42 139.56 193.10 138.40 192.65 L 137.47 192.28 C 136.31 191.83 134.99 192.40 134.54 193.56 C 134.08 194.72 134.65 196.03 135.82 196.49 Z M 136.82 196.88 L 137.77 197.21 C 138.94 197.63 140.23 197.01 140.64 195.84 C 141.06 194.67 140.44 193.38 139.27 192.96 L 138.33 192.63 C 137.15 192.21 135.87 192.83 135.45 194.00 C 135.04 195.17 135.65 196.46 136.82 196.88 Z M 137.83 197.22 L 138.76 197.52 C 139.94 197.90 141.20 197.25 141.58 196.07 C 141.96 194.89 141.31 193.63 140.13 193.25 L 139.21 192.95 C 138.03 192.57 136.76 193.22 136.38 194.40 C 136.00 195.58 136.65 196.84 137.83 197.22 Z M 138.82 197.53 L 139.76 197.81 C 140.95 198.16 142.19 197.48 142.54 196.30 C 142.88 195.11 142.21 193.87 141.02 193.52 L 140.08 193.24 C 138.89 192.90 137.65 193.57 137.30 194.75 C 136.96 195.94 137.63 197.18 138.82 197.53 Z M 139.82 197.81 L 140.78 198.07 C 141.97 198.39 143.19 197.69 143.51 196.50 C 143.82 195.32 143.12 194.10 141.94 193.78 L 140.97 193.52 C 139.79 193.20 138.57 193.90 138.25 195.09 C 137.93 196.27 138.63 197.49 139.82 197.81 Z M 140.83 198.07 L 141.81 198.31 C 143.00 198.61 144.20 197.88 144.49 196.69 C 144.78 195.51 144.06 194.31 142.87 194.02 L 141.89 193.78 C 140.70 193.48 139.50 194.21 139.21 195.40 C 138.92 196.58 139.64 197.78 140.83 198.07 Z M 141.86 198.31 L 142.86 198.54 C 144.05 198.81 145.22 198.06 145.49 196.87 C 145.76 195.69 145.01 194.51 143.83 194.24 L 142.83 194.02 C 141.64 193.75 140.46 194.50 140.20 195.68 C 139.93 196.87 140.67 198.05 141.86 198.31 Z M 142.90 198.54 L 143.90 198.74 C 145.08 198.98 146.24 198.22 146.48 197.04 C 146.72 195.85 145.96 194.69 144.78 194.45 L 143.78 194.25 C 142.60 194.00 141.44 194.77 141.20 195.95 C 140.96 197.14 141.72 198.29 142.90 198.54 Z M 143.94 198.73 L 144.93 198.92 C 146.12 199.14 147.25 198.36 147.47 197.18 C 147.69 196.00 146.91 194.86 145.73 194.64 L 144.74 194.46 C 143.55 194.24 142.42 195.02 142.20 196.20 C 141.98 197.38 142.76 198.51 143.94 198.73 Z M 144.98 198.91 L 145.98 199.08 C 147.15 199.27 148.27 198.48 148.46 197.30 C 148.66 196.12 147.86 195.01 146.69 194.82 L 145.69 194.65 C 144.51 194.45 143.40 195.25 143.20 196.43 C 143.01 197.60 143.80 198.72 144.98 198.91 Z M 146.02 199.07 L 147.02 199.21 C 148.19 199.38 149.28 198.57 149.45 197.40 C 149.62 196.22 148.80 195.14 147.63 194.97 L 146.64 194.82 C 145.46 194.65 144.38 195.47 144.21 196.64 C 144.04 197.81 144.85 198.90 146.02 199.07 Z M 147.07 199.21 L 148.05 199.33 C 149.22 199.47 150.28 198.63 150.42 197.46 C 150.56 196.30 149.73 195.23 148.56 195.09 L 147.58 194.97 C 146.41 194.83 145.35 195.67 145.21 196.84 C 145.07 198.00 145.90 199.07 147.07 199.21 Z M 148.11 199.32 L 149.09 199.41 C 150.25 199.52 151.28 198.66 151.39 197.50 C 151.50 196.33 150.65 195.30 149.48 195.19 L 148.50 195.10 C 147.34 194.99 146.31 195.85 146.20 197.01 C 146.09 198.18 146.94 199.21 148.11 199.32 Z M 149.15 199.40 L 150.17 199.46 C 151.33 199.53 152.33 198.66 152.40 197.50 C 152.48 196.34 151.60 195.35 150.44 195.27 L 149.42 195.21 C 148.26 195.13 147.27 196.01 147.19 197.17 C 147.12 198.32 148.00 199.32 149.15 199.40 Z M 150.24 199.44 L 151.24 199.48 C 152.38 199.52 153.35 198.62 153.38 197.47 C 153.42 196.32 152.53 195.36 151.38 195.32 L 150.38 195.29 C 149.23 195.25 148.27 196.15 148.23 197.30 C 148.19 198.44 149.09 199.41 150.24 199.44 Z M 151.29 199.46 L 152.28 199.47 C 153.42 199.47 154.35 198.56 154.36 197.42 C 154.36 196.28 153.45 195.35 152.31 195.35 L 151.32 195.34 C 150.18 195.33 149.26 196.25 149.25 197.39 C 149.24 198.52 150.16 199.45 151.29 199.46 Z M 152.33 199.45 L 153.32 199.43 C 154.44 199.41 155.34 198.48 155.32 197.35 C 155.30 196.23 154.37 195.33 153.25 195.35 L 152.26 195.37 C 151.13 195.39 150.24 196.32 150.26 197.44 C 150.28 198.57 151.21 199.47 152.33 199.45 Z M 153.36 199.41 L 154.35 199.37 C 155.46 199.33 156.33 198.39 156.29 197.27 C 156.24 196.16 155.31 195.29 154.19 195.33 L 153.20 195.37 C 152.09 195.41 151.22 196.35 151.26 197.47 C 151.31 198.58 152.25 199.45 153.36 199.41 Z M 154.39 199.35 L 155.36 199.29 C 156.46 199.23 157.31 198.28 157.24 197.18 C 157.18 196.08 156.23 195.23 155.13 195.30 L 154.15 195.36 C 153.05 195.42 152.21 196.36 152.27 197.47 C 152.34 198.57 153.28 199.41 154.39 199.35 Z M 155.41 199.26 L 156.40 199.18 C 157.49 199.09 158.29 198.13 158.20 197.04 C 158.11 195.96 157.15 195.15 156.07 195.24 L 155.08 195.32 C 153.99 195.42 153.18 196.37 153.28 197.46 C 153.37 198.55 154.32 199.36 155.41 199.26 Z M 156.46 199.15 L 157.46 199.03 C 158.53 198.91 159.30 197.93 159.17 196.86 C 159.04 195.79 158.07 195.02 156.99 195.15 L 156.00 195.27 C 154.93 195.40 154.16 196.37 154.29 197.44 C 154.42 198.52 155.39 199.28 156.46 199.15 Z M 157.54 199.00 L 158.53 198.84 C 159.59 198.67 160.30 197.67 160.13 196.62 C 159.96 195.56 158.97 194.85 157.91 195.02 L 156.91 195.18 C 155.86 195.35 155.14 196.35 155.31 197.40 C 155.49 198.46 156.48 199.17 157.54 199.00 Z M 158.62 198.80 L 159.62 198.59 C 160.66 198.36 161.31 197.35 161.09 196.31 C 160.87 195.28 159.85 194.62 158.82 194.84 L 157.82 195.06 C 156.79 195.28 156.13 196.30 156.35 197.33 C 156.57 198.36 157.59 199.02 158.62 198.80 Z M 159.72 198.54 L 160.68 198.28 C 161.69 198.00 162.28 196.96 162.01 195.95 C 161.73 194.94 160.69 194.35 159.68 194.63 L 158.72 194.89 C 157.71 195.16 157.12 196.20 157.39 197.21 C 157.67 198.22 158.71 198.82 159.72 198.54 Z M 160.77 198.23 L 161.72 197.92 C 162.70 197.60 163.24 196.54 162.92 195.56 C 162.59 194.57 161.53 194.04 160.55 194.36 L 159.60 194.67 C 158.62 194.99 158.08 196.05 158.40 197.04 C 158.72 198.02 159.78 198.56 160.77 198.23 Z M 161.79 197.87 L 162.73 197.52 C 163.69 197.16 164.17 196.09 163.81 195.13 C 163.45 194.17 162.38 193.69 161.42 194.05 L 160.48 194.41 C 159.52 194.77 159.04 195.84 159.40 196.80 C 159.76 197.75 160.83 198.24 161.79 197.87 Z M 162.80 197.47 L 163.72 197.08 C 164.65 196.68 165.09 195.60 164.69 194.67 C 164.29 193.74 163.22 193.30 162.28 193.70 L 161.36 194.09 C 160.42 194.49 159.99 195.57 160.39 196.50 C 160.78 197.44 161.86 197.87 162.80 197.47 Z M 163.77 197.03 L 164.68 196.61 C 165.59 196.18 165.97 195.10 165.55 194.19 C 165.12 193.28 164.04 192.89 163.13 193.32 L 162.23 193.75 C 161.32 194.17 160.93 195.26 161.36 196.16 C 161.78 197.07 162.87 197.46 163.77 197.03 Z M 164.73 196.56 L 165.62 196.10 C 166.51 195.65 166.86 194.57 166.40 193.68 C 165.95 192.80 164.86 192.45 163.98 192.90 L 163.08 193.37 C 162.20 193.82 161.85 194.90 162.31 195.79 C 162.76 196.67 163.84 197.02 164.73 196.56 Z M 165.67 196.06 L 166.57 195.56 C 167.42 195.08 167.73 194.00 167.25 193.14 C 166.78 192.28 165.69 191.97 164.83 192.45 L 163.94 192.95 C 163.08 193.43 162.77 194.51 163.25 195.37 C 163.73 196.23 164.81 196.54 165.67 196.06 Z M 166.61 195.51 L 167.47 195.00 C 168.30 194.49 168.57 193.41 168.07 192.58 C 167.57 191.74 166.49 191.47 165.66 191.98 L 164.79 192.49 C 163.96 193.00 163.69 194.08 164.19 194.91 C 164.69 195.75 165.77 196.02 166.61 195.51 Z M 167.51 194.95 L 168.34 194.41 C 169.15 193.89 169.39 192.81 168.87 192.00 C 168.34 191.19 167.27 190.96 166.46 191.48 L 165.62 192.02 C 164.81 192.54 164.58 193.62 165.10 194.43 C 165.62 195.24 166.70 195.47 167.51 194.95 Z M 168.37 194.37 L 169.18 193.82 C 169.97 193.28 170.17 192.21 169.63 191.42 C 169.09 190.63 168.02 190.43 167.23 190.97 L 166.42 191.52 C 165.64 192.06 165.44 193.14 165.97 193.92 C 166.51 194.71 167.59 194.91 168.37 194.37 Z M 169.21 193.78 L 169.99 193.21 C 170.76 192.66 170.93 191.59 170.38 190.83 C 169.82 190.06 168.76 189.89 167.99 190.44 L 167.21 191.01 C 166.44 191.56 166.27 192.63 166.82 193.40 C 167.37 194.16 168.44 194.33 169.21 193.78 Z M 170.02 193.18 L 170.79 192.59 C 171.53 192.02 171.68 190.96 171.11 190.22 C 170.55 189.47 169.48 189.33 168.74 189.89 L 167.97 190.48 C 167.22 191.05 167.08 192.11 167.64 192.85 C 168.21 193.60 169.27 193.74 170.02 193.18 Z M 170.81 192.55 L 171.57 191.95 C 172.30 191.37 172.42 190.31 171.84 189.59 C 171.26 188.86 170.20 188.74 169.48 189.32 L 168.72 189.93 C 167.99 190.51 167.87 191.56 168.45 192.29 C 169.03 193.01 170.09 193.13 170.81 192.55 Z M 171.59 191.91 L 172.35 191.28 C 173.06 190.69 173.15 189.64 172.57 188.93 C 171.98 188.22 170.93 188.13 170.22 188.72 L 169.46 189.35 C 168.75 189.94 168.66 190.99 169.25 191.70 C 169.84 192.41 170.89 192.50 171.59 191.91 Z M 172.37 191.25 L 173.14 190.57 C 173.83 189.98 173.90 188.93 173.31 188.25 C 172.71 187.56 171.67 187.48 170.98 188.08 L 170.20 188.75 C 169.52 189.35 169.44 190.39 170.04 191.08 C 170.64 191.77 171.68 191.84 172.37 191.25 Z M 173.15 190.55 L 173.92 189.86 C 174.60 189.25 174.65 188.22 174.05 187.54 C 173.44 186.87 172.41 186.81 171.74 187.42 L 170.97 188.11 C 170.29 188.71 170.24 189.75 170.84 190.42 C 171.44 191.09 172.48 191.15 173.15 190.55 Z M 173.93 189.84 L 174.63 189.20 C 175.29 188.59 175.34 187.56 174.73 186.89 C 174.12 186.23 173.09 186.19 172.42 186.80 L 171.73 187.44 C 171.06 188.05 171.02 189.08 171.63 189.74 C 172.24 190.40 173.27 190.45 173.93 189.84 Z M 174.64 189.18 L 175.35 188.52 C 176.01 187.90 176.04 186.87 175.43 186.22 C 174.82 185.56 173.79 185.53 173.13 186.14 L 172.41 186.81 C 171.76 187.42 171.72 188.45 172.34 189.11 C 172.95 189.76 173.98 189.80 174.64 189.18 Z M 175.36 188.51 L 176.09 187.81 C 176.74 187.20 176.76 186.17 176.15 185.52 C 175.53 184.87 174.50 184.84 173.85 185.46 L 173.12 186.15 C 172.47 186.77 172.45 187.79 173.06 188.44 C 173.68 189.09 174.71 189.12 175.36 188.51 Z M 176.09 187.81 L 176.83 187.10 C 177.47 186.48 177.50 185.46 176.88 184.81 C 176.26 184.16 175.23 184.14 174.59 184.76 L 173.85 185.47 C 173.20 186.08 173.18 187.11 173.80 187.76 C 174.42 188.40 175.44 188.43 176.09 187.81 Z M 176.83 187.09 L 177.57 186.38 C 178.22 185.76 178.24 184.74 177.62 184.09 C 177.00 183.45 175.97 183.43 175.33 184.05 L 174.59 184.76 C 173.94 185.38 173.92 186.41 174.54 187.05 C 175.16 187.69 176.19 187.71 176.83 187.09 Z M 177.57 186.37 L 178.14 185.82 C 178.78 185.21 178.80 184.18 178.18 183.54 C 177.57 182.90 176.54 182.88 175.90 183.50 L 175.33 184.05 C 174.69 184.67 174.67 185.69 175.29 186.33 C 175.91 186.97 176.93 186.99 177.57 186.37 Z"
      fill="black"
      fill-rule="nonzero" /></svg>