<svg xmlns="http://www.w3.org/2000/svg" width="300" height="300" viewBox="0 0 300 300">
<path d="M 136.89 133.95 L 136.98 134.95 C 137.10 136.28 138.28 137.27 139.61 137.15 C 140.94 137.03 141.93 135.86 141.81 134.52 L 141.72 133.52 C 141.61 132.19 140.43 131.20 139.09 131.32 C 137.76 131.44 136.77 132.61 136.89 133.95 Z M 136.97 134.97 L 137.07 135.96 C 137.20 137.30 138.39 138.28 139.72 138.15 C 141.06 138.03 142.04 136.84 141.91 135.50 L 141.82 134.50 C 141.69 133.17 140.50 132.19 139.16 132.31 C 137.83 132.44 136.85 133.63 136.97 134.97 Z M 137.07 136.00 L 137.17 136.99 C 137.32 138.33 138.53 139.30 139.87 139.15 C 141.21 139.00 142.17 137.80 142.03 136.46 L 141.92 135.47 C 141.77 134.13 140.56 133.16 139.22 133.31 C 137.88 133.45 136.92 134.66 137.07 136.00 Z M 137.17 137.05 L 137.31 138.04 C 137.48 139.38 138.71 140.32 140.05 140.14 C 141.39 139.96 142.34 138.73 142.16 137.39 L 142.03 136.40 C 141.85 135.06 140.62 134.12 139.28 134.30 C 137.94 134.48 137.00 135.71 137.17 137.05 Z M 137.31 138.09 L 137.46 139.08 C 137.67 140.42 138.92 141.33 140.26 141.13 C 141.60 140.92 142.51 139.67 142.31 138.33 L 142.15 137.34 C 141.95 136.00 140.70 135.09 139.36 135.29 C 138.02 135.50 137.10 136.75 137.31 138.09 Z M 137.47 139.11 L 137.63 140.09 C 137.85 141.43 139.11 142.33 140.45 142.11 C 141.78 141.89 142.69 140.63 142.47 139.29 L 142.30 138.31 C 142.08 136.97 140.82 136.07 139.49 136.29 C 138.15 136.51 137.25 137.77 137.47 139.11 Z M 137.63 140.09 L 137.79 141.07 C 138.01 142.40 139.27 143.31 140.60 143.09 C 141.94 142.87 142.84 141.61 142.63 140.28 L 142.47 139.30 C 142.25 137.96 140.99 137.05 139.65 137.27 C 138.32 137.49 137.41 138.75 137.63 140.09 Z M 137.79 141.04 L 137.92 141.94 C 138.12 143.28 139.37 144.20 140.71 144.00 C 142.05 143.80 142.97 142.55 142.77 141.21 L 142.63 140.31 C 142.43 138.97 141.18 138.05 139.84 138.25 C 138.51 138.45 137.58 139.70 137.79 141.04 Z M 137.92 141.88 L 138.04 142.83 C 138.20 144.17 139.43 145.12 140.77 144.95 C 142.11 144.78 143.06 143.56 142.89 142.21 L 142.77 141.27 C 142.60 139.93 141.38 138.98 140.04 139.15 C 138.70 139.32 137.75 140.54 137.92 141.88 Z M 138.03 142.75 L 138.13 143.78 C 138.25 145.13 139.45 146.11 140.79 145.99 C 142.14 145.86 143.12 144.66 143.00 143.32 L 142.90 142.29 C 142.77 140.95 141.58 139.96 140.23 140.09 C 138.89 140.21 137.90 141.41 138.03 142.75 Z M 138.12 143.70 L 138.19 144.78 C 138.27 146.13 139.43 147.15 140.78 147.07 C 142.12 146.99 143.15 145.83 143.07 144.48 L 143.00 143.40 C 142.92 142.05 141.76 141.03 140.41 141.11 C 139.06 141.19 138.04 142.35 138.12 143.70 Z M 138.19 144.72 L 138.22 145.70 C 138.27 147.05 139.40 148.10 140.75 148.06 C 142.10 148.01 143.15 146.88 143.10 145.53 L 143.07 144.55 C 143.02 143.20 141.89 142.14 140.54 142.19 C 139.19 142.24 138.14 143.37 138.19 144.72 Z M 138.22 145.66 L 138.24 146.69 C 138.27 148.03 139.38 149.11 140.73 149.08 C 142.07 149.05 143.15 147.94 143.12 146.59 L 143.10 145.57 C 143.07 144.22 141.96 143.15 140.62 143.18 C 139.27 143.20 138.20 144.31 138.22 145.66 Z M 138.25 146.66 L 138.25 147.70 C 138.27 149.04 139.37 150.12 140.71 150.11 C 142.06 150.10 143.14 149.00 143.13 147.65 L 143.12 146.62 C 143.11 145.27 142.01 144.19 140.66 144.21 C 139.31 144.22 138.23 145.32 138.25 146.66 Z M 138.26 147.68 L 138.26 148.68 C 138.26 150.03 139.36 151.11 140.70 151.11 C 142.04 151.10 143.13 150.01 143.13 148.67 L 143.12 147.67 C 143.12 146.32 142.03 145.24 140.68 145.24 C 139.34 145.25 138.25 146.34 138.26 147.68 Z M 138.26 148.68 L 138.26 149.71 C 138.26 151.05 139.35 152.14 140.69 152.14 C 142.03 152.14 143.12 151.05 143.12 149.71 L 143.12 148.68 C 143.12 147.33 142.03 146.25 140.69 146.25 C 139.35 146.25 138.26 147.33 138.26 148.68 Z M 138.27 149.71 L 138.27 150.78 C 138.27 152.11 139.35 153.20 140.69 153.20 C 142.03 153.20 143.12 152.11 143.12 150.78 L 143.12 149.71 C 143.12 148.37 142.03 147.29 140.69 147.29 C 139.35 147.29 138.27 148.37 138.27 149.71 Z M 138.28 150.78 L 138.28 151.75 C 138.28 153.08 139.36 154.17 140.69 154.17 C 142.03 154.17 143.11 153.08 143.11 151.75 L 143.11 150.78 C 143.11 149.44 142.03 148.36 140.69 148.36 C 139.36 148.36 138.28 149.44 138.28 150.78 Z M 138.28 151.75 L 138.28 152.68 C 138.28 154.01 139.36 155.09 140.69 155.09 C 142.02 155.09 143.10 154.01 143.10 152.68 L 143.10 151.75 C 143.10 150.42 142.02 149.34 140.69 149.34 C 139.36 149.34 138.28 150.42 138.28 151.75 Z M 138.29 152.67 L 138.29 153.63 C 138.29 154.95 139.36 156.03 140.69 156.03 C 142.02 156.03 143.10 154.95 143.10 153.63 L 143.10 152.68 C 143.10 151.35 142.02 150.27 140.69 150.27 C 139.37 150.27 138.29 151.35 138.29 152.67 Z M 138.29 153.62 L 138.29 154.60 C 138.29 155.93 139.36 157.01 140.68 157.01 C 142.01 157.01 143.09 155.94 143.09 154.61 L 143.09 153.63 C 143.10 152.31 142.03 151.23 140.70 151.22 C 139.37 151.22 138.29 152.29 138.29 153.62 Z M 138.29 154.59 L 138.29 155.60 C 138.27 156.92 139.34 158.00 140.66 158.01 C 141.99 158.02 143.07 156.96 143.08 155.63 L 143.09 154.63 C 143.10 153.30 142.03 152.22 140.71 152.21 C 139.39 152.20 138.30 153.27 138.29 154.59 Z M 138.29 155.58 L 138.27 156.60 C 138.25 157.93 139.31 159.01 140.63 159.04 C 141.95 159.06 143.04 158.00 143.06 156.68 L 143.08 155.65 C 143.10 154.33 142.04 153.24 140.72 153.22 C 139.40 153.20 138.31 154.25 138.29 155.58 Z M 138.28 156.58 L 138.25 157.52 C 138.22 158.84 139.26 159.94 140.57 159.98 C 141.89 160.01 142.99 158.98 143.02 157.66 L 143.05 156.71 C 143.09 155.39 142.05 154.29 140.73 154.26 C 139.42 154.22 138.32 155.26 138.28 156.58 Z M 138.27 157.47 L 138.22 158.46 C 138.16 159.76 139.16 160.88 140.47 160.94 C 141.78 161.01 142.90 160.00 142.96 158.69 L 143.01 157.71 C 143.08 156.40 142.07 155.29 140.76 155.22 C 139.45 155.16 138.33 156.17 138.27 157.47 Z M 138.24 158.38 L 138.15 159.40 C 138.05 160.70 139.02 161.84 140.32 161.94 C 141.62 162.05 142.76 161.08 142.86 159.78 L 142.95 158.76 C 143.05 157.46 142.08 156.32 140.78 156.22 C 139.48 156.11 138.34 157.08 138.24 158.38 Z M 138.18 159.30 L 138.05 160.35 C 137.89 161.63 138.81 162.80 140.10 162.96 C 141.39 163.12 142.56 162.20 142.72 160.91 L 142.84 159.87 C 143.00 158.58 142.08 157.41 140.79 157.25 C 139.50 157.10 138.33 158.01 138.18 159.30 Z M 138.07 160.26 L 137.94 161.06 C 137.74 162.33 138.61 163.53 139.88 163.74 C 141.16 163.94 142.36 163.08 142.56 161.80 L 142.69 161.00 C 142.90 159.72 142.03 158.52 140.75 158.32 C 139.48 158.11 138.28 158.98 138.07 160.26 Z M 137.96 160.99 L 137.80 161.84 C 137.56 163.10 138.39 164.32 139.65 164.57 C 140.91 164.81 142.14 163.98 142.38 162.72 L 142.54 161.87 C 142.79 160.60 141.96 159.38 140.69 159.14 C 139.43 158.90 138.21 159.72 137.96 160.99 Z M 137.82 161.78 L 137.62 162.70 C 137.35 163.96 138.14 165.20 139.39 165.47 C 140.65 165.74 141.88 164.95 142.16 163.70 L 142.36 162.77 C 142.63 161.52 141.84 160.28 140.59 160.01 C 139.33 159.73 138.09 160.53 137.82 161.78 Z M 137.64 162.67 L 137.39 163.69 C 137.10 164.93 137.87 166.18 139.11 166.48 C 140.35 166.77 141.60 166.00 141.90 164.76 L 142.14 163.73 C 142.44 162.49 141.67 161.24 140.42 160.95 C 139.18 160.65 137.93 161.42 137.64 162.67 Z M 137.41 163.66 L 137.12 164.82 C 136.81 166.05 137.56 167.31 138.80 167.62 C 140.03 167.92 141.28 167.17 141.59 165.94 L 141.88 164.78 C 142.19 163.55 141.44 162.30 140.21 161.99 C 138.97 161.68 137.72 162.43 137.41 163.66 Z M 137.13 164.81 L 136.86 165.86 C 136.54 167.09 137.28 168.34 138.51 168.66 C 139.74 168.98 140.99 168.24 141.31 167.01 L 141.58 165.95 C 141.90 164.72 141.16 163.47 139.93 163.15 C 138.70 162.84 137.45 163.58 137.13 164.81 Z M 136.87 165.85 L 136.63 166.77 C 136.31 168.00 137.04 169.25 138.26 169.57 C 139.49 169.89 140.74 169.16 141.06 167.93 L 141.30 167.02 C 141.62 165.79 140.89 164.54 139.67 164.22 C 138.44 163.90 137.19 164.63 136.87 165.85 Z M 136.63 166.77 L 136.38 167.73 C 136.05 168.96 136.78 170.21 138.00 170.53 C 139.22 170.86 140.47 170.13 140.80 168.91 L 141.05 167.94 C 141.38 166.72 140.65 165.47 139.43 165.14 C 138.21 164.82 136.96 165.55 136.63 166.77 Z M 136.38 167.73 L 136.12 168.73 C 135.79 169.94 136.51 171.20 137.73 171.52 C 138.95 171.85 140.20 171.13 140.52 169.91 L 140.79 168.91 C 141.12 167.70 140.40 166.44 139.18 166.12 C 137.96 165.79 136.71 166.51 136.38 167.73 Z M 136.12 168.72 L 135.85 169.73 C 135.52 170.95 136.23 172.20 137.45 172.53 C 138.66 172.86 139.91 172.14 140.24 170.93 L 140.52 169.92 C 140.85 168.70 140.13 167.45 138.92 167.12 C 137.70 166.79 136.45 167.51 136.12 168.72 Z M 135.86 169.73 L 135.58 170.74 C 135.24 171.95 135.95 173.20 137.16 173.53 C 138.37 173.86 139.62 173.15 139.96 171.94 L 140.23 170.93 C 140.57 169.72 139.86 168.47 138.65 168.14 C 137.44 167.81 136.19 168.52 135.86 169.73 Z M 135.58 170.73 L 135.31 171.72 C 134.97 172.92 135.68 174.17 136.88 174.51 C 138.09 174.85 139.34 174.14 139.67 172.94 L 139.95 171.95 C 140.29 170.74 139.58 169.49 138.38 169.16 C 137.17 168.82 135.92 169.52 135.58 170.73 Z M 135.32 171.71 L 135.04 172.67 C 134.70 173.87 135.40 175.12 136.60 175.46 C 137.80 175.80 139.05 175.10 139.39 173.90 L 139.67 172.95 C 140.01 171.75 139.31 170.50 138.11 170.15 C 136.91 169.81 135.66 170.51 135.32 171.71 Z M 135.06 172.66 L 134.78 173.62 C 134.43 174.81 135.12 176.06 136.31 176.41 C 137.51 176.75 138.76 176.07 139.11 174.87 L 139.38 173.91 C 139.73 172.72 139.04 171.47 137.85 171.12 C 136.65 170.77 135.40 171.46 135.06 172.66 Z M 134.80 173.61 L 134.45 174.77 C 134.10 175.95 134.78 177.19 135.96 177.55 C 137.14 177.90 138.38 177.22 138.73 176.04 L 139.08 174.88 C 139.43 173.70 138.76 172.46 137.58 172.10 C 136.40 171.75 135.15 172.42 134.80 173.61 Z M 134.49 174.76 L 134.17 175.81 C 133.81 176.97 134.46 178.20 135.63 178.56 C 136.79 178.92 138.02 178.26 138.38 177.10 L 138.70 176.05 C 139.06 174.89 138.40 173.66 137.24 173.30 C 136.08 172.94 134.85 173.60 134.49 174.76 Z M 134.20 175.80 L 133.90 176.76 C 133.54 177.90 134.18 179.12 135.32 179.48 C 136.46 179.84 137.68 179.21 138.04 178.06 L 138.34 177.11 C 138.70 175.96 138.07 174.75 136.92 174.38 C 135.78 174.02 134.56 174.66 134.20 175.80 Z M 133.93 176.76 L 133.65 177.64 C 133.29 178.76 133.91 179.97 135.04 180.33 C 136.16 180.69 137.37 180.07 137.73 178.94 L 138.01 178.07 C 138.37 176.94 137.75 175.74 136.63 175.37 C 135.50 175.01 134.29 175.63 133.93 176.76 Z M 133.68 177.64 L 133.42 178.46 C 133.06 179.57 133.67 180.76 134.77 181.11 C 135.88 181.47 137.07 180.87 137.43 179.76 L 137.70 178.94 C 138.05 177.83 137.45 176.64 136.34 176.28 C 135.23 175.93 134.04 176.53 133.68 177.64 Z M 133.45 178.47 L 133.17 179.31 C 132.82 180.40 133.42 181.58 134.51 181.93 C 135.61 182.28 136.78 181.68 137.13 180.59 L 137.40 179.75 C 137.75 178.65 137.16 177.48 136.06 177.13 C 134.97 176.78 133.80 177.38 133.45 178.47 Z M 133.20 179.33 L 132.87 180.36 C 132.53 181.43 133.12 182.59 134.20 182.93 C 135.28 183.28 136.43 182.68 136.78 181.60 L 137.11 180.57 C 137.45 179.49 136.86 178.34 135.78 178.00 C 134.70 177.65 133.54 178.25 133.20 179.33 Z M 132.89 180.36 L 132.58 181.33 C 132.24 182.40 132.83 183.54 133.90 183.88 C 134.96 184.22 136.10 183.63 136.44 182.57 L 136.75 181.60 C 137.10 180.53 136.51 179.39 135.44 179.05 C 134.37 178.71 133.23 179.30 132.89 180.36 Z M 132.61 181.33 L 132.31 182.25 C 131.97 183.30 132.54 184.43 133.60 184.77 C 134.65 185.11 135.78 184.54 136.12 183.49 L 136.42 182.57 C 136.76 181.52 136.18 180.39 135.13 180.05 C 134.08 179.70 132.95 180.28 132.61 181.33 Z M 132.34 182.23 L 132.05 183.10 C 131.70 184.13 132.25 185.25 133.29 185.60 C 134.32 185.95 135.45 185.40 135.80 184.36 L 136.09 183.50 C 136.44 182.47 135.88 181.34 134.85 180.99 C 133.81 180.64 132.69 181.20 132.34 182.23 Z M 132.09 183.07 L 131.75 184.00 C 131.39 185.01 131.92 186.13 132.93 186.49 C 133.95 186.86 135.06 186.33 135.43 185.32 L 135.76 184.39 C 136.12 183.37 135.60 182.26 134.58 181.89 C 133.57 181.53 132.45 182.06 132.09 183.07 Z M 131.79 183.99 L 131.45 184.90 C 131.09 185.90 131.60 187.00 132.59 187.37 C 133.59 187.74 134.69 187.23 135.06 186.23 L 135.39 185.32 C 135.76 184.33 135.25 183.22 134.26 182.86 C 133.26 182.49 132.16 183.00 131.79 183.99 Z M 131.48 184.92 L 131.14 185.86 C 130.78 186.84 131.29 187.93 132.27 188.28 C 133.25 188.64 134.33 188.14 134.69 187.15 L 135.03 186.21 C 135.39 185.23 134.88 184.15 133.90 183.79 C 132.92 183.43 131.84 183.94 131.48 184.92 Z M 131.15 185.90 L 130.82 186.86 C 130.48 187.83 131.00 188.89 131.97 189.23 C 132.95 189.56 134.01 189.05 134.34 188.08 L 134.68 187.12 C 135.01 186.14 134.50 185.08 133.52 184.75 C 132.55 184.41 131.49 184.93 131.15 185.90 Z M 130.83 186.90 L 130.54 187.79 C 130.23 188.76 130.75 189.79 131.72 190.11 C 132.69 190.43 133.72 189.90 134.04 188.93 L 134.33 188.04 C 134.65 187.07 134.12 186.03 133.15 185.72 C 132.19 185.40 131.15 185.93 130.83 186.90 Z M 130.55 187.82 L 130.26 188.76 C 129.96 189.72 130.49 190.74 131.45 191.04 C 132.41 191.35 133.43 190.81 133.73 189.85 L 134.03 188.91 C 134.33 187.95 133.79 186.92 132.83 186.62 C 131.88 186.32 130.85 186.86 130.55 187.82 Z M 130.27 188.78 L 129.97 189.77 C 129.68 190.72 130.22 191.72 131.17 192.01 C 132.12 192.30 133.12 191.77 133.41 190.82 L 133.71 189.83 C 134.00 188.88 133.47 187.88 132.52 187.59 C 131.57 187.30 130.56 187.83 130.27 188.78 Z M 129.99 189.78 L 129.69 190.78 C 129.40 191.73 129.94 192.72 130.88 193.00 C 131.82 193.28 132.81 192.75 133.09 191.81 L 133.40 190.81 C 133.68 189.86 133.15 188.87 132.21 188.59 C 131.27 188.31 130.27 188.84 129.99 189.78 Z M 129.70 190.79 L 129.61 191.08 C 129.33 192.01 129.86 193.00 130.80 193.28 C 131.73 193.56 132.71 193.03 132.99 192.09 L 133.08 191.81 C 133.36 190.87 132.83 189.89 131.90 189.61 C 130.96 189.33 129.98 189.86 129.70 190.79 Z"
      fill="black"
      fill-rule="nonzero" /><path d="M 150.95 133.58 L 151.22 134.49 C 151.57 135.63 152.76 136.27 153.90 135.93 C 155.03 135.59 155.68 134.39 155.34 133.26 L 155.07 132.35 C 154.72 131.21 153.53 130.57 152.39 130.91 C 151.25 131.25 150.61 132.45 150.95 133.58 Z M 151.21 134.44 L 151.47 135.38 C 151.78 136.52 152.97 137.20 154.11 136.88 C 155.25 136.56 155.93 135.38 155.61 134.24 L 155.35 133.30 C 155.04 132.16 153.85 131.49 152.71 131.80 C 151.57 132.12 150.89 133.30 151.21 134.44 Z M 151.44 135.29 L 151.67 136.28 C 151.94 137.43 153.09 138.16 154.25 137.89 C 155.40 137.62 156.13 136.47 155.86 135.31 L 155.63 134.33 C 155.37 133.17 154.21 132.45 153.06 132.71 C 151.90 132.98 151.18 134.13 151.44 135.29 Z M 151.64 136.16 L 151.82 137.20 C 152.02 138.37 153.13 139.16 154.30 138.96 C 155.48 138.76 156.26 137.65 156.07 136.48 L 155.89 135.43 C 155.69 134.26 154.58 133.47 153.40 133.67 C 152.23 133.87 151.44 134.98 151.64 136.16 Z M 151.80 137.08 L 151.91 138.04 C 152.05 139.22 153.11 140.07 154.29 139.93 C 155.48 139.80 156.32 138.73 156.19 137.55 L 156.08 136.60 C 155.95 135.42 154.88 134.57 153.70 134.70 C 152.52 134.84 151.67 135.90 151.80 137.08 Z M 151.90 137.95 L 151.98 138.95 C 152.07 140.14 153.10 141.03 154.29 140.94 C 155.47 140.85 156.36 139.82 156.27 138.63 L 156.20 137.63 C 156.11 136.45 155.08 135.56 153.89 135.65 C 152.71 135.73 151.82 136.77 151.90 137.95 Z M 151.97 138.89 L 152.02 139.91 C 152.08 141.10 153.09 142.02 154.27 141.96 C 155.46 141.91 156.38 140.90 156.32 139.71 L 156.28 138.69 C 156.22 137.50 155.21 136.58 154.02 136.64 C 152.84 136.69 151.92 137.70 151.97 138.89 Z M 152.02 139.87 L 152.05 140.89 C 152.08 142.08 153.07 143.02 154.26 142.99 C 155.45 142.95 156.39 141.96 156.36 140.77 L 156.33 139.75 C 156.29 138.56 155.30 137.62 154.11 137.66 C 152.92 137.69 151.99 138.68 152.02 139.87 Z M 152.05 140.87 L 152.07 141.91 C 152.09 143.10 153.07 144.04 154.26 144.02 C 155.45 144.00 156.39 143.02 156.37 141.83 L 156.36 140.79 C 156.34 139.61 155.35 138.66 154.17 138.68 C 152.98 138.70 152.03 139.68 152.05 140.87 Z M 152.07 141.89 L 152.08 142.95 C 152.09 144.14 153.07 145.10 154.26 145.08 C 155.45 145.07 156.40 144.09 156.39 142.90 L 156.37 141.84 C 156.36 140.66 155.39 139.70 154.20 139.72 C 153.01 139.73 152.05 140.71 152.07 141.89 Z M 152.08 142.95 L 152.09 143.96 C 152.10 145.15 153.07 146.11 154.26 146.09 C 155.45 146.08 156.41 145.11 156.40 143.92 L 156.39 142.91 C 156.38 141.72 155.40 140.76 154.21 140.77 C 153.02 140.78 152.07 141.76 152.08 142.95 Z M 152.09 143.96 L 152.10 144.93 C 152.11 146.12 153.09 147.07 154.28 147.06 C 155.46 147.05 156.42 146.07 156.41 144.88 L 156.40 143.92 C 156.38 142.73 155.41 141.77 154.22 141.79 C 153.03 141.80 152.08 142.77 152.09 143.96 Z M 152.10 144.94 L 152.11 145.88 C 152.13 147.07 153.11 148.02 154.30 148.00 C 155.49 147.98 156.44 147.00 156.42 145.81 L 156.41 144.87 C 156.39 143.68 155.41 142.73 154.22 142.75 C 153.03 142.77 152.08 143.75 152.10 144.94 Z M 152.11 145.90 L 152.14 146.95 C 152.17 148.14 153.16 149.08 154.35 149.04 C 155.54 149.01 156.48 148.02 156.45 146.83 L 156.42 145.79 C 156.39 144.60 155.40 143.66 154.21 143.69 C 153.02 143.72 152.08 144.71 152.11 145.90 Z M 152.14 146.96 L 152.17 147.96 C 152.21 149.15 153.21 150.08 154.40 150.04 C 155.59 150.00 156.52 149.01 156.48 147.82 L 156.45 146.82 C 156.41 145.63 155.41 144.70 154.23 144.74 C 153.04 144.78 152.10 145.77 152.14 146.96 Z M 152.17 147.95 L 152.20 148.92 C 152.24 150.11 153.24 151.04 154.42 151.01 C 155.61 150.97 156.55 149.98 156.51 148.79 L 156.48 147.82 C 156.44 146.63 155.45 145.70 154.26 145.73 C 153.07 145.77 152.14 146.76 152.17 147.95 Z M 152.20 148.90 L 152.22 149.83 C 152.25 151.02 153.24 151.97 154.43 151.94 C 155.62 151.91 156.56 150.93 156.53 149.74 L 156.51 148.81 C 156.48 147.62 155.50 146.67 154.31 146.70 C 153.12 146.73 152.18 147.71 152.20 148.90 Z M 152.22 149.82 L 152.24 150.75 C 152.26 151.94 153.24 152.89 154.43 152.87 C 155.62 152.85 156.56 151.88 156.55 150.69 L 156.53 149.75 C 156.51 148.56 155.53 147.61 154.35 147.63 C 153.16 147.65 152.21 148.63 152.22 149.82 Z M 152.24 150.76 L 152.26 151.75 C 152.28 152.94 153.26 153.89 154.45 153.87 C 155.64 153.85 156.58 152.87 156.56 151.68 L 156.55 150.68 C 156.53 149.49 155.54 148.54 154.36 148.56 C 153.17 148.59 152.22 149.57 152.24 150.76 Z M 152.26 151.77 L 152.29 152.86 C 152.32 154.05 153.31 154.99 154.50 154.96 C 155.69 154.93 156.62 153.94 156.59 152.75 L 156.56 151.66 C 156.53 150.47 155.54 149.53 154.35 149.56 C 153.16 149.59 152.23 150.58 152.26 151.77 Z M 152.29 152.89 L 152.32 153.89 C 152.37 155.08 153.37 156.00 154.56 155.96 C 155.75 155.91 156.67 154.91 156.63 153.72 L 156.59 152.72 C 156.55 151.54 155.55 150.61 154.36 150.65 C 153.17 150.70 152.24 151.70 152.29 152.89 Z M 152.33 153.90 L 152.37 154.92 C 152.43 156.11 153.43 157.03 154.62 156.97 C 155.81 156.92 156.73 155.91 156.67 154.73 L 156.63 153.71 C 156.57 152.52 155.57 151.60 154.38 151.65 C 153.19 151.71 152.27 152.71 152.33 153.90 Z M 152.37 154.92 L 152.42 155.96 C 152.48 157.15 153.49 158.06 154.67 158.01 C 155.86 157.95 156.78 156.94 156.72 155.76 L 156.67 154.72 C 156.62 153.53 155.61 152.62 154.42 152.67 C 153.23 152.73 152.32 153.74 152.37 154.92 Z M 152.42 155.95 L 152.47 156.97 C 152.52 158.15 153.53 159.07 154.72 159.02 C 155.90 158.96 156.82 157.96 156.77 156.77 L 156.72 155.76 C 156.67 154.57 155.66 153.65 154.47 153.71 C 153.29 153.76 152.37 154.77 152.42 155.95 Z M 152.47 156.95 L 152.51 157.94 C 152.55 159.13 153.55 160.05 154.74 160.01 C 155.93 159.96 156.85 158.96 156.81 157.77 L 156.77 156.78 C 156.72 155.60 155.72 154.67 154.53 154.72 C 153.35 154.76 152.42 155.76 152.47 156.95 Z M 152.50 157.91 L 152.53 159.02 C 152.57 160.20 153.55 161.14 154.74 161.11 C 155.93 161.08 156.87 160.09 156.84 158.90 L 156.81 157.80 C 156.78 156.61 155.79 155.67 154.60 155.70 C 153.41 155.74 152.47 156.72 152.50 157.91 Z M 152.53 158.99 L 152.55 159.98 C 152.56 161.17 153.54 162.12 154.73 162.10 C 155.91 162.09 156.87 161.11 156.85 159.92 L 156.84 158.93 C 156.82 157.74 155.85 156.79 154.66 156.81 C 153.47 156.82 152.52 157.80 152.53 158.99 Z M 152.55 159.96 L 152.55 160.88 C 152.55 162.07 153.52 163.03 154.71 163.02 C 155.90 163.02 156.86 162.05 156.85 160.86 L 156.85 159.94 C 156.85 158.75 155.88 157.79 154.69 157.80 C 153.50 157.80 152.54 158.77 152.55 159.96 Z M 152.55 160.87 L 152.55 161.82 C 152.55 163.01 153.51 163.98 154.70 163.98 C 155.89 163.98 156.85 163.01 156.85 161.82 L 156.85 160.87 C 156.85 159.68 155.89 158.72 154.70 158.72 C 153.51 158.72 152.55 159.68 152.55 160.87 Z M 152.55 161.82 L 152.55 162.82 C 152.55 164.01 153.51 164.97 154.70 164.97 C 155.89 164.97 156.85 164.01 156.85 162.82 L 156.85 161.82 C 156.85 160.64 155.89 159.67 154.70 159.67 C 153.51 159.67 152.55 160.64 152.55 161.82 Z M 152.55 162.82 L 152.55 163.82 C 152.55 165.01 153.51 165.97 154.70 165.97 C 155.89 165.97 156.85 165.01 156.85 163.82 L 156.85 162.82 C 156.85 161.63 155.89 160.67 154.70 160.67 C 153.51 160.67 152.55 161.63 152.55 162.82 Z M 152.55 163.82 L 152.55 164.83 C 152.55 166.02 153.51 166.98 154.70 166.98 C 155.89 166.98 156.86 166.02 156.86 164.83 L 156.86 163.82 C 156.86 162.63 155.89 161.67 154.70 161.67 C 153.51 161.67 152.55 162.63 152.55 163.82 Z M 152.55 164.83 L 152.55 165.84 C 152.55 167.02 153.51 167.99 154.70 167.99 C 155.89 167.99 156.86 167.02 156.86 165.84 L 156.86 164.83 C 156.86 163.64 155.89 162.67 154.70 162.67 C 153.51 162.67 152.55 163.64 152.55 164.83 Z M 152.55 165.84 L 152.55 166.84 C 152.55 168.03 153.51 168.99 154.70 168.99 C 155.89 168.99 156.86 168.03 156.86 166.84 L 156.86 165.84 C 156.86 164.65 155.89 163.68 154.70 163.68 C 153.51 163.68 152.55 164.65 152.55 165.84 Z M 152.55 166.84 L 152.55 167.83 C 152.55 169.02 153.51 169.98 154.70 169.98 C 155.89 169.98 156.86 169.02 156.86 167.83 L 156.86 166.84 C 156.86 165.65 155.89 164.68 154.70 164.68 C 153.51 164.68 152.55 165.65 152.55 166.84 Z M 152.55 167.83 L 152.55 168.80 C 152.55 169.99 153.51 170.95 154.70 170.95 C 155.89 170.95 156.86 169.99 156.86 168.80 L 156.86 167.83 C 156.86 166.64 155.89 165.67 154.70 165.67 C 153.51 165.67 152.55 166.64 152.55 167.83 Z M 152.55 168.80 L 152.55 169.78 C 152.55 170.97 153.51 171.93 154.70 171.93 C 155.89 171.93 156.86 170.97 156.86 169.78 L 156.86 168.80 C 156.86 167.61 155.89 166.64 154.70 166.64 C 153.51 166.64 152.55 167.61 152.55 168.80 Z M 152.55 169.78 L 152.55 170.80 C 152.55 171.99 153.51 172.96 154.70 172.96 C 155.89 172.96 156.86 171.99 156.86 170.80 L 156.86 169.78 C 156.86 168.59 155.89 167.62 154.70 167.62 C 153.51 167.62 152.55 168.59 152.55 169.78 Z M 152.55 170.80 L 152.55 171.79 C 152.55 172.98 153.51 173.95 154.70 173.95 C 155.89 173.95 156.86 172.98 156.86 171.79 L 156.86 170.80 C 156.86 169.61 155.89 168.65 154.70 168.65 C 153.51 168.65 152.55 169.61 152.55 170.80 Z M 152.55 171.79 L 152.55 172.78 C 152.55 173.97 153.51 174.93 154.70 174.93 C 155.89 174.93 156.86 173.97 156.86 172.78 L 156.86 171.79 C 156.86 170.60 155.89 169.63 154.70 169.63 C 153.51 169.63 152.55 170.60 152.55 171.79 Z M 152.55 172.78 L 152.55 173.80 C 152.55 174.99 153.51 175.95 154.70 175.95 C 155.89 175.95 156.86 174.99 156.86 173.80 L 156.86 172.78 C 156.86 171.59 155.89 170.62 154.70 170.62 C 153.51 170.62 152.55 171.59 152.55 172.78 Z M 152.55 173.80 L 152.55 174.82 C 152.55 176.01 153.51 176.98 154.70 176.98 C 155.89 176.98 156.86 176.01 156.86 174.82 L 156.86 173.80 C 156.86 172.60 155.89 171.64 154.70 171.64 C 153.51 171.64 152.55 172.60 152.55 173.80 Z M 152.55 174.82 L 152.55 175.86 C 152.55 177.05 153.51 178.02 154.70 178.02 C 155.89 178.02 156.86 177.05 156.86 175.86 L 156.86 174.82 C 156.86 173.63 155.89 172.67 154.70 172.67 C 153.51 172.67 152.55 173.63 152.55 174.82 Z M 152.55 175.86 L 152.55 176.88 C 152.55 178.08 153.51 179.04 154.70 179.04 C 155.89 179.04 156.86 178.08 156.86 176.88 L 156.86 175.86 C 156.86 174.67 155.89 173.71 154.70 173.71 C 153.51 173.71 152.55 174.67 152.55 175.86 Z M 152.55 176.88 L 152.55 177.88 C 152.55 179.07 153.51 180.03 154.70 180.03 C 155.89 180.03 156.86 179.07 156.86 177.88 L 156.86 176.88 C 156.86 175.69 155.89 174.73 154.70 174.73 C 153.51 174.73 152.55 175.69 152.55 176.88 Z M 152.55 177.88 L 152.55 178.83 C 152.55 180.02 153.51 180.99 154.70 180.99 C 155.89 180.99 156.86 180.02 156.86 178.83 L 156.86 177.88 C 156.86 176.69 155.89 175.72 154.70 175.72 C 153.51 175.72 152.55 176.69 152.55 177.88 Z M 152.55 178.83 L 152.55 179.86 C 152.55 181.05 153.51 182.02 154.70 182.02 C 155.89 182.02 156.86 181.05 156.86 179.86 L 156.86 178.83 C 156.86 177.64 155.89 176.68 154.70 176.68 C 153.51 176.68 152.55 177.64 152.55 178.83 Z M 152.55 179.86 L 152.55 180.86 C 152.55 182.05 153.51 183.02 154.70 183.02 C 155.89 183.02 156.86 182.05 156.86 180.86 L 156.86 179.86 C 156.86 178.67 155.89 177.71 154.70 177.71 C 153.51 177.71 152.55 178.67 152.55 179.86 Z M 152.55 180.86 L 152.55 181.84 C 152.55 183.03 153.51 183.99 154.70 183.99 C 155.89 183.99 156.86 183.03 156.86 181.84 L 156.86 180.86 C 156.86 179.67 155.89 178.71 154.70 178.71 C 153.51 178.71 152.55 179.67 152.55 180.86 Z M 152.54 181.84 L 152.55 182.82 C 152.55 184.01 153.52 184.97 154.71 184.97 C 155.90 184.97 156.86 184.00 156.86 182.81 L 156.86 181.84 C 156.86 180.64 155.89 179.68 154.70 179.68 C 153.51 179.68 152.54 180.65 152.54 181.84 Z M 152.54 182.88 L 152.57 183.87 C 152.61 185.06 153.61 186.00 154.81 185.96 C 156.00 185.92 156.93 184.92 156.90 183.73 L 156.86 182.74 C 156.83 181.55 155.83 180.61 154.63 180.65 C 153.44 180.69 152.50 181.69 152.54 182.88 Z M 152.58 184.03 L 152.69 185.03 C 152.82 186.22 153.89 187.08 155.08 186.95 C 156.27 186.82 157.13 185.75 157.00 184.56 L 156.89 183.56 C 156.76 182.37 155.69 181.51 154.50 181.64 C 153.31 181.77 152.45 182.84 152.58 184.03 Z M 152.72 185.28 L 152.96 186.31 C 153.22 187.48 154.39 188.21 155.56 187.95 C 156.73 187.68 157.46 186.52 157.20 185.34 L 156.96 184.31 C 156.70 183.14 155.53 182.41 154.36 182.67 C 153.19 182.94 152.46 184.11 152.72 185.28 Z M 153.05 186.62 L 153.45 187.64 C 153.88 188.76 155.15 189.32 156.27 188.88 C 157.39 188.44 157.95 187.18 157.51 186.06 L 157.11 185.03 C 156.67 183.91 155.41 183.36 154.29 183.80 C 153.16 184.23 152.61 185.50 153.05 186.62 Z M 153.66 188.07 L 154.21 188.89 C 154.88 189.89 156.24 190.16 157.24 189.49 C 158.25 188.82 158.51 187.46 157.84 186.46 L 157.29 185.64 C 156.62 184.63 155.26 184.36 154.26 185.04 C 153.26 185.71 152.99 187.06 153.66 188.07 Z M 154.85 189.52 L 155.54 189.96 C 156.56 190.61 157.92 190.30 158.56 189.28 C 159.21 188.26 158.91 186.91 157.89 186.26 L 157.20 185.82 C 156.18 185.17 154.83 185.48 154.18 186.50 C 153.53 187.52 153.83 188.87 154.85 189.52 Z M 156.87 190.29 L 157.71 190.23 C 158.92 190.15 159.82 189.10 159.74 187.89 C 159.65 186.68 158.60 185.77 157.39 185.86 L 156.56 185.92 C 155.35 186.01 154.44 187.06 154.53 188.27 C 154.62 189.48 155.67 190.38 156.87 190.29 Z M 158.55 190.00 L 159.45 189.54 C 160.53 188.98 160.96 187.67 160.41 186.59 C 159.86 185.51 158.54 185.08 157.46 185.63 L 156.55 186.10 C 155.48 186.65 155.05 187.97 155.60 189.05 C 156.15 190.12 157.47 190.55 158.55 190.00 Z M 159.78 189.32 L 160.68 188.64 C 161.64 187.91 161.82 186.54 161.09 185.57 C 160.36 184.61 158.98 184.43 158.02 185.16 L 157.13 185.85 C 156.17 186.58 155.98 187.95 156.72 188.91 C 157.45 189.87 158.82 190.06 159.78 189.32 Z M 160.80 188.53 L 161.49 187.91 C 162.38 187.11 162.46 185.73 161.66 184.84 C 160.86 183.94 159.48 183.86 158.58 184.67 L 157.90 185.28 C 157.00 186.08 156.92 187.46 157.73 188.36 C 158.53 189.25 159.91 189.33 160.80 188.53 Z M 161.55 187.83 L 162.24 187.16 C 163.09 186.32 163.10 184.96 162.27 184.10 C 161.43 183.25 160.06 183.24 159.21 184.07 L 158.52 184.75 C 157.67 185.58 157.65 186.95 158.49 187.80 C 159.33 188.66 160.69 188.67 161.55 187.83 Z M 162.27 187.10 L 162.98 186.36 C 163.80 185.51 163.78 184.15 162.93 183.33 C 162.07 182.51 160.72 182.53 159.89 183.39 L 159.18 184.13 C 158.36 184.98 158.38 186.34 159.23 187.16 C 160.09 187.98 161.45 187.96 162.27 187.10 Z M 162.99 186.33 L 163.73 185.54 C 164.54 184.68 164.49 183.33 163.63 182.53 C 162.78 181.73 161.43 181.77 160.63 182.63 L 159.89 183.42 C 159.08 184.28 159.13 185.62 159.98 186.43 C 160.84 187.23 162.19 187.19 162.99 186.33 Z M 163.73 185.52 L 164.34 184.86 C 165.13 184.01 165.08 182.67 164.23 181.88 C 163.37 181.09 162.04 181.14 161.24 181.99 L 160.63 182.65 C 159.84 183.50 159.89 184.84 160.74 185.63 C 161.60 186.42 162.93 186.37 163.73 185.52 Z M 164.33 184.84 L 164.97 184.14 C 165.76 183.29 165.70 181.96 164.85 181.18 C 164.00 180.40 162.67 180.46 161.89 181.31 L 161.25 182.01 C 160.47 182.86 160.52 184.19 161.37 184.97 C 162.23 185.75 163.55 185.69 164.33 184.84 Z M 164.97 184.11 L 165.64 183.37 C 166.41 182.52 166.34 181.21 165.49 180.44 C 164.64 179.67 163.33 179.74 162.56 180.59 L 161.89 181.34 C 161.12 182.19 161.19 183.50 162.04 184.27 C 162.89 185.03 164.21 184.97 164.97 184.11 Z M 165.65 183.34 L 166.34 182.56 C 167.09 181.70 167.01 180.40 166.15 179.65 C 165.30 178.90 164.00 178.98 163.25 179.84 L 162.56 180.62 C 161.80 181.48 161.89 182.78 162.74 183.53 C 163.60 184.28 164.90 184.20 165.65 183.34 Z M 166.35 182.52 L 167.05 181.69 C 167.79 180.84 167.68 179.55 166.83 178.81 C 165.97 178.08 164.68 178.18 163.95 179.04 L 163.24 179.87 C 162.51 180.73 162.61 182.02 163.47 182.75 C 164.32 183.48 165.61 183.38 166.35 182.52 Z M 167.06 181.66 L 167.68 180.91 C 168.39 180.05 168.27 178.77 167.41 178.06 C 166.55 177.34 165.28 177.46 164.57 178.32 L 163.94 179.08 C 163.23 179.94 163.35 181.21 164.21 181.92 C 165.07 182.64 166.35 182.52 167.06 181.66 Z M 167.68 180.87 L 168.28 180.13 C 168.97 179.27 168.84 178.01 167.98 177.32 C 167.12 176.62 165.86 176.76 165.16 177.62 L 164.56 178.36 C 163.87 179.22 164.01 180.48 164.87 181.17 C 165.73 181.87 166.99 181.73 167.68 180.87 Z M 168.28 180.10 L 168.88 179.33 C 169.56 178.48 169.41 177.23 168.55 176.55 C 167.69 175.88 166.44 176.02 165.77 176.88 L 165.16 177.65 C 164.49 178.51 164.63 179.75 165.49 180.43 C 166.35 181.11 167.60 180.96 168.28 180.10 Z M 168.88 179.31 L 169.49 178.51 C 170.15 177.66 169.99 176.43 169.13 175.76 C 168.28 175.10 167.04 175.26 166.38 176.12 L 165.77 176.91 C 165.11 177.77 165.27 179.00 166.13 179.66 C 166.98 180.32 168.22 180.16 168.88 179.31 Z M 169.48 178.49 L 170.10 177.67 C 170.75 176.82 170.58 175.60 169.72 174.95 C 168.87 174.31 167.65 174.48 167.01 175.33 L 166.39 176.15 C 165.74 177.00 165.91 178.22 166.77 178.86 C 167.62 179.51 168.84 179.34 169.48 178.49 Z M 170.09 177.64 L 170.72 176.80 C 171.35 175.95 171.17 174.75 170.32 174.12 C 169.47 173.49 168.27 173.66 167.64 174.51 L 167.02 175.35 C 166.38 176.20 166.56 177.41 167.41 178.04 C 168.26 178.67 169.46 178.49 170.09 177.64 Z M 170.71 176.78 L 171.33 175.93 C 171.95 175.08 171.77 173.90 170.93 173.28 C 170.08 172.66 168.90 172.84 168.28 173.68 L 167.65 174.54 C 167.03 175.38 167.21 176.57 168.06 177.19 C 168.90 177.81 170.09 177.62 170.71 176.78 Z M 171.32 175.90 L 171.93 175.07 C 172.53 174.23 172.34 173.06 171.51 172.45 C 170.67 171.85 169.50 172.03 168.89 172.87 L 168.29 173.71 C 167.68 174.55 167.87 175.72 168.71 176.32 C 169.55 176.93 170.72 176.74 171.32 175.90 Z M 171.91 175.04 L 172.52 174.19 C 173.11 173.37 172.92 172.21 172.09 171.62 C 171.26 171.03 170.10 171.22 169.51 172.05 L 168.91 172.90 C 168.32 173.73 168.51 174.88 169.34 175.47 C 170.17 176.06 171.32 175.87 171.91 175.04 Z M 172.50 174.17 L 173.10 173.32 C 173.67 172.50 173.48 171.37 172.65 170.79 C 171.83 170.21 170.70 170.41 170.12 171.23 L 169.53 172.08 C 168.95 172.90 169.15 174.03 169.97 174.61 C 170.79 175.19 171.92 174.99 172.50 174.17 Z M 173.08 173.30 L 173.66 172.46 C 174.22 171.65 174.02 170.53 173.21 169.97 C 172.39 169.40 171.28 169.61 170.71 170.42 L 170.13 171.26 C 169.57 172.07 169.77 173.19 170.59 173.75 C 171.40 174.32 172.52 174.11 173.08 173.30 Z M 173.65 172.43 L 174.20 171.62 C 174.75 170.81 174.54 169.71 173.73 169.16 C 172.93 168.61 171.83 168.82 171.28 169.63 L 170.72 170.45 C 170.18 171.26 170.39 172.36 171.19 172.90 C 172.00 173.45 173.10 173.24 173.65 172.43 Z M 174.19 171.59 L 174.72 170.80 C 175.25 169.99 175.03 168.91 174.23 168.38 C 173.43 167.85 172.35 168.07 171.82 168.87 L 171.29 169.66 C 170.76 170.46 170.98 171.54 171.78 172.07 C 172.58 172.61 173.66 172.39 174.19 171.59 Z M 174.71 170.76 L 175.24 169.94 C 175.76 169.14 175.53 168.08 174.73 167.56 C 173.93 167.05 172.87 167.28 172.36 168.07 L 171.82 168.90 C 171.31 169.70 171.54 170.76 172.34 171.27 C 173.13 171.79 174.20 171.56 174.71 170.76 Z M 175.24 169.90 L 175.82 168.96 C 176.32 168.17 176.07 167.12 175.28 166.63 C 174.48 166.14 173.44 166.38 172.94 167.17 L 172.36 168.11 C 171.87 168.91 172.11 169.95 172.91 170.44 C 173.70 170.94 174.75 170.69 175.24 169.90 Z M 175.82 168.93 L 176.35 168.05 C 176.82 167.25 176.56 166.23 175.77 165.75 C 174.97 165.28 173.94 165.53 173.47 166.33 L 172.94 167.21 C 172.47 168.00 172.73 169.03 173.52 169.51 C 174.32 169.98 175.35 169.72 175.82 168.93 Z M 176.34 168.02 L 176.83 167.18 C 177.29 166.39 177.01 165.37 176.22 164.91 C 175.43 164.46 174.42 164.73 173.96 165.52 L 173.47 166.36 C 173.01 167.15 173.29 168.17 174.08 168.62 C 174.87 169.08 175.88 168.81 176.34 168.02 Z M 176.82 167.16 L 177.28 166.34 C 177.72 165.55 177.44 164.56 176.66 164.11 C 175.87 163.67 174.87 163.94 174.42 164.73 L 173.96 165.55 C 173.52 166.33 173.80 167.33 174.59 167.78 C 175.38 168.22 176.38 167.94 176.82 167.16 Z M 177.27 166.33 L 177.67 165.60 C 178.10 164.82 177.82 163.83 177.04 163.40 C 176.26 162.96 175.27 163.24 174.84 164.03 L 174.43 164.75 C 174.00 165.53 174.28 166.52 175.06 166.95 C 175.84 167.39 176.83 167.11 177.27 166.33 Z"
      fill="black"
      fill-rule="nonzero" /></svg>