<svg xmlns="http://www.w3.org/2000/svg" width="300" height="300" viewBox="0 0 300 300">
<path d="M 132.47 132.65 L 131.10 132.89 C 129.90 133.10 129.11 134.23 129.31 135.42 C 129.52 136.61 130.65 137.41 131.84 137.21 L 133.22 136.97 C 134.41 136.76 135.21 135.63 135.00 134.44 C 134.79 133.25 133.66 132.45 132.47 132.65 Z M 130.92 132.85 L 130.12 133.05 C 128.91 133.35 128.17 134.58 128.47 135.79 C 128.77 137.01 130.00 137.75 131.21 137.45 L 132.02 137.25 C 133.23 136.95 133.97 135.72 133.67 134.50 C 133.37 133.29 132.14 132.55 130.92 132.85 Z M 129.49 137.25 L 129.68 137.37 C 130.79 138.02 132.21 137.65 132.86 136.54 C 133.51 135.43 133.14 134.01 132.04 133.36 L 131.85 133.24 C 130.74 132.59 129.31 132.96 128.66 134.07 C 128.01 135.18 128.38 136.60 129.49 137.25 Z M 130.74 137.71 L 131.56 137.76 C 132.86 137.82 133.97 136.82 134.03 135.52 C 134.10 134.22 133.10 133.12 131.80 133.05 L 130.98 133.01 C 129.68 132.94 128.57 133.94 128.50 135.24 C 128.44 136.54 129.44 137.65 130.74 137.71 Z M 131.67 137.77 L 132.85 137.78 C 134.16 137.78 135.22 136.72 135.22 135.41 C 135.23 134.10 134.17 133.04 132.86 133.04 L 131.69 133.03 C 130.38 133.03 129.31 134.09 129.31 135.40 C 129.31 136.70 130.36 137.77 131.67 137.77 Z M 132.91 137.79 L 134.18 137.76 C 135.49 137.73 136.54 136.64 136.51 135.32 C 136.48 134.01 135.39 132.96 134.07 132.99 L 132.80 133.02 C 131.48 133.05 130.44 134.14 130.47 135.46 C 130.50 136.78 131.59 137.82 132.91 137.79 Z M 134.23 137.77 L 135.27 137.72 C 136.59 137.66 137.61 136.54 137.55 135.22 C 137.49 133.90 136.37 132.88 135.05 132.94 L 134.01 132.99 C 132.70 133.05 131.67 134.17 131.73 135.49 C 131.79 136.80 132.91 137.83 134.23 137.77 Z M 135.31 137.72 L 136.27 137.66 C 137.59 137.57 138.59 136.43 138.51 135.12 C 138.42 133.80 137.29 132.80 135.97 132.88 L 135.01 132.94 C 133.69 133.03 132.69 134.16 132.77 135.48 C 132.86 136.80 133.99 137.80 135.31 137.72 Z M 136.30 137.65 L 137.26 137.58 C 138.58 137.49 139.57 136.34 139.47 135.02 C 139.37 133.70 138.23 132.71 136.91 132.81 L 135.94 132.88 C 134.63 132.98 133.64 134.13 133.73 135.45 C 133.83 136.76 134.98 137.75 136.30 137.65 Z M 137.26 137.58 L 138.30 137.51 C 139.62 137.41 140.61 136.26 140.51 134.95 C 140.41 133.63 139.26 132.64 137.95 132.73 L 136.91 132.81 C 135.59 132.91 134.60 134.05 134.70 135.37 C 134.79 136.69 135.94 137.68 137.26 137.58 Z M 138.28 137.51 L 139.18 137.45 C 140.50 137.36 141.49 136.22 141.40 134.90 C 141.32 133.58 140.17 132.58 138.86 132.67 L 137.96 132.73 C 136.64 132.82 135.64 133.96 135.73 135.28 C 135.82 136.60 136.96 137.60 138.28 137.51 Z M 139.16 137.45 L 140.12 137.39 C 141.44 137.31 142.44 136.17 142.36 134.85 C 142.28 133.53 141.14 132.53 139.83 132.61 L 138.87 132.67 C 137.55 132.75 136.55 133.89 136.63 135.21 C 136.71 136.53 137.85 137.53 139.16 137.45 Z M 140.11 137.39 L 141.13 137.33 C 142.44 137.25 143.45 136.12 143.37 134.80 C 143.30 133.48 142.16 132.48 140.84 132.55 L 139.83 132.61 C 138.51 132.69 137.51 133.82 137.58 135.14 C 137.66 136.46 138.80 137.47 140.11 137.39 Z M 141.12 137.33 L 142.17 137.27 C 143.49 137.20 144.50 136.07 144.42 134.75 C 144.35 133.43 143.22 132.42 141.90 132.49 L 140.85 132.55 C 139.53 132.63 138.52 133.76 138.60 135.08 C 138.67 136.40 139.80 137.41 141.12 137.33 Z M 142.17 137.27 L 143.23 137.21 C 144.55 137.14 145.56 136.01 145.49 134.69 C 145.42 133.37 144.29 132.36 142.97 132.43 L 141.90 132.49 C 140.58 132.57 139.57 133.70 139.64 135.02 C 139.72 136.33 140.85 137.34 142.17 137.27 Z M 143.23 137.21 L 144.28 137.15 C 145.60 137.08 146.61 135.95 146.54 134.63 C 146.47 133.31 145.34 132.30 144.02 132.38 L 142.97 132.43 C 141.65 132.51 140.64 133.64 140.71 134.95 C 140.79 136.27 141.91 137.28 143.23 137.21 Z M 144.28 137.15 L 145.32 137.09 C 146.64 137.02 147.65 135.90 147.58 134.58 C 147.50 133.26 146.38 132.25 145.06 132.32 L 144.02 132.38 C 142.70 132.45 141.69 133.58 141.77 134.89 C 141.84 136.21 142.96 137.22 144.28 137.15 Z M 145.31 137.09 L 146.33 137.04 C 147.65 136.97 148.66 135.85 148.59 134.53 C 148.53 133.22 147.40 132.20 146.09 132.27 L 145.07 132.32 C 143.75 132.39 142.74 133.51 142.81 134.83 C 142.87 136.15 144.00 137.16 145.31 137.09 Z M 146.32 137.04 L 147.31 136.99 C 148.63 136.93 149.64 135.81 149.58 134.50 C 149.52 133.18 148.40 132.16 147.09 132.23 L 146.10 132.27 C 144.78 132.34 143.77 133.45 143.83 134.77 C 143.89 136.08 145.01 137.10 146.32 137.04 Z M 147.30 136.99 L 148.25 136.95 C 149.56 136.90 150.58 135.79 150.53 134.47 C 150.48 133.16 149.37 132.14 148.05 132.19 L 147.10 132.23 C 145.79 132.28 144.77 133.39 144.82 134.71 C 144.87 136.02 145.98 137.04 147.30 136.99 Z M 148.23 136.95 L 149.23 136.92 C 150.54 136.87 151.57 135.78 151.53 134.46 C 151.49 133.15 150.39 132.12 149.08 132.16 L 148.08 132.19 C 146.76 132.23 145.73 133.33 145.77 134.64 C 145.81 135.96 146.91 136.99 148.23 136.95 Z M 149.21 136.91 L 150.25 136.89 C 151.56 136.86 152.60 135.77 152.57 134.47 C 152.54 133.16 151.46 132.12 150.15 132.14 L 149.11 132.17 C 147.80 132.19 146.76 133.28 146.78 134.59 C 146.81 135.90 147.90 136.94 149.21 136.91 Z M 150.23 136.88 L 151.22 136.87 C 152.53 136.85 153.57 135.77 153.55 134.47 C 153.53 133.16 152.46 132.12 151.15 132.14 L 150.16 132.15 C 148.86 132.17 147.81 133.24 147.83 134.55 C 147.85 135.86 148.93 136.90 150.23 136.88 Z M 151.22 136.86 L 152.18 136.85 C 153.48 136.83 154.52 135.76 154.50 134.46 C 154.49 133.16 153.42 132.12 152.12 132.13 L 151.16 132.15 C 149.85 132.16 148.81 133.23 148.83 134.53 C 148.85 135.83 149.91 136.87 151.22 136.86 Z M 152.19 136.84 L 153.13 136.82 C 154.43 136.80 155.46 135.73 155.44 134.43 C 155.42 133.14 154.35 132.10 153.05 132.12 L 152.11 132.14 C 150.81 132.16 149.78 133.23 149.80 134.53 C 149.82 135.83 150.89 136.86 152.19 136.84 Z M 153.15 136.81 L 154.10 136.79 C 155.39 136.76 156.42 135.69 156.38 134.40 C 156.35 133.10 155.28 132.08 153.99 132.11 L 153.04 132.13 C 151.75 132.16 150.72 133.24 150.75 134.53 C 150.79 135.82 151.86 136.84 153.15 136.81 Z M 154.11 136.78 L 155.08 136.76 C 156.37 136.72 157.38 135.65 157.35 134.36 C 157.32 133.08 156.24 132.06 154.96 132.09 L 153.98 132.12 C 152.70 132.15 151.68 133.23 151.71 134.51 C 151.75 135.80 152.82 136.82 154.11 136.78 Z M 155.08 136.75 L 156.09 136.72 C 157.37 136.69 158.39 135.62 158.35 134.34 C 158.32 133.06 157.26 132.04 155.97 132.08 L 154.96 132.10 C 153.68 132.14 152.67 133.20 152.70 134.48 C 152.73 135.77 153.80 136.78 155.08 136.75 Z M 156.08 136.71 L 157.14 136.69 C 158.42 136.66 159.44 135.61 159.41 134.33 C 159.38 133.05 158.33 132.04 157.05 132.06 L 155.98 132.09 C 154.71 132.11 153.69 133.17 153.72 134.45 C 153.75 135.72 154.80 136.74 156.08 136.71 Z M 157.13 136.68 L 158.14 136.67 C 159.41 136.65 160.43 135.60 160.41 134.33 C 160.39 133.06 159.35 132.04 158.07 132.06 L 157.06 132.07 C 155.79 132.09 154.78 133.14 154.79 134.41 C 154.81 135.68 155.86 136.70 157.13 136.68 Z M 158.12 136.65 L 159.15 136.65 C 160.41 136.64 161.43 135.60 161.42 134.34 C 161.41 133.07 160.38 132.05 159.11 132.06 L 158.09 132.07 C 156.82 132.08 155.80 133.12 155.81 134.38 C 155.82 135.65 156.86 136.66 158.12 136.65 Z M 159.14 136.63 L 160.16 136.63 C 161.42 136.62 162.44 135.60 162.43 134.34 C 162.43 133.08 161.40 132.07 160.15 132.07 L 159.12 132.08 C 157.86 132.08 156.85 133.11 156.85 134.36 C 156.86 135.62 157.88 136.64 159.14 136.63 Z M 160.16 136.62 L 161.16 136.62 C 162.41 136.61 163.42 135.60 163.42 134.35 C 163.42 133.09 162.40 132.08 161.15 132.08 L 160.15 132.08 C 158.90 132.09 157.89 133.10 157.89 134.35 C 157.89 135.61 158.91 136.62 160.16 136.62 Z M 161.16 136.60 L 162.11 136.60 C 163.35 136.60 164.36 135.59 164.36 134.35 C 164.36 133.10 163.35 132.09 162.11 132.10 L 161.16 132.10 C 159.91 132.10 158.90 133.11 158.90 134.35 C 158.90 135.59 159.91 136.60 161.16 136.60 Z M 162.11 136.58 L 163.20 136.58 C 164.44 136.58 165.43 135.58 165.43 134.35 C 165.43 133.12 164.44 132.12 163.20 132.12 L 162.11 132.12 C 160.88 132.12 159.88 133.12 159.88 134.35 C 159.88 135.58 160.88 136.58 162.11 136.58 Z M 163.20 136.55 L 164.21 136.55 C 165.42 136.55 166.41 135.56 166.41 134.35 C 166.41 133.14 165.42 132.15 164.21 132.15 L 163.20 132.15 C 161.99 132.15 161.01 133.14 161.01 134.35 C 161.01 135.56 161.99 136.55 163.20 136.55 Z M 164.21 136.51 L 165.16 136.51 C 166.36 136.51 167.33 135.54 167.33 134.35 C 167.33 133.15 166.36 132.19 165.16 132.19 L 164.21 132.19 C 163.02 132.19 162.05 133.15 162.05 134.35 C 162.05 135.54 163.02 136.51 164.21 136.51 Z M 165.16 136.48 L 166.10 136.48 C 167.28 136.48 168.23 135.52 168.23 134.35 C 168.23 133.17 167.28 132.22 166.10 132.22 L 165.16 132.22 C 163.99 132.22 163.03 133.17 163.03 134.35 C 163.03 135.52 163.99 136.48 165.16 136.48 Z M 166.10 136.44 L 167.10 136.44 C 168.25 136.44 169.19 135.51 169.19 134.35 C 169.19 133.19 168.25 132.26 167.10 132.26 L 166.10 132.26 C 164.95 132.26 164.01 133.19 164.01 134.35 C 164.01 135.51 164.95 136.44 166.10 136.44 Z M 167.10 136.41 L 168.10 136.41 C 169.23 136.41 170.16 135.49 170.16 134.35 C 170.16 133.21 169.23 132.29 168.10 132.29 L 167.10 132.29 C 165.96 132.29 165.04 133.21 165.04 134.35 C 165.04 135.49 165.96 136.41 167.10 136.41 Z M 168.10 136.37 L 169.10 136.37 C 170.22 136.37 171.13 135.47 171.13 134.35 C 171.13 133.23 170.22 132.32 169.10 132.32 L 168.10 132.32 C 166.98 132.32 166.07 133.23 166.07 134.35 C 166.07 135.47 166.98 136.37 168.10 136.37 Z M 169.10 136.35 L 169.63 136.35 C 170.74 136.35 171.63 135.45 171.63 134.35 C 171.63 133.25 170.74 132.35 169.63 132.35 L 169.10 132.35 C 168.00 132.35 167.10 133.25 167.10 134.35 C 167.10 135.45 168.00 136.35 169.10 136.35 Z"
      fill="black"
      fill-rule="nonzero" /><path d="M 122.90 184.74 L 123.91 184.78 C 125.14 184.83 126.18 183.88 126.23 182.65 C 126.28 181.42 125.33 180.38 124.10 180.33 L 123.08 180.28 C 121.85 180.23 120.82 181.19 120.76 182.41 C 120.71 183.64 121.67 184.68 122.90 184.74 Z M 123.90 184.81 L 124.90 184.86 C 126.15 184.91 127.21 183.95 127.27 182.70 C 127.32 181.45 126.36 180.40 125.11 180.34 L 124.11 180.29 C 122.86 180.24 121.80 181.20 121.74 182.45 C 121.69 183.70 122.65 184.75 123.90 184.81 Z M 124.89 184.89 L 125.88 184.94 C 127.14 185.01 128.22 184.04 128.29 182.77 C 128.36 181.50 127.39 180.43 126.12 180.36 L 125.13 180.31 C 123.86 180.24 122.78 181.21 122.72 182.48 C 122.65 183.74 123.62 184.82 124.89 184.89 Z M 125.85 184.97 L 126.83 185.03 C 128.11 185.11 129.21 184.14 129.29 182.86 C 129.37 181.58 128.40 180.48 127.12 180.39 L 126.15 180.33 C 124.87 180.25 123.76 181.22 123.68 182.50 C 123.60 183.78 124.57 184.89 125.85 184.97 Z M 126.80 185.04 L 127.77 185.11 C 129.05 185.20 130.17 184.24 130.26 182.95 C 130.36 181.67 129.39 180.55 128.11 180.46 L 127.14 180.39 C 125.86 180.29 124.74 181.26 124.65 182.54 C 124.55 183.83 125.52 184.94 126.80 185.04 Z M 127.76 185.11 L 128.74 185.18 C 130.03 185.28 131.15 184.31 131.24 183.03 C 131.34 181.74 130.38 180.63 129.09 180.53 L 128.11 180.46 C 126.83 180.36 125.71 181.32 125.61 182.61 C 125.51 183.89 126.48 185.01 127.76 185.11 Z M 128.76 185.18 L 129.79 185.25 C 131.08 185.34 132.19 184.37 132.28 183.08 C 132.37 181.80 131.39 180.69 130.11 180.60 L 129.08 180.53 C 127.79 180.44 126.68 181.41 126.59 182.70 C 126.50 183.98 127.48 185.09 128.76 185.18 Z M 129.82 185.25 L 130.77 185.31 C 132.06 185.38 133.16 184.39 133.23 183.11 C 133.30 181.82 132.32 180.72 131.03 180.65 L 130.08 180.60 C 128.80 180.53 127.70 181.51 127.62 182.80 C 127.55 184.08 128.54 185.18 129.82 185.25 Z M 130.79 185.31 L 131.73 185.35 C 133.02 185.41 134.11 184.42 134.17 183.13 C 134.23 181.84 133.23 180.75 131.95 180.69 L 131.01 180.65 C 129.72 180.59 128.63 181.58 128.57 182.87 C 128.51 184.16 129.51 185.25 130.79 185.31 Z M 131.74 185.35 L 132.74 185.39 C 134.02 185.45 135.11 184.45 135.16 183.16 C 135.22 181.88 134.22 180.79 132.93 180.74 L 131.94 180.69 C 130.65 180.64 129.57 181.64 129.51 182.92 C 129.46 184.21 130.46 185.30 131.74 185.35 Z M 132.74 185.39 L 133.79 185.44 C 135.07 185.49 136.16 184.49 136.21 183.20 C 136.26 181.92 135.27 180.83 133.98 180.78 L 132.93 180.74 C 131.64 180.68 130.56 181.68 130.51 182.97 C 130.45 184.25 131.45 185.34 132.74 185.39 Z M 133.78 185.43 L 134.87 185.48 C 136.16 185.54 137.24 184.54 137.30 183.26 C 137.36 181.97 136.36 180.88 135.07 180.83 L 133.98 180.78 C 132.70 180.72 131.61 181.72 131.56 183.01 C 131.50 184.29 132.50 185.38 133.78 185.43 Z M 134.86 185.48 L 135.89 185.53 C 137.17 185.59 138.26 184.60 138.32 183.31 C 138.38 182.03 137.39 180.94 136.10 180.88 L 135.08 180.83 C 133.80 180.77 132.71 181.76 132.65 183.05 C 132.59 184.33 133.58 185.42 134.86 185.48 Z M 135.88 185.53 L 136.92 185.58 C 138.20 185.64 139.29 184.65 139.36 183.36 C 139.42 182.08 138.43 180.99 137.14 180.93 L 136.11 180.88 C 134.82 180.82 133.73 181.81 133.67 183.09 C 133.61 184.37 134.60 185.46 135.88 185.53 Z M 136.92 185.57 L 137.95 185.62 C 139.23 185.68 140.32 184.69 140.38 183.41 C 140.44 182.13 139.45 181.04 138.17 180.98 L 137.14 180.93 C 135.86 180.87 134.77 181.86 134.71 183.14 C 134.65 184.42 135.64 185.51 136.92 185.57 Z M 137.95 185.62 L 138.94 185.66 C 140.22 185.72 141.31 184.73 141.36 183.45 C 141.42 182.17 140.43 181.08 139.15 181.02 L 138.16 180.98 C 136.88 180.92 135.79 181.92 135.74 183.20 C 135.68 184.48 136.67 185.56 137.95 185.62 Z M 138.96 185.66 L 139.88 185.70 C 141.16 185.75 142.24 184.75 142.29 183.47 C 142.34 182.19 141.34 181.11 140.06 181.06 L 139.13 181.03 C 137.85 180.98 136.77 181.97 136.73 183.26 C 136.68 184.54 137.67 185.61 138.96 185.66 Z M 139.91 185.70 L 141.04 185.73 C 142.32 185.76 143.39 184.76 143.42 183.48 C 143.46 182.20 142.45 181.13 141.17 181.09 L 140.03 181.06 C 138.75 181.03 137.69 182.04 137.65 183.32 C 137.62 184.60 138.63 185.66 139.91 185.70 Z M 141.07 185.73 L 142.09 185.74 C 143.37 185.76 144.42 184.74 144.44 183.46 C 144.46 182.18 143.44 181.13 142.16 181.11 L 141.14 181.10 C 139.86 181.08 138.81 182.10 138.79 183.38 C 138.77 184.65 139.79 185.71 141.07 185.73 Z M 142.11 185.74 L 143.04 185.74 C 144.32 185.75 145.36 184.72 145.37 183.44 C 145.37 182.17 144.34 181.13 143.07 181.12 L 142.14 181.12 C 140.86 181.11 139.82 182.14 139.82 183.41 C 139.81 184.69 140.84 185.73 142.11 185.74 Z M 143.05 185.74 L 143.97 185.74 C 145.25 185.74 146.28 184.71 146.28 183.43 C 146.28 182.16 145.25 181.13 143.97 181.12 L 143.06 181.12 C 141.78 181.12 140.75 182.16 140.75 183.43 C 140.75 184.70 141.78 185.74 143.05 185.74 Z M 143.97 185.74 L 144.99 185.74 C 146.26 185.74 147.29 184.70 147.29 183.43 C 147.29 182.16 146.26 181.13 144.99 181.13 L 143.97 181.13 C 142.70 181.13 141.67 182.16 141.67 183.43 C 141.67 184.70 142.70 185.74 143.97 185.74 Z M 144.99 185.73 L 145.98 185.73 C 147.25 185.73 148.28 184.70 148.28 183.43 C 148.28 182.16 147.25 181.13 145.98 181.13 L 144.99 181.13 C 143.71 181.13 142.68 182.16 142.68 183.43 C 142.68 184.70 143.71 185.73 144.99 185.73 Z M 145.98 185.73 L 146.97 185.73 C 148.24 185.73 149.27 184.70 149.27 183.43 C 149.27 182.16 148.24 181.13 146.97 181.13 L 145.98 181.13 C 144.71 181.13 143.68 182.16 143.68 183.43 C 143.68 184.70 144.71 185.73 145.98 185.73 Z M 146.97 185.73 L 147.96 185.73 C 149.23 185.73 150.26 184.70 150.26 183.43 C 150.26 182.16 149.23 181.13 147.96 181.13 L 146.97 181.13 C 145.70 181.13 144.67 182.16 144.67 183.43 C 144.67 184.70 145.70 185.73 146.97 185.73 Z M 147.96 185.73 L 148.96 185.73 C 150.22 185.73 151.25 184.70 151.25 183.43 C 151.25 182.17 150.22 181.14 148.96 181.14 L 147.96 181.14 C 146.69 181.14 145.66 182.17 145.66 183.43 C 145.66 184.70 146.69 185.73 147.96 185.73 Z M 148.96 185.72 L 149.97 185.72 C 151.23 185.72 152.26 184.70 152.26 183.43 C 152.26 182.17 151.23 181.14 149.97 181.14 L 148.96 181.14 C 147.69 181.14 146.67 182.17 146.67 183.43 C 146.67 184.70 147.69 185.72 148.96 185.72 Z M 149.97 185.72 L 150.96 185.72 C 152.23 185.72 153.25 184.69 153.25 183.43 C 153.25 182.17 152.23 181.15 150.96 181.15 L 149.97 181.15 C 148.70 181.15 147.68 182.17 147.68 183.43 C 147.68 184.69 148.70 185.72 149.97 185.72 Z M 150.96 185.71 L 151.97 185.71 C 153.23 185.71 154.25 184.69 154.25 183.43 C 154.25 182.17 153.23 181.15 151.97 181.15 L 150.96 181.15 C 149.70 181.15 148.68 182.17 148.68 183.43 C 148.68 184.69 149.70 185.71 150.96 185.71 Z M 151.97 185.71 L 152.97 185.71 C 154.22 185.71 155.24 184.69 155.24 183.43 C 155.24 182.17 154.22 181.16 152.97 181.16 L 151.97 181.16 C 150.71 181.16 149.69 182.17 149.69 183.43 C 149.69 184.69 150.71 185.71 151.97 185.71 Z M 152.97 185.71 L 153.97 185.71 C 155.23 185.71 156.25 184.69 156.25 183.43 C 156.25 182.18 155.23 181.16 153.97 181.16 L 152.97 181.16 C 151.71 181.16 150.69 182.18 150.69 183.43 C 150.69 184.69 151.71 185.71 152.97 185.71 Z M 153.97 185.70 L 154.97 185.70 C 156.23 185.70 157.25 184.69 157.25 183.43 C 157.25 182.18 156.23 181.16 154.97 181.16 L 153.97 181.16 C 152.72 181.16 151.70 182.18 151.70 183.43 C 151.70 184.69 152.72 185.70 153.97 185.70 Z M 154.97 185.70 L 155.97 185.70 C 157.22 185.70 158.24 184.69 158.24 183.43 C 158.24 182.18 157.22 181.16 155.97 181.16 L 154.97 181.16 C 153.72 181.16 152.70 182.18 152.70 183.43 C 152.70 184.69 153.72 185.70 154.97 185.70 Z M 155.97 185.70 L 156.95 185.70 C 158.21 185.70 159.22 184.69 159.22 183.43 C 159.22 182.18 158.21 181.16 156.95 181.16 L 155.97 181.16 C 154.71 181.16 153.70 182.18 153.70 183.43 C 153.70 184.69 154.71 185.70 155.97 185.70 Z M 156.95 185.70 L 157.95 185.70 C 159.20 185.70 160.22 184.69 160.22 183.43 C 160.22 182.18 159.20 181.16 157.95 181.16 L 156.95 181.16 C 155.70 181.16 154.69 182.18 154.69 183.43 C 154.69 184.69 155.70 185.70 156.95 185.70 Z M 157.95 185.70 L 158.96 185.70 C 160.21 185.70 161.22 184.68 161.22 183.43 C 161.22 182.18 160.21 181.16 158.96 181.16 L 157.95 181.16 C 156.69 181.16 155.68 182.18 155.68 183.43 C 155.68 184.68 156.69 185.70 157.95 185.70 Z M 158.96 185.70 L 159.90 185.70 C 161.15 185.70 162.17 184.68 162.17 183.43 C 162.17 182.18 161.15 181.17 159.90 181.17 L 158.96 181.17 C 157.70 181.17 156.69 182.18 156.69 183.43 C 156.69 184.68 157.70 185.70 158.96 185.70 Z M 159.90 185.69 L 160.83 185.69 C 162.08 185.69 163.09 184.68 163.09 183.43 C 163.09 182.18 162.08 181.17 160.83 181.17 L 159.90 181.17 C 158.65 181.17 157.64 182.18 157.64 183.43 C 157.64 184.68 158.65 185.69 159.90 185.69 Z M 160.83 185.69 L 161.83 185.69 C 163.08 185.69 164.09 184.68 164.09 183.43 C 164.09 182.18 163.08 181.17 161.83 181.17 L 160.83 181.17 C 159.58 181.17 158.57 182.18 158.57 183.43 C 158.57 184.68 159.58 185.69 160.83 185.69 Z M 161.83 185.69 L 162.95 185.69 C 164.20 185.69 165.21 184.68 165.21 183.43 C 165.21 182.19 164.20 181.18 162.95 181.18 L 161.83 181.18 C 160.59 181.18 159.58 182.19 159.58 183.43 C 159.58 184.68 160.59 185.69 161.83 185.69 Z M 162.95 185.68 L 163.90 185.68 C 165.15 185.68 166.15 184.67 166.15 183.43 C 166.15 182.19 165.14 181.18 163.90 181.18 L 162.95 181.18 C 161.71 181.18 160.70 182.19 160.70 183.43 C 160.70 184.68 161.71 185.68 162.95 185.68 Z M 163.91 185.68 L 164.90 185.68 C 166.14 185.67 167.14 184.66 167.14 183.42 C 167.13 182.18 166.12 181.18 164.88 181.18 L 163.90 181.18 C 162.65 181.19 161.65 182.20 161.65 183.44 C 161.66 184.68 162.67 185.68 163.91 185.68 Z M 164.91 185.67 L 165.93 185.67 C 167.17 185.66 168.17 184.64 168.16 183.40 C 168.15 182.16 167.14 181.17 165.90 181.18 L 164.87 181.18 C 163.63 181.19 162.63 182.21 162.64 183.45 C 162.65 184.69 163.67 185.68 164.91 185.67 Z M 165.95 185.66 L 166.98 185.65 C 168.22 185.63 169.21 184.61 169.19 183.37 C 169.17 182.13 168.15 181.14 166.91 181.16 L 165.88 181.18 C 164.64 181.20 163.65 182.22 163.67 183.45 C 163.69 184.69 164.71 185.68 165.95 185.66 Z M 167.00 185.64 L 168.02 185.62 C 169.26 185.59 170.24 184.56 170.21 183.32 C 170.17 182.09 169.15 181.11 167.91 181.14 L 166.89 181.17 C 165.65 181.20 164.68 182.23 164.71 183.46 C 164.74 184.70 165.77 185.68 167.00 185.64 Z M 168.05 185.61 L 169.11 185.57 C 170.34 185.53 171.30 184.49 171.26 183.25 C 171.21 182.02 170.17 181.06 168.94 181.11 L 167.88 181.15 C 166.65 181.19 165.69 182.23 165.73 183.47 C 165.78 184.70 166.82 185.66 168.05 185.61 Z M 169.14 185.57 L 170.15 185.51 C 171.38 185.45 172.33 184.40 172.27 183.17 C 172.20 181.94 171.16 181.00 169.93 181.06 L 168.91 181.11 C 167.68 181.17 166.73 182.22 166.79 183.45 C 166.86 184.68 167.91 185.63 169.14 185.57 Z M 170.18 185.51 L 171.16 185.45 C 172.39 185.37 173.32 184.32 173.25 183.09 C 173.17 181.86 172.12 180.93 170.89 181.01 L 169.90 181.07 C 168.68 181.14 167.74 182.20 167.82 183.42 C 167.89 184.65 168.95 185.58 170.18 185.51 Z M 171.18 185.44 L 172.14 185.38 C 173.36 185.29 174.29 184.23 174.20 183.01 C 174.12 181.79 173.06 180.86 171.84 180.95 L 170.88 181.01 C 169.65 181.09 168.73 182.15 168.81 183.38 C 168.89 184.60 169.95 185.53 171.18 185.44 Z M 172.14 185.37 L 173.11 185.30 C 174.33 185.21 175.25 184.16 175.16 182.94 C 175.07 181.72 174.01 180.80 172.79 180.88 L 171.83 180.95 C 170.61 181.04 169.69 182.10 169.78 183.32 C 169.87 184.54 170.92 185.46 172.14 185.37 Z M 173.10 185.29 L 174.08 185.22 C 175.30 185.14 176.21 184.09 176.13 182.87 C 176.04 181.65 174.99 180.74 173.77 180.82 L 172.80 180.89 C 171.58 180.98 170.66 182.03 170.75 183.25 C 170.83 184.46 171.89 185.38 173.10 185.29 Z M 174.07 185.22 L 175.05 185.15 C 176.26 185.08 177.18 184.03 177.10 182.82 C 177.03 181.61 175.98 180.69 174.77 180.77 L 173.79 180.83 C 172.58 180.91 171.66 181.95 171.74 183.17 C 171.81 184.38 172.86 185.29 174.07 185.22 Z M 175.03 185.15 L 176.03 185.09 C 177.24 185.03 178.17 184.00 178.10 182.79 C 178.04 181.58 177.00 180.66 175.80 180.72 L 174.79 180.78 C 173.59 180.84 172.66 181.87 172.73 183.08 C 172.79 184.29 173.82 185.21 175.03 185.15 Z M 176.00 185.08 L 177.03 185.04 C 178.23 184.99 179.17 183.98 179.12 182.78 C 179.07 181.58 178.06 180.64 176.86 180.69 L 175.83 180.73 C 174.63 180.78 173.69 181.79 173.74 182.99 C 173.79 184.20 174.80 185.13 176.00 185.08 Z M 177.00 185.03 L 177.96 185.01 C 179.16 184.98 180.10 183.98 180.07 182.79 C 180.04 181.59 179.05 180.64 177.85 180.67 L 176.89 180.70 C 175.69 180.73 174.75 181.72 174.78 182.92 C 174.81 184.12 175.80 185.06 177.00 185.03 Z M 177.93 185.00 L 178.92 184.99 C 180.11 184.97 181.07 183.99 181.05 182.79 C 181.03 181.60 180.05 180.65 178.86 180.67 L 177.87 180.68 C 176.68 180.70 175.73 181.68 175.74 182.87 C 175.76 184.07 176.74 185.02 177.93 185.00 Z M 178.91 184.98 L 179.92 184.97 C 181.10 184.96 182.06 183.99 182.05 182.80 C 182.04 181.62 181.07 180.66 179.88 180.67 L 178.88 180.68 C 177.69 180.68 176.73 181.65 176.74 182.84 C 176.75 184.03 177.72 184.98 178.91 184.98 Z M 179.91 184.96 L 180.93 184.96 C 182.11 184.95 183.07 183.99 183.06 182.81 C 183.06 181.63 182.10 180.67 180.92 180.68 L 179.89 180.68 C 178.71 180.68 177.76 181.64 177.76 182.82 C 177.76 184.01 178.72 184.96 179.91 184.96 Z M 180.92 184.95 L 181.80 184.95 C 182.97 184.95 183.93 183.99 183.93 182.82 C 183.93 181.64 182.97 180.68 181.79 180.68 L 180.92 180.69 C 179.75 180.69 178.79 181.64 178.79 182.82 C 178.79 183.99 179.75 184.95 180.92 184.95 Z"
      fill="black"
      fill-rule="nonzero" /></svg>