<svg xmlns="http://www.w3.org/2000/svg" width="300" height="300" viewBox="0 0 300 300">
<path d="M 145.40 88.03 L 145.75 88.98 C 146.17 90.11 147.43 90.70 148.57 90.28 C 149.71 89.86 150.30 88.60 149.88 87.46 L 149.53 86.51 C 149.11 85.37 147.85 84.78 146.71 85.20 C 145.57 85.62 144.98 86.89 145.40 88.03 Z M 145.84 88.99 L 146.21 89.93 C 146.63 91.02 147.86 91.55 148.96 91.13 C 150.05 90.70 150.58 89.47 150.16 88.38 L 149.79 87.44 C 149.36 86.35 148.13 85.81 147.04 86.24 C 145.95 86.67 145.41 87.90 145.84 88.99 Z M 146.31 89.98 L 146.71 90.89 C 147.17 91.92 148.37 92.39 149.41 91.93 C 150.44 91.48 150.91 90.27 150.45 89.24 L 150.05 88.33 C 149.60 87.29 148.39 86.83 147.36 87.28 C 146.32 87.74 145.86 88.94 146.31 89.98 Z M 146.82 90.97 L 147.28 91.85 C 147.78 92.82 148.98 93.20 149.95 92.69 C 150.92 92.19 151.30 90.99 150.80 90.02 L 150.34 89.15 C 149.84 88.18 148.64 87.80 147.67 88.30 C 146.70 88.81 146.32 90.00 146.82 90.97 Z M 147.36 91.93 L 147.87 92.78 C 148.41 93.71 149.61 94.01 150.53 93.47 C 151.46 92.92 151.77 91.72 151.22 90.80 L 150.71 89.95 C 150.17 89.02 148.97 88.71 148.05 89.26 C 147.12 89.81 146.81 91.00 147.36 91.93 Z M 147.88 92.78 L 148.39 93.63 C 148.94 94.55 150.12 94.85 151.04 94.30 C 151.96 93.76 152.26 92.57 151.71 91.65 L 151.20 90.80 C 150.65 89.88 149.47 89.58 148.55 90.13 C 147.64 90.68 147.34 91.86 147.88 92.78 Z M 148.36 93.54 L 148.84 94.44 C 149.33 95.37 150.49 95.72 151.43 95.23 C 152.36 94.73 152.71 93.57 152.22 92.64 L 151.74 91.74 C 151.24 90.81 150.09 90.46 149.15 90.95 C 148.22 91.45 147.86 92.61 148.36 93.54 Z M 148.79 94.28 L 149.14 95.12 C 149.55 96.08 150.67 96.53 151.63 96.11 C 152.59 95.70 153.04 94.59 152.63 93.63 L 152.27 92.79 C 151.86 91.83 150.74 91.38 149.78 91.80 C 148.82 92.21 148.37 93.32 148.79 94.28 Z M 149.11 94.95 L 149.40 95.85 C 149.72 96.83 150.77 97.37 151.75 97.06 C 152.73 96.74 153.27 95.69 152.95 94.71 L 152.66 93.80 C 152.35 92.82 151.29 92.28 150.31 92.60 C 149.33 92.91 148.79 93.96 149.11 94.95 Z M 149.38 95.68 L 149.60 96.67 C 149.82 97.66 150.80 98.29 151.80 98.07 C 152.79 97.85 153.42 96.87 153.20 95.87 L 152.97 94.88 C 152.75 93.89 151.77 93.26 150.78 93.48 C 149.78 93.70 149.16 94.68 149.38 95.68 Z M 149.60 96.51 L 149.74 97.61 C 149.87 98.60 150.78 99.30 151.77 99.17 C 152.77 99.04 153.47 98.13 153.34 97.14 L 153.20 96.04 C 153.07 95.04 152.16 94.34 151.16 94.47 C 150.17 94.60 149.47 95.51 149.60 96.51 Z M 149.75 97.47 L 149.80 98.48 C 149.86 99.47 150.70 100.23 151.69 100.17 C 152.68 100.12 153.44 99.27 153.39 98.28 L 153.33 97.28 C 153.28 96.29 152.43 95.53 151.44 95.58 C 150.45 95.63 149.69 96.48 149.75 97.47 Z M 149.81 98.37 L 149.81 99.41 C 149.80 100.39 150.60 101.19 151.58 101.20 C 152.56 101.20 153.37 100.41 153.37 99.42 L 153.38 98.39 C 153.38 97.40 152.59 96.60 151.60 96.60 C 150.62 96.59 149.82 97.39 149.81 98.37 Z M 149.83 99.31 L 149.76 100.34 C 149.70 101.32 150.45 102.16 151.42 102.21 C 152.39 102.27 153.23 101.53 153.29 100.56 L 153.35 99.52 C 153.41 98.55 152.67 97.71 151.70 97.65 C 150.72 97.59 149.89 98.33 149.83 99.31 Z M 149.79 100.24 L 149.67 101.23 C 149.55 102.19 150.23 103.06 151.19 103.18 C 152.15 103.30 153.03 102.62 153.14 101.66 L 153.27 100.66 C 153.38 99.70 152.70 98.83 151.74 98.71 C 150.78 98.59 149.90 99.28 149.79 100.24 Z M 149.70 101.10 L 149.52 102.02 C 149.33 102.96 149.94 103.88 150.88 104.06 C 151.82 104.25 152.74 103.64 152.93 102.70 L 153.11 101.78 C 153.30 100.84 152.69 99.93 151.75 99.74 C 150.80 99.55 149.89 100.16 149.70 101.10 Z M 149.58 101.83 L 149.26 102.80 C 148.97 103.71 149.47 104.69 150.38 104.98 C 151.29 105.27 152.27 104.77 152.56 103.86 L 152.87 102.89 C 153.16 101.98 152.66 101.00 151.75 100.71 C 150.84 100.42 149.87 100.92 149.58 101.83 Z M 149.36 102.57 L 148.94 103.42 C 148.52 104.28 148.88 105.31 149.73 105.73 C 150.59 106.15 151.62 105.80 152.04 104.94 L 152.46 104.09 C 152.88 103.23 152.53 102.20 151.67 101.78 C 150.82 101.36 149.78 101.71 149.36 102.57 Z M 149.06 103.23 L 148.52 104.04 C 147.99 104.83 148.21 105.90 149.00 106.43 C 149.80 106.95 150.87 106.74 151.39 105.94 L 151.93 105.13 C 152.45 104.34 152.24 103.27 151.45 102.74 C 150.65 102.22 149.58 102.44 149.06 103.23 Z M 148.61 103.92 L 147.97 104.74 C 147.38 105.48 147.51 106.56 148.25 107.15 C 149.00 107.74 150.08 107.61 150.67 106.87 L 151.31 106.05 C 151.90 105.31 151.77 104.23 151.02 103.64 C 150.28 103.05 149.19 103.18 148.61 103.92 Z M 148.01 104.68 L 147.40 105.40 C 146.78 106.12 146.87 107.21 147.59 107.82 C 148.31 108.44 149.40 108.35 150.02 107.63 L 150.63 106.92 C 151.24 106.19 151.16 105.11 150.43 104.49 C 149.71 103.87 148.62 103.96 148.01 104.68 Z M 147.43 105.36 L 146.76 106.10 C 146.12 106.81 146.17 107.90 146.88 108.54 C 147.59 109.18 148.68 109.12 149.32 108.41 L 149.99 107.67 C 150.63 106.96 150.57 105.87 149.86 105.23 C 149.16 104.59 148.07 104.65 147.43 105.36 Z M 146.79 106.06 L 146.07 106.81 C 145.41 107.50 145.44 108.60 146.13 109.26 C 146.82 109.92 147.92 109.89 148.57 109.20 L 149.29 108.45 C 149.95 107.76 149.92 106.66 149.23 106.01 C 148.54 105.35 147.44 105.37 146.79 106.06 Z M 146.10 106.77 L 145.37 107.50 C 144.68 108.17 144.68 109.27 145.35 109.95 C 146.02 110.63 147.12 110.64 147.80 109.97 L 148.54 109.24 C 149.22 108.57 149.23 107.47 148.56 106.79 C 147.88 106.11 146.79 106.10 146.10 106.77 Z M 145.41 107.45 L 144.65 108.15 C 143.94 108.80 143.90 109.90 144.55 110.60 C 145.20 111.31 146.30 111.36 147.01 110.71 L 147.76 110.02 C 148.47 109.37 148.52 108.27 147.87 107.56 C 147.22 106.85 146.12 106.80 145.41 107.45 Z M 144.70 108.09 L 143.90 108.77 C 143.16 109.39 143.06 110.49 143.68 111.23 C 144.30 111.97 145.40 112.07 146.14 111.45 L 146.95 110.77 C 147.69 110.15 147.79 109.04 147.17 108.30 C 146.55 107.56 145.44 107.47 144.70 108.09 Z M 143.95 108.71 L 143.15 109.32 C 142.38 109.91 142.23 111.01 142.82 111.79 C 143.41 112.56 144.51 112.71 145.29 112.12 L 146.09 111.51 C 146.86 110.92 147.01 109.81 146.42 109.04 C 145.83 108.26 144.72 108.12 143.95 108.71 Z M 143.20 109.26 L 142.40 109.82 C 141.60 110.38 141.40 111.49 141.96 112.29 C 142.52 113.10 143.63 113.29 144.43 112.73 L 145.23 112.17 C 146.04 111.61 146.24 110.51 145.68 109.70 C 145.11 108.90 144.01 108.70 143.20 109.26 Z M 142.45 109.77 L 141.65 110.29 C 140.81 110.82 140.57 111.93 141.11 112.76 C 141.64 113.59 142.74 113.83 143.58 113.30 L 144.38 112.78 C 145.21 112.25 145.46 111.14 144.92 110.31 C 144.39 109.48 143.28 109.24 142.45 109.77 Z M 141.69 110.25 L 140.84 110.75 C 139.99 111.26 139.71 112.37 140.22 113.22 C 140.73 114.08 141.84 114.35 142.69 113.84 L 143.54 113.34 C 144.39 112.83 144.67 111.72 144.16 110.87 C 143.65 110.02 142.54 109.74 141.69 110.25 Z M 140.88 110.71 L 140.01 111.20 C 139.13 111.69 138.82 112.80 139.31 113.68 C 139.81 114.55 140.91 114.86 141.79 114.37 L 142.66 113.88 C 143.53 113.39 143.85 112.28 143.35 111.41 C 142.86 110.53 141.75 110.22 140.88 110.71 Z M 140.04 111.17 L 139.15 111.64 C 138.26 112.11 137.92 113.22 138.40 114.12 C 138.87 115.01 139.99 115.35 140.88 114.87 L 141.76 114.40 C 142.66 113.93 143.00 112.82 142.52 111.92 C 142.04 111.03 140.93 110.69 140.04 111.17 Z M 139.18 111.61 L 138.28 112.06 C 137.37 112.53 137.01 113.64 137.47 114.55 C 137.94 115.46 139.05 115.82 139.96 115.36 L 140.86 114.90 C 141.77 114.44 142.13 113.33 141.67 112.41 C 141.20 111.50 140.09 111.14 139.18 111.61 Z M 138.30 112.03 L 137.39 112.48 C 136.46 112.94 136.08 114.06 136.54 114.98 C 137.00 115.91 138.12 116.29 139.04 115.83 L 139.95 115.39 C 140.88 114.93 141.26 113.81 140.80 112.89 C 140.34 111.96 139.22 111.58 138.30 112.03 Z M 137.40 112.45 L 136.48 112.90 C 135.53 113.35 135.14 114.47 135.59 115.42 C 136.04 116.36 137.16 116.76 138.11 116.31 L 139.03 115.86 C 139.97 115.41 140.37 114.28 139.92 113.34 C 139.47 112.40 138.34 112.00 137.40 112.45 Z M 136.49 112.86 L 135.57 113.29 C 134.61 113.73 134.19 114.87 134.63 115.83 C 135.08 116.79 136.22 117.21 137.17 116.76 L 138.09 116.34 C 139.05 115.89 139.47 114.76 139.03 113.80 C 138.58 112.84 137.45 112.42 136.49 112.86 Z M 135.58 113.26 L 134.68 113.66 C 133.70 114.10 133.26 115.24 133.70 116.22 C 134.13 117.19 135.28 117.63 136.25 117.20 L 137.16 116.79 C 138.14 116.36 138.57 115.21 138.14 114.24 C 137.70 113.26 136.56 112.82 135.58 113.26 Z M 134.70 113.63 L 133.81 114.00 C 132.82 114.43 132.36 115.58 132.78 116.57 C 133.20 117.57 134.35 118.03 135.35 117.61 L 136.23 117.23 C 137.23 116.81 137.69 115.66 137.27 114.66 C 136.84 113.67 135.69 113.20 134.70 113.63 Z M 133.84 113.96 L 132.95 114.32 C 131.93 114.73 131.43 115.89 131.84 116.91 C 132.25 117.93 133.41 118.42 134.43 118.01 L 135.32 117.65 C 136.34 117.24 136.84 116.09 136.43 115.07 C 136.02 114.05 134.86 113.55 133.84 113.96 Z M 132.99 114.26 L 132.09 114.59 C 131.04 114.98 130.50 116.14 130.89 117.20 C 131.27 118.25 132.44 118.78 133.49 118.40 L 134.39 118.07 C 135.44 117.68 135.98 116.52 135.59 115.46 C 135.20 114.41 134.04 113.88 132.99 114.26 Z M 132.14 114.54 L 131.19 114.85 C 130.11 115.21 129.52 116.37 129.88 117.46 C 130.24 118.54 131.41 119.13 132.49 118.77 L 133.44 118.46 C 134.52 118.10 135.11 116.93 134.75 115.85 C 134.39 114.77 133.22 114.18 132.14 114.54 Z M 131.25 114.79 L 130.21 115.10 C 129.10 115.42 128.46 116.59 128.79 117.70 C 129.12 118.82 130.28 119.45 131.40 119.13 L 132.43 118.83 C 133.55 118.50 134.18 117.33 133.86 116.22 C 133.53 115.10 132.36 114.47 131.25 114.79 Z M 130.25 115.01 L 129.01 115.34 C 127.86 115.64 127.16 116.83 127.47 117.99 C 127.77 119.15 128.96 119.84 130.11 119.54 L 131.36 119.21 C 132.51 118.91 133.21 117.72 132.90 116.56 C 132.60 115.40 131.41 114.71 130.25 115.01 Z M 129.02 115.24 L 127.85 115.53 C 126.63 115.83 125.89 117.06 126.19 118.27 C 126.49 119.49 127.72 120.23 128.94 119.93 L 130.11 119.64 C 131.32 119.34 132.07 118.11 131.76 116.89 C 131.46 115.68 130.23 114.94 129.02 115.24 Z M 127.82 115.43 L 126.94 115.65 C 125.67 115.97 124.90 117.25 125.22 118.52 C 125.54 119.79 126.82 120.56 128.09 120.24 L 128.96 120.02 C 130.23 119.71 131.00 118.42 130.69 117.15 C 130.37 115.89 129.08 115.12 127.82 115.43 Z M 126.74 115.61 L 126.39 115.73 C 125.11 116.16 124.41 117.55 124.84 118.84 C 125.26 120.12 126.65 120.82 127.94 120.39 L 128.29 120.28 C 129.58 119.85 130.28 118.46 129.85 117.17 C 129.42 115.88 128.03 115.19 126.74 115.61 Z M 127.38 120.58 L 127.97 120.53 C 129.36 120.41 130.39 119.19 130.28 117.80 C 130.16 116.41 128.94 115.38 127.55 115.50 L 126.96 115.55 C 125.57 115.66 124.54 116.89 124.65 118.27 C 124.77 119.66 125.99 120.69 127.38 120.58 Z M 128.09 120.56 L 129.37 120.40 C 130.78 120.21 131.77 118.92 131.59 117.51 C 131.40 116.10 130.11 115.11 128.70 115.30 L 127.43 115.46 C 126.02 115.65 125.03 116.94 125.21 118.34 C 125.39 119.75 126.69 120.75 128.09 120.56 Z M 129.35 120.43 L 130.49 120.30 C 131.92 120.12 132.94 118.82 132.77 117.40 C 132.59 115.97 131.30 114.95 129.87 115.12 L 128.72 115.26 C 127.29 115.43 126.27 116.73 126.45 118.16 C 126.62 119.59 127.92 120.61 129.35 120.43 Z M 130.45 120.31 L 131.42 120.21 C 132.86 120.06 133.91 118.78 133.76 117.34 C 133.61 115.90 132.32 114.85 130.89 115.00 L 129.91 115.10 C 128.47 115.25 127.42 116.54 127.57 117.98 C 127.72 119.42 129.01 120.46 130.45 120.31 Z M 131.39 120.22 L 132.38 120.13 C 133.82 120.00 134.89 118.73 134.76 117.28 C 134.63 115.84 133.35 114.77 131.91 114.90 L 130.92 114.99 C 129.47 115.12 128.41 116.40 128.54 117.84 C 128.67 119.29 129.95 120.35 131.39 120.22 Z M 132.35 120.14 L 133.38 120.06 C 134.82 119.94 135.90 118.67 135.79 117.22 C 135.67 115.77 134.40 114.69 132.95 114.81 L 131.93 114.89 C 130.48 115.01 129.40 116.28 129.52 117.73 C 129.63 119.18 130.90 120.26 132.35 120.14 Z M 133.36 120.06 L 134.36 119.99 C 135.81 119.88 136.90 118.61 136.79 117.16 C 136.68 115.71 135.42 114.62 133.96 114.73 L 132.96 114.81 C 131.51 114.92 130.42 116.18 130.53 117.63 C 130.64 119.09 131.91 120.17 133.36 120.06 Z M 134.36 119.99 L 135.37 119.91 C 136.83 119.81 137.92 118.54 137.81 117.09 C 137.70 115.64 136.44 114.55 134.99 114.66 L 133.97 114.73 C 132.52 114.84 131.43 116.10 131.53 117.55 C 131.64 119.01 132.90 120.10 134.36 119.99 Z M 135.37 119.92 L 136.39 119.84 C 137.84 119.73 138.93 118.47 138.82 117.02 C 138.72 115.56 137.45 114.47 136.00 114.58 L 134.99 114.65 C 133.53 114.76 132.44 116.03 132.55 117.48 C 132.66 118.93 133.92 120.02 135.37 119.92 Z M 136.39 119.84 L 137.37 119.77 C 138.83 119.65 139.91 118.39 139.80 116.93 C 139.69 115.48 138.42 114.39 136.97 114.50 L 135.99 114.58 C 134.54 114.69 133.45 115.96 133.56 117.41 C 133.67 118.86 134.94 119.95 136.39 119.84 Z M 137.39 119.76 L 138.42 119.68 C 139.87 119.56 140.95 118.29 140.84 116.84 C 140.72 115.38 139.44 114.30 137.99 114.42 L 136.96 114.51 C 135.51 114.63 134.43 115.90 134.54 117.35 C 134.66 118.80 135.94 119.88 137.39 119.76 Z M 138.44 119.67 L 139.44 119.59 C 140.89 119.46 141.96 118.18 141.83 116.73 C 141.71 115.28 140.43 114.21 138.98 114.34 L 137.98 114.43 C 136.53 114.55 135.46 115.83 135.58 117.28 C 135.71 118.73 136.99 119.80 138.44 119.67 Z M 139.45 119.58 L 140.41 119.49 C 141.86 119.36 142.92 118.08 142.79 116.64 C 142.66 115.19 141.38 114.12 139.94 114.26 L 138.97 114.34 C 137.53 114.48 136.46 115.76 136.59 117.20 C 136.72 118.65 138.00 119.71 139.45 119.58 Z M 140.41 119.49 L 141.34 119.40 C 142.78 119.27 143.85 118.00 143.72 116.55 C 143.58 115.11 142.31 114.05 140.86 114.18 L 139.94 114.26 C 138.49 114.39 137.43 115.67 137.56 117.11 C 137.69 118.56 138.97 119.62 140.41 119.49 Z M 141.34 119.40 L 142.20 119.32 C 143.64 119.18 144.69 117.91 144.56 116.47 C 144.43 115.03 143.15 113.97 141.71 114.11 L 140.86 114.18 C 139.42 114.32 138.36 115.59 138.50 117.03 C 138.63 118.47 139.91 119.53 141.34 119.40 Z M 142.22 119.30 L 143.15 119.21 C 144.59 119.06 145.63 117.78 145.48 116.35 C 145.33 114.92 144.05 113.87 142.62 114.02 L 141.69 114.12 C 140.26 114.27 139.22 115.55 139.36 116.98 C 139.51 118.41 140.79 119.45 142.22 119.30 Z M 143.19 119.19 L 144.25 119.07 C 145.67 118.90 146.69 117.61 146.52 116.18 C 146.35 114.76 145.05 113.74 143.63 113.91 L 142.58 114.04 C 141.15 114.21 140.14 115.50 140.31 116.92 C 140.48 118.35 141.77 119.36 143.19 119.19 Z M 144.29 119.05 L 145.45 118.89 C 146.87 118.70 147.86 117.39 147.66 115.98 C 147.47 114.56 146.16 113.57 144.75 113.77 L 143.59 113.93 C 142.17 114.12 141.18 115.43 141.38 116.84 C 141.57 118.26 142.88 119.25 144.29 119.05 Z M 145.49 118.87 L 146.42 118.73 C 147.82 118.52 148.79 117.21 148.58 115.80 C 148.36 114.39 147.05 113.43 145.64 113.64 L 144.71 113.78 C 143.31 114.00 142.34 115.31 142.56 116.72 C 142.77 118.12 144.08 119.09 145.49 118.87 Z M 146.44 118.72 L 147.43 118.56 C 148.83 118.33 149.78 117.01 149.55 115.62 C 149.33 114.22 148.01 113.27 146.62 113.50 L 145.62 113.66 C 144.23 113.89 143.28 115.20 143.50 116.60 C 143.73 117.99 145.04 118.94 146.44 118.72 Z M 147.45 118.54 L 148.47 118.36 C 149.86 118.13 150.79 116.82 150.56 115.43 C 150.32 114.04 149.01 113.11 147.62 113.34 L 146.60 113.52 C 145.21 113.75 144.28 115.07 144.51 116.45 C 144.75 117.84 146.06 118.77 147.45 118.54 Z M 148.49 118.35 L 149.52 118.17 C 150.89 117.92 151.81 116.61 151.57 115.23 C 151.33 113.85 150.01 112.93 148.64 113.18 L 147.61 113.36 C 146.23 113.60 145.31 114.92 145.55 116.29 C 145.80 117.67 147.11 118.59 148.49 118.35 Z M 149.53 118.15 L 150.53 117.97 C 151.90 117.72 152.81 116.40 152.56 115.03 C 152.31 113.67 150.99 112.76 149.62 113.01 L 148.62 113.19 C 147.25 113.45 146.35 114.76 146.60 116.13 C 146.85 117.50 148.16 118.40 149.53 118.15 Z M 150.55 117.95 L 151.52 117.76 C 152.87 117.50 153.76 116.19 153.50 114.83 C 153.25 113.48 151.93 112.59 150.58 112.85 L 149.61 113.03 C 148.25 113.29 147.36 114.60 147.62 115.96 C 147.88 117.32 149.19 118.21 150.55 117.95 Z M 151.53 117.71 L 152.66 117.48 C 153.99 117.22 154.86 115.92 154.59 114.59 C 154.32 113.26 153.03 112.40 151.70 112.67 L 150.56 112.90 C 149.23 113.16 148.37 114.46 148.64 115.79 C 148.91 117.12 150.20 117.98 151.53 117.71 Z M 152.67 117.40 L 153.69 117.19 C 154.97 116.92 155.80 115.66 155.53 114.38 C 155.26 113.09 154.00 112.27 152.72 112.54 L 151.70 112.75 C 150.41 113.02 149.59 114.28 149.86 115.56 C 150.12 116.85 151.38 117.67 152.67 117.40 Z M 153.68 117.11 L 154.61 116.91 C 155.85 116.65 156.65 115.43 156.38 114.19 C 156.12 112.95 154.90 112.15 153.66 112.42 L 152.72 112.61 C 151.48 112.88 150.69 114.10 150.95 115.34 C 151.22 116.58 152.44 117.38 153.68 117.11 Z M 154.59 116.84 L 155.46 116.66 C 156.67 116.40 157.43 115.23 157.18 114.03 C 156.93 112.83 155.75 112.06 154.55 112.31 L 153.68 112.49 C 152.48 112.74 151.71 113.92 151.96 115.12 C 152.21 116.32 153.39 117.09 154.59 116.84 Z M 155.43 116.59 L 156.36 116.40 C 157.52 116.17 158.28 115.04 158.04 113.88 C 157.81 112.71 156.68 111.96 155.52 112.19 L 154.59 112.38 C 153.43 112.61 152.67 113.74 152.90 114.90 C 153.13 116.06 154.26 116.82 155.43 116.59 Z M 156.32 116.34 L 157.31 116.16 C 158.44 115.95 159.19 114.86 158.98 113.73 C 158.77 112.60 157.68 111.85 156.55 112.06 L 155.56 112.25 C 154.43 112.46 153.68 113.55 153.89 114.68 C 154.10 115.81 155.19 116.56 156.32 116.34 Z M 157.29 116.10 L 158.27 115.93 C 159.37 115.73 160.10 114.68 159.90 113.58 C 159.70 112.48 158.65 111.75 157.55 111.94 L 156.57 112.12 C 155.47 112.32 154.74 113.37 154.94 114.47 C 155.14 115.57 156.19 116.30 157.29 116.10 Z M 158.26 115.87 L 159.23 115.69 C 160.30 115.50 161.00 114.47 160.81 113.41 C 160.62 112.34 159.60 111.64 158.53 111.83 L 157.56 112.01 C 156.49 112.20 155.79 113.22 155.98 114.29 C 156.17 115.35 157.19 116.06 158.26 115.87 Z M 159.24 115.63 L 160.18 115.45 C 161.22 115.26 161.90 114.26 161.70 113.23 C 161.51 112.19 160.51 111.51 159.47 111.71 L 158.53 111.88 C 157.49 112.08 156.81 113.08 157.01 114.11 C 157.20 115.15 158.20 115.83 159.24 115.63 Z M 160.18 115.41 L 161.13 115.23 C 162.14 115.03 162.80 114.05 162.61 113.04 C 162.41 112.03 161.44 111.37 160.43 111.57 L 159.48 111.75 C 158.47 111.95 157.80 112.92 158.00 113.93 C 158.19 114.94 159.17 115.60 160.18 115.41 Z M 161.12 115.19 L 162.10 115.00 C 163.09 114.81 163.74 113.86 163.55 112.87 C 163.36 111.88 162.41 111.23 161.42 111.42 L 160.44 111.61 C 159.45 111.79 158.80 112.74 158.99 113.73 C 159.18 114.72 160.13 115.37 161.12 115.19 Z M 162.07 114.96 L 163.10 114.78 C 164.07 114.61 164.71 113.69 164.54 112.72 C 164.37 111.75 163.45 111.11 162.48 111.28 L 161.45 111.46 C 160.48 111.63 159.84 112.55 160.01 113.52 C 160.18 114.49 161.10 115.13 162.07 114.96 Z M 163.07 114.76 L 164.03 114.60 C 164.98 114.45 165.63 113.55 165.48 112.60 C 165.33 111.64 164.43 110.99 163.48 111.15 L 162.51 111.30 C 161.56 111.45 160.91 112.35 161.06 113.31 C 161.21 114.26 162.11 114.91 163.07 114.76 Z M 164.00 114.60 L 164.97 114.45 C 165.92 114.31 166.58 113.43 166.44 112.48 C 166.30 111.53 165.42 110.88 164.47 111.01 L 163.50 111.16 C 162.55 111.29 161.89 112.18 162.03 113.13 C 162.17 114.08 163.05 114.73 164.00 114.60 Z M 164.96 114.45 L 165.95 114.31 C 166.90 114.18 167.56 113.31 167.43 112.36 C 167.30 111.42 166.43 110.75 165.48 110.88 L 164.48 111.02 C 163.54 111.15 162.88 112.02 163.01 112.97 C 163.14 113.92 164.01 114.58 164.96 114.45 Z M 165.94 114.30 L 166.96 114.17 C 167.90 114.04 168.57 113.18 168.44 112.24 C 168.32 111.30 167.45 110.63 166.51 110.76 L 165.49 110.89 C 164.55 111.01 163.89 111.88 164.01 112.82 C 164.14 113.76 165.00 114.43 165.94 114.30 Z M 166.96 114.16 L 167.85 114.05 C 168.79 113.92 169.45 113.07 169.33 112.13 C 169.21 111.19 168.35 110.53 167.41 110.65 L 166.52 110.76 C 165.58 110.89 164.92 111.74 165.04 112.68 C 165.16 113.62 166.02 114.28 166.96 114.16 Z"
      fill="black"
      fill-rule="nonzero" /><path d="M 132.55 131.67 L 132.52 132.59 C 132.48 133.78 133.41 134.77 134.59 134.80 C 135.78 134.84 136.77 133.91 136.80 132.73 L 136.83 131.80 C 136.87 130.62 135.94 129.63 134.76 129.59 C 133.57 129.55 132.58 130.48 132.55 131.67 Z M 132.52 132.77 L 132.57 133.72 C 132.63 134.91 133.64 135.82 134.82 135.75 C 136.00 135.69 136.91 134.69 136.85 133.50 L 136.80 132.55 C 136.74 131.37 135.73 130.46 134.55 130.52 C 133.37 130.58 132.46 131.59 132.52 132.77 Z M 132.60 134.04 L 132.81 135.04 C 133.05 136.21 134.18 136.96 135.34 136.72 C 136.51 136.48 137.26 135.35 137.02 134.18 L 136.81 133.18 C 136.58 132.02 135.44 131.27 134.28 131.51 C 133.12 131.74 132.37 132.88 132.60 134.04 Z M 132.91 135.40 L 133.28 136.34 C 133.72 137.44 134.97 137.99 136.07 137.55 C 137.17 137.12 137.72 135.87 137.28 134.77 L 136.91 133.83 C 136.48 132.72 135.23 132.18 134.13 132.61 C 133.02 133.05 132.48 134.29 132.91 135.40 Z M 133.40 136.58 L 133.80 137.30 C 134.36 138.34 135.67 138.73 136.71 138.16 C 137.74 137.59 138.13 136.29 137.56 135.25 L 137.17 134.53 C 136.60 133.49 135.30 133.11 134.26 133.67 C 133.22 134.24 132.84 135.54 133.40 136.58 Z M 133.88 137.42 L 134.37 138.19 C 135.00 139.19 136.32 139.48 137.31 138.85 C 138.31 138.22 138.60 136.90 137.97 135.90 L 137.48 135.13 C 136.85 134.14 135.53 133.84 134.53 134.48 C 133.54 135.11 133.25 136.43 133.88 137.42 Z M 134.42 138.25 L 134.99 139.07 C 135.65 140.04 136.98 140.28 137.94 139.62 C 138.91 138.95 139.15 137.63 138.48 136.66 L 137.92 135.84 C 137.25 134.87 135.93 134.63 134.96 135.30 C 133.99 135.96 133.75 137.29 134.42 138.25 Z M 135.01 139.10 L 135.64 139.98 C 136.32 140.93 137.64 141.15 138.59 140.47 C 139.54 139.79 139.76 138.46 139.08 137.51 L 138.45 136.64 C 137.77 135.69 136.45 135.47 135.50 136.15 C 134.55 136.83 134.33 138.15 135.01 139.10 Z M 135.65 139.97 L 136.32 140.91 C 137.00 141.86 138.32 142.08 139.26 141.40 C 140.21 140.72 140.43 139.41 139.75 138.46 L 139.07 137.52 C 138.40 136.57 137.08 136.36 136.14 137.03 C 135.19 137.71 134.97 139.02 135.65 139.97 Z M 136.32 140.89 L 136.95 141.79 C 137.61 142.74 138.92 142.97 139.86 142.31 C 140.81 141.65 141.04 140.34 140.38 139.39 L 139.75 138.49 C 139.09 137.54 137.79 137.31 136.84 137.97 C 135.89 138.63 135.66 139.94 136.32 140.89 Z M 136.95 141.75 L 137.53 142.61 C 138.17 143.56 139.46 143.80 140.41 143.16 C 141.36 142.52 141.60 141.23 140.96 140.28 L 140.38 139.43 C 139.74 138.48 138.45 138.23 137.50 138.87 C 136.56 139.52 136.31 140.81 136.95 141.75 Z M 137.54 142.58 L 138.12 143.45 C 138.75 144.40 140.02 144.65 140.96 144.02 C 141.91 143.40 142.16 142.12 141.53 141.18 L 140.95 140.31 C 140.32 139.37 139.05 139.11 138.11 139.74 C 137.17 140.37 136.91 141.64 137.54 142.58 Z M 138.14 143.43 L 138.71 144.31 C 139.33 145.24 140.58 145.50 141.52 144.89 C 142.45 144.27 142.71 143.02 142.10 142.08 L 141.52 141.20 C 140.91 140.27 139.65 140.01 138.71 140.63 C 137.78 141.24 137.52 142.50 138.14 143.43 Z M 138.73 144.29 L 139.29 145.15 C 139.90 146.08 141.14 146.34 142.07 145.73 C 142.99 145.13 143.25 143.88 142.64 142.96 L 142.08 142.10 C 141.47 141.17 140.23 140.91 139.31 141.52 C 138.38 142.12 138.12 143.37 138.73 144.29 Z M 139.31 145.14 L 139.86 145.97 C 140.46 146.88 141.68 147.14 142.60 146.54 C 143.51 145.94 143.77 144.71 143.17 143.80 L 142.62 142.97 C 142.02 142.05 140.80 141.80 139.88 142.40 C 138.97 143.00 138.71 144.23 139.31 145.14 Z M 139.88 145.96 L 140.39 146.74 C 140.99 147.64 142.20 147.89 143.11 147.29 C 144.01 146.69 144.25 145.48 143.66 144.58 L 143.14 143.80 C 142.55 142.90 141.33 142.65 140.43 143.25 C 139.53 143.85 139.28 145.06 139.88 145.96 Z M 140.43 146.74 L 141.00 147.59 C 141.60 148.47 142.80 148.70 143.68 148.11 C 144.56 147.51 144.80 146.31 144.20 145.43 L 143.62 144.58 C 143.03 143.70 141.83 143.46 140.94 144.06 C 140.06 144.66 139.83 145.86 140.43 146.74 Z M 141.06 147.60 L 141.73 148.55 C 142.33 149.40 143.51 149.61 144.36 149.01 C 145.21 148.41 145.42 147.23 144.82 146.38 L 144.15 145.42 C 143.54 144.57 142.37 144.36 141.51 144.96 C 140.66 145.56 140.46 146.74 141.06 147.60 Z M 141.79 148.55 L 142.39 149.36 C 142.99 150.18 144.14 150.36 144.96 149.76 C 145.78 149.15 145.95 148.00 145.35 147.18 L 144.75 146.37 C 144.15 145.55 143.00 145.38 142.18 145.98 C 141.36 146.58 141.19 147.74 141.79 148.55 Z M 142.45 149.36 L 142.99 150.08 C 143.59 150.86 144.72 151.01 145.50 150.41 C 146.29 149.81 146.44 148.68 145.84 147.90 L 145.29 147.18 C 144.69 146.40 143.56 146.25 142.78 146.85 C 141.99 147.45 141.84 148.58 142.45 149.36 Z M 143.04 150.06 L 143.56 150.72 C 144.16 151.48 145.25 151.61 146.01 151.02 C 146.77 150.42 146.90 149.33 146.31 148.57 L 145.79 147.91 C 145.19 147.15 144.10 147.02 143.34 147.62 C 142.58 148.21 142.45 149.31 143.04 150.06 Z M 143.59 150.71 L 143.66 150.80 C 144.24 151.54 145.32 151.67 146.07 151.08 C 146.81 150.49 146.94 149.42 146.35 148.67 L 146.28 148.58 C 145.69 147.84 144.61 147.71 143.87 148.30 C 143.13 148.89 143.00 149.97 143.59 150.71 Z"
      fill="black"
      fill-rule="nonzero" /><path d="M 143.13 133.35 L 141.73 133.56 C 140.49 133.74 139.64 134.89 139.83 136.12 C 140.01 137.35 141.16 138.20 142.39 138.02 L 143.80 137.81 C 145.03 137.63 145.88 136.48 145.70 135.25 C 145.51 134.02 144.36 133.17 143.13 133.35 Z M 141.71 133.56 L 140.66 133.72 C 139.43 133.91 138.58 135.06 138.77 136.30 C 138.96 137.53 140.12 138.38 141.35 138.19 L 142.40 138.02 C 143.64 137.83 144.48 136.68 144.29 135.44 C 144.10 134.21 142.95 133.36 141.71 133.56 Z M 140.55 133.73 L 140.22 133.80 C 139.00 134.05 138.21 135.25 138.46 136.47 C 138.71 137.70 139.91 138.49 141.14 138.24 L 141.46 138.17 C 142.69 137.92 143.48 136.72 143.23 135.50 C 142.98 134.27 141.78 133.48 140.55 133.73 Z M 140.91 138.28 L 141.59 138.21 C 142.84 138.08 143.75 136.96 143.62 135.71 C 143.49 134.46 142.37 133.56 141.12 133.69 L 140.45 133.76 C 139.20 133.89 138.29 135.00 138.42 136.25 C 138.55 137.50 139.66 138.41 140.91 138.28 Z M 141.68 138.21 L 142.96 138.03 C 144.21 137.85 145.08 136.69 144.90 135.44 C 144.73 134.19 143.57 133.32 142.32 133.50 L 141.03 133.69 C 139.78 133.86 138.91 135.02 139.09 136.27 C 139.27 137.52 140.43 138.39 141.68 138.21 Z M 143.05 138.02 L 144.22 137.81 C 145.47 137.58 146.29 136.39 146.07 135.14 C 145.84 133.89 144.64 133.07 143.40 133.29 L 142.23 133.51 C 140.98 133.73 140.15 134.93 140.38 136.18 C 140.61 137.42 141.80 138.25 143.05 138.02 Z M 144.31 137.80 L 145.29 137.58 C 146.53 137.30 147.31 136.07 147.04 134.83 C 146.76 133.59 145.53 132.81 144.29 133.09 L 143.31 133.31 C 142.07 133.59 141.29 134.81 141.56 136.05 C 141.84 137.29 143.07 138.07 144.31 137.80 Z M 145.35 137.57 L 146.29 137.33 C 147.52 137.03 148.27 135.78 147.97 134.55 C 147.66 133.31 146.41 132.56 145.18 132.87 L 144.24 133.10 C 143.01 133.41 142.25 134.66 142.56 135.89 C 142.87 137.12 144.11 137.87 145.35 137.57 Z M 146.30 137.33 L 147.22 137.10 C 148.45 136.78 149.19 135.53 148.88 134.30 C 148.56 133.06 147.31 132.32 146.08 132.64 L 145.16 132.87 C 143.93 133.19 143.19 134.44 143.50 135.67 C 143.82 136.90 145.07 137.64 146.30 137.33 Z M 147.21 137.10 L 148.12 136.87 C 149.36 136.56 150.11 135.31 149.80 134.08 C 149.49 132.84 148.24 132.09 147.01 132.40 L 146.09 132.63 C 144.86 132.94 144.11 134.19 144.42 135.43 C 144.72 136.66 145.97 137.41 147.21 137.10 Z M 148.11 136.87 L 149.08 136.64 C 150.32 136.34 151.08 135.10 150.78 133.86 C 150.48 132.62 149.24 131.86 148.00 132.16 L 147.03 132.40 C 145.79 132.70 145.03 133.94 145.33 135.18 C 145.62 136.41 146.87 137.17 148.11 136.87 Z M 149.06 136.65 L 150.11 136.40 C 151.35 136.12 152.12 134.88 151.84 133.64 C 151.55 132.40 150.31 131.63 149.07 131.91 L 148.02 132.16 C 146.79 132.44 146.01 133.68 146.30 134.92 C 146.58 136.16 147.82 136.93 149.06 136.65 Z M 150.08 136.41 L 150.94 136.22 C 152.18 135.95 152.97 134.72 152.70 133.48 C 152.42 132.24 151.20 131.45 149.95 131.72 L 149.10 131.91 C 147.86 132.18 147.07 133.41 147.34 134.65 C 147.61 135.90 148.84 136.68 150.08 136.41 Z M 150.92 136.23 L 151.84 136.03 C 153.09 135.77 153.89 134.55 153.63 133.31 C 153.37 132.06 152.15 131.26 150.90 131.52 L 149.98 131.72 C 148.73 131.98 147.93 133.20 148.19 134.44 C 148.45 135.69 149.67 136.49 150.92 136.23 Z M 151.82 136.04 L 152.82 135.84 C 154.06 135.59 154.87 134.38 154.63 133.13 C 154.38 131.89 153.17 131.08 151.92 131.32 L 150.92 131.52 C 149.68 131.77 148.87 132.98 149.11 134.23 C 149.36 135.47 150.57 136.29 151.82 136.04 Z M 152.79 135.85 L 153.86 135.65 C 155.11 135.41 155.94 134.21 155.70 132.96 C 155.47 131.71 154.27 130.88 153.02 131.12 L 151.95 131.32 C 150.70 131.55 149.87 132.75 150.10 134.00 C 150.34 135.25 151.54 136.08 152.79 135.85 Z M 153.84 135.65 L 154.90 135.46 C 156.16 135.25 157.00 134.05 156.78 132.80 C 156.56 131.55 155.36 130.71 154.11 130.93 L 153.04 131.11 C 151.79 131.33 150.95 132.53 151.17 133.78 C 151.39 135.03 152.58 135.87 153.84 135.65 Z M 154.88 135.47 L 155.90 135.30 C 157.16 135.09 158.01 133.91 157.80 132.65 C 157.59 131.40 156.41 130.55 155.16 130.76 L 154.14 130.92 C 152.88 131.13 152.03 132.31 152.24 133.57 C 152.44 134.82 153.63 135.67 154.88 135.47 Z M 155.88 135.30 L 156.91 135.14 C 158.17 134.95 159.03 133.78 158.84 132.52 C 158.65 131.26 157.47 130.40 156.21 130.59 L 155.18 130.75 C 153.92 130.95 153.06 132.12 153.25 133.38 C 153.45 134.63 154.62 135.50 155.88 135.30 Z M 156.89 135.15 L 157.91 135.00 C 159.16 134.82 160.04 133.66 159.86 132.40 C 159.68 131.14 158.52 130.27 157.26 130.45 L 156.24 130.59 C 154.98 130.77 154.11 131.93 154.28 133.19 C 154.46 134.45 155.63 135.33 156.89 135.15 Z M 157.87 135.01 L 158.85 134.88 C 160.11 134.72 161.00 133.57 160.84 132.31 C 160.67 131.05 159.52 130.15 158.26 130.32 L 157.29 130.44 C 156.03 130.60 155.14 131.76 155.30 133.02 C 155.46 134.28 156.61 135.17 157.87 135.01 Z M 158.81 134.89 L 159.72 134.78 C 160.99 134.65 161.90 133.51 161.76 132.25 C 161.62 130.98 160.48 130.07 159.22 130.21 L 158.30 130.31 C 157.04 130.45 156.13 131.59 156.27 132.85 C 156.41 134.11 157.54 135.02 158.81 134.89 Z M 159.61 134.79 L 160.92 134.71 C 162.18 134.63 163.14 133.54 163.07 132.28 C 162.99 131.02 161.90 130.06 160.64 130.13 L 159.33 130.21 C 158.07 130.29 157.11 131.37 157.18 132.64 C 157.26 133.90 158.35 134.86 159.61 134.79 Z M 160.49 134.68 L 161.43 134.80 C 162.68 134.96 163.82 134.08 163.98 132.83 C 164.14 131.59 163.26 130.44 162.02 130.28 L 161.07 130.16 C 159.82 130.00 158.68 130.88 158.52 132.13 C 158.36 133.38 159.24 134.52 160.49 134.68 Z M 160.34 134.33 L 160.88 134.75 C 161.87 135.52 163.29 135.34 164.05 134.35 C 164.82 133.37 164.64 131.95 163.66 131.18 L 163.11 130.76 C 162.13 129.99 160.71 130.17 159.94 131.15 C 159.18 132.14 159.35 133.56 160.34 134.33 Z M 160.09 133.38 L 160.22 134.04 C 160.44 135.24 161.60 136.04 162.81 135.81 C 164.01 135.58 164.80 134.42 164.58 133.22 L 164.45 132.55 C 164.22 131.35 163.06 130.56 161.86 130.79 C 160.66 131.01 159.86 132.17 160.09 133.38 Z M 160.28 133.23 L 160.12 134.11 C 159.89 135.28 160.66 136.40 161.83 136.63 C 162.99 136.85 164.12 136.08 164.34 134.92 L 164.51 134.03 C 164.73 132.86 163.97 131.74 162.80 131.52 C 161.63 131.29 160.51 132.06 160.28 133.23 Z M 160.30 133.72 L 159.87 134.77 C 159.44 135.83 159.94 137.05 161.01 137.49 C 162.07 137.92 163.28 137.41 163.72 136.35 L 164.15 135.30 C 164.59 134.24 164.08 133.02 163.02 132.59 C 161.95 132.15 160.74 132.66 160.30 133.72 Z M 160.05 134.56 L 159.44 135.62 C 158.88 136.58 159.22 137.81 160.18 138.37 C 161.15 138.93 162.38 138.59 162.94 137.63 L 163.55 136.57 C 164.10 135.60 163.77 134.37 162.80 133.81 C 161.84 133.26 160.60 133.59 160.05 134.56 Z M 159.55 135.48 L 159.01 136.26 C 158.38 137.17 158.61 138.41 159.51 139.04 C 160.42 139.66 161.66 139.44 162.28 138.54 L 162.82 137.76 C 163.45 136.85 163.23 135.61 162.32 134.98 C 161.42 134.36 160.18 134.58 159.55 135.48 Z M 159.07 136.18 L 158.46 136.97 C 157.79 137.84 157.95 139.09 158.82 139.77 C 159.69 140.44 160.94 140.28 161.62 139.41 L 162.23 138.62 C 162.90 137.75 162.74 136.50 161.87 135.82 C 161.00 135.15 159.74 135.31 159.07 136.18 Z M 158.50 136.91 L 157.85 137.69 C 157.14 138.54 157.26 139.80 158.10 140.51 C 158.95 141.21 160.21 141.10 160.92 140.25 L 161.57 139.47 C 162.28 138.62 162.17 137.36 161.32 136.65 C 160.47 135.95 159.21 136.06 158.50 136.91 Z M 157.88 137.65 L 157.20 138.43 C 156.47 139.26 156.55 140.52 157.38 141.25 C 158.21 141.98 159.48 141.90 160.21 141.07 L 160.89 140.29 C 161.62 139.46 161.53 138.20 160.70 137.47 C 159.87 136.74 158.61 136.82 157.88 137.65 Z M 157.22 138.40 L 156.54 139.15 C 155.79 139.97 155.85 141.24 156.67 141.98 C 157.49 142.73 158.75 142.67 159.50 141.85 L 160.18 141.10 C 160.93 140.28 160.87 139.01 160.05 138.27 C 159.23 137.52 157.96 137.58 157.22 138.40 Z M 156.54 139.14 L 155.83 139.91 C 155.08 140.72 155.12 141.99 155.94 142.75 C 156.75 143.50 158.02 143.45 158.78 142.64 L 159.49 141.87 C 160.25 141.05 160.20 139.78 159.38 139.03 C 158.57 138.27 157.30 138.32 156.54 139.14 Z M 155.83 139.89 L 155.11 140.65 C 154.35 141.46 154.39 142.74 155.20 143.51 C 156.02 144.27 157.30 144.23 158.06 143.42 L 158.78 142.66 C 159.54 141.84 159.50 140.56 158.69 139.80 C 157.87 139.03 156.59 139.07 155.83 139.89 Z M 155.12 140.63 L 154.42 141.35 C 153.64 142.17 153.67 143.46 154.49 144.23 C 155.30 145.01 156.59 144.98 157.37 144.17 L 158.06 143.44 C 158.84 142.63 158.81 141.34 158.00 140.56 C 157.18 139.78 155.89 139.81 155.12 140.63 Z M 154.42 141.33 L 153.74 142.03 C 152.95 142.84 152.97 144.14 153.78 144.93 C 154.59 145.72 155.89 145.70 156.68 144.89 L 157.36 144.19 C 158.15 143.38 158.14 142.08 157.33 141.29 C 156.51 140.50 155.22 140.52 154.42 141.33 Z M 153.75 142.00 L 153.08 142.67 C 152.27 143.48 152.27 144.79 153.08 145.59 C 153.89 146.40 155.20 146.40 156.00 145.59 L 156.67 144.92 C 157.48 144.11 157.48 142.80 156.67 142.00 C 155.87 141.19 154.56 141.19 153.75 142.00 Z M 153.09 142.64 L 152.43 143.29 C 151.60 144.09 151.59 145.41 152.39 146.23 C 153.19 147.05 154.51 147.07 155.33 146.27 L 155.99 145.62 C 156.82 144.82 156.83 143.50 156.03 142.68 C 155.23 141.86 153.91 141.84 153.09 142.64 Z M 152.44 143.25 L 151.77 143.88 C 150.93 144.68 150.89 146.01 151.69 146.85 C 152.48 147.69 153.81 147.73 154.65 146.93 L 155.32 146.30 C 156.16 145.51 156.20 144.18 155.40 143.34 C 154.61 142.49 153.28 142.46 152.44 143.25 Z M 151.79 143.84 L 151.09 144.48 C 150.23 145.27 150.16 146.60 150.95 147.47 C 151.74 148.33 153.07 148.39 153.94 147.61 L 154.64 146.97 C 155.50 146.18 155.56 144.85 154.78 143.98 C 153.99 143.12 152.65 143.06 151.79 143.84 Z M 151.11 144.44 L 150.36 145.10 C 149.47 145.87 149.38 147.22 150.16 148.11 C 150.93 148.99 152.28 149.08 153.17 148.31 L 153.92 147.65 C 154.80 146.87 154.89 145.53 154.12 144.64 C 153.34 143.75 152.00 143.66 151.11 144.44 Z M 150.38 145.06 L 149.55 145.76 C 148.64 146.52 148.53 147.87 149.29 148.78 C 150.06 149.69 151.41 149.81 152.32 149.04 L 153.14 148.34 C 154.05 147.58 154.17 146.23 153.40 145.32 C 152.64 144.41 151.29 144.30 150.38 145.06 Z M 149.57 145.72 L 148.73 146.41 C 147.80 147.16 147.66 148.52 148.41 149.45 C 149.17 150.38 150.53 150.52 151.46 149.76 L 152.30 149.08 C 153.23 148.32 153.37 146.96 152.61 146.03 C 151.86 145.11 150.50 144.97 149.57 145.72 Z M 148.74 146.38 L 147.96 146.99 C 147.02 147.74 146.86 149.11 147.61 150.05 C 148.36 151.00 149.73 151.16 150.67 150.41 L 151.45 149.79 C 152.39 149.05 152.55 147.67 151.80 146.73 C 151.05 145.79 149.68 145.63 148.74 146.38 Z M 147.97 146.96 L 147.16 147.59 C 146.20 148.34 146.02 149.72 146.77 150.68 C 147.51 151.64 148.89 151.81 149.85 151.07 L 150.66 150.44 C 151.62 149.69 151.80 148.31 151.05 147.35 C 150.31 146.39 148.93 146.22 147.97 146.96 Z M 147.16 147.57 L 146.33 148.20 C 145.36 148.94 145.17 150.33 145.90 151.30 C 146.64 152.28 148.03 152.47 149.01 151.73 L 149.84 151.09 C 150.81 150.35 151.00 148.97 150.27 147.99 C 149.53 147.02 148.14 146.83 147.16 147.57 Z M 146.34 148.17 L 145.51 148.79 C 144.52 149.52 144.31 150.92 145.04 151.91 C 145.78 152.90 147.18 153.11 148.16 152.37 L 149.00 151.75 C 149.99 151.02 150.19 149.62 149.46 148.63 C 148.73 147.64 147.33 147.44 146.34 148.17 Z M 145.52 148.76 L 144.71 149.35 C 143.70 150.08 143.48 151.48 144.20 152.49 C 144.93 153.49 146.34 153.72 147.34 152.99 L 148.15 152.40 C 149.16 151.67 149.38 150.27 148.66 149.26 C 147.93 148.26 146.52 148.03 145.52 148.76 Z M 144.72 149.32 L 143.95 149.86 C 142.93 150.58 142.68 151.99 143.40 153.01 C 144.12 154.04 145.53 154.28 146.55 153.56 L 147.32 153.02 C 148.35 152.30 148.59 150.89 147.88 149.87 C 147.16 148.84 145.74 148.60 144.72 149.32 Z M 143.99 149.82 L 142.81 150.61 C 141.76 151.31 141.48 152.72 142.18 153.76 C 142.88 154.81 144.29 155.09 145.34 154.39 L 146.52 153.60 C 147.56 152.91 147.84 151.49 147.14 150.45 C 146.44 149.40 145.03 149.12 143.99 149.82 Z M 142.86 150.57 L 141.79 151.25 C 140.73 151.92 140.41 153.33 141.08 154.39 C 141.75 155.46 143.16 155.77 144.23 155.10 L 145.29 154.43 C 146.36 153.75 146.67 152.34 146.00 151.28 C 145.33 150.22 143.92 149.90 142.86 150.57 Z M 141.78 151.25 L 141.17 151.64 C 140.11 152.31 139.79 153.72 140.47 154.79 C 141.14 155.85 142.55 156.17 143.62 155.49 L 144.23 155.10 C 145.29 154.42 145.61 153.01 144.93 151.95 C 144.26 150.89 142.85 150.57 141.78 151.25 Z M 140.17 153.04 L 140.15 153.13 C 139.86 154.36 140.62 155.59 141.85 155.88 C 143.07 156.16 144.30 155.41 144.59 154.18 L 144.61 154.09 C 144.90 152.86 144.14 151.63 142.92 151.34 C 141.69 151.06 140.46 151.81 140.17 153.04 Z M 143.16 155.79 L 143.98 155.48 C 145.15 155.05 145.75 153.74 145.32 152.56 C 144.88 151.38 143.57 150.78 142.39 151.22 L 141.58 151.52 C 140.40 151.96 139.80 153.27 140.24 154.45 C 140.68 155.63 141.99 156.22 143.16 155.79 Z M 144.08 155.43 L 145.35 154.88 C 146.50 154.38 147.03 153.05 146.53 151.90 C 146.04 150.76 144.70 150.23 143.56 150.73 L 142.29 151.28 C 141.14 151.77 140.61 153.10 141.11 154.25 C 141.60 155.40 142.94 155.93 144.08 155.43 Z M 145.41 154.85 L 146.33 154.42 C 147.46 153.90 147.95 152.55 147.43 151.42 C 146.91 150.29 145.56 149.80 144.43 150.33 L 143.51 150.76 C 142.37 151.28 141.88 152.62 142.41 153.75 C 142.93 154.88 144.27 155.38 145.41 154.85 Z M 146.37 154.40 L 147.27 153.96 C 148.39 153.42 148.85 152.07 148.31 150.95 C 147.76 149.83 146.41 149.36 145.29 149.91 L 144.39 150.35 C 143.27 150.89 142.81 152.24 143.35 153.36 C 143.90 154.48 145.25 154.95 146.37 154.40 Z M 147.30 153.95 L 148.19 153.49 C 149.30 152.93 149.74 151.57 149.18 150.46 C 148.61 149.35 147.26 148.91 146.15 149.48 L 145.26 149.93 C 144.15 150.49 143.71 151.85 144.27 152.96 C 144.83 154.07 146.19 154.51 147.30 153.95 Z M 148.21 153.48 L 149.06 153.03 C 150.16 152.46 150.59 151.10 150.01 149.99 C 149.43 148.89 148.07 148.47 146.97 149.05 L 146.12 149.49 C 145.02 150.07 144.60 151.43 145.17 152.53 C 145.75 153.63 147.11 154.06 148.21 153.48 Z M 149.07 153.02 L 149.91 152.58 C 151.00 152.00 151.42 150.64 150.83 149.54 C 150.25 148.45 148.89 148.03 147.80 148.61 L 146.96 149.06 C 145.87 149.64 145.45 151.00 146.04 152.09 C 146.62 153.19 147.98 153.60 149.07 153.02 Z M 149.90 152.57 L 150.77 152.11 C 151.86 151.54 152.28 150.18 151.71 149.09 C 151.13 148.00 149.78 147.58 148.68 148.15 L 147.81 148.62 C 146.71 149.19 146.30 150.55 146.87 151.64 C 147.45 152.73 148.80 153.15 149.90 152.57 Z M 150.75 152.12 L 151.70 151.63 C 152.79 151.07 153.22 149.72 152.66 148.63 C 152.10 147.53 150.75 147.10 149.65 147.66 L 148.71 148.15 C 147.61 148.71 147.18 150.06 147.74 151.15 C 148.31 152.25 149.65 152.68 150.75 152.12 Z M 151.66 151.64 L 152.55 151.19 C 153.65 150.65 154.10 149.31 153.55 148.22 C 153.01 147.12 151.68 146.67 150.58 147.21 L 149.69 147.66 C 148.59 148.20 148.14 149.54 148.69 150.63 C 149.23 151.73 150.56 152.18 151.66 151.64 Z M 152.53 151.19 L 153.42 150.76 C 154.51 150.23 154.98 148.91 154.45 147.81 C 153.92 146.72 152.59 146.25 151.50 146.78 L 150.61 147.21 C 149.51 147.74 149.05 149.06 149.58 150.16 C 150.11 151.26 151.43 151.72 152.53 151.19 Z M 153.39 150.76 L 154.31 150.33 C 155.41 149.81 155.88 148.50 155.36 147.40 C 154.85 146.31 153.54 145.84 152.44 146.35 L 151.52 146.79 C 150.42 147.31 149.95 148.61 150.47 149.71 C 150.99 150.81 152.30 151.28 153.39 150.76 Z M 154.30 150.32 L 155.23 149.89 C 156.32 149.38 156.80 148.08 156.29 146.99 C 155.78 145.90 154.48 145.42 153.39 145.93 L 152.46 146.36 C 151.37 146.87 150.89 148.16 151.40 149.26 C 151.90 150.35 153.20 150.83 154.30 150.32 Z M 155.21 149.88 L 156.13 149.46 C 157.22 148.96 157.70 147.68 157.20 146.59 C 156.70 145.50 155.41 145.02 154.32 145.52 L 153.41 145.93 C 152.32 146.43 151.84 147.72 152.33 148.81 C 152.83 149.90 154.12 150.38 155.21 149.88 Z M 156.10 149.44 L 157.02 149.03 C 158.10 148.55 158.58 147.28 158.09 146.20 C 157.61 145.12 156.34 144.64 155.26 145.12 L 154.35 145.53 C 153.27 146.02 152.78 147.29 153.27 148.37 C 153.75 149.45 155.02 149.93 156.10 149.44 Z M 156.97 149.01 L 157.87 148.63 C 158.94 148.17 159.43 146.93 158.97 145.86 C 158.51 144.79 157.28 144.30 156.21 144.76 L 155.31 145.14 C 154.24 145.60 153.74 146.84 154.20 147.91 C 154.66 148.98 155.90 149.47 156.97 149.01 Z M 157.81 148.61 L 158.72 148.25 C 159.78 147.82 160.30 146.62 159.88 145.56 C 159.45 144.49 158.25 143.98 157.18 144.40 L 156.27 144.77 C 155.21 145.19 154.69 146.40 155.12 147.46 C 155.54 148.52 156.75 149.04 157.81 148.61 Z M 158.64 148.24 L 159.59 147.90 C 160.65 147.52 161.20 146.35 160.82 145.29 C 160.43 144.24 159.27 143.69 158.21 144.07 L 157.26 144.41 C 156.20 144.79 155.66 145.96 156.04 147.02 C 156.42 148.07 157.59 148.62 158.64 148.24 Z M 159.51 147.89 L 160.45 147.59 C 161.50 147.25 162.08 146.13 161.75 145.08 C 161.41 144.02 160.29 143.44 159.24 143.78 L 158.30 144.08 C 157.24 144.42 156.66 145.54 157.00 146.59 C 157.33 147.64 158.46 148.22 159.51 147.89 Z M 160.38 147.57 L 161.30 147.31 C 162.34 147.01 162.95 145.93 162.65 144.89 C 162.35 143.84 161.27 143.24 160.23 143.54 L 159.31 143.80 C 158.27 144.09 157.66 145.18 157.96 146.22 C 158.25 147.26 159.34 147.86 160.38 147.57 Z M 161.25 147.28 L 162.21 147.03 C 163.23 146.76 163.85 145.71 163.58 144.69 C 163.32 143.66 162.27 143.04 161.24 143.31 L 160.28 143.56 C 159.25 143.83 158.64 144.88 158.90 145.90 C 159.17 146.93 160.22 147.55 161.25 147.28 Z M 162.17 147.00 L 163.16 146.76 C 164.17 146.51 164.79 145.50 164.54 144.48 C 164.30 143.47 163.28 142.85 162.27 143.10 L 161.28 143.34 C 160.27 143.59 159.65 144.61 159.89 145.62 C 160.14 146.63 161.16 147.25 162.17 147.00 Z M 163.13 146.73 L 164.14 146.49 C 165.13 146.26 165.75 145.27 165.52 144.28 C 165.29 143.28 164.29 142.67 163.30 142.90 L 162.29 143.13 C 161.30 143.36 160.68 144.36 160.92 145.35 C 161.15 146.34 162.14 146.96 163.13 146.73 Z M 164.12 146.46 L 164.96 146.27 C 165.93 146.05 166.54 145.07 166.32 144.10 C 166.10 143.13 165.12 142.52 164.15 142.74 L 163.32 142.93 C 162.34 143.15 161.73 144.12 161.96 145.10 C 162.18 146.07 163.15 146.68 164.12 146.46 Z"
      fill="black"
      fill-rule="nonzero" /><path d="M 105.54 164.93 L 105.60 165.83 C 105.66 166.88 106.56 167.68 107.61 167.62 C 108.66 167.56 109.46 166.65 109.40 165.60 L 109.34 164.70 C 109.28 163.65 108.38 162.85 107.33 162.91 C 106.28 162.98 105.48 163.88 105.54 164.93 Z M 105.57 165.93 L 105.67 166.88 C 105.79 167.95 106.75 168.72 107.82 168.60 C 108.89 168.48 109.65 167.52 109.53 166.45 L 109.43 165.50 C 109.31 164.43 108.35 163.67 107.28 163.79 C 106.21 163.91 105.45 164.87 105.57 165.93 Z M 105.66 167.06 L 105.88 168.10 C 106.09 169.18 107.14 169.87 108.21 169.65 C 109.29 169.43 109.98 168.38 109.76 167.31 L 109.54 166.27 C 109.32 165.20 108.28 164.51 107.21 164.73 C 106.13 164.94 105.44 165.99 105.66 167.06 Z M 105.89 168.29 L 106.18 169.22 C 106.50 170.28 107.62 170.88 108.68 170.56 C 109.74 170.24 110.34 169.11 110.02 168.05 L 109.74 167.12 C 109.41 166.06 108.29 165.46 107.23 165.78 C 106.17 166.11 105.57 167.23 105.89 168.29 Z M 106.21 169.35 L 106.52 170.17 C 106.92 171.22 108.08 171.74 109.12 171.35 C 110.17 170.95 110.69 169.79 110.30 168.75 L 109.99 167.92 C 109.59 166.88 108.43 166.35 107.39 166.75 C 106.34 167.14 105.82 168.31 106.21 169.35 Z M 106.55 170.26 L 106.93 171.14 C 107.37 172.16 108.56 172.64 109.58 172.20 C 110.61 171.76 111.08 170.57 110.64 169.55 L 110.27 168.67 C 109.83 167.64 108.64 167.17 107.62 167.60 C 106.59 168.04 106.11 169.23 106.55 170.26 Z M 106.96 171.20 L 107.40 172.14 C 107.87 173.15 109.07 173.59 110.08 173.11 C 111.09 172.64 111.53 171.44 111.06 170.43 L 110.62 169.49 C 110.15 168.48 108.94 168.04 107.93 168.51 C 106.92 168.99 106.49 170.19 106.96 171.20 Z M 107.42 172.19 L 107.91 173.18 C 108.41 174.17 109.63 174.58 110.62 174.08 C 111.62 173.58 112.03 172.37 111.53 171.37 L 111.04 170.38 C 110.54 169.38 109.32 168.98 108.32 169.47 C 107.33 169.97 106.92 171.19 107.42 172.19 Z M 107.93 173.21 L 108.44 174.19 C 108.96 175.18 110.18 175.56 111.17 175.05 C 112.16 174.53 112.54 173.31 112.03 172.32 L 111.51 171.34 C 111.00 170.35 109.77 169.96 108.79 170.48 C 107.80 171.00 107.41 172.22 107.93 173.21 Z M 108.46 174.21 L 108.93 175.08 C 109.46 176.07 110.68 176.43 111.66 175.90 C 112.64 175.37 113.01 174.15 112.48 173.17 L 112.01 172.30 C 111.48 171.32 110.26 170.95 109.28 171.48 C 108.30 172.01 107.93 173.23 108.46 174.21 Z M 108.94 175.10 L 109.43 175.98 C 109.97 176.96 111.19 177.31 112.17 176.77 C 113.14 176.24 113.50 175.01 112.96 174.04 L 112.47 173.15 C 111.93 172.18 110.70 171.82 109.73 172.36 C 108.76 172.90 108.40 174.13 108.94 175.10 Z M 109.44 176.00 L 109.94 176.89 C 110.49 177.85 111.71 178.20 112.68 177.65 C 113.65 177.11 113.99 175.88 113.45 174.91 L 112.94 174.02 C 112.40 173.06 111.17 172.71 110.21 173.26 C 109.24 173.80 108.90 175.03 109.44 176.00 Z M 109.95 176.90 L 110.46 177.78 C 111.01 178.74 112.24 179.08 113.20 178.52 C 114.16 177.97 114.49 176.75 113.94 175.79 L 113.44 174.90 C 112.88 173.94 111.66 173.61 110.70 174.16 C 109.74 174.71 109.40 175.94 109.95 176.90 Z M 110.47 177.79 L 110.98 178.66 C 111.53 179.61 112.76 179.94 113.71 179.38 C 114.67 178.83 114.99 177.60 114.44 176.65 L 113.93 175.78 C 113.38 174.82 112.15 174.50 111.20 175.05 C 110.24 175.61 109.92 176.83 110.47 177.79 Z M 110.99 178.67 L 111.48 179.51 C 112.04 180.46 113.27 180.77 114.22 180.21 C 115.17 179.65 115.48 178.43 114.92 177.48 L 114.43 176.64 C 113.87 175.69 112.64 175.37 111.69 175.93 C 110.74 176.49 110.43 177.72 110.99 178.67 Z M 111.50 179.51 L 112.01 180.37 C 112.57 181.31 113.79 181.62 114.73 181.06 C 115.68 180.50 115.98 179.28 115.42 178.33 L 114.91 177.47 C 114.35 176.53 113.13 176.22 112.18 176.79 C 111.24 177.35 110.93 178.57 111.50 179.51 Z M 112.03 180.38 L 112.54 181.22 C 113.10 182.15 114.32 182.45 115.25 181.88 C 116.18 181.32 116.48 180.11 115.91 179.17 L 115.40 178.33 C 114.84 177.40 113.62 177.10 112.69 177.67 C 111.76 178.23 111.46 179.44 112.03 180.38 Z M 112.56 181.22 L 113.07 182.05 C 113.64 182.97 114.85 183.25 115.76 182.68 C 116.68 182.12 116.97 180.91 116.40 179.99 L 115.89 179.17 C 115.32 178.25 114.12 177.97 113.20 178.53 C 112.28 179.10 112.00 180.31 112.56 181.22 Z M 113.10 182.06 L 113.62 182.88 C 114.19 183.78 115.39 184.05 116.29 183.48 C 117.19 182.91 117.46 181.71 116.89 180.81 L 116.37 179.99 C 115.80 179.08 114.61 178.81 113.70 179.38 C 112.80 179.96 112.53 181.15 113.10 182.06 Z M 113.65 182.89 L 114.19 183.72 C 114.76 184.61 115.95 184.87 116.84 184.29 C 117.73 183.72 117.98 182.53 117.41 181.64 L 116.87 180.80 C 116.29 179.91 115.10 179.66 114.21 180.23 C 113.33 180.81 113.07 182.00 113.65 182.89 Z M 114.21 183.73 L 114.79 184.60 C 115.37 185.48 116.55 185.72 117.42 185.14 C 118.30 184.56 118.54 183.38 117.96 182.50 L 117.38 181.63 C 116.80 180.76 115.63 180.52 114.75 181.10 C 113.87 181.68 113.63 182.86 114.21 183.73 Z M 114.81 184.61 L 115.37 185.44 C 115.96 186.30 117.13 186.53 117.99 185.95 C 118.85 185.37 119.08 184.19 118.50 183.33 L 117.94 182.50 C 117.35 181.64 116.18 181.41 115.32 181.99 C 114.46 182.57 114.23 183.74 114.81 184.61 Z M 115.39 185.45 L 115.97 186.29 C 116.56 187.14 117.72 187.36 118.57 186.77 C 119.43 186.18 119.64 185.02 119.06 184.17 L 118.48 183.33 C 117.89 182.47 116.73 182.26 115.88 182.84 C 115.02 183.43 114.81 184.59 115.39 185.45 Z M 115.99 186.29 L 116.58 187.14 C 117.17 187.99 118.33 188.19 119.18 187.60 C 120.02 187.01 120.22 185.85 119.63 185.01 L 119.04 184.16 C 118.45 183.32 117.29 183.11 116.45 183.70 C 115.61 184.29 115.40 185.45 115.99 186.29 Z M 116.60 187.15 L 117.20 188.00 C 117.80 188.83 118.95 189.02 119.78 188.43 C 120.62 187.84 120.81 186.68 120.22 185.85 L 119.62 185.01 C 119.02 184.17 117.87 183.98 117.04 184.57 C 116.20 185.16 116.01 186.32 116.60 187.15 Z M 117.22 188.00 L 117.82 188.83 C 118.42 189.65 119.56 189.83 120.39 189.23 C 121.21 188.64 121.39 187.49 120.80 186.67 L 120.20 185.84 C 119.60 185.02 118.45 184.84 117.63 185.44 C 116.81 186.03 116.63 187.18 117.22 188.00 Z M 117.84 188.83 L 118.42 189.62 C 119.02 190.43 120.17 190.60 120.98 190.00 C 121.79 189.40 121.96 188.25 121.36 187.44 L 120.78 186.66 C 120.17 185.85 119.03 185.68 118.22 186.28 C 117.41 186.88 117.24 188.02 117.84 188.83 Z M 118.44 189.63 L 119.01 190.38 C 119.62 191.18 120.76 191.33 121.56 190.72 C 122.36 190.12 122.51 188.98 121.90 188.18 L 121.33 187.43 C 120.73 186.63 119.59 186.48 118.79 187.09 C 117.99 187.69 117.84 188.83 118.44 189.63 Z M 119.05 190.40 L 119.76 191.30 C 120.38 192.08 121.51 192.21 122.29 191.59 C 123.07 190.97 123.20 189.84 122.58 189.06 L 121.87 188.16 C 121.25 187.38 120.12 187.25 119.34 187.87 C 118.56 188.49 118.43 189.62 119.05 190.40 Z M 119.81 191.33 L 120.48 192.12 C 121.12 192.87 122.24 192.97 122.99 192.33 C 123.74 191.70 123.84 190.57 123.20 189.82 L 122.53 189.03 C 121.90 188.28 120.78 188.19 120.02 188.82 C 119.27 189.46 119.18 190.58 119.81 191.33 Z M 120.54 192.16 L 121.18 192.86 C 121.84 193.58 122.95 193.63 123.67 192.98 C 124.39 192.32 124.44 191.21 123.79 190.49 L 123.14 189.78 C 122.49 189.06 121.37 189.01 120.65 189.67 C 119.94 190.33 119.89 191.44 120.54 192.16 Z M 121.25 192.90 L 121.89 193.55 C 122.57 194.23 123.68 194.23 124.36 193.56 C 125.04 192.88 125.04 191.77 124.36 191.09 L 123.72 190.45 C 123.04 189.76 121.94 189.76 121.26 190.44 C 120.57 191.12 120.57 192.22 121.25 192.90 Z M 121.96 193.59 L 122.64 194.21 C 123.34 194.86 124.43 194.81 125.07 194.11 C 125.72 193.41 125.68 192.32 124.97 191.68 L 124.30 191.05 C 123.60 190.41 122.50 190.45 121.86 191.15 C 121.21 191.85 121.26 192.95 121.96 193.59 Z M 122.69 194.25 L 123.44 194.89 C 124.16 195.50 125.24 195.41 125.86 194.69 C 126.47 193.97 126.39 192.89 125.66 192.27 L 124.92 191.64 C 124.20 191.02 123.11 191.11 122.50 191.83 C 121.88 192.55 121.97 193.64 122.69 194.25 Z M 123.48 194.92 L 124.26 195.54 C 124.99 196.13 126.07 196.02 126.67 195.28 C 127.26 194.54 127.14 193.46 126.40 192.87 L 125.62 192.24 C 124.89 191.65 123.81 191.77 123.21 192.51 C 122.62 193.25 122.74 194.32 123.48 194.92 Z M 124.28 195.56 L 125.08 196.18 C 125.83 196.75 126.91 196.62 127.48 195.87 C 128.06 195.12 127.92 194.04 127.17 193.46 L 126.37 192.85 C 125.63 192.27 124.55 192.41 123.97 193.16 C 123.40 193.91 123.53 194.98 124.28 195.56 Z M 125.10 196.19 L 125.91 196.80 C 126.67 197.37 127.74 197.22 128.31 196.46 C 128.88 195.71 128.72 194.64 127.97 194.07 L 127.16 193.46 C 126.40 192.89 125.33 193.04 124.76 193.79 C 124.20 194.55 124.35 195.62 125.10 196.19 Z M 125.92 196.80 L 126.12 196.95 C 126.88 197.52 127.95 197.37 128.51 196.61 C 129.08 195.86 128.93 194.79 128.17 194.22 L 127.97 194.07 C 127.21 193.50 126.14 193.65 125.57 194.41 C 125.01 195.16 125.16 196.23 125.92 196.80 Z"
      fill="black"
      fill-rule="nonzero" /><path d="M 113.85 175.51 L 114.49 174.71 C 115.22 173.81 115.07 172.49 114.17 171.76 C 113.26 171.04 111.94 171.19 111.22 172.09 L 110.58 172.89 C 109.85 173.79 110.00 175.11 110.90 175.84 C 111.81 176.56 113.13 176.41 113.85 175.51 Z M 114.51 174.84 L 115.17 174.08 C 115.97 173.17 115.88 171.78 114.96 170.98 C 114.05 170.19 112.66 170.28 111.86 171.20 L 111.20 171.96 C 110.40 172.87 110.50 174.26 111.41 175.06 C 112.33 175.85 113.71 175.76 114.51 174.84 Z M 115.11 174.29 L 115.82 173.61 C 116.73 172.73 116.76 171.27 115.88 170.36 C 115.00 169.45 113.54 169.42 112.63 170.30 L 111.92 170.99 C 111.01 171.87 110.98 173.32 111.87 174.23 C 112.75 175.15 114.20 175.17 115.11 174.29 Z M 115.63 173.88 L 116.40 173.31 C 117.46 172.53 117.69 171.05 116.91 169.99 C 116.14 168.93 114.65 168.70 113.59 169.47 L 112.82 170.04 C 111.76 170.81 111.53 172.30 112.31 173.36 C 113.08 174.42 114.57 174.65 115.63 173.88 Z M 116.12 173.53 L 116.95 173.10 C 118.14 172.48 118.59 171.01 117.97 169.83 C 117.35 168.65 115.89 168.19 114.71 168.81 L 113.87 169.25 C 112.69 169.87 112.23 171.33 112.85 172.51 C 113.47 173.70 114.93 174.15 116.12 173.53 Z M 116.71 173.22 L 117.63 172.86 C 118.88 172.37 119.50 170.96 119.01 169.72 C 118.52 168.47 117.12 167.85 115.87 168.33 L 114.95 168.69 C 113.70 169.18 113.08 170.59 113.57 171.84 C 114.06 173.08 115.46 173.70 116.71 173.22 Z M 117.48 172.92 L 118.49 172.60 C 119.77 172.20 120.48 170.83 120.08 169.55 C 119.67 168.26 118.30 167.55 117.02 167.96 L 116.02 168.27 C 114.73 168.68 114.02 170.05 114.43 171.33 C 114.83 172.61 116.20 173.32 117.48 172.92 Z M 118.43 172.63 L 119.30 172.38 C 120.60 172.00 121.35 170.65 120.98 169.35 C 120.60 168.06 119.25 167.31 117.95 167.68 L 117.08 167.93 C 115.78 168.30 115.03 169.66 115.41 170.95 C 115.78 172.25 117.13 173.00 118.43 172.63 Z M 119.28 172.39 L 120.11 172.16 C 121.41 171.80 122.18 170.45 121.81 169.15 C 121.45 167.84 120.11 167.08 118.80 167.44 L 117.98 167.67 C 116.67 168.03 115.91 169.38 116.27 170.68 C 116.63 171.98 117.98 172.75 119.28 172.39 Z M 120.09 172.16 L 120.99 171.92 C 122.30 171.57 123.08 170.23 122.73 168.92 C 122.38 167.62 121.03 166.84 119.73 167.19 L 118.82 167.43 C 117.52 167.78 116.74 169.12 117.09 170.43 C 117.44 171.74 118.78 172.51 120.09 172.16 Z M 120.98 171.93 L 121.97 171.67 C 123.29 171.33 124.07 169.99 123.73 168.68 C 123.39 167.37 122.06 166.59 120.75 166.92 L 119.75 167.18 C 118.44 167.52 117.65 168.86 117.99 170.17 C 118.33 171.48 119.66 172.27 120.98 171.93 Z M 121.96 171.68 L 123.07 171.40 C 124.39 171.07 125.18 169.73 124.85 168.42 C 124.52 167.11 123.19 166.31 121.88 166.64 L 120.76 166.92 C 119.45 167.25 118.65 168.58 118.98 169.90 C 119.31 171.21 120.64 172.01 121.96 171.68 Z M 123.06 171.40 L 124.16 171.13 C 125.47 170.81 126.28 169.48 125.96 168.16 C 125.64 166.85 124.31 166.04 122.99 166.36 L 121.89 166.63 C 120.57 166.96 119.77 168.28 120.09 169.60 C 120.41 170.92 121.74 171.73 123.06 171.40 Z M 124.15 171.14 L 125.12 170.90 C 126.44 170.59 127.25 169.26 126.93 167.94 C 126.61 166.62 125.29 165.81 123.97 166.13 L 123.00 166.36 C 121.68 166.68 120.87 168.00 121.18 169.32 C 121.50 170.64 122.83 171.46 124.15 171.14 Z M 125.11 170.91 L 126.12 170.67 C 127.44 170.35 128.26 169.03 127.94 167.71 C 127.63 166.39 126.31 165.57 124.98 165.89 L 123.97 166.12 C 122.65 166.44 121.84 167.76 122.15 169.08 C 122.46 170.40 123.79 171.22 125.11 170.91 Z M 126.11 170.67 L 127.14 170.43 C 128.46 170.12 129.28 168.80 128.97 167.48 C 128.66 166.15 127.34 165.33 126.02 165.64 L 124.99 165.88 C 123.67 166.19 122.85 167.51 123.16 168.84 C 123.47 170.16 124.79 170.98 126.11 170.67 Z M 127.13 170.43 L 128.16 170.19 C 129.48 169.89 130.30 168.57 130.00 167.25 C 129.69 165.92 128.37 165.10 127.05 165.40 L 126.03 165.64 C 124.70 165.95 123.88 167.27 124.19 168.59 C 124.49 169.91 125.81 170.74 127.13 170.43 Z M 128.15 170.20 L 129.14 169.97 C 130.46 169.67 131.29 168.35 130.99 167.03 C 130.69 165.70 129.37 164.88 128.05 165.18 L 127.06 165.40 C 125.73 165.70 124.90 167.02 125.21 168.35 C 125.51 169.67 126.82 170.50 128.15 170.20 Z M 129.13 169.97 L 130.07 169.76 C 131.39 169.47 132.23 168.15 131.93 166.83 C 131.63 165.50 130.32 164.67 128.99 164.96 L 128.06 165.18 C 126.73 165.47 125.90 166.79 126.20 168.11 C 126.49 169.44 127.81 170.27 129.13 169.97 Z M 130.06 169.76 L 130.99 169.56 C 132.31 169.27 133.15 167.96 132.86 166.63 C 132.57 165.31 131.26 164.47 129.93 164.76 L 129.00 164.96 C 127.68 165.25 126.84 166.56 127.13 167.89 C 127.42 169.22 128.73 170.06 130.06 169.76 Z M 130.97 169.56 L 132.17 169.31 C 133.50 169.03 134.34 167.72 134.06 166.40 C 133.78 165.07 132.47 164.22 131.15 164.50 L 129.95 164.75 C 128.62 165.04 127.77 166.34 128.06 167.67 C 128.34 169.00 129.64 169.85 130.97 169.56 Z M 132.15 169.31 L 133.16 169.11 C 134.49 168.84 135.34 167.54 135.07 166.21 C 134.80 164.88 133.50 164.02 132.17 164.29 L 131.16 164.50 C 129.83 164.77 128.98 166.07 129.25 167.40 C 129.52 168.73 130.82 169.59 132.15 169.31 Z M 133.15 169.11 L 134.03 168.93 C 135.36 168.67 136.23 167.37 135.96 166.04 C 135.69 164.71 134.40 163.85 133.07 164.11 L 132.18 164.29 C 130.85 164.56 129.99 165.85 130.25 167.18 C 130.52 168.51 131.81 169.38 133.15 169.11 Z M 134.04 168.93 L 134.86 168.77 C 136.20 168.50 137.06 167.20 136.79 165.87 C 136.52 164.54 135.22 163.68 133.89 163.95 L 133.06 164.11 C 131.73 164.38 130.87 165.68 131.14 167.01 C 131.41 168.34 132.70 169.20 134.04 168.93 Z M 134.88 168.76 L 135.80 168.57 C 137.12 168.29 137.97 166.99 137.70 165.66 C 137.42 164.33 136.11 163.48 134.78 163.76 L 133.87 163.95 C 132.54 164.23 131.69 165.53 131.97 166.86 C 132.25 168.19 133.56 169.04 134.88 168.76 Z M 135.81 168.56 L 136.79 168.35 C 138.11 168.06 138.95 166.76 138.66 165.43 C 138.38 164.11 137.07 163.27 135.74 163.55 L 134.77 163.76 C 133.44 164.05 132.60 165.36 132.89 166.68 C 133.18 168.01 134.49 168.85 135.81 168.56 Z M 136.78 168.35 L 137.77 168.13 C 139.10 167.85 139.94 166.54 139.65 165.22 C 139.36 163.90 138.06 163.06 136.73 163.34 L 135.75 163.56 C 134.42 163.84 133.58 165.15 133.87 166.47 C 134.16 167.79 135.46 168.63 136.78 168.35 Z M 137.76 168.13 L 138.74 167.93 C 140.07 167.65 140.92 166.35 140.64 165.03 C 140.36 163.70 139.06 162.86 137.74 163.13 L 136.75 163.34 C 135.43 163.62 134.58 164.92 134.86 166.24 C 135.14 167.56 136.43 168.41 137.76 168.13 Z M 138.71 167.93 L 139.71 167.73 C 141.03 167.47 141.90 166.19 141.64 164.86 C 141.38 163.54 140.09 162.68 138.77 162.94 L 137.77 163.13 C 136.45 163.39 135.58 164.68 135.84 166.00 C 136.10 167.33 137.39 168.19 138.71 167.93 Z M 139.68 167.73 L 140.67 167.55 C 142.00 167.31 142.87 166.04 142.63 164.71 C 142.38 163.38 141.11 162.51 139.78 162.75 L 138.80 162.94 C 137.47 163.18 136.59 164.45 136.84 165.78 C 137.08 167.10 138.36 167.98 139.68 167.73 Z M 140.66 167.55 L 141.64 167.37 C 142.96 167.14 143.84 165.87 143.60 164.55 C 143.36 163.22 142.10 162.34 140.77 162.58 L 139.80 162.76 C 138.47 162.99 137.59 164.26 137.83 165.58 C 138.07 166.91 139.33 167.79 140.66 167.55 Z M 141.64 167.37 L 142.61 167.19 C 143.93 166.95 144.81 165.68 144.57 164.36 C 144.33 163.04 143.06 162.17 141.74 162.41 L 140.77 162.59 C 139.45 162.83 138.57 164.09 138.81 165.41 C 139.05 166.74 140.32 167.61 141.64 167.37 Z M 142.63 167.18 L 143.62 166.99 C 144.93 166.74 145.80 165.47 145.55 164.15 C 145.29 162.84 144.02 161.98 142.71 162.23 L 141.72 162.42 C 140.40 162.67 139.54 163.94 139.79 165.26 C 140.04 166.57 141.32 167.44 142.63 167.18 Z M 143.63 166.99 L 144.62 166.79 C 145.93 166.53 146.78 165.26 146.52 163.95 C 146.26 162.63 144.99 161.78 143.68 162.04 L 142.69 162.24 C 141.38 162.49 140.53 163.77 140.79 165.08 C 141.05 166.39 142.32 167.24 143.63 166.99 Z M 144.62 166.78 L 145.60 166.59 C 146.90 166.33 147.76 165.06 147.50 163.75 C 147.24 162.44 145.96 161.59 144.66 161.85 L 143.68 162.05 C 142.37 162.31 141.52 163.58 141.78 164.89 C 142.04 166.19 143.31 167.04 144.62 166.78 Z M 145.58 166.59 L 146.56 166.40 C 147.87 166.14 148.72 164.88 148.47 163.57 C 148.22 162.27 146.95 161.41 145.65 161.67 L 144.67 161.86 C 143.36 162.11 142.51 163.37 142.76 164.68 C 143.01 165.99 144.28 166.84 145.58 166.59 Z M 146.54 166.40 L 147.53 166.21 C 148.84 165.97 149.70 164.72 149.46 163.41 C 149.22 162.11 147.96 161.24 146.66 161.49 L 145.67 161.67 C 144.36 161.91 143.50 163.17 143.74 164.47 C 143.98 165.78 145.24 166.64 146.54 166.40 Z M 147.52 166.21 L 148.50 166.03 C 149.80 165.80 150.67 164.55 150.44 163.25 C 150.20 161.95 148.96 161.08 147.66 161.31 L 146.67 161.49 C 145.37 161.72 144.50 162.97 144.73 164.27 C 144.97 165.57 146.21 166.44 147.52 166.21 Z M 148.49 166.03 L 149.47 165.86 C 150.77 165.63 151.64 164.39 151.41 163.09 C 151.18 161.79 149.94 160.92 148.64 161.15 L 147.67 161.32 C 146.36 161.55 145.50 162.78 145.72 164.09 C 145.95 165.39 147.19 166.26 148.49 166.03 Z M 149.46 165.85 L 150.45 165.68 C 151.74 165.45 152.61 164.22 152.39 162.92 C 152.16 161.63 150.93 160.76 149.63 160.98 L 148.65 161.15 C 147.35 161.38 146.48 162.61 146.71 163.91 C 146.93 165.21 148.17 166.08 149.46 165.85 Z M 150.45 165.67 L 151.43 165.50 C 152.72 165.28 153.59 164.05 153.37 162.75 C 153.14 161.46 151.91 160.59 150.62 160.82 L 149.63 160.99 C 148.34 161.21 147.47 162.44 147.70 163.74 C 147.92 165.03 149.15 165.90 150.45 165.67 Z M 151.43 165.49 L 152.41 165.32 C 153.70 165.10 154.57 163.87 154.34 162.58 C 154.12 161.29 152.89 160.43 151.60 160.65 L 150.62 160.82 C 149.33 161.05 148.46 162.28 148.69 163.57 C 148.91 164.85 150.14 165.72 151.43 165.49 Z M 152.41 165.32 L 153.40 165.15 C 154.68 164.92 155.55 163.70 155.32 162.41 C 155.10 161.13 153.87 160.26 152.59 160.49 L 151.60 160.66 C 150.32 160.88 149.46 162.11 149.68 163.39 C 149.90 164.68 151.13 165.54 152.41 165.32 Z M 153.40 165.14 L 154.37 164.97 C 155.65 164.75 156.51 163.53 156.29 162.24 C 156.07 160.96 154.85 160.10 153.56 160.33 L 152.59 160.50 C 151.31 160.72 150.45 161.94 150.67 163.22 C 150.89 164.50 152.11 165.36 153.40 165.14 Z M 154.37 164.96 L 155.34 164.79 C 156.62 164.57 157.48 163.36 157.26 162.08 C 157.04 160.80 155.82 159.94 154.55 160.16 L 153.57 160.33 C 152.29 160.55 151.43 161.77 151.65 163.05 C 151.87 164.33 153.09 165.18 154.37 164.96 Z M 155.34 164.79 L 156.33 164.62 C 157.61 164.40 158.46 163.19 158.25 161.92 C 158.03 160.64 156.82 159.78 155.54 160.00 L 154.55 160.17 C 153.28 160.39 152.42 161.60 152.64 162.87 C 152.85 164.15 154.06 165.00 155.34 164.79 Z M 156.32 164.61 L 157.33 164.45 C 158.60 164.23 159.46 163.03 159.24 161.76 C 159.03 160.49 157.83 159.63 156.56 159.84 L 155.55 160.01 C 154.28 160.22 153.42 161.42 153.63 162.70 C 153.85 163.97 155.05 164.83 156.32 164.61 Z M 157.31 164.44 L 158.32 164.28 C 159.59 164.07 160.45 162.88 160.25 161.61 C 160.04 160.33 158.84 159.47 157.57 159.68 L 156.57 159.84 C 155.30 160.05 154.43 161.25 154.64 162.52 C 154.85 163.79 156.04 164.65 157.31 164.44 Z M 158.30 164.28 L 159.30 164.12 C 160.57 163.92 161.44 162.74 161.24 161.47 C 161.05 160.20 159.86 159.33 158.59 159.53 L 157.59 159.68 C 156.32 159.88 155.45 161.07 155.65 162.34 C 155.85 163.61 157.03 164.47 158.30 164.28 Z M 159.28 164.12 L 160.25 163.98 C 161.52 163.80 162.40 162.62 162.22 161.35 C 162.03 160.08 160.85 159.20 159.59 159.39 L 158.61 159.53 C 157.34 159.71 156.46 160.89 156.65 162.16 C 156.83 163.43 158.01 164.30 159.28 164.12 Z M 160.22 163.98 L 161.16 163.86 C 162.43 163.69 163.32 162.53 163.15 161.26 C 162.99 159.99 161.82 159.10 160.55 159.26 L 159.62 159.38 C 158.35 159.55 157.46 160.71 157.62 161.98 C 157.79 163.25 158.95 164.15 160.22 163.98 Z M 161.11 163.86 L 162.04 163.75 C 163.31 163.61 164.22 162.47 164.08 161.20 C 163.94 159.93 162.79 159.01 161.52 159.16 L 160.60 159.26 C 159.33 159.40 158.41 160.55 158.56 161.82 C 158.70 163.09 159.84 164.00 161.11 163.86 Z M 162.00 163.75 L 162.98 163.66 C 164.25 163.54 165.18 162.42 165.06 161.15 C 164.95 159.88 163.82 158.95 162.55 159.06 L 161.57 159.16 C 160.30 159.27 159.37 160.40 159.48 161.67 C 159.60 162.94 160.73 163.87 162.00 163.75 Z M 162.94 163.66 L 164.05 163.58 C 165.32 163.48 166.27 162.37 166.17 161.10 C 166.07 159.83 164.97 158.88 163.70 158.98 L 162.59 159.07 C 161.32 159.16 160.37 160.27 160.47 161.54 C 160.57 162.81 161.67 163.76 162.94 163.66 Z M 164.03 163.57 L 164.87 163.52 C 166.13 163.43 167.09 162.34 167.01 161.07 C 166.92 159.80 165.83 158.84 164.56 158.93 L 163.72 158.98 C 162.45 159.07 161.49 160.16 161.58 161.43 C 161.66 162.70 162.76 163.66 164.03 163.57 Z M 164.85 163.52 L 165.75 163.46 C 167.02 163.39 167.99 162.30 167.91 161.03 C 167.84 159.77 166.75 158.80 165.48 158.87 L 164.58 158.93 C 163.31 159.00 162.34 160.09 162.42 161.36 C 162.49 162.62 163.58 163.59 164.85 163.52 Z M 165.73 163.46 L 166.72 163.41 C 167.98 163.35 168.96 162.27 168.89 161.00 C 168.83 159.74 167.75 158.76 166.48 158.83 L 165.50 158.88 C 164.24 158.94 163.26 160.02 163.32 161.29 C 163.39 162.55 164.47 163.53 165.73 163.46 Z M 166.70 163.41 L 167.75 163.37 C 169.01 163.31 170.00 162.24 169.94 160.98 C 169.89 159.71 168.82 158.73 167.55 158.78 L 166.50 158.83 C 165.24 158.88 164.25 159.95 164.31 161.22 C 164.36 162.48 165.43 163.46 166.70 163.41 Z M 167.73 163.37 L 168.85 163.33 C 170.11 163.29 171.10 162.23 171.06 160.96 C 171.02 159.70 169.96 158.71 168.69 158.75 L 167.58 158.79 C 166.31 158.83 165.32 159.89 165.36 161.15 C 165.40 162.42 166.46 163.41 167.73 163.37 Z M 168.83 163.33 L 169.94 163.30 C 171.20 163.27 172.20 162.22 172.17 160.95 C 172.14 159.69 171.09 158.69 169.83 158.72 L 168.71 158.75 C 167.45 158.78 166.45 159.83 166.48 161.09 C 166.51 162.36 167.56 163.36 168.83 163.33 Z M 169.92 163.29 L 170.96 163.28 C 172.23 163.26 173.23 162.22 173.21 160.96 C 173.19 159.69 172.15 158.69 170.89 158.71 L 169.84 158.73 C 168.58 158.75 167.58 159.79 167.60 161.05 C 167.62 162.31 168.66 163.31 169.92 163.29 Z M 170.95 163.27 L 172.01 163.26 C 173.26 163.25 174.27 162.22 174.26 160.96 C 174.25 159.70 173.22 158.69 171.96 158.70 L 170.91 158.71 C 169.65 158.73 168.64 159.76 168.65 161.01 C 168.66 162.27 169.69 163.28 170.95 163.27 Z M 171.99 163.26 L 173.04 163.25 C 174.29 163.25 175.31 162.23 175.31 160.97 C 175.30 159.72 174.28 158.70 173.03 158.71 L 171.98 158.71 C 170.72 158.71 169.71 159.73 169.71 160.99 C 169.71 162.24 170.73 163.26 171.99 163.26 Z M 173.02 163.25 L 174.04 163.25 C 175.29 163.26 176.31 162.25 176.32 161.00 C 176.32 159.74 175.31 158.72 174.06 158.72 L 173.04 158.71 C 171.79 158.71 170.77 159.72 170.76 160.97 C 170.76 162.22 171.77 163.24 173.02 163.25 Z M 174.02 163.25 L 174.98 163.26 C 176.23 163.28 177.26 162.27 177.27 161.03 C 177.29 159.78 176.29 158.75 175.04 158.73 L 174.08 158.72 C 172.83 158.71 171.80 159.71 171.78 160.96 C 171.77 162.21 172.77 163.23 174.02 163.25 Z M 174.96 163.25 L 175.84 163.27 C 177.09 163.30 178.12 162.31 178.15 161.06 C 178.18 159.82 177.19 158.79 175.94 158.76 L 175.06 158.74 C 173.81 158.71 172.78 159.70 172.75 160.95 C 172.72 162.20 173.71 163.23 174.96 163.25 Z M 175.80 163.27 L 176.97 163.31 C 178.21 163.36 179.26 162.40 179.31 161.15 C 179.36 159.91 178.39 158.86 177.15 158.81 L 175.98 158.76 C 174.74 158.71 173.69 159.68 173.64 160.93 C 173.59 162.17 174.56 163.22 175.80 163.27 Z M 176.84 163.30 L 177.87 163.40 C 179.11 163.52 180.20 162.61 180.32 161.37 C 180.44 160.14 179.53 159.04 178.30 158.92 L 177.27 158.82 C 176.03 158.71 174.93 159.61 174.82 160.85 C 174.70 162.09 175.61 163.18 176.84 163.30 Z M 177.63 163.36 L 178.53 163.54 C 179.74 163.79 180.93 163.01 181.18 161.79 C 181.43 160.58 180.64 159.39 179.43 159.14 L 178.53 158.96 C 177.32 158.71 176.13 159.50 175.88 160.71 C 175.63 161.93 176.42 163.11 177.63 163.36 Z M 178.21 163.45 L 179.04 163.75 C 180.21 164.18 181.49 163.58 181.92 162.42 C 182.34 161.25 181.74 159.97 180.58 159.54 L 179.75 159.24 C 178.58 158.81 177.30 159.41 176.87 160.58 C 176.45 161.74 177.05 163.03 178.21 163.45 Z M 178.73 163.62 L 179.56 164.07 C 180.64 164.67 182.01 164.28 182.61 163.19 C 183.21 162.10 182.81 160.73 181.73 160.13 L 180.90 159.68 C 179.81 159.08 178.44 159.47 177.84 160.56 C 177.24 161.65 177.64 163.02 178.73 163.62 Z M 179.29 163.93 L 180.10 164.53 C 181.11 165.28 182.53 165.06 183.28 164.05 C 184.02 163.04 183.81 161.62 182.80 160.88 L 181.99 160.28 C 180.98 159.53 179.56 159.75 178.81 160.75 C 178.07 161.76 178.28 163.19 179.29 163.93 Z M 179.86 164.36 L 180.60 165.07 C 181.52 165.95 182.98 165.92 183.85 165.00 C 184.73 164.08 184.70 162.63 183.78 161.75 L 183.04 161.04 C 182.12 160.17 180.67 160.20 179.79 161.11 C 178.91 162.03 178.95 163.49 179.86 164.36 Z M 180.37 164.85 L 180.99 165.64 C 181.79 166.65 183.25 166.82 184.25 166.02 C 185.26 165.23 185.43 163.77 184.64 162.76 L 184.02 161.97 C 183.22 160.97 181.76 160.79 180.75 161.59 C 179.75 162.38 179.57 163.84 180.37 164.85 Z M 180.75 165.32 L 181.21 166.17 C 181.84 167.31 183.26 167.73 184.40 167.11 C 185.54 166.49 185.96 165.06 185.34 163.93 L 184.88 163.08 C 184.26 161.94 182.83 161.52 181.69 162.14 C 180.55 162.76 180.13 164.18 180.75 165.32 Z M 181.03 165.80 L 181.33 166.70 C 181.75 167.95 183.09 168.62 184.33 168.20 C 185.57 167.79 186.24 166.44 185.83 165.20 L 185.53 164.30 C 185.11 163.05 183.77 162.38 182.52 162.80 C 181.28 163.22 180.61 164.56 181.03 165.80 Z M 181.22 166.39 L 181.40 167.35 C 181.64 168.66 182.89 169.52 184.19 169.27 C 185.49 169.03 186.35 167.78 186.11 166.48 L 185.93 165.52 C 185.69 164.22 184.44 163.36 183.14 163.60 C 181.84 163.84 180.98 165.09 181.22 166.39 Z M 181.35 167.14 L 181.45 168.19 C 181.57 169.52 182.75 170.49 184.08 170.37 C 185.41 170.25 186.38 169.07 186.26 167.74 L 186.17 166.70 C 186.04 165.37 184.87 164.39 183.54 164.51 C 182.21 164.63 181.23 165.81 181.35 167.14 Z M 181.42 168.08 L 181.47 169.10 C 181.53 170.44 182.67 171.48 184.02 171.42 C 185.36 171.35 186.40 170.21 186.34 168.87 L 186.29 167.85 C 186.22 166.50 185.08 165.47 183.74 165.53 C 182.40 165.59 181.36 166.74 181.42 168.08 Z M 181.46 169.03 L 181.48 170.05 C 181.51 171.40 182.62 172.47 183.97 172.44 C 185.32 172.42 186.39 171.30 186.37 169.95 L 186.34 168.93 C 186.32 167.58 185.20 166.51 183.85 166.54 C 182.50 166.57 181.43 167.68 181.46 169.03 Z M 181.48 169.98 L 181.47 171.01 C 181.46 172.36 182.54 173.47 183.89 173.48 C 185.25 173.49 186.35 172.40 186.36 171.05 L 186.37 170.02 C 186.38 168.67 185.30 167.56 183.94 167.55 C 182.59 167.54 181.49 168.63 181.48 169.98 Z M 181.46 170.93 L 181.42 171.94 C 181.37 173.29 182.42 174.43 183.77 174.49 C 185.12 174.55 186.27 173.49 186.32 172.14 L 186.37 171.13 C 186.42 169.78 185.37 168.64 184.02 168.58 C 182.66 168.52 181.52 169.58 181.46 170.93 Z M 181.42 171.83 L 181.34 172.78 C 181.23 174.13 182.23 175.32 183.58 175.44 C 184.93 175.55 186.12 174.55 186.24 173.20 L 186.32 172.25 C 186.44 170.89 185.43 169.70 184.08 169.59 C 182.73 169.47 181.54 170.48 181.42 171.83 Z M 181.36 172.63 L 181.22 173.60 C 181.02 174.95 181.95 176.19 183.29 176.39 C 184.64 176.59 185.89 175.66 186.08 174.31 L 186.22 173.35 C 186.42 172.00 185.49 170.75 184.15 170.56 C 182.80 170.36 181.55 171.29 181.36 172.63 Z M 181.25 173.43 L 181.05 174.35 C 180.76 175.68 181.60 176.99 182.92 177.28 C 184.25 177.57 185.56 176.73 185.85 175.40 L 186.05 174.48 C 186.34 173.16 185.50 171.85 184.18 171.55 C 182.85 171.26 181.54 172.10 181.25 173.43 Z M 181.08 174.20 L 180.82 175.14 C 180.44 176.45 181.20 177.81 182.51 178.18 C 183.81 178.56 185.17 177.80 185.55 176.49 L 185.81 175.55 C 186.19 174.25 185.43 172.89 184.12 172.51 C 182.82 172.14 181.46 172.90 181.08 174.20 Z M 180.85 175.04 L 180.51 176.07 C 180.08 177.36 180.78 178.75 182.06 179.18 C 183.35 179.61 184.74 178.91 185.17 177.62 L 185.51 176.59 C 185.94 175.30 185.24 173.91 183.96 173.48 C 182.67 173.06 181.27 173.75 180.85 175.04 Z M 180.52 176.02 L 180.21 176.91 C 179.75 178.19 180.42 179.60 181.70 180.05 C 182.98 180.51 184.38 179.84 184.84 178.56 L 185.16 177.67 C 185.61 176.39 184.94 174.98 183.66 174.53 C 182.38 174.07 180.98 174.74 180.52 176.02 Z M 180.22 176.88 L 179.87 177.81 C 179.40 179.08 180.05 180.50 181.33 180.97 C 182.60 181.44 184.01 180.79 184.48 179.52 L 184.83 178.59 C 185.30 177.32 184.65 175.91 183.38 175.43 C 182.10 174.96 180.69 175.61 180.22 176.88 Z M 179.89 177.78 L 179.52 178.74 C 179.03 180.01 179.66 181.43 180.93 181.92 C 182.20 182.40 183.62 181.77 184.10 180.50 L 184.47 179.54 C 184.96 178.28 184.33 176.86 183.06 176.37 C 181.79 175.88 180.37 176.52 179.89 177.78 Z M 179.53 178.72 L 179.14 179.68 C 178.64 180.94 179.26 182.37 180.52 182.87 C 181.78 183.37 183.20 182.76 183.70 181.50 L 184.09 180.53 C 184.59 179.27 183.98 177.84 182.72 177.34 C 181.46 176.84 180.03 177.46 179.53 178.72 Z M 179.16 179.65 L 178.77 180.60 C 178.25 181.85 178.84 183.28 180.09 183.80 C 181.35 184.32 182.78 183.73 183.30 182.48 L 183.69 181.53 C 184.21 180.28 183.61 178.84 182.36 178.32 C 181.11 177.81 179.68 178.40 179.16 179.65 Z M 178.79 180.56 L 178.37 181.51 C 177.83 182.75 178.40 184.19 179.64 184.73 C 180.89 185.27 182.33 184.70 182.87 183.46 L 183.28 182.51 C 183.82 181.27 183.25 179.83 182.01 179.29 C 180.77 178.75 179.32 179.32 178.79 180.56 Z M 178.40 181.46 L 177.95 182.44 C 177.39 183.67 177.92 185.12 179.15 185.68 C 180.37 186.25 181.82 185.71 182.39 184.49 L 182.84 183.51 C 183.40 182.28 182.87 180.83 181.64 180.27 C 180.42 179.70 178.97 180.24 178.40 181.46 Z M 177.98 182.39 L 177.54 183.30 C 176.95 184.50 177.44 185.96 178.65 186.55 C 179.86 187.15 181.32 186.65 181.91 185.44 L 182.35 184.54 C 182.95 183.33 182.45 181.87 181.24 181.28 C 180.04 180.69 178.58 181.18 177.98 182.39 Z M 177.57 183.25 L 177.13 184.10 C 176.51 185.29 176.97 186.75 178.16 187.37 C 179.35 187.99 180.81 187.53 181.43 186.34 L 181.87 185.49 C 182.49 184.30 182.03 182.84 180.85 182.22 C 179.66 181.60 178.19 182.06 177.57 183.25 Z M 177.16 184.06 L 176.71 184.88 C 176.07 186.04 176.50 187.51 177.66 188.16 C 178.83 188.80 180.30 188.37 180.95 187.20 L 181.40 186.39 C 182.04 185.22 181.61 183.75 180.44 183.10 C 179.28 182.46 177.81 182.89 177.16 184.06 Z M 176.74 184.84 L 176.26 185.68 C 175.60 186.84 175.99 188.31 177.15 188.97 C 178.30 189.63 179.77 189.23 180.43 188.08 L 180.91 187.24 C 181.58 186.09 181.18 184.62 180.03 183.96 C 178.88 183.29 177.41 183.69 176.74 184.84 Z M 176.29 185.65 L 175.78 186.51 C 175.10 187.64 175.47 189.11 176.60 189.79 C 177.73 190.47 179.20 190.10 179.88 188.97 L 180.40 188.11 C 181.07 186.98 180.71 185.51 179.57 184.83 C 178.44 184.15 176.97 184.52 176.29 185.65 Z M 175.82 186.48 L 175.29 187.33 C 174.59 188.44 174.93 189.91 176.04 190.60 C 177.16 191.30 178.62 190.96 179.32 189.85 L 179.85 189.00 C 180.54 187.88 180.20 186.42 179.09 185.72 C 177.98 185.03 176.51 185.37 175.82 186.48 Z M 175.32 187.30 L 174.78 188.14 C 174.06 189.23 174.38 190.70 175.47 191.41 C 176.56 192.12 178.03 191.81 178.74 190.71 L 179.28 189.87 C 179.99 188.78 179.68 187.32 178.59 186.61 C 177.49 185.90 176.03 186.21 175.32 187.30 Z M 174.81 188.11 L 174.25 188.95 C 173.52 190.02 173.80 191.48 174.88 192.21 C 175.95 192.93 177.41 192.65 178.14 191.58 L 178.70 190.74 C 179.43 189.67 179.14 188.21 178.07 187.48 C 177.00 186.76 175.54 187.04 174.81 188.11 Z M 174.29 188.93 L 173.70 189.76 C 172.96 190.81 173.22 192.26 174.27 193.00 C 175.32 193.74 176.77 193.48 177.51 192.43 L 178.10 191.60 C 178.83 190.55 178.58 189.10 177.53 188.36 C 176.48 187.62 175.02 187.87 174.29 188.93 Z M 173.74 189.74 L 173.15 190.56 C 172.40 191.59 172.63 193.03 173.66 193.78 C 174.69 194.53 176.13 194.30 176.88 193.27 L 177.47 192.45 C 178.22 191.42 177.99 189.98 176.96 189.23 C 175.93 188.48 174.49 188.71 173.74 189.74 Z M 173.19 190.54 L 172.59 191.34 C 171.83 192.35 172.04 193.78 173.05 194.53 C 174.05 195.29 175.49 195.09 176.24 194.08 L 176.84 193.28 C 177.60 192.27 177.39 190.84 176.38 190.09 C 175.38 189.33 173.94 189.53 173.19 190.54 Z M 172.63 191.33 L 172.03 192.09 C 171.27 193.08 171.45 194.50 172.44 195.26 C 173.43 196.03 174.85 195.85 175.61 194.86 L 176.20 194.09 C 176.97 193.11 176.79 191.69 175.80 190.92 C 174.81 190.16 173.39 190.34 172.63 191.33 Z M 172.08 192.08 L 171.42 192.91 C 170.65 193.87 170.80 195.28 171.77 196.05 C 172.73 196.82 174.14 196.66 174.91 195.70 L 175.57 194.87 C 176.34 193.91 176.18 192.50 175.22 191.73 C 174.25 190.96 172.85 191.12 172.08 192.08 Z M 171.47 192.89 L 170.82 193.68 C 170.04 194.61 170.17 196.00 171.11 196.78 C 172.04 197.56 173.43 197.43 174.21 196.49 L 174.86 195.71 C 175.64 194.77 175.51 193.38 174.57 192.60 C 173.63 191.83 172.24 191.96 171.47 192.89 Z M 170.87 193.66 L 170.23 194.40 C 169.44 195.31 169.55 196.69 170.46 197.47 C 171.37 198.26 172.74 198.15 173.52 197.24 L 174.16 196.50 C 174.95 195.59 174.84 194.22 173.93 193.44 C 173.02 192.65 171.65 192.75 170.87 193.66 Z M 170.28 194.39 L 169.64 195.10 C 168.85 195.98 168.92 197.34 169.80 198.13 C 170.68 198.92 172.04 198.85 172.83 197.97 L 173.47 197.26 C 174.26 196.38 174.19 195.02 173.31 194.23 C 172.43 193.44 171.07 193.51 170.28 194.39 Z M 169.70 195.09 L 168.99 195.83 C 168.19 196.68 168.23 198.02 169.08 198.82 C 169.93 199.62 171.27 199.58 172.07 198.73 L 172.77 197.99 C 173.57 197.14 173.53 195.80 172.68 195.00 C 171.84 194.20 170.50 194.24 169.70 195.09 Z M 169.06 195.82 L 168.36 196.53 C 167.55 197.34 167.55 198.66 168.37 199.46 C 169.18 200.27 170.50 200.27 171.31 199.45 L 172.00 198.75 C 172.81 197.93 172.81 196.62 171.99 195.81 C 171.18 195.00 169.86 195.01 169.06 195.82 Z M 168.42 196.52 L 167.71 197.20 C 166.90 197.98 166.88 199.27 167.66 200.08 C 168.44 200.89 169.73 200.92 170.54 200.14 L 171.25 199.46 C 172.06 198.68 172.08 197.39 171.30 196.57 C 170.52 195.76 169.23 195.74 168.42 196.52 Z M 167.77 197.19 L 167.05 197.85 C 166.24 198.60 166.18 199.87 166.93 200.68 C 167.68 201.50 168.95 201.55 169.76 200.80 L 170.48 200.14 C 171.30 199.39 171.35 198.13 170.60 197.31 C 169.85 196.49 168.59 196.44 167.77 197.19 Z M 167.14 197.83 L 166.38 198.46 C 165.55 199.16 165.45 200.41 166.15 201.24 C 166.86 202.07 168.10 202.17 168.93 201.47 L 169.68 200.83 C 170.51 200.13 170.61 198.89 169.91 198.06 C 169.21 197.23 167.97 197.12 167.14 197.83 Z M 166.51 198.41 L 165.69 199.01 C 164.84 199.65 164.66 200.86 165.29 201.72 C 165.93 202.57 167.14 202.75 167.99 202.12 L 168.81 201.52 C 169.66 200.88 169.84 199.67 169.21 198.81 C 168.57 197.96 167.36 197.78 166.51 198.41 Z M 165.84 198.96 L 164.98 199.49 C 164.09 200.04 163.82 201.21 164.37 202.10 C 164.93 202.99 166.09 203.26 166.98 202.71 L 167.84 202.18 C 168.73 201.62 169.01 200.46 168.46 199.57 C 167.90 198.68 166.73 198.40 165.84 198.96 Z M 165.15 199.43 L 164.25 199.88 C 163.33 200.34 162.96 201.46 163.42 202.38 C 163.88 203.30 165.00 203.68 165.92 203.22 L 166.82 202.77 C 167.74 202.31 168.11 201.19 167.65 200.27 C 167.19 199.34 166.07 198.97 165.15 199.43 Z M 164.44 199.83 L 163.50 200.18 C 162.55 200.54 162.07 201.60 162.42 202.55 C 162.78 203.50 163.84 203.98 164.79 203.62 L 165.73 203.27 C 166.68 202.91 167.16 201.85 166.81 200.90 C 166.45 199.96 165.39 199.47 164.44 199.83 Z M 163.73 200.14 L 162.76 200.37 C 161.79 200.60 161.19 201.57 161.41 202.54 C 161.64 203.51 162.61 204.12 163.58 203.89 L 164.56 203.66 C 165.53 203.43 166.13 202.46 165.90 201.49 C 165.67 200.52 164.70 199.92 163.73 200.14 Z M 163.04 200.36 L 162.05 200.43 C 161.07 200.51 160.33 201.36 160.41 202.34 C 160.48 203.32 161.34 204.06 162.32 203.98 L 163.31 203.90 C 164.29 203.83 165.02 202.97 164.95 201.99 C 164.87 201.01 164.02 200.28 163.04 200.36 Z M 162.28 200.45 L 161.28 200.40 C 160.31 200.35 159.49 201.09 159.44 202.06 C 159.38 203.03 160.13 203.86 161.10 203.91 L 162.09 203.96 C 163.06 204.01 163.89 203.27 163.94 202.30 C 163.99 201.33 163.24 200.50 162.28 200.45 Z M 161.42 200.43 L 160.43 200.30 C 159.48 200.17 158.61 200.84 158.48 201.79 C 158.35 202.73 159.02 203.61 159.96 203.74 L 160.96 203.87 C 161.91 204.00 162.78 203.34 162.91 202.39 C 163.04 201.44 162.37 200.56 161.42 200.43 Z M 160.49 200.33 L 159.76 200.20 C 158.83 200.04 157.94 200.67 157.78 201.61 C 157.62 202.54 158.25 203.43 159.19 203.59 L 159.91 203.71 C 160.85 203.87 161.73 203.24 161.89 202.31 C 162.05 201.37 161.42 200.48 160.49 200.33 Z"
      fill="black"
      fill-rule="nonzero" /><path d="M 137.26 172.84 L 136.97 173.84 C 136.64 174.97 137.30 176.15 138.43 176.48 C 139.56 176.81 140.75 176.15 141.07 175.02 L 141.36 174.02 C 141.69 172.89 141.03 171.70 139.90 171.38 C 138.77 171.05 137.58 171.71 137.26 172.84 Z M 136.96 173.88 L 136.70 174.87 C 136.40 176.01 137.08 177.18 138.22 177.48 C 139.36 177.78 140.53 177.10 140.83 175.96 L 141.09 174.97 C 141.39 173.83 140.70 172.66 139.56 172.36 C 138.42 172.06 137.26 172.74 136.96 173.88 Z M 136.67 174.97 L 136.47 175.93 C 136.22 177.08 136.96 178.22 138.11 178.46 C 139.26 178.71 140.40 177.97 140.64 176.82 L 140.85 175.86 C 141.09 174.71 140.36 173.57 139.21 173.33 C 138.05 173.08 136.92 173.82 136.67 174.97 Z M 136.44 176.10 L 136.32 177.06 C 136.16 178.23 136.99 179.30 138.16 179.45 C 139.32 179.60 140.39 178.78 140.55 177.61 L 140.67 176.65 C 140.82 175.48 140.00 174.41 138.83 174.26 C 137.66 174.11 136.59 174.93 136.44 176.10 Z M 136.30 177.31 L 136.29 178.32 C 136.28 179.49 137.22 180.45 138.40 180.47 C 139.57 180.48 140.54 179.54 140.55 178.36 L 140.56 177.36 C 140.57 176.18 139.63 175.22 138.45 175.21 C 137.28 175.19 136.32 176.14 136.30 177.31 Z M 136.31 178.61 L 136.44 179.59 C 136.59 180.75 137.66 181.57 138.82 181.42 C 139.98 181.27 140.80 180.20 140.65 179.04 L 140.53 178.07 C 140.37 176.90 139.31 176.08 138.15 176.23 C 136.99 176.38 136.16 177.45 136.31 178.61 Z M 136.51 179.88 L 136.77 180.84 C 137.08 181.96 138.25 182.63 139.37 182.31 C 140.50 182.00 141.16 180.84 140.85 179.71 L 140.59 178.75 C 140.27 177.62 139.11 176.96 137.98 177.27 C 136.86 177.58 136.19 178.75 136.51 179.88 Z M 136.87 181.06 L 137.22 181.94 C 137.65 183.01 138.88 183.53 139.95 183.09 C 141.03 182.66 141.54 181.44 141.11 180.36 L 140.76 179.49 C 140.32 178.41 139.10 177.89 138.02 178.33 C 136.95 178.76 136.43 179.99 136.87 181.06 Z M 137.30 182.05 L 137.73 182.94 C 138.23 183.97 139.47 184.40 140.50 183.90 C 141.53 183.40 141.96 182.17 141.46 181.14 L 141.03 180.25 C 140.53 179.22 139.29 178.79 138.26 179.29 C 137.23 179.78 136.80 181.02 137.30 182.05 Z M 137.79 182.98 L 138.26 183.90 C 138.78 184.90 140.01 185.29 141.02 184.77 C 142.02 184.25 142.41 183.02 141.89 182.02 L 141.41 181.10 C 140.89 180.10 139.66 179.71 138.66 180.23 C 137.65 180.75 137.27 181.98 137.79 182.98 Z M 138.28 183.88 L 138.74 184.78 C 139.25 185.77 140.47 186.16 141.46 185.65 C 142.45 185.15 142.84 183.93 142.33 182.94 L 141.87 182.04 C 141.36 181.05 140.14 180.66 139.15 181.16 C 138.16 181.67 137.77 182.89 138.28 183.88 Z M 138.75 184.73 L 139.17 185.61 C 139.65 186.59 140.85 187.01 141.84 186.52 C 142.83 186.04 143.24 184.85 142.75 183.86 L 142.33 182.99 C 141.85 182.00 140.65 181.59 139.66 182.07 C 138.67 182.55 138.26 183.74 138.75 184.73 Z M 139.17 185.56 L 139.59 186.46 C 140.05 187.45 141.22 187.88 142.21 187.42 C 143.20 186.96 143.63 185.79 143.17 184.80 L 142.75 183.90 C 142.29 182.91 141.12 182.48 140.13 182.94 C 139.14 183.40 138.71 184.57 139.17 185.56 Z M 139.60 186.43 L 140.01 187.36 C 140.45 188.35 141.60 188.79 142.59 188.35 C 143.57 187.92 144.02 186.76 143.58 185.78 L 143.17 184.84 C 142.73 183.85 141.57 183.41 140.59 183.85 C 139.60 184.29 139.16 185.44 139.60 186.43 Z M 140.02 187.33 L 140.43 188.28 C 140.84 189.26 141.98 189.72 142.96 189.30 C 143.94 188.88 144.40 187.75 143.98 186.77 L 143.57 185.81 C 143.16 184.83 142.02 184.37 141.04 184.79 C 140.06 185.21 139.60 186.34 140.02 187.33 Z M 140.44 188.26 L 140.84 189.21 C 141.24 190.18 142.36 190.65 143.33 190.24 C 144.31 189.84 144.77 188.72 144.36 187.74 L 143.97 186.79 C 143.56 185.82 142.44 185.36 141.47 185.76 C 140.50 186.17 140.03 187.28 140.44 188.26 Z M 140.86 189.20 L 141.26 190.15 C 141.66 191.11 142.76 191.57 143.72 191.16 C 144.69 190.76 145.14 189.66 144.74 188.70 L 144.34 187.75 C 143.94 186.79 142.83 186.33 141.87 186.74 C 140.91 187.14 140.46 188.24 140.86 189.20 Z M 141.29 190.17 L 141.68 191.08 C 142.09 192.02 143.19 192.46 144.13 192.05 C 145.08 191.64 145.51 190.54 145.10 189.59 L 144.71 188.68 C 144.30 187.74 143.20 187.31 142.25 187.71 C 141.31 188.12 140.88 189.22 141.29 190.17 Z M 141.73 191.11 L 142.13 191.97 C 142.56 192.89 143.65 193.29 144.57 192.86 C 145.49 192.43 145.89 191.33 145.46 190.41 L 145.06 189.56 C 144.63 188.64 143.53 188.24 142.61 188.67 C 141.69 189.10 141.30 190.19 141.73 191.11 Z M 142.19 192.04 L 142.69 192.99 C 143.16 193.88 144.26 194.22 145.14 193.75 C 146.03 193.29 146.36 192.19 145.90 191.31 L 145.40 190.35 C 144.93 189.47 143.83 189.13 142.95 189.59 C 142.06 190.06 141.73 191.15 142.19 192.04 Z M 142.77 193.05 L 143.27 193.91 C 143.77 194.75 144.86 195.04 145.70 194.54 C 146.55 194.04 146.83 192.95 146.33 192.10 L 145.83 191.25 C 145.33 190.40 144.24 190.12 143.39 190.62 C 142.55 191.12 142.27 192.21 142.77 193.05 Z M 143.33 193.94 L 143.83 194.73 C 144.35 195.55 145.43 195.79 146.24 195.27 C 147.05 194.76 147.29 193.68 146.78 192.87 L 146.27 192.07 C 145.76 191.26 144.68 191.02 143.87 191.53 C 143.05 192.05 142.81 193.13 143.33 193.94 Z M 143.86 194.74 L 144.02 194.98 C 144.54 195.78 145.60 196.01 146.40 195.49 C 147.20 194.98 147.43 193.91 146.91 193.11 L 146.75 192.87 C 146.23 192.07 145.17 191.84 144.37 192.35 C 143.57 192.87 143.34 193.94 143.86 194.74 Z"
      fill="black"
      fill-rule="nonzero" /><path d="M 144.12 176.22 L 145.11 176.34 C 146.31 176.49 147.40 175.64 147.55 174.44 C 147.70 173.24 146.85 172.15 145.65 172.00 L 144.66 171.88 C 143.46 171.73 142.37 172.58 142.22 173.78 C 142.07 174.98 142.92 176.07 144.12 176.22 Z M 145.13 176.34 L 146.12 176.46 C 147.32 176.60 148.41 175.74 148.55 174.54 C 148.69 173.34 147.83 172.25 146.63 172.11 L 145.64 172.00 C 144.44 171.85 143.35 172.71 143.21 173.91 C 143.07 175.11 143.92 176.20 145.13 176.34 Z M 146.14 176.47 L 147.14 176.57 C 148.34 176.70 149.42 175.83 149.55 174.62 C 149.68 173.42 148.80 172.34 147.60 172.21 L 146.61 172.11 C 145.40 171.98 144.32 172.85 144.20 174.06 C 144.07 175.26 144.94 176.34 146.14 176.47 Z M 147.18 176.58 L 148.18 176.67 C 149.39 176.78 150.46 175.88 150.56 174.67 C 150.67 173.46 149.78 172.40 148.57 172.29 L 147.56 172.20 C 146.35 172.10 145.29 172.99 145.18 174.20 C 145.07 175.41 145.97 176.48 147.18 176.58 Z M 148.21 176.68 L 149.24 176.76 C 150.45 176.85 151.52 175.94 151.61 174.73 C 151.70 173.51 150.79 172.45 149.57 172.35 L 148.54 172.28 C 147.32 172.18 146.26 173.10 146.17 174.31 C 146.08 175.53 146.99 176.59 148.21 176.68 Z M 149.20 176.78 L 150.20 176.87 C 151.43 176.98 152.51 176.08 152.63 174.86 C 152.74 173.63 151.84 172.55 150.61 172.43 L 149.61 172.34 C 148.38 172.23 147.30 173.13 147.19 174.35 C 147.07 175.58 147.97 176.66 149.20 176.78 Z M 150.09 176.87 L 151.04 177.01 C 152.27 177.19 153.41 176.34 153.59 175.11 C 153.76 173.88 152.91 172.74 151.68 172.57 L 150.73 172.43 C 149.50 172.25 148.36 173.10 148.18 174.33 C 148.01 175.56 148.86 176.70 150.09 176.87 Z M 150.81 176.98 L 151.81 177.23 C 153.02 177.54 154.25 176.80 154.55 175.59 C 154.86 174.38 154.12 173.15 152.91 172.85 L 151.91 172.60 C 150.70 172.29 149.47 173.03 149.17 174.24 C 148.87 175.45 149.60 176.68 150.81 176.98 Z M 151.40 177.10 L 152.30 177.52 C 153.43 178.05 154.79 177.57 155.32 176.43 C 155.85 175.29 155.37 173.94 154.23 173.41 L 153.33 172.98 C 152.19 172.45 150.84 172.94 150.30 174.07 C 149.77 175.21 150.26 176.56 151.40 177.10 Z M 151.70 177.13 L 152.40 177.78 C 153.32 178.64 154.76 178.59 155.62 177.67 C 156.49 176.75 156.44 175.30 155.52 174.44 L 154.82 173.79 C 153.90 172.93 152.46 172.98 151.59 173.90 C 150.73 174.82 150.78 176.27 151.70 177.13 Z M 151.91 177.11 L 152.30 177.91 C 152.85 179.04 154.22 179.51 155.35 178.96 C 156.48 178.40 156.95 177.04 156.40 175.90 L 156.01 175.11 C 155.45 173.98 154.09 173.51 152.95 174.06 C 151.82 174.61 151.35 175.98 151.91 177.11 Z M 152.12 177.32 L 152.30 178.24 C 152.52 179.47 153.70 180.28 154.93 180.06 C 156.16 179.83 156.97 178.65 156.74 177.42 L 156.57 176.50 C 156.34 175.27 155.16 174.46 153.93 174.69 C 152.71 174.91 151.90 176.09 152.12 177.32 Z M 152.29 177.81 L 152.28 178.86 C 152.27 180.09 153.26 181.10 154.49 181.11 C 155.72 181.12 156.73 180.13 156.74 178.89 L 156.75 177.85 C 156.76 176.62 155.77 175.61 154.54 175.60 C 153.30 175.59 152.30 176.58 152.29 177.81 Z M 152.33 178.52 L 152.16 179.62 C 151.96 180.82 152.78 181.95 153.98 182.15 C 155.18 182.34 156.31 181.52 156.50 180.32 L 156.68 179.23 C 156.88 178.03 156.06 176.90 154.86 176.70 C 153.66 176.51 152.53 177.32 152.33 178.52 Z M 152.25 179.37 L 151.97 180.33 C 151.64 181.48 152.30 182.68 153.45 183.01 C 154.60 183.34 155.80 182.68 156.13 181.53 L 156.41 180.57 C 156.74 179.42 156.08 178.22 154.93 177.89 C 153.78 177.56 152.58 178.22 152.25 179.37 Z M 152.08 180.17 L 151.71 181.12 C 151.29 182.21 151.84 183.43 152.93 183.85 C 154.02 184.27 155.25 183.73 155.66 182.64 L 156.03 181.69 C 156.45 180.60 155.90 179.37 154.81 178.95 C 153.72 178.54 152.50 179.08 152.08 180.17 Z M 151.81 181.02 L 151.39 181.94 C 150.91 182.97 151.37 184.20 152.41 184.68 C 153.44 185.15 154.67 184.70 155.15 183.66 L 155.57 182.74 C 156.05 181.70 155.59 180.47 154.55 180.00 C 153.51 179.52 152.28 179.98 151.81 181.02 Z M 151.47 181.87 L 151.02 182.75 C 150.51 183.74 150.90 184.96 151.89 185.47 C 152.89 185.98 154.10 185.59 154.62 184.60 L 155.06 183.72 C 155.57 182.73 155.18 181.51 154.19 181.00 C 153.20 180.49 151.98 180.88 151.47 181.87 Z M 151.08 182.70 L 150.56 183.63 C 150.02 184.59 150.37 185.81 151.33 186.34 C 152.29 186.88 153.51 186.53 154.04 185.57 L 154.56 184.64 C 155.10 183.68 154.75 182.47 153.79 181.93 C 152.83 181.40 151.61 181.74 151.08 182.70 Z M 150.59 183.58 L 150.07 184.46 C 149.50 185.40 149.81 186.62 150.76 187.19 C 151.70 187.75 152.92 187.44 153.49 186.50 L 154.01 185.62 C 154.57 184.68 154.27 183.45 153.32 182.89 C 152.38 182.33 151.16 182.64 150.59 183.58 Z M 150.10 184.41 L 149.58 185.22 C 148.99 186.15 149.26 187.38 150.19 187.97 C 151.11 188.56 152.35 188.29 152.94 187.36 L 153.46 186.55 C 154.05 185.62 153.78 184.39 152.85 183.80 C 151.92 183.21 150.69 183.48 150.10 184.41 Z M 149.60 185.17 L 149.09 185.93 C 148.47 186.85 148.71 188.09 149.62 188.71 C 150.54 189.33 151.78 189.09 152.40 188.17 L 152.91 187.41 C 153.53 186.50 153.29 185.25 152.38 184.64 C 151.46 184.02 150.22 184.26 149.60 185.17 Z M 149.11 185.89 L 148.58 186.62 C 147.94 187.52 148.15 188.78 149.05 189.42 C 149.96 190.07 151.21 189.86 151.86 188.95 L 152.38 188.22 C 153.03 187.32 152.82 186.06 151.91 185.42 C 151.01 184.77 149.75 184.98 149.11 185.89 Z M 148.61 186.56 L 148.03 187.32 C 147.35 188.21 147.52 189.48 148.42 190.16 C 149.31 190.84 150.58 190.67 151.26 189.77 L 151.84 189.01 C 152.51 188.12 152.34 186.85 151.45 186.17 C 150.56 185.49 149.28 185.67 148.61 186.56 Z M 148.05 187.26 L 147.37 188.10 C 146.66 188.98 146.80 190.27 147.68 190.98 C 148.56 191.69 149.85 191.55 150.56 190.67 L 151.23 189.83 C 151.94 188.95 151.81 187.67 150.93 186.96 C 150.05 186.25 148.76 186.38 148.05 187.26 Z M 147.37 188.04 L 146.60 188.95 C 145.85 189.83 145.96 191.15 146.84 191.89 C 147.72 192.64 149.04 192.53 149.79 191.65 L 150.56 190.74 C 151.30 189.86 151.19 188.54 150.31 187.79 C 149.43 187.05 148.11 187.16 147.37 188.04 Z M 146.54 188.89 L 145.75 189.81 C 144.97 190.72 145.08 192.09 145.99 192.87 C 146.90 193.65 148.27 193.55 149.05 192.64 L 149.84 191.71 C 150.62 190.80 150.52 189.43 149.61 188.65 C 148.69 187.87 147.32 187.98 146.54 188.89 Z M 145.65 189.77 L 144.95 190.62 C 144.15 191.58 144.28 193.01 145.25 193.81 C 146.21 194.62 147.64 194.48 148.45 193.52 L 149.15 192.68 C 149.95 191.71 149.82 190.28 148.85 189.48 C 147.89 188.68 146.45 188.81 145.65 189.77 Z M 144.79 190.66 L 144.33 191.29 C 143.55 192.34 143.78 193.82 144.83 194.60 C 145.89 195.38 147.37 195.15 148.15 194.10 L 148.61 193.47 C 149.39 192.42 149.16 190.93 148.11 190.16 C 147.05 189.38 145.57 189.61 144.79 190.66 Z M 143.81 192.42 L 143.78 192.72 C 143.63 194.06 144.60 195.26 145.93 195.41 C 147.27 195.56 148.48 194.60 148.63 193.26 L 148.67 192.96 C 148.82 191.62 147.85 190.42 146.51 190.27 C 145.17 190.12 143.96 191.08 143.81 192.42 Z M 147.28 195.20 L 147.96 194.87 C 149.18 194.28 149.69 192.81 149.10 191.58 C 148.50 190.36 147.03 189.85 145.81 190.44 L 145.13 190.77 C 143.91 191.37 143.40 192.84 143.99 194.06 C 144.59 195.28 146.06 195.79 147.28 195.20 Z M 148.29 194.68 L 149.46 193.87 C 150.58 193.09 150.85 191.55 150.08 190.44 C 149.30 189.32 147.77 189.04 146.65 189.82 L 145.48 190.63 C 144.36 191.41 144.08 192.95 144.86 194.06 C 145.64 195.18 147.17 195.46 148.29 194.68 Z M 149.54 193.81 L 150.33 193.21 C 151.41 192.39 151.63 190.84 150.81 189.76 C 149.99 188.68 148.45 188.46 147.36 189.28 L 146.57 189.88 C 145.49 190.70 145.27 192.24 146.09 193.33 C 146.91 194.41 148.46 194.63 149.54 193.81 Z M 150.35 193.18 L 151.14 192.57 C 152.20 191.74 152.39 190.20 151.56 189.13 C 150.73 188.06 149.19 187.87 148.12 188.70 L 147.34 189.31 C 146.27 190.14 146.08 191.68 146.91 192.75 C 147.75 193.82 149.29 194.01 150.35 193.18 Z M 151.14 192.55 L 151.95 191.92 C 153.00 191.08 153.19 189.55 152.35 188.49 C 151.51 187.43 149.98 187.25 148.92 188.08 L 148.12 188.72 C 147.06 189.55 146.88 191.09 147.71 192.15 C 148.55 193.21 150.08 193.39 151.14 192.55 Z M 151.94 191.91 L 152.75 191.27 C 153.80 190.44 153.98 188.91 153.15 187.86 C 152.32 186.80 150.79 186.62 149.74 187.45 L 148.93 188.09 C 147.87 188.92 147.69 190.45 148.52 191.50 C 149.36 192.56 150.88 192.74 151.94 191.91 Z M 152.73 191.27 L 153.53 190.65 C 154.58 189.83 154.77 188.31 153.95 187.26 C 153.13 186.20 151.61 186.01 150.56 186.83 L 149.76 187.45 C 148.70 188.27 148.51 189.79 149.33 190.85 C 150.15 191.90 151.67 192.09 152.73 191.27 Z M 153.48 190.65 L 154.27 190.06 C 155.32 189.27 155.53 187.77 154.74 186.71 C 153.94 185.65 152.44 185.44 151.38 186.24 L 150.60 186.83 C 149.55 187.63 149.34 189.13 150.13 190.18 C 150.93 191.24 152.43 191.45 153.48 190.65 Z M 154.21 190.05 L 154.98 189.48 C 156.03 188.72 156.26 187.25 155.49 186.20 C 154.73 185.16 153.26 184.93 152.22 185.69 L 151.44 186.26 C 150.40 187.02 150.17 188.49 150.93 189.53 C 151.69 190.58 153.16 190.81 154.21 190.05 Z M 154.93 189.46 L 155.72 188.90 C 156.75 188.16 156.99 186.73 156.26 185.70 C 155.53 184.66 154.09 184.42 153.06 185.15 L 152.27 185.71 C 151.24 186.45 150.99 187.88 151.73 188.92 C 152.46 189.95 153.89 190.19 154.93 189.46 Z M 155.67 188.87 L 156.50 188.29 C 157.52 187.59 157.77 186.19 157.06 185.17 C 156.35 184.15 154.95 183.90 153.93 184.61 L 153.11 185.18 C 152.09 185.89 151.84 187.29 152.54 188.31 C 153.25 189.33 154.65 189.58 155.67 188.87 Z M 156.46 188.26 L 157.35 187.65 C 158.35 186.96 158.60 185.60 157.92 184.60 C 157.23 183.60 155.86 183.34 154.86 184.03 L 153.97 184.64 C 152.97 185.32 152.72 186.69 153.40 187.69 C 154.09 188.69 155.46 188.95 156.46 188.26 Z M 157.32 187.62 L 158.08 187.10 C 159.06 186.43 159.31 185.09 158.65 184.11 C 157.98 183.13 156.64 182.87 155.65 183.54 L 154.89 184.06 C 153.91 184.73 153.66 186.07 154.33 187.05 C 155.00 188.03 156.34 188.29 157.32 187.62 Z M 158.05 187.07 L 158.85 186.53 C 159.82 185.88 160.07 184.56 159.42 183.60 C 158.76 182.63 157.45 182.38 156.48 183.03 L 155.68 183.57 C 154.71 184.22 154.46 185.54 155.11 186.51 C 155.77 187.47 157.08 187.73 158.05 187.07 Z M 158.82 186.51 L 159.65 185.95 C 160.60 185.31 160.86 184.02 160.22 183.07 C 159.58 182.12 158.29 181.86 157.34 182.50 L 156.51 183.06 C 155.55 183.69 155.30 184.98 155.94 185.94 C 156.58 186.89 157.87 187.15 158.82 186.51 Z M 159.62 185.93 L 160.48 185.36 C 161.42 184.74 161.67 183.47 161.05 182.53 C 160.43 181.59 159.17 181.34 158.23 181.96 L 157.37 182.52 C 156.43 183.14 156.17 184.41 156.79 185.35 C 157.41 186.29 158.68 186.55 159.62 185.93 Z M 160.44 185.34 L 161.32 184.77 C 162.24 184.17 162.51 182.93 161.90 182.00 C 161.30 181.07 160.06 180.81 159.13 181.41 L 158.26 181.98 C 157.33 182.58 157.07 183.82 157.67 184.75 C 158.28 185.68 159.52 185.94 160.44 185.34 Z M 161.28 184.75 L 162.16 184.19 C 163.07 183.60 163.34 182.39 162.76 181.48 C 162.17 180.56 160.96 180.29 160.05 180.88 L 159.17 181.44 C 158.25 182.02 157.98 183.23 158.57 184.15 C 159.15 185.06 160.37 185.33 161.28 184.75 Z M 162.12 184.17 L 163.00 183.62 C 163.90 183.06 164.18 181.87 163.61 180.97 C 163.05 180.06 161.86 179.79 160.96 180.35 L 160.08 180.90 C 159.18 181.46 158.90 182.65 159.47 183.55 C 160.03 184.45 161.22 184.73 162.12 184.17 Z M 162.96 183.60 L 163.83 183.07 C 164.72 182.53 165.01 181.37 164.46 180.48 C 163.92 179.58 162.76 179.30 161.86 179.84 L 161.00 180.37 C 160.10 180.91 159.82 182.08 160.36 182.97 C 160.90 183.86 162.07 184.15 162.96 183.60 Z M 163.80 183.05 L 164.66 182.54 C 165.54 182.01 165.83 180.88 165.31 179.99 C 164.78 179.11 163.64 178.82 162.76 179.35 L 161.90 179.86 C 161.02 180.39 160.73 181.53 161.25 182.41 C 161.78 183.29 162.92 183.58 163.80 183.05 Z M 164.63 182.52 L 165.49 182.01 C 166.36 181.50 166.65 180.39 166.14 179.52 C 165.63 178.65 164.52 178.36 163.65 178.87 L 162.79 179.37 C 161.92 179.88 161.63 181.00 162.14 181.86 C 162.65 182.73 163.76 183.02 164.63 182.52 Z M 165.46 181.99 L 166.32 181.49 C 167.17 181.00 167.47 179.91 166.97 179.05 C 166.48 178.20 165.39 177.91 164.53 178.40 L 163.68 178.89 C 162.82 179.39 162.53 180.48 163.02 181.33 C 163.52 182.19 164.61 182.48 165.46 181.99 Z M 166.30 181.46 L 167.15 180.98 C 167.99 180.49 168.28 179.42 167.80 178.59 C 167.32 177.75 166.25 177.46 165.41 177.94 L 164.56 178.43 C 163.72 178.91 163.43 179.98 163.91 180.82 C 164.39 181.66 165.46 181.95 166.30 181.46 Z M 167.14 180.95 L 167.72 180.62 C 168.54 180.15 168.83 179.10 168.36 178.27 C 167.89 177.44 166.83 177.16 166.01 177.63 L 165.43 177.96 C 164.60 178.43 164.32 179.48 164.79 180.31 C 165.26 181.14 166.31 181.42 167.14 180.95 Z"
      fill="black"
      fill-rule="nonzero" /></svg>